<?xml version="1.0" encoding="UTF-8"?>
<svg id="Calque_1" data-name="Calque 1" xmlns="http://www.w3.org/2000/svg" version="1.1" viewBox="0 0 764.7 609.9">
  <defs>
    <style>
      .cls-1 {
        fill: #000;
        stroke-width: 0px;
      }
    </style>
  </defs>
  <g>
    <path class="cls-1" d="M571.2,355.8h17.4c10,24.1,20.1,48.3,30.2,72.9h-19.7c-1.9-4.7-3.8-9.2-5.8-13.9h-28.1c-1.8,4.4-3.6,9-5.5,13.8h-19.2c10.2-24.3,20.3-48.4,30.5-72.7ZM580.1,376.8c-.4,0-.7,0-1.1,0-2.8,7.5-5.6,15-8.5,22.9h17.8c-2.9-8-5.6-15.5-8.3-22.9Z"/>
    <path class="cls-1" d="M509.5,355.8h17v72.6h-19.9c-9.3-15.1-18.9-30.6-28.4-46-.3.1-.5.2-.8.3v45.6h-16.6v-72.4h20.1c9.2,14.9,18.6,30.1,28,45.4h.7v-45.6Z"/>
    <path class="cls-1" d="M399.1,353.6c20.2.2,34.5,9,39.4,23.8,9.8,29.7-10.2,57.5-43.8,52.9-28.4-3.9-42.7-34.1-28.2-58.7,7.8-13.2,20.4-17.8,32.6-18ZM421.9,389.8c0-5.5-2.5-12.3-9.4-16.8-6.9-4.6-16.5-4.6-23.1.1-8.3,5.9-10.3,14.5-8.6,23.9,1.5,8.5,6.3,14.6,15,16.9,14,3.6,25.9-6.4,26.1-24.1Z"/>
    <path class="cls-1" d="M288.8,355.6c3,0,5.8,0,8.6,0,6.5,0,13,0,19.5,0,5.7,0,11.3.7,16.5,3.3,7.6,3.8,11.2,10.2,11.2,18.6,0,8.2-3.5,14.4-10.9,18.2-1.2.6-2.4,1.2-4.1,2,6.1,10.1,12.2,20.1,18.6,30.7h-20.7c-5.2-9.4-10.5-18.9-15.8-28.5h-5.9v28.5h-17.1v-72.9ZM305.9,387.3c5.5-.6,10.5-.6,15.3-1.6,4-.8,5.7-3.8,5.6-7.7,0-3.9-1.8-6.5-6.1-7.3-4.8-.8-9.7-.7-14.8-1v17.7Z"/>
    <path class="cls-1" d="M229.1,353.6c8.5,0,16.6,1.7,23.7,6.5,11.8,7.8,16.5,19.1,16.2,32.9-.6,25.2-21.2,41.4-47.1,37.3-34.6-5.5-39.3-43.6-25.2-61.9,8.2-10.6,19.4-14.6,32.4-14.7ZM208.6,391.8c0,13.7,9.2,23.4,21.6,22.8,10.2-.5,18.1-7.8,19.6-18.1,1.7-11.8-3.3-21.9-12.8-25.5-14.4-5.5-28.3,4.7-28.4,20.8Z"/>
    <path class="cls-1" d="M166.9,407.2c4.1,3.8,7.9,7.4,11.7,11-9.9,14.4-37.9,17.6-54.6,3.4-16.4-14-17.5-41.7-2.4-56.9,14.7-14.7,44-15,56.2-.4-4,3.6-8,7.3-12.1,11-9.9-7.8-21.8-7.6-29.5.8-7.9,8.7-7.6,24.2.6,32.4,8,8,19.8,7.7,30.1-1.4Z"/>
  </g>
  <g>
    <path class="cls-1" d="M365.2,100.1c25.1,49.1,49.7,97.4,74.5,145.8h35.7c4-22.7,8.1-45.4,12.3-69.3-15.4,11.5-29.9,22.3-44.8,33.4-3-5.8-5.8-11.2-8.9-17.3,26.8-20,53.5-39.9,81.1-60.5-8,45.1-15.8,88.9-23.6,133h-63.5c-20.7-40.6-41.5-81.3-62.7-122.7-9.7,19-19.1,37.3-28.6,56-5.4-4-10.3-7.7-15.6-11.7,14.7-28.8,29.2-57.3,44.2-86.6Z"/>
    <path class="cls-1" d="M216.4,132.9c49.5,36.9,99,73.7,148.8,110.8,7.2-5.3,14.4-10.6,22-16.2,3,5.8,5.8,11.3,8.9,17.2-10.2,7.7-20.5,15.3-30.8,23-40.7-30.3-81.2-60.4-122.6-91.3,4.2,23.7,8.2,46.3,12.3,69.2h35.7c1.2-1.9,2.5-4,4-6.5,5.2,3.8,10.1,7.5,15.3,11.4-2.5,5-5,9.8-7.4,14.6h-63.6c-7.8-44-15.6-87.9-23.4-131.7.3-.2.5-.4.8-.6Z"/>
    <path class="cls-1" d="M486.8,284.2c-1.2,5.2-2.3,10.1-3.5,15.2h-236.3c-1.1-4.9-2.3-9.8-3.5-15.2h243.3Z"/>
  </g>
  <g>
    <path class="cls-1" d="M209.3,485.1h6.9c.9,0,1.9,0,2.8.3.9.2,1.7.5,2.4.9s1.3,1,1.7,1.7c.4.7.7,1.6.7,2.6s-.4,2.4-1.1,3.3c-.7.9-1.7,1.5-2.9,1.8h0c.7.1,1.4.3,2,.6.6.3,1.2.7,1.6,1.2.5.5.8,1.1,1.1,1.7.3.7.4,1.3.4,2.1,0,1.3-.3,2.3-.8,3.1-.5.8-1.2,1.5-2,1.9-.8.5-1.8.8-2.8,1-1.1.2-2.1.3-3.2.3h-6.8v-22.7ZM212,494.7h3.7c.6,0,1.3,0,1.9-.1s1.2-.3,1.6-.5.9-.6,1.2-1.1c.3-.5.4-1.1.4-1.9s-.1-1.3-.4-1.7c-.3-.4-.6-.8-1.1-1-.5-.3-1-.4-1.6-.5-.6,0-1.2-.1-1.8-.1h-4v7.1ZM212,505.2h4.5c.7,0,1.3,0,2-.2.7-.1,1.2-.4,1.8-.7.5-.3.9-.7,1.3-1.2s.5-1.1.5-1.8-.2-1.5-.5-2c-.3-.5-.7-1-1.2-1.3-.5-.3-1.1-.5-1.7-.7s-1.3-.2-2-.2h-4.6v8.1Z"/>
    <path class="cls-1" d="M237.7,485.1h2.5l9.6,22.7h-3.1l-2.3-5.6h-11.3l-2.3,5.6h-3l10-22.7ZM238.9,488.5h0l-4.7,11.1h9.2l-4.5-11.1Z"/>
    <path class="cls-1" d="M253.6,485.1h5.8c1.1,0,2.2,0,3.2.2,1.1.1,2,.4,2.9.8.9.4,1.5,1.1,2.1,1.9.5.8.8,1.9.8,3.3s-.5,3-1.5,4c-1,1-2.4,1.7-4.2,2l6.4,10.4h-3.3l-6.1-10.2h-3.5v10.2h-2.7v-22.7ZM256.3,495.1h2.4c.7,0,1.5,0,2.3,0,.8,0,1.5-.2,2.2-.4.7-.2,1.2-.6,1.7-1.1.4-.5.7-1.2.7-2.2s-.2-1.5-.5-2c-.3-.5-.7-.9-1.3-1.1-.5-.3-1.1-.4-1.8-.5-.7,0-1.3-.1-2-.1h-3.8v7.5Z"/>
    <path class="cls-1" d="M296.8,504.5c-.9,1.2-1.9,2-2.9,2.7-1,.6-2.3,1-3.8,1s-1.9-.1-2.8-.4c-.9-.3-1.6-.7-2.3-1.3-.7-.6-1.2-1.2-1.6-2-.4-.8-.6-1.7-.6-2.7s.1-1.5.4-2.2c.3-.7.6-1.3,1.1-1.8.5-.5,1-1,1.6-1.4.6-.4,1.3-.8,1.9-1.1-.7-.7-1.4-1.5-1.9-2.4s-.8-1.8-.8-2.9.2-1.6.5-2.2c.3-.7.7-1.2,1.3-1.6.5-.4,1.2-.8,1.9-1,.7-.2,1.5-.3,2.2-.3s1.5.1,2.2.3c.7.2,1.3.5,1.8.9.5.4.9.9,1.2,1.6.3.6.4,1.4.4,2.2s-.1,1.3-.4,1.9c-.3.6-.7,1.1-1.1,1.6-.5.5-1,.9-1.5,1.2s-1.1.7-1.7,1l4.8,5.1,3-5.1h3l-4.4,7,5.2,5.3h-3.7l-3.1-3.3ZM289.5,496.7c-.5.3-1,.5-1.4.8-.5.3-.9.7-1.3,1-.4.4-.7.8-.9,1.3-.2.5-.4,1-.4,1.6s.1,1.2.4,1.7c.2.5.6,1,1,1.3s.9.7,1.4.9c.5.2,1.1.3,1.7.3s1.1,0,1.6-.3c.5-.2.9-.4,1.4-.7s.8-.6,1.2-1c.4-.4.7-.8,1.1-1.2l-5.7-6ZM290.1,493.8c.4-.2.9-.5,1.3-.7.4-.3.9-.5,1.2-.9.4-.3.7-.7.9-1.1.2-.4.4-.9.4-1.5,0-.8-.3-1.5-.8-2-.6-.5-1.2-.7-2-.7s-1.7.3-2.3.8-1,1.3-1,2.2.2,1.2.5,1.6c.3.5.7.9,1.1,1.3l.8.8Z"/>
    <path class="cls-1" d="M317.3,485.1h5.8c1.1,0,2.2,0,3.2.2,1.1.1,2,.4,2.9.8.9.4,1.5,1.1,2.1,1.9.5.8.8,1.9.8,3.3s-.5,3-1.5,4c-1,1-2.4,1.7-4.2,2l6.4,10.4h-3.3l-6.1-10.2h-3.5v10.2h-2.7v-22.7ZM320,495.1h2.4c.7,0,1.5,0,2.3,0,.8,0,1.5-.2,2.2-.4.7-.2,1.2-.6,1.7-1.1.4-.5.7-1.2.7-2.2s-.2-1.5-.5-2c-.3-.5-.7-.9-1.3-1.1-.5-.3-1.1-.4-1.8-.5-.7,0-1.3-.1-2-.1h-3.8v7.5Z"/>
    <path class="cls-1" d="M337.6,485.1h14.2v2.5h-11.6v7.1h10.8v2.5h-10.8v8.1h12.1v2.5h-14.8v-22.7Z"/>
    <path class="cls-1" d="M368.1,489.1c-.4-.7-1-1.3-1.8-1.6-.7-.3-1.5-.5-2.3-.5s-1.2,0-1.8.2c-.6.1-1.1.4-1.6.7-.5.3-.8.7-1.1,1.2-.3.5-.4,1.1-.4,1.7s0,1,.2,1.4c.2.4.4.8.8,1.1s.9.6,1.5.9c.6.3,1.4.6,2.3.8.9.3,1.7.6,2.5.9s1.5.7,2.2,1.2c.6.5,1.1,1.1,1.5,1.8.4.7.6,1.7.6,2.8s-.2,2.1-.7,2.9c-.4.8-1,1.5-1.8,2.1-.7.5-1.6.9-2.5,1.2s-2,.4-3,.4-1.3,0-2-.2c-.7-.1-1.3-.3-1.9-.5-.6-.2-1.2-.6-1.7-1s-1-.9-1.4-1.5l2.3-1.9c.5.8,1.2,1.5,2,1.9.9.4,1.8.6,2.8.6s1.2,0,1.7-.3c.6-.2,1.1-.4,1.6-.8.5-.3.9-.7,1.2-1.2.3-.5.4-1.1.4-1.7s-.1-1.3-.4-1.7c-.2-.4-.6-.8-1.1-1.1s-1.1-.6-1.9-.9c-.7-.3-1.6-.6-2.6-.9-.8-.3-1.6-.5-2.2-.9-.7-.3-1.3-.7-1.8-1.2-.5-.5-.9-1.1-1.2-1.7s-.4-1.5-.4-2.4.2-2,.6-2.8c.4-.8,1-1.5,1.7-2,.7-.5,1.5-1,2.5-1.2.9-.3,1.9-.4,2.9-.4s2.4.2,3.5.6c1.1.4,2,1.1,2.8,2.1l-2.2,1.9Z"/>
    <path class="cls-1" d="M391.2,487.6h-7.5v20.2h-2.7v-20.2h-7.5v-2.5h17.7v2.5Z"/>
    <path class="cls-1" d="M399.6,485.1h2.5l9.6,22.7h-3.1l-2.3-5.6h-11.3l-2.3,5.6h-3l10-22.7ZM400.8,488.5h0l-4.7,11.1h9.2l-4.5-11.1Z"/>
    <path class="cls-1" d="M432.5,499.1c0,1.2-.2,2.4-.5,3.5-.3,1.1-.8,2.1-1.5,2.9-.7.8-1.6,1.5-2.6,2s-2.4.8-4,.8-2.9-.3-4-.8-2-1.2-2.6-2c-.7-.8-1.2-1.8-1.5-2.9-.3-1.1-.5-2.3-.5-3.5v-14h2.7v13.6c0,.9,0,1.8.3,2.7.2.9.5,1.6,1,2.3s1,1.2,1.8,1.6c.7.4,1.7.6,2.8.6s2.1-.2,2.8-.6c.7-.4,1.3-.9,1.8-1.6s.8-1.4,1-2.3c.2-.9.3-1.7.3-2.7v-13.6h2.7v14Z"/>
    <path class="cls-1" d="M438.9,485.1h5.8c1.1,0,2.2,0,3.2.2,1.1.1,2,.4,2.9.8s1.5,1.1,2.1,1.9.8,1.9.8,3.3-.5,3-1.5,4c-1,1-2.4,1.7-4.2,2l6.4,10.4h-3.3l-6.1-10.2h-3.5v10.2h-2.7v-22.7ZM441.6,495.1h2.4c.7,0,1.5,0,2.3,0,.8,0,1.5-.2,2.2-.4.7-.2,1.2-.6,1.7-1.1.4-.5.7-1.2.7-2.2s-.2-1.5-.5-2c-.3-.5-.7-.9-1.3-1.1s-1.1-.4-1.8-.5c-.7,0-1.3-.1-2-.1h-3.8v7.5Z"/>
    <path class="cls-1" d="M466.6,485.1h2.5l9.6,22.7h-3.1l-2.3-5.6h-11.3l-2.3,5.6h-3l10-22.7ZM467.8,488.5h0l-4.7,11.1h9.2l-4.5-11.1Z"/>
    <path class="cls-1" d="M482.5,485.1h3.4l13.1,18.8h0v-18.8h2.7v22.7h-3.4l-13.1-18.8h0v18.8h-2.7v-22.7Z"/>
    <path class="cls-1" d="M523.4,487.6h-7.5v20.2h-2.7v-20.2h-7.5v-2.5h17.7v2.5Z"/>
  </g>
</svg>