<?xml version="1.0" encoding="UTF-8"?>
<svg id="Calque_1" data-name="Calque 1" xmlns="http://www.w3.org/2000/svg" version="1.1" viewBox="0 0 519.3 376.2">
  <defs>
    <style>
      .cls-1 {
        stroke-width: 0px;
      }

      .cls-1, .cls-2 {
        fill: #000;
      }

      .cls-2 {
        display: none;
        font-family: OpenSans-Italic, 'Open Sans';
        font-size: 16px;
        font-style: italic;
        letter-spacing: 0em;
      }
    </style>
  </defs>
  <path class="cls-1" d="M274.3,165.3l-50.9-72.8c0,0,0,0-.1-.1,0-.1-.2-.2-.3-.4-.2-.2-.5-.5-.8-.7-.1,0-.2-.2-.3-.2,0,0-.2,0-.3-.2-.1,0-.2,0-.3-.1,0,0-.1,0-.2,0-.1,0-.2,0-.4-.1-.2,0-.3,0-.5,0,0,0-.1,0-.2,0-.2,0-.3,0-.5,0h-74.7c-1.5,0-2.9.8-3.8,2l-12.4,18.7h-39.3c-1.5,0-2.9.8-3.7,2l-35,52.2c-.9,1.4-1,3.2-.2,4.6.8,1.5,2.3,2.4,4,2.4h114.2c.1,0,.2,0,.3,0,.1,0,.2,0,.3,0,.1,0,.2,0,.3,0,0,0,.2,0,.2,0,.4-.1.8-.3,1.2-.5.1,0,.2-.2.3-.2,0,0,0,0,.1,0,.2-.1.3-.2.4-.4.1-.2.3-.3.4-.5h0s47.2-67.6,47.2-67.6l47.3,67.6c1.4,2,4.2,2.5,6.3,1.1,2-1.4,2.5-4.2,1.1-6.3ZM91.9,120.2h30.9l-28.7,43.2h-31.2l29-43.2ZM104.9,163.3l26.4-39.8,28.6,39.8h-55ZM168.7,160.1l-32-44.5,10.7-16.1h63.6l-42.4,60.6Z"/>
  <rect class="cls-1" x="296.5" y="40.5" width="5" height="181.2"/>
  <path class="cls-1" d="M386.4,213.5h12v-39.1h17.8c.6,0,1.2,0,1.8,0l24.4,39.2h14.1l-26.2-42.1c2.8-1.2,5.4-2.8,7.8-4.6,7.1-5.6,11-13.4,11-21.9,0-17-12.3-29.3-29.3-29.3h-33.4v40.4c-1.8.2-3.7.3-5.7.3-22.7,0-37.4-14.6-37.4-37.3s15.2-35.9,37.9-35.9,22.1,7.7,26.8,13.4l9.3-7.6c-3.6-4.4-14.6-17.8-36.1-17.8s-27,4.8-36.2,13.8c-8.8,8.7-13.7,20.8-13.7,34.2,0,29.5,19.8,49.3,49.4,49.3s3.9,0,5.7-.3v45.5ZM398.4,127.6h21.4c8.6,0,17.3,5.3,17.3,17.3s-6.4,13.8-13.3,16.2c-1.6.6-3.3,1-4.9,1.2-1,.1-1.9.2-2.8.2h-11.5c6.2-3.6,10.3-8.3,13.1-12.6l-10.1-6.5c-2.5,3.8-5.6,6.8-9.3,8.9v-24.6Z"/>
  <g>
    <path class="cls-1" d="M72.6,268.5c0-10,6.1-16,13.8-16s6.8,1.8,8.6,3.8l-2.5,3c-1.6-1.7-3.5-2.8-6-2.8-5.4,0-9.1,4.5-9.1,11.8s3.5,11.9,9,11.9,5-1.3,6.8-3.3l2.5,2.9c-2.5,2.9-5.6,4.5-9.5,4.5-7.7,0-13.6-5.8-13.6-15.9Z"/>
    <path class="cls-1" d="M125.2,268.3c0-9.9,5.5-15.8,13.3-15.8s13.3,5.9,13.3,15.8-5.5,16-13.3,16-13.3-6.1-13.3-16ZM147.1,268.3c0-7.3-3.4-11.7-8.5-11.7s-8.5,4.4-8.5,11.7,3.4,12,8.5,12,8.5-4.7,8.5-12Z"/>
    <path class="cls-1" d="M185.5,253.1h4.8l10.3,18.3,3.2,6.5h.2c-.2-3.1-.6-6.8-.6-10.1v-14.6h4.4v30.7h-4.8l-10.3-18.3-3.2-6.4h-.2c.2,3.2.6,6.7.6,10v14.8h-4.4v-30.7Z"/>
    <path class="cls-1" d="M241,279.8l2.8-3.2c2.2,2.2,5.2,3.7,8.2,3.7s5.9-1.8,5.9-4.5-2.1-3.7-4.9-5l-4.3-1.9c-2.9-1.2-6.2-3.5-6.2-8s4.2-8.4,10-8.4,7,1.5,9.3,3.9l-2.4,3c-1.9-1.7-4.1-2.8-6.8-2.8s-5.3,1.5-5.3,4,2.5,3.7,5,4.7l4.3,1.8c3.6,1.5,6.3,3.7,6.3,8.2s-4.1,8.9-10.7,8.9-8.1-1.7-10.9-4.5Z"/>
    <path class="cls-1" d="M295.7,253.1h18.1v3.9h-13.4v8.7h11.3v3.9h-11.3v10.1h13.9v3.9h-18.6v-30.7Z"/>
    <path class="cls-1" d="M347.8,253.1h4.7v30.7h-4.7v-30.7Z"/>
    <path class="cls-1" d="M387.8,253.1h4.7v26.8h13.1v3.9h-17.8v-30.7Z"/>
    <path class="cls-1" d="M434.9,279.8l2.8-3.2c2.2,2.2,5.2,3.7,8.2,3.7s5.9-1.8,5.9-4.5-2.1-3.7-4.9-5l-4.3-1.9c-2.9-1.2-6.2-3.5-6.2-8s4.2-8.4,10-8.4,7,1.5,9.3,3.9l-2.4,3c-1.9-1.7-4.1-2.8-6.8-2.8s-5.3,1.5-5.3,4,2.5,3.7,5,4.7l4.3,1.8c3.6,1.5,6.3,3.7,6.3,8.2s-4.1,8.9-10.7,8.9-8.1-1.7-10.9-4.5Z"/>
  </g>
  <text class="cls-2" transform="translate(86 315.3)"><tspan x="0" y="0">Rafraichissez votre quotidien, sublimez votre toit</tspan></text>
  <g>
    <path class="cls-1" d="M89,310.6l-1,4.8h-1.3l2.4-11.4h2.5c2.3,0,3.5,1,3.5,2.9s-1,3-2.9,3.5l1.9,5.1h-1.5l-1.6-4.8h-2ZM90.2,305.1c-.5,2.6-.8,4-.9,4.4h1.3c1,0,1.8-.2,2.3-.7.5-.4.8-1.1.8-1.9s-.2-1.1-.5-1.4c-.4-.3-.9-.4-1.7-.4h-1.3Z"/>
    <path class="cls-1" d="M100.5,306.6c.5,0,.9.1,1.3.4s.7.6.9,1.1h0l.5-1.3h1l-1.8,8.6h-1l.2-1.6h0c-.9,1.2-1.9,1.8-2.9,1.8s-1.3-.3-1.7-.8c-.4-.5-.6-1.2-.6-2.1s.2-2.1.6-3c.4-.9.9-1.7,1.5-2.2.7-.5,1.4-.8,2.1-.8ZM99,314.4c.5,0,1-.2,1.5-.7.5-.5.9-1.1,1.2-1.9s.5-1.5.5-2.3-.1-1-.4-1.3c-.3-.3-.7-.5-1.1-.5s-1,.2-1.5.7c-.5.4-.8,1.1-1.1,1.8s-.4,1.6-.4,2.4.1,1,.4,1.3c.2.3.6.4,1,.4Z"/>
    <path class="cls-1" d="M104.1,319.2c-.4,0-.7,0-1-.2v-1.1c.3.1.6.2.9.2.4,0,.7-.2.9-.5.2-.3.4-.8.5-1.4l1.8-8.5h-1.5v-.5c.1,0,1.7-.5,1.7-.5l.2-.8c.2-1,.6-1.8,1-2.2.4-.4,1.1-.6,1.9-.6s.5,0,.8,0c.3,0,.5.1.7.2l-.3,1c-.4-.2-.8-.2-1.1-.2-.5,0-.8.1-1,.4-.2.3-.4.7-.6,1.4l-.2.8h1.9l-.2,1h-1.9l-1.8,8.6c-.2,1-.5,1.7-.9,2.2s-1,.7-1.7.7Z"/>
    <path class="cls-1" d="M116.2,306.6c.4,0,.7,0,.9.1l-.3,1.2c-.3,0-.5-.1-.8-.1-.5,0-.9.2-1.3.5s-.8.7-1.1,1.3c-.3.6-.5,1.2-.7,1.8l-.8,3.9h-1.3l1.8-8.6h1.1l-.2,1.6h0c.4-.5.7-.9.9-1.1.2-.2.5-.4.8-.5.3-.1.6-.2.9-.2Z"/>
    <path class="cls-1" d="M122.1,306.6c.5,0,.9.1,1.3.4s.7.6.9,1.1h0l.5-1.3h1l-1.8,8.6h-1l.2-1.6h0c-.9,1.2-1.9,1.8-2.9,1.8s-1.3-.3-1.7-.8c-.4-.5-.6-1.2-.6-2.1s.2-2.1.6-3c.4-.9.9-1.7,1.5-2.2.7-.5,1.4-.8,2.1-.8ZM120.6,314.4c.5,0,1-.2,1.5-.7.5-.5.9-1.1,1.2-1.9s.5-1.5.5-2.3-.1-1-.4-1.3c-.3-.3-.7-.5-1.1-.5s-1,.2-1.5.7c-.5.4-.8,1.1-1.1,1.8s-.4,1.6-.4,2.4.1,1,.4,1.3c.2.3.6.4,1,.4Z"/>
    <path class="cls-1" d="M128.3,315.3h-1.3l1.8-8.6h1.3l-1.8,8.6ZM129.2,304.6c0-.3,0-.5.2-.7.2-.2.4-.3.6-.3.5,0,.7.2.7.7s0,.5-.3.7c-.2.2-.4.3-.6.3s-.4,0-.5-.2c-.1-.1-.2-.3-.2-.5Z"/>
    <path class="cls-1" d="M134.9,315.5c-1,0-1.8-.3-2.4-.8-.6-.6-.8-1.3-.8-2.4s.2-2,.6-2.9c.4-.9.9-1.6,1.6-2.1s1.4-.7,2.3-.7,1.4.1,2.1.4l-.4,1.1c-.6-.3-1.2-.4-1.7-.4s-1.1.2-1.6.6c-.5.4-.9,1-1.1,1.7s-.4,1.5-.4,2.3.2,1.2.5,1.6c.3.4.8.6,1.4.6s.7,0,1.1-.2c.3-.1.7-.2,1-.4v1.1c-.6.3-1.4.5-2.2.5Z"/>
    <path class="cls-1" d="M144.3,315.3l1.2-5.4c0-.5.1-.8.1-1.1,0-.8-.4-1.2-1.1-1.2s-.9.2-1.4.5c-.4.3-.8.8-1.2,1.3s-.6,1.3-.8,2.1l-.8,3.7h-1.3l2.6-12.2h1.3c0,.4-.2.8-.3,1.2,0,.4-.2.8-.3,1.2,0,.4-.2.8-.3,1.3-.1.5-.2.9-.4,1.5h0c.5-.6,1-1.1,1.4-1.4.5-.3,1-.4,1.5-.4s1.2.2,1.6.6c.4.4.6.9.6,1.6s0,.8-.2,1.3c-.2,1-.6,2.8-1.1,5.2h-1.3Z"/>
    <path class="cls-1" d="M150,315.3h-1.3l1.8-8.6h1.3l-1.8,8.6ZM150.9,304.6c0-.3,0-.5.2-.7.2-.2.4-.3.6-.3.5,0,.7.2.7.7s0,.5-.3.7c-.2.2-.4.3-.6.3s-.4,0-.5-.2c-.1-.1-.2-.3-.2-.5Z"/>
    <path class="cls-1" d="M158.4,312.9c0,.8-.3,1.4-.9,1.9-.6.5-1.4.7-2.4.7s-1.7-.2-2.4-.5v-1.2c.4.2.8.4,1.2.5.4.1.8.2,1.2.2.7,0,1.2-.1,1.5-.4.3-.3.5-.6.5-1s0-.5-.3-.8c-.2-.2-.6-.5-1.2-.8-.7-.4-1.2-.8-1.4-1.1-.3-.4-.4-.8-.4-1.3,0-.7.3-1.3.8-1.7.5-.4,1.2-.7,2.1-.7s1.8.2,2.6.6l-.4,1.1-.4-.2c-.5-.2-1.1-.3-1.7-.3s-.9.1-1.1.3c-.3.2-.4.5-.4.9s0,.5.3.8c.2.2.6.5,1.1.8.6.3,1,.6,1.2.8.2.2.4.5.5.7.1.3.2.5.2.9Z"/>
    <path class="cls-1" d="M165.7,312.9c0,.8-.3,1.4-.9,1.9-.6.5-1.4.7-2.4.7s-1.7-.2-2.4-.5v-1.2c.4.2.8.4,1.2.5.4.1.8.2,1.2.2.7,0,1.2-.1,1.5-.4.3-.3.5-.6.5-1s0-.5-.3-.8c-.2-.2-.6-.5-1.2-.8-.7-.4-1.2-.8-1.4-1.1-.3-.4-.4-.8-.4-1.3,0-.7.3-1.3.8-1.7.5-.4,1.2-.7,2.1-.7s1.8.2,2.6.6l-.4,1.1-.4-.2c-.5-.2-1.1-.3-1.7-.3s-.9.1-1.1.3c-.3.2-.4.5-.4.9s0,.5.3.8c.2.2.6.5,1.1.8.6.3,1,.6,1.2.8.2.2.4.5.5.7.1.3.2.5.2.9Z"/>
    <path class="cls-1" d="M171,315.5c-1,0-1.7-.3-2.3-.9-.5-.6-.8-1.4-.8-2.4s.2-1.9.6-2.8c.4-.9.9-1.6,1.5-2.1s1.3-.8,2.1-.8,1.4.2,1.8.5c.4.3.6.8.6,1.4,0,.9-.4,1.7-1.3,2.2-.9.5-2.1.8-3.7.8h-.3v.6c0,.7.1,1.2.4,1.6s.8.6,1.5.6.7,0,1-.1c.3,0,.8-.3,1.3-.5v1.1c-.5.2-.9.4-1.3.5s-.8.1-1.2.1ZM172.1,307.7c-.5,0-1,.2-1.5.7-.5.5-.8,1.2-1.1,2h0c1.2,0,2.1-.2,2.7-.5.6-.3.9-.8.9-1.3s0-.5-.3-.7c-.2-.2-.5-.3-.9-.3Z"/>
    <path class="cls-1" d="M180.9,315.3h-5.6l.2-.9,5.4-6.7h-3.7l.2-1h5.1l-.2,1.1-5.3,6.5h4.1l-.2,1Z"/>
    <path class="cls-1" d="M189.3,315.3l-1-8.6h1.3l.5,4.8c.1,1.3.2,2.3.2,2.8h0c.7-1.4,1.1-2.4,1.4-2.9l2.5-4.7h1.4l-4.6,8.6h-1.8Z"/>
    <path class="cls-1" d="M200.4,306.7c1,0,1.8.3,2.3.9.6.6.9,1.4.9,2.4s-.2,1.9-.6,2.8c-.4.9-.9,1.5-1.5,2-.6.5-1.4.7-2.2.7s-1.8-.3-2.4-.9c-.6-.6-.9-1.4-.9-2.4s.2-1.9.6-2.8c.4-.9.9-1.5,1.5-2,.6-.5,1.4-.7,2.1-.7ZM202.2,309.8c0-.6-.2-1.1-.5-1.5-.3-.4-.8-.6-1.3-.6s-1.1.2-1.5.6c-.5.4-.8.9-1,1.6-.2.7-.4,1.4-.4,2.3s.2,1.2.5,1.6c.3.4.8.6,1.4.6s1-.2,1.5-.6c.4-.4.8-.9,1-1.6.2-.7.4-1.5.4-2.4Z"/>
    <path class="cls-1" d="M207.8,314.4c.3,0,.7,0,1.1-.2v1c-.2,0-.4.1-.7.2-.3,0-.5,0-.6,0-.7,0-1.1-.2-1.5-.5-.3-.3-.5-.8-.5-1.4s0-.7.1-1.2l1-4.7h-1.3v-.6c.1,0,1.6-.6,1.6-.6l1-1.8h.8l-.4,2h2.1l-.2,1h-2.1l-1,4.7c0,.5-.1.8-.1,1s0,.5.2.7c.2.2.4.2.6.2Z"/>
    <path class="cls-1" d="M216.2,306.6c.4,0,.7,0,.9.1l-.3,1.2c-.3,0-.5-.1-.8-.1-.5,0-.9.2-1.3.5s-.8.7-1.1,1.3c-.3.6-.5,1.2-.7,1.8l-.8,3.9h-1.3l1.8-8.6h1.1l-.2,1.6h0c.4-.5.7-.9.9-1.1.2-.2.5-.4.8-.5.3-.1.6-.2.9-.2Z"/>
    <path class="cls-1" d="M220.9,315.5c-1,0-1.7-.3-2.3-.9-.5-.6-.8-1.4-.8-2.4s.2-1.9.6-2.8c.4-.9.9-1.6,1.5-2.1s1.3-.8,2.1-.8,1.4.2,1.8.5c.4.3.6.8.6,1.4,0,.9-.4,1.7-1.3,2.2-.9.5-2.1.8-3.7.8h-.3v.6c0,.7.1,1.2.4,1.6s.8.6,1.5.6.7,0,1-.1c.3,0,.8-.3,1.3-.5v1.1c-.5.2-.9.4-1.3.5s-.8.1-1.2.1ZM222,307.7c-.5,0-1,.2-1.5.7-.5.5-.8,1.2-1.1,2h0c1.2,0,2.1-.2,2.7-.5.6-.3.9-.8.9-1.3s0-.5-.3-.7c-.2-.2-.5-.3-.9-.3Z"/>
    <path class="cls-1" d="M234.9,306.6c.5,0,.9.1,1.3.4.4.3.7.6.8,1.1h.1l.5-1.3h1l-2.6,12.4h-1.3l.8-3.8c0-.2.2-.8.4-1.7h0c-.5.6-1,1.1-1.4,1.4s-1,.4-1.5.4c-.7,0-1.3-.3-1.7-.8s-.6-1.2-.6-2.1.2-2.1.6-3.1c.4-.9.9-1.7,1.5-2.2.6-.5,1.4-.8,2.1-.8ZM233.4,314.4c.5,0,1-.2,1.5-.7.5-.5.9-1.1,1.2-1.9.3-.8.5-1.5.5-2.3s-.1-1-.4-1.3c-.3-.3-.7-.5-1.2-.5s-1,.2-1.5.7c-.5.4-.8,1-1.1,1.8-.3.8-.4,1.6-.4,2.4s.5,1.8,1.4,1.8Z"/>
    <path class="cls-1" d="M243,306.8l-1.2,5.4c0,.5-.1.8-.1,1.1,0,.7.4,1.1,1.1,1.1s.9-.2,1.4-.5c.4-.3.8-.8,1.2-1.3.3-.6.6-1.3.8-2.1l.8-3.7h1.3l-1.8,8.6h-1.1l.2-1.6h0c-.5.7-1,1.1-1.5,1.4-.5.3-.9.4-1.4.4s-1.2-.2-1.6-.5c-.4-.4-.6-.9-.6-1.6s0-.8.2-1.3l1.1-5.3h1.3Z"/>
    <path class="cls-1" d="M254.2,306.7c1,0,1.8.3,2.3.9.6.6.9,1.4.9,2.4s-.2,1.9-.6,2.8c-.4.9-.9,1.5-1.5,2-.6.5-1.4.7-2.2.7s-1.8-.3-2.4-.9c-.6-.6-.9-1.4-.9-2.4s.2-1.9.6-2.8c.4-.9.9-1.5,1.5-2,.6-.5,1.4-.7,2.1-.7ZM256,309.8c0-.6-.2-1.1-.5-1.5-.3-.4-.8-.6-1.3-.6s-1.1.2-1.5.6c-.5.4-.8.9-1,1.6-.2.7-.4,1.4-.4,2.3s.2,1.2.5,1.6c.3.4.8.6,1.4.6s1-.2,1.5-.6c.4-.4.8-.9,1-1.6.2-.7.4-1.5.4-2.4Z"/>
    <path class="cls-1" d="M261.6,314.4c.3,0,.7,0,1.1-.2v1c-.2,0-.4.1-.7.2-.3,0-.5,0-.6,0-.7,0-1.1-.2-1.5-.5-.3-.3-.5-.8-.5-1.4s0-.7.1-1.2l1-4.7h-1.3v-.6c.1,0,1.6-.6,1.6-.6l1-1.8h.8l-.4,2h2.1l-.2,1h-2.1l-1,4.7c0,.5-.1.8-.1,1s0,.5.2.7c.2.2.4.2.6.2Z"/>
    <path class="cls-1" d="M265.9,315.3h-1.3l1.8-8.6h1.3l-1.8,8.6ZM266.8,304.6c0-.3,0-.5.2-.7.2-.2.4-.3.6-.3.5,0,.7.2.7.7s0,.5-.3.7c-.2.2-.4.3-.6.3s-.4,0-.5-.2c-.1-.1-.2-.3-.2-.5Z"/>
    <path class="cls-1" d="M273.6,306.6c1,0,1.7.5,2.2,1.5h0c0-.8.2-1.5.4-2.1l.6-2.8h1.3l-2.6,12.2h-1.1l.2-1.6h0c-.5.7-1,1.1-1.5,1.4-.5.3-.9.4-1.4.4-.7,0-1.3-.3-1.7-.8-.4-.5-.6-1.2-.6-2.1s.2-2.1.6-3.1c.4-.9.9-1.6,1.5-2.1.6-.5,1.4-.8,2.1-.8ZM272.1,314.4c.5,0,1-.2,1.5-.7.5-.5.9-1.1,1.2-1.9s.5-1.5.5-2.3-.1-1-.4-1.3c-.3-.3-.7-.5-1.2-.5s-1,.2-1.5.6c-.5.4-.8,1-1.1,1.8-.3.8-.4,1.6-.4,2.5s.5,1.8,1.4,1.8Z"/>
    <path class="cls-1" d="M280,315.3h-1.3l1.8-8.6h1.3l-1.8,8.6ZM280.9,304.6c0-.3,0-.5.2-.7.2-.2.4-.3.6-.3.5,0,.7.2.7.7s0,.5-.3.7c-.2.2-.4.3-.6.3s-.4,0-.5-.2c-.1-.1-.2-.3-.2-.5Z"/>
    <path class="cls-1" d="M286.5,315.5c-1,0-1.7-.3-2.3-.9-.5-.6-.8-1.4-.8-2.4s.2-1.9.6-2.8c.4-.9.9-1.6,1.5-2.1s1.3-.8,2.1-.8,1.4.2,1.8.5c.4.3.6.8.6,1.4,0,.9-.4,1.7-1.3,2.2-.9.5-2.1.8-3.7.8h-.3v.6c0,.7.1,1.2.4,1.6s.8.6,1.5.6.7,0,1-.1c.3,0,.8-.3,1.3-.5v1.1c-.5.2-.9.4-1.3.5s-.8.1-1.2.1ZM287.6,307.7c-.5,0-1,.2-1.5.7-.5.5-.8,1.2-1.1,2h0c1.2,0,2.1-.2,2.7-.5.6-.3.9-.8.9-1.3s0-.5-.3-.7c-.2-.2-.5-.3-.9-.3Z"/>
    <path class="cls-1" d="M296.7,315.3l1.2-5.4c.1-.5.2-.9.2-1.1,0-.3,0-.6-.3-.8-.2-.2-.5-.3-.9-.3s-.9.2-1.4.5c-.4.3-.8.8-1.2,1.3s-.6,1.3-.8,2.1l-.8,3.7h-1.3l1.8-8.6h1.1l-.2,1.6h0c.5-.6,1-1.1,1.4-1.3.5-.3.9-.4,1.4-.4s1.2.2,1.6.5c.4.4.6.9.6,1.5s0,.9-.2,1.4l-1.1,5.2h-1.3Z"/>
    <path class="cls-1" d="M302.9,313.5v.2c-.5,1.2-1.2,2.5-2,3.7h-1c.7-1.5,1.2-2.8,1.6-3.9h1.5Z"/>
    <path class="cls-1" d="M315.1,312.9c0,.8-.3,1.4-.9,1.9-.6.5-1.4.7-2.4.7s-1.7-.2-2.4-.5v-1.2c.4.2.8.4,1.2.5.4.1.8.2,1.2.2.7,0,1.2-.1,1.5-.4.3-.3.5-.6.5-1s0-.5-.3-.8-.6-.5-1.2-.8c-.7-.4-1.2-.8-1.4-1.1-.3-.4-.4-.8-.4-1.3,0-.7.3-1.3.8-1.7.5-.4,1.2-.7,2.1-.7s1.8.2,2.6.6l-.4,1.1-.4-.2c-.5-.2-1.1-.3-1.7-.3s-.9.1-1.1.3-.4.5-.4.9,0,.5.3.8c.2.2.6.5,1.1.8.6.3,1,.6,1.2.8.2.2.4.5.5.7s.2.5.2.9Z"/>
    <path class="cls-1" d="M320.2,306.8l-1.2,5.4c0,.5-.1.8-.1,1.1,0,.7.4,1.1,1.1,1.1s.9-.2,1.4-.5c.4-.3.8-.8,1.2-1.3.3-.6.6-1.3.8-2.1l.8-3.7h1.3l-1.8,8.6h-1.1l.2-1.6h0c-.5.7-1,1.1-1.5,1.4-.5.3-.9.4-1.4.4s-1.2-.2-1.6-.5c-.4-.4-.6-.9-.6-1.6s0-.8.2-1.3l1.1-5.3h1.3Z"/>
    <path class="cls-1" d="M330.5,315.5c-.5,0-.9-.1-1.3-.4s-.7-.6-.9-1.1h0l-.5,1.3h-1l2.6-12.2h1.3c-.3,1.3-.5,2.2-.6,2.9-.1.7-.3,1.5-.6,2.3h0c.5-.6,1-1.1,1.4-1.4.5-.3,1-.4,1.5-.4.7,0,1.3.3,1.7.8.4.5.6,1.2.6,2.1s-.2,2.1-.5,3c-.4.9-.9,1.6-1.5,2.2-.6.5-1.4.8-2.2.8ZM332,307.7c-.5,0-1,.2-1.5.7-.5.5-.9,1.1-1.2,1.9s-.5,1.5-.5,2.3.1,1,.4,1.3.7.5,1.3.5,1-.2,1.4-.6.8-1,1.1-1.8c.3-.8.4-1.6.4-2.5s-.5-1.8-1.4-1.8Z"/>
    <path class="cls-1" d="M337.7,315.3h-1.3l2.6-12.2h1.3l-2.6,12.2Z"/>
    <path class="cls-1" d="M342.1,315.3h-1.3l1.8-8.6h1.3l-1.8,8.6ZM343,304.6c0-.3,0-.5.2-.7.2-.2.4-.3.6-.3.5,0,.7.2.7.7s0,.5-.3.7c-.2.2-.4.3-.6.3s-.4,0-.5-.2c-.1-.1-.2-.3-.2-.5Z"/>
    <path class="cls-1" d="M350.3,315.3l1.2-5.4c0-.5.1-.8.1-1.1,0-.4,0-.6-.2-.9s-.4-.3-.8-.3-.9.2-1.3.5-.8.8-1.1,1.3c-.3.6-.6,1.3-.7,2.1l-.8,3.7h-1.3l1.8-8.6h1.1l-.2,1.6h0c.5-.6.9-1.1,1.4-1.3.5-.3.9-.4,1.4-.4s1,.2,1.4.5c.3.3.5.8.6,1.4h0c.4-.7.9-1.1,1.4-1.4.5-.3,1-.5,1.5-.5s1.2.2,1.5.5c.4.4.5.9.5,1.5s0,.8-.2,1.4l-1.1,5.2h-1.3l1.2-5.4c.1-.5.2-.9.2-1.1,0-.3,0-.6-.3-.8s-.5-.3-.8-.3-.8.2-1.2.5c-.4.3-.8.7-1.1,1.3s-.5,1.2-.7,2l-.8,3.9h-1.3Z"/>
    <path class="cls-1" d="M363,315.5c-1,0-1.7-.3-2.3-.9-.5-.6-.8-1.4-.8-2.4s.2-1.9.6-2.8c.4-.9.9-1.6,1.5-2.1s1.3-.8,2.1-.8,1.4.2,1.8.5c.4.3.6.8.6,1.4,0,.9-.4,1.7-1.3,2.2-.9.5-2.1.8-3.7.8h-.3v.6c0,.7.1,1.2.4,1.6s.8.6,1.5.6.7,0,1-.1c.3,0,.8-.3,1.3-.5v1.1c-.5.2-.9.4-1.3.5s-.8.1-1.2.1ZM364.1,307.7c-.5,0-1,.2-1.5.7-.5.5-.8,1.2-1.1,2h0c1.2,0,2.1-.2,2.7-.5.6-.3.9-.8.9-1.3s0-.5-.3-.7c-.2-.2-.5-.3-.9-.3Z"/>
    <path class="cls-1" d="M372.9,315.3h-5.6l.2-.9,5.4-6.7h-3.7l.2-1h5.1l-.2,1.1-5.3,6.5h4.1l-.2,1Z"/>
    <path class="cls-1" d="M381.3,315.3l-1-8.6h1.3l.5,4.8c.1,1.3.2,2.3.2,2.8h0c.7-1.4,1.1-2.4,1.4-2.9l2.5-4.7h1.4l-4.6,8.6h-1.8Z"/>
    <path class="cls-1" d="M392.4,306.7c1,0,1.8.3,2.3.9s.9,1.4.9,2.4-.2,1.9-.6,2.8c-.4.9-.9,1.5-1.5,2-.6.5-1.4.7-2.2.7s-1.8-.3-2.4-.9c-.6-.6-.9-1.4-.9-2.4s.2-1.9.6-2.8c.4-.9.9-1.5,1.5-2,.6-.5,1.4-.7,2.1-.7ZM394.2,309.8c0-.6-.2-1.1-.5-1.5-.3-.4-.8-.6-1.3-.6s-1.1.2-1.5.6c-.5.4-.8.9-1,1.6-.2.7-.4,1.4-.4,2.3s.2,1.2.5,1.6c.3.4.8.6,1.4.6s1-.2,1.5-.6c.4-.4.8-.9,1-1.6.2-.7.4-1.5.4-2.4Z"/>
    <path class="cls-1" d="M399.8,314.4c.3,0,.7,0,1.1-.2v1c-.2,0-.4.1-.7.2-.3,0-.5,0-.6,0-.7,0-1.2-.2-1.5-.5-.3-.3-.5-.8-.5-1.4s0-.7.1-1.2l1-4.7h-1.3v-.6c.1,0,1.6-.6,1.6-.6l1-1.8h.8l-.4,2h2.1l-.2,1h-2.1l-1,4.7c0,.5-.1.8-.1,1s0,.5.2.7c.2.2.4.2.6.2Z"/>
    <path class="cls-1" d="M408.2,306.6c.4,0,.7,0,.9.1l-.3,1.2c-.3,0-.5-.1-.8-.1-.5,0-.9.2-1.3.5s-.8.7-1.1,1.3c-.3.6-.5,1.2-.7,1.8l-.8,3.9h-1.3l1.8-8.6h1.1l-.2,1.6h0c.4-.5.7-.9.9-1.1.2-.2.5-.4.8-.5.3-.1.6-.2.9-.2Z"/>
    <path class="cls-1" d="M412.9,315.5c-1,0-1.7-.3-2.3-.9-.5-.6-.8-1.4-.8-2.4s.2-1.9.6-2.8.9-1.6,1.5-2.1,1.3-.8,2.1-.8,1.4.2,1.8.5c.4.3.6.8.6,1.4,0,.9-.4,1.7-1.3,2.2-.9.5-2.1.8-3.7.8h-.3v.6c0,.7.1,1.2.4,1.6s.8.6,1.5.6.7,0,1-.1.8-.3,1.3-.5v1.1c-.5.2-.9.4-1.3.5s-.8.1-1.2.1ZM414,307.7c-.5,0-1,.2-1.5.7-.5.5-.8,1.2-1.1,2h0c1.2,0,2.1-.2,2.7-.5.6-.3.9-.8.9-1.3s0-.5-.3-.7c-.2-.2-.5-.3-.9-.3Z"/>
    <path class="cls-1" d="M425,314.4c.3,0,.7,0,1.1-.2v1c-.2,0-.4.1-.7.2-.3,0-.5,0-.6,0-.7,0-1.1-.2-1.5-.5s-.5-.8-.5-1.4,0-.7.1-1.2l1-4.7h-1.3v-.6c.1,0,1.6-.6,1.6-.6l1-1.8h.8l-.4,2h2.1l-.2,1h-2.1l-1,4.7c0,.5-.1.8-.1,1s0,.5.2.7.4.2.6.2Z"/>
    <path class="cls-1" d="M432.5,306.7c1,0,1.8.3,2.3.9.6.6.9,1.4.9,2.4s-.2,1.9-.6,2.8c-.4.9-.9,1.5-1.5,2-.6.5-1.4.7-2.2.7s-1.8-.3-2.4-.9c-.6-.6-.9-1.4-.9-2.4s.2-1.9.6-2.8c.4-.9.9-1.5,1.5-2,.6-.5,1.4-.7,2.1-.7ZM434.3,309.8c0-.6-.2-1.1-.5-1.5-.3-.4-.8-.6-1.3-.6s-1.1.2-1.5.6c-.5.4-.8.9-1,1.6-.2.7-.4,1.4-.4,2.3s.2,1.2.5,1.6c.3.4.8.6,1.4.6s1-.2,1.5-.6c.4-.4.8-.9,1-1.6.2-.7.4-1.5.4-2.4Z"/>
    <path class="cls-1" d="M438.6,315.3h-1.3l1.8-8.6h1.3l-1.8,8.6ZM439.5,304.6c0-.3,0-.5.2-.7.2-.2.4-.3.6-.3.5,0,.7.2.7.7s0,.5-.3.7c-.2.2-.4.3-.6.3s-.4,0-.5-.2c-.1-.1-.2-.3-.2-.5Z"/>
    <path class="cls-1" d="M444.4,314.4c.3,0,.7,0,1.1-.2v1c-.2,0-.4.1-.7.2-.3,0-.5,0-.6,0-.7,0-1.1-.2-1.5-.5s-.5-.8-.5-1.4,0-.7.1-1.2l1-4.7h-1.3v-.6c.1,0,1.6-.6,1.6-.6l1-1.8h.8l-.4,2h2.1l-.2,1h-2.1l-1,4.7c0,.5-.1.8-.1,1s0,.5.2.7.4.2.6.2Z"/>
  </g>
</svg>