<?xml version="1.0" encoding="UTF-8"?>
<svg id="Calque_1" data-name="Calque 1" xmlns="http://www.w3.org/2000/svg" version="1.1" viewBox="0 0 606.9 419.4">
  <defs>
    <style>
      .cls-1 {
        fill: #21443e;
      }

      .cls-1, .cls-2 {
        stroke-width: 0px;
      }

      .cls-2 {
        fill: #bb9238;
      }
    </style>
  </defs>
  <g>
    <polygon class="cls-1" points="49.1 49.4 109.2 49.4 299.4 222.2 299.4 38.6 344.1 38.6 344.1 267.8 284 267.8 49.1 49.4"/>
    <path class="cls-1" d="M513.6,151.2v-3.1c22.9-3.1,43.8-13.7,43.8-35.5v-40.5c0-28.3-26.9-33.4-45-33.4h-149.2v229.2h135.4c35.7,0,60.1-9.7,60.1-39v-34c0-25.9-14.8-38.1-45.1-43.7ZM406.9,67.6h79.4c15.4,0,29.4,5.4,29.4,19.4v28.8c0,9.8-7.4,18.7-24.4,18.7h-84.3v-66.9ZM517.6,215.4c0,10.4-7.5,19.9-24.9,19.9h-85.8v-71h80.7c15.7,0,29.9,5.7,29.9,20.6v30.6Z"/>
    <g>
      <path class="cls-2" d="M49.1,70.2v197.6h103.8c24.1,0,57.1-.7,87.1-21.6l-31-28.1c-11.7,9.6-36.5,16.9-76.7,16.9h-39v-124.4l-44.3-40.4Z"/>
      <path class="cls-2" d="M131.9,49.4h40.1c62.1,0,108.3,40.9,108.3,101.6s-.7,24.4-2.1,28.8l-42.9-35.7c-3.6-39.3-32.5-63.4-69.9-63.4l-33.5-31.4Z"/>
    </g>
  </g>
  <g>
    <path class="cls-2" d="M79.9,313.8c0,2.8-.5,4.7-1.6,5.6-1.1,1-3,1.4-5.9,1.4h-17.8c-2.8,0-4.8-.5-5.9-1.4-1.1-1-1.6-2.8-1.6-5.6v-15.8c0-2.8.5-4.6,1.6-5.6,1.1-1,3-1.5,5.9-1.5h17.8c4.8,0,7.3,1.7,7.4,5v4.4h-7v-4h-18.8v19h18.8v-4.4h7v2.9Z"/>
    <path class="cls-2" d="M130.3,313.8c0,2.8-.5,4.7-1.6,5.6-1.1,1-3,1.4-5.8,1.4h-22c-2.8,0-4.8-.5-5.9-1.4-1.1-1-1.6-2.8-1.6-5.6v-15.7c0-2.8.5-4.7,1.6-5.6,1.1-1,3-1.4,5.9-1.4h22c2.8,0,4.8.5,5.8,1.4,1.1,1,1.6,2.8,1.6,5.6v15.7ZM123.3,315.2v-18.8h-22.9v18.8h22.9Z"/>
    <path class="cls-2" d="M180.2,320.9h-6.1l-22.9-21v21h-6.4v-30h5.9l23.1,20.9v-20.9h6.2v30Z"/>
    <path class="cls-2" d="M229,313.8c0,2.8-.6,4.7-1.7,5.6-1.1,1-3.1,1.4-6.1,1.4h-18.6c-3.2,0-5.2-.5-6.2-1.6-1-1.1-1.5-3.4-1.5-6.9h7v2.8h20.8v-6.8h-19.4c-2.9,0-4.9-.5-6-1.5-1.1-1-1.6-2.9-1.6-5.7v-3.3c0-2.8.5-4.7,1.6-5.6,1.1-1,3.1-1.4,6-1.4h25v5.3h-26.4v6.4h19.4c2.9,0,4.9.5,6.1,1.4,1.1,1,1.7,2.8,1.7,5.6v4.1Z"/>
    <path class="cls-2" d="M269,296.4h-13.2v24.5h-7v-24.5h-13.1v-5.3h33.4v5.3Z"/>
    <path class="cls-2" d="M310.9,320.9h-8.8l-11.1-11.3h-6.4v11.3h-6.8v-29.9h25.6c4.5,0,6.7,1.7,6.7,5.2v8.2c0,2.5-1.2,4.3-3.5,5.2h-7.2l11.5,11.3ZM303.4,302.1v-3.6c0-1.6-.7-2.3-2-2.3h-16.8v8.3h16.8c1.3,0,2-.8,2-2.4Z"/>
    <path class="cls-2" d="M357.9,313.2c0,3.2-.5,5.2-1.6,6.2-1.1,1-3.2,1.5-6.5,1.5h-17.8c-3.2,0-5.4-.5-6.5-1.5-1.1-1-1.6-3-1.6-6.2v-22.4h7v23.8h19.9v-23.8h6.9v22.4Z"/>
    <path class="cls-2" d="M403.6,313.8c0,2.8-.5,4.7-1.6,5.6-1.1,1-3,1.4-5.9,1.4h-17.8c-2.8,0-4.8-.5-5.9-1.4s-1.6-2.8-1.6-5.6v-15.8c0-2.8.5-4.6,1.6-5.6,1.1-1,3-1.5,5.9-1.5h17.8c4.8,0,7.3,1.7,7.4,5v4.4h-7v-4h-18.8v19h18.8v-4.4h7v2.9Z"/>
    <path class="cls-2" d="M444.8,296.4h-13.2v24.5h-7v-24.5h-13.1v-5.3h33.4v5.3Z"/>
    <path class="cls-2" d="M460.4,320.9h-6.9v-30h6.9v30Z"/>
    <path class="cls-2" d="M510.9,313.8c0,2.8-.5,4.7-1.6,5.6-1.1,1-3,1.4-5.8,1.4h-22c-2.8,0-4.8-.5-5.9-1.4s-1.6-2.8-1.6-5.6v-15.7c0-2.8.5-4.7,1.6-5.6s3-1.4,5.9-1.4h22c2.8,0,4.8.5,5.8,1.4,1.1,1,1.6,2.8,1.6,5.6v15.7ZM504,315.2v-18.8h-22.9v18.8h22.9Z"/>
    <path class="cls-2" d="M560.9,320.9h-6.1l-22.9-21v21h-6.4v-30h5.9l23.1,20.9v-20.9h6.2v30Z"/>
  </g>
  <g>
    <path class="cls-1" d="M66,374.1c0,2.4-1.8,3.5-5.3,3.5h-13.6v-18h14.7c2.7,0,4,1.2,4,3.5v2.2c0,1.8-1,2.8-3.1,3,2.2.3,3.2,1.4,3.2,3.5v2.3ZM62,365.5v-2c0-.6-.6-.9-1.9-.9h-9v4.2h9c1.3,0,1.9-.4,1.9-1.3ZM62.1,373.1v-1.6c0-.7-.2-1.1-.5-1.3-.3-.2-.8-.3-1.6-.3h-9v4.5h9c.7,0,1.2-.1,1.6-.3.3-.2.5-.5.5-1Z"/>
    <path class="cls-1" d="M94.3,377.6h-4l-2.3-3.9h-11.7l-2.2,3.9h-4.1l10.1-18h4l10.3,18ZM86.1,370.4l-4-7.3-4,7.3h8Z"/>
    <path class="cls-1" d="M112.8,362.9h-7.9v14.7h-4.2v-14.7h-7.9v-3.2h20v3.2Z"/>
    <path class="cls-1" d="M121.1,377.6h-4.1v-18h4.1v18Z"/>
    <path class="cls-1" d="M152.1,377.6h-3.7v-13l-8,6.4-8.1-6.4v13h-3.6v-18h3.7l8,6.7,8.1-6.7h3.7v18Z"/>
    <path class="cls-1" d="M178.5,377.6h-18.7v-15c0-2,1-3,3.1-3h15.4v3.1h-14.3v4h8v3.1h-8v4.5h14.5v3.4Z"/>
    <path class="cls-1" d="M206,377.6h-3.6l-13.7-12.6v12.6h-3.8v-18h3.6l13.9,12.6v-12.6h3.7v18Z"/>
    <path class="cls-1" d="M230.1,362.9h-7.9v14.7h-4.2v-14.7h-7.9v-3.2h20v3.2Z"/>
    <path class="cls-1" d="M254.5,373.4c0,1.7-.3,2.8-1,3.4-.7.6-1.9.9-3.6.9h-11.2c-1.9,0-3.1-.3-3.7-1-.6-.6-.9-2-.9-4.1h4.2v1.7h12.5v-4.1h-11.6c-1.8,0-3-.3-3.6-.9-.7-.6-1-1.7-1-3.4v-2c0-1.7.3-2.8,1-3.4.7-.6,1.9-.9,3.6-.9h15v3.2h-15.8v3.9h11.6c1.8,0,3,.3,3.6.9.7.6,1,1.7,1,3.4v2.5Z"/>
    <path class="cls-1" d="M298.1,373.4c0,1.7-.3,2.8-1,3.4-.6.6-1.8.9-3.5.9h-10.7c-1.7,0-2.9-.3-3.5-.9-.6-.6-1-1.7-1-3.4v-9.5c0-1.7.3-2.8,1-3.4.6-.6,1.8-.9,3.5-.9h10.7c2.9,0,4.4,1,4.5,3v2.6h-4.2v-2.4h-11.3v11.4h11.3v-2.6h4.2v1.8Z"/>
    <path class="cls-1" d="M323.6,377.6h-18v-18h4.1v14.6h13.9v3.4Z"/>
    <path class="cls-1" d="M347.3,377.6h-18.7v-15c0-2,1-3,3.1-3h15.4v3.1h-14.3v4h8v3.1h-8v4.5h14.5v3.4ZM343.5,351.7l-3.1,5.4h-3.7l3.3-5.4h3.6Z"/>
    <path class="cls-1" d="M373.8,373.4c0,1.7-.3,2.8-1,3.4-.7.6-1.9.9-3.6.9h-11.2c-1.9,0-3.1-.3-3.7-1-.6-.6-.9-2-.9-4.1h4.2v1.7h12.5v-4.1h-11.6c-1.8,0-3-.3-3.6-.9-.7-.6-1-1.7-1-3.4v-2c0-1.7.3-2.8,1-3.4s1.9-.9,3.6-.9h15v3.2h-15.8v3.9h11.6c1.8,0,3,.3,3.6.9.7.6,1,1.7,1,3.4v2.5Z"/>
    <path class="cls-1" d="M416.9,377.6h-18.7v-15c0-2,1-3,3.1-3h15.4v3.1h-14.3v4h8v3.1h-8v4.5h14.5v3.4Z"/>
    <path class="cls-1" d="M444.4,377.6h-3.6l-13.7-12.6v12.6h-3.8v-18h3.6l13.9,12.6v-12.6h3.7v18Z"/>
    <path class="cls-1" d="M493.5,377.6h-3.7v-13l-8,6.4-8.1-6.4v13h-3.6v-18h3.7l8,6.7,8.1-6.7h3.7v18Z"/>
    <path class="cls-1" d="M522,377.6h-4l-2.3-3.9h-11.7l-2.2,3.9h-4.1l10.1-18h4l10.3,18ZM513.8,370.4l-4-7.3-4,7.3h8Z"/>
    <path class="cls-1" d="M530.9,377.6h-4.1v-18h4.1v18Z"/>
    <path class="cls-1" d="M559.6,377.6h-3.6l-13.7-12.6v12.6h-3.8v-18h3.6l13.9,12.6v-12.6h3.7v18Z"/>
    <path class="cls-1" d="M79.6,357.3l2.4-2.4,2.4,2.4h4.2l-5.6-5.6c-.6-.6-1.5-.6-2.1,0l-5.6,5.6h4.2Z"/>
  </g>
  <path class="cls-1" d="M558.7,344.8H49.1c-1.4,0-2.5-1.1-2.5-2.5s1.1-2.5,2.5-2.5h509.7c1.4,0,2.5,1.1,2.5,2.5s-1.1,2.5-2.5,2.5Z"/>
</svg>