<svg width="256" height="256" viewBox="0 0 256 256" fill="none" xmlns="http://www.w3.org/2000/svg">
<path d="M197.595 124.37C195.393 126.138 193.978 128.489 192.731 130.96C192.093 132.222 192.563 133.693 193.783 134.526C194.202 132.394 195.486 130.681 196.547 128.861C196.859 128.326 197.478 128.144 198.018 127.893C198.609 127.618 199.14 127.293 199.219 126.557C199.247 126.292 199.387 126.162 199.647 126.138C200.35 126.073 200.876 125.645 201.416 125.249C202.031 124.802 202.668 124.449 203.469 124.537C204.013 124.598 204.311 124.36 204.349 123.797C204.372 123.453 204.507 123.215 204.912 123.346C205.647 123.588 206.299 123.346 206.941 123.01C207.104 122.927 207.276 122.847 207.448 122.778C208.454 122.354 208.854 122.396 209.841 123.02C210.269 122.75 210.088 122.173 210.488 121.805C211.34 122.014 211.903 122.726 212.606 123.313C212.945 122.778 212.713 122.173 213.02 121.623C213.76 121.823 214.146 122.456 214.626 123.076C214.966 122.675 214.798 122.121 215.231 121.819C215.743 122.27 216.343 122.349 217.051 122.303C218.424 122.214 220.514 123.853 220.84 125.17C221.044 126.008 220.863 126.813 220.421 127.525C219.848 128.442 219.294 129.364 218.894 130.369C218.717 130.816 218.401 130.974 217.968 131.049C217.488 131.128 217.162 131.375 217.13 131.919C217.097 132.431 216.776 132.715 216.287 132.822C215.92 132.901 215.552 133.018 215.282 133.278C214.1 134.428 212.573 134.945 211.121 135.601C210.139 136.043 209.129 136.415 208.147 136.862C207.644 137.09 207.16 137.165 206.578 136.993C206.606 136.225 206.946 135.722 207.695 135.438C208.98 134.959 210.246 134.423 211.521 133.916C214.039 132.911 215.71 131.016 216.967 128.703C217.553 127.618 217.349 126.832 216.362 126.073C216.157 125.915 215.943 125.757 215.706 125.654C214.77 125.259 213.951 124.695 213.206 123.969C212.731 124.174 212.959 124.975 212.322 124.979C211.824 124.979 211.549 124.565 211.098 124.351C210.739 125.124 210.032 125.305 209.226 125.375C207.49 125.528 205.922 126.199 204.437 127.074C202.924 127.963 201.551 129.052 200.243 130.211C198.838 131.458 198.554 132.855 199.27 134.633C199.661 135.606 199.531 135.834 198.507 135.885C198.051 135.908 197.618 135.941 197.222 136.211C197.111 136.457 197.339 136.602 197.413 136.792C197.776 137.733 197.818 138.608 197.302 139.562C193.452 146.693 189.426 153.726 185.744 160.945C181.341 169.584 176.97 178.241 173.224 187.197C172.581 188.737 171.897 190.269 171.674 191.949C171.618 192.354 171.352 192.591 171.055 192.833C170.277 193.471 170.268 193.755 171.106 194.341C171.632 194.714 172.027 195.179 172.446 195.71C172.19 195.817 171.995 195.933 171.785 195.984C171.283 196.101 170.826 196.385 170.301 196.403C170.259 196.324 170.207 196.264 170.193 196.194C169.947 194.779 169.844 194.723 168.616 195.351C167.685 195.831 167.671 195.845 166.907 195.128C166.698 194.932 166.568 194.942 166.335 195.039C164.529 195.821 162.718 196.589 160.912 197.367C160.442 197.572 160.191 197.925 160.037 198.437C159.795 199.247 159.446 199.336 158.701 198.893C157.784 198.354 157.086 197.651 156.63 196.641C149.565 181.039 142.476 165.446 135.396 149.853C135.135 149.281 134.87 148.703 134.805 148.061C134.712 147.163 134.959 146.446 135.824 146.032C136.415 146.977 136.434 146.986 137.37 146.539C138.975 145.771 140.572 144.98 142.187 144.226C142.755 143.96 143.192 143.621 143.388 142.932C142.885 142.653 142.229 143.006 141.75 142.648C141.815 142.22 142.159 142.201 142.41 142.075C143.141 141.712 143.886 141.377 144.626 141.028C144.766 140.963 144.929 140.912 144.961 141.131C144.975 141.219 144.873 141.326 144.826 141.424C144.761 141.498 144.631 141.619 144.645 141.643C144.752 141.805 144.887 141.717 145.012 141.647C145.222 141.568 145.431 141.494 145.636 141.405C146.842 140.884 147.703 141.047 148.638 141.987C149.146 142.499 149.462 143.127 149.76 143.774C154.326 153.735 158.888 163.7 163.458 173.661C163.607 173.987 163.784 174.299 164.054 174.829C164.394 172.502 164.701 170.422 165.004 168.341C165.651 163.891 166.302 159.437 166.94 154.987C167.568 150.607 168.197 146.232 168.811 141.847C169.388 137.761 169.947 133.674 170.515 129.587C170.58 129.112 170.612 128.698 170.314 128.219C170.035 127.763 170.128 127.153 170.273 126.59C170.743 124.751 171.055 122.889 170.906 120.981C170.822 119.869 170.71 118.756 170.65 117.644C170.622 117.155 170.491 116.876 169.937 116.904C169.686 116.918 169.43 116.811 169.174 116.773C168.839 116.727 168.536 116.885 168.434 117.16C168.285 117.565 168.308 118.002 167.908 118.328C167.745 118.463 168.262 118.77 168.099 118.984C167.796 119.375 167.615 119.71 167.908 120.199C167.996 120.348 167.773 120.511 167.624 120.627C167.508 120.716 167.359 120.837 167.475 120.986C167.782 121.381 167.782 121.712 167.34 122.005C167.289 122.038 167.238 122.177 167.252 122.196C167.903 122.834 167.159 123.476 167.21 124.141C167.275 125.003 166.959 125.971 166.558 126.767C166.023 127.837 164.966 128.312 163.775 128.312C162.648 128.312 161.676 127.874 160.889 127.055C160.484 126.632 160.242 125.305 160.6 124.909C161.029 124.435 160.279 124.188 160.503 123.82C160.666 123.546 161.21 123.401 160.754 122.941C160.498 122.685 160.638 122.466 160.884 122.303C161.215 122.084 161.21 121.856 160.936 121.595C160.884 121.549 160.819 121.432 160.833 121.414C161.252 120.958 161.396 120.446 161.159 119.855C161.657 119.533 161.531 119.245 161.252 118.789C161.01 118.393 161.843 118.351 161.787 117.951C161.75 117.676 161.187 117.513 161.559 117.122C161.773 116.899 162.015 116.745 161.755 116.387C161.536 116.084 161.583 115.656 161.024 115.535C159.991 115.316 159.549 114.511 159.409 113.506C158.953 110.252 159.074 107.055 160.275 103.95C160.745 102.74 161.21 101.525 161.69 100.319C161.974 99.6027 162.406 99.1046 163.295 99.3094C163.914 99.4537 164.115 99.1279 164.198 98.5461C164.594 95.8604 165.018 93.1841 165.45 90.503C165.576 89.735 165.692 88.9577 165.916 88.213C166.758 85.4017 169.309 83.6702 172.2 83.9169C176.235 84.2613 179.707 85.8485 182.696 88.5761C184.055 89.8188 184.213 91.3083 183.896 92.9606C183.841 93.2492 183.701 93.6681 183.347 93.4913C182.463 93.0444 181.537 93.319 180.638 93.2166C178.907 93.0211 177.157 92.9839 175.421 92.807C174.285 92.6907 173.21 93.0305 172.106 93.1329C171.585 93.1794 171.315 93.6635 171.25 94.1801C171.022 95.9489 170.803 97.7222 170.58 99.491C170.552 99.7144 170.491 99.9611 170.817 99.989C171.101 100.017 171.185 99.8121 171.222 99.5701C171.366 98.5787 171.553 97.5919 171.66 96.5958C171.748 95.7766 171.916 94.9761 172.209 94.2127C172.497 93.4633 172.744 93.5052 173.61 93.5797C174.834 93.6867 175.97 94.1336 177.171 94.3337C178.586 94.5711 180.015 94.9481 181.416 95.3484C182.072 95.5393 182.77 95.5206 183.37 95.9721C183.845 96.3305 184.078 96.7029 183.994 97.2801C183.906 97.9038 183.817 98.5321 183.724 99.1558C183.65 99.6306 183.352 99.9425 182.961 100.198C182.328 100.613 182.011 101.213 181.914 101.958C181.513 105.053 181.104 108.153 180.694 111.248C180.643 111.616 180.736 111.909 181.062 112.109C181.43 112.338 181.504 112.663 181.448 113.073C181.253 114.474 181.066 115.87 180.89 117.276C180.838 117.667 180.773 118.021 180.294 118.086C179.814 118.151 179.768 118.505 179.721 118.9C179.293 122.331 178.846 125.761 178.404 129.187C177.836 133.613 177.264 138.035 176.701 142.462C176.147 146.814 175.607 151.166 175.048 155.518C174.708 158.171 174.359 160.829 174.015 163.482C173.978 163.775 173.959 164.068 173.926 164.389C174.331 164.273 174.401 163.905 174.592 163.659C178.255 158.836 180.759 153.335 183.724 148.108C183.887 147.814 184.055 147.526 184.213 147.228C184.301 147.065 184.45 147.046 184.59 147.093C184.776 147.154 184.744 147.316 184.683 147.451C184.567 147.721 184.436 147.991 184.311 148.261C181.625 154.024 178.52 159.572 175.532 165.176C175.341 165.534 175.151 165.897 174.96 166.26C174.35 167.429 174.383 167.578 175.379 168.55C175.979 168.346 176.142 167.778 176.412 167.303C180.559 160 184.529 152.599 188.258 145.073C189.347 142.876 190.557 140.74 191.711 138.575C191.818 138.38 191.916 138.18 192.005 137.975C192.586 136.681 192.363 136.164 191.027 135.727C190.929 135.694 190.832 135.657 190.678 135.601C191.213 133.702 190.827 131.942 190.045 130.197C188.881 127.604 189.235 125.119 190.804 122.787C191.707 121.446 192.833 120.311 194.118 119.338C198.079 116.34 202.389 114.074 207.346 113.25C210.153 112.78 212.978 112.631 215.766 113.366C218.94 114.204 221.142 117.229 220.984 120.52C219.797 120.599 218.927 119.906 217.875 119.305C218.182 119.124 218.559 119.124 218.605 118.821C218.657 118.463 218.345 118.305 218.093 118.16C216.232 117.099 214.23 116.447 212.108 116.178C211.409 116.089 210.79 116.359 210.283 116.852C209.841 117.285 209.413 117.732 209.082 118.416C210.399 118.537 211.605 118.649 212.81 118.761C212.792 118.779 212.759 118.807 212.764 118.821C212.773 118.863 212.801 118.9 212.82 118.938C211.726 119.119 210.627 119.268 209.538 119.487C207.313 119.934 205.172 120.678 203.05 121.465C202.608 121.628 202.175 121.856 201.584 121.744C201.905 121.223 202.203 120.758 202.487 120.283C202.622 120.059 202.733 119.827 202.854 119.599C202.989 119.352 202.873 119.147 202.691 119.017C202.538 118.9 202.301 118.928 202.184 119.087C201.546 119.938 200.592 119.878 199.685 120.073C197.953 120.446 196.454 121.358 195.077 122.456C194.783 122.689 194.714 123.01 194.737 123.355C194.765 123.862 194.811 124.374 194.858 124.923C195.877 124.872 196.734 124.579 197.53 124.076C197.52 124.104 197.497 124.137 197.502 124.165C197.511 124.221 197.539 124.276 197.558 124.332L197.595 124.37ZM170.691 135.694C170.719 136.173 171.157 136.55 171.506 137.011C171.906 137.528 172.12 136.955 172.418 136.955C172.376 136.839 172.353 136.639 172.283 136.62C171.52 136.411 171.525 135.852 171.618 135.247C171.809 134 172.013 132.757 172.186 131.51C172.618 128.349 173.037 125.189 173.466 122.028C173.661 120.595 173.857 119.166 174.061 117.737C174.08 117.597 174.178 117.439 173.973 117.383C173.875 117.355 173.75 117.383 173.656 117.43C173.507 117.504 173.494 117.662 173.494 117.811C173.512 118.779 173.186 119.72 173.289 120.688C173.307 120.841 173.349 121.014 173.205 121.083C172.865 121.251 172.795 121.405 173.033 121.749C173.154 121.931 173.13 122.256 173.084 122.498C172.795 124.076 172.479 125.645 172.367 127.251C172.316 128.023 171.985 128.787 171.976 129.555C171.958 130.891 171.515 132.129 171.18 133.381C170.989 134.098 170.854 134.819 170.687 135.699L170.691 135.694ZM171.678 103.326C171.697 104.08 172.269 104.625 173.047 104.63C173.773 104.634 174.476 103.848 174.448 103.052C174.424 102.326 173.894 101.846 173.13 101.846C172.269 101.846 171.66 102.47 171.678 103.326ZM171.729 119.841C172.06 119.128 171.906 118.337 172.106 117.592C172.158 117.402 172.134 117.225 171.878 117.183C171.571 117.136 171.492 117.299 171.506 117.56C171.553 118.323 171.529 119.091 171.729 119.836V119.841ZM180.373 104.248C180.522 103.461 180.834 102.74 180.536 101.976C180.629 102.74 179.647 103.405 180.373 104.248ZM179.614 109.335C180.191 107.008 180.205 106.794 179.768 106.184C179.898 107.329 179.624 108.316 179.614 109.335ZM180.322 104.695C180.105 104.974 180.055 105.323 180.173 105.742C180.294 105.393 180.564 105.09 180.322 104.695Z" fill="white"/>
<path d="M13.8379 191.577C13.8333 184.618 13.824 177.66 13.824 170.696C13.824 170.585 13.8519 170.478 13.8659 170.371C14.187 170.18 14.5268 170.254 14.8573 170.254C23.2727 170.254 31.6881 170.296 40.1035 170.236C46.6804 170.189 51.0976 175.197 52.0936 179.326C52.9547 182.891 52.4986 186.261 50.5204 189.389C50.3249 189.701 50.1155 189.999 49.8781 190.357C51.1627 191.121 52.2891 192.028 53.2666 193.108C57.2928 197.539 58.3168 202.715 56.3898 208.254C54.4721 213.774 50.3715 217.06 44.5626 218.061C43.6177 218.224 42.631 218.219 41.6675 218.219C36.0075 218.233 30.3476 218.224 24.6877 218.224C24.4643 218.224 24.2408 218.215 24.0174 218.224C23.673 218.233 23.5706 218.047 23.5846 217.735C23.6218 216.711 23.8918 215.748 24.4177 214.873C25.7722 212.62 27.769 211.442 30.4035 211.428C34.3878 211.41 38.372 211.373 42.3563 211.438C46.0846 211.498 49.6314 208.617 50.3249 204.912C51.456 198.861 46.4756 195.012 42.4448 195.072C37.0455 195.156 31.6462 195.096 26.247 195.091C25.9863 195.091 25.7256 195.086 25.465 195.091C25.1764 195.096 25.0507 194.937 25.0833 194.677C25.1392 194.197 25.1811 193.713 25.3021 193.248C25.9165 190.827 28.3741 188.426 31.1668 188.356C33.7361 188.291 36.3054 188.314 38.8701 188.291C39.4659 188.286 40.0616 188.305 40.6528 188.249C43.6829 187.96 45.8193 185.484 45.7309 182.384C45.6471 179.466 43.2174 177.013 40.2571 176.994C33.9642 176.957 27.6712 176.989 21.3783 176.966C20.7825 176.966 20.6336 177.148 20.6382 177.72C20.6615 181.891 20.6522 186.056 20.6475 190.227C20.6475 190.674 20.6336 191.121 20.6243 191.567C18.3622 191.567 16.1 191.567 13.8379 191.567V191.577Z" fill="white"/>
<path d="M139.562 170.356C139.743 173.247 137.565 176.095 134.623 176.798C133.972 176.956 133.306 177.017 132.631 177.017C129.168 177.008 125.705 176.989 122.242 177.017C113.506 177.091 107.785 183.789 106.179 189.049C103.238 198.693 109.051 208.845 118.877 211.084C120.041 211.349 121.223 211.456 122.419 211.451C125.77 211.442 129.122 211.451 132.473 211.447C134.67 211.442 136.564 212.122 138.031 213.816C138.985 214.919 139.543 216.185 139.627 217.656C139.65 218.098 139.501 218.27 139.059 218.238C138.724 218.214 138.389 218.238 138.054 218.233C132.394 218.219 126.734 218.27 121.079 218.168C114.483 218.051 109.005 215.38 104.518 210.59C99.691 205.433 97.7408 199.312 98.155 192.298C98.8253 181.076 107.669 173.135 115.428 171.106C117.42 170.584 119.431 170.263 121.488 170.259C127.334 170.249 133.18 170.259 139.022 170.259C139.203 170.259 139.394 170.226 139.553 170.361L139.562 170.356Z" fill="white"/>
<path d="M84.1588 212.327C83.9307 212.908 83.7259 213.504 83.4746 214.077C82.3761 216.544 80.4026 217.954 77.7914 218.163C75.8318 218.317 74.1097 217.419 72.7645 215.929C72.0523 215.142 71.6055 214.212 71.2238 213.234C66.2342 200.346 61.2445 187.462 56.2548 174.578C55.7195 173.196 55.1889 171.813 54.6537 170.422C58.7264 169.672 61.6448 171.185 63.1947 175.048C65.1031 179.805 66.9137 184.604 68.7662 189.384C71.531 196.52 74.2912 203.655 77.0606 210.79C77.177 211.088 77.2003 211.456 77.568 211.698C77.8705 211.191 78.0614 210.651 78.2243 210.097C80.2025 210.842 82.1806 211.586 84.1588 212.331V212.327Z" fill="white"/>
<path d="M145.934 128.256C146.381 127.935 146.832 127.614 147.349 127.241C148.731 130.234 150.412 133.074 150.649 136.425C150.686 136.937 150.891 137.239 151.254 137.528C151.971 138.11 152.669 138.71 153.372 139.301C152.688 139.892 152.157 139.818 151.51 139.348C149.983 138.231 148.401 137.183 146.814 136.141C146.353 135.838 146.185 135.582 146.567 135.103C147.391 134.065 147.442 132.98 146.837 131.784C146.506 131.133 146.418 130.365 146.195 129.657C146.12 129.42 146.027 129.112 145.711 129.122C145.408 129.131 145.105 129.271 144.998 129.583C144.742 130.327 144.361 130.984 143.83 131.575C143.514 131.928 143.714 132.343 143.877 132.724C144.049 133.129 144.291 133.302 144.738 133.115C145.026 132.994 145.236 133.171 145.399 133.39C145.711 133.804 146.008 134.232 146.209 134.735C145.664 135.084 145.58 134.386 145.213 134.326C144.901 134.419 144.859 134.758 144.705 134.996C144.579 135.196 144.44 135.405 144.189 135.308C143.579 135.075 143.374 135.503 143.09 135.88C142.466 136.713 141.857 137.56 141.112 138.296C140.218 139.171 139.203 139.683 137.896 139.441C137.025 139.278 136.28 139.581 135.671 140.204C134.968 140.921 134.33 141.698 133.781 142.541C133.302 143.276 133.129 144.082 133.413 144.947C132.883 144.277 132.92 143.565 133.283 142.867C133.558 142.341 133.902 141.857 134.218 141.354C134.474 140.949 134.74 140.549 134.842 139.976C134.363 139.799 133.893 139.944 133.441 139.958C131.887 140.013 131.24 139.646 130.676 138.245C130.453 137.686 130.174 137.17 129.848 136.671C129.471 136.108 129.233 135.485 129.061 134.838C128.88 134.163 128.945 133.53 129.285 132.901C129.834 131.891 130.486 130.951 131.277 129.773C131.356 130.821 131.435 131.631 131.468 132.45C131.496 133.199 131.593 133.935 131.775 134.656C132.189 136.28 133.176 137.095 134.842 137.272C135.824 137.374 136.602 137.072 137.123 136.215C137.416 135.731 137.798 135.336 138.198 134.945C138.468 134.684 138.761 134.54 139.227 134.605C138.598 132.994 138.003 131.477 137.416 129.955C137.095 129.122 137.104 129.136 137.928 128.759C138.738 128.391 139.501 128.41 140.255 128.903C140.814 129.266 141.386 129.615 141.959 129.964C142.28 130.16 142.625 130.327 143.006 130.285C143.421 130.239 143.821 130.141 143.788 129.559C143.765 129.182 143.858 128.824 144.156 128.545C144.901 127.832 144.873 127.032 144.351 126.227C143.9 125.528 143.746 124.868 144.477 124.183C143.625 123.923 142.867 123.667 142.089 123.462C141.251 123.238 140.744 122.694 140.483 121.907C140.027 120.511 139.739 119.138 140.465 117.695C140.995 116.638 140.781 115.507 140.325 114.451C139.762 113.157 139.18 111.872 138.557 110.606C137.407 108.269 136.336 105.905 135.55 103.419C135.424 103.028 135.098 102.605 135.578 102.144C135.903 102.405 136.034 102.786 136.178 103.14C137.393 106.096 138.794 108.963 140.167 111.844C140.311 112.147 140.451 112.454 140.553 112.766C140.805 113.515 141.177 114.125 142.061 114.199C142.527 114.241 142.648 114.618 142.783 114.953C143.076 115.712 143.341 116.485 143.644 117.309C144.384 116.769 144.728 115.968 145.273 115.33C145.431 115.144 145.417 114.93 145.273 114.716C145.082 114.441 144.91 114.153 144.728 113.873C144.808 113.804 144.887 113.729 144.961 113.655C145.673 114.325 146.451 114.828 147.456 115.014C148.159 115.144 148.764 115.6 149.104 116.247C149.499 116.997 149.793 117.802 150.142 118.579C150.295 118.924 150.174 119.245 150.053 119.547C149.862 120.027 149.597 120.478 149.406 120.958C149.178 121.535 148.824 121.879 148.163 121.842C147.628 121.814 147.181 122.117 146.53 121.921C145.562 121.633 144.626 122.685 144.617 123.723C144.617 123.946 144.589 124.16 144.808 124.318C146.148 125.291 146.176 126.585 145.683 127.995C145.617 128.079 145.543 128.177 145.636 128.27C145.725 128.358 145.832 128.307 145.92 128.242L145.934 128.256Z" fill="white"/>
<path d="M158.785 139.753C160.265 139.04 160.661 139.138 161.373 140.46C162.551 142.652 163.705 144.854 164.841 147.065C165.367 148.094 165.232 148.41 164.203 148.871C163.156 149.341 162.109 149.82 161.061 150.295C160.014 150.77 159.707 150.681 159.223 149.648C158.194 147.465 157.189 145.273 156.179 143.081C156.039 142.778 155.946 142.457 155.816 142.15C155.653 141.763 155.704 141.358 156.006 141.144C156.304 140.935 156.625 141.233 156.909 141.405C157.189 141.573 157.333 141.917 157.691 141.987C157.459 140.744 157.212 140.535 156.072 140.604C154.708 140.688 154.34 140.176 154.824 138.868C154.899 138.659 155.038 138.477 155.02 138.231C154.68 138.049 154.298 138.245 153.935 138.119C154.01 137.612 154.54 137.383 154.661 136.881C154.07 136.722 153.484 136.955 152.855 136.83C153.102 136.322 153.605 136.099 153.926 135.633C153.549 135.345 153.083 135.503 152.683 135.391C152.106 135.228 151.71 134.977 151.464 134.395C150.021 131.016 148.559 127.646 147.074 124.286C146.837 123.746 146.925 123.485 147.456 123.262C147.931 123.061 148.368 122.764 148.829 122.531C149.709 122.089 149.993 122.149 150.426 123.015C152.027 126.24 153.586 129.489 154.554 132.98C154.861 134.088 155.169 135.196 155.476 136.308C155.695 137.1 155.997 137.756 156.993 137.821C157.58 137.863 157.966 138.338 158.278 138.812C158.459 139.087 158.604 139.39 158.804 139.753H158.785Z" fill="white"/>
<path d="M43.7294 161.82C44.1018 160.075 44.8745 159.428 46.5268 159.423C48.5003 159.414 50.4739 159.423 52.4427 159.418C52.8849 159.418 53.3318 159.437 53.7646 159.269C54.9329 158.822 55.5706 157.771 55.4077 156.542C55.2494 155.378 54.393 154.48 53.1875 154.41C51.8516 154.326 50.5111 154.373 49.1706 154.363C48.5003 154.363 47.8394 154.312 47.1924 154.098C44.8977 153.339 43.4595 151.101 43.762 148.727C44.0646 146.353 46.0055 144.459 48.4073 144.389C51.3815 144.305 54.3604 144.347 57.3393 144.351C57.9817 144.351 58.0189 144.44 57.8234 145.092C57.5069 146.153 56.6132 146.818 55.3798 146.832C53.4807 146.856 51.5817 146.837 49.6873 146.837C49.3521 146.837 49.017 146.828 48.6819 146.846C47.3181 146.921 46.2801 147.945 46.2243 149.257C46.1638 150.551 47.1412 151.734 48.4957 151.822C49.9805 151.92 51.4699 151.864 52.9594 151.892C54.9515 151.929 56.4596 152.804 57.3812 154.587C59.2151 158.12 56.4038 161.946 53.0758 161.885C50.1387 161.829 47.1971 161.876 44.2554 161.871C44.1158 161.871 43.9715 161.839 43.7388 161.815L43.7294 161.82Z" fill="white"/>
<path d="M178.446 215.557C179.237 217.344 180.033 219.127 180.81 220.919C180.95 221.245 181.239 221.547 181.066 221.952C180.615 222.129 180.499 221.817 180.35 221.496C179.8 220.281 179.233 219.071 178.674 217.856C176.952 214.119 175.23 210.376 173.503 206.643C173.279 206.164 173.182 205.68 172.348 205.773C171.497 205.866 170.761 205.429 170.44 204.442C170.226 203.785 169.747 203.218 169.425 202.594C168.993 201.756 168.685 200.886 169.007 199.922C169.132 199.545 169.016 199.201 168.923 198.838C168.723 198.046 168.564 197.246 168.397 196.445C168.36 196.259 168.383 196.082 168.578 195.97C168.751 195.873 168.881 195.98 168.979 196.068C169.193 196.25 169.607 196.371 169.509 196.706C169.235 197.641 170.003 197.809 170.496 198.195C172.083 195.952 172.465 196.147 174.783 197.469C175.509 197.884 176.054 198.512 176.268 199.345C176.468 200.108 176.863 200.783 177.138 201.509C177.585 202.692 177.52 202.98 176.556 203.827C175.872 204.432 175.853 204.437 176.165 205.298C177.324 208.51 178.809 211.586 180.126 214.733C180.843 216.446 181.583 218.145 182.305 219.853C182.523 220.374 182.728 220.9 182.104 221.31C181.127 220.756 180.778 219.765 180.419 218.806C179.94 217.535 179.498 216.25 178.781 215.082C178.688 214.928 178.567 214.793 178.455 214.654C177.236 211.326 175.825 208.082 174.043 204.712C174.075 205.908 174.429 206.75 174.755 207.593C175.811 210.325 177.175 212.918 178.437 215.561L178.446 215.557Z" fill="white"/>
<path d="M172.572 225.42C172.074 225.247 172.097 224.666 171.748 224.377C171.734 224.307 171.739 224.223 171.706 224.163C171.176 223.148 170.561 222.161 170.71 220.937C170.743 220.667 170.491 220.574 170.352 220.411C168.872 218.685 167.959 216.697 167.685 214.435C167.652 214.174 167.671 213.932 167.438 213.741C166.54 213.011 166.135 211.968 165.693 210.953C165.357 210.19 165.073 209.389 164.445 208.738C164.156 208.98 163.835 209.096 163.672 209.413L163.696 209.38C163.235 209.394 162.849 209.641 162.425 209.771C161.583 210.027 161.061 209.813 160.698 209.017C160.251 208.04 159.851 207.039 159.432 206.052C159.255 205.633 159.19 205.196 159.204 204.744C159.246 203.585 159.679 202.529 159.893 201.435C160.568 201.491 160.498 202.203 161.084 202.296C161.345 201.542 161.122 200.797 160.931 200.085C160.819 199.661 160.675 199.312 161.131 199.019C161.555 198.744 161.936 198.554 162.462 198.856C163.184 199.266 163.845 199.717 164.291 200.439C165.427 202.273 166.395 204.2 167.433 206.089C167.736 206.639 167.745 207.146 167.252 207.602C166.637 208.175 166.689 208.812 166.986 209.534C168.541 213.271 170.082 217.014 171.613 220.76C172.074 221.896 172.47 223.055 172.93 224.191C173.149 224.731 173.065 225.126 172.563 225.424L172.572 225.42Z" fill="white"/>
<path d="M25.3766 144.505C25.3161 145.943 24.441 146.846 23.0028 146.869C21.2899 146.902 19.577 146.879 17.8688 146.879C17.6454 146.879 17.422 146.879 17.1985 146.879C16.2025 146.869 16.2769 146.846 16.2769 147.768C16.2769 150.854 16.2769 153.944 16.2769 157.03C16.2769 157.589 16.3095 158.147 16.2676 158.706C16.2304 159.237 16.4026 159.418 16.9518 159.409C18.7392 159.381 20.5265 159.395 22.3092 159.4C22.6071 159.4 22.905 159.386 23.2029 159.413C24.4969 159.558 25.3068 160.437 25.3812 161.769C25.1904 161.936 24.9577 161.876 24.7436 161.876C21.3923 161.876 18.0457 161.88 14.6944 161.876C13.8054 161.876 13.7961 161.866 13.7961 160.959C13.7961 155.75 13.7961 150.542 13.7961 145.333C13.7961 144.449 13.6518 144.412 14.6851 144.412C18.0364 144.412 21.383 144.412 24.7342 144.412C24.953 144.412 25.1811 144.361 25.3812 144.496L25.3766 144.505Z" fill="white"/>
<path d="M43.0266 144.422C42.752 146.12 41.9328 146.856 40.3968 146.875C39.3169 146.888 38.2371 146.87 37.1572 146.879C36.3985 146.888 36.3892 146.898 36.3892 147.694C36.3846 151.343 36.3892 154.987 36.3892 158.637C36.3892 159.046 36.4079 159.46 36.3473 159.861C36.2031 160.838 35.5933 161.457 34.695 161.788C34.0945 162.006 33.913 161.867 33.913 161.201C33.9037 158.26 33.913 155.323 33.913 152.381C33.913 150.854 33.913 149.327 33.913 147.801C33.913 146.777 34.0154 146.879 32.9309 146.875C31.218 146.875 29.5052 146.875 27.7923 146.875C27.648 146.875 27.4991 146.851 27.3548 146.837C27.4199 145.408 28.2484 144.44 29.5657 144.431C34.0294 144.398 38.4977 144.417 43.0359 144.417L43.0266 144.422Z" fill="white"/>
<path d="M95.9115 181.984C94.3849 181.444 92.8628 180.904 91.2198 180.322C91.3594 180.704 91.3129 180.987 91.2151 181.285C91.0615 181.755 90.8148 181.835 90.3819 181.658C89.977 181.495 89.8979 181.253 90.098 180.88C90.1678 180.75 90.1771 180.569 90.2749 180.48C90.7171 180.08 90.2609 179.94 90.0747 179.717C90.7078 178.05 91.2756 176.356 91.9971 174.727C92.9187 172.642 94.3616 171.045 96.6749 170.44C97.5313 170.212 99.1604 170.18 100.408 170.38C98.9044 174.257 97.4103 178.12 95.9115 181.979V181.984Z" fill="white"/>
<path d="M118.463 49.7803C118.7 50.1619 118.677 50.4831 118.556 50.8089C117.625 53.3875 118.114 55.8591 119.161 58.2748C120.18 60.6254 121.214 62.9666 122.242 65.3125C125.663 73.1321 129.085 80.9518 132.487 88.7807C132.631 89.1112 133.059 89.4649 132.65 89.8699C132.436 90.084 131.821 89.7814 131.472 89.2694C131.226 88.9017 131.039 88.4921 130.858 88.0872C127.944 81.5057 125.03 74.9195 122.131 68.3333C120.562 64.7679 118.998 61.1979 117.565 57.572C116.824 55.6962 116.485 53.7739 117.048 51.8003C117.271 51.0091 117.378 50.0689 118.458 49.7849L118.463 49.7803Z" fill="white"/>
<path d="M13.8286 208.919C16.0954 208.919 18.3622 208.919 20.6289 208.919C20.6522 210.144 20.6894 211.363 20.5033 212.583C20.0471 215.543 17.4406 218.005 14.5687 218.168C13.838 218.21 13.8193 218.21 13.8193 217.484C13.8193 214.631 13.824 211.773 13.8286 208.919Z" fill="white"/>
<path d="M122.084 39.2705C122.345 39.6568 122.675 39.9547 123.103 40.1409C122.689 40.9275 122.289 41.7235 121.851 42.4961C121.688 42.7847 121.702 42.9569 121.879 43.2688C122.554 44.4789 122.657 45.7264 121.898 46.9738C121.53 47.5742 121.181 48.1886 120.855 48.817C120.599 49.315 120.194 49.4593 119.752 49.2266C118.77 48.7099 117.774 48.2072 116.922 47.4625C116.499 47.0901 116.396 46.6759 116.62 46.1732C117.285 44.6744 117.932 43.171 119.622 42.4961C120.185 42.2727 120.59 41.8165 120.897 41.2906C121.288 40.6157 121.688 39.9454 122.084 39.2752V39.2705Z" fill="white"/>
<path d="M137.942 102.075C137.574 101.944 137.23 101.819 136.89 101.698C136.867 101.521 136.946 101.404 137.053 101.302C137.951 100.431 138.445 100.473 139.017 101.576C139.976 103.42 140.893 105.286 141.81 107.153C142.578 108.717 143.402 110.262 144.04 111.886C144.305 112.561 144.3 112.561 143.583 112.752C142.518 113.036 142.043 112.887 141.577 111.91C140.362 109.364 139.194 106.794 138.026 104.23C137.714 103.541 137.733 102.81 137.942 102.075Z" fill="white"/>
<path d="M151.417 140.614C152.255 141.135 152.841 141.768 153.512 142.285C153.735 142.457 153.833 142.666 153.837 142.95C153.856 144.44 154.456 145.757 155.117 147.046C155.625 148.033 156.16 149.011 156.667 149.997C156.835 150.328 156.998 150.663 157.105 151.017C157.37 151.859 156.49 152.855 155.625 152.716C155.369 152.674 155.285 152.455 155.187 152.259C154.908 151.696 154.633 151.128 154.363 150.561C153.488 148.68 152.623 146.795 151.738 144.924C151.329 144.058 150.891 143.22 151.892 142.448C152.092 142.294 151.943 142.122 151.882 141.954C151.734 141.545 151.589 141.135 151.408 140.618L151.417 140.614Z" fill="white"/>
<path d="M130.216 89.5817C129.485 88.4972 129.029 87.2777 128.503 86.0954C124.989 78.1269 121.377 70.2002 118.039 62.1571C117.16 60.0393 116.266 57.9122 115.805 55.6501C115.498 54.1466 115.493 52.6339 116.084 51.1724C116.154 51.2422 116.219 51.2422 116.28 51.1631C115.712 53.6393 116.07 56.0457 116.931 58.3869C118.035 61.3845 119.436 64.261 120.711 67.184C123.913 74.5382 127.139 81.8831 130.351 89.2326C130.304 89.349 130.253 89.4653 130.206 89.5817H130.216Z" fill="white"/>
<path d="M21.2852 150.514C21.9881 150.514 22.6956 150.533 23.3984 150.51C23.9569 150.491 24.0081 150.747 23.8825 151.199C23.6311 152.143 22.8724 152.893 21.8345 152.953C20.3217 153.042 18.7997 153 17.2823 153.023C16.8215 153.032 16.8308 152.758 16.882 152.432C17.0449 151.422 17.9991 150.593 19.1767 150.519C19.8796 150.472 20.5824 150.51 21.2899 150.51L21.2852 150.514Z" fill="white"/>
<path d="M204.623 132.417C205.61 132.436 206.48 132.594 207.341 132.822C207.514 132.869 207.686 132.957 207.835 133.06C208.519 133.544 208.538 134.168 207.779 134.503C206.601 135.024 205.354 135.434 204.06 135.527C202.934 135.611 202.119 134.349 202.491 133.274C202.626 132.883 202.892 132.65 203.283 132.585C203.757 132.501 204.237 132.464 204.623 132.417Z" fill="white"/>
<path d="M171.264 224.68C171.236 224.973 171.385 225.22 171.473 225.48C171.334 225.56 171.199 225.778 171.045 225.499C170.724 224.917 170.356 224.354 170.086 223.754C168.104 219.378 166.139 214.998 164.175 210.614C163.994 210.214 163.863 209.79 163.71 209.38L163.686 209.413C164.268 209.762 164.627 210.274 164.911 210.898C166.502 214.44 168.118 217.968 169.751 221.491C170.245 222.562 170.645 223.679 171.278 224.68H171.264Z" fill="white"/>
<path d="M154.75 142.155C156.118 145.166 157.487 148.173 158.911 151.306C157.016 150.282 154.531 144.878 154.75 142.155Z" fill="white"/>
<path d="M137.928 99.6494C136.118 99.3143 135.387 98.4066 135.606 96.731C135.666 96.2516 135.606 95.8792 135.377 95.4696C134.935 94.6551 134.535 93.8173 134.116 92.9888C134.083 92.9236 134.06 92.8538 134.032 92.7746C134.302 92.5047 134.526 92.784 134.707 92.8817C136.09 93.6404 136.899 95.3253 136.597 96.8334C136.504 97.2896 136.439 97.4944 136.997 97.8062C137.542 98.1088 137.616 98.9838 137.933 99.6494H137.928ZM136.727 98.4439C136.713 98.4672 136.681 98.4951 136.685 98.5137C136.695 98.5463 136.741 98.5928 136.751 98.5882C136.848 98.5556 136.862 98.4997 136.802 98.4485C136.783 98.4346 136.751 98.4439 136.727 98.4392V98.4439ZM136.643 98.0529C136.62 98.025 136.597 98.0017 136.578 97.9784C136.555 98.025 136.522 98.0669 136.513 98.1134C136.513 98.132 136.55 98.16 136.574 98.1832C136.597 98.1413 136.625 98.0948 136.648 98.0529H136.643Z" fill="white"/>
<path d="M131.924 93.4541C132.608 95.0972 133.45 96.5494 132.836 98.3134C131.691 97.4756 131.23 95.2368 131.924 93.4541Z" fill="white"/>
<path d="M133.153 129.266C133.078 129.271 133.004 129.28 132.934 129.285C132.752 129.299 132.664 129.206 132.645 129.038C132.631 128.908 132.715 128.829 132.831 128.81C133.888 128.629 134.945 128.447 136.001 128.266C136.201 128.233 136.374 128.266 136.42 128.494C136.471 128.736 136.318 128.819 136.118 128.847C135.131 128.996 134.144 129.141 133.157 129.285C133.157 129.276 133.157 129.266 133.157 129.262L133.153 129.266Z" fill="white"/>
<path d="M204.372 128.731C205.433 127.614 205.726 127.502 206.834 128.307C205.684 129.359 205.386 129.42 204.372 128.731Z" fill="white"/>
<path d="M201.365 131.505C202.417 130.341 202.538 130.318 203.418 131.095C202.105 132.757 202.226 132.301 201.365 131.505Z" fill="white"/>
<path d="M211.181 126.953C210.804 127.33 210.288 127.432 209.827 127.633C209.496 127.772 209.185 127.707 208.947 127.4C208.817 127.232 208.789 127.121 208.956 126.944C209.711 126.171 210.274 126.162 211.181 126.953Z" fill="white"/>
<path d="M210.492 132.696C211.233 131.682 211.647 131.491 212.308 131.826C212.517 131.933 212.694 132.082 212.499 132.338C212.094 132.878 211.242 133.045 210.492 132.692V132.696Z" fill="white"/>
<path d="M214.43 127.228C214.281 127.395 214.193 127.511 214.095 127.614C213.527 128.219 212.967 128.205 212.415 127.572C213.443 126.539 213.49 126.529 214.43 127.228Z" fill="white"/>
<path d="M188.551 139.73C188.165 140.67 187.778 141.615 187.383 142.55C187.294 142.76 187.29 143.128 186.894 142.946C186.526 142.778 186.708 142.546 186.847 142.318C187.387 141.452 187.881 140.554 188.532 139.762L188.551 139.725V139.73Z" fill="white"/>
<path d="M214.97 129.341C214.03 130.392 213.983 130.406 213.136 129.922C213.689 129.007 214.3 128.813 214.97 129.341Z" fill="white"/>
<path d="M132.445 91.8108C132.715 91.2662 132.687 90.6471 133.171 90.5913C133.72 90.5261 133.692 91.2057 133.935 91.5408C134.042 91.6851 134.079 91.8806 134.167 92.0901C133.581 92.1831 133.092 91.8992 132.445 91.8108Z" fill="white"/>
<path d="M85.1223 197.963C85.0665 198.107 85.0059 198.284 84.9408 198.456C83.7353 201.616 82.5297 204.777 81.3242 207.937C81.259 208.11 81.2032 208.286 81.124 208.459C81.0356 208.645 80.9053 208.752 80.6865 208.631C80.505 208.528 80.2257 208.51 80.3281 208.184C80.384 208.007 80.4491 207.835 80.5143 207.658C81.7059 204.53 82.8928 201.407 84.0843 198.279C84.1635 198.07 84.2566 197.87 84.345 197.665C84.4521 197.423 84.6429 197.516 84.8198 197.548C85.0339 197.59 85.1456 197.702 85.1176 197.963H85.1223Z" fill="white"/>
<path d="M90.852 182.826C90.8195 182.914 90.7543 183.091 90.6891 183.264C89.4836 186.447 88.2781 189.631 87.0726 192.815C87.0214 192.954 86.9422 193.085 86.9003 193.224C86.8026 193.517 86.6304 193.517 86.3883 193.406C86.1742 193.303 85.9787 193.224 86.1091 192.926C86.2115 192.689 86.2952 192.442 86.3837 192.2C87.5334 189.152 88.683 186.103 89.8374 183.059C89.9165 182.849 89.991 182.64 90.098 182.449C90.2051 182.258 90.3819 182.267 90.5774 182.347C90.7683 182.426 90.8986 182.519 90.8567 182.835L90.852 182.826Z" fill="white"/>
<path d="M79.1366 209.939C79.4763 208.826 79.5182 208.784 80.0768 208.994C80.5748 209.18 80.6167 209.324 80.3421 209.929C80.0907 210.479 80.0768 210.479 79.1366 209.939Z" fill="white"/>
<path d="M86.2813 194.164C86.2952 194.574 85.8996 195.161 85.6436 195.105C85.3504 195.039 84.9501 195.044 84.9128 194.616C84.8803 194.239 85.2759 193.676 85.5272 193.727C85.8298 193.787 86.1928 193.806 86.2813 194.164Z" fill="white"/>
<path d="M85.1409 197.055C84.9687 197.004 84.7918 196.953 84.6196 196.888C84.4102 196.808 84.1635 196.711 84.2566 196.431C84.359 196.129 84.3636 195.729 84.7313 195.603C84.9966 195.51 85.22 195.724 85.4388 195.845C85.5878 195.929 85.5598 196.096 85.5272 196.245C85.4667 196.538 85.3504 196.808 85.1363 197.055H85.1409Z" fill="white"/>
<path d="M14.6851 193.327C14.1033 193.429 14.0288 193.094 14.0288 192.61C14.0288 192.135 14.201 191.972 14.6758 191.958C15.2529 191.94 15.3414 192.214 15.3414 192.698C15.3414 193.169 15.1878 193.401 14.6897 193.327H14.6851Z" fill="white"/>
<path d="M14.699 208.514C14.1172 208.607 14.0334 208.277 14.0288 207.798C14.0288 207.323 14.201 207.16 14.6758 207.146C15.2529 207.127 15.3414 207.402 15.3414 207.886C15.3414 208.356 15.1878 208.589 14.699 208.514Z" fill="white"/>
<path d="M15.5462 194.825C15.5462 194.97 15.5462 195.119 15.5462 195.263C15.5462 195.584 15.374 195.719 15.0574 195.71C14.7828 195.7 14.6618 195.552 14.6525 195.3C14.6432 195.044 14.6525 194.788 14.6432 194.532C14.6339 194.197 14.713 193.96 15.1273 193.988C15.4717 194.011 15.5508 194.206 15.5462 194.495C15.5462 194.607 15.5462 194.714 15.5462 194.825Z" fill="white"/>
<path d="M15.5462 205.633C15.5462 205.782 15.5462 205.927 15.5462 206.076C15.5462 206.411 15.3646 206.518 15.0574 206.508C14.7875 206.504 14.6525 206.383 14.6525 206.113C14.6525 205.82 14.6525 205.526 14.6525 205.233C14.6525 204.917 14.8108 204.768 15.1319 204.786C15.3926 204.805 15.5369 204.931 15.5462 205.196C15.5462 205.34 15.5462 205.489 15.5462 205.638V205.633Z" fill="white"/>
<path d="M188.532 139.762L188.504 139.706C188.504 139.706 188.551 139.734 188.551 139.729L188.532 139.762Z" fill="white"/>
<path d="M84.1588 212.327C82.1807 211.582 80.2025 210.837 78.2243 210.093C77.838 209.911 77.4703 209.73 77.7728 209.19C78.0335 208.724 77.959 207.951 78.8527 208.072C78.9318 208.082 79.0807 207.803 79.1412 207.64C80.4631 204.177 81.7804 200.709 83.093 197.241C83.1535 197.078 83.335 196.85 83.1535 196.743C82.4413 196.338 82.8835 195.859 83.0324 195.407C83.2419 194.774 83.4746 194.151 83.7073 193.522C83.833 193.183 83.8935 192.824 84.4428 192.899C84.8943 192.959 84.885 192.461 84.992 192.177C85.9229 189.757 86.8352 187.323 87.7521 184.898C88.1059 183.962 88.4783 183.031 88.818 182.091C88.8925 181.886 89.1299 181.625 88.7529 181.435C88.5574 181.337 88.3386 181.216 88.455 180.927C88.6319 180.48 88.8041 180.034 89.0228 179.605C89.088 179.48 89.2788 179.559 89.4278 179.605C89.6372 179.67 89.8607 179.684 90.0794 179.722C90.2609 179.945 90.7171 180.085 90.2796 180.485C90.1818 180.573 90.1725 180.76 90.1027 180.885C89.9026 181.258 89.9817 181.495 90.3866 181.663C90.8195 181.839 91.0662 181.76 91.2198 181.29C91.3175 180.992 91.3687 180.708 91.2244 180.327C92.8628 180.909 94.3895 181.448 95.9162 181.988C96.2095 182.142 96.498 182.3 96.8425 182.482C96.8332 182.919 96.5772 183.296 96.4468 183.711C96.391 183.887 96.3212 184.153 96.1396 184.125C95.353 183.999 95.3484 184.646 95.1808 185.084C93.9567 188.267 92.7558 191.456 91.5549 194.649C91.4106 195.026 91.0662 195.449 91.6899 195.771C91.8761 195.868 91.783 196.11 91.7178 196.278C91.3827 197.181 91.0476 198.084 90.6985 198.982C90.6473 199.112 90.5449 199.317 90.4611 199.322C89.102 199.396 89.5069 200.686 89.0461 201.37C88.8925 201.598 89.0927 201.766 89.3347 201.854C89.856 202.045 90.368 202.259 90.8893 202.454C91.0615 202.52 91.2803 202.603 91.4106 202.44C92.0483 201.626 92.5836 202.445 93.1468 202.562C93.4726 202.627 93.3469 202.985 93.2538 203.227C92.686 204.717 92.1507 206.22 91.4991 207.672C91.378 207.938 91.4804 208.375 91.0801 208.51L91.0988 208.529C91.0802 208.426 91.0662 208.319 91.0476 208.217C90.9545 207.63 90.4378 207.635 90.0468 207.598C89.6652 207.556 89.6745 208.007 89.5954 208.254C89.4371 208.757 89.9444 208.696 90.1911 208.854C90.3913 208.98 90.6147 208.957 90.8335 208.943C90.8753 208.985 90.9172 209.027 90.9638 209.064C90.9498 209.138 90.9452 209.213 90.9219 209.283C90.503 210.595 90.2563 210.693 89.0601 210.009C88.967 209.953 88.7994 209.869 88.8087 209.813C88.9437 208.729 87.9383 208.948 87.4356 208.608C87.3146 208.529 87.1471 208.529 87.0214 208.454C86.6025 208.217 86.3372 208.291 86.1836 208.775C86.0253 209.269 85.8205 209.748 85.639 210.237C85.5785 210.4 85.4388 210.567 85.625 210.74C85.8066 210.902 86.1184 210.986 85.9834 211.335C85.8205 211.75 85.6716 212.168 85.4947 212.578C85.4249 212.736 85.2666 212.722 85.113 212.662C84.8012 212.546 84.48 212.443 84.1682 212.336L84.1588 212.327ZM85.1223 197.963C85.1503 197.702 85.0386 197.59 84.8244 197.549C84.6476 197.516 84.4567 197.423 84.3497 197.665C84.2566 197.87 84.1682 198.07 84.089 198.279C82.8975 201.407 81.7059 204.53 80.519 207.658C80.4538 207.83 80.3887 208.007 80.3328 208.184C80.2304 208.51 80.5097 208.529 80.6912 208.631C80.91 208.752 81.0403 208.645 81.1287 208.459C81.2079 208.291 81.2637 208.114 81.3289 207.938C82.5344 204.777 83.7399 201.617 84.9455 198.456C85.0106 198.284 85.0758 198.107 85.127 197.963H85.1223ZM90.8521 182.826C90.8893 182.514 90.759 182.417 90.5728 182.338C90.3773 182.258 90.2051 182.249 90.0934 182.44C89.9863 182.631 89.9119 182.845 89.8327 183.05C88.6831 186.098 87.5334 189.142 86.3791 192.191C86.286 192.433 86.2068 192.68 86.1044 192.917C85.9741 193.215 86.1696 193.299 86.3837 193.397C86.6257 193.513 86.8026 193.508 86.8957 193.215C86.9423 193.076 87.0167 192.945 87.0679 192.806C88.2735 189.622 89.479 186.438 90.6845 183.254C90.7497 183.082 90.8148 182.91 90.8474 182.817L90.8521 182.826ZM79.1366 209.939C80.0768 210.474 80.0954 210.474 80.3421 209.93C80.6167 209.325 80.5748 209.18 80.0768 208.994C79.5136 208.785 79.4764 208.827 79.1366 209.939ZM86.2813 194.165C86.1882 193.811 85.8298 193.792 85.5273 193.727C85.2806 193.676 84.8803 194.235 84.9129 194.616C84.9501 195.044 85.3504 195.044 85.6436 195.105C85.8996 195.161 86.2953 194.574 86.2813 194.165ZM85.1409 197.055C85.3551 196.808 85.4668 196.539 85.5319 196.245C85.5645 196.096 85.5878 195.929 85.4435 195.845C85.2247 195.724 84.9967 195.51 84.736 195.603C84.3683 195.733 84.3636 196.129 84.2612 196.431C84.1681 196.711 84.4148 196.808 84.6243 196.888C84.7965 196.953 84.9734 196.999 85.1456 197.055H85.1409Z" fill="#D28C1D"/>
<path d="M172.572 225.42C173.228 227.826 173.396 230.261 172.861 232.704C172.153 235.925 169.854 237.82 166.558 238.02C164.375 238.15 162.262 237.801 160.172 237.205C157.314 236.386 154.438 235.637 151.487 235.208C150.342 235.041 149.192 234.971 148.038 235.031C147.74 235.045 147.437 235.055 147.153 235.134C146.655 235.269 146.088 235.376 145.934 235.967C145.799 236.493 146.274 236.758 146.576 237.056C149.36 239.807 152.618 241.874 156.127 243.559C157.165 244.057 158.245 244.462 159.293 244.946C159.777 245.169 160.2 245.183 160.666 244.913C161.117 244.652 161.597 244.452 162.053 244.196C166.186 241.883 170.673 241.017 175.346 240.947C176.761 240.924 178.171 241.12 179.517 241.604C180.918 242.111 182.1 242.898 182.812 244.28C183.189 245.015 183.161 245.69 182.761 246.393C182.202 247.371 181.36 248.022 180.354 248.474C179.084 249.046 177.734 249.298 176.351 249.377C173.126 249.554 169.965 249.088 166.833 248.385C164.799 247.929 162.788 247.394 160.833 246.682C160.265 246.477 159.791 246.5 159.237 246.728C154.48 248.683 149.569 250.14 144.496 251.034C142.243 251.429 139.981 251.518 137.709 251.346C129.964 250.75 122.387 249.307 114.991 246.915C105.472 243.833 96.6423 239.383 88.4922 233.579C88.3107 233.449 88.1292 233.319 87.9523 233.184C87.4124 232.783 87.3907 232.313 87.8872 231.773C88.3619 232.113 88.8413 232.458 89.3254 232.802C100.631 240.794 113.068 246.137 126.673 248.758C130.332 249.461 134.023 249.907 137.728 250.247C140.996 250.55 144.189 250.038 147.354 249.316C150.765 248.544 154.112 247.543 157.375 246.277C157.649 246.17 157.919 246.053 158.203 245.937C158.031 245.495 157.612 245.481 157.291 245.341C153.796 243.81 150.514 241.934 147.577 239.486C146.776 238.816 146.004 238.113 145.32 237.326C144.435 236.307 144.668 235.069 145.855 234.436C146.488 234.101 147.181 233.975 147.898 233.938C149.997 233.831 152.055 234.128 154.103 234.529C156.807 235.055 159.428 235.897 162.104 236.535C163.486 236.865 164.892 237.005 166.312 236.917C169.649 236.716 171.641 234.799 171.972 231.447C172.172 229.427 171.995 227.435 171.483 225.476C171.394 225.215 171.25 224.968 171.273 224.675C171.348 224.438 171.543 224.391 171.757 224.373C172.102 224.666 172.083 225.243 172.581 225.415L172.572 225.42ZM161.601 245.751C163.421 246.44 165.148 246.868 166.884 247.268C170.049 247.994 173.238 248.502 176.505 248.274C177.967 248.171 179.419 247.92 180.624 247.045C182.374 245.77 182.398 244.955 180.75 243.54C179.791 242.716 178.586 242.432 177.361 242.227C175.085 241.846 172.833 242.111 170.584 242.465C167.438 242.967 164.459 243.95 161.601 245.751Z" fill="#D28C1D"/>
<path d="M13.838 191.577C16.1001 191.577 18.3622 191.577 20.6243 191.577C21.1922 191.591 21.5412 191.8 21.4249 192.442C21.3364 192.926 21.7042 193.55 20.8524 193.792C20.494 193.895 20.601 196.348 20.9734 196.585C21.909 197.185 22.1277 198.051 22.0858 199.08C22.0439 200.006 22.0626 200.937 22.0858 201.863C22.1044 202.622 21.8671 203.288 21.234 203.697C20.7453 204.014 20.6429 204.395 20.6802 204.907C20.7081 205.275 20.6802 205.647 20.6895 206.02C20.6941 206.373 20.6289 206.695 21.1503 206.872C21.6902 207.053 21.3504 207.649 21.4295 208.058C21.5506 208.687 21.2294 208.933 20.6383 208.924C18.3715 208.924 16.1047 208.924 13.838 208.924C13.8007 208.919 13.7635 208.915 13.7263 208.906C13.3353 208.812 12.7907 209.082 12.5719 208.705C12.3159 208.263 12.4881 207.691 12.4928 207.174C12.4928 207.016 12.5905 206.876 12.7535 206.862C13.3585 206.816 13.3027 206.383 13.298 205.973C13.298 205.713 13.298 205.452 13.298 205.191C13.298 203.976 12.7162 203.376 11.5386 203.134C10.4448 202.91 9.25789 202.962 8.35491 202.031C8.03375 201.7 7.38211 201.807 7.00509 201.314C6.78633 201.025 6.26502 201.323 6.2464 201.747C6.20917 202.45 6.22779 203.157 6.21848 203.865C6.21848 204.125 6.21848 204.386 6.20451 204.647C6.18589 204.903 6.01833 205.056 5.7856 205.098C5.4784 205.159 5.28291 204.968 5.19913 204.698C5.13397 204.488 5.12466 204.26 5.12466 204.042C5.12 201.514 5.12466 198.982 5.12466 196.455C5.12466 196.268 5.12466 196.078 5.16189 195.901C5.2224 195.626 5.39462 195.407 5.68786 195.407C6.0416 195.407 6.21848 195.645 6.21848 195.989C6.22779 196.846 6.21848 197.697 6.23244 198.554C6.23244 198.805 6.16728 199.126 6.48844 199.219C6.80029 199.308 7.16335 199.373 7.30299 198.908C7.33091 198.814 7.41469 198.693 7.50313 198.67C8.92277 198.237 10.1841 197.344 11.7527 197.33C12.5673 197.325 13.2887 196.385 13.2934 195.542C13.2934 195.095 13.2934 194.649 13.2934 194.202C13.2934 194.016 13.2794 193.82 13.07 193.741C12.8419 193.657 12.5068 193.694 12.4928 193.336C12.4788 192.857 12.4835 192.373 12.5207 191.893C12.5393 191.665 12.7721 191.656 12.9536 191.642C13.2515 191.619 13.5447 191.6 13.8426 191.581L13.838 191.577ZM8.87622 199.573C9.49062 199.573 10.0585 199.573 10.631 199.573C10.9661 199.573 11.0732 199.392 11.0545 199.084C11.0359 198.801 11.1197 198.489 10.6868 198.419C9.9328 198.293 9.30909 198.656 8.87622 199.573ZM8.74589 200.914C9.15549 201.714 9.64888 202.021 10.3238 202.059C10.7055 202.082 11.0592 202.11 11.0685 201.523C11.0732 201.007 10.8497 200.886 10.3983 200.904C9.91884 200.928 9.43477 200.909 8.74589 200.909V200.914ZM14.6851 193.327C15.1831 193.401 15.3367 193.173 15.3367 192.698C15.3367 192.21 15.2483 191.935 14.6711 191.958C14.1964 191.977 14.0241 192.135 14.0241 192.61C14.0241 193.089 14.1033 193.429 14.6804 193.327H14.6851ZM14.6991 208.515C15.1878 208.589 15.3367 208.356 15.3414 207.886C15.3414 207.397 15.2529 207.123 14.6758 207.146C14.201 207.165 14.0288 207.323 14.0288 207.798C14.0288 208.282 14.1172 208.608 14.6991 208.515ZM15.5462 194.826C15.5462 194.714 15.5462 194.607 15.5462 194.495C15.5555 194.206 15.4717 194.006 15.1273 193.988C14.7084 193.96 14.6339 194.197 14.6432 194.532C14.6479 194.788 14.6432 195.044 14.6525 195.3C14.6618 195.552 14.7828 195.701 15.0575 195.71C15.3693 195.719 15.5415 195.584 15.5462 195.263C15.5462 195.119 15.5462 194.97 15.5462 194.826ZM15.5462 205.633C15.5462 205.484 15.5462 205.34 15.5462 205.191C15.5369 204.926 15.3926 204.8 15.1319 204.782C14.8108 204.763 14.6525 204.912 14.6525 205.228C14.6525 205.522 14.6525 205.815 14.6525 206.108C14.6525 206.378 14.7921 206.499 15.0575 206.504C15.3647 206.513 15.5508 206.401 15.5462 206.071C15.5462 205.922 15.5462 205.778 15.5462 205.629V205.633ZM5.65062 202.533C5.5808 203.236 5.29688 203.962 5.76233 204.903C6.00902 203.934 6.03229 203.232 5.65062 202.533ZM12.6836 201.738C12.8698 202.482 13.0979 202.929 13.8519 203.129C13.4191 202.617 13.1025 202.236 12.6836 201.738Z" fill="#D28C1D"/>
<path d="M182.109 221.31C182.975 224.093 184.241 226.686 185.884 229.088C186.177 229.52 186.647 229.786 187.248 229.865C187.578 229.423 187.648 228.864 187.806 228.347C188.369 226.5 188.872 224.633 189.608 222.841C190.092 221.659 190.72 220.57 191.67 219.695C193.759 217.754 196.589 218.187 197.986 220.667C198.991 222.45 199.019 224.233 197.786 225.909C195.663 228.799 192.819 230.577 189.258 231.089C188.388 231.215 187.876 231.461 187.592 232.346C187.187 233.621 186.461 234.757 185.647 235.883C190.394 237.186 194.788 236.991 198.884 234.035C209.24 226.565 217.884 217.493 224.707 206.699C224.968 206.29 225.233 205.885 225.471 205.466C225.671 205.117 225.89 205.131 226.202 205.326C226.495 205.512 226.648 205.694 226.434 206.034C226.155 206.471 225.89 206.918 225.61 207.36C218.796 218.112 210.204 227.184 199.908 234.668C197.809 236.195 195.561 237.252 192.982 237.503C190.79 237.717 188.593 237.605 186.419 237.224C186.382 237.219 186.345 237.21 186.312 237.196C185.256 236.791 184.506 237.14 183.692 237.931C181.755 239.807 179.451 240.924 176.649 240.691C175.7 240.612 174.825 240.319 174.071 239.742C172.53 238.56 172.525 236.735 174.117 235.637C175.542 234.654 177.143 234.231 178.883 234.515C180.387 234.761 181.876 235.092 183.347 235.492C184.097 235.697 184.59 235.529 185.018 234.855C185.661 233.849 186.224 232.807 186.685 231.703C186.871 231.266 186.903 230.982 186.345 230.773C185.474 230.447 184.893 229.767 184.427 228.981C183.091 226.737 181.979 224.391 181.066 221.947C181.239 221.538 180.95 221.235 180.81 220.914C180.033 219.122 179.237 217.34 178.446 215.552C178.353 215.25 178.423 214.947 178.465 214.649C178.572 214.793 178.693 214.928 178.79 215.077C179.507 216.241 179.954 217.526 180.429 218.801C180.787 219.76 181.136 220.747 182.114 221.305L182.109 221.31ZM188.5 229.935C188.719 229.977 188.826 230.032 188.928 230.018C192.344 229.525 195.077 227.896 197.036 225.043C197.86 223.842 197.739 222.585 197.087 221.347C196.045 219.364 193.997 219.024 192.368 220.565C191.479 221.403 190.943 222.459 190.506 223.577C189.715 225.625 189.156 227.742 188.5 229.939V229.935ZM183.487 236.651C182.16 236.339 181.053 236.065 179.935 235.827C179.321 235.697 178.697 235.585 178.069 235.553C176.849 235.492 175.718 235.855 174.732 236.558C173.815 237.21 173.801 238.038 174.653 238.774C175.23 239.272 175.923 239.514 176.677 239.588C179.382 239.844 181.434 238.583 183.487 236.651Z" fill="#D28C1D"/>
<path d="M136.918 18.9395C136.597 19.5353 136.08 19.9728 135.661 20.4894C132.79 24.0222 130.607 27.9181 129.382 32.3166C128.963 33.8247 128.424 35.2862 127.688 36.6686C127.218 37.5577 126.669 38.4001 125.924 39.0937C125.133 39.8337 124.234 40.3038 123.103 40.1363C122.675 39.9548 122.34 39.6522 122.084 39.2659C121.586 37.8044 121.782 36.3289 122.051 34.8627C122.605 31.8605 123.885 29.1469 125.44 26.5497C127.418 23.2496 129.834 20.2846 132.445 17.4733C135.005 14.7132 137.323 11.7668 139.208 8.49933C139.985 7.14952 140.586 5.72057 141.284 4.18457C141 6.29773 140.493 8.21075 139.813 10.0772C139.124 11.9763 138.166 13.7217 136.955 15.3462C134.73 18.3251 132.524 21.318 130.56 24.4784C129.955 25.4512 129.345 26.4286 129.131 27.6621C129.513 27.3735 129.629 26.9872 129.825 26.6567C131.393 23.971 133.26 21.5321 135.685 19.5585C136.029 19.2793 136.411 19.0419 136.774 18.7905C136.82 18.8417 136.867 18.8883 136.913 18.9348L136.918 18.9395Z" fill="#D28C1D"/>
<path d="M172.479 54.0439C174.196 53.746 175.658 54.137 176.687 55.6404C176.91 55.9708 177.073 56.3432 177.254 56.6737C177.543 56.7249 177.706 56.548 177.901 56.4503C179.288 55.7335 180.652 55.7986 181.89 56.7295C183.142 57.6744 183.631 59.0056 183.478 60.5602C183.45 60.8535 183.389 61.1514 183.296 61.4306C182.663 63.3716 182.021 65.3125 181.369 67.2488C181.16 67.8679 180.336 68.0028 179.912 67.5002C179.693 67.2442 179.903 67.0021 179.977 66.774C180.55 65.01 181.136 63.2459 181.718 61.4818C181.89 60.9512 182.053 60.4206 182.011 59.8481C181.932 58.7962 181.327 57.8746 180.443 57.6046C179.419 57.2974 178.534 57.6046 177.808 58.3679C177.413 58.7822 177.208 59.2942 177.036 59.8341C176.463 61.5982 175.881 63.3623 175.29 65.1217C175.053 65.8338 174.411 66.006 173.88 65.508C173.605 65.252 173.773 64.9541 173.866 64.6795C174.415 63.0225 174.969 61.3701 175.514 59.7084C175.653 59.2849 175.788 58.8567 175.853 58.4191C176.049 57.0879 175.369 55.8684 174.285 55.5426C173.107 55.1889 171.823 55.7707 171.241 57.0088C170.91 57.7116 170.692 58.4657 170.436 59.2011C169.979 60.537 169.505 61.8681 169.1 63.218C168.932 63.7812 168.681 63.7719 168.211 63.6136C167.713 63.446 167.471 63.3204 167.689 62.692C168.755 59.6433 169.761 56.5713 170.799 53.5132C170.882 53.2666 170.845 52.8942 171.334 52.9873C171.995 53.1176 172.26 53.3271 172.283 53.8623C172.223 53.9601 172.167 54.0718 172.307 54.1416C172.344 54.1602 172.428 54.0811 172.488 54.0485L172.479 54.0439Z" fill="#D28C1D"/>
<path d="M100.817 76.8418C100.734 76.7347 100.636 76.6277 100.561 76.5067C100.096 75.7387 100.087 75.7201 100.827 75.2313C102.056 74.4121 102.582 73.2578 102.53 71.8102C102.512 71.2051 102.316 70.6699 101.79 70.1113C101.153 71.8382 100.087 73.0576 98.3506 73.5278C97.1637 73.8489 95.9954 73.7279 94.8643 73.2206C92.4393 72.136 90.9964 69.2223 91.6108 66.6437C92.2438 63.9766 94.1987 62.7571 97.6291 62.9107C97.7082 62.4313 97.2009 62.1567 97.2102 61.7006C97.2847 61.64 97.3638 61.5609 97.4569 61.5051C98.5274 60.8581 98.4018 60.9186 98.9277 61.8542C100.422 64.5119 101.897 67.179 103.447 69.8041C104.751 72.0104 103.745 75.8876 100.813 76.8418H100.817ZM100.44 68.8732C100.45 66.8345 99.1372 65.0332 97.429 64.4886C95.5159 63.8789 93.6169 64.9215 93.0956 66.8718C92.6394 68.58 93.3749 70.5116 94.9155 71.5356C96.0698 72.3036 97.2986 72.5456 98.5926 71.8475C99.8679 71.1586 100.361 70.0136 100.44 68.8779V68.8732Z" fill="#D28C1D"/>
<path d="M189.007 61.0678C189.193 61.1748 189.375 61.119 189.556 61.0957C192.517 60.6815 194.756 62.264 195.319 65.1778C195.952 68.4406 193.229 71.8291 189.929 71.871C188.053 71.8943 186.652 71.0518 185.67 69.4832C185.572 69.325 185.498 69.1527 185.414 68.9898C185.349 68.8642 185.33 68.7059 185.111 68.6221C184.73 68.7757 184.739 69.2831 184.432 69.5251C184.362 69.5391 184.283 69.581 184.232 69.5577C183.459 69.2163 183.265 68.6733 183.65 67.9286C185.721 63.935 187.792 59.946 189.864 55.9571C189.933 55.8268 189.999 55.6918 190.073 55.5661C190.203 55.352 190.259 55.0122 190.594 55.082C190.953 55.1565 191.311 55.3148 191.553 55.608C191.73 55.8221 191.507 56.0223 191.414 56.2084C190.753 57.4978 190.073 58.7778 189.417 60.0717C189.254 60.3929 188.984 60.6815 189.002 61.0771L189.007 61.0678ZM193.88 66.1226C193.904 63.2461 191.204 61.5844 188.705 62.9389C187.099 63.8093 186.149 65.9039 186.559 67.6819C187.057 69.8416 189.123 70.9354 191.195 70.1255C192.773 69.5111 193.866 67.8774 193.88 66.118V66.1226Z" fill="#D28C1D"/>
<path d="M242.874 121.274C244.308 120.627 244.862 119.492 244.741 118.081C244.606 116.48 243.917 115.116 242.372 114.432C241.268 113.943 240.081 114.078 239.746 115.684C239.546 116.629 239.486 117.597 239.458 118.565C239.425 119.827 239.476 121.093 239.234 122.345C238.653 125.37 236.228 126.376 233.668 124.64C231.419 123.118 230.321 119.734 231.256 117.192C231.615 116.215 232.211 115.428 233.183 114.986C233.412 114.884 233.728 114.739 233.84 115.098C233.956 115.475 234.482 115.931 233.919 116.266C232.453 117.132 232.262 118.472 232.49 119.943C232.755 121.647 233.551 123.052 235.176 123.806C236.358 124.356 237.303 123.848 237.633 122.578C237.81 121.893 237.88 121.191 237.903 120.478C237.945 119.175 238.015 117.877 238.075 116.578C238.103 115.94 238.252 115.326 238.485 114.735C239.113 113.152 240.505 112.417 242.157 112.798C245.602 113.585 247.412 118.216 245.406 121.139C245.22 121.414 244.992 121.67 244.741 121.884C243.614 122.834 243.34 122.75 242.879 121.279L242.874 121.274Z" fill="#D28C1D"/>
<path d="M141.345 53.9605C141.345 56.1062 141.345 58.1123 141.345 60.1184C141.345 60.9376 141.335 60.9376 140.572 60.9563C139.883 60.9702 139.86 60.9702 139.85 60.1976C139.795 56.6648 139.753 53.1366 139.702 49.6038C139.688 48.4867 139.669 47.3743 139.627 46.2619C139.608 45.8057 139.739 45.5683 140.237 45.5683C142.541 45.5544 144.849 45.4287 147.153 45.5171C149.304 45.6009 151.087 47.4395 151.194 49.4363C151.305 51.5075 149.807 53.3368 147.633 53.7789C146.306 54.0489 144.961 53.9093 143.63 53.9558C142.89 53.9837 142.15 53.9605 141.354 53.9605H141.345ZM144.165 52.5083V52.4012C145.096 52.4012 146.032 52.4617 146.953 52.3872C148.382 52.2755 149.532 51.2189 149.667 49.9995C149.807 48.766 149.053 47.5931 147.8 47.1509C147.456 47.0299 147.074 46.9554 146.707 46.9554C145.031 46.9554 143.36 47.0066 141.684 47.0159C141.238 47.0159 141.121 47.2114 141.126 47.6256C141.154 49.0406 141.168 50.4556 141.168 51.8659C141.168 52.3314 141.321 52.5362 141.819 52.5129C142.601 52.4757 143.383 52.5036 144.165 52.5036V52.5083Z" fill="#D28C1D"/>
<path d="M244.638 133.6C244.941 133.73 245.155 133.646 245.36 133.567C245.955 133.334 246.114 133.628 246.239 134.158C246.365 134.67 246.295 134.903 245.751 135.019C242.59 135.694 239.434 136.388 236.274 137.072C236.041 137.123 235.762 137.337 235.567 137.025C235.366 136.704 235.352 136.318 235.338 135.95C235.334 135.783 235.511 135.736 235.66 135.708C235.985 135.652 236.307 135.596 236.656 135.359C235.678 134.712 234.943 133.879 234.603 132.776C233.956 130.667 234.552 128.875 236.13 127.418C237.838 125.845 240.505 125.51 242.59 126.534C245.057 127.744 246.044 130.435 244.945 132.943C244.857 133.148 244.75 133.344 244.624 133.595L244.638 133.6ZM243.912 130.998C243.921 129.378 242.925 128.107 241.236 127.595C238.806 126.86 235.981 128.643 235.855 130.998C235.748 132.981 237.321 134.614 239.462 134.74C241.701 134.87 243.847 133.12 243.912 131.109C243.912 131.072 243.912 131.035 243.912 130.998Z" fill="#D28C1D"/>
<path d="M236.577 168.937C236.339 168.318 235.962 167.759 235.841 167.084C235.478 165.018 236.288 163.132 238.061 161.992C240.635 160.33 244.271 161.071 245.974 163.607C247.24 165.492 247.068 167.899 245.551 169.579C245.355 169.798 245.16 170.017 244.945 170.259C245.062 170.524 245.355 170.505 245.583 170.505C246.202 170.505 246.198 170.868 246.137 171.32C246.049 172.018 246.039 172.046 245.309 171.944C242.111 171.483 238.918 170.994 235.715 170.57C235.096 170.487 235.11 170.207 235.166 169.751C235.222 169.318 235.241 168.904 235.869 169.067C236.046 169.114 236.237 169.109 236.418 169.128C236.507 169.128 236.632 169.174 236.674 169.128C236.763 169.034 236.656 168.979 236.577 168.937ZM245.309 166.325C245.322 165.632 245.113 165.013 244.736 164.436C243.372 162.364 240.226 161.955 238.373 163.612C237.13 164.724 236.874 166.419 237.736 167.857C238.797 169.621 241.138 170.342 243.107 169.495C244.499 168.899 245.271 167.861 245.309 166.321V166.325Z" fill="#D28C1D"/>
<path d="M69.2364 100.878C68.7957 101.663 68.1301 101.89 67.2396 101.558C67.1977 102.126 67.3885 102.665 67.314 103.224C66.9463 105.984 64.7028 107.762 61.7844 107.581C59.1919 107.422 56.818 105.212 56.4829 102.642C56.2083 100.557 57.3394 98.5043 59.2524 97.6199C59.5549 97.4803 59.8714 97.3733 60.1833 97.2522C60.1042 96.9916 59.8761 96.9357 59.6992 96.8147C59.0243 96.3539 59.029 96.3167 59.5084 95.6138C59.7039 95.3253 59.8761 95.1763 60.2252 95.3858C63.2041 97.2057 66.183 99.021 69.2317 100.883L69.2364 100.878ZM62.2825 106.091C64.9914 106.091 66.5972 103.596 65.4615 101.134C64.754 99.5981 63.0691 98.5788 61.3236 98.63C58.8893 98.6998 57.358 100.929 58.1679 103.233C58.7636 104.928 60.4346 106.091 62.2778 106.091H62.2825Z" fill="#D28C1D"/>
<path d="M104.792 64.8613C105.77 66.2064 106.878 66.9325 108.404 66.7603C109.815 66.6021 110.797 65.8108 111.397 64.5448C111.886 63.5161 111.877 63.5114 113.064 63.9443C112.5 67.775 108.074 69.5577 104.941 67.2211C103.089 65.8387 102.191 63.2741 102.796 61.0492C103.322 59.1222 104.541 57.8562 106.505 57.4419C108.46 57.023 110.094 57.7305 111.43 59.1501C112.049 59.8064 112.431 60.6024 112.733 61.5333C110.108 62.6317 107.515 63.7209 104.788 64.8613H104.792ZM110.713 60.7699C109.843 59.1548 108.046 58.4287 106.431 58.9872C104.876 59.5225 103.82 61.2912 104.085 62.8877C104.159 63.3485 104.369 63.437 104.778 63.2554C105.323 63.0134 105.877 62.7946 106.422 62.5666C107.85 61.9708 109.279 61.3704 110.718 60.7699H110.713Z" fill="#D28C1D"/>
<path d="M203.748 75.8086C202.868 75.2128 201.984 74.6124 201.1 74.0073C199.843 73.1462 198.595 72.2758 197.334 71.424C196.696 70.9912 196.585 71.047 196.385 71.801C195.756 74.1888 197.399 76.3532 199.876 76.3811C200.206 76.3811 200.541 76.3392 200.872 76.2927C201.533 76.2042 201.951 76.572 201.933 77.2329C201.924 77.596 201.644 77.6006 201.402 77.6797C198.786 78.5269 195.775 76.949 194.998 74.3192C193.974 70.8469 196.622 67.1279 200.243 66.951C203.487 66.7928 205.954 69.9578 205.149 73.2393C204.907 74.2214 204.549 74.887 203.748 75.804V75.8086ZM197.595 69.7903C199.41 71.0377 201.211 72.2805 203.022 73.5139C203.483 73.8304 203.585 73.4581 203.692 73.1229C204.218 71.5218 203.525 69.7018 202.072 68.878C200.611 68.0495 198.865 68.38 197.595 69.7856V69.7903Z" fill="#D28C1D"/>
<path d="M93.7472 76.3765C93.108 77.0157 92.4284 77.0157 91.7085 76.3765C91.5223 76.4323 91.5596 76.6045 91.5363 76.7349C91.0848 79.1878 88.1943 81.543 84.601 80.021C82.3389 79.0621 80.8681 76.4556 81.1846 74.0492C81.5058 71.6195 83.1349 70.0091 85.5645 69.7344C85.8903 69.6972 86.2208 69.6879 86.528 69.6646C86.6723 69.4272 86.528 69.2923 86.4396 69.1433C86.0486 68.5103 86.1882 68.1146 86.8911 67.8261C87.0959 67.7423 87.2448 67.7749 87.3798 67.9331C87.4729 68.0495 87.566 68.1658 87.6544 68.2822C89.6885 70.9818 91.7225 73.6815 93.7519 76.3765H93.7472ZM90.1911 75.4223C90.1772 73.5512 88.7715 71.8104 86.8678 71.303C85.1689 70.8515 83.4281 71.7592 82.837 73.4115C82.1109 75.4362 83.2559 77.852 85.3504 78.713C87.7987 79.7184 90.2144 78.08 90.1911 75.4269V75.4223Z" fill="#D28C1D"/>
<path d="M235.385 186.015C233.947 185.768 232.634 186.001 231.675 187.192C230.707 188.398 230.628 189.766 231.205 191.186C231.508 191.931 231.485 191.926 230.865 192.312C230.461 192.564 230.237 192.517 229.986 192.089C228.864 190.153 229.241 187.364 230.926 185.833C232.522 184.386 234.394 184.046 236.423 184.73C238.527 185.437 239.905 186.885 240.3 189.077C240.784 191.744 238.946 194.207 236.241 194.672C235.078 194.872 233.961 194.705 232.858 194.276C232.313 194.067 232.322 193.82 232.513 193.369C233.398 191.284 234.263 189.194 235.12 187.094C235.255 186.764 235.52 186.452 235.38 186.015H235.385ZM236.926 186.624C236.004 188.868 235.124 191.004 234.235 193.164C236.246 193.578 237.903 192.801 238.601 191.204C239.323 189.557 238.736 187.862 236.926 186.624Z" fill="#D28C1D"/>
<path d="M55.6637 119.441C58.4378 122.07 58.2423 126.823 55.2588 129.21C51.0231 132.594 44.1344 130.481 42.5705 125.287C41.4162 121.451 44.1065 118.179 46.8294 117.234C47.0901 117.141 47.4485 116.936 47.6626 117.202C47.886 117.481 47.9511 117.886 47.9232 118.258C47.8953 118.612 47.5369 118.556 47.3181 118.64C45.3818 119.38 44.2182 120.762 43.8598 122.801C43.5805 124.379 44.1437 125.738 45.1212 126.93C47.0202 129.243 50.5298 130.002 53.2387 128.731C56.7436 127.088 56.6179 123.22 55.2495 121.144C54.8244 120.499 54.9624 119.929 55.6637 119.436V119.441Z" fill="#D28C1D"/>
<path d="M214.57 85.7786C213.057 87.5706 213.341 90.5775 216.246 91.6108C216.674 91.7644 217.125 91.7923 217.567 91.7644C218.27 91.7225 218.186 92.2066 218.238 92.6534C218.294 93.1747 218.038 93.2818 217.591 93.2864C215.515 93.3004 213.895 92.4393 212.857 90.6613C211.833 88.9065 211.968 87.0866 212.992 85.3597C214.249 83.2466 216.571 82.1946 218.992 82.567C221.542 82.958 223.344 85.6669 222.818 88.334C222.571 89.5768 221.98 90.6287 221.04 91.4851C220.407 92.0623 220.397 92.0762 219.834 91.4479C218.387 89.8467 216.958 88.2316 215.51 86.6304C215.245 86.3372 215.04 85.9648 214.565 85.7786H214.57ZM220.546 89.8095C221.733 88.3898 221.738 86.3698 220.56 85.0618C219.345 83.7167 217.405 83.5491 215.803 84.6941C217.242 86.3 218.671 87.8965 220.104 89.4976C220.23 89.6373 220.351 89.7769 220.551 89.8048L220.546 89.8095Z" fill="#D28C1D"/>
<path d="M60.1972 117.816C60.1414 117.974 60.0948 118.147 60.0203 118.314C59.6759 119.087 59.6666 119.096 58.88 118.747C55.0121 117.02 51.1441 115.289 47.2809 113.557C46.471 113.194 46.457 113.073 46.8294 112.324C47.0388 111.905 47.2902 111.923 47.6346 112.077C48.7517 112.58 49.8688 113.078 50.9673 113.567C51.2046 113.334 51.0883 113.106 51.0557 112.901C50.5623 109.75 53.625 107.064 56.9204 108.209C58.9498 108.917 60.8768 109.908 62.855 110.764C63.3856 110.993 63.1854 111.318 63.0272 111.667C62.8689 112.017 62.7712 112.352 62.2313 112.1C60.5463 111.323 58.8381 110.588 57.1345 109.843C56.4457 109.54 55.7428 109.35 54.9702 109.489C53.7553 109.708 52.9268 110.35 52.601 111.556C52.2705 112.766 52.7174 113.743 53.5738 114.567C53.895 114.879 54.3046 115.07 54.7188 115.251C56.2455 115.931 57.7675 116.62 59.2942 117.313C59.5968 117.448 59.9273 117.532 60.2019 117.816H60.1972Z" fill="#D28C1D"/>
<path d="M167.089 56.4645C167.112 58.3403 166.521 59.8251 165.25 61.0027C162.895 63.1904 159.325 62.6737 157.668 59.9229C156.225 57.5304 156.802 54.1978 158.995 52.4523C160.517 51.2421 162.211 50.9256 164.017 51.7169C165.8 52.4989 166.754 53.9371 167.052 55.8315C167.094 56.0875 167.08 56.3528 167.084 56.4645H167.089ZM161.904 52.8107C161.545 52.7968 161.052 52.9364 160.582 53.1784C158.175 54.4165 157.58 57.9261 159.483 59.853C160.447 60.8305 161.624 61.147 162.956 60.6769C165.288 59.8577 166.358 56.93 165.143 54.6632C164.492 53.4531 163.482 52.7968 161.904 52.8061V52.8107Z" fill="#D28C1D"/>
<path d="M236.106 140.996C236.074 140.777 236.027 140.563 236.009 140.344C235.934 139.622 235.944 139.604 236.674 139.539C239.821 139.245 242.967 138.962 246.118 138.678C246.5 138.645 246.956 138.463 247.021 139.143C247.091 139.888 247.054 139.99 246.323 140.181C246.235 140.204 246.184 140.228 246.188 140.437C246.63 140.949 247.068 141.582 247.245 142.359C247.822 144.854 246.258 147.307 243.707 147.777C242.469 148.005 241.199 148.07 239.942 148.196C239.053 148.285 238.159 148.331 237.275 148.447C236.702 148.522 236.716 148.145 236.646 147.782C236.563 147.358 236.6 147.037 237.121 146.986C238.122 146.888 239.118 146.781 240.119 146.683C241.045 146.595 241.971 146.511 242.897 146.432C243.423 146.386 243.917 146.227 244.368 145.957C245.49 145.296 246.081 144.105 245.862 142.96C245.625 141.736 244.634 140.781 243.358 140.586C242.316 140.428 241.282 140.637 240.249 140.721C238.988 140.819 237.731 140.949 236.474 141.061C236.367 141.07 236.26 141.028 236.116 141.005L236.106 140.996Z" fill="#D28C1D"/>
<path d="M69.5575 97.5223C68.7895 97.5317 68.0588 97.3548 67.4583 96.894C65.6849 95.5349 63.9395 94.1478 62.1894 92.7607C62.0311 92.6351 61.7519 92.4861 61.9241 92.2301C62.1475 91.8997 62.3058 91.4761 62.7293 91.3551C62.9527 91.2946 63.097 91.5645 63.2692 91.6995C64.754 92.8771 66.2575 94.0361 67.7143 95.2509C68.7151 96.0841 69.7903 96.2703 70.9213 95.7071C72.1082 95.1159 72.7412 94.0966 72.7645 92.7421C72.7785 91.8531 72.3735 91.1782 71.6893 90.6429C70.3162 89.5631 68.9431 88.4739 67.5747 87.3894C67.3699 87.2265 67.1791 87.0496 66.965 86.9053C66.5367 86.6167 66.4902 86.3468 66.8532 85.9279C67.3885 85.3135 67.3606 85.2855 67.961 85.765C69.4738 86.9705 70.9911 88.1714 72.4946 89.3862C74.1283 90.7034 74.6682 92.5001 73.9933 94.3479C73.3091 96.2237 71.5031 97.5177 69.5575 97.5177V97.5223Z" fill="#D28C1D"/>
<path d="M69.7018 76.5532C70.0695 76.8418 70.3814 77.1025 70.6048 77.4469C70.6467 77.6796 70.4605 77.7727 70.3534 77.9077C69.4551 79.0062 69.5203 80.3048 70.4931 81.3195C70.7584 81.5941 70.9306 81.4917 71.1354 81.2776C71.5729 80.8214 72.0337 80.3886 72.4433 79.9045C72.8762 79.3925 73.1276 79.7742 73.4301 80.0348C73.728 80.3001 73.9654 80.5329 73.5465 80.9285C72.9786 81.4638 72.4666 82.0549 71.8289 82.7251C74.1143 84.9035 76.3857 87.0632 78.6246 89.195C78.6106 89.3393 78.6246 89.423 78.592 89.4696C78.0552 90.1181 77.4811 90.1538 76.8698 89.5766C74.8777 87.6822 72.8809 85.7925 70.8934 83.9027C70.2929 84.0889 70.1161 84.7406 69.5249 84.978C69.227 84.694 68.9152 84.3961 68.6266 84.1215C68.6732 83.9865 68.6825 83.9167 68.7197 83.8609C68.9757 83.4559 69.5575 83.2325 69.5901 82.7484C69.6227 82.3155 69.134 82.0177 68.9059 81.6453C67.719 79.7137 67.9517 78.0659 69.7065 76.5532H69.7018Z" fill="#D28C1D"/>
<path d="M75.7807 76.6977C76.6045 76.1066 77.1724 75.3432 77.9962 74.8266C78.1731 74.9895 78.3221 75.1477 78.4896 75.2827C78.969 75.6691 78.8759 75.9809 78.4384 76.3486C77.8752 76.8234 77.3586 77.354 76.7721 77.9079C77.7449 78.9738 78.6665 79.9885 79.5881 80.9938C80.6447 82.1482 81.7106 83.2885 82.7578 84.4475C83.2186 84.9595 83.1814 84.9549 82.6508 85.4994C82.2738 85.8811 82.0364 85.8811 81.6687 85.4715C79.9744 83.5911 78.2522 81.7339 76.544 79.8721C76.3671 79.6813 76.1717 79.5044 76.0181 79.2949C75.7341 78.9272 75.4781 78.9924 75.2082 79.2996C75.1337 79.3834 75.0453 79.4532 74.9615 79.5277C74.4169 79.9931 73.8165 79.8256 73.5279 79.146C73.4069 78.8574 73.6303 78.7504 73.7746 78.5968C74.2928 78.0475 74.3595 77.4269 73.9747 76.7349C72.9274 74.8498 73.1602 73.1137 74.5938 71.8849C74.9242 71.601 75.1616 71.5684 75.4037 71.9314C75.5945 72.2247 76.1484 72.369 75.7015 72.9136C74.5146 74.3518 74.5426 75.0174 75.7807 76.6884V76.6977Z" fill="#D28C1D"/>
<path d="M236.544 159.991C236.46 159.409 236.502 158.822 236.642 158.241C237.07 156.49 238.024 155.722 239.83 155.774C241.617 155.82 243.4 155.941 245.183 156.011C246.202 156.053 246.249 156.183 246.319 155.062C246.365 154.308 246.621 154.159 247.394 154.326C247.659 154.387 247.785 154.517 247.78 154.773C247.78 154.996 247.771 155.22 247.743 155.439C247.673 155.904 247.85 156.141 248.334 156.155C248.855 156.169 249.377 156.244 249.893 156.23C250.503 156.211 250.415 156.612 250.405 156.975C250.396 157.342 250.447 157.761 249.856 157.719C249.297 157.677 248.739 157.663 248.185 157.608C247.789 157.57 247.664 157.743 247.645 158.11C247.622 158.743 247.533 159.372 247.524 160.005C247.519 160.503 247.315 160.675 246.84 160.586C246.463 160.521 245.983 160.647 246.067 159.958C246.142 159.334 246.104 158.692 246.146 158.064C246.17 157.682 246.007 157.533 245.639 157.514C243.633 157.412 241.627 157.277 239.621 157.207C238.881 157.184 238.378 157.636 238.145 158.357C238.075 158.566 238.057 158.794 238.02 159.013C237.895 159.814 237.402 160.138 236.539 159.986L236.544 159.991Z" fill="#D28C1D"/>
<path d="M242.344 181.364C242.925 182.7 242.87 184.004 242.474 185.321C242.334 185.782 242.106 185.903 241.669 185.74C241.287 185.6 240.896 185.577 241.008 184.953C241.562 181.9 240.859 180.778 237.884 179.861C236.502 179.433 235.12 179.019 233.737 178.59C233.002 178.362 233.007 178.348 233.207 177.687C233.411 177.003 233.449 176.966 234.124 177.171C237.177 178.088 240.23 179.009 243.279 179.94C243.945 180.145 244.112 180.857 243.633 181.374C243.517 181.499 243.377 181.495 243.228 181.476C242.977 181.444 242.762 181.239 242.348 181.369L242.344 181.364Z" fill="#D28C1D"/>
<path d="M202.333 80.8496C204.572 78.1872 206.778 75.576 208.961 72.9508C209.292 72.5552 209.529 72.4481 209.939 72.8438C210.283 73.1789 210.641 73.4349 210.129 73.905C209.999 74.0214 209.85 74.1564 209.892 74.4636C211.261 74.431 212.433 74.9709 213.49 75.832C213.876 76.1485 214.044 76.3859 213.616 76.7955C213.304 77.0934 213.085 77.6054 212.587 77.0282C212.517 76.9444 212.419 76.8839 212.331 76.8188C210.614 75.5574 208.798 75.697 207.337 77.2656C206.452 78.2151 205.647 79.2391 204.805 80.2352C204.614 80.4633 204.423 80.6913 204.232 80.9194C203.683 81.5742 203.051 81.554 202.338 80.8589L202.333 80.8496Z" fill="#D28C1D"/>
<path d="M155.871 46.5735C155.541 50.1575 155.206 53.7369 154.875 57.3209C154.768 58.4659 154.619 59.6063 154.559 60.7559C154.526 61.389 154.182 61.3471 153.744 61.3238C153.26 61.3005 153.004 61.1888 153.06 60.6023C153.465 56.5063 153.842 52.4057 154.228 48.3097C154.298 47.5696 154.387 46.8342 154.419 46.0941C154.447 45.517 154.75 45.4658 155.224 45.4937C155.741 45.5263 155.983 45.7078 155.89 46.2431C155.871 46.3501 155.876 46.4665 155.871 46.5782V46.5735Z" fill="#D28C1D"/>
<path d="M234.422 173.033C237.424 173.736 240.337 174.424 243.256 175.109C243.726 175.22 244.187 175.374 244.662 175.444C245.285 175.537 245.08 175.937 245.006 176.277C244.931 176.612 244.959 177.059 244.35 176.901C243.274 176.617 242.19 176.389 241.105 176.133C239.053 175.649 236.996 175.169 234.943 174.671C234.063 174.462 234.068 174.448 234.268 173.596C234.301 173.456 234.342 173.317 234.422 173.033Z" fill="#D28C1D"/>
<path d="M216.511 78.6059C214.002 81.245 211.619 83.7306 209.264 86.2487C208.84 86.7002 208.607 86.4954 208.282 86.1789C207.96 85.867 207.742 85.6436 208.17 85.1967C210.39 82.9067 212.573 80.5841 214.775 78.2801C215.38 77.6471 215.389 77.661 216.055 78.2801C216.162 78.3825 216.297 78.4523 216.506 78.6013L216.511 78.6059Z" fill="#D28C1D"/>
<path d="M242.209 152.585C240.645 152.585 239.085 152.585 237.521 152.585C236.823 152.585 236.446 151.971 236.758 151.324C236.907 151.017 237.205 151.114 237.442 151.11C239.448 151.059 241.459 151.021 243.47 150.984C244.662 150.961 245.853 150.938 247.04 150.928C247.277 150.928 247.617 150.812 247.701 151.161C247.785 151.519 247.873 151.906 247.724 152.259C247.617 152.506 247.338 152.427 247.124 152.427C245.485 152.427 243.847 152.427 242.213 152.427C242.213 152.478 242.213 152.529 242.213 152.581L242.209 152.585Z" fill="#D28C1D"/>
<path d="M125.766 52.6431C126.799 52.6431 127.684 53.5088 127.702 54.5328C127.725 55.6034 126.827 56.4691 125.705 56.4458C124.625 56.4272 123.825 55.6034 123.839 54.5328C123.857 53.4855 124.709 52.6431 125.761 52.6431H125.766Z" fill="#D28C1D"/>
<path d="M231.28 104.001C230.214 103.987 229.385 103.163 229.376 102.107C229.362 100.971 230.205 100.152 231.34 100.185C232.411 100.217 233.207 101.055 233.188 102.125C233.169 103.21 232.346 104.02 231.28 104.006V104.001Z" fill="#D28C1D"/>
<path d="M248.948 151.631C248.948 150.915 248.967 150.896 249.698 150.896C250.391 150.896 250.419 150.919 250.405 151.669C250.396 152.381 250.331 152.437 249.53 152.423C248.972 152.409 248.944 152.376 248.944 151.636L248.948 151.631Z" fill="#D28C1D"/>
<path d="M246.067 176.803C246.239 176.482 246.011 175.774 246.737 175.96C247.068 176.044 247.738 175.853 247.65 176.607C247.557 177.371 247.384 177.603 246.905 177.501C246.537 177.422 245.923 177.566 246.067 176.803Z" fill="#D28C1D"/>
<path d="M217.2 75.8457C218.298 76.6463 218.321 76.6928 217.889 77.1769C217.297 77.8425 217.218 77.8425 216.604 77.2141C216.134 76.7301 216.143 76.7021 217.2 75.8457Z" fill="#D28C1D"/>
<path d="M116.28 51.1629C116.219 51.242 116.154 51.242 116.084 51.1722C116.024 50.595 116.35 50.1575 116.675 49.7153C116.545 50.1994 116.41 50.6788 116.28 51.1629Z" fill="#D28C1D"/>
<path d="M144.98 113.664C144.901 113.739 144.826 113.813 144.747 113.883C144.589 113.711 144.412 113.548 144.417 113.278C144.687 113.296 144.854 113.455 144.98 113.664Z" fill="#D28C1D"/>
<path d="M130.216 89.5815C130.262 89.4651 130.309 89.3441 130.36 89.2324C130.411 89.3255 130.462 89.4186 130.509 89.5117C130.569 89.6374 130.69 89.8422 130.565 89.8887C130.383 89.9585 130.262 89.7723 130.22 89.5862L130.216 89.5815Z" fill="#D28C1D"/>
<path d="M212.857 118.97C212.838 118.933 212.81 118.896 212.801 118.854C212.801 118.835 212.829 118.812 212.848 118.794C213.029 118.719 213.197 118.761 213.36 118.835C213.239 119.05 213.052 119.036 212.857 118.975V118.97Z" fill="#D28C1D"/>
<path d="M197.595 124.369C197.576 124.314 197.548 124.262 197.539 124.202C197.534 124.174 197.553 124.141 197.567 124.113C197.641 124.044 197.711 123.964 197.823 124.053L197.879 124.095C197.855 124.262 197.762 124.351 197.595 124.369Z" fill="#D28C1D"/>
<path d="M91.0755 208.505C91.0615 208.692 91.1034 208.892 90.9591 209.055C90.9172 209.017 90.8707 208.975 90.8288 208.934C90.8707 208.766 90.7636 208.505 91.0941 208.524L91.0755 208.505Z" fill="#D28C1D"/>
<path d="M197.823 124.053C197.86 124.002 197.897 123.955 197.939 123.904L198.051 124.007C197.995 124.039 197.939 124.067 197.883 124.1L197.827 124.058L197.823 124.053Z" fill="#D28C1D"/>
<path d="M137.1 18.6787C137.142 18.837 137.053 18.9068 136.918 18.9394C136.872 18.8929 136.825 18.8463 136.778 18.7951C136.872 18.6974 136.974 18.6182 137.123 18.6974L137.104 18.6787H137.1Z" fill="#D28C1D"/>
<path d="M137.118 18.6973C137.137 18.6415 137.151 18.5856 137.169 18.5298C137.207 18.5577 137.239 18.5856 137.277 18.6136C137.216 18.6322 137.16 18.6555 137.1 18.6741L137.118 18.6927V18.6973Z" fill="#D28C1D"/>
<path d="M179.614 109.335C179.624 108.316 179.898 107.329 179.768 106.184C180.205 106.794 180.191 107.008 179.614 109.335Z" fill="#D28C1D"/>
<path d="M180.322 104.695C180.559 105.09 180.294 105.388 180.173 105.742C180.055 105.323 180.105 104.974 180.322 104.695Z" fill="#D28C1D"/>
</svg>
