<svg width="256" height="256" viewBox="0 0 256 256" fill="none" xmlns="http://www.w3.org/2000/svg">
<g clip-path="url(#clip0_663_21023)">
<path d="M89.3981 154.811C89.0631 154.811 88.7538 154.747 88.4789 154.614C88.204 154.481 87.9678 154.3 87.7702 154.064C87.5769 153.832 87.4266 153.553 87.3192 153.239C87.2118 152.921 87.1603 152.578 87.1603 152.213V152.2C87.1603 151.835 87.2161 151.491 87.3235 151.173C87.4309 150.855 87.5855 150.58 87.7831 150.344C87.9807 150.108 88.2169 149.923 88.4961 149.786C88.771 149.653 89.0803 149.584 89.4153 149.584C89.7503 149.584 90.051 149.653 90.3302 149.782C90.6094 149.915 90.8414 150.095 91.0389 150.331C91.2322 150.563 91.3869 150.843 91.4942 151.16C91.6016 151.478 91.6575 151.822 91.6575 152.187V152.2C91.6575 152.565 91.6016 152.909 91.4942 153.226C91.3869 153.544 91.2322 153.819 91.0346 154.055C90.8371 154.292 90.6008 154.476 90.3216 154.609C90.0467 154.743 89.7375 154.811 89.4024 154.811M89.411 153.806C89.5785 153.806 89.7332 153.768 89.8663 153.686C89.9995 153.604 90.1154 153.497 90.2142 153.355C90.313 153.214 90.386 153.046 90.4333 152.848C90.4805 152.651 90.5106 152.44 90.5106 152.208V152.196C90.5106 151.964 90.4848 151.753 90.429 151.556C90.3775 151.362 90.3001 151.19 90.2014 151.044C90.1026 150.898 89.9866 150.787 89.8491 150.705C89.7117 150.623 89.5614 150.585 89.3981 150.585C89.2349 150.585 89.0803 150.623 88.9428 150.705C88.8097 150.787 88.6937 150.894 88.5992 151.036C88.5047 151.178 88.4317 151.345 88.3801 151.543C88.3286 151.736 88.3028 151.951 88.3028 152.183V152.196C88.3028 152.427 88.3286 152.638 88.3801 152.84C88.4317 153.037 88.509 153.205 88.6035 153.351C88.698 153.493 88.8183 153.604 88.9557 153.686C89.0932 153.768 89.2435 153.811 89.4153 153.811L89.411 153.806Z" fill="#E42313"/>
<path d="M94.2432 154.811C93.8352 154.811 93.4787 154.742 93.1737 154.609C92.8687 154.476 92.5981 154.291 92.349 154.055L93.0191 153.256C93.2124 153.428 93.4056 153.565 93.5946 153.66C93.7879 153.754 93.9984 153.806 94.2218 153.806C94.4838 153.806 94.6856 153.746 94.8403 153.626C94.9906 153.505 95.0679 153.329 95.0679 153.101V153.089C95.0679 152.87 94.9863 152.702 94.8188 152.582C94.6513 152.461 94.4365 152.401 94.1745 152.401C94.0156 152.401 93.8652 152.419 93.7235 152.457C93.5817 152.492 93.4486 152.539 93.3283 152.59L92.684 152.165L92.8301 149.674H95.9399V150.649H93.7836L93.7278 151.529C93.8309 151.504 93.9297 151.486 94.0328 151.469C94.1315 151.452 94.2561 151.443 94.3936 151.443C94.6384 151.443 94.8703 151.474 95.0851 151.538C95.2999 151.598 95.4889 151.697 95.6521 151.826C95.8153 151.955 95.9442 152.122 96.0344 152.328C96.1246 152.534 96.1718 152.775 96.1718 153.059V153.071C96.1718 153.342 96.1246 153.583 96.0344 153.797C95.9442 154.012 95.811 154.192 95.6435 154.343C95.476 154.493 95.2741 154.609 95.0336 154.691C94.793 154.772 94.531 154.815 94.2432 154.815" fill="#E42313"/>
<path d="M100.957 154.811C100.549 154.811 100.192 154.742 99.8873 154.609C99.5823 154.476 99.3117 154.291 99.0626 154.055L99.7326 153.256C99.9259 153.428 100.119 153.565 100.308 153.66C100.501 153.754 100.712 153.806 100.935 153.806C101.197 153.806 101.399 153.746 101.554 153.626C101.704 153.505 101.781 153.329 101.781 153.101V153.089C101.781 152.87 101.7 152.702 101.532 152.582C101.365 152.461 101.15 152.401 100.884 152.401C100.725 152.401 100.575 152.419 100.433 152.457C100.291 152.492 100.158 152.539 100.038 152.59L99.3933 152.165L99.5393 149.674H102.649V150.649H100.493L100.433 151.529C100.536 151.504 100.635 151.486 100.738 151.469C100.837 151.452 100.961 151.443 101.099 151.443C101.343 151.443 101.575 151.474 101.79 151.538C102.005 151.598 102.194 151.697 102.357 151.826C102.52 151.955 102.645 152.122 102.739 152.328C102.83 152.534 102.877 152.775 102.877 153.059V153.071C102.877 153.342 102.83 153.583 102.739 153.797C102.649 154.012 102.516 154.192 102.348 154.343C102.181 154.493 101.979 154.609 101.739 154.691C101.498 154.772 101.236 154.815 100.948 154.815" fill="#E42313"/>
<path d="M105.579 154.794C105.299 154.794 105.042 154.76 104.801 154.691C104.565 154.622 104.359 154.523 104.183 154.395C104.011 154.266 103.873 154.115 103.774 153.935C103.676 153.759 103.628 153.557 103.628 153.334V153.321C103.628 153.011 103.697 152.762 103.835 152.573C103.972 152.384 104.174 152.225 104.445 152.101C104.247 151.981 104.092 151.835 103.976 151.663C103.86 151.491 103.805 151.268 103.805 150.997V150.984C103.805 150.791 103.848 150.61 103.929 150.443C104.011 150.275 104.135 150.129 104.29 150C104.445 149.876 104.634 149.777 104.848 149.704C105.063 149.631 105.308 149.597 105.579 149.597C105.849 149.597 106.085 149.631 106.304 149.704C106.523 149.777 106.712 149.876 106.867 149.996C107.026 150.121 107.146 150.267 107.228 150.439C107.31 150.61 107.352 150.791 107.352 150.984V150.997C107.352 151.272 107.297 151.495 107.176 151.663C107.06 151.835 106.906 151.981 106.708 152.101C106.962 152.234 107.163 152.393 107.305 152.573C107.451 152.754 107.52 152.994 107.52 153.291V153.304C107.52 153.54 107.468 153.75 107.37 153.931C107.271 154.115 107.133 154.27 106.962 154.395C106.79 154.523 106.584 154.622 106.343 154.687C106.107 154.755 105.845 154.79 105.566 154.79M105.579 151.736C105.802 151.736 105.974 151.68 106.107 151.564C106.236 151.448 106.3 151.302 106.3 151.122V151.109C106.3 150.954 106.236 150.817 106.111 150.696C105.987 150.576 105.806 150.516 105.574 150.516C105.342 150.516 105.166 150.576 105.042 150.692C104.917 150.808 104.853 150.945 104.853 151.1V151.113C104.853 151.289 104.917 151.439 105.046 151.555C105.175 151.676 105.351 151.731 105.574 151.731L105.579 151.736ZM105.579 153.879C105.853 153.879 106.068 153.819 106.223 153.699C106.377 153.578 106.455 153.428 106.455 153.252V153.239C106.455 153.042 106.373 152.887 106.21 152.78C106.047 152.672 105.836 152.616 105.583 152.616C105.329 152.616 105.119 152.672 104.956 152.78C104.792 152.887 104.711 153.042 104.711 153.239V153.252C104.711 153.424 104.788 153.574 104.943 153.694C105.097 153.815 105.312 153.879 105.587 153.879H105.579Z" fill="#E42313"/>
<path d="M112.292 154.794C112.013 154.794 111.755 154.76 111.515 154.691C111.274 154.622 111.068 154.523 110.896 154.395C110.724 154.266 110.587 154.115 110.488 153.935C110.389 153.759 110.338 153.557 110.338 153.334V153.321C110.338 153.011 110.406 152.762 110.544 152.573C110.681 152.384 110.883 152.225 111.154 152.101C110.956 151.981 110.802 151.835 110.686 151.663C110.57 151.491 110.514 151.268 110.514 150.997V150.984C110.514 150.791 110.557 150.61 110.638 150.443C110.724 150.275 110.845 150.129 110.999 150C111.154 149.876 111.343 149.777 111.558 149.704C111.772 149.631 112.017 149.597 112.288 149.597C112.558 149.597 112.795 149.631 113.014 149.704C113.233 149.777 113.422 149.876 113.576 149.996C113.731 150.121 113.851 150.267 113.937 150.439C114.019 150.61 114.062 150.791 114.062 150.984V150.997C114.062 151.272 114.006 151.495 113.89 151.663C113.774 151.835 113.619 151.981 113.422 152.101C113.675 152.234 113.877 152.393 114.019 152.573C114.165 152.754 114.234 152.994 114.234 153.291V153.304C114.234 153.54 114.186 153.75 114.088 153.931C113.989 154.115 113.851 154.27 113.679 154.395C113.503 154.523 113.301 154.622 113.061 154.687C112.825 154.755 112.563 154.79 112.284 154.79M112.292 151.736C112.515 151.736 112.687 151.68 112.82 151.564C112.949 151.448 113.014 151.302 113.014 151.122V151.109C113.014 150.954 112.949 150.817 112.825 150.696C112.7 150.576 112.52 150.516 112.288 150.516C112.056 150.516 111.88 150.576 111.755 150.692C111.631 150.808 111.566 150.945 111.566 151.1V151.113C111.566 151.289 111.631 151.439 111.759 151.555C111.888 151.676 112.064 151.731 112.288 151.731L112.292 151.736ZM112.292 153.879C112.567 153.879 112.782 153.819 112.936 153.699C113.091 153.578 113.168 153.428 113.168 153.252V153.239C113.168 153.042 113.087 152.887 112.924 152.78C112.76 152.672 112.55 152.616 112.296 152.616C112.043 152.616 111.833 152.672 111.669 152.78C111.506 152.887 111.424 153.042 111.424 153.239V153.252C111.424 153.424 111.502 153.574 111.656 153.694C111.811 153.815 112.026 153.879 112.296 153.879H112.292Z" fill="#E42313"/>
<path d="M114.921 153.845L116.6 152.466C116.759 152.337 116.892 152.221 117.004 152.118C117.116 152.015 117.206 151.916 117.275 151.822C117.343 151.727 117.395 151.637 117.425 151.547C117.455 151.457 117.472 151.362 117.472 151.255C117.472 151.04 117.408 150.877 117.283 150.765C117.159 150.653 116.995 150.597 116.794 150.597C116.592 150.597 116.424 150.653 116.27 150.765C116.119 150.877 115.947 151.044 115.758 151.276L114.981 150.649C115.106 150.482 115.234 150.331 115.359 150.198C115.488 150.065 115.625 149.957 115.771 149.867C115.917 149.777 116.081 149.708 116.257 149.665C116.433 149.618 116.639 149.597 116.862 149.597C117.124 149.597 117.361 149.635 117.575 149.708C117.79 149.781 117.97 149.889 118.125 150.022C118.275 150.155 118.396 150.323 118.477 150.512C118.563 150.705 118.602 150.92 118.602 151.156V151.169C118.602 151.379 118.572 151.568 118.52 151.736C118.464 151.903 118.383 152.058 118.275 152.204C118.168 152.35 118.026 152.496 117.859 152.646C117.691 152.792 117.494 152.951 117.275 153.127L116.45 153.763H118.653V154.721H114.912V153.84" fill="#E42313"/>
<path d="M123.434 154.811C123.026 154.811 122.67 154.742 122.365 154.609C122.06 154.476 121.789 154.291 121.54 154.055L122.21 153.256C122.403 153.428 122.596 153.565 122.785 153.66C122.979 153.754 123.189 153.806 123.413 153.806C123.675 153.806 123.877 153.746 124.031 153.626C124.181 153.505 124.259 153.329 124.259 153.101V153.089C124.259 152.87 124.177 152.702 124.01 152.582C123.842 152.461 123.627 152.401 123.361 152.401C123.202 152.401 123.052 152.419 122.91 152.457C122.768 152.492 122.635 152.539 122.515 152.59L121.875 152.165L122.021 149.674H125.131V150.649H122.974L122.919 151.529C123.022 151.504 123.121 151.486 123.224 151.469C123.322 151.452 123.447 151.443 123.584 151.443C123.829 151.443 124.061 151.474 124.276 151.538C124.491 151.598 124.68 151.697 124.843 151.826C125.006 151.955 125.131 152.122 125.225 152.328C125.315 152.534 125.363 152.775 125.363 153.059V153.071C125.363 153.342 125.315 153.583 125.225 153.797C125.135 154.012 125.002 154.192 124.834 154.343C124.667 154.493 124.465 154.609 124.224 154.691C123.984 154.772 123.722 154.815 123.434 154.815" fill="#E42313"/>
<path d="M128.653 153.634H126.183L126.003 152.848L128.777 149.635H129.714V152.732H130.392V153.634H129.714V154.725H128.653V153.634ZM128.653 152.732V151.16L127.308 152.732H128.653Z" fill="#E42313"/>
<path d="M135.195 154.794C134.915 154.794 134.658 154.76 134.417 154.691C134.177 154.622 133.97 154.523 133.799 154.395C133.627 154.266 133.489 154.115 133.391 153.935C133.292 153.759 133.24 153.557 133.24 153.334V153.321C133.24 153.011 133.309 152.762 133.446 152.573C133.584 152.384 133.786 152.225 134.056 152.101C133.859 151.981 133.704 151.835 133.588 151.663C133.472 151.491 133.416 151.268 133.416 150.997V150.984C133.416 150.791 133.459 150.61 133.541 150.443C133.627 150.275 133.747 150.129 133.902 150C134.056 149.876 134.245 149.777 134.46 149.704C134.675 149.631 134.92 149.597 135.19 149.597C135.461 149.597 135.697 149.631 135.916 149.704C136.135 149.777 136.324 149.876 136.479 149.996C136.634 150.121 136.754 150.267 136.84 150.439C136.926 150.61 136.964 150.791 136.964 150.984V150.997C136.964 151.272 136.904 151.495 136.793 151.663C136.677 151.835 136.522 151.981 136.324 152.101C136.578 152.234 136.78 152.393 136.926 152.573C137.072 152.754 137.14 152.994 137.14 153.291V153.304C137.14 153.54 137.093 153.75 136.994 153.931C136.896 154.115 136.758 154.27 136.586 154.395C136.41 154.523 136.208 154.622 135.968 154.687C135.732 154.755 135.47 154.79 135.19 154.79M135.195 151.736C135.418 151.736 135.59 151.68 135.723 151.564C135.852 151.448 135.916 151.302 135.916 151.122V151.109C135.916 150.954 135.852 150.817 135.727 150.696C135.603 150.576 135.422 150.516 135.19 150.516C134.958 150.516 134.782 150.576 134.658 150.692C134.533 150.808 134.469 150.945 134.469 151.1V151.113C134.469 151.289 134.533 151.439 134.662 151.555C134.791 151.676 134.967 151.731 135.19 151.731L135.195 151.736ZM135.195 153.879C135.47 153.879 135.684 153.819 135.839 153.699C135.994 153.578 136.071 153.428 136.071 153.252V153.239C136.071 153.042 135.989 152.887 135.826 152.78C135.663 152.672 135.452 152.616 135.199 152.616C134.946 152.616 134.735 152.672 134.572 152.78C134.409 152.887 134.327 153.042 134.327 153.239V153.252C134.327 153.424 134.404 153.574 134.559 153.694C134.714 153.815 134.928 153.879 135.199 153.879H135.195Z" fill="#E42313"/>
<path d="M139.67 154.811C139.262 154.811 138.906 154.742 138.601 154.609C138.296 154.476 138.025 154.291 137.776 154.055L138.446 153.256C138.639 153.428 138.833 153.565 139.026 153.66C139.219 153.754 139.43 153.806 139.653 153.806C139.911 153.806 140.117 153.746 140.272 153.626C140.422 153.505 140.499 153.329 140.499 153.101V153.089C140.499 152.87 140.418 152.702 140.25 152.582C140.083 152.461 139.868 152.401 139.606 152.401C139.447 152.401 139.297 152.419 139.155 152.457C139.013 152.492 138.88 152.539 138.76 152.59L138.115 152.165L138.261 149.674H141.371V150.649H139.215L139.159 151.529C139.262 151.504 139.361 151.486 139.464 151.469C139.563 151.452 139.683 151.443 139.825 151.443C140.07 151.443 140.302 151.474 140.517 151.538C140.731 151.598 140.92 151.697 141.083 151.826C141.247 151.955 141.371 152.122 141.466 152.328C141.556 152.534 141.603 152.775 141.603 153.059V153.071C141.603 153.342 141.556 153.583 141.466 153.797C141.371 154.012 141.242 154.192 141.075 154.343C140.907 154.493 140.706 154.609 140.465 154.691C140.229 154.772 139.962 154.815 139.675 154.815" fill="#E42313"/>
<path d="M144.546 151.959H146.766V153.011H144.546V151.959Z" fill="#E42313"/>
<path d="M152.17 153.634H149.7L149.519 152.848L152.294 149.635H153.231V152.732H153.909V153.634H153.231V154.725H152.17V153.634ZM152.17 152.732V151.16L150.825 152.732H152.17Z" fill="#E42313"/>
<path d="M156.899 154.811C156.564 154.811 156.255 154.747 155.98 154.614C155.705 154.481 155.468 154.3 155.271 154.064C155.078 153.832 154.927 153.553 154.82 153.239C154.712 152.921 154.661 152.578 154.661 152.213V152.2C154.661 151.835 154.717 151.491 154.824 151.173C154.932 150.855 155.086 150.58 155.284 150.344C155.481 150.108 155.718 149.923 155.997 149.786C156.276 149.653 156.581 149.584 156.916 149.584C157.251 149.584 157.552 149.653 157.831 149.782C158.11 149.915 158.342 150.095 158.54 150.331C158.733 150.563 158.888 150.843 158.995 151.16C159.102 151.478 159.158 151.822 159.158 152.187V152.2C159.158 152.565 159.102 152.909 158.995 153.226C158.888 153.544 158.733 153.819 158.535 154.055C158.338 154.292 158.101 154.476 157.822 154.609C157.547 154.743 157.238 154.811 156.903 154.811M156.912 153.806C157.079 153.806 157.234 153.768 157.367 153.686C157.5 153.604 157.616 153.497 157.715 153.355C157.814 153.214 157.887 153.046 157.934 152.848C157.986 152.655 158.011 152.44 158.011 152.208V152.196C158.011 151.964 157.986 151.753 157.93 151.556C157.878 151.362 157.801 151.19 157.702 151.044C157.603 150.898 157.487 150.787 157.35 150.705C157.212 150.623 157.062 150.585 156.899 150.585C156.736 150.585 156.581 150.623 156.443 150.705C156.31 150.787 156.194 150.894 156.1 151.036C156.005 151.178 155.932 151.345 155.881 151.543C155.829 151.736 155.804 151.951 155.804 152.183V152.196C155.804 152.427 155.829 152.638 155.881 152.84C155.932 153.037 156.01 153.205 156.104 153.351C156.203 153.493 156.319 153.604 156.456 153.686C156.594 153.768 156.744 153.811 156.916 153.811L156.912 153.806Z" fill="#E42313"/>
<path d="M160.825 150.761L159.944 150.975L159.712 150.065L161.164 149.631H161.924V154.721H160.825V150.761Z" fill="#E42313"/>
<path d="M163.87 150.761L162.99 150.975L162.762 150.065L164.209 149.631H164.97V154.721H163.87V150.761Z" fill="#E42313"/>
<path d="M168.26 154.811C167.921 154.811 167.616 154.747 167.341 154.614C167.061 154.481 166.83 154.3 166.632 154.064C166.439 153.832 166.288 153.553 166.181 153.239C166.074 152.921 166.022 152.578 166.022 152.213V152.2C166.022 151.835 166.078 151.491 166.185 151.173C166.293 150.855 166.447 150.58 166.645 150.344C166.842 150.108 167.079 149.923 167.358 149.786C167.633 149.653 167.942 149.584 168.277 149.584C168.612 149.584 168.913 149.653 169.192 149.782C169.467 149.915 169.703 150.095 169.901 150.331C170.094 150.563 170.249 150.843 170.356 151.16C170.463 151.478 170.519 151.822 170.519 152.187V152.2C170.519 152.565 170.463 152.909 170.356 153.226C170.249 153.544 170.094 153.819 169.896 154.055C169.699 154.292 169.463 154.476 169.183 154.609C168.904 154.743 168.599 154.811 168.264 154.811M168.277 153.806C168.445 153.806 168.595 153.768 168.732 153.686C168.866 153.604 168.982 153.497 169.08 153.355C169.175 153.214 169.248 153.046 169.299 152.848C169.351 152.655 169.377 152.44 169.377 152.208V152.196C169.377 151.964 169.351 151.753 169.299 151.556C169.248 151.362 169.17 151.19 169.072 151.044C168.973 150.898 168.857 150.787 168.719 150.705C168.582 150.623 168.432 150.585 168.268 150.585C168.105 150.585 167.946 150.623 167.813 150.705C167.68 150.787 167.564 150.894 167.47 151.036C167.375 151.178 167.302 151.345 167.25 151.543C167.199 151.736 167.169 151.951 167.169 152.183V152.196C167.169 152.427 167.195 152.638 167.25 152.84C167.302 153.037 167.379 153.205 167.474 153.351C167.568 153.493 167.684 153.604 167.822 153.686C167.959 153.768 168.11 153.811 168.281 153.811L168.277 153.806Z" fill="#E42313"/>
<path d="M173.676 149.67H174.875L176.202 151.805L177.533 149.67H178.732V154.721H177.632V151.422L176.21 153.583H176.18L174.776 151.444V154.721H173.676V149.67Z" fill="#E42313"/>
<path d="M181.726 154.811C181.425 154.811 181.15 154.76 180.897 154.657C180.639 154.554 180.424 154.412 180.235 154.231C180.046 154.051 179.904 153.841 179.797 153.596C179.69 153.355 179.638 153.093 179.638 152.814V152.801C179.638 152.522 179.69 152.26 179.797 152.019C179.9 151.775 180.05 151.564 180.235 151.379C180.42 151.195 180.648 151.053 180.901 150.946C181.154 150.838 181.434 150.787 181.739 150.787C182.043 150.787 182.314 150.838 182.568 150.941C182.821 151.044 183.04 151.186 183.229 151.366C183.414 151.547 183.56 151.757 183.667 152.002C183.77 152.247 183.826 152.505 183.826 152.784V152.797C183.826 153.076 183.775 153.338 183.667 153.579C183.56 153.823 183.414 154.034 183.225 154.219C183.036 154.403 182.812 154.545 182.559 154.652C182.301 154.76 182.026 154.811 181.721 154.811M181.743 153.866C181.902 153.866 182.043 153.836 182.164 153.785C182.288 153.729 182.391 153.656 182.477 153.557C182.563 153.458 182.632 153.351 182.675 153.222C182.722 153.093 182.744 152.96 182.744 152.814V152.801C182.744 152.655 182.718 152.522 182.671 152.393C182.623 152.264 182.555 152.153 182.464 152.054C182.374 151.955 182.263 151.878 182.138 151.817C182.013 151.757 181.876 151.732 181.726 151.732C181.567 151.732 181.425 151.757 181.305 151.813C181.18 151.869 181.077 151.946 180.991 152.041C180.905 152.135 180.841 152.251 180.794 152.376C180.746 152.505 180.725 152.638 180.725 152.784V152.797C180.725 152.943 180.751 153.076 180.798 153.205C180.845 153.334 180.914 153.445 181.004 153.544C181.099 153.643 181.206 153.72 181.326 153.78C181.451 153.836 181.588 153.866 181.743 153.866Z" fill="#E42313"/>
<path d="M184.621 150.851H185.716V151.633C185.828 151.366 185.978 151.156 186.171 150.997C186.365 150.838 186.622 150.765 186.949 150.782V151.929H186.893C186.528 151.929 186.24 152.041 186.03 152.26C185.823 152.483 185.716 152.827 185.716 153.291V154.721H184.621V150.851Z" fill="#E42313"/>
<path d="M189.466 154.811C189.174 154.811 188.907 154.76 188.658 154.652C188.409 154.545 188.199 154.403 188.018 154.223C187.842 154.042 187.7 153.832 187.602 153.587C187.499 153.347 187.451 153.085 187.451 152.81V152.797C187.451 152.522 187.503 152.264 187.602 152.019C187.705 151.774 187.842 151.56 188.018 151.375C188.199 151.19 188.409 151.049 188.658 150.941C188.907 150.834 189.178 150.782 189.479 150.782C189.844 150.782 190.149 150.838 190.389 150.954C190.63 151.07 190.84 151.229 191.025 151.431L190.355 152.152C190.23 152.024 190.097 151.92 189.968 151.843C189.835 151.766 189.672 151.727 189.474 151.727C189.337 151.727 189.208 151.753 189.096 151.809C188.985 151.865 188.886 151.942 188.8 152.036C188.714 152.131 188.65 152.247 188.602 152.371C188.555 152.5 188.534 152.634 188.534 152.78V152.792C188.534 152.943 188.555 153.08 188.602 153.213C188.65 153.342 188.714 153.454 188.8 153.553C188.89 153.651 188.993 153.725 189.109 153.78C189.23 153.836 189.367 153.862 189.513 153.862C189.698 153.862 189.857 153.823 189.994 153.75C190.132 153.677 190.269 153.574 190.402 153.45L191.042 154.098C190.853 154.304 190.643 154.476 190.402 154.609C190.162 154.742 189.848 154.807 189.466 154.807" fill="#E42313"/>
<path d="M193.598 154.811C193.31 154.811 193.039 154.764 192.79 154.665C192.541 154.566 192.326 154.433 192.146 154.253C191.966 154.072 191.828 153.862 191.725 153.621C191.622 153.377 191.57 153.106 191.57 152.81V152.797C191.57 152.522 191.618 152.264 191.712 152.019C191.807 151.774 191.94 151.56 192.107 151.375C192.275 151.19 192.477 151.049 192.713 150.941C192.945 150.834 193.207 150.782 193.486 150.782C193.808 150.782 194.088 150.838 194.324 150.954C194.56 151.07 194.758 151.225 194.912 151.418C195.067 151.611 195.183 151.839 195.26 152.088C195.333 152.341 195.372 152.603 195.372 152.878C195.372 152.921 195.372 152.969 195.372 153.016C195.372 153.063 195.368 153.115 195.363 153.166H192.67C192.722 153.415 192.833 153.604 192.997 153.733C193.164 153.862 193.37 153.922 193.615 153.922C193.8 153.922 193.963 153.892 194.105 153.828C194.251 153.763 194.397 153.664 194.551 153.523L195.179 154.077C194.994 154.304 194.775 154.48 194.513 154.609C194.255 154.738 193.946 154.803 193.598 154.803M194.302 152.483C194.268 152.238 194.182 152.041 194.045 151.886C193.903 151.736 193.718 151.658 193.486 151.658C193.254 151.658 193.07 151.731 192.928 151.882C192.786 152.032 192.692 152.23 192.649 152.483H194.302Z" fill="#E42313"/>
<path d="M196.188 150.851H197.283V151.405C197.343 151.323 197.416 151.246 197.489 151.169C197.562 151.091 197.644 151.027 197.739 150.967C197.829 150.911 197.932 150.864 198.044 150.829C198.151 150.795 198.28 150.778 198.417 150.778C198.834 150.778 199.16 150.907 199.388 151.16C199.616 151.414 199.732 151.766 199.732 152.212V154.717H198.636V152.565C198.636 152.307 198.58 152.109 198.464 151.976C198.348 151.843 198.185 151.779 197.975 151.779C197.764 151.779 197.597 151.843 197.472 151.976C197.352 152.109 197.288 152.303 197.288 152.565V154.717H196.192V150.847" fill="#E42313"/>
<path d="M201.716 152.758L200.41 150.851H201.587L202.309 151.981L203.039 150.851H204.186L202.88 152.737L204.246 154.721H203.069L202.287 153.518L201.51 154.721H200.363L201.716 152.758Z" fill="#E42313"/>
<path d="M204.774 151.959H206.995V153.011H204.774V151.959Z" fill="#E42313"/>
<path d="M207.897 149.451H208.997V154.721H207.897V149.451Z" fill="#E42313"/>
<path d="M211.127 154.794C210.942 154.794 210.77 154.768 210.612 154.717C210.453 154.665 210.307 154.592 210.191 154.489C210.07 154.39 209.976 154.266 209.903 154.12C209.834 153.974 209.8 153.802 209.8 153.609V153.596C209.8 153.385 209.838 153.201 209.916 153.046C209.993 152.891 210.1 152.767 210.238 152.664C210.375 152.565 210.539 152.488 210.728 152.436C210.917 152.384 211.127 152.359 211.359 152.359C211.557 152.359 211.728 152.372 211.874 152.402C212.02 152.432 212.162 152.47 212.304 152.518V152.453C212.304 152.221 212.235 152.045 212.093 151.925C211.956 151.805 211.746 151.744 211.475 151.744C211.264 151.744 211.075 151.762 210.917 151.8C210.758 151.835 210.586 151.886 210.405 151.955L210.13 151.117C210.341 151.027 210.564 150.95 210.796 150.894C211.028 150.838 211.307 150.808 211.634 150.808C211.939 150.808 212.197 150.847 212.411 150.92C212.626 150.993 212.802 151.1 212.94 151.242C213.086 151.388 213.193 151.564 213.257 151.775C213.326 151.985 213.361 152.221 213.361 152.479V154.725H212.3V154.309C212.166 154.459 212.003 154.579 211.819 154.665C211.63 154.755 211.402 154.798 211.131 154.798M211.458 154.038C211.715 154.038 211.926 153.974 212.081 153.849C212.235 153.725 212.317 153.561 212.317 153.36V153.166C212.218 153.123 212.111 153.089 211.995 153.063C211.879 153.037 211.75 153.024 211.617 153.024C211.38 153.024 211.196 153.072 211.063 153.162C210.925 153.252 210.856 153.385 210.856 153.557V153.57C210.856 153.72 210.912 153.836 211.024 153.918C211.136 154 211.282 154.042 211.458 154.042V154.038Z" fill="#E42313"/>
<path d="M214.172 151.959H216.397V153.011H214.172V151.959Z" fill="#E42313"/>
<path d="M217.364 149.67H218.39L220.757 152.78V149.67H221.857V154.721H220.907L218.463 151.508V154.721H217.364V149.67Z" fill="#E42313"/>
<path d="M224.85 154.811C224.55 154.811 224.275 154.76 224.021 154.657C223.768 154.554 223.549 154.412 223.36 154.231C223.175 154.051 223.029 153.841 222.922 153.596C222.819 153.355 222.763 153.093 222.763 152.814V152.801C222.763 152.522 222.815 152.26 222.922 152.019C223.029 151.775 223.175 151.564 223.364 151.379C223.553 151.195 223.772 151.053 224.03 150.946C224.288 150.838 224.563 150.787 224.868 150.787C225.173 150.787 225.443 150.838 225.697 150.941C225.95 151.044 226.169 151.186 226.358 151.366C226.543 151.547 226.689 151.757 226.796 152.002C226.904 152.247 226.955 152.505 226.955 152.784V152.797C226.955 153.076 226.904 153.338 226.796 153.579C226.693 153.823 226.543 154.034 226.354 154.219C226.165 154.403 225.946 154.545 225.688 154.652C225.435 154.76 225.155 154.811 224.85 154.811ZM224.863 153.866C225.022 153.866 225.164 153.836 225.284 153.785C225.409 153.729 225.512 153.656 225.598 153.557C225.684 153.458 225.753 153.351 225.8 153.222C225.847 153.093 225.868 152.96 225.868 152.814V152.801C225.868 152.655 225.843 152.522 225.795 152.393C225.744 152.264 225.679 152.153 225.585 152.054C225.495 151.955 225.383 151.878 225.263 151.817C225.138 151.757 225.001 151.732 224.85 151.732C224.692 151.732 224.55 151.757 224.43 151.813C224.309 151.869 224.202 151.946 224.116 152.041C224.03 152.135 223.961 152.251 223.918 152.376C223.871 152.505 223.85 152.638 223.85 152.784V152.797C223.85 152.943 223.875 153.076 223.923 153.205C223.974 153.334 224.043 153.445 224.133 153.544C224.223 153.643 224.331 153.72 224.455 153.78C224.576 153.836 224.713 153.866 224.868 153.866H224.863Z" fill="#E42313"/>
<path d="M229.03 154.794C228.609 154.794 228.287 154.665 228.059 154.412C227.831 154.159 227.715 153.806 227.715 153.36V150.855H228.811V153.007C228.811 153.265 228.871 153.463 228.987 153.596C229.103 153.729 229.266 153.793 229.477 153.793C229.687 153.793 229.854 153.729 229.979 153.596C230.104 153.463 230.164 153.269 230.164 153.007V150.855H231.259V154.726H230.164V154.171C230.099 154.253 230.031 154.335 229.958 154.408C229.885 154.481 229.799 154.549 229.708 154.61C229.614 154.665 229.515 154.713 229.404 154.747C229.292 154.781 229.167 154.799 229.03 154.799" fill="#E42313"/>
<path d="M231.899 150.851H233.059L233.926 153.445L234.803 150.851H235.941L234.416 154.751H233.42L231.899 150.851Z" fill="#E42313"/>
<path d="M238.411 154.811C238.123 154.811 237.852 154.764 237.608 154.665C237.358 154.566 237.144 154.433 236.963 154.253C236.783 154.072 236.645 153.862 236.542 153.621C236.439 153.377 236.388 153.106 236.388 152.81V152.797C236.388 152.522 236.435 152.264 236.529 152.019C236.624 151.774 236.757 151.56 236.925 151.375C237.092 151.19 237.294 151.049 237.526 150.941C237.762 150.834 238.02 150.782 238.303 150.782C238.626 150.782 238.905 150.838 239.141 150.954C239.377 151.07 239.575 151.225 239.729 151.418C239.888 151.611 240 151.839 240.077 152.088C240.15 152.341 240.189 152.603 240.189 152.878C240.189 152.921 240.189 152.969 240.189 153.016C240.189 153.063 240.185 153.115 240.18 153.166H237.487C237.539 153.415 237.65 153.604 237.814 153.733C237.981 153.862 238.187 153.922 238.432 153.922C238.617 153.922 238.78 153.892 238.926 153.828C239.072 153.763 239.218 153.664 239.373 153.523L240 154.077C239.815 154.304 239.592 154.48 239.334 154.609C239.077 154.738 238.767 154.803 238.415 154.803M239.119 152.483C239.085 152.238 238.999 152.041 238.862 151.886C238.72 151.736 238.535 151.658 238.303 151.658C238.071 151.658 237.887 151.731 237.745 151.882C237.603 152.032 237.509 152.23 237.466 152.483H239.119Z" fill="#E42313"/>
<path d="M241.052 149.451H242.148V154.721H241.052V149.451Z" fill="#E42313"/>
<path d="M243.234 149.451H244.33V154.721H243.234V149.451Z" fill="#E42313"/>
<path d="M247.195 154.811C246.907 154.811 246.636 154.764 246.391 154.665C246.142 154.566 245.928 154.433 245.747 154.253C245.567 154.072 245.425 153.862 245.326 153.621C245.223 153.377 245.176 153.106 245.176 152.81V152.797C245.176 152.522 245.223 152.264 245.318 152.019C245.412 151.774 245.541 151.56 245.713 151.375C245.885 151.19 246.082 151.049 246.314 150.941C246.546 150.834 246.808 150.782 247.092 150.782C247.414 150.782 247.693 150.838 247.929 150.954C248.165 151.07 248.359 151.225 248.518 151.418C248.672 151.611 248.788 151.839 248.866 152.088C248.939 152.341 248.977 152.603 248.977 152.878C248.977 152.921 248.977 152.969 248.977 153.016C248.977 153.063 248.973 153.115 248.969 153.166H246.275C246.327 153.415 246.434 153.604 246.602 153.733C246.765 153.862 246.971 153.922 247.22 153.922C247.405 153.922 247.568 153.892 247.71 153.828C247.856 153.763 248.006 153.664 248.161 153.523L248.788 154.077C248.608 154.304 248.384 154.48 248.122 154.609C247.865 154.738 247.555 154.803 247.203 154.803M247.903 152.483C247.869 152.238 247.783 152.041 247.646 151.886C247.508 151.736 247.324 151.658 247.092 151.658C246.86 151.658 246.675 151.731 246.529 151.882C246.387 152.032 246.297 152.23 246.25 152.483H247.903Z" fill="#E42313"/>
<path d="M84.1965 115.69H79.3127V136.896H84.1965V115.69Z" fill="#1D1D1B"/>
<path fill-rule="evenodd" clip-rule="evenodd" d="M105.506 115.69H89.6258V136.896H94.5095V128.12H104.281C105.909 128.12 106.725 129.027 106.725 130.835V136.896H111.609V130.835C111.446 128.782 110.918 127.257 110.02 126.256C110.918 125.191 111.446 123.688 111.609 121.746C111.201 117.704 109.165 115.686 105.501 115.686L105.506 115.69ZM104.286 124.491H94.5138V119.328H104.286C105.914 119.328 106.73 120.135 106.73 121.751C106.73 123.576 105.914 124.491 104.286 124.491Z" fill="#1D1D1B"/>
<path fill-rule="evenodd" clip-rule="evenodd" d="M117.026 120.539V132.05C117.026 135.281 119.061 136.9 123.133 136.9H139.013V133.266H123.133C122.317 133.266 121.914 132.862 121.914 132.055V128.129H134.739V124.495H121.914V120.543C121.914 119.736 122.322 119.332 123.133 119.332H139.013V115.698H123.133C119.061 115.698 117.026 117.313 117.026 120.543V120.539Z" fill="#1D1D1B"/>
<path fill-rule="evenodd" clip-rule="evenodd" d="M162.749 115.69H144.43V136.896H149.313V119.324H154.197V136.896H159.085V119.324H162.749C163.565 119.324 163.969 119.728 163.969 120.535V136.896H168.853V120.535C168.853 117.305 166.817 115.69 162.745 115.69H162.749Z" fill="#1D1D1B"/>
<path fill-rule="evenodd" clip-rule="evenodd" d="M197.481 115.69H180.381C176.309 115.69 174.273 117.305 174.273 120.535V132.046C174.273 135.277 176.309 136.896 180.381 136.896H197.481C201.553 136.896 203.589 135.281 203.589 132.046V120.535C203.589 117.305 201.553 115.69 197.481 115.69ZM198.701 132.051C198.701 132.858 198.293 133.262 197.481 133.262H180.381C179.565 133.262 179.161 132.858 179.161 132.051V120.539C179.161 119.732 179.569 119.328 180.381 119.328H197.481C198.297 119.328 198.701 119.732 198.701 120.539V132.051Z" fill="#1D1D1B"/>
<path fill-rule="evenodd" clip-rule="evenodd" d="M224.872 115.69H208.997V136.896H213.885V119.324H224.876C225.692 119.324 226.1 119.728 226.1 120.535V136.896H230.984V120.535C230.984 117.305 228.948 115.69 224.876 115.69H224.872Z" fill="#1D1D1B"/>
<path fill-rule="evenodd" clip-rule="evenodd" d="M236.396 115.69V119.328H243.72V136.9H248.608V119.328H255.936V115.69H236.396Z" fill="#1D1D1B"/>
<path fill-rule="evenodd" clip-rule="evenodd" d="M72.6035 122.352C72.4403 122.189 72.2728 122.03 72.1095 121.866L71.302 121.076L68.0934 117.936L70.7909 115.209C71.1302 114.865 71.4352 114.491 71.7101 114.092C72.6722 112.705 73.2048 111.068 73.2478 109.38C73.2907 107.64 72.814 105.922 71.869 104.462C71.5168 103.916 71.1001 103.41 70.6362 102.959C69.0083 101.374 66.822 100.489 64.5455 100.502H47.2483V123.219C46.7329 121.961 46.0843 120.754 45.3154 119.599C44.8988 118.963 44.4478 118.349 43.9753 117.752C42.8886 116.394 41.7203 115.084 40.5133 113.826C39.7015 112.979 38.8983 112.12 38.1079 111.253C37.4507 110.527 36.8107 109.779 36.1965 109.015C35.5307 108.194 34.9294 107.327 34.3968 106.416C32.4854 103.053 30.8532 99.5352 29.5173 95.9013L29.135 94.8533L29.4572 94.7072C40.3801 89.759 53.1887 90.5494 63.433 96.9193C64.1246 97.3531 65.0395 97.1384 65.469 96.4425C65.8813 95.7811 65.7095 94.9134 65.0738 94.4581C57.4067 88.9558 48.073 86.267 38.6534 86.8425C17.1941 88.1268 0.317853 105.759 0.00429598 127.261C-0.0773148 132.669 0.906309 138.043 2.89503 143.072C5.08134 148.579 8.43168 153.544 12.7227 157.625C20.1149 164.703 29.8867 168.754 40.1181 168.99C51.5393 169.261 62.4193 164.832 70.3313 156.822C70.9069 156.242 70.8983 155.305 70.3184 154.73C69.7643 154.184 68.8795 154.159 68.2996 154.674C61.8523 160.387 53.571 163.595 44.9589 163.724C35.4663 163.887 26.2958 160.301 19.4405 153.738C15.1195 149.61 12.0569 144.683 10.24 139.421C10.24 139.421 11.2666 141.603 13.5216 143.781C17.7997 147.913 23.4953 150.052 28.654 150.039C30.7973 150.039 32.9149 149.734 34.9552 149.077C39.9248 147.471 43.8121 143.884 46.2132 139.34C46.677 138.459 47.0808 137.553 47.4244 136.621V136.896H66.3624C66.8435 136.896 67.3246 136.848 67.8013 136.767C69.4593 136.475 70.9928 135.706 72.2212 134.55C72.6121 134.181 72.9729 133.777 73.2864 133.339C73.9866 132.377 74.4848 131.282 74.7383 130.118C74.8757 129.482 74.9444 128.838 74.9401 128.185C74.923 126.02 74.094 123.941 72.6207 122.356L72.6121 122.343L72.6035 122.352ZM52.2137 105.467H64.567C64.7732 105.467 64.9793 105.48 65.1855 105.514C65.4132 105.549 65.6322 105.609 65.8513 105.686C66.7748 106.021 67.5307 106.713 67.9474 107.602C68.175 108.087 68.291 108.611 68.291 109.144C68.2953 110.114 67.9216 111.047 67.2473 111.742L64.5498 114.466L59.1463 109.182L52.218 116.111V105.467H52.2137ZM69.6913 129.662C69.4894 130.152 69.1844 130.586 68.8021 130.947C68.1278 131.574 67.2473 131.926 66.3281 131.935H52.3855V125.947L48.64 129.692C48.6142 128.773 48.5197 127.871 48.3565 126.986L49.2285 126.114L49.5205 125.822L59.1807 116.162L69.0169 125.784C69.1501 125.93 69.2703 126.089 69.3777 126.252C69.5023 126.441 69.6054 126.643 69.6913 126.853C70.0607 127.751 70.0607 128.765 69.6913 129.662Z" fill="#1D1D1B"/>
<path d="M69.2832 155.787C54.8037 168.617 32.6615 168.41 18.414 154.812C3.39328 140.47 2.84348 116.669 17.1812 101.649C29.6934 88.5436 49.4131 86.4518 64.2105 95.6609C48.4123 84.3085 26.2658 86.0395 12.4478 100.515C-2.67169 116.347 -2.08753 141.44 13.745 156.56C29.4013 171.507 54.1122 171.108 69.2789 155.787" fill="#44AD47"/>
<path d="M28.0483 96.1978C29.4271 99.9862 31.1195 103.65 33.1125 107.155C35.1055 110.66 39.156 114.41 41.1962 116.751C43.2365 119.092 47.1667 123.473 47.1667 130.277C47.1667 137.08 41.4454 148.562 28.654 148.562C19.2429 148.575 11.5157 141.118 11.1978 131.711C12.8301 139.305 19.3847 144.833 27.142 145.164C34.8993 145.495 42.9358 138.743 42.9358 129.976C42.9358 121.209 37.4207 118.641 33.9458 113.126C30.458 108.134 28.4177 102.276 28.0526 96.1978" fill="#088BCD"/>
<path d="M36.7978 138.369C40.9299 132.377 40.4531 125.896 34.8907 119.217C29.324 112.537 26.2615 108.929 26.3044 102.881C26.2743 100.42 26.4547 97.9634 26.8499 95.5322C25.1962 97.2117 23.5511 98.8954 21.9103 100.584C16.6486 106.004 12.3404 113.182 11.8335 120.892C11.3052 128.911 14.939 137.824 22.8209 140.904C25.0588 141.78 27.2751 142.128 29.6376 141.621C30.2389 141.492 30.836 141.329 31.4201 141.131C28.9288 141.419 26.4118 140.977 24.1782 139.868C17.7568 136.686 14.9305 128.937 15.4631 122.288C15.9398 116.313 18.4139 110.656 22.5203 106.24C23.0743 108.581 24.0064 110.806 25.2649 112.834C26.953 115.544 29.4572 117.833 31.7466 120.11C35.5522 123.89 38.1122 126.824 38.0907 132.485C38.0821 134.491 37.6526 136.501 36.7935 138.369" fill="#E42313"/>
<path fill-rule="evenodd" clip-rule="evenodd" d="M144 105.804V100.667C144 99.2236 144.908 98.5049 146.725 98.5049H153.812V100.126H146.725C146.362 100.126 146.179 100.305 146.179 100.667V102.427H151.901V104.049H146.179V105.798C146.179 106.16 146.362 106.339 146.725 106.339H153.812V107.96H146.725C144.908 107.96 144 107.236 144 105.798" fill="#088BCD"/>
<path fill-rule="evenodd" clip-rule="evenodd" d="M166.036 107.966H163.858V100.667C163.858 100.305 163.674 100.126 163.317 100.126H158.414V107.966H156.23V98.5049H163.317C165.133 98.5049 166.042 99.2236 166.042 100.667V107.966" fill="#088BCD"/>
<path fill-rule="evenodd" clip-rule="evenodd" d="M168.454 100.126V98.5049H177.174V100.126H173.898V107.966H171.719V100.126H168.454Z" fill="#088BCD"/>
<path fill-rule="evenodd" clip-rule="evenodd" d="M186.128 102.433C186.852 102.433 187.214 102.026 187.214 101.213C187.214 100.494 186.852 100.132 186.128 100.132H181.771V102.433H186.128ZM179.586 98.5049H186.674C188.306 98.5049 189.214 99.4075 189.398 101.207C189.326 102.071 189.086 102.745 188.685 103.219C189.086 103.664 189.32 104.344 189.398 105.263V107.966H187.214V105.263C187.214 104.455 186.852 104.054 186.128 104.054H181.771V107.971H179.592V98.5105L179.586 98.5049Z" fill="#088BCD"/>
<path fill-rule="evenodd" clip-rule="evenodd" d="M191.811 105.804V100.667C191.811 99.2236 192.719 98.5049 194.535 98.5049H201.623V100.126H194.535C194.173 100.126 193.989 100.305 193.989 100.667V102.427H199.711V104.049H193.989V105.798C193.989 106.16 194.173 106.339 194.535 106.339H201.623V107.96H194.535C192.719 107.96 191.811 107.236 191.811 105.798" fill="#088BCD"/>
<path fill-rule="evenodd" clip-rule="evenodd" d="M210.576 102.433C211.301 102.433 211.663 102.026 211.663 101.213C211.663 100.494 211.301 100.132 210.576 100.132H206.219V102.433H210.576ZM204.035 98.5049H211.122C212.755 98.5049 213.663 99.4075 213.847 101.207C213.663 103.102 212.755 104.049 211.122 104.049H206.219V107.966H204.035V98.5049Z" fill="#088BCD"/>
<path fill-rule="evenodd" clip-rule="evenodd" d="M222.801 102.433C223.531 102.433 223.887 102.026 223.887 101.213C223.887 100.494 223.525 100.132 222.801 100.132H218.444V102.433H222.801ZM216.259 98.5049H223.347C224.979 98.5049 225.887 99.4075 226.071 101.207C225.999 102.071 225.765 102.745 225.364 103.219C225.765 103.664 225.999 104.344 226.071 105.263V107.966H223.893V105.263C223.893 104.455 223.531 104.054 222.806 104.054H218.449V107.971H216.265V98.5105L216.259 98.5049Z" fill="#088BCD"/>
<path fill-rule="evenodd" clip-rule="evenodd" d="M228.489 107.966V98.5049H230.668V107.966H228.489Z" fill="#088BCD"/>
<path fill-rule="evenodd" clip-rule="evenodd" d="M233.092 107.966V106.345H240.446C241.176 106.345 241.538 105.982 241.538 105.264C241.538 104.456 241.176 104.055 240.446 104.055H235.816C234.184 104.055 233.275 103.107 233.092 101.213C233.275 99.4078 234.178 98.5107 235.816 98.5107H243.717V100.132H236.362C235.632 100.132 235.27 100.494 235.27 101.213C235.27 102.026 235.632 102.433 236.362 102.433H240.446C242.446 102.433 243.533 103.38 243.717 105.269C243.533 107.069 242.446 107.971 240.446 107.971H233.092" fill="#088BCD"/>
<path fill-rule="evenodd" clip-rule="evenodd" d="M246.124 105.804V100.667C246.124 99.2236 247.032 98.5049 248.848 98.5049H255.936V100.126H248.848C248.486 100.126 248.302 100.305 248.302 100.667V102.427H254.024V104.049H248.302V105.798C248.302 106.16 248.486 106.339 248.848 106.339H255.936V107.96H248.848C247.032 107.96 246.124 107.236 246.124 105.798" fill="#088BCD"/>
</g>
<defs>
<clipPath id="clip0_663_21023">
<rect width="256" height="256" fill="white"/>
</clipPath>
</defs>
</svg>
