<?xml version="1.0" encoding="UTF-8"?>
<svg id="Calque_1" data-name="Calque 1" xmlns="http://www.w3.org/2000/svg" xmlns:xlink="http://www.w3.org/1999/xlink" version="1.1" viewBox="0 0 703.7 644.6">
  <defs>
    <style>
      .cls-1 {
        fill: #ef9f26;
      }

      .cls-1, .cls-2, .cls-3, .cls-4, .cls-5, .cls-6, .cls-7, .cls-8 {
        stroke-width: 0px;
      }

      .cls-2 {
        fill: #96757b;
      }

      .cls-3 {
        fill: #837781;
        filter: url(#drop-shadow-4);
      }

      .cls-4 {
        fill: #644f54;
      }

      .cls-5 {
        fill: #674f55;
      }

      .cls-6 {
        filter: url(#drop-shadow-2);
      }

      .cls-6, .cls-7 {
        fill: #e1101d;
      }

      .cls-7 {
        filter: url(#drop-shadow-3);
      }

      .cls-8 {
        fill: #5eae24;
        filter: url(#drop-shadow-1);
      }
    </style>
    <filter id="drop-shadow-1" filterUnits="userSpaceOnUse">
      <feOffset dx="2.8" dy="8.5"/>
      <feGaussianBlur result="blur" stdDeviation="2.8"/>
      <feFlood flood-color="#000" flood-opacity=".2"/>
      <feComposite in2="blur" operator="in"/>
      <feComposite in="SourceGraphic"/>
    </filter>
    <filter id="drop-shadow-2" filterUnits="userSpaceOnUse">
      <feOffset dx="2.8" dy="8.5"/>
      <feGaussianBlur result="blur-2" stdDeviation="2.8"/>
      <feFlood flood-color="#000" flood-opacity=".2"/>
      <feComposite in2="blur-2" operator="in"/>
      <feComposite in="SourceGraphic"/>
    </filter>
    <filter id="drop-shadow-3" filterUnits="userSpaceOnUse">
      <feOffset dx="2.8" dy="8.5"/>
      <feGaussianBlur result="blur-3" stdDeviation="2.8"/>
      <feFlood flood-color="#000" flood-opacity=".2"/>
      <feComposite in2="blur-3" operator="in"/>
      <feComposite in="SourceGraphic"/>
    </filter>
    <filter id="drop-shadow-4" filterUnits="userSpaceOnUse">
      <feOffset dx="2.8" dy="8.5"/>
      <feGaussianBlur result="blur-4" stdDeviation="2.8"/>
      <feFlood flood-color="#000" flood-opacity=".2"/>
      <feComposite in2="blur-4" operator="in"/>
      <feComposite in="SourceGraphic"/>
    </filter>
  </defs>
  <g>
    <path class="cls-2" d="M435.3,393.9c-.5-2.1-2.2-2.4-3.3-3.3-11.9-9.1-13.6-24.4-4.2-36.1,3.8-4.7,8.7-7.8,14.2-9.8,8.2-3,16.8-3.3,25.2-1.7,21.9,4.1,21.3,23.6,12.4,35.4-3.9,5.2-9,8.9-14.6,12-1.4.8-2.9,1.6-4.3,2.4.2,2.1,2,2.3,3.2,3,9,5.7,15.3,12.9,13.8,24.5-1.4,11-7.5,18.7-17.4,23.3-11.5,5.2-23.6,6-35.7,3.1-17.3-4.2-23-21-12.5-35.4,4.5-6.2,10.6-10.5,17.3-14.1,2-1.1,4-2.2,5.9-3.2ZM440.2,437.5c4.6.4,9.4-.9,13.9-3.3,8.4-4.4,12.3-15,8.1-22.5-3.1-5.6-8.5-8.9-14.1-11.5-3.6-1.6-6.6,1.7-9.5,3.2-5.8,3-11.3,6.4-14.9,12.1-5.2,8.3-2.9,17.3,5.2,20.4,3.5,1.3,7.1,1.6,11.3,1.5ZM456.2,352.8c-.7,0-1.6,0-2.4.2-9.5.7-16.8,6.5-18.1,14.3-1.4,8.6,2.8,15.4,12,19.5,1,.4,1.8.8,2.8.2,6.1-3.3,12.5-6.3,16.8-12.1,3.6-4.9,5.9-10.2,2.8-16.2-2.9-5.6-8.5-5.7-13.9-5.9Z"/>
    <g>
      <path class="cls-5" d="M309.6,407.5c-2.4,11.6-4.6,22.7-6.8,33.8-1.1,5.3-9.3,8.5-13.7,5.3-1.3-1-1.1-2.1-.8-3.5,2.9-14.2,5.7-28.3,8.5-42.5,3.3-16.4,6.6-32.9,9.9-49.3,1.2-6,3-7.7,9-7.6,10,.2,20-.9,29.9.7,15.7,2.5,23.6,13.6,20.9,29.4-3.5,20.5-18.6,33.5-39.5,33.8-5.6,0-11.3,0-17.4,0ZM311.9,396.2c6.1,0,11.7.5,17.3-.4,14.3-2.1,23.3-13,22.7-27.4-.3-6.4-3.4-10.6-9.7-12.3-7.3-2-14.8-.6-22.2-1-2.8,13.9-5.4,27.2-8.1,41Z"/>
      <path class="cls-5" d="M159.9,355.2c-2.2,10.8-4.3,21.2-6.5,32.1,7.8,0,15,0,22.1,0,2.8,0,5.7-.2,8.5,0,2.5.2,6.2-1.5,6,3.5-.2,5.3-1.9,7.5-6.3,7.6-10.7,0-21.3,0-32.4,0-2.5,12.1-5,24.1-7.4,35.9,1.3,1.4,2.7.9,3.9.9,11.3,0,22.7,0,34,0,2.2,0,4.9-.8,5,3,0,4.2-1.7,7.9-4.6,8.5-1,.2-2,.1-3,.1-14.7,0-29.3,0-44,0-6.4,0-7.5-1.1-6.3-7.4,2.3-12.3,4.8-24.5,7.2-36.7,3.5-17.3,7-34.6,10.5-51.8,1.3-6.3,2.7-7.4,9.1-7.4,14.5,0,29,0,43.5,0,2.3,0,5.3-.9,5.4,3.2.2,4.7-1.7,8-5.1,8.5-1.3.2-2.7,0-4,0-11.7,0-23.3,0-35.6,0Z"/>
      <path class="cls-5" d="M259.4,356.1c-1.8,8.5-3.6,17.4-5.4,26.4-4.1,20-8.1,40.1-12.1,60.2-.6,3-2.1,4.4-4.9,4.5-1.2,0-2.3.1-3.5.1-6.1,0-6.6-.7-5.4-6.6,5.5-27.2,11-54.4,16.5-81.6.2-1,.3-1.9.5-3.5h-29.7c-2.4-7.8.4-12,7.5-12,21.5,0,42.9,0,64.4,0,2.4,0,5.6-1.1,5.6,3.4,0,5.4-1.9,8.3-6.2,8.3-8,0-16,0-24,0-1,0-2-.2-3.4.8Z"/>
    </g>
  </g>
  <g>
    <path class="cls-8" d="M166.7,56.6c.3.2.8.2,1.1.6,10.3,13.9,25.4,19.2,41.3,23.1,17.3,4.2,35.1,6,52.5,10,14.4,3.4,28.2,7.8,39.6,17.9,12.1,10.8,19.8,24.2,24.4,39.7,4.6,15.6,4,31.6,3.8,47.6,0,6.3-.6,12.6-1.7,18.9-.2,1-.3,1.9-1,2.5-1.9.4-2.2-1-2.8-1.9-10.1-15.5-24.1-24.8-42.4-28.7-16.9-3.6-33.8-7.2-49.9-13.7-16.1-6.4-31.2-14-42.4-27.9-8.5-10.5-14-22.5-17.9-35.3-5.1-16.7-5.8-33.7-5.4-51,0-.6-.2-1.4.8-1.8Z"/>
    <path class="cls-6" d="M332.6,259.3c-22-23.3-48.5-37.5-79.5-43.1-34.1-6.1-66.7-1.3-96.8,16.3-25.9,15.1-43.9,37.1-55.3,64.7-9.6,23.1-13.2,47.4-13.2,72.2,0,26.1,4.6,51.7,11.9,76.7,8.9,30.4,21.3,59.5,34.2,88.4,5.5,12.5,11,25,16.4,37.5.9,2.2,2.3,4.4,1.3,7.4-17.8-23.4-34.3-47-48.6-72.2-11.7-20.6-21.9-41.9-28.8-64.6-6-19.7-9-39.9-9.2-60.5-.2-16.1-.9-32.3,1.4-48.4,2.9-20.5,9.1-39.9,18.6-58.2,13.4-26,32-47.4,57.2-62.5,17.1-10.2,35.6-16.3,55.3-18.8,47.5-6.2,86.5,10.6,119.4,43.9,5,5,9.4,10.6,14,16,1.1,1.3,2.8,2.6,1.8,5.1Z"/>
    <path class="cls-7" d="M564,254.2c-2.6.8-3.5-.8-4.6-1.9-15.8-15.4-32.7-29.4-52.7-38.9-15.4-7.3-31.5-11.7-48.7-10.7-34.5,1.9-64.9,13-88.9,39.2-5.1,5.6-9.3,11.8-14.2,17.4-1.2,1.3-1.9,3.1-3.6,3.9-1.1-.6-1.3-1.1-.7-2.4,2.7-6,5.9-11.8,9.1-17.5,7.3-12.9,16.2-24.4,27-34.5,17.2-16,37.5-26.1,60.9-28.2,50-4.5,92.7,17.3,114.4,65.1,1.2,2.7,2.3,5.6,2.1,8.6Z"/>
    <path class="cls-3" d="M348.2,220.7c1.7-14.7,3.1-28.2,4.8-41.7,2.1-16.7,6.6-32.5,16.4-46.5,8.4-12,19.5-20.7,32-28.1,2.9-1.7,5-.7,7.1,1.2,6.8,6.1,9.6,14.2,11.3,22.7.7,3.5,2.4,7.4,1,10.8-1.5,3.6-6.1,3.6-9.2,5.2-14.4,7.2-27.8,15.6-38.7,27.7-10.5,11.7-17.4,25.4-21.5,40.5-.7,2.5-.9,5.1-3.2,8.3Z"/>
    <path class="cls-1" d="M559.4,401.5c2.4-6.5,6.6-17.5,8.3-24.4-9.4,9.1-17.5,16.8-25.4,23.3,3.7-8.7,6.2-17.7,8.3-24.9,6.7-22.3,15.9-63.2,17.7-109,1.3,15.8,1.8,37.1,1.6,54.6-.2,14.4-2.6,30.9-3.4,41.2,8.3-6.2,14.1-11,21.2-20.1-1.5,10.6-3.7,22.4-7.2,32.1-6.4,17.7-14.6,32.4-24,49.1-6.1,10.8-18.9,28.5-26.3,35.8,17.4-28.1,26.2-49.9,29.1-57.7Z"/>
  </g>
  <g>
    <path class="cls-4" d="M503.3,478.2c1.1,3.1-1.2,2.9-2.5,3.6,1.1,9.6-1.1,11.6-12.7,11.4-.4,2.1,1,2.6,2.5,2.7,2.3.3,4.7.2,7,.5,3,.4,5.5,1.7,5.9,5.1.3,3.1-1.1,5.6-3.9,6.9-4.3,2-8.7,2-13.1.3-3.4-1.3-4.6-4.5-2.7-7.7,1-1.8,1.5-3,.3-4.9-.6-1-.5-2.3,0-3.4,1.1-1.7.8-3.3.4-5.2-1.3-6,2.1-10.1,8.3-10,3.5,0,6.9.5,10.5.7ZM493.2,499.5c-.7,0-1.2,0-1.7,0-2.7-.2-4.2,1.3-4.3,3.7,0,2.2,1.9,2.9,3.8,3.1,1.7.2,3.3.2,4.9-.3,1.7-.5,2.9-1.6,2.9-3.5,0-2.2-1.8-2.5-3.4-2.8-.8-.2-1.6-.1-2.2-.2ZM496.9,485.1c0-2.9-1.6-4.1-4.3-4.1-2.9,0-4.2,1.8-4.3,4.4-.2,2.7,1.5,4.3,4.2,4.5,2.6.2,4.5-1.9,4.5-4.8Z"/>
    <path class="cls-4" d="M279.9,473.3c-.2,3.4-.4,6,.2,9,2.7.6,5.5.2,8.3.3,1.5,0,2.7.2,2.6,2.1,0,1.6-1.2,1.7-2.4,1.8-2.8.2-5.6-.5-8.5.4-.6,3.3-.3,6.6-.2,10.2,3.6,0,6.9,0,10.2,0,1.4,0,2.8,0,2.7,2,0,1.9-1.5,1.9-2.9,1.9-3.8,0-7.6,0-11.5,0-2,0-3.1-.9-3.1-3,0-9,0-17.9.2-26.9,0-.4.4-.9.7-1.5,4.5-.6,9.2-.2,13.8-.3,1.5,0,2.7.3,2.6,2.1,0,1.6-1.4,1.7-2.5,1.7-3.3,0-6.6,0-10.2,0Z"/>
    <path class="cls-4" d="M467.4,490.5h-14.5c-.9,6.8,4.1,8.6,13.7,6,1.2,2.1.3,3.2-1.8,4-5.3,2.1-11.8,1-14.7-2.7-3-3.9-3.2-11.8-.3-16,2.7-3.9,8.3-5.4,12.9-3.5,4.3,1.8,6,5.9,4.6,12.3ZM452.8,487.1h10.7c-.3-4.6-1.3-5.9-4.7-6.1-3.6-.2-4.9,1.1-5.9,6.1Z"/>
    <path class="cls-4" d="M576.9,490.4h-14.6c0,7.1,1.7,7.9,14,6.3.8,1.6.4,2.7-1.3,3.6-4.7,2.3-12.5,1.1-15.3-2.4-3.5-4.4-3.3-13.1.5-17.3,2.9-3.2,8.5-4.3,12.4-2.4,3.9,1.9,5.6,6.1,4.3,12.1ZM572.8,487c-.5-4.8-1.5-6-5-6.1-3.5,0-4.8,1.2-5.7,6.1h10.7Z"/>
    <path class="cls-4" d="M611.8,487c-.7-6.6-1.9-7-11.9-4.3-1.7-1.9-.3-3.1,1.2-3.8,3.7-1.9,7.7-2.1,11.6-.5,1.8.7,3,2.3,3.2,4.2.7,6.1.3,12.1.3,18.8-3.5-1.3-6.1-1.1-8.9-.3-4.3,1.3-8.2-1.2-9.1-4.8-.9-3.9,1.2-6.8,5.9-8.4,2.4-.8,4.9-.4,7.7-.9ZM611.6,491c-5.9-.7-8.8.4-8.9,3.3-.1,2.6,1.5,3.6,3.8,3.7,3.3.1,5.3-2.6,5.2-7Z"/>
    <path class="cls-4" d="M638.2,490.4c-.7,8.1,5.5,8.2,13.7,6.1,1.5,2,.6,3.1-1.4,4-5.2,2.1-12.1,1-14.8-2.6-3.2-4.1-3.3-12.2-.1-16.5,2.5-3.4,7.2-4.8,11.6-3.5,3.6,1.1,6.2,4.5,6.6,8.6.2,2.6-.6,4.1-3.6,4-4-.2-8,0-11.9,0ZM649.1,487.1c-.3-4.1-1.9-6.1-5.6-6.1-3.6,0-4.9,1.6-5.3,6.1h10.8Z"/>
    <path class="cls-4" d="M328.4,490.1c-4.7.8-9.5,0-14.3.5-1.2,6.8,3.5,8.5,13.6,6,1.3,1.9.4,3-1.4,3.8-5.1,2.3-12.4,1.1-15.2-2.6-3-3.9-2.9-12.6.2-16.5,2.9-3.7,8.9-4.9,13.2-2.7,4,2,5.5,6.1,4,11.6ZM313.7,487c3.8.2,7.4.6,11.2-.3-.5-3.9-2.2-5.9-5.9-5.7-3.6.2-5.3,2.2-5.3,6Z"/>
    <path class="cls-4" d="M526.2,490.5h-14.5c.2,7.2,2.9,8.4,13.7,6.1,1.2,2.2.2,3.2-1.9,3.9-5.2,1.9-11.6.8-14.4-2.6-2.8-3.5-3.2-11.7-.8-15.7,2.6-4.3,8.3-6.1,13.2-4.1,4.4,1.8,6.1,5.8,4.8,12.3ZM522.6,487.1c0-4.1-1.9-6-5.4-6-3.8,0-5.5,2.3-5.9,6h11.3Z"/>
    <path class="cls-4" d="M533,500.8v-22.2c.3-.2.7-.6.8-.5,3.1,1.5,5.8.4,8.9-.4,4.3-1.2,8.3,1.4,8.7,5.9.5,5.1.3,10.3.3,15.5,0,1.4-.8,2.1-2.2,2.1-1.4,0-2.1-.7-2.1-2.1,0-3.8.1-7.7,0-11.5,0-2.9-.3-5.9-4.3-6.1-3.2-.2-6,2.8-6.1,6.5,0,3.5,0,7,0,10.5,0,2.2-.2,2.2-4,2.5Z"/>
    <path class="cls-4" d="M350.4,495c.6,2,.7,3.5-1,4.7-5.2,3.9-13.2,1.6-15.3-4.5-1.2-3.6-1.2-7.2,0-10.8,1.9-5.9,8.6-8.6,14.2-5.9,2,1,3.3,2.3,1.8,4.9-3.7-1.2-7.7-4.5-11,.4-1.9,2.7-1.5,9.7.4,12,2.1,2.5,5,2.4,10.8-.7Z"/>
    <path class="cls-4" d="M438.8,477.6q5.5.5,5.7,3.4c-1.7.9-3.6,0-5.6.8-.7,4.1-.4,8.4-.2,12.6.1,4.3,3.7,2.6,5.8,3,.8,2.6-.2,3.7-2.5,3.9-3,.3-5.7,0-7.1-3.3-.7-1.7-.8-3.5-.8-5.4,0-3.5,0-7,0-10.4q-3.7-1.6-.7-4.8c.8-.8.6-1.8.7-2.8,0-3.1,1.8-3,4.2-2.2.1,1.6.3,3.2.4,5.1Z"/>
    <path class="cls-4" d="M416.3,495.1c.8,2.2.6,3.6-1,4.8-5.3,3.8-13.2,1.2-15-5-1-3.6-1.1-7.2.1-10.8,2-5.8,9-8.5,14.3-5.5,1.8,1,2.8,2.3,1.6,4.7-3.6-1-7.6-4.5-10.9.5-2.1,3.3-1.9,9.8.7,12.2,3.5,3.3,6.7.9,10.3-1Z"/>
    <path class="cls-4" d="M361,482c0,3,0,6.1,0,9.2,0,6,.3,6.2,6.2,6.4.8,2,0,3.2-2,3.5-2.7.5-5.3.3-7.2-2.2-1-1.4-1.2-3.1-1.2-4.8,0-4,0-8,0-11.7-.8-1.9-3.8-.2-3.7-2.8,0-2.2,2.4-1.3,3.5-2.5,0-1.3.2-2.8.3-4.3,1.1-1.2,2.3-1.1,3.6-.5,1,1.5,0,3.3.9,4.9,1.3,1,2.8.5,4.3.6,1.2.1,1.8.8,1.7,1.9,0,.9-.7,1.4-1.7,1.5-1.4.1-3-.4-4.7.6Z"/>
    <path class="cls-4" d="M627.7,467.7c0,10.4,0,20.7,0,30.9,0,1.6-.6,2.5-2.3,2.5-1.8,0-2.1-1.2-2.1-2.7,0-9.5,0-19,0-28.5,0-3.1,1.8-3,4.4-2.3Z"/>
    <path class="cls-4" d="M299,467.8c3.1-1.1,4.4-.4,4.4,2.4,0,9.3,0,18.6,0,27.9,0,1.7-.2,3-2.3,3-1.8,0-2-1.3-2-2.8,0-10.1,0-20.2,0-30.5Z"/>
    <path class="cls-4" d="M583.2,479c1.1-1.2,2.2-1.4,2.7-.9,1.8,1.5,3.2.9,5.1,0,3.4-1.7,5-.5,5.2,3.2-7.1.9-8.4,2.4-8.4,9.7,0,3.1,0,6.2,0,9.5-2.7,1.1-4.5,1.1-4.5-2.2,0-6.6,0-13.2,0-19.2Z"/>
    <path class="cls-4" d="M372.7,500.8v-22.9c3.4,1.1,6.3.6,9.5-.4,2.4-.7,3.6,1,2.9,3.9-2.3.4-5-.2-6.8,2.4-1.8,2.5-1.4,5-1.4,7.6,0,2.3,0,4.7,0,7,0,2.8-1.6,2.8-4.1,2.3Z"/>
    <path class="cls-4" d="M422,478.4c3.1-1,4.4-.4,4.3,2.5-.1,6.5,0,12.9,0,19.6-2.8,1-4.3.8-4.3-2.5,0-6.5,0-12.9,0-19.6Z"/>
    <path class="cls-4" d="M390.1,500.6v-22c.9-1.1,2.2-.8,3.5-.4.1.4.4.9.4,1.4,0,6,0,12,0,18,0,2.8-.8,4.2-4.1,3Z"/>
    <path class="cls-4" d="M515.4,475.1c2.1-7,3.2-8,7.9-7.5-1.9,3.2-3.3,6.5-7.9,7.5Z"/>
    <path class="cls-4" d="M291.6,461.1c-2.8,2.3-4.1,6.8-10.1,6.2,3.6-3.1,4.6-8.1,10.1-6.2Z"/>
    <path class="cls-4" d="M457.2,474.4c1.4-3.3,1.6-7.8,7.5-7.2-1.9,3.5-3.3,6.7-7.5,7.2Z"/>
    <path class="cls-4" d="M566.1,475.1c1.7-6.5,3.2-7.9,7.7-7.6-1.8,3.3-3.2,6.6-7.7,7.6Z"/>
    <path class="cls-4" d="M422.1,469.2c1.8.2,4.2-1.2,4.6,2,.3,1.9-1,2.8-2.7,2.7-3.1-.3-2.5-2.3-1.9-4.6Z"/>
    <path class="cls-4" d="M394.3,470.7c.1,2-.5,3-2.1,3.1-1.7.1-2.9-.5-3-2.4,0-1.6.8-2.3,2.4-2.3,1.5,0,2.6.2,2.7,1.6Z"/>
  </g>
</svg>