<?xml version="1.0" encoding="UTF-8"?>
<svg id="Calque_1" data-name="Calque 1" xmlns="http://www.w3.org/2000/svg" version="1.1" viewBox="0 0 240.9 273">
  <defs>
    <style>
      .cls-1 {
        fill: #1d1d1b;
      }

      .cls-1, .cls-2 {
        stroke-width: 0px;
      }

      .cls-2 {
        fill: #fff;
      }
    </style>
  </defs>
  <rect class="cls-1" width="240.9" height="273"/>
  <g>
    <g>
      <path class="cls-2" d="M38,246.4h-4.9v-19.3h12.3v4.6h-7.4v3.8h6.1v4.6h-6.1v6.3Z"/>
      <path class="cls-2" d="M60.2,241.6v4.8h-12.3v-19.3h4.9v14.5h7.4Z"/>
      <path class="cls-2" d="M80.9,236.8c0,2.8-.9,5.1-2.8,7.1-1.9,1.9-4.3,2.9-7.2,2.9s-5.4-1-7.2-2.9c-1.8-1.9-2.7-4.3-2.7-7.1s.9-5.1,2.8-7.1c1.9-1.9,4.3-2.9,7.2-2.9s5.4,1,7.2,2.9c1.8,1.9,2.7,4.3,2.7,7.1ZM76,236.8c0-1.5-.5-2.8-1.5-3.8-1-1-2.2-1.4-3.6-1.4s-2.6.5-3.6,1.4c-1,1-1.5,2.2-1.5,3.8s.5,2.7,1.5,3.6c1,1,2.2,1.5,3.6,1.5s2.6-.5,3.6-1.5c1-1,1.5-2.2,1.5-3.6Z"/>
      <path class="cls-2" d="M88.5,246.4h-4.9v-19.3h8c1.9,0,3.5.6,4.9,1.7,1.4,1.2,2,2.9,2,5.1s-1,4.5-2.9,5.8l3.6,6.4v.2h-5.1l-3-5.2h-2.8v5.2ZM90.6,231.4h-2.1v5.5h1.7c1.1,0,1.9-.3,2.5-.8s1-1.2,1-2.1-.3-1.5-.9-2c-.6-.5-1.3-.7-2.2-.7Z"/>
      <path class="cls-2" d="M109.9,226.8h.3l10.2,19.4-.2.2h-5l-1.2-2.6h-8.1l-1.2,2.6h-4.9l-.2-.2,10.2-19.4ZM110,235.1l-2.1,4.5h4.1l-2-4.5Z"/>
      <path class="cls-2" d="M126,246.4h-4.9v-19.3h12.3v4.6h-7.4v3.8h6.1v4.6h-6.1v6.3Z"/>
      <path class="cls-2" d="M148.2,241.6v4.8h-12.3v-19.3h4.9v14.5h7.4Z"/>
      <path class="cls-2" d="M168.9,236.8c0,2.8-.9,5.1-2.8,7.1-1.9,1.9-4.3,2.9-7.2,2.9s-5.4-1-7.2-2.9-2.7-4.3-2.7-7.1.9-5.1,2.8-7.1c1.9-1.9,4.3-2.9,7.2-2.9s5.4,1,7.2,2.9c1.8,1.9,2.7,4.3,2.7,7.1ZM164,236.8c0-1.5-.5-2.8-1.5-3.8-1-1-2.2-1.4-3.6-1.4s-2.6.5-3.6,1.4c-1,1-1.5,2.2-1.5,3.8s.5,2.7,1.5,3.6c1,1,2.2,1.5,3.6,1.5s2.6-.5,3.6-1.5c1-1,1.5-2.2,1.5-3.6Z"/>
      <path class="cls-2" d="M190.7,236.8c0,2.8-.9,5.1-2.8,7.1-1.9,1.9-4.3,2.9-7.2,2.9s-5.4-1-7.2-2.9c-1.8-1.9-2.7-4.3-2.7-7.1s.9-5.1,2.8-7.1c1.9-1.9,4.3-2.9,7.2-2.9s5.4,1,7.2,2.9c1.8,1.9,2.7,4.3,2.7,7.1ZM185.8,236.8c0-1.5-.5-2.8-1.5-3.8-1-1-2.2-1.4-3.6-1.4s-2.6.5-3.6,1.4c-1,1-1.5,2.2-1.5,3.8s.5,2.7,1.5,3.6c1,1,2.2,1.5,3.6,1.5s2.6-.5,3.6-1.5c1-1,1.5-2.2,1.5-3.6Z"/>
      <path class="cls-2" d="M198.3,246.4h-4.9v-19.3h8c1.9,0,3.5.6,4.9,1.7,1.4,1.2,2,2.9,2,5.1s-1,4.5-2.9,5.8l3.6,6.4v.2h-5.1l-3-5.2h-2.8v5.2ZM200.4,231.4h-2.1v5.5h1.7c1.1,0,1.9-.3,2.5-.8s1-1.2,1-2.1-.3-1.5-.9-2c-.6-.5-1.3-.7-2.2-.7Z"/>
    </g>
    <g>
      <path class="cls-2" d="M30.3,26.2v176.5h180.3V26.2H30.3ZM188.1,180.7H52.8V48.2h135.3v132.4Z"/>
      <rect class="cls-2" x="85.6" y="65" width="68.7" height="22.2"/>
      <rect class="cls-2" x="85.6" y="104.1" width="51.4" height="22.2"/>
      <rect class="cls-2" x="85.6" y="143" width="25.7" height="22.2"/>
    </g>
  </g>
</svg>