<?xml version="1.0" encoding="UTF-8"?>
<svg id="Calque_1" data-name="Calque 1" xmlns="http://www.w3.org/2000/svg" version="1.1" viewBox="0 0 377.7 159.3">
  <defs>
    <style>
      .cls-1 {
        fill: #000;
        stroke-width: 0px;
      }
    </style>
  </defs>
  <g>
    <path class="cls-1" d="M58.2,61.9h-4.4v.4h.7c.6,0,1.1.2,1.6.6.4.4.6.9.7,1.6v17.8l-19.6-20.9h-.4c0,.4,0,.9.1,1.3,0,.4,0,.9.1,1.4,0,.5,0,1.1,0,1.7v18.7c0,.6-.2,1.1-.6,1.6-.4.4-.9.6-1.5.6h-.7v.4h7.4v-.4h-.7c-.6,0-1.1-.2-1.5-.6-.4-.4-.6-.9-.6-1.6h0v-17.9s19.6,20.9,19.6,20.9h.3c0-.5-.1-.9-.2-1.4,0-.4,0-.9-.1-1.5,0-.5,0-1.1,0-1.7v-18.5c0-.6.2-1.1.7-1.6.4-.4.9-.6,1.6-.6h.6v-.4h-3Z"/>
    <path class="cls-1" d="M84,86.2c-.5-.3-1-.9-1.3-1.7h0l-8.8-19.5h-.3c0,.2-.1.6-.3,1s-.3.8-.5,1.2c-.2.5-.4,1-.7,1.5l-7.4,16c-.4.7-.8,1.2-1.3,1.6-.5.3-1,.5-1.5.5h-.3v.4h6.9v-.4h-.3c-.2,0-.4,0-.6-.1-.2,0-.4-.2-.5-.5-.1-.2-.2-.4-.3-.7,0-.2,0-.5.1-.8l2-4.8h9.1l2,4.8c0,.3.1.6.1.8,0,.3-.1.5-.3.7-.1.2-.3.4-.5.5-.2,0-.4.1-.6.1h-.3v.4h7.4v-.4h-.3c-.5,0-1-.2-1.5-.5ZM69.4,78.7l4.2-9.8,4,9.8h-8.2Z"/>
    <path class="cls-1" d="M108.6,65.9v-.4h-6.8v.4h.3c.2,0,.4,0,.6.1.2,0,.4.2.5.5.1.2.2.4.3.7,0,.2,0,.5-.1.8l-6.7,15.8-6.4-15.7c0-.3-.1-.6-.1-.9,0-.3.1-.5.3-.7.1-.2.3-.4.5-.5.2,0,.4-.1.6-.1h.3v-.4h-7.4v.4h.3c.5,0,1,.2,1.5.5.5.3,1,.9,1.3,1.7h0l8.8,19.5h.3c0-.2.1-.6.2-1,.1-.4.3-.8.5-1.2.2-.5.4-1,.7-1.5l7.4-16c.4-.7.8-1.2,1.3-1.6.5-.3,1-.5,1.5-.5h.3Z"/>
    <path class="cls-1" d="M129.6,86.2c-.5-.3-1-.9-1.3-1.7h0l-8.8-19.5h-.3c0,.2-.1.6-.3,1s-.3.8-.5,1.2c-.2.5-.4,1-.7,1.5l-7.4,16c-.4.7-.8,1.2-1.3,1.6-.5.3-1,.5-1.5.5h-.3v.4h6.9v-.4h-.3c-.2,0-.4,0-.6-.1-.2,0-.4-.2-.5-.5-.1-.2-.2-.4-.3-.7,0-.2,0-.5.1-.8l2-4.8h9.1l2,4.8c0,.3.1.6.1.8,0,.3-.1.5-.3.7-.1.2-.3.4-.5.5-.2,0-.4.1-.6.1h-.3v.4h7.4v-.4h-.3c-.5,0-1-.2-1.5-.5ZM115,78.7l4.2-9.8,4,9.8h-8.2Z"/>
    <path class="cls-1" d="M150.9,86c-.3-.2-.7-.5-1-.9-.3-.3-.7-.7-1-1.1s-.7-.8-1.1-1.3c-.4-.5-.7-.9-1-1.3-.3-.4-.6-.8-1-1.3-.4-.6-.9-1.1-1.4-1.7s-1-.9-1.4-1.1c.8,0,1.6-.3,2.2-.6.7-.3,1.3-.8,1.8-1.3.5-.5.9-1.1,1.2-1.8.3-.7.4-1.4.4-2.2,0-1.8-.6-3.3-1.9-4.3s-3.1-1.5-5.3-1.5h-9.1v.4h.5c.6,0,1.1.2,1.4.5.3.3.5.7.6,1.1v17.6c0,.4-.3.8-.6,1.1-.4.4-.9.6-1.4.6h-.5v.4h7.4v-.4h-.5c-.6,0-1.1-.2-1.4-.6-.4-.4-.6-.8-.6-1.4v-18.2h2.5c.5,0,1,0,1.6,0,1.4,0,2.6.5,3.4,1.2.8.8,1.3,1.8,1.3,3.2,0,.4,0,.8,0,1.1,0,.3-.1.7-.2.9-.3.8-.6,1.4-1,1.8-.4.4-.8.7-1.3.9-.5.2-1,.3-1.5.4-.5,0-1,0-1.5,0-.3,0-.6,0-.8,0-.2,0-.5,0-.6,0h-.6v.4c.7,0,1.4.2,2,.7.6.5,1.2,1.1,1.7,1.7,0,0,.3.4.6.9.3.5.7,1,1.1,1.5.4.6.8,1.1,1.1,1.6.4.5.6.8.7.9.3.3.6.7,1,1.1.3.4.8.7,1.3,1,.5.3,1.1.6,1.9.8.7.2,1.6.3,2.6.3h1.1v-.4c-.5,0-.9,0-1.3-.2s-.8-.3-1.1-.6Z"/>
    <path class="cls-1" d="M172.6,86c-.3-.2-.7-.5-1-.9-.3-.3-.7-.7-1-1.1s-.7-.8-1.1-1.3c-.4-.5-.7-.9-1-1.3-.3-.4-.6-.8-1-1.3-.4-.6-.9-1.1-1.4-1.7s-1-.9-1.4-1.1c.8,0,1.6-.3,2.2-.6.7-.3,1.3-.8,1.8-1.3.5-.5.9-1.1,1.2-1.8.3-.7.4-1.4.4-2.2,0-1.8-.6-3.3-1.9-4.3s-3.1-1.5-5.3-1.5h-9.1v.4h.5c.6,0,1.1.2,1.4.5.3.3.5.7.6,1.1v17.6c0,.4-.3.8-.6,1.1-.4.4-.9.6-1.4.6h-.5v.4h7.4v-.4h-.5c-.6,0-1.1-.2-1.4-.6-.4-.4-.6-.8-.6-1.4v-18.2h2.5c.5,0,1,0,1.6,0,1.4,0,2.6.5,3.4,1.2.8.8,1.3,1.8,1.3,3.2,0,.4,0,.8,0,1.1,0,.3-.1.7-.2.9-.3.8-.6,1.4-1,1.8-.4.4-.8.7-1.3.9-.5.2-1,.3-1.5.4-.5,0-1,0-1.5,0-.3,0-.6,0-.8,0-.2,0-.5,0-.6,0h-.6v.4c.7,0,1.4.2,2,.7.6.5,1.2,1.1,1.7,1.7,0,0,.3.4.6.9.3.5.7,1,1.1,1.5.4.6.8,1.1,1.1,1.6.4.5.6.8.7.9.3.3.6.7,1,1.1.3.4.8.7,1.3,1,.5.3,1.1.6,1.9.8.7.2,1.6.3,2.6.3h1.1v-.4c-.5,0-.9,0-1.3-.2s-.8-.3-1.1-.6Z"/>
    <path class="cls-1" d="M195.8,68.2c-1.1-1-2.4-1.8-3.9-2.3-1.5-.6-3.1-.8-4.7-.8s-3.3.3-4.7.8c-1.5.6-2.8,1.3-3.9,2.3-1.1,1-2,2.2-2.6,3.6-.6,1.4-1,2.9-1,4.6s.3,3.2,1,4.6c.6,1.4,1.5,2.6,2.6,3.6,1.1,1,2.4,1.8,3.9,2.3,1.5.6,3.1.8,4.7.8s3.3-.3,4.7-.8,2.8-1.3,3.9-2.3c1.1-1,2-2.2,2.6-3.6.6-1.4,1-2.9,1-4.6s-.3-3.2-1-4.6c-.6-1.4-1.5-2.6-2.6-3.6ZM195.9,80.5c-.5,1.3-1.2,2.3-2,3.2-.9.9-1.9,1.6-3,2.1-1.2.5-2.4.7-3.7.7s-2.6-.2-3.7-.7c-1.2-.5-2.2-1.2-3-2.1-.9-.9-1.5-2-2-3.2-.5-1.3-.7-2.6-.7-4.2s.2-2.9.7-4.2c.5-1.3,1.2-2.3,2-3.2.9-.9,1.9-1.6,3-2.1,1.2-.5,2.4-.7,3.7-.7s2.6.2,3.7.7c1.2.5,2.2,1.2,3,2.1.9.9,1.5,2,2,3.2.5,1.3.7,2.6.7,4.2s-.2,2.9-.7,4.2Z"/>
    <path class="cls-1" d="M222.9,61.7c-.4,0-.8.1-1.3.2s-.9,0-1.2,0h-10.4v.4h.5c.6,0,1.2.2,1.6.7.5.4.7,1,.7,1.6v19.9c0,.6-.3,1.2-.7,1.6-.4.4-1,.7-1.6.7h-.5v.4h7.9v-.4h-.5c-.6,0-1.2-.2-1.6-.7-.4-.4-.7-1-.7-1.6v-9.3h6.1c.5,0,.9.2,1.2.5.3.3.5.8.5,1.2v.5h.4v-2.3h0v-1h0v-2.4h-.4v.5c0,.5-.2.9-.5,1.2-.3.3-.7.5-1.2.6h-6.1v-11.2h7.6c.5,0,.9.2,1.2.5.3.3.5.8.5,1.2v.5h.4v-2.3h0v-1.7c-.2,0-.4.1-.8.2-.3,0-.7.1-1.1.2Z"/>
    <path class="cls-1" d="M294.7,65.5h-4.1v.4h.6c.6,0,1,.2,1.4.5.4.4.6.8.6,1.3v14.9l-18.7-17.6h-.4c0,.4,0,.9.1,1.3,0,.4,0,.9.1,1.4,0,.5,0,1.1,0,1.7v15.4c0,.5-.2,1-.6,1.3-.4.4-.9.5-1.4.5h-.9c-.5,0-1-.2-1.5-.5-.5-.3-1-.9-1.3-1.7h0l-8.8-19.5h-.3c0,.2-.1.6-.3,1-.1.4-.3.8-.5,1.2-.2.5-.4,1-.7,1.5l-7.5,16c-.4.7-.8,1.2-1.3,1.5-.3.2-.6.4-1,.4-.2,0-.3,0-.5-.1-.4-.1-.8-.3-1.1-.6-.3-.2-.7-.5-1-.9-.3-.3-.7-.7-1-1.1-.4-.4-.7-.8-1.1-1.3-.4-.5-.7-.9-1-1.3-.3-.4-.6-.8-1-1.3-.4-.6-.9-1.1-1.4-1.7-.5-.6-1-.9-1.4-1.1.8,0,1.6-.3,2.2-.6.7-.3,1.3-.8,1.8-1.3.5-.5.9-1.1,1.2-1.8.3-.7.4-1.4.4-2.2,0-1.8-.6-3.3-1.9-4.3s-3.1-1.5-5.3-1.5h-9.1v.4h.5c.6,0,1.1.2,1.4.5.3.3.5.7.6,1.1v17.6c0,.4-.3.8-.6,1.1-.4.4-.9.6-1.4.6h-.5v.4h7.4v-.4h-.5c-.6,0-1.1-.2-1.4-.6-.4-.4-.6-.8-.6-1.4v-18.2h2.5c.5,0,1,0,1.6,0,1.4,0,2.6.5,3.4,1.2s1.3,1.8,1.3,3.2c0,.4,0,.8,0,1.1,0,.3-.1.7-.2.9-.3.8-.6,1.4-1,1.8-.4.4-.8.7-1.3.9-.5.2-1,.3-1.5.4-.5,0-1,0-1.5,0-.3,0-.6,0-.8,0-.2,0-.5,0-.6,0h-.6v.4c.7,0,1.4.2,2,.7.6.5,1.2,1.1,1.7,1.7,0,0,.3.4.6.9.3.5.7,1,1.1,1.5.4.6.8,1.1,1.1,1.6.4.5.6.8.7.9.3.3.6.7,1,1.1.3.4.8.7,1.3,1,.5.3,1.1.6,1.9.8.5.2,1.2.2,1.9.3h0s.6,0,.6,0h6.2v-.4h-.3c-.2,0-.4,0-.6-.1-.2,0-.4-.2-.5-.5-.1-.2-.2-.4-.3-.7,0-.2,0-.5.1-.8l2-4.8h9.1l2,4.8c.1.3.2.6.1.8,0,.3-.1.5-.3.7-.1.2-.3.4-.5.5s-.4.1-.6.1h-.3v.4h14.2v-.4h-.6c-.6,0-1-.2-1.4-.5-.4-.4-.6-.8-.6-1.3h0v-15s18.7,17.8,18.7,17.8h.3c0-.5-.1-.9-.2-1.4,0-.4,0-.9-.1-1.5,0-.5,0-1.1,0-1.7v-15.3c0-.5.2-1,.6-1.3.4-.4.9-.5,1.4-.5h.6v-.4h-2.7ZM255.4,78.7l4.2-9.8,4,9.8h-8.2Z"/>
    <path class="cls-1" d="M320.2,81.9c-.6,1.1-1.3,1.9-2.2,2.6-.9.7-1.9,1.2-3.1,1.5-1.2.3-2.4.5-3.8.5s-2.7-.2-3.9-.7c-1.1-.5-2.1-1.2-2.9-2.1-.8-.9-1.4-2-1.9-3.2s-.6-2.7-.6-4.2.2-3,.6-4.3,1-2.3,1.9-3.2c.8-.9,1.8-1.6,2.9-2,1.1-.5,2.4-.7,3.8-.7s2.1.1,3.1.3c1,.2,1.8.6,2.6,1.1.8.5,1.4,1.1,2,1.9.6.8,1,1.7,1.2,2.8h.3l-.8-5.1c-1.1-.7-2.4-1.2-3.9-1.6s-3-.6-4.5-.6-3.5.3-4.9.8c-1.5.5-2.7,1.3-3.7,2.2-1,1-1.8,2.2-2.4,3.6-.6,1.4-.8,3-.8,4.7s.3,3.3.8,4.7c.6,1.4,1.3,2.6,2.4,3.5,1,1,2.3,1.7,3.7,2.2s3.1.8,4.9.8,2.1-.1,3.1-.3,1.9-.5,2.8-.9c.9-.4,1.6-.9,2.3-1.5s1.3-1.2,1.7-1.9l.4-4.9h-.3c0,1.5-.4,2.8-1,3.8Z"/>
    <path class="cls-1" d="M342.9,86.4c-.5-.2-.9-.6-1.3-1.1l-8.9-9.7,7.7-8.2h0c.4-.5.9-.8,1.6-1.1.6-.2,1.3-.4,2.1-.4h.1v-.4h-7.3v.4h.3c.4,0,.7.2.9.5.2.3.1.6-.1,1h0s-7.7,9.1-7.7,9.1c1.5,1.6,2.8,3.1,4,4.4l4,4.3c.4.5.9.9,1.4,1.1.5.3,1,.5,1.5.6s.9.2,1.4.3.8,0,1.1,0h1.3v-.4c-.8,0-1.4-.2-1.8-.4Z"/>
    <path class="cls-1" d="M329.6,86.2c-.4-.4-.6-.8-.6-1.4v-17c0-.6.2-1,.6-1.4.4-.4.9-.6,1.5-.6h.4v-.4h-7.4v.4h.4c.6,0,1.1.2,1.5.6.4.4.6.8.6,1.4v17c0,.6-.2,1-.6,1.4s-.9.6-1.5.6h-.4v.4h7.4v-.4h-.4c-.6,0-1.1-.2-1.5-.6Z"/>
  </g>
  <g>
    <path class="cls-1" d="M87.6,130.9h-4.5l-.9,2.1h-1.7l4.1-9.1h1.7l4.1,9.1h-1.8l-.9-2.1ZM87,129.6l-1.7-4-1.7,4h3.4Z"/>
    <path class="cls-1" d="M104.1,133l-1.9-2.7c-.1,0-.2,0-.4,0h-2.1v2.7h-1.7v-9.1h3.7c2.4,0,3.9,1.2,3.9,3.2s-.7,2.4-1.9,2.9l2.1,3h-1.8ZM101.9,125.3h-2v3.6h2c1.5,0,2.2-.7,2.2-1.8s-.8-1.8-2.2-1.8Z"/>
    <path class="cls-1" d="M116.2,125.3h-3v-1.4h7.7v1.4h-3v7.7h-1.7v-7.7Z"/>
    <path class="cls-1" d="M128.9,123.9h1.7v9.1h-1.7v-9.1Z"/>
    <path class="cls-1" d="M139,132l.6-1.3c.7.6,1.9,1,3,1s2-.5,2-1.2c0-2-5.4-.7-5.4-4.1s1.2-2.7,3.7-2.7,2.2.3,3,.8l-.5,1.3c-.8-.5-1.7-.7-2.5-.7-1.4,0-2,.5-2,1.2,0,1.9,5.4.7,5.4,4s-1.2,2.7-3.7,2.7-2.8-.4-3.6-1.1Z"/>
    <path class="cls-1" d="M160.7,130.9h-4.5l-.9,2.1h-1.7l4.1-9.1h1.7l4.1,9.1h-1.8l-.9-2.1ZM160.1,129.6l-1.7-4-1.7,4h3.4Z"/>
    <path class="cls-1" d="M179.3,123.9v9.1h-1.4l-5-6.2v6.2h-1.7v-9.1h1.4l5,6.2v-6.2h1.7Z"/>
    <path class="cls-1" d="M206.5,127.1c0,2-1.5,3.2-3.9,3.2h-2.1v2.6h-1.7v-9.1h3.7c2.4,0,3.9,1.2,3.9,3.2ZM204.8,127.1c0-1.1-.8-1.8-2.2-1.8h-2v3.6h2c1.5,0,2.2-.7,2.2-1.8Z"/>
    <path class="cls-1" d="M221.8,131.6v1.4h-6.8v-9.1h6.6v1.4h-5v2.4h4.4v1.4h-4.4v2.5h5.1Z"/>
    <path class="cls-1" d="M230.4,123.9h1.7v9.1h-1.7v-9.1Z"/>
    <path class="cls-1" d="M249.4,123.9v9.1h-1.4l-5-6.2v6.2h-1.7v-9.1h1.4l5,6.2v-6.2h1.7Z"/>
    <path class="cls-1" d="M260.5,125.3h-3v-1.4h7.7v1.4h-3v7.7h-1.7v-7.7Z"/>
    <path class="cls-1" d="M279.2,133l-1.9-2.7c-.1,0-.2,0-.4,0h-2.1v2.7h-1.7v-9.1h3.7c2.4,0,3.9,1.2,3.9,3.2s-.7,2.4-1.9,2.9l2.1,3h-1.8ZM276.9,125.3h-2v3.6h2c1.5,0,2.2-.7,2.2-1.8s-.8-1.8-2.2-1.8Z"/>
    <path class="cls-1" d="M296.3,131.6v1.4h-6.8v-9.1h6.6v1.4h-5v2.4h4.4v1.4h-4.4v2.5h5.1Z"/>
  </g>
  <polygon class="cls-1" points="19.6 24 19.6 129.4 62.5 129.4 62.5 128.4 20.6 128.4 20.6 25 356.4 25 356.4 128.4 323.5 128.4 323.5 129.4 357.4 129.4 357.4 24 19.6 24"/>
</svg>