<svg width="256" height="256" viewBox="0 0 256 256" fill="none" xmlns="http://www.w3.org/2000/svg">
<g clip-path="url(#clip0_574_16208)">
<path d="M229.329 181.436C227.72 181.436 226.107 181.441 224.498 181.431C224.199 181.431 223.9 181.356 223.602 181.317C223.761 181.043 223.905 180.759 224.085 180.5C225.151 178.986 226.226 177.482 227.297 175.972C228.831 173.811 230.375 171.649 231.889 169.473C232.193 169.03 232.517 168.84 233.07 168.845C236.451 168.87 239.838 168.855 243.22 168.86C243.454 168.86 243.693 168.91 243.927 168.935C243.828 169.144 243.728 169.348 243.633 169.558C242.841 171.311 241.541 172.033 239.599 171.719C238.698 171.575 237.746 171.754 236.825 171.679C236.033 171.619 235.525 171.898 235.181 172.591C235.077 172.805 234.907 172.984 234.768 173.183C234.519 173.547 234.544 173.761 235.057 173.761C236.387 173.756 237.716 173.751 239.046 173.766C239.385 173.766 239.729 173.861 240.067 173.916C239.913 174.229 239.798 174.563 239.604 174.852C238.82 176.021 237.74 176.605 236.362 176.605C235.395 176.605 234.424 176.66 233.463 176.59C232.641 176.53 232.068 176.769 231.71 177.516C231.56 177.83 231.366 178.129 231.192 178.433C231.531 178.488 231.864 178.587 232.203 178.592C233.493 178.612 234.778 178.592 236.068 178.607C236.362 178.612 236.656 178.727 236.949 178.791C236.83 179.031 236.74 179.295 236.581 179.509C236.108 180.151 235.729 180.998 235.092 181.342C234.489 181.66 233.956 181.511 233.194 181.511C232.024 181.511 230.5 181.441 229.329 181.441" fill="#254A91"/>
<path d="M246.975 181.437C245.367 181.437 243.753 181.442 242.144 181.432C241.84 181.432 241.541 181.362 241.238 181.322C241.397 181.048 241.537 180.764 241.716 180.505C243.897 177.422 246.084 174.344 248.27 171.271C248.828 170.489 249.251 169.423 250.013 169.02C250.775 168.617 251.891 168.876 252.852 168.861C253.495 168.851 254.142 168.876 254.785 168.856C255.263 168.841 255.363 168.975 255.079 169.379C254.167 170.654 253.256 171.929 252.354 173.209C251.264 174.748 250.178 176.292 249.102 177.846C248.972 178.03 248.928 178.269 248.843 178.483C249.072 178.523 249.301 178.593 249.535 178.598C251.024 178.608 252.514 178.593 254.003 178.613C254.73 178.623 254.79 178.767 254.401 179.37C253.511 180.754 252.243 181.447 250.596 181.447C249.391 181.447 248.181 181.447 246.975 181.447" fill="#254A91"/>
<path d="M214.661 181.437C214.019 181.437 213.372 181.397 212.729 181.446C212.161 181.491 211.867 181.247 211.613 180.769C210.617 178.931 209.586 177.118 208.565 175.296C208.406 175.017 208.271 174.723 208.102 174.449C207.748 173.881 207.684 173.871 207.305 174.389C206.314 175.759 205.338 177.133 204.362 178.513C203.804 179.3 203.231 180.077 202.698 180.879C202.459 181.242 202.21 181.451 201.742 181.441C200.293 181.412 198.843 181.427 197.394 181.437C196.926 181.437 196.951 181.277 197.175 180.963C198.848 178.603 200.512 176.232 202.185 173.871C203.231 172.397 204.297 170.938 205.318 169.443C205.632 168.985 205.975 168.831 206.518 168.846C207.848 168.881 209.178 168.881 210.508 168.846C211.031 168.831 211.315 169.025 211.549 169.458C212.55 171.291 213.576 173.109 214.592 174.937C214.751 175.216 214.901 175.5 215.065 175.774C215.458 176.416 215.488 176.431 215.917 175.838C217.212 174.045 218.556 172.287 219.752 170.43C220.494 169.279 221.276 168.587 222.74 168.836C223.562 168.975 224.428 168.851 225.275 168.866C225.574 168.871 225.873 168.945 226.167 168.985C226.032 169.229 225.918 169.483 225.758 169.707C224.369 171.68 222.974 173.642 221.579 175.609C220.349 177.347 219.094 179.071 217.894 180.829C217.58 181.282 217.251 181.476 216.708 181.441C216.026 181.402 215.339 181.432 214.656 181.432" fill="#254A91"/>
<path d="M136.562 174.419C138.051 174.419 139.54 174.414 141.034 174.423C141.248 174.423 141.467 174.513 141.682 174.558C141.567 174.757 141.472 174.976 141.338 175.161C139.724 177.377 137.498 178.801 135.052 179.892C131.601 181.436 127.955 181.909 124.215 181.63C123.149 181.551 122.068 181.277 121.062 180.908C118.731 180.052 118.074 178.184 119.249 175.992C120.171 174.279 121.595 173.044 123.199 172.008C125.903 170.25 128.897 169.284 132.084 168.85C134.29 168.546 136.497 168.427 138.683 168.885C139.53 169.059 140.347 169.438 141.134 169.807C141.472 169.966 141.766 170.31 141.97 170.643C142.195 171.007 142.439 171.465 142.409 171.859C142.359 172.486 141.706 172.222 141.328 172.317C139.884 172.66 138.424 172.939 136.975 173.253C136.671 173.318 136.487 173.353 136.387 172.934C136.138 171.888 135.247 171.614 134.35 171.545C130.934 171.271 128.005 172.381 125.689 174.907C123.946 176.809 124.509 178.532 127.014 178.911C129.091 179.225 131.088 178.796 132.891 177.656C133.08 177.536 133.23 177.342 133.394 177.183C133.145 177.128 132.896 177.033 132.642 177.028C131.755 177.008 130.869 177.013 129.982 177.028C129.469 177.033 129.449 176.879 129.713 176.475C131.043 174.428 131.038 174.423 133.543 174.428C134.549 174.428 135.555 174.428 136.567 174.428" fill="#254A91"/>
<path d="M153.456 168.86C153.615 168.86 153.779 168.855 153.939 168.86C154.641 168.895 155.343 168.94 156.05 168.98C155.662 169.582 155.288 170.195 154.875 170.783C153.7 172.461 152.499 174.12 151.324 175.803C151.025 176.227 150.756 176.685 150.562 177.163C150.273 177.875 150.492 178.283 151.214 178.577C151.399 178.652 151.593 178.727 151.792 178.742C154.312 178.956 156.509 178.343 158.068 176.207C159.651 174.03 161.23 171.844 162.759 169.632C163.143 169.079 163.516 168.805 164.219 168.84C165.504 168.9 166.794 168.85 168.083 168.86C168.263 168.86 168.447 168.935 168.626 168.975C168.557 169.114 168.502 169.264 168.412 169.393C166.719 171.789 165.025 174.184 163.317 176.57C161.24 179.484 158.222 180.789 154.845 181.366C152.38 181.79 149.885 181.894 147.404 181.426C146.856 181.322 146.309 181.162 145.796 180.948C144.406 180.37 143.988 179.319 144.585 177.92C144.804 177.407 145.083 176.909 145.402 176.451C147.031 174.11 148.689 171.784 150.323 169.443C150.627 169.005 150.98 168.805 151.523 168.845C152.166 168.89 152.813 168.855 153.456 168.855V168.86Z" fill="#254A91"/>
<path d="M183.414 181.675C181.501 181.73 179.643 181.466 177.885 180.664C177.133 180.321 177.138 180.246 177.835 179.783C178.373 179.429 178.931 179.11 179.469 178.757C180.495 178.079 181.367 177.457 182.756 178.363C184.051 179.205 185.705 179.026 187.204 178.538C187.612 178.403 188.016 178.174 188.354 177.9C188.812 177.532 188.773 177.098 188.235 176.864C187.692 176.625 187.089 176.516 186.511 176.356C185.62 176.117 184.709 175.948 183.842 175.644C182.572 175.201 182.263 174.454 182.995 173.328C183.533 172.501 184.215 171.714 184.997 171.117C186.995 169.588 189.345 168.86 191.821 168.656C193.987 168.477 196.169 168.542 198.256 169.299C198.51 169.388 198.739 169.553 198.978 169.682C198.794 169.832 198.619 169.996 198.42 170.13C197.917 170.464 197.389 170.763 196.906 171.117C195.955 171.814 195.108 172.292 193.813 171.625C192.797 171.102 191.537 171.246 190.411 171.704C190.083 171.839 189.744 171.998 189.465 172.217C189.012 172.576 189.032 172.905 189.565 173.109C190.237 173.363 190.949 173.502 191.646 173.692C192.304 173.866 192.981 173.98 193.619 174.215C195.272 174.817 195.576 175.858 194.53 177.288C193.459 178.757 192.05 179.803 190.356 180.44C188.12 181.287 185.809 181.755 183.409 181.675" fill="#254A91"/>
<path d="M168.591 181.437C167.909 181.437 167.227 181.427 166.54 181.437C166.121 181.446 165.917 181.392 166.246 180.938C167.302 179.469 168.333 177.99 169.373 176.516C170.922 174.319 172.491 172.138 174.01 169.921C174.523 169.169 175.066 168.736 176.057 168.831C177.213 168.94 178.388 168.846 179.554 168.861C180.201 168.866 180.231 168.91 179.872 169.428C178.538 171.331 177.183 173.224 175.833 175.121C174.488 177.019 173.134 178.911 171.809 180.824C171.505 181.257 171.196 181.491 170.643 181.451C169.966 181.402 169.279 181.441 168.596 181.441" fill="#254A91"/>
<path d="M16.0423 175.385C17.2526 175.385 18.4579 175.39 19.6682 175.385C20.0965 175.385 20.1164 175.549 19.9421 175.883C19.1203 177.467 17.8752 178.632 16.3611 179.534C14.3589 180.729 12.1824 181.417 9.87643 181.606C7.95394 181.765 6.00654 181.875 4.10397 181.407C3.29713 181.207 2.49028 180.904 1.75814 180.51C0.144442 179.638 -0.363574 178.159 0.249033 176.406C0.871601 174.613 2.09682 173.298 3.64576 172.302C8.01868 169.488 12.8199 168.821 17.8752 169.633C19.1651 169.837 20.3007 170.449 21.2769 171.336C21.5956 171.625 21.6405 171.854 21.1823 172.028C20.9581 172.113 20.7141 172.178 20.5198 172.312C19.5586 172.96 18.7667 172.965 17.7806 172.158C16.5205 171.122 14.862 171.072 13.2931 171.102C10.1952 171.162 7.33137 171.998 5.00047 174.135C4.37292 174.713 3.84997 175.48 3.47643 176.252C2.95845 177.327 3.32203 178.289 4.28825 178.976C5.17479 179.609 6.22071 179.818 7.2467 179.907C9.6523 180.117 11.9732 179.733 14.1099 178.538C14.2145 178.478 14.329 178.423 14.4087 178.339C14.7225 178 15.0263 177.651 15.3351 177.303C14.9217 177.243 14.5133 177.143 14.0999 177.128C13.1735 177.103 12.2472 177.113 11.3208 177.118C10.9273 177.118 10.7132 177.098 10.9622 176.605C11.3955 175.739 11.9434 175.241 13.0142 175.36C14.0103 175.47 15.0263 175.385 16.0324 175.385" fill="#254A91"/>
<path d="M78.6528 181.526C77.3728 181.496 76.1426 181.362 75.0668 180.61C74.7132 180.361 74.5787 180.59 74.4143 180.839C73.6772 181.945 72.8853 183.015 72.2179 184.161C71.7946 184.883 71.2816 185.187 70.4647 185.072C69.9219 184.998 69.369 184.988 68.8212 184.953C69.1001 184.475 69.3541 183.982 69.6579 183.518C71.6551 180.495 73.6772 177.492 75.6495 174.459C76.023 173.886 76.4215 173.587 77.1038 173.692C77.7563 173.796 78.4486 173.498 79.0861 173.926C79.2255 174.021 79.5493 173.886 79.7734 173.816C81.2277 173.373 82.7269 173.333 84.2011 173.488C86.537 173.732 87.6476 174.967 86.3577 177.377C85.242 179.454 83.3444 180.565 81.1381 181.163C80.3312 181.377 79.4795 181.412 78.6478 181.526M81.6062 174.668C79.1807 174.812 77.4475 175.779 76.3966 177.816C75.8437 178.892 76.2023 179.664 77.3678 180.017C79.8232 180.764 82.941 179.106 83.6483 176.68C83.9023 175.804 83.6184 175.211 82.7318 174.902C82.3234 174.763 81.8802 174.723 81.6112 174.668" fill="#254A91"/>
<path d="M98.8041 177.811C97.4743 177.811 96.1494 177.801 94.8196 177.821C94.461 177.821 93.9978 177.626 93.8434 178.229C93.6841 178.837 93.7837 179.484 94.2867 179.718C94.8146 179.962 95.4272 180.137 96.005 180.156C97.1406 180.196 98.2213 179.883 99.2473 179.38C99.5262 179.245 99.8898 178.996 100.104 179.081C100.572 179.27 100.976 179.634 101.389 179.947C101.394 179.952 101.264 180.256 101.155 180.286C99.855 180.674 98.57 181.212 97.2402 181.357C95.8655 181.506 94.4511 181.272 93.0515 181.177C92.7826 181.158 92.5087 181.038 92.2546 180.923C90.6509 180.201 90.2624 178.916 91.144 177.377C92.1052 175.704 93.6841 174.872 95.3824 174.19C97.295 173.428 99.2971 173.333 101.314 173.483C101.862 173.522 102.42 173.692 102.928 173.916C104.093 174.434 104.507 175.281 104.248 176.436C104.009 177.517 103.655 177.801 102.539 177.806C101.294 177.806 100.044 177.806 98.7991 177.806L98.8041 177.811ZM97.9374 176.59C98.819 176.595 99.6956 176.615 100.577 176.58C100.816 176.57 101.2 176.441 101.254 176.282C101.344 176.023 101.309 175.609 101.15 175.41C100.916 175.121 100.532 174.837 100.179 174.782C98.3608 174.509 96.6973 174.922 95.2579 176.107C95.1434 176.202 95.0886 176.361 95.0039 176.486C95.1434 176.521 95.2778 176.585 95.4173 176.585C96.259 176.595 97.0957 176.585 97.9374 176.585" fill="#254A91"/>
<path d="M40.8255 181.596C39.7248 181.397 38.5942 181.302 37.5384 180.968C35.7254 180.391 35.2772 179.026 36.2235 177.372C36.8012 176.366 37.638 175.619 38.6241 175.057C41.4331 173.448 44.4613 173.149 47.609 173.627C47.8082 173.657 48.0075 173.692 48.1967 173.757C50.433 174.494 50.9609 176.162 49.5315 178.045C48.3312 179.624 46.6279 180.445 44.7801 180.929C43.51 181.262 42.1802 181.377 40.8255 181.596ZM44.7502 174.643C43.5897 174.653 42.5139 174.977 41.4979 175.465C40.4669 175.963 39.5953 176.67 39.0773 177.726C38.4747 178.956 38.8333 179.683 40.1631 180.042C41.3385 180.356 42.489 180.182 43.5997 179.843C45.0938 179.385 46.3738 178.558 47.0412 177.059C47.5692 175.878 47.2604 175.221 46.0402 174.872C45.6218 174.753 45.1785 174.713 44.7502 174.638" fill="#254A91"/>
<path d="M59.1539 181.571C57.9187 181.417 56.9077 181.377 55.9364 181.148C54.4771 180.804 54.0189 179.778 54.776 178.513C55.6824 176.994 56.6985 175.545 57.6946 174.085C57.8291 173.891 58.1378 173.722 58.3719 173.712C59.1738 173.682 59.9757 173.737 60.7775 173.757C60.399 174.399 60.0404 175.051 59.647 175.684C59.0692 176.605 58.4317 177.482 57.8938 178.423C57.3559 179.365 57.58 179.858 58.6459 180.042C60.4737 180.356 62.2169 180.167 63.482 178.628C64.3735 177.547 65.2451 176.421 65.9175 175.196C66.5898 173.971 67.4465 173.448 68.8062 173.692C69.0004 173.727 69.2096 173.697 69.4088 173.702C69.6778 173.702 69.9218 173.737 69.6728 174.09C68.4775 175.799 67.322 177.542 66.0619 179.205C65.3397 180.162 64.249 180.679 63.0935 180.929C61.7288 181.222 60.3343 181.387 59.1589 181.571" fill="#254A91"/>
<path d="M35.1975 173.751C35.1029 174.15 33.7581 174.922 33.3846 174.842C31.2081 174.399 29.5296 175.255 28.2447 176.919C27.2884 178.154 26.4716 179.494 25.6199 180.809C25.331 181.252 25.0173 181.501 24.4495 181.446C23.7721 181.381 23.0898 181.391 22.4075 181.366C22.7362 180.784 23.04 180.186 23.4036 179.628C24.5441 177.88 25.7395 176.167 26.8501 174.399C27.1988 173.846 27.5823 173.552 28.2048 173.696C28.8473 173.851 29.6293 173.273 30.1721 174.065C30.212 174.12 30.6054 173.936 30.8296 173.856C32.1046 173.393 33.4195 173.358 34.7493 173.507C34.9086 173.527 35.0581 173.672 35.1875 173.746" fill="#254A91"/>
<path d="M233.179 208.311C232.586 208.217 231.984 208.167 231.411 208.012C230.36 207.719 230.031 207.056 230.52 206.105C231.067 205.039 231.72 204.018 232.347 202.997C232.557 202.658 233.807 202.429 234.106 202.663C234.165 202.713 234.155 202.942 234.101 203.042C233.662 203.809 233.199 204.561 232.761 205.328C232.601 205.602 232.442 205.891 232.357 206.195C232.218 206.668 232.432 207.001 232.915 207.066C233.981 207.211 235.052 207.201 235.804 206.294C236.417 205.557 236.91 204.725 237.452 203.933C237.657 203.635 237.821 203.311 238.04 203.022C238.324 202.648 239.714 202.419 239.753 202.708C239.803 203.037 239.559 203.43 239.38 203.759C239.116 204.252 238.752 204.695 238.508 205.198C237.413 207.415 235.52 208.212 233.179 208.316" fill="#706F6F"/>
<path d="M218.133 208.267C217.794 208.207 217.271 208.152 216.773 208.017C215.752 207.749 215.379 207.166 215.817 206.234C216.36 205.079 217.062 203.993 217.729 202.897C217.924 202.579 219.154 202.444 219.398 202.703C219.473 202.788 219.428 203.062 219.348 203.201C218.875 204.038 218.347 204.85 217.894 205.697C217.391 206.643 217.605 207.006 218.671 207.096C219.926 207.201 220.967 206.832 221.664 205.716C222.152 204.935 222.65 204.158 223.148 203.381C223.626 202.629 224.02 202.454 224.827 202.604C225.136 202.658 225.27 202.828 225.101 203.097C224.304 204.347 223.616 205.697 222.65 206.802C221.55 208.052 219.901 208.162 218.138 208.267" fill="#706F6F"/>
<path d="M217.57 199.097C217.53 199.097 217.69 199.077 217.849 199.097C218.143 199.137 218.611 199.047 218.536 199.521C218.482 199.879 218.292 200.357 217.754 200.238C216.295 199.919 215.797 200.995 215.199 201.946C214.94 202.354 214.97 202.589 215.543 202.603C215.762 202.608 215.981 202.793 216.2 202.892C215.971 203.141 215.692 203.634 215.523 203.6C214.069 203.301 213.71 204.401 213.172 205.308C212.744 206.03 212.301 206.747 211.852 207.455C211.559 207.918 210.558 208.212 210.089 207.948C210.005 207.903 209.975 207.594 210.045 207.474C210.483 206.712 210.951 205.965 211.414 205.213C211.623 204.87 211.828 204.526 212.042 204.187C212.246 203.864 212.356 203.615 211.788 203.629C211.569 203.634 211.349 203.545 211.13 203.495C211.285 203.231 211.434 202.967 211.608 202.713C211.643 202.663 211.758 202.633 211.833 202.643C213.073 202.828 213.461 201.881 213.934 201.055C214.696 199.72 215.817 199.017 217.58 199.082" fill="#706F6F"/>
<path d="M229.977 200.547C230.116 200.547 230.156 200.547 230.196 200.547C230.657 200.557 230.768 200.782 230.529 201.224C230.395 201.468 230.255 201.717 230.111 201.956C229.897 202.31 229.882 202.554 230.395 202.594C230.574 202.608 230.744 202.718 230.918 202.783C230.808 203.027 230.734 203.296 230.579 203.51C230.509 203.61 230.28 203.669 230.146 203.639C229.12 203.42 228.756 204.138 228.353 204.84C227.875 205.677 227.367 206.493 226.874 207.315C226.525 207.898 225.529 208.246 224.936 207.973C224.881 207.948 224.876 207.649 224.946 207.534C225.569 206.458 226.216 205.398 226.849 204.332C227.187 203.759 227.182 203.684 226.515 203.674C225.848 203.664 226.012 203.371 226.251 203.077C226.41 202.882 226.699 202.638 226.909 202.658C227.865 202.748 228.263 202.14 228.602 201.428C228.901 200.796 229.274 200.317 229.977 200.547Z" fill="#706F6F"/>
<path d="M245.69 203.57C244.156 203.44 243.285 204.242 242.577 205.273C242.104 205.965 241.711 206.717 241.268 207.43C240.959 207.928 239.918 208.226 239.39 207.972C239.33 207.943 239.295 207.708 239.345 207.624C240.261 206.075 241.183 204.526 242.134 202.992C242.423 202.529 243.2 202.389 243.872 202.753C244.176 202.917 244.331 202.862 244.604 202.798C245.257 202.643 245.929 202.559 246.602 202.489C246.761 202.469 246.935 202.603 247.105 202.668C247.035 202.803 246.98 202.947 246.901 203.072C246.572 203.56 246.124 203.734 245.7 203.57" fill="#706F6F"/>
<path d="M15.4397 208.311C14.8619 208.217 14.2145 208.162 13.6018 208.002C12.1475 207.624 11.7491 206.777 12.3766 205.373C12.6555 204.75 13.0141 204.167 13.3578 203.58C14.0053 202.469 14.6627 201.363 15.3251 200.263C15.5343 199.914 15.7385 199.565 16.2415 199.63C16.63 199.685 17.0235 199.705 17.412 199.745C17.2625 200.098 17.148 200.477 16.9538 200.806C16.1419 202.19 15.2753 203.545 14.4884 204.944C13.7911 206.18 14.0352 206.643 15.4247 206.957C16.9488 207.3 19.4888 206.698 20.6941 204.611C21.5558 203.117 22.4822 201.657 23.3886 200.183C23.6775 199.715 24.8131 199.411 25.2862 199.675C25.3609 199.715 25.4306 199.869 25.4107 199.954C25.3759 200.103 25.2812 200.248 25.2015 200.382C24.2602 201.926 23.284 203.445 22.3776 205.009C21.3914 206.713 19.8176 207.514 18.0196 207.963C17.2078 208.167 16.3511 208.192 15.4446 208.311" fill="#706F6F"/>
<path d="M190.934 202.315C191.602 202.534 192.299 202.698 192.931 202.997C193.325 203.181 193.469 203.127 193.668 202.783C194.251 201.777 194.864 200.791 195.471 199.805C195.825 199.232 196.761 198.918 197.339 199.197C197.409 199.227 197.429 199.531 197.359 199.65C196.866 200.522 196.348 201.379 195.835 202.235C194.864 203.849 193.893 205.463 192.916 207.071C192.324 208.047 191.856 208.301 190.77 207.938C190.366 207.803 190.112 207.858 189.779 207.968C188.763 208.287 187.742 208.391 186.706 208.038C185.864 207.754 185.585 207.3 185.71 206.414C185.983 204.461 188.045 202.644 190.162 202.499C190.401 202.484 190.645 202.499 190.884 202.499L190.939 202.33L190.934 202.315ZM191.029 203.411C189.405 203.421 188.125 204.332 187.717 205.622C187.468 206.404 187.811 206.947 188.633 207.076C190.237 207.325 191.751 206.449 192.364 204.92C192.652 204.193 192.408 203.66 191.656 203.465C191.392 203.396 191.103 203.416 191.029 203.411Z" fill="#706F6F"/>
<path d="M148.674 202.643C149.312 203.151 150.134 202.588 150.99 202.509C151.862 202.429 152.753 202.568 153.635 202.598C154.048 202.608 154.038 202.882 154.058 203.176C154.108 203.898 154.178 204.615 154.248 205.333C154.262 205.477 154.322 205.617 154.362 205.761C154.497 205.686 154.646 205.621 154.765 205.527C155.707 204.775 156.633 204.003 157.594 203.276C157.933 203.017 158.332 202.763 158.74 202.668C159.143 202.573 159.597 202.683 160.025 202.703C159.746 203.002 159.507 203.35 159.188 203.594C157.37 204.984 155.537 206.349 153.705 207.723C152.903 208.326 152.848 208.311 152.714 207.285C152.584 206.289 152.484 205.293 152.4 204.292C152.355 203.714 152.34 203.266 151.518 203.599C151.145 203.754 150.642 203.545 150.218 203.609C149.347 203.744 148.644 204.182 148.161 204.944C147.623 205.791 147.09 206.643 146.553 207.489C146.289 207.908 144.999 208.246 144.645 207.972C144.59 207.927 144.62 207.703 144.68 207.599C145.019 207.006 145.382 206.428 145.736 205.846C146.259 204.989 146.807 204.147 147.29 203.271C147.559 202.783 147.882 202.534 148.674 202.653" fill="#706F6F"/>
<path d="M110.289 208.002C109.547 207.639 108.665 208.057 107.749 208.157C107.057 208.231 106.305 208.142 105.627 207.948C104.796 207.708 104.561 207.141 104.731 206.254C105.084 204.362 107.146 202.603 109.203 202.489C110.16 202.434 111.146 202.344 111.978 202.987C112.266 203.211 112.431 203.111 112.655 202.862C112.794 202.708 113.078 202.618 113.297 202.608C113.646 202.593 113.995 202.668 114.343 202.708C114.219 203.027 114.134 203.365 113.965 203.654C113.248 204.86 112.505 206.045 111.768 207.24C111.456 207.748 110.961 208.001 110.284 207.997M108.227 207.071C109.662 207.071 110.907 206.224 111.4 204.914C111.679 204.177 111.415 203.57 110.673 203.45C108.81 203.151 107.366 203.973 106.743 205.671C106.484 206.379 106.867 206.951 107.625 207.066C107.819 207.096 108.028 207.066 108.227 207.066" fill="#706F6F"/>
<path d="M141.134 205.537C140.332 205.537 139.525 205.507 138.718 205.552C138.444 205.567 138.185 205.786 137.916 205.911C138.091 206.239 138.21 206.807 138.444 206.857C139.122 207.006 139.849 206.986 140.551 206.947C140.85 206.932 141.169 206.747 141.428 206.568C141.801 206.309 142.075 206.424 142.394 206.663C142.747 206.932 142.787 207.146 142.369 207.36C140.735 208.192 139.032 208.53 137.254 207.943C136.078 207.554 135.715 206.603 136.208 205.447C136.736 204.212 137.782 203.55 138.917 203.007C140.192 202.394 141.567 202.374 142.932 202.499C143.873 202.584 144.545 203.221 144.615 203.958C144.715 204.934 144.182 205.522 143.181 205.527C142.498 205.532 141.811 205.527 141.129 205.527M140.695 204.651C141.213 204.656 141.731 204.675 142.249 204.646C142.409 204.636 142.648 204.511 142.683 204.392C142.727 204.232 142.673 203.948 142.553 203.859C142.309 203.669 142.01 203.495 141.711 203.46C140.72 203.341 139.834 203.674 139.012 204.207C138.932 204.257 138.868 204.412 138.883 204.501C138.892 204.566 139.047 204.646 139.141 204.646C139.659 204.661 140.177 204.651 140.695 204.651Z" fill="#706F6F"/>
<path d="M38.664 205.537C37.8969 205.537 37.1349 205.532 36.3679 205.537C36.0243 205.537 35.5959 205.423 35.5262 205.965C35.4615 206.463 35.6557 206.927 36.1488 206.981C36.8112 207.056 37.4935 206.991 38.1609 206.912C38.4647 206.877 38.7436 206.658 39.0425 206.548C39.2118 206.488 39.4459 206.394 39.5754 206.463C39.8394 206.608 40.0485 206.847 40.2826 207.046C40.0635 207.201 39.8593 207.395 39.6152 207.509C38.151 208.187 36.6468 208.481 35.0531 208.007C33.5938 207.574 33.1605 206.608 33.8876 205.258C34.8289 203.505 36.4825 202.823 38.3103 202.499C38.9727 202.384 39.68 202.424 40.3573 202.489C41.8216 202.623 42.4691 203.649 41.9661 204.905C41.7917 205.338 41.5527 205.547 41.0745 205.537C40.2727 205.517 39.4658 205.532 38.659 205.532L38.664 205.537ZM38.141 204.656C38.7038 204.656 39.2666 204.68 39.8294 204.646C40.2677 204.621 40.4071 204.227 40.1133 203.894C40.0137 203.779 39.8692 203.694 39.7298 203.62C38.9429 203.216 37.0403 203.625 36.4924 204.312C36.4476 204.367 36.4028 204.496 36.4227 204.516C36.4974 204.581 36.602 204.646 36.6966 204.651C37.1798 204.665 37.6629 204.656 38.146 204.656" fill="#706F6F"/>
<path d="M176.456 205.537C175.694 205.537 174.932 205.527 174.165 205.542C173.871 205.547 173.423 205.427 173.428 205.9C173.428 206.214 173.582 206.618 173.811 206.807C174.06 207.011 174.488 207.131 174.812 207.091C175.475 207.011 176.162 206.887 176.765 206.613C177.253 206.389 177.576 206.463 177.955 206.742C178.204 206.922 178.279 207.086 177.965 207.265C176.247 208.241 174.444 208.58 172.551 207.873C171.515 207.484 171.176 206.663 171.63 205.637C171.869 205.099 172.202 204.561 172.631 204.162C174.309 202.593 176.381 202.245 178.567 202.539C179.823 202.708 180.331 203.709 179.922 204.825C179.733 205.348 179.454 205.587 178.866 205.547C178.069 205.492 177.263 205.532 176.461 205.532M176.062 204.655C176.625 204.655 177.193 204.675 177.751 204.64C177.91 204.63 178.159 204.491 178.189 204.366C178.229 204.212 178.129 203.913 178.005 203.853C177.621 203.664 177.178 203.41 176.794 203.46C176.097 203.545 175.415 203.809 174.742 204.048C174.543 204.117 174.404 204.352 174.234 204.506C174.439 204.556 174.643 204.635 174.852 204.65C175.255 204.675 175.654 204.655 176.057 204.655" fill="#706F6F"/>
<path d="M95.5169 205.537C94.7101 205.537 93.9032 205.512 93.1013 205.552C92.8722 205.562 92.4838 205.751 92.4738 205.89C92.4439 206.169 92.5336 206.583 92.7328 206.727C93.0316 206.951 93.4799 207.126 93.8385 207.086C94.5407 207.006 95.2679 206.852 95.9104 206.563C96.3786 206.354 96.6375 206.448 96.9762 206.722C97.3249 206.996 97.2203 207.136 96.8965 207.32C95.3177 208.187 93.6592 208.51 91.901 207.997C90.5712 207.609 90.1329 206.618 90.7605 205.382C91.7068 203.515 93.4301 202.803 95.3625 202.499C96.0299 202.394 96.7371 202.429 97.4145 202.509C98.7493 202.658 99.3619 203.629 98.9684 204.785C98.7692 205.373 98.4405 205.597 97.8179 205.557C97.0559 205.502 96.2889 205.547 95.5219 205.542M95.2081 204.655C95.7311 204.655 96.254 204.675 96.777 204.64C96.9364 204.63 97.1854 204.501 97.2203 204.381C97.2601 204.227 97.1804 203.918 97.0559 203.858C96.6724 203.669 96.2391 203.425 95.8456 203.45C95.2231 203.49 94.6005 203.694 94.0028 203.908C93.7289 204.008 93.5147 204.287 93.2757 204.486C93.5596 204.541 93.8385 204.62 94.1224 204.645C94.481 204.67 94.8445 204.65 95.2081 204.65" fill="#706F6F"/>
<path d="M29.2159 203.366C28.2397 203.346 27.2386 204.088 26.4816 205.208C25.9686 205.97 25.5253 206.782 25.0372 207.564C24.8081 207.928 23.5181 208.212 23.2143 207.958C23.1546 207.908 23.1795 207.674 23.2392 207.574C24.1407 206.06 25.0472 204.551 25.9735 203.052C26.2674 202.574 27.0543 202.345 27.6619 202.728C28.1002 203.007 28.3692 202.828 28.7427 202.778C29.6492 202.648 30.5656 202.499 31.4721 202.504C32.8367 202.514 33.275 203.276 32.6375 204.466C32.1096 205.453 31.5069 206.404 30.9242 207.36C30.5656 207.953 29.7139 208.237 29.0714 207.978C29.0017 207.953 28.9619 207.654 29.0216 207.539C29.4051 206.837 29.8235 206.155 30.2319 205.462C30.3365 205.288 30.456 205.129 30.5507 204.954C31.1483 203.874 30.8644 203.366 29.2059 203.366" fill="#706F6F"/>
<path d="M77.2531 208.256C76.9145 208.191 76.267 208.127 75.6644 207.932C74.9422 207.698 74.6234 207.091 74.9621 206.408C75.5647 205.193 76.2321 203.993 77.0191 202.892C77.2233 202.608 77.9654 202.703 78.4634 202.658C78.4784 202.658 78.6178 203.076 78.5381 203.216C78.2194 203.819 77.8408 204.386 77.4872 204.969C77.303 205.278 77.1037 205.587 76.9693 205.915C76.6854 206.593 76.9145 206.981 77.6765 207.076C78.8619 207.22 79.9377 206.986 80.6698 205.955C81.2475 205.138 81.7705 204.282 82.3034 203.435C82.8065 202.638 83.1999 202.454 84.0815 202.593C84.4052 202.643 84.5048 202.798 84.3255 203.076C83.5436 204.287 82.7965 205.527 81.9598 206.697C81.2326 207.713 79.4595 208.191 77.2482 208.251" fill="#706F6F"/>
<path d="M197.902 208.247C197.668 208.202 197.19 208.147 196.727 208.022C195.696 207.743 195.322 207.161 195.76 206.239C196.308 205.079 196.951 203.943 197.718 202.927C197.957 202.614 198.744 202.708 199.282 202.638C199.297 202.638 199.426 202.977 199.366 203.087C198.998 203.754 198.589 204.397 198.196 205.054C198.012 205.363 197.802 205.667 197.668 206C197.424 206.588 197.603 206.937 198.236 207.046C199.446 207.265 200.676 207.041 201.458 205.931C201.876 205.343 202.24 204.715 202.629 204.108C202.868 203.734 203.077 203.346 203.336 202.987C203.595 202.628 204.715 202.389 204.974 202.683C205.338 203.097 204.845 203.385 204.676 203.704C204.417 204.202 204.068 204.656 203.824 205.154C202.658 207.529 200.601 208.242 197.907 208.247" fill="#706F6F"/>
<path d="M117.327 208.301C116.774 208.207 116.216 208.152 115.678 208.007C114.747 207.753 114.368 207.136 114.772 206.284C115.319 205.129 116.022 204.043 116.684 202.947C116.883 202.618 118.069 202.439 118.363 202.663C118.437 202.723 118.462 202.957 118.407 203.057C118.138 203.55 117.83 204.018 117.546 204.506C117.282 204.954 117.008 205.397 116.784 205.866C116.415 206.638 116.599 206.971 117.466 207.081C118.816 207.255 119.936 206.852 120.698 205.681C121.221 204.875 121.68 204.023 122.222 203.226C122.402 202.962 122.721 202.703 123.024 202.628C123.343 202.549 123.717 202.683 124.07 202.728C123.961 203.047 123.881 203.38 123.727 203.674C123.463 204.172 123.114 204.621 122.87 205.129C121.749 207.459 119.747 208.211 117.332 208.306" fill="#706F6F"/>
<path d="M58.352 208.256C58.0532 208.206 57.4904 208.152 56.9525 208.012C55.9613 207.753 55.5928 207.121 56.0311 206.209C56.569 205.094 57.2463 204.043 57.8988 202.987C58.1329 202.608 59.129 202.444 59.5473 202.688C59.627 202.733 59.6469 203.022 59.5822 203.136C59.2933 203.664 58.9596 204.167 58.6608 204.685C58.3968 205.133 58.1129 205.582 57.9137 206.06C57.6946 206.588 57.8838 206.961 58.4267 207.046C59.6171 207.24 60.8971 207.136 61.7438 205.89C62.3315 205.029 62.8943 204.147 63.4073 203.241C63.6613 202.793 63.9999 202.593 64.4631 202.608C64.762 202.618 65.0558 202.728 65.3497 202.793C65.2501 203.042 65.1753 203.311 65.0409 203.54C64.6823 204.162 64.254 204.75 63.9252 205.392C63.0088 207.175 61.4698 207.957 59.5722 208.186C59.2535 208.226 58.9297 208.221 58.347 208.251" fill="#706F6F"/>
<path d="M169.538 206.812C169.249 207.604 168.706 207.972 167.849 208.107C166.833 208.261 165.852 208.291 164.881 208.002C163.556 207.604 163.148 206.642 163.76 205.382C163.935 205.029 164.154 204.67 164.438 204.396C166.4 202.499 168.761 202.135 171.336 202.683C171.63 202.743 172.048 202.748 171.869 203.251C171.684 203.769 171.216 204.068 170.853 203.898C169.906 203.46 168.94 203.395 167.934 203.649C167.037 203.878 166.325 204.381 165.787 205.103C165.02 206.129 165.409 206.991 166.694 207.076C167.282 207.116 167.884 207.001 168.477 206.946C168.83 206.911 169.189 206.862 169.543 206.817H169.538V206.812Z" fill="#706F6F"/>
<path d="M53.75 206.817C53.4662 207.619 52.9133 207.973 52.0567 208.107C51.0406 208.266 50.0595 208.296 49.0833 208.002C47.8033 207.619 47.4148 206.727 47.9278 205.487C48.2665 204.675 48.8343 204.093 49.5614 203.625C51.4192 202.424 53.4263 202.195 55.548 202.688C55.8518 202.758 56.2503 202.758 56.066 203.256C55.8618 203.799 55.4285 204.083 55.0599 203.903C54.1136 203.445 53.1524 203.4 52.1463 203.654C51.205 203.893 50.4629 204.421 49.935 205.208C49.2775 206.17 49.6311 206.961 50.7866 207.066C51.4142 207.126 52.0567 207.001 52.6892 206.947C53.0428 206.917 53.4014 206.867 53.755 206.822L53.75 206.817Z" fill="#706F6F"/>
<path d="M134.046 202.334C134.729 202.514 135.426 202.663 136.093 202.892C136.432 203.007 136.492 203.256 136.113 203.485C135.58 203.809 135.147 204.008 134.48 203.6C134.046 203.336 133.334 203.485 132.751 203.535C132.582 203.55 132.328 203.839 132.313 204.023C132.298 204.182 132.527 204.421 132.712 204.531C133.09 204.755 133.513 204.899 133.897 205.114C134.764 205.592 134.873 206.07 134.285 206.852C134.096 207.106 133.857 207.355 133.583 207.504C132.099 208.311 130.545 208.505 128.951 207.868C128.667 207.753 128.309 207.435 128.284 207.176C128.249 206.852 129.335 206.548 129.688 206.742C129.932 206.872 130.177 207.011 130.426 207.146C131.073 207.494 131.691 207.28 132.278 207.006C132.737 206.797 132.746 206.364 132.313 206.075C131.984 205.851 131.601 205.711 131.247 205.522C130.092 204.899 130.042 203.953 131.148 203.231C131.86 202.768 132.632 202.429 133.518 202.484C133.678 202.494 133.842 202.484 134.002 202.484C134.012 202.434 134.026 202.389 134.041 202.339" fill="#706F6F"/>
<path d="M70.2456 208.007C69.9517 208.007 69.8322 208.003 69.7127 208.007C69.2545 208.037 69.2694 207.833 69.4587 207.519C70.1261 206.429 70.7835 205.328 71.4608 204.242C71.69 203.879 71.7348 203.669 71.2019 203.654C70.9977 203.649 70.7935 203.565 70.5893 203.51C70.7038 203.301 70.7686 203.032 70.9379 202.892C71.1371 202.733 71.4359 202.599 71.68 202.619C72.3026 202.668 72.6412 202.369 72.8952 201.861C73.0347 201.578 73.1891 201.284 73.3933 201.04C73.5527 200.845 73.7818 200.606 74.0059 200.572C74.4342 200.507 74.8825 200.577 75.3208 200.591C75.1465 200.975 74.9771 201.363 74.7978 201.742C74.6434 202.061 74.1503 202.419 74.9423 202.599C75.1415 202.643 75.3158 202.788 75.5001 202.882C75.3855 203.092 75.2959 203.326 75.1415 203.5C75.0518 203.6 74.8426 203.674 74.7082 203.645C73.6872 203.425 73.3086 204.128 72.9052 204.835C72.452 205.637 71.9689 206.419 71.4907 207.206C71.172 207.734 70.8731 208.311 70.2506 208.007" fill="#706F6F"/>
<path d="M65.7382 208.008C64.772 207.993 64.7471 207.978 65.1705 207.265C66.6696 204.76 68.1837 202.26 69.7028 199.77C70.0464 199.207 70.923 198.928 71.5705 199.177C71.6352 199.202 71.6751 199.501 71.6103 199.605C70.7337 201.085 69.8422 202.554 68.9507 204.028C68.3082 205.089 67.6209 206.125 67.0481 207.226C66.7194 207.853 66.326 208.142 65.7432 208.013" fill="#706F6F"/>
<path d="M90.3471 203.564C88.7682 203.42 87.8219 204.207 87.0848 205.348C86.6714 205.985 86.2879 206.642 85.8845 207.285C85.4861 207.922 84.6244 208.241 83.967 207.977C83.8973 207.952 83.8375 207.713 83.8823 207.639C84.8037 206.09 85.7251 204.546 86.6764 203.022C87.0749 202.384 87.8419 202.444 88.2951 202.683C88.7732 202.932 89.0521 202.783 89.4605 202.698C90.0781 202.568 90.7156 202.529 91.3482 202.509C91.7018 202.499 91.7416 202.733 91.5225 202.967C91.1838 203.335 90.9149 203.898 90.3521 203.569" fill="#706F6F"/>
<path d="M159.402 208.032C159.168 207.998 158.934 207.958 158.7 207.923C158.795 207.669 158.859 207.395 158.999 207.166C159.771 205.861 160.563 204.566 161.35 203.271C161.733 202.644 162.525 202.37 163.188 202.658C163.257 202.688 163.302 202.972 163.247 203.082C162.948 203.645 162.62 204.192 162.291 204.735C161.773 205.587 161.215 206.419 160.747 207.295C160.438 207.878 160.05 208.127 159.407 208.028" fill="#706F6F"/>
<path d="M164.089 200.059C164.348 200.049 164.736 200.019 164.731 200.562C164.731 201.03 164.149 201.468 163.511 201.473C163.128 201.473 162.779 201.413 162.774 200.905C162.764 200.362 163.187 200.069 164.089 200.059Z" fill="#706F6F"/>
<path d="M53.755 206.817C53.7898 206.772 53.8247 206.732 53.8596 206.688C53.8596 206.712 53.8596 206.742 53.8446 206.757C53.8197 206.782 53.7799 206.797 53.75 206.817H53.755Z" fill="#706F6F"/>
<path d="M169.543 206.817C169.578 206.777 169.607 206.732 169.642 206.692C169.642 206.712 169.642 206.742 169.627 206.757C169.602 206.782 169.568 206.797 169.538 206.812H169.543V206.817Z" fill="#706F6F"/>
<path d="M152.733 49.1231L124.758 93.8832H24.808C24.808 93.8832 32.1344 38.6988 152.733 49.1231Z" fill="#E30613"/>
<path d="M126.546 100.647H231.834C231.834 100.647 227.257 159.143 98.3109 147.19L126.541 100.647H126.546Z" fill="#E30613"/>
<path d="M172.919 88.2304C173.418 88.4694 173.816 88.1955 174.204 87.8817C174.757 87.4335 175.37 87.1944 176.087 87.3189C176.73 87.4285 176.969 87.7522 176.725 88.3051C176.371 89.107 175.968 89.8939 175.524 90.6509C175.235 91.149 174.807 91.5424 174.175 91.5325C173.597 91.5225 173.188 91.7715 172.835 92.2048C172.66 92.4091 172.416 92.6531 172.177 92.683C171.859 92.7228 171.435 92.673 171.206 92.4788C171.047 92.3393 171.067 91.8911 171.136 91.6072C171.221 91.2685 171.495 90.9747 171.595 90.636C171.729 90.1927 171.859 89.7146 171.839 89.2613C171.794 88.2553 171.864 88.1457 172.914 88.2354" fill="#254A91"/>
<path d="M181.909 92.0158C182.781 92.0706 183.857 92.0507 184.828 91.4231C184.972 91.3335 185.192 91.3584 185.381 91.3335C185.376 91.5526 185.411 91.7817 185.356 91.986C185.172 92.6733 184.943 93.3506 184.753 94.0379C184.514 94.9195 183.917 95.1735 183.13 94.7003C183.025 94.6406 182.935 94.5559 182.846 94.4762C182.148 93.8288 181.367 93.4303 180.38 93.3755C179.917 93.3506 179.18 93.2759 179.235 92.5836C179.295 91.8614 179.997 92.0457 180.49 92.0158C180.893 91.9909 181.292 92.0109 181.919 92.0109" fill="#254A91"/>
<path d="M228.154 94.8795C225.629 94.7201 223.098 94.5757 220.573 94.3964C220.279 94.3765 219.921 94.2768 219.722 94.0876C219.278 93.6642 219.308 92.7827 218.397 92.7628C218.312 92.7628 218.178 92.195 218.168 91.8862C218.143 90.8004 218.193 89.7097 218.148 88.6239C218.123 87.9466 218.033 87.2642 217.869 86.6068C217.685 85.8647 217.112 85.3517 216.365 85.4812C215.07 85.7003 213.8 86.0789 212.54 86.4524C212.365 86.5022 212.256 86.8957 212.191 87.1497C212.047 87.7175 211.708 87.847 211.205 87.6477C210.537 87.3838 209.865 87.1347 209.213 86.8309C208.705 86.5968 208.241 86.2582 207.733 86.0241C207.036 85.7003 206.837 85.8647 206.767 86.6566C206.698 87.4585 207.081 88.3649 206.259 89.0323C206.204 89.0772 206.389 89.5653 206.568 89.7147C206.837 89.9388 207.22 90.0135 207.529 90.2028C207.898 90.4319 208.172 90.8203 207.953 91.2138C207.818 91.4529 207.39 91.5475 207.076 91.6521C206.947 91.6919 206.767 91.5874 206.613 91.5475C206.189 91.433 206.075 91.5874 206.055 92.0256C206.005 93.1114 205.98 93.1313 204.875 93.1712C204.367 93.1861 203.988 93.2459 204.043 93.8834C204.098 94.5259 203.764 94.7649 203.161 94.6803C202.663 94.6105 202.24 94.6803 201.832 95.0439C201.513 95.3277 201.224 95.1285 201.189 94.7052C201.109 93.6692 201.343 92.6084 200.87 91.6073C200.85 91.5575 201.094 91.2885 201.224 91.2786C201.981 91.2238 202.738 91.2188 203.5 91.1939C203.61 91.1939 203.719 91.159 203.829 91.1441C203.739 91.0395 203.664 90.8652 203.56 90.8453C202.887 90.7307 202.21 90.641 201.538 90.5713C201.179 90.5315 200.811 90.5813 200.452 90.5315C199.725 90.4319 199.172 90.1032 198.953 89.3361C198.833 88.9228 198.744 88.4944 198.246 88.2803C198.101 88.2205 198.061 87.7922 198.061 87.5332C198.056 86.567 198.076 85.6007 198.101 84.6395C198.116 84.1265 197.887 83.8675 197.404 83.6733C196.323 83.2449 195.297 82.6772 194.211 82.2638C193.081 81.8305 192.423 81.1182 192.309 79.8881C192.244 79.2207 192.199 79.2256 191.676 79.5992C190.805 80.2168 190.371 80.0325 190.157 78.9965C190.112 78.7824 189.878 78.4786 189.699 78.4487C188.504 78.2644 186.96 79.8283 187.144 81.0186C187.184 81.2726 187.308 81.6512 187.493 81.7259C188.18 82.0048 188.165 82.5477 188.17 83.1204C188.18 85.4414 188.743 86.1685 191.014 86.6765C192.07 86.9106 193.145 87.0551 194.221 87.1895C194.66 87.2443 194.993 87.2991 195.023 87.842C195.053 88.4795 195.496 88.7136 196.059 88.7982C196.218 88.8232 196.413 88.7783 196.527 88.863C196.662 88.9576 196.771 89.1419 196.801 89.3013C196.816 89.371 196.607 89.5653 196.502 89.5653C195.765 89.5553 195.048 89.5453 194.54 90.2326C194.5 90.2874 194.171 90.2077 194.037 90.1081C193.399 89.6499 192.712 89.63 191.975 89.7495C191.537 89.8193 191.427 90.0085 191.532 90.392C191.587 90.5863 191.656 90.7755 191.706 90.9648C191.975 91.9958 191.88 92.2747 191.044 92.9172C190.76 93.1363 190.481 93.3704 190.202 93.6045C189.53 94.1772 188.748 94.2519 187.931 94.0926C187.353 93.978 187.243 93.6891 187.742 93.3156C188.827 92.5038 188.782 91.3981 188.668 90.2675C188.558 89.2017 187.841 88.4944 186.83 88.6439C185.869 88.7833 185.022 88.3898 184.21 87.9167C184.141 87.8768 184.086 87.8071 184.011 87.7822C182.577 87.324 181.63 86.4026 181.267 84.9234C181.137 84.3905 181.013 83.8575 180.918 83.3197C180.883 83.1254 180.948 82.9212 180.958 82.717C181.048 81.3274 180.938 81.2328 179.603 81.4221C177.651 81.706 175.738 82.1741 173.955 83.0258C173.014 83.479 172.232 83.3844 171.375 82.8266C169.443 81.5615 167.501 82.1343 165.653 83.0308C164.796 83.4442 164.438 84.3905 164.089 85.2521C163.777 86.0224 163.196 86.4092 162.346 86.4126C161.3 86.4175 160.249 86.3976 159.203 86.4424C156.653 86.5421 154.671 87.9765 153.864 90.387C153.58 91.2288 153.142 91.5824 152.265 91.7417C151.299 91.921 150.402 92.439 149.441 92.703C148.111 93.0666 146.821 93.4252 145.82 94.4761C145.666 94.6404 145.093 94.6255 144.869 94.4711C143.335 93.4053 141.681 93.2509 139.913 93.6593C139.251 93.8137 138.549 93.8286 137.906 94.0378C136.88 94.3665 135.859 93.8137 135.371 92.9221C135.276 92.7478 135.177 92.5735 135.097 92.3842C134.724 91.4728 134.051 91.1042 133.085 91.2636C132.966 91.2835 132.841 91.2985 132.726 91.2786C132.467 91.2437 132.213 91.1889 131.954 91.1441C132.064 90.9349 132.179 90.7307 132.278 90.5215C132.467 90.1231 132.697 89.7396 132.821 89.3212C133.19 88.1159 133.902 87.1796 134.928 86.4723C135.625 85.9942 136.332 85.536 137.015 85.0429C137.817 84.4602 138.708 83.9422 139.361 83.2151C139.839 82.6871 140.098 81.8902 140.272 81.173C140.461 80.3811 140.725 79.9279 141.637 79.8183C142.414 79.7237 143.161 79.3402 143.908 79.0463C145.008 78.618 146.015 78.5632 147.12 79.2057C149.7 80.7049 152.634 81.0834 155.517 81.5416C156.847 81.7508 158.053 81.3274 158.949 80.2068C159.477 79.5544 160.1 78.9716 160.652 78.3391C161.947 76.8599 161.987 74.4194 160.732 72.9053C160.373 72.472 159.945 72.0985 159.562 71.6851C159.372 71.4809 159.153 71.2767 159.034 71.0326C158.705 70.3354 159.069 69.7726 159.841 69.7178C161.31 69.6132 162.714 69.9917 164.124 70.3055C164.358 70.3553 164.587 70.44 164.826 70.4649C165.882 70.5695 165.982 70.4649 166.27 69.4239C166.355 69.1102 166.574 68.7217 166.838 68.5922C167.262 68.388 167.605 68.7167 167.789 69.1102C168.024 69.6032 168.273 69.5136 168.741 69.3592C169.832 68.9956 170.962 68.7117 172.093 68.5324C173.029 68.383 173.841 68.2585 174.389 67.2972C174.872 66.4555 175.649 65.8529 176.745 65.8529C177.223 65.8529 177.701 65.6786 178.179 65.6885C179.598 65.7184 180.624 65.0311 181.127 63.7959C181.705 62.3765 182.811 61.9282 184.141 61.7888C185.376 61.6543 186.626 61.6393 187.866 61.5298C188.782 61.4501 189.709 61.3704 190.605 61.1712C191.572 60.957 191.656 60.7777 191.751 59.7916C191.821 59.0694 191.93 58.9299 192.672 59.1889C194.49 59.8214 196.308 60.459 198.066 61.2409C204.073 63.9154 209.646 67.352 214.93 71.2269C220.265 75.1316 224.817 79.8034 228.124 85.6157C229.474 87.9914 230.828 90.3522 231.745 92.9371C231.849 93.2409 231.984 93.5347 232.078 93.8386C232.327 94.6604 232.273 94.75 231.436 94.76C230.35 94.7799 229.259 94.76 228.174 94.76C228.174 94.7998 228.169 94.8396 228.164 94.8795" fill="#254A91"/>
<path d="M228.154 94.8795C225.629 94.7201 223.098 94.5757 220.573 94.3964C220.279 94.3765 219.921 94.2768 219.722 94.0876C219.278 93.6642 219.308 92.7827 218.397 92.7628C218.312 92.7628 218.178 92.195 218.168 91.8862C218.143 90.8004 218.193 89.7097 218.148 88.6239C218.123 87.9466 218.033 87.2642 217.869 86.6068C217.685 85.8647 217.112 85.3517 216.365 85.4812C215.07 85.7003 213.8 86.0789 212.54 86.4524C212.365 86.5022 212.256 86.8957 212.191 87.1497C212.047 87.7175 211.708 87.847 211.205 87.6477C210.538 87.3838 209.865 87.1347 209.213 86.8309C208.705 86.5968 208.241 86.2582 207.733 86.0241C207.036 85.7004 206.837 85.8647 206.767 86.6566C206.697 87.4585 207.081 88.3649 206.259 89.0323C206.204 89.0772 206.389 89.5653 206.568 89.7147C206.837 89.9388 207.22 90.0135 207.529 90.2028C207.898 90.4319 208.172 90.8203 207.953 91.2138C207.818 91.4529 207.39 91.5475 207.076 91.6521C206.947 91.6919 206.767 91.5874 206.613 91.5475C206.189 91.433 206.075 91.5874 206.055 92.0256C206.005 93.1114 205.98 93.1313 204.875 93.1712C204.367 93.1861 203.988 93.2459 204.043 93.8834C204.098 94.5259 203.764 94.7649 203.161 94.6803C202.663 94.6105 202.24 94.6803 201.832 95.0439C201.513 95.3277 201.224 95.1285 201.189 94.7052C201.109 93.6692 201.343 92.6084 200.87 91.6073C200.85 91.5575 201.094 91.2885 201.224 91.2786C201.981 91.2238 202.738 91.2188 203.5 91.1939C203.61 91.1939 203.719 91.159 203.829 91.1441C203.739 91.0395 203.664 90.8652 203.56 90.8453C202.887 90.7307 202.21 90.641 201.538 90.5713C201.179 90.5315 200.81 90.5813 200.452 90.5315C199.725 90.4319 199.172 90.1032 198.953 89.3361C198.833 88.9228 198.744 88.4944 198.246 88.2803C198.101 88.2205 198.061 87.7922 198.061 87.5332C198.056 86.567 198.076 85.6007 198.101 84.6395C198.116 84.1265 197.887 83.8675 197.404 83.6733C196.323 83.2449 195.297 82.6772 194.211 82.2638C193.081 81.8305 192.423 81.1182 192.309 79.8881C192.244 79.2207 192.199 79.2256 191.676 79.5992C190.805 80.2168 190.371 80.0325 190.157 78.9965C190.112 78.7824 189.878 78.4786 189.699 78.4487C188.504 78.2644 186.96 79.8283 187.144 81.0186C187.184 81.2726 187.308 81.6512 187.493 81.7259C188.18 82.0048 188.165 82.5477 188.17 83.1204C188.18 85.4414 188.743 86.1685 191.014 86.6765C192.07 86.9106 193.145 87.0551 194.221 87.1895C194.66 87.2443 194.993 87.2991 195.023 87.842C195.053 88.4795 195.496 88.7136 196.059 88.7982C196.218 88.8232 196.413 88.7783 196.527 88.863C196.662 88.9576 196.771 89.1419 196.801 89.3013C196.816 89.371 196.607 89.5653 196.502 89.5653C195.765 89.5553 195.048 89.5453 194.54 90.2326C194.5 90.2874 194.171 90.2077 194.037 90.1081C193.399 89.6499 192.712 89.63 191.975 89.7495C191.537 89.8193 191.427 90.0085 191.532 90.392C191.587 90.5863 191.656 90.7755 191.706 90.9648C191.975 91.9958 191.88 92.2747 191.044 92.9172C190.76 93.1363 190.481 93.3704 190.202 93.6045C189.53 94.1772 188.748 94.2519 187.931 94.0926C187.353 93.978 187.243 93.6891 187.742 93.3156C188.827 92.5038 188.782 91.3981 188.668 90.2675C188.558 89.2017 187.841 88.4944 186.83 88.6439C185.869 88.7833 185.022 88.3898 184.21 87.9167C184.141 87.8768 184.086 87.8071 184.011 87.7822C182.577 87.324 181.63 86.4026 181.267 84.9234C181.137 84.3905 181.013 83.8575 180.918 83.3196C180.883 83.1254 180.948 82.9212 180.958 82.717C181.048 81.3274 180.938 81.2328 179.603 81.4221C177.651 81.706 175.738 82.1741 173.955 83.0258C173.014 83.479 172.232 83.3844 171.375 82.8266C169.443 81.5615 167.501 82.1343 165.653 83.0308C164.796 83.4442 164.438 84.3905 164.089 85.2521C163.777 86.0224 163.196 86.4092 162.346 86.4126C161.3 86.4175 160.249 86.3976 159.203 86.4424C156.653 86.5421 154.671 87.9765 153.864 90.387C153.58 91.2288 153.142 91.5824 152.265 91.7417C151.299 91.921 150.402 92.439 149.441 92.703C148.111 93.0666 146.821 93.4252 145.82 94.4761C145.666 94.6404 145.093 94.6255 144.869 94.4711C143.335 93.4053 141.681 93.2509 139.913 93.6593C139.251 93.8137 138.549 93.8286 137.906 94.0378C136.88 94.3665 135.859 93.8137 135.371 92.9221C135.276 92.7478 135.177 92.5735 135.097 92.3842C134.724 91.4728 134.051 91.1042 133.085 91.2636C132.966 91.2835 132.841 91.2985 132.726 91.2786C132.467 91.2437 132.213 91.1889 131.954 91.1441C132.064 90.9349 132.179 90.7307 132.278 90.5215C132.467 90.1231 132.697 89.7396 132.821 89.3212C133.19 88.1159 133.902 87.1796 134.928 86.4723C135.625 85.9942 136.332 85.536 137.015 85.0429C137.817 84.4602 138.708 83.9422 139.361 83.2151C139.839 82.6871 140.098 81.8902 140.272 81.173C140.461 80.3811 140.725 79.9279 141.637 79.8183C142.414 79.7237 143.161 79.3402 143.908 79.0463C145.008 78.618 146.015 78.5632 147.12 79.2057C149.7 80.7049 152.634 81.0834 155.517 81.5416C156.847 81.7508 158.053 81.3274 158.949 80.2068C159.477 79.5544 160.1 78.9716 160.652 78.3391C161.947 76.8599 161.987 74.4194 160.732 72.9053C160.373 72.472 159.945 72.0985 159.562 71.6851C159.372 71.4809 159.153 71.2767 159.034 71.0326C158.705 70.3354 159.069 69.7726 159.841 69.7178C161.31 69.6132 162.714 69.9917 164.124 70.3055C164.358 70.3553 164.587 70.44 164.826 70.4649C165.882 70.5695 165.982 70.4649 166.27 69.4239C166.355 69.1102 166.574 68.7217 166.838 68.5922C167.262 68.388 167.605 68.7167 167.789 69.1102C168.024 69.6032 168.273 69.5136 168.741 69.3592C169.832 68.9956 170.962 68.7117 172.093 68.5324C173.029 68.383 173.841 68.2585 174.389 67.2972C174.872 66.4555 175.649 65.8529 176.745 65.8529C177.223 65.8529 177.701 65.6786 178.179 65.6885C179.598 65.7184 180.624 65.0311 181.127 63.7959C181.705 62.3765 182.811 61.9282 184.141 61.7888C185.376 61.6543 186.626 61.6393 187.866 61.5298C188.782 61.4501 189.709 61.3704 190.605 61.1712C191.572 60.957 191.656 60.7777 191.751 59.7916C191.821 59.0694 191.93 58.9299 192.672 59.1889C194.49 59.8214 196.308 60.459 198.066 61.2409C204.073 63.9154 209.646 67.352 214.93 71.2269C220.265 75.1316 224.817 79.8034 228.124 85.6157C229.474 87.9914 230.828 90.3522 231.745 92.9371C231.849 93.2409 231.984 93.5347 232.078 93.8386C232.327 94.6604 232.273 94.75 231.436 94.76C230.35 94.7799 229.259 94.76 228.174 94.76C228.174 94.7998 228.169 94.8396 228.164 94.8795H228.154Z" stroke="#254A91" stroke-width="0.25" stroke-miterlimit="10"/>
<path d="M168.616 66.3709C166.704 66.5851 164.796 66.7992 162.884 67.0134C162.605 67.0433 162.326 67.0881 162.042 67.0881C161.524 67.0881 161.001 67.0632 160.483 67.0483C160.906 66.6598 161.275 66.1667 161.763 65.9177C162.321 65.6338 162.983 65.5441 163.606 65.4097C164.233 65.2752 164.876 65.2154 165.498 65.076C165.653 65.0411 165.772 64.8369 165.907 64.7124C165.792 64.6277 165.683 64.5231 165.553 64.4584C164.731 64.035 164.672 63.5768 165.414 63.0887C165.882 62.7849 166.38 62.506 166.903 62.3118C167.296 62.1673 167.62 62.2072 167.262 61.6245C167.047 61.2758 167.506 61.1413 167.829 61.0666C168.606 60.8873 169.408 60.7678 170.15 60.4889C170.738 60.2648 171.301 59.9062 171.779 59.4928C172.416 58.9449 172.382 58.4817 171.809 57.8592C171.116 57.1071 171.241 56.2405 172.128 55.7325C172.332 55.6129 172.576 55.5582 172.795 55.4536C172.855 55.4237 172.934 55.3141 172.914 55.2792C172.875 55.1896 172.8 55.1049 172.715 55.0551C172.496 54.9356 172.267 54.831 172.038 54.7264C172.212 54.4873 172.332 54.1536 172.566 54.0192C174.01 53.1775 175.519 53.5112 177.004 53.9146C177.123 53.9445 177.193 54.4575 177.138 54.7164C177.098 54.9107 176.779 55.0352 176.665 55.2394C176.6 55.349 176.645 55.6129 176.745 55.7026C177.193 56.121 177.462 56.9975 177.282 57.4906C177.008 58.2377 176.769 58.9997 176.5 59.7418C176.306 60.2648 176.157 60.8276 175.853 61.2808C175.455 61.8635 175.664 62.2321 176.172 62.4114C176.914 62.6704 176.839 63.2232 176.799 63.7761C176.759 64.3588 176.296 64.4086 175.843 64.4933C175.489 64.558 175.146 64.6726 174.817 64.817C174.742 64.8519 174.688 65.1855 174.752 65.2453C175.335 65.7733 174.862 65.6338 174.498 65.828C172.616 66.864 170.589 66.4207 168.601 66.3709" fill="#254A91"/>
<path d="M168.616 66.3709C166.704 66.5851 164.796 66.7992 162.884 67.0134C162.605 67.0433 162.326 67.0881 162.042 67.0881C161.524 67.0881 161.001 67.0632 160.483 67.0483C160.906 66.6598 161.275 66.1667 161.763 65.9177C162.321 65.6338 162.983 65.5441 163.606 65.4097C164.233 65.2752 164.876 65.2154 165.498 65.076C165.653 65.0411 165.772 64.8369 165.907 64.7124C165.792 64.6277 165.683 64.5231 165.553 64.4584C164.731 64.035 164.672 63.5768 165.414 63.0887C165.882 62.7849 166.38 62.506 166.903 62.3118C167.296 62.1673 167.62 62.2072 167.262 61.6245C167.047 61.2758 167.506 61.1413 167.829 61.0666C168.606 60.8873 169.408 60.7678 170.15 60.4889C170.738 60.2648 171.301 59.9062 171.779 59.4928C172.416 58.9449 172.382 58.4817 171.809 57.8592C171.116 57.1071 171.241 56.2405 172.128 55.7325C172.332 55.6129 172.576 55.5582 172.795 55.4536C172.855 55.4237 172.934 55.3141 172.914 55.2792C172.875 55.1896 172.8 55.1049 172.715 55.0551C172.496 54.9356 172.267 54.831 172.038 54.7264C172.212 54.4873 172.332 54.1536 172.566 54.0192C174.01 53.1775 175.519 53.5112 177.004 53.9146C177.123 53.9445 177.193 54.4575 177.138 54.7164C177.098 54.9107 176.779 55.0352 176.665 55.2394C176.6 55.349 176.645 55.6129 176.745 55.7026C177.193 56.121 177.462 56.9975 177.282 57.4906C177.008 58.2377 176.769 58.9997 176.5 59.7418C176.306 60.2648 176.157 60.8276 175.853 61.2808C175.455 61.8635 175.664 62.2321 176.172 62.4114C176.914 62.6704 176.839 63.2232 176.799 63.7761C176.759 64.3588 176.296 64.4086 175.843 64.4933C175.489 64.558 175.146 64.6726 174.817 64.817C174.742 64.8519 174.688 65.1855 174.752 65.2453C175.335 65.7733 174.862 65.6338 174.498 65.828C172.616 66.864 170.589 66.4207 168.601 66.3709H168.616Z" stroke="#254A91" stroke-width="0.25" stroke-miterlimit="10"/>
<path d="M168.566 59.6022C167.979 59.4379 167.496 59.7616 167.062 60.2198C166.729 60.5685 166.375 60.9022 166.056 61.2608C164.756 62.735 162.495 63.3725 160.722 62.6055C159.811 62.212 158.949 62.1921 158.028 62.3814C157.634 62.4611 157.226 62.471 156.832 62.5457C156.444 62.6155 156.329 62.4362 156.314 62.0925C156.299 61.7638 156.394 61.5397 156.773 61.5496C157.4 61.5695 157.953 61.4102 158.426 60.9619C158.546 60.8474 158.8 60.8623 158.994 60.8424C159.153 60.8225 159.318 60.8424 159.472 60.8225C159.636 60.7976 160.588 59.0594 160.543 58.895C160.279 57.874 160.304 57.869 161.275 57.5851C162.336 57.2713 163.352 57.61 164.368 57.7993C164.826 57.8839 165.005 57.7843 164.921 57.371C164.766 56.6388 165.244 56.4446 165.772 56.3151C166.156 56.2254 166.609 56.1009 166.953 56.2155C167.74 56.4844 168.502 56.7633 169.358 56.8131C169.602 56.8281 169.921 57.3361 170.026 57.6748C170.469 59.1241 170.1 59.6122 168.562 59.6072" fill="#254A91"/>
<path d="M168.566 59.6022C167.979 59.4379 167.496 59.7616 167.062 60.2198C166.729 60.5685 166.375 60.9022 166.056 61.2608C164.756 62.735 162.495 63.3725 160.722 62.6055C159.811 62.212 158.949 62.1921 158.028 62.3814C157.634 62.4611 157.226 62.471 156.832 62.5457C156.444 62.6155 156.329 62.4362 156.314 62.0925C156.299 61.7638 156.394 61.5397 156.773 61.5496C157.4 61.5695 157.953 61.4102 158.426 60.9619C158.546 60.8474 158.8 60.8623 158.994 60.8424C159.153 60.8225 159.318 60.8424 159.472 60.8225C159.636 60.7976 160.588 59.0594 160.543 58.895C160.279 57.874 160.304 57.869 161.275 57.5851C162.336 57.2713 163.352 57.61 164.368 57.7993C164.826 57.8839 165.005 57.7843 164.921 57.371C164.766 56.6388 165.244 56.4446 165.772 56.3151C166.156 56.2254 166.609 56.1009 166.953 56.2155C167.74 56.4844 168.502 56.7633 169.358 56.8131C169.602 56.8281 169.921 57.3361 170.026 57.6748C170.469 59.1241 170.1 59.6122 168.562 59.6072L168.566 59.6022Z" stroke="#254A91" stroke-width="0.25" stroke-miterlimit="10"/>
<path d="M176.67 86.7461C176.301 86.517 175.928 86.3626 175.674 86.0887C175.559 85.9642 175.589 85.516 175.723 85.3765C176.281 84.8037 176.894 84.2858 177.497 83.7528C177.586 83.6781 177.706 83.5885 177.81 83.5935C178.034 83.6034 178.293 83.6184 178.453 83.7429C178.552 83.8226 178.572 84.1413 178.498 84.2858C178.159 84.9631 177.8 85.6355 177.397 86.273C177.267 86.4722 176.969 86.5619 176.67 86.7461Z" fill="#254A91"/>
<path d="M176.67 86.7461C176.301 86.517 175.928 86.3626 175.674 86.0887C175.559 85.9642 175.589 85.516 175.723 85.3765C176.281 84.8037 176.894 84.2858 177.497 83.7528C177.586 83.6781 177.706 83.5885 177.81 83.5935C178.034 83.6034 178.293 83.6184 178.453 83.7429C178.552 83.8226 178.572 84.1413 178.498 84.2858C178.159 84.9631 177.8 85.6355 177.397 86.273C177.267 86.4722 176.969 86.5619 176.67 86.7461Z" stroke="#254A91" stroke-width="0.25" stroke-miterlimit="10"/>
<path d="M24.3099 100.647H121.714L93.4349 146.856C93.4349 146.856 28.633 134.47 24.3099 100.647Z" fill="#254A91"/>
<path d="M256 95.9849H3.71045V98.1066H256V95.9849Z" fill="#254A91"/>
</g>
<defs>
<clipPath id="clip0_574_16208">
<rect width="256" height="256" fill="white"/>
</clipPath>
</defs>
</svg>
