<?xml version="1.0" encoding="UTF-8"?>
<svg id="Calque_1" data-name="Calque 1" xmlns="http://www.w3.org/2000/svg" xmlns:xlink="http://www.w3.org/1999/xlink" version="1.1" viewBox="0 0 284.4 268.9">
  <defs>
    <style>
      .cls-1 {
        fill: #333;
      }

      .cls-1, .cls-2, .cls-3, .cls-4, .cls-5, .cls-6, .cls-7, .cls-8, .cls-9, .cls-10, .cls-11, .cls-12, .cls-13 {
        stroke-width: 0px;
      }

      .cls-2 {
        fill: #0b4c8b;
      }

      .cls-3 {
        fill: #2c7283;
      }

      .cls-4 {
        fill: url(#Dégradé_sans_nom_9);
      }

      .cls-5 {
        fill: #2f5a85;
      }

      .cls-6 {
        fill: #3089a7;
      }

      .cls-7 {
        fill: #59a4b9;
      }

      .cls-8 {
        fill: url(#Dégradé_sans_nom_28);
      }

      .cls-9 {
        fill: url(#Dégradé_sans_nom_38);
      }

      .cls-10 {
        fill: url(#Dégradé_sans_nom_18);
      }

      .cls-11 {
        fill: url(#Dégradé_sans_nom_10);
      }

      .cls-12 {
        fill: url(#Dégradé_sans_nom_68);
      }

      .cls-13 {
        fill: url(#Dégradé_sans_nom_52);
      }
    </style>
    <linearGradient id="Dégradé_sans_nom_9" data-name="Dégradé sans nom 9" x1="20.1" y1="140.8" x2="200.4" y2="20.8" gradientUnits="userSpaceOnUse">
      <stop offset="0" stop-color="#909aa4"/>
      <stop offset="1" stop-color="#384f64"/>
    </linearGradient>
    <linearGradient id="Dégradé_sans_nom_10" data-name="Dégradé sans nom 10" x1="62.6" y1="72.6" x2="38.9" y2="148" gradientUnits="userSpaceOnUse">
      <stop offset="0" stop-color="#b8bcc2"/>
      <stop offset="1" stop-color="#384f64"/>
    </linearGradient>
    <linearGradient id="Dégradé_sans_nom_18" data-name="Dégradé sans nom 18" x1="67.3" y1="63.6" x2="255.4" y2="63.6" gradientUnits="userSpaceOnUse">
      <stop offset="0" stop-color="#b8bcc2"/>
      <stop offset="0" stop-color="#919ba5"/>
      <stop offset=".1" stop-color="#6a7a89"/>
      <stop offset=".2" stop-color="#4e6274"/>
      <stop offset=".2" stop-color="#3d5468"/>
      <stop offset=".2" stop-color="#384f64"/>
      <stop offset=".3" stop-color="#475c6f"/>
      <stop offset=".4" stop-color="#717f8e"/>
      <stop offset=".6" stop-color="#b3b8be"/>
      <stop offset=".6" stop-color="#b8bcc2"/>
      <stop offset=".9" stop-color="#384f64"/>
    </linearGradient>
    <linearGradient id="Dégradé_sans_nom_28" data-name="Dégradé sans nom 28" x1="55.3" y1="160.7" x2="197.3" y2="17.6" gradientUnits="userSpaceOnUse">
      <stop offset="0" stop-color="#384f64"/>
      <stop offset="0" stop-color="#475c70"/>
      <stop offset=".2" stop-color="#71818f"/>
      <stop offset=".3" stop-color="#b3bbc2"/>
      <stop offset=".5" stop-color="#ebeced"/>
      <stop offset=".5" stop-color="#c3c9ce"/>
      <stop offset=".6" stop-color="#919da8"/>
      <stop offset=".7" stop-color="#6a7b8a"/>
      <stop offset=".8" stop-color="#4e6375"/>
      <stop offset=".8" stop-color="#3d5468"/>
      <stop offset=".9" stop-color="#384f64"/>
    </linearGradient>
    <linearGradient id="Dégradé_sans_nom_52" data-name="Dégradé sans nom 52" x1="43.4" y1="226.8" x2="265.2" y2="155.1" gradientUnits="userSpaceOnUse">
      <stop offset="0" stop-color="#032246"/>
      <stop offset=".2" stop-color="#01a3da"/>
      <stop offset=".4" stop-color="#021637"/>
      <stop offset=".6" stop-color="#03a5dc"/>
      <stop offset=".7" stop-color="#0392c6"/>
      <stop offset=".8" stop-color="#03628f"/>
      <stop offset=".9" stop-color="#033f67"/>
      <stop offset="1" stop-color="#03294f"/>
      <stop offset="1" stop-color="#032246"/>
    </linearGradient>
    <linearGradient id="Dégradé_sans_nom_38" data-name="Dégradé sans nom 38" x1="92.8" y1="250.2" x2="261.8" y2="107.2" gradientUnits="userSpaceOnUse">
      <stop offset="0" stop-color="#032246"/>
      <stop offset=".2" stop-color="#023055"/>
      <stop offset=".6" stop-color="#01557f"/>
      <stop offset="1" stop-color="#0084b2"/>
    </linearGradient>
    <linearGradient id="Dégradé_sans_nom_68" data-name="Dégradé sans nom 68" x1="62.3" y1="250.2" x2="249.5" y2="130.8" gradientUnits="userSpaceOnUse">
      <stop offset=".2" stop-color="#032246"/>
      <stop offset=".5" stop-color="#4abade"/>
      <stop offset=".6" stop-color="#c0f8ff"/>
      <stop offset=".7" stop-color="#41b9df"/>
      <stop offset=".9" stop-color="#032246"/>
    </linearGradient>
  </defs>
  <g>
    <g>
      <path class="cls-2" d="M68.5,189.1c-1.4-.9-2.5-2.1-3.2-3.7-.8-1.6-1.1-3.5-1.1-5.6s.4-4,1.2-5.6c.8-1.6,1.9-2.8,3.3-3.7s3-1.3,4.7-1.3,3,.3,4.4.9l-.3,2.5c-1.2-.6-2.4-.9-3.6-.9s-2.7.4-3.7,1.1c-1,.7-1.8,1.7-2.3,2.9s-.8,2.6-.8,4.1.3,2.9.8,4.1,1.3,2.2,2.3,2.9c1,.7,2.2,1.1,3.7,1.1s2.4-.3,3.6-.9l.3,2.5c-1.2.5-2.7.8-4.3.8s-3.5-.4-4.9-1.3Z"/>
      <path class="cls-2" d="M82.8,189.1c-1.3-.9-2.3-2.1-3.1-3.7-.7-1.6-1.1-3.4-1.1-5.6s.4-4,1.1-5.6c.7-1.6,1.8-2.8,3.1-3.7,1.3-.9,2.8-1.3,4.5-1.3s3.1.4,4.4,1.3c1.3.9,2.3,2.1,3,3.7.7,1.6,1.1,3.4,1.1,5.6s-.4,4-1.1,5.6-1.8,2.8-3,3.7c-1.3.9-2.8,1.3-4.4,1.3s-3.1-.4-4.5-1.3ZM91.6,185.5c1-1.5,1.5-3.4,1.5-5.7s-.5-4.2-1.5-5.7c-1-1.5-2.4-2.2-4.3-2.2s-3.3.7-4.3,2.2c-1,1.5-1.5,3.4-1.5,5.7s.5,4.2,1.5,5.7c1,1.5,2.4,2.2,4.3,2.2s3.3-.7,4.3-2.2Z"/>
      <path class="cls-2" d="M98.4,169.7h3l8,14.8v-14.8h2.6v20.3h-2.5l-8.6-15.7v15.7h-2.6v-20.3Z"/>
      <path class="cls-2" d="M118.9,189.1c-1.4-.9-2.5-2.1-3.2-3.7-.8-1.6-1.1-3.5-1.1-5.6s.4-4,1.2-5.6c.8-1.6,1.9-2.8,3.3-3.7s3-1.3,4.7-1.3,3,.3,4.4.9l-.3,2.5c-1.2-.6-2.4-.9-3.6-.9s-2.7.4-3.7,1.1c-1,.7-1.8,1.7-2.3,2.9s-.8,2.6-.8,4.1.3,2.9.8,4.1,1.3,2.2,2.3,2.9c1,.7,2.2,1.1,3.7,1.1s2.4-.3,3.6-.9l.3,2.5c-1.2.5-2.7.8-4.3.8s-3.5-.4-4.9-1.3Z"/>
      <path class="cls-2" d="M130.5,169.7h10.8v2.4h-8.2v6.1h6.5v2.4h-6.5v7h8.4v2.4h-11.1v-20.3Z"/>
      <path class="cls-2" d="M144.2,169.7h5.2c2.1,0,3.8.6,5,1.7,1.2,1.1,1.8,2.8,1.8,4.9s-.6,3.8-1.8,4.9c-1.2,1.1-2.8,1.7-5,1.7h-2.6v7.1h-2.7v-20.3ZM149.2,180.4c2.8,0,4.2-1.4,4.2-4.2s-1.4-4.2-4.2-4.2h-2.3v8.4h2.3Z"/>
      <path class="cls-2" d="M162,172.1h-5v-2.4h12.8v2.4h-5v17.9h-2.7v-17.9Z"/>
      <path class="cls-2" d="M172.1,169.7h2.7v20.3h-2.7v-20.3Z"/>
      <path class="cls-2" d="M181.7,189.1c-1.3-.9-2.3-2.1-3.1-3.7s-1.1-3.4-1.1-5.6.4-4,1.1-5.6c.7-1.6,1.8-2.8,3.1-3.7,1.3-.9,2.8-1.3,4.5-1.3s3.1.4,4.4,1.3,2.3,2.1,3,3.7c.7,1.6,1.1,3.4,1.1,5.6s-.4,4-1.1,5.6-1.8,2.8-3,3.7c-1.3.9-2.8,1.3-4.4,1.3s-3.1-.4-4.5-1.3ZM190.4,185.5c1-1.5,1.5-3.4,1.5-5.7s-.5-4.2-1.5-5.7c-1-1.5-2.4-2.2-4.3-2.2s-3.3.7-4.3,2.2c-1,1.5-1.5,3.4-1.5,5.7s.5,4.2,1.5,5.7c1,1.5,2.4,2.2,4.3,2.2s3.3-.7,4.3-2.2Z"/>
      <path class="cls-2" d="M197.2,169.7h3l8,14.8v-14.8h2.6v20.3h-2.5l-8.6-15.7v15.7h-2.6v-20.3Z"/>
    </g>
    <g>
      <path class="cls-2" d="M82.5,79.3l3.3-2.4,8.1,11c3.6,4.9,2.5,8.5-1.3,11.2-1,.7-2.4,1.5-3.4,1.8l-1.5-3c.7-.2,1.7-.6,2.5-1.3,2-1.5,2.5-3.3.2-6.5l-7.9-10.8Z"/>
      <path class="cls-2" d="M114.9,71.2c-1.8-2.3-4-5-5.8-7.5h0c1,2.7,1.9,5.8,2.8,8.8l2.8,9.7-2.6,1.9-8.1-5.8c-2.5-1.8-5-3.8-7.1-5.7h0c1.7,2.5,3.7,5.5,5.4,8.1l4.8,7.4-3.1,2.3-11.6-18.2,4.6-3.4,7.6,5.2c2.1,1.5,4.3,3.2,6.1,4.8h0c-.9-2.3-1.8-5-2.5-7.5l-2.4-8.9,4.5-3.3,13.7,16.7-3.3,2.4-5.6-7Z"/>
      <path class="cls-2" d="M116.4,54.8c1.1-1.2,3-2.8,5-4.3,2.7-2,4.8-2.8,6.8-2.7,1.5,0,3,.8,4.1,2.3,1.7,2.3,1.1,5.1-.1,6.7h0c1.6-.4,3.3.3,4.9,1.5,2.2,1.7,4.2,3.4,5.1,3.9l-3.4,2.5c-.7-.3-2.1-1.3-4.2-3.1-2.2-1.9-3.6-1.9-5.6-.6l-1.9,1.4,5.2,7.1-3.3,2.4-12.6-17.2ZM125.3,60l2.3-1.7c2.3-1.7,3-3.8,1.7-5.5-1.4-2-3.6-1.6-5.7,0-1.2.9-1.9,1.5-2.2,1.9l3.9,5.4Z"/>
    </g>
    <g>
      <g>
        <polygon class="cls-1" points="145.8 78 130.4 88.7 105.5 106.2 105.5 165.3 130.4 165.3 160.7 165.3 186.1 165.3 186.1 106.2 160.7 88.4 145.8 78"/>
        <path class="cls-1" d="M195,103.2l-17.9-12.2v-16.1h-11.5v8.3l-19.2-13c-.5-.3-1.2-.3-1.7,0l-48.7,33c-.7.5-.9,1.4-.4,2.1.5.7,1.4.9,2.1.4l47.8-32.5,20,13.6,8.8,6,18.9,12.8c.2.2.5.3.8.3.5,0,.9-.2,1.2-.7.5-.7.3-1.6-.4-2.1Z"/>
      </g>
      <g>
        <g>
          <polygon class="cls-6" points="160.3 87.8 160.3 164.7 130 164.7 130 88.1 145.4 77.3 160.3 87.8"/>
          <polygon class="cls-7" points="130 88.1 130 164.7 105.1 164.7 105.1 105.6 130 88.1"/>
          <polygon class="cls-3" points="185.7 105.6 185.7 164.7 160.3 164.7 160.3 87.8 185.7 105.6"/>
        </g>
        <path class="cls-5" d="M194.6,102.5l-17.9-12.2v-16.1h-11.5v8.3l-19.2-13c-.5-.3-1.2-.3-1.7,0l-48.7,33c-.7.5-.9,1.4-.4,2.1.5.7,1.4.9,2.1.4l47.8-32.5,20,13.6,8.8,6,18.9,12.8c.2.2.5.3.8.3.5,0,.9-.2,1.2-.7.5-.7.3-1.6-.4-2.1Z"/>
      </g>
    </g>
  </g>
  <g>
    <path class="cls-4" d="M236.5,62.3c-21.1-20.6-50.8-33.5-83.7-33.5s-50.4,8.2-69.8,21.9l-.4-.4c-4,1.8-15.2,12.1-18.9,17l.4.3c-16.9,18.8-27.1,43.1-27.1,69.6s.5,11.5,1.4,17.1l12.7-12.3c.8,10.2,3.2,19.9,7.1,28.9l-3.4,2.1-12.4-2.7-10.4-2.3-8.4-1.8c-2.4-9.3-3.7-19-3.7-28.9,0-65.1,54.7-117.8,122.3-117.8s71.9,16.7,94.3,42.8Z"/>
    <path class="cls-11" d="M57,80.5l7.6,7.1c-8.7,14-13.8,30.3-13.8,47.7s0,4.5.2,6.7l-12.7,12.3c-1-5.6-1.4-11.2-1.4-17.1,0-26.5,10.2-50.8,27.1-69.6l1.5,1.1c-2,1.8-6.9,8.6-8.5,11.8Z"/>
    <path class="cls-10" d="M255.4,92.7l-15,5.7c-11.6-25.6-34.8-45.3-63.3-53.1l.5-12.2c-2.1-.8-14.1-2.3-16.8-2.3v11.4c-3.7-.4-7.4-.6-11.2-.6-30.1,0-57.1,12.8-75.2,33l-7.2-7.2c1.8-2.7,14.1-14.7,16.3-16l-.6-.7c19.4-13.8,43.6-21.9,69.8-21.9s62.6,12.8,83.7,33.5c7.8,9.1,14.2,19.3,18.9,30.4Z"/>
    <path class="cls-8" d="M237.7,63.7c-3.2-3.3-6.7-6.3-10.3-9.2-38.9-31-97.1-32.7-138.7-6.1-3.3,2-6.4,4.2-9.4,6.6,2-1.8,3.6-3.2,4.3-3.6l-.6-.7-.4-.4c-4,1.8-15.2,12.1-18.9,17l.4.3,1.3.9c-19.6,22.9-29.2,54.2-25.5,84.4l-1.4,1.4-1.3,1.2c-4.5-32.7,5.3-67.6,28.2-91.7,41-44.3,116.1-47.7,162.3-9.6,2.8,2.2,5.4,4.5,7.9,7,.3.4.7.7,1,1.1.4.4.8.9,1.2,1.4Z"/>
  </g>
  <g>
    <path class="cls-13" d="M246.9,137.3c0,49.5-49.5,106.3-112.2,106.3s-70.1-14.5-91.5-37.2c-5.9-7.8-10.8-16.3-14.6-25.4l14.2-5.6c16.1,33.3,51,56.4,91.3,56.4s100.1-45,100.1-97.5,0-2.2,0-3.3l11.2-11.2c1,5.7,1.6,11.5,1.6,17.5Z"/>
    <path class="cls-9" d="M264.5,137.3c0,65.1-54.8,117.8-122.3,117.8s-76.8-19.2-99-48.7c21.4,22.6,53.6,37.2,91.5,37.2,62.7,0,112.2-56.8,112.2-106.3s-.5-11.8-1.6-17.5l-11.2,11.2c-.4-10.9-2.6-20.5-6.4-28.8-.3-.8.3-1.6,1.2-1.4l12,2.9,4.8,1.1,15,3.6c2.4,9.2,3.7,18.9,3.7,28.9Z"/>
    <path class="cls-12" d="M246.7,118.4l-2.8,2.8c.6,3.6,1,7.1,1.2,10.7,2.1,49.2-38,94.3-84.1,106.9-10.1,2.7-20.7,4-31.1,3.5-17.5-.4-35-4.2-51-11.4-14.5-6.6-27.6-16.1-38.2-28,.8,1.2,1.7,2.3,2.5,3.5.6.8,1.2,1.6,1.8,2.4,9.5,9.7,20.9,17.8,33.2,23.6,16.1,7.5,33.8,11.6,51.6,12.2,10.7.6,21.5-.5,31.9-3.2,52.3-13.4,96.2-68.3,85.1-123Z"/>
  </g>
</svg>