<?xml version="1.0" encoding="UTF-8"?>
<svg id="Calque_1" data-name="Calque 1" xmlns="http://www.w3.org/2000/svg" xmlns:xlink="http://www.w3.org/1999/xlink" version="1.1" viewBox="0 0 747.9 169.8">
  <defs>
    <style>
      .cls-1 {
        mask: url(#mask);
      }

      .cls-2 {
        fill: url(#Dégradé_sans_nom_119-2);
      }

      .cls-2, .cls-3, .cls-4, .cls-5, .cls-6 {
        stroke-width: 0px;
      }

      .cls-3 {
        fill: url(#Dégradé_sans_nom_5);
      }

      .cls-4 {
        fill: url(#Dégradé_sans_nom_119);
      }

      .cls-5 {
        fill: #fff;
      }

      .cls-7 {
        mask: url(#mask-2);
      }

      .cls-8 {
        mask: url(#mask-1);
      }

      .cls-6 {
        fill: #0c4687;
      }
    </style>
    <mask id="mask" x="31.2" y="18.3" width="126.7" height="47.3" maskUnits="userSpaceOnUse">
      <g id="mask0_778_30424" data-name="mask0 778 30424">
        <path class="cls-5" d="M51.4,18.7c.6-.4,1.3.4.9,1-5.9,8.8,1.8,20.3,21.1,20.1h84.5l-11.5,21.4c-1.4,2.6-4.2,4.3-7.2,4.3H61.6c-22.8.2-30.4-14.6-25.1-28.9,3.6-9.8,10.7-15.3,14.9-17.8Z"/>
      </g>
    </mask>
    <linearGradient id="Dégradé_sans_nom_5" data-name="Dégradé sans nom 5" x1="31.2" y1="127" x2="157.9" y2="127" gradientTransform="translate(0 169) scale(1 -1)" gradientUnits="userSpaceOnUse">
      <stop offset="0" stop-color="#2c4980"/>
      <stop offset=".5" stop-color="#2c4980"/>
      <stop offset=".5" stop-color="#2c4980"/>
      <stop offset=".5" stop-color="#2c4980"/>
      <stop offset=".5" stop-color="#2d4a81"/>
      <stop offset=".5" stop-color="#2c4a82"/>
      <stop offset=".5" stop-color="#2c4a82"/>
      <stop offset=".6" stop-color="#2c4b83"/>
      <stop offset=".6" stop-color="#2d4b84"/>
      <stop offset=".6" stop-color="#2c4c84"/>
      <stop offset=".6" stop-color="#2d4c85"/>
      <stop offset=".6" stop-color="#2c4d86"/>
      <stop offset=".6" stop-color="#2c4d87"/>
      <stop offset=".6" stop-color="#2c4d87"/>
      <stop offset=".6" stop-color="#2d4e89"/>
      <stop offset=".6" stop-color="#2c4d89"/>
      <stop offset=".6" stop-color="#2b4f8a"/>
      <stop offset=".6" stop-color="#2c4f8a"/>
      <stop offset=".6" stop-color="#2c508c"/>
      <stop offset=".6" stop-color="#2c508c"/>
      <stop offset=".7" stop-color="#2c518c"/>
      <stop offset=".7" stop-color="#2c518d"/>
      <stop offset=".7" stop-color="#2c518d"/>
      <stop offset=".7" stop-color="#2c528f"/>
      <stop offset=".7" stop-color="#2d528f"/>
      <stop offset=".7" stop-color="#2d5391"/>
      <stop offset=".7" stop-color="#2d5391"/>
      <stop offset=".7" stop-color="#2c5491"/>
      <stop offset=".7" stop-color="#2c5492"/>
      <stop offset=".7" stop-color="#2c5492"/>
      <stop offset=".7" stop-color="#2c5593"/>
      <stop offset=".7" stop-color="#2c5595"/>
      <stop offset=".8" stop-color="#2b5695"/>
      <stop offset=".8" stop-color="#2c5695"/>
      <stop offset=".8" stop-color="#2c5797"/>
      <stop offset=".8" stop-color="#2c5797"/>
      <stop offset=".8" stop-color="#2c5797"/>
      <stop offset=".8" stop-color="#2b5898"/>
      <stop offset=".8" stop-color="#2c5899"/>
      <stop offset=".8" stop-color="#2b5999"/>
      <stop offset=".8" stop-color="#2b599a"/>
      <stop offset=".8" stop-color="#2b5a9b"/>
      <stop offset=".8" stop-color="#2b5a9b"/>
      <stop offset=".8" stop-color="#2b5b9c"/>
      <stop offset=".8" stop-color="#2a5b9d"/>
      <stop offset=".9" stop-color="#2c5b9e"/>
      <stop offset=".9" stop-color="#2b5c9e"/>
      <stop offset=".9" stop-color="#2a5c9f"/>
      <stop offset=".9" stop-color="#2b5da0"/>
      <stop offset=".9" stop-color="#2b5da0"/>
      <stop offset=".9" stop-color="#2c5ea2"/>
      <stop offset=".9" stop-color="#2c5ea2"/>
      <stop offset=".9" stop-color="#2c5ea2"/>
      <stop offset=".9" stop-color="#2b5fa3"/>
      <stop offset=".9" stop-color="#2c5fa4"/>
      <stop offset=".9" stop-color="#2b60a4"/>
      <stop offset=".9" stop-color="#2c5fa5"/>
      <stop offset=".9" stop-color="#2c61a6"/>
      <stop offset="1" stop-color="#2c61a7"/>
      <stop offset="1" stop-color="#2a62a7"/>
      <stop offset="1" stop-color="#2c62a8"/>
      <stop offset="1" stop-color="#2c62a9"/>
      <stop offset="1" stop-color="#2b63a9"/>
      <stop offset="1" stop-color="#2b63aa"/>
      <stop offset="1" stop-color="#2c64ab"/>
    </linearGradient>
    <mask id="mask-1" x="20.8" y="64.7" width="150.1" height="48.7" maskUnits="userSpaceOnUse">
      <g id="mask1_778_30424" data-name="mask1 778 30424">
        <path class="cls-5" d="M23.7,65.4c.2-.7,1.3-.6,1.3.1,1.2,14.2,13.8,18.9,32.8,18.7h113.1s-14,24.8-14,24.8c-1.5,2.6-4.1,4-7,4H54c-22.2.2-29.2-9.5-32.2-22.8-2.1-9.2.2-19.5,1.8-24.9Z"/>
      </g>
    </mask>
    <linearGradient id="Dégradé_sans_nom_119" data-name="Dégradé sans nom 119" x1="20.8" y1="80" x2="170.8" y2="80" gradientTransform="translate(0 169) scale(1 -1)" gradientUnits="userSpaceOnUse">
      <stop offset="0" stop-color="#ac1917"/>
      <stop offset=".5" stop-color="#e52524"/>
      <stop offset="1" stop-color="#e94953"/>
      <stop offset="1" stop-color="#cb4f5b"/>
    </linearGradient>
    <mask id="mask-2" x="30.2" y="121.7" width="93.9" height="29.8" maskUnits="userSpaceOnUse">
      <g id="mask2_778_30424" data-name="mask2 778 30424">
        <path class="cls-5" d="M30.5,123c-.3-.7.6-1.3,1.1-.7,5.5,6.2,15.1,9.6,36.4,9.4h56s-8.6,15.5-8.6,15.5c-1.4,2.5-4.2,4-7.2,4.1h-25.5c-21.4.2-35.8-4.7-45-16.1-2.8-3.4-5.4-8.2-7.2-12.2Z"/>
      </g>
    </mask>
    <linearGradient id="Dégradé_sans_nom_119-2" data-name="Dégradé sans nom 119" x1="30.2" y1="136.6" x2="124" y2="136.6" gradientTransform="matrix(1,0,0,1,0,0)" xlink:href="#Dégradé_sans_nom_119"/>
  </defs>
  <rect class="cls-5" x=".1" width="747.7" height="169.8"/>
  <g>
    <g>
      <path class="cls-6" d="M527.8,57.5h51.7v13h-37.2v7.3h33.9v11.2h-33.9v7.3h38v13h-52.5v-51.8Z"/>
      <path class="cls-6" d="M681.1,93v16.2h-14.3v-51.9c3.7,0,7.3,0,10.9,0,11.2.2,22.3-.6,33.5.5,6.1.6,11.9,2.5,14.4,8.9,2.2,5.9,2.3,11.9,0,17.8-1.9,5.1-6.4,6.9-11.4,7.7-9.2,1.3-18.5.5-27.7.7-1.7,0-3.4,0-5.4,0ZM681.2,81.7c5.4,0,10.6,0,15.8,0,3.6,0,7.3.4,10.9-.3,3.4-.6,4.6-2.4,4.3-6.2-.2-3.1-1.6-4.6-5-4.6-6.1-.1-12.3,0-18.4-.1-2.5,0-5,0-7.5,0v11.2Z"/>
      <path class="cls-6" d="M275.7,57.4h22.8c9,16.4,16.6,33.4,21.4,51.9h-16.3c-.8-2.7-1.5-5.3-2.3-8h-28.3c-.8,2.6-1.5,5.3-2.3,8h-16.3c4.7-18.4,12.4-35.4,21.3-51.9ZM297.4,89.7c-3-7.3-5.8-14.4-10.3-21.5-4.2,7.1-7.2,14.2-10.1,21.5h20.4Z"/>
      <path class="cls-6" d="M339.9,70.4v9.7h29.3v12.6h-29.3v16.6h-14.3v-51.8h47v12.9h-32.7Z"/>
      <path class="cls-6" d="M485.4,70.5h-22.2v-13h58.9v12.9h-22.2v38.8h-14.5v-38.7Z"/>
      <path class="cls-6" d="M435.7,109.3h-14.5v-38.7h-22.3v-13.1h58.9v13h-22.1v38.8Z"/>
      <path class="cls-6" d="M661.1,57.5v13h-22.3v38.8h-14.4v-38.8h-22.3v-13.1h59Z"/>
      <path class="cls-6" d="M219.2,96.3h30.2v13h-44.5v-51.8h14.3v38.9Z"/>
      <path class="cls-6" d="M378.7,57.5h14.6v51.8h-14.6v-51.8Z"/>
    </g>
    <g class="cls-1">
      <path class="cls-3" d="M31.2,18.3v47.3h126.7V18.3H31.2Z"/>
    </g>
    <g class="cls-8">
      <path class="cls-4" d="M20.8,64.7v48.7h150.1v-48.7H20.8Z"/>
    </g>
    <g class="cls-7">
      <path class="cls-2" d="M30.2,121.7v29.8h93.9v-29.8H30.2Z"/>
    </g>
  </g>
</svg>