<?xml version="1.0" encoding="UTF-8"?>
<svg id="Calque_1" data-name="Calque 1" xmlns="http://www.w3.org/2000/svg" version="1.1" viewBox="0 0 236 236">
  <defs>
    <style>
      .cls-1 {
        fill: #0af;
      }

      .cls-1, .cls-2, .cls-3, .cls-4 {
        stroke-width: 0px;
      }

      .cls-2 {
        fill-rule: evenodd;
      }

      .cls-2, .cls-4 {
        fill: #fff;
      }

      .cls-3 {
        fill: #153d8a;
      }
    </style>
  </defs>
  <g id="logo">
    <g id="LOGO-2">
      <path id="Carre" class="cls-3" d="M0,.1h235.6v235.6H0V.1Z"/>
      <g id="Arbre">
        <path id="Layer" class="cls-1" d="M111.3,36.1c1.2,1.2,2.1,2.6,2.8,4.1.6,1.5,1,3.2,1,4.8,0,1.7-.2,3.3-.7,4.9-.6,1.6-1.5,3-2.6,4.2l-7.7-7.7c-1.1-1.2-2.1-2.5-2.7-4.1-.7-1.5-1.1-3.1-1.1-4.8,0-1.6.2-3.3.8-4.8.5-1.6,1.4-3,2.5-4.3l7.7,7.7Z"/>
        <path id="Layer-2" data-name="Layer" class="cls-1" d="M132.2,28.4c1.1,1.3,2,2.7,2.5,4.3.6,1.6.8,3.2.8,4.9-.1,1.6-.4,3.3-1.1,4.8-.7,1.5-1.6,2.9-2.8,4l-7.7,7.8c-1.1-1.3-1.9-2.7-2.5-4.3-.6-1.5-.8-3.2-.8-4.8,0-1.7.4-3.3,1.1-4.9.7-1.5,1.6-2.9,2.8-4l7.7-7.8Z"/>
        <path id="Layer-3" data-name="Layer" class="cls-1" d="M132.2,56.7c1.1,1.3,2,2.7,2.5,4.3.6,1.5.8,3.2.8,4.8-.1,1.7-.4,3.3-1.1,4.8-.7,1.6-1.6,2.9-2.8,4.1l-7.7,7.7c-1.1-1.2-1.9-2.7-2.5-4.2-.6-1.6-.8-3.2-.8-4.9,0-1.6.4-3.3,1.1-4.8s1.6-2.9,2.8-4.1l7.7-7.7Z"/>
        <path id="Layer-4" data-name="Layer" class="cls-1" d="M118.4,100l12-12c1.1-1.2,2.5-2.1,4.1-2.8,1.5-.7,3.2-1,4.8-1.1,1.7,0,3.4.3,5,.8,1.5.6,3,1.5,4.2,2.6l-21,21c-1.2,1.2-2.7,2.2-4.3,2.9-1.6.6-3.3,1-5,1s-3.5-.4-5.1-1c-1.6-.7-3-1.7-4.3-2.9l-21-21c1.3-1.1,2.7-2,4.3-2.6,1.6-.5,3.3-.8,4.9-.8,1.7,0,3.4.4,4.9,1.1s2.9,1.6,4.1,2.8c3,3,12.4,12,12.4,12Z"/>
        <path id="Layer-5" data-name="Layer" class="cls-1" d="M114.4,69c.7,1.5,1,3.1,1.1,4.8,0,1.6-.3,3.3-.8,4.9-.6,1.5-1.4,3-2.5,4.2l-30.3-30.3c-1.2-1.2-2.1-2.6-2.8-4.1-.6-1.5-1-3.2-1.1-4.8,0-1.7.3-3.3.8-4.9.6-1.5,1.4-3,2.5-4.2l30.4,30.3c1.1,1.2,2.1,2.5,2.7,4.1Z"/>
        <path id="Layer-6" data-name="Layer" class="cls-1" d="M194,125.2c1.6,0,3.3.3,4.9.9,1.6.6,3,1.6,4.2,2.7,1.2,1.2,2.2,2.6,2.9,4.1.8,1.5,1.2,3.2,1.3,4.9h-5.6c-1.7,0-3.3-.4-4.9-1-1.6-.6-3-1.5-4.2-2.7-1.3-1.2-2.3-2.5-3-4.1-.7-1.5-1.1-3.1-1.2-4.8h5.6Z"/>
        <path id="Layer-7" data-name="Layer" class="cls-1" d="M178.5,143.1c-1.2-1.3-2.2-2.7-2.8-4.2-.7-1.6-1-3.3-1-4.9-.1-1.7.2-3.4.8-5,.6-1.6,1.5-3,2.6-4.3l3.9,4c1.2,1.2,2.2,2.6,2.8,4.2.7,1.5,1,3.2,1,4.9.1,1.7-.2,3.3-.8,4.9-.6,1.6-1.5,3.1-2.6,4.3l-3.9-3.9Z"/>
        <path id="Layer-8" data-name="Layer" class="cls-1" d="M162.1,113.4c1.2-1.1,2.6-2.1,4.1-2.7,1.5-.7,3.2-1,4.8-1.1,1.7,0,3.3.2,4.9.8,1.5.6,3,1.4,4.2,2.5l-22.5,22.6c-1.2,1.2-2.6,2.1-4.1,2.7-1.6.7-3.2,1-4.8,1.1-1.7,0-3.3-.2-4.9-.8-1.6-.6-3-1.4-4.2-2.5l22.5-22.6Z"/>
        <path id="Layer-9" data-name="Layer" class="cls-1" d="M192,101.4c-1.2,1.1-2.6,2.1-4.1,2.7-1.5.7-3.2,1-4.8,1.1-1.7,0-3.3-.2-4.9-.8-1.6-.6-3-1.4-4.2-2.5l12.4-12.5c1.2-1.1,2.6-2.1,4.1-2.7,1.5-.7,3.2-1,4.8-1.1,1.7,0,3.3.2,4.9.8,1.5.6,3,1.4,4.2,2.5l-12.4,12.5Z"/>
        <path id="Layer-10" data-name="Layer" class="cls-1" d="M31.5,89.2c1.2-1.1,2.6-1.9,4.2-2.5,1.6-.6,3.2-.8,4.9-.8,1.6,0,3.3.4,4.8,1.1,1.5.6,2.9,1.5,4.1,2.7l22.5,22.6c-1.2,1.1-2.6,1.9-4.2,2.5-1.6.5-3.2.8-4.9.8-1.6,0-3.3-.4-4.8-1.1-1.5-.6-2.9-1.6-4.1-2.7l-22.5-22.6Z"/>
        <path id="Layer-11" data-name="Layer" class="cls-1" d="M40.1,68.9c1.3-1.1,2.7-2,4.3-2.6,1.5-.5,3.2-.8,4.9-.8,1.7,0,3.3.4,4.8,1.1,1.6.6,3,1.6,4.2,2.8l18.9,18.9c-1.3,1.1-2.7,2-4.3,2.5-1.5.6-3.2.8-4.8.8s-3.3-.4-4.9-1.1c-1.5-.6-2.9-1.5-4-2.7l-19.1-18.9Z"/>
        <path id="Layer-12" data-name="Layer" class="cls-1" d="M95.5,135.3c-1.3,1.1-2.7,2-4.3,2.5-1.6.6-3.2.9-4.9.9-1.7-.1-3.3-.5-4.9-1.1-1.5-.7-2.9-1.6-4.1-2.8l-12.5-12.5c1.3-1.1,2.7-2,4.3-2.5,1.6-.6,3.2-.9,4.9-.8,1.7,0,3.3.4,4.9,1,1.5.7,2.9,1.6,4.1,2.8l12.5,12.5Z"/>
        <path id="Layer-13" data-name="Layer" class="cls-1" d="M161.5,102.8c-1.2,1.1-2.6,2-4.1,2.7-1.6.6-3.2,1-4.8,1-1.7,0-3.3-.2-4.9-.7-1.6-.6-3-1.4-4.2-2.5l18.9-18.9c1.1-1.2,2.5-2.2,4.1-2.8,1.5-.7,3.2-1,4.8-1.1,1.7,0,3.4.2,4.9.8,1.6.6,3.1,1.4,4.3,2.6,0,0-14.1,14.1-19,18.9Z"/>
        <path id="Layer-14" data-name="Layer" class="cls-1" d="M132,125.6c-.6-1.6-.9-3.3-.8-4.9,0-1.7.4-3.4,1-4.9.7-1.5,1.6-2.9,2.8-4.1l4.3-4.2c1.1,1.3,2,2.7,2.5,4.3.6,1.5.9,3.2.8,4.8,0,1.7-.4,3.3-1,4.8-.7,1.6-1.6,3-2.8,4.1l-4.2,4.3c-1.2-1.2-2-2.7-2.6-4.2Z"/>
        <path id="Layer-15" data-name="Layer" class="cls-1" d="M101.1,129.8l-4.3-4.3c-1.2-1.1-2.1-2.5-2.8-4.1-.6-1.5-1-3.1-1-4.8,0-1.6.2-3.3.8-4.8.5-1.6,1.4-3,2.5-4.3l4.3,4.3c1.1,1.2,2.1,2.6,2.7,4.1s1,3.1,1.1,4.8c0,1.7-.3,3.3-.8,4.9-.6,1.5-1.4,3-2.5,4.2Z"/>
        <path id="Layer-16" data-name="Layer" class="cls-1" d="M164.3,64.4c-.5-1.6-.8-3.3-.8-4.9.1-1.7.4-3.4,1.1-4.9.6-1.5,1.6-2.9,2.8-4.1l4.3-4.3c1.1,1.3,1.9,2.7,2.5,4.3.6,1.5.9,3.2.8,4.9,0,1.7-.4,3.3-1,4.8-.7,1.6-1.6,3-2.8,4.2l-4.3,4.2c-1.1-1.2-2-2.7-2.6-4.2Z"/>
        <path id="Layer-17" data-name="Layer" class="cls-1" d="M157.3,151.8c-.1-1.7.1-3.4.7-5,.5-1.6,1.3-3.1,2.4-4.4,1-1.3,2.3-2.4,3.8-3.2l4.9-2.7c.7,1.6,1.1,3.2,1.3,4.9.1,1.7-.1,3.4-.7,5-.5,1.6-1.3,3.1-2.3,4.4-1.1,1.3-2.4,2.4-3.9,3.2l-4.9,2.6c-.7-1.5-1.1-3.1-1.3-4.8Z"/>
        <path id="Layer-18" data-name="Layer" class="cls-1" d="M190.4,113.3c.7-1.5,1.7-2.9,2.9-4,1.2-1.2,2.7-2.1,4.2-2.7,1.6-.7,3.3-1,5-1h5.5c-.1,1.7-.5,3.3-1.2,4.9-.7,1.5-1.7,2.9-2.9,4.1-1.3,1.1-2.7,2-4.3,2.7-1.5.6-3.2.9-4.9.9h-5.5c0-1.7.5-3.3,1.2-4.9Z"/>
        <path id="Layer-19" data-name="Layer" class="cls-1" d="M47.2,125.1c0,1.7-.5,3.4-1.2,4.9s-1.7,2.9-3,4.1c-1.2,1.1-2.6,2.1-4.2,2.7-1.6.6-3.2.9-4.9.9h-5.6c.1-1.6.5-3.3,1.2-4.8.8-1.6,1.8-2.9,3-4.1,1.2-1.2,2.6-2.1,4.2-2.7,1.6-.6,3.3-1,4.9-1h5.6Z"/>
        <path id="Layer-20" data-name="Layer" class="cls-1" d="M53.2,147c-1.1-1.3-2-2.7-2.6-4.3s-.9-3.3-.9-5c0-1.6.4-3.3,1.1-4.9.6-1.5,1.6-2.9,2.7-4.2l3.9-3.9c1.2,1.2,2.1,2.7,2.6,4.3.6,1.6.9,3.3.9,4.9,0,1.7-.4,3.4-1.1,5-.7,1.5-1.6,2.9-2.8,4.1l-3.8,4Z"/>
        <path id="Layer-21" data-name="Layer" class="cls-1" d="M77,156.6s-3.7-2-5-2.6c-1.5-.8-2.8-1.9-3.9-3.2-1-1.3-1.9-2.8-2.4-4.4-.5-1.6-.7-3.3-.6-5s.6-3.3,1.3-4.9l4.9,2.7c1.5.8,2.8,1.9,3.8,3.2,1.1,1.3,1.9,2.8,2.5,4.4.5,1.6.7,3.3.6,5,0,1.6-.5,3.3-1.2,4.8Z"/>
        <path id="Layer-22" data-name="Layer" class="cls-1" d="M46.4,118.2h-5.5c-1.7,0-3.4-.3-4.9-1-1.6-.6-3-1.5-4.3-2.7-1.2-1.1-2.2-2.5-2.9-4-.7-1.6-1.1-3.2-1.2-4.9h5.4c1.7,0,3.4.3,5,.9,1.5.6,3,1.5,4.2,2.7,1.3,1.2,2.3,2.5,3,4.1.7,1.5,1.1,3.2,1.2,4.9Z"/>
        <path id="Layer-23" data-name="Layer" class="cls-1" d="M190.6,73.7c-1.2,1.2-2.6,2.1-4.1,2.7-1.6.7-3.2,1.1-4.8,1.1s-3.3-.2-4.9-.8c-1.6-.5-3-1.4-4.2-2.5l4.3-4.3c1.1-1.1,2.5-2.1,4.1-2.7,1.5-.7,3.2-1.1,4.8-1.1,1.7,0,3.4.2,4.9.8,1.6.6,3.1,1.4,4.3,2.5l-4.4,4.3Z"/>
        <path id="Layer-24" data-name="Layer" class="cls-1" d="M149.9,79.6c-.8-1.4-1.4-3-1.7-4.6-.2-1.7-.2-3.4.2-5,.3-1.6,1-3.2,1.9-4.6l3.4-5.1c1.3,1,2.4,2.3,3.3,3.7.9,1.4,1.5,3,1.7,4.7.3,1.6.3,3.3-.1,5-.3,1.6-1,3.2-1.9,4.6l-3.4,5c-1.4-1-2.5-2.2-3.4-3.7Z"/>
        <path id="Layer-25" data-name="Layer" class="cls-1" d="M82.9,83.3l-3.4-5c-.9-1.4-1.6-3-1.9-4.6-.4-1.7-.4-3.4-.2-5,.3-1.7.9-3.3,1.8-4.7.8-1.4,2-2.7,3.3-3.7l3.4,5c1,1.4,1.6,3,2,4.6.3,1.7.4,3.4,0,5-.3,1.7-.9,3.3-1.7,4.7-.9,1.4-2,2.7-3.4,3.7Z"/>
        <path id="Layer-26" data-name="Layer" class="cls-1" d="M88.4,106.3c-1.6.6-3.3.9-4.9.8-1.7,0-3.4-.4-4.9-1-1.5-.7-2.9-1.6-4.1-2.8-1.1-1.1-5.5-3.2-4.3-4.3,1.2-1.1,2.7-2,4.3-2.6,1.5-.5,3.2-.8,4.9-.8,1.6,0,3.3.4,4.8,1.1,1.6.7,3,1.6,4.1,2.8l4.3,4.2c-1.2,1.2-2.7,2-4.2,2.6Z"/>
        <path id="Layer-27" data-name="Layer" class="cls-1" d="M138.9,60.8c-.6-1.6-.9-3.3-.9-4.9.1-1.7.5-3.4,1.1-4.9.7-1.5,1.6-2.9,2.8-4.1l12.5-12.5c1.1,1.3,2,2.7,2.5,4.3.6,1.6.9,3.2.8,4.9,0,1.7-.4,3.3-1,4.9-.7,1.5-1.6,2.9-2.8,4.1l-12.5,12.4c-1.1-1.2-2-2.7-2.5-4.2h0Z"/>
        <path id="Layer-28" data-name="Layer" class="cls-1" d="M67.1,63.8c-1.5-.7-2.9-1.7-4.1-2.9-1.1-1.2-2-2.6-2.7-4.2-.6-1.5-.9-3.2-.9-4.8s.3-3.4.9-4.9l5.5,2.5c1.5.7,2.9,1.7,4,2.9,1.2,1.2,2.1,2.6,2.7,4.2.7,1.5,1,3.2,1,4.9s-.3,3.3-.9,4.8l-5.5-2.5Z"/>
        <path id="Layer-29" data-name="Layer" class="cls-1" d="M142.9,198c.9.1,1.8.4,2.7.9.8.5,1.5,1,2.1,1.7.6.7,1.1,1.6,1.4,2.5-1.5.4-2.9.8-4.4,1.1-1.4.3-2.8.7-4.3,1-1.5.3-2.9.5-4.4.8-1.5.3-3,.5-4.5.7-1,.2-2,.2-3,0s-1.9-.6-2.7-1.2c-.9-.6-1.5-1.4-2-2.3-.5-.9-.8-1.9-.9-2.9h1.7c1.3,0,2.6-.2,3.9-.4,1.3-.1,2.6-.3,3.9-.4,1.3-.2,2.6-.4,3.9-.6,1.3-.3,2.6-.5,3.9-.8.9-.2,1.8-.2,2.7-.1h0Z"/>
        <path id="Layer-30" data-name="Layer" class="cls-1" d="M124.7,193.3c0,1.8-.3,3.7-1,5.4s-1.8,3.2-3.1,4.5c-1.3,1.4-2.8,2.4-4.5,3.1-1.8.7-3.6,1.1-5.4,1.1-2.1-.1-4.1-.3-6.2-.6s-4.1-.6-6.2-.9c-2-.3-4-.7-6.1-1.2-2-.5-4-1-6-1.6.3-.9.8-1.7,1.4-2.4s1.3-1.3,2.1-1.8c.9-.5,1.8-.8,2.7-.9.9-.1,1.9,0,2.8.1,1.3.3,2.6.5,3.9.8,1.3.2,2.6.4,3.9.6,1.3.1,2.6.3,3.9.4,1.3.2,2.6.3,3.9.4v-41.1l-15.6-15.5c.7-.7,1.4-1.2,2.3-1.5.9-.4,1.8-.6,2.7-.6s1.8.2,2.7.6c.9.3,1.6.8,2.3,1.5l5.6,5.6v-16.6c0-1.9.3-3.7,1-5.4.7-1.7,1.8-3.3,3.1-4.6s2.8-2.3,4.5-3,3.6-1.1,5.4-1.1v30.7l5.6-5.6c.7-.7,1.4-1.2,2.3-1.5.9-.4,1.8-.6,2.7-.6s1.8.2,2.7.6c.9.3,1.6.8,2.3,1.5l-15.6,15.6v34Z"/>
      </g>
    </g>
    <path id="Layer-31" data-name="Layer" class="cls-4" d="M31.3,134.5H7v-33.1h6.1v27h18.2v6.1Z"/>
    <path id="Layer-32" data-name="Layer" class="cls-2" d="M68.6,134.5h-6.1v-3.3c-5.2,4.5-12.5,5.5-18.7,2.6-6.2-2.8-10.1-9-10.1-15.8s3.9-13.1,10.1-15.9c6.2-2.9,13.5-1.9,18.7,2.6v-3.3h6.1v33.1ZM61.6,113.7c-.5-1.4-1.4-2.7-2.4-3.7s-2.3-1.9-3.7-2.5-2.9-.9-4.4-.9c-4.5,0-8.7,2.8-10.4,7-1.8,4.3-.8,9.2,2.4,12.4,3.3,3.3,8.1,4.2,12.4,2.5,4.2-1.8,7-5.9,7-10.5s-.3-3-.9-4.3Z"/>
    <path id="Layer-33" data-name="Layer" class="cls-4" d="M81.7,107.5v7h12.6v6.1h-12.6v13.9h-6.1v-33.1h23.3v6.1h-17.2Z"/>
    <path id="Layer-34" data-name="Layer" class="cls-2" d="M135.4,118c0,7-4.3,13.4-10.8,16.1-6.5,2.7-14,1.2-19-3.8s-6.5-12.5-3.8-19.1c2.7-6.5,9.1-10.7,16.2-10.7s4.5.4,6.7,1.3c2.1.9,4,2.2,5.6,3.8,1.6,1.6,2.9,3.6,3.8,5.7.9,2.1,1.3,4.4,1.3,6.7ZM118,106.6c-4.6,0-8.8,2.7-10.5,7-1.8,4.2-.8,9.1,2.4,12.4,3.2,3.2,8.1,4.2,12.4,2.5,4.2-1.8,7-5.9,7-10.5s-.3-3-.9-4.4c-.5-1.3-1.4-2.6-2.4-3.7-1.1-1-2.3-1.8-3.7-2.4-1.4-.6-2.8-.9-4.3-.9Z"/>
    <path id="Layer-35" data-name="Layer" class="cls-2" d="M166,115c-.4,1.1-1,2.1-1.8,3-.7.9-1.6,1.7-2.7,2.3-1,.6-2.1,1-3.3,1.2l8.4,13h-7.3l-8.2-12.9h-4.1v12.9h-6.2v-33.1h15.7c1.3,0,2.6.3,3.8.8,1.3.5,2.4,1.2,3.3,2.2,1,.9,1.7,2,2.2,3.3.5,1.2.8,2.5.8,3.8s-.2,2.4-.6,3.5h0ZM156.5,115.5c1.1,0,2.2-.3,3-1,.9-.8,1.3-1.8,1.3-3s-.4-2.1-1.3-2.9c-.8-.8-1.9-1.1-3-1h-9.5v7.9h9.5Z"/>
    <path id="Layer-36" data-name="Layer" class="cls-4" d="M178.1,107.5v7h12.6v6.1h-12.6v7.8h17.3v6.1h-23.4v-33.1h23.4v6.1h-17.3Z"/>
    <path id="Layer-37" data-name="Layer" class="cls-4" d="M176,98.2v-5.4s5.4-2.9,5.6-3c.2-.1.4-.2.6-.3s.4-.1.6-.2.4-.1.7-.2c.2,0,.4,0,.6,0s.5,0,.7,0c.3,0,.5.1.7.2.2,0,.4.1.6.2.2,0,.4.2.6.3.2,0,5.6,2.9,5.6,2.9v5.4s-6.5-3.6-7-3.8c0,0-.2-.1-.3,0,0,0-.2,0-.3,0s-.2,0-.3,0h-.6c0,0-.1,0-.2,0-.1,0-.2,0-.3,0-.1,0-.2,0-.3,0-.4.2-7,3.9-7,3.9h0Z"/>
    <path id="Layer-38" data-name="Layer" class="cls-4" d="M229,107.5h-10.9v27h-6.1v-27h-11v-6.1h28v6.1Z"/>
  </g>
</svg>