<?xml version="1.0" encoding="UTF-8"?>
<svg id="Calque_1" data-name="Calque 1" xmlns="http://www.w3.org/2000/svg" xmlns:xlink="http://www.w3.org/1999/xlink" version="1.1" viewBox="0 0 332.9 198.6">
  <defs>
    <style>
      .cls-1 {
        fill: #ffcc08;
      }

      .cls-1, .cls-2, .cls-3, .cls-4, .cls-5, .cls-6, .cls-7, .cls-8, .cls-9, .cls-10, .cls-11, .cls-12, .cls-13, .cls-14, .cls-15, .cls-16, .cls-17, .cls-18, .cls-19, .cls-20, .cls-21, .cls-22, .cls-23, .cls-24, .cls-25, .cls-26, .cls-27, .cls-28 {
        stroke-width: 0px;
      }

      .cls-2 {
        fill: none;
      }

      .cls-3 {
        fill: #e83363;
      }

      .cls-4 {
        fill: #2bb4e9;
      }

      .cls-5 {
        fill: #e84329;
      }

      .cls-6 {
        fill: #69a9c7;
      }

      .cls-7 {
        fill: #dc0d15;
      }

      .cls-8 {
        fill: url(#Dégradé_sans_nom_12-7);
      }

      .cls-9 {
        fill: url(#Dégradé_sans_nom_12-6);
      }

      .cls-10 {
        fill: url(#Dégradé_sans_nom_12-2);
      }

      .cls-11 {
        fill: url(#Dégradé_sans_nom_12-4);
      }

      .cls-12 {
        fill: url(#Dégradé_sans_nom_12-3);
      }

      .cls-13 {
        fill: url(#Dégradé_sans_nom_12-5);
      }

      .cls-14 {
        fill: #1d1d1b;
      }

      .cls-15 {
        fill: #d8e394;
      }

      .cls-16 {
        fill: #b3d386;
      }

      .cls-17 {
        fill: #bbe2ec;
      }

      .cls-18 {
        fill: #99c43f;
      }

      .cls-19 {
        fill: #c42385;
      }

      .cls-20 {
        fill: #d3d800;
      }

      .cls-21 {
        fill: #fdeb23;
      }

      .cls-22 {
        fill: #e73336;
      }

      .cls-23 {
        fill: #f07e22;
      }

      .cls-24 {
        fill: #c093c3;
      }

      .cls-25 {
        fill: #2077bd;
      }

      .cls-26 {
        fill: #a4c733;
      }

      .cls-27 {
        fill: #fff;
      }

      .cls-28 {
        fill: url(#Dégradé_sans_nom_12);
      }
    </style>
    <linearGradient id="Dégradé_sans_nom_12" data-name="Dégradé sans nom 12" x1="283.6" y1="119.9" x2="238.1" y2="84.3" gradientUnits="userSpaceOnUse">
      <stop offset="0" stop-color="#fcea10"/>
      <stop offset="0" stop-color="#fad718"/>
      <stop offset="0" stop-color="#f5a630"/>
      <stop offset="0" stop-color="#f07c44"/>
      <stop offset=".1" stop-color="#ed5955"/>
      <stop offset=".2" stop-color="#ea3f62"/>
      <stop offset=".2" stop-color="#e82c6b"/>
      <stop offset=".2" stop-color="#e72071"/>
      <stop offset=".3" stop-color="#e71d73"/>
      <stop offset=".7" stop-color="#00a19a"/>
      <stop offset=".9" stop-color="#502985"/>
    </linearGradient>
    <linearGradient id="Dégradé_sans_nom_12-2" data-name="Dégradé sans nom 12" x1="304.9" y1="92.7" x2="259.3" y2="57.1" xlink:href="#Dégradé_sans_nom_12"/>
    <linearGradient id="Dégradé_sans_nom_12-3" data-name="Dégradé sans nom 12" x1="291.1" y1="110.4" x2="245.5" y2="74.8" xlink:href="#Dégradé_sans_nom_12"/>
    <linearGradient id="Dégradé_sans_nom_12-4" data-name="Dégradé sans nom 12" x1="295.9" y1="104.3" x2="250.3" y2="68.7" xlink:href="#Dégradé_sans_nom_12"/>
    <linearGradient id="Dégradé_sans_nom_12-5" data-name="Dégradé sans nom 12" x1="291.7" y1="109.6" x2="246.2" y2="74" xlink:href="#Dégradé_sans_nom_12"/>
    <linearGradient id="Dégradé_sans_nom_12-6" data-name="Dégradé sans nom 12" x1="304" y1="93.9" x2="258.4" y2="58.3" xlink:href="#Dégradé_sans_nom_12"/>
    <linearGradient id="Dégradé_sans_nom_12-7" data-name="Dégradé sans nom 12" x1="295.9" y1="104.3" x2="250.3" y2="68.7" xlink:href="#Dégradé_sans_nom_12"/>
  </defs>
  <rect class="cls-14" width="332.9" height="198.6"/>
  <g>
    <g>
      <g>
        <path class="cls-27" d="M110,43.2c3.8,3.8,6.1,8.9,6.1,14.7,0,8.4-5,15.7-12.2,19-1.9.9-3.9,1.4-6,1.7h-.7c0,.1-37,.1-37,.1v35.6h-13.8V36.9h48.7c5.7,0,10.9,2.3,14.7,6.1v.2ZM98.2,64.3c2.5-1.1,4.2-3.6,4.2-6.4s-1.3-4.3-2.1-5.1-2.5-2-5-2h-35v14.2h35c1,0,2-.2,2.9-.7h0Z"/>
        <path class="cls-27" d="M75.6,96.8v2.2h15.3v4.3h-15.3v4.5c0,1.2,1,2.2,2.2,2.2h17.4v4.3h-17.4c-3.5,0-6.4-2.9-6.4-6.4v-11c0-3.5,2.9-6.4,6.4-6.4h17.4v4.3h-17.4c-1.2,0-2.2,1-2.2,2.2Z"/>
        <path class="cls-27" d="M98.6,114.2v-23.8h4.3v23.8h-4.3Z"/>
        <path class="cls-27" d="M130.1,90.4v23.8l-4.3-3.3-15.3-11.8v15.1h-4.3v-23.8l4.3,3.3,15.3,11.8v-15.2h4.3Z"/>
        <path class="cls-27" d="M157.3,90.4v4.3h-9.8v19.6h-4.3v-19.6h-9.8v-4.3h23.8Z"/>
        <path class="cls-27" d="M184.6,90.4v11.9c0,6.6-5.3,11.9-11.9,11.9s-11.9-5.3-11.9-11.9v-11.9h4.3v11.9c0,4.2,3.4,7.7,7.7,7.7s7.7-3.4,7.7-7.7v-11.9h4.3Z"/>
        <path class="cls-27" d="M207.2,110l2.2,4.3h-4.8l-2.2-4.3-2.3-4.5v-.2c-.9-1.2-2.2-2-3.7-2h-4.3v11h-4.3v-23.8h15.1c1.8,0,3.4.7,4.5,1.9s1.9,2.8,1.9,4.5c0,2.6-1.5,4.8-3.7,5.9-.6.3-1.2.4-1.8.5l3.4,6.8ZM203,99c.3,0,.6,0,.9-.2.8-.3,1.3-1.1,1.3-2s-.4-1.3-.6-1.6-.8-.6-1.5-.6h-10.8v4.4h10.8Z"/>
        <path class="cls-27" d="M217.1,96.8v2.2h15.3v4.3h-15.3v4.5c0,1.2,1,2.2,2.2,2.2h17.4v4.3h-17.4c-3.5,0-6.4-2.9-6.4-6.4v-11c0-3.5,2.9-6.4,6.4-6.4h17.4v4.3h-17.4c-1.2,0-2.2,1-2.2,2.2Z"/>
      </g>
      <g>
        <polygon class="cls-2" points="290.9 101.6 290.9 101.6 291.3 101.1 291.3 101.1 290.9 101.6"/>
        <path class="cls-22" d="M290.9,101.6l.4-.5c-.2.1-.3.3-.4.5Z"/>
        <polygon class="cls-28" points="270.6 113.9 270.6 113.9 275.7 109.6 270.6 113.9"/>
        <polygon class="cls-10" points="298.8 92.2 298.8 92.2 303.1 87.1 303.1 87 298.8 92.2"/>
        <polygon class="cls-12" points="290.9 101.6 282.1 112.1 282.1 112.1 290.9 101.6 290.9 101.6"/>
        <polygon class="cls-11" points="291.3 101.1 291.3 101.1 291.7 100.6 291.7 100.6 291.3 101.1"/>
        <path class="cls-16" d="M303.8,85.2l-.5-.6c-.1,0-.2,0-.4,0l.8.7s0,0,0-.1Z"/>
        <path class="cls-6" d="M303.8,85.3l-.8-.7c-.2,0-.3,0-.5,0l1.3.8s0,0,0-.1Z"/>
        <path class="cls-6" d="M294.5,79.9c0-.4-.1-.9-.5-1.1-.4-.3-.7-.6-1-.9-.2-.3-.4-.5-.7-.7-.4-.3-.7-.3-1.1-.1-.4.2-.3.5-.2.8,0,0,0,.2,0,.2l3.6,2.1c0,0,0-.2,0-.2Z"/>
        <path class="cls-17" d="M275.6,68.3c0,0,0-.2,0-.3-.1-1.3-.8-1.7-2-1.2-.5.2-1,.3-1.6.3l3.8,2.2c-.2-.3-.2-.6-.2-1Z"/>
        <path class="cls-6" d="M275.6,68.3c0,0,0-.2,0-.3-.1-1.3-.8-1.7-2-1.2-.5.2-1,.3-1.6.3l3.8,2.2c-.2-.3-.2-.6-.2-1Z"/>
        <path class="cls-6" d="M300,83.3l1,.6c-.3-.3-.6-.5-1-.6Z"/>
        <path class="cls-15" d="M303.8,84.9c0-.2,0-.3-.3-.3l.3.4s0,0,0-.1Z"/>
        <path class="cls-20" d="M303.8,85l-.3-.4s0,0,0,0c0,0-.2,0-.2,0l.5.6c0,0,0-.1,0-.2Z"/>
        <path class="cls-18" d="M284.5,77.8c0-.3.1-.6.2-.9.2-.9.1-1.1-.6-1.6-.5-.3-.8-.6-.7-1.2,0-.2-.1-.3-.3-.3-.7-.2-1.4-.5-2.2-.5-.3,0-.5-.2-.4-.5.1-.7-.3-.9-.8-1.1-.2,0-.5-.2-.7-.3-.8-.4-1.7-.7-2.4-1.2-.3-.2-.6-.5-.7-.8l-3.8-2.2s0,0,0,0c-.9-.1-1.6.2-2.3.8-.4.4-1,.7-1.6.6-.6,0-1.1-.2-1.6-.3-.3,0-.6-.2-.8-.5-.2-.3-.5-.4-.8-.3-.2,0-.4.2-.6.3-.8.6-1.7.8-2.7.8-.3,0-.4,0-.3-.4,0-.5.2-.9.4-1.3.2-.4.4-.8.5-1.3.1-.6,0-1.1-.5-1.4-.5-.4-.9-.7-1.4-1.1-.2-.2-.4-.3-.7-.4-.5-.2-.6-.1-.9.3-.3.5-.6.9-1.1,1.1-.9.3-1.7.7-2.5,1.1-.5.2-1.1.4-1.6.5-.3,0-.6,0-.8,0-.2.1,0,.5,0,.8,0,0,0,0,0,.1,0,.1,0,.3,0,.4l31.9,11.6c0-.2,0-.5,0-.7Z"/>
        <path class="cls-18" d="M290.8,79.7c-.2.5-.4.8-.9.8l4.7,1.7c0-.7,0-1.4,0-2.1l-3.6-2.1c0,.5,0,1.1-.2,1.6Z"/>
        <path class="cls-18" d="M298,82.9c-.8-.3-1.6-.5-2.5-.3l8.2,3s0,0,0,0l-1.3-.8s0,0-.1,0c-.5,0-.8-.1-1.1-.5,0,0-.1-.2-.2-.3l-1-.6c0,0-.1,0-.2,0-.6-.1-1.2-.2-1.8-.4Z"/>
        <path class="cls-4" d="M303.4,86.3l-8.8,7.3c.1,0,.3,0,.4,0,1.1.1,2-.1,2.6-1.2.1-.3.4-.5.7-.5.2,0,.3,0,.4.1l4.3-5.1c0,0,.1-.2.2-.3,0-.1.1-.3.2-.4Z"/>
        <path class="cls-4" d="M291.3,101.1l.4-.5c0-.7,0-1.5,0-2.2,0-.7-.1-1.3-.6-1.8l-15.4,12.9-5.2,4.3c.1.1.3.2.5.3.7.4.8.3.8-.4,0-.3.1-.4.4-.4.5,0,.9,0,1.4,0,.2,0,.3,0,.4.2.2.3.4.6.6.9.6.8,1,.8,1.7.2.4-.4.8-.4,1.3,0,.6.3.7.3.9-.3.2-.5.5-.9,1-1.1.8-.4,1.6-.7,2.5-1l8.8-10.5c0-.2.2-.3.4-.5Z"/>
        <path class="cls-1" d="M303.7,85.5l-8.2-3c0,0-.2,0-.3,0-.1,0-.2,0-.3,0-.3,0-.4,0-.4-.4,0,0,0,0,0,0l-4.7-1.7c0,0-.1,0-.2,0-.7,0-1.4,0-2.2,0-.6,0-1.2-.2-1.8-.4-.8-.3-1.2-.8-1.2-1.5l-31.9-11.6c-.1.6-.3,1.1-.5,1.7-.3,1.2-.3,2.4-.4,3.6-.1.9-.3,1.8-.3,2.7,0,.5,0,1-.1,1.6l52.5,9.3s0,0,0,0Z"/>
        <path class="cls-21" d="M301.6,95.8c.2,0,.3-.1.2-.4-.1-.5-.1-1-.1-1.6,0-.7.1-1.3,1-1.5-.2-.2-.5-.4-.7-.6l-1.4,3.9c.3,0,.7.1,1,.1Z"/>
        <path class="cls-24" d="M303.6,85.8l-56.9,10c-.5,1.9-1,3.7-1.2,5.7-.1,1.3-.4,2.6-.9,3.8-.3.5-.4,1.1-.3,1.7,0,.2,0,.3,0,.5l59.3-21.6s0,0,0-.1Z"/>
        <path class="cls-23" d="M303.7,85.6l-52.5-9.3c0,.2,0,.5-.1.7-.4,1.8-.9,3.5-1.3,5.3-.2,1.1-.5,2.2-.7,3.4h54.5s0,0,0,0Z"/>
        <path class="cls-19" d="M303.6,85.9l-59.3,21.6c0,.7-.1,1.5-.5,2.2-.8,1.6-1.4,3.4-2.2,5.1.6.2,1,.7,1.3,1.2.4.6.9.9,1.6,1,.7,0,1.3,0,2-.3.8-.3,1.6-.4,2.3,0,.2,0,.4,0,.6,0,.8,0,1.5-.4,2.2-.9.5-.3.9-.7,1.4-.9.3-.2.7-.3,1-.3l49.5-28.6c0,0,0-.1,0-.2Z"/>
        <path class="cls-5" d="M303.7,85.7h-54.5c-.2.9-.4,1.8-.6,2.7-.5,2.3-.9,4.6-1.6,6.8,0,.2-.1.4-.2.6l56.9-10s0,0,0,0Z"/>
        <path class="cls-25" d="M291.2,96.6s0,0-.1-.1c-.4-.4-.4-.9,0-1.3.2-.2.4-.3.5-.4.8-.9,1.9-1.2,3.1-1.1l8.8-7.3c0,0,0-.2.1-.3l-49.5,28.6c.4,0,.9,0,1.3.4.3.2.3.4.1.6-.1.2-.3.4-.4.5-.1.1-.2.3-.3.4-.1.2-.2.3,0,.5.1.2.3.2.5.2.3,0,.5-.2.7-.4.4-.4.8-.5,1.4-.5.7,0,1.5,0,2.2,0,.7,0,.7,0,.7-.7,0-.2,0-.5,0-.7,0-.1.4,0,.6,0,.1,0,.3,0,.4,0,.4-.1.8-.2,1.2-.1.3,0,.6,0,.8-.3.3-.4.8-.6,1.4-.4.4,0,.7.2,1.1.2.3,0,.6.2.8,0,.4-.5.9-.5,1.4-.5.5,0,.9-.2,1.1-.6,0-.1.1-.2.2-.3.1-.2.3-.3.4,0,.3.5.6.8,1,1.1l5.2-4.3,15.4-12.9Z"/>
        <polygon class="cls-3" points="275.7 109.6 291.2 96.6 291.2 96.6 275.7 109.6"/>
        <polygon class="cls-13" points="275.7 109.6 291.2 96.6 291.2 96.6 275.7 109.6"/>
        <polygon class="cls-3" points="303.4 86.3 303.4 86.3 294.7 93.7 294.7 93.7 303.4 86.3"/>
        <polygon class="cls-9" points="303.4 86.3 303.4 86.3 294.7 93.7 294.7 93.7 303.4 86.3"/>
        <path class="cls-26" d="M289.2,109.2c0-.5.2-.9.4-1.3.4-.7.9-1.5,1.4-2.2.2-.3.3-.6.3-.9,0-.8-.3-1.6-.4-2.4,0-.3,0-.6,0-.8l-8.8,10.5c.1,0,.3,0,.4-.1.1.4,0,.7-.2,1-.1.2-.4.5-.2.7.2.2.5,0,.8,0,1-.5,1.9-.4,2.9,0,.2,0,.4.2.6.2.3,0,.6.2.8-.1.3-.5.8-.8,1.4-.9,0,0,0,0,.1,0l.6-1s0,0,0,0c0-.8,0-1.6,0-2.5Z"/>
        <path class="cls-7" d="M291.5,101c.1,0,.2-.1.2-.3,0,0,0,0,0,0l-.4.5c0,0,.1,0,.2-.1Z"/>
        <path class="cls-8" d="M291.5,101c.1,0,.2-.1.2-.3,0,0,0,0,0,0l-.4.5c0,0,.1,0,.2-.1Z"/>
        <path class="cls-4" d="M302.1,88.8c.3-.6.6-1.2.9-1.8l-4.3,5.1c.2.1.3.3.4.4.2.5.2,1,.2,1.5l2.6-4.4c0-.3.1-.6.3-.9Z"/>
        <path class="cls-26" d="M289.5,112.4c-.2-.3-.3-.5-.3-.7l-.6,1c.3,0,.6-.2.9-.3Z"/>
        <path class="cls-26" d="M301.8,91.4c0-.6,0-1.1,0-1.7l-2.6,4.4s0,0,0,.1c0,.5.1.8.5,1.1.2.2.5.3.8.3l1.4-3.9s0,0,0,0c0,0-.2-.2-.2-.3Z"/>
      </g>
      <g>
        <path class="cls-27" d="M33.3,92.5c.9,5,2.2,10.2,4,15,1.3,3.5,2.8,6.8,4.7,9.8v-51.3s-.2-1.2-.5-3c-.6-3.8-1.9-10.5-3.8-16.3-1.7-5.1-3.9-9.6-6.7-10.7v30.1s0,4.5.4,11c.3,4.4.9,9.9,1.9,15.5Z"/>
        <path class="cls-27" d="M82.6,123s0,0,0,0c-.7-1.4-1.6-2.7-2.5-3.7-.9-.9-4.2-.9-8.5-.7,0,0,0,0,0,0-7.3.4-17.6,1.7-24.6,1.2-2.3-.2-4.3-.5-5.6-1.1-2.4-1.1-4.4-5.2-6-10.5-1.4-4.6-2.6-10.1-3.5-15.5-1-5.9-1.7-11.7-2.2-15.8-.4-3.5-.6-5.8-.6-5.8,0,0,0,2.2,0,5.8,0,4.1.1,9.9.2,16.2,0,5.7.1,11.7.2,17.2,0,9.2.1,16.6,0,17.4,0,.7.4,1.2.9,1.6,1.1.8,2.8,1.1,2.8,1.1h51.6c0-1.2-.9-4.6-2.3-7.5Z"/>
      </g>
      <path class="cls-27" d="M124.6,78.5c-1.5-.2-2.7-1.4-2.9-2.9h0v-12h-1.6v11.5c0,.8.2,1.5.5,2.2.5,1,1.3,1.8,2.2,2.3.7.3,1.4.5,2.2.5h8.4v-1.6h-8.7s0,0,0,0Z"/>
      <polygon class="cls-27" points="151.9 78 145.1 64.6 138.2 78 137.2 80 138.9 80 140.4 77.2 145.1 68 151.2 80 153 80 151.9 78"/>
      <polygon class="cls-27" points="156.8 80.1 158.3 80.1 158.3 67.7 173.2 79.2 173.2 63.6 171.7 63.6 171.7 76 156.8 64.5 156.8 80.1"/>
      <path class="cls-27" d="M185.7,63.6h-2,0s-6.2,0-6.2,0v16.5h8.2c2.2,0,4.2-.9,5.8-2.4.2-.2.3-.3.5-.5,1.3-1.5,2-3.4,2-5.3,0-4.5-3.7-8.2-8.2-8.2ZM185.7,78.5h-6.7v-13.4h6.7c3.7,0,6.7,3,6.7,6.7s-3,6.7-6.7,6.7Z"/>
      <path class="cls-27" d="M198.3,76c0,2.2,1.8,4.1,4,4.1h12.4v-1.6h-12.4c-1.4,0-2.5-1.1-2.5-2.5v-4.3h11.7v-1.6h-11.7v-2.5c0-1.4,1.1-2.5,2.5-2.5h12.4v-1.6h-12.4c-2.2,0-4,1.8-4,4.1v8.4Z"/>
      <path class="cls-27" d="M232.9,66.9h1.6c-.3-1.9-2-3.3-4-3.3h-7.4c-2.2,0-4,1.8-4,4.1h0c0,.9.2,1.7.7,2.4h0c.1.3.3.5.5.7.7.7,1.7,1.1,2.8,1.1h6.5c1.9,0,3.4,1.5,3.4,3.3s-1.5,3.3-3.4,3.3h-5.7c-1.5,0-2.9-1.1-3.2-2.5h-1.6c.4,2.3,2.4,4.1,4.8,4.1h5.7c2.7,0,4.9-2.2,4.9-4.9s-.4-2.2-1.1-3.1c0,0,0,0-.1-.1,0,0,0,0,0,0h0c-.9-1-2.2-1.6-3.6-1.6h-6.5c-1.4,0-2.5-1.1-2.5-2.5h0c0-1.5,1.1-2.6,2.5-2.6h7.4c1.1,0,2.1.7,2.4,1.8Z"/>
    </g>
    <g>
      <path class="cls-27" d="M91.8,154.4v-9.5h-3.6v-1.3h8.6v1.3h-3.6v9.5h-1.4Z"/>
      <path class="cls-27" d="M95.9,150.5c0-1.5.4-2.5,1.2-3.2.7-.6,1.5-.9,2.5-.9s2,.4,2.6,1.1c.7.7,1,1.7,1,2.9s-.2,1.8-.5,2.4c-.3.6-.7,1-1.3,1.3-.6.3-1.2.5-1.9.5-1.1,0-2-.4-2.7-1.1-.7-.7-1-1.7-1-3ZM97.3,150.5c0,1,.2,1.8.7,2.3s1,.7,1.7.7,1.2-.3,1.6-.8c.4-.5.7-1.3.7-2.3s-.2-1.7-.7-2.2c-.4-.5-1-.7-1.6-.7s-1.2.2-1.7.7c-.4.5-.7,1.2-.7,2.3Z"/>
      <path class="cls-27" d="M110,154.4v-1.2c-.6.9-1.4,1.3-2.5,1.3s-.9,0-1.3-.3-.7-.4-.9-.7c-.2-.3-.3-.6-.4-1,0-.3,0-.7,0-1.2v-4.9h1.3v4.3c0,.7,0,1.2,0,1.4,0,.3.3.6.5.8.3.2.6.3,1,.3s.8-.1,1.1-.3c.3-.2.6-.5.7-.8.1-.4.2-.9.2-1.5v-4.2h1.3v7.8h-1.2Z"/>
      <path class="cls-27" d="M116.1,153.2l.2,1.2c-.4,0-.7.1-1,.1-.5,0-.9,0-1.1-.2-.3-.2-.5-.4-.6-.6s-.2-.8-.2-1.6v-4.5h-1v-1h1v-1.9l1.3-.8v2.7h1.3v1h-1.3v4.6c0,.4,0,.6,0,.7,0,.1.1.2.2.3s.3,0,.5,0,.3,0,.6,0Z"/>
      <path class="cls-27" d="M122.8,151.9l1.4.2c-.2.8-.6,1.4-1.2,1.9-.6.4-1.3.7-2.2.7s-2.1-.4-2.7-1.1c-.7-.7-1-1.7-1-3s.3-2.3,1-3.1,1.6-1.1,2.6-1.1,1.9.4,2.6,1.1,1,1.7,1,3,0,.2,0,.4h-5.8c0,.9.3,1.5.7,2,.4.5,1,.7,1.6.7s.9-.1,1.2-.4c.3-.3.6-.7.8-1.2ZM118.4,149.8h4.4c0-.7-.2-1.2-.5-1.5-.4-.5-1-.8-1.6-.8s-1.1.2-1.5.6c-.4.4-.6,1-.7,1.6Z"/>
      <path class="cls-27" d="M125.3,152.1l1.3-.2c0,.5.3.9.6,1.2s.8.4,1.4.4,1.1-.1,1.4-.4c.3-.2.4-.5.4-.9s-.1-.5-.4-.7c-.2-.1-.6-.3-1.4-.5-1-.2-1.7-.5-2-.6-.4-.2-.7-.4-.9-.7-.2-.3-.3-.7-.3-1.1s0-.7.2-1c.2-.3.4-.5.7-.7.2-.2.5-.3.8-.4.4-.1.7-.2,1.1-.2.6,0,1.2,0,1.6.3.5.2.8.4,1,.7s.4.7.5,1.2l-1.3.2c0-.4-.2-.7-.5-.9s-.7-.3-1.2-.3-1,.1-1.3.3c-.3.2-.4.4-.4.7s0,.3.2.5c.1.1.3.3.5.4.1,0,.5.2,1.2.3.9.3,1.6.5,2,.6.4.2.7.4.9.7.2.3.3.7.3,1.1s-.1.9-.4,1.3c-.3.4-.6.7-1.1.9-.5.2-1,.3-1.7.3-1,0-1.8-.2-2.3-.6-.5-.4-.9-1.1-1-1.9Z"/>
      <path class="cls-27" d="M139.8,154.4l-3-7.8h1.4l1.7,4.7c.2.5.3,1,.5,1.6.1-.4.3-.9.5-1.5l1.7-4.8h1.4l-3,7.8h-1.2Z"/>
      <path class="cls-27" d="M144.7,150.5c0-1.5.4-2.5,1.2-3.2.7-.6,1.5-.9,2.5-.9s2,.4,2.6,1.1c.7.7,1,1.7,1,2.9s-.2,1.8-.5,2.4c-.3.6-.7,1-1.3,1.3-.6.3-1.2.5-1.9.5-1.1,0-2-.4-2.7-1.1-.7-.7-1-1.7-1-3ZM146,150.5c0,1,.2,1.8.7,2.3s1,.7,1.7.7,1.2-.3,1.6-.8c.4-.5.7-1.3.7-2.3s-.2-1.7-.7-2.2c-.4-.5-1-.7-1.6-.7s-1.2.2-1.7.7c-.4.5-.7,1.2-.7,2.3Z"/>
      <path class="cls-27" d="M153,152.1l1.3-.2c0,.5.3.9.6,1.2s.8.4,1.4.4,1.1-.1,1.4-.4c.3-.2.4-.5.4-.9s-.1-.5-.4-.7c-.2-.1-.6-.3-1.4-.5-1-.2-1.7-.5-2-.6-.4-.2-.7-.4-.9-.7-.2-.3-.3-.7-.3-1.1s0-.7.2-1c.2-.3.4-.5.7-.7.2-.2.5-.3.8-.4.4-.1.7-.2,1.1-.2.6,0,1.2,0,1.6.3.5.2.8.4,1,.7s.4.7.5,1.2l-1.3.2c0-.4-.2-.7-.5-.9s-.7-.3-1.2-.3-1,.1-1.3.3c-.3.2-.4.4-.4.7s0,.3.2.5c.1.1.3.3.5.4.1,0,.5.2,1.2.3.9.3,1.6.5,2,.6.4.2.7.4.9.7.2.3.3.7.3,1.1s-.1.9-.4,1.3c-.3.4-.6.7-1.1.9-.5.2-1,.3-1.7.3-1,0-1.8-.2-2.3-.6-.5-.4-.9-1.1-1-1.9Z"/>
      <path class="cls-27" d="M170.7,151.9l1.4.2c-.2.8-.6,1.4-1.2,1.9-.6.4-1.3.7-2.2.7s-2.1-.4-2.7-1.1c-.7-.7-1-1.7-1-3s.3-2.3,1-3.1c.7-.7,1.6-1.1,2.6-1.1s1.9.4,2.6,1.1c.7.7,1,1.7,1,3s0,.2,0,.4h-5.8c0,.9.3,1.5.7,2,.4.5,1,.7,1.6.7s.9-.1,1.2-.4c.3-.3.6-.7.8-1.2ZM166.3,149.8h4.4c0-.7-.2-1.2-.5-1.5-.4-.5-1-.8-1.6-.8s-1.1.2-1.5.6c-.4.4-.6,1-.7,1.6Z"/>
      <path class="cls-27" d="M173.8,154.4v-7.8h1.2v1.1c.6-.9,1.4-1.3,2.5-1.3s.9,0,1.3.3c.4.2.7.4.9.7.2.3.3.6.4,1,0,.2,0,.7,0,1.3v4.8h-1.3v-4.8c0-.5,0-.9-.2-1.2-.1-.3-.3-.5-.6-.6-.3-.2-.6-.2-.9-.2-.6,0-1.1.2-1.5.5-.4.4-.6,1-.6,2v4.3h-1.3Z"/>
      <path class="cls-27" d="M184.3,154.4l-3-7.8h1.4l1.7,4.7c.2.5.3,1,.5,1.6.1-.4.3-.9.5-1.5l1.7-4.8h1.4l-3,7.8h-1.2Z"/>
      <path class="cls-27" d="M189.7,145.1v-1.5h1.3v1.5h-1.3ZM189.7,154.4v-7.8h1.3v7.8h-1.3Z"/>
      <path class="cls-27" d="M198.4,151.9l1.4.2c-.2.8-.6,1.4-1.2,1.9-.6.4-1.3.7-2.2.7s-2.1-.4-2.7-1.1c-.7-.7-1-1.7-1-3s.3-2.3,1-3.1,1.6-1.1,2.6-1.1,1.9.4,2.6,1.1c.7.7,1,1.7,1,3s0,.2,0,.4h-5.8c0,.9.3,1.5.7,2,.4.5,1,.7,1.6.7s.9-.1,1.2-.4c.3-.3.6-.7.8-1.2ZM194.1,149.8h4.4c0-.7-.2-1.2-.5-1.5-.4-.5-1-.8-1.6-.8s-1.1.2-1.5.6c-.4.4-.6,1-.7,1.6Z"/>
      <path class="cls-27" d="M201,152.1l1.3-.2c0,.5.3.9.6,1.2s.8.4,1.4.4,1.1-.1,1.4-.4c.3-.2.4-.5.4-.9s-.1-.5-.4-.7c-.2-.1-.6-.3-1.4-.5-1-.2-1.7-.5-2-.6-.4-.2-.7-.4-.9-.7-.2-.3-.3-.7-.3-1.1s0-.7.2-1c.2-.3.4-.5.7-.7.2-.2.5-.3.8-.4.4-.1.7-.2,1.1-.2.6,0,1.2,0,1.6.3.5.2.8.4,1,.7s.4.7.5,1.2l-1.3.2c0-.4-.2-.7-.5-.9-.3-.2-.7-.3-1.2-.3s-1,.1-1.3.3c-.3.2-.4.4-.4.7s0,.3.2.5c.1.1.3.3.5.4.1,0,.5.2,1.2.3.9.3,1.6.5,2,.6.4.2.7.4.9.7.2.3.3.7.3,1.1s-.1.9-.4,1.3c-.3.4-.6.7-1.1.9-.5.2-1,.3-1.7.3-1,0-1.8-.2-2.3-.6-.5-.4-.9-1.1-1-1.9Z"/>
      <path class="cls-27" d="M218.3,154.4v-1c-.5.8-1.2,1.2-2.2,1.2s-1.2-.2-1.7-.5-.9-.8-1.2-1.4c-.3-.6-.4-1.3-.4-2.1s.1-1.5.4-2.1c.3-.6.7-1.1,1.2-1.5.5-.3,1.1-.5,1.7-.5s.9,0,1.3.3.7.5.9.8v-3.9h1.3v10.8h-1.2ZM214.1,150.5c0,1,.2,1.8.6,2.3s.9.7,1.5.7,1.1-.2,1.5-.7c.4-.5.6-1.2.6-2.2s-.2-1.9-.6-2.4-.9-.8-1.5-.8-1.1.2-1.5.7c-.4.5-.6,1.2-.6,2.3Z"/>
      <path class="cls-27" d="M227,151.9l1.4.2c-.2.8-.6,1.4-1.2,1.9-.6.4-1.3.7-2.2.7s-2.1-.4-2.7-1.1c-.7-.7-1-1.7-1-3s.3-2.3,1-3.1,1.6-1.1,2.6-1.1,1.9.4,2.6,1.1c.7.7,1,1.7,1,3s0,.2,0,.4h-5.8c0,.9.3,1.5.7,2,.4.5,1,.7,1.6.7s.9-.1,1.2-.4c.3-.3.6-.7.8-1.2ZM222.7,149.8h4.4c0-.7-.2-1.2-.5-1.5-.4-.5-1-.8-1.6-.8s-1.1.2-1.5.6c-.4.4-.6,1-.7,1.6ZM224.1,145.6l1-2.1h1.7l-1.6,2.1h-1.1Z"/>
      <path class="cls-27" d="M235.2,151.6l1.3.2c-.1.9-.5,1.6-1.1,2.1-.6.5-1.3.8-2.2.8s-1.9-.4-2.6-1.1c-.7-.7-1-1.7-1-3s.1-1.6.4-2.2c.3-.6.7-1.1,1.3-1.4s1.2-.5,1.9-.5,1.5.2,2.1.6c.5.4.9,1,1,1.8l-1.3.2c-.1-.5-.3-.9-.7-1.2-.3-.3-.7-.4-1.1-.4-.7,0-1.2.2-1.6.7-.4.5-.6,1.2-.6,2.3s.2,1.8.6,2.3c.4.5.9.7,1.6.7s1-.2,1.3-.5.6-.8.7-1.5Z"/>
      <path class="cls-27" d="M237.1,150.5c0-1.5.4-2.5,1.2-3.2.7-.6,1.5-.9,2.5-.9s2,.4,2.6,1.1c.7.7,1,1.7,1,2.9s-.2,1.8-.5,2.4c-.3.6-.7,1-1.3,1.3-.6.3-1.2.5-1.9.5-1.1,0-2-.4-2.7-1.1-.7-.7-1-1.7-1-3ZM238.5,150.5c0,1,.2,1.8.7,2.3s1,.7,1.7.7,1.2-.3,1.6-.8c.4-.5.7-1.3.7-2.3s-.2-1.7-.7-2.2c-.4-.5-1-.7-1.6-.7s-1.2.2-1.7.7c-.4.5-.7,1.2-.7,2.3Z"/>
    </g>
  </g>
</svg>