<?xml version="1.0" encoding="UTF-8"?>
<svg id="Calque_1" data-name="Calque 1" xmlns="http://www.w3.org/2000/svg" version="1.1" viewBox="0 0 600 600">
  <defs>
    <style>
      .cls-1 {
        fill: #ae2c63;
      }

      .cls-1, .cls-2, .cls-3, .cls-4, .cls-5 {
        stroke-width: 0px;
      }

      .cls-2 {
        fill: #ab99c7;
      }

      .cls-3 {
        fill: #f2ba18;
      }

      .cls-4 {
        fill: #53b0b0;
      }

      .cls-5 {
        fill: #07090a;
      }
    </style>
  </defs>
  <g>
    <path class="cls-5" d="M174.3,533.8c-1,.5-1.6.4-2.2.4-13.4,0-26.8,0-40.2,0-1.8,0-2.9-.6-3.8-2.1-3.9-6.4-6.8-13.2-9.2-20.3-5.2-15-8.7-30.4-11.7-45.9-2.2-10.9-3.6-21.8-4.6-32.9-.2-1.9-.5-3.9-.9-5.8-.7-3.7-3-5.9-6.5-6.9-3.3-.9-6.6-1-10-.3-4.4.9-7.3,3.5-8.8,7.7-1,2.7-1.3,5.4-1.2,8.2,0,21.4,0,42.8.9,64.2.2,5.6.4,11.2,1.4,16.7.8,4.7,2.2,9.2,4.7,13.3.7,1.2,1.3,2.4,2.1,3.8h-42.4c-.4-.7.1-1.2.4-1.8,2.8-6.4,3.9-13.1,4.4-20.1,1.6-20.7,1.5-41.5,1.3-62.2,0-11.2-.3-22.3-.7-33.5-.5-13.6-1.1-27.2-1.7-40.7-.4-9.6-3.2-18.3-10-25.2.4-1,1.2-.6,1.7-.6,22.9,0,45.8-.1,68.7,0,10.1,0,20.1,1,29.8,3.8,3.4,1,6.7,2.3,9.6,4.3,5.7,3.8,8.7,9.3,9.2,16.1.5,7.8-1.6,14.9-5.9,21.4-5.4,8.2-12.8,14.1-21.5,18.6-1.2.6-2.5,1.3-3.8,1.8-1.4.5-1.6,1.4-1.6,2.8.7,11.6,2.4,23,5.4,34.1,7.2,26.4,19.7,50.1,37.2,71.1,2.9,3.5,6.2,6.6,9.8,9.8ZM93.4,362c-2.4.1-5.5,0-8.6.4-4.7.6-7.5,3.2-8.5,7.9-1.7,8.4-1.6,16.8-.3,25.2.4,2.3,1.4,4.4,3.2,6.1,2.2,2.1,4.8,3.5,7.8,4.1,5.3,1.1,10.6.8,15.8-.2,10.8-2,21-10.6,19.9-25.2-.4-5.6-2.3-10.5-7.2-13.8-1.9-1.2-3.9-2.1-6-2.8-5-1.6-10.2-1.8-16.1-1.8Z"/>
    <path class="cls-5" d="M234.1,203.7c.5-.4,1-.2,1.5-.2,23.6,0,47.1,0,70.7,0,9,0,18,.8,26.8,3.2,3.3.9,6.6,2.1,9.5,3.9,6.5,3.9,9.9,9.7,10.3,17.2.7,11.5-3.4,21.1-11.9,28.9-8,7.3-17.6,11.4-28,13.8-9.1,2.1-18.4,2.9-27.7,2.9-5.6,0-8.1,1.9-9.7,7.3-.7,2.4-1,4.9-1,7.4,0,15.4,0,30.7,0,46.1,0,6.5.3,13,.5,19.5.2,5.2.8,10.4,1.7,15.5,1.1,6.4,4.2,11.7,9.3,15.7.9.8,1.9,1.5,2.8,2.3-1.9.7-41.1,1-50,.4-.4-.8.2-1.4.5-2,3.4-6.6,4.8-13.6,5.4-20.9,1-11,1.2-22.1,1.3-33.2.2-20.7,0-41.3-.8-62-.5-13.3-1.1-26.6-1.7-39.9-.4-9.4-3-17.9-9.5-25-.2-.3-.6-.5-.3-1ZM274.7,239.3c0,3,0,7.6,1.2,12.1,1.1,4.2,3.7,7,8,8,3.5.8,7,.8,10.6.5,9.4-.8,17-5,22.6-12.7,3-4.2,4.4-8.9,4-14.2-.5-7.5-4.2-12.5-11.2-15.1-.3-.1-.7-.3-1.1-.4-8.1-2.3-16.3-2.6-24.6-1.3-3,.5-5.3,2.2-6.7,4.9-.7,1.3-1.2,2.7-1.7,4.1-1.2,4.1-1.2,8.3-1.2,14Z"/>
    <path class="cls-5" d="M306.9,430.9c1.2-1.5,2.3-3.1,3.5-4.6,6.2-7.5,13.7-13.1,23.4-15.3,5-1.2,10.1-1.4,15.2-.5,7.5,1.3,13.2,5.3,17.4,11.5,3.7,5.4,5.6,11.5,6.6,17.9.7,4.2.8,8.5.8,12.8,0,15.7-.2,31.5.4,47.2.4,11.1,1.1,22.3,4.3,33.1,0,.3,0,.5,0,.9h-34.9c.7-3.4,1.4-6.8,2-10.1,1.5-8.6,2.2-17.4,2.6-26.1.6-12,.9-24,.6-36-.1-5.2-.4-10.4-1.5-15.5-.7-3.2-1.9-6.2-3.5-9.1-2.7-4.8-6.8-6.9-12.3-6.6-5.2.2-9.8,2-13.9,5.2-6.3,4.9-10.4,11.3-13.2,18.7-.3.9-.3,1.8-.3,2.8-.3,17.2-.2,34.5,1.3,51.6.7,8.1,1.7,16.1,3.8,24,0,.3,0,.7.1,1.3h-34.2c.6-2.9,1.2-5.8,1.8-8.7,1.4-7.5,2.2-15.1,2.6-22.7.9-15.4,1.2-30.9.7-46.3-.3-8.2-1-16.3-2.8-24.4-1.2-5.5-3.5-10.6-6.9-15.1-1-1.3-1.9-2.7-3.1-4.3h41.7c-1.6,6-2.7,12.1-2.5,18.4Z"/>
    <path class="cls-5" d="M8.7,143.8h48.6c.4.6-.2,1-.4,1.4-5.2,7.9-7.4,16.5-7.3,25.9.2,20.7,0,41.3,0,62,0,20,0,40,.1,60.1,0,4.4.4,8.7,1.1,13.1.3,2.2,1.1,4.1,2.5,5.8,1.4,1.7,3.1,2.9,5.3,3.2,15.7,2.4,28.9-1.6,38.8-14.7,3.4-4.6,6.2-9.5,8.7-14.6.4-.7.6-1.6,1.4-2.3,1.9,2.3,2.8,5,3,7.8.7,9.9-.7,19.5-5.2,28.5-1.1,2.3-2.6,4.3-4.4,6.1-1.4,1.4-2.9,2-5,2-14.1,0-28.1,0-42.2,0-16.3,0-32.6,0-48.9,0-.9,0-1.8,0-2.7,0,0-.1,0-.3-.1-.4,1.1-.8,2.2-1.6,3.3-2.3,9.1-5.6,12.9-14,13.6-24.3.4-5.9.1-11.7.1-17.6,0-36.3,0-72.6,0-108.9,0-4.3-.3-8.5-1.1-12.8-1.1-5.9-3.5-11.1-7.5-15.6-.6-.7-1.4-1.2-1.7-2.3Z"/>
    <path class="cls-5" d="M200.3,215.6c2.9,3.2,4.5,7,5.7,11,2.6,8.1,3.4,16.6,3.9,25,.6,11.5,0,23.1,0,34.6,0,7.5.2,15.1,1.6,22.5,1.2,6.6,4.3,12,9.8,16,1.1.8,2.2,1.7,3.2,2.6-.4.9-1,.6-1.5.6-10.2,0-20.5,0-30.7,0-1.5,0-2.3-.3-2.7-2-.7-3.3-1.7-6.5-2.5-9.7-.2-.6-.3-1.2-.7-1.7-.8.2-1.1.9-1.5,1.3-7.3,7.8-16.4,12.1-26.8,13.7-6,.9-12,1.2-18,0-12-2.4-21.4-12.7-22.8-24.8-1.9-16.7,5-29.3,18.4-38.7,8.2-5.7,17.5-8.9,27.3-10.8,5.8-1.1,11.6-1.7,17.5-1.9,2.2,0,2.3-.1,2.3-2.4,0-7.5-.5-14.9-2.3-22.2-.6-2.5-1.5-5-2.9-7.2-1.6-2.6-3.8-4.3-6.7-5-4.9-1.2-9.6-.8-14,1.7-4.6,2.7-8.3,6.3-11.4,10.5-5.3,7.2-8.8,15.3-10.9,23.9-.8.4-1.3-.2-1.7-.6-4.5-3.3-6.9-8-8.1-13.3-1.5-6.6-1.3-13.3-.3-20,.2-1.7.6-3.3.8-5,.1-1.2.5-1.8,1.9-1.8,3.1,0,6.1-.9,9-1.8,7.3-2.3,14.5-4.7,22.1-5.7,8.3-1.1,16.5-1.3,24.7.3,5.1,1,9.7,3,13.8,6.4.5.4.9.9,1.6,1.1.8,1,1.5,2.1,2.2,3.1ZM182.6,265.3c-10.2,1-19.1,4-26.8,10.3-7.1,5.9-11.6,13.2-12.7,22.5-.5,4.1-.5,8.2.9,12.1,2.1,5.8,7,8.7,13.1,7.9,4.4-.6,8.2-2.4,11.5-5.2,7.4-6.2,11.9-14.1,13.4-23.7.4-2.4.5-4.8.5-7.2,0-5.5,0-10.9,0-16.7Z"/>
    <path class="cls-5" d="M434.9,343.9c2.8,1.8,3.9,4.4,4.2,7.3,1.2,14.7-4.5,26-19.1,32.2-5.1,2.2-10.5,3.1-16,3.6-7.3.6-14.5.3-21.6-1.7-12.7-3.5-21.7-11.5-27.7-23-3.9-7.4-6.1-15.4-7.2-23.6-1.2-8.7-1.5-17.4-.6-26.2,1.5-13.7,6-26.1,15.7-36.1,8.2-8.5,18.4-13.1,29.9-14.9,7.9-1.2,15.8-1.4,23.6.5,7.7,1.9,14,5.8,18.8,12.2,3.6,4.7,5.5,10.1,5.5,16.1.1,17.4-7.4,30.4-22.2,39.3-8.3,5-17.5,7.6-27.1,9.1-4.5.7-9,1.2-13.6,1.2-1.4,0-1.8.4-1.6,1.8.9,6.6,2.3,13,5.2,19,1.7,3.5,4,6.6,6.9,9.4,5.7,5.5,17,6.6,23.5,2.8,4.6-2.7,8.5-6,11.8-10.1,3.8-4.5,6.8-9.5,9.5-14.8.7-1.3,1.3-2.6,2.1-4.1ZM375.1,319.2c0,2.5,0,5,0,7.5,0,1.2.4,1.6,1.6,1.5,5.4-.5,10.7-1.5,15.7-3.4,10.4-4,17-11.4,19.5-22.3,1.2-5.3,1.5-10.7.8-16.1-.2-1.9-.8-3.8-1.6-5.6-2-4.4-5.3-7.3-10.3-7.9-6.3-.7-11.5,1.7-15.5,6.4-3.3,3.8-5.2,8.4-6.5,13.1-2.5,8.7-3.4,17.7-3.7,26.7Z"/>
    <path class="cls-5" d="M192.2,487.4c1,9.3,2.9,18.2,8.4,25.8,5,7.1,12,10,20.6,9.3,2.7-.2,5.2-1.3,7.6-2.7,4.7-2.7,8.5-6.4,11.8-10.5,3.8-4.7,6.8-10,9.5-15.4.4-.7.7-1.5,1.2-2.4,1.4.6,2.2,1.7,2.9,2.9,1.2,2.1,1.6,4.4,1.6,6.7.2,14.7-6.3,25.1-20.5,30.3-12.6,4.6-25.5,4.8-38.4.8-12.5-3.9-20.9-12.5-26.5-24-3.6-7.3-5.6-15.2-6.6-23.2-1-7.7-1.2-15.4-.6-23.1,1-11.9,4.2-23,11.5-32.7,8.5-11.4,20-17.8,34-20,8.1-1.3,16.3-1.6,24.4.6,10.7,2.9,18.6,9.1,22.5,19.8,2.1,5.8,1.8,11.8.7,17.7-2.8,15.5-12.3,25.7-26,32.4-8.7,4.3-18,6.3-27.6,7.3-3.3.3-6.7.6-10.2.6ZM191.6,475.8c7.6-.4,14.7-1.9,21.3-5.3,6.1-3.2,10.7-8,13.4-14.4,2.7-6.5,3.5-13.3,3-20.2-.2-3.1-.9-6.1-2.5-8.8-2.3-4.1-5.8-6.4-10.6-6.7-6-.3-10.9,2.1-14.7,6.6-3,3.5-4.8,7.7-6.2,12.1-2.6,8.3-3.4,16.9-3.8,25.6-.2,3.7-.2,7.4,0,11.2Z"/>
    <path class="cls-5" d="M485.1,493.2c2.9,2.1,4,4.8,4.2,7.8,1.1,15.6-5.9,26.7-20.4,32.2-7,2.7-14.3,3.3-21.7,3.3-21.6,0-37.3-10.8-45.2-30.9-3.6-9.1-5.1-18.6-5.5-28.4-.4-10.1,0-20.1,3.3-29.8,7.2-21.3,21.9-33.8,44.3-36.8,8-1.1,16-1.2,23.8,1.2,10.5,3.3,18.1,9.8,21.5,20.5,1.9,6,1.3,12.2,0,18.2-2.3,10.9-8.3,19.4-17.3,25.8-8.1,5.8-17.2,9-26.9,10.9-5.7,1.1-11.4,1.7-17.2,1.9-2.1,0-2.2.1-1.9,2,.8,6.5,2.2,12.8,5.1,18.8,1.3,2.7,3,5.1,4.9,7.4,6.7,8,19.4,9.2,27.4,3.8,4.8-3.2,8.8-7.2,12.2-11.8,3.2-4.3,5.9-9,8.2-13.9.3-.7.7-1.3,1.1-2.2ZM425.2,468.2c0,2.7,0,5.4,0,8.1,0,1.1.3,1.5,1.5,1.4,6.3-.7,12.5-1.8,18.3-4.5,7.4-3.5,12.8-8.9,15.7-16.6,2.5-6.7,3-13.6,2.2-20.6-.3-2.9-1.2-5.6-2.9-8.1-2.1-3-4.8-5-8.6-5.5-6.8-.9-12.2,1.7-16.4,6.9-3,3.7-4.7,8-6,12.5-2.5,8.6-3.3,17.5-3.7,26.5Z"/>
    <path class="cls-4" d="M306.2,387.5c-.2-.7,0-1.3.2-1.9,1.7-6.5,2.5-13.1,3.1-19.8,1.4-14.7,1.3-29.4.9-44.1-.2-5.9-.9-11.7-2.2-17.4-1.2-5.3-3.3-10-6.7-14.2-.7-.9-1.6-1.8-2-2.9.5-.8,1.2-.5,1.8-.5,11.2,0,22.3,0,33.5,0,.3,0,.6,0,.8,0,1.7,0,1.8.2,1.4,1.8-.6,2.6-1.2,5.2-1.7,7.9-.9,5.5-1.5,11.1-1.9,16.6-.9,12.3-.9,24.6-.6,36.8.4,12.1,1.1,24.1,4.2,35.9.5,1.7.3,2-1.2,2-9.8,0-19.5,0-29.3,0-.2,0-.3-.2-.5-.2Z"/>
    <path class="cls-4" d="M200.3,215.6c-.7-1-1.5-2.1-2.2-3.1.2-.2.4-.4.7-.5,9-2.7,15.8-8.6,21.4-15.9,6.8-8.8,13.4-17.9,20.1-26.8,7.5-9.8,15.4-19.1,24.4-27.5,12.3-11.5,26.1-20.7,42.3-25.9,4.9-1.6,9.9-2.7,15.1-2.6,4.4.1,7.9,2,10.3,5.7.9,1.3,1.6,2.7,2.3,4.1,3.8,7.7,7.6,15.4,11.4,23,.2.5.4,1.1,1.1,1.4.9-.3,1.4-1.3,1.8-2.1.8-1.4,1.4-2.8,2-4.3,1.6-3.6,3.9-6.6,7.1-8.8,4.6-3.2,8.9-2.2,11.4,2.7,2.9,5.7,5.7,11.5,8,17.5,9.2,23.6,23.1,43.9,41.6,61.1,10.9,10.2,23.1,18.8,36.4,25.6,3.3,1.7,6.8,3.1,10.4,3.8,4.4.9,8.5.3,12.4-2,.8-.5,1.6-.9,2.4-1.4,3.5-1.9,7.1-1.9,10.2.7,3.3,2.6,6.7,3.2,10.7,2.2,3.5-.8,6.8-.3,10,1.5,5.6,3.2,11.6,5.1,17.9,5.8,4.6.5,9.1.3,13.6-.5.8-.1,1.6-.3,2.5-.4.9,0,1.4.5,1.5,1.3.1.7-.3,1.3-1,1.5-.8.2-1.6.4-2.4.6-11.5,1.9-22.4.5-32.7-5.2-3.3-1.8-6.6-2.5-10.2-1.5-3.9,1.1-7.4.3-10.5-2.1-.4-.3-.8-.5-1.2-.8-2.5-1.9-5.2-2-7.7-.1-6.9,5.1-14.2,4.7-21.8,1.8-8.2-3.1-15.7-7.7-22.9-12.7-20.9-14.4-37.9-32.6-50.8-54.5-4-6.8-7.6-13.9-10.4-21.3-2.5-6.5-5.7-12.6-8.5-18.8-.3-.7-.7-1.3-1.2-1.9-1.5-1.9-3-2.2-5.2-1-2.2,1.2-3.8,2.9-5.2,5-1.4,2.1-2.4,4.4-3.5,6.6-.9,1.8-1.9,3.5-3.4,4.7-2.2,1.9-3.2,1.6-4.4-.9-4.1-8.4-8.3-16.9-12.4-25.3-.5-.9-.9-1.8-1.5-2.7-2.6-4.4-6.4-6-11.3-5.4-3,.4-5.9,1-8.7,1.8-13.4,3.8-25.2,10.5-35.9,19.2-11,9-20.4,19.6-29.3,30.6-7,8.7-13.3,18-20.1,26.8-3.9,5-8,9.8-13.1,13.7-3,2.3-6.2,4.1-9.7,5.5-.8.3-2,.3-1.9,1.6Z"/>
    <path class="cls-4" d="M446.8,401.2c1.8-4,3.3-7.5,4.9-11.1,3-6.8,5.9-13.7,7.9-20.8.4-1.5,1.1-2.1,2.7-2,5.6,0,11.2,0,16.7,0,2,0,2.1.2,1.3,2.1-4,8.3-9.1,15.8-15.1,22.7-2.5,2.8-4.9,5.6-7.8,8-1,.8-2,1.2-3.3,1.2-2.3,0-4.6,0-7.4,0Z"/>
    <path class="cls-4" d="M364.7,237.7c0-6.9,2.8-10.1,8.2-10.9,2-.3,4-.3,6.1,0,5.1.8,8.1,4.2,8,9.4,0,5-1.8,9.5-5.4,13.1-3.6,3.6-8,3.6-11.6,0-3.7-3.6-5.2-8-5.3-11.6Z"/>
  </g>
  <g>
    <g>
      <path class="cls-3" d="M377,77.3c-3.8,3.7-6.3,7.8-9.8,11.4-1.8-4.4-3.6-8.7-5.4-13-1.4.6-1.3,1.8-1.6,2.7-.8,3-1.6,5.9-2.4,8.9-.7,2.8-.9,2.9-3.8,2.3-.3,0-.7-.2-1.2-.4,2.4-8.5,4.9-17,7.3-25.4.2,0,.3,0,.5-.1,2.5,6,5,12,7.7,18.4,4.4-5.2,8.5-10.1,12.6-15,.7.5.5,1,.5,1.4,0,7.5-.1,15.1-.2,22.6,0,.6,0,1.1,0,1.7,0,.6-.4,1-1.1.9-.6-.1-1.3-.2-1.9-.3-1.1,0-1.4-.6-1.4-1.6.1-2.5.2-5,.3-7.5.1-2,.3-4,0-6.6Z"/>
      <path class="cls-3" d="M477.1,126c-1.2-1.6-3.1-2.3-4.6-3.5-.5-.4-1.4-.5-1.3-1.3.1-.9.7-1.7,1.5-2.3.5-.4.9,0,1.3.3,2.8,1.8,5.6,3.7,8.4,5.6.7.5.8.9.3,1.6-6.3,8.4-15.3,7.3-20.8,1.2-3.6-4-4.4-8.8-2.3-13.8,2-4.9,5.7-8.1,11-8.8,5.5-.7,13.3,3,15.2,10.5,0,.2,0,.4,0,.6,0,.7.4,1.7-.3,2.1-1,.6-2.2.4-3.3.1-.7-.2-.4-1.1-.6-1.7-1.5-6.5-9.3-9.5-14.6-5.5-5.8,4.5-6,12.9,1.2,16.5,3,1.5,6,1,8.8-1.5Z"/>
      <path class="cls-3" d="M523.2,149.8c7.1-.3,13.7,6.8,13.5,14.2,0,6-5.9,13.4-14,13.2-8.2-.1-13.6-6.9-13.5-13.9,0-8.1,7.7-14,14-13.5ZM532.5,163.3c0-4.7-4-9.1-8.7-9.2-5.2-.1-10,4.4-10.1,9.6,0,5,4,9.2,8.9,9.2,5,0,9.8-4.6,9.9-9.5Z"/>
      <path class="cls-3" d="M547.1,202c2.6-.9,4.6-2.7,6.9-4.1,2.3-1.3,4.4-2.7,6.6-4.1.2,0,.5.1.6.2,2.2,3,2.2,3-1.1,5.1-6,3.8-12,7.5-17.9,11.3-.5.3-.9.6-1.9.7,1.5-8.4,3.8-16.5,5.2-25-1.7.4-2.8,1.3-3.9,2-3,1.9-5.9,3.8-9,5.7-1.6,1-3.6-.2-3.7-2.1,0-.8.7-1,1.2-1.4,3.8-2.4,7.7-4.8,11.6-7.3,3.2-2,6.4-4,10.1-6.3-1.1,4.8-2.1,9.2-3,13.6-.7,3.7-2,7.3-2.2,11.2-.2.2-.3.5-.1.7.3.2.5,0,.6-.2Z"/>
      <path class="cls-3" d="M443.1,116.9c-2.9-7.9-5.8-15.8-8.7-23.6-1.2,0-1.2.9-1.4,1.4-1.9,3.9-3.7,7.9-5.6,11.8-.3.6-.4,1.7-1.4,1.5-1.1-.2-2.2-.6-2.9-1.5-.4-.5,0-1.1.3-1.6,1.1-2.4,2.2-4.7,3.3-7.1,2.2-4.6,4.4-9.2,6.6-13.9.3-.6.4-1.3,1.3-1.6,2.9,7.9,5.8,15.8,8.8,23.8,1-.4,1.2-1.1,1.5-1.8,1.8-3.9,3.7-7.7,5.5-11.6.5-1,.8-2,2.4-1.2,2,1.1,2.3,1.2,1.4,3.1-2.5,5.4-5.1,10.8-7.6,16.1-.9,2-1.9,4-2.8,6-.2,0-.4,0-.6,0Z"/>
      <path class="cls-3" d="M513.6,134.7c-2.7,3.2-2,3.1-5,.6-1.7-1.3-3.2-2.8-4.8-4.2-1-.9-1.7-.7-2.6.1-3.2,3.1-3.2,3.5.2,6.4,1.3,1.1,2.7,2.3,4,3.5,1.3,1.1.1,1.7-.5,2.5-.6.8-1.2.9-2,.2-1.9-1.8-4-3.4-5.9-5.1-.9-.8-1.5-.9-2.3,0-1.1,1.3-2.2,2.6-3.3,3.8-.9,1-.7,1.8.2,2.6,2,1.7,4,3.4,5.9,5.1.5.5,1.4.9,1,1.8-.4.8-1.1,1.6-1.9,2-.5.2-.9-.2-1.2-.5-3.1-2.7-6.2-5.4-9.2-8.1-1.5-1.4-1.6-1.6-.2-3.2,3.2-3.7,6.4-7.3,9.6-10.9,1.5-1.7,2.9-3.4,4.4-5,1.8-1.9,1.8-2,3.7-.3,3.3,2.8,6.5,5.8,9.9,8.8Z"/>
      <path class="cls-3" d="M573.1,228.7c-.6,0-1-.4-1.5-.7-1.3-.8-1.9-1.6-.9-3.1,1.1-1.7.8-3.6-.2-5.3-.6-1-1.5-1.7-2.7-1.6-1.2.1-2.1.8-2.6,1.9-.7,1.7-.8,3.4-.5,5.2.4,1.9.1,3.7-.4,5.5-1.5,4.7-7.1,6.6-11.1,3.8-4.6-3.2-5.8-9.3-2.5-14.6.8-1.3,1.6-.9,2.5-.3,1,.6,1.7,1.1.9,2.4-.4.6-.7,1.3-1,2-.7,1.7-.7,3.5.2,5.1.9,1.7,2.4,2.5,4.1,2.2,1.7-.3,2.9-1.6,3-3.5.1-1.5,0-3,0-4.5,0-1.4,0-2.8.3-4.2.7-2.9,2.5-4.6,5.3-5.2,2.8-.6,5.1.5,6.9,2.7,3.2,3.8,3,9.3,0,12.3Z"/>
      <path class="cls-3" d="M413.4,102.4c-1.5.3-2.2-.2-3-.4-1.2-.2-1.7-1-1.8-2.2-.1-1.5-.4-3-.5-4.4-.1-1-.6-1.5-1.5-1.7-2.1-.6-4.3-1.3-6.4-2-1-.3-1.8-.2-2.4.7-.5.7-1.1,1.3-1.6,1.9-2.6,2.8-2.6,2.8-6.7,1,6.6-7.4,13.1-14.6,20.1-22.4,1.4,10.2,2.7,19.8,4,29.5ZM407.7,88.6c-.1-1.1-.2-2.2-.4-3.3-.2-1.1.4-2.7-.6-3.1-1.3-.5-1.9,1.1-2.6,2-1,1.2-3,2.4-2.4,3.7.6,1.5,3,1.4,4.6,2,1.1.3,1.6-.2,1.4-1.3Z"/>
    </g>
    <g>
      <path class="cls-1" d="M225.4,112.4c-8.2.3-13.6-7.3-13.6-14,0-7.4,6.4-13.4,14.1-13.5,7.5-.2,13.4,6.2,13.6,14,.1,7.4-6.3,13.5-14.1,13.5ZM234.6,99c0-5.4-4.1-9.7-9-9.7-5.1,0-9,3.7-9,8.6,0,5.5,4.1,10,9.2,9.9,4.9,0,8.9-4,8.9-8.8Z"/>
      <path class="cls-1" d="M269.3,86.5c-.7-4.1-2.2-8.1-3.3-12.1-.1-.5-.2-.9-.4-1.3-.2-.8-.8-1.7,0-2.3.8-.7,2-1,3.1-.9,1.1,0,1,1.2,1.2,1.9,1.6,5.6,3.2,11.3,4.8,16.9.7,2.3,1.3,4.6,2.1,7.6-8-4.4-15.4-8.4-22.8-12.5-.9.7-.3,1.3-.2,1.8,1.1,4.1,2.3,8.2,3.5,12.4.6,2.2.6,2.2-1.5,2.8-2.1.6-2.2.6-2.7-1.4-2.2-7.8-4.4-15.6-6.6-23.4,0-.2,0-.5,0-1.2,3.2,1.7,6.2,3.4,9.2,5,4,2.2,8,4.4,12,6.6.4.2.9.3,1.3.4.2.2.4.3.6,0,0,0-.2-.2-.2-.3Z"/>
      <path class="cls-1" d="M146.5,153.5c.6.2,1.1-.2,1.6-.3,2.8-.8,5.1,0,7,2.2,1.9,2.2,2.2,4.6,1.3,7.3-.5,1.5-1.5,2.8-2.5,4-1.5,1.7-3.2,3.4-4.7,5.1-.8.9-1.5,1.2-2.5.2-5.6-5.3-11.3-10.5-17-15.7-.9-.8-.9-1.5,0-2.3,1.7-1.7,3.3-3.6,4.9-5.3,1.1-1.2,2.4-2,4-2.5,3.8-1.2,7.7,1.5,7.9,5.5,0,.6-.3,1.3.2,1.9ZM152.4,161.2c0-3.1-3.1-5.3-5.7-4.1-1.8.8-2.9,2.3-4.1,3.7-.5.6-.2,1,.2,1.5,1.5,1.4,3,2.8,4.6,4.1.3.3.8.6,1.2.2,1.8-1.5,3.4-3.2,3.7-5.4ZM139.5,150.4c-1.3,0-4.3,2.4-4.7,3.6-.1.4,0,.7.3,1,1.2,1.1,2.4,2.3,3.7,3.4.4.4.8.4,1.2,0,1.2-1.2,2.4-2.3,2.8-4,.5-1.8-1.4-4-3.3-3.9Z"/>
      <path class="cls-1" d="M165.8,119.5c3.9,4.6,7.6,8.9,11.2,13.2,4.9,5.8,2.3,13.7-5.1,15.8-3,.9-5.8.4-8-1.8-4.3-4.3-8-9.3-12.1-13.9-.5-.6-.5-1.2,0-1.7.4-.4.9-.7,1.3-1.1,1-1,1.7-.7,2.5.2,2.8,3.4,5.6,6.7,8.5,10,.7.8,1.4,1.7,2.2,2.5,2.2,2.2,4.6,2.2,6.9.1,2.1-1.8,2.4-4.4.6-6.7-1.9-2.5-4-4.9-6.1-7.3-1.4-1.7-2.9-3.4-4.3-5.1-1.2-1.4-1.2-1.5.2-2.7.6-.5,1.3-1,2.2-1.7Z"/>
      <path class="cls-1" d="M289.3,84c1,.8,1.9,1.9,3,2.7,1.5,1,3.1,1.3,4.8.9,1.4-.3,2.6-1.1,2.9-2.7.3-1.7-.3-3.1-1.9-4-1.1-.6-2.2-.9-3.4-1.2-1.3-.3-2.7-.6-4-1.1-3.3-1.3-5-3.8-4.9-7,.1-2.9,2.1-5.5,5.4-6.5,3.8-1.2,7.4-.7,10.3,2.3,1.2,1.3,1.2,1.5,0,2.6-1.6,1.4-1.7,1.4-3.4,0-1.6-1.3-3.4-1.9-5.4-1.1-2.3.9-2.7,3.3-.7,4.8,1,.8,2.3,1.2,3.6,1.5,1.4.4,2.9.6,4.3,1.2,3.2,1.2,5.1,3.4,5.3,6.8.2,3.5-1.5,5.8-4.5,7.4-4.4,2.3-10.3.9-13.3-3.1-.6-.8-.6-1.5.2-2.1.6-.5,1.1-1.3,2.1-1.6Z"/>
      <path class="cls-1" d="M202,128.2c-8.9-5.7-17.3-11-25.5-16.3,0-.8.4-1,.7-1.2q3-2.1,6,0c3.7,2.5,7.3,5.1,11,7.6.7.5,1.3,1.1,2.4,1.1-.7-3.9-1.3-7.8-1.9-11.6-.3-1.8-.5-3.7-1-5.5-.4-1.4,0-2.3,1.3-2.9.8-.4,1.5-1.2,2.9-1.2,1.3,9.7,2.7,19.5,4.1,30Z"/>
    </g>
    <g>
      <path class="cls-2" d="M592.5,384c0,7.8-5.7,13.7-13.1,13.7-8.1,0-14-5.7-14-13.5,0-8,5.7-13.7,13.5-13.7,9,0,14,7.1,13.7,13.4ZM579.3,393.1c5.3,0,8.9-3.5,9.1-8.8.2-4.7-3.1-9-9.7-9.3-5.1-.3-9.1,3.9-9.1,9.2,0,5.1,4.1,8.9,9.7,8.9Z"/>
      <path class="cls-2" d="M584.2,326.3c-6.3.4-13.5-4.5-13.4-13.7,0-9.2,6.7-13.4,13.8-13.4,7.3,0,13.4,5.1,13.4,13.8,0,8-5.9,13.6-13.7,13.3ZM584.6,303.8c-5.7,0-9.3,3.6-9.5,9-.2,5,4,9.1,8.9,9.1,6.1,0,9.8-3.6,9.9-9.1,0-5.2-3.9-9-9.3-9Z"/>
      <path class="cls-2" d="M561.6,425.9c2.1,1.6,4.2,2,6.2,2.8,2.7,1.1,5.4,2.1,8.1,3.1,1.7.7,1.7.7,1.1,2.4-.8,2.2-.8,2.2-2.9,1.4-7.4-2.8-14.7-5.7-22.1-8.5-.3,0-.5-.3-1-.7,7.9-3.6,15.7-7.1,23.4-10.6-.4-1-1.2-1.1-1.9-1.4-4.2-1.6-8.3-3.3-12.5-4.8-1.3-.5-1.4-1.2-.8-2.1.5-.8.2-2.6,2-1.9,8,3,15.9,6.2,24.3,9.4-8.2,3.7-15.9,7.2-23.9,10.8Z"/>
      <path class="cls-2" d="M597.4,344.4c-5.7-.5-11.3-.9-16.8-1.4-4.4-.3-7.1,3-5.9,7.2.5,1.8,1.9,2.7,3.7,3.1,1.2.2,2.4.4,3.6.5,3.8.3,7.6.5,11.4.7.3,0,.6,0,.8,0,2.8.3,3,.6,2.4,3.3-.2.9-.5,1.3-1.4,1.2-5.6-.5-11.3-1-16.9-1.5-6.3-.6-8.3-6.5-7.6-11,.9-5.2,4.3-8,9.5-7.8,5.4.2,10.8.8,16.1,1.1,1.3,0,1.9.6,1.6,2-.1.7-.3,1.5-.5,2.5Z"/>
      <path class="cls-2" d="M540.3,450.1c0-5.2,4.5-9.8,10.6-10.1,1.2,0,1.4.7,1.4,1.6,0,.9.7,2.2-1,2.4-1.5.1-2.9.4-4.3,1.2-1.4.9-2.3,2.1-2.6,3.8-.2,1.5,0,2.8,1.4,3.7,1.3.8,2.6,1,3.9.3,1.3-.7,2.4-1.7,3.6-2.6,1.9-1.6,3.9-3.1,6.7-3.1,3.7,0,6.4,2.4,6.8,6.1.4,4.3-3.5,9.4-7.7,9.9-.9.1-2.1.7-2.5-.8-.4-1.7,0-2.6,1.7-3,1.8-.5,3.3-1.3,4.1-3,.7-1.5.6-2.9-.4-3.9-1.1-1.1-2.3-1-3.6-.4-1.6.7-2.8,1.8-4.1,2.9-1.8,1.6-3.7,2.8-6.2,2.8-4.6,0-7.8-3-7.7-7.6Z"/>
      <path class="cls-2" d="M565.6,289.4c-3.8,0-5.5-1.2-6.5-4.3-.5-1.4-.5-2.8-.3-4.1.3-2.7,1.1-3,3.4-1.6.7.5.6.9.5,1.6-.5,3.2.8,4.5,4.1,3.9,8.3-1.5,16.6-3.1,24.9-4.6.6-.1,1.5-.4,1.7.3.4,1.1.7,2.3.4,3.5-.1.4-1.1.5-1.7.6-5.4,1-10.8,1.9-16.2,2.9-2.7.5-5.3,1-8,1.4-.9.2-1.8.3-2.2.3Z"/>
    </g>
    <path class="cls-5" d="M562.5,253.8c-3.1-.3-6-.6-8.8-.9-1.2-.1-2-1.8-1.5-2.9.2-.4.5-.5.9-.5,2.8,0,5.6,0,8.3,0,.9,0,1.1.4,1.1,1.2,0,.9,0,1.8,0,3.1Z"/>
    <path class="cls-5" d="M318.6,95.4c-1.9-.1-2.3-.6-1.8-2.4.6-2.2,1.4-4.4,1.9-6.6.3-1.1.6-1.7,1.9-1.2.4.2.9.2,1.4.3,1,.2,1.4.5.9,1.7-1.1,2.4-2,4.8-2.9,7.2-.2.6-.5,1.3-1.4,1.1Z"/>
  </g>
</svg>