<?xml version="1.0" encoding="UTF-8"?>
<svg id="Calque_1" data-name="Calque 1" xmlns="http://www.w3.org/2000/svg" version="1.1" viewBox="0 0 615.9 625.9">
  <defs>
    <style>
      .cls-1 {
        fill: #000;
        stroke-width: 0px;
      }

      .cls-2 {
        fill: #f89997;
        stroke: #000;
        stroke-miterlimit: 10;
        stroke-width: .5px;
      }
    </style>
  </defs>
  <g>
    <path class="cls-1" d="M299.2,516.6c-1.8-2.9-3.9-5.6-5.3-8.5-3.7-8.4-2.7-16.7,1.6-24.7,3-5.5,7-10.3,12.7-13.1,9.7-4.9,19.3-4.2,28.4,1.8,1.8,1.2,3.5,2.5,4.8,4.1,2.2,2.6,2,5.8,1.7,9-.3,3.6-.9,7.1-1,10.7-.1,5.2,1.7,5.9,6.3,6,2.2,0,4.4,0,6.6.4-2.4,0-4.8-.1-7.2,0-3.4.2-6.9.6-10.3,1-2.5.3-5,.7-7.4,1.2-.7.1-1.3.4-1.9.7-5.9,2.8-11.8,5.6-18.4,8.7,4.3,2.4,8.2,4.5,12.1,6.8,4.7,2.8,9.4,5.5,11.6,11,.6,1.5,1.5,3,.9,4.7-.2.4.4,1.1.4,1.6-.3,2.6-.4,5.3-1,7.8-1.3,5.3-3.5,10.2-6.7,14.6-2.4,3.3-5,6.6-7.8,9.6-5,5.4-11,9.6-17.5,12.9-2.2,1.1-4.7,1.8-7.1,2.5-3.6,1-7-.2-10.1-1.9-4.1-2.1-8.1-4.5-12.1-6.7-.7-.4-1.5-.6-2.2-1.1-1.9-1.3-3.7-.5-5.4.1-6.6,2.5-13.2,5.2-19.8,7.9-2.4.9-4.8,1.9-7.3,2.6,14.8-8,29.6-15.8,40.1-29.6.3,2.6.5,5.1,1,7.7,1,5.5,3.4,10.3,8.3,13.2,4.5,2.6,9.4,2.6,14.2.8,5.9-2.2,10.4-6.3,14.3-11,4.3-5.2,7.8-11,10.5-17.3,3.5-8.5.9-14.9-6.1-19.6-4.3-2.9-9-5.3-13.4-8-1.7-1-3.2-2.3-4.8-3.5-5.6,3.6-10.9,7.7-14.6,13.4-3.8,5.8-4.7,12-2.4,18.6,1.1,3.3,4.7,5.2,8.5,4.5,8.3-1.4,14.1-6.3,18-13.6.5-1,.7-2.2,1.1-3.6.4,4.3-1,7.7-3.4,10.8-3.9,4.9-8.8,8.2-15,9.5-4.5.9-8.9.9-12.2-3.2-2-2.5-2.8-5.5-2.6-8.5.2-3.3.4-6.7,1.3-10,1-3.9,3.4-7.2,6.1-10.2,3.7-4.1,8-7.4,12.6-10ZM303.2,497.6c.3,6,1.5,9.7,4.1,12.9.7.9,1.2,1,2.2.5,3-1.4,6.1-2.6,9.2-3.9,2.7-1.2,5.8-1.9,8.1-3.6,4.3-3.2,7.7-7.4,9.6-12.6,1.9-5.4,0-10.7-5-13.4-6.4-3.4-12.6-2-18.2,1.7-7.2,4.8-9.8,11.9-9.9,18.3Z"/>
    <path class="cls-1" d="M217.2,469.6c-1.9-1.6-3.7-3.5-5.7-4.9-5.4-3.5-10.8-3.1-16.1.4-5.1,3.4-9.1,7.9-12.5,12.9-3.9,5.8-7.8,11.7-11.3,17.7-3.1,5.3-5.8,10.8-8.5,16.2-3.7,7.5-7.3,15-10.9,22.6-.2.3,0,.8.1,1.4-1.8,1-2.1,3.2-2.9,5.1-1.7,4-3.4,7.9-4.7,12-2,6-4.2,11.9-4.2,18.3,0,1.5-.1,2.9.8,4.3,1.5,2.2,3.2,2.9,5.9,2.4,4.3-.8,7.8-3.1,11.4-5.2,1.2-.7,2.2-1.8,3.4-2.3,2.6-1.1,3-3.2,3.4-5.6.9-6.8,4.2-12.6,8.3-17.9,3.6-4.7,8-8.5,13.3-11.1,3.2-1.6,6.5-3.1,10.4-2.2,2.6.6,4,2.4,4.1,4.8,0,2.8-.5,5.7-.9,8.6,2.4.5,4.6,1.9,5.3,5.1.4,2.3-.5,4.1-1.6,5.8-.9,1.4-2.2,2.5-3.5,3.5.5-1,1.1-2,1.4-3.1.4-1.6.7-3.2.7-4.9,0-1.7-2.8-3.6-4.5-3.3-.3,0-.5.2-.7.4-4,4.3-9.2,5.9-14.7,7-2.3.5-4.6.7-6.6,1,3.7-1.7,7.8-3.3,11.6-5.3,3.1-1.6,5.4-4.2,7.3-7.1.2-.3.3-.8.5-1.2,1.3-3.3-.5-5.5-4-4.9-5.5,1-9.9,4-13.4,8.2-3,3.7-5.1,7.8-5.9,12.5-.4,2.4-.7,5-.2,7.3,1.1,5.2,4.6,7,10,5.4,3.2-1,6.2-2.7,9.1-4-.8,2.1-1.7,4.6-2.9,7-.4.8-1.6,1.3-2.6,1.7-3,1.2-6,2.1-9.4,2.2-5.1.1-10.7-3.7-11.2-9.5,0-.6-.3-1.1-.5-1.8-2.8,2-5.5,4-8.3,5.9-4.4,3-9,5.5-14.2,6.8-4.6,1.2-8.3-.3-8.6-5.8,0-.2,0-.4-.1-.7-5.2,3.5-10,7.5-16.1,8.8-2.8.6-5.8.9-7.8-1.7-1.1-1.5-2.1-3.4-2.3-5.2-1-8.6,0-16.9,4.3-24.5,3.3-5.8,8.3-9.8,14.5-12.3,5.9-2.4,12-3.7,18.3-4.4.6,0,1.4-.7,1.6-1.2,3.9-8.8,7.3-17.9,11.5-26.5,3.9-7.9,8.5-15.5,13-23.1,3.6-5.9,7.6-11.6,12.6-16.5,2.8-2.8,5.7-5.6,8.8-7.9,4-3,8.5-4.8,13.7-3.7,4.1.9,6.7,3.8,8.8,7.2,1,1.6,1.8,3.4,2.7,5.1,0,0-.1,0-.2.1ZM143.7,540.7c-7.4,2.2-14.7,4.5-20.8,9.5-3,2.5-5.5,5.4-6.7,9.3-1.3,4.1-.9,8.3-.8,12.4,0,1.3.3,2.6.8,3.8,1.2,2.9,4.6,3.1,7,2.5,2.5-.6,4.9-1.6,7.3-2.4,2.3-.7,4-2,3.9-4.7,0-.8.3-1.6.6-2.4,2.8-9.3,5.7-18.5,8.6-28Z"/>
    <path class="cls-1" d="M475,554.9c4.2,1.1,6.1,3.1,6,6.5,0,2.6-1.7,4.7-3.5,6.6-.4.4-1.1.7-1.3.9.4-1.2,1.1-2.7,1.5-4.3.6-2,.6-3.9-1.3-5.5-1.5-1.2-3-1.1-4.4.2-3.3,3.3-7.6,4.8-12,5.8-2.5.6-5,.9-7.5,1.4-.2,0-.5-.1-.6-.1,3.5-1.6,7.2-3.1,10.7-4.9,3.3-1.8,6.3-4.2,7.9-7.8.5-1.1.5-2.4.5-3.7,0-1.3-1.9-2.1-3.9-1.9-4,.3-7.4,2.2-10.3,4.6-5.9,4.9-9.2,11.4-9.9,19-.3,3-.2,6.1,2.1,8.4,2.5,2.6,6.3,2.6,9.9,1,2.6-1.1,5.1-2.6,7.6-3.9-.9,2.4-1.8,5-3,7.4-.5.9-1.9,1.4-3,1.8-3.6,1.5-7.3,2.6-11.2,1.9-4.3-.8-8.2-3.9-8.9-8.9-.2-1.5-.4-3.1-.5-4.7-3.2,2.1-6.3,4.4-9.6,6.3-2.5,1.4-5.2,2.6-7.9,3.5-2.8.9-4.2-.4-4.3-3.2,0-2.9.7-5.6,2-8.2,4-7.9,7.8-15.8,11.7-23.7,1.3-2.7,2.8-5.4,4.1-8.1,2.8-5.8,5.4-11.6,8.2-17.4,1.9-3.9,4-7.7,6-11.6-5.7,1.1-20.1,9.4-28.5,20.1.8-1.3,1.5-2.7,2.4-4,3.1-4.2,6.7-7.8,10.6-11.2,5.1-4.5,11.2-7.3,17.3-10,1.9-.9,2.3-2.6,3.2-4,4.8-7.4,9.4-14.9,14.3-22.2,1.9-2.9,4.2-5.7,6.8-8,3.6-3.2,8.7-4.3,12.7-1.4,3.1,2.2,4.5,6,3.5,10.2-1.4,6.3-5.4,10.7-10.1,14.7-4.4,3.6-9.3,6.4-14.5,8.6-2.6,1.1-5.2,2.4-7.9,3.1-2.4.7-3.4,2.4-4.4,4.2-2.7,5.1-5.3,10.2-7.9,15.4-3.9,7.6-7.7,15.2-11.5,22.8-1.6,3.2-3.4,6.3-4.8,9.5-1.9,4.4-5,8.3-6.3,13.1-.7,2.6-.5,5.1,3.5,4.6,2.6-.3,5-1.2,7.6-1.9.8-.2,1.6-.6,2.4-1,1.1-.5,1.7-1.1,1.8-2.5.3-3.9,2-7.4,3.8-10.8,3-5.6,7-10.3,12-14.1,3.8-2.9,8-5.2,12.8-6,2.3-.4,4.7-.2,6.3,1.9.3.4.7,1,.8,1.5.7,3.5.2,6.8-1.2,10.1ZM461.1,503.1c.1.1.3.3.4.4,4-2,8.1-3.9,12.1-6.1,3.9-2.2,7.7-4.7,10.2-8.7,1.4-2.2,2.4-4.5,2.4-7.2,0-4.1-3-6-6.4-3.7-2.2,1.5-4.3,3.4-5.9,5.6-3.1,4.1-5.8,8.5-8.6,12.8-1.5,2.3-2.8,4.6-4.2,6.9Z"/>
    <path class="cls-1" d="M574.5,111.8c-2.8-1.6-5.2-2.8-7.5-4.2-6.3-3.8-12.7-7.6-18.9-11.7-4.6-3-9-6.4-13.3-9.8-7.5-5.9-14.6-12.4-20.5-20-2.2-2.8-4.2-5.9-4.8-9.6-.5-3,1.2-5.3,4.2-5,5.1.5,9.4,3.1,13.3,6.3.1.1.2.3.3.5-.8,1.2-1.6,1.5-2.9.6-3.1-2-6-4.2-9.8-4.7-.9-.1-1.9,0-2.8.2.5,5.4,3.6,9.1,6.6,12.7,5.2,6.4,11.4,11.6,17.7,16.8,7.2,6,14.9,11.2,22.9,15.9,7.1,4.2,14.4,8.1,21.6,12.2.6.4.8,1.5,1.3,2.7-20.8-1.3-40.7-3.5-59.8-10.8,1.7,1.3,3.4,2.6,5.2,3.9,4.2,3.1,8.4,6.3,12.7,9.3,3.2,2.2,6.5,4.3,9.8,6.5,4.3,2.8,8.6,5.6,12.8,8.4,6,4,12.1,8.1,18.1,12.1.7.5,1.5,1,2.1,1.7.3.4.3,1.1.5,1.6-.6.1-1.4.5-1.9.3-4-1.9-7.8-4-11.8-5.7-7.5-3.3-15.1-6.6-22.7-9.6-5.3-2.1-10.7-3.9-16.3-5.3-3.6-.9-7.4-1.2-11.1-1.2-5.9,0-6.3,3.2-5.2,7.3,1.1,4,3.4,7.4,5.7,10.9.7,1,1.9,2.1.1,3.5,5,1.5,8.7,4.6,12.2,8.1,1.9,1.9,3.8,3.8,5.1,6.1,1.6,2.7,2.2,5.8,1.2,9-.2.6-.3,1.3-.3,1.9,0,2.3-1.8,3.2-3.4,4.2-1.1.7-2.2.9-3.5-.3-4-3.8-8.3-7.1-13.4-9.2-1.3-.5-2.7-.7-4.1-1-1-.2-1.4.4-.9,1.3,1.4,2.6,2.5,5.6,4.4,7.8,3.9,4.6,8.3,8.8,12.5,13.1,1.7,1.8,3.6,3.4,5.4,5,.7.6.7,1,0,1.6-.4.3-.7.6-1.5,1.3-2.4-2.6-4.7-5.3-7.3-7.7-2.6-2.5-5.8-4.1-9.5-4-2.2,0-3.6,2.5-2.5,5.1,1,2.6,2.5,4.9,3.8,7.4.4.8,1,1.4,1.5,2.2-.4.5-.8.9-1.3,1.4,7.5,0,13.7,3.7,20.4,6.7,0-.8-.1-1.5-.2-2.2.7,0,1.5-.1,2.5-.2-.8,3.6,1.7,4.8,4.2,6.2,3,1.8,5.7,3.8,8.6,5.7.2.1.4,0,1,.2-2-2.7-3.8-5.2-5.6-7.7-1.1-1.5-1-1.7.7-2.7,2.9,2.8,11.4,15.1,11.6,16.9-1,.8-1.7.4-2.7-.2-5.3-3.6-10.6-7.1-16-10.7-.3-.2-.7-.3-1.3-.5.4,4.2.7,8.1,1,12.3-.8,0-1.6.1-2.4.2-.4-4.3-.8-8.4-1.1-12.5,0-1.7-1.2-2.3-2.3-2.8-4.6-1.9-9.1-3.8-13.8-5.4-1.8-.6-4-.6-6-.5-2.4.1-3.1,1.6-2.1,3.9,1.6,3.5,4.1,6.2,6.8,8.8.4.4.8.7,1.3,1-.7.8-1.2,1.3-1.8,2.1-3.9-3.8-7.7-7.5-9.1-12.9-.6-2.3.5-4.5,3.8-5.4.6-.1,1.1-.2,1.6-.2-1.5-2.4-3.1-4.8-4.4-7.2-1.2-2.1-1.8-4.4-1.4-6.9.5-3.1,3.9-5.1,7.4-4.3.3,0,.5.1.6.1-2.5-3.2-5.1-6.3-7.4-9.6-1-1.4-1.7-3.2-2.1-4.9-.7-3.1,1.4-4.7,4.7-4.2.5,0,1,.2,1.1.2-1.3-2.6-2.9-5.2-3.9-8-1.2-3.5-.9-7.5,3.1-8.6,1.1-.3,2.4-.3,3.2-.4-1.7-3.1-3.8-6.5-5.5-10.1-.9-1.9-1.6-4-1.9-6-.4-4.1,2-7.1,7.1-7.6,5.2-.5,10.2.4,15.1,1.9,6.6,2,13.1,4.4,19.6,6.8,4.2,1.5,8.3,3.4,12.6,4.8-.3-.2-.5-.5-.9-.7-6.5-4.2-13.1-8.3-19.6-12.6-5.3-3.5-10.5-7-15.6-10.7-4.2-3-8.2-6.3-12.2-9.5-1.6-1.3-3.3-2.6-4.8-4.1-.4-.4-.4-1.3-.6-2,.6,0,1.3-.3,1.8-.1,5.3,2.2,10.6,4.6,15.9,6.7,2.1.8,4.3,1.2,6.5,1.7,6,1.4,12,2.9,18.1,4,4.6.8,9.3,1.1,14,1.7,1.6.2,3.2.4,4.8.6.4,0,.7,0,1.6,0ZM514.2,153.2c.1.7.2,1.4.4,2,.9,3.6,3.1,6.5,5.4,9.3.7.9,1.5,1.8,2.5,2.5,3,2.3,6.2,4.3,9.2,6.6,1.9,1.4,3.3,1.2,4.3-1.1,1.6-3.7,1.2-7.3-1.3-10.4-2.1-2.7-4.5-5.1-7.1-7.3-2.6-2.3-5.6-4.2-9.1-5.1-2.6-.6-4.6.5-4.3,3.3Z"/>
    <path class="cls-1" d="M381,576.9c-6.4,10.8-16.7,16.3-27.8,20.7,2.6-2,5.1-4.1,7.7-6.1,7.3-5.7,14.5-11.6,18.9-20,4.4-8.4,8.5-16.9,12.7-25.4,6.2-12.7,12.3-25.5,18.4-38.3,0-.2.1-.3.3-.8-11.3,4.2-21.1,10.2-28.6,19.6-.1-.1-.3-.2-.4-.3,1.4-1.9,2.7-3.9,4.2-5.8,5-6.3,11.4-10.9,18.5-14.6,2.4-1.2,4.7-2.4,7.2-3.4,1.7-.7,2.5-2,3.4-3.4,4.4-7.3,8.8-14.6,13.5-21.7,2.4-3.7,4.8-7.5,8.5-10.1,4.4-3.2,10-3.3,13.4.6,2.9,3.4,2.8,7.3,1.3,11.3-2.2,5.8-6.5,9.8-11.2,13.5-5.3,4.2-11.2,7.2-17.6,9.3-1.6.5-3.4,1-4.7,2-1.2,1-2.1,2.5-2.8,3.9-2.2,4.1-4.3,8.3-6.4,12.4-4.2,8.2-8.4,16.5-12.6,24.7-.1.2-.3.4-.5.7,3-.7,5.9-1.5,8.7-2,4.1-.7,8.1-1.2,12.1.6,1.8.8,2.9,2.1,3.3,4,.9,4.6.2,9.1-1.2,13.5-2.6,8.3-8.2,14.4-15.3,19.2-3.6,2.5-7.2,4.6-11.9,3.9-3.5-.5-6.7-1.7-9-4.6-.8-1.1-1.3-2.5-2-3.9ZM414.6,555.8c.1-6.5-2.7-8.2-6-8.3-3.5,0-7.1.8-10.6,1.6-1.4.3-3.2,1-3.7,2.1-3.1,5.8-6,11.8-8.9,17.8-.5.9-.9,2-1,3-.5,5.7,5.5,10.2,11.4,9,4.1-.8,7.3-3.2,10.2-6.1,5.5-5.5,8-12.4,8.6-19.1ZM421.3,498.6c.1,0,.2.2.3.3.9-.5,1.8-1.2,2.7-1.5,6.1-2.2,11.6-5.5,16.3-9.9,3.4-3.1,5.7-6.8,5.3-11.7-.2-2.5-1.3-3.4-3.8-3.4-2.2,0-3.9,1.1-5.1,2.7-3.6,4.8-7.2,9.7-10.6,14.7-1.9,2.9-3.5,6-5.3,9Z"/>
    <path class="cls-1" d="M521.9,540.8c-2.1-3.8-4.3-7.4-6.2-11.2-.6-1.2-1-2.7-1.1-4.1-.2-2.7,2.8-4.7,5.8-3.9,5.4,1.6,10.8,3.2,16.3,4.8,1,.3,2.2,0,3.8,0-1.6-2-2.8-4-4.5-5.6-5.5-5.2-11.2-10.2-16.7-15.4-1.5-1.4-2.4-1.9-.4-3.4,7,4.7,13,11.2,22,12.6.5-3.1-1-5.1-2.1-7.2-1.2-2.3-2.9-4.3-4.2-6.6-.3-.5,0-1.4,0-2.1.6.1,1.6,0,1.8.5,2.7,4.4,6.2,8.4,7.1,13.8.4,2.3-.9,4.1-3.3,3.9-1.8-.1-3.6-.6-5.9-1,1.1,1,2,1.7,2.8,2.5,1.5,1.7,3.1,3.5,4.4,5.4,2.3,3.4.5,5.4-3.2,5.1-3.4-.2-6.7-1.2-10-2.1-2.8-.8-5.5-1.9-8.4-2.7-.8-.2-2.1,0-2.5.4-.4.6-.3,1.9,0,2.7,2,4.1,4.2,8.2,6.5,12.5,1.5-.6,2.8-1,4.1-1.5,0,.1.1.2.2.3-1.1.6-2.2,1.1-3.3,1.7,1.9,3.4,3.9,6.5,5.5,9.8,1.5,3,2.5,6.3,3.7,9.4.4,1,0,1.8-1,1.8-.5,0-1.4-.8-1.5-1.3-1.1-5.8-4.2-10.7-7.2-15.6-.5-.9-1.1-1.7-1.9-3-5.7,4.5-11.3,8.9-16.9,13.3.4-.7.9-1.5,1.3-2.3,1.3-2.9.3-5.1-2.8-5.8-3.9-1-11.3,1.3-13,6.2-1,3-.4,5.6,1.1,8.2.2.3,1,.4,1.5.4,2.5.1,5-.1,7.4.4,4.8,1,6.7,5.3,5.5,9.9-1.2,4.8-4.1,8.4-7.6,11.6-4.5,4.1-10.1,4.3-15.9,1.1-1-.6-2-1.3-3.1-2-9.6,4.5-19.4,9.1-29.1,13.6l-.3-.6c11.5-5.5,22.3-11.9,30.6-21.7,1.1,1.7,2.1,3.8,3.6,5.2,2.3,2.3,5.4,2.4,8.3,1.2,3.9-1.6,7.1-3.9,9.1-7.8,1.9-3.8.3-6.4-3.9-6.2-1.5,0-2.9.4-4.4.8-4.9,1.3-8.6-1.5-8.8-6.6-.2-4.9,1.3-9.1,4.4-12.9,4.5-5.6,12.1-7.5,18.8-4.5.2,0,.4,0,.5.2,2.9,2.1,5.7,1.3,8.5-.2,1.5-.8,3.1-1.5,4.6-2.2Z"/>
    <path class="cls-1" d="M374.9,542.7c3.5,1,7,1.9,10.3,2.8-2.9,3.3-6,6.6-8.7,10.1-2.1,2.7-3.9,5.6-5.5,8.6-1.8,3.3-3.4,6.6-4.9,10.1-.6,1.4-.5,3.2-.7,4.8,2.5.5,4.2-.6,5.7-1.8,2.5-1.9,4.8-3.9,7.5-5.7-1.6,2-2.9,4.1-4.8,5.8-2.5,2.3-5.3,4.5-8.2,6.4-2.2,1.4-4.7.6-5.3-2.4-.9-4.3-.7-8.3.6-12.6-1.5,1.4-3.1,2.9-4.6,4.3-5.2,5-11,8.9-18.1,10.5-4.1.9-7.5-1.5-7.9-6.6-.7-9.3,2.7-17,9.6-23,4.4-3.9,9.6-6.3,15.4-7.6,5.5-1.2,10.7-1.1,16,.8.8.3,1.5.1,1.9-.8.5-1.1,1.1-2.2,1.8-3.6ZM371.3,549.5c-.6-.3-.9-.4-1.1-.5-4.8-1-9.7-1.1-14.5,0-5.6,1.4-10.5,4.2-14.1,8.6-4.3,5.4-5.8,11.8-5.5,18.6.1,2,.9,3.5,3.2,2.8,2.8-.8,5.7-1.8,8-3.5,4.9-3.6,9.4-7.6,14-11.6,1.5-1.3,2.9-2.9,4.2-4.5.9-1.1,1.5-2.5,2.2-3.8,1.2-2,2.3-4,3.6-6.2Z"/>
    <path class="cls-1" d="M579.1,360.9c-1.2-.2-2.4-.3-3.4-.7-8.3-2.9-16.6-5.8-24.8-8.7-.9-.3-1.8-.5-2.9-.8,1.2,3.3,2.4,6.5,3.7,9.7,1.1,2.8,2.2,5.6,3.3,8.4.1.3.3.7.3,1-.1.6-.4,1.2-.7,1.8-.5-.3-1.3-.6-1.5-1.1-1.3-3.1-2.6-6.3-3.8-9.4-1.3-3.5-2.4-7.1-3.9-10.5-.4-.9-1.9-1.5-3-1.8-5.2-1.3-10.4-2.6-15.6-3.5-3.1-.5-6.3-.4-9.4-.2-2.7.2-3.7,2.4-2.3,4.8,1.9,3.1,4.1,6.1,6.4,9,.9,1.1,1.1,1.9,0,3-.4-.2-.9-.2-1.2-.6-3.1-3.7-6.5-7.2-7.8-12-1-3.5.7-6.1,4.3-6.8,4.2-.8,8.3-.3,12.4.6,4.5,1,8.9,2,13.4,3.1.5.1,1,.4,1.8.7-.8-2.7-1.6-5.3-2.2-7.9-1.4-5.8-3-11.5-3.7-17.3-.3-2.7-2-3.4-3.5-4.5-8-5.9-16.1-11.7-24.1-17.6-1.4-1-2.8-2-4.5-2.7.9,2.4,1.7,4.8,2.6,7.2,2,5.7,4.1,11.4,6,17.2.2.5-.5,1.2-.7,1.8-.5-.3-1.4-.5-1.5-1-3.3-9.3-6.6-18.6-9.8-28-.2-.7.1-1.5.2-2.3.7.2,1.5.2,2,.6,6.9,5,13.7,10,20.6,15.1,3.2,2.3,6.4,4.7,9.7,6.9,1.4,1,3.1,1.7,4.5,2.8,2.8,2.1,5.4,4.5,8.3,6.5,6.7,4.8,13.4,9.5,20.1,14.3,2.5,1.8,5,3.7,7.5,5.7.4.3.7.8.8,1.3,1,4.8,1.9,9.7,2.8,14.5,0,.2,0,.5,0,1.3ZM540.5,321.6c.2,1.2.4,2,.5,2.7,1.5,7.5,3.2,15,5.7,22.3.2.7,1.1,1.4,1.8,1.6,5.1,1.8,10.3,3.4,15.5,5.2,4.1,1.4,8.1,2.9,12.4,4.4-.8-3.9-1.6-7.5-2.4-11.1-.1-.5-.4-1-.8-1.3-4.1-3-8.1-5.9-12.2-8.9-6.7-4.8-13.3-9.6-20.5-14.8Z"/>
    <g>
      <path class="cls-1" d="M372,75.9c3.5,3.7,7.9,6.6,13.2,7.8,4.7,1.1,9.4,1.8,14.2,1.4,7.7-.6,15.4-1.1,23-2.2,7-1.1,13.8-2.8,20.7-4.5,7.7-1.9,15.4-4,23-6.2,6.2-1.8,12.4-3.8,18.5-5.8,3.6-1.2,7.1-2.4,10.8-3.4-2.5,1.3-4.9,2.6-7.4,3.8-11.9,5.7-24.1,10.5-36.8,14-7.1,2-14.3,3.5-21.5,5.1-8.3,1.9-16.8,3-25.4,3.3-5.8.2-11.5.6-17.3.4-6.4-.2-11.9-3-16.5-7.5-2.6-2.5-2.4-2.5-5.3-.4-5.8,4.4-11.9,8.2-18.6,11.1-3.9,1.7-7.7,3.6-11.6,5.1-2.8,1.1-5.7,1.8-8.5,2.7-1.5.5-3,1-4.6,1.6,1.2,1.5,2.6,2.7,3.2,4.2.8,2.3,1.3,4.8,1.4,7.2.2,5.3-.2,10.7,0,16,0,2.6.6,5.2,1.2,7.7.6,2.6,2.3,3.4,4.9,3.7,6.1.6,11-2.3,15.5-5.6,6.3-4.6,12.4-9.7,18.6-14.5.4-.3.9-.7,1.3-.8,4.3-1.7,6.1-5.9,8.9-9,4.2-4.7,8.8-8.8,14.6-11.1,5.7-2.3,9.8.4,10.3,6.8.7,9.1-2.6,17.2-7.4,24.6-2.5,3.7-6.1,6.6-10,8.9-3.1,1.8-6.4,3.3-9.8,4.6-2.3.9-5,1-7-1-.9-.9-1.6-2.1-1.9-3.3-1.1-4.5-.2-8.9,1.3-13.2.1-.3.2-.6.3-.9,0,0,0-.1-.2-.4-3,2.3-5.9,4.5-8.8,6.8-4.7,3.6-9.4,7.3-14.3,10.8-2.8,2-6.1,3.3-9.4,3.2-2.9,0-6.1,0-8.8-2-1.9-1.4-3.1-3.2-3.7-5.5-1.1-3.9-.8-7.9-.7-11.9,0-3.3.5-6.7.3-10-.2-3.7-.3-7.4-2.2-10.7-.6-1.1-1.5-1.9-2.4-3-2.2,4.2-4.2,8.1-6.3,11.9-3.4,6.1-7.1,12.1-11.9,17.1-7.4,7.7-15.9,13.9-26.2,17.1-4.4,1.4-8.8,2.7-13.3,3.8,10.6-4.6,20.1-10.6,28-19.1,7.9-8.4,13.7-18.1,19-28-3.5.5-7.1,1.2-10.7,1.4-3.5.2-7.1-.2-10.2-2.3-3.1-2-3.1-5-.2-7.2,3.3-2.4,7.2-3.1,11-4.1,5.4-1.3,10.8-1.5,15.8.5,3.5-6.1,6.8-12.1,10.4-17.9,5.6-8.9,13.2-15.6,23-19.5,5.6-2.2,10.2-2,14.8,3.6,2.3,2.8,4.4,5.7,6.8,8.6,0,0,.5-.2.6-.4,1.5-4.2,2.2-8.6,1-13-1.2-4.5-5.3-6.8-9.4-7.1-6.5-.5-12.7,1.3-18.8,3.5-7.2,2.6-13.9,6.2-20.2,10.4-7,4.6-13.9,9.4-19.8,15.5-2.3,2.4-4.8,4.5-7.4,6.8,1-2,2-4,3.1-5.9,4.6-7.7,11-13.8,18.3-19,5.7-4.1,11.8-7.6,18.2-10.3,7.4-3.2,14.9-6,22.9-7.4,3.6-.6,7.3-1.3,10.9-1.2,8.7.3,15.3,6.4,14.9,15.3-.3,5.4-2.6,10.3-6,14.5-1.2,1.5-2.5,2.9-3.7,4.3ZM364.8,74.9c-2.9-3.3-5.6-6.7-8.6-9.9-1.5-1.6-3.6-2.3-5.9-1.5-6.9,2.2-12.5,6.5-17,12.1-3.2,4-5.8,8.5-8.5,13-2,3.5-3.7,7.1-5.6,10.9,22.3-5.7,37.8-14.5,45.5-24.5ZM395,114.3c-1.2.3-2.4.6-3.6.9-5.5,1.4-10.8,3.6-15.9,6.1-.8.4-1.7,1.1-2.2,1.9-2,3.6-2.8,7.5-2.7,11.7.1,4.2,2.4,6.2,6.4,5.1,4.4-1.2,8.2-3.9,11.6-6.8,3.9-3.4,6.4-7.9,8.1-12.7,1.3-3.6,2.4-7.3,1.8-11.2-.4-2.9-2-4.2-4.9-3.9-3.8.4-6.6,2.7-9.5,4.8-1.7,1.2-3.1,2.9-4.7,4.3l.2.4c5-1.6,10.1-2,15.3-.8ZM310.6,99c-1.6-.3-3-.7-4.4-.8-5.7-.5-11.2.8-16.5,2.7-.3.1-.6.5-.9.8.3.3.5.8.9.9,1.2.3,2.5.7,3.7.6,4.6-.3,9.1-.8,13.7-1.1,1.8-.1,3-.9,3.6-3Z"/>
      <path class="cls-1" d="M218.2,106.9c.7-1.3,1.5-2.8,2.5-4.6,3.4.9,7,1.8,10.5,2.7-2,2.3-4.2,4.5-6,7-3.3,4.5-6.7,8.9-9.5,13.7-2,3.4-3.2,7.3-4.7,10.9-.2.4-.1.8-.1,1.2,0,2,1.1,2.8,2.8,1.7,3.3-2.2,6.4-4.6,9.6-6.9.2-.2.4-.4.9-.8,0,.4,0,.7-.1.8-3.2,4.6-7,8.5-11.8,11.4-.2.1-.4.3-.6.3-3.1,1.3-5.3,1.1-6.2-3.1-.8-3.8-.6-7.4.7-11,.1-.3.1-.7.2-1.3-2.5,2.3-4.7,4.5-7.1,6.5-4.5,3.9-9.5,7-15.3,8.6-4.8,1.3-8.6-1.1-9-6.1-.2-2,0-4,0-6.3-2.1,1.1-4.1,2.1-6,3.2-6.7,3.8-13.4,7.7-20.1,11.4-1.8,1-3.9,1.9-6,2.1-1.6.2-3.4-.6-5-1.4-1.2-.6-2.3-1.8-3.1-2.9-.7-1-1.2-.9-2-.3-2.7,2.2-5.9,3.8-9.3,4.5-4.9,1-12.9-.3-15.7-5.1-2.9-5-.6-12.7,5.6-14.5,6.4-1.9,11.6.2,16.5,4.1,1.3,1,2.7,2,4,3,1.9-2.5,4.7-5.5,6.8-8.9,3.9-6.5,7.4-13.2,10.8-20,2.6-5.1,4.8-10.3,7.2-15.5.2-.5.5-.9,1.1-1.8-2,.4-3.5.7-5.1,1-7.4,1.8-14.9,3-22.5,3.2-4.3.1-8.6.2-12.9,0-6.9-.4-11.2-4.5-13.9-10.7-3-7-3-14.2-.2-21.1,4.6-11,12.5-18.9,24.1-22.5,4.1-1.3,8.3-1.9,12.6-2.4,3.2-.3,6.2.8,8.4,3.2,3.4,3.8,2.7,9.5-.4,13.2-3.2,3.9-7.3,6.6-12.3,8-2.4.6-4.7,1.4-7.1,2.1-.5.1-1,0-2,0,2.4-1.1,4.3-2,6.3-2.9,5.1-2.4,9.1-6.1,11.6-11.1.6-1.1.9-2.5,1.1-3.8.3-1.8-.9-3-3-3.1-5-.3-9.7.9-14.3,3.1-5.2,2.5-9.5,6.2-13.6,10.1-3.4,3.2-5.5,7.4-6.5,12.1-.9,4-.8,8,0,12,.4,1.8,1.5,3.1,3.1,4.1,4.4,2.7,9.2,3.7,14.2,4,8.3.5,16.6-.1,24.7-1.6,3.1-.6,6.2-1.6,9.2-2.6.7-.2,1.3-.9,1.7-1.5,3.7-7.6,7.8-14.8,12.6-21.8,4.4-6.3,9.8-11.3,16-15.8,5.3-3.8,11-6.6,17.6-6.9,7.6-.3,12.5,2.9,14.8,10.5.8,2.7-.5,5.1-2.2,7.2-6,7.8-14,13-22.4,17.7-4.9,2.7-9.9,5.4-15,7.6-5.5,2.4-11.2,4.1-16.8,6.2-.7.3-1.5.9-1.8,1.5-3.8,7.8-7.4,15.8-11.4,23.6-3.3,6.4-6.9,12.7-10.6,18.9-1.9,3.2-4.5,6-6.9,9-.6.7-.6,1,0,1.7,2.7,2.8,5.8,2.7,9.2,1.6,6.8-2.1,12.9-5.6,19.1-8.8,2.8-1.4,5.6-2.8,8.3-4.4.9-.5,1.8-1.5,2-2.4,2.2-8.2,7.4-13.8,14.4-18,6.1-3.6,12.7-5.2,19.7-4.7,2.7.2,5.4,1.1,8.5,1.7ZM169.2,81c.1.1.3.3.4.4.3-.1.6-.2.9-.3,4.4-1.9,8.7-3.8,13-5.9,4.8-2.3,9.6-4.6,14.4-7.1,3.4-1.8,6.7-3.9,9.9-5.9,3.7-2.4,7.1-5.1,9.6-8.8,1.3-2,1.5-4.3.3-5.7-2.3-2.8-8.7-4.6-12.2-3.3-3.9,1.4-7.5,3.4-10.9,6-5.1,3.8-9.5,8.2-13.3,13.1-4.4,5.6-8.2,11.7-12.3,17.7ZM216.8,109.3c-15-4.7-31.4,3.7-34.5,16.8,5.6-2.6,11.1-5.5,17.2-6.8-.3.3-.6.5-.9.7-5.4,2.5-10.8,4.9-16.2,7.5-.4.2-.9.9-1,1.4-.2,2.8-.4,5.7-.4,8.5,0,1.4.9,2.3,2.5,2.3,1.1,0,2.2,0,3.1-.5,3-1.6,6.1-3.2,8.8-5.2,3.5-2.6,6.5-5.8,10-8.4,5.5-4.3,8-10.5,11.4-16.2ZM131.1,139.1c-1.8-1.7-3.5-3.5-5.4-4.8-3.9-2.5-8.2-1.9-12.4-.7-3,.9-4.2,3.5-3.2,6.4,1.5,4.2,6.5,6.3,10.7,5.4,4-.8,7.1-3.2,10.3-6.3Z"/>
      <path class="cls-1" d="M477,176.8c2.5-2.9,4.8-5.4,7-8,4.7-5.9,8.6-12.4,9.9-20,.6-3.2.5-6.4-2.2-8.9-2.1-2-4.9-2.6-7.4-2.3-4.2.5-8.5,1.3-12.5,2.7-4.8,1.6-9.4,3.7-14,5.8-4.3,1.9-8.7,3.6-13.5,3.3-5.8-.5-9.9-5.2-9.9-11,.2-12.5,6.5-21.8,15.6-29.6,3.4-3,7.4-5,11.8-6.1,5.3-1.3,10.1.5,8.9,8.1-.3,1.8-.7,3.6-1.1,5.1,1.4.7,2.8,1.2,3.7,2.1,2.9,2.6,2.3,5.8.3,8.9-.8,1.2-1.9,2.2-2.9,3.2-.1,0-.3-.2-.4-.3.5-1.1,1-2.1,1.4-3.2.6-2,1.1-4-.6-5.9-1.6-1.7-3.3-2-4.9-.4-4.7,4.4-10.4,6-16.6,6.8-1.3.2-2.5.3-3.9,0,.7-.2,1.3-.6,2-.7,5.9-1.4,10.9-4.4,15-8.8,1.1-1.2,1.9-2.9,2.4-4.5.7-2.5-1.1-4.5-3.7-4-8,1.5-13.7,6.1-17.2,13.3-1.6,3.4-2.6,7-2.7,10.8,0,1.6.2,3.4.8,4.9,1.9,4.7,5,6.1,10.1,4.7,3.3-.9,6.3-2.7,9.3-4.3,5.3-2.8,10.8-5.2,16.7-6.3,5-.9,9.8-.7,14.3,2,3.9,2.3,5.4,6.1,5.5,10.4.2,6.9-2.8,12.8-6.7,18.2-3.5,4.9-8.5,9.7-14.7,13.9Z"/>
      <path class="cls-1" d="M407.2,133.6c1,1.5,1.9,3.5,3.3,4.8,3.3,3.2,6.8,2.5,10.4.6,3-1.6,5.4-4.1,7-7.2,1.9-3.6.5-6-3.6-6-1.1,0-2.2.4-3.3.5-1.9.1-3.9.4-5.8,0-3-.7-5-4.2-4.6-7.4.6-4.9,2-9.5,5.6-13.1,2.5-2.5,5.5-4,8.9-4.6,4.1-.6,7.9.4,11.6,2.4.8.4,2.1.4,2.9,0,4.2-1.7,8.2-3.6,12.4-5.5.5-.2,1-.3,1.5-.3-8.2,4.5-15.3,10.6-22.4,16.7.3-.5.6-1.1,1-1.6,1.2-1.5,1.6-3.3.8-5-.8-1.6-2.5-2.1-4.2-2.2-2.9,0-5.6.5-8.2,2.2-2.4,1.6-3.9,3.9-4.1,6.5,0,1.9,1.1,4,1.9,5.9,0,.2,1,.2,1.5.3,2.8.1,5.7-.4,8.4,1,3.3,1.7,4.9,4.5,4.4,8.1-.4,3-1.7,5.6-3.6,7.9-1.5,1.9-3,3.8-4.8,5.4-3.9,3.5-8.4,3.7-13.1,1.8-1.5-.6-2.8-1.7-4.3-2.4-.6-.3-1.5-.3-2.1,0-3.8,1.7-7.5,3.6-11.3,5.4-6.4,3-12.9,5.9-19.3,8.8l-.2-.5c4-2.1,8-3.9,11.8-6.2,3.9-2.3,7.7-4.8,11.3-7.5,3.6-2.8,6.8-6,10.1-8.9Z"/>
    </g>
    <path class="cls-1" d="M176.8,585.6c11.1-5.8,21.8-12.2,30-21.8.9,1.5,1.5,3,2.5,4.2,2.6,3.1,5.9,3.7,9.6,2.1,4.5-1.8,8-4.7,9.3-9.7.5-2-.3-3.5-2.3-3.9-1.6-.3-3.2,0-4.9.1-1.8.1-3.7.6-5.5.4-2.7-.3-5-3.3-5.1-6-.1-7.2,2.3-13.1,8.5-17.1,3.7-2.4,7.8-2.9,12-1.7,2,.6,4,1.5,6,2.1.5.2,1.3,0,1.9-.2,4.2-1.8,8.4-3.8,12.7-5.6.5-.2,1.1-.4,1.7-.4-8,4.7-15.2,10.3-22.1,16.7.3-.6.6-1.2,1-1.8,1.8-3.4.5-5.8-3.2-6.3-3.9-.6-7.3.8-10.3,3.1-2.7,2.1-3.4,7.3-1.6,10.4.3.5.6,1,.8,1.5,3.6-.3,7.2-.7,10.6,1.1,3,1.6,4.3,4.1,3.8,7.5-.4,3.2-1.8,5.9-3.7,8.4-1.8,2.5-3.7,4.9-6.6,6.4-3.8,2-7.6,1.8-11.4.4-1.5-.6-2.9-1.7-4.4-2.5-.4-.2-1.1-.2-1.6,0-5,2.3-9.9,4.7-14.9,7-4.2,1.9-8.3,3.8-12.5,5.6-.2,0-.4.1-.6.2Z"/>
    <path class="cls-1" d="M538.7,399.2c0-.9-.2-1.6,0-2.1.2-.5.7-1.1,1.2-1.3.3,0,1,.5,1.2,1,.3.7.5,1.6.3,2.2-.4,1.9,1,2.4,2.1,3,3.7,2.2,7.4,4.4,11.4,6.7-1-1.5-2-2.8-2.9-4.1-.9-1.3-1.9-2.5-2.7-3.9-.3-.5,0-1.3,0-1.9.7.1,1.6,0,1.9.5,3.4,4.6,6.7,9.2,10,13.8.4.5.2,1.4.2,2.1-.7,0-1.6.1-2.2-.2-3.9-2.6-7.8-5.4-11.7-8-1.8-1.2-3.8-2.2-5.8-3.4.4,4.1.9,8.1,1.2,12,0,.5-.7,1-1,1.5-.6-.5-1.5-.9-1.6-1.4-.4-3.7-.8-7.5-.9-11.2,0-1.6-.6-2.6-1.9-3.2-5.4-2.6-10.8-5.3-16.9-6.1-1.2-.2-2.4-.2-3.6-.1-2,0-3.1,1.4-2.2,3.1,1.2,2.6,2.9,5,4.6,7.3.9,1.2,2.2,2.1,3.3,3.2.5.5,1.3,1.2.3,1.8-.4.3-1.4.2-1.8,0-3.4-2.5-6.1-5.8-8.1-9.6-3.1-6,.9-8.8,6.2-8.3,6.2.6,11.8,2.9,17.3,5.7.6.3,1.3.6,2,.9Z"/>
    <path class="cls-1" d="M520.2,482.5c-2.5-3.5-4.6-6.8-5-10.8-.4-4.2,2.5-6.7,6.8-6.1,4.7.7,8.2,3.5,11.6,6.4,2.4,2,4.7,4.3,6.5,6.8,3,4.2,3.5,8.8,1.3,13.6-1.5,3.1-4.9,3.7-7.5,1.4-4.1-3.5-8.3-6.8-13.5-8.6-.9-.3-1.8-.4-2.8-.6-1.5-.3-1.8.5-1.2,1.6,1.1,2.2,2.4,4.3,3.7,6.5.3.5.9.9,1,1.5,0,.5-.1,1.3-.5,1.5-.3.2-1.3,0-1.5-.2-2-2.7-4.1-5.4-5-8.7-.9-3.3,1-5.1,4.6-4.7.5,0,1,.2,1.7.3ZM537.1,493c-.2,0,0,0,.1,0,3.4-2.3,3.8-6.9,1.8-11-2.4-4.9-6.8-8.1-11.2-11.2-2.1-1.5-4.3-2.7-7-2.8-2.1,0-3.1.9-3.1,3,0,1.1.2,2.3.6,3.3,1.6,4.2,4,7.9,7.6,10.6,3.6,2.7,7.3,5.3,11.2,8.1Z"/>
    <path class="cls-1" d="M525.5,255.7c-2.2-.5-4.9-1.1-7.6-1.6-1.1-.2-2.3,0-3.3.4-1.5.5-1.4,2-1.1,3.2,1.3,5.4,4.6,9.6,8.3,13.5.8.9,1.8,1.6,2.6,2.5.3.4.1,1.1.2,1.7-.6,0-1.5.3-1.8,0-5-4.4-9.2-9.5-11.3-15.9-.4-1.3-.6-2.7-.6-4,.1-3.3,4.5-4.6,7.1-4.2,5.7.8,10.8,3.2,15.5,6.3,3,2,5.4,4.4,7.2,7.5,1.8,3.2,1.3,6.5-1.4,9.2-2.6,2.5-5.9,2.9-9,1-3.6-2.1-4.7-5.5-5-9.2-.3-3.3,0-6.7.2-10.6ZM528.3,257c-1.1,4.9-.9,9.2.5,13.4,1.3,3.8,6.7,4.9,9.3,1.9,2-2.4,1.4-6.7-1.5-9-2.6-2.1-5.3-4.1-8.3-6.3Z"/>
    <path class="cls-1" d="M541.9,451.3c-.3,2.1-.6,4.1-1,6.1-.1.5-.9.8-1.4,1.2-.3-.6-.9-1.3-.9-1.9,0-1,.3-2.1.6-3.1.6-3.1,0-5.9-1.2-8.7-.6-1.5-2.9-3-4.1-2.7-1.8.4-2.5,1.9-2.8,3.5-.2,1.1-.2,2.3,0,3.4.3,1.7.7,3.4,1.1,5.1.6,2.5,0,4.9-1.9,6.1-.7.4-1.6.8-2.3.7-5.5-1.3-10.6-3.7-13.7-8.7-3.1-5-1.8-10,1.1-14.8.6-.9,1.2-1.8,1.9-2.6.4-.4,1.1-.5,1.7-.7,0,.7.5,1.5.2,2-.8,1.7-2,3.3-2.8,5-2.8,5.8-.8,10.8,4.4,14.1,1.6,1,3.4,1.8,5.3,2.5,1,.4,2.4.7,3.1.2,1.2-.9.9-2.4.5-3.8-.5-2.1-.8-4.2-1-6.3-.1-1.1,0-2.3.3-3.4.5-2.5,2.4-4.5,4.7-4.7,2.5-.3,4.5.9,5.8,3,1.8,2.7,2.5,5.5,2.6,8.7Z"/>
    <path class="cls-1" d="M539,375.8c-.7-1.4-1.2-2.5-1.8-3.7-1.4-2.9-3-5.8-1.6-9.1.2-.5,1.1-.8,1.6-1.2.2.6.8,1.4.7,1.9-.9,2.1,0,4,.7,5.9,1,2.2,2.3,4.3,3.3,6.5.4.9.4,2.1.2,3.1-.4,2.1-1.1,4-1.5,6.1-.3,1.3-1,1.8-2.2,1.8-2.4,0-4.8-.2-7.1-.5-.6,0-1.1-1-1.6-1.5.7-.4,1.4-1,2-1,2.1,0,4.3.3,6.4.5.5-1.5.9-2.9,1.3-4.3,0-.3-.2-.9-.4-1.1-3-2.1-6.1-4.1-9.1-6.2-4.4-3-8.8-6-13.1-9.1-.6-.4-1.6-1-.7-2,.8-.9,1.5-.5,2.3,0,3.6,2.5,7.1,5,10.7,7.5,3,2.1,6,4.3,9.1,6.4.1,0,.3,0,.9.1Z"/>
    <path class="cls-1" d="M536.7,237.5c-1.2-2.9-2.6-5.8-3.6-8.7-.6-1.7-.5-3.5.5-5.1.2-.4,1.3-.7,1.5-.6.4.3.9,1.3.7,1.6-1.1,1.8-.4,3.5.3,5.1.9,2.3,1.9,4.6,3.2,6.8,1.2,2,.4,3.9,0,5.8-.3,1.9-1,3.8-1.6,6-2.3-.2-4.7-.4-7.1-.6-.5,0-.9-.2-1.4-.2-.9,0-1.8,0-1.7-1.3,0-1.2.9-1.2,1.8-1.2,1.5.1,3,.3,4.5.4.8,0,1.5.1,2.3.1.4-1.5.8-3,1.3-4.8-2.4-1.6-4.9-3.4-7.4-5.1-4.3-3-8.6-6-12.9-9-.8-.6-1.6-1.2-2.5-1.7-.9-.5-1.4-1.1-.7-2.1.8-1.1,1.5-.4,2.3,0,6.7,4.7,13.5,9.5,20.2,14.2,0,0,.2,0,.3.1Z"/>
    <path class="cls-1" d="M533.2,432.1c-.4-3.2-1-6.4-1.3-9.6-.1-2.2.2-4.5.5-6.7,0-.4.9-.7,1.3-1,.4.6,1.1,1.1,1.1,1.7,0,2.4-.4,4.9-.3,7.3.1,5.1,1.5,9.8,5.4,13.4.6.6,1.5,1.3.6,2.2-.8.8-1.6.3-2.5-.3-5.4-3.9-10.8-7.9-16.3-11.7-1.2-.9-2.7-1.5-4.1-2-.8-.3-2.1-.5-2.4-.2-.5.6-.6,1.8-.4,2.7.2,1.2.9,2.3,1.2,3.5.1.6-.3,1.3-.5,2-.6-.3-1.6-.5-1.7-.9-.7-2.3-1.4-4.7-1.6-7.1-.1-1.9,1.5-2.9,3.5-2.9,2.8,0,5.1,1.4,7.4,2.7,3.3,2,6.4,4.4,9.6,6.6.2.2.5.3.5.3Z"/>
    <path class="cls-1" d="M545,192.4c.5-.6,1-1.2,1.6-1.9,5.5,5.2,10.9,10.3,16.4,15.5-.5.6-1,1.1-1.6,1.9-5.5-5.2-11-10.3-16.5-15.5Z"/>
    <path class="cls-1" d="M561.8,444.7c-.9,1.1-1.1,1.6-1.5,1.8-.4.1-1,0-1.3-.2-1.7-1.6-3.4-3.2-5.1-4.8-2.3-2.3-4.6-4.6-6.9-6.9-.7-.7-1.5-1.3-.6-2.2.9-.9,1.8-.1,2.4.5,3.3,3.2,6.4,6.5,9.7,9.7.9.9,2,1.4,3.2,2.1Z"/>
    <g>
      <path class="cls-1" d="M50.7,206.8c5.7,4.9,11.4,10,17.2,14.8,9.3,7.6,18.7,14.9,28.1,22.4,1.8,1.4,3.7,2.7,5.5,4.2.4.3.4,1,.6,1.6-.6.1-1.3.6-1.7.4-3.2-1.6-6.4-3.4-9.5-5.1-3.2-1.7-6.3-3.5-9.5-5.2-5.1-2.6-10.1-5.3-15.3-7.8-6.5-3.2-13.1-6.4-20.3-8-1.2-.3-2.4-.3-3.6-.2-2.1.2-2.7.8-2.2,2.9.4,1.8,1.1,3.6,2,5.3,1.1,2.2,2.6,4.3,3.8,6.5.3.5,0,1.3,0,1.9-.7-.2-1.7-.3-1.9-.7-2-3.6-4-7.3-5.7-11.1-.5-1.1-.5-2.6-.4-3.8.2-2,1.9-3.2,4.2-3.4,3.2-.2,6.1.7,9.1,1.7,10.8,3.6,20.7,9.1,30.8,14.3,1.7.9,3.4,1.9,5.3,2.5-.5-.5-1-.9-1.6-1.4-6.6-5.4-13.2-10.6-19.7-16.1-7.7-6.5-15.2-13.1-22.7-19.7-.8-.7-2.5-1.4-1.6-2.8,1-1.4,2.1,0,3,.6,4.6,2.3,9,5,13.7,7,5.6,2.4,11.3,4.5,17.2,6.2,5.8,1.7,11.8,2.8,17.7,4.1.2,0,.4,0,.9,0-2.7-1.7-5.2-3.1-7.6-4.8-6.3-4.5-12.7-8.9-18.8-13.6-3.7-2.8-7.2-5.9-10.5-9.2-5.3-5.4-10.7-10.9-14.3-17.7-1-1.8-1.8-3.7-2.5-5.7-.9-2.5,0-5.1,1.9-5.5,1.1-.2,2.7,0,3.7.5,3,2,5.9,4.3,8.7,6.6.4.3.2,1.2.3,1.9-.7-.1-1.6,0-2.2-.5-2.2-1.7-4.1-3.7-6.4-5.2-1-.7-2.5-.7-3.8-1,.1,1.3-.2,2.7.4,3.7,1.9,3.6,3.7,7.2,6.2,10.4,4.9,6.4,10.6,12,16.7,17.2,8.2,6.9,16.7,13.3,26,18.7,2.7,1.6,5.4,3.3,8,5,.5.3.6,1.1.9,1.6-.5.2-1.1.7-1.6.7-6-1-12-1.9-18-3.2-4.1-.9-8-2.4-12-3.8-4.1-1.4-8.1-2.9-12.1-4.5-2.1-.8-4-2-6-3,0,.1-.1.3-.2.4Z"/>
      <path class="cls-1" d="M94.6,534.7c3.1,2.3,5.9,5.1,7.5,8.8,1.5,3.6,2.2,7.3.5,11-1.2,2.7-3.5,4-6.4,4.2-3.3.2-6.1-.8-7.8-3.9-2.3-4.2-1.8-8.6-.3-13,.8-2.3,2-4.4,3.1-6.8-9.6-6.2-20.5-9.5-30.8-13.6,0,4.3.3,8.7,0,13-.2,3.9-1.4,7.6-3.6,10.9-1,1.5-2.3,2.6-4.2,2.7-.6,0-1.1-.6-1.7-.9.3-.4.5-1.2.9-1.3,3.4-.6,4.2-3.3,4.9-5.9,1.7-5.6,1.9-11.2,1.1-17-.3-2.1-.9-3.1-2.8-3.9-4.2-1.8-8.2-4-11.5-7.2-2.4-2.3-4.1-5.2-4.1-8.6,0-4.6,3.9-6.3,7.8-4.7,3.8,1.6,6.5,4.5,8.2,8.2,1.5,3.4,2.7,7,3.8,10.6.5,1.7,2,1.9,3.2,2.4,3.1,1.3,6.3,2.3,9.5,3.5,2.6,1,5.1,2.1,7.6,3.3,4,1.9,7.9,3.9,11.8,6,1,.6,1.5.7,2.2-.5,1.6-3.1,3.5-6.1,5-9.3,3.1-6.8,1.6-11.8-3.6-16.8-2.4-2.3-5.1-4.4-7.5-6.7-.5-.5-1.1-1.6-.8-1.9.8-1.1,1.7-.5,2.5.3,2.6,2.3,5.3,4.5,7.7,6.9,6.2,6.2,7.2,12.2,3.5,20.2-1.6,3.4-3.7,6.6-5.7,10ZM93.1,536.4c-1.2,2.9-2.4,5.5-3.3,8.3-.8,2.4-1,4.9,0,7.4,1.3,3.5,3.5,4.8,7,4.3,3.2-.4,4.7-3.4,4.5-6.6-.4-5.6-3.3-9.8-8.1-13.4ZM56.6,517.4c.2-.1.4-.3.6-.4-1.2-3-2.2-6.2-3.6-9.1-1.6-3.2-3.9-5.9-7.3-7.4-2.1-1-4.3.1-4.4,2.4-.2,3.8,2,6.4,4.7,8.4,3.1,2.3,6.6,4.1,9.9,6.1Z"/>
      <path class="cls-1" d="M46.8,151.9c.9,2.3,1.7,4.5,2.4,6.8.1.4-.4,1.1-.6,1.7-.5-.3-1.4-.6-1.5-1-2.2-7.9-6.9-14.2-13.1-19.4-.5-.4-.8-1.8-.6-2,.7-.6,1.4-.2,2.2.5,3.5,2.7,6.3,5.9,8.8,9.6.2.3.7.4,1.1.6,6.9,3.1,13.8,6.2,20.8,9.3,4.9,2.1,9.8,4.2,14.8,6.2,4,1.6,8,3,12.1,4.3,1.2.4,2.5.4,4.4.6-.8-1.6-1.1-2.9-1.9-3.8-3.1-3.6-6.3-7.1-9.5-10.6-.3-.3-.7-.5-.9-.9-.2-.6-.2-1.2-.3-1.8.6,0,1.5-.1,1.9.2,1.8,1.6,3.5,3.3,5,5.1,2.3,2.7,4.4,5.4,6.5,8.2.4.5.6,1.3.8,2,.6,2.1-.5,3.8-2.7,3.6-2.5-.2-5.2-.5-7.5-1.4-10-4-19.9-8.3-29.8-12.5-4-1.7-7.9-3.5-11.8-5.2-.1,0-.3,0-.6,0Z"/>
      <path class="cls-1" d="M75,430.1c0,3.3,0,6.4,0,9.4,0,.6-.5,1.2-.8,1.8-.5-.6-1.4-1.1-1.5-1.7-.2-2.9-.2-5.7,0-8.6,0-1.2-.2-1.9-1.5-2.3-6.7-1.9-13.3-3.9-20-5.9-.6-.2-1.5-1.1-1.4-1.5.2-1,1.1-.8,2-.5,4.5,1.4,9.1,2.6,13.7,3.9,2.4.7,4.7,1.4,7.3,2.1,0-1.3,0-2.7,0-4.2,0-1.4-.2-2.9,0-4.3.1-.7.9-1.2,1.4-1.8.3.6.8,1.2.8,1.9,0,3.1,0,6.2,0,9.1,7.8,3.2,15.5,6.4,23.1,9.5-2.6-3.7-5.3-7.4-7.8-11.1-.3-.4,0-1.2,0-1.7.6.2,1.5.2,1.8.6,1.7,2.2,3.2,4.5,4.9,6.8,1.9,2.7,3.9,5.3,5.8,8.1.3.4.1,1.2.2,1.7-.5,0-1.1.3-1.5,0-5-2.2-9.9-4.6-14.8-6.8-3.7-1.6-7.5-2.9-11.6-4.5Z"/>
      <path class="cls-1" d="M98.2,283.2c-2.6-3.7-5.1-7.2-7.5-10.6-.1-.2-.4-.4-.4-.6,0-.6,0-1.3,0-2,.6.2,1.5.2,1.8.6,2.1,2.8,4.2,5.7,6.3,8.6,1.7,2.4,3.4,4.8,5,7.2-.8,1.1-1.5,1.1-2.6.6-5.8-2.7-11.5-5.4-17.4-8-2.6-1.2-5.4-2-8.4-3.1,0,.8,0,1.4,0,1.9,0,2.5.1,5.1,0,7.6,0,.6-.8,1.1-1.2,1.6-.4-.5-1-1.1-1-1.6-.1-2.8-.1-5.6,0-8.5,0-1.3-.3-2.1-1.7-2.5-4.8-1.4-9.6-2.9-14.4-4.4-1.8-.5-3.6-.9-5.3-1.5-.7-.3-1.7-1.1-1.7-1.6.2-1.3,1.5-1,2.3-.7,6.7,2,13.4,4.1,20.1,6.1.1,0,.2,0,.5,0,0-2.7,0-5.4,0-8.2,0-.9-.2-2,1.1-2,1.4,0,1.2,1.1,1.2,2,0,2.6,0,5.1,0,7.7,0,1,.2,1.4,1.3,1.9,7,2.9,14,5.9,21,8.9.2.1.5.1,1,.2Z"/>
      <path class="cls-1" d="M74.9,143.1c0,2.9,0,5.9,0,8.9,0,.9,0,1.9-1.2,1.7-.4,0-1.1-1-1.1-1.6-.1-2.9,0-5.9,0-8.8,0-1-.3-1.5-1.4-1.8-6.7-2-13.3-4.1-19.9-6.1-.3,0-.6,0-.8-.3-.4-.4-.7-.8-1-1.3.5-.2,1.1-.7,1.6-.6,1.3.2,2.6.5,3.8.9,4,1.3,8,2.7,12,3.9,1.8.5,3.6.9,5.6,1.3,0-2.7,0-5.5,0-8.3,0-.6.7-1.2,1-1.8.4.5,1.2,1,1.2,1.6.1,2.7.1,5.4,0,8.1,0,1,.3,1.5,1.4,1.9,4.8,1.8,9.5,3.6,14.2,5.5,2.4,1,4.6,2.2,7.2,3.1-1-1.5-1.9-2.9-2.9-4.4-1.4-2-2.8-3.9-4.1-5.8-.3-.5-.6-1.1-.7-1.6,0-.4.2-1,.6-1.1.3-.1,1,0,1.2.4,1.8,2.5,3.4,5,5.2,7.5,1.6,2.3,3.3,4.4,5,6.6.3.4.7.8.9,1.3.2.4.3,1.2,0,1.4-.4.3-1.1.5-1.5.3-2.6-1.2-5.1-2.5-7.6-3.7-6-2.7-12.1-5.1-18.3-7.3,0,0-.2,0-.5.1Z"/>
      <path class="cls-1" d="M92.2,174.3c1.3-1.3,2.1-1.3,3,.2,1.6,2.6,3.3,5,4.8,7.7,1,1.8.4,4-1.2,4.7-.8.3-1.7.2-2.6.3-.4,0-.8,0-.8,0,1.2,2.8,2.7,5.6,3.5,8.5,1.2,4.5-1.6,7.1-6.2,6.3-3.3-.6-6.1-2.4-8.6-4.5-3.5-2.9-7-5.8-8.8-10.2-1.4-3.2-.7-8.3,1.6-10.5,1.7-1.7,3.3-1.6,5.1-.2,4.3,3.4,8.5,6.9,14,8.2.6.1,1.6.1,1.7-.1.3-.5.3-1.5,0-1.9-1.6-2.6-3.4-5.1-5.1-7.7-.1-.2-.3-.4-.4-.6ZM97.1,196.7c-.6-1.6-1.1-3.2-1.9-4.7-1.7-3.3-3.7-6.3-7.1-8.3-2.7-1.6-5-3.8-7.5-5.6-.4-.3-1.3-.4-1.5-.1-.7.7-1.5,1.6-1.8,2.5-1.1,3.3-.2,6.4,2,9,3.7,4.3,7.7,8.4,13.4,10.1,2.8.9,4,0,4.4-2.8Z"/>
      <path class="cls-1" d="M95.6,481.4c1.7,2.3,3.3,5,3.8,8.3.7,4.5-2.4,6.9-6.8,5.9-4.8-1.1-8.4-4.3-11.9-7.7-2.4-2.3-4.6-4.7-5.4-7.9-1-3.8-.2-8.9,3.6-10.5,1-.4,2-.6,2.9.3,3.4,3.1,7.1,5.8,11.3,7.7,1.7.8,3.5,1.3,5.4,1.2-.3-2.7-2.2-5.9-6.1-10.5.5-.4,1-.9,1.9-1.6,1.2,1.8,2.4,3.6,3.6,5.4.4.7.9,1.3,1.4,1.9,0,0,.1.2.2.3,1.1,1.8,1.8,3.9.6,5.5-.9,1.1-3,1.1-4.6,1.7ZM80,471.6c-1.2.5-2.1,1.5-2.5,3.1-.9,3.3,0,6.2,2.1,8.7,2,2.4,4.3,4.6,6.8,6.4,2.2,1.6,4.8,2.7,7.4,3.7,1.9.7,3.5-.5,3.3-2.5-.1-1.6-.6-3.2-1.2-4.7-1.4-3.1-3.3-5.9-6.1-8-3.1-2.3-6.4-4.4-9.8-6.7Z"/>
      <path class="cls-1" d="M80.2,337.2c3.7,2.6,7.1,5.1,10.7,7.3,1.8,1.1,3.9,1.7,5.9,2.4,1,.3,1.9-.2,1.4-1.4-1-2.2-2.2-4.3-3.4-6.3-.6-1-1.5-1.8-2.3-2.7.6-.5,1.1-1,1.8-1.7,1.8,2.8,3.9,5.4,5.4,8.3,2.3,4.4.6,6.6-4.2,6.1,1.1,2.2,2.4,4.4,3.2,6.8.5,1.5.5,3.3.2,4.9-.4,2.3-3.2,3.9-5.4,3.3-7.8-2.2-13.4-7.1-17.5-13.9-1.4-2.3-1.5-5-.9-7.7.7-2.9,2.6-4.8,5.2-5.3ZM97.4,358.9c-.7-1.8-1.2-3.8-2.2-5.5-1.9-3.1-3.8-6.2-7.3-8-2.4-1.3-4.6-3.1-6.7-5-1.1-1-1.7-.8-2.5,0-2.2,2.2-2.4,7.1,0,9.9,2.1,2.5,4.3,5,6.8,7.1,2.3,1.9,4.8,3.7,7.9,4.2,2.2.4,3.9-.5,4-2.7Z"/>
      <path class="cls-1" d="M76.1,94.4c1.1,2.7,2.2,5.2,2.9,7.8.3,1.2-.2,2.6-.5,3.9,0,.3-1,.6-1.4.5-.3,0-.8-1-.7-1.2,1.4-2.5-.2-4.5-1-6.6-.2-.6-.6-1.2-.9-1.7-2.1-2.8-2.1-5.9-.9-9,.4-1.2.5-2.8,1.3-3.4.8-.6,2.4,0,3.6,0,.6,0,1.2,0,1.8.1-1-1.3-2-2.6-2.9-3.9-3.4-4.8-6.2-10-8.3-15.5-.8-2.2-1.3-4.6-1.8-6.9-.1-.7.3-1.5.5-2.3.6.7,1.4,1.2,1.6,2,1.1,3.2,1.8,6.6,3.2,9.6,1.8,3.8,4,7.4,6.3,11,1.4,2.2,3,4.2,4.5,6.3.3.4.6,1.3.5,1.5-.4.4-1.1.7-1.7.7-1.9,0-3.9-.3-5.8-.5-.2.2-.3.2-.3.3-2.2,4.1,1.2,5.4,3.6,7,5,3.4,10.1,6.8,15.2,10.2.3.2.8.5.9.8.2.4.2,1.1,0,1.4-.2.3-1,.4-1.3.2-1.8-1.1-3.7-2.2-5.4-3.4-4.3-3-8.7-6-13.1-9.1Z"/>
      <path class="cls-1" d="M85.4,128.8c2.3.5,4.6,1.2,6.9,1.5,3.7.4,4.5-1.2,3.4-4.4-1.5-4.4-4.4-8-7.6-11.3-.5-.6-1.2-1.1-1.5-1.7-.2-.4,0-1,0-1.6.5,0,1.2-.1,1.5.2,3.7,3.3,7,7.1,8.9,11.8.7,1.8,1.3,3.8,1.2,5.7-.2,2.5-2.8,4.2-5.4,3.9-7.6-1-14.2-4.2-19.5-9.8-2.7-2.8-3.4-6.6-1.7-9.2,1.6-2.5,4-3.6,6.9-3.3,2.9.3,4.8,2,6,4.5,1.8,4,1.7,8.1,1,12.3,0,.3,0,.7-.1,1.4ZM83,127.2c.2-1.1.5-2.1.6-3.2.2-3.5,0-7-2.5-9.8-1.5-1.7-4.6-1.9-6.5-.5-1.6,1.2-2.3,3.6-.9,5.8,2.2,3.4,5.1,6.1,9.3,7.6Z"/>
      <path class="cls-1" d="M85.4,460.3c2.8.5,5.5,1.2,8.2,1.5,2.3.2,3.2-1.2,2.6-3.6-1.1-4-3.4-7.2-6.1-10.3-1.1-1.2-2.3-2.2-3.3-3.5-.3-.4-.1-1.2-.2-1.9.6,0,1.4-.1,1.7.2,3.7,3.7,7.2,7.5,9.2,12.4.9,2.2,1.9,4.4.4,6.7-1.7,2.7-4.5,2.5-7,2-7.4-1.3-13.7-4.8-18.3-10.7-2.3-2.9-2.6-7.3.9-9.9,3.5-2.6,8.2-1.8,10.4,1.9,2.6,4.3,2.5,9,1.7,13.7,0,.2,0,.5-.2,1.4ZM83.5,459.1c.2-2.2.5-3.8.5-5.5-.1-2.7-.3-5.4-2.2-7.6-1.7-2-4.1-2.4-6.4-1-1.8,1.1-2.6,3.1-1.8,5.1,1.8,4.4,5.8,6.4,10,9.1Z"/>
      <path class="cls-1" d="M86.1,299.8c-.2,2.3-.5,3.9-.5,5.6,0,.4.4,1.2.7,1.2,2.3.6,4.5,1.2,6.9,1.4,2.7.2,3.8-1.1,2.9-3.7-1-2.6-2.4-5.2-3.9-7.5-1.4-2.1-3.4-3.9-5.1-5.8-.4-.5-.4-1.3-.5-2,.7,0,1.5,0,1.9.3,4.5,4.2,8.2,8.9,9.9,14.8,1,3.4-1.1,6.4-5.2,6.2-6.7-.4-12-3.2-17.1-7.2-2.2-1.7-3.7-3.7-4.8-6.2-1.3-3.2.9-7.3,4.2-8.3,2.4-.7,4.5-.4,6.4.9,2,1.3,3.2,3.3,3.6,5.7.3,1.7.5,3.5.7,4.7ZM83.2,305.2c0-.5,0-.9.2-1.4.6-3.4.5-6.7-.9-9.9-.8-1.9-2.2-3.3-4.4-3.4-1.9-.2-3.5.5-4.5,2.2-1.1,2-.5,3.8.8,5.5,2.3,3.2,5.4,5.1,8.8,7Z"/>
      <path class="cls-1" d="M98,398.3c-.1-.7,0-1.2-.3-1.6-2.4-3.4-5-6.7-7.3-10.1-.4-.5,0-1.5,0-2.2.6.3,1.5.3,1.9.8,3.6,4.9,7.1,9.8,10.6,14.7.3.4.2,1.1.3,1.6-.6,0-1.3.4-1.8.2-4.2-1.9-8.3-4.1-12.5-5.8-7-2.8-14.1-5.5-21.2-7.9-5.3-1.8-10.7-3.1-16.1-4.7-.3,0-.7,0-.8-.3-.4-.5-.6-1-.9-1.5.5-.2,1.2-.7,1.6-.6,2.4.6,4.8,1.2,7.1,2,6.5,2,13.1,3.8,19.4,6.2,6.3,2.3,12.3,5,18.5,7.6.5.2.9.8,1.7,1.5Z"/>
      <path class="cls-1" d="M82.5,407.3c.4,2.6.9,5.6,1.1,8.5.1,1.5-.2,3-.5,4.5,0,.4-.7.7-1.1,1.1-.3-.5-1-1-1-1.4,0-1.5.4-2.9.4-4.4,0-5.1-1.1-9.7-5-13.4-.3-.3-.2-1.1-.3-1.6.6,0,1.3-.2,1.7.1,3.9,2.8,7.7,5.7,11.7,8.4,1.9,1.3,4,2.3,6.1,3.3.6.3,1.6.3,2,0,.4-.3.3-1.3.2-1.9-.2-1.1-.7-2.1-.9-3.3,0-.5.3-1.1.5-1.6.4.3,1.2.4,1.3.8.6,1.5,1.3,3.1,1.3,4.7,0,1.1-.6,2.7-1.4,3.4-1.5,1.2-3.3.4-4.8-.5-3.9-2.2-7.7-4.6-11.3-6.8Z"/>
      <path class="cls-1" d="M82.5,368c.2,2.5.6,5.7.9,8.9,0,1.2,0,2.4-.3,3.5-.1.6-.8,1-1.2,1.5-.3-.6-.8-1.2-.9-1.8,0-2.7.1-5.4,0-8.1-.2-3.7-2.1-6.6-4.5-9.3-.4-.4-.4-1.1-.6-1.6.6,0,1.4-.2,1.9.1,3.3,2.4,6.5,4.9,9.9,7.2,2.5,1.7,5.3,3,8,4.4.5.3,1.2.2,1.9.2,0-.7.3-1.5.2-2.2-.2-1.1-.7-2.2-.9-3.3,0-.5.3-1,.4-1.5.5.3,1.4.4,1.5.8.5,1.5.9,3.1,1.1,4.7.4,3.9-2.6,4.4-4.9,3.3-4.5-2.2-8.7-4.8-12.5-7Z"/>
      <path class="cls-1" d="M59.7,354.7c.7.4,1.3.7,1.7,1.1,3.1,3.1,6.2,6.3,9.2,9.5.3.4.2,1.2.2,1.8-.5,0-1.2,0-1.5-.3-3.4-3.3-6.7-6.6-10-9.9-.3-.3-.5-.9-.5-1.4,0-.3.5-.5.8-.8Z"/>
      <path class="cls-1" d="M59.9,394.1c2.3,2.2,4.6,4.3,6.8,6.4,1.4,1.4,2.7,2.8,4,4.3.3.4.3,1,.4,1.5-.6,0-1.5.1-1.8-.2-2.1-1.9-4-3.8-6-5.8-1.2-1.3-2.4-2.6-3.7-3.8-1.1-1-.9-1.6.3-2.5Z"/>
    </g>
  </g>
  <g>
    <path class="cls-2" d="M314.5,290.5c0,4-3,7.4-8.2,7.4s-8.5-2.4-8.5-7.4,10.9-10.1,15.2-10.1c6.8,0,10.7,6.6,10.7,10.2,0,6.6-4.9,12-13.6,12-14,0-16-9.4-16-14.7.9,2.4,4.7,12.1,13.9,12.1s10.7-7.3,10.7-8.9-1.8-6.4-6.5-6.4-.9,0-1.2.2c1,.4,3.5,3,3.5,5.8Z"/>
    <path class="cls-2" d="M309.7,307.2c-11.6,0-20.4-8.3-20.4-15.1,0-11.6,15.4-17.6,23-17.6,14.1,0,18.4,15.1,19.3,17.5,1.9-2.7,2.1-5.8,2.1-8,0-13.2-20.8-13.9-25.4-14.9,4-.3,8.4-.4,9.9-.4,3.4,0,16.3,3.3,23.8,16.2,0-11.6-8.1-16.7-14.9-20.4,9.2,2.7,27.3,7.4,27.3,20.9s-9.8,22.9-12.6,25.4c8.7-3.4,19.8-15.7,21.8-20.4,0,12.3-18.7,26.8-25.8,30.4,5-1.1,34.3-10.7,34.3-33s-23.1-37.4-47.4-37.4-50.7,22-50.7,40.1c1.6-4,10.2-24.6,22.3-24.6-4.7,4.1-15.6,17.8-15.6,26.8,0,13.3,17.6,19.4,31.5,22.4-1.7.5-4.1.5-5.2.5-12.1,0-26.2-5.9-32.9-9.2,4.8,4.9,15.7,16,41.4,16s9.2-.6,10-.7c-1.7-1.2-4.5-4-4.8-4.7,7.2,0,15.4-7.3,17.4-11.6-2.1,1.1-6.1,1.7-6.9,1.8,1.8-2.4,8.4-12.8,9.2-14.8-3,2.2-16.5,14.9-30.8,14.9Z"/>
    <path class="cls-2" d="M318.8,330.9c-31.4,0-58.2-19.4-58.2-48.3s.5-11.3.9-12.7c-2.1,1.7-7.7,12.1-7.7,20.6,0,14.3,10.2,28.8,12.6,31.5-2.7-1-17-4.2-17-32.9s.6-7.7.6-8.6c-2.2,4.1-4.5,15.2-4.5,20.8,0,25.1,22.7,34.5,44.7,40.6-34.2,0-46.3-17-52.3-26.2.8,7.6,17.3,37.6,59,37.6s63.7-27.2,66.8-33.4c-6.3,3.8-27.4,11.1-44.9,11.1Z"/>
    <path class="cls-2" d="M297.5,364.1c-24.6,0-66.7-19.8-66.7-51.3,0-54.9,45.2-73.7,55.2-78.3-26.4,4.3-65.9,24.9-65.9,70.8s36.4,58.4,60.4,62.8c-27.4,0-66.1-19-66.1-62.6s57.6-84.2,90.8-85c-35.5-.8-99.4,23.8-99.4,84.9s36.7,73.3,79.9,73.3,59.8-26.9,61.8-30.1c-7.6,4-25.6,15.5-50,15.5Z"/>
    <path class="cls-2" d="M382.3,295.9c0-19-6.2-36.3-14.2-41.2-13.5-8.1-26.7-12.7-42.5-12.7-43.3,0-55,35.9-56.9,40,7.2-39.6,33.8-48.6,60.6-48.6s42.8,5,45.2,5.6c-3.2-3.1-8.9-10.9-34.5-10.9s-17.4.3-19.6.6c5.2-2.5,20.3-5.7,33.2-5.7,41.9,0,69.5,45.1,69.5,68.5,0,46.9-38.3,91.7-107.1,91.7,49-11.7,86.6-43.5,86.6-80.1s-6.1-36.8-7-38.8c1,4.4,1.5,12.6,1.5,19.5,0,63.7-46.7,82.1-59,87.1,14.9-12.9,44.1-31.5,44.1-75.1Z"/>
    <path class="cls-2" d="M323.2,212.4c-81.3,0-115.5,44.1-125.4,69.2,1.8-25.9,33.2-82.1,123.7-82.1s61.3,11.4,65.7,12.4c-9.6-10.2-40.6-21.1-65.1-21.1-81.7,0-134.3,61.3-134.3,93.8-1-4-.8-11.1-.8-14.6s4.3-28,7.4-33.3c-6.1,5.8-15.2,20.8-16.2,23.8-1.1-3.4-1.5-7-1.4-9.4-2.1,4.1-12.6,27.2-14.3,31.7,9.9-60.9,84.2-112.3,150.3-112.3,109,0,132.9,56.6,132.9,80.9s-9.8,47.6-13,53.2c2.6-9.9,5.4-26.6,5.4-39.5s-3.9-49.2-43.4-73.7c7.4,7.3,16.2,17.9,19,22.5-11.6-13-38.3-30.7-73-30.7,56,12.2,86,39.9,86,69.7s-.3,9.7-1,11.7c-5.8-8.9-36-52.2-102.6-52.2Z"/>
    <path class="cls-2" d="M311.4,386.8c-11.9,0-36.3-2.5-40.5-2.8,6.6,2.6,30.1,9.2,52.7,9.2,51.8,0,98.7-35,109.4-44.4-31.5,44.1-85.5,53.2-162.2,54.3,8.8,1.3,24.2,2.3,37.9,2.3,119,0,146.7-60.6,146.7-119.1s-.3-20.3-1-24.2c0,9.4-4.1,50.7-27.6,77.6,8.6-14.5,16.7-31,16.7-38.5-25.9,54.7-64.7,85.5-132.3,85.5Z"/>
    <path class="cls-2" d="M312.2,449c88,0,135-59.3,136.6-88.7-21.1,34.9-68,47.4-90.7,52.3,14.2,0,60.1-9.7,66.4-12.9-11.6,7.1-37.8,20.8-80.3,20.8s-98-12.4-127.7-30.9-40.3-37.4-47.8-63.4c5.3,77.9,106.3,103.5,180.3,111.3-5.5.7-9.9,1-14.8,1-85.8,0-122.3-22.8-158.8-63,4.7,20.4,45.9,73.4,136.7,73.4Z"/>
    <path class="cls-2" d="M174.6,280.4c7.3,49.8,30.4,73.8,39.3,82.4-9.4-9.7-22.8-44.3-22.8-63.3s.7-7.3,1.7-9.2c1.3,5.9,5.1,76.1,73.3,100.9-47.7-6.3-91.5-20.1-91.5-110.8Z"/>
  </g>
</svg>