<?xml version="1.0" encoding="UTF-8"?>
<svg id="Calque_1" data-name="Calque 1" xmlns="http://www.w3.org/2000/svg" xmlns:xlink="http://www.w3.org/1999/xlink" version="1.1" viewBox="0 0 324.8 279">
  <defs>
    <style>
      .cls-1 {
        fill: #efa95a;
      }

      .cls-1, .cls-2, .cls-3, .cls-4, .cls-5, .cls-6, .cls-7, .cls-8, .cls-9, .cls-10, .cls-11, .cls-12, .cls-13, .cls-14 {
        stroke-width: 0px;
      }

      .cls-15 {
        clip-path: url(#clippath);
      }

      .cls-2 {
        fill: none;
      }

      .cls-3 {
        fill: url(#Dégradé_sans_nom);
      }

      .cls-4 {
        fill: #1d1d1b;
      }

      .cls-16 {
        fill: #848484;
        font-family: Cochin-Bold, Cochin;
        font-size: 10.5px;
        font-weight: 700;
        isolation: isolate;
      }

      .cls-17 {
        clip-path: url(#clippath-1);
      }

      .cls-18 {
        clip-path: url(#clippath-4);
      }

      .cls-19 {
        clip-path: url(#clippath-3);
      }

      .cls-20 {
        clip-path: url(#clippath-2);
      }

      .cls-21 {
        clip-path: url(#clippath-6);
      }

      .cls-22 {
        clip-path: url(#clippath-5);
      }

      .cls-5 {
        fill: url(#Dégradé_sans_nom_8);
      }

      .cls-6 {
        fill: url(#Dégradé_sans_nom_6);
      }

      .cls-7 {
        fill: url(#Dégradé_sans_nom_7);
      }

      .cls-8 {
        fill: url(#Dégradé_sans_nom_4);
      }

      .cls-9 {
        fill: url(#Dégradé_sans_nom_5);
      }

      .cls-10 {
        fill: url(#Dégradé_sans_nom_2);
      }

      .cls-11 {
        fill: url(#Dégradé_sans_nom_3);
      }

      .cls-12 {
        fill: #343889;
      }

      .cls-13 {
        fill: #fefefe;
      }

      .cls-14 {
        fill: #f1374a;
      }
    </style>
    <clipPath id="clippath">
      <path class="cls-2" d="M43.4,247c-.8,1.5-1.6,2.8-2.4,3.8-.8,1.1-1.8,2-2.8,2.7-1,.7-2.2,1.2-3.5,1.6s-2.8.5-4.5.5-1.7,0-2.5,0-1.4-.1-1.8-.2v-22.7c0-.9.2-1.5.5-2.1.4-.5.8-.9,1.4-1.3.5-.3,1.2-.6,1.9-.7s1.4-.3,2.1-.4v-1.1c-2.9.2-5.7.3-8.5.3s-5.6,0-8.3-.3v1.1c.7,0,1.4.2,2,.4s1.1.4,1.5.7c.4.3.7.7,1,1.3.2.5.3,1.2.3,2.1v20.4c0,.7-.1,1.3-.4,1.8-.3.4-.6.8-1.1,1-.5.2-1,.4-1.6.4-.6,0-1.2,0-1.8,0v1.1c2.2,0,4.4-.1,6.7-.1,2.2,0,4.4,0,6.6,0s4.2,0,6.4,0c2.1,0,4.3,0,6.4.1.4-1.7.9-3.4,1.5-5s1.3-3.3,2.1-4.8l-1.2-.5Z"/>
    </clipPath>
    <linearGradient id="Dégradé_sans_nom" data-name="Dégradé sans nom" x1="11.8" y1="38.3" x2="312.6" y2="38.3" gradientTransform="translate(0 279.9) scale(1 -1)" gradientUnits="userSpaceOnUse">
      <stop offset="0" stop-color="#9e582c"/>
      <stop offset="1" stop-color="#f3bf7c"/>
    </linearGradient>
    <clipPath id="clippath-1">
      <path class="cls-2" d="M72.8,253.5l-10-27.1c-.9.4-1.8.7-2.8,1-1,.3-1.9.5-2.9.7l.8,2.2-9,21c-.3.7-.6,1.4-.9,2s-.6,1.1-1,1.5c-.4.4-.9.8-1.4,1s-1.3.4-2.1.5v1.1c.9,0,1.8-.1,2.8-.1.9,0,1.8,0,2.8,0s2,0,3,0c1,0,2,0,3,.1v-1.1c-.4,0-.8-.2-1.3-.3-.5-.1-.9-.3-1.3-.6-.4-.2-.8-.5-1-.8-.3-.3-.4-.6-.4-1,0-.6,0-1.1.2-1.5.2-.4.3-.8.5-1.2l2.3-6.5h9.1l1.6,4.5c.1.3.3.7.4,1.1.2.5.3.9.5,1.3.2.5.3.9.4,1.3.1.4.2.8.2,1.1,0,.8-.4,1.4-1.2,1.8-.8.4-2,.7-3.5.8v1.1c1.3,0,2.6-.1,3.8-.1,1.3,0,2.6,0,3.8,0h1.9c.7,0,1.5,0,2.2,0,.7,0,1.5,0,2.2,0s1.4,0,2,0v-1.1c-.9,0-1.9-.2-2.8-.7s-1.6-1.2-1.9-2.1ZM54.6,242.6l4-10.8h0l3.8,10.8h-7.9Z"/>
    </clipPath>
    <linearGradient id="Dégradé_sans_nom_2" data-name="Dégradé sans nom 2" x1="11.8" y1="38.3" x2="312.6" y2="38.3" gradientTransform="translate(0 279.9) scale(1 -1)" gradientUnits="userSpaceOnUse">
      <stop offset="0" stop-color="#9e582c"/>
      <stop offset="1" stop-color="#f3bf7c"/>
    </linearGradient>
    <clipPath id="clippath-2">
      <path class="cls-2" d="M110.5,229.3c1.1.1,2,.5,2.8,1,.8.5,1.5,1.3,2.1,2.3.6,1,1,2.4,1.4,4.1h1c0-.6-.1-1.2-.2-1.8,0-.6,0-1.3-.1-2s0-1.6-.1-2.5,0-2,0-3.3c-2.3,0-4.7.1-6.9.2-2.3,0-4.6,0-6.9,0s-4.5,0-6.8,0c-2.2,0-4.5-.1-6.8-.2,0,1.3,0,2.4,0,3.3,0,1,0,1.8-.1,2.5s0,1.4-.1,2c0,.6,0,1.2-.2,1.8h1.2c.3-1.7.8-3.1,1.4-4.1s1.3-1.8,2.1-2.3c.8-.5,1.8-.9,2.8-1,1.1-.2,2.3-.2,3.7-.2v22c0,1,0,1.9-.1,2.5s-.3,1.2-.6,1.6c-.3.4-.8.7-1.5.9-.7.2-1.6.3-2.8.4v.9c1.5,0,2.9-.1,4.3-.1,1.4,0,2.8,0,4.2,0s2.6,0,3.9,0c1.3,0,2.6,0,3.9.1v-.9c-1.2,0-2.1-.2-2.8-.4-.7-.2-1.2-.5-1.5-.9-.3-.4-.6-.9-.6-1.6s-.1-1.5-.1-2.5v-22c1.4,0,2.6,0,3.7.2Z"/>
    </clipPath>
    <linearGradient id="Dégradé_sans_nom_3" data-name="Dégradé sans nom 3" x1="11.8" y1="38.3" x2="312.6" y2="38.3" gradientTransform="translate(0 279.9) scale(1 -1)" gradientUnits="userSpaceOnUse">
      <stop offset="0" stop-color="#9e582c"/>
      <stop offset="1" stop-color="#f3bf7c"/>
    </linearGradient>
    <clipPath id="clippath-3">
      <path class="cls-2" d="M143.5,253.5l-10-27.1c-.9.4-1.8.7-2.8,1s-1.9.5-2.9.7l.8,2.2-9,21c-.3.7-.6,1.4-.9,2s-.6,1.1-1,1.5c-.4.4-.9.8-1.4,1s-1.3.4-2.1.5v1.1c.9,0,1.8-.1,2.8-.1.9,0,1.8,0,2.8,0s2,0,3,0c1,0,2,0,3,.1v-1.1c-.4,0-.8-.2-1.3-.3-.5-.1-.9-.3-1.3-.6-.4-.2-.8-.5-1-.8-.3-.3-.4-.6-.4-1,0-.6,0-1.1.2-1.5.2-.4.3-.8.5-1.2l2.3-6.5h9.1l1.6,4.5c.1.3.3.7.4,1.1s.3.9.5,1.3c.2.5.3.9.4,1.3.1.4.2.8.2,1.1,0,.8-.4,1.4-1.1,1.8-.8.4-1.9.7-3.5.8v1.1c1.3,0,2.6-.1,3.8-.1,1.3,0,2.6,0,3.8,0h1.9c.7,0,1.5,0,2.2,0,.7,0,1.5,0,2.2,0s1.4,0,2,0v-1.1c-.9,0-1.9-.2-2.8-.7s-1.6-1.2-1.9-2.1ZM125.4,242.6l4-10.8h0l3.8,10.8h-7.9Z"/>
    </clipPath>
    <linearGradient id="Dégradé_sans_nom_4" data-name="Dégradé sans nom 4" x1="11.8" y1="38.3" x2="312.6" y2="38.3" gradientTransform="translate(0 279.9) scale(1 -1)" gradientUnits="userSpaceOnUse">
      <stop offset="0" stop-color="#9e582c"/>
      <stop offset="1" stop-color="#f3bf7c"/>
    </linearGradient>
    <clipPath id="clippath-4">
      <path class="cls-2" d="M201.2,253.5c-2.4,1.4-5.1,2.1-8.1,2.1s-2.1,0-3-.2c-.9-.1-1.7-.3-2.5-.5v-13.7h2.4c.9,0,1.8,0,2.6.3s1.5.5,2.1,1c.6.5,1.1,1.1,1.6,1.8.5.8.8,1.7,1.1,2.8h.9c0-1.1,0-2.2-.1-3.3s0-2.2,0-3.3,0-2.2,0-3.3c0-1.1,0-2.2.1-3.3h-.9c-.2,1.1-.6,2-1.1,2.7s-1.1,1.3-1.7,1.8c-.7.4-1.4.8-2.1,1-.8.2-1.5.3-2.3.3h-2.4v-11.2h5.1c3.1,0,5.4.6,7,1.8,1.6,1.2,2.8,2.9,3.5,5.3l1-.2c-.2-.8-.3-1.6-.3-2.5,0-.9,0-1.9,0-2.8v-1.6c0-.6,0-1.1,0-1.7-3.1,0-6.1.1-9,.2-2.9,0-5.9,0-8.9,0s-3.1,0-4.7,0c-1.6,0-3.1-.1-4.7-.2h0c-.9,0-1.8.1-2.6.2-.9,0-1.8,0-2.7,0s-2,0-3,0c-1,0-2-.1-3-.2v1.1c.4,0,.8,0,1.3.1.5,0,.9.2,1.4.4.4.2.8.5,1.1.8.3.4.4.8.4,1.4s-.2,1.4-.6,2.6c-.4,1.2-.9,2.6-1.6,4.4s-1.5,3.7-2.4,5.9c-.9,2.2-1.9,4.6-2.9,7.1-.9-2.4-1.9-4.6-2.8-6.8s-1.8-4.2-2.6-6c-.8-1.8-1.4-3.3-1.8-4.5-.5-1.2-.7-2.1-.7-2.6s.1-1.1.4-1.4c.2-.3.5-.6.9-.8.4-.2.8-.3,1.3-.4.5,0,1-.2,1.5-.2v-1.1c-1.3,0-2.6.1-4,.2-1.3,0-2.7,0-4,0-2.6,0-5.1,0-7.6-.3v1.1c1.2.2,2.1.5,2.9,1,.7.5,1.3,1.2,1.7,2.1,1,2.2,2,4.5,3,6.7,1,2.3,1.9,4.5,2.9,6.8.9,2.2,1.9,4.5,2.8,6.6.9,2.1,1.8,4.2,2.7,6.2h2.5c1.5-4.1,3.2-8.3,5.1-12.6,1.9-4.3,4-8.9,6.4-13.8.2-.5.5-.9.7-1.2.2-.3.5-.6.8-.9s.7-.4,1.1-.6c.4-.1.9-.3,1.5-.4v.2c1,0,1.9.2,2.5.4.6.2,1.1.6,1.4,1s.6,1,.7,1.6.2,1.4.2,2.2v17.5c0,.9,0,1.7-.2,2.4-.1.6-.3,1.2-.7,1.6-.3.4-.8.7-1.4.9-.6.2-1.5.3-2.5.4v1.1c.6,0,1.3,0,2.2,0,.9,0,1.9,0,3.1,0,1.1,0,2.4,0,3.8,0h4.3c2.4,0,4.8,0,7.1,0,2.4,0,4.7,0,7.1.1.5-1.7,1.1-3.4,1.8-5s1.4-3.2,2.2-4.9l-.9-.6c-1.7,3-3.7,5.2-6.1,6.7Z"/>
    </clipPath>
    <linearGradient id="Dégradé_sans_nom_5" data-name="Dégradé sans nom 5" x1="11.8" y1="38.3" x2="312.6" y2="38.3" gradientTransform="translate(0 279.9) scale(1 -1)" gradientUnits="userSpaceOnUse">
      <stop offset="0" stop-color="#9e582c"/>
      <stop offset="1" stop-color="#f3bf7c"/>
    </linearGradient>
    <clipPath id="clippath-5">
      <path class="cls-2" d="M268.4,227.3c-1.1,0-2.2-.1-3.2-.2v1.1c.7.1,1.4.3,2,.4s1.1.4,1.6.7c.5.3.8.7,1.1,1.2s.5,1.2.6,2c.2,1,.3,2.3.4,3.8,0,1.5.2,3.1.2,4.7s0,3.2,0,4.7v3.7h0c-2.9-3.9-5.9-7.7-9.1-11.3-3.1-3.6-6.2-7.3-9.3-11.1-2.1.2-4.1.3-6.3.3s-1.6,0-2.4,0c-.8,0-1.6-.1-2.4-.2v1.1c.6.2,1.2.3,1.8.5.6.2,1.1.4,1.7.6.6.2,1.1.5,1.6.9.5.3,1,.7,1.4,1.2l-.2,17.9c0,1.4,0,2.5-.2,3.3s-.4,1.5-.8,2-1.1.9-1.9,1.1c-.7.2-1.7.4-3,.6-.9-.3-1.9-.8-2.8-1.5-1.3-1-2.6-2.2-3.7-3.5-1.1-1.3-2.2-2.7-3.1-4.1s-1.8-2.7-2.4-3.7c1-.2,1.9-.5,2.7-.9.8-.4,1.6-.9,2.2-1.5.6-.6,1.1-1.3,1.4-2.1.3-.8.5-1.8.5-2.8s-.2-2.4-.7-3.5c-.5-1.1-1.2-2-2.1-2.8-.9-.8-2-1.5-3.3-1.9-1.3-.5-2.7-.7-4.3-.7s-3.5,0-5.2.1-3.3.1-5,.1-2.6,0-3.7,0c-1.1,0-2.2,0-3.3-.1v1c1.1,0,2,.2,2.7.5.7.2,1.1.6,1.5,1s.5,1,.6,1.6c0,.6.1,1.4.1,2.4v17.5c0,1,0,1.9-.1,2.5,0,.6-.3,1.1-.6,1.5-.3.4-.8.6-1.5.8-.7.2-1.6.3-2.7.4v1.1c1.4,0,2.8-.1,4.1-.1,1.4,0,2.8,0,4.2,0s2.6,0,3.9,0c1.3,0,2.4,0,3.5.1v-1.1c-1.1,0-1.9-.2-2.5-.4-.6-.2-1.1-.4-1.4-.8s-.5-.9-.6-1.5c0-.6-.1-1.5-.1-2.5v-8c.3.2.8.4,1.5.5.7.1,1.2.2,1.8.3,1.4,2.5,2.8,4.8,4.5,7,1.6,2.2,3.4,4.4,5.4,6.4.8,0,1.5-.1,2.3-.1s1.5,0,2.3,0,1.8,0,2.6,0c.3,0,.6,0,.9,0h0c.3,0,.7,0,1,0,.2,0,.5,0,.7,0h0c.7,0,1.4-.1,2.1-.1,1.2,0,2.5,0,3.8,0s2.2,0,3.4,0c1.1,0,2.2,0,3.4.1v-1.1c-1.4-.2-2.4-.5-3.2-.7s-1.4-.7-1.8-1.2c-.4-.5-.7-1.3-.8-2.2-.1-.9-.2-2.2-.2-3.8v-15.6c.7.7,1.6,1.7,2.6,2.8,1,1.2,2.1,2.4,3.3,3.8s2.5,2.8,3.8,4.4c1.3,1.6,2.6,3.1,3.9,4.8,1.3,1.6,2.5,3.2,3.7,4.8,1.2,1.6,2.2,3.1,3.1,4.5h2.7v-21.1c0-1.7,0-3.1.2-4.2.1-1.1.3-2,.7-2.6.4-.6.9-1.1,1.6-1.4.7-.3,1.7-.4,2.9-.5v-1.1c-2.1.2-4.2.3-6.4.3-1.1,0-2.2,0-3.3-.1ZM223.4,242c-1.1,0-2.1-.2-3.1-.7v-12.1c.6-.2,1.2-.4,1.8-.4.6,0,1.2,0,1.8,0,.9,0,1.8.2,2.6.5.8.3,1.4.8,2,1.4.6.6,1,1.3,1.3,2.1.3.8.4,1.7.4,2.6,0,2.2-.6,3.8-1.9,5-1.2,1.1-2.9,1.7-4.9,1.7Z"/>
    </clipPath>
    <linearGradient id="Dégradé_sans_nom_6" data-name="Dégradé sans nom 6" x1="11.8" y1="38.3" x2="312.6" y2="38.3" gradientTransform="translate(0 279.9) scale(1 -1)" gradientUnits="userSpaceOnUse">
      <stop offset="0" stop-color="#9e582c"/>
      <stop offset="1" stop-color="#f3bf7c"/>
    </linearGradient>
    <clipPath id="clippath-6">
      <path class="cls-2" d="M309.6,246.9c-1.7,3-3.7,5.2-6.2,6.7s-5.1,2.1-8.1,2.1-2.1,0-3-.2c-.9-.1-1.7-.3-2.5-.5v-13.7h2.4c.9,0,1.8.1,2.5.3.8.2,1.5.5,2.1,1s1.1,1.1,1.6,1.8c.5.8.8,1.7,1.1,2.9h.9c0-1.1,0-2.2-.1-3.3,0-1.1,0-2.2,0-3.3s0-2.2,0-3.3c0-1.1,0-2.2.1-3.3h-.9c-.2,1.1-.6,2-1.1,2.7-.5.7-1.1,1.3-1.7,1.8-.7.4-1.4.8-2.1,1s-1.5.3-2.4.3h-2.4v-11.2h5.1c3.1,0,5.4.6,7,1.8,1.6,1.2,2.8,2.9,3.5,5.3l1-.2c-.2-.8-.3-1.6-.3-2.5s0-1.9,0-2.8v-1.6c0-.6,0-1.1,0-1.7-3.1,0-6.1.1-9,.2-2.9,0-5.9,0-8.9,0s-3.1,0-4.7,0c-1.6,0-3.1-.1-4.7-.2v1.3c1,0,1.9.2,2.5.4.6.2,1.1.6,1.5,1,.3.4.6,1,.7,1.6.1.6.2,1.4.2,2.2v17.5c0,.9,0,1.7-.2,2.3-.1.6-.3,1.2-.7,1.6-.3.4-.8.7-1.5.9-.6.2-1.5.3-2.5.4v1.1c.6,0,1.3,0,2.2,0s1.9,0,3.1,0c1.1,0,2.4,0,3.8,0h4.3c2.4,0,4.8,0,7.1,0,2.4,0,4.7,0,7.1.1.5-1.7,1.1-3.4,1.8-5s1.4-3.2,2.2-4.9l-.9-.7Z"/>
    </clipPath>
    <linearGradient id="Dégradé_sans_nom_7" data-name="Dégradé sans nom 7" x1="11.8" y1="38.3" x2="312.6" y2="38.3" gradientTransform="translate(0 279.9) scale(1 -1)" gradientUnits="userSpaceOnUse">
      <stop offset="0" stop-color="#9e582c"/>
      <stop offset="1" stop-color="#f3bf7c"/>
    </linearGradient>
    <linearGradient id="Dégradé_sans_nom_8" data-name="Dégradé sans nom 8" x1="162.9" y1="127.2" x2="162.9" y2="198.1" gradientTransform="translate(0 279.9) scale(1 -1)" gradientUnits="userSpaceOnUse">
      <stop offset="0" stop-color="#994d33"/>
      <stop offset=".2" stop-color="#9d5235"/>
      <stop offset=".4" stop-color="#aa603b"/>
      <stop offset=".6" stop-color="#c07745"/>
      <stop offset=".8" stop-color="#dd9852"/>
      <stop offset="1" stop-color="#fcb960"/>
    </linearGradient>
  </defs>
  <rect class="cls-4" y="0" width="324.8" height="279"/>
  <g>
    <g class="cls-15">
      <rect class="cls-3" x="11.8" y="221.7" width="300.9" height="39.6"/>
    </g>
    <g class="cls-17">
      <rect class="cls-10" x="11.8" y="221.7" width="300.9" height="39.6"/>
    </g>
    <g class="cls-20">
      <rect class="cls-11" x="11.8" y="221.7" width="300.9" height="39.6"/>
    </g>
    <g class="cls-19">
      <rect class="cls-8" x="11.8" y="221.7" width="300.9" height="39.6"/>
    </g>
    <g class="cls-18">
      <rect class="cls-9" x="11.8" y="221.7" width="300.9" height="39.6"/>
    </g>
    <g class="cls-22">
      <rect class="cls-6" x="11.8" y="221.7" width="300.9" height="39.6"/>
    </g>
    <g class="cls-21">
      <rect class="cls-7" x="11.8" y="221.7" width="300.9" height="39.6"/>
    </g>
  </g>
  <g>
    <g>
      <text class="cls-16" transform="translate(126.9 165.8)"><tspan x="0" y="0">DEPUIS 1996</tspan></text>
      <path class="cls-5" d="M146.7,150.9c2.6-.2,4.7-.6,6.1-1.2,1.5-.6,2.6-1.5,3.3-2.7.8-1.2,1.2-2.9,1.4-4.9.2-2,.3-4.6.3-7.6v-50.8c-3.9,0-7.1.2-9.7.4-2.6.3-4.8,1-6.7,2.2-1.9,1.2-3.6,3.1-5,5.5-1.4,2.5-2.8,5.9-4.2,10.2l-1.4-.4,1.5-21.5c3.1.2,6.1.3,9.1.3,3,0,6,.1,9.1.1h25.7c2.9,0,5.8,0,8.7-.1s5.7-.2,8.6-.3l1.5,21.5-1.4.4c-1.4-4.3-2.8-7.7-4.2-10.2-1.4-2.5-3.1-4.3-5-5.5-1.9-1.2-4.2-1.9-6.9-2.2-2.7-.3-6-.4-9.9-.4v50.8c0,3.1,0,5.6.3,7.6.2,2,.7,3.6,1.4,4.9.8,1.2,1.9,2.2,3.4,2.7s3.6,1,6.4,1.2v1.3c-2.8-.1-5.6-.3-8.3-.3s-5.6-.1-8.3-.1-5.4,0-8,.1-5.3.2-7.9.3v-1.3h0Z"/>
    </g>
    <g>
      <path class="cls-1" d="M162.9,23.8c-50.6,0-91.7,41.1-91.7,91.7s23.1,70.5,56,84.5l5.3-13c-27.8-11.9-47.2-39.4-47.2-71.5s34.9-77.7,77.7-77.7,77.7,34.9,77.7,77.7-19.7,59.9-47.7,71.7l5.9,12.7c32.8-14,55.8-46.6,55.8-84.4,0-50.6-41.1-91.7-91.7-91.7Z"/>
      <g>
        <path class="cls-12" d="M152.9,192.6l-2,13.9c-8.3-1.1-16.3-3.3-23.8-6.5l5.3-13c6.4,2.8,13.3,4.7,20.5,5.6Z"/>
        <path class="cls-13" d="M174.9,206.5c-3.9.5-7.9.8-12,.8s-8-.3-12-.8l2-13.9c3.3.4,6.6.6,9.9.6s6.9-.2,10.2-.7l1.8,13.9Z"/>
        <path class="cls-14" d="M198.8,199.9c-7.5,3.2-15.6,5.4-23.9,6.5l-1.8-13.9c6.9-.9,13.6-2.7,19.8-5.4l5.9,12.7Z"/>
      </g>
    </g>
  </g>
</svg>