<svg width="256" height="256" viewBox="0 0 256 256" fill="none" xmlns="http://www.w3.org/2000/svg">
<g clip-path="url(#clip0_1030_33703)">
<path d="M242.735 79.5329C236.464 64.7057 227.484 51.3886 216.049 39.953C204.613 28.5174 191.296 19.5375 176.469 13.2667C161.12 6.7735 144.811 3.48242 128 3.48242C111.189 3.48242 94.8824 6.7735 79.5311 13.2667C64.7039 19.5375 51.3868 28.5174 39.9512 39.953C28.5156 51.3886 19.5357 64.7057 13.2649 79.5329C6.77166 94.8842 3.48059 111.191 3.48059 128.002C3.48059 144.813 6.77166 161.119 13.2649 176.471C19.5357 191.298 28.5156 204.615 39.9512 216.051C51.3868 227.486 64.7039 236.466 79.5311 242.737C94.8804 249.23 111.189 252.521 128 252.521C144.811 252.521 161.118 249.228 176.469 242.737C191.296 236.466 204.613 227.486 216.049 216.051C227.484 204.615 236.464 191.298 242.735 176.471C249.228 161.121 252.519 144.813 252.519 128.002C252.519 111.191 249.226 94.8842 242.735 79.5329ZM128 207.947C83.847 207.947 48.0532 172.153 48.0532 128C48.0532 83.8469 83.847 48.0531 128 48.0531C172.153 48.0531 207.947 83.8469 207.947 128C207.947 172.153 172.153 207.947 128 207.947Z" fill="black"/>
<path d="M33.514 154.538L35.4148 160.609L33.5952 161.18L32.406 157.38L30.4395 157.995L31.329 160.837L29.5616 161.39L28.6721 158.548L24.8996 159.729L24.188 157.457L33.514 154.538Z" fill="white"/>
<path d="M28.9216 170.902C27.8194 168.359 28.8249 165.466 31.5204 164.297C34.216 163.129 37.0023 164.378 38.1045 166.919C39.2125 169.473 38.2031 172.323 35.5076 173.493C32.8121 174.661 30.0238 173.443 28.9216 170.902ZM30.9152 170.038C31.5359 171.469 32.9745 171.952 34.5447 171.271C36.1419 170.579 36.7452 169.208 36.1264 167.779C35.4941 166.323 34.0864 165.842 32.4911 166.534C30.921 167.214 30.2848 168.584 30.9152 170.04V170.038Z" fill="white"/>
<path d="M34.8385 182.551C33.4366 180.161 34.0844 177.165 36.6175 175.678C39.1506 174.191 42.0704 175.094 43.4723 177.484C44.8819 179.886 44.2245 182.839 41.6914 184.326C39.1583 185.813 36.2404 184.941 34.8385 182.551ZM36.7122 181.452C37.5012 182.798 38.9881 183.104 40.4654 182.237C41.966 181.357 42.401 179.923 41.6121 178.579C40.8096 177.21 39.3536 176.902 37.8511 177.782C36.3738 178.648 35.9078 180.085 36.7122 181.452Z" fill="white"/>
<path d="M48.5868 193.69C46.2761 195.436 43.4801 195.038 41.5986 192.551L39.3904 189.63L47.1869 183.734L49.3951 186.656C51.2765 189.144 50.9091 191.935 48.5868 193.69ZM43.1513 191.186C44.2342 192.619 45.6941 192.841 47.1269 191.759C48.5598 190.676 48.7647 189.193 47.6819 187.76L47.0012 186.861L42.4707 190.287L43.1513 191.186Z" fill="white"/>
<path d="M48.8363 197.646L50.4605 199.462L45.9203 201.154L44.88 199.992L48.8363 197.648V197.646Z" fill="white"/>
<path d="M63.9361 208.732C62.0353 210.917 59.2161 211.105 56.8628 209.059L54.0996 206.657L60.5116 199.282L63.2748 201.684C65.628 203.73 65.8446 206.537 63.9342 208.734L63.9361 208.732ZM58.1003 207.404C59.4558 208.581 60.9293 208.498 62.1088 207.143C63.2864 205.787 63.1839 204.294 61.8284 203.117L60.9776 202.376L57.2515 206.663L58.1023 207.404H58.1003Z" fill="white"/>
<path d="M72.2856 208.72C74.2502 210.089 74.4455 211.905 73.4748 213.297C72.7748 214.303 71.5663 214.869 70.0774 214.374L69.7158 218.839L67.5114 217.304L67.9523 213.113L67.4844 212.787L65.3747 215.815L63.4218 214.453L69.0081 206.433L72.2875 208.716L72.2856 208.72ZM71.0423 210.263L69.8318 209.42L68.4473 211.408L69.6578 212.251C70.3887 212.76 70.9939 212.622 71.4309 211.994C71.8447 211.4 71.7732 210.772 71.0423 210.263Z" fill="white"/>
<path d="M77.4698 212.077L79.5233 213.282L74.5809 221.714L72.5273 220.51L77.4698 212.077Z" fill="white"/>
<path d="M89.8219 218.47L85.6181 227.293L83.4679 226.268L82.4663 219.114L79.8732 224.557L77.723 223.532L81.9268 214.709L84.077 215.734L85.067 222.913L87.6717 217.445L89.8219 218.47Z" fill="white"/>
<path d="M92.7958 225.404L91.392 229.486L89.1412 228.713L92.3182 219.472L94.569 220.245L93.1748 224.3L97.6493 221.305L100.296 222.216L95.1588 225.512L97.251 231.503L94.4994 230.557L92.7958 225.408V225.404Z" fill="white"/>
<path d="M103.717 233.198C101.669 232.725 100.304 231.338 100.681 229.397L103.151 229.967C103.05 230.716 103.429 231.174 104.081 231.325C104.759 231.481 105.272 231.244 105.399 230.687C105.807 228.923 100.826 228.772 101.635 225.402C102.05 223.598 103.762 222.937 105.755 223.397C107.83 223.876 108.99 225.23 108.665 227.069L106.155 226.489C106.256 225.868 105.906 225.402 105.285 225.245C104.732 225.104 104.247 225.292 104.108 225.887C103.725 227.543 108.603 227.883 107.869 231.071C107.499 232.673 105.945 233.713 103.719 233.198H103.717Z" fill="white"/>
<path d="M121.402 233.931L117.765 233.645L117.048 235.32L114.563 235.124L118.852 225.657L121.6 225.872L124.361 235.892L121.849 235.695L121.4 233.927L121.402 233.931ZM120.008 228.389L118.535 231.862L120.936 232.05L120.008 228.388V228.389Z" fill="white"/>
<path d="M135.907 225.853L136.253 235.621L133.872 235.706L129.68 229.822L129.893 235.848L127.513 235.933L127.167 226.164L129.547 226.079L133.741 231.99L133.526 225.938L135.905 225.853H135.907Z" fill="white"/>
<path d="M148.002 229.12C148.433 231.984 146.747 234.252 143.662 234.716L140.041 235.262L138.585 225.597L142.206 225.052C145.291 224.588 147.567 226.243 148.002 229.12ZM143.206 232.702C144.981 232.435 145.875 231.257 145.608 229.482C145.341 227.707 144.136 226.817 142.361 227.084L141.245 227.253L142.092 232.87L143.208 232.702H143.206Z" fill="white"/>
<path d="M159.132 227.614L157.722 228.049L158.757 231.402L156.481 232.104L153.601 222.764L157.287 221.627C159.574 220.922 161.118 221.859 161.645 223.576C162.121 225.119 161.514 226.881 159.132 227.614ZM158.403 225.856C159.308 225.578 159.553 225.005 159.333 224.288C159.11 223.571 158.586 223.236 157.681 223.515L156.444 223.895L157.165 226.237L158.403 225.856Z" fill="white"/>
<path d="M171.586 224.799L168.235 226.241L168.38 228.059L166.091 229.045L165.474 218.669L168.005 217.579L175.119 225.157L172.805 226.152L171.584 224.799H171.586ZM167.769 220.547L168.085 224.306L170.297 223.352L167.769 220.545V220.547Z" fill="white"/>
<path d="M176.544 213.235C178.627 212.056 180.348 212.663 181.185 214.142C181.788 215.208 181.777 216.542 180.688 217.671L184.557 219.926L182.22 221.25L178.633 219.042L178.136 219.324L179.955 222.534L177.884 223.708L173.066 215.206L176.542 213.235H176.544ZM177.397 215.024L176.113 215.751L177.308 217.859L178.592 217.132C179.367 216.693 179.505 216.087 179.126 215.42C178.768 214.79 178.172 214.585 177.397 215.024Z" fill="white"/>
<path d="M181.34 210.397L187.52 206.041L188.618 207.599L186.501 209.092L191.033 215.521L189.088 216.892L184.555 210.463L182.438 211.956L181.34 210.397Z" fill="white"/>
<path d="M188.688 205.178L190.73 203.411L194.841 205.267L193.584 200.941L195.604 199.191L197.329 206.354L199.443 208.796L197.642 210.354L195.529 207.912L188.688 205.178Z" fill="white"/>
<path d="M199.92 194.903L201.718 192.741L208.674 194.957L205.207 188.545L206.995 186.393L214.51 192.64L212.988 194.471L208.48 190.726L211.59 196.154L210.362 197.631L204.439 195.568L208.956 199.323L207.434 201.154L199.92 194.906V194.903Z" fill="white"/>
<path d="M208.457 184.238L209.741 182.233L214.666 185.385C215.639 186.007 216.511 185.888 217.118 184.938C217.725 183.989 217.485 183.124 216.513 182.502L211.588 179.35L212.872 177.345L217.785 180.489C220.059 181.945 220.166 184.259 218.949 186.16C217.725 188.071 215.647 188.84 213.373 187.384L208.459 184.24L208.457 184.238Z" fill="white"/>
<path d="M224.572 176.274C223.629 178.153 221.958 179.153 220.16 178.327L221.297 176.063C222.001 176.338 222.536 176.079 222.836 175.481C223.149 174.858 223.037 174.305 222.526 174.048C220.91 173.236 219.587 178.041 216.501 176.459C214.846 175.628 214.606 173.81 215.525 171.981C216.48 170.078 218.069 169.27 219.781 170.02L218.624 172.321C218.046 172.078 217.511 172.308 217.211 172.873C216.942 173.377 217.01 173.893 217.557 174.168C219.075 174.93 220.56 170.27 223.484 171.737C224.951 172.474 225.597 174.232 224.572 176.272V176.274Z" fill="white"/>
<path d="M218.327 166.286L219.23 164.084L228.273 167.791L227.37 169.993L218.327 166.286Z" fill="white"/>
<path d="M221.546 157.167C222.238 154.947 224.012 153.664 226.197 153.762L225.417 156.26C224.499 156.398 223.882 156.978 223.611 157.84C223.176 159.236 223.913 160.516 225.562 161.031C227.21 161.545 228.546 160.913 228.981 159.517C229.25 158.652 229.072 157.825 228.395 157.19L229.174 154.692C231.029 155.854 231.742 157.914 231.048 160.134C230.19 162.885 227.629 164.215 224.839 163.343C222.049 162.471 220.688 159.919 221.546 157.167Z" fill="white"/>
<path d="M234.968 126.066C235.213 128.002 235.453 129.907 235.73 132.078C233.837 131.092 232.16 130.216 230.42 129.309C228.708 130.206 227.024 131.088 225.116 132.088C225.388 129.939 225.63 128.039 225.881 126.059C224.601 124.705 223.306 123.334 221.858 121.803C223.869 121.42 225.706 121.07 227.606 120.708C228.509 119.024 229.414 117.336 230.429 115.445C231.269 117.023 232.054 118.407 232.746 119.836C233.063 120.49 233.465 120.801 234.187 120.909C235.731 121.141 237.263 121.472 238.984 121.797C237.561 123.309 236.269 124.682 234.968 126.066Z" fill="white"/>
<path d="M26.7811 115.445C27.7827 117.324 28.6741 118.997 29.5887 120.71C31.4508 121.062 33.3033 121.414 35.3394 121.799C33.924 123.301 32.6323 124.674 31.3174 126.07C31.563 127.988 31.8066 129.893 32.087 132.084C30.1959 131.096 28.5233 130.22 26.7888 129.313C25.0756 130.202 23.3856 131.082 21.4848 132.068C21.7478 129.924 21.9837 127.992 22.2234 126.051C20.9182 124.668 19.642 123.317 18.2169 121.805C20.2318 121.42 22.0707 121.068 23.9637 120.706C24.8803 118.997 25.7949 117.29 26.7849 115.445H26.7811Z" fill="white"/>
<path d="M206.091 47.2583C207.21 48.521 208.25 49.6212 209.186 50.8046C209.403 51.0792 209.366 51.6554 209.279 52.0557C208.469 55.7335 207.62 59.4036 206.787 63.0775C206.709 63.414 206.657 63.7562 206.541 64.3614C209.389 61.9405 212.05 59.682 214.827 57.321C216.082 58.7326 217.304 60.1093 218.599 61.5673C213.216 66.299 207.91 70.9629 202.538 75.683C201.498 74.4899 200.5 73.3993 199.582 72.2449C199.394 72.009 199.418 71.516 199.493 71.1737C200.367 67.2116 201.272 63.2573 202.165 59.3011C202.227 59.0246 202.268 58.7442 202.15 58.3227C199.369 60.701 196.587 63.0814 193.771 65.4888C192.588 64.1217 191.36 62.7024 190.068 61.2115C195.392 56.5746 200.692 51.9609 206.091 47.2583Z" fill="white"/>
<path d="M83.5724 24.8282C85.4519 23.9928 87.1767 23.2232 89.0098 22.4092C91.8949 28.8328 94.7489 35.1925 97.6475 41.6451C95.8743 42.5211 94.1398 43.3777 92.2971 44.2884C91.162 41.7612 90.0637 39.317 88.9228 36.7743C86.9892 37.6193 85.1464 38.4256 83.1896 39.2803C84.2705 41.7824 85.3224 44.2188 86.4381 46.7983C84.6649 47.5815 82.915 48.353 81.0181 49.1903C78.1389 42.7531 75.2829 36.3663 72.3514 29.8073C74.1671 29.001 75.9364 28.2159 77.7966 27.3903C78.8485 29.7319 79.8579 31.9846 80.9233 34.3553C82.8589 33.5006 84.721 32.6788 86.6759 31.8183C85.626 29.4535 84.6263 27.2008 83.5743 24.8282H83.5724Z" fill="white"/>
<path d="M230.375 82.979C231.025 84.6013 231.725 86.3552 232.442 88.1457C226.949 93.4207 221.51 98.6454 215.892 104.04C215.026 101.94 214.218 99.9816 213.388 97.9725C214.343 97.1449 215.237 96.3734 216.18 95.5555C215.25 93.2912 214.338 91.0675 213.394 88.7742C212.207 88.8283 211.058 88.8786 209.765 88.9366C209.01 87.0358 208.247 85.1138 207.4 82.9809H230.375V82.979ZM219.966 92.5293C221.68 91.0269 223.227 89.6694 224.774 88.3139C224.733 88.2366 224.694 88.1612 224.654 88.0838C222.567 88.1825 220.479 88.283 218.261 88.3894C218.86 89.8415 219.381 91.1061 219.968 92.5293H219.966Z" fill="white"/>
<path d="M177.817 51.9051C178.031 50.7719 178.246 49.6446 178.476 48.4342C176.326 47.214 174.207 46.0113 172.039 44.7815C171.095 45.5704 170.188 46.3265 169.251 47.1096C167.445 46.0828 165.693 45.087 163.676 43.9403C169.761 39.141 175.686 34.4693 181.701 29.7261C183.331 30.6716 184.963 31.6191 186.669 32.6091C185.59 40.1485 184.515 47.6472 183.417 55.3199C181.493 54.1462 179.725 53.0691 177.817 51.907V51.9051ZM180.721 37.3621C180.648 37.3137 180.576 37.2673 180.503 37.219C178.911 38.5629 177.318 39.9048 175.651 41.3106C177.026 42.144 178.238 42.8749 179.547 43.6677C179.951 41.4923 180.336 39.4272 180.719 37.3621H180.721Z" fill="white"/>
<path d="M128.598 36.3545C126.387 36.6252 124.326 36.8785 122.199 37.1376C121.656 36.0702 121.132 35.0454 120.561 33.9258C118.123 34.2197 115.677 34.5136 113.194 34.8133C112.923 36.0025 112.666 37.1221 112.395 38.3094C110.334 38.5588 108.314 38.8025 106.148 39.0635C108.074 31.5745 109.951 24.2711 111.844 16.9116C113.786 16.6815 115.658 16.4572 117.566 16.231C121.25 22.9504 124.889 29.5906 128.596 36.3545H128.598ZM118.581 29.4919C117.539 27.4423 116.593 25.5821 115.648 23.7219C115.572 23.7432 115.497 23.7625 115.422 23.7838C114.979 25.8257 114.534 27.8657 114.058 30.0527C115.642 29.8574 117.027 29.6853 118.581 29.4919Z" fill="white"/>
<path d="M48.9505 59.6201C50.2789 60.6411 51.4951 61.5751 52.7404 62.5322C51.3037 64.4717 49.9347 66.3202 48.5251 68.2249C49.3256 68.8475 50.0816 69.4334 50.946 70.1063C52.6031 67.9484 54.2158 65.8484 55.9174 63.6344C57.2362 64.7521 58.5162 65.8368 59.8891 67.0009C57.0602 70.6168 54.2564 74.2037 51.354 77.9144C45.7116 73.5096 40.133 69.155 34.4674 64.7308C37.4085 61.0356 40.2026 57.5241 42.9697 54.0474C44.2904 55.0645 45.6014 56.0758 46.9994 57.1547C45.4138 59.158 43.8669 61.111 42.2465 63.1568C43.0528 63.7775 43.7818 64.3383 44.6249 64.986C46.0616 63.2032 47.4635 61.4629 48.9485 59.6201H48.9505Z" fill="white"/>
<path d="M155.284 19.2786C157.38 19.7542 159.497 20.2338 161.899 20.7771C157.567 27.1814 153.36 33.4039 149.079 39.7347C147.288 39.3305 145.515 38.9283 143.67 38.5107C142.572 31.01 141.481 23.5655 140.36 15.9082C142.609 16.411 144.718 16.8828 146.925 17.3778C147.333 21.8967 147.735 26.3654 148.139 30.8321C148.222 30.8592 148.305 30.8863 148.388 30.9133C150.668 27.0673 152.948 23.2213 155.284 19.2786Z" fill="white"/>
<path d="M41.2583 98.4056C34.6936 95.7875 28.1656 93.1867 21.5293 90.5415C22.2602 88.6542 22.9641 86.8405 23.7259 84.874C28.6239 86.9024 33.4483 88.8998 38.4429 90.9669C39.3962 88.5827 40.3205 86.2739 41.2893 83.8491C42.987 84.522 44.6113 85.1659 46.3651 85.8601C44.6268 90.1316 42.9329 94.2889 41.2564 98.4056H41.2583Z" fill="white"/>
<path d="M128 256C110.721 256 93.9581 252.616 78.1756 245.941C62.9326 239.494 49.2443 230.265 37.4896 218.51C25.735 206.756 16.5056 193.067 10.0589 177.824C3.38389 162.042 0 145.279 0 128C0 110.721 3.38389 93.9581 10.0589 78.1756C16.5056 62.9326 25.735 49.2443 37.4896 37.4896C49.2443 25.735 62.9326 16.5056 78.1756 10.0589C93.9581 3.38389 110.721 0 128 0C145.279 0 162.042 3.38389 177.824 10.0589C193.067 16.5056 206.756 25.735 218.51 37.4896C230.265 49.2443 239.494 62.9326 245.941 78.1756C252.616 93.9581 256 110.721 256 128C256 145.279 252.616 162.042 245.941 177.824C239.494 193.067 230.265 206.756 218.51 218.51C206.756 230.265 193.067 239.494 177.824 245.941C162.042 252.616 145.279 256 128 256ZM128 3.48057C111.189 3.48057 94.8823 6.77165 79.5311 13.2648C64.7038 19.5357 51.3868 28.5156 39.9512 39.9512C28.5156 51.3868 19.5357 64.7038 13.2648 79.5311C6.77165 94.8823 3.48057 111.189 3.48057 128C3.48057 144.811 6.77165 161.118 13.2648 176.469C19.5357 191.296 28.5156 204.613 39.9512 216.049C51.3868 227.484 64.7038 236.464 79.5311 242.735C94.8804 249.228 111.189 252.519 128 252.519C144.811 252.519 161.118 249.226 176.469 242.735C191.296 236.464 204.613 227.484 216.049 216.049C227.484 204.613 236.464 191.296 242.735 176.469C249.228 161.12 252.519 144.811 252.519 128C252.519 111.189 249.226 94.8823 242.735 79.5311C236.464 64.7038 227.484 51.3868 216.049 39.9512C204.613 28.5156 191.296 19.5357 176.469 13.2648C161.12 6.77165 144.811 3.48057 128 3.48057Z" fill="#43919E"/>
<path d="M128 207.947C172.153 207.947 207.947 172.153 207.947 128C207.947 83.8466 172.153 48.0532 128 48.0532C83.8466 48.0532 48.0532 83.8466 48.0532 128C48.0532 172.153 83.8466 207.947 128 207.947Z" fill="#43919E"/>
<path d="M176.684 133.102C176.796 137.767 176.887 142.435 177.043 147.101C177.072 148 176.521 147.998 175.958 148.068C172.532 148.484 169.284 147.832 166.219 146.31C163.376 144.899 160.607 143.338 157.747 141.965C156.446 141.341 154.974 141.099 153.518 141.074C152.741 141.06 152.695 140.819 152.863 140.157C155.255 130.771 157.633 121.382 159.988 111.986C160.162 111.292 160.389 111.205 161.031 111.481C165.847 113.554 170.676 115.608 175.516 117.626C176.158 117.893 176.378 118.247 176.39 118.91C176.459 123.224 176.56 127.536 176.647 131.85C176.655 132.268 176.647 132.686 176.647 133.103C176.658 133.103 176.67 133.103 176.682 133.103L176.684 133.102Z" fill="#FEFEFE"/>
<path d="M183.051 120.854C189.287 123.458 195.301 125.968 201.425 128.526C200.856 129.661 200.181 130.667 199.568 131.688C197.828 134.582 195.972 137.406 194.17 140.262C193.92 140.656 193.667 140.979 193.135 141C189.842 141.124 187.056 142.621 184.333 144.284C184.146 144.398 183.95 144.502 183.567 144.719C183.395 136.738 183.225 128.896 183.053 120.854H183.051Z" fill="#FEFEFE"/>
<path d="M181.197 118.268C180.147 117.827 179.269 117.443 178.376 117.089C177.873 116.89 177.993 116.478 177.991 116.112C177.985 112.152 177.987 108.19 177.987 104.23C177.987 102.942 177.995 101.654 177.985 100.366C177.971 98.5392 177.014 97.5685 175.216 97.5646C172.478 97.5588 169.74 97.5356 167.004 97.582C166.257 97.5956 166.023 97.3655 166.112 96.6539C166.213 95.8669 165.768 94.8517 166.292 94.3393C166.77 93.8733 167.766 94.2078 168.531 94.2039C171.397 94.1885 174.265 94.1846 177.13 94.2001C179.696 94.2136 181.195 95.7393 181.197 98.3052C181.197 104.617 181.197 110.928 181.197 117.241C181.197 117.528 181.197 117.814 181.197 118.27V118.268Z" fill="#FEFEFE"/>
<path d="M192.298 142.978C192.097 144.125 191.377 144.848 190.873 145.666C188.365 149.723 185.814 153.751 183.277 157.788C182.117 159.633 180.911 161.451 179.799 163.324C177.596 167.039 175.175 170.616 172.925 174.302C172.255 175.396 171.614 176.506 170.95 177.604C170.544 178.277 170.099 178.459 169.37 178.148C167.129 177.19 164.817 176.378 162.636 175.303C158.322 173.178 153.814 171.527 149.398 169.653C148.483 169.264 147.607 168.787 146.652 168.487C146.122 168.321 145.888 167.973 146.043 167.375C146.84 164.297 147.621 161.215 148.394 158.132C149.098 155.331 149.781 152.525 150.483 149.723C151.005 147.637 151.552 145.556 152.074 143.47C152.248 142.773 152.77 142.814 153.294 142.845C155.545 142.984 157.61 143.752 159.607 144.738C161.93 145.887 164.117 147.29 166.53 148.275C172.023 150.516 177.355 150.423 182.537 147.362C184.437 146.239 186.232 144.927 188.258 144.021C189.515 143.458 190.824 143.077 192.3 142.978H192.298Z" fill="#DB1379"/>
<path d="M181.744 136.185C181.897 139.27 181.727 142.361 181.961 145.446C182.019 146.204 181.872 146.828 180.938 147.01C180.412 147.112 179.926 147.412 179.418 147.613C178.89 147.822 178.668 147.654 178.658 147.066C178.613 144.624 178.565 142.18 178.47 139.739C178.306 135.559 178.337 131.374 178.246 127.194C178.192 124.721 178.064 122.25 177.977 119.776C177.944 118.817 178.06 118.742 178.956 119.076C179.076 119.121 179.19 119.191 179.313 119.218C181.177 119.614 181.493 120.836 181.481 122.586C181.45 127.118 181.64 131.653 181.74 136.187L181.744 136.185Z" fill="#DB1379"/>
<path d="M137.291 141.426C140.244 147.735 137.711 155.779 131.666 159.455C125.33 163.307 116.856 161.905 112.562 156.282C112.674 155.893 113.063 155.818 113.347 155.648C116.079 154.014 118.827 152.407 121.555 150.769C122.054 150.469 122.487 150.381 123.085 150.543C124.895 151.036 126.753 149.99 127.227 148.168C127.41 147.459 127.778 147.095 128.358 146.759C130.75 145.37 133.113 143.932 135.508 142.549C136.11 142.203 136.502 141.54 137.291 141.426Z" fill="#FEFEFE"/>
<path d="M124.274 201.738C119.289 201.755 114.737 201.179 110.259 200.04C109.849 199.936 109.089 200.116 109.365 199.103C109.607 198.223 110.025 198.383 110.624 198.534C119.538 200.769 128.456 200.762 137.363 198.501C138.95 198.099 140.567 197.697 142.05 197.028C143.622 196.318 145.26 195.75 146.778 194.922C147.379 194.595 147.729 194.651 148.008 195.349C148.197 195.823 148.125 195.978 147.702 196.235C145.268 197.71 142.595 198.604 139.9 199.416C134.692 200.986 129.359 201.755 124.276 201.736L124.274 201.738Z" fill="#FEFEFE"/>
<path d="M124.258 197.827C120.687 197.904 117.578 197.633 114.517 196.995C113.341 196.75 112.192 196.334 111.011 196.071C110.551 195.968 110.239 195.833 110.485 195.24C110.673 194.785 110.667 194.338 111.421 194.547C114.312 195.344 117.268 195.804 120.258 196.017C128.87 196.628 137.104 195.133 144.949 191.519C145.739 191.154 146.144 191.364 146.347 192.227C146.464 192.726 146.043 192.722 145.788 192.842C143.487 193.928 141.112 194.824 138.678 195.562C133.832 197.034 128.922 198.065 124.258 197.827Z" fill="#FEFEFE"/>
<path d="M123.659 192.629C120.18 192.665 116.421 192.211 112.726 191.263C112.353 191.167 111.674 191.331 111.916 190.447C112.111 189.732 112.382 189.659 113.059 189.821C123.263 192.3 133.161 191.405 142.713 187.019C143.489 186.663 143.634 187.079 143.908 187.566C144.293 188.249 143.647 188.255 143.346 188.394C137.204 191.205 130.761 192.654 123.661 192.629H123.659Z" fill="#FEFEFE"/>
<path d="M124.916 187.52C120.706 187.537 117.425 187.131 114.188 186.368C113.285 186.155 113.045 185.437 113.604 184.68C113.784 184.436 113.985 184.517 114.203 184.573C116.357 185.136 118.575 185.327 120.755 185.716C122.423 186.014 124.082 186.101 125.712 185.917C130.724 185.352 135.686 184.478 140.271 182.224C141.04 181.845 141.18 182.22 141.476 182.717C141.887 183.405 141.303 183.465 140.936 183.637C139.364 184.38 137.684 184.859 136.085 185.521C132.21 187.128 128.126 187.323 124.914 187.518L124.916 187.52Z" fill="#FEFEFE"/>
<path d="M123.601 181.812C121.124 181.841 118.349 181.512 115.617 180.843C115.3 180.766 114.77 180.857 114.954 180.18C115.11 179.604 115.375 179.55 115.924 179.677C123.477 181.449 130.815 180.791 137.916 177.641C138.401 177.427 138.693 177.347 138.964 177.945C139.293 178.668 138.666 178.622 138.366 178.755C133.78 180.81 128.973 181.843 123.603 181.812H123.601Z" fill="#FEFEFE"/>
<path d="M114.126 179.513C114.099 180.159 113.782 180.362 113.086 180.138C109.661 179.039 106.407 177.547 103.574 175.338C100.565 172.993 97.7383 170.421 95.5591 167.232C95.3561 166.935 94.8669 166.652 95.4856 166.225C96.0232 165.852 96.2494 166.094 96.553 166.517C98.8019 169.657 101.611 172.208 104.688 174.536C107.366 176.562 110.336 177.893 113.449 179.008C113.708 179.101 114.14 179.035 114.128 179.513H114.126Z" fill="#FEFEFE"/>
<path d="M123.852 178.298C121.4 178.32 118.976 178.068 116.59 177.49C116.218 177.401 115.795 177.424 115.971 176.796C116.127 176.235 116.354 176.135 116.93 176.27C122.779 177.639 128.547 177.318 134.217 175.321C134.961 175.058 135.586 174.549 136.328 174.259C136.827 174.064 137.084 174.095 137.297 174.596C137.512 175.104 137.434 175.361 136.875 175.611C133.279 177.218 129.516 178.097 125.589 178.295C125.013 178.324 124.432 178.298 123.854 178.298H123.852Z" fill="#FEFEFE"/>
<path d="M124.044 174.487C121.87 174.427 119.85 174.261 117.873 173.78C117.55 173.7 116.856 173.897 117.034 173.068C117.199 172.298 117.684 172.532 118.129 172.633C122.586 173.629 127.006 173.474 131.392 172.219C132.443 171.917 133.47 171.542 134.474 171.105C134.915 170.912 135.33 170.626 135.605 171.364C135.86 172.053 135.294 172.047 134.975 172.186C131.931 173.493 128.756 174.249 125.444 174.416C124.929 174.441 124.417 174.472 124.044 174.491V174.487Z" fill="#FEFEFE"/>
<path d="M123.765 170.908C122.156 170.879 120.372 170.699 118.608 170.305C118.225 170.22 117.935 170.164 118.075 169.632C118.202 169.151 118.399 169.038 118.887 169.147C123.74 170.218 128.464 169.793 133.031 167.822C133.509 167.615 133.696 167.764 133.917 168.176C134.238 168.779 133.749 168.824 133.43 168.959C130.405 170.247 127.242 170.873 123.763 170.908H123.765Z" fill="#FEFEFE"/>
<path d="M123.819 166.235C122.636 166.202 121.356 166.119 120.097 165.83C119.753 165.751 119.254 165.821 119.409 165.183C119.542 164.628 119.91 164.722 120.31 164.804C123.396 165.44 126.434 165.243 129.446 164.338C129.98 164.177 130.363 163.806 130.862 163.611C131.295 163.442 131.531 163.406 131.738 163.934C131.935 164.438 131.771 164.587 131.341 164.765C128.963 165.743 126.486 166.198 123.821 166.237L123.819 166.235Z" fill="#FEFEFE"/>
<path d="M148.986 171.08C148.394 171.864 147.781 172.38 147.178 172.904C145.122 174.685 143.065 176.456 140.604 177.69C140.062 177.96 139.801 177.871 139.55 177.374C139.401 177.081 139.441 176.926 139.737 176.767C142.642 175.216 145.138 173.118 147.543 170.904C148.083 170.408 148.394 171.034 148.986 171.08Z" fill="#FEFEFE"/>
<path d="M123.533 164.154C122.752 164.332 121.673 163.854 120.557 163.616C120.213 163.543 119.855 163.533 120.022 162.969C120.155 162.518 120.331 162.441 120.772 162.53C122.097 162.798 123.437 162.92 124.792 162.837C126.536 162.731 128.23 162.383 129.841 161.712C130.357 161.497 130.601 161.592 130.8 162.073C131.042 162.653 130.531 162.646 130.259 162.742C128.209 163.465 126.14 164.111 123.533 164.154Z" fill="#FEFEFE"/>
<path d="M125.316 63.0895C127.544 60.8619 129.18 58.2844 129.839 55.0049C131.365 56.2308 132.051 57.7526 132.148 59.5625C132.235 61.2042 131.778 62.7472 131.202 64.2613C131.1 64.532 131.003 64.8027 130.914 65.0773C130.783 65.4853 130.844 65.7328 131.359 65.7792C139.285 66.4927 144.78 71.0175 149.205 77.2032C149.841 78.0927 150.409 79.0324 151.03 79.9335C151.33 80.3686 151.407 80.6896 150.881 81.0376C150.071 81.5733 149.624 82.4028 149.28 83.2845C149.081 83.795 148.882 84.3074 148.731 84.8334C148.22 86.6085 147.259 88.0645 145.867 89.2963C143.324 91.5451 140.638 93.5638 137.628 95.1649C135.965 96.0486 134.905 97.5046 134.561 99.3977C134.168 101.559 135.47 103.412 137.75 103.957C139.656 104.414 141.53 104.205 143.367 103.605C145.169 103.017 147.006 102.611 148.858 102.368C149.069 102.704 148.895 102.932 148.8 103.153C148.176 104.605 148.251 106.046 148.901 107.459C149.303 108.333 149.738 109.194 150.208 110.031C151.585 112.485 153.919 113.593 156.452 114.409C157.54 114.761 157.542 114.764 157.264 115.859C156.179 120.134 155.085 124.406 154.013 128.685C153.896 129.158 153.665 129.45 153.252 129.719C148.093 133.061 142.684 135.977 137.427 139.15C136.709 139.583 136.174 139.542 135.503 139.099C134.008 138.109 133.107 136.793 132.968 134.987C132.778 132.533 133.393 130.199 133.998 127.857C134.513 125.865 135.077 123.88 135.027 121.784C134.961 119.165 133.791 117.489 131.322 116.599C129.882 116.081 128.371 115.967 126.859 115.859C125.125 115.735 123.39 115.625 121.77 114.877C119.297 113.736 118.299 111.564 117.682 109.118C117.601 108.795 117.767 108.594 118.032 108.401C121.814 105.649 122.812 101.757 122.352 97.3789C121.95 93.5561 120.196 90.3791 117.435 87.6778C115.226 85.516 112.678 84.3461 109.607 84.3074C109.035 84.2997 108.915 83.9884 108.843 83.532C108.445 80.9854 108.903 78.5297 109.609 76.101C110.05 74.5831 110.684 73.1425 111.322 71.7C111.686 70.8782 112.221 70.3561 113.01 69.9578C114.65 69.1302 116.189 68.1363 117.64 66.9955C118.755 66.1195 119.536 65.0019 120.209 63.7914C120.991 62.3856 120.817 60.9373 120.329 59.489C119.927 58.2921 119.289 57.2054 118.751 56.0723C118.34 55.2041 118.45 55.0571 119.39 55.1364C120.807 55.2543 122.203 55.4593 123.529 56.0123C124.755 56.5247 125.747 57.3001 126.428 58.4584C126.71 58.9379 126.786 59.3943 126.527 59.9164C126.03 60.9199 125.568 61.939 125.09 62.9522C125.165 63.0025 125.243 63.0508 125.318 63.1011L125.316 63.0895ZM147.712 82.8379C146.722 82.5246 145.886 82.4917 145.051 82.5111C144.709 82.5188 144.529 82.4531 144.483 82.0586C144.049 78.3557 141.735 76.1262 138.498 74.7861C135.11 73.3842 131.993 74.6411 130.518 77.851C129.766 79.4907 129.474 81.2387 129.709 83.0274C130.127 86.1908 131.713 88.6814 134.302 90.5125C134.87 90.9147 134.969 91.2879 134.702 91.8777C134.35 92.655 134.035 93.4478 133.704 94.2348C133.764 94.2754 133.822 94.316 133.882 94.3586C135.847 92.1117 137.956 90.0214 140.169 88.0201C142.419 85.9839 144.923 84.3558 147.714 82.8379H147.712Z" fill="#F1BC04"/>
<path d="M78.6262 173.928C77.0406 174.878 77.408 174.901 76.1124 173.6C73.8694 171.347 72.0131 168.808 70.412 166.072C70.2554 165.805 69.9963 165.565 70.1027 165.022C73.6586 165.49 77.874 166.145 81.4822 164.678C80.6623 164.711 79.2314 164.643 78.4599 164.521C74.6177 163.912 70.9419 162.866 67.8248 160.385C66.3939 159.246 65.2531 157.867 64.4216 156.235C64.2476 155.893 64.06 155.553 64.0832 155.133C64.613 154.816 65.0887 155.141 65.5528 155.28C67.9331 155.994 70.3173 156.672 72.8368 156.585C73.3686 156.568 73.9177 156.616 74.6255 156.315C73.4981 155.984 72.5507 155.737 71.6206 155.427C68.0781 154.253 65.1312 152.314 63.3677 148.893C62.2288 146.683 62.0335 144.345 62.486 141.934C62.72 140.685 62.9365 140.492 64.1702 140.72C66.2121 141.097 68.2212 141.584 70.2051 142.251C72.9761 143.181 75.834 143.86 78.6707 144.591C79.4673 144.796 79.9643 145.119 80.1808 145.966C80.788 148.36 81.7297 150.614 83.381 152.496C86.7379 156.321 91.0054 158.324 96.0581 158.622C99.616 158.83 103.039 158.078 106.386 156.926C106.533 156.875 107.737 156.471 108.321 156.125C107.215 156.38 105.33 156.725 104.63 156.814C100.819 157.301 96.9823 157.78 93.1924 156.91C87.8458 155.682 83.9785 152.623 82.1783 147.285C81.9463 146.598 81.7316 145.883 81.8283 145.045C87.521 146.01 93.1847 147.024 98.9682 146.96C100.797 146.94 103.199 146.809 105.084 146.283C104.421 146.242 103.833 146.18 103.557 146.151C97.5972 145.535 91.6377 144.902 85.8252 143.382C81.1805 142.168 76.8492 140.233 73.1617 137.096C70.9593 135.222 69.8358 132.738 69.5825 129.708C71.2242 130.104 72.8136 130.346 74.2929 130.885C75.9075 131.473 77.5762 131.757 79.2314 132.094C84.6882 133.206 90.1275 134.434 95.6597 135.147C101.728 135.928 108.517 136.288 115.308 134.755C114.18 134.84 112.819 134.83 112.56 134.83C105.162 134.811 98.392 133.958 91.1176 132.678C89.182 132.337 87.2309 132.015 85.365 131.419C81.2192 130.092 77.176 128.538 74.086 125.241C71.5258 122.509 70.6421 119.202 70.6441 115.578C70.6441 114.842 71.1081 115.157 71.4233 115.346C73.0244 116.307 74.639 117.245 76.3097 118.084C85.9045 122.909 95.9362 123.961 106.366 121.584C107.308 121.37 108.256 121.165 109.172 120.865C111.502 120.103 113.474 120.716 115.221 122.321C116.224 123.243 116.978 124.355 117.645 125.533C117.785 125.777 117.856 126.072 118.218 126.264C117.903 123.628 116.793 121.501 114.826 119.802C113.128 118.332 111.137 117.342 109.188 116.278C106.981 115.072 104.788 113.846 103.064 111.955C101.153 109.859 100.072 107.283 99.1674 104.684C96.4738 96.9516 97.0094 89.364 100.604 82.0006C100.797 81.6042 100.948 81.1692 101.325 80.8501C101.59 81.3683 101.61 81.9213 101.702 82.455C101.902 83.5998 102.124 84.7425 102.611 85.8002C103.004 86.6549 102.915 87.4419 102.404 88.1709C100.384 91.0598 100.012 94.2832 100.411 97.6748C100.5 98.4309 101.122 101.148 102.315 102.998C103.677 105.543 105.508 106.947 106.399 107.6C108.385 109.058 110.501 110.257 113.097 110.143C113.484 110.126 113.869 110.093 114.254 110.077C114.789 110.056 115.389 109.557 115.808 109.913C116.145 110.199 116.184 110.841 116.338 111.33C117.491 114.975 120.022 116.963 123.76 117.458C125.131 117.64 126.513 117.744 127.892 117.851C128.667 117.91 129.423 118.034 130.166 118.264C132.262 118.912 133.182 120.237 133.093 122.453C133.006 124.601 132.3 126.618 131.807 128.681C131.336 130.655 130.891 132.633 130.922 134.681C130.955 136.825 131.695 138.631 133.407 140C134.317 140.729 134.263 140.882 133.238 141.555C127.271 145.479 120.998 148.893 114.874 152.554C108.741 156.222 102.478 159.677 96.3984 163.432C90.5413 167.052 84.5258 170.392 78.6223 173.926L78.6262 173.928Z" fill="#F1BC04"/>
<path d="M162.125 102.206C160.866 102.269 159.909 101.73 158.902 101.48C154.462 100.376 150.042 100.384 145.616 101.496C144.152 101.863 142.706 102.308 141.238 102.66C140.054 102.944 138.875 102.834 137.715 102.451C136.338 101.997 135.675 100.837 136.038 99.4288C136.394 98.0559 137.173 96.975 138.434 96.3195C142.038 94.4497 145.181 91.9669 148.058 89.1283C148.615 88.5791 148.918 87.8598 149.293 87.1888C149.963 85.9919 150.49 84.7505 150.9 83.4337C151.322 82.0898 151.558 82.0124 152.913 82.0202C156.545 82.0414 160.075 81.326 163.601 80.5603C165.548 80.1368 167.503 79.7385 169.456 79.3343C170.121 79.197 170.798 79.1468 171.474 79.1816C171.902 79.2028 172.472 79.0288 172.65 79.5838C172.805 80.0691 172.374 80.4017 172.06 80.7208C171.177 81.6238 170.127 82.3179 169.081 83.0044C167.197 84.2419 165.204 85.2996 163.303 86.5004C158.086 89.8012 152.414 92.2763 147.172 95.5248C145.26 96.7101 143.378 97.9341 141.808 99.57C141.472 99.92 141.012 100.233 141.116 100.813C141.35 100.982 141.54 100.904 141.702 100.811C143.23 99.9393 144.84 99.2084 146.209 98.0656C146.76 97.6054 147.495 97.6866 148.158 97.6827C150.123 97.6731 152.088 97.7253 154.05 97.7195C154.541 97.7195 155.261 97.9805 155.471 97.499C155.692 96.9963 154.946 96.7217 154.648 96.3311C154.201 95.7472 153.557 95.3198 153.279 94.6024C153.186 94.3627 153.07 94.0765 153.368 93.9199C153.621 93.7884 153.766 94.0455 153.909 94.208C154.655 95.0607 155.551 95.7452 156.421 96.4568C158.136 97.8606 159.716 99.4114 161.301 100.956C161.615 101.262 161.918 101.595 162.119 102.202L162.125 102.206ZM153.395 84.7079C152.548 84.5803 151.929 85.0328 151.237 85.0927C150.953 85.1179 150.924 85.3809 150.954 85.6148C151.02 86.1214 151.094 86.6261 151.179 87.1308C151.256 87.591 151.591 87.6974 151.838 87.3725C152.443 86.5797 153.205 85.8604 153.397 84.7099L153.395 84.7079Z" fill="#FF6600"/>
<path d="M153.395 84.7081C153.203 85.8586 152.441 86.5799 151.836 87.3707C151.589 87.6956 151.254 87.5892 151.177 87.129C151.094 86.6243 151.02 86.1197 150.953 85.6131C150.922 85.3791 150.953 85.1161 151.235 85.091C151.927 85.031 152.546 84.5785 153.393 84.7062L153.395 84.7081Z" fill="#010202"/>
<path d="M147.712 82.838C144.921 84.356 142.417 85.9841 140.167 88.0202C137.956 90.0216 135.845 92.1118 133.88 94.3587C133.82 94.3181 133.762 94.2775 133.702 94.235C134.033 93.448 134.348 92.6552 134.7 91.8779C134.967 91.2881 134.868 90.9149 134.3 90.5127C131.709 88.6815 130.123 86.191 129.707 83.0275C129.471 81.2389 129.763 79.4909 130.516 77.8511C131.991 74.6413 135.108 73.3844 138.496 74.7863C141.733 76.1263 144.047 78.3558 144.481 82.0588C144.527 82.4532 144.707 82.519 145.049 82.5112C145.886 82.4919 146.722 82.5248 147.71 82.838H147.712ZM141.787 79.0017C142.085 79.1718 142.067 78.8702 141.882 78.6517C141.029 77.71 140.043 76.9597 138.84 76.5131C136.357 75.5888 133.929 76.3622 132.873 78.5318C130.897 82.5963 132.757 86.2529 135.592 88.4998C135.996 88.8208 136.276 88.7067 136.56 88.347C137.131 87.6219 137.664 86.8562 138.308 86.2007C138.788 85.7114 138.722 85.4504 138.277 84.9902C136.914 83.5825 136.601 81.9195 137.341 80.1C137.908 78.7078 139.331 78.0658 140.756 78.5318C141.114 78.6478 141.445 78.845 141.787 79.0036V79.0017ZM140.43 82.693C140.439 83.0971 140.662 83.5013 141.056 83.7372C141.425 83.9596 141.578 83.4916 141.833 83.3447C142.083 83.2016 142.317 83.0333 142.553 82.867C142.796 82.693 143.216 82.664 143.166 82.2309C143.117 81.8151 142.839 81.5386 142.485 81.3569C141.547 80.8754 140.451 81.5502 140.431 82.693H140.43Z" fill="#010202"/>
<path d="M141.787 79.0017C141.445 78.8431 141.112 78.6459 140.756 78.5299C139.333 78.0658 137.91 78.7059 137.341 80.0981C136.601 81.9176 136.914 83.5806 138.277 84.9883C138.722 85.4485 138.788 85.7095 138.308 86.1988C137.664 86.8543 137.131 87.62 136.56 88.3451C136.278 88.7048 135.998 88.8189 135.592 88.4979C132.757 86.251 130.897 82.5964 132.873 78.5299C133.929 76.3603 136.355 75.5869 138.84 76.5112C140.043 76.9578 141.029 77.7081 141.882 78.6498C142.123 78.9572 142.044 79.1448 141.787 78.9998V79.0017Z" fill="#FEFEFE"/>
<path d="M140.43 82.6931C140.449 81.5503 141.543 80.8755 142.483 81.3569C142.837 81.5387 143.115 81.8152 143.164 82.231C143.214 82.6641 142.796 82.6931 142.551 82.8671C142.317 83.0334 142.081 83.2016 141.831 83.3447C141.576 83.4917 141.425 83.9577 141.054 83.7373C140.66 83.5014 140.437 83.0972 140.428 82.6931H140.43Z" fill="#FEFEFE"/>
<path d="M110.095 67.7129C106.235 71.3501 104.51 75.9193 103.031 80.7979C100.846 75.8149 105.1 67.9237 110.095 67.7129Z" fill="#FEFEFE"/>
<path d="M112.33 92.769C110.284 91.0422 107.929 90.3113 105.326 91.3536C102.781 92.3726 101.718 94.5035 101.372 97.0849C101.48 98.3224 101.436 99.5754 101.776 100.786C101.931 101.335 102.12 101.861 102.344 102.366C102.24 102.163 102.128 101.94 102.006 101.693C101.271 100.19 100.842 96.4777 100.985 95.5322C101.49 92.214 103.035 89.6577 106.442 88.6252C108.315 88.0586 110.145 88.3545 111.897 89.1376C117.172 91.4986 119.962 98.6434 117.703 103.963C116.234 107.422 112.873 109.145 109.211 108.337C108.244 108.124 107.358 107.766 106.448 107.078C107.091 107.078 107.499 107.366 107.95 107.49C111.823 108.548 115.342 106.144 115.87 101.9C116.319 98.2799 115.155 95.1493 112.332 92.769H112.33Z" fill="white"/>
<path d="M203.24 127.434C196.85 124.781 190.335 122 183.941 119.361C183.138 119.03 182.918 118.624 182.922 117.802C182.952 111.359 182.937 104.914 182.939 98.4695C182.939 94.9174 180.692 92.5332 177.157 92.481C173.162 92.423 169.166 92.4771 165.171 92.452C164.507 92.4481 164.366 92.7053 164.378 93.3066C164.411 95.045 164.428 96.7872 164.372 98.5256C164.347 99.3242 164.654 99.4943 165.385 99.4866C168.607 99.4537 171.83 99.4692 175.052 99.4731C176.196 99.4731 176.247 99.5291 176.247 100.672C176.248 105.407 176.25 110.145 176.245 114.88C176.245 115.223 176.337 115.586 176.067 116.01C170.436 113.571 164.714 111.317 159.08 108.729C158.749 110.004 158.407 111.268 158.097 112.543C157.995 112.964 157.83 113.19 157.372 113.036C156.121 112.616 154.887 112.195 153.807 111.375C152.412 110.317 151.732 108.776 150.891 107.347C150.013 105.858 150.075 104.354 150.98 102.865C151.314 102.312 151.703 102.037 152.376 102.056C154.864 102.13 157.312 102.439 159.694 103.188C160.278 103.371 160.86 103.578 161.46 103.679C162.123 103.791 162.746 103.613 163.198 103.066C163.676 102.49 163.583 101.867 163.289 101.252C163.067 100.784 162.769 100.363 162.404 99.9932C160.685 98.2549 158.948 96.5378 156.972 95.0798C156.378 94.6409 155.831 94.1362 155.276 93.647C154.771 93.2042 154.742 92.858 155.423 92.4984C158.94 90.6343 162.525 88.896 165.863 86.6955C167.74 85.456 169.72 84.3674 171.548 83.0448C172.302 82.4995 173.023 81.9 173.594 81.1478C174.112 80.4653 174.365 79.7131 173.984 78.8951C173.605 78.0811 172.872 77.7814 172.016 77.7156C170.912 77.6305 169.831 77.7852 168.754 77.996C164.304 78.8642 159.923 80.0708 155.386 80.5155C154.077 80.6451 153.364 80.2545 152.726 79.1755C150.949 76.1745 148.882 73.3842 146.352 70.9575C142.854 67.6026 138.83 65.1875 134.072 64.0969C133.501 63.9654 133.335 63.7372 133.524 63.1552C134 61.6992 134.164 60.1967 133.944 58.6749C133.391 54.8695 130.556 52.8257 127.727 50.5923C127.561 52.669 128.265 54.6375 127.577 56.6427C127.364 56.4628 127.259 56.3874 127.17 56.2985C125.498 54.6588 123.572 53.5295 121.194 53.2917C120.426 53.2143 119.664 53.077 118.894 53.0268C117.601 52.9417 116.692 53.7925 116.617 55.0977C116.576 55.8015 116.849 56.4184 117.144 57.0294C117.676 58.1297 118.307 59.1816 118.645 60.3708C118.995 61.5986 118.893 62.7221 118.034 63.7256C117.578 64.2593 117.199 64.8781 116.677 65.3344C115.752 66.1408 114.872 67.0109 113.376 66.4927C112.038 66.0286 110.622 66.3167 109.284 66.7209C104.752 68.0918 101.865 71.6788 101.406 76.451C101.366 76.8648 101.368 77.2825 101.105 77.6499C98.8986 80.7572 97.3768 84.1605 96.5279 87.8847C95.5939 91.9918 95.5147 96.1104 96.1489 100.26C96.6497 103.54 97.8544 106.587 99.2524 109.561C100.19 111.556 101.474 113.314 103.149 114.788C104.759 116.205 106.594 117.263 108.437 118.322C108.752 118.504 109.128 118.63 109.321 119.105C106.892 120.144 104.365 120.43 101.84 120.565C90.0386 121.198 79.2333 118.125 69.1899 111.496C68.1748 118.309 69.3562 124.208 74.7318 128.866C74.1942 128.992 73.821 128.923 73.4382 128.847C71.5471 128.468 69.6482 128.12 67.761 127.722C67.09 127.581 66.8502 127.739 67.0107 128.431C67.148 129.027 67.2447 129.632 67.3646 130.232C68.0974 133.898 69.7739 137.001 72.8039 139.283C74.2329 140.36 75.9074 140.969 77.5162 141.712C78.3419 142.093 79.1405 142.545 79.9662 142.943C79.562 143.11 79.2217 142.994 78.8814 142.914C77.7019 142.636 76.5533 142.271 75.3989 141.894C71.607 140.654 67.5483 139.498 63.6539 138.622C61.2929 138.09 61.4379 137.808 61.0357 140.234C60.3628 144.297 60.7669 148.597 63.5437 151.898C63.6326 152.003 63.6655 152.121 63.5301 152.343C63.2111 152.343 62.8302 152.366 62.4531 152.337C61.8092 152.287 61.6835 152.531 61.8498 153.138C62.2268 154.509 62.7083 155.837 63.3097 157.119C64.2611 159.146 65.4967 160.973 67.3549 162.613C66.3997 162.808 66.3127 162.947 66.595 163.624C66.7342 163.958 66.9121 164.266 67.0416 164.484C68.9908 167.762 71.2725 170.788 73.8307 173.617C74.9928 174.901 76.2342 176.137 77.2262 177.546C79.9198 181.369 82.8628 184.969 86.2718 188.174C90.317 191.977 94.9694 194.949 99.9195 197.354C108.604 201.574 117.85 203.254 127.491 202.61C135.247 202.092 142.622 200.257 149.493 196.455C154.986 193.416 160.166 190.038 164.355 185.281C165.652 183.807 167.137 182.187 168.342 180.634C168.966 179.83 169.075 179.778 169.434 179.961C169.585 180.039 170.181 180.309 170.426 180.429C170.96 180.688 171.06 180.677 171.422 180.054C172.569 178.08 173.947 176.001 175.117 174.039C177.256 170.45 179.565 166.961 181.757 163.403C186.282 156.061 190.981 148.83 195.44 141.447C198.048 137.125 200.914 132.832 203.527 128.511C203.923 127.855 203.996 127.749 203.238 127.434H203.24ZM181.485 122.584C181.454 127.117 181.643 131.651 181.746 136.185C181.899 139.27 181.728 142.361 181.962 145.446C182.02 146.204 181.873 146.828 180.94 147.01C180.414 147.112 179.928 147.412 179.42 147.613C178.892 147.822 178.669 147.654 178.66 147.066C178.615 144.624 178.567 142.18 178.472 139.739C178.308 135.559 178.339 131.374 178.248 127.194C178.194 124.721 178.066 122.25 177.979 119.776C177.946 118.817 178.062 118.742 178.958 119.076C179.077 119.121 179.191 119.19 179.315 119.218C181.179 119.614 181.494 120.836 181.483 122.586L181.485 122.584ZM175.216 97.5607C172.478 97.5549 169.74 97.5317 167.004 97.5781C166.257 97.5916 166.023 97.3615 166.112 96.6499C166.213 95.8629 165.768 94.8478 166.292 94.3353C166.77 93.8693 167.766 94.2039 168.531 94.2C171.397 94.1845 174.265 94.1807 177.13 94.1961C179.696 94.2097 181.195 95.7353 181.197 98.3013C181.197 104.613 181.197 110.924 181.197 117.238C181.197 117.524 181.197 117.81 181.197 118.266C180.149 117.825 179.269 117.441 178.375 117.087C177.873 116.888 177.993 116.476 177.991 116.11C177.985 112.15 177.987 108.188 177.987 104.228C177.987 102.94 177.995 101.652 177.985 100.364C177.971 98.5372 177.014 97.5665 175.216 97.5626V97.5607ZM159.988 111.984C160.162 111.29 160.389 111.203 161.031 111.479C165.847 113.552 170.676 115.606 175.516 117.624C176.158 117.891 176.378 118.245 176.39 118.908C176.459 123.222 176.56 127.534 176.647 131.848C176.655 132.266 176.647 132.684 176.647 133.101C176.658 133.101 176.67 133.101 176.682 133.101C176.796 137.767 176.885 142.435 177.041 147.101C177.07 148 176.519 147.998 175.956 148.068C172.53 148.483 169.282 147.832 166.217 146.31C163.374 144.898 160.605 143.338 157.745 141.965C156.444 141.34 154.973 141.099 153.516 141.074C152.739 141.06 152.693 140.818 152.861 140.157C155.253 130.771 157.631 121.381 159.986 111.986L159.988 111.984ZM152.915 82.0219C156.546 82.0431 160.077 81.3277 163.602 80.5619C165.55 80.1385 167.504 79.7401 169.457 79.336C170.123 79.1987 170.799 79.1484 171.476 79.1833C171.904 79.2045 172.474 79.0305 172.652 79.5854C172.807 80.0708 172.375 80.4034 172.062 80.7224C171.178 81.6255 170.128 82.3196 169.082 83.0061C167.199 84.2436 165.205 85.3013 163.305 86.5021C158.088 89.8029 152.416 92.2779 147.174 95.5265C145.262 96.7118 143.38 97.9358 141.81 99.5717C141.474 99.9217 141.013 100.235 141.118 100.815C141.352 100.983 141.541 100.906 141.704 100.813C143.231 99.941 144.842 99.2101 146.211 98.0673C146.762 97.6071 147.497 97.6883 148.16 97.6844C150.125 97.6748 152.089 97.727 154.052 97.7212C154.543 97.7212 155.263 97.9822 155.473 97.5007C155.694 96.998 154.947 96.7234 154.65 96.3328C154.203 95.7488 153.559 95.3215 153.281 94.6041C153.188 94.3643 153.072 94.0782 153.37 93.9215C153.623 93.7901 153.768 94.0472 153.911 94.2097C154.657 95.0624 155.553 95.7469 156.423 96.4585C158.138 97.8623 159.718 99.4131 161.303 100.958C161.617 101.264 161.92 101.596 162.121 102.203C160.862 102.267 159.905 101.728 158.898 101.478C154.458 100.374 150.038 100.382 145.612 101.494C144.148 101.861 142.702 102.306 141.234 102.658C140.051 102.942 138.871 102.832 137.711 102.449C136.334 101.995 135.671 100.834 136.034 99.4266C136.39 98.0538 137.169 96.9728 138.43 96.3173C142.034 94.4475 145.177 91.9647 148.054 89.1261C148.611 88.5769 148.914 87.8576 149.29 87.1866C149.959 85.9897 150.486 84.7483 150.896 83.4315C151.318 82.0876 151.554 82.0103 152.909 82.0199L152.915 82.0219ZM113.008 69.9481C114.648 69.1205 116.187 68.1266 117.638 66.9858C118.753 66.1098 119.534 64.9922 120.207 63.7817C120.989 62.376 120.815 60.9277 120.327 59.4793C119.925 58.2824 119.287 57.1957 118.749 56.0626C118.338 55.1944 118.448 55.0474 119.388 55.1267C120.805 55.2446 122.201 55.4496 123.527 56.0026C124.753 56.5151 125.745 57.2904 126.426 58.4487C126.708 58.9283 126.784 59.3846 126.525 59.9067C126.028 60.9102 125.566 61.9293 125.088 62.9425C125.163 62.9928 125.241 63.0411 125.316 63.0914C127.544 60.8638 129.18 58.2863 129.839 55.0068C131.365 56.2327 132.051 57.7545 132.148 59.5644C132.235 61.2061 131.778 62.7491 131.202 64.2632C131.1 64.5339 131.003 64.8046 130.914 65.0792C130.783 65.4872 130.844 65.7347 131.359 65.7811C139.285 66.4946 144.78 71.0194 149.204 77.2051C149.841 78.0946 150.409 79.0344 151.03 79.9354C151.33 80.3705 151.407 80.6915 150.881 81.0396C150.071 81.5752 149.624 82.4047 149.28 83.2865C149.081 83.7969 148.882 84.3094 148.731 84.8353C148.22 86.6104 147.259 88.0664 145.867 89.2982C143.324 91.547 140.638 93.5658 137.628 95.1668C135.965 96.0505 134.905 97.5065 134.561 99.3996C134.168 101.561 135.47 103.414 137.749 103.959C139.656 104.415 141.53 104.207 143.367 103.607C145.169 103.019 147.006 102.613 148.858 102.37C149.069 102.706 148.895 102.934 148.8 103.155C148.176 104.607 148.251 106.047 148.901 107.461C149.303 108.335 149.738 109.195 150.208 110.033C151.585 112.487 153.919 113.595 156.452 114.411C157.54 114.762 157.542 114.766 157.264 115.861C156.179 120.136 155.085 124.407 154.013 128.687C153.895 129.16 153.665 129.452 153.252 129.721C148.093 133.063 142.684 135.978 137.427 139.152C136.709 139.585 136.174 139.544 135.503 139.101C134.008 138.111 133.107 136.794 132.968 134.988C132.778 132.535 133.393 130.201 133.998 127.859C134.513 125.867 135.077 123.882 135.027 121.785C134.961 119.167 133.791 117.491 131.322 116.601C129.881 116.083 128.371 115.969 126.859 115.861C125.125 115.737 123.39 115.627 121.77 114.878C119.297 113.738 118.299 111.566 117.682 109.12C117.601 108.797 117.767 108.596 118.032 108.403C121.814 105.651 122.812 101.759 122.352 97.3808C121.95 93.558 120.196 90.381 117.435 87.6797C115.226 85.5179 112.678 84.348 109.607 84.3094C109.035 84.3016 108.915 83.9903 108.843 83.534C108.445 80.9873 108.903 78.5316 109.609 76.1029C110.05 74.585 110.684 73.1445 111.322 71.702C111.686 70.8802 112.221 70.3581 113.01 69.9597L113.008 69.9481ZM143.344 188.394C137.202 191.205 130.759 192.654 123.659 192.629C120.18 192.665 116.421 192.211 112.726 191.263C112.353 191.167 111.674 191.331 111.916 190.447C112.111 189.732 112.382 189.659 113.059 189.821C123.263 192.3 133.161 191.405 142.713 187.019C143.489 186.663 143.634 187.079 143.908 187.566C144.293 188.249 143.647 188.255 143.345 188.394H143.344ZM144.95 191.517C145.741 191.151 146.145 191.362 146.348 192.225C146.466 192.723 146.045 192.72 145.79 192.839C143.489 193.926 141.114 194.821 138.68 195.56C133.834 197.032 128.924 198.062 124.26 197.824C120.689 197.902 117.58 197.631 114.519 196.993C113.343 196.747 112.194 196.332 111.013 196.069C110.553 195.966 110.241 195.831 110.487 195.237C110.674 194.783 110.669 194.336 111.423 194.545C114.314 195.342 117.27 195.802 120.26 196.014C128.872 196.626 137.106 195.131 144.95 191.517ZM140.938 183.637C139.366 184.38 137.686 184.859 136.087 185.521C132.212 187.127 128.128 187.323 124.916 187.518C120.706 187.535 117.425 187.129 114.188 186.366C113.285 186.153 113.045 185.435 113.604 184.677C113.784 184.434 113.985 184.515 114.203 184.571C116.357 185.134 118.575 185.325 120.755 185.714C122.423 186.012 124.082 186.099 125.712 185.915C130.725 185.35 135.686 184.476 140.271 182.222C141.041 181.843 141.18 182.218 141.476 182.715C141.887 183.403 141.304 183.463 140.936 183.635L140.938 183.637ZM120.31 164.801C123.396 165.438 126.434 165.24 129.446 164.335C129.98 164.175 130.363 163.802 130.862 163.608C131.295 163.44 131.531 163.403 131.738 163.931C131.935 164.436 131.771 164.585 131.341 164.763C128.963 165.741 126.486 166.196 123.821 166.234C122.638 166.201 121.358 166.118 120.099 165.83C119.755 165.751 119.256 165.821 119.411 165.182C119.544 164.627 119.912 164.722 120.312 164.803L120.31 164.801ZM120.022 162.968C120.155 162.518 120.331 162.44 120.772 162.529C122.097 162.798 123.437 162.92 124.792 162.837C126.536 162.731 128.23 162.382 129.841 161.711C130.357 161.497 130.601 161.592 130.8 162.073C131.042 162.653 130.531 162.645 130.259 162.742C128.211 163.465 126.14 164.111 123.533 164.154C122.752 164.332 121.673 163.854 120.557 163.616C120.213 163.543 119.855 163.533 120.022 162.968ZM133.033 167.822C133.511 167.615 133.698 167.764 133.919 168.176C134.24 168.779 133.751 168.823 133.432 168.959C130.407 170.247 127.244 170.873 123.765 170.908C122.157 170.879 120.372 170.699 118.608 170.305C118.225 170.22 117.935 170.163 118.075 169.632C118.202 169.15 118.399 169.038 118.887 169.146C123.74 170.218 128.464 169.792 133.031 167.822H133.033ZM118.129 172.633C122.586 173.629 127.006 173.474 131.392 172.219C132.444 171.917 133.47 171.542 134.474 171.105C134.915 170.912 135.33 170.626 135.605 171.364C135.86 172.053 135.294 172.047 134.975 172.186C131.931 173.493 128.756 174.249 125.444 174.416C124.929 174.441 124.417 174.472 124.044 174.491C121.87 174.431 119.85 174.265 117.873 173.783C117.551 173.704 116.856 173.901 117.034 173.072C117.199 172.302 117.684 172.536 118.129 172.637V172.633ZM134.217 175.321C134.961 175.058 135.586 174.549 136.328 174.259C136.827 174.064 137.084 174.095 137.297 174.595C137.512 175.104 137.434 175.361 136.875 175.611C133.279 177.217 129.516 178.097 125.589 178.294C125.013 178.323 124.432 178.298 123.854 178.298C121.402 178.32 118.978 178.068 116.591 177.49C116.22 177.401 115.797 177.424 115.973 176.796C116.129 176.235 116.356 176.135 116.932 176.27C122.781 177.639 128.549 177.318 134.219 175.321H134.217ZM131.666 159.455C125.33 163.307 116.856 161.905 112.562 156.282C112.674 155.893 113.063 155.818 113.347 155.648C116.079 154.014 118.827 152.407 121.555 150.769C122.054 150.469 122.487 150.38 123.085 150.543C124.895 151.036 126.753 149.99 127.227 148.168C127.41 147.459 127.778 147.095 128.358 146.759C130.75 145.37 133.113 143.932 135.508 142.549C136.11 142.203 136.502 141.54 137.291 141.426C140.244 147.735 137.711 155.779 131.666 159.455ZM138.364 178.757C133.778 180.812 128.971 181.845 123.601 181.814C121.124 181.843 118.349 181.514 115.617 180.845C115.3 180.768 114.77 180.859 114.954 180.182C115.11 179.606 115.375 179.551 115.924 179.679C123.477 181.45 130.815 180.793 137.916 177.643C138.401 177.428 138.693 177.349 138.964 177.946C139.293 178.67 138.666 178.623 138.366 178.757H138.364ZM112.33 92.7691C110.284 91.0423 107.929 90.3114 105.326 91.3537C102.781 92.3727 101.718 94.5036 101.372 97.085C101.48 98.3225 101.436 99.5755 101.776 100.786C101.931 101.335 102.12 101.861 102.344 102.366C102.24 102.163 102.128 101.94 102.006 101.693C101.271 100.19 100.842 96.4778 100.985 95.5323C101.49 92.2141 103.035 89.6578 106.442 88.6253C108.315 88.0587 110.145 88.3546 111.897 89.1377C117.172 91.4987 119.962 98.6435 117.703 103.963C116.234 107.422 112.873 109.145 109.211 108.337C108.244 108.124 107.358 107.766 106.448 107.078C107.091 107.078 107.499 107.366 107.95 107.49C111.823 108.548 115.342 106.144 115.87 101.9C116.319 98.28 115.155 95.1494 112.332 92.7691H112.33ZM110.094 67.7128C106.235 71.35 104.51 75.9192 103.031 80.7979C100.846 75.8148 105.1 67.9236 110.094 67.7128ZM78.6261 173.928C77.0406 174.878 77.4079 174.901 76.1124 173.6C73.8694 171.347 72.0131 168.808 70.412 166.072C70.2554 165.805 69.9963 165.565 70.1026 165.022C73.6586 165.49 77.874 166.145 81.4822 164.678C80.6623 164.711 79.2314 164.643 78.4599 164.521C74.6177 163.912 70.9418 162.866 67.8248 160.385C66.3939 159.246 65.253 157.867 64.4215 156.235C64.2475 155.893 64.06 155.553 64.0832 155.133C64.613 154.816 65.0887 155.141 65.5527 155.28C67.9331 155.994 70.3172 156.672 72.8368 156.585C73.3686 156.568 73.9177 156.616 74.6254 156.315C73.4981 155.984 72.5506 155.737 71.6205 155.427C68.0781 154.253 65.1312 152.314 63.3677 148.893C62.2288 146.683 62.0335 144.345 62.486 141.934C62.7199 140.685 62.9365 140.492 64.1702 140.72C66.2121 141.097 68.2212 141.584 70.2051 142.251C72.976 143.181 75.834 143.86 78.6706 144.591C79.4673 144.796 79.9642 145.119 80.1808 145.966C80.788 148.36 81.7297 150.614 83.381 152.496C86.7378 156.32 91.0054 158.324 96.058 158.622C99.6159 158.83 103.038 158.078 106.386 156.926C106.533 156.875 107.737 156.471 108.321 156.125C107.215 156.38 105.33 156.725 104.63 156.814C100.819 157.301 96.9823 157.78 93.1923 156.91C87.8458 155.682 83.9785 152.623 82.1783 147.285C81.9462 146.598 81.7316 145.883 81.8283 145.045C87.5209 146.01 93.1846 147.023 98.9682 146.96C100.797 146.94 103.199 146.809 105.084 146.283C104.421 146.242 103.833 146.18 103.557 146.151C97.5972 145.535 91.6377 144.902 85.8251 143.382C81.1805 142.168 76.8491 140.232 73.1616 137.096C70.9592 135.222 69.8358 132.738 69.5825 129.708C71.2241 130.104 72.8136 130.346 74.2928 130.885C75.9074 131.473 77.5762 131.757 79.2314 132.094C84.6881 133.206 90.1275 134.433 95.6597 135.147C101.727 135.928 108.517 136.288 115.308 134.754C114.18 134.84 112.819 134.83 112.56 134.83C105.162 134.811 98.3919 133.958 91.1175 132.678C89.182 132.337 87.2309 132.014 85.3649 131.419C81.2192 130.092 77.1759 128.538 74.0859 125.241C71.5258 122.509 70.6421 119.202 70.644 115.578C70.644 114.842 71.1081 115.157 71.4233 115.346C73.0244 116.307 74.639 117.245 76.3096 118.084C85.9044 122.909 95.9362 123.961 106.366 121.584C107.308 121.37 108.255 121.165 109.172 120.865C111.502 120.103 113.474 120.716 115.221 122.321C116.224 123.243 116.978 124.355 117.645 125.533C117.785 125.777 117.856 126.072 118.218 126.264C117.902 123.628 116.793 121.501 114.826 119.802C113.128 118.332 111.137 117.342 109.188 116.278C106.981 115.072 104.788 113.846 103.064 111.955C101.153 109.859 100.072 107.283 99.1673 104.684C96.4737 96.9516 97.0094 89.3639 100.604 82.0006C100.797 81.6042 100.948 81.1691 101.325 80.8501C101.59 81.3683 101.61 81.9213 101.702 82.455C101.902 83.5997 102.124 84.7425 102.611 85.8002C103.004 86.6549 102.915 87.4419 102.404 88.1709C100.384 91.0597 100.012 94.2831 100.411 97.6748C100.5 98.4308 101.122 101.148 102.315 102.998C103.677 105.543 105.508 106.947 106.399 107.6C108.385 109.058 110.5 110.257 113.097 110.143C113.484 110.126 113.869 110.093 114.254 110.077C114.789 110.056 115.389 109.557 115.808 109.913C116.145 110.199 116.183 110.841 116.338 111.33C117.491 114.975 120.022 116.963 123.76 117.458C125.13 117.64 126.513 117.744 127.892 117.85C128.667 117.91 129.423 118.034 130.166 118.264C132.262 118.912 133.182 120.237 133.093 122.453C133.006 124.601 132.3 126.618 131.807 128.681C131.336 130.655 130.891 132.633 130.922 134.681C130.955 136.825 131.695 138.631 133.406 140C134.317 140.729 134.263 140.882 133.238 141.555C127.271 145.478 120.998 148.893 114.874 152.554C108.741 156.222 102.478 159.677 96.3983 163.432C90.5413 167.052 84.5257 170.392 78.6223 173.926L78.6261 173.928ZM95.5591 167.232C95.3561 166.934 94.8669 166.652 95.4857 166.225C96.0232 165.851 96.2494 166.093 96.553 166.517C98.8019 169.657 101.611 172.207 104.688 174.535C107.366 176.562 110.336 177.892 113.449 179.008C113.708 179.101 114.14 179.035 114.128 179.513C114.101 180.159 113.784 180.362 113.088 180.137C109.663 179.039 106.409 177.546 103.576 175.338C100.567 172.992 97.7403 170.421 95.5611 167.232H95.5591ZM147.7 196.237C145.266 197.712 142.593 198.606 139.898 199.418C134.69 200.988 129.357 201.757 124.274 201.738C119.289 201.755 114.737 201.179 110.259 200.04C109.849 199.936 109.089 200.116 109.365 199.103C109.607 198.223 110.025 198.383 110.624 198.534C119.538 200.769 128.456 200.762 137.363 198.501C138.95 198.099 140.567 197.697 142.05 197.028C143.622 196.318 145.26 195.75 146.778 194.922C147.379 194.595 147.729 194.651 148.007 195.349C148.197 195.823 148.125 195.978 147.702 196.237H147.7ZM147.18 172.902C145.124 174.682 143.067 176.454 140.605 177.687C140.064 177.958 139.803 177.871 139.552 177.372C139.403 177.078 139.443 176.924 139.739 176.765C142.644 175.214 145.14 173.116 147.545 170.902C148.085 170.405 148.396 171.032 148.988 171.078C148.396 171.861 147.783 172.378 147.18 172.902ZM190.873 145.668C188.365 149.725 185.814 153.753 183.277 157.79C182.117 159.635 180.911 161.452 179.799 163.326C177.596 167.041 175.175 170.618 172.925 174.303C172.255 175.398 171.614 176.508 170.95 177.606C170.544 178.279 170.099 178.461 169.37 178.149C167.129 177.192 164.817 176.38 162.636 175.305C158.322 173.18 153.814 171.529 149.398 169.655C148.483 169.266 147.607 168.789 146.652 168.489C146.122 168.323 145.888 167.975 146.043 167.377C146.84 164.299 147.621 161.216 148.394 158.134C149.098 155.332 149.781 152.527 150.483 149.725C151.005 147.638 151.552 145.558 152.074 143.471C152.248 142.775 152.77 142.816 153.294 142.847C155.545 142.986 157.61 143.754 159.607 144.74C161.93 145.886 164.117 147.292 166.53 148.276C172.023 150.518 177.355 150.425 182.537 147.364C184.437 146.24 186.232 144.929 188.258 144.022C189.515 143.46 190.824 143.079 192.3 142.98C192.099 144.127 191.379 144.85 190.875 145.668H190.873ZM199.568 131.686C197.828 134.58 195.972 137.404 194.17 140.26C193.92 140.654 193.667 140.977 193.135 140.998C189.842 141.122 187.056 142.619 184.333 144.282C184.146 144.396 183.95 144.5 183.567 144.717C183.395 136.736 183.225 128.894 183.053 120.852C189.289 123.456 195.303 125.966 201.427 128.524C200.858 129.659 200.183 130.665 199.57 131.686H199.568Z" fill="#010202"/>
</g>
<defs>
<clipPath id="clip0_1030_33703">
<rect width="256" height="256" fill="white"/>
</clipPath>
</defs>
</svg>
