<?xml version="1.0" encoding="UTF-8"?>
<svg id="Calque_1" data-name="Calque 1" xmlns="http://www.w3.org/2000/svg" version="1.1" viewBox="0 0 987.4 614.5">
  <defs>
    <style>
      .cls-1 {
        fill: #2f7ab3;
      }

      .cls-1, .cls-2 {
        stroke-width: 0px;
      }

      .cls-2 {
        fill: #fe2234;
      }
    </style>
  </defs>
  <g>
    <g>
      <path class="cls-1" d="M134,494.4c2.2.5,4.2.7,7.2.7,10.1,0,17.5-.6,18.6-1.5.5-.4,1.1-2.1,1.6-4.6,0,0,.2-.7.3-.9l1-4.2h2.7c-.9,8.2-1.2,11-1.8,14.6q-11.6.3-14.3.3c-2.4,0-11.6,0-15.8-.2-1.9,0-3.2,0-4,0-2.2,0-2.8,0-8.4.3v-2l2.6-1.4c1.4-.7,2.1-2.5,2.1-5v-40.3c0-6.7-.4-7.4-4.3-7.7l-4.1-.3v-2.5c6.1.2,8.2.3,12.4.3s6.3,0,12.5-.3v2.5l-4.1.3c-3.9.3-4.3.9-4.3,7.7v44.4Z"/>
      <path class="cls-1" d="M202.9,495.3c-.3.5-2.1,1.6-4.4,2.6-3.5,1.5-6.6,2.2-9.8,2.2-6.4,0-12.1-2.6-15.5-7.1-2.3-3.2-3.6-7.8-3.6-13.2,0-8.8,2.8-14.1,9.8-18.1,3.5-2,7.1-3.1,10.3-3.1,9.5,0,15.8,6.4,15.8,16.2s0,1.8-.2,3c-5.9.9-9.5,1.2-15.4,1.2h-12.4c.2,4.9.8,7.3,2.4,10.1,2.4,4.2,7,6.6,12.5,6.6s5.6-.8,11.1-4l1.1.9-1.7,2.9ZM195.3,464.7c-1.5-2.3-3.7-3.4-6.5-3.4-4.1,0-7.7,2.3-9.5,6-1.1,2.2-1.4,4.1-1.4,8.1,4.6.4,6.8.5,10.7.5s5.1,0,9.5-.3c-.3-5.7-.9-8.2-2.7-11Z"/>
      <path class="cls-1" d="M214.1,486.2v3.5c0,4.3,4.4,7.2,10.6,7.2s10.3-3.2,10.3-7.8-1.6-5-5.4-5.9c-5.8-1.3-10.3-2.6-12.6-3.7-3.9-1.8-5.8-4.7-5.8-8.8,0-7.7,6-12.3,15.9-12.3s6.5.6,11.1,2.1c-.3,2.6-.3,4.7-.4,9.6h-2.4v-2c0-4-4.3-7-10-7s-8.2,2.4-8.2,6.6,2.3,5.6,9.3,7c7.5,1.4,10.3,2.5,12.5,4.6,1.6,1.7,2.4,3.7,2.4,6.3,0,8.3-7.9,14.3-19,14.3s-7.2-.6-11.6-2c.7-3.4.9-6,.9-11.8h2.6Z"/>
      <path class="cls-1" d="M300.3,445.7c0-2.5-.6-3.5-2.1-3.5h-4.8v-2.4c6.7-1,9.5-1.7,13.3-3.1l.8.7v52.4c0,5.4.3,6,3.1,6.1l3.9.3v2.5c-1.8,0-3.5,0-4.1-.2-1.8,0-3,0-3.7,0-1,0-2.4,0-6.5.3l.4-7.8-9.4,7.9c-.4.3-2.4.7-4.1.7-5.5,0-9.5-1.1-12.4-3.6-4.2-3.4-6.5-9-6.5-15.8s3.1-13.4,8-16l7.5-3.9c2.1-1.1,4.2-1.6,6.5-1.6s5.4.7,10.1,2.7v-15.6ZM300.3,468.6c0-.7-1-1.8-2.8-3-3-2-6.4-3.1-9.6-3.1-7.7,0-12.2,5.4-12.2,14.7s5.4,17.3,12.8,17.3,8.2-2.6,10.5-6.6c1.1-2,1.3-2.8,1.3-8.3v-11Z"/>
      <path class="cls-1" d="M352.5,495.3c-.3.5-2.1,1.6-4.4,2.6-3.5,1.5-6.6,2.2-9.8,2.2-6.4,0-12.1-2.6-15.5-7.1-2.3-3.2-3.6-7.8-3.6-13.2,0-8.8,2.8-14.1,9.8-18.1,3.5-2,7.1-3.1,10.3-3.1,9.5,0,15.8,6.4,15.8,16.2s0,1.8-.2,3c-5.9.9-9.5,1.2-15.4,1.2h-12.4c.2,4.9.8,7.3,2.4,10.1,2.4,4.2,7,6.6,12.5,6.6s5.6-.8,11.1-4l1.1.9-1.7,2.9ZM344.9,464.7c-1.5-2.3-3.7-3.4-6.5-3.4-4.1,0-7.7,2.3-9.5,6-1.1,2.2-1.4,4.1-1.4,8.1,4.6.4,6.8.5,10.7.5s5.1,0,9.5-.3c-.3-5.7-.9-8.2-2.7-11Z"/>
      <path class="cls-1" d="M400.5,489.7c0,5.4.3,6,3.1,6.1l3.5.3v2.5q-5.9-.3-7.1-.3c-1.3,0-1.4,0-7.1.3.3-4,.3-5.4.3-7.8l-5.7,5.3c-2.3,2.1-5.7,3.3-9.5,3.3s-8.1-1.3-9.9-3.8c-1.5-2.1-2-4.8-2-10.7v-14.3c0-5.6-.3-6.2-3.7-6.2h-3.1v-2.4c4.5-.5,8.9-1.7,13.3-3.5l.8.3v25.1c0,3.7.6,6.4,1.8,7.7,1.4,1.6,3.7,2.6,6.7,2.6s6-1.2,8.4-3.6c2-2,3.1-4.3,3.1-6.2v-13.9c0-5.6-.3-6.2-3.7-6.2h-3.1v-2.4c4.5-.5,8.9-1.7,13.3-3.5l.8.3v30.9Z"/>
      <path class="cls-1" d="M445.9,493.8c.9,1.3,2,2,3,2l2.1.3v2.5q-4.4-.3-5.3-.3t-5.2.3c-.7-.6-1.4-1.4-2.1-2.6v-.2c0,0-9.2-13.8-9.2-13.8l-6.3,8.3c-.6.7-2,2.8-3.3,5.2l-1.8,2.8h-7.3v-2.3h1.4c.9,0,2-.5,2.6-1.3l12.7-15-10.2-14.8c-.9-1.2-2.7-2.4-4.3-2.5l-1.8-.2-.4-2.2,9.9-1.7c2.9,2.9,3.8,4,5.1,5.9l6.5,9.9,10.5-14.9h7v2.4h-1.2c-1.4,0-2.4.3-2.9.9l-12.1,14.1,12.6,17Z"/>
    </g>
    <g>
      <path class="cls-2" d="M536,449.2c-1.5,2.9-2.5,4.8-3.7,7.3l-15.1,32.1c-.6,1.2-1.6,3.6-3,6.9-.5,1.3-1,2.6-1.6,3.9h-1.7l-23.7-50.2v38.9c0,6.6.4,7.4,4.3,7.7l3.7.3v2.5q-8.9-.3-10.2-.3t-9.9.3v-2.5l3.7-.3c3.9-.3,4.3-1,4.3-7.7v-38.2c0-6.6-.4-7.4-4.3-7.7l-3.7-.3v-2.5q6.8.3,8.1.3,1.3,0,8.1-.3l22.4,47.3,22.3-47.3q6.8.3,8.1.3,1.4,0,7.9-.3v2.5l-3.6.3c-3.9.3-4.3,1-4.3,7.7v38.2c0,6.7.4,7.4,4.3,7.7l4.1.3v2.5c-5-.2-8.1-.3-12.8-.3s-7,0-10.9.3v-2.5l2.9-.3c4-.3,4.3-.9,4.3-7.7v-38.9Z"/>
      <path class="cls-2" d="M597.8,478.2c0,12.8-9.4,21.8-22.4,21.8s-18.5-8.2-18.5-20.1,8.6-21.4,21-21.4,20,8.2,20,19.7ZM564.8,477c0,12.1,5.6,20.2,13.9,20.2s11.2-6.1,11.2-15.9-5.8-20.1-13.6-20.1-11.6,5.5-11.6,15.7Z"/>
      <path class="cls-2" d="M635.3,474.5c0-6.5-3.7-10.8-9.4-10.8s-10.8,4.2-10.8,8v18c0,5.4.3,6,3.1,6.1l3.8.3v2.5c-5.8-.2-8.1-.3-10.5-.3s-4.8,0-10.5.3v-2.5l3.8-.3c2.9-.2,3.1-.8,3.1-6.1v-19.1c0-5.6-.3-6.2-3.7-6.2h-3.1v-2.4c4.5-.5,8.9-1.7,13.3-3.5l.8.3v7.4l6.5-5.6c1.8-1.5,3.6-2.1,6.7-2.1,9.5,0,14.2,4.8,14.2,14.8v16.4c0,5.4.3,6,3.1,6.1l3.5.3v2.5q-5.9-.3-7.1-.3c-1.4,0-1.5,0-6.7.3v-24.1Z"/>
      <path class="cls-2" d="M655.9,486.2v3.5c0,4.3,4.4,7.2,10.6,7.2s10.3-3.2,10.3-7.8-1.6-5-5.4-5.9c-5.8-1.3-10.3-2.6-12.6-3.7-3.9-1.8-5.8-4.7-5.8-8.8,0-7.7,6-12.3,15.9-12.3s6.5.6,11.1,2.1c-.3,2.6-.3,4.7-.4,9.6h-2.4v-2c0-4-4.3-7-10-7s-8.2,2.4-8.2,6.6,2.3,5.6,9.3,7c7.5,1.4,10.3,2.5,12.5,4.6,1.6,1.7,2.4,3.7,2.4,6.3,0,8.3-7.9,14.3-19,14.3s-7.2-.6-11.6-2c.7-3.4.9-6,.9-11.8h2.5Z"/>
      <path class="cls-2" d="M701.8,489.7c0,5.4.3,6,3.1,6.1l3.9.3v2.5q-8.5-.3-10.6-.3t-10.6.3v-2.5l3.9-.3c2.9-.2,3.1-.8,3.1-6.1v-19.1c0-5.6-.3-6.2-3.7-6.2h-3.1v-2.4c4.5-.5,8.9-1.7,13.3-3.5l.8.3v30.9ZM702.6,444.7c0,2.5-2.3,4.7-4.8,4.7s-4.7-2.2-4.7-4.7,2.2-4.8,4.8-4.8,4.7,2.4,4.7,4.8Z"/>
      <path class="cls-2" d="M745.9,495.3c-.3.5-2.1,1.6-4.4,2.6-3.5,1.5-6.6,2.2-9.8,2.2-6.4,0-12.1-2.6-15.5-7.1-2.3-3.2-3.6-7.8-3.6-13.2,0-8.8,2.8-14.1,9.8-18.1,3.5-2,7.1-3.1,10.3-3.1,9.5,0,15.8,6.4,15.8,16.2s0,1.8-.2,3c-5.9.9-9.5,1.2-15.4,1.2h-12.4c.2,4.9.8,7.3,2.4,10.1,2.4,4.2,7,6.6,12.5,6.6s5.6-.8,11.1-4l1.1.9-1.7,2.9ZM738.3,464.7c-1.5-2.3-3.7-3.4-6.5-3.4-4.1,0-7.7,2.3-9.5,6-1.1,2.2-1.4,4.1-1.4,8.1,4.6.4,6.8.5,10.7.5s5.1,0,9.5-.3c-.3-5.7-.9-8.2-2.7-11Z"/>
      <path class="cls-2" d="M793.8,489.7c0,5.4.3,6,3.1,6.1l3.5.3v2.5q-5.9-.3-7.1-.3c-1.3,0-1.4,0-7.1.3.3-4,.3-5.4.3-7.8l-5.7,5.3c-2.3,2.1-5.7,3.3-9.5,3.3s-8.1-1.3-9.9-3.8c-1.5-2.1-2-4.8-2-10.7v-14.3c0-5.6-.3-6.2-3.7-6.2h-3.1v-2.4c4.5-.5,8.9-1.7,13.3-3.5l.8.3v25.1c0,3.7.6,6.4,1.8,7.7,1.4,1.6,3.7,2.6,6.7,2.6s6-1.2,8.4-3.6,3.1-4.3,3.1-6.2v-13.9c0-5.6-.3-6.2-3.7-6.2h-3.1v-2.4c4.5-.5,8.9-1.7,13.3-3.5l.8.3v30.9Z"/>
      <path class="cls-2" d="M804.2,462c4.5-.5,8.9-1.7,13.3-3.5l.8.3v8.8l4.8-5.6c1.8-2.1,4.5-3.5,7.1-3.5s3.1.3,4,.9l-.8,10.2h-1.8c-1.4-2.7-3.1-3.9-5.7-3.9-4.2,0-7.6,4.2-7.6,9.4v14.6c0,5.6.2,5.9,4,6.1l4.4.3v2.5q-10.5-.3-12.2-.3c-2.1,0-4.3,0-10.5.3v-2.5l3.9-.3c2.9-.2,3.1-.8,3.1-6.1v-19.1c0-5.6-.3-6.2-3.7-6.2h-3.1v-2.4Z"/>
      <path class="cls-2" d="M841.8,486.2v3.5c0,4.3,4.4,7.2,10.6,7.2s10.3-3.2,10.3-7.8-1.6-5-5.4-5.9c-5.8-1.3-10.3-2.6-12.6-3.7-3.9-1.8-5.8-4.7-5.8-8.8,0-7.7,6-12.3,15.9-12.3s6.5.6,11.1,2.1c-.3,2.6-.3,4.7-.4,9.6h-2.4v-2c0-4-4.3-7-10-7s-8.2,2.4-8.2,6.6,2.3,5.6,9.3,7c7.5,1.4,10.3,2.5,12.5,4.6,1.6,1.7,2.4,3.7,2.4,6.3,0,8.3-7.9,14.3-19,14.3s-7.2-.6-11.6-2c.7-3.4.9-6,.9-11.8h2.5Z"/>
    </g>
  </g>
  <g>
    <path class="cls-1" d="M478.4,337.3h-85.9c-4.8,0-8.7-3.9-8.7-8.7V115.2h0c57,0,103.2,48.9,103.2,108.2v105.2c0,4.8-3.9,8.7-8.7,8.7Z"/>
    <path class="cls-2" d="M509.1,337.3h85.9c4.8,0,8.7-3.9,8.7-8.7V115.2s0,0,0,0c-57,0-103.2,48.9-103.2,108.2v105.2c0,4.8,3.9,8.7,8.7,8.7Z"/>
  </g>
</svg>