<svg width="256" height="256" viewBox="0 0 256 256" fill="none" xmlns="http://www.w3.org/2000/svg">
<g clip-path="url(#clip0_1106_42452)">
<path d="M128.471 186.595C180.002 186.595 221.776 144.825 221.776 93.2977C221.776 41.7708 180.002 0 128.471 0C76.9407 0 35.1668 41.7708 35.1668 93.2977C35.1668 144.825 76.9407 186.595 128.471 186.595Z" fill="#133E5E"/>
<path d="M98.8385 106.66H64.5222V102.221H98.8385C110.492 102.221 119.97 92.7432 119.97 81.0907V78.2608C119.97 66.6083 110.492 57.1309 98.8385 57.1309H64.5222V52.6919H98.8385C112.945 52.6919 124.409 64.1668 124.409 78.2608V81.0907C124.409 95.1958 112.934 106.66 98.8385 106.66Z" fill="white"/>
<path d="M68.9615 114.894H64.5222V137.8H68.9615V114.894Z" fill="white"/>
<path d="M128.982 52.6807H123.988L156.129 105.339V138.798H161.123V105.339L128.982 52.6807Z" fill="white"/>
<path d="M193.275 52.6807L171.622 88.1598L169.125 84.0647L188.281 52.6807H193.275Z" fill="white"/>
<path d="M99.338 160.15C99.5599 160.372 99.6709 160.627 99.6709 160.916C99.6709 161.204 99.5599 161.47 99.338 161.681C99.116 161.892 98.8385 162.014 98.5056 162.014C98.1726 162.014 97.8841 161.903 97.651 161.681C97.4179 161.459 97.318 161.204 97.318 160.916C97.318 160.627 97.429 160.372 97.651 160.15C97.873 159.928 98.1615 159.817 98.5056 159.817C98.8496 159.817 99.116 159.928 99.338 160.15Z" fill="white"/>
<path d="M112.767 164.256V157.731L112.179 158.119L111.313 157.498L113.932 155.589V164.267H115.852V165.288H110.803V164.267H112.756L112.767 164.256Z" fill="white"/>
<path d="M124.498 161.027C124.321 161.249 123.965 161.36 123.433 161.36C122.645 161.36 121.99 161.093 121.457 160.55C120.924 160.006 120.658 159.373 120.658 158.641C120.658 157.908 120.924 157.276 121.457 156.732C121.99 156.188 122.656 155.922 123.433 155.922C124.21 155.922 124.875 156.188 125.419 156.732C125.963 157.276 126.229 157.908 126.229 158.641C126.185 159.617 125.908 160.638 125.397 161.693C124.887 162.747 124.143 163.979 123.188 165.41H121.768C122.955 163.668 123.865 162.203 124.498 161.027ZM124.554 159.839C124.875 159.518 125.031 159.118 125.031 158.641C125.031 158.164 124.875 157.764 124.554 157.453C124.232 157.143 123.865 156.976 123.444 156.976C123.022 156.976 122.656 157.132 122.334 157.453C122.012 157.775 121.857 158.164 121.857 158.641C121.857 159.118 122.012 159.518 122.334 159.839C122.656 160.161 123.022 160.317 123.444 160.317C123.865 160.317 124.243 160.161 124.554 159.839Z" fill="white"/>
<path d="M133.199 160.35L132.5 160.328V159.329C133.011 159.329 133.355 159.284 133.521 159.218C133.688 159.151 133.887 158.996 134.098 158.774C134.309 158.552 134.42 158.263 134.42 157.942C134.42 157.62 134.32 157.353 134.109 157.154C133.898 156.954 133.665 156.843 133.399 156.843C133.133 156.843 132.9 156.943 132.7 157.132C132.578 157.254 132.456 157.498 132.322 157.853L131.246 157.431C131.379 157.009 131.557 156.677 131.79 156.455C132.223 156.022 132.766 155.8 133.388 155.8C134.009 155.8 134.553 156.011 134.975 156.443C135.397 156.876 135.608 157.376 135.608 157.942C135.608 158.508 135.308 159.118 134.72 159.751C134.964 159.795 135.275 160.028 135.663 160.45C136.207 161.038 136.484 161.726 136.484 162.503C136.484 163.28 136.196 163.968 135.63 164.534C135.064 165.1 134.354 165.388 133.521 165.388C132.689 165.388 131.978 165.1 131.39 164.511C130.946 164.056 130.669 163.468 130.558 162.747L131.712 162.325C131.79 163.013 131.99 163.513 132.3 163.823C132.644 164.167 133.044 164.334 133.521 164.334C133.998 164.334 134.42 164.156 134.775 163.801C135.13 163.446 135.308 163.002 135.308 162.481C135.308 161.959 135.13 161.493 134.775 161.104C134.42 160.716 133.887 160.461 133.188 160.328L133.199 160.35Z" fill="white"/>
<path d="M143.632 165.344C142.555 165.344 141.756 165.066 141.223 164.511C140.691 163.956 140.435 163.291 140.435 162.514C140.435 161.737 140.713 161.049 141.257 160.461C141.645 160.039 141.978 159.839 142.256 159.839C141.623 159.162 141.301 158.53 141.301 157.953C141.301 157.376 141.512 156.887 141.934 156.466C142.355 156.044 142.933 155.844 143.654 155.833C144.331 155.833 144.886 156.044 145.308 156.466C145.729 156.887 145.94 157.376 145.94 157.953C145.94 158.53 145.618 159.162 144.986 159.839C145.263 159.839 145.596 160.05 145.985 160.461C146.528 161.049 146.806 161.737 146.806 162.514C146.806 163.291 146.54 163.956 146.018 164.511C145.496 165.066 144.697 165.344 143.621 165.344H143.632ZM143.632 164.345C144.32 164.312 144.83 164.134 145.152 163.801C145.474 163.468 145.63 163.035 145.63 162.503C145.63 161.97 145.452 161.504 145.086 161.115C144.742 160.738 144.253 160.494 143.632 160.372C142.999 160.494 142.5 160.749 142.167 161.115C141.812 161.504 141.634 161.97 141.634 162.503C141.634 163.035 141.789 163.468 142.111 163.801C142.433 164.134 142.944 164.312 143.643 164.345H143.632ZM142.733 157.165C142.577 157.353 142.5 157.609 142.5 157.93C142.5 158.252 142.611 158.53 142.822 158.752C143.032 158.974 143.299 159.151 143.621 159.251C143.931 159.151 144.198 158.985 144.409 158.752C144.62 158.519 144.731 158.241 144.731 157.93C144.731 157.62 144.653 157.342 144.497 157.165C144.342 156.987 144.054 156.876 143.61 156.843C143.177 156.876 142.877 156.976 142.722 157.165H142.733Z" fill="white"/>
<path d="M159.281 160.15C159.503 160.372 159.614 160.627 159.614 160.916C159.614 161.204 159.503 161.47 159.281 161.681C159.059 161.892 158.781 162.014 158.448 162.014C158.115 162.014 157.827 161.903 157.594 161.681C157.361 161.459 157.261 161.204 157.261 160.916C157.261 160.627 157.372 160.372 157.594 160.15C157.816 159.928 158.104 159.817 158.448 159.817C158.792 159.817 159.059 159.928 159.281 160.15Z" fill="white"/>
<path d="M3.29211 239.198C3.15893 239.198 3.05905 239.154 2.99246 239.076C2.92587 238.999 2.89257 238.899 2.89257 238.777V211.654C2.89257 211.532 2.92587 211.432 2.99246 211.354C3.05905 211.277 3.15893 211.232 3.29211 211.232H4.41306C4.75711 211.232 5.03457 211.321 5.25654 211.51C5.47851 211.699 5.57839 211.943 5.57839 212.253V236.968H8.03115C8.3419 236.968 8.58607 237.079 8.77474 237.29C8.96341 237.501 9.0522 237.778 9.0522 238.133V238.81C9.0522 238.943 9.00781 239.043 8.93012 239.11C8.85243 239.176 8.75254 239.21 8.63046 239.21H3.29211V239.198Z" fill="#133E5E"/>
<path d="M30.117 215.627C30.2391 215.627 30.339 215.66 30.4167 215.727C30.4944 215.793 30.5388 215.893 30.5388 216.026V216.703C30.5388 217.047 30.45 217.325 30.2613 217.547C30.0726 217.758 29.8285 217.869 29.5177 217.869H27.065V226.436H29.7175C29.8396 226.436 29.9394 226.469 30.0171 226.536C30.0948 226.603 30.1392 226.702 30.1392 226.836V227.512C30.1392 227.857 30.0504 228.134 29.8618 228.356C29.6731 228.567 29.4289 228.678 29.1182 228.678H27.065V236.968H29.5177C29.8285 236.968 30.0726 237.079 30.2613 237.29C30.45 237.5 30.5388 237.778 30.5388 238.133V238.81C30.5388 238.943 30.4944 239.043 30.4167 239.11C30.339 239.176 30.2391 239.209 30.117 239.209H24.7787C24.6455 239.209 24.5456 239.165 24.479 239.087C24.4124 239.01 24.3791 238.91 24.3791 238.788V216.06C24.3791 215.938 24.4124 215.838 24.479 215.76C24.5456 215.682 24.6455 215.638 24.7787 215.638H30.117V215.627Z" fill="#133E5E"/>
<path d="M52.0364 223.873C51.648 223.873 51.3594 223.762 51.1708 223.54C50.9821 223.318 50.8822 223.04 50.8822 222.685V218.734C50.8822 218.379 50.7823 218.091 50.5936 217.869C50.405 217.647 50.1053 217.536 49.728 217.536C49.3506 217.536 49.0399 217.647 48.8512 217.869C48.6625 218.091 48.5737 218.379 48.5737 218.734C48.5737 219.811 48.6403 220.743 48.7846 221.531C48.9289 222.319 49.1175 223.007 49.3506 223.606C49.5948 224.205 49.8611 224.749 50.1608 225.226C50.4605 225.704 50.7601 226.181 51.0709 226.669C51.3816 227.146 51.6813 227.657 51.9809 228.201C52.2806 228.744 52.547 229.377 52.7911 230.098C53.0353 230.82 53.224 231.674 53.3571 232.64C53.4903 233.605 53.568 234.759 53.568 236.091C53.568 236.624 53.4792 237.101 53.3017 237.523C53.1241 237.944 52.8577 238.299 52.5248 238.599C52.1807 238.899 51.7812 239.132 51.3039 239.287C50.8267 239.443 50.3051 239.531 49.7391 239.531C48.5293 239.531 47.586 239.221 46.909 238.61C46.232 238 45.899 237.156 45.899 236.091V231.175C45.899 231.053 45.9323 230.953 45.9989 230.875C46.0655 230.797 46.1654 230.753 46.2985 230.753H47.4195C47.8079 230.753 48.0965 230.864 48.2852 231.086C48.4738 231.308 48.5737 231.585 48.5737 231.941V236.091C48.5737 236.446 48.6736 236.735 48.8623 236.957C49.051 237.179 49.3506 237.29 49.728 237.29C50.1053 237.29 50.4161 237.179 50.6047 236.957C50.7934 236.735 50.8822 236.446 50.8822 236.091C50.8822 234.815 50.8156 233.716 50.6713 232.817C50.527 231.918 50.3384 231.13 50.1053 230.465C49.8611 229.81 49.5948 229.233 49.2951 228.744C48.9955 228.256 48.6958 227.79 48.385 227.346C48.0743 226.902 47.7746 226.436 47.475 225.959C47.1753 225.482 46.909 224.916 46.6648 224.261C46.4206 223.606 46.232 222.84 46.0988 221.964C45.9656 221.087 45.8879 220.011 45.8879 218.745C45.8879 218.213 45.9767 217.736 46.1543 217.314C46.3318 216.892 46.5982 216.537 46.9312 216.237C47.2752 215.938 47.6747 215.705 48.1409 215.549C48.607 215.394 49.1286 215.305 49.7169 215.305C50.9266 215.305 51.87 215.616 52.547 216.226C53.224 216.837 53.5569 217.68 53.5569 218.745V223.462C53.5569 223.584 53.5236 223.684 53.457 223.762C53.3904 223.839 53.2906 223.884 53.1574 223.884H52.0364V223.873Z" fill="#133E5E"/>
<path d="M93.8331 211.232C94.4102 211.232 94.9319 211.31 95.398 211.477C95.8752 211.632 96.2748 211.865 96.6188 212.165C96.9629 212.464 97.2182 212.819 97.3957 213.241C97.5733 213.663 97.6621 214.14 97.6621 214.673V225.282C97.6621 226.347 97.3291 227.191 96.6521 227.801C95.9751 228.412 95.0318 228.722 93.822 228.722H92.6678V238.033C92.6678 238.377 92.5679 238.666 92.3792 238.877C92.1906 239.087 91.8909 239.21 91.5136 239.21H90.3926C90.2594 239.21 90.1595 239.165 90.093 239.087C90.0264 239.01 89.9931 238.91 89.9931 238.788V211.665C89.9931 211.543 90.0264 211.443 90.093 211.366C90.1595 211.288 90.2594 211.244 90.3926 211.244H93.8331V211.232ZM92.6678 213.463V226.469H93.822C94.2216 226.469 94.5101 226.358 94.6988 226.125C94.8875 225.903 94.9763 225.615 94.9763 225.271V214.662C94.9763 214.318 94.8875 214.029 94.7099 213.807C94.5323 213.585 94.2327 213.463 93.822 213.463H92.6678Z" fill="#133E5E"/>
<path d="M117.939 238.477C117.939 238.677 117.872 238.843 117.728 238.987C117.584 239.132 117.417 239.198 117.218 239.198H115.975C115.775 239.198 115.608 239.132 115.464 238.987C115.32 238.843 115.253 238.677 115.253 238.477V229.71L113.211 216.049C113.189 215.927 113.211 215.827 113.289 215.749C113.366 215.671 113.477 215.627 113.611 215.627H114.731C115.12 215.627 115.397 215.738 115.586 215.96C115.764 216.182 115.864 216.459 115.897 216.814L116.596 225.282L117.317 216.814C117.34 216.47 117.451 216.182 117.628 215.96C117.806 215.738 118.094 215.627 118.483 215.627H119.604C119.737 215.627 119.848 215.671 119.926 215.749C120.003 215.827 120.037 215.927 120.003 216.049L117.95 229.71V238.477H117.939Z" fill="#133E5E"/>
<path d="M139.414 215.627C139.992 215.627 140.502 215.716 140.968 215.882C141.434 216.049 141.834 216.282 142.167 216.57C142.5 216.859 142.755 217.225 142.933 217.647C143.11 218.068 143.199 218.546 143.199 219.067V226.336C143.199 226.924 143.077 227.402 142.855 227.779C142.622 228.156 142.3 228.456 141.889 228.678C142.3 228.9 142.622 229.199 142.855 229.566C143.088 229.932 143.199 230.398 143.199 230.975V238.788C143.199 238.91 143.166 239.01 143.099 239.087C143.032 239.165 142.933 239.209 142.799 239.209H141.678C141.29 239.209 141.001 239.098 140.813 238.876C140.624 238.655 140.524 238.377 140.524 238.033V230.986C140.524 230.631 140.435 230.342 140.258 230.12C140.08 229.898 139.781 229.788 139.37 229.788H138.216V238.033C138.216 238.377 138.116 238.666 137.927 238.876C137.739 239.087 137.439 239.209 137.062 239.209H135.941C135.807 239.209 135.708 239.165 135.641 239.087C135.574 239.01 135.541 238.91 135.541 238.788V216.06C135.541 215.938 135.574 215.838 135.641 215.76C135.708 215.682 135.807 215.638 135.941 215.638H139.414V215.627ZM138.216 217.858V227.524H139.37C139.77 227.524 140.058 227.413 140.247 227.18C140.435 226.958 140.524 226.669 140.524 226.325V219.056C140.524 218.712 140.424 218.424 140.236 218.202C140.047 217.98 139.747 217.858 139.37 217.858H138.216Z" fill="#133E5E"/>
<path d="M164.053 215.627C164.175 215.627 164.275 215.66 164.353 215.727C164.43 215.793 164.475 215.893 164.475 216.026V216.703C164.475 217.047 164.386 217.325 164.197 217.547C164.009 217.758 163.764 217.869 163.454 217.869H161.001V226.436H163.653C163.775 226.436 163.875 226.469 163.953 226.536C164.031 226.602 164.075 226.702 164.075 226.835V227.512C164.075 227.856 163.986 228.134 163.798 228.356C163.609 228.567 163.365 228.678 163.054 228.678H161.001V236.968H163.454C163.764 236.968 164.009 237.079 164.197 237.289C164.386 237.5 164.475 237.778 164.475 238.133V238.81C164.475 238.943 164.43 239.043 164.353 239.109C164.275 239.176 164.175 239.209 164.053 239.209H158.715C158.581 239.209 158.481 239.165 158.415 239.087C158.348 239.01 158.315 238.91 158.315 238.788V216.06C158.315 215.938 158.348 215.838 158.415 215.76C158.481 215.682 158.581 215.638 158.715 215.638H164.053V215.627ZM161.267 209.146C161.289 209.024 161.356 208.924 161.445 208.846C161.534 208.769 161.656 208.724 161.789 208.724H162.788C163.132 208.724 163.376 208.824 163.52 209.035C163.664 209.246 163.676 209.479 163.553 209.745L162.111 213.285C161.989 213.552 161.855 213.785 161.7 213.995C161.545 214.206 161.3 214.306 160.956 214.306H160.679C160.546 214.306 160.435 214.262 160.357 214.184C160.279 214.106 160.246 214.007 160.279 213.885L161.278 209.146H161.267Z" fill="#133E5E"/>
<path d="M187.082 215.627C187.215 215.627 187.315 215.671 187.382 215.749C187.448 215.827 187.482 215.927 187.482 216.049V238.777C187.482 238.899 187.448 238.999 187.382 239.076C187.315 239.154 187.215 239.198 187.082 239.198H185.961C185.617 239.198 185.351 239.11 185.162 238.954C184.973 238.788 184.862 238.566 184.818 238.288C184.818 238.133 184.774 237.811 184.663 237.334C184.563 236.857 184.441 236.28 184.285 235.603C184.13 234.926 183.963 234.193 183.775 233.383C183.586 232.573 183.397 231.752 183.22 230.919C183.042 230.087 182.854 229.255 182.687 228.445C182.521 227.635 182.388 226.891 182.277 226.225L182.476 238.033C182.487 238.377 182.399 238.666 182.199 238.876C181.999 239.087 181.711 239.209 181.322 239.209H180.201C180.068 239.209 179.968 239.165 179.901 239.087C179.835 239.01 179.802 238.91 179.802 238.788V216.06C179.802 215.938 179.835 215.838 179.901 215.76C179.968 215.682 180.068 215.638 180.201 215.638H181.322C181.655 215.638 181.921 215.727 182.132 215.904C182.343 216.082 182.454 216.326 182.476 216.615C182.499 216.825 182.565 217.214 182.654 217.769C182.743 218.324 182.865 218.967 183.009 219.711C183.153 220.454 183.32 221.265 183.486 222.152C183.653 223.04 183.841 223.906 184.019 224.782C184.197 225.659 184.374 226.48 184.541 227.268C184.707 228.056 184.862 228.733 184.996 229.31L184.796 216.67C184.796 216.359 184.907 216.115 185.118 215.927C185.329 215.738 185.606 215.649 185.961 215.649H187.082V215.627Z" fill="#133E5E"/>
<path d="M209.113 215.627C209.235 215.627 209.335 215.66 209.412 215.727C209.49 215.793 209.534 215.893 209.534 216.026V216.703C209.534 217.047 209.446 217.325 209.257 217.547C209.068 217.758 208.824 217.869 208.513 217.869H206.06V226.436H208.713C208.835 226.436 208.935 226.469 209.013 226.536C209.09 226.602 209.135 226.702 209.135 226.835V227.512C209.135 227.856 209.046 228.134 208.857 228.356C208.669 228.567 208.424 228.678 208.114 228.678H206.06V236.968H208.513C208.824 236.968 209.068 237.079 209.257 237.289C209.446 237.5 209.534 237.778 209.534 238.133V238.81C209.534 238.943 209.49 239.043 209.412 239.109C209.335 239.176 209.235 239.209 209.113 239.209H203.774C203.641 239.209 203.541 239.165 203.475 239.087C203.408 239.01 203.375 238.91 203.375 238.788V216.06C203.375 215.938 203.408 215.838 203.475 215.76C203.541 215.682 203.641 215.638 203.774 215.638H209.113V215.627ZM206.338 209.146C206.36 209.024 206.427 208.924 206.516 208.846C206.604 208.769 206.726 208.724 206.86 208.724H207.858C208.202 208.724 208.447 208.824 208.591 209.035C208.735 209.246 208.746 209.479 208.624 209.745L207.181 213.285C207.059 213.552 206.926 213.785 206.771 213.995C206.615 214.206 206.371 214.306 206.027 214.306H205.75C205.617 214.306 205.506 214.262 205.428 214.184C205.35 214.106 205.317 214.007 205.35 213.885L206.349 209.146H206.338Z" fill="#133E5E"/>
<path d="M230.61 215.627C230.732 215.627 230.832 215.66 230.91 215.727C230.988 215.793 231.032 215.893 231.032 216.026V216.703C231.032 217.047 230.943 217.325 230.754 217.547C230.566 217.758 230.322 217.869 230.011 217.869H227.558V226.436H230.211C230.333 226.436 230.433 226.469 230.51 226.536C230.588 226.603 230.632 226.702 230.632 226.836V227.512C230.632 227.857 230.544 228.134 230.355 228.356C230.166 228.567 229.922 228.678 229.611 228.678H227.558V236.968H230.011C230.322 236.968 230.566 237.079 230.754 237.29C230.943 237.5 231.032 237.778 231.032 238.133V238.81C231.032 238.943 230.988 239.043 230.91 239.11C230.832 239.176 230.732 239.209 230.61 239.209H225.272C225.139 239.209 225.039 239.165 224.972 239.087C224.906 239.01 224.872 238.91 224.872 238.788V216.06C224.872 215.938 224.906 215.838 224.972 215.76C225.039 215.682 225.139 215.638 225.272 215.638H230.61V215.627Z" fill="#133E5E"/>
<path d="M252.53 223.873C252.141 223.873 251.853 223.762 251.664 223.54C251.475 223.318 251.375 223.04 251.375 222.685V218.734C251.375 218.379 251.275 218.091 251.087 217.869C250.898 217.647 250.598 217.536 250.221 217.536C249.844 217.536 249.533 217.647 249.344 217.869C249.156 218.091 249.067 218.379 249.067 218.734C249.067 219.811 249.133 220.743 249.278 221.531C249.422 222.319 249.611 223.007 249.844 223.606C250.077 224.205 250.354 224.749 250.654 225.226C250.954 225.704 251.253 226.181 251.564 226.669C251.875 227.146 252.174 227.657 252.474 228.201C252.774 228.744 253.04 229.377 253.284 230.098C253.528 230.82 253.717 231.674 253.85 232.64C253.983 233.605 254.061 234.759 254.061 236.091C254.061 236.624 253.972 237.101 253.795 237.523C253.617 237.944 253.351 238.299 253.018 238.599C252.674 238.899 252.274 239.132 251.797 239.287C251.32 239.443 250.798 239.531 250.232 239.531C249.023 239.531 248.079 239.221 247.402 238.61C246.725 238 246.392 237.156 246.392 236.091V231.175C246.392 231.053 246.425 230.953 246.492 230.875C246.559 230.797 246.659 230.753 246.792 230.753H247.913C248.301 230.753 248.59 230.864 248.778 231.086C248.967 231.308 249.067 231.585 249.067 231.941V236.091C249.067 236.446 249.167 236.735 249.355 236.957C249.544 237.179 249.844 237.29 250.221 237.29C250.598 237.29 250.909 237.179 251.098 236.957C251.287 236.735 251.375 236.446 251.375 236.091C251.375 234.815 251.309 233.716 251.164 232.817C251.02 231.918 250.832 231.13 250.598 230.465C250.354 229.81 250.088 229.233 249.788 228.744C249.489 228.256 249.189 227.79 248.878 227.346C248.567 226.902 248.268 226.436 247.968 225.959C247.668 225.482 247.402 224.916 247.158 224.261C246.914 223.606 246.725 222.84 246.592 221.964C246.459 221.087 246.381 220.011 246.381 218.745C246.381 218.213 246.47 217.736 246.647 217.314C246.825 216.892 247.091 216.537 247.424 216.237C247.768 215.938 248.168 215.705 248.634 215.549C249.1 215.394 249.622 215.305 250.21 215.305C251.42 215.305 252.363 215.616 253.04 216.226C253.717 216.837 254.05 217.68 254.05 218.745V223.462C254.05 223.584 254.017 223.684 253.95 223.762C253.884 223.839 253.784 223.884 253.651 223.884H252.53V223.873Z" fill="#133E5E"/>
<path d="M48.4183 252.094V255.911H47.3418V247.333H48.4183V251.151H51.9365V247.333H53.0131V255.911H51.9365V252.094H48.4183Z" fill="#133E5E"/>
<path d="M64.8107 248.509C65.6764 249.375 66.1092 250.407 66.1092 251.605C66.1092 252.804 65.6764 253.847 64.8107 254.713C63.9451 255.578 62.8907 256.011 61.6477 256.011C60.4046 256.011 59.3503 255.578 58.4846 254.713C57.6189 253.847 57.1861 252.815 57.1861 251.605C57.1861 250.396 57.6189 249.375 58.4846 248.509C59.3503 247.644 60.4046 247.211 61.6477 247.211C62.8907 247.211 63.9562 247.644 64.8107 248.509ZM61.6477 248.154C60.7376 248.154 59.9385 248.487 59.2726 249.164C58.6067 249.841 58.2738 250.651 58.2738 251.617C58.2738 252.582 58.6067 253.403 59.2726 254.069C59.9385 254.735 60.7265 255.068 61.6477 255.068C62.5688 255.068 63.3568 254.735 64.0227 254.069C64.6886 253.403 65.0216 252.582 65.0216 251.617C65.0216 250.651 64.6886 249.841 64.0227 249.164C63.3568 248.487 62.5577 248.154 61.6477 248.154ZM63.7009 246.612H62.3247L61.6255 246.09L60.9707 246.612H59.5945L61.6144 244.958L63.7009 246.612Z" fill="#133E5E"/>
<path d="M73.0236 248.265V255.911H71.947V248.265H69.8938V247.333H75.0657V248.265H73.0236Z" fill="#133E5E"/>
<path d="M83.8334 247.333V248.265H80.2486V251.15H83.8334V252.083H80.2486V254.968H83.8334V255.9H79.161V247.322H83.8334V247.333Z" fill="#133E5E"/>
<path d="M88.406 255.911V247.333H89.4825V254.968H92.5679V255.9H88.406V255.911Z" fill="#133E5E"/>
<path d="M102.656 252.205H106.141V253.137H102.656V252.205Z" fill="#133E5E"/>
<path d="M118.683 253.104H117.673V255.911H116.596V247.333H119.049C119.759 247.433 120.358 247.721 120.847 248.199C121.402 248.765 121.69 249.43 121.69 250.207C121.69 250.984 121.402 251.672 120.825 252.249C120.447 252.638 120.103 252.86 119.815 252.937L121.735 255.911H120.492L118.683 253.104ZM117.673 248.276V252.16H118.738C119.237 252.16 119.681 251.972 120.048 251.606C120.414 251.239 120.603 250.773 120.603 250.218C120.603 249.664 120.414 249.209 120.048 248.831C119.681 248.454 119.237 248.276 118.738 248.276H117.673Z" fill="#133E5E"/>
<path d="M130.702 247.333V248.265H127.117V251.15H130.702V252.083H127.117V254.968H130.702V255.9H126.041V247.322H130.702V247.333Z" fill="#133E5E"/>
<path d="M137.65 251.395C137.039 251.195 136.54 250.907 136.163 250.529C135.785 250.152 135.608 249.708 135.608 249.175C135.608 248.643 135.796 248.21 136.185 247.81C136.573 247.422 137.05 247.222 137.628 247.222C138.205 247.222 138.682 247.422 139.093 247.821C139.303 248.032 139.47 248.321 139.592 248.687L138.626 249.064C138.504 248.743 138.404 248.532 138.305 248.443C138.105 248.243 137.883 248.143 137.639 248.143C137.394 248.143 137.172 248.243 136.984 248.432C136.795 248.62 136.695 248.876 136.695 249.164C136.695 249.453 136.795 249.708 136.995 249.919C137.206 250.119 137.483 250.296 137.838 250.463C138.527 250.685 139.093 251.029 139.559 251.484C140.091 252.005 140.347 252.627 140.347 253.348C140.347 254.069 140.08 254.68 139.559 255.201C139.037 255.723 138.393 255.989 137.639 255.989C136.884 255.989 136.229 255.723 135.696 255.19C135.286 254.78 135.031 254.247 134.931 253.603L135.974 253.226C136.04 253.847 136.218 254.302 136.507 254.591C136.828 254.913 137.206 255.068 137.639 255.068C138.071 255.068 138.46 254.902 138.793 254.58C139.126 254.258 139.281 253.847 139.281 253.359C139.281 252.871 139.126 252.471 138.793 252.15C138.471 251.828 138.083 251.572 137.65 251.395Z" fill="#133E5E"/>
<path d="M147.217 248.265V255.911H146.14V248.265H144.087V247.333H149.259V248.265H147.217Z" fill="#133E5E"/>
<path d="M156.328 247.333L159.436 255.911H158.315L157.016 252.349H154.686L153.365 255.911H152.233L155.385 247.333H156.317H156.328ZM156.684 251.417L155.862 249.142L155.03 251.417H156.684Z" fill="#133E5E"/>
<path d="M168.182 247.333H169.258V253.403C169.169 254.08 168.881 254.657 168.392 255.135C167.826 255.701 167.138 255.978 166.306 255.978C165.474 255.978 164.774 255.69 164.197 255.124C163.631 254.558 163.343 253.881 163.343 253.093V247.333H164.419V253.093C164.419 253.636 164.608 254.103 164.974 254.48C165.351 254.857 165.784 255.046 166.295 255.046C166.805 255.046 167.227 254.857 167.604 254.48C167.971 254.103 168.159 253.648 168.159 253.093V247.333H168.182Z" fill="#133E5E"/>
<path d="M175.917 253.104H174.907V255.911H173.831V247.333H176.283C176.994 247.433 177.593 247.721 178.081 248.199C178.636 248.765 178.925 249.43 178.925 250.207C178.925 250.984 178.636 251.672 178.059 252.249C177.682 252.638 177.338 252.86 177.049 252.937L178.98 255.911H177.737L175.928 253.104H175.917ZM174.907 248.276V252.16H175.973C176.472 252.16 176.916 251.972 177.282 251.606C177.66 251.239 177.848 250.773 177.848 250.218C177.848 249.664 177.66 249.209 177.282 248.831C176.905 248.465 176.472 248.276 175.973 248.276H174.907Z" fill="#133E5E"/>
<path d="M186.683 247.333L189.79 255.911H188.669L187.371 252.349H185.04L183.719 255.911H182.587L185.739 247.333H186.672H186.683ZM187.027 251.417L186.205 249.142L185.373 251.417H187.027Z" fill="#133E5E"/>
<path d="M194.751 247.333L199.634 254.191V247.333H200.711V255.911H199.523L194.762 249.231V255.911H193.686V247.333H194.751Z" fill="#133E5E"/>
<path d="M207.925 248.265V255.911H206.848V248.265H204.795V247.333H209.967V248.265H207.925Z" fill="#133E5E"/>
<path d="M41.6594 252.504H2.33765C2.0269 252.504 1.78273 252.26 1.78273 251.949C1.78273 251.639 2.0269 251.395 2.33765 251.395H41.6594C41.9702 251.395 42.2143 251.639 42.2143 251.949C42.2143 252.26 41.9702 252.504 41.6594 252.504Z" fill="#133E5E"/>
<path d="M253.484 252.504H214.162C213.852 252.504 213.607 252.26 213.607 251.949C213.607 251.639 213.852 251.395 214.162 251.395H253.484C253.795 251.395 254.039 251.639 254.039 251.949C254.039 252.26 253.795 252.504 253.484 252.504Z" fill="#133E5E"/>
</g>
<defs>
<clipPath id="clip0_1106_42452">
<rect width="256" height="256" fill="white"/>
</clipPath>
</defs>
</svg>
