<?xml version="1.0" encoding="UTF-8"?>
<svg id="Calque_1" data-name="Calque 1" xmlns="http://www.w3.org/2000/svg" version="1.1" viewBox="0 0 451.3 255.6">
  <defs>
    <style>
      .cls-1 {
        fill: #d96729;
      }

      .cls-1, .cls-2 {
        stroke-width: 0px;
      }

      .cls-2 {
        fill: #fff;
      }
    </style>
  </defs>
  <g>
    <rect class="cls-1" x="-.3" width="451.6" height="255.6"/>
    <g>
      <g>
        <polygon class="cls-2" points="47.5 158.3 43.3 158.3 43.3 179.9 55.7 179.9 55.7 176.1 47.5 176.1 47.5 158.3"/>
        <path class="cls-2" d="M68.8,166.7c-1-1.2-2.7-1.9-4.6-1.9-4.2,0-7.2,3.3-7.2,7.8s3.1,7.8,7.1,7.8,3.6-.8,4.7-2.1v1.7h4v-14.8h-4v1.5ZM64.9,176.5c-2.2,0-3.8-1.8-3.8-4s1.7-4,3.8-4,3.9,1.5,3.9,4-1.7,4-3.9,4Z"/>
        <path class="cls-2" d="M100.4,165.3c0-5.2-3.7-7-7-7h-8.5v21.6h4.2v-7.7h1.5l5.2,7.7h5l-5.5-7.9c3.3-.7,5-3.9,5-6.7ZM89.2,162.2h4c2.1,0,3,1.6,3,3.3s-.5,3.2-3.5,3.2h-3.5v-6.4Z"/>
        <path class="cls-2" d="M110.1,164.8c-4.5,0-7.8,3.3-7.8,7.8s3.4,7.8,7.8,7.8,7.9-3.3,7.9-7.8-3.4-7.8-7.9-7.8ZM110.1,176.5c-2.2,0-3.8-1.7-3.8-4s1.6-4,3.8-4,3.8,1.7,3.8,4-1.6,4-3.8,4Z"/>
        <path class="cls-2" d="M131,173c0,2.6-1.8,3.5-3.4,3.5s-2.7-1-2.7-3.3v-8.1h-4v8.3c0,4.4,2.2,6.9,6,6.9s3.1-.5,4.2-1.9v1.6h4v-14.8h-4v7.9Z"/>
        <polygon class="cls-2" points="144.3 159.9 140.3 159.9 140.3 165.1 137.7 165.1 137.7 168.4 140.3 168.4 140.3 179.9 144.3 179.9 144.3 168.4 147.3 168.4 147.3 165.1 144.3 165.1 144.3 159.9"/>
        <path class="cls-2" d="M156.3,164.8c-4.5,0-7.8,3.3-7.8,7.8s3.3,7.8,7.8,7.8,5.4-1.3,6.7-3.4v-.2c.1,0-2.7-2.1-2.7-2.1v.2c-.9,1.1-2.3,1.7-3.8,1.7s-3.3-.9-3.8-2.6h11v-.4c0-.4,0-.8,0-1.2,0-4.4-3.2-7.6-7.5-7.6ZM152.8,171.1c.6-2.3,2.5-2.6,3.6-2.6,1.8,0,3.2,1,3.5,2.6h-7.1Z"/>
        <path class="cls-2" d="M184.7,158c-6.1,0-11,5-11,11.2s4.9,11.2,11,11.2,11-5,11-11.2-4.9-11.2-11-11.2ZM184.6,161.9c3.8,0,6.8,3.2,6.8,7.2s-3,7.2-6.8,7.2-6.7-3.2-6.7-7.2,2.9-7.2,6.7-7.2Z"/>
        <path class="cls-2" d="M208.7,173c0,2.6-1.8,3.5-3.4,3.5s-2.7-1-2.7-3.3v-8.1h-4v8.3c0,4.4,2.2,6.9,6,6.9s3.1-.5,4.2-1.9v1.6h4v-14.8h-4v7.9Z"/>
        <polygon class="cls-2" points="222.6 174.5 219 165.1 214.6 165.1 220.8 179.9 224.4 179.9 230.6 165.1 226.3 165.1 222.6 174.5"/>
        <path class="cls-2" d="M240.4,164.8c-1.7,0-3,.9-3.9,2.5v-2.1h-4v14.8h4.1v-5.2c0-3.9,1.2-6.1,3.4-6.1s1.3.2,2,.5h.3c0,.1.8-3.7.8-3.7h-.2c-.6-.4-1.5-.6-2.4-.6Z"/>
        <rect class="cls-2" x="245" y="165.1" width="4" height="14.8"/>
        <path class="cls-2" d="M247.1,157.9c-1.4,0-2.6,1.1-2.6,2.4s1.2,2.4,2.6,2.4,2.5-1.1,2.5-2.4-1.1-2.4-2.5-2.4Z"/>
        <polygon class="cls-2" points="261.5 163.4 258.3 157.9 253.9 157.9 258.1 163.4 261.5 163.4"/>
        <path class="cls-2" d="M259.9,164.8c-4.5,0-7.8,3.3-7.8,7.8s3.3,7.8,7.8,7.8,5.4-1.3,6.7-3.4v-.2c.1,0-2.7-2.1-2.7-2.1v.2c-.9,1.1-2.3,1.7-3.8,1.7s-3.3-.9-3.8-2.6h11v-.4c0-.4,0-.8,0-1.2,0-4.4-3.2-7.6-7.5-7.6ZM256.3,171.1c.6-2.3,2.5-2.6,3.6-2.6,1.8,0,3.2,1,3.5,2.6h-7.1Z"/>
        <path class="cls-2" d="M278.3,164.8c-1.7,0-3,.9-3.9,2.5v-2.1h-4v14.8h4.1v-5.2c0-3.9,1.2-6.1,3.4-6.1s1.3.2,2,.5h.3c0,.1.8-3.7.8-3.7h-.2c-.6-.4-1.5-.6-2.4-.6Z"/>
        <path class="cls-2" d="M289.3,164.8c-4.5,0-7.8,3.3-7.8,7.8s3.3,7.8,7.8,7.8,5.4-1.3,6.7-3.4v-.2c.1,0-2.7-2.1-2.7-2.1v.2c-.9,1.1-2.3,1.7-3.8,1.7s-3.3-.9-3.8-2.6h11v-.4c0-.4,0-.8,0-1.2,0-4.4-3.2-7.6-7.5-7.6ZM285.8,171.1c.6-2.3,2.5-2.6,3.6-2.6,1.8,0,3.2,1,3.5,2.6h-7.1Z"/>
        <path class="cls-2" d="M316.9,158.3h-4.4l-8.1,21.6h4.5l1.8-5.2h8l1.8,5.2h4.5l-8-21.5v-.2ZM317.3,171h-5.4l2.7-7.6,2.7,7.6Z"/>
        <polygon class="cls-2" points="331.5 159.9 327.5 159.9 327.5 165.1 324.9 165.1 324.9 168.4 327.5 168.4 327.5 179.9 331.5 179.9 331.5 168.4 334.5 168.4 334.5 165.1 331.5 165.1 331.5 159.9"/>
        <path class="cls-2" d="M346.9,173c0,2.6-1.8,3.5-3.4,3.5s-2.7-1-2.7-3.3v-8.1h-4v8.3c0,4.4,2.2,6.9,6,6.9s3.1-.5,4.2-1.9v1.6h4v-14.8h-4v7.9Z"/>
        <path class="cls-2" d="M362.8,164.8c-1.7,0-3,.9-3.9,2.5v-2.1h-4v14.8h4.1v-5.2c0-3.9,1.2-6.1,3.4-6.1s1.3.2,2,.5h.3c0,.1.8-3.7.8-3.7h-.2c-.6-.4-1.5-.6-2.4-.6Z"/>
        <rect class="cls-2" x="367.4" y="165.1" width="4" height="14.8"/>
        <path class="cls-2" d="M369.4,157.9c-1.4,0-2.6,1.1-2.6,2.4s1.2,2.4,2.6,2.4,2.5-1.1,2.5-2.4-1.1-2.4-2.5-2.4Z"/>
        <path class="cls-2" d="M383.6,164.8c-1.4,0-3.2.7-4.2,2v-1.6h-4v14.8h4v-7.8c0-2.6,1.8-3.5,3.4-3.5s2.7,1,2.7,3.3v8h4v-8.3c0-4.4-2.2-6.9-6-6.9Z"/>
        <path class="cls-2" d="M400.2,164.8c-4.5,0-7.8,3.3-7.8,7.8s3.3,7.8,7.8,7.8,5.4-1.3,6.7-3.4v-.2c.1,0-2.7-2.1-2.7-2.1v.2c-.9,1.1-2.3,1.7-3.8,1.7s-3.3-.9-3.8-2.6h11v-.4c0-.4,0-.8,0-1.2,0-4.4-3.2-7.6-7.5-7.6ZM396.6,171.1c.6-2.3,2.5-2.6,3.6-2.6,1.8,0,3.2,1,3.5,2.6h-7.1Z"/>
      </g>
      <g>
        <polygon class="cls-2" points="113.6 190.9 116.3 190.9 116.3 201.1 117.8 201.1 117.8 190.9 120.5 190.9 120.5 189.4 113.6 189.4 113.6 190.9"/>
        <path class="cls-2" d="M127.7,196.2c.8-.8,1.2-1.7,1.2-2.8s-.4-2-1.2-2.8c-.6-.6-1.4-1-2.4-1.2h-3.3v11.7h1.5v-3.7h1.4l2.3,3.7h1.8l-2.6-4c.3,0,.7-.4,1.2-.9ZM123.5,195.8v-4.9h1.4c.7,0,1.3.2,1.7.7.5.5.7,1.1.7,1.7s-.2,1.3-.7,1.7c-.5.5-1.1.7-1.7.7h-1.4Z"/>
        <path class="cls-2" d="M129.8,201.1h1.6l1.5-4.1h3.1l1.5,4.1h1.6l-4.7-11.7-4.7,11.7ZM133.5,195.5l1-2.7,1,2.7h-2Z"/>
        <polygon class="cls-2" points="144.2 197.8 141.1 189.4 139.5 189.4 144.2 201.2 148.9 189.4 147.2 189.4 144.2 197.8"/>
        <path class="cls-2" d="M149.2,201.1h1.6l1.5-4.1h3.1l1.5,4.1h1.6l-4.7-11.7-4.7,11.7ZM152.9,195.5l1-2.7,1,2.7h-2Z"/>
        <path class="cls-2" d="M166.2,197.2c0,.7-.2,1.3-.7,1.7s-1.1.7-1.7.7-1.3-.2-1.7-.7-.7-1.1-.7-1.7v-7.8h-1.5v7.8c0,1.1.4,2,1.2,2.8.8.8,1.7,1.2,2.8,1.2s2-.4,2.8-1.2c.6-.6,1-1.4,1.2-2.4v-8.3h-1.5v7.8Z"/>
        <polygon class="cls-2" points="177.6 189.4 175.9 189.4 173.7 193.2 171.5 189.4 169.8 189.4 172.8 194.7 169.1 201.1 170.9 201.1 173.7 196.2 176.5 201.1 178.3 201.1 174.6 194.7 177.6 189.4"/>
        <path class="cls-2" d="M188.2,189.4h-3.3v11.7h1.5v-3.7h1.4c1.1,0,2-.4,2.8-1.2.8-.8,1.2-1.7,1.2-2.8s-.4-2-1.2-2.8c-.6-.6-1.4-1-2.4-1.2ZM189.5,195.1c-.5.5-1.1.7-1.7.7h-1.4v-4.9h1.4c.7,0,1.3.2,1.7.7.5.5.7,1.1.7,1.7s-.2,1.3-.7,1.7Z"/>
        <path class="cls-2" d="M199.7,197.2c0,.7-.2,1.3-.7,1.7-.5.5-1.1.7-1.7.7s-1.3-.2-1.7-.7c-.5-.5-.7-1.1-.7-1.7v-7.8h-1.5v7.8c0,1.1.4,2,1.2,2.8.8.8,1.7,1.2,2.8,1.2s2-.4,2.8-1.2c.6-.6,1-1.4,1.2-2.4v-8.3h-1.5v7.8Z"/>
        <path class="cls-2" d="M207.3,193.2c.7-.2,1.1-.6,1.1-1.3s-.2-1.3-.7-1.7-1.1-.7-1.7-.7h-2.4v11.7h3c.8,0,1.5-.4,2.3-1.2.8-.8,1.2-1.8,1.2-3s-.3-2-1-2.7c-.6-.6-1.2-1-1.7-1.1ZM205,190.9h.9c.3,0,.5,0,.7.3s.3.4.3.7,0,.5-.3.7c-.2.2-.4.2-.6.3h-1v-1.9ZM207.6,198.8c-.5.5-.9.7-1.2.8h0s-1.5,0-1.5,0v-5.3h.8c.7,0,1.3.3,1.8.8.5.5.8,1.1.8,1.8s-.3,1.4-.8,1.9Z"/>
        <polygon class="cls-2" points="213.2 189.4 211.7 189.4 211.7 201.1 217.4 201.1 217.4 199.6 213.2 199.6 213.2 189.4"/>
        <rect class="cls-2" x="219.3" y="189.4" width="1.5" height="11.7"/>
        <path class="cls-2" d="M229,190.8c1.1,0,2.2.5,3.3,1.4l1.1-1c-1.4-1.3-2.9-1.9-4.4-1.9s-3.1.6-4.2,1.8c-1.2,1.2-1.8,2.6-1.8,4.2s.6,3.1,1.8,4.2c1.2,1.2,2.6,1.8,4.2,1.8s3-.6,4.4-1.9l-1.1-1c-1,.9-2.1,1.4-3.3,1.4s-2.3-.4-3.1-1.3-1.3-1.9-1.3-3.2.4-2.3,1.3-3.1,1.9-1.3,3.1-1.3Z"/>
        <path class="cls-2" d="M238.4,193.6c-.5-.2-.8-.5-1.1-.7-.2-.2-.4-.5-.4-.9s.1-.6.4-.9c.2-.2.5-.4.9-.4s.6.1.9.4c.1.1.3.4.5.9l1.4-.5c-.2-.6-.5-1.1-.8-1.4-.5-.5-1.2-.8-1.9-.8s-1.4.3-1.9.8c-.5.5-.8,1.2-.8,1.9s.3,1.4.8,1.9c.5.5,1.2.9,2,1.2.6.2,1.1.6,1.5,1,.4.4.6.9.6,1.5s-.2,1.1-.6,1.5c-.4.4-.9.6-1.5.6s-1.1-.2-1.5-.6c-.4-.4-.6-1-.7-1.8l-1.5.5c.2,1,.5,1.8,1.1,2.4.7.7,1.6,1.1,2.6,1.1s1.9-.4,2.6-1.1c.7-.7,1.1-1.6,1.1-2.6s-.4-1.9-1.1-2.6c-.6-.6-1.4-1.1-2.3-1.4Z"/>
        <polygon class="cls-2" points="248.5 201.1 254.8 201.1 254.8 199.6 250 199.6 250 196 254.8 196 254.8 194.5 250 194.5 250 190.9 254.8 190.9 254.8 189.4 248.5 189.4 248.5 201.1"/>
        <polygon class="cls-2" points="256 190.9 258.8 190.9 258.8 201.1 260.3 201.1 260.3 190.9 263 190.9 263 189.4 256 189.4 256 190.9"/>
        <path class="cls-2" d="M275.5,190.8c1.1,0,2.2.5,3.3,1.4l1.1-1c-1.4-1.3-2.9-1.9-4.4-1.9s-3.1.6-4.2,1.8c-1.2,1.2-1.8,2.6-1.8,4.2s.6,3.1,1.8,4.2c1.2,1.2,2.6,1.8,4.2,1.8s2.9-.6,4.1-1.7v-4.2h-1.5s-2.7,0-2.7,0v1.5h2.7v2c-.7.6-1.6.8-2.6.8s-2.3-.4-3.1-1.3-1.3-1.9-1.3-3.2.4-2.3,1.3-3.1c.9-.9,1.9-1.3,3.1-1.3Z"/>
        <path class="cls-2" d="M287.6,196.2c.8-.8,1.2-1.7,1.2-2.8s-.4-2-1.2-2.8c-.6-.6-1.4-1-2.4-1.2h-3.3v11.7h1.5v-3.7h1.4l2.3,3.7h1.8l-2.6-4c.3,0,.7-.4,1.2-.9ZM283.4,195.8v-4.9h1.4c.7,0,1.3.2,1.7.7.5.5.7,1.1.7,1.7s-.2,1.3-.7,1.7c-.5.5-1.1.7-1.7.7h-1.4Z"/>
        <path class="cls-2" d="M289.7,201.1h1.6l1.5-4.1h3.1l1.5,4.1h1.6l-4.7-11.7-4.7,11.7ZM293.4,195.5l1-2.7,1,2.7h-2Z"/>
        <polygon class="cls-2" points="304.1 197.8 301 189.4 299.4 189.4 304.1 201.1 308.8 189.4 307.1 189.4 304.1 197.8"/>
        <rect class="cls-2" x="310.4" y="189.4" width="1.5" height="11.7"/>
        <polygon class="cls-2" points="318.5 188.7 316.9 186.6 315.1 186.6 317.1 188.7 318.5 188.7"/>
        <polygon class="cls-2" points="314.2 201.1 320.5 201.1 320.5 199.6 315.7 199.6 315.7 196 320.5 196 320.5 194.5 315.7 194.5 315.7 190.9 320.5 190.9 320.5 189.4 314.2 189.4 314.2 201.1"/>
        <path class="cls-2" d="M328.3,196.2c.8-.8,1.2-1.7,1.2-2.8s-.4-2-1.2-2.8c-.6-.6-1.4-1-2.4-1.2h-3.3v11.7h1.5v-3.7h1.4l2.3,3.7h1.8l-2.6-4c.3,0,.7-.4,1.2-.9ZM324.1,195.8v-4.9h1.4c.7,0,1.3.2,1.7.7.5.5.7,1.1.7,1.7s-.2,1.3-.7,1.7c-.5.5-1.1.7-1.7.7h-1.4Z"/>
        <polygon class="cls-2" points="337.4 190.9 337.4 189.4 331.1 189.4 331.1 201.1 337.4 201.1 337.4 199.6 332.6 199.6 332.6 196 337.4 196 337.4 194.5 332.6 194.5 332.6 190.9 337.4 190.9"/>
      </g>
    </g>
  </g>
  <g>
    <path class="cls-2" d="M225.5,30.2c.7,0,1.2,0,1.7.1,1.6.2,3,.7,4.4,1.5,2.8,1.5,5.5,3.4,8,5.3,3,2.3,6,4.7,9,7.1,2.1,1.7,4.2,3.5,6.3,5.3,0,0,0,0,0,.1-17.5-4.8-35.3-6.1-53.3-4.3h0c0-.2.1-.2.2-.2,2.3-2,4.6-4,6.9-6.1,2.4-2.1,4.8-4.2,7.6-5.9,2.1-1.3,4.3-2.2,6.7-2.6.3,0,1.5-.3,2.4-.3h0Z"/>
    <path class="cls-2" d="M194.9,54.3c-1,0-2,0-2.9,0-.4,0-.8-.2-1.1-.6-.2-.3-.2-.6,0-.8,0,0,.1-.2.2-.2,1.9-1.5,3.8-2.9,6.2-3.6,1.3-.4,2.6-.6,4-.7,2.1-.1,4.2,0,6.3.2,1.7.1,3.4.3,5.1.4,2.1.2,4.3.5,6.4.7,3.9.5,7.8,1.2,11.7,2.1,2.8.7,5.6,1.6,8.2,2.9,2.1,1,4,2.3,5.5,4,1.3,1.5,2.2,3.2,2.4,5.2.2,1.9-.2,3.6-.9,5.4-1,2.3-2.5,4.2-4.2,6-3.4,3.5-7.3,6.4-11.5,9-2.4,1.5-4.9,2.9-7.4,4.4-2.9,1.7-5.3,3.9-7.2,6.7-.8,1.2-1.4,2.6-1.7,4.1-.3,1.6,0,3.2.7,4.6.8,1.7,2,3.2,3.4,4.5,3.7,3.4,7.8,6.2,12.3,8.5,3.6,1.9,7.3,3.4,11.1,4.6.5.2,1,.4,1.6.7.2,0,.4.2.5.4.4.4.4.7.1,1.2-.2.3-.5.6-.8.9-2.4,1.9-4.8,3.8-7.3,5.6-2,1.5-4.3,2.7-6.7,3.4-3,.8-6,.5-8.9-.8-3-1.3-5.5-3.3-8.1-5.3-7.6-5.9-15.3-11.8-22.9-17.6-8.7-6.7-17.4-13.3-26-20-1.4-1-2.7-2.2-3.6-3.6-1.8-2.8-1.8-5.6-.1-8.4,1.1-1.8,2.6-3.2,4.3-4.5,6.6-5,13.1-10,19.6-15.1,1.4-1.1,2.8-1.9,4.6-2.1.9-.1,1.8,0,2.7,0,1,0,1.9.2,2.9.3,1.7.2,3.4.4,5,.7,2.7.5,5.3,1.1,7.9,2.1,1.7.6,3.4,1.4,4.8,2.7,1.1,1,2,2.2,2.3,3.7.3,1.4,0,2.7-.6,4-.7,1.4-1.7,2.6-2.8,3.7-2.6,2.7-5.5,4.9-8.6,7-3.5,2.4-6.3,5.4-8.1,9.2-.9,1.9-1.6,3.9-1.9,6-.4,2.7.1,5.3,1.5,7.8,1.5,2.8,3.8,5,6.4,6.8,3,2.1,6.3,3.5,9.8,4.4.6.2,1.2.4,1.9.5.6.1,1.1-.2,1.4-.7.3-.5.3-1-.2-1.5-.5-.5-1-.9-1.5-1.3-1-.7-2-1.2-3-1.9-2.5-1.7-4-4.1-4.8-6.9-1-3.4-.5-6.7,1-9.9,1.5-3.3,3.8-6.1,6.6-8.4,2.2-1.8,4.6-3.3,7.1-4.8,1.8-1.1,3.7-2.3,5.5-3.5,1.6-1.1,3-2.5,4-4.2.7-1.2,1.1-2.4,1.1-3.8,0-1.6-.6-3.1-1.5-4.4-1.3-1.8-3-3.1-4.8-4.2-2.2-1.3-4.7-2.2-7.1-2.9-3.1-.9-6.2-1.6-9.4-2.1-1.9-.3-3.8-.5-5.8-.6-1.5-.1-4.3-.1-4.4-.1Z"/>
    <path class="cls-2" d="M235.8,103.7c0-1.9.8-3.5,2-5,1-1.3,2.4-2.3,3.7-3.3,4.7-3.6,9.7-6.7,14.9-9.4,4-2.1,7.5-4.7,10.8-7.7,1.2-1.2,2.5-2.3,3.5-3.7,1.3-1.8,2.1-3.7,2.3-5.9.1-.9,0-1.9,0-2.8,0-.4,0-.9.1-1.3.1-.6.6-.8,1.1-.5.2,0,.4.2.6.3,2.7,1.9,5.4,3.9,8.1,5.8,2.2,1.6,4.3,3.2,6.3,5.1,1.4,1.4,2.5,2.9,3.2,4.7,1.1,2.7.3,5.7-1.7,7.8-2,2.1-4.4,3.8-6.8,5.5-8.9,6.9-17.8,13.7-26.7,20.6-1.3,1-2.7,2.1-4,3.1-.6.5-1.3.9-2.1,1-.8.2-1.6.1-2.3-.3-.8-.4-1.6-.9-2.3-1.4-2.1-1.5-4.2-3.1-6.2-5-1.3-1.2-2.5-2.4-3.4-4-.7-1.2-1-2.4-1-3.8Z"/>
  </g>
</svg>