<?xml version="1.0" encoding="UTF-8"?>
<svg id="Calque_1" data-name="Calque 1" xmlns="http://www.w3.org/2000/svg" version="1.1" viewBox="0 0 2834.6 2834.6">
  <defs>
    <style>
      .cls-1 {
        fill: #1e552e;
      }

      .cls-1, .cls-2, .cls-3, .cls-4, .cls-5, .cls-6 {
        stroke-width: 0px;
      }

      .cls-2 {
        fill: #f0d624;
      }

      .cls-3 {
        fill: #28572e;
      }

      .cls-4 {
        fill: #edd424;
      }

      .cls-5 {
        fill: #24552e;
      }

      .cls-6 {
        fill: #fcde23;
      }
    </style>
  </defs>
  <rect class="cls-1" width="2834.6" height="2834.6"/>
  <g>
    <path class="cls-1" d="M2488.6,2304.6c0,39.1,30.6,69.4,69.7,69.2,38-.2,68.5-30.9,68.6-69.1.1-38.1-30.3-68.8-68.5-69.1-39.2-.3-69.8,29.9-69.8,69M1319.8,1108.4c-4.1-13.7-7-23.5-9.9-33.3-41.4-138.2-91.2-273-166.5-396.9-41.7-68.5-89.7-131.8-155.6-179.3-58.2-42-122.1-62.9-194.2-47.4-53.9,11.6-97.8,41.8-136.9,79.4-66.5,64.1-113.7,141.7-154.2,223.7-77.3,156.6-127,322.6-166.4,492-45.2,193.9-73.9,390.5-92.4,588.6-16,171.1-23.8,342.5-24.4,514.3,0,23.9-.1,23.9,24.4,23.9,78.7,0,157.4-.3,236.1.3,12.1,0,15.8-2.8,15.8-15.4-.4-102.4,1.7-204.9,5.2-307.3,8.7-251.8,27.3-502.8,63.3-752.3,22-152.8,49.7-304.5,95.6-452.2,20.1-64.8,43.5-128.3,79.9-186.2,15.4-24.4,32.8-47.1,57.8-62.9,26.3-16.6,53-17,80.1-2.3,21.3,11.6,37.7,28.7,52,47.9,34.7,46.5,57.6,99.1,77.3,153.1,51,139.5,80.1,284.4,103.8,430.4,33.1,203.8,51.2,409.3,62,615.3,6.6,126,9.9,252.2,9.2,378.4,0,13.8,4.1,16,16.6,15.9,81.2-.6,162.4-.7,243.5.1,14.5.1,16.6-4.7,16.6-17.4-.6-91.6,1.4-183.1,5-274.6,6-155.8,16.2-311.2,33-466.2,15.5-143.6,35.8-286.5,66.2-427.8,23.1-107.5,50.5-213.7,95.4-314.5,19.8-44.4,42.5-87.3,78.4-121.4,42.3-40.3,88.1-39.6,129.6,1.6,12.7,12.6,23.5,26.8,33.1,41.8,29.4,45.7,50.1,95.4,67.5,146.5,61.8,181.6,92.9,369.8,118.6,559.1,14.5,106.9,24.9,214.2,33.6,321.7,11.3,139.1,18.3,278.5,22.7,417.9,2.7,86.1,4.1,172.2,3.4,258.3,0,9.8,2.8,12.5,12.6,12.5,83.6-.4,167.3-.4,250.9,0,10.8,0,13.2-3.4,12.9-13.5-1.3-53.4-1.4-106.9-2.9-160.3-5.1-180.6-18.4-360.5-41.4-539.8-20.9-162.5-49.2-323.5-89.7-482.3-39.6-155.1-88.6-306.9-163-449.3-40.1-76.7-86.7-148.9-151.5-207.5-105.3-95.2-221.3-99.4-333.3-12.4-47.8,37.2-85.8,83.3-119.3,133.2-77.3,115.2-128.6,242.5-171.3,373.7-9.6,29.5-18.3,59.2-28.8,93"/>
    <path class="cls-6" d="M1319.8,1108.4c10.4-33.8,19.1-63.5,28.8-93,42.8-131.1,94-258.4,171.3-373.7,33.5-49.9,71.5-96.1,119.3-133.2,112-87,227.9-82.8,333.3,12.4,64.8,58.6,111.4,130.8,151.5,207.5,74.4,142.5,123.4,294.2,163,449.3,40.5,158.8,68.8,319.8,89.7,482.3,23,179.3,36.3,359.2,41.4,539.8,1.5,53.4,1.6,106.9,2.9,160.3.2,10.1-2.2,13.5-12.9,13.5-83.6-.4-167.3-.4-250.9,0-9.8,0-12.6-2.7-12.6-12.5.7-86.1-.6-172.2-3.4-258.3-4.4-139.5-11.5-278.8-22.7-417.9-8.7-107.5-19.1-214.8-33.6-321.7-25.6-189.3-56.7-377.5-118.6-559.1-17.4-51.1-38.1-100.8-67.5-146.5-9.7-15-20.4-29.2-33.1-41.8-41.5-41.1-87.3-41.8-129.6-1.6-35.9,34.1-58.6,77-78.4,121.4-44.9,100.8-72.3,207.1-95.4,314.5-30.4,141.3-50.7,284.2-66.2,427.8-16.7,155-27,310.5-33,466.2-3.5,91.5-5.5,183-5,274.6,0,12.8-2.1,17.6-16.6,17.4-81.2-.8-162.3-.7-243.5-.1-12.5,0-16.7-2.2-16.6-15.9.7-126.2-2.6-252.4-9.2-378.4-10.8-206.1-28.9-411.5-62-615.3-23.7-146-52.8-290.9-103.8-430.4-19.7-54-42.6-106.6-77.3-153.1-14.3-19.2-30.6-36.3-52-47.9-27.1-14.7-53.9-14.3-80.1,2.3-24.9,15.7-42.4,38.4-57.8,62.9-36.4,57.9-59.8,121.4-79.9,186.2-45.9,147.8-73.6,299.4-95.6,452.2-35.9,249.5-54.6,500.5-63.3,752.3-3.5,102.4-5.7,204.8-5.2,307.3,0,12.6-3.6,15.5-15.8,15.4-78.7-.5-157.4-.3-236.1-.3-24.6,0-24.5,0-24.4-23.9.6-171.8,8.4-343.3,24.4-514.3,18.5-198.1,47.2-394.7,92.4-588.6,39.5-169.4,89.1-335.4,166.4-492,40.5-82,87.7-159.6,154.2-223.7,39.1-37.6,82.9-67.8,136.9-79.4,72.1-15.5,136,5.4,194.2,47.4,65.9,47.5,113.9,110.8,155.6,179.3,75.4,123.9,125.1,258.7,166.5,396.9,2.9,9.8,5.8,19.6,9.9,33.3"/>
    <path class="cls-2" d="M2557.9,2246.7c-32.3-.1-56.6,25-56.3,58,.3,32.7,25.6,59,56.5,58.6,31-.3,54.9-25.5,55.4-58.1.5-33.4-23.3-58.5-55.6-58.6M2488.6,2304.6c0-39.1,30.6-69.3,69.8-69,38.2.3,68.6,31,68.5,69.1-.1,38.2-30.6,68.9-68.6,69.1-39.1.2-69.7-30.2-69.7-69.2"/>
    <path class="cls-5" d="M2591.7,2344.3c-5.8-9.2-10.8-17.6-16.4-25.6-3.7-5.3-5.5-8.6,2.7-11.7,11-4.1,13.3-13.7,11.9-24.4-1.4-10.9-8.6-16.7-18.8-17.8-11.2-1.1-22.6-.8-33.9-1.1-4.1,0-6.5,1.6-6.5,6,0,23.2,0,46.3,0,69.5,0,4.3,2.2,6.1,6.5,6,4.3,0,6.3-2.1,6.4-6.2,0-5.9-.1-11.8.1-17.7.2-4.1-1.7-9.4,4.8-10.7,5.6-1.1,9.2,1.1,12.1,6.1,4.2,7.3,9.2,14,13.3,21.3,3.7,6.7,8.7,8.8,18,6.1M2557.9,2246.7c32.3.1,56,25.2,55.6,58.6-.5,32.6-24.4,57.7-55.4,58.1-30.9.3-56.2-25.9-56.5-58.6-.3-33.1,24.1-58.2,56.3-58"/>
    <path class="cls-4" d="M2555.9,2299.5c10.7-.3,21.6.4,21.1-12.4-.5-13.4-12.2-11.2-21.4-12.3-10.5-1.3-12,3.7-12.4,12.8-.6,11.9,5.3,13.2,12.7,12M2591.7,2344.3c-9.3,2.7-14.3.5-18-6.1-4.1-7.3-9.1-14.1-13.3-21.3-2.8-4.9-6.5-7.2-12.1-6.1-6.5,1.3-4.6,6.6-4.8,10.7-.3,5.9,0,11.8-.1,17.7,0,4.2-2,6.2-6.4,6.2-4.3,0-6.5-1.7-6.5-6,0-23.2,0-46.3,0-69.5,0-4.4,2.5-6.1,6.5-6,11.3.3,22.7,0,33.9,1.1,10.2,1,17.3,6.8,18.8,17.8,1.4,10.7-.9,20.3-11.9,24.4-8.2,3.1-6.4,6.4-2.7,11.7,5.6,8,10.6,16.4,16.4,25.6"/>
    <path class="cls-3" d="M2555.9,2299.5c-7.4,1.3-13.3,0-12.7-12,.4-9.1,1.9-14,12.4-12.8,9.2,1.1,20.8-1.2,21.4,12.3.5,12.8-10.3,12.1-21.1,12.4"/>
  </g>
</svg>