<svg width="256" height="256" viewBox="0 0 256 256" fill="none" xmlns="http://www.w3.org/2000/svg">
<path d="M39.0671 137.798C39.0671 158.745 117.443 178.383 185.571 178.383C211.813 178.383 233.535 169.694 233.535 161.18C233.535 154.834 228.232 149.756 225.088 148.663C226.322 150.831 226.931 152.574 226.931 155.426C226.931 161.347 211.288 171.778 188.698 171.778C109.038 171.778 52.6176 149.747 52.6176 134.763C52.6176 127.641 65.8262 122.079 70.1707 121.204C63.7415 120.336 39.0588 125.882 39.0588 137.79L39.0671 137.798Z" fill="#C3C5C7"/>
<path d="M0.833862 130.076C0.833862 107.136 56.1032 99.8315 94.6783 99.8315C156.535 99.8315 255.258 126.074 255.258 155.434C255.258 163.273 249.696 168.485 246.919 169.702C247.444 167.442 247.611 165.333 247.611 164.39C247.611 136.856 155.501 112.181 99.0228 112.181C53.318 112.181 14.7346 122.088 14.7346 142.293C14.7346 146.245 18.904 152.958 20.2965 153.95C11.9578 150.581 0.833862 141.367 0.833862 130.076Z" fill="#C3C5C7"/>
<path d="M79.4601 104.092C79.4601 96.7209 82.1618 90.3918 87.5653 85.0967C92.9438 79.8099 99.4147 77.1582 106.961 77.1582C114.508 77.1582 120.82 79.8266 126.157 85.1634C131.519 90.5002 134.204 96.9127 134.204 104.393C134.204 111.872 131.511 118.31 126.124 123.555C120.72 128.825 114.199 131.46 106.553 131.46C99.79 131.46 93.7193 129.117 88.3408 124.439C82.4203 119.261 79.4517 112.481 79.4517 104.092H79.4601ZM87.4236 104.192C87.4236 109.98 89.3665 114.741 93.2607 118.468C97.1299 122.196 101.591 124.064 106.661 124.064C112.156 124.064 116.793 122.163 120.57 118.368C124.348 114.524 126.232 109.846 126.232 104.326C126.232 98.8056 124.364 94.0609 120.637 90.2834C116.926 86.4809 112.34 84.588 106.87 84.588C101.399 84.588 96.8214 86.4893 93.0689 90.2834C89.3165 94.0359 87.4403 98.6722 87.4403 104.192H87.4236Z" fill="#073070"/>
<path d="M142.301 130.518L153.333 74.2148L171.312 114.916L189.924 74.2148L199.83 130.518H191.725L186.672 98.9059L171.178 132.92L156.118 98.8726L150.49 130.518H142.309H142.301Z" fill="#073070"/>
<path d="M240.523 85.9473L234.119 89.7498C232.918 87.6651 231.776 86.3142 230.692 85.6805C229.566 84.955 228.098 84.5965 226.314 84.5965C224.121 84.5965 222.303 85.2219 220.86 86.4643C219.409 87.6818 218.692 89.2245 218.692 91.0757C218.692 93.6357 220.594 95.687 224.388 97.2464L229.608 99.3811C233.861 101.099 236.971 103.2 238.931 105.669C240.907 108.145 241.882 111.18 241.882 114.774C241.882 119.594 240.281 123.572 237.063 126.716C233.836 129.884 229.816 131.46 225.03 131.46C220.243 131.46 216.733 130.118 213.773 127.424C210.846 124.731 209.028 120.945 208.311 116.059L216.316 114.299C216.683 117.376 217.308 119.503 218.217 120.678C219.843 122.938 222.22 124.072 225.338 124.072C227.807 124.072 229.85 123.247 231.476 121.596C233.102 119.944 233.919 117.851 233.919 115.325C233.919 114.307 233.786 113.374 233.502 112.523C233.218 111.681 232.777 110.897 232.176 110.188C231.576 109.471 230.8 108.804 229.85 108.187C228.899 107.57 227.773 106.969 226.456 106.411L221.402 104.309C214.239 101.282 210.654 96.8461 210.654 91.0173C210.654 87.0814 212.155 83.7959 215.165 81.1442C218.175 78.4758 221.919 77.1416 226.397 77.1416C232.426 77.1416 237.146 80.0768 240.54 85.9557L240.523 85.9473Z" fill="#073070"/>
<path d="M164.724 164.382H169.018V169.936H164.724V175.673H158.62V169.936H138.757L164.724 132.194V164.382ZM158.612 164.382V150.831L149.281 164.382H158.612Z" fill="#073070"/>
<path d="M173.663 155.184C173.663 148.739 175.164 143.594 178.174 139.749C180.859 136.272 184.12 134.529 187.947 134.529C191.775 134.529 195.035 136.272 197.72 139.749C200.731 143.594 202.232 148.83 202.232 155.451C202.232 162.072 200.731 167.276 197.72 171.12C195.035 174.597 191.783 176.34 187.972 176.34C184.162 176.34 180.901 174.597 178.174 171.12C175.164 167.276 173.663 161.972 173.663 155.184ZM179.659 155.218C179.659 159.704 180.434 163.44 181.994 166.408C183.545 169.327 185.529 170.778 187.947 170.778C190.366 170.778 192.325 169.319 193.901 166.408C195.477 163.506 196.253 159.846 196.253 155.426C196.253 151.007 195.469 147.338 193.901 144.419C192.325 141.517 190.341 140.066 187.947 140.066C185.554 140.066 183.595 141.517 182.019 144.419C180.443 147.296 179.667 150.898 179.667 155.218H179.659Z" fill="#073070"/>
<path d="M104.56 137.798H63.8249V134.646H101.399V97.0713H104.56V137.798Z" fill="#073070"/>
<path d="M104.56 183.077H101.399V145.445H63.8249V142.284H104.56V183.077Z" fill="#073070"/>
<path d="M112.198 183.077H109.038V142.284H149.823V145.445H112.198V183.077Z" fill="#073070"/>
<path d="M149.823 137.798H109.038V97.0713H112.198V134.646H149.823V137.798Z" fill="#073070"/>
</svg>
