<?xml version="1.0" encoding="UTF-8"?>
<svg id="Calque_1" data-name="Calque 1" xmlns="http://www.w3.org/2000/svg" version="1.1" viewBox="0 0 434.5 159">
  <defs>
    <style>
      .cls-1 {
        fill: #000;
      }

      .cls-1, .cls-2 {
        stroke-width: 0px;
      }

      .cls-2 {
        fill: #fff;
      }
    </style>
  </defs>
  <rect class="cls-1" width="434.5" height="159"/>
  <g>
    <path class="cls-1" d="M383.7,98.4l-6.2-10.1c3.8-3.4,7.1-8.9,7.1-18.2,0-13.7-10.4-23.6-24.8-23.6h-31.1c-.5,0-.9.4-1,.9l-.6,7.1c-4.3-4.2-11.7-8.6-23.8-8.6s-15.7,1.9-21.9,5.4l.3-3.1c0-.9-.6-1.7-1.5-1.7h-52.3v.7c-3.3-.9-7-1.4-11-1.4-8.1,0-15.7,2.3-21.3,6.3-4.4,3.2-7.5,7.4-9.2,12.2l-3.1-11.2-1.4-5.3c-.2-.8-.9-1.3-1.8-1.3h-28.1c-1.4,0-2.7.9-3.3,2.2l-1.4,3.3-11.8,27.8h-5.4l1.9-23.5.7-8.2c0-.8-.6-1.6-1.5-1.6h-32.1c-.8,0-1.4.6-1.5,1.3l-.2,2.7c-3.7-2.5-8.4-4-13.9-4h-30.9c-1.1,0-2,.8-2.1,1.9l-.5,6.3-4.1,47.7-.6,6.5c-.1,1.7,1.2,3.2,3,3.2h27.8c1.9,0,3.4-1.4,3.6-3.3l.4-5,.5-6.1h1.6c4.1,0,7.9-.7,11.2-2.1l-.6,6.8-.6,6.8c-.1,1.6,1.1,3,2.7,3h26.7s13.6,0,13.6,0h23.4c.8,0,1.6-.4,2.1-1.1l.7-1.1.6,1.3c.2.6.8.9,1.4.9h33.6c3.7.8,7.5,1.2,10.7,1.2,10.3,0,19-3.6,24.7-9.6l-.7,8.4h34.8l.7-8.2.6-6.7c1.6,3,3.7,5.7,6.3,8,6.1,5.3,14.3,8,24.6,8s17.7-2.7,23.9-7.4l-.4,5c0,.7.5,1.3,1.2,1.3h64.2c2,0,3.2-2.2,2.2-3.8l-6-9.9Z"/>
    <path class="cls-2" d="M207.8,114.8c-3.4,0-7.2-.4-10.8-1.2h-33.5c-.9,0-1.7-.4-2.2-1-.7.6-1.6,1-2.6,1h-63.7c-1.2,0-2.3-.5-3.1-1.4s-1.2-2.1-1.1-3.3l1-11.2c-2.9.9-6.1,1.4-9.5,1.4h-.2l-.8,9.7c-.2,2.6-2.4,4.7-5.1,4.7h-27.8c-1.3,0-2.5-.5-3.3-1.5-.8-.9-1.3-2.2-1.2-3.4l5.2-60.5c.2-1.9,1.7-3.3,3.6-3.3h30.9c4.7,0,8.9,1,12.6,3v-.3c.2-1.5,1.4-2.7,3-2.7h32.1c.8,0,1.6.3,2.2,1,.6.6.8,1.4.8,2.2l-2.5,30h2.8l12.8-30.1c.8-1.9,2.6-3.1,4.7-3.1h28.1c1.5,0,2.8,1,3.2,2.4l3.4,12.5c1.9-3.5,4.6-6.6,8-9,5.9-4.3,13.8-6.6,22.2-6.6s6.6.3,9.6,1v-.3h53.7c.9,0,1.7.4,2.3,1s.9,1.5.8,2.3v.4c5.8-2.8,12.6-4.3,20.1-4.3,10.9,0,18,3.5,22.5,7l.4-4.2c.1-1.3,1.2-2.3,2.5-2.3h31.1c15.2,0,26.3,10.6,26.3,25.1s-2.2,14.1-6.7,18.5l11.6,18.9c.8,1.3.8,2.8,0,4.1-.7,1.3-2,2.1-3.5,2.1h-64.2c-.8,0-1.5-.3-2-.9-.5-.6-.8-1.3-.7-2.1l.2-1.9c-6.2,3.8-13.8,5.9-22.1,5.9s-19.2-2.8-25.6-8.3c-1.6-1.4-2.9-2.9-4.2-4.5l-1,11.8h-37.8l.5-6.2c-6,4.8-14,7.4-22.9,7.4ZM161.7,106.7l1.7,3.8h6.3s27.7,0,27.7,0c3.4.8,7.1,1.2,10.4,1.2,9.6,0,18-3.3,23.6-9.2l2.9-3.1-.9,11.1h31.8l1.6-18.7,2.4,4.6c1.5,2.9,3.5,5.4,5.9,7.6,5.8,5,13.7,7.6,23.6,7.6s16.9-2.5,23-7.1l2.7-2.1-.7,8.1h63.8c.5,0,.8-.4.9-.5,0-.2.3-.6,0-1l-12.9-21,.9-.8c4.4-3.9,6.6-9.6,6.6-17.1,0-12.8-9.8-22.1-23.3-22.1h-30.7l-.8,9.8-2.3-2.2c-3.8-3.7-10.8-8.1-22.7-8.1s-15.2,1.7-21.1,5.2l-2.5,1.5.6-6h-8.2c0,0-42.7,0-42.7,0v1.1c-.1,0-1.8-.5-1.8-.5-3.2-.9-6.7-1.4-10.5-1.4-7.8,0-15,2.1-20.4,6.1-4.1,3-7.1,6.9-8.7,11.5l-1.6,4.5-5.8-21.2c0-.1-.2-.2-.3-.2h-28.1c-.8,0-1.6.5-1.9,1.3l-13.6,32h-8l2.7-33.3h-8.1s-23.9,0-23.9,0l-.4,5.2-2.1-1.4c-3.7-2.5-8.1-3.8-13.1-3.8h-30.9c-.3,0-.6.2-.6.5l-5.2,60.5c0,.4.1.8.4,1.1.3.3.7.5,1.1.5h27.8c1.1,0,2-.8,2.1-1.9l1-12.5h3c3.9,0,7.5-.7,10.7-2l2.3-1-1.4,16.1c0,.4,0,.7.3,1,.2.3.6.4.9.4h63.7c.3,0,.7-.2.8-.5l2.3-3.4Z"/>
    <g>
      <path class="cls-2" d="M83.5,55.4h-24.6l-4.1,47.7h16.3l1.1-14.4h9.9c10.3,0,16.7-6,16.7-17.9s-4.8-15.3-15.4-15.3ZM78,76.9h-4.6l.9-8.8h3.8c2.8,0,4.5,1.4,4.5,3.8s-1.4,5-4.6,5Z"/>
      <polygon class="cls-2" points="101.8 103.1 106 55.4 123 55.4 120.2 88.7 134.9 88.7 133.3 103.1 101.8 103.1"/>
      <path class="cls-2" d="M174.6,55.4h-19.1l-20.2,47.7h17.7l2.1-5.7h13.5l1.2,5.7h17.9l-13-47.7ZM158.6,86.4l5.4-15.8,2.6,15.8h-8Z"/>
      <path class="cls-2" d="M189.5,99.5l7.1-12.8c2.5,2.4,6.6,5.2,11,5.2s5.3-2.1,5.3-3.4c0-5.8-19,.4-19-15.3s11-18.5,23-18.5,12.9,2.8,14.5,4l-6.3,12c-2-2-5.5-3.3-9.1-3.3s-4.7,1.3-4.7,3.1c0,4,19.2,0,19.2,15.4s-9.3,18.4-22.7,18.4-14-1.7-18.3-4.8Z"/>
      <polygon class="cls-2" points="241.6 103.1 244.2 70.1 234.6 70.1 236.1 55.4 272 55.4 270.6 70.1 261.2 70.1 258.3 103.1 241.6 103.1"/>
      <path class="cls-2" d="M303.3,54.8c-17.5,0-29.7,9.8-29.7,27.6s9,21.7,25.2,21.7,28-11.3,28-26.9-5.4-22.4-23.4-22.4ZM299.2,89.5c-5.6,0-8.3-3.5-8.3-8.3s4-11.2,10.5-11.2,8.4,3.6,8.4,9-3.5,10.5-10.6,10.5Z"/>
      <path class="cls-2" d="M364.9,85c5.6-2,10.6-4.2,10.6-14.9s-7.5-14.6-15.8-14.6h-23.8l-4.1,47.7h16.2l1.3-15h1l6.1,15h19.5l-11.1-18.1ZM354.5,76.9h-4l1.1-8.8h3.1c2.4,0,3.8,1.9,3.8,3.8s-1.5,5-4,5Z"/>
    </g>
  </g>
</svg>