<?xml version="1.0" encoding="UTF-8"?>
<svg id="Calque_1" data-name="Calque 1" xmlns="http://www.w3.org/2000/svg" version="1.1" viewBox="0 0 480 290">
  <defs>
    <style>
      .cls-1 {
        fill: #dee3e3;
      }

      .cls-1, .cls-2, .cls-3, .cls-4, .cls-5, .cls-6 {
        stroke-width: 0px;
      }

      .cls-1, .cls-2, .cls-4, .cls-5, .cls-6 {
        fill-rule: evenodd;
      }

      .cls-2 {
        fill: #949ca1;
      }

      .cls-3 {
        fill: #005596;
      }

      .cls-4 {
        fill: #11b3e8;
      }

      .cls-5 {
        fill: #fff;
      }

      .cls-6 {
        fill: #005494;
      }
    </style>
  </defs>
  <g>
    <path class="cls-1" d="M211.6,140.9c-10.8.3-19.6,1.2-26.6,2.9-7,1.6-10.6,3.6-10.8,5.9.3,2.5,4.4,4.6,12.4,6.2,7.9,1.6,17.9,2.5,29.9,2.6,8,0,15.1-.4,21.5-1.2,6.4-.8,11.5-1.9,15.2-3.2-.2,0-.5,0-.7.1-7.9,1.8-15.4,1.5-22.6-.9-7.2-2.5-13.3-6.6-18.2-12.4"/>
    <path class="cls-2" d="M204.3,68.1c5.6,2.5,11.8,6,18.4,10.4,2-1.1,4.1-2.1,6.4-2.9-8.8-3.4-17.1-5.9-24.8-7.5"/>
    <path class="cls-2" d="M283.1,106.4c.5,2.7.8,5.3.8,8,6.8,5.9,12.1,11.8,15.9,17.7,3.8,5.9,3.8,10.6-.1,14.2.2,0,.4-.9.6-2.9.1-2-.9-5.1-3.1-9.4-2.1-4.3-6.6-10.1-13.4-17.2-.4,6.1-2,11.8-4.9,17,5.2,8.8,6.6,15.1,4.2,19.1-.2.3-.4.5-.6.8,12.7,1,20.8-1.6,24.3-7.6,2.3-4.7,1.2-10.6-3.1-17.6-4.3-7-11.2-14.3-20.7-22.1"/>
    <path class="cls-5" d="M283.9,116.8c6.8,7.1,11.2,12.9,13.4,17.2s3.2,7.5,3,9.4c-.2,2-.3,2.9-.5,2.9,3.9-3.6,3.9-8.4.1-14.2-3.8-5.9-9.1-11.8-16-17.7,0,.8,0,1.6,0,2.4"/>
    <path class="cls-5" d="M275.4,89.2c.1.2.2.3.4.5-.1-.2-.3-.3-.4-.5"/>
    <path class="cls-5" d="M256.1,137.3c-.8-1.3-2-2-3.5-2.3-1.4-.2-2.8-.7-3.9-1.4-1.2-.8-2.3-1.7-3.3-2.6-.5-.3-.9-.7-1.1-1.3,0-.3,0-.6.1-.9-.3-.3-.6-.8-.8-1.2,0-.8.2-1.5.6-2.1.5-.6.6-1.3.4-2.1-.3-.6-1-1.2-1.9-1.6-1-.4-1.3-.1-.9.9-1.1.4-2.3.2-3.6-.7-1.3-.9-2.6-1.4-3.6-1.6-1.2.1-2.4.2-3.5.4-1.6,0-3.2,0-4.8,0-2.4-.5-4.2-1.7-5.6-3.6-1.3-1.9-3-3.4-4.9-4.6.5,1,.9,2.1,1.3,3.1,1,.2,1.6.8,1.8,1.8-1.2-.7-2.1-1.6-2.6-2.8-.9-1.1-1.9-2.3-2.9-3.4-1.7-2.3-2.1-4.7-1.3-7.4.4-1.3.5-2.6.4-3.9-.3-.3-.6-.9-.8-1.7,0-.6.2-1.2.4-1.8.2-1.6-.4-2.7-1.7-3.2-.6,0-1.3.4-2.1,1-.4.6-1,1.1-1.7,1.4,0-.3,0-.6.2-1.1-2.1,3.7-3.5,7.7-4.4,12,5.6,6.1,12,12.2,19.1,18.3,10.7,9,20.7,16.2,30.2,21.4-8.8-3-17.9-7-27.4-11.8-8-4.2-15.4-8.6-22.1-13.2.2.9.3,1.8.6,2.8,1.7,6.5,4.6,12.2,8.7,17,5,5.8,11.1,9.9,18.2,12.4,7.2,2.4,14.8,2.8,22.6.9.2,0,.4-.1.7-.2,2.7-.7,5.2-1.6,7.6-2.8-2.1-.6-3.2-2.6-3.4-6-.2-3.4-.6-6-1.3-7.9"/>
    <path class="cls-5" d="M283.9,114.4c0-2.6-.2-5.3-.8-8-.1-.6-.3-1.2-.4-1.8-.7-2.8-1.6-5.5-2.8-8,0,0-.1,0-.1,0,.4,1.4.2,2.6-.7,3.5-1.1,0-2.2-.4-3.3-1.1-2.1-1.3-3.9-3.1-5.2-5.2-.8-.9-1.5-2-1.9-3.2-.5-1.1-1.2-2-1.9-2.8-.5-.7-1.2-1.8-2.1-3.1-.8-1.4-1-2.3-.4-2.7-.2-.7-.3-1.5-.5-2.2.6,0,1.1.3,1.4.8.4.1.8.1,1.2.1-1.9-1.3-3.8-2.5-5.9-3.5-.3,0-.6,0-.8,0,.2,1.2.8,2,1.8,2.4,1,.4,1.7,1.2,2.1,2.2.3,1.2,0,1.7-1.1,1.2-1.1-.4-1.9-.8-2.6-1.1-.6-.1-1.1-.3-1.6-.4-.2-.7-.1-1.1,0-1.4-.4-.8-1.1-1.2-2.1-1.1-.6-.8-1.4-1.1-2.4-.9-.8.3-1.7.5-2.6.7-.7-.5-1.4-1-2.1-1.4,1.1,0,2.3-.1,3.6-.4-.6-.9-1.5-1.4-2.6-1.8-1,.5-1.9.5-2.6,0-1,.2-2,.3-3,.3,0,0-.4-.3-1.1-.6-.7-.4-1.2-.7-1.6-.8-.9,0-1.8-.1-2.5-.5-2.1.2-4.2.5-6.3,1-1.4.4-2.8.8-4.1,1.2-2.2.8-4.3,1.7-6.4,2.8-6.4,3.6-11.4,8.5-15.1,14.7.7-.9,1.2-1.6,1.6-2.1.9-.8,1.9-1.6,2.8-2.4.4-.9,1-1.5,1.7-2,.4.2,1,.4,1.6.7,1,0,1.9-.2,2.8-.5,1.6.3,2.9.3,4-.2-2.6-.9-2.5-1.5.4-1.8,1.3,0,2.5.4,3.4,1.2-.6.6-1.2,1.6-1.9,2.9-.7,1.3-.5,2.2.4,2.8,1-.1,2.2-.2,3.4-.2.9.8,1.8,1.4,2.8,1.6-.4-1.7-.8-3.3-1.1-4.8.2-.9.6-1.2,1.1-1.1.6.2,1.2.5,1.9.8.2-1.5.9-1.9,2.3-1.2.6,0,1.4.1,2.4.2,1,0,1.7.3,2.1.6.5.7.2,1.5-.8,2.5-1,1-1.7,1.9-2.2,2.5.8,0,1.5,0,2.1.2.5,0,1.1-.2,1.8-.5-.2,1.2-1,1.8-2.3,1.8-.6,1.5-1.1,2.9-1.6,4.2-.5,1.2-.7,2.4-.6,3.8-.5,1.4-1,2.9-1.4,4.3.4,1.3,1,2.6,1.7,3.9-.3.1-.5.2-.8.2-.6-1.1-1.5-1.6-2.6-1.7-.5-.1-1.1-.2-1.9-.2-.7,0-1.1.4-1.1,1.2-.9.4-1.6.5-2.1.4-.5,0-.9.5-1.3,1.6-.5,1.4-.5,2.8.2,4.2.9,1.4,2.1,2,3.8,1.9.5-.3.8-.9,1-1.7.3-.8.6-1.3,1-1.5.7-.2,1.1.1,1.2,1.1,0,.9.3,1.6.6,2.1.6.5,1.2.6,1.8.2.6-.3,1.2-.4,1.8-.2.6,1.2,1.3,2.2,2.3,3.2.8,0,1.4-.3,1.8-.8.8,0,1.3-.1,1.7,0,.3,0,.6,0,.9-.1-.5-2,0-3.1,1.6-3.3,1.5-.2,2.9-.4,4.2-.6,1-.8,2.2-1.3,3.5-1.4,1.3.5,2.7.8,4,1.1,1.4-.5,2.9-.7,4.4-.4.7.4,1.3.7,1.7,1,.4.3,1.1.4,2.1.2,1.6-.4,3-.7,4.4-.8,1.4-.1,2.3.7,2.8,2.4,1,4.2.5,8.1-1.5,11.9-.8,1.9-1.5,3.8-2.2,5.7-.6,2-1.8,3.6-3.4,4.8.8.7.7,1.5-.4,2.3-1.1.9-1.9,1.6-2.4,2.2-1.1,1.9-1.3,3.7-.6,5.3,7.3-4,12.9-9.6,16.8-16.7,2.8-5.3,4.4-10.9,4.9-17,0-.8,0-1.6,0-2.4M242.6,89.6c0,.2,0,.5,0,.7-.7.2-1.4.5-2.2.8-.5-.6-.5-1.2,0-1.8h.4c.6.3,1.2.4,1.9.4M232.3,85.4c-.9.3-2,.4-3.2.4-.2-1-.7-1.5-1.6-1.6-.9,0-1.4-.5-1.6-1.5h1.7c1.2,1.1,2.6,1.2,4.3.8-.2.8-.1,1.4.4,1.9M238.5,83.2c-1,0-1.9-.2-2.6-.9-.8-.7-1.6-1.2-2.4-1.5-1.9-.4-3.9-.4-5.9,0-.2-1.1.4-2,1.8-2.9,1.4-.9,2.5-1.2,3.4-1.1l-.4-.6c.7.9,1.7,1.4,2.9,1.4,1.2,0,2.2.5,2.8,1.2.4.9.7,1.8.9,2.7.8,1,.6,1.5-.6,1.6M240.6,112.7c-1.7.2-3.5.4-5.5.4.1-.9,1-1.4,2.7-1.4,1.6,0,2.8,0,3.6.2.1.6-.1.9-.8.9M244.9,111.7c-.4.6-.9.9-1.5,1.1,0-.6.2-1.1.8-1.6.5-.5.9-.6,1-.3,0,.2,0,.5-.2.8"/>
    <path class="cls-6" d="M262.9,145.2c.5-.6,1.3-1.4,2.4-2.2,1.1-.8,1.2-1.6.4-2.3,1.7-1.2,2.9-2.8,3.4-4.8.6-1.9,1.4-3.8,2.2-5.7,2-3.7,2.5-7.7,1.6-11.9-.5-1.7-1.4-2.5-2.8-2.4-1.4.1-2.8.4-4.3.8-1,.2-1.7.1-2.1-.1-.4-.3-1-.6-1.7-1-1.5-.2-3-.1-4.4.4-1.3-.3-2.7-.6-4-1.1-1.4,0-2.6.6-3.6,1.4-1.3.2-2.7.4-4.3.6-1.5.2-2.1,1.3-1.6,3.3-.3,0-.6,0-.9.1-.4,0-.9,0-1.7,0-.3.5-.9.8-1.8.8-1-1-1.8-2-2.3-3.2-.6-.2-1.2-.1-1.8.2-.6.3-1.1.2-1.8-.2-.3-.5-.6-1.2-.6-2.1-.1-.9-.5-1.2-1.2-1.1-.3.2-.6.7-.9,1.5-.3.8-.6,1.4-1.1,1.7-1.6.2-2.9-.4-3.8-1.9-.6-1.5-.6-2.9-.1-4.2.4-1.1.8-1.6,1.3-1.6.5,0,1.1,0,2.1-.4,0-.8.4-1.2,1.1-1.2.8,0,1.4,0,1.9.1,1.1.1,2,.7,2.6,1.8.3,0,.6-.1.9-.2-.7-1.4-1.2-2.7-1.7-3.9.4-1.4.9-2.9,1.4-4.3-.1-1.3.1-2.6.6-3.8.5-1.3,1-2.7,1.6-4.2,1.3,0,2.1-.6,2.3-1.8-.7.3-1.3.5-1.8.5-.6-.2-1.3-.3-2.1-.2.5-.6,1.3-1.5,2.2-2.5,1-1,1.2-1.9.7-2.5-.4-.3-1.1-.5-2.1-.6s-1.8-.1-2.4-.2c-1.4-.7-2.1-.3-2.3,1.2-.7-.3-1.3-.5-1.9-.8-.6-.2-1,.1-1.1,1.1.4,1.5.8,3.1,1.1,4.8-.9-.3-1.8-.8-2.8-1.6-1.2,0-2.4.1-3.4.2-1-.5-1.1-1.4-.4-2.8.7-1.3,1.3-2.3,1.8-2.9-.9-.8-2-1.2-3.3-1.2-2.9.3-3,.9-.4,1.8-1.1.5-2.4.5-4.1.2-.9.2-1.8.4-2.7.5-.7-.3-1.2-.5-1.6-.7-.8.4-1.3,1.1-1.7,2-1,.8-1.9,1.5-2.9,2.3-.4.5-1,1.2-1.6,2.1-.3.5-.5.9-.8,1.3-.2.5-.3.8-.3,1.1.7-.3,1.3-.8,1.8-1.4.8-.7,1.4-1,2-1,1.3.6,1.8,1.6,1.7,3.2-.2.6-.3,1.2-.4,1.8.3.7.6,1.3.9,1.7,0,1.3,0,2.6-.4,3.9-.8,2.6-.3,5.1,1.4,7.4,1,1.1,1.9,2.3,2.9,3.4.6,1.2,1.4,2.2,2.6,2.8-.2-1-.8-1.6-1.8-1.8-.4-1.1-.9-2.1-1.3-3.1,1.9,1.2,3.5,2.7,4.8,4.6,1.3,1.9,3.2,3.1,5.6,3.6,1.6.1,3.2.2,4.8,0,1.1,0,2.3-.2,3.5-.3,1.1.2,2.3.7,3.6,1.5,1.3.9,2.5,1.1,3.6.7-.3-1,0-1.3.9-.9.9.4,1.6.9,1.9,1.6.2.8,0,1.6-.4,2.1-.5.6-.7,1.3-.7,2.1.3.5.6.9.9,1.3,0,.4-.2.7-.2.9.3.6.6,1,1.1,1.4,1.1.9,2.2,1.7,3.3,2.6,1.2.7,2.5,1.2,4,1.4,1.5.2,2.6,1,3.4,2.2.7,1.9,1.1,4.6,1.2,8,.2,3.4,1.3,5.4,3.4,6,.6,0,1.2,0,2-.2-.2-.1-.4-.3-.5-.5-.7-1.6-.5-3.4.6-5.3"/>
    <path class="cls-6" d="M263.8,79.8c.2.7.3,1.4.4,2.1-.5.4-.3,1.4.5,2.8.8,1.4,1.5,2.4,2.1,3.1.8.8,1.4,1.8,1.9,2.8.4,1.2,1,2.3,1.9,3.2,1.3,2.2,3.1,3.9,5.2,5.2,1.1.8,2.2,1.2,3.3,1.2.9-1,1.1-2.1.7-3.6,0,0,0,0,.1,0,.3,0,.6.1.7.6v-.7c.5-.8,0-1.9-1.2-3.1-1.3-1.3-2.5-2.5-3.6-3.6-.2-.2-.3-.3-.4-.5-.4-.5-.5-.9-.3-1.1-1.6-1.8-3.3-3.5-5.2-5.1-.9-.9-1.8-1.6-2.8-2.2-.3-.1-.5-.2-.7-.2-.4,0-.8,0-1.2-.1-.3-.5-.8-.7-1.4-.8"/>
    <path class="cls-6" d="M238.2,78.9c-.6-.7-1.6-1.1-2.8-1.2-1.3,0-2.2-.5-2.9-1.4l.3.6c-.9-.2-2,.2-3.4,1.1-1.4.9-2,1.8-1.8,2.9,2-.5,4-.5,5.9,0,.8.3,1.6.8,2.4,1.6.8.7,1.7,1,2.6.9,1.1-.1,1.3-.7.6-1.6-.2-.9-.5-1.8-.9-2.7"/>
    <path class="cls-6" d="M241.9,73.8c.4,0,.9.3,1.6.8.7.4,1,.6,1.1.6,1,0,2-.1,3-.3.7.6,1.6.6,2.6,0,1.1.3,2,.8,2.6,1.7-1.2.3-2.4.4-3.5.4.7.4,1.3.9,2,1.4,1-.1,1.9-.4,2.7-.6,1-.1,1.8.2,2.4.9.9,0,1.6.4,2.1,1.1-.2.3-.2.8,0,1.5.4.2,1,.3,1.6.4.6.4,1.5.8,2.5,1.1,1.1.4,1.4,0,1.1-1.2-.5-1-1.2-1.7-2.1-2.1-1-.4-1.6-1.2-1.8-2.4.2,0,.5.1.8.1.2,0,.4,0,.6,0-1.3-1-2.8-1.7-4.6-2-1.7-.8-3.5-1.4-5.4-1.8-3.1-.7-6.3-1.1-9.5-1.2-.4,0-.9,0-1.6,0-.7,0-.9.4-.7,1.1.8.4,1.6.6,2.6.5"/>
    <path class="cls-6" d="M235.1,113.1c2,0,3.8-.1,5.5-.4.6,0,.9-.3.8-.9-.8-.1-2-.2-3.6-.2-1.6,0-2.5.5-2.7,1.4"/>
    <path class="cls-6" d="M243.4,112.8c.6-.1,1.1-.5,1.5-1.1.2-.3.3-.5.2-.8-.1-.3-.5-.2-1,.3-.5.5-.8,1-.8,1.6"/>
    <path class="cls-6" d="M232,83.6c-1.7.5-3.1.3-4.3-.6h-1.7c.1.8.6,1.3,1.6,1.4.9,0,1.4.6,1.6,1.6,1.2,0,2.3-.1,3.2-.4-.5-.5-.6-1.1-.4-1.9"/>
    <path class="cls-6" d="M240.4,91c.7-.3,1.4-.5,2.2-.8,0-.2,0-.5,0-.7-.7,0-1.3,0-1.9-.2h-.4c-.4.5-.4,1.1,0,1.7"/>
    <path class="cls-4" d="M251.8,146.1c-9.5-5.3-19.5-12.4-30.2-21.4-7.2-6.1-13.6-12.2-19.2-18.3-8.3-9.1-14.3-17.2-18.1-24.5-3.8-7.3-4.6-12.6-2.5-16,0,0,0,0,0,0-7.3.7-12.1,3.2-14.4,7.4-2.6,5.7-.7,12.8,5.7,21.4,6.4,8.6,16.1,17.4,29.1,26.4,6.7,4.6,14.1,9,22.1,13.2,9.4,4.8,18.5,8.8,27.4,11.8M172.4,72.6c-.4,4.4,1.5,9.9,5.8,16.4,4.2,6.6,8.6,12.4,13.1,17.7,4.5,5.2,6.9,7.9,7.3,8.2-11.7-10.2-19.3-18.4-22.8-24.7-3.5-6.2-5.1-10.7-4.6-13.5.5-2.8.9-4.2,1.2-4.1"/>
    <path class="cls-5" d="M172.4,72.5c-.3,0-.8,1.3-1.2,4.1-.5,2.8,1.1,7.3,4.6,13.5,3.5,6.2,11.1,14.4,22.8,24.7-.4-.3-2.8-3.1-7.2-8.2-4.5-5.2-8.9-11-13.1-17.6-4.2-6.6-6.2-12.1-5.8-16.4"/>
  </g>
  <g>
    <path class="cls-3" d="M74.3,183c0-4.4-.6-6.5-1-7.8h7.3c9.7-.2,14.2,5.6,14.2,10.6s-5.4,9.1-7.1,10c3.4,5.9,8,11.5,12.4,16.8h-5.1c-5.1-4.4-7.4-7.1-15.1-17.4v9.2c0,2.9,0,4.1,1,8.1h-7.6c.8-3.7,1-6.5,1-9.7v-20ZM79.9,194.7c3.6-1,9.3-2.6,9.3-8.4s-1.8-7.3-9.3-8v16.4Z"/>
    <path class="cls-3" d="M118.7,211.5c-1.6.6-3.4,1.2-5.8,1.2-8.4,0-10.5-6.8-10.5-12.7,0-8.7,4.4-13.5,10.5-13.5s7.7,2.6,8.5,7.6c.3,2.1.3,3.2.3,6l-13.8.3c.1,1.8.6,7.9,6.4,7.9s3.9-.7,6.9-2.1l-2.5,5.2ZM118.5,197.1c.1-4.8-1.6-7.5-5.2-7.5s-5.1,3-5.5,7.5h10.7ZM116.6,175.3c-.5,1.8-2.1,5.6-5.8,8.4h-1.6c1.6-3.2,2.3-5.7,2.6-8.4h4.8Z"/>
    <path class="cls-3" d="M135.9,187.4c1.1-.5,2.3-1.2,4-1.2s6.6,1.9,6.6,6.8v15.1c0,2.1.2,2.8.9,4.5h-6.7c.8-2.1.8-3,.8-4.4v-14.5c0-.9-.9-3.4-4.8-3.4s-3.5.7-4.7,1.5v14.9c0,2.8.1,3.6.5,5.8h-6.7c1.1-2.5,1.3-5.3,1.3-8v-14.1c0-.7-.5-3-.7-4.2h5.7v5.1s3.7-4.1,3.7-4.1Z"/>
    <path class="cls-3" d="M176.4,198.7c0,11.4-9.6,14.4-12.8,14.4-5.1,0-11.7-3.4-11.7-12.5s7.4-13.2,11.7-14.5c7.2-.2,12.8,4.8,12.8,12.6ZM171.6,199.8c0-5.3-3.4-10.1-8-10.1s-6.4,3.3-6.4,8.8,5,11.2,9.8,10.8c1.8-1.4,4.6-3.9,4.6-9.5Z"/>
    <path class="cls-3" d="M199.2,174.8v19.9h2c2.8,0,3.6-.5,4.5-1v6.1c-1.4-.5-2.2-1-5.1-1h-1.4v4.9c.2,4,.3,5.8,1.4,8.9h-8.1c.4-1.3,1.3-4.8,1.3-9.3v-4.5h-15.4v-4.1c1.9-1.6,3.6-3.7,5.3-6l7.7-10.6,2.4-3.4h5.5ZM193.9,194.7v-13.4l-9.8,13.4h9.8Z"/>
    <path class="cls-3" d="M221.1,174.7c7.7,0,14.1,7.2,14.1,18.7s-4.5,19.3-14.1,19.3-14.1-8.1-14.1-18.7,6.1-19.2,14.2-19.2ZM221,207.9c3,0,8.5-2.5,8.5-14.5s-4.4-13.8-8.5-13.8-8.4,4-8.4,14.4,5.1,13.9,8.5,13.9Z"/>
    <path class="cls-3" d="M254,211.5c-1.6.6-3.4,1.2-5.8,1.2-8.4,0-10.5-6.8-10.5-12.7,0-8.7,4.3-13.5,10.5-13.5s7.7,2.6,8.5,7.6c.3,2.1.3,3.2.3,6l-13.8.3c.2,1.8.6,7.9,6.4,7.9s3.9-.7,6.9-2.1l-2.5,5.2ZM253.7,197.1c.1-4.8-1.6-7.5-5.2-7.5s-5.1,3-5.5,7.5h10.7ZM251.8,175.3c-.5,1.8-2.2,5.6-5.8,8.4h-1.6c1.6-3.2,2.3-5.7,2.6-8.4h4.8Z"/>
    <path class="cls-3" d="M271.2,187.4c1-.5,2.3-1.2,4-1.2s6.6,1.9,6.6,6.8v15.1c0,2.1.2,2.8,1,4.5h-6.7c.8-2.1.8-3,.8-4.4v-14.5c0-.9-.9-3.4-4.8-3.4s-3.5.7-4.7,1.5v14.9c0,2.8,0,3.6.5,5.8h-6.7c1.1-2.5,1.3-5.3,1.3-8v-14.1c0-.7-.5-3-.7-4.2h5.7v5.1s3.7-4.1,3.7-4.1Z"/>
    <path class="cls-3" d="M304,211.5c-1.6.6-3.3,1.2-5.8,1.2-8.4,0-10.5-6.8-10.5-12.7,0-8.7,4.4-13.5,10.5-13.5s7.7,2.6,8.5,7.6c.4,2.1.3,3.2.3,6l-13.8.3c.2,1.8.6,7.9,6.4,7.9s3.9-.7,6.9-2.1l-2.5,5.2ZM303.7,197.1c.2-4.8-1.6-7.5-5.2-7.5s-5.1,3-5.5,7.5h10.7Z"/>
    <path class="cls-3" d="M317.9,186.4c-.2,1.3-.2,1.9-.2,3.6v3.2c1.5-3,3.4-6.7,7.7-6.7s1.6.2,2.4.7l-.9,6.3c-1.3-1.2-2-1.9-4-1.9s-4.2,1.3-5.2,2.3v12.6c0,3.8.4,4.7,1.3,6.2h-7.7c1-1.7,1.3-2.5,1.3-5v-16.7c0-1,0-2-.8-4.5h6.2Z"/>
    <path class="cls-3" d="M352.7,191.2h-4.7c.6,1.2,1.5,2.8,1.5,5,0,4.5-3.9,7.5-10.1,7.5s-2,0-2.9-.2c-.8,1-1.1,1.7-1.1,2.3s.1,1,.5,1.3c.3.4,3.5.4,4.5.4,5.8,0,6.7,0,8.1.8,1.5.8,2.5,2.6,2.5,4.4,0,3.4-3,5.8-4.6,6.8-2.3,1.4-4.7,1.4-7.6,1.4h-5.2l-2.8-1.7c-.7-.4-.9-.8-.9-1.5v-2.1c3.4-2.1,4-2.8,5.3-4.3-2.6-.5-5.3-1-5.3-3.1s1-1.9,3.2-3c1.2-.5,1.9-1.2,2.7-1.9-3.2-.9-5.5-3.5-5.5-7.2,0-8.4,6.9-10,10.2-10s3.9.7,5.2,1.5h7.1v3.5ZM335.9,211.4c-.5.6-1.2,1.5-1.2,2.8s.4,3,4.5,3,6.7-.3,6.7-3.4-2.4-2.5-4.2-2.5l-5.8.2ZM341.8,200.9c1.1-.8,2.9-2,2.9-4.8s-2.1-7.1-5.3-7.1-4.2,1.9-4.2,5.3,1.8,6.7,5.5,6.5h1.1Z"/>
    <path class="cls-3" d="M363.2,186.4c-.7,1.2-1.2,2.4-1.2,6.6v12.5c0,4.8.8,6.1,1.5,7.2h-8.1c1.2-1.8,1.5-2.4,1.5-7.6v-12.1c0-3.3-.3-4.5-1.3-6.6h7.6ZM363.1,179.1c0,1.5-1,3.8-3.5,3.8s-3.5-1.5-3.5-3.8,2-3.8,3.5-3.8c2.2,0,3.6,2.1,3.6,3.9Z"/>
    <path class="cls-3" d="M384.2,211.5c-1.6.6-3.3,1.2-5.8,1.2-8.4,0-10.5-6.8-10.5-12.7,0-8.7,4.4-13.5,10.5-13.5s7.7,2.6,8.5,7.6c.4,2.1.3,3.2.3,6l-13.8.3c.2,1.8.6,7.9,6.4,7.9s3.9-.7,6.9-2.1l-2.5,5.2ZM383.9,197.1c.2-4.8-1.6-7.5-5.2-7.5s-5.1,3-5.5,7.5h10.7Z"/>
    <path class="cls-3" d="M404.3,191.7c-1.1-1-2.5-2.3-4.9-2.3s-3.8,1.6-3.8,3.5,1,2.7,4.5,5c2.7,1.8,4.5,3.6,4.5,7.3s-3,7.5-8.6,7.5-3.1,0-6.3-1l.3-6.8c2.4,3.5,3.7,4.9,5.8,4.9s3.8-1.9,3.8-3.6-1.4-3.2-4.2-4.9c-1.7-1.1-5-3.3-5-7.5s2.5-7.4,8.8-7.4,3.1.4,5,1.1v4.2Z"/>
  </g>
</svg>