<?xml version="1.0" encoding="UTF-8"?>
<svg id="Calque_1" data-name="Calque 1" xmlns="http://www.w3.org/2000/svg" xmlns:xlink="http://www.w3.org/1999/xlink" version="1.1" viewBox="0 0 639 201">
  <defs>
    <style>
      .cls-1 {
        clip-path: url(#clippath);
      }

      .cls-2 {
        fill: none;
      }

      .cls-2, .cls-3, .cls-4 {
        stroke-width: 0px;
      }

      .cls-5 {
        clip-path: url(#clippath-1);
      }

      .cls-6 {
        clip-path: url(#clippath-3);
      }

      .cls-7 {
        clip-path: url(#clippath-2);
      }

      .cls-3 {
        fill: #004899;
      }

      .cls-4 {
        fill: #878787;
      }
    </style>
    <clipPath id="clippath">
      <rect class="cls-2" x="42.6" y="25.4" width="553.8" height="150.2"/>
    </clipPath>
    <clipPath id="clippath-1">
      <rect class="cls-2" x="42.6" y="25.4" width="553.8" height="150.2"/>
    </clipPath>
    <clipPath id="clippath-2">
      <rect class="cls-2" x="42.6" y="25.4" width="553.8" height="150.2"/>
    </clipPath>
    <clipPath id="clippath-3">
      <rect class="cls-2" x="42.6" y="25.4" width="553.8" height="150.2"/>
    </clipPath>
  </defs>
  <g class="cls-1">
    <path class="cls-4" d="M273.6,149.5c-1.6-.9-3.4-1.4-5.2-1.4-5.8,0-9.7,4.2-9.7,9.8s4.3,9.8,9.5,9.8,4.2-.5,5.5-1.2l.2,3.5c-1.9.8-4.3.9-5.7.9-8,0-13.3-5.1-13.3-13.1s5.6-12.9,13.3-12.9,3.9.3,5.7,1.1l-.3,3.5Z"/>
    <path class="cls-4" d="M304.3,167.8c5.8,0,8.3-4.8,8.3-9.8s-2.7-9.9-8.3-9.9c-5.6,0-8.3,4.7-8.3,9.9s2.5,9.8,8.3,9.8M304.3,144.9c7.6,0,12.1,5.6,12.1,13s-4.4,13-12.1,13-12.1-5.4-12.1-13,4.5-13,12.1-13"/>
  </g>
  <path class="cls-4" d="M345.3,148.5l-4.9,12.8h9.8l-4.9-12.8ZM343.6,145.4h3.7l10.4,25.2h-3.9l-2.5-6.3h-12.1l-2.5,6.3h-3.7l10.5-25.2Z"/>
  <polygon class="cls-4" points="380.8 148.5 373 148.5 373 145.4 392.2 145.4 392.2 148.5 384.4 148.5 384.4 170.6 380.8 170.6 380.8 148.5"/>
  <rect class="cls-4" x="415.8" y="145.4" width="3.6" height="25.2"/>
  <polygon class="cls-4" points="445.4 145.4 450.3 145.4 462 165.6 462.1 165.6 462.1 145.4 465.7 145.4 465.7 170.6 461.1 170.6 449.1 149.8 449 149.8 449 170.6 445.4 170.6 445.4 145.4"/>
  <g class="cls-5">
    <path class="cls-4" d="M508.9,149.8c-1.8-1.2-3.6-1.7-6.9-1.7-5.8,0-9.6,4.2-9.6,9.8s4.2,9.9,9.4,9.9,3.1-.3,4-.4v-7.6h-5.3v-3h8.8v13.1c-1.4.5-3.7,1.1-7.6,1.1-7.9,0-13.1-5.1-13.1-13.1s5.6-12.9,13.2-12.9,5.3.5,7.3,1.3l-.3,3.6Z"/>
    <path class="cls-4" d="M544.5,149.2c-2-.7-3.1-1-5.1-1s-5,.7-5,3.4c0,4.8,11.9,3.7,11.9,12s-4.4,7.5-9.9,7.5-3.8-.5-5.5-1l.4-3.4c1.3.5,3.6,1.2,5.6,1.2s5.7-1.2,5.7-4.1c0-5.6-12-4.1-12-11.9s3.8-6.9,8.7-6.9,3.9.3,5.8.9l-.5,3.3Z"/>
  </g>
  <polygon class="cls-4" points="42.6 132.9 42.6 136.1 101.3 136.1 98.1 132.9 42.6 132.9"/>
  <polygon class="cls-4" points="224.3 132.9 221.1 136.1 596.4 136.1 596.4 132.9 224.3 132.9"/>
  <g class="cls-7">
    <path class="cls-3" d="M196.5,74c0,.9-.7,1.7-1.7,1.7h-2.8s-16.9,0-16.9,0c-7.8,0-14.2,6.3-14.2,14.2,0,7.8,6.3,14.2,14.2,14.2h18s1,0,1,0c.9,0,1.7.7,1.7,1.7v.5s0,27.2,0,27.2v1.1c0,.9-.8,1.7-1.7,1.7h-1.9s-63.2,0-63.2,0h-1.9c-.9,0-1.7-.8-1.7-1.7,0-.5.2-.9.5-1.2l1.2-1.2,27.1-27.1,1.8-1.7c.6-.6,1-1.4,1-2.4,0-1-.4-1.8-1.1-2.5l-1-1.1-28.4-28.4-.6-.6c-.3-.3-.5-.7-.5-1.2,0-.9.7-1.7,1.7-1.7h.5c.1,0,44.5,0,62,0h5.2c.9,0,1.7.8,1.7,1.7v4.4s0,2.4,0,2.4ZM235.3,98.3L163.3,26.3c-1.2-1.2-3.2-1.2-4.4,0l-72,72c-1.2,1.2-1.2,3.2,0,4.4l72,72c1.2,1.2,3.2,1.2,4.4,0l72-72c1.2-1.2,1.2-3.2,0-4.4"/>
    <path class="cls-3" d="M256.3,109.5c4,2.2,9.6,3.9,16,3.9,4.9,0,9.6-1,9.6-5.8,0-11.1-27.5-4.1-27.5-25.7,0-14.3,13.7-18.2,25.4-18.2,5.6,0,11.1.9,15,2.2l-1,12.3c-4-1.9-8.5-2.7-12.9-2.7-3.9,0-10.4.3-10.4,5.5,0,9.6,27.5,3.2,27.5,24.6,0,15.4-12.7,19.6-25.6,19.6-5.4,0-12.2-.9-17.4-2.6l1.4-13.1Z"/>
  </g>
  <rect class="cls-3" x="310.2" y="64.5" width="15.5" height="60"/>
  <g class="cls-6">
    <path class="cls-3" d="M392.4,120.8c-9.8,2.5-16.9,3.9-22.2,3.9-15.5,0-33.8-7.5-33.8-29.3,0-21.7,15.5-31.6,36.8-31.6,3.8,0,11.9.4,17.6,2.6l-1.3,13.2c-4.8-2.8-11.5-3.7-15.1-3.7-12.6,0-21.4,6.1-21.4,19.6,0,11.3,7.5,16.9,18.8,16.9,2.1,0,4.1-.3,5.5-1v-10.8s-9.1,0-9.1,0v-10.9s24.1,0,24.1,0v31.1Z"/>
  </g>
  <polygon class="cls-3" points="442.4 102 452.4 65.4 477 65.5 477 123.7 461 123.7 461 84.8 461.9 77 461.6 77 448.2 123.7 434.1 123.7 420.7 77 420.4 77 421.2 85.1 421.2 123.7 406.8 123.7 406.8 65.4 430.1 65.4 441.6 102 442 107.2 442.4 107.2 442.4 102"/>
  <path class="cls-3" d="M507.2,65.5h18.6s22,58.3,22,58.3h-17.6s-4.2-12.4-4.2-12.4h-20.5s-4.5,12.4-4.5,12.4h-15.5s21.7-58.3,21.7-58.3ZM515.9,80.1l-.4-3.1h0s-.5,3.1-.5,3.1l-6.1,19.6h13.4s-6.4-19.6-6.4-19.6Z"/>
</svg>