<?xml version="1.0" encoding="UTF-8"?>
<svg id="Calque_1" data-name="Calque 1" xmlns="http://www.w3.org/2000/svg" version="1.1" viewBox="0 0 300.8 89">
  <defs>
    <style>
      .cls-1 {
        fill: #00396a;
      }

      .cls-1, .cls-2 {
        stroke-width: 0px;
      }

      .cls-2 {
        fill: #fff;
      }
    </style>
  </defs>
  <rect class="cls-1" width="300.8" height="89"/>
  <g>
    <path class="cls-2" d="M47.5,32c0-2.3-.7-3.7-2-4.6s-3-1.2-5-1.2c-2.9,0-6.6.9-6.6,4.5s8.3,4.4,13.8,6.4c9.7,3.4,12.9,8.7,12.9,15.4,0,13.4-13,19.7-25.1,19.7s-24.3-5.9-23.6-20h16.6c0,3,.7,4.9,2.1,6.3,1.5,1.2,3.5,1.4,6.3,1.4s7.5-1.7,7.5-5.4-5.7-4.6-13.4-7.2c-6.8-2.3-13.3-5.9-13.3-15.1s12.2-18.3,23.4-18.3,22.5,4.4,22.2,18.2h-15.8Z"/>
    <path class="cls-2" d="M98.4,13.8c15.8,0,25.4,7.4,25.4,24.4s-12.3,33.9-31.3,33.9-25.4-8.3-25.4-24.4,12.3-33.9,31.3-33.9ZM92.9,58.3c10.3,0,13.7-12.2,13.7-20.4s-2-10.1-8.7-10.1c-10.3,0-13.7,12.2-13.7,20.4s2,10.1,8.7,10.1Z"/>
    <path class="cls-2" d="M150.1,15.2c-7.6,0-14.2,5.3-15.7,12.8l-9,42.9h2.2l9-43c1.3-6.1,6.7-10.5,12.9-10.5h30.1l.5-2.2h-29.9ZM138.6,28.2l-8.9,42.6h12.9l4.4-21.2h21.9l1.9-9.1.4-2,.5-2.2h-21.9l1.5-6.9h25.8l2.1-10.1h-29.7c-5.3,0-9.9,3.8-10.9,8.9Z"/>
    <path class="cls-2" d="M186.2,15.2h46l-2.9,14.3h-28.9l-1.5,6.9h26.8l-2.7,13.3h-26.8l-1.5,6.9h29.5l-3,14.3h-31.3c-7.9,0-13.8-7.3-12.2-15l8.5-40.7Z"/>
    <path class="cls-2" d="M285.7,49.7c-1,5.7-5.4,22.5-28.5,22.5s-23.9-10.5-23.9-25.4,11.2-33,30.2-33,23.5,5.4,23.8,22.1h-16.2c.2-5.2-2.3-8.2-7.6-8.2-9.5,0-12.9,10.9-12.9,18.8s1.1,11.8,9,11.8,8.4-3.7,9.5-8.6h16.8Z"/>
  </g>
</svg>