<svg width="256" height="256" viewBox="0 0 256 256" fill="none" xmlns="http://www.w3.org/2000/svg">
<path d="M104.314 74.4359C117.072 60.575 139.756 60.8901 152.33 75.0145C143.935 78.8727 136.133 83.6627 128.899 89.433C121.357 83.3743 113.18 78.3926 104.314 74.4365V74.4359Z" fill="white"/>
<path d="M156.139 80.1196C158.332 83.7844 159.74 87.6477 160.412 91.845C148.274 97.3871 137.776 105.135 128.891 115.16C126.135 112.062 123.229 109.169 120.102 106.455C130.156 94.9801 142.22 86.3461 156.139 80.1196Z" fill="#8ECAEF"/>
<path d="M131.93 129.525C112.53 132.018 95.4817 116.565 95.3151 97.8413C96.5763 97.9562 105.151 102.858 109.44 105.939C113.885 109.131 118.011 112.693 121.808 116.637C125.303 120.267 130.692 127.107 131.93 129.526V129.525Z" fill="white"/>
<path d="M160.773 98.563C160.342 111.228 151.816 123.666 138.52 128.064C136.673 125.391 134.826 122.719 132.953 120.01C140.728 111.006 149.981 103.863 160.773 98.563Z" fill="white"/>
<path d="M124.022 93.6515C120.928 96.4697 118.002 99.4024 115.193 102.524C109.187 97.9363 102.733 94.1646 95.8003 91.1518C96.5604 86.9733 98.0582 83.1304 100.289 79.5771C105.269 81.0927 119.805 89.7091 124.022 93.652L124.022 93.6515Z" fill="#8ECAEF"/>
<path d="M117.678 158.468C117.841 158.46 117.972 158.449 118.104 158.449C122.559 158.452 127.014 158.432 131.469 158.467C133.854 158.486 136.181 158.9 138.403 159.802C142.827 161.598 145.771 164.778 147.151 169.341C148.223 172.887 148.26 176.491 147.254 180.053C145.755 185.365 142.261 188.767 137.011 190.387C135.264 190.927 133.462 191.192 131.634 191.199C127.122 191.215 122.61 191.204 118.098 191.203C117.967 191.203 117.836 191.192 117.708 191.186C117.595 190.774 117.561 159.267 117.677 158.468H117.678ZM123.885 185.556C124.121 185.556 124.306 185.556 124.491 185.556C126.69 185.556 128.889 185.582 131.087 185.543C131.992 185.527 132.912 185.455 133.794 185.264C137.572 184.448 140.079 182.204 141.104 178.447C141.781 175.965 141.747 173.454 141.022 170.981C140.189 168.139 138.407 166.109 135.647 164.976C134.391 164.461 133.075 164.163 131.721 164.141C129.22 164.098 126.717 164.113 124.215 164.108C124.109 164.108 124.004 164.145 123.885 164.166V185.556V185.556Z" fill="white"/>
<path d="M234.692 191.749H228.444V158.154C228.589 158.138 228.733 158.11 228.877 158.109C233.919 158.107 238.961 158.088 244.002 158.117C246.056 158.129 248.026 158.588 249.839 159.588C252.756 161.194 254.454 163.683 255.008 166.941C255.363 169.03 255.251 171.102 254.42 173.082C253.107 176.209 250.719 178.134 247.533 179.14C247.175 179.254 246.807 179.338 246.376 179.455C247.459 180.832 248.528 182.167 249.573 183.521C250.627 184.886 251.647 186.277 252.702 187.64C253.753 189 254.829 190.341 255.936 191.745C255.748 191.76 255.607 191.781 255.467 191.781C253.477 191.783 251.486 191.775 249.496 191.789C249.16 191.791 248.936 191.684 248.727 191.425C246.866 189.128 244.999 186.836 243.126 184.55C241.901 183.055 240.655 181.577 239.436 180.078C239.194 179.78 238.928 179.685 238.558 179.692C237.459 179.712 236.359 179.699 235.26 179.699H234.692V191.749L234.692 191.749ZM234.695 174.927C234.865 174.942 234.976 174.96 235.088 174.96C237.551 174.961 240.015 174.978 242.477 174.948C243.153 174.94 243.843 174.857 244.499 174.695C246.563 174.185 248.012 172.976 248.598 170.869C248.83 170.038 248.86 169.187 248.773 168.333C248.551 166.148 247.477 164.556 245.414 163.737C244.738 163.468 243.992 163.258 243.272 163.239C240.489 163.164 237.703 163.176 234.918 163.16C234.848 163.16 234.778 163.201 234.694 163.227V174.927H234.695Z" fill="white"/>
<path d="M185.958 174.398C185.879 179.418 184.446 183.389 181.287 186.659C178.811 189.221 175.775 190.77 172.279 191.385C168.802 191.997 165.391 191.709 162.14 190.286C157.022 188.045 153.853 184.135 152.673 178.701C151.736 174.386 152.251 170.2 154.445 166.321C156.925 161.939 160.707 159.289 165.634 158.333C169.9 157.506 173.992 158.089 177.764 160.293C182.108 162.83 184.687 166.656 185.626 171.58C185.834 172.673 185.89 173.795 185.958 174.398H185.958ZM179.802 174.545C179.761 174.161 179.731 173.437 179.598 172.733C178.904 169.05 176.907 166.357 173.434 164.855C171.549 164.04 169.562 163.836 167.53 164.12C164.256 164.579 161.673 166.158 160.007 169.03C158.145 172.238 157.957 175.646 159.226 179.103C160.277 181.963 162.295 183.932 165.144 185.014C166.893 185.679 168.714 185.857 170.568 185.62C173.44 185.251 175.83 183.996 177.608 181.678C179.142 179.677 179.765 177.371 179.802 174.545Z" fill="white"/>
<path d="M90.9147 180.724C93.0566 179.292 95.2866 178.021 97.7118 176.965C98.2926 178.555 98.8615 180.113 99.4446 181.708C99.283 181.798 99.1431 181.888 98.994 181.958C94.4071 184.111 90.4135 187.069 87.0132 190.824C86.7612 191.102 86.5103 191.215 86.1372 191.211C84.2416 191.194 82.3467 191.203 80.4511 191.203H79.8196C84.3463 180.252 88.8422 169.374 93.3455 158.479H100.283C104.599 169.345 108.921 180.23 113.265 191.168H106.487C103.272 182.668 100.053 174.159 96.8345 165.65L96.7122 165.649C94.7427 170.651 92.7738 175.653 90.8049 180.655C90.8419 180.678 90.8788 180.7 90.9158 180.723L90.9147 180.724Z" fill="white"/>
<path d="M191.604 158.479H197.839C197.839 158.751 197.839 158.992 197.839 159.233C197.839 165.166 197.836 171.099 197.842 177.032C197.843 178.19 197.938 179.34 198.249 180.464C199.01 183.223 200.771 184.933 203.578 185.536C205.249 185.896 206.928 185.907 208.597 185.526C211.611 184.836 213.468 182.947 214.168 179.959C214.378 179.064 214.475 178.122 214.479 177.202C214.506 171.212 214.493 165.222 214.493 159.233C214.493 158.991 214.493 158.75 214.493 158.479H220.728V159.114C220.728 165.312 220.735 171.511 220.724 177.709C220.72 180.076 220.218 182.338 219.137 184.45C217.411 187.824 214.69 190.024 211.061 191.048C207.605 192.023 204.115 192.005 200.689 190.93C195.958 189.446 193.104 186.189 192.003 181.374C191.701 180.055 191.607 178.714 191.606 177.367C191.601 171.282 191.604 165.198 191.604 159.113C191.604 158.908 191.604 158.702 191.604 158.479Z" fill="white"/>
<path d="M77.0173 158.469H83.8502C79.3355 169.393 74.8402 180.272 70.3351 191.172H63.3805C59.0569 180.284 54.7339 169.398 50.3927 158.466H57.1676C60.3932 166.991 63.6188 175.515 66.8444 184.038C66.8825 184.033 66.9201 184.027 66.9582 184.022C70.3067 175.515 73.6557 167.008 77.0167 158.469H77.0173Z" fill="white"/>
<path d="M19.9788 191.204H13.0503C8.72504 180.313 4.40206 169.427 0.0568848 158.486H6.83178C10.0415 166.969 13.2688 175.496 16.4955 184.023C16.5325 184.03 16.57 184.035 16.607 184.042C19.9595 175.526 23.3114 167.011 26.6706 158.479H33.503C28.986 169.408 24.4901 180.287 19.9788 191.204V191.204Z" fill="white"/>
<path d="M38.8358 158.469H45.0008V191.17H38.8358V158.469Z" fill="white"/>
</svg>
