<svg width="256" height="256" viewBox="0 0 256 256" fill="none" xmlns="http://www.w3.org/2000/svg">
<path d="M19.5997 76.6401L21.698 79.6763C22.3633 80.6305 22.984 81.0862 23.1359 81.1688C23.7748 81.5171 24.4665 81.6954 25.49 80.832L25.703 80.9475C25.4372 81.4346 25.3101 81.5237 24.6695 82.5556C24.2089 83.3315 24.0455 83.5577 23.0517 85.8196L22.7776 85.671C22.7694 85.0353 22.8916 84.1537 21.8994 82.3509C21.3315 81.2909 20.8131 80.5761 20.2667 79.7654L14.0809 70.6768C11.2315 70.9823 10.4325 72.0868 9.63178 73.2689L9.38745 73.1368L9.63838 72.6019C9.8695 72.1759 10.5777 71.0202 10.7428 70.7164C10.9228 70.4589 11.4907 69.2685 11.6376 69.0721L31.4133 70.0825C30.8686 71.0103 30.1158 72.6134 29.6766 73.637L29.4026 73.4884C29.6585 72.8 29.4835 72.0323 28.8743 71.7021C28.5095 71.504 27.7732 71.2613 26.4855 71.2316C26.3782 71.2117 26.2692 71.1936 26.1454 71.2035L22.6456 71.0351L19.5964 76.6385L19.5997 76.6401ZM13.097 66.3926C13.6368 66.4883 14.099 66.5824 15.494 66.6303C15.943 66.6765 17.0574 66.731 17.381 66.7888L17.7524 66.8334L26.8751 67.2577C26.9048 67.2742 26.9824 67.2775 27.06 67.2791L28.9057 67.2956C31.7749 67.3171 32.8479 66.3612 33.5628 65.8428L33.8368 65.9914C33.5611 66.3546 33.5281 66.4157 33.1484 67.0381C32.4748 68.131 32.3774 68.2367 32.0605 68.8938L12.3012 67.852L13.097 66.3909V66.3926ZM21.239 70.941L15.5551 70.6504L18.7858 75.4481L21.2374 70.941H21.239Z" fill="#010101"/>
<path d="M31.8756 47.1853C30.403 45.569 28.9073 44.6147 27.0204 45.7192L26.7991 45.4996C28.6613 43.88 29.1747 43.3649 29.5908 42.9472L42.276 55.6085C41.6636 56.2227 40.3907 57.6458 39.803 58.3805L39.5818 58.2088C40.5855 56.4175 39.4316 54.7286 38.3271 53.6257L31.8739 47.1836L31.8756 47.1853ZM30.4987 42.0375L32.7026 39.6321C32.9717 39.3134 33.363 38.871 33.8285 38.4054C35.6659 36.5645 37.6998 35.7044 39.7585 35.8018C41.8666 35.8976 44.0012 37.0483 46.0119 39.0559C48.3925 41.4316 49.0066 43.2692 49.2047 44.5437C49.6736 47.6574 48.0343 50.086 47.151 50.9693C47.0041 51.1162 45.3136 52.6632 44.9719 53.0066C44.8002 53.1288 44.0408 53.8403 43.8939 53.9889L43.184 54.7005L30.4987 42.0392V42.0375ZM39.3309 48.894C39.6743 49.2374 40.6565 50.1669 40.9999 50.4608C42.9133 52.0771 42.938 52.1497 43.6974 52.224C44.1877 51.978 44.7012 51.7568 45.9013 50.5549C47.4201 49.0327 47.9583 47.6112 47.9814 46.1154C48.0029 43.4425 46.0895 41.2385 45.0825 40.2347C43.8064 38.9618 42.0895 37.7367 40.2504 37.3719C38.4113 37.0054 36.4022 37.499 34.3931 39.5099C33.5611 40.3436 32.876 41.5224 32.8512 41.5951C32.6795 41.9632 32.6795 42.1102 33.7113 43.1883C35.1096 44.6329 35.2334 44.8046 36.361 45.9322L39.3309 48.8957V48.894ZM50.2332 43.3666C49.52 40.8422 47.7041 38.9816 47.0421 38.3195C44.4403 35.7242 42.3322 34.7947 40.2488 34.7716C41.3268 34.5751 44.8316 33.8603 48.1201 37.1424C51.4334 40.4493 50.7004 43.8321 50.3339 45.5739C50.4313 44.3968 50.4066 43.9807 50.2332 43.3682V43.3666Z" fill="#010101"/>
<path d="M59.8215 28.5751C61.6655 31.9133 63.2768 32.9634 64.7724 33.8797C63.4319 33.7492 60.5941 33.4157 58.2812 29.2289C55.8165 24.7679 57.4079 21.9877 57.8586 21.2233C57.819 22.5127 57.7265 24.7828 59.8231 28.5751H59.8215ZM75.4767 27.8057C75.0953 29.8381 73.872 31.4263 71.8695 32.5325C68.9574 34.1422 66.7056 33.3662 65.6458 32.8825C64.4918 32.3707 62.7402 31.2794 60.845 27.8503C59.3526 25.1493 56.9655 19.181 62.699 16.0112C68.373 12.876 72.1535 17.639 73.8308 20.6719C75.3397 23.4026 75.8432 25.818 75.475 27.8041L75.4767 27.8057ZM68.6107 17.1025C67.1002 16.234 65.3734 16.1185 63.3709 17.2263C61.3981 18.3159 60.5941 19.8695 60.5726 21.6245C60.5512 23.3795 61.2842 25.3507 62.3407 27.2626C62.8938 28.263 63.8942 29.9289 65.3668 31.0169C66.8558 32.1346 68.8319 32.6266 71.2587 31.286C73.352 30.1286 74.0899 28.4529 74.0635 26.6864C74.0371 24.9182 73.3239 23.0542 72.4523 21.4775C71.3957 19.5657 70.1196 17.9742 68.6107 17.1058V17.1025ZM74.7916 19.8266C73.9199 18.2482 72.2014 15.7123 69.8291 14.6475C73.7284 14.7498 75.6764 17.9907 76.3318 19.1744C78.747 23.5446 77.2959 26.3661 76.8386 27.3319C76.9146 26.1812 77.1226 24.0465 74.7916 19.8282V19.8266Z" fill="#010101"/>
<path d="M92.3568 16.7291C92.9776 19.5754 93.311 20.7789 95.4803 21.9396C92.1109 22.1063 91.5644 19.6002 91.1567 17.7362L89.4431 9.87757C89.1773 8.6575 88.6226 6.11665 86.2239 6.17939L86.1644 5.90863C87.1269 5.76994 89.2086 5.38692 89.8525 5.24659L92.3568 16.7308V16.7291ZM105.783 20.0476C105.818 19.7207 105.712 19.0702 105.64 18.4115C104.757 19.2435 103.023 20.8978 100.314 21.4889C94.8596 22.6776 93.9499 18.0152 93.5801 16.3213L91.1055 4.97252C91.85 4.81073 93.9631 4.24279 94.8695 4.01001L94.9289 4.28077C92.6193 5.24493 93.1393 7.79404 93.2285 8.20018L94.8909 15.8227C95.2376 17.4143 95.4572 18.2546 96.0069 18.986C97.316 20.7591 99.8188 20.3546 100.395 20.2292C102.766 19.7124 104.431 18.0714 105.367 17.1584L103.269 7.53814C102.774 5.26805 102.346 3.30339 99.9096 3.19608L99.8501 2.92532L103.538 2.26328L107.342 19.7091L105.783 20.0492V20.0476ZM104.757 1.99582C105.23 1.89181 105.874 1.75147 106.605 1.52199C107.599 1.1984 107.964 1.08283 108.44 0.980469L108.514 1.31892C106.231 2.24181 106.8 4.85035 107.162 6.51123L108.92 14.5729C109.186 15.793 109.813 18.6723 112.258 18.494L112.324 18.7994C111.91 18.8539 111.538 18.9348 110.88 19.0075C110.677 19.052 109.917 19.1461 109.78 19.1759L108.56 19.4417L104.757 1.99582Z" fill="#010101"/>
<path d="M126.361 18.3143L125.635 18.2581C125.186 18.2234 125.117 18.2168 124.281 18.2218C123.446 18.2251 122.926 18.2201 122.51 18.1871L122.531 17.9098C124.986 17.6506 125.24 14.8522 125.313 13.9194L126.041 4.62108C126.315 1.12927 124.691 0.549774 123.842 0.275713L123.864 0C125.067 0.163446 125.344 0.184909 127.756 0.478782L126.36 18.3143H126.361ZM129.003 0.57619C129.729 0.632323 130.005 0.655437 131.154 0.640578C131.989 0.637276 132.617 0.615813 133.343 0.673597C137.11 0.969122 137.658 4.17696 137.521 5.9402C137.254 9.36267 135.263 9.90254 134.196 10.2014L134.191 10.2707C136.513 10.8353 137.115 11.5783 139.565 14.4823C141.19 16.3826 142.865 18.0798 144.698 18.2234C145.077 18.2532 145.368 18.1029 145.584 18.0154L145.632 18.2977C145.137 18.8508 144.387 19.1051 143.661 19.0473C142.659 18.968 141.327 18.656 138.051 14.7481L136.78 13.2226C136.56 12.9271 134.558 10.5101 131.586 10.2773L131.581 10.3467C132.924 10.974 134.16 12.0439 136.258 14.5731L137.944 16.584C139.979 19.0044 141.138 19.3032 142.023 19.5475C141.569 19.5822 141.322 19.6317 140.906 19.5987C138.52 19.4122 137.219 17.814 136.009 16.3975C133.046 12.9304 132.607 12.3394 132.22 11.9266C130.875 10.4655 130.228 10.2757 129.657 10.0214L129.345 13.997C129.239 15.3458 129.074 17.9048 131.454 18.5784L131.43 18.8888C130.606 18.7551 129.779 18.6544 129.194 18.5751C128.575 18.4926 128.161 18.4595 128.092 18.4546L127.608 18.4166L129.004 0.581143L129.003 0.57619ZM129.731 9.04899C130.581 9.29003 131.443 9.39239 131.993 9.46999C134.447 9.66315 135.794 8.44638 135.999 5.81968C136.273 2.32787 133.835 1.92834 132.488 1.82268C131.347 1.73352 131.055 1.91843 130.583 2.16112C130.198 3.07081 130.167 3.48521 130.02 5.35081L129.731 9.04899ZM138.779 5.86261C138.92 4.0647 138.35 2.90736 137.8 1.92504C138.502 2.2932 140.641 3.39935 140.432 6.06072C140.391 6.57913 140.186 8.75346 137.371 9.61197C137.837 8.9879 138.617 7.90156 138.778 5.86261H138.779Z" fill="#010101"/>
<path d="M115.849 255.999L115.571 255.979L109.047 241.01C107.972 238.568 107.335 237.792 105.678 237.15L105.701 236.838C107.188 236.945 108.286 237.13 108.839 237.17L116.488 254.863L115.849 255.999ZM122.104 242.618C122.14 242.587 122.223 242.418 122.264 242.317C122.904 241.147 123.066 240.846 123.114 240.189C123.212 238.841 122.472 238.509 121.93 238.296L121.95 238.018C122.193 238.036 122.881 238.121 123.57 238.205C124.262 238.254 124.95 238.34 125.123 238.352C125.538 238.382 126.65 238.393 127.448 238.416L127.425 238.727C126.639 239.017 125.32 239.478 123.713 242.455C123.555 242.72 123.519 242.753 123.476 242.854L117.318 253.46L110.394 237.28C111.608 237.333 113.721 237.417 114.033 237.44L114.013 237.716C113.8 237.771 113.022 237.957 112.961 238.788C112.922 239.341 113.055 240.359 113.869 242.086C113.899 242.157 113.958 242.301 113.955 242.336L117.559 250.627L122.104 242.615V242.618Z" fill="#010101"/>
<path d="M138.769 246.536C139.487 250.282 140.693 251.779 141.832 253.115C140.598 252.575 138.003 251.378 137.102 246.679C136.141 241.674 138.518 239.524 139.182 238.938C138.745 240.151 137.952 242.281 138.769 246.537V246.536ZM153.893 250.66C152.899 252.474 151.245 253.604 148.998 254.034C145.729 254.662 143.831 253.225 142.972 252.436C142.035 251.593 140.707 250.011 139.969 246.164C139.388 243.133 138.969 236.719 145.404 235.484C151.772 234.262 153.888 239.963 154.542 243.369C155.129 246.433 154.859 248.887 153.893 250.66ZM150.685 238.355C149.52 237.061 147.913 236.415 145.665 236.848C143.451 237.272 142.205 238.5 141.64 240.161C141.076 241.822 141.161 243.924 141.574 246.07C141.79 247.194 142.223 249.088 143.286 250.579C144.356 252.104 146.081 253.184 148.805 252.662C151.154 252.212 152.376 250.848 152.899 249.159C153.422 247.47 153.322 245.477 152.983 243.706C152.572 241.561 151.852 239.651 150.687 238.357L150.685 238.355ZM155.714 242.861C155.374 241.091 154.527 238.145 152.604 236.397C156.278 237.705 157.127 241.39 157.381 242.717C158.322 247.62 156.067 249.853 155.334 250.628C155.763 249.557 156.622 247.592 155.714 242.859V242.861Z" fill="#010101"/>
<path d="M176.83 244.935L175.896 245.392C175.802 245.439 175.054 245.881 174.899 245.957C174.213 246.292 174.042 246.414 173.698 246.659L173.576 246.409C175.219 244.796 174.184 242.678 173.347 240.965L169.71 233.519C169.056 232.18 168.082 230.185 165.83 230.552L165.693 230.271L168.993 228.891L176.83 244.935ZM170.114 228.343C170.567 228.084 171.003 227.871 171.719 227.443C172.733 226.832 172.856 226.771 173.418 226.497L173.54 226.746C172.071 228.004 172.228 229.51 173.035 231.161L176.581 238.419C177.19 239.665 178.075 241.161 178.597 241.833C179.194 242.583 179.585 242.199 180.084 241.955L183.199 240.433C184.601 239.748 186.532 238.805 186.656 235.503L186.968 235.351C187.163 236.144 187.236 236.532 187.336 237.448C187.493 238.954 187.506 239.14 187.686 239.824C187.25 239.959 186.753 240.126 186.192 240.4L184.962 240.963L177.953 244.387L170.116 228.343H170.114Z" fill="#010101"/>
<path d="M203.68 228.74L202.884 229.411C202.805 229.478 202.186 230.089 202.054 230.2C201.469 230.69 201.334 230.852 201.06 231.172L200.882 230.959C202.083 228.996 200.566 227.192 199.338 225.732L194.002 219.393C193.043 218.252 191.614 216.555 189.519 217.456L189.317 217.217L192.183 215.077L203.68 228.739V228.74ZM193.137 214.275C193.514 213.913 193.884 213.601 194.476 213.012C195.312 212.173 195.417 212.084 195.894 211.683L196.073 211.896C194.953 213.472 195.47 214.895 196.654 216.3L201.856 222.482C202.749 223.543 203.97 224.78 204.639 225.305C205.402 225.888 205.687 225.42 206.112 225.062L208.764 222.83C209.958 221.826 211.602 220.441 210.921 217.208L211.186 216.986C211.568 217.707 211.733 218.065 212.053 218.93C212.57 220.354 212.629 220.53 212.969 221.149C212.58 221.387 212.137 221.668 211.66 222.071L210.604 222.914L204.636 227.936L193.139 214.275H193.137Z" fill="#010101"/>
<path d="M225.818 206.513L225.168 207.411C224.862 207.832 224.091 209.072 223.822 209.563L223.569 209.379C224.402 207.286 222.437 205.861 221.504 205.141L219.981 203.994L214.283 199.863C213.189 199.069 211.14 197.585 209.313 199.043L209.088 198.879C209.393 198.458 209.605 198.225 210.169 197.565C210.632 197.045 210.645 196.967 211.011 196.462L211.337 196.013L225.82 206.513H225.818ZM212.068 195.003L214.957 191.017C215.69 190.007 216.367 188.955 217.07 187.925L217.917 186.698C218.493 187.202 218.879 187.438 219.839 188.006C220.167 188.202 220.672 188.567 220.925 188.75L220.761 188.975C218.519 188.463 217.912 189.008 216.387 191.113L214.8 193.302C214.373 193.892 214.311 193.976 214.145 194.326C214.607 195.047 215.449 195.656 216.159 196.214L217.318 197.098L219.338 198.562L221.496 195.587C222.901 193.651 223.304 192.916 222.079 191.3L222.275 190.971C222.767 191.413 223.429 191.978 224.355 192.65C224.72 192.914 224.852 192.969 225.904 193.644C226.072 193.766 226.871 194.26 227.012 194.36L226.808 194.641C224.562 193.312 223.565 194.687 222.77 195.782L220.268 199.234L223.271 201.412C224.955 202.633 225.815 203.041 226.465 203.385C226.696 203.124 227.221 202.52 227.444 202.211L228.95 200.134C230.11 198.534 231.107 197.159 229.922 194.245L230.153 193.984L230.876 194.937C230.975 195.095 231.487 195.807 231.558 195.945C231.969 196.5 232.374 197.007 232.669 197.307C232.227 197.799 231.832 198.285 231.446 198.818C231.16 199.211 230.543 200.005 230.523 200.033L226.554 205.506L212.071 195.006L212.068 195.003Z" fill="#010101"/>
<path d="M244.819 172.206C244.214 174.237 243.778 175.407 243.677 175.775L243.352 175.655C243.532 173.576 242.45 172.805 240.176 171.96L236.666 170.656L229.465 173.712C227.528 174.545 225.09 175.932 223.926 177.57L223.667 177.474C223.824 177.052 223.952 176.804 224.263 176.069C224.537 175.432 224.562 175.366 224.827 174.651L225.009 174.164L236.793 169.223L244.819 172.206ZM225.577 172.637L226.355 170.448C226.83 169.071 226.889 168.907 227.086 168.278L227.314 168.363C227.236 169.37 227.756 169.563 227.854 169.599C228.212 169.731 228.674 169.979 231.324 168.818L236.076 166.776L233.575 162.259C233.567 162.181 232.727 160.76 231.882 160.446C230.744 160.023 230.328 160.646 230.074 161.032L229.782 160.923C229.927 160.534 229.975 160.403 230.604 159.01C230.97 158.221 231.527 156.726 231.934 155.029L232.162 155.113C232.116 155.837 232.256 156.553 232.392 157.085C232.478 157.45 233.062 158.665 233.674 160.002L237.452 166.657L241.513 168.166C242.488 168.528 245.153 169.518 246.432 167.369L246.758 167.489C246.17 168.972 245.373 170.821 245.255 171.035L236.773 167.884L225.577 172.635V172.637Z" fill="#010101"/>
<path d="M222.361 127.909C222.361 181.853 178.633 225.583 124.692 225.583C124.503 225.583 124.311 225.583 124.121 225.581V30.236C124.311 30.2344 124.503 30.2344 124.692 30.2344C178.633 30.2344 222.361 73.9637 222.361 127.909Z" fill="#FEFEFE"/>
<path d="M124.121 30.2363V225.581C70.4432 225.274 27.0237 181.664 27.0237 127.91C27.0237 74.1555 70.4432 30.5434 124.121 30.2363Z" fill="#249DD7"/>
<path d="M216.22 89.2416C211.216 77.4124 204.055 66.7884 194.932 57.6651C185.809 48.5418 175.186 41.3799 163.357 36.3758C151.11 31.1951 138.101 28.5684 124.692 28.5684C111.284 28.5684 98.2735 31.1951 86.0274 36.3758C74.1989 41.3799 63.5756 48.5418 54.4529 57.6651C45.3302 66.7884 38.1687 77.4124 33.1649 89.2416C27.9845 101.49 25.358 114.5 25.358 127.909C25.358 141.318 27.9845 154.33 33.1649 166.577C38.1687 178.406 45.3302 189.03 54.4529 198.153C63.5756 207.276 74.1989 214.438 86.0274 219.442C98.2752 224.623 111.284 227.25 124.692 227.25C138.101 227.25 151.111 224.623 163.357 219.442C175.186 214.438 185.809 207.276 194.932 198.153C204.055 189.03 211.216 178.406 216.22 166.577C221.4 154.328 224.027 141.318 224.027 127.909C224.027 114.5 221.4 101.489 216.22 89.2416ZM214.992 93.6712C215.071 93.549 215.14 93.445 215.205 93.3542C217.56 99.5157 219.266 105.862 220.311 112.347C214.845 118.849 208.74 125.018 201.412 129.453C177.289 144.051 152.344 138.198 130.056 123.574C128.442 122.514 126.867 121.176 125.32 120.138C106.62 107.581 86.8594 97.2951 63.4881 98.5036C47.5209 99.3291 36.9586 108.348 29.3333 121.305C28.8875 122.063 28.3592 122.794 27.93 123.574C28.1711 118.041 28.876 112.588 30.0382 107.241C31.4348 104.982 33.8319 101.953 34.8571 100.744C58.7352 72.6279 98.7506 85.3437 125.32 102.142C128.915 104.416 132.382 106.861 136.105 108.939C161.596 123.184 190.866 127.422 210.145 101.205C211.923 98.7859 213.362 96.179 214.992 93.6696V93.6712ZM33.1963 159.776C31.7419 155.606 30.5813 151.355 29.7163 147.037C30.4641 145.281 32.2916 142.365 32.9057 141.389C43.1824 125.099 57.7695 116.919 77.3636 118.322C94.9091 119.578 111.015 129.722 125.32 139.126C146.393 152.977 171.628 160.955 196.137 150.595C205.956 146.445 214.354 139.567 221.475 131.743C221.166 139.743 219.89 147.584 217.661 155.18C215.35 157.623 211.701 160.442 208.974 162.276C183.962 179.101 155.757 171.511 132.169 156.464C129.739 154.914 127.588 153.048 125.321 151.508C123.801 150.475 122.147 149.439 120.585 148.403C99.2476 134.249 67.6978 124.539 46.1655 143.588C40.9471 148.205 36.9025 153.919 33.1963 159.776ZM56.2028 59.4152C65.0977 50.5197 75.4569 43.5344 86.9898 38.6558C98.9306 33.6055 111.614 31.0448 124.691 31.0448C137.767 31.0448 150.451 33.6055 162.392 38.6558C173.925 43.5344 184.284 50.5181 193.179 59.4152C199.388 65.6245 204.664 72.5486 208.944 80.0853C203.464 90.394 193.648 98.951 182.11 101.568C176.693 102.796 172.048 103.169 166.529 102.453C150.699 100.401 137.612 92.8127 124.988 83.6531C100.91 66.1825 68.4489 54.482 43.4333 77.2952C42.2942 78.3337 41.2509 79.6049 40.1167 80.65C44.4536 72.8937 49.837 65.7797 56.2011 59.4152H56.2028ZM193.18 196.401C184.285 205.297 173.926 212.282 162.393 217.161C150.453 222.211 137.769 224.772 124.692 224.772C111.616 224.772 98.9322 222.211 86.9915 217.161C75.4585 212.282 65.0993 205.299 56.2044 196.401C49.5448 189.741 43.9567 182.261 39.5208 174.08C39.912 173.309 40.7077 172.178 40.9933 171.762C53.6274 153.319 73.7103 148.058 94.7423 154.435C106.63 158.039 115.261 164.158 125.486 170.659C146.675 184.13 179.193 194.876 202.239 180.139C204.979 178.386 207.021 176.228 209.532 174.391C209.608 174.336 209.706 174.254 209.813 174.176C205.385 182.319 199.815 189.768 193.182 196.401H193.18Z" fill="#010101"/>
</svg>
