<svg width="256" height="256" viewBox="0 0 256 256" fill="none" xmlns="http://www.w3.org/2000/svg">
<g clip-path="url(#clip0_1038_33726)">
<g filter="url(#filter0_d_1038_33726)">
<path d="M41.0987 233.496C40.515 231.962 39.6441 230.603 38.51 229.457C37.3784 228.314 35.9596 227.393 34.292 226.72C32.6292 226.05 30.6841 225.711 28.5093 225.711H19.8842C19.5517 225.711 19.2167 225.699 18.8842 225.675C18.5348 225.651 18.1449 225.632 17.7262 225.617C17.329 225.605 16.8744 225.574 16.372 225.526L15.927 225.483L15.7595 225.897C15.6806 226.091 15.6423 226.292 15.6423 226.493V226.79C15.6423 227.077 15.683 227.309 15.7667 227.496C15.8552 227.694 16.061 227.955 16.5419 228.075L16.5849 228.084C17.5707 228.254 18.0205 228.431 18.2238 228.548C18.3434 228.62 18.4679 228.74 18.4679 229.091V247.722C18.4679 248.059 18.3434 248.188 18.1544 248.282C17.7716 248.468 17.2453 248.619 16.5682 248.736C16.3265 248.784 16.1184 248.897 15.9461 249.067C15.6734 249.339 15.6399 249.746 15.6399 250.028V250.325C15.6399 250.543 15.6854 250.746 15.7787 250.928L15.9557 251.282L16.3505 251.256C17.0922 251.208 17.908 251.165 18.7741 251.126C19.6187 251.091 20.3675 251.071 20.9968 251.071H28.6193C30.897 251.071 32.9067 250.698 34.5863 249.961C36.2682 249.224 37.675 248.236 38.7684 247.026C39.8594 245.82 40.6753 244.442 41.1944 242.934C41.7088 241.439 41.972 239.91 41.972 238.389C41.972 236.664 41.6777 235.015 41.0963 233.491L41.0987 233.496ZM35.6486 239.102C35.6486 241.863 34.9308 244.069 33.5144 245.657C32.1148 247.227 29.8706 248.023 26.8393 248.023C26.1933 248.023 25.6813 247.999 25.3129 247.954C24.8942 247.901 24.6693 247.83 24.552 247.777C24.4635 247.739 24.4228 247.7 24.4133 247.679C24.3726 247.583 24.3511 247.447 24.3511 247.284V228.768H26.0593C27.624 228.768 29.0332 228.965 30.2462 229.354C31.4234 229.733 32.4163 230.331 33.1986 231.135C33.9858 231.943 34.5935 233.01 35.0098 234.302C35.4356 235.625 35.651 237.24 35.651 239.102H35.6486Z" fill="#008864"/>
<path d="M64.5742 243.906C64.323 243.798 64.1005 243.745 63.8923 243.745C63.2129 243.745 62.9377 244.114 62.8301 244.348C62.543 244.92 62.2535 245.444 61.9688 245.908C61.7032 246.341 61.3874 246.724 61.0357 247.042C60.6959 247.351 60.3012 247.595 59.8633 247.765C59.4279 247.935 58.8704 248.021 58.2029 248.021H56.6406C55.162 248.021 54.1141 247.94 53.5232 247.782C52.9992 247.64 52.9992 247.439 52.9992 247.317V239.585H57.6455C57.9039 239.585 57.978 239.681 58.0331 239.779C58.1168 239.929 58.2843 240.353 58.4637 241.475C58.5116 241.987 58.8776 242.523 59.7652 242.523C59.849 242.523 59.983 242.516 60.1624 242.504C60.4304 242.485 60.6409 242.42 60.8036 242.31L61.1003 242.111L61.0668 241.757C60.9926 240.996 60.9448 240.315 60.9208 239.726C60.8969 239.135 60.8849 238.611 60.8849 238.171C60.8849 237.664 60.9041 237.027 60.94 236.286C60.9759 235.532 61.0213 234.869 61.0692 234.319L61.1098 233.848L60.66 233.699C60.538 233.659 60.3825 233.632 60.1648 233.615C59.983 233.601 59.8514 233.596 59.7676 233.596C59.4781 233.596 59.2269 233.649 59.0164 233.752C58.8393 233.84 58.5331 234.068 58.4685 234.592C58.3249 235.599 58.1718 236.08 58.0689 236.307C58.0163 236.424 57.9421 236.532 57.6479 236.532H53.0016V228.766H57.3488C57.9637 228.766 58.4948 228.823 58.9279 228.933C59.3274 229.036 59.6767 229.206 59.9686 229.436C60.2725 229.677 60.5524 230 60.7988 230.398C61.0716 230.835 61.3539 231.371 61.6386 231.989L61.6577 232.029C61.8874 232.443 62.2846 232.673 62.775 232.673C62.988 232.673 63.2033 232.637 63.4091 232.568C63.5694 232.515 63.7177 232.46 63.8541 232.407L64.3828 232.194L64.1962 231.656C64.0048 231.106 63.8589 230.634 63.7655 230.256C63.6698 229.878 63.5861 229.479 63.5143 229.072L63.5095 229.048C63.3923 228.507 63.3086 227.974 63.2607 227.464C63.2057 226.864 63.1339 226.467 63.0406 226.213L63.0023 226.132C62.7726 225.718 62.3755 225.49 61.885 225.49C61.5668 225.49 61.007 225.529 60.1744 225.605C59.392 225.677 58.4398 225.715 57.3488 225.715H49.7262C49.14 225.715 48.4319 225.703 47.6256 225.679C46.8289 225.656 45.8862 225.605 44.8239 225.531L44.3909 225.5L44.2282 225.904C44.1492 226.098 44.111 226.292 44.111 226.481V226.835C44.111 227.739 44.6684 228.005 44.9077 228.077L44.9675 228.091C45.4723 228.187 45.891 228.278 46.2116 228.362C46.5011 228.438 46.7332 228.519 46.9006 228.608C47.0035 228.663 47.0538 228.713 47.0657 228.737C47.092 228.795 47.1232 228.902 47.1232 229.101V247.731C47.1232 248.038 47.0179 248.152 46.8456 248.234C46.6016 248.353 46.08 248.538 44.9914 248.739C44.5608 248.796 44.111 249.133 44.111 249.925V250.279C44.111 250.538 44.1564 250.753 44.2497 250.94L44.4292 251.294L44.8239 251.268C45.5441 251.22 46.3839 251.177 47.3169 251.138C48.2357 251.102 49.0611 251.083 49.7669 251.083H58.2077C58.5211 251.083 58.8992 251.095 59.3274 251.119C59.77 251.143 60.2198 251.162 60.6624 251.177C61.0859 251.189 61.4831 251.208 61.8491 251.232C62.2439 251.258 62.5382 251.27 62.7439 251.27C63.4521 251.27 63.756 250.878 63.8732 250.643L63.9067 250.562C63.933 250.483 63.9785 250.325 64.0455 250.088C64.1101 249.851 64.1747 249.586 64.2393 249.294C64.3015 249.007 64.3637 248.705 64.4283 248.392L64.5862 247.602C64.6651 247.384 64.7393 247.119 64.8135 246.794C64.8781 246.511 64.9666 246.248 65.0719 246.014L65.103 245.93C65.1484 245.77 65.2011 245.607 65.2585 245.447C65.3255 245.255 65.3877 245.049 65.4427 244.834L65.5671 244.339L64.5766 243.915L64.5742 243.906Z" fill="#008864"/>
<path d="M96.9977 240.946C96.6005 240.178 96.0407 239.508 95.3301 238.948C94.6362 238.403 93.8084 237.958 92.873 237.628C92.5452 237.513 92.2054 237.41 91.8561 237.324C92.5715 236.967 93.2103 236.537 93.7654 236.032C94.8324 235.063 95.3755 233.757 95.3755 232.149C95.3755 231.314 95.232 230.498 94.9473 229.73C94.653 228.933 94.153 228.22 93.4615 227.61C92.7796 227.01 91.8657 226.536 90.746 226.203C89.6526 225.878 88.2697 225.713 86.6333 225.713H81.5013C80.9199 225.713 80.1567 225.694 79.238 225.658C78.3049 225.62 77.4651 225.577 76.7449 225.529L76.2856 225.498L76.1396 225.935C76.1061 226.036 76.0846 226.148 76.075 226.268C76.0463 226.359 76.0344 226.455 76.0344 226.555V226.723C76.0344 226.995 76.0703 227.227 76.1444 227.428C76.2138 227.617 76.4052 227.952 76.934 228.084L76.9842 228.093C78.1015 228.27 78.5058 228.45 78.647 228.541C78.7044 228.579 78.8599 228.68 78.8599 229.101V247.731C78.8599 248.093 78.7307 248.222 78.6039 248.301C78.4054 248.423 77.9651 248.6 76.9938 248.739L76.9603 248.743C76.7186 248.791 76.5105 248.904 76.3382 249.073C76.0655 249.346 76.032 249.753 76.032 250.035V250.203C76.032 250.31 76.0487 250.423 76.0822 250.538L76.1851 251.265H76.7043C76.977 251.265 77.2713 251.258 77.5847 251.246C77.8934 251.232 78.1996 251.212 78.5106 251.188C78.9867 251.141 79.5035 251.11 80.0442 251.098C80.5778 251.086 81.0802 251.078 81.5372 251.078H87.9707C89.3799 251.078 90.6814 250.921 91.8442 250.612C93.0285 250.296 94.0549 249.818 94.8922 249.193C95.744 248.557 96.4187 247.755 96.8924 246.805C97.3661 245.858 97.6054 244.755 97.6054 243.525C97.6054 242.59 97.402 241.721 97.0001 240.944L96.9977 240.946ZM88.9396 233.838C88.8033 234.297 88.5712 234.714 88.2482 235.08C87.93 235.438 87.4898 235.73 86.9371 235.941C86.3653 236.161 85.626 236.273 84.7384 236.273V228.768C85.5614 228.768 86.272 228.864 86.8558 229.055C87.4132 229.237 87.8654 229.488 88.1932 229.797C88.5186 230.103 88.7626 230.469 88.9157 230.886C89.076 231.326 89.1574 231.799 89.1574 232.297C89.1574 232.831 89.0832 233.35 88.9396 233.838ZM91.2771 244.047C91.2771 245.494 90.9207 246.537 90.2196 247.148C89.4923 247.779 88.3367 248.097 86.7816 248.097C86.1476 248.097 85.5877 248.026 85.114 247.882C84.8341 247.798 84.7408 247.664 84.7408 247.358V239.329H86.15C86.8534 239.329 87.5281 239.432 88.1597 239.635C88.777 239.834 89.3225 240.128 89.7818 240.511C90.2316 240.886 90.5953 241.372 90.868 241.958C91.1408 242.544 91.2771 243.25 91.2771 244.049V244.047Z" fill="#008864"/>
<path d="M109.991 248.741L109.958 248.736C109.463 248.665 109.07 248.59 108.788 248.511C108.479 248.425 108.341 248.342 108.286 248.296C108.233 248.255 108.211 248.224 108.207 248.208C108.187 248.129 108.166 247.98 108.166 247.729V229.099C108.166 228.847 108.187 228.699 108.207 228.62C108.209 228.606 108.233 228.572 108.286 228.531C108.341 228.488 108.482 228.405 108.788 228.319C109.073 228.24 109.467 228.163 109.958 228.094L110.046 228.075C110.286 228.003 110.843 227.74 110.843 226.869C110.843 226.783 110.836 226.656 110.822 226.483C110.807 226.314 110.786 226.156 110.757 226.01L110.657 225.495L110.133 225.529C109.365 225.577 108.51 225.62 107.599 225.658C106.704 225.694 105.905 225.713 105.226 225.713C104.546 225.713 103.716 225.694 102.833 225.658C101.931 225.62 101.084 225.577 100.316 225.529L99.8854 225.503L99.7251 225.904C99.6461 226.098 99.6079 226.311 99.6079 226.536V226.871C99.6079 227.742 100.165 228.005 100.405 228.077L100.493 228.096C100.984 228.165 101.376 228.242 101.661 228.321C101.969 228.407 102.091 228.491 102.127 228.52C102.213 228.591 102.232 228.646 102.237 228.663C102.259 228.735 102.285 228.869 102.285 229.101V247.731C102.285 247.964 102.259 248.098 102.237 248.169C102.228 248.2 102.206 248.251 102.127 248.315C102.089 248.346 101.969 248.428 101.661 248.514C101.381 248.593 100.991 248.667 100.5 248.739C100.271 248.767 99.6055 248.935 99.6055 249.964V250.299C99.6055 250.543 99.6509 250.758 99.7442 250.94L99.9213 251.292L100.316 251.268C101.082 251.22 101.929 251.177 102.833 251.138C103.716 251.103 104.52 251.083 105.226 251.083C105.931 251.083 106.704 251.103 107.599 251.138C108.513 251.177 109.365 251.22 110.133 251.268L110.633 251.299L110.752 250.813C110.783 250.684 110.807 250.531 110.824 250.347C110.838 250.177 110.846 250.047 110.846 249.964C110.846 248.992 110.195 248.787 109.994 248.746L109.991 248.741Z" fill="#008864"/>
<path d="M138.651 239.661L138.486 239.25L138.044 239.288C137.752 239.312 137.391 239.338 136.962 239.362C136.534 239.386 136.089 239.405 135.639 239.417L134.292 239.456C133.876 239.468 133.498 239.475 133.168 239.475C132.838 239.475 132.45 239.468 132.022 239.456L130.62 239.417C130.146 239.405 129.675 239.386 129.223 239.362C128.768 239.338 128.354 239.312 127.986 239.288L127.526 239.257L127.38 239.695C127.34 239.817 127.311 239.97 127.297 240.169C127.282 240.329 127.275 240.458 127.275 240.554C127.275 240.788 127.33 241.03 127.44 241.269C127.545 241.499 127.773 241.798 128.249 241.915L128.313 241.927C129.361 242.066 129.821 242.262 130.019 242.401C130.22 242.542 130.323 242.846 130.323 243.305V248.193C130.065 248.251 129.811 248.296 129.567 248.325C129.187 248.37 128.742 248.394 128.244 248.394C126.88 248.394 125.662 248.133 124.624 247.619C123.583 247.105 122.698 246.375 121.99 245.449C121.27 244.509 120.717 243.37 120.341 242.059C119.961 240.731 119.77 239.247 119.77 237.649C119.77 236.202 119.942 234.891 120.284 233.749C120.619 232.625 121.109 231.656 121.741 230.864C122.358 230.089 123.146 229.484 124.083 229.067C125.031 228.646 126.143 228.431 127.392 228.431C129.045 228.431 130.44 228.728 131.536 229.309C132.572 229.859 133.335 230.919 133.807 232.455C133.929 232.922 134.204 233.135 134.414 233.228C134.627 233.326 134.881 233.376 135.166 233.376C135.307 233.376 135.481 233.355 135.699 233.307C135.869 233.271 136.015 233.24 136.137 233.216L136.766 233.089L136.596 232.469C136.333 231.51 136.125 230.51 135.979 229.496C135.833 228.467 135.733 227.617 135.687 226.971L135.656 226.543L135.242 226.436C133.888 226.084 132.433 225.799 130.916 225.586C129.395 225.373 127.883 225.263 126.426 225.263C124.26 225.263 122.339 225.665 120.715 226.457C119.097 227.247 117.731 228.285 116.655 229.543C115.58 230.799 114.772 232.225 114.255 233.778C113.741 235.319 113.48 236.872 113.48 238.393C113.48 240.334 113.748 242.123 114.274 243.712C114.808 245.327 115.635 246.734 116.736 247.894C117.839 249.059 119.262 249.968 120.971 250.593C122.655 251.21 124.674 251.521 126.969 251.521C127.828 251.521 128.608 251.509 129.282 251.483C129.947 251.457 130.574 251.413 131.151 251.349C131.72 251.287 132.271 251.217 132.79 251.141C133.314 251.067 133.883 250.978 134.479 250.878H134.481C135.233 250.746 135.651 250.574 135.881 250.299C136.096 250.04 136.206 249.724 136.206 249.358V242.889C136.206 242.415 136.369 242.298 136.422 242.26C136.548 242.169 136.898 241.996 137.802 241.884L137.879 241.874L137.95 241.846C138.173 241.757 138.364 241.614 138.517 241.415C138.687 241.197 138.774 240.903 138.774 240.547V240.25C138.774 240.051 138.733 239.85 138.656 239.657L138.651 239.661Z" fill="#008864"/>
<path d="M165.395 233.142C164.723 231.539 163.783 230.134 162.605 228.969C161.426 227.802 160.014 226.883 158.411 226.237C156.808 225.591 155.057 225.263 153.205 225.263C151.353 225.263 149.671 225.61 148.078 226.297C146.489 226.981 145.083 227.931 143.893 229.12C142.704 230.309 141.755 231.711 141.073 233.283C140.386 234.864 140.037 236.582 140.037 238.393C140.037 240.3 140.379 242.073 141.051 243.664C141.723 245.253 142.654 246.65 143.819 247.815C144.987 248.983 146.394 249.904 147.997 250.55C149.6 251.196 151.351 251.524 153.203 251.524C155.055 251.524 156.741 251.177 158.347 250.49C159.945 249.806 161.359 248.863 162.548 247.688C163.737 246.511 164.687 245.109 165.374 243.521C166.06 241.927 166.407 240.202 166.407 238.393C166.407 236.585 166.067 234.747 165.393 233.142H165.395ZM153.763 248.394C152.619 248.394 151.59 248.107 150.7 247.54C149.791 246.961 149.011 246.138 148.379 245.095C147.733 244.028 147.231 242.729 146.889 241.236C146.542 239.726 146.365 238.056 146.365 236.276C146.365 235.037 146.542 233.917 146.889 232.946C147.236 231.977 147.7 231.144 148.269 230.472C148.829 229.811 149.487 229.299 150.224 228.952C150.959 228.608 151.724 228.433 152.499 228.433C153.744 228.433 154.846 228.723 155.775 229.292C156.717 229.871 157.517 230.682 158.146 231.699C158.789 232.74 159.277 233.998 159.596 235.436C159.919 236.898 160.084 238.508 160.084 240.216C160.084 241.365 159.923 242.456 159.61 243.458C159.297 244.454 158.854 245.329 158.292 246.064C157.739 246.786 157.069 247.363 156.306 247.779C155.557 248.188 154.701 248.394 153.765 248.394H153.763Z" fill="#008864"/>
<path d="M193.361 249.215C193.203 249.033 192.99 248.909 192.744 248.854C192.285 248.739 191.773 248.562 191.227 248.327C190.753 248.126 190.32 247.746 189.942 247.2L184.516 239.283C185.71 238.712 186.684 237.927 187.418 236.944C188.299 235.764 188.746 234.436 188.746 232.996C188.746 231.922 188.533 230.922 188.112 230.027C187.691 229.132 187.074 228.347 186.275 227.696C185.488 227.055 184.526 226.558 183.416 226.213C182.322 225.876 181.073 225.704 179.707 225.704H174.092C173.386 225.704 172.575 225.684 171.68 225.648C170.774 225.61 169.972 225.567 169.3 225.519L168.953 225.495L168.759 225.785C168.642 225.96 168.584 226.17 168.584 226.414V226.749C168.584 227.139 168.659 227.419 168.814 227.627C168.955 227.816 169.142 227.957 169.369 228.048L169.441 228.077L169.517 228.086C170.73 228.235 171.18 228.424 171.338 228.522C171.465 228.601 171.594 228.73 171.594 229.091V247.722C171.594 247.937 171.565 248.059 171.542 248.121C171.527 248.16 171.486 248.2 171.422 248.241C171.338 248.294 171.171 248.377 170.845 248.464C170.541 248.545 170.13 248.636 169.63 248.732C169.36 248.782 168.73 249.007 168.73 250.026V250.323C168.73 250.54 168.776 250.744 168.869 250.926L169.049 251.282L169.446 251.253C170.142 251.205 170.917 251.162 171.754 251.124C172.573 251.088 173.434 251.069 174.312 251.069C175.561 251.069 176.736 251.088 177.805 251.124C178.896 251.162 179.772 251.203 180.48 251.253L181.004 251.289L181.107 250.772C181.164 250.488 181.193 250.222 181.193 249.985C181.193 249.241 180.805 248.744 180.15 248.648C178.784 248.473 178.154 248.267 177.863 248.126C177.587 247.992 177.475 247.798 177.475 247.456V240.284H178.159L183.748 248.54C184.272 249.301 184.822 249.923 185.382 250.39C186.011 250.914 186.665 251.179 187.327 251.179C187.67 251.179 188.105 251.184 188.634 251.198C189.155 251.21 189.689 251.229 190.22 251.253C190.756 251.277 191.275 251.296 191.775 251.311C192.256 251.323 192.632 251.339 192.888 251.363L193.333 251.404L193.498 250.988C193.574 250.794 193.615 250.593 193.615 250.394V250.059C193.615 249.686 193.531 249.409 193.359 249.205L193.361 249.215ZM182.454 233.151C182.454 233.989 182.349 234.678 182.143 235.199C181.944 235.702 181.669 236.089 181.301 236.386C180.927 236.688 180.468 236.905 179.937 237.032C179.365 237.168 178.712 237.238 177.994 237.238H177.477V228.766H177.994C179.683 228.766 180.856 229.144 181.475 229.89C182.124 230.668 182.451 231.766 182.451 233.151H182.454Z" fill="#008864"/>
<path d="M217.679 249.215C217.521 249.033 217.308 248.909 217.062 248.854C216.602 248.739 216.09 248.562 215.545 248.327C215.071 248.126 214.638 247.746 214.26 247.2L208.834 239.283C210.028 238.712 211.001 237.927 211.736 236.944C212.616 235.764 213.064 234.436 213.064 232.996C213.064 231.922 212.851 230.922 212.43 230.027C212.009 229.132 211.391 228.347 210.592 227.696C209.805 227.055 208.843 226.558 207.733 226.213C206.64 225.876 205.391 225.704 204.025 225.704H198.41C197.704 225.704 196.893 225.684 195.998 225.648C195.091 225.61 194.29 225.567 193.617 225.519L193.27 225.495L193.077 225.785C192.959 225.96 192.902 226.17 192.902 226.414V226.749C192.902 227.139 192.976 227.419 193.132 227.627C193.273 227.816 193.459 227.957 193.687 228.048L193.758 228.077L193.835 228.086C195.048 228.235 195.498 228.424 195.656 228.522C195.783 228.601 195.912 228.73 195.912 229.091V247.722C195.912 247.937 195.883 248.059 195.859 248.121C195.845 248.16 195.804 248.2 195.74 248.241C195.656 248.294 195.488 248.377 195.163 248.464C194.859 248.545 194.448 248.636 193.948 248.732C193.677 248.782 193.048 249.007 193.048 250.026V250.323C193.048 250.54 193.093 250.744 193.187 250.926L193.366 251.282L193.763 251.253C194.46 251.205 195.235 251.162 196.072 251.124C196.89 251.088 197.752 251.069 198.63 251.069C199.879 251.069 201.053 251.088 202.123 251.124C203.214 251.162 204.089 251.203 204.798 251.253L205.322 251.289L205.424 250.772C205.482 250.488 205.511 250.222 205.511 249.985C205.511 249.241 205.123 248.744 204.467 248.648C203.101 248.473 202.472 248.267 202.18 248.126C201.905 247.992 201.793 247.798 201.793 247.456V240.284H202.477L208.066 248.54C208.59 249.301 209.14 249.923 209.7 250.39C210.329 250.914 210.982 251.179 211.645 251.179C211.987 251.179 212.423 251.184 212.951 251.198C213.473 251.21 214.006 251.229 214.538 251.253C215.073 251.277 215.593 251.296 216.093 251.311C216.574 251.323 216.949 251.339 217.205 251.363L217.65 251.404L217.815 250.988C217.892 250.794 217.933 250.593 217.933 250.394V250.059C217.933 249.686 217.849 249.409 217.677 249.205L217.679 249.215ZM206.774 233.151C206.774 233.989 206.669 234.678 206.463 235.199C206.264 235.702 205.989 236.089 205.621 236.386C205.247 236.688 204.788 236.905 204.257 237.032C203.685 237.168 203.032 237.238 202.314 237.238H201.797V228.766H202.314C204.003 228.766 205.176 229.144 205.795 229.89C206.444 230.668 206.771 231.766 206.771 233.151H206.774Z" fill="#008864"/>
<path d="M237.69 243.906C237.439 243.798 237.216 243.746 237.008 243.746C236.329 243.746 236.053 244.114 235.946 244.348C235.659 244.92 235.369 245.447 235.085 245.908C234.819 246.341 234.503 246.724 234.151 247.042C233.812 247.351 233.415 247.595 232.977 247.765C232.541 247.935 231.984 248.021 231.316 248.021H229.754C228.275 248.021 227.227 247.94 226.637 247.782C226.113 247.641 226.113 247.44 226.113 247.318V239.585H230.759C231.017 239.585 231.091 239.681 231.146 239.779C231.23 239.929 231.398 240.353 231.577 241.475C231.625 241.987 231.991 242.523 232.879 242.523C232.962 242.523 233.096 242.516 233.278 242.504C233.546 242.485 233.757 242.42 233.919 242.31L234.216 242.111L234.183 241.755C234.108 240.994 234.061 240.312 234.037 239.724C234.013 239.133 234.001 238.609 234.001 238.169C234.001 237.657 234.02 237.023 234.056 236.283C234.094 235.53 234.137 234.867 234.185 234.317L234.226 233.845L233.776 233.697C233.654 233.656 233.498 233.63 233.281 233.613C233.099 233.599 232.967 233.594 232.883 233.594C232.594 233.594 232.34 233.647 232.132 233.75C231.955 233.838 231.649 234.065 231.584 234.589C231.441 235.597 231.288 236.077 231.185 236.305C231.132 236.422 231.058 236.53 230.764 236.53H226.117V228.764H230.465C231.079 228.764 231.611 228.821 232.044 228.931C232.443 229.034 232.792 229.204 233.084 229.433C233.388 229.675 233.668 230 233.915 230.395C234.187 230.833 234.47 231.369 234.754 231.986L234.773 232.025C235.003 232.438 235.4 232.668 235.891 232.668C236.104 232.668 236.319 232.632 236.525 232.563C236.687 232.51 236.833 232.455 236.97 232.403L237.499 232.19L237.31 231.651C237.118 231.103 236.972 230.632 236.879 230.252C236.783 229.871 236.699 229.474 236.628 229.065L236.623 229.041C236.503 228.498 236.422 227.964 236.374 227.457C236.317 226.857 236.247 226.46 236.154 226.206L236.116 226.125C235.886 225.711 235.489 225.483 234.998 225.483C234.68 225.483 234.12 225.522 233.288 225.598C232.505 225.67 231.553 225.708 230.462 225.708H222.84C222.253 225.708 221.545 225.696 220.739 225.672C219.942 225.648 219 225.598 217.937 225.524L217.502 225.493L217.339 225.897C217.263 226.091 217.222 226.285 217.222 226.474V226.828C217.222 227.732 217.779 227.998 218.021 228.07L218.081 228.084C218.586 228.18 219.004 228.271 219.325 228.354C219.614 228.431 219.847 228.512 220.014 228.601C220.117 228.656 220.167 228.706 220.179 228.732C220.205 228.787 220.237 228.898 220.237 229.096V247.727C220.237 248.033 220.126 248.15 219.959 248.229C219.713 248.349 219.193 248.533 218.105 248.734C217.674 248.789 217.224 249.129 217.224 249.921V250.275C217.224 250.533 217.27 250.748 217.363 250.933L217.543 251.289L217.94 251.263C218.66 251.215 219.5 251.172 220.433 251.134C221.351 251.098 222.177 251.079 222.883 251.079H231.323C231.637 251.079 232.015 251.091 232.443 251.114C232.886 251.138 233.336 251.158 233.778 251.172C234.202 251.184 234.599 251.203 234.965 251.227C235.36 251.253 235.654 251.265 235.86 251.265C236.568 251.265 236.872 250.873 236.989 250.638L237.022 250.557C237.049 250.478 237.094 250.32 237.161 250.083C237.226 249.846 237.29 249.578 237.355 249.289C237.417 249.002 237.479 248.7 237.544 248.387L237.702 247.597C237.781 247.382 237.855 247.117 237.932 246.789C237.996 246.506 238.085 246.243 238.19 246.009L238.221 245.925C238.267 245.765 238.319 245.602 238.377 245.439C238.444 245.248 238.506 245.042 238.561 244.827L238.685 244.332L237.695 243.908L237.69 243.906Z" fill="#008864"/>
</g>
<g filter="url(#filter1_d_1038_33726)">
<path d="M34.4595 211.178C34.3183 211.111 34.1556 211.059 33.9618 211.013C33.7633 210.965 33.5934 210.944 33.4427 210.944C33.1867 210.944 32.9402 211.018 32.7105 211.164C32.4569 211.324 32.2751 211.573 32.1722 211.901C31.9402 212.628 31.6818 213.274 31.4018 213.82C31.141 214.324 30.8276 214.743 30.4687 215.064C30.1194 215.375 29.6888 215.612 29.1959 215.765C28.6767 215.925 28.0332 216.006 27.2843 216.006C26.3967 216.006 25.5952 215.767 24.832 215.277C24.0544 214.777 23.3725 214.066 22.8031 213.164C22.2169 212.238 21.7504 211.123 21.4107 209.85C21.0709 208.568 20.8963 207.159 20.8963 205.661C20.8963 204.259 21.0398 202.986 21.3197 201.879C21.5949 200.792 22.0016 199.855 22.528 199.091C23.0376 198.352 23.6788 197.775 24.4324 197.378C25.1861 196.983 26.0737 196.782 27.069 196.782C27.7245 196.782 28.2987 196.847 28.7725 196.976C29.2175 197.098 29.6098 197.294 29.94 197.562C30.2726 197.833 30.5645 198.206 30.8109 198.67C31.0717 199.165 31.3109 199.79 31.5215 200.529C31.6219 200.977 31.8636 201.19 32.0478 201.288C32.2464 201.395 32.4809 201.448 32.7416 201.448C32.8684 201.448 33.0264 201.426 33.2369 201.381C33.4044 201.345 33.5384 201.314 33.6436 201.29L34.225 201.154L34.0886 200.572C33.8709 199.644 33.701 198.675 33.5814 197.694C33.4618 196.704 33.3804 195.883 33.3398 195.254L33.3135 194.845L32.9235 194.72C31.8492 194.38 30.8348 194.12 29.9089 193.95C28.971 193.777 27.9542 193.689 26.8871 193.689C24.9037 193.689 23.1668 194.081 21.7241 194.854C20.291 195.622 19.0947 196.632 18.1736 197.857C17.2572 199.072 16.5778 200.448 16.1543 201.948C15.7356 203.429 15.5203 204.919 15.5203 206.381C15.5203 208.128 15.738 209.783 16.1686 211.3C16.6041 212.839 17.2692 214.198 18.1449 215.341C19.0325 216.499 20.1713 217.42 21.5303 218.083C22.8868 218.741 24.485 219.076 26.2747 219.076C27.5236 219.076 28.6911 219.026 29.7462 218.93C30.8061 218.832 31.8564 218.672 32.8684 218.452L33.268 218.365L33.3326 217.961C33.4116 217.475 33.5073 216.959 33.6173 216.425C33.725 215.904 33.8518 215.37 33.9905 214.841C34.1317 214.303 34.2705 213.774 34.4044 213.257C34.5336 212.757 34.6581 212.3 34.7801 211.898L34.9284 211.403L34.4595 211.185V211.178Z" fill="#008864"/>
<path d="M55.7147 201.221C55.174 199.675 54.4203 198.319 53.4705 197.192C52.5159 196.058 51.3698 195.16 50.0659 194.529C48.7572 193.895 47.3265 193.574 45.812 193.574C44.2975 193.574 42.9218 193.916 41.6179 194.591C40.3283 195.259 39.1871 196.184 38.2253 197.34C37.2683 198.488 36.5051 199.843 35.9572 201.359C35.4069 202.879 35.1294 204.53 35.1294 206.269C35.1294 208.102 35.4021 209.805 35.9405 211.334C36.4788 212.865 37.2276 214.215 38.1655 215.341C39.1129 216.478 40.2542 217.375 41.5581 218.007C42.8668 218.641 44.2975 218.961 45.812 218.961C47.3265 218.961 48.707 218.619 50.0181 217.947C51.3172 217.282 52.4632 216.363 53.425 215.219C54.382 214.081 55.1476 212.726 55.6955 211.195C56.2434 209.664 56.5233 208.006 56.5233 206.271C56.5233 204.537 56.2506 202.766 55.7123 201.226L55.7147 201.221ZM46.2594 215.896C45.3646 215.896 44.5918 215.636 43.8932 215.1C43.1707 214.547 42.551 213.76 42.0462 212.757C41.527 211.724 41.1227 210.468 40.8451 209.023C40.5652 207.561 40.424 205.946 40.424 204.221C40.424 203.018 40.5652 201.929 40.8475 200.986C41.1251 200.048 41.5007 199.244 41.9577 198.596C42.4027 197.967 42.9194 197.481 43.4984 197.156C44.0726 196.833 44.6445 196.675 45.2474 196.675C46.2259 196.675 47.0561 196.938 47.7858 197.476C48.5347 198.029 49.1687 198.804 49.6712 199.783C50.1903 200.79 50.5827 202.008 50.8387 203.4C51.0995 204.817 51.2311 206.374 51.2311 208.027C51.2311 209.142 51.1019 210.202 50.8483 211.176C50.5971 212.138 50.2406 212.987 49.7884 213.695C49.3482 214.387 48.8194 214.937 48.2165 215.329C47.6303 215.712 46.9915 215.899 46.2618 215.899L46.2594 215.896Z" fill="#008864"/>
<path d="M78.9222 194.835C78.9102 194.701 78.8958 194.565 78.8743 194.431L78.7834 193.852L78.2355 193.938C77.7905 194.007 77.3359 194.053 76.8813 194.077C76.4196 194.101 75.8765 194.113 75.2688 194.113C74.7376 194.113 74.2376 194.101 73.7854 194.077C73.338 194.055 72.8356 194.007 72.2877 193.938L71.7542 193.869L71.6632 194.431C71.6417 194.567 71.625 194.704 71.613 194.838C71.601 194.979 71.5962 195.091 71.5962 195.177C71.5962 196.098 72.1202 196.362 72.3475 196.433L72.4217 196.45C73.3069 196.591 73.6036 196.768 73.6921 196.838C73.7376 196.874 73.8715 196.981 73.8715 197.402V208.42C73.8715 211.013 73.5127 212.887 72.8045 213.987C72.1322 215.03 71.0005 215.538 69.3425 215.538C67.6845 215.538 66.6461 214.997 66.0121 213.887C65.3302 212.695 64.9857 210.891 64.9857 208.528V197.402C64.9857 196.988 65.1245 196.881 65.1723 196.845C65.2632 196.775 65.5767 196.596 66.5169 196.452L66.5552 196.445C66.7849 196.393 67.3184 196.165 67.3184 195.18C67.3184 195.096 67.3136 194.983 67.3017 194.84C67.2897 194.706 67.2754 194.57 67.2538 194.436L67.1677 193.895L66.6509 193.938C66.0934 193.986 65.4403 194.026 64.713 194.062C63.9952 194.098 63.2966 194.115 62.6386 194.115C61.7917 194.115 61.05 194.098 60.4399 194.062C59.8131 194.026 59.2245 193.983 58.6862 193.938L58.2484 193.9L58.1072 194.34C58.0498 194.522 58.0187 194.706 58.0187 194.893V195.18C58.0187 196.168 58.5522 196.395 58.7819 196.445L58.8178 196.452C59.7509 196.598 60.0212 196.771 60.081 196.819C60.215 196.929 60.2342 197.232 60.2342 197.402V209.317C60.2342 210.616 60.3346 211.853 60.5308 212.994C60.7366 214.191 61.1529 215.251 61.7654 216.145C62.3898 217.054 63.2798 217.779 64.4163 218.299C65.5288 218.808 66.993 219.067 68.7683 219.067C70.2804 219.067 71.5628 218.82 72.582 218.332C73.6179 217.837 74.4577 217.126 75.0798 216.22C75.6899 215.329 76.1229 214.262 76.3693 213.052C76.6062 211.879 76.7282 210.576 76.7282 209.176V197.405C76.7282 196.974 76.8718 196.854 76.9196 196.814C77.0033 196.742 77.2881 196.565 78.1063 196.455L78.1948 196.436C78.4197 196.366 78.9461 196.103 78.9461 195.18C78.9461 195.096 78.9413 194.983 78.9293 194.84L78.9222 194.835Z" fill="#008864"/>
<path d="M100.295 194.835C100.283 194.701 100.266 194.567 100.242 194.431L100.144 193.849L99.5601 193.938C99.1079 194.007 98.6581 194.053 98.2155 194.074C97.7657 194.098 97.213 194.11 96.5694 194.11C95.9258 194.11 95.3612 194.098 94.8899 194.074C94.4281 194.053 93.9424 194.005 93.4496 193.936L92.9591 193.866L92.7988 194.335C92.7366 194.517 92.7055 194.701 92.7055 194.888V195.175C92.7055 196.106 93.2917 196.366 93.5429 196.433L93.6075 196.448C94.4975 196.586 94.8444 196.756 94.9712 196.847C95.1076 196.943 95.1746 197.153 95.1746 197.472V208.25L86.1428 194.806L86.1021 194.751C85.8868 194.5 85.6332 194.325 85.3437 194.23C85.1738 194.175 84.8652 194.11 83.9991 194.11C83.7192 194.11 83.3531 194.105 82.9009 194.093C82.4535 194.081 82.0014 194.065 81.5803 194.041C81.3075 194.017 81.0324 193.998 80.7596 193.986C80.506 193.974 80.2381 193.957 79.9605 193.933L79.3767 193.883L79.2882 194.708C79.2619 194.814 79.2499 194.916 79.2499 195.015V195.175C79.2499 196.096 79.805 196.359 80.0443 196.431L80.1184 196.448C81.0539 196.596 81.2429 196.768 81.2501 196.775C81.2836 196.807 81.3841 196.905 81.3841 197.223V215.382C81.3841 215.655 81.3291 215.841 81.2214 215.94C81.164 215.99 80.9104 216.169 80.0371 216.339L80.0132 216.344C79.7763 216.401 79.5682 216.54 79.4126 216.748C79.2595 216.954 79.1877 217.227 79.1877 217.607V217.894C79.1877 218.095 79.2236 218.284 79.2978 218.452L79.4725 218.858L79.9127 218.811C80.3409 218.765 80.8314 218.722 81.3673 218.686C81.8913 218.65 82.4488 218.634 83.0206 218.634C83.5924 218.634 84.0972 218.65 84.5279 218.686C84.9729 218.722 85.4466 218.763 85.9538 218.811L86.5065 218.863L86.5998 218.315C86.6476 218.04 86.6692 217.808 86.6692 217.605C86.6692 217.181 86.5926 216.901 86.4179 216.696C86.2648 216.516 86.0662 216.394 85.8342 216.339C85.4274 216.248 85.1045 216.164 84.8676 216.085C84.6283 216.007 84.5207 215.937 84.48 215.904C84.4489 215.88 84.4465 215.868 84.4465 215.858C84.4298 215.779 84.413 215.631 84.413 215.382V201.845L95.3421 218.162C95.5837 218.509 95.8253 218.741 96.079 218.873C96.3254 219 96.5718 219.064 96.8087 219.064C96.8757 219.064 97.0144 219.057 97.2274 219.045C97.469 219.031 97.6413 219.004 97.7681 218.968L98.2011 218.844V197.4C98.2011 197.197 98.2298 196.926 98.3638 196.807C98.4356 196.742 98.6844 196.582 99.4548 196.443C99.7108 196.393 100.304 196.17 100.304 195.175C100.304 195.091 100.299 194.979 100.287 194.835H100.295Z" fill="#008864"/>
<path d="M120.188 199.893C120.04 199.34 119.92 198.84 119.837 198.41C119.753 197.984 119.681 197.555 119.626 197.137L119.621 197.113C119.53 196.591 119.468 196.117 119.442 195.708C119.408 195.22 119.361 194.881 119.286 194.637L119.258 194.562C119.069 194.139 118.712 193.897 118.281 193.897C118.028 193.897 117.585 193.933 116.932 194.007C116.327 194.077 115.592 194.113 114.748 194.113H105.826C104.962 194.113 104.218 194.077 103.613 194.007C102.957 193.933 102.527 193.897 102.292 193.897C101.821 193.897 101.46 194.156 101.297 194.608L101.287 194.637C101.216 194.873 101.161 195.218 101.118 195.694C101.079 196.113 101.022 196.598 100.948 197.139C100.893 197.551 100.816 197.974 100.725 198.4C100.629 198.84 100.515 199.345 100.381 199.914L100.28 200.345L100.641 200.572C100.751 200.642 100.893 200.709 101.084 200.781C101.304 200.867 101.5 200.907 101.685 200.907C102.137 200.907 102.488 200.649 102.649 200.204C102.871 199.606 103.091 199.089 103.302 198.668C103.493 198.287 103.709 197.979 103.941 197.749C104.161 197.531 104.417 197.374 104.716 197.271C105.034 197.161 105.436 197.103 105.912 197.103H107.893V215.382C107.893 215.839 107.795 215.971 107.776 215.99C107.769 215.997 107.594 216.157 106.75 216.298L106.718 216.303C106.324 216.392 106.058 216.583 105.934 216.865C105.848 217.054 105.807 217.275 105.807 217.535C105.807 217.617 105.812 217.739 105.824 217.899C105.838 218.112 105.876 218.294 105.941 218.452L106.101 218.844L106.505 218.813C107.104 218.767 107.757 218.724 108.446 218.689C109.121 218.653 109.74 218.636 110.286 218.636C110.831 218.636 111.432 218.653 112.126 218.689C112.834 218.724 113.496 218.767 114.095 218.813L114.59 218.851L114.69 218.339C114.714 218.217 114.733 218.074 114.745 217.899C114.755 217.736 114.762 217.617 114.762 217.535C114.762 216.925 114.437 216.478 113.889 216.344L113.858 216.337C113.506 216.272 113.238 216.203 113.061 216.133C112.882 216.064 112.8 215.997 112.767 215.961C112.724 215.918 112.714 215.887 112.709 215.861C112.695 215.782 112.676 215.633 112.676 215.384V197.106H114.657C115.114 197.106 115.506 197.163 115.824 197.273C116.126 197.378 116.379 197.536 116.6 197.752C116.832 197.981 117.047 198.29 117.238 198.67C117.451 199.094 117.671 199.611 117.894 200.206L117.908 200.242C118.179 200.85 118.786 201.065 119.483 200.778C119.64 200.714 119.772 200.654 119.882 200.599L120.318 200.381L120.186 199.893H120.188Z" fill="#008864"/>
<path d="M140.606 216.839C140.465 216.645 140.266 216.514 140.037 216.454C139.668 216.344 139.262 216.179 138.821 215.959C138.451 215.774 138.108 215.418 137.805 214.901L133.333 207.231C134.321 206.671 135.127 205.908 135.733 204.955C136.453 203.821 136.816 202.549 136.816 201.173C136.816 200.144 136.644 199.189 136.3 198.331C135.955 197.464 135.445 196.706 134.785 196.074C134.127 195.445 133.323 194.955 132.395 194.617C131.479 194.285 130.436 194.115 129.292 194.115H124.686C124.11 194.115 123.447 194.098 122.717 194.062C121.976 194.026 121.322 193.983 120.772 193.938L120.392 193.907L120.203 194.237C120.109 194.4 120.064 194.596 120.064 194.821V195.144C120.064 195.507 120.124 195.771 120.248 195.967C120.37 196.161 120.538 196.306 120.743 196.402L120.825 196.44L120.913 196.452C121.911 196.596 122.241 196.775 122.339 196.845C122.387 196.881 122.535 196.988 122.535 197.402V215.382C122.535 215.6 122.509 215.724 122.49 215.789C122.48 215.815 122.464 215.849 122.409 215.892C122.358 215.93 122.236 216.004 121.978 216.085C121.732 216.164 121.399 216.251 120.997 216.339C120.753 216.392 120.188 216.619 120.188 217.605V217.892C120.188 218.093 120.224 218.279 120.298 218.449L120.468 218.844L120.897 218.808C121.466 218.76 122.102 218.72 122.787 218.684C123.457 218.648 124.158 218.631 124.875 218.631C125.897 218.631 126.859 218.65 127.734 218.684C128.615 218.72 129.349 218.76 129.921 218.808L130.467 218.854L130.558 218.313C130.603 218.04 130.627 217.789 130.627 217.566C130.627 216.499 129.919 216.296 129.691 216.258C128.598 216.093 128.098 215.904 127.871 215.774C127.725 215.691 127.576 215.55 127.576 215.126V208.224H127.945L132.503 216.145C132.933 216.882 133.388 217.485 133.85 217.94C134.39 218.471 134.962 218.739 135.551 218.739C135.831 218.739 136.187 218.744 136.618 218.755C137.044 218.767 137.479 218.784 137.912 218.808C138.355 218.832 138.781 218.851 139.192 218.863C139.58 218.875 139.884 218.892 140.092 218.913L140.568 218.964L140.721 218.509C140.783 218.327 140.814 218.143 140.814 217.959V217.636C140.814 217.284 140.75 217.03 140.606 216.834V216.839ZM131.443 201.312C131.443 202.127 131.357 202.8 131.184 203.309C131.024 203.788 130.794 204.171 130.5 204.448C130.203 204.731 129.857 204.924 129.438 205.042C128.986 205.171 128.464 205.235 127.892 205.235H127.576V197.101H127.892C129.225 197.101 130.148 197.45 130.639 198.142C131.172 198.895 131.443 199.962 131.443 201.312Z" fill="#008864"/>
<path d="M156.497 194.388L156.371 193.864L155.837 193.936C155.323 194.005 154.811 194.053 154.318 194.074C153.818 194.098 153.33 194.11 152.865 194.11C152.401 194.11 151.834 194.093 151.205 194.058C150.573 194.022 150.045 193.981 149.638 193.936L149.083 193.873L148.982 194.424C148.894 194.914 148.882 195.079 148.882 195.177C148.882 196.18 149.504 196.4 149.748 196.443C150.384 196.582 150.638 196.697 150.731 196.752C150.758 196.768 150.772 196.775 150.772 196.864C150.772 197.012 150.724 197.287 150.49 197.766L147.542 204.281L144.501 197.189C144.353 196.866 144.341 196.723 144.334 196.699C144.334 196.699 144.343 196.687 144.372 196.668C144.417 196.639 144.614 196.536 145.226 196.452L145.26 196.448C145.516 196.397 146.109 196.175 146.109 195.18V194.981C146.109 194.857 146.087 194.682 146.037 194.421L145.934 193.878L145.386 193.938C145.166 193.962 144.884 193.986 144.539 194.007C144.193 194.031 143.815 194.048 143.417 194.06L142.212 194.096C141.836 194.108 141.499 194.113 141.209 194.113C140.391 194.113 139.625 194.096 138.936 194.06C138.242 194.024 137.675 193.983 137.247 193.938L136.661 193.876L136.565 194.672C136.539 194.778 136.525 194.883 136.525 194.983V195.144C136.525 196.208 137.113 196.417 137.4 196.452C137.852 196.536 138.218 196.656 138.489 196.811C138.709 196.938 138.907 197.194 139.077 197.577L143.877 208.334V215.277C143.877 215.516 143.848 215.65 143.822 215.717C143.81 215.748 143.788 215.789 143.719 215.837C143.642 215.887 143.489 215.966 143.209 216.05C142.936 216.129 142.592 216.217 142.173 216.31C141.948 216.363 141.75 216.487 141.597 216.667C141.424 216.87 141.348 217.15 141.348 217.574V217.734C141.348 217.834 141.362 217.937 141.389 218.045L141.479 218.782H142.008C142.276 218.782 142.547 218.775 142.814 218.763C143.075 218.751 143.346 218.732 143.628 218.705C144.049 218.66 144.499 218.631 144.968 218.619C145.439 218.607 145.858 218.602 146.219 218.602C146.561 218.602 146.989 218.61 147.501 218.619C148.011 218.631 148.506 218.66 148.975 218.708C149.267 218.732 149.561 218.751 149.853 218.763C150.148 218.775 150.463 218.782 150.794 218.782H151.322L151.418 218.004L151.423 217.933C151.423 217.885 151.425 217.854 151.43 217.834C151.447 217.741 151.454 217.655 151.454 217.574C151.454 217.15 151.377 216.87 151.203 216.665C151.05 216.485 150.851 216.363 150.626 216.31L150.583 216.301C150.164 216.234 149.827 216.162 149.578 216.086C149.32 216.007 149.176 215.925 149.102 215.87C149.016 215.806 148.987 215.753 148.975 215.717C148.949 215.648 148.92 215.516 148.92 215.277V208.267L153.889 197.493C154.045 197.182 154.224 196.957 154.421 196.826C154.538 196.747 154.861 196.594 155.696 196.455C155.933 196.424 156.576 196.242 156.576 195.18V194.945C156.576 194.79 156.55 194.608 156.497 194.393V194.388Z" fill="#008864"/>
<path d="M181.746 211.178C181.604 211.111 181.439 211.059 181.248 211.013C181.049 210.966 180.879 210.944 180.729 210.944C180.473 210.944 180.226 211.018 179.997 211.164C179.743 211.324 179.561 211.573 179.458 211.901C179.226 212.631 178.968 213.274 178.688 213.82C178.427 214.325 178.114 214.743 177.755 215.064C177.406 215.375 176.975 215.612 176.482 215.765C175.963 215.925 175.319 216.007 174.57 216.007C173.683 216.007 172.881 215.767 172.118 215.277C171.34 214.777 170.659 214.066 170.087 213.164C169.501 212.238 169.034 211.123 168.694 209.848C168.355 208.566 168.18 207.157 168.18 205.659C168.18 204.257 168.324 202.984 168.603 201.876C168.879 200.79 169.285 199.855 169.812 199.089C170.321 198.35 170.962 197.773 171.716 197.376C172.47 196.981 173.357 196.78 174.353 196.78C175.008 196.78 175.582 196.845 176.056 196.974C176.501 197.096 176.894 197.292 177.224 197.56C177.556 197.831 177.848 198.204 178.095 198.668C178.355 199.163 178.595 199.788 178.805 200.527C178.906 200.974 179.147 201.187 179.332 201.285C179.53 201.393 179.765 201.446 180.025 201.446C180.152 201.446 180.31 201.424 180.521 201.379C180.686 201.343 180.822 201.312 180.925 201.288L181.506 201.151L181.37 200.57C181.152 199.644 180.982 198.675 180.863 197.692C180.743 196.699 180.662 195.878 180.621 195.249L180.595 194.84L180.205 194.716C179.128 194.376 178.114 194.115 177.19 193.945C176.252 193.773 175.236 193.684 174.168 193.684C172.185 193.684 170.448 194.077 169.005 194.849C167.572 195.617 166.376 196.627 165.455 197.852C164.539 199.068 163.859 200.443 163.436 201.943C163.017 203.424 162.804 204.915 162.804 206.377C162.804 208.123 163.022 209.779 163.452 211.296C163.888 212.834 164.553 214.193 165.429 215.337C166.316 216.495 167.455 217.418 168.814 218.079C170.171 218.736 171.769 219.071 173.558 219.071C174.807 219.071 175.975 219.021 177.03 218.925C178.09 218.827 179.14 218.667 180.152 218.447L180.552 218.361L180.616 217.959C180.695 217.471 180.791 216.954 180.901 216.423C181.011 215.897 181.135 215.365 181.274 214.839C181.418 214.301 181.554 213.772 181.688 213.255C181.815 212.758 181.942 212.301 182.064 211.896L182.212 211.401L181.743 211.183L181.746 211.178Z" fill="#008864"/>
<path d="M198.699 211.688C198.469 211.573 198.261 211.516 198.065 211.516C197.563 211.516 197.177 211.779 197.039 212.217C196.823 212.882 196.603 213.456 196.381 213.92C196.173 214.356 195.945 214.71 195.701 214.975C195.481 215.215 195.237 215.38 194.955 215.478C194.644 215.586 194.263 215.641 193.826 215.641H192.665C191.469 215.641 190.615 215.564 190.124 215.416C189.756 215.303 189.725 215.152 189.725 214.983V197.469C189.725 197.089 189.844 196.953 189.935 196.886C190.033 196.811 190.371 196.618 191.421 196.445L191.524 196.419C191.787 196.326 192.227 196.051 192.227 195.244C192.227 195.163 192.223 195.041 192.211 194.878C192.199 194.716 192.182 194.567 192.158 194.428L192.067 193.89L191.524 193.931C191.201 193.955 190.844 193.979 190.45 194.003C190.062 194.027 189.667 194.043 189.277 194.055L188.131 194.091C187.784 194.103 187.464 194.108 187.174 194.108C186.619 194.108 185.971 194.091 185.251 194.055C184.514 194.019 183.82 193.976 183.191 193.931L182.731 193.897L182.583 194.335C182.521 194.517 182.49 194.713 182.49 194.924V195.247C182.49 196.053 182.93 196.328 183.193 196.421L183.294 196.448C183.686 196.515 184.002 196.584 184.227 196.658C184.459 196.735 184.54 196.804 184.559 196.821C184.605 196.866 184.631 196.909 184.643 196.957C184.662 197.032 184.684 197.168 184.684 197.4V215.38C184.684 215.751 184.547 215.827 184.483 215.865C184.291 215.976 183.88 216.145 183.009 216.334C182.782 216.373 182.215 216.562 182.215 217.497V217.837C182.215 218.076 182.25 218.277 182.325 218.449L182.495 218.844L182.923 218.811C183.514 218.763 184.2 218.722 184.964 218.686C185.715 218.65 186.387 218.634 186.964 218.634H193.888C194.141 218.634 194.44 218.646 194.778 218.667C195.141 218.691 195.5 218.71 195.85 218.722C196.182 218.734 196.496 218.751 196.783 218.775C197.101 218.801 197.34 218.813 197.517 218.813C197.754 218.813 197.981 218.746 198.192 218.61C198.601 218.346 198.649 217.818 198.661 217.624C198.761 216.772 198.879 215.894 199.008 215.016C199.137 214.133 199.285 213.305 199.443 212.559L199.539 212.107L198.699 211.683V211.688Z" fill="#008864"/>
<path d="M219.655 194.838C219.643 194.704 219.626 194.567 219.605 194.433L219.512 193.854L218.945 193.94C218.485 194.01 218.014 194.055 217.543 194.079C217.064 194.103 216.502 194.115 215.873 194.115C215.322 194.115 214.806 194.103 214.337 194.079C213.875 194.058 213.353 194.01 212.786 193.94L212.234 193.871L212.14 194.433C212.116 194.57 212.1 194.706 212.09 194.84C212.078 194.981 212.073 195.094 212.073 195.18C212.073 196.103 212.616 196.364 212.848 196.436L212.925 196.453C213.841 196.594 214.148 196.771 214.239 196.84C214.284 196.876 214.423 196.984 214.423 197.405V208.422C214.423 211.016 214.052 212.887 213.32 213.99C212.626 215.033 211.454 215.54 209.738 215.54C208.023 215.54 206.948 215.002 206.293 213.889C205.59 212.698 205.231 210.894 205.231 208.53V197.405C205.231 196.991 205.374 196.883 205.422 196.847C205.515 196.778 205.841 196.598 206.812 196.455L206.85 196.448C207.087 196.395 207.64 196.168 207.64 195.182C207.64 195.098 207.635 194.986 207.623 194.842C207.611 194.708 207.594 194.572 207.573 194.438L207.484 193.897L206.951 193.94C206.374 193.988 205.7 194.029 204.946 194.065C204.202 194.101 203.479 194.117 202.8 194.117C201.922 194.117 201.156 194.101 200.525 194.065C199.876 194.029 199.266 193.986 198.711 193.94L198.259 193.902L198.113 194.342C198.053 194.524 198.022 194.708 198.022 194.895V195.182C198.022 196.17 198.575 196.398 198.812 196.448L198.847 196.455C199.814 196.601 200.092 196.773 200.154 196.821C200.292 196.931 200.314 197.235 200.314 197.405V209.32C200.314 210.619 200.417 211.856 200.62 212.997C200.833 214.193 201.264 215.253 201.898 216.148C202.544 217.057 203.465 217.782 204.64 218.301C205.791 218.811 207.305 219.069 209.142 219.069C210.707 219.069 212.035 218.823 213.088 218.335C214.157 217.839 215.028 217.129 215.672 216.22C216.303 215.33 216.751 214.262 217.004 213.052C217.251 211.88 217.375 210.576 217.375 209.176V197.405C217.375 196.974 217.523 196.854 217.571 196.814C217.657 196.742 217.952 196.565 218.799 196.455L218.89 196.436C219.122 196.366 219.665 196.103 219.665 195.18C219.665 195.096 219.66 194.984 219.648 194.84L219.655 194.838Z" fill="#008864"/>
<path d="M237.159 208.858C236.843 208.116 236.396 207.463 235.829 206.92C235.269 206.384 234.601 205.946 233.843 205.621C233.589 205.513 233.326 205.417 233.056 205.331C233.63 204.982 234.144 204.561 234.589 204.068C235.436 203.132 235.867 201.876 235.867 200.34C235.867 199.541 235.754 198.764 235.529 198.027C235.297 197.259 234.898 196.57 234.345 195.976C233.793 195.385 233.051 194.919 232.144 194.589C231.259 194.268 230.144 194.105 228.826 194.105H224.754C224.294 194.105 223.694 194.089 222.966 194.053C222.229 194.017 221.564 193.974 220.993 193.928L220.521 193.89L220.39 194.359C220.363 194.455 220.347 194.56 220.339 194.672C220.318 194.756 220.306 194.845 220.306 194.938V195.101C220.306 195.357 220.335 195.574 220.39 195.761C220.485 196.086 220.729 196.326 221.076 196.429L221.134 196.443C222.021 196.613 222.311 196.785 222.39 196.85C222.521 196.955 222.548 197.206 222.548 197.4V215.38C222.548 215.794 222.409 215.899 222.356 215.937C222.237 216.028 221.921 216.198 221.141 216.332L221.103 216.339C220.885 216.392 220.693 216.516 220.545 216.696C220.378 216.899 220.303 217.179 220.303 217.602V217.763C220.303 217.863 220.315 217.966 220.342 218.074L220.428 218.811H220.94C221.162 218.811 221.402 218.803 221.648 218.792C221.894 218.78 222.141 218.76 222.395 218.734C222.765 218.689 223.17 218.66 223.596 218.648C224.017 218.636 224.414 218.631 224.775 218.631H229.881C231.017 218.631 232.068 218.478 233.005 218.174C233.965 217.863 234.793 217.394 235.472 216.779C236.154 216.16 236.692 215.382 237.068 214.463C237.441 213.554 237.63 212.499 237.63 211.322C237.63 210.43 237.47 209.599 237.154 208.855L237.159 208.858ZM232.407 211.827C232.407 213.236 232.125 214.248 231.57 214.837C231.017 215.42 230.134 215.715 228.943 215.715C228.46 215.715 228.034 215.648 227.677 215.516C227.577 215.48 227.428 215.425 227.428 215.021V207.293H228.443C228.979 207.293 229.496 207.389 229.979 207.578C230.45 207.762 230.869 208.037 231.223 208.396C231.575 208.752 231.864 209.221 232.077 209.784C232.295 210.358 232.405 211.045 232.405 211.827H232.407ZM230.551 201.991C230.443 202.439 230.256 202.843 230 203.195C229.752 203.534 229.424 203.798 229 203.996C228.589 204.188 228.06 204.29 227.428 204.3V197.101C228.017 197.11 228.524 197.199 228.943 197.364C229.366 197.534 229.711 197.764 229.962 198.051C230.218 198.343 230.409 198.697 230.532 199.101C230.661 199.532 230.728 199.998 230.728 200.484C230.728 201.006 230.668 201.513 230.553 201.989L230.551 201.991Z" fill="#008864"/>
</g>
<g filter="url(#filter2_d_1038_33726)">
<path d="M237.348 184.014H15.3169V187.215H237.348V184.014Z" fill="#008BCF"/>
</g>
<g filter="url(#filter3_d_1038_33726)">
<path d="M58.7723 91.258C59.8801 89.7699 60.8084 88.5329 61.7271 87.2864C62.5788 86.1332 63.3349 84.8891 64.2967 83.846C64.9403 83.1474 65.8685 82.7334 66.6676 82.1927C66.9284 83.066 67.4069 83.9369 67.4165 84.8125C67.4835 90.2771 67.4476 95.744 67.4452 101.209C67.4452 105.027 67.4452 108.845 67.4356 112.664C67.4356 113.02 67.3687 113.377 67.0672 113.776C65.9977 110.984 65.0168 108.154 63.8445 105.412C61.641 100.256 59.0857 95.3157 54.7505 91.6743C50.0324 87.7123 45.2139 88.6047 42.0462 94.0022C41.7495 94.5071 41.5127 95.0502 41.2782 95.5909C39.4048 99.9022 38.9957 104.498 38.9862 109.137C38.9479 129.445 38.9479 149.75 38.9742 170.058C38.9742 171.695 39.1441 173.369 39.5173 174.953C39.9527 176.793 41.0844 178.133 43.0774 178.298C45.1589 178.47 47.1518 178.092 48.1495 175.987C48.8027 174.609 49.274 172.984 49.2884 171.463C49.3984 159.579 49.3601 147.693 49.4247 135.809C49.4343 134.199 48.9271 133.45 47.3408 133.627C46.9652 133.668 46.5322 133.728 46.2092 133.582C45.8144 133.4 45.5106 133.01 45.166 132.711C45.5321 132.357 45.8503 131.912 46.2786 131.677C46.58 131.512 47.025 131.62 47.4078 131.62C55.0424 131.62 62.6769 131.62 70.3115 131.62C70.7565 131.62 71.2637 131.519 71.6274 131.708C71.9958 131.9 72.369 132.357 72.4504 132.761C72.4958 132.988 71.9838 133.374 71.6776 133.63C71.5556 133.732 71.3091 133.673 71.1177 133.687C69.1383 133.843 68.1486 134.974 68.1486 137.08C68.1486 147.119 68.151 157.158 68.1486 167.197C68.1486 169.718 68.1391 169.73 65.8207 170.077C62.9664 170.506 60.3418 171.582 58.3991 173.795C53.5566 179.312 47.3672 180.174 40.7399 179.528C33.4092 178.81 28.4662 174.279 24.5305 168.249C19.9991 161.309 17.9176 153.471 16.6926 145.303C15.0298 134.201 15.2045 123.184 18.1425 112.324C20.3484 104.168 23.6166 96.5024 29.2821 90.2555C31.4306 87.8869 33.8949 85.6188 36.6176 84.0613C44.0344 79.8122 52.1953 81.9511 57.2339 89.0425C57.6813 89.6718 58.1144 90.313 58.7699 91.2604L58.7723 91.258Z" fill="#008864"/>
<path d="M227.235 150.483C227.005 149.729 226.711 148.992 226.555 148.222C225.816 144.604 225.263 140.934 224.361 137.364C223.342 133.328 220.627 131.335 216.425 131.261C216.346 131.917 216.191 132.601 216.191 133.287C216.181 146.65 216.186 160.012 216.191 173.374C216.191 175.793 216.248 175.855 218.454 175.879C219.555 175.891 220.658 175.879 221.675 175.879C222.337 178.48 222.134 178.839 220.062 178.841C210.784 178.855 201.506 178.858 192.227 178.839C190.234 178.834 190.055 178.511 190.598 176.121C191.211 176.08 191.878 176.011 192.543 175.999C194.881 175.956 194.881 175.963 194.881 173.398C194.881 164.663 194.876 155.928 194.876 147.195C194.876 127.409 194.878 107.625 194.881 87.8391C194.881 86.9276 194.881 86.016 194.881 84.8891C193.117 84.791 191.589 84.7049 189.868 84.6068C189.813 83.8149 189.763 83.0613 189.696 82.0803H237.63V115.908L237.14 116.035C236.991 115.485 236.783 114.944 236.702 114.384C236.054 109.941 235.551 105.472 234.764 101.058C233.881 96.0981 231.974 91.6217 228.51 88.0042C226.304 85.7026 223.768 84.4178 220.629 84.681C220.258 84.7121 219.883 84.7121 219.509 84.7169C217.291 84.7376 216.18 85.9698 216.179 88.4133C216.176 101.048 216.172 113.683 216.169 126.318C216.169 129.184 216.677 129.5 219.244 128.443C221.962 127.323 223.713 125.213 224.359 122.306C225.127 118.849 225.553 115.305 226.122 111.798C226.196 111.346 226.137 110.829 226.326 110.448C226.46 110.181 226.931 109.934 227.216 109.972C227.486 110.008 227.83 110.386 227.929 110.693C228.063 111.114 228.008 111.606 228.008 112.068C228.01 124.11 228.012 136.151 228 148.195C228 148.932 227.862 149.667 227.787 150.404C227.601 150.43 227.414 150.456 227.228 150.483H227.235Z" fill="#008864"/>
<path d="M131.933 141.468C132.467 151.377 131.565 160.682 126.385 168.979C121.724 176.444 114.745 179.547 106.518 179.702C103.362 179.762 100.084 179.454 97.0504 178.59C88.3081 176.102 83.2096 169.563 80.3051 160.895C78.6686 156.007 78.1279 150.899 78.0322 145.772C77.8934 138.482 77.9915 131.184 77.9987 123.89C77.9987 123.452 78.0753 123.014 78.1686 122.026C93.6027 136.515 111.451 142.819 131.938 141.468H131.933ZM111.185 158.842H111.14C111.14 154.512 111.252 150.174 111.073 145.851C111.018 144.523 110.427 142.989 109.606 141.972C107.879 139.833 105.47 139.613 103.06 140.544C100.589 141.499 99.5218 143.614 99.5099 146.269C99.4692 154.806 99.4429 163.342 99.5051 171.879C99.5338 175.707 101.797 177.97 105.269 177.932C108.601 177.896 111.142 175.231 111.178 171.623C111.221 167.362 111.188 163.101 111.188 158.842H111.185Z" fill="#008864"/>
<path d="M136.905 143.303C136.235 141.157 136.369 140.793 138.017 140.484C149.305 138.374 159.5 133.723 168.548 126.407C168.891 126.132 169.276 125.911 169.649 125.663C170.532 127.512 170.082 129.239 168.41 130.457C167.527 131.101 166.639 131.766 165.675 132.254C163.893 133.154 163.352 134.558 163.361 136.568C163.428 148.956 163.395 161.347 163.395 173.736C163.395 174.583 163.395 175.429 163.395 176.427C164.122 176.532 164.668 176.666 165.216 176.681C166.424 176.717 167.649 176.556 168.838 176.717C174.779 177.521 178.446 174.336 180.7 169.178C182.291 165.536 183.363 161.651 184.655 157.871C184.858 157.275 185.004 156.655 185.459 156.081C185.499 156.495 185.576 156.911 185.576 157.325C185.581 163.716 185.583 170.109 185.574 176.499C185.571 178.731 185.473 178.839 183.313 178.841C168.618 178.848 153.923 178.846 139.23 178.841C138.788 178.841 138.288 178.911 137.917 178.726C137.596 178.566 137.233 178.083 137.245 177.755C137.254 177.439 137.69 176.92 137.991 176.875C138.864 176.743 139.769 176.738 140.654 176.803C142.001 176.901 142.453 176.25 142.441 174.932C142.408 170.912 142.429 166.893 142.427 162.874C142.427 156.878 142.432 150.882 142.417 144.887C142.412 142.709 142.262 142.597 140.242 142.874C139.12 143.028 137.996 143.162 136.903 143.3L136.905 143.303Z" fill="#008864"/>
</g>
<path d="M190.466 55.2913C185.342 54.3008 180.545 52.8557 174.987 52.8557C144.592 52.8557 116.04 80.8817 83.9058 80.8817C71.6992 80.8817 67.9764 78.2069 60.3562 77.7571C60.6313 80.0396 61.0189 82.2861 61.5022 84.492C61.9496 83.8604 62.4257 83.2264 62.976 82.6307C63.0382 82.5637 63.1004 82.4943 63.165 82.4225C63.8923 81.6162 64.9929 80.3984 66.6677 80.3984C67.8592 80.3984 68.7492 81.0827 69.0458 82.2311C69.1966 82.8101 69.2109 83.4944 69.2109 84.8126C69.2109 87.4612 69.2181 90.1073 69.2253 92.7558C69.2325 95.5742 69.242 98.3902 69.2396 101.209V103.582C69.2396 103.871 69.2396 104.159 69.2396 104.448C80.7788 124.409 101.799 137.762 125.823 137.762C156.531 137.762 182.334 115.942 189.698 86.3941C188.832 86.308 188.146 85.6094 188.086 84.7337L187.914 82.2072C187.88 81.7119 188.052 81.2239 188.392 80.8602C188.732 80.4965 189.206 80.2908 189.703 80.2908H190.933C191.505 76.6541 191.806 72.9242 191.806 69.1225C191.806 64.3853 191.344 59.7605 190.466 55.2937V55.2913Z" fill="#008864"/>
<path d="M190.466 55.2912C185.342 54.3007 180.545 52.8556 174.987 52.8556C144.592 52.8556 116.04 80.8817 83.9058 80.8817C71.6992 80.8817 67.9764 78.2068 60.3562 77.757C60.0141 74.9291 59.837 72.0461 59.837 69.12C59.837 31.2105 89.3799 0.478516 125.823 0.478516C157.713 0.478516 184.315 24.009 190.466 55.2912Z" fill="#008BCF"/>
<path d="M152.803 30.373V51.6593C154.811 53.0183 157.062 54.2337 159.514 55.0376C157.273 55.6333 155.036 56.3343 152.803 57.1119V107.606C156.045 107.642 158.584 107.972 158.584 108.372C158.584 108.798 155.729 109.142 152.208 109.142C148.686 109.142 145.829 108.798 145.829 108.372C145.829 107.972 148.368 107.642 151.609 107.606V57.5354C129.536 65.512 107.704 80.8816 83.9058 80.8816C72.5318 80.8816 68.5219 78.5609 61.8635 77.879C68.1678 74.9936 74.1731 72.1489 78.281 68.3567C82.3914 64.5622 89.344 57.5043 96.4044 54.6595C103.462 51.8148 111.049 48.7596 113.47 46.336C115.894 43.9123 116.712 42.5964 116.712 41.2255C116.712 39.8546 117.607 39.1727 118.923 38.9598C120.241 38.7493 120.978 38.3282 120.978 37.4334C120.978 36.5386 121.308 29.0308 121.361 25.0281C121.413 21.0231 122.098 12.9626 122.466 12.9626C122.835 12.9626 122.993 20.2335 123.15 25.1334C123.308 30.0309 123.586 37.2348 123.586 37.7899C123.586 38.3449 123.586 38.9742 124.296 38.9742H130.342C130.342 38.5004 130.302 38.3019 130.677 38.3019V37.2157H130.302V36.8472L131.685 35.4643H135.242L136.386 36.6103V39.2565C136.386 39.4933 136.4 40.2183 136.979 40.2183H140.444C141.011 40.2183 142.559 42.4625 144.214 44.13C145.827 45.7546 148.358 48.4174 151.609 50.8148V14.2403C151.609 14.135 151.696 14.0512 151.801 14.0512H152.612C152.717 14.0512 152.803 14.135 152.803 14.2403V16.1088C153.224 15.8791 153.882 15.6997 154.995 15.6997C157.17 15.6997 162.988 17.3075 167.125 20.9943C171.604 24.9851 172.295 32.4904 179.413 34.6246C178.781 35.2562 176.449 35.7299 175.106 35.7299C168.917 35.7299 165.096 29.349 156.689 29.349C154.648 29.349 153.768 29.6003 152.803 30.373Z" fill="white"/>
<path opacity="0.2" d="M117.977 118.941C118.244 116.803 112.772 114.358 105.755 113.482C98.7374 112.605 92.8322 113.628 92.5651 115.767C92.298 117.905 97.7701 120.349 104.787 121.226C111.805 122.103 117.71 121.08 117.977 118.941Z" fill="black"/>
<path d="M111.788 121.485C118.51 121.485 123.959 115.778 123.959 108.738C123.959 101.698 118.51 95.9905 111.788 95.9905C105.067 95.9905 99.6176 101.698 99.6176 108.738C99.6176 115.778 105.067 121.485 111.788 121.485Z" fill="white"/>
<mask id="mask0_1038_33726" style="mask-type:luminance" maskUnits="userSpaceOnUse" x="99" y="95" width="25" height="27">
<path d="M111.788 121.485C118.51 121.485 123.959 115.778 123.959 108.738C123.959 101.698 118.51 95.9905 111.788 95.9905C105.067 95.9905 99.6176 101.698 99.6176 108.738C99.6176 115.778 105.067 121.485 111.788 121.485Z" fill="white"/>
</mask>
<g mask="url(#mask0_1038_33726)">
<path d="M103.237 103.077C104.053 103.077 104.714 102.416 104.714 101.601C104.714 100.786 104.053 100.125 103.237 100.125C102.422 100.125 101.761 100.786 101.761 101.601C101.761 102.416 102.422 103.077 103.237 103.077Z" fill="#CFD3CF"/>
<path d="M101.369 106.317C102.184 106.317 102.845 105.656 102.845 104.84C102.845 104.025 102.184 103.364 101.369 103.364C100.554 103.364 99.8927 104.025 99.8927 104.84C99.8927 105.656 100.554 106.317 101.369 106.317Z" fill="#CFD3CF"/>
<path d="M101.091 113.164C101.907 113.164 102.568 112.503 102.568 111.688C102.568 110.873 101.907 110.212 101.091 110.212C100.276 110.212 99.6152 110.873 99.6152 111.688C99.6152 112.503 100.276 113.164 101.091 113.164Z" fill="#CFD3CF"/>
<path d="M102.568 116.43C103.383 116.43 104.044 115.769 104.044 114.954C104.044 114.138 103.383 113.478 102.568 113.478C101.752 113.478 101.091 114.138 101.091 114.954C101.091 115.769 101.752 116.43 102.568 116.43Z" fill="#CFD3CF"/>
<path d="M105.431 116.43C106.247 116.43 106.908 115.769 106.908 114.954C106.908 114.138 106.247 113.478 105.431 113.478C104.616 113.478 103.955 114.138 103.955 114.954C103.955 115.769 104.616 116.43 105.431 116.43Z" fill="#CFD3CF"/>
<path d="M108.243 116.291C109.058 116.291 109.719 115.63 109.719 114.815C109.719 114 109.058 113.339 108.243 113.339C107.427 113.339 106.766 114 106.766 114.815C106.766 115.63 107.427 116.291 108.243 116.291Z" fill="#CFD3CF"/>
<path d="M105.161 119.473C105.976 119.473 106.637 118.812 106.637 117.997C106.637 117.182 105.976 116.521 105.161 116.521C104.346 116.521 103.685 117.182 103.685 117.997C103.685 118.812 104.346 119.473 105.161 119.473Z" fill="#CFD3CF"/>
<path d="M108.243 119.473C109.058 119.473 109.719 118.812 109.719 117.997C109.719 117.182 109.058 116.521 108.243 116.521C107.427 116.521 106.766 117.182 106.766 117.997C106.766 118.812 107.427 119.473 108.243 119.473Z" fill="#CFD3CF"/>
<path d="M109.719 121.765C110.534 121.765 111.195 121.104 111.195 120.289C111.195 119.474 110.534 118.813 109.719 118.813C108.904 118.813 108.243 119.474 108.243 120.289C108.243 121.104 108.904 121.765 109.719 121.765Z" fill="#CFD3CF"/>
<path d="M112.8 121.665C113.616 121.665 114.277 121.004 114.277 120.188C114.277 119.373 113.616 118.712 112.8 118.712C111.985 118.712 111.324 119.373 111.324 120.188C111.324 121.004 111.985 121.665 112.8 121.665Z" fill="#CFD3CF"/>
<path d="M100.486 109.898C101.301 109.898 101.962 109.237 101.962 108.422C101.962 107.607 101.301 106.946 100.486 106.946C99.6708 106.946 99.0099 107.607 99.0099 108.422C99.0099 109.237 99.6708 109.898 100.486 109.898Z" fill="#CFD3CF"/>
<path d="M103.237 109.898C104.053 109.898 104.714 109.237 104.714 108.422C104.714 107.607 104.053 106.946 103.237 106.946C102.422 106.946 101.761 107.607 101.761 108.422C101.761 109.237 102.422 109.898 103.237 109.898Z" fill="#CFD3CF"/>
<path d="M104.041 113.164C104.857 113.164 105.518 112.503 105.518 111.688C105.518 110.873 104.857 110.212 104.041 110.212C103.226 110.212 102.565 110.873 102.565 111.688C102.565 112.503 103.226 113.164 104.041 113.164Z" fill="#CFD3CF"/>
<path d="M106.905 113.164C107.721 113.164 108.381 112.503 108.381 111.688C108.381 110.873 107.721 110.212 106.905 110.212C106.09 110.212 105.429 110.873 105.429 111.688C105.429 112.503 106.09 113.164 106.905 113.164Z" fill="#CFD3CF"/>
<path d="M104.041 106.317C104.857 106.317 105.518 105.656 105.518 104.84C105.518 104.025 104.857 103.364 104.041 103.364C103.226 103.364 102.565 104.025 102.565 104.84C102.565 105.656 103.226 106.317 104.041 106.317Z" fill="#CFD3CF"/>
<path d="M106.991 106.317C107.807 106.317 108.468 105.656 108.468 104.84C108.468 104.025 107.807 103.364 106.991 103.364C106.176 103.364 105.515 104.025 105.515 104.84C105.515 105.656 106.176 106.317 106.991 106.317Z" fill="#CFD3CF"/>
<path d="M106.202 109.8C107.017 109.8 107.678 109.139 107.678 108.324C107.678 107.509 107.017 106.848 106.202 106.848C105.387 106.848 104.726 107.509 104.726 108.324C104.726 109.139 105.387 109.8 106.202 109.8Z" fill="#CFD3CF"/>
<path d="M109.152 109.8C109.967 109.8 110.628 109.139 110.628 108.324C110.628 107.509 109.967 106.848 109.152 106.848C108.337 106.848 107.676 107.509 107.676 108.324C107.676 109.139 108.337 109.8 109.152 109.8Z" fill="#CFD3CF"/>
</g>
</g>
<defs>
<filter id="filter0_d_1038_33726" x="12.6399" y="222.263" width="231.045" height="34.2603" filterUnits="userSpaceOnUse" color-interpolation-filters="sRGB">
<feFlood flood-opacity="0" result="BackgroundImageFix"/>
<feColorMatrix in="SourceAlpha" type="matrix" values="0 0 0 0 0 0 0 0 0 0 0 0 0 0 0 0 0 0 127 0" result="hardAlpha"/>
<feOffset dx="1" dy="1"/>
<feGaussianBlur stdDeviation="2"/>
<feColorMatrix type="matrix" values="0 0 0 0 0 0 0 0 0 0 0 0 0 0 0 0 0 0 0.6 0"/>
<feBlend mode="normal" in2="BackgroundImageFix" result="effect1_dropShadow_1038_33726"/>
<feBlend mode="normal" in="SourceGraphic" in2="effect1_dropShadow_1038_33726" result="shape"/>
</filter>
<filter id="filter1_d_1038_33726" x="12.5203" y="190.574" width="230.11" height="33.5017" filterUnits="userSpaceOnUse" color-interpolation-filters="sRGB">
<feFlood flood-opacity="0" result="BackgroundImageFix"/>
<feColorMatrix in="SourceAlpha" type="matrix" values="0 0 0 0 0 0 0 0 0 0 0 0 0 0 0 0 0 0 127 0" result="hardAlpha"/>
<feOffset dx="1" dy="1"/>
<feGaussianBlur stdDeviation="2"/>
<feColorMatrix type="matrix" values="0 0 0 0 0 0 0 0 0 0 0 0 0 0 0 0 0 0 0.6 0"/>
<feBlend mode="normal" in2="BackgroundImageFix" result="effect1_dropShadow_1038_33726"/>
<feBlend mode="normal" in="SourceGraphic" in2="effect1_dropShadow_1038_33726" result="shape"/>
</filter>
<filter id="filter2_d_1038_33726" x="12.3169" y="181.014" width="230.031" height="11.2012" filterUnits="userSpaceOnUse" color-interpolation-filters="sRGB">
<feFlood flood-opacity="0" result="BackgroundImageFix"/>
<feColorMatrix in="SourceAlpha" type="matrix" values="0 0 0 0 0 0 0 0 0 0 0 0 0 0 0 0 0 0 127 0" result="hardAlpha"/>
<feOffset dx="1" dy="1"/>
<feGaussianBlur stdDeviation="2"/>
<feColorMatrix type="matrix" values="0 0 0 0 0 0 0 0 0 0 0 0 0 0 0 0 0 0 0.6 0"/>
<feBlend mode="normal" in2="BackgroundImageFix" result="effect1_dropShadow_1038_33726"/>
<feBlend mode="normal" in="SourceGraphic" in2="effect1_dropShadow_1038_33726" result="shape"/>
</filter>
<filter id="filter3_d_1038_33726" x="12.6378" y="78.8855" width="229.992" height="105.826" filterUnits="userSpaceOnUse" color-interpolation-filters="sRGB">
<feFlood flood-opacity="0" result="BackgroundImageFix"/>
<feColorMatrix in="SourceAlpha" type="matrix" values="0 0 0 0 0 0 0 0 0 0 0 0 0 0 0 0 0 0 127 0" result="hardAlpha"/>
<feOffset dx="1" dy="1"/>
<feGaussianBlur stdDeviation="2"/>
<feColorMatrix type="matrix" values="0 0 0 0 0 0 0 0 0 0 0 0 0 0 0 0 0 0 0.6 0"/>
<feBlend mode="normal" in2="BackgroundImageFix" result="effect1_dropShadow_1038_33726"/>
<feBlend mode="normal" in="SourceGraphic" in2="effect1_dropShadow_1038_33726" result="shape"/>
</filter>
<clipPath id="clip0_1038_33726">
<rect width="256" height="256" fill="white"/>
</clipPath>
</defs>
</svg>
