<svg width="256" height="256" viewBox="0 0 256 256" fill="none" xmlns="http://www.w3.org/2000/svg">
<path d="M104.004 36.8612L24.027 69.3618C11.5655 74.4278 3.41333 86.5366 3.41333 99.9908V156.157C3.41333 169.609 11.5655 181.72 24.027 186.786L104.004 219.29C119.39 225.542 136.61 225.542 151.996 219.29L231.973 186.786C244.434 181.72 252.587 169.611 252.587 156.157V99.9908C252.587 86.5394 244.434 74.4278 231.973 69.3618L151.996 36.8612C136.61 30.6091 119.39 30.6091 104.004 36.8612Z" fill="white"/>
<path d="M73.3468 160.111C71.8706 159.386 70.4569 158.811 69.1029 158.384C67.7518 157.958 66.3495 157.747 64.8988 157.747C63.6473 157.747 62.4839 157.978 61.4059 158.441C60.3307 158.905 59.3977 159.548 58.6098 160.375C57.8219 161.2 57.2018 162.179 56.7523 163.305C56.3029 164.432 56.0754 165.658 56.0754 166.986C56.0754 168.314 56.3001 169.54 56.7523 170.667C57.2046 171.793 57.8275 172.757 58.6297 173.557C59.4318 174.359 60.3875 174.985 61.5026 175.434C62.6147 175.883 63.835 176.111 65.1634 176.111C65.7379 176.111 66.3324 176.074 66.9468 175.997C67.5612 175.923 68.224 175.789 68.9379 175.602C69.6519 175.414 70.4199 175.164 71.2476 174.851C72.0725 174.538 72.9884 174.131 73.9897 173.631L75.6053 177.985C73.6028 179.038 71.7426 179.738 70.0302 180.087C68.315 180.437 66.7079 180.614 65.206 180.614C63.1267 180.614 61.2124 180.27 59.4603 179.581C57.7081 178.893 56.1948 177.934 54.9177 176.708C53.6405 175.482 52.6393 174.043 51.9139 172.39C51.1886 170.738 50.8245 168.937 50.8245 166.983C50.8245 164.932 51.2199 163.066 52.0078 161.388C52.7957 159.713 53.8482 158.271 55.1623 157.07C56.4764 155.87 57.984 154.937 59.6878 154.274C61.3888 153.611 63.1666 153.279 65.0183 153.279C66.5458 153.279 68.1472 153.461 69.8254 153.822C71.5008 154.186 73.3781 154.843 75.4574 155.793L73.3554 160.111H73.3468Z" fill="#112F19"/>
<path d="M95.0101 153.731C96.7623 153.731 98.2443 153.933 99.4588 154.331C100.673 154.732 101.655 155.27 102.406 155.947C103.157 156.624 103.7 157.397 104.038 158.273C104.377 159.15 104.545 160.051 104.545 160.976C104.545 164.105 103.157 166.295 100.378 167.546L108.413 178.998L104.283 181.589L95.6843 168.897H92.3051V180.386H87.2363V153.728H95.0073L95.0101 153.731ZM92.3051 164.619H94.6716C96.2475 164.619 97.4194 164.326 98.1817 163.738C98.944 163.149 99.328 162.33 99.328 161.277C99.328 160.327 98.9525 159.551 98.2016 158.95C97.4507 158.35 96.2503 158.049 94.5977 158.049H92.3079V164.619H92.3051Z" fill="#112F19"/>
<path d="M142.845 179.897L138.266 181.965L133.911 172.416H124.41L119.979 182.042L115.51 179.897L127.3 154.294L130.304 153.017L142.845 179.897ZM129.141 162.028L126.362 168.149H131.957L129.141 162.028Z" fill="#112F19"/>
<path d="M161.729 153.731C163.356 153.731 164.753 153.933 165.916 154.331C167.08 154.732 168.038 155.281 168.789 155.984C169.54 156.683 170.092 157.491 170.442 158.404C170.792 159.317 170.968 160.301 170.968 161.351C170.968 162.304 170.817 163.243 170.519 164.167C170.217 165.094 169.7 165.925 168.96 166.664C168.22 167.404 167.239 168.004 166.013 168.468C164.787 168.931 163.248 169.162 161.394 169.162H158.427V180.389H153.321V153.731H161.732H161.729ZM158.427 164.881H161.28C162.105 164.881 162.807 164.787 163.382 164.599C163.957 164.412 164.42 164.161 164.77 163.848C165.12 163.536 165.376 163.166 165.541 162.742C165.703 162.315 165.786 161.866 165.786 161.391C165.786 160.466 165.447 159.67 164.773 159.007C164.096 158.344 162.995 158.012 161.468 158.012H158.427V164.884V164.881Z" fill="#112F19"/>
<path d="M195.371 160C194.244 159.4 193.28 158.905 192.481 158.518C191.679 158.131 190.842 157.935 189.966 157.935C188.991 157.935 188.177 158.236 187.526 158.837C186.874 159.437 186.55 160.188 186.55 161.089C186.55 161.914 186.852 162.56 187.452 163.024C188.052 163.487 188.803 163.888 189.705 164.224C190.606 164.562 191.588 164.887 192.651 165.2C193.715 165.512 194.697 165.951 195.598 166.514C196.5 167.077 197.251 167.816 197.851 168.73C198.451 169.643 198.753 170.863 198.753 172.39C198.753 173.719 198.519 174.899 198.059 175.937C197.595 176.976 196.964 177.852 196.161 178.566C195.359 179.28 194.421 179.823 193.345 180.198C192.27 180.574 191.118 180.762 189.892 180.762C188.464 180.762 187.056 180.5 185.668 179.974C184.28 179.447 182.821 178.696 181.293 177.721L183.171 173.289C183.646 173.616 184.146 173.952 184.673 174.302C185.199 174.652 185.717 174.973 186.231 175.26C186.743 175.548 187.258 175.787 187.77 175.974C188.282 176.162 188.777 176.256 189.252 176.256C190.003 176.256 190.646 176.156 191.186 175.954C191.724 175.755 192.162 175.491 192.501 175.167C192.839 174.842 193.084 174.478 193.232 174.077C193.382 173.676 193.456 173.275 193.456 172.877C193.456 171.85 193.155 171.062 192.555 170.51C191.954 169.961 191.204 169.503 190.302 169.139C189.4 168.778 188.419 168.445 187.355 168.144C186.291 167.842 185.31 167.424 184.408 166.886C183.506 166.349 182.756 165.64 182.155 164.764C181.555 163.888 181.254 162.688 181.254 161.16C181.254 160.085 181.478 159.075 181.931 158.137C182.383 157.198 182.989 156.379 183.751 155.676C184.513 154.977 185.415 154.425 186.453 154.024C187.492 153.623 188.598 153.424 189.776 153.424C192.253 153.424 194.77 154.211 197.322 155.79L195.371 159.994V160Z" fill="#112F19"/>
<path d="M104.391 190.575C104.164 190.455 103.97 190.356 103.811 190.276C103.649 190.199 103.481 190.16 103.305 190.16C103.108 190.16 102.943 190.219 102.815 190.342C102.684 190.461 102.619 190.615 102.619 190.794C102.619 190.959 102.679 191.09 102.801 191.184C102.921 191.277 103.074 191.357 103.253 191.425C103.435 191.494 103.632 191.559 103.845 191.622C104.058 191.684 104.257 191.772 104.437 191.886C104.619 192 104.769 192.148 104.889 192.333C105.008 192.518 105.071 192.762 105.071 193.069C105.071 193.337 105.025 193.573 104.932 193.783C104.838 193.991 104.713 194.167 104.55 194.312C104.388 194.455 104.201 194.566 103.984 194.64C103.768 194.716 103.538 194.753 103.29 194.753C103.003 194.753 102.721 194.699 102.44 194.594C102.161 194.489 101.868 194.338 101.561 194.142L101.939 193.251C102.036 193.317 102.135 193.385 102.241 193.456C102.346 193.527 102.451 193.59 102.554 193.65C102.656 193.707 102.761 193.755 102.864 193.792C102.966 193.829 103.066 193.849 103.162 193.849C103.313 193.849 103.444 193.829 103.552 193.789C103.66 193.749 103.748 193.695 103.817 193.63C103.885 193.564 103.933 193.49 103.964 193.411C103.996 193.331 104.01 193.249 104.01 193.169C104.01 192.961 103.95 192.805 103.828 192.694C103.708 192.583 103.555 192.492 103.376 192.418C103.194 192.344 102.997 192.279 102.784 192.219C102.571 192.159 102.372 192.074 102.192 191.966C102.01 191.858 101.86 191.715 101.74 191.539C101.621 191.363 101.558 191.121 101.558 190.814C101.558 190.598 101.604 190.396 101.695 190.205C101.786 190.017 101.908 189.852 102.062 189.71C102.215 189.568 102.397 189.46 102.605 189.377C102.812 189.298 103.037 189.258 103.273 189.258C103.771 189.258 104.277 189.417 104.789 189.733L104.397 190.578L104.391 190.575Z" fill="#112F19"/>
<path d="M108.553 194.657H107.526V189.434L108.553 189.05V194.66V194.657Z" fill="#112F19"/>
<path d="M116.264 195.012L115.479 194.611L112.301 191.056V194.657H111.275V188.951L112.091 189.357L115.245 192.89V189.312H116.264V195.009V195.012Z" fill="#112F19"/>
<path d="M123.329 190.595C123.034 190.45 122.749 190.333 122.476 190.248C122.203 190.162 121.921 190.12 121.631 190.12C121.381 190.12 121.145 190.165 120.929 190.259C120.713 190.353 120.525 190.481 120.366 190.649C120.206 190.814 120.081 191.01 119.993 191.238C119.902 191.465 119.856 191.71 119.856 191.977C119.856 192.245 119.902 192.489 119.993 192.717C120.084 192.944 120.209 193.138 120.371 193.297C120.533 193.459 120.724 193.584 120.949 193.675C121.173 193.766 121.418 193.812 121.685 193.812C121.802 193.812 121.921 193.803 122.044 193.789C122.166 193.775 122.3 193.746 122.445 193.709C122.587 193.672 122.743 193.621 122.908 193.559C123.073 193.496 123.258 193.414 123.46 193.314L123.785 194.19C123.381 194.401 123.008 194.543 122.664 194.614C122.32 194.685 121.995 194.719 121.694 194.719C121.276 194.719 120.892 194.651 120.539 194.512C120.186 194.372 119.882 194.182 119.626 193.934C119.37 193.687 119.168 193.399 119.023 193.067C118.878 192.734 118.804 192.373 118.804 191.98C118.804 191.568 118.884 191.192 119.043 190.856C119.202 190.521 119.413 190.231 119.677 189.989C119.942 189.747 120.243 189.559 120.587 189.426C120.932 189.292 121.287 189.227 121.66 189.227C121.967 189.227 122.288 189.264 122.627 189.335C122.965 189.409 123.341 189.539 123.759 189.73L123.335 190.598L123.329 190.595Z" fill="#112F19"/>
<path d="M129.158 190.188H127.15V191.539H129.149V192.398H127.15V193.795H129.271L129.559 194.657H126.126V189.312H129.545L129.161 190.188H129.158Z" fill="#112F19"/>
<path d="M135.7 189.895C135.95 189.679 136.206 189.514 136.465 189.406C136.724 189.298 136.997 189.241 137.284 189.241C137.515 189.241 137.734 189.281 137.938 189.36C138.143 189.44 138.32 189.554 138.47 189.699C138.621 189.844 138.741 190.02 138.826 190.222C138.911 190.427 138.954 190.652 138.954 190.899C138.954 191.101 138.917 191.298 138.84 191.491C138.763 191.684 138.655 191.895 138.513 192.117C138.371 192.341 138.197 192.586 137.993 192.856C137.788 193.126 137.557 193.437 137.301 193.789H139.423V194.671H135.447C135.819 194.173 136.161 193.724 136.471 193.328C136.781 192.933 137.045 192.578 137.264 192.27C137.483 191.963 137.654 191.699 137.774 191.474C137.893 191.249 137.956 191.059 137.956 190.905C137.956 190.683 137.882 190.501 137.737 190.353C137.591 190.205 137.409 190.134 137.193 190.134C137.011 190.134 136.846 190.177 136.693 190.259C136.539 190.342 136.366 190.49 136.169 190.7L135.708 189.892L135.7 189.895Z" fill="#112F19"/>
<path d="M145.499 193.166C145.388 193.502 145.237 193.786 145.047 194.019C144.856 194.253 144.634 194.432 144.384 194.551C144.134 194.671 143.866 194.733 143.585 194.733C143.278 194.733 142.996 194.671 142.74 194.546C142.484 194.421 142.262 194.241 142.08 194.005C141.895 193.772 141.753 193.49 141.65 193.163C141.548 192.836 141.497 192.472 141.497 192.068C141.497 191.727 141.537 191.388 141.616 191.053C141.696 190.717 141.821 190.418 141.995 190.151C142.168 189.884 142.382 189.667 142.64 189.502C142.899 189.338 143.209 189.252 143.573 189.252C143.937 189.252 144.247 189.34 144.512 189.514C144.777 189.687 144.993 189.909 145.161 190.177C145.328 190.444 145.456 190.743 145.539 191.067C145.621 191.391 145.664 191.707 145.664 192.014C145.67 192.446 145.616 192.83 145.505 193.166H145.499ZM144.543 191.337C144.501 191.115 144.435 190.916 144.35 190.74C144.265 190.563 144.156 190.421 144.026 190.313C143.895 190.205 143.738 190.151 143.556 190.151C143.406 190.151 143.266 190.197 143.141 190.29C143.016 190.384 142.908 190.512 142.817 190.674C142.726 190.839 142.655 191.033 142.606 191.26C142.555 191.488 142.529 191.73 142.529 191.991C142.529 192.267 142.555 192.52 142.606 192.745C142.657 192.973 142.726 193.166 142.814 193.331C142.902 193.496 143.01 193.621 143.135 193.709C143.26 193.798 143.4 193.84 143.551 193.84C143.721 193.84 143.875 193.789 144.009 193.69C144.142 193.59 144.253 193.453 144.341 193.283C144.43 193.112 144.495 192.916 144.54 192.694C144.586 192.472 144.609 192.245 144.609 192.006C144.609 191.767 144.586 191.556 144.543 191.334V191.337Z" fill="#112F19"/>
<path d="M149.151 194.671H148.147V189.485L149.151 188.928V194.671Z" fill="#112F19"/>
<path d="M154.328 189.75C154.086 189.952 153.884 190.142 153.725 190.325C153.563 190.507 153.432 190.677 153.33 190.842C153.227 191.007 153.148 191.158 153.091 191.3C153.034 191.442 152.994 191.573 152.963 191.693C153.048 191.653 153.142 191.624 153.242 191.61C153.341 191.596 153.444 191.587 153.543 191.587C153.779 191.587 154.001 191.63 154.203 191.713C154.405 191.795 154.584 191.909 154.732 192.057C154.88 192.202 154.997 192.375 155.082 192.574C155.167 192.774 155.21 192.99 155.21 193.22C155.21 193.451 155.167 193.667 155.085 193.863C155.002 194.059 154.886 194.227 154.735 194.369C154.584 194.512 154.405 194.62 154.2 194.696C153.995 194.773 153.768 194.813 153.52 194.813C153.247 194.813 153.003 194.768 152.781 194.674C152.559 194.58 152.371 194.446 152.215 194.273C152.058 194.099 151.939 193.891 151.853 193.65C151.768 193.408 151.725 193.138 151.725 192.833C151.725 192.435 151.785 192.051 151.902 191.681C152.021 191.312 152.175 190.965 152.371 190.637C152.565 190.31 152.784 190.012 153.023 189.744C153.264 189.474 153.506 189.244 153.748 189.047L154.328 189.756V189.75ZM152.73 192.899C152.73 193.214 152.804 193.462 152.949 193.638C153.094 193.815 153.279 193.903 153.5 193.903C153.6 193.903 153.694 193.886 153.779 193.849C153.865 193.815 153.941 193.766 154.007 193.707C154.072 193.647 154.123 193.576 154.158 193.49C154.192 193.405 154.212 193.317 154.212 193.223C154.212 193.118 154.192 193.018 154.155 192.927C154.118 192.836 154.066 192.757 154.004 192.688C153.941 192.62 153.865 192.566 153.776 192.526C153.688 192.486 153.594 192.466 153.492 192.466C153.355 192.466 153.227 192.489 153.108 192.538C152.988 192.586 152.86 192.663 152.73 192.768V192.896V192.899Z" fill="#112F19"/>
<path d="M97.6099 191.474H70.8181V193.749H97.6099V191.474Z" fill="#112F19"/>
<path d="M186.724 191.474H159.932V193.749H186.724V191.474Z" fill="#112F19"/>
<path d="M102.932 34.2245C119.097 27.6566 136.9 27.6566 153.065 34.2245L233.042 66.7279C239.684 69.4273 245.308 73.9955 249.313 79.9432C253.315 85.8909 255.431 92.8228 255.431 99.9909V156.157C255.431 163.325 253.315 170.257 249.313 176.205C245.311 182.153 239.684 186.721 233.042 189.42L153.065 221.921C144.984 225.206 136.491 226.847 128 226.847C119.509 226.847 111.016 225.206 102.932 221.921L22.9547 189.42C16.3129 186.721 10.6894 182.153 6.68443 176.205C2.67946 170.257 0.568878 163.325 0.568878 156.154V99.988C0.568878 92.82 2.68515 85.8881 6.68728 79.9404C10.6894 73.9926 16.3157 69.4244 22.9575 66.7251L102.932 34.2245ZM105.074 39.4952L25.0965 71.9958C13.6505 76.6465 6.25777 87.6346 6.25777 99.988V156.154C6.25777 168.508 13.6533 179.496 25.0965 184.147L105.074 216.647C119.856 222.655 136.141 222.655 150.923 216.647L230.901 184.147C242.347 179.496 249.739 168.508 249.739 156.154V99.988C249.739 87.6346 242.344 76.6465 230.901 71.9958L150.923 39.4924C136.141 33.4849 119.856 33.4849 105.074 39.4924V39.4952Z" fill="#112F19"/>
<path d="M191.935 90.3169C192.279 92.8427 190.62 94.4726 189.232 96.1679C188.038 97.6271 187.918 98.0879 189.139 99.5812C190.743 101.541 191.485 103.751 191.255 106.286C191.104 107.95 189.972 109.585 188.376 109.989C186.408 110.49 184.582 110.444 183.31 108.917C175.974 100.107 167.72 92.271 158.219 85.8084C152.192 81.7067 145.712 78.4612 138.721 76.4047C131.041 74.1434 123.227 73.5915 115.291 75.1218C112.93 75.577 111.516 77.1442 109.975 78.6518C106.226 82.3183 102.793 86.2977 98.4349 89.3412C91.7618 93.9976 84.7076 95.9346 76.9138 92.6493C73.1364 91.0564 70.2493 88.1949 67.6551 85.066C62.9533 79.3999 59.9922 72.8065 57.5659 65.9428C57.4265 65.5446 57.7394 64.9871 57.8418 64.5035C58.3822 64.7766 59.1218 64.9074 59.4261 65.3426C61.4912 68.2781 63.2149 71.4866 65.5133 74.2145C72.3456 82.324 80.9899 86.1327 91.7049 84.3777C96.8505 83.5357 101.481 81.3114 105.745 78.4641C109.668 75.8443 113.28 72.7666 117.077 69.9506C123.125 65.465 129.948 63.4938 137.404 64.4893C142.103 65.1151 146.315 67.2541 150.212 69.9791C156.991 74.7151 162.503 80.7368 167.731 87.06C173.102 93.5567 178.532 100.002 183.836 106.553C184.946 107.924 186.052 108.823 187.75 108.103C188.413 107.822 189.15 107.022 189.289 106.345C189.659 104.533 189.269 102.784 188.06 101.277C186.846 99.7604 185.788 98.1988 186.752 96.0968C186.869 95.8408 186.704 95.269 186.476 95.0728C183.302 92.3535 183.708 89.0795 185.079 85.7345C185.685 84.2554 186.55 82.8673 187.412 81.5133C187.702 81.0554 188.37 80.5291 188.82 80.5661C189.23 80.6002 189.773 81.2971 189.926 81.8034C190.774 84.5938 191.522 87.4155 192.302 90.2258C192.179 90.2543 192.06 90.2856 191.937 90.314L191.935 90.3169Z" fill="#112F19"/>
<path d="M103.293 133.51C103.819 133.609 104.357 133.666 104.866 133.817C105.853 134.11 106.96 134.272 107.762 134.844C108.427 135.319 109.215 136.4 109.087 137.04C108.86 138.178 107.841 139.045 106.502 139.096C105.509 139.133 104.513 139.082 103.521 139.022C101.757 138.914 101.484 139.241 101.063 140.991C100.727 142.396 100.21 143.801 99.4987 145.053C99.1431 145.676 98.1476 146.327 97.4962 146.276C96.8562 146.225 96.128 145.394 95.7269 144.731C95.3344 144.08 95.195 143.215 95.141 142.433C95.0556 141.232 94.6176 140.999 93.4884 141.375C91.3863 142.074 89.2501 142.692 87.0997 143.226C86.4057 143.4 85.4869 143.44 84.9067 143.116C84.1984 142.72 83.365 141.924 83.2796 141.218C83.1972 140.538 83.84 139.543 84.4544 139.056C85.7429 138.038 87.2476 137.296 88.6101 136.36C88.9372 136.135 89.2786 135.521 89.1847 135.216C89.0908 134.912 88.4651 134.596 88.0668 134.591C86.6503 134.565 85.2338 134.724 83.8172 134.705C82.2699 134.682 80.7196 134.568 79.1751 134.443C77.9463 134.343 77.1271 133.72 77.0105 132.415C76.891 131.055 77.403 129.946 78.6176 129.346C79.3998 128.959 80.3044 128.708 81.1776 128.632C85.7515 128.219 90.1035 129.408 94.4327 130.643C95.9403 131.072 96.1536 131.01 96.3982 129.468C97.9655 119.629 100.124 109.929 103.634 100.585C105.017 96.9047 106.65 93.315 109.906 90.7891C112.196 89.0113 114.765 89.0682 117.214 90.627C121.21 93.1756 123.275 96.8108 123.554 101.425C123.779 105.148 122.664 108.629 121.006 111.943C116.981 119.979 110.848 126.262 104.226 132.136C103.851 132.469 103.293 132.597 102.818 132.821C102.975 133.055 103.134 133.288 103.29 133.521L103.293 133.51Z" fill="#112F19"/>
<path d="M181.313 115.473C181.413 119.123 180.463 122.874 179.069 126.521C178.643 127.636 178.972 128.017 180.002 128.35C181.837 128.945 183.686 129.556 185.418 130.392C186.553 130.941 187.625 131.843 187.304 133.405C187.065 134.557 184.943 136.115 183.649 136.135C178.955 136.209 174.291 136.44 169.722 137.714C167.165 138.428 164.878 139.614 162.836 141.255C162.304 141.682 161.963 142.467 161.755 143.153C161.24 144.848 160.333 145.784 158.999 145.764C156.84 145.732 155.628 144.916 155.153 143.167C155.054 142.8 154.957 142.433 154.877 142.063C154.419 139.97 155.796 138.471 157.824 139.059C159.235 139.469 160.299 139.148 161.562 138.525C164.096 137.276 166.736 136.221 169.387 135.228C170.522 134.804 170.616 134.449 169.867 133.561C165.956 128.93 162.66 123.887 160.865 118.073C159.94 115.081 159.084 111.847 159.26 108.783C159.573 103.313 162.452 100.418 168.294 100.861C171.264 101.086 174.066 101.922 176.475 103.766C180.235 106.644 181.439 110.629 181.322 115.468L181.313 115.473Z" fill="#112F19"/>
<path d="M92.4985 95.7896C90.5558 97.391 88.6102 98.9896 86.6702 100.6C85.1798 101.837 83.7348 103.134 82.2016 104.317C81.1662 105.117 81.1037 105.944 81.664 107.031C82.89 109.409 84.9977 110.697 87.3074 111.761C87.6516 111.92 88.0071 112.048 88.3598 112.188C91.3152 113.36 91.338 113.368 92.6635 110.39C93.4912 108.53 94.1597 106.598 95.0614 104.778C95.3913 104.115 96.2475 103.199 96.768 103.259C97.7806 103.373 98.0651 104.383 98.0366 105.461C97.9172 110.128 97.2374 114.694 95.6871 119.111C95.5136 119.6 95.4027 120.186 95.0642 120.531C94.4413 121.168 93.6562 122.104 92.965 122.084C92.2738 122.064 91.2953 121.148 90.9966 120.405C89.9328 117.746 88.7012 117.114 85.6434 118.912C83.1261 120.391 80.879 122.32 78.4242 123.915C74.8288 126.256 72.9316 125.207 72.4907 120.991C72.283 118.995 71.6374 117.032 71.04 115.098C70.875 114.56 70.2436 114.074 69.7117 113.755C66.2443 111.682 66.2614 110.834 67.2654 107.184C68.2411 103.635 70.2635 100.557 72.7865 97.8547C74.075 96.4751 74.9511 96.5803 76.7062 97.4394C77.9207 98.0339 79.4027 98.3467 80.7623 98.3325C84.3094 98.2955 87.6573 97.226 90.9227 95.892C91.3721 95.7071 91.8528 95.6019 92.3193 95.4568C92.379 95.5677 92.4388 95.6815 92.4985 95.7924V95.7896ZM76.4217 104.932C75.2413 105.583 74.2742 106.03 73.4066 106.621C72.6443 107.139 72.8605 107.819 73.3952 108.427C73.9414 109.045 74.6183 109.54 75.2811 108.752C76.0804 107.802 76.7119 106.701 76.4217 104.932Z" fill="#112F19"/>
<path d="M137.614 108.692C143.923 108.746 149.311 111.423 154.496 114.651C155.418 115.226 156.336 115.84 157.127 116.574C157.474 116.895 157.503 117.561 157.673 118.07C157.133 118.03 156.501 118.161 156.066 117.928C152.573 116.051 149.254 113.786 145.621 112.253C140.14 109.941 134.497 109.835 128.993 112.546C127.056 113.499 125.608 114.91 124.595 116.801C124.373 117.217 124.166 117.689 123.822 117.973C123.566 118.181 122.994 118.289 122.746 118.141C122.482 117.982 122.209 117.356 122.323 117.126C122.843 116.079 123.361 114.975 124.129 114.113C127.71 110.091 132.338 108.561 137.611 108.695L137.614 108.692Z" fill="#112F19"/>
</svg>
