<svg width="256" height="256" viewBox="0 0 256 256" fill="none" xmlns="http://www.w3.org/2000/svg">
<g clip-path="url(#clip0_375_10463)">
<path fill-rule="evenodd" clip-rule="evenodd" d="M256 127.925C256.288 197.781 198.966 255.492 129.284 256C58.2286 256.509 0.631728 199.444 2.35112e-06 129.202C-0.631723 58.2325 56.4845 0.714595 126.675 8.67811e-05C197.085 -0.700681 255.767 55.9241 256 127.911V127.925Z" fill="#99CA3D"/>
<path fill-rule="evenodd" clip-rule="evenodd" d="M62.4585 112.329C60.6457 119.447 59.2037 126.289 57.7617 133.201H62.5409C64.3262 124.819 66.0978 116.465 67.9243 107.877C65.5072 107.877 63.1863 107.877 60.8654 107.877C60.014 107.877 60.0002 108.646 59.7942 109.141C57.7205 114.184 55.2486 119.076 53.5182 124.297C53.7105 118.883 53.5182 113.497 53.5182 108.179C53.0787 107.657 52.4882 108.056 52.0487 107.753C52.1586 106.929 52.7766 106.311 53.0238 105.555C53.6418 103.659 54.9739 102.779 56.8553 102.202C60.783 101.007 64.6283 99.5503 68.5285 98.2449C69.5723 97.9014 70.3001 97.338 70.9181 96.4174C76.6998 87.9395 82.5226 79.4891 88.318 71.0112C88.8948 70.1592 89.5677 69.5684 90.5291 69.1699C94.0173 67.7134 97.4506 66.1195 100.939 64.6768C102.147 64.1821 102.861 63.4264 103.438 62.2859C110.566 48.3255 117.721 34.3789 124.876 20.4322C125.178 19.8551 125.48 19.278 125.782 18.7009C126.4 18.7559 126.441 19.278 126.647 19.6215C132.127 28.8002 137.62 37.9789 143.045 47.1988C143.69 48.2843 144.377 48.7103 145.627 48.6965C150.722 48.6278 155.817 48.669 160.939 48.669C160.994 49.6996 160.431 50.1393 160.088 50.6614C150.845 64.6768 141.644 78.7333 132.264 92.6525C129.916 96.1426 128.213 99.7426 127.595 103.879C127.403 105.17 127.046 106.434 126.73 107.836H112.488C112.214 109.1 111.967 110.254 111.692 111.559H117.24C115.702 118.842 114.205 125.932 112.681 133.16H117.46C118.97 126.07 120.509 118.897 122.047 111.656H125.878C125.137 114.953 124.409 118.196 123.681 121.439C122.527 126.633 121.346 131.813 120.22 137.007C120.014 137.941 119.643 138.491 118.682 138.848C108.726 142.544 98.7827 146.296 88.8399 150.033C88.0434 150.335 87.3155 150.377 86.4641 150.17C82.1381 149.154 77.7984 148.26 73.4725 147.244C72.4013 146.996 71.6322 147.175 70.7945 147.889C68.144 150.115 65.4386 152.273 62.7331 154.43C62.2662 154.801 61.8817 155.296 61.1538 155.447C59.1625 152.602 57.1437 149.744 55.125 146.873C52.1311 142.599 49.151 138.326 46.1572 134.053C45.7452 133.462 45.3744 132.899 45.5529 132.102C47.0087 125.63 48.327 119.117 49.4944 112.59C49.5218 112.453 49.6454 112.315 49.9613 111.766V132.981C52.7629 133.613 52.859 133.572 53.9027 131.167C56.3884 125.437 58.8741 119.708 61.3736 113.978C61.5796 113.497 61.662 112.92 62.4722 112.315L62.4585 112.329ZM93.3993 107.946C91.614 116.369 89.8287 124.737 88.0434 133.173H92.795C94.2508 127.251 95.1022 121.288 96.091 115.352C96.5579 121.453 98.0136 127.334 99.2496 133.173H104.249C106.034 124.75 107.805 116.396 109.604 107.946H104.867C103.328 114.033 102.463 120.216 101.392 126.358C100.87 120.147 99.3595 114.115 98.4119 107.946H93.3993ZM74.9831 133.888C80.0369 133.915 82.7973 131.95 84.4453 127.141C85.5302 123.967 86.1207 120.683 86.7113 117.385C87.0821 115.393 87.3842 113.387 87.0683 111.34C86.8211 109.759 86.0521 108.592 84.5826 107.905C79.8859 105.692 73.7746 107.767 71.7558 112.508C69.6409 117.482 68.5697 122.758 68.2401 128.144C68.0204 131.813 69.792 133.586 73.4862 133.888C73.9806 133.929 74.475 133.888 74.9694 133.888H74.9831Z" fill="#060707"/>
<path fill-rule="evenodd" clip-rule="evenodd" d="M181.841 96.4312C182.225 97.2144 182.459 97.5441 182.555 97.8876C183.805 102.518 186.702 105.72 190.726 108.262C194.613 110.708 198.197 113.648 201.933 116.341C202.592 116.808 203.031 117.344 203.292 118.114C208.209 132.349 213.139 146.57 218.055 160.792C218.179 161.135 218.234 161.506 218.385 162.083C201.452 160.517 184.642 158.964 167.641 157.398C168.149 154.87 168.643 152.479 169.151 149.937H138.513C138.403 148.769 138.911 147.917 139.323 147.065C141.548 142.462 145.118 138.958 148.909 135.688C154.471 130.879 160.074 126.111 165.732 121.398C173.587 114.857 179.657 107.163 181.841 96.4312Z" fill="#060707"/>
<path fill-rule="evenodd" clip-rule="evenodd" d="M123.942 144.441C124.821 140.044 125.672 135.633 126.579 131.236C128.446 122.167 130.342 113.098 132.264 103.865C135.574 103.865 138.856 103.892 142.138 103.851C143.649 103.823 145.503 104.469 146.602 103.576C147.632 102.738 147.398 100.828 147.741 99.399C148.442 96.4586 149.266 93.573 150.955 91.0036C153.262 87.486 158.865 85.8234 162.683 87.5547C164.674 88.4616 165.471 90.1654 165.498 92.2127C165.595 98.8769 163.535 104.744 158.714 109.471C153.221 114.857 147.151 119.598 141.438 124.723C134.928 130.563 128.666 136.636 124.203 144.276C124.162 144.358 124.024 144.386 123.942 144.427L123.969 144.454L123.942 144.441Z" fill="#060707"/>
<path fill-rule="evenodd" clip-rule="evenodd" d="M123.914 144.413C121.552 149.854 119.781 155.488 118.311 161.218C118.146 161.864 117.803 162.152 117.144 162.083C116.979 162.07 116.814 162.083 116.65 162.083C99.7989 162.083 82.9483 162.083 66.0977 162.083C65.7407 162.083 65.3424 162.221 64.8755 161.781C67.6496 159.528 70.4649 157.398 73.1017 155.048C74.5162 153.784 75.8208 153.482 77.6473 153.977C81.3965 154.966 85.228 155.68 89.0184 156.56C90.2269 156.835 91.3118 156.821 92.5066 156.367C102.449 152.63 112.406 148.961 122.349 145.265C122.898 145.059 123.53 144.976 123.928 144.454L123.901 144.427L123.914 144.413Z" fill="#060707"/>
<path fill-rule="evenodd" clip-rule="evenodd" d="M151.216 75.3943C155.693 68.6203 159.978 62.1347 164.427 55.4019C167.366 62.2859 170.223 68.9775 173.189 75.9302C165.869 73.0584 158.714 73.5669 151.216 75.4081V75.3943Z" fill="#060707"/>
<path fill-rule="evenodd" clip-rule="evenodd" d="M189.971 183.711C190.273 181.004 194.077 179.713 196.535 180.784C197.675 181.293 197.854 182.323 197.634 183.423C197.291 185.195 196.92 186.968 196.494 188.713C196.288 189.565 196.329 190.183 197.524 190.1C196.357 191.433 195.56 191.31 194.887 189.867C194.036 190.471 193.116 190.952 192.086 191.172C190.383 191.529 188.859 190.966 188.419 189.784C187.925 188.479 188.749 186.761 190.218 185.951C191.454 185.264 192.855 185.278 194.187 185.03C194.613 184.948 195.052 184.907 195.464 184.783C196.398 184.522 196.494 183.739 196.508 182.955C196.508 182.213 196.055 181.774 195.354 181.54C193.926 181.073 192.209 181.636 191.331 182.983C190.973 183.532 190.726 184.041 189.957 183.697L189.971 183.711ZM195.931 185.731C194.324 186.171 192.649 185.923 191.111 186.61C189.985 187.119 189.271 187.984 189.641 189.207C189.998 190.375 191.138 190.362 192.141 190.224C194.503 189.894 195.574 188.63 195.931 185.731Z" fill="#060707"/>
<path fill-rule="evenodd" clip-rule="evenodd" d="M43.4792 190.87C42.875 186.198 42.2707 181.595 41.6802 176.978C43.1771 176.332 43.081 177.459 43.1908 178.27C43.6303 181.801 44.0285 185.346 44.4543 188.878C45.0723 188.933 45.0723 188.452 45.2233 188.177C47.1185 184.728 49.0274 181.279 50.8951 177.803C51.3071 177.047 51.7054 176.484 52.7216 176.951C50.2771 181.348 47.8052 185.731 45.4019 190.155C44.9761 190.952 44.4405 191.09 43.493 190.884L43.4792 190.87Z" fill="#060707"/>
<path fill-rule="evenodd" clip-rule="evenodd" d="M76.4938 186.363H68.6933C68.4873 187.833 68.4461 189.139 69.9156 189.949C71.234 190.677 73.0467 190.224 74.2141 188.919C74.6672 188.41 74.9556 187.641 75.9032 188.177C75.5324 189.139 74.887 189.867 74.0493 190.389C72.3601 191.447 70.5336 191.763 68.7895 190.664C67.114 189.633 67.2239 187.916 67.5535 186.253C68.0067 183.945 69.1053 182.035 71.2752 180.949C72.6759 180.248 74.1454 180.111 75.4912 181.059C76.7547 181.952 76.8646 183.34 76.7959 184.742C76.7684 185.222 76.6311 185.703 76.5212 186.363H76.4938ZM69.0778 185.305H75.3814C75.9307 183.354 75.3814 181.966 73.9394 181.54C71.9618 180.949 69.8194 182.584 69.0778 185.305Z" fill="#060707"/>
<path fill-rule="evenodd" clip-rule="evenodd" d="M170.044 187.572C169.289 189.743 167.792 190.994 165.553 191.282C163.013 191.612 161.461 190.197 161.433 187.627C161.392 184.151 163.466 181.169 166.377 180.523C169.069 179.933 170.827 181.265 170.662 183.862C170.168 184.027 169.811 184 169.522 183.423C168.382 181.1 166.322 180.784 164.482 182.612C163.48 183.615 162.985 184.865 162.724 186.239C162.381 188.108 162.903 189.523 164.153 190.046C165.608 190.65 167.38 190.032 168.437 188.52C168.808 187.984 168.959 187.091 170.058 187.572H170.044Z" fill="#060707"/>
<path fill-rule="evenodd" clip-rule="evenodd" d="M38.2469 122.772C40.0606 121.109 41.8194 119.474 43.8393 117.619C43.0973 121.095 42.4378 124.228 41.7095 127.677C40.4729 125.932 39.3874 124.393 38.2469 122.772Z" fill="#060707"/>
<path fill-rule="evenodd" clip-rule="evenodd" d="M122.062 177.913C121.87 178.998 121.733 179.809 121.568 180.674C122.172 180.729 122.694 180.771 123.244 180.812C123.07 181.389 122.415 181.737 121.279 181.856C120.771 184.22 120.262 186.624 119.726 189.015C119.383 190.485 120.523 190.224 121.403 190.307C121.059 191.543 120.152 191.351 119.424 191.227C118.572 191.076 118.366 190.403 118.531 189.592C119.067 187.036 119.575 184.467 120.111 181.856C119.63 181.774 119.218 181.705 118.833 181.636C118.765 180.358 119.85 180.949 120.221 180.716C120.991 179.85 120.166 178.229 122.062 177.926V177.913Z" fill="#060707"/>
<path fill-rule="evenodd" clip-rule="evenodd" d="M215.885 190.87C216.834 186.432 217.768 182.049 218.688 177.679C218.812 177.088 218.963 176.594 219.939 176.923C219.582 178.723 219.211 180.578 218.826 182.42C218.304 184.934 217.74 187.449 217.218 189.963C217.067 190.705 216.834 191.186 215.872 190.884L215.885 190.87Z" fill="#060707"/>
<path fill-rule="evenodd" clip-rule="evenodd" d="M94.5117 190.787C95.13 187.792 95.7209 184.838 96.3941 181.897C96.4903 181.485 96.2842 180.674 97.2048 180.743C98.1667 180.812 97.2461 181.677 97.8232 181.994C98.6339 180.99 99.7056 180.441 101.121 180.455C100.997 181.045 101.08 181.609 100.31 181.705C98.2354 181.939 97.356 183.409 96.8888 185.209C96.4766 186.803 96.1468 188.41 95.7896 190.018C95.6522 190.595 95.6109 191.296 94.5254 190.787H94.5117Z" fill="#060707"/>
<path fill-rule="evenodd" clip-rule="evenodd" d="M140.078 190.842C140.752 187.71 141.439 184.632 142.043 181.526C142.194 180.771 142.524 180.633 143.307 180.881C142.648 184 141.988 187.132 141.342 190.265C141.191 190.98 140.779 191.09 140.078 190.842Z" fill="#060707"/>
<path fill-rule="evenodd" clip-rule="evenodd" d="M142.674 178.393C142.907 177.583 142.674 176.525 144.13 176.882C144.02 177.679 144.35 178.709 142.674 178.393Z" fill="#060707"/>
<path fill-rule="evenodd" clip-rule="evenodd" d="M73.1017 126.921C73.9394 122.566 74.5986 118.182 75.9582 113.95C76.2191 113.112 76.7547 112.384 77.4826 111.848C78.5812 111.037 79.8172 110.817 81.0395 111.395C82.2068 111.944 82.4128 113.167 82.2754 114.239C81.7261 118.65 80.8335 122.992 79.5013 127.237C79.2267 128.089 78.7048 128.804 77.977 129.34C76.8646 130.15 75.6286 130.302 74.4063 129.766C73.2115 129.243 73.1292 128.089 73.088 126.935L73.1017 126.921Z" fill="#060707"/>
</g>
<defs>
<clipPath id="clip0_375_10463">
<rect width="256" height="256" fill="white"/>
</clipPath>
</defs>
</svg>
