<?xml version="1.0" encoding="UTF-8"?>
<svg id="Calque_1" data-name="Calque 1" xmlns="http://www.w3.org/2000/svg" version="1.1" viewBox="0 0 566.9 566.9">
  <defs>
    <style>
      .cls-1 {
        fill: #df231a;
      }

      .cls-1, .cls-2, .cls-3 {
        stroke-width: 0px;
      }

      .cls-2 {
        fill: #312783;
      }

      .cls-3 {
        fill: #fff;
      }
    </style>
  </defs>
  <path class="cls-2" d="M113.5,371.3c32.1,61.1,96.2,102.8,170,102.8s137.9-41.7,170-102.8H113.5Z"/>
  <g>
    <polygon class="cls-1" points="172.1 328.3 158.1 313 138.9 333.5 153.4 348.8 172.1 328.3"/>
    <polygon class="cls-1" points="135.5 337.1 122.3 351.3 148.8 351.2 135.5 337.1"/>
    <polygon class="cls-1" points="152.2 311.9 125.1 318.9 135.5 329.8 152.2 311.9"/>
    <polygon class="cls-1" points="225 321.5 203.6 301.3 178.9 328.3 197.6 348.8 225 321.5"/>
    <polygon class="cls-1" points="175.5 332 157.9 351.2 192.9 351.1 175.5 332"/>
    <polygon class="cls-1" points="197.8 300.3 161.7 309.5 175.5 324.6 197.8 300.3"/>
    <path class="cls-1" d="M95.5,315.4c-.4,0-.7,0-1-.1.3,1.7.6,3.4.9,5l371.4-94.7c-.5-1.5-.9-3-1.4-4.5l-368.8,94.2c-.4,0-.7.1-1.1.1Z"/>
    <path class="cls-1" d="M109,362.3h348.8c.9-1.9,1.9-4,2.7-6.1l-353.7,1.1c.7,1.7,1.5,3.3,2.2,5Z"/>
    <polygon class="cls-1" points="98.6 325.6 105.2 333.5 115.9 321.2 98.6 325.6"/>
    <polygon class="cls-1" points="132.1 333.5 121.5 322.3 108.5 337.4 117.9 348.7 132.1 333.5"/>
    <path class="cls-1" d="M105.2,341.3l-3.1,3.6c.8,2.2,1.5,4.3,2.4,6.5h9.1s-8.4-10.1-8.4-10.1Z"/>
    <polygon class="cls-1" points="400.7 298.5 355.2 262.6 305.4 311.6 345 348.7 400.7 298.5"/>
    <path class="cls-1" d="M94.4,306.5l367.9-94c-27.9-71.5-97.4-122.1-178.8-122.1s-191.9,85.9-191.9,191.9.5,16.6,1.6,24.7c.4-.2.7-.4,1.2-.5Z"/>
    <path class="cls-1" d="M468.5,231.3l-109.5,27.9,45.5,35.9,65.3-58.8c-.4-1.7-.8-3.3-1.3-4.9Z"/>
    <path class="cls-1" d="M350.3,350.6l112.6-.3c.3-.7.5-1.4.8-2.1l-59-46.6-54.4,49Z"/>
    <path class="cls-1" d="M408.4,298.2l57,45c6.4-19.1,9.9-39.6,9.9-60.9s-1.5-27.4-4.3-40.5l-62.6,56.4Z"/>
    <polygon class="cls-1" points="263 283.7 207.3 297.9 228.6 318 263 283.7"/>
    <polygon class="cls-1" points="298.1 311.7 269.2 284.6 232.2 321.4 260.8 348.4 298.1 311.7"/>
    <path class="cls-1" d="M98.4,333.2c.6,2.1,1.2,4.1,1.8,6.2l1.7-2-3.5-4.2Z"/>
    <polygon class="cls-1" points="228.7 325 202.5 351 256.1 350.9 228.7 325"/>
    <polygon class="cls-1" points="348.9 261.8 272.9 281.2 301.7 308.2 348.9 261.8"/>
    <polygon class="cls-1" points="301.8 315.1 265.4 350.9 339.7 350.6 301.8 315.1"/>
  </g>
  <g>
    <path class="cls-3" d="M359.2,273.2c0,41.8-33.9,75.7-75.7,75.7s-75.7-33.9-75.7-75.7,33.9-75.7,75.7-75.7,75.7,33.9,75.7,75.7Z"/>
    <path class="cls-1" d="M207.9,286.6c6.1,34.2,34.5,60.1,69.1,63,2.9.4,5.7.5,8.5.5,18.9,0,37.9-8.2,52.1-22.4,14.7-14.8,22.8-34.2,22.8-54.7,0-42.4-34.5-76.9-76.9-76.9s-44.5,10.2-59.1,27.9c-14.7,17.8-20.7,40.5-16.5,62.5ZM245,336.1c-12-7.4-21.6-17.9-27.8-30.6l-1.9-3.8,10.4,3.4,20.8,22.2,1.8,10.8-3.3-2ZM249.3,325.9l-22.3-23.7,7.4-21.9,20.7-.9,21.4,22.3-5.2,19-21.9,5.2ZM274.2,321.4l5.1-18.7,27.9-13.5,17.7,9.4-1.3,23.2-31.1,13.9-18.2-14.4ZM332.9,327.9c-11.7,10.5-26.1,17-41.7,18.6l-4.5.5,7.5-8.7,30.2-13.5h12l-3.5,3.1ZM349.4,239.5l1.7,3.9c4.1,9.4,6.2,19.4,6.2,29.7s-.4,9.3-1.3,13.9l-.8,4.2-6.4-9.5-4.1-30.5,4.7-11.7ZM341.5,250.1l4.2,31.6-19.7,14.1-16.2-8.7-4.4-32.4,14.5-13,21.7,8.3ZM275.2,199.7c2.8-.3,5.6-.5,8.3-.5,12.6,0,25,3.3,36,9.4l3.7,2-4,1.2c-2,.6-4.4,1.4-7.5,2.4l-.5.2-31.7-7.3-8.6-6.9,4.2-.5ZM278,209.9l33,7.6,6.8,22.1-14.5,13.1-30.7-5.5-8.5-19.1,13.9-18.1ZM261.4,229.3l8.3,18.6-15.3,28.5-20.2.9-11.1-18.9,15.2-29.1h23.1ZM232.8,219.4l3.4-3.3-1.2,12.7-13.4,25.6-11.6,8.8.9-4.6c3-15.1,10.5-28.6,21.8-39.2Z"/>
  </g>
  <g>
    <path class="cls-3" d="M202.1,394.1l-4.8,5.7c-2.2-2.6-5.4-4.3-8.3-4.3-5.2,0-9.2,4.1-9.2,9.5s3.9,9.7,9.2,9.7,6-1.5,8.3-3.9l4.9,5.2c-3.5,3.6-8.7,6-13.6,6-9.9,0-17.3-7.3-17.3-16.9s7.6-16.6,17.6-16.6,10,2.2,13.2,5.5Z"/>
    <path class="cls-3" d="M213.1,415.7l-2.4,6.1h-8.6l14.2-32.9h8.6l13.9,32.9h-8.9l-2.3-6.1h-14.4ZM220.3,397.2l-4.8,12.2h9.5l-4.7-12.2Z"/>
    <path class="cls-3" d="M251,415.1h17.9v6.6h-29v-5.4l17.6-20.9h-17v-6.6h28.1v5.4l-17.6,20.9Z"/>
    <path class="cls-3" d="M281.8,395.4v6.5h15.7v6.6h-15.7v6.6h17.9v6.6h-26.3v-32.9h25.7v6.6h-17.4ZM284.4,386l-6.1-5.3,7.3-2.6,5,7.9h-6.2Z"/>
    <path class="cls-3" d="M320.1,412.5h-6.6v9.3h-8.4v-32.9h14.7c8.7,0,13.7,4.1,13.7,11.5s-2.1,8.6-6,10.6l6.9,10.9h-9.5l-4.9-9.3ZM319.9,405.9c3.6,0,5.7-1.8,5.7-5.3s-2.1-5.2-5.7-5.2h-6.3v10.5h6.3Z"/>
    <path class="cls-3" d="M347.5,395.4v6.5h15.7v6.6h-15.7v6.6h17.9v6.6h-26.3v-32.9h25.7v6.6h-17.4Z"/>
    <path class="cls-3" d="M396.4,392.1l-3.1,6.5c-3.5-2-7.8-3.4-10.5-3.4s-3.6.8-3.6,2.4c0,5.7,17.4,2.4,17.4,14.3s-5.8,10.1-13.2,10.1-11.1-2.1-15-5.3l3.2-6.4c3.4,3,8.5,4.9,11.9,4.9s4.3-1,4.3-2.9c0-5.8-17.4-2.3-17.4-14s5.2-9.9,13.1-9.9,9.6,1.5,13,3.7Z"/>
    <path class="cls-3" d="M221.8,436.4l-.8,1.7c-1.2-.7-2.6-1.2-4-1.2s-2.9.6-2.9,2c0,3.3,8.3,1.6,8.3,6.9s-2.6,4.2-5.4,4.2-4.3-.7-5.7-2.1l.8-1.7c1.3,1.2,3.2,1.9,4.9,1.9s3.2-.6,3.2-2.1c0-3.6-8.2-1.7-8.2-7,0-2.8,2.4-4,5.1-4s3.5.5,4.7,1.3Z"/>
    <path class="cls-3" d="M238.7,450h-2.2v-3.3c-1,2.3-3,3.4-5.6,3.4-3.5,0-5.5-2.2-5.5-5.8v-9.1h2.2v8.5c0,2.6,1.5,4.2,4.1,4.2,3.1,0,4.9-2.3,4.9-5.4v-7.3h2.2v14.8Z"/>
    <path class="cls-3" d="M246.3,438.4c1-2.2,2.8-3.3,5.3-3.4v2.2c-3.1,0-5.1,1.9-5.3,4.8v7.9h-2.2v-14.8h2.2v3.3Z"/>
    <path class="cls-3" d="M262.4,450v-20.9h2.2v20.9h-2.2Z"/>
    <path class="cls-3" d="M271.6,431.7c0,.4-.2.8-.4,1.2l-1.3,2h-1.2l.9-2.1c-.4-.3-.6-.7-.6-1.2,0-.8.6-1.4,1.3-1.4s1.3.6,1.3,1.4Z"/>
    <path class="cls-3" d="M277.6,445l-2.2,5h-2.4l8.8-19.7h2.3l8.8,19.7h-2.4l-2.2-5h-10.7ZM283,432.8l-4.4,10h8.8l-4.4-10Z"/>
    <path class="cls-3" d="M308.6,450h-2.2v-3.2c-1.1,2.1-3.1,3.3-5.8,3.3-4.2,0-7.1-3.1-7.1-7.5s2.9-7.5,7.1-7.5,4.7,1.2,5.8,3.3v-9.3h2.2v20.9ZM306.4,442.6c0-3.2-2.2-5.6-5.3-5.6s-5.4,2.3-5.4,5.6,2.2,5.5,5.4,5.5,5.3-2.3,5.3-5.5Z"/>
    <path class="cls-3" d="M327.6,442.6c0,4.4-3.1,7.5-7.5,7.5s-7.5-3.1-7.5-7.5,3.1-7.5,7.5-7.5,7.5,3,7.5,7.5ZM314.8,442.6c0,3.3,2.2,5.5,5.3,5.5s5.3-2.2,5.3-5.5-2.2-5.5-5.3-5.5-5.3,2.2-5.3,5.5Z"/>
    <path class="cls-3" d="M344.3,450h-2.2v-3.3c-1,2.3-3,3.4-5.6,3.4-3.5,0-5.5-2.2-5.5-5.8v-9.1h2.2v8.5c0,2.6,1.5,4.2,4.1,4.2,3.1,0,4.9-2.3,4.9-5.4v-7.3h2.2v14.8Z"/>
    <path class="cls-3" d="M351.8,438.4c1-2.2,2.8-3.3,5.3-3.4v2.2c-3.1,0-5.1,1.9-5.3,4.8v7.9h-2.2v-14.8h2.2v3.3Z"/>
  </g>
  <g>
    <path class="cls-3" d="M232,152h-20.5l-5.7,9.5h-10.9l28.5-44.1h10.1l10.8,44.1h-10.2l-2.1-9.5ZM230.3,144.3l-3.7-17-10.4,17h14.1Z"/>
    <path class="cls-3" d="M249,156.3c0-4,2.9-6.6,6.6-6.6s5.7,2.3,5.7,5.7-3,6.6-6.5,6.6-5.8-2.4-5.8-5.7Z"/>
    <path class="cls-3" d="M265.7,157.3l4.2-7.9c4,3,9.3,4.6,14.6,4.6s9.1-2,9.1-5.2c0-7.1-21.9-3.3-21.9-17.3s7.9-14.9,20.2-14.9,11.4,1.3,15.2,3.8l-3.8,7.8c-3.3-2.3-7.6-3.4-12-3.4s-9.4,2.3-9.4,5.4c0,7.2,21.9,3.5,21.9,17s-8.1,15-20.4,15-14-2.1-17.7-4.9Z"/>
    <path class="cls-3" d="M307.6,156.3c0-4,2.9-6.6,6.6-6.6s5.7,2.3,5.7,5.7-3,6.6-6.5,6.6-5.8-2.4-5.8-5.7Z"/>
    <path class="cls-3" d="M326.1,143.1c0-15.1,11-26.5,27.4-26.5s14.2,2.8,17.3,7.8l-7.4,6c-2.3-3.3-5.8-5.2-10.6-5.2-10,0-16.4,7.6-16.4,17.1s4.4,11.1,12.3,11.1,8.4-1.6,11.7-5.1l6,6.2c-4.7,5.4-11.1,7.6-18.6,7.6-13.5,0-21.8-7.8-21.8-19.2Z"/>
  </g>
  <g>
    <path class="cls-3" d="M232.2,185.5v-1.3h5.2v1.3h-5.2Z"/>
    <path class="cls-3" d="M251,191.5v-13.7h-3.1v-1.7h4.9v15.4h-1.7Z"/>
    <path class="cls-3" d="M266.1,190.5l.7-1.4c1,.6,2.4.9,3.5.9,3.3,0,5-2.7,4.7-6.9-.7,1.8-2.3,2.8-4.6,2.8s-4.9-1.9-4.9-4.8,2-5.1,5.2-5.1,6,2.7,6,7.4-2.4,8.1-6.3,8.1-3.1-.4-4.4-1.1ZM274.7,181c0-1.5-1.1-3.4-3.8-3.4s-3.7,1.3-3.7,3.5,1.4,3.3,3.5,3.3,3.9-1.6,3.9-3.5Z"/>
    <path class="cls-3" d="M292.4,182.7c2.8.1,4.6,1.6,4.6,4.1s-2.1,4.8-5.4,4.8-3.6-.6-4.9-1.6l.8-1.5c1.1.9,2.6,1.5,4,1.5,2.4,0,3.8-1.3,3.8-3.2s-1.4-2.9-3.8-2.9h-1.9v-1.1l4.5-5h-6.7v-1.7h8.9v1.2l-4.8,5.3h.9Z"/>
    <path class="cls-3" d="M310.4,177.8v4.3c.8-.1,1.9-.2,2.6-.2,3.2,0,5.3,1.9,5.3,4.6s-2.1,5.1-5.4,5.1-3.7-.7-5.2-1.7l.7-1.5c1.3,1,2.9,1.5,4.3,1.5,2.3,0,3.7-1.3,3.7-3.3s-1.4-3-3.7-3-2.9.2-4,.4v-7.9h8.9v1.7h-7.3Z"/>
    <path class="cls-3" d="M329.6,185.5v-1.3h5.2v1.3h-5.2Z"/>
  </g>
  <path class="cls-1" d="M283.5,493.9c-116.7,0-211.7-94.9-211.7-211.7s94.9-211.7,211.7-211.7,211.7,94.9,211.7,211.7-94.9,211.7-211.7,211.7ZM283.5,80.6c-111.2,0-201.7,90.5-201.7,201.7s90.5,201.7,201.7,201.7,201.7-90.5,201.7-201.7-90.5-201.7-201.7-201.7Z"/>
  <path class="cls-2" d="M464.4,371.3c-32.9,66.7-101.6,112.6-180.9,112.6s-147.9-46-180.9-112.6h-11.1c33.7,72.3,107.1,122.6,192,122.6s158.3-50.3,192-122.6h-11.1Z"/>
</svg>