<?xml version="1.0" encoding="UTF-8"?>
<svg id="Calque_1" data-name="Calque 1" xmlns="http://www.w3.org/2000/svg" xmlns:xlink="http://www.w3.org/1999/xlink" version="1.1" viewBox="0 0 379 396.1">
  <defs>
    <style>
      .cls-1 {
        fill: #c9c9c9;
      }

      .cls-1, .cls-2, .cls-3, .cls-4, .cls-5 {
        stroke-width: 0px;
      }

      .cls-6 {
        clip-path: url(#clippath);
      }

      .cls-2 {
        fill: none;
      }

      .cls-3 {
        fill: url(#Dégradé_sans_nom_8);
      }

      .cls-4 {
        fill: #039243;
      }

      .cls-5 {
        fill: #fff;
      }
    </style>
    <radialGradient id="Dégradé_sans_nom_8" data-name="Dégradé sans nom 8" cx="189.8" cy="231.1" fx="189.8" fy="231.1" r="71" gradientUnits="userSpaceOnUse">
      <stop offset=".4" stop-color="#fff"/>
      <stop offset="1" stop-color="#e2e2e2"/>
    </radialGradient>
    <clipPath id="clippath">
      <ellipse class="cls-2" cx="189.8" cy="231.1" rx="71.3" ry="70.8"/>
    </clipPath>
  </defs>
  <g>
    <path class="cls-4" d="M338.7,151.8c0,46.9-14.8,156.5-148.8,222.6C55.8,308.2,41.1,198.7,41.1,151.8s10.6-92,15.2-95.6c8.4-6.5,62.8-28.4,133.6-28.4s125.2,21.9,133.6,28.4c4.6,3.6,15.2,58.3,15.2,95.6Z"/>
    <path class="cls-5" d="M52.9,145.9c0,68.7,21,158.1,132.8,213.4-43.3-34.7-104.7-87.9-104.7-213.4s8.8-84.9,10.9-93.5c-9.2,3.3-28.4,9.9-29.7,11.2s-9.2,49.9-9.2,82.2Z"/>
    <path class="cls-5" d="M326.9,145.9c0,68.7-21,158.1-132.8,213.4,43.3-34.7,104.7-87.9,104.7-213.4,0-34.9-8.8-84.9-10.9-93.5,9.2,3.3,28.4,9.9,29.7,11.2s9.2,49.9,9.2,82.2Z"/>
  </g>
  <g>
    <g>
      <path class="cls-5" d="M142.2,78.6l11.9-33.1h11l11.9,33.1h-10.8l-1.3-4.4h-10.8l-1.2,4.4h-10.6ZM159.5,55.5l-3.4,11.9h6.9l-3.5-11.9Z"/>
      <path class="cls-5" d="M180.2,78.6v-9.5h9.8v9.5h-9.8Z"/>
      <path class="cls-5" d="M213.3,55.1c-.2-1-.7-1.8-1.6-2.3-.8-.4-1.7-.6-2.8-.6-2.3,0-3.4.6-3.4,1.9s.5,1.5,1.5,2c1,.5,2.7,1,4.9,1.5,1.9.5,3.5.9,4.8,1.4,1.3.4,2.5,1,3.7,1.7,1.2.8,2.2,1.7,2.9,2.9.8,1.2,1.1,2.7,1.1,4.4,0,3.7-1.4,6.5-4.2,8.5-2.8,1.9-6.6,2.9-11.3,2.9s-4.1-.3-5.9-.9c-1.8-.6-3.3-1.4-4.6-2.4-1.3-1-2.3-2.2-3-3.5-.7-1.3-1.1-2.8-1.2-4.3h10.4c.2,1.2.8,2,1.8,2.6.9.6,1.9.8,3.1.8s2.5-.2,3.3-.6c.8-.4,1.2-1,1.2-1.8s-.5-1.5-1.5-2c-1-.5-2.6-1-4.9-1.5-1.9-.5-3.5-.9-4.8-1.3-1.3-.4-2.5-1-3.8-1.8-1.2-.8-2.2-1.8-3-3-.8-1.3-1.1-2.8-1.1-4.6,0-3.4,1.3-6,4-7.8,2.6-1.8,6.1-2.7,10.4-2.7s4.2.3,5.9.8c1.7.5,3.1,1.3,4.3,2.2,1.2,1,2.1,2.1,2.7,3.3.7,1.3,1.1,2.6,1.3,4.1h-10.3Z"/>
    </g>
    <g>
      <path class="cls-5" d="M92.2,133.2v-27.4h10.8l4.8,17.1,4.8-17.1h10.8v27.4h-8.1v-12.6c.1,0,.6-4.9.6-4.9h0l-5,17.6h-6.2l-5-17.6h0l.4,4,.2,4.3v9.3h-8.1Z"/>
      <path class="cls-5" d="M126.2,133.2l9.8-27.4h9.1l9.8,27.4h-8.9l-1.1-3.6h-8.9l-1,3.6h-8.8ZM140.5,114.1l-2.8,9.8h5.7l-2.9-9.8Z"/>
      <path class="cls-5" d="M176.2,120.8l-.3-6.2v-8.7h8.6v27.4h-8.4l-9.8-14.9.3,6.2v8.7h-8.6v-27.4h8.4l9.8,14.9Z"/>
      <path class="cls-5" d="M206.8,116.3c-.1-1.4-.6-2.5-1.5-3.3-.9-.8-2-1.2-3.4-1.2s-2.8.7-3.7,2c-.9,1.4-1.3,3.3-1.3,5.9s0,2,.2,2.9c.2.9.4,1.6.8,2.3.4.7.9,1.2,1.7,1.6.7.4,1.6.6,2.7.6s2.4-.4,3.2-1.3c.8-.8,1.2-2,1.4-3.4h8.6c-.4,3.5-1.8,6.3-4.1,8.3-2.3,2-5.3,3-8.9,3s-4.2-.3-6-1c-1.8-.7-3.3-1.6-4.6-2.9-1.3-1.3-2.2-2.8-2.9-4.6-.7-1.8-1-3.8-1-6s.3-4.2,1-5.9c.7-1.8,1.7-3.3,2.9-4.6,1.2-1.3,2.7-2.2,4.4-2.9,1.7-.7,3.4-1,5.3-1,4.1,0,7.4,1,9.7,2.9,2.3,1.9,3.7,4.7,4,8.3h-8.5Z"/>
      <path class="cls-5" d="M219.5,133.2v-27.4h9v27.4h-9Z"/>
      <path class="cls-5" d="M234.3,133.2v-27.4h22.3v6.4h-13.3v3.9h11.3v6.4h-11.3v4.3h13.9v6.4h-22.8Z"/>
      <path class="cls-5" d="M260,105.9h25.1v7.2h-8.1v20.2h-9v-20.2h-8.1v-7.2Z"/>
    </g>
  </g>
  <path class="cls-3" d="M261,231.1c0,17.4-6.4,33.4-16.9,45.7-2.4,2.8-5,5.4-7.8,7.8-12.5,10.7-28.8,17.2-46.6,17.2s-8.5-.4-12.6-1.1h0c-7.1-1.3-13.9-3.6-20.1-6.8h0c-18.8-9.7-32.7-27.3-37.1-48.5h0c-.5-2.6-.9-5.1-1.2-7.8-.2-2.2-.3-4.4-.3-6.6,0-17.1,6.1-32.8,16.3-45,3.4-4.1,7.2-7.8,11.4-11,12-9.2,27.1-14.7,43.5-14.7,32.9,0,60.6,22.1,68.8,52.2h0c1.2,4.6,2,9.3,2.3,14.1,0,1.5.1,2.9.1,4.4Z"/>
  <g class="cls-6">
    <g>
      <g>
        <path class="cls-1" d="M120.4,240.4l-.8-.7c.2-.2.5-.5.7-.9,2.6-3,7.4-8.6,12-10.1l.3,1c-4.4,1.4-9.2,7.1-11.6,9.8-.3.3-.5.6-.8.9Z"/>
        <path class="cls-1" d="M138.8,204.3c-1-2.8-.8-12.1-.7-16.6,0-1,0-1.7,0-2.1h1c0,.3,0,1.1,0,2.1,0,4.1-.3,13.7.7,16.3l-.9.3Z"/>
        <path class="cls-1" d="M163.2,199.2l-.8-.6c2.8-3.7,19.9-19.7,27.3-21.5l.2,1c-7.1,1.7-24.1,17.6-26.8,21.2Z"/>
        <path class="cls-1" d="M205,237.8c-3.4-2-29.7-10.4-35.5-11.7l.2-1c5.2,1.1,32.1,9.6,35.8,11.8l-.5.9Z"/>
        <path class="cls-1" d="M158,276.2c-2.3-3.7-8.7-22.4-8.7-31.5h1c0,8.8,6.3,27.4,8.6,31l-.8.5Z"/>
        <path class="cls-1" d="M186.6,285.1l-.4-.9c2.4-1,18.6-12.3,24.2-21l.8.5c-5.6,8.7-21.6,20.1-24.7,21.4Z"/>
        <path class="cls-1" d="M225.2,218.5c-1.2-20.9-7.7-29.6-9-31.1l.8-.6c1.3,1.6,8,10.4,9.3,31.7h-1Z"/>
        <path class="cls-1" d="M243,234.5l-.2-1c1-.2,13.5-7.8,14.9-11.9l.9.3c-1.6,4.6-14.3,12.3-15.7,12.6Z"/>
        <path class="cls-1" d="M240.3,277.6c-.5-6.6-4.9-14.9-5.8-16.5l.9-.5c.9,1.6,5.4,10.2,5.9,16.9h-1Z"/>
        <path class="cls-1" d="M199.2,297.5c-4.8,0-8.4-.3-9-.7l.5-.9c1.4.7,24.9,1.6,37.3-4l.4.9c-7.9,3.6-20.6,4.6-29.2,4.6Z"/>
        <path class="cls-1" d="M148.4,284.3c-3.2,0-9.9-.9-11.2-1.5l.4-.9c1.3.6,10.6,1.7,12,1.3l.3,1c-.3,0-.8.1-1.5.1Z"/>
        <path class="cls-1" d="M187.1,166.8c-.1,0-.3-.1-.6-.2-6.3-2.5-14.5-3.5-24.3-3.2v-1c10-.4,18.3.7,24.7,3.2.2,0,.4.2.5.2l-.3,1Z"/>
        <path class="cls-1" d="M204.4,164.5l-1-.2c.2-1,1.7-4.6,2.5-5.1l.5.9c-.4.3-1.8,3.2-2,4.4Z"/>
        <path class="cls-1" d="M257.2,204.9c-6.8-10.1-20.6-21.6-30.6-25.6l.4-.9c10.2,4.1,24.1,15.7,31.1,25.9l-.8.6Z"/>
      </g>
      <g>
        <path class="cls-4" d="M131.4,229.8c-.6-1.6,5.2-24.5,7.3-27.2s20.5-6.6,25.3-4.7,6.9,26.2,6.8,27.7-20.4,19.9-21,20.5-17.8-14.9-18.4-16.3Z"/>
        <path class="cls-4" d="M225.2,217.3c1.1-.2,18.8,12.2,18.8,16.5,0,7.5-7,26.8-8.5,28.1s-23.8,3.2-25.2,2.5-6.7-26.5-6.6-27.6,18.3-19,21.5-19.5Z"/>
        <path class="cls-4" d="M188.5,178.1c-1-.7-2.3-11.2-2.2-12s10.7-4,12.8-3.9c10.5.6,29.4,10.5,30.3,16.8s-10.9,8.8-12.2,9-7-4.2-14.4-6.8-13.5-2.6-14.2-3.2Z"/>
        <path class="cls-4" d="M192,297.3c0,.6-7.8,2.3-14.8,3.5h0c-7.1-1.3-13.9-3.6-20.1-6.8h0c-4.5-4.2-8.8-8.8-8.8-9.8-.2-1.9,8-10,9.5-10,1.2,0,8.4,5.6,13.2,7.1,8.1,2.6,15.9,2.1,16.5,2.7.9.9,4.7,12.4,4.7,13.3Z"/>
        <path class="cls-4" d="M146.2,175.1c-2.9,4.4-6.9,10.2-7.6,10.5-.3.1-1.9.3-3.8.5,3.4-4.1,7.2-7.8,11.4-11Z"/>
        <path class="cls-4" d="M120,245.5c-.5-2.5-.9-5.1-1.2-7.7,1.1.4,2.1.9,2.3,1.3.3.6-.4,3.7-1.2,6.4Z"/>
        <path class="cls-4" d="M244.2,276.9c-2.4,2.8-5,5.4-7.8,7.8,1.3-3.3,3.3-7.9,3.9-8.1.5-.2,2.3,0,3.8.3Z"/>
        <path class="cls-4" d="M260.9,226.7c-1.8-1.9-3.6-3.9-3.7-4.3-.2-1,.5-5.9,1.4-9.8,1.2,4.6,2,9.3,2.3,14.1Z"/>
      </g>
    </g>
  </g>
</svg>