<svg width="256" height="256" viewBox="0 0 256 256" fill="none" xmlns="http://www.w3.org/2000/svg">
<path d="M222.018 192.367C222.025 195.748 221.569 199.124 220.621 202.373C220.615 202.398 220.609 202.417 220.596 202.442C220.596 202.442 218.655 209.041 215.299 215.078C215.09 215.451 214.869 215.83 214.642 216.209L35.4417 1.58032H221.702L222.018 192.367Z" fill="#D1222C"/>
<path d="M214.642 216.209C209.503 224.699 198.94 234.49 185.748 241.576C176.166 246.721 168.119 248.87 161.697 250.545C155.016 252.283 148.79 253.345 143.215 253.977C137.633 254.609 132.703 254.812 128.626 254.824H128.474C120.314 254.799 108.759 254.022 95.4025 250.545C88.9804 248.87 80.9338 246.721 71.3512 241.576C57.5714 234.174 46.6551 223.814 41.8006 215.078C38.4441 209.041 36.4973 202.442 36.4973 202.442C36.4909 202.417 36.4846 202.398 36.4783 202.373C35.5302 199.124 35.075 195.748 35.0814 192.367L35.3974 2.18082L35.4164 1.58032H35.4417L214.642 216.209Z" fill="#203E79"/>
<path d="M128.474 255.134C117.273 255.102 106.123 253.655 95.3268 250.842C89.2839 249.268 81.0161 247.113 71.2059 241.847C58.1214 234.818 46.75 224.616 41.5288 215.23C38.1914 209.231 36.2192 202.594 36.2002 202.531L36.1813 202.461C35.2331 199.244 34.7654 195.843 34.7654 192.367L35.0814 1.26416H222.018V1.58021L222.334 192.367C222.334 195.849 221.867 199.244 220.925 202.461L220.906 202.531C220.887 202.594 218.915 209.231 215.577 215.23C210.356 224.623 198.985 234.825 185.9 241.847C176.096 247.113 167.822 249.268 161.779 250.842C150.977 253.655 139.827 255.096 128.632 255.134C128.619 255.134 128.506 255.134 128.474 255.134ZM36.8071 202.354C36.826 202.417 38.7792 208.991 42.0788 214.926C47.243 224.218 58.5197 234.325 71.503 241.297C81.2436 246.531 89.4735 248.674 95.4848 250.235C106.237 253.035 117.336 254.47 128.474 254.502H128.626C139.77 254.47 150.869 253.035 161.615 250.235C167.626 248.668 175.856 246.525 185.597 241.297C198.58 234.325 209.857 224.218 215.021 214.926C218.321 208.991 220.274 202.417 220.293 202.354L220.615 202.373L220.312 202.284C221.235 199.124 221.702 195.786 221.696 192.367L221.38 1.89626H35.7135L35.3975 192.367C35.3975 195.786 35.8589 199.124 36.7818 202.284L36.4973 202.442L36.8007 202.354H36.8071Z" fill="black"/>
<path d="M55.9091 13.4194C55.7574 13.4194 55.5867 13.3878 55.4034 13.3309C54.5501 13.0527 53.5071 12.9137 52.2745 12.9137C51.87 12.9137 51.4022 12.939 50.8776 12.9959C50.3529 13.0464 49.7651 13.1286 49.1203 13.2361C49.133 14.5066 49.133 15.6001 49.1203 16.5167C50.1254 16.2701 50.9598 16.15 51.6235 16.15C52.8561 16.15 53.9306 16.2069 54.8408 16.3207C55.6942 16.4282 56.124 16.8769 56.124 17.6734C56.124 18.059 55.9913 18.3813 55.7195 18.6405C55.4477 18.8997 55.119 19.0261 54.7271 19.0261C54.3794 19.0261 53.8674 19.0008 53.1784 18.9439C52.4894 18.887 51.9711 18.8617 51.6298 18.8617C51.1431 18.8617 50.3087 19.0134 49.1267 19.3168V25.5493C49.1267 25.9349 48.975 26.2573 48.6716 26.5165C48.3681 26.7756 48.0268 26.902 47.6349 26.902C47.243 26.902 46.9396 26.7756 46.6994 26.5228C46.4592 26.2699 46.3391 25.9412 46.3391 25.5557V14.1652C46.3391 13.9061 46.3391 13.5142 46.3518 12.9895C46.3644 12.4649 46.3644 12.073 46.3644 11.8138C46.3644 11.4219 46.4971 11.0996 46.7563 10.8404C47.0155 10.5812 47.3505 10.4548 47.7424 10.4548C47.9952 10.4548 48.2164 10.5054 48.4061 10.6065C49.1772 10.4738 49.8789 10.379 50.5236 10.3158C51.1683 10.2526 51.7436 10.2209 52.2619 10.2209C53.0141 10.2209 53.9685 10.379 55.1126 10.6887C56.5475 11.0806 57.2681 11.5357 57.2681 12.0477C57.2681 12.427 57.1354 12.7493 56.8636 13.0211C56.5981 13.2929 56.2694 13.4257 55.8964 13.4257L55.9091 13.4194Z" fill="white"/>
<path d="M65.5802 26.4469C63.6207 26.4469 61.9519 25.8843 60.5739 24.7591C59.1012 23.5518 58.3679 21.9906 58.3679 20.0753C58.3679 17.825 59.0759 15.7707 60.4855 13.9123C62.072 11.8264 64.0631 10.7834 66.4714 10.7834C68.8797 10.7834 70.5169 11.3144 71.6673 12.3763C72.8177 13.4383 73.3992 15.0312 73.3992 17.155C73.3992 19.4053 72.7482 21.447 71.4524 23.28C69.9543 25.3912 68.0011 26.4532 65.5865 26.4532L65.5802 26.4469ZM66.4651 13.4825C64.986 13.4825 63.7218 14.1968 62.6662 15.6316C61.6801 16.9717 61.1871 18.4571 61.1871 20.0816C61.1871 21.1815 61.6169 22.0791 62.4702 22.768C63.292 23.4317 64.3286 23.7604 65.5802 23.7604C67.0403 23.7604 68.2539 23.0462 69.2274 21.6113C70.125 20.3092 70.5674 18.8237 70.5674 17.1613C70.5674 15.7707 70.2577 14.8036 69.6319 14.26C69.0377 13.7417 67.9758 13.4825 66.4588 13.4825H66.4651Z" fill="white"/>
<path d="M81.8314 26.4469C79.8719 26.4469 78.2031 25.8843 76.8252 24.7591C75.3524 23.5518 74.6191 21.9906 74.6191 20.0753C74.6191 17.825 75.3271 15.7707 76.7367 13.9123C78.3232 11.8264 80.3144 10.7834 82.7226 10.7834C85.1309 10.7834 86.7681 11.3144 87.9185 12.3763C89.0689 13.4383 89.6504 15.0312 89.6504 17.155C89.6504 19.4053 88.9994 21.447 87.7036 23.28C86.2055 25.3912 84.2523 26.4532 81.8377 26.4532L81.8314 26.4469ZM82.7163 13.4825C81.2372 13.4825 79.973 14.1968 78.9174 15.6316C77.9313 16.9717 77.4383 18.4571 77.4383 20.0816C77.4383 21.1815 77.8681 22.0791 78.7215 22.768C79.5432 23.4317 80.5798 23.7604 81.8314 23.7604C83.2915 23.7604 84.5052 23.0462 85.4786 21.6113C86.3762 20.3092 86.8186 18.8237 86.8186 17.1613C86.8186 15.7707 86.5089 14.8036 85.8831 14.26C85.289 13.7417 84.227 13.4825 82.71 13.4825H82.7163Z" fill="white"/>
<path d="M103.152 13.9251C102.634 13.9251 101.831 13.8871 100.737 13.8176C99.6819 13.7418 98.8791 13.7101 98.3229 13.7165C98.3482 14.4687 98.4366 15.815 98.5884 17.7493C98.7274 19.4559 98.7969 20.8086 98.7969 21.8073C98.7969 22.0349 98.8222 22.3699 98.8665 22.8124C98.9107 23.2548 98.936 23.5899 98.936 23.8174C98.936 24.3168 98.8285 24.7592 98.62 25.1575C98.3482 25.6695 97.9626 25.9223 97.4569 25.9223C97.0903 25.9223 96.7742 25.8085 96.4898 25.5746C96.1801 25.3155 96.022 24.9931 96.022 24.6012C96.022 24.5064 96.041 24.3673 96.0726 24.1777C96.1042 23.9881 96.1232 23.8427 96.1232 23.7479C96.1232 23.4445 96.1042 22.983 96.06 22.3636C96.0157 21.7504 95.9967 21.2827 95.9967 20.973C95.9967 20.088 95.9272 18.8807 95.7882 17.3637C95.6301 15.6191 95.5353 14.4181 95.51 13.7544H94.9917C93.5126 13.7544 92.3432 13.6469 91.4709 13.4383C90.7377 13.2614 90.3647 12.8252 90.3647 12.1362C90.3647 11.8012 90.4848 11.4915 90.725 11.2197C91.0032 10.8973 91.3698 10.7519 91.8186 10.7835C92.0525 10.7962 92.5771 10.8531 93.3988 10.9542C94.0562 11.03 94.5872 11.0617 94.9917 11.0617C95.3963 11.0617 96.0031 11.0553 96.8058 11.0427C97.6086 11.03 98.2154 11.0237 98.62 11.0237C99.1256 11.0237 99.8778 11.0617 100.883 11.1312C101.888 11.2007 102.646 11.2386 103.146 11.2386C103.544 11.2386 103.879 11.3651 104.145 11.6242C104.41 11.8834 104.549 12.1994 104.549 12.5787C104.549 12.9579 104.416 13.274 104.145 13.5395C103.879 13.7986 103.544 13.9314 103.146 13.9314L103.152 13.9251Z" fill="white"/>
<path d="M113.221 25.4546C111.679 26.0298 109.726 26.3205 107.368 26.3205C106.97 26.3205 106.616 26.1562 106.3 25.8212C105.984 25.4925 105.826 25.1385 105.826 24.7592V14.2222C105.807 13.7734 105.788 13.3183 105.775 12.8695C105.756 12.3575 105.775 11.9276 105.826 11.58C105.921 10.9542 106.496 10.5813 107.564 10.4485C108.07 10.3031 108.904 10.2273 110.067 10.2273C111.319 10.2273 112.52 10.6318 113.664 11.4409C115.01 12.3828 115.68 13.5585 115.68 14.968C115.68 15.7329 115.541 16.3713 115.263 16.8959C115.042 17.3194 114.663 17.7746 114.119 18.2549C114.764 18.5647 115.333 19.0388 115.826 19.6645C116.388 20.3662 116.673 21.0678 116.673 21.7631C116.673 22.6417 116.192 23.4824 115.231 24.2662C114.587 24.7908 113.917 25.1827 113.215 25.4482L113.221 25.4546ZM110.067 12.9264C109.214 12.9264 108.702 12.9327 108.525 12.9453L108.538 15.0502L108.525 17.1361C109.125 17.212 109.581 17.2309 109.884 17.2057C111.913 17.0476 112.924 16.3018 112.924 14.968C112.924 14.5003 112.627 14.0452 112.027 13.609C111.414 13.1539 110.756 12.9264 110.061 12.9264H110.067ZM111.23 19.949C110.63 19.949 109.726 19.9237 108.525 19.8794V23.5962C109.663 23.5393 110.902 23.3181 112.229 22.9388C113.392 22.6101 113.974 22.2498 113.961 21.8642C113.942 21.3522 113.569 20.9034 112.836 20.5052C112.267 20.1892 111.73 19.9995 111.224 19.949H111.23Z" fill="white"/>
<path d="M129.688 26.1436C129.163 26.1246 128.638 25.5051 128.107 24.2978C127.753 23.514 127.456 22.6164 127.204 21.5924C126.711 21.6683 125.914 21.7378 124.795 21.8137C123.746 21.8895 122.95 21.9717 122.387 22.0728C122.084 22.7998 121.553 23.8996 120.794 25.3598C120.503 25.8338 120.099 26.074 119.58 26.074C119.214 26.074 118.885 25.9476 118.594 25.7011C118.304 25.4546 118.158 25.1385 118.158 24.7529C118.158 24.4179 118.645 23.2675 119.612 21.3143C119.517 21.112 119.479 20.9161 119.492 20.7391C119.517 20.4231 119.84 20.1702 120.459 19.9932C121.401 18.3624 122.444 16.6747 123.601 14.9238C125.257 12.4144 126.274 11.1565 126.66 11.1565C127.387 11.1565 127.874 11.599 128.12 12.4776C128.253 13.1855 128.461 14.2475 128.746 15.6697C129.15 17.5786 129.643 19.7594 130.225 22.2182C130.269 22.4015 130.44 22.844 130.731 23.533C130.971 24.1019 131.091 24.5317 131.091 24.8161C131.091 25.2017 130.946 25.5241 130.661 25.7833C130.37 26.0424 130.048 26.1625 129.681 26.1499L129.688 26.1436ZM125.977 15.9478C125.459 16.8327 124.751 18.0464 123.841 19.576C124.138 19.5128 124.606 19.456 125.231 19.418C125.971 19.3738 126.439 19.3359 126.635 19.3106C126.477 18.4509 126.255 17.3321 125.977 15.9541V15.9478Z" fill="white"/>
<path d="M142.507 25.4672C141.723 25.8149 140.516 26.1183 138.878 26.3901C137.38 26.6429 136.154 26.7693 135.193 26.7693C133.569 26.7693 132.76 26.0551 132.76 24.6328C132.76 24.7466 132.823 23.6973 132.956 21.485C133.126 18.6089 133.215 15.4105 133.215 11.8834C133.215 11.5041 133.348 11.1818 133.607 10.9163C133.866 10.6508 134.201 10.5181 134.593 10.5181C134.985 10.5181 135.32 10.6508 135.585 10.9163C135.851 11.1818 135.983 11.5041 135.983 11.8834C135.983 15.4168 135.895 18.6658 135.718 21.643C135.661 22.174 135.598 22.9831 135.528 24.0766C137.096 24.0513 139.112 23.6657 141.571 22.9262C141.723 22.8819 141.868 22.8566 142.007 22.8566C142.425 22.8566 142.766 23.0083 143.019 23.3117C143.253 23.5835 143.366 23.887 143.366 24.2283C143.366 24.7972 143.076 25.2144 142.5 25.4735L142.507 25.4672Z" fill="white"/>
<path d="M153.72 25.4672C152.936 25.8149 151.729 26.1183 150.092 26.3901C148.594 26.6429 147.368 26.7693 146.407 26.7693C144.782 26.7693 143.973 26.0551 143.973 24.6328C143.973 24.7466 144.036 23.6973 144.169 21.485C144.34 18.6089 144.428 15.4105 144.428 11.8834C144.428 11.5041 144.561 11.1818 144.82 10.9163C145.079 10.6508 145.414 10.5181 145.806 10.5181C146.198 10.5181 146.533 10.6508 146.799 10.9163C147.064 11.1818 147.197 11.5041 147.197 11.8834C147.197 15.4168 147.108 18.6658 146.931 21.643C146.874 22.174 146.811 22.9831 146.742 24.0766C148.309 24.0513 150.326 23.6657 152.785 22.9262C152.936 22.8819 153.082 22.8566 153.221 22.8566C153.638 22.8566 153.979 23.0083 154.232 23.3117C154.466 23.5835 154.58 23.887 154.58 24.2283C154.58 24.7972 154.289 25.2144 153.714 25.4735L153.72 25.4672Z" fill="white"/>
<path d="M174.371 15.2587C173.777 15.2587 173.334 14.9426 173.05 14.3168C172.917 14.0197 172.784 13.8428 172.652 13.7795C172.55 13.7353 172.291 13.71 171.868 13.71C171.033 13.71 170.066 14.3611 168.973 15.6569C167.443 17.471 166.678 19.1713 166.678 20.7579C166.678 21.4785 166.918 22.098 167.405 22.6163C167.885 23.1346 168.467 23.3938 169.143 23.3938C169.82 23.3938 170.464 23.2231 171.141 22.8754C171.381 22.749 171.88 22.4267 172.652 21.902C173.17 21.5607 173.562 21.3837 173.827 21.3837C174.225 21.3837 174.56 21.5291 174.839 21.8198C175.098 22.0916 175.224 22.4014 175.224 22.7553C175.224 23.1472 175.053 23.4886 174.706 23.7793C172.885 25.3153 171.027 26.0865 169.137 26.0865C167.645 26.0865 166.387 25.5429 165.363 24.4557C164.384 23.4064 163.891 22.1738 163.891 20.7579C163.891 18.5392 164.864 16.27 166.805 13.9629C168.454 12.0033 170.142 11.0236 171.861 11.0236C172.152 11.0236 172.418 11.0362 172.652 11.0552C172.885 11.0742 173.094 11.1058 173.271 11.1437C173.562 10.8593 173.916 10.7139 174.327 10.7139C175.003 10.7139 175.42 11.0994 175.578 11.8769C175.692 12.4332 175.749 13.0842 175.749 13.8238C175.749 14.1525 175.654 14.4559 175.458 14.7277C175.205 15.088 174.845 15.265 174.365 15.265L174.371 15.2587Z" fill="white"/>
<path d="M186.349 25.4672C185.565 25.8149 184.358 26.1183 182.721 26.3901C181.223 26.6429 179.996 26.7693 179.036 26.7693C177.411 26.7693 176.602 26.0551 176.602 24.6328C176.602 24.7466 176.665 23.6973 176.798 21.485C176.969 18.6089 177.057 15.4105 177.057 11.8834C177.057 11.5041 177.19 11.1818 177.449 10.9163C177.708 10.6508 178.043 10.5181 178.435 10.5181C178.827 10.5181 179.162 10.6508 179.428 10.9163C179.693 11.1818 179.826 11.5041 179.826 11.8834C179.826 15.4168 179.737 18.6658 179.56 21.643C179.503 22.174 179.44 22.9831 179.371 24.0766C180.938 24.0513 182.955 23.6657 185.414 22.9262C185.565 22.8819 185.711 22.8566 185.85 22.8566C186.267 22.8566 186.608 23.0083 186.861 23.3117C187.095 23.5835 187.209 23.887 187.209 24.2283C187.209 24.7972 186.918 25.2144 186.343 25.4735L186.349 25.4672Z" fill="white"/>
<path d="M198.668 24.127C198.188 24.7844 197.6 25.328 196.918 25.7641C196.083 26.2951 195.224 26.5606 194.345 26.5606C192.657 26.5606 191.399 26.2445 190.578 25.6061C188.839 24.2597 187.973 21.921 187.973 18.5835C187.973 18.2674 187.992 17.7871 188.024 17.1613C188.056 16.5292 188.075 16.0551 188.075 15.7327C188.075 15.4799 188.075 15.1006 188.093 14.595C188.106 14.0893 188.112 13.71 188.112 13.4572C188.112 12.9389 188.207 12.4458 188.403 11.9844C188.662 11.3713 189.023 11.0678 189.484 11.0678C189.851 11.0678 190.167 11.1879 190.451 11.4155C190.755 11.662 190.906 11.9781 190.906 12.37C190.906 12.7619 190.906 13.2992 190.894 14.045C190.881 14.7972 190.881 15.3535 190.881 15.7327C190.881 16.0425 190.862 16.5165 190.83 17.1423C190.799 17.7744 190.78 18.2422 190.78 18.5519C190.78 19.5569 190.9 20.4924 191.14 21.3521C191.418 22.3824 191.823 23.103 192.36 23.5139C192.638 23.7288 193.302 23.8426 194.345 23.8552C196.096 23.8805 197.272 22.3887 197.885 19.3799C198.201 17.825 198.359 15.6379 198.359 12.8188C198.359 12.4458 198.466 12.0918 198.687 11.7442C198.985 11.2891 199.408 11.0615 199.958 11.0615C200.407 11.0615 200.748 11.2259 200.969 11.5609C201.14 11.8074 201.229 12.0792 201.229 12.3763C201.229 14.9932 201.108 17.0349 200.862 18.5013C200.489 20.7579 199.756 22.6353 198.662 24.127H198.668Z" fill="white"/>
<path d="M210.988 25.4546C209.446 26.0298 207.493 26.3205 205.135 26.3205C204.737 26.3205 204.383 26.1562 204.067 25.8212C203.751 25.4925 203.593 25.1385 203.593 24.7592V14.2222C203.574 13.7734 203.555 13.3183 203.542 12.8695C203.523 12.3575 203.542 11.9276 203.593 11.58C203.688 10.9542 204.263 10.5813 205.331 10.4485C205.837 10.3031 206.671 10.2273 207.834 10.2273C209.086 10.2273 210.287 10.6318 211.431 11.4409C212.777 12.3828 213.447 13.5585 213.447 14.968C213.447 15.7329 213.308 16.3713 213.03 16.8959C212.809 17.3194 212.429 17.7746 211.886 18.2549C212.531 18.5647 213.099 19.0388 213.599 19.6645C214.161 20.3662 214.446 21.0678 214.446 21.7631C214.446 22.6417 213.965 23.4824 213.005 24.2662C212.36 24.7908 211.69 25.1827 210.988 25.4482V25.4546ZM207.834 12.9264C206.981 12.9264 206.469 12.9327 206.292 12.9453L206.304 15.0502L206.292 17.1361C206.892 17.212 207.347 17.2309 207.651 17.2057C209.68 17.0476 210.691 16.3018 210.691 14.968C210.691 14.5003 210.394 14.0452 209.794 13.609C209.18 13.1539 208.523 12.9264 207.828 12.9264H207.834ZM208.997 19.949C208.397 19.949 207.493 19.9237 206.292 19.8794V23.5962C207.43 23.5393 208.668 23.3181 209.996 22.9388C211.159 22.6101 211.74 22.2498 211.728 21.8642C211.709 21.3522 211.336 20.9034 210.603 20.5052C210.034 20.1892 209.496 19.9995 208.991 19.949H208.997Z" fill="white"/>
<path d="M81.4081 237.378C80.9213 237.372 80.5168 237.201 80.1881 236.879C79.8594 236.556 79.6951 236.165 79.6951 235.703C79.6951 234.881 79.733 233.655 79.8088 232.012C79.8847 230.375 79.9289 229.142 79.9289 228.32C79.9289 227.41 79.91 226.045 79.8721 224.224C79.8341 222.404 79.8152 221.038 79.8152 220.128C79.8152 219.679 80.0301 219.231 80.4662 218.782C80.9024 218.333 81.3638 218.112 81.8568 218.112C82.1286 218.112 82.805 218.365 83.8985 218.877C85.169 219.483 85.9212 219.825 86.1614 219.901C88.5634 220.678 90.6114 221.885 92.3118 223.516C94.3345 225.457 95.3522 227.606 95.3522 229.964C95.3522 231.38 95.0045 232.732 94.3092 234.009C93.6139 235.311 92.6594 236.361 91.4458 237.144C90.0868 238.029 88.1715 238.472 85.7 238.472C85.0995 238.472 84.4105 238.383 83.633 238.213C82.6912 237.998 81.9453 237.72 81.4081 237.378ZM88.3169 224.736C87.5205 224.237 85.8138 223.447 83.2032 222.372V234.546C83.5256 234.749 83.8922 234.907 84.3031 235.008C84.7139 235.109 85.1754 235.16 85.6874 235.16C87.4572 235.16 88.7278 234.913 89.4989 234.42C90.2258 233.952 90.8074 233.32 91.2372 232.511C91.667 231.708 91.8819 230.874 91.8819 230.002C91.8819 227.966 90.6936 226.209 88.3169 224.724V224.736Z" fill="white"/>
<path d="M105.782 238.004C103.355 238.004 101.288 237.309 99.581 235.912C97.7606 234.42 96.8503 232.486 96.8503 230.122C96.8503 227.334 97.7226 224.793 99.4672 222.499C101.427 219.913 103.892 218.624 106.869 218.624C109.846 218.624 111.875 219.281 113.304 220.59C114.732 221.898 115.447 223.87 115.447 226.506C115.447 229.294 114.644 231.816 113.038 234.079C111.186 236.695 108.765 238.004 105.782 238.004ZM106.875 221.955C105.049 221.955 103.481 222.84 102.179 224.61C100.959 226.266 100.346 228.105 100.346 230.122C100.346 231.481 100.877 232.587 101.932 233.44C102.95 234.262 104.233 234.673 105.782 234.673C107.583 234.673 109.088 233.788 110.295 232.018C111.401 230.406 111.958 228.567 111.958 226.506C111.958 224.787 111.572 223.586 110.801 222.916C110.061 222.277 108.753 221.955 106.875 221.955Z" fill="white"/>
<path d="M131.597 237.625C130.952 237.599 130.294 236.835 129.643 235.336C129.207 234.369 128.834 233.257 128.525 231.993C127.918 232.081 126.925 232.176 125.547 232.264C124.252 232.353 123.259 232.46 122.57 232.587C122.191 233.491 121.54 234.843 120.604 236.658C120.244 237.245 119.745 237.542 119.106 237.542C118.658 237.542 118.247 237.391 117.886 237.081C117.526 236.771 117.343 236.379 117.343 235.905C117.343 235.488 117.943 234.066 119.138 231.651C119.024 231.398 118.974 231.158 118.993 230.937C119.024 230.545 119.422 230.235 120.187 230.014C121.35 227.998 122.646 225.906 124.075 223.744C126.123 220.634 127.387 219.085 127.861 219.085C128.765 219.085 129.365 219.629 129.669 220.722C129.833 221.601 130.092 222.916 130.446 224.673C130.946 227.037 131.559 229.736 132.279 232.776C132.336 233.004 132.545 233.548 132.905 234.401C133.202 235.109 133.348 235.634 133.348 235.988C133.348 236.462 133.171 236.86 132.81 237.182C132.45 237.505 132.052 237.656 131.597 237.637V237.625ZM127.008 225.008C126.369 226.108 125.484 227.606 124.365 229.496C124.732 229.414 125.307 229.35 126.085 229.3C127.001 229.243 127.583 229.199 127.817 229.167C127.621 228.099 127.349 226.715 127.008 225.008Z" fill="white"/>
<path d="M150.313 222.555C149.864 222.834 149.308 223.194 148.651 223.624C147.266 224.648 145.623 226.411 143.733 228.914C142.279 230.868 140.832 232.821 139.378 234.78L139.327 234.843C139.928 234.825 141.369 234.768 143.657 234.673C145.452 234.591 146.881 234.553 147.949 234.553C149.125 234.553 149.915 234.597 150.332 234.685C151.318 234.9 151.824 235.368 151.856 236.101C151.881 236.645 151.691 237.068 151.287 237.378C150.945 237.65 150.528 237.783 150.048 237.783C149.808 237.783 149.454 237.77 148.979 237.738C148.505 237.707 148.145 237.694 147.911 237.694C146.666 237.694 144.795 237.726 142.298 237.789C139.801 237.852 137.93 237.884 136.685 237.884C136.154 237.884 135.712 237.751 135.37 237.479C134.985 237.182 134.795 236.771 134.795 236.234C134.795 235.646 135.054 234.945 135.573 234.129C135.737 233.876 136.198 233.257 136.963 232.271C138.31 230.476 139.656 228.687 141.009 226.898C142.614 224.831 144.119 223.162 145.522 221.879C144.245 221.968 143.265 222.012 142.595 222.012H137.627C137.538 222.012 137.406 222.012 137.235 222.031C137.064 222.05 136.932 222.05 136.843 222.05C136.356 222.05 135.952 221.911 135.611 221.633C135.231 221.323 135.048 220.906 135.048 220.381C135.048 219.256 135.882 218.693 137.545 218.693C138.107 218.693 138.954 218.725 140.08 218.801C141.205 218.87 142.045 218.908 142.614 218.908C143.246 218.908 144.188 218.889 145.446 218.858C146.704 218.826 147.652 218.807 148.278 218.807C150.724 218.807 151.944 219.338 151.944 220.406C151.944 221.089 151.4 221.803 150.32 222.555H150.313Z" fill="white"/>
<path d="M163.606 222.72C163.214 222.72 162.133 222.606 160.37 222.379C160.256 223.889 160.199 225.893 160.199 228.39L160.186 233.914C161.274 233.889 162.386 233.876 163.518 233.876C164.011 233.876 164.415 234.041 164.744 234.369C165.066 234.698 165.231 235.09 165.231 235.551C165.231 236.013 165.066 236.405 164.731 236.727C164.403 237.05 163.985 237.214 163.48 237.214C163.012 237.214 162.304 237.227 161.368 237.246C160.433 237.264 159.725 237.277 159.257 237.277C158.701 237.277 157.873 237.347 156.767 237.492C155.661 237.637 154.833 237.707 154.276 237.707C153.777 237.707 153.353 237.543 153.025 237.22C152.696 236.898 152.525 236.506 152.525 236.045C152.525 235.583 152.696 235.191 153.044 234.863C153.391 234.534 153.827 234.369 154.352 234.369C154.946 234.369 155.73 234.306 156.704 234.186C156.685 233.219 156.678 231.367 156.678 228.63C156.678 226.399 156.76 224.275 156.925 222.246L154.257 222.322C153.764 222.322 153.353 222.164 153.018 221.841C152.683 221.519 152.519 221.127 152.519 220.647C152.519 220.166 152.677 219.768 152.993 219.465C153.284 219.186 153.651 219.028 154.074 218.984C154.776 218.921 155.989 218.883 157.721 218.883C159.276 218.883 161.286 219.054 163.739 219.401C164.719 219.54 165.205 220.109 165.205 221.102C165.205 221.626 165.016 222.044 164.636 222.341C164.327 222.593 163.973 222.72 163.581 222.72H163.606Z" fill="white"/>
<path d="M181.804 222.511C181.166 222.511 180.167 222.467 178.815 222.378C177.512 222.29 176.514 222.246 175.825 222.252C175.856 223.187 175.97 224.85 176.16 227.246C176.33 229.363 176.419 231.032 176.419 232.264C176.419 232.543 176.444 232.96 176.507 233.51C176.571 234.06 176.596 234.47 176.596 234.749C176.596 235.362 176.463 235.918 176.204 236.411C175.869 237.043 175.389 237.359 174.763 237.359C174.314 237.359 173.916 237.214 173.568 236.929C173.183 236.607 172.987 236.209 172.987 235.722C172.987 235.608 173.006 235.431 173.05 235.197C173.088 234.963 173.113 234.786 173.113 234.66C173.113 234.281 173.088 233.712 173.031 232.953C172.98 232.189 172.949 231.62 172.949 231.234C172.949 230.134 172.86 228.649 172.689 226.771C172.494 224.616 172.38 223.124 172.348 222.309H171.71C169.883 222.309 168.429 222.176 167.355 221.917C166.444 221.696 165.989 221.158 165.989 220.305C165.989 219.888 166.135 219.509 166.432 219.174C166.773 218.769 167.228 218.592 167.784 218.63C168.069 218.649 168.726 218.718 169.738 218.839C170.547 218.927 171.204 218.971 171.703 218.971C172.203 218.971 172.949 218.965 173.947 218.946C174.946 218.927 175.692 218.921 176.191 218.921C176.817 218.921 177.746 218.965 178.998 219.047C180.243 219.136 181.179 219.18 181.804 219.18C182.297 219.18 182.708 219.338 183.043 219.66C183.378 219.983 183.543 220.375 183.543 220.842C183.543 221.31 183.378 221.708 183.043 222.031C182.708 222.353 182.297 222.517 181.804 222.517V222.511Z" fill="white"/>
<path d="M199.149 70.0745L205.04 62.8053C205.249 62.5462 205.363 62.2238 205.363 61.8888V45.6123C205.363 44.8095 204.711 44.1521 203.902 44.1521H199.016C198.214 44.1521 197.556 44.8032 197.556 45.6123V52.1734H192.531V45.6123C192.531 44.8095 191.88 44.1521 191.071 44.1521H185.085C184.282 44.1521 183.625 44.8032 183.625 45.6123V52.1734H178.517V45.6123C178.517 44.8095 177.866 44.1521 177.057 44.1521H171.16C170.357 44.1521 169.7 44.8032 169.7 45.6123V52.1734H164.845V45.6123C164.845 44.8095 164.194 44.1521 163.385 44.1521H157.235C156.432 44.1521 155.774 44.8032 155.774 45.6123V62.1353C155.774 62.483 155.901 62.8243 156.128 63.0835L162.152 70.0745C162.152 70.0745 162.146 70.1314 162.146 70.1566V102.773L156.154 116.73C155.958 117.178 156.008 117.697 156.274 118.101C156.546 118.512 157.001 118.752 157.487 118.752H203.624C204.111 118.752 204.566 118.512 204.838 118.101C205.11 117.697 205.154 117.185 204.964 116.723L198.972 102.925V70.2199C199.023 70.1693 199.079 70.125 199.124 70.0681L199.149 70.0745ZM197.809 68.7155H197.645C197.607 68.7155 197.575 68.7028 197.543 68.7028H163.625C163.587 68.7028 163.556 68.7091 163.524 68.7155H163.511L158.72 63.1593H202.316L197.809 68.7155ZM184.415 92.8869H177.986C178.258 92.8869 178.479 92.6657 178.479 92.3939V87.7859H183.922V92.3939C183.922 92.6657 184.143 92.8869 184.415 92.8869ZM164.068 87.7859H169.921V92.3939C169.921 92.6657 170.142 92.8869 170.414 92.8869H164.061V87.7796L164.068 87.7859ZM178.473 85.9275V79.5623H183.915V85.9275H178.473ZM169.927 85.9275H164.074V79.5623H169.927V85.9275ZM176.943 102.988V109.246H161.463L164.15 102.988H176.943ZM185.496 102.988H196.956L199.674 109.246H185.496V102.988ZM185.496 101.092V98.0954C185.496 97.8236 185.274 97.6024 185.003 97.6024H177.436C177.165 97.6024 176.943 97.8236 176.943 98.0954V101.092H164.068V94.7453H197.101V101.092H185.489H185.496ZM197.101 92.8869H191.975C192.247 92.8869 192.468 92.6657 192.468 92.3939V87.7859H197.101V92.8932V92.8869ZM192.468 85.9275V79.5623H197.101V85.9275H192.468ZM192.468 77.7102V74.2084C192.468 73.9366 192.247 73.7154 191.975 73.7154H184.408C184.137 73.7154 183.915 73.9366 183.915 74.2084V77.7102H178.473V74.2084C178.473 73.9366 178.252 73.7154 177.98 73.7154H170.414C170.142 73.7154 169.921 73.9366 169.921 74.2084V77.7102H164.068V70.6118H197.101V77.7102H192.468ZM162.974 46.0484V52.6096C162.974 53.4123 163.625 54.0697 164.434 54.0697H170.167C170.97 54.0697 171.627 53.4187 171.627 52.6096V46.0484H176.653V52.6096C176.653 53.4123 177.304 54.0697 178.113 54.0697H184.099C184.902 54.0697 185.559 53.4187 185.559 52.6096V46.0484H190.666V52.6096C190.666 53.4123 191.317 54.0697 192.126 54.0697H198.024C198.827 54.0697 199.484 53.4187 199.484 52.6096V46.0484H203.492V61.3009H157.715V46.0484H162.993H162.974ZM160.661 111.098H176.937V116.862H158.183L160.654 111.098H160.661ZM185.496 116.862V111.098H200.483L202.986 116.862H185.496Z" fill="white"/>
<path d="M101.54 70.0745L107.432 62.8053C107.64 62.5462 107.754 62.2238 107.754 61.8888V45.6123C107.754 44.8095 107.103 44.1521 106.294 44.1521H101.408C100.605 44.1521 99.9475 44.8032 99.9475 45.6123V52.1734H94.9223V45.6123C94.9223 44.8095 94.2713 44.1521 93.4622 44.1521H87.4762C86.6734 44.1521 86.016 44.8032 86.016 45.6123V52.1734H80.9087V45.6123C80.9087 44.8095 80.2576 44.1521 79.4485 44.1521H73.5511C72.7483 44.1521 72.0909 44.8032 72.0909 45.6123V52.1734H67.2364V45.6123C67.2364 44.8095 66.5853 44.1521 65.7762 44.1521H59.6259C58.8232 44.1521 58.1658 44.8032 58.1658 45.6123V62.1353C58.1658 62.483 58.2922 62.8243 58.5197 63.0835L64.5436 70.0745C64.5436 70.0745 64.5373 70.1314 64.5373 70.1566V102.773L58.545 116.73C58.3491 117.178 58.3996 117.697 58.6651 118.101C58.9369 118.512 59.392 118.752 59.8788 118.752H106.016C106.502 118.752 106.957 118.512 107.229 118.101C107.501 117.697 107.545 117.185 107.356 116.723L101.363 102.925V70.2199C101.414 70.1693 101.471 70.125 101.515 70.0681L101.54 70.0745ZM100.2 68.7155H100.036C99.9981 68.7155 99.9665 68.7028 99.9349 68.7028H66.0164C65.9785 68.7028 65.9469 68.7091 65.9153 68.7155H65.9027L61.1114 63.1593H104.707L100.2 68.7155ZM86.7998 92.8869H80.3714C80.6432 92.8869 80.8644 92.6657 80.8644 92.3939V87.7859H86.3068V92.3939C86.3068 92.6657 86.528 92.8869 86.7998 92.8869ZM66.4589 87.7859H72.3121V92.3939C72.3121 92.6657 72.5334 92.8869 72.8052 92.8869H66.4526V87.7796L66.4589 87.7859ZM80.8644 85.9275V79.5623H86.3068V85.9275H80.8644ZM72.3121 85.9275H66.4589V79.5623H72.3121V85.9275ZM79.3284 102.988V109.246H63.8483L66.5348 102.988H79.3284ZM87.8807 102.988H99.3407L102.059 109.246H87.8807V102.988ZM87.8807 101.092V98.0954C87.8807 97.8236 87.6595 97.6024 87.3877 97.6024H79.8215C79.5497 97.6024 79.3284 97.8236 79.3284 98.0954V101.092H66.4526V94.7453H99.4861V101.092H87.8744H87.8807ZM99.4924 92.8869H94.3661C94.6379 92.8869 94.8591 92.6657 94.8591 92.3939V87.7859H99.4924V92.8932V92.8869ZM94.8591 85.9275V79.5623H99.4924V85.9275H94.8591ZM94.8591 77.7102V74.2084C94.8591 73.9366 94.6379 73.7154 94.3661 73.7154H86.7998C86.528 73.7154 86.3068 73.9366 86.3068 74.2084V77.7102H80.8644V74.2084C80.8644 73.9366 80.6432 73.7154 80.3714 73.7154H72.8052C72.5334 73.7154 72.3121 73.9366 72.3121 74.2084V77.7102H66.4589V70.6118H99.4924V77.7102H94.8591ZM65.3654 46.0484V52.6096C65.3654 53.4123 66.0164 54.0697 66.8255 54.0697H72.5587C73.3614 54.0697 74.0188 53.4187 74.0188 52.6096V46.0484H79.044V52.6096C79.044 53.4123 79.6951 54.0697 80.5041 54.0697H86.4901C87.2929 54.0697 87.9503 53.4187 87.9503 52.6096V46.0484H93.0576V52.6096C93.0576 53.4123 93.7087 54.0697 94.5178 54.0697H100.415C101.218 54.0697 101.875 53.4187 101.875 52.6096V46.0484H105.883V61.3009H60.0874V46.0484H65.3654ZM63.0519 111.098H79.3284V116.862H60.5741L63.0456 111.098H63.0519ZM87.8807 116.862V111.098H102.868L105.371 116.862H87.8807Z" fill="white"/>
<path d="M150.313 144.352L156.204 137.083C156.413 136.824 156.527 136.502 156.527 136.167V119.89C156.527 119.087 155.876 118.43 155.066 118.43H150.18C149.378 118.43 148.72 119.081 148.72 119.89V126.451H143.695V119.89C143.695 119.087 143.044 118.43 142.235 118.43H136.249C135.446 118.43 134.789 119.081 134.789 119.89V126.451H129.681V119.89C129.681 119.087 129.03 118.43 128.221 118.43H122.324C121.521 118.43 120.864 119.081 120.864 119.89V126.451H116.009V119.89C116.009 119.087 115.358 118.43 114.549 118.43H108.399C107.596 118.43 106.938 119.081 106.938 119.89V136.413C106.938 136.761 107.065 137.102 107.292 137.361L113.316 144.352C113.316 144.352 113.31 144.409 113.31 144.434V177.051L107.318 191.007C107.122 191.456 107.172 191.975 107.438 192.379C107.71 192.79 108.165 193.03 108.651 193.03H154.788C155.275 193.03 155.73 192.79 156.002 192.379C156.274 191.975 156.318 191.463 156.128 191.001L150.136 177.202V144.498C150.187 144.447 150.244 144.403 150.288 144.346L150.313 144.352ZM148.973 143H148.809C148.771 143 148.739 142.987 148.708 142.987H114.789C114.751 142.987 114.72 142.993 114.688 143H114.675L109.884 137.443H153.48L148.973 143ZM135.579 167.171H129.15C129.422 167.171 129.643 166.95 129.643 166.678V162.07H135.086V166.678C135.086 166.95 135.307 167.171 135.579 167.171ZM115.232 162.064H121.085V166.672C121.085 166.944 121.306 167.165 121.578 167.165H115.225V162.057L115.232 162.064ZM129.637 160.205V153.84H135.08V160.205H129.637ZM121.091 160.205H115.238V153.84H121.091V160.205ZM128.107 177.266V183.523H112.627L115.314 177.266H128.107ZM136.66 177.266H148.12L150.838 183.523H136.66V177.266ZM136.66 175.369V172.373C136.66 172.101 136.439 171.88 136.167 171.88H128.6C128.329 171.88 128.107 172.101 128.107 172.373V175.369H115.232V169.023H148.265V175.369H136.653H136.66ZM148.265 167.171H143.139C143.411 167.171 143.632 166.95 143.632 166.678V162.07H148.265V167.177V167.171ZM143.632 160.205V153.84H148.265V160.205H143.632ZM143.632 151.988V148.486C143.632 148.214 143.411 147.993 143.139 147.993H135.573C135.301 147.993 135.08 148.214 135.08 148.486V151.988H129.637V148.486C129.637 148.214 129.416 147.993 129.144 147.993H121.578C121.306 147.993 121.085 148.214 121.085 148.486V151.988H115.232V144.89H148.265V151.988H143.632ZM114.138 120.333V126.894C114.138 127.696 114.789 128.354 115.598 128.354H121.331C122.134 128.354 122.792 127.703 122.792 126.894V120.333H127.817V126.894C127.817 127.696 128.468 128.354 129.277 128.354H135.263C136.066 128.354 136.723 127.703 136.723 126.894V120.333H141.83V126.894C141.83 127.696 142.481 128.354 143.29 128.354H149.188C149.991 128.354 150.648 127.703 150.648 126.894V120.333H154.656V135.585H108.879V120.333H114.157H114.138ZM111.825 185.382H128.101V191.147H109.347L111.818 185.382H111.825ZM136.66 191.147V185.382H151.647L154.15 191.147H136.66Z" fill="white"/>
</svg>
