<svg width="256" height="256" viewBox="0 0 256 256" fill="none" xmlns="http://www.w3.org/2000/svg">
<path d="M227.559 127.827C227.559 181.23 186.026 224.939 133.416 228.401C131.253 228.574 129.004 228.574 126.754 228.574C125.888 228.574 125.11 228.574 124.331 228.574C69.8182 227.275 26.0349 182.614 26.0349 127.827C26.0349 73.0391 71.1161 27.0798 126.84 27.0798C182.564 27.0798 227.646 72.1736 227.646 127.913L227.559 127.827Z" fill="black"/>
<path d="M3.62423 140.29L3.45117 136.742L15.9978 135.963L15.5651 128.173L18.5071 128L19.1993 139.338L3.71076 140.29H3.62423Z" fill="#010101"/>
<path d="M15.8247 116.402L15.3055 123.586L18.507 125.23L18.2475 128.866L3.27808 120.903L3.53766 117.354L19.5454 111.469L19.2858 115.19L15.9112 116.315L15.8247 116.402ZM13.0558 117.354L6.99879 119.431L12.7962 122.288L13.1423 117.354H13.0558Z" fill="#010101"/>
<path d="M16.0842 96.4084C16.8629 96.0622 17.6417 95.9756 18.5935 96.1487C19.8914 96.4084 20.8432 97.1873 21.3624 98.3991C21.8816 99.6108 21.8816 101.169 21.4489 103.159L19.7184 111.036L4.57593 107.747L6.21996 100.303C6.65261 98.4856 7.2583 97.1008 8.21011 96.2353C9.16192 95.3697 10.2003 95.1101 11.4117 95.3697C12.1904 95.5428 12.7961 95.8891 13.2288 96.3218C13.7479 96.8411 14.094 97.3604 14.2671 98.1394C14.6997 97.3604 15.3054 96.7546 16.0842 96.4084ZM7.95053 104.804L11.4982 105.583L12.2769 102.121C12.45 101.255 12.45 100.563 12.2769 100.044C12.1039 99.5243 11.6712 99.178 11.0655 99.0915C10.4598 99.0049 9.94068 99.0915 9.59456 99.4377C9.16192 99.7839 8.90234 100.476 8.72928 101.342L7.95053 104.804ZM18.68 100.649C18.507 100.13 18.0743 99.7839 17.3821 99.6108C16.0842 99.3511 15.3054 100.13 14.8728 102.034L14.0075 106.102L17.7282 106.881L18.5935 102.813C18.7666 101.861 18.7666 101.169 18.5935 100.649H18.68Z" fill="#010101"/>
<path d="M26.7271 86.2816L21.622 87.5799V87.753L20.4971 90.6958L24.5639 92.1672L23.266 95.5427L8.72925 90.0899L11.0655 83.7716C11.5847 82.4733 12.1904 81.4347 12.9691 80.6557C13.7479 79.8768 14.6132 79.3575 15.6515 79.1843C16.6033 78.9247 17.6417 79.0978 18.7665 79.444C19.8049 79.8768 20.6701 80.4826 21.2758 81.2616C21.8815 82.0406 22.2277 82.9926 22.2277 84.1178L28.1116 82.6464L26.7271 86.2816ZM15.3054 82.9926C14.6997 83.3389 14.1805 84.0313 13.7479 85.0699L12.7095 87.8396L17.8147 89.7437L18.8531 86.9741C19.1992 85.9354 19.2857 85.0699 19.0261 84.3775C18.7665 83.6851 18.2474 83.1657 17.4686 82.9061C16.6898 82.5599 15.9111 82.6464 15.3054 82.9926Z" fill="#010101"/>
<path d="M15.1323 74.3374L16.6898 71.135L30.6209 78.0592L29.0634 81.2616L15.1323 74.3374Z" fill="#010101"/>
<path d="M22.9199 65.9419L20.324 70.1829L17.8147 68.625L24.91 57.1135L27.4193 58.6715L24.8235 62.9125L35.553 69.4905L33.6494 72.5198L22.9199 65.9419Z" fill="#010101"/>
<path d="M39.6198 43.8709L42.5618 46.7271L47.5804 41.6205L49.6571 43.6112L44.6385 48.7178L48.7053 52.6992L46.196 55.2958L35.1204 44.3902L43.3405 35.9946L45.4172 37.9853L39.7064 43.7843L39.6198 43.8709Z" fill="#010101"/>
<path d="M57.1851 43.5248C55.7141 43.7845 54.3297 43.6114 53.0317 43.092C51.7338 42.5727 50.6089 41.7072 49.6571 40.4955C48.7053 39.2837 48.1862 37.9855 48.0131 36.6006C47.84 35.2158 48.0131 33.8309 48.7053 32.4461C49.311 31.1478 50.2628 29.9361 51.4742 28.984C52.7722 28.0319 54.0701 27.4261 55.5411 27.1664C57.012 26.9068 58.3965 27.0799 59.6944 27.5992C60.9923 28.1185 62.1172 28.984 63.069 30.1957C64.0208 31.4075 64.54 32.7058 64.713 34.0906C64.8861 35.4754 64.713 36.8603 64.0208 38.2451C63.4151 39.5434 62.4633 40.7551 61.2519 41.7072C59.954 42.6593 58.6561 43.2652 57.1851 43.5248ZM60.9923 37.2065C61.3384 36.4275 61.425 35.562 61.2519 34.783C61.1654 33.9175 60.7327 33.1385 60.2136 32.3596C59.6079 31.5806 58.9157 31.0613 58.1369 30.7151C57.3582 30.3689 56.4929 30.2823 55.7141 30.3689C54.8488 30.4554 54.0701 30.8016 53.3779 31.4075C52.6856 32.0133 52.1665 32.6192 51.8203 33.3982C51.4742 34.1772 51.3877 35.0427 51.5608 35.8216C51.6473 36.6872 52.0799 37.4661 52.5991 38.2451C53.2048 39.0241 53.897 39.5434 54.6758 39.8896C55.4545 40.2358 56.3198 40.3224 57.0986 40.2358C57.8773 40.1493 58.7426 39.8031 59.4348 39.1972C60.1271 38.5913 60.6462 37.9855 60.9923 37.2065Z" fill="#010101"/>
<path d="M77.8655 30.7151L73.1064 28.3781H72.9333L70.1644 30.0226L72.2411 33.8309L69.1261 35.562L61.5981 21.9733L67.4821 18.6843C68.6935 17.9919 69.8183 17.6456 70.9432 17.5591C72.0681 17.4725 73.0199 17.6456 73.9717 18.165C74.837 18.5977 75.6157 19.3767 76.1349 20.4153C76.6541 21.454 76.9136 22.406 76.8271 23.4447C76.7406 24.4833 76.3945 25.3488 75.7022 26.3009L81.1535 28.984L77.7789 30.8882L77.8655 30.7151ZM71.2893 20.7615C70.5971 20.5884 69.7318 20.7615 68.78 21.3674L66.1841 22.7522L68.78 27.5126L71.3758 26.1278C72.3276 25.6085 72.9333 25.0026 73.1929 24.3102C73.4525 23.6178 73.366 22.9253 72.9333 22.1464C72.5007 21.3674 71.9815 20.9346 71.2028 20.7615H71.2893Z" fill="#010101"/>
<path d="M92.8349 21.1943L93.8732 23.8775L82.7111 28.2916L77.0002 13.8374L87.9028 9.50977L88.9411 12.1929L81.3267 15.1357L82.538 18.2516L89.2872 15.655L90.3256 18.2516L83.5764 20.8481L84.8743 24.2237L92.7484 21.1078L92.8349 21.1943Z" fill="#010101"/>
<path d="M97.1612 22.7523C95.9498 22.7523 94.998 22.4927 94.1327 22.1465L94.6519 19.2037C95.4307 19.5499 96.2959 19.723 97.2477 19.723C98.1995 19.723 99.1514 19.723 100.017 19.4633C100.968 19.2037 101.661 18.8575 102.093 18.4247C102.526 17.992 102.612 17.5592 102.526 17.0399C102.439 16.6937 102.18 16.434 101.92 16.2609C101.574 16.0878 101.142 16.0012 100.709 16.0012C100.276 16.0012 99.584 16.0012 98.8052 16.0012C97.5939 16.0012 96.5555 16.0012 95.7768 15.9147C94.998 15.9147 94.2193 15.5685 93.527 15.0492C92.8348 14.6164 92.4022 13.8374 92.1426 12.7988C91.883 11.9333 91.9695 11.0678 92.2291 10.2022C92.4887 9.33671 93.0944 8.6443 93.9597 7.95188C94.8249 7.25946 95.9498 6.8267 97.3343 6.48049C98.2861 6.22083 99.2379 6.13428 100.276 6.13428C101.228 6.13428 102.18 6.22083 102.959 6.48049L102.526 9.42327C100.968 8.9905 99.4109 8.90395 98.0265 9.33671C97.0747 9.59637 96.3825 9.94258 95.9498 10.3753C95.6037 10.8081 95.4306 11.2409 95.6037 11.7602C95.7768 12.2795 96.1229 12.6257 96.7286 12.7123C97.3343 12.7988 98.1995 12.8854 99.4109 12.7988C100.622 12.7988 101.661 12.7988 102.439 12.8854C103.218 12.9719 103.997 13.2316 104.689 13.6643C105.381 14.0971 105.814 14.8761 106.074 15.8281C106.333 16.6937 106.247 17.5592 105.987 18.3382C105.728 19.2037 105.122 19.8961 104.257 20.5885C103.391 21.2809 102.266 21.7137 100.882 22.0599C99.6705 22.3196 98.5457 22.4927 97.3343 22.4927L97.1612 22.7523Z" fill="#010101"/>
<path d="M109.881 7.43258L104.949 8.125L104.603 5.18222L118.014 3.45117L118.361 6.39395L113.428 7.08637L115.072 19.5499L111.525 19.9827L109.881 7.51913V7.43258Z" fill="#010101"/>
<path d="M137.57 6.4804L137.224 10.5484L144.406 11.2408L144.146 14.097L136.964 13.4046L136.445 19.0305L132.897 18.6843L134.368 3.19141L146.05 4.31659L145.79 7.17281L137.657 6.39384L137.57 6.4804Z" fill="#010101"/>
<path d="M148.992 19.8961C147.867 18.944 147.088 17.7323 146.655 16.434C146.223 15.0492 146.223 13.6643 146.569 12.1929C146.915 10.7216 147.607 9.42327 148.559 8.47119C149.511 7.51912 150.722 6.74014 152.193 6.39393C153.578 6.04772 155.135 6.04772 156.693 6.39393C158.25 6.74014 159.548 7.43256 160.673 8.38464C161.798 9.33671 162.49 10.5484 163.009 11.8467C163.442 13.2316 163.528 14.6164 163.182 16.0878C162.836 17.5592 162.144 18.8575 161.192 19.8095C160.154 20.8482 158.942 21.5406 157.558 21.8868C156.173 22.233 154.616 22.233 153.058 21.8868C151.501 21.5406 150.116 20.8482 149.078 19.8961H148.992ZM156.26 18.944C157.039 18.6844 157.817 18.2516 158.337 17.6457C158.942 17.0399 159.288 16.2609 159.548 15.3088C159.808 14.3568 159.721 13.4912 159.548 12.6257C159.288 11.7602 158.856 11.0678 158.25 10.5484C157.644 10.0291 156.866 9.59637 156 9.33671C155.135 9.07706 154.27 9.16361 153.405 9.33671C152.626 9.59637 151.847 10.0291 151.328 10.635C150.722 11.2409 150.376 12.0198 150.116 12.9719C149.857 13.924 149.943 14.7895 150.116 15.655C150.376 16.5206 150.809 17.213 151.414 17.7323C152.02 18.2516 152.799 18.6844 153.664 18.944C154.529 19.1171 155.395 19.1171 156.26 18.944Z" fill="#010101"/>
<path d="M165.864 24.6565C164.913 23.5313 164.394 22.233 164.134 20.8482C163.961 19.4633 164.134 17.9919 164.74 16.6071C165.345 15.2223 166.211 14.0971 167.335 13.2316C168.46 12.366 169.758 11.9333 171.229 11.7602C172.7 11.5871 174.171 11.8467 175.642 12.4526C177.113 13.0584 178.325 13.924 179.276 15.0492C180.228 16.1743 180.747 17.4726 181.007 18.8575C181.18 20.2423 181.007 21.7137 180.488 23.0985C179.882 24.4834 179.017 25.6085 177.892 26.4741C176.767 27.3396 175.469 27.7724 173.998 27.9455C172.527 28.1186 171.056 27.8589 169.585 27.253C168.114 26.6472 166.903 25.7816 165.951 24.6565H165.864ZM173.219 24.8296C174.085 24.743 174.863 24.3968 175.469 23.8775C176.075 23.3582 176.681 22.6658 177.027 21.7137C177.373 20.8482 177.546 19.9826 177.459 19.1171C177.373 18.2516 177.027 17.4726 176.507 16.7802C175.988 16.0878 175.296 15.5685 174.431 15.2223C173.565 14.876 172.7 14.7895 171.921 14.8761C171.056 14.9626 170.277 15.3088 169.672 15.8281C168.979 16.3474 168.46 17.0399 168.114 17.9919C167.768 18.8575 167.595 19.723 167.682 20.5885C167.768 21.454 168.114 22.233 168.633 22.9254C169.153 23.6178 169.845 24.1372 170.71 24.4834C171.575 24.8296 172.441 24.9161 173.219 24.8296Z" fill="#010101"/>
<path d="M187.843 21.9732L183.603 19.4631L185.074 16.9531L196.755 23.7908L195.284 26.3008L191.044 23.7908L184.641 34.6098L181.526 32.7922L187.929 21.9732H187.843Z" fill="#010101"/>
<path d="M204.283 40.6686C204.283 41.5342 203.937 42.3131 203.418 43.0056C202.552 44.0442 201.514 44.5635 200.216 44.477C198.918 44.477 197.534 43.7845 195.89 42.4862L189.573 37.5528L199.091 25.3489L205.062 30.0227C206.533 31.1479 207.485 32.3596 207.831 33.5714C208.177 34.7831 208.004 35.8217 207.225 36.8603C206.792 37.4662 206.187 37.899 205.581 38.1586C204.889 38.4183 204.283 38.4183 203.504 38.3317C204.023 39.1107 204.283 39.8897 204.283 40.7552V40.6686ZM199.264 41.2745C199.87 41.2745 200.303 41.1014 200.735 40.5821C201.514 39.5435 201.168 38.5048 199.697 37.2931L196.409 34.6965L194.073 37.7259L197.361 40.3224C198.14 40.9283 198.745 41.188 199.351 41.2745H199.264ZM200.216 29.763L197.966 32.6193L200.822 34.7831C201.514 35.3024 202.12 35.6486 202.726 35.6486C203.245 35.6486 203.764 35.4755 204.11 34.9562C204.456 34.4369 204.543 34.0041 204.37 33.4848C204.197 32.9655 203.764 32.4462 203.072 31.9269L200.216 29.763Z" fill="#010101"/>
<path d="M211.378 52.6127L206.36 47.4196L202.985 48.7178L200.476 46.0347L216.484 40.3223L218.906 42.9188L212.503 58.6714L209.907 55.9882L211.378 52.6993V52.6127ZM212.59 49.9296L215.186 44.044L209.215 46.3809L212.59 49.9296Z" fill="#010101"/>
<path d="M225.309 50.1027L227.473 52.9589L217.349 60.4024L221.935 66.6342L219.599 68.3652L212.849 59.1907L225.309 50.0161V50.1027Z" fill="#010101"/>
<path d="M233.53 61.7874L235.347 64.9032L224.444 71.135L228.338 77.8861L225.829 79.3575L220.204 69.4905L233.703 61.7874H233.53Z" fill="#010101"/>
<path d="M230.415 88.3589C230.674 86.8875 231.193 85.6758 232.145 84.5506C233.097 83.4254 234.222 82.6465 235.693 82.1272C237.164 81.6078 238.548 81.5213 239.933 81.7809C241.317 82.0406 242.529 82.733 243.653 83.6851C244.692 84.6372 245.557 85.9355 246.076 87.4069C246.509 88.7051 246.682 89.9169 246.595 91.0421C246.595 92.2538 246.163 93.2924 245.557 94.331L242.788 92.8597C243.567 91.4748 243.74 90.0034 243.221 88.532C242.875 87.6665 242.442 86.8875 241.75 86.2817C241.058 85.6758 240.365 85.3296 239.5 85.243C238.635 85.0699 237.769 85.243 236.904 85.5027C236.039 85.8489 235.26 86.2817 234.654 86.9741C234.049 87.6665 233.703 88.3589 233.616 89.2245C233.443 90.09 233.616 90.9555 233.876 91.821C234.395 93.2924 235.433 94.331 236.904 94.8504L235.693 97.7066C234.568 97.2738 233.616 96.668 232.837 95.8024C232.059 94.9369 231.366 93.8983 230.934 92.6C230.415 91.1286 230.242 89.6572 230.501 88.1858L230.415 88.3589Z" fill="#010101"/>
<path d="M248.586 96.8411L249.364 100.39L237.077 103.073L238.721 110.689L235.866 111.295L233.443 100.13L248.586 96.8411Z" fill="#010101"/>
<path d="M237.683 113.632C238.808 112.334 240.539 111.555 242.788 111.382L251.441 110.689L251.701 114.238L243.134 114.931C240.365 115.19 239.068 116.402 239.241 118.739C239.327 119.864 239.76 120.643 240.452 121.249C241.144 121.768 242.269 122.028 243.654 121.855L252.22 121.162L252.479 124.711L243.827 125.403C241.577 125.576 239.76 125.144 238.462 124.019C237.164 122.893 236.385 121.249 236.212 118.998C236.039 116.748 236.472 115.017 237.597 113.719L237.683 113.632Z" fill="#010101"/>
<path d="M242.875 142.194C242.183 142.627 241.404 142.887 240.366 142.8C238.981 142.8 238.029 142.108 237.337 140.983C236.645 139.858 236.385 138.3 236.558 136.309L237.077 128.26L252.566 129.212L252.047 136.742C251.96 138.646 251.441 140.031 250.662 140.983C249.884 141.935 248.845 142.368 247.634 142.281C246.855 142.281 246.249 142.021 245.644 141.589C245.038 141.156 244.605 140.637 244.346 139.944C244 140.81 243.481 141.502 242.788 141.935L242.875 142.194ZM239.673 138.473C239.933 138.992 240.452 139.252 241.058 139.252C242.356 139.252 243.048 138.386 243.134 136.482L243.394 132.327L239.587 132.068L239.327 136.222C239.327 137.174 239.327 137.867 239.673 138.386V138.473ZM249.624 132.76L245.99 132.501L245.73 136.049C245.73 136.915 245.73 137.607 246.076 138.126C246.422 138.646 246.769 138.905 247.374 138.905C247.98 138.905 248.413 138.732 248.759 138.3C249.105 137.867 249.278 137.174 249.364 136.309L249.624 132.76Z" fill="#010101"/>
<path d="M111.698 248.827L111.179 251.683L99.6704 249.606L100.103 247.356L106.939 242.855C107.631 242.336 108.15 241.903 108.496 241.557C108.756 241.124 109.015 240.778 109.015 240.345C109.102 239.739 109.015 239.22 108.669 238.787C108.323 238.354 107.718 238.095 106.939 238.008C106.247 237.921 105.641 237.921 105.035 238.008C104.429 238.095 103.91 238.441 103.478 238.874L101.228 236.796C102.007 236.017 102.958 235.498 104.083 235.152C105.208 234.806 106.506 234.806 107.804 235.065C108.929 235.238 109.881 235.585 110.659 236.19C111.438 236.796 112.044 237.316 112.39 238.095C112.736 238.874 112.823 239.652 112.65 240.605C112.477 241.47 112.217 242.163 111.698 242.855C111.179 243.547 110.4 244.24 109.189 245.019L105.122 247.702L111.698 248.827Z" fill="#010101"/>
<path d="M116.716 251.51C115.765 250.818 114.986 249.866 114.553 248.654C114.034 247.442 113.861 245.971 113.948 244.326C114.034 242.682 114.38 241.21 115.072 240.085C115.678 238.873 116.543 238.008 117.582 237.489C118.62 236.883 119.745 236.623 121.043 236.71C122.341 236.71 123.466 237.142 124.417 237.835C125.369 238.527 126.148 239.479 126.581 240.691C127.013 241.903 127.273 243.374 127.186 245.019C127.1 246.663 126.754 248.135 126.061 249.26C125.456 250.471 124.59 251.337 123.552 251.856C122.514 252.462 121.389 252.722 120.091 252.635C118.793 252.635 117.668 252.202 116.716 251.51ZM122.6 248.567C123.206 247.788 123.552 246.577 123.639 244.846C123.725 243.114 123.552 241.903 123.033 241.037C122.514 240.172 121.822 239.739 120.87 239.739C119.918 239.739 119.226 240.085 118.62 240.864C118.014 241.643 117.668 242.855 117.582 244.586C117.495 246.317 117.668 247.529 118.187 248.394C118.707 249.26 119.399 249.692 120.351 249.692C121.302 249.692 122.081 249.346 122.6 248.567Z" fill="#010101"/>
<path d="M140.685 249.087L140.858 252.029L129.177 252.722L129.003 250.385L134.628 244.326C135.234 243.72 135.58 243.114 135.839 242.682C136.012 242.249 136.099 241.816 136.099 241.383C136.099 240.778 135.839 240.258 135.407 239.999C134.974 239.652 134.368 239.566 133.503 239.652C132.811 239.652 132.205 239.825 131.686 240.172C131.167 240.431 130.734 240.864 130.388 241.383L127.706 239.825C128.225 238.873 129.003 238.094 130.042 237.575C131.08 236.969 132.292 236.71 133.676 236.623C134.801 236.623 135.839 236.623 136.705 236.969C137.57 237.315 138.262 237.748 138.781 238.441C139.3 239.133 139.56 239.912 139.646 240.778C139.646 241.643 139.646 242.422 139.3 243.201C138.954 243.98 138.349 244.846 137.397 245.884L134.022 249.433L140.685 249V249.087Z" fill="#010101"/>
<path d="M146.309 250.471C145.184 250.039 144.232 249.26 143.454 248.221C142.675 247.182 142.156 245.798 141.81 244.153C141.463 242.509 141.55 241.037 141.81 239.739C142.156 238.441 142.761 237.402 143.627 236.623C144.492 235.844 145.53 235.325 146.828 235.065C148.126 234.805 149.251 234.979 150.376 235.411C151.501 235.844 152.453 236.623 153.231 237.662C154.01 238.787 154.529 240.085 154.875 241.73C155.221 243.374 155.135 244.846 154.875 246.144C154.529 247.442 153.924 248.481 153.058 249.26C152.193 250.039 151.155 250.558 149.857 250.818C148.559 251.077 147.434 250.904 146.309 250.471ZM151.241 246.23C151.587 245.365 151.674 244.067 151.328 242.336C150.982 240.604 150.549 239.479 149.857 238.787C149.164 238.094 148.386 237.835 147.434 238.008C146.482 238.181 145.876 238.7 145.444 239.566C145.011 240.431 145.011 241.73 145.357 243.461C145.703 245.192 146.136 246.317 146.828 247.009C147.52 247.702 148.299 247.961 149.251 247.788C150.203 247.615 150.809 247.096 151.241 246.144V246.23Z" fill="#010101"/>
<path d="M66.2707 231.516C45.504 219.139 29.0636 200.963 18.8533 179.066L24.9102 176.209C34.6014 196.895 50.09 214.033 69.7319 225.804L66.3573 231.516H66.2707Z" fill="#010101"/>
<path d="M189.4 231.516L186.026 225.804C205.668 214.033 221.156 196.982 230.847 176.209L236.904 179.066C226.694 200.963 210.254 219.139 189.487 231.516H189.4Z" fill="#010101"/>
<path d="M239.673 163.227C241.537 163.227 243.048 161.715 243.048 159.851C243.048 157.987 241.537 156.476 239.673 156.476C237.809 156.476 236.299 157.987 236.299 159.851C236.299 161.715 237.809 163.227 239.673 163.227Z" fill="#EE8CB9"/>
<path d="M15.565 163.573C17.4288 163.573 18.9396 162.062 18.9396 160.197C18.9396 158.333 17.4288 156.822 15.565 156.822C13.7013 156.822 12.1904 158.333 12.1904 160.197C12.1904 162.062 13.7013 163.573 15.565 163.573Z" fill="#EE8CB9"/>
<path fill-rule="evenodd" clip-rule="evenodd" d="M127.619 215.245H125.456C102.526 214.725 81.067 205.378 65.0593 188.933C48.965 172.488 40.1392 150.763 40.1392 127.74C40.1392 79.4441 79.423 40.2358 127.619 40.2358C175.815 40.2358 215.099 79.5306 215.099 127.74C215.099 175.95 179.19 212.042 133.417 215.072C131.513 215.158 129.523 215.245 127.619 215.245ZM53.2914 89.7102C54.941 86.4983 56.7926 83.4065 58.8293 80.4517V114.352C59.3673 111.572 60.0647 108.848 60.9059 106.189C61.4792 104.447 62.1142 102.732 62.8095 101.049V75.1393C64.5539 72.9931 66.4024 70.9349 68.3474 68.9724V90.2808C69.0122 89.218 69.7046 88.1731 70.424 87.1472C71.0376 86.2649 71.6725 85.3996 72.3277 84.5522V65.2089C74.1077 63.6322 75.9553 62.1301 77.8655 60.7077V78.2913C78.5435 77.6202 79.236 76.9656 79.9421 76.3281C80.5653 75.7415 81.2001 75.1664 81.8458 74.6039V57.9191C83.6721 56.7169 85.5481 55.5843 87.4701 54.5254V70.2146C88.1262 69.7581 88.7898 69.3145 89.4602 68.8846C90.1158 68.4537 90.7795 68.035 91.4504 67.6284V52.4697C93.2612 51.5953 95.1081 50.7845 96.9882 50.04V64.6193C97.6475 64.2993 98.3112 63.9901 98.9784 63.6915C99.6339 63.3917 100.298 63.1041 100.968 62.8278V48.5806C102.787 47.9661 104.634 47.4126 106.506 46.9227V60.8311C107.166 60.6229 107.829 60.4226 108.496 60.2294C109.156 60.0461 109.82 59.8705 110.487 59.7036V45.9856C112.34 45.5973 114.215 45.2708 116.111 45.0081V58.5261C116.745 58.4205 117.38 58.3245 118.015 58.2387C118.703 58.1431 119.395 58.0559 120.091 57.9781V44.5539C121.921 44.3895 123.768 44.2844 125.629 44.2406V57.5762C126.263 57.5565 126.898 57.5463 127.533 57.5463H127.619C128.286 57.5463 128.949 57.5538 129.609 57.5696V44.2406C131.471 44.2844 133.317 44.3895 135.147 44.5539V57.9194C135.782 57.9867 136.416 58.064 137.051 58.1522C137.75 58.2442 138.442 58.348 139.127 58.4628V45.0081C140.994 45.2667 142.84 45.5872 144.665 45.9675V59.6366C145.301 59.7977 145.935 59.9667 146.569 60.1429C147.265 60.3445 147.958 60.5539 148.646 60.7719V46.9001C150.547 47.3956 152.423 47.9566 154.27 48.5806V62.8129C154.882 63.0672 155.488 63.331 156.087 63.6049C156.813 63.9296 157.534 64.267 158.25 64.617V50.04C160.13 50.7845 161.977 51.5953 163.788 52.4697V67.6471C164.4 68.0206 165.006 68.4043 165.605 68.7981C166.335 69.2658 167.056 69.7497 167.768 70.2481V54.5254C169.66 55.5676 171.507 56.6811 173.306 57.8622V74.5489C173.922 75.0763 174.528 75.6121 175.123 76.155C175.859 76.8376 176.581 77.5313 177.286 78.237V60.6433C179.196 62.0618 181.044 63.5598 182.824 65.1324V84.4581C183.449 85.2529 184.055 86.0625 184.641 86.8875C185.392 87.9261 186.113 88.9882 186.805 90.0723V68.8852C188.781 70.8739 190.659 72.9613 192.429 75.1392V100.928C193.057 102.454 193.634 104.006 194.159 105.583C195.073 108.326 195.828 111.135 196.409 114.005V80.4517C198.446 83.4065 200.297 86.4983 201.947 89.7102V165.73C200.298 168.944 198.446 172.04 196.409 174.999V141.649C195.828 144.519 195.073 147.328 194.159 150.071L192.429 153.47V180.32C190.659 182.501 188.782 184.592 186.805 186.585V164.517L184.641 168.766L182.824 170.831V190.344C181.044 191.919 179.197 193.42 177.286 194.841V177.126L175.123 179.585L173.306 180.99V197.627C171.508 198.809 169.66 199.924 167.768 200.968V185.27L165.605 186.942L163.788 187.933V203.026C161.978 203.9 160.131 204.712 158.25 205.457V190.955L156.087 192.135L154.27 192.796V206.916C152.424 207.54 150.548 208.101 148.646 208.596V194.842L146.569 195.597L146.655 195.424C145.996 195.608 145.332 195.783 144.665 195.95V209.527C142.841 209.906 140.994 210.226 139.127 210.484V197.113C138.465 197.224 137.801 197.325 137.137 197.415C136.485 197.487 135.817 197.56 135.147 197.632V210.936C134.486 210.995 133.823 211.047 133.157 211.09C131.949 211.171 130.778 211.214 129.609 211.237V198.07C128.975 198.093 128.34 198.107 127.706 198.107H125.975C125.86 198.107 125.744 198.107 125.629 198.106V211.263H125.543C123.716 211.22 121.898 211.117 120.091 210.957V197.751C119.403 197.676 118.712 197.591 118.015 197.501C117.374 197.417 116.74 197.323 116.111 197.22V210.507C114.221 210.248 112.345 209.924 110.487 209.538V196.039C109.822 195.871 109.159 195.695 108.496 195.511C107.829 195.318 107.166 195.117 106.506 194.909V208.608C104.639 208.123 102.792 207.574 100.968 206.961V192.912C100.298 192.636 99.6339 192.348 98.9784 192.049C98.3112 191.75 97.6475 191.441 96.9882 191.121V205.51C95.1137 204.771 93.2667 203.964 91.4504 203.09V188.112C90.7795 187.705 90.1158 187.286 89.4602 186.855C88.7898 186.426 88.1262 185.982 87.4701 185.526V201.041C85.5551 199.988 83.6789 198.858 81.8458 197.653V181.136C81.2001 180.574 80.5653 179.999 79.9421 179.412C79.236 178.757 78.5435 178.089 77.8655 177.407V194.866C75.9644 193.451 74.1168 191.95 72.3277 190.365V171.102C71.6725 170.254 71.0376 169.389 70.424 168.506C69.707 167.484 69.0141 166.445 68.3474 165.39V186.602C68.2027 186.457 68.0585 186.31 67.9147 186.163C66.118 184.315 64.4154 182.399 62.8095 180.421V154.731C62.1034 153.015 61.4668 151.26 60.9059 149.465C60.0514 146.868 59.3592 144.208 58.8293 141.496V175.107C56.7785 172.133 54.93 169.042 53.2914 165.852V89.7102ZM49.3111 98.742C45.9544 107.78 44.1195 117.55 44.1195 127.74C44.1195 137.822 45.9029 147.631 49.3111 156.817V98.742ZM211.119 127.74C211.119 137.89 209.286 147.65 205.927 156.694V98.742C209.284 107.78 211.119 117.55 211.119 127.74Z" fill="#EE8CB9"/>
<path d="M117.625 84.291L117.625 84.2905L117.624 84.2902C115.743 82.4729 113.861 80.6555 111.957 78.8382C110.746 77.6264 110.833 75.8088 111.957 74.5971C113.082 73.3854 115.073 73.4719 116.197 74.5971L117.755 76.155C119.658 77.9723 121.54 79.7896 123.421 81.6069L123.422 81.607L123.422 81.6078C123.725 81.9003 124.028 82.1927 124.331 82.4852V76.8475C124.331 72.9526 130.301 72.9526 130.301 76.8475V82.3465C131.094 81.5829 131.884 80.8194 132.675 80.0558L132.681 80.0499C134.563 78.2323 136.445 76.4147 138.349 74.5971C139.56 73.4719 141.377 73.4719 142.588 74.5971C143.8 75.7223 143.713 77.713 142.588 78.8382L141.031 80.3961C139.127 82.2137 137.245 84.0313 135.363 85.8489C133.681 87.4735 131.999 89.0981 130.301 90.7227V178.893C130.301 182.788 124.331 182.788 124.331 178.893V90.7824L123.293 89.7438C121.389 87.9262 119.507 86.1086 117.625 84.291Z" fill="white"/>
<path d="M163.096 111.815C161.804 113.055 160.515 114.296 159.227 115.536H169.845C171.575 115.536 172.873 116.921 172.873 118.566C172.873 120.21 171.402 121.595 169.845 121.595H152.949C147.637 126.73 142.344 131.865 137.052 137L137.051 137.001C134.282 139.684 130.042 135.443 132.811 132.76L136.532 129.212C145.271 120.816 153.924 112.42 162.576 104.025C165.345 101.342 169.585 105.583 166.816 108.266L163.096 111.815Z" fill="white"/>
<path d="M87.8161 108.266L87.8162 108.266L87.8169 108.267C90.3144 110.69 92.8118 113.113 95.3114 115.536H84.7011C83.1436 115.536 81.6726 116.921 81.6726 118.566C81.6726 120.21 82.9705 121.595 84.7011 121.595V121.508H101.477C105.592 125.49 109.717 129.471 113.861 133.453L117.582 137.001C120.351 139.684 124.591 135.443 121.822 132.76C113.169 124.365 104.516 115.969 95.7767 107.574L92.056 104.025C89.2871 101.342 85.0472 105.583 87.8161 108.266Z" fill="white"/>
</svg>
