<svg width="256" height="256" viewBox="0 0 256 256" fill="none" xmlns="http://www.w3.org/2000/svg">
<path d="M226.695 30.2512L223.517 22.7927L216.199 26.2904C206.808 30.7834 196.527 33.2571 187.251 33.2571C166.463 33.2571 148.353 18.107 135.131 7.04439L134.857 6.81715C134.236 6.29652 133.626 5.7874 133.031 5.28978L128.06 1.15063L123.09 5.28978C122.408 5.85931 121.706 6.4461 120.99 7.04439C107.767 18.107 89.6576 33.2571 68.8698 33.2571C59.5963 33.2571 49.3131 30.7834 39.9217 26.2904L32.6041 22.7927L29.4257 30.2512C25.3958 39.706 22.7236 65.1046 22.7236 77.7579C22.7236 92.6634 24.8177 108.058 28.9482 123.513C33.188 139.37 39.4988 155.001 47.7081 169.967C53.97 181.386 61.2991 192.334 69.5831 202.657L72.9198 199.927L78.2641 195.555C81.2182 199.246 84.3046 202.853 87.5118 206.368C92.0306 211.318 96.7911 216.087 101.773 220.658L96.8169 225.476L93.7191 228.487C103.018 237.059 113.063 244.966 123.743 252.111L128.06 254.999L132.378 252.111C142.448 245.372 151.955 237.959 160.803 229.948L157.702 226.934L152.743 222.113C158.312 217.102 163.61 211.844 168.609 206.368C171.529 203.169 174.345 199.896 177.054 196.553L182.399 200.926L185.735 203.655C194.347 193.041 201.947 181.751 208.413 169.967C216.622 155.001 222.933 139.37 227.173 123.51C231.303 108.058 233.397 92.6634 233.397 77.7579C233.397 65.1046 230.725 39.7031 226.695 30.2512Z" fill="black"/>
<path d="M211.131 49.5863L210.349 46.5431L207.682 48.2085C203.997 50.5125 193.944 53.9383 181.354 53.9383C173.277 53.9383 163.759 50.5729 153.071 43.9313C145.868 39.4556 138.188 33.5389 129.596 25.8359L128.06 24.4609L126.524 25.8359C117.933 33.5389 110.253 39.4556 103.05 43.9313C92.3613 50.5729 82.8433 53.9383 74.7692 53.9383C62.1763 53.9383 52.1233 50.5125 48.4386 48.2085L45.7722 46.5431L44.9898 49.5863C43.3445 55.9777 42.0674 70.9724 42.0674 79.6102C42.0674 106.95 51.0072 136.29 67.9263 164.45C83.0648 189.653 103.939 212.701 126.703 229.353L128.06 230.345L129.418 229.353C152.182 212.701 173.056 189.653 188.194 164.45C205.113 136.29 214.053 106.95 214.053 79.6102C214.053 70.9724 212.776 55.9777 211.131 49.5863ZM184.248 162.083C169.722 186.264 149.812 208.419 128.06 224.633C106.309 208.419 86.3985 186.264 71.8698 162.083C55.3823 134.636 46.6696 106.116 46.6696 79.6102C46.6696 71.7979 47.6764 60.2031 48.8442 53.6075C54.5654 56.1934 64.1093 58.5406 74.7692 58.5406C89.3296 58.5406 106.775 49.408 128.06 30.6308C149.346 49.408 166.791 58.5406 181.354 58.5406C192.011 58.5406 201.555 56.1934 207.277 53.6075C208.444 60.2031 209.451 71.7979 209.451 79.6102C209.451 106.116 200.738 134.636 184.248 162.083Z" fill="#FEFEFE"/>
<path d="M222.726 31.9454L221.314 28.6289L218.06 30.1851C208.099 34.9484 197.158 37.5717 187.251 37.5717C164.896 37.5717 146.093 21.8406 132.364 10.3551C131.647 9.75684 130.951 9.17293 130.27 8.60628L128.061 6.76538L125.851 8.60628C125.17 9.17293 124.474 9.75684 123.757 10.3523C110.028 21.8406 91.2253 37.5717 68.8699 37.5717C58.9635 37.5717 48.0217 34.9484 38.0578 30.1851L34.8075 28.6289L33.3952 31.9454C29.7076 40.5948 27.0383 65.3146 27.0383 77.7579C27.0383 92.2895 29.0835 107.307 33.1162 122.397C37.2668 137.924 43.4482 153.229 51.4906 167.89C57.6289 179.079 64.8084 189.808 72.9199 199.927L78.2642 195.555C70.4203 185.764 63.4766 175.386 57.5426 164.571C49.7677 150.396 43.7934 135.605 39.7866 120.613C35.9092 106.105 33.9417 91.6883 33.9417 77.7579C33.9417 66.4997 36.0933 47.3371 38.6331 38.0118C48.5279 42.1969 59.1304 44.475 68.8699 44.475C79.9383 44.475 91.047 41.1557 102.837 34.3242C112.634 28.6462 121.18 21.5127 128.061 15.7541C134.941 21.5127 143.487 28.6462 153.284 34.3242C165.074 41.1557 176.183 44.475 187.251 44.475C196.991 44.475 207.593 42.1969 217.488 38.0118C220.028 47.3371 222.179 66.4997 222.179 77.7579C222.179 91.6883 220.215 106.105 216.335 120.613C212.328 135.605 206.353 150.396 198.578 164.571C192.443 175.754 185.229 186.472 177.054 196.553L182.399 200.926C190.838 190.516 198.291 179.447 204.63 167.89C212.673 153.229 218.854 137.924 223.005 122.397C227.038 107.307 229.083 92.2895 229.083 77.7579C229.083 65.3146 226.413 40.5948 222.726 31.9454ZM128.061 241.489C118.75 235.129 109.959 228.159 101.773 220.658L96.817 225.476C105.904 233.835 115.712 241.546 126.142 248.524L128.061 249.807L129.979 248.524C139.799 241.955 149.07 234.732 157.702 226.934L152.743 222.113C145.017 229.063 136.765 235.54 128.061 241.489Z" fill="#C1AB53"/>
<path d="M70.2993 208.26L77.7348 202.05C77.4155 202.007 76.6619 201.446 76.1614 200.908L77.7751 199.559C78.6236 200.299 79.6937 200.647 80.5652 200.514L81.8999 202.114L72.0424 210.346L70.2993 208.258V208.26Z" fill="black"/>
<path d="M77.266 210.708L76.9841 210.959C76.4031 211.471 76.2794 211.899 76.5958 212.256C76.9237 212.627 77.3638 212.555 77.9449 212.043L79.2536 210.887C78.5259 210.841 78.1577 210.665 77.7349 210.188C77.197 209.578 76.9439 208.902 77.01 208.286C77.0963 207.576 77.5422 206.94 78.6151 205.994L79.7167 205.022C80.9363 203.943 81.7734 203.604 82.7571 203.819C83.4647 203.96 84.1291 204.383 84.7332 205.068C85.297 205.706 85.6105 206.33 85.6939 207.027C85.8348 208.174 85.3948 209.118 84.1895 210.182L79.757 214.097C78.7301 215.003 77.8672 215.316 76.9381 215.132C76.1586 215 75.4539 214.563 74.7981 213.818C74.0617 212.984 73.6964 212.089 73.7338 211.264C73.7798 210.536 74.1854 209.857 75.0627 209.083L75.4942 208.704L77.2689 210.711L77.266 210.708ZM82.7024 207.841C83.177 207.421 83.2777 206.963 82.9757 206.621C82.6852 206.293 82.2048 206.348 81.7446 206.756L80.2431 208.082C79.7685 208.502 79.6534 208.974 79.944 209.302C80.246 209.644 80.712 209.604 81.2038 209.17L82.7053 207.843L82.7024 207.841Z" fill="black"/>
<path d="M78.2239 217.35C80.3754 215.495 82.0035 214.591 85.2394 213.513C87.5549 212.702 87.5952 212.687 88.0238 212.477L85.4293 209.713L87.1522 208.096L91.7717 213.018L91.4812 213.317C90.6269 214.12 89.3987 214.752 86.971 215.673C83.5481 216.898 82.0063 217.75 80.1827 219.432L78.2268 217.35H78.2239Z" fill="black"/>
<path d="M90.6268 223.672L91.1043 224.15L89.4475 225.804L88.97 225.326L87.4397 226.854L85.5183 224.929L87.0486 223.402L84.1606 220.508L85.6765 218.992L93.4831 214.732L96.5263 217.781L90.6268 223.672ZM88.8032 221.846L90.7419 219.91C91.0094 219.642 92.4706 218.27 93.6068 217.246C93.299 217.442 93.1005 217.554 93.0315 217.597L91.7687 218.354L90.2241 219.28L87.6699 220.71L88.806 221.849L88.8032 221.846Z" fill="black"/>
<path d="M164.755 230.61L164.507 230.351C163.587 229.393 163.043 228.372 162.761 227.017C162.606 226.313 162.548 225.763 162.315 223.315C162.2 222.078 161.973 221.526 161.257 220.781C160.664 220.166 160.178 220.03 159.804 220.387C159.589 220.594 159.543 220.859 159.678 221.144C159.773 221.385 159.853 221.469 160.719 222.372L161.228 222.901L159.295 224.759L158.139 223.557C156.571 221.926 156.589 220.367 158.22 218.799C159.922 217.163 161.536 217.209 163.213 218.955C164.533 220.33 164.881 221.262 165.039 223.862C165.114 225.056 165.252 225.944 165.477 226.609L168.065 224.118L169.716 225.835L164.752 230.607L164.755 230.61Z" fill="black"/>
<path d="M163.9 218.613C162.111 216.867 161.991 215.112 163.57 213.493C164.234 212.811 164.919 212.423 165.632 212.316C166.656 212.178 167.671 212.641 168.851 213.792L172.674 217.52C174.549 219.349 174.71 221.032 173.142 222.637C172.435 223.362 171.583 223.807 170.787 223.888C169.835 223.983 168.972 223.56 167.85 222.464L163.9 218.61V218.613ZM166.343 215.172C165.902 214.744 165.508 214.692 165.175 215.031C164.841 215.371 164.93 215.794 165.442 216.291L170.145 220.879C170.657 221.377 171.08 221.457 171.411 221.115C171.716 220.802 171.652 220.353 171.241 219.953L166.34 215.172H166.343Z" fill="black"/>
<path d="M175.95 219.452L175.685 219.211C174.704 218.313 174.1 217.327 173.732 215.995C173.534 215.302 173.439 214.758 173.053 212.33C172.86 211.102 172.599 210.567 171.836 209.868C171.207 209.293 170.712 209.186 170.364 209.566C170.162 209.785 170.131 210.055 170.283 210.328C170.392 210.561 170.479 210.642 171.402 211.488L171.943 211.985L170.134 213.961L168.905 212.834C167.237 211.303 167.157 209.75 168.687 208.082C170.283 206.342 171.897 206.284 173.68 207.921C175.084 209.209 175.489 210.118 175.812 212.701C175.961 213.889 176.154 214.767 176.421 215.414L178.849 212.765L180.604 214.375L175.95 219.452Z" fill="black"/>
<path d="M182.22 205.577L182.657 205.065L184.438 206.586L184.001 207.098L185.646 208.505L183.88 210.57L182.235 209.163L179.577 212.27L177.949 210.878L173.088 203.431L175.886 200.157L182.223 205.574L182.22 205.577ZM180.543 207.535L178.461 205.755C178.173 205.51 176.689 204.161 175.579 203.109C175.797 203.402 175.927 203.589 175.973 203.655L176.827 204.855L177.871 206.322L179.496 208.758L180.54 207.535H180.543Z" fill="black"/>
<path d="M70.0662 67.7913C63.1859 67.7913 56.0064 71.4731 56.0064 79.3803C56.0064 85.4696 58.8166 89.9741 64.7478 91.7316C69.1055 93.0231 78.2381 92.3097 78.2381 99.9495C78.2381 104.819 74.3348 107.028 70.1151 107.028C58.7217 107.028 61.8886 96.3655 56.34 96.3655C54.3208 96.3655 53.4895 98.4796 53.4895 99.6417C53.4895 103.87 60.2174 111.849 69.4248 111.849C76.17 111.849 81.8393 106.91 81.8393 99.4662C81.8393 89.2061 75.9168 86.7036 71.4843 86.1657C65.6509 85.4581 60.0563 83.226 60.0563 78.5691C60.0563 74.5479 64.834 71.4731 68.1592 71.4731C75.1057 71.4731 74.8698 77.2057 78.356 77.2057C79.9754 77.2057 80.9534 74.7953 80.9534 73.4693C80.9534 71.683 76.1757 67.7941 70.0691 67.7941L70.0662 67.7913Z" fill="white"/>
<path d="M187.677 67.7913C180.796 67.7913 173.617 71.4731 173.617 79.3803C173.617 85.4696 176.427 89.9741 182.358 91.7316C186.716 93.0231 195.848 92.3097 195.848 99.9495C195.848 104.819 191.945 107.028 187.725 107.028C176.332 107.028 179.499 96.3655 173.95 96.3655C171.931 96.3655 171.1 98.4796 171.1 99.6417C171.1 103.87 177.828 111.849 187.035 111.849C193.78 111.849 199.45 106.91 199.45 99.4662C199.45 89.2061 193.527 86.7036 189.095 86.1657C183.261 85.4581 177.667 83.226 177.667 78.5691C177.667 74.5479 182.444 71.4731 185.77 71.4731C192.716 71.4731 192.48 77.2057 195.966 77.2057C197.586 77.2057 198.564 74.7953 198.564 73.4693C198.564 71.683 193.786 67.7941 187.679 67.7941L187.677 67.7913Z" fill="white"/>
<path d="M174.756 165.994C173.622 165.994 171.287 167.49 168.724 167.49C168.373 167.49 168.031 167.467 167.691 167.415C167.625 167.41 167.559 167.398 167.493 167.387C167.314 167.355 167.136 167.32 166.961 167.274C166.892 167.26 166.825 167.24 166.756 167.22C166.587 167.174 166.42 167.122 166.256 167.062C166.178 167.036 166.098 167.007 166.02 166.975C165.954 166.949 165.885 166.921 165.816 166.892C165.755 166.866 165.695 166.84 165.635 166.811C165.574 166.785 165.511 166.757 165.45 166.725C165.367 166.685 165.284 166.644 165.2 166.598C165.177 166.587 165.154 166.575 165.128 166.561C165.062 166.527 164.996 166.489 164.93 166.452C164.872 166.42 164.812 166.386 164.754 166.348C164.668 166.299 164.582 166.245 164.496 166.187L164.478 166.179C164.395 166.124 164.311 166.069 164.228 166.009C163.725 165.664 163.233 165.258 162.755 164.795C162.669 164.714 162.583 164.628 162.499 164.542C162.402 164.444 162.307 164.346 162.212 164.243C162.131 164.156 162.051 164.067 161.97 163.978C161.895 163.895 161.82 163.808 161.746 163.722C161.662 163.627 161.582 163.529 161.498 163.429C161.078 162.92 160.667 162.364 160.267 161.772C160.198 161.671 160.132 161.568 160.063 161.464C159.255 160.23 158.484 158.832 157.745 157.29C157.676 157.147 157.607 157.003 157.54 156.859C157.284 156.312 157.031 155.752 156.784 155.173C156.7 154.981 156.62 154.791 156.539 154.595C156.473 154.437 156.41 154.279 156.344 154.121C156.085 153.488 155.829 152.838 155.579 152.173C155.579 152.17 155.579 152.168 155.576 152.162C155.323 151.492 155.072 150.81 154.831 150.108C154.759 149.904 154.687 149.697 154.615 149.49C154.442 148.989 154.27 148.48 154.103 147.962C154.043 147.781 153.982 147.597 153.925 147.413C151.839 150.019 149.19 152.05 146.041 153.45C145.997 153.471 145.954 153.488 145.908 153.508C146.133 154.253 146.363 155.001 146.596 155.749C150.039 166.834 156.237 175.976 165.35 175.976C172.998 175.976 175.207 168.905 175.207 166.348C175.207 166.04 175.158 165.994 174.756 165.994Z" fill="white"/>
<path d="M150.968 137.164C150.827 137.61 150.646 138.053 150.427 138.493C149.136 141.099 146.535 143.426 143.455 144.747C143.4 144.519 143.343 144.295 143.291 144.071C143.242 143.875 143.196 143.676 143.153 143.481C142.911 142.46 142.695 141.459 142.508 140.481C142.459 140.231 142.411 139.98 142.367 139.73C142.316 139.454 142.267 139.178 142.224 138.905C142.221 138.893 142.218 138.882 142.218 138.87C142.172 138.603 142.132 138.338 142.091 138.076C142.088 138.073 142.088 138.067 142.091 138.065C142.06 137.875 142.034 137.688 142.008 137.501C141.979 137.294 141.95 137.092 141.927 136.888C141.901 136.693 141.878 136.497 141.858 136.301C141.841 136.155 141.824 136.011 141.812 135.867C141.801 135.781 141.792 135.697 141.786 135.611C141.772 135.467 141.758 135.323 141.749 135.182C141.735 135.047 141.726 134.912 141.717 134.777C141.694 134.483 141.677 134.196 141.668 133.908C141.66 133.73 141.651 133.554 141.648 133.379C141.643 133.157 141.64 132.939 141.64 132.72H119.411C119.411 132.85 119.408 132.982 119.405 133.114C119.402 133.238 119.399 133.362 119.391 133.488C119.385 133.621 119.379 133.753 119.368 133.885C119.365 133.931 119.362 133.974 119.356 134.02C119.35 134.147 119.339 134.276 119.325 134.406C119.307 134.601 119.284 134.8 119.261 135.001C119.238 135.182 119.215 135.367 119.187 135.554C119.166 135.697 119.143 135.844 119.12 135.991C119.04 136.491 118.945 137.009 118.833 137.535C118.16 140.74 116.946 144.401 115.447 148.181C115.3 148.555 115.148 148.929 114.993 149.306C114.875 149.593 114.757 149.881 114.636 150.171C114.532 150.422 114.426 150.672 114.317 150.925C114.058 151.541 113.79 152.156 113.52 152.772C108.317 164.556 100.691 175.976 93.575 175.976C85.5585 175.976 80.1479 169.627 80.1479 163.722C80.1479 159.842 82.2333 156.819 84.8653 156.819C86.0647 156.819 85.7311 158.763 86.6659 160.538C87.5835 162.278 91.1962 164.418 93.2241 164.418C93.5549 164.418 93.8914 164.389 94.2337 164.332C94.32 164.318 94.4063 164.303 94.4897 164.286C94.5616 164.272 94.6335 164.254 94.7054 164.237C94.7888 164.217 94.8723 164.197 94.9557 164.174C95.1254 164.128 95.2951 164.073 95.4677 164.013C95.5367 163.99 95.6057 163.967 95.6748 163.938C95.8071 163.889 95.9394 163.834 96.0717 163.777C96.158 163.739 96.2443 163.702 96.3335 163.659C96.3996 163.63 96.4658 163.598 96.5319 163.564C96.5981 163.532 96.6671 163.498 96.7362 163.46C96.9289 163.36 97.1216 163.253 97.3172 163.138C97.4006 163.089 97.484 163.038 97.5675 162.983C97.6566 162.928 97.7458 162.871 97.835 162.81C97.9241 162.753 98.0133 162.695 98.1025 162.629C98.1916 162.569 98.2837 162.503 98.3728 162.436C98.462 162.373 98.5541 162.307 98.6432 162.235C98.7324 162.169 98.8244 162.1 98.9165 162.025C99.0057 161.956 99.0977 161.881 99.1897 161.804C99.3853 161.645 99.5809 161.476 99.7765 161.3C99.8571 161.231 99.9376 161.159 100.015 161.084C100.107 161.001 100.199 160.918 100.291 160.826C100.464 160.665 100.637 160.495 100.809 160.322C101.008 160.121 101.206 159.914 101.407 159.695C101.767 159.307 102.129 158.896 102.495 158.461C102.509 158.438 102.529 158.418 102.549 158.395C102.731 158.176 102.912 157.952 103.09 157.722C103.185 157.604 103.28 157.483 103.372 157.36C103.553 157.129 103.732 156.891 103.91 156.646C104.013 156.505 104.117 156.364 104.221 156.22C104.315 156.088 104.41 155.956 104.502 155.821C104.597 155.685 104.692 155.55 104.784 155.412C105.055 155.024 105.319 154.621 105.584 154.207C106.542 152.723 107.494 151.083 108.437 149.288C108.532 149.113 108.624 148.935 108.714 148.756C108.995 148.215 109.272 147.66 109.551 147.091C109.717 146.748 109.884 146.4 110.051 146.05C110.068 146.009 110.088 145.966 110.109 145.926C110.275 145.566 110.445 145.201 110.612 144.833C110.621 144.813 110.629 144.795 110.638 144.775C110.816 144.384 110.995 143.984 111.17 143.582C112.683 140.124 114.144 136.255 115.516 131.998C115.686 131.469 115.856 130.937 116.022 130.396C116.091 130.172 116.161 129.947 116.23 129.723C116.442 129.03 116.652 128.322 116.859 127.609C116.946 127.307 117.035 127.005 117.121 126.7C117.208 126.395 117.294 126.087 117.377 125.779C117.464 125.472 117.55 125.161 117.633 124.85C117.734 124.479 117.835 124.105 117.932 123.729C118.001 123.473 118.07 123.217 118.137 122.958C118.761 120.553 119.365 118.036 119.937 115.485C120.938 116.003 122.06 116.503 123.429 117.041C123.498 117.067 123.564 117.093 123.631 117.119C123.478 117.91 123.334 118.686 123.202 119.446C123.165 119.647 123.13 119.848 123.096 120.047C123.018 120.51 122.94 120.964 122.871 121.413C122.84 121.614 122.808 121.81 122.779 122.009C122.759 122.138 122.739 122.267 122.722 122.394C122.687 122.633 122.653 122.869 122.621 123.102H139.341C139.341 122.886 139.336 122.653 139.321 122.408C139.318 122.336 139.313 122.262 139.307 122.187C139.307 122.124 139.298 122.057 139.293 121.988C139.287 121.922 139.281 121.853 139.275 121.784C139.244 121.419 139.198 121.031 139.143 120.619C139.123 120.484 139.106 120.349 139.083 120.208C139.06 120.047 139.034 119.883 139.008 119.716C138.996 119.653 138.988 119.587 138.976 119.523C138.922 119.195 138.864 118.856 138.798 118.508C138.188 115.235 137.124 111.095 135.875 106.867C135.752 106.453 135.628 106.036 135.501 105.622C135.329 105.052 135.153 104.48 134.978 103.913C134.895 103.651 134.814 103.39 134.731 103.128C134.644 102.852 134.558 102.578 134.469 102.302C134.308 101.802 134.147 101.304 133.986 100.809C133.612 99.679 133.238 98.5658 132.864 97.4929C132.685 96.9838 132.51 96.4833 132.335 95.9943C131.4 93.3826 130.494 91.0613 129.711 89.2894C129.642 89.1341 129.573 88.9845 129.507 88.8407C129.461 88.7372 129.415 88.6365 129.369 88.5387C129.334 88.461 129.297 88.3834 129.26 88.3057C128.857 87.4543 128.497 86.787 128.195 86.3469C128.17 86.3095 128.144 86.2721 128.118 86.2376C128.069 86.1685 128.02 86.1052 127.974 86.0506C127.974 86.413 127.971 86.7726 127.965 87.1321C127.962 87.3133 127.96 87.4946 127.954 87.6758C127.951 87.9059 127.945 88.1331 127.937 88.3632C127.928 88.6739 127.916 88.9817 127.902 89.2894C127.891 89.5771 127.876 89.8647 127.862 90.1495C127.856 90.2559 127.85 90.3595 127.844 90.4659C127.83 90.7305 127.813 90.9951 127.796 91.2598C127.79 91.3374 127.784 91.4151 127.781 91.4927C127.758 91.8264 127.732 92.1601 127.704 92.4909C127.689 92.7181 127.669 92.9425 127.649 93.1639C127.626 93.4372 127.6 93.7105 127.574 93.9837C127.545 94.2742 127.517 94.5648 127.488 94.8524C127.468 95.0509 127.445 95.2522 127.422 95.4507C127.393 95.7441 127.358 96.0375 127.321 96.328C127.321 96.3481 127.318 96.3654 127.315 96.3855C127.284 96.6674 127.249 96.9464 127.212 97.2283C126.967 99.1526 126.68 101.048 126.366 102.906C125.195 102.412 124.125 101.877 123.179 101.316C123.052 101.241 122.929 101.166 122.808 101.091C122.886 100.645 122.963 100.203 123.038 99.7624C123.087 99.4834 123.133 99.2073 123.179 98.9311C123.386 97.7144 123.579 96.5265 123.757 95.3759C123.803 95.0796 123.849 94.7862 123.892 94.4957C123.938 94.1937 123.981 93.8974 124.027 93.604C124.111 93.0374 124.189 92.4822 124.266 91.9386C124.301 91.6999 124.332 91.4611 124.364 91.2281C124.45 90.5953 124.534 89.9826 124.609 89.3901C124.657 88.9932 124.706 88.6077 124.749 88.2309C124.801 87.8081 124.847 87.3996 124.89 87.0056C124.911 86.8186 124.931 86.6316 124.948 86.4504C124.98 86.1628 125.008 85.8809 125.034 85.6047C125.051 85.4235 125.066 85.2481 125.083 85.0755C125.086 85.018 125.092 84.9633 125.098 84.9058C125.103 84.8252 125.112 84.7447 125.118 84.667C125.172 84.0314 125.21 83.4503 125.236 82.9297C125.238 82.8664 125.241 82.8031 125.244 82.7427C125.261 82.3659 125.27 82.0236 125.27 81.7159V81.7043C125.27 81.3016 125.233 80.9047 125.167 80.5193C124.824 78.6295 123.702 76.9755 122.27 75.6869C122.155 75.5834 122.037 75.4798 121.916 75.382C121.79 75.2756 121.657 75.172 121.525 75.0714C121.462 75.0196 121.396 74.9707 121.329 74.9247C121.309 74.9074 121.289 74.893 121.269 74.8786C121.252 74.8671 121.237 74.8556 121.22 74.8441C121.119 74.7693 121.019 74.6974 120.915 74.6313C120.797 74.5507 120.679 74.4731 120.559 74.3983C120.32 74.2458 120.075 74.1049 119.831 73.9754C119.739 73.9237 119.644 73.8748 119.552 73.8288C119.512 73.8086 119.468 73.7856 119.425 73.7655C119.353 73.731 119.284 73.6964 119.215 73.6648C119.117 73.6188 119.023 73.5756 118.928 73.5325C118.913 73.5267 118.899 73.521 118.882 73.5152C118.815 73.4865 118.752 73.4577 118.686 73.4318C118.614 73.4002 118.542 73.3714 118.47 73.3455C118.398 73.3168 118.326 73.2909 118.255 73.265C118.091 73.2046 117.93 73.1499 117.771 73.101C117.72 73.0838 117.665 73.0694 117.613 73.055C117.53 73.0291 117.446 73.0061 117.366 72.986C117.311 72.9716 117.254 72.9572 117.199 72.9428C117.049 72.9083 116.906 72.8767 116.762 72.8508C116.704 72.8393 116.647 72.8306 116.589 72.822C116.48 72.8048 116.373 72.7904 116.27 72.7789C116.163 72.7645 116.057 72.7559 115.953 72.7501H115.942C115.841 72.7443 115.741 72.7415 115.643 72.7415C115.459 72.7415 115.269 72.7443 115.079 72.753C114.889 72.7587 114.696 72.7702 114.501 72.7817C114.308 72.7932 114.113 72.8105 113.917 72.8278C113.721 72.845 113.523 72.8652 113.327 72.8882C112.735 72.9543 112.145 73.0349 111.576 73.1212C111.386 73.1499 111.199 73.1787 111.015 73.2103C110.462 73.2966 109.936 73.3829 109.459 73.4606C109.3 73.4836 109.145 73.5095 108.998 73.5296C108.406 73.6188 107.914 73.6763 107.566 73.6763C107.307 73.6763 107.131 73.6447 107.054 73.567C106.568 73.0809 108.132 67.3914 118.965 67.3914C119.106 67.3914 119.247 67.3942 119.385 67.3971C119.454 67.3971 119.52 67.4 119.589 67.4029C119.69 67.4057 119.788 67.4115 119.885 67.4172C120.001 67.423 120.113 67.4288 120.225 67.4403C120.328 67.446 120.429 67.4546 120.53 67.4661C120.576 67.469 120.625 67.4719 120.671 67.4777C120.78 67.4892 120.886 67.5007 120.996 67.515C121.004 67.515 121.013 67.5179 121.025 67.5208C121.151 67.5352 121.281 67.5524 121.407 67.5726C121.519 67.5898 121.631 67.6071 121.744 67.6272C121.856 67.6474 121.968 67.6675 122.08 67.6905C122.198 67.7135 122.316 67.7394 122.431 67.7653C122.98 67.889 123.518 68.0443 124.039 68.2284C124.143 68.2658 124.243 68.3032 124.344 68.3406C124.476 68.3923 124.609 68.4441 124.738 68.4988C124.85 68.5448 124.962 68.5937 125.075 68.6426C125.221 68.7088 125.365 68.7749 125.509 68.8468C125.595 68.8871 125.681 68.9302 125.768 68.9763C125.88 69.0338 125.992 69.0942 126.104 69.1546C126.841 69.5573 127.545 70.029 128.221 70.564C128.31 70.6331 128.397 70.705 128.483 70.7769C128.549 70.8315 128.615 70.8862 128.682 70.9408C128.765 71.0128 128.848 71.0847 128.932 71.1594C129.13 71.332 129.326 71.5132 129.519 71.7002C129.616 71.7923 129.711 71.8872 129.806 71.985C129.901 72.0799 129.996 72.1777 130.091 72.2755C130.407 72.6034 130.715 72.9514 131.017 73.311C132.392 74.9505 133.64 76.9065 134.797 79.1501C134.895 79.3399 134.992 79.5327 135.087 79.7254C135.182 79.9152 135.277 80.1079 135.369 80.3035C135.369 80.3064 135.372 80.3064 135.372 80.3093H135.375C135.476 80.525 135.579 80.7436 135.68 80.9622C135.763 81.1434 135.847 81.3247 135.93 81.5088C135.965 81.5835 135.999 81.6583 136.034 81.736C136.114 81.923 136.198 82.1099 136.281 82.2998C136.408 82.5903 136.534 82.8865 136.658 83.1886C136.73 83.3612 136.799 83.5337 136.871 83.7092C136.968 83.9451 137.063 84.1867 137.158 84.4283C137.253 84.6728 137.348 84.9173 137.443 85.1647C137.728 85.9039 138.007 86.6661 138.277 87.4457C138.369 87.7045 138.461 87.9663 138.55 88.2309C138.643 88.4955 138.732 88.763 138.821 89.0305C138.956 89.439 139.091 89.8532 139.226 90.2732C139.304 90.509 139.379 90.7478 139.454 90.9894C139.782 92.0278 140.101 93.0949 140.417 94.1879C140.578 94.7402 140.737 95.2982 140.895 95.862C141.09 96.5552 141.283 97.2571 141.473 97.9675C141.565 98.307 141.657 98.6492 141.746 98.9915C141.962 99.8056 142.178 100.631 142.39 101.471C142.474 101.793 142.557 102.115 142.638 102.443C142.721 102.768 142.802 103.096 142.885 103.424C143.046 104.077 143.21 104.736 143.371 105.403C143.374 105.409 143.377 105.415 143.377 105.42C143.541 106.093 143.705 106.772 143.872 107.457C143.975 107.894 144.079 108.331 144.185 108.774C145.163 112.887 146.159 117.228 147.214 121.75C147.361 122.374 147.508 123.004 147.654 123.637C147.674 123.726 147.697 123.818 147.718 123.907C148.782 128.443 149.852 132.916 150.965 137.164H150.968Z" fill="white"/>
<path d="M114.794 130.479C114.671 130.871 114.547 131.259 114.423 131.644C113.169 135.53 111.814 139.186 110.382 142.517C109.792 141.697 109.234 140.86 108.708 140.015C108.624 139.882 108.541 139.75 108.461 139.615C108.259 139.287 108.061 138.959 107.868 138.628C107.698 138.338 107.531 138.047 107.37 137.757C107.319 137.673 107.27 137.587 107.224 137.501C107.086 137.256 106.95 137.012 106.815 136.767C106.617 136.402 106.421 136.04 106.231 135.677C106.059 135.349 105.889 135.024 105.722 134.699L112.919 126.72C112.982 126.801 113.046 126.893 113.109 126.996C113.161 127.08 113.215 127.169 113.27 127.266C113.276 127.278 113.284 127.289 113.29 127.304C113.313 127.341 113.336 127.382 113.356 127.422C113.477 127.646 113.606 127.905 113.742 128.19C113.802 128.316 113.862 128.446 113.926 128.581C114.185 129.139 114.469 129.78 114.794 130.479Z" fill="white"/>
<path d="M137.593 118.307C137.291 118.261 136.986 118.217 136.684 118.177C136.445 118.143 136.209 118.114 135.97 118.085C134.667 117.921 133.373 117.795 132.125 117.665C131.917 117.645 131.716 117.625 131.512 117.602C130.54 117.501 129.599 117.392 128.707 117.26C128.595 117.242 128.483 117.225 128.374 117.208C128.31 117.199 128.247 117.191 128.19 117.179C128.054 117.156 127.919 117.133 127.787 117.11C127.597 117.078 127.413 117.044 127.235 117.006C127.114 116.983 126.999 116.958 126.881 116.932C126.766 116.909 126.651 116.883 126.539 116.854C126.398 116.822 126.26 116.788 126.124 116.753C126.041 116.73 125.958 116.707 125.877 116.684C125.552 116.592 125.244 116.494 124.948 116.385C124.928 116.379 124.908 116.374 124.887 116.365C124.542 116.236 124.197 116.103 123.855 115.971C122.592 115.473 121.364 114.941 120.199 114.323C120.029 114.234 119.862 114.142 119.696 114.05C119.512 113.946 119.33 113.84 119.149 113.733C118.813 113.532 118.482 113.319 118.157 113.095C118.073 113.04 117.993 112.982 117.912 112.925C117.829 112.867 117.748 112.81 117.671 112.752C117.59 112.692 117.51 112.631 117.432 112.571C117.343 112.505 117.251 112.433 117.161 112.364C117.095 112.309 117.029 112.255 116.96 112.2C116.882 112.137 116.808 112.073 116.73 112.007C116.655 111.944 116.578 111.878 116.503 111.812C116.434 111.748 116.365 111.685 116.293 111.622C116.14 111.481 115.991 111.337 115.841 111.187C115.625 110.972 115.413 110.747 115.206 110.514C115.067 110.359 114.932 110.201 114.8 110.037C114.694 109.905 114.584 109.769 114.478 109.628C114.199 109.257 113.928 108.869 113.672 108.458C113.618 108.369 113.563 108.279 113.508 108.187C113.448 108.084 113.388 107.98 113.327 107.877C113.27 107.776 113.215 107.675 113.16 107.575C113.123 107.506 113.086 107.437 113.051 107.368C112.979 107.23 112.907 107.089 112.835 106.945C112.786 106.838 112.735 106.735 112.686 106.626C112.634 106.516 112.585 106.407 112.536 106.295C112.487 106.183 112.438 106.07 112.39 105.955C112.341 105.84 112.295 105.725 112.249 105.607C112.2 105.484 112.151 105.357 112.105 105.23C112.062 105.118 112.021 105.003 111.981 104.891C111.949 104.805 111.921 104.716 111.889 104.626C111.855 104.526 111.823 104.425 111.791 104.324C111.765 104.252 111.742 104.178 111.719 104.103C111.691 104.008 111.662 103.91 111.633 103.812C111.587 103.66 111.544 103.505 111.501 103.349C111.472 103.249 111.443 103.145 111.417 103.039C111.4 102.972 111.383 102.906 111.366 102.837C111.331 102.708 111.299 102.578 111.271 102.446C111.17 102.02 111.075 101.58 110.992 101.123C110.969 101.008 110.948 100.89 110.928 100.769C110.874 100.464 110.825 100.154 110.779 99.8343C110.756 99.6732 110.733 99.5122 110.713 99.3511C110.695 99.2389 110.684 99.1239 110.669 99.0088C110.649 98.8621 110.632 98.7125 110.618 98.5601C110.58 98.2379 110.549 97.91 110.523 97.5764C110.508 97.4354 110.5 97.2916 110.488 97.1478C110.448 96.6243 110.419 96.0864 110.396 95.5341C110.385 95.2608 110.376 94.9847 110.37 94.7057C110.367 94.6223 110.365 94.5389 110.365 94.4526C110.356 94.0873 110.353 93.7133 110.353 93.3337C110.353 93.0662 110.359 92.8015 110.367 92.5426C110.367 92.4765 110.37 92.4103 110.376 92.347C110.385 92.1198 110.396 91.8955 110.413 91.674C110.419 91.579 110.428 91.4812 110.436 91.3863C110.445 91.2828 110.454 91.1792 110.465 91.0786C110.491 90.8053 110.526 90.5378 110.563 90.2703C110.58 90.1495 110.598 90.0287 110.618 89.9079C110.635 89.7871 110.655 89.6662 110.678 89.5454C110.698 89.4275 110.721 89.3124 110.744 89.1945C110.767 89.0823 110.79 88.9673 110.813 88.8551C110.833 88.7688 110.854 88.6796 110.874 88.5933C110.888 88.5214 110.905 88.4466 110.925 88.3747C110.943 88.3028 110.96 88.2309 110.98 88.159C111.046 87.8973 111.118 87.6412 111.196 87.3852C111.219 87.3105 111.242 87.2357 111.268 87.1609C111.337 86.9452 111.409 86.7294 111.486 86.5166C111.524 86.4102 111.564 86.3066 111.604 86.2002C111.61 86.1858 111.616 86.1685 111.622 86.1541C111.696 85.9614 111.774 85.7716 111.855 85.5817C111.944 85.3775 112.033 85.1791 112.128 84.9806C112.177 84.8799 112.223 84.7821 112.272 84.6843C112.369 84.4887 112.47 84.296 112.576 84.1061C112.628 84.0112 112.68 83.9192 112.735 83.8243C112.936 83.4676 113.152 83.1195 113.382 82.783C113.393 82.7657 113.405 82.7514 113.416 82.7341C113.641 82.4033 113.877 82.0812 114.124 81.7676C114.271 81.5807 114.42 81.3966 114.576 81.2182C114.846 80.8961 115.131 80.5854 115.43 80.2863C115.559 80.154 115.692 80.0245 115.824 79.898C115.853 79.8692 115.879 79.8433 115.907 79.8174C116.034 79.6966 116.163 79.5787 116.296 79.4636C116.322 79.4377 116.345 79.4147 116.37 79.3946C116.509 79.2738 116.644 79.153 116.785 79.0408C116.811 79.0149 116.839 78.9919 116.865 78.9718C116.96 78.8941 117.052 78.8164 117.15 78.7417C117.262 78.6496 117.377 78.5604 117.492 78.4742C117.541 78.4339 117.59 78.3965 117.642 78.3591C117.757 78.2728 117.872 78.1894 117.987 78.1088C118.059 78.0542 118.131 78.0053 118.203 77.9564C118.312 77.8787 118.421 77.8039 118.531 77.732C118.611 77.6745 118.689 77.6227 118.769 77.5738C118.873 77.5019 118.976 77.4358 119.083 77.3725C119.158 77.3236 119.232 77.2776 119.307 77.2344C119.434 77.1539 119.563 77.0762 119.693 77.0043C119.756 76.964 119.816 76.9266 119.88 76.895C120.041 76.8001 120.202 76.708 120.366 76.6217C120.386 76.6102 120.403 76.5987 120.423 76.5901C120.582 76.5038 120.74 76.4204 120.901 76.3399C120.976 76.2996 121.053 76.2593 121.131 76.2219C121.257 76.3255 121.381 76.4319 121.502 76.5412C122.471 77.4128 123.697 78.8452 124.036 80.7235C124.05 80.8127 124.065 80.9018 124.076 80.9939C123.875 81.0888 123.679 81.1924 123.484 81.2988C123.398 81.3448 123.314 81.3937 123.231 81.4426C123.144 81.4915 123.061 81.5404 122.978 81.5922C122.857 81.6641 122.739 81.7389 122.624 81.8165C118.554 84.4887 116.022 89.1341 116.022 92.8763C116.022 93 116.025 93.1237 116.031 93.2445C116.034 93.3452 116.04 93.443 116.048 93.5436C116.054 93.627 116.06 93.7076 116.071 93.791C116.086 93.9435 116.106 94.093 116.129 94.2426C116.137 94.3059 116.149 94.3692 116.16 94.4296C116.178 94.5302 116.198 94.6309 116.221 94.7316C116.235 94.7949 116.25 94.8582 116.264 94.9214C116.281 94.9933 116.301 95.0653 116.322 95.1372C116.322 95.14 116.322 95.1458 116.324 95.1487C116.347 95.2407 116.376 95.3356 116.405 95.4277C116.408 95.4478 116.416 95.4679 116.425 95.4881C116.451 95.5744 116.48 95.6635 116.511 95.7498C116.621 96.0605 116.747 96.3654 116.891 96.6645C116.943 96.771 116.995 96.8745 117.052 96.9809C117.193 97.2456 117.346 97.5073 117.515 97.7604C117.573 97.8525 117.636 97.9417 117.699 98.0308C117.751 98.1085 117.809 98.189 117.869 98.2667C118.068 98.5371 118.28 98.7988 118.511 99.0548C118.559 99.1124 118.608 99.167 118.663 99.2217C119.017 99.6071 119.402 99.9781 119.816 100.338C119.88 100.392 119.946 100.447 120.012 100.502C120.072 100.553 120.133 100.602 120.193 100.651C120.297 100.735 120.4 100.818 120.51 100.901C120.616 100.985 120.722 101.065 120.835 101.146C121.065 101.316 121.301 101.483 121.542 101.644C121.698 101.747 121.856 101.851 122.014 101.951C122.204 102.072 122.397 102.19 122.595 102.305C123.688 102.952 124.888 103.539 126.168 104.071C126.527 104.221 126.889 104.365 127.261 104.506C127.301 104.52 127.338 104.534 127.378 104.549C127.574 104.624 127.773 104.695 127.974 104.767C128.123 104.822 128.276 104.874 128.428 104.926C128.82 105.061 129.216 105.193 129.619 105.317C129.806 105.377 129.996 105.435 130.189 105.492C130.45 105.573 130.712 105.648 130.98 105.722C131.19 105.783 131.403 105.84 131.618 105.898C132.053 106.016 132.49 106.125 132.933 106.231C133.143 106.283 133.356 106.335 133.568 106.381C133.911 106.462 134.256 106.539 134.601 106.611C134.659 106.804 134.716 106.999 134.774 107.192C136.042 111.484 137.012 115.315 137.593 118.307Z" fill="white"/>
<path d="M156.142 82.3775L148.67 88.7114C148.143 87.8456 147.62 87.0287 147.085 86.2664C146.984 86.1226 146.886 85.9817 146.783 85.8436C146.728 85.7659 146.673 85.6911 146.616 85.6164C146.509 85.4668 146.4 85.323 146.288 85.1791C146.161 85.0152 146.038 84.8541 145.911 84.6988C145.831 84.5981 145.747 84.4974 145.667 84.3996C145.592 84.3133 145.52 84.227 145.445 84.1408C145.342 84.0171 145.235 83.8991 145.129 83.7812C145.123 83.7726 145.114 83.7639 145.106 83.7553C144.893 83.5195 144.677 83.2922 144.456 83.0736C144.366 82.9816 144.274 82.8953 144.182 82.8061C143.86 82.4983 143.532 82.2107 143.193 81.9403C143.092 81.8598 142.989 81.7792 142.885 81.7016C142.75 81.598 142.612 81.4973 142.471 81.4024C142.353 81.319 142.235 81.2385 142.114 81.1608C142.011 81.0946 141.907 81.0285 141.801 80.9652C141.789 80.9566 141.778 80.9479 141.763 80.9422C141.64 80.8674 141.513 80.7926 141.384 80.7236C141.366 80.7121 141.349 80.7035 141.329 80.6948C141.24 80.6431 141.151 80.597 141.059 80.551C140.992 80.5136 140.923 80.482 140.857 80.4503C140.757 80.3986 140.659 80.3525 140.555 80.3065C140.509 80.2835 140.463 80.2634 140.414 80.2432C140.337 80.2058 140.259 80.1742 140.178 80.1426C140.101 80.108 140.023 80.0764 139.945 80.0476C139.842 80.0045 139.735 79.9671 139.626 79.9297C139.618 79.924 139.609 79.9211 139.597 79.9182C139.471 79.8722 139.341 79.829 139.212 79.7888C139.134 79.7629 139.057 79.737 138.976 79.7169C138.89 79.6881 138.804 79.6651 138.714 79.6421C138.654 79.6248 138.594 79.6075 138.533 79.596C138.424 79.5644 138.309 79.5356 138.197 79.5126C137.705 79.3976 137.19 79.3113 136.658 79.2537C136.494 79.2336 136.33 79.2163 136.16 79.2048C136.146 79.2048 136.131 79.202 136.117 79.202C136.019 79.0064 135.921 78.8137 135.824 78.6238C134.725 76.4953 133.591 74.6975 132.375 73.1558C132.714 73.1241 133.054 73.0954 133.393 73.0695C133.528 73.0608 133.663 73.0522 133.801 73.0436C133.96 73.035 134.118 73.0263 134.276 73.0177C134.434 73.0091 134.592 73.0033 134.748 72.9976C134.863 72.9918 134.975 72.9889 135.087 72.9861C135.447 72.9774 135.806 72.9717 136.163 72.9717C148.29 72.9717 152.849 77.8875 156.142 82.3775Z" fill="white"/>
<path d="M158.248 129.505C158.248 130.051 158.237 130.595 158.214 131.135C158.208 131.268 158.202 131.403 158.196 131.538C158.185 131.765 158.17 131.996 158.153 132.223C158.144 132.364 158.133 132.505 158.121 132.646C158.104 132.858 158.084 133.071 158.061 133.284C158.05 133.425 158.035 133.563 158.018 133.701C157.983 134.023 157.943 134.34 157.897 134.656C157.871 134.843 157.842 135.027 157.814 135.211C157.785 135.401 157.753 135.588 157.719 135.775C157.687 135.953 157.656 136.132 157.618 136.31C157.561 136.615 157.494 136.92 157.425 137.219C157.388 137.383 157.351 137.547 157.31 137.708C157.27 137.866 157.23 138.024 157.19 138.183C157.187 138.191 157.184 138.197 157.184 138.203C157.141 138.361 157.097 138.516 157.054 138.672C157.008 138.83 156.962 138.988 156.913 139.146C156.827 139.434 156.735 139.722 156.637 140.003C156.603 140.113 156.562 140.219 156.522 140.326C156.332 140.861 156.125 141.384 155.901 141.899C155.849 142.014 155.797 142.129 155.746 142.244C155.449 142.891 155.127 143.518 154.773 144.128C154.71 144.24 154.644 144.35 154.578 144.462C154.497 144.597 154.414 144.732 154.328 144.867C154.224 145.031 154.118 145.192 154.008 145.354C153.968 145.417 153.925 145.48 153.879 145.543C153.755 145.725 153.629 145.903 153.499 146.078C151.543 148.73 148.931 150.905 145.572 152.401C145.399 152.478 145.221 152.553 145.042 152.628C144.864 152.7 144.686 152.772 144.505 152.841C144.315 152.913 144.125 152.985 143.929 153.054C143.754 153.117 143.576 153.177 143.394 153.238C143.351 153.252 143.308 153.267 143.262 153.281C143.121 153.327 142.977 153.37 142.833 153.413C142.756 153.439 142.675 153.462 142.595 153.485C142.457 153.525 142.316 153.566 142.175 153.606C142.134 153.615 142.097 153.626 142.054 153.638C141.873 153.686 141.689 153.735 141.502 153.779C141.292 153.83 141.076 153.882 140.86 153.928C140.547 153.997 140.227 154.063 139.902 154.121C139.75 154.15 139.597 154.175 139.442 154.201C139.431 154.204 139.416 154.207 139.402 154.21C139.16 154.25 138.916 154.288 138.668 154.322C138.409 154.36 138.148 154.391 137.883 154.423C137.633 154.452 137.38 154.478 137.124 154.501C137.095 154.501 137.066 154.506 137.035 154.509C136.825 154.529 136.612 154.547 136.399 154.561C136.321 154.567 136.241 154.572 136.16 154.578C135.942 154.593 135.723 154.604 135.499 154.616C135.464 154.616 135.43 154.618 135.395 154.618C135.231 154.627 135.067 154.633 134.9 154.636C134.759 154.641 134.616 154.644 134.472 154.647C134.216 154.653 133.954 154.656 133.692 154.656C133.43 154.656 133.189 154.653 132.941 154.647C132.691 154.647 132.447 154.636 132.202 154.624C131.992 154.616 131.782 154.607 131.575 154.593C131.371 154.581 131.164 154.567 130.962 154.549C130.804 154.538 130.646 154.524 130.491 154.509C130.379 154.501 130.266 154.489 130.154 154.475C129.953 154.454 129.754 154.431 129.559 154.406C129.452 154.394 129.349 154.383 129.248 154.368C129.099 154.348 128.949 154.328 128.802 154.305C128.736 154.296 128.673 154.285 128.61 154.273C128.446 154.25 128.285 154.224 128.123 154.196C128.083 154.187 128.043 154.181 128.003 154.173C127.798 154.138 127.594 154.098 127.393 154.058C127.18 154.017 126.967 153.971 126.757 153.922C126.593 153.888 126.429 153.848 126.268 153.807C126.144 153.779 126.027 153.75 125.909 153.718C125.756 153.681 125.607 153.64 125.46 153.597C125.27 153.546 125.083 153.491 124.899 153.436C124.583 153.341 124.272 153.244 123.967 153.134C123.544 152.993 123.136 152.838 122.733 152.68C122.607 152.628 122.483 152.576 122.359 152.524C122.149 152.435 121.939 152.343 121.735 152.251C121.577 152.179 121.419 152.107 121.263 152.033C121.252 152.027 121.24 152.021 121.226 152.015C121.085 151.946 120.944 151.877 120.806 151.805C120.602 151.705 120.397 151.598 120.199 151.492C120.072 151.423 119.949 151.354 119.825 151.285C119.627 151.173 119.428 151.057 119.235 150.942C119.126 150.876 119.017 150.81 118.91 150.744C118.761 150.652 118.614 150.56 118.467 150.465C118.321 150.37 118.177 150.272 118.033 150.177C117.604 149.89 117.184 149.588 116.779 149.271C116.644 149.168 116.509 149.061 116.376 148.955C116.425 148.837 116.471 148.719 116.517 148.604C117.999 144.867 119.086 141.542 119.747 138.7C119.747 138.706 119.756 138.709 119.759 138.715C119.857 138.836 119.96 138.956 120.064 139.074C120.222 139.258 120.38 139.44 120.547 139.618C120.636 139.722 120.731 139.825 120.832 139.926C120.955 140.061 121.085 140.193 121.217 140.326C121.741 140.855 122.299 141.373 122.894 141.864C123.003 141.957 123.113 142.046 123.225 142.132C123.317 142.207 123.409 142.279 123.501 142.351C123.642 142.463 123.789 142.569 123.935 142.676C123.938 142.681 123.944 142.684 123.95 142.687C124.096 142.796 124.246 142.903 124.396 143.004C124.554 143.116 124.715 143.222 124.879 143.329C124.994 143.406 125.109 143.481 125.227 143.553C125.273 143.582 125.319 143.61 125.368 143.639C125.517 143.734 125.667 143.823 125.819 143.91C125.831 143.918 125.845 143.927 125.86 143.935C126.029 144.033 126.202 144.131 126.38 144.226C126.564 144.327 126.749 144.424 126.938 144.519C127.292 144.698 127.652 144.87 128.026 145.031C128.052 145.043 128.077 145.054 128.106 145.066C128.296 145.149 128.489 145.23 128.684 145.308C128.696 145.308 128.704 145.313 128.716 145.319C129.127 145.483 129.55 145.635 129.984 145.776C130.194 145.848 130.41 145.914 130.626 145.978C130.637 145.981 130.646 145.983 130.655 145.986C130.87 146.053 131.086 146.113 131.308 146.17C131.319 146.17 131.331 146.176 131.342 146.179C131.529 146.228 131.719 146.274 131.912 146.32C131.966 146.332 132.021 146.346 132.073 146.357C132.291 146.409 132.51 146.455 132.734 146.498C133.197 146.593 133.672 146.674 134.158 146.743C134.207 146.749 134.256 146.757 134.305 146.763C134.495 146.789 134.687 146.812 134.88 146.835C134.969 146.846 135.058 146.855 135.148 146.864H135.153C135.349 146.887 135.545 146.904 135.743 146.921C135.778 146.924 135.809 146.927 135.844 146.927C136.336 146.97 136.842 146.996 137.357 147.01C137.411 147.013 137.463 147.013 137.518 147.013C137.771 147.022 138.024 147.025 138.283 147.025C138.395 147.025 138.51 147.025 138.622 147.019C138.735 147.013 138.847 147.013 138.962 147.005C139.327 146.984 139.698 146.95 140.066 146.895C140.144 146.884 140.219 146.872 140.296 146.861C140.659 146.803 141.018 146.731 141.381 146.645C141.49 146.619 141.599 146.59 141.709 146.562C141.824 146.533 141.936 146.501 142.051 146.467C142.163 146.435 142.275 146.401 142.385 146.366C142.474 146.337 142.566 146.309 142.655 146.277C142.747 146.248 142.839 146.216 142.928 146.185C143.202 146.09 143.472 145.986 143.739 145.874C147.019 144.514 149.95 142.043 151.457 139.005C151.526 138.867 151.589 138.729 151.65 138.591C151.667 138.557 151.684 138.519 151.698 138.485C151.75 138.37 151.796 138.255 151.842 138.137C151.851 138.117 151.86 138.093 151.868 138.073C151.917 137.944 151.963 137.814 152.009 137.685C152.021 137.651 152.029 137.619 152.041 137.587C152.084 137.455 152.124 137.323 152.164 137.19C152.288 136.756 152.38 136.319 152.441 135.873C152.458 135.775 152.469 135.674 152.478 135.577C152.489 135.49 152.495 135.404 152.504 135.318C152.51 135.231 152.515 135.142 152.518 135.056C152.524 134.996 152.527 134.935 152.527 134.872C152.53 134.777 152.533 134.679 152.533 134.581C152.533 134.409 152.53 134.239 152.527 134.072C152.527 133.963 152.524 133.859 152.518 133.753C152.518 133.644 152.515 133.537 152.51 133.431C152.504 133.313 152.501 133.195 152.492 133.08C152.484 132.925 152.475 132.769 152.464 132.617C152.418 131.981 152.351 131.371 152.259 130.793C152.245 130.69 152.228 130.592 152.21 130.491C152.196 130.39 152.179 130.29 152.159 130.192C152.153 130.16 152.147 130.129 152.141 130.097C152.113 129.948 152.081 129.798 152.049 129.651C151.954 129.203 151.842 128.771 151.719 128.36C151.693 128.268 151.664 128.176 151.632 128.084C151.601 127.98 151.566 127.877 151.532 127.779C151.506 127.695 151.477 127.615 151.445 127.537C151.422 127.462 151.394 127.388 151.365 127.316C151.279 127.085 151.186 126.861 151.089 126.643C151.06 126.573 151.028 126.504 150.997 126.438C150.962 126.361 150.928 126.283 150.887 126.208C150.847 126.122 150.804 126.036 150.761 125.949C150.718 125.863 150.672 125.78 150.626 125.696C150.344 125.173 150.033 124.687 149.699 124.235C149.645 124.163 149.59 124.091 149.538 124.022C149.406 123.852 149.268 123.686 149.13 123.525C148.992 123.363 148.851 123.208 148.701 123.059L148.563 122.46L148.339 121.488C147.976 119.943 147.623 118.419 147.275 116.92C146.656 114.254 146.066 111.72 145.483 109.243C145.488 109.246 145.497 109.249 145.503 109.252C145.647 109.309 145.79 109.37 145.931 109.43C146.084 109.491 146.233 109.557 146.383 109.623C146.515 109.683 146.648 109.747 146.78 109.807C146.852 109.841 146.921 109.873 146.99 109.91C147.18 110 147.364 110.095 147.548 110.192C147.66 110.25 147.772 110.31 147.881 110.374C147.974 110.422 148.063 110.474 148.152 110.526C148.511 110.733 148.862 110.952 149.208 111.188C149.334 111.277 149.464 111.366 149.59 111.458C149.717 111.55 149.84 111.645 149.967 111.74C150.091 111.835 150.214 111.933 150.335 112.033C150.459 112.134 150.577 112.237 150.697 112.341C155.392 116.463 158.248 123.473 158.248 129.505Z" fill="white"/>
</svg>
