<svg width="256" height="256" viewBox="0 0 256 256" fill="none" xmlns="http://www.w3.org/2000/svg">
<g clip-path="url(#clip0_3361_19045)">
<path d="M255.811 113.403C255.727 112.576 255.116 106.016 255.072 105.638C255.02 105.205 254.943 104.673 254.833 104.01C254.661 102.965 254.458 101.885 254.395 101.557C253.104 94.8882 251.01 88.567 248.175 82.7698C247.576 81.5455 244.818 76.9644 244.023 75.7037L243.989 75.6485C242.1 72.6442 239.262 69.4483 235.997 66.6496C233.554 64.5558 229.767 61.7395 225.557 60.1768C225.175 60.0229 220.682 58.8151 217.228 58.4074C214.528 58.089 210.532 58.2958 210.532 58.2958C206.277 58.7916 202.049 60.2873 197.966 62.7417C196.987 63.3292 196.021 63.9754 195.073 64.6675C194.753 63.7698 194.241 62.9415 193.545 62.233C192.293 60.9546 190.578 60.2344 188.789 60.2344L155.47 60.2285C155.351 60.2285 155.23 60.2321 155.11 60.2379C148.625 60.5892 142.609 64.2668 137.711 70.8712C137.382 71.3141 137.066 71.7618 136.761 72.2106C136.226 70.333 135.524 68.6435 134.659 67.1595C132.261 63.0449 128.571 60.5928 124.269 60.2556C124.097 60.2415 123.923 60.2356 123.75 60.2356C123.749 60.2356 86.5248 60.2591 86.5248 60.2591C86.0325 60.2591 85.5402 60.3143 85.0596 60.4236C82.7671 60.9417 80.8813 62.5302 79.8825 64.7826C79.4901 65.6673 79.3079 66.4886 79.2092 66.9304C79.2022 66.9645 79.1951 66.9974 79.1869 67.0279C76.1883 79.0229 73.2684 91.2353 70.4367 103.115C70.4214 102.978 70.4061 102.84 70.3909 102.703C69.9573 98.8383 69.5096 94.8424 69.0995 90.9321C68.9456 89.4646 68.814 87.8738 68.6754 86.1889C68.1854 80.2625 67.6308 73.5465 65.7273 67.9702L65.7049 67.9056C65.4182 67.0644 64.9847 65.7919 64.1821 64.5147C62.6253 62.0379 60.2694 60.5258 57.5493 60.2591C56.4506 60.151 55.2627 60.0993 53.9162 60.0993C52.4909 60.0993 51.0774 60.1569 49.7096 60.2133C48.4195 60.2661 47.201 60.3167 46.0483 60.3167C45.3516 60.3167 44.7476 60.2979 44.2024 60.2603C44.0497 60.2497 43.8957 60.2438 43.7418 60.2438C43.441 60.2438 43.1414 60.2638 42.8429 60.3049C38.3791 60.9123 35.7612 64.8825 34.0281 67.5097C33.8283 67.8116 33.6227 68.1241 33.5134 68.2745C33.3043 68.5636 33.1186 68.8691 32.9588 69.1875C28.213 78.6293 23.2286 88.1769 18.4088 97.412C13.7111 106.412 8.85365 115.718 4.1983 124.958C4.16422 125.016 4.0902 125.136 4.03497 125.225C3.8082 125.592 3.498 126.093 3.2113 126.694C3.14667 126.83 2.80709 127.553 2.50629 128.4C2.25602 129.103 1.64502 130.824 1.98342 132.826C0.720291 134.073 -0.00115967 135.777 -0.00115967 137.567V169.702C-0.00115967 171.469 0.701492 173.163 1.95052 174.412C3.19955 175.661 4.8939 176.362 6.65993 176.362C6.65993 176.362 6.81973 176.362 7.12523 176.362C6.2616 177.967 5.4673 179.571 4.6965 181.131C3.67072 183.206 2.70252 185.165 1.63209 187.013C1.23964 187.691 0.969392 188.432 0.834267 189.203L0.685041 190.054C0.340766 192.018 0.895367 194.033 2.19609 195.546C3.46275 197.019 5.30867 197.864 7.24625 197.864C7.29678 197.864 7.34848 197.864 7.399 197.861L14.8086 197.691C15.1329 197.684 15.456 197.652 15.7744 197.598C16.7297 197.833 17.6568 197.88 18.4616 197.88C20.4779 197.88 21.5366 197.534 21.9173 197.403C22.5953 197.569 23.3344 197.685 24.1416 197.738C24.7503 197.778 25.4165 197.814 26.1603 197.814C27.2812 197.814 30.3186 197.813 33.0176 196.106C34.6884 197.064 36.6342 197.624 38.7751 197.743H38.8045C39.0489 197.758 39.4589 197.78 39.9278 197.78C40.3108 197.78 41.0452 197.78 41.9335 197.615C42.5175 197.779 43.1179 197.864 43.7312 197.864H46.1987C46.9766 197.864 47.8343 197.722 48.6874 197.4C49.4735 197.709 50.2924 197.864 51.1337 197.864H53.4838C55.0982 197.864 56.3014 197.294 57.0252 196.852C58.0063 197.42 59.1437 197.746 60.3575 197.746H69.3463C69.8656 197.746 70.4003 197.675 70.8914 197.576C71.5259 197.754 72.1886 197.848 72.8631 197.848C73.3848 197.848 73.8395 197.792 74.1779 197.733C74.5927 197.729 75.0039 197.727 75.4046 197.727C76.7476 197.727 78.0483 197.751 79.2703 197.798C79.3561 197.801 79.4407 197.803 79.5265 197.803C79.9577 197.803 80.3878 197.76 80.8108 197.678C81.3795 197.814 81.9693 197.884 82.5733 197.884C82.9422 197.884 83.2818 197.857 83.5744 197.82C83.8482 197.852 84.1619 197.874 84.5038 197.874C84.8446 197.874 85.183 197.851 85.5178 197.806C85.8739 197.857 86.2358 197.885 86.6047 197.885C87.2392 197.885 87.7832 197.805 88.1639 197.733H88.1651C88.8008 197.733 89.5352 197.76 90.3118 197.789C91.2025 197.821 92.1249 197.854 93.059 197.854C94.1776 197.854 95.1387 197.804 95.9977 197.7C96.1422 197.683 96.2832 197.662 96.4242 197.637C96.9765 197.784 97.551 197.864 98.135 197.864H100.133C101.418 197.864 102.634 197.582 103.71 197.061C104.554 197.474 105.549 197.746 106.713 197.746H109.944C110.052 197.746 110.16 197.743 110.267 197.738C110.374 197.743 110.482 197.746 110.59 197.746H119.285C120.352 197.746 121.278 197.512 122.074 197.155C122.97 197.589 123.967 197.825 125.013 197.825C125.319 197.825 125.668 197.804 126.044 197.746H126.183C126.555 197.819 126.931 197.86 127.309 197.872C127.382 197.874 127.454 197.875 127.525 197.875C130.183 197.875 132.593 196.419 133.975 193.977C134.275 193.448 134.5 192.88 134.646 192.289L134.692 192.103C135.762 193.86 137.238 195.287 139.049 196.28C141.804 197.791 145.536 197.834 145.952 197.834C146.225 197.834 146.492 197.826 146.744 197.808C147.067 197.786 147.457 197.737 147.889 197.639C148.497 197.793 149.128 197.874 149.767 197.874C150.406 197.874 150.95 197.796 151.316 197.731C151.446 197.73 151.583 197.729 151.729 197.729C152.158 197.729 152.599 197.734 153.064 197.742C153.555 197.749 154.064 197.756 154.588 197.756C155.582 197.756 156.41 197.729 157.195 197.671C157.655 197.637 158.109 197.556 158.552 197.429C159.067 197.281 159.532 197.091 159.952 196.874C161.509 197.503 163.016 197.672 164.108 197.738L164.272 197.749C164.846 197.784 165.496 197.825 166.219 197.825C167.458 197.825 168.608 197.689 169.667 197.42C170.416 197.684 171.218 197.825 172.044 197.825C172.508 197.825 172.887 197.783 173.138 197.754C173.198 197.747 173.281 197.739 173.3 197.737C173.38 197.734 173.469 197.733 173.568 197.733C173.994 197.733 174.605 197.75 175.252 197.766C176.126 197.789 177.115 197.814 178.101 197.814C180.761 197.814 182.906 197.643 184.724 196.804C187.009 195.75 188.797 193.644 189.894 190.713C190.23 189.817 190.971 187.544 190.866 185.192C191.048 184.804 191.226 184.362 191.367 183.874C191.839 182.229 192.202 179.187 191.339 176.304L197.36 176.301C199.124 176.301 200.763 175.606 201.975 174.44C202.224 174.549 202.474 174.656 202.725 174.761C206.527 176.327 210.381 177.155 213.87 177.155C214.68 177.155 215.482 177.111 216.256 177.025C218.176 176.81 222.743 176.387 226.066 174.767C236.459 169.7 242.324 162.514 245.896 156.543L246.009 156.355C247.847 153.285 252.134 142.284 252.844 140.219C253.414 138.614 253.799 136.578 254.109 134.941C254.165 134.647 254.218 134.369 254.267 134.116C255.374 128.494 256.439 119.696 255.806 113.402L255.811 113.403ZM130.627 122.188C130.812 121.658 130.986 121.139 131.155 120.624C132.915 124.62 135.32 128.025 138.311 130.732C136.15 130.743 133.998 130.754 131.869 130.766C130.002 130.777 128.119 130.787 126.227 130.797C127.964 128.561 129.383 125.765 130.627 122.188ZM159.045 90.7207C159.239 90.414 159.402 90.1849 159.531 90.0157C160.365 90.0251 161.242 90.0298 162.182 90.0298C164.033 90.0298 165.9 90.0122 167.705 89.9957C169.48 89.9793 171.315 89.9616 173.104 89.9616C174.46 89.9616 175.677 89.971 176.813 89.991C176.952 90.0157 177.117 90.0415 177.305 90.0627C175.219 95.9421 173.702 102.585 173.039 108.789C172.584 108.791 172.113 108.792 171.623 108.792C169.911 108.792 168.156 108.778 166.458 108.765C164.734 108.751 162.952 108.737 161.187 108.737C160.521 108.737 159.89 108.74 159.283 108.743C158.301 107.608 156.848 104.78 156.336 102.603C155.583 99.387 156.722 94.39 159.044 90.7207H159.045Z" fill="#FFFEFC"/>
<path d="M6.66109 169.702V137.567C7.08996 137.207 7.83021 137.483 8.39539 137.479C41.8724 137.22 75.4997 137.523 109.185 137.514C131.251 137.507 153.701 137.162 175.825 137.467C176.727 137.48 178.08 136.989 178.504 137.978C179.1 139.368 179.431 141.898 179.916 143.498C180.479 145.356 181.181 147.221 181.915 149.019C185.183 157.023 190.254 164.608 197.36 169.643L6.65991 169.702H6.66109ZM112.512 138.228H111.605C111.36 139.697 111.375 141.241 111.235 142.735C111.032 144.9 110.509 147.369 110.779 149.537C110.904 150.534 111.431 150.709 112.029 149.89L111.824 147.436C111.87 145.035 112.724 142.383 112.767 140.039C112.779 139.428 112.687 138.812 112.511 138.228H112.512ZM34.9469 144.941C34.5474 144.533 33.3336 144.472 32.8049 144.679L32.5241 144.48C32.463 144.291 32.7356 142.873 32.8014 142.556C32.9529 141.83 33.8342 139.568 33.5111 139.034C33.43 138.899 33.1398 138.777 32.9847 138.852C32.094 139.286 31.6534 142.757 31.3996 143.739C30.9225 145.581 30.5888 144.319 29.3045 144.699C29.0343 144.779 28.8157 145.307 28.4433 145.349C27.7371 145.426 26.7736 144.659 25.6667 144.938C25.3436 145.021 23.4542 146.402 23.3191 146.704C23.1381 147.11 22.8197 150.139 22.983 150.355C23.1922 150.631 23.8267 150.605 24.0558 150.26C24.5082 149.578 24.1099 148.278 24.8936 147.22C25.9182 145.84 27.3082 146.758 28.5725 146.673C29.0919 146.637 30.3996 145.974 30.751 146.375C31.2856 146.988 30.1024 150.282 30.946 150.537C32.0964 150.649 31.7368 148.898 31.8085 148.141C31.8414 147.79 31.9166 146.868 32.0552 146.626C32.3725 146.072 33.4993 146.217 34.0668 146.052C34.4605 145.938 35.3899 145.391 34.9469 144.94V144.941ZM12.5373 144.91L13.1095 141.806C13.0484 141.546 12.294 141.537 12.1237 141.737C11.7571 142.802 11.6713 143.941 11.421 145.029C11.3059 145.528 10.9075 146.271 10.897 146.747C10.8911 147.043 11.1061 147.237 11.1296 147.55C11.1684 148.058 10.783 151.041 11.9533 150.261C12.5361 149.381 11.7911 147.535 12.4832 146.796C14.6464 145.595 18.7989 144.149 18.2654 141.001C17.7566 137.999 12.5937 138.769 11.065 140.443C10.6866 140.857 10.3741 141.917 11.0685 141.978C11.5937 142.025 13.0989 140.879 13.6277 140.656C14.5712 140.256 16.9553 139.981 17.2185 141.354C17.3372 141.972 15.6311 143.398 15.1094 143.782C14.3562 144.338 13.5055 144.882 12.5349 144.908L12.5373 144.91ZM65.6192 145.588C65.712 145.494 65.8894 144.946 65.8271 144.796C65.3724 143.697 61.9167 144.789 61.348 145.488C60.3081 146.767 64.0165 148.027 63.8837 148.609C63.3961 149.115 61.1589 149.24 60.9991 149.952C60.8393 150.664 62.5183 150.573 62.9496 150.498C63.5535 150.393 65.732 149.435 65.7308 148.752C65.7273 147.546 64.0447 146.978 63.3279 146.354C63.2457 146.283 63.1047 146.359 63.1787 146.085C63.6452 146.179 65.3219 145.887 65.618 145.587L65.6192 145.588ZM86.2851 147.537C86.0125 147.265 84.3405 146.382 84.3322 146.261C85.0607 145.777 86.9948 146.202 86.9114 144.975C86.8279 143.748 84.3017 144.504 83.5908 144.816C81.645 145.675 82.4722 146.609 83.753 147.542C84.0585 147.764 85.1547 148.172 85.0278 148.596C84.8786 149.097 82.719 149.03 82.3042 149.874C81.8894 150.719 83.5121 150.599 84.0079 150.521C84.5038 150.442 86.6423 149.494 86.7727 149.055C86.9407 148.493 86.6764 147.926 86.2851 147.535V147.537ZM132.739 146.204C133.309 146.277 135.32 146.068 135.442 145.439C135.531 144.988 135.254 144.394 134.788 144.32C134.433 144.264 132.669 144.696 132.269 144.852C131.868 145.007 131.009 145.706 130.794 145.736C130.093 145.836 128.25 144.729 127.37 144.997C127.054 145.094 125.139 146.393 124.998 146.628C124.748 147.043 124.393 149.879 124.575 150.313C124.777 150.792 125.32 150.887 125.622 150.424C125.952 149.919 125.814 148.32 126.369 147.412C127.223 146.014 128.645 146.746 129.858 146.798C130.251 146.815 130.639 146.621 130.977 146.721C131.165 146.776 133.433 148.41 133.506 148.55C133.661 148.761 133.445 148.843 133.291 148.93C132.592 149.326 130.559 149.249 130.875 150.349C131.191 151.449 134.517 149.99 135.048 149.453C136.42 148.069 133.322 147.046 132.736 146.203L132.739 146.204ZM104.774 147.554C104.666 146.948 104.852 146.081 104.774 145.439C103.803 144.835 103.689 145.688 103.666 146.496C103.616 148.182 104.244 150.589 106.365 150.438C107.904 150.329 109.332 147.791 109.651 146.438C109.798 145.817 110.018 145.029 109.594 144.491C109.476 144.423 109.195 144.638 109.117 144.729C108.665 145.259 108.367 146.654 107.808 147.415C107.211 148.228 106.04 149.285 105.142 148.242C105.052 148.139 104.794 147.668 104.774 147.553V147.554ZM118.3 145.276C117.793 146.879 117.948 149.131 119.404 150.196C121.241 151.542 123.138 149.014 123.715 147.459C123.892 146.981 124.543 144.587 123.865 144.441C123.16 144.984 123.023 146.09 122.579 146.91C122.101 147.791 121.136 149.182 119.962 148.698C118.788 148.214 119.183 146.391 119.093 145.397L118.3 145.276ZM53.0431 144.586C52.3311 144.689 50.5686 145.835 50.2043 146.446C49.1832 148.16 50.7542 151.273 52.8434 150.729C53.2029 150.635 54.2381 149.985 54.5401 149.724C55.5235 148.873 55.782 148.016 55.5071 146.764C55.2122 145.423 54.6047 144.358 53.0431 144.585V144.586ZM81.1198 144.83C79.9718 143.875 77.1917 145.502 76.7029 146.626C76.0896 148.032 76.7312 150.052 78.1917 150.637C79.4783 151.153 81.4899 149.778 81.9482 148.581C82.3265 147.593 81.9446 145.518 81.1198 144.832V144.83ZM100.748 144.586C99.881 144.719 98.1726 145.895 97.8201 146.709C96.96 148.691 98.7789 151.612 101.134 150.492C102.679 149.757 103.713 148.276 103.215 146.528C102.861 145.285 102.166 144.37 100.748 144.586ZM43.6513 144.815C42.4411 144.383 40.4765 144.922 40.1604 146.273C39.7691 147.947 41.0804 148.322 42.4246 147.745C42.5386 147.768 42.8664 148.207 42.9052 148.323C43.0215 148.674 43.1531 150.483 43.0838 150.841C43.0662 150.933 43.0474 151.02 42.9816 151.092C41.4411 151.71 37.4555 151.795 37.0302 153.834C36.5907 155.935 39.3367 159.198 41.4975 157.597C43.7453 155.932 44.2 152.15 44.032 149.548C43.9662 148.521 43.7265 147.384 43.206 146.496C42.9287 146.328 42.1191 146.476 41.7654 146.48C41.6115 146.481 41.5081 146.585 41.4423 146.323C42.1978 145.823 42.931 145.878 43.7829 145.724L43.6525 144.816L43.6513 144.815ZM74.3024 144.936C73.843 144.976 73.1732 145.82 72.5117 145.843C72.2838 145.851 72.0793 145.692 71.842 145.749C71.0782 145.937 71.023 148.927 71.6352 149.322C72.2133 149.695 73.0146 147.787 73.2837 147.436C73.4094 147.273 73.9946 146.689 74.1661 146.702C75.0803 147.073 74.4328 150.256 75.2342 150.405C75.3987 150.436 76.0273 150.299 76.0884 150.123C76.1225 150.025 76.0073 148.266 75.9733 148.036C75.8722 147.344 75.2001 144.859 74.3012 144.936H74.3024ZM58.8018 145.05C58.4035 145.128 58.0439 145.566 57.6797 145.697C57.3154 145.829 56.4729 145.793 56.3014 145.964C55.8925 146.391 55.7527 149.149 56.1827 149.228C56.4424 149.088 56.8442 149.211 57.0687 149.081C57.5492 148.804 57.9264 146.794 58.8746 146.683C59.6055 146.805 59.3082 149.491 59.5949 150.08C59.7547 150.408 60.7394 150.494 60.8275 150.022C60.8921 149.681 60.757 148.447 60.6971 148.038C60.569 147.167 59.9721 144.821 58.8006 145.051L58.8018 145.05ZM46.7287 148.789C47.6781 148.305 49.4265 148.927 49.5534 147.56C49.7296 145.672 48.3114 144.585 46.5301 145.358C44.5784 146.205 44.3269 149.097 46.1012 150.295C46.7275 150.718 48.2397 151.188 48.6369 150.284C49.168 149.075 46.8849 149.881 46.7275 148.789H46.7287ZM116.483 150.508C117.713 149.306 114.84 149.763 114.762 148.847C114.818 148.588 116.74 148.672 117.225 148.254C118.108 147.493 117.317 145.263 116.002 145.139C113.912 144.943 112.552 146.657 112.935 148.675C113.186 149.995 115.44 151.526 116.483 150.508ZM96.3972 146.637C96.8319 146.292 96.4806 145.646 96.0494 145.471C94.8473 144.982 92.9556 146.568 92.5479 147.666C91.9944 149.157 92.7652 150.847 94.4878 150.786C94.9449 150.77 96.8648 150.195 97.0798 149.847C97.242 149.585 97.1292 149.129 96.8166 149.041C96.1022 148.839 94.8579 149.767 93.9696 149.193C93.059 148.605 94.0906 147.696 94.6793 147.328C95.2045 147 96.1034 146.869 96.3972 146.636V146.637ZM18.9998 148.786C18.7754 148.551 19.5732 147.931 19.7929 147.873C20.3405 147.73 20.5414 148.087 20.9397 148.091C21.6847 148.097 21.4109 146.664 20.7964 146.344C19.1173 145.467 16.1974 148.753 18.1843 150.247C19.2454 151.045 19.6883 149.947 20.3522 149.893C21.0161 149.839 21.8362 151.421 22.7563 150.49C22.4825 149.961 21.942 149.639 21.5848 149.196C21.2781 148.818 21.2617 148.16 20.6154 148.22C20.344 148.246 19.0597 148.846 19.001 148.784L18.9998 148.786ZM35.8023 148.786C35.6942 148.24 36.7505 147.744 37.1571 147.778C37.3651 147.796 37.5108 148.044 37.7481 148.081C38.6294 148.224 38.3897 146.59 37.6506 146.291C35.8893 145.575 33.195 148.791 35.0903 150.261C36.1243 151.063 36.6436 149.924 37.2899 149.87C37.828 149.825 38.6317 151.079 39.0653 150.877C39.0876 150.669 39.3943 150.603 39.4331 150.475C39.5376 150.134 38.11 148.589 37.8327 148.214L35.8011 148.785L35.8023 148.786ZM137.05 149.158C136.63 149.28 136.597 150.408 136.461 150.806C136.283 151.325 135.195 152.907 135.375 153.251C135.43 153.353 135.675 153.525 135.789 153.555C137.048 153.894 138.197 150.069 137.443 149.193L137.049 149.159L137.05 149.158ZM173.658 159.919C174.049 160.324 174.36 159.758 174.424 159.393C174.673 157.978 174.628 156.285 174.806 154.84C174.91 154.001 175.68 150.44 175.451 149.961C175.32 149.688 174.816 149.467 174.582 149.798C174.267 150.246 174.181 152.459 174.086 153.18C173.858 154.89 173.558 156.617 173.508 158.359C173.497 158.71 173.444 159.697 173.659 159.92L173.658 159.919ZM144.227 161.918C144.458 161.684 144.222 159.089 144.256 158.482C144.371 156.447 144.939 154.252 145.076 152.252C145.123 151.569 145.345 149.654 144.209 149.872C143.577 149.994 143.824 151.759 143.784 152.254C143.608 154.445 143.234 156.622 143.13 158.82L143.316 161.859C143.436 162.118 144.043 162.103 144.227 161.919V161.918ZM71.4037 156.072C71.5541 155.307 71.6692 154.524 71.8584 153.766C72.0253 153.102 72.8301 151.222 72.4694 150.717C72.3402 150.537 71.97 150.373 71.7574 150.484C70.9642 150.902 70.4989 155.223 70.083 156.162C69.8891 156.368 68.6354 156.098 68.1959 156.191C68.129 156.205 67.6566 156.862 67.2242 156.891C66.9081 156.912 66.3242 156.601 65.9258 156.554C65.578 156.512 64.8801 156.492 64.5534 156.566C64.3384 156.614 62.6182 157.705 62.4701 157.89C61.9414 158.545 62.1881 159.374 62.1188 160.123C62.08 160.541 61.7334 161.664 61.9379 161.954C62.1224 162.108 62.5407 162.117 62.7486 162.044C63.3432 161.838 63.0236 159.074 64.4324 158.206C65.4676 157.568 66.5333 158.265 67.5826 158.191C68.1008 158.154 69.2969 157.557 69.7657 157.885C70.3709 158.308 68.4204 162.936 70.5824 161.888C71.09 160.982 70.3932 158.296 71.3767 157.865C71.8913 157.64 74.4105 157.59 73.9311 156.543C73.8618 156.392 73.3565 156.071 73.2249 156.071H71.4037V156.072ZM102.19 157.718C102.961 157.326 104.89 157.744 104.742 156.38C104.623 155.296 102.441 156.009 101.816 156.227C100.352 156.741 99.4616 157.467 101.025 158.705C101.653 159.202 102.654 159.379 102.898 160.24C101.877 160.731 100.761 160.626 99.9586 161.537C100.263 162.208 101.452 162.141 102.075 162.007C102.578 161.899 104.486 160.942 104.634 160.454C104.836 159.787 104.331 159.199 103.828 158.84C103.635 158.703 101.967 158.014 102.191 157.718H102.19ZM123.472 158.056C123.094 157.389 125.106 157.484 125.482 157.334C126.512 156.922 125.901 155.649 124.941 155.728C124.412 155.771 121.801 156.586 121.58 156.986C120.775 158.448 123.692 159.125 124.15 160.127C124.15 160.584 122.032 160.709 121.7 160.955C121.528 161.082 121.192 161.714 121.459 161.889C123.339 162.588 128.032 160.624 124.71 158.639C124.503 158.516 123.506 158.117 123.472 158.057V158.056ZM165.286 157.836C165.79 157.529 167.29 157.543 167.575 157.246C167.928 156.879 167.744 156.06 167.223 155.958C165.944 155.709 164.222 156.635 163.11 157.198C161.948 156.999 160.456 156.244 159.331 156.757C158.995 156.911 157.375 158.04 157.243 158.312C157.055 158.697 156.82 161.643 157 161.949C157.242 162.196 157.777 162.315 158.011 162.017C158.245 161.72 158.349 159.841 158.68 159.163C159.617 157.251 161.819 158.474 163.435 158.335C163.786 158.674 166.206 159.913 165.866 160.415C165.345 160.694 162.893 160.845 163.069 161.757C163.296 162.929 166.925 161.612 167.457 160.889C167.862 160.337 167.607 159.53 167.105 159.129C166.935 158.993 165.017 158.125 165.284 157.837L165.286 157.836ZM80.4524 158.186C80.685 157.022 83.2571 157.864 82.8705 156.654C82.5357 155.606 80.2867 156.412 79.7063 156.912C78.8767 157.627 78.8367 159.413 80.1539 159.49C80.8789 159.532 81.437 158.937 81.8459 159.672C82.0997 160.128 82.2443 162.127 82.0398 162.536C81.9658 162.684 81.8213 162.713 81.6826 162.766C80.1845 163.335 77.3233 163.215 76.3587 164.727C75.8605 165.507 75.9509 166.193 76.2482 167.032C76.5948 168.007 78.0577 169.617 79.1187 169.693C80.0764 169.763 81.3101 168.59 81.7942 167.812C83.0433 165.804 83.31 161.972 82.8905 159.686C82.5874 158.037 82.1726 157.556 80.4536 158.187L80.4524 158.186ZM92.0532 156.1C91.3482 156.219 89.5704 157.347 89.2402 157.987C88.2814 159.848 89.749 162.845 92.0308 162.188C93.4432 161.781 94.8191 160.282 94.6382 158.745C94.4655 157.284 93.7687 155.811 92.052 156.1H92.0532ZM118.608 156.1C118.038 156.198 116.465 157.12 116.067 157.553C114.431 159.327 116.165 162.946 118.588 162.189C119.253 161.981 120.482 160.917 120.807 160.295C121.609 158.757 120.767 155.731 118.608 156.1ZM151.522 156.912C150.746 156.579 150.471 156.919 150.378 157.672C150.162 159.416 150.931 162.277 153.126 162.064C155.253 161.859 156.496 158.178 156.695 156.375C156.632 156.112 156.039 156.12 155.826 156.307C155.672 156.442 154.955 158.352 154.621 158.86C154.091 159.666 153.373 160.659 152.274 160.214C151.042 159.713 151.674 157.902 151.522 156.913V156.912ZM51.7906 163.13C54.6059 163.181 57.7325 160.313 55.6587 157.541C54.4931 155.984 52.4204 156.505 51.1326 157.596C50.1608 158.42 49.121 160.033 50.7319 160.726C50.8059 161.949 50.4652 163.151 50.3735 164.357C50.3406 164.784 50.3923 165.218 50.3712 165.647C50.323 166.588 49.8248 168.152 50.9222 168.626L51.4698 168.038L51.7917 163.13H51.7906ZM97.9282 156.56C97.6133 156.619 96.96 157.21 96.5499 157.315C96.1398 157.421 95.5923 157.077 95.2656 157.55C95.0224 157.902 94.8356 160.468 95.3314 160.638C96.7097 161.11 96.7391 158.272 98.1397 158.205C98.6919 158.259 98.1503 161.552 98.981 161.806C99.4016 161.934 99.7976 161.913 99.8481 161.421C99.8763 161.147 99.7647 159.749 99.7212 159.422C99.6155 158.628 99.0162 156.358 97.9282 156.56ZM85.7387 160.302C86.2722 160.253 88.1545 160.008 88.4295 159.644C88.8407 159.1 88.6022 157.744 88.1486 157.245C86.4038 155.319 82.7072 158.098 84.2523 160.788C84.4509 161.134 85.2053 161.894 85.5566 162.069C86.1088 162.345 87.4472 162.553 87.6716 161.824C87.97 160.85 86.4484 160.992 85.8856 160.571C85.781 160.494 85.6753 160.569 85.7387 160.302ZM110.652 157.247C110.406 158.125 109.897 159.613 110.465 160.428C110.676 160.729 110.96 160.892 111.303 160.663C111.911 160.257 112.274 158.401 113.284 158.189C113.794 158.299 113.744 160.928 113.913 161.445C114.216 162.37 115.097 161.933 115.12 161.062C115.143 160.118 114.895 158.459 114.457 157.613C113.258 155.296 112.383 157.976 110.652 157.248V157.247ZM149.864 159.804C150.193 159.522 149.997 158.085 149.759 157.676C148.95 156.293 146.957 156.61 146.013 157.656C144.906 158.882 145.065 160.568 146.204 161.699C146.8 162.29 148.691 162.939 149.018 161.954C149.376 160.882 147.899 161.28 147.263 160.781L147.189 160.421C147.635 160.371 148.176 160.35 148.606 160.25C148.8 160.206 149.773 159.881 149.863 159.804H149.864ZM131.521 157.143C131.147 157.269 131.449 158.225 131.529 158.516C131.666 159.015 132.487 161.371 132.752 161.64C133.38 162.281 134.47 160.908 134.915 160.421C135.22 160.086 137.064 157.769 137.064 157.54L136.58 157.148C135.216 157.597 134.539 158.926 133.403 159.706C132.579 159.339 132.573 156.788 131.523 157.144L131.521 157.143ZM74.6949 160.418C74.9087 159.394 76.1272 158.99 76.9203 159.668C77.489 159.83 77.5595 157.689 76.1648 157.655C75.3564 157.635 73.6515 158.946 73.5304 159.783C73.2273 161.883 74.8006 162.726 76.3998 161.356C76.7253 161.356 78.543 163.374 78.4467 162.021C78.4349 161.851 78.3468 161.519 78.2692 161.367C78.2117 161.255 77.1259 159.939 77.0437 159.89C76.2893 159.433 74.8923 160.607 74.6949 160.417V160.418ZM58.1755 159.767C58.5797 159.42 58.9263 159.286 59.4704 159.368C59.7441 159.409 60.0837 159.77 60.3023 159.481C60.3352 159.437 60.3704 158.508 60.3352 158.387C60.2294 158.027 59.6243 157.697 59.2459 157.71C58.5797 157.731 57.5304 158.48 57.0651 158.947C56.2661 159.751 56.4118 161.046 57.2273 161.787C57.9781 162.47 58.79 161.752 59.4974 161.375C60.1554 161.694 61.0026 162.755 61.717 162.064C61.8321 161.928 61.7193 161.869 61.6559 161.768C61.2082 161.054 60.3645 160.523 59.9862 159.73L57.9523 160.303C57.7384 160.102 58.0239 159.898 58.1767 159.766L58.1755 159.767ZM140.611 159.716C141.377 159.813 141.048 158.69 140.82 158.272C140.231 157.191 138.039 158.407 137.574 159.203C137.013 160.162 137.231 162.271 138.668 162.187C139.26 162.151 139.772 161.555 140.193 161.593C140.804 161.651 141.397 162.948 142.375 162.358C142.578 162.215 142.265 161.898 142.166 161.744C141.729 161.063 141.101 160.528 140.612 159.89V159.716H140.611ZM174.201 162.283C174.473 161.942 174.292 160.744 173.825 160.788C172.912 160.875 173.187 162.601 174.201 162.283Z" fill="#EB1C24"/>
<path d="M86.5272 66.9188L123.748 66.8953C128.499 67.2677 130.334 72.8522 130.961 76.8365C132.184 84.6028 131.574 92.8697 126.04 98.9101C125.517 99.4811 124.564 99.6762 125.012 100.646C125.988 102.762 126.727 103.539 127.087 106.089C127.615 109.83 125.607 116.345 124.335 119.998C121.402 128.423 117.544 131.49 108.48 131.872H70.8691L70.5142 131.753C71.211 128.564 71.9642 125.38 72.7268 122.206C77.012 104.348 81.1997 86.4346 85.6518 68.6283C85.7881 68.082 85.9232 67.0551 86.5272 66.9188ZM93.1424 101.906L93.5584 101.795C95.859 99.0394 97.7813 95.6485 100.077 92.9214C100.398 92.5407 100.726 92.1565 101.137 91.8663L113.711 91.75C114.319 91.5644 115.118 89.5811 115.37 88.9442C115.747 87.9914 116.202 87.1196 115.843 86.0786C115.691 85.6333 114.664 83.7968 114.29 83.6382C114.025 83.5254 113.674 83.5947 113.39 83.5054L97.6262 83.5971L93.1424 101.906ZM90.145 115.302H105.89C106.957 115.302 109.075 113.451 109.576 112.524C110.142 111.475 110.841 109.132 110.887 107.952C110.904 107.539 110.84 107.172 110.421 107.011L92.3516 107.043C92.0473 107.192 91.9122 107.701 91.7947 108.022C91.1813 109.7 90.4387 112.57 90.1191 114.335C90.0768 114.566 89.8877 115.23 90.145 115.302Z" fill="#EB1C24"/>
<path d="M66.4687 131.868H52.4274C52.1184 131.492 52.0949 130.872 52.0302 130.385C51.5802 127.003 51.2865 123.567 50.9575 120.179C50.8987 119.575 50.7812 118.949 50.6637 118.355C50.4322 118.359 50.2219 118.802 50.1162 118.983C49.5063 120.022 49.0892 121.353 48.5358 122.455C47.5711 124.374 46.4478 126.468 45.3386 128.305C44.5984 129.532 43.8135 130.865 42.7924 131.868H8.71733C8.17565 131.868 9.1039 129.817 9.22728 129.558C9.47168 129.046 9.87235 128.504 10.1297 127.993C19.5461 109.3 29.5113 90.8815 38.9125 72.1788C39.9324 70.7689 41.9335 67.15 43.743 66.9045C47.9506 67.1959 52.7623 66.4815 56.8983 66.888C58.3964 67.0349 58.9968 68.8749 59.4222 70.1215C61.5536 76.3675 61.7781 84.9927 62.4737 91.6265C63.7767 104.047 65.3689 116.536 66.35 128.991C66.4252 129.947 66.4957 130.908 66.4675 131.869L66.4687 131.868ZM34.2149 115.537H50.3124C50.6614 115.537 50.5133 114.252 50.4875 113.952C49.8694 106.834 48.9823 99.6783 48.2561 92.5664C48.067 90.7112 48.0611 88.8148 47.725 86.9854L47.3702 87.2181C43.508 94.9903 39.6539 102.783 35.8434 110.588C35.2571 111.788 33.7848 113.914 34.0363 115.243C34.0609 115.374 34.095 115.463 34.2125 115.537H34.2149Z" fill="#EB1C24"/>
<path d="M188.788 66.894C188.964 67.0738 187.962 68.9102 187.791 69.2462C185.769 73.2352 183.236 77.727 180.611 81.3352C180.175 81.9345 179.391 83.2175 178.686 83.4043C178.11 83.5571 177.832 83.3479 177.336 83.3373C171.032 83.2104 164.714 83.4466 158.408 83.3373C156.172 83.3679 154.51 85.4287 153.416 87.1583C150.468 91.8169 148.578 98.6821 149.853 104.122C150.66 107.566 153.931 115.017 157.945 115.417C163.819 115.34 169.701 115.521 175.573 115.423C176.096 115.414 176.57 115.21 177.155 115.418C177.284 115.543 176.123 117.941 175.962 118.279C174.174 122.047 171.953 126.301 169.448 129.624C169.062 130.136 167.885 131.773 167.337 131.86C159.253 132.015 150.566 131.926 143.912 126.746C133.269 118.459 132.801 100.674 136.324 88.7468C138.832 80.2508 145.401 67.4333 155.47 66.887L188.788 66.8928V66.894Z" fill="#EB1C24"/>
<path d="M221.1 111.541C221.071 112.3 221.14 113.071 221.098 113.832C220.456 125.536 212.38 137.304 204.4 145.425C201.537 148.337 194.369 155.125 190.132 154.785C189.118 154.704 188.429 153.22 187.944 152.391C183.851 145.408 180.176 134.021 179.74 125.934C179.631 123.907 180.017 123.884 181.514 122.775C185.237 120.017 189.639 118.41 194.049 117.098C200.874 115.065 208.384 113.416 215.42 112.267C217.298 111.96 219.205 111.638 221.1 111.542V111.541Z" fill="#EB1C24"/>
<path d="M220.495 105.886C215.945 106.543 211.378 107.238 206.881 108.192C199.123 109.838 188.219 112.362 181.586 116.619C180.828 117.105 180.211 117.762 179.387 118.12C179.445 116.424 179.308 114.707 179.387 113.012C179.773 104.935 182.045 95.2102 185.359 87.8469C186.03 86.3547 186.681 84.785 188.138 83.9284C195.787 79.426 208.965 84.738 214.164 91.1602C216.976 94.6333 219.721 100.765 220.483 105.167C220.524 105.403 220.547 105.651 220.495 105.886Z" fill="#EB1C24"/>
<path d="M230.247 110.854C230.464 112.033 230.341 113.228 230.383 114.419C230.975 131.203 229.572 152.102 219.785 166.332C218.917 167.595 217.113 170.229 215.519 170.408C209.558 171.076 202.302 167.894 197.78 164.177C196.653 163.25 194.502 161.328 193.602 160.248C193.443 160.058 193.236 159.875 193.251 159.599C195.19 159.102 197.121 157.961 198.763 156.826C210.108 148.993 222.453 132.208 224.488 118.398C224.845 115.974 224.924 113.513 225.028 111.066C225.177 110.852 226.644 110.983 227.031 110.954C227.519 110.919 230.041 110.514 230.247 110.856V110.854Z" fill="#EB1C24"/>
<path d="M191.959 76.9973C191.854 76.9198 193.175 75.3853 193.309 75.2349C197.867 70.0945 204.319 65.7261 211.303 64.9119C213.216 64.6886 213.835 64.5676 215.446 65.6732C224.559 71.9298 228.264 89.9428 229.44 100.322C229.512 100.956 229.913 104.842 229.743 105.087C228.606 105.323 227.382 105.271 226.213 105.316C225.799 105.331 224.756 105.635 224.445 105.318C224.261 105.129 223.691 102.014 223.535 101.411C221.954 95.3558 218.892 88.567 214.17 84.3395C208.361 79.1392 199.799 75.8341 191.961 76.9961L191.959 76.9973Z" fill="#EB1C24"/>
<path d="M223.45 168.644C223.348 168.521 224.919 166.249 225.114 165.903C229.35 158.406 231.788 148.393 233.067 139.9C234.512 130.315 234.604 120.577 234.047 110.92C234.079 110.816 234.16 110.709 234.259 110.661C234.849 110.374 237.127 110.916 237.934 110.746C238.04 110.78 238.18 110.816 238.257 110.893C238.45 111.088 238.441 112.925 238.49 113.363C238.987 117.749 239.687 122.136 240.402 126.491C241.389 132.506 242.847 138.608 243.077 144.729C243.207 148.159 241.881 150.29 240.184 153.125C236.246 159.711 230.587 165.59 223.451 168.644H223.45Z" fill="#EB1C24"/>
<path d="M237.768 105.181L233.678 104.956C233.146 98.9535 232.35 92.8814 231.008 87.0066C229.691 81.2412 227.647 74.5005 224.645 69.4001C224.452 69.0735 222.596 66.4475 222.745 66.3077C222.915 66.2736 223.034 66.3453 223.181 66.3993C228.662 68.4108 235.257 74.275 238.35 79.1944C238.786 79.8877 238.907 80.051 238.839 80.9334C238.576 84.3724 237.844 87.8267 237.662 91.3868C237.625 92.0883 237.689 92.8015 237.665 93.5052C237.58 96.1254 237.567 98.7467 237.662 101.383C237.681 101.918 238.065 104.995 237.768 105.181Z" fill="#EB1C24"/>
<path d="M175.173 176.65L183.44 176.634C185.441 176.861 185.382 180.59 184.966 182.037C184.771 182.715 184.014 183.534 183.974 184.107C183.947 184.495 184.173 184.946 184.207 185.382C184.327 186.873 183.38 190.091 181.937 190.758C180.494 191.424 175.075 191.018 173.095 191.081C171.708 191.124 171.542 191.587 171.899 189.767C172.319 187.629 173.07 185.376 173.595 183.238C174.132 181.048 174.501 178.799 175.173 176.65ZM181.588 180.54C181.175 180.104 180.499 180.292 180.038 180.282C179.309 180.264 178.583 180.286 177.859 180.209C177.167 181.44 177.077 182.86 176.568 184.152C176.828 184.422 178.143 182.505 178.456 182.34C179.357 181.868 180.538 182.676 181.309 182.021C181.672 181.712 181.941 180.91 181.588 180.54ZM176.273 187.443H179.563C179.983 187.443 180.949 186.158 180.662 185.697C180.543 185.504 176.714 185.48 176.41 185.672C176.073 185.885 175.929 187.338 176.273 187.444V187.443Z" fill="#EB1C24"/>
<path d="M60.3587 191.085C60.3552 190.8 60.3422 190.517 60.3869 190.232C60.8216 187.47 61.9955 184.049 62.677 181.243C62.8532 180.517 63.4055 176.928 63.8825 176.691L72.2791 176.641C73.2673 176.944 73.6139 177.999 73.7396 178.94C74.0357 181.149 73.6327 181.668 72.789 183.482C72.4048 184.307 72.7784 184.705 72.8184 185.5C72.8912 186.965 71.8725 190.293 70.3791 190.825C70.2017 190.888 69.4755 191.087 69.3486 191.087H60.3599L60.3587 191.085ZM65.8459 183.882C66.2043 183.58 66.8271 182.426 67.2571 182.298C67.8846 182.111 69.2029 182.465 69.7575 182.213C70.5224 181.866 70.7375 180.409 69.5871 180.274C69.1254 180.219 66.6214 180.214 66.4005 180.383L65.1762 184.093C65.3019 184.231 65.7543 183.961 65.8471 183.882H65.8459ZM64.7649 187.443H68.2899C68.6201 187.443 70.1229 185.658 68.5954 185.477C67.8634 185.736 65.2702 185.291 64.8883 185.804C64.6639 186.106 64.7179 186.776 64.5852 187.15L64.7649 187.443Z" fill="#EB1C24"/>
<path d="M99.9562 176.634C100.138 176.81 98.3512 180.009 97.8389 180.215L92.2658 180.282C91.6678 180.419 91.3106 181.084 91.582 181.658C92.0825 182.714 95.2163 181.641 96.3736 182.507C97.5604 183.396 97.7225 185.774 97.5909 187.134C97.477 188.319 96.5464 190.926 95.1998 191.088C92.9661 191.357 89.9111 191.021 87.5553 191.081C87.1064 191.093 86.4825 191.43 86.1123 191.03C86.0536 190.685 87.4895 187.775 87.8173 187.582C88.5152 187.172 91.9545 187.65 93.0813 187.558C94.4137 187.45 94.8168 186.949 94.1259 185.695C92.3258 185.442 89.9299 186.407 88.8607 184.498C87.9101 182.8 87.9195 180.802 88.6739 179.038C88.9324 178.431 90.0087 176.633 90.7336 176.633H99.9574L99.9562 176.634Z" fill="#EB1C24"/>
<path d="M248.912 113.22C249.045 113.378 249.16 113.849 249.183 114.068C249.727 119.473 248.791 127.467 247.735 132.831C247.442 134.317 247.052 136.641 246.565 138.005C246.504 138.177 246.451 138.398 246.245 138.448L242.131 111.189C242.284 111.038 245.783 111.888 246.271 112.044C246.707 112.183 248.701 112.968 248.912 113.22Z" fill="#EB1C24"/>
<path d="M49.9599 176.634L50.1127 176.898L48.2573 184.741C49.0622 184.52 49.6415 182.593 50.256 182.334C50.9164 182.057 52.4392 182.602 52.8434 181.984C52.9562 181.812 53.1841 181.109 53.2535 180.867C53.6436 179.496 53.5672 177.783 54.4261 176.635H57.2461C57.2872 176.635 57.5493 176.897 57.514 177.021L54.0983 190.819C53.9596 190.864 53.5449 191.204 53.4861 191.204H51.1361C51.0938 191.204 50.9469 191.083 50.8611 191.068C50.6273 190.679 51.6378 187.786 51.753 187.121C51.8 186.852 52.0103 185.799 51.6061 185.799H48.3161C47.5089 186.708 47.523 188.176 47.2398 189.305C47.1176 189.793 46.8191 191.204 46.2011 191.204H43.7336C43.6913 191.204 43.5456 191.081 43.4551 191.07L43.4528 190.696L46.845 176.836C46.8838 176.769 47.2116 176.635 47.2586 176.635H49.9611L49.9599 176.634Z" fill="#EB1C24"/>
<path d="M124.044 176.634C124.146 176.709 123.144 178.713 123.006 178.945C122.616 179.6 122.352 180.207 121.523 180.282C120.595 180.366 116.894 179.966 116.433 180.42C115.973 180.875 115.639 183.653 115.35 184.388L116.051 183.74C116.944 182.661 116.819 182.14 118.458 182.035C119.271 181.982 120.176 182.102 120.989 182.158C121.146 182.318 120.171 183.694 120.005 183.936C119.662 184.435 118.934 185.611 118.351 185.689C117.586 185.791 115.78 185.488 115.202 185.8C114.969 185.926 114.621 187.045 114.815 187.333L115.525 187.563L121.459 187.447C121.736 187.73 119.83 191.089 119.285 191.089H110.59L110.411 190.799L114.115 176.637H124.044V176.634Z" fill="#EB1C24"/>
<path d="M83.2383 176.785C83.5767 177.065 83.8881 178.892 83.9609 179.41C84.3663 182.27 84.673 185.553 84.915 188.443C84.9432 188.784 85.0866 190.957 85.0173 191.069C84.5214 191.389 84.0009 191.082 83.5591 191.082C83.1173 191.082 82.531 191.392 82.1444 191.097C81.7578 190.802 81.7884 188.724 81.625 188.149C81.0364 188.685 80.2609 190.987 79.5265 191.144C77.549 191.068 75.5538 191.054 73.5727 191.082C73.192 191.088 72.8008 191.353 72.4588 191.03C72.2144 190.8 72.6163 190.21 72.7514 189.911C74.199 186.705 76.1119 183.369 77.7699 180.242C78.2316 179.37 79.1423 176.806 80.1645 176.644C80.6028 176.575 82.9822 176.577 83.2383 176.789V176.785ZM81.0387 181.216C80.7649 181.142 80.8413 181.283 80.7696 181.365C80.1868 182.035 78.7886 185.021 78.3538 185.992C78.2105 186.312 77.7804 187.046 77.9191 187.325C78.1635 187.813 79.1376 187.449 79.5653 187.439C80.2115 187.423 80.8636 187.46 81.5087 187.443L81.0375 181.216H81.0387Z" fill="#EB1C24"/>
<path d="M165.874 176.634C165.914 177.159 165.808 177.671 165.719 178.182C165.405 179.975 164.809 181.751 164.496 183.539C164.212 185.154 163.721 187.635 166.148 187.516C166.647 187.491 166.913 187.332 167.284 187.032C169.086 185.58 169.646 179.894 170.372 177.548C170.453 177.285 170.548 176.633 170.868 176.633H173.864C173.743 177.22 173.722 177.835 173.597 178.422C173.01 181.183 171.543 187.831 169.866 189.848C168.583 191.391 166.377 191.204 164.517 191.09C162.59 190.973 160.986 190.495 160.713 188.314C160.377 185.619 161.69 180.135 162.499 177.43C162.571 177.191 162.677 176.633 162.994 176.633H165.873L165.874 176.634Z" fill="#EB1C24"/>
<path d="M26.1661 176.634C26.4669 176.935 25.0687 182.02 24.9077 182.836C24.5975 184.411 23.7809 187.624 26.3365 187.563C28.2929 187.517 29.0179 184.478 29.4009 182.982C29.8051 181.404 30.0448 179.73 30.4502 178.156C30.5747 177.674 30.7592 177.02 31.0412 176.633H34.155C34.1843 177.769 33.6368 178.816 33.3665 179.898C32.6545 182.741 31.9565 188.104 29.8721 190.15C28.6889 191.312 26.1614 191.194 24.574 191.09C19.6707 190.773 20.8363 186.174 21.5202 182.739C21.8292 181.185 22.2451 179.186 22.6975 177.689C22.7809 177.413 22.9537 176.633 23.2874 176.633H26.1661V176.634Z" fill="#EB1C24"/>
<path d="M16.5299 188.266C16.2491 188.201 16.3396 188.317 16.2691 188.419C15.8649 189.001 15.1963 190.865 14.657 191.034L7.24741 191.204L7.39663 190.353C9.59506 186.56 11.3247 182.497 13.4549 178.67C13.8497 177.96 14.3315 176.765 15.1892 176.644C15.6992 176.573 17.9246 176.544 18.2325 176.87C18.3194 176.961 18.5721 177.618 18.6132 177.782C19.3276 180.608 19.3006 184.516 19.5861 187.501C19.6519 188.188 20.2535 190.712 19.7729 191.097C19.3264 191.252 17.4546 191.291 17.1221 191.03C16.5405 190.573 16.8754 188.978 16.5287 188.266H16.5299ZM12.7723 187.442C13.3985 187.568 14.0072 187.422 14.5947 187.434C15.1822 187.445 15.8414 187.808 16.3572 187.327C16.5781 186.952 16.2326 184.79 16.1809 184.211C16.1022 183.326 16.1386 182.537 15.9459 181.626C15.9119 181.465 15.96 181.33 15.7685 181.218C15.6898 181.222 15.161 182.132 15.0776 182.287C14.469 183.419 13.6664 185.064 13.1553 186.24C13.0895 186.392 12.7241 187.401 12.7723 187.442Z" fill="#EB1C24"/>
<path d="M104.539 176.634L103.189 182.862C104.597 181.98 105.588 180.443 106.711 179.217C107.114 178.777 109.007 176.634 109.415 176.634H112.646C112.556 176.975 112.27 177.349 112.056 177.63C110.605 179.533 108.51 181.349 107.124 183.273C106.967 183.489 106.826 183.72 106.772 183.986L109.944 191.085H106.712C106.415 191.085 105.83 190.17 105.664 189.901C104.881 188.631 104.337 187.168 103.578 185.878C103.366 185.52 103.132 184.987 102.719 184.856C102.423 184.856 101.512 190.017 101.276 190.582C101.077 191.029 100.581 191.202 100.132 191.202H98.1349C97.6485 190.541 98.2325 189.588 98.3946 188.876C99.3099 184.832 100.144 180.763 101.279 176.782C101.31 176.748 101.519 176.634 101.544 176.634H104.54H104.539Z" fill="#EB1C24"/>
<path d="M248.476 107.077C247.24 106.66 246.003 106.231 244.721 105.957C244.102 105.824 242.09 105.688 241.773 105.38C241.369 104.988 241.573 102.775 241.55 102.079C241.386 97.3108 241.127 91.7745 241.794 87.0582C241.826 86.8327 241.988 85.6941 242.191 85.6953C244.823 91.0754 246.714 96.9289 247.856 102.822C247.959 103.358 248.626 106.921 248.478 107.076L248.476 107.077Z" fill="#EB1C24"/>
<path d="M151.128 176.634L151.286 176.905C151.257 177.219 149.729 179.841 149.453 180.043C149.286 180.165 148.989 180.255 148.78 180.278C147.504 180.422 145.155 179.828 144.132 180.565C143.039 181.351 142.57 183.499 142.757 184.769C142.843 185.354 143.791 187.443 144.43 187.443H148.66L148.786 187.683C148.115 188.537 147.517 191.082 146.295 191.165C145.254 191.236 143.168 190.942 142.254 190.441C138.165 188.199 138.917 181.218 141.554 178.105C141.965 177.619 143.076 176.634 143.725 176.634H151.128Z" fill="#EB1C24"/>
<path d="M45.5537 176.634C45.8239 176.909 44.0285 179.935 43.5068 180.168C42.5598 180.59 39.9877 180.038 38.8221 180.301C37.4614 180.609 36.8469 183.498 36.9891 184.669C37.0842 185.456 37.9373 187.299 38.8045 187.436C40.0899 187.641 41.7455 187.147 42.9781 187.635C43.0474 187.973 41.5822 190.585 41.2673 190.852C40.8666 191.192 39.6975 191.121 39.1452 191.09C33.1221 190.758 32.7837 184.408 34.7237 179.96C35.1807 178.911 36.7047 176.633 37.9761 176.633H45.5548L45.5537 176.634Z" fill="#EB1C24"/>
<path d="M134.971 176.634C134.638 177.458 133.611 180.149 132.665 180.241C132.21 180.284 131.027 179.934 130.686 180.514L128.18 190.698C128.035 190.953 127.837 191.224 127.511 191.215C127.349 191.21 127.201 191.085 127.158 191.085H125.16C125.115 191.085 124.99 191.304 124.88 191.012C124.831 190.75 124.863 190.494 124.897 190.234C125.26 187.451 126.629 184.362 127.071 181.599C127.114 181.325 127.179 180.342 126.988 180.21C126.079 179.994 125.138 180.405 124.216 180.277C124.061 180.255 124.006 180.34 124.041 180.101C124.074 179.875 125.635 176.974 125.796 176.83C125.852 176.779 126.287 176.634 126.334 176.634H134.97H134.971Z" fill="#EB1C24"/>
<path d="M153.419 187.443C154.067 187.605 154.651 187.443 155.237 187.437C156.228 187.427 157.595 187.335 158.537 187.437C158.711 187.456 158.832 187.445 158.938 187.618C158.614 188.45 158.2 189.274 157.699 190.019C157.421 190.433 157.233 190.881 156.714 191.03C154.737 191.175 152.75 191.03 150.772 191.081C150.259 191.094 149.653 191.419 149.182 191.008L152.592 176.829C152.758 176.521 155.227 176.651 155.692 176.651L155.864 176.899L153.418 187.443H153.419Z" fill="#EB1C24"/>
<path d="M81.9799 163.591C82.1091 165.758 80.2503 169.586 77.8028 167.121C76.7053 166.016 77.1577 165.38 78.3738 164.744C78.8332 164.505 81.6979 163.312 81.9799 163.591Z" fill="#EB1C24"/>
<path d="M38.4261 153.762C39.2157 152.979 41.4447 152.502 42.4693 151.978L42.7325 152.013C43.3811 152.342 42.5574 154.357 42.2836 154.858C41.2719 156.713 39.8913 157.089 38.5071 155.306C38.0642 154.736 37.8221 154.363 38.4261 153.762Z" fill="#EB1C24"/>
<path d="M52.0173 161.947C51.9116 161.315 52.3358 160.262 51.7306 159.825C51.4909 159.652 50.8576 159.752 51.1326 159.242C51.3229 158.887 52.9644 158.167 53.3956 158.099C54.4167 157.939 55.5106 158.584 55.124 159.71C54.9302 160.274 52.371 162.323 52.0173 161.947Z" fill="#EB1C24"/>
<path d="M52.9244 146.23C55.9266 145.607 53.7775 149.714 51.7753 149.087C50.0915 148.559 51.6942 146.484 52.9244 146.23Z" fill="#EB1C24"/>
<path d="M99.0527 148.751C97.7684 147.304 101.378 145.324 102.078 146.488C102.827 147.736 100.203 150.047 99.0527 148.751Z" fill="#EB1C24"/>
<path d="M93.3386 157.871C94.2845 158.905 91.8898 161.351 90.7325 160.536C88.6727 159.085 92.3634 156.805 93.3386 157.871Z" fill="#EB1C24"/>
<path d="M79.839 146.11C80.9224 145.999 81.3477 146.825 80.8448 147.712C80.3419 148.6 78.711 149.876 77.8838 148.71C77.0566 147.543 78.7604 146.22 79.8379 146.11H79.839Z" fill="#EB1C24"/>
<path d="M119.773 157.876C120.716 158.809 118.596 161.258 117.316 160.626C117.095 160.517 116.669 160.048 116.587 159.826C116.19 158.743 118.809 156.923 119.773 157.876Z" fill="#EB1C24"/>
<path d="M146.84 159.008C146.686 158.107 148.996 157.746 148.931 158.599C148.899 159.027 147.165 159.04 146.84 159.008Z" fill="#EB1C24"/>
<path d="M85.5049 158.891C85.069 158.466 87.3402 157.369 87.4859 158.39C87.5905 159.128 85.9255 158.772 85.5049 158.891Z" fill="#EB1C24"/>
<path d="M116.261 147.232C116.033 147.447 114.799 147.506 114.526 147.319L114.404 146.97C114.683 146.673 115.893 146.318 116.172 146.492C116.37 146.662 116.466 147.039 116.262 147.233L116.261 147.232Z" fill="#EB1C24"/>
<path d="M46.3762 147.378C46.2446 146.448 48.5346 146.067 48.4618 146.967C48.4571 147.025 48.1081 147.378 48.0799 147.378H46.3762Z" fill="#EB1C24"/>
<path d="M140.376 159.831L138.496 160.418C138.579 159.632 140.078 158.981 140.376 159.831Z" fill="#EB1C24"/>
</g>
<defs>
<clipPath id="clip0_3361_19045">
<rect width="256" height="256" fill="white"/>
</clipPath>
</defs>
</svg>
