<svg width="256" height="256" viewBox="0 0 256 256" fill="none" xmlns="http://www.w3.org/2000/svg">
<path d="M33.8344 167.216L53.1893 181.521V116.666H71.4435V195.011L90.7984 209.316V24.321H33.8344V167.216ZM53.1893 43.676H71.4435V97.3096H53.1893V43.676Z" fill="#DA3C3D"/>
<path d="M98.7067 24.321V215.159L118.062 229.463L127.747 236.622L138.087 229.013L157.443 214.77V131.065L144.602 122.049L144.021 121.642L157.443 112.219V24.321H98.7067ZM138.087 204.982L127.772 212.573L118.062 205.396V141.405H138.087V204.982ZM138.087 102.695H118.062V43.676H138.087V102.695Z" fill="#DA3C3D"/>
<path d="M222.067 24.321V95.4467H202.712V43.676H184.302V170.975L202.712 157.428V118.168H222.067V167.216L202.712 181.458L184.302 195.006L164.947 209.248V24.321H222.067Z" fill="#DA3C3D"/>
<path d="M46.8138 14.0851H43.357L42.3766 11.0788H38.1402L37.1425 14.0851H33.8966L38.6222 0.388306H42.0006L46.8138 14.0851ZM41.6418 8.70015L40.3027 4.2599L38.8933 8.70015H41.6428H41.6418Z" fill="#DA3C3D"/>
<path d="M118.303 14.0851H114.846L113.866 11.0788H109.63L108.632 14.0851H105.386L110.112 0.388306H113.49L118.303 14.0851ZM113.131 8.70015L111.792 4.2599L110.383 8.70015H113.132H113.131Z" fill="#DA3C3D"/>
<path d="M50.8984 7.2367C50.8984 8.62574 51.2194 9.68663 52.0429 10.5254C52.8653 11.3641 53.6938 11.8645 55.036 11.8645C55.4029 11.8645 56.1957 11.7768 56.3731 11.7106V8.98956H53.5889V6.51007H59.5934V13.5929C59.1124 13.7498 58.4449 13.9108 57.5899 14.0739C56.7348 14.238 55.8645 14.3195 54.9789 14.3195C52.5861 14.3195 50.7323 13.8263 49.384 12.588C48.0357 11.3498 47.3611 9.26676 47.3611 7.02676C47.3611 4.91517 47.9817 3.32128 49.2831 1.98625C50.4174 0.823448 52.1896 0.151855 55.1695 0.151855C56.9906 0.151855 58.8984 0.75211 59.5945 1.23517V4.57886C58.4612 3.62498 56.9692 2.6181 55.1848 2.6181C53.6398 2.6181 53.1109 2.87186 52.212 3.70345C51.3132 4.53606 50.8994 5.79568 50.8994 7.2367H50.8984Z" fill="#DA3C3D"/>
<path d="M71.4976 14.0851H62.1636V0.388306H71.3773V2.74652H65.5796V5.46346H70.9534V7.82168H65.5796V11.7075H71.4986V14.0851H71.4976Z" fill="#DA3C3D"/>
<path d="M154.197 14.0851H144.863V0.388306H154.077V2.74652H148.279V5.46346H153.653V7.82168H148.279V11.7075H154.198V14.0851H154.197Z" fill="#DA3C3D"/>
<path d="M82.4204 8.14678V0.388306H85.5674V14.0851H82.3063L82.183 13.8691L76.9804 4.39748V14.0851H73.8263V0.388306H78.0046L82.4194 8.14678H82.4204Z" fill="#DA3C3D"/>
<path d="M99.413 14.0851H93.8823V0.388306H99.4946C101.01 0.388306 102.208 0.660408 103.048 1.2627C103.8 1.80181 104.019 2.63544 104.019 3.71162C104.019 4.18856 103.808 4.91518 103.464 5.34423C103.12 5.77327 102.614 6.2441 102.143 6.48053C102.936 6.70882 103.608 7.07366 104.12 7.65659C104.632 8.23952 104.887 9.08843 104.887 9.79569C104.887 11.1063 104.312 12.3822 103.376 13.063C102.441 13.7447 101.12 14.0851 99.413 14.0851ZM97.2413 5.7692H98.45C99.0044 5.7692 99.4691 5.73659 99.9063 5.46856C100.343 5.20053 100.562 4.79697 100.562 4.2599C100.562 3.72283 100.364 3.33659 99.9674 3.10015C99.571 2.86474 99.0635 2.84843 98.613 2.84843H97.2403V5.7692H97.2413ZM97.2413 8.0092V11.625H98.5315C99.4599 11.625 100.126 11.4202 100.625 11.1317C101.123 10.8433 101.373 10.3847 101.373 9.75595C101.373 9.12716 101.13 8.65226 100.645 8.37098C100.16 8.08971 99.5007 8.0092 98.5723 8.0092H97.2413Z" fill="#DA3C3D"/>
<path d="M216.228 14.0851H210.698V0.388306H216.31C217.825 0.388306 219.024 0.660408 219.863 1.2627C220.616 1.80181 220.835 2.63544 220.835 3.71162C220.835 4.18856 220.624 4.91518 220.279 5.34423C219.935 5.77327 219.429 6.2441 218.959 6.48053C219.751 6.70882 220.423 7.07366 220.936 7.65659C221.447 8.23952 221.702 9.08843 221.702 9.79569C221.702 11.1063 221.127 12.3822 220.192 13.063C219.256 13.7447 217.935 14.0851 216.228 14.0851ZM214.057 5.7692H215.265C215.82 5.7692 216.284 5.73659 216.722 5.46856C217.159 5.20053 217.377 4.79697 217.377 4.2599C217.377 3.72283 217.179 3.33659 216.783 3.10015C216.386 2.86474 215.879 2.84843 215.428 2.84843H214.056V5.7692H214.057ZM214.057 8.0092V11.625H215.347C216.275 11.625 216.942 11.4202 217.44 11.1317C217.938 10.8433 218.188 10.3847 218.188 9.75595C218.188 9.12716 217.946 8.65226 217.46 8.37098C216.975 8.08971 216.316 8.0092 215.388 8.0092H214.057Z" fill="#DA3C3D"/>
<path d="M129.946 9.82107C129.946 11.1449 129.33 12.1395 128.406 13.0272C127.426 13.9688 125.664 14.3215 123.726 14.3215C122.832 14.3215 121.977 14.2532 121.159 14.1156C120.341 13.978 119.477 13.5327 119.006 13.1964V10.0748C119.263 10.2318 120.134 10.832 120.883 11.1938C121.632 11.5556 122.704 11.8858 123.521 11.8858C124.338 11.8858 125.062 11.8226 125.569 11.5474C126.077 11.2723 126.352 10.8493 126.352 10.3775C126.352 10.0106 126.192 9.76706 125.814 9.45928C125.435 9.15151 124.459 9.01393 123.323 8.6868C121.824 8.26795 120.734 7.91941 120.084 7.23865C119.376 6.49776 119.006 5.60706 119.006 4.47992C119.006 3.15712 119.589 2.05444 120.648 1.23508C121.707 0.415718 123.038 0.109985 125.007 0.109985C126.816 0.109985 128.516 0.648075 129.324 0.985399V4.06514C128.701 3.71967 127.521 3.17037 126.985 2.95432C126.449 2.73827 125.766 2.56706 125.1 2.56706C124.297 2.56706 123.661 2.69444 123.192 2.95024C122.722 3.20604 122.488 3.58922 122.488 4.09979C122.488 4.45342 122.665 4.75508 123.022 5.00374C123.377 5.25241 124.555 5.43483 125.933 5.84043C127.463 6.27253 128.526 6.79024 129.139 7.40578C129.753 8.02132 129.948 8.73368 129.948 9.82107H129.946Z" fill="#DA3C3D"/>
<path d="M135.008 14.0851H131.628V0.388306H135.008V6.26754H135.382L139.414 0.388306H143.266L138.571 6.71289L143.594 14.0861H139.578L135.932 8.62983C135.326 8.62983 135.008 9.20155 135.008 9.20155V14.0851Z" fill="#DA3C3D"/>
<path d="M162.389 14.0851H159.03V2.82499H155.179V0.388306H166.24V2.82499H162.389V14.0851Z" fill="#DA3C3D"/>
<path d="M176.21 7.12558C176.21 8.51462 176.544 9.66622 177.278 10.617C177.77 11.255 178.774 11.894 179.991 11.894C181.629 11.894 183.549 10.2318 184.055 9.86189V12.7246C184.055 13.3075 182.706 14.3195 179.72 14.3195C177.289 14.3195 175.852 13.9159 174.526 12.6012C173.169 11.255 172.663 9.26978 172.663 7.08074C172.663 4.8917 173.363 3.06443 174.773 1.77424C176.183 0.484052 177.153 0.102905 179.53 0.102905C181.224 0.102905 183.132 0.517682 184.054 1.30341V4.63794C183.3 3.87564 181.342 2.55692 179.926 2.55692C178.919 2.55692 177.833 3.0308 177.152 3.86138C176.47 4.69195 176.209 5.7508 176.209 7.1266L176.21 7.12558Z" fill="#DA3C3D"/>
<path d="M189.397 0.388306V11.6678H195.174V14.0851L186.037 14.1045V0.388306H189.396H189.397Z" fill="#DA3C3D"/>
<path d="M204.814 8.29852V0.399414H208.219V8.73164C208.219 10.6048 207.734 12.0071 206.765 12.9375C205.796 13.8679 204.348 14.3327 202.422 14.3327C200.497 14.3327 199.092 13.8843 198.09 12.9864C197.088 12.0896 196.587 10.7688 196.587 9.02719V0.399414H199.992V8.41674C199.992 9.54387 200.105 10.402 200.534 10.991C200.963 11.5801 201.518 11.8756 202.403 11.8756C203.288 11.8756 203.859 11.5709 204.282 10.9615C204.705 10.352 204.814 9.46438 204.814 8.29852Z" fill="#DA3C3D"/>
<path d="M112.195 241.661H108.856L108.754 242.296C108.713 242.556 108.628 242.733 108.498 242.829C108.369 242.925 108.14 242.986 107.812 243.013L105.478 243.137V245.881H108.469V252.723H105.478V255.672H114.982V252.723H112.196V241.661H112.195Z" fill="#DA3C3D"/>
<path d="M121.842 241.559C120.23 241.559 118.974 241.969 118.073 242.788C117.172 243.608 116.721 244.748 116.721 246.209C116.721 247.534 117.082 248.572 117.806 249.323C118.529 250.074 119.533 250.449 120.817 250.449C121.323 250.449 121.776 250.388 122.18 250.264C122.582 250.141 122.931 249.964 123.224 249.731C123.409 249.586 123.568 249.421 123.701 249.236C123.67 250.527 123.447 251.462 123.03 252.036C122.579 252.657 121.814 252.968 120.736 252.968C119.876 252.968 118.953 252.77 117.97 252.374L117.191 255.16C117.765 255.42 118.383 255.621 119.045 255.765C119.708 255.908 120.38 255.98 121.063 255.98C123.165 255.98 124.75 255.355 125.815 254.105C126.88 252.856 127.413 250.995 127.413 248.524C127.413 246.052 126.952 244.427 126.03 243.279C125.109 242.132 123.712 241.559 121.842 241.559ZM122.907 247.632C122.606 247.748 122.292 247.806 121.964 247.806C121.431 247.806 121.025 247.657 120.745 247.356C120.465 247.055 120.325 246.632 120.325 246.086C120.325 245.54 120.465 245.1 120.745 244.806C121.025 244.513 121.431 244.366 121.964 244.366C122.578 244.366 123.022 244.574 123.296 244.991C123.569 245.407 123.705 246.08 123.705 247.008V247.172C123.445 247.373 123.179 247.528 122.907 247.633V247.632Z" fill="#DA3C3D"/>
<path d="M133.927 241.559C132.316 241.559 131.059 241.969 130.159 242.788C129.258 243.608 128.806 244.748 128.806 246.209C128.806 247.534 129.168 248.572 129.892 249.323C130.615 250.074 131.619 250.449 132.903 250.449C133.408 250.449 133.862 250.388 134.266 250.264C134.668 250.141 135.017 249.964 135.31 249.731C135.495 249.586 135.654 249.421 135.787 249.236C135.755 250.527 135.532 251.462 135.115 252.036C134.665 252.657 133.9 252.968 132.821 252.968C131.961 252.968 131.039 252.77 130.057 252.374L129.278 255.16C129.852 255.42 130.469 255.621 131.132 255.765C131.794 255.908 132.467 255.98 133.15 255.98C135.252 255.98 136.837 255.355 137.902 254.105C138.967 252.856 139.5 250.995 139.5 248.524C139.5 246.052 139.039 244.427 138.117 243.279C137.195 242.132 135.798 241.559 133.928 241.559H133.927ZM134.992 247.632C134.692 247.748 134.378 247.806 134.049 247.806C133.516 247.806 133.111 247.657 132.831 247.356C132.55 247.055 132.411 246.632 132.411 246.086C132.411 245.54 132.55 245.1 132.831 244.806C133.11 244.513 133.516 244.366 134.049 244.366C134.664 244.366 135.107 244.574 135.381 244.991C135.655 245.407 135.791 246.08 135.791 247.008V247.172C135.53 247.373 135.264 247.528 134.992 247.633V247.632Z" fill="#DA3C3D"/>
<path d="M150.15 249.486C149.695 249.051 149.107 248.748 148.386 248.579C149.025 248.425 149.549 248.148 149.956 247.745C150.536 247.171 150.826 246.393 150.826 245.41C150.826 244.196 150.371 243.249 149.463 242.573C148.555 241.898 147.268 241.559 145.602 241.559C144.796 241.559 144.042 241.635 143.339 241.784C142.635 241.935 141.949 242.167 141.28 242.48L142.223 245.287C142.741 245.095 143.25 244.949 143.748 244.847C144.247 244.745 144.728 244.693 145.192 244.693C145.861 244.693 146.35 244.799 146.657 245.011C146.964 245.223 147.117 245.561 147.117 246.025C147.117 246.449 146.981 246.759 146.708 246.957C146.435 247.155 145.99 247.254 145.377 247.254H143.779V250.203H145.438C146.093 250.203 146.571 250.299 146.872 250.49C147.172 250.681 147.322 250.988 147.322 251.411C147.322 251.876 147.141 252.223 146.779 252.456C146.417 252.688 145.861 252.804 145.11 252.804C143.99 252.804 142.904 252.579 141.853 252.128L140.972 254.976C141.587 255.317 142.265 255.57 143.01 255.734C143.754 255.898 144.564 255.98 145.438 255.98C147.2 255.98 148.582 255.615 149.586 254.884C150.59 254.153 151.091 253.146 151.091 251.862C151.091 250.879 150.777 250.087 150.148 249.486H150.15Z" fill="#DA3C3D"/>
</svg>
