<svg width="256" height="256" viewBox="0 0 256 256" fill="none" xmlns="http://www.w3.org/2000/svg">
<g clip-path="url(#clip0_3006_21960)">
<path d="M128 256C198.692 256 256 198.692 256 128C256 57.3075 198.692 0 128 0C57.3075 0 0 57.3075 0 128C0 198.692 57.3075 256 128 256Z" fill="#213A96"/>
<path d="M128 245.129C112.187 245.129 96.8489 242.031 82.4075 235.924C68.4605 230.024 55.9346 221.58 45.1774 210.822C34.4203 200.065 25.976 187.539 20.0758 173.592C13.9668 159.151 10.8713 143.813 10.8713 128C10.8713 112.187 13.9693 96.8489 20.0758 82.4075C25.976 68.4605 34.4203 55.9346 45.1774 45.1774C55.9346 34.4203 68.4605 25.976 82.4075 20.0758C96.8489 13.9668 112.187 10.8713 128 10.8713C143.813 10.8713 159.151 13.9693 173.592 20.0758C187.539 25.976 200.065 34.4203 210.822 45.1774C221.58 55.9346 230.024 68.4605 235.924 82.4075C242.033 96.8489 245.129 112.187 245.129 128C245.129 143.813 242.031 159.151 235.924 173.592C230.024 187.539 221.58 200.065 210.822 210.822C200.065 221.58 187.539 230.024 173.592 235.924C159.151 242.033 143.813 245.129 128 245.129ZM128 13.8525C112.59 13.8525 97.6414 16.871 83.5702 22.821C69.9785 28.5697 57.7705 36.8003 47.2866 47.2841C36.8027 57.768 28.5722 69.976 22.8234 83.5677C16.871 97.639 13.855 112.587 13.855 127.997C13.855 143.408 16.8735 158.356 22.8234 172.427C28.5722 186.019 36.8027 198.227 47.2866 208.711C57.7705 219.195 69.9785 227.425 83.5702 233.174C97.6414 239.126 112.59 242.145 128 242.145C143.41 242.145 158.358 239.126 172.43 233.174C186.021 227.425 198.229 219.195 208.713 208.711C219.197 198.227 227.428 186.019 233.176 172.427C239.129 158.356 242.147 143.408 242.147 127.997C242.147 112.587 239.129 97.639 233.176 83.5677C227.428 69.976 219.197 57.768 208.713 47.2841C198.229 36.8003 186.021 28.5697 172.43 22.821C158.358 16.8685 143.41 13.8525 128 13.8525Z" fill="#FBD200"/>
<path d="M182.956 63.7379C167.995 45.8482 148.153 37.8015 124.798 37.8015C93.1373 37.8015 58.5654 67.0321 58.5654 106.525C58.5654 114.458 58.9306 120.346 61.9068 129.515C62.3615 130.914 62.749 132.397 63.313 133.699H70.5175C70.1151 132.442 69.6977 131.163 69.2505 129.92C68.0506 126.576 67.4991 124.45 66.7861 120.949C66.6047 120.063 66.6718 118.798 66.7066 118.711C70.9324 108.289 85.2993 95.7981 94.8267 90.0047C95.1273 89.8208 95.9049 89.4432 96.2278 89.4755C97.2936 91.0407 97.1445 96.5285 97.3085 98.116C97.3806 98.8017 98.0563 98.0738 98.2923 97.9496C98.9208 97.6142 100.727 96.6229 101.266 96.5012C101.932 96.3546 103.191 96.5931 103.574 96.3273C104.252 95.8553 103.524 90.8543 103.008 89.4109L102.096 86.0298L112.995 81.0363L118.025 95.8851C120.457 96.9732 122.922 96.6975 123.466 99.8873L126.166 99.6662L119.193 78.6935L129.294 75.5633L130.161 75.9235C132.862 82.984 137.803 88.534 143.172 93.7163C146.14 94.479 149.233 93.4803 152.252 93.4529L151.161 92.0692C146.732 88.7327 143.154 84.5665 139.748 80.2313L136.357 74.4429C136.27 73.8864 136.462 74.1596 136.722 74.0752C138.039 73.6429 139.825 73.3199 141.224 73.1063C153.777 71.1884 168.604 71.5759 180.253 76.7533C181.497 77.3073 184.595 78.8227 185.303 79.9059C186.252 81.3592 187.81 85.7018 188.396 87.4955C191.604 97.331 192.664 110.202 190.453 120.1C190.165 121.392 189.442 122.875 189.261 124.254C189.02 124.273 188.819 124.291 188.585 124.177C187.502 123.64 185.433 120.463 184.439 119.389C180.931 115.598 176.029 111.601 171.933 108.366C170.487 107.224 165.426 103.05 164.167 102.526C163.913 102.419 163.717 102.339 163.431 102.394C163.374 103.313 163.541 104.297 163.374 105.204C163.243 105.912 162.699 105.748 162.669 106.23C162.602 107.293 162.614 108.518 162.676 109.681C168.639 113.936 174.559 118.53 179.592 123.878C182.282 126.738 184.677 129.925 186.081 133.654L192.751 133.575C193.263 133.321 195.077 127.508 195.36 126.494C201.161 105.639 196.47 79.896 182.956 63.7354V63.7379ZM70.1449 102.146L65.057 108.607C64.8781 104.516 65.1489 100.65 65.8718 96.6329C67.1513 89.5327 69.9859 81.5157 73.7074 75.4018C74.5521 74.0106 75.1384 72.52 76.8575 72.3386C80.7927 71.9262 84.9465 73.2802 88.0594 75.6701C90.4195 77.4812 92.6951 80.3729 94.0143 83.0237C85.3067 88.447 76.9718 94.4541 70.1449 102.148V102.146ZM99.7481 79.7717C97.5097 75.8366 95.1099 72.684 91.4828 70.0555C88.1761 67.6582 84.1366 66.5998 81.3293 66.1204C80.979 66.0607 80.5989 66.3539 80.7058 65.7576C82.969 63.6385 85.021 61.1989 87.3638 59.1891C91.766 55.4129 97.2414 52.1237 102.573 49.8406L110.657 74.823L99.7456 79.7717H99.7481ZM127.908 66.8731C127.928 67.611 128.216 68.2296 128.137 68.9525C128.027 69.2531 127.262 69.4692 126.914 69.6059C125.277 70.2543 122.934 70.6493 121.151 71.171C120.179 71.4542 118.068 72.4653 117.305 72.5473C117.029 72.5771 116.87 72.433 116.716 72.2318L108.838 47.6072C108.878 47.4084 109.954 46.919 110.222 46.8271C112.766 45.9451 117.362 45.1203 120.09 44.7701C125.108 44.1241 130.37 43.99 135.363 44.7676L131.438 49.9076C128.154 55.3682 127.742 60.6375 127.913 66.8781L127.908 66.8731ZM177.351 68.7314C171.801 67.3427 167.496 66.2818 161.695 66.1278C156.915 66.0011 151.546 65.9241 146.789 66.1278C142.598 66.3092 138.504 67.2284 134.367 67.6184V59.5443C134.367 59.1841 135.736 55.3086 136.007 54.7248C137.346 51.833 141.646 47.5972 144.799 46.8693C146.133 46.5613 149.489 47.9053 150.933 48.4419C159.519 51.6467 167.531 57.1693 173.632 63.4994C174.392 64.2869 177.644 67.6134 178.079 68.3016C178.946 69.6754 177.816 68.8457 177.351 68.7289V68.7314Z" fill="#FBD200"/>
<path d="M106.317 208.393V227.4H103.572V211.101H101V208.393H106.319H106.317Z" fill="#FBD200"/>
<path d="M120.187 219.095C119.648 219.562 118.989 219.793 118.209 219.793C118.082 219.793 117.948 219.786 117.809 219.774C116.905 219.684 116.194 219.369 115.683 218.832C115.156 218.275 114.893 217.289 114.893 215.873V212.089C114.893 209.424 116.247 208.087 118.957 208.082C121.66 208.082 123.011 209.419 123.011 212.089V223.736C123.011 226.402 121.657 227.733 118.947 227.733C116.237 227.733 114.893 226.402 114.893 223.736V221.175H117.72V223.736C117.72 224.591 118.13 225.02 118.947 225.028H118.967C119.779 225.028 120.184 224.598 120.184 223.736V219.098L120.187 219.095ZM117.722 215.873C117.722 216.546 117.869 216.944 118.162 217.066C118.316 217.13 118.564 217.162 118.91 217.162C118.997 217.162 119.089 217.16 119.19 217.153C119.856 217.133 120.189 216.705 120.189 215.871V212.087C120.189 211.227 119.779 210.795 118.962 210.795C118.145 210.795 117.725 211.225 117.725 212.087V215.871L117.722 215.873Z" fill="#FBD200"/>
<path d="M131.016 223.346C131.016 221.632 131.89 220.164 133.642 218.941C135.398 217.719 136.28 216.681 136.288 215.826V212.089C136.288 211.23 135.883 210.798 135.075 210.798H135.055C134.241 210.798 133.833 211.227 133.833 212.089V214.641H131.018V212.089C131.018 209.419 132.365 208.082 135.055 208.082C137.746 208.082 139.102 209.419 139.102 212.089V215.893C139.102 217.639 138.223 219.128 136.466 220.357C134.71 221.58 133.831 222.655 133.831 223.58V224.725H139.1V227.433H131.016V223.346Z" fill="#FBD200"/>
<path d="M155.062 223.776C155.062 226.442 153.703 227.773 150.987 227.773C148.272 227.773 146.923 226.442 146.923 223.776V212.129C146.923 209.459 148.277 208.122 150.987 208.122C153.698 208.122 155.062 209.459 155.062 212.129V223.776ZM152.23 212.129C152.23 211.27 151.82 210.837 150.997 210.837H150.978C150.163 210.837 149.755 211.267 149.755 212.129V223.776C149.755 224.635 150.165 225.068 150.987 225.068C151.81 225.068 152.23 224.638 152.23 223.776V212.129Z" fill="#FBD200"/>
<path d="M155.449 97.4653C155.623 98.9236 154.856 100.7 156.975 100.66L156.98 98.1758C157.29 98.3994 158.023 98.5683 158.224 98.7919C158.567 99.172 158.587 102.367 158.463 103.015C158.319 103.768 157.392 103.925 157.462 104.747L157.477 123.767L115.491 129.481L145.301 130.221L98.844 132.71L98.8664 105.994C98.9483 105.552 98.3645 105.592 98.2329 105.385C98.0316 105.075 98.0068 102.285 98.0987 101.778C98.203 101.209 99.1322 100.608 99.4725 101.15C99.7955 101.664 99.2465 103.08 99.957 102.891C101.853 102.066 99.6613 99.9993 102.255 99.4751C106.155 98.6851 104.312 101.172 104.56 101.403H106.796L107.027 99.2764L110.274 99.1671V101.157L112.108 101.169L112.54 98.9459C113.275 98.8888 115.708 98.7795 116.12 99.4055C116.711 100.3 115.32 102.372 117.476 102.146V100.161L118.94 100.437L118.967 103.142L137.354 102.645C137.49 100.938 136.613 99.3857 138.842 99.1671C139.055 99.4031 138.434 101.624 139.204 101.393C141.063 100.834 140.101 99.7832 140.377 98.2131C141.53 97.6665 142.759 97.3137 144.061 97.4255V99.9123L146.27 99.6366L146.459 97.4106L149.527 97.1771L149.758 99.5546L151.763 99.6639V97.1796C153.136 97.028 154.16 96.7548 155.452 97.4603L155.449 97.4653ZM142.317 105.629H140.33V111.591H142.317V105.629ZM105.549 107.616L103.564 107.867C103.708 108.762 103.266 112.856 103.795 113.221L105.549 113.33V107.616ZM105.549 117.057L103.562 117.305V121.28H105.549V117.057Z" fill="#FEFEFE"/>
<path d="M59.8375 139.664L73.1287 181.403L71.7524 161.412L71.7623 139.664H81.6996V201.027L71.7946 201.737L58.5978 161.526L59.8475 180.27L59.8524 202.622L49.9002 203.76V142.769L45.9253 139.664H59.8375Z" fill="#FEFEFE"/>
<path d="M170.763 139.664C174.892 140.223 178.377 143.905 178.807 148.016C179.162 151.437 179.284 161.317 178.777 164.572C178.362 167.24 175.99 170.753 173.145 171.235L173.103 171.58L181.319 201.273L170.942 200.473L163.546 173.709C163.014 172.758 160.691 173.369 159.705 173.202V200.033L149.768 199.785V143.266L145.296 139.664H170.76H170.763ZM159.707 148.483V164.756C162.232 164.284 168.559 166.694 168.917 162.907C169.203 159.886 169.198 153.482 168.912 150.458C168.808 149.363 168.472 148.913 167.546 148.342C165.262 148.675 162.788 147.838 160.565 148.098C160.274 148.133 159.807 148.16 159.707 148.483Z" fill="#FEFEFE"/>
<path d="M114.575 197.462C112.739 196.046 111.675 194.026 111.501 191.721C110.426 177.55 112.334 162.04 111.501 147.728C111.787 144.414 114.234 141.522 117.302 140.362C120.075 139.311 128.325 139.403 131.52 139.654C135.935 140.004 139.751 142.996 140.327 147.492L140.34 191.721C139.984 195.619 135.994 199.047 132.236 199.516C129.543 199.852 121.536 199.867 118.863 199.516C117.799 199.377 115.447 198.135 114.575 197.464V197.462ZM122.867 148.163C122.219 148.31 121.414 149.008 121.436 149.713L121.456 189.716C121.888 192.034 127.764 190.61 129.416 190.742C129.99 190.603 130.41 190.078 130.407 189.485L130.387 149.48C130.258 148.786 129.423 148.225 128.765 148.121C127.824 147.972 123.742 147.962 122.87 148.158L122.867 148.163Z" fill="#FEFEFE"/>
<path d="M210.636 139.664L210.388 148.856L201.444 148.608V202.766L191.507 202.021V148.608L182.563 148.359V139.664H210.636Z" fill="#FEFEFE"/>
<path d="M102.071 139.664V200.033L92.1338 200.53V139.664H102.071Z" fill="#FEFEFE"/>
<path d="M210.636 126.621C210.902 127.498 215.769 127.525 216.229 126.748C216.452 126.37 216.467 118.743 216.298 117.978C216.214 117.591 215.709 116.85 215.411 116.557C212.482 113.688 206.42 111.916 204.381 107.785C203.119 105.229 203.042 96.3894 204.058 93.7088C204.622 92.2232 206.569 90.509 208.097 90.0469C210.44 89.3389 217.687 89.478 219.92 90.504C221.674 91.309 223.555 93.9026 223.555 95.8155V102.523L223.182 102.896H216.723L216.35 102.523V96.8093C216.35 95.9894 212.246 96.0565 211.513 96.1956C210.833 96.3248 210.708 96.6652 210.626 97.2962C210.457 98.5682 210.5 103.912 211.031 104.863C211.734 106.125 216.211 108.366 217.672 109.402C221.207 111.907 223.272 113.79 223.57 118.41C223.783 121.705 224.084 128.549 222.062 131.086C219.483 134.323 213.62 134.079 209.772 133.699C202.719 133.001 203.355 125.826 203.434 120.535H210.639C210.932 122.072 210.244 125.322 210.639 126.621H210.636Z" fill="#FEFEFE"/>
<path d="M33.0068 133.702L40.7107 89.7315L48.0097 89.7141L55.8626 133.702H48.6581L47.9277 127.148C47.1948 126.502 46.3154 127.011 45.5626 127.004C44.8099 126.996 41.5753 126.743 41.2623 127.051L40.2114 133.702H33.0068ZM42.1988 120.535H46.5464L44.559 103.39L42.1988 120.535Z" fill="#FEFEFE"/>
<path d="M58.5682 51.1152L60.3941 56.1808L65.7752 56.3522L61.5245 59.6539L63.0226 64.8262L58.5682 61.8028L54.1138 64.8262L55.6118 59.6539L51.3586 56.3522L56.7422 56.1808L58.5682 51.1152Z" fill="#FEFEFE"/>
<path d="M85.6746 29.0718L87.5006 34.1373L92.8816 34.3087L88.631 37.6104L90.129 42.7828L85.6746 39.7594L81.2202 42.7828L82.7183 37.6104L78.4651 34.3087L83.8486 34.1373L85.6746 29.0718Z" fill="#FEFEFE"/>
<path d="M128.316 19.3977L130.142 24.4632L135.523 24.6347L131.272 27.9363L132.77 33.1087L128.316 30.0853L123.861 33.1087L125.359 27.9363L121.106 24.6347L126.487 24.4632L128.316 19.3977Z" fill="#FEFEFE"/>
<path d="M170.763 28.9573L172.589 34.0203L177.97 34.1942L173.719 37.4959L175.217 42.6658L170.763 39.6424L166.309 42.6658L167.807 37.4959L163.553 34.1942L168.937 34.0203L170.763 28.9573Z" fill="#FEFEFE"/>
<path d="M197.966 51.1001L199.792 56.1632L205.173 56.3371L200.923 59.6387L202.421 64.8111L197.966 61.7852L193.512 64.8111L195.01 59.6387L190.757 56.3371L196.14 56.1632L197.966 51.1001Z" fill="#FEFEFE"/>
</g>
<defs>
<clipPath id="clip0_3006_21960">
<rect width="256" height="256" fill="white"/>
</clipPath>
</defs>
</svg>
