<svg width="256" height="256" viewBox="0 0 256 256" fill="none" xmlns="http://www.w3.org/2000/svg">
<g clip-path="url(#clip0_122_4421)">
<path d="M157.034 52.3239L179.2 31.2195L193.561 60.1912L220.909 48.7024L213.916 82.6068L244.137 95.157L220.41 114.95L234.271 149.417L207.11 151.477L188.066 209.171L152.039 175.266L137.366 182.634V172.644L48.2654 224.094L118.384 166.712L6.2439 226.966L106.334 154.224L14.0488 202.178L98.3415 138.864L17.7951 179.949L92.4098 122.818L22.2907 158.97L95.6566 102.525L77.4868 100.901L97.28 90.7239L77.4868 77.9239L112.453 70.5561L117.822 34.279L157.034 52.3239Z" fill="#F4963F"/>
<path d="M107.021 176.89H103.649L97.842 191.875H101.339L102.525 188.566H108.082L109.331 191.875H112.952L107.021 177.015V176.89ZM107.021 185.694H103.524L105.21 181.011L106.958 185.694H107.021Z" fill="#0072A9"/>
<path d="M122.755 185.132C122.755 186.255 122.755 187.067 122.63 187.567C122.568 188.004 122.318 188.378 121.944 188.691C121.569 189.003 120.945 189.19 120.195 189.19C119.446 189.19 118.822 189.003 118.385 188.691C117.947 188.378 117.698 187.941 117.573 187.379C117.51 187.005 117.448 186.193 117.448 184.944V176.827H114.139V184.819C114.139 186.443 114.264 187.692 114.451 188.566C114.576 189.128 114.888 189.752 115.325 190.252C115.762 190.813 116.386 191.251 117.073 191.563C117.823 191.875 118.884 192.062 120.32 192.062C121.506 192.062 122.443 191.937 123.192 191.625C123.942 191.313 124.504 190.876 125.003 190.376C125.44 189.877 125.752 189.19 125.94 188.441C126.127 187.692 126.189 186.443 126.189 184.694V176.827H122.88V185.069L122.755 185.132Z" fill="#0072A9"/>
<path d="M148.98 177.015V176.89H145.545L139.801 191.688V189.065H131.684L139.426 179.512V176.952H128.375V179.762H134.993L127.5 189.003V191.937H143.173L144.359 188.628H149.916L151.165 191.937H154.786L148.855 177.077L148.98 177.015ZM148.917 185.694H145.42L147.106 181.011L148.855 185.694H148.917Z" fill="#0072A9"/>
<path d="M164.901 186.193L159.22 176.89H156.035V191.875H159.157V182.759L164.777 191.875H168.023V176.89H164.901V186.193Z" fill="#0072A9"/>
<path d="M181.573 191.875C183.446 191.875 184.632 191.875 185.132 191.75C185.943 191.688 186.63 191.438 187.192 191.001C187.754 190.626 188.191 190.064 188.503 189.44C188.816 188.816 189.003 188.129 189.003 187.442C189.003 186.568 188.753 185.756 188.254 185.132C187.817 184.57 187.255 184.133 186.505 183.883C187.005 183.571 187.38 183.196 187.692 182.759C188.066 182.135 188.254 181.51 188.254 180.761C188.254 180.074 188.066 179.512 187.754 178.95C187.442 178.451 187.067 178.014 186.568 177.701C186.131 177.389 185.569 177.139 184.944 177.077C184.383 176.952 183.508 176.952 182.322 176.952H176.328V191.938H181.51L181.573 191.875ZM184.695 182.197C184.695 182.197 184.07 182.634 183.633 182.697C183.383 182.697 182.634 182.697 181.51 182.697H179.762V179.699H181.261C182.634 179.699 183.446 179.699 183.758 179.699C184.195 179.699 184.507 179.887 184.757 180.137C185.007 180.386 185.069 180.698 185.069 181.136C185.069 181.573 184.944 181.885 184.695 182.135V182.197ZM182.26 189.003H179.7V185.444H181.885C183.196 185.444 184.07 185.506 184.445 185.631C184.82 185.756 185.069 185.943 185.257 186.256C185.444 186.505 185.569 186.88 185.569 187.255C185.569 187.754 185.444 188.129 185.194 188.378C184.944 188.628 184.632 188.816 184.195 188.878C183.945 188.878 183.259 188.94 182.197 188.94L182.26 189.003Z" fill="#0072A9"/>
<path d="M201.179 191.875H204.8L198.868 177.015V176.89H195.434L189.69 191.625L189.565 191.875H193.062L194.248 188.566H199.805L201.054 191.875H201.179ZM198.806 185.694H195.309L196.995 181.011L198.743 185.694H198.806Z" fill="#0072A9"/>
<path d="M215.04 183.446C214.353 183.071 213.229 182.696 211.793 182.384C210.42 182.072 209.483 181.76 209.171 181.448C208.921 181.26 208.796 181.011 208.796 180.698C208.796 180.386 208.921 180.136 209.171 179.949C209.608 179.637 210.232 179.45 211.106 179.45C211.981 179.45 212.48 179.575 212.855 179.887C213.229 180.199 213.479 180.698 213.604 181.385V181.573L216.913 181.448V181.26C216.913 179.887 216.351 178.763 215.415 177.889C214.478 177.077 213.042 176.64 211.169 176.64C210.045 176.64 209.046 176.827 208.234 177.139C207.423 177.514 206.798 178.014 206.361 178.7C205.924 179.387 205.674 180.136 205.674 180.886C205.674 182.072 206.174 183.134 207.048 183.945C207.735 184.57 208.796 185.007 210.482 185.444C211.731 185.756 212.48 185.943 212.855 186.068C213.354 186.255 213.666 186.443 213.854 186.63C214.041 186.817 214.104 187.067 214.104 187.379C214.104 187.879 213.916 188.254 213.417 188.628C212.98 189.003 212.293 189.19 211.356 189.19C210.482 189.19 209.858 189.003 209.358 188.566C208.859 188.129 208.546 187.442 208.359 186.568V186.38L205.112 186.693V186.88C205.362 188.566 205.924 189.877 206.985 190.751C207.985 191.625 209.483 192.062 211.356 192.062C212.667 192.062 213.729 191.875 214.603 191.5C215.477 191.126 216.164 190.564 216.664 189.815C217.163 189.065 217.413 188.254 217.413 187.379C217.413 186.443 217.225 185.631 216.788 184.944C216.414 184.32 215.789 183.758 215.103 183.383L215.04 183.446Z" fill="#0072A9"/>
<path d="M233.022 176.89H228.527L222.845 183.071V176.89H219.536V191.875H222.845V187.317L225.03 185.132L228.964 191.875H233.21L227.278 182.759L233.022 176.89Z" fill="#0072A9"/>
<path d="M237.518 185.444H244.824V182.572H237.518V179.699H245.385V176.89H234.209V191.875H245.698V189.003H237.518V185.444Z" fill="#0072A9"/>
<path d="M246.759 176.89V179.699H251.13V191.875H254.439V179.699H258.747V176.89H246.759Z" fill="#0072A9"/>
<path d="M163.653 210.732C163.403 211.731 163.029 212.542 162.467 212.979C161.967 213.416 161.28 213.666 160.593 213.666C159.594 213.666 158.783 213.292 158.158 212.542C157.534 211.793 157.222 210.482 157.222 208.733C157.222 207.048 157.534 205.799 158.158 205.05C158.783 204.3 159.594 203.926 160.656 203.926C161.405 203.926 162.029 204.113 162.529 204.55C163.029 204.987 163.403 205.549 163.528 206.236V206.423L166.837 205.612V205.424C166.463 204.238 165.901 203.301 165.214 202.677C164.09 201.615 162.591 201.053 160.718 201.053C158.658 201.053 156.909 201.74 155.661 203.114C154.349 204.488 153.725 206.423 153.725 208.921C153.725 211.231 154.349 213.104 155.661 214.478C156.909 215.852 158.595 216.538 160.593 216.538C162.217 216.538 163.528 216.164 164.589 215.352C165.651 214.54 166.4 213.354 166.837 211.731V211.543L163.653 210.544V210.732Z" fill="#0072A9"/>
<path d="M172.457 201.491H169.147V216.351H179.762V213.541H172.457V201.491Z" fill="#0072A9"/>
<path d="M190.189 209.608C190.189 210.732 190.189 211.543 190.064 212.043C190.002 212.48 189.752 212.854 189.378 213.167C189.003 213.479 188.379 213.666 187.629 213.666C186.88 213.666 186.256 213.479 185.819 213.167C185.382 212.854 185.132 212.417 185.007 211.855C184.944 211.481 184.882 210.669 184.882 209.42V201.303H181.573V209.295C181.573 210.919 181.698 212.168 181.885 213.042C182.01 213.604 182.322 214.228 182.759 214.728C183.196 215.29 183.821 215.727 184.507 216.039C185.257 216.351 186.318 216.538 187.754 216.538C188.941 216.538 189.877 216.413 190.626 216.101C191.376 215.789 191.938 215.352 192.437 214.852C192.874 214.353 193.186 213.666 193.374 212.917C193.561 212.168 193.623 210.919 193.623 209.171V201.303H190.314V209.545L190.189 209.608Z" fill="#0072A9"/>
<path d="M206.361 208.359C206.861 208.047 207.235 207.672 207.548 207.235C207.922 206.611 208.109 205.986 208.109 205.237C208.109 204.55 207.922 203.988 207.61 203.426C207.298 202.927 206.923 202.49 206.424 202.177C205.987 201.865 205.425 201.616 204.8 201.553C204.238 201.428 203.364 201.428 202.178 201.428H196.184V216.414H201.366C203.239 216.414 204.426 216.414 204.925 216.289C205.737 216.226 206.424 215.977 206.986 215.539C207.548 215.165 207.985 214.603 208.297 213.978C208.609 213.354 208.796 212.667 208.796 211.98C208.796 211.106 208.547 210.295 208.047 209.67C207.61 209.108 207.048 208.671 206.299 208.421L206.361 208.359ZM202.115 213.541H199.555V209.982H201.741C203.052 209.982 203.926 210.045 204.301 210.17C204.675 210.295 204.925 210.482 205.112 210.794C205.3 211.044 205.425 211.418 205.425 211.793C205.425 212.293 205.3 212.605 205.05 212.917C204.8 213.167 204.488 213.354 204.051 213.417C203.864 213.417 203.364 213.479 202.053 213.479L202.115 213.541ZM204.55 206.673C204.55 206.673 203.926 207.11 203.489 207.173C203.239 207.173 202.49 207.173 201.366 207.173H199.618V204.176H201.116C202.49 204.176 203.364 204.176 203.614 204.176C204.051 204.176 204.363 204.363 204.613 204.613C204.8 204.862 204.925 205.175 204.925 205.612C204.925 206.049 204.8 206.361 204.55 206.611V206.673Z" fill="#0072A9"/>
<path d="M159.407 171.333C191.443 171.333 217.413 145.363 217.413 113.327C217.413 81.2911 191.443 55.321 159.407 55.321C127.371 55.321 101.401 81.2911 101.401 113.327C101.401 145.363 127.371 171.333 159.407 171.333Z" fill="#EC632C"/>
<path d="M169.584 165.838C137.553 165.838 111.579 139.863 111.579 107.832C111.579 87.8517 121.694 70.2439 137.054 59.7542C116.074 68.4956 101.339 89.1629 101.339 113.327C101.339 145.358 127.313 171.333 159.344 171.333C171.395 171.333 182.634 167.649 191.875 161.342C185.007 164.215 177.452 165.838 169.522 165.838H169.584Z" fill="#DF5B3B"/>
<mask id="mask0_122_4421" style="mask-type:luminance" maskUnits="userSpaceOnUse" x="101" y="55" width="117" height="117">
<path d="M159.407 171.333C191.443 171.333 217.413 145.363 217.413 113.327C217.413 81.2911 191.443 55.321 159.407 55.321C127.371 55.321 101.401 81.2911 101.401 113.327C101.401 145.363 127.371 171.333 159.407 171.333Z" fill="white"/>
</mask>
<g mask="url(#mask0_122_4421)">
<path d="M219.411 109.768C216.976 107.957 212.917 105.397 207.422 103.961C205.487 103.462 203.614 103.149 201.865 103.025C201.241 98.5914 200.304 94.7826 199.368 91.8479C204.675 92.2226 210.42 92.847 216.539 93.846L214.353 89.6626C208.484 88.6635 202.989 88.0392 197.932 87.6645C197.432 86.2909 196.995 85.2918 196.745 84.7923C195.247 81.4831 193.623 78.6109 192 76.0509C194.498 75.6138 195.996 74.9894 196.621 74.6772C199.742 73.366 201.928 71.5553 203.364 70.244L199.805 67.8089C198.119 69.3699 195.434 71.4928 191.625 72.6167C191.063 72.804 190.564 72.9289 190.064 72.9914C188.004 70.1192 186.068 67.8713 184.632 66.1855C180.761 61.6899 177.077 58.3182 174.267 55.9455L159.157 53.885C163.965 55.8831 171.021 59.4421 177.826 65.7484C180.386 68.1211 182.572 70.5562 184.507 73.1162C182.634 72.9289 180.324 72.4918 177.452 71.8674C170.521 70.3689 167.774 69.3074 159.407 67.0596C151.29 64.8118 147.106 63.6879 142.299 63.126C137.054 62.564 132.433 62.6265 128.562 62.9387L115.762 73.2411C117.947 72.4918 121.069 71.5553 124.878 70.5562C130.56 69.1201 134.244 68.1835 138.802 67.9338C144.172 67.6216 148.105 68.4957 154.661 69.8694C160.406 71.0557 160.343 71.5553 169.147 73.7406C179.512 76.3006 182.821 76.4879 184.632 76.4879C185.506 76.4879 186.256 76.4879 187.005 76.4879C189.44 80.1094 191.313 83.7309 192.812 87.2274C188.129 86.9777 183.945 86.9777 180.324 87.1026C168.773 87.3523 155.223 87.6645 138.802 93.4089C136.367 94.2206 124.878 98.3416 111.579 107.021C105.772 110.767 101.151 114.451 97.7795 117.323L98.9659 130.31C100.652 127.501 103.212 123.629 106.958 119.508C109.893 116.324 116.886 109.268 131.372 102.587C150.353 93.846 167.399 92.4723 177.701 91.7855C182.384 91.4733 188.004 91.286 194.498 91.5357C195.996 95.844 196.87 99.7152 197.432 102.9C192.562 103.149 188.628 104.336 186.068 105.085C178.95 107.27 174.392 110.58 167.461 115.7C158.782 122.131 159.469 123.317 150.041 130.997C143.11 136.617 136.055 142.236 125.627 146.42C119.883 148.73 114.825 149.916 111.329 150.603L117.136 157.721C119.321 156.785 122.443 155.411 126.127 153.538C131.497 150.79 141.674 145.171 153.225 135.43C157.221 132.059 155.661 133.058 167.149 122.63C175.141 115.387 178.326 112.765 183.446 110.517C189.627 107.77 194.747 107.333 196.433 107.208C196.933 107.208 197.495 107.145 198.057 107.083C198.181 108.332 198.244 109.268 198.306 109.893C199.305 128.625 191.938 142.174 189.627 146.357C183.259 157.659 175.079 164.402 173.143 165.963C169.959 168.523 166.962 170.396 164.777 171.645L175.703 170.958C180.948 166.525 189.752 157.908 195.996 144.172C202.365 130.185 202.802 117.885 202.74 112.952C202.74 110.954 202.615 108.956 202.49 107.145C204.8 107.333 207.422 107.832 210.232 109.019C214.978 111.017 218.1 114.014 219.723 115.825L219.536 109.705L219.411 109.768Z" fill="#1D1D1B"/>
</g>
</g>
<defs>
<clipPath id="clip0_122_4421">
<rect width="256" height="256" fill="white"/>
</clipPath>
</defs>
</svg>
