<svg width="256" height="256" viewBox="0 0 256 256" fill="none" xmlns="http://www.w3.org/2000/svg">
<path d="M127.965 249.201C125.047 248.166 120.727 245.498 120.477 245.353C105.184 236.503 90.3672 224.979 77.628 212.025C71.0586 205.345 65.0419 198.293 59.7457 191.066C54.2339 183.545 49.4756 175.795 45.6017 168.033C34.8978 146.579 29.6956 122.824 30.4773 99.1035L4.23199 86.1636L21.5791 20.1736L43.6133 20.1608L45.4996 13.935C45.4996 13.935 50.0988 12.1985 54.1601 11.4915C77.0055 7.51503 102.107 6.89795 128.015 6.86908C128.526 6.86908 129.036 6.86841 129.548 6.86841C148.549 6.86841 170.907 7.24242 192.674 10.0183C192.986 10.0579 193.304 10.0982 193.625 10.1391C197.539 10.6347 201.975 11.196 205.781 12.1421C207.579 12.5893 209.826 13.2816 210.081 13.4233L212.35 20.0413L234.169 20.0567L251.699 86.0911L248.189 88.1364C247.498 88.5386 246.323 89.0973 244.859 89.7862C244.529 89.9413 244.189 90.1011 244.065 90.1622C242.482 90.9445 240.844 91.8288 239.261 92.6836C238.127 93.296 236.954 93.9298 235.785 94.5348C234.711 95.0908 233.624 95.6354 232.573 96.1625C230.752 97.075 228.996 97.9553 227.322 98.8799C228.033 124.986 221.911 149.953 209.124 173.098C203.163 183.886 195.718 194.295 186.995 204.036C178.635 213.371 169.003 222.205 158.366 230.292C151.276 235.683 140.905 243 131.446 247.515C130.853 247.913 127.966 249.201 127.966 249.201L127.965 249.201Z" fill="#252223"/>
<path d="M128.029 12.1985V243.183C127.972 243.189 127.959 243.366 127.643 243.255C126.502 242.853 124.317 241.411 123.155 240.739C93.6475 223.663 65.6775 196.306 50.3848 165.652C39.6514 144.139 34.5724 119.964 35.9751 95.8634L10.5097 83.3083L25.705 25.5003L47.5828 25.4875L49.8779 17.912C51.5599 17.2271 53.3702 17.0592 55.1435 16.7316C78.2601 12.455 104.457 12.2247 128.031 12.1985H128.029Z" fill="#FEFEFE"/>
<path d="M128.029 12.1984C149.233 12.1749 170.96 12.6207 192.003 15.3046C195.932 15.8055 200.693 16.3682 204.497 17.3136C204.76 17.3787 205.682 17.6312 205.838 17.7185C206.017 17.8179 206.135 17.973 206.195 18.1677L208.419 25.3679L230.069 25.3833L245.415 83.1752C245.419 83.3391 245.413 83.4942 245.332 83.6419C245.117 84.0327 242.293 85.0929 241.704 85.3843C238.883 86.7776 236.098 88.3717 233.334 89.8033C229.46 91.8096 225.445 93.6468 221.788 95.9546C221.778 96.8483 221.957 97.7488 221.983 98.6398C223.562 151.474 195.955 195.021 155.145 226.05C147.392 231.944 137.476 238.813 128.679 242.932C128.403 243.061 128.68 243.118 128.029 243.185V12.1984H128.029Z" fill="#E8E8EA"/>
<path d="M127.911 233.783C108.343 224.839 88.9587 208.192 75.258 190.736C66.7297 179.869 59.3443 167.72 54.1659 154.887C54.3787 154.611 54.3828 154.856 54.4701 154.991C55.4236 156.469 56.3005 158.921 57.1875 160.595C71.8309 188.225 98.5593 208.123 127.761 218.338C127.882 222.244 127.896 225.859 127.896 225.859C130.327 224.777 132.722 223.503 135.056 222.208C150.143 213.84 164.48 203.111 176.379 190.61C178.837 188.028 186.724 178.932 191.798 171.919C193.419 169.678 195.464 166.386 196.788 163.949C196.825 163.883 200.078 157.865 201.422 154.952C201.543 155.272 201.282 155.811 201.151 156.158C199.425 160.689 196.889 165.568 194.529 169.815C179.349 197.121 155.864 219.767 127.913 233.783H127.911Z" fill="#9C1D26"/>
<path d="M199.29 159.226C193.647 171.378 182.328 184.845 175.14 192.287C163.15 204.702 150.143 213.841 135.055 222.209C132.722 223.504 130.326 224.778 127.895 225.86V230.56C127.761 225.246 127.761 218.34 127.761 218.34C129.106 217.731 130.994 217.263 132.396 216.73C143.505 212.506 154.757 206.882 164.062 199.514C177.534 188.846 192.615 172.257 199.29 159.226Z" fill="#E71F43"/>
<path d="M80.4223 33.8196L86.2641 48.0547V34.021C86.2641 34.0069 86.4514 33.8196 86.4655 33.8196H90.8301V59.8725L86.152 60.2526L80.3552 46.1746V60.6783L75.7885 61.0819L75.9235 33.8196H80.4223Z" fill="#252223"/>
<path d="M43.1491 65.1045L38.5905 65.7827L37.263 54.9828L33.6794 55.2984C33.1671 59.1103 32.8945 62.9672 32.2908 66.7711L27.8457 67.5285L31.62 33.8342L39.4037 33.8785C40.7674 44.2299 41.97 54.6961 43.1485 65.1045H43.1491ZM35.3668 40.2655C34.9364 43.5692 34.459 47.1031 34.1595 50.4081C34.1488 50.5296 34.1031 50.7371 34.2273 50.7431L36.8447 50.4719L35.6354 40.2662L35.434 39.7277C35.4017 39.8244 35.3856 40.1232 35.3668 40.2662V40.2655Z" fill="#252223"/>
<path d="M47.3861 33.8196L50.4762 57.9931L53.9665 33.8196H58.1296L54.4969 63.487C52.4047 63.7086 48.909 64.2001 46.6018 64.5795L42.8866 33.8196H47.3854H47.3861Z" fill="#252223"/>
<path d="M111.713 33.8195L115.145 36.968L115.244 45.2734C114.257 46.1295 113.3 47.312 112.324 48.1305L111.772 48.3964L115.003 58.9317H110.303L107.016 48.5878L104.797 48.6583V59.2003C103.31 59.1211 101.819 59.3454 100.358 59.4132L100.231 59.1318L100.365 33.8188H111.713V33.8195ZM104.797 44.2246L109.402 44.1326L110.635 42.9488L110.677 39.4209L109.295 38.1169H104.797V44.2246Z" fill="#252223"/>
<path d="M73.3719 33.8196V38.5199L65.3143 38.7884V45.3688L70.686 45.1002V49.7334C70.686 49.8092 70.4604 49.9388 70.3503 49.9348L65.3143 50.2034V57.321L73.3719 56.6495V61.3498L60.7476 62.6934L60.8826 33.8196H73.3719Z" fill="#252223"/>
<path d="M97.8133 33.8196V59.4697C96.7061 59.5328 94.4929 59.6382 93.1231 59.7168L93.3816 33.8196H97.8133Z" fill="#252223"/>
<path d="M41.0071 73.5703H43.4244C43.4284 73.7523 43.4714 73.8322 43.3358 73.9806C43.1652 74.1666 41.6907 75.0388 41.6699 75.1402C41.5819 75.5686 42.4212 77.1029 42.2151 77.3299C41.5732 77.3164 40.8446 76.2267 40.2799 76.2542C39.7152 76.2817 38.9806 77.3285 38.3897 77.4662C38.1816 76.9183 39.0471 75.711 38.9652 75.2671C38.8833 74.8233 37.1509 74.2089 37.1126 73.5703H39.4627L40.2685 71.4243C40.4807 71.4257 41.0904 73.2359 41.0071 73.5703Z" fill="#E71F43"/>
<path d="M60.7483 73.5704C60.9531 72.9117 61.1364 72.2268 61.3855 71.5822C61.4392 71.4432 61.3472 71.1961 61.6198 71.2861C61.7917 71.3425 62.1805 73.5698 62.5612 73.5698H64.7771C64.6367 74.1177 62.9896 74.7804 62.9211 75.1309C62.8903 75.2894 63.7383 77.3414 63.3657 77.3313C62.901 77.1715 62.0066 76.2066 61.5963 76.1428C61.2452 76.0884 60.058 77.3454 59.5403 77.3286C59.4416 77.2259 60.2581 75.4861 60.1829 75.1282C60.1077 74.7703 58.5083 74.0767 58.331 73.5691H60.7483V73.5704Z" fill="#E71F43"/>
<path d="M49.8705 73.7047C49.9538 73.326 50.3291 71.5547 50.7421 71.5547C50.8603 71.5547 51.3216 73.4858 51.5492 73.7047H53.765C53.675 74.2869 52.1555 74.7824 52.0394 75.2773C51.9467 75.6728 52.6705 77.0634 52.6249 77.5966C52.1844 77.4253 50.9569 76.255 50.6064 76.255C50.3197 76.255 48.866 77.6765 48.6625 77.4643C48.6552 76.8412 49.3494 75.7138 49.2051 75.1437C49.1749 75.0235 47.8581 74.2406 47.6231 74.0136C47.5432 73.9364 47.3639 74.0196 47.4526 73.7047H49.8698H49.8705Z" fill="#E71F43"/>
<path d="M94.1874 64.8413V72.3617H98.0819V64.8413H101.305V83.3738H98.0819L98.0228 75.7104C96.7839 75.2658 95.4396 76.0038 94.1874 75.5848V83.3738H90.83V64.8413H94.1874Z" fill="#E71F43"/>
<path d="M103.454 83.3738L106.064 64.9669L111.451 64.8333L114.198 83.3745H110.975L110.17 77.062L107.696 77.0546L106.812 83.3745H103.455L103.454 83.3738ZM108.958 68.7358C108.787 68.525 108.713 68.7472 108.691 68.9346C108.478 70.7529 108.241 72.5605 108.02 74.3755H109.766C109.507 73.5784 109.24 69.0816 108.959 68.7352L108.958 68.7358Z" fill="#E71F43"/>
<path d="M88.547 70.3474H85.324C85.5671 69.6081 85.0299 68.3109 84.2886 68.0926C83.2351 67.7824 81.8579 68.0597 81.3227 69.0998L81.3549 79.2182C81.4221 79.4344 81.9908 80.0629 82.1956 80.1233C82.5616 80.2308 84.2832 80.1999 84.5921 80.0239C85.4381 79.5425 85.234 78.5501 85.3388 78.4198C85.5597 78.1452 88.0475 78.2835 88.547 78.405V81.0238C88.547 81.1903 86.448 83.0395 86.1687 83.3457C84.4759 83.2275 82.3185 83.5988 80.6835 83.3806C79.9872 83.288 78.8497 81.6126 78.199 81.1648C77.9875 76.5531 77.9875 71.7958 78.199 67.1835L80.5841 64.8682C81.9975 65.0475 84.9016 64.501 86.123 64.9139C86.4447 65.0227 88.5464 67.1237 88.5464 67.3251V70.3468L88.547 70.3474Z" fill="#E71F43"/>
<path d="M119.972 79.815C119.965 79.8741 119.788 80.001 119.838 80.1501L126.284 80.2851V83.3738H116.614V64.8413H119.77C119.784 64.8413 119.972 65.0286 119.972 65.0427V79.815Z" fill="#E71F43"/>
<path d="M128.741 81.3212C128.579 81.1204 128.571 80.872 128.561 80.6269L128.636 67.262L131.078 64.8696C132.403 65.0435 135.493 64.4976 136.589 64.9434C136.969 65.0972 138.963 67.1868 139.033 67.6031C138.727 71.7071 139.467 76.4685 139.047 80.4939C139.025 80.7081 139.025 80.8444 138.939 81.0573C138.882 81.1983 136.988 83.1577 136.832 83.2476C136.042 83.7009 132.097 83.1912 130.944 83.347L128.74 81.3219L128.741 81.3212ZM135.234 68.3813C134.774 67.9979 133.375 67.9308 132.825 68.0926C132.611 68.1557 131.837 68.9776 131.793 69.2092V79.1403C131.849 79.4337 132.519 80.0937 132.8 80.1475C133.757 80.3301 135.524 80.2912 135.79 79.1147L135.826 69.3328C135.818 69.0803 135.42 68.5364 135.234 68.3807V68.3813Z" fill="#E71F43"/>
<path d="M164.557 70.3474H161.334C161.575 68.3759 160.365 67.8193 158.574 68.0576C157.53 68.1966 157.09 69.5483 157.363 70.4944C157.525 71.0551 163.71 75.3478 164.489 76.2583C164.624 76.5692 164.622 79.9648 164.567 80.4952C164.456 81.5414 162.883 82.5896 162.18 83.3463C161.033 83.1905 157.08 83.7008 156.292 83.2469C156.156 83.169 154.084 81.1801 154.084 81.0237V77.5992H157.105C157.585 77.5992 156.719 79.9299 158.445 80.1535C160.102 80.3683 161.887 79.9547 161.278 77.855C161.119 77.3038 154.935 72.9876 154.153 72.0912C154.023 71.791 154.023 67.5688 154.153 67.2613C154.22 67.1042 156.432 64.9172 156.596 64.8688C157.863 65.0233 161.306 64.4794 162.269 65.0481C162.438 65.1482 164.558 67.1639 164.558 67.3251V70.3467L164.557 70.3474Z" fill="#E71F43"/>
<path d="M148.576 70.3475C148.834 69.4752 148.218 68.1786 147.307 68.0578C145.446 67.81 144.229 68.5043 144.57 70.5268L151.73 76.2584C151.683 77.3589 152.092 80.2792 151.648 81.1413C151.545 81.3387 149.571 83.3021 149.421 83.3464C148.267 83.1913 144.323 83.701 143.533 83.247C143.397 83.1691 141.324 81.1803 141.324 81.0238V77.5993H144.346C144.646 77.5993 144.509 78.9637 144.625 79.3411C144.729 79.6836 145.319 80.1066 145.682 80.159C147.536 80.4255 148.955 79.9797 148.551 77.8263L141.393 72.0913C141.263 71.7911 141.263 67.5689 141.394 67.2614C141.46 67.1043 143.672 64.9173 143.836 64.869C145.22 65.0422 148.043 64.5097 149.24 64.9146C149.563 65.0234 151.798 67.2372 151.798 67.4602V70.146C151.798 70.1601 151.611 70.3475 151.597 70.3475H148.575H148.576Z" fill="#E71F43"/>
<path d="M175.569 64.8413V68.0644H170.063V72.3617H173.622C173.636 72.3617 173.823 72.5491 173.823 72.5632V75.5848H170.063V80.1508H175.569V83.3067C175.569 83.7431 167.505 83.1113 166.84 83.3738V64.8413H175.569Z" fill="#E71F43"/>
<path d="M201.152 73.8392C201.423 73.7526 201.841 71.7234 201.959 71.6898C202.218 71.6166 202.154 71.8107 202.228 71.9523C202.535 72.5412 202.711 73.1899 202.831 73.8392H205.248C205.293 74.3958 203.555 75.1841 203.496 75.4124C203.369 75.908 204.067 77.1334 204.039 77.733C203.834 77.9392 202.413 76.5116 201.979 76.5526C201.574 76.5902 200.731 77.6343 200.214 77.7364C200.017 77.7753 199.979 77.7451 200.024 77.5477C200.128 77.0938 200.723 75.91 200.651 75.5346C200.553 75.0263 198.82 74.5536 198.936 73.8392C199.501 73.7291 200.684 73.9889 201.152 73.8392Z" fill="#E71F43"/>
<path d="M192.49 73.839H194.773C194.885 74.5494 193.33 74.9227 193.183 75.4109C193.021 75.944 193.774 76.9566 193.698 77.5978C193.428 77.859 192.231 76.5349 191.752 76.5329C191.29 76.5316 190.314 77.6636 189.739 77.7342C189.631 77.1553 190.485 75.8869 190.328 75.4068C190.206 75.0362 188.617 74.4285 188.596 73.8383H190.812C191.126 73.8383 191.493 71.4485 191.817 71.6903L192.49 73.8383V73.839Z" fill="#E71F43"/>
<path d="M212.03 73.8391C212.22 73.778 212.651 72.1711 212.834 71.8186C212.908 71.6776 212.845 71.4809 213.103 71.5554C213.309 71.6152 213.508 73.8391 214.044 73.8391H216.126C216.218 74.1553 216.027 74.0727 215.954 74.1466C215.649 74.4555 214.476 75.0913 214.4 75.411C214.304 75.8219 215.023 77.0534 214.917 77.5979C214.747 77.788 213.296 76.392 212.992 76.4135C212.618 76.439 211.569 77.4865 211.091 77.6C210.795 77.6067 211.621 75.7178 211.54 75.413C211.428 74.9947 210.024 74.3474 209.814 73.8377C210.379 73.7276 211.563 73.9875 212.03 73.8377V73.8391Z" fill="#E71F43"/>
<path d="M139.312 59.3348L126.955 59.1951V34.0211C126.955 33.7881 127.089 33.6538 127.208 33.5349C127.326 33.4161 127.46 33.2825 127.694 33.2825H139.033L139.09 33.2952C139.279 33.3369 139.393 33.3624 141.22 35.172C142.072 36.0153 142.904 36.8627 142.913 36.8715L143.068 37.0293L143.041 43.748L140.726 46.1102L143.043 48.4704L142.999 55.9445L139.312 59.3354V59.3348ZM128.029 58.1328L138.898 58.2557L141.927 55.4698L141.966 48.9062L139.221 46.1095L141.968 43.3061L141.992 37.4657C140.671 36.1241 139.228 34.7033 138.81 34.3561H128.03V58.1322L128.029 58.1328ZM136.899 55.0394L131.597 55.0105L131.659 47.6438L136.875 47.7224L138.475 49.4118L138.508 53.5662L136.899 55.0394ZM132.68 53.9415L136.484 53.9623L137.43 53.0961L137.404 49.8429L136.406 48.7887L132.724 48.7336L132.68 53.9415ZM136.898 44.5631H131.534L131.665 37.5799H136.921L138.477 39.2062L138.462 43.1578L136.898 44.5638V44.5631ZM132.629 43.4888H136.485L137.389 42.6763L137.401 39.6352L136.462 38.6542H132.72L132.629 43.4888Z" fill="white"/>
<path d="M196.142 63.3159L190.521 62.6504L187.151 50.4922C186.825 50.4539 186.193 50.4405 185.785 50.4317C185.406 50.4237 185.093 50.4163 184.836 50.4029V62.0716L179.195 61.5741V33.4174H184.695L184.828 44.5678L185.183 44.5698L188.602 33.4167H194.409L191.156 44.9358L191.299 44.9593L191.393 45.2843C193.33 52.0063 194.785 57.4989 195.969 62.5699L196.143 63.3152L196.142 63.3159ZM191.364 61.6681L194.746 62.0683C193.618 57.3049 192.245 52.1366 190.452 45.9074L189.795 45.7973L192.989 34.4904H189.396L185.975 45.6482L183.767 45.6341L183.633 34.4904H180.269V60.5884L183.761 60.8966V49.0955L184.44 49.2822C184.62 49.3319 185.306 49.346 185.808 49.3567C187.342 49.3896 187.758 49.4292 188.002 49.722L188.077 49.8113L191.363 61.6681H191.364Z" fill="white"/>
<path d="M174.003 61.1116L165.67 60.469L165.534 60.3474C165.525 60.3394 164.616 59.5229 163.717 58.6856C161.737 56.8397 161.737 56.7175 161.737 56.4489V51.2625L167.377 51.4283V54.0712L168.506 55.153L171.233 55.2698L172.184 54.3183V52.7008C170.932 51.664 164.009 45.9364 162.002 44.3108L161.804 44.1496L161.808 36.9555L165.372 33.4457L173.933 33.429L177.719 37.1543V42.2977L172.263 42.1332L172.03 39.8623L171.252 39.0505H168.201L167.445 39.8207L167.413 41.7303C168.576 42.6731 174.426 47.4176 177.456 49.9249L177.646 50.082L177.79 57.6884L174.005 61.1109L174.003 61.1116ZM166.116 59.4255L173.625 60.0043L176.705 57.2197L176.581 50.5957C173.166 47.7749 166.6 42.4548 166.533 42.4004L166.329 42.2359L166.377 39.3741L167.749 37.9761H171.71L173.061 39.3849L173.235 41.087L176.644 41.1898V37.6041L173.494 34.504L165.814 34.5187L162.882 37.4047L162.879 43.6373C165.33 45.6315 172.986 51.9682 173.065 52.034L173.26 52.1951V54.7628L171.659 56.3629L168.055 56.2085L166.304 54.5292V52.4718L162.812 52.3691V56.2945C163.167 56.7141 164.691 58.143 166.117 59.4262L166.116 59.4255Z" fill="white"/>
<path d="M161.158 60.1782L155.558 59.8519L154.227 51.01L151.464 50.9066L150.094 59.6021L144.463 59.4524L148.403 33.429L157.17 33.5518L161.157 60.1776L161.158 60.1782ZM156.491 58.8299L159.899 59.0287L156.243 34.6141L149.325 34.5174L145.707 58.4116L149.179 58.5036L150.55 49.7973L155.157 49.9692L156.49 58.8299H156.491ZM154.706 47.5177H150.908L152.807 34.7249L154.706 47.5177H154.706ZM152.154 46.4433H153.46L152.807 42.0432L152.155 46.4433H152.154Z" fill="white"/>
<path d="M211.157 65.3182L197.595 63.569L197.457 33.4167H211.157V39.7467L203.099 39.4781L203.088 45.4965L208.471 45.8013V51.9909L203.1 51.588V58.0516L211.157 58.9916V65.3182ZM198.665 62.6236L210.083 64.0961V59.9478L202.025 59.0077V50.4304L207.397 50.8333V46.8166L202.012 46.5117L202.026 38.3675L210.083 38.6361V34.4911H198.536L198.665 62.6236Z" fill="white"/>
<path d="M223.378 67.3689L222.742 67.25C221.747 67.064 220.175 66.823 219.136 66.6632C218.739 66.6027 218.407 66.5517 218.188 66.5161L217.736 66.4436L217.738 39.9837L212.5 39.8494V33.2825H227.877C228.11 33.2825 228.244 33.4168 228.363 33.5349C228.482 33.6531 228.615 33.7874 228.615 34.0211V40.2798L223.378 40.1455V67.3689ZM218.811 65.5264C218.958 65.5492 219.121 65.574 219.298 65.6016C220.193 65.7392 221.356 65.9172 222.304 66.0803V39.0437L227.541 39.178V34.3575H213.574V38.8026L218.812 38.9369L218.811 65.5264Z" fill="white"/>
<path d="M138.974 33.8196C139.216 33.8726 142.53 37.2474 142.53 37.2474L142.504 43.527L139.973 46.1095L142.504 48.6879L142.463 55.7068L139.105 58.7948L127.492 58.6639V34.021C127.492 34.0069 127.68 33.8196 127.694 33.8196H138.974ZM136.691 38.117H132.193L132.082 44.0259H136.691L137.926 42.9166L137.94 39.4203L136.692 38.1163L136.691 38.117ZM136.691 54.5008L137.969 53.3311L137.939 49.6273L136.64 48.2555L132.192 48.1883L132.138 54.4759L136.691 54.5008Z" fill="#252223"/>
<path d="M184.164 33.9538L184.298 45.1008L185.579 45.1089L188.999 33.9531H193.699L190.476 45.3661L190.875 45.4325C192.517 51.1259 194.093 56.9019 195.445 62.6913L190.943 62.1581L187.591 50.0663C187.387 49.8233 184.86 49.9535 184.298 49.7998V61.4833L179.732 61.0804V33.9531H184.164V33.9538Z" fill="#252223"/>
<path d="M177.181 41.743L172.749 41.6094L172.545 39.6232L171.481 38.5126H167.974L166.91 39.597L166.87 41.9827C166.87 41.9827 173.718 47.5297 177.112 50.3391L177.247 57.4547L173.814 60.5582L165.893 59.9478C165.893 59.9478 162.274 56.7006 162.274 56.4488V51.8157L166.84 51.95V54.3001L168.28 55.6807L171.446 55.8163L172.722 54.5405V52.4475C172.722 52.4475 164.566 45.6966 162.341 43.893L162.345 37.1804L165.593 33.9822L173.713 33.9661L177.181 37.3785V41.743Z" fill="#252223"/>
<path d="M160.528 59.6033L156.024 59.3407L154.692 50.4894L151.007 50.3518L149.637 59.0527L145.085 58.9318L148.864 33.9727L156.706 34.0828L160.527 59.6026L160.528 59.6033ZM154.082 46.9803L152.807 38.3842L151.531 46.9803H154.082Z" fill="#252223"/>
<path d="M210.62 33.9539V39.1913L202.562 38.9227L202.55 46.0047L207.934 46.3089V51.412L202.562 51.0091V58.5296L210.62 59.4696V64.7071L198.13 63.0962L197.996 33.9539H210.62Z" fill="#252223"/>
<path d="M228.078 39.7285L222.841 39.5942V66.7215C221.469 66.465 219.086 66.1165 218.273 65.9856L218.275 39.4599L213.037 39.3256V33.8196H227.877C227.891 33.8196 228.078 34.0069 228.078 34.021V39.7285Z" fill="#252223"/>
<path d="M128.029 87.8057C140.536 87.8661 150.251 91.2617 160.663 97.8777C161.729 98.5552 161.988 98.8835 162.944 99.6927C164.325 100.861 165.724 102.049 167.169 103.123C176.448 104.572 185.83 106.032 194.708 109.156C199.057 110.687 208.549 114.443 208.615 119.97C208.659 123.715 203.573 126.806 200.656 128.277C200.467 128.372 200.084 128.666 199.876 128.766C198.063 129.629 195.349 130.635 192.919 131.411C190.17 132.29 187.266 133.14 184.431 133.6C187.204 147.387 185.095 161.868 178.143 174.112C167.906 192.144 148.856 203.279 128.029 203.432C93.9625 203.684 67.8081 174.848 70.0723 141.08C70.2436 138.53 70.8284 136.022 71.0701 133.484C68.7032 132.865 66.3175 132.278 63.9714 131.585C63.9714 131.585 63.2428 131.195 63.0313 131.122C53.5965 127.859 39.5628 120.581 54.971 112.177C64.7556 106.84 77.2886 105.257 88.1449 103.317C90.1109 101.655 92.2133 100.132 94.2344 98.5283C94.4231 98.3786 94.5937 98.2987 94.591 98.012C104.703 91.3027 115.8 87.7466 128.03 87.8057H128.029ZM123.175 92.5254C114.393 93.115 105.564 96.1869 98.3626 101.193C99.1791 102.786 100.317 104.252 101.194 105.845C104.926 112.631 107.52 122.286 106.532 130.03C104.913 142.721 97.2755 152.137 92.4188 163.322C89.3535 170.382 88.1523 174.365 90.8281 181.88C91.989 185.142 92.314 185.541 95.008 187.638C102.874 193.763 112.55 197.717 122.525 198.598C124.45 174.719 125.736 150.795 125.35 126.812C125.231 119.433 124.925 111.899 124.403 104.526C124.119 100.523 123.723 96.4911 123.176 92.5241L123.175 92.5254ZM158.235 101.787C150.759 96.6153 141.966 93.3171 132.865 92.5066C131.839 100.816 131.469 109.187 130.979 117.546C130.351 140.606 130.897 163.721 132.597 186.711C132.89 190.671 133.272 194.644 133.676 198.592C143.687 197.429 153.203 193.495 161.052 187.235C162.236 186.291 164.906 184.168 165.705 183.025C167.045 181.105 167.925 175.334 167.645 173.016C166.489 163.459 158.617 153.219 154.826 144.338C149.271 131.325 148.53 120.712 154.865 107.724C155.866 105.673 157.16 103.791 158.235 101.786L158.235 101.787ZM84.1141 176.037C83.9207 170.139 86.2406 164.315 88.7002 159.067C91.3814 153.347 94.9153 148.112 97.434 142.285C102.095 131.501 103.131 123.375 98.5473 112.252C98.0907 111.144 94.926 104.691 94.0941 104.474C93.8403 104.408 93.6335 104.595 93.4488 104.728C92.5047 105.406 90.8193 107.07 89.9505 107.944C73.1356 124.842 69.5385 151.284 81.4564 172.048C82.2474 173.426 83.0854 174.823 84.1141 176.037ZM173.15 173.754C174.78 170.843 176.354 167.914 177.549 164.789C184.497 146.642 181.103 126.246 168.716 111.379C168.025 110.549 162.935 105.005 162.352 105.134C159.062 109.948 156.829 115.583 155.87 121.356C152.927 139.074 167.618 152.523 171.905 168.489C172.361 170.187 172.489 171.936 172.888 173.551C172.937 173.745 172.781 173.793 173.15 173.754V173.754ZM173.824 110.368C173.782 110.564 173.893 110.664 173.981 110.814C174.95 112.451 176.391 114.108 177.423 115.832C179.753 119.721 181.608 123.939 182.991 128.26C183.146 128.744 183.779 131.37 183.981 131.44C189.336 130.383 195.493 129.109 200.282 126.418C207.841 122.171 203.439 118.382 197.723 115.946C190.322 112.79 181.736 111.616 173.824 110.368V110.368ZM81.6981 110.503C75.6213 111.417 69.4828 112.424 63.6001 114.226C60.1749 115.275 48.913 118.917 53.2245 124.135C55.5042 126.894 62.2383 128.989 65.6883 129.935C67.6779 130.481 69.7319 130.953 71.7497 131.305C73.5284 123.744 77.1321 116.732 81.6981 110.502V110.503Z" fill="#252223"/>
<path d="M60.0077 104.993C55.247 106.503 47.4083 109.941 44.846 114.407C43.3439 117.026 44.1121 120.187 45.8424 122.186C48.584 125.354 53.7275 128.603 63.6048 131.394C63.3221 131.235 63.2435 131.196 63.032 131.123C53.5972 127.86 39.5635 120.582 54.9717 112.178C64.7563 106.841 77.2893 105.258 88.1456 103.318C90.1116 101.656 92.214 100.133 94.2351 98.5291C94.4238 98.3793 94.5944 98.2994 94.5917 98.0127C90.0579 98.4115 71.8853 101.226 60.0084 104.993H60.0077Z" fill="#9C1D26"/>
<path d="M204.98 109.024C201.693 107.235 191.705 103.45 186.072 102.08C181.292 100.919 168.989 98.7781 160.663 97.8777C161.729 98.5552 161.988 98.8835 162.944 99.6927C164.325 100.861 165.724 102.049 167.169 103.123C176.448 104.572 185.83 106.032 194.708 109.156C199.057 110.687 208.549 114.443 208.615 119.97C208.659 123.715 203.573 126.806 200.656 128.277C200.467 128.372 200.351 128.412 200.146 128.605C203.094 127.338 206.778 125.952 209.88 122.721C215.136 117.248 210.274 111.906 204.979 109.024H204.98Z" fill="#9C1D26"/>
<path d="M158.235 101.787C157.159 103.792 155.866 105.673 154.865 107.725C148.529 120.713 149.271 131.326 154.826 144.339C158.617 153.219 166.488 163.459 167.644 173.017C167.924 175.334 167.045 181.106 165.704 183.026C164.906 184.169 162.235 186.292 161.051 187.236C153.201 193.495 143.686 197.429 133.675 198.593C133.272 194.644 132.89 190.671 132.597 186.712C130.897 163.721 130.351 140.607 130.978 117.547C131.469 109.188 131.838 100.817 132.864 92.5073C141.966 93.3178 150.758 96.6154 158.234 101.788L158.235 101.787ZM143.07 99.6235C143.755 100.225 144.764 100.601 145.578 101.078C148.374 102.718 151.013 104.635 153.478 106.738C153.724 106.393 154.887 104.292 154.744 104.066C152.735 103.094 150.759 102.034 148.684 101.195C147.582 100.749 145.42 100.241 144.548 99.7578C144.528 99.6974 144.474 99.635 144.413 99.6235C144.149 99.5725 143.894 99.5557 143.607 99.4892L143.54 99.3576L143.473 99.4892C143.362 99.4617 143.135 99.5248 143.07 99.4892C143.056 99.4812 143.14 99.2643 142.889 99.1958C142.271 99.0273 141.558 98.9091 140.922 98.8191C141.474 99.2395 142.383 99.6195 143.07 99.6235ZM152.47 154.952C152.243 154.715 150.484 156.393 150.177 156.62C145.898 159.794 140.905 162.055 135.645 163.037L135.425 163.23L138.505 192.287C145.181 191.109 151.664 188.541 157.347 184.875C158.101 184.388 161.76 181.898 161.973 181.31C162.07 181.043 162.125 180.329 162.147 180.006C162.709 171.857 156.075 164.779 153.118 157.73C152.759 156.874 152.471 155.89 152.47 154.953V154.952Z" fill="#E71F43"/>
<path d="M123.175 92.5254C123.723 96.4924 124.118 100.525 124.402 104.527C124.925 111.9 125.23 119.434 125.349 126.813C125.735 150.797 124.449 174.72 122.524 198.599C112.55 197.718 102.874 193.764 95.0073 187.639C92.3134 185.542 91.9884 185.143 90.8274 181.882C88.1516 174.366 89.3529 170.383 92.4181 163.324C97.2749 152.138 104.913 142.722 106.532 130.032C107.519 122.288 104.926 112.632 101.193 105.847C100.317 104.253 99.1785 102.787 98.362 101.195C105.563 96.1882 114.392 93.1156 123.175 92.5267L123.175 92.5254ZM113.526 99.6235C109.588 100.755 105.766 102.18 102.193 104.204C101.645 104.429 102.78 106.51 102.989 106.735C103.123 106.88 103.151 106.917 103.364 106.858C106.429 104.314 109.896 101.703 113.526 100.026C114.221 99.7047 115.304 99.6309 115.809 98.9534C115.037 99.1226 114.281 99.4066 113.526 99.6235ZM121.18 163.28C116.103 162.433 111.265 160.257 107.092 157.291C106.534 156.894 105.042 155.474 104.66 155.292C104.483 155.208 104.315 155.206 104.127 155.221C104.235 156.295 103.857 157.264 103.435 158.224C100.47 164.977 94.2835 171.982 94.4507 179.736C94.4581 180.086 94.6501 181.573 94.8005 181.803C100.082 186.185 106.41 189.483 113.02 191.382C113.737 191.588 117.679 192.645 118.072 192.401L121.179 163.28H121.18Z" fill="#E71F43"/>
<path d="M84.1141 176.037C83.0861 174.823 82.2474 173.426 81.4564 172.048C69.5385 151.284 73.1356 124.842 89.9505 107.944C90.8194 107.07 92.5047 105.406 93.4488 104.728C93.6342 104.595 93.8403 104.409 94.0941 104.474C94.9261 104.691 98.0907 111.144 98.5473 112.252C103.131 123.375 102.095 131.502 97.434 142.285C94.9153 148.112 91.3821 153.347 88.7002 159.067C86.2406 164.315 83.92 170.139 84.1141 176.037ZM82.4972 166.094C82.6483 165.999 83.8207 163.304 84.0456 162.873C86.0647 159.009 88.2147 155.21 90.587 151.554C93.195 147.534 95.3283 145.407 94.2613 140.039C93.4294 135.853 92.2919 132.968 92.2999 128.434C92.306 125.18 93.2554 122.392 93.4985 119.417C93.6932 117.032 92.1939 114.781 90.2291 113.587C77.9238 126.423 74.0166 145.067 80.2525 161.838C80.4472 162.361 81.9063 165.908 82.0963 166.037C82.1957 166.104 82.4193 166.144 82.4972 166.095V166.094Z" fill="#E71F43"/>
<path d="M173.15 173.754C172.781 173.793 172.937 173.745 172.888 173.55C172.489 171.935 172.361 170.187 171.905 168.488C167.618 152.523 152.927 139.073 155.871 121.355C156.829 115.583 159.062 109.947 162.352 105.133C162.935 105.005 168.025 110.548 168.716 111.378C181.103 126.245 184.497 146.641 177.55 164.789C176.354 167.914 174.78 170.844 173.15 173.753V173.754ZM174.1 165.825C174.239 165.846 174.375 165.855 174.5 165.769C174.827 165.543 176.274 161.851 176.511 161.2C181.77 146.769 179.605 131.159 170.844 118.652C170.339 117.931 166.899 113.453 166.372 113.455C165.652 113.459 163.8 115.954 163.518 116.647C162.71 118.634 163.565 120.598 163.846 122.56C164.485 127.022 164.482 131.079 163.58 135.51C163.082 137.955 161.981 140.258 162.134 142.804C162.39 147.063 165.086 149.764 167.246 153.136C169.836 157.179 172.051 161.487 174.099 165.824L174.1 165.825Z" fill="#E71F43"/>
<path d="M143.473 99.4891C143.515 99.4999 143.565 99.479 143.607 99.4891C143.894 99.5556 144.149 99.5724 144.413 99.6234C144.454 99.6684 144.495 99.7288 144.548 99.7577C145.42 100.241 147.582 100.749 148.684 101.195C150.759 102.034 152.735 103.094 154.744 104.066C154.887 104.291 153.724 106.392 153.478 106.738C151.013 104.634 148.374 102.718 145.578 101.078C144.764 100.6 143.755 100.225 143.07 99.6234V99.4891C143.135 99.5247 143.362 99.4616 143.473 99.4891Z" fill="#FEFEFE"/>
<path d="M113.526 99.6233V100.026C109.896 101.703 106.43 104.315 103.364 106.858C103.151 106.917 103.123 106.88 102.989 106.735C102.78 106.51 101.645 104.429 102.193 104.203C105.766 102.18 109.588 100.754 113.526 99.6233Z" fill="#FEFEFE"/>
<path d="M152.47 154.953C152.47 155.889 152.759 156.874 153.118 157.73C156.075 164.779 162.708 171.856 162.147 180.005C162.125 180.328 162.07 181.042 161.973 181.309C161.76 181.898 158.102 184.388 157.347 184.875C151.664 188.54 145.181 191.109 138.505 192.287L135.425 163.23L135.644 163.036C140.905 162.055 145.898 159.793 150.177 156.62C150.484 156.392 152.243 154.714 152.47 154.952V154.953Z" fill="#9C1D26"/>
<path d="M121.18 163.28L118.073 192.401C117.68 192.644 113.737 191.588 113.021 191.382C106.412 189.483 100.084 186.184 94.8012 181.803C94.6501 181.574 94.4587 180.086 94.4513 179.736C94.2841 171.982 100.471 164.977 103.436 158.224C103.857 157.264 104.236 156.295 104.127 155.221C104.315 155.206 104.484 155.208 104.66 155.292C105.044 155.474 106.534 156.894 107.092 157.291C111.266 160.258 116.104 162.433 121.18 163.28H121.18Z" fill="#9C1D26"/>
<path d="M82.4972 166.094C82.42 166.143 82.1964 166.104 82.0963 166.037C81.9063 165.908 80.4465 162.36 80.2525 161.837C74.0159 145.066 77.9238 126.423 90.2291 113.586C92.1945 114.78 93.6932 117.031 93.4985 119.416C93.2561 122.392 92.306 125.179 92.3 128.433C92.2912 132.967 93.4294 135.853 94.2613 140.039C95.3283 145.407 93.195 147.534 90.587 151.553C88.2141 155.209 86.0647 159.008 84.0456 162.873C83.8207 163.304 82.6483 165.998 82.4972 166.094V166.094Z" fill="#9C1D26"/>
<path d="M174.099 165.825C172.051 161.487 169.836 157.179 167.246 153.137C165.086 149.765 162.391 147.063 162.135 142.805C161.981 140.258 163.082 137.956 163.58 135.511C164.483 131.08 164.485 127.022 163.847 122.561C163.565 120.598 162.711 118.635 163.518 116.648C163.8 115.954 165.653 113.459 166.373 113.456C166.899 113.453 170.339 117.931 170.844 118.652C179.606 131.16 181.771 146.77 176.512 161.201C176.275 161.851 174.828 165.544 174.5 165.769C174.375 165.855 174.24 165.846 174.1 165.826L174.099 165.825Z" fill="#9C1D26"/>
</svg>
