<svg width="256" height="256" viewBox="0 0 256 256" fill="none" xmlns="http://www.w3.org/2000/svg">
<path d="M78.9456 139.167H87.4301C88.8442 139.167 89.917 139.557 90.6972 140.386C91.4774 141.166 91.8187 142.19 91.8187 143.36C91.8187 144.335 91.5261 145.213 90.9898 145.896C90.6484 146.383 90.112 146.725 89.4294 147.017C90.5021 147.31 91.2823 147.797 91.7699 148.529C92.2576 149.211 92.5014 150.138 92.5014 151.211C92.5014 152.088 92.3063 152.869 91.965 153.551C91.6237 154.234 91.136 154.819 90.5021 155.209C90.112 155.453 89.5269 155.648 88.7955 155.746C87.7715 155.892 87.0888 155.989 86.7475 155.989H78.9456V139.167ZM83.5292 145.749H85.4797C86.1623 145.749 86.6987 145.603 86.9425 145.311C87.2351 145.018 87.3814 144.628 87.3814 144.091C87.3814 143.604 87.2351 143.214 86.9425 142.97C86.6499 142.726 86.1623 142.58 85.4797 142.58H83.4804V145.749H83.5292ZM83.5292 152.381H85.821C86.6012 152.381 87.1376 152.235 87.4789 151.893C87.8202 151.552 87.9665 151.162 87.9665 150.626C87.9665 150.138 87.8202 149.748 87.4789 149.407C87.1863 149.114 86.6012 148.968 85.821 148.968H83.5292V152.381Z" fill="#45AD4A"/>
<path d="M86.7963 156.184H78.7993V138.971H87.4789C88.9418 138.971 90.0633 139.41 90.8923 140.239C91.6725 141.068 92.0626 142.141 92.0626 143.36C92.0626 144.384 91.77 145.31 91.2336 146.042C90.941 146.432 90.5509 146.773 90.0146 147.017C90.8923 147.31 91.5262 147.797 91.965 148.431C92.5014 149.163 92.7452 150.089 92.7452 151.211C92.7452 152.088 92.5502 152.917 92.2088 153.649C91.8187 154.38 91.3311 154.965 90.6972 155.355C90.3071 155.648 89.722 155.794 88.893 155.941C87.7715 156.087 87.1376 156.184 86.7963 156.184ZM79.1406 155.794H86.7963C87.1376 155.794 87.7715 155.697 88.7955 155.55C89.5269 155.453 90.0633 155.258 90.4534 155.014C91.0386 154.624 91.5262 154.088 91.8187 153.454C92.1601 152.771 92.3064 152.04 92.3064 151.211C92.3064 150.187 92.0626 149.309 91.5749 148.675C91.0873 147.992 90.3559 147.554 89.3319 147.261L88.7955 147.115L89.3319 146.92C89.9658 146.676 90.5022 146.286 90.8435 145.847C91.3311 145.164 91.6237 144.335 91.6237 143.409C91.6237 142.287 91.2824 141.312 90.5509 140.581C89.8195 139.8 88.7955 139.459 87.4302 139.459H79.1406V155.794ZM85.821 152.576H83.3342V148.773H85.821C86.65 148.773 87.2839 148.919 87.6252 149.26C87.9665 149.602 88.1616 150.04 88.1616 150.577C88.1616 151.162 87.9665 151.65 87.6252 151.991C87.2351 152.381 86.65 152.576 85.821 152.576ZM83.7243 152.186H85.821C86.5525 152.186 87.0401 152.04 87.3326 151.747C87.6252 151.454 87.7715 151.113 87.7715 150.626C87.7715 150.187 87.6252 149.845 87.3326 149.553C87.0401 149.309 86.5525 149.163 85.821 149.163H83.7243V152.186ZM85.4797 145.944H83.3342V142.385H85.5285C86.2599 142.385 86.7963 142.531 87.0888 142.872C87.3814 143.165 87.5765 143.604 87.5765 144.14C87.5765 144.725 87.4302 145.164 87.0888 145.506C86.7963 145.798 86.2599 145.944 85.4797 145.944ZM83.7243 145.554H85.4797C86.1136 145.554 86.6012 145.408 86.7963 145.213C87.0401 144.969 87.1376 144.628 87.1376 144.14C87.1376 143.701 87.0401 143.36 86.7963 143.116C86.5525 142.872 86.1136 142.775 85.4797 142.775H83.6755V145.554H83.7243Z" fill="black"/>
<path d="M103.57 153.21H98.4017L97.6702 155.989H93.0378L98.5479 139.215H103.473L108.983 155.989H104.253L103.57 153.21ZM102.595 149.553L100.986 143.506L99.3769 149.553H102.595Z" fill="#45AD4A"/>
<path d="M109.275 156.184H104.107L103.375 153.405H98.5479L97.8164 156.184H92.7939L98.4503 139.02H103.668L103.717 139.166L109.275 156.184ZM104.448 155.794H108.788L103.424 139.41H98.7429L93.3303 155.794H97.5238L98.2553 153.015H103.717L104.448 155.794ZM102.839 149.748H99.133L100.986 142.775L102.839 149.748ZM99.6206 149.358H102.351L100.986 144.238L99.6206 149.358Z" fill="black"/>
<path d="M109.666 150.43L113.957 150.138C114.054 150.918 114.249 151.552 114.542 151.991C115.029 152.673 115.663 153.015 116.541 153.015C117.175 153.015 117.711 152.82 118.053 152.478C118.394 152.137 118.589 151.747 118.589 151.259C118.589 150.821 118.443 150.43 118.101 150.089C117.76 149.748 116.98 149.406 115.761 149.114C113.762 148.626 112.347 147.944 111.518 147.066C110.641 146.237 110.251 145.115 110.251 143.848C110.251 142.97 110.446 142.19 110.885 141.409C111.323 140.629 111.957 140.044 112.835 139.605C113.713 139.166 114.932 138.923 116.443 138.923C118.296 138.923 119.759 139.313 120.734 140.142C121.71 140.922 122.295 142.19 122.49 143.945L118.199 144.238C118.101 143.457 117.858 142.921 117.467 142.58C117.126 142.238 116.59 142.043 115.956 142.043C115.419 142.043 115.029 142.19 114.786 142.433C114.542 142.677 114.395 143.019 114.395 143.36C114.395 143.604 114.493 143.848 114.737 144.091C114.932 144.335 115.468 144.53 116.248 144.725C118.248 145.213 119.662 145.701 120.491 146.188C121.368 146.676 121.954 147.31 122.344 148.041C122.734 148.773 122.929 149.601 122.929 150.528C122.929 151.601 122.685 152.576 122.149 153.502C121.612 154.429 120.881 155.112 119.954 155.55C119.028 156.038 117.858 156.233 116.443 156.233C113.957 156.233 112.201 155.697 111.275 154.575C110.348 153.502 109.812 152.088 109.666 150.43Z" fill="#45AD4A"/>
<path d="M116.492 156.428C113.957 156.428 112.152 155.843 111.177 154.721C110.202 153.6 109.617 152.137 109.519 150.43V150.235L114.2 149.894V150.089C114.298 150.869 114.493 151.454 114.737 151.845C115.176 152.478 115.761 152.771 116.59 152.771C117.175 152.771 117.663 152.625 117.955 152.283C118.248 151.991 118.443 151.601 118.443 151.211C118.443 150.821 118.296 150.479 118.004 150.187C117.711 149.894 116.931 149.553 115.761 149.26C113.762 148.724 112.299 148.041 111.421 147.163C110.543 146.286 110.104 145.164 110.104 143.799C110.104 142.921 110.348 142.043 110.787 141.263C111.226 140.483 111.909 139.849 112.835 139.362C113.713 138.923 114.981 138.679 116.541 138.679C118.443 138.679 119.954 139.118 120.93 139.898C121.954 140.727 122.587 142.043 122.734 143.848V144.043L118.101 144.335L118.053 144.14C117.955 143.409 117.711 142.921 117.419 142.58C117.077 142.287 116.639 142.141 116.053 142.141C115.566 142.141 115.224 142.238 114.981 142.482C114.737 142.726 114.639 142.97 114.639 143.262C114.639 143.458 114.737 143.653 114.932 143.848C115.078 143.994 115.419 144.189 116.346 144.433C118.345 144.92 119.808 145.408 120.637 145.944C121.515 146.481 122.197 147.115 122.587 147.895C122.978 148.675 123.173 149.504 123.173 150.479C123.173 151.601 122.88 152.625 122.344 153.551C121.807 154.478 121.027 155.209 120.101 155.697C119.174 156.184 117.955 156.428 116.492 156.428ZM109.909 150.577C110.056 152.137 110.592 153.454 111.47 154.478C112.396 155.55 114.103 156.038 116.492 156.038C117.858 156.038 119.028 155.794 119.954 155.355C120.832 154.917 121.563 154.234 122.051 153.356C122.539 152.478 122.783 151.503 122.783 150.479C122.783 149.602 122.587 148.773 122.197 148.09C121.807 147.407 121.222 146.773 120.393 146.286C119.564 145.798 118.15 145.31 116.2 144.823C115.371 144.628 114.834 144.384 114.591 144.14C114.347 143.896 114.2 143.604 114.2 143.262C114.2 142.824 114.347 142.482 114.639 142.19C114.932 141.897 115.371 141.751 115.956 141.751C116.639 141.751 117.175 141.946 117.614 142.336C117.955 142.677 118.248 143.214 118.345 143.945L122.246 143.701C122.051 142.141 121.466 140.971 120.588 140.239C119.662 139.459 118.248 139.069 116.443 139.069C114.932 139.069 113.762 139.264 112.933 139.703C112.104 140.142 111.47 140.727 111.031 141.458C110.592 142.19 110.397 142.97 110.397 143.799C110.397 145.067 110.787 146.091 111.616 146.92C112.445 147.749 113.859 148.431 115.761 148.919C117.029 149.26 117.809 149.553 118.15 149.943C118.54 150.333 118.687 150.772 118.687 151.259C118.687 151.747 118.491 152.235 118.101 152.625C117.711 153.015 117.175 153.21 116.492 153.21C115.566 153.21 114.834 152.82 114.347 152.088C114.054 151.698 113.859 151.113 113.762 150.333L109.909 150.577Z" fill="black"/>
<path d="M125.318 139.167H129.804V145.506L134.583 139.167H140.629L135.266 145.506L140.824 155.989H135.266L132.194 149.065L129.804 151.893V155.989H125.318V139.167Z" fill="#45AD4A"/>
<path d="M141.166 156.184H135.119L132.096 149.455L129.999 151.991V156.233H125.074V138.971H129.999V144.92L134.437 138.971H140.971L135.412 145.506L141.166 156.184ZM135.412 155.794H140.532L135.022 145.506L140.191 139.362H134.681L129.658 146.091V139.362H125.513V155.746H129.658V151.747L132.242 148.626L135.412 155.794Z" fill="black"/>
<path d="M142.336 139.167H154.478V142.775H146.871V145.457H153.942V148.87H146.871V152.186H154.722V155.989H142.336V139.167Z" fill="#45AD4A"/>
<path d="M154.917 156.184H142.141V138.971H154.673V142.921H147.066V145.213H154.137V149.016H147.066V151.942H154.868V156.184H154.917ZM142.531 155.794H154.527V152.381H146.676V148.675H153.746V145.652H146.676V142.58H154.283V139.362H142.531V155.794Z" fill="black"/>
<path d="M156.136 139.167H169.887V143.311H165.254V155.989H160.768V143.311H156.136V139.167Z" fill="#45AD4A"/>
<path d="M165.449 156.184H160.524V143.555H155.892V138.971H170.033V143.506H165.4V156.184H165.449ZM160.914 155.794H165.059V143.165H169.691V139.41H156.282V143.165H160.914V155.794Z" fill="black"/>
<path d="M60.1234 140.288C63.3905 141.166 65.3897 141.604 66.0236 141.604C66.9501 141.604 67.6815 141.361 68.1204 140.922C68.608 140.434 69.0469 139.8 69.4857 138.971H72.2164L67.6328 160.134L64.8046 159.598C64.9021 158.33 64.9509 157.598 64.9509 157.355C64.9509 157.111 64.9509 156.818 64.9509 156.379C64.9509 151.601 63.8293 148.041 61.5863 145.749C59.3433 143.409 56.5151 142.238 53.053 142.238C46.0312 142.238 39.936 146.871 34.7672 156.184C30.1349 164.474 27.7943 172.958 27.7943 181.589C27.7943 187.88 29.2084 192.171 32.0853 194.462C34.9623 196.754 38.0831 197.924 41.4964 197.924C45.9337 197.924 50.0785 196.462 53.9794 193.536C56.0762 191.927 58.2217 189.83 60.3185 187.148L63.0492 189.147C59.9284 193.731 56.2225 197.144 51.9314 199.387C47.6404 201.63 43.2518 202.752 38.8632 202.752C31.5977 202.752 25.6488 200.606 20.9189 196.364C16.189 192.122 13.8484 186.417 13.8484 179.297C13.8484 168.424 17.4568 158.964 24.7223 150.967C31.9878 142.97 40.5699 138.971 50.5173 138.971C53.6869 138.923 56.8564 139.41 60.1234 140.288Z" fill="#D12127"/>
<path d="M38.9608 203.142C31.6465 203.142 25.5025 200.948 20.7238 196.657C15.9452 192.366 13.5071 186.514 13.5071 179.298C13.5071 168.375 17.213 158.72 24.4785 150.723C31.744 142.677 40.5212 138.581 50.5661 138.581C53.6869 138.581 56.9052 139.02 60.221 139.898C64.2682 140.971 65.5848 141.214 66.0237 141.214C66.8526 141.214 67.4865 141.019 67.8766 140.629C68.3155 140.19 68.7543 139.557 69.1932 138.776L69.2907 138.581H72.7528L67.9741 160.573L64.4633 159.89V159.549C64.5608 158.281 64.6096 157.55 64.6096 157.306C64.6096 157.111 64.6096 156.769 64.6096 156.331C64.6096 151.698 63.5368 148.187 61.3425 145.944C59.197 143.701 56.4176 142.58 53.1017 142.58C46.2751 142.58 40.2286 147.212 35.1574 156.331C30.5737 164.523 28.2332 173.007 28.2332 181.541C28.2332 187.685 29.6473 191.878 32.3779 194.121C35.1574 196.364 38.2294 197.486 41.5452 197.486C45.8362 197.486 49.981 196.023 53.8332 193.195C55.9299 191.634 58.0267 189.489 60.1235 186.856L60.3673 186.563L63.6831 189.001L63.488 189.294C60.3673 193.926 56.5638 197.388 52.224 199.68C47.8842 201.972 43.3981 203.142 38.9608 203.142ZM50.5661 139.313C40.765 139.313 32.1829 143.311 25.0637 151.211C17.8957 159.061 14.2873 168.521 14.2873 179.298C14.2873 186.27 16.6278 191.927 21.2602 196.072C25.8926 200.265 31.8416 202.362 38.9608 202.362C43.3006 202.362 47.6404 201.24 51.8827 199.046C56.0275 196.901 59.6358 193.585 62.6591 189.245L60.5136 187.685C58.4656 190.269 56.3688 192.317 54.3208 193.877C50.3711 196.852 46.08 198.315 41.5939 198.315C38.1318 198.315 34.9136 197.096 31.9878 194.755C29.0134 192.366 27.5505 187.928 27.5505 181.589C27.5505 172.91 29.8911 164.328 34.5722 155.989C39.7897 146.578 46.08 141.848 53.1993 141.848C56.7589 141.848 59.6846 143.067 62.0252 145.457C64.317 147.846 65.4873 151.503 65.4873 156.379C65.4873 156.818 65.4873 157.16 65.4873 157.403C65.4873 157.598 65.4385 158.232 65.341 159.305L67.4865 159.695L71.9238 139.361H69.8758C69.437 140.142 68.9981 140.727 68.5593 141.214C68.0229 141.751 67.1939 142.043 66.1699 142.043C65.4873 142.043 63.5368 141.605 60.1722 140.727C56.8077 139.752 53.6381 139.313 50.5661 139.313Z" fill="#F2E627"/>
<path d="M33.6458 187.831C34.1334 187.685 34.4747 187.538 34.6698 187.392C35.0111 187.148 35.3524 186.709 35.7913 186.027L45.2511 171.057H45.9338L48.3718 185.637C48.5181 186.612 48.7132 187.197 48.957 187.441C49.2008 187.685 49.6884 187.782 50.4686 187.88V188.514H42.7642V187.88C43.4957 187.831 44.032 187.685 44.3246 187.538C44.6172 187.343 44.7635 187.002 44.7635 186.417C44.7635 186.222 44.7147 185.783 44.6172 185.051C44.6172 184.905 44.5197 184.271 44.3734 183.198H38.8633L37.4004 185.783C37.3029 185.978 37.2054 186.124 37.1566 186.368C37.0591 186.563 37.0591 186.758 37.0591 186.953C37.0591 187.294 37.1566 187.538 37.4004 187.636C37.5955 187.733 38.0343 187.831 38.717 187.88V188.514H33.6458V187.831ZM44.1783 182.126L43.2518 175.933L39.4972 182.126H44.1783Z" fill="#D12127"/>
<path d="M50.6636 188.611H42.5692V187.636H42.7642C43.4469 187.587 43.9345 187.489 44.2271 187.294C44.4709 187.148 44.5684 186.856 44.5684 186.368C44.5684 186.173 44.5196 185.734 44.4221 185.003C44.4221 184.856 44.3246 184.271 44.1783 183.296H38.9608L37.5467 185.783C37.4492 185.929 37.3516 186.124 37.3029 186.319C37.2541 186.514 37.2054 186.66 37.2054 186.856C37.2054 187.246 37.3516 187.343 37.4004 187.343C37.5467 187.392 37.8393 187.489 38.6682 187.587H38.8145V188.562H33.4507V187.636L33.597 187.587C34.0358 187.441 34.3772 187.294 34.5722 187.148C34.8648 186.904 35.2549 186.465 35.645 185.88L45.1535 170.813H46.08L48.5669 185.539C48.7619 186.758 49.0057 187.099 49.1033 187.246C49.2495 187.392 49.5909 187.538 50.5173 187.587H50.7124V188.611H50.6636ZM42.9593 188.221H50.3223V187.977C49.5909 187.928 49.1033 187.782 48.8594 187.538C48.5669 187.294 48.3718 186.66 48.2255 185.636L45.8362 171.252H45.3486L35.9375 186.124C35.4987 186.807 35.1574 187.246 34.7673 187.538C34.5234 187.684 34.2309 187.831 33.792 187.977V188.27H38.4244V188.026C37.8393 187.977 37.4004 187.88 37.2054 187.782C36.9128 187.636 36.7665 187.343 36.7665 186.953C36.7665 186.758 36.8153 186.514 36.9128 186.27C37.0103 186.075 37.1078 185.832 37.2054 185.685L38.7657 183.003H44.5196V183.15C44.6659 184.222 44.7634 184.856 44.7634 185.003C44.861 185.734 44.9097 186.173 44.9097 186.417C44.9097 187.051 44.7147 187.489 44.3734 187.684C44.0808 187.88 43.5932 187.977 42.9105 188.026V188.221H42.9593ZM44.4221 182.321H39.1558L43.3981 175.396L44.4221 182.321ZM39.8385 181.931H43.9833L43.1543 176.469L39.8385 181.931Z" fill="#F2E627"/>
<path d="M50.4685 187.782C51.0536 187.685 51.5413 187.538 51.8338 187.343C52.1264 187.099 52.3702 186.661 52.5653 185.978L55.686 174.568C55.7348 174.324 55.8323 174.031 55.8811 173.787C55.9298 173.544 55.9786 173.3 55.9786 173.154C55.9786 172.715 55.8323 172.422 55.491 172.276C55.2959 172.178 54.8083 172.129 54.1256 172.081V171.398H61.4399C62.659 171.398 63.683 171.544 64.5119 171.886C66.0723 172.52 66.8525 173.69 66.8525 175.348C66.8525 176.859 66.2186 178.078 64.9508 179.005C63.683 179.931 62.0738 180.37 60.0258 180.37C59.7333 180.37 59.4895 180.37 59.2944 180.37C59.0994 180.37 58.6117 180.322 57.8316 180.273L56.4175 185.344L56.2224 186.222C56.1737 186.319 56.1736 186.368 56.1736 186.465C56.1736 186.563 56.1736 186.661 56.1736 186.709C56.1736 187.148 56.2712 187.392 56.515 187.538C56.7588 187.636 57.2464 187.733 58.0266 187.782V188.465H50.5173V187.782H50.4685ZM58.0266 179.395C58.2216 179.444 58.3679 179.444 58.5142 179.444C58.6605 179.444 58.8068 179.444 58.9043 179.444C59.782 179.444 60.4159 179.346 60.9036 179.151C61.3912 178.956 61.7813 178.615 62.1226 178.127C62.4152 177.688 62.7077 177.103 62.854 176.372C63.0491 175.64 63.0978 175.055 63.0978 174.616C63.0978 173.885 62.9516 173.3 62.6102 172.861C62.2689 172.422 61.6837 172.178 60.9036 172.178C60.5135 172.178 60.2209 172.276 60.1234 172.422C59.9771 172.568 59.8308 172.861 59.7333 173.3L58.0266 179.395Z" fill="#D12127"/>
<path d="M58.1729 188.611H50.2734V187.587H50.4197C51.0049 187.538 51.395 187.392 51.6875 187.197C51.9313 187.002 52.1752 186.563 52.3214 185.929L55.4422 174.519C55.491 174.275 55.5885 174.031 55.6372 173.739C55.686 173.495 55.7348 173.3 55.7348 173.153C55.7348 172.666 55.5397 172.52 55.3447 172.471C55.1984 172.422 54.8571 172.324 54.0281 172.276H53.8331V171.252H61.3424C62.6102 171.252 63.6342 171.447 64.5119 171.788C66.1211 172.471 66.95 173.69 66.95 175.445C66.95 177.006 66.2673 178.273 64.9995 179.249C63.7317 180.175 62.0251 180.663 59.9771 180.663C59.6845 180.663 59.4407 180.663 59.2456 180.663C59.0506 180.663 58.6117 180.614 57.9291 180.565L56.5637 185.49L56.3687 186.368C56.3687 186.465 56.3199 186.514 56.3199 186.612C56.3199 186.709 56.3199 186.758 56.3199 186.856C56.3199 187.197 56.4174 187.441 56.5637 187.489C56.71 187.538 57.1001 187.636 58.0266 187.733H58.2216V188.611H58.1729ZM50.6635 188.221H57.7828V187.928C57.0513 187.88 56.6125 187.782 56.3687 187.636C56.0761 187.489 55.9298 187.148 55.9298 186.66C55.9298 186.563 55.9298 186.465 55.9298 186.368C55.9298 186.27 55.9786 186.173 55.9786 186.075L56.1736 185.198L57.5877 179.98H57.734C58.5142 180.029 59.0018 180.078 59.1969 180.078C59.3919 180.078 59.6357 180.078 59.9283 180.078C61.8788 180.078 63.4879 179.639 64.707 178.761C65.926 177.883 66.5111 176.762 66.5111 175.299C66.5111 173.69 65.7797 172.617 64.3169 171.983C63.5367 171.642 62.5127 171.496 61.2936 171.496H54.1744V171.788C54.8083 171.837 55.1984 171.886 55.3934 171.983C55.686 172.081 56.0273 172.373 56.0273 173.056C56.0273 173.251 55.9786 173.446 55.9298 173.739C55.8811 173.982 55.8323 174.275 55.7348 174.519L52.614 185.929C52.419 186.66 52.1752 187.148 51.8338 187.392C51.5412 187.636 51.1024 187.782 50.566 187.831V188.221H50.6635ZM58.9043 179.688C58.758 179.688 58.6117 179.688 58.4654 179.688C58.3192 179.688 58.1729 179.639 57.9778 179.639L57.7828 179.59L59.4894 173.3C59.6357 172.861 59.782 172.52 59.9283 172.324C60.1233 172.129 60.4159 172.032 60.8548 172.032C61.7325 172.032 62.3176 172.276 62.7077 172.763C63.0491 173.251 63.2441 173.885 63.2441 174.616C63.2441 175.104 63.1466 175.689 62.9515 176.42C62.7565 177.152 62.5127 177.737 62.1713 178.225C61.83 178.712 61.3912 179.102 60.9035 179.297C60.4647 179.541 59.782 179.688 58.9043 179.688ZM58.2704 179.249C58.3679 179.249 58.4167 179.249 58.5142 179.249C58.6605 179.249 58.758 179.249 58.9043 179.249C59.7332 179.249 60.3672 179.151 60.806 178.956C61.2449 178.761 61.635 178.42 61.9275 177.981C62.2201 177.542 62.4639 177.006 62.659 176.323C62.854 175.64 62.9028 175.055 62.9028 174.616C62.9028 173.934 62.7565 173.397 62.4152 173.007C62.1226 172.617 61.5862 172.422 60.8548 172.422C60.5134 172.422 60.3184 172.471 60.1721 172.617C60.0746 172.715 59.9771 172.91 59.8308 173.446L58.2704 179.249Z" fill="#F2E627"/>
<path d="M69.7295 187.782C70.2659 187.685 70.656 187.587 70.8998 187.441C71.2899 187.197 71.5824 186.709 71.7775 185.978L74.8983 174.568C74.9958 174.226 75.0445 173.982 75.0933 173.739C75.1421 173.495 75.1421 173.349 75.1421 173.154C75.1421 172.715 75.0445 172.471 74.8007 172.325C74.5569 172.227 74.0693 172.129 73.2891 172.081V171.398H80.7009C83.1878 171.398 85.0895 172.032 86.4061 173.3C87.7226 174.568 88.3565 176.323 88.3565 178.469C88.3565 181.053 87.3813 183.296 85.4796 185.246C83.3341 187.392 80.5059 188.465 77.0438 188.465H69.7295V187.782ZM84.0167 173.885C83.3341 172.763 82.2125 172.178 80.5546 172.178C80.0183 172.178 79.6282 172.276 79.4331 172.422C79.2381 172.568 79.0918 172.861 78.9943 173.154L75.4834 186.027C75.4346 186.173 75.4346 186.27 75.4346 186.368C75.4346 186.466 75.4346 186.563 75.4346 186.612C75.4346 186.953 75.5322 187.197 75.7272 187.343C75.9223 187.49 76.3124 187.587 76.8487 187.587C79.872 187.587 82.0663 186.027 83.4316 182.906C84.2605 181.004 84.6506 179.005 84.6506 176.908C84.6506 175.64 84.4068 174.665 84.0167 173.885Z" fill="white"/>
<path d="M77.0438 188.611H69.5344V187.587H69.6807C70.2171 187.538 70.5584 187.392 70.8022 187.294C71.1436 187.051 71.4361 186.612 71.6312 185.929L74.7519 174.519C74.8495 174.177 74.8982 173.934 74.947 173.739C74.9958 173.543 74.9958 173.348 74.9958 173.202C74.9958 172.861 74.8982 172.617 74.7519 172.568C74.6057 172.519 74.2156 172.422 73.2891 172.324H73.094V171.3H80.7009C83.2365 171.3 85.187 171.983 86.5523 173.3C87.8689 174.616 88.5516 176.372 88.5516 178.615C88.5516 181.248 87.5763 183.588 85.5771 185.539C83.4316 187.538 80.5546 188.611 77.0438 188.611ZM69.9245 188.221H77.0438C80.4571 188.221 83.2853 187.148 85.382 185.1C87.2838 183.247 88.2102 181.004 88.2102 178.468C88.2102 176.372 87.5763 174.665 86.3085 173.446C85.0407 172.227 83.1878 171.593 80.7497 171.593H73.5329V171.886C74.2156 171.934 74.7032 172.032 74.947 172.178C75.2396 172.324 75.4346 172.666 75.4346 173.153C75.4346 173.348 75.4346 173.543 75.3859 173.787C75.3371 174.031 75.2883 174.275 75.1908 174.616L72.07 186.027C71.875 186.807 71.5337 187.343 71.0948 187.636C70.851 187.782 70.5097 187.928 70.022 187.977V188.221H69.9245ZM76.8487 187.782C76.2636 187.782 75.8735 187.684 75.6297 187.538C75.3859 187.343 75.2396 187.051 75.2396 186.66C75.2396 186.563 75.2396 186.465 75.2396 186.368C75.2396 186.27 75.2883 186.124 75.3371 186.027L78.8479 173.153C78.9455 172.812 79.0918 172.568 79.3356 172.324C79.5794 172.129 79.9695 171.983 80.6034 171.983C82.31 171.983 83.5291 172.568 84.2118 173.787C84.6506 174.567 84.8944 175.591 84.8944 176.908C84.8944 179.054 84.4556 181.053 83.6266 182.955C82.2125 186.173 79.9207 187.782 76.8487 187.782ZM80.5546 172.373C79.9207 172.373 79.6769 172.471 79.5794 172.568C79.4331 172.715 79.2868 172.91 79.238 173.202L75.7272 186.075C75.6784 186.173 75.6784 186.27 75.6784 186.368C75.6784 186.465 75.6784 186.563 75.6784 186.612C75.6784 186.904 75.7759 187.051 75.9222 187.197C76.0198 187.294 76.3123 187.392 76.8975 187.392C79.8232 187.392 81.9687 185.88 83.2853 182.857C84.1142 181.004 84.5043 179.005 84.5043 176.957C84.5043 175.738 84.3093 174.763 83.8704 174.031C83.1878 172.91 82.115 172.373 80.5546 172.373Z" fill="black"/>
<path d="M87.4299 187.782C88.0151 187.684 88.5027 187.538 88.7953 187.343C89.0878 187.099 89.3316 186.66 89.5267 185.978L92.6475 174.568C92.745 174.275 92.7937 174.031 92.8425 173.787C92.8913 173.544 92.94 173.348 92.94 173.202C92.94 172.763 92.8425 172.52 92.5987 172.373C92.3549 172.276 91.8673 172.178 91.0871 172.129V171.447H104.789L103.716 176.274L103.034 176.177C103.034 174.958 102.839 174.08 102.449 173.544C101.815 172.666 100.498 172.227 98.4989 172.227C97.8162 172.227 97.3774 172.324 97.1823 172.471C96.9873 172.617 96.841 172.958 96.6947 173.397L95.1831 179.054C96.9873 179.005 98.1088 178.859 98.6452 178.615C99.1816 178.371 99.7667 177.64 100.401 176.372L101.132 176.469L99.2303 183.442L98.5476 183.296C98.5964 183.052 98.5964 182.857 98.5964 182.662C98.5964 182.467 98.5964 182.321 98.5964 182.223C98.5964 181.297 98.3526 180.712 97.865 180.37C97.3774 180.029 96.4021 179.883 94.9393 179.883L93.2814 186.124C93.2326 186.27 93.2326 186.417 93.1838 186.563C93.1838 186.709 93.1351 186.807 93.1351 186.904C93.1351 187.148 93.2326 187.343 93.4276 187.489C93.6227 187.636 94.0128 187.733 94.5979 187.733C96.1583 187.733 97.4749 187.538 98.5476 187.099C100.254 186.417 101.571 185.246 102.497 183.491L103.131 183.588L101.62 188.562H87.5275V187.782H87.4299Z" fill="white"/>
<path d="M101.669 188.611H87.2351V187.587H87.3814C87.9665 187.538 88.3566 187.392 88.6492 187.197C88.893 187.002 89.1368 186.563 89.2831 185.929L92.4039 174.519C92.4526 174.226 92.5502 173.982 92.5989 173.739C92.6477 173.495 92.6477 173.348 92.6477 173.153C92.6477 172.812 92.5502 172.568 92.4039 172.52C92.2576 172.471 91.9163 172.373 90.941 172.276H90.746V171.252H104.887L103.717 176.518L102.693 176.372V176.225C102.693 175.055 102.498 174.177 102.156 173.69C101.571 172.861 100.255 172.471 98.3528 172.471C97.5239 172.471 97.2801 172.617 97.1825 172.666C97.0363 172.812 96.89 173.056 96.7437 173.495L95.2808 178.907C96.89 178.859 97.914 178.712 98.4016 178.517C98.8892 178.273 99.4256 177.542 100.059 176.372L100.108 176.274L101.181 176.42L99.1818 183.784L98.109 183.588L98.1578 183.393C98.2065 183.15 98.2065 182.955 98.2065 182.76C98.2065 182.564 98.2065 182.418 98.2065 182.321C98.2065 181.492 97.9627 180.907 97.5239 180.614C97.085 180.321 96.1585 180.175 94.842 180.126L93.1841 186.222C93.1353 186.368 93.1353 186.514 93.0865 186.612C93.0865 186.758 93.0378 186.856 93.0378 186.904C93.0378 187.099 93.0865 187.197 93.2328 187.343C93.3303 187.392 93.5742 187.538 94.2568 187.538C95.7684 187.538 97.085 187.343 98.1578 186.904C99.8157 186.27 101.083 185.1 102.01 183.393L102.059 183.296L103.034 183.491L101.669 188.611ZM87.6252 188.221H101.425L102.839 183.588L102.546 183.54C101.571 185.246 100.255 186.417 98.5479 187.099C97.4264 187.538 96.1098 187.782 94.5494 187.782C93.9155 187.782 93.5254 187.684 93.2816 187.538C93.0378 187.343 92.9403 187.099 92.9403 186.807C92.9403 186.709 92.9403 186.612 92.989 186.465C92.989 186.319 93.0378 186.173 93.0865 186.027L94.7932 179.688H94.9395C96.4511 179.688 97.4263 179.883 97.9627 180.224C98.4991 180.614 98.7917 181.248 98.7917 182.223C98.7917 182.321 98.7917 182.516 98.7917 182.662C98.7917 182.808 98.7429 182.955 98.7429 183.101L99.0843 183.15L100.888 176.567L100.45 176.518C99.8157 177.737 99.2305 178.468 98.6942 178.712C98.1578 178.956 96.9875 179.102 95.1345 179.151H94.8907L96.4511 173.251C96.5974 172.763 96.7437 172.422 96.9875 172.227C97.2313 172.032 97.6702 171.934 98.4016 171.934C100.45 171.934 101.815 172.422 102.498 173.3C102.888 173.836 103.083 174.665 103.131 175.884L103.473 175.933L104.448 171.496H91.1848V171.788C91.9163 171.837 92.3551 171.934 92.5989 172.081C92.8915 172.227 93.0378 172.568 93.0378 173.056C93.0378 173.251 92.989 173.446 92.9403 173.69C92.8915 173.934 92.8427 174.177 92.7452 174.47L89.6244 185.88C89.4294 186.612 89.1856 187.099 88.8443 187.343C88.5517 187.587 88.1128 187.733 87.5764 187.782V188.221H87.6252Z" fill="black"/>
<path d="M123.855 171.349C124.733 171.593 125.22 171.739 125.367 171.739C125.611 171.739 125.854 171.691 126.001 171.544C126.147 171.398 126.293 171.203 126.44 170.959H127.22L125.903 176.616L125.172 176.518C125.172 175.494 125.025 174.616 124.733 173.885C124.196 172.568 123.124 171.886 121.563 171.886C119.467 171.886 117.711 173.202 116.248 175.835C114.98 178.127 114.347 180.517 114.347 182.955C114.347 185.003 114.932 186.466 116.102 187.294C116.736 187.733 117.516 187.977 118.394 187.977C119.223 187.977 119.857 187.831 120.296 187.587C120.734 187.343 121.076 186.953 121.222 186.417C121.222 186.514 121.417 185.832 121.807 184.418C122.197 183.003 122.392 182.126 122.392 181.736C122.392 181.297 122.295 181.053 122.051 180.955C121.807 180.858 121.32 180.76 120.491 180.663V179.98H127.854V180.663C127.171 180.76 126.683 180.858 126.488 181.053C126.293 181.248 126.098 181.784 125.806 182.76L124.538 187.392L123.855 187.733C123.27 187.977 122.441 188.27 121.368 188.514C120.296 188.806 119.174 188.904 118.004 188.904C115.858 188.904 114.103 188.318 112.64 187.148C111.08 185.88 110.299 184.174 110.299 182.028C110.299 179.249 111.226 176.762 113.128 174.568C115.224 172.13 117.857 170.959 121.027 170.959C122.051 170.959 122.977 171.106 123.855 171.349Z" fill="#13509C"/>
<path d="M118.053 189.099C115.907 189.099 114.054 188.513 112.591 187.294C110.982 186.027 110.202 184.222 110.202 182.028C110.202 179.2 111.177 176.664 113.079 174.47C115.176 172.032 117.906 170.764 121.125 170.764C122.1 170.764 123.075 170.91 123.953 171.154C125.123 171.496 125.367 171.544 125.416 171.544C125.611 171.544 125.806 171.496 125.903 171.398C126.05 171.252 126.147 171.105 126.293 170.862L126.342 170.764H127.464L126.098 176.811L125.026 176.664V176.469C125.026 175.445 124.928 174.616 124.635 173.934C124.099 172.666 123.124 172.081 121.661 172.081C119.662 172.081 117.906 173.397 116.492 175.933C115.273 178.176 114.639 180.565 114.639 182.955C114.639 184.954 115.176 186.368 116.297 187.099C116.882 187.538 117.662 187.733 118.491 187.733C119.272 187.733 119.857 187.636 120.296 187.392C120.686 187.148 120.978 186.807 121.125 186.368L121.271 185.929C121.368 185.637 121.466 185.149 121.71 184.369C122.1 183.003 122.295 182.077 122.295 181.736C122.295 181.394 122.197 181.199 122.051 181.102C121.905 181.053 121.515 180.907 120.588 180.809H120.393V179.785H128.098V180.809H127.902C127.025 180.907 126.781 181.053 126.683 181.15C126.586 181.248 126.391 181.589 126.05 182.76L124.782 187.489L124.002 187.831C123.416 188.075 122.587 188.367 121.515 188.611C120.344 188.952 119.223 189.099 118.053 189.099ZM121.076 171.154C117.955 171.154 115.322 172.373 113.323 174.714C111.47 176.859 110.543 179.297 110.543 182.028C110.543 184.125 111.323 185.783 112.786 187.002C114.2 188.123 115.956 188.709 118.004 188.709C119.125 188.709 120.247 188.562 121.32 188.318C122.392 188.075 123.221 187.782 123.758 187.538L124.392 187.246L125.659 182.711C126.001 181.394 126.245 181.053 126.391 180.955C126.586 180.76 127.025 180.614 127.659 180.517V180.224H120.686V180.517C121.417 180.614 121.905 180.712 122.1 180.809C122.392 180.955 122.539 181.297 122.539 181.784C122.539 182.223 122.344 183.101 121.954 184.515C121.612 185.783 121.466 186.27 121.368 186.514C121.173 187.099 120.832 187.489 120.344 187.782C119.857 188.026 119.174 188.172 118.345 188.172C117.419 188.172 116.59 187.928 115.907 187.489C114.688 186.661 114.103 185.149 114.103 183.003C114.103 180.565 114.737 178.127 116.005 175.835C117.516 173.153 119.32 171.788 121.466 171.788C123.075 171.788 124.197 172.471 124.782 173.885C125.074 174.568 125.221 175.445 125.221 176.421L125.611 176.469L126.83 171.252H126.44C126.293 171.447 126.196 171.642 126.05 171.788C125.854 171.983 125.611 172.032 125.318 172.032C125.221 172.032 124.928 171.983 123.758 171.642C122.929 171.301 122.051 171.154 121.076 171.154Z" fill="black"/>
<path d="M126.098 187.831C126.586 187.685 126.927 187.538 127.122 187.392C127.464 187.148 127.805 186.709 128.244 186.027L137.704 171.057H138.386L140.824 185.637C140.971 186.612 141.166 187.197 141.41 187.441C141.653 187.685 142.141 187.782 142.921 187.88V188.514H135.217V187.88C135.948 187.831 136.485 187.685 136.777 187.538C137.07 187.343 137.216 187.002 137.216 186.417C137.216 186.222 137.167 185.783 137.07 185.051C137.07 184.905 136.972 184.271 136.826 183.198H131.316L129.853 185.783C129.756 185.978 129.658 186.124 129.609 186.368C129.512 186.563 129.512 186.758 129.512 186.953C129.512 187.294 129.609 187.538 129.853 187.636C130.048 187.733 130.487 187.831 131.17 187.88V188.514H126.147V187.831H126.098ZM136.631 182.126L135.704 175.933L131.95 182.126H136.631Z" fill="#13509C"/>
<path d="M143.116 188.611H135.022V187.636H135.217C135.899 187.587 136.387 187.489 136.68 187.294C136.923 187.148 137.021 186.856 137.021 186.368C137.021 186.173 136.972 185.734 136.875 185.003C136.875 184.856 136.777 184.271 136.631 183.296H131.413L129.999 185.783C129.902 185.929 129.804 186.124 129.755 186.319C129.707 186.514 129.658 186.66 129.658 186.856C129.658 187.246 129.804 187.343 129.853 187.343C129.999 187.392 130.292 187.489 131.121 187.587H131.316V188.562H125.952V187.636L126.098 187.587C126.537 187.441 126.878 187.294 127.073 187.148C127.366 186.904 127.756 186.465 128.146 185.88L137.655 170.813H138.581L141.068 185.539C141.263 186.758 141.507 187.099 141.604 187.246C141.751 187.392 142.092 187.538 143.019 187.587H143.214V188.611H143.116ZM135.363 188.221H142.726V187.977C141.995 187.928 141.507 187.782 141.263 187.538C140.971 187.294 140.776 186.66 140.629 185.636L138.24 171.252H137.85L128.439 186.124C128 186.807 127.659 187.246 127.268 187.538C127.025 187.684 126.732 187.831 126.293 187.977V188.27H130.926V188.026C130.34 187.977 129.902 187.88 129.707 187.782C129.414 187.636 129.268 187.343 129.268 186.953C129.268 186.758 129.316 186.514 129.414 186.27C129.512 186.075 129.609 185.832 129.707 185.685L131.267 183.003H137.021V183.15C137.167 184.222 137.265 184.856 137.265 185.003C137.362 185.734 137.411 186.173 137.411 186.417C137.411 187.051 137.216 187.489 136.875 187.684C136.582 187.88 136.094 187.977 135.412 188.026V188.221H135.363ZM136.826 182.321H131.56L135.802 175.396L136.826 182.321ZM132.242 181.931H136.387L135.558 176.469L132.242 181.931Z" fill="black"/>
<path d="M143.75 188.904L144.676 183.198L145.408 183.247C145.457 184.076 145.505 184.661 145.603 185.003C145.749 185.636 146.042 186.173 146.481 186.66C146.871 187.099 147.31 187.441 147.797 187.684C148.285 187.928 148.821 188.026 149.406 188.026C150.43 188.026 151.211 187.685 151.796 187.051C152.332 186.417 152.625 185.636 152.625 184.759C152.625 183.686 151.601 182.321 149.504 180.712C147.407 179.005 146.383 177.444 146.383 175.982C146.383 174.616 146.822 173.446 147.748 172.471C148.675 171.496 149.943 171.008 151.601 171.008C152.04 171.008 152.527 171.057 153.015 171.154C153.307 171.203 153.6 171.3 153.844 171.349L154.478 171.544C154.624 171.593 154.77 171.642 154.916 171.642C155.063 171.642 155.209 171.691 155.307 171.691C155.599 171.691 155.843 171.642 155.989 171.496C156.136 171.349 156.282 171.203 156.379 171.057H157.16L156.136 176.177L155.453 176.079L155.355 175.25C155.258 174.47 155.014 173.787 154.624 173.202C154.039 172.325 153.161 171.886 151.991 171.886C151.016 171.886 150.284 172.227 149.845 172.958C149.553 173.446 149.406 173.934 149.406 174.47C149.406 175.055 149.553 175.543 149.845 176.03C150.04 176.274 150.284 176.567 150.625 176.859L152.82 178.664C153.6 179.297 154.283 180.029 154.819 180.858C155.355 181.687 155.648 182.613 155.648 183.637C155.648 185.003 155.112 186.173 154.039 187.294C152.966 188.367 151.552 188.904 149.699 188.904C149.211 188.904 148.772 188.855 148.285 188.757C147.797 188.66 147.358 188.562 146.92 188.367L146.286 188.123C146.091 188.026 145.944 187.977 145.847 187.977C145.749 187.977 145.652 187.928 145.554 187.928C145.262 187.928 145.067 187.977 144.969 188.123C144.872 188.27 144.725 188.513 144.579 188.806H143.75V188.904Z" fill="#13509C"/>
<path d="M149.699 189.099C149.211 189.099 148.724 189.05 148.285 188.952C147.797 188.855 147.31 188.757 146.871 188.562L146.237 188.318C145.993 188.221 145.847 188.172 145.798 188.172C145.749 188.172 145.652 188.123 145.554 188.123C145.31 188.123 145.164 188.172 145.115 188.27C145.018 188.367 144.872 188.611 144.725 188.904L144.676 189.001H143.555L144.53 182.906L145.603 183.003V183.15C145.652 183.93 145.7 184.515 145.798 184.905C145.944 185.49 146.237 186.027 146.627 186.465C146.968 186.904 147.407 187.197 147.846 187.441C148.285 187.636 148.821 187.782 149.358 187.782C150.333 187.782 151.064 187.489 151.601 186.856C152.137 186.222 152.381 185.539 152.381 184.71C152.381 183.686 151.357 182.369 149.309 180.809C147.163 179.054 146.091 177.444 146.091 175.933C146.091 174.519 146.578 173.3 147.505 172.324C148.431 171.349 149.796 170.813 151.503 170.813C151.991 170.813 152.43 170.862 152.966 170.959C153.307 171.008 153.6 171.105 153.844 171.154L154.478 171.349C154.624 171.398 154.77 171.398 154.868 171.447C155.014 171.496 155.112 171.496 155.209 171.496C155.453 171.496 155.648 171.447 155.794 171.349C155.94 171.252 156.038 171.105 156.184 170.959L156.233 170.862H157.355L156.233 176.372L155.258 176.225L155.16 175.25C155.063 174.519 154.819 173.836 154.478 173.3C153.892 172.471 153.112 172.032 152.04 172.032C151.113 172.032 150.479 172.373 150.04 173.007C149.748 173.446 149.601 173.934 149.601 174.421C149.601 174.958 149.748 175.445 150.04 175.835C150.187 176.079 150.43 176.323 150.772 176.616L152.966 178.42C153.746 179.054 154.429 179.834 154.965 180.663C155.55 181.492 155.794 182.467 155.794 183.54C155.794 184.905 155.258 186.173 154.136 187.294C153.112 188.562 151.601 189.099 149.699 189.099ZM145.505 187.782C145.652 187.782 145.749 187.782 145.847 187.831C145.944 187.831 146.091 187.928 146.334 187.977L146.968 188.221C147.407 188.367 147.846 188.513 148.334 188.611C148.772 188.708 149.26 188.757 149.699 188.757C151.503 188.757 152.917 188.221 153.941 187.197C154.965 186.173 155.453 184.954 155.453 183.686C155.453 182.662 155.209 181.784 154.673 181.004C154.136 180.224 153.502 179.492 152.722 178.859L150.528 177.054C150.187 176.762 149.894 176.469 149.699 176.225C149.358 175.738 149.211 175.201 149.211 174.568C149.211 173.982 149.358 173.446 149.699 172.958C150.187 172.178 150.967 171.788 151.991 171.788C153.21 171.788 154.136 172.276 154.77 173.202C155.16 173.787 155.404 174.519 155.55 175.299L155.599 175.982L155.94 176.03L156.867 171.349H156.428C156.331 171.496 156.184 171.642 156.038 171.788C155.843 171.934 155.599 172.032 155.258 172.032C155.112 172.032 154.965 172.032 154.819 171.983C154.673 171.934 154.526 171.934 154.38 171.886L153.746 171.691C153.502 171.593 153.259 171.544 152.917 171.496C152.43 171.398 151.991 171.349 151.552 171.349C149.992 171.349 148.724 171.837 147.846 172.715C146.968 173.641 146.529 174.763 146.529 176.079C146.529 177.444 147.553 179.005 149.601 180.663C151.747 182.369 152.771 183.735 152.771 184.856C152.771 185.783 152.478 186.563 151.893 187.246C151.308 187.928 150.43 188.27 149.358 188.27C148.772 188.27 148.187 188.172 147.7 187.928C147.212 187.684 146.724 187.343 146.334 186.856C145.896 186.368 145.603 185.783 145.457 185.1C145.359 184.759 145.31 184.222 145.262 183.442L144.872 183.393L143.994 188.708H144.433C144.579 188.416 144.676 188.221 144.823 188.075C144.92 187.88 145.164 187.782 145.505 187.782Z" fill="black"/>
<path d="M170.52 171.349C171.447 171.593 171.983 171.739 172.178 171.739C172.422 171.739 172.666 171.691 172.763 171.544C172.91 171.398 173.007 171.252 173.154 171.008H173.934L172.617 176.957L171.837 176.811C171.886 176.469 171.886 176.226 171.886 176.177C171.886 176.128 171.886 176.03 171.886 175.884C171.886 174.519 171.593 173.544 170.959 172.91C170.325 172.276 169.545 171.934 168.57 171.934C166.619 171.934 164.864 173.251 163.401 175.884C162.085 178.225 161.451 180.614 161.451 183.052C161.451 184.808 161.841 186.027 162.67 186.661C163.499 187.294 164.376 187.636 165.303 187.636C166.571 187.636 167.741 187.246 168.814 186.417C169.399 185.978 169.984 185.344 170.618 184.613L171.398 185.149C170.52 186.466 169.496 187.392 168.277 188.026C167.058 188.66 165.839 188.952 164.571 188.952C162.523 188.952 160.866 188.367 159.5 187.148C158.184 185.929 157.501 184.369 157.501 182.321C157.501 179.249 158.525 176.616 160.573 174.324C162.621 172.081 165.01 170.959 167.839 170.959C168.716 170.959 169.594 171.106 170.52 171.349Z" fill="#13509C"/>
<path d="M164.571 189.147C162.475 189.147 160.768 188.513 159.403 187.294C158.037 186.075 157.355 184.417 157.355 182.321C157.355 179.2 158.379 176.469 160.475 174.226C162.523 171.934 165.059 170.764 167.887 170.764C168.765 170.764 169.691 170.91 170.618 171.154C171.788 171.496 172.13 171.544 172.227 171.544C172.422 171.544 172.617 171.496 172.666 171.398C172.763 171.301 172.91 171.105 173.007 170.91L173.056 170.813H174.178L172.812 177.201L171.642 177.006L171.691 176.225C171.691 176.177 171.691 176.079 171.691 175.982C171.691 174.714 171.398 173.739 170.813 173.105C170.228 172.471 169.496 172.178 168.57 172.178C166.668 172.178 165.01 173.446 163.596 176.03C162.328 178.322 161.646 180.712 161.646 183.101C161.646 184.808 162.036 185.978 162.767 186.563C163.547 187.197 164.376 187.489 165.303 187.489C166.522 187.489 167.643 187.099 168.716 186.319C169.301 185.88 169.887 185.295 170.472 184.564L170.569 184.417L171.642 185.198L171.544 185.344C170.667 186.661 169.594 187.636 168.326 188.27C167.107 188.806 165.839 189.147 164.571 189.147ZM167.839 171.154C165.108 171.154 162.719 172.276 160.719 174.47C158.72 176.664 157.696 179.297 157.696 182.321C157.696 184.271 158.33 185.832 159.647 187.002C160.914 188.172 162.572 188.757 164.571 188.757C165.791 188.757 167.01 188.465 168.18 187.831C169.301 187.246 170.325 186.368 171.154 185.149L170.667 184.808C170.082 185.49 169.545 186.075 168.96 186.514C167.839 187.343 166.619 187.782 165.303 187.782C164.328 187.782 163.401 187.441 162.523 186.758C161.695 186.075 161.256 184.808 161.256 183.003C161.256 180.565 161.938 178.127 163.255 175.738C164.767 173.056 166.522 171.691 168.57 171.691C169.594 171.691 170.423 172.032 171.106 172.715C171.788 173.397 172.081 174.47 172.081 175.835C172.081 175.982 172.081 176.079 172.081 176.128L172.032 176.567L172.471 176.664L173.69 171.105H173.251C173.154 171.301 173.007 171.496 172.91 171.593C172.763 171.739 172.471 171.837 172.178 171.837C172.032 171.837 171.739 171.788 170.472 171.447C169.545 171.301 168.667 171.154 167.839 171.154Z" fill="black"/>
<path d="M177.006 174.909C179.249 172.325 181.735 171.008 184.466 171.008C186.319 171.008 187.782 171.544 189.001 172.666C190.171 173.787 190.756 175.25 190.756 177.152C190.756 179.883 189.732 182.516 187.636 185.003C185.393 187.636 182.857 188.952 179.98 188.952C178.176 188.952 176.664 188.416 175.543 187.294C174.421 186.173 173.836 184.71 173.836 182.857C173.787 180.029 174.86 177.396 177.006 174.909ZM177.786 186.514C178.176 187.538 178.907 188.026 179.98 188.026C181.004 188.026 181.882 187.636 182.711 186.904C183.54 186.173 184.369 184.759 185.246 182.662C185.783 181.345 186.222 179.931 186.563 178.468C186.855 177.006 187.051 175.835 187.051 174.909C187.051 174.031 186.855 173.3 186.417 172.715C185.978 172.081 185.344 171.788 184.417 171.788C182.321 171.788 180.516 173.69 179.102 177.444C178.03 180.321 177.444 182.662 177.444 184.564C177.444 185.344 177.591 185.978 177.786 186.514Z" fill="#13509C"/>
<path d="M179.931 189.099C178.078 189.099 176.518 188.513 175.348 187.392C174.177 186.27 173.592 184.71 173.592 182.808C173.592 179.98 174.665 177.298 176.811 174.763C179.054 172.129 181.638 170.764 184.417 170.764C186.27 170.764 187.88 171.349 189.05 172.471C190.269 173.592 190.854 175.153 190.854 177.103C190.854 179.883 189.781 182.565 187.684 185.051C185.49 187.733 182.906 189.099 179.931 189.099ZM177.152 175.006C175.055 177.445 174.031 180.078 174.031 182.808C174.031 184.613 174.568 186.027 175.689 187.099C176.811 188.172 178.225 188.709 179.98 188.709C182.808 188.709 185.344 187.392 187.489 184.808C189.537 182.369 190.561 179.785 190.561 177.103C190.561 175.299 189.976 173.836 188.855 172.763C187.733 171.691 186.222 171.154 184.466 171.154C181.784 171.154 179.297 172.471 177.152 175.006ZM179.98 188.221C178.81 188.221 178.03 187.685 177.591 186.563C177.396 186.027 177.249 185.344 177.249 184.613C177.249 182.711 177.786 180.273 178.907 177.396C180.37 173.592 182.223 171.642 184.417 171.642C185.393 171.642 186.075 171.983 186.563 172.617C187.002 173.251 187.246 174.031 187.246 174.909C187.246 175.835 187.099 177.006 186.758 178.517C186.465 179.98 185.978 181.394 185.441 182.711C184.564 184.808 183.686 186.27 182.857 187.051C181.979 187.831 181.053 188.221 179.98 188.221ZM177.932 186.417C178.322 187.343 178.956 187.831 179.98 187.831C180.907 187.831 181.784 187.489 182.564 186.758C183.345 186.027 184.222 184.613 185.051 182.565C185.588 181.248 186.027 179.883 186.368 178.42C186.66 176.957 186.856 175.787 186.856 174.909C186.856 174.08 186.66 173.397 186.27 172.812C185.88 172.276 185.295 171.983 184.466 171.983C182.467 171.983 180.712 173.836 179.297 177.493C178.225 180.321 177.688 182.711 177.688 184.564C177.64 185.344 177.737 185.929 177.932 186.417Z" fill="black"/>
<path d="M204.702 171.349C205.58 171.593 206.068 171.739 206.214 171.739C206.458 171.739 206.702 171.691 206.848 171.544C206.994 171.398 207.141 171.203 207.287 170.959H208.067L206.75 176.616L206.019 176.518C206.019 175.494 205.873 174.616 205.58 173.885C205.044 172.568 203.971 171.886 202.411 171.886C200.314 171.886 198.558 173.202 197.096 175.835C195.828 178.127 195.194 180.517 195.194 182.955C195.194 185.003 195.779 186.466 196.949 187.294C197.583 187.733 198.363 187.977 199.241 187.977C200.07 187.977 200.704 187.831 201.143 187.587C201.582 187.343 201.923 186.953 202.069 186.417C202.069 186.514 202.264 185.832 202.654 184.418C203.045 183.003 203.24 182.126 203.24 181.736C203.24 181.297 203.142 181.053 202.898 180.955C202.654 180.858 202.167 180.76 201.338 180.663V179.98H208.701V180.663C208.018 180.76 207.531 180.858 207.336 181.053C207.141 181.248 206.946 181.784 206.653 182.76L205.385 187.392L204.654 187.733C204.069 187.977 203.24 188.27 202.167 188.514C201.094 188.806 199.973 188.904 198.802 188.904C196.657 188.904 194.901 188.318 193.438 187.148C191.878 185.88 191.098 184.174 191.098 182.028C191.098 179.249 192.024 176.762 193.926 174.568C196.023 172.13 198.656 170.959 201.826 170.959C202.947 170.959 203.874 171.106 204.702 171.349Z" fill="#13509C"/>
<path d="M198.9 189.099C196.754 189.099 194.901 188.513 193.438 187.294C191.829 186.027 191.049 184.222 191.049 182.028C191.049 179.2 192.024 176.664 193.926 174.47C196.023 172.032 198.753 170.764 201.972 170.764C202.947 170.764 203.922 170.91 204.8 171.154C205.97 171.496 206.214 171.544 206.263 171.544C206.458 171.544 206.653 171.496 206.75 171.398C206.897 171.252 206.994 171.105 207.14 170.862L207.189 170.764H208.311L206.945 176.811L205.873 176.664V176.469C205.873 175.445 205.775 174.616 205.483 173.934C204.946 172.666 203.971 172.081 202.508 172.081C200.509 172.081 198.753 173.397 197.339 175.933C196.12 178.176 195.486 180.565 195.486 182.955C195.486 184.954 196.023 186.368 197.144 187.099C197.729 187.538 198.51 187.733 199.339 187.733C200.119 187.733 200.704 187.636 201.143 187.392C201.533 187.148 201.825 186.807 201.972 186.368L202.118 185.929C202.216 185.637 202.313 185.149 202.557 184.369C202.947 183.003 203.142 182.077 203.142 181.736C203.142 181.394 203.045 181.199 202.898 181.102C202.752 181.053 202.362 180.907 201.435 180.809H201.24V179.785H208.945V180.809H208.75C207.872 180.907 207.628 181.053 207.531 181.15C207.433 181.248 207.238 181.589 206.897 182.76L205.629 187.489L204.849 187.831C204.264 188.075 203.435 188.367 202.362 188.611C201.24 188.952 200.07 189.099 198.9 189.099ZM201.972 171.154C198.851 171.154 196.218 172.373 194.219 174.714C192.366 176.859 191.439 179.297 191.439 182.028C191.439 184.125 192.219 185.783 193.682 187.002C195.096 188.123 196.852 188.709 198.9 188.709C200.021 188.709 201.143 188.562 202.216 188.318C203.288 188.075 204.117 187.782 204.654 187.538L205.288 187.246L206.555 182.711C206.897 181.394 207.141 181.053 207.287 180.955C207.482 180.76 207.921 180.614 208.555 180.517V180.224H201.582V180.517C202.313 180.614 202.801 180.712 202.996 180.809C203.288 180.955 203.435 181.297 203.435 181.784C203.435 182.223 203.24 183.101 202.849 184.515C202.508 185.783 202.362 186.27 202.264 186.514C202.069 187.099 201.728 187.489 201.24 187.782C200.753 188.026 200.07 188.172 199.241 188.172C198.315 188.172 197.486 187.928 196.803 187.489C195.584 186.661 194.999 185.149 194.999 183.003C194.999 180.565 195.633 178.127 196.901 175.835C198.412 173.153 200.216 171.788 202.362 171.788C203.971 171.788 205.092 172.471 205.678 173.885C205.97 174.568 206.117 175.445 206.117 176.421L206.507 176.469L207.726 171.252H207.336C207.189 171.447 207.092 171.642 206.945 171.788C206.75 171.983 206.507 172.032 206.214 172.032C206.117 172.032 205.824 171.983 204.654 171.642C203.825 171.301 202.898 171.154 201.972 171.154Z" fill="black"/>
<path d="M207.579 187.782C208.262 187.685 208.701 187.441 208.993 187.002C209.286 186.563 209.676 185.539 210.164 183.881L213.041 173.446L212.943 173.202C212.748 172.763 212.504 172.422 212.163 172.276C211.968 172.178 211.529 172.129 210.993 172.081V171.398H216.113L221.623 183.198L223.622 175.982C223.72 175.543 223.817 175.153 223.915 174.811C224.012 174.275 224.061 173.885 224.061 173.641C224.061 173.007 223.866 172.617 223.427 172.373C223.183 172.227 222.696 172.129 222.013 172.081V171.398H227.23V172.081L226.889 172.129C226.353 172.227 225.963 172.52 225.67 173.007C225.377 173.495 225.036 174.519 224.646 175.982L221.086 188.904H220.452L213.821 174.811L211.285 183.93C211.09 184.661 210.944 185.246 210.895 185.637C210.846 185.88 210.846 186.075 210.846 186.319C210.846 186.904 211.09 187.343 211.529 187.538C211.773 187.685 212.26 187.782 212.894 187.831V188.514H207.579V187.782Z" fill="#13509C"/>
<path d="M221.282 189.05H220.404L213.967 175.299L211.578 183.93C211.383 184.661 211.237 185.246 211.188 185.588C211.139 185.783 211.139 186.027 211.139 186.222C211.139 186.758 211.334 187.099 211.724 187.294C211.968 187.392 212.407 187.49 212.992 187.538H213.187V188.562H207.482V187.538H207.628C208.262 187.441 208.652 187.246 208.945 186.856C209.237 186.466 209.627 185.442 210.066 183.784L212.895 173.397L212.797 173.202C212.602 172.812 212.407 172.52 212.114 172.373C211.968 172.325 211.675 172.227 210.993 172.178H210.798V171.154H216.259L221.623 182.565L223.476 175.835C223.573 175.397 223.671 175.006 223.768 174.665C223.866 174.129 223.915 173.787 223.915 173.544C223.915 173.007 223.768 172.617 223.378 172.422C223.135 172.276 222.696 172.227 222.062 172.178H221.867V171.154H227.474V172.178L226.938 172.227C226.499 172.276 226.109 172.568 225.865 173.007C225.573 173.495 225.231 174.47 224.841 175.933L221.282 189.05ZM220.599 188.66H220.94L224.451 175.884C224.841 174.421 225.231 173.397 225.524 172.91C225.816 172.325 226.304 172.032 226.889 171.934L227.084 171.886V171.593H222.257V171.886C222.842 171.934 223.281 172.032 223.525 172.178C224.012 172.471 224.256 172.958 224.256 173.641C224.256 173.885 224.207 174.275 224.11 174.811C224.061 175.153 223.963 175.543 223.817 176.03L221.672 183.735L215.967 171.593H211.139V171.886C211.675 171.934 212.017 171.983 212.212 172.081C212.602 172.227 212.895 172.568 213.09 173.105L213.236 173.446V173.495L210.359 183.93C209.871 185.637 209.481 186.661 209.189 187.099C208.896 187.538 208.408 187.831 207.775 187.928V188.221H212.699V187.928C212.114 187.88 211.724 187.782 211.432 187.636C210.895 187.392 210.651 186.904 210.651 186.222C210.651 185.978 210.651 185.734 210.7 185.49C210.749 185.1 210.895 184.515 211.139 183.784L213.821 174.178L220.599 188.66Z" fill="black"/>
<path d="M225.182 187.782C225.768 187.684 226.255 187.538 226.548 187.343C226.84 187.099 227.084 186.66 227.279 185.978L230.4 174.568C230.497 174.275 230.546 174.031 230.595 173.787C230.644 173.544 230.692 173.348 230.692 173.202C230.692 172.763 230.595 172.52 230.351 172.373C230.107 172.276 229.62 172.178 228.84 172.129V171.447H242.542L241.469 176.274L240.786 176.177C240.786 174.958 240.591 174.08 240.201 173.544C239.567 172.666 238.251 172.227 236.251 172.227C235.569 172.227 235.13 172.324 234.935 172.471C234.74 172.617 234.593 172.958 234.447 173.397L232.936 179.054C234.74 179.005 235.861 178.859 236.398 178.615C236.934 178.371 237.519 177.64 238.153 176.372L238.884 176.469L236.983 183.442L236.3 183.296C236.349 183.052 236.349 182.857 236.349 182.662C236.349 182.467 236.349 182.321 236.349 182.223C236.349 181.297 236.105 180.712 235.617 180.37C235.13 180.029 234.155 179.883 232.692 179.883L231.034 186.124C230.985 186.27 230.985 186.417 230.936 186.563C230.936 186.709 230.888 186.807 230.888 186.904C230.888 187.148 230.985 187.343 231.18 187.489C231.375 187.636 231.765 187.733 232.302 187.733C233.862 187.733 235.179 187.538 236.251 187.099C237.958 186.417 239.275 185.246 240.201 183.491L240.835 183.588L239.323 188.562H225.231V187.782H225.182Z" fill="#13509C"/>
<path d="M239.421 188.611H224.987V187.587H225.134C225.719 187.538 226.109 187.392 226.401 187.197C226.645 187.002 226.889 186.563 227.035 185.929L230.156 174.519C230.205 174.226 230.302 173.982 230.351 173.739C230.4 173.495 230.4 173.349 230.4 173.154C230.4 172.812 230.302 172.568 230.156 172.52C230.01 172.471 229.668 172.373 228.693 172.276H228.498V171.252H242.639L241.469 176.518L240.445 176.372V176.226C240.445 175.055 240.25 174.178 239.86 173.69C239.275 172.861 237.958 172.471 236.056 172.471C235.227 172.471 234.984 172.617 234.886 172.666C234.74 172.812 234.593 173.056 234.447 173.495L232.984 178.907C234.593 178.859 235.617 178.712 236.105 178.517C236.593 178.274 237.129 177.542 237.763 176.372L237.812 176.274L238.884 176.421L236.885 183.784L235.812 183.589L235.861 183.394C235.91 183.15 235.91 182.955 235.91 182.76C235.91 182.565 235.91 182.418 235.91 182.321C235.91 181.492 235.666 180.907 235.227 180.614C234.788 180.322 233.862 180.175 232.545 180.126L230.887 186.222C230.839 186.368 230.839 186.514 230.79 186.612C230.79 186.758 230.741 186.856 230.741 186.904C230.741 187.099 230.79 187.197 230.936 187.343C231.034 187.392 231.278 187.538 231.96 187.538C233.472 187.538 234.788 187.343 235.861 186.904C237.519 186.27 238.787 185.1 239.713 183.394L239.762 183.296L240.737 183.491L239.421 188.611ZM225.377 188.221H239.177L240.591 183.589L240.299 183.54C239.323 185.246 238.007 186.417 236.3 187.099C235.179 187.538 233.862 187.782 232.302 187.782C231.668 187.782 231.278 187.685 231.034 187.538C230.79 187.343 230.692 187.099 230.692 186.807C230.692 186.709 230.692 186.612 230.741 186.466C230.741 186.319 230.79 186.173 230.839 186.027L232.545 179.688H232.692C234.203 179.688 235.179 179.883 235.715 180.224C236.251 180.614 236.544 181.248 236.544 182.223C236.544 182.321 236.544 182.516 236.544 182.662C236.544 182.808 236.544 182.955 236.495 183.101L236.836 183.15L238.641 176.567L238.299 176.518C237.665 177.737 237.08 178.469 236.544 178.712C236.008 178.956 234.837 179.102 232.984 179.151H232.74L234.301 173.251C234.447 172.763 234.593 172.422 234.837 172.227C235.081 172.032 235.52 171.934 236.251 171.934C238.299 171.934 239.665 172.422 240.347 173.3C240.737 173.836 240.932 174.665 240.981 175.884L241.323 175.933L242.298 171.496H228.986V171.788C229.717 171.837 230.156 171.934 230.4 172.081C230.692 172.227 230.839 172.568 230.839 173.056C230.839 173.251 230.79 173.446 230.741 173.69C230.692 173.934 230.644 174.178 230.546 174.47L227.425 185.88C227.23 186.612 226.987 187.099 226.645 187.343C226.353 187.587 225.914 187.733 225.377 187.782V188.221Z" fill="black"/>
<path d="M1.46289 214.065C32.768 219.575 64.4633 223.135 96.256 224.354C149.211 226.207 202.264 222.062 254.83 215.381C244.395 217.186 233.862 218.746 223.33 220.16C181.199 225.329 138.63 228.255 96.1585 226.353C64.317 224.89 32.573 220.891 1.46289 214.065Z" fill="black"/>
<path d="M138.24 166.473C148.529 163.206 159.598 162.231 170.374 163.45C174.665 163.791 178.956 163.986 183.247 164.133C186.466 164.279 189.635 164.376 192.853 164.328C204.605 164.084 216.113 160.817 226.84 156.233C230.79 154.527 234.594 152.576 238.348 150.431C233.082 154.234 227.328 157.355 221.379 159.89C213.333 163.255 204.849 165.595 196.169 166.278C189.635 166.717 183.15 166.181 176.664 165.839C172.422 165.595 168.034 164.962 163.791 164.571C155.258 163.986 146.676 164.767 138.24 166.473Z" fill="black"/>
<path d="M170.277 160.085C182.175 161.109 194.17 160.622 205.922 158.525C217.673 156.379 228.791 151.844 238.982 145.603C234.447 149.601 229.279 152.868 223.768 155.453C208.018 162.865 187.148 164.327 170.277 160.085Z" fill="#E62A32"/>
<path d="M170.277 124.928C192.756 107.13 212.553 86.211 229.035 62.7078C215.089 87.7714 194.463 109.568 170.277 124.928Z" fill="#074E96"/>
<path d="M120.539 39.7897C111.909 54.1257 106.74 70.0708 106.008 86.7962C105.813 91.0872 105.862 95.5733 106.203 99.8643C106.691 106.837 108.008 113.761 109.861 120.539C108.446 117.321 107.276 113.957 106.35 110.494C104.009 101.912 103.18 92.8914 103.717 84.0167C104.643 68.0716 110.397 52.224 120.539 39.7897Z" fill="#F2E627"/>
<path d="M229.669 168.229C234.984 161.207 239.129 153.356 241.908 145.018C240.64 148.431 239.177 151.747 237.471 154.965C235.033 159.695 232.107 164.133 228.791 168.229H229.669Z" fill="black"/>
<path d="M86.016 157.891H83.6267C85.6259 161.353 87.869 164.669 90.2583 167.887C90.3559 168.033 90.4534 168.131 90.5509 168.277H93.184C92.7452 167.741 92.3551 167.205 91.965 166.668C89.8195 163.791 87.869 160.914 86.016 157.891Z" fill="black"/>
<path d="M72.9965 129.122C73.0941 130.048 73.6304 132.291 73.7767 133.218C73.923 133.998 74.2643 135.119 74.4106 135.899C74.4106 135.948 74.4594 136.046 74.4594 136.094H76.5074C75.7272 133.266 75.0933 130.389 74.6544 127.464C71.7775 109.617 74.8007 90.941 82.7489 74.752C92.3062 55.101 109.519 39.5459 129.902 31.744C105.423 40.2774 85.8697 59.8309 77.1413 84.2606C72.4602 97.2313 70.7535 111.323 72.4114 125.026C72.5089 126.245 72.8015 127.854 72.9965 129.122Z" fill="black"/>
<path d="M201.338 190.513C194.072 194.267 186.271 197.047 178.225 198.753C158.428 202.801 137.265 199.875 119.369 190.513H115.127C134.095 201.484 157.208 204.995 178.566 200.363C187.49 198.363 196.12 195.048 204.069 190.513H201.338Z" fill="black"/>
<path d="M183.199 31.549C177.055 40.0823 171.301 48.9082 166.424 58.2217C162.767 65.1947 159.403 72.3139 156.184 79.5307C155.112 81.8712 153.99 84.4556 153.015 86.845C152.235 88.6979 150.626 92.6476 149.65 94.7931C147.261 100.157 144.335 105.277 141.068 110.104C139.41 112.494 137.655 114.834 135.802 117.077C136.387 116.151 137.557 114.298 138.094 113.371C142.58 105.96 146.383 98.109 149.358 89.9657C150.333 87.3813 151.357 84.7482 152.43 82.2126C155.502 74.8983 158.866 67.6815 162.572 60.6598C168.131 50.1272 175.104 40.3261 183.199 31.549Z" fill="#44AE54"/>
<path d="M88.6492 159.256C101.23 161.694 112.738 160.865 123.563 157.891H118.15C108.739 160.085 98.9867 160.622 88.6492 159.256Z" fill="black"/>
<path d="M128.39 157.891H125.854C128.829 161.499 131.95 164.961 135.314 168.229H137.899C134.534 164.961 131.365 161.499 128.39 157.891Z" fill="black"/>
<path d="M170.033 190.513H167.741C169.106 191.049 170.52 191.537 171.983 192.024C176.957 193.682 182.126 194.804 187.294 195.438C185.246 195.096 183.198 194.657 181.15 194.121C177.396 193.195 173.641 191.976 170.033 190.513Z" fill="black"/>
<path d="M89.8682 130.926C92.1112 132.437 94.5493 133.803 97.1337 134.68C101.522 136.094 106.252 136.631 110.738 135.265C110.787 135.265 110.836 135.217 110.933 135.217C111.08 135.509 111.226 135.753 111.372 136.046H113.762C113.469 135.509 113.176 134.973 112.884 134.437C124.489 129.414 134.29 114.932 140.337 104.545C142.092 101.425 143.75 98.2064 145.164 94.8906C146.481 92.0136 147.944 87.9176 149.114 84.8944C150.674 80.7984 152.478 76.6049 154.283 72.6552C161.304 57.2952 170.033 42.6666 180.955 29.6959C176.03 34.8647 171.544 40.4723 167.4 46.3237C159.208 58.0754 152.625 70.8997 147.261 84.163C145.31 89.1854 143.458 94.0616 140.971 98.8403C137.752 105.131 134.046 111.177 129.755 116.833C125.513 122.392 120.832 127.805 114.834 131.462C113.908 132.047 112.981 132.535 112.055 132.974C96.1097 104.009 99.7181 67.0475 116.833 39.3508C98.9866 65.2434 94.3543 100.888 108.008 129.609C108.69 130.974 109.373 132.34 110.056 133.705C106.008 134.924 101.766 134.68 97.4263 133.413C94.8906 132.632 92.5988 131.462 90.3558 130.048C88.8442 129.121 87.3813 128.146 85.9672 127.073C81.7737 123.806 77.9215 120.052 74.4106 116.053C76.6049 118.881 78.9943 121.515 81.5299 124.05C84.0655 126.683 86.8937 128.975 89.8682 130.926Z" fill="black"/>
<path d="M211.042 91.9162C201.192 103.083 190.757 113.81 179.2 123.27C173.69 127.805 167.887 131.998 161.987 136.046H165.644C166.083 135.704 166.571 135.412 167.01 135.07C184.076 123.368 198.9 108.69 212.066 92.8427C219.234 84.2118 225.865 75.0933 231.765 65.536C225.329 74.7032 218.453 83.5292 211.042 91.9162Z" fill="black"/>
</svg>
