<svg width="256" height="256" viewBox="0 0 256 256" fill="none" xmlns="http://www.w3.org/2000/svg">
<path d="M248.044 180.04C238.592 167.752 226.33 157.512 212.572 150.475C198.157 143.097 182.587 139.264 166.282 139.054L154.466 138.896L165.783 135.457C166.334 135.299 166.859 135.142 167.411 134.984C156.934 136.034 146.773 138.66 137.058 142.782C128.394 146.484 120.281 151.342 112.902 157.223C111.143 158.615 109.437 160.085 107.783 161.582C99.7743 168.829 87.7226 171.192 81.2635 171.953C79.1368 172.19 76.9837 172.321 74.8307 172.321C67.4527 172.321 60.0221 170.824 53.2742 168.015C48.7843 166.124 45.1084 163.656 40.9599 160.505L40.8812 160.453C37.3103 157.722 33.6344 154.913 29.4859 153.337C26.7552 152.287 23.8408 151.788 20.7688 151.237C18.4582 150.817 16.0689 150.397 13.732 149.74C6.77409 147.719 1.91666 143.36 0.787632 138.082C-0.105086 133.934 1.31276 129.287 4.59481 125.611C7.64055 122.197 11.7366 120.097 14.9661 118.626C16.1214 118.101 17.2767 117.629 18.4057 117.156C19.8235 116.552 21.2939 115.948 22.6855 115.292C22.948 115.161 23.2369 115.056 23.5519 114.924C23.9195 114.767 24.681 114.478 24.996 114.268C25.0486 114.005 25.0748 113.506 25.0748 113.218C25.1011 112.85 25.1011 112.509 25.1536 112.167C25.7837 107.809 26.9915 103.555 28.6982 99.4855C31.849 92.055 36.7589 85.3596 42.9292 80.1083C49.0469 74.9095 55.5848 72.0738 64.1443 69.2119L64.4332 69.1069H64.5644C66.5862 68.713 68.6342 68.3454 70.7347 68.0303C78.034 66.8751 85.5171 66.1661 92.9476 65.9561C94.7331 65.9036 96.5448 65.8773 98.3039 65.8773C143.097 65.8773 185.712 82.7864 218.322 113.48L225.464 120.202L216.379 116.526C213.438 115.344 210.471 114.215 207.452 113.191C214.699 119.992 221.368 127.396 227.38 135.299C230.4 139.29 233.262 143.439 235.914 147.614C242.005 157.276 247.178 167.568 251.274 178.228L255.816 190.044L248.044 180.04Z" fill="white"/>
<path d="M249.515 178.911C230.295 153.889 200.205 137.636 166.308 137.216C173.187 135.116 180.355 133.698 187.76 133.041C184.583 132.752 181.353 132.595 178.097 132.595C163.289 132.595 149.163 135.614 136.35 141.076C127.475 144.857 119.204 149.819 111.747 155.753C109.962 157.171 108.229 158.641 106.549 160.19C99.9319 166.203 89.7707 169.091 81.0798 170.115C71.9426 171.192 62.5166 169.879 54.0095 166.308C49.5459 164.444 45.8962 161.923 42.1153 159.035C38.3869 156.199 34.606 153.311 30.1949 151.605C25.1012 149.662 19.5348 149.452 14.3098 147.955C9.08476 146.432 3.78097 143.019 2.62569 137.689C1.78548 133.829 3.38712 129.759 5.98651 126.818C8.61215 123.878 12.1305 121.909 15.7276 120.307C18.3008 119.152 20.9264 118.154 23.4733 116.946C24.261 116.578 26.0464 116.08 26.5453 115.344C26.9916 114.688 26.8866 113.244 26.9916 112.456C27.5955 108.255 28.7508 104.133 30.405 100.247C33.4507 93.0527 38.1769 86.6199 44.1371 81.5524C50.3336 76.2749 57.134 73.5442 64.7484 70.9974H64.7746C66.8489 70.5773 68.9231 70.2097 71.0236 69.8946C78.2179 68.7656 85.5434 68.0566 93.0265 67.8466C94.7857 67.7941 96.5449 67.7678 98.304 67.7678C144.253 67.7678 186.027 85.6484 217.062 114.872C211.469 112.614 205.719 110.618 199.864 108.938C209.5 117.13 218.243 126.372 225.91 136.481C228.903 140.419 231.713 144.463 234.339 148.664C240.325 158.142 245.419 168.277 249.515 178.911Z" fill="black"/>
<path d="M122.932 126.95C160.322 120.359 198.84 122.933 224.755 146.668C224.755 146.668 207.872 139.264 189.86 138.581C189.86 138.581 199.102 137.216 202.122 137.216C202.122 137.216 177.966 122.224 128.052 136.953C115.187 138.634 122.932 126.95 122.932 126.95Z" fill="white"/>
<path d="M225.044 144.988C223.179 143.544 183.742 113.69 130.022 132.044C126.556 133.225 123.458 134.144 120.727 134.8C120.412 131.413 122.933 126.924 122.933 126.924C160.059 119.204 198.393 122.119 225.044 144.988Z" fill="#A4191A"/>
<path d="M189.965 138.03C189.965 138.03 199.181 136.376 202.174 136.297C202.174 136.297 177.572 122.066 128.131 138.345C122.723 139.238 120.963 137.321 120.727 134.827C123.458 134.17 126.53 133.251 130.022 132.07C183.742 113.69 223.18 143.544 225.044 144.988L225.07 145.014C225.07 145.014 225.096 145.014 225.096 145.04C224.571 144.83 207.715 138.161 189.965 138.03Z" fill="#E30D18"/>
<path d="M194.087 104.29C193.667 104.028 163.63 85.8584 114.951 88.5891C114.425 88.6154 113.9 88.6416 113.349 88.6941C113.323 88.6416 113.27 88.5891 113.244 88.5628C106.916 80.2921 102.663 77.4564 92.2388 74.7257C126.005 73.5442 154.519 76.2486 194.087 104.29Z" fill="white"/>
<path d="M195.847 102.426C194.613 101.744 164.076 85.2283 116.211 89.7444C115.686 89.7969 115.161 89.8494 114.636 89.9019C114.609 89.8494 114.557 89.8232 114.531 89.7706C109.752 84.0205 103.634 79.3994 96.6499 76.4061C93.9192 75.2246 91.0835 74.3056 88.1428 73.6492C121.83 71.1549 155.254 75.9073 195.82 102.4L195.847 102.426Z" fill="#1D71B8"/>
<path d="M193.168 112.115C192.486 111.8 168.172 98.0939 124.875 103.004C123.195 97.595 122.25 94.628 118.889 90.1907C118.863 90.1382 118.075 89.6131 118.022 89.5605C141.837 90.3482 163.919 95.6258 193.168 112.115Z" fill="white"/>
<path d="M195.243 110.277C193.982 109.752 165.52 97.9627 122.88 104.448C121.488 100.483 119.598 96.7812 117.261 93.3941C150.712 88.773 191.672 108.518 195.032 110.198C195.059 110.198 195.085 110.224 195.085 110.224C195.164 110.251 195.216 110.277 195.243 110.277Z" fill="#008D36"/>
<path d="M217.902 136.297C201.597 127.816 180.749 114.11 122.906 122.827C123.011 121.725 123.09 120.648 123.143 119.519C123.353 114.11 122.644 108.885 121.173 103.975C151.552 104.107 182.114 111.301 217.902 136.297Z" fill="white"/>
<path d="M220.869 133.514C219.504 132.779 182.219 112.903 125.453 123.641C125.532 122.539 125.558 121.436 125.558 120.333C125.558 116.447 125.085 112.64 124.219 109.017C174.001 106.811 210.603 127.186 219.057 132.359C219.11 132.411 219.188 132.437 219.241 132.464C219.267 132.464 219.293 132.49 219.293 132.49C219.792 132.831 220.317 133.173 220.869 133.514C220.843 133.514 220.843 133.488 220.869 133.514Z" fill="#FFED00"/>
<path d="M82.9966 73.0715C82.9966 73.0715 93.9455 73.4654 102.846 74.4106C102.846 74.4106 90.1383 74.4894 81.3949 77.0625C81.3949 77.0625 115.502 75.1458 134.669 81.4473C134.669 81.4473 106.864 78.034 91.2673 80.7384C91.2411 80.7384 69.4745 85.9897 82.9966 73.0715Z" fill="#010202"/>
<path d="M107.021 83.4166C107.021 83.4166 114.688 83.8105 120.911 84.7557C120.911 84.7557 112.01 84.8345 105.892 87.4076C105.892 87.4076 129.759 85.4909 143.176 91.7924C143.176 91.7924 123.72 88.3791 112.798 91.0835C112.798 91.0835 97.5689 96.361 107.021 83.4166Z" fill="#010202"/>
<path d="M114.609 89.088C114.609 89.088 123.825 89.8757 131.282 91.031C131.282 91.031 124.849 90.6109 117.366 92.3175C117.366 92.3175 141.916 92.1863 157.827 98.0677C157.827 98.0677 134.538 94.1292 121.252 95.6259C121.252 95.6259 102.689 98.9342 114.609 89.088Z" fill="#010202"/>
<path d="M119.388 102.453C119.388 102.453 135.877 104.527 144.62 105.708C144.62 105.708 132.122 105.787 123.536 109.043C123.536 109.043 157.04 106.654 175.865 114.504C175.865 114.504 148.559 110.251 133.225 113.611C133.251 113.585 106.128 118.574 119.388 102.453Z" fill="#010202"/>
<path d="M117.891 136.586C117.891 136.586 126.74 133.908 134.091 132.201C134.091 132.201 129.365 133.671 123.064 138.056C123.064 138.056 144.41 129.339 161.372 128.893C161.372 128.893 138.266 133.881 126.503 140.183C126.503 140.183 110.461 150.134 117.891 136.586Z" fill="#010202"/>
<path d="M195.82 102.4C193.851 101.166 149.11 73.8331 96.6499 76.3799C93.9192 75.1984 91.0835 74.2794 88.1428 73.623C121.83 71.1549 155.254 75.9073 195.82 102.4Z" fill="#125A8A"/>
<path d="M195.033 110.198C191.646 108.544 150.712 88.7991 117.261 93.394C116.447 92.1862 115.555 91.0309 114.636 89.9019C114.609 89.8494 114.557 89.8231 114.531 89.7706C115.108 89.7706 115.66 89.7443 116.237 89.7443C139.999 89.5868 165.284 94.9169 195.033 110.198Z" fill="#025C2B"/>
<path d="M219.057 132.359C210.629 127.186 174.001 106.811 124.219 109.017C123.878 107.599 123.484 106.207 123.011 104.868C152.865 103.897 183.138 109.699 219.057 132.359Z" fill="#D6C104"/>
<path d="M73.4392 115.843C74.9358 105.918 81.4474 95.7309 90.5584 89.1405C91.7137 88.3003 92.9477 87.5126 94.1555 86.8037C94.8907 86.3836 95.6259 85.9635 96.3611 85.5959C97.5163 85.0183 98.7241 84.4669 99.9319 83.9943C108.386 89.4556 114.478 97.4375 117.576 107.1C118.285 109.279 118.81 111.537 119.152 113.795C118.837 113.795 118.521 113.769 118.233 113.769C114.951 113.638 111.616 113.585 108.36 113.585C96.5974 113.585 84.8607 114.347 73.4392 115.843Z" fill="white"/>
<path d="M99.8794 84.6506C103.844 87.25 107.336 90.4795 110.198 94.2342C113.218 98.1464 115.502 102.531 117.025 107.31C117.655 109.253 118.128 111.222 118.469 113.244C118.39 113.244 118.311 113.244 118.233 113.244C114.951 113.113 111.616 113.06 108.334 113.06C96.8074 113.06 85.3071 113.795 74.0957 115.239C74.8833 110.802 76.6425 106.286 79.2682 102.059C82.2351 97.2799 86.2524 92.9738 90.8472 89.6655C92.0025 88.8253 93.1841 88.0639 94.4181 87.355C95.1533 86.9349 95.8885 86.541 96.5974 86.1734C97.7002 85.5695 98.7767 85.0969 99.8794 84.6506ZM100.011 83.3903C98.6716 83.9154 97.3851 84.493 96.1248 85.1232C95.3633 85.517 94.6282 85.9109 93.893 86.331C92.6327 87.0662 91.4249 87.8538 90.2433 88.6941C80.5285 95.7045 74.0694 106.338 72.8091 116.5C82.9703 115.134 94.9695 114.137 108.387 114.137C111.59 114.137 114.898 114.189 118.259 114.32C118.784 114.347 119.335 114.373 119.861 114.373C119.519 111.878 118.942 109.384 118.154 106.916C114.977 97.0961 108.597 88.8778 100.011 83.3903Z" fill="white"/>
<path d="M33.2143 124.823C32.3216 116.447 33.897 108.045 37.7829 100.536C37.9667 100.194 38.1505 99.8268 38.3343 99.5117C40.0147 102.006 41.8789 104.553 43.5068 106.732C46.4475 110.644 48.338 115.213 49.1519 120.333C43.4806 121.672 38.1243 123.169 33.2143 124.823Z" fill="white"/>
<path d="M38.3606 100.588C39.9097 102.846 41.5639 105.078 43.0342 107.047C45.8174 110.749 47.6554 115.082 48.4693 119.887C43.2443 121.147 38.2818 122.539 33.6869 124.061C32.978 116.027 34.5534 107.993 38.2556 100.798C38.3081 100.719 38.3343 100.641 38.3606 100.588ZM38.2818 98.4089C37.9405 99.0128 37.5991 99.643 37.2578 100.273C33.083 108.36 31.6915 117.156 32.7155 125.584C36.6802 124.245 42.4566 122.486 49.7559 120.753C49.0207 115.659 47.1827 110.723 43.9269 106.365C41.9315 103.686 39.9622 100.982 38.2818 98.4089Z" fill="white"/>
<path d="M52.3816 119.572C51.4101 113.953 49.2833 108.806 46.1851 104.684C44.5046 102.452 42.2466 99.4592 40.2249 96.3084C40.5662 95.8095 40.8813 95.3632 41.1963 94.9168L41.3014 94.7593C46.5264 87.5913 53.7206 82.2875 62.149 79.3993C60.8361 82.3925 59.7596 85.6483 58.9194 89.0616C58.8406 89.3505 58.7881 89.6393 58.7094 89.9281C56.6876 98.6715 56.1888 108.281 57.2653 118.548C56.6614 118.679 56.0837 118.784 55.5061 118.915C54.4558 119.099 53.4056 119.335 52.3816 119.572Z" fill="white"/>
<path d="M61.1249 80.3708C60.0221 83.049 59.1031 85.9109 58.368 88.9042C58.2892 89.193 58.2367 89.4818 58.1579 89.7706C56.1362 98.409 55.6373 107.94 56.635 118.049C56.1624 118.154 55.7423 118.233 55.3747 118.311C54.5345 118.495 53.6681 118.679 52.8278 118.863C51.8038 113.375 49.6771 108.36 46.6313 104.317C45.0297 102.19 42.8767 99.3017 40.9074 96.2822C41.17 95.9146 41.4063 95.547 41.6426 95.2319L41.8527 94.9431C44.5308 91.3197 47.7341 88.1427 51.41 85.5433C54.4557 83.4166 57.6853 81.6836 61.1249 80.3708ZM63.1991 78.4541C54.377 81.211 46.4213 86.7511 40.7499 94.5755C40.3561 95.1269 39.9622 95.7046 39.5684 96.2822C41.6426 99.5643 44.0582 102.768 45.7386 104.999C48.8894 109.2 51.0162 114.504 51.9089 120.228C53.0904 119.965 54.3245 119.677 55.5848 119.414C56.32 119.257 57.0814 119.099 57.8428 118.941C56.7138 108.675 57.1864 98.8028 59.2344 90.0069C59.2869 89.7181 59.3657 89.4293 59.4445 89.1405C60.416 85.3595 61.65 81.7624 63.1991 78.4541Z" fill="white"/>
<path d="M60.5998 117.891C59.6021 108.124 60.0747 98.9604 62.0177 90.6896C62.1752 90.0332 62.2802 89.5606 62.4115 89.088C62.6741 88.064 62.9629 87.0662 63.278 86.0947C63.3567 85.8584 63.4355 85.6221 63.5143 85.3858C64.3545 82.8652 65.3522 80.4233 66.4813 78.1653C69.7371 77.4039 73.0716 77.01 76.4062 77.01C79.767 77.01 83.1278 77.4039 86.4099 78.1915C89.7969 79.0055 93.0527 80.2133 96.151 81.8149C96.2035 81.8412 96.2823 81.8674 96.3348 81.92C95.4421 82.3401 94.5756 82.7864 93.7092 83.2328C93.2103 83.4953 92.7639 83.7579 92.3438 84.0205C90.7422 84.9657 89.1668 86.016 87.6964 87.145C77.9028 94.6018 71.3124 105.498 69.9996 116.342C66.8226 116.788 63.6718 117.314 60.5998 117.891Z" fill="white"/>
<path d="M76.3799 77.5876C79.6882 77.5876 83.0228 77.9815 86.2523 78.7429C89.2718 79.4781 92.2388 80.5284 95.0482 81.8937C94.4969 82.1563 93.9717 82.4451 93.4203 82.7339C92.9215 82.9965 92.4751 83.259 92.0288 83.5216C90.4009 84.4931 88.7992 85.5433 87.3289 86.6986C82.3927 90.4533 78.1391 95.232 74.9883 100.509C72.0476 105.446 70.1572 110.723 69.4482 115.869C66.6388 116.29 63.8556 116.736 61.0724 117.235C60.1797 107.756 60.6523 98.8816 62.5165 90.8209C62.6741 90.1645 62.7791 89.6918 62.9104 89.2455C63.173 88.2215 63.4618 87.2237 63.7506 86.2785C63.8294 86.0422 63.9081 85.8059 63.9869 85.5696C64.7746 83.154 65.7198 80.8434 66.8226 78.6642C69.9734 77.929 73.1766 77.5876 76.3799 77.5876ZM76.3799 76.4586C72.8878 76.4586 69.422 76.8787 66.0874 77.6927C64.8796 80.0295 63.8294 82.5501 62.9629 85.202C62.8841 85.4383 62.8054 85.6746 62.7266 85.9372C62.4115 86.9087 62.1227 87.9327 61.8601 88.9567C61.7289 89.4818 61.5976 90.0332 61.4663 90.5583C59.4971 99.0654 59.0507 108.596 60.101 118.574C63.278 117.97 66.7438 117.392 70.4985 116.867C71.6538 106.26 78.1391 95.1532 88.0378 87.6176C89.5081 86.4886 91.031 85.4646 92.6326 84.5193C93.079 84.2568 93.5254 83.9942 93.9717 83.7579C95.1533 83.1277 96.3611 82.5238 97.6214 81.9725C97.2275 81.7624 96.8074 81.5261 96.4136 81.3161C93.2103 79.6619 89.902 78.4541 86.5412 77.6402C83.1541 76.8262 79.767 76.4586 76.3799 76.4586Z" fill="white"/>
<path d="M43.3756 148.559C38.4132 142.756 35.0786 135.772 33.687 128.21C37.1529 127.028 42.5617 125.374 49.4934 123.694C49.9922 131.545 47.9968 140.104 44.0058 147.298C43.7957 147.718 43.5857 148.139 43.3756 148.559Z" fill="white"/>
<path d="M48.9683 124.403C49.3096 131.965 47.3404 140.13 43.5069 147.036C43.4282 147.193 43.3231 147.351 43.2444 147.535C38.7545 142.073 35.7088 135.588 34.3434 128.604C37.7043 127.475 42.693 125.952 48.9683 124.403ZM50.0185 122.985C42.6667 124.744 36.9166 126.503 33.0569 127.816C34.4485 135.824 38.0456 143.412 43.5594 149.583C43.822 148.9 44.1371 148.244 44.5047 147.561C48.3381 140.656 50.7274 131.728 50.0185 122.985Z" fill="white"/>
<path d="M73.7016 163.63C68.1353 163.315 62.7527 161.923 57.6852 159.508C57.2126 159.271 56.845 159.088 56.4774 158.904C52.5652 156.882 49.0206 154.335 45.9224 151.289C46.1849 150.528 46.5263 149.74 46.9464 148.953C51.1999 141.312 53.2479 132.936 52.9066 124.718C52.8803 124.14 52.8541 123.536 52.8015 122.932C54.0619 122.644 55.1909 122.407 56.2411 122.197C56.7137 122.092 57.1601 122.013 57.659 121.908C57.9215 123.93 58.2629 125.978 58.6567 128.026C60.731 138.686 64.3806 148.874 68.923 156.724C69.0017 156.856 69.0805 156.987 69.133 157.118C69.5006 157.722 69.8682 158.352 70.2621 158.93C70.4196 159.193 70.6034 159.455 70.7609 159.718C71.7324 161.109 72.7039 162.422 73.7016 163.63Z" fill="white"/>
<path d="M57.1865 122.565C57.4491 124.403 57.7641 126.267 58.1055 128.105C60.1797 138.818 63.8556 149.084 68.4505 156.961C68.5293 157.092 68.608 157.223 68.6868 157.355C69.0544 157.985 69.422 158.589 69.8158 159.193C69.9996 159.455 70.1572 159.744 70.341 160.007C71.0236 161.057 71.7326 162.055 72.4677 162.974C67.4265 162.527 62.5428 161.188 57.9479 159.009C57.4753 158.773 57.1077 158.589 56.7664 158.431C53.0117 156.514 49.5984 154.073 46.6052 151.158C46.8415 150.528 47.1303 149.898 47.4716 149.241C51.7777 141.496 53.8519 133.015 53.5106 124.718C53.4843 124.272 53.4581 123.851 53.4318 123.405C54.4821 123.169 55.4536 122.959 56.3726 122.775C56.6351 122.67 56.8977 122.617 57.1865 122.565ZM58.158 121.226C57.4753 121.357 56.7927 121.488 56.1625 121.646C54.7972 121.935 53.4843 122.224 52.224 122.512C52.3028 123.274 52.3553 124.009 52.3816 124.77C52.7229 132.884 50.6749 141.154 46.5001 148.69C46.0013 149.609 45.5812 150.528 45.3186 151.473C48.4431 154.598 52.0928 157.302 56.2413 159.429C56.6351 159.639 57.0552 159.849 57.4491 160.033C63.0942 162.737 69.0544 164.103 74.9883 164.26C73.728 162.842 72.494 161.214 71.2862 159.376C71.1287 159.114 70.9449 158.851 70.7873 158.589C70.4197 158.011 70.0521 157.407 69.6846 156.777C69.6058 156.646 69.527 156.514 69.4745 156.409C64.9584 148.611 61.335 138.503 59.2608 127.895C58.7881 125.663 58.4206 123.431 58.158 121.226Z" fill="white"/>
<path d="M78.2966 163.656C76.9838 162.343 75.671 160.768 74.4107 158.983C74.3319 158.878 74.2531 158.773 74.1744 158.667C73.623 157.88 73.1241 157.118 72.6515 156.331C72.4415 156.016 72.2577 155.701 72.0739 155.359C67.6103 147.771 64.0131 137.82 61.9914 127.37C61.5976 125.348 61.2562 123.3 60.9937 121.252C63.8819 120.727 66.8226 120.228 69.7633 119.782C69.9471 124.035 72.1001 128.236 76.1699 132.306C79.6094 135.746 84.4406 139.106 90.5584 142.31C94.7594 144.515 99.4855 146.616 104.632 148.533C105.813 148.979 106.969 149.399 108.098 149.793C100.431 158.09 89.6394 163.105 78.2966 163.656Z" fill="white"/>
<path d="M69.2381 120.438C69.6057 124.613 71.785 128.735 75.7759 132.726C79.2418 136.192 84.1517 139.605 90.2957 142.835C94.523 145.04 99.2754 147.167 104.422 149.084C105.314 149.425 106.207 149.74 107.074 150.055C99.5905 157.801 89.298 162.501 78.4803 163.078C77.2463 161.818 76.0385 160.322 74.8307 158.641C74.7519 158.536 74.6994 158.431 74.6206 158.326C74.0955 157.565 73.5966 156.803 73.124 156.016C72.9665 155.753 72.7827 155.438 72.5464 155.07C68.1091 147.535 64.5382 137.662 62.5427 127.238C62.1751 125.401 61.8863 123.536 61.6237 121.698C64.1443 121.252 66.6912 120.806 69.2381 120.438ZM70.3146 119.125C66.7437 119.65 63.4092 120.202 60.3372 120.779C60.626 122.985 60.9936 125.217 61.4137 127.449C63.4617 138.004 67.0588 148.007 71.5749 155.622C71.7587 155.963 71.9687 156.278 72.1525 156.593C72.6514 157.407 73.1765 158.195 73.7017 158.93C73.7804 159.035 73.8592 159.166 73.938 159.271C75.2771 161.162 76.6686 162.816 78.0602 164.181C89.7968 163.682 101.113 158.484 109.095 149.504C107.966 149.11 106.496 148.611 104.816 147.981C100.93 146.511 95.8358 144.41 90.8208 141.785C84.7556 138.608 79.9507 135.273 76.5636 131.86C72.4151 127.737 70.3146 123.431 70.3146 119.125Z" fill="white"/>
<path d="M110.461 147.036C109.909 146.852 109.2 146.616 108.386 146.327C104.29 144.883 98.1464 142.494 92.1074 139.316C76.6424 131.203 73.2028 124.035 73.124 119.309C84.6506 117.76 96.4922 116.972 108.36 116.972C111.773 116.972 115.266 117.051 118.679 117.182C118.968 117.182 119.257 117.209 119.545 117.209C119.65 118.653 119.703 120.123 119.65 121.541C119.493 128.026 117.865 134.302 114.845 140.183C114.137 141.548 113.349 142.887 112.535 144.174C111.878 145.145 111.196 146.117 110.461 147.036Z" fill="white"/>
<path d="M108.386 117.524C111.8 117.524 115.266 117.602 118.679 117.707C118.784 117.707 118.915 117.707 119.02 117.734C119.099 118.994 119.125 120.281 119.099 121.515C118.942 127.921 117.34 134.118 114.347 139.894C113.638 141.259 112.876 142.572 112.062 143.833C111.485 144.699 110.907 145.539 110.277 146.353C109.804 146.196 109.227 145.986 108.597 145.776C104.527 144.331 98.3828 141.942 92.3963 138.791C85.2546 135.037 80.0558 131.151 76.9838 127.239C74.9883 124.692 73.8856 122.197 73.728 119.755C85.0708 118.285 96.7024 117.524 108.386 117.524ZM108.386 116.395C94.8644 116.395 82.7865 117.419 72.599 118.81C72.4152 123.72 75.671 131.308 91.8712 139.815C98.0152 143.045 104.264 145.46 108.229 146.852C109.2 147.193 110.041 147.482 110.697 147.692C111.511 146.668 112.299 145.592 113.034 144.463C113.874 143.176 114.662 141.837 115.397 140.419C118.469 134.459 120.097 128.052 120.254 121.541C120.307 119.913 120.254 118.285 120.097 116.631C119.65 116.605 119.178 116.578 118.732 116.578C115.187 116.473 111.747 116.395 108.386 116.395Z" fill="white"/>
<path d="M73.4392 115.843C74.9358 105.918 81.4474 95.7309 90.5584 89.1405C91.7137 88.3003 92.9477 87.5126 94.1555 86.8037C94.8907 86.3836 95.6259 85.9635 96.3611 85.5959C97.5163 85.0183 98.7241 84.4669 99.9319 83.9943C108.386 89.4556 114.478 97.4375 117.576 107.1C118.285 109.279 118.81 111.537 119.152 113.795C118.837 113.795 118.521 113.769 118.233 113.769C114.951 113.638 111.616 113.585 108.36 113.585C96.5974 113.585 84.8607 114.347 73.4392 115.843Z" fill="#DADADA"/>
<path d="M99.8794 84.6506C103.844 87.25 107.336 90.4795 110.198 94.2342C113.218 98.1464 115.502 102.531 117.025 107.31C117.655 109.253 118.128 111.222 118.469 113.244C118.39 113.244 118.311 113.244 118.233 113.244C114.951 113.113 111.616 113.06 108.334 113.06C96.8074 113.06 85.3071 113.795 74.0957 115.239C74.8833 110.802 76.6425 106.286 79.2682 102.059C82.2351 97.2799 86.2524 92.9738 90.8472 89.6655C92.0025 88.8253 93.1841 88.0639 94.4181 87.355C95.1533 86.9349 95.8885 86.541 96.5974 86.1734C97.7002 85.5695 98.7767 85.0969 99.8794 84.6506ZM100.011 83.3903C98.6716 83.9154 97.3851 84.493 96.1248 85.1232C95.3633 85.517 94.6282 85.9109 93.893 86.331C92.6327 87.0662 91.4249 87.8538 90.2433 88.6941C80.5285 95.7045 74.0694 106.338 72.8091 116.5C82.9703 115.134 94.9695 114.137 108.387 114.137C111.59 114.137 114.898 114.189 118.259 114.32C118.784 114.347 119.335 114.373 119.861 114.373C119.519 111.878 118.942 109.384 118.154 106.916C114.977 97.0961 108.597 88.8778 100.011 83.3903Z" fill="white"/>
<path d="M33.2143 124.823C32.3216 116.447 33.897 108.045 37.7829 100.536C37.9667 100.194 38.1505 99.8268 38.3343 99.5117C40.0147 102.006 41.8789 104.553 43.5068 106.732C46.4475 110.644 48.338 115.213 49.1519 120.333C43.4806 121.672 38.1243 123.169 33.2143 124.823Z" fill="#DADADA"/>
<path d="M38.3606 100.588C39.9097 102.846 41.5639 105.078 43.0342 107.047C45.8174 110.749 47.6554 115.082 48.4693 119.887C43.2443 121.147 38.2818 122.539 33.6869 124.061C32.978 116.027 34.5534 107.993 38.2556 100.798C38.3081 100.719 38.3343 100.641 38.3606 100.588ZM38.2818 98.4089C37.9405 99.0128 37.5991 99.643 37.2578 100.273C33.083 108.36 31.6915 117.156 32.7155 125.584C36.6802 124.245 42.4566 122.486 49.7559 120.753C49.0207 115.659 47.1827 110.723 43.9269 106.365C41.9315 103.686 39.9622 100.982 38.2818 98.4089Z" fill="white"/>
<path d="M52.3816 119.572C51.4101 113.953 49.2833 108.806 46.1851 104.684C44.5046 102.452 42.2466 99.4592 40.2249 96.3084C40.5662 95.8095 40.8813 95.3632 41.1963 94.9168L41.3014 94.7593C46.5264 87.5913 53.7206 82.2875 62.149 79.3993C60.8361 82.3925 59.7596 85.6483 58.9194 89.0616C58.8406 89.3505 58.7881 89.6393 58.7094 89.9281C56.6876 98.6715 56.1888 108.281 57.2653 118.548C56.6614 118.679 56.0837 118.784 55.5061 118.915C54.4558 119.099 53.4056 119.335 52.3816 119.572Z" fill="#DADADA"/>
<path d="M61.1249 80.3708C60.0221 83.049 59.1031 85.9109 58.368 88.9042C58.2892 89.193 58.2367 89.4818 58.1579 89.7706C56.1362 98.409 55.6373 107.94 56.635 118.049C56.1624 118.154 55.7423 118.233 55.3747 118.311C54.5345 118.495 53.6681 118.679 52.8278 118.863C51.8038 113.375 49.6771 108.36 46.6313 104.317C45.0297 102.19 42.8767 99.3017 40.9074 96.2822C41.17 95.9146 41.4063 95.547 41.6426 95.2319L41.8527 94.9431C44.5308 91.3197 47.7341 88.1427 51.41 85.5433C54.4557 83.4166 57.6853 81.6836 61.1249 80.3708ZM63.1991 78.4541C54.377 81.211 46.4213 86.7511 40.7499 94.5755C40.3561 95.1269 39.9622 95.7046 39.5684 96.2822C41.6426 99.5643 44.0582 102.768 45.7386 104.999C48.8894 109.2 51.0162 114.504 51.9089 120.228C53.0904 119.965 54.3245 119.677 55.5848 119.414C56.32 119.257 57.0814 119.099 57.8428 118.941C56.7138 108.675 57.1864 98.8028 59.2344 90.0069C59.2869 89.7181 59.3657 89.4293 59.4445 89.1405C60.416 85.3595 61.65 81.7624 63.1991 78.4541Z" fill="white"/>
<path d="M60.5998 117.891C59.6021 108.124 60.0747 98.9604 62.0177 90.6896C62.1752 90.0332 62.2802 89.5606 62.4115 89.088C62.6741 88.064 62.9629 87.0662 63.278 86.0947C63.3567 85.8584 63.4355 85.6221 63.5143 85.3858C64.3545 82.8652 65.3522 80.4233 66.4813 78.1653C69.7371 77.4039 73.0716 77.01 76.4062 77.01C79.767 77.01 83.1278 77.4039 86.4099 78.1915C89.7969 79.0055 93.0527 80.2133 96.151 81.8149C96.2035 81.8412 96.2823 81.8674 96.3348 81.92C95.4421 82.3401 94.5756 82.7864 93.7092 83.2328C93.2103 83.4953 92.7639 83.7579 92.3438 84.0205C90.7422 84.9657 89.1668 86.016 87.6964 87.145C77.9028 94.6018 71.3124 105.498 69.9996 116.342C66.8226 116.788 63.6718 117.314 60.5998 117.891Z" fill="#DADADA"/>
<path d="M76.3799 77.5876C79.6882 77.5876 83.0228 77.9815 86.2523 78.7429C89.2718 79.4781 92.2388 80.5284 95.0482 81.8937C94.4969 82.1563 93.9717 82.4451 93.4203 82.7339C92.9215 82.9965 92.4751 83.259 92.0288 83.5216C90.4009 84.4931 88.7992 85.5433 87.3289 86.6986C82.3927 90.4533 78.1391 95.232 74.9883 100.509C72.0476 105.446 70.1572 110.723 69.4482 115.869C66.6388 116.29 63.8556 116.736 61.0724 117.235C60.1797 107.756 60.6523 98.8816 62.5165 90.8209C62.6741 90.1645 62.7791 89.6918 62.9104 89.2455C63.173 88.2215 63.4618 87.2237 63.7506 86.2785C63.8294 86.0422 63.9081 85.8059 63.9869 85.5696C64.7746 83.154 65.7198 80.8434 66.8226 78.6642C69.9734 77.929 73.1766 77.5876 76.3799 77.5876ZM76.3799 76.4586C72.8878 76.4586 69.422 76.8787 66.0874 77.6927C64.8796 80.0295 63.8294 82.5501 62.9629 85.202C62.8841 85.4383 62.8054 85.6746 62.7266 85.9372C62.4115 86.9087 62.1227 87.9327 61.8601 88.9567C61.7289 89.4818 61.5976 90.0332 61.4663 90.5583C59.4971 99.0654 59.0507 108.596 60.101 118.574C63.278 117.97 66.7438 117.392 70.4985 116.867C71.6538 106.26 78.1391 95.1532 88.0378 87.6176C89.5081 86.4886 91.031 85.4646 92.6326 84.5193C93.079 84.2568 93.5254 83.9942 93.9717 83.7579C95.1533 83.1277 96.3611 82.5238 97.6214 81.9725C97.2275 81.7624 96.8074 81.5261 96.4136 81.3161C93.2103 79.6619 89.902 78.4541 86.5412 77.6402C83.1541 76.8262 79.767 76.4586 76.3799 76.4586Z" fill="white"/>
<path d="M43.3756 148.559C38.4132 142.756 35.0786 135.772 33.687 128.21C37.1529 127.028 42.5617 125.374 49.4934 123.694C49.9922 131.545 47.9968 140.104 44.0058 147.298C43.7957 147.718 43.5857 148.139 43.3756 148.559Z" fill="#DADADA"/>
<path d="M48.9683 124.403C49.3096 131.965 47.3404 140.13 43.5069 147.036C43.4282 147.193 43.3231 147.351 43.2444 147.535C38.7545 142.073 35.7088 135.588 34.3434 128.604C37.7043 127.475 42.693 125.952 48.9683 124.403ZM50.0185 122.985C42.6667 124.744 36.9166 126.503 33.0569 127.816C34.4485 135.824 38.0456 143.412 43.5594 149.583C43.822 148.9 44.1371 148.244 44.5047 147.561C48.3381 140.656 50.7274 131.728 50.0185 122.985Z" fill="white"/>
<path d="M73.7016 163.63C68.1353 163.315 62.7527 161.923 57.6852 159.508C57.2126 159.271 56.845 159.088 56.4774 158.904C52.5652 156.882 49.0206 154.335 45.9224 151.289C46.1849 150.528 46.5263 149.74 46.9464 148.953C51.1999 141.312 53.2479 132.936 52.9066 124.718C52.8803 124.14 52.8541 123.536 52.8015 122.932C54.0619 122.644 55.1909 122.407 56.2411 122.197C56.7137 122.092 57.1601 122.013 57.659 121.908C57.9215 123.93 58.2629 125.978 58.6567 128.026C60.731 138.686 64.3806 148.874 68.923 156.724C69.0017 156.856 69.0805 156.987 69.133 157.118C69.5006 157.722 69.8682 158.352 70.2621 158.93C70.4196 159.193 70.6034 159.455 70.7609 159.718C71.7324 161.109 72.7039 162.422 73.7016 163.63Z" fill="#DADADA"/>
<path d="M57.1865 122.565C57.4491 124.403 57.7641 126.267 58.1055 128.105C60.1797 138.818 63.8556 149.084 68.4505 156.961C68.5293 157.092 68.608 157.223 68.6868 157.355C69.0544 157.985 69.422 158.589 69.8158 159.193C69.9996 159.455 70.1572 159.744 70.341 160.007C71.0236 161.057 71.7326 162.055 72.4677 162.974C67.4265 162.527 62.5428 161.188 57.9479 159.009C57.4753 158.773 57.1077 158.589 56.7664 158.431C53.0117 156.514 49.5984 154.073 46.6052 151.158C46.8415 150.528 47.1303 149.898 47.4716 149.241C51.7777 141.496 53.8519 133.015 53.5106 124.718C53.4843 124.272 53.4581 123.851 53.4318 123.405C54.4821 123.169 55.4536 122.959 56.3726 122.775C56.6351 122.67 56.8977 122.617 57.1865 122.565ZM58.158 121.226C57.4753 121.357 56.7927 121.488 56.1625 121.646C54.7972 121.935 53.4843 122.224 52.224 122.512C52.3028 123.274 52.3553 124.009 52.3816 124.77C52.7229 132.884 50.6749 141.154 46.5001 148.69C46.0013 149.609 45.5812 150.528 45.3186 151.473C48.4431 154.598 52.0928 157.302 56.2413 159.429C56.6351 159.639 57.0552 159.849 57.4491 160.033C63.0942 162.737 69.0544 164.103 74.9883 164.26C73.728 162.842 72.494 161.214 71.2862 159.376C71.1287 159.114 70.9449 158.851 70.7873 158.589C70.4197 158.011 70.0521 157.407 69.6846 156.777C69.6058 156.646 69.527 156.514 69.4745 156.409C64.9584 148.611 61.335 138.503 59.2608 127.895C58.7881 125.663 58.4206 123.431 58.158 121.226Z" fill="white"/>
<path d="M78.2966 163.656C76.9838 162.343 75.671 160.768 74.4107 158.983C74.3319 158.878 74.2531 158.773 74.1744 158.667C73.623 157.88 73.1241 157.118 72.6515 156.331C72.4415 156.016 72.2577 155.701 72.0739 155.359C67.6103 147.771 64.0131 137.82 61.9914 127.37C61.5976 125.348 61.2562 123.3 60.9937 121.252C63.8819 120.727 66.8226 120.228 69.7633 119.782C69.9471 124.035 72.1001 128.236 76.1699 132.306C79.6094 135.746 84.4406 139.106 90.5584 142.31C94.7594 144.515 99.4855 146.616 104.632 148.533C105.813 148.979 106.969 149.399 108.098 149.793C100.431 158.09 89.6394 163.105 78.2966 163.656Z" fill="#DADADA"/>
<path d="M69.2381 120.438C69.6057 124.613 71.785 128.735 75.7759 132.726C79.2418 136.192 84.1517 139.605 90.2957 142.835C94.523 145.04 99.2754 147.167 104.422 149.084C105.314 149.425 106.207 149.74 107.074 150.055C99.5905 157.801 89.298 162.501 78.4803 163.078C77.2463 161.818 76.0385 160.322 74.8307 158.641C74.7519 158.536 74.6994 158.431 74.6206 158.326C74.0955 157.565 73.5966 156.803 73.124 156.016C72.9665 155.753 72.7827 155.438 72.5464 155.07C68.1091 147.535 64.5382 137.662 62.5427 127.238C62.1751 125.401 61.8863 123.536 61.6237 121.698C64.1443 121.252 66.6912 120.806 69.2381 120.438ZM70.3146 119.125C66.7437 119.65 63.4092 120.202 60.3372 120.779C60.626 122.985 60.9936 125.217 61.4137 127.449C63.4617 138.004 67.0588 148.007 71.5749 155.622C71.7587 155.963 71.9687 156.278 72.1525 156.593C72.6514 157.407 73.1765 158.195 73.7017 158.93C73.7804 159.035 73.8592 159.166 73.938 159.271C75.2771 161.162 76.6686 162.816 78.0602 164.181C89.7968 163.682 101.113 158.484 109.095 149.504C107.966 149.11 106.496 148.611 104.816 147.981C100.93 146.511 95.8358 144.41 90.8208 141.785C84.7556 138.608 79.9507 135.273 76.5636 131.86C72.4151 127.737 70.3146 123.431 70.3146 119.125Z" fill="white"/>
<path d="M110.461 147.036C109.909 146.852 109.2 146.616 108.386 146.327C104.29 144.883 98.1464 142.494 92.1074 139.316C76.6424 131.203 73.2028 124.035 73.124 119.309C84.6506 117.76 96.4922 116.972 108.36 116.972C111.773 116.972 115.266 117.051 118.679 117.182C118.968 117.182 119.257 117.209 119.545 117.209C119.65 118.653 119.703 120.123 119.65 121.541C119.493 128.026 117.865 134.302 114.845 140.183C114.137 141.548 113.349 142.887 112.535 144.174C111.878 145.145 111.196 146.117 110.461 147.036Z" fill="#DADADA"/>
<path d="M108.386 117.524C111.8 117.524 115.266 117.602 118.679 117.707C118.784 117.707 118.915 117.707 119.02 117.734C119.099 118.994 119.125 120.281 119.099 121.515C118.942 127.921 117.34 134.118 114.347 139.894C113.638 141.259 112.876 142.572 112.062 143.833C111.485 144.699 110.907 145.539 110.277 146.353C109.804 146.196 109.227 145.986 108.597 145.776C104.527 144.331 98.3828 141.942 92.3963 138.791C85.2546 135.037 80.0558 131.151 76.9838 127.239C74.9883 124.692 73.8856 122.197 73.728 119.755C85.0708 118.285 96.7024 117.524 108.386 117.524ZM108.386 116.395C94.8644 116.395 82.7865 117.419 72.599 118.81C72.4152 123.72 75.671 131.308 91.8712 139.815C98.0152 143.045 104.264 145.46 108.229 146.852C109.2 147.193 110.041 147.482 110.697 147.692C111.511 146.668 112.299 145.592 113.034 144.463C113.874 143.176 114.662 141.837 115.397 140.419C118.469 134.459 120.097 128.052 120.254 121.541C120.307 119.913 120.254 118.285 120.097 116.631C119.65 116.605 119.178 116.578 118.732 116.578C115.187 116.473 111.747 116.395 108.386 116.395Z" fill="white"/>
<path d="M71.2599 159.376C72.4677 161.188 73.7017 162.816 74.962 164.26C69.0543 164.076 63.0941 162.711 57.4227 160.033C53.8519 157.302 49.1782 153.206 47.7341 149.635C55.8211 157.854 65.7198 159.298 71.2599 159.376Z" fill="#F6F6F6"/>
<path d="M69.6582 156.777C70.0258 157.407 70.3934 157.985 70.761 158.589C59.7595 156.908 56.6875 152.996 56.5825 152.865C60.3897 154.886 64.8795 155.963 69.4219 156.409C69.5007 156.541 69.5794 156.672 69.6582 156.777Z" fill="#F6F6F6"/>
<path d="M109.122 149.556C101.114 158.536 89.8233 163.735 78.0866 164.234C76.6951 162.842 75.3035 161.214 73.9644 159.324C74.9884 159.245 75.5923 159.166 75.5923 159.166C74.9621 159.114 74.332 159.061 73.7281 159.009C73.203 158.274 72.7041 157.486 72.179 156.672C83.8368 157.276 94.9958 154.414 94.9958 154.414C85.2546 154.965 74.9884 150.896 74.9884 150.896C89.0618 151.394 98.5404 149.95 104.842 148.06C106.522 148.664 107.966 149.163 109.122 149.556Z" fill="#F6F6F6"/>
<path d="M63.1992 78.4541C61.6501 81.7624 60.4161 85.3333 59.4708 89.1667C53.6419 89.9282 47.3666 91.7924 40.75 94.5493C46.4214 86.7511 54.3771 81.2373 63.1992 78.4541Z" fill="#B2B2B2"/>
<path d="M62.7266 85.9109C69.6583 87.2237 72.599 89.5605 72.599 89.5605C69.2382 88.8254 65.641 88.6153 61.8601 88.9304C62.1227 87.9064 62.4115 86.9086 62.7266 85.9109Z" fill="#B2B2B2"/>
<path d="M93.8929 86.3311C96.0985 89.8494 96.9912 93.1052 96.9912 93.1052C94.6806 91.346 92.4226 89.8757 90.217 88.6941C91.3986 87.8539 92.6064 87.0662 93.8929 86.3311Z" fill="#B2B2B2"/>
<path d="M92.6063 84.4931C91.0046 85.4383 89.4555 86.4623 88.0114 87.5913C76.0647 81.9725 66.4286 84.073 62.9365 85.202C63.803 82.5238 64.8532 80.0295 66.061 77.6927C69.4219 76.8787 72.8877 76.4586 76.3535 76.4586C79.7406 76.4586 83.1277 76.8525 86.4885 77.6402C89.8493 78.4541 93.1577 79.6619 96.3609 81.3161C96.7548 81.5261 97.1749 81.7362 97.5687 81.9725C96.3347 82.5238 95.1006 83.1015 93.9453 83.7579C91.8448 82.5238 90.427 82.025 90.3482 81.9987C91.1884 82.7602 91.9499 83.6004 92.6063 84.4931Z" fill="#B2B2B2"/>
<path d="M118.206 114.32C115.633 103.844 110.645 97.49 110.645 97.49C111.458 103.03 110.645 106.758 110.645 106.758C107.651 95.1006 100.982 88.5103 96.1248 85.0969C97.3851 84.4668 98.6716 83.8891 100.011 83.364C108.597 88.8516 114.977 97.0961 118.128 106.916C118.915 109.384 119.493 111.878 119.834 114.373C119.283 114.373 118.758 114.347 118.206 114.32Z" fill="#B2B2B2"/>
<path d="M56.0312 147.22C54.6922 147.22 53.3531 147.22 52.014 147.193C44.3997 147.036 36.7853 146.484 29.381 145.513C28.0156 145.329 26.7028 145.145 25.4425 144.962C23.5521 144.673 21.7141 144.358 20.0074 144.069C14.5461 143.071 10.6076 139.947 10.135 136.271C10.1088 136.139 10.1088 136.034 10.1088 135.903C10.0825 135.667 10.0825 135.457 10.0825 135.247C10.135 132.437 11.4741 129.654 13.8634 127.422C16.8829 124.587 21.4515 122.617 27.3855 121.62C27.438 123.169 27.5955 124.875 27.8056 126.74C27.4643 126.818 27.0704 126.897 26.6503 127.002C22.8431 127.816 16.4366 129.208 16.1478 134.144V134.196C16.1215 136.402 18.3008 138.424 21.4253 139.08C22.1867 139.238 22.9744 139.421 23.7621 139.579C25.1274 139.868 26.5715 140.13 28.0419 140.419C28.8559 140.577 29.6961 140.734 30.5363 140.866C31.639 141.049 32.6105 141.207 33.5295 141.364C34.8948 141.574 36.3652 141.811 38.0456 142.021C46.7102 143.202 55.6111 143.885 64.5121 144.069C65.9824 144.095 67.5053 144.121 68.9757 144.121C81.0536 144.121 93.0003 143.176 104.606 141.312C89.1143 145.224 72.8091 147.22 56.0312 147.22Z" fill="white"/>
<path d="M27.1229 121.961C27.2017 123.353 27.3067 124.875 27.5168 126.53C27.228 126.582 26.9129 126.661 26.5978 126.74C22.7119 127.58 16.174 128.971 15.8589 134.144V134.196C15.8327 136.586 18.0382 138.66 21.3465 139.369C22.0554 139.527 22.8169 139.684 23.6833 139.868C25.0487 140.157 26.4928 140.419 27.9631 140.708C28.7771 140.866 29.6173 140.997 30.4575 141.154C31.5865 141.338 32.558 141.522 33.4507 141.653C34.8161 141.863 36.2864 142.1 37.9668 142.31C46.6314 143.491 55.5586 144.174 64.4595 144.358C65.9562 144.384 67.4528 144.41 68.9231 144.41C78.7956 144.41 88.6155 143.78 98.199 142.52C84.6507 145.487 70.5248 146.957 56.0312 146.957C54.6922 146.957 53.3531 146.957 52.014 146.931C44.4259 146.773 36.8115 146.222 29.4072 145.25C28.0419 145.067 26.7291 144.883 25.4688 144.699C23.5783 144.41 21.7404 144.121 20.0337 143.806C14.7299 142.861 10.8702 139.842 10.4239 136.297C10.3976 136.192 10.3976 136.061 10.3976 135.956C10.3713 135.719 10.3713 135.536 10.3713 135.325C10.4239 132.595 11.7367 129.89 14.0735 127.711C17.0142 124.875 21.399 122.959 27.1229 121.961ZM27.6481 121.305C14.0998 123.51 9.89873 130.258 9.7937 135.273C9.7937 135.509 9.7937 135.719 9.81996 135.956C9.81996 136.087 9.84621 136.192 9.84621 136.323C10.3188 140.13 14.4411 143.36 19.9024 144.331C21.7141 144.647 23.5258 144.962 25.3638 145.224C26.6766 145.434 27.9894 145.618 29.3285 145.776C36.7065 146.747 44.2684 147.298 51.9878 147.456C53.3268 147.482 54.6922 147.482 56.0312 147.482C75.3822 147.482 93.8142 144.804 110.513 139.92C97.2801 142.441 83.3379 143.806 68.9231 143.806C67.4528 143.806 65.9562 143.78 64.4595 143.754C55.4273 143.57 46.6052 142.887 38.0456 141.706C36.549 141.496 35.0261 141.286 33.5558 141.049C32.558 140.892 31.5603 140.734 30.5625 140.551C29.7223 140.419 28.9084 140.262 28.0682 140.104C26.6241 139.842 25.2062 139.553 23.7884 139.264C23.0007 139.106 22.2392 138.949 21.4778 138.765C18.5108 138.135 16.4103 136.271 16.4366 134.144V134.091C16.7779 128.709 24.8124 127.711 28.1469 126.897C27.8844 125.007 27.7268 123.09 27.6481 121.305Z" fill="black"/>
<path d="M66.56 139.054L65.0372 140.13C64.7221 140.34 63.2517 141.391 63.2517 141.391H62.2802C58.6306 141.391 56.7401 141.364 53.0905 141.259L50.7799 141.181L48.4956 141.076C46.2638 140.971 45.0298 140.918 43.0343 140.787L41.5639 140.682L40.855 140.629L38.2556 140.472L35.6037 140.235C34.8948 140.183 34.1334 140.104 33.1881 139.999L29.0921 139.605V139.579L26.414 139.264C24.1297 139.001 22.3705 138.765 19.456 138.345L18.0119 138.135L17.2767 136.875C16.5678 135.667 16.2002 135.037 15.4913 133.829L14.7036 132.437L15.3863 130.993C17.408 126.74 19.4298 122.407 21.3727 118.101L21.7928 117.182L23.342 116.316L25.1274 115.318L23.7621 112.929L24.366 111.537C25.8363 108.176 26.5453 106.496 27.9631 103.083L28.3569 102.137L29.2234 101.612C30.1949 101.035 30.6938 100.746 31.6653 100.142L32.558 99.5905L33.6082 99.7217C35.7087 99.9843 36.759 100.089 38.8595 100.299L40.3824 100.457L40.9338 101.402L42.1678 100.614L43.2443 100.693C45.3711 100.877 46.3951 100.956 48.5219 101.087L49.8347 101.166L51.1475 101.245C53.9832 101.402 55.3485 101.455 58.1842 101.533L59.7334 101.586L60.5998 102.846C60.9412 103.345 61.1775 103.686 61.4663 104.08L63.9869 107.677L65.536 101.665L67.8728 101.638C68.6868 101.638 69.3695 101.612 69.9996 101.612C71.5487 101.586 72.7828 101.56 74.9096 101.481L76.4587 101.428L77.1414 102.295L78.2441 101.35L79.3206 101.297C82.1563 101.14 83.5217 101.035 86.3574 100.825L90.2958 100.509L89.3768 105.524H89.4031L88.4316 110.513L88.3529 110.933L87.5126 115.108L90.2433 114.845C93.3416 114.53 94.9957 114.347 98.2253 113.926L99.7219 113.743L101.665 115.686L104.133 113.113L105.157 112.955C108.492 112.43 110.119 112.167 113.428 111.537L115.476 111.143L117.55 110.723C119.887 110.251 121.042 110.014 123.379 109.489L125.243 109.069L127.134 108.623C129.339 108.098 130.416 107.835 132.569 107.257L135.273 106.548L136.612 106.155C140.209 105.131 143.833 104.054 147.43 102.925L151.184 101.743C151.289 103.897 151.447 106.653 151.447 106.89L151.578 109.515H151.605L151.683 111.878L151.736 112.955L151.762 113.795L151.867 117.235L151.92 119.887L151.946 120.806L151.972 121.62C151.998 123.142 152.025 124.009 152.051 125.611L152.077 127.895L149.872 128.551C145.959 129.733 141.995 130.836 138.03 131.833L135.746 132.411L133.566 132.936C131.046 133.54 129.733 133.829 127.212 134.38L125.322 134.8L125.164 134.827L124.193 135.037L123.353 135.194L123.09 135.247C120.701 135.719 119.467 135.956 117.077 136.402L113.086 137.137V137.111L110.461 137.531C108.15 137.899 106.391 138.161 103.477 138.555L102.032 138.739L99.8532 136.691L97.5689 138.739L96.8337 139.395L95.8622 139.5C92.2388 139.894 90.3746 140.078 86.725 140.367L85.2808 140.472L83.2328 138.371L81.7887 139.526C81.4999 139.763 80.0821 140.892 80.0821 140.892L79.1106 140.944C75.4609 141.154 73.5705 141.207 69.9471 141.312L68.503 141.338L66.56 139.054Z" fill="white"/>
<path d="M63.488 142.1H62.3065C58.6568 142.1 56.7663 142.073 53.0905 141.968L50.7799 141.89L48.4956 141.785C46.2375 141.68 45.0035 141.627 43.0342 141.496L42.0365 141.443L37.2841 141.128V141.102L35.5774 140.944C34.8685 140.892 34.1071 140.813 33.1618 140.708L28.0943 140.209L28.1206 140.183L26.3877 139.973C24.0771 139.71 22.3179 139.474 19.4035 139.054L17.618 138.791L16.6991 137.242C15.9639 136.008 15.6225 135.404 14.9136 134.196L13.9421 132.49L14.7823 130.704C16.8041 126.451 18.8258 122.119 20.7688 117.839L21.2939 116.71L24.2084 115.082L23.0269 112.981L23.762 111.275C25.2324 107.888 25.9413 106.233 27.3592 102.846L27.8318 101.691L28.9083 101.061C29.8798 100.483 30.3787 100.194 31.3501 99.5905L32.4529 98.9078L33.7395 99.0654C35.8662 99.3279 36.8902 99.433 38.9908 99.643L40.8812 99.8268L41.2488 100.457L42.0628 99.9318L43.3756 100.037C45.5023 100.221 46.5263 100.299 48.6269 100.431L51.2525 100.588C54.0619 100.746 55.4535 100.798 58.263 100.877L60.1534 100.93L61.2299 102.479C61.5713 102.978 61.8076 103.319 62.0964 103.713L63.7506 106.05L65.0634 100.982L67.9516 100.956C68.7655 100.956 69.4482 100.93 70.0783 100.93C71.6012 100.903 72.8353 100.877 74.9883 100.798L76.8788 100.72L77.3251 101.297L78.0603 100.667L79.3731 100.588C82.1825 100.431 83.5741 100.352 86.3836 100.116L91.241 99.7218L90.322 104.737L90.1645 105.656L89.3768 109.752H89.4031L88.4841 114.32L90.2695 114.137C93.3678 113.821 94.9957 113.638 98.2252 113.218L100.063 112.981L101.744 114.662L103.897 112.43L105.157 112.246C108.491 111.721 110.119 111.458 113.401 110.828L115.449 110.434L117.524 110.014C119.861 109.542 120.99 109.305 123.326 108.78L125.191 108.36L127.055 107.914C129.234 107.389 130.311 107.126 132.49 106.548L135.194 105.84L136.533 105.472C140.13 104.448 143.754 103.371 147.325 102.269L151.946 100.825L152.077 103.555C152.156 105.209 152.235 106.732 152.235 106.89L152.313 108.596H152.34L152.392 109.515L152.655 117.261L152.76 121.646C152.786 123.169 152.812 124.035 152.839 125.663L152.865 128.499L150.16 129.313C146.248 130.494 142.257 131.597 138.293 132.595L136.008 133.172L133.829 133.698C131.308 134.301 129.995 134.59 127.475 135.142L124.455 135.798L123.326 136.008C120.937 136.481 119.703 136.743 117.287 137.163L112.351 138.056V138.03L110.645 138.319C108.334 138.686 106.575 138.949 103.634 139.343L101.875 139.579L99.9056 137.741L97.2012 140.157L96.0197 140.288C92.3963 140.682 90.5058 140.866 86.8562 141.154L85.0708 141.286L83.2066 139.343L82.2613 140.104C81.9725 140.34 80.5546 141.469 80.5546 141.469L80.3709 141.601L79.1893 141.653C75.5397 141.863 73.6492 141.942 69.9996 142.021L68.2141 142.073L66.4812 140.025L65.4835 140.734C65.1684 140.944 63.698 141.995 63.698 141.995L63.488 142.1ZM41.3801 139.973L41.6427 139.999L43.113 140.104C45.0822 140.235 46.3163 140.288 48.5481 140.393L50.8324 140.498L53.143 140.577C56.7926 140.682 58.6831 140.708 62.3065 140.708H63.0416C63.4355 140.419 64.407 139.737 64.6433 139.579L66.6913 138.135L68.818 140.656L69.9471 140.629C73.5704 140.551 75.4609 140.472 79.1105 140.262L79.8457 140.209C80.2396 139.894 81.1323 139.185 81.3686 139.001L83.3378 137.426L85.6221 139.815L86.7249 139.737C90.3483 139.448 92.2388 139.264 95.8359 138.87L96.5711 138.791L99.8794 135.824L102.295 138.082L103.398 137.925C106.312 137.531 108.071 137.268 110.382 136.901L113.9 136.323L116.972 135.772C119.362 135.325 120.596 135.089 122.985 134.617L123.248 134.564L124.114 134.407L127.107 133.75C129.628 133.199 130.941 132.91 133.435 132.306L135.614 131.781L137.899 131.203C141.837 130.205 145.802 129.103 149.714 127.921L151.394 127.422L151.368 125.663C151.342 124.035 151.342 123.195 151.289 121.672L151.184 117.314L150.948 110.067L150.922 109.594L150.791 106.969C150.791 106.811 150.712 105.288 150.633 103.634L150.581 102.741L147.719 103.634C144.121 104.763 140.498 105.84 136.901 106.864L135.562 107.257L132.857 107.966C130.678 108.544 129.602 108.807 127.396 109.332L125.506 109.778L123.615 110.198C121.278 110.723 120.123 110.96 117.786 111.432L115.712 111.852L113.664 112.246C110.356 112.876 108.728 113.139 105.367 113.664L104.579 113.795L101.77 116.736L99.5643 114.53L98.409 114.688C95.1532 115.108 93.5253 115.292 90.4008 115.607L86.7249 115.975L87.8277 110.434L88.6941 106.05L88.7992 105.446L89.5343 101.35L86.5149 101.586C83.6792 101.822 82.2876 101.901 79.4519 102.059L78.6117 102.111L77.1413 103.371L76.2223 102.216L75.0408 102.269C72.8878 102.347 71.6537 102.374 70.1046 102.4C69.4744 102.4 68.7655 102.426 67.9516 102.426L66.1661 102.452L64.3807 109.437L60.9674 104.605C60.6786 104.212 60.4422 103.87 60.1009 103.371L59.4182 102.4L58.2367 102.374C55.401 102.295 54.0094 102.242 51.1737 102.085L48.5218 101.927C46.3951 101.796 45.3711 101.717 43.2443 101.533L42.4041 101.455L40.7499 102.505L39.9885 101.245L38.807 101.113C36.7064 100.903 35.6562 100.798 33.5294 100.536L32.7155 100.431L32.0328 100.851C31.0613 101.455 30.5624 101.744 29.591 102.321L28.9345 102.715L28.6457 103.424C27.2279 106.837 26.519 108.491 25.0486 111.879L24.576 112.955L26.0989 115.659L22.3442 117.734L22.0291 118.443C20.0861 122.749 18.0644 127.081 16.0427 131.335L15.5175 132.437L16.1214 133.488C16.8303 134.722 17.1717 135.299 17.9069 136.533L18.4845 137.505L19.5873 137.662C22.5017 138.082 24.2609 138.292 26.5452 138.581L30.1423 139.001L33.2931 139.316C34.2121 139.395 34.9735 139.474 35.7087 139.553L38.8332 139.842L41.3801 139.973Z" fill="black"/>
<path d="M35.8137 105.787C35.1047 105.708 34.7371 105.656 34.0282 105.577C32.9254 108.308 32.3741 109.673 31.2188 112.404C31.954 112.482 32.3215 112.535 33.0567 112.614C33.188 112.272 33.2668 112.089 33.3981 111.747C34.8684 111.905 35.6036 112.01 37.074 112.141C36.8114 112.824 36.6801 113.165 36.3913 113.848C35.3673 114.452 34.8684 114.767 33.8444 115.371C31.6126 115.108 30.5099 114.977 28.2781 114.688C27.8317 113.9 27.6217 113.533 27.1753 112.745C28.6457 109.358 29.3808 107.651 30.7987 104.264C31.7964 103.687 32.2953 103.371 33.2668 102.768C35.3935 103.03 36.4438 103.135 38.5968 103.345C39.0432 104.107 39.2795 104.474 39.7259 105.236C39.4633 105.918 39.332 106.26 39.0694 106.969C37.6253 106.837 36.9164 106.759 35.4723 106.601C35.6036 106.312 35.6824 106.128 35.8137 105.787Z" fill="black"/>
<path d="M41.6688 112.614C41.1437 114.005 40.8811 114.688 40.3822 116.08C38.8856 115.948 38.1504 115.87 36.6538 115.712C37.9929 112.272 39.332 108.833 40.6185 105.367C41.59 104.737 42.0626 104.422 43.0341 103.792C45.1609 103.975 46.2374 104.054 48.3642 104.185C48.8368 104.921 49.0731 105.288 49.572 106.05C48.3904 109.542 47.1826 113.034 45.9486 116.526C44.452 116.421 43.7168 116.368 42.2202 116.237C42.7453 114.846 42.9816 114.163 43.5067 112.771C42.7715 112.719 42.404 112.693 41.6688 112.614ZM44.452 110.172C44.9508 108.78 45.1871 108.098 45.686 106.706C44.9771 106.654 44.6095 106.627 43.9006 106.575C43.4017 107.966 43.1391 108.649 42.6403 110.041C43.3492 110.093 43.7168 110.119 44.452 110.172Z" fill="black"/>
<path d="M52.0664 112.43C51.4888 114.189 51.2 115.056 50.5961 116.815C49.0995 116.736 48.3643 116.684 46.8677 116.605C48.3118 112.535 49.6771 108.465 51.0162 104.369C53.8519 104.527 55.296 104.579 58.1317 104.658C58.6305 105.393 58.8931 105.735 59.392 106.47C58.8669 108.229 58.6043 109.122 58.0792 110.881C57.1339 111.564 56.6613 111.905 55.6898 112.588C54.272 112.509 53.5368 112.482 52.0664 112.43ZM55.5585 107.231C54.8496 107.205 54.482 107.179 53.7469 107.152C53.4055 108.203 53.248 108.728 52.9067 109.778C53.6418 109.804 54.0094 109.831 54.7183 109.857C55.0597 108.807 55.2435 108.281 55.5585 107.231Z" fill="black"/>
<path d="M74.358 115.239C73.439 115.975 72.9664 116.342 72.0474 117.077C69.0542 117.156 67.5576 117.182 64.5906 117.156C65.7721 113.008 66.8749 108.859 67.9514 104.684C70.8133 104.658 72.2312 104.606 75.0931 104.5C75.6445 105.183 75.9333 105.524 76.4847 106.233C75.6708 109.857 75.2507 111.642 74.358 115.239ZM70.8921 114.452C71.6273 111.59 71.9949 110.146 72.6775 107.284C71.9686 107.31 71.601 107.31 70.8659 107.336C70.1569 110.198 69.7893 111.642 69.0279 114.478C69.7631 114.478 70.1307 114.452 70.8921 114.452Z" fill="black"/>
<path d="M80.7644 106.916C80.5806 107.809 80.4756 108.281 80.2918 109.174C82.4711 109.043 83.5476 108.99 85.7269 108.807C85.5168 109.883 85.4118 110.434 85.2018 111.537C82.9962 111.695 81.8935 111.774 79.7142 111.879C79.5041 112.771 79.4254 113.244 79.2153 114.137C81.4208 114.032 82.5499 113.953 84.7554 113.795C84.5453 114.872 84.4141 115.423 84.204 116.5C81.2108 116.71 79.7404 116.789 76.7472 116.92C76.1695 116.237 75.8807 115.896 75.3293 115.187C76.1958 111.59 76.6159 109.804 77.4036 106.181C78.2701 105.42 78.7164 105.052 79.5829 104.29C82.4448 104.133 83.8627 104.028 86.6984 103.792C86.4883 104.868 86.4095 105.42 86.1995 106.522C83.994 106.732 82.9175 106.811 80.7644 106.916Z" fill="black"/>
<path d="M36.6014 118.049C33.2143 117.734 31.5339 117.55 28.1468 117.13C26.5714 118.049 25.7837 118.495 24.1821 119.362C23.2894 121.357 22.3704 123.353 21.4514 125.348C21.4252 125.401 21.3989 125.427 21.3989 125.479C23.2369 126.005 25.0748 126.477 26.9128 126.924C26.939 126.871 26.9653 126.845 26.9653 126.792C27.753 125.007 28.5407 123.195 29.3021 121.383C30.4311 121.515 31.0088 121.593 32.1641 121.698C31.954 122.224 31.849 122.486 31.6127 123.011C33.9232 123.274 35.0785 123.379 37.3628 123.563C37.7829 122.512 37.993 121.961 38.3868 120.911C37.6779 119.808 37.3103 119.204 36.6014 118.049ZM29.3546 124.849C28.9608 125.768 28.672 126.425 28.3569 127.134C28.3306 127.186 28.3044 127.212 28.3044 127.265C30.6412 127.79 33.0043 128.263 35.3936 128.656C35.4199 128.604 35.4199 128.578 35.4461 128.525C35.7874 127.659 36.1813 126.713 36.6276 125.584C33.6869 125.322 32.2428 125.191 29.3546 124.849Z" fill="black"/>
<path d="M35.3673 128.656C34.6583 130.416 34.0282 131.912 33.1092 134.17C31.4551 135.115 30.6411 135.562 28.9607 136.481C25.3373 136.087 23.5256 135.851 19.9022 135.326C19.1933 134.118 18.8257 133.514 18.1431 132.306C19.2196 130.022 20.2961 127.764 21.3463 125.479C23.1843 126.004 25.0222 126.477 26.8602 126.923C26.125 128.578 25.4161 130.206 24.6809 131.833C25.8625 131.991 26.4663 132.07 27.6479 132.201C28.2255 130.888 28.5143 130.232 29.0657 128.919C28.4881 128.84 28.173 128.814 27.5954 128.735C27.8579 128.131 28.068 127.685 28.2518 127.212C30.6411 127.79 33.0042 128.263 35.3673 128.656Z" fill="#989897"/>
<path opacity="0.2" d="M35.3935 128.525C33.0304 128.131 30.6674 127.659 28.3568 127.134C28.3305 127.186 28.3043 127.212 28.3043 127.265C28.0942 127.711 27.9104 128.184 27.6479 128.788C28.2255 128.866 28.5406 128.893 29.1182 128.972C28.5406 130.284 28.278 130.941 27.7004 132.254C26.5188 132.122 25.9149 132.044 24.7334 131.886C25.4686 130.258 26.2038 128.604 26.9127 126.976C26.9389 126.924 26.9652 126.897 26.9652 126.845H26.9389C25.1272 126.425 23.2893 125.926 21.4513 125.401C21.4251 125.453 21.3988 125.479 21.3988 125.532C20.3486 127.816 19.2721 130.101 18.1956 132.359C18.8782 133.566 19.2458 134.17 19.9547 135.378C23.5781 135.903 25.3898 136.113 29.0132 136.533C30.6936 135.614 31.5076 135.142 33.1617 134.223C34.1069 131.965 34.7371 130.468 35.4198 128.709C35.446 128.656 35.446 128.63 35.4723 128.578L35.3935 128.525ZM33.0042 134.092C31.3763 135.01 30.5623 135.483 28.9607 136.35C25.3636 135.956 23.6044 135.719 20.0335 135.221C19.3771 134.092 19.0095 133.514 18.3531 132.332C19.3771 130.179 20.4274 127.921 21.4776 125.689C23.2368 126.188 24.996 126.661 26.7289 127.055C26.02 128.656 25.3373 130.232 24.6021 131.807L24.5234 131.991L24.7071 132.017C25.8887 132.175 26.4926 132.254 27.6741 132.385H27.7791L27.8317 132.28C28.4093 130.967 28.6981 130.311 29.2495 128.998L29.3283 128.814L29.1445 128.788C28.7506 128.735 28.4881 128.709 28.173 128.683L27.8317 128.656L28.3568 127.422C30.5886 127.921 32.8729 128.368 35.1572 128.761C34.527 130.389 33.9231 131.86 33.0042 134.092Z" fill="white"/>
<path d="M52.1453 119.047C48.7582 118.915 47.0515 118.837 43.6644 118.6C42.1416 119.598 41.3801 120.071 39.8573 121.042C38.8858 123.615 37.888 126.162 36.864 128.735C36.8378 128.788 36.8378 128.84 36.8115 128.866C41.6164 129.628 46.4476 130.153 51.2788 130.468C51.3051 130.416 51.3051 130.363 51.3313 130.337C52.2766 127.501 53.2218 124.665 54.1408 121.83C53.3268 120.727 52.933 120.176 52.1453 119.047ZM45.056 122.801C46.2113 122.88 46.789 122.906 47.9442 122.959C47.2091 125.112 46.8152 126.188 46.0538 128.315C44.8722 128.236 44.2946 128.21 43.1131 128.131C43.927 126.005 44.2946 124.954 45.056 122.801Z" fill="black"/>
<path d="M51.2789 130.494C50.4124 133.015 49.546 135.509 48.6532 138.03C46.2376 137.925 45.0298 137.846 42.588 137.689C43.402 135.562 43.7958 134.485 44.5835 132.332C43.402 132.254 42.7981 132.227 41.6165 132.148C40.8026 134.275 40.4087 135.352 39.5685 137.479C37.1529 137.295 35.9451 137.19 33.5295 136.953C34.6323 134.275 35.7351 131.571 36.8116 128.893C41.5903 129.654 46.4214 130.179 51.2789 130.494Z" fill="#989897"/>
<path opacity="0.2" d="M51.2788 130.363C46.3163 130.022 41.4589 129.497 36.8377 128.761C36.8115 128.814 36.8115 128.867 36.7852 128.893C35.7087 131.597 34.6059 134.275 33.5032 136.953C35.9188 137.19 37.1266 137.295 39.5422 137.479C40.3824 135.352 40.7762 134.275 41.5901 132.149C42.7717 132.227 43.3756 132.28 44.5571 132.332C43.7694 134.485 43.3756 135.536 42.5616 137.689C44.9772 137.846 46.185 137.925 48.6269 138.03C49.5196 135.536 50.386 133.015 51.2525 130.494C51.2788 130.442 51.2788 130.389 51.305 130.363H51.2788ZM48.5481 137.899C46.2113 137.794 45.0035 137.715 42.7717 137.584C43.5331 135.562 43.927 134.512 44.6884 132.411L44.7672 132.227H44.5834C43.3756 132.149 42.7979 132.122 41.6164 132.044H41.5114L41.4851 132.149C40.6712 134.275 40.2511 135.352 39.4634 137.374C37.2316 137.19 36.0238 137.111 33.7132 136.875C34.816 134.197 35.8925 131.571 36.8903 129.077C41.4326 129.812 46.2113 130.337 51.0687 130.652C50.281 132.936 49.4671 135.326 48.5481 137.899Z" fill="white"/>
<path d="M63.3565 124.692C63.5141 124.14 63.5928 123.878 63.7504 123.326C62.5951 123.326 62.0174 123.326 60.8622 123.326C60.4683 124.692 60.2583 125.374 59.8644 126.74C62.2012 126.766 63.3565 126.766 65.6671 126.74C66.5335 127.816 66.9536 128.368 67.8201 129.444C67.6888 129.917 67.5838 130.363 67.4525 130.757C67.4525 130.809 67.4263 130.862 67.4263 130.888C65.457 130.914 63.4878 130.941 61.5186 130.914C61.5186 130.888 61.5186 130.888 61.5448 130.862H61.3873C59.5493 130.862 58.4466 130.836 56.8449 130.809H56.8187C56.4511 130.809 56.0572 130.783 55.6109 130.783C55.6109 130.783 55.6109 130.757 55.5846 130.757C54.7707 129.654 54.3506 129.103 53.5366 128C54.3243 125.558 54.7182 124.35 55.4796 121.908C56.95 120.858 57.6851 120.333 59.1555 119.257C62.5426 119.309 64.2492 119.283 67.6363 119.23C68.4765 120.307 68.9229 120.832 69.7631 121.908C69.4743 123.011 69.343 123.563 69.0542 124.665C66.7961 124.665 65.6671 124.692 63.3565 124.692Z" fill="black"/>
<path d="M67.4265 130.888C66.9801 132.49 66.665 133.671 66.1136 135.614C64.5908 136.717 63.8293 137.268 62.2802 138.371C58.6306 138.371 56.8189 138.345 53.1955 138.24C52.3553 137.111 51.9352 136.56 51.095 135.431C51.4626 134.354 51.6464 133.803 52.0139 132.726C54.4033 132.805 55.5848 132.831 57.9741 132.884C57.7904 133.435 57.7116 133.698 57.554 134.249C58.7618 134.275 59.3395 134.275 60.5473 134.275C60.9674 132.936 61.1512 132.254 61.545 130.914C63.5142 130.914 65.4835 130.914 67.4265 130.888Z" fill="#989897"/>
<path opacity="0.2" d="M67.4263 130.731C65.3521 130.757 63.4091 130.783 61.5187 130.757H61.4136L61.3874 130.836H61.5449C61.5449 130.862 61.5449 130.862 61.5187 130.888C61.1248 132.201 60.9148 132.91 60.5209 134.249C59.3394 134.249 58.7355 134.223 57.5277 134.223C57.7115 133.671 57.7902 133.409 57.9478 132.857C55.5584 132.831 54.3769 132.779 51.9876 132.7C51.62 133.776 51.4362 134.328 51.0686 135.404C51.9088 136.533 52.3289 137.085 53.1691 138.214C56.8188 138.319 58.6305 138.345 62.2538 138.345C63.803 137.268 64.5644 136.691 66.0873 135.588C66.6387 133.671 66.9537 132.49 67.4001 130.862C67.4263 130.809 67.4263 130.757 67.4263 130.731ZM66.0085 135.509C64.5381 136.586 63.7767 137.137 62.2538 138.214C58.6305 138.214 56.845 138.187 53.2741 138.082C52.4864 137.032 52.0663 136.481 51.2787 135.404C51.62 134.406 51.8038 133.855 52.1189 132.884C54.4032 132.962 55.5847 132.989 57.764 133.015L57.3439 134.38H57.5277C58.7355 134.406 59.3131 134.406 60.5209 134.406H60.6259L60.6522 134.301C61.046 132.989 61.2561 132.306 61.6237 131.046C63.4354 131.072 65.2733 131.072 67.2426 131.019C66.875 132.437 66.5599 133.566 66.0085 135.509Z" fill="white"/>
<path d="M85.5171 121.042C85.3071 122.145 85.1758 122.696 84.9658 123.825C82.6552 124.009 81.5262 124.088 79.2156 124.219C79.3469 123.668 79.3994 123.379 79.5307 122.828C78.3754 122.906 77.824 122.933 76.6687 122.985C76.0648 125.479 75.4872 127.974 74.857 130.468C74.857 130.521 74.8308 130.573 74.8308 130.599C72.8878 130.704 70.9186 130.783 68.9231 130.81C68.9231 130.757 68.9494 130.704 68.9756 130.678C69.7633 127.738 70.551 124.771 71.2862 121.804C72.704 120.675 73.4129 120.097 74.7783 118.942C78.1653 118.784 79.872 118.679 83.2328 118.443C84.1256 119.493 84.5982 120.018 85.5171 121.042Z" fill="black"/>
<path d="M83.2067 132.149C82.9703 133.251 82.8391 133.829 82.6028 134.932C81.1587 136.113 80.4235 136.717 78.9531 137.899C75.3297 138.109 73.4918 138.161 69.8684 138.266C68.9494 137.19 68.5031 136.665 67.6104 135.588C68.0305 134.013 68.4768 132.437 68.8969 130.862C70.8661 130.81 72.8354 130.731 74.8046 130.652C74.542 131.781 74.2532 132.91 73.9644 134.065C75.1459 134.013 75.7498 133.987 76.9576 133.934C77.0889 133.383 77.1677 133.094 77.299 132.542C79.662 132.385 80.8436 132.332 83.2067 132.149Z" fill="#989897"/>
<path opacity="0.2" d="M77.2726 132.516C77.1413 133.068 77.0625 133.356 76.9313 133.908C75.7497 133.96 75.1458 133.986 73.938 134.039C74.2269 132.91 74.5157 131.781 74.7782 130.626C74.7782 130.573 74.8045 130.521 74.8045 130.494H74.7782C72.809 130.599 70.8398 130.678 68.9231 130.731C68.8968 130.783 68.8968 130.836 68.8705 130.862C68.4504 132.437 68.0303 134.013 67.584 135.588C68.4767 136.665 68.9231 137.19 69.842 138.266C73.4654 138.161 75.3034 138.109 78.9268 137.899C80.3971 136.717 81.1323 136.14 82.5764 134.932C82.8127 133.829 82.944 133.278 83.1803 132.149C80.8435 132.332 79.6619 132.385 77.2726 132.516ZM82.4976 134.853C81.0535 136.034 80.3183 136.638 78.9268 137.741C75.3296 137.951 73.5442 138.004 69.9471 138.109C69.1069 137.111 68.6605 136.586 67.794 135.536C68.1354 134.275 68.5817 132.647 69.0281 130.993C70.866 130.941 72.7565 130.862 74.647 130.783C74.4106 131.728 74.1743 132.7 73.938 133.645L73.8068 134.17H73.9905C75.1983 134.118 75.776 134.092 76.9838 134.039H77.0888L77.4301 132.647C79.6357 132.542 80.791 132.464 83.0753 132.306C82.839 133.278 82.7077 133.829 82.4976 134.853Z" fill="white"/>
<path d="M101.139 119.335C100.746 122.197 100.326 125.059 99.8791 127.895C99.8791 127.947 99.8791 128 99.8529 128.053C97.9099 128.341 95.9669 128.63 93.9715 128.893C93.9715 128.84 93.9977 128.788 93.9977 128.761C94.4178 126.346 94.8379 123.93 95.2318 121.488C94.1027 121.62 93.5251 121.672 92.3698 121.803C91.9497 124.245 91.5033 126.687 91.057 129.129C91.057 129.182 91.0307 129.234 91.0307 129.287C90.5581 129.339 90.0593 129.392 89.5604 129.444C89.0615 129.497 88.5889 129.549 88.09 129.602C87.1185 129.707 86.1208 129.812 85.123 129.89C85.123 129.838 85.1493 129.785 85.1493 129.733C85.7532 126.818 86.3308 123.878 86.9085 120.937C88.2738 119.729 88.9302 119.125 90.2693 117.891C93.6301 117.55 95.3105 117.366 98.6713 116.946C99.6691 117.891 100.142 118.364 101.139 119.335Z" fill="black"/>
<path d="M99.853 128.052C99.5904 129.838 99.3016 131.597 99.039 133.383C97.6737 134.643 96.9648 135.273 95.5469 136.533C91.9235 136.927 90.1118 137.111 86.4885 137.4C85.517 136.376 85.0444 135.877 84.0991 134.853C84.4405 133.199 84.808 131.545 85.1494 129.89C86.1471 129.785 87.1186 129.68 88.1164 129.602C88.6152 129.549 89.0878 129.497 89.5867 129.444C90.0856 129.392 90.5582 129.339 91.0571 129.287C90.8208 130.521 90.6107 131.755 90.3744 132.989C91.5559 132.884 92.1598 132.805 93.3414 132.7C93.5514 131.44 93.7877 130.179 93.9978 128.919C95.967 128.604 97.9362 128.341 99.853 128.052Z" fill="#989897"/>
<path opacity="0.2" d="M99.853 127.895C97.9888 128.184 96.0195 128.446 94.024 128.709C94.024 128.761 93.9978 128.814 93.9978 128.84C93.7877 130.1 93.5514 131.361 93.3414 132.621C92.1598 132.752 91.5559 132.805 90.3744 132.91C90.6107 131.676 90.847 130.442 91.0571 129.208C91.0571 129.155 91.0833 129.103 91.0833 129.05H91.0308C89.1666 129.26 87.1974 129.47 85.1756 129.68C85.1756 129.733 85.1494 129.785 85.1494 129.838C84.808 131.492 84.4667 133.146 84.0991 134.8C85.0444 135.824 85.5432 136.323 86.4885 137.347C90.1118 137.058 91.9235 136.875 95.5469 136.481C96.9648 135.22 97.6474 134.59 99.039 133.33C99.3278 131.545 99.5904 129.785 99.853 128C99.853 127.947 99.8792 127.895 99.8792 127.842L99.853 127.895ZM98.9077 133.304C97.5949 134.512 96.9123 135.142 95.4944 136.402C91.9235 136.796 90.1381 136.953 86.5672 137.242C85.6483 136.271 85.1756 135.772 84.2567 134.8C84.5717 133.356 84.9131 131.702 85.2544 129.995C87.1711 129.812 89.0616 129.602 90.847 129.392C90.637 130.573 90.4007 131.728 90.1906 132.91L90.1644 133.094L90.3482 133.067C91.5297 132.962 92.1336 132.884 93.3151 132.779H93.4201L93.4464 132.674C93.6565 131.44 93.8928 130.232 94.0766 128.998C95.9933 128.735 97.8837 128.473 99.6692 128.21C99.4329 129.89 99.1703 131.597 98.9077 133.304Z" fill="white"/>
<path d="M114.058 114.478C110.723 115.108 109.043 115.397 105.682 115.896C104.448 117.182 103.818 117.839 102.531 119.125C102.137 121.961 101.743 124.823 101.35 127.659C101.35 127.711 101.323 127.764 101.323 127.816C103.319 127.501 105.262 127.186 107.178 126.845C107.178 126.792 107.178 126.74 107.205 126.687C107.493 124.35 107.782 122.014 108.045 119.677C109.174 119.493 109.752 119.414 110.881 119.204C110.828 119.782 110.802 120.044 110.723 120.622C113.007 120.228 114.136 120.018 116.394 119.598C116.499 118.469 116.526 117.891 116.631 116.762C115.607 115.87 115.082 115.397 114.058 114.478ZM109.069 122.985C108.911 124.403 108.806 125.217 108.675 126.451C108.675 126.503 108.675 126.556 108.649 126.608C109.594 126.451 110.513 126.267 111.432 126.083C112.036 125.952 112.64 125.847 113.244 125.716C114.136 125.532 115.029 125.348 115.922 125.164C115.922 125.112 115.922 125.059 115.948 125.007C116.027 124.009 116.132 122.959 116.237 121.699C113.375 122.25 111.931 122.512 109.069 122.985Z" fill="black"/>
<path d="M115.922 125.164C115.765 126.95 115.607 128.552 115.344 130.888C114.032 132.227 113.375 132.91 112.062 134.223C108.465 134.827 106.68 135.089 103.056 135.588C102.032 134.617 101.507 134.144 100.51 133.173C100.772 131.387 101.061 129.602 101.323 127.816C103.319 127.501 105.262 127.186 107.179 126.845C107.021 128.21 106.837 129.576 106.654 130.941C107.835 130.757 108.439 130.678 109.62 130.468C109.778 129.05 109.883 128.368 110.041 126.95C109.463 127.055 109.174 127.081 108.597 127.186C108.623 126.976 108.649 126.766 108.675 126.556C109.62 126.398 110.539 126.215 111.458 126.031C112.062 125.9 112.666 125.795 113.27 125.663C114.163 125.532 115.056 125.348 115.922 125.164Z" fill="#989897"/>
<path opacity="0.2" d="M115.896 125.033C113.506 125.532 111.064 126.005 108.675 126.425C108.675 126.477 108.675 126.53 108.649 126.582C108.623 126.792 108.596 126.976 108.57 127.212C109.148 127.107 109.437 127.081 110.014 126.976C109.857 128.394 109.752 129.103 109.594 130.494C108.413 130.678 107.809 130.783 106.627 130.967C106.811 129.602 106.968 128.236 107.152 126.871C107.152 126.819 107.152 126.766 107.179 126.713H107.126C105.314 127.029 103.345 127.37 101.323 127.685C101.323 127.737 101.297 127.79 101.297 127.843C101.035 129.628 100.772 131.413 100.483 133.199C101.481 134.17 102.006 134.643 103.03 135.614C106.627 135.116 108.439 134.853 112.036 134.249C113.375 132.91 114.031 132.254 115.318 130.915C115.554 128.578 115.712 126.976 115.896 125.191C115.896 125.138 115.896 125.086 115.922 125.033H115.896ZM115.213 130.836C113.953 132.122 113.323 132.779 111.983 134.118C108.439 134.722 106.653 134.984 103.109 135.457C102.137 134.564 101.638 134.065 100.667 133.146C100.956 131.256 101.218 129.549 101.455 127.948C103.398 127.632 105.262 127.344 107.021 127.029C106.863 128.341 106.68 129.628 106.522 130.941L106.496 131.125L106.68 131.098C107.861 130.915 108.465 130.836 109.647 130.626L109.752 130.599V130.494C109.935 129.077 110.014 128.368 110.172 126.976L110.198 126.792L110.014 126.819C109.594 126.897 109.332 126.924 108.99 126.976L108.754 127.029L108.806 126.687C111.143 126.267 113.48 125.795 115.817 125.322C115.607 127.134 115.449 128.683 115.213 130.836Z" fill="white"/>
<path d="M133.409 110.172C133.382 113.743 133.33 117.34 133.225 120.937C133.225 120.99 133.225 121.042 133.225 121.095C128.604 122.329 123.274 123.641 117.392 124.875C117.392 124.823 117.392 124.77 117.419 124.718C117.734 121.042 118.022 117.366 118.259 113.664C120.622 113.191 121.803 112.929 124.14 112.404C125.532 115.292 126.214 116.71 127.632 119.572C127.764 116.342 127.842 114.74 127.921 111.511C130.1 111.012 131.203 110.75 133.409 110.172Z" fill="black"/>
<path d="M133.199 121.068C133.12 124.035 133.015 127.028 132.857 129.995C130.363 130.599 129.076 130.888 126.556 131.44C125.138 128.551 124.455 127.133 123.09 124.219C122.88 127.449 122.749 129.05 122.486 132.28C120.123 132.752 118.915 132.989 116.526 133.435C116.815 130.573 117.104 127.711 117.34 124.849C123.248 123.615 128.578 122.302 133.199 121.068Z" fill="#989897"/>
<path opacity="0.2" d="M133.173 120.937C127.921 122.329 122.617 123.589 117.392 124.718C117.392 124.77 117.392 124.823 117.366 124.875C117.13 127.737 116.841 130.599 116.552 133.461C118.942 133.015 120.123 132.805 122.512 132.306C122.775 129.076 122.906 127.449 123.116 124.245C124.482 127.134 125.191 128.578 126.582 131.466C129.103 130.914 130.363 130.626 132.884 130.022C133.015 127.055 133.146 124.062 133.225 121.095C133.225 121.042 133.225 120.99 133.225 120.937H133.173ZM122.985 124.219C122.775 127.317 122.644 128.919 122.381 132.175C120.123 132.647 118.942 132.857 116.71 133.278C116.999 130.573 117.261 127.764 117.497 124.98C119.335 124.587 121.173 124.193 123.011 123.746L122.985 124.219ZM132.726 129.89C130.363 130.442 129.129 130.731 126.661 131.282C125.243 128.394 124.56 126.976 123.248 124.167L123.038 123.746C126.372 122.985 129.733 122.145 133.068 121.252C132.989 124.14 132.884 127.028 132.726 129.89Z" fill="white"/>
<path d="M148.821 116.447C145.907 117.419 141.023 118.968 134.616 120.701C134.616 120.648 134.616 120.596 134.616 120.543C134.695 117.918 134.721 115.266 134.748 112.64C135.877 111.222 136.428 110.513 137.505 109.069C141.154 108.019 144.778 106.942 148.401 105.813C148.48 107.494 148.532 108.36 148.611 110.041C145.303 111.091 143.649 111.59 140.314 112.535C140.34 113.953 140.34 114.662 140.34 116.08C143.701 115.134 145.382 114.636 148.742 113.585C148.769 114.688 148.795 115.423 148.821 116.29C148.821 116.342 148.821 116.395 148.821 116.447Z" fill="black"/>
<path d="M149.005 125.663C145.119 126.818 141.207 127.921 137.295 128.919C136.166 128.079 135.588 127.659 134.459 126.818C134.511 124.77 134.59 122.749 134.617 120.701C140.997 118.968 145.907 117.419 148.821 116.447C148.821 116.867 148.848 117.314 148.848 117.865C145.434 118.915 143.728 119.414 140.314 120.333C140.314 121.751 140.288 122.46 140.288 123.878C143.754 122.932 145.487 122.434 148.926 121.383C148.979 123.116 149.005 123.956 149.005 125.663Z" fill="#989897"/>
<path opacity="0.2" d="M148.953 121.41C145.513 122.46 143.78 122.959 140.314 123.904C140.341 122.486 140.341 121.777 140.341 120.359C143.754 119.414 145.461 118.915 148.874 117.891C148.848 117.366 148.848 116.894 148.848 116.473C148.848 116.421 148.848 116.368 148.848 116.316H148.795C145.828 117.287 140.997 118.837 134.643 120.543C134.643 120.596 134.643 120.648 134.643 120.701C134.59 122.749 134.538 124.77 134.485 126.818C135.614 127.659 136.192 128.079 137.321 128.919C141.26 127.921 145.145 126.818 149.031 125.663C149.005 123.957 148.979 123.116 148.953 121.41ZM137.321 128.761C136.218 127.948 135.641 127.527 134.617 126.74C134.669 124.744 134.722 122.749 134.774 120.806C140.971 119.125 145.723 117.629 148.69 116.657C148.69 116.999 148.716 117.366 148.716 117.76C145.382 118.784 143.728 119.257 140.288 120.202L140.183 120.228V120.333C140.183 121.751 140.183 122.46 140.157 123.878V124.062L140.341 124.009C143.806 123.064 145.513 122.591 148.821 121.567C148.848 123.116 148.874 123.957 148.9 125.532C145.067 126.687 141.181 127.764 137.321 128.761Z" fill="white"/>
</svg>
