<svg width="256" height="256" viewBox="0 0 256 256" fill="none" xmlns="http://www.w3.org/2000/svg">
<g clip-path="url(#clip0_3107_8041)">
<path d="M39.3373 0.135756C39.3373 0.135756 39.323 3.09529 39.3445 4.15329C40.16 29.9456 44.359 54.4869 47.9214 73.0019C56.205 116.001 65.7905 150.572 77.2216 178.673C81.4278 189.01 86.335 199.819 93.6386 208.94L93.6672 210.163C93.7817 214.974 95.3268 219.578 97.1652 223.631C98.4743 226.519 102.523 232.266 103.796 233.539C106.293 236.041 110.542 239.858 114.548 241.874L126.172 256L135.364 246.964C154.643 245.935 168.484 235.276 173.356 217.712C173.914 215.703 174.193 212.257 174.3 210.42C174.343 209.691 174.429 207.511 174.429 207.511C174.593 203.801 174.193 200.183 173.256 196.766C172.698 194.729 171.918 192.842 171.095 191.026C171.181 190.876 171.26 190.74 171.324 190.633C172.326 188.853 172.326 188.116 172.326 187.752C172.326 187.552 172.304 187.359 172.276 187.173L172.884 186.108C173.721 184.635 174.15 182.862 174.171 181.068L175.094 181.147L175.917 179.009C177.347 175.285 178.835 171.503 180.28 167.843C182.605 161.952 185.002 155.855 187.233 149.793C205.446 100.31 215.124 55.1874 216.813 11.8595L216.984 0.00708008L39.3373 0.135756Z" fill="#1F1917"/>
<path d="M171.138 175.599C169.064 175.321 168.191 172.554 165.773 173.648C162.511 175.12 161.052 179.724 164.2 182.219C164.8 182.691 167.476 183.92 167.519 184.442C167.555 184.843 166.052 185.672 165.637 185.743C163.942 186.015 161.453 183.906 160.387 182.691C160.079 182.341 158.928 180.582 158.684 180.518C155.966 180.782 153.355 181.554 150.637 180.854C145.944 179.638 142.096 174.985 142.038 170.081C141.802 170.023 141.788 170.159 141.674 170.295C138.576 173.919 136.087 176.286 130.901 175.742C128.905 175.528 126.473 175.035 124.849 173.812C124.52 173.562 124.112 172.869 123.69 172.904C122.903 172.983 121.687 176.064 120.528 176.579C119.291 177.129 117.037 176.736 115.771 176.314C115.363 176.178 113.804 175.607 113.969 175.049C114.09 174.634 116.68 173.698 117.223 173.276C118.439 172.318 119.963 168.672 119.169 167.264C118.625 166.299 116.401 165.17 115.313 165.069C113.21 164.862 112.259 165.942 110.492 166.428C110.378 166.456 110.091 166.564 110.099 166.413C110.478 164.297 112.91 161.803 115.056 161.588C115.571 161.538 116.465 161.538 116.987 161.588C117.688 161.652 120.607 162.653 120.922 162.432C121.029 162.36 121.658 160.459 121.88 160.037C124.792 154.425 132.059 153.36 137.525 155.605C140.88 156.984 142.875 159.558 144.413 162.739C146.924 160.537 151.045 160.644 154.156 161.238C157.075 161.795 160.623 163.633 161.703 166.564C161.946 167.228 162.282 169.301 162.697 169.687C162.826 169.809 165.537 170.545 166.102 170.788C167.647 171.439 169.5 172.64 170.48 174.005C170.824 174.484 171.217 174.985 171.124 175.614L171.138 175.599ZM132.253 173.283C132.124 170.245 134.792 168.193 136.008 165.649C136.816 163.961 137.646 160.101 136.559 158.493C134.835 155.941 129.978 156.891 128.79 159.465C127.703 161.831 127.767 167.264 128.712 169.673C129.262 171.081 130.514 173.312 132.253 173.276V173.283ZM152.468 179.974C153.748 179.617 154.95 178.437 155.737 177.387C157.497 175.056 159.185 170.052 157.669 167.371C156.152 164.691 151.982 163.518 149.821 166.328C147.318 169.587 149.986 172.54 151.288 175.549C151.903 176.965 152.382 178.409 152.468 179.974Z" fill="#EEE9B9"/>
<path d="M117.924 100.224C121.079 99.6593 123.111 102.097 125.879 102.133C127.632 102.154 129.792 101.046 131.587 100.746C132.582 100.574 135.121 100.167 135.343 101.554C135.836 104.649 131.759 103.634 130.035 104.592C128.311 105.55 127.066 109.646 124.62 108.281C123.626 107.723 123.554 106.772 123.075 105.964C121.88 103.948 117.252 103.891 116.837 102.033C116.658 101.225 117.095 100.374 117.939 100.224H117.924Z" fill="#EEE9B9"/>
<path d="M103.153 215.618C103.138 215.432 103.153 215.253 103.188 215.074C103.446 213.373 104.884 209.877 104.834 208.483C104.805 207.69 103.868 205.624 103.603 204.68C102.945 202.357 101.658 196.559 103.174 194.601C103.911 193.643 105.42 194.25 106.114 194.972C102.03 193.65 103.002 199.862 103.453 202.142C103.811 203.972 104.49 205.724 104.962 207.518L107.015 200.112C107.201 199.983 111.079 200.005 111.601 200.048C114.755 200.319 113.797 204.265 112.667 206.138C112.509 206.403 111.78 207.139 111.78 207.318C111.78 207.532 112.094 207.718 112.194 207.933C113.124 209.956 111.586 213.509 109.97 214.896L108.954 215.539C109.941 217.104 112.388 220.772 114.519 220.343C115.929 220.057 115.986 217.934 116.029 216.833C116.029 216.676 115.936 216.354 116.157 216.382C116.594 219.514 116.014 224.103 112.101 220.629C110.657 219.349 109.312 217.319 108.432 215.61H103.153V215.618ZM107.53 206.096H109.913C111.322 206.096 112.459 203.358 110.528 203.036C110.192 202.979 108.482 202.943 108.303 203.065L107.538 206.096H107.53ZM106.837 209.069C106.601 209.148 106.336 210.478 106.372 210.778C106.393 210.928 107.123 212.458 107.201 212.529C107.509 212.801 108.539 212.601 108.94 212.465C110.42 211.95 110.935 209.327 109.119 209.069C108.789 209.019 107.058 208.998 106.829 209.069H106.837ZM106.758 212.658L106.114 211.371L105.857 212.658H106.758Z" fill="#EEE9B9"/>
<path d="M136.888 215.618L139.342 210.406C137.975 206.575 136.173 202.185 136.108 198.061C136.065 195.408 136.788 192.778 139.849 194.901L138.497 194.758C137.231 194.815 136.838 196.352 136.759 197.403C136.43 201.592 138.154 205.981 139.599 209.827L144.492 200.048H146.552V215.618H144.234L144.363 212.272H140.887C141.638 214.059 142.725 215.882 143.927 217.405C145.379 219.249 148.469 222.473 149.614 218.477L149.907 216.39V219.671C149.907 219.892 149.557 220.872 149.421 221.115C148.197 223.195 145.644 220.564 144.692 219.485C143.004 217.548 141.566 214.996 140.508 212.665L139.191 215.153L139.091 215.625H136.902L136.888 215.618ZM144.356 209.184L144.485 204.294L142.167 209.184H144.356Z" fill="#EEE9B9"/>
<path d="M167.147 219.799C167.032 220.643 166.403 221.93 165.408 221.923C163.656 221.923 161.217 218.591 160.294 217.255C160.079 216.94 159.206 215.367 159.042 215.289C158.942 215.246 157.547 215.775 156.946 215.71C153.906 215.396 154.185 211.192 154.571 209.026C154.686 208.383 155.186 207.032 155.165 206.553C155.122 205.588 154.056 202.907 153.82 201.592C153.498 199.833 153.047 196.366 153.992 194.808C154.335 194.236 154.7 194.071 155.365 194.122C155.565 194.136 156.767 194.558 156.846 194.643C156.932 194.736 156.91 194.922 156.667 194.886C155.494 194.743 154.943 194.586 154.399 195.859C153.212 198.625 154.693 202.893 155.308 205.702C155.644 205.76 155.508 205.652 155.573 205.516C156.224 204.244 156.517 203.186 157.44 201.978C160.473 198.018 164.879 198.954 163.999 204.416L161.746 205.188C162.318 202.95 160.401 201.806 158.784 203.579C157.926 204.523 156.481 207.954 156.653 209.184C156.688 209.434 158.033 212.501 158.219 212.529C159.278 212.701 160.551 210.099 160.909 209.305L162.511 210.213C162.003 212.036 160.795 213.58 159.578 215.003C160.609 216.654 163.162 220.722 165.416 220.364C166.002 220.271 166.403 219.764 166.632 219.263L167.161 217.283C167.082 218.069 167.261 219.027 167.161 219.792L167.147 219.799ZM157.618 212.529L156.46 209.956C156.495 210.871 156.474 212.343 157.618 212.529Z" fill="#EEE9B9"/>
<path d="M122.08 215.746C122.066 215.56 122.08 215.382 122.116 215.203C122.295 214.016 123.361 211.335 123.311 210.406C123.282 209.849 121.887 206.782 121.601 205.867C120.85 203.422 119.198 196.774 120.793 194.708C121.236 194.136 121.644 194.043 122.345 194.186C122.56 194.229 123.275 194.536 123.368 194.708C123.525 195.015 122.581 194.751 122.402 194.758C120.557 194.858 120.593 198.025 120.657 199.34C120.843 202.879 122.223 206.267 123.368 209.563C123.704 209.598 123.575 209.563 123.626 209.377C124.505 206.396 125.042 203.279 125.943 200.298H127.875L124.913 212.651H129.42C129.241 213.666 129.055 214.831 128.583 215.739H126.716C127.717 217.233 129.72 220.264 131.68 220.379C132.81 220.443 133.247 219.535 133.504 218.599L133.798 216.382C134.177 218.82 133.891 223.767 130.278 221.122C128.49 219.814 127.231 217.548 126.008 215.739H122.08V215.746Z" fill="#EEE9B9"/>
<path d="M172.168 41.3907C171.367 48.1319 167.712 53.765 163.813 59.1122C164.371 60.3132 164.85 61.0495 164.278 62.3934C163.391 64.488 160.709 64.2449 160.101 67.3546C158.749 74.2101 165.487 81.0228 163.735 88.3573C162.948 91.6671 159.929 95.6131 157.683 98.1366C156.824 99.1088 154.128 102.562 152.869 100.496C152.354 99.6521 152.69 98.7728 153.183 98.0151C155.243 94.8482 158.978 91.2167 159.972 87.428C161.352 82.1594 157.661 74.6462 156.495 69.3347C155.658 65.5245 155.279 63.5586 157.304 60.0558C160.637 54.2869 166.718 49.8761 169.071 43.4495C165.952 43.6711 162.919 44.4575 159.993 45.5083C156.917 46.6092 153.355 48.3964 150.916 50.591C150.394 51.0628 148.956 52.4925 148.977 53.1574C150.737 58.4045 152.303 64.2449 149.428 69.4277C147.024 73.7598 137.167 77.3412 132.718 79.6216C131.981 80.0005 131.101 80.3508 130.886 81.2658C130.693 82.1022 130.979 83.2031 130.378 83.9752C129.935 84.5399 128.125 85.5336 127.424 85.7838C123.998 86.9919 120.836 84.4541 118.661 82.0522C115.929 79.0212 113.554 75.8757 109.719 74.0028C107.538 72.9377 106.257 73.2379 103.99 73.0377C103.074 72.9591 102.602 72.6017 102.065 71.8725C100.67 69.9781 102.244 69.3991 102.602 67.9265C102.988 66.318 101.214 66.8542 100.406 67.4046C98.2311 68.8772 98.2311 72.4658 99.3542 74.589C99.8263 75.4826 101.329 76.898 101.55 77.6701C101.708 78.2205 101.679 79.1141 101.851 79.8147C102.344 81.8735 104.247 85.1475 106.565 85.3977C108.539 85.6122 111.915 84.783 112.831 87.2421C113.346 88.6146 113.36 92.5607 112.531 93.8045C111.701 95.0484 110.249 94.0905 109.204 93.826C107.681 93.4257 105.706 93.2612 104.24 93.8903C101.135 95.22 100.399 98.5155 98.8964 101.225C98.7104 101.275 98.6818 101.175 98.5745 101.103C96.3784 99.5806 93.3811 95.8562 92.1793 93.4686C88.1878 85.505 90.2122 73.3952 94.2109 65.7318L96.9649 61.0852C96.7933 60.9351 93.9534 61.4212 93.4884 61.2782C92.7015 59.777 92.165 58.1328 91.2279 56.7174C89.9618 54.8087 88.152 53.5505 87.501 51.1772C87.3079 50.4623 87.2864 49.7046 87.1219 48.9826C86.2492 45.1652 85.2978 41.3907 84.0889 37.6663C85.8987 37.6877 87.7442 37.7234 89.5469 37.9379C96.9506 38.8243 103.131 43.2279 109.312 46.9881C113.589 46.6521 117.767 45.5012 122.03 45.0151C130.643 44.0286 139.113 45.7371 146.495 50.2479C146.76 50.2765 148.362 48.8539 148.763 48.5751C152.21 46.1517 156.638 44.2931 160.637 42.942C164.636 41.5909 168.084 41.1548 172.161 41.3979L172.168 41.3907ZM87.6656 40.0039C86.7499 40.204 87.3365 41.6409 87.5368 42.2628C88.8602 46.3519 91.6357 49.4401 93.8818 52.9072C94.6687 54.1153 96.8505 58.5403 97.7804 59.0478C99.998 60.2703 101.143 57.3179 102.251 55.8739C103.739 53.9437 105.342 52.0565 106.729 50.062C106.765 49.7117 105.771 48.811 105.47 48.5393C102.866 46.1303 95.8204 41.6052 92.4655 40.6901C91.4711 40.4185 88.5669 39.818 87.6656 40.011V40.0039ZM137.446 63.4371C138.533 62.4006 142.596 62.6794 144.256 62.2004C147.632 61.2139 144.95 57.9898 144.17 56.0597C143.39 54.1296 143.34 52.3496 141.316 51.0628C138.254 49.1255 129.735 48.1104 126.015 47.9532C125.314 47.9246 122.417 47.8102 122.03 48.2105C121.272 48.9897 122.638 49.9619 122.975 50.4838C123.976 52.0422 124.277 55.2233 124.863 57.0891C125.45 58.9549 125.965 59.9843 126.301 61.9573C127.202 67.183 127.145 72.5159 127.116 77.8059C128.69 75.983 130.171 77.7273 132.145 77.3627C135.236 76.7908 137.739 69.5421 137.668 66.8184C137.639 65.8176 136.33 64.5237 137.467 63.4371H137.446ZM114.712 59.055C114.126 59.105 113.353 59.2838 112.781 59.441C111.572 59.777 107.488 61.6785 106.457 62.3863C105.792 62.8438 105.32 63.5872 105.663 64.4236C105.892 64.9669 107.066 64.8454 107.573 64.7954C110.22 64.5309 112.853 62.7151 115.692 63.144C116.322 63.237 116.994 63.7874 117.76 63.7803C118.525 63.7731 119.276 63.0797 119.369 62.3005C119.684 59.7127 116.78 58.862 114.705 59.055H114.712Z" fill="#F1BC40"/>
<path d="M163.026 156.041C162.49 156.427 161.975 153.681 161.875 153.396C161.488 152.345 160.723 151.201 159.55 151.022C159.443 153.188 159.149 155.848 158.155 157.799C157.883 158.335 157.475 159.036 156.817 158.971C154.392 158.736 152.74 157.663 149.986 158.128C149.485 158.214 147.968 158.8 147.661 158.721C147.339 158.635 146.481 157.449 146.152 157.127C144.292 155.326 142.16 153.674 139.842 152.495C139.363 152.252 136.738 151.272 136.645 151.122C136.273 150.515 137.947 146.275 138.311 145.432C140.286 140.921 143.126 136.725 145.222 132.257C145.486 130.963 143.426 132.579 143.061 132.679C142.639 132.793 142.253 132.779 142.16 132.286C141.91 130.963 142.582 130.298 143.376 129.39C145.486 126.988 148.247 124.351 150.723 122.32C152.253 121.069 154.364 119.847 155.737 118.582C156.553 117.831 156.781 116.823 155.794 116.087C154.364 115.014 152.94 117.552 152.261 116.659C151.996 116.308 152.017 113.099 152.075 112.477C152.432 108.473 155.658 106.479 158.198 103.863C161.474 100.488 165.337 96.714 168.012 92.8894C168.534 92.146 169.35 91.1166 169.45 90.2087C169.808 87.0132 168.441 82.8742 167.483 79.8217C166.353 76.2259 164.886 72.7231 164.042 69.0416C164.5 68.9057 165.029 68.9701 165.466 68.8485C166.403 68.5983 167.855 66.2107 168.227 65.3028C168.627 64.3377 169.057 61.1209 169.872 60.7706C171.253 60.1772 171.811 61.5569 172.269 62.5577C173.799 65.9319 174.694 70.6571 175.573 74.3101C179.436 90.3374 183.313 107.444 178.041 123.621C174.336 134.988 168.241 145.339 163.012 156.019L163.026 156.041ZM165.702 138.955C166.138 139.398 165.33 141.629 165.122 142.237C164.672 143.552 161.982 148.863 162.118 149.664C162.225 150.279 163.427 150.236 163.863 149.864C164.543 149.285 166.124 145.997 166.61 145.017C170.33 137.526 174.364 127.839 176.503 119.775C178.642 111.712 178.513 99.6449 177.426 91.0022C177.147 88.7575 176.296 82.9814 174.808 81.3944C174.05 80.5866 172.497 80.3793 172.075 81.6232C171.339 83.7821 172.104 86.5629 172.176 88.7861C172.29 92.3104 170.401 96.4923 169.4 99.9237C167.547 106.279 165.244 114.464 165.73 121.091C165.773 121.684 166.31 123.707 166.224 124.022C166.045 124.708 161.939 126.845 161.102 127.539C159.257 129.069 160.766 128.69 161.41 129.655C162.855 131.857 160.501 136.267 161.732 138.734C162.454 140.178 165.094 138.34 165.695 138.948L165.702 138.955Z" fill="#F1BC40"/>
<path d="M84.3536 94.1475C84.8185 90.3087 85.6769 86.5414 86.9288 82.8884L88.3452 79.4785C88.3595 83.7677 88.1305 88.0426 89.1535 92.246C90.1764 96.4494 93.9391 102.712 98.0451 104.849C98.3026 104.985 99.3041 105.271 99.39 105.371C99.4973 105.5 99.6403 106.565 99.7405 106.886C100.906 110.489 103.417 112.834 106.307 115.122C106.264 122.277 107.244 129.819 113.01 134.673C116.572 137.676 118.697 136.939 122.917 137.254C124.92 137.404 125.114 137.74 125.779 139.541C126.716 142.051 128.003 147.991 127.753 150.579C127.603 152.152 126.365 151.773 125.171 152.116C123.783 152.516 121.709 153.303 120.664 154.303C119.455 155.454 118.883 157.299 118.075 158.728C116.479 158.45 115.235 158.207 113.647 158.743C111.815 159.365 110.871 160.78 109.605 162.038C108.983 162.653 108.661 162.767 107.981 162.103C106.25 160.387 104.376 152.152 103.732 149.492C102.774 145.496 101.758 141.193 101.007 137.161C100.256 133.129 99.8979 128.776 99.1253 124.629C98.9751 123.807 98.5959 121.398 98.1238 120.869C97.1796 119.797 93.1165 119.153 91.4783 118.246C87.1219 115.822 84.6039 108.295 84.3536 103.555C84.189 100.474 84.096 97.4288 84.3536 94.1618V94.1475ZM101.608 117.431C98.7748 115.05 95.334 113.363 92.9805 110.418C89.2679 105.75 87.9231 97.2572 87.0146 91.4167C86.9932 91.2666 86.986 90.7948 86.7929 90.802C85.8343 96.9855 85.7628 103.555 87.9803 109.489C90.1406 115.272 95.5057 118.167 101.593 117.431H101.608Z" fill="#F1BC40"/>
<path d="M105.349 40.8616C105.134 40.5542 107.423 38.3024 107.788 37.9736C110.692 35.3429 115.406 32.6407 119.326 32.1331C121.995 31.79 124.749 32.4477 127.424 32.5049C131.509 32.5907 136.638 30.1387 140.722 29.1951C142.389 28.809 143.841 28.3658 145.508 28.9663C151.323 31.0608 154.085 36.5153 157.354 41.312L148.984 44.6647C146.602 45.4296 144.077 45.401 141.645 44.9221C136.566 43.9213 131.487 42.6202 126.265 42.4057C121.043 42.1913 115.836 42.4772 110.943 44.343L105.342 40.8616H105.349Z" fill="#F1BC40"/>
<path d="M142.983 103.319C142.782 103.541 142.604 104.034 142.847 104.277C143.569 104.999 147.232 105.056 148.269 104.942C148.97 104.863 150.029 104.342 150.615 104.313C151.824 104.249 150.1 106.365 149.628 106.686C148.047 107.759 146.144 106.987 144.42 106.887C143.111 106.815 140.701 106.622 141.366 108.652C141.988 110.54 146.044 109.138 147.003 110.096C147.876 110.968 145.966 112.034 145.286 112.255C142.024 113.32 138.283 112.47 135.021 112.162C133.912 112.055 128.84 112.098 128.325 111.262C127.889 110.547 128.969 109.389 129.491 108.945C131.408 107.323 134.191 106.837 136.237 105.264C138.533 103.498 138.39 101.904 141.602 100.975C143.212 100.51 147.597 99.8237 148.984 100.653C149.449 100.932 149.592 101.654 149.12 101.925C148.548 102.254 145.823 102.347 144.871 102.569C144.392 102.683 143.297 102.976 142.983 103.319Z" fill="#F1BC40"/>
<path d="M104.462 102.533C104.505 102.461 105.127 102.254 105.27 102.247C106.708 102.226 108.761 104.427 110.106 103.998C110.993 103.713 110.735 103.198 110.227 102.705C109.355 101.847 106.486 100.467 106.493 99.2446C106.508 97.6648 109.14 99.8379 109.669 100.045C110.971 100.539 112.466 100.417 113.69 101.303C114.577 101.947 114.569 102.79 115.063 103.662C116.987 107.058 120.435 106.15 122.581 108.631C123.103 109.231 124.255 111.261 123.01 111.626C122.252 111.848 119.205 110.539 118.003 110.511C115.163 110.439 111.043 111.619 108.468 110.647C106.98 110.089 105.313 108.924 104.44 107.601C104.49 106.929 107.123 107.701 107.609 107.773C108.239 107.866 111.601 108.581 110.935 107.151C110.592 106.415 107.809 105.993 107.008 105.664C106.207 105.335 103.832 103.548 104.455 102.533H104.462Z" fill="#F1BC40"/>
<path d="M138.991 89.1722C139.728 88.4001 140.608 88.9006 141.452 88.872C143.018 88.8148 147.933 86.8775 149.056 85.7837C149.914 84.9474 150.501 83.4175 150.83 82.2809C151.409 80.2721 151.617 77.041 152.354 75.311C152.733 74.4246 153.555 73.6454 154.407 74.5175C155.472 75.6112 154.206 77.9202 154.399 79.4143C154.5 80.2293 155.151 81.2515 155.272 82.1451C155.515 83.9323 154.643 88.3787 153.312 89.644C151.61 91.2668 147.897 90.4089 145.744 90.702C144.02 90.9379 141.194 92.8895 139.649 92.8395C138.605 92.8037 138.218 89.98 138.991 89.1722Z" fill="#F1BC40"/>
<path d="M115.478 128.661C118.361 128.175 121.594 129.841 124.455 130.048C127.846 130.298 130.593 128.597 133.726 128.89C137.968 129.283 134.163 132.629 132.331 133.544C127.424 136.003 118.332 135.088 114.219 131.399C113.783 131.006 113.089 130.427 113.382 129.791C113.532 129.469 115.084 128.726 115.471 128.661H115.478Z" fill="#F1BC40"/>
<path d="M117.152 90.9592C118.382 90.6375 119.67 92.3747 120.6 93.111C122.56 94.6551 125.822 95.8417 128.254 94.8481C130.021 94.1261 132.481 91.5383 134.27 91.2094C136.258 90.8448 137.024 93.883 136.723 95.3342C136.366 97.0713 132.939 97.5002 131.516 97.7218C129.799 97.9935 127.581 98.3152 125.865 98.2651C123.633 98.2008 117.416 96.9069 116.093 95.034C115.378 94.0188 115.878 91.2809 117.145 90.9592H117.152Z" fill="#F1BC40"/>
<path d="M118.897 87.485C119.105 87.292 119.684 87.2992 119.963 87.3135C122.488 87.4493 124.534 91.1237 127.045 90.416C128.905 89.8941 130.972 86.7416 132.696 86.8059C135.858 86.9274 132.009 90.1944 131.087 90.852C127.538 93.3826 125.242 93.7472 121.451 91.3667C120.886 91.0093 118.833 89.551 118.668 89.0077C118.547 88.6145 118.597 87.7781 118.897 87.4922V87.485Z" fill="#F1BC40"/>
<path d="M141.137 117.567C139.671 120.59 138.669 123.8 137.668 127.003C136.473 127.682 136.03 126.71 136.108 125.609C136.201 124.315 138.455 120.719 139.277 119.511C139.427 119.289 140.822 117.252 141.13 117.567H141.137Z" fill="#F1BC40"/>
<path d="M110.878 117.309C112.087 118.596 112.488 120.39 112.874 122.07C113.031 122.756 113.668 125.323 113.389 125.802C113.217 126.095 112.173 126.159 111.908 125.995C111.708 125.873 111.515 125.044 111.458 124.772C111.129 123.321 110.964 121.076 110.885 119.554C110.843 118.81 110.914 118.053 110.885 117.302L110.878 117.309Z" fill="#F1BC40"/>
<path d="M213.887 3.04541L213.765 11.7382C211.934 58.7548 200.532 104.842 184.372 148.742C180.767 158.536 176.811 168.179 173.07 177.915C172.898 177.901 172.862 177.73 172.805 177.601C171.939 175.528 172.233 174.827 170.366 173.09C169.944 172.697 168.112 171.467 168.191 170.938C177.462 148.849 185.445 126.088 191.697 102.933C199.094 75.5398 204.23 47.3598 204.995 18.8797L52.471 18.7438C52.6426 30.9537 54.1878 43.1493 56.0405 55.2091C59.8675 80.072 65.4973 105.221 72.3073 129.412C78.8526 152.666 86.6784 175.892 97.8448 197.324C97.4657 199.29 96.9506 201.234 96.7217 203.229C96.5572 204.651 96.6073 206.103 96.3855 207.525C89.2035 198.732 84.2963 188.024 80.0329 177.544C66.7205 144.81 57.5999 107.18 50.9044 72.4444C46.5193 49.5902 43.1072 27.1721 42.3847 3.87465C42.3775 3.62445 42.2845 3.40999 42.2488 3.17409L213.887 3.04541Z" fill="#F1BC40"/>
<path d="M167.662 190.268L165.852 186.093C166.403 185.829 166.904 185.443 167.34 185C167.69 185.593 169.286 187.159 169.286 187.766C169.286 188.102 168.048 190.554 167.662 190.275V190.268Z" fill="#F1BC40"/>
<path d="M117.96 241.224C122.846 243.161 128.218 244.784 133.54 244.505L126.423 251.504L117.96 241.224Z" fill="#F1BC40"/>
<path d="M186.847 11.6669C187.348 11.1951 188.972 7.03456 189.229 7.03456H191.225L188.027 13.8186C189.472 18.2794 186.647 18.5081 183.456 16.6566C182.841 16.2992 181.11 14.7765 180.795 14.6765C180.395 14.5478 179.15 14.8051 178.535 14.7551C176.89 14.6121 176.053 13.7042 176.317 12.0172C176.389 11.5454 177.018 10.5017 177.011 10.3158C177.011 10.2157 176.181 8.82172 176.046 8.50004C174.45 4.72555 176.038 3.16715 179.787 4.88997C180.466 5.20451 180.495 5.29744 180.917 5.75496C180.266 5.44042 179.2 4.82563 178.521 4.73985C175.044 4.27519 176.36 7.77802 177.312 9.61522C177.526 9.77249 178.013 8.9504 178.206 8.77883C179.25 7.82806 180.76 6.97737 182.197 6.91304C182.09 6.73432 181.94 6.5699 181.811 6.39833C182.455 6.56275 182.305 6.81296 182.541 6.89159C183.263 7.14179 184.301 6.60564 185.152 7.49922C185.445 7.80662 185.738 9.10052 185.531 9.34357C185.452 9.43651 183.428 9.70816 183.099 9.7439C183.385 7.96389 181.217 8.47144 180.28 9.17201C179.765 9.55089 178.485 11.0307 178.785 11.6669C178.857 11.8242 179.951 13.0323 180.094 13.0609C180.366 13.1109 181.225 12.6105 181.468 12.4175C181.711 12.2245 182.212 11.574 182.283 11.5525C182.412 11.5096 183.864 11.9099 184 11.9886C184.315 12.1816 183.507 12.8822 183.356 13.018C182.798 13.5327 182.112 13.983 181.425 14.3047C182.734 15.4557 184.787 17.0355 186.64 16.8139C188.006 16.6566 187.906 15.4485 187.856 14.3691C187.72 14.3548 187.591 14.6264 187.534 14.6264H185.538C185.788 13.7686 186.382 13.0752 186.568 12.1816C186.897 12.2817 186.869 11.9671 186.826 11.6669H186.847Z" fill="#201917"/>
<path d="M204.101 7.03442L203.071 9.35058C207.814 7.4419 207.506 12.0027 204.344 14.0329C203.3 14.7049 201.504 15.2697 200.553 14.2403C200.303 14.8264 198.865 14.7836 198.3 14.5619C199.001 13.797 201.676 7.03442 202.098 7.03442H204.094H204.101ZM202.341 10.9376C200.718 12.4531 201.891 14.4333 203.586 12.6318C205.281 10.8304 203.922 9.45781 202.341 10.9376Z" fill="#201917"/>
<path d="M78.173 7.03442L76.6279 10.38C76.7352 10.5087 78.731 8.96456 78.8812 8.96456H81.3921C80.4979 9.81525 79.2747 10.43 78.1945 11.0448C77.9871 11.3665 78.7739 14.0544 78.8168 14.6263H76.4992L76.1129 12.4388C75.1615 12.7533 74.9254 13.7899 74.5677 14.6263H72.5076L75.9841 7.03442H78.173Z" fill="#201917"/>
<path d="M118.604 9.35059V12.6962C119.155 12.4602 121.401 9.35059 121.63 9.35059H123.754C122.796 10.5373 121.766 11.7025 120.729 12.8248C119.691 13.9472 117.574 16.4563 116.322 16.9138C115.414 17.2427 114.655 17.2713 113.711 17.0711C113.868 16.7637 114.054 15.4555 114.219 15.3269C114.276 15.284 115.142 15.4627 115.621 15.3197C115.843 15.2554 116.544 14.7907 116.544 14.5691V9.35773H118.604V9.35059Z" fill="#201917"/>
<path d="M72.8867 10.6302C72.386 10.5945 71.1771 11.0234 70.7836 10.9019C70.6477 10.859 70.8266 10.4301 70.1971 10.3014C69.775 10.2085 69.4531 10.4229 69.0382 10.38C68.9881 10.6731 69.0525 10.5873 69.2028 10.666C70.1398 11.1807 72.386 10.7732 72.0999 12.4674C71.7207 14.6835 66.1268 15.6057 65.6189 13.5898C65.5688 13.3896 65.5974 12.7248 65.7763 12.6819C65.9694 12.6318 67.5289 12.5103 67.6791 12.5532C67.7935 12.5818 67.7435 13.2824 68.5947 13.3396C69.0811 13.3753 70.4188 13.0465 69.496 12.689C68.5733 12.3316 66.3342 12.4603 66.8135 10.7803C67.2928 9.10042 70.7622 8.46419 72.2072 9.07182C72.7723 9.30773 72.9797 10.044 72.901 10.6231L72.8867 10.6302Z" fill="#201917"/>
<path d="M194.959 9.09326C194.981 9.23623 194.945 9.35061 194.902 9.48644C194.716 10.0726 193.049 12.832 193.3 13.2037C193.478 13.4682 194.394 13.3038 194.694 13.1394C195.546 12.6604 196.826 9.09326 197.084 9.09326H199.079L196.311 14.755H194.444L194.573 14.2403C193.922 14.8336 191.282 15.1124 190.996 14.1474C190.624 12.8892 192.57 10.3514 192.899 9.09326H194.959Z" fill="#201917"/>
<path d="M148.391 10.6802C149.621 9.38633 152.089 8.40697 153.82 9.08609C155.909 9.90818 154.693 12.303 153.405 13.3181C152.117 14.3332 150.73 14.7693 149.17 14.6334C146.788 14.419 147.082 12.0528 148.383 10.6874L148.391 10.6802ZM151.538 10.4086C149.678 10.6874 148.712 13.6398 150.901 13.1251C152.54 12.739 153.648 10.094 151.538 10.4086Z" fill="#201917"/>
<path d="M82.8084 12.3101C82.6511 13.2751 83.1303 13.3752 83.9744 13.1536C84.3607 13.0535 84.6397 12.6246 84.9401 12.5674C85.4337 12.4745 86.0203 12.8105 86.5425 12.6961C86.1777 13.5468 85.1333 14.2187 84.2534 14.4618C83.3735 14.7049 81.0272 14.8836 80.6767 13.7326C79.8183 10.9018 84.5109 7.71348 86.9717 9.24329C87.4438 9.53639 87.6012 10.0082 87.5583 10.5586C87.5368 10.8303 87.1076 12.1313 86.9216 12.2457C86.428 12.5531 82.9658 12.1385 82.8013 12.3101H82.8084ZM85.5124 11.152C85.6412 10.001 84.7041 10.1798 83.9387 10.5515C83.8457 10.6015 83.3807 10.9661 83.4522 11.152H85.5124Z" fill="#201917"/>
<path d="M159.292 9.09326C159.543 9.33632 157.297 12.7033 157.676 13.218C157.869 13.4754 158.663 13.3181 158.942 13.1823C159.872 12.7319 161.145 9.09326 161.417 9.09326H163.413L160.644 14.755H158.777L158.906 14.2403C158.212 14.7907 155.63 15.1553 155.329 14.1474C154.95 12.8677 156.882 10.3729 157.232 9.09326H159.292Z" fill="#201917"/>
<path d="M93.3668 6.90585L92.4655 8.83598H93.4956C93.6029 8.94321 92.9949 10.23 92.8518 10.3157C92.5442 10.5016 91.9576 10.2657 91.7144 10.4087C91.5928 10.4802 90.5985 12.6534 90.5341 12.8964C90.4339 13.311 91.3424 12.7606 91.557 12.9536C91.1564 14.176 91.2351 14.5549 89.8259 14.6264C86.3494 14.8122 89.2036 12.0171 89.4969 10.3801H88.8531C89.1249 10.0441 89.3466 8.96465 89.7186 8.85742C89.9261 8.79309 90.2551 8.89317 90.3839 8.81453C90.4626 8.77164 90.6772 7.96384 90.8274 7.84232C90.9347 7.75653 93.2738 6.81291 93.3668 6.90585Z" fill="#201917"/>
<path d="M163.026 14.6263L165.623 9.11474L167.662 9.09329L167.719 9.35064C168.055 8.91457 169.751 8.90742 169.972 9.22911C170.094 9.40783 168.957 10.7661 168.814 10.8447C168.484 11.0234 168.227 10.6231 167.862 10.6445C166.396 10.7303 165.294 14.6335 165.015 14.6335H163.019L163.026 14.6263Z" fill="#201917"/>
<path d="M59.5027 11.7956C60.2539 11.4024 63.1295 11.0521 63.2297 10.8877C63.5229 10.4159 62.7504 10.4731 62.3927 10.5017C61.5915 10.5803 61.4914 11.0664 61.2267 11.1236C60.8619 11.1951 59.9677 10.7662 59.5027 10.8948C59.3525 10.7662 60.2109 9.97266 60.3397 9.87258C61.4342 9.0076 62.9364 8.80744 64.2955 9.00045C67.443 9.45796 63.3656 12.9322 64.0094 14.6264C63.387 14.5335 62.4642 14.748 61.892 14.6336C61.7346 14.605 61.8634 14.2976 61.8204 14.2404C61.4199 14.4549 60.9978 14.6479 60.5328 14.6264C61.4914 19.2445 57.371 17.7933 55.0104 16.2206C54.6528 15.9847 53.3723 14.7551 53.2578 14.7551H48.1718L49.8385 11.2165C48.9587 9.66527 46.9986 6.83441 47.8857 5.01151C48.8228 3.10282 52.4924 5.0544 53.7085 5.87649C53.7228 6.12669 53.451 5.99802 53.3294 5.93368C53.0075 5.76926 52.6713 5.46187 52.2921 5.29745C50.2892 4.42532 48.1861 4.12507 48.5938 7.06317C48.6725 7.64936 49.7169 10.1585 50.1747 10.3801C50.3965 10.4874 50.375 10.23 50.4251 10.1299C50.8615 9.33643 51.3121 7.87096 51.7914 7.24188C51.8772 7.1275 51.9345 7.03457 52.099 7.03457C53.3938 7.16325 57.228 6.61995 58.0935 7.61361C58.6586 8.26414 58.2581 9.02904 57.836 9.60808C57.7216 9.76535 57.5856 9.86543 57.4497 9.99411C57.2351 10.2014 56.9848 10.4516 56.6772 10.5088C56.7487 10.952 57.1779 11.045 57.1994 11.6026C57.2566 13.068 55.2894 14.2547 54.1019 14.6908C55.4396 15.7488 57.2351 17.057 59.0449 16.7996C60.1394 16.6423 60.2181 15.6844 60.1537 14.7551C57.9218 15.0411 57.4211 13.3397 59.1236 12.0529C59.1522 12.0315 59.4884 11.8099 59.5099 11.7956H59.5027ZM52.6784 9.99411H54.9317C55.2322 9.99411 56.0834 9.43652 56.0047 9.05049C55.9904 8.96471 55.7329 8.70735 55.7043 8.70735H53.1935C53.1219 8.70735 52.7643 9.82969 52.6784 9.99411ZM51.9917 11.5597C51.8415 11.6097 51.5482 12.1387 51.5553 12.2459C51.5553 12.3317 52.2492 13.018 52.3851 13.0537C53.0647 13.2539 55.3323 12.9108 54.8101 11.9171C54.5812 11.481 52.4066 11.4167 51.9917 11.5525V11.5597ZM62.4642 12.3103C62.035 12.1601 59.8533 12.682 60.4112 13.3325C60.7617 13.74 62.4786 13.0037 62.4642 12.3103Z" fill="#201917"/>
<path d="M129.162 14.7551C129.105 14.5335 129.255 14.4977 129.355 14.369C129.649 13.983 131.451 12.4032 131.459 12.1172C130.235 10.616 127.503 6.63421 128.905 4.78271C129.735 3.68897 131.695 4.3395 132.725 4.8256C133.376 5.13299 133.898 5.65484 134.57 5.8836C134.585 6.12666 134.313 6.00513 134.191 5.94079C133.912 5.79782 133.705 5.6477 133.376 5.49043C132.803 5.21878 132.145 4.79701 131.416 4.71837C127.267 4.2966 130.529 10.2943 131.931 11.6669C132.439 10.9806 135.979 7.72795 135.994 7.2347C135.994 7.09887 135.543 7.14891 135.665 6.91301C136.008 7.33478 138.247 6.84867 138.433 7.04168V14.7622H135.987V13.0894H133.283C134.456 14.5835 138.569 17.7789 140.458 16.6066C141.037 16.2491 141.058 15.3627 141.008 14.7622C139.334 14.9195 138.419 14.3119 138.719 12.539C139.041 10.666 141.595 8.70732 143.512 8.83599C143.977 8.86459 144.378 9.09334 144.735 9.35784L145.765 7.04168H147.954L144.327 14.6121L142.289 14.6335L142.353 14.2475C142.232 14.4906 141.423 14.5978 141.395 14.6407C141.287 14.7694 142.088 17.107 140.579 17.6217C138.09 18.4724 134.284 15.184 132.675 13.4826C132.346 13.4254 131.501 14.7622 131.401 14.7622H129.148L129.162 14.7551ZM136.244 9.60804C136.001 9.56515 135.872 9.77246 135.729 9.92258C135.3 10.3658 134.899 10.9591 134.442 11.4024H136.115C136.115 10.7947 136.058 10.1871 136.244 9.6009V9.60804ZM142.646 10.4087C141.044 10.7447 140.007 14.0759 142.389 13.1109C143.419 12.6963 144.843 9.94403 142.646 10.4087Z" fill="#201917"/>
<path d="M110.492 12.8249C110.757 13.1537 110.578 13.4539 111.315 13.0679C112.13 12.6318 113.375 9.09326 113.647 9.09326H115.642L113.003 14.6263C112.688 14.9051 111.83 14.6835 111.393 14.755C112.152 19.2729 108.074 17.7574 105.764 16.199C105.435 15.9774 104.104 14.755 103.99 14.755H100.191C100.349 14.2331 101.4 12.5318 101.357 12.1243C101.343 11.9527 100.062 10.2942 99.8335 9.9082C97.9951 6.7485 97.4014 2.65233 102.552 4.74689C103.446 5.11147 103.768 5.44745 104.447 6.00505C103.374 5.39741 100.427 3.79612 99.5688 5.31163C98.9823 6.34818 99.6261 8.09245 100.127 9.09326C100.327 9.50073 101.321 11.102 101.615 11.3379C101.743 11.438 101.772 11.4738 101.879 11.3236C102.28 10.766 103.596 7.3204 103.825 7.17742C104.412 7.15598 105.02 7.12738 105.606 7.15598C105.692 7.15598 105.778 7.14883 105.864 7.15598C105.907 7.15598 105.95 7.15598 105.993 7.15598C105.942 7.3204 105.928 7.51341 105.864 7.67068C105.12 9.50788 103.882 11.1735 103.289 13.0751H107.409C107.423 13.3038 106.822 14.6763 106.744 14.7264C106.615 14.805 105.692 14.7407 105.413 14.7478C105.284 14.7478 104.977 14.6763 105.156 14.8765C106.844 16.3706 111.629 18.6295 110.885 14.3618C110.177 14.8622 107.745 15.0981 107.545 14.033C107.287 12.6962 109.104 10.4015 109.476 9.08611H111.536C111.515 9.9511 110.392 11.1378 110.27 11.8884C110.227 12.1243 110.335 12.446 110.378 12.689C110.313 12.6175 110.256 12.5389 110.242 12.4388C110.106 12.3959 109.998 12.4388 109.927 12.5532C109.491 13.2466 110.685 13.8543 110.506 12.8106L110.492 12.8249Z" fill="#201917"/>
<path d="M110.106 176.5C109.655 176.943 109.233 175.492 109.197 175.156C109.054 173.591 109.848 168.608 110.943 167.493C112.531 165.87 114.527 166.835 114.491 169.101C114.441 172.626 111.257 173.233 110.163 175.986C110.099 176.15 110.12 176.479 110.099 176.5H110.106Z" fill="white"/>
<path d="M170.237 184.607C169.901 184.671 170.037 184.564 169.972 184.428C169.701 183.899 169.543 183.291 169.236 182.72C168.127 180.711 166.288 179.352 166.825 176.75C167.361 174.148 169.658 175.914 170.359 177.351C171.403 179.495 171.425 182.512 170.244 184.607H170.237Z" fill="white"/>
<path d="M131.738 168.908C130.536 168.98 130.371 166.556 130.314 165.634C130.192 163.768 129.928 160.015 131.909 159.108C134.163 158.078 134.742 160.873 134.57 162.539C134.32 164.955 131.602 166.392 131.738 168.908Z" fill="white"/>
<path d="M153.884 176.114C153.555 173.298 150.186 170.967 151.502 168.008C152.046 166.778 152.933 166.799 154.085 167.228C156.832 168.251 156.331 172.468 155.244 174.577C155.136 174.784 154.156 176.357 153.884 176.114Z" fill="white"/>
<path d="M118.733 121.684C118.375 121.763 118.432 121.355 118.218 121.105C116.651 119.311 114.813 117.867 114.283 115.386C114.212 115.05 113.961 113.971 114.312 113.856C121.015 113.899 127.703 114.478 134.377 114.993C134.728 115.022 135.894 114.857 135.972 115.2C136.073 115.615 134.992 117.81 134.721 118.303C134.098 119.397 131.902 122.413 130.643 122.592C130.321 122.642 130.436 122.034 130.443 121.877C130.557 120.362 130.607 118.839 130.707 117.316C129.835 117.159 128.941 117.252 128.068 117.188C125.514 116.988 121.902 116.337 119.434 116.666C118.954 116.73 118.733 117.188 118.733 117.638V121.691V121.684Z" fill="white"/>
<path d="M121.022 127.053C120.385 127.661 118.74 127.274 118.74 126.124C118.74 125.931 119.062 124.565 119.126 124.515C119.291 124.386 119.405 124.644 119.491 124.73C119.799 125.073 121.1 126.381 121.158 126.66C121.179 126.774 121.108 126.981 121.029 127.053H121.022Z" fill="white"/>
<path d="M130.579 124.901C130.979 124.608 131.637 126.681 130.901 127.346C130.572 127.639 129.878 127.653 129.541 127.41C129.084 127.067 130.114 125.859 130.335 125.502C130.443 125.33 130.543 124.916 130.572 124.901H130.579Z" fill="white"/>
<path d="M105.048 78.0848C106.815 77.6916 106.25 79.6575 106.858 80.5939C107.566 81.702 110.585 82.4883 111.765 81.9665C112.33 81.7163 113.532 80.2436 114.212 81.2159C115.02 82.3668 112.195 83.918 111.293 84.0682C108.589 84.5257 104.805 83.0674 104.447 80.0292C104.369 79.3501 104.233 78.2563 105.041 78.0776L105.048 78.0848Z" fill="white"/>
<path d="M146.509 79.3716C148.126 79.0142 147.897 80.6226 147.647 81.6663C146.967 84.4972 143.519 85.9341 140.844 85.3622C139.942 85.1692 137.167 83.7109 137.99 82.5671C138.812 81.4233 140.5 83.5679 141.595 83.5893C142.525 83.6108 144.621 82.803 145.186 82.0309C145.794 81.2088 145.644 79.5575 146.509 79.3645V79.3716Z" fill="white"/>
<path d="M143.541 78.5923C143.762 78.5709 143.977 78.8926 144.034 79.0784C144.506 80.6011 142.868 81.6877 141.48 81.3732C141.316 81.3374 140.25 80.6368 140.229 80.5654C140.186 80.3866 140.336 80.3437 140.443 80.2651C140.787 80.0078 143.269 78.6209 143.541 78.5923Z" fill="white"/>
<path d="M108.525 77.5629C108.904 77.47 111.265 79.5002 111.651 79.9291C110.478 80.887 108.768 80.8799 108.11 79.3572C107.874 78.8068 107.817 77.7416 108.532 77.5629H108.525Z" fill="white"/>
<path d="M107.466 215.875C107.616 215.882 107.767 215.911 107.953 215.903C109.505 217.705 110.928 220.779 113.189 221.865C117.095 223.738 116.665 217.783 116.394 215.575C116.179 213.837 115.607 212.179 115.256 210.478L122.853 210.606L121.565 216.011H125.75C127.066 217.998 129.749 222.637 132.567 222.18C133.633 222.008 134.112 220.214 134.191 219.299C134.406 216.525 133.762 213.48 132.896 210.864H138.691L136.373 216.011H139.141L140.429 213.566C142.003 216.354 143.619 219.185 146.03 221.351C142.267 224.653 137.517 227.205 132.639 228.428C126.101 230.065 113.647 229.414 107.173 227.37C103.525 226.219 101.815 224.939 99.8764 221.665C97.7948 218.134 96.8076 214.202 96.7075 210.092L103.925 210.277L102.63 215.81C102.595 215.918 102.902 215.875 102.952 215.875C104.404 215.875 106.035 215.775 107.459 215.875H107.466Z" fill="#C88F38"/>
<path d="M162.64 199.404C162.204 199.226 161.353 199.397 161.023 199.154C160.752 198.961 159.564 197.002 159.164 196.509C156.553 193.349 153.241 191.991 153.055 197.596C148.183 190.776 139.542 186.701 131.387 185.407C121.079 183.77 112.81 186.93 103.117 189.246C102.909 189.296 101.929 189.639 102.015 189.303C102.187 188.603 103.367 186.894 103.832 186.229C105.628 183.656 108.317 180.739 110.635 178.616C111.107 178.18 113.031 176.429 113.468 176.286C113.904 176.143 114.848 176.843 115.313 177.029C117.116 177.758 118.082 178.016 120.063 177.615C122.045 177.215 122.903 176.093 123.847 174.441C124.055 174.391 125.857 175.785 126.258 176C129.692 177.851 136.337 177.522 139.52 175.185C139.785 174.992 140.636 174.019 140.815 174.055C143.026 177.165 145.157 180.353 148.949 181.633C149.306 181.754 149.7 181.726 150.036 181.833C156.252 183.885 161.095 193.442 162.654 199.397L162.64 199.404Z" fill="#C88F38"/>
<path d="M144.42 199.662C144.385 199.662 144.292 199.797 144.177 199.776L144.034 199.669C143.018 197.86 139.95 193.435 137.625 193.771C136.373 193.95 135.937 195.551 135.851 196.631C135.565 200.269 136.731 204.079 137.789 207.511L131.773 207.418L131.73 207.296C131.387 206.36 131.022 205.366 130.6 204.465C129.262 201.592 126.244 195.894 123.533 194.286C121.315 192.963 119.97 194.186 119.763 196.516C119.441 200.098 120.585 203.901 121.694 207.261L114.054 207.139C113.969 207.118 113.375 205.652 113.382 205.523C113.389 205.28 113.825 204.351 113.911 203.922C114.19 202.543 114.162 200.391 112.531 199.883C111.944 199.704 110.692 199.762 110.363 199.604C110.206 199.526 108.704 197.152 108.353 196.724C107.23 195.33 104.29 192.177 102.738 194.693C100.992 197.531 103.103 203.944 103.918 207.003L96.965 206.875C96.8648 203.615 97.4442 200.369 98.3456 197.253C98.5029 196.709 99.1753 194.364 99.4901 194.15C99.998 193.8 101.786 193.149 102.466 192.878C110.091 189.897 119.999 188.152 128.197 188.467C133.032 188.653 139.642 190.619 143.619 193.385C148.126 196.523 152.432 201.728 152.847 207.389C151.96 207.389 147.818 207.504 147.818 207.504C147.725 207.439 146.96 205.452 146.931 205.259C146.695 203.722 147.117 201.685 146.931 200.112C146.917 199.983 146.874 199.669 146.731 199.669C145.958 199.669 145.186 199.647 144.413 199.669L144.42 199.662Z" fill="#C88F38"/>
<path d="M159.021 215.76C159.199 216.611 160.966 218.327 160.973 219.027C160.973 219.499 159.936 221.765 159.664 222.358C157.554 226.912 154.135 231.645 150.215 234.79C145.329 238.715 133.948 243.19 127.689 242.768C121.093 242.325 111.243 237.671 106.958 232.603C106.558 232.131 105.377 230.479 105.22 229.958C105.163 229.764 105.22 229.75 105.392 229.786C106.923 230.093 108.532 230.672 110.084 231.023C123.425 234.025 136.158 234.139 147.124 225.011C150.279 222.387 153.305 219.02 154.922 215.231C155.036 215.131 155.709 215.71 155.952 215.81C157.018 216.239 157.955 215.896 159.028 215.76H159.021Z" fill="#C88F38"/>
<path d="M170.044 210.985C170.208 210.999 171.167 211.171 171.21 211.235C171.382 213.101 170.924 215.11 170.43 216.904C165.723 233.897 152.547 243.018 135.157 243.933C134.949 243.948 134.277 244.026 134.184 243.797C139.864 242.646 145.286 240.916 150.065 237.592C155.895 233.539 160.952 228.242 163.549 221.529C163.949 221.622 164.221 221.93 164.636 222.051C168.055 223.038 167.64 217.841 167.39 215.825C167.247 214.681 166.575 212.858 166.553 211.929C166.553 211.807 166.718 210.985 166.768 210.985C167.805 210.985 169.042 210.899 170.051 210.985H170.044Z" fill="#C88F38"/>
<path d="M167.404 207.382C167.104 202.249 165.623 197.16 163.599 192.463C161.953 188.631 159.786 184.564 156.588 181.84C157.046 181.747 158.026 181.382 158.441 181.425C158.742 181.461 160.394 183.491 160.837 183.899C162.125 185.085 163.763 186.236 165.587 186.165C167.104 189.997 169.228 193.564 170.33 197.574C171.21 200.777 171.539 204.058 171.396 207.382H167.404Z" fill="#C88F38"/>
<path d="M141.323 196.774C142.367 197.867 143.197 199.168 143.948 200.469L140.472 207.482C140.028 207.468 139.055 207.489 139.055 207.489C138.869 207.082 138.168 204.945 138.011 204.387C137.446 202.364 136.373 197.324 137.661 195.601C138.726 194.171 140.522 195.937 141.323 196.774Z" fill="#C88F38"/>
<path d="M127.488 199.919H125.557L123.568 207.261C123.404 207.246 123.218 207.282 123.068 207.232C122.817 207.153 122.109 204.759 121.995 204.315C121.465 202.385 120.893 199.64 121.05 197.653C121.508 191.798 126.458 197.653 127.496 199.912L127.488 199.919Z" fill="#C88F38"/>
<path d="M125.299 212.272L125.629 210.72H131.931C132.11 210.72 132.267 210.763 132.388 210.913C132.567 211.135 132.911 212.872 132.982 213.28C133.233 214.659 133.884 219.099 132.424 219.849C130.55 220.822 128.34 217.397 127.353 216.196C127.295 215.903 127.481 216.018 127.674 216.003C127.932 215.982 128.941 216.053 129.019 215.989C129.184 215.846 129.67 212.729 129.935 212.272H125.299Z" fill="#C88F38"/>
<path d="M114.734 210.47C114.898 211.636 115.292 212.751 115.478 213.909C115.685 215.231 115.864 216.904 115.614 218.212C114.727 222.752 110.413 217.505 109.491 215.668C111.236 214.502 112.295 212.508 112.695 210.47H114.734Z" fill="#C88F38"/>
<path d="M141.395 212.529H143.97V216.003H146.803V211.178L148.541 211.114C148.655 211.264 149.013 213.058 149.077 213.408C149.256 214.424 149.607 216.904 149.321 217.812C149.263 217.984 147.632 219.942 147.496 219.978C146.338 220.264 143.483 216.289 142.883 215.353C142.332 214.488 141.709 213.487 141.387 212.536L141.395 212.529Z" fill="#C88F38"/>
<path d="M109.719 199.662L106.772 199.676L104.955 206.353C104.097 203.508 103.074 200.176 103.424 197.167C103.904 193.063 107.08 195.98 108.432 197.674C108.596 197.882 109.827 199.554 109.719 199.662Z" fill="#C88F38"/>
<path d="M157.948 196.109C158.334 196.438 160.659 199.111 160.451 199.397C158.198 199.89 157.275 201.799 156.102 203.479C156.045 203.565 156.016 203.851 155.816 203.651C155.751 203.579 155.394 202.135 155.272 201.813C154.521 199.919 154.185 199.376 154.399 197.152C154.657 194.536 156.266 194.679 157.948 196.109Z" fill="#C88F38"/>
<path d="M163.67 206.932C163.663 206.996 163.52 207.375 163.463 207.389C161.639 207.304 159.342 207.775 157.554 207.511C157.361 207.482 157.347 207.589 157.361 207.318C157.418 206.153 159.228 202.614 160.716 203.057C161.725 203.357 161.46 204.916 161.488 205.709C161.567 205.795 163.32 204.909 163.677 205.066C163.62 205.659 163.756 206.36 163.677 206.932H163.67Z" fill="#C88F38"/>
<path d="M131.222 207.382H126.587L128.197 200.941L131.222 207.382Z" fill="#C88F38"/>
<path d="M152.468 211.114C152.096 213.051 151.273 214.874 150.215 216.518L149.12 211.114H152.468Z" fill="#C88F38"/>
<path d="M166.374 213.301C166.532 214.688 167.154 219.07 165.78 219.849C165.473 220.028 164.443 220.142 164.321 219.778C164.242 219.542 165.244 216.783 165.401 216.254C165.673 215.346 165.838 214.388 166.11 213.48C166.167 213.294 166.038 213.251 166.367 213.294L166.374 213.301Z" fill="#C88F38"/>
<path d="M160.408 214.538C160.78 214.123 161.231 213.501 161.539 213.03C161.646 212.865 162.798 210.542 163.026 210.849L161.674 217.154C161.517 217.369 161.481 217.212 161.353 217.083C161.167 216.897 159.972 215.146 159.95 215.003C159.915 214.724 160.265 214.688 160.401 214.531L160.408 214.538Z" fill="#C88F38"/>
<path d="M159.55 210.985C159.7 211.114 158.62 212.386 158.269 212.136C158.219 212.1 157.812 211.049 157.876 210.985H159.55Z" fill="#C88F38"/>
<path d="M113.453 207.125H112.423L113.132 206.095L113.453 207.125Z" fill="#C88F38"/>
<path d="M147.318 207.511L146.803 207.496C146.803 207.496 146.795 206.731 146.753 206.345C146.953 206.546 147.318 207.511 147.318 207.511Z" fill="#C88F38"/>
<path d="M109.526 210.342C109.612 210.342 109.712 210.327 109.848 210.342C110.056 211.528 108.94 212.336 107.852 212.286C107.259 212.258 106.794 210.892 106.758 210.342C107.681 210.37 108.604 210.306 109.526 210.342Z" fill="#C88F38"/>
<path d="M110.814 203.522C111.386 203.679 111.079 204.902 110.757 205.266C110.277 205.795 108.739 205.709 108.046 205.709L108.561 203.522C109.212 203.543 110.292 203.372 110.814 203.522Z" fill="#C88F38"/>
<path d="M143.262 207.511L144.142 205.759L144.056 207.496L143.262 207.511Z" fill="#C88F38"/>
</g>
<defs>
<clipPath id="clip0_3107_8041">
<rect width="256" height="256" fill="white"/>
</clipPath>
</defs>
</svg>
