<svg width="256" height="256" viewBox="0 0 256 256" fill="none" xmlns="http://www.w3.org/2000/svg">
<path d="M87.7849 209.871C86.9256 210.075 86.0304 210.358 85.093 210.646C84.1557 210.911 83.1703 211.235 82.1489 211.476C80.0999 211.998 77.8708 212.269 75.5575 212.071C63.27 211.5 51.5233 208.08 41.3087 202.509C31.0641 196.951 22.3457 189.228 15.6402 180.184C8.92262 171.14 4.21192 160.743 1.8806 149.8C0.702923 144.325 0.126102 138.718 0.156145 133.099C0.17417 131.693 0.246273 130.287 0.294342 128.881C0.408504 127.474 0.558718 126.068 0.690906 124.668C0.793051 123.262 1.05142 121.861 1.29176 120.467C1.54412 119.073 1.72438 117.667 2.10292 116.285C2.27716 115.515 2.4454 114.746 2.61965 113.977C2.80592 113.214 2.9321 112.444 3.17244 111.699C3.61106 110.209 4.04969 108.731 4.4823 107.258C5.01106 105.822 5.5338 104.392 6.05654 102.967C6.29689 102.252 6.62135 101.567 6.92778 100.882C7.23422 100.197 7.54066 99.5119 7.84108 98.8268C10.3587 93.4002 13.399 88.3702 16.896 83.7248C20.399 79.0794 24.4487 74.8968 28.883 71.1048C33.3294 67.3248 38.2203 63.9715 43.5619 61.147C42.1199 61.9943 40.6598 62.8116 39.1937 63.6229C37.7817 64.5303 36.3697 65.4378 34.9577 66.3512C33.6058 67.3428 32.2779 68.3825 30.968 69.4401C29.7182 70.5699 28.5285 71.7658 27.3809 72.9858C22.9406 78.0759 19.4075 83.4063 16.5895 89.0252C13.7835 94.6442 11.6866 100.564 10.4007 106.904C9.19902 112.625 8.82048 119.085 9.14494 125.569C9.42133 132.078 10.3887 138.58 11.5003 144.836C12.9003 152.726 15.5801 159.241 18.3681 164.259C21.15 169.301 24.0281 172.9 26.2513 175.346C27.3388 176.59 28.3242 177.51 29.0693 178.207C29.8023 178.916 30.3551 179.349 30.6616 179.565C30.968 179.781 31.0401 179.775 30.8538 179.547C30.6796 179.313 30.2229 178.892 29.574 178.183C30.0126 178.658 30.4873 179.066 30.962 179.445C31.4367 179.823 31.9174 180.172 32.398 180.502C33.3594 181.158 34.3929 181.656 35.3843 182.173C36.3877 182.684 37.4452 183.093 38.4787 183.591C39.5122 184.084 40.6117 184.535 41.6933 185.148C45.9714 187.726 50.0031 190.154 54.119 192.347C58.2288 194.523 62.4408 196.416 66.8631 197.624C67.518 197.582 68.8039 197.69 70.0897 197.774C71.3815 197.84 72.6613 198.002 73.3043 198.183C76.2064 198.856 79.0905 199.475 82.0407 199.883C84.9909 200.292 87.9952 200.532 91.1076 200.526C97.3204 200.514 104.026 199.493 111.14 196.53C110.569 196.957 109.992 197.383 109.566 197.702C109.133 198.026 108.839 198.225 108.839 198.225C111.645 197.576 113.051 197.197 115.839 196.314C114.168 197.738 112.252 199.168 110.143 200.532C108.028 201.884 105.708 203.164 103.269 204.342C98.39 206.71 92.9943 208.519 87.7789 209.859L87.7849 209.871Z" fill="#A7D4B7"/>
<path d="M55.6572 81.7897C52.1001 81.9219 49.0898 82.2645 45.9894 82.9856C42.895 83.7308 39.6925 84.8245 35.877 86.8858C34.8496 87.4507 33.3114 88.3221 31.4788 89.5721C29.6582 90.8341 27.5131 92.4446 25.4762 94.8064C24.9775 95.4073 24.4788 96.0503 24.0282 96.7955C23.5715 97.5227 23.1569 98.346 22.8565 99.2835C22.5561 100.215 22.3698 101.285 22.4599 102.414C22.5441 103.538 22.9346 104.692 23.5295 105.624C24.1243 106.567 24.8694 107.312 25.6385 107.931C26.4136 108.562 27.2247 109.007 28.0359 109.44C29.6642 110.239 31.3045 110.768 32.9208 111.182C36.1534 112 39.2839 112.348 42.168 112.577C45.0521 112.781 47.6838 112.841 49.913 112.841C52.1422 112.841 53.9688 112.781 55.2426 112.739C56.5104 112.685 57.2254 112.655 57.2254 112.655C57.2254 112.655 60.0855 112.541 64.4958 112.186C68.9 111.789 74.8485 111.218 81.0613 110.329C82.6176 110.149 84.1798 109.842 85.748 109.596C87.3102 109.325 88.8785 109.103 90.4107 108.791C91.9428 108.484 93.457 108.178 94.9231 107.883C96.3952 107.613 97.8072 107.222 99.1711 106.916C101.893 106.309 104.344 105.587 106.399 105.029C108.448 104.434 110.089 103.881 111.182 103.538C115.202 102.15 118.26 100.768 120.97 99.0731C121.655 98.6705 122.31 98.2258 122.953 97.7691C123.602 97.3184 124.233 96.8496 124.858 96.3328C125.164 96.0804 125.477 95.822 125.795 95.5636C126.095 95.2871 126.408 95.0107 126.72 94.7282C127.333 94.1573 127.946 93.5444 128.523 92.8653C127.718 93.2499 126.937 93.5504 126.162 93.8328C125.777 93.971 125.398 94.1033 125.026 94.2355C124.647 94.3557 124.275 94.4758 123.902 94.596C123.175 94.8484 122.442 95.0648 121.715 95.2811C120.994 95.5095 120.279 95.7378 119.54 95.9482C116.638 96.8676 113.574 97.7871 109.71 99.0912C108.647 99.4097 107.072 99.9385 105.09 100.503C103.095 101.038 100.727 101.735 98.0776 102.324C96.7497 102.619 95.3857 102.997 93.9437 103.262C92.5076 103.55 91.0355 103.845 89.5394 104.145C88.0433 104.452 86.5051 104.668 84.9789 104.932C83.4467 105.173 81.9206 105.473 80.3884 105.654C74.2957 106.531 68.4374 107.102 64.1172 107.499C59.7971 107.847 57.0091 107.967 57.0091 107.967C57.0091 107.967 56.3121 107.997 55.0744 108.045C53.8366 108.087 52.0641 108.136 49.913 108.136C47.7619 108.136 45.2384 108.075 42.5165 107.877C39.8066 107.661 36.8805 107.324 34.0805 106.609C32.6865 106.255 31.3286 105.798 30.1389 105.215C28.9672 104.626 27.9878 103.869 27.5312 103.13C27.2968 102.763 27.1887 102.408 27.1586 102.024C27.1286 101.639 27.1887 101.195 27.3449 100.726C27.4951 100.251 27.7294 99.7582 28.0419 99.2715C28.3363 98.7847 28.7028 98.3099 29.0754 97.8532C30.6376 96.0323 32.5183 94.572 34.1406 93.4542C35.7749 92.3304 37.1869 91.5191 38.1302 90.9903C41.6332 89.0552 44.4813 87.643 47.1731 86.2067C49.877 84.7885 52.4546 83.3702 55.6452 81.7837L55.6572 81.7897Z" fill="#E73B1B"/>
<path d="M30.9379 112.072C32.6924 114.848 33.798 116.693 36.1474 119.644C36.7783 120.449 38.028 122.066 39.44 124.121C40.8521 126.176 42.4083 128.676 43.7302 131.152C45.0701 133.622 46.1696 136.068 46.8846 137.901C47.2632 138.814 47.5276 139.577 47.7138 140.112C47.9001 140.647 48.0082 140.942 48.0082 140.942C48.0082 140.942 48.1164 141.242 48.2726 141.783C48.4228 142.324 48.7052 143.087 48.9336 144.043C49.4683 145.936 50.0031 148.55 50.3155 151.314C51.0486 156.861 50.1533 162.918 49.6546 164.86C49.6125 165.088 49.5705 165.31 49.5284 165.527C49.4743 165.743 49.4263 165.947 49.3782 166.152C49.2821 166.56 49.1979 166.951 49.1198 167.33C48.9876 168.093 48.8074 168.784 48.6812 169.475C48.4529 170.869 48.1645 172.179 47.9001 173.808C48.8494 172.486 49.6846 171.35 50.3035 170.028C50.628 169.373 50.9645 168.694 51.2048 167.918C51.337 167.534 51.4632 167.131 51.5954 166.705C51.6614 166.494 51.7215 166.272 51.7876 166.049C51.8357 165.821 51.8898 165.587 51.9378 165.346C52.04 164.824 52.2202 164.042 52.3885 163.069C52.4546 162.576 52.5267 162.041 52.6048 161.464C52.6408 161.176 52.6829 160.875 52.725 160.569C52.749 160.262 52.773 159.944 52.7971 159.619C53.0374 157.029 52.9953 153.952 52.6529 151.044C52.3224 148.135 51.7576 145.395 51.1928 143.418C50.9464 142.42 50.658 141.627 50.4958 141.056C50.3275 140.491 50.2134 140.178 50.2134 140.178C50.2134 140.178 50.1052 139.866 49.9069 139.313C49.7147 138.76 49.4383 137.961 49.0477 137.011C48.3027 135.1 47.167 132.564 45.7851 130.016C44.4151 127.456 42.8169 124.878 41.3628 122.769C39.9087 120.653 38.6169 118.995 37.9619 118.171C35.5165 115.161 33.7199 113.76 30.9199 112.048L30.9379 112.072Z" fill="#E73B1B"/>
<path d="M127.586 97.7991C127.616 100.137 127.447 102.084 127.369 104.127C127.279 106.17 127.207 108.316 127.123 111.056C127.081 112.54 126.961 115.509 126.558 119.115C126.168 122.715 125.483 126.945 124.569 130.93C123.656 134.914 122.544 138.664 121.607 141.386C121.156 142.756 120.712 143.856 120.435 144.631C120.291 145.016 120.183 145.323 120.105 145.527C120.021 145.731 119.979 145.839 119.979 145.839C119.979 145.839 119.798 146.266 119.486 147.029C119.162 147.786 118.747 148.898 118.128 150.202C117.828 150.857 117.503 151.572 117.155 152.33C116.812 153.093 116.386 153.868 115.977 154.697C115.172 156.362 114.162 158.087 113.171 159.878C112.654 160.755 112.102 161.632 111.561 162.516C111.29 162.955 111.02 163.393 110.75 163.832C110.461 164.259 110.179 164.685 109.89 165.106C109.32 165.947 108.767 166.783 108.214 167.582C107.637 168.369 107.072 169.126 106.538 169.859C105.492 171.338 104.405 172.588 103.551 173.676C102.704 174.769 101.947 175.593 101.46 176.151C97.8733 180.304 95.8904 182.708 93.0364 186.446C96.8999 183.808 99.5316 181.909 103.221 177.69C103.726 177.119 104.495 176.284 105.366 175.172C106.243 174.06 107.349 172.792 108.424 171.278C108.977 170.533 109.548 169.751 110.143 168.952C110.714 168.135 111.272 167.281 111.861 166.416C112.15 165.983 112.444 165.551 112.738 165.112C113.015 164.667 113.291 164.217 113.568 163.766C114.114 162.864 114.679 161.969 115.214 161.068C116.223 159.241 117.257 157.474 118.08 155.767C118.501 154.92 118.933 154.127 119.282 153.345C119.636 152.57 119.973 151.837 120.279 151.17C120.91 149.842 121.331 148.7 121.667 147.925C121.986 147.143 122.172 146.705 122.172 146.705C122.172 146.705 122.214 146.597 122.304 146.386C122.382 146.176 122.496 145.869 122.641 145.473C122.923 144.68 123.38 143.556 123.842 142.155C124.804 139.373 125.945 135.539 126.883 131.465C127.826 127.39 128.523 123.069 128.919 119.379C129.328 115.695 129.448 112.649 129.478 111.134C129.544 108.328 129.406 106.122 129.106 104.055C128.793 101.994 128.379 100.041 127.61 97.8111L127.586 97.7991Z" fill="#E73B1B"/>
<path d="M60.0554 120.906C60.476 122.252 60.9447 123.382 61.5696 124.475C62.1825 125.581 62.9516 126.669 64.0451 127.955C64.3516 128.297 64.8082 128.808 65.373 129.439C65.9558 130.058 66.6709 130.773 67.446 131.573C68.2451 132.348 69.1404 133.159 70.0477 134.013C70.997 134.818 71.9644 135.659 72.9318 136.458C73.9172 137.228 74.8846 137.979 75.7798 138.67C76.6991 139.325 77.5463 139.926 78.2674 140.437C78.6279 140.689 78.9523 140.924 79.2468 141.128C79.5472 141.32 79.8056 141.488 80.0159 141.621C80.4425 141.891 80.6768 142.047 80.6768 142.047C80.6768 142.047 81.6322 142.66 83.1163 143.616C83.8794 144.061 84.7746 144.577 85.748 145.148C86.2347 145.431 86.7454 145.725 87.2682 146.026C87.8029 146.302 88.3497 146.591 88.9025 146.879C93.2948 149.271 98.3359 151.35 100.018 152.011C100.793 152.324 101.484 152.6 102.151 152.804C102.818 153.003 103.437 153.165 104.044 153.303C105.264 153.58 106.435 153.772 107.829 153.97C106.616 153.231 105.594 152.63 104.489 152.077C103.936 151.801 103.365 151.53 102.734 151.266C102.109 150.99 101.442 150.677 100.679 150.365C99.0269 149.691 94.0578 147.648 89.7377 145.298C89.1909 145.016 88.6562 144.734 88.1274 144.463C87.6167 144.169 87.112 143.88 86.6313 143.604C85.6699 143.045 84.7866 142.534 84.0416 142.101C82.5815 141.17 81.6442 140.569 81.6442 140.569C81.6442 140.569 81.4098 140.419 80.9952 140.148C80.7849 140.016 80.5326 139.848 80.2442 139.662C79.9618 139.463 79.6373 139.235 79.2888 138.982C78.5858 138.484 77.7566 137.889 76.8494 137.252C75.9781 136.573 75.0288 135.833 74.0614 135.082C73.1301 134.289 72.1747 133.478 71.2434 132.69C70.3541 131.861 69.4829 131.062 68.7018 130.311C67.9447 129.535 67.2477 128.838 66.6769 128.237C66.1241 127.624 65.6795 127.132 65.385 126.801C64.3155 125.569 63.4503 124.626 62.6211 123.724C61.7739 122.835 60.9748 121.999 60.0494 120.924L60.0554 120.906Z" fill="#00964F"/>
<path d="M72.8777 115.539C73.2983 116.885 73.767 118.015 74.3919 119.109C75.0047 120.215 75.7738 121.302 76.8674 122.588C77.1738 122.931 77.6305 123.442 78.1953 124.073C78.7781 124.692 79.4931 125.407 80.2682 126.206C81.0674 126.981 81.9626 127.793 82.8699 128.646C83.8193 129.451 84.7867 130.293 85.754 131.092C86.7394 131.861 87.7068 132.612 88.6021 133.303C89.5214 133.958 90.3686 134.559 91.0896 135.07C91.4501 135.323 91.7746 135.557 92.069 135.761C92.3695 135.954 92.6278 136.122 92.8381 136.254C93.2647 136.525 93.4991 136.681 93.4991 136.681C93.4991 136.681 94.4544 137.294 95.9385 138.249C96.7016 138.694 97.5969 139.211 98.5703 139.782C99.057 140.064 99.5677 140.359 100.09 140.659C100.625 140.936 101.172 141.224 101.725 141.512C106.117 143.904 111.158 145.984 112.841 146.651C113.616 146.963 114.307 147.24 114.974 147.444C115.641 147.642 116.259 147.804 116.866 147.943C118.086 148.219 119.258 148.411 120.652 148.61C119.438 147.871 118.417 147.27 117.311 146.717C116.758 146.44 116.187 146.17 115.556 145.905C114.932 145.629 114.265 145.316 113.502 145.004C111.849 144.331 106.88 142.288 102.56 139.938C102.013 139.655 101.478 139.373 100.95 139.103C100.439 138.808 99.9342 138.52 99.4535 138.243C98.4922 137.684 97.6089 137.174 96.8639 136.741C95.4098 135.809 94.4664 135.208 94.4664 135.208C94.4664 135.208 94.2321 135.058 93.8175 134.788C93.6072 134.656 93.3549 134.487 93.0665 134.301C92.7841 134.103 92.4596 133.874 92.1111 133.622C91.4081 133.123 90.5789 132.528 89.6716 131.891C88.8004 131.212 87.851 130.473 86.8836 129.722C85.9523 128.928 84.997 128.117 84.0656 127.33C83.1764 126.501 82.3051 125.701 81.524 124.95C80.7669 124.175 80.07 123.478 79.4991 122.877C78.9464 122.264 78.5017 121.771 78.2073 121.441C77.1378 120.209 76.2725 119.265 75.4434 118.364C74.5962 117.474 73.797 116.639 72.8717 115.563L72.8777 115.539Z" fill="#00964F"/>
<path d="M58.8058 133.003C58.6315 134.403 58.7577 135.629 59.0461 136.879C59.3706 138.117 59.8993 139.367 60.7826 140.821C61.2813 141.597 62.2967 143.135 63.7388 144.824C65.1748 146.524 67.0194 148.375 68.8941 150.022C70.7628 151.675 72.6555 153.105 74.0855 154.126C74.7945 154.637 75.3894 155.046 75.81 155.322C76.2245 155.599 76.4589 155.761 76.4589 155.761C76.4589 155.761 77.4022 156.386 78.8923 157.3C80.3885 158.207 82.4614 159.367 84.6966 160.461C86.9258 161.554 89.3232 162.57 91.4082 163.309C92.4416 163.688 93.403 163.988 94.2081 164.247C95.0193 164.481 95.6682 164.667 96.1068 164.793C99.3455 165.617 101.31 165.659 104.104 165.394C103.437 165.172 102.824 164.968 102.242 164.787C101.659 164.583 101.094 164.391 100.511 164.216C99.3515 163.844 98.1377 163.495 96.5695 163.075C96.1489 162.948 95.518 162.768 94.7309 162.54C93.9558 162.287 93.0245 161.999 92.015 161.626C89.9961 160.911 87.6588 159.92 85.4837 158.856C83.3026 157.792 81.2837 156.662 79.8177 155.779C78.3576 154.89 77.4383 154.283 77.4383 154.283C77.4383 154.283 77.2099 154.126 76.8014 153.856C76.3928 153.592 75.816 153.189 75.125 152.69C73.737 151.693 71.8924 150.298 70.0838 148.694C68.2692 147.095 66.4847 145.304 65.1087 143.682C63.7207 142.065 62.7654 140.617 62.2907 139.896C61.4555 138.544 60.8366 137.474 60.2658 136.434C59.7311 135.383 59.2023 134.379 58.8058 133.027V133.003Z" fill="#00964F"/>
<path d="M57.3577 149.367C58.0547 151.747 58.6315 153.351 60.2298 155.803C60.4341 156.14 60.7886 156.62 61.2032 157.233C61.6238 157.84 62.1225 158.568 62.7173 159.331C63.2941 160.106 63.931 160.953 64.628 161.783C64.9705 162.203 65.319 162.63 65.6675 163.057C66.034 163.471 66.4006 163.88 66.7671 164.289C67.1336 164.697 67.4941 165.1 67.8426 165.491C68.2091 165.869 68.5697 166.236 68.9181 166.59C69.6091 167.299 70.24 167.948 70.8168 168.459C71.3817 168.982 71.8503 169.415 72.1748 169.715C72.4992 170.016 72.6855 170.178 72.6855 170.178C72.6855 170.178 73.4486 170.815 74.6383 171.807C75.2151 172.317 75.9662 172.834 76.7593 173.429C77.1559 173.724 77.5705 174.03 77.9971 174.343C78.4297 174.643 78.8923 174.932 79.349 175.232C80.2683 175.827 81.1936 176.464 82.161 176.975C83.1164 177.498 84.0176 178.063 84.9009 178.477C86.6554 179.313 88.0854 180.028 88.8425 180.28C89.5275 180.55 90.1464 180.767 90.7232 180.953C91.0116 181.043 91.294 181.133 91.5644 181.206C91.8408 181.278 92.1172 181.32 92.3876 181.368C93.4751 181.554 94.5146 181.65 95.7463 181.74C94.6708 181.103 93.7755 180.593 92.8081 180.13C92.5618 180.016 92.3154 179.901 92.0691 179.787C91.8227 179.661 91.5644 179.529 91.3 179.403C90.7652 179.15 90.1824 178.892 89.5215 178.627C88.7884 178.381 87.4125 177.678 85.706 176.873C84.8528 176.47 83.9816 175.923 83.0563 175.418C82.1189 174.926 81.2237 174.307 80.3284 173.73C79.8837 173.435 79.4391 173.159 79.0185 172.87C78.6039 172.564 78.2014 172.269 77.8168 171.981C77.0477 171.404 76.3207 170.905 75.7559 170.406C74.6022 169.451 73.8572 168.832 73.8572 168.832C73.8572 168.832 73.6709 168.676 73.3585 168.381C73.046 168.087 72.5894 167.666 72.0426 167.161C71.4778 166.662 70.8649 166.025 70.198 165.334C69.8615 164.992 69.513 164.631 69.1525 164.265C68.81 163.88 68.4615 163.489 68.107 163.093C67.7525 162.696 67.398 162.293 67.0375 161.891C66.695 161.476 66.3585 161.056 66.022 160.647C65.3371 159.836 64.7182 159.012 64.1534 158.255C63.5765 157.51 63.0838 156.801 62.6693 156.206C62.2607 155.611 61.9122 155.142 61.7079 154.812C60.1156 152.432 59.0401 151.188 57.3517 149.361L57.3577 149.367Z" fill="#00964F"/>
<path d="M103.281 126.567C102.356 127.642 101.557 128.478 100.709 129.367C99.8801 130.263 99.0149 131.206 97.9454 132.444C97.651 132.775 97.2063 133.267 96.6536 133.88C96.0887 134.481 95.3857 135.172 94.6287 135.954C93.8476 136.705 92.9763 137.504 92.087 138.333C91.1557 139.121 90.2004 139.932 89.269 140.725C88.3017 141.476 87.3583 142.216 86.4811 142.895C85.5798 143.538 84.7506 144.127 84.0416 144.625C83.6871 144.878 83.3686 145.106 83.0862 145.305C82.7918 145.491 82.5395 145.659 82.3352 145.791C81.9206 146.062 81.6862 146.212 81.6862 146.212C81.6862 146.212 80.7489 146.813 79.2888 147.744C78.5378 148.177 77.6605 148.688 76.6991 149.247C76.2185 149.523 75.7198 149.812 75.203 150.106C74.6803 150.383 74.1395 150.659 73.5927 150.941C69.2726 153.291 64.3035 155.34 62.6512 156.008C61.8881 156.32 61.2211 156.639 60.5962 156.909C59.9653 157.179 59.3945 157.444 58.8417 157.72C57.7362 158.273 56.7207 158.874 55.501 159.613C56.895 159.415 58.0726 159.223 59.2864 158.946C59.8932 158.808 60.5181 158.646 61.1791 158.447C61.84 158.243 62.531 157.967 63.3121 157.654C64.9945 156.987 70.0357 154.908 74.4279 152.516C74.9807 152.228 75.5275 151.939 76.0622 151.663C76.585 151.362 77.0897 151.068 77.5824 150.785C78.5558 150.22 79.4571 149.697 80.2142 149.253C81.6983 148.303 82.6536 147.684 82.6536 147.684C82.6536 147.684 82.894 147.528 83.3146 147.258C83.5249 147.119 83.7832 146.957 84.0837 146.765C84.3721 146.561 84.7025 146.326 85.063 146.074C85.7841 145.563 86.6253 144.962 87.5506 144.307C88.4459 143.616 89.4072 142.865 90.3986 142.095C91.366 141.296 92.3334 140.455 93.2828 139.65C94.1961 138.796 95.0913 137.985 95.8845 137.21C96.6596 136.41 97.3806 135.695 97.9574 135.076C98.5222 134.439 98.9789 133.928 99.2853 133.592C100.379 132.306 101.154 131.224 101.761 130.112C102.386 129.019 102.848 127.889 103.275 126.543L103.281 126.567Z" fill="#00964F"/>
<path d="M98.8166 110.816C97.8913 111.891 97.0922 112.727 96.245 113.616C95.4158 114.512 94.5506 115.455 93.481 116.693C93.1866 117.024 92.742 117.516 92.1892 118.129C91.6244 118.73 90.9214 119.421 90.1643 120.203C89.3832 120.954 88.512 121.753 87.6227 122.582C86.6914 123.37 85.736 124.181 84.8047 124.974C83.8373 125.725 82.894 126.465 82.0167 127.144C81.1154 127.787 80.2862 128.376 79.5772 128.874C79.2227 129.127 78.9043 129.355 78.6219 129.554C78.3275 129.74 78.0751 129.908 77.8708 130.04C77.4562 130.311 77.2219 130.461 77.2219 130.461C77.2219 130.461 76.2846 131.062 74.8245 131.993C74.0734 132.426 73.1962 132.937 72.2348 133.496C71.7541 133.772 71.2554 134.061 70.7387 134.355C70.2159 134.632 69.6752 134.908 69.1284 135.19C64.8082 137.54 59.8392 139.589 58.1868 140.257C57.4237 140.569 56.7568 140.888 56.1319 141.158C55.501 141.428 54.9302 141.693 54.3774 141.969C53.2718 142.522 52.2564 143.123 51.0366 143.862C52.4306 143.664 53.6083 143.472 54.822 143.195C55.4289 143.057 56.0538 142.895 56.7147 142.696C57.3756 142.492 58.0666 142.216 58.8477 141.903C60.5301 141.236 65.5713 139.157 69.9636 136.771C70.5163 136.483 71.0631 136.194 71.5979 135.918C72.1206 135.617 72.6253 135.323 73.1181 135.04C74.0914 134.475 74.9927 133.952 75.7498 133.508C77.2339 132.558 78.1893 131.939 78.1893 131.939C78.1893 131.939 78.4296 131.783 78.8502 131.513C79.0605 131.374 79.3189 131.212 79.6193 131.02C79.9077 130.816 80.2382 130.581 80.5987 130.329C81.3197 129.818 82.1609 129.217 83.0862 128.562C83.9815 127.871 84.9429 127.12 85.9343 126.35C86.9017 125.551 87.869 124.71 88.8184 123.905C89.7317 123.051 90.627 122.24 91.4201 121.465C92.1952 120.665 92.9162 119.95 93.493 119.331C94.0579 118.694 94.5145 118.183 94.8209 117.847C95.9145 116.561 96.6896 115.479 97.2965 114.367C97.9214 113.274 98.384 112.144 98.8106 110.798L98.8166 110.816Z" fill="#00964F"/>
<path d="M94.2622 98.9649C93.3369 100.041 92.5377 100.876 91.6905 101.765C90.8613 102.661 89.9961 103.604 88.9266 104.842C88.6322 105.173 88.1875 105.666 87.6348 106.279C87.0699 106.879 86.3669 107.571 85.6099 108.352C84.8288 109.103 83.9575 109.902 83.0683 110.732C82.1369 111.519 81.1816 112.33 80.2502 113.123C79.2829 113.875 78.3395 114.614 77.4623 115.293C76.561 115.936 75.7318 116.525 75.0228 117.024C74.6683 117.276 74.3498 117.504 74.0674 117.703C73.773 117.889 73.5207 118.057 73.3164 118.189C72.9018 118.46 72.6674 118.61 72.6674 118.61C72.6674 118.61 71.7301 119.211 70.27 120.143C69.519 120.575 68.6417 121.086 67.6803 121.645C67.1997 121.921 66.701 122.21 66.1842 122.504C65.6615 122.781 65.1207 123.057 64.5739 123.34C60.2538 125.689 55.2847 127.739 53.6324 128.406C52.8693 128.718 52.2023 129.037 51.5774 129.307C50.9465 129.578 50.3757 129.842 49.8229 130.118C48.7174 130.671 47.7019 131.272 46.4822 132.011C47.8762 131.813 49.0538 131.621 50.2676 131.344C50.8744 131.206 51.4993 131.044 52.1603 130.846C52.8212 130.641 53.5122 130.365 54.2933 130.052C55.9757 129.385 61.0169 127.306 65.4091 124.92C65.9619 124.632 66.5087 124.343 67.0434 124.067C67.5662 123.766 68.0709 123.472 68.5636 123.189C69.537 122.624 70.4383 122.102 71.1954 121.657C72.6795 120.707 73.6348 120.088 73.6348 120.088C73.6348 120.088 73.8752 119.932 74.2958 119.662C74.5061 119.524 74.7644 119.361 75.0649 119.169C75.3533 118.965 75.6837 118.73 76.0443 118.478C76.7653 117.967 77.6065 117.366 78.5318 116.711C79.4271 116.02 80.3884 115.269 81.3798 114.5C82.3472 113.7 83.3146 112.859 84.264 112.054C85.1773 111.2 86.0725 110.389 86.8657 109.614C87.6408 108.815 88.3618 108.099 88.9386 107.48C89.5034 106.843 89.9601 106.333 90.2665 105.996C91.3601 104.71 92.1352 103.628 92.742 102.517C93.3669 101.423 93.8296 100.293 94.2562 98.9469L94.2622 98.9649Z" fill="#00964F"/>
<path d="M104.531 138.67C104.14 140.022 103.605 141.026 103.071 142.077C102.5 143.117 101.881 144.187 101.046 145.539C100.571 146.26 99.6158 147.708 98.2278 149.325C96.8518 150.947 95.0733 152.744 93.2527 154.337C91.4442 155.941 89.5935 157.342 88.2115 158.333C87.5206 158.832 86.9437 159.235 86.5352 159.499C86.1266 159.769 85.8983 159.926 85.8983 159.926C85.8983 159.926 84.9789 160.533 83.5189 161.422C82.0588 162.305 80.0339 163.435 77.8528 164.499C75.6777 165.569 73.3404 166.554 71.3215 167.269C70.3181 167.642 69.3868 167.93 68.6056 168.183C67.8245 168.411 67.1876 168.597 66.767 168.718C65.2048 169.138 63.9851 169.487 62.8254 169.859C62.2426 170.034 61.6838 170.22 61.095 170.43C60.5061 170.611 59.8992 170.815 59.2323 171.037C62.0263 171.308 63.9911 171.266 67.2297 170.436C67.6623 170.31 68.3172 170.124 69.1284 169.889C69.9275 169.631 70.8889 169.331 71.9284 168.952C74.0073 168.213 76.4047 167.203 78.6399 166.103C80.8751 165.01 82.9481 163.85 84.4442 162.942C85.9403 162.029 86.8777 161.404 86.8777 161.404C86.8777 161.404 87.112 161.248 87.5266 160.965C87.9472 160.689 88.542 160.28 89.251 159.769C90.6751 158.748 92.5738 157.318 94.4364 155.665C96.3111 154.018 98.1557 152.167 99.5917 150.467C101.04 148.778 102.055 147.24 102.548 146.464C103.431 145.01 103.966 143.76 104.284 142.522C104.573 141.278 104.699 140.046 104.525 138.646L104.531 138.67Z" fill="#00964F"/>
<path d="M105.979 155.034C104.284 156.861 103.215 158.099 101.623 160.485C101.418 160.815 101.07 161.284 100.661 161.879C100.253 162.474 99.76 163.177 99.1772 163.928C98.6124 164.685 97.9935 165.509 97.3085 166.32C96.9721 166.729 96.6356 167.149 96.2931 167.564C95.9386 167.966 95.5781 168.369 95.2236 168.766C94.8691 169.162 94.5206 169.559 94.1781 169.938C93.8176 170.304 93.4691 170.665 93.1326 171.007C92.4596 171.698 91.8468 172.335 91.288 172.834C90.7352 173.345 90.2845 173.766 89.9721 174.054C89.6596 174.349 89.4734 174.505 89.4734 174.505C89.4734 174.505 88.7283 175.124 87.5747 176.079C87.0099 176.578 86.2828 177.077 85.5137 177.654C85.1292 177.942 84.7266 178.237 84.312 178.543C83.8914 178.832 83.4408 179.114 83.0022 179.403C82.1069 179.98 81.2116 180.599 80.2743 181.091C79.349 181.596 78.4777 182.143 77.6245 182.546C75.9241 183.351 74.5421 184.054 73.8091 184.3C73.1481 184.565 72.5653 184.817 72.0306 185.076C71.7602 185.202 71.5078 185.328 71.2615 185.46C71.0151 185.574 70.7688 185.689 70.5224 185.803C69.555 186.266 68.6658 186.776 67.5842 187.413C68.816 187.323 69.8555 187.227 70.943 187.041C71.2134 186.993 71.4898 186.951 71.7662 186.878C72.0426 186.8 72.319 186.716 72.6074 186.626C73.1842 186.44 73.8031 186.217 74.4881 185.953C75.2451 185.701 76.6752 184.985 78.4297 184.15C79.3069 183.736 80.2082 183.171 81.1696 182.648C82.1369 182.137 83.0623 181.5 83.9816 180.905C84.4382 180.605 84.9009 180.316 85.3335 180.016C85.7601 179.703 86.1747 179.397 86.5713 179.102C87.3644 178.507 88.1094 177.99 88.6923 177.48C89.876 176.494 90.6451 175.851 90.6451 175.851C90.6451 175.851 90.8373 175.689 91.1558 175.388C91.4802 175.088 91.9489 174.655 92.5137 174.132C93.0905 173.621 93.7274 172.972 94.4124 172.263C94.7609 171.909 95.1154 171.542 95.4879 171.164C95.8425 170.773 96.197 170.37 96.5635 169.962C96.924 169.553 97.2965 169.138 97.663 168.73C98.0115 168.303 98.36 167.876 98.7025 167.456C99.4055 166.626 100.036 165.779 100.613 165.004C101.208 164.235 101.707 163.513 102.127 162.906C102.548 162.299 102.896 161.819 103.101 161.476C104.705 159.024 105.276 157.42 105.973 155.04L105.979 155.034Z" fill="#00964F"/>
<path d="M162.02 128.98C181.024 109.973 181.024 79.1557 162.02 60.1484C143.015 41.1411 112.204 41.1411 93.1994 60.1484C74.1952 79.1557 74.1952 109.973 93.1994 128.98C112.204 147.987 143.015 147.987 162.02 128.98Z" fill="url(#paint0_linear_2561_2577)"/>
<path d="M127.609 145.269C99.6576 145.269 76.9153 122.522 76.9153 94.566C76.9153 66.6096 99.6576 43.8635 127.609 43.8635C155.561 43.8635 178.304 66.6096 178.304 94.566C178.304 122.522 155.561 145.269 127.609 145.269ZM127.609 47.92C101.893 47.92 80.9711 68.8452 80.9711 94.566C80.9711 120.287 101.893 141.212 127.609 141.212C153.326 141.212 174.248 120.287 174.248 94.566C174.248 68.8452 153.326 47.92 127.609 47.92Z" fill="#00964F"/>
<path d="M151.491 53.9747L99.329 133.006L102.684 135.221L154.846 56.1896L151.491 53.9747Z" fill="#00964F"/>
<path d="M80.863 108.37L80.839 104.349C90.0621 104.289 109.518 101.128 117.149 89.56C124.996 77.6731 121.325 57.9919 117.173 48.3766L120.862 46.7781C125.531 57.5772 129.286 78.4664 120.501 91.7715C111.951 104.728 91.5582 108.304 80.857 108.37H80.863Z" fill="#00964F"/>
<path d="M132.495 142.155L132.41 141.741C130.277 131.495 126.714 114.343 135.198 101.483C143.875 88.34 162.712 83.3581 173.166 81.5613L173.845 85.5276C164.027 87.2163 146.392 91.8196 138.551 103.7C130.986 115.161 134.339 131.29 136.346 140.924L136.43 141.338L132.495 142.155Z" fill="#00964F"/>
<path d="M153.104 54.7766L100.944 133.803L102.434 134.786L154.593 55.7599L153.104 54.7766Z" fill="#AAD5B9"/>
<path d="M81.5359 107.426L81.5239 105.641C90.9513 105.581 110.864 102.306 118.759 90.3472C123.301 83.4663 123.848 74.6563 123.506 68.4725C123.121 61.5375 121.391 53.9234 118.873 48.1001L120.513 47.391C125.086 57.9678 128.781 78.3942 120.249 91.3267C116.542 96.9457 110.203 101.255 101.418 104.133C92.2792 107.126 83.8853 107.408 81.5299 107.426H81.5359Z" fill="#AAD5B9"/>
<path d="M134.267 142.101L134.183 141.687C132.086 131.609 128.577 114.74 136.809 102.27C145.251 89.4759 163.757 84.6021 174.038 82.8353L174.338 84.5961C164.346 86.3149 146.374 91.0263 138.299 103.256C130.476 115.107 133.895 131.519 135.931 141.326L136.016 141.741L134.267 142.107V142.101Z" fill="#AAD5B9"/>
<path d="M211.789 60.6962V66.3752L205.697 60.6962H174.656H150.244L138.797 71.2489V126.651H171.171L178.268 119.548L185.37 126.651H255.688V60.6962H211.789Z" fill="#CCE5D3"/>
<path d="M165.067 111.375V104.602H176.765V114.223L169.068 121.921H143.983V73.9292L152.293 66.2731H176.765V87.2884H165.067V76.8619H155.681V111.381H165.067V111.375Z" fill="#009651"/>
<path d="M213.634 98.7546V121.921H187.545L179.848 114.223V66.2731H203.702L211.591 73.6227V88.9411L206.129 93.328L213.634 98.7546ZM200.049 88.3641V76.8559H191.504V88.3641H200.049ZM201.935 111.375V98.7546H191.51V111.375H201.935Z" fill="#009651"/>
<path d="M216.981 66.2731H250.575V121.921H216.981V66.2731ZM228.679 111.375H238.912V76.8559H228.679V111.375Z" fill="#009651"/>
<path d="M148.039 161.614V167.594H141.303L139.314 165.605V153.231H145.473L147.51 155.13V159.084L146.098 160.214L148.033 161.614H148.039ZM144.536 158.934V155.965H142.33V158.934H144.536ZM145.022 164.872V161.614H142.33V164.872H145.022Z" fill="#E73B1B"/>
<path d="M151.926 167.594H148.91V155.509L151.223 153.237H157.502V167.6H154.492V162.882H151.932V167.6L151.926 167.594ZM154.486 160.142V155.959H151.926V160.142H154.486Z" fill="#E73B1B"/>
<path d="M166.112 167.594H158.217V163.123H161.227V164.872H163.096V162.588L158.319 158.982V153.231H166.028V157.504H163.3V155.977H161.336V157.852L166.124 161.446V167.594H166.112Z" fill="#E73B1B"/>
<path d="M176.056 159.637V167.594H173.046V162.348H170.018V167.594H167.008V153.231H170.018V159.637H170.216L173.034 153.231H176.032L173.28 159.637H176.05H176.056Z" fill="#E73B1B"/>
<path d="M177.06 153.231H184.03V155.959H180.04V158.73H183.832V161.41H180.076V164.866H184.126V167.588H177.054V153.225L177.06 153.231Z" fill="#E73B1B"/>
<path d="M193.373 155.965H190.663V167.594H187.635V155.965H184.823V153.237H193.373V155.965Z" fill="#E73B1B"/>
<path d="M198.42 153.231H204.597L206.91 155.503V165.605L204.898 167.594H198.42V153.231ZM203.888 164.872V155.965H201.425V164.872H203.888Z" fill="#E73B1B"/>
<path d="M207.704 157.546V151.747H210.245V157.546H207.704Z" fill="#E73B1B"/>
<path d="M210.804 153.231H219.474V167.594H210.804V153.231ZM213.82 164.872H216.464V155.965H213.82V164.872Z" fill="#E73B1B"/>
<path d="M225.976 167.594L224.191 162.402H223.398V167.594H220.388V155.256L222.575 153.231H228.721V162.36H227.093L228.998 167.594H225.982H225.976ZM225.705 159.709V155.965H223.392V159.709H225.705Z" fill="#E73B1B"/>
<path d="M238.251 155.965H235.541V167.594H232.513V155.965H229.701V153.237H238.251V155.965Z" fill="#E73B1B"/>
<path d="M242.072 159.132H244.656V153.231H247.666V167.594H244.656V161.855H242.072V167.594H239.062V153.231H242.072V159.132Z" fill="#E73B1B"/>
<path d="M248.538 153.231H255.508V155.959H251.518V158.73H255.309V161.41H251.554V164.866H255.604V167.588H248.532V153.225L248.538 153.231Z" fill="#E73B1B"/>
<path d="M165.475 147.72V145.972H168.492V148.454L166.503 150.437H160.026V138.051L162.171 136.074H168.486V141.494H165.469V138.802H163.048V147.708H165.469L165.475 147.72Z" fill="#E73B1B"/>
<path d="M172.307 150.443H169.291V138.357L171.604 136.08H177.883V150.443H174.873V145.725H172.313V150.443H172.307ZM174.867 142.991V138.808H172.307V142.991H174.867Z" fill="#E73B1B"/>
<path d="M187.298 150.443H178.808V136.08H181.819V147.72H184.282V136.08H187.298V150.443Z" fill="#E73B1B"/>
<path d="M194.136 144.325V136.08H196.978V150.443H193.998L191.06 142.198V150.443H188.242V136.08H191.222L194.142 144.325H194.136Z" fill="#E73B1B"/>
<path d="M197.976 136.08H204.946V138.808H200.956V141.579H204.747V144.259H200.992V147.714H205.042V150.437H197.97V136.074L197.976 136.08Z" fill="#E73B1B"/>
<path d="M210.738 147.72V150.443H205.745V147.72H206.736V138.802H205.745V136.08H210.738V138.802H209.746V147.72H210.738Z" fill="#E73B1B"/>
<path d="M211.621 150.443V136.08H214.631V147.72H218.843V150.443H211.627H211.621Z" fill="#E73B1B"/>
<path d="M219.727 150.443V136.08H222.737V147.72H226.949V150.443H219.733H219.727Z" fill="#E73B1B"/>
<path d="M227.826 136.08H234.796V138.808H230.806V141.579H234.598V144.259H230.842V147.714H234.892V150.437H227.82V136.074L227.826 136.08Z" fill="#E73B1B"/>
<defs>
<linearGradient id="paint0_linear_2561_2577" x1="109.135" y1="42.1178" x2="131.607" y2="105.889" gradientUnits="userSpaceOnUse">
<stop stop-color="white"/>
<stop offset="0.08" stop-color="#FBE2DD"/>
<stop offset="0.2" stop-color="#F6B6AA"/>
<stop offset="0.34" stop-color="#F1907E"/>
<stop offset="0.47" stop-color="#ED715A"/>
<stop offset="0.6" stop-color="#EA593E"/>
<stop offset="0.73" stop-color="#E8482A"/>
<stop offset="0.87" stop-color="#E73E1E"/>
<stop offset="1" stop-color="#E73B1B"/>
</linearGradient>
</defs>
</svg>
