<svg width="256" height="256" viewBox="0 0 256 256" fill="none" xmlns="http://www.w3.org/2000/svg">
<g clip-path="url(#clip0_2702_5739)">
<path d="M128.001 256.003C198.695 256.003 256.003 198.695 256.003 128.001C256.003 57.3082 198.695 0 128.001 0C57.3082 0 0 57.3082 0 128.001C0 198.695 57.3082 256.003 128.001 256.003Z" fill="#282325"/>
<path d="M128.001 251.717C196.328 251.717 251.717 196.328 251.717 128.001C251.717 59.675 196.328 4.2854 128.001 4.2854C59.675 4.2854 4.2854 59.675 4.2854 128.001C4.2854 196.328 59.675 251.717 128.001 251.717Z" fill="white"/>
<path d="M175.626 188.766C155.67 192.52 135.584 192.992 115.245 190.902C115.245 192.009 115.486 192.901 115.804 193.764C117.091 197.254 118.752 200.574 120.473 203.86C120.899 204.669 121.552 205.146 122.6 205.192C129.683 205.49 136.765 205.845 143.845 206.211C144.592 206.251 145.097 206.058 145.509 205.428C146.066 204.576 146.671 203.752 147.409 203.048C147.977 204.076 147.739 205.26 148.395 206.223H171.324C173.246 202.238 176.055 190.905 175.629 188.766H175.626Z" fill="#FFF100"/>
<path d="M127.979 212.678C128.206 213.175 128.541 213.396 129.075 213.393C132.238 213.388 135.405 213.391 138.569 213.393C138.977 213.393 139.344 213.291 139.494 212.885C139.952 211.658 140.42 210.432 140.434 208.909C135.871 208.745 131.369 208.583 126.621 208.412C127.002 210.045 127.388 211.389 127.979 212.678Z" fill="#FFF100"/>
<path d="M165.618 211.88C165.982 211.846 166.254 211.695 166.385 211.354C166.649 210.661 166.976 209.977 166.908 209.009C162.557 209.077 158.257 208.847 153.878 209.159C154.233 210.48 154.583 211.687 155.429 212.862C158.871 212.53 162.245 212.201 165.615 211.88H165.618Z" fill="#FFF100"/>
<path d="M103.385 170.838C103.479 170.239 103.669 169.793 104.158 169.54C108.111 171.088 112.092 172.238 116.443 171.943C116.366 171.639 116.358 171.491 116.293 171.38C116.148 171.139 115.977 170.912 115.804 170.688C113.268 167.416 110.303 164.582 106.836 162.327C102.312 159.385 97.3876 157.846 91.9237 158.388C88.4591 158.729 87.8343 159.504 88.4733 162.909C89.3423 167.527 91.3274 171.682 93.8122 175.629C97.7682 181.914 102.741 187.392 107.586 192.972C107.841 193.265 108.137 193.546 108.545 193.639C108.812 193.015 108.511 192.532 108.412 192.035C108.276 191.362 107.941 190.746 107.867 190.047C107.608 187.647 106.586 185.492 105.606 183.331C104.953 181.885 103.851 180.8 102.443 180.051C102.542 179.75 102.573 179.559 102.664 179.403C102.781 179.21 102.806 178.946 103.289 178.77C106.509 181.081 110.164 181.567 114.282 180.193C110.92 176.498 107.16 173.661 103.391 170.841L103.385 170.838Z" fill="#FFF100"/>
<path d="M206.916 174.521C208.977 169.412 209.616 164.031 209.77 158.573C209.781 158.215 209.895 157.814 209.463 157.406C205.024 158.604 201.801 161.569 198.97 165.048C196.17 168.49 193.935 173.067 194.111 174.856C196.669 174.561 199.183 173.911 202.082 173.681C198.64 178.546 193.696 180.908 188.67 183.666C190.515 183.873 192.063 183.865 193.6 183.788C195.147 183.711 196.687 183.51 198.368 183.351C197.365 184.983 195.721 185.708 194.483 186.863C195.69 186.483 196.823 186.057 197.896 185.444C202.287 182.936 205.067 179.096 206.916 174.519V174.521Z" fill="#FFF100"/>
<path d="M168.85 110.962C168.685 110.32 168.501 109.718 167.72 109.491C165.823 108.937 163.934 108.398 161.921 108.588C161.628 108.617 161.276 108.776 160.961 108.296C163.04 107.733 165.076 107.873 167.265 108.264C166.956 107.586 166.757 107.163 166.573 106.734C165.749 104.811 165.53 102.812 165.871 100.759C166.056 99.6397 166.325 98.5379 166.541 97.4246C167.001 95.0533 167.402 92.6764 167.192 90.2454C166.999 88.0161 166.431 85.8948 165.38 84.0119C164.781 83.7904 164.286 83.8699 163.855 83.9977C162.932 84.2704 162.358 83.9267 161.81 83.2082C160.998 82.1461 159.927 81.3652 158.754 80.7205C155.196 78.7639 151.374 77.8665 147.33 77.8665C145.146 77.8665 143.178 78.2498 141.539 79.9765C140.156 81.4333 137.915 81.3226 136.504 80.1071C134.897 78.7213 133.034 77.946 130.895 77.9034C128.195 77.8523 125.886 78.8774 123.773 80.4848C120.91 82.6602 117.951 84.7134 114.762 86.3633C113.251 87.1471 112.487 88.2377 112.129 89.774C111.002 94.5876 111.334 99.2535 113.541 103.729C114.413 105.498 115.483 107.188 115.577 109.352C118.252 108.69 120.8 108.406 123.279 109.642C121.879 109.477 120.481 109.349 119.059 109.469C116.344 109.699 114.521 110.866 113.387 113.544C111.618 117.73 113.927 124.605 118.153 126.53C119.445 127.118 120.72 127.735 122.069 128.178C127.959 130.123 134.039 130.944 140.21 131.02C146.182 131.094 151.967 129.958 157.508 127.718C160.501 126.505 163.287 124.917 165.621 122.628C168.95 119.363 170.017 115.469 168.856 110.959L168.85 110.962ZM138.018 86.2128C137.45 87.3545 136.873 88.4932 136.277 89.6207C135.97 90.2028 135.936 90.7169 136.229 91.353C138.344 95.9536 138.404 100.662 136.842 105.43C136.726 105.791 136.689 106.152 136.64 106.524C136.41 108.281 135.416 109.574 133.894 110.42C132.991 110.92 132.011 110.999 131.037 110.494C130.489 110.21 129.907 109.968 129.515 109.48C128.496 108.21 127.218 107.407 125.588 107.194C125.36 107.165 125.125 107.089 125.031 106.827C125.527 106.574 126.223 106.465 127.118 106.501C125.482 105.507 124.071 104.644 122.393 103.624C123.852 103.414 124.764 104.024 125.744 104.337C125.508 103.332 124.79 102.639 124.151 101.897C123.631 101.293 123.074 100.716 122.364 99.9436C123.733 100.259 124.471 101.122 125.329 101.781C125.809 102.15 126.246 102.576 126.701 102.977C127.013 103.422 127.328 103.871 127.649 104.328C127.791 103.826 127.592 103.4 127.433 102.968C127.539 102.25 127.306 101.559 127.257 100.855C127.019 97.3536 127.385 93.96 129.135 90.8361C129.427 90.3136 129.444 89.8961 129.152 89.3906C128.652 88.533 128.189 87.6555 127.715 86.7808C127.561 86.4997 127.328 86.2213 127.681 85.7613C128.422 87.0477 129.135 88.2888 129.847 89.527C129.958 89.49 130.072 89.4531 130.182 89.4162C130.199 87.6924 129.149 86.1504 129.098 84.4237C130.109 85.6704 130.009 87.3687 130.799 88.6892C131.35 88.6977 131.756 88.4705 132.275 88.2064V83.3133C132.559 82.9413 132.718 83.1799 132.937 83.1316C132.699 84.8383 132.852 86.4997 132.815 88.0502C133.196 88.5671 133.61 88.5415 134.07 88.5358C134.422 87.7606 134.278 86.92 134.55 86.1731C134.783 85.5341 134.34 84.6963 135.218 84.0261C135.189 85.855 134.777 87.4482 134.655 89.0811C134.846 89.3992 135.061 89.7002 135.493 89.7797C136.569 88.3598 137.024 86.582 138.137 85.1081C138.452 85.5909 138.162 85.8976 138.009 86.2043L138.018 86.2128ZM159.887 102.982C159.405 103.672 157.684 104.842 155.736 105.788C156.281 106.248 157.133 105.728 157.511 106.41C157.476 106.478 157.451 106.606 157.403 106.614C155.523 106.958 154.094 107.983 152.737 109.312C151.075 110.94 148.9 110.735 147.358 109.003C146.634 108.191 146.009 107.287 146.012 106.12C146.012 105.629 145.779 105.209 145.643 104.76C144.237 100.179 144.305 95.6611 146.222 91.2252C146.583 90.3903 146.6 89.6178 146.125 88.7971C145.56 87.8174 145.083 86.7865 144.586 85.767C144.453 85.4915 144.163 85.2274 144.51 84.685C145.364 86.2781 146.171 87.7804 146.989 89.3054C147.744 89.2316 148.005 88.8255 147.909 88.1496C147.781 87.2607 147.653 86.3719 147.5 85.4887C147.406 84.9349 147.293 84.3896 147.531 83.5377C148.122 85.0456 147.963 86.4429 148.42 87.7236C148.778 87.9963 149.17 88.0019 149.644 87.8117C150.158 86.1475 149.553 84.3669 150.079 82.6829C150.382 84.3556 150.079 86.0595 150.363 87.7322C150.703 88.0985 151.141 88.2377 151.709 88.2632C152.512 86.9739 152.595 85.3722 153.387 84.046C153.549 85.8096 152.322 87.3175 152.379 89.331C153.56 88.0417 154.043 86.5849 155.04 85.4887C154.909 86.5082 154.301 87.2863 153.89 88.1553C153.606 88.7517 153.171 89.2799 153.043 89.9416C153.259 90.1205 153.467 90.3761 153.532 90.5039C154.015 91.4723 154.534 92.4435 154.733 93.5084C155.207 96.0331 155.719 98.5577 155.091 101.153C155 101.588 154.71 103.076 154.5 103.979C154.534 103.965 154.568 103.951 154.605 103.939C155.71 103.164 156.423 101.983 157.474 101.151C157.803 100.889 158.078 100.546 158.433 100.327C158.953 100.009 159.462 99.6482 160.424 99.4211C158.862 100.739 157.812 102.105 156.71 103.607C157.911 103.834 158.786 102.718 159.89 102.988L159.887 102.982Z" fill="#FFF100"/>
<path d="M162.778 145.918C165.334 147.96 167.691 150.147 169.895 152.703C170.46 150.982 170.807 149.389 171.599 147.679C168.458 147.31 165.641 146.594 162.781 145.918H162.778Z" fill="#FFF100"/>
<path d="M169.932 160.989C170.154 160.592 170.08 160.257 170.012 159.941C169.739 158.683 169.679 157.408 169.728 156.136C169.759 155.327 169.498 154.682 169.012 154.057C167.385 151.959 165.493 150.118 163.429 148.468C162.182 147.472 160.916 146.483 159.442 145.81C159.101 146.296 159.067 146.824 159.041 147.332C158.919 149.653 159.061 151.95 159.748 154.194C161.157 158.789 164.999 161.378 169.935 160.992L169.932 160.989Z" fill="#FFF100"/>
<path d="M138.995 146.492C141.488 148.366 145.035 148.326 147.301 146.495C149.394 144.799 150.811 142.618 152.015 140.256C152.35 139.6 152.396 139.04 151.961 138.415C151.362 137.558 151.061 136.558 150.669 135.598C150.104 134.209 149.894 132.719 149.394 131.128C145.18 132.125 140.948 132.037 136.538 131.92C136.368 134.851 135.874 137.526 134.65 140.02C134.439 140.449 134.621 140.843 134.811 141.232C135.822 143.291 137.152 145.1 138.995 146.486V146.492Z" fill="#FFF100"/>
<path d="M105.859 158.914C105.805 159.655 106.078 160.115 106.745 160.507C108.787 161.705 110.621 163.19 112.388 164.767C112.646 164.997 112.851 165.394 113.424 165.332C114.14 162.941 115.444 160.779 116.65 158.573C117.872 156.338 119.53 154.381 120.899 152.206C116.04 154.012 111.096 155.054 105.967 155.335C105.649 156.565 105.944 157.746 105.859 158.914Z" fill="#FFF100"/>
<path d="M117.258 162.745C119.152 162.753 120.956 162.415 122.765 161.768C124.812 161.035 126.442 159.888 127.61 158.096C129.859 154.645 129.62 150.882 128.959 146.748C123.588 151.297 119.152 156.216 116.369 162.407C116.682 162.827 116.986 162.742 117.255 162.742L117.258 162.745Z" fill="#FFF100"/>
<path d="M152.083 169.989C150.229 168.027 148.551 166.09 147.684 163.591C147.551 163.202 147.537 162.75 147.562 162.333C147.656 160.703 149.161 159.853 150.61 160.623C151.104 160.884 151.535 161.265 152.069 161.643C152.535 161.336 153.021 160.989 153.532 160.688C154.222 160.285 154.946 160.157 155.667 160.617C156.457 161.123 156.815 161.864 156.693 162.787C156.624 163.295 156.514 163.821 156.298 164.278C155.295 166.422 153.875 168.265 152.083 169.989ZM152.095 168.907C153.537 167.356 154.761 165.831 155.576 164.014C155.747 163.633 155.838 163.207 155.906 162.793C156.002 162.196 155.849 161.651 155.315 161.305C154.77 160.95 154.213 161.077 153.731 161.435C153.174 161.85 152.663 162.321 152.109 162.787C151.459 162.341 151.036 161.685 150.357 161.339C149.252 160.771 148.21 161.415 148.267 162.659C148.278 162.935 148.352 163.219 148.446 163.48C149.19 165.559 150.567 167.2 152.092 168.904L152.095 168.907Z" fill="#282325"/>
<path d="M134.064 183.405V177.549C135.144 177.282 136.311 177.33 137.452 177.461C138.426 177.574 138.85 178.369 138.588 179.335C138.517 179.599 138.384 179.846 138.259 180.15C138.384 180.283 138.526 180.403 138.631 180.548C139.557 181.803 139.037 183.101 137.504 183.359C137.274 183.399 137.035 183.402 136.799 183.402C135.959 183.407 135.118 183.402 134.064 183.402V183.405ZM135.47 182.382C136.007 182.47 136.558 182.422 137.106 182.34C137.532 182.277 137.756 182.016 137.756 181.576C137.756 181.124 137.518 180.88 137.089 180.843C136.501 180.789 135.902 180.69 135.357 180.945C135.198 181.468 135.198 181.914 135.47 182.382ZM135.391 179.755C135.933 179.821 136.436 179.821 136.944 179.696C137.256 179.619 137.441 179.44 137.455 179.128C137.469 178.753 137.274 178.469 136.907 178.44C136.365 178.401 135.802 178.321 135.226 178.585C135.198 178.954 135.058 179.307 135.391 179.758V179.755Z" fill="#282325"/>
<path d="M130.276 180.102C130.364 181.204 129.64 180.962 129.137 181.016C128.581 181.076 128.01 180.999 127.504 181.167C127.218 181.681 127.252 182.118 127.564 182.623C128.501 182.777 129.481 182.504 130.446 182.584C130.685 182.851 130.858 183.12 130.532 183.612H126.144V177.705H130.29C130.509 177.946 130.486 178.207 130.285 178.545C129.384 178.824 128.376 178.582 127.428 178.778C127.112 179.122 127.158 179.468 127.379 179.917C128.274 180.198 129.288 179.747 130.276 180.105V180.102Z" fill="#282325"/>
<path d="M159.081 177.566C159.044 178.043 159.01 178.227 159.021 178.412C159.03 178.545 159.098 178.676 159.149 178.844C160.072 179.054 161.023 178.71 161.983 178.974C162.21 179.528 162.134 179.874 161.452 179.92C160.711 179.968 159.956 179.894 159.24 180.082C159.001 180.621 159.058 181.056 159.345 181.53C160.126 181.53 160.915 181.524 161.708 181.53C162.293 181.536 162.293 181.541 162.483 182.419C161.046 182.675 159.601 182.587 157.962 182.697V176.68C159.282 176.538 160.674 176.521 162.1 176.572C162.381 177.199 162.205 177.534 161.574 177.557C160.782 177.588 159.987 177.566 159.087 177.566H159.081Z" fill="#282325"/>
<path d="M150.49 178.418C149.885 178.867 149.516 178.648 149.059 178.279C148.281 177.651 147.912 177.753 147.244 178.608C147.756 179.281 148.59 179.176 149.272 179.42C150.343 179.807 150.752 180.281 150.774 181.221C150.788 181.783 150.576 182.229 150.155 182.587C148.755 183.782 146.585 183.123 145.981 181.261C146.529 180.934 146.958 180.9 147.366 181.542C147.753 182.149 148.377 182.161 148.999 181.928C149.275 181.826 149.476 181.616 149.488 181.297C149.499 180.971 149.295 180.752 149.022 180.664C148.485 180.488 147.926 180.386 147.389 180.21C146.418 179.892 145.961 179.29 146.029 178.472C146.094 177.671 146.651 177.134 147.633 176.927C148.974 176.646 149.885 177.1 150.49 178.418Z" fill="#282325"/>
<path d="M154.949 179.153C155.508 180.363 156.587 181.295 157.101 182.57C156.164 182.959 155.585 182.709 155.168 181.888C154.872 181.306 154.466 180.781 154.111 180.23C153.437 180.639 153.065 181.444 152.995 182.646C152.734 182.933 152.401 182.851 151.922 182.8C151.839 180.911 151.754 179.003 151.672 177.157C152.041 176.751 152.39 176.788 152.776 176.941C153.123 177.597 152.836 178.344 153.089 179.094C153.875 178.756 154.23 178.012 154.719 177.424C155.224 176.813 155.795 176.544 156.675 176.788C156.417 177.804 155.278 178.171 154.949 179.159V179.153Z" fill="#282325"/>
<path d="M141.369 181.97C141.016 182.807 140.49 183.216 139.79 183.197C139.596 182.649 139.971 182.215 140.128 181.749C140.525 180.542 141.014 179.36 141.363 178.139C141.613 177.276 142.053 176.964 143.033 177.27C143.836 179.076 144.671 180.956 145.501 182.822C145.112 183.336 144.697 183.112 144.277 183.041C144.112 182.711 143.947 182.376 143.757 181.993C142.999 181.726 142.218 181.857 141.369 181.97ZM142.388 178.841C142.101 179.485 141.84 180.033 141.795 180.755C142.289 180.775 142.715 180.945 143.124 180.61C143.007 179.968 142.749 179.44 142.388 178.841Z" fill="#282325"/>
<path d="M167.603 177.256C167.177 177.537 166.66 177.27 166.141 177.554C165.834 179.091 166.288 180.732 166.021 182.297C165.644 182.493 165.334 182.493 164.948 182.28C164.866 180.749 164.783 179.173 164.701 177.665C164.124 177.319 163.565 177.654 163.096 177.381C162.929 177.126 162.9 176.867 163.153 176.495C164.559 176.433 166.039 176.367 167.447 176.305C167.825 176.657 167.799 176.95 167.603 177.256Z" fill="#282325"/>
<path d="M142.255 162.259C142.695 162.174 143.01 162.094 143.504 162.475C143.504 163.724 143.561 165.133 143.487 166.533C143.416 167.902 142.357 168.634 141.042 168.319C140.21 168.12 139.756 167.592 139.736 166.726C139.912 166.351 140.236 166.334 140.599 166.331C140.676 166.428 140.798 166.522 140.838 166.644C140.994 167.132 141.326 167.351 141.803 167.217C142.249 167.092 142.269 166.681 142.263 166.292C142.246 165.255 142.226 164.221 142.215 163.185C142.215 162.904 142.238 162.622 142.255 162.262V162.259Z" fill="#282325"/>
<path d="M122.018 177.884C122.094 179.613 122.165 181.15 122.239 182.8H125.048C125.281 183.18 125.292 183.439 125.011 183.811H121.024V178.029C121.225 177.807 121.563 178 122.018 177.884Z" fill="#282325"/>
<path d="M144.742 164.65C144.779 163.983 145.361 163.582 144.734 163.009C144.288 162.6 144.74 162.174 145.677 162.219C145.981 163.653 145.912 163.863 144.74 164.65H144.742Z" fill="#282325"/>
<path d="M125.752 104.36C125.522 103.343 124.795 102.644 124.153 101.897C123.634 101.292 123.077 100.716 122.367 99.9435C123.736 100.259 124.474 101.122 125.332 101.781C125.812 102.15 126.249 102.576 126.704 102.976C127.016 103.422 127.331 103.871 127.652 104.328C127.794 103.826 127.595 103.4 127.436 102.968C127.541 102.249 127.308 101.559 127.26 100.855C127.022 97.3536 127.388 93.9599 129.137 90.8361C129.43 90.3135 129.447 89.8961 129.154 89.3906C128.655 88.5329 128.192 87.6554 127.717 86.7807C127.564 86.4996 127.331 86.2213 127.683 85.7612C128.424 87.0477 129.137 88.2859 129.85 89.5269C129.961 89.49 130.074 89.453 130.185 89.4161C130.202 87.6923 129.152 86.1503 129.1 84.4236C130.111 85.6703 130.012 87.3686 130.801 88.6891C131.352 88.6976 131.759 88.4705 132.278 88.2063V83.3132C132.562 82.9412 132.721 83.1798 132.94 83.1315C132.701 84.8383 132.855 86.4996 132.818 88.0501C133.198 88.567 133.613 88.5414 134.073 88.5358C134.425 87.7605 134.28 86.9199 134.553 86.173C134.786 85.534 134.343 84.6963 135.22 84.0261C135.192 85.8549 134.78 87.4481 134.658 89.081C134.848 89.3991 135.064 89.7001 135.496 89.7796C136.572 88.3597 137.026 86.5819 138.14 85.108C138.455 85.5908 138.165 85.8975 138.012 86.2042C137.444 87.3459 136.867 88.4846 136.271 89.6121C135.964 90.1942 135.93 90.7083 136.223 91.3444C138.338 95.945 138.398 100.653 136.836 105.422C136.72 105.782 136.683 106.143 136.635 106.515C136.405 108.273 135.411 109.565 133.888 110.411C132.985 110.911 132.006 110.991 131.031 110.485C130.483 110.201 129.901 109.96 129.509 109.471C128.49 108.202 127.212 107.398 125.582 107.185C125.355 107.157 125.119 107.08 125.025 106.819C125.521 106.565 126.217 106.456 127.112 106.492C125.477 105.498 124.065 104.635 122.387 103.615C123.858 103.402 124.772 104.027 125.761 104.337L125.818 104.402L125.747 104.354L125.752 104.36ZM134.096 108.676C135.09 107.796 135.746 106.85 136.163 105.745C137.762 101.522 137.782 97.2627 136.365 93C135.979 91.8385 135.433 90.7253 134.513 89.8506C133.272 88.6664 131.875 88.6437 130.623 89.8052C129.952 90.4271 129.495 91.1882 129.14 92.0203C127.218 96.5499 127.303 101.119 128.904 105.703C129.237 106.651 129.728 107.537 130.495 108.287C130.614 107.978 130.58 107.762 130.503 107.529C130.086 106.259 129.918 104.95 130.026 103.618C130.134 102.295 130.344 100.98 131.196 99.8924C132.045 98.8133 133.068 98.8275 133.891 99.9094C134.118 100.208 134.346 100.531 134.465 100.881C134.999 102.462 135.266 104.073 134.996 105.757C134.84 106.736 134.456 107.637 134.093 108.676H134.096Z" fill="#282325"/>
<path d="M156.707 103.601C157.809 102.099 158.859 100.733 160.421 99.4154C159.459 99.6426 158.95 100.003 158.431 100.321C158.076 100.54 157.8 100.881 157.471 101.145C156.42 101.98 155.71 103.158 154.602 103.934C154.563 103.945 154.531 103.959 154.497 103.973C154.708 103.07 154.997 101.582 155.088 101.148C155.713 98.5493 155.202 96.0275 154.73 93.5028C154.531 92.4379 154.012 91.4666 153.529 90.4982C153.464 90.3676 153.259 90.1149 153.041 89.936C153.168 89.2743 153.606 88.746 153.887 88.1497C154.299 87.2835 154.906 86.5026 155.037 85.483C154.04 86.5792 153.557 88.0361 152.376 89.3254C152.319 87.3119 153.546 85.8039 153.384 84.0404C152.592 85.3666 152.509 86.9683 151.706 88.2576C151.138 88.232 150.7 88.0929 150.36 87.7265C150.076 86.0539 150.38 84.3499 150.076 82.6772C149.55 84.3613 150.155 86.1419 149.641 87.806C149.167 87.9963 148.775 87.9906 148.417 87.718C147.96 86.4401 148.116 85.04 147.528 83.532C147.287 84.384 147.401 84.9321 147.497 85.483C147.65 86.3662 147.778 87.2551 147.906 88.144C148.003 88.817 147.741 89.2231 146.986 89.2998C146.168 87.7748 145.362 86.2725 144.507 84.6794C144.163 85.2218 144.45 85.4859 144.583 85.7613C145.078 86.7809 145.557 87.8117 146.123 88.7915C146.597 89.6122 146.58 90.3846 146.219 91.2196C144.302 95.6554 144.237 100.174 145.64 104.754C145.776 105.203 146.009 105.623 146.009 106.115C146.006 107.282 146.631 108.185 147.355 108.997C148.897 110.729 151.072 110.937 152.734 109.307C154.091 107.978 155.52 106.952 157.4 106.609C157.448 106.6 157.474 106.473 157.508 106.404C157.127 105.723 156.275 106.242 155.733 105.782C157.681 104.84 159.402 103.667 159.885 102.977C158.78 102.704 157.905 103.82 156.704 103.596L156.707 103.601ZM152.6 107.217C152.41 107.455 152.206 107.631 151.896 107.293C152.714 105.638 152.671 103.868 152.424 102.096C152.279 101.065 151.953 100.077 151.226 99.2848C150.496 98.4896 149.658 98.4896 148.906 99.2536C148.397 99.7704 148.108 100.401 147.906 101.088C147.29 103.192 147.398 105.271 148.082 107.336C148.136 107.489 148.176 107.56 148.25 107.674C148.25 107.674 148.091 107.691 147.863 107.535C146.989 106.771 146.574 105.737 146.199 104.683C145.168 101.778 145.018 98.785 145.43 95.7662C145.711 93.7045 146.299 91.7222 147.582 90.0183C149.022 88.1099 150.621 88.0645 152.314 89.7116C152.427 89.8224 152.583 90.0098 152.728 90.183C152.799 90.3279 152.881 90.4698 152.921 90.538C154.767 93.8124 155.329 97.3906 154.75 101.009C154.688 101.395 154.432 102.835 154.267 103.653C154.165 104.161 153.912 104.644 153.844 104.862C153.583 105.723 153.165 106.512 152.598 107.217H152.6Z" fill="#282325"/>
<path d="M155.21 118.843C153.64 119.346 152.064 119.703 150.479 119.857C149.025 119.996 147.923 120.547 146.969 121.632C143.229 125.86 138.577 124.704 135.51 121.734C134.326 120.589 133.164 119.84 131.526 119.695C130.5 119.604 129.495 119.272 128.481 119.033C128.101 118.945 127.723 118.823 127.811 118.303C127.879 117.891 128.203 117.809 128.547 117.784C131.659 117.548 133.866 115.929 135.439 113.314C135.953 112.459 136.637 111.746 137.399 111.099C140.295 108.634 144.595 109.565 146.495 112.405C146.835 112.916 147.21 113.413 147.474 113.961C148.559 116.21 150.434 117.315 152.802 117.715C153.407 117.818 154.023 117.852 154.634 117.903C155.116 117.943 155.281 118.207 155.21 118.84V118.843ZM131.23 118.431C135.998 119.908 148.113 119.723 151.019 118.462C147.997 116.983 147.869 116.863 146.219 113.958C146.148 113.836 146.106 113.697 146.032 113.581C143.873 110.15 139.588 109.846 137.126 112.939C136.774 113.379 136.402 113.813 136.109 114.293C134.936 116.213 133.264 117.531 131.23 118.431ZM137.487 120.791C139.247 123.867 143.365 123.915 145.032 121.132C142.561 120.902 140.148 121.245 137.487 120.791Z" fill="#282325"/>
<path d="M157.837 222.842C157.826 223.614 157.638 224.273 157.13 224.818C156.383 225.622 155.327 225.508 154.804 224.551C154.316 223.657 154.372 222.742 154.807 221.851C155.153 221.138 155.889 220.7 156.488 220.825C157.221 220.979 157.562 221.53 157.755 222.189C157.82 222.41 157.811 222.651 157.834 222.839L157.837 222.842ZM157.303 222.836C157.283 222.686 157.303 222.436 157.215 222.228C157.056 221.845 156.891 221.439 156.386 221.371C155.886 221.303 155.605 221.612 155.372 221.976C155.247 222.169 155.122 222.385 155.08 222.606C154.946 223.313 154.932 224.003 155.517 224.563C155.792 224.824 156.113 224.886 156.414 224.708C157.079 224.31 157.306 223.665 157.306 222.839L157.303 222.836Z" fill="#282325"/>
<path d="M141.002 223.924C141.017 224.08 141.039 224.267 141.048 224.455C141.07 225.034 140.801 225.415 140.298 225.702C139.756 226.011 139.279 225.841 138.838 225.554C137.876 224.923 137.495 223.1 138.103 222.101C138.415 221.584 138.853 221.251 139.509 221.371C140.204 221.499 140.974 222.314 141.053 223.046C141.085 223.325 141.025 223.611 141.002 223.927V223.924ZM140.673 223.924C140.662 223.356 140.52 222.907 140.233 222.518C139.974 222.169 139.653 221.862 139.179 221.919C138.665 221.978 138.537 222.424 138.41 222.83C138.18 223.56 138.56 224.671 139.162 225.119C139.648 225.48 140.045 225.347 140.386 224.921C140.633 224.611 140.667 224.228 140.673 223.927V223.924Z" fill="#282325"/>
<path d="M115.04 26.2973C112.584 26.3428 110.124 26.3257 107.722 25.7066C106.802 25.4681 105.916 25.1585 105.106 24.653C103.57 23.696 103.417 22.2846 104.751 21.035C106.203 19.6719 108.04 19.0187 109.883 18.4252C111.229 17.9907 112.609 17.6954 114.009 17.4454C119.516 16.4628 122.648 16.2896 127.147 16.6219C128.754 16.7412 130.327 17.0621 131.855 17.5761C132.298 17.7238 132.733 17.9396 133.13 18.1867C134.732 19.1806 134.86 20.6375 133.477 21.9126C132.486 22.8242 131.298 23.4063 130.057 23.8777C126.224 25.3289 122.228 26.0105 118.158 26.2916C117.125 26.3626 116.08 26.303 115.043 26.303L115.04 26.2973ZM123.509 17.525C122.705 17.525 121.901 17.4824 121.1 17.5306C116.75 17.7976 112.464 18.4195 108.375 20.024C107.409 20.4046 106.469 20.8448 105.68 21.5462C104.51 22.5856 104.589 23.2246 105.975 24.0141C106.81 24.4883 107.73 24.707 108.656 24.8831C112.686 25.6612 116.736 25.5277 120.782 25.0336C123.929 24.6502 127.022 24.0197 129.978 22.827C130.943 22.4379 131.878 21.9921 132.662 21.2906C133.749 20.3222 133.667 19.6123 132.375 18.908C132.006 18.7063 131.605 18.5558 131.205 18.4252C128.703 17.6016 126.11 17.5022 123.509 17.525Z" fill="#282325"/>
<path d="M88.8112 243.087C88.2944 243.553 87.7037 243.888 87.414 244.518C87.255 244.942 87.2862 244.893 87.6838 244.632C88.2205 244.28 88.7459 244.189 89.2628 244.064C93.869 242.979 98.143 241.15 102.054 238.467C102.82 237.941 103.459 237.217 104.436 236.839C107.804 239.784 111.175 242.732 114.756 245.865C114.637 243.933 114.049 242.32 113.697 240.668C113.336 238.981 112.927 237.305 112.476 235.346C115.994 237.297 119.24 239.27 123.537 238.597C122.552 237.62 121.751 236.851 120.978 236.056C115.813 230.734 112.271 224.435 109.883 217.46C109.315 215.799 109.304 214.013 109.105 212.28C108.477 206.782 108.023 201.267 107.625 195.747C107.614 195.573 107.569 195.377 107.85 195.179C108.733 196.025 109.639 196.894 110.772 197.976C110.712 195.017 109.98 192.472 109.352 189.885C108.727 187.306 107.85 184.844 106.603 182.203C108.392 182.269 109.988 182.604 111.655 182.393C111.979 184.725 112.357 186.909 112.939 189.047C113.714 191.89 114.853 194.594 115.926 197.331C116.741 199.413 117.889 201.31 118.712 203.374C119.331 204.925 120.382 206.302 121.217 207.768C121.481 208.233 121.896 208.214 122.319 208.233C123.353 208.285 124.389 208.333 125.44 208.384C125.823 209 125.809 209.687 126.022 210.298C126.209 210.835 126.283 211.431 126.567 211.908C127.564 213.578 127.652 215.393 127.539 217.247C127.507 217.781 127.564 218.267 127.973 218.627C127.402 219.942 126.366 220.681 125.224 221.274C124.131 221.842 122.978 222.268 121.774 222.558C120.618 222.836 119.51 223.262 118.533 223.949C117.326 224.796 116.597 225.931 116.875 227.456C117.156 228.996 118.107 229.998 119.658 230.325C126.704 231.819 133.715 232.088 140.673 229.785C141.789 229.416 142.417 228.76 142.766 227.706C143.612 225.148 143.277 222.668 142.277 220.238C142.045 219.672 141.769 219.113 141.443 218.596C140.832 217.636 140.804 216.577 140.662 215.489C140.369 213.249 141.133 211.227 141.599 209.119C142.312 208.83 143.03 208.983 143.72 209.026C144.416 209.068 144.856 208.853 145.259 208.273C145.651 207.708 145.981 207.063 146.591 206.583C147.082 207.31 146.932 208.168 147.327 208.943C149.033 209.162 150.78 208.943 152.566 209.074C153.924 211.451 154.279 214.064 154.219 216.756C154.205 217.474 153.779 218.096 153.515 218.752C152.634 220.945 152.211 223.185 152.714 225.54C152.882 226.323 153.18 227.042 153.509 227.777C153.907 228.663 154.497 229.041 155.378 229.26C159.816 230.362 164.286 230.316 168.768 229.655C171.344 229.274 173.862 228.621 176.35 227.848C177.918 227.363 178.846 226.335 179.037 224.725C179.227 223.103 178.332 222.058 177.003 221.297C175.916 220.675 174.723 220.391 173.502 220.212C172.281 220.03 171.094 219.715 169.946 219.261C169.103 218.926 168.35 218.429 167.72 217.773C167.393 217.432 167.072 217.068 167.388 216.526C167.62 216.123 167.459 215.68 167.376 215.282C166.925 213.158 167.345 211.161 168.22 209.122C169.324 208.915 170.506 209.122 171.804 208.992C172.386 207.364 173.258 205.797 173.803 204.079C175.419 198.981 176.751 193.824 177.509 188.519C177.787 186.565 178.585 184.714 178.915 182.748C179.369 180.025 179.576 177.304 179.21 174.558C179.179 174.325 179.122 174.09 179.377 173.715C180.494 174.291 181.635 174.93 182.859 175.368C184.066 175.796 185.293 176.143 186.551 176.37C187.857 176.606 189.184 176.597 190.507 176.671C191.799 176.742 193.043 176.54 194.312 176.413C195.556 176.288 196.746 175.714 198.22 175.771C196.053 178.065 190.794 181.354 184.725 183.507C184.569 184.245 184.555 184.245 184.813 185.052C187.602 185.165 190.419 185.378 193.284 185.407C191.319 186.923 188.982 187.514 186.665 188.008C186.477 188.508 186.542 188.922 186.639 189.411C188.42 189.726 190.183 189.388 191.95 189.178C194.812 188.837 197.237 187.389 199.646 185.997C203.883 183.552 206.43 179.667 208.236 175.257C209.863 171.29 210.673 167.126 211.028 162.855C211.224 160.492 211.281 158.138 211.252 155.676C210.253 155.696 210.253 155 210.165 154.267C209.298 146.892 205.524 141.44 198.93 138.134C189.558 133.44 178.244 136.777 172.709 145.665C172.511 145.983 172.32 146.304 172.09 146.688C169.767 146.498 167.51 146.029 165.283 145.413C163.824 145.009 162.415 144.456 161.029 143.848C160.404 143.572 159.711 143.402 159.589 142.49C159.547 142.17 159.027 141.891 158.692 141.633C157.05 140.361 155.406 139.091 153.745 137.844C153.197 137.433 152.816 136.939 152.552 136.308C151.95 134.863 151.479 133.38 151.163 131.847C151.095 131.52 151.055 131.199 151.195 130.819C152.444 130.447 153.711 130.097 154.96 129.691C159.177 128.317 163.139 126.468 166.354 123.313C170.208 119.527 171.179 115.018 169.642 109.903C169.489 109.392 169.174 108.98 168.856 108.565C167.081 106.228 166.345 103.65 166.902 100.713C167.368 98.2538 167.973 95.8229 168.154 93.3096C168.376 90.2823 167.987 87.3714 166.808 84.5713C166.7 84.3157 166.519 84.0743 166.592 83.762C166.981 83.4553 167.51 83.5944 168.092 83.2905C166.223 77.7954 163.199 73.1522 158.218 69.9716C153.16 66.7426 147.599 66.3223 141.746 67.3873C141.604 65.9247 141.962 64.5872 142.081 63.2382C142.38 59.8843 143.024 56.6015 144.18 53.4236C144.356 52.9409 144.484 52.4098 143.97 51.9299C143.078 51.8106 142.348 52.2934 141.738 52.8557C139.969 54.4857 138.026 54.1989 136.038 53.4691C135.152 53.1453 134.346 52.6256 133.431 52.353C132.883 52.1911 132.332 52.0463 131.761 52.0605C130.705 52.0861 130.231 52.6455 130.393 53.7389C130.526 54.6306 130.844 55.474 131.23 56.2891C132.318 58.5979 133.346 60.9323 134.016 63.4058C134.437 64.9563 134.777 66.524 134.354 68.191C133.545 68.4437 132.75 68.2478 131.966 68.2194C129.012 68.1143 126.116 68.3727 123.296 69.3468C119.155 70.7781 116.25 73.476 114.705 77.5909C114.288 78.7013 113.348 79.2466 112.453 79.8458C112.07 80.1014 111.618 80.2547 111.175 80.462C111.127 82.6317 112.876 82.4755 114.356 82.8362C112.357 84.489 110.068 85.7783 109.934 88.6437C110.477 89.0328 110.812 88.2916 111.38 88.5358C111.019 89.9131 110.732 91.3217 110.596 92.77C110.178 97.1945 110.962 101.386 113.191 105.203C114.592 107.6 114.521 109.596 113.109 112.033C110.681 116.227 111.564 120.408 114.146 124.307C115.512 126.371 117.59 127.485 119.8 128.402C123.648 129.998 127.661 130.924 131.79 131.401C132.812 131.517 133.829 131.671 134.891 131.813C135.01 134.082 134.621 136.143 133.82 138.137C133.602 138.682 133.184 139.066 132.767 139.452C131.307 140.795 129.847 142.138 128.507 143.371C128.192 144.004 128.601 144.439 128.564 144.674C124.801 149.582 119.774 151.956 114.069 153.163C111.567 153.691 109.048 154.077 106.504 154.321C106.268 154.344 106.029 154.361 105.777 154.148C105.583 153.617 105.637 152.995 105.623 152.393C105.447 145.157 105.291 137.918 105.112 130.682C105.089 129.816 105.22 129.004 105.524 128.189C107.154 123.801 108.758 119.405 110.372 115.012C110.485 114.702 110.548 114.347 110.741 114.097C112.672 111.624 111.902 109.068 110.88 106.586C110.102 104.695 109.804 104.538 107.611 103.053C106.694 103.496 105.89 104.056 105.657 105.135C105.504 105.842 105.072 106.211 104.365 106.197C103.718 106.183 103.13 105.521 103.07 104.734C102.954 103.178 102.894 101.616 102.778 100.06C102.244 92.9376 101.713 85.8152 101.15 78.6956C100.568 71.3404 99.9606 63.988 99.3415 56.6355C98.8132 50.3679 98.2538 44.1032 97.7142 37.8356C97.4927 35.2428 97.2769 32.65 97.0838 30.0572C97.0497 29.6 96.9304 29.1229 97.1434 28.5975C97.913 28.3164 98.799 28.677 99.6169 28.3618C99.9464 27.4786 99.5715 26.5585 99.8157 25.7094C99.9236 25.6781 100.037 25.6071 100.088 25.6384C103.38 27.6774 107.077 28.1829 110.826 28.3817C116.673 28.6912 122.449 28.146 128.138 26.7374C128.447 26.6607 128.757 26.5159 129.154 26.6778C129.183 28.0665 129.24 29.4722 129.041 30.9148C128.263 31.409 127.416 31.6333 126.357 31.8009V27.8052C125.292 28.4413 125.764 29.2677 125.659 29.9152C125.548 30.6053 125.676 31.3238 125.485 32.0905C123.696 32.6727 121.876 33.0305 119.959 33.1896C119.615 31.7753 119.879 30.3724 119.283 29.0093C118.411 29.6539 119.01 30.3895 118.945 31.0057C118.871 31.7015 119.127 32.4058 118.999 33.2748C116.889 33.6525 114.745 33.6383 112.558 33.5701C111.891 32.1417 111.945 30.5797 111.425 29.1967C110.783 29.0888 110.746 29.4409 110.837 29.8669C111.079 31.0142 111.331 32.1559 111.601 33.4111C110.318 33.5417 109.182 33.3259 108.068 33.1981C107.253 31.906 107.534 30.256 106.458 29.1371C106.18 30.469 106.921 31.6447 107.006 33.0731C105.802 32.8601 104.706 32.6642 103.579 32.4654C102.738 31.0455 102.675 29.2734 101.733 27.9074C101.346 28.1062 101.29 28.2908 101.352 28.4754C104.084 36.7138 106.822 44.9523 109.582 53.2532C110.337 52.9409 110.144 52.5262 110.019 52.14C109.545 50.6548 109.062 49.1724 108.582 47.6871C108.497 47.5763 108.432 47.4457 108.537 47.3293C108.645 47.2072 108.776 47.2753 108.886 47.3577C109.068 47.4003 109.25 47.4542 109.434 47.4798C110.502 47.636 111.033 48.2437 111.246 49.3143C111.502 50.598 111.783 51.8901 112.26 53.1027C112.819 53.1226 112.865 52.8159 112.78 52.4524C112.553 51.4868 112.303 50.527 112.07 49.5614C111.973 49.1638 111.76 48.7719 111.973 48.2125C112.834 48.3034 113.7 48.3942 114.58 48.4851C115.199 50.0272 115.134 51.7197 115.881 53.3498C116.625 52.4183 116.04 51.7254 115.963 51.041C115.881 50.2969 115.688 49.5614 115.509 48.6612C117.162 48.5817 118.729 48.5078 120.393 48.4311C120.876 49.9846 120.479 51.6856 121.217 53.4236C121.842 52.3842 121.458 51.5834 121.467 50.8223C121.475 50.0328 121.331 49.2405 121.24 48.3232C122.589 48.0591 123.852 47.8121 125.269 47.5366V52.691C126.377 51.8134 125.866 50.811 125.991 49.976C126.124 49.0957 125.937 48.1841 126.173 47.2072C126.902 46.9913 127.661 46.7641 128.589 46.4887C128.589 47.6275 128.541 48.6413 128.603 49.6466C128.663 50.5866 128.223 51.5777 128.873 52.6796C129.538 51.538 129.194 50.4475 129.302 49.4308C129.41 48.4028 129.41 47.3605 129.458 46.2871C130.16 45.6651 131.097 45.614 131.926 45.0886C132.312 46.4461 131.219 47.6587 131.742 48.8997C132.295 48.7663 132.287 48.4567 132.341 48.1841C133.917 40.4568 135.493 32.7295 137.075 25.0022C137.183 24.4797 137.33 23.9543 136.618 23.7328C136.209 24.9369 136.175 26.2347 135.686 27.419C135.607 27.6121 135.686 27.8052 135.399 27.9614C133.653 28.9042 131.974 29.9862 129.944 30.5911C129.734 29.1144 130.117 27.7342 129.904 26.2802C132.247 25.6043 134.4 24.67 136.478 23.5624C137.015 23.1024 137.589 22.6764 138.083 22.1737C139.71 20.5181 139.554 18.7318 137.691 17.3687C136.484 16.4855 135.098 16.0169 133.664 15.6818C129.671 14.7446 125.619 14.5629 121.538 14.7872C115.841 15.0996 110.258 15.9885 104.919 18.0957C103.371 18.7062 101.906 19.4645 100.611 20.5266C100.426 20.68 100.233 20.8106 99.9634 20.7225C99.563 20.3704 99.952 19.7882 99.526 19.3253C98.5207 19.0783 97.3706 19.4247 96.1807 19.1209C95.8768 17.3573 95.9563 15.554 95.5588 13.7024C92.3724 14.7191 89.2741 15.7102 86.1417 16.7098C85.8038 17.4595 86.3008 18.2604 86.085 19.1919H82.1205V28.4896H87.0335C87.4708 30.0544 87.4907 31.5282 87.6014 32.9681C88.2035 40.843 89.0015 48.7066 89.4502 56.5929C89.4985 57.4449 89.5269 58.294 89.3877 59.1431C89.3423 59.4186 89.3224 59.7139 88.9703 59.8048C88.4676 59.7935 88.4307 59.3334 88.2716 59.021C86.633 55.8262 84.7957 52.7336 83.3899 49.4166C82.9213 48.3119 81.9444 48.0279 80.6551 48.5646C79.6299 48.9906 78.8404 49.7346 78.122 50.5667C76.7957 52.1059 75.8813 53.8354 75.6513 55.8773C75.4894 57.3057 75.8245 57.9646 77.1166 58.5808C77.5937 58.808 77.8266 59.1886 78.0765 59.5805C83.7761 68.5346 88.2802 78.0169 90.6713 88.4108C91.4551 91.8244 91.9606 95.2805 91.9663 98.7991C91.9834 109.542 91.9606 120.286 92.0742 131.029C92.1254 135.945 92.1907 140.872 92.5797 145.776C92.8126 148.696 93.2301 151.601 93.5623 154.514C93.6418 155.213 93.764 155.909 93.6674 156.664C92.3156 156.849 91.0178 157.065 89.7143 157.198C87.6753 157.408 86.9937 158.851 86.8744 160.348C86.7324 162.12 87.0477 163.838 87.5361 165.527C88.7516 169.728 90.7168 173.578 93.0682 177.242C93.622 178.102 94.1729 178.971 94.7977 179.781C95.2038 180.306 95.3344 180.863 95.36 181.49C95.732 190.186 96.158 198.882 96.459 207.58C96.6067 211.832 96.7629 216.097 95.9563 220.32C94.6358 227.224 91.9521 233.483 87.3203 238.85C86.9256 239.307 86.1304 239.452 86.0764 240.389C89.8904 239.04 93.1278 236.888 96.3482 234.656C96.6578 235.178 96.2574 235.414 96.0444 235.664C93.7867 238.274 91.3955 240.758 88.8339 243.076L88.8112 243.087ZM115.841 34.3454C116.869 34.2432 117.906 34.2119 119.087 34.1409C119.167 34.4618 119.252 34.6833 119.272 34.9077C119.442 36.8274 119.601 38.75 119.777 40.8231C117.815 41.1781 115.915 41.0645 113.916 40.9935C113.47 38.8352 113.035 36.7309 112.581 34.53C113.7 34.1409 114.788 34.4476 115.838 34.3454H115.841ZM111.184 34.2858C111.365 34.3028 111.542 34.3681 111.78 34.4249C112.203 36.498 112.624 38.5626 113.058 40.6925C111.851 41.0106 110.854 40.5164 109.741 40.417C109.204 38.3212 108.682 36.2907 108.102 34.033C109.318 34.1296 110.249 34.2006 111.181 34.2858H111.184ZM104.868 36.7508C104.504 35.6887 104.161 34.6209 103.76 33.4111C104.922 33.3742 105.774 33.6894 106.651 33.7888C106.998 33.8285 107.31 33.9705 107.404 34.334C107.887 36.2254 108.35 38.1196 108.812 39.9769C108.588 40.0734 108.543 40.1103 108.511 40.1018C106.692 39.6361 105.477 38.5191 104.868 36.7508ZM108.435 46.2956C108.213 46.2161 108.006 46.0911 107.924 45.8469C107.321 44.0464 106.623 42.2715 106.126 40.2353C107.248 40.4994 108.171 40.7607 109.148 41.1724C109.61 43.0269 110.085 44.9126 110.616 47.0396C109.718 46.7357 109.074 46.5256 108.432 46.2956H108.435ZM113.018 47.5593C111.485 47.3634 111.485 47.3548 111.101 45.8298C110.738 44.3815 110.372 42.9303 109.985 41.3883C111.15 41.2633 112.112 41.7205 113.254 41.6495C113.666 43.6147 114.066 45.5231 114.475 47.477C113.848 47.7297 113.43 47.6104 113.018 47.5565V47.5593ZM115.378 47.7865C114.819 45.8582 114.529 43.8874 114.092 41.7859C116.082 41.8909 117.9 41.8597 119.857 41.6211C120.036 43.6488 120.206 45.5487 120.382 47.5252C118.692 47.8717 117.113 47.8859 115.381 47.7865H115.378ZM125.272 46.608C123.943 47.0652 122.705 47.2782 121.248 47.477C120.825 45.5373 120.907 43.5835 120.589 41.6098C122.231 41.2804 123.733 40.9822 125.272 40.6726V46.608ZM125.454 39.6702C123.932 40.3318 122.347 40.4653 120.584 40.8175C120.368 38.537 120.163 36.3674 119.945 34.0671C121.904 33.7007 123.639 33.377 125.454 33.0391V39.6673V39.6702ZM128.632 45.5657C127.786 45.9661 127.033 46.1933 126.153 46.3864V40.4937C126.985 40.0535 127.811 39.7923 128.805 39.531C128.868 41.6013 128.74 43.5437 128.632 45.5686V45.5657ZM128.882 38.5853C128.001 38.9176 127.272 39.3521 126.329 39.3691V32.7153C127.229 32.4739 127.984 32.0962 128.882 32.0905V38.5882V38.5853ZM132.497 43.6488C132.437 43.947 132.244 44.177 131.974 44.2793C131.188 44.5746 130.461 45.0432 129.501 45.1397C129.404 43.3109 129.546 41.5331 129.575 39.7554C129.583 39.2243 129.918 39.0425 130.322 38.8523C131.387 38.3525 132.443 37.8299 133.789 37.1739C133.326 39.5026 132.914 41.5757 132.497 43.6488ZM135.093 29.0462C135.547 29.3501 135.362 29.6426 135.311 29.8953C134.97 31.5992 134.59 33.2946 134.272 35.0043C134.133 35.7483 133.852 36.285 133.125 36.6372C132.034 37.1654 130.975 37.7589 129.745 38.1849V31.7072C131.577 30.7956 133.369 29.9038 135.093 29.049V29.0462ZM100.679 21.8784C101.565 20.8503 102.718 20.1858 103.916 19.6349C106.541 18.4308 109.253 17.5135 112.149 17.1358C114.254 16.8603 116.364 16.5621 118.451 16.2185C123.469 15.3921 128.405 15.6562 133.338 16.6502C134.539 16.8916 135.706 17.3119 136.762 17.9594C138.506 19.03 138.657 20.3761 137.14 21.7222C135.411 23.2586 133.306 24.1276 131.145 24.8347C125.573 26.6579 119.834 27.4161 113.987 27.4587C110.283 27.4729 106.617 27.2344 103.079 26.0075C102.312 25.7406 101.585 25.4055 100.952 24.9028C99.776 23.9714 99.6993 23.0115 100.679 21.8755V21.8784ZM126.621 208.412C131.37 208.583 135.868 208.745 140.434 208.909C140.423 210.431 139.954 211.661 139.494 212.885C139.344 213.288 138.978 213.393 138.569 213.393C135.405 213.391 132.239 213.388 129.075 213.393C128.541 213.393 128.206 213.172 127.979 212.678C127.388 211.391 127.002 210.048 126.621 208.412ZM128.578 214.407H139.605C139.753 215.347 139.685 216.265 139.631 217.284H128.714C128.453 216.372 128.646 215.447 128.578 214.407ZM140.434 228.803C136.953 230.012 133.36 230.481 129.697 230.481C126.519 230.481 123.378 230.095 120.266 229.453C119.567 229.308 118.894 229.129 118.292 228.237C126.317 229.399 134.15 230.501 141.815 226.923C141.783 227.953 141.352 228.487 140.434 228.805V228.803ZM142.15 225.471C139.369 227.275 136.294 227.962 133.11 228.201C128.129 228.578 123.196 228.11 118.309 227.141C118.178 227.116 118.059 227.028 117.906 226.954C117.775 225.764 118.565 225.136 119.394 224.602C120.686 223.77 122.171 223.364 123.659 223.148C125.034 222.95 125.962 223.81 126.567 224.986C126.829 225.497 127.05 225.96 127.746 225.4C127.578 224.049 126.542 223.265 125.63 222.419C127.317 220.99 128.785 221.314 132.097 223.824C132.63 223.506 132.804 223.171 132.219 222.688C131.344 221.961 130.441 221.291 129.339 220.919C128.956 220.788 128.473 220.854 128.192 220.431C128.263 219.99 128.547 219.692 128.882 219.405C130.376 219.278 131.793 219.638 133.142 220.223C133.789 220.504 134.09 220.408 134.255 219.687C133.602 219.11 132.662 219.144 131.818 218.471H140.142C141.698 220.743 142.371 223.04 142.152 225.471H142.15ZM153.878 209.159C158.26 208.847 162.56 209.077 166.908 209.009C166.976 209.977 166.649 210.662 166.385 211.354C166.254 211.695 165.982 211.846 165.618 211.88C162.245 212.201 158.874 212.53 155.432 212.862C154.585 211.687 154.233 210.48 153.881 209.159H153.878ZM166.368 215.765C162.722 216.134 159.124 216.497 155.372 216.878C155.267 215.816 155.182 214.947 155.082 213.939C158.766 213.567 162.318 213.206 165.934 212.84C166.308 213.771 166.379 214.683 166.371 215.762L166.368 215.765ZM176.319 226.806C169.56 228.928 162.719 229.995 155.676 228.294C154.832 228.09 154.372 227.633 154.185 226.84C154.287 226.718 154.364 226.613 154.537 226.678C158.771 228.306 163.148 228.198 167.541 227.664C170.682 227.28 173.786 226.661 176.807 225.69C177.035 225.616 177.267 225.576 177.506 225.747C177.404 226.414 176.824 226.65 176.322 226.806H176.319ZM169.955 220.34C169.143 221.399 168.009 222.189 168.109 223.603C168.126 223.856 168.441 223.892 168.714 223.873C169.123 223.586 169.128 223.066 169.347 222.663C170.003 221.442 171.133 220.868 172.519 221.075C173.686 221.251 174.876 221.396 175.955 221.89C176.927 222.336 177.926 222.836 178.014 224.25C177.12 224.688 176.149 224.869 175.211 225.119C170.906 226.272 166.544 227.05 162.066 227.005C159.595 226.979 157.17 226.656 154.855 225.713C154.46 225.551 154.069 225.398 153.665 225.048C153.228 222.649 153.83 220.363 154.977 217.932C157.692 217.656 160.427 217.381 163.426 217.077C162.781 217.829 162.074 217.895 161.532 218.233C161.077 218.517 160.916 218.795 161.341 219.235C161.694 219.374 161.961 219.15 162.247 218.999C163.256 218.463 164.321 218.113 165.445 217.886C166.277 217.719 166.808 217.94 167.115 218.872C166.013 219.337 164.923 219.866 164.039 220.709C163.733 221.001 163.426 221.3 163.159 221.626C162.815 222.044 163.071 222.299 163.514 222.561C165.306 220.987 166.984 218.96 169.958 220.337L169.955 220.34ZM171.321 206.223H148.392C147.736 205.26 147.974 204.076 147.406 203.048C146.668 203.752 146.06 204.576 145.506 205.428C145.095 206.058 144.592 206.251 143.842 206.211C136.762 205.842 129.68 205.49 122.597 205.192C121.552 205.146 120.896 204.672 120.47 203.86C118.746 200.574 117.085 197.254 115.801 193.764C115.483 192.901 115.242 192.009 115.242 190.902C135.581 192.995 155.667 192.52 175.623 188.766C176.052 190.905 173.241 202.238 171.318 206.223H171.321ZM175.813 168.722C178.946 164.82 191.092 162.673 197.081 165.022C194.98 168.203 193.358 171.488 192.086 175.047C185.571 175.578 180.19 173.488 175.816 168.722H175.813ZM209.77 158.573C209.616 164.031 208.977 169.412 206.916 174.521C205.067 179.099 202.287 182.939 197.896 185.446C196.823 186.06 195.69 186.483 194.483 186.866C195.721 185.71 197.368 184.986 198.368 183.353C196.689 183.512 195.147 183.714 193.6 183.791C192.063 183.867 190.515 183.873 188.67 183.669C193.696 180.911 198.64 178.551 202.082 173.684C199.183 173.916 196.672 174.564 194.111 174.859C193.935 173.07 196.167 168.489 198.97 165.05C201.801 161.572 205.024 158.607 209.463 157.408C209.898 157.814 209.781 158.218 209.77 158.575V158.573ZM189.269 137.563C194.983 137.359 199.842 139.395 203.8 143.618C196.374 149.124 185.503 149.468 176.194 143.626C179.747 139.758 184.123 137.745 189.272 137.563H189.269ZM175.16 144.904C184.955 150.522 194.832 151.331 204.851 144.91C207.407 148.142 208.674 151.765 208.762 155.846C208.143 156.352 207.413 156.443 206.782 156.735C203.729 158.161 201.142 160.186 198.978 162.742C198.407 163.415 197.888 163.602 197.03 163.355C191.35 161.711 185.81 162.375 180.352 164.42C178.395 165.153 176.631 166.254 174.783 167.169C170.162 161.898 169.765 151.311 175.16 144.899V144.904ZM171.596 147.679C170.804 149.388 170.46 150.982 169.892 152.703C167.689 150.147 165.334 147.963 162.776 145.918C165.635 146.594 168.453 147.307 171.593 147.679H171.596ZM159.041 147.332C159.067 146.824 159.101 146.296 159.442 145.81C160.918 146.483 162.185 147.472 163.429 148.468C165.493 150.121 167.385 151.959 169.012 154.057C169.498 154.685 169.756 155.327 169.728 156.136C169.679 157.411 169.739 158.686 170.012 159.941C170.08 160.257 170.154 160.592 169.932 160.989C164.999 161.378 161.154 158.788 159.745 154.191C159.058 151.947 158.916 149.653 159.038 147.33L159.041 147.332ZM122.063 128.178C120.717 127.732 119.439 127.118 118.147 126.53C113.921 124.605 111.61 117.73 113.382 113.544C114.515 110.866 116.338 109.698 119.053 109.468C120.473 109.349 121.873 109.474 123.273 109.642C120.797 108.409 118.246 108.69 115.571 109.352C115.478 107.185 114.407 105.495 113.535 103.729C111.329 99.2534 110.999 94.5875 112.124 89.774C112.484 88.2376 113.245 87.1471 114.756 86.3633C117.945 84.7133 120.905 82.6601 123.767 80.4848C125.877 78.8802 128.189 77.8522 130.89 77.9033C133.028 77.9431 134.891 78.7212 136.498 80.107C137.91 81.3253 140.15 81.4333 141.533 79.9764C143.175 78.2469 145.143 77.8636 147.324 77.8664C151.368 77.8664 155.19 78.7666 158.749 80.7205C159.919 81.3651 160.992 82.1461 161.804 83.2082C162.352 83.9267 162.926 84.2703 163.849 83.9977C164.284 83.8699 164.775 83.7904 165.374 84.0119C166.425 85.8947 166.993 88.0161 167.186 90.2454C167.396 92.6735 166.996 95.0533 166.536 97.4246C166.32 98.5378 166.053 99.6397 165.865 100.759C165.525 102.812 165.743 104.811 166.567 106.734C166.751 107.162 166.953 107.586 167.26 108.264C165.067 107.87 163.031 107.73 160.955 108.296C161.27 108.776 161.623 108.616 161.915 108.588C163.929 108.398 165.817 108.937 167.714 109.491C168.495 109.718 168.68 110.323 168.844 110.962C170.003 115.472 168.938 119.365 165.61 122.631C163.278 124.92 160.492 126.508 157.496 127.72C151.956 129.961 146.171 131.1 140.199 131.023C134.028 130.946 127.945 130.126 122.058 128.18L122.063 128.178ZM134.65 140.023C135.874 137.526 136.368 134.854 136.538 131.923C140.948 132.04 145.18 132.128 149.394 131.131C149.894 132.718 150.104 134.212 150.669 135.601C151.061 136.561 151.362 137.56 151.961 138.418C152.396 139.04 152.35 139.599 152.015 140.258C150.808 142.618 149.394 144.802 147.301 146.498C145.035 148.329 141.488 148.369 138.995 146.495C137.151 145.109 135.822 143.297 134.811 141.241C134.621 140.852 134.437 140.457 134.65 140.028V140.023ZM130.072 143.984C131.003 143.129 131.969 142.243 133 141.301C133.761 142.485 134.448 143.598 135.186 144.68C135.936 145.779 136.862 146.725 137.924 147.531C141.445 150.212 145.648 150.027 148.937 147.065C150.834 145.359 152.143 143.237 153.302 141.002C153.469 140.679 153.492 140.255 154.063 139.989C155.253 140.909 156.517 141.869 157.76 142.86C158.101 143.132 157.971 143.538 157.925 143.922C157.684 145.989 157.445 148.054 157.556 150.144C157.672 152.387 158.076 154.56 159.087 156.582C161.123 160.654 164.644 162.304 168.989 162.571C169.503 162.602 170.02 162.577 170.551 162.577C171.298 164.289 171.977 165.939 172.976 167.43C174.01 168.972 175.192 170.381 176.592 171.593C177.117 172.048 177.424 172.505 177.543 173.229C178.313 177.904 177.787 182.447 176.274 187.057C172.403 187.917 168.444 188.525 164.468 189.03C144.629 191.558 126.624 190.76 115.435 189.257C114.026 187.156 113.578 184.739 113.376 182.215C114.458 181.499 115.835 181.774 116.483 180.513C115.85 179.545 114.969 178.767 114.097 177.994C113.475 177.441 113.186 176.841 113.345 175.995C113.49 175.214 113.538 174.413 113.64 173.527C115.529 173.411 117.377 173.627 119.252 173.084C118.587 171.508 117.301 170.5 116.497 169.162C116.449 169.083 116.392 169.003 116.321 168.941C114.79 167.635 114.668 166.11 115.713 164.355C116.497 164.181 117.397 164.301 118.286 164.238C121.16 164.042 123.861 163.381 126.255 161.645C128.692 159.879 130.04 157.493 130.6 154.597C131.185 151.57 130.884 148.573 130.273 145.589C130.197 145.22 130.111 144.85 130.049 144.478C130.026 144.342 130.06 144.197 130.075 143.984H130.072ZM128.958 146.747C129.62 150.882 129.859 154.645 127.61 158.096C126.442 159.885 124.812 161.032 122.765 161.767C120.956 162.415 119.152 162.756 117.258 162.744C116.988 162.744 116.685 162.83 116.372 162.409C119.155 156.218 123.588 151.297 128.961 146.75L128.958 146.747ZM105.967 155.335C111.093 155.054 116.04 154.012 120.899 152.206C119.53 154.381 117.872 156.338 116.65 158.573C115.444 160.779 114.14 162.94 113.424 165.332C112.851 165.394 112.646 164.996 112.388 164.766C110.624 163.19 108.787 161.705 106.745 160.507C106.078 160.115 105.808 159.655 105.859 158.913C105.941 157.746 105.649 156.565 105.967 155.335ZM110.721 110.425C111.059 111.118 110.795 111.811 110.584 112.462C110.329 113.248 109.71 113.41 109.008 112.927C108.247 112.405 107.83 111.618 107.566 110.701C107.79 110.945 108.003 111.206 108.242 111.434C109.224 112.365 109.96 112.178 110.425 110.874C110.488 110.701 110.46 110.494 110.721 110.425ZM109.84 110.971C109.622 111.485 109.27 111.573 108.829 111.283C107.517 110.423 106.955 107.62 107.847 106.126C109.463 106.901 110.479 109.474 109.84 110.971ZM106.319 105.885C106.665 105.444 106.637 104.788 107.185 104.487C107.821 104.138 108.625 104.706 109.426 106.2C107.537 105.24 107.469 105.274 106.526 107.563C106.586 106.819 105.904 106.413 106.319 105.887V105.885ZM107.216 109.909C107.225 110.042 107.202 110.181 107.049 110.19C106.898 110.198 106.827 110.068 106.844 109.929C106.853 109.852 106.898 109.738 106.958 109.716C107.114 109.656 107.188 109.764 107.216 109.909ZM87.8712 17.7435C89.9017 17.0932 91.9692 16.4315 94.0877 15.7556C94.7153 16.8632 94.4029 17.9906 94.5989 19.1691H87.8599C87.627 18.6892 87.5787 18.249 87.8684 17.7435H87.8712ZM83.3076 27.4445C82.91 26.3966 82.8418 21.921 83.1996 20.3619H98.6713V27.4445H83.3076ZM81.9955 49.4109C82.3193 49.5444 82.5436 49.7858 82.5635 50.1578C82.6004 50.9047 82.6828 51.6601 82.1773 52.4694C81.8365 51.8333 82.0893 51.1006 81.527 50.6604C80.9277 50.1919 80.3711 50.7087 79.7975 50.6718C80.1468 49.8198 81.3253 49.1326 81.9984 49.4109H81.9955ZM77.997 54.0371C78.1333 53.594 78.6189 53.2419 78.3917 52.6995C78.9768 52.7904 78.9682 52.14 79.3005 51.9043C79.8912 51.4783 80.3598 50.8024 81.2345 51.112C81.7456 53.2248 80.0843 55.7183 78.0396 55.8716C77.6051 55.2809 77.8011 54.6703 77.997 54.0371ZM79.4624 50.7428C79.5618 50.5894 79.6583 50.6775 79.7549 50.6945C79.7634 50.8479 79.6583 50.9217 79.5391 50.9842C79.4737 50.9274 79.3658 50.8876 79.4624 50.7428ZM79.4965 51.0126C79.292 51.1716 79.0932 51.3335 79.008 51.5891C78.9114 51.1546 78.9853 50.882 79.4965 51.0126ZM78.9853 51.626C78.8859 51.6942 78.7865 51.7652 78.6871 51.8333C78.6388 51.5777 78.7638 51.5408 78.9853 51.626ZM78.6331 51.8702C78.5479 51.9213 78.4627 51.9725 78.3804 52.0236C78.4343 51.9242 78.5025 51.8475 78.6331 51.8702ZM78.281 52.1514C78.2498 52.3133 78.2242 52.4751 78.3009 52.6313C78.0424 52.5546 77.9629 52.7932 77.8295 52.938C77.8579 52.6058 78.0282 52.3558 78.281 52.1514ZM76.8412 57.4563C76.3556 55.7949 76.7673 54.3949 77.7499 53.1198C77.6023 53.6139 77.4319 54.1024 77.3296 54.605C77.0286 56.0732 77.5966 56.6384 79.0478 56.3544C79.1812 56.3288 79.3261 56.343 79.4624 56.3402C79.4624 56.2039 79.5277 56.1158 79.6697 56.1215C79.7009 56.1215 79.7549 56.1755 79.7549 56.2067C79.7549 56.3487 79.664 56.4083 79.5334 56.4197C78.8774 57.3398 78.0311 57.7459 76.8412 57.4563ZM93.6788 136.254C93.3437 123.478 93.4232 110.701 93.4033 97.9215C93.3976 93.9287 92.6223 90.0239 91.6397 86.1702C89.1605 76.455 84.8723 67.5491 79.5334 59.1147C79.4084 58.9159 79.2891 58.7115 79.1727 58.507C79.15 58.4701 79.1557 58.4161 79.1273 58.2543C80.8653 56.8826 82.3761 55.2383 83.1798 52.8045C83.5092 53.3384 83.7364 53.6593 83.921 54.0058C84.932 55.9312 85.9344 57.8624 86.9398 59.7906C87.0931 60.0831 87.2209 60.3984 87.4169 60.6596C87.8712 61.2759 88.5074 61.5712 89.2684 61.4747C90.004 61.3838 90.447 60.8868 90.66 60.2138C90.9638 59.2596 91.0519 58.2685 90.9894 57.2717C90.589 50.899 90.0636 44.5348 89.507 38.1764C89.2315 35.0241 88.9845 31.8719 88.7147 28.606H95.3344C95.5304 29.1712 95.5758 29.7732 95.6269 30.3753C96.2716 37.9634 96.9332 45.5487 97.5722 53.134C98.0834 59.2141 98.5775 65.2943 99.0688 71.3745C99.6112 78.068 100.157 84.7644 100.673 91.4608C101 95.7036 101.437 99.9492 101.511 104.198C101.557 106.719 103.317 108.068 105.442 107.708C105.944 110.181 106.671 112.555 108.824 114.041C109.034 114.478 108.841 114.77 108.73 115.077C107.171 119.337 105.62 123.597 104.05 127.851C103.752 128.66 103.593 129.467 103.615 130.339C103.845 139.466 103.959 148.596 104.32 157.721C104.34 158.198 104.595 158.788 103.905 159.078C101.173 158.013 98.3901 157.082 95.4537 156.786C94.9652 155.855 94.7778 154.952 94.8829 153.918C94.9766 152.992 94.8715 152.024 94.7096 151.098C93.8492 146.182 93.8122 141.215 93.6816 136.251L93.6788 136.254ZM93.8094 175.623C91.3273 171.679 89.3394 167.521 88.4704 162.903C87.8286 159.496 88.4562 158.723 91.9209 158.382C97.3848 157.843 102.312 159.379 106.833 162.321C110.301 164.576 113.265 167.41 115.801 170.682C115.975 170.906 116.145 171.133 116.29 171.375C116.358 171.486 116.364 171.636 116.44 171.937C112.09 172.235 108.108 171.082 104.155 169.535C103.667 169.787 103.476 170.233 103.383 170.832C107.148 173.652 110.911 176.489 114.273 180.184C110.159 181.559 106.504 181.076 103.28 178.761C102.798 178.934 102.772 179.201 102.656 179.395C102.562 179.548 102.533 179.741 102.434 180.042C103.84 180.792 104.942 181.877 105.598 183.322C106.575 185.48 107.6 187.636 107.858 190.038C107.935 190.74 108.267 191.356 108.403 192.026C108.503 192.52 108.804 193.003 108.537 193.631C108.128 193.537 107.833 193.256 107.577 192.963C102.732 187.383 97.7597 181.908 93.8037 175.62L93.8094 175.623ZM111.584 175.334C110.425 174.382 109.219 173.951 108.483 172.675C109.588 172.704 110.46 173.206 111.417 173.158C111.755 173.843 111.459 174.436 111.581 175.334H111.584ZM95.9507 233.088C94.6585 233.948 93.4857 234.993 92.0373 235.615C91.83 235.729 91.7647 235.803 91.7022 235.783C91.6454 235.766 91.7164 235.53 91.8016 235.405C93.4289 232.571 94.8743 229.657 95.9052 226.548C97.47 221.831 98.0948 216.989 98.0039 212.025C97.8278 202.565 97.4018 193.117 96.9475 183.666C96.9418 183.532 97.0014 183.399 97.0383 183.214C98.0238 183.478 98.3333 184.418 98.8416 185.054C100.665 187.341 102.568 189.553 104.598 191.649C105.609 192.691 106.08 193.801 106.16 195.275C106.558 202.451 107.154 209.619 108.188 216.736C108.528 219.079 109.636 221.223 110.624 223.367C112.774 228.027 115.486 232.327 118.968 236.118C119.09 236.252 119.189 236.408 119.502 236.822C117.497 236.513 116.063 235.598 114.592 234.778C113.109 233.951 111.803 232.855 110.102 231.719C110.877 235.099 111.584 238.177 112.291 241.258L112.016 241.431C109.474 239.228 106.932 237.021 104.345 234.778C101.048 237.603 97.4984 239.804 93.3891 241.071C95.9762 237.717 99.5715 235.045 100.137 230.143C98.6031 231.228 97.2996 232.196 95.9478 233.091L95.9507 233.088Z" fill="#282325"/>
<path d="M29.0775 180.065L25.7037 175.578C31.7328 174.28 37.1967 172.894 42.0955 171.423L38.7671 166.723L44.3503 164.479C45.9009 166.981 48.2154 169.955 51.2966 173.394L29.0775 180.068V180.065Z" fill="#282325"/>
<path d="M26.6011 161.889C27.24 161.858 27.8705 161.801 28.4953 161.728L30.2787 161.458L27.5269 156.937L31.8378 155.741C33.0476 157.939 34.0444 159.637 34.8282 160.83C35.2655 160.773 35.7 160.702 36.1288 160.623L37.3983 160.427L34.5555 155.034L40.346 153.424C41.6382 156.269 43.6545 159.726 46.3921 163.792L23.2585 167.876L18.2064 158.277L24.0083 156.698C24.8773 158.609 25.7406 160.339 26.6011 161.889Z" fill="#282325"/>
<path d="M22.4662 140.735C22.8666 141.352 23.3409 142.09 23.8833 142.953L25.2607 145.146C24.2809 145.342 23.8464 145.719 23.9572 146.276C24.1133 147.057 24.7012 147.739 25.7207 148.321C26.5045 148.767 27.1889 148.886 27.7739 148.676C28.1602 148.528 28.2823 148.088 28.1346 147.352C28.0551 146.952 27.8932 146.441 27.6547 145.816C27.2713 144.944 27.01 144.149 26.8652 143.436C26.513 141.675 26.922 140.528 28.0892 139.994C28.447 139.807 28.836 139.67 29.2592 139.585C30.6223 139.335 32.1843 139.557 33.945 140.247C36.2566 141.153 38.3525 142.655 40.2324 144.759C41.2179 145.861 41.8285 147.012 42.0698 148.216C42.2885 149.306 42.192 150.451 41.783 151.643C40.4256 151.337 38.3922 150.851 35.6887 150.186C36.001 149.428 36.0806 148.673 35.93 147.915C35.8647 147.579 35.7483 147.233 35.5836 146.872C35.2769 146.262 34.9077 145.688 34.4732 145.149C33.8371 144.396 33.2748 144.081 32.7891 144.2C32.2496 144.285 32.0678 144.762 32.2411 145.631C32.3575 146.211 32.65 147.043 33.1214 148.13C33.5928 149.218 33.8882 150.05 34.0018 150.629C34.1608 151.43 34.1381 152.061 33.9279 152.521C33.5304 153.435 32.7409 153.941 31.5538 154.037C29.1655 154.259 26.1467 153.299 22.4975 151.155C18.7772 149.002 16.636 146.918 16.068 144.899C15.5653 142.962 16.849 141.673 19.9189 141.036C20.6572 140.911 21.5063 140.812 22.4662 140.735Z" fill="#282325"/>
<path d="M14.8383 121.938C14.8753 119.712 16.1163 118.084 18.5643 117.056L22.5259 120.802C21.9948 121.293 21.725 121.87 21.7137 122.526C21.6966 123.662 22.6537 124.858 24.5876 126.118C26.1836 127.121 27.6859 127.794 29.0888 128.135C29.7448 128.282 30.3469 128.359 30.8921 128.368C32.3461 128.413 33.3429 127.908 33.8825 126.848C34.0699 126.488 34.1665 126.116 34.1722 125.729C34.1892 124.616 33.3799 123.432 31.7412 122.18L35.6092 121.22C37.9378 123.418 39.0823 125.616 39.0454 127.819C39.0085 130.046 37.8015 131.65 35.4217 132.636C34.0273 133.227 32.4768 133.496 30.7729 133.445C29.5233 133.445 28.1971 133.278 26.7942 132.937C23.943 132.21 21.3502 130.941 19.0158 129.129C16.1901 126.902 14.7958 124.505 14.8383 121.938Z" fill="#282325"/>
<path d="M39.2073 123.733C31.693 119.425 24.3576 115.764 17.204 112.748L17.0336 102.766C23.3409 104.828 30.9092 106.458 39.7355 107.654L40.3035 114.73L36.3617 113.663L36.4554 115.812L39.1817 116.94L39.2073 123.73V123.733ZM32.1672 112.456L20.2824 109.21L20.2767 109.244L32.2325 114.12L32.1701 112.456H32.1672Z" fill="#282325"/>
<path d="M20.5181 97.6913L21.106 92.0541C21.7222 92.2955 22.6139 92.5994 23.7839 92.9657C26.5812 93.8433 29.0689 94.5277 31.2471 95.019C32.5023 95.2689 33.5275 95.4137 34.3255 95.4478L22.9462 89.5948L23.642 83.9548C31.2074 88.6832 37.9123 92.3211 43.7567 94.8684L43.5835 100.207C43.5409 100.193 43.1405 100.213 42.3879 100.261L37.3046 100.418L35.7625 100.435C38.0486 101.65 40.2921 102.735 42.493 103.686L42.4277 109.022L20.5153 97.6884L20.5181 97.6913Z" fill="#282325"/>
<path d="M44.7734 96.5951C38.9517 90.1827 33.0987 84.4433 27.2202 79.3713L30.1282 69.8208C35.4956 73.7256 42.1948 77.6049 50.2232 81.4557L48.5846 88.3651L45.1625 86.1358L44.5917 88.2118L46.838 90.123L44.7734 96.5922V96.5951ZM41.5445 83.6964L31.233 76.9489L31.2188 76.9801L41.093 85.2981L41.5445 83.6964Z" fill="#282325"/>
<path d="M34.7373 66.2144C35.8591 62.8917 37.0405 60.3472 38.2872 58.5836C39.9627 56.2067 41.6212 55.6131 43.2598 56.7945C45.6226 58.4899 46.9545 61.6677 47.2526 66.328C48.1046 66.5409 50.9331 67.0038 55.7353 67.7252C55.9284 69.2246 56.1954 71.4681 56.5305 74.4585L47.2583 72.1724C49.2462 74.2427 51.1347 76.0744 52.9267 77.6732L51.1887 82.6203C50.8252 82.3079 49.7858 81.2969 48.0734 79.5873L34.7345 66.2144H34.7373ZM41.252 65.8452C41.7291 66.4302 42.2261 67.0067 42.7486 67.569L44.2765 69.1877C44.4071 68.3329 44.4298 67.4327 44.3475 66.4841C44.2339 65.3454 43.9783 64.4849 43.5835 63.9027C43.4699 63.7096 43.3535 63.5591 43.2371 63.4483C42.8338 63.1927 42.4561 63.3149 42.1011 63.8147C41.8143 64.2236 41.5303 64.8995 41.252 65.8452Z" fill="#282325"/>
<path d="M44.5093 53.608L47.4258 48.7319C52.4325 56.1156 57.0871 62.1617 61.3866 66.873L59.092 71.661L44.5093 53.6108V53.608Z" fill="#282325"/>
<path d="M62.7725 43.8048C62.4544 44.4665 62.0682 45.2532 61.6082 46.1676L60.4466 48.4821C59.7708 47.7466 59.2227 47.5705 58.8052 47.9539C58.2202 48.4906 57.9419 49.3483 57.9703 50.524C57.9958 51.4271 58.2486 52.0717 58.7314 52.4636C59.0579 52.7192 59.4981 52.5942 60.0491 52.0859C60.3501 51.8104 60.7051 51.4072 61.114 50.879C61.6621 50.098 62.2045 49.4619 62.7413 48.9706C64.0646 47.7579 65.2574 47.5109 66.3195 48.2322C66.6631 48.4395 66.984 48.7036 67.2737 49.0217C68.1938 50.0582 68.8157 51.5094 69.1366 53.3724C69.5626 55.8203 69.361 58.3904 68.5374 61.0883C68.1058 62.4997 67.4384 63.6215 66.5353 64.4507C65.7146 65.2033 64.6866 65.7144 63.4541 65.9814C63.011 64.6608 62.3749 62.6701 61.54 60.0148C62.3494 59.8899 63.0394 59.5661 63.6074 59.0436C63.8573 58.8136 64.0959 58.5353 64.3202 58.2058C64.6837 57.6265 64.9819 57.0131 65.2205 56.3627C65.5329 55.4284 65.513 54.7838 65.158 54.4316C64.8058 54.0142 64.3032 54.1051 63.65 54.7043C63.2155 55.1047 62.6561 55.7863 61.9688 56.7547C61.2844 57.723 60.725 58.4046 60.2876 58.805C59.6856 59.3588 59.1318 59.6627 58.632 59.7223C57.6465 59.8558 56.8031 59.444 56.1045 58.4785C54.676 56.553 53.932 53.4718 53.8752 49.2404C53.7872 44.9436 54.4602 42.0299 55.8915 40.4992C57.2887 39.0651 59.0551 39.4939 61.1907 41.7885C61.682 42.3565 62.2074 43.0296 62.7668 43.8105L62.7725 43.8048Z" fill="#282325"/>
<path d="M151.183 17.9393C153.759 17.715 155.889 17.8059 157.567 18.2063C159.444 18.655 160.751 19.4956 161.486 20.7224C162.523 22.4434 162.801 24.3092 162.318 26.317C162.139 27.0695 161.853 27.8278 161.458 28.5974C159.78 32.0961 157.085 34.8564 153.378 36.8756C149.67 38.8947 145.904 39.7041 142.076 39.3008C142.252 38.8521 142.803 37.5373 143.723 35.3506L149.709 21.4721C150.576 19.4132 151.07 18.2347 151.186 17.9365L151.183 17.9393ZM154.412 24.2126C152.433 28.0834 150.763 31.7951 149.397 35.3477C150.919 34.4503 152.367 33.3371 153.736 32.0081C155.44 30.3609 156.443 28.8501 156.749 27.4728C157.201 25.6894 156.42 24.6017 154.412 24.2155V24.2126Z" fill="#282325"/>
<path d="M169.745 28.7535C169.35 29.259 168.978 29.7702 168.626 30.2927L167.66 31.8177L172.88 32.7009L170.96 36.742C168.507 36.2167 166.573 35.856 165.158 35.6657C164.914 36.0349 164.684 36.4069 164.463 36.7846L163.778 37.8695L169.716 39.2553L167.141 44.688C164.144 43.8019 160.211 43.0607 155.344 42.4644L167.413 22.3098L177.978 24.7833L175.368 30.2018C173.357 29.6054 171.483 29.1255 169.748 28.7592L169.745 28.7535Z" fill="#282325"/>
<path d="M186.338 31.6531C189.689 32.6101 192.256 33.658 194.037 34.794C196.508 36.3729 197.167 37.9945 196.022 39.6615C193.793 43.0637 188.641 44.7733 180.57 44.7903C178.767 46.7669 177.162 48.6241 175.751 50.365L170.702 48.8371C171.017 48.4708 172.002 47.3916 173.664 45.594L179 39.9057C183.467 34.9416 185.912 32.1898 186.338 31.6531ZM186.966 38.2018C186.5 38.6335 186.051 39.0595 185.62 39.4854L184.379 40.7946C186.608 41.0616 188.261 40.877 189.34 40.2465C189.482 40.15 189.584 40.0534 189.647 39.9569C189.842 39.6501 189.712 39.352 189.252 39.0566C188.831 38.7868 188.068 38.5028 186.966 38.2018Z" fill="#282325"/>
<path d="M199.308 40.7292C202.505 42.1719 204.919 43.6004 206.552 45.0118C208.753 46.9145 209.182 48.6212 207.842 50.1377C205.922 52.3216 202.63 53.3354 197.962 53.1736C197.666 54 196.925 56.7688 195.738 61.4773C194.227 61.5228 191.967 61.5654 188.959 61.608L192.148 52.6056C189.894 54.3805 187.883 56.0816 186.117 57.706L181.365 55.4909C181.712 55.1586 182.819 54.2243 184.691 52.6879L199.311 40.7292H199.308ZM199.032 47.2496C198.402 47.6671 197.783 48.1044 197.172 48.5673L195.411 49.9276C196.249 50.1406 197.141 50.2542 198.092 50.2655C199.237 50.2655 200.117 50.0951 200.736 49.76C200.938 49.6635 201.1 49.5641 201.222 49.459C201.517 49.0841 201.432 48.6951 200.969 48.2947C200.591 47.9681 199.947 47.6188 199.032 47.2524V47.2496Z" fill="#282325"/>
<path d="M210.633 58.6717C210.051 58.9386 209.486 59.2255 208.935 59.5265L207.379 60.4381L211.616 63.6131L208.057 66.328C206.118 64.7377 204.561 63.5335 203.391 62.7157C203.008 62.9315 202.63 63.1587 202.261 63.3916L201.156 64.0447L205.803 67.995L201.026 71.6442C198.768 69.4859 195.61 67.0266 191.558 64.2662L211.513 51.873L219.772 58.9074L214.972 62.5311C213.456 61.0799 212.01 59.7934 210.636 58.6745L210.633 58.6717Z" fill="#282325"/>
<path d="M226.201 69.2843C227.428 71.1415 227.323 73.1862 225.883 75.4184L220.499 74.5636C220.658 73.8593 220.558 73.2317 220.195 72.6807C219.567 71.7322 218.102 71.2864 215.796 71.3403C213.91 71.4142 212.294 71.7067 210.943 72.2178C210.318 72.4677 209.778 72.7432 209.324 73.0442C208.097 73.828 207.56 74.8078 207.714 75.9863C207.762 76.3896 207.893 76.7531 208.106 77.074C208.719 78.0027 210.057 78.5223 212.116 78.6303L209.466 81.6064C206.305 81.1095 204.116 79.9394 202.903 78.102C201.676 76.2448 201.764 74.237 203.173 72.0815C203.991 70.8064 205.118 69.7074 206.552 68.7873C207.583 68.0802 208.773 67.4696 210.122 66.9584C212.885 65.9502 215.742 65.5328 218.69 65.7089C222.279 65.9502 224.784 67.143 226.198 69.2843H226.201Z" fill="#282325"/>
<path d="M228.36 76.4435L231.853 81.382C227.672 82.1715 223.912 82.9979 220.576 83.8641L222.228 86.0593L231.665 83.3614L235.175 88.3312C226.241 90.0834 218.86 92.0003 213.033 94.0819L209.361 89.7171L217.926 87.2464C217.54 86.7522 216.966 86.0053 216.213 85.0057C213.638 85.7838 211.477 86.5023 209.727 87.1612L206.055 82.7963L228.362 76.4407L228.36 76.4435Z" fill="#282325"/>
<path d="M211.232 93.7271C219.866 94.4313 228.061 94.6273 235.817 94.3149L240.216 103.278C233.63 104.093 226.088 105.836 217.591 108.506L214.067 102.34L218.088 101.63L217.088 99.7249L214.14 99.864L211.229 93.7271H211.232ZM222.402 100.94L234.539 98.8246L234.531 98.7934L221.638 99.4636L222.402 100.943V100.94Z" fill="#282325"/>
<path d="M241.948 116.9C242.255 119.104 241.278 120.904 239.018 122.296L234.528 119.206C234.976 118.638 235.155 118.028 235.064 117.377C234.908 116.253 233.778 115.216 231.674 114.271C229.941 113.527 228.357 113.092 226.917 112.973C226.244 112.927 225.639 112.944 225.099 113.018C223.657 113.197 222.748 113.85 222.379 114.981C222.248 115.364 222.211 115.75 222.265 116.131C222.419 117.233 223.401 118.278 225.213 119.263L221.541 120.808C218.903 118.996 217.432 117 217.128 114.816C216.821 112.609 217.767 110.84 219.965 109.5C221.254 108.702 222.742 108.196 224.432 107.983C225.667 107.787 227.002 107.75 228.442 107.872C231.37 108.153 234.127 109.008 236.712 110.437C239.847 112.203 241.593 114.356 241.945 116.9H241.948Z" fill="#282325"/>
<path d="M243.187 133.982C243.15 136.231 241.852 137.813 239.293 138.725C237.967 139.202 236.533 139.429 234.988 139.404C231.194 139.364 227.462 138.191 223.799 135.882C222.887 135.981 221.019 136.359 218.19 137.018L215.336 132.335L219.062 131.645C217.818 129.898 217.207 128.251 217.233 126.706C217.27 124.412 218.568 122.807 221.129 121.896C222.433 121.438 223.856 121.226 225.4 121.248C226.923 121.274 228.567 121.527 230.33 122.009C233.315 122.853 236.075 124.261 238.611 126.235C241.707 128.717 243.232 131.299 243.189 133.977L243.187 133.982ZM228.289 129.989L230.631 134.664C231.745 134.749 232.767 134.698 233.701 134.51C235.093 134.215 235.794 133.636 235.809 132.772C235.828 131.614 234.781 130.359 232.665 129.007C230.978 127.956 229.376 127.226 227.86 126.814C227.09 126.599 226.4 126.485 225.787 126.474C224.901 126.459 224.171 126.664 223.594 127.087C222.972 127.575 222.654 128.266 222.64 129.152C222.632 129.72 222.793 130.29 223.123 130.864L228.283 129.992L228.289 129.989Z" fill="#282325"/>
</g>
<defs>
<clipPath id="clip0_2702_5739">
<rect width="256" height="256" fill="white"/>
</clipPath>
</defs>
</svg>
