<svg width="256" height="256" viewBox="0 0 256 256" fill="none" xmlns="http://www.w3.org/2000/svg">
<g clip-path="url(#clip0_3376_10818)">
<path d="M122.297 0.0963502C197.084 -2.73599 258.414 57.2386 255.927 132.263C253.571 203.358 194.188 258.587 123.067 255.906C50.9484 253.187 -4.02029 191.792 0.230932 119.819C4.04438 55.2484 57.59 2.54712 122.297 0.0963502Z" fill="#1B1D38"/>
<path d="M115.737 140.944C121.868 140.32 126.826 143.287 125.879 150.015C124.817 157.557 113.15 159.931 109.316 153.178C106.384 148.014 109.89 141.538 115.737 140.943V140.944ZM116.669 143.885C110.615 144.642 111.095 154.014 117.037 154.036C123.564 154.061 123.63 143.014 116.669 143.885Z" fill="white"/>
<path d="M42.7151 143.495C46.7113 139.221 56.5331 140.013 58.0037 146.386C59.6838 153.666 52.1654 159.115 45.5218 156.593C40.144 154.551 38.8494 147.629 42.7144 143.495H42.7151ZM49.0661 143.89C42.1722 144.474 43.5759 155.636 50.5729 153.831C55.7372 152.499 55.3657 143.357 49.0661 143.89Z" fill="white"/>
<path d="M115.363 169.822C117.709 170.72 118.803 173.312 121.196 174.102C120.769 175.876 119.733 177.837 117.62 176.603C115.698 175.481 113.673 171.395 111.818 171.16C111.428 171.111 110.63 171.025 110.542 171.498C110.376 172.394 111.193 176.026 111.059 176.233C109.545 176.808 106.605 177.582 106.387 175.252C106.201 173.258 106.601 171.293 106.666 169.362C106.763 166.462 106.625 163.572 106.124 160.721C107.436 160.58 108.757 160.638 110.073 160.585C112.78 160.478 116.432 159.832 118.15 162.551C119.136 164.113 118.909 166.67 117.706 168.086C117.042 168.867 116.16 169.234 115.363 169.823V169.822ZM110.543 168.618C113.047 168.935 115.2 167.458 114.497 164.732C114.27 163.854 112.782 163.249 111.956 163.259C111.715 163.262 110.543 163.511 110.543 163.732V168.618Z" fill="white"/>
<path d="M86.8573 161C88.3279 160.43 91.4552 159.532 91.6714 161.853C91.9292 164.624 90.8548 170.488 92.2217 172.683C93.1528 174.177 96.0217 174.027 97.2286 172.909C99.0286 171.241 98.8445 165.905 98.4569 163.635C98.3699 163.125 97.6336 161.172 97.7494 160.986C97.9181 160.715 99.9262 160.316 100.301 160.319C102.407 160.334 102.667 162.461 102.777 164.135C102.974 167.124 102.6 171.856 100.801 174.339C97.8659 178.392 89.0274 178.425 87.5789 172.907C86.5741 169.08 88.3319 164.861 86.8573 161V161Z" fill="white"/>
<path d="M140.776 137.267C140.224 137.437 137.965 138.33 137.592 138.164L129.086 128.452C128.983 130.073 128.993 131.718 129.013 133.345C129.024 134.287 129.244 135.274 129.157 136.29C128.938 138.846 126.908 137.882 125.138 137.554C125.173 136.572 125.667 135.67 125.804 134.677C126.094 132.582 126.374 126.386 125.561 124.613C125.119 123.651 124.495 123.591 125.95 122.774C127.934 121.66 129.165 122.918 130.425 124.3C132.849 126.957 134.809 130.259 137.45 132.737C137.377 132.166 137.565 131.63 137.592 131.07C137.669 129.485 137.598 127.159 137.451 125.576C137.405 125.088 136.753 123.045 136.792 122.914C136.912 122.516 140.271 121.579 140.635 123.328C140.975 124.958 140.544 127.356 140.526 129.05C140.496 131.801 140.531 134.533 140.776 137.267Z" fill="white"/>
<path d="M101.708 150.011C101.685 150.172 101.659 150.184 101.79 150.285C102.181 150.585 102.821 150.861 103.244 151.216C104.442 152.221 105.41 153.832 107.056 154.166C106.863 155.87 105.56 157.873 103.671 156.681C101.782 155.49 100.026 151.879 98.232 151.41C97.9683 151.341 97.3572 151.261 97.1483 151.406C96.9395 151.55 96.9964 153.312 97.0245 153.688C97.0646 154.21 97.5694 156.023 97.3659 156.309C97.2688 156.446 95.6328 156.812 95.3477 156.833C92.6474 157.039 92.7726 155.51 92.8743 153.289C93.0049 150.442 93.3188 147.587 93.1461 144.714C93.1146 144.194 92.5637 141.569 92.6621 141.435C92.7538 141.311 92.9232 141.301 93.0671 141.299C96.2647 141.671 102.509 139.854 104.326 143.441C105.609 145.974 104.264 148.975 101.709 150.01L101.708 150.011ZM100.188 148.088C100.442 147.817 100.727 147.235 100.773 146.865C101.108 144.187 99.2642 143.747 97.0225 144.119L96.9495 149.078C97.0426 149.229 98.1537 149.061 98.3673 149.012C98.8961 148.89 99.8205 148.481 100.188 148.088Z" fill="white"/>
<path d="M61.9142 141.207C64.9244 140.802 65.1145 141.742 65.0241 144.451C64.9518 146.627 64.0796 151.712 65.8267 153.291C67.1802 154.514 69.764 154.001 70.7346 152.438C71.8244 150.683 71.7936 146.116 71.3913 144.111C71.3076 143.695 70.5773 141.881 70.7045 141.702C73.5781 140.581 75.2121 140.884 75.4658 144.186C75.7222 147.524 75.4564 152.943 72.8599 155.367C70.7875 157.302 66.7558 157.638 64.1867 156.671C59.1838 154.788 61.1732 148.546 60.88 144.448C60.8191 143.599 60.5815 142.721 60.3304 141.91C60.3612 141.538 61.5655 141.254 61.9135 141.207H61.9142Z" fill="white"/>
<path d="M109.576 122.331C111.221 122.148 112.351 122.342 112.427 124.234C112.539 126.999 111.604 130.246 112.428 133.061C112.842 134.477 113.658 135.117 115.176 135.133C119.842 135.183 119.329 127.447 118.536 124.408C118.431 124.002 117.866 123.16 118.098 122.824C118.297 122.534 120.359 122.255 120.784 122.294C122.571 122.458 122.77 124.386 122.865 125.837C123.312 132.746 121.37 139.677 112.901 138.211C106.283 137.064 108.605 130.464 108.271 125.837C108.218 125.094 107.687 123.523 107.726 123.029C107.759 122.614 109.187 122.375 109.575 122.332L109.576 122.331Z" fill="white"/>
<path d="M79.7237 172.664L73.6819 172.656C73.4811 172.725 72.973 173.977 72.8867 174.271C72.655 175.059 72.7173 175.697 72.5259 176.454C71.2199 176.937 68.4989 177.269 68.8034 175.146C69.0732 173.27 71.7045 168.895 72.6376 166.926C73.0988 165.953 74.4905 163.354 74.6384 162.493C74.7656 161.753 74.3057 161.713 74.1297 161.124C76.9933 159.844 78.5141 160.072 79.9084 162.906C81.5611 166.265 82.5538 170.05 84.4147 173.394C84.6182 173.76 85.7468 175.282 85.7635 175.402C85.8177 175.784 83.918 176.687 83.5351 176.753C80.7438 177.238 80.6689 174.496 79.7237 172.665V172.664ZM78.6808 169.957C78.4887 169.357 77.1888 165.348 76.8721 165.272C76.6024 165.207 76.3487 165.912 76.2483 166.119C75.6699 167.309 75.188 168.69 74.7991 169.958H78.6815L78.6808 169.957Z" fill="white"/>
<path d="M147.387 133.971C147.221 134.067 146.502 135.904 146.454 136.183C146.383 136.605 146.506 137.152 146.424 137.462C146.296 137.942 143.042 138.436 142.812 137.22C142.6 136.101 143.437 134.525 143.898 133.493C145.297 130.359 147.103 127.387 148.408 124.2C148.494 123.754 147.688 123.375 147.954 122.96C148.322 122.384 150.879 122.326 151.514 122.492C152.108 122.646 152.617 123.388 152.92 123.897C154.662 126.822 155.669 131.009 157.35 134.195C157.574 134.621 158.911 136.593 158.86 136.796C158.795 137.055 157.423 137.766 157.107 137.866C154.268 138.772 154.092 135.73 153.031 133.96L147.387 133.971ZM148.564 131.532H151.844C151.93 131.532 152.037 131.315 152.05 131.198C152.075 130.974 150.719 127.044 150.505 126.977C150.119 126.856 150.027 127.389 149.879 127.694C149.648 128.172 148.344 131.31 148.564 131.532Z" fill="white"/>
<path d="M101.284 133.964L95.5793 134.031C95.2607 134.166 94.5411 136.379 94.5023 136.819C94.4842 137.028 94.7051 137.326 94.5886 137.532C94.3998 137.868 92.6862 137.996 92.2632 137.963C89.9866 137.79 91.1801 135.515 91.7377 134.215C93.1796 130.853 95.2479 127.63 96.5539 124.178C96.6215 123.814 96.082 123.433 96.08 123.161C96.074 122.409 98.8331 122.36 99.368 122.425C100.486 122.559 101.159 123.96 101.596 124.882C103.05 127.944 103.956 131.297 105.566 134.301C105.817 134.772 106.979 136.335 107.042 136.584C107.147 136.997 105.842 137.652 105.479 137.781C102.492 138.853 102.292 135.939 101.284 133.964ZM100.235 131.532C100.134 130.586 99.7509 129.574 99.3974 128.688C99.2488 128.314 98.8539 126.976 98.4288 126.979L96.6202 131.532H100.235Z" fill="white"/>
<path d="M152.982 163.397V167.012L158.481 166.936C158.721 167.572 158.924 168.892 158.337 169.354C158.266 169.41 157.641 169.689 157.601 169.689H152.983V173.973C154.89 174.025 156.785 173.971 158.652 173.562C159.303 174.802 159.613 176.49 157.834 176.75C155.318 177.118 152.15 176.543 149.562 176.792C148.609 176.692 148.805 175.321 148.826 174.57C148.919 171.179 149.245 167.813 149.106 164.395C149.084 163.877 148.646 160.864 148.755 160.715C148.854 160.578 149.014 160.596 149.16 160.579C150.112 160.469 151.665 160.761 152.787 160.724C154.564 160.665 156.631 160.178 158.396 160.458C159.014 160.557 159.553 161.235 159.554 161.856C159.554 162.179 159.208 163.549 158.917 163.645C158.576 163.756 156.719 163.295 156.134 163.257C155.09 163.19 154.01 163.259 152.983 163.396L152.982 163.397Z" fill="white"/>
<path d="M137.632 172.456C138.938 173.606 141.051 173.834 142.709 173.541C143.147 173.463 144.625 172.768 144.731 172.788C145.022 172.843 145.536 174.029 145.587 174.34C146.12 177.581 140.145 177.178 138.223 176.751C128.421 174.574 129.827 161.626 140.082 160.202C143.028 159.793 147.182 159.765 144.684 163.876C143.742 163.695 142.637 163.252 141.669 163.252C140.422 163.252 138.449 163.874 137.52 164.736C135.458 166.648 135.538 170.611 137.632 172.455V172.456Z" fill="white"/>
<path d="M82.6971 151.481C82.5599 153.117 82.9501 154.694 83.2212 156.288C82.177 156.671 80.2625 157.204 79.2538 156.598C78.2276 155.982 78.7919 152.657 78.82 151.553C78.9084 148.121 78.986 144.704 78.4124 141.305C79.952 141.291 81.4962 141.323 83.0371 141.311C84.6276 141.299 85.6972 141.025 87.3533 141.536C91.7471 142.893 91.3977 149.097 87.4738 150.835C86.9778 151.055 85.6685 151.48 85.1738 151.48H82.6971V151.481ZM82.5779 148.789C84.7407 149.313 86.8359 148.429 86.5795 145.924C86.4208 144.379 84.9703 143.849 83.5827 144C83.4006 144.02 82.8403 144.125 82.7566 144.244C82.5846 144.488 82.6107 148.188 82.5779 148.789Z" fill="white"/>
<path d="M153.785 143.984C153.979 144.559 153.418 147.291 153.776 147.54C153.936 147.651 156.016 147.623 156.401 147.605C156.886 147.58 158.71 147.185 158.941 147.463C159.344 147.949 159.342 149.322 158.773 149.745C158.675 149.818 157.809 150.142 157.734 150.142H153.651V154.159C155.559 154.271 157.396 154.062 159.269 153.762C159.664 155.628 160.032 156.662 157.738 156.841C155.92 156.983 152.567 157.007 150.766 156.843C150.226 156.794 149.842 156.707 149.761 156.106C149.543 154.481 149.994 152.639 150.041 151.017C150.135 147.769 149.986 144.527 149.634 141.305C151.618 141.276 153.611 141.342 155.597 141.311C156.52 141.296 159.097 140.77 159.681 141.634C160.075 142.216 159.879 143.735 159.473 144.251C159.224 144.567 158.136 143.983 157.734 143.983H153.784L153.785 143.984Z" fill="white"/>
<path d="M89.1104 125.632C85.9456 124.453 81.3048 125.228 80.8369 129.204C80.2953 133.8 83.993 135.955 88.1257 134.619C89.0388 134.324 89.2121 133.674 89.7229 135.151C90.8702 138.466 85.9242 138.364 83.8571 138.071C73.1203 136.552 74.69 122.849 85.309 122.029C88.1505 121.81 91.1728 122.022 89.1104 125.633V125.632Z" fill="white"/>
<path d="M138.794 153.491C139.934 154.172 142.532 154.559 143.322 153.27C143.945 152.254 143.216 151.586 142.469 150.949C141.38 150.021 139.46 149.196 138.872 147.852C137.61 144.964 140.282 142.009 142.97 141.269C144.903 140.737 147.881 140.499 146.886 143.445C146.401 144.883 146.18 144.202 145.147 144.119C143.966 144.025 141.496 144.215 142.077 145.985C142.563 147.465 145.726 148.472 146.58 150.318C147.732 152.806 145.722 155.625 143.39 156.552C140.666 157.636 136.785 157.382 138.792 153.491L138.794 153.491Z" fill="white"/>
<path d="M37.1224 148.994C39.9987 151.628 37.9685 155.491 34.7662 156.633C33.248 157.175 29.7706 157.726 29.8034 155.296C29.8068 155.03 30.108 153.886 30.2727 153.742C30.6288 153.433 31.7125 154.084 32.1663 154.151C33.2688 154.313 35.1518 153.84 35.1618 152.469C35.1732 150.964 31.2392 149.587 30.4581 147.827C29.3757 145.387 31.2814 142.714 33.4743 141.685C35.382 140.789 39.7812 140.078 38.4485 143.58C37.9652 144.85 37.7784 144.192 36.9825 144.113C35.9845 144.016 33.7474 144.067 33.5633 145.401C33.3859 146.689 36.2596 148.204 37.1224 148.994V148.994Z" fill="white"/>
<path d="M135.966 144.371C134.748 144.064 131.52 143.617 131.437 145.535C131.37 147.084 135.282 148.538 136.004 150.319C137.115 153.057 135.106 155.778 132.529 156.667C129.797 157.61 126.308 157.243 128.21 153.551C128.837 153.674 129.408 154.039 130.056 154.125C131.321 154.293 133.831 153.468 132.827 151.889C131.842 150.341 128.388 149.255 128.09 147.256C127.656 144.342 129.724 142.038 132.412 141.286C135.1 140.535 137.618 140.916 135.966 144.371Z" fill="white"/>
<path d="M128.039 160.761C128.668 161.342 128.517 163.65 128.481 164.534C128.337 168.039 127.919 171.275 128.515 174.812C128.641 175.56 129.298 176.046 128.311 176.412C127.436 176.736 125.995 176.918 125.077 176.776C122.901 176.439 123.893 172.94 123.936 171.502C124.006 169.155 124.096 166.168 123.936 163.86C123.901 163.359 123.371 161.211 123.409 161.074C123.599 160.399 127.316 160.091 128.04 160.76L128.039 160.761Z" fill="white"/>
<path d="M209.745 73.56V71.4178C210.095 71.3616 209.986 71.4693 210.051 71.7077C210.231 72.3537 209.991 73.4529 210.419 73.8907C210.767 74.2468 212.794 74.8948 213.408 75.1853C222.05 79.2775 229.688 85.9129 234.621 94.1361C234.992 94.754 236.37 97.7316 236.712 97.9364C236.935 98.0697 237.636 98.1674 237.928 98.1928C238.901 98.2779 242.606 98.1433 243.216 98.6614C243.592 98.9814 243.181 99.9287 242.873 100.196C242.59 100.443 241.593 100.876 241.208 100.942C240.139 101.124 239.073 100.804 237.994 100.873C239.142 103.999 240.176 107.193 240.766 110.485C243.426 125.343 239.198 139.338 229.689 150.741C228.808 151.798 227.527 152.733 227.081 154.024C226.739 155.016 226.575 156.208 226.344 157.238C226.112 157.269 226.219 156.934 226.213 156.772C226.182 155.962 226.452 155.211 226.28 154.427C224.6 155.668 223.076 157.137 221.38 158.364C217.736 160.999 213.662 162.982 209.477 164.601V174.174C209.477 174.321 209.15 174.366 209.015 174.382C207.878 174.515 205.376 174.396 204.221 174.209C201.976 173.845 199.458 171.875 197.095 171.822C195.638 171.789 193.744 172.561 192.608 173.436L196.154 173.159C198.588 173.144 200.816 174.928 203.157 175.541C205.151 176.064 207.424 176.124 209.477 176.249V177.99H168.912V175.245C171.162 174.268 173.619 173.851 176.073 173.975C176.381 173.99 179.882 174.487 179.892 174.174C178.702 173.578 177.387 173.165 176.111 172.758C176.019 172.729 176.017 172.53 175.912 172.506C175.195 172.341 173.879 172.322 173.131 172.368C171.708 172.455 170.344 173.003 168.912 173.036V160.049C171.687 161.442 174.533 162.662 177.512 163.566C195.204 168.933 213.76 163.824 226.482 150.717C226.579 149.385 226.641 148.061 226.619 146.722C226.527 141.224 225.769 135.598 221.321 131.803C219.147 129.948 217.322 129.576 214.492 129.651C214.281 129.657 213.493 129.928 213.493 129.591V126.913C213.493 126.402 214.385 126.577 214.729 126.615C217.551 126.939 221.246 128.648 223.128 130.8C226.705 134.887 227.645 138.278 227.823 143.644C227.881 145.403 227.768 147.177 227.818 148.937C227.985 149.127 228.722 148.014 228.836 147.88C233.514 142.408 236.054 136.137 237.871 129.227C239.164 124.308 239.607 118.734 238.923 113.397C238.501 110.097 237.15 104.593 235.678 101.642C235.528 101.34 235.486 101.037 235.372 100.731L231.237 100.466C222.203 100.377 213.181 100.522 204.213 101.567C203.756 101.717 204.23 102.362 204.12 102.747C203.911 102.766 203.956 102.471 203.853 102.306C203.806 102.231 203.643 102.223 203.622 102.178C203.45 101.81 203.835 101.664 203.251 101.672C199.837 101.719 195.248 102.779 191.808 103.353C180.706 105.204 169.517 107.297 158.742 110.585C156.729 111.198 154.694 111.699 152.845 112.721C151.295 113.577 150.272 115.085 148.871 116.134C147.32 116.073 144.5 116.365 143.417 115.058C143.171 114.761 143.141 114.519 143.334 114.189C143.378 114.114 144.37 113.169 144.495 113.079C146.405 111.712 150.93 110.385 153.28 109.676C159.16 107.901 165.418 106.488 171.431 105.2C181.757 102.987 192.176 101.067 202.65 99.6676C201.609 96.8593 200.524 94.0498 199.213 91.358C188.598 90.228 180.078 83.0571 172.318 76.3689C171.903 76.31 169.464 77.6127 168.909 77.9099C162.793 81.1854 157.46 85.9691 153.33 91.5166C152.715 92.3421 152.165 93.3529 151.537 94.1421C151.467 94.2305 151.261 94.6141 151.107 94.4467C150.977 94.3048 151.478 93.5691 151.586 93.3877C154.167 89.0431 158.482 84.481 162.423 81.3307C165.157 79.145 168.27 77.1501 171.455 75.7021C171.705 75.3587 169.7 74.1859 169.781 73.6985C170.332 74.0259 170.815 74.4423 171.308 74.8473C171.59 75.0789 171.448 75.358 172.045 75.3011C172.576 75.2509 174.468 74.2602 175.17 73.9964C178.165 72.8758 181.262 71.8958 184.45 71.4948C184.681 71.3395 184.552 70.0033 184.591 69.6277C184.688 68.7126 185.289 66.9641 186.403 66.9052C187.736 66.8349 190.459 69.7248 191.497 70.5884C197.717 70.5549 203.869 71.5945 209.744 73.5613L209.745 73.56ZM193.145 72.2218C193.084 72.4554 193.244 72.4895 193.345 72.6234C194.855 74.6183 196.677 76.4325 197.899 78.6456C199.344 81.261 200.165 84.3578 200.974 87.2189C201.269 87.6213 202.667 86.7195 203.039 86.4678C205.607 84.7273 207.37 81.6995 208.368 78.8103C208.536 78.3209 209.324 75.8487 209.149 75.5682C208.984 75.3052 205.859 74.3579 205.299 74.1919C201.363 73.0244 197.253 72.3135 193.145 72.2224V72.2218ZM197.696 88.0189C195.997 84.5486 193.734 80.8005 191.075 77.9728C190.568 77.4339 189.59 76.879 189.205 76.2276C188.868 75.6566 188.757 74.6658 188.483 74.0045C187.921 72.6475 187.635 72.4059 186.133 72.5063C184.506 72.6154 182.078 73.1422 180.45 73.5164C177.91 74.0995 175.472 75.0059 173.064 75.9719C172.899 76.1962 174.068 77.0691 174.28 77.2298C175.723 78.3209 177.517 79.5118 179.045 80.4972C184.549 84.0438 191.044 87.6159 197.696 88.0189ZM233.976 97.9264C233.999 97.7778 233.966 97.6573 233.917 97.5181C233.746 97.0354 232.801 95.4736 232.478 94.9408C227.972 87.5075 220.335 80.4992 212.429 76.8341C212.152 76.7063 210.71 76.0783 210.549 76.237C210.896 81.326 209.99 88.1273 204.695 90.3994C203.879 90.7495 202.863 91.0012 201.98 91.0983L203.588 99.531C207.273 99.3128 210.95 98.8388 214.633 98.5965C219.568 98.2718 224.544 98.0877 229.487 97.9204C230.979 97.8695 232.485 97.9699 233.977 97.9251L233.976 97.9264ZM206.532 171.834C202.13 170.684 198.662 167.68 193.843 168.849C191.673 169.375 189.999 170.821 188.015 171.589C186.557 172.153 185.756 171.812 184.34 171.333C180.624 170.078 176.428 167.296 172.618 170.115C172.38 170.291 171.381 171.075 172.178 171.015C174.111 170.871 176.128 170.518 178.044 170.935C180.724 171.517 184.311 173.95 186.926 173.978C188.668 173.996 192.01 171.768 193.817 171.098C198.49 169.365 200.208 172.663 204.59 172.366C205.133 172.329 206.175 172.229 206.532 171.834H206.532Z" fill="white"/>
<path d="M186.585 132.871C186.151 132.805 186.057 133.076 185.983 132.47C185.513 132.838 185.33 133.473 185.018 133.909C184.928 134.036 185.012 134.145 184.711 134.075C184.708 132.611 184.397 130.905 184.573 129.454C184.652 128.804 186.128 126.645 186.666 126.325C186.941 126.162 187.309 126.174 187.623 125.957C187.853 125.798 187.897 125.475 188.148 125.398C188.617 125.252 189.33 125.517 189.795 125.304C189.979 125.22 190.212 124.842 190.505 124.675C191.44 124.144 193.707 123.804 191.945 122.354C191.747 122.191 190.799 121.508 190.608 121.416C190.122 121.182 189.382 121.111 188.867 121.296C188.527 121.419 188.417 121.757 188.221 121.893C187.579 122.334 186.191 122.754 186.867 123.819C187.141 124.252 188.372 124.461 187.907 125.153C187.605 125.602 186.364 125.995 185.846 126.442C185.292 126.92 184.958 127.548 184.443 128.051C184.505 127.631 184.161 127.014 184.427 126.656C184.528 126.521 185.044 126.613 185.377 126.374C186.129 125.836 185.855 125.013 185.299 124.449C184.692 123.835 184.16 124.359 184.658 123.245C184.904 122.692 185.664 122.336 184.443 122.426C184.59 120.081 184.797 121.039 186.363 120.941C186.958 120.904 189.862 120.022 190.328 119.674C190.93 119.223 190.848 118.612 191.746 118.418C192.363 118.285 192.135 118.531 192.704 118.142C193.009 117.934 193.311 118.136 193.146 117.407C192.99 116.716 191.211 116.749 190.738 116.467C190.602 116.386 190.548 116.118 190.399 116.002C188.845 114.777 188.355 115.661 186.935 115.556C186.609 115.532 186.306 115.258 185.973 115.207C185.186 115.084 183.907 115.162 183.301 115.731C182.894 116.113 182.844 116.897 182.437 117.277C182.066 117.624 180.879 118.005 181.192 118.774C181.329 119.111 182.601 120.216 182.926 120.266C183.136 120.298 184.331 119.42 184.314 120.747C184.307 121.242 184.23 121.828 183.638 121.625C183.691 121.491 183.758 121.388 183.707 121.235C183.676 121.141 183.344 120.447 183.104 120.556L183.638 122.964C182.898 122.735 182.153 122.42 181.363 122.428C181.491 122.116 181.96 122.059 182.097 121.759C182.635 120.578 181.366 120.449 180.759 120.021C180.412 119.776 180.235 119.332 179.938 119.102C178.662 118.109 177.999 119.25 176.818 119.559C176.002 119.772 174.516 119.606 174.188 120.684C173.848 121.803 175.444 121.951 176.104 122.266C176.484 122.447 176.853 122.911 177.343 123.035C178.178 123.248 178.833 123 179.622 122.831C179.635 123.225 179.28 123.13 179.06 123.539C178.899 123.839 178.853 124.529 178.815 124.566C178.689 124.685 176.841 124.395 176.799 125.707C176.751 127.212 178.997 126.53 179.695 127.109C179.975 127.342 180.555 128.452 180.893 128.857C181.271 129.309 183.773 131.53 183.773 131.734V135.817C183.388 135.881 183.382 135.31 183.162 135.023C182.9 134.683 182.085 134.085 182.028 133.742C181.985 133.483 182.094 133.572 182.203 133.508C182.755 133.182 183.377 133.174 183.481 132.367C183.616 131.323 182.529 131.316 182.106 130.857C181.705 130.422 181.718 129.715 180.833 129.452C179.126 128.943 179.245 129.995 178.329 130.574C177.778 130.921 177.141 130.874 176.61 131.264C175.628 131.984 175.885 133.094 177.071 133.348C177.556 133.453 178.657 133.614 179.154 133.648C179.998 133.705 180.4 133.306 181.408 133.83C182.05 134.164 182.723 135.037 181.534 134.642C181.364 134.586 180.791 134.071 180.829 134.543C181.337 135.002 182.811 135.393 183.199 135.854C183.466 136.172 183.872 137.692 183.912 138.155C184.121 140.582 184.012 143.808 184.046 146.321C184.095 149.826 184.047 153.342 183.982 156.845C183.815 157.084 181.704 156.87 181.297 156.836C179.453 156.682 177.444 156.115 175.672 156.035C173.678 155.946 171.893 156.935 170.208 157.798C169.843 157.985 169.313 158.225 168.912 158.309V112.855C168.912 112.841 169.099 112.654 169.113 112.654H209.476V155.23C207.005 155.193 204.379 154.586 201.913 154.83C200.675 154.952 200.331 155.571 199.356 156.021C199.022 156.174 198.679 156.139 198.393 156.259C198.234 156.325 198.253 156.54 198.137 156.566C197.515 156.705 196.26 156.754 195.615 156.709C195.409 156.695 194.42 156.565 194.34 156.511C193.986 156.272 194.432 151.287 194.075 150.483C194.337 147.989 193.747 144.847 194.07 142.435C194.1 142.208 194.264 142.283 194.338 142.135C194.382 142.049 194.313 141.858 194.38 141.743C194.485 141.561 195.439 141.116 195.69 140.97C195.767 140.926 196.203 140.844 195.953 140.637C195.822 140.529 195.054 141.082 195.018 141.038L195.219 140.505C194.626 140.721 194.562 141.645 193.946 141.574V138.829C193.946 138.587 194.7 137.953 194.951 137.828C194.666 138.779 193.509 138.931 194.683 139.832C195.534 140.486 198.814 140.36 199.496 139.561C200.514 138.368 198.337 138.043 197.838 137.748C197.022 137.265 196.96 136.446 195.555 137.09C195.929 136.621 196.587 135.555 197.085 135.274C197.529 135.022 198.794 135.245 199.019 134.384C199.201 133.687 197.782 133.504 197.497 133.27C197.419 133.206 196.822 132.269 196.892 132.203C197.765 132.384 198.089 132.516 198.931 132.166C199.391 131.975 200.963 131.18 200.915 130.669C200.843 129.912 199.721 130.015 199.265 129.895C198.314 129.646 197.239 129.039 196.289 129.658C196.172 129.734 195.123 130.786 195.086 130.866C194.811 131.455 195.454 131.759 195.224 132.074C195.084 132.265 194.113 132.222 193.813 132.336C194.064 131.538 193.422 131.699 193.402 131.594C193.333 131.25 193.468 130.707 193.41 130.328C194.135 130.624 195.6 129.938 195.668 129.167C195.698 128.828 194.781 128.284 194.558 128.043C194.305 127.77 194.231 127.354 193.818 127.042C192.662 126.171 192.116 126.947 190.937 126.988C190.026 127.019 187.925 126.532 187.243 127.039C186.976 127.239 186.844 127.621 186.578 127.846C186.293 128.087 185.646 128.285 185.385 128.528C184.703 129.163 185.077 129.885 185.818 130.222C186.292 130.436 188.754 130.872 188.859 130.999C189.213 131.424 187.308 132.176 186.992 132.411C186.783 132.567 186.727 132.712 186.583 132.872C187.903 133.073 188.61 134.002 189.363 134.185C189.854 134.303 190.369 133.861 190.866 134.211C190.634 133.154 192.475 133.1 191.201 132.069C190.532 131.527 188.699 131.019 190.784 130.77C191.022 130.867 191.195 130.975 191.466 131.001C192.739 131.125 193.142 130.26 193.276 132.068L192.343 131.866C193.983 133.031 192.514 133.304 192.461 134.143C192.402 135.05 193.758 134.802 193.41 135.95L192.879 135.882L193.009 136.62C192.497 136.262 191.157 135.149 190.553 135.185C190.25 135.203 189.939 135.495 189.636 135.588C188.98 135.792 186.053 136.281 187.473 137.404C187.698 137.582 189.786 138.578 190.019 138.589C190.24 138.6 192.512 137.769 192.738 137.619C192.901 137.511 193.005 137.353 193.011 137.155C193.47 137.321 193.143 137.799 193.137 138.154C193.123 138.846 193.161 139.543 193.142 140.234C192.754 140.156 192.651 139.379 192.388 139.31C192.202 139.261 191.957 139.448 191.742 139.43C191.505 139.41 191.223 139.039 190.867 139.165C191.24 139.725 192.068 139.664 192.478 140.164C192.682 140.413 193.086 141.456 193.132 141.786C193.402 143.743 193.056 145.97 193.004 147.927C192.935 150.496 192.894 153.068 192.741 155.63C192.416 155.527 191.918 155.569 191.635 155.489C191.525 155.458 191.537 155.271 191.432 155.241C189.322 154.643 187.77 155.505 185.915 156.3C185.879 155.524 185.96 154.735 185.912 153.959C185.625 149.341 185.121 144.665 184.971 140.039C184.935 138.935 184.832 134.902 185.387 134.151C185.611 133.846 185.915 134.007 186.024 133.919C186.099 133.859 186.097 133.411 186.184 133.241C186.229 133.152 186.46 133.008 186.583 132.87L186.585 132.871ZM186.116 132.202V132.336C186.203 132.291 186.203 132.247 186.116 132.202ZM192.475 135.282C192.329 135.136 192.062 135.402 192.208 135.548C192.354 135.694 192.62 135.428 192.475 135.282ZM192.676 135.549V135.683C192.763 135.638 192.763 135.594 192.676 135.549ZM196.357 140.504C196.169 140.408 196 140.589 196.091 140.635C196.279 140.732 196.448 140.55 196.357 140.504Z" fill="white"/>
<path d="M183.639 127.784L183.773 130.462C183.538 130.692 182.309 129.91 182.194 129.561C182.139 129.393 182.192 129.014 182.167 128.988C182.109 128.928 180.688 129.093 181.03 128.185C181.865 128.067 181.789 128.787 182.095 128.718C182.218 128.69 183.175 127.666 183.639 127.785L183.639 127.784Z" fill="white"/>
<path d="M194.082 137.825V135.95C195.374 136.165 195.324 137.671 194.082 137.825Z" fill="white"/>
<path d="M151.041 94.58C151.128 94.6248 151.128 94.669 151.041 94.7138V94.58Z" fill="white"/>
<path d="M197.696 88.0188C191.044 87.6158 184.55 84.0438 179.046 80.4971C177.516 79.5118 175.722 78.3208 174.28 77.2297C174.067 77.069 172.899 76.1961 173.064 75.9718C175.472 75.0058 177.911 74.0994 180.45 73.5164C182.078 73.1422 184.506 72.6153 186.133 72.5062C187.635 72.4058 187.921 72.6475 188.483 74.0044C188.757 74.6658 188.869 75.6565 189.205 76.2275C189.59 76.8789 190.568 77.4339 191.075 77.9727C193.734 80.8004 195.997 84.5485 197.696 88.0188Z" fill="#FBEA2B"/>
<path d="M193.145 72.2217C197.254 72.3128 201.363 73.0237 205.299 74.1912C205.858 74.3572 208.984 75.3044 209.149 75.5675C209.324 75.848 208.537 78.3195 208.368 78.8096C207.371 81.6988 205.607 84.7266 203.039 86.4671C202.667 86.7188 201.269 87.6206 200.974 87.2182C200.165 84.3571 199.345 81.261 197.899 78.6449C196.676 76.4318 194.854 74.6176 193.345 72.6227C193.244 72.4888 193.084 72.4547 193.145 72.2211V72.2217Z" fill="#FBEA2B"/>
<path d="M18.1689 176.785L70.4454 160.851L63.8206 176.785H18.1689Z" fill="#FBEA2B"/>
</g>
<defs>
<clipPath id="clip0_3376_10818">
<rect width="256" height="256" fill="white"/>
</clipPath>
</defs>
</svg>
