<svg width="256" height="256" viewBox="0 0 256 256" fill="none" xmlns="http://www.w3.org/2000/svg">
<path d="M193.322 18.5971C225.496 38.434 248.029 71.7675 253.467 109.465C254.935 119.642 254.895 136.299 253.494 146.499C247.367 191.072 215.486 231.261 173.625 247.347C124.719 266.14 69.8425 252.992 34.8883 214.404C-15.8479 158.394 -7.70048 71.3777 52.3034 25.766C93.085 -5.23412 149.566 -8.38104 193.322 18.5971ZM121.466 4.303C78.9123 5.93801 39.1306 32.636 19.6639 70.0156C-12.9489 132.638 12.4816 210.008 75.9741 240.218C131.565 266.669 197.469 247.172 230.648 196.083C263.942 144.816 255.137 76.9776 210.169 35.9141C185.534 13.4182 154.85 3.02032 121.466 4.303Z" fill="#C2AB3E"/>
<path d="M121.466 4.30295C154.85 3.02028 185.534 13.4191 210.168 35.9132C255.137 76.9766 263.941 144.815 230.647 196.082C197.468 247.172 131.564 266.668 75.9731 240.217C12.4816 210.008 -12.949 132.637 19.6638 70.0156C39.1305 32.636 78.9122 5.93796 121.466 4.30295ZM76.9641 65.3237C56.568 83.7753 46.8293 107.887 49.6105 135.637C54.8357 187.771 109.738 221.577 158.603 200.749C203.712 181.521 220.998 127.045 196.216 84.6539C171.77 42.8412 113.376 32.3836 76.965 65.3237H76.9641Z" fill="#164F15"/>
<path d="M76.9642 65.3238C113.375 32.3836 171.77 42.8412 196.215 84.654C220.998 127.045 203.711 181.521 158.602 200.749C109.738 221.577 54.8349 187.771 49.6096 135.637C46.8284 107.886 56.5671 83.7754 76.9633 65.3238H76.9642ZM124.142 50.8647C91.4304 52.505 64.6833 75.3978 56.6545 106.828C43.578 158.019 86.2417 208.543 139.227 201.174C165.692 197.494 188.936 178.182 197.86 153.126C215.658 103.146 177.885 48.1691 124.142 50.8647Z" fill="#C2AB3E"/>
<path d="M124.142 50.8647C177.885 48.1691 215.659 103.146 197.859 153.126C188.936 178.182 165.692 197.493 139.227 201.174C86.2408 208.543 43.5771 158.019 56.6545 106.828C64.6833 75.3988 91.4312 52.506 124.142 50.8647Z" fill="#164F15"/>
<path d="M129.977 230.815C130.134 230.863 130.214 231.098 130.244 231.261C130.347 231.822 130.302 235.09 129.898 235.374L120.424 235.192L120.432 232.419L121.325 232.421C121.164 230.2 121.899 227.158 121.503 225.017C121.362 224.256 119.465 224.458 118.931 224.943C118.631 225.216 117.399 226.983 117.398 227.334C117.872 227.629 119.326 227.119 119.523 227.72C119.754 228.422 118.598 231.948 119.176 232.342C119.376 232.478 119.85 232.38 119.899 232.421C120.002 232.509 119.314 234.639 119.542 235.097L115.082 234.56L115.617 229.388C115.121 229.551 114.007 228.962 113.734 229.38C113.406 229.882 113.289 233.356 113.12 234.206L108.662 233.667L108.837 230.994C108.919 230.914 109.803 231.177 109.878 230.696C109.845 229.612 111.088 223.817 110.719 223.31C110.582 223.121 110.133 223.234 110.074 223.037C109.891 222.424 110.472 221.199 110.265 220.469L114.903 221.006C114.719 222.834 114.144 224.712 114.279 226.537C114.563 226.548 116.828 222.121 117.313 221.72C117.852 221.276 120.538 221.867 121.407 221.904C128.029 222.182 134.813 222.002 141.366 220.976C143.576 220.63 146.882 219.402 148.897 219.395C151.588 219.385 152.676 224.265 150.405 225.642C153.004 225.767 154.142 230.993 151.879 232.203C149.792 233.319 145.762 233.263 143.448 234.207C143.611 233.551 142.739 231.824 143.274 231.439C143.406 231.345 143.736 231.393 143.788 231.338C144.058 231.052 142.303 224.607 142.109 223.68L141.66 223.788L141.663 226.002L139.165 226.181L139.139 224.245C138.864 224.004 137.816 223.984 137.732 224.338C137.766 225.258 138.17 231.651 138.489 231.854C138.638 231.948 138.988 231.847 139.168 231.97C139.542 232.227 139.57 234.043 139.501 234.545L134.178 235.091C134.075 234.993 133.906 232.786 133.98 232.534C134.038 232.334 134.487 232.449 134.626 232.259C135.072 231.645 133.956 226.177 134.172 225.02C134.081 224.338 133.258 224.614 132.743 224.574L132.923 226.713C132.849 226.816 130.515 227.078 130.413 226.998C130.234 226.858 130.334 226.403 130.136 226.346C129.613 226.196 128.07 226.381 127.394 226.275C126.693 225.971 127.6 225.002 126.917 224.78C126.663 224.697 125.43 224.697 125.238 224.83L125.071 227.251L127.925 227.43L127.748 229.748H125.072C125.043 230.29 124.556 232.409 125.183 232.589C125.465 232.67 126.561 232.23 127.035 232.425C127.035 232.129 126.93 230.818 127.302 230.818C127.888 230.818 129.584 230.697 129.978 230.818L129.977 230.815ZM148.243 224.907C148.245 224.398 148.116 222.745 147.727 222.508L145.764 222.786L146.122 225.283L148.243 224.906V224.907ZM148.967 227.434L146.909 227.771L147.378 230.454L149.438 229.928L148.967 227.434Z" fill="#FDFEFD"/>
<path d="M86.8946 219.398C87.024 219.965 87.478 220.336 87.569 220.96C87.7474 222.186 86.2711 225.307 84.9831 225.603C82.9824 226.063 78.6188 222.938 76.5583 222.326L76.247 221.989C76.2292 221.822 77.0382 220.043 77.1675 219.93C77.5636 219.586 78.0577 219.871 78.3021 219.726C78.617 219.538 80.8907 213.845 81.3643 213.062V212.798C80.0085 212.933 81.5445 210.787 81.8273 210.106C82.1858 210.047 87.7492 212.724 88.4396 213.124C88.9417 213.415 89.9318 214.096 90.1477 214.626C90.7926 216.207 89.0595 220.007 86.8946 219.398ZM84.5978 214.604C83.8271 216.293 83.217 217.131 85.5281 217.598C86.8393 215.987 87.0097 214.785 84.5978 214.604ZM84.5746 219.757L82.6095 219.115C82.3696 219.456 81.3277 221.475 81.5436 221.713L83.5015 222.429L84.5746 219.756V219.757Z" fill="#FDFEFD"/>
<path d="M158.592 216.378L163.785 225.55C165.183 225.475 165.217 227.102 165.567 228.137L161.569 229.359C160.269 227.82 160.625 225.343 158.094 227.364L158.59 230.438L154.512 231.707C154.448 231.171 153.595 229.37 153.867 229.019C153.998 228.85 154.41 228.903 154.479 228.828C154.837 228.436 153.091 219.578 153.286 218.267C153.453 217.787 157.805 216.56 158.592 216.378H158.592ZM157.361 224.75C157.788 224.775 158.96 224.702 158.968 224.134C158.976 223.566 157.075 220.576 156.649 219.933L157.361 224.75Z" fill="#FDFEFD"/>
<path d="M98.1265 228.146C98.2594 228.285 97.379 230.751 97.1569 230.789L93.3187 229.562C93.1038 229.349 93.8789 226.912 93.8414 226.424C93.7995 225.879 92.2296 225.585 91.7256 225.657L90.3529 228.291L86.5521 227.052L87.2577 224.394C87.3933 224.301 87.808 224.567 88.031 224.528C88.6849 224.412 92.7898 216.456 93.7933 215.491C94.1929 215.362 98.5154 216.994 98.9971 217.556L97.4174 227.165C97.3532 228.48 97.9374 227.95 98.1265 228.146ZM95.4559 219.22L94.5336 220.347C94.3829 220.889 92.8808 223.123 93.1457 223.488L94.5639 223.857L95.4559 219.22Z" fill="#FDFEFD"/>
<path d="M109.881 220.313C110.075 220.615 109.315 223.753 109.02 223.963L106.171 223.309L106.339 222.255C105.871 222.228 104.581 221.501 104.288 221.89C104.094 222.146 103.688 223.997 103.858 224.197C108.659 224.99 109.471 226.053 107.893 230.674C106.448 234.909 101.583 231.372 98.5618 231.182C98.3397 230.886 99.2754 227.275 99.4939 227.231C99.9123 227.31 102.485 227.846 102.571 227.979C102.731 228.224 102.457 228.808 102.437 229.107L104.273 229.723C104.525 229.659 105.081 227.263 104.902 227.076C101.091 226.395 99.4868 226.137 100.539 221.895C100.812 220.795 101.313 219.058 102.578 218.761C104.273 218.362 108.049 219.996 109.879 220.314L109.881 220.313Z" fill="#FDFEFD"/>
<path d="M166.809 216.002C166.754 216.06 166.341 215.955 166.287 216.011C165.909 216.4 168.951 222.135 169.158 223.119L170.576 222.669C170.715 221.999 169.741 220.983 170.107 220.461C170.213 220.309 172.862 218.981 173.151 219.574L175.026 223.763L166.544 227.597C165.927 227.579 165.375 225.663 165.21 225.107L165.918 224.918L163.054 218.075C162.762 217.551 162.259 217.899 161.823 217.97L160.915 215.408C162.465 214.804 164.044 213.783 165.653 213.502C166.209 213.509 167.017 215.791 166.81 216.002L166.809 216.002Z" fill="#FDFEFD"/>
<path d="M175.349 211.696C175.228 211.892 174.629 211.685 174.922 212.625C175.699 213.421 177.668 218.247 178.232 218.601C178.64 218.857 179.535 218.443 179.639 218.024C179.783 217.439 178.549 216.464 178.844 216.005C179.646 215.789 181.31 214.104 181.96 214.87C182.161 215.107 183.947 218.562 183.944 218.782C183.936 219.252 176.783 222.853 175.824 223.342C175.432 223.347 174.327 221.017 174.493 220.833C174.869 220.818 175.353 220.728 175.127 220.278L171.618 213.878C171.438 213.746 170.899 214.181 170.562 213.969C170.35 213.835 169.152 211.829 169.715 211.496C170.263 211.172 173.527 209.39 173.867 209.392C174.481 209.396 175.521 211.419 175.348 211.697L175.349 211.696Z" fill="#FDFEFD"/>
<path d="M241.118 124.133C241.145 124.137 241.729 124.335 241.477 124.491L233.531 129.969L236.568 139.296L227.916 133.957L219.534 139.299L222.092 130.141L214.092 124.491L224.267 124.23L227.473 115.213C227.88 115.138 227.756 115.239 227.869 115.442C229.149 117.747 229.758 121.463 231.002 123.722C231.109 123.916 231.214 124.106 231.401 124.237C231.649 124.357 231.777 124.133 231.841 124.133C234.542 124.133 238.604 123.795 241.117 124.133H241.118Z" fill="#C2AB3E"/>
<path d="M243.794 141.259C246.276 141.671 246.317 146.46 244.063 147.415C244.028 147.485 245.187 148.156 245.295 148.322C245.962 149.35 245.77 153.925 244.151 153.925H236.569C236.668 153.271 236.317 151.825 236.827 151.412C237.064 151.219 237.536 151.378 237.474 150.993L237.472 144.036L236.593 143.644L236.57 141.259C238.748 141.516 241.718 140.914 243.795 141.259H243.794ZM240.698 146.407L242.378 146.265L242.289 143.833L240.495 143.937L240.697 146.407H240.698ZM240.786 148.599C240.264 148.77 240.507 150.74 240.571 151.26L242.288 151.349L242.378 148.74C242.21 148.5 241.073 148.505 240.785 148.599H240.786Z" fill="#C2AB3E"/>
<path d="M235.32 141.259V144.738C235.32 145.114 232.743 145.134 232.543 144.839L232.467 143.934C232.11 143.958 230.504 143.796 230.504 144.203V151.16C230.504 151.519 231.981 151.5 232.3 151.35L232.468 148.93L231.474 148.764L231.396 146.433H235.321V153.925C233.034 153.48 227.793 155.317 227.463 151.883C227.283 150.005 227.241 145.14 227.488 143.327C227.605 142.471 228.434 141.259 229.345 141.259H235.321H235.32Z" fill="#C2AB3E"/>
<path d="M225.508 141.259V145.006C224.408 144.836 222.514 145.64 222.832 143.934H221.048L221.048 146.254H223.992C224.076 146.254 225.265 146.939 225.427 147.138C226.003 147.85 226.027 151.447 225.828 152.371C225.728 152.838 224.77 153.926 224.349 153.926H218.016V150.179C219.083 150.143 219.977 149.95 221.047 150.181V151.429H222.833L222.666 148.83C219.77 148.698 217.837 149.296 217.822 145.631C218.216 144.635 217.658 142.2 218.659 141.634C218.788 141.561 219.8 141.258 219.889 141.258H225.508V141.259Z" fill="#C2AB3E"/>
<path d="M216.41 141.259V145.362C214.986 145.216 213.343 146.055 213.735 143.934H211.95V151.428L213.657 151.261L213.734 149.287H216.588V153.925H209.899C209.61 153.925 208.814 152.614 208.751 152.219C208.485 150.542 208.584 145.651 208.733 143.841C208.812 142.871 209.197 141.26 210.434 141.26H216.41V141.259Z" fill="#C2AB3E"/>
<path d="M87.4246 27.6131C87.1204 27.6274 86.7039 27.6533 86.7128 28.0574C87.2516 28.9261 89.9373 35.435 90.3066 35.6348C90.477 35.7267 90.9738 35.2432 91.4582 35.6303C91.6678 35.798 92.5 37.7327 92.4054 38.0253L88.2702 40.0822L82.0771 35.4707L84.944 41.785L80.7659 43.6573C80.2834 42.8634 78.5707 40.7298 80.2923 40.6406C79.7366 39.7335 76.9108 33.0159 76.5308 32.8036C76.2632 32.6538 75.8038 33.3236 75.5603 32.9891L74.4221 30.4149L78.5654 28.3713L84.9297 33.1488C84.0823 31.2471 83.1671 29.3837 82.31 27.4838C82.1958 27.2314 81.6481 27.3001 82.0834 26.6917C82.2529 26.4553 85.8351 24.7133 86.0625 24.7802L87.4237 27.6131H87.4246Z" fill="#FDFEFD"/>
<path d="M141.125 24.2299L141.739 17.4401C141.999 17.061 143.895 17.5632 144.43 17.6257C144.964 17.6881 146.292 17.4098 146.461 17.9227C146.616 18.3954 146.054 20.1455 146.301 20.8404L145.05 20.8386L144.337 29.4034L145.231 29.4017L144.885 32.5397L140.322 32.0812L137.556 24.9435C137.296 24.6786 137.234 24.964 137.204 25.2093C136.934 27.3599 136.897 29.5667 136.668 31.7226L131.926 31.199C131.792 31.0135 132.062 28.5025 132.197 28.4125C132.469 28.2305 133.108 28.4883 133.254 28.0423L133.996 20.3855C134.044 19.2241 133.279 19.7495 133.105 19.5854C132.917 19.4079 133.257 17.0361 133.278 16.5615L138.022 17.0771C138.473 17.4187 140.077 22.7028 140.632 23.7429C140.738 23.94 140.892 24.18 141.124 24.2308L141.125 24.2299Z" fill="#FDFEFD"/>
<path d="M216.234 72.5764C216.307 73.4719 216.25 74.0785 215.669 74.7787C215.325 75.1935 213.61 76.2808 213.565 76.4369C213.449 76.8338 214.051 77.0568 213.834 77.3958L211.352 78.8096C210.794 77.9738 208.957 75.784 209.091 74.8179C209.2 74.0276 212.714 72.1598 213.531 71.6576C213.708 71.3535 212.832 69.8371 212.543 69.7416C211.71 69.4687 208.509 72.3204 207.427 72.5487C206.822 71.9047 204.607 68.9371 204.801 68.2235C204.836 68.0959 206.803 67.2084 207.075 66.8926C207.643 66.8373 207.515 67.955 208.199 67.4885L214.957 62.9991C214.159 62.0822 216.664 60.5274 217.175 60.6478C217.399 60.7005 217.589 60.9966 217.736 61.1714C218.38 61.9412 222.072 67.9086 222.218 68.6409C222.275 68.9246 222.321 69.1485 222.304 69.4473C222.197 71.3989 218.051 74.1953 216.234 72.5764ZM217.075 66.5323C216.895 66.5599 215.039 67.7605 215.001 67.8783C214.832 68.3974 215.561 69.392 216.001 69.6979C216.476 69.8879 218.272 68.6561 218.35 68.3484C218.461 67.9166 217.607 66.4493 217.074 66.5323H217.075Z" fill="#FDFEFD"/>
<path d="M206.9 48.5177C207.105 48.4776 207.194 48.6399 207.321 48.7487C207.6 48.9878 209.692 51.3578 209.814 51.6093C209.963 51.9162 210.094 52.1044 209.964 52.4764L201.766 59.6336C201.262 60.2705 202.655 61.8725 203.31 61.3543L211.707 54.0355L215.153 57.6802L212.907 59.7202C212.462 59.796 212.544 58.8603 211.605 59.4749C209.529 60.8325 206.864 64.2978 204.805 65.3415C203.667 65.9177 202.887 65.8151 201.873 65.0819C201.013 64.4602 197.944 60.8298 197.64 59.8602C197.153 58.3064 198.356 57.3038 199.369 56.3369C201.154 54.6332 203.371 53.1525 205.096 51.3426C205.28 51.0206 204.818 50.8253 204.811 50.5407C204.8 50.1447 206.444 48.7693 206.901 48.5168L206.9 48.5177Z" fill="#FDFEFD"/>
<path d="M123.617 31.3399L119.118 31.8787L118.095 28.5302L115.872 28.6791L115.774 32.2391C115.038 32.339 111.199 33.0971 110.876 32.6271L110.619 29.7602L111.488 29.7361L112.572 17.7086L118.654 16.9888L122.394 28.2447C123.975 28.0958 123.484 30.1875 123.617 31.3399ZM115.794 26.0148L117.323 25.8489C117.698 25.3235 116.161 21.57 116.148 20.6646C115.967 20.612 115.793 21.4228 115.793 21.4665V26.0157L115.794 26.0148Z" fill="#FDFEFD"/>
<path d="M45.8758 72.9135L48.5098 75.1292L46.1978 78.9755C45.8562 79.1922 43.9108 77.9586 43.7101 77.6723C43.1543 76.8793 43.9054 76.8258 43.9045 76.7678C43.8947 76.1845 36.4725 69.6988 35.5065 68.7016C35.337 68.4331 35.3245 68.2511 35.4253 67.9505C35.5466 67.592 38.2948 63.3238 38.5499 63.1989C38.7908 63.0812 38.9941 63.1392 39.2234 63.2373L49.4259 67.3351C49.9076 67.5545 50.177 66.6322 50.5632 66.7018C50.7683 66.7383 52.2722 68.0237 52.7441 68.1111C52.8886 68.335 50.6961 72.0126 50.5016 72.1393C49.9789 72.4783 47.8845 70.8968 47.2057 70.9637C46.7276 71.0101 45.7402 72.6745 45.8749 72.9127L45.8758 72.9135ZM39.6203 67.7561C40.5578 67.938 42.9429 70.8031 43.488 70.9503C44.033 71.0975 44.4665 70.0556 44.6029 69.6507L39.7113 67.4002L39.6212 67.7561H39.6203Z" fill="#FDFEFD"/>
<path d="M196.202 40.506C197.912 40.159 200.04 42.0955 201.249 43.2274C203.29 45.139 203.751 46.0309 202.034 48.4768C201.156 49.7264 196.572 55.1765 195.48 55.659C194.944 55.8954 194.462 56.0613 193.859 55.9784C192.698 55.8178 188.491 52.2766 188.166 51.1385C188.037 50.6835 188.005 50.3205 188.06 49.8486C188.204 48.6257 191.602 44.7795 192.592 43.6734C193.45 42.7145 194.956 40.7593 196.203 40.506H196.202ZM198.87 45.3352C198.6 44.998 197.513 44.0918 197.092 44.5601C195.815 46.2959 194.208 47.8015 192.867 49.4794C192.632 49.7728 191.839 50.6648 192.047 50.9904C192.653 51.1866 193.103 52.2757 193.749 51.9769L199.023 45.9881C199.144 45.7482 199.021 45.5234 198.87 45.3343V45.3352Z" fill="#FDFEFD"/>
<path d="M179.295 33.1471L175.914 31.7208C175.947 31.1562 176.629 30.7575 175.985 30.3132C175.646 30.0795 174.216 29.4614 173.968 30.0456C173.761 31.174 170.374 36.9755 170.763 37.5874C171.364 37.6623 172.273 38.6417 172.793 38.1485C173.21 37.7524 174.434 35.2156 172.886 35.4636C172.753 35.3146 173.71 32.9285 174.072 32.8117C174.39 32.7091 178.52 34.6206 178.576 34.8633L174.575 42.9616C174.497 43 174.493 42.6815 174.264 42.5531C172.265 41.4292 166.339 39.903 166.47 37.1896C166.528 35.9952 169.161 30.7245 169.873 29.341C171.156 26.8523 171.716 25.3279 174.89 26.4153C175.537 26.6365 180.643 28.9494 180.832 29.2188C181.262 29.8351 179.384 32.3291 179.295 33.148V33.1471Z" fill="#FDFEFD"/>
<path d="M71.5293 32.4593L73.6764 36.2431L71.2528 37.9361C70.6142 38.0262 70.3921 36.9674 70.1967 36.9023C69.8283 36.7801 68.6491 37.5338 68.5457 37.9183C68.411 38.4169 69.426 40.0644 69.8587 40.117C70.9977 40.0662 71.8032 38.1252 72.8798 39.2259C74.769 41.1571 72.7371 41.4755 71.3617 42.5263L73.0814 45.0988L74.7467 43.9089C74.8886 43.3514 73.8048 42.8519 74.1277 42.248L76.6672 40.4881C77.1738 40.4364 79.1184 43.8901 79.5715 44.4574L70.5945 50.4302C70.285 50.3695 69.6241 49.1127 69.3841 48.7782C69.2459 48.5847 68.8828 48.4972 68.8632 48.3848C68.7526 47.7399 69.5795 47.657 69.6036 47.4929C69.674 47.0228 65.4701 41.1277 64.8403 40.2981L63.9038 40.6174L62.4819 38.2599C62.605 37.9665 62.8833 37.83 63.1099 37.6409C63.8565 37.0174 70.4554 32.594 70.9745 32.4754C71.1431 32.437 71.3884 32.3692 71.5302 32.4593H71.5293Z" fill="#FDFEFD"/>
<path d="M193.197 36.74C193.392 37.0736 191.168 40.2812 190.791 40.8083L188.124 39.2179C187.786 38.6952 188.724 38.1788 188.592 37.5517L186.903 36.5536C186.565 37.0807 185.47 38.1886 185.538 38.7684C185.605 39.3482 187.531 39.9324 187.843 40.5782C186.569 43.6261 186.077 42.3782 183.871 41.1919L182.352 43.7314C182.691 44.164 183.781 44.9596 184.298 44.6617C184.613 44.4798 184.783 43.4861 185.277 43.4879C185.689 43.85 187.732 44.8704 187.849 45.2246C188 45.6839 185.709 49.2688 185.253 49.3571L176.285 43.5646C176.494 43.2452 177.588 41.2713 177.738 41.224C178.212 41.0742 178.445 41.5041 178.68 41.488C179.134 41.4577 182.598 35.4573 183.273 34.6991C183.696 34.1898 182.755 33.8731 182.734 33.5993L184.233 31.199L193.196 36.7409L193.197 36.74Z" fill="#FDFEFD"/>
<path d="M50.573 57.1254C51.5667 55.981 52.522 54.5012 54.3202 54.7447C55.2711 54.8731 58.9862 58.0102 59.2039 58.9664C59.3002 59.3892 59.2886 60.0663 59.2012 60.4944C58.8399 62.2677 54.8563 65.5261 53.7824 67.2164L50.5168 64.1293C50.5462 63.9669 52.4926 61.6692 52.6406 61.5951C53.3471 61.2401 53.5371 62.4238 54.0678 62.1508C54.3987 61.7566 55.6207 60.8744 55.2363 60.2687C55.0945 60.0448 53.4238 58.7827 53.125 58.8594C51.5916 60.0832 50.6381 62.6102 48.3118 62.1874C47.2254 61.9903 43.9821 59.135 43.661 58.0994C43.355 57.112 43.6307 56.5786 44.1106 55.7508C44.7439 54.659 47.1335 51.9938 48.0906 50.9894C48.2984 50.7709 48.6918 50.2714 48.9844 50.2714L52.0947 53.0196C51.4712 53.4807 50.4535 55.5403 49.7113 55.4574C49.4116 55.4235 49.1993 55.0221 48.8434 55.1122C48.7355 55.1389 47.8881 55.9426 47.815 56.0657C47.1942 57.1138 48.8033 57.5955 49.3652 58.293C49.7122 58.3554 50.3446 57.3894 50.573 57.1263V57.1254Z" fill="#FDFEFD"/>
<path d="M229.236 83.2633C228.459 83.2419 225.838 84.992 225.352 84.6842L224.081 81.7558C224.088 81.2858 224.773 81.1448 225.152 81.1377L224.414 79.2021C223.472 78.9657 222.795 79.6481 221.968 79.9166C222.053 82.3338 224.891 84.6022 222.207 86.668C221.428 87.2683 217.998 88.7124 217.057 88.6232C216.116 88.534 215.572 87.8856 215.089 87.1871C213.78 85.2952 213.059 82.4275 211.976 80.359C212.055 79.9362 215.333 78.7133 215.947 78.4858C216.109 78.5242 217.425 81.2269 217.456 81.4481C217.563 82.2027 216.561 82.0475 216.43 82.5033C216.288 82.9921 217.074 83.9921 217.134 84.5237L219.788 83.3445C218.831 79.9942 216.567 78.2958 220.66 76.1979C222.662 75.1712 224.817 74.0152 226.372 76.2603C226.947 77.0908 228.895 81.391 229.171 82.3802C229.251 82.6683 229.319 82.9627 229.238 83.2606L229.236 83.2633Z" fill="#FDFEFD"/>
<path d="M67.2059 53.4237C65.7849 55.0248 63.6076 56.2959 62.1938 57.9577C61.4294 58.5098 60.9834 57.1406 60.4954 56.6054C60.1957 56.2763 58.9728 55.3299 58.9202 55.2398C58.4242 54.3862 61.0949 53.1419 61.4971 52.431L62.696 53.2962C62.9796 52.8564 64.3738 52.1304 64.1526 51.7031C64.0241 51.4542 62.547 49.7318 62.3668 49.7318C60.6828 50.8477 59.0362 53.4799 56.6965 52.3774C55.7233 51.919 52.9466 48.6106 52.877 47.4876C52.7361 45.1952 57.8784 42.5504 58.9728 40.6451C59.4313 40.6888 61.9619 43.5494 61.8985 43.9178C61.3892 44.4646 59.9139 46.1835 59.1914 45.9712C58.9443 45.8989 58.7766 45.5118 58.5928 45.4779C58.2548 45.4164 56.8392 46.4921 57.1889 47.2396C57.2531 47.3761 58.6365 48.8621 58.773 48.8371C60.5293 47.567 62.0172 44.9891 64.4719 46.2058C65.2194 46.576 67.8784 49.5168 68.0773 50.2715C68.4136 51.5452 68.0363 52.4871 67.2059 53.4237Z" fill="#FDFEFD"/>
<path d="M105.798 18.8842L106.696 23.1595C105.931 22.8919 104.238 23.924 103.759 23.8874C103.181 23.8428 103.256 22.9544 102.83 22.8224C102.589 22.7474 101.029 23.0739 100.98 23.2799C100.924 23.7688 101.198 25.6803 101.638 25.823C105.843 25.0015 107.565 23.808 108.749 28.6907C109.213 30.6049 109.768 32.5084 107.591 33.5993C106.513 34.139 102.301 35.1781 100.998 35.3904C100.678 35.4422 100.365 35.5189 100.035 35.4814C99.8 35.4243 98.817 31.2097 99.0248 31.0108L102.591 30.2963L102.773 31.5451L105.092 31.1883L104.552 28.3375C100.953 28.7148 98.8375 30.7441 97.471 26.2315C96.9938 24.6545 96.2427 22.1311 97.8661 21.0196C98.4504 20.6191 105.489 18.6131 105.799 18.8851L105.798 18.8842Z" fill="#FDFEFD"/>
<path d="M41.0457 82.2116C40.3054 82.1474 40.3509 81.4641 39.466 81.6497C38.8202 81.2706 40.2064 78.5768 40.6274 78.1245C40.8638 78.0558 44.8046 79.6944 45.2024 79.9263C45.362 80.02 45.5342 80.0548 45.4798 80.2992C44.5129 82.0368 43.058 87.3004 41.3508 88.1344C39.9673 88.8096 38.8256 88.105 37.5358 87.593C36.0729 87.0123 30.4605 84.6556 29.5864 83.819C28.0941 82.39 29.3188 80.0914 29.9548 78.5223C30.5256 77.1148 31.2963 75.7509 31.8779 74.3461L35.8731 76.0551L36.0622 76.4137C36.0791 76.6055 35.0239 79.0531 34.8892 79.1806C34.404 79.6418 33.851 78.6472 33.3746 78.8961C33.0928 79.2386 32.3239 80.6435 32.5585 80.97C32.9251 81.4793 39.2582 83.6504 40.2367 84.3497L41.0466 82.2134L41.0457 82.2116Z" fill="#FDFEFD"/>
<path d="M161.989 21.3845C162.223 21.6208 161.052 26.4563 160.761 26.6507L158.071 26.1066L158.591 23.9917C158.475 23.5814 157.403 23.3022 157.09 23.6938C156.916 24.7446 154.87 31.4693 155.247 31.8778C155.356 31.9955 155.892 31.8002 155.94 32.3452C155.953 32.4933 155.484 34.8392 155.373 34.9105L149.524 33.6734C149.421 33.5547 149.945 30.7673 150.062 30.67C150.248 30.5175 151.233 30.9269 151.313 30.2258L153.088 22.71L153.068 22.2782L151.652 22.0891L151.003 24.246L148.44 23.6956C148.734 22.8812 149.333 18.8628 149.764 18.5033C150.245 18.1002 160.536 21.2186 161.988 21.3862L161.989 21.3845Z" fill="#FDFEFD"/>
<path d="M160.749 31.5432C160.822 31.0268 161.261 29.175 161.754 29.0804C162.005 29.0323 166.224 30.5826 166.587 30.7904C167.45 31.2854 166.478 32.3737 166.37 33.1506L166.022 33.3299L160.749 31.5423V31.5432Z" fill="#FDFEFD"/>
<path d="M130.601 16.5597V19.5032C130.601 19.7548 129.858 19.7485 129.706 19.8556C129.313 20.1339 129.709 22.5199 129.717 23.0641C129.743 24.8195 129.682 26.5812 129.708 28.3348H130.601V31.5451H124.803L124.536 31.2775V28.3339H125.606V19.7708L124.536 19.9492V16.5597H130.601Z" fill="#FDFEFD"/>
<path d="M23.693 142.192C24.4717 142.034 27.2395 142.064 28.0325 142.231C28.846 142.401 29.4633 142.968 29.7202 143.754C30.1715 145.134 30.1795 152.357 29.5881 153.618C28.83 155.234 25.9185 155.136 24.4155 154.945C22.6904 154.726 22.0963 153.942 21.9501 152.237C21.8038 150.531 21.7101 145.659 21.9679 144.036C22.0963 143.225 22.8858 142.356 23.6921 142.192H23.693ZM26.7739 144.827H24.99V152.141H26.7739V144.827Z" fill="#C2AB3E"/>
<path d="M33.148 142.192C33.9267 142.034 36.6945 142.064 37.4875 142.231C38.2805 142.397 38.9798 142.992 39.1778 143.751C39.4668 144.862 39.4088 151.413 39.2412 152.745C39.0164 154.529 37.9469 154.876 36.3244 155.002C34.7259 155.126 31.9938 155.123 31.496 153.217C31.2213 152.165 31.257 145.475 31.4282 144.219C31.5531 143.299 32.1936 142.387 33.148 142.192ZM36.2289 144.827H34.4449V152.141H36.2289V144.827Z" fill="#C2AB3E"/>
<path d="M17.1405 152.32H20.2624C20.6691 152.32 20.5692 154.429 20.4524 154.829L20.2374 154.971L12.4022 154.829L12.5253 152.968C13.0007 152.252 17.3197 148.297 17.3197 147.95V144.65L15.6134 144.817L15.4314 146.989C15.0202 147.195 12.503 147.311 12.503 146.88V144.204C12.503 143.273 13.4762 142.299 14.3931 142.169C15.8185 141.967 19.2884 141.833 20.0697 143.239C20.5291 144.064 20.7236 147.705 20.4515 148.585C20.1411 149.59 17.5294 151.129 17.1413 152.322L17.1405 152.32Z" fill="#C2AB3E"/>
<path d="M46.7543 142.151V152.32C46.7543 152.36 47.31 152.22 47.4456 152.61C47.5571 152.931 47.5491 154.996 47.2003 154.996H43.0972C42.752 154.996 42.7547 153.105 42.8287 152.765C42.9358 152.266 43.7216 152.076 43.7216 151.874V145.541L42.4746 146.254C42.4728 145.154 41.3427 145.107 42.1178 144.025C43.3791 142.264 44.61 141.769 46.7552 142.151H46.7543Z" fill="#C2AB3E"/>
<path d="M43.0081 125.382L34.8268 131.392L37.9265 140.542L29.3616 135.362L20.8003 140.726C20.8271 138.997 23.9214 132.634 23.5325 131.394C23.338 130.775 16.2119 126.789 15.3574 125.741L25.7071 125.474L28.9165 116.461L29.3152 116.69L32.4836 125.382H43.009H43.0081Z" fill="#C2AB3E"/>
<path d="M77.1453 114.437C73.861 111.069 70.1664 106.788 67.5538 102.888C66.5913 101.452 64.3818 98.0909 63.8422 96.6111C63.7102 96.2481 63.6094 95.9332 63.7432 95.5461C70.2716 82.0334 79.9791 70.483 93.0833 62.9779C93.9664 62.4721 96.6289 60.8889 97.4201 60.6962C97.6663 60.6364 97.6957 60.6302 97.941 60.7105C98.4941 60.8915 101.938 64.4711 102.596 65.1677C109.45 72.4249 113.881 80.7908 118.562 89.5198C124.652 100.877 130.129 112.751 136.701 123.829C140.669 130.516 145.378 137.708 151.666 142.403C152.63 143.123 156.937 145.668 157.276 146.441C157.459 146.857 156.6 148.881 156.376 149.463C155.901 150.699 152.204 159.28 151.649 159.552C151.181 159.782 150.014 159.238 149.466 159.055C143.531 157.065 136.959 154.022 131.193 151.46C111.954 142.914 91.8604 129.525 77.1435 114.437L77.1453 114.437Z" fill="#FDFEFD"/>
<path d="M101.579 59.6757C100.873 58.7231 103.266 57.9158 103.973 57.633C115.266 53.1071 138.226 52.4256 149.274 57.7383C154.239 60.1262 159.062 68.7222 161.137 73.7049C168.625 91.6819 166.476 121.723 159.761 139.824C158.786 142.452 158.504 142.91 155.93 141.53C149.937 138.315 143.439 129.356 140.026 123.538C130.443 107.21 122.772 89.2201 112.657 73.3044C109.271 67.9765 105.843 64.7208 102.053 59.995C101.932 59.8434 101.67 59.7988 101.579 59.6757H101.579Z" fill="#FDFEFD"/>
<path d="M62.4043 101.86C62.6389 101.795 62.77 101.821 62.9841 101.922C63.5308 102.178 65.0945 104.973 65.6252 105.708C69.7087 111.372 75.1124 117.026 80.1994 121.819C99.7044 140.194 124.668 152.214 148.984 162.926C149.704 163.556 148.575 165.312 148.177 166.06C146.819 168.619 144.79 171.007 143.356 173.547C143.115 173.814 142.8 173.74 142.489 173.713C140.13 173.511 136.664 172.227 134.031 171.814C111.857 168.335 81.9272 174.935 65.6707 154.901C56.9587 144.165 56.8784 117.355 60.8995 104.649C61.11 103.982 61.6916 102.054 62.4052 101.859L62.4043 101.86Z" fill="#FDFEFD"/>
<path d="M162.402 143.89C162.257 143.728 162.227 143.499 162.186 143.294C165.941 128.147 169.585 113.635 168.964 97.8116C168.385 83.0894 165.049 75.6297 159.018 62.8092C158.886 62.5282 158.485 62.4248 158.61 61.6942C173.355 69.3332 185.437 82.1564 192.357 97.2532C195.58 104.285 197.529 109.444 195.664 117.214C192.242 131.474 186.135 139.557 171.528 143.564C169.707 144.064 163.736 145.367 162.402 143.891V143.89Z" fill="#FDFEFD"/>
<path d="M140.009 176.628C140.486 177.123 139.844 177.85 139.516 178.272C134.74 184.422 121.542 193.963 114.048 195.977C110.765 196.859 108.129 195.548 105.097 194.326C92.7488 189.353 81.8558 180.87 73.7004 170.419C73.109 169.662 68.5322 163.556 69.0549 163.025C72.8209 165.071 76.6092 167.102 80.6017 168.691C96.7226 175.105 111.309 172.765 128.012 174.265C129.929 174.437 138.978 175.561 140.008 176.628H140.009Z" fill="#FDFEFD"/>
<path d="M154.506 161.06C155.112 159.709 155.892 158.429 156.499 157.078C157.508 154.832 159.061 149.414 160.94 148.139C162.627 146.995 166.079 147.649 168.161 147.51C175.795 147.003 186.053 141.316 190.894 135.456C194.426 131.181 196.324 126.418 198.038 121.203C198.306 120.7 198.682 121.707 198.732 121.921C198.974 122.965 199.052 124.88 199.104 126.009C199.478 134.163 197.981 140.146 195.764 147.819C194.697 151.512 191.756 162.442 188.941 164.545C185.849 166.855 175.317 165.544 171.415 164.937C165.695 164.048 160.127 162.382 154.507 161.061L154.506 161.06Z" fill="#FDFEFD"/>
<path d="M162.178 190.855C161.638 188.749 160.425 186.469 159.219 184.625C156.939 181.14 153.627 178.908 150.101 176.795C149.433 176.395 147.022 175.442 146.862 174.846C146.736 174.375 147.136 173.677 147.337 173.249C148.166 171.492 149.967 168.858 151.113 167.212C151.757 166.287 152.628 164.51 153.798 164.533C156.605 164.588 161.136 166.025 164.1 166.543C167.417 167.123 170.913 167.758 174.243 168.173C175.748 168.361 185.651 168.961 186.006 169.435C186.156 169.94 185.423 170.766 185.088 171.215C181.445 176.095 175.796 181.738 171.001 185.493C170.112 186.19 162.75 191.431 162.179 190.854L162.178 190.855Z" fill="#FDFEFD"/>
<path d="M120.086 198.157C120.027 197.967 120.081 197.805 120.166 197.634C120.485 196.986 127.494 192.858 128.767 191.963C134.26 188.103 137.982 183.705 142.908 179.523C145.088 177.672 145.468 177.927 147.909 179.164C151.092 180.778 156.419 184.53 157.75 187.877C159.307 191.796 158.427 192.734 154.911 194.201C145.859 197.976 132.584 199.641 122.843 198.701C121.91 198.611 120.944 198.525 120.086 198.157Z" fill="#FDFEFD"/>
</svg>
