<svg width="256" height="256" viewBox="0 0 256 256" fill="none" xmlns="http://www.w3.org/2000/svg">
<g clip-path="url(#clip0_3116_250)">
<path d="M233.191 141.333C233.207 141.184 234.781 139.388 235.05 138.984C238.207 134.239 239.055 127.582 236.696 122.335C234.701 117.899 231.097 114.475 226.718 112.409C226.563 112.248 226.524 111.879 226.532 111.656C226.634 108.45 227.525 104.517 227.839 101.223C228.725 91.9193 229.114 82.4724 228.558 73.1428C228.516 72.4406 228.7 70.0156 228.344 69.5971L188.245 58.7401L188.035 58.3666C190.292 29.0906 167.304 2.96361 138.314 0.241742C107.462 -2.65531 79.2614 20.8758 77.7416 52.0006C77.6548 53.7741 77.9544 55.9734 77.7488 57.6542C77.73 57.8135 77.7575 57.9757 77.5983 58.0828C68.0843 60.3095 58.6802 62.9474 49.1951 65.2885C44.6139 66.8376 39.7129 67.6137 35.1535 69.1961C34.9103 69.2801 34.1041 69.6131 34.0433 69.8302C33.9868 70.03 34.1996 70.3949 34.1866 70.6772C33.6771 81.1289 33.9086 90.7828 34.8973 101.224C35.1853 104.265 35.621 107.312 36.0378 110.337C35.9814 110.56 35.3286 110.663 35.097 110.693C29.8153 111.386 24.4858 112 19.233 112.923C18.7293 113.011 18.0924 113.007 18.0939 113.677C21.7675 135.749 25.1313 157.878 28.6559 179.976C28.9946 180.452 32.5596 179.592 33.2486 179.498C36.2144 179.094 39.6058 178.449 42.5137 178.197C43.2041 178.137 43.9033 178.201 44.5937 178.178L49.0764 218.214C49.6959 218.676 50.3907 218.22 51.0507 218.156C57.0808 217.567 63.092 216.919 69.125 216.4C71.4221 216.201 73.8132 215.673 76.1089 215.932C92.1567 232.252 111.581 244.606 131.294 256.006L131.694 255.978C138.061 251.926 144.629 248.217 150.968 244.115C163.679 235.889 175.874 226.766 186.479 215.932C187.511 215.514 190.214 216.158 191.437 216.256C192.56 216.346 193.803 216.307 194.908 216.404C200.465 216.891 206.516 218.06 211.991 218.283C212.455 218.302 213.66 218.431 213.871 217.995L218.605 176.401C218.798 175.94 219.96 175.903 220.425 175.76C225.369 174.227 229.01 172.167 232.473 168.266C238.22 161.797 240.078 151.156 234.925 143.8C234.532 143.238 233.128 141.923 233.188 141.339L233.191 141.333Z" fill="#242639"/>
<path d="M173.218 214.661C171.799 216.11 169.168 218.382 167.551 219.723C157.292 228.238 145.313 236.264 133.801 243.007C133.274 243.316 131.698 244.357 131.22 244.35C130.779 244.344 128.736 242.832 128.156 242.483C114.287 234.169 101.914 225.877 89.7597 215.158C89.6367 215.049 89.2242 214.68 89.0794 214.526L89.7539 214.513C91.0957 214.489 96.0706 214.319 96.9839 214.738C97.2444 214.856 98.1013 215.771 98.5153 216.102C106.994 222.864 115.764 229.236 125.028 234.898C126.528 235.815 129.276 237.714 130.757 238.288C131.29 238.495 131.783 238.454 132.262 238.137C141.347 232.58 150.314 226.828 158.783 220.361C159.744 219.627 165.778 214.512 166.251 214.512C166.251 214.512 168.952 214.457 170.028 214.512C170.747 214.548 173.216 214.658 173.216 214.658L173.218 214.661Z" fill="#FEFEFE"/>
<path d="M177.983 215.087C176.191 214.746 174.92 214.673 173.218 214.661C171.799 216.11 169.168 218.38 167.551 219.723C157.292 228.238 145.313 236.264 133.801 243.007C133.274 243.316 131.698 244.357 131.22 244.35C130.779 244.344 128.736 242.832 128.156 242.483C114.287 234.169 101.914 225.877 89.7597 215.158C89.6367 215.049 89.2242 214.68 89.0794 214.526C87.5625 214.558 85.9182 214.615 84.4794 214.812C84.2276 214.846 83.1145 214.959 83.1434 215.236C83.1738 215.512 83.7485 216.174 84.1407 216.549C96.2964 228.225 109.729 237.118 124.042 245.874C126.027 247.089 128.032 248.518 130.117 249.53C131.605 250.252 132.341 249.628 133.635 248.952C137.504 246.931 141.202 244.209 144.865 242.026C147.647 240.367 150.24 238.56 152.877 236.752C159.884 231.945 166.809 227.009 173.187 221.526C173.801 220.998 177.796 217.591 178.42 216.836C178.491 216.75 179.348 215.605 179.391 215.56C179.591 215.349 178.576 215.197 177.984 215.085L177.983 215.087Z" fill="#C3191B"/>
<path d="M186.443 68.5764L218.589 76.9215C218.957 81.3301 218.743 85.2189 218.43 90.2196C218.029 96.6319 217.29 103.011 216.695 109.404C216.508 109.383 212.538 108.872 211.469 108.489C211.606 107.55 212.69 97.2414 212.788 96.0137C213.195 90.9261 213.778 85.8574 213.439 80.7365L187.181 73.9188C187.296 70.8408 186.636 70.3471 186.443 68.5764Z" fill="#FEFEFE"/>
<path d="M223.919 75.6345C223.842 74.3083 223.912 73.2138 223.023 72.9445C221.961 72.6231 220.082 72.0859 218.98 71.7472C217.84 71.3968 199.627 66.8145 197.59 66.2947C194.849 65.5954 187.458 63.7307 187.407 63.7871C187.368 63.832 186.469 65.9632 186.446 66.0689C186.326 66.5901 186.38 67.9887 186.443 68.5765L218.589 76.9216C218.957 81.3301 218.743 85.2189 218.43 90.2196C218.029 96.6319 217.29 103.011 216.695 109.404C217.595 109.506 218.556 109.769 219.309 109.876C220.271 110.013 221.619 110.153 221.619 110.153C221.726 109.971 221.945 108.552 222.013 108.138C223.213 100.755 223.496 93.3498 223.779 85.8719C223.916 82.2249 224.132 79.3669 223.918 75.6345H223.919Z" fill="#C3191B"/>
<path d="M78.3119 68.0625L79.2368 67.841C79.0313 66.8275 78.2091 63.153 77.8748 63.0473C77.6808 62.9865 69.4796 65.0656 66.5094 65.8213C58.7772 67.7874 51.5139 69.587 43.841 71.8036C42.9841 72.0512 39.1701 73.3875 39.021 73.567C38.7692 73.8696 38.8082 75.7952 38.7996 76.3164C38.6997 81.792 39.063 87.922 39.3901 93.4005C39.4495 94.4052 39.9966 102.532 40.247 105.139C40.3194 105.891 40.4207 107.923 40.5452 108.437C40.5712 108.546 40.7478 109.808 40.9505 109.807C41.5483 109.805 45.1828 109.336 45.8978 109.26C45.5939 105.915 45.3159 102.742 45.0308 99.4856C44.5966 94.5399 44.3129 89.6087 44.1609 84.6471C44.145 84.1056 44.0523 79.3134 44.0161 77.4081C44.0364 77.3574 43.9626 77.2097 44.0407 77.1474C55.3569 73.7553 66.8597 70.9842 78.3119 68.0625Z" fill="#C3191B"/>
<path d="M49.1792 80.8465L80.638 72.707C80.2833 71.5748 79.3078 68.0914 79.2368 67.8409L78.3119 68.0625C66.8597 70.9841 55.3569 73.7552 44.0408 77.1474C43.9626 77.2097 44.0364 77.3573 44.0162 77.408C44.0524 79.3133 44.145 84.1055 44.1609 84.647C44.3114 89.6101 44.5966 94.5398 45.0308 99.4855C45.316 102.742 45.5953 105.915 45.8978 109.26C46.2496 109.222 47.1875 109.166 47.9909 109.102C49.2907 108.998 49.942 108.89 51.2418 108.773C51.2418 108.773 49.2082 91.6051 49.0895 83.121C49.0779 82.3465 49.1213 81.6602 49.1807 80.848L49.1792 80.8465Z" fill="#FEFEFE"/>
<path d="M166.474 87.3298C167.943 86.6407 169.646 86.1672 171.152 85.494C176.861 82.9459 187.885 76.9592 183.839 69.2251C183.375 68.3361 181.709 66.6046 181.677 65.885C181.655 65.3898 182.094 64.1607 182.201 63.5338C183.249 57.385 183.084 50.7555 181.769 44.6559C181.48 43.3138 180.884 40.5774 180.348 39.4178C179.925 38.4999 178.646 37.8397 177.802 37.3315C170.628 33.0112 161.08 29.981 152.865 28.3957C148.598 27.5719 144.176 27.026 139.834 26.8784C139.827 27.0883 139.796 27.5241 139.817 28.109C140.969 28.1162 143.037 28.2161 144.103 28.3291C154.152 29.3975 168.705 32.9837 177.223 38.4897C178.228 39.1398 178.844 39.5756 179.106 39.8738C179.238 40.0229 179.396 40.8352 179.71 41.769C181.939 48.4057 181.749 59.7796 180.778 63.9478C180.221 63.4064 179.371 62.7114 178.76 62.2901C169.672 56.0182 158.787 48.6953 149.533 41.3578C147.009 39.3555 142.908 35.1511 140.985 32.5465C141.509 33.6787 142.028 34.5314 142.836 35.6158C143.094 35.9619 145.401 39.1861 146.214 40.1272C146.474 40.4269 145.853 40.2502 145.373 39.8318C141.341 36.3021 139.063 33.615 137.318 30.3169C137.035 29.7812 136.78 29.121 136.598 28.3942C136.576 28.8271 136.531 29.4004 136.506 29.6958C136.457 30.2923 136.595 31.0958 136.673 31.7097C138.507 46.1891 146.479 52.8953 156.624 61.9919C158.481 63.6568 160.99 65.2957 162.151 67.6108C162.546 68.3969 162.432 68.4505 161.761 69.0079C158.681 71.572 151.696 69.8925 148.087 68.9384C143.461 67.7165 133.525 63.5902 129.337 63.9377C126.866 64.1433 123.598 67.0012 121.674 68.5793C121.304 68.8834 119.312 70.822 119.125 70.809C119.005 70.8003 118.926 70.476 118.885 70.3471C116.176 58.6996 115.028 46.7161 116.549 34.7891C116.768 33.0764 117.037 31.2015 117.371 29.4801C117.6 29.2687 118.269 29.1659 118.667 29.0891C122.068 28.4304 126.722 28.0294 130.203 27.8875C132.203 27.8064 134.519 27.8744 136.488 27.9005C136.469 27.8064 136.45 27.7108 136.434 27.6153C136.283 26.7075 136.521 26.6626 135.403 26.6076C132.957 26.4875 129.873 26.6467 127.388 26.8262C125.022 26.9971 122.455 27.1969 120.108 27.5747C119.476 27.6761 116.37 28.1857 116.168 28.6172C115.966 30.7932 115.382 32.92 115.102 35.0787C114.178 42.1671 114.292 49.6754 115.086 56.7754C115.446 59.9982 116.536 65.678 117.276 69.2642L115.963 65.0178C113.243 54.5878 112.603 43.7742 113.347 33.0344C113.428 31.8762 113.603 30.9351 113.628 29.6958C113.637 29.2745 114.023 28.7258 113.314 28.7895C109.941 29.8044 106.09 30.4428 102.845 31.7951C102.128 32.0933 101.813 32.1281 101.776 32.6536C101.758 32.9302 101.74 33.2226 101.723 33.5238C101.729 33.5238 101.733 33.5209 101.739 33.5194C101.884 33.5064 103.343 33.0445 103.574 32.9577C104.499 32.6087 105.456 32.3134 106.4 32.0195C107.128 31.7922 111.933 30.3907 112.189 30.6426L111.603 38.093C111.412 47.2475 112.414 56.4091 114.719 65.2465C114.963 66.1789 116.21 69.6377 116.099 70.2385C116.068 70.4036 116.047 70.5353 115.857 70.5817C113.394 71.0985 108.465 70.8495 106.609 72.6245C105.327 73.8508 103.775 77.1851 102.196 77.7656C101.098 78.1696 97.7279 78.074 96.5483 77.7758C90.9076 76.3497 95.4163 70.1213 96.8435 67.0548C100.329 59.422 101.688 50.0562 101.753 41.8631C101.768 40.0852 101.726 37.4763 101.523 35.9213C101.519 35.8924 101.516 35.8634 101.512 35.8344C101.458 36.2094 101.393 36.5902 101.307 36.9739C100.465 40.783 99.9266 43.5121 99.061 46.5728C98.7267 47.7556 97.6512 50.3269 97.6512 50.3269C97.6512 50.3269 98.3764 43.5671 98.4878 41.3969C98.4878 41.381 98.4893 41.365 98.4907 41.3491C97.492 45.054 94.0876 57.398 91.9758 61.6053C90.6977 64.1505 89.5267 66.6292 87.6465 68.7661C87.3382 69.1179 86.9199 70.0257 86.7881 70.0214C86.4494 70.0112 86.2309 68.6127 86.1353 68.284C84.3651 62.2307 83.9888 54.7804 84.8529 48.5418C85.1091 46.693 85.7199 43.1835 86.3539 41.5011C86.7143 40.5427 87.509 40.188 88.3297 39.7131C90.7252 38.3232 93.9067 36.7697 96.46 35.6839C96.9029 35.4957 98.1954 34.9918 98.7903 34.7515C98.8034 34.4055 98.8106 34.1593 98.8106 34.0565C98.8106 33.6787 98.3836 33.6989 98.2258 33.7033C97.6483 33.7207 95.5365 34.6719 94.8692 34.96C92.397 36.0285 88.6249 37.7861 86.4393 39.2686C85.5187 39.8926 85.3233 40.2184 84.9759 41.2796C82.3604 49.2556 82.5442 60.269 84.7328 68.3173C85.028 69.4017 86.1686 71.8905 85.9949 72.8402C85.9544 73.0588 83.6067 75.7112 83.2115 76.2874C78.0383 83.845 79.328 91.4126 89.146 93.0023C90.3112 93.1905 93.0903 93.5438 94.1412 93.3005C95.0834 93.0819 94.7332 92.0786 94.8403 91.3938C95.3527 88.1116 96.3688 84.3806 98.5906 81.8253C98.8555 81.5198 100.328 80.0068 100.154 81.2085C100.096 81.6052 99.0306 83.0718 98.7657 83.7364C97.9117 85.8835 97.395 89.0961 97.877 91.3605C98.016 92.0106 98.4328 92.4637 98.4212 93.0805L80.3485 106.069C82.0174 105.85 84.1104 106.008 85.7098 105.569C86.6593 105.309 88.3355 104.045 89.2256 103.439C92.5678 101.164 95.8144 98.5358 99.1783 96.3105C99.792 95.9051 101.771 95.0104 102.075 94.5645C102.186 94.4009 102.198 94.3965 102.148 94.1982C101.983 93.5423 101.196 92.5318 100.943 91.7702C100.024 89.015 100.834 85.3883 102.326 82.9531C103.318 81.3359 105.033 81.1578 106.41 79.7984C107.384 78.8356 109.069 75.746 110.163 75.4448C110.921 75.2363 111.4 75.3768 111.083 76.2194C109.164 80.3775 106.664 84.4501 104.789 88.5995C104.741 88.7052 104.344 89.3871 104.738 89.2742C105.023 88.9195 105.424 88.7067 105.757 88.4099C109.079 85.452 112.137 81.5835 115.521 78.6314C116.778 77.5354 118.251 76.7406 119.561 75.7228C122.003 73.8262 124.325 71.5835 126.829 69.8172C129.187 68.1551 129.508 67.812 132.459 68.4968C137.062 69.5653 141.839 71.6154 146.466 72.8735C150.981 74.0998 158.752 75.704 162.954 73.2326C172.574 67.576 159.163 58.9008 154.89 55.0366C151.227 51.7226 147.718 47.9728 144.845 43.9465C144.625 43.6381 144.336 43.2081 144.176 42.8751C144.147 42.8143 144.111 42.7535 144.092 42.6999C144.077 42.655 144.074 42.6145 144.095 42.5812C144.104 42.5682 144.117 42.5566 144.136 42.5465C144.145 42.5407 144.155 42.5363 144.168 42.532C144.191 42.5233 144.22 42.516 144.256 42.5117C144.375 42.4943 144.519 42.532 144.682 42.6058C144.713 42.6203 144.747 42.6377 144.78 42.655C144.848 42.6912 144.917 42.7332 144.988 42.7795C145.025 42.8027 145.061 42.8273 145.097 42.8534C145.245 42.9562 145.398 43.0763 145.553 43.2052C146.293 43.8234 147.08 44.6718 147.44 44.9686C157.824 53.5034 169.659 60.1749 180.005 68.7154C184.538 73.5772 179.396 77.4804 175.375 80.0126C171.778 82.2784 167.692 83.6148 163.814 85.2435L156.63 94.424C156.42 94.9988 157.16 95.1074 157.646 95.2782C162.099 96.8462 166.717 98.0464 171.203 99.5246C171.702 99.833 172.017 100.086 172.284 100.615C172.995 102.021 173.355 103.867 174.136 105.281C174.657 105.821 176.548 105.634 177.327 105.781C177.362 105.445 177.295 105.146 177.191 104.831C176.769 103.557 175.926 101.708 175.369 100.43C174.693 98.8818 174.399 97.5049 172.692 96.8809C169.279 95.6329 165.63 94.8656 162.196 93.6263C161.301 93.3034 161.152 93.3194 161.78 92.4753C162.844 91.0492 165.011 88.0132 166.476 87.3269L166.474 87.3298ZM94.3091 83.0487C93.8111 84.052 93.3436 85.3116 93.0121 86.3844C92.8211 87.0012 92.1943 89.9561 92.0033 90.153C91.501 90.667 88.1386 89.8273 87.3642 89.571C79.1384 86.8549 84.6734 78.8732 88.237 74.802C88.418 74.5964 89.4037 72.9792 89.7539 73.3527C89.3733 75.4492 89.7699 77.4819 91.1276 79.1454C91.3823 79.4567 92.3058 80.3862 92.6127 80.5874C93.1091 80.9117 94.9503 81.3982 94.9633 81.9628C94.972 82.3088 94.477 82.7084 94.3091 83.0472V83.0487Z" fill="#FEFEFE"/>
<path d="M177.792 33.1445C177.455 32.215 175.958 29.8696 175.359 28.9184C169.657 19.8551 161.023 12.6856 151.017 8.81854C150.329 8.55215 148.035 7.62555 147.466 7.79495C147.057 7.91801 144.55 10.9816 144.121 11.5476C141.92 14.4505 140.099 17.889 139.469 21.5172C139.362 22.1369 138.953 23.5847 139.581 23.8771C143.141 24.3998 146.74 24.4577 150.293 25.0339C157.344 26.1777 165.554 28.4826 172.112 31.2971C174.081 32.1412 175.923 33.2994 177.903 34.1174C177.935 33.7627 177.915 33.4833 177.792 33.1445ZM153.333 24.31C150.81 23.8322 148.102 23.3906 145.551 23.117C144.754 23.0316 141.202 22.936 140.519 22.4814C141.338 18.7345 142.865 15.4755 145.135 12.4163C145.637 11.7388 147.658 9.15588 148.119 9.12403C148.8 9.0777 152.757 10.8759 153.617 11.2841C158.321 13.5195 162.631 16.5672 166.413 20.1302C169.2 22.7536 173.19 27.3562 175.011 30.7122C175.107 30.8874 175.304 31.0683 175.443 31.4158C168.405 28.4449 160.865 25.7375 153.33 24.31H153.333Z" fill="#FEFEFE"/>
<path d="M144.163 6.62218C141.879 6.35145 139.613 5.71731 137.308 5.5899C133.905 5.40169 128.926 5.393 125.596 5.90263C124.388 6.08795 123.857 6.07347 123.265 7.19117C122.058 9.47001 120.826 12.8332 119.939 15.3017C118.781 18.5231 117.849 21.8357 116.967 25.141C120.748 24.8442 124.532 24.2274 128.331 23.9842C130.743 23.8307 133.613 24.1 135.859 23.8409C136.097 23.8134 136.318 23.7757 136.512 23.6251C136.725 22.7217 136.683 21.7169 136.836 20.7643C137.505 16.6294 140.09 12.2903 142.59 9.00092C142.92 8.56513 144.569 7.10285 144.165 6.62218H144.163ZM140.21 9.95212C138.115 12.8839 135.855 17.2867 135.361 20.883C135.308 21.2725 135.24 22.1035 135.24 22.5089C135.24 22.5089 130.675 22.4611 129.343 22.5364C126.276 22.7101 124.354 22.9722 121.376 23.3341C120.194 23.4775 119.094 23.5253 118.603 23.4775C119.607 20.8367 120.464 17.7225 121.45 15.0759C122.099 13.3327 123.529 9.34984 124.456 7.94837C124.608 7.71817 124.713 7.50389 124.889 7.27804C126.497 7.03336 128.311 6.87844 129.962 6.79592C132.381 6.67575 135.188 6.69892 137.591 6.90016C138.159 6.94794 141.959 7.36346 142.049 7.68921C141.394 8.39429 140.73 9.22533 140.21 9.95068V9.95212Z" fill="#FEFEFE"/>
<path d="M124.044 91.0304C124.423 91.5704 122.983 92.4478 122.679 92.7504C121.77 93.6567 119.83 96.1238 118.885 96.6291C117.792 97.214 114.761 97.935 113.378 98.3592C112.288 98.6936 111.144 98.9035 110.049 99.2279C108.652 99.6405 107.336 100.408 105.821 100.427C105.657 100.279 106.546 99.4638 106.686 99.3393C108.087 98.1 109.629 96.9678 111.033 95.7242C113.357 93.664 115.572 91.472 117.94 89.4581L118.596 89.3104C119.237 89.6869 123.879 90.7973 124.044 91.0304Z" fill="#FEFEFE"/>
<path d="M120.295 7.18966C113.231 8.76053 106.717 12.3858 101.119 16.8914C100.902 17.1708 100.882 17.4922 100.889 17.8295C100.918 19.2947 101.49 21.3245 101.623 22.8983C101.795 24.9411 101.765 27.0028 101.769 29.05C102.002 29.2787 105.216 28.0959 105.792 27.9323C107.675 27.3952 109.577 26.8826 111.467 26.3701C112.362 26.1283 113.423 26.2456 114.078 25.5072C115.391 20.5384 116.815 15.4146 118.778 10.6629C118.955 10.2344 120.431 7.31997 120.295 7.18677V7.18966ZM115.047 16.9232C114.236 19.3772 113.598 22.0875 112.951 24.5893C111.157 25.1627 105.415 26.6539 103.198 27.3387C103.133 26.2036 103.108 24.3736 103.069 23.767C102.947 21.8877 102.341 19.6683 102.342 17.9541C102.342 17.6558 102.429 17.5936 102.633 17.3923C103.389 16.6467 105.822 15.0237 106.759 14.4243C110.229 12.2048 114.167 10.3343 118.041 8.9415C117.106 11.7517 115.916 14.2882 115.045 16.9232H115.047Z" fill="#FEFEFE"/>
<path d="M99.1681 26.221C98.9843 25.4725 98.8207 20.175 98.5819 19.9304C98.5588 19.9072 98.055 19.9072 97.9364 19.9333C97.5253 20.023 95.7449 22.0601 95.3237 22.5335C92.6069 25.5927 89.0635 30.6672 87.5567 34.4547C87.4134 34.8152 87.247 35.1598 87.2933 35.5651L99.0017 30.1214C99.3548 28.898 99.0668 27.4995 99.1667 26.221H99.1681ZM93.7098 31.1132C92.6416 31.5576 91.048 32.2844 89.7424 32.7941C90.4487 31.4404 92.2479 28.6838 93.1482 27.4531C93.7721 26.6004 96.2356 23.4442 96.6221 22.9881C96.8855 22.6768 97.2879 22.3989 97.5644 22.3192L97.9175 29.1557C97.4992 29.509 94.3945 30.8279 93.7113 31.1117L93.7098 31.1132Z" fill="#FEFEFE"/>
<path d="M157.06 104.771H153.369C152.881 104.771 152.666 103.885 153.104 103.603C153.732 103.198 155.94 104.064 156.623 104.412C156.791 104.498 157.025 104.547 157.06 104.771Z" fill="#FEFEFE"/>
<path d="M97.5629 22.3193C97.2864 22.399 96.884 22.6784 96.6206 22.9882C96.2341 23.4443 93.7706 26.6005 93.1467 27.4532C92.2464 28.6839 90.4473 31.4405 89.7409 32.7942C91.0479 32.2845 92.6401 31.5577 93.7084 31.1133C94.3915 30.8281 97.4978 29.5106 97.9146 29.1573L97.5615 22.3208L97.5629 22.3193Z" fill="#C3191B"/>
<path d="M175.013 30.7122C173.192 27.3562 169.201 22.7536 166.415 20.1302C162.633 16.5686 158.321 13.5196 153.618 11.2842C152.758 10.8759 148.801 9.07772 148.121 9.12405C147.659 9.1559 145.638 11.7373 145.136 12.4163C142.867 15.4755 141.339 18.7345 140.52 22.4815C141.203 22.9361 144.754 23.0316 145.553 23.117C148.105 23.3892 150.812 23.8322 153.334 24.31C160.87 25.7376 168.41 28.4435 175.447 31.4158C175.308 31.0684 175.11 30.8874 175.016 30.7122H175.013Z" fill="#C3191B"/>
<path d="M140.21 9.95218C140.73 9.22683 141.394 8.39434 142.049 7.69071C141.959 7.36496 138.161 6.94944 137.591 6.90166C135.188 6.70042 132.381 6.67725 129.963 6.79742C128.311 6.87995 126.497 7.03631 124.889 7.27954C124.711 7.50539 124.608 7.71967 124.456 7.94987C123.529 9.35134 122.099 13.3328 121.45 15.0774C120.466 17.724 119.609 20.8382 118.603 23.479C119.094 23.5267 120.192 23.479 121.376 23.3356C124.354 22.9751 126.276 22.7116 129.343 22.5379C130.675 22.4626 135.24 22.5104 135.24 22.5104C135.24 22.1036 135.308 21.2725 135.361 20.8845C135.855 17.2882 138.115 12.8854 140.21 9.95362V9.95218Z" fill="#C3191B"/>
<path d="M106.759 14.4259C105.822 15.0253 103.389 16.6483 102.633 17.3939C102.429 17.5952 102.342 17.6589 102.342 17.9557C102.342 19.6699 102.947 21.8893 103.069 23.7686C103.108 24.3752 103.134 26.2052 103.198 27.3403C105.414 26.6555 111.157 25.1643 112.951 24.5909C113.596 22.0891 114.235 19.3774 115.047 16.9248C115.918 14.2898 117.108 11.7533 118.043 8.94312C114.168 10.3359 110.231 12.2079 106.76 14.4259H106.759Z" fill="#C3191B"/>
<path d="M179.108 39.8738C178.846 39.5756 178.229 39.1398 177.224 38.4897C168.705 32.9852 154.154 29.3976 144.104 28.3291C143.037 28.2161 140.97 28.1162 139.818 28.109C139.849 28.9878 139.995 30.1996 140.52 31.4751C140.681 31.8646 140.834 32.2164 140.986 32.5465C142.91 35.1497 147.009 39.3555 149.535 41.3578C158.788 48.6953 169.673 56.0183 178.762 62.2901C179.372 62.7114 180.222 63.4064 180.779 63.9479C181.752 59.7796 181.942 48.4043 179.711 41.769C179.397 40.8366 179.239 40.0244 179.108 39.8738Z" fill="#C3191B"/>
<path d="M161.761 69.0065C162.432 68.4476 162.546 68.3955 162.151 67.6093C160.989 65.2943 158.48 63.6554 156.624 61.9904C146.479 52.8939 138.507 46.1877 136.673 31.7082C136.595 31.0958 136.457 30.2923 136.506 29.6944C136.531 29.399 136.577 28.8257 136.598 28.3928C136.557 28.2321 136.521 28.067 136.488 27.8991C134.521 27.873 132.203 27.805 130.203 27.8861C126.722 28.0279 122.068 28.429 118.667 29.0877C118.269 29.1645 117.6 29.2673 117.371 29.4786C117.037 31.2001 116.768 33.075 116.549 34.7877C115.026 46.7161 116.176 58.6981 118.885 70.3457C118.926 70.476 119.005 70.7989 119.126 70.8075C119.312 70.822 121.304 68.882 121.674 68.5779C123.598 66.9998 126.866 64.1404 129.337 63.9363C133.525 63.5888 143.46 67.715 148.087 68.937C151.696 69.8896 158.681 71.5705 161.761 69.0065Z" fill="#C3191B"/>
<path d="M106.612 72.6245C108.468 70.8495 113.397 71.0985 115.86 70.5817C116.05 70.5353 116.07 70.4036 116.102 70.2385C116.213 69.6377 114.967 66.1804 114.722 65.2465C112.415 56.4092 111.414 47.2475 111.606 38.093L112.192 30.6427C111.935 30.3893 107.131 31.7922 106.402 32.0195C105.459 32.3134 104.502 32.6088 103.577 32.9577C103.347 33.0446 101.886 33.5064 101.742 33.5194C101.736 33.5194 101.732 33.5223 101.726 33.5238C101.682 34.2462 101.629 35.0266 101.514 35.8359C101.519 35.8649 101.522 35.8938 101.526 35.9228C101.729 37.4763 101.771 40.0852 101.756 41.8646C101.691 50.0577 100.332 59.4235 96.8465 67.0563C95.4193 70.1227 90.9105 76.3512 96.5512 77.7772C97.7308 78.0755 101.1 78.171 102.199 77.7671C103.778 77.1865 105.33 73.8523 106.612 72.626V72.6245Z" fill="#C3191B"/>
<path d="M86.3525 41.5026C85.7199 43.1849 85.1077 46.6944 84.8515 48.5432C83.9888 54.7832 84.3637 62.2322 86.1339 68.2854C86.2294 68.6126 86.448 70.0126 86.7867 70.0228C86.9184 70.0271 87.3367 69.1194 87.645 68.7675C89.5267 66.6306 90.6977 64.152 91.9743 61.6067C94.0862 57.398 97.4906 45.054 98.4893 41.3506C98.5819 39.5509 98.7325 36.234 98.786 34.7529C98.1911 34.9933 96.8985 35.4971 96.4556 35.6853C93.9023 36.7712 90.7209 38.3247 88.3253 39.7145C87.5061 40.1894 86.71 40.5441 86.3496 41.5026H86.3525Z" fill="#C3191B"/>
<path d="M69.924 110.996C70.2439 111.287 70.571 118.022 70.6491 119.031C70.7982 120.949 71.1398 122.904 71.2252 124.824C71.2412 125.188 71.3251 125.831 71.024 126.067L47.0703 128.53L47.3438 133.219C47.3988 133.745 48.2905 133.612 48.7175 133.578C53.4159 133.211 58.4486 132.31 63.1948 131.845C65.3732 131.633 67.5835 131.469 69.7648 131.426L70.9517 146.119L49.3645 148.417C49.1879 148.534 49.2661 148.634 49.2834 148.786C49.5526 151.026 50.0216 153.257 50.2373 155.518C50.2735 155.898 50.1114 157.537 50.4805 157.622C50.7786 157.691 51.8164 157.641 52.1913 157.615C58.2663 157.179 64.3513 156.055 70.432 155.591L73.6975 155.507L74.9915 170.358L67.8281 170.939C64.9404 171.327 62.0369 171.628 59.1405 171.949C50.1721 172.944 41.2139 173.995 32.302 175.413L23.4726 116.654C23.8533 116.628 24.1905 116.439 24.5611 116.367C29.8486 115.338 35.9568 114.732 41.3558 114.055C45.3927 113.548 49.4615 113.175 53.4955 112.733C58.9755 112.134 64.4411 111.508 69.924 110.996ZM44.3042 125.909C45.371 125.707 46.4899 125.746 47.5595 125.618C52.2912 125.055 57.0041 124.369 61.7459 123.882C63.5769 123.694 65.5657 123.732 67.3808 123.438C68.3246 123.285 68.0857 122.171 68.0409 121.35C67.9366 119.477 67.734 116.82 67.4546 114.987C67.4098 114.695 67.2911 114.362 66.9582 114.327C55.9084 115.174 44.9107 116.544 33.9391 118.074C31.8779 118.362 29.8023 118.536 27.7483 118.831C27.5443 118.86 26.9479 118.966 26.8495 119.097L34.534 171.949L34.9581 172.227C45.3522 170.72 55.7824 169.427 66.2344 168.331C66.9842 168.253 71.8534 168.016 72.0329 167.761C71.9634 164.692 71.4481 161.572 71.3729 158.485C70.8692 158.502 70.3582 158.459 69.8545 158.488C63.1268 158.871 56.441 160.228 49.7321 160.657C49.3732 160.68 48.4511 160.73 48.166 160.664C48.014 160.629 47.9561 160.282 47.9387 160.141C47.3771 155.485 46.9313 150.813 46.2467 146.174L68.1885 143.719L67.0392 134.518L44.8846 136.769C44.7602 135.212 44.6299 133.633 44.4316 132.083C44.323 131.236 43.5154 126.452 43.7469 126.076C43.8121 125.97 44.2 125.976 44.3057 125.911L44.3042 125.909Z" fill="#FEFEFE"/>
<path d="M177.168 148.508C176.75 152.862 176.509 157.233 176.168 161.599C176.067 162.893 176.577 164.37 175.155 165.074C174.186 165.553 172.184 166.27 171.097 166.662C151.596 173.688 128.873 168.168 124.824 145.485C123.585 138.544 124.131 129.261 127.363 122.918C134.361 109.19 149.513 105.854 163.744 108.581C169.339 109.652 174.273 111.799 179.18 114.567C179.283 114.838 179.359 115.112 179.354 115.406C179.316 117.085 179.012 118.806 178.917 120.48C178.72 123.908 178.601 127.334 178.336 130.758L178.2 131.056C176.692 131.043 175.13 131.069 173.626 130.981C173.172 130.953 172.034 130.87 171.672 130.764C170.983 130.563 167.845 127.305 166.89 126.571C161.041 122.077 154.413 120.725 149.169 126.92C144.658 132.246 144.473 145.343 148.957 150.733C152.787 155.337 158.755 155.531 163.814 152.862C165.829 151.799 169.482 148.247 171.317 148.061C172.363 147.954 174.276 148.097 175.367 148.205C175.642 148.233 177.112 148.426 177.167 148.507L177.168 148.508ZM175.422 128.061C175.849 126.053 175.771 123.974 175.878 121.929C175.932 120.93 176.145 119.739 176.172 118.749C176.195 117.887 176.399 116.451 175.64 115.94C162.514 109.17 143.309 107.411 132.892 119.761C124.789 129.367 125.022 147.442 132.83 157.167C138.311 163.995 146.285 166.432 154.811 166.743C161.12 166.973 167.058 165.413 172.833 163.04C173.331 162.563 173.493 162.301 173.558 161.595C173.822 158.772 174.044 155.453 174.146 152.627C174.205 150.964 174.169 150.664 172.323 150.806C170.53 150.943 168.071 153.488 166.456 154.492C154.746 161.767 143.778 154.761 143.02 141.617C142.633 134.92 143.207 128.077 148.433 123.367C155.687 116.83 163.779 120.03 170.377 125.546C171.977 126.885 172.856 128.484 175.42 128.061H175.422Z" fill="#FEFEFE"/>
<path d="M99.4518 129.818C101.066 129.774 102.693 129.876 104.307 129.824C108.73 129.682 113.189 129.465 117.611 129.378C118.198 129.367 120.996 129.284 121.24 129.526C121.388 129.672 121.437 129.972 121.456 130.179L121.583 144.283C119.108 144.974 116.371 144.418 113.848 144.437C112.744 144.446 111.356 144.709 110.242 144.738C106.882 144.825 103.535 144.819 100.176 145.02L101.335 168.621L81.2299 169.763L76.7269 110.563C78.4306 110.392 80.1574 110.398 81.8654 110.272C93.9009 109.391 105.978 108.833 118.047 108.53C119.726 108.627 121.514 108.358 123.128 108.672C123.262 113.563 123.116 118.479 123.345 123.364L99.4533 124.317V129.818H99.4518ZM96.2674 121.421L120.295 120.553V111.504C120.295 111.139 119.444 111.433 119.215 111.439C106.818 111.769 94.0355 111.96 81.7192 113.167C81.2111 113.217 79.9808 112.933 79.7955 113.56L83.6732 166.737L98.2099 166.029C98.4473 165.854 98.3185 160.762 98.2996 160.143C98.2113 157.163 97.864 154.155 97.7091 151.178C97.5542 148.201 97.6295 145.31 97.2792 142.413L118.61 141.669L118.784 141.553C118.966 138.649 118.609 135.723 118.528 132.814C118.35 132.212 116.306 132.403 115.728 132.417C110.426 132.548 105.11 132.708 99.8108 133.001C98.8222 133.056 97.8249 132.925 96.8406 133.086C96.5656 132.883 96.7306 130.551 96.706 130.028C96.5743 127.259 96.1936 124.337 96.266 121.565C96.266 121.517 96.2631 121.468 96.266 121.42L96.2674 121.421Z" fill="#FEFEFE"/>
<path d="M228.658 118.721C230.279 120.104 232.321 123.05 232.928 125.091C234.74 131.195 231.816 138.43 226.105 141.258L226.194 141.554C230.123 143.738 233.132 147.92 233.484 152.478C234.147 161.062 228.494 168.56 220.536 171.23C212.578 173.9 201.79 171.734 193.465 170.933C189.39 170.541 185.323 170.025 181.224 169.857L185.494 110.696C185.803 110.251 189.796 110.935 190.57 110.993C197.14 111.483 203.698 111.942 210.236 112.749C216.512 113.523 223.683 114.475 228.658 118.718V118.721ZM220.892 140.822C220.911 140.803 221.244 140.8 221.424 140.707C225.214 138.766 228.82 136.517 230.091 132.142C232.54 123.71 225.355 118.715 218.116 117.03C210.646 115.291 201.586 114.809 193.899 114.179C193.071 114.111 188.701 113.541 188.316 113.81L184.045 167.18C184.224 167.432 185.266 167.286 185.646 167.316C189.741 167.642 193.858 168.069 197.949 168.475C207.045 169.377 217.802 172.081 225.382 165.362C232.44 159.106 232.987 149.326 224.761 143.827C224.165 143.429 220.869 141.705 220.804 141.331C220.8 141.305 220.875 140.838 220.892 140.819V140.822Z" fill="#FEFEFE"/>
<path d="M201.786 137.057C201.776 137.023 201.782 136.953 201.786 136.913C202.161 132.704 202.814 128.479 203.087 124.243L203.223 123.945C206.692 123.809 211.94 124.338 213.859 127.657C214.93 129.51 215.236 132.167 214.259 134.114C212.114 138.389 205.649 136.713 201.785 137.056L201.786 137.057ZM205.115 134.017H209.385C209.487 134.017 210.715 133.684 210.863 133.613C212.08 133.034 212.015 130.732 211.558 129.672C211.1 128.612 209.445 127.629 208.394 127.335C207.925 127.204 205.875 126.794 205.713 127.305L205.115 134.018V134.017Z" fill="#FEFEFE"/>
<path d="M212.842 147.57C215.344 149.707 215.517 152.291 214.712 155.414C213.694 159.368 210.235 160.444 206.492 160.364C204.526 159.96 202.202 160.138 200.269 159.784C199.711 159.681 199.596 159.199 199.611 158.708C199.651 157.366 200.061 155.738 200.193 154.357C200.459 151.573 200.56 148.753 200.934 145.977C201.102 144.731 201.563 144.957 202.733 145.015C206.052 145.177 210.245 145.355 212.84 147.571L212.842 147.57ZM203.523 148.059L202.714 157.043C203.001 157.405 207.517 157.532 208.233 157.476C210.042 157.334 211.326 156.775 211.989 155.007C212.554 153.5 212.661 151.237 211.484 150.017C209.569 148.03 206.081 148.113 203.525 148.059H203.523Z" fill="#FEFEFE"/>
<path d="M71.3729 158.483C70.8692 158.501 70.3582 158.457 69.8545 158.486C63.1268 158.87 56.4411 160.227 49.7322 160.655C49.3732 160.678 48.4512 160.729 48.166 160.662C48.014 160.628 47.9561 160.28 47.9388 160.14C47.3772 155.484 46.9313 150.811 46.2467 146.173L68.1885 143.717L67.0392 134.516L44.8847 136.768C44.7602 135.21 44.6299 133.632 44.4316 132.081C44.3231 131.234 43.5154 126.451 43.747 126.074C43.8121 125.969 44.2 125.974 44.3057 125.909C45.3724 125.707 46.4913 125.746 47.561 125.618C52.2927 125.055 57.0056 124.369 61.7474 123.882C63.5784 123.694 65.5672 123.732 67.3823 123.438C68.326 123.284 68.0872 122.171 68.0423 121.35C67.9381 119.477 67.7355 116.82 67.4561 114.987C67.4112 114.695 67.2925 114.362 66.9596 114.327C55.9098 115.174 44.9122 116.543 33.9405 118.074C31.8794 118.362 29.8037 118.536 27.7498 118.831C27.5457 118.86 26.9494 118.966 26.851 119.097L34.5354 171.949L34.9595 172.227C45.3536 170.72 55.7839 169.427 66.2359 168.331C66.9857 168.253 71.8549 168.016 72.0344 167.761C71.9649 164.692 71.4496 161.572 71.3743 158.485L71.3729 158.483Z" fill="#C3191B"/>
<path d="M120.295 120.553V111.504C120.295 111.139 119.444 111.433 119.215 111.439C106.818 111.769 94.0356 111.96 81.7192 113.167C81.2112 113.217 79.9809 112.933 79.7956 113.56L83.6733 166.737L98.21 166.029C98.4474 165.854 98.3185 160.762 98.2997 160.143C98.2114 157.163 97.864 154.155 97.7092 151.178C97.5572 148.259 97.6296 145.31 97.2793 142.413L118.61 141.669L118.784 141.553C118.966 138.649 118.609 135.723 118.528 132.814C118.35 132.212 116.306 132.403 115.728 132.417C110.426 132.548 105.11 132.708 99.8109 133.001C98.8222 133.056 97.825 132.925 96.8407 133.086C96.5657 132.883 96.7307 130.551 96.7061 130.028C96.5744 127.259 96.1937 124.337 96.2661 121.565C96.2661 121.517 96.2632 121.468 96.2661 121.42L120.294 120.551L120.295 120.553Z" fill="#C3191B"/>
<path d="M175.641 115.938C162.516 109.168 143.311 107.409 132.894 119.759C124.791 129.365 125.024 147.441 132.831 157.166C138.313 163.994 146.287 166.43 154.812 166.742C161.122 166.972 167.059 165.411 172.834 163.038C173.332 162.562 173.494 162.3 173.56 161.593C173.823 158.77 174.046 155.452 174.147 152.626C174.207 150.962 174.17 150.662 172.325 150.804C170.531 150.942 168.072 153.487 166.457 154.49C154.747 161.766 143.78 154.76 143.021 141.615C142.635 134.919 143.208 128.075 148.435 123.366C155.688 116.829 163.781 120.028 170.378 125.545C171.979 126.884 172.858 128.482 175.421 128.059C175.848 126.051 175.77 123.972 175.877 121.928C175.93 120.929 176.143 119.737 176.171 118.747C176.194 117.886 176.398 116.449 175.638 115.938H175.641Z" fill="#C3191B"/>
<path d="M224.761 143.829C224.165 143.431 220.869 141.706 220.804 141.333C220.8 141.307 220.875 140.839 220.892 140.82C220.911 140.801 221.244 140.799 221.424 140.706C225.214 138.764 228.82 136.516 230.091 132.141C232.54 123.709 225.355 118.714 218.116 117.029C210.646 115.29 201.586 114.808 193.899 114.178C193.071 114.11 188.701 113.539 188.316 113.809L184.045 167.179C184.224 167.431 185.266 167.285 185.646 167.315C189.74 167.641 193.858 168.068 197.949 168.473C207.045 169.375 217.802 172.08 225.382 165.361C232.44 159.105 232.987 149.325 224.761 143.826V143.829ZM201.786 137.057C201.776 137.023 201.782 136.953 201.786 136.913C202.161 132.704 202.814 128.479 203.087 124.243L203.223 123.945C206.692 123.809 211.94 124.339 213.859 127.657C214.93 129.51 215.236 132.167 214.259 134.114C212.114 138.389 205.649 136.713 201.785 137.056L201.786 137.057ZM214.712 155.414C213.694 159.368 210.235 160.444 206.492 160.364C204.526 159.96 202.202 160.138 200.269 159.784C199.71 159.681 199.596 159.199 199.611 158.708C199.651 157.366 200.061 155.738 200.192 154.357C200.459 151.573 200.56 148.753 200.934 145.977C201.101 144.731 201.563 144.957 202.733 145.015C206.052 145.177 210.245 145.355 212.84 147.571C215.343 149.708 215.515 152.293 214.71 155.416L214.712 155.414Z" fill="#C3191B"/>
<path d="M212.529 180.127C212.564 179.623 212.887 177.464 212.574 177.157C212.279 176.866 210.354 176.934 209.828 176.863C199.59 175.494 189.211 174.636 178.844 173.976C155.09 172.463 131.177 172.278 107.336 172.811C92.6011 173.141 77.7792 174.366 63.1962 175.714C59.7774 176.029 54.804 176.212 51.4806 176.739C50.4385 176.904 49.9261 176.675 49.7292 177.922C49.6178 178.624 53.5099 212.753 53.5534 212.761C53.9876 212.85 74.4501 210.803 88.2124 209.701C101.975 208.599 135.444 207.502 149.594 208.457C159.172 209.104 208.996 212.605 209.232 212.211C209.301 212.094 212.167 185.433 212.53 180.127H212.529Z" fill="#C3191B"/>
<path d="M206.861 182.153C206.828 181.903 206.768 181.825 206.563 181.794L188.396 180.059C146.269 176.96 103.787 177.137 61.7473 181.217C59.8584 181.401 55.9793 181.789 55.8837 181.794L58.6411 206.255C60.2319 206.442 74.1563 204.647 97.2025 203.361C130.866 201.485 164.277 202.744 197.804 205.685C199.897 205.868 201.987 206.287 204.102 206.262C204.261 206.096 206.932 182.695 206.861 182.153Z" fill="white"/>
<path d="M86.7143 196.707C85.3827 197.143 82.2967 197.41 80.8276 197.376C80.5916 197.37 79.8853 197.319 79.7174 197.261C79.4901 197.183 78.6926 195.075 78.3524 194.58C78.2641 194.451 78.3785 194.314 78.0297 194.39V197.575C78.0297 197.685 76.5779 197.864 76.1523 197.499C75.637 197.057 75.9092 195.208 75.8571 194.464C75.7065 192.353 75.598 190.196 75.4228 188.094C75.4098 187.933 75.3418 187.02 75.0638 187.153C74.8887 187.237 74.8091 187.525 74.7396 187.697C74.4472 188.409 73.6526 191.525 73.5542 192.303C73.3313 194.072 73.793 195.994 73.696 197.775C73.6265 198.031 71.5162 198.17 71.5162 197.791V195.475C71.5162 194.891 71.1369 193.477 70.9415 192.864C70.7997 192.417 69.5129 189.152 69.3421 189.033C68.9962 188.795 68.9108 189.756 68.5214 189.875C68.1842 189.977 66.6325 189.873 66.4573 190.054C66.385 190.129 66.4892 190.85 66.4501 191.06H68.766C68.8065 191.447 69.1033 193.241 69.0454 193.432C68.9238 193.837 67.4995 193.736 67.1304 193.84C66.4487 194.031 66.7237 195.549 67.1015 195.549H69.4897L69.6157 198.136C69.4101 198.46 65.1228 198.599 64.9216 198.308L64.153 187.458C65.9305 187.528 67.8483 186.921 69.5636 186.863C71.7478 186.789 70.9271 187.713 71.7709 188.991C71.8607 189.128 71.7535 189.253 72.0922 189.178C72.4715 188.64 72.2934 186.898 72.8507 186.669C73.408 186.44 74.4096 186.63 75.0595 186.572C76.4317 186.448 78.584 185.772 79.6986 186.859C80.5627 187.703 80.7538 189.537 80.6191 190.685C80.5265 191.47 79.9548 192.132 80.0879 192.837C80.1835 193.345 81.6135 196.256 82.0116 196.419C82.3098 196.54 82.2142 196.22 82.2258 196.061C82.3127 194.903 82.0188 193.732 81.9378 192.582C81.7814 190.389 81.6685 188.189 81.5035 185.997L85.4739 185.712C86.4784 185.767 86.1542 187.678 86.2613 188.441C85.2944 188.887 83.4561 187.988 83.818 189.615H85.9168C86.2685 189.615 86.3829 191.715 86.2063 192.077C85.843 192.824 83.7051 191.612 84.1075 193.742C84.2797 194.652 86.296 193.507 86.5681 194.537C86.7331 195.165 86.8388 196.083 86.7129 196.708L86.7143 196.707ZM78.4523 191.047C78.6434 190.918 78.833 189.243 78.2178 189.059C76.753 188.622 77.5057 191.686 78.4523 191.047Z" fill="#242639"/>
<path d="M185.068 186.138C185.148 186.149 186.026 186.459 186.139 186.514C188.009 187.422 187.538 190.183 186.977 191.813C186.811 192.297 186.414 192.491 186.435 193.154C186.445 193.484 187.331 196.288 187.516 196.43C187.721 196.587 187.94 196.578 188.179 196.562L188.758 186.571C189.445 186.594 193.049 186.587 193.323 187.001C193.508 187.282 193.432 189.326 193.104 189.553C192.877 189.711 190.739 188.973 190.634 189.98C190.532 190.952 192.505 190.413 192.747 190.761C192.887 191.628 192.837 192.524 192.666 193.375H190.567C190.293 193.375 190.201 194.705 190.553 194.983C190.875 195.236 192.039 195.08 192.512 195.266C192.527 196.171 192.892 197.106 192.501 197.99L185.528 197.403C184.896 196.532 184.877 195.252 184.414 194.246C184.168 194.199 184.114 194.301 184.016 194.498C183.705 195.124 183.949 197.182 183.676 197.415C183.486 197.577 181.972 197.51 181.741 196.994C181.531 196.523 182.037 194.043 182.098 193.305C182.295 190.923 182.412 188.528 182.389 186.139C183.224 186.225 184.261 186.022 185.067 186.139L185.068 186.138ZM184.294 189.199C184.171 189.394 184.232 190.577 184.478 190.782C185.151 191.347 185.576 189.76 185.413 189.271C185.278 188.871 184.385 189.052 184.294 189.199Z" fill="#242639"/>
<path d="M118.269 195.693H116.17C115.747 195.693 115.019 193.315 114.76 192.905C114.646 192.724 114.625 192.601 114.36 192.653V195.693C113.551 195.428 109.878 196.281 109.607 195.453C109.36 194.694 109.944 193.622 108.636 193.659C107.544 193.691 108.255 195.285 107.701 195.764C107.324 196.09 105.729 196.141 105.685 195.489L107.278 185.207C107.319 184.427 109.396 184.539 109.649 184.985C110.52 187.974 110.739 191.351 111.62 194.306C111.735 194.69 111.82 195.412 112.333 195.402L111.9 185.058C111.932 184.835 112.068 184.635 112.289 184.573C112.883 184.405 114.653 184.445 115.288 184.557C117.248 184.899 117.27 187.198 117.108 188.815C117.038 189.51 116.646 190.15 116.562 190.736C116.346 192.236 118.183 194.134 118.267 195.693H118.269ZM114.072 187.298C113.98 187.393 113.828 188.874 114.213 189.11C115.203 189.715 115.355 187.479 114.847 187.316C114.721 187.276 114.1 187.269 114.072 187.298Z" fill="#242639"/>
<path d="M123.623 188.31C123.323 188.559 122.863 187.719 122.612 187.512C121.221 186.367 120.411 187.138 120.166 188.686C120.02 189.614 120.004 193.727 121.742 192.87C122.873 192.313 120.896 191.499 120.763 191.246C120.415 190.583 120.774 189.87 120.729 189.177L123.61 189.049C123.811 189.222 123.843 193.724 123.773 194.321C123.573 196.035 120.679 196.148 119.639 195.12C117.642 193.142 117.422 186.834 119.422 184.903C120.683 183.687 123.325 183.871 123.705 185.696C123.788 186.09 123.825 188.143 123.623 188.311V188.31Z" fill="#242639"/>
<path d="M158.324 184.723C163.055 183.742 162.627 193.619 160.464 195.55C159.443 196.462 157.765 196.471 156.94 195.307C155.294 192.986 155.569 188.197 156.953 185.812C157.202 185.384 157.836 184.825 158.325 184.723H158.324ZM159.034 187.452C157.889 187.652 157.965 191.401 158.086 192.278C158.222 193.258 158.984 193.648 159.553 192.759C160.121 191.87 160.22 187.245 159.034 187.452Z" fill="#242639"/>
<path d="M172.475 185.414C175.654 185.941 175.369 193.775 173.487 195.692C172.254 196.949 170.5 196.536 168.929 196.416C169.23 193.817 169.255 191.156 169.365 188.528C169.407 187.513 169.702 186.475 169.363 185.414C170.313 185.524 171.571 185.263 172.475 185.414ZM171.39 188.453L171.095 193.443C171.164 193.959 171.947 193.954 172.244 193.578C172.86 192.793 173.147 189.274 172.48 188.593C172.234 188.341 171.726 188.479 171.388 188.453H171.39Z" fill="#242639"/>
<path d="M126.809 184.256V191.278C126.809 191.334 126.959 192.329 126.982 192.407C127.065 192.707 127.587 192.938 127.809 192.783C127.843 192.759 128.059 192.083 128.078 191.967C128.256 190.793 127.909 184.773 128.175 184.392C128.308 184.201 130.042 184.204 130.123 184.272C130.507 184.599 130.133 186.55 130.123 187.079C130.09 188.899 130.287 190.892 130.143 192.731C130.006 194.482 129.046 195.866 127.163 195.701C124.244 195.446 124.865 191.648 124.789 189.679C124.776 189.336 124.64 189.019 124.633 188.677C124.601 187.205 124.669 185.727 124.639 184.256H126.81H126.809Z" fill="#242639"/>
<path d="M176.042 185.724C176.449 185.456 177.876 185.489 178.028 185.94C178.145 186.288 178.078 188.43 178.054 188.965C178.009 189.938 177.431 193.577 177.892 194.183C178.433 194.896 178.821 193.781 178.905 193.291C179.106 192.116 179.152 190.348 179.212 189.11C179.245 188.424 179.058 186.721 179.226 186.229C179.38 185.777 181.377 185.599 181.489 186.226C181.234 188.178 181.274 190.189 181.086 192.143C180.95 193.556 180.879 195.111 180.05 196.319C179.52 197.09 178.866 197.177 177.971 197.147C174.883 197.043 175.829 192.976 175.883 190.992C175.93 189.23 175.886 187.48 176.042 185.722V185.724Z" fill="#242639"/>
<path d="M195.959 187.041C196.863 186.892 198.553 187.121 198.823 188.16C198.948 188.641 198.997 190.724 198.61 190.998C197.895 191.502 196.674 188.622 195.716 190.28C197.277 192.122 198.854 191.935 198.6 194.894C198.372 197.568 196.775 199.24 194.018 198.179C192.699 197.671 192.822 196.966 192.958 195.622C193.281 192.459 194.4 196.086 195.856 195.78C197.59 195.417 194.558 193.856 194.194 193.368C192.934 191.681 193.679 187.415 195.957 187.041H195.959Z" fill="#242639"/>
<path d="M135.783 192.798C135.812 192.596 136.207 191.651 136.305 191.629C137.13 191.448 138.016 193.803 139.268 192.707C139.296 191.45 137.811 191.45 137.087 190.697C135.155 188.689 136.263 183.232 139.933 184.231C141.214 184.58 141.364 185.274 141.426 186.501C141.59 189.753 139.82 186.22 138.487 187.033C137.314 187.746 140.238 188.818 140.632 189.18C141.658 190.127 141.674 192.911 141.053 194.086C140.183 195.734 138.19 196.222 136.616 195.223C135.813 194.713 136.409 193.038 135.784 192.798C135.681 193.504 136.043 194.586 135.781 195.149C135.738 195.243 135.17 195.549 135.133 195.549H131.369C131.21 195.549 131.162 195.195 131.145 195.049C130.847 192.513 131.368 189.747 131.31 187.224C131.29 186.303 131.006 185.24 131.152 184.256H135.567C135.583 184.256 135.784 184.457 135.784 184.473V186.789C135.784 186.805 135.583 187.007 135.567 187.007H133.323V188.166C134.05 188.185 134.794 188.075 135.495 188.31V190.554C135.495 191.257 132.894 190.355 133.179 191.994C133.368 193.082 135.05 192.515 135.784 192.798H135.783Z" fill="#242639"/>
<path d="M87.5828 196.417C87.5177 196.317 87.0256 194.315 87.0038 194.101C86.765 191.716 88.1589 193.878 88.9883 194.07C89.3386 194.151 90.3286 194.243 90.3359 193.746C90.3474 192.793 88.46 192.562 87.8028 191.929C86.5436 190.717 86.6058 187.549 87.5249 186.151C88.2718 185.013 91.297 185.048 91.7471 186.536C91.8716 186.949 92.135 189.094 91.7051 189.178C91.1435 189.287 90.2418 187.715 89.1765 188.239C88.8045 188.421 88.7654 188.916 89.1186 189.165C90.0189 189.801 91.297 189.675 91.9107 191.004C92.604 192.502 92.4433 196.397 90.3735 196.818C89.8307 196.928 87.9085 196.908 87.5843 196.417H87.5828Z" fill="#242639"/>
<path d="M165.005 185.139C164.936 186.555 164.923 187.975 164.875 189.393C164.865 189.671 164.733 189.948 164.726 190.257C164.713 190.852 164.629 193.128 164.865 193.458C165.614 194.503 166.089 193.135 166.163 192.418C166.363 190.507 166.167 188.378 166.318 186.493C166.455 184.765 166.91 184.894 168.504 185.352C168.391 186.367 168.244 187.507 168.198 188.52C168.113 190.373 168.396 194.302 167.126 195.699C166.007 196.93 163.907 196.676 163.21 195.113C162.517 193.552 162.98 191.977 162.999 190.413C163.019 188.683 162.976 186.949 162.987 185.219C163.077 184.833 164.672 184.985 165.004 185.137L165.005 185.139Z" fill="#242639"/>
<path d="M155.468 194.463C155.167 196.274 152.438 196.414 151.265 195.192C149.464 193.316 149.698 186.756 151.629 184.977C152.666 184.023 155.212 184.224 155.577 185.666C155.72 186.233 155.96 188.118 155.526 188.444C154.628 189.116 153.938 186.485 152.9 187.478C152.143 188.204 151.749 193.273 153.373 193.229C153.805 193.218 154.854 191.68 155.468 191.784C155.372 192.604 155.598 193.681 155.468 194.463Z" fill="#242639"/>
<path d="M105.531 184.835V187.586H103.432C103.153 187.586 103.202 188.509 103.215 188.744H105.531V190.988C105.531 191.899 103.712 191.416 103.489 191.723C102.949 192.465 103.9 195.184 103.371 195.921C103.075 196.336 101.554 196.214 101.397 195.992C101.221 195.741 101.368 193.024 101.341 192.428C101.245 190.415 100.898 188.205 100.892 186.209C100.892 185.874 100.918 184.977 101.283 184.852C101.684 184.716 103.167 184.845 103.729 184.839C104.291 184.833 104.875 184.642 105.533 184.832L105.531 184.835Z" fill="#242639"/>
<path d="M147.507 192.363C147.365 192.317 147.193 192.508 147.145 192.508H144.106C144.058 192.508 143.886 192.317 143.744 192.363V189.178H147.29C147.306 189.178 147.507 189.379 147.507 189.395V192.363Z" fill="#242639"/>
<path d="M98.2939 190.047V192.725C98.2939 192.762 97.8235 193.232 97.7873 193.232H94.5305V190.264C94.5305 190.171 95.2325 189.902 95.3266 189.902H97.932C97.9798 189.902 98.152 190.093 98.2939 190.047Z" fill="#242639"/>
<path d="M124.782 225.664C124.782 225.664 122.183 226.669 121.35 227.08C119.909 227.792 121.281 228.308 122.206 228.602C126.13 229.851 136.447 229.796 140.422 228.638C142.554 228.017 142.154 227.228 140.346 226.529C139.695 226.277 138.67 226.052 137.863 225.77C139.22 225.664 141.199 225.861 142.301 226.746C144.003 228.112 142.189 229.145 140.849 229.643C136.68 231.19 124.649 231.334 120.742 229.2C120.585 229.113 119.732 228.663 119.732 228.026C119.732 225.97 123.173 225.724 124.784 225.666L124.782 225.664Z" fill="#FEFEFE"/>
<path d="M124.21 219.243C124.374 218.899 124.498 218.551 124.578 218.208C124.658 217.865 124.698 217.504 124.698 217.14C124.698 216.475 124.533 215.874 124.209 215.354C123.856 214.788 123.303 214.489 122.612 214.489C121.98 214.489 121.465 214.735 121.082 215.22C120.722 215.677 120.512 216.351 120.443 217.277C120.428 217.465 120.561 217.633 120.75 217.662L121.786 217.82C121.887 217.835 121.991 217.807 122.071 217.742C122.151 217.677 122.198 217.58 122.203 217.477C122.217 217.122 122.287 216.529 122.588 216.529C122.664 216.529 122.731 216.549 122.803 216.652C122.863 216.736 122.932 216.909 122.932 217.263C122.932 217.546 122.864 217.836 122.73 218.123C122.663 218.266 122.469 218.602 121.918 219.387C121.317 220.235 120.92 220.908 120.708 221.442C120.493 221.978 120.365 222.55 120.323 223.142C120.315 223.242 120.35 223.341 120.42 223.414C120.488 223.488 120.585 223.529 120.684 223.529H124.339C124.539 223.529 124.701 223.367 124.701 223.167V221.69C124.701 221.49 124.539 221.328 124.339 221.328H122.86C122.966 221.163 123.152 220.895 123.413 220.527C123.788 220.003 124.05 219.582 124.215 219.237L124.21 219.243Z" fill="white"/>
<path d="M128.33 214.49C127.661 214.49 127.124 214.872 126.733 215.627C126.377 216.313 126.203 217.438 126.203 219.068C126.203 220.698 126.377 221.868 126.733 222.549C127.124 223.296 127.664 223.675 128.334 223.675C129.004 223.675 129.54 223.293 129.931 222.538C130.287 221.852 130.46 220.723 130.46 219.085C130.46 217.448 130.287 216.313 129.931 215.627C129.54 214.872 129 214.49 128.33 214.49ZM128.333 216.532C128.351 216.54 128.418 216.607 128.486 216.799C128.545 216.967 128.647 217.487 128.647 219.084C128.647 220.681 128.547 221.196 128.486 221.364C128.417 221.56 128.349 221.625 128.336 221.634C128.336 221.634 128.263 221.596 128.179 221.366C128.118 221.199 128.017 220.682 128.017 219.085C128.017 217.489 128.118 216.969 128.179 216.802C128.262 216.575 128.331 216.533 128.331 216.533L128.333 216.532Z" fill="white"/>
<path d="M134.083 214.49C133.415 214.49 132.878 214.872 132.487 215.627C132.131 216.313 131.957 217.438 131.957 219.068C131.957 220.698 132.131 221.868 132.487 222.549C132.879 223.296 133.418 223.675 134.088 223.675C134.758 223.675 135.293 223.293 135.684 222.538C136.04 221.852 136.214 220.723 136.214 219.085C136.214 217.448 136.04 216.313 135.684 215.627C135.293 214.872 134.754 214.49 134.083 214.49ZM134.085 216.532C134.104 216.54 134.17 216.607 134.238 216.799C134.298 216.967 134.399 217.487 134.399 219.084C134.399 220.681 134.299 221.196 134.238 221.364C134.169 221.56 134.101 221.625 134.088 221.634C134.088 221.634 134.015 221.596 133.931 221.366C133.871 221.199 133.769 220.682 133.769 219.085C133.769 217.489 133.871 216.969 133.931 216.802C134.014 216.575 134.085 216.533 134.083 216.533L134.085 216.532Z" fill="white"/>
<path d="M141.438 215.627C141.047 214.872 140.507 214.49 139.837 214.49C139.167 214.49 138.631 214.872 138.24 215.627C137.884 216.313 137.711 217.438 137.711 219.068C137.711 220.698 137.884 221.868 138.24 222.549C138.633 223.296 139.171 223.675 139.841 223.675C140.511 223.675 141.047 223.293 141.438 222.538C141.794 221.852 141.968 220.723 141.968 219.085C141.968 217.448 141.794 216.313 141.438 215.627ZM139.838 216.532C139.857 216.54 139.924 216.607 139.992 216.799C140.051 216.967 140.153 217.487 140.153 219.084C140.153 220.681 140.053 221.196 139.992 221.364C139.922 221.56 139.854 221.625 139.841 221.634C139.841 221.634 139.769 221.596 139.685 221.366C139.624 221.199 139.523 220.682 139.523 219.085C139.523 217.489 139.624 216.969 139.685 216.802C139.768 216.575 139.838 216.533 139.837 216.533L139.838 216.532Z" fill="white"/>
</g>
<defs>
<clipPath id="clip0_3116_250">
<rect width="256" height="256" fill="white"/>
</clipPath>
</defs>
</svg>
