<svg width="256" height="256" viewBox="0 0 256 256" fill="none" xmlns="http://www.w3.org/2000/svg">
<path d="M139.29 213.965C174.464 213.709 205.559 188.459 214.895 152.559L214.946 152.363L215.125 152.269C227.925 145.783 247.142 132.036 247.578 120.738C247.714 117.572 246.076 114.483 242.705 111.556C227.191 98.0821 175.343 89.5231 125.764 98.7818C58.1546 111.394 5.89648 139.375 9.27568 161.152C10.129 166.613 16.7935 172.322 27.1018 176.41C38.6986 181.009 53.5381 183.1 68.8895 182.306H69.1199L69.265 182.468C86.9461 203.819 109.841 214.135 139.29 213.956V213.965Z" fill="#00A19E"/>
<path d="M205.107 109.363C198.323 77.9436 170.385 54.3916 136.934 54.3916C98.4063 54.3916 67.1743 85.6236 67.1743 124.152C67.1743 126.311 67.2853 128.435 67.4815 130.543C94.6431 126.37 176.154 113.852 205.116 109.363H205.107Z" fill="#E6621B"/>
<path d="M80.7423 165.496C93.4399 182.733 113.877 193.929 136.934 193.929C168.729 193.929 195.533 172.655 203.938 143.573C183.415 147.985 117.222 161.877 80.7338 165.504L80.7423 165.496Z" fill="#E6621B"/>
<path d="M201.899 147.815C220.8 141.713 230.852 136.713 230.852 136.713C223.991 138.522 217.199 140.211 210.5 141.799C210.398 141.961 210.287 142.097 210.184 142.2C210.184 142.2 100.744 166.357 66.2954 166.357C66.2954 166.357 66.0224 165.453 65.5786 163.925C40.1066 165.709 24.96 165.572 24.96 165.572C24.3626 171.759 36.9237 177.255 80.2816 172.51C93.1584 188.22 112.768 198.272 134.75 198.272C165.086 198.272 190.891 179.166 200.695 152.388C198.434 158.131 189.15 177.553 163.772 187.418L165.709 185.89C165.35 184.013 164.89 182.093 164.352 180.13C170.069 177.698 175.053 174.882 179.379 171.887C180.002 172.007 180.642 172.066 181.299 172.066C183.944 172.066 186.863 171.128 190.029 169.242L188.672 166.963C186.598 168.192 184.712 168.952 182.972 169.25C192.887 161.545 198.792 153.199 201.899 147.806V147.815ZM151.176 160.7C153.796 165.828 156.314 171.102 158.66 176.495C153.626 178.338 148.053 179.994 141.884 181.368C140.971 178.407 136.96 175.864 127.078 174.831C111.812 173.227 103.859 171.281 99.9082 169.967C114.33 167.825 131.294 164.804 151.176 160.7ZM89.105 171.469C90.7776 171.256 92.4928 171.025 94.2506 170.778C103.066 175.019 119.671 177.613 119.671 177.613C129.306 178.705 134.408 180.446 136.721 182.409C128.503 183.928 119.304 184.926 109.073 185.208C102.357 182.016 95.3002 177.587 89.105 171.46V171.469ZM132.198 192.649C128.691 192.026 122.658 190.686 115.703 188.049C123.75 188.365 131.123 188.024 137.864 187.153C136.883 189.244 134.391 191.215 132.198 192.649ZM135.45 193.135C135.45 193.135 135.407 193.135 135.347 193.127C137.207 191.488 139.528 189.176 140.911 186.709C148.309 185.557 154.906 183.765 160.794 181.555C161.621 183.569 162.423 185.6 163.2 187.64C155.494 190.558 146.33 192.606 135.45 193.135ZM162.739 174.908C161.058 169.976 158.899 164.839 156.39 159.608C158.481 159.164 160.597 158.72 162.748 158.251C164.497 157.875 166.212 157.491 167.902 157.099C169.216 162.236 171.272 166.673 174.31 169.336C170.863 171.264 167.023 173.15 162.748 174.899L162.739 174.908ZM176.759 167.928C176.623 167.834 176.486 167.74 176.358 167.629C173.594 165.393 171.716 161.314 170.496 156.51C181.231 153.993 190.618 151.356 198.596 148.873C195.524 153.045 188.808 160.708 176.759 167.928Z" fill="white"/>
<path d="M103.27 85.2651L103.322 85.2054L103.979 82.9782C98.193 76.2881 94.1994 72.2262 93.5082 72.1067C91.7674 71.7569 91.0677 74.0267 91.0677 74.0267C93.457 77.1329 97.1861 81.5958 101.768 87.2449L103.27 85.2737V85.2651Z" fill="white"/>
<path d="M146.876 58.9313L149.052 70.9633L150.537 61.3719L152.107 54.6561L154.641 58.4961L156.817 52.4801L161.519 43.0679L159.215 43.7932L153.148 49.0327L149.325 50.654L144.632 56.3543L146.876 58.9313Z" fill="white"/>
<path d="M85.8369 117.359L99.439 113.519L98.5686 106.983L110.686 104.363L119.228 95.7272L122.283 84.5656L105.02 90.1464L111.121 81.0755L122.803 72.7043L119.757 58.4963L124.553 51.1661L128.828 38.2637L134.298 37.8115L127.232 37.4019L123.631 43.5459L117.521 49.3827L112.802 53.1629L103.313 85.2056L103.271 85.2653L85.487 108.63L70.9121 120.081L141.995 108.979L85.8369 117.359Z" fill="white"/>
<path d="M202.658 95.5139L200.525 95.8382L194.773 89.7625L190.763 77.3721L183.953 65.2377L170.957 55.6377L170.906 55.5438L164.659 42.9657H162.057L157.201 52.6681L154.752 59.4435L152.303 55.7315L150.955 61.4659L149.478 71.0318L148.634 71.0403L146.475 59.1193L143.505 55.7145L141.756 43.1619L137.19 38.0078L129.144 38.6649L124.911 51.4051L120.218 58.5817L123.29 72.8921L111.437 81.3827L106.069 89.3529L122.906 83.9086L119.62 95.9491L110.899 104.756L99.0465 107.316L99.9169 113.835L92.4758 115.926L203.947 99.3027L202.658 95.5139Z" fill="#00A19E"/>
<path d="M91.0593 139.793L90.1633 139.862L88.926 147.234L86.5708 138.812L78.4726 139.614L78.2422 141.005L77.3377 141.099L74.735 156.382L71.7996 140.049L65.5617 140.459L64.6998 141.927L64.4268 141.944L55.0572 157.807L55.7484 154.351L49.0412 154.701L51.8316 141.363L45.1841 141.688L44.8769 143.121L44.2113 143.155L44.527 141.816L31.2492 142.106L30.8908 143.574L30.0289 143.591L25.8817 160.845L39.1596 160.555L39.535 159.087L40.3969 159.07L41.3014 155.068L34.6028 155.239L34.9697 153.728L40.303 153.575L40.6444 152.115L41.4209 152.09L42.462 148.173L36.2582 148.344L36.5142 147.354L42.3766 147.2L42.7692 145.741L43.4348 145.724L40.3798 160.427L53.7345 159.753L54.0673 158.311L54.7841 158.277L53.9564 159.685L58.1377 159.403L58.9996 157.935L59.2726 157.918L61.0305 154.931L66.0396 154.582L66.8246 158.763L73.7025 158.336L73.455 156.937L74.6753 156.86L74.4364 158.26L78.1142 157.986L78.3702 156.502L79.2492 156.399L80.5206 149.009L82.927 157.466L90.9313 156.766L91.1617 155.358L92.0577 155.281L94.9846 138.104L91.2982 138.377L91.0593 139.793ZM65.0156 149.462L64.2305 149.513L64.8364 148.455L65.0241 149.462H65.0156Z" fill="#00243B"/>
<path d="M187.341 141.005L188.382 124.066L184.721 124.741L184.644 126.012L183.501 126.225L183.074 133.154L179.883 125.602L171.725 127.096L171.657 128.384L170.599 128.581L170.53 129.681C170.394 129.118 170.155 128.674 169.788 128.35C168.9 127.565 167.569 127.702 166.656 127.872L154.914 129.878L154.812 131.166L153.694 131.354L152.508 146.577L147.951 131.098L141.653 132.113L140.962 133.521L140.527 133.59L132.523 149.846L132.873 146.321L126.072 147.277L126.234 145.741L131.524 144.93L131.661 143.599L132.659 143.446L133.052 139.503L126.788 140.459L126.916 139.384L132.745 138.573L132.881 137.242L133.965 137.088L134.357 133.146L120.747 135.074L120.602 136.414L119.62 136.551L119.381 138.684C119.458 137.617 119.245 136.815 118.699 136.278C118.033 135.621 116.958 135.399 115.422 135.603L103.765 136.969L103.578 138.334L102.545 138.454L100.181 155.648L112.137 154.249C114.398 154.112 115.815 153.302 116.497 151.749C117.41 151.066 117.965 150.059 118.144 148.711L118.494 145.843C118.613 145.05 118.494 144.453 118.119 144.017C117.973 143.855 117.811 143.727 117.624 143.625C118.349 143.147 118.946 142.387 119.108 141.116L119.202 140.357L117.735 153.651L131.354 151.723L131.49 150.383L132.318 150.264L131.55 151.825L135.731 151.126L136.44 149.718L136.866 149.649L138.419 146.535L143.3 145.775L144.521 149.794L151.552 148.625L151.185 147.388L152.457 147.175L152.363 148.344L159.079 147.26L159.181 145.954L160.299 145.775L160.615 141.671L162.21 146.731L169.472 145.553L169.011 144.342L169.634 144.239L169.557 145.562L173.218 144.888L173.295 143.616L174.439 143.403L174.831 136.175L178.142 143.941L186.215 142.55L186.291 141.167L187.349 140.971L187.341 141.005ZM110.754 147.823C110.754 147.823 110.754 147.849 110.754 147.857L110.49 149.41L108.834 149.59L109.056 148.011L110.754 147.823ZM111.625 141.372C111.625 141.372 111.625 141.398 111.625 141.406L111.445 142.43L109.696 142.618L109.841 141.568L111.625 141.372ZM141.176 140.869L141.602 139.964L141.841 140.766L141.176 140.86V140.869ZM162.637 133.871C162.637 133.871 162.637 133.939 162.628 133.982L162.586 134.912L161.101 135.16L161.178 134.119L162.645 133.871H162.637ZM169.788 141.739L168.423 138.172C168.593 137.942 168.738 137.686 168.849 137.395C169.481 137.02 169.916 136.448 170.155 135.68L169.788 141.739Z" fill="#00243B"/>
<path d="M232.107 126.208L231.842 122.206C231.8 121.157 231.441 120.389 230.776 119.911C230.409 119.646 229.956 119.501 229.444 119.45L230.571 119.134L230.494 117.991L231.706 117.649L231.441 113.801L219.879 117.069C218.624 117.393 217.694 118.221 217.165 119.365C216.474 119.936 215.979 120.721 215.731 121.686L215.714 118.008L209.016 119.629V120.849L207.881 121.105L207.966 136.184L202.308 121.225L196.036 122.539L195.456 123.887L194.816 124.024L186.965 142.464L191.113 141.637L191.761 140.16L192.239 140.066L193.596 136.994L198.528 135.962L200.013 139.81L206.951 138.206L206.524 137.088L207.966 136.781V137.95L214.673 136.329V135.109L215.808 134.853L215.765 127.719C215.876 128.845 216.218 129.579 216.832 130.014C217.242 130.304 217.754 130.415 218.36 130.381L217.182 130.722L217.259 131.866L216.047 132.199L216.312 136.047L227.541 132.864C229.069 132.438 230.101 131.576 230.613 130.33C231.731 129.383 232.243 128 232.107 126.183V126.208ZM195.985 131.217L196.361 130.287L196.659 131.072L195.977 131.217H195.985Z" fill="#00243B"/>
<path d="M40.926 151.45L34.8161 151.629L33.775 155.904L40.4908 155.725L39.8764 158.43L27.8444 158.695L31.7697 142.729L43.7164 142.473L43.102 145.084L36.3862 145.263L35.4305 149.009L41.6172 148.839L40.926 151.45Z" fill="white"/>
<path d="M45.7217 142.294L51.038 142.038L48.2476 155.375L54.9633 155.025L54.4428 157.645L42.3169 158.259L45.7217 142.294Z" fill="white"/>
<path d="M67.1745 149.974L63.0785 150.238L66.2188 144.743L67.1745 149.974ZM74.0609 156.246L71.2705 140.723L65.9543 141.073L56.2775 157.466L58.8972 157.295L61.5169 152.849L67.7121 152.414L68.4972 156.604L74.078 156.254L74.0609 156.246Z" fill="white"/>
<path d="M89.5831 151.979H89.6684L91.8529 138.983L94.2081 138.812L91.5031 154.684L84.5228 155.29L80.9473 142.643L78.686 155.81L76.4161 156.075L79.0273 140.203L86.0929 139.503L89.5831 151.979Z" fill="white"/>
<path d="M113.041 142.038C112.956 142.737 112.777 142.908 112.171 142.993L108.945 143.343L109.466 139.597L112.691 139.247C113.212 139.162 113.476 139.333 113.391 140.032L113.041 142.038ZM117.487 148.659L117.837 145.784C118.101 144.043 116.967 143.949 115.047 143.949V143.864C116.787 143.514 118.187 143.079 118.451 141.073L118.716 138.983C118.98 136.892 118.101 135.928 115.49 136.278L104.329 137.583L102.153 153.455L113.314 152.15C116.105 151.979 117.24 150.665 117.504 148.659M112.171 149.009C112.085 149.709 111.821 149.88 111.3 149.965L108.075 150.315L108.689 146.04L111.915 145.69C112.435 145.605 112.7 145.69 112.615 146.475L112.179 149.001L112.171 149.009Z" fill="white"/>
<path d="M132.053 142.908L125.773 143.864L125.338 148.054L132.139 147.089L131.874 149.709L119.578 151.45L121.327 135.672L133.624 133.922L133.359 136.542L126.473 137.498L126.037 141.252L132.309 140.288L132.053 142.908Z" fill="white"/>
<path d="M144.256 141.073L140.066 141.688L142.771 136.021L144.256 141.082M151.851 146.654L147.49 131.832L142.08 132.702L133.794 149.53L136.414 149.094L138.684 144.563L144.879 143.608L146.099 147.618L151.851 146.662V146.654Z" fill="white"/>
<path d="M164.403 134.358C164.318 134.972 164.139 135.228 163.533 135.407L160.393 135.928L160.657 132.267L163.797 131.746C164.412 131.661 164.582 131.746 164.497 132.531L164.412 134.366M169.813 143.608L167.373 137.242C169.114 136.977 169.643 135.842 169.728 134.451L169.993 131.396C170.163 128.777 169.122 128.086 166.767 128.521L155.52 130.441L154.3 146.134L159.71 145.263L160.23 138.462L161.886 138.198L163.891 144.563L169.822 143.608H169.813Z" fill="white"/>
<path d="M184.465 138.112L184.55 138.027L185.336 125.295L187.691 124.86L186.726 140.467L179.661 141.773L174.609 129.912H174.524L173.824 142.908L171.469 143.343L172.339 127.65L179.49 126.336L184.465 138.112Z" fill="white"/>
<path d="M199.108 131.226L194.918 132.096L197.274 126.345L199.108 131.226ZM207.309 136.277L201.899 121.976L196.489 123.111L189.167 140.032L191.787 139.512L193.792 134.98L200.073 133.675L201.557 137.515L207.309 136.295V136.277Z" fill="white"/>
<path d="M215.16 134.358L209.749 135.586L209.664 120.15L215.066 118.835L215.16 134.358Z" fill="white"/>
<path d="M228.497 130.782L218.035 133.743L217.865 131.217L225.451 129.041C226.15 128.871 226.321 128.606 226.236 128.171L226.15 127.121C226.15 126.601 225.886 126.507 225.195 126.686L220.57 127.992C218.564 128.606 217.609 127.992 217.515 125.636L217.344 121.976C217.259 120.056 218.044 118.23 220.049 117.7L230.861 114.646L231.032 117.171L223.531 119.262C222.831 119.433 222.575 119.697 222.575 120.132L222.66 121.088C222.66 121.523 222.925 121.609 223.616 121.438L227.627 120.303C229.717 119.689 231.117 120.218 231.202 122.223L231.467 126.234C231.637 128.589 230.682 130.074 228.506 130.765L228.497 130.782Z" fill="white"/>
<path d="M212.719 78.5494L225.715 79.07L228.77 78.4556L230.255 86.4769L229.905 91.4433C229.905 91.4433 227.9 94.4982 227.55 94.9334C227.55 94.9334 225.109 97.8092 224.845 97.9884C215.168 103.134 204.262 106.189 204.262 106.189L203.913 87.9617L206.967 83.7718L212.719 78.5409V78.5494Z" fill="#FCE1C6"/>
<path d="M246.682 110.43C241.613 105.976 233.319 102.272 222.968 99.4305L227.362 97.1179L229.803 92.4929C230.067 91.3579 230.417 89.3526 230.417 89.3526L230.247 83.5073C230.511 82.4577 232.516 78.191 229.291 77.9265C228.156 77.8411 214.639 77.4059 214.639 77.4059C214.639 77.4059 215.424 75.5713 215.16 74.7009C214.895 73.8305 201.643 72.2603 201.122 71.9958C200.508 71.7313 200.602 69.3761 199.902 68.7702C199.202 68.1558 194.842 68.6849 193.971 69.2907C193.101 69.8113 191.616 72.431 191.181 72.6017C190.925 72.687 189.551 72.687 188.143 72.6614C188.749 72.6785 189.346 72.6785 189.85 72.6785L185.114 64.2049L172.143 54.6305L165.897 42.0609L165.607 41.4465H161.118L161.024 41.6342L158.456 42.4363L152.397 47.7014L148.386 49.391L144.76 53.8113L143.189 42.4875L138.3 36.975L138.121 36.5142L137.882 36.4971L137.822 36.4289L137.361 36.463L126.396 35.8145L122.479 42.5302L116.523 48.239L111.497 52.2582L109.244 59.8785C89.3868 68.4203 72.286 87.791 67.1148 112.094C56.687 116.019 47.0188 120.38 38.5196 125.056C14.7542 138.146 2.65396 151.936 4.43743 163.908C6.25503 176.384 32.2305 189.013 66.6028 187.256C84.7361 209.894 108.228 220.911 138.377 220.911C138.709 220.911 139.042 220.911 139.375 220.911C157.457 220.74 174.592 214.289 188.945 202.249C203.23 190.268 213.333 173.935 218.172 155.008C226.014 150.946 233.993 145.4 240.094 139.776C245.35 134.929 251.682 127.701 251.989 120.789C252.143 117.154 250.351 113.673 246.673 110.447L246.682 110.43ZM206.874 88.7553C207.138 87.4497 211.584 79.4283 213.76 79.3345C214.63 79.3345 216.986 79.599 222.302 79.5051C220.211 82.031 221.781 84.7361 223.872 86.3915C223.872 86.3915 226.048 87.8763 228.582 87.5265L230.067 85.2566L229.897 89.7025L229.376 91.9723L229.026 92.5441C227.303 94.3446 222.899 97.4763 214.554 94.7627C214.554 94.7627 210.278 93.3633 211.849 95.4625C211.849 95.4625 213.069 95.5478 214.81 95.8123C218.411 96.2049 224.597 97.6385 228.608 93.2182L227.541 94.9419L226.142 96.5121C224.051 97.647 215.765 101.393 215.765 101.393C215.765 101.393 206.874 101.478 206.694 96.6827C206.609 93.5425 206.694 89.2673 206.865 88.7467L206.874 88.7553ZM149.325 50.6539L153.148 49.0411L159.215 43.7931L160.956 43.247L156.416 52.3265L154.53 57.5403L151.919 53.5809L150.118 61.3035L149.026 68.3606L147.285 58.735L144.922 56.0214L149.333 50.6539H149.325ZM137.19 38.0075L141.756 43.1531L143.497 55.7057L146.466 59.1105L148.625 71.0315H149.478L150.955 61.4571L152.294 55.7142L154.744 59.4347L157.193 52.6593L162.048 42.9569H164.651L170.897 55.535L170.94 55.6289L183.945 65.2289L188.117 72.6699C186.633 72.6358 185.105 72.5675 184.798 72.5249C184.184 72.4395 180.787 69.6491 178.867 69.2993C178.168 69.2139 173.551 70.8694 172.937 71.4753C172.322 72.0811 172.237 74.0011 172.237 74.0011C172.237 74.0011 163.951 75.2214 142.063 83.3281C140.339 83.951 148.574 84.0278 150.648 84.0278C146.611 84.0534 136.977 87.8763 130.202 90.9142C127.147 92.2198 143.369 90.9995 139.878 92.2198C135.433 93.8753 134.562 94.7457 127.847 98.3211C118.17 103.467 116.77 104.602 106.744 108.612C106.744 108.612 103.748 109.824 99.5756 111.411L99.0294 107.29L110.891 104.73L119.603 95.9233L122.897 83.8827L106.061 89.327L111.428 81.3569L123.281 72.8662L120.209 58.5558L124.911 51.3793L129.144 38.6475L137.088 37.999H137.19V38.0075ZM112.802 53.1627L117.521 49.3825L123.622 43.5371L127.224 37.3931L131.217 37.6235L128.504 37.8454L124.16 50.9697L119.296 58.4022L122.325 72.5163L110.874 80.7254L103.97 90.9398L121.668 85.2225L118.852 95.5051L110.473 103.97L98.0908 106.641L98.7734 111.744C98.927 111.684 99.0721 111.633 99.2257 111.573C88.9857 115.456 72.1665 121.37 74.1036 117.572L85.4956 108.621L85.5297 108.578L86.4001 107.426L103.236 85.3078L103.279 85.2566L103.33 85.1969L112.819 53.1627H112.802ZM109.167 60.1259L103.467 79.3857C100.216 75.7675 97.3654 73.0966 94.6518 71.2705C100.702 65.263 106.394 61.6875 109.167 60.1259ZM92.6636 73.327C93.2609 74.1974 96.1964 77.0987 102.101 83.9937L101.948 84.5057L85.7345 105.83C82.0054 106.957 78.319 108.126 74.718 109.372C77.5937 93.1585 85.1713 81.3654 92.6636 73.327ZM81.4764 109.858L79.326 111.548C77.8497 112.137 76.0662 112.853 74.095 113.69C74.1548 113.212 74.206 112.725 74.2742 112.248C76.6294 111.437 79.0358 110.643 81.4764 109.858ZM247.586 120.738C247.143 132.045 227.934 145.784 215.134 152.269L214.955 152.363L214.904 152.559C205.56 188.45 174.473 213.7 139.298 213.965C109.85 214.144 86.9548 203.827 69.2737 182.477L69.1286 182.306H68.8982C53.5468 183.117 38.7073 181.018 27.1105 176.418C16.8022 172.331 10.1377 166.622 9.28436 161.161C6.9889 146.398 30.2678 128.794 66.5601 115.046C66.4406 115.746 66.3297 116.446 66.2358 117.154C47.7612 125.688 27.1788 138.496 75.9041 136.371C99.8828 135.322 137.557 131.49 189.44 120.678C194.85 119.629 204.877 111.872 207.923 109.082C210.543 106.462 213.154 104.286 215.245 103.501L219.836 101.086C230.05 103.902 238.037 107.512 242.714 111.573C246.084 114.5 247.723 117.589 247.586 120.747V120.738Z" fill="#16294D"/>
<path d="M24.5249 164.966C24.9857 170.027 40.8662 174.285 80.9046 170.189C93.8326 186.18 113.681 196.54 135.714 196.54C166.255 196.54 195.687 172.177 203.418 145.638C222.319 139.81 232.568 135.228 232.516 135.228C116.275 168.192 24.5334 164.966 24.5334 164.966H24.5249ZM136.593 190.66C135.586 190.635 134.571 190.592 133.538 190.515C133.538 190.515 124.442 189.798 113.331 185.284C123.469 186.249 132.642 185.907 140.937 184.653C141.048 186.872 138.965 188.988 136.593 190.652V190.66ZM140.817 190.652C143.77 188.809 145.459 186.411 145.314 183.902C151.364 182.707 156.903 181.018 161.963 178.995C162.825 181.103 163.661 183.202 164.48 185.284C157.602 188.331 149.735 190.353 140.817 190.652ZM166.997 184.107C166.409 181.965 165.786 179.823 165.095 177.673C170.419 175.309 175.164 172.595 179.362 169.728C181.419 170.453 183.791 170.505 186.453 169.754C181.257 175.07 174.805 180.233 166.997 184.107ZM189.227 166.793C187.588 167.057 185.617 167.134 183.672 166.622C193.4 159.13 199.637 151.211 202.889 146.424C201.165 150.016 196.753 158.328 189.227 166.793ZM200.661 146.475C196.966 150.477 189.722 157.602 179.499 164.284C177.4 162.27 175.761 158.882 175.241 153.378C184.841 151.04 193.331 148.685 200.653 146.475H200.661ZM163.618 156.075C165.769 155.605 167.859 155.128 169.916 154.641C170.752 159.812 172.51 164.164 175.189 166.963C171.588 169.088 167.672 171.102 163.473 172.902C161.647 167.765 159.505 162.611 157.124 157.474C159.266 157.022 161.417 156.553 163.618 156.075ZM152.917 158.37C155.435 163.669 157.798 169.003 160.026 174.302C154.633 176.367 148.804 178.014 142.584 179.038C139.196 176.017 132.472 173.261 121.327 171.597C115.652 170.744 110.643 168.747 107.059 166.793C120.423 164.745 135.654 161.98 152.917 158.362V158.37ZM93.406 168.73C103.441 172.57 118.793 175.087 118.793 175.087C127.539 176.469 133.129 178.099 136.508 179.814C123.409 181.001 108.74 179.234 92.8513 172.544C91.7164 171.503 90.6156 170.385 89.5404 169.216C90.8033 169.062 92.1004 168.9 93.406 168.73Z" fill="#16294D"/>
<path d="M195.712 73.5831L201.992 75.2385L191.181 74.2828L187.17 74.9825L186.47 77.4231C186.47 77.4231 180.89 71.8423 179.669 71.1425C178.534 70.4428 175.138 72.0129 175.138 72.0129C175.138 72.0129 178.543 71.8423 179.848 72.6273C181.154 73.4124 186.479 79.3431 186.479 79.3431L179.243 83.0892C179.243 83.0892 194.679 79.4284 196.164 79.0785C200.61 78.0289 204.971 83.1745 204.971 83.1745C204.971 83.1745 202.795 82.0396 201.224 81.2545C196.164 78.8993 190.498 87.7911 190.583 87.8849C191.718 89.1052 193.459 87.1852 196.779 89.4551C200.277 91.8615 202.487 90.4279 203.725 88.9857C202.632 89.5916 201.003 89.8647 198.528 89.4551C198.613 89.4551 196.258 88.2348 194.603 87.4497C194.603 87.4497 194.338 85.1799 198.963 83.4391C203.213 81.8092 202.948 83.2343 205.542 83.9169C205.611 83.6268 205.704 83.3623 205.85 83.1745C208.119 80.2988 213.436 77.5084 213.436 77.5084L213.606 75.6737L195.729 73.5831H195.712Z" fill="#484F6B"/>
<path d="M156.646 90.1462L139.819 96.0769L151.159 97.3825L129.186 108.809C129.186 108.809 146.799 109.423 163.806 106.889H135.467L157.09 96.0769L146.713 95.0273L156.655 90.1462H156.646Z" fill="#484F6B"/>
<path d="M171.819 76.0237C171.819 76.0237 171.554 82.125 172.518 84.3095C172.518 84.3095 169.643 79.5991 168.772 79.1639C167.031 78.2935 163.191 78.8141 161.357 78.5495C161.271 78.5495 165.632 77.4146 171.819 76.0237Z" fill="#484F6B"/>
<path d="M135.45 101.223C99.2598 119.271 49.903 132.787 72.7468 116.395C72.7468 116.395 29.0561 135.757 75.102 132.088C75.102 132.088 106.061 131.038 155.853 118.921L121.839 118.05L134.921 114.04C134.921 114.04 121.839 112.384 117.129 112.384L135.441 101.223H135.45Z" fill="white"/>
<path d="M197.367 87.7057C197.367 87.7057 198.238 84.9153 200.158 84.7446C200.158 84.7446 198.417 86.6646 200.508 88.3201C200.508 88.3201 198.938 88.4908 197.367 87.7057Z" fill="white"/>
<path d="M202.513 85.7004L203.384 85.4358L202.684 84.7446L202.513 85.7004Z" fill="white"/>
<path d="M101.709 195.618L101.692 195.302L98.9611 193.937L96.128 196.002L96.1707 195.934C96.6485 195.217 96.8192 194.56 96.6827 193.946C96.5888 193.536 96.3584 193.169 96.0085 192.819C95.7696 192.393 95.3771 192 94.7883 191.642L89.9755 188.621L86.1099 194.671L86.6645 195.021L86.4939 195.294L88.9429 196.838L89.8133 195.524L92.6635 197.299C93.0731 197.53 93.4741 197.649 93.8581 197.649L92.4075 198.707L93.0048 199.006L92.6891 199.236L95.5733 200.678L96.5291 199.893L99.2171 201.233L99.2768 202.138L99.5669 202.283L99.5925 202.684L102.477 204.126L102.076 195.806L101.709 195.618ZM91.3323 192.836L93.1755 193.954L93.1157 194.074C93.0645 194.176 93.0048 194.21 92.9792 194.219C92.9536 194.219 92.9195 194.202 92.8597 194.159L91.1787 193.118L91.3237 192.836H91.3323ZM99.1488 198.204L98.9355 198.101L99.1403 197.948V198.204H99.1488Z" fill="#16294D"/>
<path d="M136.448 203.221L136.158 202.65L133.111 202.547L130.227 207.497H130.133L130.185 207.053L126.353 206.669L126.831 202.479L126.302 202.428L126.353 201.984L123.563 201.728L122.769 208.691L123.221 208.742L123.162 209.246L129.459 209.946L129.246 210.313L132.506 210.441L133.12 209.306L136.431 209.382L136.653 209.869H136.678L136.977 210.517L140.245 210.645L136.533 203.221H136.448ZM134.997 206.456H134.673L134.835 206.131L134.997 206.456Z" fill="#16294D"/>
<path d="M164.369 201.762L164.139 201.114L161.058 202.3L161.877 204.604L162.031 204.544L162.287 205.261L165.436 204.049L164.599 201.677L164.369 201.762Z" fill="#16294D"/>
<path d="M112.375 199.228L109.722 198.34L108.356 202.155C108.245 202.496 108.143 202.615 108.075 202.641C108.006 202.675 107.861 202.692 107.511 202.573L105.754 201.984C105.771 201.916 105.779 201.847 105.813 201.745L107.196 197.888L106.573 197.683L106.709 197.299L104.047 196.412L102.596 200.473C102.212 201.557 102.34 202.445 102.963 203.119C103.253 203.801 103.91 204.339 104.934 204.723L107.546 205.679C108.083 205.875 108.57 205.977 109.005 205.977C109.38 205.977 109.713 205.909 110.029 205.764C110.635 205.483 111.087 204.919 111.386 204.083L112.845 199.799L112.23 199.595L112.358 199.211L112.375 199.228Z" fill="#16294D"/>
<path d="M118.793 204.228L115.584 203.52L115.046 205.935L115.473 206.029L115.354 206.575L118.63 207.3L119.185 204.817L118.69 204.706L118.793 204.228Z" fill="#16294D"/>
<path d="M158.421 205.534L157.67 205.235L157.363 203.597C157.235 202.974 157.013 202.513 156.706 202.163C156.476 201.651 156.143 201.284 155.691 201.071C155.119 200.806 154.385 200.789 153.327 200.994L150.272 201.608C149.06 201.847 147.959 202.266 147.661 203.443C147.644 203.426 147.618 203.409 147.593 203.392C147.507 203.204 147.396 203.034 147.243 202.888C146.722 202.419 145.869 202.274 144.222 202.377L141.969 202.547C140.501 202.624 138.82 203.016 138.94 205.448L139.025 207.386C139.102 208.222 139.358 208.777 139.725 209.152C140.237 210.27 141.303 210.526 142.421 210.526C142.575 210.526 142.737 210.526 142.891 210.517L146.048 210.338C147.789 210.176 148.642 209.434 148.659 208.111C148.898 208.674 149.248 209.067 149.734 209.288C150.059 209.434 150.426 209.51 150.869 209.51C151.228 209.51 151.637 209.459 152.115 209.365L155.179 208.751C155.913 208.589 156.518 208.35 156.988 208.034L157.978 208.358L158.822 206.106L158.285 205.892L158.43 205.517L158.421 205.534ZM151.202 206.344C151.202 206.344 151.185 206.268 151.177 206.225L151.083 205.594C151.014 205.278 151.014 205.065 151.1 204.937C151.202 204.783 151.458 204.715 151.671 204.672L152.132 204.578L151.714 205.696L152.269 205.892L152.166 206.174L151.501 206.319C151.381 206.345 151.287 206.353 151.202 206.344ZM142.37 207.206L142.285 206.566C142.285 205.909 142.285 205.79 142.985 205.73L145.041 205.559C145.041 205.559 145.101 205.559 145.126 205.559V205.653L145.527 205.619V206.302L147.942 206.08V206.114L145.34 206.353L145.391 206.797C145.425 207.078 145.391 207.147 145.391 207.147C145.314 207.215 144.879 207.258 144.742 207.275L142.686 207.445C142.566 207.445 142.473 207.445 142.396 207.428C142.387 207.36 142.379 207.292 142.37 207.206Z" fill="#16294D"/>
<path d="M202.394 174.541L202.948 174.857L207.266 167.603L206.711 167.27L206.865 167.006L204.809 165.769L203.196 168.516L202.88 165.129L202.53 164.924L202.496 164.54L200.619 163.413L196.514 170.445L196.557 170.47L192.137 176.486L192.222 176.546L190.464 178.423L190.891 178.807L190.763 178.944L192 180.053L190.003 182.306L188.356 180.83L186.948 182.332L186.931 182.306L180.787 187.861L181.094 188.194C180.574 188.143 180.019 188.314 179.405 188.757L174.345 192.41L174.763 192.99L174.737 193.007L174.933 193.289C173.986 192.759 172.954 193.135 171.955 193.69L169.259 195.166C167.97 195.849 166.63 196.907 167.765 199.066L168.644 200.738C168.704 200.841 168.772 200.934 168.832 201.028L168.96 201.276C169.626 202.419 170.368 202.82 171.145 202.82C171.81 202.82 172.501 202.522 173.175 202.146L175.872 200.67C177.178 199.979 178.526 198.903 177.374 196.719L177.348 196.676L178.935 198.912L181.274 197.222L180.318 195.917L182.391 194.432C182.502 194.338 182.571 194.321 182.588 194.33C182.613 194.33 182.707 194.389 182.844 194.603L183.552 195.601L185.882 193.92L185.003 192.666C184.892 192.512 184.781 192.384 184.67 192.273L184.533 192.077C184.303 191.744 184.073 191.539 183.842 191.403C183.817 190.959 183.595 190.566 183.33 190.217L183.091 189.901L184.747 188.39L187.878 191.957L190.071 190.02L189.636 189.525L189.67 189.491L186.957 186.402L188.518 184.977L192.137 188.194L194.091 186.112L193.604 185.677L193.69 185.591L192.418 184.448L194.415 182.195L196.147 183.757L198.101 181.675L197.615 181.239L197.7 181.146L196.361 179.959L198.315 181.402L202.974 174.959L202.368 174.524L202.394 174.541ZM200.218 173.321L200.329 173.167L199.117 172.262L199.168 172.194L199.057 172.117L200.474 169.779L200.789 173.15L200.585 173.005L200.303 173.389L200.218 173.321ZM200.969 173.269L201.062 173.321V173.338L200.969 173.269ZM174.225 197.009C174.404 197.333 174.481 197.555 174.455 197.683C174.438 197.803 174.293 197.931 174.037 198.076L171.861 199.296C171.597 199.441 171.443 199.509 171.29 199.398C171.29 199.39 171.273 199.364 171.264 199.356L170.889 198.699C170.735 198.485 170.667 198.315 170.692 198.204C170.718 198.067 170.897 197.897 171.17 197.726L173.184 196.582C173.329 196.497 173.525 196.395 173.679 196.395C173.705 196.395 173.73 196.395 173.756 196.403C173.833 196.429 173.918 196.497 174.003 196.617L174.217 196.992L174.225 197.009Z" fill="#16294D"/>
<path d="M90.1034 189.21L94.5493 192C96.1194 192.956 96.0341 194.005 95.3343 195.055L95.0698 195.49C94.5493 196.275 93.6703 196.975 92.4501 196.275L89.2245 194.27L88.3541 195.576L86.6986 194.526L90.1034 189.21ZM90.1034 192.964L92.6293 194.535C92.9791 194.799 93.329 194.62 93.4997 194.27L93.585 194.099C93.8495 193.749 93.7557 193.4 93.2351 193.144L90.7946 191.659L90.0949 192.964H90.1034Z" fill="white"/>
<path d="M99.0037 194.449L101.274 195.584L101.623 202.82L99.7034 201.865L99.6181 200.559L96.1279 198.818L95.1722 199.603L93.2522 198.648L99.0037 194.458V194.449ZM97.3397 197.845L99.6095 198.895L99.5242 196.19L97.3482 197.845H97.3397Z" fill="white"/>
<path d="M104.32 196.975L106.155 197.589L104.934 200.994C104.67 201.779 104.849 202.129 105.549 202.394L107.383 203.008C108.168 203.273 108.518 203.093 108.783 202.308L110.003 198.904L111.838 199.518L110.532 203.358C110.012 204.843 108.962 205.278 107.307 204.664L104.687 203.708C103.031 203.093 102.511 202.138 103.031 200.653L104.337 196.992L104.32 196.975Z" fill="white"/>
<path d="M115.917 204.041L118.272 204.561L117.922 206.131L115.567 205.611L115.917 204.041Z" fill="white"/>
<path d="M123.938 202.206L125.858 202.377L125.338 207.002L129.698 207.437L129.527 209.007L123.247 208.307L123.947 202.206H123.938Z" fill="white"/>
<path d="M133.359 202.991L135.885 203.076L139.11 209.527L136.934 209.442L136.414 208.307L132.488 208.222L131.874 209.357L129.698 209.272L133.359 202.991ZM133.274 206.831L135.714 206.916L134.494 204.476L133.274 206.831Z" fill="white"/>
<path d="M139.375 205.432C139.29 203.597 140.245 203.076 141.995 202.991L144.264 202.82C147.055 202.65 147.405 203.17 147.49 204.996L145.57 205.167V204.996C145.57 204.561 145.22 204.476 144.614 204.476L142.524 204.646C141.474 204.732 141.389 205.167 141.389 205.952L141.474 206.652C141.559 207.522 141.739 207.872 142.694 207.872L144.785 207.701C145.655 207.616 145.92 207.531 145.835 206.746L147.755 206.575V207.189C147.84 208.239 147.49 209.109 145.579 209.28L142.438 209.451C140.698 209.536 139.648 209.186 139.477 207.36L139.392 205.44L139.375 205.432Z" fill="white"/>
<path d="M148.096 204.826C147.746 202.991 148.616 202.385 150.366 202.035L153.421 201.421C155.162 201.071 156.211 201.336 156.561 203.076L156.911 204.911C156.911 205.082 156.996 205.261 156.996 205.432L157.867 205.781L157.346 207.181L156.561 206.916C156.126 207.266 155.511 207.531 154.726 207.701L151.671 208.316C149.931 208.666 148.881 208.401 148.531 206.66L148.096 204.826ZM150.28 205.696C150.451 206.567 150.716 206.916 151.586 206.746L154.027 206.225C154.112 206.225 154.197 206.14 154.291 206.14L152.286 205.44L152.806 204.041L154.812 204.74L154.726 204.126C154.556 203.341 154.291 202.906 153.327 203.17L151.151 203.606C150.195 203.776 150.016 204.305 150.195 205.09L150.28 205.705V205.696Z" fill="white"/>
<path d="M161.613 202.556L163.883 201.685L164.403 203.17L162.133 204.04L161.613 202.556Z" fill="white"/>
<path d="M168.158 198.895C167.287 197.24 167.987 196.369 169.463 195.584L172.168 194.099C173.739 193.229 174.788 193.144 175.744 194.799L176.614 196.455C177.485 198.11 176.785 198.98 175.309 199.765L172.604 201.25C171.034 202.121 169.984 202.206 169.028 200.551L168.158 198.895ZM170.504 199.066C170.94 199.851 171.29 200.115 172.075 199.68L174.251 198.46C175.036 198.025 175.036 197.589 174.6 196.804L174.251 196.19C173.901 195.49 173.466 195.14 172.595 195.669L170.59 196.804C169.719 197.325 169.719 197.854 170.155 198.46L170.504 199.074V199.066Z" fill="white"/>
<path d="M174.959 192.529L179.669 189.124C180.89 188.254 181.675 188.604 182.289 189.56L182.554 189.909C183.074 190.609 183.168 191.13 182.554 191.829C183.074 191.565 183.603 191.48 184.209 192.35L184.823 193.22L183.253 194.355L182.818 193.741C182.468 193.22 182.118 193.126 181.683 193.476L179.243 195.217L180.198 196.523L178.628 197.658L174.967 192.512L174.959 192.529ZM178.355 193.92L180.975 192.085C181.41 191.736 181.41 191.471 181.146 191.13L181.06 190.959C180.71 190.524 180.446 190.609 179.925 190.959L177.485 192.7L178.355 193.92Z" fill="white"/>
<path d="M181.41 187.904L186.906 182.938L187.955 184.073L185.95 185.907L189.09 189.483L187.605 190.788L184.465 187.213L182.46 189.048L181.41 187.913V187.904Z" fill="white"/>
<path d="M187.076 182.844L188.382 181.444L190.037 182.929L192.742 179.874L191.087 178.389L192.392 176.99L197.103 181.18L195.797 182.579L194.056 181.009L191.351 184.064L193.092 185.634L191.787 187.034L187.076 182.844Z" fill="white"/>
<path d="M192.742 176.393L196.838 170.812L198.059 171.682L195.098 175.693L195.883 176.307L198.673 172.467L199.723 173.252L196.932 177.092L197.717 177.707L200.678 173.611L201.899 174.481L197.888 180.147L192.742 176.401V176.393Z" fill="white"/>
<path d="M201.207 172.902L200.687 167.322L198.417 171.068L197.111 170.283L200.772 164.002L202.078 164.787L202.598 170.368L204.954 166.357L206.259 167.142L202.419 173.594L201.199 172.894L201.207 172.902Z" fill="white"/>
</svg>
