<svg width="256" height="256" viewBox="0 0 256 256" fill="none" xmlns="http://www.w3.org/2000/svg">
<path d="M232.921 89.0816C232.921 65.4616 228.44 42.8785 220.273 22.1068C191.948 8.3606 160.152 0.648193 126.555 0.648193C92.9572 0.648193 64.0486 7.68009 36.7117 20.2759C28.0822 41.5499 23.3317 64.7681 23.3317 89.0816C23.3317 162.016 66.0448 225.095 128.126 255.287C190.205 225.095 232.921 162.012 232.921 89.0816Z" fill="#681D78"/>
<path d="M37.5867 94.5581C37.5867 62.7071 46.8545 29.1874 49.8649 19.6667C46.6503 20.9273 43.4617 22.2689 40.2957 23.6947C32.0843 44.5279 27.9235 66.5147 27.9235 89.0816C27.9235 123.441 37.739 156.86 56.3103 185.726C73.9937 213.216 98.7901 235.455 128.123 250.164C54.1392 198.62 37.5867 137.002 37.5867 94.5581Z" fill="white"/>
<path d="M164.041 226.524C177.933 214.833 190.049 201.099 199.942 185.726C218.514 156.86 228.329 123.441 228.329 89.0815C228.329 67.1692 224.402 45.7754 216.647 25.4607C213.919 24.1645 211.171 22.9331 208.403 21.76C212.263 31.6111 222.279 71.505 222.279 97.4129C222.279 135.23 212.289 179.994 164.044 226.528L164.041 226.524Z" fill="white"/>
<path d="M55.8566 99.7622L55.0011 65.8859L57.2824 62.4218L55.8566 99.7622ZM94.2469 21.3905L95.7667 36.0376H71.4402L69.538 33.2443L67.733 52.8105L84.3633 52.2499L86.9298 66.4498L69.2561 65.2216L70.1116 84.3406L66.6896 87.1339L78.0929 87.6945L95.1963 87.0237L95.7667 100.216L76.382 99.3215L57.3764 101.671L59.1813 62.2047L57.2824 21.0632L94.2469 21.4002V21.3905ZM71.4434 67.7881L74.0099 80.9802L71.4434 83.2161V67.7881ZM91.4924 37.6028L74.0067 39.6151L72.4869 37.6028H91.4924ZM88.2617 52.36L88.0705 61.8644L85.9803 52.2499L88.2617 52.3633V52.36Z" fill="white"/>
<path d="M108.502 25.3051L111.353 24.3006L103.751 40.3994L108.502 25.3051ZM142.806 43.1927L137.485 36.8187L124.183 33.4647L118.1 36.5951L118.956 45.0917L135.965 57.5028L146.513 68.4589L147.842 85.2286L139.575 98.0869L121.804 101.441L104.889 96.4116L108.596 82.6588L119.999 87.0206L131.402 88.252L136.438 78.6374L128.172 66.2295L110.592 59.9688L104.892 42.6386L113.158 23.1858L130.547 19.1611L145.087 27.8813L142.806 43.1992V43.1927ZM110.404 78.5207L119.62 84.6712L109.072 81.4275L110.404 78.5207ZM127.413 67.7882L129.504 71.4759L111.924 62.4219L127.413 67.7882ZM119.62 37.0422L122.28 36.0377L120.569 44.3107L119.62 37.0455V37.0422ZM148.033 87.3511L148.509 90.4814L141.856 98.0837L148.033 87.3511ZM145.751 46.8804L143.852 44.8681L146.228 29.3266L145.751 46.8804Z" fill="white"/>
<path d="M158.295 60.8568L156.111 68.9062V27.7647L158.295 60.8568ZM171.125 21.0569L183.289 19.4917L193.931 28.2119L199.823 38.4973L197.638 54.0387L190.513 57.8399L196.31 58.4005L202.963 64.9949L205.053 82.6589L197.071 98.8711H183.008L156.876 101.664L159.728 61.1938L157.826 21.9512L171.128 21.0569H171.125ZM185.286 99.9859L189.466 101.885H170.081L185.286 99.9859ZM181.958 54.3725L186.805 45.6523L186.044 39.8388L181.766 34.249H170.363V53.8151L181.958 54.3758V54.3725ZM170.366 88.2488H185.38L191.841 80.3095L191.365 73.0411L186.802 65.6624L171.598 66.7804L170.363 88.2455L170.366 88.2488ZM174.167 52.1366L171.792 51.913L171.128 36.1479L174.167 52.1366ZM171.98 84.3342L183.954 87.0174H171.601L171.98 84.3342ZM186.52 67.2276L187.661 69.2399L177.207 68.0118L186.52 67.2276ZM202.389 96.8556L199.064 98.7545L206.287 84.2208L202.392 96.8556H202.389ZM201.819 49.9006L199.158 54.1489L201.44 39.3916L201.819 49.9006Z" fill="white"/>
<path d="M52.3795 117.734H57.7912V119.931H54.3497V123.891H56.4852V126.088H54.3497V130.424H57.7912V132.621H52.3795V117.731V117.734Z" fill="white"/>
<path d="M62.6746 125.106C62.6746 124.374 62.2987 124.092 61.8677 124.092C61.4918 124.092 61.1904 124.374 61.077 124.824V132.624H59.2915V122.232H60.8891V122.608C61.1516 122.287 61.5469 122.044 62.2436 122.044C63.7083 122.044 64.4796 122.835 64.4796 124.938V132.624H62.6746V125.106Z" fill="white"/>
<path d="M68.877 132.569C68.6339 132.738 68.2192 132.812 67.8044 132.812C66.6021 132.812 65.98 131.723 65.98 130.012V124.225H65.3221V122.232H65.98V120.239L67.746 119.374V122.232H68.8737V124.225H67.746V129.902C67.746 130.541 67.9534 130.787 68.4039 130.787C68.6469 130.787 68.9126 130.638 69.0617 130.392L68.8737 132.572L68.877 132.569Z" fill="white"/>
<path d="M72.8627 130.78C73.2775 130.78 73.5756 130.554 73.8575 129.954L75.0047 131.27C74.5543 132.303 73.7636 132.812 72.8044 132.812C70.9249 132.812 69.9657 130.894 69.9657 127.588C69.9657 124.111 71.0934 122.044 72.8595 122.044C74.5121 122.044 75.6042 123.923 75.6042 127.514C75.6042 127.909 75.5847 128.305 75.5491 128.642H71.7901C71.7901 130.145 72.3928 130.784 72.8627 130.784V130.78ZM71.7901 126.629H73.783C73.7441 124.844 73.3877 123.979 72.8433 123.979C72.2405 123.979 71.829 124.844 71.7901 126.629Z" fill="white"/>
<path d="M80.2478 125.106C80.2478 124.374 79.8719 124.092 79.4409 124.092C79.065 124.092 78.7637 124.374 78.6503 124.824V132.624H76.8647V122.232H78.4623V122.608C78.7248 122.287 79.1201 122.044 79.8168 122.044C81.2816 122.044 82.0528 122.835 82.0528 124.938V132.624H80.2478V125.106Z" fill="white"/>
<path d="M86.4502 132.569C86.2072 132.738 85.7924 132.812 85.3776 132.812C84.1754 132.812 83.5532 131.723 83.5532 130.012V124.225H82.8954V122.232H83.5532V120.239L85.3193 119.374V122.232H86.447V124.225H85.3193V129.902C85.3193 130.541 85.5267 130.787 85.9771 130.787C86.2201 130.787 86.4859 130.638 86.6349 130.392L86.447 132.572L86.4502 132.569Z" fill="white"/>
<path d="M90.4361 130.78C90.8509 130.78 91.149 130.554 91.4309 129.954L92.5781 131.27C92.1276 132.303 91.3369 132.812 90.3777 132.812C88.4983 132.812 87.5391 130.894 87.5391 127.588C87.5391 124.111 88.6668 122.044 90.4328 122.044C92.0855 122.044 93.1775 123.923 93.1775 127.514C93.1775 127.909 93.1581 128.305 93.1225 128.642H89.3635C89.3635 130.145 89.9662 130.784 90.4361 130.784V130.78ZM89.3635 126.629H91.3564C91.3175 124.844 90.961 123.979 90.4166 123.979C89.8139 123.979 89.4024 124.844 89.3635 126.629Z" fill="white"/>
<path d="M97.0726 131.587L97.8406 129.39C98.4012 130.2 99.0234 130.615 99.9761 130.615C100.744 130.615 101.22 129.951 101.22 128.603C101.22 127.524 101.013 127.067 100.141 126.237C98.8776 125.054 97.0499 124.144 97.0499 121.156C97.0499 118.978 98.2522 117.527 100.141 117.527C101.24 117.527 102.173 117.796 102.776 118.606L102.215 120.783C101.82 120.119 101.117 119.808 100.452 119.808C99.4997 119.808 99.0428 120.284 99.0428 121.156C99.0428 122.131 99.1465 122.566 101.178 124.371C102.507 125.553 103.168 126.568 103.168 128.603C103.168 131.61 101.924 132.832 99.9955 132.832C98.6896 132.832 97.6948 132.251 97.0726 131.587Z" fill="white"/>
<path d="M104.484 122.232H106.081V122.588C106.344 122.232 106.833 122.044 107.264 122.044C108.917 122.044 109.915 123.133 109.915 127.401C109.915 131.292 109.069 132.812 107.416 132.812C106.985 132.812 106.551 132.663 106.269 132.381V136.14L104.484 137.005V122.232ZM106.269 130.142C106.402 130.479 106.758 130.686 107.115 130.686C107.961 130.686 108.188 129.821 108.188 127.303C108.188 125.048 107.792 124.034 107.099 124.034C106.742 124.034 106.48 124.222 106.272 124.578V130.142H106.269Z" fill="white"/>
<path d="M111.191 127.417C111.191 123.939 112.339 122.041 113.991 122.041C115.644 122.041 116.791 123.939 116.791 127.417C116.791 130.894 115.644 132.812 113.991 132.812C112.339 132.812 111.191 130.894 111.191 127.417ZM115.009 127.417C115.009 125.028 114.613 124.089 113.994 124.089C113.376 124.089 112.98 125.028 112.98 127.417C112.98 129.805 113.376 130.761 113.994 130.761C114.613 130.761 115.009 129.802 115.009 127.417Z" fill="white"/>
<path d="M121.568 124.429C121.305 124.202 121.078 124.092 120.741 124.092C120.44 124.092 120.122 124.26 119.97 124.562V132.624H118.184V122.232H119.782V122.608C120.009 122.287 120.495 122.044 120.929 122.044C121.399 122.044 121.814 122.271 122.002 122.494L121.571 124.429H121.568Z" fill="white"/>
<path d="M126.114 132.569C125.871 132.738 125.456 132.812 125.041 132.812C123.839 132.812 123.217 131.723 123.217 130.012V124.225H122.559V122.232H123.217V120.239L124.983 119.374V122.232H126.111V124.225H124.983V129.902C124.983 130.541 125.19 130.787 125.641 130.787C125.884 130.787 126.15 130.638 126.299 130.392L126.111 132.572L126.114 132.569Z" fill="white"/>
<path d="M127.242 119.805C127.242 119.033 127.563 118.45 128.22 118.45C128.765 118.45 129.18 119.033 129.18 119.805C129.18 120.576 128.69 121.159 128.22 121.159C127.637 121.159 127.242 120.557 127.242 119.805ZM127.316 122.232H129.102V132.624H127.316V122.232Z" fill="white"/>
<path d="M131.827 132.624L130.042 122.232H131.921L132.806 128.078L133.69 122.232H135.55L133.745 132.624H131.827Z" fill="white"/>
<path d="M139.044 130.78C139.458 130.78 139.757 130.554 140.038 129.954L141.186 131.27C140.735 132.303 139.944 132.812 138.985 132.812C137.106 132.812 136.147 130.894 136.147 127.588C136.147 124.111 137.274 122.044 139.04 122.044C140.693 122.044 141.785 123.923 141.785 127.514C141.785 127.909 141.766 128.305 141.73 128.642H137.971C137.971 130.145 138.574 130.784 139.044 130.784V130.78ZM137.974 126.629H139.967C139.928 124.844 139.572 123.979 139.027 123.979C138.425 123.979 138.013 124.844 137.974 126.629Z" fill="white"/>
<path d="M151.205 132.624H149.608V132.268C149.345 132.624 148.817 132.812 148.386 132.812C146.733 132.812 145.68 131.723 145.68 127.455C145.68 123.564 146.62 122.044 148.273 122.044C148.704 122.044 149.138 122.193 149.42 122.475V119.617L151.205 118.751V132.621V132.624ZM149.42 124.711C149.287 124.374 148.93 124.166 148.574 124.166C147.728 124.166 147.407 125.032 147.407 127.549C147.407 129.805 147.858 130.819 148.555 130.819C148.911 130.819 149.212 130.631 149.42 130.275V124.711Z" fill="white"/>
<path d="M154.436 129.75C154.436 130.482 154.831 130.764 155.262 130.764C155.638 130.764 155.94 130.482 156.053 130.032V122.232H157.839V132.624H156.241V132.248C155.979 132.569 155.583 132.812 154.886 132.812C153.422 132.812 152.631 132.022 152.631 129.918V122.232H154.436V129.75Z" fill="white"/>
<path d="M165.376 117.734C166.808 117.734 168.053 118.752 168.053 121.363C168.053 123.353 167.657 124.079 166.996 124.559C167.887 124.808 168.717 125.803 168.717 128.104C168.717 131.629 167.534 132.624 165.441 132.624H162.184V117.734H165.376ZM164.154 123.894H165.172C165.813 123.894 166.086 123.48 166.086 121.882C166.086 120.284 165.817 119.931 165.172 119.931H164.154V123.891V123.894ZM164.154 130.427H165.191C166.209 130.427 166.601 129.786 166.601 128.207C166.601 126.629 166.228 126.091 165.211 126.091H164.154V130.427Z" fill="white"/>
<path d="M173.247 124.429C172.985 124.202 172.758 124.092 172.421 124.092C172.119 124.092 171.802 124.26 171.65 124.562V132.624H169.864V122.232H171.462V122.608C171.688 122.287 172.174 122.044 172.609 122.044C173.079 122.044 173.493 122.271 173.681 122.494L173.25 124.429H173.247Z" fill="white"/>
<path d="M176.403 129.75C176.403 130.482 176.799 130.764 177.23 130.764C177.606 130.764 177.907 130.482 178.02 130.032V122.232H179.806V132.624H178.208V132.248C177.946 132.569 177.55 132.812 176.854 132.812C175.389 132.812 174.598 132.022 174.598 129.918V122.232H176.403V129.75Z" fill="white"/>
<path d="M181.235 119.805C181.235 119.033 181.556 118.45 182.214 118.45C182.758 118.45 183.173 119.033 183.173 119.805C183.173 120.576 182.683 121.159 182.214 121.159C181.63 121.159 181.235 120.557 181.235 119.805ZM181.31 122.232H183.095V132.624H181.31V122.232Z" fill="white"/>
<path d="M184.599 119.617L186.365 118.751V132.621H184.599V119.613V119.617Z" fill="white"/>
<path d="M191.251 125.106C191.251 124.374 190.875 124.092 190.444 124.092C190.069 124.092 189.767 124.374 189.654 124.824V132.624H187.868V119.617L189.654 118.751V122.491C189.916 122.229 190.367 122.041 190.82 122.041C192.285 122.041 193.056 122.906 193.056 125.009V132.621H191.251V125.103V125.106Z" fill="white"/>
<path d="M194.333 127.417C194.333 123.939 195.48 122.041 197.133 122.041C198.786 122.041 199.933 123.939 199.933 127.417C199.933 130.894 198.786 132.812 197.133 132.812C195.48 132.812 194.333 130.894 194.333 127.417ZM198.147 127.417C198.147 125.028 197.752 124.089 197.133 124.089C196.514 124.089 196.119 125.028 196.119 127.417C196.119 129.805 196.514 130.761 197.133 130.761C197.752 130.761 198.147 129.802 198.147 127.417Z" fill="white"/>
<path d="M201.248 119.805C201.248 119.033 201.569 118.45 202.227 118.45C202.771 118.45 203.186 119.033 203.186 119.805C203.186 120.576 202.697 121.159 202.227 121.159C201.644 121.159 201.248 120.557 201.248 119.805ZM201.326 122.232H203.112V132.624H201.326V122.232Z" fill="white"/>
<path d="M204.897 129.75C205.461 130.502 206.044 130.803 206.534 130.803C207.136 130.803 207.434 130.372 207.434 129.581C207.434 128.791 207.152 128.415 206.456 128.133C205.16 127.608 204.333 127.138 204.333 125.106C204.333 122.945 205.348 122.044 206.909 122.044C207.83 122.044 208.582 122.42 208.902 122.984L208.245 124.75C208.037 124.393 207.72 124.092 207.062 124.092C206.404 124.092 206.161 124.413 206.161 125.051C206.161 125.783 206.443 126.065 207.327 126.386C208.475 126.801 209.188 127.682 209.188 129.468C209.188 131.872 207.966 132.812 206.462 132.812C205.766 132.812 204.92 132.436 204.226 131.778L204.904 129.75H204.897Z" fill="white"/>
<path d="M113.813 218.844H112.708V216.79C113.534 216.702 114.059 216.352 114.166 215.701H116.042V228.3H113.813V218.841V218.844Z" fill="white"/>
<path d="M125.605 220.597C125.605 224.668 123.288 228.3 120.077 228.443L119.814 226.32C121.237 226.197 122.553 225.163 123.113 223.391C122.604 223.796 121.921 224.058 121.305 224.058C119.286 224.058 117.883 222.393 117.883 219.953C117.883 217.023 119.409 215.529 121.885 215.529C124.361 215.529 125.605 217.496 125.605 220.601V220.597ZM123.343 219.842C123.343 218.507 122.728 217.788 121.73 217.788C120.731 217.788 120.028 218.491 120.028 219.807C120.028 221.122 120.66 221.894 121.642 221.894C122.679 221.894 123.343 221.158 123.343 219.839V219.842Z" fill="white"/>
<path d="M127.219 224.405C127.219 222.863 127.938 221.563 128.868 221.019C128.237 220.403 128.045 219.616 128.045 218.754C128.045 216.806 129.186 215.507 131.082 215.507C133.101 215.507 134.222 216.576 134.222 218.77C134.222 219.684 134.027 220.455 133.256 221.103C134.377 221.524 134.993 222.979 134.993 224.402C134.993 226.981 133.467 228.472 131.114 228.472C128.761 228.472 127.219 226.981 127.219 224.402V224.405ZM129.484 224.337C129.484 225.461 130.187 226.233 131.117 226.233C132.099 226.233 132.767 225.529 132.767 224.337C132.767 223.144 132.222 222.441 131.117 222.441C130.187 222.441 129.484 223.089 129.484 224.337ZM130.009 218.861C130.009 219.616 130.43 220.124 131.114 220.124C131.798 220.124 132.183 219.58 132.183 218.861C132.183 218.054 131.798 217.545 131.114 217.545C130.395 217.545 130.009 218.105 130.009 218.861Z" fill="white"/>
<path d="M136.5 223.407C136.5 219.266 138.817 215.808 141.957 215.617L142.326 217.775C140.836 217.898 139.5 218.828 138.94 220.672C139.484 220.199 140.168 219.936 140.748 219.936C142.747 219.936 144.17 221.621 144.17 224.042C144.17 226.971 142.819 228.482 140.398 228.482C137.977 228.482 136.503 226.498 136.503 223.41L136.5 223.407ZM138.729 224.142C138.729 225.494 139.361 226.249 140.414 226.249C141.467 226.249 142.099 225.494 142.099 224.178C142.099 222.862 141.416 222.091 140.414 222.091C139.361 222.091 138.729 222.827 138.729 224.146V224.142Z" fill="white"/>
<path d="M124.345 148.525C131.445 147.521 138.655 149.381 144.384 153.694C150.113 158.007 153.895 164.417 154.9 171.517C155.904 178.617 154.044 185.823 149.731 191.556C145.418 197.285 139.008 201.07 131.908 202.071C128.392 202.567 124.815 202.366 121.376 201.482C117.938 200.594 114.708 199.042 111.872 196.906C109.033 194.771 106.645 192.097 104.84 189.041C103.035 185.982 101.852 182.599 101.357 179.083C100.861 175.567 101.062 171.99 101.946 168.552C102.834 165.113 104.387 161.883 106.522 159.047C108.657 156.208 111.331 153.82 114.387 152.015C117.446 150.21 120.829 149.028 124.345 148.532V148.525Z" fill="url(#paint0_radial_2686_65)"/>
<path d="M155.525 171.426C154.491 164.106 150.667 157.628 144.763 153.185C138.859 148.742 131.574 146.863 124.257 147.897C120.641 148.409 117.212 149.608 114.066 151.465C110.919 153.321 108.21 155.742 106.016 158.658C103.819 161.578 102.244 164.851 101.334 168.386C100.423 171.922 100.219 175.551 100.728 179.168C101.24 182.784 102.439 186.212 104.296 189.359C106.153 192.506 108.573 195.211 111.49 197.408C114.409 199.605 117.682 201.18 121.218 202.091C123.489 202.677 125.796 202.969 128.113 202.969C129.406 202.969 130.703 202.878 131.996 202.694C139.316 201.66 145.794 197.836 150.236 191.932C154.679 186.028 156.559 178.743 155.525 171.426ZM154.271 171.601C153.111 170.153 151.672 168.921 150.142 167.874C143.895 163.74 135.165 161.841 126.474 162.145C126.866 156.831 129.675 152.281 134.847 149.75C138.117 150.609 141.221 152.106 144.002 154.2C149.637 158.438 153.282 164.621 154.271 171.604V171.601ZM124.432 149.151C127.53 148.713 130.622 148.824 133.596 149.452C129.588 151.277 126.461 155 125.382 159.297C125.122 160.256 124.986 161.235 124.925 162.22C123.003 162.346 121.091 162.576 119.218 162.916C119.332 160.224 119.662 157.553 120.544 154.968C121.195 152.991 122.057 151.043 123.272 149.342C123.658 149.271 124.043 149.203 124.435 149.148L124.432 149.151ZM114.707 152.557C117.313 151.021 120.119 149.958 123.068 149.384C121.668 150.927 120.631 152.79 119.811 154.702C118.645 157.391 118.142 160.266 117.912 163.176C116.415 163.49 114.944 163.872 113.515 164.326C113.447 162.515 113.061 160.7 111.937 159.226C111.166 158.227 110.044 157.557 108.839 157.265C110.556 155.428 112.52 153.846 114.707 152.557ZM107.027 159.42C107.562 158.707 108.132 158.027 108.732 157.378C109.818 157.852 110.777 158.6 111.367 159.621C112.261 161.186 112.416 162.959 112.3 164.734C108.502 166.073 105.044 167.92 102.209 170.272C102.313 169.747 102.423 169.222 102.559 168.704C103.431 165.331 104.934 162.207 107.027 159.42ZM102.092 170.917C105.197 168.908 108.602 167.499 112.112 166.481C112.05 166.918 111.979 167.356 111.911 167.784C110.676 174.56 107.355 180.629 104.351 186.767C103.165 184.314 102.368 181.708 101.982 178.989C101.6 176.29 101.642 173.584 102.092 170.917ZM121.532 200.866C118.159 199.998 115.035 198.491 112.248 196.397C109.461 194.304 107.154 191.718 105.381 188.717C105.171 188.358 104.967 187.995 104.772 187.629C106.324 185.357 107.763 183.004 109.04 180.548C111.36 176.089 113.214 171.186 113.486 166.105C113.868 166.005 114.254 165.907 114.639 165.817C115.673 165.583 116.723 165.376 117.786 165.195C117.728 166.543 117.708 167.891 117.692 169.226C117.776 177.771 118.92 186.553 122.715 194.304C124.189 197.149 126.124 200.053 128.937 201.692C126.445 201.77 123.962 201.501 121.525 200.873L121.532 200.866ZM131.817 201.443C130.959 201.563 130.1 201.644 129.241 201.679C121.269 195.714 119.393 178.322 119.199 169.2C119.183 167.793 119.157 166.381 119.17 164.968C121.049 164.689 122.968 164.498 124.896 164.397C124.909 164.851 124.931 165.308 124.964 165.758C125.411 171.021 128.36 175.736 131.902 179.482C136.655 184.557 142.42 188.52 147.339 193.403C143.243 197.765 137.832 200.587 131.821 201.436L131.817 201.443ZM149.225 191.174C148.652 191.935 148.039 192.658 147.398 193.345C140.609 184.68 128.46 177.865 126.662 166.452C126.552 165.739 126.48 165.033 126.448 164.336C133.23 164.161 140.113 165.139 146.189 167.583C149.267 168.837 152.216 170.593 154.439 173.098C154.987 179.573 153.166 185.937 149.229 191.17L149.225 191.174Z" fill="#45413C"/>
<path d="M172.687 183.332C172.512 189.842 155.979 192 150.891 192.758C150.408 192.823 149.922 192.885 149.439 192.943C149.715 192.616 149.977 192.279 150.236 191.935C150.557 191.508 150.865 191.073 151.16 190.633C156.575 189.745 162.103 188.708 166.99 186.264C167.784 185.843 168.542 185.367 169.129 184.829C169.602 184.408 170 183.883 170.01 183.332C169.222 180.273 160.593 178.863 155.661 178.15C155.441 178.118 155.227 178.089 155.023 178.059C154.805 178.03 154.598 178.001 154.4 177.972C153.931 177.904 153.519 177.846 153.188 177.794C145.836 176.812 138.412 176.254 130.978 176.112C130.346 176.099 129.711 176.089 129.076 176.083C125.923 176.05 122.767 176.096 119.617 176.216C119.092 176.235 118.567 176.258 118.042 176.28C115.637 176.391 113.239 176.543 110.842 176.741C110.245 176.786 109.652 176.838 109.056 176.893C106.642 177.11 104.231 177.372 101.83 177.68C101.81 177.684 101.794 177.684 101.775 177.687C101.603 177.713 101.412 177.739 101.201 177.768C101.007 177.797 100.796 177.826 100.572 177.859C96.0324 178.507 86.0873 180.043 85.0341 183.293L85.0244 183.332C85.0244 183.332 85.1022 183.354 85.1022 183.367C85.1022 183.555 85.1735 183.776 85.3323 184.035C85.9966 185.007 87.0821 185.636 88.1871 186.226C89.7977 187.042 91.5799 187.674 93.3817 188.215C97.2184 189.336 101.169 190.13 105.151 190.717C105.731 191.582 106.357 192.415 107.027 193.206C97.9119 192.233 86.3627 190.166 83.0347 185.519C82.6718 184.968 82.3737 184.259 82.3445 183.474C82.3348 183.426 82.4223 183.374 82.4126 183.329V183.186C82.5713 178.999 89.1625 176.773 92.4257 175.629C94.7718 174.855 97.4971 174.181 100.504 173.617C100.718 173.575 100.932 173.536 101.146 173.497C101.36 173.458 101.577 173.419 101.794 173.38C104.61 172.891 107.643 172.486 110.812 172.171C111.373 172.116 111.934 172.061 112.501 172.013C114.221 171.86 115.974 171.737 117.75 171.637C118.259 171.608 118.768 171.582 119.28 171.556C121.626 171.446 124.004 171.378 126.386 171.358C126.97 171.352 127.553 171.348 128.136 171.348C137.527 171.348 146.876 172.052 154.465 173.484C154.682 173.523 154.896 173.565 155.11 173.607C155.327 173.649 155.541 173.695 155.755 173.737C158.263 174.252 160.561 174.851 162.57 175.538C165.872 176.747 172.661 179.096 172.687 183.332Z" fill="white"/>
<defs>
<radialGradient id="paint0_radial_2686_65" cx="0" cy="0" r="1" gradientUnits="userSpaceOnUse" gradientTransform="translate(128.126 175.298) scale(27.0388 27.0388)">
<stop stop-color="#F2CC81"/>
<stop offset="0.19" stop-color="#E9B360"/>
<stop offset="0.49" stop-color="#DD8E32"/>
<stop offset="0.73" stop-color="#D57815"/>
<stop offset="0.86" stop-color="#D3700B"/>
</radialGradient>
</defs>
</svg>
