<svg width="256" height="256" viewBox="0 0 256 256" fill="none" xmlns="http://www.w3.org/2000/svg">
<path d="M127.944 254.317C127.374 254.317 126.742 254.098 125.688 253.539C124.133 252.712 122.286 251.417 120.656 250.277C120.324 250.045 120.002 249.819 119.692 249.605C106.629 240.545 93.022 228.099 80.3405 213.614C58.6395 188.825 41.8238 160.204 30.3608 128.545C19.4877 98.5139 13.3919 65.6947 12.246 31.0003C12.2105 29.9081 12.1396 28.7241 12.0655 27.4692C11.9011 24.7097 11.7157 21.5829 11.9236 19.2471C12.1896 16.2798 14.9683 15.4099 19.1766 14.424C19.8262 14.271 20.4387 14.1276 21.0334 13.9681C46.0885 7.19421 75.7985 3.13147 109.333 1.89268C115.927 1.64943 122.572 1.52539 129.082 1.52539C164.84 1.52539 198.117 5.12901 227.991 12.238C228.702 12.4071 229.445 12.5795 230.207 12.7567C233.9 13.6137 238.086 14.5851 241.282 15.8046C241.83 16.014 243.638 16.8275 243.857 18.5077C244.141 20.684 243.978 23.7287 243.833 26.4157C243.774 27.5336 243.717 28.5904 243.691 29.5521C243.164 50.0446 240.73 70.3985 236.458 90.0485C232.09 110.135 225.796 129.503 217.748 147.611C209.431 166.325 199.201 183.785 187.34 199.505C174.984 215.88 160.743 230.517 145.007 243.01L144.439 243.461C140.178 246.847 134.343 251.483 129.964 253.684C129.081 254.127 128.478 254.317 127.944 254.317Z" fill="white"/>
<path d="M79.3106 214.514C34.3435 163.147 13.1228 99.0245 10.876 31.0454C10.7567 27.4595 10.2458 22.6058 10.5585 19.1263C10.9952 14.2355 16.7622 13.7039 20.6756 12.6455C48.9736 4.9953 79.994 1.60593 109.283 0.523391C148.596 -0.928045 190.009 1.79279 228.309 10.9058C232.491 11.9013 237.82 13.0177 241.772 14.5255C243.429 15.1586 244.973 16.465 245.216 18.3321C245.635 21.5442 245.147 26.2691 245.061 29.5876C242.958 111.319 210.735 192.572 145.858 244.083C141.63 247.44 135.289 252.54 130.578 254.908C128.333 256.036 127.213 255.9 125.043 254.747C123.09 253.708 120.764 252.013 118.91 250.728C104.471 240.713 90.8639 227.713 79.309 214.514H79.3106ZM157.938 227.083C211.762 175.656 238.161 104.35 240.228 30.393C240.239 30.0112 240.394 29.66 240.402 29.2783L240.321 19.1971C222.082 13.7474 202.976 10.3258 184.043 8.1092C145.529 3.60024 105.193 3.76456 66.7484 8.75518C49.4588 10.9992 32.0902 14.2146 15.4131 19.2261C15.4067 60.1402 22.3776 101.122 38.0409 138.89C51.7765 172.01 72.3719 202.755 98.3119 227.5C107.381 236.152 117.252 244.091 127.841 250.821C128.678 250.966 139.854 242.662 141.345 241.504C147.133 237.006 152.651 232.136 157.938 227.083Z" fill="#1B3F1E"/>
<path d="M135.878 139.658C135.807 133.142 133.146 126.789 127.895 122.22C103.974 101.409 70.6715 132.59 65.1108 156.613C60.9814 174.456 71.89 191.071 90.9122 189.829C95.5783 189.524 102.127 186.494 104.843 184.645C106.854 183.48 108.737 182.066 110.486 180.539C111.348 179.786 112.552 178.713 113.306 177.881C113.442 177.731 114.464 176.535 114.351 176.429C110.342 178.298 106.26 180.047 101.942 181.099C99.9608 181.553 95.0722 182.565 93.6619 182.565C83.3707 182.565 73.8418 177.262 73.8418 166.462C73.8418 157.678 79.0173 146.189 87.5404 137.387C95.5251 129.141 104.267 124.617 113.464 124.617C129.008 124.617 133.745 136.15 133.745 143.168C133.745 149.809 131.682 154.709 130.773 157.844C133.391 153.206 135.944 145.923 135.874 139.657L135.878 139.658Z" fill="#1B3F1E"/>
<path d="M165.609 173.529C162.757 167.572 157.766 162.899 152.218 159.447C151.188 158.807 149.38 157.628 148.317 157.224C148.06 157.126 147.839 157.058 147.558 157.098C152.861 162.809 157.6 169.438 159.647 177.072C160.544 180.933 160.119 187.744 159.24 189.956C155.304 199.876 143.616 200.971 134.472 199.575C123.902 197.961 112.228 192.397 104.846 184.643C103.811 183.556 102.773 182.364 101.945 181.099C92.5578 166.764 96.115 150.046 114.483 147.156C117.868 146.622 121.738 146.849 125.143 147.096C123.823 146.532 121.634 146.088 119.08 145.905C113.193 145.483 105.92 146.41 100.767 149.396C89.7002 155.811 86.6684 171.171 91.7906 182.39C92.4176 183.764 94.6032 187.461 95.4977 188.672C106.166 203.12 132.872 213.854 150.382 208.651C162.258 205.121 168.777 196.577 168.777 185.636C168.777 181.096 166.977 175.474 165.61 173.529H165.609Z" fill="#3A59A4"/>
<path d="M165.609 173.529C173.16 168.233 180.456 159.982 184.283 151.518C187.845 143.636 189.507 133.693 182.213 127.375C173.61 119.923 159.31 122.489 149.705 126.624C148.915 126.964 147.618 127.91 146.835 127.944C146.427 127.961 147.028 127.522 147.057 127.485C149.167 124.725 155.226 120.638 158.515 118.998C174.757 110.907 193.813 117.357 196.532 136.422C198.91 153.085 186.459 170.1 174.428 179.653C171.862 181.69 163.015 186.515 160.606 187.214C150.682 190.093 142.172 189.076 133.642 183.171C123.984 176.482 123.116 163.922 126.528 153.238C127.016 151.711 130.245 146.178 130.245 146.178C130.091 146.771 128.078 151.779 127.77 153.031C122.324 175.16 140.565 184.783 159.647 177.077C161.653 176.266 163.641 174.915 165.61 173.533L165.609 173.529Z" fill="#E17927"/>
<path d="M237.961 20.9917L237.823 31.8558C237.839 32.1844 237.67 32.5001 237.657 32.8175C236.572 60.7975 232.307 88.647 223.805 115.306L223.531 115.685C211.928 113.141 200.197 111.073 188.394 109.597C154.344 105.339 118.477 104.843 84.2942 107.806C66.7629 109.325 49.3299 111.983 32.1579 115.693C25.9413 95.6094 21.6749 74.8898 19.5812 53.9189C18.4884 42.9711 17.8969 31.9508 18.0629 20.9579C35.9086 15.9399 54.27 12.6617 72.7088 10.5256C108.102 6.42582 144.933 6.3195 180.355 10.1841C199.793 12.3041 219.16 15.7321 237.96 20.9917H237.961Z" fill="#1B3F1E"/>
<path d="M60.037 101.683V93.7085L60.3094 93.4975C62.9994 92.9932 65.8039 92.4745 65.1528 96.2441C65.1125 96.4776 64.8836 96.6838 64.882 96.9303C64.882 97.2606 65.3188 97.8518 65.3236 98.3801C65.3526 101.465 62.3176 101.43 60.037 101.684V101.683ZM61.9711 96.3681C63.8972 96.5292 64.0825 94.7282 61.9711 95.0778V96.3681ZM63.3975 98.3238C62.9285 98.0451 62.4804 98.1868 61.9888 98.3173L61.9711 99.5867L63.3991 99.2436V98.3222L63.3975 98.3238Z" fill="white"/>
<path d="M190.591 101.038V92.8225C193.378 93.1769 196.171 93.0513 195.741 96.7612C195.707 97.0592 195.448 97.2992 195.441 97.5715C195.433 97.9323 195.755 98.5235 195.759 99.1856C195.773 102.469 192.675 101.078 190.593 101.038H190.591ZM192.363 96.2054C193.247 96.3021 194.29 96.766 193.897 95.3984L192.364 94.9199V96.207L192.363 96.2054ZM193.949 98.4865C193.436 98.2304 192.954 98.058 192.364 98.1401L192.524 99.4289L193.825 99.358L193.949 98.4865Z" fill="white"/>
<path d="M118.061 97.0108V88.7952H121.526C122.073 88.7952 123.011 89.802 123.149 90.3948C123.427 91.5821 122.869 92.1443 122.905 92.8901C122.919 93.2059 123.162 93.5329 123.206 93.8824C123.316 94.7636 123.138 95.8606 122.424 96.4567C122.19 96.6516 121.127 97.0108 120.883 97.0108H118.063H118.061ZM121.26 91.8334C121.388 91.5627 121.599 91.0086 121.293 90.8008L119.832 90.7283V91.8575L121.26 91.8334ZM119.832 95.0794C122.041 95.3999 121.999 93.5135 119.832 93.789V95.0794Z" fill="white"/>
<path d="M91.3055 92.5003C92.4225 91.0811 92.3451 89.5379 94.6903 89.9245L93.0914 93.3863L94.6871 97.8115L92.7755 97.9581C92.7013 97.8937 92.3129 96.3875 92.1501 96.0878C92.0486 95.901 92.1549 95.8172 91.7923 95.8833C91.5328 96.6436 91.175 97.2912 91.3071 98.1385L89.5326 98.298V90.4851C89.9581 90.026 90.7301 90.3159 91.3055 90.2434V92.4987V92.5003Z" fill="white"/>
<path d="M184.305 92.1781L185.814 92.2007C186.023 92.2538 186.044 92.3972 186.078 92.5808C186.248 93.4942 186.18 97.0302 186.077 98.0563C185.877 100.051 184.626 100.606 182.766 100.08C179.51 99.1566 181.275 94.1257 180.919 91.6948L182.684 91.864L182.724 97.8646C182.897 98.4687 184.304 98.5203 184.304 97.8969V92.1781H184.305Z" fill="white"/>
<path d="M99.2033 89.8423L99.6062 89.6007L104.039 89.4396L104.042 91.1198L101.128 91.4661L101.136 92.663L103.394 92.5003L103.371 94.2498L101.136 94.4334L101.137 95.7238L104.039 95.5611V97.3347L99.2033 97.6553V89.8423Z" fill="white"/>
<path d="M131.745 88.8113L133.534 96.6871L131.702 96.8256C131.297 96.6919 131.458 96.0685 131.439 95.7205L129.647 95.814L129.353 96.7773L127.725 96.7741L129.352 88.8016L131.747 88.8097L131.745 88.8113ZM130.955 93.9501L130.552 91.5354C130.112 92.2152 130.175 93.1737 129.988 93.9501H130.955Z" fill="white"/>
<path d="M73.7194 91.8737L75.5101 99.5867L73.5775 99.9105L73.3358 98.9408C73.0634 98.5606 72.106 99.0777 71.6499 98.952L71.3775 100.085L69.7077 100.231L71.3468 92.2055L73.7194 91.8721V91.8737ZM72.9312 97.172L72.4493 94.7572L71.9642 97.172H72.9312Z" fill="white"/>
<path d="M85.0196 91.2148L84.0557 92.9159C83.3208 92.7242 82.1941 92.0541 81.788 93.0625C81.7912 93.9727 84.9906 94.3222 85.0196 96.4454C85.0615 99.3789 82.1893 99.5094 80.0279 98.778L80.5082 96.8514C81.3528 97.0737 82.5858 97.834 83.237 96.9126C83.3707 96.0926 79.8732 95.4885 79.8603 93.3895C79.8442 90.8346 83.1274 90.2128 85.0196 91.2148Z" fill="white"/>
<path d="M167.206 92.6485L165.546 92.8321C165.536 91.7867 164.032 91.4145 163.841 92.4246C163.749 92.9079 163.784 95.9428 163.984 96.2602C164.629 96.7241 165.625 96.7435 165.447 95.7221L167.212 96.0524C167.472 99.4321 162.421 99.1051 162.058 96.1297C161.95 95.2469 161.956 92.8289 162.076 91.951C162.516 88.7243 167.412 89.686 167.204 92.6485H167.206Z" fill="white"/>
<path d="M110.002 90.8894H108.55V89.1158L113.389 89.0481V90.7283L112.038 90.7492L111.796 90.9909L111.864 96.8594C111.769 96.9947 110.154 97.2654 110.001 96.9303V90.8894H110.002Z" fill="white"/>
<path d="M148.846 95.3999C149.352 95.6802 151.469 95.3628 151.546 95.7962L151.427 97.3346L147.073 97.1735L146.935 89.3815L147.064 89.1882C147.286 89.0319 148.633 89.0078 148.846 89.359V95.3999Z" fill="white"/>
<path d="M173.668 90.8894V97.172L176.175 97.4845L176.245 99.2662L171.893 98.7845L171.732 90.8894H173.668Z" fill="white"/>
<path d="M142.56 95.2389L142.391 97.0012L138.047 96.8498L137.886 88.9547C138.239 89.0981 139.822 88.5536 139.822 89.0352V94.9956L140.064 95.2373H142.562L142.56 95.2389Z" fill="white"/>
<path d="M144.818 30.8022C145.165 30.6202 145.282 30.0644 145.419 29.7148C146.428 27.1373 148.035 20.7662 149.726 19.0377C151.165 17.5685 152.911 17.3333 154.887 17.4332C156.863 17.5331 159.421 17.8375 161.495 18.0776C165.077 18.4916 169.227 18.5528 170.766 22.427C178.861 18.2241 188.507 19.2729 196.339 23.5273C198.968 24.9546 205.049 28.8046 206.514 31.2387C208.432 34.4267 207.61 36.4791 205.711 39.2321C204.503 40.9832 200.26 47.1111 198.758 47.9085C198.302 48.1518 197.839 48.2774 197.359 48.4417C201.846 52.7896 205.984 58.3618 206.844 64.7362C207.394 68.8037 206.529 74.7979 204.699 78.4934C198.196 91.6256 180.537 86.1388 170.483 80.7632H170.234C169.132 81.749 167.796 82.2372 166.331 82.366C162.176 81.509 157.6 81.5042 153.482 80.6971C149.736 79.9625 147.81 77.0516 147.877 73.3304L141.845 73.1677C141.845 75.5277 141.224 77.5478 139.224 78.9412C137.053 80.4539 132.986 79.9722 130.382 80.0914C127.817 80.209 123.796 80.9371 121.494 79.9658C120.361 79.4873 119.478 78.6899 118.783 77.6847C110.529 84.8726 98.8212 82.8847 89.1296 80.2589C87.7338 81.4494 86.5717 82.2565 84.731 82.6318C80.1584 83.5662 74.846 83.9028 70.1347 84.6358C64.2195 85.5556 58.3284 86.8911 52.3955 87.492C49.7667 87.0619 48.4547 85.1674 48.2613 82.6028C48.0098 79.257 48.4144 75.7838 48.4369 72.4557C48.5288 58.0943 48.1597 43.675 48.6626 29.3475C50.1906 23.5225 55.698 23.4661 60.6446 22.6364C68.0362 21.396 77.0557 19.7819 84.4538 19.3695C85.9834 19.2841 87.1519 19.4952 88.3865 20.4295C88.7025 20.6679 89.6534 21.8165 89.9081 21.7714C92.9189 19.4807 96.4874 18.0405 100.164 17.1915C103.033 16.5295 105.344 16.1863 108.303 16.4699C112.041 16.8291 115.682 17.9245 119.136 19.3373C119.541 19.3421 119.645 18.7944 119.911 18.5624C120.559 17.9954 121.496 17.3655 122.319 17.1029C124.405 16.4392 131.266 16.6793 133.778 16.7824C136.843 16.908 139.64 17.0868 141.237 20.1202L144.812 30.8054L144.818 30.8022Z" fill="white"/>
<path d="M121.768 24.5196V22.0227C121.768 21.9196 122.363 21.1366 122.518 20.9997C122.922 20.6469 123.57 20.3876 124.104 20.3296C126.889 20.0283 130.768 20.3554 133.607 20.4971C135.642 20.5986 137.657 19.9333 138.371 22.5011L144.817 41.7548C145.037 41.7371 145.073 41.5196 145.145 41.3601C147.784 35.5834 149.146 28.3084 151.781 22.5398C152.347 21.301 153.048 20.9256 154.41 20.9659C157.938 21.6425 162.205 21.3654 165.649 22.1402C166.814 22.4028 168.025 23.516 168.025 24.7596V30.3173L169.48 28.1474C178.878 19.3824 192.321 23.8075 201.374 30.7345C202.92 31.9169 204.694 33.0719 203.735 35.3208C201.5 37.982 199.659 41.3907 197.425 43.9956C195.443 46.3072 192.756 43.1482 190.897 42.0093C189.249 40.9993 186.778 39.7186 184.847 39.5188C181.902 39.2144 182.885 40.0859 184.22 41.5953C186.628 44.3194 189.698 46.2186 192.438 48.5238C200.428 55.251 206.382 63.5199 202.317 74.4983C196.687 89.7053 178.045 81.3495 168.265 75.584C168.152 77.8506 167.546 78.7608 165.196 78.6496C161.513 78.4756 157.419 77.2964 153.67 77.1208C153 77.232 151.583 75.8353 151.583 75.3408V68.9777C151.293 69.1468 151.098 69.3933 150.785 69.5495C149.483 70.2052 147.333 69.6687 145.868 69.6156C144.402 69.5624 140.049 69.7509 138.955 69.1146C138.664 68.9471 138.507 68.6216 138.205 68.4944V74.3742C138.205 74.9107 137.299 76.1189 136.682 76.2348L123.619 76.8712C123.059 77.0612 121.604 75.6903 121.604 75.3408V67.3667L119.126 72.0593C113.891 80.0463 103.265 79.9657 94.8772 78.0503C92.1839 77.435 89.6002 76.4153 86.9505 75.7435C87.1648 77.2803 86.3219 78.5997 84.8342 79.0249C74.4398 80.3378 64.0857 81.9439 53.809 83.9431C52.7033 83.8674 51.978 83.1859 51.8282 82.0921C51.2576 77.9102 52.0925 72.2365 51.9829 67.9386L51.97 30.3914C52.1183 26.849 56.1848 26.9698 58.8732 26.4978C67.5043 24.9803 76.2305 23.967 84.9309 22.899C88.5075 23.4918 86.4105 27.7317 87.0311 30.1546C89.8194 24.6662 96.1457 21.2075 102.069 20.2152C109.283 19.0054 115.477 21.2881 121.767 24.518L121.768 24.5196ZM101.033 39.928C99.5868 38.4604 98.1604 36.3211 100.343 34.7586C102.912 32.9189 107.451 33.8564 110.204 34.8697C110.852 35.1081 114.135 36.8093 114.354 36.6933L120.629 26.8715C120.469 26.2062 113.877 23.6448 112.866 23.3484C103.545 20.6115 90.4996 23.7608 88.0304 34.3736C86.1817 42.3186 88.5236 46.7824 94.8966 51.2962C98.3587 53.748 102.699 55.2381 105.887 57.8704C110.038 61.2968 110.275 65.4546 103.79 65.1211C99.6175 64.9069 95.4832 62.9915 91.5602 61.7446L87.4421 73.1596C98.5263 77.4978 115.909 80.689 119.46 65.3048C121.667 55.7472 118.446 51.0256 110.666 46.0028C107.625 44.0391 103.566 42.5022 101.031 39.9264L101.033 39.928ZM154.004 52.5495V74.7802L165.77 76.23L165.588 24.7822C165.488 24.4906 164.701 24.4277 164.379 24.3794C163.415 24.2344 162.322 24.1507 161.336 24.0379C159.376 23.8156 156.613 23.3919 154.728 23.3774C154.494 23.3758 154.254 23.3597 154.08 23.5498L144.897 49.1666L136.086 23.1777L135.712 22.907L124.184 22.7476C124.147 24.7596 124.233 26.7829 124.192 28.7966C123.883 43.8022 124.287 58.8933 123.855 73.8926C123.851 74.0649 123.789 74.4371 123.955 74.4612L135.791 73.9763L135.629 51.5846L140.157 67.0333L149.418 67.4924L154.004 52.5511V52.5495ZM65.8394 67.5311V59.1543L80.9901 57.1406V45.9448L65.8394 47.8779V39.0178L84.536 36.7642C84.5731 34.4831 84.4861 32.1924 84.528 29.9097C84.5505 28.6612 84.802 27.3693 84.7037 26.0419C84.6843 25.7729 84.7552 25.4829 84.4409 25.3428C74.3883 26.5203 64.3614 27.9186 54.4022 29.6809L54.2329 81.3849L84.5344 76.7133L84.6956 65.4353L65.8378 67.5294L65.8394 67.5311ZM201.53 33.5616C194.941 28.592 187.553 24.4648 178.949 26.0129C172.779 27.1244 169.14 31.0116 168.673 37.328C168.099 45.0942 172.223 50.08 177.942 54.6389C181.336 57.3452 188.446 61.3177 189.739 65.5625C191.175 70.2728 185.356 68.7183 182.93 67.8565C179.249 66.5484 175.966 64.3592 172.539 62.5372L168.528 72.9582L168.665 73.2482C177.618 78.6158 197.079 87.6498 200.505 71.5632C202.309 63.0978 199.511 57.7947 193.412 52.2225C190.1 49.1956 185.732 46.8163 182.768 43.53C181.443 42.0608 178.646 38.4572 181.726 37.3296C185.754 35.854 192.156 39.8539 195.188 42.3943L195.419 42.3991L201.524 33.5616H201.53ZM121.767 29.9983L121.407 30.2077C119.579 32.4743 118.045 36.2777 116.196 38.3638C115.492 39.158 114.531 39.3545 113.503 39.1419C112.468 38.9276 110.302 37.5809 109.074 37.125C106.661 36.2293 104.121 35.6462 101.619 36.6031C104.648 40.5724 109.76 42.2236 113.759 45.0056C117.015 47.2706 119.928 50.341 121.523 54.001L121.765 29.9983H121.767ZM68.257 61.2485V64.7119L68.5875 64.8875C74.1707 64.1143 79.7748 63.2653 85.4128 63.0302C86.525 63.2025 87.0601 64.3366 87.1181 65.3628C87.1439 65.8348 86.7023 66.8561 87.2744 66.7256L89.5019 60.493C89.8952 59.797 90.5931 59.3798 91.3877 59.3138C92.8077 59.1946 95.8685 60.712 97.3964 61.2018C99.7625 61.9589 102.928 62.9126 105.415 62.7047C105.676 62.6822 106.524 62.6613 106.461 62.2924C106.327 61.5094 103.842 59.5345 103.123 59.0222C100.003 56.7959 96.3294 55.5088 93.1897 53.3244C88.385 49.9801 84.8294 45.1361 85.0196 39.0178L68.1668 41.1024L68.1636 44.8123L68.3554 45.1329L81.3882 43.522C82.7196 43.6879 83.2998 44.3918 83.4158 45.6983C83.6608 48.4594 83.685 54.2442 83.4078 56.9795C83.2724 58.3182 82.5374 59.2783 81.2141 59.6198L68.2586 61.2501L68.257 61.2485ZM168.026 46.7502V66.8867C168.49 66.9721 168.286 66.761 168.392 66.5339C169.446 64.2786 170.014 59.0899 173.384 60.3238C175.158 60.9746 177.758 62.9657 179.628 63.9097C181.947 65.0809 184.908 66.5275 187.53 66.3213C184.818 61.5223 179.476 58.911 175.363 55.446C173.381 53.7754 171.58 51.9052 169.986 49.8657L168.025 46.7518L168.026 46.7502Z" fill="#1B3F1E"/>
</svg>
