<svg width="256" height="256" viewBox="0 0 256 256" fill="none" xmlns="http://www.w3.org/2000/svg">
<g clip-path="url(#clip0_3090_311)">
<path d="M228.575 159.456C229.961 159.907 231.298 160.236 232.547 160.766C235.549 162.039 238.694 162.924 241.672 164.274C243.157 164.948 244.7 165.503 246.175 166.219C251.603 168.849 255.18 172.852 255.566 179.105C255.704 181.36 254.945 183.518 254.004 185.53C252.155 189.482 248.925 192.154 245.336 194.458C243.201 195.827 240.874 196.696 238.483 197.529C236.225 198.318 233.935 198.868 231.615 199.344C230.854 199.499 230.06 199.49 229.278 199.537C228.514 199.582 228.141 199.997 228.105 200.73C228.082 201.197 228.105 201.669 228.105 202.139C228.12 211.059 228.138 219.98 228.145 228.901C228.145 231.341 227.128 233.226 225.139 234.677C223.464 235.898 221.717 236.438 219.673 235.938C219.302 235.847 218.893 235.898 218.504 235.894C194.125 235.598 169.744 235.682 145.364 235.598C142.364 235.588 139.358 235.588 136.358 235.438C135.729 235.408 135.231 235.734 134.679 235.908C131.842 236.8 129.016 236.532 126.249 235.708C125.239 235.408 124.318 235.624 123.358 235.624C105.197 235.633 87.0379 235.642 68.8768 235.673C67.6319 235.673 66.3918 235.882 65.1704 236.175C63.6789 236.537 62.1427 236.692 60.6419 236.443C58.0206 236.009 55.4298 235.408 52.8203 234.907C52.1932 234.788 51.8267 234.304 51.3311 234.006C48.0498 232.036 45.2031 229.572 43.1972 226.287C41.7644 223.944 40.5689 221.546 39.8783 218.768C38.8636 214.683 39.2418 210.625 39.0539 206.551C38.9082 203.376 39.6505 200.352 40.3081 197.304C40.5313 196.271 41.2806 195.425 41.3628 194.336C41.4003 193.829 41.6094 193.202 40.9823 193.018C40.28 192.812 40.1954 193.54 40.0615 193.979C39.0821 197.184 37.4426 199.943 34.4502 201.606C31.9088 203.019 29.1982 203.987 26.2011 203.141C25.87 203.047 25.574 203.026 25.3415 203.292C25.0596 203.611 25.2663 203.865 25.5059 204.097C27.7279 206.243 28.4865 209.101 28.604 211.954C28.7285 214.979 27.6739 217.839 25.6821 220.271C23.2628 223.228 20.0754 224.787 16.369 225.029C12.2186 225.299 7.58677 222.955 5.80636 218.707C4.6484 215.946 5.75469 212.128 8.14344 210.39C8.82694 209.89 8.73769 209.395 8.15283 208.984C5.92146 207.417 4.17159 205.377 2.65895 203.165C1.90967 202.071 1.50333 200.718 1.07115 199.438C-0.223051 195.597 -0.429747 191.699 0.902032 187.829C2.3583 183.598 4.92556 180.176 8.74473 177.783C9.67721 177.199 10.3725 176.588 10.3748 175.424C10.3748 175.271 10.4312 175.116 10.4805 174.968C10.9315 173.632 11.6079 172.453 10.3255 170.993C9.4118 169.952 8.8199 168.748 7.43409 168.095C5.42116 167.149 4.12461 165.371 3.77464 163.239C3.46694 161.358 2.6566 159.766 1.82982 158.143C0.603732 155.739 0.195038 153.344 1.66775 150.892C1.80868 150.66 1.93786 150.369 2.1516 150.242C4.13635 149.063 5.67483 147.199 7.95318 146.471C8.24444 146.377 8.52629 146.217 8.77997 146.041C10.6308 144.77 12.6978 144.191 14.9198 144.108C15.3308 144.092 15.5798 143.906 15.7184 143.542C16.5733 141.288 17.3391 139.025 17.7947 136.627C18.1165 134.939 18.7953 133.217 19.8546 131.825C21.3367 129.881 22.8987 128.002 24.308 125.995C26.0179 123.557 28.4349 122.653 31.3967 123.233C32.3527 123.421 33.1231 123.947 33.9264 124.424C34.5488 124.792 35.0092 124.748 35.1267 123.989C35.4437 121.956 36.4561 120.084 36.4772 117.978C36.4937 116.379 37.3745 114.998 37.7808 113.49C38.2529 111.734 38.9787 110.048 39.4767 108.299C39.836 107.038 40.4679 105.899 41.0903 104.802C42.1755 102.891 42.7298 100.752 43.8455 98.859C44.1367 98.3612 44.9846 98.0466 44.6699 97.3069C44.3904 96.6541 43.6059 96.9805 43.0938 96.7222C41.452 95.8956 40.3669 94.475 39.4626 92.9909C37.701 90.1074 35.8877 87.2614 34.0462 84.4318C32.6299 82.2527 31.2769 80.0337 29.8418 77.864C28.0708 75.1871 28.4302 71.6249 30.6122 69.1875C31.7232 67.9453 32.5453 66.4636 33.9687 65.468C34.7908 64.8903 35.742 64.8997 36.5853 64.5053C37.0574 64.2845 37.6164 64.1178 37.4919 63.4674C37.0574 61.2295 38.2341 59.5576 39.6035 58.1253C40.886 56.7845 42.2459 55.4789 43.8008 54.3987C44.6863 53.7835 45.6658 53.6191 46.6382 53.3866C47.3757 53.2082 47.6905 52.8184 47.7774 52.1139C48.0217 50.1415 48.7615 48.5212 50.7627 47.7041C51.2489 47.5068 51.6811 47.0888 52.0381 46.6873C52.9706 45.633 54.1074 44.9215 55.4204 44.4589C55.6013 44.3955 55.8456 44.3133 55.9137 44.1677C56.8321 42.2516 58.9155 41.8947 60.4422 40.8075C62.6266 39.2553 64.9073 37.8277 67.2068 36.4493C68.4235 35.719 69.6402 34.8995 71.1716 34.8924C71.7846 34.8901 72.3812 34.5801 72.6889 34.0988C73.713 32.5043 75.4511 32.0183 76.9591 31.1612C78.0607 30.5366 79.2515 30.2243 80.4682 29.9448C80.7947 29.8697 81.0789 29.8697 81.3796 29.9871C81.8963 30.1867 82.298 30.0317 82.5892 29.5738C83.2116 28.5923 84.1841 28.0499 85.2199 27.707C86.6386 27.2397 87.9046 26.3333 89.3327 26.0257C91.6721 25.5256 93.8565 24.6474 96.102 23.9194C97.8471 23.3535 99.799 22.7406 101.652 22.797C103.811 22.8627 105.617 22.2569 107.435 21.3083C107.893 21.0687 108.464 20.9067 108.973 20.9232C111.888 21.0218 114.705 19.85 117.584 20.0966C121.697 20.4488 125.279 21.7521 127.672 25.6547C130.078 29.5785 130.385 33.5446 129.265 37.8089C129.185 38.1094 129.068 38.3748 129.155 38.7106C129.312 39.314 129.354 40.1946 130.017 40.2134C130.608 40.2322 130.392 39.3399 130.533 38.8585C131.196 36.5949 131.041 34.2021 131.477 31.9337C132.048 28.968 131.724 25.859 132.978 23.0083C133.763 21.2261 135.059 20.2938 136.943 19.7796C140.248 18.8755 143.377 20.0215 146.578 20.2798C148.528 20.4371 150.449 20.8691 152.182 21.7403C154.01 22.6585 155.755 23.7832 156.732 25.7322C157.183 26.6316 157.827 27.4558 157.683 28.5594C157.646 28.8482 157.841 29.1371 158.101 29.1934C158.334 29.2427 158.477 28.9469 158.569 28.7426C159.074 27.6014 160.049 26.8241 160.838 25.9248C162.172 24.4055 164.065 24.382 165.918 24.4665C167.01 24.5159 167.999 24.9268 168.974 25.4082C169.855 25.8426 170.874 25.5819 171.83 26.1337C174.397 27.6178 175.649 29.7124 175.555 32.6476C175.541 33.0632 175.337 33.5798 175.816 33.8193C176.302 34.0635 176.408 33.4647 176.69 33.2581C177.996 32.3071 179.525 31.969 181.068 31.8093C186.379 31.2598 190.717 33.2605 194.32 37.0575C194.99 37.7619 195.79 38.3536 196.256 39.2459C196.366 39.4549 196.575 39.6193 196.838 39.5512C198.872 39.0346 200.347 39.9997 201.857 41.2161C203.236 42.3268 204.944 43.1087 205.846 44.682C206.506 45.8302 207.523 46.0181 208.559 46.5088C210.081 47.2297 211.354 48.4625 212.798 49.3783C214.06 50.179 215.149 51.0573 215.471 52.6047C215.528 52.8794 215.732 52.9969 215.955 53.0626C218.109 53.6825 219.192 55.5705 220.585 57.0545C222.4 58.9894 224.141 60.9971 226.027 62.8662C226.955 63.7867 227.737 64.7894 228.101 66.0621C228.206 66.4308 228.439 66.6374 228.726 66.8652C230.104 67.9571 231.239 69.2627 232.216 70.7326C233.827 73.1606 235.61 75.4806 237.137 77.9603C238.015 79.388 239.192 80.6607 239.434 82.4993C239.817 85.4016 238.919 87.6418 236.5 89.2268C235.556 89.8467 234.6 90.4338 233.693 91.1241C231.596 92.7232 228.291 92.5918 226.283 90.8565C225.78 90.422 225.517 90.5888 225.097 90.9105C222.962 92.5424 220.683 93.9701 218.442 95.4495C217.747 95.9074 217.005 96.0459 216.223 96.0882C215.499 96.1258 215.248 96.1751 215.69 97.0274C216.444 98.4857 217.775 99.6081 218.231 101.195C219.03 103.971 220.589 106.446 221.303 109.236C221.588 110.349 222.278 111.279 222.52 112.401C222.633 112.925 223.149 112.922 223.596 112.84C226.386 112.316 229.16 112.251 231.958 112.882C234.562 113.472 237.008 114.378 238.147 116.952C238.771 118.361 239.335 119.821 238.875 121.655C238.173 124.447 236.545 126.229 234.257 127.659C233.978 127.833 233.522 127.96 233.552 128.364C233.585 128.808 234.09 128.714 234.384 128.859C235.706 129.519 237.078 130.097 238.346 130.846C240.164 131.919 242.177 132.555 244.045 133.516C246.844 134.955 249.792 136.141 252.249 138.174C254.008 139.63 254.92 141.509 255.605 143.73C256.731 147.37 255.288 150.131 253.259 152.745C251.944 154.438 249.898 155.283 247.901 155.953C243.857 157.305 239.683 157.951 235.408 158.11C233.512 158.181 231.626 158.599 229.712 158.667C229.28 158.683 228.904 158.935 228.575 159.451V159.456ZM14.9433 193.439C14.5956 195.24 16.1365 196.019 16.9703 197.179C17.1018 197.363 17.386 197.456 17.588 197.245C17.8088 197.013 17.7055 196.712 17.5951 196.47C16.8482 194.855 16.3502 193.202 16.672 191.391C16.7143 191.156 16.6626 190.898 16.4207 190.781C16.0965 190.623 15.918 190.87 15.756 191.093C15.251 191.795 14.706 192.483 14.9433 193.436V193.439Z" fill="#080C61"/>
<path d="M51.223 189.513C51.2418 188.393 50.6781 187.81 50.26 187.219C48.8484 185.225 47.9723 182.954 46.8143 180.832C46.2341 179.77 47.0609 179.467 47.6834 179.042C48.4232 178.538 48.8554 179 49.1749 179.594C50.0392 181.207 50.5583 182.983 51.5096 184.558C51.9723 185.326 52.3293 186.167 52.839 186.902C53.5695 187.956 53.4168 188.811 52.5313 189.677C50.2577 191.901 49.0903 194.86 48.1508 197.713C46.6217 202.36 46.26 207.282 46.6217 212.189C46.8026 214.641 47.1831 217.069 48.1179 219.391C51.0163 226.574 58.3916 229.92 65.2831 228.288C67.3712 227.793 69.4428 227.823 71.5544 227.828C83.6085 227.856 95.6627 227.821 107.717 227.814C112.14 227.812 116.56 227.805 120.983 227.842C121.868 227.849 122.425 227.743 122.244 226.654C122.195 226.353 122.129 225.851 122.493 225.701C122.895 225.534 123.217 225.907 123.491 226.17C125.22 227.835 127.4 228.45 129.676 228.669C132.516 228.941 135.078 228.107 137.293 226.269C138.334 225.405 138.364 225.409 138.869 226.623C139.21 227.448 139.67 227.84 140.671 227.837C155.621 227.805 170.571 227.706 185.519 227.87C196.281 227.988 207.044 227.929 217.804 228.042C219.529 228.059 220.387 227.182 220.378 225.409C220.352 215.787 220.331 206.161 220.31 196.539C220.31 196.266 220.31 195.989 220.347 195.719C220.418 195.198 220.519 194.672 221.233 194.735C221.905 194.794 222.302 195.092 222.287 195.855C222.255 197.537 222.269 199.22 222.269 200.902C222.269 210.017 222.276 219.133 222.273 228.251C222.273 229.911 222.262 229.934 220.596 229.93C205.958 229.887 191.323 229.836 176.685 229.789C166.04 229.754 155.395 229.77 144.751 229.646C141.575 229.608 138.423 229.904 135.257 229.946C133.396 229.97 131.557 230.62 129.641 230.658C128.943 230.672 128.483 230.343 127.912 230.2C126.214 229.77 124.485 229.873 122.77 229.859C105.396 229.718 88.022 229.69 70.6478 229.782C68.5855 229.793 66.5585 230.099 64.5079 230.404C57.6189 231.425 52.0616 228.96 48.0427 223.188C46.4455 220.896 45.4261 218.353 45.0503 215.625C44.0756 208.545 44.348 201.575 47.3851 194.932C47.4508 194.789 47.5166 194.648 47.5918 194.512C48.8319 192.244 48.9494 191.831 51.2254 189.511L51.223 189.513Z" fill="#FDD00F"/>
<path d="M129.92 54.3425C125.774 54.0208 121.15 54.7535 116.56 55.4485C109.492 56.5193 102.634 58.4448 96.029 61.2814C88.0924 64.6886 80.7547 69.0233 74.1122 74.5439C69.6424 78.2587 65.478 82.2623 61.7692 86.7544C55.7727 94.0173 51.1572 102.093 47.6176 110.771C44.9728 117.255 43.136 123.992 42.3327 130.978C42.2928 131.332 42.2717 131.736 41.9146 131.891C41.4684 132.086 41.1865 131.687 40.9258 131.428C40.0097 130.517 39.8406 129.369 40.0779 128.171C42.0133 118.361 45.0738 108.956 49.856 100.118C53.3087 93.7378 57.4873 87.8932 62.2366 82.4502C64.111 80.3016 66.2766 78.4066 68.3106 76.3966C73.6659 71.1038 79.8316 66.9053 86.3754 63.2726C92.743 59.7363 99.4466 56.9913 106.526 55.1433C110.62 54.0748 114.737 53.1144 118.923 52.6495C125.025 51.9756 131.149 51.7314 137.31 52.201C144.772 52.7693 152.034 54.265 159.109 56.5639C166.108 58.8393 172.711 62.0187 178.975 65.9472C186.759 70.8291 193.58 76.7911 199.619 83.6571C203.729 88.33 207.271 93.4302 210.266 98.9038C212.723 103.396 214.94 107.989 216.599 112.84C216.883 113.674 217.155 114.51 217.465 115.334C217.705 115.973 217.881 116.548 216.984 116.804C216.155 117.039 215.398 117.036 215.046 116.081C214.792 115.386 214.684 114.634 214.407 113.951C211.72 107.327 208.732 100.843 204.843 94.8274C201.345 89.4149 197.188 84.5353 192.615 79.9893C189.143 76.5422 185.371 73.4614 181.456 70.5661C177.97 67.9878 174.174 65.8181 170.313 63.8996C166.999 62.2535 163.586 60.7014 159.983 59.6189C157.505 58.8722 155.104 57.8014 152.563 57.2754C148.255 56.3854 144.001 55.2748 139.581 54.8709C136.539 54.5914 133.516 54.2909 129.922 54.3449L129.92 54.3425Z" fill="#FDD00F"/>
<path d="M189.841 139.774C188.175 134.988 187.149 131.769 186.224 126.791C185.899 125.053 185.352 122.212 185.185 120.744C185.052 119.563 184.323 118.997 183.149 118.875C180.934 118.645 178.726 118.358 176.516 118.103C175.546 117.992 174.581 117.849 173.596 117.912C173.103 117.943 172.737 118.049 172.781 118.638C172.953 120.85 173.129 123.062 173.305 125.274C173.58 131.412 173.246 137.543 172.734 143.662C172.673 144.383 172.896 144.583 173.585 144.369C178.369 142.899 183.367 142.239 188.359 141.951C190.167 141.871 190.423 141.436 189.843 139.774H189.841Z" fill="#FDD00F"/>
<path d="M143.56 109.842C142.425 105.563 140.208 101.872 137.537 98.4154C132.624 92.0566 126.338 87.6279 118.733 85.0285C113.861 83.3636 108.884 82.1449 103.757 81.8021C94.0654 81.1563 84.3718 81.2244 74.6923 82.1684C73.0059 82.3328 71.6459 82.9832 70.4833 84.2043C67.7563 87.0667 65.2008 90.0747 62.8355 93.2377C55.4156 103.17 50.5019 114.24 47.9064 126.347C47.2605 129.364 46.7367 132.403 46.6357 135.498C46.4431 136.982 46.5206 138.32 46.4784 139.732C46.4643 140.196 46.6052 140.38 47.1877 140.105C48.8248 139.332 54.7415 135.862 56.0709 135.221C59.5777 133.532 63.0892 131.851 66.6265 130.226C69.4521 128.93 72.2613 127.568 75.1762 126.504C81.0177 124.372 86.8498 122.195 92.8346 120.465C96.938 119.387 101.02 118.218 105.152 117.257C110.091 116.107 115.071 115.134 120.1 114.444C123.813 113.934 127.51 113.244 131.24 112.939C134.86 112.643 138.479 112.335 142.103 112.079C144.147 111.934 144.102 111.87 143.564 109.839L143.56 109.842Z" fill="#FDD00F"/>
<path d="M166.789 109.158C166.141 105.718 163.384 95.3017 162.724 93.5265C160.786 88.3253 158.616 83.2415 155.799 78.4301C152.147 72.1863 147.872 66.4544 142.648 61.4364C141.495 60.328 140.159 59.8349 138.592 59.6236C134.108 59.0178 129.636 59.1634 125.136 59.3958C117.619 59.7833 110.336 61.3307 103.242 63.7024C97.9127 65.4846 92.75 67.7365 87.9608 70.7305C86.2908 71.7754 80.9966 75.2812 79.9419 75.8612C79.6131 76.042 79.3007 76.19 79.3994 76.6314C79.5239 77.1762 79.9654 77.0776 80.3436 77.0447C83.8551 76.7465 102.223 76.4224 110.942 78.0896C118.951 79.6206 126.488 82.1966 132.976 87.2499C140.955 93.4655 146.594 101.278 148.781 111.314C148.884 111.788 148.964 111.929 149.458 111.934C154.111 111.967 158.764 111.828 163.414 112.072C163.917 112.11 164.417 112.164 164.92 112.18C167.264 112.256 167.341 112.101 166.787 109.156L166.789 109.158Z" fill="#FDD00F"/>
<path d="M195.224 166.118C194.679 165.277 193.853 164.904 192.946 164.606C190.672 163.857 186.468 162.932 184.934 162.685C181.599 162.15 178.214 161.91 174.97 160.872C174.66 160.771 174.346 160.68 174.036 160.569C173.206 160.269 172.067 159.376 171.292 158.879C170.98 158.677 170.606 158.378 170.475 159.092C170.179 160.682 169.85 162.267 169.535 163.854C169.481 164.136 168.64 167.813 168.22 169.352C168.034 170.032 168.182 170.371 168.887 170.523C170.442 170.864 175.908 172.195 176.772 172.463C179.144 173.193 180.847 173.503 182.963 172.597C185.66 171.775 193.975 169.582 194.719 169.187C195.781 168.624 195.873 167.123 195.222 166.12L195.224 166.118Z" fill="#FDD00F"/>
<path d="M212.159 137.693C211.645 137.172 211.095 136.702 210.426 136.336C208.622 135.347 206.851 134.277 205.39 132.8C204.453 131.853 203.675 130.806 203.344 129.453C202.9 127.638 203.133 125.983 204.232 124.459C204.749 123.743 204.678 123.306 203.722 123.066C202.889 122.857 202.059 122.637 201.202 122.536C199.053 121.798 191.92 120.422 191.034 120.317C190.285 120.228 190.033 120.516 190.153 121.228C190.273 121.942 190.884 124.893 190.949 125.166C192.103 129.869 193.388 135.021 194.858 139.879C195.262 141.213 195.654 141.436 197.087 141.347C198.919 141.232 200.756 141.126 202.59 141.091C205.327 141.037 208.063 141.049 210.799 141.03C211.729 141.023 212.171 140.405 212.479 139.649C212.768 138.94 212.709 138.25 212.159 137.693Z" fill="#FDD00F"/>
<path d="M167.99 118.664C167.908 117.598 167.381 117.26 166.421 117.213C164.394 117.112 162.369 116.896 160.342 116.858C156.849 116.689 153.368 116.461 149.866 116.694C148.931 117.257 149.307 118.225 149.248 119.112C149.122 121.007 148.436 124.882 148.445 124.936C145.782 138.442 139.064 150.766 130.829 161.718C130.869 161.729 130.907 161.746 130.939 161.765C130.907 161.746 130.869 161.732 130.829 161.718C125.986 167.426 127.355 165.378 133.105 165.74C134.683 166.513 136.318 166.973 137.638 168.189C138.15 168.473 138.453 169.469 139.015 169.103C139.503 168.783 138.996 167.607 139.139 167.231C139.442 166.595 140.032 166.653 140.563 166.707C147.167 167.13 153.751 167.839 160.307 168.755C161.364 168.833 163.031 170.035 163.433 168.41C167.553 152.254 169.34 135.308 167.992 118.664H167.99Z" fill="#FDD00F"/>
<path d="M185.665 82.274C186.149 80.6044 185.632 79.6581 184.474 78.7728C180.751 75.9269 176.99 73.1419 172.918 70.7938C167.522 67.6824 161.925 65.0431 155.966 63.1951C153.944 62.6385 151.922 62.0844 149.566 61.4363C150.728 63.5027 152.33 64.7026 153.535 66.2266C153.533 66.2266 153.53 66.2266 153.528 66.2266C153.608 66.351 153.69 66.4778 153.772 66.6046C155.438 69.1031 157.152 71.571 158.757 74.107C162.79 80.48 165.634 87.3977 167.992 94.5338C169.775 99.9252 170.989 105.443 171.781 111.063C171.922 112.07 172.279 112.781 173.491 112.915C176.401 113.235 179.311 113.547 182.195 114.089C184.335 114.493 184.349 114.418 183.964 112.211C183.931 112.018 183.924 111.821 183.919 111.626C183.772 105.692 183.292 99.7655 183.783 93.8176C184.105 89.9102 184.577 86.024 185.662 82.2716L185.665 82.274Z" fill="#FDD00F"/>
<path d="M210.762 118.147C210.393 117.236 209.369 114.644 209.369 114.644C209.369 114.644 209.355 114.639 209.352 114.639C208.373 111.213 206.811 108.029 205.263 104.84C203.988 102.215 202.421 99.761 200.798 97.3401C198.454 93.8436 196.105 90.3543 193.082 87.3862C192.976 87.2922 191.222 85.2939 190.562 84.6529C190.165 84.2678 189.77 84.4862 189.705 85.0568C189.606 85.9068 189.31 87.9779 189.286 88.1658C188.568 94.4236 188.14 100.696 188.504 106.996C188.633 109.255 188.894 111.504 189.108 113.758C189.192 114.648 189.672 115.149 190.581 115.313C192.54 115.665 194.494 116.036 196.439 116.459C200.016 117.236 203.584 118.058 207.154 118.861C208.079 119.096 209.04 119.342 209.848 119.413C210.656 119.483 211.034 118.812 210.762 118.145V118.147Z" fill="#FDD00F"/>
<path d="M142.996 116.947C142.453 117.008 141.913 117.109 141.371 117.121C133.65 117.274 126.016 118.33 118.416 119.542C113.718 120.291 109.037 121.221 104.417 122.426C100.107 123.55 95.7424 124.466 91.5639 126.046C84.0148 128.2 76.7546 131.133 69.5648 134.249C67.1761 135.284 64.8155 136.388 62.462 137.503C60.8108 138.285 59.1854 139.123 57.5741 139.988C57.2852 140.143 56.7544 140.293 56.9118 140.812C57.0292 141.202 57.4426 141.131 57.7738 141.213C60.4232 141.866 62.6781 143.035 63.5988 145.865C63.8736 146.971 63.7092 148.098 63.7327 149.218C63.5894 149.742 63.4086 150.258 63.3099 150.791C63.068 152.109 62.4456 153.41 63.0962 154.776C63.2418 156.641 62.6264 158.266 61.5131 159.729C61.5131 159.729 61.5131 159.724 61.5131 159.722L61.4567 159.75C60.139 160.842 59.3545 162.227 58.6757 163.817C58.0721 165.23 58.2459 166.212 59.0962 167.285C59.2653 167.499 59.4109 167.726 59.5683 167.952C59.6246 168.046 59.775 168.276 59.8243 168.389C60.9259 172.568 60.0169 174.668 56.3903 176.321C55.6293 176.45 54.873 176.664 54.1096 176.689C53.3322 176.715 53.2476 177.119 53.4472 177.662C53.7127 178.38 54.0791 179.063 54.4009 179.763C54.7908 180.778 55.2817 181.738 55.9276 182.614C56.0216 182.736 56.1132 182.856 56.2071 182.978L56.1695 183.001C56.8765 185.072 57.1184 185.166 58.9552 184.084C59.1196 183.988 60.8296 183.344 61.5084 183.077C63.9793 182.1 66.4832 181.635 69.1374 182.259C69.8091 182.419 72.4609 183.997 73.1891 183.84C73.7904 183.711 73.4545 182.736 73.5813 182.149C73.6635 181.769 73.8702 180.465 73.9054 180.195C74.2178 177.922 74.7064 177.38 76.9378 176.755C77.6495 176.556 78.3447 176.293 79.047 176.058C82.0652 175.043 85.0506 173.905 88.1111 173.043C93.7412 171.458 99.416 170.037 105.187 169.039C107.766 168.593 110.336 168.093 112.952 168.774C113.288 168.971 113.615 169.189 113.962 169.361C114.768 169.755 115.449 170.85 116.297 170.551C117.091 170.274 124.999 161.241 127.51 158.139C128.236 157.242 131.675 152.233 132.086 151.578C136.325 144.841 139.823 137.757 142.099 130.102C142.543 128.406 143.052 126.725 143.419 125.011C143.9 122.757 144.274 120.481 144.269 118.159C144.269 117.257 143.907 116.842 142.998 116.945L142.996 116.947Z" fill="#FDD00F"/>
<path d="M151.236 194.831C150.825 196.374 150.789 197.612 150.853 198.863C151.069 203.163 150.679 207.46 150.747 211.759C150.757 212.391 150.806 212.924 151.518 213.154C152.034 213.321 152.039 213.779 152.039 214.218C152.048 217.263 152.053 220.311 152.067 223.357C152.07 224.066 151.701 224.341 151.036 224.306C148.612 224.172 146.19 224.162 143.766 224.306C142.914 224.355 142.67 223.81 142.665 223.117C142.651 220.067 142.665 217.017 142.658 213.967C142.658 213.617 142.775 213.354 143.088 213.203C144.032 212.745 144.203 211.989 144.173 210.991C143.896 202.27 144.527 193.561 144.506 184.842C144.504 183.694 144.692 182.567 143.353 181.966C142.907 181.764 142.921 181.282 142.928 180.836C142.966 177.826 143.008 174.815 143.008 171.805C143.008 171.011 143.339 170.767 144.084 170.845C146.804 171.126 149.519 171.441 152.246 171.636C153.488 171.725 154.068 172.378 154.313 173.461C155.804 180.019 157.733 186.462 159.374 192.983C159.687 194.228 159.901 195.496 160.222 196.738C160.326 197.14 160.337 197.799 160.995 197.727C161.674 197.651 161.357 197.041 161.361 196.682C161.406 192.81 161.416 188.94 161.441 185.068C161.446 184.523 161.509 184.044 160.795 183.769C160.295 183.576 160.065 182.987 160.063 182.391C160.051 179.505 160.048 176.616 160.006 173.731C159.997 173.066 160.3 172.982 160.859 172.97C162.134 172.942 163.285 173.508 164.521 173.679C166.061 173.893 167.572 174.315 169.106 174.602C169.82 174.736 170.031 175.022 169.982 175.79C169.813 178.361 169.615 180.937 169.824 183.518C169.878 184.175 169.641 184.603 169.063 184.877C168.211 185.284 168.016 185.943 168.042 186.885C168.168 191.459 167.992 196.031 167.823 200.605C167.668 204.785 167.748 208.972 167.63 213.154C167.534 216.547 167.299 219.936 167.356 223.333C167.367 224.052 166.982 224.32 166.341 224.315C164.427 224.299 162.515 224.247 160.603 224.247C159.525 224.247 158.952 223.709 158.696 222.711C156.697 214.953 154.703 207.192 152.676 199.438C152.297 197.992 151.987 196.515 151.238 194.831H151.236Z" fill="#FEFEFE"/>
<path d="M109.342 216.047C108.938 211.886 109.403 208.74 108.825 205.638C108.598 204.417 108.224 203.257 106.914 202.782C105.936 202.428 105.586 202.759 105.605 203.799C105.652 206.535 105.669 209.273 105.687 212.008C105.692 212.776 105.598 213.481 106.796 213.431C107.423 213.405 107.853 213.993 107.851 214.723C107.851 217.498 107.834 220.276 107.872 223.052C107.886 224.057 107.393 224.364 106.495 224.317C103.719 224.167 100.943 224.207 98.1642 224.273C96.6797 224.308 96.5341 224.022 96.5505 222.573C96.574 220.427 96.4425 218.278 96.3603 216.132C96.3227 215.136 96.2546 214.147 97.4102 213.666C97.732 213.532 97.6921 213.234 97.6827 212.962C97.523 207.058 97.3703 201.157 97.2035 195.254C97.1237 192.401 97.0109 189.55 96.9311 186.697C96.917 186.2 96.8676 185.742 96.3579 185.523C95.5758 185.187 95.4255 184.45 95.3996 183.781C95.3033 181.36 95.308 178.937 95.2611 176.513C95.2423 175.576 95.7026 175.076 96.5999 174.888C100.534 174.071 104.454 173.179 108.433 172.575C111.933 172.045 114.2 173.367 115.451 176.708C116.351 179.11 116.741 181.607 116.819 184.159C116.934 187.949 117.035 191.737 116.036 195.451C115.698 196.712 115.21 197.898 114.371 198.891C113.962 199.375 114.028 199.671 114.432 200.04C116.445 201.876 116.978 204.241 116.919 206.847C116.882 208.448 116.966 210.055 116.976 211.656C116.981 212.311 117.03 212.863 117.774 213.168C118.46 213.448 118.481 214.176 118.47 214.784C118.418 217.519 118.294 220.253 118.799 222.972C118.975 223.921 118.458 224.339 117.511 224.294C115.322 224.195 113.133 224.2 110.942 224.292C109.763 224.341 109.38 223.953 109.356 222.631C109.312 220.091 109.345 217.548 109.345 216.05L109.342 216.047ZM105.347 189.466C105.347 190.959 105.333 192.166 105.354 193.373C105.361 193.791 105.3 194.357 105.758 194.512C106.291 194.693 106.888 194.714 107.419 194.303C108.086 193.786 108.445 193.098 108.464 192.298C108.511 190.234 108.553 188.165 108.471 186.103C108.431 185.129 108.062 184.185 107.017 183.753C106.035 183.347 104.898 184.051 105.11 184.978C105.469 186.564 105.244 188.163 105.349 189.466H105.347Z" fill="#FEFEFE"/>
<path d="M141.678 197.443C141.772 201.169 141.596 205.344 141.023 209.493C140.607 212.504 140.013 215.481 138.85 218.308C137.92 220.572 136.734 222.678 134.59 224.031C131.402 226.043 127.426 225.496 124.894 222.721C122.39 219.976 121.225 216.594 120.513 213.056C119.102 206.039 118.947 198.92 119.205 191.807C119.362 187.491 119.769 183.154 121.049 178.979C121.878 176.274 123.111 173.813 125.194 171.77C128.546 168.478 134.47 169.098 137.122 173.179C138.275 174.952 139.165 176.851 139.799 178.866C141.213 183.349 141.429 187.998 141.667 192.638C141.742 194.082 141.678 195.533 141.678 197.443ZM128.53 195.804C128.53 201.164 128.551 205.109 128.513 209.054C128.506 209.895 128.689 210.682 128.929 211.452C129.162 212.196 129.5 212.98 130.507 212.896C131.475 212.816 131.896 212.147 132.093 211.273C132.464 209.632 132.492 207.967 132.457 206.297C132.302 199.152 132.598 192.004 132.325 184.859C132.29 183.95 132.015 183.166 131.487 182.482C130.822 181.625 129.843 181.693 129.284 182.616C128.816 183.389 128.584 184.239 128.518 185.155C128.234 189.177 128.497 193.197 128.532 195.804H128.53Z" fill="#FEFEFE"/>
<path d="M178.308 207.263C178.308 209.176 178.301 211.09 178.315 213.004C178.318 213.34 178.181 213.732 178.515 213.995C179.628 214.864 179.586 216.068 179.551 217.306C179.492 219.26 179.464 221.216 179.492 223.169C179.506 224.085 179.173 224.437 178.256 224.414C175.95 224.355 173.639 224.31 171.332 224.346C170.346 224.362 169.958 223.914 169.946 223.038C169.913 220.417 169.911 217.797 169.892 215.176C169.89 214.782 170.038 214.502 170.409 214.345C171.447 213.903 171.762 213.086 171.769 212.001C171.797 207.66 171.804 203.315 171.955 198.976C172.089 195.109 172.3 191.246 172.361 187.374C172.373 186.557 172.201 185.843 171.546 185.418C170.818 184.946 170.761 184.342 170.841 183.61C171.111 181.156 171.17 178.697 170.959 176.236C170.905 175.602 171.165 175.424 171.76 175.412C172.64 175.396 173.463 175.675 174.285 175.891C176.279 176.419 178.231 177.122 180.234 177.612C181.254 177.861 181.803 178.422 182.052 179.345C183.743 185.659 185.413 191.978 187.1 198.295C187.342 199.197 187.659 200.077 187.908 200.974C188.018 201.371 188.265 201.646 188.629 201.62C189.162 201.582 188.998 201.096 188.972 200.786C188.718 197.856 189.056 194.921 188.906 191.995C188.859 191.084 189.385 189.82 187.866 189.445C187.786 189.426 187.743 189.097 187.746 188.916C187.786 186.336 187.851 183.755 187.875 181.174C187.882 180.266 188.227 180.186 188.984 180.512C191.236 181.48 193.505 182.407 195.774 183.332C196.749 183.729 197.235 184.326 197.155 185.469C197.042 187.066 197.085 188.675 197.122 190.276C197.139 191.039 196.972 191.666 196.317 192.098C195.661 192.533 195.471 193.143 195.462 193.904C195.377 200.864 194.987 207.817 194.931 214.779C194.907 217.665 194.515 220.546 194.731 223.442C194.792 224.245 194.442 224.63 193.66 224.606C191.513 224.538 189.378 224.235 187.22 224.303C186.454 224.327 186.219 223.625 186.05 223.033C184.605 217.98 183.215 212.912 181.745 207.869C180.981 205.248 180.354 202.599 179.757 199.941C179.732 199.828 179.687 199.718 179.647 199.608C179.515 199.244 179.41 198.718 178.985 198.741C178.421 198.774 178.534 199.394 178.484 199.767C178.151 202.261 178.764 204.757 178.311 207.253L178.308 207.263Z" fill="#FEFEFE"/>
<path d="M89.8423 224.339C88.433 224.339 87.0261 224.35 85.6168 224.339C84.2826 224.327 84.1276 224.047 84.1276 222.732C84.1276 220.666 84.1206 218.586 83.8716 216.54C83.7354 215.416 83.8645 214.782 85.0319 214.634C85.5181 214.573 85.6262 214.342 85.4993 213.922C85.2245 213.013 85.2034 212.074 85.1846 211.137C85.1658 210.233 84.5527 209.996 83.8458 210.059C81.1235 210.297 80.339 211.391 80.8158 214.159C80.9027 214.657 81.2715 214.918 81.6661 215.03C82.4435 215.249 82.4928 215.754 82.5116 216.442C82.5703 218.738 82.2979 221.039 82.6737 223.334C82.7583 223.853 82.5398 224.336 81.8281 224.332C79.2092 224.315 76.5926 224.294 73.9831 224.604C73.0858 224.712 72.609 224.125 72.7194 223.315C72.9801 221.392 72.6442 219.492 72.6184 217.583C72.609 216.834 72.703 216.143 73.2432 215.648C73.821 215.117 73.9384 214.455 74.0136 213.765C74.7629 206.892 75.4934 200.016 76.2473 193.143C76.6419 189.532 77.0882 185.927 77.4781 182.313C77.5932 181.247 77.969 180.566 79.1011 180.202C81.7271 179.362 84.2873 178.324 86.9415 177.547C88.0619 177.218 88.2686 177.756 88.3954 178.566C88.8511 181.459 89.2715 184.359 89.7319 187.252C90.8241 194.111 91.9351 200.967 93.0343 207.826C93.281 209.369 93.5205 210.912 93.7578 212.454C93.8047 212.76 93.7155 213.182 93.887 213.361C95.9516 215.519 94.8875 218.229 95.2046 220.687C95.308 221.493 95.2305 222.298 95.658 223.061C96.0338 223.733 95.4841 224.306 94.4225 224.329C92.8981 224.362 91.3714 224.339 89.8446 224.339H89.8423ZM82.4787 192.669C82.2932 193.101 82.2039 193.235 82.1781 193.38C81.5838 196.811 82.0019 200.305 81.551 203.747C81.5275 203.919 81.5298 204.222 81.7858 204.191C82.4694 204.104 83.2022 204.072 83.8082 203.787C84.3437 203.536 84.1018 202.881 84.0078 202.4C83.7048 200.831 83.5545 199.253 83.423 197.661C83.2938 196.078 83.3642 194.423 82.4787 192.671V192.669Z" fill="#FEFEFE"/>
<path d="M59.0305 203.292C59.0305 206.922 59.0305 210.552 59.0352 214.183C59.0352 214.493 59.0587 214.81 59.1245 215.112C59.3335 216.071 59.8784 216.827 60.8649 216.935C61.8491 217.043 62.5467 216.434 62.9366 215.53C63.1057 215.138 63.2584 214.734 63.3876 214.326C63.6248 213.584 63.4815 213.004 62.6336 212.8C61.8021 212.6 61.5625 212.104 61.6025 211.257C61.6635 209.972 61.6283 208.674 61.5132 207.392C61.424 206.38 61.8397 205.84 62.7534 205.607C64.9425 205.051 67.1292 204.475 69.3324 203.973C71.7 203.433 71.6812 203.466 71.6319 205.926C71.6037 207.291 71.6883 208.66 71.7071 210.026C71.7118 210.411 71.7611 210.836 71.3829 211.102C70.4458 211.759 70.4575 212.696 70.4927 213.711C70.5796 216.211 70.5773 218.715 70.6243 221.218C70.6337 221.767 70.4528 222.18 70.03 222.547C66.4551 225.656 59.7422 226.149 55.7469 223.488C52.6206 221.406 51.1103 218.28 50.6029 214.664C50.0275 210.578 50.1097 206.488 50.8707 202.423C51.7092 197.95 53.5719 193.932 56.7827 190.71C59.2208 188.263 62.0934 186.369 65.6988 186C66.0488 185.965 66.4011 185.934 66.7511 185.932C69.3489 185.925 69.6636 186.319 69.7035 188.9C69.7505 191.751 69.9666 194.597 70.0652 197.447C70.1169 198.957 69.8492 199.222 68.3788 199.622C67.101 199.969 65.8491 200.411 64.5714 200.746C63.1315 201.127 62.9319 200.932 62.9225 199.46C62.9178 198.72 62.9154 197.968 62.7957 197.241C62.5655 195.862 61.4169 195.449 60.2824 196.264C59.1104 197.104 58.8144 198.335 58.7674 199.654C58.7252 200.866 58.758 202.08 58.758 203.292C58.8473 203.292 58.9365 203.292 59.0235 203.292H59.0305Z" fill="#FEFEFE"/>
<path d="M207.098 224.62C204.241 224.62 201.385 224.576 198.531 224.644C197.406 224.67 197.056 224.254 197.183 223.202C197.395 221.453 197.418 219.687 197.336 217.93C197.289 216.928 197.538 216.155 198.447 215.73C198.978 215.481 199.006 215.115 199.013 214.633C199.093 209.24 199.403 203.851 199.288 198.452C199.262 197.278 199.626 196.127 199.494 194.946C199.403 194.122 199.337 193.293 198.423 192.896C198.015 192.718 198.052 192.342 198.076 191.988C198.219 189.818 198.506 187.653 198.102 185.478C197.998 184.927 198.292 184.732 198.874 184.819C199.995 184.985 200.883 185.648 201.864 186.11C206.51 188.296 210.889 190.976 215.379 193.448C216.411 194.016 216.822 194.766 216.782 196.001C216.685 198.969 216.725 201.946 216.798 204.917C216.824 205.983 216.279 206.048 215.589 205.764C214.259 205.213 212.92 204.724 211.523 204.358C210.701 204.142 210.381 203.388 210.449 202.5C210.534 201.371 210.614 200.239 210.616 199.107C210.618 197.837 209.033 196.55 207.807 196.745C207.344 196.818 207.253 197.132 207.253 197.503C207.253 199.302 207.253 201.101 207.276 202.9C207.285 203.522 207.603 203.867 208.26 203.996C209.214 204.184 209.733 204.776 209.691 205.818C209.655 206.675 209.74 207.54 209.705 208.399C209.665 209.385 209.183 209.716 208.345 209.263C207.382 208.744 207.02 209.437 206.98 210.036C206.839 212.14 206.83 214.253 206.823 216.364C206.823 217.003 207.391 217.111 207.906 217.223C210.602 217.803 210.729 217.975 210.532 215.202C210.456 214.15 210.452 213.091 210.379 212.039C210.313 211.083 210.818 210.691 211.659 210.874C213.134 211.196 214.586 211.63 216.044 212.027C216.634 212.187 216.786 212.609 216.784 213.189C216.761 216.669 216.732 220.152 216.77 223.632C216.779 224.51 216.427 224.651 215.664 224.641C212.808 224.604 209.951 224.627 207.098 224.627V224.62Z" fill="#FEFEFE"/>
<path d="M90.3426 41.0214C89.7272 39.4317 89.1306 37.835 88.4894 36.257C88.1441 35.4023 87.7495 34.5663 87.3291 33.7445C87.0472 33.1926 87.3807 32.878 87.7495 32.7019C88.8675 32.1665 90.002 31.6546 91.167 31.2343C91.7496 31.0253 92.2099 31.1967 92.5129 31.9317C94.7631 37.4029 97.0767 42.8483 99.3621 48.3031C99.8083 49.3645 99.5922 49.712 98.4225 49.968C98.1242 50.0337 97.8165 50.13 97.5558 50.2873C96.2358 51.074 95.0379 50.9824 93.7766 50.0596C92.1723 48.8878 90.4647 47.8523 88.8088 46.7486C88.487 46.5326 88.1324 46.3213 87.9022 46.0231C87.6086 45.645 87.2633 45.3045 86.8429 45.5605C86.3825 45.8399 86.6691 46.38 86.817 46.7346C87.6109 48.6436 88.4495 50.5339 89.288 52.4265C89.7014 53.3611 89.5675 53.9106 88.4401 54.1877C87.5076 54.4178 86.6432 54.9226 85.7507 55.3148C85.1141 55.5942 84.7313 55.5308 84.4189 54.7747C82.3355 49.7261 80.2028 44.6963 78.07 39.6666C77.8422 39.1288 77.6026 38.5653 77.2315 38.1308C76.7265 37.5461 76.8862 37.3066 77.511 37.0507C78.5844 36.6139 79.6296 36.1138 80.7031 35.6747C81.4312 35.3764 81.9573 35.8977 82.4858 36.2429C84.7736 37.734 87.0402 39.258 89.3185 40.7631C89.5745 40.9322 89.8588 41.0614 90.1289 41.2093C90.1993 41.1459 90.2698 41.0848 90.3403 41.0214H90.3426Z" fill="#FEFEFE"/>
<path d="M145.756 45.8445C143.092 45.4007 140.029 45.0274 136.95 44.7714C135.621 44.6611 135.487 44.1914 135.679 42.9046C136.168 39.6242 136.525 36.3227 137.004 33.0399C137.347 30.6847 137.356 28.2896 137.887 25.9532C138.063 25.1783 138.42 24.8331 139.16 24.9434C142.479 25.4389 145.871 25.4906 149.108 26.4604C150.881 26.991 152.271 28.1088 152.64 30.0155C153.047 32.103 152.626 34.0238 150.719 35.2895C149.984 35.7779 150.212 36.0433 150.719 36.4706C153.451 38.7765 152.751 43.7594 149.751 45.025C148.598 45.5111 147.431 45.9455 145.753 45.8469L145.756 45.8445ZM141.674 39.3025C141.995 39.5843 141.194 40.3498 142.035 40.5611C143.01 40.8054 144.013 40.9509 145.014 41.0683C146.01 41.1858 146.907 40.5212 147.017 39.6782C147.116 38.9057 146.334 37.9594 145.411 37.8138C144.798 37.7175 144.161 37.7598 143.55 37.6541C141.946 37.3817 141.685 37.5766 141.674 39.3025ZM142.63 31.7367C142.778 32.1335 142.251 32.8145 142.923 33.0212C143.729 33.2677 144.588 33.3734 145.432 33.4579C146.338 33.5495 146.956 32.9812 147.2 32.2157C147.433 31.4855 146.813 31.0064 146.249 30.6472C145.601 30.2315 144.84 30.2808 144.105 30.2127C142.982 30.1094 142.345 30.4382 142.632 31.7367H142.63Z" fill="#FEFEFE"/>
<path d="M124.372 33.1175C124.56 35.0195 124.142 36.5928 122.947 37.9312C122.329 38.6216 122.352 39.3026 122.937 40.0234C123.846 41.1459 124.734 42.2894 125.601 43.4424C126.223 44.2689 126.113 44.6306 125.124 44.7621C123.811 44.9358 122.477 44.9147 121.171 45.1894C120.6 45.3092 120.255 44.8912 119.898 44.5061C118.888 43.4189 118.387 41.9419 117.19 40.9956C116.877 40.749 116.649 40.4085 116.191 40.6293C115.754 40.8406 115.536 41.2351 115.595 41.6813C115.712 42.5665 115.67 43.4659 115.98 44.3347C116.356 45.389 115.752 46.1099 114.615 46.1475C113.64 46.1804 112.666 46.2578 111.696 46.3682C111.026 46.4433 110.78 46.2743 110.648 45.5393C109.748 40.5377 109.328 35.4727 108.583 30.4523C108.459 29.6163 108.177 28.8203 108.1 27.9632C108.02 27.0709 108.447 26.5895 109.147 26.5848C111.933 26.559 114.629 25.7137 117.424 25.7771C121.521 25.8687 124.234 28.4822 124.372 32.5586C124.379 32.7934 124.372 33.0282 124.372 33.1175ZM116.692 30.8585C115.078 30.835 114.409 31.1779 114.399 32.035C114.369 34.7988 114.763 35.8249 115.872 35.8648C117.352 35.9165 119.12 34.5287 119.09 33.3429C119.059 32.1923 117.789 30.8773 116.694 30.8609L116.692 30.8585Z" fill="#FEFEFE"/>
<path d="M193.867 66.2549C194.05 64.2495 194.231 62.4203 194.374 60.5911C194.405 60.1919 194.611 59.6424 194.149 59.4146C193.674 59.1798 193.146 59.3841 192.713 59.6847C191.757 60.3492 191.191 61.3495 190.576 62.2935C190.362 62.6222 190.111 62.904 189.867 63.2022C189.437 63.7282 189.019 63.6507 188.577 63.3079C187.706 62.6293 186.825 61.9553 186.001 61.2227C185.46 60.7413 185.049 60.3656 185.803 59.4757C188.441 56.362 190.794 53.0205 193.183 49.7073C194.266 48.2068 195.563 46.8636 196.58 45.3045C196.946 44.7432 197.359 44.5272 197.994 45.1072C198.884 45.922 199.873 46.6265 200.824 47.3732C201.345 47.7841 201.442 48.1363 200.939 48.7117C199.941 49.8552 199.039 51.081 198.111 52.2856C197.879 52.5885 197.524 52.9618 197.785 53.3235C198.034 53.6686 198.485 53.5489 198.858 53.3587C200.648 52.4429 202.665 52.2363 204.533 51.5553C205.491 51.2054 206.294 51.5741 207.048 52.086C207.946 52.6965 208.817 53.3446 209.681 53.9997C209.984 54.2299 210.313 54.4858 210.231 54.9578C210.135 55.5049 209.684 55.249 209.385 55.3288C206.717 56.0403 204.039 56.726 201.376 57.4562C200.413 57.7192 199.976 58.3392 199.913 59.4217C199.72 62.6974 199.396 65.9637 199.114 69.2323C199.09 69.5024 199.032 69.7748 198.954 70.0354C198.787 70.606 198.48 70.8761 197.965 70.3665C196.826 69.2394 195.511 68.3283 194.238 67.3702C193.733 66.9898 193.949 66.5108 193.869 66.2525L193.867 66.2549Z" fill="#FEFEFE"/>
<path d="M71.4604 64.1861C69.8985 61.784 68.3436 59.3113 66.7041 56.8951C64.8203 54.1195 63.2278 51.1467 61.1491 48.5074C60.3482 47.4906 61.0481 47.014 61.7222 46.5725C63.2137 45.591 64.771 44.708 66.2696 43.7359C67.8714 42.698 69.4452 41.6132 71.0189 40.5306C71.5168 40.1878 71.8879 40.014 72.2872 40.6997C72.7758 41.5404 73.4123 42.2941 73.9244 43.123C74.5773 44.1821 74.42 44.6141 73.3301 45.2787C71.8668 46.1733 70.3964 47.0633 68.9754 48.0213C67.9137 48.7375 67.9466 49.5899 68.9402 50.3507C69.2948 50.6231 69.5297 50.6536 69.9361 50.3531C71.2843 49.3551 72.7311 48.4863 74.0582 47.4625C74.8404 46.8566 75.2514 47.0492 75.6977 47.7889C76.1816 48.5896 76.6725 49.3974 77.2597 50.1229C77.7553 50.7382 77.5627 51.0833 77.0013 51.4262C75.6695 52.2386 74.3612 53.0934 72.9989 53.8542C72.0946 54.359 71.8762 55.0682 72.3107 55.8994C72.7922 56.8223 73.6378 56.8129 74.4153 56.301C75.8786 55.3359 77.3301 54.345 78.7206 53.2789C79.5286 52.659 80.1769 52.457 80.804 53.4292C81.3748 54.3144 81.9573 55.1926 82.4999 56.092C82.9203 56.7894 82.3496 57.0594 81.8868 57.353C78.9931 59.201 76.0947 61.0419 73.208 62.9017C72.6278 63.2751 72.0899 63.7189 71.4557 64.1861H71.4604Z" fill="#FEFEFE"/>
<path d="M199.215 71.4161C200.03 70.9535 200.657 70.4181 201.228 69.8287C205.033 65.8931 209.449 62.5987 213.134 58.534C213.604 58.015 214.123 58.0855 214.534 58.588C217.068 61.6735 219.939 64.4561 222.597 67.4289C222.846 67.7083 223.065 67.9149 222.644 68.2672C221.778 68.9927 220.949 69.7676 220.11 70.5284C219.535 71.0521 219.034 71.1624 218.473 70.451C217.625 69.3778 216.728 68.3423 215.809 67.3302C215.394 66.87 214.863 66.5178 214.407 66.0927C213.686 65.4212 213.15 65.8509 212.599 66.3487C211.929 66.9522 212.404 67.3866 212.805 67.814C213.984 69.0679 215.152 70.3359 216.375 71.5429C216.904 72.0641 216.897 72.3624 216.305 72.8132C215.563 73.3791 214.835 73.992 214.222 74.6918C213.536 75.4737 213.148 75.1731 212.603 74.5462C211.579 73.365 210.449 72.2778 209.423 71.0967C208.855 70.4439 208.385 70.4345 207.751 70.9769C207.088 71.5452 206.776 72.1698 207.422 72.879C208.709 74.2949 209.923 75.7813 211.368 77.0493C212.498 78.0379 212.495 78.1976 211.368 79.2073C210.931 79.5994 210.496 79.9939 210.038 80.3602C208.335 81.7292 208.89 81.8913 207.295 80.1959C204.697 77.4368 202.142 74.6354 199.57 71.8505C199.464 71.7378 199.375 71.611 199.22 71.4184L199.215 71.4161Z" fill="#FEFEFE"/>
<path d="M37.8982 69.7678C39.089 70.1435 40.2799 70.5192 41.4707 70.8973C46.0321 72.3508 50.5912 73.8113 55.1526 75.2578C55.5589 75.387 55.9911 75.4386 56.4115 75.5208C57.4239 75.7157 57.5695 76.082 56.9377 76.9344C56.2894 77.8126 55.6317 78.6838 54.9576 79.5432C54.4315 80.2148 53.8678 80.4895 52.9376 80.1091C50.6781 79.1793 50.5865 79.2685 49.1725 81.3067C48.7051 81.9783 48.186 82.617 47.6646 83.2486C47.0398 84.0071 46.967 84.6693 47.6223 85.5311C49.0363 87.3861 48.9752 87.4143 47.479 89.2247C47.0092 89.793 46.4925 90.3683 46.1989 91.0305C45.6915 92.1717 45.3134 91.6316 44.9235 91.0188C43.0844 88.1235 41.2617 85.2188 39.4296 82.3188C37.8465 79.8133 36.261 77.3125 34.6709 74.8093C34.3421 74.2904 34.1283 73.7902 34.6051 73.2266C35.5118 72.1559 36.402 71.0687 37.2992 69.9909C37.4589 69.8007 37.6445 69.6739 37.8958 69.7678H37.8982ZM41.9146 76.0421C41.2946 76.0844 41.5412 76.4202 41.6351 76.6902C41.964 77.6318 42.7438 78.2752 43.2558 79.0971C43.9605 80.2265 44.0309 80.2218 44.8695 79.2239C45.1184 78.928 45.3345 78.5993 45.5295 78.2658C45.6775 78.0122 45.6962 77.6835 45.3979 77.5473C44.2353 77.0189 43.0562 76.5305 41.9123 76.0421H41.9146Z" fill="#FEFEFE"/>
<path d="M170.125 36.4683C170.428 40.3662 170.529 44.2689 170.543 48.1786C170.548 49.0803 170.667 49.9679 170.898 50.8414C171.121 51.6821 170.588 52.3537 169.749 52.147C168.427 51.823 167.111 51.4473 165.862 50.879C165.22 50.5878 165.267 50.0337 165.249 49.4889C165.192 47.7559 164.345 46.6546 162.707 46.185C161.92 45.9572 161.103 45.7811 160.375 45.4289C159.628 45.0696 159.219 45.3044 158.825 45.9079C156.946 48.7915 157.286 48.2561 154.512 47.2816C151.759 46.3165 151.842 46.3564 153.723 43.9871C156.971 39.8943 160.119 35.7215 163.306 31.5817C163.426 31.4267 163.567 31.2882 163.666 31.1238C164.375 29.9286 165.272 29.4144 166.602 30.2362C166.893 30.417 167.243 30.518 167.579 30.6143C169.185 31.0761 169.987 32.1688 169.984 33.8923C169.984 34.322 170.024 34.7494 170.047 35.1791C170.071 35.6088 170.099 36.0362 170.125 36.4659V36.4683ZM165.38 39.4199C165.399 39.1381 165.455 38.6333 165.462 38.1261C165.465 37.8842 165.641 37.5437 165.265 37.4263C165.009 37.3465 164.816 37.5625 164.68 37.7363C163.957 38.6544 163.252 39.5843 162.548 40.5165C162.308 40.8335 162.378 41.019 162.759 41.2257C164.849 42.3598 165.253 42.1602 165.359 39.8755C165.364 39.798 165.366 39.7205 165.38 39.4176V39.4199Z" fill="#FEFEFE"/>
<path d="M182.933 37.1586C185.103 37.1023 187.173 38.159 189.023 39.6947C189.857 40.3874 190.569 41.2233 191.346 41.9841C191.776 42.4021 191.762 42.7356 191.3 43.1488C190.426 43.9284 189.561 44.7268 188.765 45.5839C188.225 46.1662 187.882 45.9432 187.487 45.4759C186.806 44.6705 186.144 43.8462 185.301 43.1934C184.702 42.7285 184.063 42.3458 183.271 42.4139C182.846 42.4514 182.257 42.1438 182.059 42.7849C181.892 43.3273 181.998 43.8439 182.454 44.2783C183.532 45.2998 184.659 46.286 185.632 47.4037C187.649 49.7167 187.891 51.4966 186.656 53.826C185.014 56.9256 181.77 58.5458 177.871 56.9162C175.414 55.89 173.514 54.2158 171.802 52.2527C171.266 51.6375 171.219 51.1655 171.929 50.6231C172.64 50.0806 173.324 49.4748 173.911 48.8032C174.595 48.0189 175.05 47.8851 175.741 48.8408C176.511 49.9092 177.394 50.9236 178.564 51.6093C179.034 51.884 179.506 52.1635 180.004 52.3772C180.5 52.5885 180.986 52.5814 181.376 52.0907C181.78 51.5811 181.58 51.1115 181.284 50.6888C180.561 49.6556 179.595 48.8432 178.668 48.0096C177.176 46.6664 176.215 45.133 176.377 43.0197C176.61 40.0046 179.584 37.1727 182.928 37.161L182.933 37.1586Z" fill="#FEFEFE"/>
<path d="M47.5072 58.9074C48.0474 58.8275 48.4702 59.1563 48.9024 59.4052C51.4649 60.8845 54.0134 62.3874 56.5713 63.8714C56.8977 64.0616 57.3041 64.3974 57.6259 64.1767C58.0228 63.9066 57.687 63.4276 57.5625 63.1059C56.3481 59.9899 54.9647 56.9467 53.4661 53.9574C53.2265 53.4784 53.1373 53.2459 53.6376 52.835C54.5959 52.046 55.4227 51.0997 56.3317 50.2497C57.1138 49.517 57.4145 49.6016 57.8208 50.5995C59.761 55.3663 61.7786 60.1003 63.8291 64.8201C64.2871 65.8768 64.7968 66.9193 65.2173 68.0019C65.4615 68.6312 65.4122 69.021 64.9612 69.4436C64.0217 70.3265 63.1057 71.2329 62.1474 72.0947C61.7199 72.4798 61.2454 72.5949 60.6535 72.2591C55.0539 69.0914 49.4144 65.9989 43.6457 63.1529C42.7273 62.6997 42.88 62.4461 43.5001 61.9271C44.5383 61.0607 45.56 60.173 46.5536 59.2573C46.8425 58.9919 47.1337 58.9003 47.5072 58.9074Z" fill="#FEFEFE"/>
<path d="M225.461 71.1392C228.26 74.3397 230.24 78.0874 232.733 81.4735C232.848 81.6308 232.942 81.8046 233.059 81.9619C234.776 84.2631 234.222 83.817 232.46 85.1131C231.957 85.4818 231.396 85.78 230.94 86.198C230.271 86.8085 229.874 86.5667 229.468 85.9139C228.89 84.9863 228.263 84.0893 227.666 83.1712C227.389 82.7438 227.088 82.5419 226.628 82.9293C223.821 85.2986 220.631 87.1255 217.644 89.2389C217.198 89.5535 216.749 89.8752 216.35 90.2439C215.283 91.2278 215.128 91.2043 214.301 90.0091C213.733 89.1872 213.343 88.2479 212.591 87.5435C211.767 86.7733 212.157 86.205 212.937 85.6884C216.084 83.6056 219.222 81.5063 222.363 79.4165C222.558 79.2873 222.769 79.1793 222.957 79.0408C224.091 78.2119 224.141 77.8878 223.344 76.7442C222.771 75.92 221.651 75.2132 221.778 74.2317C221.909 73.222 223.269 73.006 224.03 72.3673C224.479 71.9915 224.916 71.6064 225.456 71.1415L225.461 71.1392Z" fill="#FEFEFE"/>
<path d="M97.5463 30.1258C97.5158 29.6186 97.5745 29.3368 98.0067 29.3134C99.2727 29.2429 100.41 28.6582 101.631 28.4093C102.481 28.2379 102.963 28.2942 103.238 29.412C104.616 35.0171 106.143 40.5846 107.627 46.1638C107.893 47.1571 107.581 47.6056 106.573 47.8428C105.647 48.0612 104.687 48.0565 103.811 48.6271C103.181 49.0357 102.451 48.6012 102.293 47.871C101.488 44.1726 100.445 40.5353 99.3784 36.912C98.7654 34.8316 98.3543 32.7018 97.6896 30.6401C97.6192 30.4217 97.5651 30.1963 97.5463 30.1258Z" fill="#FEFEFE"/>
<path d="M186.207 175.304C187.069 174.682 188.093 174.82 189.019 174.642C191.659 174.13 194.299 173.613 196.899 172.925C197.789 172.691 198.642 172.23 199.443 171.758C202.085 170.206 202.513 167.75 200.58 165.348C198.574 162.856 195.875 161.431 192.892 160.475C189.153 159.278 185.235 158.994 181.394 158.31C178.684 157.827 175.966 157.16 173.726 155.669C170.768 153.701 170.381 151.139 173.542 148.699C175.33 147.321 177.589 146.94 179.783 146.753C185.355 146.278 190.933 145.886 196.516 145.553C200.655 145.306 204.803 145.229 208.944 145.024C213.667 144.79 218.395 144.599 223.074 143.841C224.885 143.547 226.696 143.244 228.488 142.852C229.245 142.688 230.05 142.315 230.252 141.474C230.478 140.539 229.811 139.922 229.111 139.464C227.124 138.158 224.838 137.55 222.6 136.874C219.088 135.81 215.53 134.892 212.209 133.276C210.719 132.553 209.343 131.677 208.185 130.487C206.675 128.932 206.877 126.676 208.375 125.126C212.528 120.833 217.89 119.406 223.499 118.485C225.122 118.22 226.741 117.971 228.394 117.966C229.66 117.962 230.882 118.229 232.075 118.568C233.592 118.997 233.949 120.305 232.963 121.512C231.915 122.792 230.428 123.428 228.972 124.065C227.748 124.6 226.642 125.218 225.75 126.258C225.061 127.059 225.136 127.777 225.571 128.606C226.597 130.567 228.324 131.753 230.156 132.847C234.273 135.305 238.696 137.144 243.02 139.182C244.681 139.964 246.32 140.798 247.828 141.854C248.568 142.373 249.28 142.927 249.754 143.716C251.478 146.577 249.94 149.047 247.098 150.287C243.727 151.754 240.068 151.902 236.477 152.442C231.459 153.196 226.309 152.722 221.385 154.185C220.636 154.408 219.913 154.668 219.241 155.082C217.425 156.197 217.085 158 218.409 159.708C219.882 161.602 222.01 162.603 224.117 163.465C229.113 165.505 234.203 167.313 239.232 169.274C242.407 170.511 245.55 171.81 247.939 174.428C250.696 177.448 250.504 181.353 248.195 184.384C244.014 189.874 238.198 192.474 231.598 193.679C229.245 194.108 226.868 194.275 224.498 194.552C223.147 194.709 222.085 194.329 221.064 193.491C218.287 191.213 215.253 189.334 212.176 187.479C206.874 184.283 201.343 181.588 195.671 179.16C193.059 178.042 190.435 176.929 187.67 176.208C187.104 176.06 186.567 175.877 186.2 175.316L186.207 175.304Z" fill="#FEFEFE"/>
<path d="M48.2588 193.204C48.7521 192.225 50.8778 189.828 51.223 189.513C45.3087 184.92 40.7731 179.585 38.079 172.782C38.3867 172.784 38.6357 172.843 38.786 172.998C39.6481 173.89 40.6792 174.884 41.8583 174.691C43.0867 174.492 44.1625 174.611 45.3064 174.865C45.5201 174.912 45.8301 174.724 46.0392 174.567C48.0521 173.045 50.4033 172.374 52.8132 171.838C53.5366 171.676 54.2882 171.855 55.0093 171.547C55.5801 171.303 55.6975 171.068 55.4016 170.509C54.96 169.671 54.3798 168.948 53.7973 168.213C52.7004 166.834 51.317 165.735 50.0486 164.439C50.7556 163.852 51.4955 163.843 52.1367 163.58C53.2289 163.129 54.1567 162.624 54.1309 161.192C54.1168 160.457 54.5208 159.813 55.0281 159.228C55.8502 158.275 56.8555 157.519 57.7175 156.617C58.0886 156.23 58.5983 155.565 57.8021 155.323C56.125 154.814 57.1186 153.828 57.4122 153.205C58.1849 151.58 58.5819 149.885 58.852 148.133C59.0258 147.002 58.4644 146.616 57.4544 146.701C56.724 146.762 56.1321 146.762 55.6858 145.973C55.4415 145.543 54.8073 145.348 54.2107 145.618C53.5836 145.903 53.0128 145.865 52.5031 145.33C52.0334 144.837 51.3992 144.719 50.765 144.827C49.2453 145.083 47.7562 145.417 46.3821 146.203C45.3627 146.788 44.4115 147.469 43.4156 148.082C42.7908 148.467 42.4455 148.26 42.5207 147.506C42.5465 147.236 42.6616 146.973 42.678 146.701C42.8143 144.613 42.9622 142.528 40.8154 141.192C40.4678 140.976 40.3175 140.546 40.1977 140.105C39.4179 137.24 37.9428 134.803 35.594 132.941C35.3849 132.774 35.096 132.52 34.8987 132.563C33.6562 132.828 33.1865 131.936 32.5828 131.163C32.0543 130.487 31.4295 129.89 30.8682 129.238C30.14 128.392 29.5364 128.543 28.8576 129.346C28.0355 130.32 27.4835 131.426 27.0936 132.61C26.948 133.053 26.8047 133.514 26.3561 133.546C25.2639 133.626 24.7918 134.469 24.4113 135.211C23.1547 137.66 22.2598 140.229 22.45 143.057C22.4876 143.613 22.4265 144.048 21.7571 144.348C21.09 144.649 20.7636 145.355 21.0478 146.14C21.5481 147.528 21.5575 149.075 22.4195 150.352C22.5745 150.583 22.8376 150.911 22.5111 151.191C22.2668 151.397 21.992 151.188 21.7477 151.083C19.3331 150.035 16.7894 149.765 14.1892 149.742C13.3061 149.732 12.5779 150.141 12.1857 150.752C11.7136 151.489 11.1851 151.604 10.4382 151.583C9.93551 151.569 9.32717 151.627 9.31542 152.325C9.30133 153.13 8.85271 153.252 8.18799 153.325C6.28545 153.534 6.05292 154.034 6.95251 155.758C7.78399 157.352 8.62252 158.94 9.79458 160.325C10.0882 160.673 10.5251 161.201 10.0389 161.551C8.70238 162.514 9.80633 162.896 10.4264 163.272C11.6595 164.016 12.9561 164.657 14.2268 165.338C14.7318 165.608 15.1311 165.874 14.9714 166.599C14.7858 167.449 15.2955 167.9 16.0988 168.067C16.8669 168.227 17.6349 168.368 18.4241 168.342C18.7624 168.33 19.1664 168.173 19.3895 168.553C19.6056 168.924 19.3284 169.236 19.1194 169.499C17.743 171.237 16.9961 173.299 16.1012 175.283C15.6314 176.328 15.932 176.753 17.0477 176.711C17.2803 176.701 17.5128 176.647 17.7453 176.628C20.5545 176.405 23.3614 176.147 26.0672 177.284C26.7272 177.561 27.352 177.462 27.8852 176.894C28.1576 176.603 28.4066 176.156 28.9492 176.342C30.4055 176.84 31.1007 175.825 31.9251 174.928C32.6063 174.189 32.6979 173.155 33.4049 172.425C33.9475 171.864 34.1142 172.014 34.3068 172.613C34.5417 173.348 34.7296 174.102 35.0232 174.813C36.1835 177.626 37.6586 180.266 39.54 182.67C39.7209 182.9 40.0474 183.152 39.8242 183.485C39.6598 183.729 39.3145 183.649 39.0538 183.626C36.9469 183.438 34.8353 183.492 32.7237 183.483C32.106 183.48 31.5071 183.363 30.9903 182.903C27.9744 180.226 24.3925 179.395 20.4394 179.599C14.4758 179.906 7.98834 183.823 6.15626 189.813C4.85502 194.064 6.23377 199.335 9.37179 202.512C11.2344 204.398 13.4094 205.816 15.5891 207.263C16.9561 208.169 18.2221 209.216 19.11 210.653C19.7301 211.654 19.7348 212.626 19.1805 213.643C17.851 216.078 15.9226 216.503 13.7359 214.779C13.1064 214.281 12.4394 214.103 11.8052 214.516C11.0817 214.988 10.9314 215.791 11.1639 216.613C11.3049 217.109 11.6478 217.489 12.026 217.846C13.9896 219.701 16.1199 219.978 18.5721 218.795C22.7483 216.78 24.6297 211.698 21.487 207.974C19.8734 206.06 17.9168 204.602 15.8592 203.238C14.5885 202.395 13.3178 201.559 12.2491 200.448C8.35711 196.405 8.04941 190.692 11.8287 187.003C15.6173 183.304 20.3032 182.386 25.4189 183.516C25.9497 183.633 26.6403 183.8 26.7624 184.33C26.901 184.932 26.1776 185.169 25.7571 185.467C23.7019 186.93 22.4101 188.827 22.2386 191.398C22.0765 193.819 22.8798 195.883 24.9773 197.107C27.1805 198.391 29.5317 198.175 31.6268 196.724C34.8541 194.486 35.1994 191.577 34.3209 188.05C34.0743 187.064 34.2293 186.716 35.2205 186.791C36.3879 186.878 37.56 186.93 38.7203 187.075C41.7526 187.451 44.6064 188.188 46.8918 190.471C48.2941 191.873 48.6816 192.173 48.2565 193.209L48.2588 193.204ZM29.1888 193.988C28.4935 194.331 27.8077 194.756 27.002 194.205C26.1259 193.603 25.6491 192.807 25.7031 191.737C25.7924 190.004 27.9368 187.674 29.6609 187.407C30.1306 187.334 30.4031 187.578 30.5769 187.961C30.9504 188.785 31.1148 189.661 31.2064 190.544C31.197 192.091 30.6098 193.289 29.1888 193.991V193.988Z" fill="#FEFEFE"/>
</g>
<defs>
<clipPath id="clip0_3090_311">
<rect width="256" height="256" fill="white"/>
</clipPath>
</defs>
</svg>
