<svg width="256" height="256" viewBox="0 0 256 256" fill="none" xmlns="http://www.w3.org/2000/svg">
<path d="M0 144.574H3.20316L3.19996 145.859C6.03512 145.984 8.79029 145.096 11.6415 145.176L12.0223 144.907C11.8847 143.062 13.5422 143.334 15.0302 143.308L16.3358 154.672L16.0158 155.309C15.0686 155.406 14.0926 155.511 13.123 155.473V154.185L4.67834 154.81L4.15995 156.754C3.09756 156.306 2.35197 156.568 1.28318 156.754L0.959988 150.667C1.67038 150.773 2.65917 150.504 3.29916 150.661C3.49436 150.709 4.55994 153.067 6.53752 151.664L6.72632 148.742C5.11674 148.678 3.78875 148.537 3.32796 150.366L0.643192 150.347L0.00319996 146.499V144.577L0 144.574ZM12.4382 148.146L9.73748 148.396L9.88788 151.148L12.6142 151.023L12.7966 149.7H15.3566L12.7742 149.238L12.435 148.146H12.4382Z" fill="#C61622"/>
<path d="M0 133.682L12.1278 131.09L12.1566 129.514H15.0366V135.123C13.859 135.953 11.9967 135.341 11.3567 134.008C10.4287 134.361 10.1887 136.635 11.0399 136.882C12.0478 137.174 11.9838 136.011 12.3806 135.914C13.1102 135.745 14.2334 136.043 15.0366 135.921V141.687H11.8367L11.5327 139.909L0 137.206V133.682Z" fill="#C61622"/>
<path d="M134.078 9.37927C135.419 11.0868 137.173 11.9294 136.635 14.5051L133.438 14.188V12.5829H130.558L130.286 21.031L130.766 21.5116L133.262 21.5756L133.752 20.0923L136.321 20.2717C136.968 25.1541 129.79 26.4036 127.662 22.6937C127.528 22.4566 127.422 22.3253 127.368 22.0273C127.086 20.5601 127.24 12.8264 127.864 11.6475C128.28 10.8626 129.518 10.2731 129.918 9.37927L134.078 9.37927Z" fill="#C61622"/>
<path d="M65.8232 43.2453C65.5672 43.5368 61.8968 45.9396 61.6152 45.9203L59.8392 43.6585L60.6328 46.8654L54.7161 43.6617C55.4009 46.2503 58.2617 45.5231 59.5097 47.6663L54.5945 51.3249L52.8057 49.2682C53.0329 48.9414 53.6345 48.6402 53.7049 48.2622C53.9097 47.205 49.497 42.6045 48.9626 41.2398C48.3674 40.8649 48.201 41.8164 47.4618 41.5121C46.889 41.2782 45.6858 40.032 45.8042 39.3849L49.4362 36.729L55.6697 40.1377L54.1049 32.9871L57.4361 30.6068C58.5849 31.4814 59.8328 32.7469 58.3033 33.8874C58.2649 34.2974 62.812 40.2595 63.1864 40.4933C64.0472 41.0283 64.4568 39.8846 65.5928 41.2622C66.1176 41.8997 66.4376 42.5469 65.8168 43.2517L65.8232 43.2453ZM61.1192 43.0146C61.2184 42.8865 59.7336 40.5446 59.2025 40.4549L59.8424 43.3382L61.1192 43.0114V43.0146Z" fill="#C61622"/>
<path d="M80.639 19.4708C80.959 17.5806 83.4262 17.6799 84.7926 16.7477L85.7685 19.1697L84.7765 20.166C84.6773 20.6017 87.4709 27.5761 87.8357 27.9701C88.4757 28.6621 89.3653 27.8003 89.5861 27.9605L90.5813 30.6548C89.5285 30.9399 85.8965 33.1953 85.1093 32.6315L84.1718 30.3793C84.2742 29.966 85.5061 30.0269 85.1125 29.1298L83.8422 26.3587V33.4067L78.7254 28.6012C78.8342 29.1651 79.3654 30.972 79.6502 31.2827C80.063 31.728 82.7382 31.9138 82.2678 34.1628C82.207 34.4479 77.1734 36.5143 76.8342 36.2676L75.8423 33.4099C76.0759 33.1825 77.2662 33.8745 77.0902 32.9678C76.9142 32.0612 74.3991 26.2498 73.8583 25.3047C73.7431 25.0996 73.6599 24.8914 73.4455 24.7665L72.3159 25.263L71.0935 22.9372C70.9655 22.415 72.3191 22.0209 72.7511 21.8191C73.2631 21.5788 74.8695 20.8452 75.2983 20.9573L80.4886 26.0383C81.5414 26.0896 80.6454 25.388 80.6454 25.2406C80.6454 23.6035 80.399 20.9381 80.6454 19.474L80.639 19.4708Z" fill="#C61622"/>
<path d="M21.5997 85.9469C21.2605 85.9277 20.3037 84.9826 20.4797 86.2609C21.2477 86.2385 22.0253 87.1034 22.6365 87.1867C23.3629 87.286 23.6893 86.5492 24.4477 86.5812C24.8605 86.5973 26.4445 87.3597 26.5341 87.741L23.8429 92.9629C23.3661 92.5176 21.8397 92.1556 21.5741 91.7135C21.2125 91.1176 22.0349 90.4961 21.4525 89.9547C21.1997 89.7208 15.8718 86.9529 15.3406 86.7606C13.843 86.216 13.7086 87.1803 12.9598 87.2156C12.2622 87.2476 11.3663 86.2352 10.5567 86.2609L12.691 82.0897L20.1566 82.7433L15.4078 76.7716L17.283 72.8119C17.8078 73.2123 19.4238 73.6513 19.699 74.0998C19.9582 74.5226 19.5646 75.032 19.699 75.3908C20.099 76.4865 25.8749 78.6169 27.1005 79.5011L28.2524 78.6201L30.5852 79.8568L28.1565 84.9858C25.3245 84.2522 25.9709 81.1382 23.0429 80.8211L27.1997 85.7899C27.2509 86.8439 26.5501 85.9469 26.4029 85.9469C24.8189 85.9469 23.1773 86.0334 21.6029 85.9469H21.5997Z" fill="#C61622"/>
<path d="M212.161 51.988C213.069 51.3921 214.474 50.4983 214.999 49.5372C215.613 48.4127 214.596 46.6603 216.512 45.5935C217.418 46.3079 220.845 48.8516 220.724 49.848C220.666 50.3221 219.645 51.3889 219.181 51.5203C218.48 51.7189 218.4 51.1743 218.074 51.1454C216.884 51.0269 211.121 58.7221 209.485 59.3308L207.495 57.2837L209.917 48.7876C209.495 48.3519 206.717 51.5908 206.541 51.9944C206.458 52.1802 207.949 54.5125 205.223 55.15L200.964 51.1903C201.469 50.8315 202.26 49.5917 202.781 49.4763C203.303 49.361 203.796 49.8896 204.468 49.6045C204.753 49.4827 206.477 47.6182 206.884 47.1921C207.498 46.545 210.029 43.7578 209.937 43.1875L209.3 42.566L211.089 40.5093C211.805 40.3747 214.311 42.8063 214.41 43.5207L212.164 51.9944L212.161 51.988Z" fill="#C61622"/>
<path d="M255.037 125.352L252.33 125.371L251.978 124.365L248.314 124.545L251.677 126.944C252.522 127.274 251.994 125.829 252.15 125.663L254.998 125.701L255.994 131.429L253.021 131.439C252.384 130.263 249.066 127.79 247.853 127.905C247.085 127.979 245.139 129.808 244.627 130.462C243.088 132.426 244.147 133.15 240.634 132.714L240.314 126.944C242.333 126.72 244.125 127.851 245.431 125.823C244.874 125.003 244.138 124.926 243.197 125.019V126.307L240.32 126.627L239.69 120.873L242.547 120.543L243.021 122.062C244.311 121.613 250.771 121.706 251.469 121.136C251.642 120.992 251.622 119.938 251.875 119.617L254.25 119.342C254.582 119.4 254.675 119.758 254.717 120.06C254.944 121.639 254.886 123.715 255.037 125.349V125.352Z" fill="#C61622"/>
<path d="M239.741 92.2709C239.591 92.1748 239.808 91.659 239.52 91.7166C239.143 93.1871 236.631 94.6672 235.283 94.869C235.053 94.9043 232.419 94.1162 232.211 93.9848C231.386 93.469 229.242 87.4718 228.48 86.2736L231.207 85.0178L232.189 86.2448C233.111 85.7386 239.418 83.3615 239.626 83.0155C239.885 82.5862 239.475 81.5322 239.715 81.1798C239.789 81.0741 241.68 80.5358 242.051 80.1866C244.669 84.5564 248.326 90.4736 240.97 92.2132C240.576 92.3061 240.119 92.5175 239.738 92.2709H239.741ZM239.719 89.1089C240.279 89.4388 242.48 88.4457 242.512 88.0356C241.69 85.7995 241.12 84.9217 239.069 86.8022L239.719 89.1089ZM234.275 91.675C234.864 92.0466 236.554 91.2425 236.752 90.5249C236.835 87.9491 234.938 87.7281 233.299 89.3427L234.275 91.6718V91.675Z" fill="#C61622"/>
<path d="M38.3963 50.7001C37.8907 50.572 37.3947 51.2416 37.5899 51.6708C39.4235 53.9166 44.361 56.3001 44.7226 59.286C45.1418 62.7523 41.3723 65.4722 38.0859 64.3157L31.99 58.8631C31.3596 58.3473 30.6108 59.2924 30.2364 59.2699C29.9964 59.2539 27.3789 57.4054 28.47 56.707C30.7612 55.2942 33.8268 49.6429 35.8395 48.6049C36.5819 48.2205 37.9355 50.1395 38.3931 50.7001H38.3963ZM32.6428 53.2695C32.4988 54.1152 33.5196 54.3267 33.7724 54.8905C33.9996 55.3967 33.5964 55.8388 33.8908 56.3258C34.214 56.8608 38.4091 60.6731 39.0587 61.0992C40.2459 61.8777 41.6091 60.7885 41.6091 59.837C41.6091 58.8342 36.2939 54.945 35.3564 53.923L34.3964 54.8681L32.6396 53.2727L32.6428 53.2695Z" fill="#C61622"/>
<path d="M100.482 15.4631L99.2404 15.8283C98.5684 16.8823 101.938 23.6645 101.301 25.7276C100.604 27.983 98.5428 28.8993 96.3316 29.1011C95.4004 29.1876 93.394 28.1912 92.866 27.4128C91.8645 25.9327 91.0389 18.718 90.0245 18.3944C89.6213 18.2663 89.1061 18.4425 88.6869 18.3015L88.3189 15.4663L99.3332 12.6246L100.479 15.4599L100.482 15.4631ZM98.2164 25.372L96.1588 17.0553C95.7844 16.5812 93.3812 16.7894 93.4612 18.1317C93.5092 18.9711 95.154 25.2311 95.5252 25.7276L96.0916 25.9839L98.2196 25.372H98.2164Z" fill="#C61622"/>
<path d="M240.637 134.002L243.322 134.04C243.882 134.245 243.664 135.604 244.957 135.604H252.797V133.999H256L255.677 144.891L251.197 144.574V141.687L252.8 141.691L252.499 138.625L249.965 138.532L249.414 141.694H246.717L246.72 138.484H243.837V141.691H245.123V144.571H240.643V133.999L240.637 134.002Z" fill="#C61622"/>
<path d="M8.95988 104.852L8.30069 107.713L6.54392 108.036L6.07672 110.612L8.93429 110.913L9.63828 108.414L12.4798 108.696L11.9774 111.595C14.5854 113.04 15.331 112.038 15.363 109.337H14.0798L14.7262 106.13L18.8574 107.117L16.963 117.349L13.763 117.022L13.8974 115.392L5.41753 113.639L4.94073 114.809L2.26877 114.11L4.48314 103.887L8.95988 104.855V104.852Z" fill="#C61622"/>
<path d="M187.454 24.177C188.023 25.1445 185.156 33.6343 185.118 35.6173C185.095 36.6553 186.113 37.0173 186.148 37.405L184.932 39.7949L174.215 34.3743C174.091 34.1661 175.118 32.0869 175.358 31.9395C175.915 31.5999 176.583 32.3496 177.124 31.837L184.516 23.5107C185.646 22.6809 186.442 23.7157 187.454 24.177ZM182.34 33.4613C182.254 33.3139 180.34 32.5803 180.161 32.7661V35.6462C180.958 34.7395 181.022 34.464 182.401 34.6851C182.353 34.3038 182.523 33.772 182.34 33.4581V33.4613Z" fill="#C61622"/>
<path d="M35.5644 67.0933C36.0924 66.7634 38.3387 68.1217 38.0347 69.0508L31.5228 78.5721C31.0844 78.0242 30.0956 77.7007 29.734 77.156C29.1676 76.3007 29.8396 75.7689 29.414 74.9487C28.4829 73.1547 24.2493 69.4416 22.7325 67.5162C22.4637 67.1766 21.7597 66.3469 21.8141 65.9817C22.2781 65.3409 22.9789 63.8993 23.8269 63.8576C25.5997 63.7711 32.1692 67.6316 34.4828 67.9583C35.3692 68.3203 35.3788 67.2119 35.5644 67.0933ZM32.9564 70.2521C31.3372 70.0439 30.8412 71.0178 31.0396 72.4915C32.598 72.767 33.0396 71.6169 32.9564 70.2521Z" fill="#C61622"/>
<path d="M236.474 96.5189L236.775 97.6626L248.819 96.9482L250.237 100.027L240.327 105.979C239.779 108.11 239.389 108.36 237.13 108.696L233.591 97.3391L236.477 96.5189H236.474ZM239.319 100.722L238.096 100.7C237.77 102.087 237.904 103.583 239.674 103.247L239.319 100.722Z" fill="#C61622"/>
<path d="M147.141 11.0356L148.523 22.95L150.075 23.4818L149.742 26.3427L144.033 25.6859L144.014 22.8475C147.086 22.6456 145.384 20.6498 143.038 21.2328C142.59 22.3061 143.63 22.5591 143.672 22.7321C143.867 23.5683 143.557 24.8081 143.678 25.718L138.222 24.9363C137.505 24.4493 138.152 22.6553 138.27 21.9056L139.877 21.6781L144.161 10.9811L144.798 10.6511L147.147 11.0388L147.141 11.0356Z" fill="#C61622"/>
<path d="M225.184 54.3267C225.645 54.7015 227.37 57.0914 227.463 57.6777C227.556 58.264 227.197 60.2919 226.896 60.8173C223.312 63.2489 218.599 70.566 214.404 65.2768C212.845 63.3129 212.833 62.2717 213.738 59.901L220.8 54.0768C221.597 53.7116 224.487 53.7628 225.184 54.3267ZM222.615 56.8383C222.18 56.8768 216.688 61.4484 216.468 61.9258C216.064 62.8068 217.421 64.1683 218.023 64.1171C218.455 64.0786 224.634 58.9912 224.634 58.5555L222.615 56.8383Z" fill="#C61622"/>
<path d="M203.562 39.5258L204.167 39.3368C204.433 38.6096 202.442 37.0942 201.911 37.389L196.878 44.1455C197.476 44.9592 198.484 46.0004 199.533 45.2892C201.457 43.9853 199.879 43.0178 200.039 42.3002C200.106 41.9991 201.188 40.535 201.476 40.4837L204.801 43.1684C204.82 43.8764 202.113 47.3235 201.437 47.8297C197.87 50.5048 192.852 46.4746 194.049 42.6878C194.19 42.2393 199.319 35.4764 199.69 35.1881C201.799 33.5638 204.842 34.5826 206.401 36.4471C207.482 37.7446 207.741 42.438 205.53 41.5025C205.098 41.3199 203.265 39.9775 203.559 39.529L203.562 39.5258Z" fill="#C61622"/>
<path d="M66.396 25.5482C67.1672 25.5289 69.0071 26.1504 69.5799 26.6983C69.9895 27.0923 74.0567 34.3614 74.1719 34.9189C75.0519 39.2086 69.4647 42.1944 66.3896 39.1798C65.8008 38.6031 61.9768 31.9523 61.8328 31.2443C61.2728 28.5244 63.7624 25.609 66.396 25.5417V25.5482ZM66.78 28.6397L64.716 30.0365L68.9463 37.5363L71.3175 35.8704C71.2855 35.4827 67.82 29.4887 67.4744 29.1202C67.2696 28.9024 67.2024 28.5372 66.7768 28.6397H66.78Z" fill="#C61622"/>
<path d="M6.07992 117.666L5.75993 120.867L4.66554 120.575C4.15675 120.671 3.70875 123.346 4.14715 123.606L12.787 124.375L13.075 122.373C12.9982 122.027 12.6014 121.677 12.259 121.575C9.65108 120.806 10.4159 122.53 9.72468 122.773L7.04311 122.469L7.8911 117.958C12.5374 118.797 16.7806 117.836 15.9774 124.202C15.6894 126.473 13.875 127.639 11.6767 127.617C10.0895 127.601 3.35356 126.8 2.39677 125.999C-0.918389 123.228 1.39198 116.654 6.08312 117.663L6.07992 117.666Z" fill="#C61622"/>
<path d="M159.688 18.3399L159.633 16.7894L157.313 16.1262L156.456 18.8045C159.428 19.4516 161.592 20.4031 161.243 23.9207C160.548 30.9272 150.945 29.1523 152.148 22.8219L155.198 23.1583C154.203 24.9651 156.388 25.5258 157.793 24.885L158.408 22.6905C158.379 22.431 155.723 21.9665 155.217 21.691C153.06 20.5152 153.07 16.5651 154.219 14.7262C154.411 14.4219 156.859 12.9354 157.294 12.9065C157.7 12.8809 160.894 13.8004 161.262 14.0374C162.376 14.7518 163.681 17.9972 162.088 18.9134L159.688 18.3367V18.3399Z" fill="#C61622"/>
<path d="M230.762 68.6887L231.671 68.1697L230.068 66.2283L227.978 67.0356C227.351 68.0031 229.248 69.1372 229.434 70.0951C230.186 74.0292 225.767 77.4667 222.224 75.3876C221.613 75.0288 220.029 72.6324 219.898 71.9276C219.373 69.1244 222.285 65.3921 223.639 69.8292L222.749 70.9985L224.032 73.1066L226.42 71.8507C226.877 71.1267 225.149 69.7139 224.973 68.7912C224.49 66.2251 226.346 63.6013 228.797 63.0118C233.245 61.9418 236.957 68.961 232.477 71.2228C231.779 71.2292 230.426 69.2461 230.762 68.6887Z" fill="#C61622"/>
<path d="M252.384 109.423C252.829 109.936 253.498 112.922 253.43 113.63C253.373 114.238 252.003 116.632 251.52 116.865C249.354 117.903 249.469 116.205 249.069 114.61C250.675 113.572 250.47 112.627 249.734 110.923L247.043 111.592C247.018 112.665 247.686 113.716 247.536 114.799C247.014 118.509 242.045 119.829 239.517 117.343C236.989 114.857 237.805 109.404 241.882 109.692L242.547 112.518L241.255 113.066L241.632 115.382C242.336 115.408 244.192 115.725 244.451 114.892C243.831 112.861 243.811 109.939 245.952 108.725C246.333 108.51 249.36 107.773 249.718 107.815C249.946 107.841 252.227 109.237 252.387 109.423H252.384Z" fill="#C61622"/>
<path d="M114.875 10.02L115.163 12.8681C111.759 14.3802 111.311 19.1633 111.995 22.5175L113.567 22.5496C115.282 27.1404 111.179 25.2919 108.344 26.3203C107.49 26.1184 107.935 23.8631 107.835 23.155L109.125 22.9917C108.802 21.7166 108.856 20.4704 108.411 19.2209C107.906 17.7985 105.055 14.1431 103.365 14.8319L102.719 11.9486L108.799 10.9843C109.064 11.2534 108.2 13.2333 109.439 12.9065L109.119 10.9875L114.879 10.0232L114.875 10.02ZM110.399 13.8676H108.479C108.405 16.3473 110.344 16.3697 110.399 13.8676Z" fill="#C61622"/>
<path d="M173.771 23.1422L173.755 21.2296L172.516 21.2744C172.046 23.5074 170.369 26.0062 169.995 28.1976C169.62 30.3889 170.849 29.2419 170.881 29.7257L169.911 32.766L164.168 30.3664L165.16 28.0021L167.009 27.9284L169.595 19.6309C168.555 19.1792 167.921 20.4511 167.47 20.5408C167.271 20.5824 165.38 19.8072 165.246 19.6406L166.711 15.5975L177.783 19.6149L176.324 23.658L173.771 23.139V23.1422Z" fill="#C61622"/>
<path d="M13.4302 90.7684L12.7711 93.6036L10.8831 93.6389C10.8511 94.1611 10.7679 94.3789 11.2159 94.7441C11.6095 95.0677 19.219 97.8004 19.5198 97.4833V96.1986L22.2717 97.1501L20.4766 102.93C20.0542 102.648 18.1054 102.129 17.9774 101.911C17.7438 101.513 18.1694 100.684 17.6094 100.197C17.3214 99.9469 10.8159 97.8293 10.3679 97.8068C8.07351 97.6979 10.2399 99.178 10.2783 99.5592C10.3839 100.639 9.83349 101.331 9.59669 102.286L5.57755 100.697L9.2863 89.1473L13.4334 90.7652L13.4302 90.7684Z" fill="#C61622"/>
<path d="M255.36 147.778L253.766 159.814L249.597 159.634V156.428H251.52L251.533 155.351C251.382 154.698 243.927 154.15 242.736 154.166L242.384 155.172L239.36 155.149L240.323 149.062L243.2 149.383V150.984C245.386 150.741 249.456 152.285 251.35 151.952C251.766 151.878 252.282 151.625 252.157 151.151L250.858 150.469L250.877 147.46L255.36 147.781V147.778Z" fill="#C61622"/>
<path d="M199.038 30.847C199.121 30.9559 198.148 33.285 198.03 33.3555C197.614 33.6053 196.718 33.2017 196.222 33.474C195.87 33.6694 192.087 39.971 192.039 40.3715C191.953 41.0571 192.596 41.355 192.503 41.7523C192.446 42.0086 191.249 43.7385 191.041 43.8379L186.273 41.0571C185.905 40.4324 187.863 37.2671 188.958 38.7857L193.914 31.3211L192.631 30.9976L193.969 28.3289C194.938 27.7715 197.79 30.8726 199.038 30.847Z" fill="#C61622"/>
<path d="M192.039 87.2252L189.015 80.8051C186.308 76.2815 183.441 71.7515 179.889 67.8366C178.971 66.8243 173.508 61.4453 172.673 61.2819C169.991 60.7629 165.182 63.4861 163.752 65.7895C161.812 68.9195 162.83 73.9396 163.713 77.3003C164.094 77.8064 168.167 77.8449 169.121 77.973C174.094 78.6394 179.505 79.4723 184.369 80.6449C184.82 80.7538 186.122 81.0101 186.276 81.4522C178.945 80.5488 171.643 78.9662 164.2 79.216L168.519 90.746L162.388 79.2641C156.436 78.8444 150.568 79.8824 144.68 80.4975C147.064 86.0463 148.958 91.7616 150.017 97.7364C153.249 115.94 150.149 133.919 144.443 151.222C143.326 154.605 142.11 157.978 140.677 161.23C140.289 161.034 140.657 160.33 140.741 160.009C141.48 157.155 142.763 154.207 143.557 151.295C149.825 128.277 150.808 103.785 139.512 82.1474C138.443 81.2151 126.702 85.8701 124.824 86.7383C124.478 86.9817 124.526 87.2572 124.565 87.6225C124.699 88.8527 125.896 90.8774 126.082 92.5433C127.758 107.661 112.162 125.531 104.159 137.821C103.823 138.336 103.09 137.789 103.714 139.121L103.099 138.811C102.252 141.861 98.082 147.928 99.0579 150.991C99.3331 151.85 100.632 152.596 101.375 153.16C109.765 159.506 121.838 164.123 132.36 164.748C135.179 164.914 141.835 165.138 144.376 164.61C146.603 164.148 158.433 157.331 161.096 155.72C172.462 148.835 179.025 141.117 185.898 129.933C186.25 129.36 186.378 128.117 187.111 127.979C195.882 129.68 204.573 131.849 213.082 134.547L216.992 136.232C213.952 135.639 211.057 134.511 208.036 133.829C204.177 132.954 199.642 132.195 195.71 131.753C194.791 131.65 189.396 131.061 189.06 131.157C188.068 131.442 187.089 134.973 186.551 136.036C183.086 142.908 178.305 148.966 172.679 154.185C172.225 154.605 168.523 157.225 168.993 157.699C178.385 156.86 187.914 156.636 197.306 155.454C200.436 155.06 203.674 154.662 206.762 154.028C209.607 153.442 212.628 152.112 215.312 151.693C215.655 151.638 216.426 151.353 216.349 151.93C199.114 157.767 181.175 161.246 163.07 163.142C159.438 163.524 155.124 163.348 151.582 163.815C149.691 164.062 146.923 165.295 144.875 165.75C135.95 167.743 127.691 168.079 118.687 166.256C115.403 165.59 111.131 163.546 108.325 163.175C104.322 162.646 98.8115 163.094 94.578 162.841C80.3094 161.983 45.2058 158.846 34.5884 149.536C27.6508 143.453 33.4588 138.16 39.7211 135.447C50.025 130.984 62.2808 130.52 73.3079 129.19C73.5255 130.34 72.6327 129.546 71.9991 129.69C64.2008 131.497 42.2555 136.443 37.1387 141.832C34.9115 144.177 37.1291 145.625 39.1675 146.871C44.0186 149.831 52.0185 151.564 57.6249 152.74C70.0311 155.342 82.7829 156.652 95.3876 157.699C85.3973 150.142 78.319 139.868 73.7975 128.219C61.036 95.3433 77.0166 57.8092 109.941 45.2476C144.398 32.1029 183.402 51.1583 192.023 87.2188L192.039 87.2252ZM161.963 77.2938C159.553 71.4183 158.964 64.4215 164.552 60.1863C165.62 59.3757 167.23 58.8984 168.039 58.232C168.43 57.9085 168.439 57.9245 168.039 57.6009C167.252 56.9634 165.211 55.8998 164.212 55.3455C153.006 49.1464 139.381 46.6252 126.693 48.5506C125.861 48.6755 120.354 49.6879 120.373 50.2261C129.979 57.4568 137.637 66.9396 143.409 77.454L161.966 77.2938H161.963ZM137 78.8957C137.118 78.4279 136.888 78.1396 136.705 77.7552C133.429 70.8801 122.014 60.8622 115.663 56.5341C114.664 55.8517 111.57 53.5323 110.626 53.5963C109.496 53.6732 104.226 56.973 102.981 57.8188C93.8612 64.0114 86.1301 73.1803 81.9638 83.3872C86.6293 81.7437 91.394 80.1707 96.2868 79.309C104.725 77.8257 115.224 76.9158 121.845 83.336C126.706 81.2888 131.81 79.8472 136.997 78.8989L137 78.8957ZM78.127 116.702C87.7109 105.326 98.5204 95.5035 111.509 88.1351C112.389 87.6353 117.493 85.3831 117.477 84.8257C112.571 81.3273 105.259 81.1543 99.3907 81.449C96.8596 81.5772 82.6934 83.4641 81.4134 84.7552C80.7894 85.3831 79.471 90.1598 79.1766 91.3291C77.071 99.7451 77.0582 108.132 78.127 116.705V116.702ZM98.2804 150.02C99.7491 132.74 114.565 120.175 120.286 104.612C121.979 100.008 123.23 93.4788 120.472 89.1762C119.611 88.9296 113.291 93.1007 112.13 93.8824C99.7491 102.231 89.6853 113.591 81.4614 125.977C80.959 127.579 83.5637 132.253 84.4661 133.893C87.0421 138.583 91.0196 143.962 94.8724 147.662C95.3396 148.111 97.8356 150.443 98.2772 150.017L98.2804 150.02Z" fill="#C61622"/>
<path d="M37.4939 244.849V231.803H41.9451V216.406H24.9917V231.803H29.4428V244.849H4.16956V231.803H8.6175V188.676H4.16956V175.63H29.4428V188.676H24.9917V201.503H41.9451V188.676H37.4939V175.63H62.7672V188.676H58.3161V231.803H62.7672V244.849H37.4939Z" fill="white"/>
<path d="M198.449 244.849V231.803H202.897V188.676H198.449V175.63H240.023L244.397 180.013L250.522 186.145V203.56L249.741 204.319L247.725 206.341L245.613 208.452L250.906 213.751V234.091L246.653 238.345L240.157 244.849H198.446H198.449ZM231.072 231.8L234.538 228.331V217.874L231.514 214.846H219.268V231.8H231.072ZM231.101 202.461L234.151 199.411V191.898L230.932 188.676H219.268V202.464H231.101V202.461Z" fill="white"/>
<path d="M109.016 244.849V231.803H115.039V204.092L107.087 219.412H99.7363L92.0533 204.223V231.803H97.8932V244.849H71.2311V231.803H75.6823V188.676H71.2311V175.63H93.8196L103.679 196.204L113.736 175.63H135.861V188.676H131.41V231.803H135.861V244.849H109.016Z" fill="white"/>
<path d="M155.966 244.983L143.099 231.454V188.352L156.1 175.518H178.923L190.206 187.253V203.329H175.335V192.655L173.143 190.377H161.636L158.03 193.939V226.165L161.78 230.112H173.236L175.335 228.001V215.824H190.206V233.549L178.855 244.983H155.966Z" fill="white"/>
<path d="M64.1272 190.037V174.269H36.134V190.037H40.5851V200.142H26.3517V190.037H30.8028V174.269H2.80957V190.037H7.26072V230.442H2.80957V246.21H30.8028V230.442H26.3517V217.771H40.5851V230.442H36.134V246.21H64.1272V230.442H59.6761V190.037H64.1272ZM62.7672 231.803V244.849H37.4939V231.803H41.9451V216.407H24.9917V231.803H29.4428V244.849H4.16955V231.803H8.6207V188.676H4.16955V175.63H29.4428V188.676H24.9917V201.506H41.9451V188.676H37.4939V175.63H62.7672V188.676H58.3161V231.803H62.7672Z" fill="#C61622"/>
<path d="M234.151 199.411V191.899L230.931 188.676H219.268V202.464H231.101L234.151 199.414V199.411ZM220.628 201.099V190.037H230.365L232.787 192.462V198.847L230.535 201.099H220.628Z" fill="#C61622"/>
<path d="M247.539 208.449L248.688 207.299L250.688 205.293L251.882 204.133V185.578L245.357 179.045L240.586 174.262H197.086V190.034H201.533V230.435H197.086V246.207H240.723L247.619 239.303L252.272 234.651V213.18L247.543 208.445L247.539 208.449ZM250.909 234.091L246.656 238.345L240.16 244.849H198.449V231.803H202.897V188.676H198.449V175.63H240.023L244.397 180.013L250.522 186.145V203.56L249.741 204.319L247.725 206.341L245.613 208.452L250.906 213.751V234.091H250.909Z" fill="#C61622"/>
<path d="M219.268 214.85V231.803H231.072L234.538 228.334V217.877L231.514 214.85H219.268ZM233.175 227.767L230.506 230.439H220.628V216.211H230.947L233.175 218.441V227.77V227.767Z" fill="#C61622"/>
<path d="M137.221 190.037V174.269H112.885L103.688 193.084L94.674 174.269H69.8711V190.037H74.3223V230.442H69.8711V246.21H99.2532V230.442H93.4132V209.932L98.898 220.776H107.912L113.679 209.669V230.442H107.656V246.21H137.221V230.442H132.77V190.037H137.221ZM135.861 231.803V244.849H109.016V231.803H115.039V204.095L107.087 219.415H99.7363L92.0532 204.226V231.803H97.8932V244.849H71.2311V231.803H75.6822V188.676H71.2311V175.63H93.8164L103.675 196.204L113.733 175.63H135.857V188.676H131.406V231.803H135.857H135.861Z" fill="#C61622"/>
<path d="M191.566 204.691V186.702L179.502 174.153H155.544L141.742 187.782V231.996L155.387 246.345H179.425L191.572 234.11V214.459H173.982V227.434L172.679 228.747H162.372L159.396 225.617V194.506L162.203 191.735H172.574L173.982 193.199V204.688H191.572L191.566 204.691ZM173.143 190.377H161.636L158.027 193.939V226.165L161.78 230.112H173.236L175.335 228.001V215.824H190.206V233.549L178.855 244.983H155.966L143.099 231.454V188.355L156.1 175.518H178.923L190.206 187.253V203.329H175.335V192.655L173.143 190.377Z" fill="#C61622"/>
<path d="M60.5016 186.404V177.899H39.7627V186.404H44.2138V203.775H22.7229V186.404H27.1741V177.899H6.43512V186.404H10.8863V234.072H6.43512V242.577H27.1741V234.072H22.7229V214.138H44.2138V234.072H39.7627V242.577H60.5016V234.072H56.0505V186.404H60.5016Z" fill="#C61622"/>
<path d="M246.531 212.578L244.455 210.499L242.407 208.449L246.122 204.732L246.781 204.072L248.147 202.701L248.253 202.599V187.083L242.791 181.615L239.082 177.899H200.714V186.404H205.162V234.072H200.714V242.577H239.219L245.053 236.737L247.719 234.072L248.64 233.149V214.689L246.531 212.578ZM216.999 186.404H231.869L236.416 190.957V200.353L235.367 201.401L232.039 204.732H216.999V186.404ZM236.803 229.273L232.01 234.072H216.999V212.578H232.451L235.367 215.497L236.803 216.935V229.273Z" fill="#C61622"/>
<path d="M133.592 186.404V177.899H115.151L103.659 201.41L92.3924 177.899H73.4999V186.404H77.951V234.072H73.4999V242.577H95.6276V234.072H89.7877V194.715L101.128 217.14H105.711L117.307 194.801V234.072H111.285V242.577H133.592V234.072H129.144V186.404H133.592Z" fill="#C61622"/>
<path d="M178.017 201.058H183.732H187.937V188.166L177.956 177.786H157.028L145.368 189.304V230.544L156.939 242.712H177.911L187.937 232.614V218.095H183.732H178.017H177.604V228.936L174.18 232.383H160.811L155.761 227.072V192.988L160.705 188.105H174.11L177.604 191.738V201.058H178.017Z" fill="#C61622"/>
</svg>
