<svg width="256" height="256" viewBox="0 0 256 256" fill="none" xmlns="http://www.w3.org/2000/svg">
<g clip-path="url(#clip0_3107_7955)">
<path d="M57.1151 145.861C55.4587 150.523 54.0219 155.34 51.0236 159.359C39.4433 174.866 5.72039 179.683 0.406657 156.854C-0.436415 153.233 0.106832 145.638 1.40409 142.1C4.84169 132.736 15.5345 128.424 24.7904 127.492C26.8951 127.281 38.5052 127.798 39.1138 127.421L46.2977 87.7065L51.6233 87.3919C51.7123 86.7716 51.6619 86.9081 51.2492 86.7271C49.8243 86.1008 48.1441 85.8396 46.6717 85.071C42.0615 82.6699 41.2749 78.8234 45.888 75.8673C50.5012 72.9113 58.2254 72.5195 63.4382 73.9441C66.6323 74.8167 71.385 76.5292 71.4889 80.4469C71.5839 84.0559 66.0178 85.4004 63.5777 86.7271C63.2304 86.917 63.079 86.7122 63.1977 87.3919H67.6506L60.808 127.029L86.9462 126.714L110.077 88.1072C110.365 87.7569 110.71 87.7243 111.125 87.6709C114.649 87.2108 119.85 87.7658 123.62 87.6976C124.775 87.6768 125.926 86.917 127.019 87.8371L135.651 126.693L136.652 127.177L154.647 127.29C155.188 127.667 154.855 130.837 154.929 131.757C155.303 136.458 156.158 140.999 157.301 145.561H139.638C139.454 145.561 139.229 146 139.208 146.273C139.089 148 140.621 151.583 140.719 153.536L160.056 153.574L163.538 158.62H141.868L144.242 172.272H123.611C123.501 172.272 123.198 172.661 122.774 172.545C122.421 172.397 122.225 172.038 122.112 171.691C121.468 169.69 121.42 165.879 121.013 163.591C120.886 162.867 120.117 158.825 119.859 158.661L90.4016 158.433L89.3032 158.825L81.4573 172.569H60.2321L67.9504 158.62H62.3101C62.7227 157.652 64.8482 154.076 65.5726 153.72C66.8372 153.096 69.966 154.105 71.0882 153.298C71.8748 152.731 74.689 147.146 74.7781 145.858H57.1151V145.861ZM115.744 126.866L113.663 111.729L105.651 126.866H115.744ZM119.01 153.577C118.683 152.123 118.336 146.505 117.398 145.84L96.6534 145.623L92.0017 153.135C92.2837 153.565 92.5716 153.545 93.0199 153.595C96.3536 153.96 100.323 153.286 103.733 153.595L119.01 153.583V153.577ZM23.2735 145.861C22.2137 147.552 22.944 151.722 24.3333 153.111C25.7226 154.5 28.4655 154.123 30.1932 153.672C32.2237 153.144 34.2394 150.499 34.931 148.615C35.2071 147.861 35.881 146.356 35.1448 145.861H23.2705H23.2735Z" fill="#00568D"/>
<path d="M159.827 98.6702C178.699 73.5851 216.094 70.3441 239.254 91.6866C262.575 113.178 261.456 151.817 236.407 171.379C216.96 186.566 191.493 186.934 171.277 173L149.141 172.872C148.057 172.676 147.95 170.803 147.805 169.904H177.342C177.769 169.904 183.6 173.448 184.861 173.961C199.119 179.763 216.278 178.078 229.117 169.729C248.205 157.32 255.875 131.395 246.21 110.548C231.509 78.8443 185.796 73.3565 164.815 101.647L135.197 101.635C133.945 101.395 133.942 99.7149 133.852 98.6761H159.827V98.6702Z" fill="#00568D"/>
<path d="M156.414 116.181L155.342 121.244L138.798 121.238C138.293 121.117 137.397 115.893 137.872 115.878L156.417 116.178L156.414 116.181Z" fill="#00568D"/>
<path d="M203.204 174.819C227.665 174.819 247.492 154.996 247.492 130.54C247.492 106.084 227.665 86.2612 203.204 86.2612C178.743 86.2612 158.916 106.084 158.916 130.54C158.916 154.996 178.743 174.819 203.204 174.819Z" fill="url(#paint0_radial_3107_7955)"/>
<path d="M203.204 174.819C227.665 174.819 247.492 154.996 247.492 130.54C247.492 106.084 227.665 86.2612 203.204 86.2612C178.743 86.2612 158.916 106.084 158.916 130.54C158.916 154.996 178.743 174.819 203.204 174.819Z" fill="url(#paint1_radial_3107_7955)"/>
<path d="M203.204 174.819C227.665 174.819 247.492 154.996 247.492 130.54C247.492 106.084 227.665 86.2612 203.204 86.2612C178.743 86.2612 158.916 106.084 158.916 130.54C158.916 154.996 178.743 174.819 203.204 174.819Z" fill="url(#paint2_radial_3107_7955)"/>
<path d="M203.204 174.819C227.665 174.819 247.492 154.996 247.492 130.54C247.492 106.084 227.665 86.2612 203.204 86.2612C178.743 86.2612 158.916 106.084 158.916 130.54C158.916 154.996 178.743 174.819 203.204 174.819Z" fill="url(#paint3_radial_3107_7955)"/>
<path d="M245.215 144.59C245.476 143.81 245.714 143.02 245.934 142.222C242.876 140.221 235.695 136.149 221.108 130.653C222.075 127.581 222.892 124.595 223.562 121.704C226.338 122.612 229.123 123.099 231.794 123.099C237.539 123.099 242.362 119.573 244.886 115.531C244.532 114.552 244.144 113.587 243.725 112.64C242.006 116.697 237.423 120.725 231.794 120.725C229.292 120.725 226.677 120.253 224.07 119.38C225.213 113.842 225.792 108.654 225.792 103.84C225.792 98.308 224.821 94.1113 222.728 90.7842C221.268 90.066 219.763 89.4249 218.216 88.8699L218.121 88.9767C221.781 92.2711 223.414 96.8566 223.414 103.843C223.414 108.39 222.88 113.296 221.82 118.529C216.055 116.089 210.501 111.768 206.472 106.307C199.229 96.4886 192.666 91.1077 186.105 89.6801C184.876 90.1936 183.677 90.7634 182.51 91.3837V91.6657C189.477 91.6657 196.483 96.7646 204.564 107.716C208.927 113.631 215.007 118.294 221.318 120.873C220.659 123.761 219.849 126.747 218.881 129.825C215.058 128.418 210.768 126.928 205.953 125.358C175.442 115.415 164.061 115.299 163.589 115.299C162.844 115.299 162.199 115.311 161.594 115.344C161.3 116.148 161.03 116.964 160.783 117.793C161.65 117.695 162.496 117.677 163.589 117.677C167.436 117.677 181.088 119.754 205.217 127.616C209.937 129.154 214.238 130.653 218.145 132.095C217.141 135.108 215.996 138.203 214.704 141.385C211.973 140.566 208.806 140.103 205.157 140.103C199.517 140.103 193.322 142.435 186.764 144.905C180.236 147.362 173.486 149.906 167.445 149.906C165.509 149.906 164.153 149.627 163.025 149.179C163.476 150.152 163.963 151.105 164.482 152.037C165.346 152.191 166.317 152.28 167.445 152.28C173.919 152.28 180.875 149.659 187.601 147.128C193.951 144.736 199.951 142.477 205.157 142.477C208.313 142.477 211.204 142.863 213.781 143.614C213.502 144.279 213.217 144.946 212.923 145.62C206.173 161.154 198.407 170.272 189.828 172.762C191.104 173.166 192.407 173.513 193.731 173.801C201.714 169.993 208.883 160.863 215.099 146.564C215.417 145.837 215.723 145.115 216.025 144.394C218.32 145.329 220.309 146.596 221.942 148.184C225.231 151.387 227.042 155.877 227.042 160.828C227.042 162.65 226.718 165.627 226.282 168.337C227.187 167.782 228.075 167.197 228.936 166.58C229.224 164.41 229.417 162.291 229.417 160.828C229.417 153.773 225.955 145.843 216.946 142.171C218.225 139.01 219.365 135.927 220.368 132.923C233.267 137.799 241.436 141.952 245.215 144.59Z" fill="#452518"/>
<path d="M203.204 175.116C178.618 175.116 158.619 155.118 158.619 130.54C158.619 105.962 178.621 85.9644 203.204 85.9644C227.787 85.9644 247.789 105.962 247.789 130.54C247.789 155.118 227.787 175.116 203.204 175.116ZM203.204 86.5579C178.948 86.5579 159.213 106.289 159.213 130.54C159.213 154.791 178.948 174.522 203.204 174.522C227.46 174.522 247.195 154.791 247.195 130.54C247.195 106.289 227.46 86.5579 203.204 86.5579Z" fill="black"/>
</g>
<defs>
<radialGradient id="paint0_radial_3107_7955" cx="0" cy="0" r="1" gradientUnits="userSpaceOnUse" gradientTransform="translate(228.903 111.866) rotate(138.696) scale(59.0456 59.044)">
<stop stop-color="#FFA167"/>
<stop offset="0.55" stop-color="#FF7D31"/>
<stop offset="1" stop-color="#EC5B36"/>
</radialGradient>
<radialGradient id="paint1_radial_3107_7955" cx="0" cy="0" r="1" gradientUnits="userSpaceOnUse" gradientTransform="translate(210.845 117.237) rotate(99.4619) scale(61.3085 80.8712)">
<stop offset="0.47" stop-color="#C64736" stop-opacity="0"/>
<stop offset="1" stop-color="#DD734E"/>
</radialGradient>
<radialGradient id="paint2_radial_3107_7955" cx="0" cy="0" r="1" gradientUnits="userSpaceOnUse" gradientTransform="translate(203.791 115.251) rotate(90) scale(59.576 59.5883)">
<stop offset="0.9" stop-color="#D6995C" stop-opacity="0"/>
<stop offset="1" stop-color="#CE6841"/>
</radialGradient>
<radialGradient id="paint3_radial_3107_7955" cx="0" cy="0" r="1" gradientUnits="userSpaceOnUse" gradientTransform="translate(207.825 137.322) rotate(-144.336) scale(52.9581 62.2861)">
<stop offset="0.86" stop-color="#E07162" stop-opacity="0"/>
<stop offset="1" stop-color="#E07162"/>
</radialGradient>
<clipPath id="clip0_3107_7955">
<rect width="256" height="256" fill="white"/>
</clipPath>
</defs>
</svg>
