<svg width="256" height="256" viewBox="0 0 256 256" fill="none" xmlns="http://www.w3.org/2000/svg">
<g clip-path="url(#clip0_3322_21940)">
<path d="M123.717 0.0836787C189.363 -2.32187 246.903 46.6694 254.984 111.726C265.489 196.302 193.056 267.034 108.753 254.565C57.6439 247.007 15.2884 207.986 3.48492 157.75C-15.0938 78.6658 42.8647 3.04592 123.717 0.0836787Z" fill="#010100"/>
<path d="M121.228 6.19372C199.542 2.52542 260.924 70.3606 248.387 148.065C240.128 199.262 198.781 240.331 147.603 248.457C66.6935 261.302 -3.24055 193.435 7.02643 112.181C14.2927 54.6849 63.1316 8.91608 121.228 6.19372Z" fill="#FDDE00"/>
<path d="M124.396 33.3494C197.944 30.3148 247.048 110.316 210.474 174.646C176.396 234.585 91.5994 239.419 51.1651 183.39C6.86122 122.006 49.2801 36.4497 124.396 33.3494Z" fill="#FEFEFE"/>
<path d="M164.444 18.629L165.403 27.1741C167.322 26.5133 170.373 22.0077 171.902 21.5505C172.319 21.4261 175.684 22.6866 175.795 23.0192L170.606 37.8123L166.541 36.4455L169.022 29.213C167.79 29.9032 165.806 32.7523 164.444 32.5667C164.231 32.5373 162.823 32.0327 162.633 31.9263C162.081 31.614 161.859 27.3845 161.78 26.4974C161.289 26.7531 161.137 27.5316 160.934 28.0249C160.219 29.7697 159.567 31.6932 159.065 33.5127L155.003 32.1413L160.311 17.4432C160.474 17.1694 160.669 17.2124 160.938 17.2531C161.178 17.2893 164.324 18.4865 164.446 18.6313L164.444 18.629Z" fill="#010100"/>
<path d="M145.713 226.545L141.221 233.866L147.752 242.155C147.587 242.379 143.106 242.748 142.55 242.495C141.993 242.241 139.895 238.901 139.203 238.147C139.033 237.962 138.961 237.545 138.589 237.631C137.288 238.238 138.707 243.069 138.474 243.287L134.177 243.741L132.69 227.885C132.819 227.69 136.741 227.296 136.892 227.446C136.892 228.715 136.965 230.127 137.143 231.381C137.18 231.63 137.229 232.438 137.567 232.424C138.209 231.388 139.746 227.717 140.522 227.12C140.954 226.787 145.491 226.346 145.715 226.545H145.713Z" fill="#010100"/>
<path d="M67.834 29.9234C70.5111 34.9088 78.3431 40.8762 71.9458 46.3006C69.9725 47.973 67.5715 48.7741 65.071 47.7376C62.6428 46.7306 58.8773 41.0414 57.4086 38.654C57.0715 38.1041 56.4831 37.6198 57.0081 37.0224C57.2977 36.6943 59.882 35.0038 60.2532 35.1147C60.7284 35.2573 64.865 42.1231 66.0508 43.137C67.0103 43.9562 68.0105 44.239 69.0809 43.4357C70.6242 42.2793 69.8005 40.5843 69.0062 39.2763C68.3432 38.1833 64.2269 32.8879 64.2427 32.2588C64.254 31.8062 67.3407 29.6405 67.8317 29.9257L67.834 29.9234Z" fill="#010100"/>
<path d="M92.9866 18.1244L91.6175 27.0157C91.7126 27.4366 97.6415 31.2882 98.5263 32.1572C98.7458 32.3721 98.9563 32.4513 98.8703 32.8293L94.4666 34.4247C94.0027 34.3817 91.3369 31.9241 90.6083 31.476C90.4295 31.3651 90.4046 31.1433 90.0448 31.2497L89.0876 36.6288L84.6137 38.2627L86.1729 29.1315C86.0394 28.6654 80.382 24.8455 79.5244 24.0014C79.3049 23.7864 79.0944 23.7094 79.1804 23.3293C80.1784 23.2138 82.7174 21.6117 83.5388 21.7836C84.0073 21.881 87.6144 25.117 87.7773 24.9088L88.5671 19.6994L92.9821 18.1199L92.9866 18.1244Z" fill="#010100"/>
<path d="M163.138 221.564C163.233 222.89 164.172 224.047 164.027 225.396L158.168 227.002L158.614 229.258L163.579 227.907C163.67 228.623 164.837 230.971 164.468 231.492L159.979 232.891L160.425 234.914L167.211 232.875L168.112 236.715L157.84 239.874L152.973 224.873L163.14 221.562L163.138 221.564Z" fill="#010100"/>
<path d="M195.018 33.9969C195.299 34.4042 193.602 36.9818 193.095 37.3303C192.493 37.4479 189.053 34.4744 188.094 34.2232C187.455 34.0557 186.562 35.6059 186.772 35.9996C187.1 36.6174 190.363 38.1404 190.51 38.6337C190.691 39.2447 188.935 40.8243 188.922 41.6412C188.358 42.0486 185.355 39.376 184.523 39.2221L183.289 40.8673L188.931 44.384C189.205 44.7687 187.311 47.224 186.994 47.7558L177.879 42.0803L177.888 41.6028L186.351 28.5386L195.018 33.9969Z" fill="#010100"/>
<path d="M33.4599 68.607L30.543 74.4523L32.5638 75.3756L34.7452 71.2841C35.621 71.0986 36.9946 72.5876 37.9813 72.6759C38.3003 73.124 36.137 76.4935 35.7568 77.1C35.6527 77.401 36.6665 77.9328 36.8543 77.9939C37.2367 78.1138 37.5943 78.2111 37.8839 77.8672C38.3773 77.1113 40.552 72.5537 41.077 72.4496L44.1206 74.1536L39.1082 83.7328L25.1028 76.2695L30.07 67.1021C30.7082 66.6903 32.6611 68.4645 33.4554 68.6048L33.4599 68.607Z" fill="#010100"/>
<path d="M230.331 181.496L226.729 180.149C226.781 179.16 229.562 174.558 229.205 174.06L227.2 173.379L225.353 177.647C225.17 177.776 222.11 176.427 222.004 176.277C221.572 175.671 223.676 172.713 223.758 171.849C223.81 171.315 222.133 170.652 221.778 170.901L219.232 176.728C218.709 177.097 216.432 175.565 215.731 175.406L220.162 165.54L234.552 171.998L230.331 181.494V181.496Z" fill="#010100"/>
<path d="M119.182 239.387C120.579 238.009 117.082 236.98 116.227 236.457C115.306 235.893 113.982 234.923 113.566 233.913C112.097 230.354 114.776 227.036 118.447 226.979C119.782 226.959 123.835 228.285 124.193 229.645C124.367 230.306 122.292 231.861 121.81 232.406C121.491 232.472 117.899 229.306 117.705 231.673C117.605 232.875 121.192 234.074 122.167 234.818C123.514 235.848 124.107 236.925 124.005 238.659C123.647 244.739 114.896 244.633 112.016 240.431C111.937 240.064 113.955 237.978 114.408 237.649C115.329 238.448 118.037 240.523 119.187 239.39L119.182 239.387Z" fill="#010100"/>
<path d="M179.221 217.962L184.64 228.708C184.697 229.132 184.552 228.978 184.353 229.093C183.839 229.392 181.137 230.82 180.816 230.591L175.358 220.209C174.717 220.383 171.848 222.234 171.524 222.01L169.954 218.926L180.495 213.001C181.149 212.94 182.257 215.547 182.359 216.214L179.223 217.964L179.221 217.962Z" fill="#010100"/>
<path d="M203.312 40.752L212.228 49.435L209.641 51.8496L206.729 49.3671L198.788 57.5116C198.605 57.7017 198.406 57.7696 198.143 57.7017C197.863 57.627 195.45 55.2803 195.521 54.7146L203.64 46.2963L200.945 43.5513L203.312 40.752Z" fill="#010100"/>
<path d="M240.741 151.883L239.852 156.164L228.225 153.206C227.781 153.234 226.91 158.717 226.516 159.011C225.984 159.407 223.697 158.28 222.886 158.423L225.382 148.024L240.743 151.885L240.741 151.883Z" fill="#010100"/>
<path d="M49.7667 200.745H54.2926C54.4306 201.277 54.1658 201.123 54.0052 201.263C53.4598 201.732 51.0543 203.212 50.9321 203.621C50.6492 204.565 52.3147 207.647 52.0273 207.989L48.2958 205.502L44.5642 207.989L45.931 203.596L42.299 200.747H46.7117L48.1849 196.448C48.5356 196.481 48.5288 196.791 48.6216 197.027C49.0697 198.17 49.339 199.573 49.7667 200.747V200.745Z" fill="#010100"/>
<path d="M209.078 200.745H213.604L210.022 203.601L211.112 207.532C210.768 207.88 208.143 205.459 207.569 205.307L203.873 207.758C203.579 207.409 205.278 204.28 204.975 203.383C204.867 203.067 202.395 201.462 201.898 201.035C201.735 200.896 201.472 201.048 201.61 200.516H206.023C206.776 199.398 206.856 197.927 207.385 196.669C207.476 196.454 207.408 196.151 207.718 196.217L209.078 200.74V200.745Z" fill="#010100"/>
<path d="M196.403 28.9888C196.684 29.3328 196.342 29.3781 196.116 29.4912C195.471 29.8125 192.875 30.634 192.235 30.5684C191.789 30.5231 190.103 29.3871 189.675 29.0499C189.497 28.9073 189.257 29.059 189.39 28.5362L193.129 27.1965L196.403 28.9888Z" fill="#010100"/>
<path d="M129.422 18.122H133.948C134.086 18.6538 133.821 18.5 133.661 18.6403C133.115 19.1087 130.71 20.5887 130.588 20.9983C130.305 21.942 131.97 25.0196 131.683 25.3659L127.949 22.8856L124.328 25.3636L125.548 20.9779L121.955 18.1266H126.367L127.84 13.8269C128.592 14.0871 129.191 18.1266 129.422 18.1266V18.122Z" fill="#010100"/>
<path d="M225.993 78.8289C213.672 80.5194 219.017 100.04 230.847 94.5454C239.356 90.5942 235.28 77.5549 225.993 78.8289ZM223.683 89.3971C220.965 85.2173 227.22 81.2254 230.273 84.2782C234.267 88.2724 226.555 93.8122 223.683 89.3971Z" fill="#010100"/>
<path d="M233.461 124.315C229.168 124.896 226.618 129.316 226.982 133.396C227.779 142.358 240.533 143.482 243.008 135.22C244.998 128.58 240.245 123.398 233.461 124.317V124.315ZM235.667 136.254C229.935 136.759 229.327 128.807 235.025 128.642C240.25 128.488 241.022 135.784 235.667 136.254Z" fill="#010100"/>
<path d="M21.197 139.024C9.63563 140.604 13.417 159.108 25.4468 155.042C34.2519 152.066 31.4685 137.621 21.197 139.024ZM22.4394 151.127C17.5265 151.314 16.7186 144.385 21.6451 143.546C27.9949 142.464 28.2008 150.907 22.4394 151.127Z" fill="#010100"/>
<path d="M83.4822 217.606C82.878 216.957 75.9308 212.922 75.5665 213.194L68.3364 227.088C70.6423 228.38 75.5054 231.834 78.1055 231.476C81.4139 231.021 83.1971 226.432 80.5404 224.058C84.0864 224.164 85.9556 220.261 83.4822 217.606ZM77.4832 226.767C76.449 227.83 74.8559 226.319 73.7606 226.081C73.5977 225.848 74.7563 223.701 75.0301 223.619C76.3019 223.723 78.85 225.359 77.4832 226.765V226.767ZM78.2164 221.517C78.0625 221.483 76.7681 220.926 76.7206 220.858C76.4762 220.517 77.3497 218.638 77.5149 218.604C79.6601 218.152 81.2035 222.173 78.2164 221.517Z" fill="#010100"/>
<path d="M37.1326 168.006C36.7117 167.146 36.2071 165.949 35.6052 165.234C32.8896 162.018 27.3952 164.394 28.0401 168.61C25.9243 166.691 22.0682 167.85 21.7243 170.781C21.4074 173.467 24.1162 177.398 25.0191 179.941L39.5857 173.811C38.8389 171.869 38.0514 169.869 37.1349 168.002L37.1326 168.006ZM26.7005 174.707C24.6072 171.274 28.1216 169.706 28.9272 173.668C28.8276 174.01 26.963 174.895 26.7005 174.707ZM34.3583 171.532L31.8917 172.457C31.6382 171.367 30.4751 170.072 31.1969 168.936C32.4008 167.04 34.58 170.167 34.3583 171.532Z" fill="#010100"/>
<path d="M32.962 96.3669C32.084 89.9943 22.6837 87.7404 18.7643 92.9135C17.6261 94.4162 16.3475 98.5687 15.9266 100.483C15.8451 100.85 15.7342 101.223 15.8519 101.599L30.9593 105.899C31.731 102.803 33.4146 99.6278 32.9643 96.3669H32.962ZM28.4927 100.949L20.5815 98.6728C21.4708 91.5739 31.2399 94.3573 28.4927 100.949Z" fill="#010100"/>
<path d="M29.3979 115.206C28.9883 114.828 24.5733 117.969 23.6523 118.128C22.2244 115.58 19.2735 114.729 16.5467 115.589C11.8307 117.076 13.1002 123.362 12.6521 127.2L28.366 128.112C28.8231 126.72 28.7236 125.249 28.7213 123.803H24.9874C24.8222 123.803 24.3267 123.448 23.9804 123.564C23.9714 123.297 23.8922 122.946 24.0166 122.717C24.2271 122.332 28.1375 120.723 28.7892 120.196C28.9091 120.09 29.1716 119.49 29.1716 119.391V115.77C29.1716 115.704 29.4862 115.455 29.3979 115.206ZM20.3484 123.351H16.7277C16.0669 118.535 21.0793 118.47 20.3484 123.351Z" fill="#010100"/>
<path d="M219.456 57.5273C219.026 57.2309 217.1 58.7086 216.609 59.0322C213.061 61.3744 209.637 63.9633 206.179 66.4344L208.542 69.7022C209.331 69.6275 213.33 65.622 212.834 68.143C212.599 69.3424 210.827 71.9855 210.89 72.9835C210.913 73.3547 213.248 76.8306 213.495 76.9573C213.907 77.17 213.816 76.6428 213.893 76.4617C214.636 74.7034 215.235 72.8817 216.086 71.1709C218.947 72.549 222.703 70.6979 223.798 67.8058C225.269 63.918 221.049 60.6955 219.456 57.5273ZM219.27 66.6743C217.77 68.2041 215.514 65.4772 215.656 64.8775C215.695 64.7191 218.121 62.9879 218.279 62.9517C218.809 62.834 220.438 65.484 219.27 66.6743Z" fill="#010100"/>
<path d="M101.559 224.083C100.436 224.099 98.2932 222.687 97.3835 223.359L87.7819 236.724C88.6848 236.724 91.2668 238.027 91.9344 237.835C92.3779 237.706 93.0455 235.991 93.2559 235.866C93.6203 235.651 97.9131 236.907 98.0896 237.17C98.5105 237.799 97.7569 239.329 98.5489 239.879C98.7458 240.017 102.563 241.177 102.717 241.026L101.559 224.083ZM98.1937 233.332L95.6976 232.531C95.6411 231.877 97.6076 229.387 98.1937 228.806V233.332Z" fill="#010100"/>
<path d="M59.2688 55.4659L44.1636 49.3853C43.6341 49.2631 41.2467 52.0239 41.1946 52.2276C40.9729 53.0807 48.3048 65.2601 48.8637 67.2289L49.3322 67.0841C49.6558 66.2015 51.844 64.6695 52.007 63.9136C52.1088 63.4452 50.5655 62.3477 51.0135 61.3542C51.1267 61.103 53.7585 58.0321 53.9757 57.9801C54.6365 57.8194 55.8313 59.1772 56.775 58.745C56.9357 58.6726 59.0764 56.2964 59.1579 56.1403C59.2778 55.9117 59.3072 55.7149 59.2688 55.4637V55.4659ZM48.3071 57.7108C48.0921 57.4347 46.4673 54.6784 46.5985 54.5585C46.8633 54.3163 49.9137 55.9841 50.4455 56.2602C50.0065 57.0387 49.1692 58.8242 48.3071 57.7131V57.7108Z" fill="#010100"/>
<path d="M240.506 102.556L225.047 105.222C224.627 105.505 225.55 108.65 225.604 109.316L230.327 108.662C230.802 113.464 233.527 116.865 238.646 114.79C243.726 112.731 241.058 106.58 240.503 102.556H240.506ZM233.968 107.738L237.584 107.29C238.775 111.816 234.165 112.251 233.968 107.738Z" fill="#010100"/>
<path d="M136.211 41.6569L131.26 45.4135L133.154 51.39L127.99 47.7987C127.444 47.8462 124.478 50.4894 123.656 50.942C123.382 51.0913 123.22 51.2452 122.86 51.1615L124.641 45.4361L119.918 41.6592H126.028L127.951 35.5469L130.214 41.6592H136.211V41.6569Z" fill="#FDDE00"/>
<path d="M109.282 44.3726C109.506 43.3384 109.793 42.2499 110.128 41.2497C110.214 40.9962 110.067 40.6115 110.524 40.7518C110.726 40.8152 111.371 44.0219 111.884 44.3749H115.618L112.699 46.7895L113.579 50.4827C113.321 50.7701 111.054 48.4143 110.334 48.4913C109.615 48.5682 108.218 50.3062 107.359 50.4849C107.06 49.3376 108.454 47.9187 108.114 46.794C107.904 46.0948 105.578 45.1896 105.206 44.3726H109.28H109.282Z" fill="#FDDE00"/>
<path d="M146.847 44.3725H150.694L147.775 46.7871L148.881 50.7089L145.607 48.4413C144.889 48.4413 143.367 50.4939 142.321 50.254L143.471 46.7826L140.284 44.3725H144.358C144.333 43.972 145.387 40.4983 145.713 40.7517L146.847 44.3725Z" fill="#FDDE00"/>
<path d="M128.049 199.882C167.751 199.882 199.936 167.697 199.936 127.994C199.936 88.2914 167.751 56.106 128.049 56.106C88.3466 56.106 56.1617 88.2914 56.1617 127.994C56.1617 167.697 88.3466 199.882 128.049 199.882Z" fill="#FDDE00"/>
<path d="M199.499 119.689C198.967 115.966 198.304 112.264 197.308 108.641L194.423 105.303L189.811 92.3771L178.917 92.2956C169.175 86.2172 158.435 81.5442 147.082 79.4373C147.003 76.4773 147.241 73.3273 148.546 70.6253C150.567 66.4433 154.905 64.2799 159.293 63.3815C157.152 62.345 155.455 61.5122 153.183 60.6659C148.293 63.0533 144.767 66.6764 143.423 72.0645C143.249 72.7661 142.774 74.676 142.774 75.2621V78.5434L130.201 77.4255L130.101 56.1399C128.691 56.0969 127.211 56.0969 125.802 56.1399V77.6405C121.624 77.4617 117.492 78.0931 113.355 78.5457C113.371 72.4696 111.64 66.6967 106.641 62.9696C105.478 62.1029 104.127 61.5009 102.946 60.6681C100.617 61.5258 98.8227 62.3111 96.6096 63.3837C102.267 64.3591 107.067 67.577 108.449 73.3816C108.689 74.3909 109.402 78.7856 108.78 79.4011C97.3496 81.7116 86.5893 86.3553 76.759 92.5264C73.0569 92.8251 69.2347 92.402 65.6095 92.3522C62.5817 92.3114 59.5856 92.669 56.5577 92.5807C58.4224 94.5518 60.3142 96.5274 62.2151 98.4622C62.6745 98.9307 65.4602 101.291 65.3674 101.714L58.8207 108.419C57.877 111.814 57.2344 115.104 56.784 118.603C60.1581 113.645 63.9576 109.015 68.3273 104.898C68.4993 104.744 68.6011 104.808 68.7776 104.898C69.2415 105.138 71.1673 107.514 71.3823 107.514H83.9416V134.557C83.9416 135.082 83.0885 137.444 82.921 138.288C82.6178 139.802 82.2535 143.113 81.6945 144.303C80.8663 146.071 77.5895 147.657 75.7565 148.096C69.6738 149.549 63.2108 147.327 61.0927 141.117C59.8254 140.9 58.5174 141.027 57.2411 141.009C53.3987 140.957 49.5426 141.047 45.7001 141.009C46.5872 149.078 50.4523 156.191 57.6869 160.135C59.6104 161.183 63.032 162.55 65.1592 162.96C66.1979 163.159 68.2481 163.362 69.3366 163.421C73.2515 163.638 77.1799 163.313 80.9998 162.507C81.1808 170.262 82.8418 177.861 84.6205 185.363C86.5146 186.802 88.2548 187.97 90.2779 189.21C87.5691 180.056 85.3627 170.681 85.064 161.074C93.5727 157.178 98.3543 149.02 98.8861 139.775C99.4428 130.099 98.3611 119.949 98.9811 110.225C102.319 104 106.705 98.2246 109.855 91.9064C111.187 89.236 112.466 86.2761 112.783 83.2935C113.285 82.5082 124.206 81.7591 125.804 81.9447V91.4492C117.06 91.3021 107.96 95.3099 104.491 103.742C101.627 110.7 102.674 120.483 107.585 126.301C112.165 131.733 119.128 133.459 125.804 134.899V150.966C122.317 150.275 118.961 148.352 117.309 145.091C116.684 143.858 116.537 142.418 115.96 141.235H102.043C102.283 154.328 112.862 164.335 125.804 164.544V199.846C127.422 199.9 128.483 199.9 130.103 199.846L130.135 164.802C132.083 164.424 134.082 164.417 136.035 164.025C149.714 161.274 155.091 148.943 151.262 136.032C148.318 126.1 139.307 122.941 130.103 120.87V105.708C132.932 106.584 135.31 108.895 135.987 111.818H151.149C150.434 100.531 141.085 92.3861 130.103 91.4515V81.947C134.496 81.8361 138.884 82.3543 143.197 83.1102C143.735 87.7289 146.139 91.9335 148.393 95.9051C153.959 105.706 160.651 114.916 164.686 125.561L151.375 163.643H165.632L170.386 149.615C170.701 149.637 170.787 150.64 170.809 150.887C171.64 160.194 170.558 170.185 168.465 179.262C167.689 182.625 166.664 185.931 165.634 189.217C167.788 187.893 169.268 186.9 171.291 185.37C172.242 181.962 173.095 178.493 173.71 175.003C175.066 167.325 175.408 159.97 175.147 152.208C175.118 151.31 174.729 150.357 174.91 149.388L195.817 149.375C196.018 149.431 196.184 150.5 196.181 150.746L201.047 163.645H215.19L199.503 119.703L199.499 119.689ZM102.133 96.6292C101.12 98.3151 100.088 100.11 98.8703 101.626V92.5739H85.9715C85.8855 92.1666 86.0892 92.1281 86.3471 91.9313C86.9785 91.4492 88.6893 90.7364 89.5107 90.3426C95.4261 87.5071 101.746 85.4252 108.146 83.9746C107.2 88.4938 104.494 92.7029 102.131 96.6269L102.133 96.6292ZM125.802 119.503C120.843 118.933 115.306 116.175 116.849 110.212C117.886 106.211 122.138 104.991 125.802 104.794V119.503ZM138.13 141.233C140.321 147.019 135.584 151.063 130.099 150.961V136.252C133.075 136.797 136.962 138.15 138.13 141.233ZM166.985 119.73L161.595 109.395C157.089 100.904 150.698 93.1985 147.752 83.9769C157.487 86.1991 167.06 89.8357 175.331 95.4434L166.985 119.73ZM175.36 136.476L183.167 113.391L190.974 136.476H175.36Z" fill="#010100"/>
</g>
<defs>
<clipPath id="clip0_3322_21940">
<rect width="256" height="256" fill="white"/>
</clipPath>
</defs>
</svg>
