<svg width="256" height="256" viewBox="0 0 256 256" fill="none" xmlns="http://www.w3.org/2000/svg">
<path d="M128.006 249.915C195.423 249.915 250.075 195.262 250.075 127.846C250.075 60.4289 195.423 5.77686 128.006 5.77686C60.5893 5.77686 5.93726 60.4289 5.93726 127.846C5.93726 195.262 60.5893 249.915 128.006 249.915Z" fill="white"/>
<path d="M128.006 250.994C111.382 250.994 95.2536 247.737 80.0694 241.315C65.4034 235.113 52.2363 226.233 40.9261 214.923C29.6158 203.613 20.736 190.442 14.5334 175.779C8.1118 160.598 4.85474 144.47 4.85474 127.846C4.85474 111.221 8.1118 95.0932 14.5334 79.909C20.736 65.243 29.6158 52.0759 40.9261 40.7657C52.2363 29.4554 65.4064 20.5756 80.0694 14.373C95.2536 7.9514 111.382 4.69434 128.006 4.69434C144.631 4.69434 160.759 7.9514 175.943 14.373C190.606 20.5756 203.776 29.4554 215.086 40.7657C226.397 52.0759 235.276 65.246 241.479 79.909C247.901 95.0932 251.158 111.221 251.158 127.846C251.158 144.47 247.901 160.598 241.479 175.783C235.276 190.449 226.397 203.616 215.086 214.926C203.776 226.236 190.606 235.116 175.943 241.319C160.756 247.737 144.631 250.994 128.006 250.994ZM128.006 6.85646C111.672 6.85646 95.8273 10.0549 80.9114 16.3655C66.5045 22.4601 53.5657 31.1826 42.4528 42.2955C31.3399 53.4084 22.6174 66.3472 16.5228 80.7541C10.2153 95.67 7.01377 111.514 7.01377 127.849C7.01377 144.184 10.2122 160.028 16.5228 174.944C22.6174 189.351 31.3399 202.289 42.4528 213.402C53.5657 224.515 66.5045 233.238 80.9114 239.332C95.8273 245.64 111.672 248.841 128.006 248.841C144.341 248.841 160.185 245.643 175.101 239.332C189.508 233.238 202.447 224.515 213.56 213.402C224.672 202.289 233.395 189.351 239.49 174.944C245.797 160.028 248.999 144.184 248.999 127.849C248.999 111.514 245.8 95.67 239.49 80.7541C233.395 66.3472 224.672 53.4084 213.56 42.2955C202.447 31.1826 189.508 22.4601 175.101 16.3655C160.182 10.0549 144.338 6.85646 128.006 6.85646Z" fill="black"/>
<path d="M128.006 221.138C179.53 221.138 221.298 179.369 221.298 127.846C221.298 76.3219 179.53 34.5537 128.006 34.5537C76.4823 34.5537 34.7141 76.3219 34.7141 127.846C34.7141 179.369 76.4823 221.138 128.006 221.138Z" fill="black"/>
<mask id="mask0_305_17009" style="mask-type:luminance" maskUnits="userSpaceOnUse" x="34" y="34" width="188" height="188">
<path d="M128.006 221.138C179.53 221.138 221.298 179.369 221.298 127.846C221.298 76.3219 179.53 34.5537 128.006 34.5537C76.4823 34.5537 34.7141 76.3219 34.7141 127.846C34.7141 179.369 76.4823 221.138 128.006 221.138Z" fill="white"/>
</mask>
<g mask="url(#mask0_305_17009)">
<path d="M114.179 93.7422H155.851L181.775 172.069L119.324 178.444C119.324 178.444 79.844 163.168 80.3961 162.767C80.9482 162.366 114.179 93.7422 114.179 93.7422Z" fill="white"/>
<path d="M119.219 179.234L119.046 179.166C118.95 179.129 109.219 175.363 99.6053 171.569C93.9579 169.339 89.4517 167.538 86.2162 166.209C79.7114 163.541 79.699 163.454 79.625 162.881L79.5664 162.427L79.8286 162.23C81.3492 159.642 104.559 111.835 113.485 93.4058L113.695 92.9709H156.407L182.808 172.738L119.219 179.234ZM81.4232 162.492C85.1059 164.25 105.555 172.288 119.431 177.661L180.742 171.399L155.293 94.5131H114.663C113.315 97.2952 105.734 112.942 98.1866 128.444C86.0466 153.381 82.5335 160.432 81.4232 162.492ZM79.9427 162.146C79.9365 162.15 79.9304 162.156 79.9242 162.159L79.9427 162.146Z" fill="black"/>
<path d="M119.21 179.311L119.018 179.237C118.941 179.206 109.25 175.455 99.5777 171.64C93.9272 169.41 89.4241 167.606 86.1886 166.28C79.6436 163.596 79.6313 163.516 79.5511 162.89L79.4863 162.39L79.7732 162.174C81.3616 159.442 104.587 111.604 113.417 93.3689L113.648 92.8909H156.465L156.484 92.9433L182.916 172.803L182.821 172.812L119.21 179.311ZM79.6498 162.461L79.7022 162.871C79.7701 163.393 79.7824 163.488 86.2441 166.138C89.4796 167.464 93.9827 169.268 99.6332 171.495C109.306 175.314 118.997 179.064 119.074 179.092L119.228 179.154L182.704 172.673L156.348 93.0482H113.744L113.556 93.4399C104.812 111.499 81.9476 158.593 79.9582 162.165L79.9922 162.208L79.9737 162.221L79.9459 162.187C79.9274 162.218 79.912 162.245 79.8966 162.27L79.875 162.292L79.6498 162.461ZM119.419 177.738L119.401 177.732C107.995 173.315 85.3682 164.463 81.3863 162.563L81.3123 162.529L81.3493 162.458C82.3147 160.669 85.0597 155.225 98.1126 128.413C104.969 114.33 111.918 99.9941 114.589 94.4824L114.611 94.4392H155.346L155.364 94.4916L180.844 171.471L180.748 171.48L119.419 177.738ZM81.5282 162.458C85.7013 164.429 108.1 173.192 119.441 177.584L180.637 171.335L155.238 94.5903H114.709C112.023 100.133 105.092 114.432 98.2545 128.478C85.3712 154.945 82.5275 160.595 81.5282 162.458Z" fill="white"/>
<path d="M152.422 96.3669H115.259V97.9091H152.422V96.3669Z" fill="black"/>
<path d="M152.422 107.005H112.137V108.547H152.422V107.005Z" fill="black"/>
<path d="M152.422 111.323H110.496V112.865H152.422V111.323Z" fill="black"/>
<path d="M162.973 57.1403C163.735 57.1249 164.497 57.0293 165.24 56.8473C164.5 56.653 163.738 56.5512 162.973 56.5234C162.952 55.6814 162.85 54.8394 162.662 54.0159C162.473 54.8394 162.375 55.6783 162.353 56.5203C161.591 56.5389 160.83 56.6314 160.086 56.8134C160.826 57.0046 161.588 57.1095 162.353 57.1372C162.375 57.9823 162.473 58.8213 162.665 59.6479C162.853 58.8213 162.952 57.9823 162.973 57.1403Z" fill="white"/>
<path d="M174.709 71.3189C172.831 67.9569 167.341 59.7711 162.575 59.8544H162.572H162.569C157.363 59.8266 152.314 67.9569 150.435 71.3189C149.569 72.8703 149.149 73.6907 149.439 74.5821C149.624 75.1558 150.149 75.896 150.932 76.2446C151.728 76.5993 152.274 76.3186 152.736 76.7381C153.18 77.1421 153.11 77.8052 153.11 78.4005L153.072 112.14C151.416 113.112 152.82 116.199 154.282 116.036C154.667 115.992 154.846 116.14 154.908 116.52C155.025 117.248 155.228 118.173 155.407 118.534C155.534 118.79 155.799 119.212 156.379 119.598C156.382 119.61 156.382 119.613 156.385 119.626C156.197 119.848 155.993 120.178 155.95 120.591C155.895 121.146 156.141 121.723 156.61 122.189C157.017 122.593 157.56 122.837 158.128 122.932L159.142 123.108V123.111C159.133 124.289 160.031 125.261 161.157 125.289C161.533 125.298 161.891 125.467 162.15 125.754L162.575 126.232L163.001 125.754C163.26 125.467 163.615 125.298 163.994 125.289C165.123 125.258 166.021 124.286 166.008 123.105L167.023 122.929C167.59 122.83 168.133 122.59 168.54 122.186C169.009 121.72 169.256 121.143 169.2 120.588C169.157 120.172 168.954 119.845 168.766 119.623C168.769 119.61 168.769 119.607 168.772 119.595C169.352 119.209 169.617 118.784 169.743 118.531C169.922 118.167 170.126 117.242 170.243 116.517C170.305 116.137 170.468 115.881 170.854 115.925C172.319 116.088 173.738 113.109 172.081 112.137L172.044 78.3974C172.087 77.6572 171.973 77.139 172.417 76.735C172.877 76.3155 173.423 76.5962 174.222 76.2415C175.005 75.8929 175.526 75.1496 175.715 74.579C175.995 73.6876 175.576 72.8672 174.709 71.3189Z" fill="white"/>
<path d="M162.569 127.136L161.712 126.177C161.564 126.01 161.354 125.912 161.135 125.905C159.867 125.871 158.816 124.897 158.59 123.638L158.026 123.54C157.301 123.416 156.669 123.102 156.2 122.633C155.592 122.028 155.287 121.26 155.361 120.523C155.389 120.258 155.466 119.996 155.589 119.746C155.29 119.471 155.053 119.16 154.883 118.815C154.605 118.253 154.383 116.967 154.331 116.646C153.19 116.763 152.237 115.665 151.885 114.515C151.546 113.408 151.777 112.405 152.483 111.81L152.52 78.3974C152.52 78.3233 152.52 78.2462 152.523 78.1722C152.53 77.6725 152.523 77.3579 152.351 77.2006C152.258 77.1174 152.147 77.0989 151.851 77.0742C151.543 77.0464 151.16 77.0125 150.704 76.8089C149.704 76.3617 149.097 75.4364 148.884 74.7763C148.492 73.5704 149.094 72.4939 149.926 71.0042C155.648 60.7765 160.278 59.2344 162.548 59.2344H162.551H162.6C162.619 59.2344 162.64 59.2344 162.659 59.2344C168.571 59.2344 174.953 70.5231 175.224 71.0042C176.057 72.4939 176.662 73.5735 176.267 74.7763C176.054 75.4333 175.446 76.3617 174.447 76.8089C173.99 77.0125 173.608 77.0464 173.3 77.0742C173.003 77.0989 172.892 77.1174 172.8 77.2006C172.664 77.324 172.649 77.4597 172.643 77.9563C172.64 78.1013 172.64 78.2524 172.63 78.4159L172.667 111.81C173.364 112.396 173.596 113.368 173.269 114.432C172.933 115.533 171.973 116.628 170.838 116.541C170.832 116.563 170.829 116.588 170.823 116.618C170.78 116.884 170.551 118.238 170.265 118.815C170.092 119.16 169.857 119.471 169.558 119.746C169.682 119.996 169.759 120.258 169.787 120.523C169.861 121.26 169.555 122.028 168.948 122.633C168.476 123.102 167.846 123.413 167.119 123.54L166.554 123.638C166.329 124.897 165.277 125.871 164.01 125.905C163.791 125.912 163.581 126.01 163.433 126.177L162.569 127.136ZM154.393 115.412C154.988 115.412 155.38 115.77 155.484 116.418C155.614 117.214 155.802 118.003 155.926 118.253C156.083 118.568 156.339 118.845 156.69 119.08L156.906 119.225L157.005 119.783L156.82 120.036C156.65 120.239 156.552 120.446 156.53 120.659C156.493 121.011 156.669 121.405 157.008 121.745C157.307 122.041 157.724 122.241 158.214 122.328L159.722 122.587V123.111C159.716 123.956 160.361 124.656 161.163 124.678C161.693 124.69 162.202 124.931 162.566 125.335C162.93 124.931 163.439 124.693 163.969 124.678C164.771 124.656 165.419 123.956 165.41 123.117L165.404 122.587L166.918 122.324C167.409 122.241 167.825 122.038 168.124 121.742C168.463 121.405 168.639 121.007 168.602 120.656C168.581 120.446 168.482 120.236 168.312 120.033L168.124 119.811L168.22 119.249L168.442 119.077C168.793 118.842 169.049 118.565 169.207 118.25C169.33 118 169.521 117.214 169.648 116.415C169.83 115.283 170.653 115.283 170.903 115.311C171.341 115.357 171.915 114.774 172.134 114.058C172.226 113.759 172.374 113.025 171.776 112.677L171.474 112.501L171.437 78.3819V78.3634C171.446 78.2123 171.446 78.0735 171.449 77.9409C171.455 77.3919 171.464 76.7688 172.01 76.2723C172.402 75.9145 172.818 75.8805 173.185 75.8466C173.441 75.825 173.685 75.8034 173.969 75.677C174.567 75.4086 174.993 74.8195 175.135 74.3846C175.335 73.7709 175.033 73.1417 174.188 71.6303C172.023 67.7595 166.835 60.4712 162.634 60.4712C162.619 60.4712 162.603 60.4712 162.585 60.4712H162.582H162.563H162.538H162.532C162.529 60.4712 162.526 60.4712 162.523 60.4712C157.69 60.4712 152.804 68.2715 150.926 71.6303C150.081 73.1417 149.782 73.7709 149.979 74.3846C150.121 74.8226 150.546 75.4117 151.145 75.677C151.429 75.8034 151.669 75.825 151.928 75.8466C152.295 75.8775 152.712 75.9145 153.106 76.2723C153.705 76.8151 153.692 77.6109 153.683 78.1907L153.68 78.4004L153.643 112.501L153.341 112.677C152.727 113.038 152.891 113.824 152.989 114.145C153.214 114.885 153.77 115.468 154.201 115.422C154.275 115.416 154.337 115.412 154.393 115.412Z" fill="black"/>
<path d="M162.569 127.25L161.656 126.229C161.52 126.078 161.329 125.989 161.132 125.983C159.87 125.949 158.782 124.996 158.526 123.706L158.01 123.617C157.27 123.49 156.626 123.17 156.144 122.692C155.521 122.072 155.207 121.279 155.284 120.52C155.312 120.264 155.38 120.011 155.494 119.771C155.207 119.499 154.979 119.191 154.812 118.855C154.547 118.321 154.337 117.171 154.263 116.733C153.116 116.807 152.159 115.696 151.808 114.543C151.469 113.429 151.691 112.399 152.403 111.776L152.44 78.3975C152.44 78.3389 152.44 78.2772 152.44 78.2186V78.1723C152.446 77.6942 152.44 77.3951 152.292 77.2594C152.221 77.1946 152.129 77.1761 151.836 77.1514C151.524 77.1236 151.135 77.0897 150.664 76.88C149.64 76.4235 149.023 75.4766 148.804 74.8011C148.4 73.5612 149.01 72.4725 149.852 70.9642C155.599 60.6903 160.265 59.1543 162.535 59.1543H162.649C168.602 59.1543 175.008 70.48 175.277 70.9642C176.122 72.4725 176.729 73.5612 176.325 74.8011C176.106 75.4735 175.489 76.4235 174.465 76.88C173.997 77.0897 173.608 77.1236 173.293 77.1514C172.997 77.1761 172.908 77.1946 172.837 77.2594C172.732 77.355 172.71 77.4598 172.704 77.9564C172.701 78.1014 172.701 78.2556 172.692 78.4222L172.729 111.776C173.432 112.387 173.654 113.386 173.327 114.456C173 115.53 172.066 116.625 170.949 116.625C170.928 116.625 170.906 116.625 170.884 116.625C170.884 116.628 170.884 116.631 170.881 116.634C170.838 116.899 170.61 118.259 170.317 118.852C170.15 119.188 169.922 119.496 169.635 119.768C169.749 120.011 169.817 120.261 169.845 120.517C169.922 121.276 169.608 122.069 168.985 122.689C168.503 123.167 167.859 123.487 167.119 123.614L166.603 123.703C166.347 124.993 165.259 125.949 163.997 125.98C163.8 125.986 163.609 126.075 163.473 126.226L162.569 127.25ZM154.386 116.566L154.399 116.637C154.442 116.896 154.667 118.226 154.945 118.784C155.111 119.12 155.343 119.425 155.636 119.694L155.679 119.734L155.651 119.786C155.531 120.027 155.457 120.28 155.432 120.536C155.361 121.248 155.657 121.991 156.249 122.581C156.709 123.037 157.329 123.342 158.038 123.466L158.655 123.571L158.664 123.623C158.889 124.869 159.929 125.794 161.141 125.828C161.379 125.835 161.607 125.943 161.77 126.125L162.575 127.025L163.38 126.125C163.544 125.943 163.772 125.835 164.009 125.828C165.219 125.798 166.261 124.869 166.483 123.623L166.492 123.571L167.109 123.466C167.819 123.342 168.439 123.037 168.898 122.581C169.487 121.991 169.786 121.248 169.716 120.536C169.691 120.28 169.617 120.027 169.497 119.786L169.469 119.734L169.512 119.694C169.805 119.425 170.036 119.12 170.203 118.784C170.493 118.201 170.727 116.77 170.752 116.609C170.758 116.575 170.764 116.548 170.77 116.526L170.786 116.464L170.847 116.471C171.952 116.551 172.88 115.474 173.204 114.413C173.515 113.392 173.3 112.442 172.624 111.875L172.596 111.85V111.813L172.559 78.4191C172.569 78.2525 172.572 78.1014 172.572 77.9564C172.578 77.4629 172.593 77.2902 172.754 77.1452C172.868 77.0404 173.003 77.0249 173.296 77.0003C173.599 76.9725 173.975 76.9417 174.422 76.7412C175.4 76.3032 175.992 75.3995 176.202 74.7549C176.584 73.5828 175.989 72.5187 175.162 71.0444C174.894 70.5663 168.531 59.3116 162.662 59.3116H162.551C160.308 59.3116 155.7 60.8353 149.991 71.0444C149.168 72.5187 148.572 73.5828 148.952 74.7549C149.161 75.3995 149.751 76.3032 150.731 76.7412C151.179 76.9417 151.555 76.9725 151.857 77.0003C152.15 77.0249 152.286 77.0404 152.4 77.1452C152.594 77.3241 152.604 77.6542 152.597 78.1754V78.2217C152.597 78.2803 152.597 78.342 152.597 78.4006L152.56 111.85L152.533 111.875C151.848 112.455 151.632 113.436 151.959 114.497C152.301 115.613 153.227 116.686 154.328 116.572L154.386 116.566ZM162.569 125.443L162.517 125.384C162.168 124.996 161.675 124.767 161.166 124.752C160.324 124.73 159.645 123.993 159.654 123.108V122.652L158.208 122.402C157.702 122.315 157.273 122.106 156.965 121.8C156.607 121.446 156.425 121.026 156.462 120.65C156.484 120.422 156.589 120.2 156.771 119.984L156.934 119.762L156.848 119.268L156.656 119.142C156.292 118.901 156.027 118.611 155.864 118.284C155.737 118.028 155.543 117.229 155.413 116.427C155.305 115.761 154.877 115.425 154.223 115.496C153.751 115.545 153.174 114.95 152.934 114.167C152.829 113.827 152.659 112.994 153.322 112.609L153.584 112.455L153.625 78.1908C153.634 77.6233 153.643 76.8491 153.072 76.331C152.699 75.9917 152.295 75.9547 151.937 75.9238C151.672 75.8992 151.425 75.8776 151.132 75.748C150.512 75.4735 150.074 74.8597 149.926 74.4094C149.717 73.7648 150.022 73.1263 150.876 71.5934C152.761 68.2253 157.665 60.3973 162.538 60.3973H162.646C166.881 60.3973 172.097 67.7226 174.262 71.5934C175.119 73.1263 175.425 73.7679 175.212 74.4125C175.064 74.8628 174.626 75.4766 174.006 75.7511C173.713 75.8807 173.466 75.9022 173.204 75.9269C172.846 75.9578 172.442 75.9917 172.069 76.3341C171.548 76.809 171.538 77.4136 171.532 77.9441C171.529 78.0829 171.529 78.2217 171.52 78.3697V78.3882L171.557 112.458L171.819 112.612C172.464 112.988 172.306 113.769 172.211 114.086C171.979 114.845 171.381 115.44 170.903 115.391C170.669 115.363 169.901 115.36 169.728 116.43C169.598 117.232 169.404 118.031 169.278 118.287C169.114 118.614 168.849 118.904 168.485 119.145L168.291 119.296L168.207 119.789L168.374 119.984C168.556 120.196 168.658 120.422 168.682 120.65C168.719 121.026 168.537 121.446 168.18 121.8C167.871 122.109 167.439 122.315 166.937 122.402L165.484 122.652L165.49 123.114C165.499 123.993 164.821 124.73 163.979 124.752C163.47 124.764 162.976 124.996 162.628 125.384L162.569 125.443ZM154.393 115.335C155.025 115.335 155.447 115.724 155.558 116.406C155.685 117.183 155.876 117.979 155.993 118.219C156.144 118.522 156.391 118.79 156.734 119.018L156.977 119.182L157.088 119.808L156.882 120.088C156.718 120.283 156.626 120.477 156.607 120.671C156.573 120.998 156.74 121.372 157.064 121.692C157.35 121.976 157.754 122.17 158.229 122.254L159.799 122.525V123.114C159.793 123.916 160.407 124.582 161.169 124.604C161.693 124.616 162.199 124.845 162.572 125.227C162.945 124.845 163.451 124.619 163.976 124.604C164.737 124.582 165.351 123.919 165.342 123.123L165.336 122.528L166.912 122.257C167.387 122.177 167.791 121.982 168.078 121.695C168.402 121.375 168.568 121.001 168.534 120.674C168.516 120.48 168.423 120.286 168.263 120.095L168.05 119.845L168.158 119.219L168.405 119.027C168.75 118.799 168.997 118.531 169.148 118.226C169.265 117.985 169.456 117.189 169.583 116.412C169.737 115.456 170.372 115.178 170.918 115.246C171.329 115.292 171.862 114.728 172.072 114.046C172.158 113.766 172.297 113.075 171.748 112.754L171.409 112.557V112.51L171.372 78.3913V78.3666C171.381 78.2217 171.381 78.0829 171.384 77.9564C171.39 77.3858 171.4 76.7443 171.973 76.223C172.383 75.8498 172.812 75.8128 173.192 75.7789C173.444 75.7573 173.679 75.7357 173.95 75.6154C174.527 75.3594 174.937 74.7888 175.073 74.3693C175.264 73.7864 174.965 73.1664 174.132 71.6798C171.979 67.8336 166.81 60.5577 162.643 60.5577H162.597L162.572 60.4806L162.575 60.5577H162.551C157.739 60.5577 152.872 68.3333 151.003 71.6767C150.17 73.1664 149.874 73.7833 150.062 74.3663C150.198 74.7857 150.608 75.3563 151.185 75.6123C151.456 75.7326 151.694 75.7542 151.944 75.7758C152.323 75.8097 152.755 75.8467 153.165 76.2199C153.788 76.7875 153.776 77.6017 153.769 78.197L153.766 78.4067L153.729 112.55L153.39 112.748C152.823 113.081 152.98 113.821 153.072 114.123C153.285 114.817 153.813 115.388 154.204 115.348C154.272 115.339 154.334 115.335 154.393 115.335Z" fill="white"/>
<path d="M154.685 116.298L153.708 115.585L156.644 113.695C157.939 113.007 159.358 112.782 160.746 113.044L171.782 115.268L170.632 116.285L160.567 114.459C159.401 114.24 158.208 114.429 157.119 115.008L154.685 116.298Z" fill="black"/>
<path d="M161.705 120.409C161.616 120.409 161.527 120.409 161.437 120.409C159.531 120.4 157.606 120.298 155.709 120.101L155.827 118.873C157.683 119.064 159.574 119.166 161.443 119.175C164.083 119.188 166.77 119.015 169.401 118.657L169.552 119.882C166.955 120.233 164.318 120.409 161.705 120.409Z" fill="black"/>
<path d="M174.888 72.5528L175.246 71.3776C172.501 70.4647 169.79 69.7213 167.998 69.3882C167.029 69.2093 166.107 69.0675 165.231 68.9533L164.441 65.5359C167.254 65.7025 169.515 66.0726 170.826 66.3317L171.045 65.1195C169.648 64.845 167.196 64.444 164.151 64.2837L163.272 60.4838C163.201 60.1877 162.967 59.9872 162.683 59.981C162.47 59.8546 162.674 59.981 162.668 59.981C162.144 59.981 162.11 60.0735 161.928 60.6966L160.944 64.222C160.768 64.2251 160.592 64.2251 160.413 64.2312C158.387 64.2806 156.157 64.4656 154.297 64.7463L154.463 65.9677C156.28 65.6963 158.458 65.5143 160.438 65.465C160.49 65.465 160.543 65.465 160.595 65.4619L159.741 68.5277C158.951 68.5061 158.273 68.503 157.73 68.4999C155.722 68.4907 153.705 68.5771 151.725 68.7529L151.826 69.9835C153.773 69.8077 155.756 69.7244 157.727 69.7337C158.192 69.7368 158.754 69.7398 159.402 69.7522L158.735 72.1364C158.652 72.4479 158.609 72.7718 158.606 73.0956L158.603 73.694C157.643 73.8112 156.724 74.0055 155.734 74.3047C154.516 74.6748 152.391 75.6649 151.725 75.9949L152.483 76.9695C153.125 76.6519 154.914 75.8376 156.064 75.4921C156.928 75.23 157.721 75.0511 158.6 74.9339L158.593 76.072C157.656 76.2139 156.734 76.4113 155.833 76.6673C154.781 76.9665 153.927 77.3551 153.242 77.6666C153.116 77.7252 152.992 77.7807 152.875 77.8332L153.338 78.9682C153.458 78.9158 153.584 78.8572 153.714 78.7985C154.399 78.487 155.176 78.1354 156.141 77.8609C156.94 77.6327 157.758 77.4538 158.587 77.3242L158.522 92.6287C158.322 92.6904 158.125 92.7675 157.936 92.8662L152.85 95.1733L153.322 96.3052L158.424 93.9889L158.461 93.9704C158.479 93.9612 158.498 93.955 158.516 93.9457L158.513 94.652C158.39 94.6921 158.266 94.7384 158.146 94.797L153.202 97.1072L153.455 98.4581L158.504 95.9814L158.461 106.117C158.159 106.181 157.859 106.283 157.576 106.431L152.641 109.195L153.199 110.283L158.118 107.529C158.226 107.474 158.341 107.43 158.455 107.39L158.452 108.208C158.174 108.294 157.903 108.411 157.653 108.565L152.619 111.712L152.937 112.865L158.257 109.626C158.618 109.404 159.034 109.284 159.46 109.284H164.765C165.058 109.284 165.342 109.34 165.613 109.448L172.195 112.939L172.578 111.764L166.125 108.337V107.723L171.723 110.305L172.202 109.176L166.125 106.376V96.0307L171.585 98.2484L172.013 97.0979L166.193 94.7322C166.172 94.723 166.147 94.7168 166.125 94.7076V94.0074L171.625 96.185L171.865 94.9142L166.153 92.7027C166.144 92.6997 166.135 92.6966 166.128 92.6935V77.4322C166.289 77.4692 166.443 77.5062 166.607 77.5525C168.568 78.1046 170.505 79.1039 171.554 79.8534L172.22 78.8356C171.088 78.0306 169.009 76.9541 166.915 76.365C166.647 76.2879 166.384 76.2262 166.128 76.1676V75.0079C169.987 75.4829 171.384 76.6704 172.041 77.2286L172.788 76.2725C172.041 75.6402 170.434 74.2769 166.132 73.768V73.256C166.132 72.9722 166.101 72.6885 166.036 72.414L165.536 70.2488C166.261 70.3505 167.014 70.4678 167.8 70.6158C169.537 70.9273 172.189 71.6552 174.888 72.5528ZM162.581 62.7538L162.924 64.2343C162.677 64.2281 162.427 64.222 162.174 64.2189L162.581 62.7538ZM161.829 65.4526C162.301 65.4557 162.76 65.465 163.211 65.4804L163.979 68.8053C162.871 68.6881 161.86 68.6172 160.956 68.574L161.829 65.4526ZM162.865 92.4745H161.706V87.5396H162.865V92.4745ZM161.613 93.7082H162.961H164.944V94.4824H159.695L159.698 93.7082H161.613ZM159.688 95.7161H164.941V106.046C164.845 106.036 164.75 106.033 164.651 106.033H159.645L159.688 95.7161ZM159.636 108.047L159.639 107.267H164.654C164.75 107.267 164.848 107.276 164.944 107.289V108.057C164.885 108.053 164.824 108.047 164.765 108.047H159.636ZM164.944 92.4745H164.05V87.4409C164.05 86.8147 163.562 86.3058 162.961 86.3058H161.613C161.015 86.3058 160.524 86.8147 160.524 87.4409V92.4745H159.704L159.769 77.1669C160.256 77.1176 160.746 77.0806 161.24 77.0621C162.341 77.022 163.55 76.9819 164.941 77.1916V92.4745H164.944ZM164.944 75.9455C163.535 75.7512 162.313 75.7882 161.203 75.8283C160.725 75.8468 160.25 75.8777 159.778 75.9239L159.784 74.8198C160.854 74.7519 162.106 74.755 163.747 74.8136C164.17 74.829 164.568 74.8506 164.947 74.8784V75.9455H164.944ZM164.879 72.6916C164.922 72.8705 164.941 73.0586 164.941 73.2437V73.6415C164.571 73.6138 164.185 73.5922 163.781 73.5799C162.227 73.5243 160.95 73.512 159.784 73.586L159.787 73.1018C159.787 72.889 159.818 72.6761 159.87 72.4787L160.62 69.7923C161.681 69.8385 162.911 69.9249 164.275 70.0791L164.879 72.6916Z" fill="black"/>
<path d="M158.47 123.126C159.106 123.167 159.747 123.204 160.401 123.231C162.625 123.324 164.756 123.324 166.792 123.253" fill="black"/>
<path d="M165.484 122.648L166.209 123.614C165.231 123.648 164.657 123.737 163.673 123.737C162.508 123.737 161.517 123.737 160.361 123.688C159.719 123.66 159.093 123.574 158.442 123.534L158.775 122.497C159.466 122.602 159.793 122.645 160.426 122.67" fill="black"/>
</g>
<mask id="mask1_305_17009" style="mask-type:luminance" maskUnits="userSpaceOnUse" x="34" y="34" width="188" height="188">
<path d="M128.006 221.138C179.53 221.138 221.298 179.369 221.298 127.846C221.298 76.3219 179.53 34.5537 128.006 34.5537C76.4823 34.5537 34.7141 76.3219 34.7141 127.846C34.7141 179.369 76.4823 221.138 128.006 221.138Z" fill="white"/>
</mask>
<g mask="url(#mask1_305_17009)">
<path d="M106.934 162.705C108.501 163.535 110.737 164.79 113.605 165.857C132.404 172.834 156.348 172.825 163.649 172.343C166.283 172.171 171.19 171.853 176.436 171.788C180.474 171.739 187.142 171.656 194.23 172.528C199.923 173.232 208.125 174.829 217.769 178.83L210.355 189.767L195.528 207.56C195.528 207.56 176.251 218.309 175.326 218.497C174.401 218.686 159.201 225.169 159.201 225.169L136.775 229.987H115.459L112.865 228.688L99.334 200.146L106.934 162.705Z" fill="#67C2C2"/>
<path d="M136.84 230.603H115.314L112.399 229.145L112.307 228.953L98.6895 200.223L106.493 161.77L107.773 162.452C109.266 163.251 111.307 164.343 113.821 165.277C135.828 173.444 163.334 171.745 163.609 171.727C166.027 171.566 171.06 171.236 176.43 171.168C180.449 171.119 187.176 171.036 194.307 171.915C202.249 172.895 210.222 175.03 218.007 178.259L218.704 178.549L210.83 190.159L195.929 208.042L195.831 208.097C191.287 210.629 176.396 218.911 175.449 219.099C174.715 219.268 165.475 223.161 159.445 225.733L159.331 225.77L136.84 230.603ZM115.604 229.37H136.707L159.013 224.577C161.684 223.439 174.271 218.078 175.206 217.89C176.082 217.618 187.565 211.295 195.131 207.076L209.864 189.394L216.835 179.113C209.377 176.088 201.75 174.08 194.156 173.142C187.108 172.272 180.434 172.356 176.446 172.405C171.107 172.47 166.098 172.8 163.689 172.96C163.411 172.979 135.643 174.694 113.389 166.437C110.9 165.515 108.877 164.447 107.372 163.642L99.9787 200.072L113.331 228.238L115.604 229.37Z" fill="black"/>
</g>
<mask id="mask2_305_17009" style="mask-type:luminance" maskUnits="userSpaceOnUse" x="34" y="34" width="188" height="188">
<path d="M128.006 221.138C179.53 221.138 221.298 179.369 221.298 127.846C221.298 76.3219 179.53 34.5537 128.006 34.5537C76.4823 34.5537 34.7141 76.3219 34.7141 127.846C34.7141 179.369 76.4823 221.138 128.006 221.138Z" fill="white"/>
</mask>
<g mask="url(#mask2_305_17009)">
<path d="M119.259 228.059C113.013 208.038 105.308 174.888 108.936 136.448C111.036 114.182 116.48 96.0986 118.445 89.4673C126.371 62.7014 145.436 31.2535 149.556 29.446L67.7998 37.126L18.0125 106.653L35.9911 184.15L92.6904 228.059H119.259Z" fill="#E52322"/>
<path d="M120.098 228.676H92.4807L35.439 184.505L35.3897 184.292L17.3494 106.521L17.5128 106.292L67.4606 36.537L153.304 28.4714L149.803 30.0074C148.107 30.7508 142.684 38.1501 135.967 50.3918C131.658 58.2476 123.728 73.7927 119.034 89.64L118.92 90.0225C116.918 96.7741 111.601 114.713 109.546 136.503C107.936 153.56 108.427 171.249 111.002 189.07C112.871 201.999 115.845 215.052 119.845 227.874L120.098 228.676ZM92.9002 227.442H118.42C114.528 214.818 111.622 201.972 109.784 189.249C107.193 171.329 106.703 153.544 108.319 136.389C110.385 114.478 115.727 96.4564 117.738 89.6739L117.853 89.2946C122.578 73.3362 130.554 57.7017 134.887 49.8027C139.912 40.6422 144.757 33.2583 147.632 30.248L68.1391 37.7152L18.6756 106.786L36.5401 183.799L92.9002 227.442Z" fill="black"/>
</g>
<mask id="mask3_305_17009" style="mask-type:luminance" maskUnits="userSpaceOnUse" x="34" y="34" width="188" height="188">
<path d="M128.006 221.138C179.53 221.138 221.298 179.369 221.298 127.846C221.298 76.3219 179.53 34.5537 128.006 34.5537C76.4823 34.5537 34.7141 76.3219 34.7141 127.846C34.7141 179.369 76.4823 221.138 128.006 221.138Z" fill="white"/>
</mask>
<g mask="url(#mask3_305_17009)">
<path d="M110.691 124.644C101.882 123.716 93.1993 122.195 84.742 120.11C91.8452 100.611 83.9648 73.9067 78.3975 59.2315C77.0404 55.6598 75.6741 51.9864 74.3293 48.3191L73.1696 48.7447C74.5174 52.4182 75.8869 56.0947 77.244 59.6725C82.7619 74.2152 90.5899 100.688 83.5391 119.814C79.6868 118.836 75.8807 117.741 72.1332 116.529C60.7644 112.85 50.8297 108.393 43.4026 103.64C39.8988 101.397 36.4937 98.9207 33.2829 96.2805L32.4995 97.2336C35.7473 99.9046 39.1925 102.409 42.7395 104.679C50.253 109.488 60.2863 113.991 71.7539 117.701C75.4798 118.907 79.2612 119.996 83.0919 120.971C82.8328 121.609 82.5552 122.235 82.2622 122.855C69.2031 150.241 38.7206 156.823 32.7401 157.862L32.9529 159.078C39.0352 158.02 70.0544 151.321 83.3757 123.386C83.7057 122.692 84.011 121.988 84.2979 121.273C92.8538 123.392 101.644 124.934 110.561 125.872L110.691 124.644Z" fill="black"/>
</g>
<path d="M128.006 221.755C102.921 221.755 79.3385 211.987 61.6035 194.249C43.8686 176.511 34.0974 152.928 34.0974 127.846C34.0974 102.761 43.8655 79.1781 61.6035 61.4431C79.3416 43.7051 102.924 33.937 128.006 33.937C153.091 33.937 176.674 43.7051 194.409 61.4431C212.147 79.1812 221.915 102.764 221.915 127.846C221.915 152.931 212.147 176.514 194.409 194.249C176.671 211.983 153.088 221.755 128.006 221.755ZM128.006 35.1707C103.251 35.1707 79.98 44.8093 62.4764 62.316C44.9728 79.8227 35.3311 103.094 35.3311 127.846C35.3311 152.601 44.9697 175.872 62.4764 193.376C79.9831 210.879 103.254 220.521 128.006 220.521C152.758 220.521 176.032 210.882 193.536 193.376C211.04 175.872 220.681 152.598 220.681 127.846C220.681 103.091 211.043 79.8196 193.536 62.316C176.032 44.8093 152.758 35.1707 128.006 35.1707Z" fill="black"/>
<path d="M82.3149 25.3102L89.8808 22.2166C91.1423 21.7016 92.2373 21.6152 93.1656 21.9606C94.094 22.3061 94.7479 22.9384 95.1211 23.8544C95.4357 24.6255 95.4666 25.3812 95.2075 26.1307C95.0378 26.6303 94.6862 27.1115 94.1526 27.5772C95.1828 27.4168 96.0341 27.5217 96.7003 27.8887C97.3665 28.2558 97.8693 28.8511 98.2085 29.6807C98.483 30.3562 98.5756 31.0255 98.48 31.6948C98.3843 32.361 98.1283 32.9656 97.7089 33.5022C97.4498 33.8353 96.9964 34.187 96.3487 34.5571C95.4881 35.0475 94.9083 35.3528 94.6091 35.4762L87.6323 38.3292L82.3149 25.3102ZM88.4805 28.7462L90.2386 28.0275C90.8678 27.7684 91.2626 27.4816 91.423 27.1639C91.5803 26.8462 91.5772 26.4854 91.4106 26.0751C91.2564 25.6958 91.0097 25.4521 90.6766 25.338C90.3435 25.227 89.8685 25.2948 89.2578 25.5446L87.475 26.2756L88.4805 28.7462ZM90.5717 33.86L92.632 33.018C93.3291 32.7342 93.7671 32.4104 93.9521 32.0464C94.1372 31.6856 94.1434 31.2969 93.9768 30.8805C93.8195 30.495 93.5512 30.2452 93.1749 30.1249C92.7955 30.0077 92.2527 30.091 91.5464 30.3809L89.4953 31.2198L90.5717 33.86Z" fill="black"/>
<path d="M109.682 28.4808L104.861 29.6405L104.735 32.0587L100.401 33.1012L102.277 18.1884L106.906 17.075L115.357 29.5079L110.913 30.5751L109.682 28.4808ZM108.091 25.7358L105.392 21.1864L105.074 26.4637L108.091 25.7358Z" fill="black"/>
<path d="M115.802 25.0418L119.919 24.425C120.067 25.085 120.292 25.5816 120.601 25.9054C121.097 26.4329 121.764 26.6611 122.596 26.5902C123.216 26.5377 123.682 26.3496 123.994 26.0319C124.305 25.7142 124.444 25.3626 124.41 24.9801C124.379 24.6162 124.191 24.3047 123.845 24.0456C123.5 23.7865 122.735 23.5798 121.548 23.4256C119.604 23.1635 118.192 22.7162 117.319 22.0778C116.437 21.4424 115.95 20.5757 115.854 19.4808C115.792 18.7621 115.943 18.062 116.307 17.3865C116.671 16.711 117.257 16.1528 118.068 15.7117C118.88 15.2737 120.018 14.99 121.483 14.8635C123.281 14.7062 124.681 14.9221 125.684 15.505C126.686 16.088 127.34 17.0996 127.645 18.5369L123.565 19.1322C123.401 18.5123 123.133 18.0712 122.76 17.8152C122.387 17.5592 121.893 17.4574 121.276 17.5099C120.77 17.553 120.4 17.6949 120.16 17.9293C119.922 18.1637 119.817 18.4352 119.842 18.7405C119.86 18.9626 119.984 19.1538 120.212 19.3142C120.434 19.4808 120.934 19.6103 121.717 19.7028C123.654 19.9465 125.051 20.2395 125.912 20.5849C126.769 20.9304 127.414 21.3961 127.843 21.9822C128.271 22.5682 128.518 23.2436 128.583 24.0086C128.66 24.9061 128.484 25.7574 128.049 26.5593C127.615 27.3612 126.967 27.9966 126.106 28.4654C125.246 28.9343 124.132 29.2303 122.769 29.3476C120.376 29.5542 118.676 29.2396 117.677 28.4037C116.668 27.5648 116.045 26.4452 115.802 25.0418Z" fill="black"/>
<path d="M132.312 14.3916L136.67 14.6784L136.322 19.9804L141.235 14.9776L147.03 15.3601L141.537 20.3166L146.339 29.4062L140.973 29.0515L138.379 23.0863L135.973 25.2855L135.748 28.7091L131.39 28.4223L132.312 14.3916Z" fill="black"/>
<path d="M150.985 16.3965L162.403 18.9503L161.749 21.8804L154.599 20.2797L154.112 22.4603L160.743 23.9439L160.117 26.7414L153.486 25.2578L152.881 27.9628L160.238 29.6067L159.544 32.7157L147.919 30.1156L150.985 16.3965Z" fill="black"/>
<path d="M166.092 20.1934L178.488 24.934L177.248 28.1787L173.087 26.5872L169.306 36.4787L165.228 34.918L169.009 25.0265L164.849 23.435L166.092 20.1934Z" fill="black"/>
<path d="M46.0338 186.121L48.8436 189.551L44.8833 192.796L47.9553 196.546L51.9156 193.302L54.7378 196.747L43.4152 206.021L40.593 202.576L45.1733 198.826L42.1013 195.078L37.521 198.829L34.7112 195.399L46.0338 186.121Z" fill="black"/>
<path d="M56.3387 213.874L52.4925 210.623L50.3982 212.017L46.9407 209.094L60.5056 201.395L64.2006 204.516L58.874 219.176L55.327 216.178L56.3387 213.874ZM57.6773 210.864L59.861 205.821L55.2684 208.828L57.6773 210.864Z" fill="black"/>
<path d="M77.5032 213.14L81.3247 215.37L76.9296 222.902C76.4947 223.648 75.9672 224.287 75.3535 224.817C74.7366 225.348 74.0426 225.718 73.2623 225.931C72.485 226.144 71.7695 226.193 71.1156 226.082C70.2057 225.928 69.231 225.548 68.1885 224.941C67.584 224.589 66.9517 224.16 66.2886 223.661C65.6255 223.158 65.1289 222.64 64.7989 222.103C64.4688 221.567 64.2437 220.95 64.1203 220.246C63.9969 219.543 64.0093 218.899 64.1542 218.313C64.3856 217.372 64.6847 216.588 65.0456 215.968L69.4408 208.437L73.2623 210.667L68.7622 218.377C68.3613 219.065 68.2348 219.713 68.3829 220.32C68.5309 220.928 68.938 221.425 69.6043 221.813C70.2643 222.199 70.8935 222.31 71.4919 222.146C72.0902 221.983 72.593 221.551 73.0032 220.851L77.5032 213.14Z" fill="black"/>
<path d="M83.5731 216.508L95.8827 222.008L94.4084 225.308L90.2785 223.463L85.7846 233.528L81.7349 231.717L86.2287 221.653L82.0988 219.809L83.5731 216.508Z" fill="black"/>
<path d="M98.3966 222.708L109.966 225.437L109.247 228.479L102.005 226.77L101.472 229.034L108.189 230.619L107.505 233.525L100.787 231.939L100.124 234.749L107.576 236.507L106.814 239.733L95.0347 236.954L98.3966 222.708Z" fill="black"/>
<path d="M134.459 236.066L134.452 233.194L141.34 233.179L141.352 239.061C140.035 239.924 138.869 240.51 137.858 240.822C136.846 241.134 135.643 241.294 134.252 241.294C132.54 241.297 131.143 241.022 130.063 240.464C128.984 239.909 128.145 239.079 127.55 237.975C126.954 236.874 126.655 235.606 126.652 234.175C126.649 232.67 126.97 231.359 127.618 230.246C128.265 229.132 129.215 228.284 130.464 227.704C131.442 227.257 132.756 227.032 134.409 227.029C136.004 227.026 137.194 227.161 137.987 227.436C138.777 227.711 139.434 228.136 139.958 228.716C140.479 229.296 140.874 230.03 141.139 230.921L136.84 231.665C136.661 231.143 136.362 230.745 135.936 230.471C135.513 230.196 134.974 230.058 134.317 230.061C133.339 230.064 132.562 230.388 131.982 231.038C131.402 231.689 131.115 232.716 131.118 234.123C131.121 235.616 131.417 236.683 132.007 237.321C132.596 237.96 133.413 238.277 134.465 238.274C134.964 238.274 135.439 238.203 135.89 238.065C136.343 237.926 136.858 237.688 137.444 237.355L137.441 236.057L134.459 236.066Z" fill="black"/>
<path d="M144.584 226.295L149.017 225.73L150.762 239.413L146.33 239.977L144.584 226.295Z" fill="black"/>
<path d="M155.91 238.608L152.721 225.188L159.948 223.47C161.289 223.152 162.338 223.019 163.1 223.069C163.862 223.121 164.528 223.392 165.105 223.883C165.681 224.376 166.07 225.049 166.27 225.903C166.446 226.65 166.434 227.328 166.23 227.948C166.027 228.568 165.675 229.114 165.172 229.586C164.852 229.888 164.386 230.184 163.775 230.477C164.33 230.52 164.747 230.594 165.021 230.702C165.206 230.773 165.493 230.955 165.882 231.242C166.27 231.532 166.539 231.76 166.687 231.933L169.709 235.323L164.808 236.485L161.517 232.935C161.098 232.473 160.753 232.192 160.487 232.087C160.126 231.955 159.747 231.933 159.349 232.029L158.967 232.121L160.262 237.568L155.91 238.608ZM158.368 229.592L160.197 229.157C160.395 229.111 160.765 228.96 161.302 228.701C161.576 228.577 161.777 228.38 161.906 228.112C162.036 227.843 162.063 227.563 161.996 227.269C161.894 226.835 161.669 226.539 161.326 226.375C160.984 226.212 160.416 226.224 159.627 226.412L157.721 226.865L158.368 229.592Z" fill="black"/>
<path d="M169.756 227.399C168.778 225.369 168.605 223.507 169.241 221.807C169.876 220.108 171.249 218.747 173.358 217.73C175.521 216.687 177.454 216.437 179.16 216.983C180.866 217.529 182.201 218.8 183.167 220.802C183.867 222.254 184.188 223.568 184.123 224.743C184.061 225.918 183.672 226.998 182.954 227.982C182.235 228.966 181.159 229.805 179.715 230.502C178.25 231.208 176.93 231.572 175.755 231.588C174.58 231.606 173.46 231.273 172.396 230.597C171.332 229.922 170.456 228.852 169.756 227.399ZM173.778 225.477C174.382 226.733 175.061 227.516 175.814 227.828C176.566 228.139 177.362 228.093 178.201 227.689C179.064 227.273 179.601 226.683 179.814 225.918C180.027 225.154 179.799 224.077 179.129 222.686C178.565 221.517 177.905 220.783 177.152 220.481C176.4 220.179 175.598 220.234 174.756 220.641C173.948 221.033 173.429 221.619 173.201 222.405C172.976 223.189 173.167 224.213 173.778 225.477Z" fill="black"/>
<path d="M182.685 213.378L186.127 211.04L194.909 214.3L190.621 207.986L194.097 205.624L201.848 217.032L198.372 219.395L189.647 216.166L193.903 222.43L190.436 224.787L182.685 213.378Z" fill="black"/>
<path d="M196.546 203.381L201.481 198.964C202.453 198.095 203.354 197.518 204.177 197.234C205.001 196.95 205.821 196.87 206.635 196.994C207.45 197.117 208.224 197.41 208.961 197.882C209.698 198.351 210.38 198.937 211.006 199.637C211.99 200.735 212.619 201.703 212.9 202.542C213.18 203.381 213.27 204.214 213.171 205.038C213.072 205.861 212.816 206.58 212.406 207.193C211.845 208.032 211.268 208.717 210.676 209.245L205.741 213.661L196.546 203.381ZM201.95 202.737L206.975 208.353L207.789 207.625C208.483 207.005 208.911 206.49 209.072 206.08C209.232 205.67 209.232 205.207 209.072 204.692C208.908 204.177 208.461 203.508 207.724 202.684C206.749 201.595 205.898 201.016 205.164 200.945C204.433 200.874 203.637 201.225 202.777 201.996L201.95 202.737Z" fill="black"/>
<path d="M208.359 192.114L216.265 183.157L218.473 185.107L213.526 190.714L215.17 192.163L219.759 186.963L221.869 188.826L217.279 194.026L219.318 195.825L224.41 190.054L226.751 192.12L218.704 201.238L208.359 192.114Z" fill="black"/>
</svg>
