<svg width="256" height="256" viewBox="0 0 256 256" fill="none" xmlns="http://www.w3.org/2000/svg">
<path d="M153.894 0.00181024C153.596 0.0102764 153.583 0.0466868 153.417 0.0699082C153.195 0.100991 152.951 0.140266 152.673 0.187797C152.118 0.28286 151.439 0.410176 150.734 0.552795C146.022 1.5069 139.943 3.66131 134.381 6.2749C130.364 8.1623 125.226 9.48188 117.704 10.4118C114.805 10.7702 110.378 10.8451 107.012 10.575C102.292 10.1963 97.1218 10.7498 93.1913 12.2239C92.6734 12.4182 91.67 12.7919 90.9081 13.7014C90.1463 14.6109 90.0206 15.2256 89.7338 15.9732C87.9978 20.4968 86.9563 26.2685 86.9563 31.2467V33.195L86.2887 34.7506C84.9047 37.9763 83.412 42.516 82.7095 45.6932C81.7015 50.2518 81.4441 52.6986 81.433 57.832C81.4209 63.5038 81.7946 66.0285 83.4678 71.5764L84.1921 73.9792L83.8801 74.9902C82.0759 80.8348 81.4398 85.0629 81.4065 91.3945L81.3857 95.3366L80.6872 96.4636C79.1127 99.0046 77.5973 102.122 76.7663 104.641C75.76 107.693 75.397 109.961 75.3537 113.426L75.3341 115.013C74.4459 115.785 73.5822 116.583 72.7287 117.392C70.026 116.475 67.1812 115.653 64.0063 115.475C63.771 115.457 63.5133 115.441 63.2246 115.442C60.0171 115.451 57.1685 116.968 55.3563 119.233C53.467 121.594 52.5408 125.138 54.0489 128.525C53.8171 128.736 53.5836 128.946 53.3769 129.177C52.5043 130.15 51.8792 131.254 51.4208 132.402C51.0501 132.461 50.668 132.496 50.3158 132.593C47.741 133.308 45.2839 135.069 43.8797 137.789C43.7255 138.087 43.6544 138.414 43.5336 138.724C43.4136 138.731 43.3016 138.703 43.1806 138.716L43.1794 138.716L42.9676 138.738L42.7299 138.776L42.7016 138.781C39.3159 139.392 36.8332 141.577 35.7801 144.519C35.0155 146.656 35.166 148.639 35.47 150.083V150.543C31.7635 151.037 28.0541 151.527 24.388 152.09L21.6503 152.511V210.373L65.2816 225.85C80.5196 244.881 103.583 256 128 256C152.417 256 175.481 244.882 190.719 225.85L234.35 210.373V152.511L231.612 152.09C222.397 150.675 213.026 149.505 203.627 148.517C197.232 130.692 184.749 115.682 168.348 106.159C167.988 105.738 165.347 101.97 164.639 100.555C164.459 100.193 164.205 99.56 163.963 98.9996C164.487 98.8511 164.893 98.7336 165.48 98.5691L169.218 97.5221L169.668 97.7011C172.438 98.8002 176.409 100.007 179.108 100.55C183.025 101.337 187.733 101.448 191.234 100.464C198.228 98.4974 203.278 94.333 206.291 87.9644C207.904 84.5558 208.772 80.6132 209.031 76.0795L209.251 72.2289L205.516 69.0892C200.705 65.0445 194.6 58.5002 191.952 54.6597L191.799 54.4372L191.895 54.0268C192.583 51.0888 192.72 48.46 192.232 45.8565C190.923 38.8801 186.858 32.427 179.848 25.4213C175.6 21.1767 170.743 17.2038 164.985 13.2427C164.754 13.0839 164.493 12.8763 164.329 12.7296C164.174 12.4068 163.79 11.6039 163.363 10.6879C162.449 8.72737 161.045 6.48343 159.687 4.56179C159.008 3.60097 158.354 2.74219 157.729 2.03039C157.416 1.67449 157.122 1.35827 156.741 1.03195C156.36 0.705632 156.211 0.0633066 154.304 0.00513209C154.125 -0.000915151 153.993 -0.000608656 153.894 0.00181024ZM161.171 99.8011C161.104 99.8306 161.072 99.8418 161.051 99.8371C161.065 99.8334 161.066 99.8322 161.081 99.8274C161.101 99.8213 161.148 99.8079 161.171 99.8011Z" fill="white"/>
<path d="M24.8777 208.093L76.6825 226.47V177.093L24.8777 208.093Z" fill="#213462"/>
<path d="M72.8095 221.351V182.433L31.9783 206.867L72.8095 221.351Z" fill="#CA232A"/>
<path d="M231.122 208.093L179.317 226.47V177.093L231.122 208.093Z" fill="#213462"/>
<path d="M183.19 221.351V182.433L224.022 206.867L183.19 221.351Z" fill="#CA232A"/>
<path d="M78.542 116.59L78.581 113.466C78.6224 110.158 78.8835 108.526 79.8312 105.652C80.5287 103.538 82.0092 100.458 83.4311 98.1632L84.6084 96.2634L84.6339 91.4113C84.6663 85.2667 85.2197 81.5931 86.9644 75.9412L87.5668 73.9896L86.558 70.6447C84.9133 65.1916 84.6489 63.4068 84.6608 57.8388C84.6717 52.7903 84.8752 50.8469 85.8607 46.3898C86.4874 43.5557 87.9832 38.9872 89.255 36.0231L90.1838 33.8583V31.2466C90.1838 26.7549 91.1991 21.1619 92.7467 17.1292C93.3099 15.6615 93.3527 15.6104 94.3246 15.2459C97.5525 14.0353 102.528 13.4535 106.753 13.7925C110.374 14.0829 114.882 14.0122 118.1 13.6145C125.812 12.6612 131.305 11.2864 135.754 9.19587C141.104 6.68197 147.081 4.58526 151.375 3.71584C152.724 3.44276 153.997 3.2245 154.205 3.23085C155.009 3.25536 158.913 8.78032 160.437 12.051C160.937 13.1241 161.46 14.2275 161.599 14.5031C161.738 14.7786 162.438 15.4077 163.155 15.9011C168.782 19.7716 173.477 23.6165 177.567 27.7036C184.322 34.4541 187.906 40.3011 189.06 46.4513C189.464 48.606 189.373 50.6419 188.752 53.2912L188.331 55.0923L189.295 56.4911C192.256 60.7853 198.366 67.2951 203.439 71.5594L205.936 73.6583L205.808 75.895C205.567 80.1251 204.766 83.6413 203.374 86.584C200.681 92.2755 196.694 95.576 190.36 97.3567C187.939 98.0374 183.05 98.0509 179.744 97.386C177.397 96.9139 173.366 95.6958 170.858 94.701L169.396 94.1209L164.61 95.4612C161.977 96.1983 159.785 96.8328 159.739 96.871C159.603 96.9825 160.917 100.327 161.753 101.998C162.717 103.925 165.085 107.467 166.119 108.528L125.787 118.695L78.542 116.59Z" fill="#213462"/>
<path d="M157.909 104.624C157.909 104.543 157.136 102.907 156.193 100.988C154.62 97.7914 154.438 97.5086 154.026 97.6205C153.778 97.6877 152.075 97.8381 150.242 97.9549C146.179 98.2137 141.992 97.9622 138.473 97.2465C131.432 95.8156 124.945 92.3878 120.282 87.6343C118.717 86.0386 115.171 81.5415 115.171 81.1618C115.171 81.0639 116.596 82.5516 117.591 83.498C123.1 88.7403 130.64 91.8943 139.651 92.7255C142.738 93.0102 148.721 92.862 151.963 92.4205C155.484 91.941 161.753 90.637 161.68 90.3993C161.58 90.0735 153.579 85.9452 152.118 85.4656C150.375 84.8933 147.769 84.9967 145.736 85.1015L144.446 85.168L146.52 84.0228C148.536 82.9106 150.16 82.6285 152.055 82.6322C154.346 82.6371 155.544 83.006 161.559 85.5624C164.595 86.853 168.44 88.4526 170.103 89.117C171.766 89.7814 173.489 90.4864 173.933 90.6837C177.325 92.193 181.859 93.3158 185.138 93.458C188.868 93.6198 190.953 92.9935 193.472 90.9544C194.612 90.0316 196.813 87.6287 196.808 87.313C196.806 87.231 196.259 86.9021 195.593 86.582C193.85 85.7451 191.731 83.7123 190.952 82.1288C190.184 80.5696 190.132 79.7198 190.745 78.7282C191.322 77.7944 192.36 77.2598 195.476 76.2898C196.794 75.8799 198.361 75.3126 198.96 75.0292L200.048 74.5139L196.861 71.2655C191.052 65.3446 186.494 58.9988 182.658 51.4901C181.465 49.1551 181.416 49.0924 181.243 49.6762C180.988 50.5389 181.221 53.4339 181.695 55.3011C181.917 56.1778 182.066 56.9284 182.025 56.9692C181.854 57.1403 180.118 54.57 179.142 52.7008C176.45 47.5428 175.05 41.8256 174.663 34.4033L174.515 31.5787L172.209 29.3366C164.265 21.6167 155.271 17.506 141.287 15.2041C137.344 14.5552 136.806 14.5707 134.412 15.4025C131.747 16.3282 128.942 17.0184 125.76 17.5318C124.318 17.7643 122.972 18.0203 122.768 18.1009C122.479 18.2147 122.884 18.5103 124.582 19.4255C125.784 20.0736 127.402 21.0112 128.178 21.5091C130.196 22.8036 133.761 25.4167 133.655 25.5229C133.606 25.5723 132.081 25.1468 130.267 24.5773C120.811 21.6081 113.576 20.3501 105.965 20.3518C102.353 20.3526 99.2513 20.6602 97.9795 21.1436C97.6295 21.2767 97.2499 21.7904 96.7492 22.8086C95.0813 26.2006 94.3622 31.6387 94.7858 37.6567C95.0742 41.7533 95.4782 44.6085 96.1412 47.2356C96.4179 48.332 96.6065 49.2668 96.5603 49.313C96.4415 49.4318 94.2116 46.2795 93.414 44.865C92.9528 44.0473 92.7007 43.7671 92.5978 43.958C92.3708 44.3794 91.6646 47.5995 91.2553 50.0793C90.7314 53.2529 90.7366 62.4775 91.2638 65.3969C92.6295 72.9592 94.9516 78.8355 98.9095 84.7455C100.924 87.7537 103.017 90.227 106.307 93.487L109.433 96.5853L107.518 95.4116C105.045 93.896 102.818 92.3192 100.751 90.6065C97.9387 88.2764 95.4231 85.695 92.9903 82.6745C92.3407 81.868 91.7401 81.2066 91.6557 81.2047C91.1777 81.1938 90.3887 88.3171 90.3927 92.6058C90.3976 97.8963 90.838 101.207 92.041 105.001C92.7083 107.106 92.7794 107.271 92.9738 107.171L125.741 113.526L157.909 104.624Z" fill="white"/>
<path d="M152.812 10.9281C153.668 9.58517 153.977 8.94387 153.788 8.90176C153.041 8.73542 145.969 11.6992 146.301 12.0395C146.463 12.205 150.01 12.8396 150.955 12.8721C151.507 12.891 151.669 12.7211 152.812 10.9281Z" fill="#C0C8CF"/>
<path d="M94.275 107.424C94.2611 106.67 94.2401 105.916 94.2429 105.164C94.2475 103.915 94.281 102.67 94.3633 101.428C94.4456 100.187 94.5761 98.9511 94.7756 97.7215C94.975 96.4919 95.2433 95.2691 95.5995 94.0549C95.9556 92.8407 96.4 91.6347 96.9522 90.4399C97.2284 89.8425 97.5312 89.2479 97.8638 88.6561C97.9471 88.5078 98.0496 88.3615 98.1367 88.2136C96.3498 86.5146 94.6355 84.7167 92.9903 82.6743C92.3408 81.8678 91.7402 81.2062 91.6558 81.2044C91.1779 81.1934 90.3885 88.317 90.3926 92.6057C90.3975 97.8963 90.838 101.207 92.041 105.001C92.7083 107.105 92.7796 107.271 92.974 107.171L94.275 107.424Z" fill="#798A9A"/>
<path d="M97.6507 21.4385C97.3858 21.6981 97.1024 22.09 96.7493 22.8082C95.0813 26.2001 94.362 31.6382 94.7856 37.6562C95.074 41.7527 95.478 44.6083 96.1409 47.2353C96.4176 48.3317 96.6063 49.2667 96.5601 49.3129C96.4413 49.4317 94.2116 46.2791 93.4139 44.8647C92.9528 44.0469 92.7005 43.7667 92.5976 43.9576C92.3706 44.379 91.6648 47.599 91.2555 50.0787C90.7317 53.2523 90.7365 62.4769 91.2637 65.3964C92.6295 72.9587 94.9516 78.8349 98.9096 84.7449C100.924 87.7532 103.017 90.2269 106.306 93.487L109.433 96.585L107.518 95.4114C103.956 93.2281 100.935 90.8739 98.1367 88.2136C98.0496 88.3616 97.9471 88.5078 97.8638 88.6561C97.5312 89.2479 97.2284 89.8426 96.9522 90.44C96.4 91.6347 95.9556 92.8407 95.5995 94.0549C95.2433 95.2691 94.975 96.4919 94.7756 97.7215C94.5761 98.9511 94.4456 100.187 94.3633 101.428C94.281 102.67 94.2475 103.915 94.2429 105.164C94.24 105.916 94.2611 106.67 94.275 107.424L122.719 112.94C122.182 111.706 121.635 110.45 121.323 110.008C119.891 107.978 118.405 106.04 116.902 104.16C115.398 102.28 113.878 100.457 112.376 98.6594C110.873 96.8616 109.39 95.088 107.961 93.3042C106.532 91.5203 105.158 89.7263 103.874 87.8884C103.233 86.9694 102.614 86.0394 102.022 85.0941C101.431 84.1489 100.866 83.1885 100.334 82.2085C99.8009 81.2285 99.2999 80.2289 98.8352 79.2056C98.3705 78.1823 97.9425 77.1353 97.5549 76.0603C97.1672 74.9852 96.8201 73.882 96.5185 72.7466C96.2169 71.6112 95.9604 70.4437 95.7539 69.2395C95.5474 68.0353 95.3911 66.7945 95.2887 65.513C95.1863 64.2314 95.138 62.9093 95.1487 61.5419C95.1602 60.0855 95.289 58.1579 95.5263 56.0694C95.645 55.0251 95.7906 53.9408 95.9625 52.8547C96.1345 51.7686 96.3326 50.6804 96.5557 49.6299C96.7789 48.5794 97.0273 47.5663 97.2996 46.6289C97.5718 45.6915 97.8679 44.8299 98.1871 44.083C98.5064 43.3362 98.8487 42.7042 99.2128 42.2255C99.3948 41.9861 99.5822 41.7851 99.775 41.6273C99.9679 41.4694 100.166 41.3548 100.369 41.2882C101.836 41.9665 103.116 42.445 104.253 42.7789C105.391 43.1128 106.387 43.3019 107.287 43.4004C108.186 43.4989 108.99 43.5071 109.743 43.4792C110.495 43.4512 111.197 43.3871 111.895 43.3418C111.47 43.1851 111.051 42.9965 110.636 42.7776C110.222 42.5587 109.813 42.3092 109.41 42.032C108.603 41.4775 107.819 40.8105 107.062 40.0464C106.305 39.2823 105.575 38.4214 104.874 37.4791C104.174 36.5367 103.503 35.5131 102.866 34.4239C102.23 33.3346 101.626 32.1801 101.06 30.9754C100.494 29.7706 99.9641 28.5156 99.4756 27.2268C98.9871 25.938 98.5398 24.6149 98.1361 23.2734C97.9538 22.6677 97.8146 22.0502 97.6507 21.4385Z" fill="#C0C8CF"/>
<path d="M144.446 85.1679C143.833 85.567 143.221 85.9195 142.608 86.2288C141.995 86.538 141.381 86.8038 140.768 87.0293C140.154 87.2548 139.541 87.4405 138.927 87.5884C138.313 87.7363 137.7 87.8467 137.086 87.9231C136.473 87.9995 135.859 88.042 135.246 88.053C134.632 88.064 134.019 88.0433 133.405 87.995C132.179 87.8984 130.954 87.6895 129.73 87.3924C128.506 87.0952 127.284 86.7098 126.064 86.2609C124.844 85.812 123.627 85.2993 122.413 84.7475C119.985 83.6439 117.568 82.3837 115.171 81.1616C115.171 81.0637 116.596 82.5511 117.591 83.4976C123.1 88.7399 130.64 91.8944 139.651 92.7256C142.738 93.0103 148.721 92.862 151.962 92.4205C155.484 91.941 161.753 90.6367 161.68 90.399C161.58 90.0732 153.579 85.945 152.118 85.4655C150.375 84.8931 147.769 84.9963 145.736 85.1011L144.446 85.1679Z" fill="#C0C8CF"/>
<path d="M115.171 81.1616C115.419 82.2227 115.725 83.2752 116.078 84.3202C116.432 85.3652 116.832 86.4026 117.272 87.434C117.713 88.4655 118.192 89.4907 118.702 90.5113C119.212 91.5319 119.752 92.5478 120.313 93.5602C121.437 95.5849 122.647 97.5961 123.874 99.6038C125.1 101.611 126.344 103.616 127.534 105.627C127.918 106.276 129.974 109.872 131.198 112.016L157.909 104.624C157.909 104.543 157.136 102.907 156.192 100.987C154.62 97.791 154.438 97.5083 154.026 97.6201C153.778 97.6873 152.075 97.8381 150.242 97.9548C146.179 98.2136 141.991 97.9621 138.472 97.2464C131.432 95.8155 124.945 92.3879 120.282 87.6345C118.717 86.0387 115.171 81.5413 115.171 81.1616Z" fill="#798A9A"/>
<path d="M137.269 14.7475C136.342 14.7743 135.609 14.9865 134.412 15.4024C131.747 16.3281 128.942 17.0183 125.76 17.5317C124.319 17.7642 122.972 18.0203 122.768 18.1009C122.479 18.2147 122.884 18.5099 124.581 19.4252C125.784 20.0732 127.402 21.0112 128.178 21.5091C130.196 22.8036 133.761 25.4161 133.655 25.5224C133.419 25.0259 133.227 24.5559 133.077 24.1098C132.927 23.6637 132.819 23.2417 132.751 22.8428C132.682 22.444 132.651 22.0681 132.657 21.7133C132.663 21.3585 132.705 21.0249 132.78 20.7111C132.854 20.3972 132.962 20.1027 133.099 19.8267C133.237 19.5507 133.404 19.2934 133.598 19.052C133.793 18.8107 134.014 18.5855 134.259 18.3757C134.504 18.1659 134.773 17.9714 135.063 17.7901C135.44 17.5545 135.875 17.3622 136.364 17.2077C136.854 17.0532 137.399 16.9368 137.996 16.8528C138.594 16.7689 139.245 16.7173 139.946 16.6934C140.647 16.6694 141.398 16.6729 142.197 16.6984C143.796 16.7494 145.587 16.8888 147.551 17.0741C148.746 17.1868 150.121 17.3333 151.44 17.4705C148.353 16.5686 145.006 15.8161 141.287 15.2039C139.316 14.8794 138.196 14.7208 137.269 14.7475Z" fill="#C0C8CF"/>
<path d="M88.9607 109.778C88.9522 109.404 86.2338 102.912 86.0385 102.847C85.4843 102.662 83.2018 107.295 82.5037 110.022C82.1262 111.496 81.9848 114.313 82.2664 114.313C83.3645 113.468 84.5679 112.877 85.7374 112.22C86.8889 111.574 88.0075 110.862 88.9607 109.778Z" fill="#8798A3"/>
<path d="M168.767 64.3936C168.147 71.6385 160.867 73.8827 155.367 74.0061C152.502 74.0704 149.817 73.3326 147.296 71.509C141.013 66.8657 141.372 63.6775 139.855 57.1167C139.28 55.4377 137.461 54.433 134.26 54.5238C136.192 52.7112 138.662 52.1544 141.506 52.47C139.568 50.8714 137.424 49.4306 132.915 50.4021L143.058 44.6541L168.767 64.3936Z" fill="#C0C8CF"/>
<path d="M190.364 79.9066L189.316 80.4745C188.703 80.8469 188.05 81.234 187.46 81.5284C187.165 81.6756 186.887 81.7999 186.637 81.8871C186.387 81.9742 186.166 82.0245 185.987 82.0245C185.599 82.0245 185.19 81.9265 184.744 81.7225C184.297 81.5186 183.812 81.2085 183.274 80.7852C182.665 80.3074 181.671 79.7291 180.574 79.1899C179.477 78.6507 178.277 78.1506 177.259 77.829C175.988 77.4278 174.265 77.0066 172.729 76.695C171.961 76.5393 171.24 76.4109 170.645 76.3263C170.051 76.2417 169.584 76.2001 169.324 76.2191C169.13 76.2333 168.992 76.2489 168.935 76.2778C168.877 76.3066 168.899 76.3489 169.025 76.4183C169.277 76.5572 169.943 76.8031 171.212 77.2598C172.709 77.7986 174.595 78.5434 175.405 78.9144C175.995 79.1852 176.728 79.5877 177.489 80.0446C178.25 80.5015 179.04 81.0126 179.747 81.5C180.453 81.9875 181.076 82.4513 181.502 82.8136C181.715 82.9948 181.878 83.1505 181.979 83.2713C182.08 83.392 182.117 83.4775 182.077 83.5184C182.011 83.5858 180.833 83.0683 179.457 82.368C178.019 81.6356 176.638 81.0386 175.203 80.5375C173.768 80.0364 172.277 79.6311 170.62 79.2825C169.564 79.0605 167.786 78.8351 166.303 78.6995C165.561 78.6317 164.894 78.5867 164.427 78.5753C163.96 78.564 163.693 78.5864 163.755 78.6547C163.811 78.7166 165.231 79.1338 166.911 79.5813C168.712 80.0612 170.319 80.572 171.839 81.1552C173.36 81.7385 174.795 82.3938 176.251 83.1635C177.277 83.7054 178.31 84.3191 179.067 84.8175C179.445 85.0666 179.753 85.2873 179.958 85.4554C180.162 85.6234 180.263 85.7391 180.223 85.7793C180.179 85.8227 179.018 85.4088 177.643 84.8591C176.433 84.3751 175.239 83.9508 174.04 83.582C172.841 83.2133 171.636 82.8996 170.401 82.6359C169.166 82.3722 167.901 82.1585 166.583 81.9898C165.264 81.8211 163.893 81.6974 162.444 81.6135C160.56 81.5044 158.771 81.3872 158.469 81.3525C158.261 81.3288 158.136 81.3277 158.082 81.3563C158.029 81.385 158.047 81.4431 158.124 81.5366C158.237 81.6726 159.164 81.936 160.185 82.1215C161.465 82.3542 163.935 82.9398 166.404 83.5738C168.873 84.2078 171.342 84.8904 172.623 85.3154C173.62 85.6463 174.593 86.0035 175.49 86.3624C176.387 86.7213 177.209 87.0816 177.905 87.4194C178.602 87.7573 179.172 88.0725 179.566 88.3404C179.764 88.4743 179.916 88.5962 180.019 88.7034C180.122 88.8107 180.174 88.9032 180.17 88.9776C180.164 89.0734 180.078 89.1895 179.935 89.313C179.792 89.4364 179.592 89.5673 179.357 89.6937C178.888 89.9464 178.282 90.1799 177.721 90.2963C177.388 90.3654 176.976 90.4098 176.553 90.4267C176.129 90.4437 175.694 90.4333 175.315 90.3927C174.91 90.3494 174.598 90.3347 174.383 90.3461C174.168 90.3574 174.049 90.3948 174.034 90.4564L173.973 90.699C177.361 92.1998 181.872 93.3163 185.138 93.458C188.868 93.6198 190.953 92.9934 193.472 90.9543C194.612 90.0315 196.813 87.6286 196.808 87.3129C196.807 87.231 196.259 86.9019 195.592 86.5817C193.85 85.7449 191.731 83.7119 190.952 82.1285C190.49 81.1899 190.318 80.5167 190.364 79.9066Z" fill="#C0C8CF"/>
<path d="M184.61 46.3931C184.604 44.722 184.309 43.9039 183.346 42.8738C182.788 42.2782 182.322 42.1748 181.935 42.5614C181.505 42.9911 181.659 43.5849 182.846 46.0746C183.87 48.2238 184.048 48.485 184.313 48.2335C184.532 48.0263 184.614 47.5193 184.61 46.3931Z" fill="white"/>
<path d="M106.571 40.1362C103.631 37.687 101.382 34.6673 100.084 31.4247C98.8397 28.3176 97.9551 24.5856 98.3977 24.3121C98.5082 24.2437 99.88 24.0914 101.446 23.9736C107.462 23.521 115.039 24.6131 122.333 26.9838L124.752 27.77L122.495 27.789C118.73 27.8208 112.779 28.8184 110.826 29.745C110.02 30.1273 109.13 31.4637 108.493 33.2498C108.077 34.4147 108.025 34.9229 108.024 37.8351C108.023 39.6365 107.959 41.1103 107.881 41.1103C107.804 41.1102 107.215 40.6719 106.571 40.1362Z" fill="#213462"/>
<path d="M153.676 70.0205C149.796 69.1845 146.547 67.0105 144.6 63.9478C143.561 62.3129 143.136 60.549 143.228 58.2536C143.302 56.4091 143.366 56.1551 144.148 54.5864C144.61 53.6594 145.41 52.4227 145.925 51.8381C146.487 51.201 146.817 50.6562 146.748 50.4781C146.587 50.0578 144.951 48.9421 143.835 48.4915C142.596 47.9914 139.759 47.9638 137.954 48.4343C137.233 48.6221 135.805 49.1785 134.779 49.6708C133.754 50.163 132.915 50.4922 132.915 50.4023C132.915 50.3124 133.527 49.6948 134.275 49.0299C138.649 45.1437 142.449 43.3209 145.613 43.5914C147.333 43.7384 147.991 44.0376 150.155 45.6558C152.438 47.3634 153.361 48.1493 158.833 53.0435C166.949 60.3023 169.113 61.8891 172.925 63.38C174.795 64.1111 174.783 64.1006 174.118 64.4491C173.195 64.9325 171.607 65.2912 170.377 65.2938C169.157 65.2962 169.14 65.306 166.206 67.5415C164.799 68.6136 162.499 69.6326 160.557 70.0443C158.87 70.4017 155.389 70.3897 153.676 70.0205Z" fill="#213462"/>
<path d="M155.33 63.7281C157.023 63.7281 158.396 62.3554 158.396 60.6621C158.396 58.9689 157.023 57.5962 155.33 57.5962C153.636 57.5962 152.264 58.9689 152.264 60.6621C152.264 62.3554 153.636 63.7281 155.33 63.7281Z" fill="white"/>
<path d="M128 249.222C168.641 249.222 201.587 216.279 201.587 175.64C201.587 135.002 168.641 102.058 128 102.058C87.3587 102.058 54.4126 135.002 54.4126 175.64C54.4126 216.279 87.3587 249.222 128 249.222Z" fill="white"/>
<path d="M65.3603 135.809C57.7886 147.715 53.7672 161.531 53.7671 175.64C53.767 189.749 57.7882 203.566 65.3596 215.472L128 175.64L65.3603 135.809ZM128 175.64L190.639 215.472C198.211 203.566 202.233 189.749 202.233 175.64C202.233 161.532 198.211 147.715 190.64 135.809L128 175.64Z" fill="#C0C8CF"/>
<path d="M128 98.5083C107.542 98.5083 87.9215 106.635 73.4554 121.1C58.9893 135.565 50.8623 155.184 50.8623 175.64C50.8623 196.097 58.9893 215.716 73.4554 230.181C87.9215 244.646 107.542 252.772 128 252.772C138.13 252.772 148.16 250.777 157.519 246.901C166.878 243.025 175.381 237.343 182.544 230.181C189.707 223.019 195.389 214.516 199.266 205.158C203.142 195.799 205.137 185.769 205.137 175.64C205.137 165.511 203.142 155.481 199.266 146.123C195.389 136.765 189.707 128.262 182.544 121.1C175.381 113.937 166.878 108.256 157.519 104.38C148.16 100.503 138.13 98.5083 128 98.5083ZM128 103.349C137.494 103.349 146.895 105.219 155.666 108.852C164.438 112.485 172.408 117.81 179.121 124.523C185.834 131.236 191.16 139.205 194.793 147.976C198.426 156.747 200.296 166.147 200.296 175.64C200.296 194.813 192.679 213.201 179.121 226.758C165.563 240.315 147.174 247.932 128 247.932C108.826 247.932 90.4368 240.315 76.8787 226.758C63.3205 213.201 55.7036 194.813 55.7036 175.64C55.7036 166.147 57.5736 156.747 61.2068 147.976C64.84 139.205 70.1653 131.236 76.8787 124.523C83.592 117.81 91.5619 112.485 100.333 108.852C109.105 105.219 118.506 103.349 128 103.349Z" fill="#213462"/>
<path d="M128 224.451C154.959 224.451 176.814 202.598 176.814 175.64C176.814 148.683 154.959 126.83 128 126.83C101.041 126.83 79.1861 148.683 79.1861 175.64C79.1861 202.598 101.041 224.451 128 224.451Z" fill="#CA232A"/>
<path d="M128 126.83C127.569 126.83 127.139 126.836 126.709 126.847V213.48C123.883 213.445 120.894 213.29 117.803 212.845C117.529 211.327 116.886 209.609 115.847 207.615C114.009 204.089 110.891 199.631 106.019 193.742H106.017C96.4025 182.129 91.4448 170.52 94.0971 155.765C95.3266 148.925 97.2754 141.205 104.919 132.632C102.677 133.835 100.533 135.211 98.5059 136.747C94.0734 143.536 92.5345 149.857 91.5548 155.307C88.7595 170.858 94.1475 183.452 104.03 195.388H104.027C108.835 201.2 111.863 205.557 113.557 208.808C114.282 210.197 114.753 211.371 115.034 212.365C111.225 211.6 107.298 210.342 103.365 208.276C95.1423 203.958 86.833 196.12 79.5695 181.745C79.9371 184.661 80.5673 187.537 81.4524 190.34C87.8928 200.564 95.0215 206.811 102.164 210.561C106.628 212.905 111.078 214.266 115.341 215.052C115.325 215.197 115.304 215.336 115.275 215.467C114.982 216.799 114.091 217.684 112.595 218.611C111.557 219.254 110.262 219.864 108.889 220.555C109.962 221.011 111.051 221.429 112.153 221.807C112.77 221.489 113.379 221.163 113.955 220.805C115.719 219.713 117.308 218.239 117.796 216.021C117.836 215.837 117.867 215.649 117.892 215.459C120.977 215.878 123.94 216.029 126.709 216.063V224.434C127.139 224.445 127.569 224.451 128 224.451C128.43 224.451 128.861 224.445 129.291 224.434V216.063C132.06 216.029 135.023 215.878 138.108 215.459C138.134 215.649 138.164 215.837 138.204 216.021C138.692 218.239 140.281 219.713 142.045 220.805C142.622 221.163 143.23 221.489 143.847 221.807C144.949 221.429 146.038 221.011 147.11 220.555C145.738 219.864 144.443 219.254 143.406 218.611C141.909 217.684 141.018 216.799 140.725 215.467C140.696 215.336 140.676 215.197 140.66 215.052C144.922 214.266 149.373 212.905 153.836 210.561C160.978 206.811 168.106 200.565 174.546 190.344C175.431 187.541 176.062 184.664 176.43 181.748C169.166 196.121 160.857 203.959 152.635 208.276C148.702 210.342 144.776 211.6 140.967 212.365C141.248 211.371 141.719 210.197 142.443 208.808C144.137 205.557 147.165 201.2 151.973 195.388H151.971C161.853 183.452 167.241 170.858 164.445 155.307C163.466 149.857 161.927 143.537 157.495 136.749C155.468 135.212 153.325 133.836 151.083 132.633C158.726 141.205 160.674 148.925 161.904 155.765C164.556 170.52 159.598 182.129 149.984 193.742H149.982C145.11 199.631 141.991 204.089 140.153 207.615C139.114 209.609 138.472 211.327 138.197 212.845C135.106 213.29 132.117 213.445 129.291 213.48V126.847C128.861 126.836 128.43 126.83 128 126.83Z" fill="white"/>
<path d="M127.98 124.972C114.544 124.977 101.661 130.318 92.1622 139.819C82.6638 149.321 77.3279 162.206 77.3279 175.64C77.3279 189.078 82.6665 201.966 92.1694 211.468C101.672 220.97 114.561 226.309 128 226.309C141.439 226.309 154.328 220.97 163.83 211.468C173.333 201.966 178.672 189.078 178.672 175.64C178.672 162.202 173.333 149.315 163.83 139.812C154.328 130.31 141.439 124.972 128 124.972C127.993 124.972 127.986 124.972 127.98 124.972ZM127.841 128.199C127.894 128.199 127.947 128.199 128 128.199C134.23 128.199 140.4 129.426 146.156 131.81C151.912 134.195 157.143 137.689 161.548 142.094C165.954 146.5 169.449 151.73 171.833 157.485C174.217 163.241 175.444 169.41 175.444 175.64C175.444 188.222 170.446 200.289 161.548 209.186C152.651 218.083 140.583 223.081 128 223.081C115.417 223.081 103.349 218.083 94.4516 209.186C85.554 200.289 80.5554 188.222 80.5554 175.64C80.5553 163.086 85.5321 151.043 94.3954 142.15C103.259 133.258 115.285 128.241 127.841 128.199Z" fill="#213462"/>
<path d="M87.1342 140.235L81.9987 135.035L88.0312 129.078L93.1667 134.277L95.07 132.398L84.1107 121.302L82.2075 123.182L86.3529 127.379L80.3204 133.336L76.175 129.139L74.2718 131.019L85.231 142.114L87.1342 140.235Z" fill="#213462"/>
<path d="M100.105 118.809L94.8453 121.686L92.9886 118.291L101.747 113.501L100.601 111.406L89.4956 117.48L96.9798 131.161L108.588 124.812L107.442 122.717L98.1805 127.783L95.9914 123.781L101.251 120.904L100.105 118.809Z" fill="#213462"/>
<path d="M111.915 124.045L110.558 118.206L115.956 116.953L120.569 122.035L123.57 121.338L118.503 115.993C120.331 114.784 121.319 112.912 120.843 110.865C120.573 109.702 119.882 108.735 118.925 108.099C117.705 107.279 116.18 107.045 114.156 107.515L105.78 109.46L109.309 124.651L111.915 124.045ZM114.696 109.841C115.51 109.652 116.364 109.527 117.258 110.104C117.751 110.431 118.102 110.889 118.237 111.47C118.54 112.773 117.625 114.113 116.253 114.432L110.018 115.88L108.926 111.181L114.696 109.841Z" fill="#213462"/>
<path d="M140.769 122.636L142.106 107.098L139.489 106.873L133.299 115.569L133.251 115.565L128.638 105.94L125.902 105.704L124.564 121.242L127.11 121.461L128.02 110.896L128.139 110.906L132.553 120.059L132.981 120.096L138.894 111.832L139.013 111.841L138.104 122.406L140.769 122.636Z" fill="#213462"/>
<path d="M145.356 124.583L150.01 109.699L147.457 108.9L142.803 123.785L145.356 124.583Z" fill="#213462"/>
<path d="M165.089 116.709L159.907 126.206L159.886 126.195L157.164 112.385L155.088 111.253L147.618 124.943L149.967 126.224L155.149 116.727L155.17 116.738L157.892 130.547L159.967 131.68L167.437 117.99L165.089 116.709Z" fill="#213462"/>
<path d="M174.418 132.589L170.146 128.384L172.86 125.627L179.975 132.629L181.65 130.928L172.629 122.048L161.689 133.162L171.118 142.444L172.794 140.742L165.27 133.337L168.47 130.086L172.743 134.291L174.418 132.589Z" fill="#213462"/>
<path d="M86.7882 231.243C88.5425 232.644 89.7325 232.8 90.7769 232.717C92.224 232.589 93.2529 231.913 93.9683 231.017C95.1606 229.524 95.3567 227.633 94.2066 226.165C95.367 226.51 96.8436 226.039 97.7379 224.92C98.3341 224.173 98.5571 223.282 98.4519 222.342C98.3316 221.268 97.7524 220.041 96.3714 218.938L88.9997 213.052L79.2672 225.237L86.7882 231.243ZM91.2298 225.835C91.8457 226.327 92.1782 227.02 92.2385 227.71C92.2838 228.266 92.1574 228.807 91.7997 229.255C91.442 229.703 90.8827 230.02 90.3121 230.084C89.6408 230.159 88.9318 229.899 88.3533 229.437L82.8478 225.04L85.7244 221.439L91.2298 225.835ZM94.657 220.626C95.2356 221.088 95.5791 221.576 95.6468 222.18C95.6994 222.65 95.5693 223.157 95.2414 223.568C94.8837 224.016 94.3394 224.315 93.7687 224.378C93.1645 224.446 92.6272 224.2 92.1233 223.798L87.0657 219.759L89.5995 216.587L94.657 220.626Z" fill="#213462"/>
<path d="M92.6264 236.405L95.2132 237.462L98.5277 234.275L105.404 237.085L105.56 241.689L108.28 242.8L107.48 225.627L105.225 224.706L92.6264 236.405ZM105.009 228.074L105.142 228.129L105.332 234.734L100.225 232.647L105.009 228.074Z" fill="#213462"/>
<path d="M125.43 231.332C124.311 230.215 121.829 228.624 118.556 228.239C115.709 227.904 112.189 228.597 111.757 232.273C111.316 236.02 115.172 236.763 118.56 237.401C121.239 237.933 122.971 238.545 122.742 240.49C122.536 242.246 120.617 242.813 118.316 242.543C114.853 242.135 112.866 240.219 111.743 238.932L109.912 240.592C111.46 242.362 113.918 244.358 117.998 244.838C121.698 245.273 125 244.195 125.44 240.447C125.948 236.13 121.617 235.332 118.864 234.816C116.536 234.374 114.243 234.032 114.441 232.348C114.634 230.712 116.34 230.311 118.19 230.529C121.037 230.864 122.838 232.109 123.6 232.993L125.43 231.332Z" fill="#213462"/>
<path d="M129.817 228.729L127.154 228.978L128.605 244.506L131.268 244.257L130.813 239.382L133.678 236.164L140.614 243.383L144.062 243.061L135.438 234.201L141.231 227.663L137.926 227.972L130.535 236.41L129.817 228.729Z" fill="#213462"/>
<path d="M153.35 229.797L147.886 232.262L146.295 228.736L155.394 224.63L154.412 222.453L142.874 227.659L149.288 241.874L161.349 236.432L160.367 234.255L150.744 238.597L148.868 234.439L154.332 231.974L153.35 229.797Z" fill="#213462"/>
<path d="M157.327 223.963L162.102 220.106L170.402 230.379L172.483 228.698L164.183 218.425L168.939 214.583L167.438 212.725L155.826 222.105L157.327 223.963Z" fill="#213462"/>
<path d="M128 147.8C95.6664 147.841 59.1703 150.015 24.8777 155.28V208.094C56.9394 203.059 88.5235 200.835 128 200.554C167.476 200.835 199.06 203.059 231.122 208.094V155.28C196.83 150.015 160.333 147.841 128 147.8Z" fill="#213462"/>
<path d="M157.023 195.218C157.023 194.42 156.963 194.311 156.395 194.075C156.049 193.932 155.596 193.536 155.388 193.194C155.218 192.917 155.125 192.606 155.073 190.705L155.008 158.759L150.592 158.613V196.026C152.713 196.056 154.823 196.077 157.023 196.101L157.023 195.218Z" fill="#8B9CA5"/>
<path d="M115.904 195.821V194.94C115.904 194.127 115.851 194.036 115.215 193.77C114.046 193.282 113.947 192.932 113.829 188.913V176.726L121.447 195.653C125.176 195.657 128.905 195.662 132.634 195.666V194.797C132.634 193.978 132.589 193.909 131.825 193.572C130.331 192.913 130.417 194.083 130.418 174.463C130.419 157.604 130.434 156.842 130.797 156.247C131.005 155.905 131.458 155.509 131.804 155.366C132.386 155.125 132.433 155.033 132.433 154.122V153.139L119.331 153.402V154.269C119.331 155.1 119.367 155.152 120.225 155.531C120.961 155.856 121.292 155.576 121.343 156.699V172.774L113.824 153.542L108.943 153.601L109.179 195.979C111.328 195.929 113.439 195.883 115.904 195.821Z" fill="#8B9CA5"/>
<path d="M179.598 192.203V178.845L180.621 178.944C181.811 179.058 182.581 179.554 183.073 180.523C183.377 181.123 183.551 181.232 184.383 181.348L187.459 181.517V171.954L183.437 171.639L183.028 172.44C182.514 173.449 182.119 173.657 180.72 173.657H179.598V160.153L174.785 156.867L175.287 194.595L179.598 192.203Z" fill="#8B9CA5"/>
<path d="M78.2683 155.261C76.4479 155.9 74.7608 157.021 73.3944 158.344L73.5928 197.698C75.9857 197.522 78.3534 197.316 80.8326 197.105V196.239C80.8326 195.445 80.7755 195.349 80.1537 195.089C78.8085 194.527 78.8167 194.577 78.8167 187.389V180.912L86.3756 180.4L86.4764 186.961V193.522C86.0524 194.003 85.5906 194.671 84.9654 194.845C84.5094 194.959 84.4604 195.071 84.4604 196.002V197.032C89.1045 196.68 92.9098 196.532 97.5621 196.308L97.5551 195.384C97.5476 194.499 97.5121 194.443 96.6984 194.057C96.0656 193.757 95.7877 193.474 95.6084 192.948C95.4318 192.43 95.3635 188.548 95.3525 178.336C95.3361 162.831 95.3338 162.799 93.9953 160.246C92.5218 157.435 89.6835 155.272 86.678 154.67C83.7576 154.513 80.7305 154.498 78.2683 155.261ZM83.0244 159.99C85.0206 159.987 86.3831 162.041 86.3756 163.422V175.182L78.8167 175.662V165.11C78.84 162.438 80.6933 159.97 83.0244 159.99Z" fill="#8B9CA5"/>
<path d="M45.9624 200.117V199.153C45.9624 198.255 45.9224 198.179 45.3849 198.061C45.0673 197.991 44.6138 197.754 44.3771 197.534C44.1407 197.313 44.0341 197.191 43.9871 195.674V180.218L51.5839 199.404C55.3431 199.013 58.634 198.825 62.4905 198.499V197.612C62.4905 196.792 62.4383 196.703 61.7985 196.436C60.3822 195.844 60.4748 197.178 60.4748 177.379C60.4748 159.567 60.4761 159.512 60.8958 158.978C61.1273 158.684 61.5808 158.307 61.9036 158.14C62.4224 157.871 62.4905 157.729 62.4905 156.911V155.986L49.8424 157.157C49.4577 157.235 49.3889 157.38 49.3889 158.107C49.3889 158.92 49.4342 158.986 50.2456 159.363C50.7167 159.582 51.3513 159.956 51.3513 160.265V177.195L43.8433 157.891L39.3888 158.369L39.5857 200.737C41.6383 200.502 43.6784 200.304 45.9624 200.117Z" fill="#8B9CA5"/>
<path d="M219.276 200.028C221.952 199.331 224.13 197.609 225.406 195.182C226.428 193.235 226.782 191.758 226.797 189.373C226.821 185.502 225.654 182.51 223.141 179.994C221.372 178.223 219.682 177.282 215.037 175.479C210.823 173.844 209.165 172.519 208.313 170.102C207.047 166.045 210.252 162.474 214.31 163.263L209.852 159.003C206.109 158.491 203.552 158.341 201.312 160.517C199.575 162.206 198.753 164.45 198.749 167.513C198.745 170.668 199.652 173.246 201.584 175.567C203.071 177.353 204.695 178.388 208.675 180.084C216.713 183.509 217.471 184.225 217.52 188.426C217.607 193.517 213.153 195.489 209.398 194.213C207.485 193.523 206.905 193.199 205.861 192.236C205.143 191.574 204.637 190.884 204.307 190.085C203.756 188.736 203.579 187.825 203.608 186.167L199.351 185.803V193.899L202.375 196.322L203.472 197.216C205.71 199.039 208.114 199.866 212.319 200.262C214.666 200.346 217.204 200.546 219.276 200.028Z" fill="#8B9CA5"/>
<path d="M155.087 195.218C155.087 194.42 155.026 194.31 154.458 194.075C154.112 193.932 153.659 193.535 153.451 193.194C153.282 192.917 153.188 192.606 153.136 190.705L153.071 158.759L154.346 158.861C155.99 158.993 156.448 159.256 156.929 160.343C157.309 161.203 157.353 161.233 158.22 161.233H159.118V153.775L135.938 153.158V160.628H136.924C137.817 160.628 137.923 160.579 138.041 160.107C138.113 159.82 138.391 159.367 138.658 159.099C139.121 158.636 139.269 158.613 141.677 158.613H144.209L144.051 190.589C143.993 192.677 143.892 192.867 143.698 193.084C143.477 193.333 143 193.661 142.64 193.813C142.041 194.067 141.985 194.167 141.985 194.988V195.887C146.51 196.016 150.623 196.053 155.087 196.101L155.087 195.218Z" fill="white"/>
<path d="M113.968 195.854V194.972C113.968 194.159 113.914 194.068 113.278 193.802C112.11 193.314 112.01 192.964 111.893 188.946V176.758L119.511 195.686C123.24 195.689 126.969 195.694 130.698 195.698V194.83C130.698 194.01 130.653 193.941 129.888 193.604C128.394 192.945 128.48 194.115 128.481 174.495C128.482 157.636 128.498 156.874 128.86 156.279C129.069 155.938 129.522 155.541 129.868 155.398C130.45 155.157 130.496 155.065 130.496 154.154V153.171L117.395 153.434V154.301C117.395 155.133 117.431 155.184 118.288 155.563C119.024 155.889 119.355 155.609 119.406 156.731V172.806L111.887 153.574L107.343 153.629L101.496 153.7C100.906 153.818 100.866 153.882 100.866 154.705C100.866 155.516 100.92 155.607 101.556 155.873C101.936 156.031 102.412 156.414 102.614 156.723C102.964 157.257 102.983 158.18 102.983 174.965C102.983 192.501 102.979 192.65 102.567 193.214C102.339 193.527 101.865 193.919 101.514 194.085C100.952 194.351 100.875 194.486 100.871 195.211C100.868 195.663 100.929 196.096 101.006 196.173C103.623 196.097 105.822 196.044 108.033 195.993C109.915 195.95 111.805 195.908 113.968 195.854Z" fill="white"/>
<path d="M189.554 190.659H188.671C187.885 190.659 187.762 190.724 187.544 191.249C187.09 192.346 186.718 192.518 184.867 192.492L177.662 192.074V178.716L178.684 178.814C179.875 178.929 180.644 179.425 181.137 180.394C181.441 180.994 181.614 181.103 182.447 181.219L185.523 181.388V171.825L181.5 171.51L181.092 172.31C180.577 173.319 180.183 173.527 178.783 173.527H177.662V160.024C180.175 160.13 181.032 160.206 182.436 160.306C186.56 160.599 186.975 160.742 187.492 162.06C187.662 162.492 187.912 162.846 188.047 162.846C188.183 162.846 188.577 162.902 188.924 162.971L189.554 163.097L189.554 155.631C181.262 154.948 174.561 154.32 167.053 154.179C166.616 154.179 166.576 154.262 166.576 155.162C166.576 156.067 166.624 156.166 167.187 156.399C167.523 156.538 167.977 156.879 168.195 157.156C168.582 157.648 168.591 158.068 168.591 175.586V193.512L168.002 194.101C167.678 194.425 167.224 194.69 166.994 194.69C166.626 194.69 166.576 194.812 166.576 195.698V196.706L167.331 196.718C175.425 197.052 182.479 197.7 189.554 198.117L189.554 190.659Z" fill="white"/>
<path d="M76.3318 155.39C71.9086 156.941 68.2719 161.344 68.1124 164.559L68.0115 179.709L67.9113 194.859C67.4688 195.343 66.9699 195.855 66.3795 196.108C65.8558 196.325 65.7945 196.447 65.7945 197.264V198.178C70.3321 197.978 74.4334 197.614 78.8962 197.234V196.367C78.8962 195.574 78.8391 195.478 78.2173 195.218C76.872 194.656 76.8802 194.706 76.8802 187.518V181.041L84.4391 180.529L84.5399 187.09V193.651C84.1159 194.132 83.6541 194.8 83.0289 194.974C82.573 195.088 82.524 195.2 82.524 196.13V197.16C87.1681 196.809 90.9733 196.661 95.6257 196.437L95.6186 195.513C95.6112 194.627 95.5756 194.572 94.7619 194.186C94.1291 193.886 93.8512 193.603 93.672 193.077C93.4953 192.559 93.427 188.677 93.4161 178.465C93.3996 162.96 93.3974 162.927 92.0589 160.374C90.5853 157.564 87.747 155.401 84.7415 154.799C82.3348 154.418 78.9544 154.541 76.3318 155.39ZM81.088 160.119C83.0841 160.116 84.4467 162.169 84.4391 163.551V175.311L76.8803 175.79V165.239C76.9035 162.567 78.7568 160.099 81.088 160.119Z" fill="white"/>
<path d="M217.339 199.802C220.015 199.105 222.194 197.383 223.469 194.955C224.492 193.009 224.846 191.532 224.86 189.147C224.884 185.276 223.718 182.284 221.205 179.768C219.435 177.997 217.746 177.056 213.1 175.253C208.886 173.618 207.229 172.293 206.376 169.876C205.111 165.819 208.315 162.248 212.374 163.037C215.678 163.746 217.863 165.852 218.44 168.884L218.671 170.101L220.594 170.101L220.594 158.637L217.571 158.22V161.312L216.916 160.689C215.174 159.033 212.425 157.775 209.741 157.408C205.998 156.895 201.616 158.114 199.376 160.291C197.639 161.98 196.816 164.224 196.812 167.287C196.809 170.442 197.716 173.02 199.647 175.34C201.134 177.127 202.759 178.162 206.738 179.858C214.776 183.283 215.535 183.999 215.584 188.199C215.67 193.291 211.216 195.263 207.461 193.987C205.548 193.297 204.969 192.973 203.924 192.01C203.206 191.348 202.701 190.658 202.371 189.859C201.819 188.51 201.642 187.599 201.672 185.941L197.415 185.577V198.814L200.438 199.049V196.096L201.535 196.989C203.773 198.812 206.178 199.64 210.382 200.036C212.729 200.12 215.268 200.32 217.339 199.802Z" fill="white"/>
<path d="M44.0259 200.279V199.314C44.0259 198.416 43.9859 198.341 43.4484 198.223C43.1308 198.153 42.6773 197.915 42.4406 197.695C42.2042 197.475 42.0975 197.353 42.0506 195.836V180.38L49.6474 199.565C53.4066 199.174 56.6975 198.987 60.554 198.661V197.773C60.554 196.953 60.5018 196.864 59.862 196.597C58.4457 196.005 58.5383 197.339 58.5383 177.54C58.5383 159.728 58.5396 159.673 58.9593 159.14C59.1908 158.845 59.6443 158.468 59.9671 158.301C60.4859 158.033 60.554 157.89 60.554 157.072V156.147L47.9059 157.318C47.5212 157.397 47.4524 157.541 47.4524 158.269C47.4524 159.081 47.4977 159.148 48.3091 159.525C48.7802 159.743 49.4148 160.117 49.4148 160.426V177.356L41.9068 158.053L31.781 159.14L30.9244 159.263V160.248C30.9244 161.003 30.9972 161.233 31.2367 161.233C31.8712 161.233 32.7001 161.841 32.9181 162.466C33.0749 162.916 33.1414 168.252 33.1412 180.359C33.1409 199.69 33.2308 198.51 31.6802 199.51C30.9938 199.953 30.9244 200.079 30.9244 200.89V201.783C35.7266 201.085 39.3694 200.659 44.0259 200.279Z" fill="white"/>
<path d="M63.2329 118.669C61.0224 118.676 59.1124 119.705 57.8766 121.249C56.6408 122.794 56.0221 125.192 57.0407 127.339C57.4708 128.245 57.8144 128.544 58.258 129.047C58.4032 129.211 58.5652 129.382 58.7238 129.551C57.5458 129.841 56.5053 130.522 55.78 131.331C54.7325 132.5 54.1279 133.942 53.8605 135.529C52.9355 135.392 52.0031 135.474 51.1795 135.703C49.3729 136.204 47.7212 137.384 46.748 139.269C46.3008 140.135 46.0363 141.226 46.0376 142.287C45.225 141.981 44.3571 141.84 43.5079 141.926L43.3912 141.938L43.2746 141.957C41.1811 142.335 39.4033 143.974 38.8191 145.607C38.235 147.239 38.4087 148.651 38.6975 149.79V149.793L38.7 149.795C38.9407 150.738 39.3185 151.957 39.6531 152.866L39.6935 152.976L39.7414 153.08C40.4155 154.558 41.2484 155.886 42.7571 156.83C43.9995 157.608 46.0009 157.719 47.528 157.055C48.8312 156.402 50.4084 154.858 50.6169 153.76C50.6585 153.377 50.8009 152.432 50.8218 152.062C51.1342 152.353 51.4549 152.631 51.7907 152.882C53.4585 154.13 55.3129 153.914 57.6768 153.016C59.6136 152.279 60.4991 150.231 60.6572 148.69C60.7866 147.428 60.7838 146.286 60.4914 144.872C61.1671 145.115 61.7258 145.187 62.4178 145.344C64.6359 145.848 66.838 146.13 69.1363 144.937C71.0226 143.958 72.0524 141.888 72.0524 139.927C72.0524 138.305 71.3396 137.107 70.5206 136.06C70.3878 135.891 70.2467 135.724 70.1021 135.557C70.8358 135.388 71.2547 135.034 71.8955 134.483C72.923 133.599 73.4408 132.325 73.5761 131.202L73.6221 131.257C74.3024 128.459 74.2061 125.065 73.6114 121.067C70.4398 119.904 67.231 118.882 63.7996 118.694C63.6131 118.679 63.4248 118.669 63.2329 118.669Z" fill="#213462"/>
<path d="M69.8957 132.159C71.4062 130.86 70.243 127.23 67.2788 123.992C65.9305 122.52 64.5218 121.732 63.2429 121.736C60.8005 121.743 58.9045 124.113 59.8115 126.024C60.2403 126.928 63.2538 129.839 64.8506 130.893C66.2683 131.828 68.0604 132.602 68.825 132.608C69.1237 132.611 69.6055 132.409 69.8957 132.159Z" fill="white"/>
<path d="M67.7243 142.216C68.5182 141.804 68.9874 140.953 68.9874 139.927C68.9874 138.794 67.8165 137.297 65.4459 135.4C63.3406 133.716 61.3653 132.628 60.1432 132.479C58.6114 132.293 57.2224 133.842 56.8654 136.135C56.5906 137.9 56.9506 138.925 58.2445 140.064C60.6724 142.201 65.5985 143.319 67.7243 142.216Z" fill="white"/>
<path d="M56.588 150.149C57.7502 149.707 57.9516 147.743 57.1667 144.504C56.7663 142.852 55.4257 139.941 54.7315 139.216C53.4019 137.829 50.5312 138.626 49.4724 140.677C48.8339 141.913 48.9821 143.109 50.0388 145.248C51.7635 148.739 54.6384 150.89 56.588 150.149Z" fill="white"/>
<path d="M46.5306 154.114C47.0137 153.699 47.0977 153.431 47.2835 151.717C47.7584 147.338 46.409 144.711 43.8195 144.975C41.408 145.41 41.3119 147.625 41.6696 149.036C41.8683 149.814 42.2556 151.061 42.5304 151.807C43.5646 154.074 45.1092 155.237 46.5306 154.114Z" fill="white"/>
<path d="M68.499 138.579C68.417 138.646 68.3626 138.717 68.2733 138.781C67.9473 139.016 67.5745 139.235 67.1677 139.419C66.7608 139.604 66.3201 139.754 65.8584 139.853C65.3967 139.952 64.9138 140.001 64.423 139.981C63.9543 139.962 63.3933 139.884 62.7645 139.722C62.1357 139.561 61.4388 139.316 60.6994 138.96C59.96 138.605 59.1776 138.139 58.3771 137.538C57.9768 137.237 57.5724 136.902 57.1662 136.53C57.0641 136.437 56.962 136.319 56.8598 136.221C56.6124 137.928 56.974 138.946 58.2447 140.064C60.6726 142.201 65.5985 143.319 67.7243 142.215C68.5183 141.803 68.9876 140.953 68.9876 139.927C68.9876 139.529 68.7895 139.068 68.499 138.579Z" fill="#C0C8CF"/>
<path d="M47.3052 151.364C47.2688 151.382 47.2299 151.413 47.1937 151.429C46.8599 151.585 46.5365 151.692 46.2279 151.748C45.9193 151.804 45.6256 151.809 45.3511 151.757C45.0766 151.704 44.8211 151.596 44.5896 151.426C44.2664 151.19 43.9721 150.848 43.7026 150.425C43.4332 150.001 43.1887 149.495 42.9645 148.93C42.7402 148.364 42.5367 147.74 42.3492 147.078C42.2498 146.727 42.1653 146.347 42.0744 145.979C41.4096 146.866 41.4369 148.118 41.6697 149.036C41.8683 149.814 42.2554 151.061 42.5301 151.807C43.5643 154.074 45.109 155.237 46.5305 154.114C47.0135 153.699 47.098 153.431 47.2838 151.718C47.2973 151.593 47.2947 151.485 47.3052 151.364Z" fill="#C0C8CF"/>
</svg>
