<svg width="256" height="256" viewBox="0 0 256 256" fill="none" xmlns="http://www.w3.org/2000/svg">
<g clip-path="url(#clip0_2684_50075)">
<path d="M249.051 122.498C249.042 123.362 249.016 124.236 248.963 125.118C247.967 146.622 238.813 167.358 225.692 184.017C230.595 176.067 234.801 167.667 237.852 158.843C240.692 150.857 243.637 139.024 243.919 127.827C243.849 127.889 243.778 127.959 243.716 128.021C243.443 128.277 243.143 128.524 242.861 128.78C242.755 130.474 242.596 132.16 242.402 133.827C240.039 151.219 232.235 167.728 221.389 181.255C230.286 166.855 236.609 150.301 237.773 133.36C237.773 133.245 237.782 133.13 237.79 133.015C236.926 133.686 236.053 134.348 235.154 135.001C233.099 150.61 226.177 165.452 216.539 177.655C220.463 170.967 223.823 163.943 226.23 156.584C227.967 151.404 229.546 144.928 230.277 138.372C227.262 140.339 224.149 142.166 221.054 143.772C216.054 163.343 205.613 180.223 190.851 192.62C176.019 205.071 158.312 211.741 139.627 211.918C139.283 211.918 138.939 211.918 138.595 211.918C107.44 211.918 83.1641 200.526 64.4255 177.117C62.5913 177.214 60.7748 177.258 58.9847 177.276C68.1291 190.97 81.3299 201.903 95.6329 209.756C78.7991 203.262 63.4643 192.188 52.8913 177.187C52.2211 177.161 51.551 177.134 50.8896 177.099C61.2333 193.635 76.8855 206.615 94.0457 215.518C74.3106 208.168 55.8454 194.676 44.3201 176.543C43.4647 176.446 42.6182 176.34 41.7804 176.234C43.9585 180.09 46.4452 183.788 49.2053 187.326C59.937 201.188 73.8345 212.412 89.3191 220.503C67.0357 211.794 47.1507 196.167 34.9464 175.087C33.0946 174.708 31.2956 174.293 29.5585 173.834C42.918 201.356 81.8678 235.125 134.415 235.125C213.911 235.125 253.205 168.584 253.205 124.059C253.205 121.668 253.072 119.444 252.843 117.362C251.75 119.153 250.445 120.883 249.051 122.506V122.498Z" fill="#ED1C22"/>
<path d="M99.1689 212.43L107.467 214.936C107.617 214.98 107.758 215.033 107.908 215.103C108.058 215.174 108.199 215.253 108.331 215.333C108.463 215.43 108.587 215.536 108.701 215.659C108.816 215.783 108.922 215.906 109.001 216.048C109.054 216.171 109.107 216.295 109.142 216.427C109.178 216.559 109.204 216.7 109.222 216.85C109.239 217 109.222 217.159 109.204 217.336C109.178 217.503 109.142 217.689 109.081 217.874L108.243 220.662C108.19 220.839 108.128 221.006 108.049 221.148C107.978 221.298 107.89 221.43 107.802 221.536C107.723 221.651 107.626 221.748 107.52 221.836C107.414 221.924 107.308 221.995 107.193 222.057C107.07 222.127 106.947 222.171 106.814 222.207C106.682 222.242 106.55 222.268 106.409 222.277C106.232 222.295 106.056 222.286 105.88 222.259C105.703 222.233 105.536 222.198 105.368 222.145L100.871 220.786L99.6628 224.783L95.7651 223.601L99.1425 212.412L99.1689 212.43ZM102.52 215.456L101.462 218.951L103.781 219.648C103.843 219.665 103.913 219.665 103.984 219.648C104.054 219.621 104.116 219.586 104.178 219.533C104.239 219.48 104.292 219.427 104.336 219.356C104.38 219.286 104.407 219.224 104.433 219.162L105.13 216.842C105.156 216.762 105.165 216.683 105.156 216.603C105.156 216.533 105.13 216.462 105.104 216.409C105.077 216.348 105.042 216.295 104.989 216.25C104.936 216.206 104.892 216.18 104.839 216.162L102.52 215.465V215.456Z" fill="white"/>
<path d="M118.119 217.168L120.465 229.468L116.144 228.701L115.491 225.427L110.8 224.598L108.86 227.413L106.911 227.068L114.072 216.453L118.119 217.168ZM114.31 219.171L111.999 222.815L115.174 223.38L114.31 219.171Z" fill="white"/>
<path d="M122.643 217.856L126.743 218.095L126.241 226.901C126.241 227.007 126.241 227.121 126.276 227.227C126.311 227.333 126.355 227.43 126.417 227.519C126.488 227.633 126.576 227.73 126.69 227.801C126.796 227.88 126.92 227.924 127.034 227.924L130.923 228.145C131.055 228.145 131.17 228.145 131.267 228.11C131.364 228.074 131.452 228.039 131.523 227.986C131.62 227.916 131.681 227.827 131.726 227.73C131.77 227.633 131.796 227.527 131.796 227.413L132.316 218.404L134.08 218.509L133.586 227.139C133.577 227.316 133.56 227.492 133.533 227.686C133.507 227.88 133.472 228.066 133.427 228.242C133.375 228.427 133.313 228.604 133.233 228.78C133.154 228.957 133.057 229.124 132.942 229.283C132.854 229.407 132.757 229.522 132.625 229.627C132.502 229.733 132.36 229.813 132.202 229.883C132.034 229.972 131.831 230.033 131.611 230.069C131.39 230.104 131.135 230.113 130.861 230.104L124.653 229.742C124.406 229.724 124.177 229.689 123.974 229.636C123.772 229.583 123.586 229.504 123.41 229.407C123.251 229.31 123.11 229.195 122.978 229.063C122.846 228.93 122.74 228.789 122.652 228.639C122.537 228.472 122.449 228.286 122.387 228.092C122.325 227.898 122.264 227.704 122.228 227.501C122.193 227.307 122.175 227.104 122.167 226.901C122.158 226.698 122.158 226.504 122.167 226.318L122.652 217.848L122.643 217.856Z" fill="white"/>
<path d="M141.505 218.298L146.822 217.733L152.263 226.804L151.249 217.265L153.074 217.071L154.318 228.727L149 229.292L143.471 220.053L144.512 229.768L142.757 229.954L141.514 218.298H141.505Z" fill="white"/>
<path d="M155.658 216.498L161.91 215.139C162.104 215.095 162.298 215.068 162.492 215.059C162.686 215.059 162.871 215.059 163.048 215.103C163.233 215.13 163.409 215.183 163.586 215.262C163.762 215.342 163.921 215.456 164.079 215.598C164.22 215.721 164.353 215.88 164.476 216.056C164.608 216.233 164.723 216.445 164.829 216.674C164.899 216.842 164.961 217.018 165.023 217.212C165.085 217.406 165.138 217.618 165.182 217.839L166.257 222.763C166.31 223.01 166.346 223.239 166.372 223.46C166.399 223.68 166.407 223.883 166.407 224.086C166.407 224.315 166.399 224.545 166.354 224.757C166.31 224.968 166.257 225.163 166.178 225.339C166.046 225.613 165.878 225.842 165.675 226.036C165.534 226.16 165.376 226.257 165.208 226.336C165.032 226.416 164.847 226.486 164.626 226.53L157.915 227.995C157.73 228.03 157.563 228.057 157.404 228.048C157.245 228.048 157.087 228.021 156.928 227.995C156.743 227.951 156.557 227.871 156.399 227.774C156.231 227.677 156.081 227.563 155.94 227.421C155.826 227.298 155.72 227.174 155.614 227.033C155.508 226.892 155.42 226.742 155.341 226.583C155.261 226.433 155.199 226.283 155.138 226.124C155.076 225.966 155.041 225.816 155.005 225.666L153.771 220.001C153.718 219.762 153.683 219.542 153.665 219.339C153.647 219.127 153.639 218.933 153.648 218.757C153.656 218.554 153.683 218.359 153.736 218.183C153.78 218.006 153.841 217.848 153.912 217.706C153.991 217.556 154.08 217.415 154.194 217.292C154.3 217.168 154.415 217.062 154.538 216.965C154.706 216.851 154.882 216.753 155.076 216.674C155.27 216.595 155.473 216.533 155.667 216.489L155.658 216.498ZM158.233 217.927C158.127 217.954 158.039 217.989 157.968 218.042C157.898 218.095 157.836 218.156 157.783 218.227C157.721 218.315 157.686 218.421 157.677 218.527C157.66 218.633 157.669 218.739 157.677 218.836L159.062 225.189C159.079 225.26 159.115 225.33 159.176 225.392C159.238 225.454 159.291 225.507 159.362 225.542C159.432 225.577 159.512 225.613 159.6 225.63C159.679 225.648 159.758 225.657 159.838 225.63L161.981 225.163C162.051 225.145 162.122 225.11 162.183 225.048C162.245 224.986 162.289 224.924 162.333 224.845C162.377 224.783 162.404 224.704 162.422 224.624C162.439 224.545 162.439 224.465 162.422 224.386L161.019 217.936C161.002 217.865 160.967 217.786 160.922 217.724C160.878 217.654 160.817 217.601 160.737 217.565C160.676 217.521 160.596 217.495 160.517 217.468C160.437 217.451 160.358 217.442 160.296 217.459L158.251 217.909L158.233 217.927Z" fill="white"/>
<path d="M164.6 214.574L172.933 211.697C173.338 211.556 173.7 211.486 174.035 211.486C174.361 211.486 174.661 211.565 174.926 211.715C175.058 211.786 175.173 211.883 175.296 211.997C175.411 212.112 175.517 212.244 175.614 212.394C175.763 212.633 175.896 212.915 176.01 213.242L176.795 215.518C176.83 215.633 176.866 215.739 176.901 215.853C176.936 215.968 176.963 216.083 176.98 216.198C176.998 216.312 176.998 216.427 176.98 216.542C176.972 216.656 176.945 216.771 176.901 216.886C176.866 216.965 176.822 217.045 176.769 217.124C176.716 217.203 176.636 217.274 176.539 217.345C176.451 217.424 176.345 217.486 176.231 217.548C176.116 217.609 175.975 217.662 175.808 217.724L179.67 221.757L175.367 223.239L171.875 219.092L170.64 219.515L172.289 224.298L168.409 225.639L164.591 214.574H164.6ZM169.141 215.05L170.04 217.662L172.465 216.824C172.545 216.798 172.607 216.762 172.642 216.718C172.677 216.674 172.704 216.621 172.721 216.559C172.739 216.506 172.739 216.445 172.721 216.383C172.712 216.321 172.686 216.242 172.659 216.145L172.077 214.459C172.051 214.389 172.025 214.327 171.98 214.283C171.945 214.239 171.901 214.212 171.848 214.195C171.795 214.177 171.742 214.177 171.681 214.186C171.619 214.195 171.566 214.212 171.513 214.23L169.132 215.05H169.141Z" fill="white"/>
<path d="M175.949 210.594L183.568 206.888C183.717 206.818 183.867 206.756 184.017 206.703C184.167 206.65 184.326 206.615 184.476 206.588C184.679 206.553 184.881 206.544 185.093 206.562C185.305 206.579 185.508 206.632 185.702 206.703C185.851 206.765 186.001 206.844 186.16 206.95C186.31 207.056 186.46 207.188 186.592 207.338C186.698 207.453 186.804 207.594 186.91 207.744C187.015 207.894 187.104 208.053 187.192 208.23L189.855 213.709C189.943 213.894 190.022 214.08 190.075 214.247C190.137 214.415 190.181 214.583 190.208 214.741C190.243 214.944 190.261 215.13 190.252 215.306C190.252 215.483 190.225 215.65 190.181 215.809C190.137 215.977 190.084 216.127 190.005 216.268C189.925 216.409 189.837 216.542 189.723 216.665C189.582 216.833 189.432 216.974 189.255 217.089C189.079 217.212 188.903 217.318 188.717 217.406L181.063 221.13L175.94 210.585L175.949 210.594ZM180.516 210.524L183.964 217.618L186.116 216.577C186.178 216.55 186.222 216.497 186.257 216.436C186.292 216.374 186.319 216.294 186.328 216.224C186.345 216.153 186.345 216.083 186.336 216.003C186.336 215.924 186.31 215.853 186.284 215.792L183.312 209.685C183.285 209.641 183.25 209.597 183.197 209.562C183.144 209.527 183.083 209.5 183.012 209.482C182.95 209.465 182.889 209.456 182.818 209.456C182.747 209.456 182.686 209.474 182.642 209.5L180.525 210.533L180.516 210.524Z" fill="white"/>
<path d="M189.326 211.203C189.952 210.815 190.578 210.427 191.178 210.047C191.777 209.668 192.386 209.297 192.994 208.918C193.594 208.547 194.202 208.168 194.811 207.788C195.419 207.409 196.036 207.03 196.663 206.633L197.571 208.088C196.345 208.847 195.128 209.606 193.902 210.365C192.677 211.124 191.46 211.883 190.234 212.642L189.326 211.177V211.203Z" fill="white"/>
<path d="M193.276 201.074L200.49 195.612L201.636 197.129L197.721 200.094L199.423 202.335L203.232 199.45L204.387 200.976L200.578 203.862L202.5 206.412L206.504 203.377L207.65 204.894L200.34 210.427L193.268 201.082L193.276 201.074Z" fill="white"/>
<path d="M207.809 188.888L209.123 190.308L205.101 194.032C205.101 194.032 205.031 194.112 205.013 194.164C204.996 194.217 204.978 194.262 204.969 194.314C204.96 194.367 204.96 194.42 204.969 194.473C204.978 194.526 205.004 194.57 205.04 194.606L205.631 195.241C205.631 195.241 205.692 195.294 205.728 195.312C205.763 195.329 205.816 195.347 205.869 195.356C205.939 195.365 206.01 195.365 206.089 195.356C206.168 195.347 206.23 195.312 206.274 195.267L208.92 192.823C209.026 192.726 209.14 192.638 209.272 192.541C209.405 192.444 209.537 192.373 209.669 192.303C209.81 192.232 209.96 192.179 210.11 192.144C210.26 192.109 210.419 192.082 210.569 192.073C210.692 192.073 210.816 192.091 210.939 192.109C211.063 192.126 211.186 192.161 211.309 192.214C211.433 192.267 211.548 192.338 211.671 192.417C211.786 192.506 211.9 192.611 212.024 192.735L214.458 195.364C214.537 195.453 214.616 195.541 214.687 195.638C214.757 195.735 214.828 195.832 214.881 195.92C214.969 196.062 215.04 196.203 215.092 196.353C215.145 196.494 215.181 196.644 215.207 196.776C215.26 197.067 215.242 197.368 215.154 197.659C215.101 197.844 215.022 198.02 214.907 198.188C214.793 198.356 214.66 198.515 214.502 198.665L208.796 203.941L207.474 202.512L211.486 198.797C211.53 198.753 211.574 198.7 211.609 198.638C211.645 198.576 211.671 198.515 211.689 198.453C211.706 198.391 211.715 198.329 211.706 198.268C211.706 198.206 211.68 198.153 211.636 198.1L210.939 197.341C210.939 197.341 210.851 197.27 210.789 197.253C210.727 197.235 210.666 197.235 210.604 197.253C210.542 197.253 210.481 197.253 210.419 197.288C210.357 197.315 210.313 197.341 210.269 197.376L207.359 200.068C207.244 200.173 207.13 200.262 207.015 200.332C206.9 200.403 206.786 200.465 206.68 200.518C206.565 200.571 206.451 200.606 206.336 200.623C206.221 200.641 206.116 200.659 206.001 200.65C205.877 200.65 205.754 200.623 205.639 200.597C205.525 200.562 205.401 200.518 205.278 200.447C205.049 200.332 204.837 200.165 204.634 199.944L202.147 197.253C202.059 197.156 201.971 197.05 201.892 196.926C201.812 196.812 201.742 196.679 201.671 196.547C201.609 196.415 201.557 196.273 201.521 196.132C201.486 195.991 201.46 195.841 201.442 195.691C201.433 195.567 201.433 195.435 201.442 195.312C201.451 195.179 201.486 195.047 201.53 194.923C201.583 194.8 201.645 194.685 201.724 194.562C201.803 194.447 201.9 194.332 202.006 194.235L207.817 188.853L207.809 188.888Z" fill="white"/>
<path d="M207.844 188.879L214.608 181.167L216.098 182.473L214.07 184.785L221.415 191.235L218.717 194.314L211.38 187.864L209.343 190.194L207.853 188.888L207.844 188.879Z" fill="white"/>
<path d="M255.991 108.379C256.15 104.62 254.298 101.02 250.497 97.685C232.244 81.6433 173.656 74.9019 125.112 83.2581C91.9029 88.9406 59.1963 99.7145 35.3873 112.818C10.8375 126.336 -1.66665 140.595 0.176343 152.975C1.49025 161.958 14.9115 171.02 34.9463 175.079C47.1419 196.159 67.0356 211.794 89.3191 220.495C73.8344 212.403 59.9282 201.188 49.2053 187.317C46.4452 183.779 43.9585 180.082 41.7804 176.226C42.6181 176.34 43.4647 176.446 44.32 176.534C55.8454 194.667 74.3106 208.159 94.0457 215.509C76.8855 206.606 61.2333 193.626 50.8896 177.09C51.5509 177.126 52.2211 177.152 52.8913 177.179C63.4643 192.17 78.7991 203.253 95.6329 209.747C81.3299 201.894 68.1291 190.961 58.9846 177.267C60.7747 177.249 62.5825 177.205 64.4255 177.108C83.164 200.518 107.44 211.909 138.595 211.909C138.939 211.909 139.283 211.909 139.627 211.909C158.312 211.733 176.019 205.062 190.851 192.611C205.613 180.223 216.054 163.334 221.054 143.763C224.149 142.157 227.262 140.33 230.277 138.363C229.546 144.919 227.967 151.395 226.23 156.575C223.822 163.934 220.463 170.958 216.539 177.646C226.177 165.443 233.099 150.601 235.154 134.992C236.053 134.339 236.926 133.677 237.79 133.007C237.79 133.121 237.782 133.236 237.773 133.351C236.609 150.292 230.286 166.846 221.389 181.246C232.235 167.72 240.039 151.21 242.402 133.818C242.596 132.151 242.755 130.465 242.861 128.771C243.143 128.515 243.443 128.268 243.716 128.012C243.787 127.951 243.857 127.88 243.919 127.818C243.637 139.016 240.692 150.857 237.852 158.834C234.801 167.658 230.604 176.058 225.692 184.008C238.813 167.34 247.967 146.613 248.963 125.109C249.016 124.227 249.042 123.353 249.051 122.489C252.702 118.209 255.78 113.215 255.991 108.371V108.379Z" fill="#241E20"/>
<path d="M139.53 204.735C175.878 204.471 208.012 178.361 217.659 141.239L217.712 141.036L217.897 140.939C231.124 134.233 250.982 120.018 251.432 108.335C251.573 105.062 249.88 101.868 246.397 98.8409C230.366 84.9082 176.786 76.0579 125.553 85.6317C55.6867 98.6733 1.68425 127.607 5.17624 150.125C6.05806 155.772 12.945 161.675 23.5974 165.902C35.5813 170.658 50.916 172.82 66.7799 171.999H67.018L67.1679 172.167C85.4391 194.244 109.098 204.912 139.53 204.727V204.735Z" fill="#808186"/>
<path d="M137.096 184.008C176.909 184.008 209.184 151.713 209.184 111.874C209.184 72.035 176.909 39.7393 137.096 39.7393C97.2825 39.7393 65.0074 72.035 65.0074 111.874C65.0074 151.713 97.2825 184.008 137.096 184.008Z" fill="#ED1C22"/>
<path d="M204.229 136.333C223.761 130.024 234.149 124.854 234.149 124.854C224.845 127.307 215.675 129.557 206.662 131.621C207.033 130.801 207.2 130.351 207.2 130.351L205.481 131.886C193.515 134.613 181.857 137.022 170.578 139.139C169.088 128.454 169.944 116.55 171.372 112.297C183.268 76.4903 165.535 53.7778 154.494 46.7717L153.022 49.0924C163.436 55.7014 180.129 77.2403 168.771 111.433C167.184 116.171 166.231 128.454 167.854 139.651C163.154 140.516 158.524 141.336 153.965 142.104C132.793 101.682 94.5131 58.4544 92.2115 58.0309C90.4126 57.6691 89.6895 60.0163 89.6895 60.0163C98.7722 71.8049 126.461 102.609 148.339 143.039C122.502 147.257 99.3189 149.948 80.0513 151.669C73.905 142.66 69.6106 131.127 69.0638 116.374L62.3091 117.909C62.5649 130.439 66.0569 142.175 71.9562 152.357C40.4842 154.881 21.3929 154.704 21.3929 154.704C20.7756 161.102 33.7559 166.784 78.561 161.878C91.8676 178.123 112.132 188.517 134.847 188.517C166.196 188.517 192.862 168.761 202.994 141.072C200.657 147.01 191.063 167.093 164.838 177.293L166.84 175.714C166.469 173.773 165.993 171.787 165.438 169.758C171.346 167.243 176.495 164.331 180.966 161.234C181.61 161.358 182.271 161.419 182.95 161.419C185.684 161.419 188.7 160.449 191.971 158.499L190.569 156.143C188.426 157.413 186.478 158.199 184.679 158.508C194.925 150.54 201.028 141.91 204.237 136.333H204.229ZM151.813 149.657C154.521 154.96 157.122 160.413 159.547 165.99C154.344 167.896 148.586 169.608 142.21 171.029C141.267 167.967 137.122 165.337 126.911 164.269C111.135 162.611 102.917 160.599 98.834 159.24C113.737 157.025 131.267 153.902 151.813 149.657ZM92.9875 160.078C102.097 164.464 119.257 167.146 119.257 167.146C129.213 168.275 134.486 170.076 136.875 172.105C128.384 173.676 118.878 174.708 108.305 174.999C101.365 171.699 94.0721 167.12 87.6702 160.784C89.3985 160.563 91.171 160.325 92.9875 160.069V160.078ZM138.066 177.002C137.052 179.164 134.477 181.202 132.211 182.685C128.586 182.041 122.352 180.655 115.165 177.929C123.481 178.255 131.1 177.902 138.066 177.002ZM135.562 183.197C135.562 183.197 135.517 183.197 135.456 183.188C137.378 181.494 139.777 179.102 141.205 176.552C148.851 175.361 155.667 173.508 161.752 171.223C162.607 173.305 163.436 175.405 164.238 177.514C156.275 180.532 146.805 182.649 135.562 183.197ZM163.762 164.349C162.025 159.249 159.794 153.937 157.201 148.528C159.362 148.069 161.549 147.61 163.771 147.125C165.579 146.737 167.351 146.34 169.097 145.934C170.455 151.246 172.58 155.834 175.719 158.587C172.157 160.581 168.189 162.531 163.771 164.34L163.762 164.349ZM178.25 157.131C178.109 157.034 177.968 156.937 177.836 156.822C174.979 154.51 173.039 150.293 171.778 145.325C182.871 142.722 192.571 139.995 200.816 137.427C197.641 141.742 190.702 149.666 178.25 157.131Z" fill="white"/>
<path d="M208.108 130.271L205.86 131.621C205.86 131.621 196.909 143.031 181.09 153.372C176.839 149.287 174.388 139.784 179 118.906C187.924 78.8728 166.654 55.878 149.168 47.8483C149.168 47.8483 186.654 70.0314 172.774 120.08C168.832 134.392 170.27 149.507 176.619 156.143C172.898 158.34 168.85 160.422 164.512 162.284C157.713 143.172 147.078 123.857 133.754 106.112C112.819 78.1845 102.37 63.2282 93.4019 57.1927C102.149 48.5013 110.2 44.707 110.236 44.707C85.1833 54.625 63.9139 81.2288 63.2878 113.692C62.5648 153.549 95.7299 186.735 135.835 186.735C167.404 186.735 197.818 161.525 205.798 134.083C207.359 131.727 208.1 130.28 208.1 130.28L208.108 130.271ZM165.561 175.088C158.445 178.238 150.314 180.329 141.09 180.638C144.142 178.723 145.914 176.252 145.764 173.658C152.016 172.423 157.739 170.676 162.968 168.584C163.859 170.764 164.714 172.935 165.561 175.096V175.088ZM133.577 180.497C133.577 180.497 124.142 179.755 112.634 175.061C123.128 176.058 132.643 175.732 141.232 174.435C141.346 176.729 139.186 178.917 136.734 180.638C135.694 180.611 134.644 180.567 133.577 180.488V180.497ZM72.1236 121.704C68.7639 91.3673 80.157 71.3284 91.3472 59.3104C92.6082 61.1546 103.825 71.6196 130.694 108.088C143.313 125.198 152.951 144.637 160.958 163.731C155.385 165.867 149.362 167.57 142.933 168.629C139.433 165.505 132.484 162.655 120.967 160.934C108.349 159.037 98.8868 151.643 100.509 151.104L84.5573 153.813C90.7741 160.034 118.348 164.543 118.348 164.543C127.387 165.973 133.163 167.658 136.655 169.431C123.119 170.658 107.961 168.831 91.5412 161.914C82.0793 153.178 74.1871 140.392 72.1148 121.704H72.1236ZM168.162 173.87C167.554 171.655 166.91 169.44 166.196 167.217C171.698 164.773 176.601 161.967 180.94 159.002C183.065 159.752 185.508 159.814 188.25 159.046C182.88 164.543 176.213 169.873 168.153 173.87H168.162ZM191.142 155.949C189.449 156.222 187.403 156.31 185.393 155.772C195.454 148.016 201.892 139.819 205.26 134.877C203.488 138.583 198.92 147.187 191.142 155.949Z" fill="#241E20"/>
<path d="M56.0835 119.894C56.0835 119.894 212.791 95.8143 218.108 94.9143C218.108 94.9143 216.309 127.015 212.791 130.536C212.791 130.536 99.6981 155.516 64.0992 155.516C64.0992 155.516 56.0747 128.824 56.0747 119.894H56.0835Z" fill="#808186"/>
<path d="M147.783 44.2215L149.591 54.1748L150.711 46.8775L152.581 38.8919L155.27 42.9862L157.228 37.5948L161.91 28.2063L160.12 28.771L153.85 34.1888L149.9 35.8654L145.341 41.4155L147.783 44.2215Z" fill="white"/>
<path d="M84.1693 104.409L97.855 100.544L96.9468 93.7584L109.751 90.9966L118.401 82.2434L121.311 71.6107L103.022 77.5226L110.165 66.9606L121.999 58.4809L118.869 43.8863L123.895 36.2008L128.384 22.6298L131.197 22.4004L127.07 22.1621L123.348 28.5152L117.035 34.5507L112.158 38.4597L102.352 71.5931L102.308 71.6548L83.9312 95.8144L68.8698 107.656L84.3456 105.238L84.1693 104.409Z" fill="white"/>
<path d="M205.013 82.2522L202.809 82.5875L196.865 76.3049L192.721 63.4928L185.684 50.9453L172.254 41.0186L172.201 40.9215L165.746 27.9152H163.056L158.039 37.9479L155.508 44.954L152.977 41.1156L151.584 47.0452L150.059 56.9367L149.186 56.9455L146.955 44.6187L143.886 41.098L142.078 28.1182L137.36 22.7886L129.045 23.468L124.671 36.6419L119.821 44.0628L122.996 58.8603L110.747 67.64L105.201 75.8814L122.599 70.2518L119.204 82.7022L110.192 91.8084L97.9432 94.4555L98.8426 101.197L91.1532 103.359L206.345 86.17L205.013 82.2522Z" fill="#808186"/>
<path d="M208.523 87.4142L207.976 86.1435L206.063 80.514L205.595 80.5846L203.1 74.752L195.022 65.5664L194.202 63.0164L186.874 49.8954L173.471 39.9951L167.016 26.9976L166.716 26.3623H162.078L161.981 26.5564L159.326 27.3858L153.066 32.8301L148.921 34.5772L145.173 39.148L143.551 27.4388L138.498 21.7386L138.313 21.2621L138.066 21.2445L138.004 21.1739L137.528 21.2092L126.197 20.5386L122.149 27.4829L115.994 33.386L110.8 37.542L100.933 70.8695L82.8465 94.6673L63.2085 110.109L207.139 87.6259L208.408 87.4406L208.514 87.4142H208.523ZM206.301 86.1788L91.1532 103.368L98.8339 101.197L97.9344 94.4556L110.192 91.8084L119.195 82.7023L122.599 70.2519L105.201 75.8815L110.747 67.64L122.996 58.8603L119.821 44.0628L124.68 36.642L129.054 23.4769L137.263 22.8063H137.369L142.087 28.1182L143.886 41.098L146.955 44.6187L149.186 56.9456H150.067L151.593 47.0453L152.977 41.1069L155.508 44.954L158.039 37.9479L163.057 27.9153H165.746L172.201 40.9216L172.245 41.0186L185.684 50.9454L192.721 63.4928L193.647 66.3518L196.865 76.305L202.809 82.5964L205.013 82.2611L206.345 86.1788H206.301ZM204.281 81.4581L203.126 81.6346L197.677 75.9256L195.111 68.0195L201.768 75.5903L204.273 81.4581H204.281ZM149.9 35.8655L153.85 34.1978L160.12 28.7712L161.919 28.2065L157.228 37.595L155.279 42.9863L152.581 38.8921L150.72 46.8776L149.591 54.1749L147.792 44.2217L145.35 41.4157L149.909 35.8655H149.9ZM83.9312 95.8144L102.299 71.6549L102.352 71.5931L112.158 38.4685L117.035 34.5596L123.34 28.5153L127.061 22.1622L131.188 22.4004L128.384 22.6298L123.895 36.2008L118.869 43.8864L121.999 58.4809L110.165 66.9694L103.031 77.5315L121.32 71.6196L118.41 82.2523L109.751 91.0055L96.9556 93.7673L97.8639 100.553L84.1781 104.418L84.3544 105.238L68.8786 107.656L83.94 95.8144H83.9312Z" fill="#16294D"/>
<path d="M39.3907 135.698L40.4666 131.657L26.6309 131.957L22.3364 149.798L36.0575 149.498L37.1245 145.36L30.1758 145.537L30.9253 142.466L37.2391 142.281L38.1827 138.23L31.8777 138.407L32.4685 135.883L39.3907 135.698Z" fill="#241E20"/>
<path d="M45.0167 144.972L47.9003 131.18L41.0221 131.515L37.3185 149.375L51.1189 148.669L52.0713 144.61L45.0167 144.972Z" fill="#241E20"/>
<path d="M68.6229 129.83L62.1768 130.254L51.3481 148.598L55.669 148.307L58.3762 143.71L63.8347 143.322L64.6459 147.645L71.7534 147.204L68.6317 129.83H68.6229ZM63.041 139.474L60.7924 139.616L62.5119 136.598L63.041 139.466V139.474Z" fill="#241E20"/>
<path d="M88.7637 128.11L86.8766 139.351L83.7814 128.551L75.5188 129.38L72.4941 147.134L76.2948 146.851L78.2348 135.619L81.277 146.313L89.5485 145.59L92.4761 127.818L88.7637 128.11Z" fill="#241E20"/>
<path d="M116.982 125.974C116.294 125.295 115.183 125.065 113.596 125.277L101.55 126.689L99.1073 144.469L111.462 143.022C114.486 142.836 116.056 141.504 116.409 138.83L116.77 135.866C116.894 135.045 116.77 134.427 116.382 133.977C116.232 133.81 116.065 133.677 115.871 133.571C116.62 133.077 117.237 132.301 117.405 130.977L117.678 128.815C117.837 127.518 117.617 126.592 116.991 125.965L116.982 125.974ZM106.788 139.704L107.22 136.651L110.033 136.342C110.033 136.342 110.033 136.369 110.033 136.377L109.583 138.989V139.025C109.548 139.266 109.442 139.401 109.266 139.43L106.788 139.695V139.704ZM107.776 132.486L108.128 129.971L110.941 129.662C110.941 129.662 110.941 129.689 110.941 129.698L110.58 131.771V131.807C110.536 132.089 110.5 132.16 110.509 132.16C110.509 132.16 110.447 132.195 110.262 132.221L107.776 132.486Z" fill="#241E20"/>
<path d="M132.749 126.795L133.163 122.727L119.186 124.721L117.237 142.413L131.311 140.41L131.717 136.342L124.618 137.33L124.989 134.366L131.488 133.377L131.902 129.301L125.403 130.289L125.632 127.792L132.749 126.795Z" fill="#241E20"/>
<path d="M147.307 120.583L140.8 121.633L131.514 140.516L135.835 139.792L138.172 135.107L143.657 134.26L144.918 138.416L152.184 137.207L147.299 120.592L147.307 120.583ZM142.546 130.351L140.218 130.686L141.725 127.527L142.546 130.342V130.351Z" fill="#241E20"/>
<path d="M168.18 127.404C169.538 126.936 170.279 125.824 170.384 124.103L170.658 120.936C170.764 119.383 170.481 118.377 169.785 117.75C168.877 116.939 167.492 117.08 166.549 117.256L154.415 119.33L153.048 136.924L159.988 135.804L160.526 128.771L161.152 128.674L163.224 135.257L170.728 134.039L168.18 127.395V127.404ZM163.656 121.915C163.656 121.915 163.656 121.986 163.647 122.03L163.559 123.892C163.506 124.28 163.462 124.298 163.215 124.377L160.808 124.783L160.984 122.365L163.665 121.915H163.656Z" fill="#241E20"/>
<path d="M185.217 114.018L184.538 124.977L180.217 114.909L171.875 116.453L170.799 134.057L174.591 133.351L175.27 122.039L179.679 132.371L188.021 130.924L189 113.312L185.217 114.018Z" fill="#241E20"/>
<path d="M203.391 110.383L196.901 111.741L188.788 130.81L193.074 129.954L195.146 125.26L200.745 124.095L202.28 128.074L209.449 126.415L203.391 110.374V110.383ZM199.273 120.212L196.954 120.698L198.259 117.556L199.273 120.221V120.212Z" fill="#241E20"/>
<path d="M217.332 107.162L210.41 108.724L210.507 126.16L217.429 124.483L217.332 107.162Z" fill="#241E20"/>
<path d="M234.272 115.527L233.999 111.397C233.955 110.312 233.584 109.518 232.896 109.024C232.085 108.441 230.93 108.371 229.449 108.794L225.322 109.959C225.251 109.977 225.189 109.985 225.145 110.003L225.075 109.2C225.075 109.2 225.145 109.103 225.577 108.997L233.849 106.685L233.575 102.706L221.627 106.085C219.475 106.65 218.214 108.6 218.338 111.177L218.514 115.05C218.567 116.515 218.928 117.442 219.652 117.953C220.331 118.439 221.274 118.483 222.517 118.103L227.27 116.753C227.341 116.736 227.394 116.727 227.447 116.718L227.535 117.786C227.482 117.812 227.385 117.856 227.2 117.9L218.831 120.212L219.105 124.192L230.71 120.9C233.24 120.195 234.466 118.333 234.254 115.527H234.272Z" fill="#241E20"/>
<path d="M40.6694 134.171L41.613 130.121L27.8919 130.421L23.5093 148.263L37.3362 147.963L38.2709 143.825L31.3486 144.001L32.0982 140.93L38.3943 140.745L39.479 136.695L33.0682 136.88L33.7119 134.348L40.6694 134.171Z" fill="#241E20"/>
<path d="M46.2778 143.445L49.1613 129.645L42.292 129.989L38.4913 147.839L52.3976 147.142L53.2088 143.083L46.2778 143.445Z" fill="#241E20"/>
<path d="M69.787 128.295L63.3409 128.718L52.5122 147.063L56.8331 146.772L59.5403 142.175L64.9987 141.787L65.81 146.11L72.9174 145.669L69.7958 128.295H69.787ZM64.2139 137.948L61.9653 138.089L63.6848 135.072L64.2139 137.939V137.948Z" fill="#241E20"/>
<path d="M89.9364 126.574L88.0582 137.772L85.0512 127.024L76.6828 127.845L73.7551 145.642L77.4764 145.21L79.3988 134.004L82.441 144.778L90.7213 144.054L93.7371 126.292L89.9364 126.574Z" fill="#241E20"/>
<path d="M118.243 124.439C117.555 123.759 116.444 123.53 114.857 123.742L102.811 125.153L100.368 142.933L112.723 141.486C115.668 141.301 117.335 139.898 117.67 137.295L118.031 134.33C118.155 133.51 118.031 132.892 117.643 132.442C117.493 132.274 117.326 132.142 117.132 132.036C117.881 131.542 118.499 130.757 118.666 129.442L118.939 127.28C119.098 125.983 118.878 125.056 118.252 124.43L118.243 124.439ZM108.049 138.169L108.481 135.116L111.294 134.807C111.294 134.807 111.294 134.833 111.294 134.842L110.844 137.454V137.489C110.809 137.73 110.703 137.866 110.527 137.895L108.049 138.16V138.169ZM111.682 130.624C111.682 130.624 111.62 130.66 111.435 130.686L108.948 130.951L109.301 128.436L112.114 128.127C112.114 128.127 112.114 128.154 112.114 128.162L111.753 130.236V130.271C111.709 130.554 111.673 130.615 111.682 130.624Z" fill="#241E20"/>
<path d="M134.01 125.268L134.424 121.192L120.359 123.186L118.401 140.878L132.484 138.883L132.89 134.807L125.862 135.795L126.17 132.83L132.66 131.842L133.066 127.765L126.594 128.754L126.885 126.257L134.01 125.268Z" fill="#241E20"/>
<path d="M148.471 119.056L141.964 120.106L132.678 138.989L136.999 138.266L139.336 133.58L144.821 132.733L146.082 136.889L153.348 135.68L148.463 119.065L148.471 119.056ZM143.807 128.816L141.479 129.151L142.987 125.992L143.807 128.807V128.816Z" fill="#241E20"/>
<path d="M169.441 125.868C170.799 125.401 171.54 124.289 171.646 122.568L171.919 119.4C172.025 117.847 171.743 116.841 171.046 116.215C170.129 115.403 168.753 115.544 167.81 115.721L155.676 117.794L154.309 135.389L161.249 134.268L161.787 127.236L162.413 127.139L164.485 133.721L171.989 132.504L169.441 125.859V125.868ZM164.917 120.38C164.917 120.38 164.917 120.45 164.909 120.494L164.82 122.356C164.767 122.745 164.723 122.771 164.476 122.842L162.069 123.248L162.245 120.83L164.926 120.38H164.917Z" fill="#241E20"/>
<path d="M186.478 112.483L185.79 123.592L181.478 113.374L173.048 114.918L172.069 132.521L175.852 131.815L176.46 120.539L180.852 130.845L189.185 129.292L190.261 111.777L186.478 112.483Z" fill="#241E20"/>
<path d="M204.652 108.847L198.171 110.206L189.961 129.186L194.255 128.33L196.328 123.636L201.927 122.471L203.461 126.442L210.728 124.898L204.661 108.847H204.652ZM200.446 118.677L198.109 119.162L199.423 115.95L200.446 118.677Z" fill="#241E20"/>
<path d="M218.505 105.521L211.583 107.197L211.68 124.518L218.602 122.956L218.505 105.521Z" fill="#241E20"/>
<path d="M235.445 113.991L235.172 109.853C235.128 108.768 234.757 107.974 234.069 107.479C233.258 106.897 232.103 106.827 230.621 107.25L226.495 108.415C226.424 108.432 226.362 108.441 226.318 108.459L226.248 107.656C226.248 107.656 226.318 107.559 226.75 107.453L235.022 105.141L234.748 101.162L222.8 104.541C220.657 105.106 219.387 107.056 219.511 109.641L219.687 113.418C219.74 114.883 220.101 115.809 220.824 116.321C221.503 116.806 222.447 116.85 223.69 116.471L228.443 115.121C228.514 115.103 228.567 115.094 228.62 115.086L228.708 116.153C228.655 116.18 228.558 116.224 228.364 116.268L220.004 118.668L220.278 122.639L231.882 119.347H231.9C234.44 118.527 235.63 116.718 235.427 113.974L235.445 113.991ZM226.318 108.662C226.318 108.662 226.345 108.715 226.353 108.741L225.71 108.83L226.327 108.662H226.318Z" fill="#241E20"/>
<path d="M37.8829 140.092L31.5691 140.278L30.4932 144.698L37.4331 144.513L36.7982 147.31L24.3646 147.584L28.421 131.074L40.7664 130.81L40.1315 133.51L33.1916 133.695L32.204 137.569L38.5971 137.392L37.8829 140.092Z" fill="white"/>
<path d="M42.8386 130.624L48.3324 130.36L45.4488 144.151L52.3887 143.789L51.8508 146.498L39.3202 147.134L42.8386 130.624Z" fill="white"/>
<path d="M65.0075 138.566L60.7748 138.839L64.0199 133.157L65.0075 138.566ZM72.1237 145.051L69.2402 129.001L63.7465 129.363L53.7467 146.313L56.4539 146.137L59.1611 141.539L65.563 141.089L66.3743 145.422L72.1414 145.06L72.1237 145.051Z" fill="white"/>
<path d="M88.164 140.639H88.2522L90.5097 127.201L92.9435 127.024L90.1481 143.436L82.9349 144.063L79.2401 130.986L76.9032 144.601L74.5576 144.875L77.256 128.462L84.5574 127.739L88.164 140.639Z" fill="white"/>
<path d="M112.405 130.36C112.317 131.083 112.132 131.26 111.506 131.348L108.172 131.71L108.71 127.836L112.044 127.474C112.582 127.386 112.855 127.562 112.767 128.286L112.405 130.36ZM116.999 137.207L117.361 134.233C117.634 132.433 116.462 132.336 114.477 132.336V132.248C116.276 131.886 117.723 131.436 117.996 129.362L118.269 127.201C118.543 125.039 117.634 124.042 114.936 124.404L103.402 125.754L101.153 142.166L112.687 140.816C115.571 140.639 116.744 139.28 117.017 137.207M111.506 137.569C111.418 138.292 111.144 138.469 110.606 138.557L107.273 138.919L107.908 134.498L111.241 134.136C111.779 134.048 112.052 134.136 111.964 134.948L111.515 137.56L111.506 137.569Z" fill="white"/>
<path d="M132.052 131.259L125.562 132.248L125.112 136.58L132.14 135.583L131.867 138.292L119.16 140.092L120.968 123.777L133.675 121.968L133.401 124.677L126.285 125.665L125.835 129.548L132.317 128.551L132.052 131.259Z" fill="white"/>
<path d="M144.662 129.363L140.332 129.998L143.128 124.139L144.662 129.371M152.51 135.133L148.004 119.806L142.413 120.706L133.851 138.107L136.558 137.657L138.904 132.972L145.306 131.983L146.567 136.13L152.51 135.142V135.133Z" fill="white"/>
<path d="M165.482 122.418C165.393 123.054 165.208 123.318 164.582 123.504L161.337 124.042L161.61 120.256L164.855 119.718C165.49 119.63 165.667 119.718 165.579 120.53L165.49 122.427M171.072 131.983L168.55 125.401C170.349 125.127 170.896 123.954 170.984 122.515L171.257 119.356C171.434 116.647 170.358 115.933 167.924 116.383L156.302 118.368L155.041 134.595L160.632 133.695L161.17 126.663L162.88 126.389L164.952 132.972L171.081 131.983H171.072Z" fill="white"/>
<path d="M186.213 126.301L186.301 126.212L187.113 113.047L189.546 112.597L188.55 128.736L181.249 130.086L176.028 117.821H175.94L175.217 131.26L172.783 131.71L173.683 115.483L181.072 114.124L186.213 126.301Z" fill="white"/>
<path d="M201.345 119.18L197.015 120.08L199.449 114.133L201.345 119.18ZM209.819 124.403L204.229 109.615L198.638 110.788L191.072 128.286L193.779 127.748L195.851 123.062L202.342 121.712L203.876 125.683L209.819 124.421V124.403Z" fill="white"/>
<path d="M217.932 122.418L212.341 123.689L212.253 107.727L217.835 106.368L217.932 122.418Z" fill="white"/>
<path d="M231.715 118.721L220.904 121.783L220.727 119.171L228.567 116.921C229.29 116.744 229.466 116.471 229.378 116.021L229.29 114.936C229.29 114.397 229.017 114.3 228.302 114.486L223.523 115.836C221.451 116.471 220.463 115.836 220.366 113.4L220.19 109.615C220.101 107.629 220.913 105.741 222.985 105.194L234.158 102.035L234.334 104.647L226.583 106.809C225.86 106.985 225.595 107.259 225.595 107.709L225.683 108.697C225.683 109.147 225.957 109.235 226.671 109.059L230.815 107.885C232.976 107.25 234.422 107.797 234.51 109.871L234.784 114.018C234.96 116.453 233.972 117.989 231.724 118.703L231.715 118.721Z" fill="white"/>
<path d="M164.67 144.875C59.0552 168.046 21.6574 162.011 20.9343 154.069C20.9343 154.069 115.738 157.405 235.859 123.318C235.948 123.318 210.084 134.86 164.67 144.866V144.875Z" fill="#241E20"/>
<path d="M215.41 64.7106L228.84 65.2488L231.997 64.6135L233.531 72.9079L233.17 78.0434C233.17 78.0434 231.098 81.2023 230.736 81.6523C230.736 81.6523 228.214 84.6259 227.941 84.8112C217.941 90.132 206.671 93.2909 206.671 93.2909L206.31 74.4432L209.467 70.1108L215.41 64.7018V64.7106Z" fill="white"/>
<path d="M232.526 64.0841C231.353 63.9958 217.385 63.5458 217.385 63.5458C217.385 63.5458 218.197 61.6487 217.923 60.7487C217.65 59.8486 203.955 58.2251 203.417 57.9515C202.782 57.678 202.879 55.2426 202.156 54.6161C201.433 53.9808 196.927 54.5279 196.028 55.1544C195.128 55.6926 193.594 58.4015 193.144 58.578C192.606 58.7545 187.201 58.578 186.566 58.4898C185.931 58.4015 182.421 55.5162 180.437 55.1544C179.714 55.0661 174.943 56.778 174.309 57.4045C173.674 58.0309 173.585 60.0163 173.585 60.0163C173.585 60.0163 165.023 61.2781 142.404 69.6607C140.623 70.3049 149.133 70.3843 151.276 70.3843C147.105 70.4107 137.149 74.3638 130.147 77.5051C126.99 78.8551 143.754 77.5933 140.147 78.8551C135.553 80.5669 134.653 81.467 127.713 85.1641C117.714 90.4849 116.267 91.6585 105.906 95.8056C105.906 95.8056 49.8579 118.527 81.8413 97.1557C81.8413 97.1557 -0.5203 127.721 74.002 124.474C98.781 123.389 137.713 119.427 191.328 108.247C196.918 107.162 207.28 99.141 210.428 96.2557C213.135 93.5468 215.833 91.2967 217.994 90.4849L230.516 83.9023L233.037 79.1198C233.311 77.9463 233.672 75.8727 233.672 75.8727L233.496 69.8284C233.769 68.743 235.842 64.3311 232.508 64.0576L232.526 64.0841ZM233.161 76.2521L232.623 78.5992L232.262 79.1904C230.48 81.0522 225.93 84.2906 217.306 81.4846C217.306 81.4846 212.888 80.0375 214.511 82.2082C214.511 82.2082 215.772 82.2964 217.57 82.5699C221.292 82.9758 227.685 84.4582 231.829 79.8875L230.727 81.6699L229.281 83.2935C227.121 84.4671 218.558 88.3407 218.558 88.3407C218.558 88.3407 209.37 88.4289 209.184 83.47C209.096 80.2228 209.184 75.8021 209.361 75.2638C209.634 73.9138 214.228 65.6194 216.477 65.5224C217.376 65.5224 219.81 65.7959 225.304 65.6988C223.144 68.3107 224.766 71.1078 226.927 72.8196C226.927 72.8196 229.175 74.355 231.794 73.9932L233.328 71.6461L233.152 76.2433L233.161 76.2521Z" fill="#241E20"/>
<path d="M176.566 57.9515C176.566 57.9515 180.084 56.3279 181.248 57.0515C182.509 57.775 188.276 63.5458 188.276 63.5458L189 61.0222L193.144 60.2986L204.317 61.2869L197.827 59.5751L216.301 61.7369L216.124 63.634C216.124 63.634 210.63 66.5194 208.285 69.493C207.562 70.3931 208.012 72.7402 207.297 73.7285C206.848 74.3638 204.414 79.7728 198.92 75.9785C195.499 73.6314 193.691 75.6168 192.518 74.355C192.43 74.2667 198.285 65.0635 203.514 67.4989C205.137 68.3107 207.385 69.4842 207.385 69.4842C207.385 69.4842 202.879 64.1635 198.285 65.2488C196.751 65.6106 180.799 69.396 180.799 69.396L188.276 65.5223C188.276 65.5223 182.783 59.3898 181.425 58.578C180.076 57.7662 176.557 57.9427 176.557 57.9427L176.566 57.9515Z" fill="#808186"/>
<path d="M157.466 76.7021L140.076 82.8347L151.796 84.1847L129.089 95.9998C129.089 95.9998 147.29 96.6351 164.864 94.0145H135.579L157.924 82.8347L147.201 81.7494L157.475 76.7021H157.466Z" fill="#808186"/>
<path d="M135.562 88.1555C98.1637 106.818 47.1595 120.795 70.7657 103.844C70.7657 103.844 25.6167 123.865 73.1995 120.071C73.1995 120.071 105.192 118.986 156.646 106.456L121.497 105.556L135.015 101.409C135.015 101.409 121.497 99.697 116.629 99.697L135.553 88.1555H135.562Z" fill="white"/>
<path d="M196.663 73.905C196.663 73.905 196.389 71.5579 201.169 69.7578C205.851 67.9578 205.225 69.7578 208.558 70.3931C208.285 72.3785 208.285 77.2492 200.719 75.9874C200.807 75.9874 198.373 74.7256 196.663 73.9138V73.905Z" fill="#241E20"/>
<path d="M199.546 74.1786C199.546 74.1786 200.445 71.2932 202.43 71.1167C202.43 71.1167 200.631 73.1021 202.791 74.8139C202.791 74.8139 201.169 74.9903 199.546 74.1786Z" fill="white"/>
<path d="M204.863 72.105L205.763 71.8314L205.04 71.1167L204.863 72.105Z" fill="white"/>
<path d="M173.144 62.0986C173.144 62.0986 172.871 68.4077 173.868 70.6665C173.868 70.6665 170.896 65.7958 169.996 65.3458C168.198 64.4458 164.229 64.984 162.333 64.7105C162.245 64.7105 166.751 63.5369 173.144 62.0986Z" fill="#808186"/>
<path d="M231.177 65.884C231.177 65.884 225.41 68.4959 230.277 73.0048C230.277 73.0048 222.711 67.6841 231.177 65.884Z" fill="#808186"/>
</g>
<defs>
<clipPath id="clip0_2684_50075">
<rect width="256" height="256" fill="white"/>
</clipPath>
</defs>
</svg>
