<svg width="256" height="256" viewBox="0 0 256 256" fill="none" xmlns="http://www.w3.org/2000/svg">
<path d="M60.736 252.802C60.736 252.802 60.224 252.802 59.904 252.674C56.768 251.906 57.344 247.81 58.112 242.69C58.752 238.402 59.904 232.13 61.44 224.706C61.696 223.49 62.016 222.21 62.336 220.866C54.912 220.546 48.384 218.946 43.008 216.066C42.24 215.682 39.168 213.954 37.696 213.186C36.48 212.482 35.968 211.074 36.352 209.794C36.736 208.45 38.016 207.618 39.36 207.746C40.704 207.81 42.944 208.002 43.328 208.066C50.048 208.578 57.6 208.13 65.792 206.85C65.92 206.466 65.984 206.082 66.112 205.634C67.712 199.746 69.376 193.986 71.168 188.354C70.336 187.842 69.632 187.394 68.928 186.946H68.864C68.16 186.434 67.392 185.922 66.624 185.41L66.368 185.218C65.664 184.706 64.896 184.194 64.192 183.618L63.936 183.426C62.464 182.274 60.992 181.058 59.584 179.842L59.392 179.65C58.688 179.01 58.048 178.434 57.408 177.794L57.152 177.538C55.808 176.258 54.592 174.914 53.376 173.57L53.184 173.378C52.608 172.674 51.968 171.97 51.392 171.266L51.264 171.138C50.048 169.666 48.96 168.13 47.872 166.594L47.744 166.402C47.232 165.634 46.656 164.802 46.208 164.034C45.184 162.306 44.224 160.642 43.264 158.914V158.722C42.688 157.826 42.24 156.93 41.856 156.098C41.024 154.306 40.256 152.45 39.552 150.658V150.466C38.784 148.61 38.144 146.754 37.632 144.962L37.504 144.45C37.248 143.426 36.928 142.402 36.736 141.378L36.608 140.738C36.16 138.818 35.776 136.898 35.52 134.914C35.392 134.21 35.328 133.634 35.264 132.994V132.546C35.136 132.034 35.072 131.522 35.072 130.946V130.306C34.944 129.794 34.944 129.346 34.88 128.834V128.13C34.816 127.618 34.816 127.106 34.752 126.658V126.018C34.752 125.314 34.752 124.674 34.752 123.97C34.752 123.458 34.752 123.01 34.752 122.498C32.128 119.426 32.704 115.714 34.24 113.09C34.56 112.514 35.072 112.13 35.712 111.874V111.746C35.84 110.978 35.968 110.21 36.16 109.442V108.994C36.352 108.546 36.416 108.034 36.544 107.586C36.544 107.33 36.48 107.074 36.48 106.818C36.48 105.154 36.608 101.25 36.608 100.354C37.952 61.3141 99.968 19.2661 140.288 8.57806H140.352C147.968 6.72206 151.424 5.95406 154.048 6.65806C155.584 7.10606 156.608 8.57806 156.416 10.2421C156.288 11.3941 155.52 12.4181 154.432 12.9301C145.792 16.9621 118.848 31.2981 93.12 50.7541C94.528 50.4341 95.936 50.1781 97.28 49.9221C99.264 49.6021 101.248 49.3461 103.168 49.2181H103.296C104.192 49.1541 105.088 49.0901 106.048 49.0261H106.56C108.416 48.9621 109.824 48.9621 111.36 49.0261C111.488 49.0261 111.616 49.0261 111.808 49.0261H112.064C112.512 49.0261 112.96 49.0261 113.408 49.0261C113.6 49.0261 113.728 49.0261 113.92 49.0261H114.304C114.688 49.0261 115.008 49.0901 115.392 49.1541C115.584 49.1541 115.776 49.1541 116.032 49.1541H116.352C116.672 49.1541 117.056 49.2181 117.376 49.2821C117.568 49.2821 117.824 49.2821 118.016 49.3461H118.208C118.592 49.4101 118.912 49.4741 119.296 49.4741C119.552 49.4741 119.808 49.5381 120.064 49.6021H120.192C120.576 49.6661 120.896 49.7301 121.28 49.7941C121.6 49.7941 121.856 49.8581 122.176 49.9221C122.496 49.9221 122.88 50.0501 123.2 50.1141C123.52 50.1141 123.776 50.2421 124.032 50.3061C124.352 50.3701 124.736 50.4341 125.056 50.4981C125.312 50.4981 125.632 50.6261 125.888 50.6901C126.208 50.7541 126.592 50.8181 126.912 50.9461C127.168 51.0101 127.488 51.0741 127.744 51.1381C128.064 51.2021 128.448 51.3301 128.768 51.3941C129.024 51.4581 129.344 51.5221 129.6 51.6501C129.92 51.7141 130.304 51.8421 130.624 51.9701C130.624 51.9701 131.136 52.1621 131.392 52.2261C131.712 52.3541 132.096 52.4181 132.416 52.5461H132.608C132.608 52.5461 132.992 52.7381 133.184 52.8021C133.504 52.9301 133.824 52.9941 134.144 53.1221L134.464 53.2501C134.464 53.2501 134.848 53.3781 135.04 53.4421C135.36 53.5701 135.68 53.6981 136 53.8261L136.32 53.9541C136.32 53.9541 136.64 54.0821 136.768 54.1461C137.152 54.2741 137.536 54.4661 137.92 54.5941L138.496 54.8501C141.056 55.9381 143.616 57.1541 146.048 58.562L146.24 58.6901C147.008 59.1381 147.776 59.5861 148.544 60.0341H148.672C149.376 60.5461 150.144 61.0581 150.848 61.5061H150.976C151.744 62.0821 152.448 62.5941 153.152 63.1061L153.344 63.2341C154.752 64.2581 156.16 65.3461 157.504 66.4981L157.824 66.7541C159.104 67.8421 160.384 68.9941 161.6 70.2101L161.792 70.4021C163.008 71.618 164.224 72.8981 165.44 74.1781L165.632 74.37C166.784 75.7141 167.936 77.0581 169.024 78.4661L169.152 78.6581C169.728 79.3621 170.24 80.1301 170.752 80.8341C171.2 81.6021 171.712 82.3061 172.224 83.0741V83.202C172.8 83.9701 173.248 84.7381 173.696 85.5061V85.6341C174.976 87.6821 176.128 89.7941 177.088 91.9061C177.344 92.482 177.664 93.0581 177.92 93.6981V93.826C178.24 94.4021 178.496 94.9141 178.688 95.4901L178.816 95.7461C179.008 96.258 179.264 96.8341 179.456 97.3461V97.6021C179.776 98.1781 179.968 98.6901 180.16 99.2661V99.522C180.352 99.9061 180.48 100.29 180.608 100.674C180.736 101.058 182.08 103.618 183.872 115.842C183.872 116.226 183.936 116.674 184 117.122V117.25C184 117.25 184 117.698 184.064 117.954C184.064 118.402 184.064 118.786 184.128 119.234V119.49C184.128 119.49 184.128 119.81 184.128 120.002C184.128 120.45 184.128 120.898 184.128 121.41V122.05C184.128 122.69 184.128 123.394 184.128 124.034C184.128 124.866 184.128 125.698 184.128 126.658V127.298C184.128 128.194 184 129.026 183.936 129.794C183.936 130.626 183.808 131.458 183.68 132.354V132.994C183.552 133.378 183.552 133.698 183.488 134.082C184 134.722 184.448 135.362 184.896 135.938C185.728 137.026 186.56 138.178 187.392 139.266L187.904 139.97C188.864 141.314 189.824 142.594 190.784 144.066C191.744 145.474 192.64 146.882 193.536 148.226L194.88 150.274L196.224 152.386C202.624 162.69 208.704 174.082 214.848 187.202C217.92 193.794 220.48 199.682 222.72 205.186V205.314C225.792 213.826 227.904 220.226 229.12 224.45C230.336 228.738 231.36 232.514 228.48 233.73C225.856 234.818 224.064 232.066 222.912 230.21C221.824 228.482 220.352 225.986 218.624 222.722C215.68 217.154 211.712 209.282 207.232 199.938L206.464 198.338C205.12 195.458 203.648 192.45 202.112 189.826C200.128 186.498 198.144 182.914 196.288 179.522C192.64 172.93 188.864 166.082 184.768 160.386L183.36 158.466L181.952 156.61C181.056 155.394 180.096 154.114 179.136 152.898C178.944 152.642 178.816 152.45 178.624 152.258C178.432 152.77 178.176 153.346 177.984 153.858L177.792 154.306C177.472 155.074 177.152 155.778 176.768 156.482C176.448 157.25 176.064 157.954 175.68 158.786L175.424 159.234C175.04 159.938 174.656 160.642 174.272 161.346C174.272 161.346 174.272 162.626 174.08 163.138C173.568 165.25 172.288 168.13 167.04 173.698C146.816 194.178 106.752 217.09 73.92 220.738C70.848 230.978 68.352 238.786 66.432 244.034C64.32 249.858 62.976 253.122 60.544 253.122L60.736 252.802ZM69.184 215.49L68.352 218.882C67.712 221.57 67.2 223.81 66.688 225.858C66.688 226.05 66.624 226.242 66.56 226.37C67.392 223.618 68.352 220.546 69.376 217.09L69.888 215.298L71.744 215.106C102.976 212.29 141.568 190.658 161.92 170.882L168.512 160.258C168.96 159.554 169.344 158.914 169.728 158.274C170.112 157.57 170.432 156.93 170.816 156.29L171.328 155.266C171.584 154.754 171.84 154.242 172.096 153.73C172.416 153.09 172.736 152.386 172.992 151.746L173.504 150.658C173.696 150.21 173.888 149.698 174.08 149.186C174.336 148.418 174.592 147.714 174.848 147.074L175.04 146.562C175.168 146.242 175.296 145.858 175.424 145.538L176.96 140.802L180.736 145.474C181.44 146.37 182.144 147.266 182.848 148.162C183.104 148.546 183.424 148.866 183.68 149.25C184.704 150.53 185.664 151.81 186.56 153.09L187.968 155.01L189.376 156.994C193.664 162.946 197.504 169.922 201.216 176.642C203.072 180.034 205.056 183.554 206.976 186.818C208.64 189.634 210.112 192.77 211.52 195.778L212.288 197.378C215.296 203.714 217.92 208.962 220.096 213.25C219.456 211.394 218.752 209.282 217.92 206.978C215.68 201.538 213.184 195.714 210.176 189.25C204.096 176.322 198.144 165.122 191.872 155.01L190.592 152.898L189.248 150.85C188.416 149.506 187.52 148.162 186.56 146.818C185.6 145.41 184.704 144.13 183.744 142.85L183.232 142.146C182.4 141.058 181.632 139.97 180.864 138.946C180.224 138.114 179.584 137.282 178.752 136.258L177.984 135.362L178.176 134.21C178.304 133.506 178.368 132.802 178.432 132.098V131.522C178.624 130.626 178.688 129.922 178.688 129.218C178.688 128.514 178.816 127.746 178.816 126.85V126.274C178.816 125.378 178.88 124.61 178.88 123.906C178.88 123.202 178.88 122.562 178.88 121.986V121.41C178.88 120.962 178.88 120.578 178.816 120.13V119.426C178.752 119.042 178.688 118.658 178.688 118.274C178.688 118.082 178.688 117.89 178.688 117.634V117.506C178.688 117.122 178.624 116.738 178.56 116.354C178.56 116.098 178.56 115.906 178.496 115.65C178.496 115.266 178.368 114.882 178.368 114.498L178.176 113.218L177.792 110.53H177.984C177.792 109.506 177.472 108.546 177.088 107.65V107.458L176.96 107.266C176.576 105.794 176.192 104.386 175.744 102.978V102.85C175.552 102.338 175.36 101.762 175.168 101.25V101.058C174.912 100.546 174.72 100.034 174.528 99.522V99.2661C174.272 98.7541 174.08 98.2421 173.824 97.7301V97.538C173.504 97.026 173.312 96.5141 173.056 96.0021V95.874C172.736 95.298 172.48 94.7861 172.224 94.2101C171.264 92.2261 170.24 90.3061 169.152 88.4501V88.3221C168.64 87.618 168.192 86.9141 167.744 86.2101C167.296 85.4421 166.784 84.7381 166.336 84.034C165.824 83.3301 165.376 82.6901 164.864 81.9861L164.736 81.7941C163.776 80.5141 162.688 79.234 161.664 78.0181L161.536 77.8901C160.448 76.6101 159.296 75.4581 158.144 74.3061L158.016 74.1781C156.8 73.0261 155.584 71.938 154.368 70.8501L154.176 70.7221C152.96 69.6981 151.616 68.6741 150.272 67.7141L150.144 67.5861C149.504 67.0741 148.8 66.6261 148.096 66.1781H148.032C147.328 65.6661 146.688 65.2181 145.984 64.8341H145.856C145.152 64.3221 144.448 63.9381 143.744 63.4901L143.552 63.3621C141.248 62.0821 138.88 60.93 136.512 59.9061L136 59.7141C135.616 59.5861 135.296 59.3941 134.912 59.2661L134.144 59.0101C134.144 59.0101 133.568 58.7541 133.248 58.6901C133.056 58.6901 132.928 58.5621 132.736 58.4981L132.416 58.3701C132.416 58.3701 131.84 58.1781 131.52 58.0501C131.328 58.0501 131.136 57.9221 131.008 57.8581H130.816C130.816 57.8581 130.176 57.6021 129.856 57.4741C129.6 57.4101 129.408 57.3461 129.152 57.2821C129.152 57.2821 128.512 57.0901 128.192 56.9621C127.936 56.8981 127.68 56.8341 127.424 56.7701C127.104 56.7061 126.784 56.5781 126.464 56.5141C126.208 56.4501 125.952 56.3861 125.696 56.3221C125.376 56.2581 125.056 56.1941 124.736 56.1301C124.48 56.1301 124.224 56.0021 123.968 55.9381C123.648 55.8741 123.328 55.8101 123.008 55.7461C122.752 55.7461 122.496 55.6181 122.24 55.6181C121.92 55.6181 121.6 55.4901 121.28 55.4261C121.024 55.4261 120.768 55.3621 120.448 55.2981C120.128 55.2981 119.808 55.1701 119.488 55.1701H119.36C119.36 55.1701 118.912 55.1061 118.656 55.0421C118.336 55.0421 117.952 54.9781 117.632 54.9141H117.44C117.44 54.9141 117.056 54.8501 116.864 54.8501C116.544 54.8501 116.224 54.8501 115.904 54.7861H115.584C115.584 54.7861 115.2 54.7861 115.072 54.7221C114.752 54.7221 114.432 54.7221 114.048 54.6581H113.664C113.664 54.6581 113.344 54.6581 113.216 54.6581C112.832 54.6581 112.384 54.6581 112 54.6581H111.424C110.016 54.6581 108.736 54.6581 107.008 54.6581H106.56C105.664 54.6581 104.768 54.7861 104 54.8501H103.872C102.08 54.9781 100.224 55.2341 98.432 55.5541C97.152 55.7461 95.808 56.0021 94.528 56.3221C93.568 56.5141 92.608 56.7701 91.648 57.0261H91.584C88.896 57.7301 86.336 58.6261 83.776 59.6501L83.136 59.9061C82.304 60.2261 81.536 60.6101 80.768 60.9301L62.592 69.25L77.888 56.3861C99.584 38.1461 124.48 23.1061 140.096 14.5941C120.064 20.2261 96.192 33.0901 77.248 48.3861C55.104 66.3061 42.624 84.9301 41.984 100.866V100.994C41.984 100.994 41.92 102.594 41.856 104.066L43.072 103.81L41.984 107.97C41.792 108.802 41.6 109.57 41.472 110.338V110.722C41.28 111.426 41.152 112.13 41.024 112.834V113.282C40.832 114.05 40.704 114.818 40.64 115.65V116.162C40.512 116.866 40.448 117.506 40.384 118.21L40.192 120.45V121.73C40.192 122.626 40.192 123.33 40.192 124.034C40.192 124.738 40.192 125.442 40.192 126.082V126.658C40.192 127.106 40.192 127.554 40.256 128.066V128.706C40.32 129.154 40.384 129.602 40.384 130.05V130.626C40.512 131.138 40.512 131.586 40.576 132.098V132.546C40.704 133.122 40.768 133.698 40.832 134.274V134.402C41.152 136.386 41.536 138.37 41.984 140.29V140.546C42.304 141.506 42.56 142.466 42.816 143.426C43.328 145.218 43.904 147.01 44.544 148.738V148.93C45.248 150.594 45.952 152.258 46.72 153.858L46.848 154.05C47.232 154.818 47.616 155.586 48 156.354V156.482C48.896 158.082 49.856 159.618 50.752 161.154C51.2 161.922 51.648 162.626 52.096 163.266L52.288 163.586C53.312 165.058 54.4 166.466 55.488 167.874L55.616 168.002C56.128 168.642 56.704 169.346 57.28 169.986L57.408 170.114C58.56 171.458 59.776 172.738 61.056 173.954L61.248 174.146C61.824 174.722 62.464 175.298 63.104 175.874L63.36 176.13C64.64 177.218 65.92 178.306 67.264 179.33L67.52 179.522C68.224 180.034 68.864 180.546 69.568 180.994L69.76 181.122C70.528 181.634 71.168 182.082 71.872 182.53H71.936C72.64 182.978 73.344 183.426 74.112 183.938L74.496 184.13C74.944 184.386 75.392 184.642 75.904 184.898L77.888 185.986L77.056 188.482C75.136 194.498 73.28 200.834 71.552 207.17C71.36 207.874 71.168 208.642 70.976 209.346L70.336 211.714L68.608 212.034C62.528 213.122 56.704 213.698 51.264 213.826C55.552 215.106 60.352 215.81 65.792 215.746H69.248L69.184 215.49ZM71.168 211.394L72.448 206.978C74.048 201.346 76.224 194.882 78.336 189.186L79.36 186.498L81.984 187.65C82.752 187.97 83.52 188.29 84.224 188.546H84.48C85.184 188.93 85.952 189.186 86.72 189.442L87.04 189.57C87.808 189.826 88.576 190.082 89.408 190.338L89.856 190.466C90.752 190.722 91.52 190.914 92.288 191.106H92.48C93.248 191.362 94.016 191.554 94.848 191.682H95.232C96 191.938 96.832 192.066 97.664 192.258H98.176C99.136 192.514 99.968 192.642 100.736 192.706H100.864C101.632 192.834 102.464 192.898 103.36 192.962H103.808C104.64 193.09 105.472 193.154 106.368 193.154H106.88C108.48 193.218 109.696 193.218 110.912 193.154L125.248 192.898L112 198.402C99.2 203.714 86.976 207.682 75.648 210.242L71.168 211.266V211.394ZM82.432 193.73C81.216 197.058 80.064 200.578 78.976 203.97C85.184 202.37 91.712 200.386 98.432 197.954C98.048 197.954 97.664 197.826 97.216 197.762H96.64C95.744 197.506 94.848 197.378 94.016 197.186L93.568 197.058C92.672 196.866 91.84 196.674 91.072 196.482H90.816C89.984 196.226 89.152 195.97 88.192 195.714L87.68 195.586C86.784 195.33 85.952 195.074 85.12 194.754L84.8 194.626C83.968 194.306 83.136 194.05 82.368 193.73H82.432Z" fill="white"/>
<path d="M140.992 11.2676C100.416 22.0196 40.512 63.6196 39.104 100.612C39.104 101.188 38.976 104.964 38.976 106.948C38.976 107.204 39.296 107.268 39.424 107.076C40 105.796 41.088 103.684 41.28 103.236C62.272 58.9476 136.96 18.1156 153.408 10.4996C153.92 10.2436 153.856 9.53964 153.344 9.34764C151.488 8.77164 148.096 9.60364 140.992 11.2676Z" fill="#FFE500"/>
<path d="M109.44 196.1C149.311 196.1 181.632 163.778 181.632 123.908C181.632 84.0372 149.311 51.7157 109.44 51.7157C69.5695 51.7157 37.248 84.0372 37.248 123.908C37.248 163.778 69.5695 196.1 109.44 196.1Z" fill="white"/>
<path d="M114.24 76.4197C114.56 76.9317 114.816 77.4437 115.136 77.9557C118.912 76.6757 123.52 74.8197 128.256 72.1317C131.84 70.0837 138.176 62.7237 139.072 58.7557C139.072 58.4997 139.136 58.3077 139.136 58.1157C130.048 54.0197 120 51.7157 109.44 51.7157C105.472 51.7157 101.568 52.0357 97.792 52.6757C103.808 60.1637 109.376 68.0997 114.176 76.4197H114.24Z" fill="#E73233"/>
<path d="M129.984 75.2677C125.312 77.8917 120.704 79.8117 116.864 81.1557C119.296 85.6357 121.408 89.9237 123.264 94.0837C127.104 93.1237 131.072 92.2277 135.36 91.5237C145.216 89.8597 156.992 88.2597 172.736 89.2197C165.824 76.6117 155.264 66.3077 142.464 59.7157C141.056 65.0917 133.824 73.0277 129.92 75.2677H129.984Z" fill="#E73233"/>
<path d="M60.928 78.7237C67.456 78.9157 71.68 79.4917 75.84 80.0677C77.568 80.3237 79.232 80.5157 80.96 80.7077C86.272 81.2837 95.232 82.2437 105.92 80.3877C106.112 80.3877 108.224 80.0037 111.488 79.0437C111.36 78.7877 111.168 78.5317 111.04 78.2117C105.92 69.5077 100.096 61.1877 93.696 53.4437C77.44 57.0277 63.232 66.1797 53.12 78.7237C55.68 78.7237 58.304 78.7237 60.864 78.7237H60.928Z" fill="#E73233"/>
<path d="M133.568 137.412C133.312 136.516 133.12 135.556 132.864 134.532C130.368 124.74 127.296 112.452 121.28 98.3717C108.992 101.828 98.176 106.756 84.608 112.964C69.376 119.94 62.528 124.612 57.344 128.58C51.264 133.252 40.384 145.028 40.384 145.028C49.088 175.108 76.544 196.1 109.44 196.1C118.016 196.1 126.208 194.628 133.76 191.876C135.744 183.428 139.328 160.132 133.504 137.412H133.568Z" fill="#E73233"/>
<path d="M55.104 125.764C60.416 121.668 67.52 116.868 83.072 109.7C96.576 103.492 107.392 98.5636 119.744 95.0436C117.888 90.9476 115.776 86.6596 113.344 82.3076C109.376 83.4596 106.752 83.9716 106.496 83.9716C101.568 84.8036 97.024 85.0596 92.992 85.0596C87.872 85.0596 83.648 84.6116 80.512 84.2916C78.72 84.0996 77.056 83.9076 75.264 83.6516C71.232 83.1396 67.072 82.5636 60.736 82.3716C57.92 82.3076 53.504 82.2436 50.368 82.3076C42.048 94.0836 37.12 108.42 37.12 123.972C37.12 129.732 37.824 135.364 39.104 140.74C43.904 135.236 49.28 130.244 55.04 125.764H55.104Z" fill="#E73233"/>
<path d="M174.72 92.9957C158.272 91.7157 146.176 93.3797 136.064 95.1077C132.096 95.7477 128.384 96.5796 124.8 97.4757C130.752 111.556 133.888 123.844 136.384 133.7C136.64 134.66 136.896 135.62 137.088 136.58C142.656 158.34 139.968 180.036 137.856 190.404C163.648 179.396 181.696 153.796 181.696 123.972C181.696 112.9 179.2 102.404 174.784 93.0597L174.72 92.9957Z" fill="#E73233"/>
<path d="M64.0639 225.348C65.4719 218.948 67.0719 212.612 68.7359 206.34C70.4639 200.004 72.3199 193.732 74.3039 187.524C75.3279 184.388 76.3519 181.316 77.4399 178.18C77.9519 176.644 78.5279 175.108 79.1039 173.572C79.6799 172.036 80.2559 170.5 80.8319 168.964L82.6879 164.356L84.6079 159.812C85.2479 158.276 85.9519 156.804 86.6559 155.268C87.3599 153.796 88.0639 152.26 88.7679 150.788C91.7119 144.836 94.9119 139.012 98.6879 133.38C99.6479 131.972 100.544 130.564 101.632 129.22L103.168 127.172L104.832 125.188L105.664 124.228L106.56 123.268L108.288 121.348C109.504 120.132 110.72 118.852 112.064 117.764C113.344 116.548 114.816 115.524 116.224 114.436L118.464 112.964C119.232 112.452 120 112.068 120.832 111.62C124.032 109.892 127.488 108.548 131.136 107.78C134.784 107.076 138.624 106.948 142.272 107.524C145.92 108.1 149.44 109.188 152.64 110.66C155.904 112.132 158.912 113.988 161.728 115.972C164.544 117.956 167.168 120.196 169.664 122.436C174.592 127.108 178.944 132.1 182.976 137.348C184 138.628 184.96 139.972 185.92 141.316C186.88 142.66 187.84 144.004 188.8 145.348C189.76 146.692 190.656 148.1 191.552 149.444L192.896 151.492L194.176 153.604C201.088 164.74 207.168 176.324 212.672 188.164C215.424 194.052 218.048 200.004 220.544 206.084C236.928 252.164 222.848 225.54 209.984 198.596C208.384 195.204 206.656 191.492 204.8 188.292C199.04 178.564 193.664 167.492 187.328 158.596L185.984 156.676L184.576 154.756C183.616 153.476 182.72 152.196 181.696 150.98C180.736 149.764 179.776 148.484 178.816 147.268C177.856 146.052 176.832 144.836 175.872 143.62C171.84 138.884 167.616 134.34 163.136 130.308C160.832 128.388 158.592 126.404 156.16 124.868C153.728 123.204 151.296 121.796 148.736 120.708C146.176 119.62 143.616 118.788 141.056 118.468C138.496 118.084 135.936 118.212 133.376 118.66C130.88 119.172 128.384 120.068 126.016 121.348C125.44 121.668 124.8 121.988 124.224 122.372L122.496 123.524C121.344 124.356 120.256 125.188 119.168 126.148C118.08 127.044 116.992 128.068 115.968 129.092L114.432 130.692L113.664 131.524L112.96 132.356L111.488 134.084L110.08 135.876C109.12 137.028 108.224 138.308 107.328 139.524C103.744 144.516 100.544 149.892 97.4719 155.396C94.4639 160.9 91.5839 166.596 88.8959 172.42C88.1919 173.828 87.5519 175.364 86.9119 176.772C86.2719 178.244 85.5679 179.716 84.9919 181.188C83.7119 184.132 82.4959 187.076 81.2159 190.084C78.9119 196.164 76.4799 203.652 74.7519 209.86C58.5599 265.284 57.9199 256.516 64.3839 225.348H64.0639Z" fill="#FFE500"/>
<path d="M180.928 112.644C180.928 112.644 180.736 112.836 180.672 112.708C178.88 108.996 175.424 103.428 169.152 99.2676C158.976 92.5476 147.648 93.9556 138.752 95.1076C132.48 95.9396 128.128 96.7076 108.224 104.644C100.992 107.524 84.2879 114.756 64.5759 121.028C53.8879 124.42 42.2399 124.74 38.2719 122.116C34.0479 119.3 35.6479 115.716 36.4159 114.436C36.4799 114.308 36.7359 114.308 36.7359 114.5C36.8639 115.396 37.1199 117.316 37.6959 117.956C38.6559 118.98 41.0239 120.516 47.8079 119.172C61.6959 116.42 86.0799 103.172 91.6479 100.548C114.944 89.4756 133.824 83.0116 150.976 85.9556C160.064 87.5556 165.504 91.0756 167.744 92.6116C173.504 96.7076 176.768 101.124 178.752 104.772C180.032 107.14 180.736 109.764 180.928 112.452V112.644Z" fill="#FFE500"/>
<path d="M165.312 171.588C137.152 200.068 74.752 229.956 44.224 213.764C43.712 213.508 40.64 211.844 39.04 210.948C38.848 210.82 38.912 210.5 39.168 210.564C40.512 210.628 42.688 210.82 43.136 210.884C88.96 214.34 155.584 176.004 170.752 162.116C171.136 161.732 171.84 161.796 171.712 162.308C171.264 164.1 170.048 166.66 165.312 171.716V171.588Z" fill="#FFE500"/>
<path d="M63.168 187.205C62.976 186.501 62.528 185.925 61.76 185.413C60.992 184.965 60.288 184.773 59.584 184.901C59.264 184.901 59.008 185.093 58.688 185.221C58.432 185.413 58.176 185.605 58.048 185.925C57.6 186.629 57.536 187.333 57.856 188.037C57.984 188.293 58.176 188.549 58.368 188.805C58.56 189.061 58.88 189.317 59.2 189.573C59.584 189.829 59.712 190.021 59.712 190.149C59.712 190.213 59.84 190.405 59.584 190.725C59.392 191.045 59.2 191.109 59.136 191.109C58.944 191.109 58.624 191.109 58.304 190.853C57.792 190.533 57.664 190.149 57.664 189.957C57.664 189.829 57.664 189.701 57.728 189.509L57.92 189.061L57.024 188.485L57.216 188.165L56.448 187.589L59.136 183.813L57.792 182.853L55.104 186.629L54.336 186.053L53.376 187.397L54.144 187.973L53.184 189.317L54.528 190.277L55.488 188.933L56.064 189.317C56 189.701 56 190.149 56.064 190.533C56.256 191.173 56.704 191.749 57.344 192.197C57.92 192.581 58.432 192.709 58.944 192.709C59.072 192.709 59.264 192.709 59.392 192.709C59.712 192.645 59.968 192.517 60.224 192.325C60.48 192.133 60.736 191.877 60.928 191.621C61.376 190.917 61.824 189.573 60.096 188.293C59.456 187.781 59.264 187.461 59.2 187.333C59.2 187.333 59.136 187.141 59.328 186.885C59.328 186.821 59.456 186.693 59.52 186.693C59.648 186.629 59.84 186.565 60.16 186.629C60.352 186.629 60.608 186.757 60.8 186.885C60.928 187.013 61.056 187.077 61.184 187.205C61.312 187.333 61.376 187.525 61.44 187.717C61.44 187.845 61.44 188.037 61.44 188.229L61.248 188.677L62.656 189.573L62.912 188.933C63.168 188.357 63.168 187.781 63.04 187.269L63.168 187.205Z" fill="white"/>
<path d="M53.4399 180.229C53.4399 179.525 52.9919 178.821 52.3519 178.245C51.7119 177.669 51.0079 177.413 50.2399 177.413C50.0479 177.413 49.7919 177.413 49.5999 177.541C49.5999 177.413 49.5999 177.285 49.5999 177.093C49.5999 176.709 49.5359 176.261 49.4079 175.877C49.2799 175.493 49.0239 175.109 48.7039 174.853C48.3199 174.469 47.8719 174.213 47.4239 174.021C46.9119 173.893 46.4639 173.829 45.9519 173.893L45.3119 174.021L45.5679 174.853L44.9919 174.213L44.7999 174.405L46.0799 171.909L45.7599 171.525L45.5039 171.205L45.1839 170.821L42.7519 171.653C42.7519 171.653 42.9439 171.397 43.0719 171.269C43.2639 170.885 43.3919 170.501 43.4559 170.117C43.4559 169.733 43.4559 169.285 43.3919 168.901C43.2639 168.517 43.0719 168.133 42.8159 167.813C42.4959 167.365 42.1119 167.045 41.5999 166.853C41.2159 166.661 40.7679 166.597 40.3199 166.597L41.2799 165.957L40.3199 164.549L37.0559 166.725C37.0559 166.725 36.8639 166.789 36.7999 166.853C36.6719 166.853 36.6079 166.853 36.4799 166.853C36.2879 166.853 36.0959 166.661 35.9679 166.469C35.9679 166.469 35.9039 166.341 35.8399 166.149V165.893L34.1119 164.997V166.021C34.1759 166.469 34.3039 166.917 34.6239 167.301C34.8159 167.621 35.0719 167.877 35.3919 168.069C35.7759 168.325 36.2239 168.453 36.6719 168.453C36.6719 168.453 37.1199 168.453 37.3759 168.325C37.2479 168.645 37.1199 168.965 37.0559 169.221C37.0559 169.605 37.0559 170.053 37.1199 170.437C37.2479 170.821 37.4399 171.205 37.6959 171.525C37.9519 171.845 38.2719 172.165 38.6559 172.357C38.9119 172.549 39.2319 172.613 39.5519 172.677L38.7839 172.933L39.9359 174.277L43.5199 173.061L41.7919 176.453L42.9439 177.797L43.3919 176.901C43.3919 177.285 43.4559 177.669 43.5839 178.053C43.7119 178.437 43.9679 178.757 44.2879 179.077C44.6079 179.397 44.9279 179.589 45.3119 179.781C45.6959 179.973 46.0799 180.037 46.4639 180.037C46.5279 180.037 46.5919 180.037 46.6559 180.037L46.3999 180.485C46.0799 181.061 45.8879 181.637 45.9519 182.277C46.0159 182.981 46.3999 183.557 46.9759 184.133C47.5519 184.645 48.1919 184.965 48.8959 184.965C48.8959 184.965 48.8959 184.965 48.9599 184.965C49.2799 184.965 49.5999 184.837 49.8559 184.709C50.1759 184.581 50.4319 184.389 50.6239 184.133C51.1359 183.493 51.8399 182.277 50.3679 180.677C49.7919 180.037 49.6639 179.717 49.5999 179.589C49.5999 179.589 49.5999 179.397 49.7919 179.205C49.8559 179.141 49.9199 179.077 49.9839 179.013C50.1119 179.013 50.3039 178.885 50.6239 179.013C50.8159 179.077 51.0079 179.205 51.1999 179.397C51.3279 179.525 51.4559 179.653 51.5199 179.781C51.6479 179.973 51.7119 180.101 51.7119 180.293C51.7119 180.485 51.7119 180.613 51.5839 180.805L51.3279 181.253L52.6079 182.341L52.9919 181.701C53.3119 181.189 53.4399 180.613 53.3759 180.037L53.4399 180.229ZM38.7839 169.285L40.2559 171.205C40.2559 171.205 39.9999 171.205 39.8719 171.205C39.4879 171.141 39.2319 170.949 39.0399 170.693C38.8479 170.373 38.7199 170.117 38.7199 169.733C38.7199 169.605 38.7199 169.477 38.7839 169.349V169.285ZM40.1279 168.261C40.1279 168.261 40.6399 168.261 40.8319 168.389C41.0239 168.517 41.2159 168.645 41.3439 168.837C41.5359 169.157 41.6639 169.413 41.6639 169.797C41.6639 169.925 41.6639 170.053 41.5999 170.181L40.1279 168.261ZM39.4879 167.429L39.2959 167.173H39.4239V167.429H39.4879ZM46.7839 178.501C46.7839 178.501 46.5279 178.501 46.3999 178.501C46.0159 178.501 45.7599 178.309 45.5039 178.053C45.2479 177.797 45.1199 177.477 45.1199 177.157C45.1199 177.029 45.1199 176.901 45.1199 176.773L46.7839 178.501ZM47.9999 176.965C47.9999 176.965 47.9999 177.221 47.9999 177.349L46.2719 175.621C46.2719 175.621 46.7839 175.621 46.9759 175.621C47.1679 175.685 47.3599 175.813 47.5519 176.005C47.8079 176.261 47.9359 176.581 47.9359 176.901L47.9999 176.965ZM47.6799 180.037C47.6799 180.037 47.8719 179.909 47.9999 179.845C47.9999 179.973 47.9999 180.101 48.0639 180.229C48.1279 180.485 48.2559 180.805 48.4479 181.061C48.6399 181.317 48.8319 181.637 49.1519 181.957C49.4719 182.277 49.5359 182.533 49.5999 182.597C49.5999 182.661 49.5999 182.853 49.4079 183.173C49.1519 183.429 48.9599 183.493 48.8959 183.493C48.7039 183.493 48.4479 183.365 48.1279 183.109C47.6799 182.661 47.6159 182.341 47.6799 182.085C47.6799 181.957 47.7439 181.829 47.8079 181.701L48.0639 181.253L46.9119 180.229C46.9119 180.229 47.4239 180.165 47.6159 180.037H47.6799Z" fill="white"/>
<path d="M36.48 158.405L33.728 158.789L32.896 157.189L34.816 155.205L33.984 153.605L33.792 153.797C33.792 153.797 33.792 153.605 33.792 153.477C33.792 153.157 33.728 152.773 33.6 152.453C33.472 152.133 33.28 151.877 33.088 151.685H33.152L32.448 150.085L31.552 150.469C31.552 150.469 31.616 150.341 31.68 150.277C31.872 149.893 31.936 149.509 32 149.061C32 148.613 32 148.229 31.808 147.845C31.616 147.333 31.36 146.885 30.976 146.501H31.232L30.848 145.413L30.336 143.813L29.376 144.133C29.568 143.749 29.76 143.365 29.824 142.981C29.888 142.533 29.824 142.149 29.76 141.701C29.632 141.189 29.44 140.805 29.12 140.485C29.312 140.485 29.44 140.549 29.568 140.677C29.76 140.741 29.888 140.869 30.016 141.061C30.144 141.253 30.208 141.381 30.272 141.573C30.272 141.765 30.336 141.957 30.272 142.149C30.272 142.341 30.208 142.533 30.08 142.661L29.824 143.045L31.04 144.261L31.424 143.621C31.68 143.237 31.808 142.853 31.872 142.405C31.936 141.957 31.872 141.509 31.808 141.061C31.68 140.677 31.488 140.293 31.232 139.973C30.976 139.653 30.656 139.397 30.336 139.205C30.016 139.013 29.632 138.885 29.184 138.821C29.12 138.821 29.056 138.821 28.928 138.821L28.672 137.669L25.024 138.373C25.024 138.373 24.704 138.373 24.576 138.373C24.448 138.373 24.256 138.245 24.192 138.117C24.064 137.989 24 137.861 24 137.669C24 137.541 24 137.413 24 137.285C24 137.157 24.064 137.029 24.128 136.965C24.192 136.837 24.256 136.773 24.384 136.709C24.512 136.645 24.576 136.581 24.704 136.581L28.352 135.877L28.032 134.213L27.008 134.405C27.008 134.405 27.072 134.341 27.136 134.277C27.392 133.957 27.584 133.573 27.712 133.189C27.84 132.805 27.84 132.357 27.84 131.909C27.84 131.461 27.648 131.077 27.456 130.693C27.264 130.309 26.944 129.989 26.624 129.733C26.496 129.669 26.432 129.605 26.304 129.541H27.456L27.328 127.813L23.616 128.005C23.616 128.005 23.296 128.005 23.168 127.877C23.04 127.813 22.912 127.685 22.784 127.557C22.72 127.429 22.656 127.237 22.656 127.109C22.656 126.981 22.656 126.853 22.656 126.725C22.656 126.597 22.784 126.533 22.848 126.405C22.912 126.341 23.04 126.213 23.104 126.213C23.232 126.213 23.296 126.149 23.424 126.149L27.136 125.957L27.008 124.293L23.296 124.485C22.976 124.485 22.592 124.613 22.336 124.741C22.016 124.869 21.76 125.125 21.568 125.381C21.376 125.637 21.184 125.957 21.056 126.277C20.928 126.597 20.928 126.917 20.928 127.301C20.928 127.621 21.056 127.941 21.184 128.261L21.312 129.925H22.72C22.72 129.925 22.336 130.181 22.144 130.373C21.888 130.693 21.696 131.077 21.568 131.461C21.44 131.845 21.44 132.293 21.504 132.741C21.504 133.189 21.696 133.573 21.888 133.893C22.08 134.277 22.336 134.533 22.72 134.789C22.976 134.981 23.232 135.109 23.552 135.237C23.552 135.237 23.552 135.237 23.488 135.237C23.232 135.429 22.976 135.685 22.784 135.941C22.592 136.197 22.464 136.517 22.4 136.901C22.336 137.221 22.336 137.605 22.4 137.925C22.4 138.245 22.592 138.565 22.784 138.821L23.04 140.229L23.488 141.829H23.68C23.552 142.277 23.552 142.789 23.68 143.301C23.808 143.685 24 144.069 24.192 144.389C24.448 144.709 24.768 144.965 25.088 145.221C25.152 145.221 25.28 145.285 25.344 145.349L24.448 145.605C24.448 145.605 24.192 145.605 24.064 145.605C23.808 145.669 23.616 145.861 23.488 146.053C23.36 146.245 23.36 146.501 23.488 146.757C23.552 146.949 23.68 147.141 23.872 147.269L23.104 147.525L23.68 149.061L25.6 148.357C25.6 148.869 25.6 149.381 25.792 149.893C25.92 150.277 26.176 150.661 26.432 150.981C26.752 151.301 27.072 151.557 27.392 151.685C27.584 151.749 27.776 151.813 27.968 151.877L26.688 152.453L27.392 153.989L30.848 152.453C30.848 152.453 31.04 152.389 31.168 152.389C31.296 152.389 31.424 152.389 31.552 152.453C31.68 152.453 31.744 152.581 31.872 152.645C31.936 152.709 32 152.837 32.064 152.965C32.192 153.221 32.192 153.413 32.064 153.669C32.064 153.797 31.936 153.861 31.872 153.989C31.808 154.053 31.68 154.117 31.616 154.181L28.16 155.717L28.864 157.253L31.488 156.101L28.224 159.621L28.928 161.029L37.312 159.877L36.48 158.277V158.405ZM27.456 148.293C27.456 148.293 27.648 147.973 27.776 147.845C27.904 147.717 28.096 147.589 28.288 147.525C28.48 147.461 28.672 147.461 28.864 147.461C29.056 147.461 29.248 147.461 29.44 147.589C29.632 147.653 29.76 147.781 29.888 147.909C30.016 148.037 30.144 148.229 30.208 148.421C30.272 148.613 30.336 148.805 30.272 148.997C30.272 149.189 30.272 149.381 30.144 149.573C30.08 149.765 29.952 149.893 29.824 150.021C29.696 150.149 29.504 150.277 29.312 150.341C29.12 150.405 28.928 150.405 28.736 150.405C28.544 150.405 28.352 150.405 28.16 150.277C27.968 150.213 27.84 150.085 27.712 149.957C27.584 149.829 27.456 149.637 27.392 149.445C27.328 149.253 27.264 149.061 27.328 148.869C27.328 148.677 27.328 148.485 27.456 148.293ZM25.28 142.917C25.28 142.917 25.216 142.533 25.28 142.341C25.28 142.149 25.344 141.957 25.472 141.765C25.536 141.637 25.664 141.445 25.856 141.317C26.048 141.189 26.176 141.125 26.368 141.061C26.56 141.061 26.752 141.061 26.944 141.061C27.136 141.061 27.328 141.125 27.456 141.253C27.648 141.381 27.776 141.509 27.904 141.637C28.032 141.765 28.096 141.957 28.16 142.149C28.16 142.341 28.16 142.533 28.16 142.725C28.16 142.917 28.096 143.109 27.968 143.301C27.84 143.493 27.712 143.621 27.584 143.749C27.456 143.877 27.264 143.941 27.072 144.005C26.88 144.005 26.688 144.005 26.496 144.005C26.304 144.005 26.112 143.941 25.92 143.813C25.728 143.749 25.6 143.621 25.472 143.429C25.344 143.237 25.28 143.109 25.216 142.917H25.28ZM23.232 131.845C23.232 131.845 23.36 131.461 23.488 131.333C23.616 131.205 23.744 131.077 23.936 130.949C24.128 130.821 24.32 130.757 24.512 130.757C24.576 130.757 24.64 130.757 24.704 130.757C24.832 130.757 24.96 130.757 25.088 130.757C25.28 130.757 25.472 130.885 25.6 131.013C25.728 131.141 25.856 131.269 25.984 131.461C26.112 131.653 26.176 131.845 26.176 132.037C26.176 132.229 26.176 132.421 26.176 132.613C26.176 132.805 26.048 132.997 25.92 133.125C25.792 133.253 25.664 133.445 25.472 133.509C25.28 133.637 25.088 133.701 24.896 133.701C24.704 133.701 24.512 133.701 24.32 133.701C24.128 133.701 23.936 133.573 23.808 133.445C23.616 133.317 23.552 133.189 23.424 132.997C23.424 132.997 23.296 132.677 23.232 132.421C23.232 132.229 23.232 132.037 23.232 131.845ZM31.744 158.405L32.064 158.981L31.04 159.109L31.744 158.341V158.405Z" fill="white"/>
<path d="M27.136 120.901L27.264 119.237L22.336 118.853L24.832 117.381V116.293L22.656 114.501L27.584 114.885L27.712 113.221H26.624C26.624 113.221 26.816 113.029 26.88 112.965C27.2 112.709 27.52 112.453 27.712 112.069C27.968 111.685 28.096 111.301 28.16 110.917C28.224 110.469 28.16 110.085 28.16 109.637C28.032 109.253 27.904 108.869 27.648 108.549C27.584 108.421 27.456 108.357 27.392 108.293L28.544 108.549L28.928 106.885L25.28 106.053C25.28 106.053 24.96 105.925 24.896 105.861C24.768 105.733 24.704 105.605 24.64 105.413C24.64 105.285 24.64 105.093 24.64 104.965C24.64 104.837 24.704 104.709 24.768 104.645C24.832 104.517 24.896 104.453 25.024 104.389C25.152 104.325 25.216 104.261 25.344 104.261C25.472 104.261 25.6 104.261 25.664 104.261L29.312 105.093L29.696 103.429L26.112 102.597C26.112 102.597 25.536 102.533 25.216 102.597L25.344 102.085L29.824 103.301L30.272 101.701L27.776 100.997C27.776 100.997 28.032 100.997 28.224 100.997C28.288 100.997 28.416 100.997 28.48 100.997C28.928 100.997 29.312 100.869 29.632 100.677C30.016 100.485 30.336 100.229 30.592 99.9086C30.848 99.5886 31.04 99.2046 31.232 98.8206C31.424 98.3086 31.424 97.7966 31.36 97.2846L31.68 97.4126L32.192 95.8126L31.488 95.5566C31.808 95.4286 32.064 95.2366 32.32 94.9806C32.576 94.7246 32.768 94.4686 32.896 94.0846C33.024 93.7646 33.088 93.4446 33.088 93.1246H33.152L33.792 91.5886L29.568 89.8606L29.76 89.4766L33.984 91.3966L34.688 89.8606L30.464 87.9406L30.848 87.0446L29.312 86.3406L28.928 87.2366L27.392 86.5326L26.688 88.0686L28.224 88.7726L27.968 89.2846L27.328 90.8206L30.784 92.2286C30.784 92.2286 30.976 92.3566 31.04 92.4206C31.104 92.4846 31.168 92.6126 31.232 92.7406C31.232 92.8686 31.296 92.9966 31.296 93.1246C31.296 93.2526 31.296 93.3806 31.232 93.5086C31.104 93.7646 30.976 93.8926 30.72 94.0206C30.592 94.0206 30.464 94.0846 30.336 94.0846C30.208 94.0846 30.08 94.0846 30.016 94.0846L26.56 92.6766L25.92 94.2126H26.048L25.664 95.4926H25.856C25.536 95.8766 25.28 96.3246 25.088 96.9006C24.96 97.2846 24.896 97.7326 24.96 98.1166C24.96 98.5006 25.088 98.9486 25.28 99.2686C25.28 99.2686 25.28 99.2686 25.28 99.3326L24.32 99.0766L24.064 99.9726L22.464 99.5246L22.016 101.125L23.616 101.573L23.36 102.533L24.32 102.789C24.32 102.789 24.128 102.853 24.064 102.917C23.808 103.109 23.552 103.365 23.36 103.621C23.168 103.877 23.04 104.197 22.976 104.581C22.912 104.901 22.912 105.221 22.976 105.541L22.592 107.141L23.936 107.461C23.936 107.461 23.488 107.653 23.296 107.781C22.976 108.037 22.656 108.357 22.464 108.677C22.272 109.061 22.08 109.445 22.016 109.829C21.952 110.277 22.016 110.661 22.016 111.045C22.144 111.429 22.272 111.813 22.528 112.133C22.72 112.389 22.912 112.581 23.168 112.773L19.84 112.517V112.965L19.776 113.541V114.117L22.848 116.613L19.456 118.661V119.237L19.392 119.813V120.261L27.328 120.837L27.136 120.901ZM27.584 99.2046C27.584 99.2046 27.2 99.0126 27.072 98.8846C26.944 98.7566 26.816 98.6286 26.688 98.4366C26.624 98.2446 26.56 98.1166 26.56 97.8606C26.56 97.6686 26.56 97.4766 26.624 97.2846C26.624 97.0926 26.752 96.9006 26.944 96.7726C27.072 96.6446 27.2 96.5166 27.392 96.3886C27.584 96.3246 27.776 96.2606 27.968 96.2606C28.16 96.2606 28.352 96.2606 28.544 96.3246C28.736 96.3246 28.928 96.4526 29.056 96.6446C29.184 96.7726 29.312 96.9006 29.44 97.0926C29.504 97.2846 29.568 97.4766 29.568 97.6686C29.568 97.8606 29.568 98.0526 29.504 98.2446C29.44 98.4366 29.312 98.6286 29.184 98.7566C29.056 98.8846 28.928 99.0126 28.736 99.1406C28.544 99.2046 28.352 99.2686 28.16 99.2686C27.968 99.2686 27.776 99.2686 27.584 99.2046ZM25.984 100.165C25.984 100.165 26.56 100.549 26.88 100.677L25.664 100.357L25.792 99.9726C25.792 99.9726 25.92 100.101 25.984 100.165ZM24.128 109.125C24.128 109.125 24.448 108.933 24.704 108.869C24.896 108.869 25.088 108.869 25.28 108.869C25.472 108.869 25.664 108.997 25.856 109.061C26.048 109.189 26.176 109.317 26.304 109.445C26.432 109.573 26.496 109.765 26.56 109.957C26.56 110.149 26.56 110.341 26.56 110.533C26.56 110.725 26.432 110.917 26.368 111.045C26.24 111.237 26.112 111.365 25.984 111.493C25.792 111.621 25.664 111.685 25.472 111.749C25.28 111.749 25.088 111.749 24.896 111.749C24.704 111.749 24.512 111.621 24.32 111.557C24.128 111.429 24 111.301 23.872 111.173C23.744 110.981 23.68 110.853 23.616 110.661C23.616 110.469 23.616 110.277 23.616 110.085C23.616 109.893 23.744 109.701 23.808 109.509C23.936 109.317 24.064 109.189 24.192 109.061L24.128 109.125Z" fill="white"/>
<path d="M62.592 187.333C62.464 186.757 62.08 186.309 61.44 185.861C60.8 185.477 60.224 185.349 59.648 185.413C59.392 185.413 59.2 185.541 58.944 185.669C58.752 185.797 58.56 185.989 58.432 186.181C58.112 186.693 58.048 187.205 58.304 187.717C58.432 187.909 58.56 188.101 58.752 188.357C58.944 188.549 59.2 188.805 59.52 189.061C59.904 189.317 60.096 189.573 60.224 189.829C60.352 190.149 60.288 190.533 60.096 190.917C59.904 191.237 59.584 191.493 59.264 191.557C58.944 191.621 58.496 191.557 57.984 191.237C57.408 190.853 57.152 190.405 57.088 189.893C57.088 189.701 57.088 189.445 57.216 189.253L56.768 188.933C56.576 189.445 56.512 189.957 56.64 190.405C56.768 190.917 57.152 191.365 57.728 191.749C58.176 192.069 58.624 192.197 59.072 192.197C59.2 192.197 59.328 192.197 59.392 192.197C59.648 192.197 59.84 192.069 60.032 191.877C60.224 191.749 60.416 191.557 60.544 191.301C61.12 190.341 60.928 189.509 59.84 188.677C59.264 188.229 58.88 187.845 58.752 187.461C58.624 187.205 58.752 186.885 58.88 186.501C59.008 186.373 59.136 186.245 59.264 186.117C59.584 185.925 59.904 185.861 60.352 185.989C60.608 186.053 60.864 186.181 61.12 186.309C61.312 186.437 61.504 186.565 61.632 186.757C61.824 186.949 61.952 187.205 62.016 187.461C62.016 187.717 62.016 188.037 61.952 188.293L62.4 188.613C62.592 188.101 62.592 187.653 62.528 187.205L62.592 187.333Z" fill="#E73233"/>
<path d="M58.432 183.941L57.984 183.621L55.296 187.397L54.528 186.821L54.208 187.269L54.976 187.781L54.016 189.189L54.464 189.509L55.424 188.101L56.256 188.677L56.576 188.229L55.744 187.717L58.432 183.941Z" fill="#E73233"/>
<path d="M51.968 178.693C51.456 178.181 50.88 177.989 50.24 177.989C49.984 177.989 49.728 177.989 49.536 178.181C49.344 178.309 49.088 178.437 48.96 178.629C48.576 179.077 48.384 179.589 48.576 180.165C48.64 180.357 48.768 180.613 48.896 180.869C49.024 181.125 49.28 181.381 49.536 181.701C49.856 182.021 50.048 182.341 50.112 182.597C50.176 182.981 50.112 183.301 49.792 183.621C49.536 183.941 49.216 184.069 48.896 184.133C48.512 184.133 48.128 183.941 47.744 183.621C47.232 183.173 47.04 182.661 47.104 182.149C47.104 181.957 47.232 181.701 47.36 181.509L46.912 181.125C46.656 181.637 46.528 182.085 46.528 182.597C46.592 183.173 46.848 183.621 47.36 184.069C47.872 184.517 48.384 184.709 48.896 184.709C48.896 184.709 48.896 184.709 48.96 184.709C49.216 184.709 49.408 184.645 49.664 184.517C49.92 184.389 50.112 184.261 50.304 184.069C51.008 183.237 50.944 182.341 50.048 181.381C49.536 180.805 49.216 180.357 49.152 180.037C49.088 179.717 49.152 179.461 49.472 179.141C49.6 179.013 49.728 178.885 49.92 178.821C50.24 178.693 50.624 178.693 51.008 178.821C51.264 178.949 51.52 179.077 51.712 179.269C51.904 179.397 52.032 179.589 52.16 179.781C52.288 180.037 52.416 180.293 52.416 180.549C52.416 180.805 52.416 181.125 52.224 181.381L52.672 181.765C52.928 181.317 53.056 180.869 52.992 180.421C52.992 179.845 52.672 179.269 52.096 178.821L51.968 178.693Z" fill="#E73233"/>
<path d="M48.3201 178.949C48.3201 178.949 48.7681 178.437 48.8961 178.117C49.0241 177.797 49.0881 177.477 49.0881 177.157C49.0881 176.837 49.0881 176.453 48.8961 176.197C48.7681 175.877 48.5761 175.621 48.3201 175.365C48.0001 175.045 47.6801 174.853 47.2321 174.725C46.8481 174.597 46.4001 174.597 46.0161 174.661L46.1441 175.173C46.4641 175.173 46.7841 175.173 47.1041 175.237C47.4241 175.301 47.6801 175.493 47.9361 175.749C48.3201 176.133 48.4481 176.517 48.5121 177.029C48.5121 177.541 48.3841 177.989 48.1281 178.437L44.8641 175.109L44.7361 175.237C44.7361 175.237 44.2881 175.749 44.1601 176.133C44.0321 176.517 43.9041 176.837 43.9041 177.157C43.9041 177.477 43.9041 177.797 44.0961 178.117C44.2241 178.437 44.4161 178.693 44.6721 178.949C44.9281 179.205 45.1841 179.397 45.5041 179.525C45.8241 179.653 46.1441 179.717 46.4641 179.717C46.7841 179.717 47.1041 179.717 47.4241 179.525C47.7441 179.397 48.0641 179.205 48.2561 178.949H48.3201ZM47.7441 178.693C47.2961 179.013 46.7841 179.141 46.3361 179.077C45.8241 179.077 45.4401 178.821 45.0561 178.501C44.6721 178.181 44.5441 177.733 44.4801 177.221C44.4801 176.709 44.6081 176.261 44.8641 175.813L47.7441 178.693Z" fill="#E73233"/>
<path d="M45.3121 172.037L44.9281 171.525L39.6801 173.381L40.0641 173.765L44.6081 172.229L42.3681 176.517L42.7521 176.965L45.3121 172.037Z" fill="#E73233"/>
<path d="M40.128 172.357C40.128 172.357 40.576 172.357 40.768 172.293C41.088 172.229 41.408 172.037 41.664 171.845C41.92 171.653 42.176 171.397 42.368 171.077C42.56 170.757 42.624 170.437 42.688 170.117C42.688 169.797 42.688 169.413 42.688 169.093C42.624 168.773 42.432 168.453 42.24 168.197C41.984 167.877 41.664 167.557 41.28 167.429C40.896 167.237 40.512 167.173 40.064 167.173L40.128 167.685C40.448 167.685 40.768 167.685 41.088 167.877C41.408 168.005 41.664 168.197 41.856 168.517C42.176 168.901 42.304 169.349 42.24 169.861C42.24 170.373 41.984 170.821 41.664 171.205L38.848 167.557L38.656 167.621C38.4 167.813 38.144 168.069 37.952 168.453C37.76 168.773 37.632 169.093 37.568 169.413C37.568 169.733 37.568 170.053 37.568 170.437C37.632 170.757 37.824 171.077 38.016 171.333C38.208 171.589 38.464 171.845 38.784 172.037C39.104 172.229 39.424 172.293 39.744 172.357C39.872 172.357 40 172.357 40.064 172.357H40.128ZM39.744 171.717C39.232 171.653 38.848 171.397 38.528 170.949C38.208 170.565 38.08 170.117 38.144 169.605C38.144 169.093 38.4 168.645 38.72 168.261L41.216 171.525C40.704 171.781 40.256 171.845 39.744 171.717Z" fill="#E73233"/>
<path d="M40.384 165.765L40.064 165.317L37.312 167.173C37.312 167.173 36.992 167.301 36.864 167.365C36.672 167.365 36.48 167.365 36.352 167.365C35.968 167.301 35.712 167.109 35.52 166.789C35.456 166.661 35.392 166.533 35.328 166.341L34.752 166.021C34.752 166.469 34.88 166.789 35.072 167.109C35.264 167.365 35.456 167.557 35.648 167.685C35.968 167.877 36.288 168.005 36.672 168.005C37.056 168.005 37.376 167.877 37.632 167.685L40.384 165.829V165.765Z" fill="#E73233"/>
<path d="M36.16 158.981L33.408 159.365L32.192 157.061L34.048 155.077L33.792 154.565L28.864 159.877L29.248 160.581L36.416 159.557L36.16 159.045V158.981ZM31.872 157.445L32.896 159.429L29.568 159.877L31.872 157.381V157.445Z" fill="#E73233"/>
<path d="M31.1681 152.005C31.1681 152.005 31.5521 152.005 31.7441 152.133C31.9361 152.197 32.0641 152.325 32.2561 152.453C32.3841 152.581 32.5121 152.773 32.5761 152.901C32.7681 153.285 32.7681 153.669 32.5761 154.053C32.5121 154.245 32.3841 154.373 32.2561 154.565C32.1281 154.693 32.0001 154.821 31.8081 154.885L28.8641 156.165L29.1201 156.677L32.0641 155.397C32.0641 155.397 32.5121 155.141 32.7041 154.949C32.8961 154.757 33.0241 154.501 33.0881 154.309C33.1521 154.053 33.2161 153.797 33.2161 153.541C33.2161 153.285 33.2161 153.029 33.0241 152.709C32.8961 152.453 32.7681 152.197 32.5121 152.005C32.3201 151.813 32.0641 151.685 31.7441 151.621L32.3201 151.365L32.1281 150.853L27.4561 152.901L27.6481 153.413L30.5921 152.133C30.5921 152.133 30.9761 152.005 31.1681 152.005Z" fill="#E73233"/>
<path d="M28.672 151.557C28.672 151.557 28.736 151.557 28.8 151.557C29.12 151.557 29.376 151.557 29.632 151.429C29.952 151.301 30.272 151.109 30.464 150.917C30.72 150.661 30.912 150.405 31.04 150.085C31.168 149.765 31.232 149.445 31.296 149.125C31.296 148.805 31.296 148.421 31.168 148.101C30.976 147.653 30.784 147.269 30.464 147.013C30.208 146.757 29.888 146.565 29.504 146.501L30.4 146.181L30.208 145.669L23.808 147.973L24 148.485L26.624 147.525C26.368 147.845 26.24 148.165 26.176 148.549C26.176 148.933 26.176 149.381 26.368 149.829C26.496 150.149 26.688 150.469 26.88 150.725C27.136 150.981 27.392 151.173 27.712 151.301C28.032 151.429 28.352 151.557 28.672 151.557ZM26.752 148.805C26.752 148.805 26.816 148.293 26.944 148.037C27.072 147.781 27.2 147.589 27.392 147.397C27.584 147.205 27.84 147.077 28.096 146.949C28.352 146.885 28.608 146.821 28.864 146.821C29.12 146.821 29.376 146.885 29.632 147.013C29.888 147.141 30.08 147.269 30.272 147.461C30.464 147.653 30.592 147.909 30.72 148.165C30.784 148.421 30.848 148.677 30.848 148.997C30.848 149.253 30.784 149.509 30.656 149.765C30.528 150.021 30.4 150.213 30.208 150.405C30.016 150.597 29.76 150.725 29.504 150.853C29.248 150.917 28.992 150.981 28.736 150.981C28.48 150.981 28.224 150.917 27.968 150.789C27.712 150.661 27.52 150.533 27.328 150.341C27.136 150.149 27.008 149.893 26.88 149.637C26.816 149.381 26.752 149.125 26.752 148.869V148.805Z" fill="#E73233"/>
<path d="M24.512 146.245C24.512 146.245 24.32 146.245 24.256 146.245C24.192 146.245 24.064 146.309 24.064 146.437C24.064 146.501 24.064 146.629 24.064 146.693C24.064 146.757 24.128 146.885 24.256 146.885C24.256 146.885 24.32 146.885 24.384 146.885C24.384 146.885 24.448 146.885 24.512 146.885C24.576 146.885 24.704 146.821 24.704 146.693C24.704 146.629 24.704 146.501 24.704 146.437C24.704 146.373 24.64 146.245 24.512 146.245Z" fill="#E73233"/>
<path d="M25.216 146.565L30.08 145.029H30.144L30.016 144.517L25.024 146.053L25.216 146.565Z" fill="#E73233"/>
<path d="M24.192 141.893C24.064 142.277 24.128 142.725 24.192 143.173C24.256 143.493 24.448 143.813 24.64 144.069C24.832 144.325 25.088 144.581 25.344 144.709C25.6 144.901 25.92 144.965 26.304 145.029C26.432 145.029 26.56 145.029 26.688 145.029C26.88 145.029 27.136 145.029 27.328 144.965C27.648 144.901 27.968 144.709 28.224 144.517C28.48 144.325 28.736 144.069 28.928 143.749C29.12 143.429 29.248 143.109 29.248 142.789C29.248 142.469 29.248 142.085 29.248 141.765C29.056 140.933 28.48 140.357 27.712 140.037L28.352 139.845C28.352 139.845 28.864 139.781 29.12 139.845C29.376 139.845 29.632 139.973 29.824 140.101C30.08 140.229 30.272 140.421 30.4 140.613C30.592 140.805 30.656 141.061 30.784 141.317C30.848 141.573 30.848 141.893 30.784 142.149C30.784 142.405 30.656 142.661 30.528 142.917L30.912 143.365C31.104 143.045 31.232 142.661 31.296 142.341C31.296 141.957 31.296 141.637 31.296 141.253C31.232 140.933 31.04 140.613 30.848 140.357C30.656 140.101 30.4 139.845 30.08 139.717C29.824 139.525 29.504 139.461 29.12 139.397C28.8 139.397 28.48 139.397 28.096 139.397L23.616 140.613L23.744 141.125L24.64 140.869C24.64 140.869 24.192 141.445 24.128 141.829L24.192 141.893ZM24.704 142.213C24.704 142.213 24.832 141.701 24.96 141.445C25.088 141.253 25.28 140.997 25.472 140.869C25.664 140.677 25.92 140.549 26.176 140.485C26.432 140.421 26.688 140.421 26.944 140.485C27.2 140.485 27.456 140.613 27.712 140.741C27.968 140.869 28.16 141.061 28.288 141.253C28.48 141.445 28.544 141.701 28.672 141.957C28.736 142.213 28.736 142.469 28.672 142.789C28.672 143.045 28.544 143.301 28.416 143.557C28.288 143.813 28.096 144.005 27.904 144.133C27.712 144.325 27.456 144.389 27.2 144.517C26.944 144.581 26.688 144.581 26.368 144.517C26.112 144.517 25.856 144.389 25.6 144.261C25.344 144.133 25.152 143.941 25.024 143.749C24.832 143.557 24.768 143.301 24.64 143.045C24.576 142.789 24.576 142.533 24.64 142.213H24.704Z" fill="#E73233"/>
<path d="M28.48 138.821L28.352 138.309L25.28 138.885C25.28 138.885 24.768 138.885 24.512 138.885C24.256 138.821 24.064 138.629 23.872 138.437C23.68 138.245 23.616 137.989 23.552 137.733C23.552 137.541 23.552 137.349 23.552 137.157C23.552 136.965 23.68 136.773 23.744 136.645C23.872 136.453 24 136.325 24.128 136.261C24.32 136.133 24.448 136.069 24.64 136.069L27.712 135.493L27.584 134.917L24.512 135.493C24.512 135.493 24 135.621 23.808 135.813C23.616 135.941 23.424 136.133 23.232 136.389C23.104 136.581 22.976 136.837 22.912 137.157C22.912 137.413 22.912 137.669 22.912 137.989C22.912 138.309 23.104 138.565 23.296 138.821C23.424 139.013 23.68 139.205 23.936 139.333L23.36 139.461L23.488 139.973L28.352 139.013L28.48 138.821Z" fill="#E73233"/>
<path d="M23.9999 134.789C23.9999 134.789 24.4479 134.917 24.7039 134.917C24.8319 134.917 24.9599 134.917 25.0239 134.917C25.3439 134.917 25.7279 134.789 25.9839 134.597C26.3039 134.405 26.5599 134.213 26.7519 133.957C26.9439 133.701 27.1359 133.381 27.1999 133.061C27.2639 132.741 27.3279 132.357 27.2639 132.037C27.2639 131.717 27.1359 131.333 26.9439 131.077C26.7519 130.757 26.5599 130.501 26.3039 130.309C26.0479 130.117 25.7279 129.925 25.4079 129.861C25.0879 129.797 24.7039 129.733 24.3839 129.797C23.9999 129.797 23.6799 129.925 23.4239 130.117C23.1039 130.309 22.8479 130.501 22.6559 130.757C22.4639 131.013 22.2719 131.333 22.2079 131.653C22.1439 131.973 22.0799 132.357 22.1439 132.677C22.1439 132.997 22.2719 133.381 22.4639 133.637C22.6559 133.957 22.8479 134.213 23.1039 134.405C23.3599 134.597 23.6799 134.789 23.9999 134.853V134.789ZM22.9119 133.317C22.9119 133.317 22.7199 132.805 22.6559 132.549C22.6559 132.293 22.6559 131.973 22.6559 131.717C22.7199 131.461 22.8479 131.205 23.0399 131.013C23.2319 130.821 23.4239 130.629 23.6799 130.501C23.9359 130.373 24.1919 130.245 24.4479 130.245C24.5119 130.245 24.6399 130.245 24.7039 130.245C24.8959 130.245 25.0879 130.245 25.2799 130.309C25.5359 130.373 25.7919 130.501 25.9839 130.693C26.1759 130.821 26.3679 131.077 26.4959 131.269C26.6239 131.525 26.7519 131.781 26.7519 132.037C26.7519 132.293 26.7519 132.613 26.7519 132.869C26.6879 133.125 26.5599 133.381 26.3679 133.573C26.1759 133.765 25.9839 133.957 25.7919 134.085C25.5359 134.213 25.2799 134.341 25.0239 134.341C24.7679 134.341 24.4479 134.341 24.1919 134.341C23.9359 134.277 23.6799 134.149 23.4879 133.957C23.2959 133.765 23.1039 133.573 22.9759 133.381L22.9119 133.317Z" fill="#E73233"/>
<path d="M26.88 128.389L23.744 128.581C23.744 128.581 23.232 128.581 22.976 128.389C22.72 128.261 22.528 128.069 22.4 127.877C22.272 127.685 22.144 127.429 22.144 127.173C22.144 126.981 22.144 126.789 22.208 126.597C22.208 126.405 22.4 126.213 22.528 126.085C22.656 125.957 22.784 125.829 22.976 125.765C23.168 125.701 23.36 125.637 23.552 125.637L26.688 125.445V124.869L23.488 125.061C23.232 125.061 22.976 125.125 22.72 125.253C22.464 125.381 22.272 125.509 22.08 125.765C21.888 125.957 21.76 126.213 21.696 126.469C21.632 126.725 21.568 126.981 21.568 127.301C21.568 127.621 21.696 127.877 21.824 128.133C21.952 128.389 22.144 128.581 22.4 128.709H21.824V129.285L26.816 128.965V128.389H26.88Z" fill="#E73233"/>
<path d="M26.624 120.325V119.749L20.48 119.301L24.256 117.061L24.32 116.549L20.864 113.797L27.008 114.245L27.072 113.669L20.288 113.221L20.224 113.989L23.68 116.805L19.84 119.045L19.776 119.813L26.56 120.325H26.624Z" fill="#E73233"/>
<path d="M22.912 111.877C22.912 111.877 23.36 112.389 23.68 112.581C24 112.773 24.32 112.901 24.64 112.965C24.768 112.965 24.896 112.965 25.024 112.965C25.216 112.965 25.408 112.965 25.664 112.901C25.984 112.837 26.304 112.645 26.56 112.453C26.816 112.261 27.072 112.005 27.264 111.749C27.456 111.429 27.584 111.109 27.648 110.789C27.648 110.469 27.648 110.085 27.648 109.765C27.584 109.445 27.392 109.125 27.2 108.869C27.008 108.613 26.752 108.357 26.496 108.165C26.176 107.973 25.856 107.845 25.536 107.781C25.216 107.781 24.832 107.781 24.512 107.781C24.192 107.845 23.872 107.973 23.616 108.229C23.36 108.421 23.104 108.677 22.912 108.997C22.72 109.317 22.592 109.637 22.528 109.957C22.528 110.277 22.528 110.661 22.528 110.981C22.592 111.301 22.72 111.621 22.976 111.877H22.912ZM22.976 110.021C22.976 110.021 23.104 109.509 23.232 109.253C23.36 108.997 23.552 108.805 23.808 108.677C24 108.549 24.256 108.421 24.576 108.357C24.832 108.293 25.152 108.293 25.408 108.357C25.664 108.357 25.92 108.485 26.176 108.613C26.432 108.741 26.624 108.933 26.752 109.189C26.88 109.381 27.008 109.637 27.072 109.893C27.136 110.149 27.136 110.469 27.072 110.725C27.072 110.981 26.944 111.237 26.816 111.493C26.688 111.749 26.496 111.941 26.24 112.069C26.048 112.197 25.792 112.325 25.536 112.389C25.28 112.453 25.024 112.453 24.704 112.389C24.448 112.389 24.192 112.261 23.936 112.069C23.68 111.941 23.488 111.749 23.36 111.493C23.232 111.301 23.104 111.045 23.04 110.789C22.976 110.533 22.976 110.277 23.04 109.957L22.976 110.021Z" fill="#E73233"/>
<path d="M24.192 104.261C24.192 104.261 24.448 103.941 24.64 103.877C24.832 103.749 24.96 103.685 25.152 103.685C25.344 103.685 25.536 103.685 25.728 103.685L28.8 104.389L28.928 103.813L25.856 103.109C25.856 103.109 25.344 103.109 25.088 103.109C24.832 103.109 24.576 103.237 24.384 103.429C24.192 103.557 24 103.749 23.808 104.005C23.68 104.197 23.552 104.453 23.488 104.773C23.424 105.093 23.488 105.349 23.488 105.669C23.488 105.925 23.68 106.181 23.872 106.437L23.296 106.309L23.168 106.821L28.096 107.909L28.224 107.397L25.152 106.693C25.152 106.693 24.64 106.501 24.448 106.309C24.256 106.117 24.128 105.925 24.064 105.669C24 105.413 24 105.157 24.064 104.901C24.064 104.709 24.192 104.517 24.32 104.389L24.192 104.261Z" fill="#E73233"/>
<path d="M24.064 102.085L24.576 102.213L24.832 101.317L29.312 102.533L29.44 102.021L24.96 100.805L25.216 99.8446L24.704 99.7166L24.448 100.613L22.848 100.165L22.72 100.741L24.32 101.189L24.064 102.085Z" fill="#E73233"/>
<path d="M25.728 98.9486C25.728 98.9486 26.112 99.5246 26.368 99.7166C26.624 99.9726 26.944 100.101 27.264 100.229C27.52 100.293 27.776 100.357 28.096 100.357C28.16 100.357 28.224 100.357 28.288 100.357C28.608 100.357 28.928 100.229 29.248 100.101C29.568 99.9726 29.824 99.7166 30.016 99.4606C30.208 99.2046 30.4 98.8846 30.528 98.5646C30.656 98.1166 30.72 97.7326 30.592 97.2846C30.528 96.9006 30.336 96.5806 30.08 96.1966L31.104 96.5166L31.296 96.0046L26.56 94.4686L26.368 94.9806L27.2 95.2366C26.816 95.3006 26.496 95.4926 26.24 95.7486C25.92 96.0046 25.728 96.3886 25.536 96.9006C25.408 97.2206 25.408 97.6046 25.408 97.9246C25.408 98.2446 25.536 98.5646 25.664 98.8846L25.728 98.9486ZM27.136 95.9406C27.136 95.9406 27.648 95.7486 27.904 95.7486C28.16 95.7486 28.48 95.7486 28.736 95.8766C28.992 95.9406 29.248 96.0686 29.44 96.2606C29.632 96.4526 29.824 96.6446 29.952 96.9006C30.08 97.1566 30.144 97.4126 30.144 97.6686C30.144 97.9246 30.144 98.1806 30.08 98.4366C30.016 98.6926 29.888 98.9486 29.696 99.1406C29.504 99.3326 29.312 99.5246 29.056 99.6526C28.8 99.7806 28.544 99.8446 28.288 99.8446C28.032 99.8446 27.776 99.8446 27.456 99.7166C27.2 99.6526 26.944 99.5246 26.752 99.3326C26.56 99.1406 26.368 98.9486 26.24 98.6926C26.112 98.4366 26.048 98.1806 26.048 97.9246C26.048 97.6686 26.048 97.3486 26.176 97.0926C26.24 96.8366 26.368 96.5806 26.56 96.3886C26.752 96.1966 26.944 96.0046 27.2 95.8766L27.136 95.9406Z" fill="#E73233"/>
<path d="M30.336 95.1726C30.592 95.1726 30.848 95.1726 31.104 94.9806C31.36 94.8526 31.552 94.7246 31.744 94.5326C31.936 94.3406 32.064 94.0846 32.192 93.8286C32.32 93.5726 32.32 93.2526 32.32 92.9966C32.32 92.7406 32.256 92.4846 32.064 92.1646L32.64 92.4206L32.832 91.9086L28.096 89.9886L27.904 90.5006L30.848 91.7166C30.848 91.7166 31.168 91.9086 31.296 92.0366C31.424 92.1646 31.552 92.3566 31.616 92.5486C31.68 92.7406 31.744 92.9326 31.744 93.1246C31.744 93.3166 31.744 93.5086 31.616 93.7006C31.488 94.0846 31.168 94.3406 30.784 94.5326C30.592 94.5966 30.4 94.6606 30.208 94.6606C30.016 94.6606 29.824 94.6606 29.632 94.5326L26.688 93.3166L26.496 93.8286L29.44 95.0446C29.44 95.0446 29.888 95.1726 30.144 95.1726H30.336Z" fill="#E73233"/>
<path d="M28.48 89.4126L28.992 89.6046L29.376 88.7726L33.6 90.6926L33.792 90.1806L29.632 88.2606L30.016 87.3646L29.504 87.1726L29.12 88.0046L27.584 87.3006L27.392 87.8126L28.864 88.5166L28.48 89.4126Z" fill="#E73233"/>
<path d="M146.176 52.8023L149.568 46.4023L151.424 47.3623C151.424 47.3623 152 47.7463 152.192 48.0663C152.384 48.3863 152.512 48.7063 152.512 49.0263C152.512 49.3463 152.512 49.6663 152.32 49.9863C152.064 50.4983 151.552 50.8823 150.784 51.0103C151.04 51.3943 151.168 51.7143 151.168 52.0983C151.168 52.4823 151.168 52.8023 150.976 53.1223C150.784 53.4423 150.592 53.6983 150.272 53.8263C149.952 54.0183 149.632 54.0823 149.312 54.0823C148.992 54.0823 148.608 54.0183 148.288 53.8263L146.176 52.6743V52.8023ZM148.224 50.0503L146.88 52.6103L148.544 53.5063C148.544 53.5063 148.992 53.6983 149.312 53.6983C149.568 53.6983 149.824 53.6343 150.016 53.5063C150.272 53.3783 150.4 53.1863 150.528 52.9943C150.656 52.7383 150.72 52.4823 150.72 52.2263C150.72 51.9703 150.592 51.7143 150.464 51.5223C150.336 51.3303 150.144 51.1383 149.888 51.0103L148.224 50.1143V50.0503ZM149.824 47.1063L148.48 49.6663L149.888 50.4343C149.888 50.4343 150.336 50.6263 150.656 50.6263C150.976 50.6263 151.168 50.5623 151.36 50.4343C151.552 50.3063 151.744 50.1143 151.872 49.8583C152 49.6663 152.064 49.4103 152 49.1543C152 48.8983 151.936 48.6423 151.744 48.4503C151.552 48.2583 151.424 48.0663 151.168 47.9383L149.76 47.1703L149.824 47.1063Z" fill="white"/>
<path d="M149.248 54.7864C148.8 54.7864 148.416 54.6584 148.032 54.4664L145.408 53.0584L149.376 45.6344L151.808 46.9144C152.192 47.1064 152.576 47.4264 152.768 47.8104C153.024 48.1944 153.152 48.6424 153.152 49.0904C153.152 49.5384 153.088 49.9864 152.832 50.3704C152.576 50.8824 152.192 51.2024 151.616 51.4584C151.68 51.7144 151.744 51.9064 151.744 52.1624C151.744 52.6104 151.744 53.0584 151.488 53.5064C151.296 53.8904 150.976 54.2744 150.592 54.4664C150.208 54.7224 149.76 54.7864 149.312 54.8504L149.248 54.7864ZM147.648 52.3544L148.8 52.9304C148.8 52.9304 149.056 53.0584 149.248 53.0584C149.376 53.0584 149.568 53.0584 149.696 52.9304C149.824 52.8664 149.888 52.7384 150.016 52.6104C150.08 52.4824 150.144 52.3544 150.144 52.1624C150.144 52.0344 150.144 51.8424 150.016 51.7144C149.952 51.5864 149.824 51.4584 149.696 51.3944L148.544 50.8184L147.776 52.2904L147.648 52.3544ZM149.248 49.4104L150.144 49.8584C150.144 49.8584 150.4 49.9864 150.592 49.9864C150.72 49.9864 150.912 49.9864 151.04 49.8584C151.168 49.7944 151.296 49.6664 151.36 49.5384C151.424 49.4104 151.488 49.2824 151.424 49.1544C151.424 49.0264 151.424 48.8344 151.296 48.7064C151.232 48.5784 151.104 48.4504 150.976 48.3864L150.08 47.9384L149.312 49.4104H149.248Z" fill="white"/>
<path d="M155.904 58.5623L156.608 57.5383C156.16 57.7303 155.648 57.8583 155.264 57.8583C154.816 57.8583 154.432 57.6663 154.048 57.4103C153.728 57.2183 153.472 56.9623 153.28 56.6423C153.088 56.3223 152.96 56.0023 152.896 55.6823C152.832 55.3623 152.832 54.9783 152.896 54.6583C152.96 54.2743 153.088 53.9543 153.28 53.6343C153.472 53.3143 153.728 53.0583 154.048 52.8663C154.368 52.6743 154.688 52.5463 155.008 52.4823C155.328 52.4183 155.712 52.4183 156.032 52.4823C156.352 52.5463 156.736 52.6743 157.056 52.8663C157.504 53.1223 157.824 53.5063 158.016 53.8903C158.208 54.2743 158.336 54.6583 158.272 55.1063L158.848 54.2103L159.296 54.4663L156.416 58.8823L155.968 58.6263L155.904 58.5623ZM155.904 52.8663C155.904 52.8663 155.328 52.8663 155.008 52.8663C154.688 52.8663 154.432 53.0583 154.24 53.1863C153.984 53.3783 153.792 53.5703 153.6 53.8263C153.408 54.0823 153.344 54.3383 153.28 54.6583C153.28 54.9783 153.28 55.2343 153.28 55.4903C153.28 55.7463 153.472 56.0663 153.6 56.2583C153.792 56.5143 153.984 56.7063 154.24 56.8983C154.496 57.0903 154.752 57.1543 155.072 57.2183C155.392 57.2183 155.648 57.2183 155.904 57.2183C156.16 57.2183 156.48 57.0263 156.672 56.8983C156.928 56.7063 157.12 56.5143 157.312 56.2583C157.504 56.0023 157.568 55.7463 157.632 55.4263C157.632 55.1063 157.632 54.8503 157.632 54.5303C157.632 54.2743 157.44 53.9543 157.312 53.7623C157.12 53.5063 156.928 53.3143 156.672 53.1223C156.416 52.9303 156.16 52.8663 155.84 52.8023L155.904 52.8663Z" fill="white"/>
<path d="M156.48 59.6503L155.072 58.6903L155.264 58.3703C155.264 58.3703 155.264 58.3703 155.2 58.3703C154.688 58.3703 154.176 58.1783 153.664 57.8583C153.28 57.6023 152.96 57.2823 152.704 56.9623C152.448 56.5783 152.32 56.1943 152.192 55.7463C152.128 55.3623 152.064 54.9143 152.192 54.4663C152.256 54.0183 152.448 53.6343 152.704 53.2503C152.96 52.8663 153.28 52.5463 153.6 52.2903C153.984 52.0343 154.368 51.8423 154.816 51.7783C155.264 51.7143 155.648 51.7143 156.096 51.7783C156.544 51.8423 156.928 52.0343 157.312 52.2903C157.824 52.6103 158.208 53.0583 158.464 53.5063L158.592 53.3143L160 54.2743L156.416 59.7143L156.48 59.6503ZM155.456 53.4423C155.456 53.4423 155.264 53.4423 155.136 53.4423C154.944 53.4423 154.752 53.5703 154.56 53.6983C154.368 53.8263 154.24 53.9543 154.112 54.1463C153.984 54.3383 153.92 54.5303 153.856 54.7223C153.856 54.9143 153.856 55.1703 153.856 55.3623C153.856 55.5543 153.984 55.7463 154.112 55.9383C154.24 56.1303 154.368 56.2583 154.56 56.3863C154.752 56.5143 154.944 56.5783 155.136 56.6423C155.328 56.6423 155.584 56.6423 155.776 56.6423C155.968 56.6423 156.16 56.5143 156.352 56.3863C156.544 56.2583 156.672 56.1303 156.8 55.9383C156.928 55.7463 156.992 55.5543 157.056 55.3623C157.056 55.1703 157.056 54.9143 157.056 54.7223C157.056 54.5303 156.928 54.3383 156.8 54.1463C156.672 53.9543 156.544 53.8263 156.352 53.6983C156.16 53.5703 155.968 53.5063 155.776 53.4423C155.776 53.4423 155.584 53.4423 155.456 53.4423Z" fill="white"/>
<path d="M159.296 61.1864C158.784 60.8024 158.528 60.3544 158.464 59.9064C158.464 59.5864 158.464 59.2664 158.592 58.9464L159.04 59.2664C159.04 59.2664 158.976 59.7784 159.04 60.0344C159.168 60.2904 159.36 60.5464 159.552 60.7384C159.872 60.9944 160.192 61.1224 160.512 61.1224C160.832 61.1224 161.088 60.9944 161.216 60.8024C161.472 60.4824 161.536 60.1624 161.408 59.9064C161.28 59.6504 161.088 59.3944 160.704 59.1384C160.384 58.8824 160.128 58.6264 160 58.4344C159.872 58.2424 159.808 58.0504 159.808 57.7944C159.808 57.4744 159.936 57.1544 160.128 56.8344C160.256 56.6424 160.448 56.5144 160.704 56.3864C160.896 56.2584 161.152 56.2584 161.344 56.2584C161.728 56.2584 162.112 56.4504 162.56 56.7704C162.88 57.0264 163.136 57.3464 163.264 57.6664C163.328 57.8584 163.392 58.1144 163.392 58.4344C163.392 58.6264 163.328 58.8184 163.2 59.0104L162.752 58.6904C162.752 58.6904 162.816 58.4344 162.816 58.3704C162.816 57.9864 162.688 57.6024 162.24 57.2184C161.984 57.0264 161.728 56.8984 161.536 56.8344C161.344 56.8344 161.152 56.8344 160.96 56.8344C160.768 56.8344 160.64 57.0264 160.512 57.1544C160.448 57.2184 160.384 57.3464 160.384 57.4104C160.256 57.7304 160.256 57.9864 160.448 58.2424C160.512 58.3704 160.64 58.4984 160.768 58.6264C160.896 58.7544 160.96 58.8184 161.024 58.8184C161.216 59.0104 161.408 59.1384 161.536 59.2664C161.664 59.3944 161.728 59.5864 161.856 59.7784C162.048 60.2264 161.984 60.6744 161.6 61.1864C161.344 61.5064 161.024 61.6984 160.576 61.6984C160.128 61.6984 159.68 61.5704 159.232 61.2504L159.296 61.1864Z" fill="white"/>
<path d="M160.512 62.2744C159.936 62.2744 159.424 62.0824 158.912 61.6984C158.272 61.1864 157.952 60.6744 157.824 60.0344C157.824 59.5864 157.824 59.1384 158.016 58.7544L158.336 58.0504L159.68 59.1384L159.552 59.5224C159.552 59.5224 159.552 59.7784 159.552 59.9064C159.616 60.0984 159.744 60.2264 159.936 60.3544C160.128 60.5464 160.384 60.6104 160.576 60.6104C160.704 60.6104 160.768 60.6104 160.832 60.4824C160.96 60.2904 160.96 60.2264 160.96 60.1624C160.96 60.1624 160.832 59.9064 160.448 59.6504C160 59.3304 159.744 59.0104 159.616 58.7544C159.488 58.4984 159.36 58.1784 159.36 57.9224C159.36 57.4104 159.488 56.9624 159.808 56.5784C160 56.3224 160.256 56.1304 160.576 55.9384C160.896 55.7464 161.216 55.6824 161.536 55.7464C162.048 55.7464 162.56 56.0024 163.072 56.3864C163.52 56.7064 163.776 57.0904 163.968 57.5384C164.096 57.8584 164.16 58.1784 164.096 58.5624C164.096 58.8184 163.968 59.1384 163.904 59.3304L163.584 60.0344L162.24 58.9464L162.432 58.4984V58.3064C162.432 58.2424 162.432 58.0504 162.048 57.7304C161.792 57.5384 161.664 57.4744 161.6 57.4744C161.536 57.4744 161.472 57.4744 161.344 57.4744C161.28 57.4744 161.216 57.5384 161.152 57.6024V57.6664C161.088 57.8584 161.152 57.9224 161.152 57.9224C161.152 58.0504 161.28 58.1144 161.344 58.1784C161.472 58.3064 161.536 58.3704 161.536 58.3704C161.792 58.5624 161.984 58.7544 162.112 58.8824C162.304 59.0744 162.432 59.2664 162.496 59.5224C162.688 59.9704 162.816 60.7384 162.176 61.5704C161.792 62.0184 161.344 62.2744 160.768 62.3384C160.768 62.3384 160.64 62.3384 160.576 62.3384L160.512 62.2744Z" fill="white"/>
<path d="M164.48 65.5384V62.0184L162.752 63.9384L162.368 63.6184L167.232 58.3064L167.616 58.6264L165.12 61.3784H167.936L168.512 61.9544L165.056 61.8264V65.9864L164.544 65.5384H164.48Z" fill="white"/>
<path d="M165.568 67.3944L163.84 65.8584L163.904 63.6184L162.752 64.8344L161.472 63.6824L167.168 57.4744L168.448 58.6264L166.4 60.8024L168.128 60.8664L170.048 62.6584L165.568 62.5304V67.3944Z" fill="white"/>
<path d="M168.064 65.6024C167.68 66.1144 167.552 66.6264 167.552 67.1384C167.552 67.6504 167.744 68.1624 168.128 68.5464C168.384 68.8024 168.704 68.9944 169.024 69.1224C169.344 69.2504 169.728 69.2504 170.048 69.2504L170.176 69.7624C169.728 69.7624 169.28 69.7624 168.896 69.6344C168.448 69.5064 168.128 69.2504 167.808 68.9304C167.552 68.6744 167.36 68.3544 167.232 68.0344C167.104 67.7144 167.04 67.3304 167.04 67.0104C167.04 66.6264 167.104 66.3064 167.296 65.9864C167.424 65.6664 167.68 65.3464 167.936 65.0904C168.192 64.8344 168.512 64.6424 168.832 64.5144C169.152 64.3864 169.536 64.3224 169.856 64.3224C170.24 64.3224 170.56 64.3864 170.88 64.5784C171.2 64.7064 171.52 64.9624 171.776 65.2184C172.032 65.4744 172.224 65.7944 172.352 66.1144C172.48 66.4344 172.544 66.8184 172.544 67.1384C172.544 67.4584 172.416 67.8424 172.288 68.1624C172.096 68.5464 171.904 68.8664 171.648 69.0584L171.52 69.1864L168.128 65.5384L168.064 65.6024ZM169.984 64.8984C169.408 64.8984 168.896 64.9624 168.384 65.2824L171.456 68.5464C171.84 68.0344 171.968 67.5224 171.968 67.0104C171.968 66.4984 171.776 65.9864 171.392 65.6024C171.008 65.2184 170.56 64.9624 169.984 64.8984Z" fill="white"/>
<path d="M169.728 70.4024C169.344 70.4024 169.024 70.4024 168.64 70.2104C168.128 70.0184 167.68 69.7624 167.296 69.3144C166.976 68.9944 166.784 68.6104 166.592 68.2264C166.464 67.8424 166.4 67.3944 166.4 66.9464C166.4 66.4984 166.528 66.1144 166.656 65.6664C166.848 65.2824 167.104 64.8984 167.424 64.5784C167.744 64.2584 168.128 64.0664 168.512 63.8744C168.896 63.7464 169.344 63.6184 169.792 63.6824C170.24 63.6824 170.624 63.8104 171.072 64.0024C171.456 64.1944 171.84 64.4504 172.16 64.7704C172.48 65.0904 172.672 65.4744 172.864 65.8584C172.992 66.2424 173.12 66.6904 173.056 67.1384C173.056 67.5224 172.928 67.9704 172.736 68.4184C172.544 68.8664 172.288 69.2504 171.968 69.5064L171.392 70.0184L170.688 69.2504L170.944 70.2104H170.304C170.304 70.2104 169.984 70.3384 169.792 70.3384L169.728 70.4024ZM168.192 66.6904C168.192 66.6904 168.192 67.0104 168.192 67.2024C168.192 67.5864 168.32 67.9064 168.64 68.2264C168.832 68.4184 169.024 68.5464 169.28 68.6744C169.536 68.7384 169.792 68.8024 170.048 68.7384H170.176L168.256 66.6904H168.192ZM169.472 65.4744L171.328 67.4584C171.328 67.4584 171.328 67.1384 171.328 66.9464C171.328 66.5624 171.2 66.2424 170.88 65.9224C170.624 65.6024 170.304 65.4744 169.92 65.4104C169.92 65.4104 169.6 65.4104 169.408 65.4104L169.472 65.4744Z" fill="white"/>
<path d="M175.552 70.3384L171.712 73.4104L171.392 73.0264L175.232 69.9544L174.592 69.1224L174.976 68.8024L175.616 69.6344L177.024 68.4824L177.344 68.8664L175.936 70.0184L176.576 70.7864L176.192 71.1064L175.552 70.3384Z" fill="white"/>
<path d="M171.648 74.3064L170.56 72.9624L174.4 69.8904L173.76 69.0584L175.104 67.9704L175.744 68.8024L177.152 67.6504L178.176 68.9944L176.768 70.1464L177.472 70.9144L176.128 72.0024L175.488 71.1704L171.648 74.3064Z" fill="white"/>
<path d="M174.592 76.9304C174.528 76.4824 174.592 76.0984 174.848 75.6504L173.888 76.2904L173.632 75.9064L179.584 71.8104L179.84 72.1944L177.344 73.9224C177.856 73.9224 178.304 73.9224 178.624 74.1784C179.008 74.3704 179.328 74.6904 179.648 75.1384C179.84 75.4584 179.968 75.7784 180.096 76.1624C180.16 76.5464 180.16 76.8664 180.096 77.2504C180.032 77.6344 179.904 77.9544 179.712 78.2104C179.52 78.5304 179.264 78.7864 178.944 78.9784C178.624 79.1704 178.304 79.2984 177.984 79.3624C177.664 79.4264 177.28 79.4264 176.96 79.3624C176.64 79.3624 176.32 79.1704 176 78.9784C175.68 78.7864 175.424 78.5304 175.232 78.2104C174.912 77.7624 174.784 77.3784 174.72 76.9304H174.592ZM178.624 74.7544C178.624 74.7544 178.112 74.4984 177.792 74.4344C177.472 74.3704 177.216 74.4344 176.896 74.4344C176.576 74.4344 176.32 74.6264 176.064 74.7544C175.808 74.9464 175.616 75.1384 175.488 75.3944C175.36 75.6504 175.232 75.9064 175.168 76.2264C175.104 76.5464 175.168 76.8024 175.168 77.1224C175.168 77.4424 175.36 77.6984 175.488 77.9544C175.68 78.2104 175.872 78.4024 176.128 78.5944C176.384 78.7864 176.64 78.8504 176.896 78.9144C177.152 78.9144 177.472 78.9144 177.792 78.9144C178.112 78.9144 178.368 78.7224 178.624 78.5944C178.88 78.4024 179.072 78.2104 179.2 77.9544C179.328 77.6984 179.456 77.4424 179.52 77.1224C179.52 76.8664 179.52 76.5464 179.52 76.2904C179.52 75.9704 179.328 75.7144 179.2 75.4584C179.072 75.2024 178.816 75.0104 178.56 74.8184L178.624 74.7544Z" fill="white"/>
<path d="M177.408 80.0024C177.408 80.0024 176.96 80.0024 176.768 80.0024C176.384 79.9384 175.936 79.7464 175.552 79.5545C175.168 79.2984 174.848 78.9784 174.592 78.6584C174.272 78.1464 174.016 77.6344 173.952 77.1224C173.952 77.1224 173.952 77.1224 173.952 77.0584L173.696 77.2504L172.736 75.8425L179.712 71.1064L180.672 72.5144L178.816 73.7944C179.264 74.0504 179.648 74.4344 180.032 74.9464C180.288 75.3304 180.48 75.7144 180.544 76.1624C180.608 76.6104 180.608 77.0585 180.544 77.4425C180.48 77.8905 180.288 78.2744 180.096 78.6584C179.84 79.0424 179.584 79.3624 179.2 79.6184C178.816 79.8744 178.432 80.0665 177.984 80.1305C177.792 80.1305 177.536 80.1944 177.344 80.1944L177.408 80.0024ZM177.344 75.0104C177.344 75.0104 177.152 75.0104 177.024 75.0104C176.832 75.0104 176.64 75.1384 176.448 75.2664C176.256 75.3944 176.128 75.5224 176 75.7144C175.872 75.9064 175.808 76.0984 175.744 76.2904C175.744 76.4824 175.744 76.6745 175.744 76.9305C175.744 77.1225 175.872 77.3144 176 77.5064C176.128 77.6984 176.256 77.8264 176.448 77.9544C176.64 78.0824 176.832 78.1464 177.024 78.2104C177.216 78.2104 177.472 78.2104 177.664 78.2104C177.856 78.2104 178.048 78.0824 178.24 77.9544C178.432 77.8264 178.56 77.6984 178.688 77.5064C178.816 77.3144 178.88 77.1225 178.944 76.9305C178.944 76.7385 178.944 76.5464 178.944 76.2904C178.944 76.0984 178.816 75.9064 178.688 75.7144C178.56 75.5224 178.432 75.3944 178.24 75.2664C178.048 75.1384 177.856 75.0744 177.664 75.0104C177.536 75.0104 177.472 75.0104 177.344 75.0104Z" fill="white"/>
<path d="M180.032 86.2104L181.12 85.6344C180.608 85.6344 180.16 85.5064 179.776 85.2504C179.392 84.9944 179.136 84.6744 178.88 84.2904C178.688 83.9704 178.56 83.6504 178.56 83.2664C178.56 82.8824 178.56 82.5624 178.624 82.2424C178.688 81.9224 178.88 81.6024 179.072 81.2824C179.328 81.0264 179.584 80.7704 179.904 80.5784C180.224 80.3864 180.544 80.3224 180.928 80.2584C181.312 80.2584 181.632 80.2584 182.016 80.3224C182.336 80.4504 182.656 80.5784 182.976 80.8344C183.232 81.0264 183.488 81.3464 183.68 81.6664C183.936 82.1144 184.064 82.5624 184.064 83.0104C184.064 83.4584 183.936 83.8424 183.68 84.2264L184.64 83.7144L184.896 84.1624L180.288 86.7224L180.032 86.2744V86.2104ZM182.72 81.2184C182.72 81.2184 182.208 80.8984 181.952 80.8344C181.696 80.7704 181.376 80.7064 181.12 80.7704C180.8 80.7704 180.544 80.8984 180.288 81.0264C180.032 81.1544 179.776 81.3464 179.584 81.6024C179.392 81.8584 179.264 82.1144 179.2 82.3704C179.136 82.6264 179.072 82.9464 179.136 83.2024C179.136 83.5224 179.264 83.7784 179.392 84.0344C179.52 84.2904 179.712 84.5464 179.968 84.6744C180.224 84.8024 180.48 84.9944 180.736 85.0584C180.992 85.1224 181.312 85.1864 181.568 85.1224C181.888 85.1224 182.144 84.9944 182.4 84.8664C182.656 84.7384 182.912 84.5464 183.104 84.2904C183.296 84.0344 183.424 83.7784 183.488 83.5224C183.552 83.2664 183.616 82.9464 183.552 82.6904C183.552 82.3704 183.424 82.1144 183.296 81.8584C183.168 81.6024 182.976 81.3464 182.72 81.1544V81.2184Z" fill="white"/>
<path d="M180.096 87.4904L179.264 86.0184L179.584 85.8264C179.584 85.8264 179.584 85.8264 179.52 85.8264C179.072 85.5704 178.688 85.1224 178.432 84.6104C178.24 84.2264 178.048 83.7784 178.048 83.3304C178.048 82.8824 178.048 82.4344 178.176 82.0504C178.304 81.6664 178.496 81.2824 178.752 80.8984C179.008 80.5784 179.392 80.2584 179.776 80.0664C180.16 79.8744 180.608 79.7464 181.056 79.6824C181.504 79.6824 181.952 79.6824 182.336 79.8104C182.784 79.9384 183.168 80.1304 183.488 80.3864C183.808 80.6424 184.128 81.0264 184.32 81.4104C184.64 81.9224 184.768 82.4984 184.768 83.0104L184.96 82.8824L185.792 84.3544L180.096 87.4904ZM181.312 81.3464C181.312 81.3464 181.184 81.3464 181.12 81.3464C180.928 81.3464 180.672 81.4104 180.48 81.5384C180.288 81.6664 180.096 81.7944 179.968 81.9864C179.84 82.1784 179.712 82.3704 179.648 82.5624C179.648 82.7544 179.584 82.9464 179.648 83.2024C179.648 83.3944 179.712 83.6504 179.84 83.8424C179.968 84.0344 180.096 84.1624 180.224 84.3544C180.416 84.4824 180.608 84.6104 180.8 84.6744C180.992 84.6744 181.184 84.7384 181.44 84.6744C181.632 84.6744 181.888 84.6104 182.08 84.4824C182.272 84.3544 182.464 84.2264 182.592 84.0344C182.72 83.8424 182.848 83.6504 182.912 83.4584C182.912 83.2664 182.976 83.0744 182.912 82.8184C182.912 82.6264 182.848 82.3704 182.72 82.1784C182.592 81.9864 182.464 81.7944 182.272 81.6664C182.08 81.5384 181.888 81.4104 181.696 81.3464C181.568 81.3464 181.44 81.3464 181.248 81.3464H181.312Z" fill="white"/>
<path d="M181.248 88.6423L187.776 85.5703L187.968 86.0183L181.44 89.0903L181.248 88.6423Z" fill="white"/>
<path d="M188.118 84.7257L180.468 88.3107L181.201 89.8754L188.851 86.2904L188.118 84.7257Z" fill="white"/>
<path d="M182.336 91.1384L188.992 88.3224L189.184 88.7704L182.528 91.5864L182.336 91.1384Z" fill="white"/>
<path d="M189.379 87.5769L181.602 90.8778L182.277 92.4684L190.054 89.1675L189.379 87.5769Z" fill="white"/>
<path d="M151.488 47.3624L149.568 46.3384L146.112 52.8024L148.288 53.9544C148.288 53.9544 148.928 54.2104 149.248 54.2104C149.632 54.2104 149.952 54.0824 150.208 53.9544C150.528 53.7624 150.72 53.5064 150.912 53.1864C151.104 52.8664 151.168 52.4824 151.104 52.1624C151.104 51.8424 150.976 51.4584 150.72 51.1384C151.424 51.0104 151.936 50.6264 152.192 50.1144C152.384 49.7944 152.448 49.4744 152.448 49.0904C152.448 48.7704 152.32 48.3864 152.128 48.1304C151.936 47.8104 151.68 47.6184 151.36 47.4264L151.488 47.3624ZM151.296 50.3064C151.296 50.3064 150.848 50.4984 150.592 50.4984C150.336 50.4984 150.08 50.4984 149.888 50.3064L148.48 49.5384L149.824 47.0424L151.232 47.8104C151.232 47.8104 151.616 48.0664 151.744 48.3224C151.872 48.5144 151.936 48.7704 152 49.0264C152 49.2824 152 49.5384 151.872 49.7304C151.744 49.9224 151.616 50.1144 151.36 50.2424L151.296 50.3064ZM148.544 53.4424L146.944 52.5464L148.288 50.0504L149.888 50.9464C149.888 50.9464 150.272 51.2024 150.4 51.4584C150.528 51.6504 150.592 51.9064 150.656 52.1624C150.656 52.4184 150.656 52.6744 150.464 52.8664C150.336 53.0584 150.144 53.2504 149.952 53.3784C149.76 53.5064 149.504 53.5704 149.248 53.5704C148.992 53.5704 148.736 53.5704 148.544 53.3784V53.4424Z" fill="#E73233"/>
<path d="M158.784 54.0824L158.272 54.9144C158.272 54.5304 158.208 54.1464 158.016 53.8264C157.824 53.4424 157.504 53.1224 157.056 52.8024C156.736 52.6104 156.416 52.4824 156.032 52.4184C155.648 52.3544 155.328 52.3544 154.944 52.4184C154.56 52.4824 154.24 52.6104 153.92 52.8664C153.6 53.0584 153.344 53.3144 153.152 53.6344C152.96 53.9544 152.832 54.2744 152.768 54.6584C152.704 55.0424 152.768 55.3624 152.768 55.7464C152.832 56.1304 152.96 56.4504 153.152 56.7064C153.344 57.0264 153.6 57.2824 153.92 57.4744C154.304 57.7304 154.752 57.8584 155.2 57.9224C155.584 57.9224 156.032 57.9224 156.416 57.6664L155.776 58.6264L156.288 58.9464L159.232 54.4664L158.72 54.1464L158.784 54.0824ZM157.632 55.4904C157.632 55.4904 157.44 56.0664 157.312 56.3224C157.12 56.5784 156.928 56.7704 156.672 56.9624C156.416 57.1544 156.16 57.2184 155.904 57.2824C155.648 57.2824 155.328 57.2824 155.072 57.2824C154.816 57.2824 154.496 57.0904 154.304 56.9624C154.048 56.7704 153.856 56.5784 153.664 56.3224C153.472 56.0664 153.408 55.8104 153.344 55.5544C153.344 55.2984 153.344 54.9784 153.344 54.7224C153.344 54.4664 153.536 54.1464 153.664 53.8904C153.856 53.6344 154.048 53.4424 154.304 53.2504C154.56 53.0584 154.816 52.9944 155.072 52.9304C155.2 52.9304 155.328 52.9304 155.52 52.9304C155.712 52.9304 155.776 52.9304 155.968 52.9304C156.288 52.9304 156.544 53.1224 156.8 53.2504C157.056 53.4424 157.248 53.6344 157.44 53.8904C157.632 54.1464 157.696 54.4024 157.76 54.6584C157.76 54.9144 157.76 55.2344 157.76 55.4904H157.632Z" fill="#E73233"/>
<path d="M161.6 59.2024C161.6 59.2024 161.28 58.8824 161.088 58.7544C161.088 58.7544 160.96 58.6904 160.832 58.5624C160.704 58.4344 160.576 58.3704 160.512 58.2424C160.32 57.9864 160.32 57.7304 160.512 57.4744C160.512 57.4104 160.576 57.2824 160.64 57.2184C160.768 57.0904 160.896 56.9624 161.088 56.8984C161.28 56.8984 161.472 56.8344 161.664 56.8984C161.856 56.8984 162.112 57.0904 162.368 57.2824C162.752 57.6024 162.944 57.9864 162.944 58.3704C162.944 58.4344 162.944 58.5624 162.88 58.6904L163.392 59.0744C163.392 59.0744 163.52 58.6264 163.584 58.4344C163.584 58.1784 163.584 57.9224 163.456 57.6664C163.328 57.3464 163.072 57.0264 162.752 56.7704C162.368 56.4504 161.92 56.2584 161.536 56.2584C161.28 56.2584 161.088 56.2584 160.832 56.3864C160.64 56.5144 160.448 56.6424 160.256 56.8344C160 57.1544 159.936 57.4744 159.936 57.7944C159.936 57.9864 160 58.2424 160.128 58.4344C160.256 58.6264 160.448 58.8824 160.832 59.1384C161.152 59.3944 161.408 59.6504 161.536 59.9064C161.664 60.1624 161.6 60.4824 161.344 60.8024C161.152 60.9944 160.96 61.1224 160.64 61.1224C160.32 61.1224 160 60.9944 159.68 60.7384C159.424 60.5464 159.232 60.2904 159.168 60.0344C159.04 59.7784 159.04 59.5224 159.168 59.2664L158.656 58.8824C158.528 59.2664 158.464 59.5864 158.528 59.9064C158.592 60.3544 158.912 60.8024 159.424 61.2504C159.808 61.5704 160.256 61.7624 160.704 61.7624C160.704 61.7624 160.768 61.7624 160.832 61.7624C161.28 61.7624 161.6 61.5704 161.856 61.2504C162.24 60.7384 162.304 60.2904 162.112 59.7784C162.048 59.5864 161.92 59.3944 161.792 59.2664L161.6 59.2024Z" fill="#E73233"/>
<path d="M167.936 61.4424L165.184 61.3784L167.616 58.6264L167.168 58.2424L162.304 63.6184H162.24L162.688 64.0664L164.416 62.1464V65.5384V65.6024L164.992 66.1144L165.056 61.9544L168.576 62.0184L167.936 61.4424Z" fill="#E73233"/>
<path d="M170.048 69.2504C169.728 69.2504 169.344 69.2504 169.024 69.1224C168.704 68.9944 168.384 68.8024 168.128 68.5464C167.744 68.1624 167.552 67.7144 167.552 67.1384C167.552 66.6264 167.68 66.1144 168 65.6664L171.392 69.2504L171.584 69.1224C171.584 69.1224 172.096 68.5464 172.224 68.1624C172.416 67.7784 172.48 67.4584 172.48 67.0744C172.48 66.6904 172.48 66.3704 172.288 66.0504C172.16 65.7304 171.968 65.4104 171.712 65.1544C171.456 64.8984 171.136 64.6424 170.816 64.5144C170.496 64.3864 170.112 64.2584 169.792 64.2584C169.408 64.2584 169.088 64.2584 168.704 64.4504C168.384 64.5784 168.064 64.7704 167.744 65.0264C167.488 65.2824 167.232 65.6024 167.104 65.9224C166.976 66.2424 166.848 66.6264 166.848 66.9464C166.848 67.3304 166.848 67.6504 167.04 68.0344C167.168 68.3544 167.36 68.6744 167.616 68.9304C167.936 69.2504 168.32 69.5064 168.768 69.6344C169.088 69.7624 169.344 69.7624 169.664 69.7624C169.792 69.7624 169.92 69.7624 170.112 69.7624L169.984 69.1864L170.048 69.2504ZM168.448 65.2824C168.96 64.9624 169.472 64.8344 169.984 64.8984C170.496 64.8984 170.944 65.1544 171.328 65.5384C171.712 65.9224 171.904 66.3704 171.904 66.9464C171.904 67.4584 171.776 67.9704 171.456 68.4184L168.448 65.2184V65.2824Z" fill="#E73233"/>
<path d="M176.192 71.1704L176.64 70.8504L176 70.0184L177.408 68.9304L177.024 68.4824L175.616 69.5704L174.976 68.8024L174.528 69.1224L175.168 69.9544L171.328 73.0264L171.712 73.5384L175.552 70.4024L176.192 71.1704Z" fill="#E73233"/>
<path d="M179.712 78.1464C179.712 78.1464 180.032 77.5064 180.096 77.1224C180.16 76.8024 180.096 76.4184 180.096 76.0344C180.032 75.6504 179.904 75.3304 179.648 75.0104C179.328 74.5624 179.008 74.2424 178.624 74.0504C178.304 73.8584 177.92 73.7944 177.472 73.7944L179.904 72.1304L179.584 71.6824L173.632 75.7784L173.952 76.2904L174.784 75.7144C174.592 76.0984 174.528 76.4824 174.592 76.8664C174.656 77.3144 174.848 77.6984 175.104 78.1464C175.296 78.4664 175.552 78.7224 175.872 78.9144C176.192 79.1064 176.512 79.2344 176.896 79.2984C177.088 79.2984 177.216 79.2984 177.408 79.2984C177.6 79.2984 177.792 79.2984 177.984 79.2984C178.368 79.2344 178.688 79.1064 178.944 78.8504C179.264 78.6584 179.52 78.4024 179.712 78.0824V78.1464ZM175.232 76.2264C175.232 76.2264 175.36 75.7144 175.552 75.4584C175.68 75.2024 175.936 75.0104 176.128 74.8184C176.384 74.6264 176.64 74.5624 176.896 74.4984C177.024 74.4984 177.152 74.4984 177.28 74.4984C177.408 74.4984 177.6 74.4984 177.728 74.4984C177.984 74.4984 178.304 74.6904 178.496 74.8184C178.752 74.9464 178.944 75.2024 179.136 75.3944C179.328 75.6504 179.392 75.9064 179.456 76.1624C179.456 76.4184 179.456 76.7384 179.456 76.9944C179.456 77.2504 179.328 77.5704 179.136 77.7624C179.008 78.0184 178.816 78.2104 178.56 78.4024C178.304 78.5944 178.048 78.6584 177.792 78.7224C177.472 78.7224 177.216 78.7224 176.96 78.7224C176.704 78.7224 176.448 78.5944 176.192 78.4024C175.936 78.2744 175.744 78.0184 175.552 77.8264C175.36 77.5704 175.296 77.3144 175.232 76.9944C175.232 76.6744 175.168 76.4184 175.232 76.1624V76.2264Z" fill="#E73233"/>
<path d="M184.704 83.6503L183.872 84.0983C184.064 83.7783 184.192 83.3943 184.128 83.0103C184.128 82.5623 184 82.1143 183.744 81.6663C183.552 81.3463 183.296 81.0263 183.04 80.8343C182.784 80.5783 182.464 80.4503 182.08 80.3223C181.76 80.1943 181.376 80.1943 180.992 80.2583C180.608 80.2583 180.288 80.3863 179.968 80.5783C179.648 80.7703 179.392 81.0263 179.136 81.2823C178.88 81.6023 178.752 81.9223 178.624 82.2423C178.496 82.5623 178.496 82.9463 178.56 83.3303C178.56 83.7143 178.688 84.0343 178.88 84.3543C179.136 84.8023 179.392 85.1223 179.776 85.3143C180.096 85.5063 180.544 85.6343 180.992 85.6983L179.968 86.2743L180.224 86.7863L184.896 84.2263L184.64 83.7143L184.704 83.6503ZM181.888 80.8343C181.888 80.8343 182.4 81.0263 182.656 81.2183C182.912 81.4103 183.104 81.6023 183.232 81.8583C183.36 82.1143 183.488 82.3703 183.488 82.6903C183.488 83.0103 183.488 83.2663 183.424 83.5223C183.36 83.7783 183.232 84.0343 183.04 84.2903C182.848 84.5463 182.656 84.7383 182.4 84.8663C182.144 84.9943 181.888 85.1223 181.568 85.1223C181.248 85.1223 180.992 85.1223 180.736 85.0583C180.48 84.9943 180.224 84.8663 179.968 84.6743C179.712 84.4823 179.584 84.2903 179.392 84.0343C179.264 83.7783 179.136 83.5223 179.136 83.2023C179.136 82.8823 179.136 82.6263 179.2 82.3703C179.264 82.1143 179.392 81.8583 179.584 81.6023C179.776 81.3463 179.968 81.1543 180.224 81.0263C180.48 80.8983 180.736 80.7703 181.056 80.7703C181.12 80.7703 181.248 80.7703 181.312 80.7703C181.504 80.7703 181.696 80.7703 181.888 80.8343Z" fill="#E73233"/>
<path d="M187.781 85.5217L181.173 88.6132L181.417 89.1349L188.026 86.0434L187.781 85.5217Z" fill="#E73233"/>
<path d="M188.988 88.2672L182.271 91.1168L182.496 91.6471L189.213 88.7975L188.988 88.2672Z" fill="#E73233"/>
</svg>
