<svg width="256" height="256" viewBox="0 0 256 256" fill="none" xmlns="http://www.w3.org/2000/svg">
<path d="M127.997 236.304C63.4675 236.304 10.9675 184.303 10.9675 120.391C10.9675 56.4787 63.4675 4.47778 127.997 4.47778C192.526 4.47778 245.026 56.4787 245.026 120.391C245.026 184.303 192.526 236.304 127.997 236.304Z" fill="white"/>
<path d="M127.997 0C60.9976 0 6.48846 54.0095 6.48846 120.391C6.48846 141.853 12.1896 162.009 22.1649 179.48C19.8742 183.113 18.0634 187.808 18.0634 193.655C18.0634 203.231 24.2572 214.624 40.6055 214.522C42.9921 214.509 47.4455 213.204 50.2225 212.808C52.9867 215.098 55.8596 217.266 58.8221 219.307C57.3505 220.017 56.0132 220.766 55.015 221.52C49.1667 225.973 39.7417 234.481 39.7417 236.566C39.7417 238.101 43.4273 241.875 46.6649 242.861C51.3486 244.287 57.8752 243.891 63.685 244.933C80.7755 247.997 90.5525 255.994 94.8523 255.994C100.425 255.994 102.486 241.677 103.542 238.325C111.45 239.931 119.634 240.775 128.01 240.775C195.009 240.775 249.518 186.766 249.518 120.384C249.518 54.0032 195.002 0 127.997 0ZM97.2198 202.496C92.3697 203.443 83.2518 209.788 79.3423 211.1C79.2079 211.144 79.0223 211.208 78.8176 211.285C76.1686 209.878 73.5836 208.355 71.0754 206.731L85.0754 195.785C85.5553 195.491 86.5662 195.235 86.9629 195.491C87.1293 195.6 87.4428 197.73 88.9401 198.958C91.3459 200.929 95.0251 200.551 97.2262 202.496H97.2198ZM94.0269 165.406C94.0973 165.342 95.8697 165.336 95.9401 165.4C96.388 165.822 97.015 173.94 101.718 175.942C106.504 177.976 111.898 173.486 115.462 173.703C116.742 173.78 116.787 174.061 116.319 175.213C114.944 178.635 105.986 185.256 101.859 183.529C99.0818 182.365 93.3039 166.084 94.0333 165.406H94.0269ZM147.148 206.033C157.756 201.894 168.922 200.327 179.755 197.052C187.305 194.768 198.963 190.316 207.601 186.894C188.463 209.277 159.887 223.516 128.003 223.516C124.74 223.516 121.509 223.356 118.322 223.068C126.212 215.795 137.268 209.897 147.154 206.04L147.148 206.033ZM142.989 170.038C147.263 174.356 133.18 186.9 132.245 173.377C131.785 166.686 140.711 167.728 142.989 170.038ZM154.045 183.305C156.029 179.332 156.31 178.059 159.804 182.026L154.045 183.305ZM180.107 175.29C180.631 176.934 185.008 177.65 185.577 178.232C186.678 179.371 185.341 179.3 184.611 179.48C178.417 180.996 177.617 179.588 176.133 173.338C175.372 170.127 174.7 165.24 175.288 162.009C175.775 159.329 181.7 153.495 181.943 159.713C182.064 162.892 179.364 172.967 180.107 175.296V175.29ZM214.806 177.407C213.142 174.381 209.777 171.765 208.798 171.24C207.211 170.383 202.431 170.095 202.194 169.852C200.787 168.387 206.142 141.52 196.724 133.172C188.597 125.975 174.213 137.125 170.099 145.006C169.011 143.669 169.517 140.228 167.469 140.228C166.215 140.228 155.818 144.712 155.479 145.243C154.276 147.13 162.235 166.718 161.116 170.613C155.952 162.982 154.013 151.755 151.236 143.094C150.347 140.317 147.148 131.47 141.095 131.47C135.784 131.47 129.085 136.217 124.145 140.912C124.132 140.759 124.132 140.612 124.119 140.458C124.151 131.4 123.742 121.549 118.994 113.597C124.766 113.105 129.232 110.053 133.922 107.085C135.125 106.324 135.854 105.064 136.955 104.36C141.069 101.724 143.68 103.835 142.611 96.0504C141.99 91.5277 137.851 88.0542 137.07 84.9644C136.475 82.604 137.55 79.0409 136.596 77.1218C135.867 75.6441 122.84 66.9954 120.267 64.6605C118.431 63.0037 108.872 52.4807 108.372 50.9134C107.528 48.2779 109.716 48.4058 110.932 46.9921C119.205 37.3646 117.561 25.9205 106.862 19.402C113.696 18.001 120.766 17.2654 128.01 17.2654C185.488 17.2654 232.242 63.5282 232.242 120.384C232.242 141.45 225.818 161.056 214.819 177.401L214.806 177.407ZM83.1942 49.2566C84.7682 50.3505 88.1211 51.1821 88.9081 51.8602C89.7399 52.5702 90.0598 56.434 92.1585 58.2059C93.9373 59.7156 96.3624 59.6581 98.3331 60.6752L113.888 78.0813C112.896 79.1176 110.51 83.4867 109.844 83.9729C109.121 84.5039 107.419 84.5294 106.255 85.1883C103.657 86.6596 99.9392 90.9264 97.6037 89.3016L97.2326 88.0094C108.622 83.3844 97.8852 80.6849 97.303 77.3521C97.1494 76.4757 99.4529 75.0491 98.2308 73.258C96.6695 71.985 94.5068 72.3944 92.7984 71.646C89.2408 70.0915 84.026 63.1252 79.3039 63.9568C69.9108 65.6072 61.5863 74.0768 68.164 83.4867C71.0754 87.6576 81.9721 92.5832 82.5095 95.3787C83.8596 102.467 74.0955 110.674 75.5351 118.325C79.5598 127.076 83.2902 135.999 88.8761 143.887C89.0425 144.124 89.2152 144.347 89.3816 144.578C84.6211 146.388 82.1512 150.233 80.6604 152.305C75.9638 158.824 76.6869 163.231 78.8624 170.952C70.8194 165.374 58.6238 163.282 50.6512 158.434C39.9017 151.896 52.2252 138.776 54.4007 152.625C54.5543 153.585 54.324 156.246 54.7207 156.745C55.3157 157.5 67.1914 158.593 67.1914 157.487C67.1914 146.977 65.2335 128.809 48.962 128.809C38.9227 128.809 30.6814 135.008 30.6814 147.879C30.6814 163.621 39.0378 168.867 48.4885 174.445C54.036 177.72 64.4977 181.891 64.4977 186.702C64.4977 188.339 60.6201 192.574 56.154 195.037C52.0525 191.167 48.2709 186.97 44.8477 182.493C44.8797 182.435 44.9181 182.371 44.9501 182.313C46.2042 180.273 49.1667 177.631 47.855 175.552C47.6567 175.245 41.6165 172.072 40.7591 171.669C39.3258 170.997 37.9693 170.517 36.76 170.191C28.4931 155.421 23.7837 138.449 23.7837 120.404C23.7837 82.5016 44.5598 49.3206 75.4392 31.3963C74.1531 39.8915 77.845 45.5336 83.2134 49.2694L83.1942 49.2566Z" fill="#10120F"/>
<path d="M152.298 71.0766C152.298 72.2024 151.921 73.1236 151.166 73.8209C150.411 74.5245 149.464 74.8764 148.319 74.8764C147 74.8764 145.977 74.5053 145.228 73.7697C144.569 73.1364 144.243 72.3624 144.243 71.454C144.243 70.9934 144.307 70.5648 144.435 70.1618C144.588 69.6692 144.799 69.4198 145.081 69.4198C145.158 69.4198 145.234 69.6053 145.305 69.9699C145.388 70.4753 145.49 70.8591 145.599 71.1086C145.753 71.4796 146.079 71.7866 146.585 72.0425C147.09 72.2984 147.602 72.4199 148.12 72.4199C148.638 72.4199 149.054 72.3112 149.432 72.0937C149.854 71.8378 150.065 71.5116 150.065 71.1086C150.065 70.7311 149.765 70.3345 149.157 69.9187C148.664 69.5733 148.056 69.2662 147.346 69.004C146.431 68.6713 145.734 68.2043 145.26 67.603C144.819 67.0529 144.595 66.4324 144.595 65.7543C144.595 64.7756 144.934 63.944 145.606 63.2659C146.277 62.5878 147.141 62.2552 148.184 62.2616C148.907 62.2744 149.617 62.4151 150.321 62.6966C151.185 63.0548 151.614 63.509 151.614 64.0591C151.614 64.1998 151.518 64.4301 151.319 64.75C150.974 65.3257 150.705 65.6136 150.513 65.6136C150.424 65.6136 150.296 65.524 150.123 65.3385C149.605 64.622 148.978 64.2702 148.248 64.2702C147.819 64.2702 147.442 64.4045 147.116 64.6732C146.789 64.9419 146.629 65.2489 146.629 65.5816C146.629 65.8822 146.783 66.1445 147.096 66.3684C147.41 66.5923 148.133 66.9633 149.266 67.4815C150.238 67.9293 150.929 68.3643 151.351 68.7737C151.979 69.3814 152.292 70.149 152.292 71.0702L152.298 71.0766Z" fill="#10120F"/>
<path d="M161.532 65.2362C161.532 66.8738 160.463 68.2044 158.332 69.2407C156.688 70.0467 155.862 70.7824 155.862 71.454C155.862 71.7163 155.926 72.1705 156.054 72.8166C156.182 73.4627 156.285 73.8721 156.362 74.0448C156.362 74.0768 156.362 74.1344 156.381 74.2175C156.394 74.3007 156.4 74.3455 156.4 74.3583C156.4 74.5438 156.266 74.6333 156.003 74.6333L154.032 74.6653C153.745 74.6653 153.546 74.3966 153.45 73.8529C153.405 73.5906 153.38 73.1236 153.367 72.452C153.367 72.3048 153.348 71.7547 153.303 70.8143C153.258 69.9827 153.239 69.2919 153.239 68.7225C153.239 66.893 153.348 65.2362 153.572 63.7457C153.636 63.2979 153.745 62.9717 153.885 62.767C154.032 62.5687 154.256 62.4663 154.57 62.4663H158.774C159.682 62.4663 160.399 62.7862 160.911 63.4131C161.333 63.944 161.544 64.5453 161.544 65.2234L161.532 65.2362ZM159.132 65.5816C159.132 65.1338 158.895 64.7948 158.428 64.5645C158.07 64.3918 157.673 64.3022 157.225 64.3022C156.547 64.3022 156.086 64.7308 155.843 65.5816C155.754 65.9015 155.658 66.6307 155.562 67.7566C155.562 68.2172 155.696 68.4475 155.958 68.4475C156.394 68.4475 157.014 68.1148 157.827 67.4431C158.697 66.7267 159.126 66.1062 159.126 65.5752L159.132 65.5816Z" fill="#10120F"/>
<path d="M170.31 70.1426C170.31 71.4092 170.106 72.4007 169.696 73.1108C169.018 74.2878 167.796 74.8699 166.011 74.8699C164.443 74.8699 163.33 74.5309 162.664 73.8528C161.967 73.1364 161.589 71.9017 161.525 70.1362C161.64 67.9228 162.088 66.0805 162.875 64.59C163.713 63.01 164.75 62.2231 165.979 62.2231C167.265 62.2231 168.34 63.1507 169.184 65.0058C169.933 66.6179 170.304 68.3258 170.304 70.1362L170.31 70.1426ZM168.16 70.0402C168.16 68.441 167.904 67.1104 167.393 66.0485C166.932 65.1146 166.439 64.6476 165.921 64.6476C165.428 64.6476 164.948 65.1594 164.481 66.1829C163.989 67.2448 163.745 68.3514 163.745 69.5157C163.745 71.3324 164.475 72.2472 165.927 72.2472C167.38 72.2472 168.167 71.5115 168.167 70.0338L168.16 70.0402Z" fill="#10120F"/>
<path d="M179.748 74.3262C179.748 74.5565 179.627 74.6716 179.396 74.6716H178.008C177.63 74.6716 177.419 74.6588 177.362 74.6396C177.208 74.5693 177.138 74.3837 177.138 74.0831C177.138 73.2835 176.952 72.3943 176.575 71.422C176.165 70.392 175.749 69.8739 175.333 69.8739C175.032 69.8739 174.719 70.0658 174.399 70.4496C174.079 70.8334 173.913 71.1725 173.913 71.4731C173.913 71.7738 173.996 72.2408 174.169 72.8293C174.361 73.501 174.482 74.0255 174.521 74.3965V74.4669C174.521 74.6076 174.277 74.678 173.798 74.678H172.742C172.409 74.678 172.204 74.6524 172.115 74.6012C172.032 74.5501 171.961 74.3774 171.91 74.0895C171.718 73.1299 171.622 71.697 171.622 69.7907C171.622 66.3939 171.782 64.1806 172.108 63.1379C172.249 62.6965 172.499 62.479 172.851 62.479H176.075C177.099 62.479 177.925 62.7605 178.558 63.3234C179.16 63.8671 179.46 64.5388 179.46 65.3448C179.46 66.6242 178.731 67.7309 177.266 68.6585C178.891 70.5008 179.716 72.3879 179.748 74.3262ZM177.106 65.5815C177.106 65.1913 176.939 64.8843 176.6 64.6668C176.261 64.4493 175.871 64.3405 175.429 64.3405C174.354 64.3405 173.817 65.4024 173.817 67.5198C173.817 67.9548 173.945 68.1787 174.207 68.1787C174.623 68.1787 175.199 67.8844 175.935 67.2959C176.722 66.6626 177.112 66.0933 177.112 65.5879L177.106 65.5815Z" fill="#10120F"/>
<path d="M189.007 63.963C189.007 64.2509 188.898 64.6155 188.674 65.0569C188.45 65.4983 188.277 65.7222 188.149 65.7222C188.022 65.7222 187.894 65.6326 187.772 65.4471C187.362 64.8714 186.908 64.5835 186.409 64.5835C186.211 64.5835 186.089 64.6411 186.064 64.7562C185.686 65.4215 185.494 66.6241 185.494 68.3513C185.494 69.1445 185.616 70.2896 185.859 71.7865C186.102 73.2834 186.224 74.1726 186.224 74.4604C186.121 74.5756 185.961 74.6331 185.75 74.6331H184.291C183.971 74.6331 183.766 74.5756 183.664 74.4604C183.562 74.3453 183.485 74.0574 183.434 73.5968C183.306 72.5605 183.242 71.8441 183.242 71.4538C183.242 70.3856 183.344 69.0294 183.543 67.3854C183.741 65.7414 183.843 64.865 183.843 64.7498C183.843 64.6347 183.766 64.5771 183.619 64.5771C183.395 64.5771 182.973 64.7818 182.352 65.1784C181.943 65.4535 181.527 65.735 181.117 66.0228C180.919 66.1636 180.791 66.2275 180.74 66.2275C180.631 66.2275 180.58 66.1252 180.58 65.9141C180.58 65.4215 180.67 64.8202 180.842 64.1293C181.015 63.4321 181.181 63.061 181.341 63.0163C181.636 62.8563 182.135 62.7092 182.832 62.5877C183.581 62.4597 184.342 62.3958 185.117 62.3958C185.974 62.3958 186.78 62.5045 187.542 62.722C188.527 63.0227 189.013 63.4321 189.013 63.9502L189.007 63.963Z" fill="#10120F"/>
<path d="M193.064 74.4285C193.064 74.5885 192.948 74.6716 192.718 74.6716L190.818 74.6396C190.517 74.6396 190.319 74.5373 190.21 74.3262C190.178 74.2558 190.114 73.9807 190.018 73.4946C189.858 72.6438 189.775 71.1085 189.775 68.9016C189.775 66.0933 189.96 64.1358 190.325 63.0291C190.453 62.6581 190.728 62.479 191.157 62.479H192.398C192.833 62.479 193.057 62.5941 193.057 62.8244C193.057 63.0547 192.923 63.9183 192.66 65.4472C192.398 66.9761 192.264 68.0124 192.264 68.5561C192.264 70.2257 192.507 72.0553 192.987 74.0511C193.032 74.2366 193.057 74.3646 193.057 74.4285H193.064Z" fill="#10120F"/>
<path d="M202.194 69.4198C202.194 71.4668 202.098 72.9765 201.906 73.9424C201.855 74.2175 201.804 74.3902 201.766 74.4606C201.689 74.5757 201.535 74.6333 201.305 74.6333H200.134C199.859 74.6333 199.68 74.6141 199.596 74.5821C199.449 74.5245 199.373 74.3902 199.373 74.1855C199.373 73.2195 198.886 71.6587 197.914 69.5029C196.967 67.3983 196.308 66.3428 195.949 66.3428C195.802 66.3428 195.725 66.7458 195.725 67.5518C195.725 68.505 195.789 69.6884 195.917 71.0958C196.032 72.5607 196.173 73.6226 196.327 74.2878C196.327 74.4734 196.276 74.5821 196.167 74.6141C196.135 74.6269 196.007 74.6333 195.789 74.6333H194.554C194.279 74.6333 194.145 74.275 194.145 73.565C194.017 72.4199 193.953 70.8911 193.953 68.9848C193.953 68.9592 193.953 68.9144 193.94 68.8376C193.927 68.7609 193.921 68.7097 193.921 68.6713C193.921 64.5389 194.298 62.4727 195.06 62.4727H195.693C196.25 62.4727 196.967 63.1699 197.843 64.5645C198.477 65.588 199.129 66.861 199.801 68.3834C199.948 68.7289 200.076 68.9016 200.179 68.9016C200.262 68.9016 200.307 68.6841 200.307 68.2427V68.1723C200.307 67.7374 200.217 66.8482 200.025 65.5112C199.852 64.3342 199.705 63.4706 199.59 62.9204C199.59 62.6198 199.737 62.4727 200.032 62.4727H201.171C201.401 62.4727 201.567 62.5814 201.663 62.7989C201.676 62.8437 201.721 63.0676 201.804 63.4706C202.06 64.7372 202.181 66.7202 202.181 69.4134L202.194 69.4198Z" fill="#10120F"/>
<path d="M211.754 72.1128C211.754 72.9188 211.479 73.5777 210.922 74.0959C210.288 74.6844 209.393 74.9787 208.228 74.9787C206.667 74.9787 205.483 74.4349 204.671 73.3538C203.954 72.3879 203.583 71.0957 203.551 69.4837C203.519 68.1019 203.807 66.765 204.415 65.4792C205.323 63.5473 206.731 62.575 208.644 62.575C209.521 62.575 210.25 62.7861 210.826 63.2146C211.363 63.6304 211.626 64.1102 211.626 64.6476C211.626 65.0186 211.523 65.332 211.319 65.6007C211.082 65.8886 210.768 66.0293 210.372 66.0293C210.16 66.0293 210.007 65.9206 209.924 65.7031C209.905 65.6583 209.873 65.5048 209.828 65.2361C209.783 65.0634 209.642 64.9226 209.405 64.8139C209.162 64.7051 208.913 64.6476 208.644 64.6476C207.639 64.6476 206.884 65.1593 206.385 66.1828C206.021 66.9569 205.816 67.942 205.758 69.1382C205.726 69.8867 205.841 70.5584 206.097 71.1597C206.449 71.9785 207 72.3879 207.748 72.3879C208.183 72.3879 208.618 72.2472 209.054 71.9721C209.489 71.697 209.7 71.3644 209.7 70.9678C209.7 70.6927 209.521 70.3665 209.156 69.989C208.791 69.618 208.612 69.3877 208.612 69.3046C208.612 69.215 208.663 69.1574 208.772 69.1318C209.725 68.5817 210.461 68.3002 210.986 68.3002C211.127 68.3002 211.242 68.4154 211.338 68.6457C211.613 69.65 211.754 70.8014 211.754 72.1V72.1128Z" fill="#10120F"/>
<path d="M168.813 79.6549C168.813 79.9875 168.724 80.2882 168.544 80.5441C168.365 80.7999 168.148 80.9535 167.892 81.0046C167.706 81.075 167.591 81.107 167.553 81.107C167.303 81.107 167.181 81.0047 167.181 80.7936C167.047 80.0323 166.606 79.6549 165.857 79.6549C165.064 79.6549 164.411 80.0707 163.899 80.8959C163.413 81.6763 163.176 82.6359 163.176 83.7617C163.176 84.8108 163.451 85.7064 164.001 86.4485C164.552 87.1905 165.23 87.5615 166.043 87.5615C166.503 87.5615 166.951 87.4208 167.386 87.1329C167.873 86.8003 168.186 86.3653 168.327 85.8408C168.365 85.5401 168.429 85.393 168.512 85.393C168.628 85.393 168.698 85.5401 168.73 85.8408C168.768 86.231 168.794 86.5316 168.794 86.7363C168.794 87.7598 168.5 88.585 167.917 89.2056C167.29 89.8644 166.433 90.1907 165.339 90.1907C164.014 90.1907 162.92 89.5254 162.05 88.1884C161.301 87.0242 160.924 85.7448 160.924 84.3567C160.924 82.8022 161.231 81.4013 161.851 80.1602C162.728 78.4203 164.065 77.5503 165.863 77.5503C166.676 77.5503 167.367 77.7358 167.93 78.1004C168.525 78.5034 168.826 79.0216 168.826 79.6549H168.813Z" fill="#10120F"/>
<path d="M176.741 89.6404C176.741 89.8004 176.645 89.8835 176.453 89.8835L170.726 89.8515C170.234 89.8515 169.984 89.5509 169.984 88.956C169.984 87.3119 170.099 85.2585 170.323 82.8085C170.534 80.416 170.745 78.8616 170.95 78.1451L170.982 78.0044C171.046 77.7997 171.206 77.6909 171.462 77.6909H173.196C173.478 77.6909 173.612 77.8061 173.612 78.0364C173.612 78.4074 173.362 79.5908 172.857 81.5867C172.351 83.5825 172.102 84.7724 172.102 85.1562C172.102 87.0689 172.607 88.022 173.612 88.022C174.258 88.022 174.898 87.6766 175.544 86.9857C175.672 86.845 175.768 86.781 175.832 86.781C175.979 86.781 176.095 86.8961 176.178 87.12C176.261 87.3439 176.44 88.1052 176.734 89.4102V89.6532L176.741 89.6404Z" fill="#10120F"/>
<path d="M185.667 83.0772C185.667 87.7533 184.285 90.0882 181.521 90.0882C178.756 90.0882 177.278 87.9452 177.278 83.6657C177.278 83.1155 177.317 82.2456 177.387 81.0557C177.464 79.9043 177.528 79.111 177.592 78.6824C177.656 78.2475 177.701 77.9916 177.733 77.8956C177.784 77.7549 177.886 77.6909 178.033 77.6909H179.819C180.075 77.6909 180.203 77.7933 180.203 78.0044C180.203 78.0939 180.183 78.2602 180.139 78.4905C179.735 79.9746 179.531 81.6698 179.531 83.5697C179.531 84.5485 179.684 85.4249 179.991 86.1925C180.362 87.1136 180.868 87.5742 181.508 87.5742C182.89 87.5742 183.581 86.1093 183.581 83.1859C183.581 81.5739 183.421 80.077 183.101 78.6952C183.082 78.6057 183.024 78.4522 182.941 78.2475C182.877 78.0747 182.845 77.9596 182.845 77.902C182.845 77.7613 182.96 77.6973 183.197 77.6973H184.502C184.989 77.6973 185.27 77.9148 185.334 78.3562C185.545 79.7699 185.654 81.35 185.654 83.09L185.667 83.0772Z" fill="#10120F"/>
<path d="M194.81 86.9794C194.81 88.8793 193.844 89.8324 191.905 89.8452L187.612 89.8772C187.298 89.8772 187.087 89.6213 186.985 89.116C186.908 88.713 186.87 87.9326 186.87 86.7683V82.7254C186.87 81.3693 187.011 79.9491 187.292 78.4778C187.356 78.1644 187.433 77.9597 187.516 77.8445C187.606 77.7358 187.772 77.6782 188.034 77.6782H191.266C192.309 77.6782 193.07 77.8445 193.55 78.1708C194.03 78.497 194.266 79.06 194.266 79.8532C194.266 80.6464 193.838 81.4524 192.974 82.3736C192.782 82.5335 192.686 82.687 192.686 82.8214C192.686 82.9813 192.827 83.1796 193.108 83.4099C193.723 84.088 194.151 84.6701 194.401 85.1563C194.682 85.7064 194.823 86.3141 194.823 86.9666L194.81 86.9794ZM192.001 80.3138C192.001 80.0515 191.886 79.8468 191.662 79.6997C191.438 79.5525 191.163 79.4822 190.837 79.4822C189.525 79.4822 188.866 80.4865 188.866 82.4887C188.866 82.8598 188.994 83.0389 189.256 83.0389C189.493 83.0389 189.73 82.9365 189.967 82.7254C190.485 82.4376 190.926 82.0921 191.304 81.6891C191.765 81.1965 192.001 80.736 192.001 80.3074V80.3138ZM192.513 86.4165C192.513 86.0135 192.334 85.5145 191.982 84.9132C191.63 84.3119 191.298 84.0112 190.997 84.0112C190.543 84.0112 189.986 84.2735 189.32 84.8044C189.084 85.3098 188.969 85.7 188.969 85.9751C188.969 87.2801 189.429 87.9326 190.357 87.9326C191.797 87.9326 192.52 87.4272 192.52 86.4165H192.513Z" fill="#10120F"/>
<path d="M158.959 102.089C158.959 102.767 158.915 103.388 158.825 103.957C158.671 104.853 158.428 105.307 158.102 105.307H155.926C155.818 105.307 155.76 105.262 155.76 105.166C155.76 105.108 155.914 104.763 156.221 104.13C156.681 103.183 156.912 102.403 156.912 101.782C156.912 101.462 156.752 101.206 156.432 101.021C156.157 100.861 155.811 100.778 155.395 100.778C154.672 100.778 154.045 100.912 153.514 101.174C152.81 101.507 152.458 102.012 152.458 102.678C152.458 103.055 152.631 103.618 152.97 104.354C153.22 104.885 153.348 105.153 153.348 105.166C153.348 105.256 153.181 105.307 152.855 105.307H151.108C150.43 105.307 150.085 104.238 150.085 102.095C150.085 100.611 150.404 99.1081 151.038 97.5856C151.588 96.3062 152.266 95.2059 153.079 94.2848C153.828 93.434 154.429 93.0054 154.89 93.0054C155.408 93.0054 155.958 93.338 156.553 94.0097C157.232 94.7709 157.782 95.7753 158.204 97.0355C158.697 98.5323 158.947 100.221 158.947 102.095L158.959 102.089ZM156.553 98.3276C156.553 97.7967 156.368 97.2082 155.99 96.5493C155.619 95.8904 155.287 95.5642 155.005 95.5642C154.672 95.5642 154.224 95.9672 153.661 96.7732C153.098 97.5792 152.81 98.2829 152.798 98.8778C152.798 99.0633 152.874 99.1529 153.028 99.1529C153.041 99.1529 153.079 99.1401 153.149 99.1209C153.22 99.1017 153.265 99.0889 153.29 99.0889C153.367 99.0889 153.693 99.0377 154.269 98.929C154.845 98.8202 155.28 98.769 155.562 98.769H156.086C156.394 98.769 156.547 98.6219 156.547 98.3212L156.553 98.3276Z" fill="#10120F"/>
<path d="M168.288 98.5003C168.288 103.176 166.881 105.511 164.059 105.511C161.237 105.511 159.734 103.368 159.734 99.0888C159.734 98.5386 159.772 97.6687 159.849 96.4788C159.926 95.3274 159.996 94.5341 160.06 94.1055C160.124 93.6706 160.175 93.4147 160.207 93.3187C160.258 93.178 160.367 93.114 160.514 93.114H162.338C162.6 93.114 162.728 93.2164 162.728 93.4275C162.728 93.517 162.709 93.6833 162.664 93.9136C162.255 95.3977 162.043 97.0929 162.043 98.9928C162.043 99.9716 162.203 100.848 162.517 101.616C162.894 102.537 163.413 102.997 164.065 102.997C165.473 102.997 166.183 101.532 166.183 98.609C166.183 96.997 166.023 95.5001 165.697 94.1183C165.678 94.0288 165.62 93.8752 165.537 93.6705C165.473 93.4978 165.441 93.3827 165.441 93.3251C165.441 93.1844 165.563 93.1204 165.799 93.1204H167.137C167.636 93.1204 167.917 93.3379 167.981 93.7793C168.199 95.193 168.308 96.7731 168.308 98.5131L168.288 98.5003Z" fill="#10120F"/>
<path d="M177.637 100.432C177.656 102.07 177.368 103.26 176.766 104.008C176.101 104.846 174.994 105.268 173.439 105.268H170.509C169.965 105.268 169.69 104.808 169.69 103.886C169.69 103.727 169.664 103.138 169.619 102.127C169.575 101.117 169.549 100.215 169.549 99.4342C169.549 98.5706 169.594 97.5343 169.69 96.3253C169.786 95.0459 169.882 94.2399 169.99 93.9072C170.106 93.3763 170.304 93.114 170.592 93.114H172.806C173.894 93.114 174.898 93.6514 175.826 94.7197C177.003 96.0758 177.611 97.9821 177.643 100.439L177.637 100.432ZM175.423 99.9716C175.423 98.9161 175.18 97.867 174.7 96.8371C174.175 95.6856 173.567 95.1163 172.876 95.1163C172.076 95.1163 171.68 96.7795 171.68 100.112C171.68 101.11 171.827 101.903 172.121 102.479C172.415 103.061 172.825 103.349 173.35 103.349C174.041 103.349 174.585 102.946 174.968 102.14C175.276 101.507 175.423 100.784 175.423 99.9652V99.9716Z" fill="#10120F"/>
<path d="M187.081 102.089C187.081 102.767 187.036 103.388 186.953 103.957C186.806 104.853 186.575 105.307 186.256 105.307H184.17C184.061 105.307 184.01 105.262 184.01 105.166C184.01 105.108 184.157 104.763 184.451 104.13C184.893 103.183 185.117 102.403 185.117 101.782C185.117 101.462 184.963 101.206 184.656 101.021C184.394 100.861 184.061 100.778 183.658 100.778C182.96 100.778 182.359 100.912 181.853 101.174C181.181 101.507 180.842 102.012 180.842 102.678C180.842 103.055 181.002 103.618 181.335 104.354C181.578 104.885 181.7 105.153 181.7 105.166C181.7 105.256 181.54 105.307 181.226 105.307H179.55C178.897 105.307 178.571 104.238 178.571 102.095C178.571 100.611 178.878 99.1081 179.486 97.5856C180.011 96.3062 180.663 95.2059 181.444 94.2848C182.16 93.434 182.743 93.0054 183.184 93.0054C183.677 93.0054 184.214 93.338 184.784 94.0097C185.436 94.7709 185.961 95.7753 186.364 97.0355C186.838 98.5323 187.075 100.221 187.075 102.095L187.081 102.089ZM184.777 98.3276C184.777 97.7967 184.598 97.2082 184.24 96.5493C183.882 95.8904 183.568 95.5642 183.293 95.5642C182.979 95.5642 182.544 95.9672 182.007 96.7732C181.463 97.5792 181.188 98.2829 181.175 98.8778C181.175 99.0633 181.252 99.1529 181.399 99.1529C181.412 99.1529 181.45 99.1401 181.521 99.1209C181.591 99.1017 181.636 99.0889 181.655 99.0889C181.732 99.0889 182.045 99.0377 182.596 98.929C183.152 98.8202 183.562 98.769 183.837 98.769H184.342C184.637 98.769 184.784 98.6219 184.784 98.3212L184.777 98.3276Z" fill="#10120F"/>
<path d="M196.551 98.5003C196.551 103.176 195.226 105.511 192.577 105.511C189.928 105.511 188.514 103.368 188.514 99.0888C188.514 98.5386 188.553 97.6687 188.623 96.4788C188.693 95.3274 188.757 94.5341 188.821 94.1055C188.885 93.6706 188.93 93.4147 188.962 93.3187C189.013 93.178 189.109 93.114 189.25 93.114H190.958C191.202 93.114 191.323 93.2164 191.323 93.4275C191.323 93.517 191.304 93.6833 191.259 93.9136C190.869 95.3977 190.677 97.0929 190.677 98.9928C190.677 99.9716 190.824 100.848 191.118 101.616C191.477 102.537 191.957 102.997 192.571 102.997C193.895 102.997 194.554 101.532 194.554 98.609C194.554 96.997 194.401 95.5001 194.094 94.1183C194.075 94.0288 194.023 93.8752 193.94 93.6705C193.876 93.4978 193.851 93.3827 193.851 93.3251C193.851 93.1844 193.959 93.1204 194.19 93.1204H195.444C195.911 93.1204 196.18 93.3379 196.237 93.7793C196.442 95.193 196.544 96.7731 196.544 98.5131L196.551 98.5003Z" fill="#10120F"/>
<path d="M205.483 104.821C205.483 105.121 205.31 105.268 204.971 105.268H203.34C203.116 105.268 202.969 105.179 202.892 104.993C202.847 104.878 202.828 104.673 202.828 104.373C202.828 103.599 202.713 102.825 202.489 102.038C202.213 101.085 201.868 100.605 201.452 100.605C200.985 100.605 200.55 101.123 200.16 102.159C199.808 103.106 199.635 103.989 199.635 104.821C199.635 105.121 199.494 105.268 199.219 105.268H197.939C197.6 105.268 197.427 105.07 197.427 104.68C197.427 103.081 198.131 101.443 199.539 99.7733C199.942 99.2871 200.147 98.9673 200.147 98.8074C200.147 98.5771 200.051 98.3596 199.859 98.1485C198.662 96.8243 198.067 95.2954 198.067 93.5555C198.067 93.3507 198.125 93.2164 198.246 93.1588C198.33 93.1269 198.547 93.1077 198.899 93.1077H200.179C200.479 93.1077 200.627 93.3252 200.627 93.7666C200.627 94.4702 200.742 95.2123 200.979 95.9927C201.247 96.9011 201.542 97.3552 201.874 97.3552C202.239 97.3552 202.514 96.8371 202.706 95.8008C202.834 95.0523 202.898 94.2463 202.898 93.3827C202.898 93.1972 203.045 93.1077 203.346 93.1077H204.562C204.965 93.1077 205.17 93.3252 205.17 93.7666C205.17 95.6345 204.709 97.061 203.794 98.0525C203.519 98.3532 203.378 98.6282 203.378 98.8841C203.378 99.0824 203.455 99.2871 203.615 99.5046C203.743 99.6646 203.877 99.8245 204.018 99.9908C204.479 100.726 204.798 101.36 204.99 101.891C205.323 102.78 205.483 103.759 205.483 104.827V104.821Z" fill="#10120F"/>
<path d="M144.831 115.407C144.831 117.454 144.735 118.964 144.55 119.93C144.499 120.205 144.454 120.378 144.409 120.448C144.339 120.563 144.185 120.621 143.961 120.621H142.816C142.547 120.621 142.374 120.602 142.291 120.57C142.144 120.512 142.074 120.378 142.074 120.173C142.074 119.207 141.6 117.646 140.647 115.49C139.719 113.386 139.079 112.33 138.727 112.33C138.58 112.33 138.51 112.733 138.51 113.539C138.51 114.493 138.574 115.676 138.695 117.083C138.81 118.548 138.945 119.61 139.098 120.275C139.098 120.461 139.047 120.57 138.945 120.602C138.913 120.614 138.791 120.621 138.574 120.621H137.364C137.096 120.621 136.961 120.263 136.961 119.553C136.84 118.407 136.776 116.879 136.776 114.972C136.776 114.947 136.776 114.902 136.763 114.825C136.75 114.748 136.75 114.697 136.75 114.659C136.75 110.526 137.121 108.46 137.863 108.46H138.484C139.028 108.46 139.732 109.157 140.583 110.552C141.203 111.576 141.837 112.849 142.496 114.371C142.643 114.716 142.765 114.889 142.867 114.889C142.95 114.889 142.989 114.672 142.989 114.23V114.16C142.989 113.725 142.899 112.836 142.713 111.499C142.541 110.322 142.4 109.458 142.291 108.908C142.291 108.607 142.438 108.46 142.726 108.46H143.84C144.064 108.46 144.223 108.569 144.319 108.786C144.332 108.831 144.377 109.055 144.46 109.458C144.71 110.725 144.831 112.708 144.831 115.401V115.407Z" fill="#10120F"/>
<path d="M154.845 117.442C154.845 118.12 154.8 118.74 154.717 119.31C154.57 120.205 154.333 120.659 154.02 120.659H151.921C151.812 120.659 151.761 120.614 151.761 120.519C151.761 120.461 151.908 120.116 152.209 119.482C152.657 118.535 152.874 117.755 152.874 117.135C152.874 116.815 152.721 116.559 152.414 116.373C152.151 116.213 151.812 116.13 151.409 116.13C150.712 116.13 150.104 116.265 149.598 116.527C148.92 116.859 148.581 117.365 148.581 118.03C148.581 118.408 148.747 118.97 149.074 119.706C149.317 120.237 149.438 120.506 149.438 120.519C149.438 120.608 149.278 120.659 148.958 120.659H147.276C146.617 120.659 146.29 119.591 146.29 117.448C146.29 115.964 146.597 114.461 147.212 112.938C147.743 111.659 148.395 110.558 149.182 109.637C149.905 108.787 150.488 108.358 150.929 108.358C151.428 108.358 151.959 108.691 152.535 109.362C153.194 110.123 153.719 111.128 154.122 112.388C154.596 113.885 154.839 115.574 154.839 117.448L154.845 117.442ZM152.522 113.68C152.522 113.149 152.343 112.561 151.979 111.902C151.62 111.243 151.3 110.917 151.025 110.917C150.705 110.917 150.277 111.32 149.726 112.126C149.182 112.932 148.901 113.635 148.894 114.23C148.894 114.416 148.971 114.505 149.118 114.505C149.131 114.505 149.17 114.493 149.24 114.473C149.31 114.454 149.355 114.441 149.374 114.441C149.451 114.441 149.765 114.39 150.321 114.281C150.878 114.173 151.294 114.122 151.569 114.122H152.075C152.369 114.122 152.522 113.974 152.522 113.674V113.68Z" fill="#10120F"/>
<path d="M164.181 112.196C164.181 113.45 163.925 114.806 163.413 116.258C162.965 117.537 162.415 118.644 161.768 119.572C161.122 120.499 160.585 120.973 160.156 120.973C159.676 120.973 159.126 120.602 158.511 119.866C157.846 119.06 157.296 118.024 156.867 116.757C156.374 115.286 156.131 113.68 156.131 111.953C156.131 109.624 156.438 108.467 157.053 108.467H158.467C158.793 108.467 158.959 108.556 158.959 108.742C158.959 108.774 158.927 108.902 158.87 109.119C158.627 109.983 158.499 110.437 158.486 110.482C158.332 111.205 158.256 112.055 158.256 113.021C158.256 113.91 158.473 114.896 158.915 115.989C159.362 117.141 159.81 117.717 160.252 117.717C160.693 117.717 161.109 117.179 161.538 116.111C161.947 115.075 162.152 114.115 162.152 113.226C162.152 111.556 161.947 110.232 161.538 109.253C161.397 108.908 161.32 108.722 161.32 108.703C161.32 108.543 161.423 108.46 161.628 108.46H163.163C163.56 108.46 163.848 108.972 164.021 109.995C164.123 110.629 164.174 111.358 164.174 112.19L164.181 112.196Z" fill="#10120F"/>
<path d="M173.593 117.442C173.593 118.12 173.548 118.74 173.465 119.31C173.318 120.205 173.081 120.659 172.755 120.659H170.63C170.521 120.659 170.47 120.614 170.47 120.519C170.47 120.461 170.617 120.116 170.925 119.482C171.372 118.535 171.603 117.755 171.603 117.135C171.603 116.815 171.449 116.559 171.136 116.373C170.867 116.213 170.528 116.13 170.118 116.13C169.408 116.13 168.8 116.265 168.282 116.527C167.597 116.859 167.252 117.365 167.252 118.03C167.252 118.408 167.418 118.97 167.751 119.706C168 120.237 168.122 120.506 168.122 120.519C168.122 120.608 167.962 120.659 167.636 120.659H165.927C165.262 120.659 164.929 119.591 164.929 117.448C164.929 115.964 165.243 114.461 165.863 112.938C166.401 111.659 167.066 110.558 167.86 109.637C168.589 108.787 169.184 108.358 169.632 108.358C170.138 108.358 170.681 108.691 171.257 109.362C171.923 110.123 172.46 111.128 172.87 112.388C173.35 113.885 173.593 115.574 173.593 117.448V117.442ZM171.238 113.68C171.238 113.149 171.053 112.561 170.688 111.902C170.323 111.243 170.003 110.917 169.722 110.917C169.402 110.917 168.96 111.32 168.41 112.126C167.86 112.932 167.578 113.635 167.565 114.23C167.565 114.416 167.642 114.505 167.789 114.505C167.802 114.505 167.841 114.493 167.911 114.473C167.981 114.454 168.026 114.441 168.045 114.441C168.122 114.441 168.442 114.39 169.005 114.281C169.568 114.173 169.99 114.122 170.272 114.122H170.784C171.085 114.122 171.238 113.974 171.238 113.674V113.68Z" fill="#10120F"/>
<path d="M183.171 120.314C183.171 120.544 183.05 120.659 182.813 120.659H181.412C181.028 120.659 180.817 120.646 180.759 120.627C180.606 120.557 180.529 120.371 180.529 120.071C180.529 119.271 180.337 118.382 179.959 117.41C179.543 116.38 179.128 115.861 178.705 115.861C178.398 115.861 178.085 116.053 177.758 116.437C177.432 116.821 177.272 117.16 177.272 117.461C177.272 117.761 177.362 118.228 177.534 118.817C177.733 119.489 177.848 120.013 177.893 120.384V120.454C177.893 120.595 177.649 120.666 177.157 120.666H176.088C175.756 120.666 175.544 120.64 175.455 120.589C175.372 120.538 175.301 120.365 175.244 120.077C175.052 119.118 174.949 117.685 174.949 115.778C174.949 112.381 175.109 110.168 175.436 109.125C175.576 108.684 175.826 108.467 176.184 108.467H179.447C180.484 108.467 181.316 108.748 181.962 109.311C182.57 109.855 182.877 110.526 182.877 111.332C182.877 112.612 182.135 113.718 180.657 114.646C182.301 116.488 183.139 118.375 183.171 120.314ZM180.497 111.569C180.497 111.179 180.324 110.872 179.985 110.654C179.639 110.437 179.249 110.328 178.801 110.328C177.713 110.328 177.17 111.39 177.17 113.507C177.17 113.942 177.298 114.166 177.56 114.166C177.982 114.166 178.564 113.872 179.307 113.283C180.1 112.65 180.497 112.081 180.497 111.575V111.569Z" fill="#10120F"/>
<path d="M192.219 120.314C192.219 120.544 192.104 120.659 191.873 120.659H190.53C190.165 120.659 189.96 120.646 189.903 120.627C189.756 120.557 189.685 120.371 189.685 120.071C189.685 119.271 189.506 118.382 189.141 117.41C188.745 116.38 188.348 115.861 187.938 115.861C187.644 115.861 187.343 116.053 187.03 116.437C186.716 116.821 186.563 117.16 186.563 117.461C186.563 117.761 186.646 118.228 186.812 118.817C186.998 119.489 187.113 120.013 187.158 120.384V120.454C187.158 120.595 186.921 120.666 186.454 120.666H185.43C185.11 120.666 184.905 120.64 184.822 120.589C184.739 120.538 184.675 120.365 184.624 120.077C184.438 119.118 184.342 117.685 184.342 115.778C184.342 112.381 184.496 110.168 184.809 109.125C184.944 108.684 185.187 108.467 185.526 108.467H188.649C189.64 108.467 190.44 108.748 191.054 109.311C191.637 109.855 191.931 110.526 191.931 111.332C191.931 112.612 191.221 113.718 189.807 114.646C191.381 116.488 192.181 118.375 192.213 120.314H192.219ZM189.66 111.569C189.66 111.179 189.493 110.872 189.167 110.654C188.841 110.437 188.463 110.328 188.034 110.328C186.991 110.328 186.473 111.39 186.473 113.507C186.473 113.942 186.601 114.166 186.851 114.166C187.254 114.166 187.81 113.872 188.521 113.283C189.282 112.65 189.66 112.081 189.66 111.575V111.569Z" fill="#10120F"/>
<path d="M200.991 120.346C200.991 120.474 200.934 120.55 200.812 120.589C200.735 120.614 200.556 120.621 200.275 120.621H194.055C193.665 120.621 193.467 120.186 193.467 119.309C193.467 118.932 193.582 117.461 193.812 114.902C194.087 111.985 194.318 110.059 194.516 109.113C194.593 108.748 194.906 108.562 195.463 108.562H200.172C200.652 108.562 200.895 108.678 200.895 108.908C200.895 108.953 200.876 109.068 200.831 109.253L200.044 110.878C200.012 111.019 199.923 111.083 199.782 111.083C199.718 111.083 199.507 110.968 199.161 110.737C198.918 110.533 198.483 110.424 197.85 110.424C197.261 110.424 196.781 110.603 196.41 110.968C196.039 111.332 195.853 111.806 195.853 112.394C195.853 112.855 196.007 113.085 196.314 113.085C196.404 113.085 196.794 112.97 197.485 112.74C198.176 112.509 198.662 112.394 198.931 112.394C199.283 112.394 199.456 112.522 199.456 112.772C199.456 112.842 199.437 112.97 199.392 113.149L198.739 114.876C198.707 115.062 198.63 115.151 198.509 115.151C198.464 115.151 198.298 115.1 198.01 114.998C197.722 114.895 197.517 114.844 197.395 114.844C196.871 114.844 196.442 115.062 196.103 115.497C195.764 115.932 195.597 116.405 195.597 116.93C195.597 117.371 195.745 117.761 196.032 118.107C196.32 118.452 196.724 118.651 197.235 118.695C197.965 118.695 198.611 118.497 199.168 118.094C199.494 117.857 199.712 117.742 199.82 117.742C199.916 117.742 200.038 117.857 200.179 118.088C200.332 118.407 200.479 118.727 200.62 119.034C200.87 119.61 200.998 120.045 200.998 120.333L200.991 120.346Z" fill="#10120F"/>
<path d="M210.026 115.407C210.026 117.454 209.93 118.964 209.745 119.93C209.693 120.205 209.642 120.378 209.604 120.448C209.527 120.563 209.38 120.621 209.143 120.621H207.972C207.697 120.621 207.518 120.602 207.435 120.57C207.288 120.512 207.211 120.378 207.211 120.173C207.211 119.207 206.724 117.646 205.758 115.49C204.811 113.386 204.159 112.33 203.8 112.33C203.653 112.33 203.576 112.733 203.576 113.539C203.576 114.493 203.64 115.676 203.768 117.083C203.884 118.548 204.018 119.61 204.178 120.275C204.178 120.461 204.127 120.57 204.018 120.602C203.986 120.614 203.858 120.621 203.64 120.621H202.405C202.13 120.621 201.996 120.263 201.996 119.553C201.868 118.407 201.804 116.879 201.804 114.972C201.804 114.947 201.804 114.902 201.791 114.825C201.778 114.748 201.772 114.697 201.772 114.659C201.772 110.526 202.15 108.46 202.905 108.46H203.538C204.095 108.46 204.811 109.157 205.682 110.552C206.315 111.576 206.961 112.849 207.633 114.371C207.78 114.716 207.908 114.889 208.011 114.889C208.094 114.889 208.139 114.672 208.139 114.23V114.16C208.139 113.725 208.049 112.836 207.857 111.499C207.684 110.322 207.537 109.458 207.422 108.908C207.422 108.607 207.569 108.46 207.863 108.46H209.002C209.233 108.46 209.399 108.569 209.495 108.786C209.508 108.831 209.553 109.055 209.636 109.458C209.885 110.725 210.013 112.708 210.013 115.401L210.026 115.407Z" fill="#10120F"/>
<path d="M219.426 120.199C219.426 120.499 219.253 120.646 218.914 120.646H217.282C217.058 120.646 216.911 120.557 216.834 120.371C216.789 120.256 216.77 120.052 216.77 119.751C216.77 118.977 216.655 118.203 216.431 117.416C216.156 116.463 215.804 115.983 215.388 115.983C214.921 115.983 214.486 116.501 214.089 117.538C213.737 118.484 213.558 119.367 213.558 120.199C213.558 120.499 213.417 120.646 213.142 120.646H211.862C211.523 120.646 211.351 120.448 211.351 120.058C211.351 118.459 212.054 116.821 213.462 115.151C213.865 114.665 214.07 114.345 214.07 114.186C214.07 113.955 213.974 113.738 213.782 113.527C212.586 112.202 211.99 110.674 211.99 108.934C211.99 108.729 212.048 108.595 212.17 108.537C212.253 108.505 212.477 108.486 212.829 108.486H214.108C214.409 108.486 214.556 108.703 214.556 109.145C214.556 109.848 214.671 110.59 214.908 111.371C215.177 112.279 215.471 112.733 215.804 112.733C216.169 112.733 216.444 112.215 216.636 111.179C216.764 110.431 216.828 109.625 216.828 108.761C216.828 108.575 216.975 108.486 217.276 108.486H218.491C218.894 108.486 219.099 108.703 219.099 109.145C219.099 111.013 218.639 112.439 217.724 113.431C217.448 113.731 217.308 114.006 217.308 114.262C217.308 114.461 217.384 114.665 217.544 114.883C217.672 115.043 217.807 115.203 217.948 115.369C218.408 116.105 218.735 116.738 218.926 117.269C219.259 118.158 219.426 119.137 219.426 120.205V120.199Z" fill="#10120F"/>
<path d="M127.997 4.47778C125.981 4.47778 123.979 4.52896 121.982 4.63131C119.992 4.73366 118.009 4.88079 116.044 5.0791C114.08 5.2774 112.128 5.52689 110.196 5.81475C109.23 5.96188 108.264 6.1218 107.304 6.28812C105.384 6.62716 103.484 7.01738 101.596 7.44597C99.7088 7.88097 97.8405 8.35434 95.9913 8.87889C90.4438 10.4461 85.0562 12.4036 79.8734 14.7321C78.1458 15.5061 76.4373 16.325 74.7609 17.1758C73.0845 18.0265 71.4209 18.9221 69.7893 19.8561C68.1576 20.79 66.5452 21.756 64.9648 22.7603C63.3843 23.7646 61.8231 24.8073 60.2938 25.8884C59.526 26.4258 58.771 26.9759 58.0223 27.5324C55.7701 29.202 53.5754 30.9484 51.451 32.7779C50.7408 33.3857 50.0434 33.9998 49.3459 34.6267C47.9574 35.8741 46.6009 37.1535 45.2764 38.4648C39.9784 43.7104 35.1859 49.4612 30.9757 55.6279C29.9199 57.1696 28.909 58.7368 27.93 60.3297C26.951 61.9225 26.0104 63.5409 25.1082 65.185C23.3038 68.4666 21.6594 71.8506 20.175 75.3177C14.2435 89.18 10.9611 104.418 10.9611 120.391C10.9611 121.529 10.9803 122.668 11.0186 123.8C11.0314 124.152 11.0442 124.51 11.057 124.862C11.089 125.655 11.1274 126.442 11.1722 127.229C11.1978 127.626 11.2234 128.016 11.249 128.413C11.3066 129.199 11.3642 129.98 11.4346 130.76C11.4665 131.112 11.4921 131.457 11.5305 131.809C11.6393 132.916 11.7609 134.023 11.9016 135.117V135.129C12.0424 136.236 12.2088 137.33 12.3815 138.43C12.4327 138.769 12.4967 139.108 12.5543 139.441C12.6823 140.209 12.8166 140.97 12.9638 141.737C13.0342 142.115 13.1046 142.492 13.1814 142.863C13.3349 143.624 13.4949 144.379 13.6612 145.134C13.7316 145.467 13.802 145.799 13.8788 146.132C14.3715 148.275 14.9218 150.392 15.5296 152.484C15.6192 152.804 15.7216 153.118 15.8176 153.437C16.0415 154.179 16.2655 154.915 16.5022 155.644C16.6174 155.996 16.7325 156.354 16.8477 156.706C17.0909 157.436 17.3404 158.158 17.6027 158.888C17.7115 159.195 17.8203 159.508 17.9355 159.815C18.3066 160.832 18.6905 161.843 19.0872 162.841C19.4903 163.852 19.9062 164.85 20.3349 165.841C20.4629 166.135 20.5973 166.43 20.7252 166.724C21.0388 167.428 21.3523 168.131 21.6786 168.829C21.8322 169.161 21.9857 169.487 22.1457 169.814C22.4784 170.505 22.8112 171.189 23.1567 171.873C23.3038 172.161 23.4446 172.456 23.5918 172.743C24.0781 173.697 24.5772 174.643 25.0954 175.577C27.9492 172.366 30.7198 170.537 31.3468 169.993C31.3852 169.961 31.4364 169.929 31.4876 169.897C30.0415 167.153 28.717 164.338 27.5141 161.459C27.4757 161.363 27.4309 161.261 27.3925 161.165C27.0406 160.321 26.7015 159.476 26.3751 158.625C26.324 158.497 26.2728 158.363 26.2216 158.235C25.8889 157.359 25.5625 156.476 25.2554 155.587C25.2298 155.516 25.2042 155.446 25.1786 155.369C24.494 153.412 23.8669 151.429 23.2974 149.42C23.2719 149.331 23.2463 149.241 23.2207 149.151C22.9775 148.281 22.7472 147.412 22.5232 146.535C22.4656 146.311 22.4081 146.081 22.3569 145.857C22.1713 145.102 21.9921 144.341 21.8258 143.58C21.7682 143.317 21.7106 143.062 21.653 142.799C21.4867 142.025 21.3267 141.245 21.1795 140.464C21.1347 140.241 21.09 140.023 21.0516 139.799C20.6804 137.803 20.3669 135.782 20.111 133.748C20.079 133.485 20.0534 133.217 20.0214 132.954C19.9318 132.212 19.855 131.477 19.7783 130.735C19.7463 130.389 19.7143 130.037 19.6823 129.686C19.6247 129.007 19.5735 128.336 19.5223 127.651C19.4967 127.287 19.4711 126.922 19.4519 126.557C19.4135 125.854 19.3815 125.144 19.3559 124.434C19.3432 124.114 19.3304 123.788 19.3176 123.468C19.2856 122.444 19.2728 121.414 19.2728 120.378C19.2856 61.0653 68.0552 12.7938 127.997 12.7938C187.938 12.7938 236.708 61.0653 236.708 120.391C236.708 130.587 235.268 140.458 232.575 149.817C232.088 151.518 231.557 153.201 230.981 154.87C230.693 155.702 230.399 156.534 230.098 157.352C229.49 158.996 228.838 160.628 228.147 162.24C226.771 165.457 225.235 168.592 223.565 171.643C222.727 173.166 221.851 174.669 220.942 176.147C219.125 179.102 217.167 181.968 215.075 184.731C195.233 210.978 163.579 227.994 127.984 227.994C126.871 227.994 125.757 227.975 124.65 227.936C124.362 227.93 124.081 227.917 123.799 227.904C122.916 227.872 122.033 227.828 121.157 227.777C120.92 227.764 120.683 227.751 120.447 227.732C118.149 227.578 115.872 227.348 113.613 227.054C110.228 229.894 107.841 232.203 106.133 234.276C106.997 234.436 107.861 234.589 108.731 234.736C108.776 234.743 108.814 234.749 108.859 234.756C109.684 234.89 110.516 235.018 111.354 235.133C111.457 235.146 111.559 235.159 111.661 235.178C112.442 235.287 113.229 235.389 114.016 235.478C114.189 235.498 114.362 235.517 114.534 235.536C115.257 235.619 115.987 235.696 116.716 235.766C116.972 235.792 117.234 235.811 117.49 235.837C118.143 235.894 118.802 235.952 119.461 235.997C119.826 236.022 120.197 236.041 120.562 236.067C121.125 236.105 121.688 236.137 122.251 236.169C122.776 236.195 123.294 236.208 123.819 236.227C124.241 236.24 124.663 236.259 125.092 236.272C126.052 236.297 127.018 236.31 127.984 236.31C192.513 236.31 245.013 184.309 245.013 120.397C245.013 56.4851 192.532 4.47778 127.997 4.47778Z" fill="#F40B00"/>
<path d="M50.0561 196.879C50.5232 196.879 50.9967 196.834 51.483 196.751C49.9602 195.261 48.4885 193.719 47.0552 192.139C46.9401 192.011 46.8249 191.883 46.7097 191.749C46.1274 191.096 45.5516 190.444 44.9821 189.779C44.8541 189.625 44.7262 189.478 44.5982 189.324C43.9391 188.544 43.2865 187.757 42.6466 186.958C42.1284 188.154 41.738 189.158 41.6421 189.478C40.3048 193.911 45.6987 196.879 50.0561 196.879Z" fill="#F40B00"/>
<path d="M70.0324 214.842C71.0178 214.413 72.2143 213.914 73.4236 213.422C70.8706 211.95 68.388 210.377 65.9757 208.714C62.8916 209.616 58.8094 210.761 55.8468 211.599C55.8596 211.605 55.8724 211.618 55.8788 211.624C56.5187 212.123 57.1649 212.616 57.8176 213.102C58.3103 213.473 58.8158 213.831 59.3148 214.189C59.4748 214.305 59.6412 214.426 59.8011 214.541C60.4026 214.97 61.0105 215.392 61.6183 215.808C61.6631 215.84 61.7079 215.872 61.7527 215.897C62.4053 216.345 63.0644 216.78 63.7234 217.215C66.7883 216.032 69.4757 215.155 70.026 214.842H70.0324Z" fill="#F40B00"/>
<path d="M74.8953 198.811C72.5534 200.98 60.8569 206.782 59.7499 207.191C47.5799 211.707 35.9922 213.46 25.9592 203.346C24.9547 202.336 23.7965 198.99 23.707 197.647C23.0351 187.789 24.6027 181.488 32.7737 172.827C34.111 172.18 44.3998 175.5 44.6814 176.486C45.238 178.437 38.0973 186.196 37.707 190.572C36.3569 205.63 59.1037 198.549 65.611 192.689C69.0598 189.587 70.6595 187.296 70.6595 185.505C70.6595 180.861 62.5845 178.789 57.2929 176.14C42.154 168.566 26.5799 159.623 38.1869 139.991C42.4931 132.705 52.0269 130.523 58.5598 136.773C60.9913 139.095 65.0031 148.659 65.0031 155.42C65.0031 156.265 57.3441 155.632 57.3441 155.209C57.3441 147.923 56.3395 141.795 51.5342 141.795C47.3496 141.795 42.9218 146.778 42.9218 152.132C42.9218 160.314 58.3743 165.668 65.8414 168.969C71.8624 171.637 83.5013 177.413 83.5013 185.582C83.5013 191.147 77.9346 196.022 74.9081 198.824L74.8953 198.811Z" fill="#F40B00"/>
<path d="M120.722 177.368C117.164 177.368 117.516 181.168 110.868 184.475C107.995 185.902 105.858 187.181 102.607 187.181C100.112 187.181 99.0178 185.595 97.4437 183.458C94.7436 179.799 90.111 169.411 90.111 162.86C90.111 159.866 90.5333 159.303 94.7947 159.303C100.675 159.303 108.283 161.626 108.283 162.681C108.283 164.197 98.4227 163.282 98.4227 166.711C98.4227 169.411 101.699 172.948 105.448 172.948C112.16 172.948 119.397 167.504 119.397 162.905C119.397 155.408 103.759 147.527 94.9355 147.527C88.5946 147.527 82.2536 151.224 82.2536 160.794C82.2536 170.364 86.9373 176.057 86.9373 180.637C86.9373 183.49 86.7198 184.437 83.4181 184.565C83.4565 184.891 83.4821 185.224 83.4821 185.563C83.4821 187.233 82.9766 188.832 82.196 190.341C84.2308 189.446 88.3706 187.725 89.0105 187.943C89.8743 188.23 93.4575 194.205 94.8331 195.03C104.252 200.698 118.681 190.943 128.342 189.471C128.342 189.471 124.343 177.356 120.715 177.356L120.722 177.368Z" fill="#04821E"/>
<path d="M163.413 176.032C163.125 172.507 159.74 172.846 158.332 171.349C154.832 167.613 151.607 148.947 147.979 142.051C140.877 128.56 128.707 138.353 125.61 148.748C125.834 149.798 137.115 152.337 137.787 151.691C138.433 151.064 137.985 144.814 138.9 143.88C139.45 143.324 141.511 143.688 142.118 144.213C142.547 144.578 146.655 153.13 147.077 154.301C147.66 155.919 150.149 162.419 147.237 162.489C142.106 162.611 137.351 152.932 127.856 157.442C120.67 160.858 121.074 171.432 122.456 177.951C122.475 178.047 122.5 178.155 122.52 178.258C124.292 179.889 125.975 183.433 127.069 186.113C128.925 187.546 131.522 188.55 135.182 188.55C142.931 188.55 150.987 186.363 153.777 175.008C156.522 175.008 161.711 179.492 163.797 180.305C163.918 178.494 163.432 176.447 163.4 176.025L163.413 176.032ZM140.775 182.179C130.3 188.403 125.834 172.328 130.78 166.75C135.969 160.896 148.517 167.133 148.517 171.662C148.517 174.573 144 180.26 140.775 182.179Z" fill="#F40B00"/>
<path d="M206.974 174.515C205.214 173.556 199.91 173.94 199.648 173.671C198.605 172.603 199.398 154.115 199.155 150.923C198.854 146.932 197.843 141.072 195.105 138.072C188.117 130.415 174.482 138.468 172.16 146.605C171.686 148.262 172.012 157.122 169.92 153.744C168.96 152.19 167.841 145.153 166.785 144.872C166.158 144.705 159.375 147.277 158.934 148.134C158.102 149.765 164.596 164.376 164.596 170.856C164.596 172.82 163.528 173.172 162.978 174.483C163.195 174.899 163.355 175.404 163.406 176.031C163.438 176.447 163.931 178.501 163.803 180.311C164.219 180.432 173.746 179.722 174.034 179.447C174.86 178.661 169.952 164.088 174.073 157.653C175.276 155.772 179.358 151.915 182 151.915C183.619 151.915 184.957 153.041 184.957 155.753C184.957 160.992 183.056 166.916 183.056 173.396C183.056 175.82 196.672 178.59 199.014 178.884C197.952 181.514 196.084 183.477 195.054 183.477C193.256 183.477 190.235 182.799 181.834 182.799C161.333 182.799 138.151 189.785 115.347 199.201C100.035 205.521 60.0059 223.043 50.1073 234.455C47.8422 237.065 45.7755 238.638 50.3505 239.457C56.5955 240.577 63.0708 240.238 69.7317 241.831C81.8761 244.735 93.0223 252.449 95.9337 250.479C96.4264 250.147 99.5297 240.621 100.374 238.856C111.629 215.245 131.682 205.566 156.099 198.357C164.008 196.022 208.247 186.535 210.96 182.025C212.08 180.164 208.49 175.347 206.98 174.528L206.974 174.515Z" fill="#04821E"/>
</svg>
