<svg width="256" height="256" viewBox="0 0 256 256" fill="none" xmlns="http://www.w3.org/2000/svg">
<path d="M86.7053 48.7844H153.009V70.3541H136.566L136.389 149.209H103.857L103.68 69.8683L86.7053 69.9996V48.7844Z" fill="#36A9E1"/>
<path d="M190.95 117.32C195.328 113.966 197.468 108.826 197.468 101.744V98.9472C197.468 85.0051 189.434 78.2244 172.905 78.2244H147.942V161.949H173.844C190.031 161.949 198.938 154.394 198.938 140.669V134.295C198.938 126.425 196.254 120.74 190.943 117.32H190.95ZM170.175 126.713H172.892C176.745 126.713 177.684 128.046 177.684 133.507V140.327C177.684 144.259 176.936 145.336 174.211 145.336H170.175V126.713ZM176.594 104.54C176.594 108.754 175.551 110.106 172.308 110.106H170.175V94.8381H173.24C175.511 94.8381 176.588 95.6389 176.588 100.181V104.546L176.594 104.54Z" fill="#36A9E1"/>
<path d="M255.252 124.633V110.52C255.252 96.2822 246.252 88.123 230.558 88.123C214.863 88.123 205.864 96.2888 205.864 110.52V151.237C205.864 165.474 214.863 173.634 230.558 173.634C246.252 173.634 255.252 165.468 255.252 151.237V138.594L235.888 138.686V152.025C235.888 155.681 234.647 156.921 230.958 156.921C227.269 156.921 226.028 155.687 226.028 152.025V109.745C226.028 106.05 227.315 104.737 230.958 104.737C234.601 104.737 235.888 106.05 235.888 109.745L235.842 124.672L255.252 124.646V124.633Z" fill="#36A9E1"/>
<path d="M130.79 97.3522C116.02 81.6246 95.6652 73.4392 74.3121 76.6425C62.3917 78.3163 50.8783 83.0818 41.7411 90.9719C23.1187 106.522 14.0602 133.218 22.4754 156.528C25.1798 164.444 29.6959 171.881 35.4986 178.55C27.8842 173.739 21.5696 166.859 17.2044 158.891C-2.13996 123.727 21.7402 78.5001 59.3197 68.7327C87.0399 60.9149 117.235 71.2993 130.79 97.3522Z" fill="#1D71B8"/>
<path d="M44.616 180.552C47.6289 181.609 52.0334 182.843 57.462 183.289C62.2931 183.683 75.2179 184.747 87.3614 176.555C97.7262 169.564 103.844 154.978 103.857 149.215H136.389C135.555 153.889 132.01 161.116 129.26 164.765C125.683 169.511 118.692 178.616 106.942 185.613C102.032 188.534 91.0177 194.908 75.5658 195.085C57.9805 195.289 45.2659 187.346 40.4019 183.926L44.616 180.559V180.552Z" fill="#1A8E74"/>
<path d="M62.7068 43.323C64.8204 51.3246 67.0851 59.0637 68.26 72.1394C71.7062 110.415 62.7396 139.94 59.2541 150.259C49.3488 179.587 34.2055 200.376 23.6832 212.624C23.4403 212.073 23.0596 211.239 22.5673 210.235C20.3552 205.712 17.4079 199.7 11.7497 194.763C10.5025 193.674 8.61859 192.203 6.05859 190.779C6.77408 190.07 7.83747 189 9.09777 187.694C18.1037 178.34 41.6885 153.305 54.2982 113.736C55.716 109.286 61.1248 91.6807 62.6543 67.9121C63.1663 59.9761 62.7134 43.323 62.7134 43.323L62.7068 43.323Z" fill="#F3C53E"/>
<path d="M1.31274 136.743V117.373C2.44833 116.867 4.10905 116.145 6.12423 115.305C10.8963 113.316 23.204 108.373 38.5378 104.5C46.6247 102.459 64.21 98.1333 87.7357 97.6869C99.0325 97.4703 113.789 98.1136 130.79 101.343C126.667 101.277 120.963 101.264 114.169 101.507C109.062 101.691 95.954 102.17 83.2524 104.166C58.729 108.019 40.2379 116.808 25.5737 123.779C16.804 127.947 1.31931 136.743 1.31931 136.743H1.31274Z" fill="#DC592B"/>
</svg>
