<svg width="256" height="256" viewBox="0 0 256 256" fill="none" xmlns="http://www.w3.org/2000/svg">
<path d="M2.77527 158.39L3.21815 158.138C18.4861 155.83 33.7732 153.61 49.1453 152.049L40.8053 147.799C28.4361 140.993 16.1745 133.076 6.33218 122.875C4.23242 120.699 2.34455 118.3 0.173588 116.186C0.170114 116.035 2.43139 115.276 2.78222 115.151C25.2213 107.171 47.841 99.6749 70.2974 91.7465C73.3281 75.862 83.0592 62.02 96.5574 53.3153C93.3201 50.3593 94.3986 44.852 98.3828 43.1534C99.0775 42.8565 100.364 42.7557 100.722 42.5404C101.215 42.2451 102.473 39.8848 102.469 39.2457C102.468 38.6951 102.033 37.9466 101.964 37.3179C101.5 33.1184 105.132 29.848 109.239 30.3031C108.751 25.9334 112.037 22.6561 116.426 23.2014C117.15 23.2917 117.789 23.8058 118.444 23.6287C118.894 23.5071 121.167 22.2288 121.409 21.8936C121.65 21.5584 121.803 19.8877 122.232 19.0696C124.721 14.3317 131.856 14.8614 133.582 19.9398C133.79 20.5528 133.78 21.1954 133.936 21.6696C134.108 22.1871 136.566 23.5957 137.153 23.6721C137.597 23.7294 138.474 23.2709 139.041 23.2032C143.455 22.6734 146.656 25.9472 146.229 30.3065C150.013 29.8671 153.572 32.7432 153.53 36.6371C153.52 37.5107 152.936 38.6153 152.994 39.4229C153.032 39.9613 154.326 42.3285 154.746 42.5473C155.219 42.7922 156.401 42.8669 157.091 43.1552C160.448 44.555 161.714 48.6573 160.047 51.8512C159.847 52.2333 158.81 53.4369 158.911 53.5775C160.083 54.0586 161.23 54.9357 162.265 55.6964C174.047 64.3368 182.241 77.1611 185.131 91.5329L253.306 115.233L255.646 116.192C253.733 118.201 251.936 120.362 250.006 122.359C238.075 134.723 223.22 143.865 207.888 151.448C209.303 151.448 210.722 151.318 212.15 151.353C225.893 151.689 240.353 156.563 248.596 168.052C251.783 172.494 253.621 177.5 255.976 182.392L255.562 182.795C249.603 183.781 243.697 184.989 237.934 186.791L254.767 197.325C252.747 202.775 250.253 208.218 245.657 211.968C239.037 217.371 229.877 218.237 221.607 218.223V220.483L234.209 221.692L232.027 230.12V239.933C224.86 239.224 217.734 238.12 210.576 237.33C148.546 230.482 85.5897 231.4 23.7885 240.107V182.967L2.77353 186.788V158.392L2.77527 158.39Z" fill="white"/>
<path d="M2.77527 158.39L3.21815 158.138C18.4861 155.83 33.7732 153.61 49.1453 152.049L40.8053 147.799C28.4361 140.993 16.1745 133.076 6.33218 122.875C4.23242 120.699 2.34455 118.3 0.173588 116.186C0.170114 116.035 2.43139 115.276 2.78222 115.151C25.2213 107.171 47.841 99.6749 70.2974 91.7465C73.3281 75.862 83.0592 62.02 96.5574 53.3153C93.3201 50.3593 94.3986 44.852 98.3828 43.1534C99.0775 42.8565 100.364 42.7557 100.722 42.5404C101.215 42.2451 102.473 39.8848 102.469 39.2457C102.468 38.6951 102.033 37.9466 101.964 37.3179C101.5 33.1184 105.132 29.848 109.239 30.3031C108.751 25.9334 112.037 22.6561 116.426 23.2014C117.15 23.2917 117.789 23.8058 118.444 23.6287C118.894 23.5071 121.167 22.2288 121.409 21.8936C121.65 21.5584 121.803 19.8877 122.232 19.0696C124.721 14.3317 131.856 14.8614 133.582 19.9398C133.79 20.5528 133.78 21.1954 133.936 21.6696C134.108 22.1871 136.566 23.5957 137.153 23.6721C137.597 23.7294 138.474 23.2709 139.041 23.2032C143.455 22.6734 146.656 25.9472 146.229 30.3065C150.013 29.8671 153.572 32.7432 153.53 36.6371C153.52 37.5107 152.936 38.6153 152.994 39.4229C153.032 39.9613 154.326 42.3285 154.746 42.5473C155.219 42.7922 156.401 42.8669 157.091 43.1552C160.448 44.555 161.714 48.6573 160.047 51.8512C159.847 52.2333 158.81 53.4369 158.911 53.5775C160.083 54.0586 161.23 54.9357 162.265 55.6964C174.047 64.3368 182.241 77.1611 185.131 91.5329L253.306 115.233L255.646 116.192C253.733 118.201 251.936 120.362 250.006 122.359C238.075 134.723 223.22 143.865 207.888 151.448C209.303 151.448 210.722 151.318 212.15 151.353C225.893 151.689 240.353 156.563 248.596 168.052C251.783 172.494 253.621 177.5 255.976 182.392L255.562 182.795C249.603 183.781 243.697 184.989 237.934 186.791L254.767 197.325C252.747 202.775 250.253 208.218 245.657 211.968C239.037 217.371 229.877 218.237 221.607 218.223V220.483L234.209 221.692L232.027 230.12V239.933C224.86 239.224 217.734 238.12 210.576 237.33C148.546 230.482 85.5897 231.4 23.7885 240.107V182.967L2.77353 186.788V158.392L2.77527 158.39ZM6.76984 161.863V181.489C6.76984 181.525 6.50933 181.685 6.59617 181.748C10.5369 181.336 14.4498 180.376 18.3697 179.716C21.4994 179.189 24.6516 178.773 27.7848 178.276V235.416L55.6304 232.26C56.148 232.083 56.6655 229.433 56.9868 228.84L60.4083 228.672L61.5789 231.77C66.1327 231.336 70.7177 230.864 75.2872 230.554C109.029 228.267 142.978 228.163 176.718 230.393C176.932 230.369 177.076 230.396 177.234 230.205C177.55 229.827 178.134 227.284 178.295 227.241L181.819 227.442C182.038 228.088 182.533 230.403 182.977 230.711C185.812 231.161 188.766 231.171 191.646 231.421C203.803 232.477 215.931 233.896 228.033 235.414V229.596L229.075 225.167L217.737 224.127C217.616 224.102 217.438 223.738 217.438 223.691V213.878C222.857 214.328 228.29 214.293 233.623 213.129C241.696 211.368 246.904 206.801 249.716 199.025L230.723 186.96C230.381 186.897 230.511 187.014 230.428 187.179C228.95 190.107 228.868 193.012 225.117 194.204C220.754 195.59 212.464 194.272 209.163 190.894C204.605 186.23 204.942 175.575 212.655 174.969C219.712 174.415 228.128 178.007 230.311 185.2C230.607 185.385 234.712 183.719 235.409 183.483C240.28 181.836 245.162 180.45 250.262 179.664C246.903 170.851 240.925 163.829 232.317 159.835C223.217 155.613 208.796 153.831 199.286 157.258C190.043 160.587 185.074 168.84 184.094 178.365C184.075 178.554 184.243 180.541 183.747 180.013L176.11 159.178C196.503 153.202 216.704 144.03 233.75 131.281C239.049 127.317 244.273 122.909 248.527 117.838L181.666 94.6452C181.35 94.3864 181.043 91.7622 180.883 91.0866C177.003 74.6949 166.355 60.7191 150.922 53.746C150.807 53.6001 151.549 52.7092 151.7 52.5303C152.002 52.1742 153.244 50.8855 153.607 50.8682C153.906 50.8543 154.262 51.094 154.628 51.0835C156.888 51.021 157.652 47.7976 155.444 46.8805C154.208 46.3682 153.895 47.1949 153.095 46.627C151.285 45.3435 148.516 40.6855 148.568 38.4728C148.577 38.1168 149.043 37.9032 149.222 37.5454C150.154 35.6801 148.141 33.6342 146.285 34.6085C144.675 35.4526 145.375 36.5433 144.857 37.3474C144.65 37.667 142.624 39.039 142.155 39.3343C139.65 40.92 136.658 42.2989 133.728 42.8026C134.393 39.9265 135.574 37.1633 137.128 34.6554C137.504 34.051 138.858 31.96 139.362 31.6786C140.124 31.2513 140.777 31.7811 141.635 30.8258C143.162 29.1238 141.63 26.7045 139.409 27.2116C138.839 27.3419 138.452 28.0418 137.858 28.0123C135.751 27.9063 131.154 25.3116 130.002 23.5175C129.546 22.8072 129.952 22.5953 129.916 21.8832C129.785 19.2503 125.9 19.2259 125.574 21.5428C125.49 22.1316 125.737 22.5432 125.72 22.9287C125.681 23.7832 122.916 25.8222 122.144 26.272C121.256 26.7878 117.888 28.3405 117.06 27.9602C116.765 27.8247 116.607 27.3384 116.063 27.2134C113.316 26.5812 112.145 30.2249 114.403 31.3052C114.959 31.5709 115.433 31.4163 115.889 31.5553C116.546 31.755 118.675 35.2008 119.104 35.9823C120.287 38.1359 121.131 40.4284 121.744 42.8061C118.805 42.3007 115.825 40.9356 113.317 39.3378C112.805 39.0112 110.658 37.5489 110.445 37.1737C109.976 36.3453 110.648 35.3293 109.189 34.6085C108.128 34.0858 107.049 34.4071 106.386 35.3519C105.16 37.0973 106.883 37.5836 106.792 38.874C106.632 41.1892 104.432 44.9128 102.641 46.3699C101.512 47.2887 101.832 46.6339 100.814 46.6252C98.2629 46.6044 97.7905 50.8126 100.719 51.0679C101.219 51.1113 101.613 50.7796 102.039 50.955C102.513 51.1495 104.512 53.1225 104.364 53.6401C101.476 55.158 98.6363 56.7437 95.9825 58.6454C84.2125 67.0844 75.9819 80.2804 73.9551 94.7129L7.88659 117.65L7.46455 117.925C14.3891 126.003 23.3161 132.59 32.3143 138.228C39.5913 142.787 47.4138 146.891 55.2813 150.343C58.3797 151.703 61.9453 152.825 64.9135 154.258C65.1201 154.357 65.4275 154.35 65.4727 154.652C45.908 156.073 26.4422 158.703 7.05815 161.629L6.76984 161.862V161.863Z" fill="#072059"/>
<path d="M165.511 218.571C165.228 218.828 165.537 218.878 165.773 218.913C168.472 219.305 170.379 219.952 170.028 223.173C169.709 226.107 167.015 226.596 164.562 226.912L151.606 226.482L151.516 210.047C152.068 209.977 153.989 210.002 154.491 210.017C157.826 210.12 165.309 209.863 167.824 211.825C170.061 213.572 169.396 216.841 167.017 218.078C166.69 218.248 165.568 218.517 165.511 218.571ZM163.553 214.965C162.814 214.142 158.058 214.482 156.827 214.399C156.94 215.016 156.827 216.063 156.926 216.483C158.3 216.454 163.197 217.037 163.692 215.957C163.833 215.65 163.786 215.221 163.555 214.965H163.553ZM164.083 221.035C163.574 220.153 159.324 220.344 158.296 220.313C157.734 220.297 156.827 220.191 156.827 220.566C156.827 220.832 156.766 222.041 156.82 222.274C156.869 222.482 157.412 222.545 157.607 222.564C158.772 222.668 161.513 222.807 162.623 222.715C162.935 222.689 163.781 222.548 163.965 222.32C164.149 222.093 164.222 221.277 164.083 221.035Z" fill="#072059"/>
<path d="M43.9369 222.562C45.2291 222.564 46.4587 222.388 47.572 223.184C49.1507 224.311 48.7599 226.279 48.0235 227.781C47.0648 229.738 44.6716 230.337 42.7212 230.815C39.4474 231.617 36.4167 231.56 32.9293 232.031C32.3405 232.111 30.9337 232.303 30.041 232.463L30.2043 215.868C33.7768 215.613 37.5039 214.758 41.0608 214.569C42.0334 214.517 43.6052 214.474 44.5431 214.576C48.1434 214.967 48.6818 218.908 46.193 221.093C45.4774 221.721 44.5726 221.904 43.9334 222.565L43.9369 222.562ZM35.4267 221.521C36.8735 221.2 41.1251 221.315 42.0282 220.221C42.3808 219.793 42.5649 219.34 42.0195 219.008C41.2866 218.633 35.6595 219.203 35.4458 219.455C35.3156 219.608 35.4997 221.148 35.4267 221.521ZM42.4954 226.334C43.7007 224.873 41.4603 224.604 40.552 224.649C39.9788 224.677 35.4841 225.196 35.4163 225.448L35.4267 227.6C36.7154 227.227 41.7746 227.209 42.4954 226.334Z" fill="#072059"/>
<path d="M87.007 216.659C85.0115 215.971 82.9864 215.222 80.8502 215.089C79.921 215.031 75.5478 215.139 75.5409 216.398C75.5391 216.843 76.4683 217.28 76.8608 217.341C79.7334 217.786 86.8785 216.273 88.4329 219.663C89.0373 220.98 88.8046 223.298 88.023 224.531C86.0136 227.706 79.8828 228.066 76.4944 227.953C75.7979 227.93 72.4911 227.367 71.7234 227.166C71.0166 226.982 70.334 226.735 69.6411 226.555C69.4361 226.32 70.5998 224.681 70.7786 224.307C70.9575 223.934 71.6696 221.89 71.8381 221.855C73.2813 222.274 74.7037 222.814 76.2026 223.038C77.9116 223.291 80.1398 223.342 81.8019 222.828C83.464 222.313 83.2903 221.139 81.6717 220.868C78.9727 220.419 71.4716 221.924 70.2072 218.786C69.1565 216.177 70.7561 213.558 73.0017 212.287C76.807 210.132 82.6408 210.3 86.7014 211.672C87.1164 211.813 88.3878 212.155 88.3982 212.565C88.4208 213.428 86.9584 215.57 87.0105 216.659H87.007Z" fill="#072059"/>
<path d="M129.212 209.538V213.706H117.142C116.718 213.706 116.925 215.573 116.88 215.966L127.649 215.79V219.611H116.881V222.043L129.386 221.695C129.225 223.14 129.166 224.582 129.212 226.039L111.496 226.213V209.712L129.212 209.54V209.538Z" fill="#072059"/>
<path d="M96.3874 216.659C98.6035 214.661 100.434 212.291 102.294 209.974L109.589 209.8L102.643 217.088L109.587 226.383L102.468 226.47L98.9057 220.829C98.4698 221.49 96.7434 222.675 96.4777 223.26C96.1564 223.967 96.6618 226.343 96.2207 226.65C95.5016 227.154 92.5977 226.864 91.5991 226.888C91.2309 226.897 90.6838 226.945 90.6838 226.945L90.6543 210.403C92.3251 210.363 94.2529 210.229 95.7882 210.22C95.9636 210.22 96.3874 210.3 96.3874 210.49V216.655V216.659Z" fill="#072059"/>
<path d="M190.694 228.641L184.806 228.276C184.501 227.136 184.209 225.91 183.575 224.905C181.215 224.736 178.851 224.465 176.48 224.502L175.305 227.609L169.679 227.249L175.959 211.129L184.36 211.789L190.694 228.639V228.641ZM180.272 215.095L179.884 215.318L177.842 221L182.356 221.174L180.27 215.095H180.272Z" fill="#072059"/>
<path d="M63.0414 212.315L69.1201 228.467L63.4981 228.792C62.9597 228.606 62.6089 225.733 61.9142 225.683L54.9011 226.407C54.6927 227.011 54.1144 229.551 53.6645 229.773L48.2788 230.204L54.3905 213.218L63.0396 212.315H63.0414ZM60.7783 222.206L58.5292 216.311L56.2732 222.65L60.7783 222.204V222.206Z" fill="#072059"/>
<path d="M150.227 209.885V214.748L143.28 214.401V226.211H137.549V214.401H130.602V209.538L150.227 209.885Z" fill="#072059"/>
<path d="M197.12 224.648L207.89 225.516C207.73 227.077 207.647 228.908 207.543 230.205L191.562 228.816V212.315C192.726 212.325 193.968 212.364 195.123 212.49C195.495 212.532 197.12 212.688 197.12 212.925V224.648Z" fill="#072059"/>
<path d="M214.834 214.576L214.91 226.397L225.777 227.602C225.61 228.88 225.351 231.548 225.272 232.468L209.352 230.391L209.276 214.053L214.834 214.576Z" fill="#072059"/>
<path d="M126.855 163.439C134.6 174.104 132.919 193.228 121.555 200.924C112.122 207.313 90.3468 208.221 80.3552 202.903C65.148 194.812 66.5079 168.799 79.9036 159.446C91.6737 151.228 117.703 150.832 126.855 163.437V163.439ZM89.3378 189.668C94.0687 193.494 106.749 192.849 111.405 189.039C116.117 185.183 116.315 174.474 111.655 170.563C106.912 166.581 93.8881 167.098 89.3534 171.331C84.9976 175.398 84.6016 185.84 89.336 189.668H89.3378Z" fill="#0D88D6"/>
<path d="M171.895 156.087L191.389 207.626L173.43 206.431C172.974 205.29 170.262 196.526 169.738 196.366C169.484 196.288 168.234 196.18 167.862 196.158C162.801 195.85 157.638 195.618 152.579 195.463C150.939 195.413 149.284 195.494 147.646 195.494L144.299 205.173L126.954 205.019L146.224 155.083L171.895 156.087ZM165.858 185.221L158.824 166.122L151.79 184.7L165.856 185.221H165.858Z" fill="#0D88D6"/>
<path d="M241.481 170.04C243.448 172.29 245.34 174.91 246.272 177.753C241.276 178.401 236.612 180.43 231.802 181.76C228.604 175.372 219.743 171.624 212.841 172.199C201.632 173.132 200.812 188.068 208.598 193.978C213.751 197.89 226.659 199.611 230.713 193.195L231.934 191.135L246.264 199.998C244.332 205.054 240.176 208.517 235.02 210.005C223.024 213.468 201.604 210.776 192.959 200.932C182.96 189.55 184.205 165.645 199.984 159.858C212.76 155.172 232.436 159.696 241.482 170.037L241.481 170.04Z" fill="#0D88D6"/>
<path d="M68.9463 157.087V171.503L47.8324 173.227L47.756 209.362L30.5654 211.45L30.3883 175.152L9.41675 178.366L9.67032 164.029C21.0236 162.263 32.4237 160.62 43.8517 159.347C50.8752 158.564 57.996 157.791 65.0403 157.263C66.3325 157.166 67.6507 157.107 68.9463 157.087Z" fill="#0D88D6"/>
<path d="M118.878 111.588C120.136 113.003 120.002 113.482 118.88 114.886C115.247 119.433 109.873 117.795 105.155 118.354C101.466 118.79 105.358 124.662 101.337 125.131C98.6434 125.445 96.5627 124.386 96.2327 121.551C94.819 109.432 110.585 115.883 117.173 113.005C117.963 112.659 118.429 112.343 118.878 111.588Z" fill="#0D88D6"/>
<path d="M121.744 54.9672C121.023 57.5463 120.113 59.9969 118.759 62.3137C118.357 62.9997 116.605 65.7369 116.114 66.0947C115.718 66.383 115.122 66.1937 114.616 66.3343C112.018 67.062 113.203 72.156 116.843 70.1327C117.13 69.9729 116.912 69.6846 117.458 69.7349C119.785 69.9538 123.887 72.1925 125.287 74.0855C125.932 74.9574 125.525 74.8358 125.548 75.7199C125.624 78.6046 129.65 78.6185 129.897 76.0481C129.947 75.5305 129.737 75.1728 129.751 74.841C129.827 72.9671 136.246 69.7766 138.018 69.7697C138.407 69.7697 138.923 70.4487 139.409 70.5599C142.413 71.239 143.226 67.0725 140.859 66.3309C140.366 66.1763 139.82 66.3934 139.36 66.0947C138.9 65.7959 137.267 63.2898 136.889 62.6611C135.444 60.2713 134.445 57.6661 133.73 54.9672C133.81 54.9047 135.01 55.1982 135.255 55.2642C137.474 55.8477 140.121 57.1312 142.05 58.3678C142.618 58.7308 144.437 59.9118 144.772 60.3355C145.17 60.8375 144.987 61.7076 145.46 62.4266C146.884 64.5854 150.505 63.0831 149.064 59.8718C148.853 59.4029 148.529 59.8284 148.711 58.571C148.787 58.0465 149.216 56.1378 149.836 56.2975C150.618 56.5007 152.832 57.7651 153.645 58.2358C158.555 61.0841 163.326 65.0474 166.89 69.4449C160.78 76.656 152.636 81.9774 143.683 84.9907L139.721 78.589C138.292 81.373 137.549 84.5149 135.727 87.0922C132.972 83.5301 128.915 81.479 125.305 78.9329L126.086 87.4413C111.768 87.0123 97.6135 80.4022 88.5823 69.3164C93.242 63.8073 99.1106 59.4255 105.589 56.2506C106.257 56.0301 106.829 58.5918 106.817 59.0538C106.801 59.6391 106.091 60.1271 105.976 60.827C105.674 62.6541 107.645 64.0244 109.304 63.1039C110.611 62.378 110.108 61.0702 110.702 60.3338C111.138 59.7937 113.248 58.4303 113.944 58.0187C116.266 56.6414 119.085 55.4257 121.746 54.9672H121.744Z" fill="#0D88D6"/>
<path d="M89.6139 101.511C89.2475 100.827 89.6 100.283 89.6139 99.6856C89.6313 98.8902 89.5514 98.0357 89.6174 97.2576C89.8571 94.3694 90.7081 91.5923 91.5261 88.8343L76.939 93.6955C78.2224 87.0593 80.6574 80.6159 84.3341 74.954C84.6641 74.4451 86.3488 71.7983 86.7535 71.8018C87.08 71.8052 90.6768 75.8137 91.3507 76.4181C100.707 84.7963 113.145 89.8399 125.742 90.222L125.204 93.6781C121.612 94.022 117.548 91.9657 114.187 93.8657C112.293 94.9355 111.384 96.8113 110.815 98.8329C106.884 98.2806 102.601 96.846 98.9421 99.116C98.3065 99.1316 96.4811 101.513 96.3022 101.513H89.6157L89.6139 101.511Z" fill="#0D88D6"/>
<path d="M157.608 101.511C155.316 96.9779 151.535 92.8461 146.874 90.7099C146.405 90.4945 144.425 89.9613 144.34 89.8571C144.277 89.7824 144.116 88.0005 144.136 87.905C144.208 87.5906 149.295 85.8764 150.116 85.5065C157.211 82.3143 163.625 77.4826 168.724 71.6401C173.589 77.9411 177.06 85.5742 178.361 93.52L164.295 88.8324C165.349 91.9881 166.244 95.4652 166.386 98.8102C166.404 99.2374 166.499 101.509 166.119 101.509H157.608V101.511Z" fill="#0D88D6"/>
<path d="M166.206 104.29C165.506 111.688 163.006 118.908 158.981 125.121L155.597 123.115C156.146 121.39 156.907 119.742 157.435 118.01C158.826 113.443 159.248 109.043 158.564 104.29H166.206Z" fill="#0D88D6"/>
<path d="M94.9979 104.29L94.7235 106.548C95.0691 107.503 98.4003 111.589 98.3065 112.183C95.7569 113.429 93.777 115.789 93.6068 118.705C93.0388 118.16 92.7297 117.086 92.4362 116.317C91.0051 112.564 89.9057 108.319 89.7876 104.29H94.9979Z" fill="#0D88D6"/>
<path d="M150.34 136.012C150.062 136.281 149.651 136.5 149.361 136.767C149.328 136.441 149.467 136.149 149.573 135.852C150.549 133.146 152.426 129.647 153.725 126.979C153.873 126.677 154.022 126.338 154.184 126.048C154.272 125.89 154.116 125.76 154.453 125.85C155.021 126.003 157.27 127.319 157.108 127.912C156.947 128.504 154.288 131.649 153.697 132.333C152.77 133.407 151.325 135.055 150.342 136.012H150.34Z" fill="#0D88D6"/>
<path d="M188.436 108.632C200.764 114.243 213.001 120.244 225.198 126.143C227.369 127.194 229.535 128.28 231.678 129.386L221.942 135.815L185.484 115.754L218.135 138.329L208.18 143.504L182.012 125.654L204.237 145.364L193.594 149.941L176.105 135.553L189.742 151.531L180.275 154.753L170.459 141.46L176.411 155.13C177.107 156.322 175.801 156.382 174.893 156.565C174.775 156.459 174.151 154.013 173.861 153.553C173.776 153.419 173.675 153.378 173.523 153.369L144.347 152.247L134.162 178.274C134.117 169.422 130.284 160.552 122.67 155.728C112.263 149.133 93.3932 149.915 82.4307 154.854C81.6248 155.217 78.7174 157.35 79.4087 155.305C80.779 151.261 83.3511 147.158 84.7892 143.145C84.8882 142.867 84.9733 142.629 84.9229 142.325L75.6885 154.8L66.1675 151.702L79.5407 135.727L62.2216 149.942L51.7523 145.536L74.2453 125.134L47.6414 143.504L37.6862 138.327L71.2042 115.231L33.8775 135.817L24.2228 129.473L68.6008 107.937L67.7845 108.074L20.7093 126.486C20.4609 126.555 20.2907 126.423 20.0858 126.321C19.464 126.01 17.6717 124.391 17.0169 123.828C16.3986 123.299 12.1696 119.474 12.1592 119.137L87.5298 92.8252C83.966 112.616 94.4161 130.928 109.509 142.837C110.163 143.353 112.426 145.236 113.012 145.416C113.14 145.456 113.269 145.479 113.401 145.442C115.586 141.37 117.991 137.106 120.633 133.308C122.83 130.15 125.301 127.427 128.08 124.777C130.3 122.661 133.238 120.987 134.2 117.871C134.864 115.721 134.938 112.044 131.687 113.442C131.352 113.587 130.965 113.752 130.597 113.917C129.938 114.213 129.313 114.906 128.519 114.88C128.467 113.974 128.116 112.755 127.731 111.926C127.609 111.667 127.759 111.497 127.305 111.581C127.609 114.5 127.512 117.493 127.389 120.435C124.075 123.835 120.629 127.107 117.31 130.503C116.972 130.848 116.654 131.329 116.187 131.81C115.188 132.839 114.16 133.837 113.145 134.85L108.639 130.508L108.375 126.517H112.369L112.194 122.694C112.871 122.474 115.863 123.071 116.115 122.696C116.22 122.573 116.015 122.477 116.015 122.434V118.873L119.837 119.049L119.742 115.219L122.441 115.226L118.618 109.149C118.359 108.972 115.886 111.318 115.408 111.577C115.021 111.179 113.59 108.552 113.302 108.465C112.887 108.34 110.726 110.384 110.198 110.693C109.63 110.339 108.293 107.504 107.789 107.596C107.402 107.668 105.292 109.939 104.833 109.83L102.73 106.714L99.6056 109.146C99.1749 108.335 97.4277 106.403 97.445 105.61C97.4572 105.087 97.9192 104.043 98.1919 103.565C101.233 98.2248 108.17 101.486 112.892 101.855C113.722 97.8965 114.01 95.5206 118.71 95.7759C119.862 95.8385 126.708 96.8736 127.111 96.6183C128.33 92.6741 128.938 88.4416 128.526 84.3115C131.218 85.9806 134.49 88.6812 134.952 92.0141C134.978 92.2034 135.275 92.1652 135.385 92.1305C135.591 92.0645 137.695 89.0894 137.974 88.6378L140.331 84.3115C142.075 88.3912 142.24 93.1187 140.856 97.3356C141.463 96.8284 141.946 95.9305 142.273 95.1959C142.679 94.2841 143.053 93.308 143.113 92.3007C150.965 94.423 156.714 101.646 156.318 109.936C155.74 122.039 146.042 132.953 143.808 144.751C160.153 133.143 172.199 113.541 168.297 92.8217L243.375 118.906L243.669 119.136C243.768 119.551 238.273 124.318 237.5 124.947C236.837 125.487 235.772 126.59 234.978 126.444C219.559 120.237 203.869 114.53 188.44 108.453C188.193 108.355 187.88 108.227 187.316 108.024C187.526 108.156 187.92 108.39 188.44 108.626L188.436 108.632ZM118.924 99.8191C118.542 99.8695 116.774 100.382 116.619 100.639C116.315 101.144 116.668 102.57 117.236 102.82C117.592 102.977 117.828 102.789 118.144 102.687C118.616 102.532 121.869 101.115 121.918 100.899C122.138 99.9268 119.552 99.7375 118.922 99.8209L118.924 99.8191ZM74.5909 124.957V125.131C74.7038 125.074 74.7038 125.014 74.5909 124.957Z" fill="#072059"/>
<path d="M50.5366 175.497L67.3833 174.455C66.3638 181.883 66.4593 189.878 70.1969 196.564C73.4134 202.32 78.5108 205.722 84.751 207.541C85.2529 207.686 87.6809 208.141 87.799 208.312C87.9171 208.482 87.9536 209.197 87.7869 209.192C81.1142 206.884 68.8734 207.191 67.3798 215.964L64.6705 209.527L52.6138 210.663L50.3577 216.485L49.5241 214.63C48.8745 213.3 47.6171 212.971 46.5386 212.146L50.5331 211.797V175.499L50.5366 175.497Z" fill="#072059"/>
<path d="M171.44 208.991C171.645 209.119 173.29 209.159 173.672 209.191L173.236 210.75L171.765 214.052C171.447 209.119 166.563 207.98 162.47 207.627L146.408 207.02L149.557 198.271C150.849 198.254 152.153 198.211 153.447 198.24C157.484 198.334 161.902 198.513 165.943 198.77C166.313 198.794 167.92 198.977 168.033 199.112C168.757 200.22 170.997 208.713 171.442 208.989L171.44 208.991Z" fill="#072059"/>
<path d="M199.725 210.233L195.059 209.863C194.803 208.477 193.779 206.914 193.482 205.62C193.301 204.835 194.833 206.283 194.979 206.382C198.555 208.847 202.263 210.516 206.421 211.787C206.81 215.408 206.822 219.085 206.846 222.737L199.725 222.216V210.233Z" fill="#072059"/>
<path d="M114.971 206.933L118.91 205.401C120.877 204.43 122.876 203.433 124.591 202.044C124.665 201.983 125.377 200.969 125.146 201.91C124.764 203.471 123.523 205.248 123.307 206.933H114.971Z" fill="#072059"/>
<path d="M90.7186 187.245C87.4899 184.018 88.1117 175.598 91.8839 172.816C95.4686 170.17 105.9 169.702 109.502 172.371C113.39 175.252 113.215 184.155 109.472 187.104C105.9 189.918 94.0323 190.558 90.7203 187.246L90.7186 187.245Z" fill="#072059"/>
<path d="M158.909 173.76L162.037 182.442L156.047 182.269L155.62 181.991C156.665 179.382 157.398 176.563 158.548 174.003C158.64 173.799 158.466 173.691 158.909 173.76Z" fill="#072059"/>
<path d="M130.254 46.2797C133.961 46.1286 137.518 44.9407 140.857 43.4227L146.059 40.2028C146.576 43.0511 148.233 45.8681 150.222 47.9383C150.453 48.178 151.361 48.5948 151.271 48.9683C151.247 49.0638 150.064 49.9721 149.793 50.2743C147.992 52.2699 146.639 54.7656 146.059 57.3985C145.859 57.4367 145.722 57.3777 145.545 57.3065C144.692 56.9661 142.775 55.3613 141.661 54.7639C138.091 52.843 134.27 51.8374 130.256 51.3216C130.654 57.0373 132.936 62.4855 136.333 67.0359C135.406 67.4927 134.388 67.7184 133.438 68.137C131.663 68.9185 129.697 70.3392 128.335 71.7217C128.082 71.9805 128.054 72.3869 127.741 72.3435C126.522 71.3309 125.539 70.2124 124.162 69.3093C122.545 68.2499 120.917 67.7306 119.139 67.0341C122.538 62.4578 124.754 57.046 125.216 51.3198C120.975 51.8652 116.848 52.9976 113.118 55.1112C112.612 55.3978 109.621 57.5479 109.415 57.3985C108.758 54.7708 107.352 52.091 105.509 50.1006C105.214 49.7811 104.154 49.1732 104.215 48.8258C104.248 48.6365 105.969 47.0839 106.28 46.7122C107.808 44.8851 108.908 42.5318 109.413 40.2045L113.811 43.0129C117.354 44.7826 121.223 46.1113 125.216 46.2815C124.78 42.0455 123.556 38.011 121.487 34.2943C120.758 32.9848 119.757 31.8072 119.139 30.4786C122.541 29.9749 125.473 27.7623 127.734 25.27C129.217 27.0381 131.204 28.6064 133.316 29.5842C134.299 30.0392 135.36 30.2684 136.33 30.7408C132.95 35.2391 130.685 40.6213 130.251 46.2815L130.254 46.2797Z" fill="#072059"/>
<path d="M76.7618 158.305L71.5532 164.033V156.74C71.7564 156.559 76.0619 158.22 76.7618 158.303V158.305Z" fill="#072059"/>
</svg>
