<svg width="256" height="256" viewBox="0 0 256 256" fill="none" xmlns="http://www.w3.org/2000/svg">
<path d="M62.3562 255C58.1566 254.733 59.011 249.946 59.855 244.308C60.6064 239.419 62.3768 229.445 64.1987 221.941C53.7306 221.552 47.0297 218.835 38.8364 214.069C36.0676 212.582 37.4674 208.113 40.5451 208.492C49.7883 209.363 57.3435 209.199 67.7498 207.57C69.4585 201.163 71.3216 194.766 73.2875 188.606C72.4332 188.083 71.7024 187.621 70.9819 187.16H70.9201C59.9168 179.964 50.6426 170.072 44.5697 158.427V158.232C38.3218 146.885 35.6352 133.938 35.8102 121.104C32.9076 117.598 33.4016 112.258 36.7984 110.218C36.9013 108.475 37.7042 106.763 37.5909 105.031C34.328 60.3373 100.606 16.5048 144.506 4.31664C153.276 2.5125 160.491 -0.583242 161.037 6.01827C160.903 7.19712 160.11 8.25295 158.999 8.77574C150.105 12.9068 122.376 27.6065 95.8913 47.5443C115.376 43.1364 136.014 46.5294 152.936 57.057H153.07C153.79 57.5798 154.583 58.1026 155.314 58.5639H155.447C164.001 64.5298 171.68 71.8592 177.32 80.6749V80.8081C177.917 81.5974 178.37 82.3867 178.833 83.1658V83.2991C180.521 86.0565 182.035 88.7627 183.177 91.6945C183.805 92.9656 184.464 94.2162 184.762 95.5693C186.378 99.6286 187.83 102.612 189.507 116.43C189.641 121.904 189.744 127.531 188.91 132.964C205.472 154.265 218.781 180.261 229.29 205.981C231.761 214.53 240.788 233.207 235.219 235.113C232.522 236.231 230.67 233.412 229.486 231.505C223.763 222.095 219.749 213.515 213.346 200.476C204.679 183.572 195.673 166.3 183.898 151.6C182.652 154.829 181.118 157.884 179.42 160.918C172.349 186.535 105.927 219.635 76.1285 221.798C72.6082 231.495 67.5954 254.856 62.3562 254.99V255ZM84.8879 194.12C83.6322 197.534 82.4484 201.142 81.3265 204.617C87.7185 202.977 94.44 200.947 101.357 198.446C95.7163 197.667 90.1271 196.171 84.8262 194.12H84.8879Z" fill="white"/>
<path d="M145.165 7.07411C103.395 18.104 41.7391 60.7473 40.2877 98.665C40.2877 99.2596 40.1539 103.124 40.1539 105.164C40.1539 105.431 40.4833 105.492 40.6171 105.297C41.2141 103.985 42.3258 101.822 42.5316 101.361C64.1369 55.9499 141.016 14.0959 157.949 6.29505C158.474 6.02853 158.412 5.31097 157.887 5.11621C155.972 4.52166 152.483 5.38273 145.175 7.08436L145.165 7.07411Z" fill="#FFE500"/>
<path d="M112.69 196.55C153.728 196.55 186.996 163.419 186.996 122.549C186.996 81.6794 153.728 48.5488 112.69 48.5488C71.651 48.5488 38.3835 81.6692 38.3835 122.549C38.3835 163.43 71.651 196.55 112.69 196.55Z" fill="white"/>
<path d="M117.63 73.8683C117.96 74.3911 118.227 74.9139 118.557 75.4469C122.448 74.1348 127.182 72.2282 132.061 69.481C135.746 67.3796 142.272 59.835 143.199 55.7654C143.199 55.4989 143.26 55.3041 143.26 55.1093C133.904 50.9065 123.559 48.5488 112.69 48.5488C108.603 48.5488 104.589 48.8769 100.698 49.5329C106.895 57.2108 112.618 65.3396 117.558 73.8683H117.62H117.63Z" fill="#E73233"/>
<path d="M133.832 72.6895C129.025 75.3752 124.28 77.3434 120.327 78.7272C122.829 83.3196 125 87.7172 126.915 91.9815C130.867 90.9974 134.954 90.0749 139.37 89.3573C149.519 87.6557 161.634 86.0155 177.845 86.9996C170.733 74.0734 159.863 63.515 146.688 56.7598C145.237 62.2747 137.795 70.4036 133.78 72.6998H133.842L133.832 72.6895Z" fill="#E73233"/>
<path d="M62.7578 76.226C69.4792 76.4208 73.8229 77.0153 78.1049 77.5996C79.8856 77.8662 81.5943 78.0609 83.375 78.2557C88.8406 78.8502 98.0633 79.8343 109.067 77.9277C109.262 77.9277 111.434 77.5381 114.8 76.5541C114.666 76.2875 114.471 76.0313 114.337 75.7032C109.067 66.785 103.076 58.2564 96.4884 50.312C79.7518 53.9818 65.1355 63.3715 54.7189 76.226H62.7578Z" fill="#E73233"/>
<path d="M137.527 136.388C137.26 135.465 137.064 134.481 136.807 133.436C134.233 123.4 131.073 110.802 124.887 96.3688C112.237 99.9156 101.11 104.959 87.1423 111.325C71.4658 118.48 64.415 123.267 59.0831 127.336C52.8249 132.124 41.626 144.199 41.626 144.199C50.581 175.033 78.846 196.55 112.71 196.55C121.542 196.55 129.972 195.043 137.743 192.224C139.781 183.562 143.477 159.688 137.476 136.398H137.537L137.527 136.388Z" fill="#E73233"/>
<path d="M56.7569 124.446C62.2225 120.243 69.5409 115.323 85.5468 107.983C99.4425 101.617 110.58 96.5636 123.292 92.9554C121.377 88.7525 119.205 84.3652 116.704 79.8958C112.618 81.0747 109.921 81.5975 109.653 81.5975C104.579 82.4483 99.9057 82.7148 95.7576 82.7148C90.4875 82.7148 86.1438 82.2535 82.9117 81.9255C81.0693 81.7307 79.3503 81.536 77.5078 81.2694C73.3597 80.7466 69.0778 80.1521 62.5519 79.9573C59.6492 79.8958 55.11 79.8241 51.8779 79.8958C43.314 91.9713 38.2395 106.661 38.2395 122.601C38.2395 128.505 38.96 134.276 40.2775 139.791C45.2183 134.153 50.756 129.028 56.6848 124.436H56.7466L56.7569 124.446Z" fill="#E73233"/>
<path d="M179.883 90.8539C162.951 89.5418 150.507 91.2435 140.09 93.0168C136.004 93.6729 132.185 94.5237 128.5 95.4463C134.624 109.879 137.856 122.478 140.419 132.575C140.687 133.559 140.944 134.543 141.14 135.527C146.873 157.833 144.104 180.077 141.933 190.697C168.479 179.411 187.058 153.169 187.058 122.601C187.058 111.253 184.484 100.49 179.945 90.9154L179.883 90.8539Z" fill="#E73233"/>
<path d="M65.9794 226.534C67.4308 219.973 69.0777 213.474 70.7863 207.047C72.567 200.548 74.4713 194.121 76.5196 187.755C77.5695 184.536 78.6297 181.389 79.7517 178.18C80.2766 176.602 80.8736 175.034 81.4603 173.455C82.0573 171.876 82.644 170.308 83.241 168.729L85.1556 164.004L87.1318 159.35C87.7906 157.771 88.5111 156.264 89.2419 154.696C89.9624 153.189 90.6933 151.61 91.4138 150.104C94.44 144.004 97.7338 138.028 101.625 132.257C102.613 130.812 103.539 129.366 104.651 127.993L106.236 125.891L107.945 123.862L108.799 122.877L109.725 121.893L111.506 119.925C112.762 118.675 114.007 117.362 115.397 116.255C116.714 115.005 118.227 113.959 119.679 112.842L121.984 111.335C122.777 110.812 123.57 110.412 124.424 109.961C127.718 108.188 131.279 106.814 135.026 106.025C138.783 105.308 142.735 105.174 146.492 105.759C150.249 106.353 153.873 107.46 157.166 108.977C160.522 110.484 163.62 112.391 166.523 114.421C169.425 116.45 172.122 118.746 174.696 121.043C179.77 125.83 184.248 130.945 188.396 136.326C189.446 137.639 190.434 139.012 191.422 140.396C192.41 141.77 193.398 143.154 194.386 144.527C195.375 145.901 196.301 147.346 197.217 148.73L198.596 150.831L199.914 152.994C207.026 164.414 213.285 176.284 218.956 188.421C221.787 194.459 224.494 200.558 227.057 206.79C243.917 254.026 229.424 226.739 216.187 199.113C214.54 195.638 212.76 191.835 210.855 188.554C204.927 178.58 199.389 167.233 192.873 158.109L191.494 156.141L190.043 154.173C189.055 152.861 188.128 151.549 187.078 150.298C186.09 149.048 185.102 147.736 184.114 146.495C183.126 145.245 182.076 144.004 181.088 142.754C176.939 137.895 172.585 133.241 167.974 129.11C165.607 127.142 163.301 125.112 160.79 123.533C158.288 121.832 155.787 120.386 153.152 119.269C150.517 118.152 147.882 117.301 145.247 116.973C142.612 116.583 139.977 116.706 137.342 117.168C134.768 117.691 132.205 118.613 129.766 119.925C129.169 120.253 128.51 120.581 127.924 120.971L126.143 122.15C124.959 123 123.837 123.851 122.715 124.835C121.593 125.758 120.471 126.803 119.421 127.849L117.836 129.489L117.044 130.34L116.323 131.191L114.81 132.964L113.359 134.799C112.371 135.978 111.444 137.29 110.528 138.541C106.843 143.656 103.549 149.171 100.379 154.809C97.2809 160.447 94.3165 166.29 91.5476 172.256C90.8271 173.701 90.1683 175.269 89.5096 176.715C88.8508 178.222 88.1303 179.728 87.5333 181.245C86.2157 184.259 84.96 187.283 83.6425 190.369C81.275 196.601 78.7635 204.279 76.9931 210.645C60.3285 267.455 59.3404 258.475 65.9897 226.523L65.9794 226.534Z" fill="#FFE500"/>
<path d="M186.275 110.997C186.275 110.997 186.08 111.191 186.008 111.058C184.165 107.255 180.604 101.545 174.15 97.2811C163.672 90.3926 152.02 91.838 142.859 93.0168C136.405 93.8676 131.928 94.6569 111.434 102.796C103.992 105.748 86.7922 113.16 66.5044 119.587C55.501 123.062 43.5095 123.39 39.4334 120.704C35.0897 117.813 36.7366 114.144 37.5189 112.832C37.5807 112.698 37.8483 112.698 37.8483 112.893C37.9821 113.816 38.2394 115.784 38.8364 116.44C39.8246 117.485 42.2641 119.064 49.2428 117.69C63.54 114.872 88.6347 101.289 94.3679 98.6035C118.351 87.2559 137.784 80.6236 155.437 83.6476C164.794 85.2877 170.393 88.896 172.699 90.4746C178.628 94.6774 181.983 99.198 184.031 102.94C185.349 105.369 186.07 108.055 186.275 110.812V111.007V110.997Z" fill="#FFE500"/>
<path d="M196.033 170.533C194.201 169.242 192.142 168.822 190.156 169.283C189.682 167.899 188.766 166.679 187.459 165.757C185.586 164.434 183.373 164.106 181.232 164.844C179.204 165.541 177.31 167.12 175.581 169.539L169.755 177.719L164.238 181.943L165.761 194.623L153.77 189.938L148.036 194.315L159.822 209.61L142.427 197.227L136.004 200.978L137.795 217.052C134.902 213.525 130.064 214.561 127.028 215.217C126.184 215.401 124.99 215.657 124.29 215.678C124.506 215.452 124.939 215.135 125.69 214.786C127.09 214.13 128.788 213.864 130.589 214.017L132.926 214.212L132.514 206.216L130.806 206.001C128.243 205.683 125.144 206.247 122.324 207.559C118.794 209.199 116.776 211.424 115.891 213.72L114.789 213.474C112.268 212.921 109.139 213.197 106.195 214.243C102.283 215.637 100.019 217.851 99.0101 220.219L98.4645 217.708L89.7668 219.573L92.6283 232.797C93.3797 236.262 91.9078 236.569 90.8373 236.805C89.7668 237.03 88.2949 237.348 87.5435 233.894L84.682 220.67L75.9329 222.546L78.8355 235.944C79.5869 239.409 81.2544 242.053 83.6733 243.601C85.2996 244.647 87.245 245.18 89.3963 245.18C90.405 245.18 91.4549 245.067 92.546 244.831C99.4939 243.335 102.87 238.086 101.367 231.105L100.925 229.055C103.621 231.392 107.646 230.931 110.312 230.624C111.115 230.531 112.226 230.398 112.937 230.419C112.669 230.603 112.226 230.839 111.516 231.095C109.663 231.751 107.327 231.843 105.567 231.331L103.138 230.624L102.489 238.712L104.033 239.214C105.104 239.562 106.39 239.737 107.77 239.737C109.828 239.737 112.103 239.347 114.192 238.609C118.248 237.164 120.554 234.857 121.521 232.407L122.509 232.633C123.23 232.797 124.022 232.869 124.877 232.869C127.285 232.869 130.085 232.233 132.566 231.085C135.757 229.599 137.723 227.651 138.731 225.611L139.009 228.102L147.213 223.315L146.544 218.538L152.534 215.042L156.394 217.954L163.178 213.997L163.25 214.089L163.97 213.536L164.701 213.105L164.608 213.044L170.105 208.841L165.854 203.326L171.062 205.335L174.634 202.608L173.965 196.929L178.329 202.567L185.195 197.319L174.973 184.126L188.859 193.926L196.301 183.47C198.112 180.918 199.049 178.529 199.07 176.376C199.09 173.998 198.03 171.979 195.992 170.544L196.033 170.533ZM120.842 224.155L120.862 225.355C118.361 221.347 113.328 221.931 110.188 222.31C109.324 222.413 108.12 222.567 107.42 222.515C107.656 222.32 108.12 222.033 108.902 221.757C110.353 221.234 112.072 221.131 113.853 221.439L116.169 221.839L116.241 220.065C118.896 225.396 124.578 224.217 127.985 223.499C128.778 223.335 129.869 223.1 130.579 223.048C130.332 223.253 129.91 223.54 129.231 223.848C127.45 224.678 125.134 224.986 123.322 224.637L120.832 224.155H120.842ZM145.453 210.204L145.37 209.599L145.854 209.968L145.453 210.204ZM186.883 181.594L188.952 178.683C189.765 177.535 190.238 177.432 190.228 177.432C190.228 177.432 190.29 177.442 190.423 177.535C190.537 177.617 190.578 177.668 190.578 177.668C190.578 177.73 190.578 178.201 189.796 179.288L187.727 182.199L186.872 181.594H186.883ZM181.571 174.501C182.271 173.516 182.683 173.383 182.683 173.373C182.693 173.373 182.734 173.393 182.807 173.445C182.868 173.496 182.899 173.527 182.909 173.527C182.92 173.65 182.827 174.142 182.23 174.972L180.645 177.207L179.986 176.745L181.571 174.511V174.501Z" fill="white"/>
<path d="M80.8839 235.513L78.4136 224.125L83.1381 223.11L85.5673 234.324C86.4011 238.189 88.4391 239.429 91.3006 238.814C94.193 238.189 95.5105 236.241 94.6664 232.377L92.2373 221.162L96.9103 220.158L99.3807 231.546C100.678 237.533 97.95 241.582 92.1446 242.832C86.3393 244.083 82.1809 241.5 80.8839 235.513Z" fill="#E73233"/>
<path d="M104.713 237.266L105.032 233.299C107.121 233.914 109.9 233.873 112.257 233.022C114.954 232.059 115.726 230.777 115.294 229.568C113.976 225.898 103.447 232.5 100.822 225.221C99.6278 221.89 101.326 218.159 106.915 216.16C109.386 215.278 112.134 214.96 114.368 215.463L114.203 219.409C112 219.02 109.942 219.194 108.202 219.819C105.505 220.783 104.826 222.156 105.268 223.387C106.565 226.995 117.106 220.424 119.699 227.62C120.873 230.89 119.154 234.662 113.534 236.672C110.415 237.779 106.936 237.984 104.713 237.266Z" fill="#E73233"/>
<path d="M122.993 230.624L122.942 226.646C125.083 227.067 127.841 226.769 130.116 225.703C132.71 224.494 133.358 223.141 132.823 221.982C131.166 218.456 121.295 226 118.011 218.989C116.508 215.78 117.857 211.906 123.24 209.404C125.618 208.297 128.325 207.734 130.6 208.021L130.795 211.967C128.572 211.783 126.534 212.141 124.856 212.92C122.262 214.13 121.717 215.565 122.273 216.744C123.899 220.219 133.78 212.705 137.033 219.624C138.505 222.782 137.146 226.687 131.742 229.209C128.737 230.603 125.289 231.126 123.014 230.613L122.993 230.624Z" fill="#E73233"/>
<path d="M152.72 212.572L144.351 217.451L145.021 222.228L140.749 224.719L138.227 202.075L142.344 199.666L160.965 212.921L156.59 215.473L152.73 212.562L152.72 212.572ZM149.55 210.184L142.643 204.976L143.827 213.515L149.55 210.184Z" fill="#E73233"/>
<path d="M178.751 199.687L171.093 189.795L172.503 201.686L170.774 203.008L159.791 198.774L167.264 208.472L163.661 211.219L150.939 194.705L154.109 192.275L168.221 197.79L166.42 182.855L169.57 180.446L182.343 196.919L178.741 199.666L178.751 199.687Z" fill="#E73233"/>
<path d="M194.839 172.204C197.783 174.285 197.835 177.811 194.654 182.281L188.406 191.056L171.361 179.021L177.269 170.728C180.285 166.484 183.62 165.562 186.275 167.427C187.984 168.627 188.674 170.431 188.416 172.327C190.372 170.861 192.698 170.687 194.839 172.194V172.204ZM177.114 177.217L181.129 180.056L183.908 176.151C185.277 174.234 185.328 172.707 183.99 171.764C182.652 170.82 181.252 171.394 179.883 173.311L177.104 177.217H177.114ZM191.617 175.874C190.187 174.859 188.725 175.474 187.274 177.504L184.011 182.086L188.221 185.059L191.484 180.477C192.935 178.437 193.079 176.899 191.617 175.874Z" fill="#E73233"/>
<path d="M170.198 171.548C141.212 200.743 76.9828 231.249 45.5579 214.653C45.0329 214.386 41.8729 212.685 40.226 211.762C40.0305 211.629 40.0922 211.301 40.3599 211.373C41.7391 211.434 43.983 211.639 44.4462 211.701C91.6094 215.247 160.193 175.946 175.807 161.708C176.198 161.318 176.929 161.38 176.795 161.902C176.332 163.737 175.087 166.361 170.208 171.548H170.198Z" fill="#FFE500"/>
<path d="M65.0634 187.427C64.8679 186.709 64.4047 186.115 63.6121 185.592C62.8195 185.13 62.099 184.936 61.3682 185.069C61.0388 185.069 60.7712 185.264 60.4418 185.397C60.1742 185.592 59.9169 185.786 59.7831 186.115C59.3199 186.832 59.2581 187.56 59.5875 188.277C59.7213 188.544 59.9169 188.8 60.1124 189.067C60.308 189.333 60.6374 189.59 60.9668 189.856C61.3579 190.123 61.4917 190.317 61.4917 190.451C61.4917 190.512 61.6255 190.717 61.3579 191.045C61.1623 191.373 60.9668 191.435 60.8947 191.435C60.6992 191.435 60.3698 191.435 60.0404 191.168C59.5154 190.84 59.3816 190.451 59.3816 190.246C59.3816 190.112 59.3816 189.979 59.4434 189.784L59.639 189.323L58.7126 188.728L58.9081 188.4L58.1156 187.806L60.8844 183.931L59.5051 182.947L56.7363 186.822L55.9437 186.227L54.9556 187.601L55.7482 188.195L54.76 189.569L56.1393 190.553L57.1274 189.18L57.7244 189.569C57.6627 189.959 57.6627 190.42 57.7244 190.82C57.92 191.476 58.3832 192.07 59.042 192.521C59.639 192.911 60.1639 193.044 60.6889 193.044H61.152C61.4814 192.983 61.7491 192.849 62.0064 192.655C62.2637 192.46 62.5313 192.193 62.7269 191.937C63.1901 191.219 63.6533 189.836 61.8726 188.523C61.2138 188.001 61.0182 187.673 60.9462 187.539C60.9462 187.539 60.8844 187.345 61.08 187.078C61.08 187.017 61.2138 186.883 61.2756 186.883C61.4094 186.822 61.6049 186.75 61.9343 186.822C62.1299 186.822 62.3975 186.955 62.5931 187.088C62.7269 187.222 62.8607 187.283 62.9842 187.416C63.118 187.55 63.1798 187.744 63.2519 187.939V188.462L63.0563 188.923L64.5076 189.846L64.7752 189.19C65.0429 188.595 65.0429 188.011 64.909 187.488L65.0429 187.427H65.0634Z" fill="white"/>
<path d="M55.0481 180.282C55.0481 179.564 54.5849 178.837 53.9262 178.252C53.2674 177.658 52.5469 177.401 51.7543 177.401C51.5588 177.401 51.2911 177.401 51.0956 177.535V177.073C51.0956 176.684 51.0338 176.223 50.9 175.823C50.7662 175.433 50.5089 175.033 50.1795 174.777C49.7883 174.388 49.3251 174.121 48.862 173.926C48.337 173.793 47.8738 173.732 47.3489 173.793L46.6901 173.926L46.9577 174.777L46.3607 174.121L46.1651 174.316L47.4827 171.753L47.1533 171.364L46.8857 171.036L46.5563 170.646L44.0551 171.497C44.0551 171.497 44.2506 171.23 44.3844 171.107C44.58 170.718 44.7138 170.318 44.7756 169.929C44.7756 169.539 44.7756 169.078 44.7138 168.678C44.58 168.288 44.3844 167.889 44.1168 167.561C43.7874 167.099 43.3963 166.771 42.8611 166.577C42.4699 166.382 42.0067 166.31 41.5435 166.31L42.5317 165.654L41.5435 164.209L38.188 166.443C38.188 166.443 37.9924 166.505 37.9203 166.577H37.591C37.3954 166.577 37.1998 166.382 37.066 166.187C37.066 166.187 37.0043 166.054 36.9322 165.859V165.592L35.1515 164.67V165.715C35.2132 166.177 35.3471 166.638 35.6764 167.028C35.872 167.356 36.1396 167.622 36.469 167.817C36.8602 168.083 37.3233 168.206 37.7865 168.206C37.7865 168.206 38.2497 168.206 38.5071 168.073C38.3732 168.401 38.2394 168.729 38.1777 168.996C38.1777 169.385 38.1777 169.847 38.2394 170.246C38.3732 170.636 38.5688 171.036 38.8364 171.364C39.1041 171.692 39.4334 172.02 39.8246 172.214C40.0922 172.409 40.4216 172.481 40.751 172.543L39.9584 172.809L41.1421 174.183L44.827 172.932L43.0463 176.407L44.23 177.781L44.6932 176.858C44.6932 177.248 44.755 177.647 44.8888 178.037C45.0226 178.426 45.2799 178.754 45.6093 179.083C45.9387 179.411 46.2681 179.605 46.6592 179.8C47.0504 179.995 47.4518 180.067 47.8429 180.067H48.0385L47.7709 180.528C47.4415 181.122 47.2459 181.707 47.3077 182.363C47.3694 183.08 47.7709 183.675 48.3576 184.269C48.9546 184.792 49.6134 185.12 50.3339 185.12H50.3956C50.725 185.12 51.0544 184.987 51.322 184.854C51.6514 184.72 51.919 184.526 52.1146 184.259C52.6395 183.603 53.3703 182.353 51.847 180.712C51.25 180.056 51.1264 179.728 51.0544 179.595C51.0544 179.595 51.0544 179.4 51.25 179.206C51.3117 179.144 51.3838 179.072 51.4455 179.011C51.5793 179.011 51.7749 178.878 52.1043 179.011C52.2999 179.072 52.4954 179.206 52.7013 179.4C52.8351 179.534 52.9689 179.667 53.0307 179.79C53.1645 179.985 53.2262 180.118 53.2262 180.313C53.2262 180.507 53.2262 180.641 53.0924 180.835L52.8248 181.297L54.1423 182.414L54.5335 181.758C54.8629 181.235 54.9967 180.641 54.9246 180.056L54.9864 180.251L55.0481 180.282ZM39.9584 169.057L41.4715 171.025H41.0803C40.6892 170.964 40.4216 170.759 40.226 170.503C40.0304 170.175 39.8966 169.908 39.8966 169.519C39.8966 169.385 39.8966 169.252 39.9584 169.129V169.067V169.057ZM41.348 168.012C41.348 168.012 41.8729 168.012 42.0685 168.145C42.264 168.278 42.4596 168.411 42.5934 168.606C42.789 168.934 42.9228 169.201 42.9228 169.59C42.9228 169.724 42.9228 169.857 42.8611 169.98L41.348 168.012ZM40.6892 167.161L40.4936 166.894H40.6274V167.161H40.6892ZM48.1929 178.508H47.8018C47.4106 178.508 47.143 178.314 46.8754 178.047C46.6078 177.781 46.4842 177.453 46.4842 177.125V176.735L48.1929 178.508ZM49.4487 176.93V177.319L47.6679 175.546H48.3885C48.584 175.608 48.7796 175.741 48.9855 175.936C49.2531 176.202 49.3766 176.53 49.3766 176.858L49.4384 176.92L49.4487 176.93ZM49.1193 180.077C49.1193 180.077 49.3149 179.944 49.4487 179.882C49.4487 180.015 49.4487 180.149 49.5104 180.272C49.5722 180.538 49.706 180.866 49.9016 181.122C50.0971 181.389 50.2927 181.717 50.6221 182.045C50.9515 182.373 51.0132 182.64 51.0853 182.701C51.0853 182.763 51.0853 182.968 50.8897 183.296C50.6221 183.562 50.4265 183.624 50.3648 183.624C50.1692 183.624 49.9016 183.49 49.5722 183.234C49.109 182.773 49.0472 182.445 49.109 182.189C49.109 182.055 49.1707 181.922 49.2428 181.799L49.5104 181.338L48.3267 180.292C48.3267 180.292 48.8517 180.231 49.0472 180.097H49.109L49.1193 180.077Z" fill="white"/>
<path d="M37.591 157.904L34.7604 158.294L33.906 156.654L35.8823 154.624L35.028 152.984L34.8324 153.179V152.851C34.8324 152.523 34.7706 152.133 34.6368 151.805C34.503 151.477 34.3075 151.211 34.1119 151.016H34.1736L33.4531 149.376L32.5267 149.765C32.5267 149.765 32.5885 149.632 32.6606 149.57C32.8561 149.181 32.9282 148.781 32.9899 148.32C32.9899 147.859 32.9899 147.469 32.7944 147.069C32.5988 146.546 32.3312 146.085 31.94 145.696H32.2077L31.8165 144.578L31.2916 142.938L30.3034 143.266C30.499 142.877 30.6946 142.477 30.7666 142.087C30.8284 141.626 30.7666 141.237 30.7049 140.775C30.571 140.252 30.3755 139.853 30.0461 139.525C30.2417 139.525 30.3755 139.586 30.5093 139.719C30.7049 139.781 30.8387 139.914 30.9725 140.109C31.1063 140.304 31.168 140.437 31.2401 140.632C31.2401 140.826 31.3019 141.021 31.2401 141.226C31.2401 141.421 31.1783 141.616 31.0445 141.749L30.7769 142.139L32.0327 143.389L32.4238 142.733C32.6914 142.344 32.8149 141.944 32.887 141.483C32.9488 141.021 32.887 140.56 32.8252 140.109C32.6914 139.719 32.4959 139.32 32.2282 138.992C31.9606 138.664 31.6312 138.397 31.3019 138.202C30.9725 138.008 30.5813 137.874 30.1181 137.813H29.8505L29.5829 136.634L25.8259 137.351H25.3627C25.2289 137.351 25.0333 137.218 24.9716 137.085C24.8378 136.952 24.776 136.818 24.776 136.624V136.234C24.776 136.101 24.8378 135.968 24.9098 135.906C24.9716 135.773 25.0436 135.711 25.1774 135.64C25.3112 135.578 25.373 135.506 25.5068 135.506L29.2638 134.789L28.9344 133.087L27.8845 133.282C27.8845 133.282 27.9463 133.22 28.0183 133.149C28.286 132.821 28.4815 132.431 28.6153 132.031C28.7492 131.632 28.7492 131.18 28.7492 130.719C28.7492 130.258 28.5536 129.868 28.358 129.469C28.1624 129.079 27.8331 128.751 27.5037 128.485C27.3699 128.423 27.3081 128.351 27.1743 128.29H28.358L28.2242 126.516L24.4055 126.711C24.4055 126.711 24.0761 126.711 23.9423 126.578C23.8084 126.516 23.6746 126.383 23.5511 126.25C23.4894 126.117 23.4173 125.922 23.4173 125.789V125.399C23.4173 125.266 23.5511 125.204 23.6129 125.071C23.6746 125.009 23.8084 124.876 23.8805 124.876C24.0143 124.876 24.0761 124.815 24.2099 124.815L28.0286 124.62L27.8948 122.918L24.0761 123.113C23.7467 123.113 23.3556 123.246 23.0879 123.38C22.7585 123.513 22.4909 123.769 22.2954 124.036C22.0998 124.302 21.9042 124.63 21.7704 124.958C21.6366 125.286 21.6366 125.614 21.6366 126.004C21.6366 126.332 21.7704 126.66 21.9042 126.988L22.038 128.69H23.4894C23.4894 128.69 23.0982 128.956 22.8924 129.151C22.6247 129.479 22.4292 129.868 22.2954 130.268C22.1615 130.658 22.1615 131.119 22.2336 131.58C22.2336 132.042 22.4292 132.431 22.6247 132.759C22.8203 133.149 23.0879 133.415 23.4791 133.682C23.7467 133.876 24.004 134.01 24.3334 134.143H24.2716C24.004 134.338 23.7467 134.604 23.5511 134.861C23.3556 135.127 23.2217 135.455 23.16 135.845C23.0982 136.173 23.0982 136.562 23.16 136.89C23.16 137.218 23.3556 137.546 23.5511 137.813L23.8187 139.258L24.2819 140.898H24.4775C24.3437 141.36 24.3437 141.882 24.4775 142.405C24.6113 142.795 24.8069 143.194 25.0025 143.522C25.2701 143.85 25.5995 144.117 25.9288 144.373C25.9906 144.373 26.1244 144.435 26.1965 144.507L25.2701 144.773H24.8789C24.6113 144.835 24.4157 145.04 24.2819 145.234C24.1481 145.429 24.1481 145.696 24.2819 145.952C24.3437 146.147 24.4775 146.341 24.6731 146.475L23.8805 146.741L24.4775 148.32L26.4538 147.602C26.4538 148.125 26.4538 148.648 26.6494 149.181C26.7832 149.57 27.0405 149.97 27.3081 150.298C27.6375 150.626 27.9669 150.893 28.2963 151.016C28.4918 151.077 28.6874 151.149 28.8933 151.211L27.5757 151.805L28.2963 153.384L31.8577 151.805C31.8577 151.805 32.0533 151.744 32.1871 151.744C32.3209 151.744 32.4547 151.744 32.5782 151.805C32.712 151.805 32.7738 151.938 32.9076 152C32.9693 152.061 33.0414 152.195 33.1032 152.328C33.237 152.594 33.237 152.789 33.1032 153.045C33.1032 153.179 32.9693 153.24 32.9076 153.373C32.8458 153.435 32.712 153.507 32.64 153.568L29.0785 155.147L29.7991 156.725L32.4959 155.547L29.1403 159.155L29.8608 160.6L38.4865 159.421L37.6321 157.781V157.915L37.591 157.904ZM28.2963 147.541C28.2963 147.541 28.4918 147.213 28.6256 147.079C28.7594 146.946 28.955 146.813 29.1506 146.751C29.3462 146.69 29.5417 146.69 29.7476 146.69C29.9535 146.69 30.1387 146.69 30.3446 146.823C30.5402 146.885 30.674 147.018 30.8078 147.151C30.9416 147.284 31.0754 147.479 31.1372 147.674C31.1989 147.869 31.271 148.064 31.1989 148.269C31.1989 148.463 31.1989 148.658 31.0651 148.863C31.0034 149.058 30.8695 149.191 30.7357 149.324C30.6019 149.458 30.4064 149.591 30.2108 149.652C30.0152 149.714 29.8196 149.714 29.6138 149.714C29.4079 149.714 29.2226 149.714 29.0168 149.581C28.8212 149.519 28.6874 149.386 28.5536 149.253C28.4198 149.119 28.286 148.925 28.2242 148.73C28.1624 148.535 28.0904 148.34 28.1624 148.135C28.1624 147.941 28.1624 147.746 28.2963 147.541ZM26.0626 142.026C26.0626 142.026 26.0009 141.636 26.0626 141.431C26.0626 141.237 26.1244 141.042 26.2582 140.837C26.32 140.703 26.4538 140.509 26.6494 140.375C26.8449 140.242 26.9787 140.181 27.1743 140.109H27.7713C27.9669 140.109 28.1624 140.17 28.2963 140.304C28.4918 140.437 28.6256 140.57 28.7594 140.693C28.8933 140.826 28.955 141.021 29.0271 141.216V141.811C29.0271 142.005 28.9653 142.2 28.8315 142.405C28.6977 142.61 28.5639 142.733 28.4404 142.866C28.3066 143 28.111 143.061 27.9154 143.133H27.3184C27.1228 143.133 26.9273 143.071 26.7214 142.938C26.5258 142.877 26.392 142.743 26.2582 142.549C26.1244 142.354 26.0626 142.221 25.9906 142.026H26.0524H26.0626ZM23.9526 130.678C23.9526 130.678 24.0864 130.289 24.2202 130.155C24.354 130.022 24.4878 129.889 24.6834 129.766C24.8789 129.633 25.0745 129.571 25.2804 129.571H25.8774C26.0729 129.571 26.2685 129.704 26.4023 129.838C26.5361 129.971 26.6699 130.104 26.7935 130.299C26.9273 130.494 26.989 130.688 26.989 130.893V131.488C26.989 131.683 26.8552 131.878 26.7214 132.011C26.5876 132.144 26.4538 132.339 26.2582 132.4C26.0626 132.534 25.8671 132.595 25.6612 132.595H25.0642C24.8686 132.595 24.6731 132.462 24.5393 132.329C24.3437 132.195 24.2716 132.062 24.1481 131.867C24.1481 131.867 24.0143 131.539 23.9526 131.273V130.678ZM32.712 157.904L33.0414 158.499L31.9915 158.632L32.712 157.843V157.904Z" fill="white"/>
<path d="M27.9669 119.464L28.1007 117.762L23.0262 117.373L25.5995 115.866V114.749L23.3556 112.914L28.4301 113.303L28.5639 111.602H27.442C27.442 111.602 27.6375 111.407 27.7096 111.335C28.039 111.068 28.3684 110.812 28.5639 110.412C28.8316 110.023 28.9551 109.623 29.0271 109.234C29.0889 108.772 29.0271 108.383 29.0271 107.921C28.8933 107.532 28.7595 107.132 28.5022 106.804C28.4404 106.671 28.3066 106.609 28.2346 106.538L29.4183 106.804L29.8094 105.103L26.0524 104.252C26.0524 104.252 25.723 104.118 25.6613 104.057C25.5275 103.924 25.4657 103.79 25.3936 103.596V103.134C25.3936 103.001 25.4554 102.868 25.5275 102.806C25.5892 102.673 25.6613 102.612 25.7951 102.54C25.9289 102.468 25.9906 102.407 26.1245 102.407H26.4538L30.2108 103.257L30.602 101.556L26.917 100.705C26.917 100.705 26.32 100.643 25.9906 100.705L26.1245 100.182L30.7358 101.433L31.199 99.7926L28.6257 99.075H29.3462C29.8094 99.075 30.2005 98.9418 30.5299 98.747C30.9211 98.5522 31.2504 98.2857 31.5181 97.9577C31.7857 97.6297 31.9813 97.2401 32.1768 96.8404C32.3724 96.3176 32.3724 95.7948 32.3106 95.2617L32.64 95.395L33.165 93.7549L32.4444 93.4883C32.7738 93.3551 33.0414 93.1603 33.2988 92.8938C33.5664 92.6273 33.762 92.371 33.8958 91.9712C34.0296 91.6432 34.0913 91.3152 34.0913 90.9872H34.1531L34.8119 89.4085L30.4682 87.6351L30.6637 87.2456L35.0074 89.2138L35.728 87.6351L31.3843 85.667L31.7754 84.7444L30.1902 84.0269L29.7991 84.9494L28.214 84.2319L27.4934 85.8105L29.0786 86.5281L28.811 87.0508L28.1522 88.6295L31.7136 90.0748C31.7136 90.0748 31.9092 90.2081 31.9813 90.2696C32.043 90.3311 32.1151 90.4644 32.1768 90.5976C32.1768 90.7309 32.2386 90.8641 32.2386 90.9872C32.2386 91.1102 32.2386 91.2537 32.1768 91.3767C32.043 91.6432 31.9092 91.7662 31.6519 91.8995C31.5181 91.8995 31.3843 91.961 31.2607 91.961H30.9314L27.3699 90.5156L26.7112 92.0942H26.845L26.4538 93.4063H26.6494C26.32 93.7959 26.0524 94.2572 25.8568 94.8517C25.723 95.2412 25.6613 95.7025 25.723 96.1023C25.723 96.4918 25.8568 96.9531 26.0524 97.2811V97.3427L25.0643 97.0761L24.7966 97.9987L23.1497 97.5374L22.6865 99.1775L24.3335 99.6388L24.0658 100.623L25.054 100.889C25.054 100.889 24.8584 100.951 24.7863 101.023C24.5187 101.217 24.2614 101.484 24.0658 101.74C23.8703 102.007 23.7364 102.335 23.6747 102.724C23.6129 103.052 23.6129 103.38 23.6747 103.708L23.2836 105.349L24.6628 105.677C24.6628 105.677 24.1996 105.871 24.0041 106.005C23.6747 106.271 23.3453 106.599 23.1497 106.927C22.9542 107.317 22.7586 107.716 22.6865 108.106C22.6248 108.567 22.6865 108.957 22.6865 109.357C22.8204 109.746 22.9542 110.146 23.2115 110.474C23.4071 110.74 23.6026 110.935 23.8703 111.13L20.4426 110.863V111.325L20.3809 111.919V112.514L23.5409 115.077L20.0515 117.178V117.772L19.9897 118.367V118.828L28.1625 119.423L27.9669 119.484V119.464ZM28.4301 97.2196C28.4301 97.2196 28.039 97.0249 27.9052 96.8916C27.7714 96.7584 27.6375 96.6251 27.514 96.4303C27.4523 96.2356 27.3802 96.1023 27.3802 95.8358C27.3802 95.641 27.3802 95.4462 27.442 95.2412C27.442 95.0465 27.5758 94.8517 27.7714 94.7184C27.9052 94.5852 28.039 94.4519 28.2346 94.3289C28.4301 94.2674 28.6257 94.1957 28.8316 94.1957C29.0374 94.1957 29.2227 94.1957 29.4286 94.2572C29.6241 94.2572 29.8197 94.3904 29.9535 94.5852C30.0873 94.7184 30.2211 94.8517 30.3446 95.0465C30.4064 95.2412 30.4785 95.436 30.4785 95.641C30.4785 95.846 30.4785 96.0305 30.4167 96.2356C30.3549 96.4303 30.2211 96.6251 30.0873 96.7584C29.9535 96.8916 29.8197 97.0249 29.6241 97.1479C29.4286 97.2094 29.233 97.2811 29.0271 97.2811C28.8213 97.2811 28.636 97.2811 28.4301 97.2196ZM26.7832 98.2037C26.7832 98.2037 27.3802 98.5932 27.7096 98.7265L26.4538 98.3985L26.5876 98.009C26.5876 98.009 26.7215 98.1422 26.7832 98.2037ZM24.879 107.388C24.879 107.388 25.2084 107.194 25.476 107.122H26.073C26.2686 107.122 26.4641 107.255 26.67 107.317C26.8656 107.45 26.9994 107.583 27.1332 107.706C27.267 107.839 27.3288 108.034 27.4008 108.229V108.824C27.4008 109.018 27.267 109.213 27.2052 109.346C27.0714 109.541 26.9376 109.674 26.8141 109.808C26.6185 109.941 26.4847 110.002 26.2891 110.074H25.6921C25.4966 110.074 25.301 109.941 25.0951 109.879C24.8996 109.746 24.7658 109.613 24.632 109.49C24.4981 109.295 24.4364 109.162 24.3643 108.967V108.373C24.3643 108.178 24.4981 107.983 24.5599 107.778C24.6937 107.583 24.8275 107.45 24.951 107.317L24.8893 107.378L24.879 107.388Z" fill="white"/>
<path d="M64.4665 187.56C64.3327 186.965 63.9415 186.514 63.2828 186.053C62.624 185.664 62.027 185.53 61.4403 185.592C61.1727 185.592 60.9771 185.725 60.7198 185.858C60.5242 185.992 60.3286 186.186 60.1948 186.381C59.8654 186.904 59.8037 187.427 60.061 187.96C60.1948 188.155 60.3286 188.349 60.5242 188.616C60.7198 188.811 60.9874 189.077 61.3168 189.333C61.7079 189.6 61.9138 189.856 62.0373 190.123C62.1711 190.451 62.0991 190.84 61.9035 191.24C61.7079 191.568 61.3785 191.835 61.0492 191.896C60.7198 191.958 60.2566 191.896 59.7316 191.568C59.1346 191.179 58.8773 190.717 58.8053 190.194C58.8053 190 58.8053 189.733 58.9391 189.538L58.4759 189.21C58.2803 189.733 58.2082 190.256 58.3421 190.717C58.4759 191.24 58.867 191.701 59.464 192.091C59.9272 192.419 60.3904 192.552 60.8433 192.552H61.1727C61.4403 192.552 61.6359 192.419 61.8314 192.224C62.027 192.091 62.2226 191.896 62.3564 191.63C62.9534 190.645 62.7475 189.795 61.6359 188.944C61.0389 188.483 60.6477 188.093 60.5139 187.693C60.3801 187.427 60.5139 187.099 60.6477 186.709C60.7815 186.576 60.9153 186.443 61.0389 186.32C61.3682 186.125 61.6976 186.053 62.1608 186.186C62.4284 186.248 62.6858 186.381 62.9534 186.514C63.149 186.648 63.3445 186.781 63.4783 186.976C63.6739 187.17 63.8077 187.437 63.8695 187.693C63.8695 187.96 63.8695 188.288 63.8077 188.544L64.2709 188.872C64.4665 188.349 64.4665 187.888 64.4047 187.427L64.4665 187.56Z" fill="#E73233"/>
<path d="M60.1845 184.085L59.7213 183.757L56.9524 187.632L56.1598 187.037L55.8305 187.499L56.623 188.021L55.6349 189.467L56.0981 189.795L57.0862 188.349L57.9406 188.944L58.2699 188.483L57.4156 187.96L60.1845 184.085Z" fill="#E73233"/>
<path d="M53.5351 178.703C53.0102 178.18 52.4131 177.986 51.7544 177.986C51.4868 177.986 51.2294 177.986 51.0339 178.18C50.8383 178.314 50.5707 178.447 50.4369 178.642C50.0457 179.103 49.8399 179.626 50.0457 180.22C50.1075 180.415 50.2413 180.682 50.3751 180.938C50.5089 181.194 50.7662 181.461 51.0339 181.789C51.3632 182.117 51.5588 182.445 51.6309 182.711C51.6926 183.101 51.6309 183.429 51.3015 183.757C51.0339 184.085 50.7045 184.218 50.3751 184.28C49.984 184.28 49.5825 184.085 49.1914 183.757C48.6664 183.296 48.4709 182.773 48.5326 182.25C48.5326 182.055 48.6664 181.789 48.8003 181.594L48.3371 181.204C48.0694 181.727 47.9459 182.189 47.9459 182.711C48.0077 183.306 48.2753 183.757 48.8003 184.218C49.3252 184.679 49.8502 184.874 50.3854 184.874H50.4472C50.7148 184.874 50.9103 184.813 51.1677 184.68C51.4353 184.546 51.6309 184.413 51.8264 184.218C52.547 183.367 52.4852 182.445 51.5588 181.461C51.0339 180.866 50.7045 180.415 50.6324 180.087C50.5707 179.759 50.6324 179.493 50.9618 179.165C51.0956 179.031 51.2294 178.898 51.425 178.837C51.7544 178.703 52.1455 178.703 52.547 178.837C52.8146 178.97 53.0719 179.103 53.2675 179.298C53.463 179.431 53.5969 179.626 53.7307 179.821C53.8645 180.087 53.9983 180.343 53.9983 180.61C53.9983 180.876 53.9983 181.204 53.8027 181.461L54.2659 181.85C54.5335 181.389 54.6571 180.928 54.5953 180.477C54.5953 179.882 54.2659 179.298 53.6689 178.837L53.5351 178.703Z" fill="#E73233"/>
<path d="M49.7781 178.97C49.7781 178.97 50.2413 178.447 50.3751 178.119C50.5089 177.791 50.5707 177.463 50.5707 177.135C50.5707 176.807 50.5707 176.417 50.3751 176.151C50.2413 175.823 50.0457 175.556 49.7781 175.3C49.4487 174.972 49.1193 174.777 48.6561 174.644C48.265 174.511 47.8018 174.511 47.4004 174.582L47.5342 175.105C47.8636 175.105 48.1929 175.105 48.5223 175.167C48.8517 175.228 49.1193 175.433 49.3767 175.69C49.7678 176.079 49.9016 176.479 49.9737 177.002C49.9737 177.524 49.8398 177.986 49.5825 178.447L46.2269 175.033L46.0931 175.167C46.0931 175.167 45.6299 175.69 45.4961 176.089C45.3623 176.479 45.2285 176.807 45.2285 177.135C45.2285 177.463 45.2285 177.791 45.4241 178.119C45.5579 178.447 45.7535 178.714 46.0211 178.97C46.2887 179.236 46.546 179.431 46.8754 179.564C47.2048 179.698 47.5342 179.759 47.8636 179.759C48.1929 179.759 48.5223 179.759 48.8517 179.564C49.1811 179.431 49.5105 179.236 49.706 178.97H49.7678H49.7781ZM49.1811 178.703C48.7179 179.031 48.1929 179.165 47.7297 179.093C47.2048 179.093 46.8034 178.826 46.4122 178.498C46.0211 178.17 45.8873 177.709 45.8152 177.186C45.8152 176.663 45.949 176.202 46.2064 175.741L49.1708 178.693L49.1811 178.703Z" fill="#E73233"/>
<path d="M46.6799 171.876L46.2888 171.353L40.8849 173.26L41.276 173.65L45.9491 172.071L43.6434 176.469L44.0346 176.93L46.6696 171.876H46.6799Z" fill="#E73233"/>
<path d="M41.348 172.204C41.348 172.204 41.8112 172.204 42.0067 172.143C42.3361 172.081 42.6655 171.876 42.9331 171.681C43.2007 171.487 43.4581 171.22 43.6536 170.892C43.8492 170.564 43.9213 170.236 43.983 169.908V168.862C43.9213 168.534 43.7154 168.206 43.5198 167.94C43.2522 167.612 42.9228 167.284 42.5317 167.151C42.1405 166.956 41.7391 166.884 41.2759 166.884L41.3377 167.407C41.6671 167.407 41.9964 167.407 42.3258 167.602C42.6552 167.735 42.9228 167.93 43.1184 168.258C43.4478 168.647 43.5816 169.108 43.5095 169.631C43.5095 170.154 43.2419 170.615 42.9125 171.005L40.0099 167.263L39.8143 167.325C39.5467 167.52 39.2893 167.786 39.0938 168.176C38.8982 168.504 38.7644 168.832 38.7026 169.16V170.205C38.7644 170.533 38.9703 170.861 39.1658 171.128C39.3614 171.394 39.629 171.651 39.9584 171.845C40.2878 172.04 40.6172 172.112 40.9465 172.173H41.3377L41.348 172.204ZM40.9465 171.548C40.4216 171.487 40.0202 171.22 39.6908 170.759C39.3614 170.369 39.2276 169.908 39.2996 169.385C39.2996 168.862 39.5673 168.401 39.8966 168.012L42.4699 171.353C41.945 171.62 41.4818 171.681 40.9568 171.548H40.9465Z" fill="#E73233"/>
<path d="M41.6053 165.449L41.276 164.988L38.4453 166.894C38.4453 166.894 38.116 167.028 37.9822 167.089H37.4572C37.0661 167.028 36.7984 166.823 36.6029 166.495C36.5411 166.361 36.4691 166.228 36.4073 166.033L35.8103 165.705C35.8103 166.167 35.9441 166.495 36.1397 166.823C36.3353 167.089 36.5308 167.284 36.7367 167.417C37.0661 167.612 37.3954 167.745 37.7866 167.745C38.1777 167.745 38.5071 167.612 38.7747 167.417L41.6053 165.51V165.449Z" fill="#E73233"/>
<path d="M37.2617 158.499L34.4311 158.888L33.1753 156.531L35.0898 154.501L34.8222 153.978L29.7477 159.421L30.1388 160.139L37.519 159.093L37.2514 158.571V158.509L37.2617 158.499ZM32.8459 156.92L33.8958 158.95L30.4682 159.411L32.8356 156.848V156.91L32.8459 156.92Z" fill="#E73233"/>
<path d="M32.1254 151.344C32.1254 151.344 32.5165 151.344 32.7224 151.477C32.9179 151.539 33.0517 151.672 33.2473 151.805C33.3811 151.938 33.5149 152.133 33.5767 152.266C33.7723 152.656 33.7723 153.056 33.5767 153.445C33.5149 153.64 33.3811 153.773 33.2473 153.968C33.1135 154.101 32.9797 154.235 32.7841 154.296L29.7579 155.608L30.0256 156.131L33.0517 154.819C33.0517 154.819 33.5149 154.552 33.7105 154.358C33.9061 154.163 34.0399 153.896 34.1016 153.702C34.1634 153.435 34.2355 153.179 34.2355 152.912C34.2355 152.646 34.2355 152.389 34.0399 152.061C33.9061 151.795 33.7723 151.539 33.5149 151.344C33.3194 151.149 33.0517 151.016 32.7224 150.954L33.3194 150.688L33.1238 150.165L28.3169 152.266L28.5125 152.789L31.5386 151.477C31.5386 151.477 31.9298 151.344 32.1356 151.344H32.1254Z" fill="#E73233"/>
<path d="M29.5521 150.883H29.6859C30.0153 150.883 30.2829 150.883 30.5403 150.749C30.8696 150.616 31.199 150.421 31.3946 150.227C31.6622 149.96 31.8578 149.704 31.9916 149.376C32.1254 149.048 32.1872 148.72 32.2592 148.392C32.2592 148.064 32.2592 147.674 32.1254 147.346C31.9298 146.885 31.7343 146.495 31.4049 146.229C31.1373 145.962 30.8079 145.767 30.4167 145.706L31.3431 145.378L31.1475 144.855L24.5599 147.213L24.7555 147.736L27.4523 146.752C27.1847 147.08 27.0612 147.408 26.9891 147.797C26.9891 148.187 26.9891 148.648 27.1847 149.109C27.3185 149.437 27.5141 149.765 27.7096 150.032C27.9773 150.298 28.2346 150.493 28.564 150.626C28.8933 150.76 29.2227 150.893 29.5521 150.893V150.883ZM27.5758 148.064C27.5758 148.064 27.6376 147.541 27.7714 147.274C27.9052 147.008 28.039 146.813 28.2346 146.618C28.4302 146.423 28.6978 146.29 28.9551 146.157C29.2227 146.095 29.4801 146.024 29.7477 146.024C30.0153 146.024 30.2726 146.085 30.5403 146.218C30.8079 146.352 31.0034 146.485 31.199 146.68C31.3946 146.875 31.5284 147.141 31.6622 147.397C31.724 147.664 31.796 147.92 31.796 148.248C31.796 148.515 31.7343 148.771 31.6004 149.037C31.4666 149.304 31.3328 149.499 31.1373 149.693C30.9417 149.888 30.6741 150.022 30.4167 150.155C30.1491 150.216 29.8918 150.288 29.6242 150.288C29.3565 150.288 29.0992 150.227 28.8316 150.093C28.564 149.96 28.3684 149.827 28.1728 149.632C27.9773 149.437 27.8434 149.171 27.7096 148.914C27.6479 148.648 27.5758 148.392 27.5758 148.125V148.064Z" fill="#E73233"/>
<path d="M25.2702 145.439H25.0026C24.9408 145.439 24.807 145.501 24.807 145.634V145.901C24.807 145.962 24.8688 146.096 25.0026 146.096H25.2702C25.332 146.096 25.4658 146.034 25.4658 145.901V145.634C25.4658 145.573 25.404 145.439 25.2702 145.439Z" fill="#E73233"/>
<path d="M25.9907 145.767L30.9931 144.189H31.0549L30.9211 143.666L25.7848 145.245L25.9804 145.767H25.9907Z" fill="#E73233"/>
<path d="M24.9407 140.98C24.8069 141.37 24.879 141.831 24.9407 142.292C25.0025 142.62 25.2083 142.948 25.4039 143.215C25.5995 143.481 25.8671 143.738 26.1244 143.871C26.392 144.066 26.7214 144.138 27.1126 144.199H27.5037C27.6993 144.199 27.9669 144.199 28.1625 144.138C28.4918 144.076 28.8212 143.871 29.0888 143.676C29.3565 143.482 29.6138 143.215 29.8094 142.887C30.0049 142.559 30.1387 142.231 30.1387 141.903V140.857C29.9432 140.006 29.3462 139.412 28.5536 139.084L29.2124 138.889C29.2124 138.889 29.7373 138.828 30.0049 138.889C30.2726 138.889 30.5299 139.022 30.7255 139.156C30.9931 139.289 31.1886 139.484 31.3225 139.678C31.518 139.873 31.5901 140.14 31.7136 140.396C31.7754 140.663 31.7754 140.991 31.7136 141.247C31.7136 141.513 31.5798 141.77 31.446 142.036L31.8371 142.497C32.0327 142.169 32.1665 141.78 32.2283 141.452V140.335C32.1665 140.006 31.9606 139.678 31.7651 139.412C31.5695 139.145 31.3019 138.889 30.9725 138.756C30.7049 138.561 30.3755 138.489 29.9843 138.428H28.9344L24.3231 139.678L24.4569 140.201L25.3833 139.935C25.3833 139.935 24.9201 140.529 24.8584 140.919L24.9201 140.98H24.9407ZM25.4657 141.308C25.4657 141.308 25.5995 140.786 25.7333 140.519C25.8671 140.324 26.0627 140.058 26.2582 139.924C26.4538 139.73 26.7214 139.596 26.9788 139.535C27.2464 139.473 27.5037 139.473 27.7713 139.535C28.0389 139.535 28.2963 139.668 28.5639 139.801C28.8315 139.935 29.0271 140.129 29.1609 140.324C29.3565 140.519 29.4285 140.786 29.552 141.042C29.6138 141.308 29.6138 141.565 29.552 141.893C29.552 142.159 29.4182 142.415 29.2844 142.682C29.1506 142.948 28.955 143.143 28.7595 143.276C28.5639 143.471 28.2963 143.543 28.0389 143.666C27.7713 143.728 27.514 143.728 27.1846 143.666C26.917 143.666 26.6597 143.533 26.392 143.4C26.1244 143.266 25.9289 143.071 25.795 142.877C25.5995 142.682 25.5274 142.415 25.4039 142.159C25.3421 141.893 25.3421 141.636 25.4039 141.308H25.4657Z" fill="#E73233"/>
<path d="M29.3565 137.833L29.2227 137.31L26.0627 137.905H25.2701C25.0025 137.844 24.8069 137.639 24.6113 137.444C24.4158 137.249 24.3437 136.982 24.282 136.726V136.132C24.282 135.937 24.4158 135.742 24.4775 135.609C24.6113 135.414 24.7452 135.281 24.8687 135.219C25.0642 135.086 25.1981 135.025 25.3936 135.025L28.5536 134.43L28.4198 133.835L25.2598 134.43C25.2598 134.43 24.7349 134.563 24.5393 134.758C24.3437 134.891 24.1482 135.086 23.9423 135.353C23.8085 135.547 23.6747 135.814 23.6129 136.142V136.993C23.6129 137.321 23.8085 137.587 24.0041 137.844C24.1379 138.038 24.3952 138.233 24.6628 138.366L24.0658 138.5L24.1996 139.022L29.2021 138.038L29.3359 137.844L29.3565 137.833Z" fill="#E73233"/>
<path d="M24.7452 133.702C24.7452 133.702 25.2084 133.836 25.4657 133.836H25.7951C26.1245 133.836 26.5156 133.702 26.7832 133.507C27.1126 133.313 27.3802 133.118 27.5758 132.851C27.7714 132.585 27.9669 132.257 28.039 131.929C28.1007 131.601 28.1728 131.211 28.1007 130.883C28.1007 130.555 27.9669 130.166 27.7714 129.899C27.5758 129.571 27.3802 129.305 27.1126 129.11C26.845 128.915 26.5156 128.72 26.1862 128.649C25.8568 128.587 25.4657 128.515 25.1363 128.587C24.7452 128.587 24.4158 128.72 24.1482 128.915C23.8188 129.11 23.5512 129.305 23.3556 129.571C23.16 129.838 22.9645 130.166 22.8924 130.494C22.8306 130.822 22.7586 131.211 22.8306 131.539C22.8306 131.867 22.9645 132.257 23.16 132.523C23.3556 132.851 23.5512 133.118 23.8188 133.313C24.0864 133.508 24.4158 133.702 24.7452 133.774V133.713V133.702ZM23.6232 132.185C23.6232 132.185 23.4276 131.662 23.3556 131.396V130.545C23.4174 130.278 23.5512 130.022 23.7467 129.827C23.9423 129.633 24.1379 129.438 24.4055 129.305C24.6731 129.171 24.9304 129.038 25.1981 129.038H25.4657C25.6613 129.038 25.8568 129.038 26.0627 129.1C26.3303 129.161 26.5876 129.294 26.7832 129.489C26.9788 129.622 27.1744 129.879 27.3082 130.084C27.442 130.35 27.5758 130.607 27.5758 130.873V131.724C27.514 131.99 27.3802 132.247 27.1846 132.441C26.9891 132.636 26.7935 132.831 26.5876 132.964C26.32 133.097 26.0627 133.231 25.7951 133.231H24.9407C24.6731 133.169 24.4158 133.036 24.2202 132.841C24.0247 132.646 23.8291 132.452 23.6953 132.247L23.6335 132.185H23.6232Z" fill="#E73233"/>
<path d="M27.7096 127.142L24.4775 127.336C24.4775 127.336 23.9526 127.336 23.685 127.142C23.4174 127.008 23.2218 126.814 23.088 126.619C22.9542 126.424 22.8204 126.158 22.8204 125.901C22.8204 125.707 22.8204 125.512 22.8821 125.307C22.8821 125.112 23.0777 124.917 23.2115 124.784C23.3453 124.651 23.4791 124.518 23.6747 124.456C23.8703 124.395 24.0658 124.323 24.2717 124.323L27.5037 124.128V123.533L24.2099 123.728C23.9423 123.728 23.685 123.79 23.4174 123.923C23.1497 124.056 22.9542 124.189 22.7586 124.446C22.563 124.641 22.4292 124.907 22.3675 125.163C22.3057 125.42 22.2336 125.686 22.2336 126.014C22.2336 126.342 22.3675 126.609 22.5013 126.865C22.6351 127.131 22.8306 127.326 23.0983 127.46H22.5013V128.054L27.6375 127.726V127.131H27.6993L27.7096 127.142Z" fill="#E73233"/>
<path d="M27.442 118.869V118.275L21.122 117.814L25.0128 115.517L25.0746 114.995L21.5131 112.176L27.8331 112.637L27.8949 112.042L20.9161 111.581L20.8544 112.37L24.4158 115.261L20.4632 117.557L20.4015 118.347L27.3802 118.869H27.442Z" fill="#E73233"/>
<path d="M23.6232 110.207C23.6232 110.207 24.0864 110.73 24.4158 110.925C24.7451 111.12 25.0745 111.253 25.4039 111.315H25.795C25.9906 111.315 26.1862 111.315 26.4538 111.253C26.7832 111.192 27.1126 110.987 27.3802 110.792C27.6478 110.597 27.9051 110.33 28.1007 110.074C28.2963 109.746 28.4301 109.418 28.4918 109.09V108.045C28.4301 107.717 28.2242 107.389 28.0287 107.122C27.8331 106.855 27.5655 106.599 27.3081 106.404C26.9788 106.21 26.6494 106.076 26.32 106.015H25.2701C24.9407 106.076 24.6113 106.21 24.3437 106.476C24.0761 106.671 23.8188 106.937 23.6232 107.265C23.4276 107.594 23.2938 107.922 23.2321 108.25V109.295C23.2938 109.623 23.4276 109.951 23.6952 110.218H23.6335L23.6232 110.207ZM23.685 108.311C23.685 108.311 23.8188 107.788 23.9526 107.522C24.0864 107.255 24.282 107.06 24.5496 106.927C24.7451 106.794 25.0128 106.661 25.3421 106.599C25.6098 106.538 25.9392 106.538 26.1965 106.599C26.4641 106.599 26.7214 106.732 26.9891 106.866C27.2567 106.999 27.4522 107.194 27.5861 107.46C27.7199 107.655 27.8537 107.922 27.9154 108.178C27.9772 108.444 27.9772 108.772 27.9154 109.029C27.9154 109.295 27.7816 109.551 27.6478 109.818C27.514 110.084 27.3184 110.279 27.0508 110.412C26.8552 110.546 26.5876 110.679 26.3303 110.741C26.0627 110.802 25.8053 110.802 25.476 110.741C25.2083 110.741 24.951 110.607 24.6834 110.412C24.4158 110.279 24.2202 110.084 24.0864 109.818C23.9526 109.623 23.8188 109.357 23.757 109.1C23.6952 108.844 23.6952 108.578 23.757 108.25L23.6952 108.311H23.685Z" fill="#E73233"/>
<path d="M24.9408 102.406C24.9408 102.406 25.2084 102.078 25.404 102.017C25.5996 101.884 25.7334 101.822 25.929 101.822H26.526L29.6859 102.54L29.8198 101.945L26.6598 101.228H25.8672C25.5996 101.228 25.3422 101.361 25.1467 101.556C24.9511 101.689 24.7555 101.884 24.5497 102.15C24.4159 102.345 24.282 102.612 24.2203 102.94C24.1585 103.268 24.2203 103.534 24.2203 103.862C24.2203 104.129 24.4159 104.385 24.6114 104.651L24.0144 104.518L23.8806 105.041L28.9551 106.158L29.0889 105.636L25.929 104.918C25.929 104.918 25.404 104.723 25.2084 104.528C25.0129 104.334 24.879 104.139 24.8173 103.872C24.7555 103.606 24.7555 103.35 24.8173 103.083C24.8173 102.888 24.9511 102.694 25.0849 102.56L24.9511 102.427L24.9408 102.406Z" fill="#E73233"/>
<path d="M24.8069 100.172L25.3318 100.305L25.5995 99.3826L30.2108 100.633L30.3446 100.11L25.7333 98.8598L26.0009 97.8757L25.4759 97.7424L25.2083 98.665L23.5614 98.2037L23.4276 98.7983L25.0745 99.2595L24.8069 100.182V100.172Z" fill="#E73233"/>
<path d="M26.526 96.9633C26.526 96.9633 26.9171 97.5579 27.1847 97.7526C27.4523 98.0192 27.7817 98.1422 28.1111 98.2754C28.3787 98.3369 28.636 98.4087 28.9654 98.4087H29.161C29.4904 98.4087 29.8198 98.2754 30.1491 98.1422C30.4785 98.0089 30.7461 97.7526 30.9417 97.4861C31.1373 97.2196 31.3328 96.8916 31.4667 96.5635C31.6005 96.1023 31.6622 95.7127 31.5284 95.2514C31.4667 94.8619 31.2608 94.5339 31.0035 94.1341L32.0534 94.4621L32.2489 93.9393L27.37 92.3607L27.1744 92.8835L28.0288 93.15C27.6376 93.2115 27.3082 93.4165 27.0406 93.6728C26.7112 93.9393 26.5157 94.3289 26.3201 94.8517C26.1863 95.1797 26.1863 95.5692 26.1863 95.8972C26.1863 96.2253 26.3201 96.5533 26.4539 96.8813L26.5157 96.9428L26.526 96.9633ZM27.967 93.8778C27.967 93.8778 28.4919 93.6831 28.7596 93.6831C29.0272 93.6831 29.3566 93.6831 29.6139 93.8163C29.8815 93.8778 30.1388 94.0111 30.3344 94.2059C30.53 94.4006 30.7256 94.5954 30.8594 94.8619C30.9932 95.1284 31.0549 95.3847 31.0549 95.6512C31.0549 95.9177 31.0549 96.174 30.9932 96.4405C30.9314 96.7071 30.7976 96.9633 30.602 97.1581C30.4065 97.3529 30.2109 97.5476 29.9433 97.6809C29.6757 97.8141 29.4183 97.8756 29.1507 97.8756C28.8831 97.8756 28.6258 97.8756 28.2964 97.7424C28.0288 97.6809 27.7714 97.5476 27.5759 97.3529C27.3803 97.1581 27.1847 96.9633 27.0509 96.6968C26.9171 96.4303 26.8553 96.174 26.8553 95.9075C26.8553 95.641 26.8553 95.3129 26.9891 95.0567C27.0509 94.7902 27.1847 94.5339 27.3803 94.3391C27.5759 94.1444 27.7714 93.9496 28.039 93.8163L27.9773 93.8778H27.967Z" fill="#E73233"/>
<path d="M31.2608 93.0886C31.5284 93.0886 31.7857 93.0886 32.0534 92.8938C32.321 92.7606 32.5166 92.6273 32.7121 92.4326C32.9077 92.2378 33.0415 91.9713 33.1753 91.715C33.3091 91.4587 33.3091 91.1205 33.3091 90.8642C33.3091 90.6079 33.2474 90.3414 33.0415 90.0134L33.6385 90.2799L33.8341 89.7571L28.9551 87.7889L28.7596 88.3117L31.7857 89.5623C31.7857 89.5623 32.1151 89.7571 32.2489 89.8903C32.3827 90.0236 32.5166 90.2184 32.5783 90.4131C32.6401 90.6079 32.7121 90.8027 32.7121 91.0077C32.7121 91.2127 32.7121 91.3972 32.5783 91.6022C32.4445 91.9918 32.1151 92.2583 31.724 92.453C31.5284 92.5146 31.3328 92.5863 31.127 92.5863C30.9211 92.5863 30.7358 92.5863 30.53 92.453L27.5038 91.2025L27.3082 91.7252L30.3344 92.9758C30.3344 92.9758 30.7976 93.1091 31.0549 93.1091H31.2505L31.2608 93.0886Z" fill="#E73233"/>
<path d="M29.3565 87.1841L29.8814 87.3789L30.2726 86.5281L34.6163 88.4962L34.8119 87.9734L30.5299 86.0053L30.921 85.0827L30.3961 84.8879L30.005 85.7388L28.4198 85.0212L28.2242 85.544L29.7373 86.2615L29.3462 87.1841H29.3565Z" fill="#E73233"/>
<path d="M157.352 47.165C157.619 46.7755 157.681 46.3142 157.681 45.8529C157.681 45.3916 157.547 44.9304 157.29 44.5408C157.094 44.1513 156.693 43.8233 156.302 43.6183L153.8 42.3062L149.714 49.9122L152.411 51.3576C152.802 51.5524 153.203 51.6856 153.667 51.6856L153.728 51.7471C154.192 51.6856 154.655 51.6139 155.046 51.3576C155.437 51.1628 155.766 50.7631 155.972 50.3735C156.24 49.9122 156.24 49.451 156.24 48.9999C156.24 48.7334 156.178 48.5386 156.106 48.2824C156.703 48.0159 157.094 47.6878 157.362 47.165H157.352ZM154.12 49.7892C153.986 49.9225 153.79 49.9225 153.656 49.9225C153.461 49.9225 153.193 49.7892 153.193 49.7892L152.009 49.1947L152.143 49.1332L152.936 47.6263L154.12 48.2209C154.253 48.2824 154.387 48.4156 154.449 48.5489C154.583 48.6822 154.583 48.8769 154.583 49.0102C154.583 49.2049 154.521 49.3382 154.449 49.4715C154.315 49.6047 154.253 49.738 154.12 49.7995V49.7892ZM155.437 45.1251C155.571 45.1866 155.705 45.3199 155.766 45.4531C155.9 45.5864 155.9 45.7812 155.9 45.9144C155.962 46.0477 155.9 46.181 155.839 46.304C155.777 46.4372 155.643 46.5705 155.509 46.632C155.375 46.7653 155.18 46.7652 155.046 46.7652C154.85 46.7652 154.583 46.632 154.583 46.632L153.656 46.1707H153.718L154.511 44.6638L155.437 45.1251Z" fill="white"/>
<path d="M163.281 50.1788L163.147 50.3736C162.879 49.9123 162.488 49.451 161.963 49.123C161.572 48.8565 161.17 48.6617 160.707 48.6002C160.244 48.5387 159.853 48.5387 159.39 48.6002C158.927 48.6617 158.535 48.8667 158.134 49.123C157.805 49.3895 157.475 49.7175 157.208 50.1071C156.94 50.4966 156.744 50.8964 156.683 51.3577C156.549 51.819 156.621 52.2802 156.683 52.6698C156.816 53.1311 156.95 53.5206 157.208 53.9204C157.475 54.2484 157.805 54.5764 158.196 54.8429C158.721 55.171 159.246 55.3657 159.781 55.3657H159.843L159.647 55.6938L161.078 56.6676L164.722 51.1629L163.27 50.1788H163.281ZM158.669 52.8748C158.535 52.68 158.402 52.4853 158.402 52.2802V51.6242C158.463 51.4294 158.535 51.2347 158.669 51.0296C158.803 50.8246 158.937 50.7016 159.132 50.5684C159.328 50.4351 159.524 50.3018 159.729 50.3018H160.388C160.584 50.3633 160.779 50.4351 160.985 50.5684C161.181 50.7016 161.315 50.8349 161.448 51.0296C161.582 51.2244 161.716 51.4192 161.716 51.6242V52.2802C161.654 52.475 161.582 52.6698 161.448 52.8748C161.315 53.0798 161.181 53.2028 160.985 53.3361C160.79 53.4693 160.594 53.6026 160.388 53.6026H159.729C159.534 53.5411 159.338 53.4693 159.132 53.3361C158.927 53.2028 158.803 53.0696 158.669 52.8748Z" fill="white"/>
<path d="M161.037 56.7387L161.108 56.6776L161.088 56.6675L161.037 56.7387Z" fill="white"/>
<path d="M167.295 56.5446C167.233 56.278 167.099 56.0833 166.904 55.8885C166.77 55.7553 166.574 55.5605 166.307 55.3657L166.111 55.171C166.049 55.1095 165.916 55.0377 165.916 54.9044C165.916 54.9044 165.854 54.8429 165.916 54.6379V54.5764C165.977 54.5149 166.049 54.4432 166.111 54.4432H166.379C166.441 54.4432 166.574 54.5047 166.842 54.7097C167.233 55.0377 167.233 55.2325 167.233 55.3042V55.499L167.038 55.9603L168.417 57.0776L168.746 56.36C168.808 56.1653 168.942 55.8373 168.942 55.5707C169.004 55.1812 168.942 54.8532 168.808 54.5252C168.612 54.0639 168.345 53.6743 167.882 53.3463C167.357 52.9568 166.832 52.6903 166.296 52.6903C165.967 52.6288 165.638 52.6903 165.308 52.885C164.979 53.0798 164.711 53.2746 164.516 53.5411C164.186 53.9306 164.053 54.3919 164.053 54.9147C164.053 55.1812 164.186 55.5092 164.32 55.7655C164.454 56.0218 164.711 56.36 165.174 56.6881C165.566 56.9546 165.699 57.2109 165.699 57.2109C165.699 57.2724 165.699 57.3441 165.566 57.5389C165.504 57.6722 165.432 57.6722 165.298 57.6722C165.102 57.6722 164.835 57.6106 164.639 57.4056C164.444 57.2724 164.31 57.1391 164.248 56.9443V56.5548L164.382 56.1653L163.003 55.0479L162.673 55.7655C162.478 56.155 162.478 56.6163 162.478 57.0776C162.611 57.7337 162.941 58.2564 163.6 58.7792C164.125 59.1688 164.65 59.3738 165.247 59.3738L165.308 59.4353H165.504C166.101 59.3738 166.554 59.1073 166.955 58.646C167.614 57.7952 167.48 57.0058 167.285 56.5446H167.295Z" fill="white"/>
<path d="M173.1 57.9181L171.319 57.8566L173.429 55.622L172.112 54.4431L166.245 60.8089L167.562 61.9877L168.746 60.7474L168.684 63.0435L170.465 64.6119V59.63L175.076 59.7633L173.1 57.9181Z" fill="white"/>
<path d="M175.735 66.5186L176.456 67.3079L177.053 66.7851C177.382 66.5186 177.65 66.1291 177.845 65.6678C178.041 65.2065 178.175 64.7452 178.175 64.3557C178.236 63.8944 178.113 63.4331 177.979 63.0436C177.784 62.654 177.588 62.2543 177.259 61.9262C176.929 61.5982 176.538 61.3317 176.137 61.1369C175.673 60.9422 175.282 60.8089 174.819 60.8089C174.356 60.7474 173.893 60.8704 173.502 61.0037C173.11 61.1984 172.709 61.3932 172.38 61.7212C172.05 62.0492 171.783 62.4388 171.587 62.8386C171.453 63.2998 171.319 63.6894 171.319 64.1507C171.319 64.6119 171.381 65.0732 171.515 65.4628C171.711 65.8523 171.906 66.2521 172.236 66.5801C172.627 67.0414 173.09 67.2977 173.615 67.5027C174.006 67.6974 174.335 67.6974 174.737 67.6974L174.799 67.6359C174.994 67.6359 175.323 67.5027 175.323 67.5027H175.982L175.715 66.5186H175.735ZM174.418 62.5823H174.943C175.334 62.6438 175.663 62.7771 175.931 63.1051C176.26 63.4331 176.394 63.7611 176.394 64.1507V64.6735L174.479 62.6438L174.418 62.5823ZM175.076 65.9958C174.809 66.0573 174.552 65.9958 174.284 65.9343C174.016 65.801 173.821 65.6678 173.625 65.473C173.296 65.145 173.162 64.817 173.162 64.4274V63.9046H173.224L175.2 66.0061H175.066L175.076 65.9958Z" fill="white"/>
<path d="M181.335 69.3375L182.714 68.2202L181.993 67.4309L183.434 66.252L182.384 64.8784L180.933 66.0573L180.274 65.2064L178.895 66.3238L179.554 67.1746L175.601 70.3216L176.723 71.6952L180.676 68.4867L181.335 69.3375Z" fill="white"/>
<path d="M185.411 76.1645C185.606 75.775 185.802 75.3752 185.874 74.9139C185.936 74.5244 185.936 74.0631 185.874 73.6018C185.812 73.1405 185.606 72.751 185.349 72.3512C184.958 71.8284 184.556 71.4287 184.093 71.1724L186.008 69.8603L185.02 68.4149L177.835 73.2738L178.823 74.7192L179.091 74.5244V74.5859C179.152 75.1087 179.42 75.6315 179.749 76.1645C180.017 76.4925 180.346 76.8206 180.738 77.0871C181.129 77.2819 181.592 77.4766 181.993 77.5484H182.652L182.59 77.7431C182.786 77.7431 183.054 77.6816 183.249 77.6816C183.712 77.6201 184.103 77.4151 184.505 77.1588C184.896 76.8923 185.164 76.5643 185.431 76.1748L185.411 76.1645ZM181.201 74.9754C181.067 74.7807 180.933 74.5859 180.933 74.3809V73.7248C180.995 73.5301 181.067 73.3353 181.201 73.1303C181.335 72.9253 181.468 72.8023 181.664 72.669C181.86 72.5357 182.055 72.4025 182.261 72.4025H182.92C183.115 72.464 183.311 72.5357 183.517 72.669C183.712 72.8023 183.846 72.9355 183.98 73.1303C184.114 73.325 184.248 73.5198 184.248 73.7248V74.3809C184.186 74.5756 184.114 74.7704 183.98 74.9754C183.846 75.1804 183.712 75.3035 183.517 75.4367C183.321 75.57 183.126 75.7032 182.92 75.7032H182.261C182.065 75.6417 181.87 75.57 181.664 75.4367C181.458 75.3035 181.335 75.1702 181.201 74.9754Z" fill="white"/>
<path d="M190.423 80.4903L190.228 80.6236C190.228 80.1008 190.094 79.5063 189.765 78.9835C189.569 78.5939 189.24 78.1942 188.91 77.9379C188.581 77.6714 188.19 77.4766 187.727 77.3433C187.336 77.2101 186.872 77.2101 186.409 77.2101C185.946 77.2716 185.483 77.4048 185.092 77.5996C184.7 77.7944 184.299 78.1224 184.042 78.4504C183.774 78.84 183.579 79.2397 183.445 79.6293C183.311 80.0188 183.311 80.4801 183.311 80.9414C183.311 81.4027 183.506 81.8639 183.702 82.2535C183.97 82.7763 184.361 83.2376 184.824 83.5041H184.886L184.556 83.6988L185.411 85.2057L191.278 81.987L190.423 80.4801V80.4903ZM185.812 79.1167C186.008 78.9835 186.275 78.922 186.471 78.922H187.068C187.263 78.9835 187.459 79.1167 187.665 79.25C187.86 79.3833 187.994 79.578 188.128 79.7728C188.262 79.9675 188.324 80.2341 188.324 80.4288C188.385 80.6954 188.324 80.8901 188.324 81.0849C188.262 81.2796 188.128 81.4744 187.994 81.6794C187.86 81.8742 187.665 82.0075 187.469 82.1407C187.274 82.274 187.006 82.3355 186.811 82.3355C186.543 82.397 186.347 82.3355 186.152 82.3355C185.956 82.274 185.761 82.1407 185.555 82.0075C185.421 81.8127 185.287 81.6794 185.164 81.4847C185.04 81.2899 184.968 81.0234 184.968 80.8286C184.906 80.5621 184.968 80.3673 184.968 80.1726C185.03 79.9778 185.164 79.783 185.297 79.578C185.431 79.3833 185.627 79.25 185.822 79.1167H185.812Z" fill="white"/>
<path d="M193.668 82.3703L185.792 86.046L186.548 87.6518L194.423 83.9761L193.668 82.3703Z" fill="white"/>
<path d="M194.968 85.2997L186.962 88.6842L187.658 90.3166L195.664 86.9321L194.968 85.2997Z" fill="white"/>
<path d="M155.972 44.0795L153.996 43.0339L150.435 49.656L152.679 50.8348C152.679 50.8348 153.337 51.1013 153.667 51.1013C154.058 51.1013 154.387 50.9681 154.655 50.8348C154.984 50.64 155.18 50.3735 155.375 50.0455C155.571 49.7175 155.643 49.3279 155.571 48.9999C155.571 48.6719 155.437 48.2823 155.18 47.9543C155.9 47.8211 156.436 47.4315 156.693 46.9087C156.888 46.5807 156.961 46.2527 156.961 45.8632C156.961 45.5351 156.827 45.1456 156.631 44.8791C156.436 44.5511 156.168 44.3563 155.839 44.1615L155.972 44.1V44.0795ZM155.767 47.0933C155.767 47.0933 155.303 47.288 155.046 47.288C154.789 47.288 154.521 47.288 154.325 47.0933L152.874 46.3039L154.253 43.7412L155.705 44.5306C155.705 44.5306 156.096 44.7971 156.23 45.0533C156.364 45.2481 156.425 45.5146 156.497 45.7709C156.497 46.0374 156.497 46.2937 156.364 46.4885C156.23 46.6832 156.096 46.878 155.839 47.0112L155.777 47.0728L155.767 47.0933ZM152.936 50.312L151.289 49.3894L152.668 46.8267L154.315 47.7493C154.315 47.7493 154.706 48.0158 154.84 48.2721C154.974 48.4669 155.036 48.7334 155.108 48.9897C155.108 49.2562 155.108 49.5124 154.912 49.7072C154.778 49.902 154.583 50.0967 154.387 50.23C154.192 50.3633 153.924 50.4248 153.667 50.4248C153.409 50.4248 153.142 50.4248 152.946 50.23V50.2915L152.936 50.312Z" fill="#E73233"/>
<path d="M163.476 50.9681L162.951 51.8189C162.951 51.4294 162.889 51.0296 162.683 50.7016C162.488 50.312 162.159 49.984 161.695 49.656C161.366 49.4612 161.037 49.328 160.645 49.2665C160.254 49.205 159.925 49.205 159.524 49.2665C159.122 49.328 158.803 49.4612 158.474 49.7278C158.144 49.9225 157.877 50.189 157.681 50.5171C157.485 50.8451 157.352 51.1731 157.29 51.5626C157.228 51.9522 157.29 52.2802 157.29 52.68C157.352 53.0695 157.485 53.3975 157.681 53.6641C157.877 53.9921 158.144 54.2586 158.474 54.4534C158.865 54.7199 159.328 54.8429 159.791 54.9147C160.182 54.9147 160.645 54.9147 161.047 54.6481L160.388 55.6322L160.913 55.9602L163.939 51.3679L163.414 51.0399L163.476 50.9783V50.9681ZM162.292 52.4135C162.292 52.4135 162.097 53.008 161.963 53.2643C161.767 53.5308 161.572 53.7256 161.304 53.9203C161.037 54.1151 160.779 54.1869 160.512 54.2484H159.657C159.39 54.2484 159.06 54.0536 158.865 53.9203C158.597 53.7256 158.402 53.5308 158.206 53.2643C158.01 52.9978 157.938 52.7415 157.877 52.475V51.6241C157.877 51.3576 158.072 51.0296 158.206 50.7733C158.402 50.5068 158.597 50.312 158.865 50.1173C159.132 49.9225 159.39 49.8508 159.657 49.7893H160.584C160.913 49.7893 161.181 49.984 161.438 50.1173C161.706 50.312 161.901 50.5068 162.097 50.7733C162.292 51.0399 162.364 51.2961 162.426 51.5626V52.4135H162.292Z" fill="#E73233"/>
<path d="M166.379 56.2165C166.379 56.2165 166.049 55.8885 165.854 55.7552C165.854 55.7552 165.72 55.6937 165.586 55.5604C165.452 55.4272 165.319 55.3657 165.257 55.2324C165.061 54.9659 165.061 54.7096 165.257 54.4431C165.257 54.3816 165.319 54.2483 165.391 54.1766C165.524 54.0433 165.658 53.9101 165.854 53.8486C166.049 53.8486 166.245 53.787 166.451 53.8486C166.646 53.8486 166.914 54.0433 167.171 54.2381C167.562 54.5661 167.768 54.9556 167.768 55.3554C167.768 55.4169 167.768 55.5502 167.707 55.6834L168.231 56.073C168.231 56.073 168.365 55.6117 168.427 55.4169C168.427 55.1504 168.427 54.8941 168.293 54.6276C168.159 54.2996 167.902 53.9716 167.573 53.705C167.182 53.377 166.718 53.1823 166.317 53.1823C166.049 53.1823 165.854 53.1823 165.596 53.3155C165.401 53.4488 165.205 53.582 164.999 53.7768C164.732 54.1048 164.67 54.4328 164.67 54.7609C164.67 54.9556 164.732 55.2222 164.866 55.4169C164.999 55.6117 165.195 55.8782 165.586 56.1345C165.916 56.401 166.183 56.6573 166.307 56.9238C166.44 57.1903 166.368 57.5183 166.111 57.8464C165.916 58.0411 165.72 58.1744 165.391 58.1744C165.061 58.1744 164.732 58.0411 164.402 57.7849C164.135 57.5901 163.939 57.3236 163.877 57.0673C163.744 56.8008 163.744 56.5445 163.877 56.278L163.353 55.8885C163.219 56.278 163.157 56.606 163.219 56.934C163.28 57.3953 163.61 57.8566 164.145 58.3077C164.536 58.6357 164.999 58.8304 165.463 58.8304H165.596C166.06 58.8304 166.389 58.6357 166.646 58.3077C167.037 57.7849 167.11 57.3236 166.914 56.8008C166.852 56.606 166.718 56.4113 166.585 56.278L166.389 56.2165H166.379Z" fill="#E73233"/>
<path d="M172.894 58.5127L170.064 58.4512L172.565 55.6322L172.102 55.2427L167.099 60.7576H167.038L167.501 61.2189L169.281 59.2507V62.7975L169.878 63.3203L169.94 59.056L173.563 59.1175L172.905 58.5229L172.894 58.5127Z" fill="#E73233"/>
<path d="M175.076 66.5185C174.747 66.5185 174.356 66.5185 174.027 66.3852C173.697 66.2519 173.368 66.0572 173.1 65.7907C172.709 65.4011 172.503 64.9398 172.503 64.3453C172.503 63.8225 172.637 63.2997 172.966 62.8384L176.456 66.5082L176.651 66.375C176.651 66.375 177.176 65.7804 177.31 65.3909C177.506 65.0013 177.578 64.6733 177.578 64.2735C177.578 63.8738 177.578 63.556 177.382 63.228C177.248 62.8999 177.053 62.5719 176.785 62.3054C176.517 62.0389 176.188 61.7826 175.859 61.6493C175.529 61.5161 175.138 61.3828 174.809 61.3828C174.418 61.3828 174.088 61.3828 173.687 61.5776C173.357 61.7108 173.028 61.9056 172.699 62.1721C172.431 62.4386 172.174 62.7667 172.04 63.0947C171.906 63.4227 171.772 63.8123 171.772 64.1403C171.772 64.5298 171.772 64.8578 171.968 65.2576C172.102 65.5856 172.297 65.9137 172.565 66.1802C172.894 66.5082 173.285 66.7747 173.749 66.8977C174.078 67.031 174.346 67.031 174.675 67.031H175.138L175.004 66.4365L175.066 66.498L175.076 66.5185ZM173.43 62.4489C173.954 62.1209 174.479 61.9876 175.015 62.0594C175.54 62.0594 176.003 62.3259 176.394 62.7154C176.785 63.1049 176.991 63.5662 176.991 64.1608C176.991 64.6836 176.857 65.2064 176.528 65.6676L173.43 62.3874V62.4489Z" fill="#E73233"/>
<path d="M181.397 68.4867L181.86 68.1587L181.201 67.3079L182.652 66.1905L182.261 65.7292L180.81 66.8466L180.151 66.0573L179.688 66.3853L180.347 67.2361L176.394 70.3831L176.785 70.9059L180.738 67.6872L181.397 68.4765V68.4867Z" fill="#E73233"/>
<path d="M185.02 75.6315C185.02 75.6315 185.349 74.9755 185.411 74.586C185.473 74.2579 185.411 73.8684 185.411 73.4686C185.349 73.0791 185.215 72.7511 184.948 72.423C184.618 71.9617 184.289 71.6337 183.898 71.439C183.568 71.2442 183.177 71.1724 182.714 71.1724L185.215 69.4708L184.886 69.0095L178.761 73.2123L179.091 73.7351L179.945 73.1406C179.75 73.5301 179.678 73.9299 179.75 74.3194C179.811 74.7807 180.017 75.1703 180.275 75.6315C180.47 75.9596 180.738 76.2261 181.067 76.4208C181.397 76.6156 181.726 76.7489 182.117 76.8104H183.239C183.63 76.7489 183.96 76.6156 184.227 76.3491C184.557 76.1543 184.824 75.8878 185.02 75.5598V75.6213V75.6315ZM180.408 73.6634C180.408 73.6634 180.542 73.1406 180.738 72.8741C180.872 72.6075 181.129 72.4128 181.335 72.218C181.602 72.0233 181.86 71.9515 182.127 71.89H182.982C183.249 71.89 183.579 72.0848 183.774 72.218C184.042 72.3513 184.237 72.6076 184.433 72.8126C184.629 73.0791 184.701 73.3354 184.762 73.6019V74.4527C184.762 74.7192 184.629 75.0472 184.433 75.242C184.299 75.5085 184.104 75.7033 183.836 75.8981C183.568 76.0928 183.311 76.1646 183.043 76.2261H182.189C181.921 76.2261 181.664 76.0928 181.397 75.8981C181.129 75.7648 180.933 75.5085 180.738 75.3035C180.542 75.037 180.47 74.7807 180.408 74.4527C180.408 74.1247 180.347 73.8581 180.408 73.6019V73.6634Z" fill="#E73233"/>
<path d="M190.156 81.2796L189.302 81.7409C189.497 81.4129 189.631 81.0234 189.569 80.6236C189.569 80.1623 189.435 79.701 189.178 79.25C188.983 78.9219 188.715 78.5939 188.458 78.3991C188.19 78.1326 187.861 78.0096 187.469 77.8764C187.14 77.7431 186.749 77.7431 186.347 77.8149C185.956 77.8149 185.627 77.9481 185.298 78.1429C184.968 78.3376 184.701 78.6042 184.443 78.8604C184.176 79.1885 184.052 79.5165 183.918 79.8445C183.785 80.1725 183.785 80.5621 183.857 80.9618C183.857 81.3514 183.99 81.6794 184.186 82.0074C184.454 82.4687 184.711 82.7967 185.112 82.9915C185.442 83.1863 185.905 83.3195 186.368 83.381L185.318 83.9756L185.586 84.4984L190.393 81.8742L190.125 81.3514L190.187 81.2899L190.156 81.2796ZM187.264 78.3889C187.264 78.3889 187.789 78.5837 188.056 78.7784C188.324 78.9732 188.519 79.168 188.653 79.4345C188.787 79.701 188.921 79.9573 188.921 80.2853C188.921 80.6133 188.921 80.8798 188.859 81.1361C188.797 81.4026 188.663 81.6589 188.468 81.9254C188.272 82.1919 188.077 82.3867 187.809 82.52C187.541 82.6532 187.284 82.7865 186.955 82.7865C186.625 82.7865 186.358 82.7865 186.1 82.725C185.833 82.6635 185.576 82.5302 185.308 82.3355C185.04 82.1407 184.917 81.9459 184.711 81.6794C184.577 81.4129 184.443 81.1566 184.443 80.8286C184.443 80.5006 184.443 80.234 184.505 79.9778C184.567 79.7113 184.701 79.455 184.896 79.1885C185.092 78.9219 185.287 78.7272 185.555 78.5939C185.823 78.4607 186.08 78.3274 186.409 78.3274H186.677C186.872 78.3274 187.068 78.3274 187.274 78.3889H187.264Z" fill="#E73233"/>
<path d="M193.326 83.1965L186.522 86.364L186.77 86.8971L193.573 83.7296L193.326 83.1965Z" fill="#E73233"/>
<path d="M194.572 86.0052L187.655 88.9267L187.891 89.47L194.808 86.5485L194.582 86.0052H194.572Z" fill="#E73233"/>
</svg>
