<svg width="256" height="256" viewBox="0 0 256 256" fill="none" xmlns="http://www.w3.org/2000/svg">
<path d="M255.664 114.314C254.864 117.931 253.594 121.423 252.537 124.967C247.926 140.427 242.869 155.773 238.034 171.167C237.113 174.102 236.381 177.134 235.419 180.049C235.288 180.443 234.818 182.222 234.445 182.247C233.405 181.857 232.155 181.642 231.034 181.468C206.418 177.663 181.202 175.32 156.331 174.332C116.039 172.731 75.7432 174.618 35.7859 179.943C31.9392 180.455 27.5344 181.523 23.7553 181.777C23.221 181.813 22.2572 181.852 21.7634 181.743C20.94 181.561 20.2754 179.39 19.9998 178.603C16.9461 169.878 14.4994 160.578 11.7111 151.722C8.38515 141.154 4.82583 130.64 1.64021 120.028C1.09912 118.224 0.602002 116.404 0.164062 114.57C1.46435 114.466 2.83059 114.407 4.13933 114.483C11.0973 114.896 18.6032 116.272 25.6153 117.018C95.1056 124.405 165.245 124.084 234.609 116.512C239.827 115.943 245.107 115.117 250.332 114.651C252.109 114.492 253.91 114.575 255.657 114.312L255.664 114.314ZM104.219 131.453C105.844 130.469 110.104 131.487 111.778 132.314C112.645 132.741 116.184 135.516 116.85 135.039C117.402 133.57 115.007 131.74 113.805 131.132C108.489 128.447 100.586 128.486 95.5858 131.861C88.6548 136.537 89.6068 142.834 94.1925 148.884C97.1448 152.78 100.941 156.111 103.989 159.885C104.928 161.049 107.505 163.952 105.264 164.872C102.165 166.143 97.5388 164.515 94.8773 162.743C94.1012 162.225 92.062 160.213 91.4854 160.034C89.9636 159.561 90.4083 161.649 91.2216 162.509C96.0389 167.611 106.451 168.262 112.564 165.577C116.798 163.715 119.858 160.207 119.38 155.318C118.807 149.447 108.983 141.422 105.351 136.713C104.793 135.99 103.372 133.629 103.366 132.796C103.362 132.415 103.925 131.632 104.221 131.453H104.219ZM169.748 135.092C170.169 134.065 168.896 132.872 168.157 132.241C162.049 127.013 148.03 128.57 144.256 136.231C139.723 145.433 152.92 154.305 157.498 160.824C158.093 161.673 159.782 164.014 158.431 164.779C157.293 165.423 155.083 165.362 153.808 165.19C151.913 164.933 149.75 164.102 148.138 163.083C147.401 162.616 144.53 160.059 144.131 160.014C142.146 159.794 143.343 161.842 144.084 162.57C149.5 167.902 160.497 168.556 166.879 164.774C170.348 162.717 172.599 159.337 172.115 155.166C171.466 149.564 161.698 141.111 158.103 136.544C157.481 135.753 156.263 134.157 156.231 133.161C156.177 131.492 157.283 131.123 158.691 131.056C160.404 130.971 162.957 131.6 164.521 132.324C165.92 132.97 167.335 134.358 168.537 134.902C168.908 135.07 169.339 135.173 169.746 135.093L169.748 135.092ZM227.864 134.167C219.898 127.028 206.833 127.591 200.039 136.045C191.559 146.597 195.717 161.718 208.495 166.131C216.665 168.953 225.199 165.998 230.371 159.277C231.159 158.254 233.42 155.42 231.264 154.911C230.723 155.053 228.971 158.022 228.437 158.695C224.724 163.379 218.98 165.922 212.986 165.225C212.855 165.132 212.735 164.329 212.717 164.106C212.062 156.368 213.209 147.751 212.708 139.921L212.891 138.751L212.964 131.04L215.503 131.051C219.954 131.426 223.968 133.201 227.181 136.282C227.925 136.997 229.044 138.922 230.217 138.832C230.427 138.817 230.545 138.753 230.615 138.546C231.066 137.188 228.789 134.989 227.865 134.16L227.864 134.167ZM46.5011 165.208V130.46C46.5011 130.408 46.2204 130.21 46.1206 130.165L30.8519 130.028C29.5855 130.171 30.2567 131.901 30.2703 132.659C30.4039 140.235 29.9575 148.032 30.4309 155.661C31.0126 165.042 38.0044 166.869 46.08 167.236C54.4837 167.618 63.1073 166.07 64.8506 156.588C66.183 149.346 65.6892 140.156 65.7975 132.679C65.8093 131.837 66.0629 130.983 65.762 130.051C63.9071 129.728 63.5334 129.703 63.579 131.642C63.6044 132.753 63.5824 133.731 63.5689 134.85C63.4894 141.707 64.1979 149.948 62.9923 156.591C61.7867 163.235 56.1087 165.222 49.8051 165.386C48.6891 165.414 47.6002 165.355 46.4994 165.208H46.5011ZM76.7307 155.448C72.49 155.929 68.4268 159.62 70.9868 163.974C74.4041 169.785 87.0942 167.75 85.8902 160.061C85.8361 159.711 85.4506 158.996 85.2562 158.666C83.5129 155.71 79.9147 155.088 76.7307 155.448ZM129.828 155.45C125.203 155.922 121.008 160.183 124.535 164.533C127.07 167.66 132.535 168.018 135.895 166.081C138.952 164.319 140.223 160.759 137.807 157.854C135.913 155.579 132.618 155.164 129.828 155.448V155.45ZM182.584 155.452C179.087 155.825 175.176 158.634 176.241 162.54C178.104 169.368 190.71 168.585 191.708 162.21C192.556 156.791 186.995 154.98 182.582 155.452H182.584Z" fill="#0060AC"/>
<path d="M193.003 57.2602C203.038 68.1039 209.296 82.1146 212.299 96.553C212.762 98.7816 213.557 102.256 213.728 104.424C213.794 105.261 213.574 109.076 213.804 109.421C213.971 109.673 214.844 109.597 215.167 109.576C218.29 109.387 221.956 108.77 225.123 108.374C232.837 107.412 240.512 106.142 248.224 105.182L247.338 111.734L247.055 111.869C243.117 112.19 239.21 112.867 235.288 113.296C168.225 120.667 100.85 120.986 33.7366 114.649C26.5013 113.966 18.7723 113.298 11.6063 112.261C10.9452 112.165 9.48593 112.011 8.9719 111.683C7.99457 111.059 7.31652 106.252 7.52958 105.009L30.715 108.371C33.5269 108.705 36.3304 108.937 39.1441 109.241C39.9151 109.324 42.2113 109.99 42.7135 109.593C43.1565 109.241 42.9029 106.541 42.9519 105.775C43.4609 97.6775 45.681 89.5054 48.5724 81.9742C63.8496 42.1928 106.823 19.5281 148.534 29.6126C157.22 31.7127 164.385 34.9676 172.08 39.3774C180.204 44.0341 186.691 50.4392 193.003 57.2602ZM170.443 44.144C166.108 41.6601 161.64 39.3707 156.96 37.5885C145.056 33.0552 131.977 31.4252 119.297 32.8117C116.546 33.1127 113.825 33.7519 111.095 34.1644C110.848 34.3454 111.903 36.7447 112.08 37.1539C117.454 49.4619 126.26 60.9531 136.578 69.4836C136.718 69.5327 136.84 69.4803 136.972 69.438C137.41 69.2993 140.125 66.2355 140.766 65.6115C147.094 59.455 154.048 53.684 161.601 49.078C164.412 47.3635 167.35 45.8687 170.342 44.4907L170.445 44.1457L170.443 44.144ZM131.612 72.1519C121.49 61.5872 113.824 48.8413 108.374 35.2804C108.029 34.7748 107.065 35.1282 106.528 35.2618C93.5534 38.4813 79.3127 47.4125 70.1701 57.0726C69.7153 57.5528 67.5932 59.8896 67.4782 60.3005C67.4089 60.6471 67.5239 60.4932 67.7031 60.5592C68.8242 60.9734 70.2986 61.058 71.4974 61.3353C86.7442 64.8506 102.316 70.9818 115.944 78.606C118.526 80.0517 121.086 81.8542 123.665 83.2289C124.135 83.4791 124.738 83.939 125.227 83.5501L132.998 73.8969C133.335 73.2628 131.982 72.5357 131.613 72.1502L131.612 72.1519ZM184.758 55.1906C183.586 54.0543 182.335 52.9028 181.099 51.8325C180.519 51.3303 177.898 49.0442 177.42 48.9174C177.108 48.8346 176.796 48.843 176.483 48.914C163.646 53.2004 152.736 60.8432 142.961 70.0078C142.625 70.3223 140.646 72.2364 140.69 72.4461C142.197 73.7007 143.933 74.6747 145.641 75.6216C160.475 83.8511 175.952 85.6587 192.654 83.3472C195.989 82.8856 199.281 82.189 202.57 81.5092C202.879 81.2928 199.947 75.5303 199.614 74.9114C195.717 67.6862 190.641 60.8973 184.758 55.1906ZM48.8683 100.449C52.4581 99.8063 55.9515 98.643 59.5192 97.8246C74.0845 94.4851 91.2267 92.801 105.719 97.1127C108.475 97.9328 111.108 99.2145 113.885 99.9466L121.215 88.5501L120.892 88.1984C105.324 78.2154 88.1425 69.7491 70.0078 65.5304C69.0017 65.297 65.0535 64.3095 64.3467 64.433C63.9882 64.4955 63.5029 65.0738 63.2459 65.368C58.2933 71.0156 53.0702 82.8957 50.9819 90.1344C50.6235 91.3772 48.449 99.9838 48.8683 100.449ZM208.98 110.239C208.807 104.727 207.95 99.2212 206.716 93.851C206.364 92.3224 205.984 90.6079 205.529 89.1199C205.35 88.5315 204.912 86.7527 204.311 86.6106C199.056 87.4882 193.769 88.1933 188.449 88.6109C175.617 89.617 161.04 89.1114 148.974 84.2958C144.444 82.4866 140.431 79.8843 136.681 76.8001C136.426 76.7781 135.891 77.4088 135.694 77.6185C133.665 79.7727 131.138 82.7825 129.36 85.1497C128.572 86.198 128.384 86.3587 129.444 87.2565C132.351 89.7168 135.903 91.898 138.906 94.365C143.857 98.4333 149.332 103.464 153.71 108.137C155.242 109.774 156.759 111.999 158.348 113.475C159.156 114.226 159.85 114.192 160.9 114.15C175.142 113.577 190.355 112.53 204.516 110.931C206.006 110.762 207.512 110.535 208.982 110.239H208.98ZM148.025 111.538C142.077 105.023 133.972 97.5118 126.703 92.5304C126.265 92.2294 124.958 91.2369 124.483 91.5159L117.542 102.082L117.77 102.478C121.301 104.723 124.902 107.532 127.584 110.76C128.22 111.526 130.017 114.345 130.668 114.608C131.624 114.994 134.37 114.847 135.535 114.828C139.703 114.762 144.417 114.747 148.554 114.49C149.143 114.453 149.708 114.214 150.321 114.312C150.398 114.02 150.201 113.974 150.07 113.805C149.481 113.044 148.678 112.255 148.025 111.539V111.538ZM82.6522 98.8053C72.9093 98.9828 60.9531 101.487 51.9153 105.099C51.239 105.369 48.5572 106.423 48.1903 106.785C47.9214 107.05 47.9569 109.319 48.099 109.755C48.3543 110.543 50.2109 110.631 51.0039 110.74C57.5105 111.629 64.5361 111.94 71.1035 112.452C81.5092 113.264 91.9605 114.045 102.38 114.317C103.117 114.336 104.737 114.427 105.354 114.235C106.106 114 106.911 111.751 107.344 110.983C108.193 109.482 109.272 107.928 110.002 106.369C110.178 105.993 110.609 105.258 110.253 104.925C106.108 102.738 101.659 101.147 97.062 100.188C92.4797 99.2331 87.3191 98.7174 82.6522 98.8036V98.8053ZM109.911 114.651C110.724 114.691 111.556 114.602 112.37 114.644C115.231 114.794 119.39 115.153 122.177 114.828C122.44 114.798 122.777 114.781 122.76 114.4C121.108 112.958 119.628 111.32 117.938 109.921C117.359 109.444 114.623 107.28 114.076 107.366L109.911 114.651Z" fill="#1E191C"/>
<path d="M225.559 190.568C218.591 189.437 211.641 188.099 204.656 187.049C189.535 184.773 174.276 183.147 159.028 182.289C117.121 179.929 75.3627 182.381 34.122 189.777C33.5573 189.878 30.0927 190.779 29.9303 190.573C29.8593 189.979 29.8407 189.242 29.719 188.671C29.4197 187.284 28.745 185.86 28.6503 184.484C28.8769 184.121 30.5543 183.926 31.0565 183.836C36.9746 182.776 43.476 182.147 49.4803 181.462C88.9033 176.961 128.72 175.815 168.331 178.228C187.874 179.418 207.417 181.165 226.741 184.241C226.944 184.35 227.044 184.455 227.047 184.699C227.055 185.243 226.665 187.096 226.501 187.7C226.251 188.62 225.655 189.547 225.559 190.568Z" fill="#1E191C"/>
<path d="M214.746 224.051C214.932 224.237 214.364 227.84 214.075 228.2C213.538 228.863 211.944 228.542 211.119 228.795C156.784 228.679 102.412 228.995 48.1023 228.626L40.5846 228.197C40.4308 228.111 40.3394 227.985 40.287 227.818C39.9607 226.793 39.9184 225.229 39.5667 224.137L214.749 224.051H214.746Z" fill="#1E191C"/>
<path d="M52.4428 217.94L52.3329 190.569C52.7996 190.062 53.4692 190.317 54.0238 190.231C58.4049 189.56 62.791 189.178 67.2211 189.056C69.913 188.982 72.1636 188.454 74.2383 190.647C76.313 192.84 76.3012 199.727 73.895 201.817C73.5332 202.132 72.1923 202.803 72.1906 203.168C72.1873 203.919 74.2738 204.002 74.7287 204.36C75.5893 205.038 76.1828 206.996 76.2657 208.065C76.6072 212.554 75.8159 217.69 70.4237 218.131C64.9401 218.579 58.8868 217.793 53.3407 218.141L52.4411 217.94H52.4428ZM68.1444 199.617C68.3016 198.684 68.1444 196.942 68.1444 195.897C68.1444 195.517 65.4711 195.623 65.0095 195.637C64.6493 195.647 64.3314 195.794 64.0017 195.813C63.1951 195.855 60.9429 195.681 60.3646 196.065C59.859 196.401 59.9267 200.666 60.2276 200.858C61.1035 201.185 61.8779 200.902 62.6524 200.887C63.9645 200.862 65.3814 200.968 66.6665 200.674C67.3226 200.524 68.0192 200.368 68.146 199.617H68.1444ZM67.5525 206.127H59.859C59.4076 207.992 59.3923 209.988 59.6899 211.876H65.8617C66.0663 211.876 68.0277 211.347 68.1951 211.21C68.8494 210.677 68.8292 207.084 68.2712 206.506C68.2424 206.477 67.5931 206.134 67.5525 206.127Z" fill="#0060AC"/>
<path d="M129.185 195.813L122.361 195.958L122.107 195.705C122.014 194.812 122.361 193.559 121.395 193.035C120.43 192.511 116.233 192.703 115.149 193.19C113.69 193.846 113.511 197.122 114.936 197.803C115.579 198.111 117.97 198.4 118.808 198.496C122.679 198.944 126.58 198.228 128.878 202.123C130.48 204.841 130.587 212.406 128.597 214.92C125.491 218.845 117.094 219.474 112.577 218.423C108.847 217.556 106.783 214.195 106.208 210.59C106.147 210.207 105.922 208.3 106.127 208.138C106.467 208.011 106.739 207.852 107.116 207.811C109.084 207.597 111.37 207.952 113.354 208.009L113.607 208.263C113.671 209.748 113.665 211.028 115.405 211.2C116.554 211.315 119.167 211.327 120.296 211.185C121.057 211.088 122.281 210.782 122.413 209.92C122.51 209.299 122.636 207.844 122.572 207.243C122.325 204.915 119.977 205.75 118.272 205.625C117.243 205.549 116.223 205.258 115.217 205.13C112.024 204.722 108.161 204.776 106.986 201.017C106.505 199.484 106.514 193.598 106.717 191.855C107.109 188.475 110.677 185.849 113.905 185.515C117.133 185.182 123.521 185.149 126.093 186.814C127.586 187.781 129.187 190.583 129.187 192.343V195.81L129.185 195.813Z" fill="#0060AC"/>
<path d="M133.92 185.499L141.529 185.668C141.554 186.102 141.375 186.496 141.351 186.929C141.208 189.651 141.082 194.279 141.358 196.912C141.608 199.3 143.189 198.217 144.131 196.981C145 195.842 145.971 194.235 146.737 192.991C148.076 190.811 149.202 188.502 150.565 186.336C151.278 185.82 151.921 186.183 152.597 186.183C154.882 186.183 157.169 186.165 159.452 186.177C159.709 186.415 157.768 189.602 157.494 190.05C155.188 193.826 152.54 197.421 150.179 201.166L149.976 201.814L159.79 218.134H151.928C151.59 218.134 150.976 217.558 150.756 217.277C148.336 214.189 146.586 209.769 144.14 206.646C143.634 206.001 141.828 204.563 141.571 205.908C141.223 209.971 141.4 214.056 141.361 218.134L133.92 217.964V185.499Z" fill="#0060AC"/>
<path d="M105.175 217.962C103.156 218.082 100.844 218.309 98.8271 218.139C98.3621 218.101 97.5928 218.009 97.4322 217.505C97.1498 216.379 96.8691 213.209 95.584 212.926C93.3351 212.913 91.1032 213.133 88.8492 213.067C88.276 213.05 86.7018 212.597 86.318 213.057C86.1387 213.271 85.9849 214.328 85.8124 214.749C85.3711 215.82 84.7302 216.832 84.3464 217.933C82.0739 218.292 79.7269 218.17 77.4442 217.965L85.5503 187.433C87.0011 187.367 88.4384 186.982 89.8756 186.855C90.6872 186.784 91.7677 186.706 92.5726 186.677C93.4772 186.645 96.0237 186.452 96.5309 187.13C96.9706 187.719 97.5827 189.777 97.8211 190.575C98.773 193.764 99.4426 197.186 100.32 200.419C101.91 206.275 103.551 212.122 105.176 217.965L105.175 217.962ZM88.1154 206.449C88.3267 206.697 92.6013 206.692 93.2607 206.641C93.5736 206.618 94.5949 206.511 94.6811 206.193L92.1093 195.776L91.2266 194.295C90.9628 194.563 90.7752 194.878 90.6433 195.23C89.8232 197.433 88.5246 202.866 88.1391 205.236C88.0748 205.634 88.0647 206.05 88.1171 206.447L88.1154 206.449Z" fill="#0060AC"/>
<path d="M169.597 205.62C169.356 206.425 169.278 210.83 169.787 211.18L181.941 211.538L182.11 218.64L162.01 218.28L161.818 186.513L182.11 187.866L181.938 194.459C179.542 194.247 177.156 194.205 174.755 194.12C174.43 194.109 174.107 193.955 173.747 193.945C173.157 193.929 169.844 193.85 169.67 194.11C169.652 195.732 169.109 197.857 169.625 199.42C169.77 199.861 170.44 199.66 170.852 199.714C171.003 199.734 171.153 199.869 171.204 199.869H180.926V205.619H169.597V205.62Z" fill="#0060AC"/>
<path d="M184.815 188.458C184.88 188.248 185.191 188.194 185.399 188.196C186.156 188.201 187.313 188.471 188.113 188.542C192.457 188.923 196.809 189.413 201.132 189.895C201.885 189.979 206.559 190.318 206.723 190.561L206.626 197.166C204.369 196.571 202.01 196.31 199.692 196.403L199.394 196.949C199.235 202.345 199.474 207.756 199.364 213.151C199.355 213.593 199.193 214.007 199.179 214.489C199.147 215.659 199.088 217.024 199.357 218.133H192.086V196.912C192.086 196.853 191.912 195.865 191.883 195.762C191.828 195.566 191.657 195.394 191.462 195.338L184.815 194.968V188.458Z" fill="#0060AC"/>
<path d="M46.501 165.208C47.6018 165.353 48.6907 165.414 49.8067 165.385C56.1103 165.221 61.7426 163.49 62.9939 156.591C64.2452 149.692 63.491 141.706 63.5705 134.85C63.584 133.732 63.606 132.753 63.5806 131.642C63.535 129.703 63.9087 129.728 65.7636 130.051C66.0645 130.984 65.8109 131.837 65.7991 132.679C65.6892 140.156 66.1846 149.346 64.8522 156.588C63.1072 166.07 54.4854 167.617 46.0817 167.235C38.006 166.868 31.0142 165.042 30.4325 155.661C29.9591 148.032 30.4055 140.235 30.2719 132.658C30.2584 131.901 29.5871 130.173 30.8536 130.027L46.1222 130.164C46.2237 130.21 46.5027 130.408 46.5027 130.46V165.208H46.501Z" fill="white"/>
<path d="M169.748 135.092C169.34 135.173 168.911 135.07 168.539 134.901C167.337 134.356 165.923 132.968 164.523 132.322C162.957 131.598 160.406 130.969 158.693 131.054C157.284 131.123 156.179 131.492 156.233 133.159C156.265 134.155 157.482 135.751 158.104 136.542C161.699 141.11 171.468 149.562 172.117 155.164C172.6 159.336 170.35 162.714 166.88 164.772C160.499 168.554 149.501 167.902 144.085 162.569C143.345 161.84 142.148 159.792 144.133 160.012C144.532 160.056 147.403 162.612 148.14 163.081C149.752 164.102 151.916 164.932 153.81 165.188C155.085 165.36 157.295 165.423 158.433 164.777C159.784 164.011 158.094 161.669 157.499 160.822C152.922 154.303 139.725 145.431 144.258 136.23C148.032 128.57 162.051 127.011 168.158 132.239C168.897 132.872 170.171 134.064 169.75 135.09L169.748 135.092Z" fill="white"/>
<path d="M104.219 131.453C103.922 131.632 103.36 132.415 103.364 132.795C103.371 133.631 104.791 135.989 105.349 136.713C108.983 141.422 118.805 149.446 119.378 155.318C119.857 160.206 116.796 163.717 112.562 165.577C106.45 168.263 96.0372 167.611 91.2199 162.509C90.4066 161.649 89.9619 159.56 91.4837 160.034C92.0602 160.213 94.0995 162.225 94.8756 162.743C97.537 164.515 102.165 166.143 105.263 164.871C107.503 163.952 104.926 161.048 103.988 159.885C100.939 156.111 97.1447 152.78 94.1908 148.884C89.6051 142.834 88.6531 136.537 95.584 131.86C100.584 128.487 108.487 128.446 113.803 131.132C115.006 131.739 117.402 133.568 116.849 135.039C116.182 135.514 112.643 132.741 111.776 132.313C110.102 131.487 105.841 130.469 104.218 131.453H104.219Z" fill="white"/>
<path d="M227.864 134.167C228.787 134.994 231.066 137.195 230.613 138.553C230.544 138.759 230.425 138.822 230.216 138.839C229.044 138.928 227.925 137.002 227.179 136.289C223.968 133.206 219.952 131.433 215.502 131.057L212.962 131.047L212.889 138.758L212.707 139.928C213.207 147.758 212.061 156.375 212.715 164.112C212.734 164.336 212.854 165.139 212.984 165.232C218.976 165.927 224.72 163.384 228.435 158.702C228.968 158.029 230.721 155.059 231.262 154.917C233.418 155.425 231.157 158.259 230.37 159.283C225.197 166.004 216.663 168.96 208.493 166.138C195.715 161.725 191.557 146.603 200.037 136.052C206.831 127.598 219.896 127.035 227.862 134.174L227.864 134.167Z" fill="white"/>
<path d="M182.583 155.452C186.997 154.98 192.558 156.791 191.709 162.21C190.71 168.585 178.104 169.368 176.243 162.54C175.177 158.636 179.088 155.825 182.585 155.452H182.583Z" fill="white"/>
<path d="M76.7307 155.448C79.9146 155.088 83.5128 155.71 85.2561 158.666C85.4506 158.996 85.8344 159.711 85.8902 160.061C87.0941 167.748 74.404 169.785 70.9867 163.974C68.4267 159.62 72.4916 155.928 76.7307 155.448Z" fill="white"/>
<path d="M129.828 155.45C132.618 155.164 135.913 155.578 137.807 157.856C140.223 160.761 138.95 164.32 135.895 166.082C132.535 168.018 127.07 167.661 124.535 164.535C121.008 160.184 125.205 155.923 129.828 155.452V155.45Z" fill="white"/>
<path d="M208.98 110.239C207.51 110.535 206.006 110.761 204.514 110.93C190.353 112.532 175.14 113.578 160.898 114.15C159.848 114.192 159.153 114.226 158.346 113.475C156.757 111.997 155.24 109.772 153.708 108.137C149.33 103.463 143.857 98.4331 138.904 94.3648C135.901 91.8978 132.349 89.7165 129.442 87.2563C128.382 86.3585 128.57 86.1995 129.358 85.1495C131.137 82.7822 133.664 79.7725 135.692 77.6183C135.89 77.4069 136.424 76.7779 136.679 76.7999C140.431 79.8841 144.442 82.4863 148.972 84.2956C161.038 89.1129 175.615 89.6168 188.447 88.6107C193.767 88.1931 199.054 87.488 204.31 86.6104C204.91 86.7524 205.346 88.5295 205.527 89.1197C205.982 90.6076 206.362 92.3239 206.714 93.8508C207.947 99.221 208.806 104.727 208.978 110.239H208.98Z" fill="white"/>
<path d="M48.8683 100.449C48.4489 99.9819 50.6234 91.377 50.9819 90.1342C53.0684 82.8955 58.2933 71.0154 63.2459 65.3678C63.5029 65.0753 63.9882 64.4953 64.3466 64.4328C65.0534 64.3093 69.0016 65.2951 70.0077 65.5302C88.1441 69.7506 105.324 78.2152 120.892 88.1982L121.214 88.5499L113.884 99.9464C111.108 99.216 108.475 97.9326 105.719 97.1125C91.2249 92.8007 74.0844 94.4849 59.5192 97.8244C55.9531 98.6428 52.458 99.8061 48.8683 100.449Z" fill="white"/>
<path d="M131.612 72.1519C131.98 72.5357 133.331 73.2645 132.997 73.8986L125.225 83.5518C124.738 83.939 124.133 83.4808 123.663 83.2306C121.084 81.8559 118.526 80.0517 115.942 78.6077C102.315 70.9835 86.7424 64.8506 71.4957 61.337C70.2968 61.0614 68.8241 60.9751 67.7013 60.5609C67.5238 60.4949 67.4071 60.6488 67.4765 60.3022C67.5914 59.8913 69.7135 57.5545 70.1683 57.0742C79.311 47.4142 93.5516 38.4847 106.526 35.2635C107.065 35.1299 108.027 34.7765 108.372 35.2821C113.824 48.843 121.49 61.5889 131.61 72.1536L131.612 72.1519Z" fill="white"/>
<path d="M184.758 55.1905C190.64 60.8973 195.717 67.6879 199.614 74.9113C199.947 75.5302 202.881 81.2927 202.57 81.5092C199.281 82.1889 195.987 82.8856 192.654 83.3472C175.952 85.6586 160.475 83.851 145.641 75.6215C143.933 74.6746 142.195 73.7007 140.69 72.446C140.646 72.2364 142.624 70.3223 142.961 70.0078C152.734 60.8432 163.644 53.2004 176.483 48.914C176.796 48.8413 177.108 48.8328 177.419 48.9174C177.896 49.0459 180.517 51.3303 181.099 51.8324C182.335 52.9028 183.586 54.0543 184.758 55.1905Z" fill="white"/>
<path d="M170.443 44.1439L170.34 44.4889C167.349 45.8669 164.41 47.3617 161.6 49.0762C154.048 53.6822 147.092 59.4532 140.764 65.6097C140.124 66.2337 137.406 69.2975 136.97 69.4362C136.838 69.4785 136.718 69.5292 136.576 69.4818C126.258 60.9513 117.452 49.4601 112.079 37.1521C111.901 36.7446 110.846 34.3453 111.093 34.1626C113.824 33.7501 116.544 33.1109 119.295 32.8099C131.975 31.4234 145.054 33.0534 156.958 37.5867C161.638 39.3689 166.106 41.6583 170.441 44.1422L170.443 44.1439Z" fill="white"/>
<path d="M82.6521 98.8052C87.319 98.7206 92.4796 99.2346 97.0619 100.19C101.659 101.149 106.106 102.74 110.252 104.926C110.609 105.261 110.178 105.995 110.002 106.37C109.272 107.927 108.195 109.481 107.344 110.985C106.91 111.752 106.106 113.999 105.354 114.236C104.737 114.429 103.115 114.338 102.38 114.319C91.9621 114.047 81.5091 113.264 71.1034 112.454C64.536 111.942 57.5104 111.632 51.0038 110.741C50.2108 110.633 48.3542 110.543 48.0989 109.757C47.9569 109.321 47.9214 107.052 48.1902 106.786C48.5571 106.424 51.2389 105.369 51.9152 105.1C60.953 101.489 72.9093 98.9827 82.6521 98.8068V98.8052Z" fill="white"/>
<path d="M148.025 111.537C148.68 112.254 149.483 113.042 150.069 113.803C150.201 113.974 150.396 114.02 150.321 114.311C149.708 114.212 149.141 114.451 148.554 114.488C144.417 114.745 139.703 114.76 135.535 114.826C134.37 114.845 131.624 114.992 130.668 114.606C130.017 114.344 128.22 111.524 127.584 110.758C124.904 107.53 121.301 104.721 117.77 102.476L117.542 102.08L124.483 91.514C124.958 91.235 126.265 92.2275 126.703 92.5285C133.972 97.5099 142.077 105.019 148.025 111.536V111.537Z" fill="white"/>
<path d="M109.911 114.65L114.076 107.366C114.623 107.28 117.361 109.444 117.938 109.921C119.628 111.319 121.108 112.958 122.76 114.4C122.777 114.781 122.44 114.797 122.177 114.828C119.39 115.154 115.229 114.794 112.369 114.644C111.556 114.601 110.724 114.689 109.911 114.65Z" fill="white"/>
</svg>
