<svg width="256" height="256" viewBox="0 0 256 256" fill="none" xmlns="http://www.w3.org/2000/svg">
<path d="M96.8724 53.9792L96.1961 54.8809C93.6886 58.0894 90.5326 60.5938 86.725 62.3972C82.9144 64.1512 78.7053 65.0282 74.0949 65.0282C65.2754 65.0282 58.284 62.073 53.1208 56.1593C48.8098 51.098 46.6575 45.0609 46.6575 38.0417C46.6575 30.6242 49.2638 24.3863 54.4764 19.325C59.6891 14.2637 66.2049 11.7314 74.0208 11.7314C76.3769 11.7314 78.6189 11.9569 80.7496 12.4077C82.8804 12.8586 84.8969 13.5627 86.8022 14.5138C90.6592 16.4191 93.7936 19.0501 96.1992 22.4069L96.8755 23.3086L91.2367 27.5948L90.5604 26.6931C88.6056 24.1362 86.2001 22.1567 83.3436 20.7548C80.5366 19.4022 77.4547 18.7259 74.098 18.7259C70.4386 18.7259 67.0325 19.6276 63.8734 21.431C60.7174 23.1851 58.3118 25.5412 56.6566 28.4965C54.9026 31.4549 54.0256 34.7869 54.0256 38.4956C54.0256 41.2008 54.5011 43.7824 55.4553 46.2374C56.4559 48.5936 57.9104 50.6996 59.8157 52.5525C60.7668 53.5067 61.7828 54.3188 62.8605 54.9951C63.9382 55.6714 65.0777 56.2612 66.2821 56.7615C68.8884 57.7126 71.5935 58.1913 74.4006 58.1913C77.606 58.1913 80.5643 57.5397 83.2695 56.2365C85.9252 55.0353 88.3802 53.1299 90.6376 50.5236L91.3139 49.7732L96.8755 53.9823L96.8724 53.9792Z" fill="black"/>
<path d="M144.607 24.2877C147.362 28.5986 148.742 33.6599 148.742 39.4716C148.742 44.533 147.64 48.9952 145.435 52.8522C143.28 56.7123 140.398 59.5934 136.788 61.4957C133.28 63.3516 128.395 64.278 122.129 64.278H105.59V13.4609H116.79C124.106 13.4609 129.495 14.0631 132.953 15.2644C137.965 17.0184 141.85 20.0261 144.604 24.2846L144.607 24.2877ZM112.51 57.438H116.945C123.661 57.438 128.219 57.0365 130.625 56.2367C134.133 55.0849 136.788 53.0807 138.592 50.2243C140.596 47.3184 141.6 43.761 141.6 39.5488C141.6 35.3367 140.522 31.3562 138.366 28.1971C136.211 25.0906 133.256 22.9598 129.495 21.808C126.536 20.9062 121.626 20.4554 114.761 20.4554H112.507V57.4411L112.51 57.438Z" fill="black"/>
<path d="M209.105 38.2671L209.031 39.3943C209.031 47.2132 206.699 53.4511 202.039 58.111C197.429 62.7215 191.265 65.0282 183.548 65.0282C178.786 65.0282 174.602 64.2531 170.995 62.6968C167.286 61.0416 164.053 58.639 161.298 55.48C157.089 50.5175 154.983 44.8323 154.983 38.4154C154.983 33.6536 156.209 29.1697 158.667 24.9607C161.073 20.8536 164.38 17.6204 168.589 15.2642C172.749 12.908 177.486 11.7314 182.798 11.7314C184.904 11.7314 186.957 11.9322 188.961 12.3336C190.965 12.7351 192.92 13.3125 194.826 14.0629C198.534 15.6162 202.218 18.0743 205.878 21.431L206.705 22.2586L201.292 27.4466L200.542 26.619C197.886 24.0127 195.029 22.0857 191.972 20.832C189.014 19.5288 186.006 18.8772 182.952 18.8772C179.345 18.8772 175.911 19.7542 172.653 21.5082C169.297 23.3117 166.764 25.7173 165.06 28.725C163.256 31.7328 162.355 34.9135 162.355 38.2733C162.355 41.6331 163.281 45.0639 165.137 48.1211C167.042 51.3296 169.596 53.7846 172.805 55.4892C176.112 57.2927 179.722 58.1944 183.628 58.1944C188.39 58.1944 192.398 56.8665 195.656 54.2108C196.456 53.5592 197.172 52.8582 197.799 52.1047C198.426 51.3543 198.988 50.5514 199.492 49.6991C200.193 48.4454 200.742 46.9693 201.147 45.2647H185.886V38.2733H209.114L209.105 38.2671Z" fill="black"/>
<path d="M193.665 105.8C192.473 103.731 191.182 101.758 189.36 100.038C190.549 98.7962 190.203 97.3294 190.16 95.9984C189.557 95.1585 188.603 94.7354 188.526 93.6639C188.514 93.4817 188.192 93.2964 187.982 93.1574C187.439 92.7961 186.815 92.5305 186.34 92.0982C185.225 91.0884 184.366 89.7791 182.56 89.8069C182.137 89.8131 181.72 89.0966 181.025 89.1151C178.956 89.1738 176.887 89.1429 174.818 89.1769C174.435 89.1831 173.984 89.2356 173.679 89.4394C171.804 90.6932 169.763 91.7863 168.157 93.3304C164.828 96.5358 161.212 99.4849 158.668 103.462C157.392 105.454 156.287 107.464 155.681 109.765C155.336 111.081 154.672 112.313 154.332 113.628C153.9 115.311 152.97 116.877 153.282 118.751C153.455 119.792 153.319 120.882 153.313 121.95C153.307 122.886 153.452 123.732 153.903 124.622C154.418 125.641 154.931 126.694 155.045 127.944C155.135 128.936 155.737 129.958 156.333 130.81C157.988 133.188 159.758 135.489 161.487 137.817C162.33 138.953 162.676 140.294 162.911 141.637C163.306 143.913 162.809 146.158 161.907 148.184C161.49 149.119 161.657 150.274 160.743 151.059C160.134 151.583 159.773 152.399 159.242 153.168H158.362C157.716 151.38 156.765 149.817 155.373 148.539C154.344 147.594 153.353 146.602 152.374 145.605C151.389 144.604 149.978 144.046 149.357 142.668C149.308 142.557 149.178 142.449 149.061 142.409C147.887 142.007 147.325 141.1 146.955 139.926C148.267 138.916 149.079 137.718 148.273 135.918C147.56 135.538 146.535 135.408 146.213 134.33C147.764 133.602 149.286 132.885 150.839 132.153C151.179 131.156 150.941 130.341 150.123 129.671C149.301 128.997 148.499 128.303 147.683 127.62C147.486 127.453 147.236 127.333 147.078 127.135C146.501 126.419 145.994 125.641 145.38 124.961C143.808 123.232 144.135 121.398 146.241 120.323C146.47 120.206 146.655 120.008 146.859 119.848C147.245 117.763 146.377 116.111 144.96 114.879C143.505 113.616 143.295 111.89 143.042 110.315C142.705 108.236 142.959 106.066 142.959 103.944C144.166 102.823 145.275 101.671 145.83 100.152C146.04 99.5775 146.244 98.6325 145.951 98.3145C145.33 97.6351 145.355 96.298 144.03 96.2609C143.829 96.2547 143.533 95.9645 143.456 95.7421C142.94 94.2629 141.544 93.3273 141.214 91.6443C140.995 90.5202 140.121 89.3221 139.194 88.5933C138.154 87.7719 137.304 86.7466 136.168 86.0117C135.198 85.3817 134.448 84.4429 133.339 83.9118C132.228 83.3775 131.131 83.2818 130.149 83.8593C129.513 84.2329 128.936 84.3194 128.275 84.3225C125.736 84.3287 123.186 84.4985 120.669 84.2793C118.924 84.1279 117.599 85.2983 115.966 85.2736C115.395 86.1846 114.413 85.8387 113.421 86.0456C113.125 86.5644 112.739 87.1542 112.445 87.7842C112.044 88.6396 111.491 89.1893 110.472 89.1368C109.805 89.1028 109.132 89.1831 108.471 89.1244C106.726 88.97 105.114 89.2572 103.573 90.5202C103.688 91.2552 103.645 92.1723 103.997 92.898C104.271 93.4662 104.484 93.9819 104.42 94.5779C104.284 95.878 105.13 96.8106 105.67 97.8235C105.908 98.2682 106.631 98.7345 107.116 98.7159C109.268 98.6326 111.482 99.3181 113.579 98.1446C114.227 97.7802 115.141 97.7586 115.815 98.4257C116.37 98.9784 116.766 99.5528 116.185 100.312C114.511 100.399 114.524 100.371 112.989 99.7473C112.581 99.5806 112.081 99.6053 111.624 99.5991C109.821 99.5806 108.02 99.5929 106.217 99.5713C105.497 99.5621 104.756 99.667 104.163 99.0309C103.975 98.8271 103.561 98.8147 103.243 98.7561C101.779 98.4936 101.637 98.3237 101.242 96.7859C100.967 95.7112 100.646 94.6459 100.263 93.6052C100.038 92.9968 99.7845 92.1507 99.3058 91.9315C98.0335 91.3509 97.1781 90.0169 95.5445 90.0447C94.2507 90.0663 92.9506 89.7204 91.5579 90.2516C92.0643 91.8543 92.7313 93.2346 93.9419 94.3185C93.9789 95.0998 94.1518 95.8348 93.4972 96.5605C93.1915 96.9001 93.1081 97.876 93.3736 98.2095C94.1889 99.2409 93.738 101.115 95.5291 101.467C95.8163 103.119 97.1133 102.792 98.2003 102.792C103.873 102.801 109.549 102.786 115.222 102.792C115.623 102.792 116.025 102.937 116.738 103.079C113.406 105.121 110.194 104.256 106.998 104.018C106.248 104.682 106.127 105.578 106.038 106.529C105.957 107.372 105.757 108.212 105.522 109.027C105.204 110.129 105.05 111.204 105.482 112.328C106.195 112.399 106.838 112.464 107.461 112.529C107.505 113.291 107.158 114.035 106.421 114.761C105.139 114.545 103.678 115.274 102.477 114.091C102.295 113.912 101.838 113.996 101.508 113.986C100.708 113.968 99.9049 113.983 99.1051 113.962C97.1442 113.912 95.4643 113.387 94.6675 111.346C94.5749 111.108 94.3711 110.904 94.192 110.707C91.842 108.073 89.4178 105.476 86.3236 103.728C84.1033 102.474 82.6643 100.461 80.8392 98.8333C80.3019 98.3546 80.2865 97.0762 80.6354 96.6037C81.0893 96.3536 81.5371 96.1065 82.0219 95.8379C82.0219 94.2352 82.0374 92.7035 82.0096 91.1749C82.0034 90.863 81.9293 90.4615 81.7286 90.2577C81.1851 89.705 81.1696 89.0349 81.2654 88.3864C81.4815 86.9165 80.8763 85.7893 79.9437 84.656C78.7702 85.5485 77.7079 86.3915 77.9797 88.0837C78.131 89.0194 77.4918 89.5043 76.624 89.9983C76.5406 89.5567 76.4171 89.251 76.4356 88.9546C76.5067 87.9201 75.8458 87.3117 75.1016 86.8948C73.9096 86.2278 72.6343 85.7152 71.5102 85.1902C70.8463 85.4558 70.2811 85.7399 69.6821 85.9036C69.0305 86.0796 68.2554 85.6812 67.4432 86.4162C69.1911 86.9504 68.873 89.2572 70.9482 89.4332C69.2837 91.3015 67.6501 92.583 65.1951 92.3638C64.4385 92.2959 63.5986 92.1044 62.9285 92.6078C62.5826 93.2964 62.9933 93.67 63.3763 94.053C64.5065 95.1863 65.6861 96.2794 66.7577 97.4684C67.5575 98.3608 68.4468 98.9136 69.6635 98.8919C69.7315 98.8919 69.8025 99.0772 69.9415 99.281C68.9409 99.7381 67.9558 100.186 67.051 100.6C66.594 101.597 66.1648 102.536 65.7541 103.441C64.5219 103.808 63.2311 103.231 62.1379 103.746C62.3912 104.577 62.4745 105.321 62.8297 105.899C63.2218 106.538 63.8395 107.486 64.3891 107.505C66.5014 107.579 68.8761 108.354 70.3059 106.103H73.0172C73.7737 108.727 72.3656 110.454 70.7567 112.093C70.9574 113.026 70.4664 113.999 71.2662 114.799C72.3409 115.873 73.2735 117.115 74.9009 117.439C75.9354 117.646 76.6734 118.26 77.1552 119.177C76.2102 120.471 76.2998 121.818 76.5252 122.865C78.3225 125.069 80.6632 124.155 82.8773 124.578C82.1702 126.987 81.5062 129.251 80.3822 131.641H86.5707C87.213 133.191 86.3174 134.825 87.4446 135.859C86.9968 137.134 86.6015 138.259 86.1754 139.469C87.7379 140.108 89.2387 139.904 90.7982 139.179C92.5522 138.364 94.2321 137.477 95.6495 136.146C96.0479 135.773 96.4617 135.43 97.1534 135.896C97.2183 136.671 97.3881 137.468 96.7674 138.271C96.3351 138.83 96.1004 139.549 95.8256 140.216C95.3932 141.272 95.7823 141.909 96.9095 141.983C97.2986 142.007 97.7093 141.97 98.0829 141.859C98.7592 141.658 99.2008 141.924 99.5899 142.363C98.8333 144.703 96.7427 145.864 95.3747 147.606C94.5749 148.625 93.5898 149.44 92.9413 150.66C91.7493 152.905 90.2362 154.98 88.8095 157.201C88.2382 157.417 87.7688 157.065 87.3241 156.62C86.7127 156.006 86.0272 155.45 85.4929 154.773C84.6746 153.736 83.5721 153.137 82.4265 152.624C81.8459 152.365 81.0955 152.451 80.5459 152.155C78.8382 151.235 77.0965 151.46 75.4042 151.991C74.5241 152.266 73.7459 152.921 73.0172 154.289C74.7434 153.659 75.6482 154.406 76.5128 155.274C76.9514 155.712 77.4362 156.169 77.1459 156.824C76.8433 157.5 76.3584 158.059 75.4876 158.047C74.7527 158.034 74.0023 158.149 73.2889 158.034C71.2323 157.704 70.1329 158.915 69.0459 160.449C69.3177 160.743 69.4906 161.055 69.7531 161.187C70.4572 161.542 71.2292 161.774 71.924 162.148C72.9307 162.688 74.0671 163.08 74.4655 164.368C74.8669 165.668 75.6791 166.696 76.7414 167.555C77.4825 168.154 77.3559 169.04 77.0996 169.775C76.8834 170.393 76.3399 170.927 75.571 170.853C74.3018 170.733 73.5545 171.758 72.3069 172.002C72.9832 172.638 73.4464 173.113 73.9559 173.533C74.2493 173.774 74.6477 174.108 74.9596 174.071C76.3554 173.904 77.8963 174.673 79.1562 173.45C79.3261 173.286 79.8078 173.333 80.0981 173.428C80.9473 173.712 81.7749 174.068 82.726 174.441V177.131C82.4234 177.19 82.1763 177.251 81.9262 177.282C81.324 177.36 81.0832 177.783 81.2561 178.264C81.3549 178.542 81.7965 178.836 82.1146 178.879C83.1985 179.024 83.5722 178.672 83.7358 177.529C83.9273 176.22 84.3195 175.914 85.9345 175.911C85.3787 176.538 84.8722 177.109 84.2546 177.804C84.7055 177.943 85.0328 178.153 85.1625 178.067C85.9222 177.557 86.617 176.949 87.3674 176.43C89.0658 175.257 88.1085 173.33 88.6582 171.724C90.1065 171.606 91.0113 172.873 92.4071 173.039C92.2558 171.489 93.5744 170.998 94.3834 170.109C94.8189 170.393 95.1585 170.807 95.4735 170.788C96.8261 170.714 97.6568 171.532 98.5431 172.579C99.2379 171.681 100.192 170.97 100.35 170.112C100.56 168.963 101.223 168.077 101.474 167.011C103.478 167.376 104.484 166.863 105.318 165.131C105.93 163.862 106.575 162.605 107.406 160.94C107.9 161.74 108.28 162.352 108.582 162.843C109.33 162.481 109.818 162.296 110.247 162.024C110.917 161.601 111.778 161.141 111.67 160.258C111.46 158.572 112.733 157.327 112.668 155.789C114.274 155.298 114.623 157.173 115.691 157.238C117.63 156.497 117.868 154.381 119.536 152.992C119.962 153.578 120.289 154.085 120.669 154.551C122.173 156.398 124.174 157.522 126.261 158.603C128.837 159.934 131.425 160.925 134.383 160.48C134.581 160.449 134.8 160.514 134.979 160.452C135.229 160.366 135.455 160.202 135.976 159.909C134.923 159.665 134.219 159.362 133.515 159.365C130.103 159.387 127.24 157.797 124.341 156.33C122.735 155.518 120.78 153.344 120.153 151.781C120.805 151.895 121.361 152.01 121.926 152.09C122.513 152.173 123.025 152.007 123.229 151.417C123.766 149.842 124.004 148.242 123.532 146.559C122.503 146.701 122.488 147.381 122.482 148.057C122.469 149.243 122.083 150.138 120.851 150.32C119.912 150.043 119.221 149.301 118.072 149.391C118.226 151.46 117.701 153.242 116.59 154.798C115.626 154.943 114.86 154.888 114.051 154.32C113.344 153.822 112.436 153.39 111.368 153.859C111.182 154.98 111.01 156.086 110.812 157.185C110.624 158.244 111.26 159.464 110.247 160.366C109.175 159.971 108.15 159.594 107.146 159.226C106.813 158.014 106.223 157.432 105.377 157.482C105.334 158.254 105.235 159.044 105.256 159.832C105.284 160.916 105.241 161.941 104.444 162.805C104.139 163.136 103.864 163.565 103.768 163.994C103.688 164.353 103.885 164.776 103.978 165.267C102.906 164.915 102.916 164.905 102.412 164.297C101.498 163.198 100.541 162.151 98.6604 161.647C99.3768 163.238 99.9234 164.461 100.414 165.548C100.118 166.354 99.6825 166.981 99.7042 167.592C99.7505 168.867 99.136 169.701 98.3609 170.479C98.1478 170.479 97.9841 170.532 97.8884 170.47C96.6068 169.67 95.2975 168.904 94.0715 168.024C92.9259 167.2 92.861 167.132 91.5548 167.827C91.808 168.271 92.1199 168.694 92.2866 169.164C92.3793 169.429 92.3422 169.92 92.1662 170.062C91.9006 170.272 91.4467 170.371 91.1039 170.319C90.8136 170.275 90.5512 169.97 90.3041 169.747C89.8069 169.297 89.2974 168.898 88.3432 168.982C87.9109 170.597 87.8121 172.292 87.4909 173.919H84.1249C83.8315 171.974 85.9098 170.495 85.1007 168.623C84.3689 168.361 83.9335 168.664 83.7173 169.201C83.3066 170.229 82.9731 171.285 82.621 172.292C80.3513 172.879 79.5422 172.156 78.9215 168.886C80.7682 166.835 81.5474 165.346 81.2592 164.417C80.6138 164.979 80.0734 165.551 79.4311 165.971C79.0265 166.236 78.4274 166.465 77.9889 166.372C76.8865 166.134 75.6513 163.754 76.1052 162.756C76.6456 161.567 77.3435 160.449 77.9612 159.325C79.814 158.93 80.7404 161.308 82.6921 160.903C81.9386 158.772 79.7368 158.396 78.4707 157.074C79.1964 155.882 79.2025 155.811 80.0796 155.894C80.9288 155.975 81.4754 155.604 81.92 154.98C82.1331 154.681 82.2999 154.344 82.5438 153.927C83.6401 154.292 84.2793 154.974 84.9247 155.759C85.6319 156.617 86.4379 157.497 87.389 158.034C89.8594 159.427 89.9891 159.439 91.0854 156.67C92.0643 154.196 93.5527 152.152 95.279 150.178C97.2028 147.98 98.9476 145.62 100.695 143.277C101.4 142.332 102.172 141.584 103.317 141.263C106.399 140.402 109.042 138.783 111.365 136.6C111.59 136.387 111.89 136.257 112.415 135.921C112.436 136.897 112.442 137.61 112.47 138.323C112.498 138.987 112.507 139.654 112.594 140.312C112.801 141.89 113.091 143.459 113.273 145.04C113.44 146.485 113.946 146.766 115.203 145.988C117.362 144.651 119.471 143.267 120.928 141.1C121.172 140.738 121.583 140.488 121.978 140.13C122.207 140.417 122.417 140.593 122.519 140.822C123.176 142.279 124.168 143.351 125.709 143.922C127.321 144.518 128.954 145.105 130.477 145.889C131.808 146.575 133.003 147.529 134.343 148.418C134.612 148.109 134.973 147.801 135.201 147.418C136.029 146.019 136.421 144.493 136.545 142.869C136.647 141.519 136.881 140.182 137.054 138.876C137.416 138.876 137.579 138.824 137.675 138.882C139.454 139.982 141.405 140.232 143.437 140.077C144.181 140.022 144.71 140.377 145.182 140.88C146.955 142.776 148.724 144.672 150.503 146.562C150.821 146.902 151.191 147.192 151.519 147.523C152.877 148.885 154.279 150.209 155.564 151.639C156.268 152.42 156.731 153.415 157.371 154.258C158.025 155.119 158.779 155.163 159.591 154.452C159.89 154.19 160.162 153.884 160.388 153.557C162.003 151.247 163.124 148.705 163.998 146.028C165.047 142.813 164.535 139.861 162.725 137.079C161.824 135.692 161.021 134.207 159.94 132.975C158.322 131.131 157.333 128.973 156.389 126.78C155.039 123.649 154.665 120.332 155.129 116.988C155.762 112.445 157.482 108.267 159.897 104.376C161.839 101.248 164.13 98.4689 166.94 96.0201C169.235 94.0221 171.662 92.3761 174.364 91.0606C176.72 89.915 179.243 90.091 181.618 90.5789C183.971 91.0637 185.991 92.4719 187.572 94.3896C188.313 95.2851 188.829 96.227 189.005 97.4035C189.168 98.4905 188.344 99.068 187.85 99.982C188.378 100.739 188.872 101.523 189.443 102.246C190.147 103.132 190.947 103.944 191.651 104.83C192.738 106.198 193.285 107.792 192.892 109.503C192.405 111.627 191.386 113.486 189.446 114.684C189.384 114.721 189.23 114.61 189.103 114.561C189.178 114.017 189.249 113.471 189.323 112.927C188.356 112.501 187.979 113.131 187.55 113.607C185.873 115.453 183.922 116.939 181.674 118.022C181.343 118.18 180.96 118.223 180.658 118.307C180.482 118.097 180.336 118.007 180.318 117.896C179.889 115.286 180.062 112.85 182.214 110.923C183.208 110.034 184.125 109.058 185.064 108.11C185.768 107.4 186.491 106.699 187.124 105.927C187.306 105.704 187.204 105.25 187.223 105.028C186.151 104.339 185.317 106.149 184.292 104.911C184.703 104.574 185.114 104.265 185.49 103.919C185.731 103.7 186.157 103.342 186.102 103.194C185.756 102.261 186.463 101.591 186.584 100.788C187.248 96.3783 183.458 92.7035 179.002 93.3334C175.822 93.7812 173.027 95.211 170.43 96.894C166.449 99.4725 163.541 103.11 161.268 107.279C158.776 111.846 158.143 116.83 157.778 121.886C157.587 124.532 158.464 126.879 160.045 128.951C161.255 130.538 162.546 132.067 163.865 133.568C167.472 137.672 167.694 142.319 165.949 147.186C165.143 149.434 163.991 151.562 162.926 153.711C162.216 155.141 161.391 156.512 160.591 157.895C160.005 158.905 159.875 159.838 160.638 160.863C161.107 161.493 161.41 162.262 161.703 163C162.812 165.81 163.469 168.713 163.411 171.758C163.398 172.307 163.139 172.993 163.948 173.33C164.106 173.249 164.3 173.188 164.442 173.064C164.587 172.934 164.658 172.724 164.797 172.585C165.492 171.909 165.823 171.891 166.456 172.536C166.734 172.82 166.999 173.132 167.2 173.475C168.284 175.328 169.145 177.27 169.365 179.435C169.426 180.055 169.476 180.639 170.238 180.895C171.838 180.676 173.166 179.765 174.392 178.768C175.081 178.206 175.766 178.067 176.563 178.079C176.532 177.588 176.501 177.097 176.473 176.686C174.954 176.056 174.157 176.899 173.41 177.776C172.548 178.786 171.573 179.222 170.337 178.663C170.201 177.721 170.205 176.831 169.924 176.044C169.553 175 169.003 174.012 168.441 173.052C168.151 172.554 167.753 171.931 167.268 171.767C165.341 171.115 164.81 169.658 164.538 167.854C164.337 166.511 163.871 165.202 163.476 163.892C163.216 163.031 163.049 162.055 162.521 161.382C161.607 160.212 161.814 159.18 162.46 158.075C163.253 156.722 164.044 155.363 164.89 154.045C165.681 152.809 165.989 151.398 166.527 150.073C167.123 148.597 167.947 147.229 167.796 145.546C167.768 145.241 167.898 144.895 168.037 144.608C168.79 143.054 168.79 140.263 168.031 138.746C167.678 138.049 167.157 137.36 167.061 136.622C166.814 134.72 165.773 133.342 164.501 132.052C163.383 130.921 162.268 129.819 161.527 128.343C160.008 125.304 158.334 122.343 158.961 118.742C158.995 118.547 158.939 118.334 158.979 118.143C159.047 117.828 159.115 117.497 159.26 117.213C159.952 115.852 160.403 114.375 160.499 112.899C160.588 111.504 161.064 110.349 161.691 109.181C162.154 108.317 162.54 107.409 163.025 106.56C163.581 105.587 164.075 104.534 164.828 103.734C166.564 101.894 168.41 100.149 170.279 98.4349C171.1 97.6814 172.023 96.6531 172.993 96.5388C174.42 96.3721 175.241 95.5476 176.152 94.7848C177.758 94.7848 179.293 94.8188 180.827 94.7694C181.643 94.7416 182.22 95.0473 182.736 95.6433C183.607 96.65 184.113 97.8513 184.743 98.9969C185.222 99.8678 185.497 100.664 185.317 101.622C183.31 103.645 182.31 105.032 182.316 105.781C182.779 105.927 183.264 106.078 183.971 106.297C183.739 106.85 183.622 107.359 183.335 107.745C182.986 108.224 182.492 108.595 182.066 109.021C180.046 111.047 178.44 113.242 178.959 116.355C179.046 116.874 179.005 117.423 178.965 117.955C178.888 118.974 179.28 119.739 180.219 120.447C182.174 119.147 184.125 117.85 186.287 116.41C186.636 116.593 187.198 116.889 187.871 117.244C188.087 117.09 188.331 116.874 188.609 116.722C190.978 115.444 193.115 113.968 193.603 111.031C193.631 110.855 193.902 110.722 193.936 110.546C194.267 108.944 194.597 107.381 193.68 105.794L193.665 105.8ZM106.025 101.393C105.565 101.554 105.102 101.86 104.645 101.847C102.459 101.785 100.257 101.758 98.0922 101.483C96.4185 101.27 95.1462 99.6485 95.2357 97.9501C95.35 95.7452 94.7664 93.7596 93.5713 91.8018C95.526 91.2428 96.999 91.6813 98.1756 93.0802C98.4597 93.4168 98.6357 93.8553 98.8024 94.2722C99.2718 95.4271 99.6023 96.6531 100.192 97.7401C100.804 98.8703 101.801 99.6609 103.095 100.028C104.086 100.309 105.05 100.677 106.029 101.007C106.029 101.137 106.025 101.264 106.022 101.393H106.025ZM75.3363 161.632C75.2406 161.817 74.7156 161.95 74.4778 161.861C73.2488 161.394 72.0506 160.851 70.5498 160.208C72.2421 158.964 73.5576 159.409 74.8577 159.989C75.0862 160.091 75.3734 160.31 75.4166 160.52C75.4907 160.879 75.4969 161.326 75.3363 161.635V161.632ZM78.168 172.091C77.4846 172.95 76.3904 173.157 74.8854 172.712C75.9786 171.918 77.044 172.187 78.168 172.091ZM79.5515 154.875C78.2514 154.668 77.0347 154.264 76.0558 152.85C77.8067 153.223 79.6163 152.133 80.728 153.943C80.6076 154.755 80.1166 154.968 79.5515 154.875ZM79.8757 86.0117C79.9684 86.7003 80.0301 87.1542 80.0888 87.6113C80.1506 88.0837 80.2062 88.5562 80.3204 89.4795C79.6256 88.8094 79.2767 88.4759 78.9679 88.1795C79.2705 87.4538 79.5175 86.864 79.8727 86.0147L79.8757 86.0117ZM69.4011 87.0616C70.8926 86.7003 72.0105 86.5922 73.011 87.7101C72.7392 88.3555 72.1155 88.4821 71.4762 88.689C70.871 88.2134 70.2688 87.7441 69.398 87.0585L69.4011 87.0616ZM64.6269 93.4909C66.8318 93.037 67.1035 93.0833 68.2986 94.229C67.1746 94.8466 66.9491 94.7941 64.6269 93.4909ZM66.2358 106.68C65.4082 106.507 64.3181 106.628 64.0217 105.429H67.8663C67.5945 106.47 67.0078 106.844 66.2358 106.68ZM97.9718 126.141C97.6166 127.12 97.5734 128.219 97.4437 129.275C97.3387 130.131 97.2831 130.995 97.2461 131.857C97.2152 132.58 97.2399 133.302 97.2399 134.031C94.1395 135.288 91.8759 137.734 88.3895 138.376C88.4822 137.613 88.5655 136.986 88.6366 136.359C88.8466 134.525 89.3221 132.703 88.8404 130.838C88.5223 129.612 88.0066 129.325 86.8208 129.813C86.1445 130.091 85.4806 130.396 84.795 130.65C84.0786 130.915 83.4857 130.73 83.0039 129.933C83.8377 127.725 84.4584 125.381 83.7266 122.957C82.7075 122.611 81.9015 122.824 81.0554 123.078C80.0147 123.393 78.9401 123.498 78.1125 122.469C78.3348 120.586 78.5602 118.686 78.8073 116.577C78.1248 116.361 77.4609 116.139 76.7877 115.938C75.4536 115.54 74.0702 115.29 73.0882 114.128C72.3162 113.217 72.2421 113.038 72.8967 112.072C73.1963 111.63 73.5267 111.21 73.8417 110.781C75.151 108.993 75.3826 107.171 74.0733 105.263C73.7058 104.725 73.4248 104.129 72.9863 103.348C72.4026 103.845 71.9765 104.219 71.538 104.58C70.6857 105.284 70.3306 105.321 69.4041 104.775C68.6754 104.345 67.9589 103.888 67.1344 103.382C68.1473 102.505 69.0552 101.755 69.9198 100.961C70.7011 100.245 71.1829 99.4015 70.6826 98.2311C69.8581 97.8019 68.9842 97.3479 67.9497 96.8106C69.0552 95.8595 69.5524 94.6243 69.6666 93.213C71.4639 93.2037 71.819 95.2944 73.4927 95.4673C73.4217 93.8214 71.8931 93.2007 71.294 92.0117C71.5781 90.3041 73.2457 89.7389 74.098 88.3987C75.7439 89.6401 75.4629 92.0334 77.2385 93.2871C77.8037 92.1013 77.5875 90.6499 79.1809 90.128C79.6194 90.2392 80.2463 90.3998 80.8825 90.5634C81.463 91.9901 81.1357 93.3921 81.1789 94.8466C80.7033 95.1708 80.2216 95.5013 79.6812 95.8687C79.6009 96.4122 79.465 96.9959 79.4403 97.5857C79.4002 98.5306 79.5762 99.3829 80.3235 100.118C81.1079 100.893 81.7378 101.826 82.6179 102.913C84.3534 103.966 86.5676 104.972 88.3463 106.492C89.8718 107.795 91.4992 109.144 92.4843 111.022C92.756 111.541 93.2316 111.951 93.6083 112.415C94.3464 113.319 94.2043 113.897 93.0865 114.338C92.2249 114.678 91.3263 114.922 90.4678 115.268C90.0632 115.428 89.7143 115.728 89.1276 116.099C89.9274 117 90.5759 117.803 91.3016 118.526C92.3855 119.6 93.4663 120.7 94.6675 121.635C95.6588 122.408 96.8199 122.929 98.1663 122.886C98.6357 122.871 99.1143 123.112 99.6825 123.26C99.0094 124.362 98.3145 125.193 97.9656 126.15L97.9718 126.141ZM143.774 138.688C141.868 138.765 139.886 138.675 138.323 137.258C137.95 136.918 137.598 136.551 137.267 136.168C136.659 135.461 136.122 134.689 135.461 134.037C135.211 133.79 134.707 133.796 134.173 133.645C134.568 135.912 135.059 137.9 135.226 139.917C135.396 141.967 134.766 143.959 134.312 146.099C133.796 145.892 133.383 145.827 133.105 145.596C131.838 144.537 130.291 144.138 128.791 143.598C127.617 143.175 126.462 142.634 125.4 141.98C124.297 141.297 123.544 140.247 123.346 138.919C123.226 138.107 122.809 137.604 122.056 137.224C120.86 137.987 120.335 139.234 119.539 140.272C118.619 141.473 117.584 142.637 116.414 143.585C115.305 144.484 114.589 144.055 114.465 142.631C114.249 140.118 113.844 137.607 114.372 135.075C114.456 134.676 114.215 134.21 114.11 133.701H112.053C108.24 137.486 104.139 140.602 98.1972 139.951C98.1509 139.593 98.0304 139.265 98.0829 138.969C98.6017 135.949 98.682 132.891 98.9723 129.856C99.1792 127.707 99.7165 125.425 101.622 123.896C101.674 123.856 101.721 123.803 101.767 123.757C102.184 123.331 102.798 122.874 102.366 122.253C102.122 121.901 101.486 121.688 101.01 121.657C99.5436 121.568 98.1045 121.506 96.7057 120.931C95.0999 120.271 93.9233 119.116 92.8456 117.846C92.1539 117.031 92.3978 116.151 93.42 115.796C94.2846 115.496 95.2141 115.296 96.1282 115.225C98.7963 115.015 101.461 115.361 104.055 115.858C106.408 116.309 107.918 115.49 109.367 113.353C109.734 112.81 110.068 112.242 110.515 111.531C111.195 111.714 111.834 111.831 112.43 112.056C115.049 113.041 116.398 112.461 117.958 110.673C120.956 107.236 122.25 103.181 121.611 98.6418C121.46 97.5733 120.867 96.5018 120.249 95.5846C119.218 94.053 118.316 93.9974 116.497 95.1091C116.803 96.2547 117.695 95.8162 118.538 95.8008C120.987 99.596 120.339 103.438 118.615 107.291C118.483 107.588 118.205 107.826 118.084 108.125C116.865 111.186 113.48 111.568 111.34 109.873C111.189 109.756 110.988 109.7 110.766 109.598C109.265 109.916 108.647 112.489 106.581 111.355C107.091 109.521 107.597 107.693 108.153 105.704C108.832 105.297 109.669 105.633 110.5 105.8C112.022 106.106 113.548 106.26 115.009 105.602C115.53 105.368 116.071 104.994 116.392 104.537C116.994 103.672 117.525 102.737 117.936 101.767C118.782 99.7813 117.183 96.616 115.098 96.4493C113.826 96.3474 112.498 96.86 111.204 97.1287C110.559 97.2645 109.935 97.5178 109.286 97.6382C107.23 98.018 105.624 96.6253 105.618 94.5965C105.615 93.5311 106.513 93.1945 107.106 92.4441C106.365 92.3885 105.723 92.3391 105.084 92.2897C105.133 90.8167 105.365 90.4893 106.495 90.4307C107.761 90.3658 109.03 90.3658 110.296 90.3257C111.806 90.2763 113.06 89.6803 113.705 88.2876C114.28 87.0523 115.175 86.7065 116.432 86.7435C117.071 86.7621 117.72 86.5335 118.362 86.4193C118.625 86.373 118.887 86.3174 119.15 86.2958C122.707 85.9962 126.255 85.604 129.803 85.1933C130.112 85.1563 130.437 85.2458 130.789 85.2798C131.033 87.0616 128.337 87.5588 129.152 89.671C129.643 89.2881 130.069 89.0194 130.418 88.6736C131.128 87.9695 131.789 87.216 132.487 86.4996C133.157 85.814 133.849 85.7553 134.59 86.2834C136.159 87.4044 136.681 88.689 136.094 90.6098C135.575 92.3144 134.88 93.9665 134.219 95.6248C133.874 96.4894 133.83 96.4709 134.043 97.6567C136.656 95.702 137.175 92.7992 138.027 89.8192C139.114 90.968 139.886 92.0766 140.46 93.2902C140.992 94.4174 141.411 95.6063 141.794 96.7952C142.106 97.7617 142.554 98.472 143.672 98.5739C144.049 98.6078 144.41 98.8147 144.756 98.9352C144.496 101.742 142.211 101.915 140.26 102.505C140.3 102.771 140.26 103.024 140.362 103.119C141.591 104.271 141.807 105.726 141.791 107.319C141.776 108.777 141.93 110.237 142.029 111.692C142.187 113.989 143.023 115.938 144.92 117.362C145.222 117.587 145.407 117.973 145.667 118.31C143.839 121.509 140.797 121.975 137.487 121.96C137.434 122.534 137.397 122.954 137.36 123.377C137.656 123.488 137.845 123.627 138.018 123.612C138.944 123.522 139.874 123.439 140.785 123.263C141.986 123.034 142.844 123.436 143.474 124.464C143.925 125.202 144.419 125.909 144.91 126.623C146.173 128.46 147.998 129.698 149.885 131.134C146.371 133.432 142.962 132.172 139.262 131.137C139.42 131.795 139.389 132.32 139.633 132.536C140.164 133.006 140.819 133.345 141.449 133.685C142.851 134.439 144.302 135.099 145.667 135.912C146.321 136.301 146.822 136.946 147.467 137.545C146.321 138.703 144.953 138.629 143.783 138.675L143.774 138.688Z" fill="black"/>
<path d="M176.591 178.119C176.591 178.119 176.584 178.094 176.581 178.082C176.569 178.082 176.557 178.082 176.544 178.082C176.544 178.094 176.544 178.104 176.544 178.116C176.56 178.116 176.572 178.116 176.588 178.116L176.591 178.119Z" fill="black"/>
<path d="M176.322 181.149C176.029 181.804 175.692 182.449 175.284 183.033C174.803 183.724 174.886 184.382 175.102 185.16C175.822 185.077 176.458 185.006 177.248 184.916C176.106 186.288 175.074 187.455 173.379 187.804C172.931 187.896 172.573 188.403 172.298 188.619C172.397 190.836 173.12 192.816 172.338 194.826C171.495 194.792 170.912 193.415 169.97 194.536C170.174 196.197 170.217 197.899 170.026 199.477C168.676 200.357 167.821 198.973 166.641 199.007C166.224 201.104 167.555 203.114 166.681 205.335C165.514 205.19 164.325 205.044 163.037 204.884C162.932 206.178 162.843 207.268 162.735 208.636C161.601 208.327 160.749 208.092 159.826 207.842C158.807 209.105 159.884 210.964 158.553 212.042C157.559 210.831 156.336 210.025 155.092 209.738C154.029 211.109 153.155 212.24 152.417 213.191C151.232 213.348 150.327 213.469 149.203 213.62C149.169 213.197 149.021 212.755 149.132 212.391C149.24 212.039 149.623 211.776 149.86 211.455C150.209 210.986 150.151 210.597 149.555 210.31C148.446 210.52 148.171 211.634 147.477 212.301C147.106 212.656 146.735 213.225 146.318 213.271C145.636 213.348 144.815 213.249 144.228 212.916C143.317 212.397 142.072 212.122 141.791 210.628C142.514 210.365 143.181 210.143 143.836 209.883C144.571 209.59 145.102 209.173 144.691 208.265C143.653 208.5 142.699 208.806 141.723 208.895C141.276 208.935 140.402 208.593 140.38 208.361C140.235 206.863 140.216 205.344 140.303 203.843C140.321 203.547 140.939 203.136 141.347 203.037C142.369 202.787 143.422 202.676 144.469 202.525C145.025 202.444 145.676 202.759 146.176 202.037C146.071 201.851 146.004 201.558 145.824 201.441C145.438 201.194 144.966 201.082 144.583 200.832C143.496 200.119 143.425 199.541 144.212 198.34C144.938 197.232 145.658 197.062 146.714 197.769C146.877 197.88 147.016 198.028 147.171 198.161C148.276 199.103 149.641 199.452 151.009 199.73C152.492 200.032 153.782 199.603 154.808 198.458C156.571 196.487 157.531 194.211 157.389 191.537C157.327 190.364 156.877 189.826 155.678 189.749C153.313 189.592 151.096 188.841 148.94 187.998C144.481 186.254 141.081 183.311 139.265 178.74C138.824 177.629 138.839 176.684 139.781 175.841C140.874 174.862 141.93 173.843 143.024 172.867C144.713 171.354 146.411 169.853 148.116 168.358C149.891 166.802 150.12 165.181 148.946 162.997C148.375 161.935 147.859 160.749 146.643 160.197C145.8 161.021 146.417 161.583 146.779 162.046C147.443 162.902 147.998 163.757 148.221 164.853C148.391 165.684 148.279 166.277 147.486 166.756C147.1 166.509 146.683 166.295 146.328 166.008C144.725 164.705 143.184 163.322 141.529 162.09C140.525 161.342 139.386 160.755 138.249 160.221C137.69 159.956 136.971 159.863 136.44 160.675C137.048 161.046 137.585 161.37 138.132 161.703C138.086 162.871 137.416 163.371 136.464 163.68C135.584 163.964 134.609 164.152 133.883 164.671C132.027 165.999 129.992 166.107 127.827 166.116C126.255 166.123 124.937 165.925 124.168 164.523C122.757 164.412 121.558 164.603 120.323 165.054C119.125 165.493 117.748 165.252 116.571 166.07C115.836 166.58 114.928 166.765 115.524 167.951C115.586 168.074 115.456 168.327 115.364 168.494C114.039 170.819 115.274 172.929 116.241 174.822C117.241 176.779 118.878 178.416 120.336 180.318C120.311 180.408 120.224 180.72 120.085 181.211C120.685 181.612 121.321 182.041 122.096 182.56C122.096 184.114 122.117 185.778 122.08 187.439C122.071 187.81 121.951 188.252 121.722 188.533C120.274 190.305 118.356 191.519 116.556 192.884C116.04 193.273 115.731 193.001 115.317 193.004C115.175 193.004 114.962 193.196 114.904 193.35C114.672 193.937 114.237 194.289 113.668 194.035C113.085 193.773 112.51 193.381 112.473 192.578C112.452 192.127 112.412 191.639 112.233 191.238C111.513 189.647 110.445 188.323 109.095 187.208C108.623 186.819 108.064 186.714 107.548 186.491C106.251 185.929 105.568 187.063 104.469 187.103C104.895 188.184 106.495 188.44 105.951 189.836C105.445 190.126 104.8 190.305 104.46 190.731C103.679 191.707 102.697 191.741 101.597 191.741C100.705 191.741 99.7506 191.475 98.7902 192.093C98.9322 192.476 99.0465 192.831 99.1916 193.171C99.6209 194.184 100.337 195.172 100.427 196.213C100.523 197.324 100.878 198.099 101.64 198.81C102.07 199.208 102.45 199.662 102.888 200.131C102.69 200.415 102.527 200.616 102.4 200.838C101.267 202.809 100.822 203.352 99.4634 204.362C99.38 204.424 99.2287 204.399 99.1113 204.414C98.4876 203.562 97.7341 203.596 96.8879 203.985C97.1319 205.128 97.3635 206.261 98.4073 206.734C99.4541 207.209 100.418 208.043 101.733 207.811C102.094 207.746 102.499 207.953 102.888 208.027C103.858 208.213 104.821 208.42 105.797 208.565C106.371 208.651 106.964 208.633 107.829 208.676C107.211 209.646 106.822 210.495 106.22 211.143C105.247 212.19 105.025 213.299 105.504 214.756C106.202 214.969 106.859 215.192 107.668 214.648C108.462 214.117 109.367 213.595 110.287 213.435C112.165 213.107 112.977 211.65 114.005 210.387C113.817 208.87 115.28 207.821 115.002 206.363C116.303 205.912 117.176 206.28 117.982 207.154C118.498 207.712 118.958 208.435 119.835 208.556C120.981 207.799 120.073 205.878 121.907 205.421C122.321 205.996 122.8 206.659 123.18 207.187H125.27C125.292 206.168 125.323 205.057 126.61 204.64C127.271 205.267 126.37 206.666 127.802 206.919C128.976 206.258 129.794 205.276 130.122 203.899C130.446 202.543 130.786 201.194 131.138 199.773C132.11 200.329 132.96 200.814 133.71 201.243C135.473 199.146 134.732 196.577 135.072 194.017C135.97 194.205 136.761 194.181 137.323 194.526C138.351 195.16 139.321 194.993 140.368 194.817C140.812 193.588 139.988 192.859 139.531 192.019C138.574 190.262 137.752 188.548 137.533 186.423C137.329 184.447 138.339 183.453 139.228 181.94C139.756 182.532 140.254 182.866 140.414 183.317C140.772 184.339 141.412 184.932 142.381 185.407C143.49 185.951 144.484 186.732 145.503 187.446C146.63 188.236 147.717 189.085 148.851 189.867C149.101 190.04 149.471 190.083 149.789 190.104C150.453 190.151 151.13 190.206 151.791 190.141C153.171 190.009 154.128 190.901 155.175 191.522C155.487 191.707 155.657 192.291 155.715 192.714C155.966 194.455 155.626 195.99 154.094 197.117C153.406 197.624 152.813 198.26 152.251 198.773C151.296 198.47 150.429 198.195 149.49 197.899V196.895C148.591 196.524 147.77 196.067 146.887 195.854C145.939 195.626 144.898 195.45 144.185 196.432C142.211 195.336 141.859 195.394 140.445 197.012C139.407 198.201 139.457 198.646 140.757 199.464C140.976 199.603 141.229 199.702 141.479 199.77C142.174 199.958 142.6 200.403 142.953 201.15C141.813 201.524 140.763 201.839 139.735 202.222C139.451 202.327 139.086 202.592 139.031 202.849C138.889 203.479 138.493 203.602 137.962 203.831C136.653 204.39 135.415 205.112 134.081 205.804C134.028 206.755 134.726 207.373 135.393 207.592C137.314 208.228 138.737 209.621 140.411 210.492V213.28C139.179 213.095 138.743 214.018 138.178 214.719C137.607 215.43 136.98 216.177 137.487 217.245C138.493 217.372 139.482 217.415 140.43 217.631C141.517 217.881 142.387 217.134 143.515 217.285C143.61 215.652 145.009 215.55 145.982 215.034C146.967 214.515 147.986 213.611 149.419 214.559C148.906 215.951 148.384 217.375 147.866 218.786C148.042 218.876 148.181 219.009 148.267 218.981C149.922 218.437 151.615 217.681 152.346 216.115C153.214 214.259 154.872 213.29 156.098 211.712C156.426 212.014 156.679 212.212 156.892 212.45C157.5 213.126 158.189 213.743 159.137 213.293C159.992 212.885 160.678 212.264 160.567 211.122C160.471 210.137 161.271 209.8 161.947 209.337C162.522 209.575 163.05 209.791 163.627 210.029C164.032 208.735 163.479 207.422 164.013 206.249C165.301 205.934 166.162 207.632 167.524 206.774C167.845 206.033 168.349 205.233 168.534 204.362C168.732 203.426 168.636 202.426 168.667 201.475C169.519 201.388 170.164 201.323 170.76 201.265C170.998 200.659 171.248 200.181 171.369 199.674C171.458 199.301 171.366 198.884 171.381 198.488C171.431 197.108 171.665 196.833 173.009 196.389C174.33 194.567 174.299 192.572 174.179 190.58C174.12 189.629 174.568 188.965 175.325 188.659C177.57 187.754 178.765 185.994 179.719 183.635H176.461C177.597 181.838 178.746 180.303 177.94 178.203C177.486 178.181 177.045 178.16 176.606 178.138C176.887 179.179 176.77 180.198 176.337 181.164L176.322 181.149ZM102.406 206.147C102.298 206.703 101.925 206.959 101.403 206.764C100.572 206.456 99.7722 206.07 98.537 205.529C99.8679 205.319 100.729 205.137 101.6 205.063C102.165 205.017 102.521 205.548 102.406 206.147ZM112.094 193.878C111.482 193.946 111.016 193.998 110.448 194.06C109.941 192.785 109.472 191.602 108.833 189.993C110.75 190.963 111.328 192.349 112.094 193.878ZM106.974 187.977C107.801 187.652 108.246 187.93 108.376 188.6C108.409 188.77 108.051 189.193 107.863 189.2C107.119 189.224 106.893 188.733 106.974 187.977ZM100.578 192.658C102.697 193.069 102.866 193.384 101.826 194.838C101.19 194.295 100.418 193.875 100.578 192.658ZM108.301 212.879C107.838 213.126 107.279 213.203 106.618 213.064C107.168 212.363 107.721 211.665 108.49 210.686C108.981 211.211 109.243 211.492 109.543 211.816C109.067 212.236 108.734 212.65 108.301 212.879ZM137.61 178.41C138.385 179.809 138.33 181.118 137.36 182.495C135.486 185.16 135.442 187.918 137.326 190.645C137.848 191.398 138.351 192.164 138.895 192.973C138.086 193.625 137.443 193.162 136.817 192.881C134.253 191.735 134.068 191.815 134.087 194.53C134.099 196.271 133.929 197.945 133.012 199.474C131.483 198.945 131.283 197.21 130.288 195.932C129.204 197.318 129.992 198.905 129.359 200.23C128.781 201.431 129.374 203.08 128.062 204.214C127.358 201.681 126.516 200.325 125.536 200.144C125.094 201.74 124.65 203.352 124.165 205.122C123.708 204.736 123.217 204.251 122.661 203.862C121.546 203.087 121.003 203.266 120.407 204.507C120.265 204.804 120.082 205.085 119.906 205.362C119.733 205.634 119.542 205.897 119.227 206.354C118.023 205.452 116.886 204.597 115.781 203.769C113.98 203.908 113.638 205.208 113.261 206.508C113.029 207.302 112.646 208.058 112.47 208.861C112.31 209.605 112.662 210.445 112.14 211.128C110.648 211.094 109.79 210.201 108.87 209.009C109.342 207.716 109.855 206.31 110.37 204.896C109.401 203.877 109.07 203.871 108.53 204.875C108.215 205.455 107.974 206.094 107.576 206.61C107.045 207.299 106.257 207.487 105.411 207.299C104.645 207.129 104.398 206.477 104.191 205.841C103.852 204.791 103.555 203.726 103.181 202.475C103.302 202.308 103.574 201.935 103.848 201.552C105.179 201.073 106.779 201.329 107.977 200.032C107.264 199.467 106.677 199.001 105.751 198.853C104.386 198.637 103.101 198.081 102.202 196.738C103.41 195.227 105.081 194.005 105.43 191.951C106.1 191.599 106.612 191.667 106.974 192.331C107.134 192.624 107.267 192.933 107.449 193.208C108.561 194.885 110.148 195.493 112.106 195.243C112.828 195.15 113.551 195.067 114.274 194.983C114.604 194.946 114.975 195.002 115.259 194.869C118.427 193.396 121.339 191.574 123.269 188.536C123.504 188.165 123.597 187.677 123.664 187.229C124.075 184.521 123.328 182.082 121.768 179.898C120.697 178.398 119.496 176.986 118.335 175.55C116.679 173.497 116.25 171.113 116.584 168.593C116.778 167.117 118.149 166.16 119.712 166.098C121.524 166.027 123.269 166.246 125.008 166.836C127.528 167.691 130.153 167.472 132.722 167.105C134.405 166.864 135.711 165.665 136.974 164.619C140.331 161.83 139.812 162.787 142.276 164.541C143.62 165.499 144.799 166.681 146.204 167.892C145.627 168.488 145.207 168.979 144.731 169.402C142.943 171.002 141.121 172.564 139.343 174.173C138.802 174.661 138.32 175.226 137.87 175.804C137.249 176.6 137.088 177.456 137.616 178.407L137.61 178.41ZM141.081 197.673C142.154 197.508 142.732 197.885 142.817 198.803C142.267 198.445 141.825 198.158 141.081 197.673ZM138.219 207.78C137.354 207.333 136.619 206.95 135.575 206.406C136.588 206.014 137.338 206.119 138.049 206.215C138.805 206.314 138.836 206.588 138.219 207.78ZM139.491 216.022C141.421 213.496 141.899 213.302 143.49 214.361C142.634 216.035 141.226 216.353 139.491 216.022ZM149.783 217.023C150.061 216.408 150.336 215.794 150.796 214.778C151.031 216.09 150.518 216.606 149.783 217.023Z" fill="black"/>
<path d="M130.98 104.716C130.705 104.281 130.217 104.203 129.905 104.583C130.508 106.399 131.314 108.097 131.598 109.882C131.888 111.683 131.663 113.566 131.663 115.29C130.128 116.16 128.775 114.647 127.376 115.41C127.163 116.568 127.228 117.661 127.478 118.785C127.784 120.156 127.997 121.605 127.228 122.877C126.262 124.477 125.137 125.983 124.01 127.639C122.54 125.202 122.503 122.617 122.457 119.749C119.329 122.071 116.469 124.168 112.279 123.995C114.042 121.629 115.598 119.542 117.235 117.346C116.077 116.951 115.401 117.195 114.833 118.05C114.033 119.258 113.35 120.697 112.229 121.493C111.164 122.253 110.701 123.643 109.33 124.023C109.009 124.112 108.768 124.501 108.209 125.005C110.608 125.925 112.761 125.758 114.86 125.252C116.936 124.751 118.952 124.01 120.999 123.371C122 128.284 122.383 129.201 124.081 130.677C124.236 130.464 124.403 130.267 124.535 130.047C125.798 127.944 126.963 125.773 128.346 123.754C129.34 122.299 129.56 120.86 129.124 119.218C128.976 118.662 128.96 118.075 128.84 117.161C129.658 117.3 130.1 117.38 130.545 117.451C131.879 117.667 133.256 116.803 133.302 115.555C133.401 112.896 133.599 110.203 132.592 107.656C132.184 106.621 131.582 105.655 130.983 104.713L130.98 104.716Z" fill="black"/>
<path d="M124.297 112.433C126.403 110.29 126.061 107.483 126.564 105.007C128.374 104.272 129.065 103.432 128.852 101.69C128.652 100.06 128.176 98.4538 127.738 96.8634C127.565 96.2335 127.16 95.6622 126.058 95.6035C126.16 97.8856 127.595 99.8558 127.382 102.085C126.647 103.04 125.943 101.622 124.998 102.184C124.998 103.333 125.032 104.614 124.989 105.893C124.94 107.27 124.798 108.638 124.069 110.074C123.633 109.815 123.223 109.645 122.911 109.364C122.621 109.105 122.475 108.691 122.201 108.404C121.629 107.808 121.25 107.879 120.44 108.722C121.673 109.966 122.627 111.492 124.297 112.43V112.433Z" fill="black"/>
<path d="M124.748 89.1796C123.387 89.3062 122.022 89.578 120.678 89.5039C119.73 89.4514 118.801 88.9418 117.871 88.6114C116.272 88.0432 115.058 88.5775 113.888 90.0381C114.965 90.8009 115.855 91.4833 116.8 92.0793C117.516 92.5333 118.35 92.6444 118.998 91.999C119.724 91.2702 120.558 91.1066 121.524 91.0911C122.244 91.0819 122.964 90.9182 123.68 90.7885C124.761 90.594 124.853 90.421 124.748 89.1796Z" fill="black"/>
<path d="M132.36 91.4408C132.456 92.5308 132.719 93.4171 131.891 94.2077C131.474 94.606 131.591 95.165 132.163 95.5633C133.284 94.9303 134.043 94.0471 134.432 92.8736C134.825 91.6847 134.46 90.5514 133.509 89.8628C132.858 89.3903 132.132 89.3285 131.452 89.7145C130.835 90.0666 130.529 90.6286 130.875 91.4408H132.36Z" fill="black"/>
<path d="M219.962 0.308594H36.5131C32.897 0.308594 29.9541 3.25151 29.9541 6.86763V105.895C29.9541 158.933 56.3107 196.697 78.4212 219.036C102.307 243.169 125.857 254.653 126.848 255.129L128.204 255.781L129.572 255.154C130.563 254.7 154.137 243.722 178.039 219.839C200.156 197.74 226.518 160.032 226.518 105.892V6.86763C226.518 3.25151 223.575 0.308594 219.959 0.308594H219.962ZM36.5131 6.70705H219.962C220.052 6.70705 220.123 6.77808 220.123 6.86763V70.0369H36.3526V6.86763C36.3526 6.77808 36.4236 6.70705 36.5131 6.70705ZM205.643 170.572C197.938 186.627 187.186 201.625 173.678 215.154C153.776 235.091 133.614 245.973 128.269 248.669C122.932 245.865 102.746 234.559 82.8155 214.379C69.299 200.693 58.5403 185.654 50.8325 169.679C41.2224 149.764 36.3526 128.302 36.3526 105.895V76.4354H220.123V105.895C220.123 128.787 215.25 150.546 205.643 170.572Z" fill="black"/>
</svg>
