<svg width="256" height="256" viewBox="0 0 256 256" fill="none" xmlns="http://www.w3.org/2000/svg">
<g clip-path="url(#clip0_414_7876)">
<path d="M36.6783 207.489C35.93 206.404 35.2155 205.368 34.4559 204.271C36.7346 202.645 38.9345 201.07 41.14 199.5C41.1007 199.421 41.0669 199.348 41.0275 199.269C38.3606 200.237 35.6881 201.205 32.9818 202.184C32.4135 201.362 31.9297 200.659 31.4233 199.928C33.2462 197.705 35.0242 195.533 36.8077 193.362C36.7402 193.294 36.6727 193.227 36.6052 193.153C34.4222 194.661 32.2391 196.169 29.9211 197.767C29.274 196.839 28.6945 196.017 28.025 195.066C31.8509 192.399 35.6262 189.766 39.5028 187.066C40.6055 188.63 41.6689 190.132 42.7717 191.696C41.2863 193.502 39.8516 195.246 38.22 197.227C40.6899 196.614 42.7436 195.629 44.9941 194.931C46.0575 196.434 47.0927 197.908 48.1167 199.354C47.4922 200.186 38.8164 206.347 36.6783 207.484V207.489Z" fill="#1D1D1B"/>
<path d="M155.423 236.088C156.604 238.097 157.764 240.055 158.917 242.018C159.001 241.996 159.086 241.973 159.17 241.951V235.121C161.038 234.631 162.81 234.17 164.723 233.669C165.916 238.193 167.075 242.598 168.274 247.155C167.025 247.662 165.764 247.915 164.38 248.196C163.632 245.467 162.895 242.789 162.152 240.111C162.079 240.117 162.006 240.128 161.933 240.134V248.894C160.993 249.13 160.138 249.344 159.249 249.569C157.764 247.02 156.346 244.578 154.922 242.137C154.843 242.165 154.77 242.187 154.692 242.215C154.905 243.549 155.322 244.837 155.654 246.143C155.986 247.454 156.323 248.765 156.7 250.25C155.637 250.526 154.635 250.784 153.527 251.071C152.334 246.52 151.181 242.114 149.982 237.54C151.816 237.056 153.578 236.589 155.429 236.105L155.423 236.088Z" fill="#1D1D1B"/>
<path d="M107.436 240.573C107.779 239.211 108.094 237.951 108.426 236.623C109.765 236.932 110.991 237.214 112.381 237.534C111.34 242.12 110.328 246.593 109.281 251.184C108.06 250.903 106.974 250.694 105.916 250.385C105.669 250.312 105.523 249.89 105.309 249.597C104.915 249.71 104.42 249.935 103.908 249.985C101.86 250.182 100.099 248.826 99.8062 246.711C99.508 244.601 99.9413 242.592 101.173 240.831C102.434 239.037 104.583 238.564 106.282 239.65C106.654 239.886 106.974 240.201 107.43 240.573H107.436ZM103.801 245.884C103.947 246.919 104.217 247.392 104.836 247.476C105.461 247.56 105.928 247.184 106.164 246.289C106.406 245.377 106.597 244.449 106.777 243.521C106.89 242.936 106.71 242.463 106.091 242.244C105.562 242.052 105.089 242.199 104.808 242.874C104.397 243.847 104.133 244.882 103.801 245.889V245.884Z" fill="#1D1D1B"/>
<path d="M222.923 209.644C222.259 210.387 221.538 211.169 220.841 211.979C220.453 212.429 220.047 212.233 219.592 211.979C219.49 212.441 219.417 212.79 219.339 213.138C219.029 214.511 218.185 215.501 216.987 216.16C214.995 217.251 212.615 215.912 212.474 213.65C212.396 212.407 212.818 211.304 213.493 210.286C213.971 209.571 214.472 208.874 214.989 208.131C214.612 207.608 214.168 207.54 213.707 207.867C212.958 208.401 212.694 209.132 213.093 210.05C212.632 210.494 212.199 210.933 211.743 211.344C211.327 211.721 210.882 212.069 210.376 212.491C209.678 211.49 209.43 210.528 209.734 209.481C210.426 207.09 212.007 205.408 214.168 204.277C215.198 203.742 216.255 203.883 217.172 204.648C217.836 205.2 218.489 205.768 219.142 206.336C220.379 207.416 221.612 208.497 222.928 209.644H222.923ZM216.497 209.391C216.199 210.179 215.906 210.719 215.8 211.293C215.676 211.951 216.115 212.536 216.632 212.587C217.071 212.632 217.673 212.199 217.741 211.625C217.786 211.22 217.667 210.747 217.487 210.376C217.341 210.072 216.987 209.864 216.503 209.397L216.497 209.391Z" fill="#1D1D1B"/>
<path d="M185.254 239.942C184.269 240.398 183.324 240.899 182.334 241.253C182.008 241.372 181.546 241.101 181.057 240.983C180.488 242.109 179.549 242.969 178.227 243.397C176.708 243.886 175.295 243.526 174.446 242.39C173.596 241.253 173.585 239.751 174.586 238.496C175.166 237.771 175.937 237.18 176.674 236.6C177.22 236.173 177.855 235.863 178.469 235.492C178.395 234.834 178.024 234.53 177.473 234.71C177.034 234.851 176.376 235.154 176.308 235.486C176.06 236.752 175.042 236.842 174.148 237.157C173.647 237.332 173.135 237.467 172.589 237.63C172.223 236.257 172.578 235.154 173.444 234.249C174.924 232.701 176.781 231.857 178.891 231.615C180.308 231.452 181.383 232.015 182.019 233.326C182.553 234.44 183.077 235.559 183.617 236.668C184.123 237.697 184.646 238.721 185.254 239.942ZM179.459 237.382C178.626 237.816 178.047 238.238 177.889 238.958C177.816 239.301 177.945 239.774 178.159 240.066C178.44 240.46 178.891 240.302 179.273 240.094C179.886 239.757 180.14 239.233 179.954 238.564C179.847 238.187 179.65 237.833 179.464 237.388L179.459 237.382Z" fill="#1D1D1B"/>
<path d="M61.6144 217.893C62.6947 218.692 63.623 219.372 64.5795 220.076C64.5064 220.368 64.4332 220.627 64.3601 220.914C64.5233 220.948 64.6358 220.993 64.7539 220.987C65.6598 220.942 66.4644 221.223 67.1733 221.764C68.4505 222.726 69.5645 224.279 68.0566 226.355C66.6106 228.346 65.1253 230.316 63.578 232.403C62.4246 231.531 61.3894 230.743 60.2641 229.888C60.6523 229.359 60.9786 228.898 61.3106 228.448C62.2671 227.159 63.2348 225.871 64.18 224.577C64.4782 224.172 64.7539 223.727 64.2588 223.266C63.8425 222.872 63.2067 222.906 62.7397 223.468C61.8507 224.549 61.0405 225.691 60.1853 226.805C59.7127 227.418 59.2288 228.026 58.6718 228.735C57.5578 227.891 56.5169 227.114 55.3748 226.248C57.4622 223.457 59.4933 220.734 61.6088 217.898L61.6144 217.893Z" fill="#1D1D1B"/>
<path d="M233.388 194.988C232.606 196.175 231.891 197.255 231.109 198.437C230.349 197.936 229.702 197.514 229.061 197.092C227.891 196.327 226.732 195.545 225.55 194.791C225.117 194.515 224.644 194.341 224.222 194.83C223.868 195.246 223.935 195.742 224.47 196.237C224.83 196.569 225.246 196.839 225.657 197.114C227.052 198.054 228.453 198.988 229.95 199.995C229.325 201.244 228.549 202.313 227.682 203.472C224.757 201.514 221.932 199.624 219.007 197.666C219.727 196.586 220.379 195.601 221.06 194.583C221.381 194.701 221.668 194.802 222.062 194.948C221.718 193.44 222.169 192.253 223.125 191.241C224.166 190.143 225.376 189.89 226.692 190.633C227.947 191.336 229.123 192.169 230.332 192.957C231.295 193.587 232.245 194.234 233.376 194.993L233.388 194.988Z" fill="#1D1D1B"/>
<path d="M128.006 249.67C127.471 251.285 126.43 252.219 124.984 252.669C123.403 253.164 121.805 253.08 120.258 252.489C117.923 251.595 116.601 249.333 116.95 246.891C117.332 244.19 119.217 242.294 121.777 242.063C122.903 241.962 124 242.097 125.046 242.53C127.437 243.532 128.709 246.143 127.966 248.719C125.806 248.579 123.611 248.438 121.434 248.292C121.271 249.417 121.4 249.777 122.014 250.053C122.841 250.43 123.527 250.16 124.32 249.102C125.53 249.147 126.757 249.265 128.011 249.665L128.006 249.67ZM121.479 245.856C122.34 246.278 122.852 246.334 124.045 246.131C123.977 245.045 123.701 244.663 122.914 244.578C122.115 244.488 121.755 244.815 121.485 245.856H121.479Z" fill="#1D1D1B"/>
<path d="M49.7034 219.372C46.6595 219.35 43.8126 216.531 43.8126 213.543C43.8126 210.471 46.26 208.024 49.2814 208.063C52.3365 208.097 55.2341 211.017 55.2116 214.033C55.1891 216.93 52.646 219.4 49.7034 219.378V219.372ZM50.688 211.45C50.6092 211.462 50.5192 211.45 50.4461 211.484C48.9945 212.17 47.8579 213.223 47.1996 214.674C46.8508 215.439 47.7735 216.356 48.5218 215.996C49.9116 215.332 51.0537 214.32 51.7064 212.902C52.0271 212.199 51.4251 211.45 50.688 211.45Z" fill="#1D1D1B"/>
<path d="M200.783 226.647C201.509 225.831 202.133 225.128 202.741 224.442C204.676 224.509 205.734 223.868 206.055 222.467C205.571 222.095 205.211 222.5 204.834 222.686C203.877 223.164 202.971 223.75 201.981 224.138C200.434 224.74 198.965 224.16 198.167 222.776C197.604 221.803 197.604 220.784 198.065 219.811C199.033 217.752 200.648 216.435 202.876 215.934C203.714 215.743 204.507 215.951 205.385 216.469C204.811 217.195 204.299 217.932 203.692 218.568C203.483 218.781 203.028 218.787 202.679 218.838C201.751 218.973 201.194 219.468 200.884 220.621C201.39 220.441 201.807 220.351 202.167 220.154C203.033 219.687 203.838 219.091 204.732 218.691C206.223 218.028 207.675 218.416 208.62 219.603C209.307 220.464 209.521 221.431 209.234 222.5C208.654 224.7 205.807 227.193 203.545 227.457C202.572 227.57 201.683 227.35 200.777 226.653L200.783 226.647Z" fill="#1D1D1B"/>
<path d="M77.824 232.043C77.1995 233.151 76.62 234.142 76.0854 235.154C75.6578 235.964 75.7366 236.184 76.5018 236.651C76.71 236.775 76.935 236.87 77.3176 237.056C76.8731 237.889 76.4399 238.693 75.9898 239.543C74.7126 239.216 73.6549 238.704 72.7321 237.939C71.5225 236.938 71.2524 235.858 71.8994 234.423C72.3045 233.528 72.8334 232.684 73.306 231.823C73.6211 231.25 73.9305 230.67 74.2738 230.04C73.8743 229.719 73.4973 229.427 73.0697 229.083C73.4804 228.358 73.8799 227.66 74.3075 226.912C74.7858 227.12 75.1909 227.294 75.6747 227.508C76.243 226.585 76.7944 225.685 77.4076 224.7C78.5217 225.291 79.5963 225.865 80.8172 226.512C80.3109 227.508 79.8382 228.442 79.315 229.472C79.8157 229.82 80.2996 230.169 80.9185 230.602C80.5303 231.334 80.1421 232.071 79.7257 232.864C79.0674 232.583 78.516 232.347 77.824 232.054V232.043Z" fill="#1D1D1B"/>
<path d="M186.346 227.277C187.347 226.647 188.213 226.096 189.254 225.443C189.446 225.736 189.643 226.034 189.879 226.394C190.008 226.197 190.104 226.113 190.115 226.023C190.245 224.914 190.745 224.082 191.983 223.603C192.608 224.565 193.243 225.544 193.857 226.49C193.716 226.653 193.671 226.732 193.609 226.771C192.141 227.615 191.904 228.667 192.973 230.293C193.699 231.39 194.374 232.527 195.072 233.646C195.111 233.714 195.123 233.798 195.179 233.956C194.296 234.839 193.137 235.351 191.949 236.111C190.07 233.146 188.253 230.276 186.351 227.277H186.346Z" fill="#1D1D1B"/>
<path d="M94.1967 240.105C93.7804 241.175 93.4259 242.08 93.0152 243.144C89.8419 241.883 86.7699 240.663 83.5967 239.397C84.0243 238.333 84.3956 237.399 84.8007 236.386C87.9965 237.596 91.0629 238.823 94.1967 240.105Z" fill="#1D1D1B"/>
<path d="M145.104 248.556C141.666 248.838 138.386 249.231 134.949 249.288C134.887 248.174 134.83 247.206 134.769 246.103C138.116 245.833 141.374 245.574 144.761 245.304C144.879 246.401 144.986 247.403 145.11 248.551L145.104 248.556Z" fill="#1D1D1B"/>
<path d="M53.3549 48.4036C52.1565 49.7933 51.0593 51.0537 49.9059 52.3927C46.9352 49.8384 44.0658 47.3796 41.2019 44.9209C41.1288 44.9772 41.0613 45.0391 40.9881 45.0953C43.1993 48.3249 45.4161 51.5544 47.7117 54.9021C46.9352 55.8136 46.1757 56.7025 45.3767 57.6421C41.7027 55.8811 38.1299 54.1707 34.5516 52.4546L34.394 52.6797C37.2578 55.1778 40.116 57.6759 43.0868 60.2697C42.1415 61.3668 41.2638 62.3795 40.3017 63.4879C35.6318 59.4538 31.0632 55.5041 26.4046 51.4813C28.0362 49.5964 29.5947 47.796 31.2264 45.9055C34.0508 47.239 36.8584 48.5668 39.6659 49.8946C39.7278 49.8327 39.7897 49.7708 39.846 49.709C38.1918 47.1096 36.3239 44.634 34.6191 41.9896C36.217 40.1441 37.7698 38.3437 39.4465 36.4082C44.0714 40.4029 48.64 44.3414 53.3493 48.4093L53.3549 48.4036Z" fill="#1D1D1B"/>
<path d="M16.1196 77.6833C16.0183 79.3488 15.9283 80.8566 15.8382 82.4039C15.4838 82.5333 15.18 82.6346 14.8818 82.7471C13.7565 83.1747 12.8281 84.4237 12.8675 85.594C12.8788 85.9485 13.1095 86.3873 13.3851 86.6124C13.7452 86.905 14.1841 86.6968 14.4767 86.3648C14.803 85.9935 15.0956 85.594 15.3825 85.1946C16.1196 84.1537 16.806 83.0734 17.588 82.0663C19.1465 80.052 21.1608 79.3263 23.3326 79.9339C25.6731 80.5866 27.2767 82.4039 27.5298 84.8964C27.8731 88.2778 26.804 91.2485 24.5197 93.7354C22.9556 95.4402 20.7838 96.0366 18.6064 95.5358C18.9159 93.8929 19.2309 92.2444 19.5573 90.5171C21.4196 90.5059 22.4211 89.4425 22.9443 87.7996C23.2482 86.8431 23.1244 86.1454 22.6293 85.8922C22.0835 85.6109 21.5209 85.8528 20.8963 86.708C20.4069 87.372 20.0018 88.0921 19.5066 88.7504C18.9159 89.5381 18.3082 90.3258 17.6331 91.0404C15.0674 93.7691 11.2527 92.5989 9.64923 90.3989C8.70963 89.1105 8.32141 87.6589 8.48457 86.0891C8.70963 83.9174 9.43543 81.9144 10.7914 80.1871C12.0911 78.5329 13.824 77.734 16.1252 77.689L16.1196 77.6833Z" fill="#1D1D1B"/>
<path d="M1.28844 116.348C2.7738 116.415 4.07349 116.471 5.55886 116.533C5.48571 118.007 5.39007 119.352 5.35631 120.691C5.32255 121.997 5.35068 123.302 5.35068 124.731C6.08211 124.782 6.80791 124.827 7.68 124.883C7.81503 122.677 7.93881 120.567 8.06822 118.435H12.153C12.0686 120.691 11.9898 122.807 11.911 125.04C12.8619 125.13 13.7058 125.209 14.7242 125.31C14.8874 122.548 15.0393 119.904 15.1968 117.237H19.5742C19.4616 121.878 19.1578 126.374 18.899 130.847C17.7962 131.139 2.09301 130.324 0.568264 129.89C0.804572 125.451 1.04651 120.989 1.29407 116.348H1.28844Z" fill="#1D1D1B"/>
<path d="M57.0402 38.9682C58.413 37.8823 59.6677 36.8921 61.0462 35.8005C62.0702 37.0665 63.066 38.293 64.1688 39.6602C62.8016 40.7461 61.5075 41.7757 60.1234 42.8785C59.0713 41.5451 58.1148 40.3298 57.0402 38.9738V38.9682Z" fill="#1D1D1B"/>
<path d="M35.8006 70.9822C34.9116 72.5182 34.0958 73.9248 33.2125 75.4496C31.7327 74.5775 30.3712 73.7729 28.9252 72.9233C29.8085 71.4098 30.6244 70.0088 31.5021 68.501C32.9368 69.3281 34.2759 70.1045 35.8006 70.9822Z" fill="#1D1D1B"/>
<path d="M21.037 109.501C19.3378 109.135 17.8244 108.808 16.1589 108.454C16.5134 106.766 16.8454 105.179 17.2111 103.441C18.8202 103.773 20.3337 104.082 22.0273 104.431C21.7009 106.108 21.3858 107.694 21.037 109.501Z" fill="#1D1D1B"/>
<path d="M126.065 3.4828H130.763C130.853 3.94416 130.92 4.29862 131.01 4.75436C133.671 2.79638 136.164 2.83014 138.398 5.45203C138.707 5.18759 138.977 4.94003 139.264 4.7206C140.811 3.52218 143.332 3.43216 144.969 4.51805C145.965 5.18197 146.522 6.11594 146.545 7.30873C146.567 8.54091 146.545 9.77871 146.494 11.0165C146.426 12.8676 146.336 14.7187 146.241 16.5697C146.218 16.9692 146.156 17.3687 146.1 17.9088C144.345 17.8357 142.685 17.7625 140.913 17.6838C141.003 15.5345 141.081 13.5653 141.166 11.6017C141.199 10.7352 141.273 9.87436 141.267 9.0079C141.267 8.06267 141.003 7.73071 140.339 7.6632C139.613 7.59005 139.101 7.91638 138.91 8.72658C138.758 9.36236 138.701 10.0263 138.668 10.6789C138.555 12.8957 138.471 15.1181 138.375 17.3068C137.329 17.6219 135.393 17.5712 133.193 17.1774C133.193 16.761 133.176 16.3166 133.193 15.8777C133.294 13.6553 133.413 11.4329 133.508 9.21045C133.525 8.80535 133.491 8.389 133.401 7.98953C133.278 7.43251 132.867 7.19058 132.31 7.18495C131.736 7.17933 131.348 7.4719 131.23 8.0064C131.106 8.56342 131.038 9.14293 131.01 9.71682C130.903 11.8155 130.824 13.9141 130.729 16.0127C130.712 16.3391 130.673 16.6654 130.644 16.9748C129.829 17.2224 126.942 17.138 125.457 16.7948C125.659 12.3725 125.856 7.91638 126.059 3.46592L126.065 3.4828Z" fill="#1D1D1B"/>
<path d="M92.9533 10.8477C91.226 11.7366 89.6675 12.5412 88.1259 13.3345C87.6983 12.8619 87.4057 12.4624 87.04 12.1361C85.7178 10.9546 83.7823 11.551 83.366 13.2783C83.2647 13.7059 83.2253 14.1897 83.2985 14.623C83.6192 16.5978 84.3 18.4489 85.4534 20.0918C86.348 21.3634 87.7714 21.6953 89.043 21.0202C90.0895 20.4631 90.4271 19.6698 90.0895 18.3589C89.2174 18.6458 88.3453 18.9328 87.3607 19.2591C86.8825 18.0607 86.4324 16.9298 85.926 15.6526C88.4691 14.6342 90.9391 13.644 93.3922 12.6594C94.0336 13.4189 96.9987 20.6094 97.3081 22.2017C96.5429 22.5111 95.7553 22.8319 94.9619 23.1582C94.4781 22.7418 94.0561 22.3761 93.6172 21.9935C93.4766 22.1454 93.3809 22.2186 93.3247 22.3198C90.5734 26.8547 84.6094 27.6255 81.0142 23.7658C78.3473 20.902 77.2501 17.4305 77.9872 13.5033C78.3191 11.731 79.225 10.2794 80.6709 9.19915C82.252 8.01761 84.0186 7.26367 86.0047 7.10051C89.043 6.8417 91.1979 8.25954 92.9646 10.8533L92.9533 10.8477Z" fill="#1D1D1B"/>
<path d="M243.498 78.6961C244.106 78.7636 244.623 78.8199 245.282 78.8874C245.676 79.6864 246.103 80.5584 246.576 81.5262C241.158 84.1031 235.824 86.6406 230.377 89.2343C229.483 87.6533 228.819 86.0836 228.048 84.4519C229.607 83.6811 231.092 82.944 232.797 82.1001C230.974 81.3799 230.197 80.1027 229.826 78.5048C229.528 77.2276 229.804 76.0574 230.462 74.9602C232.144 72.1695 236.364 70.3184 239.565 70.9655C242.502 71.5562 244.578 75.0108 243.729 77.8972C243.661 78.1222 243.594 78.3529 243.493 78.6905L243.498 78.6961ZM235.458 80.716C235.706 80.6485 236.038 80.5922 236.33 80.4572C237.523 79.9058 238.716 79.36 239.875 78.7524C240.888 78.2235 241.259 77.4246 240.949 76.6706C240.668 75.9955 239.83 75.6072 238.817 75.9898C237.41 76.5243 236.077 77.2558 234.727 77.9309C234.518 78.0322 234.355 78.2516 234.203 78.4429C233.877 78.8593 233.765 79.3263 234.006 79.8214C234.282 80.3897 234.755 80.6654 235.458 80.716Z" fill="#1D1D1B"/>
<path d="M186.677 22.2186C187.201 21.4028 187.223 21.0764 186.796 20.5982C186.03 19.7486 184.905 19.6586 183.538 20.4182C182.278 19.5967 180.95 18.7359 179.554 17.8244C180.984 16.0971 182.745 15.7314 184.652 16.1084C187.004 16.5697 189.074 17.6669 190.802 19.3379C192.242 20.7332 192.529 22.2298 191.724 24.0584C191.246 25.1499 190.661 26.1964 190.132 27.2655C189.249 29.0603 188.365 30.8607 187.437 32.7624C186.059 32.0422 184.646 31.3108 183.183 30.5456C183.24 30.1124 183.285 29.7242 183.347 29.2403C183.077 29.2403 182.846 29.2009 182.626 29.2459C180.32 29.7186 178.469 28.8127 177.006 27.1698C175.07 24.9868 176.235 21.5209 179.059 20.7557C180.252 20.435 181.445 20.5363 182.598 20.8683C183.977 21.2621 185.327 21.7629 186.683 22.2186H186.677ZM185.513 24.7448C184.511 24.1991 183.662 24.1091 182.795 24.2441C182.098 24.351 181.552 24.9586 181.529 25.5719C181.512 26.067 181.934 26.5509 182.593 26.7928C183.375 27.0798 184.061 26.9391 184.584 26.2696C184.928 25.8307 185.17 25.3131 185.513 24.7392V24.7448Z" fill="#1D1D1B"/>
<path d="M159.716 21.1833C157.972 20.6825 156.329 20.2099 154.534 19.6923C155.789 15.2812 157.01 10.9826 158.27 6.55469C159.896 7.01605 161.421 7.44365 163.002 7.88814C162.951 8.31574 162.912 8.6702 162.861 9.08093C163.024 9.06968 163.154 9.09781 163.238 9.04717C165.033 8.11319 166.76 8.40014 168.414 9.36787C169.888 10.2287 170.586 11.6072 170.17 13.2388C169.343 16.5077 168.38 19.7485 167.469 22.9949C167.447 23.0625 167.362 23.1187 167.193 23.31C165.624 22.8599 163.986 22.3873 162.27 21.8922C162.349 21.4702 162.388 21.1551 162.473 20.8457C163.109 18.5839 163.75 16.3277 164.386 14.0715C164.487 13.7171 164.571 13.3513 164.622 12.9856C164.684 12.5018 164.571 12.0854 164.059 11.8716C163.508 11.6466 162.951 11.6691 162.613 12.1698C162.293 12.6368 162.062 13.1826 161.899 13.7227C161.297 15.7313 160.74 17.7568 160.16 19.7767C160.037 20.2043 159.89 20.6206 159.716 21.172V21.1833Z" fill="#1D1D1B"/>
<path d="M251.758 97.4264C249.749 97.9496 247.921 98.4278 246.092 98.9061C245.175 99.148 244.258 99.3843 243.346 99.6319C242.806 99.7782 242.305 99.9863 242.328 100.673C242.345 101.325 242.885 101.933 243.594 101.972C244.078 102.001 244.578 101.894 245.051 101.776C247.048 101.275 249.04 100.752 251.032 100.24C251.426 100.138 251.831 100.054 252.388 99.9301C252.838 101.612 253.282 103.255 253.772 105.084C249.321 106.226 245 107.334 240.533 108.477C240.274 107.559 240.044 106.789 239.841 106.007C239.644 105.258 239.47 104.499 239.273 103.683C239.745 103.503 240.162 103.351 240.691 103.154C240.511 103.002 240.392 102.85 240.241 102.783C238.418 101.939 237.545 99.4743 237.793 97.6345C237.928 96.6387 238.451 95.8566 239.301 95.3333C239.751 95.0576 240.252 94.8213 240.758 94.6863C243.898 93.848 247.048 93.049 250.317 92.2051C250.97 93.8649 251.302 95.5809 251.763 97.4376L251.758 97.4264Z" fill="#1D1D1B"/>
<path d="M248.404 130.56C248.213 127.606 248.022 124.703 247.836 121.817C246.508 121.766 245.912 122.092 245.647 122.925C245.338 123.899 245.698 125.063 246.593 125.468C247.161 125.721 247.313 126.053 247.313 126.594C247.307 127.944 247.313 129.294 247.313 130.78C245.242 130.38 243.853 129.334 242.997 127.702C241.681 125.204 241.535 122.554 242.587 119.938C243.633 117.333 246.098 115.881 249.102 115.909C252.011 115.937 254.565 117.625 255.606 120.219C256.253 121.834 256.383 123.516 256.051 125.198C255.359 128.715 252.264 130.915 248.41 130.56H248.404ZM250.728 121.558C250.689 122.717 250.649 123.876 250.942 125.018C252.455 124.878 253.007 124.321 252.934 123.145C252.86 121.991 252.197 121.49 250.728 121.558Z" fill="#1D1D1B"/>
<path d="M112.077 5.00766C113.405 4.77698 114.559 4.57443 115.864 4.34375C115.808 4.94577 115.796 5.38463 115.723 5.81786C114.947 10.3977 114.17 14.9776 113.366 19.5518C113.248 20.2326 113.028 20.9078 112.769 21.5492C112.291 22.7139 111.408 23.4959 110.215 23.8954C108.882 24.3455 107.509 24.5368 105.973 24.5312C105.759 23.3553 105.551 22.2019 105.32 20.9247C105.838 20.8515 106.232 20.8178 106.614 20.7334C107.295 20.5815 107.993 20.4746 108.634 20.2158C109.337 19.9288 109.444 19.5237 109.129 18.826C108.977 18.4885 108.775 18.1734 108.583 17.8583C106.749 14.8369 104.909 11.8156 103.075 8.78859C102.715 8.19219 102.372 7.59017 101.922 6.82498C103.857 6.47615 105.658 6.14982 107.565 5.80661C108.657 7.88274 109.72 9.90823 110.879 12.1081C111.43 10.8928 111.363 9.71694 111.571 8.60854C111.79 7.44388 111.909 6.25672 112.083 4.99641L112.077 5.00766Z" fill="#1D1D1B"/>
<path d="M196.259 33.7863C197.396 34.4446 198.425 35.0466 199.477 35.6543C199.551 35.6993 199.59 35.7781 199.584 35.8625C199.455 37.5673 200.591 38.445 201.835 39.2495C201.936 39.3171 202.161 39.4521 202.268 39.469C202.527 39.4971 202.628 39.5252 202.859 39.424C202.943 39.3846 203.101 39.0639 203.095 38.9682C203.084 38.7319 203.056 38.6869 202.943 38.5181C202.651 38.0793 202.257 37.7023 201.914 37.2916C201.261 36.5095 200.58 35.7443 199.961 34.9397C198.662 33.235 198.746 30.7706 200.293 29.2852C201.239 28.3738 202.465 28.0531 203.877 28.3063C206.741 28.8183 208.806 30.4949 210.196 32.993C210.792 34.0677 210.921 35.2492 210.477 36.5714C210.432 36.7008 210.28 36.7571 210.156 36.6952C209.087 36.1325 208.069 35.6205 207.084 35.0466C206.904 34.9397 206.854 34.5628 206.792 34.2983C206.488 33.0155 205.576 32.1941 204.243 32.014C204.153 32.0028 204.057 32.0478 204.018 32.1266C203.759 32.6498 204.142 33.0268 204.462 33.3812C205.289 34.2927 206.167 35.1704 206.994 36.0875C207.703 36.8696 208.136 37.7811 208.232 38.8557C208.423 41.0669 206.747 43.1486 204.53 43.2837C203.725 43.3343 202.865 43.2612 202.105 43.008C199.77 42.2315 197.891 40.7799 196.518 38.7375C195.545 37.2859 195.28 35.7106 195.927 33.9045C195.972 33.7751 196.135 33.7188 196.254 33.792L196.259 33.7863Z" fill="#1D1D1B"/>
<path d="M218.737 54.4803C217.774 55.3524 216.902 56.1513 215.94 57.0234C214.427 55.8756 213.088 54.6885 212.277 53.0174C211.687 51.7965 211.799 50.6037 212.598 49.5235C213.009 48.9665 213.515 48.4713 214.027 47.9931C215.288 46.8172 216.57 45.6638 217.904 44.4541C217.482 43.914 217.11 43.4414 216.66 42.8731C217.476 42.1135 218.27 41.3709 219.125 40.5719C219.62 41.0445 220.059 41.4609 220.588 41.9729C221.645 41.0614 222.692 40.1612 223.868 39.1484C225.094 40.3075 226.197 41.5453 227.412 42.845C226.338 43.8577 225.331 44.8086 224.217 45.8551C224.757 46.5246 225.274 47.1829 225.882 47.9368C225.049 48.702 224.245 49.4503 223.294 50.3224C222.743 49.6022 222.242 48.9552 221.685 48.2238C220.959 48.8483 220.464 49.259 219.986 49.6866C219.22 50.3787 218.45 51.0595 217.724 51.7909C217.105 52.4098 217.116 52.8543 217.696 53.5013C217.966 53.8051 218.286 54.064 218.737 54.4803Z" fill="#1D1D1B"/>
<path d="M223.744 67.8653C222.652 66.2787 221.679 64.8664 220.655 63.3867C224.402 60.793 228.059 58.2667 231.694 55.7461C232.499 56.3537 234.102 58.5537 234.89 60.1515C231.233 62.6834 227.547 65.2265 223.738 67.8653H223.744Z" fill="#1D1D1B"/>
<path d="M232.684 55.0654C233.928 54.2101 234.997 53.4675 236.201 52.6404C237.236 54.1201 238.232 55.538 239.312 57.0852C238.097 57.9179 236.972 58.6944 235.745 59.5327C234.687 57.9967 233.725 56.5901 232.684 55.071V55.0654Z" fill="#1D1D1B"/>
<path d="M117.383 206.831C116.151 206.938 116.123 206.916 115.971 205.751C115.408 201.396 114.851 197.047 114.277 192.692C113.636 187.854 112.972 183.02 112.319 178.182C111.965 175.543 111.582 172.904 111.262 170.254C110.879 167.12 110.592 163.981 110.176 160.853C109.951 159.148 109.54 157.465 109.219 155.778C109.18 155.575 109.202 152.841 109.365 151.676C109.422 151.282 109.692 149.313 109.585 148.908C108.966 149.977 108.617 152.683 108.724 153.859C108.808 154.799 108.628 155.575 108.668 156.515C108.544 157.353 108.583 157.426 107.953 157.91C106.412 158.591 105.016 159.654 103.401 160.009C101.556 160.419 98.6303 160.042 97.0718 158.636C95.8847 157.567 95.1532 156.773 94.2643 155.311C93.5666 154.163 93.0884 152.886 92.9027 151.552C92.6664 149.864 92.6326 147.861 93.049 145.746C93.1896 145.155 93.5385 144.502 93.9661 143.878C95.1757 142.128 96.9424 140.783 98.9792 140.176C100.273 139.787 101.911 139.647 104.02 140.232C105.877 140.873 107.447 142.167 108.386 144.03C108.533 144.322 110.187 147.13 109.523 148.413C109.455 148.536 109.371 148.671 109.574 148.902C109.776 148.379 110.012 147.872 110.164 147.338C110.536 146.044 110.963 144.75 111.183 143.428C111.357 142.359 111.273 137.098 110.029 131.404C109.669 129.75 108.972 128.163 107.891 126.864C106.811 125.564 105.5 124.591 103.745 124.523C99.8513 123.96 92.8464 124.579 84.7051 128.703C84.6769 128.85 84.615 129.052 84.6038 129.249C84.5306 131.179 84.48 133.115 84.3956 135.044C84.2493 138.33 84.0805 141.622 83.9286 144.907C83.8048 147.619 83.6811 150.331 83.5742 153.043C83.5291 154.129 83.3491 154.562 82.8033 154.669C82.3026 154.77 81.5487 154.264 81.228 153.488C80.052 150.635 78.9043 147.766 77.7565 144.902C75.3371 138.865 72.9066 132.833 70.5378 126.779C70.1271 125.721 69.9921 124.557 69.7389 123.443C69.6207 122.92 69.8796 122.391 70.3578 122.149C73.0866 120.781 75.7873 119.358 78.4992 117.957C81.8862 116.207 85.2733 114.446 88.666 112.713C91.2992 111.363 93.9436 110.035 96.5992 108.719C96.9706 108.533 97.37 108.426 97.7807 108.392C100.11 108.212 108.375 108.072 111.048 107.998C113.208 107.936 115.273 108.021 116.308 108.809C118.075 110.153 119.904 111.419 121.428 113.045C122.751 114.446 123.977 115.932 125.294 117.338C127.1 119.268 128.422 121.524 129.705 123.797C130.633 125.446 131.179 127.263 131.342 129.176C131.353 129.289 131.652 132.974 131.702 135.641C131.708 136.051 131.702 136.451 131.663 136.862C131.297 141.239 130.138 147.164 129.497 148.204C128.613 149.628 125.541 156.413 121.569 158.011C121.018 158.298 120.883 158.692 120.849 159.176C120.719 161.061 120.641 162.951 120.511 164.83C120.376 166.833 120.191 168.836 120.044 170.845C119.909 172.69 119.808 174.536 119.679 176.381C119.476 179.251 119.262 182.12 119.06 184.984C118.868 187.73 118.694 190.481 118.503 193.227C118.385 194.903 118.238 196.58 118.109 198.262C117.901 201.002 117.67 203.112 117.456 205.852C117.445 205.97 117.411 206.719 117.377 206.831H117.383Z" fill="#1D1D1B"/>
<path d="M109.118 89.6958C107.115 87.5296 105.112 85.3691 103.109 83.2029C100.628 80.5248 98.1465 77.8466 95.6596 75.1797C93.9267 73.323 92.1713 71.4888 90.444 69.6265C90.2076 69.3733 89.9938 69.0413 89.9095 68.7094C89.7463 68.0624 90.1289 67.5616 90.8097 67.5954C91.4454 67.6291 92.1487 67.6966 92.7001 67.9836C98.9173 71.1794 105.106 74.4258 111.307 77.6497C115.684 79.9284 120.067 82.1845 124.444 84.4632C126.183 85.3691 126.391 86.0499 125.524 87.7997C122.509 93.8874 115.538 107.396 115.538 107.396L97.7582 107.74C101.5 101.877 105.337 95.626 109.124 89.6958H109.118Z" fill="#1D1D1B"/>
<path d="M184.14 130.065C184.14 130.065 183.932 129.801 183.769 129.66C183.38 129.362 183.099 129.165 182.649 128.917C182.328 128.743 181.996 128.597 181.653 128.45C181.135 128.253 180.348 127.854 180.348 127.854C180.078 127.719 179.706 127.544 179.706 127.544C179.425 127.505 178.941 127.19 178.66 126.892C178.485 126.706 178.221 126.453 177.912 126.363L177.58 126.267C176.066 125.823 174.502 125.361 172.943 124.979C171.683 124.669 170.699 124 169.905 123.381L169.697 123.223C168.296 122.137 166.85 121.018 165.393 119.966C163.48 118.587 161.573 117.141 159.721 115.667C159.159 115.217 158.602 114.761 158.045 114.306C157.077 113.512 156.081 112.691 155.057 111.931C154.742 111.701 154.281 111.611 153.803 111.605C152.469 111.577 151.946 112.961 152.863 113.929C152.857 113.917 153.071 114.148 152.863 113.929C153.285 114.452 154.433 116.202 154.596 116.37C155.063 116.871 156.576 118.672 157.167 119.313C157.78 119.983 158.394 120.652 159.007 121.316L159.103 121.412C159.39 121.699 159.676 121.986 159.963 122.278C160.453 122.756 160.926 123.274 161.387 123.775C161.73 124.146 162.068 124.517 162.411 124.866C163.215 125.705 164.071 126.526 164.898 127.325L167.52 129.834C167.902 130.2 168.257 130.571 168.617 130.937C169.095 131.432 169.551 131.899 170.046 132.355C171.008 133.244 171.897 133.987 172.763 134.617C173.799 135.365 174.738 136.023 175.757 136.445C176.505 136.766 177.338 136.929 178.215 136.929C178.53 136.929 178.846 136.907 179.166 136.867C179.706 136.8 180.269 136.67 180.877 136.468L181.096 136.395C181.58 136.226 182.081 136.052 182.531 135.849C183.116 135.579 183.577 135.253 183.926 134.847C184.342 134.38 184.584 133.756 184.708 133.317C185.04 132.147 184.821 130.903 184.14 130.065Z" fill="#1D1D1B"/>
<path d="M175.34 114.058C175.65 117.805 176.567 119.257 177 119.825C178.013 121.153 179.684 122.233 181.327 122.087C181.203 122.076 181.445 122.076 181.327 122.087C183.594 120.916 187.144 120.922 188.219 121.248C188.495 121.158 188.72 121.102 188.894 120.978C189.986 120.191 190.751 119.139 191.24 117.895C191.927 116.157 191.831 114.396 191.567 112.64C191.404 111.565 190.785 109.945 190.188 109.039C189.513 108.021 188.787 107.115 187.775 106.322C186.683 105.466 185.541 104.954 183.69 104.791C182.581 104.696 181.029 104.938 179.898 105.444C178.767 105.95 177.85 106.822 177.017 107.706C175.903 108.882 175.481 110.75 175.335 112.516C175.295 113.028 175.301 113.546 175.346 114.052L175.34 114.058Z" fill="#1D1D1B"/>
<path d="M188.152 121.642C187.173 121.558 184.629 121.383 181.535 122.43C180.32 123.544 179.448 124.827 178.553 126.132C179.009 126.548 179.386 126.897 179.763 127.241C180.201 127.46 180.652 127.651 181.113 127.82C181.687 128.028 182.278 128.22 182.846 128.478C183.105 128.602 183.347 128.72 183.6 128.855C183.6 128.855 183.673 128.895 183.69 128.9C183.966 129.063 184.23 129.26 184.466 129.497C184.933 129.964 185.254 130.583 185.4 131.224C185.547 131.865 185.552 132.541 185.417 133.188C185.276 133.835 185.04 134.448 184.613 135.005C184.202 135.539 183.645 135.956 183.065 136.26C182.953 136.322 182.835 136.372 182.722 136.428C182.722 136.44 182.587 136.502 182.514 136.524C182.12 136.704 181.732 136.862 181.332 137.019C180.736 137.244 180.117 137.424 179.476 137.531C179.448 137.531 179.414 137.537 179.386 137.542C179.391 137.542 176.668 137.61 175.605 137.188C174.536 136.76 173.619 136.164 172.724 135.551C172.145 135.703 171.745 136.068 171.357 136.445C170.068 137.694 168.791 138.955 167.497 140.198C166.546 141.11 165.59 142.01 164.616 142.899C164.431 143.068 164.161 143.152 163.654 143.428C163.879 142.696 164.014 142.246 164.161 141.796C165.241 138.505 166.332 135.213 167.401 131.916C167.525 131.539 167.565 131.28 167.508 131.055C167.266 130.808 167.025 130.571 166.783 130.335C165.888 129.491 165.005 128.642 164.127 127.781C163.249 126.92 162.372 126.059 161.516 125.153C160.661 124.236 159.902 123.302 159.046 122.424L156.514 119.752C155.676 118.852 154.843 117.935 154.095 116.944C153.718 116.46 153.347 115.926 153.094 115.358C152.908 114.947 152.79 114.621 152.655 114.199C152.593 114.092 152.621 113.996 152.559 113.884C152.582 113.872 152.486 113.754 152.508 113.737C152.497 113.692 152.48 113.647 152.463 113.602L152.002 112.224C151.935 111.987 151.918 111.926 151.85 111.858C149.87 110.373 147.872 108.882 145.875 107.385C143.473 105.585 141.07 103.784 138.656 102.001C138.302 101.736 137.891 101.5 137.475 101.376C136.687 101.145 136.321 101.348 136.057 102.119C135.652 103.283 135.809 104.358 136.597 105.36C139.438 108.972 142.24 112.612 145.082 116.218C147.524 119.319 149.785 122.565 152.362 125.558C153.105 126.419 153.071 127.37 152.773 128.208C152.154 129.958 151.333 131.646 150.545 133.334C149.707 135.134 148.789 136.895 147.94 138.696C147.135 140.401 146.449 142.162 145.577 143.827C145.025 144.879 144.738 145.948 144.66 147.113C144.468 149.988 144.913 152.773 145.852 155.474C146.331 156.858 146.876 158.27 147.653 159.502C149.262 162.051 151.445 164.228 154.202 165.359C156.959 166.49 159.406 166.569 161.505 166.524C164.408 166.462 167.205 166.113 170.091 165.472C172.977 164.83 179.054 160.83 183.909 153.718C185.738 151.04 190.07 141.447 190.689 139.54C191.33 137.548 191.454 132.147 191.499 131.533C191.623 129.688 191.578 127.848 190.875 126.115C190.216 124.489 189.609 122.818 188.146 121.642H188.152Z" fill="#1D1D1B"/>
</g>
<defs>
<clipPath id="clip0_414_7876">
<rect width="256" height="256" fill="white"/>
</clipPath>
</defs>
</svg>
