<svg width="256" height="256" viewBox="0 0 256 256" fill="none" xmlns="http://www.w3.org/2000/svg">
<path d="M235.524 187.74C238.588 180.841 241.794 169.526 241.207 160.306C241.207 160.306 233.652 163.668 228.314 163.668C225.163 163.668 223.459 162.283 221.1 160.759C218.255 158.921 214.86 156.945 208.808 156.945C207.054 156.945 205.568 157.125 204.338 157.411C203.877 155.795 203.402 154.234 203.092 153.789C203.923 149.668 206.416 140.506 206.416 129.217C206.416 104.016 198.287 78.6968 193.943 65.5779C186.733 66.1108 165.347 68.8597 150.683 57.5957C150.071 51.523 147.213 46.1093 138.639 42.8694C134.828 39.8897 130.598 38.4335 129.041 38.2236C127.48 38.5048 123.254 40.2339 119.51 42.9365C110.118 46.5919 107.688 52.2575 107.692 60.1137C90.2253 70.1775 79.5363 67.7937 67.2567 67.7937C66.6104 69.7368 64.021 79.2927 63.6517 80.8917C61.3435 79.9013 56.7691 78.6507 51.8253 78.6507C46.8816 78.6507 44.0404 79.532 43.1381 80.1531C42.8611 81.6093 35.03 110.86 35.03 124.303C35.03 137.745 39.8815 145.299 40.9894 146.961C42.7898 144.258 50.1382 132.478 50.1382 132.478L51.5232 133.447L50.4824 135.529L52.7696 136.498C52.7696 136.498 50.2767 140.796 50.2767 151.606C50.2767 153.302 50.3984 155.211 50.6041 157.23C49.6011 157.05 48.4386 156.94 47.0872 156.94C41.0355 156.94 37.3886 158.913 34.5474 160.755C32.1889 162.279 30.2794 163.55 27.1276 163.55C21.6299 163.55 14.4451 160.222 14.4451 160.222C13.7065 168.448 17.408 180.795 20.4716 187.69C18.0249 192.734 15.0033 199.944 13.6184 203.255C13.4085 203.755 13.2407 204.158 13.119 204.443L10.9073 209.034C10.9073 209.034 17.0891 210.721 20.2282 210.721C23.082 210.721 26.5485 210.239 28.5419 209.307V213.055C28.5419 217.91 34.1277 220.701 35.9659 221.616C40.0787 223.668 45.8912 225.527 53.248 227.143C65.1415 229.754 86.6329 232.876 122.154 233.245V233.275L126.351 233.283C126.67 233.283 126.984 233.283 127.303 233.283H127.832H128.344C128.659 233.283 128.974 233.283 129.297 233.283H133.494V233.245C169.015 232.872 190.506 229.749 202.399 227.143C209.756 225.532 215.569 223.673 219.682 221.616C221.784 220.567 223.387 219.497 224.579 218.347C226.669 216.332 227.106 214.356 227.106 213.055V209.307C229.099 210.235 232.431 210.705 235.285 210.705C238.768 210.705 244.833 209.093 244.833 209.093C244.833 209.093 237.975 192.776 235.528 187.736L235.524 187.74ZM209.773 177.185C209.186 177.282 207.305 177.899 205.492 178.428L209.563 173.551C209.53 174.73 209.807 176.632 209.773 177.185ZM78.8816 185.587C76.7455 185.394 74.6597 185.189 72.6411 184.975C71.147 184.815 69.7243 184.651 68.3688 184.488C71.6674 183.539 75.1717 182.289 75.6921 182.104C76.1621 182.851 77.4841 184.249 78.8816 185.583V185.587ZM222.909 213.059C222.909 218.615 197.028 228.797 129.297 229.086V229.095C128.802 229.095 128.315 229.095 127.824 229.095C127.333 229.095 126.846 229.095 126.351 229.095V229.086C58.6198 228.801 32.7386 218.62 32.7386 213.059V180.304C32.7386 171.432 50.2935 172.678 50.2935 166.811C50.2935 163.92 47.381 163.152 44.9805 163.152C43.5788 163.152 42.3533 163.412 41.9798 163.668C42.3953 163.714 43.5032 164.453 43.5032 165.838C43.5032 168.935 33.1541 167.361 26.9178 172.812V205.429C25.8098 206.013 22.784 206.718 20.2156 206.718C18.923 206.718 17.7437 206.537 16.9841 206.076C17.9997 203.675 22.3475 193.12 25.1635 187.686C22.0202 182.326 19.2504 168.095 19.2504 165.556C20.1736 166.375 21.9656 167.579 27.3375 167.579C36.2555 167.579 37.5019 160.822 46.9865 160.822C48.7743 160.822 50.1382 161.15 51.1538 161.616C51.8295 166.291 52.7822 171.117 53.6047 174.911V179.225C52.0436 179.154 46.9152 177.353 45.8786 177.181C45.845 176.627 46.122 174.722 46.0884 173.543C44.8042 173.543 37.7705 175.494 37.7705 179.225C37.7705 187.711 89.6797 191.836 127.828 191.941C151.137 191.878 179.578 190.313 198.182 187.169H198.199C210.033 185.168 217.885 182.528 217.885 179.229C217.885 175.498 210.852 173.547 209.567 173.547C209.563 173.53 209.102 172.17 208.481 170.341C213.529 172.741 222.909 173.82 222.909 180.308V213.063V213.059ZM228.73 205.438V172.821C222.493 167.369 212.144 168.939 212.144 165.846C212.144 164.461 213.252 163.722 213.668 163.676C213.294 163.42 212.069 163.16 210.667 163.16C209.194 163.16 207.528 163.454 206.462 164.344C206.034 163.064 205.665 161.951 205.446 161.272C206.323 161.007 207.385 160.835 208.665 160.835C218.15 160.835 219.396 167.592 228.314 167.592C233.686 167.592 235.474 166.392 236.401 165.569C236.401 168.108 233.627 182.339 230.488 187.698C233.304 193.129 237.648 203.684 238.668 206.088C237.908 206.554 236.733 206.73 235.436 206.73C232.868 206.73 229.838 206.025 228.734 205.442L228.73 205.438Z" fill="#050002"/>
<path d="M105.002 94.3674C104.54 95.0137 102.971 97.7836 102.509 99.265C91.7445 103.512 86.7085 108.456 84.6731 110.537C82.5705 108.51 81.45 107.986 80.3379 107.868C79.616 107.793 78.9026 107.889 77.9289 107.856C76.544 107.81 76.032 107.197 74.3491 106.794C74.5842 106.542 75.2598 105.866 76.1537 105.01C77.333 103.881 78.8858 102.434 80.2707 101.233C80.7324 100.835 81.1772 100.465 81.5801 100.142C81.0261 98.1193 80.2413 96.0545 79.1796 94.0653C77.14 90.2421 74.0805 86.7084 69.7034 84.3415C69.7369 84.2575 69.7705 84.1568 69.8125 84.0351C70.3958 82.2935 71.7346 76.9217 72.3389 75.1926C74.5296 75.2178 76.4475 75.2304 78.1933 75.2052C78.6214 75.201 79.0369 75.1926 79.4398 75.18C84.0058 75.0751 87.4639 74.6974 91.8621 73.7406C92.6636 73.5685 93.4946 73.3754 94.3675 73.1614C95.5846 72.8634 96.8855 72.5277 98.304 72.1416C98.4845 74.2022 98.9377 76.2208 99.5379 78.0926C101.103 82.9691 103.667 86.8553 105.002 87.9884C105.002 88.7732 105.094 93.1168 105.002 94.3674Z" fill="#DA3241"/>
<path d="M105.002 94.3677C104.54 95.014 102.971 97.7838 102.509 99.2652C91.7445 103.512 86.7085 108.456 84.6731 110.538C82.5705 108.511 81.45 107.986 80.3379 107.869L76.1537 105.011C77.333 103.882 78.8858 102.434 80.2707 101.233L90.3554 104.486L79.1796 94.0655C77.14 90.2423 74.0805 86.7086 69.7034 84.3417C69.7369 84.2578 69.7705 84.157 69.8125 84.0353L95.6685 98.2454L78.1933 75.2054C78.6214 75.2012 79.0369 75.1928 79.4398 75.1802L101.699 92.9156L91.8621 73.7408C92.6636 73.5687 93.4946 73.3757 94.3675 73.1616L99.5379 78.0928C101.103 82.9694 103.667 86.8555 105.002 87.9886C105.002 88.7734 105.094 93.117 105.002 94.3677Z" fill="#F9D13A"/>
<path d="M199.21 129.221C199.21 132.373 199.067 134.992 198.87 137.103C198.774 138.139 198.664 139.054 198.551 139.852C198.283 141.774 197.989 142.999 197.825 143.57C196.809 142.391 195.769 141.178 194.736 139.957C193.221 138.169 191.719 136.368 190.313 134.664C189.012 133.086 187.799 131.592 186.742 130.266C184.635 127.635 183.149 125.667 182.834 125.037C182.662 124.693 182.482 124.341 182.289 123.98C182.108 123.635 181.919 123.287 181.722 122.926C180.488 120.694 178.915 118.159 176.925 115.557C176.82 115.418 176.716 115.28 176.606 115.141C171.944 109.148 165.103 102.857 155.316 99.1266C154.846 97.4731 154.162 95.4293 153.193 94.229C153.227 93.1169 153.193 89.6714 153.193 88.3914C154.637 87.1995 159.417 80.1532 159.631 73.0524C159.664 71.9738 159.589 70.8953 159.383 69.8335C160.113 70.1357 160.89 70.421 161.712 70.6896C162.715 71.0212 163.785 71.3275 164.927 71.6045C167.856 72.3222 171.239 72.8551 175.1 73.1615C175.792 73.2161 176.506 73.2664 177.232 73.3042C180.61 73.493 184.328 73.514 188.399 73.342C188.894 74.7185 189.373 76.116 189.839 77.5303C191.19 81.6599 192.411 85.9321 193.486 90.217C193.624 90.7709 193.763 91.3249 193.897 91.8789C194.749 95.3957 195.504 98.9042 196.155 102.329C196.314 103.143 196.465 103.949 196.604 104.75C197.166 107.877 197.64 110.915 198.022 113.811C198.148 114.764 198.266 115.704 198.371 116.623C198.736 119.77 198.983 122.704 199.109 125.348C199.16 126.342 199.189 127.295 199.202 128.202C199.206 128.55 199.21 128.89 199.21 129.221Z" fill="#DA3241"/>
<path d="M198.87 137.102C198.774 138.139 198.664 139.054 198.551 139.851L194.736 139.956C193.221 138.168 191.719 136.368 190.313 134.664L198.87 137.102Z" fill="#F9D13A"/>
<path d="M196.604 104.75L176.606 115.141C171.944 109.148 165.103 102.857 155.316 99.1264C154.846 97.4729 154.162 95.4291 153.193 94.2289C153.227 93.1167 153.193 89.6712 153.193 88.3912C154.637 87.1994 159.417 80.1531 159.631 73.0522L161.712 70.6895C162.715 71.021 163.785 71.3274 164.927 71.6043L157.352 89.9314L175.1 73.1613C175.792 73.2159 176.506 73.2662 177.232 73.304L163.727 95.0136L189.839 77.5301L169.04 101.111L193.486 90.2168C193.624 90.7708 193.763 91.3247 193.897 91.8787L173.568 107.986L196.155 102.329C196.314 103.143 196.465 103.948 196.604 104.75Z" fill="#F9D13A"/>
<path d="M198.371 116.622L181.722 122.926C180.488 120.693 178.915 118.158 176.925 115.556L198.022 113.811C198.148 114.763 198.266 115.703 198.371 116.622Z" fill="#F9D13A"/>
<path d="M199.202 128.201L186.742 130.266C184.635 127.635 183.149 125.667 182.834 125.037C182.662 124.693 182.482 124.34 182.289 123.979L199.109 125.348C199.16 126.342 199.189 127.295 199.202 128.201Z" fill="#F9D13A"/>
<path d="M153.054 67.1642C152.291 67.823 151.032 68.4358 149.521 68.8261C149.567 68.6582 149.617 68.4442 149.663 68.205C149.831 67.374 150.003 66.2241 150.113 65.3638C150.432 65.5946 150.889 65.8884 151.393 66.1947C151.93 66.5221 152.517 66.862 153.054 67.1642Z" fill="#DA3241"/>
<path d="M153.054 67.1643C152.291 67.8232 151.032 68.4359 149.521 68.8262C149.567 68.6583 149.617 68.4443 149.663 68.2051L151.393 66.1948C151.93 66.5222 152.517 66.8621 153.054 67.1643Z" fill="#F9D13A"/>
<path d="M105.035 32.2139L101.645 39.1636L89.7846 43.2471L82.8348 39.8561L80.1321 32.004L89.0376 28.9362L90.6575 33.6408L92.055 34.2913L94.3506 33.5023L95.0515 32.1299L89.2684 15.3347L86.507 16.2831L84.0015 9.0144L97.6115 4.32666L100.117 11.5954L98.1738 12.2669L105.044 32.2139H105.035Z" fill="#050002"/>
<path d="M122.632 21.8943L117.164 16.426V6.30768L122.632 0.839355H137.724L143.192 6.30768V13.0518H133.775V9.63988L132.704 8.52775H127.689L126.577 9.63988V13.0938L127.689 14.2059H137.724L143.192 19.6742V29.6247L137.724 35.093H122.632L117.164 29.6247V23.0442H126.581V26.2925L127.694 27.3626H132.709L133.779 26.2925V23.0022L132.709 21.8901H122.632V21.8943Z" fill="#050002"/>
<path d="M166.047 27.5556L164.247 32.5035L166.178 33.2086L163.534 40.4731L150.822 35.8441L153.466 28.5796L155.396 29.2847L161.838 11.5871L159.908 10.882L162.539 3.65527L182.478 10.9114L185.747 17.9199L182.217 27.6186L175.209 30.8878L166.052 27.5556H166.047ZM173.081 21.932L174.504 21.2689L175.754 17.8318L175.091 16.4091L170.685 14.806L168.675 20.333L173.081 21.9362V21.932Z" fill="#050002"/>
<path d="M31.5131 242.684L29.3896 243.905L25.558 242.868L24.3367 240.745L25.0208 238.21L27.8956 238.986L27.4843 240.506L27.7361 240.925L28.4789 241.127L28.907 240.892L30.3716 235.465L29.4819 235.226L30.1156 232.876L34.5096 234.064L33.8759 236.414L33.2464 236.246L31.5047 242.688L31.5131 242.684Z" fill="#050002"/>
<path d="M38.7357 243.679L38.8322 243.259L41.2159 243.813L40.5654 246.612L32.7973 244.807L33.3513 242.424L33.985 242.571L35.3321 236.767L34.6984 236.62L35.2482 234.249L43.0163 236.053L42.37 238.84L39.9863 238.286L40.0828 237.866L38.2321 237.438L37.8334 239.163L38.2656 239.264L38.3622 238.844L40.7333 239.394L39.9905 242.6L37.6193 242.05L37.7159 241.631L37.2836 241.53L36.8849 243.242L38.7357 243.67V243.679Z" fill="#050002"/>
<path d="M48.7197 248.261L44.0361 247.338L42.6722 245.307L43.9606 238.76L43.3227 238.634L43.7927 236.246L47.9936 237.073L47.5236 239.461L46.8857 239.335L45.7987 244.849L46.0799 245.248L47.6369 245.554L48.0356 245.29L49.1225 239.776L48.4846 239.65L48.9547 237.262L53.1556 238.088L52.6856 240.476L52.0477 240.35L50.7593 246.897L48.728 248.261H48.7197Z" fill="#050002"/>
<path d="M56.5717 244.74L56.1856 247.115L56.8277 247.22L56.4333 249.633L52.2072 248.945L52.6016 246.532L53.2437 246.637L54.2048 240.757L53.5627 240.652L53.953 238.252L57.4321 238.819L59.5724 244.19L59.9795 241.697L59.3374 241.593L59.7277 239.192L63.9538 239.88L63.5635 242.281L62.9214 242.176L61.9603 248.055L62.6024 248.16L62.2079 250.574L58.6659 249.994L56.5717 244.736V244.74Z" fill="#050002"/>
<path d="M69.1703 249.058L69.229 248.635L71.6547 248.962L71.2686 251.812L63.3662 250.741L63.6936 248.316L64.3399 248.404L65.1372 242.499L64.4909 242.411L64.8183 240.002L72.7207 241.072L72.3388 243.909L69.9131 243.582L69.9718 243.158L68.0875 242.902L67.8525 244.656L68.289 244.715L68.3477 244.291L70.7566 244.618L70.316 247.879L67.9071 247.552L67.9658 247.128L67.5294 247.069L67.2943 248.811L69.1787 249.067L69.1703 249.058Z" fill="#050002"/>
<path d="M74.626 248.009L73.0984 246.095L73.4551 242.914L75.3688 241.387L80.1153 241.92L81.6429 243.833L81.4037 245.953L78.445 245.621L78.5667 244.547L78.2688 244.161L76.6908 243.984L76.3005 244.295L76.1788 245.382L76.4894 245.768L79.6453 246.121L81.1729 248.034L80.8246 251.165L78.9109 252.693L74.1644 252.16L72.6368 250.246L72.8676 248.177L75.8305 248.509L75.7172 249.528L76.0277 249.902L77.6057 250.078L77.9792 249.78L78.0967 248.748L77.7987 248.362L74.6302 248.009H74.626Z" fill="#050002"/>
<path d="M88.0472 249.382L86.4608 247.519L86.7168 244.329L88.5801 242.743L93.3392 243.125L94.9256 244.988L94.7535 247.116L91.7822 246.876L91.8704 245.802L91.5598 245.424L89.9776 245.298L89.5999 245.622L89.5118 246.713L89.835 247.09L92.9993 247.346L94.5857 249.21L94.3338 252.349L92.4705 253.935L87.7114 253.553L86.1251 251.69L86.2929 249.617L89.2642 249.856L89.1803 250.88L89.5034 251.245L91.0856 251.371L91.4507 251.061L91.5346 250.024L91.2241 249.646L88.0472 249.39V249.382Z" fill="#050002"/>
<path d="M104.175 246.255L103.63 246.226L105.665 252.311L106.315 252.349L106.177 254.791L102.022 254.552L102.161 252.11L102.513 252.131L102.387 251.627L99.5168 251.463L99.3195 251.946L99.6721 251.967L99.5336 254.41L95.3914 254.17L95.5299 251.728L96.1804 251.766L98.8999 245.953L98.434 245.928L98.5725 243.498L104.326 243.83L104.188 246.259L104.175 246.255ZM101.749 249.52L101.158 247.766L100.373 249.441L101.749 249.52Z" fill="#050002"/>
<path d="M110.949 250.846L110.89 252.512L111.54 252.533L111.456 254.976L107.18 254.825L107.264 252.382L107.914 252.403L108.124 246.448L107.474 246.427L107.558 243.997L114.268 244.232L115.939 246.02L115.825 249.285L114.037 250.955L110.957 250.846H110.949ZM112.514 248.467L112.879 248.127L112.921 246.968L112.581 246.603L111.1 246.553L111.037 248.412L112.518 248.462L112.514 248.467Z" fill="#050002"/>
<path d="M122.444 252.806L122.452 252.378L124.899 252.416L124.852 255.291L116.879 255.165L116.916 252.718L117.567 252.727L117.663 246.767L117.013 246.759L117.051 244.325L125.024 244.451L124.978 247.313L122.532 247.275L122.54 246.847L120.639 246.818L120.61 248.589L121.05 248.597L121.059 248.169L123.493 248.207L123.442 251.497L121.008 251.459L121.017 251.031L120.576 251.023L120.547 252.777L122.448 252.806H122.444Z" fill="#050002"/>
<path d="M133.271 255.282L128.495 255.307L126.758 253.587L126.724 246.914H126.074L126.061 244.484L130.342 244.463L130.354 246.897H129.704L129.733 252.521L130.086 252.857L131.672 252.848L132.008 252.508L131.978 246.889H131.328L131.315 244.459L135.596 244.438L135.609 246.872H134.958L134.992 253.549L133.271 255.287V255.282Z" fill="#050002"/>
<path d="M141.064 252.714L141.123 255.161L136.842 255.266L136.784 252.819L137.434 252.802L137.287 246.847L136.637 246.864L136.578 244.43L143.289 244.262L145.06 245.949L145.127 248.719L144.43 249.453L145.165 250.15L145.223 252.609L145.874 252.592L145.933 255.039L142.302 255.127L142.202 251.081L141.841 250.737L140.359 250.775L140.41 252.726L141.06 252.71L141.064 252.714ZM141.786 248.307L142.13 247.946L142.109 247.074L141.748 246.729L140.267 246.767L140.305 248.341L141.786 248.303V248.307Z" fill="#050002"/>
<path d="M148.652 250.75L146.847 249.1L146.705 245.902L148.354 244.098L153.126 243.884L154.93 245.533L155.027 247.665L152.051 247.799L152.001 246.721L151.648 246.385L150.062 246.456L149.726 246.821L149.777 247.913L150.142 248.248L153.315 248.106L155.119 249.755L155.262 252.898L153.613 254.703L148.841 254.917L147.036 253.268L146.944 251.186L149.919 251.052L149.966 252.08L150.331 252.403L151.917 252.332L152.24 251.979L152.194 250.938L151.841 250.603L148.656 250.745L148.652 250.75Z" fill="#050002"/>
<path d="M164.046 249.956L164.167 251.618L164.818 251.568L164.998 254.006L160.73 254.325L160.55 251.887L161.2 251.837L160.76 245.894L160.109 245.944L159.929 243.519L166.622 243.023L168.477 244.622L168.721 247.879L167.122 249.734L164.046 249.961V249.956ZM165.342 247.422L165.666 247.044L165.582 245.89L165.204 245.567L163.727 245.676L163.865 247.531L165.342 247.422Z" fill="#050002"/>
<path d="M171.088 242.65L175.843 242.193L177.731 243.75L178.436 251.094L176.879 252.983L172.124 253.44L170.236 251.883L169.531 244.539L171.088 242.65ZM174.491 244.765L172.913 244.917L172.599 245.298L173.102 250.544L173.484 250.847L175.062 250.695L175.368 250.326L174.865 245.08L174.495 244.761L174.491 244.765Z" fill="#050002"/>
<path d="M182.788 247.061L183.132 249.852L183.779 249.772L184.077 252.198L179.829 252.722L179.532 250.296L180.178 250.217L179.452 244.304L178.805 244.383L178.508 241.97L181.97 241.546L184.975 245.399L186.956 240.934L190.418 240.51L190.716 242.923L190.069 243.003L190.796 248.916L191.442 248.836L191.74 251.262L187.493 251.786L187.195 249.361L187.841 249.281L187.497 246.49L185.625 250.678L182.797 247.069L182.788 247.061Z" fill="#050002"/>
<path d="M195.857 246.469L196.109 248.115L196.751 248.018L197.12 250.435L192.89 251.082L192.52 248.664L193.162 248.568L192.26 242.676L191.618 242.776L191.249 240.372L197.884 239.356L199.856 240.804L200.351 244.031L198.904 246.004L195.857 246.469ZM196.952 243.842L197.246 243.444L197.07 242.298L196.671 242.004L195.206 242.231L195.487 244.069L196.952 243.842Z" fill="#050002"/>
<path d="M202.467 249.591L202.047 247.182L202.689 247.069L201.661 241.198L201.019 241.311L200.599 238.915L204.817 238.176L205.236 240.573L204.594 240.686L205.622 246.557L206.265 246.444L206.684 248.853L202.467 249.591Z" fill="#050002"/>
<path d="M212.803 245.189L212.719 244.769L215.12 244.295L215.678 247.115L207.855 248.664L207.381 246.264L208.019 246.138L206.861 240.292L206.223 240.417L205.748 238.03L213.571 236.481L214.129 239.289L211.729 239.763L211.645 239.343L209.781 239.712L210.126 241.45L210.558 241.366L210.474 240.946L212.862 240.472L213.5 243.699L211.112 244.174L211.028 243.754L210.596 243.838L210.936 245.563L212.799 245.193L212.803 245.189Z" fill="#050002"/>
<path d="M220.433 243.544L220.987 245.928L216.819 246.897L216.265 244.513L216.899 244.366L215.552 238.562L214.918 238.709L214.368 236.338L220.907 234.819L222.984 236.111L223.614 238.81L223.077 239.67L223.937 240.207L224.495 242.604L225.129 242.457L225.683 244.841L222.149 245.663L221.234 241.722L220.815 241.462L219.371 241.798L219.812 243.699L220.445 243.552L220.433 243.544ZM220.252 239.087L220.517 238.667L220.319 237.819L219.9 237.555L218.456 237.891L218.813 239.423L220.256 239.087H220.252Z" fill="#050002"/>
<path d="M227.37 240.078L225.246 238.865L224.403 235.776L225.616 233.648L230.219 232.389L232.343 233.602L232.905 235.658L230.031 236.443L229.745 235.402L229.326 235.155L227.794 235.574L227.546 236.007L227.836 237.06L228.268 237.308L231.332 236.468L233.459 237.681L234.29 240.72L233.077 242.847L228.474 244.106L226.35 242.894L225.8 240.888L228.675 240.103L228.948 241.093L229.376 241.328L230.908 240.908L231.143 240.493L230.87 239.49L230.45 239.242L227.374 240.082L227.37 240.078Z" fill="#050002"/>
<path d="M230.484 187.694C233.627 182.335 236.397 168.104 236.397 165.565C235.474 166.383 233.682 167.588 228.31 167.588C219.392 167.588 218.146 160.831 208.661 160.831C203.81 160.831 202.043 163.223 202.043 164.331V179.229C203.604 179.158 208.732 177.358 209.769 177.186C209.802 176.632 209.525 174.726 209.559 173.547C210.843 173.547 217.877 175.499 217.877 179.229C217.877 187.715 165.968 191.841 127.82 191.946C89.6713 191.841 37.7621 187.715 37.7621 179.229C37.7621 175.499 44.7958 173.547 46.08 173.547C46.1135 174.726 45.8366 176.632 45.8701 177.186C46.9109 177.358 52.0393 179.162 53.5963 179.229V164.331C53.5963 163.223 51.8295 160.831 46.9781 160.831C37.4935 160.831 36.2471 167.588 27.329 167.588C21.9572 167.588 20.1694 166.388 19.2419 165.565C19.2419 168.104 22.016 182.335 25.1551 187.694C22.3391 193.125 17.9955 203.68 16.9757 206.084C19.2377 207.469 25.2474 206.315 26.9093 205.438V172.821C33.1457 167.37 43.4948 168.939 43.4948 165.846C43.4948 164.461 42.3869 163.723 41.9714 163.676C42.987 162.984 50.2893 162.245 50.2893 166.82C50.2893 172.687 32.7344 171.44 32.7344 180.312V213.068C32.7344 218.624 58.6156 228.805 126.346 229.095V229.103C126.842 229.103 127.328 229.103 127.82 229.103C128.311 229.103 128.797 229.103 129.293 229.103V229.095C197.023 228.81 222.905 218.628 222.905 213.068V180.312C222.905 171.44 205.35 172.687 205.35 166.82C205.35 162.245 212.648 162.984 213.668 163.676C213.252 163.723 212.144 164.461 212.144 165.846C212.144 168.943 222.493 167.37 228.73 172.821V205.438C230.392 206.315 236.401 207.469 238.663 206.084C237.648 203.684 233.3 193.129 230.484 187.694Z" fill="#DA3241"/>
<path d="M56.4207 200.226L55.4009 200.02L57.6252 212.027L58.838 212.27L57.9273 216.836L50.155 215.288L51.0657 210.722L51.7204 210.852L51.6113 209.87L46.2436 208.8L45.7442 209.66L46.3989 209.79L45.4882 214.356L37.7411 212.812L38.6518 208.246L39.8646 208.489L46.5248 198.253L45.6519 198.077L46.5584 193.536L57.3146 195.681L56.4081 200.222L56.4207 200.226ZM50.9817 205.728L50.3355 202.265L48.4092 205.216L50.9817 205.728Z" fill="#FDFDFF"/>
<path d="M71.0253 213.957L70.4251 218.574L62.3464 217.52L62.9466 212.904L64.1762 213.063L65.6409 201.816L64.4112 201.657L65.0072 197.065L77.6771 198.715L80.5182 202.404L79.8384 207.633L78.3108 208.808L79.4858 210.335L78.8815 214.977L80.1112 215.137L79.511 219.753L72.662 218.863L73.6566 211.225L73.0816 210.474L70.2824 210.109L69.804 213.794L71.0336 213.953L71.0253 213.957ZM73.6734 205.887L74.4246 205.312L74.6386 203.667L74.0637 202.916L71.2645 202.551L70.8784 205.522L73.6776 205.887H73.6734Z" fill="#FDFDFF"/>
<path d="M91.7571 210.835L91.3836 216.169L92.6174 216.257L92.2901 220.899L84.1652 220.328L84.4926 215.687L85.7264 215.775L86.5238 204.46L85.2899 204.372L85.6131 199.756L92.2313 200.222L96.4406 208.51L101.766 200.893L108.384 201.359L108.061 205.98L106.828 205.891L106.03 217.206L107.264 217.294L106.937 221.936L98.8118 221.365L99.1391 216.723L100.373 216.811L100.746 211.477L95.7272 218.62L91.7571 210.844V210.835Z" fill="#FDFDFF"/>
<path d="M127.026 206.353L125.986 206.336L130.342 217.747L131.58 217.764L131.508 222.418L123.585 222.296L123.656 217.642L124.324 217.654L124.042 216.71L118.57 216.626L118.234 217.562L118.901 217.571L118.83 222.225L110.932 222.103L111.003 217.449L112.241 217.47L116.946 206.202L116.056 206.189L116.127 201.56L127.093 201.728L127.022 206.357L127.026 206.353ZM122.666 212.749L121.403 209.458L120.039 212.707L122.662 212.749H122.666Z" fill="#FDFDFF"/>
<path d="M150.729 218.603L147.536 221.994L138.454 222.267L135.063 219.073L134.639 205.039L137.833 201.648L146.915 201.375L150.306 204.569L150.444 209.173L144.778 209.345L144.699 206.747L144.036 206.097L141.018 206.189L140.372 206.877L140.674 216.899L141.362 217.524L144.384 217.432L145.009 216.769L144.951 214.813L143.389 214.86L143.263 210.65L150.49 210.432L150.738 218.599L150.729 218.603Z" fill="#FDFDFF"/>
<path d="M161.238 212.014L161.591 216.58L162.824 216.484L163.185 221.125L155.065 221.755L154.704 217.113L155.938 217.017L155.06 205.711L153.827 205.807L153.47 201.191L160.159 200.675L166.543 209.643L166.173 204.854L164.939 204.951L164.583 200.335L172.703 199.705L173.06 204.321L171.826 204.418L172.703 215.724L173.937 215.627L174.298 220.269L167.483 220.798L161.238 212.018V212.014Z" fill="#FDFDFF"/>
<path d="M192.512 201.829L191.484 201.972L197.519 212.589L198.744 212.421L199.378 217.034L191.53 218.116L190.896 213.504L191.559 213.412L191.135 212.522L185.713 213.269L185.524 214.247L186.187 214.155L186.821 218.767L178.994 219.845L178.361 215.233L179.586 215.065L182.528 203.214L181.647 203.335L181.017 198.748L191.882 197.254L192.512 201.841V201.829ZM189.176 208.812L187.43 205.753L186.574 209.169L189.176 208.812Z" fill="#FDFDFF"/>
<path d="M211.003 201.804L210.474 199.235L209.71 198.711L206.751 199.323L206.231 200.112L208.258 209.933L209.043 210.428L212.002 209.815L212.501 209.056L212.002 206.63L217.554 205.484L218.46 209.874L215.9 213.764L206.999 215.602L203.109 213.042L200.272 199.294L202.832 195.404L211.733 193.565L215.623 196.125L216.559 200.662L211.007 201.808L211.003 201.804Z" fill="#FDFDFF"/>
<path d="M117.256 117.235C111.989 115.536 105.161 111.104 104.54 109.266C104.922 107.083 105.997 103.373 106.966 102.265C107.486 104.309 110.118 108.955 111.712 109.647C111.712 104.137 112.233 102.06 113.274 100.532C113.723 101.502 115.909 103.999 116.635 104.62C116.74 105.799 117.328 109.4 118.541 111.931C117.294 111.931 116.106 111.011 115.25 110.407C114.973 111.62 115.838 114.772 117.261 117.235H117.256Z" fill="#DA3241"/>
<path d="M140.959 117.235C146.226 115.536 153.054 111.104 153.675 109.266C153.294 107.083 152.219 103.373 151.25 102.265C150.729 104.309 148.098 108.955 146.503 109.647C146.503 104.137 145.983 102.06 144.942 100.532C144.493 101.502 142.307 103.999 141.581 104.62C141.476 105.799 140.888 109.4 139.675 111.931C140.922 111.931 142.109 111.011 142.965 110.407C143.242 111.62 142.378 114.772 140.955 117.235H140.959Z" fill="#DA3241"/>
<path d="M108.141 95.8909C107.264 87.2498 111.654 80.9421 112.115 80.896C112.577 80.8498 114.751 81.6388 114.864 82.0543C114.978 82.4698 111.003 85.4494 108.137 95.8909H108.141Z" fill="#DA3241"/>
<path d="M149.999 95.8909C150.876 87.2498 146.486 80.9421 146.025 80.896C145.563 80.8498 143.389 81.6388 143.276 82.0543C143.163 82.4698 147.137 85.4494 150.003 95.8909H149.999Z" fill="#DA3241"/>
<path d="M138.223 108.481C138.223 110.269 137.753 112.564 137.447 113.609C137.413 113.727 137.128 114.096 136.679 114.621C135.05 116.526 131.24 120.521 129.297 122.318C128.403 121.516 122.737 116.199 121.214 114.314C121.017 114.067 120.887 113.878 120.849 113.769C120.509 112.757 120.186 110.13 120.186 108.481C121.059 109.375 122.691 111.066 124.403 112.086C124.571 112.182 127.119 112.153 129.297 112.153C130.942 112.153 133.443 112.233 133.737 112.044C135.894 110.651 137.132 109.593 138.223 108.481Z" fill="#88A4AB"/>
<path d="M136.679 114.621C135.05 116.526 131.24 120.521 129.297 122.318C128.403 121.516 122.737 116.199 121.214 114.314C124.995 116.803 128.478 118.482 129.003 118.482C129.498 118.482 132.906 116.614 136.679 114.621Z" fill="#FDFDFF"/>
<path d="M140.233 94.1911C141.073 92.2983 143.142 86.8972 143.142 86.0494C143.142 85.9655 143.079 85.8018 142.97 85.6088C142.676 85.0884 142.051 84.3498 141.446 84.3498C140.909 84.3498 139.054 86.1543 136.142 86.1543C135.416 86.1543 134.669 86.0494 134.324 85.8396C134.362 86.2425 134.585 86.83 134.757 87.384C132.99 86.9853 130.808 83.6909 130.598 83.5524C130.392 83.4139 127.899 83.4894 127.622 83.5943C127.345 83.6951 125.28 86.9517 123.598 87.2287C123.799 86.6873 123.879 86.1711 123.929 85.7389C123.719 85.7724 122.767 86.1166 122.074 86.1166C118.746 86.1166 117.147 84.249 116.702 84.249C116.19 84.249 115.569 84.7736 115.196 85.2185C114.994 85.4577 114.868 85.6717 114.868 85.7724C114.864 86.4481 116.602 91.8535 117.882 94.2288C116.669 94.1407 116.237 93.016 116.203 93.3265C116.165 93.6371 116.274 98.5934 116.484 99.3782C116.522 99.5251 117.445 100.675 118.696 102.165C120.983 104.88 124.374 108.716 125.541 109.614C125.927 109.912 132.247 109.849 132.574 109.614C133.733 108.775 136.943 105.124 139.268 102.366C140.737 100.633 141.858 99.2523 141.895 99.1474C142 98.8704 142.097 93.7714 141.992 93.5406C141.937 93.4315 141.446 94.1407 140.233 94.1911ZM125.024 92.3109C125.369 92.013 125.809 91.7612 126.372 91.5933C126.078 92.2522 125.524 91.95 125.524 93.8092C125.524 94.1113 126.477 94.0274 127.366 94.3421C128.113 94.6107 128.122 95.022 129.204 95.022C130.199 95.022 130.069 94.6611 130.774 94.4009C131.664 94.0694 132.679 94.0778 132.679 93.8008C132.679 91.8577 132.209 92.718 131.949 91.5933C132.281 91.6772 132.562 91.8031 132.805 91.9668C133.775 92.6089 134.098 93.7756 134.098 94.766C134.098 95.2654 132.919 95.4753 131.689 95.7355C130.543 95.9789 130.149 96.6461 129.204 96.6461C128.311 96.6461 127.845 96.0418 126.682 95.7187C125.192 95.3032 123.946 95.1605 123.946 94.5562C123.946 93.9519 124.219 92.995 125.024 92.3109ZM134.274 104.439C134.014 104.179 133.703 104.003 132.608 103.906C131.882 103.844 130.812 103.81 129.179 103.81C127.421 103.81 126.317 103.848 125.591 103.923C124.622 104.02 124.332 104.192 124.084 104.439C123.988 104.532 124.345 103.445 124.345 103.113C124.345 102.782 124.101 102.32 124.24 102.165C124.378 102.01 124.5 102.559 125.125 102.559C125.751 102.559 126.015 102.324 129.179 102.324C132.344 102.324 132.608 102.559 133.233 102.559C133.859 102.559 133.976 102.01 134.115 102.165C134.253 102.32 134.014 102.786 134.014 103.113C134.014 103.441 134.366 104.532 134.274 104.439ZM135.663 101.733C135.39 102.186 135.663 101.485 135.067 101.279C134.056 100.923 132.234 100.532 129.179 100.532C126.124 100.532 124.303 100.923 123.287 101.279C122.691 101.485 122.964 102.186 122.695 101.733C122.225 100.851 122.423 99.7559 123.081 99.181C123.044 99.7349 122.985 100.436 123.312 100.436C123.866 100.436 124.932 98.6438 127.48 98.6438C128.953 98.6438 128.642 99.1642 129.179 99.1642C129.716 99.1642 129.402 98.6438 130.875 98.6438C133.422 98.6438 134.488 100.436 135.042 100.436C135.374 100.436 135.311 99.7349 135.277 99.181C135.936 99.7559 136.129 100.851 135.663 101.733Z" fill="#FDFDFF"/>
<path d="M120.379 98.6983C120.379 100.113 119.426 101.393 118.696 102.165C117.445 100.675 116.522 99.5251 116.484 99.3782C116.274 98.5934 116.165 93.6371 116.203 93.3265C116.237 93.016 116.669 94.1407 117.882 94.2288C118.645 94.8164 120.379 96.4111 120.379 98.6983Z" fill="#88A4AB"/>
<path d="M141.895 99.1475C141.858 99.2524 140.737 100.633 139.268 102.366C138.798 101.649 138.085 100.31 138.085 98.7992C138.085 96.5497 139.365 94.8836 140.233 94.1912C141.446 94.1408 141.937 93.4316 141.992 93.5407C142.097 93.7715 142 98.8705 141.895 99.1475Z" fill="#88A4AB"/>
<path d="M142.97 85.6088C141.66 87.3336 138.84 89.6082 136.465 89.6082C133.695 89.6082 130.228 87.4343 129.204 86.6957C128.319 87.2497 125.054 89.6082 122.192 89.6082C118.985 89.6082 116.472 86.7964 115.196 85.2185C115.569 84.7736 116.19 84.249 116.702 84.249C117.147 84.249 118.746 86.1166 122.074 86.1166C122.767 86.1166 123.719 85.7724 123.929 85.7389C123.879 86.1711 123.799 86.6873 123.598 87.2287C125.28 86.9517 127.345 83.6951 127.622 83.5943C127.899 83.4894 130.392 83.4139 130.598 83.5524C130.808 83.6909 132.99 86.9853 134.757 87.384C134.585 86.83 134.362 86.2425 134.324 85.8396C134.669 86.0494 135.416 86.1543 136.142 86.1543C139.054 86.1543 140.909 84.3498 141.446 84.3498C142.051 84.3498 142.676 85.0884 142.97 85.6088Z" fill="#88A4AB"/>
<path d="M136.733 96.2726C136.402 96.1341 136.074 95.8907 135.571 95.8907C134.723 95.8907 134.723 96.6461 132.608 96.6461C131.135 96.6461 130.199 97.7205 129.003 97.7205C128.05 97.7205 127.307 96.6461 125.851 96.6461C124.152 96.6461 123.774 95.6977 123.081 95.6977C122.595 95.6977 122.351 95.769 121.675 96.1845C122.246 94.9171 123.111 93.3937 125.024 92.3109C124.219 92.995 123.946 93.9225 123.946 94.5562C123.946 95.1899 125.192 95.3032 126.682 95.7187C127.845 96.0418 128.31 96.6461 129.204 96.6461C130.149 96.6461 130.543 95.9789 131.689 95.7355C132.918 95.4753 134.098 95.2654 134.098 94.766C134.098 93.7756 133.775 92.6089 132.805 91.9668C135.705 92.4033 136.528 95.4753 136.733 96.2726Z" fill="#88A4AB"/>
<path d="M132.608 103.907C131.957 104.523 130.577 105.472 129.024 105.472C127.471 105.472 126.229 104.607 125.591 103.923C126.317 103.848 127.421 103.81 129.179 103.81C130.812 103.81 131.882 103.844 132.608 103.907Z" fill="#88A4AB"/>
<path d="M129.402 78.8774C111.553 78.8774 106.71 72.7922 103.659 72.7922C102.962 72.7922 103.315 74.6177 103.315 75.5872C101.397 74.5002 100.935 72.9768 100.935 71.7766C100.935 70.8281 101.489 70.2993 102.228 70.2993C104.238 70.2993 113.525 77.5051 129.293 77.5051C145.06 77.5051 153.571 70.2993 156.005 70.2993C156.974 70.2993 157.138 70.8155 157.138 71.4324C157.138 72.7754 156.739 74.6303 154.997 75.7131C155.266 74.1351 155.602 72.704 154.897 72.704C153.315 72.704 144.451 78.8816 129.397 78.8816L129.402 78.8774Z" fill="#DA3241"/>
<path d="M117.395 49.1814C114.864 55.0023 116.354 64.8436 118.192 70.8743C117.756 70.8365 116.665 70.6435 116.182 70.526C115.695 69.523 113.341 57.4616 114.482 54.5155C111.431 57.6001 113.647 67.2148 114.327 70.0559C114.327 70.0559 112.741 69.758 112.325 69.5817C110.42 64.4533 108.628 53.2649 117.391 49.1772L117.395 49.1814Z" fill="#F9D13A"/>
<path d="M140.771 49.1814C143.301 55.0023 141.811 64.8436 139.973 70.8743C140.41 70.8365 141.501 70.6435 141.983 70.526C142.47 69.523 144.825 57.4616 143.683 54.5155C146.734 57.6001 144.518 67.2148 143.838 70.0559C143.838 70.0559 145.425 69.758 145.84 69.5817C147.746 64.4533 149.538 53.2649 140.775 49.1772L140.771 49.1814Z" fill="#F9D13A"/>
<path d="M129.041 40.3809C126.187 41.7196 116.807 45.8324 116.807 56.6683C116.807 63.979 118.818 70.1482 119.199 71.0505C119.686 71.1093 120.874 71.189 121.151 71.2226C120.517 68.822 118.713 62.3885 118.713 57.2936C118.713 49.4835 122.234 46.1597 129.041 42.2904C135.844 46.1597 139.369 49.4877 139.369 57.2936C139.369 62.3885 137.568 68.822 136.931 71.2226C137.208 71.189 138.395 71.1093 138.882 71.0505C139.264 70.1482 141.274 63.9832 141.274 56.6683C141.274 45.8324 131.895 41.7238 129.041 40.3809Z" fill="#88A4AB"/>
<path d="M131.777 67.7183C133.787 67.7183 135.554 65.7416 135.554 63.5971C135.554 60.5461 135.071 58.1581 136.041 55.4177C134.828 55.7996 133.997 56.7355 133.548 57.7385C133.305 53.995 131.261 51.4308 128.386 50.8433C130.086 53.7558 129.188 57.4531 128.08 57.4531C127.14 57.4531 126.514 54.3098 126.586 53.164C123.09 57.0796 127.001 60.5797 124.647 60.5797C124.198 60.5797 123.782 60.0928 123.505 59.5053C122.674 60.8566 122.935 67.0762 127.853 67.9239C126.569 66.4173 126.292 65.0324 126.85 63.9748C126.867 64.6001 127.093 64.8393 127.526 64.8393C129.725 64.8393 125.759 61.2511 129.557 59.0185C128.898 60.4034 129.07 62.208 129.763 62.208C130.455 62.208 131.047 61.8261 131.257 60.9867C131.823 62.0149 130.967 63.148 131.336 63.9412C131.735 64.789 132.222 63.7524 132.654 63.8027C132.239 65.0156 133.208 65.7794 131.79 67.7183H131.777Z" fill="url(#paint0_linear_423_11635)"/>
<path d="M129.028 143.57C130.405 143.57 131.521 142.454 131.521 141.077C131.521 139.7 130.405 138.584 129.028 138.584C127.651 138.584 126.535 139.7 126.535 141.077C126.535 142.454 127.651 143.57 129.028 143.57Z" fill="#FDFDFF"/>
<path d="M81.2065 165.703C83.5189 165.703 85.2732 165.657 88.0472 163.806C87.5856 167.827 77.6519 177.668 63.0977 179.145C59.3542 173.186 56.3997 160.39 56.3997 150.641C56.3997 146.251 58.1539 139.272 59.2619 137.379C57.8728 148.005 63.6517 157.893 74.1393 157.893C81.3828 157.893 85.4242 152.794 87.4387 148.492C88.2151 146.839 88.6935 145.303 88.9369 144.22L93.0371 145.928C92.8063 147.951 92.1936 150.045 91.329 152.089C88.9369 157.796 84.6059 163.151 81.2065 165.703Z" fill="#DA3241"/>
<path d="M136.041 163.982L152.534 171.155C151.044 173.685 146.436 177.601 141.413 179.263C143.146 175.452 143.838 172.435 143.872 170.983C141.299 172.401 138.882 175.486 134.102 177.08C135.625 169.875 136.041 163.982 136.041 163.982Z" fill="#DA3241"/>
<path d="M131.819 162.359C131.823 162.749 131.802 163.303 131.752 163.974C131.458 168.242 130.249 177.219 130.01 178.256C128.164 179.645 124.605 179.699 121.218 179.699C109.253 179.699 107.415 174.445 100.696 174.445C98.1991 174.445 96.0378 175.755 95.1145 176.25C95.4628 171.986 100.982 167.965 104.587 167.596C103.537 166.358 102.719 163.017 102.501 159.496C102.291 156.202 102.61 152.744 103.756 150.688L131.819 162.359Z" fill="#DA3241"/>
<path d="M137.892 140.452C132.008 123.186 111.553 122.876 99.2734 111.322C98.7404 110.823 99.4832 108.615 100.356 107.197C97.3052 107.705 86.1041 115.897 82.7341 121.625C83.884 122.322 91.2912 127.32 92.3194 128.625C92.567 128.936 92.7727 129.293 92.9322 129.658C93.2133 130.312 93.3476 131.001 93.2889 131.534C93.1756 132.646 92.3908 134.005 91.9291 134.887C92.3446 135.21 99.0426 137.841 100.474 138.118C100.495 137.791 100.553 136.884 100.604 135.86C100.671 134.568 100.738 133.082 100.751 132.297C101.233 132.889 101.645 133.577 101.997 134.295C103.197 136.738 103.722 139.499 104.079 139.805C104.54 140.2 131.244 150.41 133.464 151.241C133.926 149.277 136.167 144.078 138.223 141.492C138.118 141.14 138.009 140.792 137.892 140.452ZM129.028 146.142C126.229 146.142 123.963 143.872 123.963 141.077C123.963 140.792 123.988 140.51 124.038 140.242C124.328 138.567 125.478 137.229 126.821 136.616C128.243 135.974 123.459 133.468 123.459 133.468C129.956 133.468 133.749 137.862 134.068 140.695C134.085 140.825 134.094 140.955 134.094 141.077C134.094 143.872 131.827 146.142 129.028 146.142Z" fill="#DA3241"/>
<path d="M198.194 161.729C198.194 162.816 197.41 161.914 197.313 162.606C197.221 163.299 197.502 167.642 195.651 167.642C193.041 167.642 195.261 162.929 185.348 159.232C177.87 156.445 172.8 156.622 170.496 156.622C172.481 152.58 178.373 151.611 182.532 151.611C186.691 151.611 191.123 153.688 191.908 154.242C191.538 151.77 187.241 145.651 184.61 145.651C184.656 146.226 184.819 147.708 184.866 148.354C182.801 148.006 178.671 147.406 174.076 150.201C175.784 145.395 179.712 142.067 184.379 142.323C182.939 141.194 181.407 140.557 179.943 140.2C178.537 139.86 177.19 139.784 176.061 139.784C172.619 139.784 168.301 141.467 165.204 145.651H165.422C166.853 145.656 168.901 145.698 168.901 145.698C168.624 147.083 164.927 154.242 164.281 155.262C163.55 154.091 162.694 152.396 161.859 150.41C159.517 144.85 157.377 137.044 158.842 132.377C158.661 132.499 158.489 132.633 158.33 132.776C157.566 133.443 156.991 134.333 156.567 135.34C155.875 136.989 155.593 138.945 155.593 140.708C155.593 143.368 156.806 150.276 157.243 156.848C157.339 158.292 157.398 159.719 157.398 161.083C156.638 160.823 154.83 160.109 152.597 159.198C147.07 156.953 138.941 153.516 137.644 152.836C138.496 149.932 139.423 145.605 142.911 142.508C142.726 141.644 142.441 140.733 142.084 139.801C139.797 133.875 134.522 127.135 133.04 126.116C138.223 123.774 154.779 115.49 159.412 110.835C158.926 109.761 158.397 108.678 157.704 107.986C160.399 107.986 164.461 110.936 166.983 113.425C168.96 115.372 172.099 119.808 174.768 123.757C176.812 126.787 178.583 129.532 179.343 130.648C180.287 132.037 183.867 136.301 187.258 140.401C190.149 143.906 192.906 147.292 193.758 148.652C195.605 151.611 198.194 156.416 198.194 161.729Z" fill="#DA3241"/>
<path d="M93.0371 145.928C92.8063 147.951 92.1935 150.045 91.329 152.089C90.284 151.162 88.7984 149.731 87.4387 148.492C88.2151 146.839 88.6935 145.303 88.9369 144.22L93.0371 145.928Z" fill="#F9D13A"/>
<path d="M131.819 162.359C131.823 162.749 131.802 163.303 131.752 163.974C122.393 163.907 111.771 163.034 102.501 159.496C102.291 156.202 102.61 152.744 103.756 150.688L131.819 162.359Z" fill="#F9D13A"/>
<path d="M92.9322 129.658C95.2278 131.324 99.0132 134.417 100.604 135.86C100.553 136.884 100.495 137.791 100.474 138.118C99.0426 137.841 92.3446 135.21 91.9291 134.887C92.3908 134.006 93.1756 132.646 93.2889 131.534C93.3476 131.001 93.2133 130.312 92.9322 129.658Z" fill="#F9D13A"/>
<path d="M138.223 141.492C136.167 144.077 133.926 149.277 133.464 151.241C131.244 150.41 104.54 140.2 104.079 139.805C103.722 139.499 103.197 136.737 101.997 134.295C104.07 135.42 110.659 138.978 124.038 140.242C123.988 140.51 123.963 140.791 123.963 141.077C123.963 143.872 126.229 146.142 129.028 146.142C131.827 146.142 134.094 143.872 134.094 141.077C134.094 140.955 134.085 140.825 134.068 140.695C135.252 140.695 136.544 140.607 137.892 140.452C138.009 140.791 138.118 141.14 138.223 141.492Z" fill="#F9D13A"/>
<path d="M157.243 156.848C155.95 157.389 153.961 158.434 152.597 159.198C149.58 157.973 145.786 156.391 142.751 155.098C140.229 154.019 138.236 153.147 137.644 152.836C137.837 152.173 138.034 151.434 138.269 150.654C139.054 148.018 140.221 144.896 142.911 142.508C142.726 141.643 142.441 140.733 142.084 139.801C148.266 138.626 154.527 136.557 156.567 135.34C155.875 136.989 155.593 138.945 155.593 140.707C155.593 141.778 155.791 143.536 156.051 145.685C156.231 147.149 156.445 148.795 156.647 150.532C156.882 152.567 157.1 154.725 157.243 156.848Z" fill="#F9D13A"/>
<path d="M187.258 140.401C185.676 140.3 182.687 140.195 179.943 140.2C178.537 139.86 177.19 139.784 176.061 139.784C172.62 139.784 168.301 141.467 165.204 145.651H165.422C164.188 146.851 162.82 148.778 161.859 150.41C161.167 148.769 160.495 146.935 159.929 145.043C159.303 142.957 158.804 140.8 158.548 138.76C158.25 136.376 158.284 134.152 158.842 132.377C158.661 132.499 158.489 132.633 158.33 132.776C160.113 129.523 164.062 123.933 174.768 123.757C176.321 126.057 177.714 128.193 178.629 129.578C178.919 130.018 179.158 130.379 179.343 130.648C179.746 131.235 180.614 132.339 181.743 133.728C183.283 135.617 185.302 138.038 187.258 140.401Z" fill="#F9D13A"/>
<path d="M181.743 133.729C167.974 134.341 161.695 141.291 159.929 145.043C159.303 142.957 158.804 140.8 158.548 138.761C161.788 132.793 172.846 130.174 178.629 129.578C178.919 130.019 179.158 130.38 179.343 130.648C179.746 131.236 180.614 132.34 181.743 133.729Z" fill="#FDFDFF"/>
<path d="M156.647 150.532C153.482 152.312 146.931 154.213 142.751 155.098C140.229 154.02 138.236 153.147 137.644 152.836C137.837 152.173 138.034 151.435 138.269 150.654C146.272 150.301 153.143 147.242 156.051 145.685C156.231 147.15 156.445 148.795 156.647 150.532Z" fill="#FDFDFF"/>
<path d="M74.3953 100.05C73.2244 100.705 71.6632 102.19 69.9132 104.163C64.1175 110.714 56.299 122.666 54.0873 127.702C52.908 127.01 47.9181 124.445 47.9181 124.445C47.9181 124.445 44.053 129.83 42.2022 133.028C42.1141 133.175 42.0343 133.317 41.9588 133.452C38.8406 112.317 48.7869 94.6445 48.6987 85.7727C59.8578 83.4141 73.5979 92.563 74.3953 100.05Z" fill="#FDFDFF"/>
<path d="M69.9132 104.163C64.1175 110.714 56.299 122.666 54.0873 127.702C52.908 127.01 47.9181 124.446 47.9181 124.446C47.9181 124.446 44.053 129.83 42.2022 133.028C41.2831 113.165 51.2335 97.7082 51.6406 93.4863C59.5221 93.7004 67.605 100.549 69.9132 104.163Z" fill="#DA3241"/>
<path d="M92.8608 139L91.5808 141.32L155.48 168.591L157.629 165.103L92.8608 139Z" fill="#DA3241"/>
<path d="M90.3554 131.421C90.3554 131.647 89.8056 132.894 89.0796 134.43C87.808 137.12 85.995 140.704 85.6425 141.262C85.0885 142.139 82.3858 144.565 80.8372 144.473C79.2928 144.38 79.8342 142.093 77.6981 142.093C76.7287 142.093 77.0728 142.462 74.9954 142.462C72.385 142.462 73.0439 139.101 70.9288 139.113C69.4264 139.122 69.9132 139.655 68.2932 139.483C66.1235 139.252 65.729 135.257 64.3441 134.887C63.7608 134.728 63.3411 135.063 62.3591 134.887C61.1168 134.661 60.1852 134.031 60.1852 131.144C60.1852 129.364 63.9748 123.149 66.4173 119.515C67.4959 117.916 68.31 116.82 68.4317 116.82C68.8262 116.82 72.5907 119.246 72.5697 119.754C72.5613 119.934 71.9486 120.925 71.1596 122.196C69.7327 124.488 67.7393 127.694 67.7183 128.693C67.6931 129.734 69.7033 130.657 70.0517 130.795C70.3958 130.934 69.6446 130.405 69.6446 129.415C69.6446 129.113 71.5079 125.889 72.9936 123.497C73.8875 122.054 74.6471 120.912 74.773 120.891C75.3983 120.807 78.3948 122.658 78.3906 123.405C78.3906 123.59 77.7652 124.664 76.9679 126.007C75.541 128.403 73.5601 131.656 73.5601 132.252C73.5601 133.192 75.6417 134.308 76.011 134.426C76.3803 134.543 75.4571 133.452 75.5704 133.028C75.6417 132.768 77.4715 129.507 78.9907 127.048C79.9266 125.529 80.7491 124.316 80.959 124.307C82.155 124.27 84.6982 126.871 84.6521 127.308C84.6353 127.467 84.0142 128.479 83.2336 129.771C81.8403 132.067 79.9308 135.244 79.9853 136.087C80.0315 136.826 82.0417 138.19 82.2012 138.19C82.3607 138.19 81.706 137.229 82.1382 136.486C82.2809 136.247 83.9009 133.221 85.2774 130.884C86.1587 129.389 86.9393 128.172 87.1701 128.139C87.766 128.059 90.3554 131.098 90.3554 131.421Z" fill="#88A4AB"/>
<path d="M75.4781 117.236C77.5345 117.236 79.7755 115.805 79.7755 114.693C79.7755 113.698 79.0369 113.492 78.6885 113.492C77.9709 113.492 78.2017 113.908 76.9343 113.908C74.6261 113.908 73.3293 111.784 71.2729 111.784C69.7705 111.784 68.9186 113.169 68.9186 114.139C72.4312 114.139 73.3545 117.236 75.4781 117.236Z" fill="#FDFDFF"/>
<path d="M72.5697 119.754C72.5613 119.934 71.9486 120.925 71.1596 122.196C70.1104 121.231 68.1002 120.132 66.4173 119.515C67.4959 117.916 68.31 116.82 68.4317 116.82C68.8262 116.82 72.5907 119.246 72.5697 119.754Z" fill="#FDFDFF"/>
<path d="M78.3906 123.405C78.3906 123.589 77.7653 124.664 76.9679 126.007C76.0362 125.239 74.324 124.202 72.9936 123.497C73.8875 122.053 74.6471 120.912 74.773 120.891C75.3983 120.807 78.3948 122.658 78.3906 123.405Z" fill="#FDFDFF"/>
<path d="M84.652 127.308C84.6353 127.467 84.0141 128.479 83.2335 129.771C82.2389 128.613 80.4427 127.597 78.9907 127.048C79.9265 125.528 80.7491 124.315 80.9589 124.307C82.155 124.269 84.6982 126.871 84.652 127.308Z" fill="#FDFDFF"/>
<path d="M90.3554 131.421C90.3554 131.647 89.8056 132.894 89.0796 134.43C88.1647 132.785 86.5867 131.605 85.2773 130.883C86.1587 129.389 86.9392 128.172 87.1701 128.139C87.766 128.059 90.3554 131.097 90.3554 131.421Z" fill="#FDFDFF"/>
<path d="M189.272 175.003C189.251 175.054 189.213 175.125 189.171 175.213C188.366 176.787 184.173 184.043 183.678 184.371C183.409 184.551 179.443 184.073 179.183 183.531C178.919 182.99 183.149 175.134 183.351 174.722C183.732 173.95 184.895 173.971 184.807 173.837C184.719 173.698 182.469 172.779 181.827 173.149C180.686 173.812 177.437 181.613 177.097 181.894C176.757 182.176 173.186 181.496 172.552 180.48C172.259 180.006 176.552 171.495 176.841 171.163C177.131 170.836 178.549 171.004 178.247 170.761C177.945 170.517 175.868 169.401 175.083 169.921C174.307 170.433 170.807 178.55 170.383 178.835C169.762 179.255 166.559 177.782 166.287 177.215C166.14 176.9 170.152 168.494 170.555 168.226C171.377 167.68 172.233 168.012 171.927 167.798C171.621 167.588 169.741 166.425 168.884 167.017C167.609 167.907 164.532 175.704 164.121 176.006C163.71 176.304 159.605 174.508 159.387 174.181C159.224 173.929 162.405 166.169 164.856 161.943C165.594 160.667 166.266 159.715 166.761 159.387C169.166 157.793 170.206 158.221 171.079 159.127C171.772 159.849 171.726 160.382 172.179 160.785C173.253 161.733 176.799 159.853 178.193 161.532C179.234 162.787 178.52 162.678 179.343 163.933C180.501 165.699 182.939 163.29 184.383 165.469C185.533 167.198 185.033 167.114 185.566 167.924C186.75 169.703 188.357 167.987 189.289 169.225C190.221 170.463 189.696 174.055 189.272 175.003Z" fill="#88A4AB"/>
<path d="M163.63 179.821C164.767 181.533 164.814 184.194 163.89 184.807C163.064 185.357 162.48 184.857 162.287 184.568C161.893 183.972 162.367 183.934 161.662 182.876C160.386 180.95 157.897 181.051 156.76 179.334C155.929 178.084 156.613 176.607 157.419 176.069C159.362 178.994 162.451 178.054 163.626 179.825L163.63 179.821Z" fill="#88A4AB"/>
<path d="M189.272 175.003C189.251 175.054 189.213 175.125 189.171 175.213C189.079 174.026 188.752 172.62 188.492 172.263C188.122 171.755 186.179 172.54 185.256 171.848C184.333 171.155 183.594 168.381 182.625 167.873C181.651 167.365 179.204 168.012 178.235 167.642C177.265 167.273 177.656 165.057 176.199 163.983C175.452 163.429 170.807 164.419 170.299 164.222C169.791 164.029 169.569 162.178 168.301 161.545C167.714 161.251 166.526 161.482 164.856 161.943C165.594 160.667 166.266 159.715 166.761 159.387C169.166 157.793 170.206 158.221 171.079 159.127C171.772 159.849 171.726 160.382 172.179 160.785C173.253 161.733 176.799 159.853 178.193 161.532C179.234 162.787 178.52 162.678 179.343 163.933C180.501 165.699 182.939 163.29 184.383 165.469C185.533 167.198 185.033 167.114 185.566 167.924C186.75 169.703 188.357 167.987 189.289 169.225C190.221 170.463 189.696 174.055 189.272 175.003Z" fill="#FDFDFF"/>
<defs>
<linearGradient id="paint0_linear_423_11635" x1="129.586" y1="67.9281" x2="129.586" y2="50.8433" gradientUnits="userSpaceOnUse">
<stop stop-color="#F7E326"/>
<stop offset="0.09" stop-color="#F4DA24"/>
<stop offset="0.24" stop-color="#ECC420"/>
<stop offset="0.42" stop-color="#DF9F1A"/>
<stop offset="0.63" stop-color="#CD6B12"/>
<stop offset="0.86" stop-color="#B72B07"/>
<stop offset="1" stop-color="#A80000"/>
</linearGradient>
</defs>
</svg>
