<svg width="256" height="256" viewBox="0 0 256 256" fill="none" xmlns="http://www.w3.org/2000/svg">
<g clip-path="url(#clip0_568_15071)">
<path d="M128.011 255.299C198.323 255.299 255.321 198.3 255.321 127.989C255.321 57.6773 198.323 0.678711 128.011 0.678711C57.7 0.678711 0.701416 57.6773 0.701416 127.989C0.701416 198.3 57.7 255.299 128.011 255.299Z" fill="white"/>
<path d="M128.011 256C110.726 256 93.9609 252.606 78.1914 245.932C62.9423 239.484 49.2543 230.253 37.512 218.511C25.7697 206.768 16.5161 193.058 10.0681 177.831C3.39373 162.039 0 145.297 0 128.011C0 110.726 3.39373 93.9609 10.0681 78.1914C16.5161 62.9423 25.7471 49.2543 37.4893 37.512C49.2316 25.7697 62.9423 16.4935 78.1914 10.0681C93.9836 3.39373 110.749 0 128.011 0C145.274 0 162.062 3.39373 177.831 10.0681C193.08 16.5161 206.768 25.7471 218.511 37.4893C230.253 49.2316 239.484 62.9423 245.932 78.1688C252.606 93.9609 256 110.703 256 127.989C256 145.274 252.606 162.039 245.932 177.809C239.484 193.058 230.253 206.746 218.511 218.488C206.746 230.253 193.058 239.461 177.831 245.909C162.062 252.606 145.297 256 128.011 256ZM128.011 1.35749C110.907 1.35749 94.3229 4.70597 78.7118 11.3124C63.621 17.6926 50.0914 26.8331 38.4622 38.4622C26.8331 50.0914 17.6926 63.6437 11.3124 78.7118C4.70597 94.3229 1.35749 110.907 1.35749 128.011C1.35749 145.116 4.70597 161.7 11.3124 177.311C17.6926 192.402 26.8331 205.931 38.4622 217.56C50.0914 229.19 63.6437 238.33 78.7118 244.71C94.3229 251.317 110.907 254.665 128.011 254.665C145.116 254.665 161.7 251.317 177.311 244.71C192.402 238.33 205.931 229.19 217.56 217.56C229.19 205.931 238.33 192.379 244.71 177.311C251.317 161.7 254.665 145.116 254.665 128.011C254.665 110.907 251.317 94.3229 244.71 78.7118C238.33 63.621 229.19 50.0914 217.56 38.4622C205.931 26.8331 192.379 17.6926 177.311 11.3124C161.7 4.70597 145.116 1.35749 128.011 1.35749Z" fill="black"/>
<path d="M128.011 8.00928C61.7432 8.00928 8.03186 61.7206 8.03186 127.989C8.03186 194.257 61.7432 247.968 128.011 247.968C194.279 247.968 247.991 194.257 247.991 127.989C247.991 61.7206 194.279 8.00928 128.011 8.00928ZM128.011 210.343C82.5354 210.343 45.657 173.465 45.657 127.989C45.657 82.5129 82.5354 45.6344 128.011 45.6344C173.487 45.6344 210.366 82.5129 210.366 127.989C210.366 173.465 173.51 210.343 128.011 210.343Z" fill="black"/>
<path d="M128.011 210.343C173.494 210.343 210.366 173.472 210.366 127.989C210.366 82.5056 173.494 45.6343 128.011 45.6343C82.5282 45.6343 45.6569 82.5056 45.6569 127.989C45.6569 173.472 82.5282 210.343 128.011 210.343Z" fill="white"/>
<path d="M37.3084 109.889C36.788 112.581 35.9961 114.504 34.9328 115.681C33.8694 116.857 32.6929 117.355 31.4259 117.174L31.901 114.731C32.8739 114.776 33.6884 114.323 34.3445 113.35C35.0006 112.378 35.4758 111.156 35.7699 109.663C36.0414 108.237 36.064 107.061 35.8378 106.133C35.6115 105.206 35.1816 104.663 34.5029 104.527C33.8015 104.391 33.2133 104.73 32.7155 105.568C32.2178 106.405 31.6069 107.875 30.8829 110.002C30.1589 112.129 29.4123 113.599 28.6883 114.459C27.9643 115.296 27.1272 115.636 26.2222 115.455C25.1815 115.251 24.4575 114.482 24.0502 113.102C23.6203 111.744 23.6203 110.025 24.005 107.988C24.4122 105.839 25.091 104.165 26.0186 102.966C26.9462 101.767 28.0096 101.269 29.2539 101.405L28.7788 103.871C27.1951 103.825 26.1091 105.251 25.5661 108.169C25.2946 109.572 25.2493 110.703 25.453 111.54C25.6566 112.378 26.0412 112.853 26.6295 112.966C27.1724 113.079 27.6249 112.83 28.0096 112.264C28.3942 111.699 28.8693 110.59 29.4576 108.939C30.0232 107.287 30.5435 105.997 30.9734 105.047C31.4033 104.097 31.9463 103.305 32.6024 102.694C33.2585 102.083 34.0051 101.857 34.8649 102.015C35.9509 102.219 36.7428 103.056 37.2179 104.504C37.6704 106.02 37.7156 107.785 37.3084 109.889Z" fill="white"/>
<path d="M45.3176 85.0918L44.2316 87.7842L39.7293 88.4176L36.6976 95.9743L39.5483 99.4359L38.5302 101.947L29.2766 90.205L30.3174 87.6258L45.3176 85.0918ZM38.1908 88.5986L31.3355 89.5263L35.7021 94.7978L38.1908 88.5986Z" fill="white"/>
<path d="M35.3174 76.7659L39.2315 70.6572C40.0912 69.3224 40.8831 68.259 41.6297 67.4445C42.3763 66.6526 43.1908 66.1549 44.0958 65.9965C44.9782 65.8155 45.7701 65.9513 46.4488 66.4038C47.5574 67.1051 48.0552 68.1685 47.942 69.5939C47.8289 71.0192 47.1502 72.7161 45.8832 74.6845L43.2361 78.8022L47.6027 81.6077L46.2226 83.7796L35.3174 76.7659ZM41.9691 77.9651L44.6162 73.8247C45.4986 72.4446 45.9737 71.336 45.9963 70.5215C46.0189 69.707 45.7248 69.0961 45.0687 68.6662C44.6388 68.3947 44.1411 68.3042 43.5981 68.4174C43.0551 68.5305 42.58 68.802 42.1501 69.2545C41.7428 69.707 41.2225 70.3857 40.6342 71.336L38.0097 75.4311L41.9691 77.9651Z" fill="white"/>
<path d="M65.974 58.6891L56.0191 69.2096L46.6298 60.2954L56.2906 50.1143L57.3992 51.1776L49.5031 59.5036L52.3765 62.2185L59.7522 54.4356L60.8608 55.499L53.4851 63.2819L56.6752 66.291L64.888 57.6483L65.974 58.6891Z" fill="white"/>
<path d="M74.6393 52.4672C72.8067 53.7795 71.2456 54.5035 70.0012 54.6845C68.7569 54.8655 67.784 54.7071 67.0826 54.232C66.3813 53.7568 65.7251 53.1007 65.1369 52.241L60.8156 46.1323L62.9197 44.639L67.241 50.7251C68.2139 52.1052 69.232 52.784 70.2275 52.7161C71.2456 52.6482 72.4221 52.1505 73.757 51.2002C75.1145 50.25 75.9742 49.2998 76.3588 48.3721C76.7434 47.4445 76.4493 46.268 75.4764 44.8879L71.1551 38.8018L73.2592 37.3086L77.5806 43.4173C78.4855 44.7069 78.9154 45.7929 78.8928 46.7205C78.8702 47.6481 78.4855 48.5984 77.7842 49.5486C77.0828 50.4989 76.0194 51.4717 74.6393 52.4672Z" fill="white"/>
<path d="M98.848 39.5485L96.2914 40.6571L93.237 38.2362C92.694 37.8064 91.9926 37.5575 91.1329 37.5122C90.2732 37.467 89.3908 37.6254 88.4858 38.0326L84.1192 39.9331L86.3364 45.0237L83.9835 46.0418L78.8024 34.1638L86.6984 30.7248C88.0786 30.1139 89.2324 29.7293 90.1827 29.5257C91.1329 29.322 92.0153 29.3899 92.8071 29.7293C93.599 30.0687 94.1646 30.589 94.4814 31.313C94.8434 32.1275 94.7755 32.9646 94.3004 33.847C93.8253 34.7068 93.0108 35.4986 91.8343 36.2L91.8569 36.2226C93.2144 35.9511 94.4588 36.2452 95.6353 37.1276L98.848 39.5485ZM83.531 38.5077L88.8025 36.2226C90.2732 35.5891 91.2687 34.9556 91.789 34.3674C92.3094 33.7791 92.4225 33.1004 92.0831 32.3311C91.4949 30.9737 89.9338 30.8605 87.3772 31.9692L81.7436 34.4126L83.531 38.5077Z" fill="white"/>
<path d="M108.826 37.5122C106.156 38.1004 104.052 38.123 102.558 37.6027C101.065 37.0823 100.138 36.2226 99.7982 34.9782L102.219 34.4578C102.558 35.3854 103.282 35.9511 104.436 36.1773C105.59 36.4036 106.902 36.3583 108.396 36.0416C109.798 35.7474 110.884 35.2949 111.676 34.7293C112.445 34.1637 112.762 33.5302 112.626 32.8741C112.468 32.1727 111.925 31.7655 110.952 31.6523C110.002 31.5392 108.396 31.5392 106.156 31.6976C103.916 31.856 102.264 31.7655 101.201 31.4261C100.138 31.0867 99.5041 30.4532 99.3005 29.5482C99.0742 28.5301 99.5041 27.5572 100.613 26.6296C101.699 25.702 103.26 25.0233 105.296 24.5934C107.445 24.1409 109.233 24.0956 110.703 24.4576C112.151 24.8423 113.056 25.6115 113.396 26.8106L110.952 27.331C110.364 25.8604 108.622 25.4305 105.749 26.064C104.346 26.3581 103.305 26.788 102.604 27.2857C101.902 27.8061 101.631 28.3491 101.744 28.9374C101.857 29.4577 102.264 29.7971 102.92 29.9329C103.599 30.0686 104.798 30.0686 106.54 29.9555C108.283 29.8424 109.685 29.7971 110.726 29.8197C111.767 29.8424 112.694 30.046 113.531 30.3853C114.346 30.7473 114.844 31.3582 115.047 32.218C115.274 33.3039 114.821 34.3447 113.69 35.3628C112.536 36.3357 110.907 37.0597 108.826 37.5122Z" fill="white"/>
<path d="M124.686 31.3808L117.423 31.9011L117.31 30.2948L124.572 29.7744L124.686 31.3808Z" fill="white"/>
<path d="M128.464 22.1045L135.704 22.6022C137.287 22.7154 138.622 22.8964 139.663 23.1679C140.726 23.4394 141.541 23.9145 142.129 24.6159C142.717 25.3172 142.966 26.0638 142.921 26.8783C142.831 28.1906 142.152 29.1408 140.862 29.7291C139.573 30.3173 137.74 30.5436 135.387 30.3626L130.5 30.0232L130.138 35.1816L127.581 35.0006L128.464 22.1045ZM130.613 28.5073L135.523 28.8467C137.174 28.9598 138.351 28.8241 139.097 28.4621C139.821 28.1001 140.229 27.5345 140.274 26.7426C140.319 26.2222 140.138 25.7471 139.776 25.3172C139.414 24.8873 138.939 24.5932 138.351 24.4575C137.763 24.3217 136.903 24.2086 135.794 24.1181L130.93 23.7787L130.613 28.5073Z" fill="white"/>
<path d="M156.7 26.041C159.324 26.765 161.293 27.9641 162.627 29.6157C163.962 31.2673 164.37 33.0547 163.827 35.0004C163.284 36.9461 162.017 38.2584 160.003 38.9824C158.012 39.6838 155.704 39.6838 153.08 38.9371C150.455 38.1905 148.464 37.014 147.129 35.3398C145.795 33.6882 145.387 31.9008 145.93 29.9551C146.473 28.0093 147.74 26.6971 149.754 25.9731C151.767 25.2944 154.075 25.317 156.7 26.041ZM153.464 37.5344C155.342 38.0548 156.994 38.0548 158.442 37.4891C159.89 36.9235 160.84 35.8602 161.27 34.2764C161.722 32.6927 161.474 31.2899 160.523 30.0682C159.573 28.8465 158.193 27.9867 156.338 27.4663C154.46 26.946 152.786 26.946 151.338 27.489C149.89 28.032 148.939 29.0953 148.487 30.7017C148.034 32.2854 148.306 33.6882 149.256 34.9099C150.206 36.1317 151.609 37.014 153.464 37.5344Z" fill="white"/>
<path d="M180.659 51.1324L178.533 49.9559L183.849 40.2951L173.691 47.2861L171.677 46.1775L172.13 33.847L166.813 43.5078L164.686 42.3313L170.931 30.9736L174.302 32.8289L173.713 44.82L183.555 37.8968L186.926 39.7521L180.659 51.1324Z" fill="white"/>
<path d="M192.085 43.666L197.56 48.4172C198.759 49.458 199.709 50.4082 200.388 51.268C201.067 52.1277 201.429 53.0101 201.474 53.9151C201.519 54.8201 201.271 55.5893 200.75 56.2002C199.89 57.1957 198.782 57.535 197.379 57.2183C195.976 56.9015 194.415 55.9966 192.628 54.4354L188.94 51.2227L185.546 55.1368L183.601 53.4399L192.085 43.666ZM189.936 50.0688L193.646 53.3042C194.89 54.3902 195.908 55.0011 196.723 55.1594C197.515 55.3178 198.171 55.0916 198.691 54.5033C199.031 54.1187 199.189 53.6436 199.144 53.0779C199.121 52.5123 198.918 52.0146 198.533 51.5395C198.148 51.0643 197.537 50.4535 196.7 49.7295L193.035 46.5394L189.936 50.0688Z" fill="white"/>
<path d="M198.442 67.6934L196.723 65.7477L206.452 57.1729L208.171 59.1186L198.442 67.6934Z" fill="white"/>
<path d="M209.37 82.8522L201.316 70.8158L212.085 63.6211L219.891 75.2955L218.601 76.1553L212.221 66.6302L208.94 68.8248L214.891 77.739L213.601 78.5987L207.651 69.6845L204.008 72.128L210.637 82.0377L209.37 82.8522Z" fill="white"/>
<path d="M216.995 100.522L215.931 97.9429L218.42 94.9338C218.873 94.3908 219.122 93.7121 219.189 92.8523C219.257 91.9926 219.099 91.1102 218.714 90.2052L216.904 85.816L211.791 87.9428L210.818 85.5671L222.787 80.6123L226.067 88.5536C226.633 89.9337 227.018 91.1102 227.199 92.0605C227.38 93.0107 227.312 93.8931 226.95 94.685C226.61 95.4768 226.067 96.0198 225.343 96.3139C224.506 96.6533 223.669 96.5854 222.832 96.0877C221.972 95.59 221.203 94.7755 220.524 93.5763L220.502 93.599C220.751 94.9565 220.434 96.2008 219.529 97.3547L216.995 100.522ZM218.33 85.2052L220.524 90.4994C221.135 91.97 221.723 92.9881 222.312 93.5311C222.9 94.0741 223.579 94.1872 224.325 93.8705C225.683 93.3048 225.841 91.7437 224.778 89.1871L222.425 83.5083L218.33 85.2052Z" fill="white"/>
<path d="M218.85 110.5C218.33 107.807 218.33 105.726 218.873 104.233C219.416 102.739 220.298 101.834 221.565 101.518L222.04 103.961C221.113 104.278 220.524 105.002 220.275 106.156C220.027 107.31 220.049 108.622 220.343 110.115C220.615 111.518 221.045 112.626 221.588 113.418C222.153 114.21 222.764 114.527 223.42 114.414C224.122 114.278 224.551 113.735 224.687 112.785C224.823 111.835 224.846 110.228 224.732 107.988C224.619 105.748 224.732 104.097 225.094 103.033C225.456 101.97 226.09 101.359 227.018 101.178C228.036 100.975 229.009 101.427 229.914 102.536C230.819 103.644 231.475 105.228 231.859 107.264C232.289 109.414 232.289 111.224 231.882 112.672C231.475 114.12 230.683 115.002 229.484 115.319L229.009 112.853C230.502 112.31 230.954 110.568 230.389 107.672C230.117 106.269 229.733 105.205 229.212 104.504C228.714 103.803 228.171 103.509 227.583 103.622C227.04 103.735 226.723 104.119 226.565 104.776C226.429 105.454 226.384 106.653 226.475 108.396C226.565 110.138 226.588 111.54 226.52 112.581C226.475 113.622 226.271 114.55 225.886 115.364C225.524 116.179 224.891 116.676 224.031 116.835C222.945 117.038 221.904 116.586 220.932 115.409C219.959 114.233 219.257 112.604 218.85 110.5Z" fill="white"/>
<path d="M47.0596 196.972L45.7248 195.185L47.4895 191.7L43.7564 186.678L39.9554 187.447L38.7111 185.773L51.3583 183.51L52.6253 185.23L47.0596 196.972ZM48.123 190.524L50.8153 185.23L45.046 186.406L48.123 190.524Z" fill="white"/>
<path d="M50.295 200.252L48.9601 198.782L57.4444 191.021L58.7793 192.492L50.295 200.252Z" fill="white"/>
<path d="M62.4897 211.723L60.8834 210.298L61.8789 207.063C62.0599 206.497 62.0372 205.886 61.8336 205.23C61.63 204.574 61.2454 204.008 60.6571 203.511L57.9195 201.09L54.6615 204.755L53.1909 203.443L60.8381 194.845L65.7929 199.234C66.6527 200.004 67.3088 200.705 67.7387 201.316C68.1686 201.927 68.3722 202.606 68.3496 203.33C68.3269 204.054 68.0781 204.664 67.6256 205.185C67.1052 205.773 66.4264 206.067 65.6346 206.067C64.8427 206.067 63.983 205.796 63.1006 205.207L63.078 205.23C63.6888 206.112 63.8246 207.153 63.4626 208.352L62.4897 211.723ZM58.8245 200.072L62.1277 203.013C63.0553 203.827 63.8246 204.302 64.4355 204.461C65.0463 204.619 65.5893 204.416 66.0871 203.85C66.9468 202.877 66.5848 201.678 65.0011 200.253L61.4716 197.108L58.8245 200.072Z" fill="white"/>
<path d="M74.775 220.004L65.4536 213.895L71.7659 204.28L80.7933 210.207L80.0466 211.339L72.6709 206.497L70.7478 209.438L77.6484 213.963L76.9018 215.094L70.0012 210.569L67.8745 213.827L75.5443 218.85L74.775 220.004Z" fill="white"/>
<path d="M83.5987 220.638L78.6212 218.081L79.2773 216.814L84.2548 219.371L83.5987 220.638Z" fill="white"/>
<path d="M89.9789 227.312C88.0105 226.543 86.6757 225.638 85.9743 224.597C85.2729 223.534 85.0919 222.47 85.4539 221.384L87.2413 222.063C87.0377 222.9 87.2413 223.669 87.8522 224.348C88.463 225.027 89.3228 225.57 90.4314 226C91.4721 226.407 92.3545 226.565 93.1238 226.475C93.8704 226.384 94.3681 226.068 94.5944 225.502C94.8206 224.914 94.6622 224.348 94.1193 223.828C93.5763 223.307 92.5581 222.606 91.0649 221.724C89.5717 220.841 88.5762 220.049 88.0558 219.303C87.5354 218.556 87.4223 217.81 87.739 217.04C88.0784 216.181 88.8024 215.638 89.911 215.434C91.0196 215.23 92.3319 215.411 93.8251 216C95.3862 216.61 96.5627 217.38 97.3094 218.307C98.056 219.235 98.2596 220.23 97.9202 221.271L96.1329 220.57C96.4496 219.212 95.5446 218.104 93.4179 217.289C92.3998 216.882 91.54 216.724 90.8613 216.814C90.1825 216.882 89.7527 217.176 89.549 217.674C89.368 218.126 89.4812 218.556 89.8432 218.941C90.2052 219.348 90.9744 219.891 92.1283 220.57C93.2821 221.249 94.1871 221.837 94.8432 222.335C95.4994 222.832 95.9971 223.375 96.3365 224.009C96.6985 224.642 96.7211 225.321 96.4496 226.045C96.0876 226.973 95.3184 227.538 94.1193 227.787C92.8749 228.081 91.4948 227.9 89.9789 227.312Z" fill="white"/>
<path d="M104.504 231.701C102.807 231.317 101.608 230.774 100.884 230.095C100.16 229.394 99.7529 228.692 99.685 227.946C99.6171 227.222 99.685 226.384 99.8886 225.502L101.359 219.009L103.282 219.439L101.834 225.909C101.495 227.38 101.608 228.421 102.151 229.032C102.694 229.642 103.576 230.095 104.821 230.366C106.065 230.638 107.061 230.615 107.807 230.299C108.554 229.982 109.097 229.077 109.436 227.606L110.884 221.136L112.83 221.565L111.359 228.059C111.043 229.416 110.613 230.366 110.047 230.909C109.482 231.452 108.735 231.792 107.807 231.928C106.902 232.086 105.794 231.995 104.504 231.701Z" fill="white"/>
<path d="M127.106 234.325L124.98 234.167L123.78 230.999C123.577 230.434 123.192 229.959 122.627 229.574C122.061 229.189 121.405 228.963 120.658 228.918L117.016 228.669L116.676 233.579L114.708 233.443L115.5 221.972L122.106 222.425C123.26 222.515 124.188 222.651 124.912 222.877C125.636 223.103 126.201 223.511 126.631 224.099C127.061 224.687 127.242 225.321 127.197 226.022C127.152 226.814 126.79 227.447 126.156 227.945C125.523 228.443 124.685 228.714 123.622 228.805V228.828C124.64 229.167 125.387 229.891 125.839 231.067L127.106 234.325ZM117.083 227.312L121.495 227.628C122.717 227.719 123.622 227.628 124.188 227.38C124.753 227.131 125.07 226.633 125.115 225.886C125.206 224.574 124.188 223.85 122.061 223.714L117.355 223.375L117.083 227.312Z" fill="white"/>
<path d="M134.957 230.48L129.346 230.706L129.301 229.28L134.912 229.054L134.957 230.48Z" fill="white"/>
<path d="M147.265 232.516L138.102 233.737L136.586 222.334L138.554 222.063L139.889 232.108L147.107 231.158L147.265 232.516Z" fill="white"/>
<path d="M149.663 221.791C149.822 222.47 149.754 223.036 149.505 223.511C149.256 223.986 148.781 224.303 148.102 224.438L147.944 223.692C148.6 223.556 148.826 222.99 148.622 221.995L147.627 222.221L147.288 220.66L149.324 220.208L149.663 221.791Z" fill="white"/>
<path d="M167.017 226.973L164.89 227.651L162.175 224.846L156.202 226.746L155.704 230.593L153.713 231.226L155.681 218.534L157.718 217.877L167.017 226.973ZM161.247 223.873L157.107 219.597L156.338 225.434L161.247 223.873Z" fill="white"/>
<path d="M164.415 215.57L168.668 213.488C173.216 211.248 176.338 211.837 178.012 215.23C179.732 218.714 178.306 221.565 173.736 223.805L169.483 225.887L164.415 215.57ZM170.659 223.782L173.103 222.583C175.048 221.633 176.202 220.638 176.564 219.574C176.926 218.533 176.79 217.38 176.18 216.113C175.569 214.868 174.754 214.099 173.713 213.76C172.673 213.42 171.179 213.737 169.234 214.71L166.79 215.909L170.659 223.782Z" fill="white"/>
<path d="M182.424 205.185C184.143 203.986 185.84 203.443 187.56 203.556C189.279 203.669 190.659 204.461 191.678 205.931C192.696 207.402 192.99 208.94 192.537 210.615C192.085 212.266 190.999 213.714 189.279 214.913C187.56 216.135 185.84 216.678 184.121 216.542C182.401 216.429 181.021 215.637 180.003 214.189C178.962 212.719 178.691 211.158 179.166 209.506C179.618 207.832 180.704 206.384 182.424 205.185ZM188.51 213.85C189.732 212.99 190.501 211.949 190.818 210.728C191.135 209.506 190.863 208.307 190.026 207.108C189.189 205.909 188.125 205.253 186.881 205.139C185.637 205.026 184.415 205.388 183.193 206.248C181.971 207.108 181.202 208.148 180.885 209.37C180.569 210.592 180.84 211.791 181.677 212.99C182.514 214.189 183.578 214.845 184.822 214.959C186.067 215.072 187.311 214.71 188.51 213.85Z" fill="white"/>
<path d="M202.175 204.189C200.931 205.388 199.822 206.112 198.85 206.339C197.877 206.565 197.062 206.52 196.406 206.158C195.75 205.818 195.116 205.321 194.46 204.642L189.822 199.868L191.248 198.488L195.863 203.239C196.926 204.325 197.854 204.8 198.646 204.687C199.46 204.574 200.298 204.076 201.225 203.171C202.13 202.289 202.651 201.452 202.809 200.637C202.945 199.845 202.492 198.895 201.429 197.809L196.813 193.058L198.239 191.678L202.877 196.452C203.85 197.447 204.415 198.329 204.551 199.099C204.687 199.868 204.574 200.682 204.189 201.52C203.782 202.402 203.103 203.284 202.175 204.189Z" fill="white"/>
<path d="M216.678 186.7L215.388 188.397L212.085 187.673C211.497 187.537 210.886 187.605 210.275 187.877C209.642 188.126 209.099 188.578 208.646 189.166L206.429 192.085L210.343 195.049L209.144 196.633L199.981 189.687L203.963 184.415C204.664 183.488 205.298 182.786 205.886 182.311C206.474 181.836 207.108 181.564 207.832 181.542C208.556 181.497 209.189 181.7 209.755 182.13C210.388 182.605 210.728 183.239 210.796 184.053C210.863 184.845 210.637 185.705 210.139 186.632L210.162 186.655C210.999 185.976 212.017 185.773 213.262 186.022L216.678 186.7ZM205.343 191.271L208.013 187.741C208.759 186.768 209.167 185.954 209.28 185.343C209.37 184.732 209.144 184.189 208.556 183.759C207.515 182.967 206.339 183.42 205.049 185.139L202.198 188.895L205.343 191.271Z" fill="white"/>
<path d="M183.148 85.9292V111.088C180.365 104.64 171.18 99.7304 168.419 99.7304C167.944 99.7304 167.673 99.8435 167.673 100.296C167.673 100.748 167.288 112.694 167.288 112.694L166.179 148.034L128.138 175.612L128.075 175.659L128.011 175.612L89.8433 148.034L88.7346 112.694C88.7346 112.694 88.35 100.748 88.35 100.296C88.35 99.8435 88.0785 99.7304 87.6034 99.7304C84.8432 99.7304 75.6575 104.64 72.8746 111.088V85.9292C72.8746 84.3002 74.4131 83.7346 75.7254 83.7346H81.7436C86.6079 83.7346 86.6079 88.4858 87.988 88.4858C88.4179 88.4858 88.4631 88.1012 88.4631 87.7618C88.4631 87.4224 87.7844 84.7753 87.7844 81.6757C87.7844 76.7662 91.3817 74.8204 91.9247 74.2548C92.4677 73.7118 93.1239 71.2909 94.9112 68.8475C96.2913 66.947 99.7077 64.8202 101.178 63.9605C101.45 63.7795 101.789 64.0284 101.744 64.3451C101.337 66.8338 100.047 74.4132 100.047 75.2503V76.5399C100.047 77.2639 100.635 77.8521 101.359 77.8521H102.332C102.785 77.8521 103.147 78.2141 103.147 78.6666V85.2731C103.509 87.0152 104.911 92.8977 107.491 92.8977C108.599 92.8977 109.142 92.0605 110.862 92.0605L116.563 95.2733L122.604 99.2326L128.219 100.006L133.396 99.2552L139.437 95.2959L145.161 92.0605C146.88 92.0605 147.423 92.8977 148.532 92.8977C151.111 92.8977 152.514 87.0152 152.876 85.2731V78.6666C152.876 78.2141 153.238 77.8521 153.691 77.8521H154.663C155.387 77.8521 155.976 77.2639 155.976 76.5399V75.2503C155.976 74.4132 154.686 66.8338 154.279 64.3451C154.234 64.0284 154.573 63.7795 154.844 63.9605C156.315 64.8202 159.731 66.947 161.111 68.8475C162.899 71.2909 163.555 73.7118 164.098 74.2548C164.641 74.8204 168.238 76.7662 168.238 81.6757C168.238 84.7753 167.56 87.4224 167.56 87.7618C167.56 88.1012 167.605 88.4858 168.035 88.4858C169.415 88.4858 169.415 83.7346 174.279 83.7346H180.297C181.61 83.7346 183.148 84.3002 183.148 85.9292Z" fill="#5A5B4E"/>
<path d="M165.139 110.907C163.668 111.97 161.722 114.776 161.722 116.631C161.722 121.925 163.645 123.464 163.645 128.464C163.645 132.219 161.474 135.07 161.474 137.287C161.474 140.229 162.152 142.943 162.514 143.848C164.709 141.609 167.265 134.233 167.265 128.396C167.265 122.559 165.32 118.26 165.32 116.178C165.32 114.097 165.139 110.907 165.139 110.907Z" fill="#2F2D2C"/>
<path d="M175.886 136.02C175.886 132.898 178.125 128.147 178.125 123.509C178.125 118.554 173.895 112.717 173.895 108.486C173.895 107.4 174.528 106.201 174.438 105.454C173.759 105.635 171.609 106.359 170.795 107.445C169.822 108.735 168.894 110.703 168.6 110.703C167.967 110.703 167.198 109.165 166.949 108.011C166.247 108.599 165.863 109.481 165.682 109.73C165.546 109.934 164.845 110.59 164.596 111.156C164.166 112.106 163.668 114.255 163.668 115.748C163.668 117.242 165.455 125.047 165.455 130.952C165.455 135.59 161.971 141.36 161.541 142.061C161.089 142.762 160.455 145.681 160.455 147.921C160.455 150.161 130.319 175.071 130.319 175.071L141.858 181.836C141.858 181.836 155.116 182.333 157.22 182.333C162.243 182.333 165.523 177.311 167.424 176.451C166.881 175.908 165.863 175.433 164.822 175.433C164.188 175.433 163.804 175.274 163.804 174.686C163.804 174.098 167.13 172.672 168.691 171.134C170.252 169.596 172.605 167.333 172.605 163.668C172.605 162.921 172.447 162.175 172.198 162.175C171.949 162.175 171.225 163.894 169.324 163.894C168.6 163.894 168.532 163.509 168.532 163.102C168.532 161.111 176.27 156.564 176.27 151.631C176.27 150.591 176.926 148.17 178.103 147.039C177.537 146.518 175.343 145.387 173.125 145.387C170.908 145.387 168.487 146.088 168.487 146.088L175.886 136.02Z" fill="#F6191E"/>
<path d="M172.175 135.048C172.628 134.776 173.736 133.848 174.076 133.509C174.076 127.989 175.501 127.989 175.501 125.07C175.501 118.577 171.677 115.613 171.677 113.305C171.677 112.604 171.768 111.54 171.723 110.952C170.637 110.952 169.845 112.083 169.845 113.758C169.845 118.961 172.831 118.531 172.831 123.894C172.831 126.405 171.383 128.667 171.383 132.242C171.383 133.509 171.904 134.708 172.175 135.048Z" fill="#F8C434"/>
<path d="M168.646 112.717C167.854 113.803 166.949 116.812 166.949 119.436C166.949 124.074 168.261 124.323 168.261 131.02C168.261 133.351 167.243 135.568 167.243 136.066C167.243 136.563 167.514 136.857 167.831 136.857C168.148 136.857 168.94 136.269 169.324 136.043C169.709 135.794 170.252 135.387 170.252 134.912C170.252 134.437 169.867 134.64 169.867 132.83C169.867 129.64 171.27 126.903 171.27 123.984C171.27 119.414 168.872 119.029 168.646 116.473C168.532 115.545 168.532 113.373 168.646 112.717Z" fill="#F8C434"/>
<path d="M139.618 172.808C140.817 174.211 141.428 174.799 143.668 175.523C147.265 176.677 147.356 176.406 148.487 176.609C149.618 176.813 149.641 177.401 150.976 177.446C151.881 177.492 153.215 177.537 154.256 177.695C155.297 177.854 156.089 178.193 157.65 178.193C159.075 178.193 161.541 177.56 161.541 176.36C161.541 174.845 158.397 174.528 157.152 174.528C155.908 174.528 152.967 174.912 152.967 174.369C152.967 173.826 153.6 173.51 154.188 173.51C154.777 173.51 157.13 173.736 160.274 173.736C161.247 173.736 163.08 172.921 163.08 171.745C163.08 170.455 161.858 169.958 160.614 169.958C158.781 169.958 152.152 170.93 151.586 171.044C153.691 169.369 164.188 169.415 164.188 166.225C164.188 165.206 163.216 164.505 162.107 164.505C160.455 164.505 153.396 167.989 152.582 168.238C153.6 166.519 158.781 165.274 161.858 162.74C163.057 161.745 163.532 160.727 163.532 159.573C163.532 158.781 162.967 158.487 162.084 158.487C160.093 158.487 156.134 160.161 152.627 162.514C149.12 164.867 141.541 170.342 139.618 172.808Z" fill="#FDBF12"/>
<path d="M164.211 169.822C164.211 170.207 164.912 171.157 165.297 171.157C165.931 171.157 167.039 170.478 167.922 169.664C168.804 168.849 169.528 167.74 169.528 167.016C169.528 166.632 169.37 166.292 168.849 166.292C168.103 166.292 167.424 167.333 166.496 168.012C165.931 168.397 164.211 169.03 164.211 169.822Z" fill="#FDBF12"/>
<path d="M165.546 159.799C165.546 160.138 166.066 160.636 166.542 160.636C167.107 160.636 169.732 158.215 170.953 156.541C171.836 155.365 173.691 152.627 173.691 151.496C173.691 151.066 173.487 150.727 172.922 150.727C172.152 150.727 169.867 154.166 168.872 155.319C167.876 156.496 165.546 158.758 165.546 159.799Z" fill="#FDBF12"/>
<path d="M90.8839 110.907C92.3546 111.97 94.3003 114.776 94.3003 116.631C94.3003 121.925 92.3772 123.464 92.3772 128.464C92.3772 132.219 94.5492 135.07 94.5492 137.287C94.5492 140.229 93.8704 142.943 93.5084 143.848C91.3138 141.609 88.7572 134.233 88.7572 128.396C88.7572 122.559 90.7029 118.26 90.7029 116.178C90.7029 114.097 90.8839 110.907 90.8839 110.907Z" fill="#2F2D2C"/>
<path d="M80.1598 136.02C80.1598 132.898 77.9199 128.147 77.9199 123.509C77.9199 118.554 82.1508 112.717 82.1508 108.486C82.1508 107.4 81.5173 106.201 81.6078 105.454C82.2865 105.635 84.4359 106.359 85.2504 107.445C86.2232 108.735 87.1509 110.703 87.445 110.703C88.0785 110.703 88.8477 109.165 89.0966 108.011C89.798 108.599 90.1826 109.481 90.3636 109.73C90.4993 109.934 91.2007 110.59 91.4496 111.156C91.8794 112.106 92.3772 114.255 92.3772 115.748C92.3772 117.242 90.5898 125.047 90.5898 130.952C90.5898 135.59 94.0741 141.36 94.5039 142.061C94.9564 142.762 95.5899 145.681 95.5899 147.921C95.5899 150.161 125.726 175.071 125.726 175.071L114.188 181.836C114.188 181.836 100.929 182.333 98.8253 182.333C93.8026 182.333 90.522 177.311 88.6215 176.451C89.1645 175.908 90.1826 175.433 91.2233 175.433C91.8568 175.433 92.2414 175.274 92.2414 174.686C92.2414 174.098 88.9156 172.672 87.3545 171.134C85.7934 169.596 83.4404 167.333 83.4404 163.668C83.4404 162.921 83.5988 162.175 83.8476 162.175C84.0965 162.175 84.8205 163.894 86.721 163.894C87.445 163.894 87.5128 163.509 87.5128 163.102C87.5128 161.111 79.7752 156.564 79.7752 151.631C79.7752 150.591 79.119 148.17 77.9425 147.039C78.5082 146.518 80.7028 145.387 82.92 145.387C85.1372 145.387 87.5581 146.088 87.5581 146.088L80.1598 136.02Z" fill="#F6191E"/>
<path d="M83.8703 135.048C83.4178 134.776 82.3092 133.848 81.9698 133.509C81.9698 127.989 80.5444 127.989 80.5444 125.07C80.5444 118.577 84.368 115.613 84.368 113.305C84.368 112.604 84.2775 111.54 84.3228 110.952C85.4088 110.952 86.2006 112.083 86.2006 113.758C86.2006 118.961 83.2142 118.531 83.2142 123.894C83.2142 126.405 84.6622 128.667 84.6622 132.242C84.6622 133.509 84.1418 134.708 83.8703 135.048Z" fill="#F8C434"/>
<path d="M87.3997 112.717C88.1916 113.803 89.0966 116.812 89.0966 119.436C89.0966 124.074 87.7844 124.323 87.7844 131.02C87.7844 133.351 88.8025 135.568 88.8025 136.066C88.8025 136.563 88.531 136.857 88.2142 136.857C87.8975 136.857 87.1056 136.269 86.721 136.043C86.3364 135.794 85.7934 135.387 85.7934 134.912C85.7934 134.437 86.178 134.64 86.178 132.83C86.178 129.64 84.7753 126.903 84.7753 123.984C84.7753 119.414 87.1735 119.029 87.3997 116.473C87.5129 115.545 87.5129 113.373 87.3997 112.717Z" fill="#F8C434"/>
<path d="M116.427 172.808C115.228 174.211 114.617 174.799 112.378 175.523C108.78 176.677 108.69 176.406 107.558 176.609C106.427 176.813 106.405 177.401 105.07 177.446C104.165 177.492 102.83 177.537 101.789 177.695C100.748 177.854 99.9565 178.193 98.3954 178.193C96.97 178.193 94.5039 177.56 94.5039 176.36C94.5039 174.845 97.6488 174.528 98.8931 174.528C100.138 174.528 103.079 174.912 103.079 174.369C103.079 173.826 102.445 173.51 101.857 173.51C101.269 173.51 98.9158 173.736 95.7709 173.736C94.798 173.736 92.9654 172.921 92.9654 171.745C92.9654 170.455 94.1872 169.958 95.4315 169.958C97.2641 169.958 103.893 170.93 104.459 171.044C102.355 169.369 91.8568 169.415 91.8568 166.225C91.8568 165.206 92.8297 164.505 93.9383 164.505C95.5899 164.505 102.649 167.989 103.463 168.238C102.445 166.519 97.2641 165.274 94.1872 162.74C92.9881 161.745 92.5129 160.727 92.5129 159.573C92.5129 158.781 93.0785 158.487 93.9609 158.487C95.9519 158.487 99.9113 160.161 103.418 162.514C106.925 164.867 114.504 170.342 116.427 172.808Z" fill="#FDBF12"/>
<path d="M91.8342 169.822C91.8342 170.207 91.1328 171.157 90.7482 171.157C90.1147 171.157 89.0061 170.478 88.1237 169.664C87.2187 168.849 86.5173 167.74 86.5173 167.016C86.5173 166.632 86.6757 166.292 87.1961 166.292C87.9427 166.292 88.6214 167.333 89.5491 168.012C90.0921 168.397 91.8342 169.03 91.8342 169.822Z" fill="#FDBF12"/>
<path d="M90.4993 159.799C90.4993 160.138 89.9789 160.636 89.5038 160.636C88.9382 160.636 86.3137 158.215 85.092 156.541C84.2096 155.365 82.3544 152.627 82.3544 151.496C82.3544 151.066 82.558 150.727 83.1236 150.727C83.8929 150.727 86.178 154.166 87.1735 155.319C88.1689 156.496 90.4993 158.758 90.4993 159.799Z" fill="#FDBF12"/>
<path d="M181.053 135.443C180.419 134.606 179.401 134.086 178.338 134.086C177.591 134.086 176.89 134.335 176.302 134.765L128.002 171.231V171.168L79.7435 134.765C79.1553 134.335 78.4539 134.086 77.7073 134.086C76.6439 134.086 75.6258 134.606 74.9923 135.443C73.861 136.937 74.1552 139.063 75.6484 140.195L121.486 174.811C118.703 176.553 115.672 178.453 114.608 179.064C114.45 179.041 114.246 179.019 114.02 179.019C113.703 179.019 113.387 179.064 113.093 179.155C112.346 179.358 111.373 180.105 110.694 180.693C110.559 180.806 110.445 180.919 110.332 181.032L109.857 180.444C108.16 178.34 105.196 177.865 102.934 179.358L102.006 179.969C100.83 180.761 100.015 181.96 99.7665 183.363C99.5176 184.766 99.8344 186.168 100.671 187.322L101.69 188.748C102.436 189.766 103.839 189.992 104.857 189.268C105.875 188.521 106.101 187.119 105.377 186.1L104.359 184.675C104.224 184.494 104.224 184.313 104.246 184.177C104.269 184.064 104.337 183.883 104.54 183.747L105.468 183.137C105.762 182.933 106.124 183.001 106.35 183.272L115.559 194.788C115.785 195.06 115.762 195.467 115.491 195.693L114.473 196.598C114.201 196.825 113.794 196.825 113.545 196.553L112.097 194.992C111.26 194.087 109.812 194.019 108.907 194.879C108.002 195.716 107.934 197.164 108.794 198.069L110.242 199.63C111.26 200.716 112.64 201.282 114.043 201.282C115.264 201.282 116.509 200.852 117.482 199.969L118.5 199.064C120.559 197.232 120.83 194.11 119.111 191.96L118.726 191.485C118.817 191.417 118.93 191.327 119.02 191.259C120.694 189.992 120.853 189.494 120.966 189.177C121.102 188.793 121.124 188.363 121.124 188.001V187.888C122.256 186.734 126.034 183.001 126.554 182.594C126.871 182.367 127.48 181.872 128.023 181.419C128.566 181.872 129.174 182.367 129.491 182.594C130.011 183.001 133.79 186.734 134.921 187.888V188.001C134.921 188.363 134.944 188.793 135.079 189.177C135.192 189.494 135.351 189.992 137.025 191.259C137.116 191.327 137.229 191.417 137.319 191.485L136.935 191.96C135.215 194.11 135.487 197.232 137.545 199.064L138.564 199.969C139.536 200.852 140.781 201.282 142.003 201.282C143.405 201.282 144.785 200.716 145.803 199.63L147.251 198.069C148.111 197.164 148.043 195.716 147.138 194.879C146.233 194.019 144.785 194.087 143.948 194.992L142.5 196.553C142.251 196.825 141.844 196.825 141.573 196.598L140.555 195.693C140.283 195.467 140.26 195.06 140.487 194.788L149.695 183.272C149.921 183.001 150.283 182.933 150.577 183.137L151.505 183.747C151.709 183.883 151.776 184.064 151.799 184.177C151.822 184.313 151.822 184.494 151.686 184.675L150.668 186.1C149.944 187.119 150.17 188.521 151.188 189.268C152.206 189.992 153.609 189.766 154.356 188.748L155.374 187.322C156.211 186.168 156.528 184.766 156.279 183.363C156.03 181.96 155.215 180.761 154.039 179.969L153.111 179.358C150.849 177.865 147.885 178.34 146.188 180.444L145.713 181.032C145.6 180.919 145.487 180.806 145.351 180.693C144.672 180.105 143.699 179.358 142.953 179.155C142.659 179.064 142.342 179.019 142.025 179.019C141.799 179.019 141.595 179.041 141.437 179.064C140.374 178.453 137.342 176.553 134.559 174.811L180.397 140.195C181.89 139.063 182.184 136.937 181.053 135.443Z" fill="#E0C99B"/>
<path d="M179.293 138.781L131.351 174.98C133.183 176.134 140.65 180.817 140.966 180.908C141.306 180.998 141.803 180.727 142.437 180.908C143.048 181.089 145.333 182.922 145.446 183.623C145.559 184.324 143.546 185.999 142.731 187.039C141.917 188.08 140.129 190.727 139.722 190.772C139.315 190.818 136.916 188.962 136.803 188.6C136.668 188.216 136.803 187.288 136.577 186.994C136.351 186.7 131.238 181.609 130.604 181.134C129.971 180.682 128.025 179.053 128.025 179.053C128.025 179.053 126.079 180.682 125.446 181.134C124.812 181.609 119.699 186.7 119.473 186.994C119.246 187.288 119.382 188.216 119.246 188.6C119.133 188.962 116.735 190.818 116.328 190.772C115.921 190.727 114.133 188.08 113.319 187.039C112.504 185.999 110.491 184.324 110.604 183.623C110.717 182.922 113.002 181.089 113.613 180.908C114.246 180.727 114.744 180.998 115.084 180.908C115.4 180.817 122.866 176.134 124.699 174.98L76.757 138.781C76.0557 138.26 75.9199 137.265 76.4403 136.563C76.9607 135.862 77.9562 135.726 78.6575 136.247L127.097 172.808L128.025 173.193L128.93 172.786L177.392 136.247C178.094 135.726 179.089 135.862 179.61 136.563C180.13 137.265 179.994 138.26 179.293 138.781Z" fill="#647D77"/>
<path d="M161.089 76.5624C161.089 74.2547 158.917 69.413 157.582 68.6211C157.582 70.7705 159.234 74.5036 159.234 77.0828C159.234 78.8928 158.985 82.5354 158.894 83.0331C159.958 82.1734 161.089 79.9335 161.089 76.5624Z" fill="#35362D"/>
<path d="M163.691 77.4448C163.691 78.3951 164.279 79.4358 164.279 80.6576C164.279 82.3318 163.306 85.3183 163.035 85.9518L165.116 85.816C165.388 85.2504 165.953 83.4857 165.953 82.1282C165.953 80.7933 165.071 78.7118 163.691 77.4448Z" fill="#35362D"/>
<path d="M94.9565 76.5624C94.9565 74.2547 97.1285 69.413 98.4634 68.6211C98.4634 70.7705 96.8118 74.5036 96.8118 77.0828C96.8118 78.8928 97.0606 82.5354 97.1511 83.0331C96.0652 82.1734 94.9565 79.9335 94.9565 76.5624Z" fill="#35362D"/>
<path d="M92.3546 77.4448C92.3546 78.3951 91.7664 79.4358 91.7664 80.6576C91.7664 82.3318 92.7393 85.3183 93.0108 85.9518L90.9293 85.816C90.6578 85.2504 90.0922 83.4857 90.0922 82.1282C90.0922 80.7707 90.9745 78.7118 92.3546 77.4448Z" fill="#35362D"/>
<path d="M158.057 145.161C157.182 145.161 156.473 144.453 156.473 143.577V87.0833C156.473 86.2077 157.182 85.4995 158.057 85.4995C158.933 85.4995 159.641 86.2077 159.641 87.0833V143.577C159.641 144.453 158.933 145.161 158.057 145.161Z" fill="#E0C99B"/>
<path d="M141.224 98.9614C142.831 96.5632 146.835 94.0971 153.668 93.1242V89.278C154.256 88.5314 162.492 88.6445 163.691 88.8029C163.691 89.6626 163.645 91.2237 163.691 91.9703C164.505 91.9251 165.682 92.0382 166.157 92.1513C166.202 92.8527 166.157 97.1514 166.157 97.9433C165.569 97.9885 164.347 98.079 163.759 98.079C163.759 98.7804 163.736 99.4818 163.713 99.8438C162.899 100.206 159.958 100.07 158.08 100.07C156.202 100.07 154.256 99.7985 153.713 99.6854V98.6673C152.537 98.622 143.803 98.6673 141.224 98.9614Z" fill="#393937"/>
<path d="M180.456 101.903C178.555 100.115 172.944 97.0157 168.397 96.812V93.0111C169.324 92.7848 170.931 90.6807 171.338 90.0246C171.926 89.097 172.265 87.4906 173.374 87.0833C174.392 86.6987 178.216 86.7892 179.8 86.7666C180.094 86.7666 180.343 86.9928 180.343 87.287L180.456 101.903Z" fill="#393937"/>
<path d="M97.9656 145.161C97.09 145.161 96.3818 144.453 96.3818 143.577V87.0833C96.3818 86.2077 97.09 85.4995 97.9656 85.4995C98.8412 85.4995 99.5493 86.2077 99.5493 87.0833V143.577C99.5493 144.453 98.8412 145.161 97.9656 145.161Z" fill="#E0C99B"/>
<path d="M114.799 98.9614C113.192 96.5632 109.188 94.0971 102.355 93.1242V89.278C101.767 88.5314 93.5312 88.6445 92.332 88.8029C92.332 89.6626 92.3773 91.2237 92.332 91.9703C91.5175 91.9251 90.3411 92.0382 89.8659 92.1513C89.8207 92.8527 89.8659 97.1514 89.8659 97.9433C90.4542 97.9885 91.6759 98.079 92.2642 98.079C92.2642 98.7804 92.2868 99.4818 92.3094 99.8438C93.1239 100.206 96.0651 100.07 97.943 100.07C99.8209 100.07 101.767 99.7985 102.31 99.6854V98.6673C103.509 98.622 112.219 98.6673 114.799 98.9614Z" fill="#393937"/>
<path d="M75.567 101.903C77.4675 100.115 83.0785 97.0157 87.6261 96.812V93.0111C86.6984 92.7848 85.0921 90.6807 84.6848 90.0246C84.0966 89.097 83.7572 87.4906 82.6486 87.0833C81.6305 86.6987 77.8069 86.7892 76.2231 86.7666C75.929 86.7666 75.6801 86.9928 75.6801 87.287L75.567 101.903Z" fill="#393937"/>
<path d="M149.867 76.766C149.867 74.2773 148.577 72.241 147.627 71.4265C147.627 68.6889 145.229 63.259 141.993 60.363C138.758 57.467 132.129 54.7746 131.677 54.5936C131.229 54.3923 130.539 53.4194 128.057 53.3945H127.966C125.484 53.4194 124.794 54.3923 124.346 54.5936C123.894 54.7746 117.265 57.467 114.029 60.363C110.794 63.259 108.396 68.6889 108.396 71.4265C107.445 72.241 106.156 74.2773 106.156 76.766C106.156 79.2547 108.735 81.7434 109.187 85.1824C109.64 88.6214 110.341 89.4585 110.341 90.2051C110.341 90.9518 110.206 92.1961 110.545 92.5581C111.224 93.2821 115.025 95.3862 116.427 96.427C117.197 97.0152 121.02 100.748 122.152 100.748H133.871C135.002 100.748 138.826 97.0152 139.595 96.427C140.998 95.3862 144.799 93.2821 145.478 92.5581C145.817 92.1961 145.681 90.9518 145.681 90.2051C145.681 89.4585 146.383 88.6214 146.835 85.1824C147.288 81.7434 149.867 79.2547 149.867 76.766ZM139.822 93.6441C136.733 96.0107 132.319 98.9632 128.011 98.9836C123.704 98.9632 119.289 96.0107 116.201 93.6441C113.396 91.4948 111.699 90.0468 111.699 88.0784C111.699 87.5807 112.061 87.1734 112.604 87.1734C113.912 87.1734 118.927 92.2979 127.966 92.3319H128.057C137.095 92.2979 142.111 87.1734 143.419 87.1734C143.962 87.1734 144.324 87.5807 144.324 88.0784C144.324 90.0468 142.627 91.4948 139.822 93.6441ZM115.364 85.4765C115.364 84.8883 115.568 84.3906 116.111 84.3906C117.627 84.3906 116.812 85.2503 119.866 85.2503C121.767 85.2503 122.808 84.2774 123.667 83.3046C126.597 79.9697 124.409 76.7479 127.989 76.7207H128.034C131.613 76.7479 129.425 79.9697 132.355 83.3046C133.215 84.2774 134.256 85.2503 136.156 85.2503C139.211 85.2503 138.396 84.3906 139.912 84.3906C140.455 84.3906 140.659 84.8883 140.659 85.4765C140.659 86.9698 139.957 87.3092 138.509 87.92C137.075 88.5037 131.244 88.9087 128.057 88.9155H127.966C124.778 88.9087 118.948 88.5037 117.513 87.92C116.065 87.3092 115.364 86.9698 115.364 85.4765ZM144.346 80.4312C143.849 81.3362 143.894 83.3498 143.102 83.3498C142.604 83.3498 142.355 82.8294 142.355 81.7887C142.355 76.8565 141.609 74.2094 136.903 71.1324C134.783 69.7568 132.149 68.922 128.034 68.6912H127.989C123.873 68.922 121.24 69.7568 119.12 71.1324C114.414 74.2094 113.667 76.8565 113.667 81.7887C113.667 82.8294 113.418 83.3498 112.921 83.3498C112.129 83.3498 112.174 81.3362 111.676 80.4312C111.382 79.8656 111.043 78.6212 111.043 76.7207C111.043 74.4583 113.396 71.4039 115.636 69.7523C118.215 67.8292 121.676 67.3541 122.921 65.4083C125.749 60.9965 125.409 57.3539 125.862 57.3086C126.314 57.2634 126.676 57.9648 126.676 59.2091C126.676 60.7024 125.523 64.0961 125.523 65.8156C126.007 65.8156 126.919 65.7726 127.966 65.7703H128.057C129.106 65.7726 130.039 65.8156 130.5 65.8156C130.5 64.0961 129.346 60.7024 129.346 59.2091C129.346 57.9648 129.708 57.2634 130.161 57.3086C130.613 57.3539 130.274 60.9965 133.102 65.4083C134.346 67.3541 137.808 67.8292 140.387 69.7523C142.627 71.4039 144.98 74.4583 144.98 76.7207C144.98 78.6212 144.641 79.8656 144.346 80.4312Z" fill="#E1CB9D"/>
<path d="M146.337 74.2544C147.016 74.2544 147.604 74.5485 147.604 76.2906C147.604 78.1911 147.333 78.8472 146.224 78.8472C145.116 78.8472 145.161 76.6979 145.161 75.8834C145.161 74.9331 145.591 74.2544 146.337 74.2544Z" fill="#685839"/>
<path d="M109.708 74.2544C109.029 74.2544 108.441 74.5485 108.441 76.2906C108.441 78.1911 108.712 78.8472 109.821 78.8472C110.93 78.8472 110.884 76.6979 110.884 75.8834C110.862 74.9331 110.455 74.2544 109.708 74.2544Z" fill="#685839"/>
<path d="M155.387 103.712V135.907C155.387 145.297 153.328 149.663 146.971 154.03C142.378 157.175 129.889 165.003 129.889 165.003L128.011 165.026L126.133 165.003C126.133 165.003 113.645 157.175 109.052 154.03C102.694 149.663 100.635 145.297 100.635 135.907V103.712L103.328 100.771H152.695L155.387 103.712Z" fill="#3B3835"/>
<path d="M155.365 103.735L153.283 105.816V137.898C153.283 147.469 145.184 152.944 139.64 156.519C129.595 163.035 129.821 161.722 129.867 165.003C129.867 165.274 129.64 165.501 129.391 165.501H126.631C126.382 165.501 126.156 165.274 126.156 165.003C126.201 161.722 126.428 163.035 116.382 156.519C110.839 152.944 102.739 147.469 102.739 137.898V105.816L100.658 103.735C100.296 103.395 100.296 102.807 100.658 102.445L102.061 101.042C102.4 100.68 102.988 100.68 103.35 101.042L105.432 103.124H150.591L152.672 101.042C153.034 100.68 153.623 100.68 153.962 101.042L155.365 102.445C155.727 102.807 155.727 103.395 155.365 103.735Z" fill="#FFFEFF"/>
<path d="M146.134 144.256C146.835 144.256 147.31 143.735 147.31 142.921C147.31 139.731 148.849 138.668 148.849 134.346C148.849 132.446 148.419 129.957 148.193 127.604C147.921 124.617 148.012 121.948 147.288 121.948C146.745 121.948 145.885 125.206 145.885 126.993C145.885 127.762 145.568 129.459 145.138 129.482C144.708 129.504 144.346 129.029 144.46 130.183C144.595 131.518 145.41 132.061 145.41 132.921C145.41 133.781 144.912 133.102 144.618 133.102C144.12 133.102 144.052 133.509 144.052 134.278C144.052 135.364 145.591 136.79 145.591 137.763C145.591 138.735 145.093 137.966 144.527 137.966C143.962 137.966 144.052 138.69 144.052 139.301C144.052 140.115 144.46 141.201 144.731 142.22C145.003 143.306 144.98 144.256 146.134 144.256Z" fill="#3B3835"/>
<path d="M129.686 160.863C129.776 160.863 129.867 160.84 129.934 160.795C130.455 160.455 131.156 160.025 132.061 159.482C133.464 158.623 135.41 157.446 138.057 155.727C144.912 151.27 151.903 145.5 151.903 136.337V116.45C151.903 116.201 151.7 115.998 151.451 115.998C151.202 115.998 150.998 116.201 150.998 116.45V136.337C150.998 145.048 144.211 150.636 137.559 154.958C134.912 156.677 132.989 157.831 131.586 158.691C130.681 159.234 129.957 159.686 129.437 160.025C129.233 160.161 129.165 160.455 129.301 160.659C129.391 160.795 129.55 160.863 129.686 160.863Z" fill="#3B3835"/>
<path d="M151.473 113.916C151.722 113.916 151.926 113.712 151.926 113.463V107.196C151.926 106.947 151.722 106.744 151.473 106.744C151.224 106.744 151.021 106.947 151.021 107.196V113.463C151.021 113.712 151.224 113.916 151.473 113.916Z" fill="#3B3835"/>
<path d="M126.36 160.863C126.269 160.863 126.179 160.84 126.111 160.795C125.59 160.455 124.889 160.025 123.984 159.482C122.581 158.623 120.636 157.446 117.988 155.727C111.133 151.27 104.142 145.5 104.142 136.337V116.45C104.142 116.201 104.346 115.998 104.595 115.998C104.843 115.998 105.047 116.201 105.047 116.45V136.337C105.047 145.048 111.835 150.636 118.486 154.958C121.133 156.677 123.056 157.831 124.459 158.691C125.364 159.234 126.088 159.686 126.609 160.025C126.812 160.161 126.88 160.455 126.744 160.659C126.631 160.795 126.495 160.863 126.36 160.863Z" fill="#3B3835"/>
<path d="M104.572 113.916C104.323 113.916 104.12 113.712 104.12 113.463V107.196C104.12 106.947 104.323 106.744 104.572 106.744C104.821 106.744 105.025 106.947 105.025 107.196V113.463C105.025 113.712 104.821 113.916 104.572 113.916Z" fill="#3B3835"/>
<path d="M150.184 105.16C150.184 105.409 149.98 105.613 149.731 105.613H106.291C106.043 105.613 105.839 105.409 105.839 105.16C105.839 104.911 106.043 104.708 106.291 104.708H149.731C149.98 104.708 150.184 104.911 150.184 105.16Z" fill="#3B3835"/>
<path d="M150.184 114.866C150.184 115.115 149.98 115.319 149.731 115.319H106.291C106.043 115.319 105.839 115.115 105.839 114.866C105.839 114.617 106.043 114.414 106.291 114.414H149.731C149.98 114.414 150.184 114.617 150.184 114.866Z" fill="#3B3835"/>
<path d="M109.889 144.256C109.187 144.256 108.712 143.735 108.712 142.921C108.712 139.731 107.174 138.668 107.174 134.346C107.174 132.446 107.604 129.957 107.83 127.604C108.101 124.617 108.011 121.948 108.735 121.948C109.278 121.948 110.138 125.206 110.138 126.993C110.138 127.762 110.454 129.459 110.884 129.482C111.314 129.504 111.676 129.029 111.563 130.183C111.427 131.518 110.613 132.061 110.613 132.921C110.613 133.781 111.111 133.102 111.405 133.102C111.902 133.102 111.97 133.509 111.97 134.278C111.97 135.364 110.432 136.79 110.432 137.763C110.432 138.735 110.93 137.966 111.495 137.966C112.061 137.966 111.97 138.69 111.97 139.301C111.97 140.115 111.563 141.201 111.292 142.22C111.02 143.306 111.043 144.256 109.889 144.256Z" fill="#3B3835"/>
<path d="M141.69 143.066C141.324 142.699 140.844 142.45 140.308 142.378H140.41C141.496 142.378 142.378 141.495 142.378 140.409V124.708C142.378 123.282 141.224 122.106 139.776 122.106H116.246C114.798 122.106 113.645 123.282 113.645 124.708V140.409C113.645 141.495 114.527 142.378 115.613 142.378H115.715C115.179 142.45 114.699 142.699 114.332 143.066C113.893 143.505 113.622 144.109 113.622 144.776C113.622 146.179 115.726 149.527 118.848 151.858C120.613 153.181 122.106 154.396 123.362 155.283C124.618 156.168 125.636 156.722 126.45 156.722C127.31 156.722 128.011 156.021 128.011 155.161C128.011 156.021 128.713 156.722 129.572 156.722C130.387 156.722 131.405 156.168 132.661 155.283C133.916 154.396 135.41 153.181 137.174 151.858C140.297 149.527 142.401 146.179 142.401 144.776C142.401 144.109 142.129 143.505 141.69 143.066ZM128 144.002C127.091 144.002 126.353 143.265 126.353 142.355C126.353 141.446 127.091 140.708 128 140.708C128.91 140.708 129.647 141.446 129.647 142.355C129.647 143.265 128.91 144.002 128 144.002Z" fill="#3B3835"/>
<path d="M139.595 142.061H130.364C130.364 141 129.502 140.138 128.441 140.138V133.69C128.441 133.28 128.776 132.943 129.188 132.943H141.111C141.521 132.943 141.858 133.278 141.858 133.69V139.821C141.835 141.043 140.84 142.061 139.595 142.061Z" fill="#EE1C23"/>
<path d="M130.387 142.627H139.731C140.907 142.627 141.835 143.577 141.835 144.731C141.835 148.306 130.953 155.976 129.64 155.976C128.962 155.976 128.419 155.433 128.419 154.754V144.573C129.505 144.573 130.387 143.713 130.387 142.627Z" fill="#FBED74"/>
<path d="M116.45 142.061H125.681C125.681 140.998 126.543 140.138 127.604 140.138V133.69C127.604 133.28 127.269 132.943 126.858 132.943H114.934C114.525 132.943 114.188 133.278 114.188 133.69V139.821C114.188 141.043 115.206 142.061 116.45 142.061Z" fill="#FBED74"/>
<path d="M125.658 142.627H116.314C115.138 142.627 114.21 143.577 114.21 144.731C114.21 148.306 125.093 155.976 126.405 155.976C127.084 155.976 127.627 155.433 127.627 154.754V144.573C126.518 144.573 125.658 143.713 125.658 142.627Z" fill="#EE1C23"/>
<path d="M141.835 124.776V132.152C141.835 132.333 141.677 132.491 141.496 132.491H114.55C114.369 132.491 114.21 132.333 114.21 132.152V124.776C114.188 123.599 115.115 122.694 116.269 122.694H139.776C140.908 122.694 141.835 123.599 141.835 124.776Z" fill="#112748"/>
<path d="M109.5 111.547H108.359L108.144 112.246H107.468L108.572 108.843H109.303L110.398 112.246H109.697L109.497 111.547H109.5ZM109.319 110.961L108.932 109.622L108.534 110.961H109.319Z" fill="#3B3835"/>
<path d="M110.742 108.843H111.384V112.246H110.742V108.843Z" fill="#3B3835"/>
<path d="M113.301 110.914H112.633V112.248H112.002V108.846H113.52C113.737 108.85 113.905 108.88 114.02 108.934C114.138 108.988 114.235 109.067 114.317 109.172C114.384 109.257 114.437 109.352 114.477 109.459C114.518 109.565 114.536 109.683 114.536 109.816C114.536 109.977 114.5 110.138 114.425 110.294C114.351 110.45 114.228 110.561 114.059 110.624C114.201 110.687 114.303 110.778 114.362 110.893C114.421 111.009 114.45 111.187 114.45 111.425V111.653C114.45 111.81 114.457 111.914 114.466 111.97C114.482 112.058 114.522 112.122 114.584 112.165V112.251H113.873C113.853 112.176 113.839 112.115 113.83 112.067C113.814 111.972 113.805 111.875 113.803 111.773L113.798 111.457C113.796 111.239 113.76 111.095 113.69 111.022C113.62 110.95 113.491 110.914 113.301 110.914ZM113.692 110.294C113.821 110.228 113.884 110.101 113.884 109.911C113.884 109.705 113.823 109.567 113.697 109.495C113.627 109.454 113.522 109.434 113.382 109.434H112.631V110.348H113.364C113.509 110.348 113.62 110.33 113.692 110.291V110.294Z" fill="#3B3835"/>
<path d="M117.244 110.76H115.742V111.635H117.455V112.246H115.111V108.843H117.38V109.445H115.742V110.167H117.244V110.757V110.76Z" fill="#3B3835"/>
<path d="M120.276 111.755C120.428 111.755 120.552 111.737 120.647 111.699C120.828 111.628 120.919 111.497 120.919 111.303C120.919 111.19 120.873 111.104 120.785 111.042C120.695 110.981 120.554 110.929 120.364 110.882L120.036 110.8C119.715 110.721 119.491 110.633 119.369 110.54C119.161 110.384 119.056 110.137 119.056 109.803C119.056 109.497 119.158 109.244 119.36 109.042C119.561 108.841 119.857 108.739 120.247 108.739C120.572 108.739 120.851 108.834 121.081 109.024C121.312 109.214 121.432 109.49 121.443 109.852H120.821C120.81 109.649 120.728 109.502 120.577 109.416C120.475 109.359 120.351 109.33 120.201 109.33C120.034 109.33 119.903 109.366 119.803 109.441C119.704 109.515 119.654 109.617 119.654 109.751C119.654 109.873 119.704 109.963 119.801 110.024C119.864 110.065 119.998 110.11 120.204 110.165L120.738 110.305C120.971 110.366 121.147 110.45 121.267 110.552C121.452 110.712 121.543 110.943 121.543 111.246C121.543 111.549 121.434 111.816 121.219 112.02C121.002 112.226 120.697 112.328 120.303 112.328C119.909 112.328 119.584 112.226 119.353 112.024C119.122 111.823 119.007 111.545 119.007 111.19H119.624C119.645 111.346 119.683 111.461 119.74 111.538C119.844 111.678 120.025 111.748 120.278 111.748L120.276 111.755Z" fill="#3B3835"/>
<path d="M123.851 110.936V108.843H124.507V110.936C124.507 111.298 124.455 111.579 124.353 111.782C124.163 112.151 123.799 112.337 123.262 112.337C122.726 112.337 122.362 112.151 122.172 111.782C122.07 111.581 122.018 111.298 122.018 110.936V108.843H122.674V110.936C122.674 111.169 122.699 111.341 122.749 111.45C122.828 111.64 122.998 111.737 123.26 111.737C123.523 111.737 123.692 111.642 123.769 111.45C123.819 111.341 123.844 111.171 123.844 110.936H123.851Z" fill="#3B3835"/>
<path d="M126.439 110.914H125.772V112.248H125.14V108.846H126.658C126.876 108.85 127.043 108.88 127.158 108.934C127.276 108.988 127.373 109.067 127.455 109.172C127.523 109.257 127.575 109.352 127.615 109.459C127.656 109.565 127.674 109.683 127.674 109.816C127.674 109.977 127.638 110.138 127.563 110.294C127.489 110.45 127.367 110.561 127.197 110.624C127.339 110.687 127.441 110.778 127.5 110.893C127.559 111.009 127.588 111.187 127.588 111.425V111.653C127.588 111.81 127.595 111.914 127.604 111.97C127.62 112.058 127.661 112.122 127.722 112.165V112.251H127.011C126.991 112.176 126.977 112.115 126.968 112.067C126.953 111.972 126.943 111.875 126.941 111.773L126.937 111.457C126.934 111.239 126.898 111.095 126.828 111.022C126.758 110.95 126.629 110.914 126.439 110.914ZM126.83 110.294C126.959 110.228 127.023 110.101 127.023 109.911C127.023 109.705 126.962 109.567 126.835 109.495C126.765 109.454 126.661 109.434 126.52 109.434H125.769V110.348H126.502C126.647 110.348 126.758 110.33 126.83 110.291V110.294Z" fill="#3B3835"/>
<path d="M129.423 108.843H130.07V111.635H131.602V112.246H129.423V108.843Z" fill="#3B3835"/>
<path d="M132.36 109.343C132.36 109.576 132.308 109.76 132.206 109.893C132.104 110.027 131.959 110.115 131.772 110.153V109.911C131.91 109.864 132.002 109.782 132.054 109.669C132.082 109.601 132.095 109.533 132.091 109.463H131.76V108.857H132.358V109.343H132.36Z" fill="#3B3835"/>
<path d="M134.819 111.547H133.679L133.464 112.246H132.787L133.892 108.843H134.622L135.717 112.246H135.016L134.817 111.547H134.819ZM134.638 110.961L134.251 109.622L133.853 110.961H134.638Z" fill="#3B3835"/>
<path d="M137.444 112.248H136.111V108.846H137.444C137.636 108.848 137.794 108.873 137.923 108.92C138.141 109 138.317 109.142 138.45 109.352C138.559 109.522 138.631 109.705 138.67 109.902C138.708 110.099 138.729 110.287 138.729 110.466C138.729 110.918 138.647 111.3 138.482 111.615C138.258 112.038 137.912 112.251 137.446 112.251L137.444 112.248ZM137.926 109.712C137.826 109.527 137.629 109.436 137.335 109.436H136.74V111.658H137.335C137.641 111.658 137.853 111.493 137.973 111.162C138.039 110.981 138.073 110.764 138.073 110.513C138.073 110.167 138.023 109.9 137.926 109.714V109.712Z" fill="#3B3835"/>
<path d="M140.584 112.341C140.143 112.341 139.803 112.21 139.57 111.945C139.258 111.619 139.1 111.153 139.1 110.54C139.1 109.927 139.256 109.45 139.57 109.137C139.803 108.873 140.143 108.739 140.584 108.739C141.025 108.739 141.365 108.873 141.598 109.137C141.91 109.45 142.066 109.918 142.066 110.54C142.066 111.162 141.91 111.619 141.598 111.945C141.365 112.21 141.025 112.341 140.584 112.341ZM141.195 111.427C141.344 111.219 141.419 110.925 141.419 110.54C141.419 110.156 141.344 109.864 141.193 109.656C141.041 109.447 140.84 109.343 140.582 109.343C140.324 109.343 140.12 109.447 139.969 109.656C139.817 109.864 139.74 110.158 139.74 110.542C139.74 110.927 139.817 111.221 139.969 111.429C140.12 111.638 140.326 111.742 140.582 111.742C140.837 111.742 141.041 111.638 141.193 111.429L141.195 111.427Z" fill="#3B3835"/>
<path d="M144.389 110.936V108.843H145.046V110.936C145.046 111.298 144.994 111.579 144.892 111.782C144.702 112.151 144.337 112.337 143.801 112.337C143.265 112.337 142.901 112.151 142.711 111.782C142.609 111.581 142.557 111.298 142.557 110.936V108.843H143.213V110.936C143.213 111.169 143.238 111.341 143.288 111.45C143.367 111.64 143.537 111.737 143.799 111.737C144.061 111.737 144.231 111.642 144.308 111.45C144.358 111.341 144.383 111.171 144.383 110.936H144.389Z" fill="#3B3835"/>
<path d="M146.978 110.914H146.31V112.248H145.679V108.846H147.197C147.414 108.85 147.582 108.88 147.697 108.934C147.815 108.988 147.912 109.067 147.994 109.172C148.061 109.257 148.114 109.352 148.154 109.459C148.195 109.565 148.213 109.683 148.213 109.816C148.213 109.977 148.177 110.138 148.102 110.294C148.028 110.45 147.905 110.561 147.736 110.624C147.878 110.687 147.98 110.778 148.039 110.893C148.098 111.009 148.127 111.187 148.127 111.425V111.653C148.127 111.81 148.134 111.914 148.143 111.97C148.159 112.058 148.199 112.122 148.261 112.165V112.251H147.55C147.53 112.176 147.516 112.115 147.507 112.067C147.491 111.972 147.482 111.875 147.48 111.773L147.475 111.457C147.473 111.239 147.437 111.095 147.367 111.022C147.297 110.95 147.168 110.914 146.978 110.914ZM147.371 110.294C147.5 110.228 147.564 110.101 147.564 109.911C147.564 109.705 147.503 109.567 147.376 109.495C147.306 109.454 147.202 109.434 147.061 109.434H146.31V110.348H147.043C147.188 110.348 147.299 110.33 147.371 110.291V110.294Z" fill="#3B3835"/>
</g>
<defs>
<clipPath id="clip0_568_15071">
<rect width="256" height="256" fill="white"/>
</clipPath>
</defs>
</svg>
