<svg width="256" height="256" viewBox="0 0 256 256" fill="none" xmlns="http://www.w3.org/2000/svg">
<path d="M206.612 188.27V30.2946C184.248 4.60062 128.206 8.40628 128.206 8.40628C128.206 8.40628 72.1699 4.60062 49.8053 30.2946V188.27C48.8539 211.11 93.2233 210.396 128.206 244.891C163.189 210.39 207.564 211.11 206.607 188.27H206.612Z" fill="white"/>
<mask id="mask0_3324_11511" style="mask-type:luminance" maskUnits="userSpaceOnUse" x="49" y="8" width="158" height="237">
<path d="M206.612 188.27V30.2946C184.248 4.60062 128.206 8.40628 128.206 8.40628C128.206 8.40628 72.1699 4.60062 49.8053 30.2946V188.27C48.8539 211.11 93.2233 210.396 128.206 244.891C163.189 210.39 207.564 211.11 206.607 188.27H206.612Z" fill="white"/>
</mask>
<g mask="url(#mask0_3324_11511)">
<path d="M145.767 0H110.233V256H145.767V0Z" fill="#E30613"/>
<path d="M256 99.9565H0V135.484H256V99.9565Z" fill="#E30613"/>
</g>
<path d="M206.612 188.27V30.2946C184.248 4.60062 128.206 8.40628 128.206 8.40628C128.206 8.40628 72.1699 4.60062 49.8053 30.2946V188.27C48.8539 211.11 93.2233 210.396 128.206 244.891C163.189 210.39 207.564 211.11 206.607 188.27H206.612Z" stroke="#E30613" stroke-width="9.28" stroke-miterlimit="10"/>
<path d="M85.6873 32.9922V47.7449" stroke="#EEC800" stroke-width="2.32" stroke-miterlimit="10"/>
<path d="M80.3789 47.4258L76.2134 54.2075L72.048 47.4258H67.4069V81.5665H71.8101V52.7804L76.2134 58.9646L80.6109 52.7804V81.5665H85.0142V47.4258H80.3789Z" fill="#EEC800"/>
<path d="M89.2957 77.4823V61.9406H96.4373V57.5781H89.2957V51.5505H100.243V47.4258H86.4414V81.5665H100.243V77.4823H89.2957Z" fill="#EEC800"/>
<path d="M81.5276 37.7549H89.8468" stroke="#EEC800" stroke-width="2.32" stroke-miterlimit="10"/>
<path d="M171.264 83.945L173.167 79.188C173.167 79.188 169.24 78.8341 168.648 71.5767C168.648 71.5767 168.764 76.3337 166.629 76.2177C164.482 76.0959 158.304 68.9603 158.304 65.99C158.304 63.0197 161.512 53.6216 159.371 41.7231C159.371 41.7231 159.371 58.8544 157.584 60.6354C157.584 60.6354 156.871 60.9893 155.919 54.5672C155.919 54.5672 157.468 64.4411 155.919 64.7949C154.376 65.1488 151.992 61.2271 151.992 61.2271C151.992 61.2271 152.705 65.1546 154.37 66.4599C156.035 67.771 161.86 74.5527 161.744 77.0473C161.622 79.5419 156.151 76.9255 156.151 76.9255C156.151 76.9255 158.53 80.1394 161.622 79.5419C164.714 78.9501 166.026 77.8769 168.166 80.4933C170.307 83.1097 171.258 83.945 171.258 83.945H171.264Z" fill="#EEC800"/>
<path d="M179.114 83.945L177.211 79.188C177.211 79.188 181.138 78.8341 181.73 71.5767C181.73 71.5767 181.608 76.3337 183.749 76.2177C185.89 76.0959 192.074 68.9603 192.074 65.99C192.074 63.0197 188.866 53.6216 191.007 41.7231C191.007 41.7231 191.007 58.8544 192.793 60.6354C192.793 60.6354 193.507 60.9893 194.458 54.5672C194.458 54.5672 192.909 64.4411 194.458 64.7949C196.002 65.1488 198.386 61.2271 198.386 61.2271C198.386 61.2271 197.672 65.1546 196.007 66.4599C194.342 67.771 188.512 74.5527 188.634 77.0473C188.756 79.5419 194.226 76.9255 194.226 76.9255C194.226 76.9255 191.848 80.1394 188.756 79.5419C185.663 78.9501 184.352 77.8769 182.212 80.4933C180.071 83.1097 179.119 83.945 179.119 83.945H179.114Z" fill="#EEC800"/>
<path d="M67.4069 114.993C67.4069 114.993 65.6606 120.708 71.8508 118.167C78.0351 115.632 82.3166 100.241 82.3166 100.241C82.3166 100.241 74.7051 135.292 82.3166 134.022" stroke="white" stroke-width="2.32" stroke-linecap="round" stroke-linejoin="round"/>
<path d="M82.3165 115.15H74.7515" stroke="white" stroke-width="2.32" stroke-linecap="round" stroke-linejoin="round"/>
<path d="M82.3167 118.683C82.3167 118.683 84.0629 114.042 85.7279 114.164C87.3929 114.28 86.2036 117.152 86.2036 117.152C86.2036 117.152 86.4415 114.75 88.4604 114.158C90.4851 113.566 89.2958 117.152 89.2958 117.152C89.2958 117.152 90.3226 111.519 92.0341 114.094C93.4206 116.183 90.1718 129.033 96.1937 121.653" stroke="white" stroke-width="2.32" stroke-linecap="round" stroke-linejoin="round"/>
<path d="M95.248 114.361C95.248 114.361 93.7396 116.264 96.1994 117.453C98.6592 118.642 98.8159 115.55 98.2589 114.361C97.7078 113.172 96.2806 113.485 95.248 114.361Z" stroke="white" stroke-width="2.32" stroke-linecap="round" stroke-linejoin="round"/>
<path d="M101.432 118.086V110.55" stroke="white" stroke-width="2.32" stroke-linecap="round" stroke-linejoin="round"/>
<path d="M99.4482 113.009C99.4482 113.009 97.6208 108.252 101.427 106.901C105.232 105.555 108.406 106.819 108.168 109.952C107.93 113.085 104.2 113.955 104.2 113.955C104.2 113.955 108.191 112.29 108.174 119.269C108.162 126.248 110.697 131.562 113.714 124.502" stroke="white" stroke-width="2.32" stroke-linecap="round" stroke-linejoin="round"/>
<path d="M131.646 123.556C131.646 123.556 130.3 121.154 133.23 118.666C136.166 116.177 138.469 109.517 136.328 103.808C134.187 98.1 128.397 105.079 128.397 105.079C128.397 105.079 125.862 100.322 121.099 104.284C116.342 108.252 121.813 113.485 125.7 118.08C129.587 122.68 131.646 123.55 131.646 123.55V123.556Z" fill="white" stroke="white" stroke-width="2.32" stroke-linecap="round" stroke-linejoin="round"/>
<path d="M129.349 119.275C129.349 119.275 134.582 115.707 134.031 110.556C133.474 105.398 130.938 104.812 128.641 106.373C128.641 106.373 126.738 105.16 124.835 104.609C122.932 104.052 119.045 106.036 122.776 111.942C126.5 117.854 129.355 119.275 129.355 119.275H129.349Z" fill="#EEC800"/>
<path d="M123.942 102.788C123.942 102.788 128.542 103.571 127.637 108.49C126.732 113.41 117.932 117.215 119.672 123.916C121.418 130.616 147.507 124.983 147.507 124.983" stroke="white" stroke-width="2.32" stroke-linecap="round" stroke-linejoin="round"/>
<path d="M147.507 104.516C147.507 104.516 151.551 110.555 155.357 109.76C159.162 108.972 160.352 106.75 157.103 105.398C153.854 104.052 146.08 110.95 148.934 119.275C151.232 125.302 157.735 120.702 157.103 117.453C156.471 114.198 153.599 114.616 153.251 117.105" stroke="white" stroke-width="2.32" stroke-linecap="round" stroke-linejoin="round"/>
<path d="M162.417 118.642C162.417 118.642 162.736 116.658 160.99 116.896C159.244 117.134 158.449 119.594 159.801 121.415C161.147 123.237 161.779 120.464 162.417 118.642Z" stroke="white" stroke-width="2.32" stroke-linecap="round" stroke-linejoin="round"/>
<path d="M161.703 117.534C161.703 117.534 160.827 120.226 163.055 120.702C165.277 121.178 165.828 120.226 165.991 118.085C166.147 115.945 164.72 116.977 165.358 117.534C165.991 118.085 168.213 118.248 168.213 118.248C168.213 118.248 167.023 121.027 168.688 120.829C170.353 120.632 171.148 117.54 171.148 117.54C171.148 117.54 170.672 121.502 172.575 121.427C174.478 121.346 174.397 118.492 174.397 118.492" stroke="white" stroke-width="2.32" stroke-linecap="round" stroke-linejoin="round"/>
<path d="M175.9 111.263C175.9 111.263 173.127 119.594 174.948 121.415C176.776 123.237 177.884 121.415 177.884 121.415" stroke="white" stroke-width="2.32" stroke-linecap="round" stroke-linejoin="round"/>
<path d="M182.647 119.443C182.647 119.443 183.122 116.937 181.771 116.873C180.419 116.815 177.965 119.356 178.754 121.415C179.543 123.475 182.641 119.443 182.641 119.443H182.647Z" stroke="white" stroke-width="2.32" stroke-linecap="round" stroke-linejoin="round"/>
<path d="M182.722 119.101C182.722 119.101 181.37 122.523 186.609 120.94" stroke="white" stroke-width="2.32" stroke-linecap="round" stroke-linejoin="round"/>
<path d="M192.08 114.599C192.08 114.599 192.399 111.722 190.102 112.563C187.798 113.41 186.371 116.107 189.226 117.372C192.08 118.643 194.487 119.118 192.097 123.162C189.707 127.205 184.318 126.573 184.59 121.416" stroke="white" stroke-width="2.32" stroke-linecap="round" stroke-linejoin="round"/>
<path d="M173.602 116.102H177.565" stroke="white" stroke-width="2.32" stroke-linecap="round" stroke-linejoin="round"/>
<path d="M171.224 113.885C171.224 113.885 170.829 114.518 171.224 114.518" stroke="white" stroke-width="2.32" stroke-linecap="round" stroke-linejoin="round"/>
<path d="M181.846 180.502C178.754 186.529 172.245 192.714 165.509 186.129C158.774 179.545 160.909 171.22 167.65 168.603C174.391 165.987 179.781 167.89 180.338 161.624C180.338 161.624 181.051 162.181 180.419 165.036C180.419 165.036 183.192 159.722 178.122 156.786C178.122 156.786 181.016 155.556 186.133 161.027L183.755 156.664L196.843 166.381C196.843 166.381 187.091 151.867 180.663 150.202C174.24 148.537 172.929 152.22 172.929 152.22C172.929 152.22 177.686 153.294 176.973 155.434C176.259 157.575 173.167 154.959 172.929 152.934C172.929 152.934 172.332 155.313 169.715 156.148C167.099 156.983 168.404 151.629 168.404 151.629C168.404 151.629 166.861 156.27 163.647 159.002C160.439 161.74 159.719 162.686 159.719 162.686C159.719 162.686 161.147 162.808 162.214 164.827C162.214 164.827 163.165 161.972 165.068 161.619C166.971 161.259 163.641 164.235 164.471 164.827H165.66C165.66 164.827 166.495 162.982 168.868 161.584C171.247 160.186 170.417 158.399 170.417 158.399C170.417 158.399 172.715 155.742 176.364 158.915C180.013 162.088 173.875 165.157 174.542 161.613C174.78 160.499 173.428 159.072 173.428 159.072C173.428 159.072 173.428 162.007 170.417 163.753C167.4 165.5 157.648 168.116 158.838 180.484C160.027 192.859 175.569 194.756 179.299 187.939C183.024 181.117 185.008 176.203 188.1 179.846C191.192 183.495 184.056 187.939 184.056 187.939C184.056 187.939 189.371 186.75 190.322 181.355C190.798 177.468 184.927 174.457 181.834 180.484L181.846 180.502ZM165.59 160.278C165.109 160.278 164.714 159.89 164.714 159.408C164.714 158.927 165.109 158.532 165.59 158.532C166.072 158.532 166.461 158.921 166.461 159.408C166.461 159.896 166.072 160.278 165.59 160.278Z" fill="#EEC800"/>
<path d="M178.916 200.168C178.916 200.168 177.408 190.41 182.565 186.767L185.263 189.302C185.263 189.302 180.343 190.335 178.916 200.168Z" fill="#EEC800"/>
<path d="M162.498 164.165C162.498 164.165 162.579 165.274 161.228 166.382C159.882 167.495 159.046 168.209 158.75 169.949C158.75 169.949 160.12 168.598 161.309 168.122C162.498 167.646 162.661 165.987 162.498 164.16V164.165Z" fill="#EEC800"/>
<path d="M73.1155 157.459C73.1155 157.459 73.3533 158.411 71.9262 158.886C71.9262 158.886 73.2373 159.24 71.9262 160.551C70.615 161.862 63.3632 164.479 64.3089 172.328C65.2603 180.183 70.7369 178.988 71.5665 182.202C72.4019 185.416 68.6774 184.105 68.6774 184.105C68.6774 184.105 69.5708 185.891 73.1271 185.77C76.6833 185.654 76.4455 183.629 78.7022 186.483C80.9648 189.337 79.6537 188.27 78.7022 190.886C77.7508 193.503 77.5129 194.57 77.1533 194.57C76.7936 194.57 78.2265 194.57 78.2265 194.57C78.2265 194.57 78.8183 191.954 80.6051 190.411C82.392 188.862 80.843 184.94 82.2701 183.513C83.6973 182.086 83.9351 180.775 83.8133 178.042C83.6915 175.304 87.503 177.329 87.503 177.329C87.503 177.329 89.0462 177.329 89.5219 177.926C89.9976 178.518 89.7598 179.707 90.7112 179.591C91.6626 179.475 96.0659 181.018 88.5705 187.678C88.5705 187.678 96.3038 188.514 97.2552 179.116C97.3771 174.475 91.1869 169.955 91.1869 169.955C91.1869 169.955 98.9202 170.547 99.0363 181.018C98.9144 185.897 95.5844 191.861 95.5844 191.861C95.5844 191.861 100.939 187.684 100.342 178.17C99.744 168.656 89.6379 168.772 89.6379 168.772C89.6379 168.772 91.0651 162.437 95.1087 164.177C99.1523 165.918 99.2741 168.296 99.2741 168.296C99.2741 168.296 99.7499 163.899 96.0601 162.228C94.9869 161.874 92.968 161.514 92.968 161.514C92.968 161.514 93.0898 158.538 97.2494 157.471C97.2494 157.471 94.7548 156.641 92.4922 159.136C92.4922 159.136 93.4437 155.922 97.963 153.781C97.963 153.781 87.3754 158.15 83.9235 164.177C80.4717 170.199 82.1367 171.986 79.996 172.699C77.8552 173.413 76.6659 170.733 73.2141 170.825C69.7622 170.913 76.9038 165.32 77.1417 161.636C77.3795 157.947 73.0981 157.471 73.0981 157.471L73.1155 157.459Z" fill="#EEC800"/>
<path d="M70.1451 158.532C70.1451 158.532 70.6209 155.44 72.7616 154.727C74.0727 154.373 73.8349 152.824 73.8349 152.824C73.8349 152.824 74.6645 154.367 75.6217 153.775C76.5731 153.178 77.0488 151.513 77.0488 151.513C77.0488 151.513 76.811 154.843 77.0488 155.916C77.2867 156.983 75.262 154.489 70.1451 158.532Z" fill="#EEC800"/>
<path d="M61.1994 183.971C61.1994 183.971 59.691 182.619 61.2342 182.66C62.7774 182.701 63.5664 182.37 64.599 182.753C65.6259 183.136 67.1633 183.896 69.0139 184.18C69.0139 184.18 66.7572 184.952 64.7615 184.064C62.7658 183.176 62.3016 182.927 61.1994 183.965V183.971Z" fill="#EEC800"/>
<path d="M77.1649 194.576C76.9676 195.162 76.9851 195.887 76.3295 196.003C75.0184 196.241 75.4941 196.241 76.3295 196.479C77.1649 196.716 75.5173 196.954 75.5173 196.954L77.1591 196.716L76.6428 197.906C76.6428 197.906 78.2324 196.873 78.2324 195.724C78.2324 195.399 78.2846 194.86 78.2324 194.576H77.1591H77.1649Z" fill="#EEC800"/>
</svg>
