<svg width="256" height="256" viewBox="0 0 256 256" fill="none" xmlns="http://www.w3.org/2000/svg">
<path d="M0 222.112V205.531H11.2223V209.148H4.08511V211.919H10.2362V215.536H4.08511V218.448H11.2693V222.065H0V222.112Z" fill="white"/>
<path d="M21.2707 209.148V222.065H17.1856V209.148H13.1005V205.531H25.3089V209.148H21.2238H21.2707Z" fill="white"/>
<path d="M33.6669 222.206C31.8826 222.206 30.427 221.642 29.2062 220.562C27.9853 219.481 27.4219 218.025 27.4219 216.24V205.531H31.507V216.146C31.507 216.898 31.6948 217.509 32.0704 217.931C32.4461 218.354 33.0095 218.589 33.6669 218.589C34.3243 218.589 34.8878 218.401 35.3104 217.978C35.733 217.556 35.9208 216.945 35.9208 216.193V205.578H40.0059V216.287C40.0059 218.072 39.3955 219.481 38.1746 220.562C36.9538 221.642 35.4512 222.206 33.7139 222.206H33.6669Z" fill="white"/>
<path d="M53.6229 220.468C53.0594 221.032 52.402 221.407 51.6508 221.689C50.8995 221.971 50.0543 222.112 49.1621 222.112H43.011V205.531H49.1621C50.0543 205.531 50.8995 205.672 51.6508 205.907C52.402 206.141 53.0594 206.564 53.6229 207.128C54.1863 207.691 54.6089 208.349 54.8907 209.101C55.1724 209.852 55.3133 211.027 55.3133 212.624V215.019C55.3133 216.287 55.2194 217.321 55.0315 218.119C54.8437 218.918 54.3742 219.669 53.6229 220.421V220.468ZM50.8056 210.087C50.6177 209.758 50.336 209.523 50.0543 209.382C49.7725 209.242 49.3499 209.148 48.8804 209.148H47.0961V218.448H48.8804C49.3499 218.448 49.7725 218.354 50.0543 218.213C50.383 218.072 50.6177 217.837 50.8056 217.556C50.9934 217.274 51.1342 216.945 51.1812 216.475C51.2282 216.053 51.2751 215.16 51.2751 213.798C51.2751 212.436 51.2751 211.543 51.1812 211.12C51.1342 210.698 50.9934 210.322 50.8525 210.087H50.8056Z" fill="white"/>
<path d="M58.1306 222.112V205.531H62.2157V222.112H58.1306Z" fill="white"/>
<path d="M74.7527 222.112L74.0014 219.622H68.9303L68.132 222.112H63.9061L69.9163 205.531H73.0623L79.0726 222.112H74.8466H74.7527ZM71.5598 211.825L70.0572 216.24H72.9215L71.5128 211.825H71.5598Z" fill="white"/>
<path d="M90.0602 222.112L84.7542 213.798V222.112H80.6691V205.531H84.2377L89.5437 213.845V205.531H93.6288V222.112H90.0602Z" fill="white"/>
<path d="M104.1 209.148V222.065H100.015V209.148H95.9296V205.531H108.138V209.148H104.053H104.1Z" fill="white"/>
<path d="M115.228 222.206C113.866 222.206 112.646 222.065 111.66 221.736C110.674 221.407 109.781 220.844 108.936 220.045L111.519 217.462C111.941 217.885 112.458 218.166 113.115 218.354C113.773 218.542 114.477 218.636 115.228 218.636C116.825 218.636 117.576 218.119 117.576 217.133C117.576 216.71 117.482 216.428 117.341 216.241C117.2 216.053 117.012 215.959 116.825 215.865C116.637 215.771 116.449 215.724 116.167 215.724L114.148 215.442C112.693 215.207 111.566 214.737 110.814 213.986C110.063 213.234 109.687 212.107 109.687 210.698C109.687 209.148 110.251 207.926 111.331 206.94C112.411 205.954 113.866 205.484 115.745 205.484C116.965 205.484 118.045 205.625 118.891 205.954C119.783 206.235 120.581 206.752 121.285 207.457L118.75 209.993C118.421 209.664 118.045 209.43 117.623 209.289C117.153 209.101 116.59 209.054 115.932 209.054H115.651C114.993 209.054 114.477 209.195 114.148 209.523C113.819 209.852 113.632 210.181 113.632 210.604C113.632 210.792 113.632 210.933 113.726 211.027C113.819 211.121 113.866 211.261 113.96 211.355C114.054 211.449 114.242 211.59 114.383 211.637C114.571 211.731 114.806 211.778 115.087 211.825L117.106 212.107C118.562 212.295 119.595 212.671 120.158 213.234C120.722 213.798 121.098 214.362 121.285 214.972C121.473 215.583 121.567 216.287 121.567 217.086C121.567 218.683 120.957 219.951 119.736 220.891C118.515 221.83 117.012 222.3 115.181 222.3L115.228 222.206Z" fill="white"/>
<path d="M129.456 222.112V205.531H133.541V222.112H129.456Z" fill="white"/>
<path d="M146.219 222.112L140.913 213.798V222.112H136.828V205.531H140.396L145.702 213.845V205.531H149.787V222.112H146.219Z" fill="white"/>
<path d="M157.159 209.148V212.06H163.31V215.677H157.159V222.065H153.074V205.484H164.296V209.101H157.112L157.159 209.148Z" fill="white"/>
<path d="M166.926 222.112V205.531H171.011V222.112H166.926Z" fill="white"/>
<path d="M182.703 222.112L179.792 215.912H178.43V222.112H174.345V205.531H180.872C182.656 205.531 184.018 206.047 185.004 207.081C185.99 208.114 186.506 209.382 186.506 210.839C186.506 211.872 186.225 212.764 185.708 213.516C185.192 214.268 184.534 214.784 183.783 215.16L187.351 222.065H182.656L182.703 222.112ZM180.731 209.195H178.43V212.53H180.731C181.294 212.53 181.717 212.342 181.999 212.013C182.28 211.684 182.468 211.308 182.468 210.839C182.468 210.369 182.327 209.993 181.999 209.664C181.67 209.336 181.247 209.148 180.731 209.148V209.195Z" fill="white"/>
<path d="M200.828 222.112V214.221L198.48 218.26L195.897 218.119L193.55 214.221V222.112H189.464V205.531H193.456L197.165 212.811L200.875 205.531H204.866V222.112H200.781H200.828Z" fill="white"/>
<path d="M208.247 222.112V205.531H212.332V222.112H208.247Z" fill="white"/>
<path d="M215.665 222.112V205.531H226.888V209.148H219.704V211.919H225.855V215.536H219.704V218.448H226.888V222.065H215.665V222.112Z" fill="white"/>
<path d="M238.11 222.112L235.199 215.912H233.837V222.112H229.752V205.531H236.279C238.063 205.531 239.425 206.047 240.411 207.081C241.397 208.114 241.913 209.382 241.913 210.839C241.913 211.872 241.632 212.764 241.115 213.516C240.599 214.268 239.941 214.784 239.19 215.16L242.759 222.065H238.063L238.11 222.112ZM236.138 209.195H233.837V212.53H236.138C236.701 212.53 237.124 212.342 237.406 212.013C237.687 211.684 237.875 211.308 237.875 210.839C237.875 210.369 237.734 209.993 237.406 209.664C237.077 209.336 236.654 209.148 236.138 209.148V209.195Z" fill="white"/>
<path d="M249.614 222.206C248.252 222.206 247.032 222.065 246.045 221.736C245.059 221.407 244.167 220.844 243.322 220.045L245.905 217.462C246.327 217.885 246.844 218.166 247.501 218.354C248.158 218.542 248.863 218.636 249.614 218.636C251.211 218.636 251.962 218.119 251.962 217.133C251.962 216.71 251.868 216.428 251.727 216.241C251.586 216.053 251.398 215.959 251.211 215.865C251.023 215.771 250.835 215.724 250.553 215.724L248.534 215.442C247.079 215.207 245.952 214.737 245.2 213.986C244.449 213.234 244.073 212.107 244.073 210.698C244.073 209.148 244.637 207.926 245.717 206.94C246.797 205.954 248.252 205.484 250.131 205.484C251.351 205.484 252.431 205.625 253.277 205.954C254.169 206.235 254.967 206.752 255.671 207.457L253.136 209.993C252.807 209.664 252.431 209.43 252.009 209.289C251.539 209.101 250.976 209.054 250.318 209.054H250.037C249.379 209.054 248.863 209.195 248.534 209.523C248.205 209.852 248.018 210.181 248.018 210.604C248.018 210.792 248.018 210.933 248.112 211.027C248.205 211.121 248.252 211.261 248.346 211.355C248.44 211.449 248.628 211.59 248.769 211.637C248.957 211.731 249.191 211.778 249.473 211.825L251.492 212.107C252.948 212.295 253.981 212.671 254.544 213.234C255.108 213.798 255.483 214.362 255.671 214.972C255.859 215.583 255.953 216.287 255.953 217.086C255.953 218.683 255.343 219.951 254.122 220.891C252.901 221.83 251.398 222.3 249.567 222.3L249.614 222.206Z" fill="white"/>
<path d="M40.2407 231.553H41.6963L44.6545 238.505L47.5657 231.553H49.0682V242.216H47.5187V235.546L45.3588 240.666H44.044L41.8841 235.546V242.216H40.3346V231.553H40.2407Z" fill="white"/>
<path d="M55.4072 236.908C55.4072 235.687 55.4072 234.841 55.5011 234.419C55.595 233.996 55.689 233.667 55.8298 233.385C56.0646 232.916 56.4872 232.446 57.0507 232.07C57.6141 231.694 58.2715 231.459 59.0697 231.459C59.9149 231.459 60.5723 231.647 61.1358 232.07C61.6992 232.446 62.0749 232.916 62.3096 233.385C62.4975 233.667 62.5914 233.996 62.6853 234.419C62.7322 234.841 62.7792 235.687 62.7792 236.908C62.7792 238.13 62.7792 238.975 62.6853 239.398C62.6383 239.821 62.4975 240.149 62.3096 240.431C62.0749 240.948 61.6992 241.371 61.1358 241.746C60.5723 242.122 59.9149 242.357 59.0697 242.357C58.2715 242.357 57.5672 242.122 57.0507 241.746C56.4872 241.371 56.1116 240.948 55.8298 240.431C55.7359 240.29 55.689 240.102 55.642 239.961C55.595 239.821 55.5481 239.633 55.5011 239.398C55.4072 238.975 55.4072 238.13 55.4072 236.908ZM56.9567 236.908C56.9567 237.942 56.9567 238.693 57.0507 239.022C57.0976 239.398 57.2385 239.68 57.4733 239.914C57.6611 240.149 57.8489 240.29 58.1306 240.431C58.4124 240.572 58.6941 240.666 59.0697 240.666C59.4454 240.666 59.7741 240.572 60.0558 240.431C60.3375 240.29 60.5253 240.102 60.6662 239.914C60.854 239.68 60.9949 239.398 61.0888 239.022C61.1827 238.646 61.1827 237.942 61.1827 236.908C61.1827 235.875 61.1827 235.123 61.0888 234.748C60.9949 234.372 60.854 234.09 60.6662 233.855C60.5253 233.62 60.2906 233.432 60.0558 233.291C59.7741 233.15 59.4454 233.057 59.0697 233.057C58.6941 233.057 58.3654 233.15 58.1306 233.291C57.8489 233.432 57.6611 233.62 57.4733 233.855C57.2854 234.09 57.1446 234.372 57.0507 234.748C56.9567 235.123 56.9567 235.828 56.9567 236.908Z" fill="white"/>
<path d="M69.0712 231.553H70.5268L75.2223 239.163V231.553H76.7718V242.216H75.2693L70.5738 234.606V242.216H69.0242V231.553H69.0712Z" fill="white"/>
<path d="M85.2238 233.009H82.4065V231.553H89.6376V233.009H86.8203V242.263H85.2708V233.009H85.2238Z" fill="white"/>
<path d="M92.8775 237.331H97.2443V238.834H92.8775V237.331Z" fill="white"/>
<path d="M103.442 231.553H107.058C108.467 231.553 109.5 232.164 110.204 233.338C110.439 233.761 110.627 234.137 110.674 234.606C110.72 235.029 110.767 235.828 110.767 236.908C110.767 238.035 110.767 238.834 110.627 239.304C110.627 239.538 110.533 239.726 110.439 239.914C110.345 240.102 110.251 240.29 110.157 240.478C109.875 240.995 109.453 241.417 108.889 241.746C108.373 242.075 107.715 242.263 106.917 242.263H103.395V231.6L103.442 231.553ZM105.039 240.713H106.917C107.809 240.713 108.42 240.384 108.842 239.773C109.03 239.538 109.124 239.257 109.171 238.881C109.171 238.552 109.218 237.894 109.218 236.908C109.218 235.922 109.218 235.311 109.171 234.888C109.124 234.465 108.983 234.184 108.748 233.902C108.326 233.291 107.715 232.962 106.917 233.009H105.039V240.666V240.713Z" fill="white"/>
<path d="M117.059 231.553H123.68V233.056H118.656V236.11H122.976V237.566H118.656V240.713H123.68V242.216H117.059V231.553Z" fill="white"/>
<path d="M129.221 237.331H133.588V238.834H129.221V237.331Z" fill="white"/>
<path d="M139.833 231.553H141.288L144.247 238.505L147.158 231.553H148.66V242.216H147.111V235.546L144.951 240.666H143.636L141.476 235.546V242.216H139.927V231.553H139.833Z" fill="white"/>
<path d="M160.634 239.868H156.69L155.891 242.263H154.248L158.004 231.601H159.319L163.076 242.263H161.432L160.634 239.868ZM160.164 238.412L158.662 233.761L157.159 238.412H160.164Z" fill="white"/>
<path d="M168.616 231.553H172.654C173.5 231.553 174.204 231.788 174.767 232.258C175.425 232.775 175.753 233.573 175.8 234.559C175.8 236.016 175.096 237.002 173.781 237.519L176.176 242.263H174.298L172.138 237.707H170.119V242.263H168.569V231.6L168.616 231.553ZM170.213 236.25H172.607C173.218 236.25 173.64 236.063 173.922 235.734C174.204 235.405 174.345 235.029 174.345 234.559C174.345 233.996 174.157 233.62 173.828 233.338C173.547 233.103 173.171 233.009 172.654 233.009H170.213V236.25Z" fill="white"/>
<path d="M182.046 239.633C182.891 240.337 183.83 240.666 185.004 240.713C186.365 240.713 187.023 240.196 187.07 239.21C187.07 238.411 186.647 237.942 185.708 237.754C185.285 237.707 184.816 237.613 184.346 237.566C183.454 237.425 182.797 237.096 182.327 236.532C181.858 235.969 181.623 235.311 181.623 234.56C181.623 233.62 181.905 232.869 182.515 232.305C183.079 231.741 183.924 231.459 185.004 231.459C186.271 231.459 187.398 231.835 188.338 232.54L187.445 233.855C186.647 233.338 185.802 233.057 184.863 233.01C184.393 233.01 183.971 233.15 183.642 233.385C183.313 233.667 183.125 234.043 183.125 234.56C183.125 234.888 183.219 235.123 183.454 235.405C183.689 235.64 184.065 235.828 184.581 235.922C184.863 235.969 185.238 236.016 185.755 236.11C186.741 236.251 187.445 236.626 187.915 237.19C188.384 237.754 188.619 238.411 188.619 239.163C188.572 241.23 187.351 242.263 185.004 242.263C183.454 242.263 182.139 241.793 181.059 240.807L182.092 239.586L182.046 239.633Z" fill="white"/>
<path d="M199.982 239.868H196.038L195.24 242.263H193.596L197.353 231.601H198.668L202.424 242.263H200.781L199.982 239.868ZM199.56 238.412L198.057 233.761L196.555 238.412H199.56Z" fill="white"/>
<path d="M208.012 231.553H209.467L214.163 239.163V231.553H215.712V242.216H214.21L209.514 234.606V242.216H207.965V231.553H208.012Z" fill="white"/>
<path d="M146.782 43.9466L132.038 66.7751C135.607 72.5996 138.847 78.2363 141.57 83.3563C141.664 83.4972 141.711 83.6381 141.805 83.826C141.946 84.0609 142.04 84.2957 142.18 84.5306C142.18 84.6245 142.274 84.6715 142.274 84.7654L142.368 85.0003C142.368 85.0003 142.462 85.1412 142.462 85.1882C142.509 85.3291 142.603 85.47 142.65 85.564C142.65 85.6579 142.744 85.7519 142.791 85.7988C142.979 86.2216 143.213 86.5974 143.354 86.9262C143.354 86.9731 143.401 87.0671 143.448 87.114C143.495 87.255 143.589 87.3489 143.636 87.4898C143.73 87.6307 143.777 87.8186 143.871 87.9595L144.059 88.2883C144.622 89.4157 145.045 90.2612 145.326 90.9658C145.326 91.0597 145.42 91.1536 145.42 91.2006L167.348 57.1928L177.068 63.487C177.726 63.9098 178.618 63.7219 179.087 63.0643L179.792 61.937C180.214 61.2794 180.026 60.3869 179.369 59.9172L165.611 51.0394L179.51 29.4792L183.548 32.0627C184.205 32.4854 185.098 32.2975 185.567 31.6399L186.271 30.5126C186.694 29.855 186.506 28.9625 185.849 28.4928L165.282 15.2936C164.625 14.8709 163.733 15.0587 163.263 15.7164L162.559 16.8437C162.136 17.5013 162.324 18.3938 162.982 18.8635L167.02 21.447L153.121 43.0072L139.363 34.1294C138.706 33.7067 137.814 33.8946 137.344 34.5522L136.64 35.6795C136.217 36.3371 136.405 37.2296 137.062 37.6993L146.782 43.9936V43.9466Z" fill="white"/>
<path d="M70.292 31.7808C70.7146 32.4384 71.6068 32.6263 72.3111 32.2036L76.3492 29.6201L90.248 51.1803L76.4901 60.0581C75.8327 60.4808 75.6449 61.3733 76.0675 62.0779L76.7718 63.2052C77.1944 63.8628 78.0866 64.0507 78.7909 63.628L88.5107 57.3337L110.486 91.3415C110.674 90.9188 110.861 90.496 111.096 90.0733C111.425 89.4157 111.754 88.7111 112.082 88.0535C112.082 88.0535 112.082 88.0535 112.082 88.0065C112.552 87.0671 113.115 85.9867 113.726 84.8594C114.007 84.2957 114.336 83.6851 114.665 83.1214C114.806 82.8396 114.993 82.5108 115.134 82.2289C115.134 82.135 115.228 82.041 115.275 81.9941L115.416 81.7592C115.557 81.4774 115.745 81.1955 115.886 80.8667V80.7728C115.886 80.7728 116.026 80.491 116.073 80.397C116.355 79.9273 116.59 79.4576 116.825 79.0348V78.9409C117.435 77.8605 117.999 76.8741 118.468 76.0756C118.797 75.5119 119.125 74.9482 119.501 74.3376C119.501 74.2906 119.595 74.1967 119.595 74.1497C119.595 74.0558 119.689 74.0088 119.736 73.9149L120.112 73.3042C120.252 73.0224 120.44 72.7406 120.628 72.4118C120.957 71.8951 121.285 71.3314 121.661 70.7208C122.084 69.9692 122.6 69.1707 123.117 68.3252C123.304 68.0433 123.492 67.7145 123.727 67.3388C123.821 67.1978 123.868 67.1039 123.962 66.963L109.124 43.9936L118.844 37.6993C119.501 37.2766 119.689 36.3841 119.266 35.6795L118.562 34.5522C118.139 33.8946 117.247 33.7067 116.543 34.1294L102.785 43.0072L88.8863 21.447L92.9244 18.8635C93.5818 18.4407 93.7696 17.5483 93.347 16.8437L92.6427 15.7164C92.2201 15.0587 91.328 14.8709 90.6236 15.2936L69.9164 28.6807C69.259 29.1034 69.0712 29.9959 69.4938 30.7005L70.1981 31.8278L70.292 31.7808Z" fill="white"/>
<path d="M168.147 156.445C169.039 155.458 169.18 154.002 168.428 152.828L163.31 144.89C167.442 141.696 168.522 135.777 165.611 131.315L150.257 107.547C150.257 107.829 150.257 108.111 150.21 108.298C150.21 108.721 150.116 109.144 150.022 109.614C150.022 109.661 150.022 109.755 150.022 109.802C150.022 109.802 150.022 109.755 150.022 109.708C150.022 109.755 150.022 109.849 150.022 109.895C149.928 110.459 149.787 111.164 149.599 111.68C149.412 112.338 149.224 112.949 148.989 113.559C148.848 113.982 148.707 114.264 148.519 114.687C148.519 114.781 148.473 114.828 148.426 114.922C148.426 114.922 148.426 114.922 148.426 114.968C148.285 115.297 148.144 115.579 147.956 115.861C147.956 115.908 147.909 115.955 147.862 116.049C147.721 116.284 147.58 116.519 147.486 116.706C147.486 116.706 147.486 116.753 147.439 116.8C146.97 117.552 146.641 118.022 146.641 118.022C146.547 118.163 146.406 118.304 146.313 118.491L145.655 119.337C145.655 119.337 145.655 119.337 145.608 119.384C145.514 119.478 145.467 119.572 145.373 119.666C145.045 120.041 144.669 120.464 144.34 120.793C144.012 121.122 143.542 121.592 143.214 121.873C143.073 122.014 142.885 122.155 142.744 122.249C142.368 122.578 141.946 122.907 141.523 123.236C141.523 123.236 141.335 123.376 141.054 123.564C140.866 123.705 140.631 123.846 140.443 123.987C140.443 123.987 140.349 123.987 140.349 124.034C140.114 124.175 139.88 124.316 139.645 124.457C139.551 124.504 139.457 124.551 139.316 124.645C139.035 124.786 138.706 124.974 138.424 125.114C138.236 125.208 138.048 125.302 137.861 125.396C137.72 125.443 137.579 125.537 137.438 125.584C137.297 125.631 137.109 125.725 136.922 125.772H136.781C136.781 125.772 136.64 125.866 136.593 125.913C136.499 125.913 136.358 126.007 136.264 126.054C136.217 126.054 136.123 126.101 136.076 126.148C135.935 126.195 135.419 126.383 134.621 126.618C134.386 126.665 134.104 126.758 133.776 126.852L145.186 144.514C148.097 148.976 153.872 150.432 158.521 147.99L163.639 155.928C164.39 157.103 165.799 157.525 167.067 157.149L185.285 185.333L186.929 184.91L168.428 156.304L168.147 156.445Z" fill="white"/>
<path d="M121.943 126.853H121.802C121.802 126.853 121.708 126.806 121.661 126.759C121.426 126.665 121.145 126.618 120.91 126.524C120.863 126.524 120.769 126.524 120.722 126.477L120.487 126.383C120.393 126.383 120.299 126.336 120.205 126.289C120.112 126.289 120.018 126.195 119.924 126.195H119.783L119.595 126.101H119.454C119.454 126.101 119.172 125.96 119.078 125.913C118.985 125.913 118.844 125.819 118.75 125.772C118.703 125.772 118.656 125.772 118.609 125.725H118.468V125.678C118.327 125.631 118.186 125.537 118.045 125.49C117.952 125.443 117.858 125.396 117.764 125.35C117.529 125.256 117.294 125.115 117.059 124.974C116.919 124.927 116.825 124.833 116.731 124.786C116.731 124.786 116.684 124.786 116.637 124.786C116.543 124.739 116.402 124.645 116.308 124.598C116.261 124.598 116.214 124.551 116.12 124.504C115.979 124.41 115.886 124.363 115.792 124.269C115.792 124.269 115.745 124.269 115.698 124.222C115.604 124.175 115.51 124.081 115.369 124.034C115.181 123.893 114.946 123.752 114.759 123.612C110.298 120.464 107.105 115.72 106.119 110.131V109.943V109.896C106.119 109.661 106.072 109.426 106.025 109.238C106.025 108.956 105.978 108.674 105.931 108.393C105.931 108.393 105.931 108.346 105.931 108.299C105.931 108.299 105.931 108.205 105.931 108.158C105.931 108.158 105.931 107.829 105.931 107.688L90.5767 131.503C87.6654 135.965 88.7454 141.884 92.8775 145.078L87.7593 153.016C87.0081 154.19 87.1959 155.647 88.0411 156.633L69.5407 185.239L71.1841 185.662L89.4028 157.478C90.6706 157.854 92.0792 157.432 92.8305 156.257L97.9486 148.319C102.597 150.761 108.373 149.305 111.284 144.843L122.741 127.134C122.741 127.134 122.365 127.087 122.178 127.041L121.943 126.853Z" fill="white"/>
<path d="M120.628 109.567V104.682L129.08 95.4753C129.878 94.6298 130.254 93.7843 130.254 92.9858C130.254 91.5296 129.55 90.825 128.141 90.825C127.53 90.825 127.014 91.0129 126.591 91.3417C126.169 91.6705 125.981 92.2812 125.981 93.0797H120.581C120.581 90.872 121.285 89.134 122.741 87.8658C124.197 86.5976 125.981 85.9399 128.141 85.9399C130.301 85.9399 132.132 86.5976 133.541 87.8658C134.949 89.134 135.607 90.872 135.607 93.0327C135.607 94.207 135.372 95.1465 134.949 95.945C134.527 96.6966 133.775 97.683 132.696 98.8103L127.108 104.729H135.56V109.567H120.534H120.628Z" fill="white"/>
<path d="M21.7872 112.432V89.416C21.7872 88.0538 22.2568 86.7386 23.055 85.6582C23.1959 85.4703 23.3837 85.2355 23.5715 85.0476C24.2758 84.249 26.7645 81.4777 30.8026 80.7261C37.0477 79.6458 41.5554 84.39 41.8371 84.6718C42.1658 85.0476 42.4475 85.3764 42.7292 85.7522C43.4805 86.7855 43.8562 88.0068 43.8562 89.2751V123.236L57.4732 129.906V88.8053C57.4732 87.8659 57.661 86.8795 58.1306 86.034C58.1775 85.94 58.2245 85.8461 58.3184 85.7052C60.1027 82.8399 63.4835 81.0549 66.1599 80.5852C70.245 79.7867 74.7997 81.8065 77.9926 85.7052C78.8848 86.7855 79.3543 88.1477 79.3543 89.5569V126.477L92.5488 108.017V91.5767C92.5488 87.8659 91.6097 84.1551 89.7784 80.961C89.2619 80.0216 88.6515 79.0821 87.9472 78.1427C82.876 71.1438 73.7667 67.0572 65.5025 68.2785C59.0697 69.218 53.5759 73.3045 52.3551 74.197C51.8855 74.5258 51.5099 74.8546 51.1812 75.1364C50.8525 75.4183 50.336 75.4183 50.0073 75.1364C41.2267 68.0906 30.0983 66.1648 21.975 70.1574C18.1717 72.0363 13.57 75.935 10.7058 81.5247C10.0953 82.699 9.76666 83.7324 9.48493 84.7657C9.06233 86.4567 8.87451 88.1477 8.87451 89.8857V106.091L21.8342 112.432H21.7872Z" fill="white"/>
<path d="M234.213 112.432V89.416C234.213 88.0538 233.743 86.7386 232.945 85.6582C232.804 85.4703 232.616 85.2355 232.428 85.0476C231.724 84.249 229.235 81.4777 225.197 80.7261C218.952 79.6458 214.445 84.39 214.163 84.6718C213.834 85.0476 213.552 85.3764 213.271 85.7522C212.519 86.7855 212.144 88.0068 212.144 89.2751V123.236L198.527 129.906V88.8053C198.527 87.8659 198.339 86.8795 197.869 86.034C197.822 85.94 197.775 85.8461 197.682 85.7052C195.897 82.8399 192.516 81.0549 189.84 80.5852C185.755 79.7867 181.2 81.8065 178.007 85.7052C177.115 86.7855 176.646 88.1477 176.646 89.5569V126.477L163.451 108.017V91.5767C163.451 87.8659 164.39 84.1551 166.222 80.961C166.738 80.0216 167.348 79.0821 168.053 78.1427C173.124 71.1438 182.233 67.0572 190.497 68.2785C196.93 69.218 202.424 73.3045 203.645 74.197C204.114 74.5258 204.49 74.8546 204.819 75.1364C205.147 75.4183 205.664 75.4183 205.993 75.1364C214.773 68.0906 225.902 66.1648 234.025 70.1574C237.828 72.0363 242.43 75.935 245.294 81.5247C245.905 82.699 246.233 83.7324 246.515 84.7657C246.938 86.4567 247.125 88.1477 247.125 89.8857V106.091L234.166 112.432H234.213Z" fill="white"/>
</svg>
