<svg width="256" height="256" viewBox="0 0 256 256" fill="none" xmlns="http://www.w3.org/2000/svg">
<path d="M34.837 164.948C43.3576 174.386 54.3235 176.306 66.2638 174.911C73.1892 174.099 79.551 171.482 85.7886 168.406C91.5486 165.569 97.834 164.633 104.244 164.633C152.845 164.633 255.675 164.614 255.675 164.614C255.675 164.614 255.713 176.583 255.675 180.404C255.675 186.106 251.902 187.043 246.944 187.129H54.6292C28.4274 186.708 4.25069 167.9 1.39458 140.036C-1.15587 115.21 7.4698 94.7774 27.157 79.427C45.3922 65.2037 72.4441 65.347 91.3767 79.1595C93.9558 81.0413 97.0985 83.5058 99.582 85.464L100.279 78.9589L112.831 82.3118L111.341 87.7088C109.459 94.6246 107.778 101.588 105.839 108.485C104.578 112.974 101.426 115.687 96.8692 116.614C94.357 117.12 92.9719 117.158 92.9719 117.158C93.1438 113.796 92.9623 106.546 92.3605 103.174C88.5683 81.7769 61.4591 75.673 46.3856 89.1703C42.9182 92.2748 40.9504 94.3763 37.5689 99.9452C35.8877 103.222 33.5856 108.934 33.2704 109.765C27.3098 125.603 25.1892 141.622 30.9683 158.004C33.0985 162.531 34.1683 164.251 34.8465 164.977L34.837 164.948Z" fill="#E63514"/>
<path d="M118.199 172.36H117.053V179.267H121.466V178.216H118.199V172.36Z" fill="white"/>
<path d="M123.912 177.079C123.835 177.289 123.768 177.499 123.702 177.729C123.635 177.499 123.558 177.28 123.482 177.07L122.45 174.194H121.285L123.167 179.152C123.138 179.219 123.119 179.267 123.109 179.305C122.966 179.716 122.899 179.84 122.87 179.887C122.813 179.983 122.737 180.05 122.651 180.098C122.498 180.184 122.24 180.203 121.848 180.098L121.657 180.05L121.782 181.091L121.858 181.12C122.068 181.187 122.259 181.225 122.431 181.225C122.718 181.225 122.966 181.158 123.176 181.015C123.377 180.871 123.558 180.661 123.721 180.375C123.835 180.164 123.988 179.792 124.189 179.267L126.09 174.194H124.991L123.931 177.089L123.912 177.079Z" fill="white"/>
<path d="M129.576 177.356C129.528 177.729 129.404 178.006 129.213 178.187C129.022 178.359 128.793 178.445 128.506 178.445C128.143 178.445 127.866 178.321 127.637 178.054C127.408 177.786 127.293 177.347 127.293 176.726C127.293 176.105 127.408 175.685 127.647 175.417C127.876 175.15 128.172 175.026 128.544 175.026C128.783 175.026 128.984 175.093 129.156 175.236C129.318 175.379 129.442 175.599 129.509 175.895L129.538 176.019L130.589 175.857L130.56 175.723C130.455 175.207 130.226 174.796 129.872 174.519C129.519 174.233 129.06 174.099 128.506 174.099C128.076 174.099 127.666 174.204 127.293 174.405C126.921 174.615 126.634 174.93 126.453 175.341C126.271 175.742 126.185 176.22 126.185 176.755C126.185 177.586 126.395 178.245 126.825 178.694C127.255 179.152 127.818 179.382 128.516 179.382C129.07 179.382 129.547 179.21 129.93 178.875C130.312 178.55 130.55 178.082 130.646 177.5L130.665 177.366L129.595 177.223L129.576 177.356Z" fill="white"/>
<path d="M134.658 172.322H133.225L132.499 173.86H133.445L134.658 172.322Z" fill="white"/>
<path d="M134.381 177.538C134.266 177.853 134.113 178.092 133.922 178.226C133.731 178.369 133.502 178.436 133.235 178.436C132.872 178.436 132.566 178.312 132.327 178.054C132.107 177.825 131.974 177.49 131.926 177.07H135.498V176.936C135.498 176.841 135.498 176.764 135.498 176.716C135.498 175.895 135.279 175.236 134.849 174.777C134.419 174.309 133.855 174.08 133.177 174.08C132.499 174.08 131.897 174.319 131.458 174.796C131.018 175.265 130.799 175.933 130.799 176.774C130.799 177.614 131.018 178.235 131.458 178.684C131.897 179.143 132.489 179.382 133.225 179.382C133.808 179.382 134.304 179.238 134.686 178.942C135.069 178.656 135.336 178.245 135.47 177.729L135.508 177.576L134.409 177.442L134.371 177.538H134.381ZM134.371 176.134H131.983C132.031 175.809 132.146 175.561 132.356 175.36C132.585 175.14 132.872 175.026 133.206 175.026C133.578 175.026 133.884 175.159 134.113 175.446C134.247 175.599 134.333 175.838 134.371 176.134Z" fill="white"/>
<path d="M139.549 177.538C139.434 177.853 139.281 178.092 139.09 178.225C138.899 178.369 138.67 178.436 138.402 178.436C138.039 178.436 137.734 178.311 137.495 178.054C137.275 177.824 137.141 177.49 137.094 177.07H140.666V176.869C140.666 176.802 140.666 176.754 140.666 176.726C140.666 175.904 140.447 175.245 140.017 174.787C139.587 174.319 139.023 174.089 138.345 174.089C137.667 174.089 137.065 174.328 136.626 174.806C136.186 175.274 135.967 175.942 135.967 176.783C135.967 177.624 136.186 178.245 136.626 178.694C137.065 179.152 137.657 179.391 138.393 179.391C138.976 179.391 139.472 179.248 139.854 178.951C140.236 178.665 140.504 178.254 140.638 177.738L140.676 177.585L139.577 177.452L139.539 177.547L139.549 177.538ZM137.132 176.134C137.18 175.809 137.294 175.56 137.504 175.36C137.734 175.131 138.011 175.025 138.355 175.025C138.727 175.025 139.023 175.159 139.262 175.446C139.396 175.599 139.482 175.837 139.52 176.134H137.132Z" fill="white"/>
<path d="M147.19 176.659H149.139V177.7C148.967 177.843 148.719 177.977 148.394 178.111C147.649 178.407 146.837 178.388 146.149 178.044C145.777 177.863 145.509 177.586 145.318 177.213C145.127 176.84 145.032 176.363 145.032 175.79C145.032 175.331 145.118 174.892 145.27 174.51C145.366 174.28 145.5 174.07 145.662 173.889C145.824 173.707 146.044 173.554 146.321 173.44C146.608 173.325 146.923 173.268 147.315 173.268C147.63 173.268 147.916 173.325 148.174 173.43C148.432 173.535 148.623 173.679 148.757 173.851C148.891 174.032 149.015 174.28 149.11 174.605L149.149 174.729L150.199 174.443L150.171 174.319C150.047 173.86 149.875 173.469 149.645 173.182C149.416 172.886 149.091 172.657 148.681 172.494C148.279 172.332 147.821 172.255 147.324 172.255C146.646 172.255 146.035 172.399 145.509 172.676C144.974 172.962 144.564 173.402 144.287 173.984C144.009 174.557 143.866 175.188 143.866 175.857C143.866 176.525 144.009 177.146 144.287 177.691C144.573 178.245 144.993 178.665 145.547 178.961C146.101 179.248 146.722 179.4 147.391 179.4C147.888 179.4 148.375 179.314 148.852 179.133C149.33 178.951 149.789 178.684 150.228 178.34L150.276 178.302V175.637H147.2V176.688L147.19 176.659Z" fill="white"/>
<path d="M154.507 177.538C154.393 177.853 154.24 178.092 154.049 178.226C153.858 178.369 153.629 178.436 153.361 178.436C152.998 178.436 152.693 178.312 152.454 178.054C152.234 177.825 152.1 177.49 152.053 177.07H155.625V176.716C155.625 175.895 155.415 175.236 154.985 174.777C154.555 174.309 153.992 174.08 153.313 174.08C152.635 174.08 152.033 174.319 151.594 174.796C151.155 175.265 150.935 175.933 150.935 176.774C150.935 177.614 151.155 178.235 151.594 178.684C152.033 179.143 152.626 179.382 153.361 179.382C153.944 179.382 154.441 179.238 154.823 178.942C155.205 178.656 155.472 178.245 155.606 177.729L155.644 177.576L154.546 177.442L154.507 177.538ZM152.1 176.134C152.148 175.809 152.263 175.561 152.473 175.36C152.702 175.131 152.979 175.026 153.323 175.026C153.696 175.026 153.992 175.159 154.23 175.446C154.364 175.599 154.45 175.838 154.488 176.134H152.1Z" fill="white"/>
<path d="M154.775 172.322H153.342L152.616 173.86H153.571L154.775 172.322Z" fill="white"/>
<path d="M160.21 174.701C160.076 174.51 159.876 174.357 159.608 174.242C159.35 174.128 159.064 174.08 158.758 174.08C158.185 174.08 157.717 174.262 157.364 174.625V174.185H156.361V179.267H157.44V176.506C157.44 175.933 157.555 175.542 157.774 175.351C158.004 175.15 158.271 175.054 158.586 175.054C158.777 175.054 158.949 175.102 159.083 175.179C159.217 175.265 159.312 175.37 159.37 175.503C159.427 175.656 159.456 175.885 159.456 176.201V179.257H160.535V176.162C160.535 175.771 160.516 175.503 160.487 175.341C160.439 175.093 160.344 174.873 160.21 174.691V174.701Z" fill="white"/>
<path d="M165.091 172.322H163.668L162.942 173.86H163.888L165.091 172.322Z" fill="white"/>
<path d="M164.824 177.538C164.709 177.853 164.556 178.092 164.365 178.226C164.174 178.369 163.945 178.436 163.678 178.436C163.315 178.436 163.009 178.312 162.77 178.054C162.55 177.825 162.417 177.49 162.369 177.07H165.941V176.936C165.941 176.841 165.941 176.764 165.941 176.716C165.941 175.895 165.722 175.236 165.292 174.777C164.862 174.309 164.298 174.08 163.62 174.08C162.942 174.08 162.34 174.319 161.901 174.796C161.461 175.265 161.242 175.933 161.242 176.774C161.242 177.614 161.461 178.235 161.901 178.684C162.34 179.143 162.932 179.382 163.668 179.382C164.251 179.382 164.747 179.238 165.129 178.942C165.512 178.656 165.779 178.245 165.913 177.729L165.951 177.576L164.852 177.442L164.814 177.538H164.824ZM162.417 176.134C162.464 175.809 162.579 175.561 162.789 175.36C163.018 175.131 163.295 175.026 163.639 175.026C164.012 175.026 164.308 175.159 164.547 175.446C164.68 175.599 164.766 175.838 164.805 176.134H162.417Z" fill="white"/>
<path d="M169.495 174.367C168.97 174.042 168.416 173.975 167.986 174.271C167.881 174.338 167.785 174.443 167.67 174.596V174.195H166.667V179.276H167.747V176.621C167.747 176.296 167.795 175.99 167.881 175.713C167.928 175.551 168.014 175.427 168.139 175.331C168.396 175.131 168.731 175.159 169.065 175.36L169.199 175.446L169.571 174.433L169.476 174.376L169.495 174.367Z" fill="white"/>
<path d="M173.984 178.531C173.946 178.34 173.937 177.863 173.937 177.118V176.029C173.937 175.647 173.927 175.398 173.899 175.245C173.841 174.997 173.755 174.796 173.621 174.634C173.478 174.472 173.268 174.338 173.001 174.233C172.733 174.128 172.38 174.08 171.95 174.08C171.52 174.08 171.138 174.137 170.813 174.262C170.479 174.386 170.211 174.558 170.03 174.787C169.848 175.016 169.724 175.312 169.648 175.666L169.619 175.809L170.679 175.952L170.708 175.838C170.784 175.522 170.909 175.312 171.061 175.198C171.214 175.083 171.482 175.026 171.835 175.026C172.208 175.026 172.494 175.112 172.676 175.265C172.8 175.37 172.867 175.57 172.867 175.866C172.867 175.885 172.867 175.924 172.867 175.981C172.561 176.077 172.112 176.162 171.53 176.229C171.195 176.268 170.947 176.315 170.784 176.354C170.555 176.42 170.345 176.516 170.164 176.64C169.973 176.774 169.81 176.946 169.696 177.156C169.581 177.366 169.514 177.605 169.514 177.863C169.514 178.302 169.667 178.665 169.982 178.952C170.288 179.229 170.727 179.372 171.291 179.372C171.625 179.372 171.94 179.315 172.236 179.2C172.475 179.114 172.714 178.971 172.962 178.78C172.991 178.933 173.039 179.066 173.106 179.181L173.144 179.257H174.3L174.195 179.057C174.099 178.885 174.032 178.703 174.004 178.522L173.984 178.531ZM172.848 176.908V177.013C172.848 177.347 172.81 177.605 172.724 177.767C172.628 177.977 172.466 178.149 172.236 178.274C172.007 178.398 171.759 178.465 171.463 178.465C171.167 178.465 170.966 178.398 170.832 178.283C170.699 178.168 170.632 178.016 170.632 177.844C170.632 177.729 170.66 177.624 170.718 177.528C170.784 177.433 170.861 177.366 170.985 177.309C171.109 177.251 171.339 177.204 171.663 177.156C172.15 177.089 172.542 177.003 172.838 176.908H172.848Z" fill="white"/>
<path d="M176 172.36H174.921V179.267H176V172.36Z" fill="white"/>
<path d="M184.196 177.614C184.425 177.242 184.607 176.783 184.75 176.22L184.788 176.086L183.67 175.847L183.642 175.981C183.584 176.239 183.518 176.478 183.422 176.678L182.457 175.455C183.241 174.997 183.642 174.443 183.642 173.793C183.642 173.363 183.479 173.001 183.174 172.695C182.858 172.389 182.457 172.236 181.97 172.236C181.483 172.236 181.034 172.399 180.7 172.714C180.365 173.039 180.193 173.421 180.193 173.851C180.193 174.07 180.251 174.3 180.356 174.529C180.451 174.729 180.614 174.978 180.862 175.264C180.394 175.503 180.031 175.79 179.783 176.095C179.496 176.449 179.353 176.85 179.353 177.289C179.353 177.777 179.525 178.235 179.869 178.636C180.289 179.123 180.872 179.372 181.588 179.372C181.97 179.372 182.343 179.295 182.677 179.133C182.973 178.99 183.241 178.799 183.498 178.541C183.823 178.913 184.138 179.19 184.454 179.391L184.549 179.458L185.266 178.608L185.151 178.522C184.798 178.273 184.482 177.968 184.196 177.605V177.614ZM181.301 173.784C181.301 173.612 181.359 173.478 181.473 173.363C181.598 173.249 181.75 173.192 181.932 173.192C182.113 173.192 182.257 173.249 182.371 173.363C182.495 173.478 182.553 173.631 182.553 173.822C182.553 173.984 182.505 174.137 182.419 174.271C182.362 174.357 182.218 174.51 181.875 174.72L181.588 174.386C181.492 174.271 181.416 174.156 181.368 174.051C181.321 173.956 181.301 173.87 181.301 173.784ZM180.709 176.659C180.843 176.468 181.091 176.258 181.464 176.029L182.82 177.71C182.677 177.901 182.505 178.054 182.295 178.178C182.056 178.321 181.827 178.388 181.607 178.388C181.254 178.388 180.996 178.264 180.805 178.006C180.604 177.738 180.509 177.49 180.509 177.242C180.509 177.051 180.575 176.85 180.709 176.649V176.659Z" fill="white"/>
<path d="M193.309 172.36H187.778V173.411H189.965V179.267H191.112V173.411H193.309V172.36Z" fill="white"/>
<path d="M196.117 177.538C196.002 177.853 195.85 178.092 195.658 178.225C195.467 178.369 195.238 178.436 194.971 178.436C194.608 178.436 194.302 178.311 194.063 178.054C193.844 177.824 193.71 177.49 193.662 177.07H197.235V176.869C197.235 176.802 197.235 176.754 197.235 176.726C197.235 175.904 197.015 175.245 196.585 174.787C196.155 174.319 195.592 174.089 194.913 174.089C194.235 174.089 193.633 174.328 193.194 174.806C192.755 175.274 192.535 175.942 192.535 176.783C192.535 177.624 192.755 178.245 193.194 178.694C193.633 179.152 194.226 179.391 194.961 179.391C195.553 179.391 196.041 179.248 196.423 178.951C196.805 178.665 197.072 178.254 197.206 177.729L197.244 177.585L196.146 177.452L196.107 177.547L196.117 177.538ZM193.71 176.134C193.758 175.809 193.872 175.56 194.082 175.36C194.312 175.131 194.589 175.025 194.933 175.025C195.305 175.025 195.601 175.159 195.84 175.446C195.974 175.599 196.06 175.837 196.098 176.134H193.71Z" fill="white"/>
<path d="M201.113 177.356C201.065 177.729 200.941 178.006 200.75 178.178C200.559 178.35 200.33 178.436 200.043 178.436C199.68 178.436 199.403 178.311 199.174 178.044C198.944 177.777 198.83 177.328 198.83 176.716C198.83 176.105 198.944 175.675 199.183 175.408C199.413 175.14 199.709 175.016 200.081 175.016C200.32 175.016 200.521 175.083 200.693 175.226C200.855 175.369 200.979 175.589 201.046 175.885L201.075 176.009L202.125 175.847L202.097 175.713C201.992 175.197 201.762 174.787 201.409 174.51C201.056 174.223 200.597 174.089 200.043 174.089C199.604 174.089 199.202 174.194 198.83 174.395C198.457 174.605 198.171 174.92 197.989 175.331C197.808 175.732 197.722 176.21 197.722 176.745C197.722 177.576 197.932 178.235 198.362 178.684C198.792 179.142 199.355 179.372 200.053 179.372C200.607 179.372 201.084 179.2 201.466 178.865C201.848 178.531 202.087 178.073 202.183 177.49L202.202 177.356L201.132 177.213L201.113 177.347V177.356Z" fill="white"/>
<path d="M205.994 174.309C205.717 174.156 205.383 174.08 205.001 174.08C204.494 174.08 204.055 174.242 203.692 174.548V172.351H202.613V179.257H203.692V176.487C203.692 176.134 203.73 175.847 203.816 175.656C203.893 175.465 204.026 175.322 204.217 175.207C204.408 175.093 204.609 175.035 204.829 175.035C205.115 175.035 205.325 175.112 205.478 175.274C205.631 175.436 205.707 175.704 205.707 176.076V179.257H206.787V176.076C206.787 175.58 206.73 175.207 206.605 174.94C206.481 174.663 206.271 174.453 205.984 174.3L205.994 174.309Z" fill="white"/>
<path d="M211.63 174.701C211.496 174.51 211.295 174.357 211.028 174.242C210.77 174.128 210.484 174.08 210.178 174.08C209.605 174.08 209.137 174.262 208.783 174.625V174.185H207.78V179.267H208.86V176.506C208.86 175.933 208.974 175.542 209.194 175.351C209.423 175.15 209.691 175.054 210.006 175.054C210.197 175.054 210.369 175.093 210.503 175.179C210.636 175.265 210.732 175.37 210.789 175.503C210.847 175.656 210.875 175.885 210.875 176.201V179.257H211.955V176.162C211.955 175.771 211.935 175.503 211.907 175.341C211.859 175.093 211.764 174.873 211.63 174.691V174.701Z" fill="white"/>
<path d="M215.021 174.08C214.4 174.08 213.855 174.271 213.416 174.643C212.891 175.092 212.633 175.799 212.633 176.726C212.633 177.576 212.853 178.235 213.292 178.684C213.731 179.143 214.314 179.372 215.021 179.372C215.46 179.372 215.871 179.267 216.244 179.057C216.616 178.846 216.912 178.55 217.103 178.178C217.294 177.805 217.399 177.289 217.399 176.649C217.399 175.847 217.18 175.217 216.731 174.758C216.291 174.3 215.709 174.07 215.011 174.07L215.021 174.08ZM216.301 176.697C216.301 177.289 216.177 177.738 215.928 178.015C215.68 178.292 215.384 178.436 215.021 178.436C214.658 178.436 214.352 178.302 214.104 178.025C213.855 177.748 213.731 177.309 213.731 176.726C213.731 176.143 213.855 175.713 214.104 175.427C214.352 175.15 214.648 175.016 215.021 175.016C215.393 175.016 215.68 175.15 215.928 175.427C216.177 175.704 216.301 176.134 216.301 176.688V176.697Z" fill="white"/>
<path d="M219.157 172.36H218.078V179.267H219.157V172.36Z" fill="white"/>
<path d="M222.252 174.08C221.622 174.08 221.087 174.271 220.647 174.643C220.122 175.092 219.864 175.799 219.864 176.726C219.864 177.576 220.084 178.226 220.523 178.684C220.962 179.143 221.545 179.372 222.252 179.372C222.691 179.372 223.102 179.267 223.475 179.057C223.847 178.846 224.143 178.55 224.334 178.178C224.525 177.805 224.63 177.289 224.63 176.649C224.63 175.857 224.411 175.217 223.962 174.758C223.522 174.3 222.94 174.07 222.242 174.07L222.252 174.08ZM223.532 176.697C223.532 177.289 223.408 177.738 223.159 178.015C222.911 178.292 222.615 178.436 222.252 178.436C221.889 178.436 221.583 178.302 221.335 178.025C221.087 177.748 220.962 177.309 220.962 176.726C220.962 176.143 221.087 175.713 221.335 175.427C221.583 175.15 221.879 175.016 222.252 175.016C222.624 175.016 222.911 175.15 223.159 175.427C223.408 175.704 223.532 176.134 223.532 176.688V176.697Z" fill="white"/>
<path d="M228.499 174.567C228.146 174.242 227.716 174.08 227.229 174.08C226.78 174.08 226.378 174.195 226.044 174.424C225.71 174.653 225.452 174.968 225.27 175.379C225.098 175.78 225.012 176.229 225.012 176.707C225.012 177.404 225.204 178.006 225.586 178.503C225.977 179.009 226.531 179.267 227.229 179.267C227.687 179.267 228.088 179.124 228.423 178.828C228.423 179.171 228.394 179.401 228.365 179.515C228.298 179.754 228.184 179.945 228.002 180.079C227.821 180.213 227.553 180.279 227.209 180.279C226.894 180.279 226.636 180.213 226.455 180.079C226.331 179.993 226.254 179.84 226.235 179.63V179.534L225.175 179.382V179.534C225.156 180.098 225.347 180.528 225.738 180.814C226.111 181.091 226.608 181.225 227.209 181.225C227.716 181.225 228.146 181.13 228.489 180.939C228.843 180.748 229.11 180.48 229.273 180.136C229.435 179.802 229.512 179.248 229.512 178.484V174.195H228.489V174.567H228.499ZM228.136 175.427C228.375 175.694 228.499 176.115 228.499 176.669C228.499 177.223 228.384 177.672 228.155 177.939C227.926 178.197 227.649 178.331 227.315 178.331C226.98 178.331 226.694 178.207 226.474 177.939C226.245 177.672 226.13 177.242 226.13 176.64C226.13 176.096 226.245 175.685 226.474 175.417C226.703 175.15 226.971 175.026 227.295 175.026C227.62 175.026 227.897 175.159 228.136 175.427Z" fill="white"/>
<path d="M231.565 172.36H230.486V173.564H231.565V172.36Z" fill="white"/>
<path d="M231.565 174.185H230.486V179.267H231.565V174.185Z" fill="white"/>
<path d="M235.692 174.596C235.358 174.252 234.928 174.08 234.422 174.08C234.02 174.08 233.638 174.185 233.304 174.395C232.96 174.605 232.702 174.921 232.521 175.331C232.349 175.733 232.263 176.182 232.263 176.688C232.263 177.509 232.482 178.168 232.912 178.656C233.352 179.143 233.877 179.382 234.488 179.382C234.765 179.382 235.023 179.315 235.281 179.191C235.405 179.124 235.52 179.047 235.616 178.971V181.12H236.695V174.195H235.692V174.596ZM235.329 175.427C235.568 175.723 235.692 176.182 235.692 176.783C235.692 177.347 235.577 177.777 235.348 178.044C235.119 178.312 234.861 178.436 234.555 178.436C234.25 178.436 233.963 178.302 233.724 178.016C233.485 177.729 233.361 177.29 233.361 176.707C233.361 176.124 233.476 175.656 233.696 175.379C233.915 175.112 234.183 174.978 234.488 174.978C234.794 174.978 235.071 175.121 235.319 175.417L235.329 175.427Z" fill="white"/>
<path d="M240.774 176.898C240.774 177.29 240.736 177.595 240.65 177.786C240.573 177.977 240.439 178.121 240.248 178.235C240.057 178.35 239.847 178.407 239.627 178.407C239.408 178.407 239.236 178.35 239.093 178.254C238.949 178.149 238.863 178.016 238.816 177.824C238.796 177.738 238.768 177.528 238.768 176.993V174.195H237.688V177.309C237.688 177.672 237.707 177.93 237.736 178.092C237.793 178.35 237.879 178.57 238.013 178.751C238.147 178.933 238.347 179.085 238.615 179.2C238.873 179.315 239.159 179.372 239.465 179.372C240.019 179.372 240.487 179.181 240.86 178.799V179.267H241.863V174.185H240.783V176.898H240.774Z" fill="white"/>
<path d="M246.209 177.442L246.171 177.538C246.056 177.853 245.903 178.092 245.712 178.226C245.521 178.369 245.292 178.436 245.024 178.436C244.661 178.436 244.356 178.312 244.117 178.054C243.897 177.825 243.764 177.49 243.716 177.07H247.288V176.716C247.288 175.895 247.078 175.236 246.648 174.777C246.218 174.309 245.655 174.08 244.977 174.08C244.298 174.08 243.697 174.319 243.257 174.796C242.818 175.265 242.598 175.933 242.598 176.774C242.598 177.614 242.818 178.235 243.257 178.684C243.697 179.143 244.289 179.382 245.024 179.382C245.607 179.382 246.104 179.238 246.486 178.942C246.868 178.656 247.135 178.245 247.269 177.729L247.307 177.576L246.209 177.442ZM243.764 176.134C243.811 175.809 243.926 175.561 244.136 175.36C244.365 175.131 244.642 175.026 244.986 175.026C245.359 175.026 245.655 175.159 245.894 175.446C246.027 175.599 246.113 175.838 246.152 176.134H243.764Z" fill="white"/>
<path d="M96.8884 157.86H120.693V151.193H103.986V143.293H118.247V136.912H103.986V129.29H120.693V122.622H96.8884V157.86Z" fill="white"/>
<path d="M139.425 136.941C137.81 136.75 136.53 136.568 135.623 136.425C134.133 136.157 133.072 135.699 132.442 135.049C131.85 134.457 131.563 133.817 131.563 133.129C131.592 131.83 132.022 130.894 132.891 130.264C133.789 129.614 134.945 129.28 136.311 129.28C139.205 129.337 141.899 130.149 144.306 131.697L145.079 132.193L149.044 126.51L148.26 125.965C144.965 123.663 141.058 122.45 136.597 122.354C132.834 122.383 129.863 123.377 127.771 125.297C125.583 127.264 124.466 129.872 124.466 133.053C124.466 135.718 125.354 138.011 127.093 139.883C128.774 141.679 131.219 142.844 134.381 143.36C136.034 143.589 137.543 143.799 138.89 143.971C142.214 144.525 142.577 146.254 142.558 147.496C142.529 149.053 141.889 151.135 136.74 151.202C133.216 151.174 130.13 150.123 127.589 148.088L126.882 147.525L122.211 152.731L122.976 153.361C126.787 156.523 131.391 158.128 136.683 158.128C147.171 158.003 149.531 152.282 149.655 147.477C149.655 144.888 148.814 142.586 147.143 140.637C145.452 138.641 142.854 137.399 139.405 136.941H139.425Z" fill="white"/>
<path d="M174.061 125.153C172.676 124.093 171.281 123.367 169.848 123.004C168.54 122.746 167.164 122.622 165.76 122.622H152.377V157.851H159.475V144.841H166.448C170.25 144.774 173.192 143.561 175.198 141.23C177.137 139.033 178.121 136.549 178.121 133.856C178.121 131.878 177.729 130.13 176.965 128.688C176.22 127.159 175.226 125.956 174.061 125.153ZM171.023 133.731C171.023 134.858 170.641 135.861 169.868 136.778C169.075 137.705 167.881 138.164 166.238 138.192H159.494V129.29H166.075C167.308 129.261 168.358 129.528 169.304 130.111C169.858 130.426 170.278 130.837 170.565 131.334C170.88 131.964 171.033 132.776 171.033 133.731H171.023Z" fill="white"/>
<path d="M190.042 122.622H182.945V157.851H190.042V122.622Z" fill="white"/>
<path d="M207.943 122.622L194.77 157.851H202.326L204.963 150.4H216.616L219.272 157.851H226.799L213.626 122.622H207.952H207.943ZM214.467 144.019H207.121L210.799 133.225L214.477 144.019H214.467Z" fill="white"/>
<path d="M248.779 122.622V145.07C248.75 147.085 248.205 148.556 247.097 149.578C245.951 150.667 244.528 151.193 242.742 151.193C240.955 151.193 239.551 150.667 238.414 149.559C237.287 148.547 236.733 147.076 236.704 145.079V122.622H229.607V145.633C229.645 149.407 230.954 152.444 233.495 154.66C235.969 156.934 239.073 158.099 242.761 158.128C246.486 158.099 249.619 156.924 252.074 154.66C254.539 152.425 255.828 149.387 255.895 145.614V126.968C255.895 124.571 253.946 122.622 251.549 122.622H248.788H248.779Z" fill="white"/>
<path d="M56.5875 99.3145C67.5726 99.3145 76.0932 102.132 82.1493 107.768C88.2054 113.404 91.2335 121.351 91.2335 131.611C91.2335 137.246 90.2401 142.261 88.2532 146.655C86.2663 151.049 83.3147 154.756 79.4078 157.755C76.6854 159.857 73.5332 161.385 69.9511 162.359C66.369 163.334 61.9177 163.811 56.5971 163.811H28.5326V158.414C32.6305 158.414 35.9451 155.09 35.9451 151.002V106.077H28.5326V99.324H56.5971L56.5875 99.3145ZM48.6114 108.265V157.64C48.6114 158.07 48.9553 158.414 49.3851 158.414H54.1995C61.8317 158.414 67.5344 156.198 71.2884 151.756C75.0424 147.314 76.9242 140.58 76.9242 131.544C76.9242 122.507 75.0424 115.783 71.2884 111.35C67.5344 106.918 61.8413 104.711 54.1995 104.711H52.1648C50.1971 104.711 48.6114 106.307 48.6114 108.265Z" fill="white"/>
</svg>
