<?xml version="1.0" encoding="UTF-8"?>
<svg id="Calque_1" data-name="Calque 1" xmlns="http://www.w3.org/2000/svg" version="1.1" viewBox="0 0 479.2 581">
  <defs>
    <style>
      .cls-1 {
        fill: #c01718;
        stroke-width: 0px;
      }
    </style>
  </defs>
  <path class="cls-1" d="M105.3,110.5v-21.5h15.6v2.5h-12.7v6.6h11.9v2.5h-11.9v7.3h13.2v2.5h-16.1Z"/>
  <path class="cls-1" d="M126.6,110.5v-15.6h2.4v2.2c1.1-1.7,2.8-2.6,5-2.6s1.8.2,2.6.5c.8.3,1.4.8,1.8,1.3.4.5.7,1.2.8,2,0,.5.1,1.3.1,2.6v9.6h-2.6v-9.5c0-1.1-.1-1.9-.3-2.4-.2-.5-.6-1-1.1-1.3-.5-.3-1.1-.5-1.8-.5-1.1,0-2.1.4-2.9,1.1-.8.7-1.2,2.1-1.2,4.1v8.5h-2.6Z"/>
  <path class="cls-1" d="M143.9,105.9l2.6-.4c.1,1,.6,1.8,1.2,2.4.7.6,1.6.8,2.8.8s2.1-.2,2.7-.7.9-1.1.9-1.7-.3-1.1-.8-1.4c-.4-.2-1.3-.5-2.7-.9-1.9-.5-3.3-.9-4-1.3-.7-.4-1.3-.9-1.7-1.5-.4-.6-.6-1.3-.6-2.1s.2-1.3.5-1.9c.3-.6.8-1.1,1.3-1.5.4-.3,1-.6,1.7-.8s1.5-.3,2.3-.3c1.2,0,2.3.2,3.2.5.9.4,1.6.8,2,1.4.4.6.7,1.4.9,2.4l-2.6.4c-.1-.8-.5-1.4-1-1.9-.6-.5-1.4-.7-2.4-.7s-2.1.2-2.6.6c-.5.4-.8.9-.8,1.4s.1.6.3.9c.2.3.6.5,1,.7.3,0,1,.3,2.3.7,1.9.5,3.2.9,3.9,1.2.7.3,1.3.8,1.7,1.4.4.6.6,1.4.6,2.3s-.3,1.7-.8,2.5c-.5.8-1.3,1.4-2.2,1.8-1,.4-2.1.6-3.3.6-2,0-3.6-.4-4.6-1.3-1.1-.8-1.7-2.1-2-3.7Z"/>
  <path class="cls-1" d="M172.3,105.5l2.7.3c-.4,1.6-1.2,2.8-2.4,3.7-1.2.9-2.7,1.3-4.5,1.3s-4.1-.7-5.4-2.1c-1.3-1.4-2-3.4-2-5.9s.7-4.7,2-6.1c1.4-1.4,3.1-2.2,5.3-2.2s3.8.7,5.1,2.1c1.3,1.4,2,3.4,2,6s0,.4,0,.7h-11.6c0,1.7.6,3,1.5,3.9.9.9,2,1.4,3.3,1.4s1.8-.3,2.5-.8c.7-.5,1.2-1.3,1.6-2.4ZM163.6,101.3h8.7c-.1-1.3-.5-2.3-1-3-.8-1-1.9-1.5-3.3-1.5s-2.2.4-3.1,1.2c-.8.8-1.3,1.9-1.4,3.3Z"/>
  <path class="cls-1" d="M179.9,110.5v-15.6h2.4v2.2c.5-.8,1.1-1.4,2-1.8.8-.5,1.7-.7,2.8-.7s2.1.2,2.8.7c.7.5,1.3,1.1,1.6,2,1.2-1.8,2.8-2.7,4.8-2.7s2.7.4,3.6,1.3c.8.9,1.2,2.2,1.2,4v10.7h-2.6v-9.8c0-1.1,0-1.8-.3-2.3-.2-.5-.5-.8-.9-1.1-.5-.3-1-.4-1.6-.4-1.1,0-2,.4-2.7,1.1s-1.1,1.9-1.1,3.5v9.1h-2.6v-10.1c0-1.2-.2-2.1-.6-2.6-.4-.6-1.1-.9-2.1-.9s-1.4.2-2.1.6c-.6.4-1.1,1-1.4,1.7-.3.8-.4,1.8-.4,3.3v8.1h-2.6Z"/>
  <path class="cls-1" d="M209.1,110.5h-2.5v-21.5h2.6v7.7c1.1-1.4,2.5-2.1,4.3-2.1s1.9.2,2.7.6c.9.4,1.6.9,2.1,1.6.6.7,1,1.5,1.3,2.5.3,1,.5,2,.5,3.2,0,2.7-.7,4.7-2,6.2-1.3,1.5-2.9,2.2-4.8,2.2s-3.3-.8-4.3-2.3v2ZM209,102.6c0,1.9.3,3.2.8,4.1.8,1.4,2,2,3.4,2s2.2-.5,3-1.5c.8-1,1.3-2.5,1.3-4.5s-.4-3.5-1.2-4.5c-.8-1-1.8-1.5-2.9-1.5s-2.2.5-3,1.5c-.8,1-1.3,2.5-1.3,4.4Z"/>
  <path class="cls-1" d="M224.9,110.5v-21.5h2.6v21.5h-2.6Z"/>
  <path class="cls-1" d="M244,105.5l2.7.3c-.4,1.6-1.2,2.8-2.4,3.7-1.2.9-2.7,1.3-4.5,1.3s-4.1-.7-5.4-2.1c-1.3-1.4-2-3.4-2-5.9s.7-4.7,2-6.1c1.4-1.4,3.1-2.2,5.3-2.2s3.8.7,5.1,2.1c1.3,1.4,2,3.4,2,6s0,.4,0,.7h-11.6c0,1.7.6,3,1.5,3.9.9.9,2,1.4,3.3,1.4s1.8-.3,2.5-.8c.7-.5,1.2-1.3,1.6-2.4ZM235.3,101.3h8.7c-.1-1.3-.5-2.3-1-3-.8-1-1.9-1.5-3.3-1.5s-2.2.4-3.1,1.2c-.8.8-1.3,1.9-1.4,3.3Z"/>
  <path class="cls-1" d="M260.6,105.9l2.6-.4c.1,1,.6,1.8,1.2,2.4.7.6,1.6.8,2.8.8s2.1-.2,2.7-.7c.6-.5.9-1.1.9-1.7s-.3-1.1-.8-1.4c-.4-.2-1.3-.5-2.7-.9-1.9-.5-3.3-.9-4-1.3-.7-.4-1.3-.9-1.7-1.5-.4-.6-.6-1.3-.6-2.1s.2-1.3.5-1.9.8-1.1,1.3-1.5c.4-.3,1-.6,1.7-.8s1.5-.3,2.3-.3c1.2,0,2.3.2,3.2.5.9.4,1.6.8,2,1.4.4.6.7,1.4.9,2.4l-2.6.4c-.1-.8-.5-1.4-1-1.9-.6-.5-1.4-.7-2.4-.7s-2.1.2-2.6.6c-.5.4-.8.9-.8,1.4s.1.6.3.9c.2.3.6.5,1,.7.3,0,1,.3,2.3.7,1.9.5,3.2.9,3.9,1.2.7.3,1.3.8,1.7,1.4.4.6.6,1.4.6,2.3s-.3,1.7-.8,2.5c-.5.8-1.3,1.4-2.2,1.8-1,.4-2.1.6-3.3.6-2,0-3.6-.4-4.6-1.3-1.1-.8-1.7-2.1-2-3.7Z"/>
  <path class="cls-1" d="M288.5,104.8l2.6.3c-.3,1.8-1,3.2-2.2,4.2-1.2,1-2.6,1.5-4.3,1.5s-3.9-.7-5.1-2.1c-1.3-1.4-1.9-3.4-1.9-6s.3-3.2.8-4.4c.6-1.3,1.4-2.2,2.5-2.8,1.1-.6,2.4-.9,3.7-.9s3.1.4,4.2,1.3c1.1.9,1.8,2.1,2.1,3.6l-2.6.4c-.2-1-.7-1.8-1.3-2.4-.6-.5-1.4-.8-2.3-.8-1.3,0-2.4.5-3.2,1.4-.8,1-1.2,2.5-1.2,4.5s.4,3.6,1.2,4.6c.8.9,1.8,1.4,3.1,1.4s1.9-.3,2.6-1c.7-.6,1.1-1.6,1.3-2.9Z"/>
  <path class="cls-1" d="M294,102.7c0-2.9.8-5,2.4-6.4,1.3-1.2,3-1.7,4.9-1.7s3.9.7,5.3,2.1c1.4,1.4,2,3.3,2,5.8s-.3,3.6-.9,4.7c-.6,1.2-1.5,2-2.6,2.7-1.2.6-2.4,1-3.8,1-2.2,0-3.9-.7-5.3-2.1-1.3-1.4-2-3.4-2-6.1ZM296.7,102.7c0,2,.4,3.5,1.3,4.5.9,1,2,1.5,3.3,1.5s2.4-.5,3.3-1.5c.9-1,1.3-2.5,1.3-4.6s-.4-3.4-1.3-4.4c-.9-1-2-1.5-3.3-1.5s-2.4.5-3.3,1.5c-.9,1-1.3,2.5-1.3,4.5Z"/>
  <path class="cls-1" d="M313.2,110.5v-21.5h2.6v21.5h-2.6Z"/>
  <path class="cls-1" d="M331.8,108.6c-1,.8-1.9,1.4-2.8,1.8-.9.3-1.9.5-2.9.5-1.7,0-3-.4-4-1.3-.9-.8-1.4-1.9-1.4-3.2s.2-1.5.5-2.1c.3-.6.8-1.1,1.4-1.5.6-.4,1.2-.7,1.9-.9.5-.1,1.3-.3,2.4-.4,2.1-.3,3.7-.6,4.7-.9,0-.4,0-.6,0-.7,0-1.1-.3-1.8-.7-2.3-.7-.6-1.7-.9-3-.9s-2.2.2-2.8.7c-.6.4-1,1.2-1.3,2.3l-2.6-.4c.2-1.1.6-2,1.2-2.7.5-.7,1.3-1.2,2.3-1.6,1-.4,2.2-.6,3.5-.6s2.4.2,3.2.5c.8.3,1.4.7,1.8,1.2.4.5.7,1.1.8,1.8,0,.5.1,1.3.1,2.4v3.5c0,2.5,0,4,.2,4.7.1.7.3,1.3.7,1.9h-2.8c-.3-.5-.5-1.2-.5-1.9ZM331.6,102.7c-1,.4-2.4.7-4.3,1-1.1.2-1.9.3-2.3.5-.5.2-.8.5-1,.9-.2.4-.4.8-.4,1.3,0,.7.3,1.3.8,1.8.5.5,1.3.7,2.3.7s1.9-.2,2.7-.7c.8-.4,1.4-1.1,1.7-1.8.3-.6.4-1.5.4-2.6v-1Z"/>
  <path class="cls-1" d="M340,92.1v-3h2.6v3h-2.6ZM340,110.5v-15.6h2.6v15.6h-2.6Z"/>
  <path class="cls-1" d="M348.2,110.5v-15.6h2.4v2.4c.6-1.1,1.2-1.8,1.7-2.2.5-.4,1.1-.5,1.7-.5.9,0,1.8.3,2.7.9l-.9,2.5c-.6-.4-1.3-.6-1.9-.6s-1.1.2-1.6.5c-.5.3-.8.8-1,1.4-.3.9-.4,2-.4,3.1v8.2h-2.6Z"/>
  <path class="cls-1" d="M370.6,105.5l2.7.3c-.4,1.6-1.2,2.8-2.4,3.7-1.2.9-2.7,1.3-4.5,1.3s-4.1-.7-5.4-2.1c-1.3-1.4-2-3.4-2-5.9s.7-4.7,2-6.1c1.4-1.4,3.1-2.2,5.3-2.2s3.8.7,5.1,2.1c1.3,1.4,2,3.4,2,6s0,.4,0,.7h-11.6c0,1.7.6,3,1.5,3.9.9.9,2,1.4,3.3,1.4s1.8-.3,2.5-.8c.7-.5,1.2-1.3,1.6-2.4ZM361.9,101.3h8.7c-.1-1.3-.5-2.3-1-3-.8-1-1.9-1.5-3.3-1.5s-2.2.4-3.1,1.2c-.8.8-1.3,1.9-1.4,3.3Z"/>
  <path class="cls-1" d="M94.1,151.7c1.4,1.1,2.7,1.9,3.9,2.5,1.2.6,2.2.9,3.1.9s1.4-.2,1.9-.7c.5-.5.8-1,.8-1.7s-.9-2-2.6-3.6c0,0,0,0,0,0-2.9-2.7-4.8-4.7-5.7-6.2-.8-1.5-1.2-3.1-1.2-4.8,0-2.9,1-5.3,3-7.2,2-1.9,4.6-2.8,7.8-2.8s2.5.2,3.8.5c1.3.3,2.7.8,4.1,1.5v9c-1.2-.9-2.3-1.6-3.3-2.1-1-.5-2-.7-2.8-.7s-1.3.2-1.8.6-.7.9-.7,1.5c0,.9.8,2,2.5,3.3.1.1.2.2.3.2,2.9,2.3,4.8,4.2,5.7,5.7.9,1.5,1.3,3.3,1.3,5.3,0,3.4-1.1,6.1-3.2,8.1s-5,3.1-8.6,3.1-2.7-.2-4.1-.6c-1.3-.4-2.7-1.1-4.1-2v-9.6Z"/>
  <path class="cls-1" d="M129.6,163.2v-2.7c-.9,1.2-1.8,2-2.7,2.6-.9.5-2,.8-3.1.8-2.5,0-4.4-1.1-5.8-3.4-1.4-2.3-2.1-5.4-2.1-9.5s.7-7.2,2.1-9.5,3.3-3.4,5.8-3.4,2.1.3,3.1.8c.9.5,1.8,1.4,2.7,2.5v-2.6h8.9v24.3h-8.9ZM125,151c0,1.7.2,3,.5,3.9.4.9.9,1.3,1.6,1.3s1.3-.4,1.6-1.3c.4-.9.6-2.2.6-3.9s-.2-3-.6-3.9-.9-1.3-1.6-1.3-1.2.4-1.6,1.3c-.4.9-.6,2.2-.6,3.9Z"/>
  <path class="cls-1" d="M141.3,130.6c0-1.5.5-2.7,1.5-3.7,1-1,2.3-1.5,3.8-1.5s2.7.5,3.8,1.5c1,1,1.5,2.2,1.5,3.7s-.5,2.7-1.5,3.7-2.3,1.5-3.7,1.5-2.8-.5-3.8-1.5c-1-1-1.5-2.3-1.5-3.7ZM142.1,163.2v-24.3h8.9v24.3h-8.9Z"/>
  <path class="cls-1" d="M154.7,163.2v-24.3h8.6v3.6c.8-1.4,1.8-2.4,2.9-3,1.1-.7,2.4-1,4-1s3.3.5,4.2,1.6c1,1.1,1.5,2.7,1.5,4.8v18.3h-8.9v-14.1c0-.7-.1-1.3-.4-1.7-.3-.4-.7-.6-1.3-.6s-.9.2-1.3.6c-.3.4-.5,1-.5,1.7v14h-8.9Z"/>
  <path class="cls-1" d="M180.6,163.2v-16.6h-3v-7.7h3v-7.1h9v7.1h3.2v7.7h-3.2v16.6h-9Z"/>
  <path class="cls-1" d="M215,154.7c-.4,2.8-1.5,5.1-3.4,6.7-1.9,1.6-4.3,2.5-7.3,2.5s-6.1-1.1-8-3.3c-1.9-2.2-2.8-5.3-2.8-9.4s.9-7.3,2.8-9.5c1.9-2.3,4.5-3.4,7.9-3.4s6.5,1,8.3,3c1.8,2,2.7,5,2.7,9.1s0,.8,0,1.1c0,.2,0,.5,0,.7h-13v.3c0,1.8.2,3.1.6,3.8.4.8,1.1,1.2,2,1.2s1.2-.2,1.7-.7.7-1.1.9-2h7.5ZM202.3,148h5.3c0-1.4-.2-2.4-.7-3.1s-1.1-1-2-1-1.2.3-1.7,1c-.4.7-.7,1.7-1,3.1Z"/>
  <path class="cls-1" d="M219,155v-7.9h13.8v7.9h-13.8Z"/>
  <path class="cls-1" d="M247.7,163.2h-9.8v-25.8h-5.8v-8.8h21.5v8.8h-5.8v25.8Z"/>
  <path class="cls-1" d="M255.3,163.2v-37.8h8.9v16.6c.8-1.2,1.7-2.1,2.8-2.7,1.1-.6,2.4-.9,3.8-.9s3.3.6,4.2,1.7c1,1.1,1.5,2.7,1.5,4.9v18.3h-8.9v-14.2c0-.7-.1-1.3-.4-1.6-.3-.4-.7-.5-1.3-.5s-.9.2-1.3.6c-.3.4-.5,1-.5,1.7v14h-8.9Z"/>
  <path class="cls-1" d="M300.2,154.7c-.4,2.8-1.5,5.1-3.4,6.7-1.9,1.6-4.3,2.5-7.3,2.5s-6.1-1.1-8-3.3c-1.9-2.2-2.8-5.3-2.8-9.4s.9-7.3,2.8-9.5c1.9-2.3,4.5-3.4,7.9-3.4s6.5,1,8.3,3c1.8,2,2.7,5,2.7,9.1s0,.8,0,1.1c0,.2,0,.5,0,.7h-13v.3c0,1.8.2,3.1.6,3.8.4.8,1.1,1.2,2,1.2s1.2-.2,1.7-.7.7-1.1.9-2h7.5ZM290.8,135.6h-3.8l1.7-7.4h6.3l-4.1,7.4ZM287.5,148h5.3c0-1.4-.2-2.4-.7-3.1s-1.1-1-2-1-1.2.3-1.7,1c-.4.7-.7,1.7-1,3.1Z"/>
  <path class="cls-1" d="M303.1,163.2v-24.3h8.4v3.4c.8-1.2,1.7-2.2,2.8-2.9,1.1-.7,2.4-1.1,3.9-1.2v8.6h-.2c-2.2,0-3.7.4-4.6,1.2-.9.8-1.3,2.3-1.3,4.4v10.8h-9Z"/>
  <path class="cls-1" d="M340.9,154.7c-.4,2.8-1.5,5.1-3.4,6.7-1.9,1.6-4.3,2.5-7.3,2.5s-6.1-1.1-8-3.3c-1.9-2.2-2.8-5.3-2.8-9.4s.9-7.3,2.8-9.5c1.9-2.3,4.5-3.4,7.9-3.4s6.5,1,8.3,3c1.8,2,2.7,5,2.7,9.1s0,.8,0,1.1c0,.2,0,.5,0,.7h-13v.3c0,1.8.2,3.1.6,3.8.4.8,1.1,1.2,2,1.2s1.2-.2,1.7-.7.7-1.1.9-2h7.5ZM329.5,135.6l-4.1-7.4h6.3l1.7,7.4h-3.8ZM328.2,148h5.3c0-1.4-.2-2.4-.7-3.1s-1.1-1-2-1-1.2.3-1.7,1c-.4.7-.7,1.7-1,3.1Z"/>
  <path class="cls-1" d="M346.1,154.7c.9.7,1.7,1.3,2.6,1.7.8.4,1.6.6,2.3.6s.9-.1,1.2-.4.5-.6.5-1c0-.6-.8-1.3-2.5-2-.9-.4-1.7-.8-2.2-1.1-1.6-.8-2.7-1.8-3.4-2.8s-1.1-2.3-1.1-3.7c0-2.2.8-4.1,2.6-5.6,1.7-1.5,3.9-2.2,6.5-2.2s2.7.2,4,.6c1.4.4,2.8,1.1,4.4,2l-3.6,5.1c-.8-.5-1.5-.9-2.1-1.2s-1.2-.4-1.7-.4-1,.1-1.3.3c-.3.2-.5.5-.5.9,0,.7.7,1.3,2.2,2,.8.3,1.4.6,1.8.9,2,1.1,3.4,2.2,4.2,3.3.9,1.1,1.3,2.4,1.3,3.9,0,2.4-.9,4.3-2.6,5.9-1.7,1.6-3.9,2.4-6.5,2.4s-3.3-.3-4.9-.9-3.3-1.4-4.9-2.6l3.8-5.7Z"/>
  <path class="cls-1" d="M384.2,154.7c-.4,2.8-1.5,5.1-3.4,6.7-1.9,1.6-4.3,2.5-7.3,2.5s-6.1-1.1-8-3.3c-1.9-2.2-2.8-5.3-2.8-9.4s.9-7.3,2.8-9.5c1.9-2.3,4.5-3.4,7.9-3.4s6.5,1,8.3,3c1.8,2,2.7,5,2.7,9.1s0,.8,0,1.1c0,.2,0,.5,0,.7h-13v.3c0,1.8.2,3.1.6,3.8.4.8,1.1,1.2,2,1.2s1.2-.2,1.7-.7.7-1.1.9-2h7.5ZM371.4,148h5.3c0-1.4-.2-2.4-.7-3.1s-1.1-1-2-1-1.2.3-1.7,1c-.4.7-.7,1.7-1,3.1Z"/>
  <path class="cls-1" d="M121.7,213.8c1.4,1.1,2.7,1.9,3.9,2.5,1.2.6,2.2.9,3.1.9s1.4-.2,1.9-.7c.5-.5.8-1,.8-1.7s-.9-2-2.6-3.6c0,0,0,0,0,0-2.9-2.7-4.8-4.7-5.7-6.2-.8-1.5-1.2-3.1-1.2-4.8,0-2.9,1-5.3,3-7.2,2-1.9,4.6-2.8,7.8-2.8s2.5.2,3.8.5c1.3.3,2.7.8,4.1,1.5v9c-1.2-.9-2.3-1.6-3.3-2.1-1-.5-2-.7-2.8-.7s-1.3.2-1.8.6-.7.9-.7,1.5c0,.9.8,2,2.5,3.3.1.1.2.2.3.2,2.9,2.3,4.8,4.2,5.7,5.7.9,1.5,1.3,3.3,1.3,5.3,0,3.4-1.1,6.1-3.2,8.1-2.2,2-5,3.1-8.6,3.1s-2.7-.2-4.1-.6c-1.3-.4-2.7-1.1-4.1-2v-9.6Z"/>
  <path class="cls-1" d="M157.2,225.3v-2.7c-.9,1.2-1.8,2-2.7,2.6-.9.5-2,.8-3.1.8-2.5,0-4.4-1.1-5.8-3.4-1.4-2.3-2.1-5.4-2.1-9.5s.7-7.2,2.1-9.5,3.3-3.4,5.8-3.4,2.1.3,3.1.8c.9.5,1.8,1.4,2.7,2.5v-2.6h8.9v24.3h-8.9ZM152.6,213.1c0,1.7.2,3,.5,3.9.4.9.9,1.3,1.6,1.3s1.3-.4,1.6-1.3.6-2.2.6-3.9-.2-3-.6-3.9c-.4-.9-.9-1.3-1.6-1.3s-1.2.4-1.6,1.3c-.4.9-.6,2.2-.6,3.9Z"/>
  <path class="cls-1" d="M168.9,192.7c0-1.5.5-2.7,1.5-3.7,1-1,2.3-1.5,3.8-1.5s2.7.5,3.8,1.5c1,1,1.5,2.2,1.5,3.7s-.5,2.7-1.5,3.7-2.3,1.5-3.7,1.5-2.8-.5-3.8-1.5c-1-1-1.5-2.3-1.5-3.7ZM169.7,225.3v-24.3h8.9v24.3h-8.9Z"/>
  <path class="cls-1" d="M182.3,225.3v-24.3h8.6v3.6c.8-1.4,1.8-2.4,2.9-3,1.1-.7,2.4-1,4-1s3.3.5,4.2,1.6c1,1.1,1.5,2.7,1.5,4.8v18.3h-8.9v-14.1c0-.7-.1-1.3-.4-1.7-.3-.4-.7-.6-1.3-.6s-.9.2-1.3.6c-.3.4-.5,1-.5,1.7v14h-8.9Z"/>
  <path class="cls-1" d="M208.2,225.3v-16.6h-3v-7.7h3v-7.1h9v7.1h3.2v7.7h-3.2v16.6h-9Z"/>
  <path class="cls-1" d="M222.3,217.1v-7.9h13.8v7.9h-13.8Z"/>
  <path class="cls-1" d="M250.9,225.3h-9.8v-25.8h-5.8v-8.8h21.5v8.8h-5.8v25.8Z"/>
  <path class="cls-1" d="M268.4,225.3v-2.7c-.9,1.2-1.8,2-2.7,2.6-.9.5-2,.8-3.1.8-2.5,0-4.4-1.1-5.8-3.4-1.4-2.3-2.1-5.4-2.1-9.5s.7-7.2,2.1-9.5,3.3-3.4,5.8-3.4,2.1.3,3.1.8c.9.5,1.8,1.4,2.7,2.5v-2.6h8.9v24.3h-8.9ZM263.9,213.1c0,1.7.2,3,.5,3.9.4.9.9,1.3,1.6,1.3s1.3-.4,1.6-1.3.6-2.2.6-3.9-.2-3-.6-3.9c-.4-.9-.9-1.3-1.6-1.3s-1.2.4-1.6,1.3c-.4.9-.6,2.2-.6,3.9Z"/>
  <path class="cls-1" d="M280.5,201h8.9v15.4c0,.6.2,1,.5,1.4.3.3.7.5,1.3.5s1-.2,1.3-.5c.3-.3.4-.8.4-1.4v-15.4h8.9v14.6c0,3.5-.9,6.1-2.7,7.8-1.8,1.7-4.4,2.6-8,2.6s-6.2-.9-8-2.6-2.7-4.3-2.7-7.8v-14.6Z"/>
  <path class="cls-1" d="M304.9,225.3v-24.3h8.4v3.4c.8-1.2,1.7-2.2,2.8-2.9,1.1-.7,2.4-1.1,3.9-1.2v8.6h-.2c-2.2,0-3.7.4-4.6,1.2-.9.8-1.3,2.3-1.3,4.4v10.8h-9Z"/>
  <path class="cls-1" d="M321.7,192.7c0-1.5.5-2.7,1.5-3.7,1-1,2.3-1.5,3.8-1.5s2.7.5,3.8,1.5c1,1,1.5,2.2,1.5,3.7s-.5,2.7-1.5,3.7-2.3,1.5-3.7,1.5-2.8-.5-3.8-1.5c-1-1-1.5-2.3-1.5-3.7ZM322.5,225.3v-24.3h8.9v24.3h-8.9Z"/>
  <path class="cls-1" d="M335.1,225.3v-24.3h8.6v3.6c.8-1.4,1.8-2.4,2.9-3,1.1-.7,2.4-1,4-1s3.3.5,4.2,1.6c1,1.1,1.5,2.7,1.5,4.8v18.3h-8.9v-14.1c0-.7-.1-1.3-.4-1.7-.3-.4-.7-.6-1.3-.6s-.9.2-1.3.6c-.3.4-.5,1-.5,1.7v14h-8.9Z"/>
  <g>
    <path class="cls-1" d="M240,27.9c3.4,1.1,6.7,2.3,10.1,3.4,24.1,7.6,48.2,15.2,72.3,22.8,21.4,6.7,42.8,13.5,64.1,20.2,15.8,5,31.7,9.9,47.5,14.9.6.2,1.1.6,1.7.9v316.1c-4.3,11-10.4,21-17.7,30.3-7.6,9.8-15.8,19-24.7,27.6-6.6,6.4-13.5,12.5-20.4,18.5-15.6,13.8-32.3,26.1-49.8,37.3-14.1,9-28.7,17.1-44.2,23.5-10.7,4.4-21.8,7.6-33,10.3-.6.2-1.3.3-1.9.4h-8.9c-4.5-1.1-9-2.2-13.5-3.4-16-4.3-31.1-11.1-45.6-19-15.8-8.6-30.7-18.4-45-29.2-9.1-6.9-18.1-14.2-26.7-21.7-8.6-7.5-17-15.3-25-23.5-9.8-9.9-18.9-20.4-26.2-32.4-2.9-4.7-5.5-9.6-8-14.6-.9-1.8-1.3-4-1.9-6,0-.7,0-1.3,0-2,.1-.8.3-1.6.3-2.4,0-100.1,0-200.2,0-300.3,0-2.7,0-5.5,0-8.2,0-1.4.5-2.2,1.9-2.6,9.6-3,19.3-6.1,28.9-9.1,30.8-9.7,61.7-19.4,92.5-29,23.7-7.5,47.5-14.9,71.2-22.4.4-.1.8-.4,1.3-.6.3,0,.7,0,1,0ZM46.9,249c0,51.4,0,102.8,0,154.2,0,1.6.3,3.3,1,4.7,2.5,5,5.1,10,8,14.8,7.3,12,16.5,22.4,26.2,32.4,7.1,7.3,14.6,14.1,22.1,20.9,6.3,5.6,12.7,11.1,19.3,16.2,8.6,6.6,17.4,13,26.3,19.1,15.1,10.4,31,19.4,47.7,26.9,10.9,4.9,22.4,8.3,33.9,11.2,3.9,1,8,1.5,12,.7,3.7-.7,7.4-1.6,11.1-2.6,10.7-2.9,21.2-6.5,31.2-11.3,25.3-12,48.5-27.3,70.3-44.6,9-7.1,17.5-14.8,26.1-22.4,9.5-8.3,18.1-17.5,26.3-27,8.7-10,16.1-20.9,21.8-32.8,1-2,1.6-4.4,1.6-6.5,0-101.5,0-202.9,0-304.4,0-1.6,0-3.3,0-4.9,0-1-.3-1.3-1.2-1.6-3.5-1.1-6.9-2.2-10.4-3.3-17.8-5.6-35.7-11.2-53.5-16.8-19.9-6.3-39.9-12.5-59.8-18.8-22.3-7-44.6-14-66.9-21-.5-.2-1.2-.2-1.7,0-16.4,5.1-32.7,10.3-49.1,15.4-24,7.5-48,15.1-72.1,22.6-22.7,7.1-45.4,14.3-68.1,21.4-2.5.8-2.5.8-2.5,3.3,0,51.4,0,102.7,0,154.1Z"/>
    <path class="cls-1" d="M239.5,528.8c-80.5-.2-143.1-64.2-145-140.8-2.1-85.3,65-147.4,140.1-149.5,85.1-2.4,149.9,65.2,150.1,144.6.2,81.3-65.2,145.7-145.2,145.7ZM313,446c9.1,9.1,18.2,18.2,27.3,27.3,48.2-54.3,42.9-132.6-.2-179.5-9.1,9.1-18.2,18.1-27.2,27.1,6.8,13.2,5.2,25.4-4.3,36.7,8.3,8.6,16.6,17.2,24.9,25.9-8.4,8.7-16.7,17.3-25,25.9,9.6,11.4,11.1,23.6,4.5,36.5ZM139,473.6c.4-.4.7-.6,1-.9,8.3-8.3,17.9-17.9,26.3-26.2,0,0-.2-.4-.8-1.7-4-7.7-4.5-15.8-1.7-24,1.4-4.2,3.9-7.9,6.8-11.2-8.4-8.7-16.6-17.2-25-25.9,8.4-8.7,16.7-17.4,25.1-26-5-5.5-7.6-10.7-8.4-18-.7-6.1.4-11.9,3.4-17.4.5-1,.9-1.5.9-1.5-7-6.9-15.1-14.8-22-21.7-1.8-1.8-3.7-3.6-5.5-5.5-48.3,54.6-43.1,132.4,0,179.9ZM329.3,484.2c0-.1-.2-.3-.3-.4-8.7-8.7-18.3-18.2-26.9-26.9,0,0-.5.3-1.3.7-8.5,4.3-17.3,4.8-26.1,1-3.3-1.4-6.3-3.7-9.7-5.8,0,0-.3.5-.7.8-7.9,7.7-16.9,16.4-24.8,24.1,0,0-.3-.3-1.2-1.2-7.7-7.5-15.5-15-23.2-22.5-.5-.5-1-.9-1.5-1.4-.3.2-.5.3-.6.5-4.9,4.5-10.7,7.2-17.2,7.9-6.1.6-12.1-.3-17.5-3.4-1-.6-1.1-.7-1.1-.7-4.6,4.7-10.6,10.4-15.3,15.1-4.1,4-8.1,8.1-12.2,12.1,50.3,45.7,129,46.2,179.8,0ZM265.4,314.5c11.3-9.6,23.5-11.1,36.5-4.5,9.1-9.1,18.2-18.2,27.3-27.3-54.6-48.5-132.5-42.7-179.6.2,0,0,18.7,18.5,27.4,27.3,0,0,.3-.2,1-.6,7-3.7,14.5-4.5,22.2-2.6,5.1,1.3,9.5,4,13.4,7.5,8.7-8.4,17.3-16.7,26-25.1,8.7,8.4,17.4,16.7,25.9,25ZM219,404h40.9v-40.9h-40.9v40.9Z"/>
  </g>
</svg>