<?xml version="1.0" encoding="UTF-8"?>
<svg id="Calque_1" data-name="Calque 1" xmlns="http://www.w3.org/2000/svg" version="1.1" viewBox="0 0 641.5 565.3">
  <defs>
    <style>
      .cls-1 {
        fill: #fefefe;
      }

      .cls-1, .cls-2, .cls-3, .cls-4, .cls-5 {
        stroke-width: 0px;
      }

      .cls-2 {
        fill: #ffe896;
      }

      .cls-3 {
        fill: #1d1d1b;
      }

      .cls-4 {
        fill: #5f130e;
      }

      .cls-5 {
        fill: #fff;
      }
    </style>
  </defs>
  <path class="cls-5" d="M611.7,285.1h0c-5.3-4.1-11.2-4.1-14.4-4.1-16.1,0-46.3.5-62.7.8,0-24.3,0-82,0-112.4,0-15.3-6.2-21.6-21.3-22-15.6-.4-37.3-1-54.7-1.4-9.9-41.2-36.9-69.6-80.3-84.3-22.4-7.6-47.1-10.6-77.8-9.6-32.9,1.1-57.6,6-79.9,15.8-36.7,16.2-58.4,42.3-64.6,77.7-7,.1-14.3.3-21.4.4-11.2.2-22.7.4-33.1.7-14.3.4-20.7,7-20.7,21.5,0,13.3,0,26.6,0,39.9v19.5c0,5.1,0,10.2,0,15.3,0,12.8,0,26.1,0,39.2-12.5,0-26.2,0-38.6,0h-10.1c-3.4,0-13.6,0-19.4,9.7-5.8,9.7-.4,17.8,1.9,21.3l.3.5c6.5,9.9,20.3,30.1,25.5,37.7-.6,13.8-1.5,36.5-2.2,55.5-.5,12,6.9,20.2,18.7,20.8,1.5,0,3,0,4.2,0,.4,0,.9,0,1.3,0h15.9c15,0,30.3,0,45.4,0h0c0,0,5.2,0,5.2,0l-3.4,4.3c-1.1,1.4-1.7,3.1-1.7,4.9v46.3c0,3.5,2.8,6.3,6.3,6.3h30.3c0,4.1,0,6.8,0,7.6.1,12.3,7.6,19.6,19.9,19.7,40.4,0,80.7,0,121.1,0s97.4,0,146,0c12,0,18.8-6.6,19.2-18.7,0-.7,0-2.4,0-8.6h30.8c3.5,0,6.3-2.8,6.3-6.3v-46.4c0-1.8-.6-3.5-1.7-4.9l-3.4-4.3h5.1c16.2,0,32.5,0,47.8,0h13.5c14.7,0,22.9-8.1,23.1-22.9.2-15.6.3-37.2.4-53.7,5.3-7.8,20.1-29.5,26.9-40.2,5.9-9.2,4.4-19.3-3.8-25.6Z"/>
  <g>
    <path class="cls-3" d="M604.9,293.8c-2.3-1.8-4.9-1.8-7.6-1.8-22.8,0-73.7,1-73.7,1,0,0,0-84.5,0-123.6,0-9.2-1.5-10.8-10.6-11-18.3-.5-44.8-1.1-63.1-1.6l-1.9-8c-9.5-39.8-35.5-63.9-73.2-76.6-23.9-8.1-48.8-9.9-73.9-9.1-26.1.9-51.7,4.3-75.9,14.9-32.8,14.5-54.5,38-59,74.8-.4,3.2-.4,3.6-.4,3.6-20,.5-43.8.7-63.7,1.3-8.4.2-10,1.9-10,10.5,0,19.8,0,39.6,0,59.4,0,20.1,0,40.3,0,60.4,0,3.8,0,5.1,0,5.1-18.3-.2-41.5-.1-59.8-.1-4,0-7.7.5-10,4.3-2.3,3.9,0,7,2,10,8.1,12.4,27.4,40.6,27.4,40.6-.7,18.1-1.7,41-2.4,59.1-.2,6,2.3,9.1,8.3,9.4,1.7,0,3.3,0,5,0,34.8,0,74.2,0,109-.1,0,0,0,9.6,0,22h-36.7c0,0,0,9.9,0,9.9h36.7c0,1.7,0,3.3,0,5h-36.7v10h36.7c0,1.7,0,3.4,0,5h-36.7v10h36.7c0,9.7,0,17.1,0,18.5,0,6.4,2.6,8.8,8.9,8.8,89,0,178.1,0,267.1,0,6,0,8-2,8.2-8.1,0-1.6,0-9.2.1-19.2h37.1v-10h-37.1c0-1.7,0-3.3,0-5h37.1v-10h-37.1c0-1.7,0-3.4,0-5h37.1v-10h-37.1c0-12.5,0-21.9,0-21.9,34.4.2,74.9.1,109.3.1,8.8,0,12-3.2,12.1-12,.3-16.6.5-37.8.6-54.4,0,0,20.3-32.3,28.5-45.2,2.8-4.4,2.2-8.3-1.3-11Z"/>
    <path class="cls-2" d="M313.8,292.9c-42.4,0-90.4,0-132.8,0,0,0,0-52.2,0-75.7,0-2.7-.5-5.3,3.7-5.5,1.9,0,3.1-1.9,3-4-.1-2.3-1.7-3.8-3.9-3.9-5.1-.2-10.3-.2-15.5,0-2.4,0-4.2,1.4-4.3,4,0,2.6,1.8,4.3,4.1,4.1,4.6-.4,4.6,2.2,4.6,5.5,0,23.6-.4,75.5-.4,75.5h-70.3v-124.8c20.3-.3,45.4-1.4,65.7-2,6.5-.2,7.8-1.3,8.2-7.9,1.8-30.6,17.7-51.9,43.8-66.3,19.7-10.9,41.3-15.5,63.5-17.5,27.7-2.5,55.2-2,82.2,5.6,25.3,7.2,46.7,20,61,42.9,7,11.2,11.2,23.3,12.7,36.4.7,6.1,2.2,7.6,8.6,7.8,20.3.6,45.2.8,65.5,1.2v124.7h-57.7s0-52.5,0-76.3c0-2.4-.3-4.6,3.3-4.8,2.2-.1,3.5-1.9,3.3-4.2-.2-2.3-1.8-3.7-4-3.8-5.2-.2-10.3-.2-15.5,0-2.4,0-4.2,1.5-4.1,4.1,0,2.6,1.9,4.1,4.2,4,4-.2,4.5,1.7,4.5,5.1-.1,23.5,0,75.9,0,75.9-42.8-.1-90.9-.4-133.6-.4v.3Z"/>
    <path class="cls-5" d="M589.5,306.3c-7.1,11.1-17.5,29-24.7,39.7l-1,56.9s-437-.1-500.9,0c0,0,1.3-42,2-57.3,0,0-.9-1.9-3.3-5.4-7.3-10.9-14.3-21.9-22.2-33.9h550.1Z"/>
    <path class="cls-3" d="M261,396.9c-24.1,0-43.4-19.1-43.4-42.6,0-24.2,19.2-42.8,44.2-42.8,24.1,0,43.3,19,43.2,42.8,0,23.9-19.5,42.7-43.9,42.6Z"/>
    <path class="cls-1" d="M420.5,338.8c3.8,8.8,7.2,16.5,10.7,24.6h-21.3c3.4-8,6.8-15.7,10.7-24.6Z"/>
    <path class="cls-5" d="M261.5,376.7c-15.2,0-26-9.9-25.7-23.6.2-11.6,10.5-20.7,24.3-21.6,15.4-.9,27.6,10.3,26.6,24.6-.8,11.5-11.8,20.5-25.2,20.5Z"/>
    <g>
      <circle class="cls-3" cx="176" cy="197.6" r="4.4"/>
      <circle class="cls-3" cx="451.2" cy="197.6" r="4.4"/>
    </g>
    <g>
      <rect class="cls-2" x="181.4" y="416.2" width="266.2" height="80.5"/>
      <g>
        <g>
          <path class="cls-4" d="M239.4,467.1c-2.2,7.6-3.7,13.5-4.5,17.5-.7,3.9-1.1,6.6-1.1,8.1v.2l-.3,2.1c-.1.2-.4.4-.7.4h-.4c-1,0-2.2-.3-3.5-.9-1.4-.6-2.5-1.2-3.4-1.8-.7-.5-1-1.2-1-2.1v-.8c0-2.1.4-5.2,1.3-9.3.8-4.1,2-8.7,3.4-13.9-.2-.6-.4-1.4-.5-2.4,0-.5,0-1,0-1.5s0-1,0-1.7c0-.7.2-1.2.5-1.5.4-.4,1.2-.6,2.3-.8,2.2-7.2,4.2-13.5,6.1-19.1s3.1-8.9,3.6-10.1c.5-1.2.9-1.8,1.3-2-3.1,1.2-5.8,2.6-8.2,4.1-2.4,1.5-4,3-5,4.5-.4.7-.6,1.2-.6,1.6,0,.2,0,.3-.2.4,0,0,0,0-.1,0s0,0-.2,0c-1.6-.9-2.7-2-3.2-3.4-.5-1.2-.8-2.4-.8-3.5v-1c0-.6,0-1,.3-1.3,2.4-3.2,6.2-5.9,11.2-8.1,5.1-2.2,10.3-3.4,15.8-3.7.5,0,1,0,1.4,0,4.9,0,9.2,1.1,12.7,3.4,3.3,2.4,5.3,5.8,6,10.2.2,1.2.3,2.4.3,3.6,0,3.3-.9,7.2-2.6,11.5-1.8,4.3-5.1,8.5-10.1,12.6-5,4.1-11.5,7-19.6,8.7h-.2c0,.1-.2.1-.3.2ZM243,427.3c.1,0,.3,0,.5,0,1.4,0,3.3.8,5.7,2.5.5.4.9.8,1.1,1.4.1.4.2.9.2,1.3v.5c0,.3,0,.6-.2.9l-.2.5c-3.2,9-5.8,16.7-7.9,23.3,6.8-2.2,12.1-5.5,15.8-9.7s5.9-8.4,6.5-12.5c.1-.9.2-1.7.2-2.5,0-2.9-.9-5.1-2.8-6.7-1.6-1.2-3.7-1.7-6.3-1.7s-2,0-4.1.3-5,1-8.6,2.5Z"/>
          <path class="cls-4" d="M305.9,466.7c.7.4,1.1,1.1,1.1,2s-.1,1.2-.4,1.9c-2.5,6.7-6,11.7-10.4,15-4.4,3.3-9,5.2-13.8,5.5-.7,0-1.4,0-2.1,0-3.9,0-7.5-1-10.8-3.1-3.3-2.1-5.4-5.3-6.2-9.8-.1-.9-.2-1.9-.2-2.8,0-3.6,1-7.7,3-12.5,2-4.7,5.3-9,9.9-12.7,3.1-2.4,6.5-4,10.1-4.8,1.8-.4,3.4-.6,5-.6s3.2.2,4.6.6c3.7,1.3,5.8,3.6,6.2,6.7,0,.4,0,.8,0,1.3,0,2.8-1.1,5.9-3.2,9.4-2.1,3.5-5.3,6.6-9.5,9.5-4.2,2.9-9,4.7-14.4,5.4.4,2.1,1.3,3.9,2.6,5.3,1.4,1.4,3.3,2.1,5.7,2.1,3.4,0,6.3-1,8.8-3,2.4-1.9,4.4-4.3,6.1-7,1.6-2.8,3-5.5,4-8.1.4-1,.8-1.6,1.2-1.7h.1c.4,0,1,.3,1.9.8.2.1.5.3.8.4ZM274.8,469.6c2.6,0,5.2-.7,7.6-2,2.4-1.3,4.5-3,6.4-4.9,1.9-1.9,3.3-3.9,4.3-5.9,1-1.8,1.4-3.4,1.4-4.8s0-.5,0-1.2c0-.7-.8-1.2-2.3-1.4h-.3c-2.3,0-4.5.9-6.5,2.6-2,1.8-3.8,3.8-5.4,6.3-1.6,2.4-2.8,4.6-3.6,6.4-.7,1.5-1.3,3.2-1.6,4.9Z"/>
          <path class="cls-4" d="M316.3,422.5c.3-.7.6-1.2.8-1.5.3-.3.5-.5.8-.6.2,0,.4,0,.6,0h.2c0,0,.1,0,.2,0,.5,0,1.2.2,2.1.7,1,.5,2,1.1,3.2,1.9.5.4.9.9,1.1,1.4.1.4.2.9.2,1.3s0,.2,0,.5c0,.3,0,.6-.1.9l-.2.5c-2.4,6.5-5.6,15.7-9.4,27.7-3.8,12-6.4,21.8-7.7,29.3,0,.5.3.9.6,1.1.1,0,.3.1.4.1.2,0,.5,0,.8-.3,1.1-1,2.2-2.6,3.5-4.9,1.3-2.3,2.5-4.7,3.7-7.1,1.1-2.4,2-4.3,2.5-5.7.4-.9.8-1.4,1.2-1.4h0c.4,0,1,.3,1.9.8l.8.4c.7.5,1.1,1.1,1.1,2s-.1,1.1-.4,1.8c-1.4,3.4-3,6.7-4.9,10-1.3,2.4-2.8,4.6-4.5,6.6-1.7,1.9-3.7,3.1-6.1,3.5-.3,0-.6,0-.9,0-2.7,0-5-.9-6.9-2.6-2-1.8-3-3.8-3-6.2v-.6c.5-4.4,2.2-11,4.9-19.9,2.7-8.9,5.5-17.3,8.3-25.3,2.8-8,4.5-12.7,5.2-14.3Z"/>
          <path class="cls-4" d="M368,458c.6.4,1,1,1,1.7s0,.5-.1.8c-1.9,3.7-4.2,6.7-6.7,8.9-2.5,2.2-5.2,3.8-8,4.7-2.7,5.5-5.8,9.5-9.3,12.2-1.9,1.5-4.2,2.7-6.9,3.7-2.3.9-4.6,1.3-6.8,1.3s-.8,0-1.2,0c-4.3-.3-7.9-2.7-10.6-7.2-1.1-2-1.6-4.3-1.6-6.8s.2-2.4.5-4.7c.3-2.3,1.2-5.2,2.6-8.8,1.4-3.6,2.8-6.8,4.1-9.5.7-1.2,1.4-2,2.1-2.4.6-.3,1.2-.5,1.7-.5s.3,0,.7,0c.3,0,.7.2,1.1.4.3.1.6.3.9.5,2.4-3.2,5.5-5.2,9.4-6.1,1.2-.3,2.3-.4,3.5-.4,2.6,0,5.2.7,7.6,2.1,3.1,2.1,5,4.8,5.6,8.2.2,1.2.3,2.4.3,3.7,0,2.3-.4,4.6-1.1,7.1,2.6-1.9,4.9-4.7,6.9-8.5.6-1.2,1.1-1.8,1.5-1.9h.1c.4,0,1.1.3,2.1,1,.2.1.4.3.6.4ZM341,482.7c2.2-1.6,4.3-4.2,6.3-7.5h-.2c-3.6,0-6.9-.8-9.9-2.3-3-1.5-5.4-3.7-7-6.4l-.2.7c-.2.5-.4,1-.5,1.6,0,.2-.3.9-.6,2.2-.3,1.3-.5,2.8-.5,4.5v.2c0,1.6.4,3.2,1.1,4.8.8,1.6,2.2,2.7,4.3,3.5,1,.4,1.9.5,2.8.5s.9,0,1.6-.2c.7-.1,1.6-.7,2.8-1.6ZM349.8,470.1c.8-1.9,1.5-4.1,2-6.5.3-1.4.5-2.7.5-4s-.1-2.2-.4-3.8c-.3-1.5-1.4-2.9-3.3-4-1-.5-2-.8-3-.8s-2.3.4-3.9,1.3c-1.6.8-2.8,3.1-3.7,6.7-.2.9-.3,1.7-.3,2.5,0,2.4.8,4.5,2.4,6.2,1.7,1.7,4,2.6,6.9,2.6s1.8,0,2.8-.2Z"/>
          <path class="cls-4" d="M379.3,420.4c.5,0,1.2.2,2.1.7.9.4,2,1.1,3.1,1.9.5.4.9.9,1.1,1.4.2.5.3,1,.2,1.5,0,.5,0,.9-.2,1.2l-.2.5c-.8,2.2-1.8,5-3,8.5,6.4-.4,11.4-.5,15.1-.5s4.1,0,5.4.2c1,.2,1.7.7,1.9,1.6,0,.3.1.7.1,1.1s-.1,1.2-.4,2.1-.7,1.6-1.2,2.4c-.6.8-1.2,1.2-1.7,1.2-1.6-.1-3.7-.2-6.3-.2s-2.6,0-5,0c-2.5,0-6,.2-10.6.4-2.4,7.2-4.7,14.6-6.8,22-2.1,7.4-3.6,13.5-4.4,18.3,0,.5.3.9.6,1.1.1,0,.3.1.4.1.2,0,.5,0,.8-.3,1.1-1,2.2-2.6,3.5-4.9,1.3-2.3,2.5-4.7,3.7-7.1,1.1-2.4,2-4.3,2.5-5.7.4-.9.7-1.4,1.1-1.4h0c.4,0,1.1.3,1.9.8.2.1.5.3.8.4.7.5,1.1,1.1,1.1,2s-.1,1.1-.4,1.8c-1.4,3.4-3,6.7-4.8,10-1.3,2.4-2.8,4.6-4.5,6.6-1.7,1.9-3.7,3.1-6.1,3.5-.3,0-.6,0-.9,0-2.8,0-5.1-.9-7-2.6-1.9-1.8-2.9-3.8-2.9-6.2v-.6c.4-3.5,1.5-8.8,3.6-15.8,2-7,4.3-14.1,6.8-21.3-4.7.3-8.5.7-11.3,1-.4,0-.6-.4-.6-1.1v-.2c0-.7.2-1.5.5-2.5.3-1,.8-1.9,1.5-2.7.7-.8,1.6-1.4,2.7-1.7,3.4-.4,6.8-.7,10.1-1,2.8-7.9,4.5-12.7,5.2-14.3.2-.7.5-1.2.8-1.5.3-.3.5-.5.8-.6.2,0,.4,0,.6,0h.4Z"/>
          <path class="cls-4" d="M421,466.7c.7.4,1.1,1.1,1.1,2s-.1,1.2-.4,1.9c-2.5,6.7-6,11.7-10.4,15-4.4,3.3-9,5.2-13.8,5.5-.7,0-1.4,0-2.1,0-3.9,0-7.5-1-10.8-3.1s-5.4-5.3-6.2-9.8c-.1-.9-.2-1.9-.2-2.8,0-3.6,1-7.7,3-12.5,2-4.7,5.3-9,9.9-12.7,3.1-2.4,6.5-4,10.1-4.8,1.8-.4,3.4-.6,5-.6s3.2.2,4.6.6c3.7,1.3,5.8,3.6,6.2,6.7,0,.4,0,.8,0,1.3,0,2.8-1.1,5.9-3.2,9.4-2.1,3.5-5.3,6.6-9.5,9.5-4.2,2.9-9,4.7-14.4,5.4.4,2.1,1.3,3.9,2.6,5.3,1.4,1.4,3.3,2.1,5.7,2.1,3.4,0,6.3-1,8.8-3,2.4-1.9,4.4-4.3,6.1-7,1.6-2.8,3-5.5,4-8.1.4-1,.8-1.6,1.2-1.7h.1c.4,0,1,.3,1.9.8.2.1.5.3.8.4ZM390,469.6c2.6,0,5.2-.7,7.6-2,2.4-1.3,4.5-3,6.4-4.9,1.9-1.9,3.3-3.9,4.3-5.9,1-1.8,1.4-3.4,1.4-4.8s0-.5,0-1.2c0-.7-.8-1.2-2.3-1.4h-.3c-2.3,0-4.5.9-6.5,2.6-2,1.8-3.8,3.8-5.4,6.3s-2.8,4.6-3.6,6.4c-.7,1.5-1.3,3.2-1.6,4.9Z"/>
        </g>
        <g>
          <path class="cls-3" d="M292,101.5c0,0,0-.2,0-.3h0c0-.2,0-.3,0-.4,0-.1-.2-.3-.3-.4-.2-.2-.4-.3-.6-.4-.2-.1-.4-.1-.5-.1h0c0,0-.1,0-.2,0,0,0-.2.1-.3.2-.3.4-.8.9-1.4,1.6,0,0,0,.1-.1.2-.6.7-1.3,1.5-2,2.3-.1.2-.2.3-.2.5h0c0,.3,0,.4.2.6,0,.2.2.3.3.3.2.2.4.2.6,0,.4-.4.8-.8,1.2-1.3-.3.9-.6,1.8-.8,2.7-.4,1.4-.8,2.7-1.1,3.9-.3,1.2-.4,2.1-.4,2.6h0c0,.4.1.6.3.7.2.1.4.2.7.4.3.1.5.2.8.2s0,0,0,0c0,0,.1,0,.2,0,0,0,.1,0,.1-.1v-.5c0,0,0,0,0,0,0-.5.3-1.7.8-3.8.5-2.1,1.4-5.1,2.8-8.8h0Z"/>
          <path class="cls-3" d="M300.8,101.7v-.8s0-.1,0-.1c0,0,0-.1-.2-.2,0,0-.2-.2-.3-.3-.1,0-.2-.1-.4-.2-.2,0-.4,0-.6,0-.2,0-.3,0-.5.2-.3-.2-.6-.4-1-.4-.4,0-.6,0-.7,0-.6,0-1.3.2-2.2.6-.7.4-1.4.9-1.9,1.7-.5.8-.9,1.5-1,2.3-.2.7-.3,1.3-.3,1.8s0,.7,0,1c.2.8.6,1.4,1.2,1.7.6.3,1,.5,1.4.6.4,0,.6,0,.7,0,.4,0,.8,0,1-.2.3-.1.5-.2.8-.4-.1.4-.2.8-.3,1.1-.2.5-.5,1.1-.9,1.6-.4.5-.8.9-1.2,1.2-.4.3-.7.4-1,.4s-.2,0-.2,0c-.4-.1-.7-.3-.9-.6-.2-.3-.4-.5-.5-.8-.2-.3-.3-.4-.4-.5h-.1c-.1,0-.3,0-.4.2-.2.1-.3.3-.4.5,0,.2-.1.4-.1.6s0,.2,0,.4c0,.3.3.6.7.9.5.4,1,.6,1.5.7.5.1.9.2,1.3.2s.7,0,1,0c.7-.1,1.3-.4,1.8-.9.7-.6,1.3-1.4,1.8-2.5.5-1.1,1-2.5,1.4-4.3.3-1.2.5-2.3.6-3.2.1-.9.2-1.6.2-2.2ZM298.4,102.3h0c0,.3,0,.7-.2,1.3-.1.7-.3,1.4-.4,2.2,0,.2-.2.4-.4.7-.2.3-.4.5-.6.7-.2.2-.5.3-.7.3-.6,0-1-.1-1.3-.6-.1-.3-.2-.6-.2-1s0-.9.2-1.5c.2-.7.5-1.3.9-1.8.5-.6.9-.8,1-.9.4,0,.6-.1.6-.1.4,0,.7.2,1,.5Z"/>
          <path class="cls-3" d="M309.4,111.1h-.2c-1,0-2.9.3-5.7.8.2-.2.4-.5.7-.8.5-.6,1.1-1.2,1.8-1.9.8-.8,1.6-1.6,2.4-2.5.8-.9,1.6-1.8,2.3-2.7.7-.9,1.1-1.7,1.4-2.3.2-.6.4-1.2.4-1.5s0-.7-.2-1c-.5-.9-1-1.5-1.6-1.6-.6-.1-1-.2-1.4-.2s-1,0-1.5.2c-.9.3-1.7.7-2.5,1.2-.8.5-1.5,1.1-2,1.7-.5.6-.8,1.1-.8,1.6,0,.5.2.9.5,1.2.3.3.5.4.8.5.5.1.7,0,.8,0,0,0,.2-.2.2-.2,0,0,0-.1,0-.3,0,0,0,0,0-.2,0,0,.1-.2.7-.8.4-.4,1-.8,1.5-1.3.6-.4,1.1-.8,1.5-1,.8-.4,1-.3,1.1-.3,0,0,0,.2,0,.3,0,.3-.1.6-.4,1.1-.4.7-1.1,1.6-1.9,2.5-.9.9-1.8,1.9-2.8,2.9-.9.9-1.7,1.8-2.5,2.6-.8.8-1.4,1.6-1.9,2.3-.5.7-.8,1.4-.8,1.9v.2c0,.1,0,.3.1.4,0,.2.1.4.2.5,0,.2.2.3.3.5l.2.2v-.2c1.3-.3,2.8-.5,4.6-.8,1.8-.3,3.2-.4,4.3-.5.2,0,.4-.2.6-.5.1-.2.3-.5.3-.7,0-.2,0-.4,0-.6s0-.3,0-.4c0-.3-.3-.5-.7-.5Z"/>
          <path class="cls-3" d="M321.4,103.3c.5-.8.8-1.6.8-2.3s0-.2,0-.2c0-.9-.3-1.6-.7-2.1-.5-.5-1-.8-1.7-.8,0-.3-.2-.5-.4-.7-.2-.2-.5-.3-.8-.3-.3,0-.5,0-.6,0h0s0,0,0,0h0c-.1,0-.3,0-1,.3-.5.2-1.1.5-1.6,1-.6.4-1,1-1.3,1.7-.2.5-.3,1.1-.3,1.5s0,.8.2,1.2c.2.7.5,1.2.9,1.7h-.3c-.4.3-.8.6-1.3,1-.5.4-1,.9-1.5,1.5-.5.6-.8,1.3-1.1,2.1-.1.6-.2,1.2-.2,1.7s0,.8.1,1.2c.2.8.6,1.5,1,2,.5.5.9.9,1.4,1,.3,0,.5.1.7.1.2,0,.3,0,.3,0,.1,0,.3,0,.4,0,.2,0,.3,0,.4-.1h0s.1,0,.1,0c.2,0,.3.1.5.1.2,0,.4,0,.6,0s.3,0,.5,0c.4,0,.7-.2,1.1-.3.8-.4,1.6-1,2.3-1.7.7-.8,1.1-1.8,1.3-2.9,0-.2,0-.3,0-.5,0-.6-.1-1.2-.3-1.7-.3-.7-.6-1.3-1-1.8-.2-.3-.5-.6-.7-.8,1-.5,1.8-1,2.2-1.7ZM318.2,109.2c0,.3,0,.6,0,.9-.2.7-.4,1.2-.8,1.7-.4.4-.8.8-1.3,1-.4.2-.8.3-1.1.3h0c-.5,0-.9-.2-1.2-.7-.3-.4-.5-1.1-.5-1.8s0-.3,0-.5c0-.5.3-1,.6-1.4.4-.5.8-.9,1.2-1.3.5-.4.9-.7,1.2-.9l.4-.2h0c.5.5.9,1,1.2,1.5.3.5.4,1,.4,1.5ZM316.6,101.3c0-.2,0-.4,0-.6,0-.4.2-.6.4-.8.2-.2.4-.4.7-.5.2-.1.5-.2.6-.2h.2c.2,0,.4.2.6.5.2.3.3.6.3,1s0,.3,0,.4c-.2.6-.5,1-.9,1.3-.4.3-.8.5-1.2.7h0c0-.2-.2-.4-.3-.6-.1-.2-.2-.4-.2-.6,0-.2,0-.4,0-.6Z"/>
        </g>
      </g>
    </g>
    <path class="cls-3" d="M148,360.6c-2-9.1-8-14.6-17-18,5.4-6.1,6.5-12.6,3.1-19.6-3.3-6.8-9.3-9.1-16.4-9.2-8.8-.1-21.3,0-30.1,0v81s23.4.1,33.3-.1c18-.4,30.9-16.8,27-34ZM106.7,329.9h9.8c1.7,0,3.1,1.4,3.1,3.1s-1.4,3.1-3.1,3.1h-9.8v-6.2ZM130.4,367c0,6.6-5.4,12-12,12h-11.7v-24.4h11.7c6.6,0,12,5.4,12,12v.4Z"/>
    <path class="cls-3" d="M222.4,394.6c-9.3-10.6-17.8-20.4-26.5-30.3,1.2-.6,1.8-.8,2.4-1.1,12.6-5.7,18.5-16.4,15.9-28.7-2.8-12.9-12.7-20.7-26.6-20.7-10.5,0-35.1,0-35.1,0v81h19.4s0-21.5,0-31.9l27.6,31.9h22.9ZM184.7,350.4h-12.8v-20.5h12.8c5.7,0,10.2,4.6,10.2,10.2s-4.6,10.2-10.2,10.2Z"/>
    <path class="cls-3" d="M428.9,314.3h-16.6l-36.3,80.7h20.4l5.4-12.7h37.7c0-.1,5.9,12.7,5.9,12.7h19.7l-36.2-80.7ZM409.7,364.1l10.8-24.6,11.4,24.6h-22.2Z"/>
    <path class="cls-3" d="M380.2,386c0-5.8-.1-13.1-.1-19.4-1.6,1.1-2.8,1.9-4,2.7-10,6-20.6,7.2-31.6,3.3-9.3-3.2-15.5-11.3-15.9-20-.3-8.6,5.5-17,14.8-20.7,10.9-4.2,21.5-3.4,31.4,3,1.7,1.1,3.4,2.3,5.4,3.7v-21.2s-.8-.7-3-2.1c-7.6-4.7-15.8-6.1-24.7-5.9-22.6.5-41.8,19.4-42.3,42.1-.5,22,18.3,41.9,40.6,43.3,10.1.6,19.5-1.2,28.4-7.1l1-1.7Z"/>
    <path class="cls-3" d="M466.7,383.7c5.8,8.5,14.3,11.2,17.6,12.2,3.3,1,16.4,2.8,26.5-2.3,3-1.5,9.8-5.4,13.4-13.8.9-2.2,3.8-9.2,1.1-17.2-3.2-9.3-11.6-13.2-13.2-13.9-3.1-1.4-6.6-1.9-13.4-2.9-8.1-1.2-12.3-.9-14.7-4.1-.3-.4-1.8-2.6-1.2-4.9.6-2.2,2.6-3.4,4.1-4,5.9-2.4,11.3-1.3,13.6-.7,4.4,1.2,5.8,2.9,6.3,3.6.7.9,1,1.9,1.2,2.5l18-1.3c-.2-2.7-.9-7.1-3.7-11.6-5.3-8.7-13.5-11.2-17.5-11.8s-21.1-2.3-30.8,5.4-11.4,15.4-8.2,25.8c2.6,8.5,9.7,14.5,17.1,16.1,2.6.5,10.3,2.4,17.1,3.1,2.9.3,6.6,1,8.1,3.1,1.6,2.3,1.2,5.3-.5,7.5-2.4,3-7.8,3.3-13.3,3.2-3.7-.1-7.5-.5-10.9-3.3-1.6-1.3-2.5-2.7-3.1-3.7l-18.8.7s2.3,8.4,5.2,12.6Z"/>
  </g>
</svg>