<svg width="256" height="256" viewBox="0 0 256 256" fill="none" xmlns="http://www.w3.org/2000/svg">
<path d="M127.731 252.173C59.1097 252.173 3.28204 196.352 3.28204 127.731C3.28204 59.1097 59.1097 3.28198 127.731 3.28198C196.352 3.28198 252.18 59.1097 252.18 127.731C252.18 196.352 196.352 252.18 127.731 252.18V252.173Z" fill="white"/>
<path d="M127.731 207.531C172.448 207.531 208.699 171.28 208.699 126.562C208.699 81.8449 172.448 45.5942 127.731 45.5942C83.0134 45.5942 46.7627 81.8449 46.7627 126.562C46.7627 171.28 83.0134 207.531 127.731 207.531Z" fill="#FECB02"/>
<path d="M127.731 209.172C82.176 209.172 45.1216 172.111 45.1216 126.562C45.1216 81.014 82.1826 43.9531 127.731 43.9531C173.279 43.9531 210.34 81.014 210.34 126.562C210.34 172.111 173.279 209.172 127.731 209.172ZM127.731 47.2352C83.9877 47.2352 48.4037 82.8192 48.4037 126.562C48.4037 170.306 83.9877 205.89 127.731 205.89C171.474 205.89 207.058 170.306 207.058 126.562C207.058 82.8192 171.474 47.2352 127.731 47.2352Z" fill="#E30613"/>
<path d="M74.1087 90.9522C74.1087 90.9522 38.8529 153.797 126.989 203.612C126.989 203.612 221.256 153.797 176.036 86.3508C176.036 86.3508 175.268 107.809 171.435 119.303C171.435 119.303 169.899 78.6839 153.042 71.7851C153.042 71.7851 151.506 130.028 143.846 125.433C136.179 120.832 137.892 102.393 142.27 85.7338C144.318 77.9422 141.548 51.095 133.113 51.8565C133.113 51.8565 132.45 74.3713 123.123 91.7006C121.495 94.72 120.235 97.9102 119.545 101.278C117.57 110.96 119.92 133.376 119.92 133.376C119.92 133.376 117.012 103.496 110.113 95.7375C110.113 95.7375 103.792 134.827 101.776 135.687C99.7613 136.547 104.251 102.393 104.074 95.4487C103.785 83.9549 91.182 75.52 91.182 75.52C91.182 75.52 97.7526 95.4487 84.8214 105.794C84.8214 105.794 72.2708 95.3502 74.0891 90.9457L74.1087 90.9522Z" fill="#E51F1E"/>
<path d="M189.086 108.741C182.81 101.776 172.071 101.218 165.107 107.5C161.831 110.454 157.04 117.301 153.534 124.442C151.309 128.433 144.903 138.739 143.905 140.262C143.202 141.332 134.919 150.259 127.724 157.86C120.53 150.259 112.246 141.332 111.544 140.262C110.546 138.739 104.133 128.433 101.914 124.442C98.409 117.294 93.6172 110.448 90.3417 107.5C83.3772 101.225 72.6449 101.776 66.3631 108.741C60.0878 115.705 60.6392 126.438 67.6037 132.72C71.0498 135.824 78.6708 140.478 86.2457 143.544C86.2457 143.544 100.713 149.747 103.844 152.123C105.853 153.653 112.358 157.565 121.206 164.687C119.257 166.702 117.799 168.179 117.235 168.691C114.537 171.126 109.41 169.341 108.925 169.144C108.439 168.94 107.54 168.015 106.68 167.247C105.82 166.479 104.5 167.168 103.555 168.021C102.61 168.875 104.002 171.71 104.002 171.71C113.625 184.32 117.635 179.692 117.635 179.692C121.141 176.141 124.528 172.977 127.718 170.168C130.908 172.977 134.288 176.141 137.8 179.692C137.8 179.692 141.811 184.313 151.434 171.71C151.434 171.71 152.819 168.875 151.88 168.021C150.942 167.168 149.616 166.479 148.756 167.247C147.896 168.015 146.99 168.94 146.511 169.144C146.025 169.347 140.905 171.126 138.201 168.691C137.636 168.179 136.179 166.702 134.229 164.687C143.078 157.565 149.583 153.646 151.591 152.123C154.722 149.747 169.19 143.544 169.19 143.544C176.771 140.478 184.386 135.824 187.832 132.72C194.796 126.444 195.354 115.705 189.072 108.741H189.086Z" fill="black"/>
<path d="M127.731 194.599C131.617 194.599 134.768 191.449 134.768 187.563C134.768 183.676 131.617 180.526 127.731 180.526C123.845 180.526 120.694 183.676 120.694 187.563C120.694 191.449 123.845 194.599 127.731 194.599Z" fill="black"/>
<path d="M59.2082 73.7807C56.9764 76.7608 54.6593 78.3755 51.2919 78.8088L50.793 75.3035C53.3465 74.9556 54.9875 73.7085 56.5104 71.6736C58.4533 69.0808 58.4533 66.7308 56.5038 65.2736C55.6308 64.6172 54.7052 64.3152 53.8322 64.4859C52.9789 64.6303 52.4012 64.9782 51.3575 66.0219L49.2636 68.1093C47.8261 69.5534 46.3032 70.4133 44.8328 70.6627C43.1721 70.9384 41.5442 70.4592 39.9098 69.2317C36.4111 66.6061 35.8925 62.3 38.9777 58.1778C40.9403 55.5587 42.9949 54.2262 45.8765 53.7339L46.3557 57.0947C44.2486 57.4295 42.8176 58.5782 41.5639 60.2455C39.8113 62.5823 40.2051 64.8797 41.984 66.2188C42.7192 66.7702 43.5331 67.0328 44.4127 66.8621C45.2398 66.698 46.185 66.1466 47.0121 65.3327L49.0404 63.3306C50.7011 61.7027 51.9286 61.0135 53.3137 60.7443C55.086 60.3768 56.9239 60.9281 58.6437 62.2213C62.3393 64.9913 62.3065 69.6256 59.1951 73.7741L59.2082 73.7807Z" fill="black"/>
<path d="M79.511 53.5698L75.0211 50.7078L67.4002 56.8387L69.2316 61.8406L66.1137 64.348L57.449 39.0828L59.8121 37.1858L82.6355 51.0557L79.5175 53.5632L79.511 53.5698ZM62.254 42.5093L66.2318 53.6157L72.1723 48.8371L62.254 42.5093Z" fill="black"/>
<path d="M98.8291 43.73L89.8101 36.1222L85.504 38.0061L89.7379 47.7078L86.2917 49.211L76.2355 26.1907L85.038 22.3441C89.344 20.4602 93.3153 22.075 95.0285 25.9872C96.4661 29.2824 95.4092 32.2494 93.1709 34.0742L102.853 41.9708L98.8357 43.7234L98.8291 43.73ZM86.1604 25.5868L81.0536 27.8186L84.2043 35.026L89.3112 32.7942C91.6086 31.7899 92.5932 29.7813 91.6021 27.5167C90.6109 25.252 88.4579 24.5759 86.1604 25.5802V25.5868Z" fill="black"/>
<path d="M117.898 39.4175L107.966 40.7697L104.579 15.8786L114.137 14.5789C118.692 13.9619 121.909 16.1937 122.48 20.3882C122.847 23.0794 121.449 25.2259 119.887 26.1186C121.889 26.6306 123.937 28.2388 124.363 31.383C124.987 35.9648 122.25 38.8267 117.904 39.4175H117.898ZM114.281 18.012L108.761 18.7668L109.732 25.8954L115.253 25.1406C117.635 24.8189 119.079 23.3354 118.771 21.0314C118.456 18.7274 116.664 17.6837 114.288 18.012H114.281ZM116.06 28.4883L110.198 29.2891L111.229 36.8772L117.09 36.0764C119.677 35.7219 120.904 33.9168 120.609 31.7178C120.313 29.5188 118.646 28.1404 116.06 28.4948V28.4883Z" fill="black"/>
<path d="M145.539 40.4808L144.515 35.2558L134.82 33.9692L132.464 38.7413L128.499 38.2162L140.813 14.5198L143.813 14.9202L149.511 41.0125L145.539 40.4874V40.4808ZM141.647 20.3618L136.35 30.9038L143.905 31.9081L141.647 20.3618Z" fill="black"/>
<path d="M151.972 41.9971L153.193 38.9514L170.68 26.1251L160.505 22.0423L161.779 18.8652L176.056 24.5957L174.901 27.4773L157.282 40.4414L167.975 44.7344L166.702 47.9114L151.972 41.9971Z" fill="black"/>
<path d="M183.066 59.018L184.655 53.9373L176.745 48.1872L172.4 51.2658L169.164 48.9092L191.285 33.9365L193.733 35.7154L186.316 61.3745L183.079 59.018H183.066ZM189.23 39.4635L179.548 46.2114L185.712 50.6947L189.223 39.4635H189.23Z" fill="black"/>
<path d="M198.525 76.2683L205.325 56.3331L191.442 67.2755L189.118 64.3216L208.85 48.7778L210.983 51.4822L204.216 71.3977L218.073 60.4816L220.396 63.4355L200.665 78.9793L198.531 76.2749L198.525 76.2683Z" fill="black"/>
<path d="M45.2792 188.449L42.286 184.268L34.9604 189.506L32.9649 186.716L51.5873 173.384L56.576 180.355C59.1426 183.946 58.3811 187.963 55.1385 190.28C51.8958 192.604 47.8458 192.026 45.2792 188.442V188.449ZM53.9307 182.023L51.049 177.999L44.8525 182.436L47.7342 186.46C49.1192 188.396 51.1869 188.908 53.1496 187.504C55.1122 186.099 55.3223 183.959 53.9372 182.023H53.9307Z" fill="black"/>
<path d="M53.0445 200.461C51.1015 202.476 50.9243 204.761 52.8213 206.592C54.121 207.846 55.1647 208.135 56.7926 208.095L56.9173 210.937C54.5674 210.997 52.8476 210.544 50.8127 208.587C47.9114 205.791 47.0974 202.017 51.4035 197.547C55.0663 193.746 59.1229 193.418 62.0964 196.28C65.2078 199.273 64.7811 203.33 61.5647 206.664L60.5604 207.708L53.038 200.468L53.0445 200.461ZM61.0593 201.931C61.5385 200.697 61.3022 199.306 60.1994 198.249C59.1032 197.192 57.6788 196.982 56.4644 197.507C55.7227 197.822 55.342 198.124 54.6265 198.82L59.8384 203.842C60.5079 203.1 60.7705 202.686 61.0593 201.931Z" fill="black"/>
<path d="M64.0131 219.202C61.5254 217.39 61.6829 214.915 63.1007 212.966L73.9381 198.098L76.5506 200.008L65.8248 214.718C65.0831 215.729 65.0634 216.517 66.1202 217.278L67.2755 218.119L65.6279 220.377L64.0131 219.202Z" fill="black"/>
<path d="M79.8786 226.665C78.4345 227.125 76.6425 227.098 74.7192 226.055C72.7959 225.011 71.831 223.528 71.4306 222.07C70.8595 219.93 71.5093 217.942 72.8353 215.513C74.1415 213.11 75.4609 211.489 77.568 210.8C79.0121 210.34 80.7779 210.347 82.7011 211.397C84.6244 212.441 85.6156 213.937 86.016 215.401C86.5871 217.541 85.9372 219.53 84.6244 221.932C83.2985 224.361 81.9791 225.989 79.872 226.672L79.8786 226.665ZM82.944 215.926C82.7077 215.099 82.1366 214.423 81.303 213.97C80.4693 213.517 79.616 213.419 78.7955 213.668C77.4564 214.075 76.5243 215.513 75.6841 217.062C74.8439 218.611 74.135 220.173 74.5223 221.519C74.7586 222.346 75.2903 223.035 76.1239 223.488C76.9575 223.941 77.8568 224.026 78.6773 223.777C80.0164 223.37 80.9485 221.939 81.7887 220.383C82.6355 218.828 83.3379 217.272 82.9506 215.926H82.944Z" fill="black"/>
<path d="M91.182 233.177C88.3528 232.133 87.8015 229.593 88.6154 227.394L91.7268 218.979L90.0004 218.342L90.8735 215.992L92.5998 216.629L94.3196 211.981L97.3588 213.104L95.639 217.751L98.5535 218.828L97.6804 221.178L94.766 220.101L91.7071 228.365C91.2936 229.481 91.5824 230.341 92.718 230.761L93.9651 231.221L92.9937 233.846L91.1754 233.177H91.182Z" fill="black"/>
<path d="M102.558 229.114C101.973 231.851 103.03 233.886 105.61 234.437C107.382 234.818 108.419 234.509 109.778 233.617L111.386 235.967C109.424 237.26 107.724 237.785 104.96 237.194C101.015 236.354 98.3303 233.577 99.63 227.505C100.733 222.346 104.008 219.917 108.039 220.784C112.259 221.683 114.038 225.352 113.073 229.882L112.771 231.299L102.558 229.12V229.114ZM110.139 226.127C109.896 224.827 108.958 223.77 107.468 223.449C105.977 223.134 104.652 223.705 103.903 224.794C103.437 225.451 103.273 225.91 103.037 226.882L110.113 228.392C110.29 227.407 110.297 226.915 110.139 226.127Z" fill="black"/>
<path d="M136.527 239.012L127.403 239.603L125.926 216.747L134.695 216.182C138.877 215.913 141.66 218.151 141.909 222.005C142.067 224.479 140.662 226.337 139.179 227.046C140.964 227.637 142.723 229.232 142.907 232.126C143.176 236.334 140.505 238.763 136.514 239.019L136.527 239.012ZM134.623 219.307L129.556 219.635L129.976 226.186L135.043 225.858C137.229 225.72 138.64 224.466 138.503 222.346C138.365 220.226 136.802 219.169 134.617 219.307H134.623ZM135.562 228.949L130.179 229.297L130.632 236.262L136.015 235.914C138.391 235.763 139.625 234.201 139.494 232.172C139.362 230.151 137.938 228.792 135.562 228.943V228.949Z" fill="black"/>
<path d="M159.061 234.877L158.681 233.446C157.854 234.897 156.902 235.651 154.972 236.17C153.042 236.689 151.631 236.564 150.423 235.855C149.399 235.231 148.651 234.129 148.29 232.796C147.581 230.157 148.887 227.775 152.445 226.823L156.554 225.727L156.252 224.611C155.72 222.622 154.48 221.919 152.057 222.569C150.338 223.029 149.622 223.652 149.064 225.004L146.485 223.593C147.489 221.46 148.88 220.521 151.46 219.832C155.72 218.696 158.359 219.95 159.311 223.528L162.127 234.063L159.061 234.883V234.877ZM157.138 227.932L153.488 228.904C151.65 229.396 150.922 230.492 151.303 231.916C151.683 233.341 152.793 233.919 154.749 233.393C155.943 233.072 156.81 232.744 157.42 231.713C157.755 231.122 157.768 230.321 157.473 229.199L157.132 227.925L157.138 227.932Z" fill="black"/>
<path d="M173.883 229.494C171.487 230.597 169.282 231.116 166.761 230.184L167.792 227.335C169.538 228.017 171.271 227.61 172.715 226.947C174.5 226.127 175.623 224.834 174.973 223.429C174.513 222.438 173.673 222.044 172.203 222.576L169.774 223.442C166.925 224.466 164.766 223.941 163.564 221.342C162.232 218.447 163.932 215.683 166.991 214.279C169.183 213.268 171.271 212.874 173.181 213.452L172.209 216.202C170.923 215.834 169.492 216.143 168.107 216.78C166.347 217.587 165.816 218.788 166.328 219.898C166.728 220.777 167.503 221.237 169.124 220.666L171.527 219.812C174.375 218.788 176.594 219.359 177.802 221.992C179.226 225.09 177.369 227.893 173.883 229.494Z" fill="black"/>
<path d="M196.7 223.573L192.013 216.76C191.849 218.591 191.002 219.72 189.591 220.692C188.258 221.611 186.795 221.952 185.554 221.709C183.289 221.276 181.55 219.077 180.145 217.035C178.741 214.994 177.329 212.605 177.736 210.34C177.959 209.093 178.826 207.833 180.158 206.92C181.596 205.929 182.922 205.561 184.753 206.1L183.769 204.669L186.381 202.87L199.358 221.742L196.693 223.573H196.7ZM182.528 208.85C180.126 210.504 181.176 212.821 182.817 215.211C184.458 217.593 186.263 219.438 188.665 217.784C191.068 216.13 189.972 213.799 188.331 211.417C186.69 209.034 184.93 207.196 182.521 208.85H182.528Z" fill="black"/>
<path d="M208.45 204.557L207.294 203.395C207.367 205.043 206.697 206.572 205.548 207.715C204.38 208.876 203.028 209.454 201.695 209.467C199.956 209.467 198.597 208.647 197.304 207.347L189.952 199.956L192.249 197.671L199.26 204.721C201.052 206.526 202.837 206.29 204.117 205.017C205.397 203.743 205.686 201.866 203.914 200.087L196.903 193.037L199.201 190.753L210.701 202.319L208.45 204.557Z" fill="black"/>
<path d="M211.069 190.352C213.36 191.961 215.644 191.777 217.16 189.624C218.197 188.14 218.322 187.07 218.033 185.469L220.823 184.904C221.243 187.215 221.066 188.987 219.445 191.298C217.127 194.599 213.524 195.985 208.443 192.42C204.124 189.394 203.172 185.429 205.542 182.049C208.016 178.517 212.093 178.307 215.88 180.972L217.068 181.806L211.075 190.352H211.069ZM211.279 182.206C209.986 181.918 208.647 182.377 207.774 183.624C206.901 184.871 206.907 186.316 207.616 187.431C208.043 188.114 208.397 188.442 209.198 189.046L213.353 183.125C212.519 182.581 212.066 182.377 211.279 182.213V182.206Z" fill="black"/>
<path d="M127.731 252.173C59.1097 252.173 3.28204 196.352 3.28204 127.731C3.28204 59.1097 59.1097 3.28198 127.731 3.28198C196.352 3.28198 252.18 59.1097 252.18 127.731C252.18 196.352 196.352 252.18 127.731 252.18V252.173ZM127.731 6.56403C60.9214 6.56403 6.56409 60.9214 6.56409 127.731C6.56409 194.54 60.9214 248.898 127.731 248.898C194.54 248.898 248.898 194.547 248.898 127.731C248.898 60.9148 194.54 6.56403 127.731 6.56403Z" fill="#E30613"/>
</svg>
