<svg width="256" height="256" viewBox="0 0 256 256" fill="none" xmlns="http://www.w3.org/2000/svg">
<g clip-path="url(#clip0_1200_46284)">
<path d="M128 254.511C197.867 254.511 254.506 197.87 254.506 127.999C254.506 58.1276 197.867 1.48584 128 1.48584C58.1324 1.48584 1.49365 58.1276 1.49365 127.999C1.49365 197.87 58.1324 254.511 128 254.511Z" fill="url(#paint0_radial_1200_46284)"/>
<path d="M83.4426 173.163C80.9672 173.755 78.9534 173.729 76.9927 172.861C76.3347 172.569 76.0986 171.744 76.4806 171.131L76.7486 170.698C77.0617 170.194 77.6985 170.009 78.2424 170.242C79.7122 170.874 81.1662 170.85 82.8509 170.446C85.4404 169.828 86.6795 168.353 86.2178 166.432C86.0109 165.57 85.5864 164.904 84.9469 164.556C84.3314 164.203 83.7849 164.126 82.575 164.24L80.1553 164.466C78.4864 164.63 77.0723 164.381 76.0137 163.779C74.8198 163.091 74.045 161.95 73.6603 160.337C72.8352 156.885 74.7746 153.916 78.8977 152.929C80.9831 152.43 82.6732 152.475 84.3261 153.11C85.0159 153.375 85.2706 154.227 84.8806 154.856L84.6843 155.171C84.3818 155.657 83.7795 155.848 83.2436 155.649C82.0258 155.198 80.7868 155.246 79.4416 155.569C77.1015 156.129 76.141 157.771 76.5602 159.528C76.7327 160.252 77.1094 160.839 77.7515 161.186C78.3591 161.513 79.2453 161.653 80.2004 161.574L82.5352 161.367C84.4402 161.205 85.5757 161.404 86.5919 161.958C87.9052 162.646 88.7728 163.938 89.1814 165.639C90.0543 169.287 87.5948 172.174 83.4426 173.166V173.163Z" fill="#674C35"/>
<path d="M107.244 164.644C106.27 166.371 104.74 167.602 102.644 168.186C100.548 168.772 98.6293 168.504 96.902 167.53C94.4319 166.14 93.8509 163.954 92.7976 160.175C91.7443 156.397 91.1075 154.227 92.4978 151.756C93.4715 150.027 94.9758 148.806 97.0692 148.22C99.1652 147.633 101.11 147.893 102.837 148.867C105.307 150.26 105.859 152.454 106.915 156.233C107.971 160.011 108.634 162.173 107.241 164.644H107.244ZM101.078 151.29C100.181 150.738 98.9742 150.568 97.8174 150.892C96.6606 151.215 95.7134 151.985 95.2332 152.921C94.5619 154.24 94.676 155.397 95.7771 159.34C96.8782 163.283 97.3796 164.333 98.6372 165.111C99.534 165.663 100.741 165.832 101.898 165.509C103.055 165.185 104.002 164.415 104.482 163.479C105.156 162.16 105.039 161.003 103.938 157.06C102.837 153.118 102.336 152.067 101.078 151.29Z" fill="#674C35"/>
<path d="M115.193 163.123L109.818 145.956C109.619 145.325 109.972 144.651 110.603 144.454L111.266 144.247C111.898 144.048 112.572 144.401 112.768 145.033L117.313 159.549C117.512 160.181 118.183 160.533 118.815 160.334L125.899 158.116C126.53 157.917 127.204 158.27 127.4 158.902L127.514 159.265C127.713 159.897 127.361 160.571 126.729 160.767L116.695 163.909C116.063 164.108 115.389 163.755 115.193 163.123Z" fill="#674C35"/>
<path d="M132.328 157.66L126.496 140.642C126.281 140.016 126.615 139.334 127.241 139.119L137.297 135.672C137.923 135.457 138.605 135.791 138.82 136.418L138.942 136.776C139.157 137.402 138.822 138.084 138.196 138.299L131.065 140.745C130.438 140.96 130.104 141.642 130.319 142.268L131.473 145.635C131.688 146.261 132.37 146.596 132.996 146.381L138.746 144.409C139.372 144.195 140.054 144.529 140.268 145.155L140.383 145.487C140.597 146.113 140.263 146.795 139.637 147.01L133.888 148.981C133.261 149.196 132.927 149.878 133.142 150.504L134.352 154.033C134.567 154.659 135.249 154.994 135.875 154.779L143.007 152.335C143.633 152.12 144.315 152.454 144.529 153.08L144.652 153.439C144.866 154.065 144.532 154.747 143.906 154.962L133.85 158.408C133.224 158.623 132.542 158.289 132.328 157.663V157.66Z" fill="#674C35"/>
<path d="M150.143 151.435L143.977 134.531C143.752 133.91 144.07 133.22 144.694 132.995L145.346 132.756C145.967 132.528 146.657 132.849 146.883 133.472L153.049 150.377C153.274 150.998 152.956 151.688 152.332 151.913L151.68 152.152C151.059 152.38 150.369 152.059 150.143 151.435Z" fill="#674C35"/>
<path d="M159.56 147.973L153.086 131.183C152.847 130.564 153.155 129.872 153.773 129.633L154.423 129.384C155.041 129.145 155.734 129.453 155.972 130.071L161.446 144.269C161.685 144.887 162.377 145.195 162.995 144.956L169.923 142.284C170.541 142.045 171.234 142.353 171.472 142.971L171.61 143.327C171.849 143.945 171.541 144.638 170.923 144.876L161.109 148.66C160.491 148.899 159.798 148.591 159.56 147.973Z" fill="#674C35"/>
<path d="M196.407 132.984L191.064 120.734C190.652 119.789 189.318 119.77 188.88 120.704C188.442 121.641 187.108 121.622 186.696 120.678L186.68 120.641C186.54 120.322 186.548 119.956 186.699 119.643L188.543 115.798C188.668 115.538 188.88 115.334 189.145 115.217L190.315 114.708C190.923 114.443 191.629 114.721 191.894 115.326L199.087 131.819C199.352 132.427 199.073 133.133 198.466 133.398L197.986 133.607C197.378 133.873 196.672 133.594 196.407 132.987V132.984Z" fill="#674C35"/>
<path d="M211.769 126.085L206.155 113.962C205.722 113.026 204.388 113.039 203.971 113.981C203.555 114.923 202.22 114.936 201.788 114L201.772 113.965C201.626 113.649 201.623 113.286 201.766 112.967L203.523 109.083C203.642 108.82 203.849 108.611 204.112 108.489L205.269 107.953C205.868 107.674 206.582 107.937 206.861 108.536L214.419 124.857C214.698 125.457 214.435 126.17 213.836 126.449L213.361 126.669C212.761 126.948 212.048 126.685 211.769 126.085Z" fill="#674C35"/>
<path d="M227.882 119.914C224.979 121.344 221.641 120.529 220.036 117.268L216.038 109.152C214.43 105.891 215.82 102.747 218.723 101.317C221.625 99.8866 224.987 100.688 226.595 103.951L230.593 112.068C232.201 115.329 230.784 118.484 227.884 119.914H227.882ZM224.011 105.318C223.138 103.546 221.543 102.832 219.872 103.654C218.2 104.477 217.821 106.164 218.694 107.937L222.615 115.899C223.488 117.672 225.059 118.399 226.728 117.576C228.396 116.754 228.805 115.053 227.932 113.281L224.011 105.318Z" fill="#674C35"/>
<path d="M205.279 26.0343C203.666 24.8032 202.199 23.7366 200.793 22.7734L200.652 22.6832C190.78 15.8376 180.024 10.4408 168.692 6.64391C167.827 6.34408 166.949 6.05487 166.06 5.77892C153.765 1.94488 140.955 0 127.995 0C83.4239 0 41.3923 23.795 18.3016 62.1009C17.8214 62.9048 17.3412 63.7061 16.8875 64.5074C12.9449 71.3663 9.62043 78.6602 7.0097 86.193C6.80541 86.782 6.60111 87.3843 6.41008 87.9787C2.15703 100.866 0 114.331 0 128.001C0 173.649 24.6666 216.195 64.3768 239.043C64.9313 239.358 65.4964 239.674 66.0615 239.99L66.2313 240.085C75.3105 245.111 84.9681 249.006 94.9334 251.664C96.1937 252.015 97.4248 252.325 98.5948 252.588C108.146 254.854 118.037 256.005 127.997 256.005C170.568 256.005 210.251 234.861 234.154 199.445C234.852 198.412 235.533 197.38 236.191 196.327C243.87 184.217 249.41 171.03 252.66 157.132C253.074 155.381 253.442 153.632 253.787 151.775C255.26 144.019 256.005 136.022 256.005 128.007C256.005 87.6789 237.518 50.5139 205.284 26.0397L205.279 26.0343ZM22.942 60.3126C46.1414 24.3787 85.2812 2.98233 127.995 2.98233C139.369 2.98233 150.608 4.51329 161.427 7.53011C137.419 17.3288 112.187 27.2469 86.4008 37.0217C65.2045 45.056 43.865 52.8886 22.9447 60.3126H22.942ZM50.5723 169.918C58.0436 194.409 62.761 217.559 63.9018 235.288C26.2983 212.754 2.98217 171.749 2.98217 128.001C2.98217 114.748 5.05431 101.704 9.1402 89.2231C13.5922 91.0618 19.5513 98.3054 26.0118 109.754C34.7248 125.178 43.4485 146.545 50.5723 169.918ZM10.1113 86.3867C12.8149 78.7425 16.2852 71.3424 20.4321 64.3774C42.1484 56.6934 64.6978 48.4283 87.4541 39.8077C114.66 29.5049 141.078 19.0986 165.98 8.878C179.4 13.1737 191.912 19.6664 203.178 28.1782C214.637 44.918 225.311 65.9535 234.05 89.0188C242.243 110.662 248.027 132.297 250.779 151.595C247.666 167.897 241.381 183.227 232.092 197.171C213.799 206.439 194.149 215.333 173.688 223.603C147.618 234.134 122.335 242.848 98.5471 249.502C87.5443 246.849 76.9342 242.675 67.0034 237.087C66.035 219.198 60.9701 193.798 53.4324 169.043C46.229 145.45 37.4151 123.875 28.6145 108.292C21.5836 95.8458 15.3646 88.4828 10.1113 86.384V86.3867ZM253.018 128.001C253.018 132.658 252.755 137.341 252.235 141.971C249.11 124.974 243.817 106.395 236.839 87.9654C229.375 68.2752 220.413 49.8505 210.795 34.4082C237.68 58.2032 253.018 92.086 253.018 128.001ZM228.386 202.43C204.799 234.153 167.455 253.018 127.995 253.018C120.229 253.018 112.466 252.296 104.886 250.868C127.109 244.381 150.618 236.143 174.802 226.368C193.6 218.769 211.615 210.721 228.383 202.427L228.386 202.43Z" fill="#674C35"/>
<path d="M17.3226 151.006C15.5556 150.844 11.1699 150.112 10.0449 149.849L8.18506 129.814L9.6788 129.676C10.2519 133.207 10.565 133.504 13.9584 133.191L29.3495 131.761C32.7429 131.446 33.0268 131.013 32.9896 127.962L34.4834 127.824L35.6534 140.427L34.1597 140.565C33.5839 137.442 33.2629 137.063 29.8721 137.378L14.1998 138.832C11.9791 139.039 10.9762 139.212 11.1407 141.438C11.1089 141.523 11.2813 143.38 11.2946 143.542C11.5095 145.845 12.0507 146.405 13.2288 147.273C14.1096 147.965 15.943 148.854 17.6675 149.427L17.3253 151.006H17.3226Z" fill="#55E233"/>
<path d="M41.6523 162.452C44.2949 169.473 41.3286 177.136 33.852 179.951C25.7677 182.994 18.5113 179.139 15.8103 171.967C12.9529 164.376 16.4232 156.785 23.746 154.028C30.2357 151.584 38.3942 153.8 41.6523 162.455V162.452ZM39.7686 162.511C38.312 158.639 33.4434 157.223 26.7255 159.751C20.3101 162.166 15.7652 166.783 17.6941 171.906C19.0525 175.512 23.6001 177.006 30.5461 174.39C38.0626 171.561 41.4241 166.913 39.7659 162.511H39.7686Z" fill="#55E233"/>
<path d="M25.4997 191.007L26.7467 190.172C28.6968 192.573 29.1027 192.743 31.9337 190.845L44.7698 182.246C47.6007 180.352 47.6432 179.832 46.1521 177.17L47.3991 176.334L54.3743 186.746L53.1273 187.582C51.1984 185.212 50.7368 185.035 47.9058 186.929L35.0697 195.529C32.2733 197.402 32.2733 197.842 33.7193 200.583L32.4723 201.419L25.4971 191.007H25.4997Z" fill="#55E233"/>
<path d="M60.9488 203.73C62.2542 201.342 63.5993 198.468 61.0072 195.783C59.3728 194.09 57.107 194.135 55.47 195.711C53.8648 197.261 53.9417 199.27 55.1357 203.077C56.6002 207.694 56.9982 211.143 54.1089 213.932C50.6624 217.256 45.3932 216.816 41.3657 212.64C39.5642 210.772 38.4551 208.628 37.5398 206.863C38.0412 206.041 40.6016 202.615 41.7743 201.087L43.1354 201.973C41.8592 204.332 40.254 209.036 43.0133 211.897C44.7299 213.677 46.8816 213.688 48.7521 211.886C50.4449 210.252 50.4263 208.243 49.373 204.523C48.0809 199.909 47.6245 196.515 50.6598 193.586C53.7268 190.63 58.4575 190.686 62.684 195.067C64.6261 197.081 65.6529 199.023 66.1862 199.75C65.2178 200.909 63.8965 202.578 62.2833 204.584L60.9515 203.73H60.9488Z" fill="#55E233"/>
<path d="M53.459 223.184L54.3398 221.969C57.0036 223.548 57.4414 223.566 59.4419 220.807L68.5131 208.294C70.5136 205.534 70.3757 205.035 68.0541 203.051L68.935 201.835L79.0834 209.193L78.2025 210.408C75.5732 208.851 75.0771 208.843 73.0792 211.602L64.008 224.113C62.0314 226.838 62.1853 227.249 64.4882 229.324L63.6074 230.539L53.459 223.181V223.184Z" fill="#55E233"/>
<path d="M92.6065 245.177C92.3836 245.079 91.9405 244.88 91.5134 244.644C86.9101 242.317 85.9868 240.704 85.5729 238.653C85.0025 235.954 84.9388 233.213 84.6735 230.43C84.5647 229.18 84.1455 228.727 82.9622 228.199L82.2379 227.83L79.8182 233.235C78.4756 236.236 78.7304 236.66 81.357 238.236L80.7441 239.605L69.415 234.535L70.0279 233.166C72.973 234.129 73.4399 233.98 74.7824 230.982L81.1262 216.8C82.4368 213.876 82.2458 213.303 79.5688 211.838L80.1816 210.469L90.9191 215.272C94.2143 216.747 95.9362 217.962 96.9922 219.679C98.0243 221.343 98.2975 223.417 97.2708 225.713C95.7983 229.008 92.832 229.772 89.9586 229.639C90.017 230.998 90.3831 234.052 90.7333 236.252C91.118 238.868 91.4842 240.231 91.8238 241.362C92.2456 242.704 92.5216 243.185 93.429 244.034L92.6065 245.177ZM83.9147 226.758C85.5066 227.472 86.8438 227.758 87.974 227.419C89.6588 226.93 90.8076 225.755 91.654 223.866C93.4104 219.942 91.7787 217.524 89.7066 216.596C88.7063 216.147 88.1571 216.081 87.8361 216.203C87.4779 216.309 87.2046 216.72 86.873 217.461L82.9144 226.31L83.9147 226.758Z" fill="#55E233"/>
<path d="M138.833 222.9C143.988 222.297 147.902 222.945 150.762 225.062C153.038 226.715 154.938 229.353 155.41 233.423C155.951 238.056 154.431 241.826 151.6 244.524C148.883 247.127 145.187 248.703 140.595 249.237L129.518 250.529L129.345 249.038C132.378 248.441 132.699 248.035 132.309 244.691L130.523 229.382C130.131 225.999 129.648 225.728 126.639 225.834L126.467 224.343L138.833 222.9ZM137.875 243.755C138.21 246.615 139.048 247.496 141.988 247.154C147.427 246.52 150.128 242.367 149.239 234.752C148.793 230.926 147.355 227.702 145.301 226.187C143.412 224.693 141.25 224.372 138.552 224.688C137.061 224.861 136.413 225.264 136.198 225.535C135.88 225.938 135.877 226.633 136.015 227.8L137.875 243.755Z" fill="#55E233"/>
<path d="M182.966 230.008C183.194 231.099 183.913 235.846 184.006 237.037L164.524 245.021L163.969 243.67C167.246 241.932 167.395 241.654 166.102 238.499L160.228 224.16C158.92 220.968 158.376 220.929 155.734 221.751L155.166 220.363L167.365 215.365C171.305 213.749 172.605 213.173 173.115 212.921C173.43 213.582 174.879 216.582 175.983 218.848L174.595 219.636C173.736 218.498 172.465 217.222 171.549 216.808C170.565 216.333 169.987 216.309 168.071 217.095L165.633 218.095C164.208 218.679 164.086 218.817 164.609 220.093L167.824 227.939L171.502 226.432C173.603 225.572 173.749 224.853 173.218 221.958L174.683 221.358L178.113 229.73L176.649 230.329C174.908 227.798 174.425 227.469 172.247 228.363L168.607 229.854L171.252 236.31C172.314 238.9 172.711 239.658 175.054 238.74L177.721 237.647C179.822 236.787 180.278 236.291 180.687 234.941C181.18 233.468 181.361 231.77 181.438 230.25L182.966 230.019V230.008Z" fill="#55E233"/>
<path d="M197.545 204.56C196.081 203.319 194.449 202.605 193.786 202.385C192.693 202.13 192.239 202.061 190.31 203.475L188.217 205.011L199.493 220.385C201.509 223.134 201.979 223.091 205.059 221.183L205.948 222.393L195.088 230.359L194.2 229.149C196.81 226.88 196.961 226.469 194.948 223.72L183.672 208.344L181.677 209.809C179.843 211.154 179.535 211.83 179.49 213.072C179.49 214.03 179.894 215.542 180.427 217.164L179.183 218.074C177.662 215.519 176.017 212.799 174.932 211.18L175.914 210.461C176.957 210.854 177.397 210.631 178.379 209.912L191.464 200.315C192.348 199.668 192.661 199.134 192.761 198.105L193.709 197.41C194.749 198.758 196.991 201.541 198.715 203.549L197.545 204.56Z" fill="#55E233"/>
<path d="M224.199 192.628C224.915 193.483 227.786 197.333 228.431 198.336L215.014 214.569L213.889 213.64C215.958 210.56 215.958 210.244 213.332 208.073L201.384 198.2C198.726 196.004 198.227 196.224 196.282 198.195L195.125 197.237L203.525 187.072C206.24 183.788 207.113 182.668 207.444 182.204C208.033 182.636 210.726 184.6 212.769 186.077L211.917 187.425C210.62 186.828 208.898 186.3 207.898 186.367C206.807 186.414 206.282 186.664 204.966 188.261L203.287 190.294C202.302 191.482 202.263 191.66 203.326 192.538L209.861 197.94L212.395 194.876C213.841 193.125 213.631 192.424 211.798 190.121L212.806 188.901L219.779 194.666L218.771 195.884C216.043 194.473 215.459 194.412 213.96 196.226L211.453 199.259L216.834 203.706C218.991 205.489 219.699 205.969 221.334 204.056L223.17 201.836C224.616 200.084 224.785 199.434 224.509 198.047C224.249 196.516 223.61 194.934 222.96 193.554L224.199 192.628Z" fill="#55E233"/>
<path d="M222.477 155.182C221.753 157.57 221.915 158.488 223.53 159.353C224.921 160.115 226.128 160.794 229.343 162.248L244.05 168.9L243.113 170.969L217.669 178.024L226.019 181.803C229.235 183.257 230.707 183.835 231.829 184.207C233.522 184.796 234.724 184.403 236.106 181.736L237.475 182.355L233.331 191.519L231.962 190.901C232.729 188.709 232.594 187.537 230.957 186.528C229.694 185.777 228.396 185.103 225.181 183.649L216.422 179.688C215.202 179.136 214.356 178.844 213.077 179.112C211.854 179.359 211.342 180.195 210.49 181.681L209.124 181.062L212.382 173.856L235.117 167.18L228.465 164.174C225.25 162.72 224.013 162.205 222.596 161.696C220.957 161.088 219.914 161.33 218.341 164.312L216.972 163.694L221.1 154.566L222.469 155.185L222.477 155.182Z" fill="#55E233"/>
<path d="M230.877 132.56C228.967 132.748 227.319 133.422 226.701 133.746C225.756 134.353 225.39 134.632 225.067 137.001L224.714 139.575L243.604 142.167C246.982 142.629 247.276 142.263 248.048 138.723L249.537 138.928L247.706 152.271L246.218 152.067C246.406 148.612 246.215 148.217 242.838 147.753L223.947 145.16L223.61 147.612C223.302 149.862 223.576 150.557 224.435 151.451C225.122 152.12 226.491 152.881 228.028 153.622L227.818 155.15C224.923 154.465 221.827 153.754 219.909 153.409L220.073 152.205C221.082 151.73 221.227 151.258 221.392 150.053L223.597 133.974C223.745 132.889 223.583 132.292 222.912 131.506L223.071 130.339C224.764 130.53 228.325 130.856 230.965 131.013L230.874 132.557L230.877 132.56Z" fill="#55E233"/>
<path d="M240.89 105.13C241.999 105.212 246.762 105.833 247.929 106.072L250.224 126.999L248.773 127.158C248.009 123.528 247.778 123.308 244.392 123.679L228.991 125.369C225.563 125.746 225.374 126.256 225.433 129.023L223.942 129.188L222.504 116.083C222.039 111.848 221.843 110.442 221.742 109.882C222.464 109.763 225.748 109.197 228.229 108.762L228.603 110.312C227.271 110.824 225.695 111.692 225.045 112.456C224.318 113.27 224.133 113.822 224.358 115.878L224.645 118.5C224.812 120.031 224.913 120.185 226.282 120.034L234.708 119.11L234.276 115.159C234.026 112.901 233.379 112.564 230.45 112.275L230.277 110.702L239.269 109.715L239.442 111.288C236.528 112.262 236.08 112.636 236.337 114.976L236.767 118.887L243.703 118.126C246.486 117.821 247.321 117.648 247.088 115.143L246.772 112.281C246.526 110.023 246.178 109.449 244.992 108.68C243.711 107.799 242.132 107.157 240.689 106.663L240.888 105.133L240.89 105.13Z" fill="#55E233"/>
<path d="M16.1288 149.812C14.3617 149.65 9.97604 148.918 8.85109 148.655L6.99121 128.62L8.48495 128.482C9.05804 132.013 9.37111 132.311 12.7645 131.998L28.1556 130.567C31.549 130.252 31.8329 129.819 31.7958 126.768L33.2895 126.63L34.4596 139.233L32.9658 139.371C32.3901 136.248 32.0691 135.869 28.6783 136.184L13.006 137.638C10.7853 137.845 9.78236 138.018 9.94685 140.244C9.91502 140.329 10.0875 142.186 10.1007 142.348C10.3156 144.651 10.8569 145.211 12.0349 146.079C12.9158 146.771 14.7491 147.66 16.4737 148.233L16.1314 149.812H16.1288Z" fill="#E1660F"/>
<path d="M40.4585 161.258C43.101 168.279 40.1348 175.942 32.6581 178.757C24.5739 181.8 17.3174 177.945 14.6165 170.773C11.759 163.182 15.2294 155.591 22.5522 152.834C29.0418 150.39 37.2004 152.606 40.4585 161.261V161.258ZM38.5747 161.317C37.1181 157.446 32.2495 156.029 25.5317 158.557C19.1163 160.972 14.5714 165.589 16.5003 170.712C17.8587 174.318 22.4062 175.812 29.3523 173.196C36.8687 170.367 40.2303 165.719 38.5721 161.317H38.5747Z" fill="#E1660F"/>
<path d="M24.3059 189.813L25.5529 188.978C27.503 191.379 27.9089 191.549 30.7398 189.652L43.5759 181.052C46.4069 179.158 46.4493 178.638 44.9582 175.976L46.2052 175.141L53.1804 185.552L51.9334 186.388C50.0046 184.019 49.5429 183.841 46.712 185.735L33.8759 194.335C31.0794 196.208 31.0794 196.648 32.5254 199.389L31.2784 200.225L24.3032 189.813H24.3059Z" fill="#E1660F"/>
<path d="M59.7576 202.538C61.063 200.15 62.4082 197.277 59.816 194.592C58.1816 192.899 55.9158 192.944 54.2788 194.52C52.6736 196.07 52.7506 198.078 53.9445 201.886C55.4091 206.502 55.8071 209.952 52.9177 212.74C49.4713 216.065 44.202 215.625 40.1745 211.448C38.373 209.58 37.264 207.436 36.3486 205.672C36.8501 204.849 39.4104 201.424 40.5831 199.896L41.9442 200.782C40.668 203.141 39.0628 207.845 41.8221 210.705C43.5388 212.486 45.6905 212.496 47.561 210.695C49.2537 209.06 49.2351 207.052 48.1818 203.332C46.8897 198.718 46.4334 195.324 49.4686 192.395C52.5357 189.439 57.2663 189.495 61.4928 193.875C63.4349 195.889 64.4617 197.831 64.995 198.558C64.0266 199.718 62.7053 201.387 61.0922 203.393L59.7603 202.538H59.7576Z" fill="#E1660F"/>
<path d="M52.2651 221.99L53.146 220.775C55.8098 222.354 56.2476 222.372 58.2481 219.613L67.3193 207.1C69.3198 204.34 69.1818 203.842 66.8603 201.857L67.7411 200.642L77.8895 207.999L77.0087 209.214C74.3794 207.657 73.8832 207.649 71.8854 210.408L62.8142 222.919C60.8376 225.644 60.9914 226.055 63.2944 228.13L62.4135 229.345L52.2651 221.988V221.99Z" fill="#E1660F"/>
<path d="M91.4126 243.986C91.1898 243.888 90.7467 243.689 90.3195 243.453C85.7163 241.126 84.7929 239.512 84.3791 237.461C83.8086 234.763 83.7449 232.022 83.4796 229.239C83.3708 227.989 82.9516 227.535 81.7683 227.007L81.044 226.638L78.6243 232.043C77.2818 235.044 77.5365 235.469 80.1632 237.045L79.5503 238.414L68.2212 233.343L68.8341 231.974C71.7791 232.937 72.2461 232.789 73.5886 229.791L79.9323 215.609C81.243 212.685 81.052 212.112 78.3749 210.647L78.9878 209.278L89.7252 214.08C93.0205 215.556 94.7424 216.771 95.7983 218.488C96.8304 220.151 97.1037 222.226 96.0769 224.521C94.6044 227.817 91.6382 228.581 88.7648 228.448C88.8231 229.807 89.1893 232.861 89.5395 235.06C89.9242 237.676 90.2903 239.04 90.6299 240.17C91.0518 241.513 91.3277 241.993 92.2351 242.842L91.4126 243.986ZM82.7235 225.564C84.3154 226.278 85.6526 226.564 86.7828 226.225C88.4676 225.736 89.6164 224.561 90.4628 222.672C92.2192 218.748 90.5875 216.33 88.5154 215.402C87.5151 214.953 86.9659 214.887 86.6449 215.009C86.2867 215.115 86.0134 215.526 85.6818 216.267L81.7232 225.115L82.7235 225.564Z" fill="#E1660F"/>
<path d="M137.639 221.706C142.794 221.104 146.708 221.751 149.568 223.868C151.844 225.521 153.744 228.159 154.216 232.229C154.757 236.862 153.237 240.632 150.406 243.33C147.689 245.933 143.994 247.509 139.401 248.043L128.324 249.335L128.151 247.844C131.184 247.247 131.505 246.841 131.115 243.498L129.329 228.188C128.937 224.805 128.454 224.534 125.445 224.641L125.273 223.149L137.639 221.706ZM136.681 242.561C137.016 245.421 137.854 246.302 140.794 245.96C146.233 245.326 148.934 241.173 148.045 233.558C147.599 229.732 146.161 226.508 144.108 224.993C142.219 223.5 140.056 223.179 137.358 223.494C135.867 223.667 135.219 224.07 135.005 224.341C134.686 224.744 134.684 225.439 134.821 226.607L136.681 242.561Z" fill="#E1660F"/>
<path d="M181.772 228.817C182 229.907 182.719 234.654 182.812 235.845L163.33 243.829L162.775 242.479C166.052 240.741 166.201 240.462 164.909 237.307L159.034 222.969C157.726 219.777 157.183 219.737 154.54 220.56L153.972 219.172L166.171 214.173C170.111 212.557 171.412 211.982 171.921 211.729C172.237 212.39 173.685 215.391 174.789 217.657L173.401 218.445C172.542 217.307 171.271 216.031 170.356 215.617C169.371 215.142 168.793 215.118 166.877 215.903L164.439 216.903C163.014 217.487 162.892 217.625 163.415 218.901L166.63 226.747L170.308 225.24C172.409 224.381 172.555 223.661 172.024 220.767L173.489 220.167L176.92 228.538L175.455 229.138C173.714 226.607 173.232 226.278 171.053 227.172L167.413 228.663L170.058 235.118C171.12 237.708 171.518 238.467 173.86 237.549L176.527 236.456C178.628 235.596 179.085 235.1 179.493 233.749C179.987 232.277 180.167 230.579 180.244 229.058L181.772 228.827V228.817Z" fill="#E1660F"/>
<path d="M196.354 203.367C194.889 202.125 193.258 201.411 192.594 201.191C191.501 200.936 191.048 200.867 189.119 202.281L187.025 203.818L198.301 219.191C200.318 221.94 200.787 221.897 203.868 219.99L204.757 221.199L193.897 229.165L193.008 227.955C195.619 225.686 195.77 225.275 193.757 222.526L182.481 207.15L180.485 208.615C178.652 209.96 178.344 210.637 178.299 211.878C178.299 212.836 178.702 214.349 179.236 215.97L177.991 216.88C176.471 214.325 174.826 211.605 173.741 209.987L174.723 209.267C175.765 209.66 176.206 209.437 177.187 208.718L190.273 199.121C191.156 198.474 191.47 197.94 191.57 196.911L192.518 196.216C193.558 197.564 195.799 200.347 197.524 202.356L196.354 203.367Z" fill="#E1660F"/>
<path d="M223.008 191.435C223.724 192.289 226.595 196.139 227.24 197.142L213.823 213.375L212.698 212.446C214.767 209.366 214.767 209.05 212.14 206.88L200.193 197.007C197.535 194.81 197.036 195.03 195.091 197.001L193.934 196.043L202.334 185.879C205.048 182.594 205.921 181.474 206.253 181.01C206.842 181.442 209.535 183.406 211.578 184.884L210.726 186.231C209.429 185.634 207.707 185.106 206.707 185.173C205.616 185.221 205.091 185.47 203.775 187.067L202.096 189.1C201.111 190.288 201.071 190.466 202.135 191.344L208.67 196.747L211.204 193.682C212.65 191.931 212.44 191.23 210.607 188.927L211.615 187.707L218.588 193.472L217.579 194.69C214.852 193.279 214.268 193.218 212.769 195.033L210.262 198.065L215.643 202.512C217.8 204.295 218.508 204.776 220.142 202.862L221.978 200.642C223.424 198.89 223.594 198.24 223.318 196.853C223.058 195.322 222.419 193.74 221.769 192.361L223.008 191.435Z" fill="#E1660F"/>
<path d="M221.286 153.988C220.561 156.376 220.723 157.294 222.339 158.159C223.729 158.921 224.937 159.6 228.152 161.054L242.859 167.706L241.922 169.775L216.478 176.831L224.828 180.609C228.043 182.063 229.516 182.641 230.638 183.013C232.331 183.602 233.533 183.209 234.915 180.543L236.284 181.161L232.14 190.325L230.771 189.707C231.538 187.515 231.402 186.343 229.765 185.334C228.502 184.584 227.205 183.91 223.989 182.456L215.231 178.494C214.011 177.942 213.164 177.65 211.886 177.918C210.662 178.165 210.15 179.001 209.299 180.487L207.932 179.869L211.19 172.662L233.926 165.986L227.274 162.98C224.058 161.526 222.822 161.011 221.405 160.502C219.766 159.894 218.723 160.136 217.15 163.118L215.78 162.5L219.909 153.373L221.278 153.991L221.286 153.988Z" fill="#E1660F"/>
<path d="M229.683 131.366C227.773 131.554 226.125 132.228 225.507 132.552C224.563 133.159 224.196 133.438 223.873 135.807L223.52 138.381L242.411 140.974C245.788 141.435 246.083 141.069 246.855 137.53L248.343 137.734L246.512 151.077L245.024 150.873C245.212 147.418 245.021 147.023 241.644 146.559L222.753 143.966L222.416 146.418C222.108 148.668 222.382 149.363 223.241 150.257C223.928 150.926 225.298 151.688 226.834 152.428L226.624 153.956C223.729 153.272 220.633 152.561 218.715 152.216L218.879 151.011C219.888 150.536 220.034 150.064 220.198 148.859L222.403 132.78C222.551 131.695 222.39 131.098 221.718 130.312L221.878 129.145C223.57 129.336 227.131 129.662 229.771 129.819L229.681 131.363L229.683 131.366Z" fill="#E1660F"/>
<path d="M239.696 103.936C240.805 104.018 245.568 104.639 246.735 104.878L249.03 125.805L247.579 125.964C246.815 122.334 246.584 122.114 243.199 122.485L227.797 124.176C224.369 124.552 224.181 125.062 224.239 127.829L222.748 127.994L221.31 114.889C220.845 110.654 220.649 109.248 220.548 108.688C221.27 108.569 224.555 108.004 227.035 107.568L227.409 109.118C226.078 109.63 224.502 110.498 223.852 111.262C223.125 112.076 222.939 112.628 223.164 114.685L223.451 117.306C223.618 118.837 223.719 118.991 225.088 118.84L233.514 117.916L233.082 113.966C232.833 111.708 232.185 111.371 229.256 111.081L229.084 109.508L238.075 108.521L238.248 110.094C235.334 111.068 234.886 111.442 235.143 113.782L235.573 117.693L242.509 116.932C245.292 116.627 246.128 116.454 245.894 113.95L245.578 111.087C245.332 108.829 244.984 108.256 243.798 107.486C242.517 106.605 240.938 105.963 239.495 105.47L239.694 103.939L239.696 103.936Z" fill="#E1660F"/>
<path d="M33.7643 54.0189C35.7144 51.477 37.6459 49.8904 39.527 49.2376C41.822 48.4443 44.0587 48.7256 46.2794 50.429C50.9463 54.0083 49.8744 59.4741 47.2637 62.942C47.017 63.2631 46.6641 63.6584 46.4598 63.8574L44.5469 65.3539L48.9246 68.7103C51.6282 70.7852 51.928 70.6579 54.3344 68.055L55.5257 68.9677L47.675 79.2016L46.4837 78.2888C48.0464 75.6541 48.195 75.2561 45.4914 73.1838L33.1966 63.7539C30.493 61.6791 29.957 61.7799 27.9459 64.0697L26.7546 63.1569L33.7643 54.0163V54.0189ZM43.1937 64.3164C43.6819 64.0776 44.3054 63.5337 44.8228 62.8571C45.9584 61.3766 46.94 58.2961 42.6923 55.0378C39.0866 52.273 36.391 53.3238 34.7885 55.4146C34.2711 56.0912 34.1358 56.6006 34.1464 56.9163C34.165 57.2905 34.4382 57.6009 34.9211 57.9724L43.1937 64.3164Z" fill="#80E256"/>
<path d="M74.5862 41.9172C75.1169 42.8963 77.1651 47.2371 77.5923 48.3515L61.2195 61.5783L60.3015 60.4426C62.9441 57.8397 63.0051 57.5293 60.864 54.8786L51.1295 42.8273C48.9645 40.1448 48.4312 40.2615 46.1335 41.8057L45.1917 40.6383L55.4435 32.3546C58.7547 29.6774 59.8345 28.7541 60.2511 28.3667C60.7419 28.908 62.9892 31.3676 64.6952 33.2223L63.5914 34.3738C62.4426 33.5301 60.8587 32.6704 59.8637 32.5351C58.7865 32.3626 58.2241 32.5059 56.6136 33.8033L54.5627 35.459C53.3634 36.4275 53.2892 36.592 54.1541 37.6639L59.4817 44.2574L62.5726 41.7606C64.3396 40.3332 64.2733 39.6062 62.9361 36.982L64.1672 35.987L69.8503 43.0236L68.6192 44.0186C66.2287 42.0923 65.6715 41.9172 63.8408 43.3951L60.7817 45.868L65.1648 51.294C66.9238 53.4697 67.5208 54.0826 69.5027 52.5331L71.742 50.7235C73.509 49.2961 73.8035 48.6938 73.8088 47.2795C73.8593 45.7274 73.5462 44.0505 73.1853 42.5699L74.5809 41.9119L74.5862 41.9172Z" fill="#80E256"/>
<path d="M90.4071 20.5238C89.2079 19.0247 87.7433 18.0111 87.1358 17.6715C86.1116 17.2124 85.6818 17.0559 83.5142 18.0774L81.1661 19.1839L89.2955 36.4331C90.7494 39.5162 91.219 39.564 94.6045 38.2798L95.2439 39.6383L83.0605 45.3801L82.4211 44.0216C85.4192 42.2942 85.6447 41.9175 84.1934 38.837L76.0667 21.5878L73.8274 22.6438C71.7712 23.6122 71.3414 24.2198 71.0575 25.4298C70.8718 26.369 70.9806 27.9318 71.1955 29.6247L69.7999 30.2827C68.7943 27.4834 67.7039 24.4984 66.9451 22.7021L68.0461 22.1821C68.9933 22.7658 69.4709 22.6332 70.572 22.1131L85.252 15.1959C86.2416 14.7289 86.6529 14.2673 86.9474 13.2749L88.0113 12.7734C88.7754 14.2991 90.4416 17.4592 91.7523 19.757L90.4098 20.5238H90.4071Z" fill="#80E256"/>
<path d="M111.25 35.3028L110.935 33.8355C113.357 32.944 113.264 32.5062 112.344 30.9195C111.694 29.8157 110.677 28.1654 109.741 26.706L102.007 28.359C101.834 29.683 101.601 31.3095 101.466 32.6229C101.168 35.3001 102.187 35.4142 105.379 35.0215L105.692 36.4888L95.8965 38.5849L95.5808 37.1176C98.0111 36.2659 98.5709 35.7724 99.2051 32.1533L103.071 9.88134L104.899 9.11719C108.913 15.4772 113.121 21.9592 117.114 28.0327C119.372 31.4077 119.788 31.6094 122.434 31.3759L122.747 32.8431L111.245 35.3028H111.25ZM103.705 17.0904C103.166 20.1921 102.625 23.0869 102.251 26.1966L108.558 24.8487L103.705 17.0931V17.0904Z" fill="#80E256"/>
<path d="M151.337 9.89176C148.849 10.0616 148.045 10.5418 147.811 12.354C147.591 13.9248 147.384 15.2939 147.167 18.8175L146.166 34.9311L143.901 34.7905L128.276 13.5003L127.708 22.6489C127.491 26.1725 127.472 27.7565 127.522 28.9373C127.573 30.7283 128.366 31.7126 131.351 32.0602L131.258 33.5567L121.219 32.9332L121.311 31.434C123.633 31.3757 124.681 30.8317 125.042 28.9426C125.294 27.4939 125.466 26.0425 125.684 22.5215L126.278 12.9272C126.36 11.5925 126.336 10.6957 125.631 9.59459C124.965 8.53857 124.002 8.35549 122.312 8.0875L122.404 6.58838L130.298 7.07924L144.609 25.9709L145.06 18.6822C145.28 15.1586 145.32 13.8213 145.293 12.3169C145.28 10.5684 144.686 9.67684 141.338 9.26823L141.43 7.76911L151.43 8.38998L151.337 9.88911V9.89176Z" fill="#80E256"/>
<path d="M172.515 14.6572C179.53 17.3212 183.311 24.6151 180.475 32.0842C177.408 40.1609 169.716 43.053 162.55 40.3334C154.967 37.4545 151.571 29.8289 154.349 22.5111C156.811 16.0264 163.871 11.3751 172.515 14.6572ZM171.313 16.1113C167.445 14.644 163.163 17.3557 160.613 24.0659C158.18 30.4737 158.631 36.9371 163.749 38.882C167.352 40.2511 171.483 37.826 174.118 30.8876C176.967 23.3787 175.71 17.7829 171.311 16.1113H171.313ZM166.15 38.2744C169.594 43.8331 172.491 47.9723 174.892 50.0976L174.118 51.1059C172.353 50.6097 169.538 49.4528 168.217 48.4764C165.28 46.2768 162.462 41.6919 160.242 37.9428L166.145 38.2771L166.15 38.2744Z" fill="#80E256"/>
<path d="M213.602 42.5328C211.4 41.1372 210.384 41.3229 209.36 42.3789C208.519 43.2678 207.611 44.3079 205.873 46.5526L202.621 50.7554C200.485 53.5149 197.877 55.9559 194.558 56.4654C191.891 56.8634 189.092 55.7729 186.816 54.0111C184.698 52.3713 182.929 50.2858 182.366 47.8978C181.599 45.0455 182.215 42.3948 184.996 38.8022L191.278 30.6857C193.563 27.7353 193.449 27.2868 191.183 25.1748L192.101 23.9888L202.01 31.6622L201.092 32.8482C198.514 31.2111 198.052 31.2111 195.767 34.1616L189.161 42.6947C186.381 46.2872 186.309 50.0258 189.739 52.6844C193.557 55.6402 197.41 54.1066 201.135 49.2961L204.239 45.2869C205.95 43.0741 206.749 41.8456 207.431 40.832C208.444 39.256 207.794 38.2397 205.651 36.3745L206.569 35.1884L214.523 41.3468L213.605 42.5328H213.602Z" fill="#80E256"/>
<path d="M216.659 75.6383C215.666 76.1424 211.273 78.0793 210.148 78.48L197.346 61.7667L198.506 60.8778C201.039 63.5869 201.35 63.6559 204.053 61.5836L216.354 52.1617C219.092 50.0656 218.988 49.5296 217.502 47.192L218.694 46.2793L226.709 56.7466C229.298 60.127 230.195 61.2307 230.572 61.6553C230.017 62.1329 227.5 64.3139 225.603 65.9749L224.48 64.8419C225.353 63.7142 226.253 62.1541 226.414 61.1618C226.616 60.0898 226.486 59.522 225.228 57.8796L223.623 55.7861C222.687 54.563 222.522 54.4834 221.429 55.3218L214.698 60.4772L217.115 63.632C218.497 65.4362 219.227 65.3885 221.883 64.1202L222.846 65.3752L215.664 70.8755L214.701 69.6205C216.691 67.2803 216.879 66.7258 215.446 64.8578L213.056 61.7349L207.516 65.9775C205.295 67.681 204.666 68.262 206.165 70.2839L207.916 72.571C209.299 74.3753 209.893 74.6857 211.305 74.7282C212.854 74.8184 214.539 74.5504 216.03 74.2267L216.651 75.6409L216.659 75.6383Z" fill="#80E256"/>
<path d="M32.5705 54.0189C34.5206 51.477 36.4521 49.8904 38.3332 49.2376C40.6282 48.4443 42.8648 48.7256 45.0855 50.429C49.7525 54.0083 48.6806 59.4741 46.0699 62.942C45.8231 63.2631 45.4703 63.6584 45.266 63.8574L43.353 65.3539L47.7308 68.7103C50.4343 70.7852 50.7342 70.6579 53.1406 68.055L54.3319 68.9677L46.4811 79.2016L45.2898 78.2888C46.8526 75.6541 47.0011 75.2561 44.2975 73.1838L32.0027 63.7539C29.2991 61.6791 28.7632 61.7799 26.7521 64.0697L25.5608 63.1569L32.5705 54.0163V54.0189ZM41.9999 64.3164C42.4881 64.0776 43.1116 63.5337 43.6289 62.8571C44.7645 61.3766 45.7462 58.2961 41.4984 55.0378C37.8928 52.273 35.1971 53.3238 33.5946 55.4146C33.0773 56.0912 32.9419 56.6006 32.9525 56.9163C32.9711 57.2905 33.2444 57.6009 33.7273 57.9724L41.9999 64.3164Z" fill="#E1660F"/>
<path d="M73.3924 41.9172C73.923 42.8963 75.9713 47.2371 76.3984 48.3515L60.0257 61.5783L59.1077 60.4426C61.7502 57.8397 61.8112 57.5293 59.6701 54.8786L49.9356 42.8273C47.7706 40.1448 47.2373 40.2615 44.9397 41.8057L43.9978 40.6383L54.2497 32.3546C57.5609 29.6774 58.6407 28.7541 59.0572 28.3667C59.5481 28.908 61.7953 31.3676 63.5013 33.2223L62.3976 34.3738C61.2488 33.5301 59.6648 32.6704 58.6699 32.5351C57.5927 32.3626 57.0302 32.5059 55.4197 33.8033L53.3688 35.459C52.1696 36.4275 52.0953 36.592 52.9602 37.6639L58.2878 44.2574L61.3788 41.7606C63.1458 40.3332 63.0795 39.6062 61.7423 36.982L62.9733 35.987L68.6564 43.0236L67.4254 44.0186C65.0349 42.0923 64.4777 41.9172 62.647 43.3951L59.5879 45.868L63.9709 51.294C65.73 53.4697 66.327 54.0826 68.3089 52.5331L70.5482 50.7235C72.3152 49.2961 72.6097 48.6938 72.615 47.2795C72.6654 45.7274 72.3523 44.0505 71.9915 42.5699L73.3871 41.9119L73.3924 41.9172Z" fill="#E1660F"/>
<path d="M89.2133 20.5238C88.014 19.0247 86.5495 18.0111 85.9419 17.6715C84.9178 17.2124 84.488 17.0559 82.3203 18.0774L79.9723 19.1839L88.1016 36.4331C89.5555 39.5162 90.0252 39.564 93.4106 38.2798L94.05 39.6383L81.8666 45.3801L81.2272 44.0216C84.2253 42.2942 84.4508 41.9175 82.9995 38.837L74.8729 21.5878L72.6336 22.6438C70.5774 23.6122 70.1475 24.2198 69.8636 25.4298C69.6779 26.369 69.7867 27.9318 70.0016 29.6247L68.606 30.2827C67.6005 27.4834 66.51 24.4984 65.7512 22.7021L66.8523 22.1821C67.7995 22.7658 68.277 22.6332 69.3781 22.1131L84.0582 15.1959C85.0478 14.7289 85.459 14.2673 85.7535 13.2749L86.8175 12.7734C87.5816 14.2991 89.2478 17.4592 90.5585 19.757L89.2159 20.5238H89.2133Z" fill="#E1660F"/>
<path d="M110.057 35.3028L109.741 33.8355C112.163 32.944 112.07 32.5062 111.15 30.9195C110.5 29.8157 109.484 28.1654 108.547 26.706L100.813 28.359C100.641 29.683 100.407 31.3095 100.272 32.6229C99.9746 35.3001 100.993 35.4142 104.185 35.0215L104.498 36.4888L94.7027 38.5849L94.387 37.1176C96.8173 36.2659 97.3771 35.7724 98.0112 32.1533L101.877 9.88134L103.705 9.11719C107.719 15.4772 111.927 21.9592 115.92 28.0327C118.178 31.4077 118.595 31.6094 121.24 31.3759L121.553 32.8431L110.051 35.3028H110.057ZM102.511 17.0904C101.972 20.1921 101.431 23.0869 101.057 26.1966L107.364 24.8487L102.511 17.0931V17.0904Z" fill="#E1660F"/>
<path d="M150.144 9.89176C147.655 10.0616 146.851 10.5418 146.617 12.354C146.397 13.9248 146.19 15.2939 145.973 18.8175L144.972 34.9311L142.707 34.7905L127.082 13.5003L126.514 22.6489C126.297 26.1725 126.278 27.7565 126.329 28.9373C126.379 30.7283 127.172 31.7126 130.157 32.0602L130.064 33.5567L120.025 32.9332L120.118 31.434C122.439 31.3757 123.487 30.8317 123.848 28.9426C124.1 27.4939 124.272 26.0425 124.49 22.5215L125.084 12.9272C125.167 11.5925 125.143 10.6957 124.437 9.59459C123.771 8.53857 122.808 8.35549 121.118 8.0875L121.211 6.58838L129.104 7.07924L143.415 25.9709L143.866 18.6822C144.086 15.1586 144.126 13.8213 144.1 12.3169C144.086 10.5684 143.492 9.67684 140.144 9.26823L140.237 7.76911L150.236 8.38998L150.144 9.88911V9.89176Z" fill="#E1660F"/>
<path d="M171.321 14.6572C178.336 17.3212 182.117 24.6151 179.281 32.0842C176.214 40.1609 168.522 43.053 161.356 40.3334C153.773 37.4545 150.377 29.8289 153.155 22.5111C155.617 16.0264 162.677 11.3751 171.321 14.6572ZM170.119 16.1113C166.251 14.644 161.969 17.3557 159.419 24.0659C156.986 30.4737 157.437 36.9371 162.555 38.882C166.158 40.2511 170.289 37.826 172.924 30.8876C175.773 23.3787 174.516 17.7829 170.117 16.1113H170.119ZM164.956 38.2744C168.4 43.8331 171.297 47.9723 173.699 50.0976L172.924 51.1059C171.159 50.6097 168.344 49.4528 167.023 48.4764C164.086 46.2768 161.268 41.6919 159.048 37.9428L164.951 38.2771L164.956 38.2744Z" fill="#E1660F"/>
<path d="M212.408 42.5328C210.206 41.1372 209.19 41.3229 208.166 42.3789C207.325 43.2678 206.417 44.3079 204.68 46.5526L201.427 50.7554C199.291 53.5149 196.683 55.9559 193.364 56.4654C190.697 56.8634 187.898 55.7729 185.622 54.0111C183.505 52.3713 181.735 50.2858 181.172 47.8978C180.406 45.0455 181.021 42.3948 183.802 38.8022L190.084 30.6857C192.369 27.7353 192.255 27.2868 189.989 25.1748L190.907 23.9888L200.817 31.6622L199.899 32.8482C197.32 31.2111 196.858 31.2111 194.574 34.1616L187.967 42.6947C185.187 46.2872 185.115 50.0258 188.546 52.6844C192.364 55.6402 196.216 54.1066 199.941 49.2961L203.045 45.2869C204.757 43.0741 205.555 41.8456 206.237 40.832C207.251 39.256 206.6 38.2397 204.457 36.3745L205.375 35.1884L213.329 41.3468L212.411 42.5328H212.408Z" fill="#E1660F"/>
<path d="M215.468 75.6383C214.475 76.1424 210.082 78.0793 208.957 78.48L196.155 61.7667L197.314 60.8778C199.848 63.5869 200.159 63.6559 202.862 61.5836L215.162 52.1617C217.9 50.0656 217.797 49.5296 216.311 47.192L217.503 46.2793L225.518 56.7466C228.107 60.127 229.004 61.2307 229.381 61.6553C228.826 62.1329 226.308 64.3139 224.411 65.9749L223.289 64.8419C224.162 63.7142 225.061 62.1541 225.223 61.1618C225.425 60.0898 225.295 59.522 224.037 57.8796L222.432 55.7861C221.496 54.563 221.331 54.4834 220.238 55.3218L213.507 60.4772L215.924 63.632C217.306 65.4362 218.036 65.3885 220.692 64.1202L221.655 65.3752L214.473 70.8755L213.509 69.6205C215.499 67.2803 215.688 66.7258 214.255 64.8578L211.865 61.7349L206.325 65.9775C204.104 67.681 203.475 68.262 204.974 70.2839L206.725 72.571C208.108 74.3753 208.702 74.6857 210.113 74.7282C211.663 74.8184 213.348 74.5504 214.839 74.2267L215.46 75.6409L215.468 75.6383Z" fill="#E1660F"/>
<path d="M58.0039 81.9028H70.2854C72.9598 81.9028 74.963 82.9217 76.2949 84.9568C77.6268 86.9919 78.2927 89.8893 78.2927 93.6464C78.2927 97.4035 77.5658 100.529 76.1145 102.702C74.6632 104.878 72.4478 105.963 69.4683 105.963H65.4222V120.161H58.0012V81.9028H58.0039ZM65.4248 98.2154H67.2343C68.659 98.2154 69.6593 97.8201 70.235 97.0294C70.8108 96.2387 71.1 95.2251 71.1 93.9887C71.1 92.7523 70.8506 91.7705 70.3491 90.9347C69.8477 90.0989 68.9084 89.6824 67.5288 89.6824H65.4248V98.2154Z" fill="#55E233"/>
<path d="M82.1187 81.9028H89.5237V120.161H82.1187V81.9028Z" fill="#55E233"/>
<path d="M93.2036 107.505L100.235 106.799C100.386 108.627 100.696 110.017 101.163 110.975C101.922 112.525 103.01 113.3 104.424 113.3C105.477 113.3 106.289 112.904 106.862 112.111C107.433 111.32 107.719 110.402 107.719 109.357C107.719 108.311 107.446 107.478 106.905 106.696C106.361 105.913 105.098 105.173 103.121 104.477C99.879 103.313 97.5681 101.763 96.1884 99.8314C94.7955 97.8998 94.1004 95.4375 94.1004 92.4446C94.1004 90.4785 94.4559 88.6211 95.167 86.8726C95.8807 85.1241 96.9526 83.7496 98.38 82.7493C99.81 81.749 101.771 81.2476 104.262 81.2476C107.316 81.2476 109.648 82.1576 111.251 83.9752C112.856 85.7927 113.808 88.6848 114.113 92.6515L107.149 93.3042C106.963 91.5822 106.576 90.3299 105.981 89.5471C105.39 88.7644 104.572 88.3717 103.527 88.3717C102.668 88.3717 102.02 88.6636 101.585 89.2447C101.15 89.8284 100.932 90.5368 100.932 91.3726C100.932 91.9802 101.113 92.5295 101.471 93.0177C101.818 93.5218 102.646 93.9914 103.949 94.4266C107.178 95.541 109.491 96.666 110.887 97.8069C112.285 98.9452 113.301 100.359 113.938 102.047C114.575 103.734 114.893 105.621 114.893 107.709C114.893 110.163 114.469 112.424 113.622 114.494C112.773 116.563 111.587 118.134 110.067 119.203C108.544 120.273 106.626 120.809 104.31 120.809C100.242 120.809 97.4275 119.556 95.8621 117.051C94.2967 114.547 93.4079 111.363 93.2036 107.499V107.505Z" fill="#55E233"/>
<path d="M116.989 107.505L124.02 106.799C124.174 108.627 124.485 110.017 124.949 110.975C125.71 112.525 126.798 113.3 128.21 113.3C129.266 113.3 130.078 112.904 130.648 112.111C131.218 111.32 131.502 110.402 131.502 109.357C131.502 108.311 131.232 107.478 130.688 106.696C130.144 105.913 128.884 105.173 126.904 104.477C123.665 103.313 121.354 101.763 119.972 99.8314C118.581 97.8998 117.884 95.4375 117.884 92.4446C117.884 90.4785 118.239 88.6211 118.953 86.8726C119.664 85.1241 120.736 83.7496 122.166 82.7493C123.593 81.749 125.557 81.2476 128.045 81.2476C131.102 81.2476 133.431 82.1576 135.036 83.9752C136.639 85.7927 137.594 88.6848 137.897 92.6515L130.932 93.3042C130.749 91.5822 130.359 90.3299 129.767 89.5471C129.173 88.7644 128.356 88.3717 127.31 88.3717C126.453 88.3717 125.806 88.6636 125.368 89.2447C124.936 89.8284 124.716 90.5368 124.716 91.3726C124.716 91.9802 124.896 92.5295 125.254 93.0177C125.604 93.5218 126.429 93.9914 127.732 94.4266C130.961 95.541 133.275 96.666 134.673 97.8069C136.068 98.9452 137.087 100.359 137.724 102.047C138.361 103.734 138.677 105.621 138.677 107.709C138.677 110.163 138.252 112.424 137.406 114.494C136.557 116.563 135.373 118.134 133.85 119.203C132.33 120.273 130.409 120.809 128.093 120.809C124.028 120.809 121.211 119.556 119.645 117.051C118.08 114.547 117.194 111.363 116.987 107.499L116.989 107.505Z" fill="#55E233"/>
<path d="M141.139 101.06C141.139 94.814 142.226 89.9505 144.399 86.472C146.575 82.9935 149.602 81.2529 153.484 81.2529C157.365 81.2529 160.531 82.9617 162.682 86.3818C164.834 89.8019 165.911 94.5885 165.911 100.749C165.911 105.22 165.442 108.887 164.503 111.75C163.561 114.613 162.202 116.839 160.425 118.431C158.647 120.023 156.432 120.819 153.776 120.819C151.12 120.819 148.849 120.132 147.082 118.758C145.312 117.383 143.882 115.207 142.784 112.233C141.685 109.259 141.136 105.536 141.136 101.063L141.139 101.06ZM148.528 101.113C148.528 104.976 148.976 107.752 149.876 109.439C150.772 111.127 151.993 111.97 153.537 111.97C155.081 111.97 156.355 111.145 157.222 109.492C158.092 107.839 158.528 104.873 158.528 100.593C158.528 96.9924 158.074 94.3603 157.166 92.6993C156.259 91.0384 155.028 90.2079 153.471 90.2079C151.913 90.2079 150.786 91.0516 149.884 92.7391C148.981 94.4266 148.53 97.2206 148.53 101.116L148.528 101.113Z" fill="#55E233"/>
<path d="M168.27 107.505L175.301 106.799C175.452 108.627 175.763 110.017 176.23 110.975C176.988 112.525 178.076 113.3 179.49 113.3C180.544 113.3 181.356 112.904 181.929 112.111C182.499 111.32 182.786 110.402 182.786 109.357C182.786 108.311 182.512 107.478 181.971 106.696C181.427 105.913 180.164 105.173 178.188 104.477C174.945 103.313 172.634 101.763 171.255 99.8314C169.862 97.8998 169.167 95.4375 169.167 92.4446C169.167 90.4785 169.522 88.6211 170.233 86.8726C170.947 85.1241 172.019 83.7496 173.446 82.7493C174.876 81.749 176.837 81.2476 179.328 81.2476C182.382 81.2476 184.714 82.1576 186.317 83.9752C187.922 85.7927 188.875 88.6848 189.18 92.6515L182.215 93.3042C182.029 91.5822 181.642 90.3299 181.048 89.5471C180.456 88.7644 179.639 88.3717 178.594 88.3717C177.734 88.3717 177.087 88.6636 176.651 89.2447C176.216 89.8284 175.999 90.5368 175.999 91.3726C175.999 91.9802 176.179 92.5295 176.537 93.0177C176.885 93.5218 177.713 93.9914 179.015 94.4266C182.244 95.541 184.558 96.666 185.953 97.8069C187.352 98.9452 188.368 100.359 189.005 102.047C189.641 103.734 189.96 105.621 189.96 107.709C189.96 110.163 189.535 112.424 188.689 114.494C187.84 116.563 186.654 118.134 185.134 119.203C183.611 120.273 181.692 120.809 179.376 120.809C175.309 120.809 172.494 119.556 170.929 117.051C169.363 114.547 168.474 111.363 168.27 107.499V107.505Z" fill="#55E233"/>
<path d="M56.5473 80.5229H68.8289C71.5033 80.5229 73.5065 81.5418 74.8384 83.5769C76.1703 85.612 76.8362 88.5094 76.8362 92.2665C76.8362 96.0236 76.1092 99.1492 74.6579 101.322C73.2067 103.498 70.9912 104.583 68.0117 104.583H63.9656V118.781H56.5447V80.5229H56.5473ZM63.9683 96.8355H65.7777C67.2025 96.8355 68.2028 96.4402 68.7785 95.6495C69.3542 94.8588 69.6434 93.8453 69.6434 92.6088C69.6434 91.3724 69.394 90.3906 68.8926 89.5548C68.3911 88.719 67.4519 88.3025 66.0722 88.3025H63.9683V96.8355Z" fill="url(#paint1_linear_1200_46284)"/>
<path d="M80.6621 80.5229H88.0671V118.781H80.6621V80.5229Z" fill="url(#paint2_linear_1200_46284)"/>
<path d="M91.7471 106.125L98.778 105.419C98.9292 107.247 99.2396 108.638 99.7066 109.595C100.465 111.145 101.553 111.92 102.967 111.92C104.021 111.92 104.833 111.524 105.406 110.731C105.976 109.94 106.263 109.022 106.263 107.977C106.263 106.932 105.989 106.098 105.448 105.316C104.904 104.533 103.641 103.793 101.665 103.097C98.4225 101.933 96.1116 100.383 94.7319 98.4515C93.339 96.5199 92.6438 94.0576 92.6438 91.0647C92.6438 89.0986 92.9994 87.2412 93.7104 85.4927C94.4241 83.7442 95.496 82.3698 96.9234 81.3695C98.3535 80.3692 100.314 79.8677 102.806 79.8677C105.859 79.8677 108.191 80.7778 109.794 82.5953C111.399 84.4128 112.352 87.3049 112.657 91.2716L105.692 91.9243C105.506 90.2023 105.119 88.95 104.525 88.1673C103.933 87.3845 103.116 86.9918 102.071 86.9918C101.211 86.9918 100.564 87.2837 100.128 87.8648C99.6933 88.4485 99.4758 89.1569 99.4758 89.9927C99.4758 90.6003 99.6562 91.1496 100.014 91.6378C100.362 92.1419 101.19 92.6116 102.492 93.0467C105.721 94.1611 108.035 95.2861 109.431 96.427C110.829 97.5653 111.845 98.9795 112.482 100.667C113.118 102.355 113.437 104.241 113.437 106.329C113.437 108.784 113.012 111.044 112.166 113.114C111.317 115.183 110.131 116.754 108.611 117.823C107.088 118.893 105.17 119.429 102.853 119.429C98.786 119.429 95.9709 118.176 94.4056 115.672C92.8402 113.167 91.9514 109.983 91.7471 106.12V106.125Z" fill="url(#paint3_linear_1200_46284)"/>
<path d="M115.533 106.125L122.564 105.419C122.718 107.247 123.028 108.638 123.492 109.595C124.254 111.145 125.342 111.92 126.753 111.92C127.809 111.92 128.621 111.524 129.191 110.731C129.762 109.94 130.046 109.022 130.046 107.977C130.046 106.932 129.775 106.098 129.231 105.316C128.687 104.533 127.427 103.793 125.448 103.097C122.208 101.933 119.897 100.383 118.515 98.4515C117.125 96.5199 116.427 94.0576 116.427 91.0647C116.427 89.0986 116.783 87.2412 117.496 85.4927C118.207 83.7442 119.279 82.3698 120.709 81.3695C122.137 80.3692 124.1 79.8677 126.589 79.8677C129.645 79.8677 131.975 80.7778 133.58 82.5953C135.182 84.4128 136.138 87.3049 136.44 91.2716L129.475 91.9243C129.292 90.2023 128.902 88.95 128.311 88.1673C127.716 87.3845 126.899 86.9918 125.854 86.9918C124.997 86.9918 124.349 87.2837 123.912 87.8648C123.479 88.4485 123.259 89.1569 123.259 89.9927C123.259 90.6003 123.439 91.1496 123.798 91.6378C124.148 92.1419 124.973 92.6116 126.276 93.0467C129.505 94.1611 131.818 95.2861 133.216 96.427C134.612 97.5653 135.631 98.9795 136.268 100.667C136.904 102.355 137.22 104.241 137.22 106.329C137.22 108.784 136.796 111.044 135.949 113.114C135.1 115.183 133.917 116.754 132.394 117.823C130.874 118.893 128.953 119.429 126.636 119.429C122.572 119.429 119.754 118.176 118.189 115.672C116.623 113.167 115.737 109.983 115.53 106.12L115.533 106.125Z" fill="url(#paint4_linear_1200_46284)"/>
<path d="M139.682 99.6801C139.682 93.4341 140.77 88.5706 142.943 85.0921C145.118 81.6136 148.146 79.873 152.027 79.873C155.909 79.873 159.074 81.5818 161.226 85.0019C163.378 88.422 164.455 93.2086 164.455 99.3696C164.455 103.84 163.985 107.507 163.046 110.37C162.104 113.233 160.746 115.459 158.968 117.051C157.19 118.643 154.975 119.439 152.319 119.439C149.663 119.439 147.392 118.752 145.625 117.378C143.856 116.003 142.425 113.828 141.327 110.853C140.229 107.879 139.679 104.156 139.679 99.6827L139.682 99.6801ZM147.069 99.7305C147.069 103.594 147.517 106.369 148.416 108.057C149.313 109.744 150.534 110.588 152.078 110.588C153.622 110.588 154.895 109.763 155.763 108.11C156.633 106.457 157.068 103.49 157.068 99.2104C157.068 95.6099 156.615 92.9778 155.707 91.3168C154.8 89.6558 153.569 88.8253 152.011 88.8253C150.454 88.8253 149.326 89.6691 148.424 91.3566C147.522 93.0441 147.071 95.8381 147.071 99.7331L147.069 99.7305Z" fill="url(#paint5_linear_1200_46284)"/>
<path d="M166.813 106.125L173.844 105.419C173.996 107.247 174.306 108.638 174.773 109.595C175.532 111.145 176.62 111.92 178.034 111.92C179.087 111.92 179.899 111.524 180.472 110.731C181.042 109.94 181.329 109.022 181.329 107.977C181.329 106.932 181.056 106.098 180.514 105.316C179.971 104.533 178.708 103.793 176.731 103.097C173.489 101.933 171.178 100.383 169.798 98.4515C168.405 96.5199 167.71 94.0576 167.71 91.0647C167.71 89.0986 168.066 87.2412 168.777 85.4927C169.491 83.7442 170.562 82.3698 171.99 81.3695C173.42 80.3692 175.381 79.8677 177.872 79.8677C180.926 79.8677 183.258 80.7778 184.86 82.5953C186.466 84.4128 187.418 87.3049 187.723 91.2716L180.759 91.9243C180.573 90.2023 180.186 88.95 179.591 88.1673C179 87.3845 178.182 86.9918 177.137 86.9918C176.277 86.9918 175.63 87.2837 175.195 87.8648C174.76 88.4485 174.542 89.1569 174.542 89.9927C174.542 90.6003 174.723 91.1496 175.081 91.6378C175.428 92.1419 176.256 92.6116 177.559 93.0467C180.788 94.1611 183.101 95.2861 184.497 96.427C185.895 97.5653 186.911 98.9795 187.548 100.667C188.185 102.355 188.503 104.241 188.503 106.329C188.503 108.784 188.079 111.044 187.232 113.114C186.383 115.183 185.197 116.754 183.677 117.823C182.154 118.893 180.236 119.429 177.92 119.429C173.852 119.429 171.037 118.176 169.472 115.672C167.907 113.167 167.018 109.983 166.813 106.12V106.125Z" fill="url(#paint6_linear_1200_46284)"/>
</g>
<defs>
<radialGradient id="paint0_radial_1200_46284" cx="0" cy="0" r="1" gradientUnits="userSpaceOnUse" gradientTransform="translate(128 127.999) scale(141.866 141.873)">
<stop stop-color="#FFFFF3"/>
<stop offset="0.18" stop-color="#FFFED2"/>
<stop offset="0.75" stop-color="#E5B182"/>
<stop offset="1" stop-color="#634C3F"/>
</radialGradient>
<linearGradient id="paint1_linear_1200_46284" x1="66.6931" y1="80.5229" x2="66.6931" y2="118.781" gradientUnits="userSpaceOnUse">
<stop stop-color="#E96700"/>
<stop offset="1" stop-color="#633306"/>
</linearGradient>
<linearGradient id="paint2_linear_1200_46284" x1="84.3633" y1="8.14397e-05" x2="84.3633" y2="8.14397e-05" gradientUnits="userSpaceOnUse">
<stop stop-color="#E96700"/>
<stop offset="1" stop-color="#633306"/>
</linearGradient>
<linearGradient id="paint3_linear_1200_46284" x1="102.593" y1="79.8703" x2="102.593" y2="119.434" gradientUnits="userSpaceOnUse">
<stop stop-color="#E96700"/>
<stop offset="1" stop-color="#633306"/>
</linearGradient>
<linearGradient id="paint4_linear_1200_46284" x1="126.379" y1="79.8703" x2="126.379" y2="119.434" gradientUnits="userSpaceOnUse">
<stop stop-color="#E96700"/>
<stop offset="1" stop-color="#633306"/>
</linearGradient>
<linearGradient id="paint5_linear_1200_46284" x1="152.07" y1="79.8704" x2="152.07" y2="119.434" gradientUnits="userSpaceOnUse">
<stop stop-color="#E96700"/>
<stop offset="1" stop-color="#633306"/>
</linearGradient>
<linearGradient id="paint6_linear_1200_46284" x1="177.66" y1="79.8703" x2="177.66" y2="119.434" gradientUnits="userSpaceOnUse">
<stop stop-color="#E96700"/>
<stop offset="1" stop-color="#633306"/>
</linearGradient>
<clipPath id="clip0_1200_46284">
<rect width="256" height="256" fill="white"/>
</clipPath>
</defs>
</svg>
