<?xml version="1.0" encoding="UTF-8"?>
<svg id="Calque_1" data-name="Calque 1" xmlns="http://www.w3.org/2000/svg" xmlns:xlink="http://www.w3.org/1999/xlink" version="1.1" viewBox="0 0 324.4 346.4">
  <defs>
    <style>
      .cls-1 {
        fill: #edecec;
      }

      .cls-1, .cls-2, .cls-3, .cls-4, .cls-5, .cls-6, .cls-7, .cls-8, .cls-9, .cls-10, .cls-11, .cls-12, .cls-13, .cls-14, .cls-15, .cls-16, .cls-17, .cls-18, .cls-19, .cls-20, .cls-21, .cls-22, .cls-23, .cls-24, .cls-25, .cls-26, .cls-27, .cls-28, .cls-29, .cls-30, .cls-31, .cls-32, .cls-33, .cls-34, .cls-35, .cls-36, .cls-37, .cls-38, .cls-39, .cls-40, .cls-41, .cls-42, .cls-43, .cls-44, .cls-45, .cls-46, .cls-47, .cls-48, .cls-49, .cls-50, .cls-51 {
        stroke-width: 0px;
      }

      .cls-2 {
        fill: #f9f8f8;
      }

      .cls-3 {
        fill: #e3e2e3;
      }

      .cls-4 {
        fill: #dcdbdb;
      }

      .cls-5 {
        fill: #cccacb;
      }

      .cls-6 {
        fill: #e6e3e4;
      }

      .cls-7 {
        fill: #e0dfdf;
      }

      .cls-8 {
        fill: #dfdede;
      }

      .cls-9 {
        fill: #ebeaeb;
      }

      .cls-10 {
        fill: #ecebeb;
      }

      .cls-11 {
        fill: #cfcfce;
      }

      .cls-12 {
        fill: #d0cecf;
      }

      .cls-13 {
        fill: #050506;
      }

      .cls-14 {
        fill: #e5e3e4;
      }

      .cls-15 {
        fill: #d1d0d0;
      }

      .cls-16 {
        fill: #e7e6e7;
      }

      .cls-17 {
        fill: #d8d6d6;
      }

      .cls-18 {
        fill: #b5b2b4;
      }

      .cls-19 {
        fill: #c5c3c5;
      }

      .cls-20 {
        fill: #cdcacb;
      }

      .cls-21 {
        fill: #fbfcfa;
      }

      .cls-22 {
        fill: url(#Dégradé_sans_nom_8);
      }

      .cls-23 {
        fill: url(#Dégradé_sans_nom_9);
      }

      .cls-24 {
        fill: url(#Dégradé_sans_nom_7);
      }

      .cls-25 {
        fill: url(#Dégradé_sans_nom_5);
      }

      .cls-26 {
        fill: #dfddde;
      }

      .cls-27 {
        fill: #e2e1e1;
      }

      .cls-28 {
        fill: #eae9ea;
      }

      .cls-29 {
        fill: #dbdada;
      }

      .cls-30 {
        fill: #eaeaea;
      }

      .cls-31 {
        fill: #e2e1e2;
      }

      .cls-32 {
        fill: #dcdadb;
      }

      .cls-33 {
        fill: #dad9d9;
      }

      .cls-34 {
        fill: #efeeee;
      }

      .cls-35 {
        fill: #e3e0e2;
      }

      .cls-36 {
        fill: url(#Dégradé_sans_nom_5-2);
      }

      .cls-37 {
        fill: #d0cfd0;
      }

      .cls-38 {
        fill: #e4e2e3;
      }

      .cls-39 {
        fill: #bbb9b9;
      }

      .cls-40 {
        fill: #e4e3e3;
      }

      .cls-41 {
        fill: #d8d7d7;
      }

      .cls-42 {
        fill: #e7e6e6;
      }

      .cls-43 {
        fill: #e6e5e5;
      }

      .cls-44 {
        fill: #a4a4a4;
      }

      .cls-45 {
        fill: #f1f0f1;
      }

      .cls-46 {
        fill: #e8e7e8;
      }

      .cls-47 {
        fill: #fdc613;
      }

      .cls-48 {
        fill: #cbc9c9;
      }

      .cls-49 {
        fill: #c8c7c7;
      }

      .cls-50 {
        fill: #d2d0d0;
      }

      .cls-51 {
        fill: #e5e4e4;
      }
    </style>
    <linearGradient id="Dégradé_sans_nom_5" data-name="Dégradé sans nom 5" x1="177.7" y1="216.3" x2="261.4" y2="204.4" gradientUnits="userSpaceOnUse">
      <stop offset="0" stop-color="#fff"/>
      <stop offset=".3" stop-color="#aeaeae"/>
      <stop offset=".5" stop-color="#646464"/>
      <stop offset=".7" stop-color="#2e2e2e"/>
      <stop offset=".9" stop-color="#0c0c0c"/>
      <stop offset="1" stop-color="#000"/>
    </linearGradient>
    <linearGradient id="Dégradé_sans_nom_5-2" data-name="Dégradé sans nom 5" x1="188.7" y1="212.6" x2="125.5" y2="211.4" xlink:href="#Dégradé_sans_nom_5"/>
    <radialGradient id="Dégradé_sans_nom_7" data-name="Dégradé sans nom 7" cx="143.8" cy="194.4" fx="143.8" fy="194.4" r="18.3" gradientUnits="userSpaceOnUse">
      <stop offset="0" stop-color="#fff"/>
      <stop offset=".3" stop-color="#b8b8b8"/>
      <stop offset="1" stop-color="#000"/>
    </radialGradient>
    <linearGradient id="Dégradé_sans_nom_9" data-name="Dégradé sans nom 9" x1="139.5" y1="146.8" x2="148" y2="124.4" gradientUnits="userSpaceOnUse">
      <stop offset="0" stop-color="#fff"/>
      <stop offset=".1" stop-color="#d4d4d4"/>
      <stop offset=".3" stop-color="#949494"/>
      <stop offset=".5" stop-color="#5f5f5f"/>
      <stop offset=".6" stop-color="#363636"/>
      <stop offset=".8" stop-color="#181818"/>
      <stop offset=".9" stop-color="#060606"/>
      <stop offset="1" stop-color="#000"/>
    </linearGradient>
    <linearGradient id="Dégradé_sans_nom_8" data-name="Dégradé sans nom 8" x1="140.2" y1="143.9" x2="164.6" y2="162" gradientUnits="userSpaceOnUse">
      <stop offset="0" stop-color="#fff"/>
      <stop offset="0" stop-color="#e1e1e1"/>
      <stop offset=".2" stop-color="#a9a9a9"/>
      <stop offset=".4" stop-color="#7b7b7a"/>
      <stop offset=".5" stop-color="#575756"/>
      <stop offset=".6" stop-color="#3d3d3c"/>
      <stop offset=".7" stop-color="#2d2d2c"/>
      <stop offset=".8" stop-color="#282827"/>
      <stop offset=".8" stop-color="#232323"/>
      <stop offset=".9" stop-color="#0f0f0f"/>
      <stop offset=".9" stop-color="#030303"/>
      <stop offset="1" stop-color="#000"/>
    </linearGradient>
  </defs>
  <g>
    <polygon class="cls-47" points="27.3 95.9 27.3 246.5 157.7 321.8 288.1 246.5 288.1 95.9 157.7 20.6 27.3 95.9"/>
    <path class="cls-13" d="M157.7,322.8L26.4,247V95.4l.5-.3L157.7,19.6l131.3,75.8v151.6l-.5.3-130.9,75.5ZM28.2,246l129.5,74.8,129.5-74.8V96.5L157.7,21.7,28.2,96.5v149.5Z"/>
  </g>
  <path class="cls-13" d="M157.7,308.3l-118.7-68.5V102.7l.5-.3,118.3-68.3,118.7,68.5v137.1l-.5.3-118.3,68.3ZM40.8,238.7l116.9,67.5,116.9-67.5V103.7l-116.9-67.5L40.8,103.7v135Z"/>
  <g>
    <path class="cls-13" d="M95.1,78.2h-5.5v16.2h2.1v-6.6h3.4c1.3,0,2.2-.5,2.8-1.5.6-.9.9-2.1.9-3.3s-.3-2.6-1-3.5c-.7-.8-1.6-1.3-2.7-1.3ZM91.7,80.5h2.9c.6,0,1,0,1.3.3.6.4.8,1.1.8,2.1s-.2,1.6-.6,2c-.4.4-.9.5-1.6.5h-2.9v-4.9Z"/>
    <polygon class="cls-13" points="102.6 87.2 109.1 87.2 109.1 84.9 102.6 84.9 102.6 80.6 109.6 80.6 109.6 78.2 100.6 78.2 100.6 94.4 109.8 94.4 109.8 92 102.6 92 102.6 87.2"/>
    <polygon class="cls-13" points="120.5 78.2 110.4 78.2 110.4 80.6 114.4 80.6 114.4 94.4 116.5 94.4 116.5 80.6 120.5 80.6 120.5 78.2"/>
    <path class="cls-13" d="M123.7,78.2l-4.6,16.2h2.1l1.3-4.7h4.3l1.2,4.7h2.3l-4.4-16.2h-2.2ZM126.2,87.4h-3.1l1.6-5.7,1.5,5.7Z"/>
    <polygon class="cls-13" points="139 90 133.5 78.2 131.2 78.2 131.2 94.4 133.2 94.4 133.2 82.6 138.8 94.4 141 94.4 141 78.2 139 78.2 139 90"/>
    <path class="cls-13" d="M154.5,86c0-2.2-.4-4-1.2-5.4-1-1.9-2.7-2.8-4.8-2.8s-3.7,1-4.7,3c-.8,1.5-1.2,3.4-1.2,5.6s.5,4.4,1.4,6c1.1,1.7,2.6,2.5,4.5,2.5s1.2-.1,1.8-.3c.5-.2.9-.4,1.3-.7l1.9,1.9,1.1-1.7-1.6-1.7c.6-.9,1.1-2,1.4-3.4.2-.9.3-1.9.3-3ZM149.6,92.3s0,0,0,0c-.3,0-.6,0-.9,0-1.3,0-2.3-.5-2.9-1.6-.7-1.1-1-2.5-1-4.4s.4-3.8,1.1-4.8c.7-1,1.6-1.5,2.8-1.5s2.1.5,2.8,1.6c.7,1.1,1,2.5,1,4.3s0,1.7-.3,2.6c-.1.8-.3,1.5-.7,2.2,0,0-.9,1.2-1.8,1.5Z"/>
    <path class="cls-13" d="M163.7,88.1c0,1.1-.1,2-.4,2.6-.5,1.1-1.3,1.7-2.6,1.7s-1.8-.5-2.2-1.6c-.3-.7-.5-1.6-.5-2.7v-9.9h-2.1v9.1c0,1.9.2,3.5.6,4.5.8,2,2.2,3,4.3,3s3.5-1,4.3-3c.4-1.1.6-2.6.6-4.5v-9.1h-2.1v9.9Z"/>
    <polygon class="cls-13" points="169.9 87.2 176.4 87.2 176.4 84.9 169.9 84.9 169.9 80.6 176.9 80.6 176.9 78.2 167.9 78.2 167.9 94.4 177.1 94.4 177.1 92 169.9 92 169.9 87.2"/>
    <path class="cls-13" d="M191.5,88.3c-.2,1-.4,1.8-.7,2.4-.6,1.1-1.4,1.7-2.4,1.7s-2-.5-2.6-1.6c-.6-1.1-.9-2.6-.9-4.3s.3-3.8,1-4.9c.7-1,1.5-1.5,2.6-1.5s1.5.3,2,.8c.5.6.8,1.3,1,2.3v.2h2.1v-.3c-.1-1.4-.6-2.6-1.4-3.7-.9-1.1-2.1-1.7-3.6-1.7s-3.2.9-4.3,2.5c-.9,1.5-1.4,3.5-1.4,5.8s.6,5.4,1.9,6.9c1,1.2,2.2,1.7,3.6,1.7s3-.7,3.9-2.1c.8-1.1,1.3-2.6,1.4-4.3v-.3s-2,0-2,0v.2Z"/>
    <polygon class="cls-13" points="197.3 78.2 195.2 78.2 195.2 94.4 203.2 94.4 203.2 92 197.3 92 197.3 78.2"/>
    <path class="cls-13" d="M212.1,88.1c0,1.1-.1,2-.4,2.6-.5,1.1-1.3,1.7-2.6,1.7s-1.8-.5-2.2-1.6c-.3-.7-.5-1.6-.5-2.7v-9.9h-2.1v9.1c0,1.9.2,3.5.6,4.5.8,2,2.2,3,4.3,3s3.5-1,4.3-3c.4-1.1.6-2.6.6-4.5v-9.1h-2.1v9.9Z"/>
    <path class="cls-13" d="M224.9,86.6c-.3-.3-.6-.6-1.1-.9.3-.2.5-.5.7-.7.4-.7.7-1.5.7-2.6s-.2-1.7-.5-2.4c-.6-1.2-1.7-1.8-3.2-1.8h-5.3v16.2h5.3c1.6,0,2.9-.7,3.6-2,.5-.9.8-1.8.8-2.9s-.3-2.3-.8-3ZM221.4,92.1h-3.2v-5h3c.6,0,1.1.1,1.5.3.7.4,1,1.1,1,2.1s-.1,1.2-.4,1.6c-.4.7-1,1-1.9,1ZM222.4,84.5c-.3.2-.8.3-1.5.3h-2.7v-4.4h2.6c.7,0,1.2,0,1.5.3.6.3.8.9.8,1.9s-.3,1.6-.8,1.9Z"/>
  </g>
  <g>
    <path class="cls-13" d="M170.5,97.2c-7.7,4.7-13.4,8.3-21.2,13-4.3,2.6-8.6,5.2-12.9,7.9-.5.3-.8.7-1.3,1.1,0,0,0,.2,0,.3.5,0,0,.3.7.4-.8.7-1.6,1.8-2.2,2.3,0,0,1,.5,1,.5,1-.5,2.3-2.1,3.3-2.6,0,0-.2.1-.1.2-1,.9-2.2,1.7-3.2,2.6,0,0,.9.6,1,.7,1.9-1.1,3.6-2.5,5.5-3.6,0,.1-.1.2,0,.3-1.4,1-3,1.9-4.4,2.9,0,0,1.1.7,1.1.8,2.1-1,3.9-2.4,6-3.4,0,.1,0,.2,0,.4-2.1,1.3-4.6,2.5-6.6,3.8,0,.1.8.5.9.6,2.4-1,4.8-2.2,7.2-3.2,0,0-.3,0-.3.1-2.4,1.3-4.7,2.5-7.1,3.8,0,.1.4.4.5.5,1.8-.7,3.6-1.4,5.4-2.2v.2c-1.2.7-2.5,1.4-3.8,2.1,0,.1.1.4.2.5,1.2-.4,2.3-1.1,3.5-1.5,0,0,0,.1,0,.2-2.6,1.2-5.1,2.5-7.7,3.7,0,.1,0,.3.1.4.3,0,1,.2,1.3,0,3.3-1.4,6.2-3,9.5-4.4.1,0,.2,0,.4,0-.8.4-1.5.9-2.3,1.3-2.6,1.3-5.1,2.7-7.8,3.9-1.1.5-2.4.4-3.7.6-1.5.3-3,.8-4.1,1.9-.3.3-.3.9-.3,1.4,0,3.9,2.1,6.3,6,6.8,2.8.3,5.5-.1,8.2-.9,1.6-.5,3.2-1,5-1.6-.9-.9-.6-2.2-1.8-2.6-.2,0-.2-.5-.4-.7-.2-.3-.4-.7-.7-.8-.6-.2-.8-.6-1.1-1.2-.2-.5-1-.9-1.6-1.1-1-.3-2.1-.5-3.2-.7-.2,0-.2,0-.4-.2.2-.2.8-.2,1-.3,1.5-.8,2.3-1.5,3.8-2.3,0,.3.2.7.2,1,2.7-1,5.2-2.7,7.9-3.7,0,0,0,.2.1.3-2.3,1.2-4.6,2.4-6.8,3.5,0,.1,0,.2,0,.3.4,0,1.2.3,1.6.2,2.3-.9,4.1-2.2,6.3-3,.3-.1.6-.2.9-.2,0,0,0,.2,0,.2-2,1.1-4.3,2-6.3,3.1,0,.1.4.3.4.4,0,0,3.5-.4,1.8.5v.3s2.5.2,2.6.2c1-.3,2.1,0,2.1,0,0,0,0,1.4,0,1.4,0,0,1.3.6,1.2.8.5-.1,1-.3,1.5-.4.5-.1.6-.5,1-.6,0,0,.1,0,.2.2-1,.5-1.9,1.1-2.8,1.6,0,0,.3.5.4.6,2.5-.9,5-1.8,7.5-2.7.2.6.2.6-.5,1-2.3,1.1-4.5,2.2-6.8,3.2-4.6,2.1-9.3,3.9-14.3,4.9-3.2.6-6.5,1-9.7-.2-2.9-1.1-4.5-3.6-4.6-6.7-.2-5.2,1.8-9.7,4.3-14,.5-.9,1.1-1.8,1.6-2.6l-.2-.2c-1.1.4-2.3.9-3.4,1.4,0,0-.1.1-.1.2,0,1.8-1.3,3.1-2.2,4.5-2.9,4.5-6.7,7.9-11.8,9.8-3.4,1.3-6.9,1.6-10.5,1.2-7.9-.9-14.7-4.5-20.9-9.3-.3-.3-1-.5-.5-1.1.5-.7.9-.1,1.3.2,3.7,3,7.8,5.4,12.3,7.1,3.9,1.5,8,2.4,12.3,2,.8,0,1.7-.2,2.5-.4.3,0,.6-.5.8-.8,2-3.9,4.7-7.2,8.4-9.5,4.4-2.8,8.9-5.3,13.4-7.9,7.3-4.1,14.6-8.2,21.8-12.3,7.8-4.4,16.7-8.7,13.4-6.6Z"/>
    <path class="cls-21" d="M193.3,219.6h-55.9c.2-1.3,1.3-1.1,2.2-1.4.9-.3,1.9-.2,2.8-.5,1.4-.1,2.8-.3,4.1-.5,2.4,0,4.7-.6,7.1-.9,2.1,0,4.1-.8,6.1-.9,1.5,0,3,0,4.4-.7q-2.5-3,1.4-4.5c.2,0,.4-.2.6-.2,2.6-.6,5.2-1.3,7.9-1.4,2.6-.3,5.2-.8,7.7-1.4.7,0,1.9.5,2,1.2-1,1.9-2.6,1.5-4.7,2.4,2.5.9,3.1.5,5,0,.9-.1,1.7-.4,2.6-.4.3,0,.7,0,1,.1,1.7,1.6,4.2,2.5,5,5,.2.7.6,1.1,1.3,1.4.6.3,1.7.5,1.5,1.4-.2.8-1.9.9-2.1,1.2Z"/>
    <path class="cls-25" d="M238.8,197.3c-.1,0-7.5,1.4-8.8,1.7-.8.2-1.1.1-1.1-.7-.3.4-.5.9-.8,1.3s0,.1-.2.1c-1,.3-1.7.8-1.5,2.1,0,0,0,0,0,0-2,.6-2.6,2.6-3.7,4,0,0,0,.1,0,.2-2.1.5-3.4,2.3-5.2,3.3-.3.2-.6.5-.7.9s-.1.2-.3.2c-1.8.2-3.4.8-4.6,2.2,0,0,0,0,0,.1-2.4-.6-4.6,0-6.8,1,0,.2,0,.3,0,.4,0,0,0,0,0,0-1.4-.7-2.9-1.2-4.1,0-.1,0-.3,0-.5,0-1.1,0-2.1-.2-3.1-.6-2.6-1-5.3-1.6-7.9-2.8-1-.5-1-.4-1.4.5-.1.5,0,.8.5,1,1.6.7,2.8,1.9,3.7,3.4s0,.2,0,.2c-.4,1.8,1.5,1.7,2.4,2.4s.1.4,0,.5c-.7.4-1.3.7-1.8,1h36.3s0,0,0,0c13.3-.8,23.2-9.2,25.1-11.3,1.3-1.5,1.9-3.1,1.2-5-1.4-3.7-7.9-2.3-11-2.5s-.4-.4-.2-.5c1.8-1.6,1.5-4.4-5.6-3Z"/>
    <path class="cls-36" d="M180.8,205.1h0c-.5-.3-1-.6-1.4-.9-.4.7-1.4.2-1.8.9-.8.1-1.6.2-2.4.4-3.6,1.1-7.3,1.2-10.8,2.2h0c-3.3,1.1-6.3.7-11.9,2.2,0,0-2.6.5-3.8,1.1-.7.3-1.5.7-1.5,1.5,0,.9.9,1.2,1.7,1.6.9.4,2,.1,2.7,1.1-2.1.4-4,.7-5.9,1-2.2.2-10.1,1.2-11.9,1.5-3.6.6-7.2.6-10.7,1.8h14.5c1.4-1.4,7.3-1.6,9.1-1.8,2.8-.3,11.5-1.5,13.6-1.8,1.7-.5,5.1,0,5.2-1,0-1.3-1.4-2.2-2.7-2.3s-.6-.5-.2-.8c.9-.4,2.2-1,4.4-1.5s4.9-.8,7.3-1.3c2.6-.4,5.4-.3,7.8-1.7.3.3.5.6.8.8-.8,1.1-2,1.5-3.2,1.8-.4.1-.8.2-.8.6,0,.6.5.6.9.7,2,.3,4-.7,6,.6l1.2-1.1c-1.4-2.7-3.9-4.3-6.4-5.9Z"/>
    <path class="cls-13" d="M121.8,199.2c-3.7.8-7.3,1.9-11.1,1.8-12.5,0-23.5-7.8-27.8-19.6-4.2-11.8-.6-25.1,9.1-33,2.8-2.3,2.9-3.1,1.7-6.6-1.9-5.4-5.5-8.7-11-9.9-.6-.1-1.7,0-1.5-.9.2-1,1.2-.5,1.9-.3,6.7,1.7,11.9,6.1,12.8,15,4-2,8-3.4,12.4-3.7,20.3-1.6,36.1,17.1,31,36.9-.6,2.3,0,2.4,1.9,2.3,3.5-.3,7-.3,10.3.8,3,.9,5.4,2.7,7.2,5.2.3.4.6.8,0,1.2-.4.3-.7,0-.9-.3-4.2-6-10.3-6-16.7-5.8-2.3,0-3.6.8-4.3,2.9-.5,1.5-1.6,2.7-2.4,4.1,0,0-.1.2-.2.2-4.1-.2-5.1,2.4-5.3,5.7-1.9,2-4.3,3.1-6.8,4-.1,0-.2,0-.3,0Z"/>
    <path class="cls-13" d="M167.7,165.6c-.3.1-.7.3-1,.4,0,.5-.6.7-.9,1-.3,0-.6,0-.8,0-4.4.7-6.7,5.1-4.8,9.1.4.9,1.2,1.5,1.1,2.6-.3.2-.7.3-1,.5-.3-1.4-1.5-.6-2.4-1,1.2-.7.9-1.5.6-2.6-.9-2.9-.4-5.7,1.7-7.9,2-2.1,4.5-3.1,7.5-2.2Z"/>
    <path class="cls-13" d="M202.3,154.4c-12.7,0-23.3,7.8-27.8,18.9,0-.3-.4-.5-.5-.8-.8-3.5-2.5-6.1-6.3-6.8-.7-.1-.8-.2-1.1.1.2,1-.5.9-1.1.9-.3,0-.6.2-.8.4-.6,3.1-1,6.2-1.5,9.3,0,.3-.3,1.4-.8,2-.5,0-.4.5-.8.4-.2,0-.4,0-.6,0-.3.1-.5.3-.6.6-.9.1-1.7.9-2.8.2-2.9-2.1-5.6-4.3-8-7-.5-.6-.6-1,.2-1.4,3.8-1.6,6.7-4.6,9.8-7.2,7-5.7,14.1-11.3,21.1-17.1,10.2-8.5,20.5-16.9,29.9-26.3,3.6-3.1,15.9-15.9,16.4-17.1-1.5.3-18,16.8-18.4,17.1-12.4,11.1-25.4,21.4-38.9,31.1-1.8,1.3-4.2,3.3-6.6,5,1.1-3-.5-5-.2-7.5.2-1.9,1.7-.7.5.2-.6.4-1.6-.3-1.7.7-.5,5.2-1.1,8.7-6.8,11.1-1.2.7-2.2,1.4-2.9,2.6-.3.7-.2,1.5-.4,2.2-.4,1.4-1.6,1.9-2.8,2.3-1.1.3-1.5-.6-2-1.4-.4-.9-.7-1.8-.9-2.7-.2-.7-.3-1.5-.4-2.2-.4-1.6.2-3.2.4-4.7,1.2-4,3.7-7.2,6.9-9.9.2-.1.3-.3.4-.5,1.2-1.3,2.8-2.2,4.3-3.2,1-.9,2.2-2,3.5-1.3,0,0,4.3-3.9,6.9-3.9.5,0,1.2-.2,1-.9-.2-.7-.9-.3-1.3-.2-7.7,2.4-14.6,6.3-19.7,12.6-4.9,6.1-5.5,12.9-1.9,19.2,3.9,6.8,10.2,11,16.8,14.8.4.2.9.5,1.1-.1.2-.5-.3-.8-.6-1-1-.6-2-1.2-3-1.8,4.1-.1,8,.2,12,.5,0,0,0,0,.1,0-.1,1-.2,2.1-.2,3.2,0,5.2,1.3,10.2,3.7,14.5-7.1,1.3-13.9,3.2-20.6,5.1-.5.1-1.5.1-1.3.9.2.9,1,.3,1.5.1,5.4-1.4,10.9-2.6,16.2-4.3,2.1-.6,3.8-.8,5.2-.2,5.4,8.5,14.9,14.2,25.7,14.2,16.8,0,30.3-13.6,30.3-30.3s-13.6-30.3-30.3-30.3Z"/>
    <path class="cls-19" d="M193.1,205.1c-.6-1.7-.5-3.6-.6-5.4,0-.5.1-1.2-.6-1.3-1,0-.6.9-.6,1.4,0,2.4.3,4.8,1,7.2.2.5.6,1.1.1,1.8-.9-.7-1.5-2.2-3.1-1.2-.4.2-1.6-.5-2-1.5-.3-.8-.7-1.5-1-2.2-.7.3-.4.8-.5,1.2,0,.4-.1.9-.8.9-.5,0-.9-.3-1-.8-.3-1-.6-2-.9-2.9-.9.1-.7,1.1-1.3,1.3-1.4.5-7.2-10.9-7.4-14.9,2,1.5,3.7,3.1,5.8,4.1,1.7.8,3.5,1.4,5.4,1.7.5,0,1.1.5,1.3-.4.1-.8-.6-.7-1.1-.8-4-.7-7.3-2.7-10.2-5.5-.6-.6-1.5-1.3-1.3-2.5,0,0,1.1.8,1.6,1.2,3.3,2.8,7.2,4.3,11.5,4.8.5,0,1.2.2,1.3-.5,0-.7-.7-.7-1.1-.7-4.3-.5-8.2-2.1-11.4-5-1.4-1.2-1.9-2.5-1.6-4.4,1-5.2,3.1-9.8,6.4-13.8,4.1-4.9,9.7-6.6,15.9-7.2,0,1.3-1.5,1.5-1.5,2.6.7.3.9-.4,1.4-.5.5-.2.9-1.2,1.4-.3.3.6.8,1.3,0,2.1-.7.6-1.4,1.3-2,2.2,1.8-1.8,2.8.7,4.2.6,0,.7-1,.8-.8,1.6.2,0,.4,0,.6,0,.2,0,.3-.3.5-.4,1-.4,2-2.2,3.1-1,.9.9-.9,1.6-1.1,2.5,0,.1,0,.3.1.7.7-.6,1.3-1.2,2-1.7.6-.5,1.4-.3,1.9,0,.8.6-.1,1.1-.5,1.4-1.5,1.3-2.3,3.1-4.7,3.6-1.8.4-2.9,2.3-3.9,3.9-2.1,3.1-3.2,6.6-3.9,10.3-.1.6-.8,1.7.3,1.9s.8-1.2,1-1.8c.4-1.1.7-2.1.8-3.2.2-2,.8-2.4,2-1.7.8.5,1.4.9.4,1.8-.4.3-.9.8-.3,1.3.6.5.9-.2,1.3-.5.7-.7,1.4-1.3,2.3-.3,1.2,1.2-.5,1.4-.8,2-.2.5-1.3.6-.6,1.4.5.5.9-.2,1.3-.5.4-.3.8-.7,1.2-1,.8-.8,1.2,0,1.7.4.6.6.1.9-.3,1.2-.1,0-.3.2-.4.3-.5.5-1.7.9-1.2,1.6.7,1,1.4-.2,2-.7.8-.6,1.5-1,2.2.1.7,1.2-.5,1.1-1,1.6-.6.6-1.7.7-1.9,1.7,0,.8,1.5,0,1.3,1-1.6,1.2-3.2.2-4.7-.1-.5-.1-1.3-.8-1.6,0-.3.9.7,1,1.3,1.2,2.8,1,5.8,1.1,8.7.7.5,0,1-.5,1.6.3-2,1.1-4.2.9-6.2.9-1.2,0-2.4-.4-3.6-.5-.7,0-1.9-1-2.1.2-.2,1,1.2.8,2,1,2.9.6,5.8.8,8.8.2.6-.1,1.6-.8,1.9.3.4,1.3-.9,1.1-1.5,1.4-.4.2-.8.3-1.4.6.7.8,1.6.4,2.2.7.5.2,1.4,0,1.2.9-.1.7-.2,1.4-1.1,1.5-1.1.2-2.2.5-3.3,1.1,1,.3,2,.5,3.1.8-1,1.8-2.9,1-4.2,1.6,0,1.1,2.1.8,1.5,1.8-.8,1.3-2.2-.4-3.4.1-.4.7,1.4.9.6,1.7-.6.6-1.4.3-2-.3-.3-.2-.5,0-.7.2-2,1.5-4.3,1-5.5-1.3-1.5-2.8-1.9-5.9-1.6-9,0-.5.5-1.4-.4-1.5-.9,0-.7.8-.8,1.4-.1,1,0,1.9-.1,2.9s0,1,.2,1.5,0,.9-.7,1.1Z"/>
    <path class="cls-2" d="M161.3,178.7c-3.5-4.4-3-9.1,1-11.5.7-.4,1.5-.7,2.3-.9.6-.1.4.4.3.7,0,3.2-.5,6.4-1.5,9.5-.4,1-1.3,2.5-2.2,2.2h0Z"/>
    <path class="cls-13" d="M146.3,167c2.2-.6,4.1-1.8,5.9-3.2.2,2,0,3.7-2.2,4.6-2,.9-2.7.7-3.7-1.5Z"/>
    <path class="cls-45" d="M219.9,181.6c-.3,1.2-1.4,1.7-2.2,1.7-1.2,0-1.8-1.4-1.9-2.4-.1-.8,1.2-1.7,2-1.7,1.2,0,1.3,1.6,2.1,2.4Z"/>
    <path class="cls-46" d="M201.7,180.1c-.7.9-1.2,2-2.1,1.8-1-.2-2.4-.4-2.6-1.7,0-.7.4-1.9,1.3-1.8,1.2.1,2.3.9,3.4,1.7Z"/>
    <path class="cls-1" d="M218.3,195.8c-.5-1.5-.9-2.8-1.4-3.9-.5-1.1,0-1.4.9-1.8,1.1-.4,1.2.3,1.5,1,.5,1.6.4,3-.9,4.7Z"/>
    <path class="cls-28" d="M201.3,174.6c1.5-1.4,3.5-1.5,4.9-.3.4.4.6.7.2,1.1-.6.5-.9,1.6-2,1-1-.5-1.9-1.1-3.1-1.8Z"/>
    <path class="cls-14" d="M204,177.6c-.6.8-.9,1.7-1.9,1.3-1-.4-1.9-1-2.8-1.5-.6-.3-.4-.7-.1-1.1.5-.6.9-1,1.7-.5,1,.6,2,1.2,3,1.8Z"/>
    <path class="cls-9" d="M214.1,185.8c-1-.5-1.8-1.4-1.7-2.2,0-.9,1.2-1.7,2.1-1.7.9,0,1.6,1.2,1.6,2.1,0,1.1-1.4,1.1-2,1.8Z"/>
    <path class="cls-9" d="M205.3,172.4c.9-1.7,2-2.4,3.8-1.2.7.5.4.8,0,1.4-1.5,2-2.6.7-3.8-.2Z"/>
    <path class="cls-27" d="M214.9,191.1c.9.3,1,1.2,1.2,1.9.2.8,1,1.6.3,2.4-.2.3-1,.3-1.5,0-.7-.3-.8-1.1-.9-1.7,0-.6,1-1.3-.4-1.8-.4-.2.8-.4,1.2-.9Z"/>
    <path class="cls-14" d="M221.9,185.9c0,1.2-1.2,1.3-1.9,1.5-1.3.3-1.5-1.1-1.5-1.8,0-1.1,1.3-1.5,2.1-1.6,1-.1.9,1.2,1.3,1.9Z"/>
    <path class="cls-30" d="M211.7,172.9c.7.5,1.9.7,1.7,1.6-.2.9-1.1,1.7-2.1,1.8-.6,0-1.7-.7-1.6-1.3.1-.9,1.1-1.5,2-2Z"/>
    <path class="cls-51" d="M208.2,179.3c-.6-.5-1.6-.8-1.5-1.5.1-.8.9-1.6,1.8-1.7.7,0,1.6.5,1.6,1.2,0,1-1.2,1.4-1.9,2Z"/>
    <path class="cls-17" d="M204.8,182.3c-.4.9-1,1.5-1.8,1.7-.6.2-1.5-.4-1.5-1-.1-.9.8-1.5,1.5-1.8.8-.3,1.2.7,1.8,1Z"/>
    <path class="cls-6" d="M216,172c-.4.7-.8,1.5-1.7,1.4-.8,0-1.7-.7-1.7-1.5,0-.7.9-1.4,1.8-1.4.8,0,1.4.5,1.6,1.5Z"/>
    <path class="cls-10" d="M216.6,177.3c-.7.8-1.4,1.7-2.4,1.8-.5,0-1.4-1-1.2-1.4.4-.8,1.2-1.6,2.1-1.9.5-.2,1.2.7,1.5,1.5Z"/>
    <path class="cls-19" d="M193.1,205.1c.6-.5.2-1.5.5-2.1.6,2.8,1.4,5.8,2.7,8.5-1.8-1.7-2.8-3.8-3.1-6.3Z"/>
    <path class="cls-3" d="M216.3,189.1c-1.1,0-1.3-.9-1.4-1.4,0-1,1.1-1.3,1.9-1.5.9-.2,1,.8,1.1,1.4.3,1.4-1.1,1-1.7,1.6Z"/>
    <path class="cls-10" d="M213.1,180.1c-.5.8-1.3,1.6-2.2,1.7-.6,0-1.4-.8-1.2-1.3.2-.9,1.1-1.6,2.1-1.7.6,0,1.1.6,1.3,1.3Z"/>
    <path class="cls-43" d="M217.6,176.6c-.7-.4-1.5-.9-1.4-1.6.1-.7.9-1.3,1.6-1.3.7,0,1.4.5,1.4,1.3,0,.9-1,1.2-1.6,1.7Z"/>
    <path class="cls-33" d="M212.6,186.1c0,.9-.8,1.2-1.4,1.2-1,0-1.3-1-1.5-1.7-.3-.7.6-1.3,1.2-1.3,1,0,1.1,1.2,1.7,1.7Z"/>
    <path class="cls-51" d="M208.2,186.3c.9.4,1.4,1,1.5,1.7,0,.7-.8,1.1-1.4,1.1-.8,0-1.4-.8-1.4-1.5,0-.8,1-.9,1.4-1.4Z"/>
    <path class="cls-29" d="M205.4,178.8c.8.3,1.5.6,1.7,1.3.1.7-.6,1.2-1,1.2-.8,0-1.6-.6-1.7-1.4-.1-.6.7-.9,1.1-1.2Z"/>
    <path class="cls-27" d="M205.8,183.6c.8.3,1.4.7,1.3,1.4,0,.7-.8,1.3-1.6,1.4-.7,0-1.3-.5-1.3-1.3,0-.8,1-1,1.5-1.5Z"/>
    <path class="cls-15" d="M219.9,177.5c.9,0,.7,1,.8,1.5.1.8,1.9,1.4.7,2.1-1.2.7-1.2-1.1-1.8-1.7-.7-.6-.9-1.4.3-1.9Z"/>
    <path class="cls-41" d="M209.8,182.8c-.2.7-.8,1.3-1.5,1.2-.7,0-1.2-.7-1.2-1.4,0-.6.7-1.1,1.3-1.1.7,0,1.1.7,1.4,1.3Z"/>
    <path class="cls-32" d="M213.4,188c.7.2,1,.7,1,1.3,0,.9-.9,1-1.4,1.1-.8.2-1-.6-1-1.1,0-.8.8-.9,1.4-1.2Z"/>
    <path class="cls-37" d="M204.8,193.7c-.3-.5-1.2-.2-1.3-1,1.4.6,2.2-.6,3.3-1.1.5-.2,1-.6,1.3.1.4.7-.4.9-.8,1.1-.8.3-1.7.6-2.5.9Z"/>
    <path class="cls-20" d="M211.6,169.6c-.3.8-.7,1.3-1.2,1.1-.8-.2-1.6-.4-2.1-1.1-.2-.4.3-.7.6-.7.9.2,1.8.4,2.7.7Z"/>
    <path class="cls-31" d="M213.9,197.4c0,.6-.3.9-.8.9-.9,0-1.2-.5-1.2-1.3,0-.7.5-1,1-.9.7,0,.7.8.9,1.3Z"/>
    <path class="cls-7" d="M210.4,189.7c.6,0,.8.5.8.9,0,.8-.7.9-1.2,1-.6.1-1-.3-.9-.9.1-.6.8-.8,1.3-1Z"/>
    <path class="cls-19" d="M105.9,171c-.8.3-1.5.5-2.3.8-.4.1-.9.3-.7.9.2.5.8.2,1.2.2.6-.1,1.2-.7,1.4.4-.4.4-1.6.1-1.3,1.1.2.8,1,.3,1.6.2,1.6-.3,3.2-.7,4.8-1.2,1.2-.3,1.7.2,2,1.2.4,1.4-.9.9-1.4,1-1,.3-2.1.3-3.1.4-.5,0-1,.2-.9.7,0,.6.6.6,1,.5,1.3-.1,2.6-.2,3.8-.4,1.8-.3,2,1,2.1,2.1.2,1.4-1.1.8-1.8,1-1,.2-2.2-.2-3.3.7,1.2,1,2.6.5,3.8.5,1.3,0,2,.3,1.9,1.7,0,.4,0,.9,0,1.4.3,2-.4,2.9-2.5,2.5-.3,0-.6,0-.9.1.4.9,1.3.9,1.8,1.3.4.3,1.4.3.9,1.2-.3.6-.6,1.2-1.5,1.1-1.1-.1-2.2-.2-3.5-.3.6,1.2,2,1.2,2.7,2.1-1.5,1.3-3.1,0-4.6,0,0,.2-.1.3,0,.4.3.7,1.9,1.1,1.1,2-.7.8-1.5-.4-2.3-.8-.3-.1-.5-.3-.8-.4-.8.7.9,1.4,0,1.9-.7.4-1.4.1-1.9-.7-.2-.4-.6-.2-1,0-1.9,1.1-2.8,0-3.5-1.6-1.5-3.4-1.8-7-.8-10.6.2-.6.9-1.6-.1-1.9-.9-.2-.8,1-1,1.7-.8,2.7-.7,5.4-.3,8.1.1.5.4,1-.5,1-1.1-3.1-.8-6.2-.4-9.4,0-.6.8-1.5-.3-1.6-.9-.1-.7,1-.8,1.6-.5,2.8-.6,5.6,0,8.3.2.7.2,1.5,0,2.4-.4-.9-.6-1.6-1-2.3-.5-.9,0-2.7-2.2-2.1-.5.1-1.6-1-1.6-2.2,0-.8-.1-1.6-.2-2.4-1.2-.1-.7,2-1.9,1.5-1.7-.8-.1-2.5-.9-3.8-1.8,1.5-1.8,0-2.2-1.3-3.5-8.7-2.4-17,2.9-24.5,6.8-9.7,15-12.9,25.6-10.3.3,0,.6,0,.7.5-.2.7-1.2.7-2.1,1.4,1.1,0,1.8-.1,2.4-.1.5,0,.6.3.6.7,0,.7.1,1.3-.8,1.7-.9.3-1.7.8-2.5,1.5,2.1-.9,2.8.8,4,1.9-.5.4-1.1.7-2,1.3,1.9.4,3.7-1.5,4.9.5-.4.9-1.7.9-2.1,2.1,1.6,0,3.2-2.2,4.6.4-1.5.7-3,1.5-4.5,2.3-.7.4-1.4.9,0,1.5.5.2,1,.7,1.4,1.2.3.4,1.3.8.3,1.4-.7.4-1.4,1.4-2.3.3-.9-1.1-1.9-2.1-2.9-3.2-.3-.4-.8-.6-1.1-.1-.3.4,0,.7.3,1,.8.8,1.6,1.6,2.3,2.5.3.4,1.1.8.2,1.4-.6.4-1.2.5-1.7-.2-.6-.8-1.3-1.4-2-2.2-.3-.3-.6-.5-1-.2-.5.4-.2.8.1,1.1.4.4.8.7,1.1,1.2.3.5,1.7.9.6,1.7-.7.5-1.6,1.5-2.7.2-.7-.8-1.8-2.5-2.4-1.8-1,1.2,1.2,1.6,1.6,2.6,0,.1.2.3.2.4-.1,1-2.1.5-1.6,2,.1.6-.2.7-.6.9Z"/>
    <path class="cls-28" d="M130.8,196.8c-3,.8-6,1.6-9,2.4,2.2-1.6,4.8-2.3,6.8-4.2,1.2-.7,2.4-.5,3.6.2.2,1.2-1.1,1-1.5,1.7Z"/>
    <path class="cls-24" d="M162,190.1h0l-5.3.5c-1.4,0-2.7,0-4.1,0,0,0,0,0,0,0h0c-.4,0-.7-.2-1.1-.3.7-1.1,2.4-.6,3.1-2-3,0-5.6,1.1-8.4.9-1.6,0-3.2,0-4.8,0-2.1.2-4.2-.6-6.2.3l-.8-.4h-.2c0,0-1.4-.4-2.5-.7,0,0-.4.9-2.3,3.5s-1.7,2.7-1.7,2.7c.9.2,2.6.6,3.5.5.2.6-.5,1-.5,1.6,0,0,0,0,0,0,0,0,0,0,0,0-.8-.5-1.6-.1-2.4,0-2.3.6-4.4,1.4-6.6,2.3,0,0,0,0,0,0-.3.4-1.2.2-1,1.2,3.4-.9,6.7-1.7,10.1-2.6h0c.9-.2,1.8-.4,2.7-.5h0c1.4,0,2.7-.6,4.1-.9h0c1.4-.3,2.8-.6,4.1-.8,1.4,0,2.8-.3,4-.9h0c1.6-.6,3.5-.4,5.1-1.3,1.2-.2,2.5-.2,3.6-.9,1.3-.1,2.5-.3,3.7-.9,1.8-.4,3.5-.7,5.3-1.1,1.1-.2,2.2-.3,3.5-1.2-1.9.3-3.5.2-4.9.8Z"/>
    <path class="cls-16" d="M126.2,173.8c-1.7-.4-1.6-1.9-1.7-2.9-.1-1.3,1.4-1.2,2.2-1.2,1.7,0,1.4,1.8,1.5,2.8.3,1.7-1.5.5-2,1.2Z"/>
    <path class="cls-35" d="M122.3,183.8c0-.7,0-1.3,0-1.9,0-1.1.9-.8,1.5-.8.7,0,1.2,0,1.1,1,0,.5-.2,1-.2,1.6,0,1.3-.8,2.7-1.9,2.7-1.1,0-.1-1.7-.4-2.4Z"/>
    <path class="cls-34" d="M129,177.4c.4,1.8-.7,1.7-1.7,1.8-2.1.2-1.2-1.5-1.4-2.4-.4-1.7,1-1.3,1.8-1.4,1.9-.2,1.1,1.3,1.3,1.9Z"/>
    <path class="cls-1" d="M117.8,184.6c-.6.8.6,2.7-.9,2.7-1.8,0-.9-1.8-1.1-2.9-.1-.7,0-1.4-.1-2,0-.7,0-1.2.9-1.2.7,0,1.2.2,1.1,1,0,.8,0,1.5,0,2.4Z"/>
    <path class="cls-40" d="M122.2,174.3c-1.9.1-1.8-1.4-1.9-2.3-.2-1.5,1.4-1.1,2.1-1.2,1.5-.1,1.3,1.5,1.5,2.3.4,1.6-1.2.7-1.7,1.2Z"/>
    <path class="cls-3" d="M123.3,179.5c-2,.1-1.4-1.6-1.6-2.6-.3-1.5,1.1-1,1.7-1.1,1.9-.2,1.2,1.4,1.5,2.4.3,1.4-.7,1.2-1.5,1.2Z"/>
    <path class="cls-40" d="M121.4,183.6c-.5.6.7,2-.9,2-1.7,0-1.6-1.3-1.4-2.4,0-.8-.6-2.2,1.1-2.1,1.8,0,.8,1.6,1.2,2.5Z"/>
    <path class="cls-14" d="M122.2,161c-.7.7-1.5,1.4-2.3,1.3-1-.1-2-1.1-2-2.1,0-.7,1.4-1.2,2.2-1.2.9,0,1.5,1,2,1.9Z"/>
    <path class="cls-27" d="M120.8,178.5c.2,1.1-.4,1.3-1,1.3-1.9,0-1.1-1.6-1.5-2.5-.3-.7.4-1,1-1,1.9,0,.8,1.8,1.5,2.3Z"/>
    <path class="cls-11" d="M105.5,173.3c-.3-.6-.9-.3-1.4-.4,1.7-.6,3.4-1.2,5.1-1.8.5-.2,1.3-.5,1.6.3.3.9-.6.9-1.1,1-1.4.4-2.8.7-4.1,1Z"/>
    <path class="cls-38" d="M117.4,178.7c.3,1-.2,1.2-.9,1.2-1.8,0-1.3-1.5-1.7-2.4-.3-1,.6-.8,1.1-.9,1.8-.1,1,1.5,1.4,2.1Z"/>
    <path class="cls-4" d="M114.9,172.4c1.2.1,1.3,1.2,1.4,2,.2.9-.7.7-1.3.8-1.3.2-1.6-.9-1.7-1.7-.2-1.2,1-.7,1.6-1.1Z"/>
    <path class="cls-12" d="M130.3,171.4c-.2.5.6,1.5-.3,1.6-1,.2-.9-.9-1.1-1.6-.1-.4-.3-.8-.4-1.3-.3-.9.4-1,1-1.1.8-.2.8.3.8.9,0,.4,0,.9,0,1.5Z"/>
    <path class="cls-42" d="M119.6,173.6c0,1.2-.7,1.1-1.2,1.1-1.3,0-1.1-1.3-1.4-2-.4-.9.6-.9,1.1-1,1.6-.2.8,1.5,1.6,1.8Z"/>
    <path class="cls-8" d="M124.5,168.4c-1.2.3-1.7-.5-1.6-1.1.2-1.1,1.4-.9,2.2-1.2.9-.3,1.3.4,1.3,1.1,0,1.6-1.7.3-1.9,1.2Z"/>
    <path class="cls-3" d="M126.2,163.8c-.9,0-1.3-.7-1.3-1.3,0-.9,1-1,1.7-1.1.7-.1,1.4.5,1.4,1.2,0,1.1-1.3.8-1.8,1.3Z"/>
    <path class="cls-32" d="M120.2,169.5c-1,.3-1.5-.3-1.5-.8.1-1.2,1.4-.9,2.1-1.2.7-.3,1.2.3,1.2.9,0,1.4-1.6.5-1.8,1.1Z"/>
    <path class="cls-26" d="M124.6,164c-.5.9-1.6.9-2.4,1.2-.6.2-1.1-.4-1.1-.8.2-1.1,1.4-1.2,2.2-1.5.7-.2.9.5,1.3,1.1Z"/>
    <path class="cls-26" d="M130,166.4c-.3,1-1.2.8-1.8.9-.9.3-1.1-.7-1.2-1.2-.2-1,.8-.9,1.4-1,.8-.1,1.3.6,1.6,1.3Z"/>
    <path class="cls-5" d="M122.3,158c.6.7,1.8.8,2.2,1.9,0,0-.8.7-1,.6-1-.3-1.5-1.2-1.9-2-.1-.2.3-.4.7-.5Z"/>
    <path class="cls-50" d="M120.5,165.6c-.9.6-1.8,1.1-2.8,1-.4,0-.7-.5-.4-.8.6-.7,1.4-1.1,2.3-1.1.5,0,.6.5.9.9Z"/>
    <path class="cls-15" d="M113.1,171.5c-.8.2-1.3-.2-1.2-.7.1-.9,1.1-.8,1.7-1,.6-.2,1.1.2,1.1.8,0,1.1-1.3.4-1.6.9Z"/>
    <path class="cls-49" d="M96,191.5c.2-.3.3-.7.5-1,.4,1.2.9,2.4,1.4,3.9-1.7-.6-1.6-1.9-1.9-2.9Z"/>
    <path class="cls-48" d="M117.8,169.6c0,.7-.6.7-1.1.9-.6.2-1.1-.1-1.2-.7-.2-.9.6-.9,1.1-1,.6-.1,1,.2,1.1.9Z"/>
    <path class="cls-44" d="M110.6,169.2c0-.2,0-.3,0-.3.5-.9,1.4-1,2.3-1.2,0,0,.4.5.3.5-.7.7-1.5,1.1-2.6,1Z"/>
    <path class="cls-39" d="M115.5,166.3c.4,0,.7.1.8.5,0,.8-.6.7-1.1.9-.5.2-1,0-1-.5,0-.6.7-.7,1.3-.9Z"/>
    <path class="cls-18" d="M126,182.7c-.1-.9-.2-1.5.7-1.7.3,0,.7,0,.7.3,0,.7-.5,1.1-1.3,1.4Z"/>
    <path class="cls-13" d="M190.8,186.9c.9-4.7,2-9.4,4.6-13.6.4-.7,1-1.4,1.5-2,.4-.4.8-1.2,1.4-.6.7.6-.2,1-.5,1.4-3.4,4-4.5,8.9-5.6,13.9,0,.4,0,.7-.2,1.1,0,.5,0,1.1-.8,1.1-.5,0-.6-.3-.4-1.4Z"/>
    <path class="cls-13" d="M99.9,161.9c1-5.2,2.6-10.2,6.9-14,.5-.4,1-.7,1.5-1.1.3-.2.6-.2.8,0,.3.4.2.7-.2,1-5,3.5-6.6,8.8-7.8,14.3-.1.5,0,1.2-.9,1-.6-.1-.4-.7-.3-1.3Z"/>
    <path class="cls-13" d="M97.2,162.4c.6-4.5,1.4-8.9,3.6-13,.5-.9,1.2-1.8,1.8-2.6.3-.4.7-.7,1.1-.3.4.3.2.7,0,1-3.6,4.4-4.4,9.8-5.3,15.2-.1.6.3,1.9-.8,1.7-1.1-.2,0-1.3-.3-1.9Z"/>
    <path class="cls-2" d="M174.5,173.1c-.4,1.6-1.8,5.7-2.1,7.3,0,0-1.1-.4-2-.2,2-2.1,3.4-5.7,3.4-8.4.5.7.7,1.3.7,1.3Z"/>
    <g>
      <path class="cls-13" d="M106.8,127.2c-1.9-1.6-3.7-3-5.1-4.9-.5-.8-1-1.6-.4-2.5.5-.7,1.2-1.5,2.2-1.3,1,.2,1.3,1.2,1.5,2,.6,2.2,1.2,4.5,1.8,6.7Z"/>
      <path class="cls-13" d="M124.2,116.3c0-1.7,0-3.4,0-5.1,0-.8.3-1.6,1.2-1.8.6-.1,1.4-.3,1.9.4.6.7.1,1.5-.2,2.1-.8,1.5-1.7,3-2.5,4.5-.1,0-.2,0-.4-.1Z"/>
      <path class="cls-13" d="M122.3,105.2c0-1.4-.2-2.7-.2-4.1,0-1,.5-1.8,1.7-1.6,1.3.2,1.1,1.2.8,2.1-.5,1.3-1.1,2.5-1.7,3.7-.2,0-.4,0-.5-.1Z"/>
      <path class="cls-13" d="M157.5,197c-.2,0-.7.2-.8-.3-.2-.6.3-.7.8-.8,1.8-.4,3.6-.8,5.5-1.2.4,0,.8-.1,1,.3.2.6-.4.7-.8.8-1.8.4-3.6.8-5.6,1.2Z"/>
      <path class="cls-13" d="M142.2,153.8c0,.8-.6,1.4-1.4,1.4-.8,0-1.5-.5-1.5-1.3,0-1,.5-1.5,1.5-1.5.9,0,1.3.6,1.4,1.4Z"/>
      <path class="cls-13" d="M126.5,141.5c1,0,1.8.3,1.5,1.3-.2.5,0,1.6-1,1.4-.8-.2-2-.2-2-1.4,0-1,.9-1.3,1.6-1.3Z"/>
      <path class="cls-13" d="M122,139.2c.6.6,1.6.8,1.9,1.7.1.4-.3.8-.8.8-.9,0-1.5-.7-1.6-1.6,0-.4,0-.7.6-.9Z"/>
      <path class="cls-13" d="M144.2,176.2c.6.4,1.7.3,2,1.2.2.5-.4.7-.9.8-.9,0-1.6-.3-1.8-1.3,0-.4.2-.7.7-.7Z"/>
      <path class="cls-13" d="M144,186.1c0,.7-.3.8-.7.9-1,0-1.6-.4-1.7-1.3,0-.4,0-1.1.6-.9.7.3,1.3.9,1.8,1.3Z"/>
      <path class="cls-13" d="M168.7,193.6c.6,0,1.2,0,1,.6-.2.9-1.2.7-1.8.9-.5.1-1-.1-.9-.6.2-1,1.2-.6,1.7-.9Z"/>
      <path class="cls-13" d="M111.9,138.2c.5,1.2.7,2,0,2.8-.3.3-.8.2-.9-.2-.4-.9.1-1.6.9-2.6Z"/>
      <path class="cls-13" d="M152.2,197.7c.4,0,.9,0,.8.5-.2,1-1.2.6-1.8.9-.4.1-.8-.2-.7-.6.2-.8,1.1-.6,1.7-.8Z"/>
      <path class="cls-13" d="M135.4,147c-.8,1.1-1.6,1.5-2.6,2q.5-1.5,2.6-2Z"/>
      <g>
        <path class="cls-13" d="M136.4,109.6c.8,1.8.9,2.9.1,4.1-1.1-1.3-.4-2.5-.1-4.1Z"/>
        <path class="cls-13" d="M137.9,107.2c-.5,0-.9-.1-.8-.8,0-.5.4-.7.9-.6.4.1.9.2.9.8,0,.6-.6.5-1,.6Z"/>
        <path class="cls-13" d="M138.4,103.6c-.5.2-.9.2-1-.4-.1-.5.2-.8.7-.9.4,0,.9,0,1.1.4.2.6-.4.7-.8.9Z"/>
      </g>
      <path class="cls-13" d="M71.7,172.7c0,.2-.2.4-.4.4-.2,0-.4-.1-.4-.4,0-.3.2-.4.4-.4.3,0,.4.2.4.4Z"/>
      <path class="cls-13" d="M144.5,173.3c0,.2-.2.4-.4.4-.2,0-.4-.1-.4-.4,0-.3.2-.4.4-.4.3,0,.4.2.4.4Z"/>
      <path class="cls-13" d="M71,169.3c0,.4-.3.7-.7.7-.4,0-.7-.2-.8-.7,0-.5.3-.8.8-.8.4,0,.7.3.7.7Z"/>
    </g>
    <g>
      <path class="cls-13" d="M88.4,145c-7.8,6.2-11.5,15.7-11.9,25.4s.8.5.8,0c.3-9.6,4-18.8,11.6-24.8s-.2-.9-.6-.6h0Z"/>
      <path class="cls-13" d="M76.9,178.1c.7,6.9,4.3,13,9.8,17.1.4.3.9-.4.4-.7-5.3-3.9-8.7-9.8-9.4-16.3s-.9-.5-.8,0h0Z"/>
      <path class="cls-13" d="M70.7,176.2c2,5.7,5,11.2,8.9,15.9,4.3,5.2,10.1,8.7,16.9,9.2s.5-.8,0-.9c-6.7-.5-12.4-4-16.5-9.2s-6.6-9.8-8.4-15.3-1-.3-.8.2h0Z"/>
      <path class="cls-13" d="M161.7,122.3c10.6-7,21.1-14.2,31.3-21.7.4-.3,0-1.1-.4-.7-10.3,7.5-20.7,14.8-31.3,21.7-.5.3,0,1,.4.7h0Z"/>
      <path class="cls-13" d="M165.3,125.8c7.5-5.6,14.6-11.5,21.4-17.8s-.2-1-.6-.6c-6.8,6.3-13.9,12.2-21.3,17.7s0,1.1.4.7h0Z"/>
      <path class="cls-13" d="M171.3,135.2c6.9-5,13.8-10.1,20.6-15.3.4-.3,0-1.1-.4-.7-6.8,5.2-13.6,10.3-20.6,15.3-.4.3,0,1.1.4.7h0Z"/>
      <path class="cls-13" d="M195.5,117.1c7.1-5,13.9-10.3,20.5-15.9s-.2-1-.6-.6c-6.6,5.6-13.4,10.8-20.4,15.8s0,1.1.4.7h0Z"/>
    </g>
    <path class="cls-30" d="M165.8,171.2c-.2.5-.4,1.1-.2,1.3.1,0,.6,0,.8-.2.4-.4.5-1,.3-1.4,0,0-.4,0-.6.1-.1,0-.2,0-.3,0Z"/>
    <path class="cls-51" d="M165.3,173.6c-.3.4-.4.9-.2,1.2,0,0,.4,0,.6-.1,0,0,.1,0,.2,0,0,0,0-.2.1-.3.2-.5.3-.8.1-1,0,0,0,0-.1,0-.2,0-.5,0-.7.3Z"/>
    <path class="cls-17" d="M164.3,178.8c.2-.3.3-.6.3-1,0,0-.1,0-.2,0,0,0-.1,0-.1,0-.3,0-.3,0-.4.2-.2.4-.4.9-.2,1,0,0,0,0,.2,0,.2,0,.4-.1.5-.2Z"/>
    <g>
      <path class="cls-6" d="M166.2,166.6c-.4.3-.5.9-.4,1.1s0,0,.2,0c.2,0,.6,0,.9-.3.3-.2.3-.5.2-1-.1,0-.3,0-.4,0-.2,0-.4,0-.6.2Z"/>
      <polygon class="cls-6" points="167.5 166.2 167.5 166.2 167.5 166.2 167.5 166.2"/>
    </g>
    <path class="cls-29" d="M164.7,176s0,0,0,.1c0,.1-.1.3-.1.4.2.1.7.1,1-.2,0,0,.1-.2.1-.4-.2-.2-.6,0-.9,0Z"/>
    <path class="cls-30" d="M167.8,171.7c-.2.5-.4,1.1-.2,1.3,0,0,.6,0,.8-.2.4-.4.5-1,.3-1.4,0,0-.4,0-.6.1-.1,0-.2,0-.3,0Z"/>
    <path class="cls-30" d="M168.1,169.6c-.2.5-.4,1.1-.2,1.3,0,0,.6,0,.8-.2.4-.4.5-1,.3-1.4,0,0-.4,0-.6.1-.1,0-.2,0-.3,0Z"/>
    <path class="cls-30" d="M166.1,168.8c-.2.5-.4,1.1-.2,1.3,0,0,.6,0,.8-.2.4-.4.5-1,.3-1.4,0,0-.4,0-.6.1-.1,0-.2,0-.3,0Z"/>
    <path class="cls-51" d="M167.4,174.4c-.3.4-.2,1,0,1.2,0,0,.4-.1.6-.2,0,0,.1,0,.2,0,0,0,0-.2,0-.3,0-.5.1-.8,0-1,0,0,0,0,0,0-.2,0-.5.2-.7.4Z"/>
    <path class="cls-17" d="M166.3,179.6c.2-.3.3-.6.3-1,0,0-.1,0-.2,0,0,0-.1,0-.1,0-.3,0-.3,0-.4.1-.2.4-.4.9-.2,1,0,0,0,0,.2,0,.2,0,.4-.1.5-.2Z"/>
    <path class="cls-6" d="M168.4,167.3c-.4.3-.5.8-.4,1,0,0,0,0,.1,0,.2,0,.6,0,.9-.2.3-.2.3-.5.2-.9-.1,0-.2,0-.3,0-.2,0-.4,0-.5.2Z"/>
    <path class="cls-29" d="M166.4,176.4s0,0,0,.1c0,.1-.2.4-.2.4.3.2.8.2,1.1-.1,0,0,.2-.3.2-.4s0,0,0-.1c-.2-.2-.5,0-1,0Z"/>
  </g>
  <g>
    <polygon class="cls-13" points="275.5 239.2 229.9 265.6 85.6 265.6 39.9 239.2 39.9 217.7 275.5 217.7 275.5 239.2"/>
    <g>
      <path class="cls-47" d="M69.4,227.4h9.6l7.6,18,7.5-18h9.5v26.5h-7.2v-15.5l-6.6,15.5h-6.4l-6.7-15.7v15.7h-7.2v-26.5Z"/>
      <path class="cls-47" d="M110.2,227.5h16.9v6.1h-9.7v4.6h8.9v4.8h-8.9v4.8h9.7v6.1h-16.9v-26.4Z"/>
      <path class="cls-47" d="M132,227.5h7.3v26.4h-7.3v-26.4Z"/>
      <path class="cls-47" d="M144.7,227.4h7.2v20.4h8.7v6.1h-16v-26.5Z"/>
      <path class="cls-47" d="M164.3,227.4h7.2v10h7.3v-10h7.3v26.5h-7.3v-10.4h-7.3v10.4h-7.2v-26.5Z"/>
      <path class="cls-47" d="M210.2,250.6h-11.5l-1.2,3.3h-7.6l10.8-26.5h7.5l10.6,26.5h-7.4l-1.2-3.3ZM208.3,245.6l-3.9-10.5-3.9,10.5h7.7Z"/>
      <path class="cls-47" d="M222.8,227.4h7.3l8.6,14.7v-14.7h7.3v26.5h-7.2l-8.8-14.8v14.8h-7.3v-26.5Z"/>
    </g>
  </g>
  <g>
    <path class="cls-13" d="M157,283v2.8h-2v4h-3.5v-4h-7.2v-3.2l6.7-11.2h4v11.5h2ZM146.9,283h4.5v-7.9l-4.5,7.9Z"/>
    <path class="cls-13" d="M164.9,290.3c-2.3,0-3.9-.8-4.9-2.5-.9-1.6-1.4-4-1.4-7s.5-5.4,1.4-7c.9-1.7,2.5-2.5,4.9-2.5s3.9.8,4.9,2.5c.9,1.7,1.4,4,1.4,7s-.5,5.4-1.4,7c-.9,1.6-2.5,2.5-4.9,2.5ZM167,285.6c.3-1.1.5-2.7.5-4.8s-.2-3.9-.5-4.9c-.3-1.1-1-1.6-2.1-1.6s-1.8.5-2.1,1.6c-.3,1.1-.5,2.7-.5,4.9s.2,3.7.5,4.9c.3,1.1,1,1.7,2.1,1.7s1.8-.6,2.1-1.7Z"/>
  </g>
  <g>
    <path class="cls-13" d="M168,175.3c-1.4.2-2.6-.3-3.8-.7,0,0,0,0,0,0,0,0,0,0,0,0,0,0,0,0-.1,0,0,0-.2,0-.3-.1-.1,0-.3-.2-.4,0,0,.1,0,.2.3.3,0,0,.2,0,.3.1,0,0,0,0,0,0,0,.4-.3.8-.5,1.2,0,0-.1,0-.2,0-.1,0-.3-.2-.4,0,0,.1,0,.2.3.3,0,0,.1,0,.2,0-.4.7-.9,1.4-1.5,2,0,0-.1.1-.2.2,0,.1-.2.2,0,.4,0,0,.2,0,.4-.1.7-.7,1.3-1.5,1.8-2.3,1,.4,2.1.7,3.3.8.2,0,.5,0,.7,0,.1,0,.4,0,.4-.2,0-.2-.3-.1-.4-.1-1.3.2-2.6-.2-3.8-.7,0-.2.2-.4.3-.6,0-.2.1-.4.2-.7,0,0,0,0,0,0,1,.4,2,.7,3.2.7.2,0,.5,0,.7,0,.1,0,.4,0,.4-.2,0-.2-.3-.1-.4-.1Z"/>
    <path class="cls-13" d="M169.1,170.6c-1.4.2-2.7-.3-4-.8,0,0-.2,0-.3-.1-.1,0-.3-.2-.4,0,0,.1,0,.2.3.3,1.2.5,2.4.9,3.8,1,.2,0,.5,0,.7,0,.1,0,.4,0,.4-.2,0-.2-.3-.1-.4-.1Z"/>
    <path class="cls-13" d="M164.7,167.6c1.2.5,2.4.9,3.8,1,.2,0,.5,0,.7,0,.1,0,.4,0,.4-.2,0-.2-.3-.1-.4-.1-1.4.2-2.7-.3-4-.8,0,0-.2,0-.3-.1-.1,0-.3-.2-.4,0,0,.1,0,.2.3.3Z"/>
    <path class="cls-13" d="M168.4,173.1c-1.4.2-2.7-.3-4-.8,0,0-.2,0-.3-.1-.1,0-.3-.2-.4,0,0,.1,0,.2.3.3,1.2.5,2.4.9,3.8,1,.2,0,.5,0,.7,0,.1,0,.4,0,.4-.2,0-.2-.3-.1-.4-.1Z"/>
  </g>
  <g>
    <path class="cls-13" d="M84.8,172.7c1,0,2.2,0,3.6-.1,1.9-.2,3.4-.7,4.7-1.1"/>
    <path class="cls-13" d="M84.8,173.3c2.8.1,5.7-.3,8.4-1.3s.4-1.5-.3-1.2c-2.6.9-5.3,1.3-8.1,1.2s-.8,1.2,0,1.2h0Z"/>
  </g>
  <path class="cls-13" d="M84.7,175.7c2.9.5,5.9,0,8.5-1.4s0-1.5-.6-1.1c-2.3,1.2-4.9,1.7-7.5,1.3s-.7,0-.8.4.1.7.4.8h0Z"/>
  <path class="cls-23" d="M134.8,120.1c-2.8,3.7-4.1,7.1-4.8,9.4-1,3.3-1.8,6.1-.4,8.7,1.6,2.8,3.2,3.7,5,4,4.7.6,6.9,0,11.8-1.7,2.4-.8,5.6-2.1,6.3-2.4,1.2-.5,2.3-.9,3-1.3l4.4-1.9-1-.2-2.6,1.1-.2-.2,4.3-2.5-.8-.3-3.3,1.5-.6-.3,3.7-2.1-.7-.2-3,1.2-.6-.2,2.8-1.8h-.6c0-.1-3.1,1.3-3.1,1.3l-.9-.3,3.9-1.8-.8-.3-4.6,2.2-1.2-.2,5.8-2.8-.9-.3-6.1,2.4-.9-.3,6.8-3.2-1.1-.2-7,3.1-1.1-.3,6.8-3.6-1-.2-6.8,3.1-.7-.2,5.8-3.3h-.9c0-.1-11.1,5.4-11.1,5.4l-.8-.2,12.3-6.5-.7-.2-11.4,5-.8-.2,11-5.1-.8-.3-5.7,2.7-.7-.4,5.9-3-.8-.3-7.1,3.2-.6-.3,8.6-4.4-.8-.2-7.5,3.5-.8-.2,7-4.3h-.7c0-.1-5.6,2.8-5.6,2.8l-1.1-.2,4.6-3.1h-.7c0-.1-5,3.1-5,3.1l-.9-.2,3.9-3.2-.6-.2-3.6,2.7-.8-.3,2.7-2.4h-1.6l-.5.6Z"/>
  <path class="cls-22" d="M164.4,146.8c.1.7,0,1.3.1,2,.1,3.2-.6,5.9-1.4,7.8l-15.2,13.4c-.2-.4-.5-.9-.8-1.6-.9-1.9-2.5-4.6-2.6-7.2s.8-5,2-7.4c2.2-4.3,5.2-6.8,7.3-8.6,1.9-1.6,5.1-3.1,9.4-4.8v.8c0,0-6.7,4.8-6.7,4.8l.9.5,6.2-3.8.2.8-4.7,3,.8.5,4.1-2.8.2.9-8.5,6.3,1.1.7,7.5-5.3Z"/>
</svg>