<svg width="256" height="256" viewBox="0 0 256 256" fill="none" xmlns="http://www.w3.org/2000/svg">
<path d="M198.284 1.94482H56.8187L10.0571 76.8331L127.468 255.767L245.062 76.9661L198.284 1.94482Z" fill="white"/>
<path d="M198.284 1.66211H56.8188L9.97412 76.7665L126.903 254.903L127.468 255.767L245.145 76.9161L198.284 1.66211ZM147.017 5.23614H172.002V39.2808H147.017V5.23614ZM83.1004 5.23614H108.168V39.2808H83.1004V5.23614ZM108.168 220.343L83.1004 182.142V93.5063H108.168V220.343ZM147.017 220.043V93.5063H172.002V182.042L147.017 220.043ZM22.5913 89.9156L13.9637 76.7831L35.1419 42.8715H219.911L241.139 76.9161L232.594 89.9156H22.5913Z" fill="#1D1D1B"/>
<path d="M80.6235 73.1097V73.2593C80.6235 77.8973 76.6007 81.6541 71.6303 81.6541H70.2007C65.8287 81.6541 62.0885 78.7284 61.3404 74.7056L66.6433 73.8412C66.9425 75.4536 68.4552 76.6339 70.2007 76.6339H71.6303C73.6251 76.6339 75.2376 75.1212 75.2542 73.2593V73.1097C75.2542 71.6967 74.3233 70.45 72.9103 69.9513L67.0589 67.9066C62.9861 66.477 60.5924 62.5373 61.3737 58.531C62.155 54.5414 65.8786 51.6323 70.2339 51.6323H71.6635C75.1046 51.6323 78.2298 53.4443 79.7425 56.3201L74.9217 58.5477C74.3233 57.384 73.0599 56.6526 71.6802 56.6526H70.2506C68.5051 56.6526 67.009 57.8162 66.6931 59.4287C66.3773 61.0412 67.3415 62.6204 68.9872 63.1856L74.8386 65.2303C78.3461 66.477 80.6568 69.6022 80.6734 73.0931" fill="#1D1D1B"/>
<path d="M122.781 81.7537H116.946L114.718 76.7501H103.68L101.436 81.7537H95.6013L109.232 51.3828L122.781 81.7537ZM112.474 71.7298L109.216 64.4155L105.941 71.7298H112.491H112.474Z" fill="#1D1D1B"/>
<path d="M157.174 73.1097V73.2593C157.174 77.8973 153.151 81.6541 148.181 81.6541H146.751C142.379 81.6541 138.639 78.7284 137.891 74.7056L143.194 73.8412C143.493 75.4536 145.006 76.6339 146.751 76.6339H148.181C150.176 76.6339 151.788 75.1212 151.805 73.2593V73.1097C151.805 71.6967 150.874 70.45 149.461 69.9513L143.609 67.9066C139.537 66.477 137.143 62.5373 137.924 58.531C138.706 54.5414 142.429 51.6323 146.784 51.6323H148.214C151.655 51.6323 154.78 53.4443 156.293 56.3201L151.472 58.5477C150.874 57.384 149.61 56.6526 148.231 56.6526H146.801C145.056 56.6526 143.56 57.8162 143.244 59.4287C142.928 61.0412 143.892 62.6204 145.538 63.1856L151.389 65.2303C154.897 66.477 157.207 69.6022 157.224 73.0931" fill="#1D1D1B"/>
<path d="M193.928 73.1097V73.2593C193.928 77.8973 189.906 81.6541 184.935 81.6541H183.506C179.134 81.6541 175.393 78.7284 174.645 74.7056L179.948 73.8412C180.247 75.4536 181.76 76.6339 183.506 76.6339H184.935C186.93 76.6339 188.542 75.1212 188.559 73.2593V73.1097C188.559 71.6967 187.628 70.45 186.215 69.9513L180.364 67.9066C176.291 66.477 173.897 62.5373 174.679 58.531C175.46 54.5414 179.184 51.6323 183.539 51.6323H184.968C188.41 51.6323 191.535 53.4443 193.047 56.3201L188.227 58.5477C187.628 57.384 186.365 56.6526 184.985 56.6526H183.555C181.81 56.6526 180.314 57.8162 179.998 59.4287C179.682 61.0412 180.646 62.6204 182.292 63.1856L188.144 65.2303C191.651 66.477 193.962 69.6022 193.978 73.0931" fill="#1D1D1B"/>
<path fill-rule="evenodd" clip-rule="evenodd" d="M141.232 96.1833L139.636 91.7948L137.243 91.3958H133.652L132.056 89.401L128.465 88.2041H120.885L117.693 90.1989L114.901 93.7896V97.7792L116.098 98.976L115.699 102.168L116.098 105.758L118.092 107.753L113.305 112.142L102.134 122.515L99.3413 126.903L94.5537 130.494L91.761 134.883V141.665L91.362 156.027L88.5693 161.613L85.3776 162.012L79.7922 164.007L77.7974 167.996L80.5901 172.385L84.9787 175.178L90.5641 174.38L94.9527 171.986L96.5485 162.81L99.3413 151.639L102.134 141.665L104.528 138.872L104.927 148.447V156.426L102.533 162.012L102.932 167.198V172.385L106.124 178.369L110.113 180.364L108.517 184.354L104.927 188.343L106.124 193.131L112.906 196.722L119.688 202.307L125.274 203.903L128.864 201.509L124.875 195.924V192.732L135.248 193.929L136.046 190.338L139.636 184.354L141.631 181.162L149.61 177.571L155.994 173.582L161.18 170.39L163.574 166.002L164.771 162.012L163.175 156.825L161.579 154.831L157.59 153.235L149.211 152.836L142.828 152.437H136.445L135.248 148.447V140.069L138.439 133.287L139.636 129.297L140.035 124.909L143.626 122.515L153.201 122.116L160.781 122.515L170.755 119.722L176.341 118.126H181.128L182.325 123.313L185.517 126.105H189.905L193.496 121.318L195.092 117.328L193.097 113.738L188.709 110.945L178.735 110.147L171.952 108.95L161.978 109.748L154.797 110.147H143.227L135.647 109.349L136.844 104.96L137.243 99.774L136.046 97.7792L141.232 96.1833Z" fill="white"/>
<path d="M195.092 112.142L189.506 108.152L179.133 107.354V107.753L171.952 106.556L161.579 107.354V106.955L154.797 107.354H143.626L138.805 107.105L139.237 105.359L139.636 99.3748V99.3415L144.823 97.7789L141.232 89.7997L137.642 89.0018L134.949 88.7026L133.253 87.007L128.864 85.4111H120.087L115.699 88.2039L112.108 92.9914V98.5768L113.222 99.6906L112.906 102.167L113.704 106.955L114.419 107.67L111.709 110.147L100.139 120.919L97.3465 125.307L97.7454 124.509L92.5589 128.898L89.3672 134.483V141.266L88.9683 155.628V154.83L87.2062 158.953L84.5797 159.219L77.7974 162.012L75.0046 167.996L78.5953 174.379L84.5797 177.97L91.362 176.773L96.9475 173.98L99.3413 163.209L101.735 152.437L102.533 149.478V155.229L99.7402 161.613L100.139 167.597V173.183L104.129 179.965L106.789 181.66L106.124 183.157L106.523 182.758L102.134 187.545L103.73 195.125L111.709 199.115L111.31 198.716L118.491 204.7L126.072 206.695L132.455 202.307L127.784 195.641L137.243 197.12L138.439 190.737V191.535L141.631 185.55V185.949L143.26 183.339L150.807 179.566L157.59 175.975L162.776 171.986L165.968 167.198L167.564 162.012L165.569 155.628L163.175 152.437L157.989 150.841L149.61 150.442L142.828 150.043H138.356L137.642 147.649L138.04 148.447V140.069L137.642 140.867L140.833 134.084L142.03 130.095L142.662 126.338L144.573 125.274L152.985 124.925L160.781 125.307L171.553 122.116L176.74 120.52H179.117L179.931 124.908L184.719 128.499H191.102L195.89 122.913L197.885 116.929L195.092 112.142ZM117.295 94.82L119.256 92.0106L122.082 90.5976H127.668L130.543 91.5618L132.455 93.7893L136.844 94.1883L137.741 94.3711L137.841 94.6371L134.516 95.6013L134.45 94.9862L123.678 96.1831L124.077 96.582L117.295 95.5181V94.82ZM134.45 104.162L133.635 107.287L132.455 106.556L124.077 107.753L121.899 107.969L118.392 104.462L118.142 102.284L118.774 99.1919L123.678 100.173L133.735 98.7431L134.417 100.123L134.051 104.561L134.45 104.162ZM104.129 132.09V135.68L99.7402 140.069L96.9475 151.24L94.1548 162.012L92.3594 170.623L89.3672 171.986H90.1652L85.3444 172.335L82.3023 170.672L80.8228 167.946L81.8036 165.968L86.1755 164.405H85.7766L90.5641 164.006L94.1548 156.426L94.5537 141.665V135.68L96.1496 132.489L101.336 128.499L101.918 127.585L103.331 129.297L102.932 128.898L104.528 132.489L104.129 132.09ZM142.828 155.229L149.211 155.628H156.792L160 157.058L159.584 156.426L160.382 157.224L160 157.058L161.13 158.737L160.781 157.623L161.18 158.82L161.13 158.737L162.128 162.028L162.377 161.214V162.81L162.128 162.028L161.18 165.203L161.579 164.804L159.086 168.378L159.584 167.996L158.786 168.794L159.086 168.378L154.797 171.587L148.413 175.177L140.035 179.167L137.243 182.758L133.652 189.54L133.319 191.186L122.082 189.54V196.721L125.29 200.993L125.008 201.21L121.002 200.063L114.502 194.328L108.318 191.585L107.852 188.792L110.512 185.55L112.158 181.777L118.491 179.965L128.465 174.778L135.647 170.789H135.248L142.03 168.395L141.232 165.203L134.051 167.597L126.87 171.587L116.896 176.773H117.295L111.875 178.402L108.368 176.524L105.326 171.803V167.198L105.026 162.992L106.656 159.252L115.3 156.825H114.901L122.082 156.426L129.662 155.229L134.284 154.548L134.45 155.229H142.828ZM147.084 119.955L142.828 120.121L138.04 123.312L136.844 128.898V128.499L135.647 132.489L136.046 132.09L132.854 139.271V148.846L133.436 151.157L129.263 151.639L121.683 152.836L114.103 153.235L107.719 155.362V148.447L107.204 138.473H107.719V131.691L106.124 127.302L104.062 124.21H104.046L104.079 124.177L115.3 113.737L114.901 114.136L119.09 110.645L124.077 110.147L131.823 109.033L132.987 109.715L132.455 111.743L143.227 112.54H149.461L149.826 114.136L147.084 119.955ZM191.501 119.722L191.102 120.52L191.335 119.955L188.808 123.312H186.198L184.486 121.816L183.123 115.333H175.942L169.957 116.929L160.1 120.087L153.201 119.722L151.173 119.805L153.6 114.934L153.118 112.54H155.196L161.978 112.142L171.753 111.759H171.553L172.351 111.743H171.753L178.336 112.54L187.628 113.289L191.302 115.732L192.249 117.644L191.335 119.955L191.501 119.722Z" fill="#1D1D1B"/>
</svg>
