<svg width="256" height="256" viewBox="0 0 256 256" fill="none" xmlns="http://www.w3.org/2000/svg">
<g clip-path="url(#clip0_422_1330)">
<path d="M2.3064 95.3138L4.63013 91.2472L15.6679 97.347C17.4107 98.3637 18.5725 98.9446 19.1535 99.0898C20.0249 99.3803 21.0415 99.3803 21.9129 99.0898C22.7843 98.6541 23.5105 97.928 24.2366 96.7661C24.8176 95.6042 25.108 94.5876 24.9628 93.7162C24.8176 92.8448 24.3819 92.1186 23.8009 91.6829C23.22 91.102 22.0581 90.5211 20.4606 89.5044L9.13237 83.2594L11.4561 79.1929L22.2034 85.1474C24.6723 86.4545 26.2699 87.6164 27.1413 88.3426C28.0127 89.0687 28.5936 90.0854 29.0293 90.9568C29.3198 91.9734 29.465 92.99 29.3198 94.2971C29.1746 95.459 28.5936 96.9113 27.7222 98.5089C26.7056 100.397 25.5437 101.849 24.5271 102.575C23.5105 103.302 22.4938 103.737 21.4772 104.028C20.4606 104.173 19.4439 104.173 18.5725 104.028C17.2654 103.592 15.5226 102.866 13.1989 101.559L2.3064 95.459L2.3064 95.3138Z" fill="black"/>
<path d="M34.4031 87.0351L30.7722 84.4209L33.3864 80.79L37.0173 83.4042L34.4031 87.0351Z" fill="black"/>
<path d="M32.9507 75.8522L35.7101 72.2213C37.0172 73.0927 38.1791 73.3832 39.3409 73.3832C40.5028 73.3832 41.5194 72.657 42.5361 71.6404C43.5527 70.4785 44.1336 69.4619 44.1336 68.4453C44.1336 67.4286 43.8432 66.7025 43.2622 66.1215C42.8265 65.6858 42.3908 65.5406 41.9551 65.5406C41.5194 65.5406 40.7933 65.6858 40.0671 66.1215C39.4862 66.412 38.4695 67.1382 36.7267 68.1548C34.5482 69.6071 32.8054 70.3333 31.3531 70.4785C29.4651 70.6238 27.8675 70.0428 26.4152 68.881C25.5438 68.0096 24.9628 66.9929 24.6724 65.8311C24.3819 64.6692 24.5271 63.3621 24.9628 62.055C25.3985 60.7479 26.2699 59.4408 27.577 58.1337C29.6103 55.9552 31.4983 54.7933 33.5316 54.6481C35.4196 54.5029 37.3077 55.0838 38.9052 56.5361L35.8553 60.167C34.8387 59.4408 33.9673 59.1503 33.0959 59.2956C32.2245 59.2956 31.3531 60.0217 30.4817 60.8931C29.6103 61.9098 29.0294 62.9264 28.8841 63.7978C28.8841 64.3787 28.8841 64.9597 29.4651 65.3954C29.9008 65.8311 30.3365 65.9763 30.9174 65.8311C31.6436 65.8311 33.0959 65.1049 34.9839 63.7978C37.0172 62.4907 38.4695 61.6193 39.6314 61.1836C40.7933 60.7479 41.9551 60.7479 43.117 60.8931C44.2789 61.0384 45.4407 61.7645 46.4574 62.7812C47.474 63.6526 48.0549 64.8144 48.4906 66.1215C48.7811 67.4286 48.7811 68.881 48.2002 70.1881C47.6192 71.4952 46.7478 72.9475 45.2955 74.3999C43.2622 76.5784 41.229 77.7402 39.1957 77.8854C37.1624 78.0307 34.9839 77.4498 32.9507 75.8522Z" fill="black"/>
<path d="M54.1547 65.2501L51.25 61.7645L54.7356 58.8599L57.6403 62.3455L54.1547 65.2501Z" fill="black"/>
<path d="M67.6615 54.7935L56.6238 34.1703L65.3378 29.5228C67.5163 28.361 69.2591 27.6348 70.421 27.4896C71.5828 27.3443 72.7447 27.4896 73.9065 28.2157C75.0684 28.7967 75.9398 29.8133 76.5208 30.9752C77.3922 32.5727 77.5374 34.0251 77.2469 35.4774C76.8112 36.9297 75.7946 38.3821 74.197 39.5439C75.3589 39.5439 76.3755 39.8344 77.3922 40.1249C78.2636 40.4153 79.7159 41.1415 81.6039 42.1581L86.2514 44.7723L81.3135 47.3865L75.9398 44.4819C74.0518 43.4652 72.7447 42.8843 72.1638 42.5938C71.5828 42.4486 71.0019 42.3034 70.421 42.4486C69.84 42.4486 69.1139 42.8843 68.2424 43.32L67.3711 43.7557L72.0185 52.3245L67.8068 54.503L67.6615 54.7935ZM65.3378 40.7058L68.3877 39.1082C70.421 38.0916 71.5828 37.2202 72.0185 36.9297C72.4542 36.494 72.5995 36.0583 72.7447 35.4774C72.7447 34.8965 72.7447 34.3155 72.309 33.7346C71.8733 33.0084 71.4376 32.5727 70.8566 32.2823C70.2757 31.9918 69.5496 32.137 68.8234 32.2823C68.5329 32.2823 67.371 32.8632 65.7735 33.8798L62.5783 35.6226L65.3378 40.851V40.7058Z" fill="black"/>
<path d="M83.3467 33.5892C82.6205 31.2655 82.4753 29.2322 82.7657 27.4894C82.911 26.1823 83.3467 25.0205 83.9276 23.8586C84.5085 22.6967 85.38 21.6801 86.2514 20.9539C87.4132 19.9373 89.0108 19.2111 90.8988 18.6302C94.2392 17.6136 97.1439 17.904 99.7581 19.3564C102.372 20.8087 104.115 23.4229 105.132 27.0537C106.148 30.6846 106.003 33.7345 104.551 36.3487C103.098 38.9629 100.775 40.7057 97.5796 41.7223C94.2392 42.7389 91.3345 42.4485 88.7203 40.9961C86.1061 39.5438 84.3633 37.0748 83.3467 33.444V33.5892ZM87.9942 32.1369C88.7203 34.6059 89.8822 36.4939 91.4797 37.3653C93.0773 38.3819 94.6749 38.5272 96.5629 38.0915C98.3057 37.5105 99.6128 36.4939 100.484 34.8963C101.21 33.2988 101.356 31.1203 100.484 28.5061C99.7581 25.8919 98.5962 24.1491 97.1439 23.2777C95.6915 22.4063 93.9487 22.1158 92.0607 22.6967C90.1726 23.2777 88.8655 24.2943 88.1394 25.8919C87.4132 27.4894 87.4132 29.5227 88.1394 32.1369H87.9942Z" fill="black"/>
<path d="M129.386 34.1705C130.547 34.8967 131.854 35.4776 133.307 35.9133L131.709 39.3989C131.709 39.3989 130.257 38.9632 129.531 38.6727C129.386 38.6727 128.224 37.9466 126.336 36.7847C124.883 37.5109 123.14 37.9466 121.252 38.0918C117.622 38.237 114.862 37.3656 112.684 35.4776C110.505 33.4443 109.343 30.5397 109.198 26.7636C109.053 22.9875 109.779 19.9376 111.812 17.7591C113.7 15.5806 116.46 14.2735 119.945 14.1283C123.431 13.9831 126.19 14.8545 128.369 16.8877C130.547 18.921 131.709 21.8257 131.854 25.6017C131.854 27.635 131.854 29.3778 131.274 30.9754C130.983 32.1372 130.257 33.2991 129.386 34.461V34.1705ZM125.464 31.7015C126.045 30.9754 126.481 30.104 126.626 29.0873C126.917 28.0707 126.917 26.9088 126.917 25.6017C126.771 22.8423 126.045 20.9543 124.738 19.6472C123.431 18.3401 121.833 17.7591 119.945 17.9044C118.057 17.9044 116.46 18.7758 115.443 20.2281C114.281 21.6804 113.846 23.7137 113.991 26.3279C114.136 29.0873 114.862 31.1206 116.169 32.2825C117.476 33.5896 118.929 34.1705 120.817 34.0253C121.543 34.0253 122.124 33.88 122.705 33.5896C121.688 33.0086 120.672 32.5729 119.655 32.2825L120.817 29.523C122.414 29.9587 123.867 30.6849 125.319 31.7015H125.464Z" fill="black"/>
<path d="M138.535 14.2734L143.183 14.9995L141.295 27.4896C141.004 29.5229 140.859 30.83 140.859 31.4109C140.859 32.4276 141.295 33.1537 141.876 33.8799C142.602 34.6061 143.473 35.0418 144.78 35.187C146.087 35.3322 147.104 35.187 147.83 34.8965C148.556 34.4608 149.137 33.8799 149.283 33.1537C149.573 32.4276 149.864 31.1204 150.154 29.2324L152.042 16.4519L156.69 17.178L154.801 29.2324C154.366 31.9918 153.93 33.8799 153.494 35.0418C153.059 36.2036 152.478 37.075 151.606 37.656C150.88 38.3821 149.864 38.8178 148.556 39.1083C147.395 39.3988 145.797 39.3988 144.054 39.1083C141.876 38.8178 140.278 38.2369 139.116 37.5107C138.1 36.7846 137.228 36.0584 136.793 35.0418C136.212 34.1704 135.921 33.1537 135.921 32.2823C135.921 30.9752 135.921 28.9419 136.357 26.3277L138.245 13.9829L138.535 14.2734Z" fill="black"/>
<path d="M157.27 41.1414L164.823 19.0659L181.234 24.73L179.927 28.5061L168.018 24.4396L166.275 29.3775L177.313 33.1536L176.006 36.9296L164.968 33.1536L162.935 39.1081L175.279 43.3199L173.972 47.096L157.125 41.2866L157.27 41.1414Z" fill="black"/>
<path d="M176.877 48.4031L187.624 27.6348L201.857 35.0417L200.114 38.5273L190.093 33.2989L187.624 38.2368L196.338 42.739L194.595 46.2246L185.881 41.7224L181.379 50.5816L177.167 48.4031H176.877Z" fill="black"/>
<path d="M199.969 47.3867C201.421 45.4987 202.874 44.1916 204.471 43.3202C205.633 42.7392 206.795 42.3035 208.102 42.1583C209.409 42.0131 210.571 42.1583 211.733 42.3035C213.331 42.7392 214.783 43.4654 216.235 44.6273C218.995 46.6605 220.447 49.2747 220.883 52.1794C221.173 55.0841 220.302 58.134 217.978 61.1839C215.654 64.2338 213.04 65.9766 210.135 66.4123C207.231 66.848 204.326 66.1218 201.712 63.9433C198.952 61.91 197.355 59.2958 197.064 56.3912C196.774 53.4865 197.645 50.5818 199.969 47.5319V47.3867ZM203.89 50.1461C202.293 52.1794 201.567 54.2127 201.712 56.1007C201.857 57.9887 202.729 59.4411 204.181 60.6029C205.633 61.7648 207.376 62.2005 209.119 61.7648C210.862 61.4743 212.604 60.1672 214.202 57.9887C215.8 55.8102 216.526 53.9222 216.38 52.1794C216.38 50.4366 215.364 48.9843 213.911 47.8224C212.314 46.6605 210.716 46.2248 208.974 46.5153C207.231 46.8058 205.488 48.1129 203.89 50.2914V50.1461Z" fill="black"/>
<path d="M212.895 72.2213L230.178 56.5361L236.858 63.943C238.601 65.8311 239.618 67.2834 240.053 68.4453C240.489 69.6071 240.489 70.769 240.199 71.9309C239.908 73.0927 239.182 74.2546 238.165 75.126C236.858 76.2879 235.406 76.8688 233.954 76.8688C232.356 76.8688 230.904 76.2879 229.306 74.8355C229.597 75.9974 229.597 77.014 229.597 78.0307C229.597 79.0473 229.161 80.4996 228.58 82.5329L227.128 87.7613L223.352 83.5495L224.804 77.595C225.385 75.4165 225.675 74.1094 225.675 73.3832C225.675 72.8023 225.675 72.2213 225.385 71.6404C225.24 71.2047 224.659 70.4785 223.933 69.7524L223.352 69.0262L216.09 75.5617L212.895 72.0761V72.2213ZM225.966 66.7025L228.29 69.3167C229.742 71.0595 230.758 71.9309 231.339 72.2213C231.92 72.5118 232.356 72.657 232.937 72.5118C233.518 72.5118 234.099 72.2213 234.535 71.6404C235.115 71.0595 235.406 70.4785 235.551 69.8976C235.551 69.3167 235.551 68.5905 234.97 68.0096C234.825 67.7191 233.954 66.8477 232.647 65.3954L230.178 62.6359L225.821 66.5572L225.966 66.7025Z" fill="black"/>
<path d="M230.613 93.7159L246.879 83.1138L243.103 77.3045L246.444 75.126L256.61 90.666L253.27 92.8445L249.494 87.0351L233.227 97.6372L230.613 93.7159Z" fill="black"/>
<path d="M43.4075 242.145V219.198H50.8144C53.5738 219.198 55.4618 219.198 56.3332 219.488C57.6403 219.779 58.8022 220.65 59.6736 221.812C60.545 222.974 60.9807 224.426 60.9807 226.314C60.9807 227.767 60.6902 228.928 60.2545 229.8C59.6736 230.816 59.0927 231.543 58.3665 232.124C57.6403 232.704 56.7689 232.995 55.8975 233.285C54.7357 233.431 53.1381 233.576 51.1048 233.576H48.0549V242.29H43.4075V242.145ZM48.0549 223.119V229.655H50.6691C52.5572 229.655 53.719 229.655 54.3 229.364C54.8809 229.074 55.4618 228.783 55.7523 228.202C56.0428 227.621 56.3332 227.04 56.3332 226.459C56.3332 225.588 56.0428 224.862 55.6071 224.426C55.1714 223.845 54.4452 223.555 53.719 223.41C53.1381 223.41 51.9762 223.264 50.3787 223.264H48.0549V223.119Z" fill="black"/>
<path d="M64.7568 242.145V219.198H81.7491V223.119H69.4043V228.202H80.8777V232.124H69.4043V238.369H82.1848V242.29H64.7568V242.145Z" fill="black"/>
<path d="M91.3345 242.144V222.974H84.5085V219.052H102.808V222.974H95.982V242.144H91.3345Z" fill="black"/>
<path d="M124.157 242.145H119.074L117.041 236.916H107.891L106.003 242.145H101.065L110.07 219.198H115.008L124.157 242.145ZM115.589 233.14L112.393 224.571L109.343 233.14H115.589Z" fill="black"/>
<path d="M126.626 242.145V219.198H131.128L140.569 234.592V219.198H144.926V242.145H140.278L130.983 227.186V242.145H126.626Z" fill="black"/>
<path d="M168.308 239.24C169.47 240.112 170.632 240.692 172.084 241.128L170.341 244.469C170.341 244.469 168.889 244.033 168.308 243.597C168.163 243.597 167.146 242.871 165.258 241.564C163.806 242.29 162.063 242.58 160.32 242.58C156.835 242.58 154.075 241.564 152.042 239.385C150.009 237.352 148.992 234.447 148.992 230.671C148.992 226.895 150.009 223.991 152.042 221.957C154.075 219.924 156.69 218.762 160.175 218.762C163.661 218.762 166.275 219.779 168.308 221.957C170.341 223.991 171.358 226.895 171.358 230.671C171.358 232.705 171.068 234.447 170.487 235.9C170.051 237.062 169.47 238.223 168.453 239.24H168.308ZM164.532 236.626C164.532 236.626 165.549 235.028 165.839 234.157C166.13 233.286 166.275 231.978 166.275 230.671C166.275 228.057 165.694 226.024 164.532 224.717C163.37 223.41 161.773 222.684 159.885 222.684C157.997 222.684 156.399 223.41 155.237 224.717C154.075 226.024 153.494 228.057 153.494 230.671C153.494 233.286 154.075 235.319 155.237 236.626C156.399 237.933 157.851 238.659 159.739 238.659C160.466 238.659 161.047 238.659 161.627 238.369C160.611 237.788 159.739 237.207 158.723 236.916L160.03 234.302C161.627 234.883 162.935 235.609 164.387 236.626H164.532Z" fill="black"/>
<path d="M174.698 219.197H179.346V231.688C179.346 233.721 179.346 234.883 179.491 235.464C179.636 236.335 180.217 237.206 180.944 237.787C181.67 238.368 182.686 238.659 183.993 238.659C185.301 238.659 186.317 238.368 187.043 237.787C187.769 237.206 188.06 236.625 188.205 235.754C188.205 235.028 188.35 233.721 188.35 231.833V219.052H192.998V231.107C192.998 233.866 192.998 235.754 192.562 236.916C192.126 238.078 191.836 238.949 191.11 239.821C190.384 240.547 189.512 241.273 188.35 241.709C187.189 242.144 185.736 242.435 183.993 242.435C181.815 242.435 180.072 242.144 179.055 241.709C177.894 241.128 177.022 240.547 176.441 239.675C175.715 238.804 175.279 238.078 175.134 237.061C174.844 235.754 174.698 233.866 174.698 231.252V219.052V219.197Z" fill="black"/>
<path d="M197.936 242.145V219.198H214.928V223.119H202.583V228.202H214.057V232.124H202.583V238.369H215.364V242.29H197.936V242.145Z" fill="black"/>
<path d="M103.243 145.419C104.841 145.419 107.165 145.855 110.069 146.436C126.917 149.921 128.224 158.345 139.988 161.395C144.925 162.702 156.108 160.523 178.62 156.311C181.379 155.73 182.25 155.44 183.703 155.15L193.724 159.071C193.724 159.071 192.272 158.78 191.255 159.071C190.819 159.071 189.222 159.652 188.35 161.104C187.915 161.83 187.915 162.556 187.915 164.299C187.915 169.092 187.915 169.818 187.769 171.416C187.479 172.868 187.334 173.885 186.462 174.901C185.3 176.354 183.412 176.789 182.25 176.935C181.815 176.935 181.234 177.225 180.943 177.661C180.508 178.242 179.927 178.823 179.346 179.549C178.329 180.565 176.877 182.308 174.408 183.906C172.084 185.503 171.067 186.375 169.615 186.375C169.325 186.375 167.001 186.375 166.13 185.068C165.549 184.051 166.13 182.889 165.258 182.453C163.806 181.727 160.901 185.358 157.27 188.118C155.237 189.715 152.478 191.894 148.556 193.782C146.523 194.798 143.328 196.105 139.116 196.832C139.116 196.396 139.116 195.67 138.971 194.944C138.39 191.894 136.066 190.006 135.34 189.425C134.033 188.408 133.742 188.553 129.676 186.956C126.045 185.503 124.302 184.777 122.995 183.906C121.833 183.034 119.074 181.001 118.348 177.516C117.912 175.192 118.203 172.287 118.929 171.561C118.929 171.561 119.219 171.27 119.219 170.98C119.219 170.69 118.638 170.69 118.203 170.69C117.476 170.69 110.215 177.37 101.065 175.337C95.4009 174.175 96.4175 167.059 95.8366 166.623C93.5128 164.59 82.4751 170.98 77.9729 172.432C74.0516 173.739 72.0183 174.32 69.2589 174.03C65.4828 173.449 62.7234 171.125 61.4163 169.818C61.852 169.237 62.4329 168.366 63.3043 167.349C65.7733 164.735 68.2422 162.847 74.6325 159.507C75.9396 158.926 90.8986 151.664 92.9319 150.938C94.5295 150.357 93.5128 148.905 89.7368 149.921C87.7035 150.502 84.7988 151.373 83.4917 151.954C80.8775 152.826 78.5538 153.697 75.6491 153.552C73.7611 153.552 71.2921 153.262 69.5493 151.373C68.2422 149.921 67.8065 147.597 68.3875 145.564C69.1136 143.095 71.2921 141.933 71.7278 141.788L103.389 145.274L103.243 145.419Z" fill="#7D8898"/>
<path d="M72.8897 128.427C73.0349 129.589 72.3087 130.605 71.2921 130.896L69.4041 131.331C75.5039 133.365 81.8941 135.834 88.4296 138.883C89.7367 139.464 91.0438 140.045 92.2057 140.771L86.8321 132.493C82.3298 131.331 79.8609 129.734 78.4085 128.281C77.9728 127.846 76.6657 126.684 74.6325 125.086C73.4706 124.215 72.5992 123.634 71.873 123.198C71.873 123.198 72.454 126.684 72.5992 128.281L72.8897 128.427Z" fill="#7D8898"/>
<path d="M124.012 145.419C143.904 145.419 160.03 129.293 160.03 109.401C160.03 89.5091 143.904 73.3833 124.012 73.3833C104.12 73.3833 87.9939 89.5091 87.9939 109.401C87.9939 129.293 104.12 145.419 124.012 145.419Z" fill="#7D8898"/>
<mask id="mask0_422_1330" style="mask-type:luminance" maskUnits="userSpaceOnUse" x="87" y="73" width="74" height="73">
<path d="M124.012 145.419C143.904 145.419 160.03 129.293 160.03 109.401C160.03 89.5091 143.904 73.3833 124.012 73.3833C104.12 73.3833 87.9939 89.5091 87.9939 109.401C87.9939 129.293 104.12 145.419 124.012 145.419Z" fill="white"/>
</mask>
<g mask="url(#mask0_422_1330)">
<path d="M85.3797 103.592C88.2844 100.687 94.6746 97.7824 99.1769 97.4919C106.293 96.911 111.667 98.0729 118.057 100.106C120.671 100.978 124.157 101.994 127.933 104.027C127.788 104.173 127.497 104.463 127.352 104.608C126.771 105.189 126.19 105.625 125.609 106.206C124.447 105.625 123.14 105.044 121.833 104.463C121.543 104.463 117.912 102.72 112.829 101.413C108.617 100.397 103.679 99.5252 98.8864 100.106C97.4341 100.251 96.127 100.687 95.9817 100.687C91.6247 101.849 86.1059 105.625 84.7988 107.658L85.9606 108.384C87.1225 106.496 92.6414 103.011 96.2722 102.139C96.2722 102.139 97.5793 101.849 98.8864 101.704C109.053 100.542 120.962 105.915 121.107 105.915C122.269 106.351 123.286 106.932 124.302 107.368C121.543 109.546 118.638 111.58 115.733 113.177C112.393 114.92 108.327 117.244 102.372 118.115C98.8864 118.696 95.546 118.551 92.6414 118.115C90.8986 117.679 87.9939 116.518 87.1225 116.227L86.5416 117.534C87.7034 117.97 90.4629 119.132 92.3509 119.567C95.4008 120.148 99.0316 120.294 102.517 119.713C108.617 118.841 112.829 116.518 116.314 114.629C119.364 112.887 122.559 110.708 125.609 108.384C126.626 108.965 127.497 109.401 128.369 109.982C121.543 115.791 115.007 118.696 111.522 120.003C103.97 122.763 98.7412 122.617 96.8531 122.327C95.546 122.327 91.189 121.601 87.7034 119.858L87.1225 121.165C90.7533 123.053 95.4008 123.634 96.8531 123.779C99.3221 124.07 104.696 124.07 112.103 121.31C115.733 120.003 122.559 116.953 129.676 110.708C135.05 114.339 138.39 117.97 139.842 119.713C141.73 122.036 142.892 124.07 143.618 125.812C142.602 126.684 141.295 127.7 139.987 128.572C135.05 132.057 130.838 134.091 128.078 135.107C117.186 139.464 106.293 140.626 104.405 140.336V141.788C106.584 142.079 117.622 140.771 128.659 136.414C131.419 135.253 135.776 133.219 140.859 129.589C142.021 128.717 143.183 127.846 144.199 126.974C144.49 127.7 144.635 128.427 144.78 129.008C140.423 132.638 134.759 136.414 127.643 138.883C123.431 140.336 111.522 142.805 108.181 142.66V144.112C111.667 144.402 123.721 141.788 128.078 140.336C135.05 137.867 140.714 134.236 145.071 130.605C145.071 130.896 145.071 131.041 145.071 131.186C145.361 132.493 145.071 137.576 144.925 139.319H146.378C146.378 139.319 146.959 132.638 146.523 130.896C146.523 130.75 146.523 130.46 146.523 130.315C146.523 130.024 146.523 129.734 146.378 129.443C147.249 128.717 148.121 127.991 148.847 127.12C148.847 127.555 148.847 127.846 148.992 128.136C149.428 130.46 148.992 134.381 148.992 135.979H150.444C150.589 134.817 151.025 130.605 150.444 128.136C150.444 128.136 150.299 126.974 150.009 126.103C151.461 124.651 152.623 123.198 153.494 122.182C155.092 120.148 158.142 115.356 160.32 110.999C160.32 111.144 160.32 111.289 160.32 111.434L161.627 111.144C161.627 111.144 161.337 109.982 161.046 109.256C161.337 108.82 161.482 108.239 161.772 107.803L160.465 107.223C160.465 107.223 160.465 107.368 160.465 107.513C160.32 106.932 160.03 106.496 159.739 105.915C160.32 104.608 160.901 103.301 161.337 102.285L160.03 101.704C159.739 102.43 159.303 103.301 159.013 104.173C158.577 103.156 158.142 102.139 157.706 101.268C154.366 94.5873 149.863 90.8112 146.959 88.3422C146.232 87.7613 145.652 87.3256 144.925 86.7447C144.925 86.1637 145.216 85.4376 145.361 84.7114C148.266 86.8899 150.299 88.9232 151.751 90.3755C154.511 92.9897 156.98 96.0396 159.158 99.0895L160.32 98.2181C158.142 95.023 155.527 91.9731 152.768 89.3589C151.17 87.7613 148.847 85.5828 145.652 83.1138C145.942 81.2258 145.942 79.483 145.942 77.5949H144.49C144.49 79.1925 144.49 80.6449 144.199 82.2424C143.328 81.6615 142.456 81.0806 141.44 80.4996C141.44 80.4996 141.44 80.3544 141.44 80.2092C141.149 78.3211 140.423 76.4331 139.407 74.8355L138.245 75.5617C138.971 76.8688 139.552 78.1759 139.987 79.6282C139.116 79.1925 138.099 78.6116 137.083 78.1759C133.597 76.5783 130.402 75.5617 127.933 74.8355C126.481 74.3998 125.174 74.2546 124.302 73.9641C120.381 73.2379 116.46 72.8022 112.393 72.8022V74.2546C116.314 74.2546 120.09 74.6903 124.012 75.4164C126.481 75.8521 131.128 76.8688 136.647 79.3378C137.954 79.9187 139.261 80.6449 140.423 81.371C140.423 82.0972 140.423 82.9686 140.423 83.5495C137.083 81.5163 134.033 80.2092 131.709 79.3378C130.257 78.7568 128.659 78.3211 127.207 78.0307C119.219 75.9974 111.086 75.9974 105.422 76.8688V78.3211C107.891 78.0307 119.51 76.5783 131.128 80.7901C133.452 81.6615 136.647 82.9686 140.133 85.1471C139.842 86.5994 139.552 87.7613 139.261 88.6327C138.826 89.9398 138.099 91.5374 136.211 94.2968C133.597 98.0729 130.983 101.123 129.095 103.011C125.028 100.832 121.398 99.6704 118.638 98.799C116.895 98.2181 115.298 97.7824 113.7 97.3467C109.053 96.1848 104.551 95.6039 99.1769 96.0396C94.3842 96.4753 87.7034 99.38 84.5083 102.575L85.5249 103.592H85.3797ZM126.771 106.787C126.771 106.787 127.643 105.915 128.224 105.48C128.514 105.189 128.804 104.899 129.24 104.608C130.112 105.044 130.983 105.625 131.854 106.206C131.419 106.496 131.128 106.932 130.693 107.223C130.257 107.658 129.966 107.949 129.531 108.384C128.659 107.804 127.788 107.368 126.771 106.787ZM140.859 118.26C139.407 116.518 136.066 112.741 130.693 109.111C130.983 108.82 131.273 108.53 131.564 108.239C132 107.803 132.435 107.368 132.871 106.932C133.597 107.513 134.323 107.949 135.05 108.53C137.083 110.127 141.004 113.468 144.49 118.551C145.361 119.858 146.087 121.02 146.668 122.036C145.942 122.763 145.216 123.489 144.49 124.215C143.764 122.472 142.456 120.439 140.714 118.115L140.859 118.26ZM145.797 127.7C145.797 127.7 145.361 126.393 145.071 125.667C145.942 124.941 146.668 124.215 147.394 123.489C147.685 124.215 147.975 124.941 148.121 125.522C147.394 126.248 146.668 126.974 145.797 127.846V127.7ZM159.594 108.82C157.27 113.613 153.785 118.986 152.187 120.875C151.461 121.891 150.444 123.053 149.282 124.215C149.137 123.634 148.847 123.053 148.411 122.327C150.299 120.294 151.751 118.406 152.623 117.244C154.946 114.194 157.125 110.418 158.868 107.223C159.158 107.803 159.303 108.384 159.594 108.82ZM156.399 101.558C156.98 102.72 157.561 104.027 158.142 105.48C156.399 108.965 154.075 113.032 151.461 116.372C150.589 117.389 149.428 119.132 147.685 120.875C147.104 119.858 146.523 118.841 145.652 117.679C142.021 112.451 137.954 108.965 135.921 107.368C135.195 106.787 134.469 106.351 133.888 105.77C136.647 103.011 139.407 99.8157 141.73 95.023C142.892 92.6992 143.764 90.2303 144.344 87.7613C144.78 88.197 145.361 88.4875 145.797 88.9232C148.701 91.3921 153.058 95.023 156.254 101.413L156.399 101.558ZM141.73 81.952C142.602 82.5329 143.328 82.9686 144.054 83.5495C144.054 84.2757 143.909 84.8566 143.764 85.5828C143.037 85.1471 142.456 84.5662 141.73 84.1305C141.73 83.4043 141.73 82.6781 141.73 81.952ZM137.228 94.8777C139.261 91.8278 139.987 90.2303 140.423 88.7779C140.714 88.0518 141.004 86.8899 141.295 85.728C141.875 86.1637 142.602 86.5994 143.183 87.0351C142.602 89.6493 141.585 92.1183 140.423 94.5873C138.099 99.2347 135.34 102.43 132.726 105.189C131.854 104.608 130.983 104.027 130.112 103.592C132 101.558 134.614 98.6538 137.228 94.8777Z" fill="black"/>
</g>
<path d="M170.922 161.104C166.565 164.299 162.353 166.333 159.594 167.64C153.349 170.544 148.556 171.416 143.183 172.287C137.373 173.304 134.323 173.304 132 171.416C130.838 170.544 129.966 169.237 129.531 168.511C126.917 168.511 123.431 168.511 120.962 166.042C120.526 165.607 118.057 159.362 118.638 161.54C118.638 161.685 115.879 160.959 112.829 157.038C112.538 156.602 113.119 156.021 108.762 149.921C106.874 147.452 106.003 146.145 104.841 144.838C103.098 142.95 102.227 142.369 100.775 141.062C99.0317 139.465 98.3056 137.722 95.1104 133.655C90.0273 127.12 88.2845 123.344 87.8488 121.891C87.4131 120.584 85.3798 113.903 87.994 108.385C88.5749 107.223 89.1559 104.609 91.7701 103.301C92.6415 102.866 93.6581 103.011 94.239 102.866C94.5295 99.6706 95.8366 96.3302 98.4508 95.3136C100.339 94.5874 102.517 94.0065 104.115 95.3136C104.841 95.8945 105.567 96.9112 105.858 97.3469C106.729 96.7659 107.891 96.7659 109.634 96.3302C113.119 95.4588 117.476 96.0398 120.381 98.9444C122.269 100.832 122.995 101.123 123.431 102.72C124.157 105.916 122.85 108.53 123.14 114.63C123.286 118.26 123.14 120.148 123.867 122.182C124.448 124.07 125.029 125.232 125.319 127.41C125.464 129.298 126.045 130.605 125.755 131.767L126.771 132.203C126.771 132.203 128.078 132.784 128.805 133.22L170.777 161.25L170.922 161.104Z" fill="#E9E9E9"/>
<path d="M128.224 135.398C126.19 133.8 122.85 133.22 120.672 134.962C119.8 135.689 119.219 136.705 118.784 137.577C118.203 139.029 118.057 140.626 117.912 142.224C117.912 144.112 117.767 146 117.912 147.743C117.912 149.631 118.493 151.229 119.51 152.826C122.269 157.764 125.464 162.411 129.095 166.914C130.693 168.947 132.435 171.416 135.195 171.852C139.842 172.433 144.345 171.271 148.847 170.109C152.187 169.237 155.673 168.221 159.013 167.349C162.789 166.188 167.001 163.864 170.196 161.685C167.001 164.445 162.644 167.349 158.577 168.802C155.528 169.818 152.187 170.835 148.992 171.706C146.233 172.433 143.473 173.159 140.569 173.449C137.664 173.594 134.324 173.885 131.855 172.142C130.257 170.98 129.24 169.237 128.224 167.64C126.045 164.3 120.817 156.602 118.638 153.552C116.75 151.083 116.315 148.179 116.46 145.129C116.46 142.66 116.46 140.191 117.331 137.867C117.912 136.415 118.638 135.108 119.945 134.236C122.414 132.493 126.19 133.365 128.224 135.398Z" fill="#1D1D1B"/>
<path d="M117.186 145.564C119.074 145.564 120.962 145.709 122.85 145.564C125.319 145.564 126.481 142.95 127.352 140.917L128.078 139.174C128.078 139.174 128.078 140.481 128.078 141.062C127.788 143.386 126.626 146.145 124.012 146.581C122.995 146.581 121.978 146.581 121.107 146.435C119.8 146.29 118.638 146 117.331 145.419L117.186 145.564Z" fill="#1D1D1B"/>
<path d="M123.14 101.704C120.671 98.3634 116.46 96.4753 112.393 96.6206C109.488 96.7658 106.148 97.492 106.003 100.978C105.858 104.173 104.841 107.368 104.115 110.418C103.824 111.58 102.517 117.098 102.517 118.115C102.517 119.713 103.534 121.02 104.26 122.327C105.131 124.36 105.422 126.539 105.277 128.717C105.277 132.929 106.439 136.995 108.327 140.626C109.343 142.514 110.941 143.676 112.393 145.419C113.845 147.162 114.862 149.05 115.733 151.083C116.895 153.988 118.057 157.183 118.929 160.088C119.51 161.976 119.8 164.154 121.252 165.606C123.286 168.075 126.771 168.221 129.676 168.366C127.497 168.656 125.319 168.802 123.286 168.075C121.107 167.349 119.364 165.606 118.638 163.428C117.912 161.395 117.331 159.361 116.46 157.473C115.007 153.552 113.7 149.486 111.086 146.29C110.505 145.564 109.634 144.838 108.907 143.967C107.31 142.369 106.439 140.191 105.712 138.157C104.696 135.107 104.115 131.767 104.405 128.572C104.696 126.539 104.55 124.36 103.824 122.472C103.098 121.02 101.936 119.713 102.082 117.97C102.082 116.372 102.517 114.775 102.808 113.177C103.243 109.982 103.824 106.787 104.26 103.737C104.696 101.559 104.26 99.0895 105.858 97.3467C107.165 96.0396 108.907 95.6039 110.505 95.3135C113.845 94.8778 117.186 95.8944 119.945 97.7824C121.252 98.7991 122.414 99.9609 123.14 101.413V101.704Z" fill="#1D1D1B"/>
<path d="M105.712 106.206C108.181 108.094 111.522 108.965 114.281 107.804C115.588 107.223 116.605 106.061 117.476 104.754C118.202 103.447 118.638 101.849 118.929 100.251C119.364 101.849 119.219 103.737 118.638 105.335C117.767 107.949 115.153 109.982 112.393 109.837C109.779 109.837 107.02 108.53 105.858 106.206H105.712Z" fill="#1D1D1B"/>
<path d="M105.713 96.911C103.679 94.4421 100.629 94.5873 98.0151 96.3301C96.1271 97.6372 95.1105 99.8157 94.5295 101.994C94.5295 100.542 94.6748 99.2348 95.2557 97.9277C96.9985 93.7159 103.824 92.1183 105.713 97.0563V96.911Z" fill="#1D1D1B"/>
<path d="M94.5295 102.43C94.0938 105.48 94.5295 108.529 94.5295 111.725C94.82 116.663 95.2557 121.746 96.2723 126.538C96.708 128.426 97.5794 130.024 98.3056 131.767C98.8865 133.219 99.3222 134.817 99.4674 136.414C99.4674 137.14 99.4674 138.012 99.4674 138.738C98.8865 136.85 98.4508 135.107 97.7246 133.364C96.8532 131.476 95.8366 129.443 95.6914 127.265C94.6747 122.181 94.3843 116.953 94.239 111.725C94.239 108.675 94.0938 105.48 94.6747 102.43H94.5295Z" fill="#1D1D1B"/>
<path d="M94.3843 103.156C90.3177 102.865 88.4297 107.513 88.1392 110.853C87.5583 115.355 87.8488 120.003 89.4463 124.215C90.3177 126.393 91.6248 128.281 92.9319 130.169C95.5461 133.945 98.7413 137.286 101.936 140.626C105.277 143.966 108.908 147.016 111.231 151.228C111.667 151.954 111.958 152.68 112.248 153.407C112.538 154.133 112.684 154.859 112.974 155.585C113.555 157.037 114.281 158.199 115.443 159.216C116.605 160.233 117.912 160.959 119.219 161.685C118.493 161.685 117.767 161.394 117.041 160.959C113.7 159.506 112.103 157.183 110.941 153.842C110.069 151.809 108.762 149.921 107.31 148.323C104.26 144.838 100.775 141.643 97.8699 138.012C95.9818 135.543 94.239 132.929 92.4962 130.46C91.7701 129.298 90.6082 127.7 89.882 126.538C88.2845 123.924 87.1226 120.874 86.6869 117.679C86.3964 115.355 86.5417 112.886 86.8321 110.563C87.2678 108.239 88.1392 105.77 89.882 104.172C91.0439 103.011 92.9319 102.43 94.3843 103.011V103.156Z" fill="#1D1D1B"/>
<path d="M95.8367 101.994C96.8533 105.044 100.339 106.351 103.098 105.044C103.97 104.608 104.841 104.027 105.567 103.156C105.422 104.318 104.696 105.335 103.679 106.206C100.484 108.675 95.1105 106.206 95.6915 102.139L95.8367 101.994Z" fill="#1D1D1B"/>
<path d="M89.0107 110.999C90.8988 113.177 92.4963 113.903 94.3844 111.144C94.3844 111.87 94.0939 112.451 93.6582 113.032C91.9154 115.065 89.156 113.032 89.0107 110.999Z" fill="#1D1D1B"/>
<path d="M123.286 110.272C123.14 114.194 123.286 118.115 124.302 122.036C124.448 123.053 124.738 123.924 125.029 124.941C125.464 126.974 125.755 128.862 125.609 130.896C125.609 131.912 125.464 132.929 125.174 133.8C125.174 132.784 125.174 131.767 125.174 130.896C125.174 129.443 124.738 127.991 124.448 126.539C124.157 125.086 123.576 123.779 123.286 122.182C122.414 118.26 122.269 114.194 123.286 110.272Z" fill="#1D1D1B"/>
<path d="M161.627 162.557C181.519 162.557 197.645 146.431 197.645 126.539C197.645 106.647 181.519 90.521 161.627 90.521C141.735 90.521 125.609 106.647 125.609 126.539C125.609 146.431 141.735 162.557 161.627 162.557Z" fill="#7D8898"/>
<mask id="mask1_422_1330" style="mask-type:luminance" maskUnits="userSpaceOnUse" x="125" y="90" width="73" height="73">
<path d="M161.627 162.557C181.519 162.557 197.645 146.431 197.645 126.539C197.645 106.647 181.519 90.521 161.627 90.521C141.735 90.521 125.609 106.647 125.609 126.539C125.609 146.431 141.735 162.557 161.627 162.557Z" fill="white"/>
</mask>
<g mask="url(#mask1_422_1330)">
<path d="M200.259 120.875C198.371 124.506 192.998 129.153 188.931 130.751C182.396 133.365 176.877 133.946 170.051 133.8C167.291 133.8 163.661 133.8 159.449 133.074C159.594 132.784 159.739 132.493 159.884 132.348C160.32 131.622 160.756 131.041 161.046 130.315C162.353 130.605 163.661 130.751 165.113 130.896C165.403 130.896 169.47 131.331 174.553 131.041C178.765 130.751 183.848 130.024 188.35 128.136C189.657 127.555 190.819 126.829 190.964 126.829C194.74 124.506 198.952 119.277 199.533 116.953L198.226 116.663C197.79 118.841 193.433 123.779 190.238 125.667C190.238 125.667 189.076 126.394 187.914 126.974C178.62 131.041 165.549 129.589 165.403 129.589C164.241 129.589 163.08 129.298 161.918 129.153C163.951 126.248 166.129 123.489 168.308 121.165C170.922 118.406 174.263 115.065 179.491 112.451C182.541 110.999 185.881 109.982 188.786 109.692C190.529 109.546 193.724 109.692 194.595 109.837V108.385C193.433 108.385 190.383 108.094 188.641 108.239C185.591 108.53 182.105 109.546 178.91 111.144C173.391 113.758 170.051 117.244 167.291 120.003C164.822 122.472 162.499 125.522 160.32 128.717C159.304 128.572 158.142 128.282 157.27 127.991C162.063 120.439 167.437 115.646 170.341 113.468C176.732 108.675 181.815 107.223 183.703 106.787C185.01 106.497 189.367 105.77 193.143 106.351L193.433 105.044C189.367 104.318 184.719 105.189 183.412 105.48C180.943 105.916 175.86 107.513 169.47 112.306C166.42 114.63 160.756 119.568 155.818 127.555C149.573 125.813 145.361 123.198 143.473 121.891C141.004 120.294 139.261 118.551 138.099 117.099C138.826 115.937 139.697 114.63 140.714 113.323C144.344 108.53 147.83 105.335 150.154 103.447C159.304 96.185 169.325 91.828 171.213 91.3923L170.922 90.0852C168.598 90.5209 158.432 95.0231 149.137 102.43C146.813 104.318 143.183 107.513 139.552 112.451C138.68 113.613 137.809 114.775 137.228 115.937C136.792 115.211 136.357 114.63 136.066 114.049C139.116 109.256 143.473 104.028 149.573 99.5254C153.204 96.9112 163.806 90.9566 167.146 90.2304L166.856 88.9233C163.225 89.7947 152.623 95.7493 148.847 98.5087C142.892 102.866 138.535 108.094 135.485 112.742C135.485 112.451 135.195 112.306 135.195 112.161C134.469 110.999 133.307 106.061 133.016 104.318L131.709 104.609C131.709 104.609 133.162 111.289 134.033 112.887C134.033 113.032 134.178 113.177 134.323 113.468C134.323 113.758 134.614 113.903 134.759 114.194C134.178 115.211 133.597 116.082 133.162 117.099C133.016 116.808 132.871 116.518 132.726 116.227C131.709 114.194 130.838 110.273 130.547 108.82L129.24 109.111C129.531 110.418 130.402 114.63 131.564 116.808C131.564 116.808 132 117.825 132.581 118.551C131.709 120.439 130.983 122.037 130.402 123.344C129.385 125.813 128.078 131.186 127.062 135.979C127.062 135.979 126.916 135.688 126.771 135.543L125.609 136.269C125.609 136.269 126.19 137.286 126.771 137.867C126.771 138.448 126.626 139.029 126.481 139.465H127.933C128.224 139.9 128.659 140.336 129.095 140.772C128.805 142.224 128.659 143.531 128.659 144.693H130.112C130.112 144.693 130.257 143.095 130.402 142.079C131.128 142.95 131.854 143.676 132.581 144.402C137.664 149.776 143.037 152.1 146.668 153.552C147.394 153.843 148.266 154.133 148.992 154.424C148.992 155.15 148.992 155.731 149.137 156.457C145.797 155.15 143.183 153.843 141.44 152.971C138.099 151.228 134.904 149.195 131.854 146.871L130.983 148.033C134.033 150.357 137.373 152.536 140.859 154.278C142.747 155.295 145.652 156.747 149.573 158.2C149.863 160.088 150.299 161.831 150.88 163.573L152.187 163.138C151.751 161.685 151.316 160.233 151.025 158.635C152.042 158.926 153.058 159.216 154.075 159.507C154.075 159.507 154.075 159.652 154.075 159.797C154.947 161.54 156.108 162.992 157.706 164.299L158.577 163.283C157.415 162.266 156.544 161.25 155.818 159.942C156.835 160.088 157.851 160.378 159.013 160.523C162.934 161.104 166.129 161.104 168.744 160.959C170.341 160.959 171.503 160.814 172.52 160.669C176.441 160.233 180.362 159.507 184.138 158.345L183.703 157.038C179.927 158.2 176.151 158.926 172.375 159.362C169.906 159.652 165.113 160.088 159.158 159.362C157.706 159.216 156.254 158.926 154.947 158.635C154.656 157.909 154.366 157.183 154.22 156.457C157.996 157.328 161.337 157.764 163.806 157.909C165.403 157.909 167.001 157.909 168.453 157.909C176.732 157.474 184.574 155.005 189.512 152.681L188.931 151.374C186.898 152.39 176.151 157.183 163.806 156.602C161.337 156.602 157.851 156.166 153.93 155.15C153.785 153.697 153.785 152.39 153.93 151.519C153.93 150.212 154.22 148.469 155.092 145.129C156.399 140.772 158.142 137.141 159.304 134.672C163.806 135.543 167.727 135.543 170.486 135.543C172.229 135.543 173.972 135.543 175.57 135.543C180.362 135.253 184.719 134.527 189.803 132.493C194.16 130.751 199.678 125.958 201.857 121.891L200.695 121.165L200.259 120.875ZM159.739 130.024C159.739 130.024 159.158 131.041 158.723 131.622C158.577 131.912 158.287 132.348 158.142 132.784C157.125 132.639 156.108 132.348 155.092 132.058C155.382 131.622 155.527 131.186 155.818 130.751C156.108 130.315 156.399 129.879 156.689 129.298C157.706 129.589 158.723 129.734 159.739 130.024ZM142.892 123.198C144.78 124.506 148.992 126.974 155.237 128.863C155.092 129.298 154.801 129.589 154.656 130.024C154.366 130.605 154.075 131.041 153.785 131.622C152.913 131.331 152.042 131.041 151.17 130.751C148.847 129.879 144.054 127.701 139.116 123.925C137.954 122.908 136.938 122.037 136.066 121.31C136.502 120.439 136.938 119.568 137.519 118.551C138.826 120.003 140.568 121.601 142.892 123.198ZM135.34 115.646C135.34 115.646 136.066 116.808 136.647 117.389C136.066 118.406 135.63 119.277 135.05 120.149C134.469 119.568 134.033 118.987 133.742 118.551C134.178 117.68 134.759 116.663 135.34 115.646ZM127.788 137.722C128.659 132.493 130.257 126.248 131.273 124.07C131.709 122.908 132.29 121.601 133.016 120.003C133.452 120.439 133.888 121.02 134.323 121.601C133.016 124.215 132.29 126.248 131.854 127.701C130.547 131.331 129.531 135.543 128.95 139.174C128.514 138.738 128.224 138.157 127.788 137.722ZM133.016 143.676C132.145 142.805 131.128 141.643 130.112 140.481C130.693 136.56 131.709 132.058 133.162 128.136C133.597 126.829 134.323 124.941 135.34 122.617C136.066 123.344 137.083 124.215 138.099 125.086C143.183 129.008 147.975 131.186 150.444 132.058C151.316 132.348 152.042 132.639 152.913 132.929C151.17 136.269 149.428 140.191 148.556 145.564C148.121 148.033 147.975 150.648 148.121 153.262C147.54 153.117 146.959 152.826 146.378 152.536C142.892 151.083 137.664 148.905 132.726 143.676H133.016ZM152.768 158.054C151.897 157.764 150.88 157.474 150.154 157.183C150.154 156.457 150.009 155.876 149.863 155.15C150.735 155.44 151.461 155.585 152.187 155.876C152.187 156.602 152.478 157.183 152.768 157.909V158.054ZM153.204 144.402C152.187 147.888 152.042 149.631 151.897 151.083C151.897 151.955 151.897 152.971 151.897 154.278C151.17 154.133 150.444 153.843 149.573 153.552C149.428 150.793 149.573 148.179 149.863 145.564C150.735 140.336 152.332 136.56 154.22 133.22C155.237 133.51 156.254 133.8 157.27 133.946C155.963 136.415 154.366 140.045 153.058 144.257L153.204 144.402Z" fill="black"/>
</g>
</g>
<defs>
<clipPath id="clip0_422_1330">
<rect width="256" height="256" fill="white"/>
</clipPath>
</defs>
</svg>
