<svg width="256" height="256" viewBox="0 0 256 256" fill="none" xmlns="http://www.w3.org/2000/svg">
<g clip-path="url(#clip0_1055_61870)">
<path d="M122.205 -2.55872e-05H133.795C133.886 0.236077 134.09 0.11266 134.235 0.123392C134.997 0.171686 135.759 0.177052 136.521 0.225345C138.501 0.354129 140.471 0.568768 142.445 0.751211C143.975 0.890726 145.504 1.06244 147.006 1.31464C149.485 1.72782 151.97 2.15173 154.433 2.6776C158.302 3.49859 162.133 4.46447 165.911 5.64498C168.529 6.46598 171.121 7.37819 173.691 8.3387C177.41 9.72849 181.021 11.3597 184.606 13.05C186.489 13.9408 188.297 14.9979 190.138 15.9852C192.402 17.1979 194.613 18.518 196.765 19.9131C201.637 23.0737 206.338 26.4596 210.749 30.2533C212.836 32.0509 214.907 33.8647 216.882 35.7803C219.039 37.8784 221.175 39.998 223.144 42.2785C224.169 43.4644 225.269 44.5805 226.251 45.7986C227.898 47.8537 229.546 49.9036 231.113 52.0285C233.2 54.8563 235.201 57.7486 237.037 60.7375C239.328 64.4775 241.458 68.3142 243.352 72.2797C244.463 74.6139 245.558 76.9534 246.529 79.3467C248.048 83.076 249.427 86.8537 250.575 90.7172C251.568 94.0494 252.453 97.4085 253.178 100.816C253.575 102.689 253.956 104.561 254.294 106.439C254.578 108.044 254.76 109.67 254.991 111.285C255.233 112.991 255.42 114.698 255.581 116.409C255.726 117.971 255.909 119.532 255.871 121.11C255.871 121.255 255.759 121.459 255.995 121.55V134.428C255.957 134.471 255.882 134.509 255.882 134.552C255.871 136.527 255.683 138.485 255.485 140.444C255.351 141.785 255.27 143.132 255.082 144.468C254.825 146.309 254.476 148.133 254.202 149.968C253.864 152.254 253.408 154.524 252.866 156.762C251.562 162.187 250.022 167.547 248.037 172.779C246.615 176.524 245.048 180.206 243.336 183.822C242.231 186.162 240.991 188.432 239.725 190.691C238.426 193.003 237.053 195.273 235.615 197.5C232.857 201.761 229.852 205.839 226.611 209.745C224.936 211.763 223.241 213.764 221.427 215.642C218.197 218.985 214.913 222.275 211.344 225.269C209.799 226.568 208.27 227.893 206.671 229.116C203.499 231.542 200.253 233.865 196.872 236.006C193.513 238.137 190.074 240.117 186.548 241.957C183.962 243.304 181.322 244.533 178.644 245.687C176.047 246.803 173.418 247.838 170.751 248.783C165.637 250.596 160.421 252.051 155.114 253.194C152.447 253.768 149.764 254.261 147.076 254.691C145.069 255.013 143.052 255.292 141.023 255.453C139 255.619 136.977 255.887 134.938 255.866C134.772 255.866 134.547 255.737 134.434 255.989H121.555C121.523 255.844 121.411 255.86 121.309 255.86C119.951 255.871 118.604 255.726 117.252 255.614C115.551 255.474 113.855 255.302 112.165 255.093C110.646 254.905 109.139 254.669 107.631 254.455C104.642 254.031 101.675 253.446 98.7501 252.737C93.749 251.53 88.823 250.071 83.9775 248.294C79.6848 246.722 75.4993 244.914 71.3943 242.928C69.1406 241.839 66.9406 240.632 64.762 239.387C61.8643 237.729 59.0096 236.001 56.2569 234.117C52.7744 231.735 49.3938 229.213 46.1528 226.503C44.0439 224.743 41.9619 222.946 39.9819 221.046C37.5779 218.744 35.2223 216.388 33.0115 213.882C31.4232 212.079 29.8509 210.26 28.327 208.404C26.8406 206.59 25.424 204.733 24.0557 202.834C21.979 199.952 20.0151 196.996 18.1799 193.953C16.2053 190.68 14.413 187.299 12.7335 183.86C11.6066 181.552 10.5549 179.218 9.57291 176.852C7.93628 172.902 6.5143 168.873 5.28549 164.778C4.40011 161.827 3.63277 158.838 2.96739 155.828C2.54884 153.923 2.12493 152.007 1.82444 150.081C1.53467 148.224 1.22881 146.362 0.998077 144.49C0.783438 142.74 0.574165 140.986 0.418551 139.236C0.262938 137.53 0.0590309 135.813 0.128789 134.085C0.128789 133.972 0.187814 133.817 0.00537109 133.774V122.183C0.107325 122.162 0.139521 122.092 0.134155 122.001C0.0482989 120.869 0.268304 119.747 0.268304 118.62C0.268304 117.944 0.359526 117.268 0.418551 116.592C0.568799 114.837 0.821 113.093 1.041 111.344C1.20735 110.013 1.3254 108.672 1.57224 107.357C2.01225 105.028 2.42543 102.699 2.94593 100.387C3.6596 97.2154 4.4484 94.0655 5.39281 90.9533C6.17624 88.3669 7.04553 85.8073 7.97921 83.2692C9.26705 79.7598 10.732 76.331 12.3364 72.9558C13.592 70.3157 14.9496 67.7347 16.3823 65.1859C17.6916 62.857 19.0653 60.5604 20.5302 58.3281C22.3332 55.5808 24.222 52.887 26.2235 50.2738C27.9728 47.9933 29.7919 45.7664 31.67 43.5932C32.9042 42.1658 34.1544 40.7492 35.4798 39.4077C36.9179 37.9482 38.3667 36.494 39.8692 35.0881C42.1068 32.99 44.3874 30.9348 46.7699 29.0031C48.444 27.6455 50.1021 26.2557 51.8461 24.9893C54.6364 22.9717 57.475 21.0185 60.4048 19.1941C63.1361 17.4984 65.921 15.9101 68.7596 14.413C70.949 13.2539 73.1866 12.1807 75.451 11.1612C78.5579 9.76605 81.7131 8.48895 84.922 7.34063C88.2864 6.13329 91.6938 5.07082 95.1549 4.16397C97.8218 3.46103 100.51 2.84394 103.209 2.29661C104.637 2.00685 106.075 1.73855 107.513 1.52391C109.214 1.27171 110.92 1.05707 112.621 0.842433C114.521 0.600964 116.426 0.418521 118.325 0.257541C119.484 0.160954 120.659 0.0107064 121.835 0.096562C121.963 0.107294 122.146 0.187784 122.21 -0.0268555L122.205 -2.55872e-05ZM125.124 49.1952C103.537 50.628 85.9737 58.4194 71.6841 73.0685C57.3784 87.7283 49.7372 105.495 49.265 125.972C48.7445 148.809 56.8472 168.443 73.1758 184.429C87.5781 198.53 105.077 206.118 125.21 206.73C149.598 207.465 170.214 198.557 186.623 180.49C199.389 166.436 206.172 149.689 206.73 130.726C207.422 107.411 199.244 87.3849 182.438 71.2226C166.184 55.5915 146.48 48.546 125.118 49.1952H125.124Z" fill="#050404"/>
<path d="M76.0896 206.032C75.9178 209.246 74.9681 212.224 73.31 214.983C72.0704 217.038 70.6485 218.948 68.8723 220.574C67.9655 221.4 66.9674 222.098 65.7869 222.473C64.6171 222.844 63.5171 222.677 62.5083 221.937C62.2292 221.733 62.1917 221.567 62.2883 221.245C62.7336 219.737 63.5976 218.486 64.5903 217.306C65.4703 216.265 66.3718 215.245 67.0157 214.022C67.6059 212.895 67.8474 211.704 67.9494 210.459C67.9762 210.116 67.7723 210.137 67.5469 210.142C66.4147 210.158 65.4327 210.582 64.5473 211.269C63.6405 211.978 62.8624 212.836 61.8804 213.459C61.1936 213.899 60.4477 214.097 59.6697 214.258C59.2404 214.349 59.1867 214.054 59.117 213.748C58.8218 212.401 59.2458 211.183 59.7448 209.971C60.217 208.833 60.8716 207.76 61.0595 206.51C61.156 205.876 61.2741 205.114 60.8287 204.75C60.4424 204.428 59.7984 204.916 59.3048 205.136C57.695 205.855 56.552 207.127 55.5164 208.5C54.572 209.761 53.7027 211.081 52.6188 212.23C51.8997 212.992 51.6207 213.045 50.9231 212.648C50.1075 212.181 49.8016 211.505 50.0431 210.663C50.4295 209.316 51.2934 208.248 52.1412 207.18C53.6812 205.243 55.0871 203.172 56.9598 201.541C59.4497 199.373 62.2292 197.709 65.583 197.21C66.1625 197.125 66.7313 197.151 67.3001 197.275C68.4269 197.516 68.6899 197.849 68.7543 199.003C68.8294 200.285 68.5289 201.509 68.2338 202.737C68.1211 203.215 68.0191 203.698 67.8957 204.175C67.7884 204.583 67.8367 204.782 68.3518 204.776C69.3874 204.776 70.1494 204.181 70.9811 203.703C71.4265 203.451 71.8558 203.172 72.3173 202.947C74.292 201.965 75.9339 202.92 76.0896 205.131C76.111 205.431 76.0896 205.732 76.0896 206.032Z" fill="#FEFEFD"/>
<path d="M33.2154 150.886C32.8076 150.843 32.5661 151.133 32.2763 151.294C29.6631 152.737 26.8031 153.435 23.9376 154.122C22.8161 154.39 21.7054 154.717 20.5732 154.894C19.5 155.066 18.8185 155.64 18.2765 156.526C17.7989 157.309 17.1765 157.942 16.1999 158.098C15.8296 158.157 15.615 158.087 15.5023 157.674C14.4237 153.612 13.5759 149.518 13.7959 145.284C13.8603 144.023 14.1554 142.81 14.6384 141.624C15.6311 139.188 19.2156 137.814 21.5981 140.224C21.9468 140.578 22.3761 140.814 22.8 141.061C23.3152 141.361 23.6049 141.157 23.8142 140.701C23.8947 140.53 23.9806 140.32 23.9484 140.149C23.782 139.199 24.2381 138.609 24.9518 138.061C26.0304 137.235 27.1518 136.527 28.4987 136.248C30.4305 135.85 32.1422 136.451 33.5052 137.734C37.2828 141.286 38.5814 145.681 37.4492 150.72C36.9286 153.032 35.4691 154.696 33.2744 155.683C32.9954 155.807 32.8398 155.823 32.652 155.522C32.3622 155.061 32.2442 154.583 32.3944 154.068C32.609 153.354 32.8398 152.641 33.0812 151.938C33.1939 151.605 33.253 151.278 33.2047 150.881L33.2154 150.886ZM18.0243 148.418C18.0511 148.75 18.1209 149.303 18.137 149.856C18.1424 150.135 18.2658 150.156 18.4858 150.162C19.8166 150.183 21.1366 150.092 22.4566 149.963C24.2649 149.786 26.0679 149.571 27.8816 149.518C29.6899 149.464 31.4607 149.684 33.1564 150.339C33.4032 150.435 33.591 150.489 33.5534 150.129C33.4247 148.75 33.1993 147.393 32.5393 146.148C31.1924 143.594 28.0211 143.25 26.3791 145.638C25.8855 146.352 25.3542 147.055 24.6406 147.602C24.2918 147.87 24.0396 147.86 23.7391 147.618C23.3527 147.312 22.9717 147.001 22.6015 146.684C21.8878 146.067 21.1849 145.445 20.1922 145.305C19.0224 145.134 18.3677 145.6 18.1209 146.733C18.0136 147.226 18.0297 147.709 18.0136 148.423L18.0243 148.418Z" fill="#FEFEFD"/>
<path d="M39.4185 91.4041C39.778 90.2289 40.4165 89.306 41.2053 88.485C42.1498 87.4976 43.0888 86.4888 43.7649 85.303C45.321 82.5878 44.4303 79.395 41.6614 77.5491C39.4775 76.0896 36.993 75.9018 35.1954 77.2701C33.4837 78.574 33.5159 78.515 34.9057 79.9316C35.7106 80.7526 36.7355 81.2409 37.7282 81.7829C38.8497 82.3946 39.9926 82.9795 40.8834 83.94C41.5273 84.6322 41.9136 85.4478 42.1068 86.3654C42.1873 86.741 42.139 86.9235 41.6614 86.9181C39.4238 86.8966 37.4653 86.0381 35.555 84.9917C34.0096 84.1439 32.5393 83.1566 30.8222 82.6575C29.0997 82.1585 27.4416 82.3356 25.8425 83.1244C25.7138 83.1888 25.6225 83.3122 25.4455 83.2961C24.6084 83.2263 23.1005 81.9707 22.8215 81.1443C22.7517 80.9297 22.7839 80.8009 22.9181 80.6292C23.8786 79.3896 24.163 77.9355 24.222 76.4169C24.2435 75.8374 24.3025 75.3813 25.0537 75.3383C25.6655 75.3008 26.245 74.7373 26.8299 74.9359C27.8065 75.2632 28.1338 74.6515 28.6221 74.0612C30.5807 71.7217 33.1295 70.3855 36.1238 69.9455C39.4399 69.4572 42.4985 70.1011 45.1815 72.21C47.0811 73.7017 48.2455 75.6657 48.6372 78.016C49.2436 81.6434 48.5621 85.0347 46.3942 88.0557C44.704 90.4114 42.4341 91.6294 39.4185 91.4094V91.4041Z" fill="#FEFEFD"/>
<path d="M217.14 106.407C216.828 105.023 217.816 104.229 218.696 103.445C219.807 102.458 221.041 101.605 222.173 100.639C223.176 99.7804 223.938 98.7286 224.373 97.4623C224.55 96.9525 224.427 96.8291 223.879 96.8076C222.318 96.7486 220.89 97.2423 219.458 97.7574C218.315 98.1706 217.183 98.6321 215.927 98.5194C215.455 98.4764 214.822 98.4764 214.682 98.0525C214.537 97.6286 214.956 97.1457 215.272 96.7754C216.072 95.831 217.075 95.1442 218.181 94.6183C221.609 92.9924 225.162 91.726 228.907 91.0553C229.326 90.9802 229.739 90.8568 230.152 90.7441C230.882 90.5455 231.284 90.2182 231.327 89.306C231.435 87.2455 233.747 85.7322 235.754 86.2474C236.103 86.3386 236.189 86.4298 236.076 86.8108C235.717 88.0128 236.124 88.984 237.09 89.7514C238.341 90.7387 238.437 91.1787 237.514 92.5095C237.171 93.0031 237.359 93.3305 237.573 93.7597C239.231 97.1564 239.36 100.526 237.224 103.783C236.108 105.49 234.418 106.343 232.433 106.445C231.515 106.493 230.619 106 229.755 105.629C228.392 105.05 227.206 104.256 226.541 102.86C226.358 102.479 226.192 102.678 226.02 102.86C224.292 104.626 222.833 106.568 221.969 108.919C221.583 109.981 221.196 111.044 220.359 111.875C220.075 112.16 219.849 112.219 219.468 112.036C217.939 111.312 217.526 109.906 217.263 108.436C217.15 107.786 217.043 107.121 217.14 106.413V106.407ZM232.551 97.8057C232.535 97.5535 232.513 97.1886 232.492 96.8291C232.411 95.3642 231.81 95.1764 230.302 95.3856C229.063 95.5574 227.936 96.2227 226.648 96.2442C226.187 96.2496 226.503 96.5501 226.562 96.6735C227.26 98.133 228.108 99.5067 229.047 100.827C229.165 100.998 229.294 101.095 229.508 101.1C230.276 101.117 231.038 101.084 231.794 100.886C232.132 100.795 232.25 100.607 232.299 100.328C232.438 99.5282 232.583 98.734 232.551 97.8111V97.8057Z" fill="#FEFEFD"/>
<path d="M35.4315 110.099C33.1403 110.072 31.3266 109.573 29.5397 108.988C26.4167 107.963 23.2883 106.955 20.1814 105.876C18.7273 105.372 17.3589 104.663 16.2535 103.542C15.2286 102.501 15.1965 101.97 15.9692 100.703C17.1175 98.8198 18.9097 97.9183 20.9327 97.3602C23.5083 96.6519 26.1538 96.5446 28.7992 96.3997C29.1426 96.3836 29.4807 96.3622 29.8187 96.3246C29.969 96.3085 30.189 96.4427 30.2587 96.2119C30.3231 96.008 30.1944 95.8524 30.0495 95.7075C29.3948 95.0529 28.5953 94.6665 27.7206 94.425C26.2074 94.0119 24.6406 93.9528 23.1005 93.7328C21.7537 93.5397 20.3854 93.4109 19.2102 92.6221C18.0351 91.8386 17.9009 91.5489 19.2048 90.5508C20.1868 89.8049 21.3995 89.821 22.5908 89.9391C25.7835 90.261 28.7777 91.3664 31.8149 92.3162C34.0149 93.0031 36.1935 93.7489 38.1736 94.9724C39.5312 95.8095 40.5883 96.9149 41.2912 98.3529C41.4307 98.6427 41.4683 98.8466 41.2214 99.1471C40.0946 100.51 38.5385 100.988 36.9126 101.32C34.6696 101.782 32.3783 101.862 30.1246 102.227C29.1051 102.388 28.1177 102.651 27.1572 103.032C26.7548 103.193 26.7011 103.418 26.8675 103.778C27.3611 104.867 28.2733 105.398 29.3734 105.699C31.1334 106.177 32.9739 106.15 34.7554 106.493C35.555 106.649 36.3277 106.853 37.0252 107.314C37.5243 107.647 37.8248 108.098 38.0877 108.629C38.3828 109.219 38.1628 109.482 37.6262 109.659C36.7891 109.938 35.936 110.115 35.4369 110.094L35.4315 110.099Z" fill="#FEFEFD"/>
<path d="M46.0079 50.9983C48.6265 51.0895 51.0519 51.7603 53.3969 52.7047C56.053 53.7725 58.6126 55.0389 60.9092 56.7721C62.2185 57.7541 63.4098 58.8487 64.1288 60.3619C64.6815 61.5371 64.6278 62.6693 63.8981 63.7639C63.7371 64.0054 63.56 64.102 63.281 64.1396C62.079 64.3059 61.0648 63.8176 60.0668 63.2649C60.0507 63.2542 60.0346 63.2327 60.0185 63.222C58.4194 62.2185 58.3014 62.2668 57.856 64.0698C57.6038 65.1001 57.2174 66.0713 56.4555 66.8333C55.6398 67.6435 54.6096 67.9601 53.4827 67.9601C53.0695 67.9601 53.0159 68.0997 53.1232 68.4484C53.3486 69.1997 53.7939 69.8275 54.2286 70.4607C54.5935 70.9865 54.9262 71.5339 55.0925 72.1617C55.2481 72.7573 55.0764 73.2993 54.8027 73.8251C54.6364 74.1525 54.3788 74.0237 54.1374 73.97C52.6778 73.6481 51.4866 72.8432 50.4026 71.8612C48.2133 69.8758 46.6196 67.4235 45.1279 64.9069C43.9742 62.9644 42.9493 60.9522 42.2142 58.8058C41.7205 57.3677 41.3234 55.9082 41.479 54.3574C41.6293 52.8227 42.52 51.7495 44.001 51.3041C44.6825 51.1002 45.3801 51.0197 46.0186 50.9929L46.0079 50.9983ZM56.7023 61.6068C55.1945 61.1507 53.9335 60.4692 52.6081 59.9648C51.17 59.4175 49.6943 59.1438 48.1543 59.2726C47.8914 59.2941 47.5962 59.2726 47.6714 59.7234C48.2026 62.7981 50.1397 65.0035 52.2217 67.1177C52.3934 67.2894 52.5115 67.2626 52.5383 66.9943C52.71 65.4811 53.5417 64.3488 54.6471 63.383C55.291 62.8249 55.935 62.2668 56.6969 61.6122L56.7023 61.6068Z" fill="#FEFEFD"/>
<path d="M30.3822 113.963C32.0832 113.936 33.7627 114.07 35.292 114.912C36.0486 115.331 36.6067 115.943 36.6818 116.849C36.7891 118.068 36.1613 118.889 34.852 119.227C33.8593 119.479 32.8559 119.667 31.8524 119.887C31.7076 119.919 31.568 119.978 31.4285 120.026C30.9295 120.187 30.951 120.418 31.3319 120.713C32.9525 121.985 32.9632 124.077 32.3193 125.596C31.9973 126.347 31.568 127.034 30.9778 127.608C30.5807 127.995 30.7256 128.15 31.1817 128.268C32.0885 128.499 33.0061 128.724 33.8969 129.014C34.5462 129.223 35.1686 129.508 35.5872 130.103C36.1345 130.876 36.1023 131.273 35.3511 131.863C34.4388 132.577 33.3817 132.695 32.271 132.583C30.9671 132.448 29.7061 132.142 28.4611 131.756C24.4098 130.495 20.3532 129.223 16.5809 127.227C14.9979 126.39 13.5867 125.328 12.7979 123.637C12.3686 122.714 12.2881 121.759 12.6101 120.783C12.8569 120.037 13.5115 119.656 14.1018 119.259C16.8921 117.359 19.9775 116.066 23.1971 115.1C25.5367 114.397 27.9192 113.909 30.3822 113.968V113.963ZM30.2427 120.665C29.6792 120.751 29.1319 120.831 28.5899 120.917C26.9962 121.174 25.3811 121.373 23.8947 122.065C22.9127 122.521 22.1347 123.181 21.7644 124.244C21.6249 124.635 21.7 124.898 22.0595 125.151C23.3098 126.015 24.6996 126.519 26.1591 126.836C27.3772 127.098 28.606 127.324 29.8885 127.351C28.7241 124.872 28.9119 123.095 30.2427 120.665Z" fill="#FEFEFD"/>
<path d="M110.244 28.5898C110.282 26.7117 109.777 24.9034 109.509 23.0682C109.407 22.3921 109.326 21.716 109.321 21.0238C109.316 20.6052 109.487 20.5677 109.82 20.6321C111.451 20.9486 112.627 21.8984 113.469 23.2936C114.649 25.2361 115.111 27.3878 115.304 29.6201C115.492 31.7879 115.224 33.9021 114.365 35.8929C112.83 39.4613 109.444 41.3286 105.763 40.8725C101.696 40.3681 99.1472 37.9266 97.6393 34.3046C96.0671 30.5215 95.9061 26.6366 97.2905 22.7409C98.4711 19.4247 100.773 17.4661 104.304 16.9939C105.205 16.8759 106.075 16.7954 106.944 17.1656C108.044 17.6378 108.13 19.1457 107.631 19.913C107.384 20.294 106.922 20.2779 106.515 20.2564C106.091 20.235 105.667 20.1759 105.243 20.1276C103.644 19.9613 102.533 20.6428 101.868 22.0809C100.483 25.0536 100.371 28.0317 102.002 30.9401C103.435 33.4836 107.379 33.9665 109.38 31.906C110.003 31.2674 110.158 30.4518 110.239 29.6147C110.271 29.2766 110.244 28.9279 110.244 28.5844V28.5898Z" fill="#FEFEFD"/>
<path d="M230.995 131.348C227.373 131.203 224.062 130.238 221.4 127.63C219.045 125.322 218.513 122.559 219.479 119.441C220.343 116.662 222.28 114.934 224.904 113.957C229.707 112.176 234.482 112.283 239.162 114.467C241.796 115.701 243.111 117.858 243.497 120.675C243.642 121.749 243.728 122.8 243.25 123.815C242.8 124.759 241.979 125.108 241.002 125.129C240.294 125.145 239.575 124.008 239.709 123.144C239.843 122.264 240.122 121.4 239.8 120.493C239.113 118.534 237.632 117.504 235.711 117.102C233.372 116.608 231.123 116.892 229.047 118.18C226.342 119.86 226.197 123.847 228.811 125.553C229.943 126.294 231.247 126.245 232.529 126.235C234.295 126.224 236.065 125.918 237.831 126.304C239.183 126.605 239.247 126.691 238.561 127.855C237.541 129.588 235.904 130.458 234.037 130.951C233.044 131.214 232.03 131.381 230.984 131.338L230.995 131.348Z" fill="#FEFEFD"/>
<path d="M94.2641 234.536C94.3446 232.653 94.7739 230.887 95.2622 229.138C96.0832 226.203 96.609 223.182 97.6554 220.305C98.0418 219.243 98.471 218.202 99.1257 217.279C100.446 215.417 101.932 215.277 103.622 216.834C104.835 217.95 105.415 219.415 105.865 220.944C106.67 223.681 106.858 226.525 107.255 229.336C107.271 229.465 107.169 229.658 107.384 229.712C107.556 229.755 107.652 229.61 107.76 229.513C108.747 228.628 108.908 227.399 109.08 226.197C109.326 224.443 109.23 222.656 109.6 220.912C109.842 219.79 110.196 218.722 111.328 218.138C111.655 217.966 111.848 217.944 112.095 218.315C112.863 219.452 113.088 220.708 113.002 222.033C112.825 224.7 111.929 227.206 111.204 229.744C110.641 231.713 110.282 233.742 109.589 235.679C109.128 236.967 108.618 238.233 107.577 239.199C106.327 240.358 104.433 240.09 103.563 238.625C102.871 237.46 102.694 236.151 102.517 234.847C102.265 232.964 102.233 231.053 101.744 229.208C101.514 228.333 101.181 227.501 100.526 226.847C100.027 226.353 99.8233 226.385 99.4208 226.943C98.6105 228.075 98.5086 229.401 98.3691 230.721C98.2027 232.245 98.2027 233.795 97.7573 235.282C97.4354 236.355 96.8559 237.208 95.7183 237.578C95.3427 237.702 95.1066 237.648 94.908 237.273C94.4412 236.398 94.307 235.459 94.2641 234.541V234.536Z" fill="#FEFEFD"/>
<path d="M191.168 205.506C191.141 206.81 190.782 208.093 190.047 209.257C189.677 209.842 189.693 209.879 190.363 210.089C192.767 210.824 195.257 211.076 197.726 211.457C198.359 211.554 198.987 211.661 199.62 211.752C199.942 211.795 200.033 211.945 200.006 212.267C199.861 214.038 198.809 215.181 197.414 216.088C195.595 217.268 193.851 216.898 192.129 215.825C191.066 215.165 190.079 214.376 188.872 213.963C188.099 213.695 187.101 213.448 186.623 214.011C186.189 214.521 186.591 215.471 186.913 216.184C187.273 216.979 187.895 217.574 188.453 218.218C189.151 219.028 189.66 219.914 189.725 221.014C189.752 221.448 189.703 221.663 189.167 221.631C187.246 221.524 185.845 220.531 184.681 219.114C183.162 217.263 182.18 215.063 180.828 213.104C179.39 211.017 177.582 209.557 174.942 209.37C174.453 209.332 173.976 209.203 173.514 209.015C172.618 208.651 171.915 207.61 171.915 206.66C171.915 206.477 171.963 206.359 172.141 206.349C173.718 206.236 174.416 205.093 175.065 203.88C175.602 202.877 175.666 202.845 176.809 203.081C177.378 203.199 177.839 203.091 178.349 202.753C179.589 201.943 180.576 200.838 181.794 200.011C185.25 197.656 189.741 199.555 190.868 203.499C191.05 204.138 191.141 204.792 191.163 205.511L191.168 205.506ZM184.992 212.053C185.255 211.21 185.802 210.523 186.248 209.777C187.004 208.516 187.911 207.304 186.677 205.715C186.253 205.168 185.931 204.894 185.309 204.916C184.863 204.932 184.407 204.943 183.967 205.018C182.61 205.259 181.826 206.145 181.826 207.395C181.826 209.117 183.361 211.382 184.992 212.053Z" fill="#FEFEFD"/>
<path d="M196.234 57.8183C193.299 57.6787 190.916 56.5626 189.44 53.9011C189.167 53.4074 188.92 53.6113 188.636 53.8313C187.793 54.486 187.079 55.2909 186.189 55.8919C185.818 56.1387 185.421 56.3265 185.019 56.509C184.515 56.7397 184.273 56.6431 184.128 56.069C183.865 55.0119 184.123 54.0835 184.654 53.1928C185.26 52.184 186.081 51.3362 186.838 50.4454C188.083 48.9805 188.99 47.2795 190.047 45.6858C190.728 44.6609 191.388 43.6145 192.204 42.6862C192.408 42.4501 192.376 42.2462 192.301 41.9833C191.619 39.6544 192.199 37.5617 193.685 35.7587C194.468 34.8036 195.418 34.6426 195.982 36.0592C196.357 37.009 196.808 37.3954 197.801 37.2451C198.144 37.1915 198.525 37.288 198.874 37.3739C199.689 37.5832 200.274 38.0178 200.43 38.93C200.51 39.4022 200.645 39.8905 200.5 40.3252C200.167 41.2911 200.65 41.9135 201.208 42.595C202.33 43.9633 203.317 45.4229 203.982 47.0917C205.71 51.4435 203.312 56.2138 198.761 57.4319C197.935 57.6519 197.098 57.8075 196.228 57.8129L196.234 57.8183ZM197.339 49.6566C197.355 48.4707 196.862 47.4834 195.901 46.7161C195.665 46.5282 195.509 46.5551 195.338 46.8019C194.769 47.6175 194.002 48.24 193.277 48.9C192.687 49.4366 192.209 50.0537 191.769 50.7137C191.335 51.3684 191.404 51.9318 191.839 52.565C192.961 54.1909 194.527 54.3572 195.923 52.9567C196.819 52.0552 197.269 50.9605 197.339 49.6512V49.6566Z" fill="#FEFEFD"/>
<path d="M167.805 40.9102C167.74 38.7262 168.685 36.7193 169.774 34.7661C170.692 33.1241 171.781 31.6056 173.047 30.2158C174.169 28.9816 175.623 28.3592 177.211 27.9782C179.438 27.4469 181.649 27.3772 183.828 28.2035C185.448 28.8153 186.457 29.9475 186.8 31.6592C186.902 32.1583 186.8 32.4534 186.258 32.609C185.496 32.8344 184.783 32.7485 184.08 32.4373C183.361 32.1207 182.674 31.7183 181.939 31.4607C179.481 30.6129 177.265 31.1119 175.779 33.5051C174.711 35.2169 173.992 37.0574 173.96 39.1018C173.922 41.436 175.135 42.8312 177.469 42.9814C180.141 43.1585 182.325 42.2463 183.431 39.5419C183.903 38.3828 184.327 37.1808 185.04 36.1291C185.255 35.8125 185.496 35.5066 185.754 35.2276C186.285 34.6642 186.317 34.6803 186.865 35.2705C187.927 36.4081 188.083 37.7711 187.798 39.2145C187.289 41.8063 185.936 43.9795 184.337 46.024C182.824 47.9611 180.941 49.324 178.515 49.8338C175.5 50.467 172.876 49.6621 170.595 47.6123C168.658 45.8737 167.735 43.1746 167.805 40.9048V40.9102Z" fill="#FEFEFD"/>
<path d="M218.519 141.206C218.519 138.657 219.334 136.409 221.003 134.471C221.143 134.31 221.293 134.176 221.524 134.123C222.151 133.972 222.785 133.876 223.429 133.935C224.131 133.999 224.502 134.525 224.373 135.212C224.319 135.518 224.201 135.775 224.013 136.022C223.59 136.569 223.005 137.047 223.15 137.857C223.332 138.893 223.552 139.918 224.26 140.75C224.851 141.436 225.602 141.533 226.423 141.292C228.011 140.83 229.283 139.794 230.651 138.941C232.041 138.072 233.431 137.197 235.03 136.741C236.683 136.269 238.292 136.333 239.773 137.278C240.675 137.852 241.185 138.764 241.571 139.719C242.413 141.785 242.827 143.916 242.349 146.158C241.888 148.342 240.498 149.421 238.298 149.255C237.595 149.201 237.38 148.911 237.498 148.198C237.627 147.441 237.944 146.722 237.997 145.949C238.003 145.842 238.04 145.74 238.045 145.633C238.115 144.178 237.74 143.873 236.323 144.146C234.547 144.49 233.157 145.488 231.896 146.7C230.834 147.72 229.814 148.788 228.387 149.324C225.071 150.569 221.448 149.233 219.769 146.132C218.905 144.533 218.519 143.035 218.513 141.222L218.519 141.206Z" fill="#FEFEFD"/>
<path d="M158.495 218.867C158.516 215.428 159.316 213.137 161.317 211.36C162.723 210.116 164.376 209.617 166.233 209.912C166.973 210.03 167.596 210.395 167.826 211.205C168.095 212.133 167.671 212.831 166.726 212.97C166.302 213.035 165.868 213.137 165.455 213.088C164.231 212.949 163.619 213.614 163.319 214.655C162.31 218.138 162.884 221.288 165.395 223.997C165.852 224.486 166.404 224.722 167.097 224.732C168.722 224.749 170.22 224.325 171.625 223.536C171.974 223.337 172.033 223.015 172.13 222.688C172.731 220.628 172.216 218.728 171.309 216.877C170.885 216.013 170.407 215.176 170.075 214.274C169.865 213.705 169.774 213.131 169.849 212.52C169.892 212.198 170.016 212.122 170.343 212.165C171.695 212.332 172.811 212.992 173.777 213.877C176.251 216.147 177.598 218.969 177.743 222.334C177.866 225.162 177.115 227.705 175.081 229.75C172.42 232.417 167.606 232.647 164.58 230.388C160.91 227.646 158.414 222.232 158.495 218.873V218.867Z" fill="#FEFEFD"/>
<path d="M118.991 34.6749C120.273 34.2778 121.561 34.3368 122.838 34.2724C123.654 34.2295 124.458 34.1812 125.231 33.8807C126.036 33.5641 126.471 32.9846 126.449 32.1314C126.417 30.8758 126.058 29.7275 125.145 28.8152C124.056 27.7259 122.908 26.6957 121.845 25.5796C120.74 24.4151 119.763 23.1488 119.5 21.4853C119.227 19.7575 119.892 18.314 120.847 16.9618C121.867 15.5183 123.391 14.9549 125.049 14.7027C126.353 14.5042 127.673 14.4398 128.998 14.4988C129.293 14.5149 129.497 14.6115 129.739 14.7778C130.275 15.1588 130.865 15.4647 131.429 15.7974C132.062 16.173 132.524 16.6774 132.615 17.4447C132.711 18.2443 132.411 18.6413 131.595 18.7057C131.043 18.7487 130.49 18.6789 129.937 18.5984C129.277 18.4965 128.617 18.4696 127.962 18.6574C127.608 18.7594 127.437 18.9365 127.474 19.3389C127.63 21.2814 128.402 22.8966 129.926 24.1415C130.817 24.8712 131.713 25.601 132.577 26.363C135.078 28.5684 135.169 32.0134 133.226 34.6159C131.257 37.2506 128.521 38.6403 125.258 38.7101C122.387 38.7745 120.225 37.4437 118.985 34.6695L118.991 34.6749Z" fill="#FEFEFD"/>
<path d="M74.689 224.362C74.8124 220.649 76.1217 217.37 78.3862 214.462C79.8726 212.552 81.6863 211.055 84.0473 210.352C86.1078 209.74 88.1308 209.853 89.9445 211.092C91.0874 211.87 91.6831 213.056 91.8602 214.441C91.9031 214.773 91.7958 214.945 91.4845 215.063C90.6689 215.369 89.8908 215.229 89.2416 214.73C88.1362 213.883 86.9878 213.389 85.5605 213.689C83.9453 214.033 82.7916 215.004 81.9224 216.319C80.7633 218.073 80.2804 220.032 80.5004 222.125C80.774 224.727 82.6736 225.977 85.3512 225.446C86.741 225.167 87.6479 224.368 88.1845 223.123C88.6996 221.931 89.1074 220.692 89.6011 219.49C89.9338 218.68 90.3309 217.902 90.9909 217.285C91.2484 217.043 91.4201 217.032 91.6992 217.242C92.767 218.041 93.2714 219.125 93.3626 220.424C93.4914 222.307 92.869 224.013 91.9514 225.607C90.4543 228.194 88.4259 230.238 85.6839 231.537C82.5609 233.018 78.6867 232.234 76.5886 229.927C75.5583 228.789 74.6407 226.798 74.6944 224.357L74.689 224.362Z" fill="#FEFEFD"/>
<path d="M122.967 233.758C123.101 231.735 123.128 229.717 124.018 227.85C124.094 227.694 124.185 227.55 124.276 227.41C124.77 226.675 124.732 226.605 123.825 226.439C122.859 226.262 121.899 226.439 120.949 226.514C119.973 226.594 119.307 226.138 118.712 225.511C117.703 224.448 117.032 223.198 116.844 221.733C116.715 220.708 116.984 219.747 117.493 218.851C117.611 218.637 117.73 218.615 117.955 218.68C120.069 219.265 122.221 219.184 124.389 219.071C126.685 218.953 128.998 218.685 131.295 219.216C131.982 219.377 132.465 219.667 132.856 220.263C133.736 221.62 134.702 222.924 135.019 224.571C135.19 225.462 135.008 226.256 134.552 227.013C134.375 227.303 134.192 227.383 133.844 227.26C132.287 226.702 130.694 226.294 129.02 226.364C128.912 226.364 128.805 226.364 128.698 226.369C127.85 226.401 127.861 226.396 128.182 227.142C128.639 228.194 128.773 229.32 128.848 230.447C129.046 233.254 128.993 236.044 128.177 238.77C127.979 239.446 127.7 240.079 127.281 240.659C126.428 241.839 125.14 241.812 124.394 240.557C123.552 239.145 123.299 237.568 123.133 235.974C123.058 235.228 123.026 234.482 122.977 233.753L122.967 233.758Z" fill="#FEFEFD"/>
<path d="M147.43 227.973C147.8 227.952 147.94 227.684 148.133 227.501C149.126 226.546 150.548 226.305 151.793 226.884C153.553 227.711 153.676 229.315 152.088 230.474C151.482 230.914 150.87 231.021 150.172 230.764C149.491 230.517 148.793 230.324 148.117 230.061C147.72 229.911 147.682 230.072 147.699 230.394C147.758 231.832 148.16 233.211 148.401 234.622C148.589 235.733 148.874 236.833 148.616 237.981C148.471 238.625 148.262 239.258 147.699 239.618C146.947 240.095 146.545 239.328 146.126 238.968C144.796 237.831 144.162 236.264 143.696 234.622C143.089 232.481 142.783 230.275 142.306 228.108C141.839 225.977 140.841 224.18 139.263 222.683C138.732 222.178 138.319 221.588 138.05 220.912C137.895 220.52 137.771 220.128 137.863 219.672C138.067 218.669 138.045 218.604 139.032 218.685C140.192 218.782 140.707 218.025 141.243 217.236C141.919 216.238 142.875 216.002 143.83 216.635C144.13 216.834 144.404 217.097 144.618 217.386C145.032 217.95 145.558 217.944 146.158 217.837C147.639 217.569 148.874 216.753 150.167 216.077C151.084 215.594 152.018 215.235 153.081 215.251C153.617 215.261 153.934 215.471 154.17 215.943C155.318 218.207 154.728 220.15 152.92 221.722C151.514 222.946 149.834 223.6 147.988 223.815C147.564 223.863 147.414 224.003 147.43 224.443C147.462 225.612 147.441 226.788 147.441 227.973H147.43Z" fill="#FEFEFD"/>
<path d="M200.532 192.252C201.197 192.075 201.857 192.397 202.517 192.853C203.022 193.202 203.596 193.459 204.149 193.738C206.252 194.817 207.513 196.7 208.769 198.579C209.504 199.684 210.073 200.87 210.448 202.152C210.598 202.662 210.459 202.764 209.965 202.737C207.948 202.625 206.225 201.782 204.637 200.618C203.333 199.662 202.109 198.584 200.747 197.72C199.663 197.033 198.836 196.196 198.289 195.058C198.101 194.667 197.876 194.796 197.629 194.978C196.824 195.568 196.03 196.18 195.203 196.743C193.835 197.666 192.333 198.101 190.701 197.602C189.108 197.114 188.136 195.896 187.396 194.49C187.117 193.964 187.428 193.234 187.965 193.121C189.709 192.746 190.696 191.485 191.63 190.127C192.628 188.673 193.492 187.128 194.538 185.706C195.203 184.804 196.051 184.294 197.119 184.09C199.4 183.656 201.589 183.903 203.65 184.992C204.411 185.394 205.012 185.968 205.125 186.881C205.238 187.761 204.744 188.313 204.02 188.716C203.059 189.252 201.981 189.478 200.993 189.95C200.242 190.304 199.571 190.744 199.212 191.522C198.917 192.161 198.981 192.247 199.668 192.247C199.904 192.247 200.14 192.247 200.532 192.247V192.252Z" fill="#FEFEFD"/>
<path d="M86.1186 47.7731C84.879 47.7517 83.8702 47.419 83.0814 46.5175C82.8292 46.2331 82.7058 45.938 82.7595 45.5838C83.1136 43.4267 82.0512 41.7418 80.9243 40.0837C79.5452 38.0607 77.8711 36.2524 76.6369 34.1275C75.6442 32.4157 74.9144 30.6396 75.333 28.5898C75.5637 27.4736 76.7335 26.2126 77.8013 26.0624C79.0999 25.8799 80.1999 26.3146 81.0102 27.3771C82.0082 28.6864 82.3517 30.264 82.8292 31.7879C83.7575 34.7606 84.5088 37.7924 85.8878 40.6096C85.9147 40.6686 85.9308 40.733 85.9683 40.7813C86.3171 41.2105 86.3278 41.9993 86.961 42.0852C88.0074 42.2247 89.0591 42.1603 89.9177 41.3662C90.626 40.7115 91.0499 39.8798 91.5114 39.0642C91.9138 38.3558 92.4021 37.7441 93.2661 37.6207C94.1514 37.4919 95.0154 38.0607 95.4285 39.0105C96.0403 40.4271 95.9329 41.7954 94.908 42.9652C92.7241 45.4604 90.0518 47.1507 86.7303 47.7087C86.4996 47.7463 86.2635 47.757 86.1186 47.7731Z" fill="#FEFEFD"/>
<path d="M204.98 74.732C202.115 74.8179 200.162 73.1598 198.724 70.7558C197.709 69.0655 197.082 67.2357 197.157 65.2181C197.173 64.8425 197.28 64.5957 197.575 64.3006C198.294 63.5869 199.008 63.12 200.103 63.1952C200.677 63.2327 201.144 62.6639 201.589 62.2722C203.156 60.8932 204.369 59.2082 205.673 57.5984C206.966 56.0048 208.259 54.4003 210.035 53.311C211.629 52.3344 213.271 51.8998 215.015 53.0159C216.394 53.9013 216.721 55.1677 215.895 56.5735C215.095 57.9311 213.834 58.8004 212.546 59.5785C209.209 61.5961 206.096 63.9357 202.877 66.1143C202.528 66.3504 202.517 66.6509 202.582 67.0104C202.786 68.1319 203.564 68.7597 204.492 69.2748C205.501 69.8329 206.628 70.1548 207.588 70.8095C208.017 71.0993 208.404 71.4373 208.597 71.9363C208.951 72.8325 208.624 73.7178 207.781 74.174C206.95 74.6247 206.048 74.7481 204.975 74.7374L204.98 74.732Z" fill="#FEFEFD"/>
<path d="M147.94 34.0148C148.053 30.865 149.233 28.1552 151.283 25.7888C151.632 25.3863 151.97 24.9731 152.404 24.6565C152.549 24.5546 152.667 24.4687 152.855 24.458C153.816 24.3829 153.966 24.4902 154.052 25.4561C154.143 26.4971 153.853 27.4898 153.612 28.4825C153.376 29.4698 153.236 30.4733 153.413 31.4713C153.789 33.6553 155.093 34.9002 157.32 35.147C158.994 35.3348 160.684 35.3992 162.364 35.5441C162.873 35.587 163.367 35.7319 163.877 35.8124C164.312 35.8822 164.392 36.129 164.312 36.5261C163.813 39.0159 162.267 40.6257 159.938 41.4359C156.67 42.5682 153.526 42.1872 150.714 40.1374C148.686 38.6564 147.919 36.4885 147.945 34.0094L147.94 34.0148Z" fill="#FEFEFD"/>
<path d="M219.833 74.1094C218.69 75.1128 217.698 76.2289 216.962 77.5382C215.449 80.2534 215.197 82.9847 216.984 85.6999C217.381 86.3009 217.928 86.7409 218.545 87.095C219.109 87.4224 219.597 87.8302 220.026 88.3131C220.633 89.0053 220.579 89.5687 219.871 90.159C219.329 90.6097 218.69 90.8405 217.998 90.8941C216.276 91.0337 214.58 90.7868 212.906 90.4273C211.827 90.1966 211.124 89.3058 210.502 88.4902C208.098 85.3618 207.647 81.9491 209.568 78.4451C211.135 75.585 213.641 73.8572 216.871 73.2508C217.95 73.0469 218.937 73.3367 219.833 74.104V74.1094Z" fill="#FEFEFD"/>
<path d="M226.772 73.4012C228.972 73.3368 231.515 74.9842 232.304 77.5116C232.679 78.7189 233.044 79.9209 232.851 81.2087C232.653 82.5288 231.955 83.2102 230.694 83.3498C229.412 83.4893 228.344 82.8668 227.882 81.7024C227.421 80.538 227.174 79.2931 226.407 78.2521C226.181 77.9462 225.983 77.8711 225.661 77.9784C225.419 78.0589 225.172 78.134 224.931 78.2199C223.391 78.7833 222.962 79.878 223.659 81.4448C223.938 82.0673 224.389 82.6039 224.571 83.2746C224.711 83.7951 224.915 84.321 224.19 84.5893C224.153 84.6054 224.115 84.643 224.099 84.6805C223.756 85.5283 223.133 85.2654 222.516 85.0883C219.941 84.3425 219.114 81.8902 219.431 79.7331C219.925 76.4223 223.418 73.4066 226.755 73.4012H226.772Z" fill="#FEFEFD"/>
<path d="M166.662 23.7445C166.635 25.8748 165.514 27.3343 163.324 26.8729C162.31 26.6582 161.425 26.127 160.652 25.4294C160.078 24.9089 159.547 24.3562 159.192 23.6586C159.053 23.385 158.865 23.3099 158.581 23.3045C157.931 23.2938 157.309 23.444 156.687 23.5943C156.112 23.7391 155.431 23.8465 155.045 23.4118C154.669 22.9879 155.071 22.3976 155.275 21.9308C156.096 20.0742 157.685 19.2478 159.584 19.0976C161.843 18.9151 163.898 19.5376 165.546 21.2064C166.233 21.904 166.603 22.7357 166.667 23.7445H166.662Z" fill="#FEFEFD"/>
<path d="M125.124 49.1953C146.486 48.546 166.19 55.5916 182.443 71.2226C199.249 87.385 207.427 107.411 206.735 130.726C206.172 149.684 199.394 166.437 186.629 180.49C170.22 198.557 149.603 207.465 125.215 206.73C105.082 206.123 87.5835 198.53 73.1812 184.429C56.8525 168.443 48.7499 148.809 49.2704 125.972C49.7372 105.495 57.3838 87.7284 71.6895 73.0685C85.979 58.4248 103.542 50.628 125.129 49.1953H125.124Z" fill="#14401D"/>
<path d="M130.12 102.313C130.093 99.5764 129.91 96.9363 128.998 94.4089C128.064 91.8225 126.224 89.9766 124.024 88.4473C121.239 86.5048 118.062 85.4692 114.832 84.5624C112.889 84.0204 110.861 83.7736 108.978 83.017C107.599 82.4589 106.354 81.7399 105.957 80.1354C105.479 78.1929 107.03 75.6334 108.801 75.51C109.976 75.4241 111.156 75.3973 112.331 75.3705C116.511 75.2953 120.686 75.0914 124.861 74.8875C127.984 74.7319 131.112 74.6192 134.235 74.4636C137.981 74.2758 141.721 74.0558 145.466 73.8626C148.058 73.7285 150.65 73.6265 153.236 73.5138C155.849 73.4011 158.463 73.3367 161.071 73.165C163.077 73.0309 165.068 72.7304 167.075 72.6016C168.814 72.4943 170.541 72.5426 172.232 73.0041C174.732 73.6855 175.156 75.0861 175.038 77.4149C174.92 79.6954 173.235 80.6023 171.341 81.2247C169.001 81.9921 166.587 82.534 164.328 83.5589C160.775 85.1741 157.695 87.358 155.597 90.7386C154.143 93.0835 153.435 95.6592 153.349 98.3905C153.242 101.841 153.156 105.297 153.209 108.747C153.209 108.961 153.258 109.171 153.263 109.385C153.268 109.713 153.419 109.82 153.746 109.804C156.746 109.686 159.74 109.589 162.739 109.482C165.159 109.396 167.579 109.3 170 109.224C171.1 109.187 171.679 109.868 171.507 110.979C171.153 113.297 170.794 115.621 170.429 117.939C170.268 118.953 169.844 119.307 168.787 119.334C164.478 119.441 160.174 119.543 155.866 119.65C155.286 119.667 154.706 119.731 154.132 119.699C153.596 119.672 153.403 119.854 153.456 120.386C153.644 122.269 153.558 124.158 153.633 126.041C153.714 127.989 153.789 129.937 153.826 131.89C153.907 135.942 154.213 139.982 154.315 144.028C154.411 147.779 154.454 151.53 154.138 155.281C153.869 158.441 153.413 161.548 152.394 164.564C151.031 168.599 148.965 172.232 146.18 175.451C140.98 181.461 134.445 185.287 126.76 187.187C123.053 188.104 119.264 188.448 115.481 188.067C102.973 186.806 93.6792 180.688 87.9591 169.398C85.8181 165.181 84.5946 160.673 83.9722 155.994C83.5483 152.801 83.4463 149.593 83.2907 146.389C83.1083 142.772 83.0385 139.15 82.9258 135.528C82.8024 131.52 82.8614 127.506 82.7541 123.498C82.679 120.536 82.6575 117.574 82.7165 114.617C82.797 110.544 83.9293 106.772 86.081 103.284C88.3776 99.5603 91.0982 96.2548 94.79 93.8294C98.0471 91.6884 101.616 90.4757 105.5 90.1698C112.305 89.6278 118.438 91.3879 123.874 95.5197C126.159 97.2583 128.064 99.3617 129.626 101.776C129.739 101.948 129.803 102.157 130.103 102.313H130.12ZM141.994 110.126C144.833 110.169 147.403 110.024 149.974 109.933C150.451 109.917 150.591 109.777 150.575 109.3C150.51 106.922 150.467 104.54 150.435 102.163C150.403 99.6783 150.36 97.1885 150.966 94.7524C151.97 90.7064 153.918 87.2024 157.127 84.4872C160.137 81.9384 163.732 80.5432 167.467 79.4915C169.039 79.0515 170.397 78.3378 171.497 77.1412C171.754 76.8622 172.076 76.5349 171.894 76.127C171.706 75.6978 171.25 75.6763 170.842 75.6817C169.168 75.6978 167.499 75.7192 165.825 75.7461C160.979 75.8319 156.139 76.0036 151.299 76.1968C148.922 76.2934 146.55 76.4168 144.173 76.5349C141.667 76.6583 139.167 76.7817 136.661 76.9105C134.01 77.05 131.359 77.2163 128.703 77.3505C125.838 77.4954 122.967 77.6134 120.101 77.7583C116.549 77.9408 113.002 78.1715 109.444 78.252C109.08 78.2627 108.554 78.0964 108.42 78.531C108.28 78.9764 108.795 79.1964 109.085 79.454C110.292 80.5218 111.784 80.9242 113.308 81.2891C116.431 82.0457 119.527 82.9096 122.419 84.3692C126.251 86.3063 129.234 89.0537 130.882 93.0996C132.137 96.1904 132.518 99.4476 132.711 102.737C132.846 105.023 132.937 107.314 132.98 109.605C132.996 110.319 133.275 110.437 133.897 110.389C136.677 110.158 139.467 110.19 141.984 110.121L141.994 110.126ZM119.334 185.373C121.733 185.394 124.083 185.115 126.406 184.573C131.939 183.291 136.881 180.855 141.077 177.002C145.085 173.326 147.629 168.738 149.201 163.576C149.555 162.412 149.561 162.407 148.348 162.401C143.073 162.38 137.793 162.369 132.518 162.331C132.051 162.331 131.799 162.471 131.558 162.868C130.071 165.331 128.22 167.472 125.875 169.162C123.536 170.853 120.928 171.861 118.062 172.103C116.184 172.259 114.301 172.098 112.439 171.743C108.006 170.901 104.191 169.017 101.514 165.234C101.326 164.972 101.122 164.907 100.821 164.907C96.9578 164.918 93.0997 164.918 89.2362 164.907C88.764 164.907 88.646 164.993 88.8445 165.465C90.1806 168.642 91.946 171.561 94.2695 174.104C100.993 181.472 109.402 185.142 119.334 185.373ZM93.7275 162.149C95.5734 162.149 97.4193 162.128 99.2652 162.16C99.8286 162.17 99.8662 161.983 99.6945 161.537C99.4316 160.861 99.2974 160.153 99.1418 159.445C98.9003 158.334 98.8091 158.286 97.6286 158.43C97.4783 158.446 97.3281 158.473 97.1832 158.473C94.6719 158.457 92.429 157.701 91.1626 155.039C90.6314 153.923 90.4865 152.71 90.3255 151.508C89.9177 148.45 89.703 145.375 89.5957 142.295C89.4508 137.986 89.5367 133.672 89.5474 129.358C89.5474 128.977 89.6977 128.585 89.6494 128.215C89.365 126.025 89.9123 124.067 91.286 122.36C92.4075 120.965 93.9475 120.182 95.6325 119.667C95.949 119.57 96.1369 119.457 96.1047 119.06C95.8364 116.104 96.2388 113.222 97.2637 110.442C98.6589 106.649 101.02 103.692 104.846 102.131C108.811 100.51 112.83 100.607 116.758 102.227C121.126 104.03 123.852 107.234 124.512 112.02C124.566 112.423 124.711 112.46 125.054 112.278C126.471 111.548 128.005 111.199 129.562 110.92C130.323 110.781 130.356 110.77 130.189 110.04C128.934 104.604 125.902 100.376 121.384 97.1831C117.81 94.6558 113.834 93.1909 109.466 92.783C106.729 92.5308 104.046 92.7186 101.417 93.5343C97.8379 94.6504 94.8705 96.7002 92.3377 99.4261C87.2293 104.926 84.8146 111.387 85.3298 118.915C85.4908 121.287 85.5927 123.664 85.6088 126.041C85.641 131.101 85.6839 136.162 85.8395 141.222C85.8986 143.255 85.9147 145.294 86.0381 147.328C86.2044 150.038 86.3708 152.753 86.6444 155.458C86.8537 157.524 87.0898 159.573 87.6103 161.586C87.723 162.015 87.8947 162.16 88.3455 162.154C90.1484 162.128 91.9514 162.144 93.7544 162.144L93.7275 162.149ZM141.764 159.563C141.764 159.563 141.764 159.606 141.764 159.627C144.404 159.627 147.044 159.616 149.679 159.638C150.081 159.638 150.258 159.52 150.312 159.123C150.419 158.345 150.585 157.572 150.698 156.788C151.042 154.438 151.24 152.072 151.369 149.7C151.551 146.266 151.519 142.837 151.439 139.408C151.326 134.847 151.058 130.291 150.881 125.736C150.811 123.959 150.795 122.178 150.784 120.396C150.784 119.913 150.639 119.801 150.145 119.822C148.176 119.892 146.201 119.887 144.232 119.967C140.911 120.107 137.584 119.876 134.262 119.844C133.629 119.838 133.468 120.026 133.506 120.643C133.656 123.187 133.79 125.736 133.876 128.284C134.037 133.103 134.139 137.927 134.557 142.735C134.691 144.291 134.842 145.847 134.949 147.409C135.217 151.363 135.212 155.275 133.532 158.988C133.345 159.402 133.382 159.579 133.913 159.579C136.532 159.557 139.151 159.568 141.769 159.568L141.764 159.563ZM111.999 162.31C113.496 162.321 114.939 162.063 116.34 161.575C121.679 159.724 124.292 154.69 122.763 149.238C122.704 149.035 122.639 148.9 122.441 148.809C120.772 148.069 119.806 146.695 119.119 145.08C117.697 141.726 117.461 138.136 117.102 134.579C117.016 133.725 117.075 133.725 116.243 133.715C115.964 133.715 115.68 133.725 115.411 133.672C114.945 133.575 114.751 133.715 114.741 134.214C114.719 135.459 114.564 136.687 114.172 137.873C113.668 139.403 112.873 140.733 111.108 140.959C109.123 141.211 107.491 140.546 106.44 138.737C105.731 137.519 105.409 136.178 105.238 134.793C105.211 134.563 105.28 134.23 105.05 134.16C104.765 134.074 104.631 134.402 104.497 134.611C104.116 135.206 104.009 135.872 104.009 136.569C103.993 141.56 104.197 146.555 103.617 151.53C103.402 153.381 103.011 155.195 101.857 156.74C101.599 157.084 101.637 157.368 101.921 157.701C104.561 160.818 107.985 162.213 111.999 162.321V162.31ZM119.844 132.142C119.806 134.954 119.989 137.755 120.649 140.492C121.191 142.756 122.264 144.774 124.115 146.266C125.65 147.505 127.42 147.409 128.875 146.089C129.755 145.289 130.399 144.318 131.021 143.309C131.558 142.44 131.735 141.544 131.622 140.567C131.418 138.732 131.515 136.886 131.402 135.045C131.225 132.137 131.155 129.223 131.037 126.315C130.962 124.496 130.86 122.677 130.796 120.858C130.78 120.38 130.629 120.316 130.216 120.504C128.955 121.083 128.268 122.14 127.85 123.385C126.868 126.294 126.836 129.309 126.991 132.33C127.115 134.766 127.302 137.203 127.458 139.639C127.522 140.674 126.879 141.029 126.117 141.082C125.317 141.136 124.732 140.497 124.689 139.676C124.555 137.24 124.405 134.799 124.26 132.362C124.072 129.143 124.104 125.934 125.086 122.827C125.907 120.219 127.324 118.11 130.254 117.531C130.543 117.472 130.635 117.348 130.619 117.059C130.56 116.098 130.49 115.132 130.49 114.172C130.49 113.7 130.313 113.624 129.916 113.71C128.499 114.016 127.093 114.354 125.773 114.971C123.289 116.136 121.405 117.842 120.885 120.659C120.182 124.453 119.865 128.29 119.844 132.148V132.142ZM92.2841 133.57C92.3538 138.93 92.547 144.243 92.9548 149.539C93.0568 150.875 93.2714 152.211 93.8617 153.445C94.57 154.932 95.9383 155.71 97.6125 155.586C99.5174 155.442 100.172 154.894 100.725 152.973C100.735 152.93 100.735 152.887 100.741 152.844C101.433 149.952 101.294 147.012 101.213 144.087C101.127 141.023 100.966 137.959 101.267 134.901C101.379 133.752 101.605 132.609 102.764 131.949C103.359 131.611 103.966 131.305 104.599 131.059C104.76 130.994 104.98 131.01 104.985 130.72C105.012 129.411 105.066 128.107 105.109 126.803C105.114 126.578 105.05 126.417 104.781 126.449C103.086 126.648 101.379 126.803 99.8394 127.635C98.6106 128.3 97.9345 129.315 97.9613 130.747C97.9988 132.636 98.0632 134.52 98.0632 136.408C98.074 140.61 98.0686 144.812 98.3959 149.008C98.4281 149.389 98.3584 149.775 98.0847 150.086C97.6823 150.553 97.1939 150.719 96.593 150.532C95.9651 150.339 95.6271 149.888 95.5788 149.131C95.5144 148.128 95.4822 147.119 95.3963 146.115C95.1495 143.17 95.069 140.213 94.9724 137.262C94.8866 134.648 95.0046 132.035 95.171 129.427C95.23 128.461 95.509 127.587 96.0725 126.809C97.033 125.478 98.412 124.775 99.9252 124.314C103.655 123.171 107.486 123.283 111.317 123.476C113.131 123.568 114.945 123.766 116.758 123.933C117.204 123.975 117.424 123.857 117.472 123.374C117.526 122.87 117.665 122.376 117.794 121.877C117.869 121.582 117.885 121.427 117.483 121.389C116.12 121.26 114.751 121.131 113.378 121.158C110.421 121.223 107.464 121.298 104.508 121.362C102.646 121.405 100.789 121.496 98.9647 121.92C95.3159 122.768 92.9119 124.85 92.386 128.805C92.1714 130.409 92.3592 132.019 92.268 133.581L92.2841 133.57ZM103.719 162.873C103.735 163.33 103.955 163.517 104.121 163.732C106.482 166.828 109.595 168.696 113.41 169.388C117.139 170.064 120.643 169.49 123.809 167.349C126.455 165.562 128.392 163.131 129.953 160.384C131.112 158.35 131.831 156.166 131.858 153.816C131.88 151.739 131.799 149.657 131.756 147.58C131.756 147.419 131.842 147.189 131.681 147.103C131.472 146.99 131.348 147.232 131.214 147.35C129.959 148.466 128.499 149.094 126.825 149.238C125.687 149.335 125.693 149.346 125.875 150.494C125.913 150.746 125.902 151.009 125.923 151.261C126.315 155.544 124.92 159.149 121.523 161.773C116.962 165.293 111.827 165.776 106.418 164.086C105.511 163.802 104.663 163.351 103.714 162.884L103.719 162.873ZM110.303 111.301C113.007 111.301 115.712 111.296 118.411 111.301C119.431 111.301 119.967 111.789 119.989 112.669C120.01 113.662 119.49 114.113 118.32 114.134C118.03 114.134 117.719 114.048 117.735 114.553C117.778 115.69 117.772 116.823 117.794 117.96C117.794 118.1 117.746 118.261 117.917 118.357C118.368 118.604 119.06 118.379 119.307 117.901C119.854 116.828 120.525 115.841 121.357 114.966C121.781 114.521 122.269 114.14 121.867 113.431C121.829 113.367 121.867 113.26 121.861 113.179C121.749 111.28 121.174 109.536 120.005 108.022C118.148 105.618 115.674 104.288 112.691 103.875C109.337 103.408 106.252 104.132 103.574 106.203C99.5335 109.332 98.6911 113.759 98.793 118.524C98.7984 118.851 98.9379 118.883 99.2491 118.819C100.247 118.604 101.256 118.379 102.27 118.282C102.828 118.229 102.919 117.992 102.866 117.558C102.753 116.662 102.801 115.755 102.812 114.859C102.817 114.338 102.748 114.097 102.125 114.118C101.261 114.145 100.805 113.705 100.714 112.948C100.585 111.902 101.159 111.312 102.318 111.306C104.98 111.301 107.642 111.306 110.298 111.306L110.303 111.301ZM147.377 117.091C147.377 117.091 147.377 117.053 147.377 117.032C148.321 117.032 149.265 117.027 150.204 117.032C150.537 117.032 150.714 116.968 150.693 116.57C150.634 115.438 150.596 114.301 150.585 113.168C150.585 112.755 150.419 112.685 150.043 112.702C147.479 112.82 144.908 112.922 142.338 113.013C139.467 113.115 136.602 113.206 133.731 113.281C133.328 113.292 133.21 113.415 133.237 113.802C133.296 114.805 133.339 115.814 133.366 116.817C133.377 117.209 133.607 117.198 133.881 117.204C135.384 117.225 136.881 117.289 138.383 117.268C141.383 117.23 144.382 117.15 147.377 117.086V117.091ZM158.495 116.844C161.291 116.758 164.355 116.656 167.418 116.587C167.783 116.576 167.858 116.393 167.901 116.141C168.1 114.961 168.277 113.78 168.476 112.6C168.551 112.16 168.368 112.052 167.96 112.068C165.648 112.165 163.335 112.245 161.022 112.331C158.624 112.417 156.225 112.508 153.826 112.583C153.505 112.594 153.306 112.637 153.322 113.04C153.365 114.156 153.392 115.272 153.381 116.383C153.381 116.844 153.553 116.967 153.987 116.951C155.399 116.892 156.81 116.78 158.495 116.839V116.844ZM107.856 128.07C107.888 128.73 107.937 129.395 107.953 130.055C107.958 130.388 108.087 130.49 108.414 130.479C109.353 130.458 110.303 130.436 111.231 130.597C111.741 130.688 111.865 130.474 111.822 130.007C111.784 129.561 111.806 129.105 111.795 128.66C111.773 127.962 111.988 127.039 111.575 126.642C111.156 126.24 110.239 126.412 109.53 126.406C108.429 126.399 107.869 126.952 107.851 128.064L107.856 128.07ZM110.18 133.366C110.18 133.366 110.18 133.35 110.18 133.339C109.648 133.366 109.112 133.387 108.581 133.43C108.425 133.441 108.21 133.425 108.232 133.693C108.371 135.137 108.527 136.58 109.321 137.847C109.664 138.394 110.142 138.447 110.689 138.083C111.017 137.863 111.253 137.567 111.419 137.213C111.746 136.526 111.913 135.791 111.913 135.051C111.924 133.119 112.288 133.42 110.308 133.366C110.265 133.366 110.223 133.366 110.18 133.366ZM114.982 116.216C114.982 116.216 114.971 116.216 114.966 116.216C114.966 115.685 114.955 115.148 114.966 114.617C114.977 114.258 114.837 114.129 114.478 114.134C113.689 114.15 112.895 114.156 112.106 114.134C111.698 114.124 111.596 114.29 111.612 114.665C111.639 115.304 111.618 115.948 111.618 116.592C111.618 118.1 111.618 118.121 113.158 118.116C113.764 118.116 114.639 118.454 114.912 118.089C115.218 117.681 114.982 116.866 114.982 116.227V116.216ZM108.843 116.061C108.843 115.588 108.817 115.116 108.849 114.649C108.876 114.263 108.758 114.113 108.355 114.124C107.566 114.145 106.772 114.15 105.983 114.129C105.645 114.124 105.543 114.242 105.554 114.574C105.592 115.578 105.613 116.581 105.619 117.585C105.619 117.885 105.715 118.008 106.021 117.998C106.81 117.982 107.604 117.976 108.393 117.982C108.715 117.982 108.854 117.874 108.838 117.531C108.817 117.043 108.833 116.549 108.833 116.055L108.843 116.061ZM116.71 128.837C116.71 128.665 116.71 128.494 116.71 128.322C116.71 127.166 116.127 126.616 114.961 126.669C114.961 126.669 114.918 126.669 114.896 126.669C114.623 126.642 114.553 126.75 114.548 127.034C114.526 127.898 114.687 128.746 114.698 129.599C114.708 130.4 115.1 130.828 115.873 130.881C116.002 130.892 116.125 130.914 116.254 130.935C116.576 130.978 116.726 130.86 116.715 130.511C116.694 129.953 116.715 129.395 116.715 128.837H116.71Z" fill="#FEDB0E"/>
</g>
<defs>
<clipPath id="clip0_1055_61870">
<rect width="256" height="256" fill="white"/>
</clipPath>
</defs>
</svg>
