<svg width="256" height="256" viewBox="0 0 256 256" fill="none" xmlns="http://www.w3.org/2000/svg">
<g clip-path="url(#clip0_584_16607)">
<path fill-rule="evenodd" clip-rule="evenodd" d="M217.504 38.5044C168.096 -10.9034 87.9604 -10.9034 38.5527 38.5044C17.6323 59.4247 5.57655 85.8491 2.3692 113.12C2.28055 113.893 2.19191 114.675 2.11938 115.457C-1.48285 151.874 10.6616 189.564 38.5527 217.455C87.9604 266.863 168.096 266.863 217.504 217.455C230.97 203.981 240.769 188.227 246.894 171.432C247.176 170.675 247.442 169.909 247.708 169.144C262.89 124.861 252.825 73.8336 217.504 38.5044Z" fill="#FFF264"/>
<path d="M218.559 37.4406C168.636 -12.4748 87.4125 -12.4748 37.497 37.4406C13.3129 61.6247 0 93.7708 0 127.98C0 162.189 13.3129 194.327 37.497 218.511C61.6811 242.695 93.8191 256 128.028 256C162.237 256 194.375 242.687 218.559 218.511C268.475 168.588 268.475 87.3641 218.559 37.4406ZM39.6084 216.384C15.9965 192.78 2.98977 161.375 2.98977 127.98C2.98977 125.006 3.09453 122.041 3.296 119.099C3.44106 117.093 3.6264 115.102 3.86011 113.12C7.12387 85.3333 19.5342 59.6342 39.6084 39.56C63.9859 15.1825 96.003 2.98977 128.028 2.98977C160.053 2.98977 192.062 15.1825 216.44 39.56C250.448 73.5677 260.738 122.452 247.297 165.453C246.676 167.459 245.999 169.458 245.266 171.432C239.206 187.848 229.6 203.232 216.44 216.392C192.828 240.012 161.431 253.01 128.028 253.01C94.625 253.01 63.2203 240.012 39.6084 216.392V216.384Z" fill="#1D1D1B"/>
<path d="M93.6741 179.241C93.658 178.282 93.1181 178.137 92.7958 178.137C92.6104 178.137 92.2316 178.129 89.5803 181.143C88.3635 182.521 87.3078 183.778 86.4375 184.89C85.8572 185.035 85.4946 185.358 85.3737 185.849C85.3334 186.018 85.3254 186.18 85.3576 186.333C83.8184 188.452 83.5605 188.952 83.5122 189.145C83.4154 189.524 83.5444 189.782 83.6653 189.927C83.8426 190.136 84.0682 190.241 84.3583 190.249C84.721 190.249 85.0433 190.072 85.3334 189.717C86.244 188.476 86.921 187.509 87.3561 186.832L89.4272 186.446C90.1847 186.301 90.7891 186.188 91.2807 186.123C91.2082 187.114 91.184 187.848 91.2001 188.291C91.2243 188.807 91.2807 190.37 92.2397 190.378H92.2478C92.5137 190.378 92.7635 190.29 92.9972 190.104C93.239 189.919 93.4002 189.685 93.4727 189.411C93.4969 189.298 93.5291 189.081 93.4566 188.484L93.3196 187.292L93.4969 181.892L93.658 179.257L93.6741 179.241ZM91.4338 181.909L91.3532 184.004C90.5151 184.141 89.8221 184.262 89.2741 184.374L91.4338 181.909Z" fill="#1D1D1B"/>
<path d="M129.213 187.614L129.39 182.215L129.551 179.579C129.535 178.621 128.995 178.475 128.673 178.475C128.399 178.475 127.891 178.717 125.466 181.481C124.249 182.859 123.193 184.117 122.323 185.229C121.597 185.414 121.348 185.849 121.259 186.188C121.219 186.357 121.211 186.518 121.243 186.671C119.704 188.791 119.446 189.29 119.397 189.484C119.301 189.862 119.43 190.12 119.551 190.265C119.728 190.475 119.962 190.58 120.244 190.588C120.63 190.588 120.937 190.418 121.227 190.056C122.137 188.815 122.814 187.848 123.249 187.171L125.321 186.784C126.078 186.639 126.682 186.526 127.174 186.462C127.101 187.461 127.077 188.186 127.093 188.637C127.118 189.153 127.174 190.717 128.133 190.725H128.141C128.407 190.725 128.657 190.636 128.891 190.459C129.132 190.273 129.293 190.04 129.366 189.758C129.39 189.645 129.422 189.435 129.35 188.831L129.213 187.638V187.614ZM127.311 182.239L127.23 184.334C126.392 184.471 125.699 184.592 125.151 184.705L127.311 182.239Z" fill="#1D1D1B"/>
<path d="M114.86 178.919C114.804 178.895 114.57 178.782 113.668 178.282C112.805 177.782 112.564 177.718 112.435 177.718C112.177 177.734 111.862 177.847 111.532 178.121C111.21 178.387 111.024 178.653 110.96 178.919C110.807 179.523 110.597 180.434 110.323 181.643C110.049 182.843 109.84 183.746 109.687 184.35C109.542 184.922 109.308 185.769 109.01 186.784C108.695 187.856 108.462 188.686 108.325 189.234C108.252 189.532 108.293 189.79 108.454 190.008C108.615 190.225 108.849 190.338 109.139 190.346C109.413 190.572 109.816 190.749 110.356 190.894C110.823 191.023 111.266 191.087 111.677 191.095C111.717 191.095 111.758 191.095 111.79 191.095C113.281 191.095 114.522 190.813 115.473 190.265C116.343 189.766 117.101 189.097 117.737 188.259C118.374 187.429 118.809 186.55 119.043 185.624C119.422 184.084 119.131 182.65 118.181 181.352C117.375 180.265 116.263 179.451 114.876 178.919H114.86ZM112.056 189.024C111.419 189.024 110.928 188.879 110.597 188.613C110.597 188.613 110.589 188.613 110.581 188.605L111.717 184.52L112.693 180.361C114.208 181.135 115.183 181.691 115.586 182.013C116.851 183.013 117.302 184.157 116.964 185.535C116.819 186.123 116.528 186.695 116.109 187.243C115.69 187.791 115.199 188.227 114.635 188.549C114.046 188.879 113.176 189.049 112.04 189.032L112.056 189.024Z" fill="#1D1D1B"/>
<path d="M81.4572 184.27C82.537 183.504 83.2381 182.481 83.5444 181.224C83.8264 180.087 83.5363 179.104 82.674 178.314C81.9407 177.645 81.0784 177.299 80.1114 177.291C79.1927 177.291 78.3304 177.388 77.5084 177.621C77.2989 177.734 77.1296 177.944 77.0007 178.282C76.6945 179.257 76.493 179.958 76.3882 180.418C76.211 181.078 75.8886 182.158 75.4212 183.617C74.9941 184.979 74.6798 186.051 74.4945 186.8L73.9303 189.057C73.8578 189.347 73.9223 189.645 74.1076 189.911C74.3091 190.193 74.5589 190.338 74.8652 190.338C74.9296 190.338 74.9941 190.338 75.0586 190.338C76.8154 190.338 78.3384 190.12 79.5956 189.677C80.1839 189.476 80.7802 189.153 81.3766 188.734C82.2469 188.122 82.7788 187.469 82.948 186.784C83.085 186.236 82.9883 185.72 82.6579 185.253C82.4 184.89 82.0132 184.56 81.4652 184.254L81.4572 184.27ZM76.1868 188.251L76.5091 186.961C76.622 186.502 76.7589 185.994 76.9282 185.43C77.1699 185.462 77.4036 185.479 77.6212 185.479C77.7018 185.479 77.8066 185.479 77.9516 185.47C78.0886 185.47 78.1853 185.47 78.2095 185.462L78.9912 185.599C79.4102 185.712 79.8374 185.881 80.2564 186.107C80.8366 186.413 80.9333 186.607 80.9253 186.655C80.9253 186.655 80.8689 186.792 80.3934 187.114C80.0066 187.396 79.6198 187.598 79.2491 187.727C78.411 188.017 77.3875 188.194 76.1868 188.243V188.251ZM78.7091 179.402C78.9428 179.386 79.2813 179.37 79.7165 179.378C80.2645 179.378 80.7238 179.572 81.1187 179.95C81.4975 180.313 81.6264 180.684 81.5297 181.087C81.3685 181.747 80.9817 182.295 80.3854 182.714C79.8212 183.109 79.1604 183.327 78.411 183.383C78.3707 183.383 78.1531 183.367 77.589 183.319L78.4029 180.595L78.7091 179.402Z" fill="#1D1D1B"/>
<path d="M108.534 178.153C108.373 177.952 108.156 177.839 107.89 177.839H107.874C107.406 177.839 106.818 178.032 106.592 178.927C106.536 179.152 106.52 179.451 106.536 179.821C106.544 180.136 106.56 180.466 106.544 180.603C106.391 181.933 106.028 183.746 105.464 186.01L105.246 186.994C105.206 187.179 105.166 187.348 105.134 187.493C104.134 186.22 103.248 184.882 102.498 183.528C101.789 182.255 101.024 180.627 100.218 178.709C99.9196 178 99.5811 177.646 99.1943 177.646H99.1863C98.872 177.646 98.5658 177.758 98.2756 177.984C97.9775 178.218 97.7921 178.484 97.7196 178.774C97.639 179.112 97.5504 179.596 97.4456 180.257C97.3489 180.893 97.2602 181.377 97.1797 181.691C97.091 182.037 96.9701 182.553 96.817 183.246C96.6639 183.931 96.543 184.447 96.4544 184.794C96.3738 185.116 96.2449 185.591 96.0676 186.228C95.8903 186.873 95.7613 187.348 95.6807 187.679C95.6243 187.888 95.5276 188.218 95.3906 188.646C95.2456 189.089 95.1489 189.427 95.0925 189.653C95.0199 189.951 95.0602 190.209 95.2133 190.427C95.3262 190.604 95.5599 190.813 96.0273 190.813H96.0353C96.7042 190.813 97.22 190.072 97.5987 188.541C97.7035 188.106 97.8646 187.453 98.0581 186.591C98.2515 185.736 98.4046 185.092 98.5093 184.665L99.2749 181.78C100.967 185.269 102.611 188.001 104.142 189.919C104.489 190.354 104.852 190.58 105.214 190.58H105.23C105.633 190.58 106.165 190.419 106.479 189.645C106.713 189.04 106.858 188.621 106.923 188.372C107.068 187.799 107.285 186.937 107.583 185.801C107.882 184.657 108.107 183.802 108.244 183.222C109.163 179.531 108.857 178.58 108.542 178.177L108.534 178.153Z" fill="#1D1D1B"/>
<path d="M118.503 204.529C117.882 204.336 117.286 204.239 116.738 204.239C115.586 204.239 114.337 204.65 113.023 205.456C111.637 206.318 110.767 207.293 110.452 208.357C110.17 209.308 110.396 210.082 111.105 210.605C111.637 210.992 112.362 211.21 113.249 211.242C114.143 211.266 114.852 211.452 115.36 211.782C115.908 212.129 116.077 212.572 115.9 213.176C115.666 213.966 115.046 214.595 114.054 215.038C113.265 215.4 112.459 215.578 111.661 215.578C110.863 215.578 110.291 215.441 109.977 215.175C109.88 215.086 109.735 214.885 109.574 214.409C109.389 213.845 108.994 213.756 108.776 213.756C108.494 213.756 108.22 213.853 107.97 214.03C107.72 214.216 107.551 214.458 107.471 214.748C107.197 215.707 107.559 216.504 108.518 217.044C109.252 217.463 110.146 217.673 111.178 217.673C112.58 217.673 113.934 217.31 115.199 216.601C116.682 215.763 117.641 214.635 118.068 213.225C118.374 212.209 118.285 211.331 117.802 210.605C117.278 209.824 116.367 209.373 115.078 209.268C114.079 209.195 113.644 209.123 113.466 209.074C112.991 208.953 112.822 208.8 112.765 208.688C112.733 208.639 112.701 208.551 112.749 208.405C112.918 207.841 113.329 207.374 114.014 206.971C114.683 206.576 115.433 206.367 116.222 206.359C116.488 206.334 116.883 206.407 117.359 206.528C117.882 206.657 118.253 206.721 118.495 206.721C119.099 206.721 119.51 206.399 119.696 205.794C119.857 205.255 119.454 204.835 118.495 204.545L118.503 204.529Z" fill="#1D1D1B"/>
<path d="M107.64 205.19C106.979 204.287 105.706 203.828 103.852 203.828C101.999 203.828 100.065 204.747 98.2514 206.56C96.6396 208.18 95.5275 210.017 94.9312 212C94.4235 213.684 94.6088 215.086 95.4792 216.166C96.3012 217.181 97.518 217.697 99.1217 217.697C101.032 217.697 102.885 216.762 104.634 214.917C106.141 213.329 107.205 211.516 107.801 209.526C108.389 207.575 108.333 206.117 107.648 205.182L107.64 205.19ZM99.6294 215.449C98.6059 215.449 97.8726 215.167 97.373 214.578C96.8653 213.966 96.7605 213.168 97.0667 212.153C97.51 210.678 98.34 209.3 99.5327 208.075C100.806 206.753 102.087 206.085 103.328 206.085C104.569 206.085 105.335 206.318 105.673 206.77C106.036 207.245 106.02 208.123 105.641 209.389C105.19 210.888 104.4 212.258 103.304 213.458C102.095 214.78 100.862 215.449 99.6294 215.449Z" fill="#1D1D1B"/>
<path d="M91.9414 214.691C89.7978 215.336 88.041 215.682 86.7114 215.715C86.8 215.441 86.9048 215.142 87.0256 214.82L87.5253 213.531C88.4601 210.904 89.411 207.962 90.3619 204.803C90.4586 204.489 90.4345 204.207 90.2894 203.973C90.1846 203.804 89.9751 203.594 89.5722 203.594C89.2901 203.594 89.0161 203.699 88.7583 203.909C88.5165 204.11 88.3473 204.36 88.2586 204.65C87.3238 207.753 86.389 210.646 85.4703 213.249L84.463 216.061C84.2454 216.794 84.3018 217.318 84.6242 217.633C84.8579 217.858 85.2769 217.963 85.8894 217.963C86.6711 217.963 87.6784 217.85 88.9758 217.633C90.3619 217.391 91.4257 217.117 92.1429 216.811C92.6103 216.609 92.9165 216.287 93.0455 215.852C93.1341 215.562 93.118 215.304 93.0052 215.062C92.8198 214.699 92.4491 214.538 91.9334 214.691H91.9414Z" fill="#1D1D1B"/>
<path d="M195.753 205.19C195.093 204.287 193.819 203.828 191.966 203.828C190.112 203.828 188.178 204.747 186.365 206.56C184.761 208.18 183.641 210.009 183.045 212C182.537 213.684 182.722 215.086 183.593 216.166C184.415 217.181 185.64 217.697 187.235 217.697C189.145 217.697 190.999 216.762 192.747 214.917C194.254 213.329 195.318 211.516 195.915 209.526C196.503 207.575 196.446 206.117 195.761 205.182L195.753 205.19ZM187.743 215.449C186.72 215.449 185.986 215.167 185.487 214.578C184.979 213.958 184.874 213.168 185.18 212.153C185.624 210.678 186.454 209.3 187.646 208.075C188.92 206.753 190.201 206.085 191.442 206.085C192.683 206.085 193.449 206.318 193.787 206.77C194.15 207.245 194.134 208.123 193.755 209.389C193.304 210.888 192.522 212.258 191.418 213.458C190.209 214.78 188.968 215.449 187.743 215.449Z" fill="#1D1D1B"/>
<path d="M206.826 204.529C206.205 204.336 205.609 204.239 205.061 204.239C203.909 204.239 202.66 204.65 201.346 205.456C199.96 206.318 199.09 207.293 198.775 208.357C198.493 209.308 198.719 210.082 199.428 210.605C199.96 210.992 200.685 211.202 201.572 211.242C202.466 211.266 203.175 211.452 203.683 211.782C204.231 212.129 204.4 212.572 204.223 213.176C203.989 213.966 203.369 214.586 202.378 215.038C201.588 215.4 200.782 215.578 199.984 215.578C199.186 215.578 198.614 215.441 198.3 215.175C198.203 215.086 198.058 214.885 197.897 214.409C197.712 213.845 197.317 213.756 197.099 213.756C196.817 213.756 196.543 213.853 196.293 214.03C196.043 214.216 195.874 214.458 195.794 214.748C195.52 215.707 195.882 216.496 196.841 217.044C197.575 217.463 198.469 217.673 199.501 217.673C200.895 217.673 202.249 217.31 203.522 216.601C205.005 215.763 205.964 214.635 206.391 213.233C206.697 212.217 206.608 211.339 206.125 210.614C205.601 209.832 204.69 209.381 203.401 209.276C202.402 209.203 201.967 209.131 201.781 209.082C201.314 208.962 201.137 208.808 201.08 208.696C201.056 208.647 201.024 208.559 201.064 208.414C201.233 207.849 201.644 207.382 202.329 206.979C202.998 206.584 203.748 206.375 204.537 206.367C204.827 206.359 205.198 206.415 205.674 206.536C206.197 206.665 206.568 206.729 206.81 206.729C207.406 206.729 207.825 206.407 208.011 205.803C208.172 205.263 207.769 204.844 206.81 204.553L206.826 204.529Z" fill="#1D1D1B"/>
<path d="M149.569 204.376C148.014 204.134 146.684 204.005 145.604 204.005C144.412 204.005 143.565 204.03 143.106 204.07C142.485 204.134 142.05 204.497 141.865 205.117C141.768 205.448 141.792 205.73 141.938 205.956C142.042 206.125 142.252 206.318 142.671 206.318L144.403 206.27C143.718 208.107 143.203 209.598 142.84 210.815C142.727 211.202 142.598 211.677 142.461 212.249C142.332 212.781 142.212 213.257 142.091 213.66C141.929 214.2 141.768 214.659 141.607 215.07C140.85 215.175 140.31 215.223 139.995 215.223C139.705 215.223 139.431 215.328 139.189 215.537C138.948 215.739 138.779 215.989 138.69 216.279C138.593 216.593 138.617 216.867 138.762 217.101C138.867 217.27 139.077 217.471 139.48 217.471C139.85 217.471 140.422 217.415 141.172 217.31C141.897 217.205 142.437 217.157 142.776 217.157C143.082 217.157 143.541 217.157 144.154 217.133C144.758 217.117 145.209 217.109 145.516 217.109C145.822 217.109 146.08 217.004 146.321 216.803C146.563 216.601 146.732 216.351 146.821 216.053C146.918 215.739 146.894 215.457 146.749 215.223C146.644 215.054 146.434 214.852 146.031 214.852L143.847 214.885C143.968 214.546 144.089 214.175 144.21 213.772C144.331 213.378 144.468 212.886 144.621 212.298C144.774 211.718 144.911 211.234 145.024 210.839C145.451 209.413 145.967 207.898 146.547 206.334L147.595 206.487C148.11 206.56 148.546 206.6 148.9 206.6C149.158 206.6 149.408 206.52 149.666 206.359C149.94 206.165 150.133 205.907 150.23 205.585C150.335 205.222 150.327 204.924 150.19 204.706C150.069 204.513 149.859 204.392 149.577 204.344L149.569 204.376Z" fill="#1D1D1B"/>
<path d="M164.856 212.322C165.009 211.742 165.146 211.258 165.259 210.863C165.694 209.421 166.202 207.906 166.782 206.359L167.83 206.512C168.346 206.584 168.781 206.624 169.135 206.624C169.393 206.624 169.643 206.544 169.901 206.383C170.175 206.189 170.368 205.931 170.465 205.609C170.57 205.246 170.562 204.948 170.425 204.731C170.304 204.537 170.094 204.416 169.812 204.368C168.257 204.126 166.927 203.997 165.848 203.997C164.655 203.997 163.809 204.021 163.349 204.062C162.729 204.126 162.294 204.489 162.108 205.109C162.012 205.44 162.036 205.722 162.181 205.948C162.286 206.117 162.495 206.31 162.914 206.31L164.647 206.262C163.962 208.099 163.446 209.59 163.083 210.807C162.971 211.194 162.842 211.669 162.705 212.241C162.576 212.797 162.447 213.273 162.334 213.652C162.173 214.192 162.012 214.659 161.85 215.062C161.093 215.167 160.553 215.215 160.239 215.215C159.949 215.215 159.675 215.32 159.433 215.529C159.191 215.731 159.022 215.981 158.933 216.271C158.836 216.585 158.869 216.859 159.006 217.093C159.11 217.262 159.312 217.463 159.723 217.463C160.094 217.463 160.666 217.407 161.415 217.302C162.141 217.197 162.68 217.149 163.019 217.149C163.325 217.149 163.785 217.149 164.397 217.125C165.001 217.109 165.453 217.101 165.759 217.101C166.065 217.101 166.323 216.996 166.565 216.794C166.807 216.593 166.976 216.343 167.064 216.045C167.161 215.731 167.137 215.449 166.992 215.215C166.887 215.046 166.678 214.844 166.275 214.844L164.091 214.877C164.212 214.538 164.333 214.175 164.453 213.764C164.574 213.37 164.711 212.878 164.864 212.29L164.856 212.322Z" fill="#1D1D1B"/>
<path d="M138.077 207.398C137.312 206.222 136.208 205.335 134.797 204.771C134.741 204.747 134.507 204.626 133.605 204.086C132.686 203.522 132.477 203.482 132.348 203.482C132.057 203.482 131.743 203.627 131.381 203.925C131.034 204.215 130.825 204.497 130.744 204.779C130.542 205.44 130.26 206.431 129.89 207.745C129.519 209.05 129.237 210.041 129.035 210.702C128.858 211.298 128.56 212.193 128.165 213.353C127.762 214.514 127.472 215.408 127.287 216.029C127.19 216.343 127.214 216.625 127.367 216.859C127.472 217.028 127.682 217.222 128.068 217.23C128.342 217.471 128.745 217.665 129.301 217.818C129.785 217.955 130.244 218.019 130.663 218.019C132.267 218.019 133.613 217.705 134.66 217.085C135.595 216.537 136.433 215.795 137.151 214.885C137.868 213.982 138.384 213.015 138.682 212.016C139.181 210.339 138.98 208.784 138.077 207.39V207.398ZM131.171 215.803C130.51 215.803 130.019 215.658 129.704 215.376H129.696L131.163 210.904L132.477 206.334C134 207.156 134.975 207.753 135.37 208.099C136.619 209.171 137.006 210.42 136.554 211.927C136.361 212.572 136.022 213.208 135.547 213.813C135.071 214.417 134.523 214.901 133.919 215.255C133.282 215.626 132.364 215.811 131.187 215.811L131.171 215.803Z" fill="#1D1D1B"/>
<path d="M160.198 207.1C160.569 206.544 161.004 205.996 161.488 205.48C161.673 205.279 161.802 205.077 161.858 204.868C161.955 204.545 161.923 204.263 161.754 204.021C161.415 203.53 160.714 203.53 160.134 204.054C159.642 204.505 159.102 205.158 158.538 206.004L157.233 208.075L153.59 213.66C153.59 212.322 153.631 210.791 153.719 209.082L153.808 206.222L153.953 204.731C153.969 204.416 153.897 204.167 153.735 203.997C153.429 203.683 152.792 203.683 152.325 204.046C152.059 204.247 151.874 204.497 151.785 204.803C151.664 205.198 151.592 205.972 151.559 207.18L151.495 209.501C151.326 212.709 151.31 215.215 151.447 216.956C151.495 217.536 151.825 217.85 152.381 217.85C152.776 217.85 153.139 217.649 153.461 217.246C154.017 216.545 154.533 215.827 155.001 215.102L159.03 208.937L160.198 207.092V207.1Z" fill="#1D1D1B"/>
<path d="M183.133 203.981C182.98 203.772 182.755 203.667 182.489 203.667C182.013 203.667 181.377 203.868 181.087 204.835C181.014 205.077 180.974 205.4 180.966 205.802C180.958 206.141 180.941 206.504 180.917 206.657C180.659 208.107 180.16 210.09 179.418 212.556L179.12 213.627C179.064 213.837 179.007 214.03 178.959 214.2C178.016 212.83 177.186 211.387 176.501 209.912C175.856 208.534 175.171 206.778 174.462 204.682C174.366 204.392 174.067 203.522 173.455 203.522C173.125 203.522 172.802 203.651 172.48 203.901C172.157 204.15 171.948 204.432 171.859 204.739C171.746 205.101 171.618 205.641 171.473 206.35C171.327 207.06 171.199 207.575 171.102 207.914C170.989 208.285 170.828 208.857 170.61 209.614C170.401 210.364 170.24 210.928 170.127 211.298C170.022 211.645 169.853 212.169 169.627 212.862C169.393 213.563 169.224 214.087 169.119 214.441C169.047 214.675 168.926 215.03 168.749 215.505C168.563 215.989 168.442 216.359 168.37 216.601C168.273 216.915 168.297 217.197 168.442 217.431C168.555 217.625 168.789 217.858 169.281 217.858C169.982 217.858 170.546 217.077 171.053 215.392C171.199 214.917 171.4 214.208 171.658 213.273C171.924 212.338 172.125 211.637 172.262 211.17L173.262 208.002C174.777 211.774 176.292 214.731 177.75 216.803C178.089 217.278 178.451 217.528 178.838 217.528C179.249 217.528 179.821 217.351 180.2 216.52C180.482 215.868 180.667 215.416 180.748 215.134C180.933 214.506 181.224 213.571 181.618 212.322C182.005 211.073 182.295 210.138 182.489 209.509C183.714 205.44 183.44 204.416 183.125 203.997L183.133 203.981Z" fill="#1D1D1B"/>
<path d="M121.581 93.2309C121.565 92.3444 121.122 92.2155 120.848 92.2155C120.646 92.2074 120.372 92.2155 118.172 95.0924C117.157 96.4221 116.279 97.6228 115.561 98.6705C115.086 98.8075 114.788 99.1217 114.691 99.573C114.659 99.7423 114.651 99.8873 114.691 100.032C113.394 102.087 113.192 102.547 113.152 102.716C113.095 102.982 113.136 103.224 113.273 103.417C113.418 103.618 113.611 103.715 113.853 103.715C114.159 103.715 114.433 103.546 114.675 103.207C115.432 102.015 115.997 101.096 116.351 100.451L118.068 100.073C118.688 99.9276 119.196 99.8228 119.607 99.7503C119.55 100.725 119.526 101.427 119.542 101.838C119.575 102.676 119.696 103.78 120.405 103.788C120.63 103.788 120.848 103.699 121.041 103.522C121.243 103.353 121.372 103.135 121.428 102.877C121.46 102.716 121.46 102.434 121.42 102.015L121.307 100.87L121.452 95.7371L121.581 93.2389V93.2309ZM119.72 95.7613L119.655 97.8001C118.938 97.9371 118.35 98.0661 117.89 98.1708L119.728 95.7613H119.72Z" fill="#1D1D1B"/>
<path d="M239.318 96.9379C239.665 95.3342 239.036 93.9481 237.457 92.836C237.086 92.5701 236.587 92.3928 235.974 92.2961L234.443 92.151C234.105 92.1188 233.774 92.2638 233.508 92.5701C233.299 92.8038 233.162 93.0858 233.097 93.4001C233.041 93.6419 232.984 94.0045 232.912 94.5283C232.847 95.0118 232.791 95.3825 232.735 95.6243C232.638 96.0595 232.461 96.7122 232.17 97.6229C231.888 98.5174 231.703 99.2024 231.598 99.6617C231.518 100.049 231.405 100.637 231.268 101.41C231.131 102.176 231.026 102.756 230.937 103.143C230.881 103.409 230.913 103.643 231.026 103.836C231.155 104.046 231.365 104.15 231.614 104.15C231.856 104.15 232.074 104.062 232.259 103.876C232.444 103.699 232.565 103.482 232.622 103.224L233.121 100.556C234.596 101.12 235.845 102.168 236.844 103.659C237.03 103.933 237.264 103.989 237.425 103.989C237.658 103.989 237.876 103.893 238.077 103.707C238.279 103.53 238.4 103.312 238.456 103.062C238.505 102.837 238.48 102.627 238.376 102.418C237.94 101.564 237.207 100.742 236.192 99.9679C236.828 99.7262 237.401 99.4038 237.9 99.0089C238.658 98.4045 239.125 97.7034 239.294 96.9056L239.318 96.9379ZM237.61 96.8492C237.586 96.954 237.497 97.1393 237.175 97.4375C236.925 97.6712 236.675 97.8566 236.417 98.0016C235.837 98.3159 235.007 98.469 233.968 98.469C233.895 98.469 233.798 98.469 233.661 98.461C233.661 98.461 233.661 98.461 233.653 98.461L234.024 97.2522C234.209 96.6478 234.346 96.1562 234.427 95.7613C234.483 95.5195 234.532 95.2133 234.58 94.8587L234.685 94.1576L235.426 94.2302C236.039 94.3107 236.587 94.6089 237.062 95.1085C237.57 95.6565 237.755 96.2206 237.618 96.8412L237.61 96.8492Z" fill="#1D1D1B"/>
<path d="M206.536 93.0456C206.536 93.0456 206.318 92.9328 205.545 92.4412C204.787 91.9496 204.61 91.9093 204.505 91.9093C204.247 91.9174 204.021 92.0382 203.739 92.2961C203.482 92.5459 203.328 92.7877 203.272 93.0375C203.143 93.6177 202.974 94.472 202.74 95.6244C202.506 96.7687 202.337 97.631 202.208 98.2031C202.095 98.7269 201.902 99.5086 201.644 100.516C201.386 101.523 201.193 102.313 201.08 102.845C201.024 103.111 201.056 103.345 201.177 103.538C201.306 103.739 201.499 103.852 201.749 103.86C201.975 104.07 202.313 104.239 202.764 104.376C203.175 104.497 203.554 104.553 203.901 104.561C205.174 104.561 206.23 104.287 207.035 103.756C207.753 103.28 208.381 102.635 208.913 101.846C209.437 101.064 209.8 100.226 209.985 99.3555C210.299 97.905 210.057 96.5592 209.268 95.3423C208.599 94.3188 207.672 93.5452 206.528 93.0536L206.536 93.0456ZM204.223 102.66H204.199C203.667 102.66 203.272 102.531 202.998 102.281C202.99 102.273 202.982 102.265 202.974 102.257L203.925 98.3482L204.739 94.3833C205.988 95.1005 206.794 95.6243 207.132 95.9225C208.196 96.8734 208.575 97.9775 208.284 99.2991C208.164 99.8632 207.922 100.419 207.575 100.943C207.229 101.467 206.81 101.886 206.35 102.192C205.867 102.506 205.158 102.668 204.231 102.668L204.223 102.66Z" fill="#1D1D1B"/>
<path d="M113.539 92.0221C113.41 91.8609 113.232 91.7803 113.031 91.7803C112.644 91.7803 112.145 91.9576 111.959 92.7957C111.911 93.0052 111.903 93.2873 111.911 93.6257C111.919 93.8997 111.927 94.2382 111.911 94.3752C111.782 95.6324 111.484 97.365 111.016 99.5166L110.831 100.451C110.799 100.629 110.766 100.79 110.734 100.927C109.912 99.7181 109.171 98.469 108.55 97.1877C107.962 95.9789 107.325 94.4397 106.657 92.6184C106.495 92.1913 106.238 91.6272 105.802 91.6191C105.536 91.6191 105.279 91.732 105.029 91.9495C104.787 92.1671 104.634 92.4089 104.577 92.6748C104.505 92.9891 104.432 93.4485 104.352 94.077C104.271 94.6976 104.199 95.1488 104.134 95.447C104.062 95.7694 103.965 96.269 103.828 96.9217C103.699 97.5745 103.602 98.0661 103.53 98.3884C103.465 98.6947 103.353 99.1459 103.207 99.7584C103.054 100.371 102.95 100.83 102.885 101.136C102.845 101.338 102.756 101.652 102.643 102.063C102.522 102.49 102.442 102.805 102.394 103.014C102.337 103.28 102.369 103.514 102.482 103.707C102.579 103.868 102.772 104.07 103.167 104.07C103.739 104.07 104.15 103.385 104.465 101.918C104.553 101.507 104.682 100.887 104.843 100.065C105.005 99.2507 105.133 98.6382 105.222 98.2273L105.859 95.4873C107.261 98.7833 108.623 101.362 109.896 103.167C110.186 103.578 110.484 103.788 110.799 103.788C111.137 103.788 111.588 103.635 111.846 102.901C112.04 102.337 112.161 101.942 112.209 101.701C112.33 101.153 112.515 100.339 112.757 99.2507C113.007 98.1628 113.192 97.3489 113.305 96.8009C114.079 93.2228 113.797 92.3444 113.523 91.9979L113.539 92.0221Z" fill="#1D1D1B"/>
<path d="M92.1509 92.3686C91.7802 92.1027 91.2806 91.9254 90.6681 91.8287L89.137 91.6836C88.7824 91.6514 88.4681 91.7964 88.2022 92.1107C87.9926 92.3525 87.8556 92.6265 87.7912 92.9408C87.7348 93.1906 87.6783 93.5452 87.6058 94.069C87.5413 94.5525 87.4849 94.9232 87.4285 95.1649C87.3318 95.6001 87.1465 96.2529 86.8644 97.1635C86.5904 98.0419 86.397 98.7349 86.2923 99.2023C86.2036 99.6133 86.0908 100.218 85.9618 100.951C85.8248 101.717 85.7201 102.297 85.6395 102.684C85.5831 102.95 85.6153 103.183 85.7281 103.385C85.8571 103.594 86.0666 103.699 86.3164 103.699C86.5582 103.699 86.7758 103.61 86.9611 103.425C87.1465 103.248 87.2673 103.03 87.3238 102.772L87.8234 100.105C89.2981 100.669 90.5472 101.717 91.5465 103.208C91.7319 103.482 91.9736 103.53 92.1267 103.538C92.3604 103.538 92.578 103.441 92.7714 103.256C92.9648 103.079 93.0938 102.861 93.1502 102.611C93.1985 102.386 93.1744 102.176 93.0696 101.966C92.6344 101.112 91.9011 100.29 90.8857 99.5166C91.5223 99.2749 92.0945 98.9606 92.5941 98.5577C93.3517 97.9533 93.8191 97.2441 93.9883 96.4543C94.3348 94.8426 93.7062 93.4646 92.1267 92.3525L92.1509 92.3686ZM92.304 96.3738C92.2798 96.4785 92.1912 96.6639 91.8689 96.9701C91.619 97.2038 91.3692 97.3891 91.1113 97.5342C90.5311 97.8485 89.7091 98.0016 88.6696 98.0016C88.597 98.0016 88.5003 98.0016 88.3553 97.9935C88.3553 97.9935 88.3553 97.9935 88.3472 97.9935L88.7179 96.7847C88.9033 96.1884 89.0403 95.6888 89.1208 95.302C89.1692 95.0763 89.2175 94.7781 89.274 94.3913L89.3787 93.6902L90.1201 93.7627C90.7326 93.8433 91.2806 94.1415 91.756 94.6411C92.2637 95.1891 92.4491 95.7532 92.3121 96.3738H92.304Z" fill="#1D1D1B"/>
<path d="M85.8491 98.1145C85.9055 97.8486 85.8732 97.6148 85.7443 97.4134C85.5992 97.1958 85.3494 97.1072 85.0754 97.1072C82.8029 97.1072 81.1025 97.4376 80.0146 98.0984C79.7003 98.2918 79.5069 98.5497 79.4344 98.8801C79.3779 99.1299 79.4021 99.3555 79.5149 99.557C79.7003 99.9035 80.1032 100.016 80.5142 99.8149C81.3443 99.42 82.2871 99.1702 83.3348 99.0815C82.8996 99.9922 82.3596 100.709 81.7311 101.217C81.0864 101.741 80.3933 101.999 79.6761 101.999H79.6681C79.0314 101.999 78.6365 101.83 78.4834 101.507C78.3787 101.282 78.3061 100.782 78.5398 99.694C78.9105 97.9694 79.7567 96.3577 81.0541 94.883C81.4732 94.4075 81.8036 94.0449 82.0212 93.8595C82.4161 93.513 82.7545 93.3357 83.0205 93.3357C83.4234 93.3357 83.8908 93.5533 84.4066 93.9804C84.5919 94.1416 84.7531 94.2141 84.8981 94.2221C85.1318 94.2221 85.3575 94.1174 85.5589 93.932C85.7524 93.7467 85.8732 93.5291 85.9296 93.2873C86.0425 92.7555 85.6959 92.2881 84.8981 91.8771C84.2937 91.5628 83.7699 91.4097 83.3509 91.4097H83.3428C82.682 91.4097 81.989 91.7078 81.2878 92.2881C80.2725 93.1262 79.3296 94.2463 78.4995 95.6082C77.6695 96.9702 77.1054 98.324 76.8314 99.6134C76.5252 101.008 76.5816 102.087 76.9926 102.805C77.4116 103.554 78.2014 103.933 79.3376 103.933H79.3538C80.5545 103.933 81.715 103.465 82.7948 102.539C83.8505 101.628 84.6967 100.411 85.293 98.9123C85.5751 98.7431 85.7604 98.4771 85.8329 98.1225L85.8491 98.1145Z" fill="#1D1D1B"/>
<path d="M128.745 92.7876C128.697 92.7715 128.512 92.6668 127.754 92.1913C126.997 91.6997 126.819 91.6594 126.715 91.6594C126.481 91.6594 126.231 91.7884 125.957 92.0462C125.699 92.2961 125.538 92.5459 125.49 92.7876C125.361 93.3679 125.191 94.2301 124.958 95.3745C124.732 96.5188 124.555 97.3811 124.426 97.9533C124.305 98.4932 124.112 99.291 123.862 100.266C123.604 101.281 123.41 102.063 123.298 102.603C123.241 102.869 123.273 103.103 123.394 103.296C123.523 103.498 123.725 103.61 123.967 103.61C124.192 103.82 124.523 103.989 124.982 104.126C125.377 104.247 125.748 104.303 126.086 104.312H126.118C127.391 104.312 128.447 104.038 129.253 103.506C129.97 103.03 130.607 102.386 131.131 101.596C131.655 100.814 132.017 99.976 132.203 99.1056C132.517 97.6631 132.275 96.3093 131.485 95.0924C130.816 94.069 129.89 93.2953 128.737 92.8038L128.745 92.7876ZM126.408 102.402C125.885 102.402 125.482 102.273 125.208 102.023C125.2 102.015 125.191 102.007 125.183 101.999L126.134 98.0903L126.948 94.1254C128.197 94.8426 129.003 95.3584 129.342 95.6646C130.405 96.6155 130.784 97.7196 130.494 99.0412C130.373 99.6053 130.131 100.161 129.785 100.685C129.438 101.209 129.027 101.628 128.56 101.934C128.076 102.257 127.343 102.402 126.416 102.41L126.408 102.402Z" fill="#1D1D1B"/>
<path d="M101.483 96.3173C101.298 96.3173 100.798 96.3576 99.8953 96.4624L97.3004 96.7283C97.5905 95.6726 97.8081 94.8184 97.9451 94.1899C97.9854 94.0126 98.0176 93.7869 98.0418 93.5371C98.4931 93.4082 98.9202 93.3115 99.307 93.247C99.7341 93.1745 100.137 93.1342 100.459 93.1422C101.112 93.1422 101.773 93.2631 102.418 93.4888C102.506 93.521 102.595 93.5452 102.684 93.5452C102.917 93.5613 103.151 93.4404 103.352 93.2309C103.522 93.0455 103.635 92.8441 103.683 92.6104C103.804 92.0624 103.538 91.7964 103.296 91.6755C102.7 91.3693 101.886 91.2162 100.79 91.2162C100.347 91.2081 99.9034 91.2565 99.4359 91.3371C98.9927 91.4096 98.5092 91.5144 98.0015 91.6594C97.8726 91.5385 97.7033 91.4741 97.5099 91.4741C97.1392 91.4741 96.6557 91.6514 96.4704 92.5137C96.4301 92.699 96.3898 92.973 96.3575 93.3437C96.3253 93.6741 96.2931 93.932 96.2528 94.1254C96.1077 94.8104 95.8337 95.858 95.455 97.228C95.3421 97.373 95.2616 97.5423 95.2213 97.7276C95.189 97.8646 95.189 98.0016 95.2051 98.1225C95.0923 98.5415 94.9956 98.9284 94.8989 99.291C94.8022 99.6698 94.7216 100.016 94.6491 100.331C94.2945 101.983 94.2865 103.03 94.6491 103.522C94.9876 103.989 95.8418 104.215 97.2601 104.223C97.3246 104.223 97.381 104.223 97.4455 104.223C98.6946 104.223 99.5407 104.175 99.9678 104.086C100.427 103.989 100.733 103.675 100.838 103.183C100.911 102.845 100.87 102.587 100.733 102.41C100.604 102.249 100.395 102.168 100.121 102.168C100.024 102.168 99.8792 102.184 99.7019 102.216C99.5085 102.249 99.4037 102.257 99.3473 102.257C99.0653 102.257 98.6623 102.257 98.1224 102.281C97.5825 102.297 97.1876 102.305 96.9216 102.305C96.2528 102.305 96.14 102.208 96.1319 102.208C96.1158 102.168 96.0352 101.91 96.3575 100.427C96.4139 100.153 96.4865 99.8632 96.559 99.5569C96.6235 99.2829 96.7041 99.0009 96.7766 98.7027L101.265 98.2675C101.612 98.2192 102.055 98.0258 102.2 97.3569C102.265 97.0668 102.224 96.825 102.087 96.6316C101.95 96.4382 101.741 96.3415 101.491 96.3415L101.483 96.3173Z" fill="#1D1D1B"/>
<path d="M189.991 91.6594C189.742 91.6594 189.403 91.7884 189.185 92.3686L188.662 93.658C188.444 94.1898 188.307 94.5605 188.275 94.762C188.21 95.0924 188.251 95.3342 188.38 95.4954C188.452 95.584 188.589 95.6888 188.847 95.6888C189.202 95.6888 189.5 95.4148 189.733 94.8668C190.217 93.7627 190.491 93.0133 190.58 92.5781C190.628 92.3444 190.612 92.1429 190.515 91.9657C190.41 91.7642 190.209 91.6514 189.991 91.6514V91.6594Z" fill="#1D1D1B"/>
<path d="M184.004 101.572C183.915 101.572 183.818 101.588 183.722 101.62C182.037 102.176 180.643 102.474 179.58 102.498C179.636 102.257 179.708 101.991 179.797 101.676L180.128 100.548C180.74 98.2515 181.352 95.6888 181.949 92.9408C182.005 92.6749 181.973 92.4412 181.852 92.2478C181.723 92.0382 181.522 91.9254 181.264 91.9254C181.03 91.9254 180.813 92.0221 180.619 92.2075C180.434 92.3848 180.313 92.6023 180.256 92.8522C179.676 95.5438 179.072 98.0661 178.467 100.347L177.807 102.797C177.67 103.433 177.734 103.868 178.008 104.126C178.21 104.32 178.54 104.416 179.04 104.416H179.064C179.684 104.416 180.498 104.32 181.497 104.134C182.593 103.933 183.432 103.691 183.996 103.425C184.358 103.248 184.592 102.966 184.673 102.587C184.729 102.345 184.705 102.12 184.608 101.918C184.487 101.684 184.278 101.556 184.012 101.556L184.004 101.572Z" fill="#1D1D1B"/>
<path d="M199.372 93.4888C199.364 92.6507 198.969 92.4734 198.638 92.4734C198.445 92.4734 198.155 92.4734 195.963 95.3503C194.947 96.672 194.069 97.8727 193.352 98.9284C192.876 99.0734 192.578 99.3797 192.481 99.831C192.449 100 192.441 100.145 192.481 100.282C191.184 102.337 190.983 102.797 190.942 102.966C190.886 103.232 190.926 103.473 191.063 103.667C191.208 103.868 191.402 103.965 191.643 103.965C191.95 103.965 192.224 103.796 192.465 103.457C193.223 102.273 193.787 101.346 194.15 100.701L195.866 100.323C196.495 100.177 196.994 100.073 197.405 100C197.349 100.967 197.325 101.676 197.341 102.087C197.373 102.925 197.494 104.03 198.203 104.038C198.429 104.038 198.646 103.949 198.84 103.772C199.041 103.602 199.17 103.385 199.227 103.127C199.251 103.03 199.275 102.829 199.219 102.265L199.106 101.12L199.251 95.987L199.38 93.4888H199.372ZM197.51 96.0111L197.446 98.05C196.728 98.187 196.148 98.3079 195.681 98.4207L197.518 96.0111H197.51Z" fill="#1D1D1B"/>
<path d="M217.818 92.2638H217.802C216.279 92.2638 214.82 93.0616 213.466 94.6411C212.265 96.0514 211.468 97.647 211.089 99.3715C210.775 100.83 210.992 102.039 211.726 102.982C212.427 103.868 213.434 104.312 214.707 104.32H214.723C216.255 104.32 217.681 103.506 218.986 101.902C220.107 100.516 220.864 98.9364 221.243 97.2118C221.606 95.5276 221.493 94.2623 220.904 93.4484C220.332 92.6667 219.293 92.2638 217.81 92.2638H217.818ZM215.054 102.385C214.24 102.385 213.635 102.128 213.2 101.612C212.749 101.064 212.628 100.363 212.822 99.4602C213.096 98.1708 213.692 96.9781 214.578 95.9063C215.521 94.762 216.504 94.1898 217.479 94.1898H217.488C218.463 94.1898 219.107 94.3993 219.405 94.8023C219.728 95.2294 219.768 96.0111 219.526 97.1151C219.244 98.4206 218.68 99.6133 217.866 100.661C216.972 101.805 216.029 102.385 215.054 102.385Z" fill="#1D1D1B"/>
<path d="M170.618 92.6185C170.248 92.3525 169.748 92.1752 169.135 92.0785L167.604 91.9335C167.25 91.9012 166.935 92.0463 166.67 92.3606C166.46 92.6023 166.323 92.8763 166.259 93.1906C166.202 93.4324 166.146 93.795 166.073 94.3188C166.009 94.8024 165.952 95.1731 165.896 95.4148C165.799 95.85 165.614 96.5269 165.332 97.4134C165.058 98.2998 164.864 98.9848 164.76 99.4522C164.671 99.8471 164.566 100.435 164.429 101.201C164.292 101.967 164.187 102.547 164.099 102.934C164.042 103.2 164.075 103.433 164.196 103.635C164.324 103.844 164.534 103.949 164.784 103.949C165.026 103.949 165.243 103.86 165.429 103.675C165.614 103.498 165.735 103.28 165.791 103.022L166.291 100.355C167.766 100.919 169.015 101.967 170.014 103.457C170.199 103.731 170.433 103.788 170.594 103.788C170.828 103.788 171.045 103.691 171.247 103.506C171.448 103.328 171.569 103.111 171.626 102.861C171.674 102.635 171.65 102.418 171.545 102.216C171.11 101.362 170.377 100.54 169.361 99.7665C169.998 99.5248 170.57 99.2105 171.07 98.8075C171.827 98.2031 172.294 97.502 172.464 96.7042C172.81 95.0925 172.182 93.7144 170.602 92.6024L170.618 92.6185ZM170.779 96.6317C170.755 96.7365 170.667 96.9218 170.344 97.22C170.086 97.4617 169.845 97.6471 169.587 97.7841C169.007 98.0984 168.177 98.2515 167.137 98.2515C167.064 98.2515 166.968 98.2515 166.831 98.2515C166.831 98.2515 166.831 98.2515 166.823 98.2515L167.193 97.0427C167.379 96.4463 167.516 95.9467 167.596 95.5518C167.653 95.3101 167.701 95.0038 167.749 94.6492L167.854 93.9481L168.596 94.0207C169.208 94.1013 169.756 94.3914 170.231 94.8991C170.739 95.4471 170.925 96.0112 170.788 96.6317H170.779Z" fill="#1D1D1B"/>
<path d="M231.485 94.5687C231.566 94.1577 231.631 93.8595 231.679 93.658C231.784 93.1745 231.751 92.836 231.582 92.6185C231.502 92.5137 231.34 92.3928 231.05 92.3928C230.744 92.3928 230.47 92.5701 230.244 92.9328C230.091 93.1826 229.97 93.4727 229.906 93.8031C229.882 93.8998 229.842 94.1013 229.785 94.3914L229.632 95.1167C228.576 100 227.222 102.482 225.627 102.482C224.998 102.482 224.555 102.297 224.257 101.926C223.733 101.282 223.669 100.041 224.055 98.2434L224.998 93.9079C225.135 93.2632 225.111 92.8522 224.926 92.6104C224.853 92.5137 224.708 92.4089 224.474 92.4089C224.217 92.3848 223.87 92.5137 223.588 93.0617C223.491 93.2551 223.378 93.5774 223.25 94.0368C223.129 94.4639 222.992 95.028 222.847 95.7211C222.444 97.5826 222.202 98.8559 222.129 99.4845C221.96 100.911 222.081 102.015 222.476 102.756C222.984 103.707 223.959 104.191 225.369 104.199H225.377C228.053 104.199 230.043 101.273 231.3 95.4954L231.502 94.5767L231.485 94.5687Z" fill="#1D1D1B"/>
<path d="M153.55 92.6588C153.042 92.4895 152.567 92.4009 152.124 92.4009H152.116C151.189 92.4009 150.214 92.7555 149.206 93.4566C148.143 94.206 147.498 95.0522 147.297 95.9789C147.119 96.8009 147.329 97.4537 147.925 97.905C148.368 98.2434 148.957 98.4288 149.674 98.461C150.391 98.4852 150.963 98.6463 151.39 98.9365C151.858 99.2507 152.027 99.6456 151.906 100.194C151.761 100.879 151.294 101.427 150.536 101.813C149.924 102.128 149.295 102.305 148.666 102.281C148.022 102.281 147.562 102.152 147.297 101.918C147.216 101.838 147.079 101.66 146.926 101.233C146.765 100.782 146.475 100.685 146.265 100.677C146.031 100.677 145.814 100.758 145.62 100.919C145.427 101.08 145.306 101.29 145.258 101.539C145.088 102.369 145.403 103.03 146.201 103.506C146.813 103.868 147.538 104.054 148.36 104.062H148.384C149.497 104.062 150.552 103.747 151.535 103.135C152.68 102.41 153.389 101.419 153.655 100.202C153.848 99.3233 153.727 98.5658 153.316 97.9452C152.865 97.2683 152.108 96.8815 151.076 96.7848C150.27 96.7203 149.924 96.6559 149.779 96.6075C149.061 96.406 149.126 96.0998 149.158 95.987C149.263 95.4954 149.569 95.0844 150.093 94.7379C150.609 94.3994 151.189 94.2221 151.817 94.2141C152.043 94.2141 152.341 94.2624 152.736 94.3591C153.163 94.472 153.478 94.5203 153.663 94.5284C154.001 94.5284 154.437 94.3833 154.582 93.7144C154.678 93.2632 154.34 92.9086 153.574 92.6588H153.55Z" fill="#1D1D1B"/>
<path d="M141.817 91.7964C141.22 91.4902 140.398 91.337 139.31 91.337H139.294C138.867 91.337 138.416 91.3773 137.948 91.4579C137.513 91.5304 137.03 91.6352 136.514 91.7722C136.385 91.6513 136.216 91.5869 136.022 91.5869C135.652 91.5869 135.176 91.7722 134.983 92.6264C134.942 92.8118 134.902 93.0858 134.87 93.4484C134.838 93.7708 134.805 94.0448 134.765 94.222C134.62 94.8909 134.354 95.9385 133.967 97.3246C133.855 97.4697 133.774 97.6389 133.734 97.8243C133.701 97.9613 133.701 98.0983 133.718 98.2191C133.605 98.6382 133.508 99.025 133.411 99.3877C133.315 99.7664 133.234 100.113 133.17 100.427C132.807 102.079 132.807 103.127 133.17 103.627C133.508 104.094 134.362 104.32 135.781 104.328C135.845 104.328 135.918 104.328 135.982 104.328C137.223 104.328 138.069 104.279 138.488 104.191C138.948 104.094 139.254 103.78 139.359 103.288C139.431 102.95 139.391 102.692 139.254 102.514C139.125 102.353 138.915 102.273 138.641 102.273C138.545 102.273 138.408 102.289 138.214 102.321C138.013 102.361 137.916 102.369 137.86 102.369C137.578 102.369 137.175 102.369 136.635 102.385C136.095 102.402 135.7 102.402 135.434 102.41C134.781 102.41 134.652 102.313 134.644 102.313C134.644 102.313 134.548 102.007 134.87 100.532C134.926 100.258 134.999 99.9679 135.071 99.6617C135.128 99.4279 135.192 99.1862 135.265 98.9283L135.297 98.8074L139.786 98.3723C140.132 98.3239 140.575 98.1305 140.721 97.4616C140.785 97.1715 140.745 96.9298 140.608 96.7364C140.471 96.5429 140.261 96.4462 140.011 96.4462C139.81 96.4462 139.326 96.4946 138.432 96.5913L135.837 96.8572C136.127 95.8015 136.345 94.9554 136.482 94.3188C136.522 94.1415 136.554 93.9239 136.578 93.666C137.038 93.5371 137.457 93.4404 137.844 93.3759C138.279 93.3034 138.649 93.255 138.988 93.2711C139.641 93.2711 140.293 93.392 140.946 93.6176C141.035 93.6499 141.123 93.666 141.212 93.666C141.454 93.666 141.68 93.5612 141.881 93.3517C142.05 93.1664 142.163 92.9568 142.211 92.7312C142.3 92.3041 142.163 91.9737 141.825 91.7964H141.817Z" fill="#1D1D1B"/>
<path d="M164.647 94.351C164.727 93.94 164.792 93.6418 164.84 93.4404C164.945 92.9569 164.913 92.6184 164.743 92.4008C164.623 92.2477 164.445 92.1752 164.212 92.1752C163.905 92.1752 163.631 92.3525 163.406 92.7151C163.253 92.9649 163.132 93.255 163.067 93.5854C163.043 93.6821 163.003 93.8836 162.946 94.1737L162.793 94.899C161.738 99.7826 160.392 102.265 158.788 102.265C158.168 102.265 157.716 102.079 157.418 101.709C156.894 101.064 156.83 99.8229 157.217 98.0258L158.16 93.6902C158.297 93.0455 158.272 92.6345 158.087 92.3928C158.014 92.2961 157.869 92.1913 157.636 92.1913C157.273 92.1913 156.975 92.4089 156.757 92.844C156.661 93.0375 156.548 93.3679 156.427 93.8191C156.306 94.2463 156.169 94.8104 156.024 95.5034C155.613 97.4053 155.379 98.6382 155.307 99.2668C155.138 100.693 155.258 101.797 155.653 102.539C156.161 103.49 157.136 103.973 158.546 103.981H158.554C161.23 103.981 163.22 101.056 164.469 95.2778L164.671 94.3591L164.647 94.351Z" fill="#1D1D1B"/>
<path fill-rule="evenodd" clip-rule="evenodd" d="M241.776 130.099C234.685 131.308 230.857 133.5 227.505 135.418C225.53 136.546 223.709 137.586 221.461 138.359C218.31 139.447 215.908 139.939 213.7 139.955C211.444 139.971 209.493 139.496 207.229 138.641C205.819 138.11 204.537 137.328 203.175 136.506C200.548 134.918 197.575 133.113 192.965 133.234C188.138 133.363 184.366 136.506 180.99 139.318C180.369 139.834 179.765 140.342 179.386 140.648L179.362 140.664H179.354C177.323 142.308 175.163 143.767 172.722 144.823C170.24 145.886 167.475 146.539 164.284 146.547C158.957 146.555 155.017 144.234 151.415 142.115C147.845 140.003 144.686 138.142 141.164 139.987C140.97 140.197 140.777 140.406 140.568 140.616C133.129 148.046 121.082 148.046 113.652 140.616C106.221 133.186 106.221 121.13 113.652 113.7C121.082 106.27 133.129 106.27 140.568 113.7C142.993 116.126 144.629 119.059 145.467 122.153C150.036 121.251 152.76 123.314 155.718 125.554C157.99 127.271 160.44 129.132 164.163 129.092C166.476 129.076 168.515 128.206 170.28 127.029C172.158 125.772 173.737 124.176 175.002 122.838C176.485 121.267 178.443 119.607 181.054 118.318C183.665 117.028 186.913 116.101 190.991 115.989C195.02 115.884 198.429 116.633 201.33 117.721C204.199 118.793 206.512 120.155 208.446 121.34C210.041 122.315 211.653 122.943 213.362 123.024C215.102 123.104 217.012 122.629 219.228 121.412C220.518 120.695 221.767 119.776 223.096 118.801C226.932 115.989 231.349 112.749 239.85 111.484L240.431 115.424C232.896 116.545 228.907 119.47 225.45 122.008C224.007 123.064 222.653 124.063 221.138 124.893C218.253 126.489 215.642 127.101 213.192 126.989C210.726 126.876 208.502 126.038 206.375 124.732C204.578 123.636 202.45 122.379 199.944 121.436C197.462 120.509 194.545 119.873 191.079 119.961C187.671 120.05 184.963 120.816 182.819 121.879C180.684 122.935 179.088 124.289 177.879 125.562C176.453 127.069 174.664 128.882 172.472 130.349C170.159 131.888 167.411 133.033 164.196 133.065C159.111 133.113 156.105 130.841 153.316 128.729C151.1 127.045 149.061 125.506 146.104 126.078C146.168 127.134 146.144 128.197 146.015 129.253C149.625 129.108 152.309 130.808 155.154 132.614C157.749 134.266 160.513 136.022 164.268 135.99C166.815 135.974 168.958 135.354 170.892 134.403C172.907 133.411 174.736 132.033 176.55 130.575C177.057 130.164 177.235 130.019 177.452 129.841C181.457 126.578 185.527 123.266 192.087 123.096C197.913 122.943 201.531 125.014 204.707 126.836C205.891 127.512 207.011 128.149 208.059 128.544C209.977 129.269 211.798 129.93 213.684 130.115C215.505 130.293 217.504 130.051 219.929 129.003C221.557 128.31 223.064 127.247 224.692 126.094C228.343 123.515 232.565 120.526 240.817 119.18L241.454 123.096C234.121 124.297 230.285 127.005 226.981 129.35C225.176 130.615 223.524 131.792 221.485 132.662C218.374 134 215.739 134.314 213.297 134.072C210.912 133.83 208.825 133.089 206.657 132.267C205.271 131.743 204.038 131.042 202.732 130.293C200 128.729 196.89 126.948 192.183 127.069C186.986 127.206 183.448 130.083 179.958 132.92L179.04 133.669C177.041 135.281 175.002 136.804 172.657 137.965C170.232 139.157 167.524 139.939 164.3 139.963C159.352 140.003 156.08 137.924 153.018 135.982C150.48 134.362 148.11 132.855 145.105 133.355C144.895 133.967 144.653 134.572 144.387 135.16C147.546 135.209 150.375 136.885 153.445 138.69C156.596 140.543 160.053 142.582 164.284 142.574C166.863 142.574 169.111 142.034 171.15 141.156C173.221 140.261 175.091 139.004 176.864 137.578L176.896 137.546C177.557 137.014 178 136.643 178.451 136.272C182.328 133.033 186.655 129.422 192.868 129.261C198.63 129.116 202.136 131.236 205.23 133.113C206.415 133.83 207.527 134.499 208.631 134.918C210.46 135.611 212 135.998 213.684 135.99C215.408 135.974 217.407 135.547 220.163 134.596C222.057 133.943 223.725 132.992 225.522 131.961C229.165 129.882 233.307 127.504 241.124 126.175L241.776 130.099Z" fill="#1D1D1B"/>
<path d="M167.645 26.2149V13.1195H172.407C173.165 13.1195 173.785 13.2404 174.253 13.4741C174.72 13.7078 175.107 14.1349 175.421 14.7554C175.728 15.3759 175.889 16.1979 175.889 17.2133C175.889 17.9869 175.8 18.6478 175.639 19.2038C175.47 19.7599 175.228 20.2031 174.906 20.5415C174.583 20.88 174.172 21.1379 173.673 21.3152C173.302 21.4522 172.802 21.5166 172.174 21.5166H169.893V26.2229H167.645V26.2149ZM169.885 15.3759V19.2522H172.004C172.367 19.2522 172.673 19.1796 172.923 19.0265C173.173 18.8734 173.35 18.6478 173.471 18.3415C173.592 18.0353 173.648 17.6727 173.648 17.2697C173.648 16.6573 173.503 16.1899 173.205 15.8675C172.915 15.5452 172.512 15.384 172.004 15.384H169.885V15.3759Z" fill="#1D1D1B"/>
<path d="M166.927 33.5885V31.3321H175.719V33.5885H172.44V44.4274H170.207V33.5885H166.927Z" fill="#1D1D1B"/>
<path d="M166.283 62.6884L170.127 49.5931H172.681L176.477 62.6884H174.043L173.35 59.9888H169.385L168.636 62.6884H166.275H166.283ZM169.99 57.7243H172.738L171.4 52.5426H171.376L169.99 57.7243Z" fill="#1D1D1B"/>
<path d="M169.256 77.5164C169.273 77.9758 169.361 78.3545 169.514 78.6446C169.667 78.9347 169.917 79.1684 170.272 79.3538C170.634 79.5311 171.062 79.6278 171.585 79.6278C172.319 79.6278 172.875 79.4666 173.245 79.1523C173.616 78.838 173.801 78.4432 173.801 77.9596C173.801 77.6615 173.729 77.4116 173.592 77.2182C173.455 77.0168 173.237 76.8475 172.955 76.7105C172.738 76.6138 172.367 76.4849 171.851 76.3398L170.699 76.0094C169.941 75.7919 169.377 75.5904 168.99 75.405C168.604 75.2116 168.297 74.986 168.064 74.72C167.83 74.4541 167.645 74.1156 167.5 73.6966C167.363 73.2775 167.29 72.8263 167.29 72.3347C167.29 71.3757 167.459 70.5859 167.814 69.9574C168.16 69.3288 168.66 68.8694 169.313 68.5713C169.966 68.2731 170.667 68.1281 171.4 68.1281C171.948 68.1281 172.464 68.2006 172.939 68.3537C173.415 68.5068 173.818 68.7083 174.148 68.9581C174.478 69.2079 174.752 69.5141 174.97 69.8607C175.188 70.2072 175.341 70.5698 175.437 70.9325C175.534 71.2951 175.591 71.7786 175.607 72.375H173.447C173.439 71.9559 173.366 71.6175 173.245 71.3757C173.084 71.0614 172.834 70.8196 172.504 70.6504C172.174 70.4731 171.771 70.3925 171.287 70.3925C170.651 70.3925 170.175 70.5457 169.837 70.8358C169.506 71.1339 169.345 71.5288 169.345 72.0284C169.345 72.4556 169.466 72.7779 169.716 72.9955C169.861 73.1244 170.264 73.2775 170.916 73.4548L173.125 74.0754C173.963 74.3091 174.599 74.6636 175.043 75.1391C175.639 75.7677 175.937 76.6138 175.937 77.6695C175.937 78.5318 175.768 79.2813 175.413 79.926C175.067 80.5706 174.543 81.0542 173.842 81.3846C173.133 81.723 172.335 81.8842 171.448 81.8842C170.739 81.8842 170.078 81.7633 169.482 81.5216C168.878 81.2798 168.41 80.9494 168.072 80.5384C167.733 80.1194 167.483 79.652 167.322 79.112C167.193 78.7172 167.121 78.1853 167.097 77.5164H169.248H169.256Z" fill="#1D1D1B"/>
<path d="M162.374 165.453C94.1817 165.453 76.9845 115.247 76.9361 115.102L76.227 113.12H68.5712C68.2569 108.55 67.9427 103.973 67.7251 99.4119C70.4247 96.5591 71.6497 92.296 70.594 88.1136C69.6592 84.4146 67.1368 81.6022 64.0181 80.2886C63.462 79.5472 62.8173 78.8703 62.0437 78.2256C59.4488 76.0739 57.6517 74.3413 57.1199 70.8116C56.8539 69.0709 56.9184 66.339 57.8774 64.7595L59.2796 62.6965H61.9148C63.8247 62.6965 65.3881 61.1331 65.3881 59.2232C65.3881 57.3133 63.8247 55.7499 61.9148 55.7499H32.8713C30.9614 55.7499 29.398 57.3133 29.398 59.2232C29.398 61.1331 30.9614 62.6965 32.8713 62.6965H34.7167L35.1841 63.9537C36.1754 66.6936 36.5944 70.6424 36.0142 73.471C35.6596 75.1955 34.9504 76.09 34.1607 77.6131C33.7819 78.3384 33.4435 79.0718 33.1453 79.8051C28.294 82.1099 25.5943 87.8638 27.0207 93.4807C27.6815 96.1078 29.1401 98.2836 31.05 99.7987C30.9614 104.239 30.8889 108.679 30.8244 113.12H2.11938V119.099H30.7357C30.6068 128.463 30.4295 137.852 30.4295 147.208C30.4295 155.661 36.4816 163.994 40.9461 170.852C43.7344 175.115 47.5784 182.956 47.9007 187.977C48.1264 191.426 48.626 196.583 52.8649 197.373C53.7997 197.55 53.9609 197.526 54.7828 197.349C58.8686 196.479 59.062 191.764 59.2796 188.436C59.5778 183.851 61.4554 177.919 63.3009 173.769C66.3873 166.815 70.9405 153.276 70.7068 145.765C70.594 142.389 70.328 138.956 70.1024 135.587C69.7478 130.22 69.3771 124.861 69.0145 119.502C69.0064 119.365 68.9983 119.236 68.9903 119.099H72.0929C76.2673 128.866 98.1385 171.432 162.374 171.432H247.708V165.453H162.374ZM66.758 145.894C66.9595 152.051 62.8335 165.09 59.6906 172.166C56.5557 179.241 55.5081 185.664 55.3389 188.186C55.1777 190.709 55.0488 193.263 53.9689 193.489C52.889 193.723 52.1315 192.312 51.8414 187.727C51.5433 183.142 48.4407 175.115 44.2501 168.692C40.0677 162.27 34.3702 154.412 34.3702 147.208C34.3702 143.751 34.5072 131.526 34.6764 119.099C34.7087 117.101 34.7409 115.094 34.7651 113.12C34.9424 101.781 35.1358 91.4418 35.2728 88.8872C35.5307 84.2132 36.6025 81.4491 37.6581 79.4344C38.5285 77.7662 39.3746 76.7589 39.8823 74.2607C41.067 68.4665 38.8831 62.5918 38.8831 62.5918H54.5814C54.5814 62.5918 52.3652 65.8394 53.2195 71.4079C54.0656 76.9765 57.6276 79.6923 59.5294 81.2637C61.4232 82.8351 63.2283 85.2931 63.6152 95.8419C63.7521 99.5327 64.1551 105.996 64.6305 113.12C64.7595 115.078 64.8884 117.085 65.0254 119.099C65.8152 130.712 66.6533 142.477 66.758 145.894Z" fill="#1D1D1B"/>
<path d="M108.131 44.8304C110.476 42.5176 113.087 39.8099 114.772 36.9732C118.164 31.2757 117.794 21.4925 113.313 16.4155C110.831 13.6031 107.438 12.3459 103.731 12.3862C97.2199 12.4507 90.644 13.7642 85.97 18.8895V34.4831H98.3481L98.3239 31.0098C98.3239 30.0589 98.34 26.2794 99.3876 25.6749C99.6778 25.5057 100.105 25.401 100.427 25.3365C100.927 25.2317 102.015 25.1189 102.466 25.4251C102.611 25.5218 102.732 25.6427 102.837 25.7797C103.884 27.1497 103.199 29.5753 102.047 30.6955C99.847 32.8552 97.7517 35.2567 95.6807 37.5534C93.6338 39.8179 91.5304 42.2758 89.3465 44.3953C87.348 46.3374 85.4945 49.4319 85.5187 52.3169V68.7889H117.157V48.7792H103.989C105.375 47.4656 106.761 46.1682 108.115 44.8304H108.131ZM105.996 56.7895C106.753 54.2833 106.786 52.2283 106.786 52.2283H113.732V65.3559H88.9839V52.3169C88.9839 52.3169 88.9517 49.6092 91.7641 46.8773C94.5766 44.1454 101.386 36.1996 104.481 33.1615C107.575 30.1233 107.599 24.7079 104.392 22.5724C103.191 21.7665 101.443 21.6053 99.71 21.9841C96.833 22.6046 94.8345 24.0229 94.8909 31.0581H89.4271V20.1145C89.4271 20.1145 92.7473 15.9562 103.78 15.8434C114.804 15.7305 114.973 29.9219 111.822 35.2245C108.671 40.519 99.8712 47.4495 97.3649 50.6568C94.8587 53.8642 95.2535 56.5719 95.1407 59.2474H101.692C101.692 59.2474 105.238 59.3038 105.996 56.7976V56.7895ZM103.111 54.0818C102.788 55.2906 101.999 55.2745 101.999 55.2745H99.025C100.048 52.8085 103.409 49.8671 103.409 49.8671C103.409 49.8671 103.433 52.873 103.111 54.0818Z" fill="#1D1D1B"/>
<path d="M145.33 33.0809C143.203 31.3725 140.648 30.6472 137.948 30.623C136.03 30.5263 134.024 30.8889 132.146 31.6142V26.4083H137.199C137.271 26.5937 137.288 26.9644 137.288 27.1094L137.32 30.5182H149.964V12.9503H119.542V46.281H132.573L133.492 44.4114C133.895 43.7103 134.685 43.3074 135.482 43.3074C135.821 43.3074 136.216 43.3396 136.522 43.4927C137.997 44.1938 138.126 48.3199 138.126 49.5931C138.126 50.8664 138.005 55.1778 136.675 55.9192C136.377 56.0884 135.934 56.1207 135.603 56.1207C135.071 56.1207 134.209 56.0804 133.734 55.7902C132.751 55.1858 132.622 52.4056 132.614 51.4547L132.565 48.062H119.526V64.3486L120.767 65.3801C121.912 66.331 123.62 67.1772 124.99 67.7171C128.52 69.1112 132.38 69.5948 136.159 69.3852C147.417 68.7728 151.011 61.794 151.011 51.3177C151.011 45.2737 150.415 37.1747 145.314 33.0809H145.33ZM135.99 65.9442C127.416 66.4116 122.983 62.7288 122.983 62.7288V51.495H129.181C129.277 57.9258 131.792 59.5536 135.611 59.5536C139.431 59.5536 141.575 56.8943 141.575 49.577C141.575 42.2597 139.077 39.8502 135.482 39.8502C131.888 39.8502 130.43 42.8158 130.43 42.8158H122.983V16.3914H146.515V27.0772H140.721C140.672 22.9028 137.263 22.9673 137.263 22.9673H128.681V37.9645C132.444 33.7417 137.827 34.0641 137.827 34.0641C145.701 34.0641 147.562 41.6876 147.562 51.3177C147.562 60.9478 144.548 65.4768 135.966 65.9442H135.99Z" fill="#1D1D1B"/>
</g>
<defs>
<clipPath id="clip0_584_16607">
<rect width="256" height="256" fill="white"/>
</clipPath>
</defs>
</svg>
