<?xml version="1.0" encoding="UTF-8"?>
<svg id="Calque_1" data-name="Calque 1" xmlns="http://www.w3.org/2000/svg" version="1.1" viewBox="0 0 849.8 850.1">
  <defs>
    <style>
      .cls-1 {
        fill: #d62628;
      }

      .cls-1, .cls-2 {
        stroke-width: 0px;
      }

      .cls-2 {
        fill: #1f1d1c;
      }
    </style>
  </defs>
  <path class="cls-2" d="M181.6,530.5c-2-2.3-3.9-4.7-5.4-7.4-2.9-5.1-5.5-10.4-7.1-16.2-.9-3.4-1.8-6.9-2.7-10.4-1.2.6-1.5,1.8-2.2,2.7-1.4,2-2.9,3.9-5,5.4-2.8,2-5.9,2.7-9.2,2.2-2-.3-4.1,0-5.9-1.3-.2-.1-.4-.2-.6-.3-1.2-1-1.4-1.7-.8-3.1,1.3-2.7,3.8-3.5,6.5-1.9,2.3,1.4,4.3,1,6.6-.2,2.5-1.4,3.7-3.8,5.1-6,1.9-2.9,2.7-6.2,4-9.3.3-.6.2-1.4.2-2.1-.5-7.7.4-15.3,1.9-22.9.4-2,.8-4.1,1.2-6.1.3-1.2-.1-1.8-1.3-2.1-4.2-1-6.4-3.9-7.6-7.8-1.4-4.7-1.1-9.3,1.1-13.7.8-1.7,1.8-3.4,4.3-3.5-.3,1.1-.9,1.8-1.4,2.6-3.8,5.9-1.5,12.4,1.2,15.9.6.8,1.4,1.3,2.3,1.7,2.3.9,3,.6,4-1.7,1.6-3.7,3-7.4,4.7-11,.6-1.2.4-2-.5-3-2.7-3-5.1-6.1-7.1-9.6-2.8-4.9-4.7-10.2-4.9-15.9,0-2.6.2-5.1,1.6-7.4.2-.3.3-.7.8-.7.4.7.1,1.4,0,2-1,3.2-.9,6.5,0,9.7,2.6,10.4,8.4,18.5,17.3,24.5,2.7,1.8,5.7,2.9,8.9,3.1,3.6.3,5.7-1.2,6.9-4.6,1.4-4,.8-7.9-.3-11.8-2.4-7.8-6.7-14.5-12.9-19.8-2.7-2.3-5.6-3.9-9.2-4.4-1.1-.1-2.2-.5-3.1-1.2-.7-.5-1.2-1.1-1.1-2,.1-1,.9-1.5,1.7-1.9.9-.4,1.9-.1,2.8,0,6,1.2,10.6,4.6,14.7,8.9,5.9,6.2,9.9,13.5,11.7,21.9.7,3.6.7,7.2-.2,10.7-1.3,5.3-6,8.3-11.4,7.4-3.3-.6-6.3-1.7-9.1-3.4-1.5-.9-1.8-.8-2.5.7-3.7,7.7-6.6,15.7-7.3,24.4-.5,6.6-.9,13.2-1,19.9-.2,7,1,13.9,2.3,20.7.9,4.3,3.8,7.3,7.2,9.8.5.4,1.2.5,1.8.7.9.2,1.6-.2,1.8-1.1.2-.8.4-1.6.4-2.4.4-8.8,3.2-16.9,7.6-24.5,7.7-13.2,18.7-22.7,32.5-29.1,13.4-6.3,27.5-9.9,42.4-9.7,8.9.1,17.7,1.1,25.8,5.3,1.7.9,3.4,1.8,5,2.8,1.7.9,1.9.9,2.8-.8,2-3.8,3.8-7.7,5.8-11.6.7-1.5,1.5-3,2.2-4.5.6-1.3,1-2.7.7-4.2-.6-3.3-1.3-6.5-2-10-1.6,1-2.7,2.3-3.8,3.5-5.3,5.2-11.5,8.9-18.8,10.5-11.8,2.5-21.8-.6-29.9-9.6-5.2-5.8-8.3-12.7-9.7-20.3-1-5.5-3.7-10.1-7.7-14-9.7-9.5-18.3-19.8-24.5-32.1-1.6-3.2-3.9-5.8-6.6-8.2-3.1-2.9-6.5-5.5-8.9-9-.4-.6-.8-.6-1.4-.4-.9.4-1.8.8-2.6,1.2-6.9,3.2-13.8,6.3-20.7,9.5-.8.4-1.6.7-2.4,1-.8.3-1.4-.1-1.7-.9-.3-.7,0-1.3.6-1.6,1.2-.7,2.4-1.3,3.6-1.9,6.8-3.1,13.6-6.2,20.5-9.4,2.6-1.2,2.5-1.2,2.1-4-.4-2.8-.4-5.6.5-8.3,1-3.4,2.9-4.3,6.1-2.9.9.4,1.3.3,1.6-.6.3-1,.7-1.9,1.2-2.9,1.3-2.4,2.6-2.7,4.8-.9.3.3.6.5.9.8.8-.2,1.2-.8,1.7-1.3,1.3-1.4,2.9-1.8,4.6-1.2,1.8.6,2.5,2.1,2.6,3.9.1,1.2.3,2.5.4,3.7,1.1.2,1.2-.6,1.5-1.1,1.3-1.9,2.9-2.9,5.3-2,1.4.5,2.8.1,4.2-.5,3.7-1.7,7.4-3.4,11.1-5,.7-.3,1.4-.7,2.3-.7.6,0,1.2,0,1.4.7.2.6,0,1.2-.4,1.5-.7.4-1.4.8-2.1,1.2-4,1.9-8.1,3.8-12.2,5.6-1.1.5-1.6,1.1-1.9,2.2-.6,2.9-1.8,5.4-3.2,7.9-2.6,4.6-3.6,9.5-2.7,14.8.1.9.3,1.7.7,2.5,4.7,9.3,10.7,17.6,18.9,24.2.9.8,1.9,1.4,3.1,1.7,1.2.3,2.2,0,2.8-1.2,1-2,2-4,3-6,.7-1.5.7-1.6-.8-2.6-5.2-3.3-6.7-8.5-6.9-14.2,0-.6-.2-1.3.5-1.7.8,0,.8.6.9,1.2.4,1.8.9,3.6,1.3,5.3.6,2.5,1.8,4.8,3.6,6.7.7.7,1.4,1.3,2.4,1.4.8.1,1.4,0,1.9-.7,1.1-1.3,2.1-2.6,3.2-3.9.8-.9.4-1.4-.5-1.8-2.1-.8-3.3-2.4-4.3-4.3-1.8-3.5-2.7-7.1-2.4-11.1,0-.5.2-.9.3-1.4,0-.5.2-1,.7-1.1.7,0,.9.5,1,1.1.2,1.6.4,3.2.6,4.7.3,2.1,1,4.2,1.6,6.2.3.9.8,1.7,1.4,2.5,1.8,2.1,3.9,2.3,6.1.8.3-.2.5-.4.8-.6,2-1.6,2-1.6.7-3.9-1.9-3.4-2.6-7-2.1-10.8.1-1,.4-1.9,1.1-2.6,1-1,2.2-.7,2.4.8.2,1.3.2,2.5.3,3.8,0,1.7,0,3.4.4,5,.2.8.5,1.5.9,2.2,1,1.7,1.4,1.8,3.3,1.1,2.6-.9,5.1-1.8,7.7-2.6,1.8-.6,2.9-1.8,3.8-3.4,5.1-10.3,9-21,12.4-31.9,3.8-12.2,6.7-24.6,9.3-37.2,0-.5.2-.9.2-1.4,0-1.4-.4-1.8-1.7-1.5-8,1.9-15.1-.8-22-4.4-.9-.5-2.4-.9-2-2.3.5-1.5,1.9-.8,2.9-.7,3.6.4,7-.2,10.4-1,4.1-.9,8-2.3,11.7-4.1,2.9-1.3,3.9-3.7,3-6.7-.2-.6-.6-.7-1.1-.7-1,0-2.1.2-3.1.3-9.6,1.2-18.8-.3-27.5-4.6-.1,0-.2-.2-.3-.3-.1-.1-.1-.3,0-.4,2-1,2.3-3,2.9-4.8,5.6-15.1,11.4-30.2,16.7-45.4,2.7-7.6,5.5-15.1,8.2-22.6,1.9-5.3,3.9-10.6,5.9-15.8,2.9-7.7,5.8-15.3,8.5-23.1.7-2.1,1.6-4.1,2.3-6.2.2-.6.5-.7,1-.7.6,0,1.1,0,1.7,0,10,0,20,0,30,0,1.6,0,2.3.5,3,1.9,4.1,8.2,8.2,16.5,12.5,24.6,3.2,6.1,6.2,12.4,9.5,18.5,6.5,12.5,12.9,25.1,19.3,37.6,3.4,6.5,6.6,13.1,10,19.6,5.8,11.3,11.6,22.6,17.4,33.9.3.7.9,1.3.9,2.3-2.1,0-4.1,0-6.2,0-3.9,0-7.8,0-11.8,0-1.3,0-1.6.4-1.6,1.6.1,4.3.5,8.6.8,12.9.7,9.3,2.1,18.6,3.6,27.8.5,3.1,1.2,6.1,1.9,9.1,1.2,4.8,2.1,9.7,3.7,14.4.8,2.4,2.4,3.7,4.7,4.2,6,1.2,11.3,4,15.9,7.9,3.6,3,6.5,6.5,8.6,10.7.1.3.2.6.6.7.6,0,.5-.5.7-.8,1.5-3.2,2.2-6.5,1.8-10.1-.2-1.4-.8-2.7-1.2-4-1.1-3.5-1.9-7-2.3-10.7-.5-4.3-.6-8.6-.4-12.9.5-7,2-13.8,5.3-20,2.2-4.1,4.9-7.8,8-11.2,6.2-6.8,13.8-11.3,22.5-13.8,6.8-2,13.8-2.8,21-2.2,7.6.6,14.8,2.8,21.6,6.1,4.9,2.4,9.4,5.5,13.5,9.2,2.8,2.5,5.4,5.2,7.7,8.2.2.2.5.4.9.7.4-1.8.7-3.5.9-5.2.2-1.9.5-3.8,1.1-5.6.9-3.1,1.3-6.2,1.8-9.3.3-2.1.7-4.2,1.3-6.2.9-3.1,1.4-6.2,1.9-9.4.3-2.4,1-4.7,1.4-7,.6-3.3,1.3-6.5,1.7-9.9.5-3.7,1.7-7.4,2.4-11.1.5-2.9.5-5.9,1.4-8.7,1-2.9,1.1-5.9,2-8.8.5-1.6.3-3.2.8-4.8.9-3.3,1.4-6.6,2-9.9.5-2.7.7-5.5,1.4-8.2.5-1.8,1-3.6,1.3-5.5.5-3.2.7-6.5,1.6-9.6.9-2.9,1.3-5.9,2-8.8.5-2,.3-4.3.9-6.2.9-2.7,1.3-5.4,1.8-8.1.6-2.9.8-6,1.5-8.9.5-2,1.1-4,1.4-6,.5-3,.6-6,1.5-8.9.9-3,1.3-6,2-9,.7-2.9.6-2.9,3.4-2.2,11,3,21.8,6.6,32.3,11.2,12.7,5.5,24.8,12.1,36.2,19.9,8.5,5.8,16.1,12.7,22.9,20.4,6.5,7.4,11.9,15.4,16,24.3,4.3,9.4,7.5,19.1,8.3,29.5.6,7.8.3,15.5-1,23.2-1.4,8.4-3.4,16.7-6.6,24.7-2.9,7.3-7,14-11.9,20.2-5.7,7.3-12.6,13.2-20.5,18-4.1,2.5-8.4,4.6-12.9,6.4-5.9,2.4-12.1,3.8-18.3,5.2-8.6,1.9-17.3,2.8-26,3.2-7.2.4-14.4.1-21.5-.6-7.6-.8-15.2-1.7-22.8-3.1-.4,0-.8,0-1.3-.1-.4,1.7,0,3.3.2,5,.3,5.4-.4,10.6-1.7,15.8-2.5,9.7-7.4,18-14.6,24.9-3.1,3-6.6,5.5-10.3,7.5-2.3,1.3-4.7,2.6-7.4,3.2-2.2.5-4.3,1.6-6.7,1.9-.6,0-1.3.5-1.8,1.1-1.8,2.5-3.7,4.9-5.6,7.4-.8,1.1-1.4,2.4-1.7,3.8-.7,3.4-2.6,6.4-4.3,9.4-1.7,2.9-2.4,5.9-1.8,9.2.2.9.7,1.6,1.6,1.9,2.6.9,5.3,1.6,8,2,.7.1,1,0,1-.9,0-.6.5-1.1.5-1.7.1-1.1.4-2.4,1.3-3.1,2.6-2.2,3.6-5.3,4.8-8.2,2-4.5,5-8,9.2-10.5,1.4-.9,2.8-1.9,4.4-2.4.5-.1,1.1-.4,1.7,0,0,.6,0,1.3-.4,1.9-1.1,1.5-2.2,2.9-3.7,4-4.2,2.9-7,6.8-8.9,11.5-.3.9-.7,1.8-1.1,2.6-.5,1-1,2.1-2.2,2.7-1.4.6-2,2-2.3,3.4-.4,1.7.1,3,1.5,3.9,7,4.5,11.2,11,13.7,18.8.2.6.4,1.2.6,1.8.5,1.4,1.3,1.6,2.3.4,1.4-1.8,2.6-3.7,3.8-5.7,1.4-2.3,2.8-4.7,4-7.1,1.2-2.3,2.1-4.8,3.3-7.2,1.4-2.9,2.6-6,3.6-9.1,1.2-3.7,2.5-7.4,3.6-11.1,1.1-3.6,1.9-7.2,2.8-10.8,1.7-7.2,2.9-14.5,2.4-21.9-.2-3.6-.2-7.3-1.8-10.8-.2-.5-.2-1.3-.2-1.9,0-3.8.5-3.8,3.5-3.1,7.4,1.6,14.9,1.6,22.4.9,7.4-.7,14.7-1.7,22-3.2,10.1-2,20.1-4.7,29.8-8.2,8.7-3.1,17.3-6.6,25.4-11,3-1.6,5.8-3.5,8.8-5.1,1.1-.6,2.3-1.3,3.7-.7,1.4.7,2.1,1.7,1.7,3.2-.3,1-.8,2.1-1.3,3.1-7.4,13.2-13.4,27-18.8,41.2-3.6,9.7-6.9,19.6-9.8,29.5-2.6,8.9-4.9,17.8-6.7,26.9-.1.6-.2,1.3-.2,1.9-.1,2.2.2,2.7,2.2,2.1,3.8-.9,7.6-.7,11.4-1.1,2-.2,3-1.1,3.1-3.1.1-3.1.8-6.1,2.1-8.9,1.6-3.2,3.3-6.2,5.6-8.9.1-.1.2-.2.3-.3,1.5-1.2,2.3-1.1,2.9.7.5,1.5.8,3,1.5,4.5,1,1.9,1.9,3.8,3.6,5.3,1.3,1.2,1.1,1.4-.5,2.1-2.5,1.2-5.5,1.6-7.3,4.6.6.1,1.3.3,1.7,0,.6-.5,1.3,0,1.8-.4.6-.4,1.3-.2,1.8-.5.6-.2,1.3-.2,1.8-.5,1.8-.8,2.8.2,3.9,1.6-2.8.9-5.9,0-8.6,2.2,2,.2,3.7.3,5.3.4,1.2,0,2.3.5,3.2,1.4.2.2.3.3.5.5.8,1,0,1.7-.5,2.5-.6,1-1.3,2.1-2.5,2.4-.3,0-.7-.6-1.1-.8-1.4-.8-2.6-2-4.4-1.8-.4,0-.8,0-1,.5-.2.6.2.9.5,1.2,1,.7,2.1,1.5,3.1,2.2,7.6,5.1,12.2,12.5,15,21.1.4,1.3.9,2.7,1.3,4,.3,1,.7,1.3,1.7.9.8-.3,1.7-.5,2.6-.4,1.1.1,1.4.6.9,1.6-1.6,2.9-4.1,4.4-7.9,3.8-1.6-.3-3-1-4.3-2-.8-.6-1.5-1.2-2.4-1.6-1.9-1.1-3.9-1.3-6-.3-.6.3-1.3.6-2,.9-.4.2-.8.2-1-.2-.3-.4-.3-.8,0-1.1.3-.4.7-.8,1.2-1.2,2.6-1.8,5.4-2.1,8.4-1.1,1,.3,1.9.9,2.9,1.2,1.1.4,1.5.2,1.3-1-.6-3.1-1.7-6.2-3.2-9-5.3-10-13.6-16-24.6-17.9-5.2-.9-10.3-.1-15.3,1.6-8.2,2.8-14.9,7.8-20.5,14.5-.8,1-1.5,2.1-2.8,2.5-.6-.5-.3-1-.1-1.5,1-2.7,2.6-4.9,4.6-7,3.9-4,8.5-7.3,13.2-10.3,1.3-.8,1.9-1.8,2.2-3.2,1.5-6.7,2.6-13.5,4.2-20.2,6.1-25.8,14.8-50.7,26.7-74.4.6-1.3,1.4-2.5,1.8-4-.9-.2-1.5.3-2.1.6-17.7,9.7-36.8,15.7-56.5,19.9-10.1,2.1-20.3,3.4-30.6,3.6-3.7,0-7.5-.4-11.2-.6-2.1-.1-2.5.2-2.2,2.2,1.6,9.9.8,19.8-1.1,29.6-2.2,11.3-5.5,22.2-10.4,32.5-4.2,8.7-8.9,17-15.9,23.8-1,1-1.4,2.3-1.5,3.7-.3,3.4-.6,6.8-.9,10.3,0,.8-.3,1.6-.6,2.3-.6,1.4-1.7,1.8-3.1,1.2-1.9-.8-3.2-2.8-3.1-4.9.1-2.1.5-4.1.5-6.2.2-5.2-.5-10.4-2.4-15.3-3.5-8.7-10.2-13.4-19.2-15.2-8.9-1.8-17.1,0-24.9,4.3-9.3,5.1-16,12.6-20.5,22.1-.4.9-.8,1.9-.9,3.1,2.7,1.2,5.6,1.5,8.5.9,2.8-.6,5.5-1.7,8.2-2.7.5-.2,1-.7,1.5,0,.3.5,0,1.1-.4,1.5-1.6,1.7-3.5,3-5.7,3.9-3.4,1.5-7,1.7-10.6,1.5-.6,0-1.1,0-1.7-.1-.9-.1-1.3.3-1.7,1-1,2.1-1.4,4.3-1.2,6.5,0,1,.6,1.8,1.3,2.5,1.5,1.5,1.5,3.2.6,4.8-.8,1.4-1.3,2.8-1.1,4.5.1.9-.4,1.1-1.1.7-.9-.5-1.2-1.4-1.7-2.2-1-1.5-1.2-1.6-2.9-1-3,1.1-5.2,3-6.7,5.8-1.5,2.7-1.3,5.5.1,8.3,1.4,2.9,3.6,5,6.2,6.9,2.2,1.6,4.7,2.6,7.4,3.4,1.2.4,2.1.1,3-.9.6-.7,1.3-1.4,2.1-2,1.5-1.1,2.2-2.5,2.4-4.4.4-3.8,3.1-5.8,7-5.5,5.7.5,10.3,5.9,9.7,11.6-.2,1.6-.4,3.2-1.2,4.6-.4.6-.7,1.2-1.2,1.8-.6.8-1.5,1-2.4.6-1-.5-1.2-1.5-.8-2.5.3-.8.8-1.6,1.1-2.4,1.8-4.3,0-8.8-4.3-10.4-2.3-.9-3.3-.5-4.7,1.9.9.8,2.1.5,3.2.8.9.3.9.7.7,1.4-.3.8-.8,1.3-1.5,1.8-4.1,2.5-7.2,6-10,9.9-3.3,4.5-6.5,9.1-9.7,13.7-4.8,6.9-8.1,14.4-10.9,22.3-3,8.4-6.9,16.5-11.7,24.1-4.2,6.7-9.7,12.3-17,15.7-5.7,2.7-11.6,3.5-17.7,2-3.5-.9-6.4-2.8-8.9-5.4-3.4-3.6-3.9-7.9-2.9-12.5.2-1.2.7-2.3,1-3.4.3-.8,0-1.4-.8-1.3-2.7.4-5.4,0-8.1.6-1.5.3-1.8.7-1.3,1.9,2.2,5.5,1.3,11,.6,16.6-.7,5.9-1.8,11.9-1.6,17.9,0,1.4.2,2.9.5,4.3.9,4.7,3.4,8.2,7.8,10.2,3.4,1.6,7,2.7,10.8,3.1,4.5.4,8.7-.6,12.7-2.7,5.9-3.2,10.9-7.5,15.3-12.5,6.1-6.8,10.9-14.4,15.2-22.4.7-1.3.7-2.1-.5-3.1-1-.9-1.9-1.9-2.6-3.1-1.3-2.4-1-4.4,1.1-6.2.8-.7,1.7-1.2,2.6-1.7.8-.4,1.1-1,1-1.9-.1-1-.2-2.1-.1-3.1,0-1.9.9-3.3,2.7-4.2,2-1,2-1.1,1.6-3.4-.2-.9-.3-1.7-.4-2.6-.2-3,1.4-4.7,4.3-4.8.2,0,.5,0,.7,0,2.9.1,2.9.1,4-2.6,2.6-6.2,5-12.4,7.6-18.6,2.2-5.2,5.2-9.9,8.7-14.3,1.3-1.6,2.6-3,4.4-4.1,1-.6,1.9-1.1,3.1-1,.5,1.2,0,2.2-.6,3.2-1.6,2.8-1.4,3.3,1.3,5.2,4.9,3.4,10.5,5,16.3,5.7,1.7.2,3.5.2,5.3.4,1.8.2,3.3-.4,4.5-1.7,1.4-1.4,2.9-2.8,4.3-4.2.4-.4.8-.8,1.4-.9.8-.2,1.6-.2,2.2.5.5.6.6,1.3.3,2-.4.8-.7,1.6-1.3,2.3-8.2,10.3-13.1,22.2-16.8,34.7-.9,2.9-1.6,5.9-2.3,8.8-.2.6-.1,1.4-.9,1.6-.7.2-1.1-.5-1.4-1.1-.4-1-1.1-1.2-2.1-1-6.2.9-12.5,1.9-18.4,4.1-2.3.8-2.9.4-2.6-2.1.5-6.2-1.7-11.1-7.2-14.3-.6-.4-1.4-1.4-2.2-.2-.9,1.2-.9,1.8.2,2.9,1.5,1.6,3,3.1,4.6,4.6.4.5,1,.9,1.1,1.5.1.6,0,1.1-.3,1.6-.5.6-1,.2-1.5,0-.5-.3-1.1-.7-1.6-1.1-2.7-2.1-5.3-4.3-8.1-6.4-.8-.6-1.8-1.7-3-.9-1.3.8-.7,2.1-.4,3.3.4,2.2,1.7,3.9,3.4,5.4,1.1,1,2.3,1.9,3.7,2.7.4.2.9.4,1.2.8.6.6,1.7,1,1.1,2.1-.6,1-1.4.3-2.1,0-1.9-.6-3.7-1.5-5.4-2.5-1.1-.6-2.2-.9-3.4-1.1-1-.1-2,0-2.4,1-.5,1.1-.5,2.2.3,3.2.5.5,1.1,1,1.7,1.3,1.6.9,3.2,1.8,4.8,2.7.8.4,1.5.9,2.1,1.6.4.5.7,1.1.4,1.7-.4.7-1,.6-1.7.5-2.1-.5-4.2-1-6.2-1.9-.9-.5-1.9-.8-3-.7-2.1.3-2.8,1.8-1.6,3.5.6,1,1.4,1.7,2.4,2.3,3.7,2,7.7,3,12,3,3.3,0,6.2-1.3,8.7-3.4,1.4-1.2,2.9-2.1,4.7-.8.5.3,1.1,0,1.6,0,8.9-2.1,17.9-4.2,26.8-6.3,2.5-.6,4-2.2,4.9-4.5,3.3-8.2,6.6-16.3,9.9-24.4,3.2-7.8,6.3-15.5,9.5-23.3,1-2.5,2.5-4.4,4.7-5.8,7.4-4.8,13-11.4,17.6-18.8,12.7-20.5,22.7-42.1,28.4-65.7,1.7-7.1,2.7-14.5,4.2-21.6.5-2.3,1-4.5,1.4-6.8.9-5,.4-10-.8-15-.6-2.8-.1-4,2.4-5.1,1.4-.6,2.5-.5,2.9.9,1,3.3,3.6,3.4,6.3,3.4,5.7,0,11.1-1.3,16.5-2.7,7.5-1.9,14.6-4.6,21.5-7.9,4.8-2.3,8.8-5.7,13.1-8.9.6-.4,1.1-.9,1.7-1.2,1-.5,2-.3,2.8.6.7.7.7,1.6.2,2.4-.4.7-.8,1.4-1.3,2-7.1,9.1-12,19.4-16,30.1-6.6,17.5-11.1,35.5-13.6,54-1.8,13.3-2.8,26.6-2.3,39.9.3,6.6,1.2,13,3.3,19.3,1,3.1,2.6,6,4.7,8.5.8,1,1.6,1.3,2.5.2.6-.7,1.5-1,2.4-.6,1,.5,1.4,1.5,1.3,2.6-.1,1.6-.3,3.2-.4,4.8-.5,4.4,0,8.8,1,13.1,1.7,6.7,3.9,13.2,7.3,19.2,4.9,8.5,12,14,21.8,15.6,4.3.7,8.6.8,12.7-1.1,2.2-1,4.5-1.7,6.7-2.6.8-.3,1.5-.8,2.3-1.2,1.3-.7,1.7-1.6,1-2.9-.1-.3,0-.6-.2-1.1,1.1,0,1.9.5,2.7.8,7.6,2.8,16.5,0,21.2-6.5,1.3-1.8,2.1-3.8,2.4-5.9.4-2.7-.9-4.3-3.7-4.3-2.3,0-3.9,1.1-5.2,2.9-2.1,2.8-4.1,5.5-6.2,8.3-.5.7-1,1.2-1.7,1.6-.5.3-.9.1-1.3-.2-.6-.4,0-.9.2-1.2,2.4-3.4,4.7-6.8,7.1-10.2.7-1.1,1.4-2.1,1.8-3.4.3-1.1.1-2.1-.7-2.9-.8-.8-1.8-1.1-3.1-.7-2.1.7-3.6,2.1-4.5,4-1.3,2.6-2.4,5.2-3.7,7.8-.5,1.2-1.2,2.3-2.7,3.1,0-1.5.3-2.7.8-3.9,1.3-3.2,2.6-6.4,3.8-9.6.4-1,.7-2,.9-3,.2-.9-.3-1.6-1-2-.6-.3-1.2,0-1.7.5-.5.5-1,.9-1.3,1.4-2.4,3.7-4.8,7.4-5.8,11.7-.2,1-.5,1.8-1.7,2-.5-1-.1-2.3-1-3.3-1.6,1.1-2.1,2.6-1.6,4.4,0,.3.2.6.3.9.7,2.2.7,2.3-1.6,3-1,.3-1.8,1-2.5,1.7-4.7,4.4-10.4,6.5-16.8,6.2-3,0-5.7-1.1-7.8-3.2,0-1.2,1.2-.8,1.6-1.6-3.5-5.4-6.1-11.3-8.4-17.3-1.5-4.1-2.7-8.4-3.4-12.7,0,0,0-.2,0-.2,0-1.2-.7-2.7.4-3.6,1.2-1,2.2.4,3.2.9,2.3,1,4.7,1.5,7.2,1.5,3.9,0,7.6-.9,11.3-2,1.4-.5,2.8-1.1,4-2.2-.7-1.1-1.8-1.3-2.8-1.7-2-.9-2.4-1.7-2.1-4,.3-2,1.2-3.8,2.6-5.3,3.3-3.5,7.3-5.5,12.3-5.5,1.5,0,2.7.3,3.3,1.8.1.3.3.5.5.8.9,1.2,1.1,1.3,2.1.1,1.9-2.1,3.2-4.5,4.3-7.1-.6-.6-1.3-.7-1.9-1.1-1-.5-1.7-1.2-1.7-2.4,0-.8,1.3-1.7,2.5-1.8.8,0,1.6,0,2.4-.2,5.8-1.2,10-4.7,13.3-9.5.9-1.3,1.5-2.7,1.2-4.3-.4-2.6-2.8-4.3-5.9-4.2-1.7,0-3.3.6-4.8,1.3-1.4.6-2.7,1.3-4.1,2-.9.5-1.8.6-2.6-.3,1.3-1.6,3.1-2.6,4.8-3.5,1.9-.9,3.3-2.1,3.4-4.5,0-.7,0-1.4.9-1.8,1.5-.7,2.7-.3,3,1.4.3,1.7,1.1,2.5,2.7,3,1.9.7,3.8,1.6,4.8,3.6,1.2,2.3,1.3,4.4.4,6.9-1.5,4.1-4.5,6.8-7.7,9.4-1.1.8-2.2,1.6-3.2,2.4-1.5,1.2-2.5,2.7-3.3,4.5-1.9,4-4.2,7.8-7.1,11.2-.5.5-.9,1.1-1.3,1.7-1,1.2-1.1,2.5-.5,4,1.7,4,3.8,7.8,6.3,11.3.5.7,1,1.1,1.9,1,2.4-.4,4.2.4,5.2,2.7.4.9,1.2,1.1,2.2.9,4.4-.6,5.7.2,7.4,4.4.3.7.6,1.3,1.5,1.2.9,0,1.7.1,2.6.2,3.1.3,4.1,1.9,4.8,4.5.9,2.9.6,5.9-.1,8.7-.3,1.2.1,1.7.8,2.4,2.8,2.5,6,4.4,9,6.5,4.2,2.8,8.4,5.7,12.8,8.2,3.6,2,7.4,3.5,11.5,4.1.8.1,2.2-.3,2.3,1.1,0,1.3-1.2,1.3-2.1,1.4-6.1,1.2-11.7,3.6-16.7,7.6-1.2.9-2.5,1.8-3.6,2.7-.5.4-1.3.8-.8,1.7-.1-.1-.3-.4-.4,0,.1,0,.3,0,.4,0,3-1.9,5.9-3.8,9-5.6,1.4-.8,2.9-1.4,4.3-2,1.1-.4,2.2-.7,3.6-.2-1.4,2.2-3.7,3.1-5.9,4.7,1.6.2,2.9.3,4.3.5.6,0,1.1,0,1.6.3,2.1.9,2.2,2.3,1.3,3.7-1.1,1.8-2.7,3.1-4.2,4.5-.5.5-1.1.9-2,1.6,1.8-.2,2.9-1,4-1.8,3.2-2.8,6.4-5.6,9.3-8.8,1-1.1,1.2-2.7,2.2-3.8.4-.5,0-1-.5-1.4-1.9-1.3-2.8-4.2-2.1-6.2.2-.5.6-.7,1-.9,1-.3,2.1-.2,3,.2,3.1,1.4,5.1,5.7,4.1,8.9-1.5,4.6-4.5,7.8-7.7,10.9-2.6,2.5-5.5,4.8-8.5,6.8-1.9,1.3-4,2.4-6.2,3.3-4.7,1.8-9.6,3.2-14.8,2.5-1.6-.2-3-.7-4.2-1.8-.8-.8-1.3-1.7-1.4-2.9-.2-2.3-.1-4.6.2-6.9.1-.9.2-1.7.3-2.6.6-4.1-.5-7.9-2.1-11.6-.6-1.3-1.5-2.5-2.4-3.7-.6-.8-1.4-.7-2.3-.3-1.5.6-3,1.1-4.5,1.6-2.4.7-4.8.7-7.3.6-5.7,0-10.3-2.6-14.5-6.2-1-.8-2-1.6-2.8-2.5-1.1-1.2-2.2-1.2-3.5-.6-.4.2-.8.4-1.2.6-.8-.1-1.4.3-2.1.4-7.7,1.9-15.2,1.4-22.4-2.2-5.7-2.8-10.3-6.9-14.1-12-.6-.8-.9-1.9-2.1-2.2-.9-2.4-2.3-4.6-3.5-6.8-1.4-2.9-2.5-5.9-3.2-9-1-4.2-1.7-8.6-1.6-12.9,0-2.9-1.3-4.9-3.2-6.5-2.3-2-3.9-4.6-5.4-7.1-2-3.4-3.7-6.9-4.7-10.7-.8-2.8-1.1-5.7-1.6-8.6-1.8-11.1-1.5-22.1-.2-33.2.6-5.2,1.5-10.4,2.4-15.6.7-4.4,1.6-8.8,2.6-13.1.7-2.7,1.2-5.5,2.1-8.2.8-2.4,1.1-5.1,1.7-7.6,1-4.3,2.2-8.5,3.4-12.8,1.9-6.8,4.5-13.3,7.3-19.8,1.4-3.2,2.7-6.6,4.7-9.6,1-1.5,1.5-3.3,2.6-4.7-.5-.6-.9-.3-1.2-.1-2.8,1.9-5.7,3.6-8.7,5.2-2.2,1.2-4.2,2.7-6.6,3.6-2.3.8-4.5,2.1-6.8,2.8-1.9.6-3.8,1.2-5.7,1.8-3.1,1-6.3,1.5-9.4,2-2.4.4-4.8.5-7.1.8-2.2.2-2.3.2-2.6,2.5-.5,4.2-1,8.4-1.5,12.6-.9,9.7-2.9,19.1-5.6,28.4-3.8,13-8.7,25.5-14.9,37.5-5.2,9.9-11.2,19.3-17.9,28.1-2.3,3-4.8,5.9-7.4,8.7-1.9,2-4.1,3.8-6.4,5.3-2.1,1.4-3.6,3.2-4.6,5.6-2.7,6.1-5.6,12.2-8.3,18.3-4.2,9.2-8.4,18.3-12.5,27.5-1.2,2.6-2.4,5.3-3.9,7.7-1.4,0-2.5.9-3.9,1.2-13.2,3.3-26.5,5.6-39.7,8.9-2.7.7-5.4.5-8-.4-.9-.3-1.8-.6-2.8-.5-2-.6-2.6-.4-3.5,1.6-1.9,3.8-4.1,7.5-6.5,11-3.9,5.8-8.3,11.3-13.4,16.1-1.7,1.6-3.5,3-5.2,4.5-.7.5-1.5.9-2.2,1.4-6.5,4.7-13.8,6.8-21.8,6.8-3.5,0-7-.5-10.4-1-.7-.8-1.8-.5-2.7-.8-5.9-2.3-9.8-6.4-11.2-12.6-1.2-4.9-.9-9.7-.4-14.6.5-4.8,1.6-9.6,1.6-14.5,0-4.7-1.4-9-3.3-13.2-1-2.2-2.8-3.8-5-4.8-3-1.3-5.6-3.2-7.7-5.7-1.1-1.4-1.9-2.9-1.6-4.7.2-1.7,1.9-2.5,3.3-1.5.6.4,1,1,1.5,1.6,2.9,3.7,6.9,5.8,11.4,6.7,6.2,1.2,12.4,1.6,18.5,0,5.2-1.3,10.1-3.1,14-7.1,1.4-1.4,2.1-3.1,2.5-4.9.3-1.3-.2-2.8-1.2-3.8-1.6-1.8-3.5-3.1-5.8-3.9-3.3-1.3-6.7-2.1-10.1-2.9-2-.5-4-.3-6-.2-3.7.2-7.4.4-10.9,1.5-4.2,1.3-8.5,2.7-11.7,6.1-.7.8-1.6,1.4-2.5,2.1-1.1-2.9.2-4.8,3.3-7.2,3.8-3,8.3-4.7,13-5.7,5.3-1.2,10.7-1.7,16.2-.8,6.6,1.1,12.6,3.5,17.4,8.5,1.2,1.2,2.2,2.5,2.9,4,2,4.4.6,8.1-2.5,11.3-2.6,2.8-5.7,4.9-9.3,6.1-1.4.5-2.5,1.5-4,1.8-.5,0-.6.7-.7,1.1-1.5,4.1-1.6,8.3.1,12.3,1.3,3,3.7,4.8,7.3,4.9,4.3.1,7.8-1.7,11.3-3.8,8-5,14.4-11.7,20-19.1,2.1-2.8,3.9-5.8,5.9-8.7.9-1.3.9-3,1.9-4.2-.4-.8-1.3-.9-2-1.1-4.5-1.6-7.1-5.2-7.3-9.9-.2-3.8,1.2-6.6,4.3-8.7.9-.6,1.3-1.4,1.8-2.3,1.1-2,2-4.2,4.2-5.4.8-.4,1.3-1.3,1.7-2.4,1.4-3.9,5.7-4.8,8.6-1.8,1,1,1.8,2.2,2.8,3.3,3.1-3.2,5.4-6.8,7.9-10.5-.7-1.1-2-1.4-3.1-1.6-6.6-1.5-11-5.7-14.2-11.4-1.4-2.5-1.2-5.2-1.1-7.9,0-4.3,2.2-7.4,5.8-9.7,1.9-1.2,3.7-2.4,5.6-3.5,1.4-.8,2.3-1.7,2.2-3.5,0-2.4.2-4.8.4-7.2.1-1-.2-1.6-.9-2.3-1-.9-1.9-1.9-2.6-3.1-.5-.9-.4-1.7-.2-2.5,0-.7.7-1,1.4-1.1.5,0,.9.1,1.4.3.8.2,1.6,1.3,2.4.7.6-.5.8-1.5,1.1-2.3,6.3-14.5,17.2-24,31.9-29.2,3.1-1.1,3.1-1.1,2.3-4.2-.8-2.9-.3-5.6,1.4-8,1.4-2.1,2-4.3,1.7-6.8-.3-3,.3-5.9,1.8-8.5.5-.9,1.1-1.7,2.2-2.3.8.9.4,1.9.2,2.8-.3,1.2-.7,2.3-1.1,3.4-.6,2.1-1,4.2-.4,6.4.4,1.4,0,2.7-.8,3.9-.9,1.3-1.6,2.7-2.5,4.1-1.1,1.7-1,3.5-.3,5.3.6,1.5,1.6,2.4,3.3,2.3,1.4-.1,2.9-.3,4.3-.4,1.2-.1,1.7-.6,1.5-1.9-.3-1.8-.2-3.7.2-5.5.5-2,1.2-4,2.2-5.8,1.8-3.1,3.3-6.4,3.7-10,.2-1.9,1.4-3.4,2.7-4.7,1.2-1.2,2.6-2.4,3.9-3.6-.2-.7-.7-.5-1.2-.4-6.1.6-12.1,0-18.1-1.3-1.3-.3-2.5-.2-3.8.1-14.2,4-26.8,11-37.9,20.8-1.5,1.3-2.9,2.8-4.1,4.4-.7.9-.9,1.9-.4,2.9,1.1,2.4,2.4,4.6,4.7,6.2,7.4,4.9,8.6,14.3,2.9,21.1-.5.6-1,1.2-1.7,1.6-2.6,1.5-4.2,3.8-5.5,6.4-2,4-3.9,8-6.4,11.6-4,5.9-8.8,11.1-14.2,15.7-4.9,4.2-10.1,7.9-15.7,11.1-4.7,2.6-9.6,4.9-14.9,6.4-2.9.9-5.7,1.7-8.6,2.3-7.8,1.8-15.8,2.1-23.7.8-2.6-.4-5.2-.8-7.7-1.7-6.6-2.6-12.4-6.3-16.7-12.1-2.9-3.8-5.1-8-5.9-12.7-.8-4.7-1-9.5-.6-14.3.7-7.5,3.2-14.4,6.7-20.9.2-.4.3-1,.7-1.2,1-.7.8-1.5.4-2.3-1.8-3.7-1.4-7.3.1-11,3.2-7.7,8.1-14.3,12.9-21.1,2.7-3.8,5.6-7.5,7.9-11.7,1.8-3.3,3-6.8,4.4-10.3,3-7.7,7.4-14.5,13.6-20.1,4.7-4.3,7.6-9.5,9.5-15.6.9-3.1,1.9-6.3,2.5-9.5,1.1-5.4,2-10.9,2.6-16.4.7-6.4,1.1-12.9,1.3-19.4.1-4.9-.2-9.7-.4-14.6,0-1.7-.5-1.9-2.1-1.2-.5.2-1,.4-1.5.7-2.8,1.9-6,3-9.1,4.1-6.3,2.2-12.8,2.8-19.4,2.4-2.9-.2-5.7-.6-8.6-1-1.8-.3-2.7-1.8-3.8-3,1.3-1.4,3.2-1.6,4.7-2,3.8-.9,7.1-2.8,10.3-4.6,5.5-3.1,10.7-6.7,15.8-10.5,1.9-1.4,3.5-3.2,5.5-4.4.5-.3.5-.7.2-1.2-2.4-4.6-4.9-9.3-6.8-14.2-.4-.9-1-1.7-1.5-2.6-2.2-4.7-4.6-9.3-6.6-14.1-1.4-3.2-3.3-6.2-4.5-9.4-1.3-3.6-3.7-6.7-4.7-10.3-.2-.9-.9-.8-1.5-.8-5.6-.3-11.2-.6-16.7-1-7.2-.4-14.3-.8-21.5-1.3-2.3-.1-2.2-.2-2.5,2-1.2,9.3-2.5,18.5-3.7,27.8-.1.9-.4,1.9,0,2.8.8,0,1.6-.3,2.3-.6,3-1.3,6.2-1.9,9.2-2.9,1-.3,1.9-.8,2.8-1.2,1.7-.8,3-.5,4.1.7,1.1,1.2,1.2,2.2.2,3.9-3.9,6.5-6.8,13.3-9.5,20.3-3.4,9.1-6.5,18.4-8.7,27.9-2.8,11.6-4.8,23.4-6,35.3-1.1,10-1.3,20.1,0,30.1.3,2.7.9,5.4,1.4,8,.4,2,1.3,2.6,3.3,2,3.5-1.1,6.7-2.8,8.7-6.1.8-1.3,1.9-1.6,2.9-.8.7.6,1,1.1.4,2-1.5,2.5-3.6,4.1-6.1,5.3-1.5.7-3,1.4-4.6,1.9-1,.3-.9.7-.5,1.4.3.6.7,1.2,1.1,1.8.6,1,1.5,1.2,2.7,1,3.5-.7,6.6-2.3,9.2-4.6.5-.5,1-1,1.7-1.3.8-.3,1.6-.6,2.1.2.5.8.4,1.5-.3,2.1-1.4,1.3-2.9,2.3-4.6,3.2-2.2,1.2-4.7,1.7-7,2.4-1.6.5-1.6.6-1.1,2.3,1.1,3.4,1.7,3.6,4.8,2,1.3-.7,2.6-1.2,3.8-1.9.7-.4,1.1-.2,1.4.3.3.4.2.9-.2,1.3-.7.7-1.5,1.6-2.4,1.8-1.5.2-2.6,1.4-4.1,1.6-.7,0-1.4.7-1.2,1.9,1.2,5.4,1.1,10.9.5,16.5-.2,2.2-.1,4.3.3,6.4,1.2,5.8,1.3,11.7,1.5,17.6.2,8.5-.1,16.9-.9,25.4-.2,1.8-.8,3.4-2,4.7-2.7,3-5.2,6.2-7.8,9.3-.4.5-.7,1.1-1.1,1.5-1,1.1-.8,2.2,0,3.2.9,1.5,2,2.9,2.9,4.3,5.1,8.2,6.8,17.2,5.9,26.8-.6,6.6-2.5,12.9-5.1,18.9-2.7,6.3-6.5,11.8-10.6,17.3-5.1,6.7-11.6,11.7-18.4,16.4-2.9,2-5.7,4.1-8.7,5.8-3.2,1.8-6.4,3.4-9.9,4.8-10.2,4-20.7,5.5-31.6,4.8-5.4-.4-10.9-1-16-3.3-2.5-1.1-5.2-2-7.5-3.7-2.1-1.4-4.3-2.8-6.3-4.3-8.3-6.2-15.7-13.4-22.5-21.2ZM424.9,451.7c-.2.2-.4.3-.7.2,0,.7-.6.9-1.1,1.2-9,7.2-18.8,13.2-29.5,17.6-4.3,1.7-8.7,3-13.3,4.4,1.6.2,2.9-.1,4.2-.3,10.1-1.4,19.5-4.5,28-10.3,4.3-2.9,8-6.4,11-10.5.4-.6,1.3-1.1.6-2,.5.7.6,0,.8-.2h0s0,0,0,0ZM350,418.6c.6,0,.8-.7,1.2-1.1,3.6-3.6,7.1-7.4,11.9-9.8-.7-1.5-1.3-2.9-2.1-4.6-4.1,4.9-8,9.5-11.1,14.7-.2.3-.3.5,0,.8-.2-.2-.4-.1-.4,0,0,0,0,.2,0,.2.3,0,.3-.1.4-.3ZM708.3,593.2c-2.2,1.4-3.2,3.7-3.8,6.1-.7,2.7.8,4.5,3.6,4.5,2.4,0,4.8-.4,7-1.1,1.4-.4,2.9-.9,4.1-2.1-1.1-.1-1.9.4-2.7.5-1.1.2-2.2.6-3.3.7-3.8.5-6.1-1.9-5.6-5.7.1-1,1-1.9.6-2.9.1.1.3.1.3,0,0,0,0,0-.1,0-.3,0,.1,0-.2.1ZM649.9,546.1c0-.4.2-.8.3-1.2.3-4.5,2.3-8.2,5.5-11.4q1.7-1.7.7-3.9c-1.2-2.7-1.2-2.7-4-1.6-4,1.7-7.9,3.4-12.2,4-2.8.4-5.7.8-8.5,1-1.2.1-1.6.6-1.3,1.7,1.4,5.7,3.1,11.2,6.3,16.2,1.5,3.1,3.4,6,5.9,8.4,3,2.9,7.3,2.8,10.3,0,.6-.6.8-1.1.3-1.9-2-3.5-2.9-7.4-3.3-11.4ZM500.6,379c9.7,0,17.3-1.9,24.5-5.7,18.7-9.8,28.5-30.6,23.7-50.9-4.7-19.9-16.8-33.5-36.5-39.9-10.7-3.5-21.5-4.1-32.5-.7-28.1,8.8-39.4,38.5-29,62.5,3.4,7.8,8.7,14.2,14.7,19.9,10.2,9.7,22.8,14.1,35.1,14.7ZM582.3,298.4c1,.3,1.7.1,2.4,0,6.3-.9,12.6-1.8,19-2.7,14.9-2.1,29.9-4.1,44.8-6.2,3.4-.5,3.3-.5,3.7-4,.9-8.4,1.8-16.8,2.7-25.3.9-8.1,1.7-16.2,2.6-24.3.9-8.3,1.8-16.5,2.7-24.8.4-4.1.8-8.3,1.3-12.4.1-1-.1-1.5-1.1-1.7-.5,0-.9-.3-1.4-.4-19.5-6.5-39-13-58.6-19.5-2-.7-4-1.3-6.3-2.1-3.9,41.2-7.9,82.2-11.8,123.3ZM295.9,462.7c-.5-.4-.9-.7-1.3-1-.3-.2-.6-.5-1-.7-6.4-3.6-13.3-5.8-20.7-6-8.8-.2-17.3,1.6-25.5,4.7-5.6,2.1-11.2,4.4-16,8-8.5,6.2-14.5,14.3-17.9,24.3-4.1,12-3.4,23.7,2.5,35,6.4,12.2,23.2,22.2,41,19.6,19.9-2.9,35.3-12.9,45.9-30,5.4-8.7,8.2-18.1,7.7-28.4-.3-5.3-1.6-10.4-4.5-15-.6-1-1.3-2-2.6-2.7-2.9,5.1-5.9,10.1-7.4,15.8-.5,2.1-1.1,4.2-1.8,6.2-.4,1.1-.8,2.1-1.8,2.8-4.4,3.2-9.2,5.8-14.7,5.8-3.8,0-6.5,1-9.1,3.5-1.5,1.4-2.6,2.8-2.7,4.8-.2,2.4-1.4,4.3-3.4,5.5-3.9,2.5-8,2.7-12.1.6-1.9-1-3.2-2.5-3.9-4.6-1.9-6.1,3.4-12.6,9.7-11.5,2.5.4,4.1-.3,5.6-1.9.7-.7,1.4-1.4,2.1-2,1.2-1,1.6-2.1.8-3.7-1.2-2.6-.6-4.2,1.6-6.1,1.4-1.2,3-2.1,4.7-2.9.8-.4,1.4-.9,1.7-1.8.7-1.9,2-3.4,3.5-4.8,2.4-2.2,5.2-4,8-5.6,2.8-1.5,5.5-3.2,8.2-4.9,1.1-.7,2.2-1.5,3.1-2.9ZM410.2,408.7c0,.4,0,.8.1,1.1.6,1.8,1.4,2,2.7.7.3-.3.6-.7.9-1.1,1.3-1.5,1.3-1.5,3.1-.7.9.4,1.8,1,2.8,1.4,2.5,1.1,5,.8,6.6-1.1,1.6-1.8,2.6-4,3.2-6.4.6-2.6-.8-4.4-3.4-4.7-.6,0-1.3,0-1.9,0-1.6,0-3.2.1-4.8.1-.6,0-1.2,0-1.3-.7-.2-.6,0-1.1.6-1.4.7-.5,1.5-1,2.3-1.2,2.6-.9,5.2-.7,7.8-.3,1,.2,1.6,0,2.2-.8,6.2-9.8,8.7-20.2,5.3-31.5-2-6.9-6.4-11.7-13.1-14.2-5.6-2.1-11.3-2.7-17.2-1.9-11.2,1.4-20.7,6.3-28.4,14.5-8,8.5-12.5,18.4-12,30.3.2,5,1.3,9.8,3.9,14.1,5.3,8.6,16.1,13.4,26,11.7,1.7-.3,3.5-.4,5-1.3-.2-.8-.8-.8-1.3-1-1.5-.7-2.1-1.9-2.1-3.5,0-1.2.3-2.2.8-3.2,1.8-3.6,8.2-6.6,12.1-5.6,1.8.4,3.4,2.2,3.4,3.8,0,1.7-.4,2.2-3.2,3.1ZM333.1,459c-.4,11,5.6,20.7,14.4,26,7.6,4.6,15.8,6.3,24.6,5.9,11.2-.6,21.9-3.5,31.8-8.8,14.7-7.8,26.8-18.5,34.7-33.4.5-.8.9-1.7,1.2-2.6.4-1.4.2-1.7-1.2-2-.9-.2-1.9-.2-2.9-.3-3.2-.3-3.2-.4-4.6,2.6-2.8,5.8-6.5,11-11.2,15.4-9.3,8.9-20.3,14.3-32.9,16.6-8.2,1.5-16.2.8-23.9-2.5-13.4-5.8-19.8-20.2-16-33.2.4-1.4.8-2.8,1.1-4.2.2-.9.3-1.8-.4-2.5-1.5-1.4-2.8-2.8-4.5-4-.6-.4-1.1-.5-1.6.2-.3.4-.6.7-.9,1.1-4.7,7.6-7.7,15.8-7.7,25.6ZM255.5,376.4c.8,1,1.7,1.4,2.6,1.7,5.6,1.7,11.1,3.4,16.8,4.6,7.8,1.7,15.8,2.4,23.7,2.7,4.3.2,8.6-.3,12.8-1.4,2.3-.6,2.7-1.3,2.2-3.6-3.1-15.7-17.3-25.6-33-22.6-11.3,2.1-19.3,9-25.2,18.7ZM462.5,512.7c-1.2,1-2,2.2-2.7,3.3-1.5,2.2-2.7,4.5-3.8,6.9-2.2,4.8-4.5,9.5-6,14.6-.6,1.9-.5,3.4,1.3,4.5.7.4,1.2,1.1,1.8,1.5,4.1,3,6.8,6.8,7.4,12,.2,1.7.4,1.7,2,1.4,4.6-.7,9.1-1.5,13.7-2.3,2.6-.4,4.1-1.8,4.6-4.5,1.7-8.9,4-17.6,7.4-26,.7-1.7.5-1.8-1.4-1.9-2.8,0-5.6-.3-8.3-1-6.1-1.4-11.4-4.4-16.1-8.8ZM356.1,282.1c.5.7,1.3.5,2,.5,4.2.1,8.3-.2,12.4-1,5.4-1,10.5-2.6,15.2-5.5,2.9-1.8,5.3-3.9,4.7-7.8-.1-.8.2-1.8,1.3-2,1.1-.2,1.9.3,2.3,1.3.3.7.4,1.5.5,2.3.7,5.5,1.1,11,1.1,16.5,0,10.2-.6,20.3-1.9,30.4-1.2,9.2-2.6,18.3-5.7,27.1-.2.7-.4,1.4,0,2.3,7.9-3.6,16-5.6,25-4.8-2.1-6.3-5-11.8-6.7-17.8-1.8-6.1-3.6-12.1-4.8-18.3-1.2-6.1-2.1-12.3-2.6-18.5-.5-6.3-.8-12.6-.7-18.9.1-6.2,1.2-12.2,1.7-18.7-1.2.6-1.7,1.4-2.2,2-4.5,5.5-9.4,10.5-14.8,15-7.8,6.5-16,12.2-25.9,15.1-.4.1-.7.3-.9.7ZM384.3,447.6c.7-.3,1.3-.5,1.9-.7,7.1-2.2,13.7-5.6,19.8-9.9,1.9-1.3,1.9-1.4,1.3-3.6-1.3-4.1-2.6-8.2-3.9-12.3-.4-1.3-.9-1.4-2.1-1-10.1,2.9-19.7,1.7-29-3.1-1.3-.7-2.1-.6-3.2.3-3.2,2.6-6.3,5.4-9.2,8.4-1.5,1.5-3.3,2.8-4.6,4.7,5.7,3.6,11.1,7.4,16.4,11.4,2.4,1.8,4.8,2.8,7.9,2.6,3.2-.2,3.4,0,4.6,3.3ZM280,253.2c.6.9,1.7.9,2.6,1.1,3.7.9,7.6,1.2,11.4,1.3,5.1.2,10-.5,14.6-2.9.2-.1.4-.2.7-.3.7-.2,1.3-.2,1.7.4.4.5.4,1.3-.2,1.8-1.4,1.3-1.4,3-1.4,4.7,0,3.8-.1,7.7-.6,11.5-1,8.7-2.6,17.2-4.7,25.7-4.6,18.6-10.2,36.8-19.5,53.6-.3.5-.7,1.1-.2,1.8,3.2,0,6.3.2,9.5.9,3.1.7,5.9,1.9,8.9,3.3.1-1.5,0-2.7-.2-3.9-.9-6.7-1.4-13.4-1.1-20.1.7-13.4,2.8-26.7,5.5-39.8,3.6-17.4,8.9-34.3,16.6-50.3.3-.6.7-1.2.4-2.3-14.4,4.6-28.7,9-43.2,13-.4.1-.7.3-.9.8ZM356.2,189c-3.6-11.8-7.1-23.4-10.6-35.1-.7.1-1.3.2-1.8.4-5.1,1.5-10.2,3-15.4,4.4-1.4.4-2,1-2.3,2.3-1.5,5.2-3.1,10.4-4.7,15.6-1,3.3-2,6.6-3,9.8-.4,1.4-.3,1.5,1.1,1.6,1.5,0,3,.1,4.5.2,8,.3,15.9.6,23.9.8,2.7,0,5.4.4,8.3.1ZM311.6,403.8c-1.1-.2-1.6.4-2.2.7-3.5,1.7-7.1,3-10.9,3.4-6.2.7-11.7-1.1-16.5-5-1.2-1-2.2-1.1-3.6-.6-3.3,1.2-6.8,1.7-10.3,1.6-5.8-.2-10.9-2.3-15.5-5.7-.4-.3-.8-1.1-1.6-.6,0,.2,0,.5,0,.7,0,.9,0,1.8,0,2.6.1,10.4,4.1,18.9,12.4,25.3,6.7,5.1,14,6.6,22.1,4.1,10-3.1,17.2-9.5,22.5-18.3,1.5-2.5,2.9-5.1,3.8-8.2ZM479.3,380c0-.2,0-.4,0-.6-2.1-1-4.1-2.1-6.2-3-8.4-3.6-15.2-9.3-20.5-16.8-.6-.9-1.3-1.8-2-2.7-.4-.5-.8-.4-1.1.2-.1.3-.2.6-.3.9-.3,4.6-1.9,8.9-4.1,12.9-.8,1.6-1.3,3.3-1.3,5.1,0,2-.4,4-.8,5.9-1,4.8-3.3,9.2-5.7,13.4-.9,1.5-1.7,3.1-2.5,4.6-.3.6-.5,1.1.2,1.7,1.9,1.6,3.5,3.5,5.7,5,10.5-12.2,23.4-20.9,38.4-26.6ZM315.4,409.9c-1.1,1.9-2.2,3.9-3.3,5.8-.6,1.1-.8,2.2-.7,3.4.6,4.9,1,9.9,1.7,14.8.4,2.6-.1,4.7-1.4,6.9-3.4,5.9-6.8,11.8-9.8,17.9-2.9,6.1-7.3,10.6-13.4,13.5-3.2,1.6-6.4,3.3-9.2,5.6-.9.7-2,1.3-2.3,2.6,1,.2,1.8-.2,2.7-.4,1.7-.4,3.5-.4,5.2-.5.5,0,1,.1,1.1.7,0,.6-.3.8-.8,1-.9.3-1.8.6-2.7.9-4.3,1.5-8.5,3.2-12.3,5.8-.7.5-1.5,1-1.3,1.9.3,1,1.3,1,2.2,1,.4,0,.8,0,1.2,0,2.6-.1,5.2-.6,7.8-1.4,1.1-.3,2.1-.7,3.3-.7,1.5,0,2.2,1.1,1.6,2.4-.5,1.1-1.4,1.8-2.7,2.1-2.5.5-4.1,2.2-5.3,4.4.6.3,1.1.3,1.5.2,5.2-.8,9.3-3.5,12.8-7.4.9-1,1.2-2.2,1.3-3.5.2-3.3,1.1-6.4,2.6-9.4,5.3-10.3,11.1-20.3,19.4-28.7,1.3-1.3,2-2.9,2-4.7,0-.7,0-1.4.1-2.2.4-6.9,1-13.7.9-20.6,0-3.8-.4-7.5-2-11.2ZM216.4,347.5c.1.4,0,.9-.6,1.2-.8.3-1.2-.3-1.4-.9-.9-2.1-1.3-4.3-.9-6.5.4-2.5,1.7-4.5,3.6-6,.4-.3,1.2-.6.8-1.3-.4-.8-1.1-.2-1.7,0-1.5.6-2.9,1.3-4.4,2-3,1.4-6.1,2.8-9.1,4.2-1.9.9-2,1.1-.6,2.7,1.4,1.5,2.8,2.8,4.2,4.2,3,3.1,6.4,5.8,8.4,9.7,2,3.9,4.4,7.6,6.5,11.4,5.4,9.4,12.4,17.4,20.8,24.2.6.5,1.1.9,1.7,1.3.8.5,1.4.4,1.5-.7.3-1.5.5-3,.9-4.5.6-2.1-.2-3.5-2-4.8-9.4-7.1-16.5-16.2-21.6-26.8-3.1-6.4-3.3-12.7,0-19.1,1.1-2.1,2.1-4.3,3.1-6.5.4-.9.7-1.8.9-2.7.2-.8-.2-1.6-.9-2-.8-.5-1.4,0-2,.4-.9.7-1.6,1.6-1.9,2.7-.6,1.8-1.3,3.6-1.8,5.5-.3,1.1-.5,1.9-1.9,2-.8,0-1.3.8-1.8,1.5-1.2,1.9-1.2,3.9-.8,6,.2.9.4,1.7.6,2.8ZM725.1,578.1c-1.5-.8-2.4-1.2-3.3-1.7-8.3-4-16.2-8.5-23.9-13.6-.8-.5-1.6-1-2.4-1.6-.5-.3-1-.4-1.5,0-1.6,1.2-3.1,2.3-4.7,3.4.8,1,1.6,1.4,2.4,1.9,1.1.6,1,1.3.7,2.2-.8,2.2-2.5,3-4.6,3.3-2.9.4-5.7,0-8.4-1.2-2.3-1-4.5-2.1-6.7-3.1-2.6-1.2-2.8-1.1-4.4,1.3,4,3.5,8.5,6.2,13.7,7.5,4.6,1.2,8.7.3,12.2-2.9.8-.8,1.6-1.6,2.5-2.3.5-.4,1.2-.6,1.8-.3.7.4.9,1.1.9,1.8,0,.8-.5,1.5-.9,2.2-.5.8-.5,1.4.2,2.1,3.1,2.9,5.2,6.5,6.5,10.5.2.6.5,1.2,1.3,1.6,5.5-4.5,11.7-8.1,18.8-11.1ZM372.6,454.3c1.1-.5,1.9.1,2.6.8,1.3,1.2,2.7,2.3,4,3.4.4.3.8.5,1.3.1.4-.4.4-.9,0-1.3-.5-.7-.9-1.3-1.4-1.9-.7-1-1.5-1.9-2.1-2.9-.3-.4-.2-.9.1-1.3.5-.6.9-.1,1.2,0,.7.4,1.4.7,2.1,1.1.7.4,1.5,1.6,2.2.7.5-.7-.6-1.5-1.1-2.1-.3-.3-.7-.6-1.1-1-.8-.7-1.7-1.3-1.9-2.5.5-.3,1.1-.6,1.6-.8-1.8-.2-3.5-.1-5.2,0-1.1,0-2,0-2.6-1.1-.6-1.1-1.8-1.8-2.9-2.5-3.6-2.4-7.2-4.7-10.8-7.2-4.2-2.8-8.4-5.6-12.2-8.9-2.1-1.9-2.3-2.4-1-4.9,3.4-6.9,7.4-13.4,12.3-19.4.5-.6,1-1.2,1.4-1.9,1.1-1.8,1.2-3.7.2-5.6-1.1.2-1.6,1-2.2,1.6-5.7,6.3-10.7,13.1-14.8,20.5-.9,1.7-1.6,3.5-2.3,5.3-.4,1.1-.2,1.9.6,2.8,2.6,2.8,5.3,5.5,8.1,8.1,4.4,4.1,8.9,8.2,13.8,11.9.9.7,1.6,1.4,3,.8,1.5-.7,2.1,0,2,1.6,0,.7-.4,1.2-.7,1.8-.7,1.5-.6,2.8.6,4,1.3,1.4,2.6,2.8,4,4.1.6.6,1.2,1.1,2.2.7-.3-1.3-1.1-2.6-1.2-4ZM418.9,434.6c.7.3,1.3.5,1.9.7,3.6,1.3,4.6,3.1,3.5,6.8-.3,1.1-.9,2.1-1.5,3-1.5,2.2-3.5,4-5.9,5.1-3.3,1.5-6.5,3-9.8,4.4-12.7,5.6-24.9,12.3-38.5,15.8-1,.3-2,.7-2.7,1.6,3.1,1.7,5.6,2.4,7.7,1.9,4.1-1.1,8.2-1.9,12.2-3.3,7.1-2.5,13.7-6,20.4-9.4,6.5-3.3,12.7-7.1,18.3-11.8,3.7-3.1,5.5-7.1,6.1-11.8.2-1.2-.2-1.9-1.2-2.6-2.5-1.6-5.1-2.1-8-2.1-1,0-1.9.4-2.5,1.6ZM191,522.5c1-.2,1.4-.9,1.9-1.4,2.4-2.9,5.3-5.3,8.4-7.4,1.1-.8,2.2-1.6,3.3-2.4.7-.4.9-1,.9-1.8-.2-4.4.4-8.7,1.1-13.1.3-1.6.1-1.8-1.5-1.6-4.5.5-8.9,1.9-13,3.9-1,.5-1.6,1.2-1.8,2.3-1.3,5.2-1.6,10.4-1,15.6.3,2,.6,4.1,1.6,5.9ZM204.9,543.7c1.3-4,3.2-7.5,5.6-10.7.7-1,.8-1.7.3-2.8-1.8-4.4-3.7-8.8-4.5-13.6,0-.3-.2-.6-.3-.9-.3-1.2-.9-1.3-1.9-.7-4.6,2.4-8.4,5.7-11.7,9.7-.7.9-.6,1.8-.2,2.7,1.8,4.8,4.4,9,7.9,12.7,1.3,1.4,2.6,2.8,4.7,3.7ZM666.4,542c1.2-1.2,1.7-2.6,2.5-3.9.4-.8.5-1.4-.1-2.1-1.1-1.5-2.1-3-3.1-4.6-3.1-4.8-5-9.9-4.9-15.7,0-1.5-.2-3-.4-4.5-.3-1.9-.9-2.3-2.8-1.9-2.9.6-5.3,2.2-7.2,4.4-1.3,1.5-1.8,3.3-1.6,5.3.1,1,.5,1.6,1.5,1.9,1.5.4,2.9.9,4.3,1.5,1.6.6,2.8,1.6,3.2,3.3.7,2.8,2.3,5.1,4,7.3.5.6,1,1.2,1.4,1.9.9,1.5.6,2.4-1.1,2.9-.7.2-1.4.2-2.1.4-4.1.7-6.6,3.2-6.8,6.9-.2,3.5,1.1,6.7,2.5,9.9.2.4.5.6.8.9.2.2.5.3.8.2,1.4-.5,2.2-1.9,1.7-3.4-.3-1.1-.7-2.1-1-3.2-.5-1.9-.9-3.9-.3-5.9.8-3,2.9-4.3,5.9-3.9,1.5.2,2.1,1.3,2.8,2.4ZM438.7,419.1c-2,.1-3.9.3-5.7,1-.9.3-1.4,1.1-1.3,2,0,.8.6,1.5,1.5,1.7.6.1,1.3.2,1.9.3.9,0,1.8,0,2.6,0,2.1.1,3.1.7,3.1,1.6,0,1-.8,1.7-2.8,2.1-1.8.4-3.6.8-5.4,1.1-.8.2-1.5.5-1.4,1.3,0,.8.7,1.4,1.5,1.7.9.2,1.8,0,2.6-.1,1.6-.4,3.2-.5,4.7-.4,1.2,0,1.6,1.1.8,2-.3.5-.9.7-1.4.9-1.1.5-2.2,1-3.2,1.6-1.1.7-2.2,1.5-1.9,3,.3,1.4,1.5,1.7,2.7,2,.5.1.9.1,1.4.1,2.5.1,4.7-.8,6.8-2,4.4-2.6,6.5-7.9,5.2-12.8-1.1-4-3.5-6.2-7.7-6.8-1.4-.2-2.8-.3-4.2-.5ZM409.7,407.7c-.2-1.3-.7-2.1-2.1-2-2.3.2-4.4.9-6,2.6-.5.5-1,1.1-.6,1.9,2.2,0,2.3,0,2.8,1.6,2.4,7.5,4.8,15,7.4,22.5.7,2,.2,3.8-1.5,5.2-1.4,1.1-2.8,2.1-4.4,2.9-4.1,2.2-8.3,4-12.7,5.6-1.8.7-3.6,1.3-5.4,2-1.6.7-1.6,1.3-.5,2.6,1,1.1,1.9.4,2.8,0,7-2.9,14-5.8,21-8.7,1.2-.5,2.3-1.1,3.4-1.7,2.1-1.2,2.4-2.1,1.9-4.4-.4-1.5-.8-3.1-1.4-4.6-1.8-4.8-3.6-9.6-5.2-14.4-.9-2.8-1.7-5.7-1.9-8.6-.2-2.4,0-2.6,2.3-2.5ZM215,476.8c-2.4-.8-4.9-.7-7.3-.8-.8,0-1.6.1-2.4.2-1.5.2-2.7.8-3.7,2-3.8,4.6-6.9,9.6-9,15.2-.3.7-.9,1.6-.4,2.3.7.9,1.6,0,2.4-.2,3.7-1.1,7.3-2.2,11-3.2,1.7-.5,2.8-1.4,3.4-3.1,1.3-3.5,3-6.7,4.9-9.9.4-.7,1-1.4,1-2.5ZM428.8,431.7c-.4-2.1.4-3.5,1.2-5,.2-.5.8-1,.2-1.5-1.6-1.6-1.7-3.9-2.8-5.8-1.6-2.8-3.4-5.5-7.3-5.2-.6,0-1.3-.2-1.9-.3-.5,0-1.2-.3-1.6,0-1.6,1.1-3.5,1.5-5.1,2.5.7,1.7,1.4,3.3,2.1,5,1.1,3,2.3,6,3.3,9,.4,1.1.8,1.6,2,1,1.5-.7,3.1-.8,4.7-.8,1.7,0,3.2.5,5.1,1.3ZM226.4,553.9c.8,0,.9,0,1.4-.8.4-.5.7-1.1,1-1.6.9-1.7.9-1.8-.7-2.9-3.6-2.7-7.2-5.3-10.3-8.6-1.3-1.5-2.7-2.9-4-4.4-.5-.6-1-.7-1.6-.1-2.6,2.5-4.2,5.6-5.2,9-.3,1,.1,1.8,1.1,2.4,1.3.7,2.4,1.5,3.7,2.2,4.5,2.4,9.3,4.1,14.6,4.9ZM351.1,440.4c-3,7.2-1.4,17.7,2.6,21.5,3-2.5,5.9-5.2,9.6-6.5.6-.2.7-.6.4-1.1-.6-1.1-.9-2.2-.8-3.4,0-.7.8-1.3.4-2-.4-.7-1.3-.8-2-1.2-1.2-.8-2.5-1.5-3.7-2.2-2.3-1.4-4.4-3.2-6.6-5ZM235.2,457.2c-2.2-1-4.3-.8-6.5.2-8,3.8-15.3,8.5-21.6,14.8-.5.5-1.1.9-.9,1.9,3.1.2,6.2-.2,9.2-.2,1.4,0,2.4-.5,3.3-1.5,4.8-5.3,10-10,15.8-14.2.3-.2.7-.4.7-1.1ZM273.5,495.2c-1.9-1.2-3.1-.3-4.2.8-2.3,2.2-4.7,4.3-7,6.5-.9.8-1.7,1-2.7.4-.5-.3-1-.5-1.5-.6-3.9-1.3-6.9,1-8.1,3.7-1.2,2.6-.1,5.2,2.5,6.3,1.6.6,3.3.7,4.9.6,2.3-.2,4.1-1.3,4.9-3.5.6-1.5,1.3-2.9,2.4-4.1,1.2-1.3,2.4-2.6,3.6-3.9,1.7-2,3.8-3.6,5.3-6ZM353.4,428.2c.6-.1.8-.5,1.1-.8,2-2.3,4.1-4.6,6.4-6.7,2-1.8,4.1-3.5,6.3-5.1.9-.7,1.2-1.4.3-2.3-.6-.6-1.1-1.4-1.7-2-1.3-1.4-1.3-1.4-3.1-.4-3.1,1.9-5.9,4.1-8.5,6.5-1.7,1.6-3.3,3.2-4.6,5.1-1.1,1.5-1.1,1.7.4,2.9,1.1,1,2.3,1.9,3.4,2.8ZM383.2,461.8c2.3-.5,4.4-1.4,6.4-2.3,8-3.6,16-7.2,24-10.7,1.3-.6,2.6-1.2,3.8-2,1.7-1.2,3.1-2.7,4.1-4.6.5-.9.6-1.8.5-2.8,0-.5-.4-.9-.9-1-.5,0-.7.3-.9.7-.1.2-.2.4-.2.7-.8,3.1-2.8,4.9-5.7,6-4.9,1.9-9.7,4-14.6,6-4,1.6-8,3.1-12,4.8-2.3,1-3.9,2.5-4.5,5.3ZM441,414.6c-.9-4.6-3.7-7.7-7.5-10.2-2,2.8-3.8,5.5-5.7,8.2-.4.6-.4,1.1,0,1.7.9,1.2,1.9,2.2,3.6,1.9,3.2-.4,6.3-.9,9.5-1.6ZM359.3,468.1c1.5,1.2,2.7.9,3.9.6,4.2-1.2,8.4-2.4,12.6-3.7,2-.6,3.9-1.4,5.7-2.6-1.1-.9-2.3-1-3.4-.6-1.4.5-2.8.4-4.2.7-5,1.1-9.5,3.4-14.5,5.6ZM369.6,460.6c-.7-1.1-1.6-1.6-2.3-2.4-.5-.6-1.1-.7-1.9-.4-3.3,1.3-6.5,3-9.1,5.5-.4.4-1.3.8-.6,1.5.6.6,1,1.8,2.2,1.3,3.9-1.7,8-3,11.7-5.5ZM423.8,529.5c0,2.2,1.3,4,3.2,5.3,2.3,1.6,4.3-.1,4.8-2,.1-.6.2-1.1-.4-1.5-2.2-1.5-3.7-3.7-4.7-6.2-.3-.9-.9-1-1.5-.1-.9,1.3-1.4,2.7-1.4,4.5ZM432.4,516.2c-2.3,2.4-3,6.4-1.7,9,.6,1.3,1.7,1.9,3,2,1.1,0,3-1.4,3.4-2.3.2-.4,0-.8-.2-1.1-1.5-2.5-3-5-4.6-7.6ZM441,516.6c-.2-1.9-.7-3.6-2.1-4.9-1.2-1.1-2.5-1.1-3.5.2-.8,1-1.3,2-.6,3.3.5.9.8,1.9,1.3,2.8.7,1.2,1.7,3,3,2.6,1.5-.5,1.7-2.5,1.9-4ZM198.4,333c.1,1.3.4,2.7.8,4,.2.7.5,1.1,1.3.7,1.1-.5,2.2-.9,3.3-1.4.4-.2.9-.4.8-1-.5-2.4-1.3-4.8-3-6.7-.9-1-1.8-.8-2.4.5-.6,1.2-.7,2.6-.8,4ZM207.1,334.7c1.1-.4,2-.8,2.8-1.2.5-.2.9-.5.7-1.3-.5-2.2-.9-4.4-1.5-6.5-.3-1-.5-2.6-1.7-2.6-1.3,0-1.5,1.7-1.8,2.8-1,3.1.3,5.7,1.5,8.7ZM217.6,328.5c-.2-1.7-.4-2.9-.5-4.2,0-1.1-.5-1.9-1.6-2.1-1-.2-1.7.4-2.2,1.1-1.6,1.9-2,4.1-1,6.5.9,2.1,1,2.2,3.1,1.2,1.2-.6,2.8-.9,2.1-2.4ZM245.4,554.5c-4.3-1.2-8.6-2.5-12.8-3.7-.8-.2-2.2,1.3-2.4,2.5-.2,1.1.8,1,1.4,1.2,4.6,1.2,9.2,1.1,13.8,0ZM689.2,568c-1.4-.6-2.3-2.1-4-1.5-3.1,1.2-6.3,1-9.6.7,4.1,3.5,10.4,4,13.6.8ZM653,430.1c.9-.2,1-.9,1.4-1.4,1.3-1.9,2.9-3.6,4.7-5q2.4-1.9.7-4.5c0-.1-.2-.1-.5-.2-3.7,2.8-5.5,6.6-6.3,11.1ZM304.9,269.6c-4.6,1.4-8.9,2.7-13.4,3.8,1.1.3,2.2.4,3.3.5,2.5,0,5.1,0,7.5-1.1,1.2-.6,2.4-1.2,2.5-3.2ZM716.2,591.8c-1.4,1.3-2.8,2.5-4.1,3.8-.4.4-.5.8-.3,1.3.2.4.6.4,1,.4,2.3,0,4.3-.5,6-2.3-.9-1-1.7-2-2.7-3.1ZM660.5,548.2c1.1-1.1,1.9-2.6,3.9-2.3.6.1.8-.7.9-1.2.2-1.9-1.7-3.3-3.4-2.6-1.2.4-1.7,1.4-1.9,2.6-.2,1.2-.1,2.4.5,3.6ZM235.8,455.1c1.4,1.1,2.5,1.1,3.8.4,1.4-.7,2.9-1.3,4.3-2,.4-.2.7-.3,1.1-.5.3-.2.8-.3.9-.9-3.5.5-6.8,1.2-10.1,2.9ZM652.9,430.7c0,0,0,.1,0,.2,0,.1.1.1.2-.1,0,0,0,0-.1,0Z"/>
  <path class="cls-2" d="M204.5,216.2c4.2.8,7.9,1.4,11.7,2.1,11,2.1,21.4,5.8,31,11.5,7.2,4.3,11.4,10.4,12.6,18.8.7,5.1,1.5,10.1,1.6,15.2.1,9.5-1.2,18.7-6.2,27-5.1,8.4-12.5,13.2-22.3,14.4-10.1,1.2-20.3,2.7-30.4,4.1-10.1,1.4-20.1,2.7-30.2,4.1-5.3.7-10.6,1.5-15.9,2.2-.6,0-1.1,0-1.7.2-.8.1-1.1-.1-1.3-1-.4-2.8-.9-5.5-1.3-8.3-1.7-11.1-3.4-22.3-5.1-33.4-1.5-9.9-3-19.7-4.5-29.6-1.5-10.1-3.1-20.2-4.6-30.3-1.5-9.7-3-19.4-4.4-29.1-1.4-9-2.7-18-4.1-27-.3-1.8-.3-1.8,1.5-2.1,18.5-2.8,37.1-5.7,55.6-8.5,6.2-1,12.5-2,18.7-2.8,7.9-1,14.4,2,19.8,7.6,5.5,5.8,8.5,12.9,10.1,20.6,3.2,15.7-4.1,32.1-17.9,40.3-3.7,2.2-6.6,3.1-12.9,4ZM177.2,289.9c.5,0,.8,0,1,0,15.6-3.5,31.1-6.9,46.7-10.4,1.9-.4,1.9-.4,1.4-2.2-3-10.3-6-20.5-9-30.8-.9-3.1-.9-3.2-4-3.4-13.5-1-27.1-2-40.6-2.9-.5,0-1.1-.3-1.7.4,2.1,16.4,4.1,32.8,6.2,49.5ZM160.7,206.9c.8.2,1.3,0,1.9-.2,12-3.5,24-7.1,36-10.7,2-.6,2.1-.6,1.7-2.8-1.6-9.4-3.2-18.7-4.7-28.1-.2-1.2-.5-1.4-1.7-1.1-11.2,2.7-22.5,5.4-33.7,8.1-1.7.4-1.7,0-1.6,2.2.3,5.6.7,11.2,1.1,16.7.4,5.3.7,10.5,1.1,15.8Z"/>
  <path class="cls-2" d="M501.9,218.4c.7-4.6,1.8-9.1,2.6-13.6.6-3.7,1.4-7.3,2.1-11,.5-2.7,1.1-5.5,1.8-8.2,1.4-5.8,2.6-11.6,3.7-17.5,1-5.2,2.1-10.3,3-15.5.6-3.6,1.3-7.3,2-10.9.6-3.2,1.5-6.4,1.9-9.6.1-1,.8-1.5,2-1.5,4.3,0,8.6,0,12.9-.1,5.5,0,11-.1,16.5-.2.5,0,1.1-.1,1.8.4-.8,3.4-1.6,6.8-2.3,10.2-1.7,7.5-3.4,15.1-5.2,22.6-1.4,6.1-2.8,12.2-4.3,18.2-1.9,8.1-3.8,16.1-5.7,24.2-1.9,8.1-3.9,16.1-5.7,24.2-2,8.9-4.1,17.9-6.2,26.8-.5,2.3-1.2,4.6-1.6,6.9-.1.7-.4.8-1.1.9-1.2.2-2.2-.3-3.2-.5-4.2-1.1-8.5-1.7-12.6-2.9-2.4-.7-4.9-.8-7.2-1.8-.6-.3-.9-.6-1.1-1.1-2-5.2-5-9.8-7.2-14.9-2.5-5.8-5.7-11.2-8.2-17-2.4-5.7-5.6-10.9-8-16.6-2.4-5.5-5.5-10.6-7.8-16.1-1.2-2.9-2.6-5.6-4.1-8.4-.5-.9-.2-2.1-1.3-2.9-.2,2.4-.3,4.6-.5,6.9-.6,10.8-1.2,21.7-1.8,32.5-.5,9.7-1.1,19.3-1.6,28.9-.1,2.2-1,2.8-3.1,1.8-.8-.4-1.7-.5-2.5-.6-1.6-.1-3.1-.4-4.6-1-1.5-.6-3.2-.4-4.8-.9-1.4-.4-3-.5-4.4-1.1-1.5-.6-3.2-.4-4.8-.9-2-.6-4.2-1.1-6.3-1.5-1-.2-1.1-.5-.9-1.4,1.1-6.3,2.2-12.6,3.3-18.9,2.5-14.2,5-28.3,7.5-42.5,2.6-14.9,5.2-29.9,7.9-44.8,1.6-9.1,3.2-18.3,4.8-27.5,4.7,1.3,9.5,2.5,14.2,3.8,1.5.4,3,1,4.5,1.3,1,.2,1.4.7,1.7,1.6,3.3,10.1,6.7,20.2,10,30.2,4.9,14.8,9.9,29.6,14.9,44.4,2.7,8,5.4,16,8.2,24.1.1.4.2.8.8,1Z"/>
  <path class="cls-1" d="M619.7,556.3c1.1.3,1.5,1.4,2.1,2.2,3.8,5.1,8.4,9.2,14.1,12,7.2,3.5,14.7,4.1,22.4,2.2.7-.2,1.3-.6,2.1-.4,1,2.8,2.1,5.6,3.1,8.5.4,1.2.2,1.4-1.2,1.6-10.1,1-20.2,2-30.3,3-6.9.7-13.8,1.4-20.7,2-.7,0-1.4.2-2.4.3,1,3.2,2,6.2,2.9,9.3,4.6,14.8,9.3,29.5,13.9,44.3,3.3,10.5,6.7,21.1,10,31.6,3.9,12.3,7.8,24.7,11.6,37,.5,1.5.8,3.1,1.4,4.5.5,1.2.1,1.6-.8,1.9-2.2.8-4.5,1.6-6.7,2.4-10.7,3.8-21.4,7.6-32.1,11.5-2.1.7-1.9.7-2.5-1.4-1.3-4.4-2.2-8.9-3.2-13.3-.7-2.7-1.7-5.5-1.7-8.4,0-1.1-.8-1.8-1-2.9-.8-5.2-2.5-10.3-3.6-15.5-.5-2.8-1.6-5.5-1.7-8.3,0-1.2-.8-2-1-3.1-.3-2.4-1.1-4.7-1.5-7-.5-3.4-1.7-6.5-2.4-9.9-.8-3.6-1.9-7.3-2.5-10.9-.5-2.8-1.8-5.5-1.8-8.4,0-1.3-.8-2.2-1-3.3-1-5.1-2.5-10.1-3.5-15.2-.6-2.8-1.6-5.5-1.7-8.3,0-1.1-.8-1.9-.9-2.9-.4-3.3-1.3-6.5-2.3-9.6-.2-.7.4-1.4-.6-2.3-14.3,9-28.6,18.4-43.1,27.5-1.6-2.8-2.3-5.7-3.3-8.5-2-5.3-3.8-10.6-5.7-15.9-1-3-2.4-5.9-3-9-.3-1.3-.3-1.9.9-2.1,1.8-.2,3.3-.9,4.9-1.6,5-2,10.1-3.6,15.1-5.5,3.8-1.4,7.6-2.6,11.5-4,16.5-5.8,33-11.8,49.4-17.7,4.9-1.8,9.9-3.4,14.9-5.2.6-.2,1.4-.3,1.7-1.1Z"/>
  <path class="cls-1" d="M181.6,530.5c6.8,7.8,14.2,15,22.5,21.2,2,1.5,4.2,2.9,6.3,4.3.7,9.1,1.4,18.2,2.1,27.2.6,7.2,1.1,14.3,1.7,21.5.7,9.1,1.4,18.2,2.1,27.2.7,9.2,1.5,18.5,2.2,27.7.9,11.5,1.8,23.1,2.7,34.6,0,1.2.1,2.4.2,3.6,0,1.1-.6,1.6-1.4,1.3-2.4-.9-5-.9-7.3-2-1.5-.7-3.1-.3-4.6-.9-2.1-.8-4.3-.9-6.4-1.6-2.1-.7-4.4-.9-6.6-1.3-2-.4-3.8-1.2-5.8-1.6-1-.2-.8-1.1-.7-1.8.3-4.4.5-8.8.8-13.2.6-8.7,1.2-17.4,1.7-26.1.3-5,.7-10,1-15.1.1-2.1,0-2-2-2.6-4.6-1.4-9.1-2.8-13.7-4.2-3.7-1.1-7.3-2.3-11-3.4-3.4-1.1-6.9-2.1-10.3-3.2-2.1-.7-2.1-.6-2.8,1.3-5.8,17.4-11.6,34.8-17.3,52.2-.4,1.2-.8,2.4-1.2,3.6-.3.9-1,1.3-1.9,1-5-1.8-10.2-2.8-15.2-4.3-4.2-1.2-8.4-2.3-12.6-3.4-3.9-1-3.9-.9-2.1-4.3,2.1-3.9,4.4-7.6,6.3-11.6,1.7-3.5,3.7-6.9,5.5-10.4,2.2-4.1,4.3-8.2,6.5-12.3,1.8-3.4,3.7-6.7,5.4-10.2,1.9-3.9,4.3-7.5,6.1-11.4,1.9-3.9,4-7.6,6.1-11.4,2-3.8,4-7.6,6.1-11.4,2.2-4.1,4.4-8.1,6.5-12.3,2.6-5,5.2-10,7.9-15,2.5-4.6,4.8-9.3,7.5-13.8,2.1-3.5,3.6-7.3,5.8-10.8,1.5-2.5,2.5-5.2,4.1-7.7.5-.7.7-1,1.7-.7,1.4.4,2.8.5,4.2.7ZM158.9,599.4c12.2,3.4,24.1,6.6,36.2,10,0-.9,0-1.5,0-2,0-10.5,0-20.9.2-31.4,0-4.4.2-8.8.1-13.2,0-1.7,0-1.7-1.8-1.5-5.3.8-10.6,1.6-15.9,2.3-1.5.2-2.3.8-3,2.3-2.8,6.2-5.9,12.4-8.8,18.6-2.3,4.9-4.6,9.8-7.1,14.9Z"/>
  <path class="cls-1" d="M245.9,569c4.3-.5,8.4-1.1,12.4-1.6,9.8-1.2,19.6-2.5,29.5-3.7,6.6-.8,13.1-1.8,19.7-2.4,6.3-.6,12.6-.5,18.7,1.3,6.3,1.9,11.5,5.3,15.5,10.5,5.7,7.4,8.3,16.1,9.7,25.2.4,2.7.9,5.4.6,8.1-.4,3.9-2,7.3-4.6,10.2-5.8,6.7-13.2,11.1-21.3,14.5-5.1,2.2-10.4,3.9-15.8,5.4-6.2,1.7-12.5,2.8-18.8,3.8-.5,0-.9.1-1.4.2-1,.1-1.2.4-.9,1.6,3.1,9.2,6.1,18.5,9.1,27.7,2.8,8.5,5.5,17,8.3,25.5.1.3.1.6,0,1.1-4,.5-8.1,1.1-12.2,1.6-9.7,1.2-19.3,2.4-29,3.6-2.4.3-2.4.3-2.7-2.2-1.7-13.6-3.4-27.1-5.1-40.7-1.5-12.1-3-24.3-4.5-36.4-1.5-12.1-3.1-24.2-4.6-36.4-.5-4.2-1.1-8.4-1.6-12.6-.2-1.4-.3-2.8-1-4.3ZM320.5,607.9c-.3-8.3-.6-16.9-.8-25.6,0-3.5.2-3.2-3.4-2.9-12.2,1.2-24.4,2.5-36.7,3.8-2.6.3-5.2.6-7.9.8-1,0-1.3.5-1,1.4,0,.4,0,.8.2,1.2,1.9,10.1,3.8,20.2,5.7,30.3.5,2.6.5,2.6,3.1,2.1,12.6-2.4,25.2-4.8,37.8-7.2q3.1-.6,2.9-4Z"/>
  <path class="cls-1" d="M437.6,577.9c1,0,1.9.2,2.8.5,2.6,1,5.3,1.1,8,.4,13.1-3.4,26.5-5.7,39.7-8.9,1.3-.3,2.5-1.1,3.9-1.2,2,.6,4,.9,6,1.5,6.8,2.3,11.4,7,14.2,13.5,3.1,7.4,3.5,15.2,2.4,23-1.2,9.2-8,15.9-17.4,18.1-3.3.7-6.6,1.2-10,1.3-.6,0-1.1,0-1.8.4.3.8.8,1.4,1.4,2,4.2,4.8,8.5,9.5,12.7,14.3,5.5,6.2,10.9,12.5,16.4,18.7,3,3.3,6,6.6,8.9,10,4.4,5,8.6,10,13.1,14.9,2.9,3.2,5.7,6.4,8.6,9.6,3.1,3.4,6.2,6.9,9.2,10.3.4.5.8,1,1,1.8-2.8-.6-5.5-.8-8.2-1.4-3.7-.8-7.4-1.4-11.1-2-9.2-1.6-18.4-3.3-27.6-4.9-1.1-.2-1.7-.8-2.2-1.6-5.4-8.6-11.3-16.9-16.7-25.5-4.4-7-9.2-13.7-13.6-20.7-4.4-6.9-9-13.7-13.5-20.5-.6-.9-1.1-1.8-1.6-2.8-.4.2-.3.4-.3.6,1,11.6,2.1,23.2,3.1,34.9.2,1.8.2,3.5.5,5.3.2,1.2-.4,1.5-1.5,1.5-3.4,0-6.7,0-10.1,0-4.9,0-9.8,0-14.6,0-1.7,0-1.7,0-1.7-1.7,0-.2,0-.5,0-.7,0-29.7,0-59.4,0-89,0-.6,0-1.1,0-1.7ZM473.5,582.6s0,0,0,0c-2.2,0-4.5-.2-6.7-.3-3.7,0-7.3-.1-11-.2-.9,0-1.3.4-1.2,1.3,0,.5,0,1,0,1.4.5,8.2.9,16.4,1.4,24.6.1,1.8.1,1.8,2,1.7,10.4-.5,20.7-1,31.1-1.6,1.8,0,1.8-.1,1.9-1.9.4-7.7.8-15.3,1.2-23,0-1.8.1-1.8-1.7-1.8-5.7-.1-11.3-.3-17-.4Z"/>
  <path class="cls-1" d="M374.5,618.2c3.5.6,6.9,1.1,10.4,1,8,0,15.3-2.2,21.8-6.8.7-.5,1.5-1,2.2-1.4,1.7,5.2,3.4,10.5,5.1,15.7,2,6.4,4,12.8,5.9,19.2,4.3,13.9,8.6,27.7,13,41.6,3.5,11.2,7,22.5,10.5,33.7,1.7,5.6,3.4,11.2,5.1,16.7-.8.4-1.6.2-2.4.2-8.2,0-16.3,0-24.5,0-2.5,0-2.4,0-2.7-2.4-.6-4.5-1.4-9-2.1-13.5-1.7-10.4-3.4-20.8-5.1-31.2-.4-2.2-.4-2.3-2.7-2.5-4.6-.4-9.2-.8-13.8-1.1-5.7-.4-11.5-.9-17.2-1.3-1.7-.1-1.7-.1-1.9,1.5-1,9.8-1.9,19.6-2.8,29.4-.7,6.8-1.3,13.7-2,20.5-.2,1.7-.2,1.8-1.9,1.7-8.8-.3-17.6-.7-26.3-1-.3,0-.6,0-1.1-.2.3-1.2.2-2.3.5-3.5,1.6-5.6,2.9-11.2,4.4-16.9,1.7-6.4,3.6-12.7,5.4-19,1.3-4.9,2.3-9.8,3.8-14.6,1.7-5.5,3.1-11.1,4.6-16.6,1.6-5.7,3.1-11.3,4.6-17,1-4,2.1-8,3.3-11.9,1-3.3,1.9-6.6,2.7-10,.8-3.5,1.8-7,3-10.4ZM409.3,667.8c-3-13.7-6-27.1-9-40.6-5.2,2-10.1,4-15,5.9-1,.4-1.1,1.2-1.3,2.1-1.9,8.4-3.8,16.8-5.6,25.2-.4,1.9-1.1,3.8-1.1,6,10.7.5,21.1,1,32.1,1.5Z"/>
  <path class="cls-2" d="M708.6,214.6c.6-1.9,2.4-2.6,3.7-3.6,5.6-4.5,10.8-9.5,14.8-15.5,2.1-3.2,3.5-6.7,4.6-10.3.8-2.5.1-5.1-.8-7.6-.3-.8-1.1-.9-1.8-.9-2.5.1-5-.3-7.4-.8-4.1-.8-7.9-2.5-10.4-6.1-1.2-1.8-2.6-3.5-3.1-5.7-.3-1.3-.3-2.6-.4-3.9-.3-4.8.7-9.2,3.4-13.3,5-7.7,12.2-9.5,20-7.4,5.9,1.6,10.8,4.9,14.3,10,2.4,3.4,3.8,7.3,3.9,11.5.3,7.5-1.3,14.7-4.2,21.5-1.8,4.4-3.7,8.7-6.3,12.6-3.6,5.5-8.4,9.6-13.9,13.1-3.5,2.2-7.1,4-11,5.4-1.7.6-3.6,1.1-5.6,1Z"/>
  <path class="cls-2" d="M483.7,490.8c-.4-7.1,4.9-15.9,16.4-16.3,3.1-.1,6.2.2,9.1,1.6,1,.5,1.4,1.1,1.4,2.2-.1,1.7-.6,3.3-1.3,4.8-.4.9-.9,1.9-1.3,2.8-.4,1-1,1.6-2.2,1.3-1.1-.3-1.8-1.4-1.5-2.6.2-1.1.7-2.1,1-3.2.4-1.6.3-1.8-1.3-2.1-10.7-2.3-16.9,5.8-16.4,13.5.4,5.4,4.2,9.4,9.6,9.8,2,.2,4,.3,6,.5.4,0,.8,0,.9.5,0,.4,0,.8-.4,1.1-.6.5-1.3.6-2,.8-8.3,2.2-18.5-3.8-18-14.7Z"/>
  <path class="cls-2" d="M375.1,552c-4.8-.2-9.4-.9-13.5-3.8-3.3-2.3-3.7-4.2-2.9-8,.3-1.6,1.8-2.7,3.3-3,4.6-.9,9.2-.8,13.5,1.3.4.2.7.4,1.1.5.6.1,1.1.6,1,1.1-.1.8-.8.9-1.5.8-2.8-.3-5.6-.5-8.3-.8-1.2-.1-2.4-.2-3.5.5-.6.3-1.5.4-1.4,1.3,0,.9.4,1.5,1.2,2.1,2.7,1.8,5.7,2.7,8.9,3.1,2.5.3,5.1.3,7.6-.3.8-.2,1.6-.3,2.3,0,1.4.6,1.7,1.6.7,2.7-.3.4-.7.7-1.2.8-2.4.5-4.7,1.7-7.3,1.5Z"/>
  <path class="cls-2" d="M637.3,514.8c-2.7.4-4-.3-5.2-2.8-2-4-2.1-8.1-.6-12.3,2.9-8.1,11.9-12.7,19.7-10.1,2.9,1,5.2,2.8,7,5.2.3.4.6.8.7,1.3.2.9.3,1.9-.5,2.4-.9.6-1.7,0-2.3-.8-1.5-1.8-3.3-3.3-5.4-4.2-8.6-3.7-15.2,2.9-16.3,8.8-.5,2.6-.2,5.1.8,7.5.7,1.7,1.4,3.4,2.2,5.1Z"/>
  <path class="cls-2" d="M488.1,454.6c.9.4,1.5.8,2,1.5,1.4,1.8,3.3,2.8,5.5,3.2,3.7.7,7.3.6,10.9-.3,1.4-.3,2.8-.6,4.2-.9,1-.2,1.8.2,2.1,1.1.3.8,0,1.6-.7,2.1-.5.5-1.2.8-1.8,1.1-6.1,2.4-12.2,2.3-18.2-.3-3.4-1.5-4.9-4.2-4.1-7.5Z"/>
  <path class="cls-2" d="M188,428.3c-1.9.6-3.3.3-4.6-.4-3.4-1.8-6.1-4.4-8.2-7.6-2.8-4.1-4.9-8.4-4.6-13.6,0-.5,0-1,.1-1.4.3-1.5,1.7-2.2,3.1-1.5.4.2.5.5.5,1,0,.8,0,1.6,0,2.4,0,7.9,3.7,13.8,9.7,18.5,1.1.9,2.4,1.6,3.9,2.6Z"/>
  <path class="cls-2" d="M495.3,473.8c-3.5,0-6.5-1-8.4-4.1-.9-1.4-1.5-2.9-.6-4.5.2-.4.4-.9,1-1,.6,0,.7.5,1,.9,2.2,3.9,5.5,5.3,10,4.1,1-.3,2-.6,3-.9.8-.2,1.6-.1,2.1.7.5.8,0,1.6-.5,2.1-1.7,1.7-3.8,2.6-6.3,2.6-.4,0-.8,0-1.2,0Z"/>
  <path class="cls-2" d="M467,479.8c.1-1.9.8-3.7,2-5.2,1.4-1.8,3.1-3.4,4.7-5.1.3-.3.6-.5,1-.6.4-.2.8,0,1.1.3.4.4,0,.7-.2,1-1.2,1.3-2.3,2.6-3.5,3.9-1.1,1.2-1.8,2.6-2,4.3-.2,2.2,1,3.3,3.2,3,.4,0,.8-.2,1.2-.2.9,0,1.8,0,2.2,1,.3,1-.3,1.6-1,2.2-2.4,2-5.5,1.6-7.4-.8-.9-1.1-1.2-2.4-1.3-3.8Z"/>
  <path class="cls-2" d="M473.5,462.1c.3.4.3.8.1,1.1-1.7,3.7-7,6.7-10.6,5.8-2.8-.7-5.1-3-5.2-5.5,0-.8,0-1.7.8-2.1.8-.4,1.5-.2,2.3.2.7.3,1,1,1.5,1.5,1.9,2.4,3.8,2.7,6.5,1.3,1.1-.6,2.2-1.3,3.3-1.9.4-.2.8-.5,1.3-.4Z"/>
  <path class="cls-2" d="M664.6,473.3c2.5-.5,5-1.1,7.5-1.6,1.1-.2,2.1,0,2.6,1.1.5,1.2-.2,1.9-1.1,2.6-3.3,2.4-7.2,1.6-9-2.1Z"/>
  <path class="cls-1" d="M636.6,551c4.3-1.9,8.9-3.3,13.3-4.9.3,4,1.2,7.9,3.3,11.4.4.8.3,1.3-.3,1.9-3,2.8-7.4,2.9-10.3,0-2.5-2.4-4.4-5.2-5.9-8.4Z"/>
  <path class="cls-2" d="M523.2,336.2c0,4.4-.8,8.6-3.3,12.3-3.8,5.7-9.3,8.1-16.1,7.4-8.7-.9-15.1-5.7-20.4-12.2-4.7-5.8-7.3-12.6-7.7-20-.4-6.7,1.6-12.6,7.2-16.9,1.7-1.3,3.6-2.1,5.6-2.6.7-.2,1.4-.3,2.1-.2,1.6.3,2.1,1.5,1.3,2.8-.6,1.1-1.7,1.7-2.7,2.4-1,.7-2.1,1.2-3,2-5.6,4.5-8.1,10.1-6.3,17.3,2.5,10.1,8.4,17.6,17.7,22.4,3.2,1.6,6.6,2.4,10.2,1.8,6.7-1.1,11.4-6.1,12.4-12.8,1.2-8.2-1.5-15.3-6.2-21.7-3.1-4.3-7.2-7.5-12-9.7-.7-.3-1.5-.6-2.1-1.2-.2-.2-.4-.5-.3-.8.1-.3.5-.4.8-.5.9-.2,1.7.2,2.5.6,7.5,3.2,12.9,8.7,16.7,15.8,2.3,4.4,3.6,9,3.5,14Z"/>
  <path class="cls-2" d="M239.2,507.4c-1.2,1-1.8,2.2-2.5,3.3-.6,1-1.2,2-2.2,2.8-1.6,1.3-3.3,1.4-5,.2-1.7-1.2-2.7-2.9-3.8-4.6-.3-.5-.5-1.1-1.4-1.6.2,5.2,1.7,10,1.9,15.3-1.2-.9-1.5-1.8-1.7-2.7-1.4-5.3-2.2-10.8-2.5-16.3,0-.2,0-.5,0-.7,0-.7.2-1.3.9-1.6.7-.3,1.3,0,1.7.6.5.6.9,1.1,1.3,1.7,1.1,1.6,2,3.2,3.1,4.8,2.2,3.3,3.5,3.2,5.4-.2.7-1.2,1.4-2.5,2.1-3.7.8-1.3,1.9-2.1,3.6-1.9,1.7.2,2.4,1.5,2.9,2.9.3.9.4,1.9.2,2.8,0,.5.1,1.2-.5,1.5-.7.2-1.1-.4-1.5-.9-.5-.6-.9-1.3-1.7-1.8Z"/>
  <path class="cls-2" d="M248.1,484.5c1,.8,2.1.9,3.1,1.3,1.7.6,3.2,1.4,3.9,3.3.4,1,.2,1.8-.5,2.6-.6.6-1.2.9-1.8.2-1.7-1.8-4-2.2-6.3-2.6-3.1-.6-3.9-2.3-2.2-4.9,1.7-2.7,3.5-5.4,5.2-8.1.7-1.1,1.4-2.1,1.3-3.7-1.6-.2-3,.5-4.4.9-1.3.4-2.6.9-3.9,1-.3,0-.7.1-.8-.3-.1-.4,0-.7.3-.8.4-.2.9-.4,1.3-.6,2.4-.9,4.8-1.8,7.2-2.6.4-.1.8-.3,1.2-.3,1.5-.2,2.1.4,2,1.8-.2,1.9-.8,3.7-1.7,5.5-.7,1.5-1.6,3-2.3,4.4-.5.9-.9,1.8-1.4,2.9Z"/>
  <path class="cls-2" d="M286.2,523c-.3,2.4-1.6,5-3.7,7-.5.5-1.1,1.1-1.9.6-.6-.4-.5-1.3-.3-2,.3-1.4.5-2.8.9-4.2.5-1.8-.3-1.8-1.6-1.6-1.1.1-2.2.5-3.3.7-.5.1-1.1.3-1.6.4-4.8,1.1-8.3-2.8-6.8-7.6.2-.6.4-1.3,1.2-1.3.9,0,1,.7,1.2,1.3.2.6.3,1.2.5,1.8.9,2.6,1,2.7,3.7,1.9,1.3-.4,2.6-.8,3.9-1.3,1.3-.5,2.7-.5,4-.4,2.6.2,3.9,1.5,3.9,4.7Z"/>
  <path class="cls-2" d="M395,400.1c-1.1.7-2.2.6-3.3.5-3.6-.5-6.6.6-9.2,3.1-2.2,2.1-1.8,4.4,1,5.7,1.4.6,2.8,1.1,4.2,1.7,1.2.5,2.4,1.2,2.2,2.8,0,1-1.2,1.5-3.2,1.5-3.3,0-6.1-1.2-8.4-3.5-1.9-1.9-2.4-4.1-1.5-6.6.3-.9.8-1.7,1.4-2.5,2.7-3.7,9.6-6.1,14-4.9,1.2.3,2.2.8,2.7,2.3Z"/>
  <path class="cls-2" d="M392.4,386.9c-3.4,0-5.8-3.4-4.8-6.9.2-.7.5-1.4.8-2,1.5-3.3,4.5-4.2,7.7-2.4,1.3.7,2,1.8,2.2,3.2.5,2.9-1.5,6.6-4.1,7.8-.6.3-1.2.4-1.9.4Z"/>
  <path class="cls-2" d="M420.2,382.5c2,0,3.1.8,3.7,2.7,1.3,3.8-1.6,8.4-5.6,8.9-2.9.4-5.4-2.5-4.9-5.6.5-3.2,3.5-5.9,6.8-6Z"/>
  <path class="cls-2" d="M409.7,388.4c0,3.4-1.2,6.4-3.7,8.8-.9.9-2,1.6-3.3,1.8-1.7.2-3.2-.7-3.7-2.3-.5-1.5-.1-2.6,1.5-3,4.4-1.2,5.5-4.7,5.3-8.5,0-.7-.3-1.5.7-1.7,1-.2,1.9,0,2.5.9.7,1.2.8,2.6.8,4Z"/>
  <path class="cls-2" d="M384.3,368.4c1-.8,2-1,3-1.3,2.6-.9,5.1-1.8,7.2-3.6.6-.5,1.5-1.3,2.3-.9,1,.4.8,1.6.9,2.6,0,.5,0,1.1,0,1.7-.2,1.5,0,2.8.6,4.2.4.8.9,1.7.4,2.8-1.6-.2-2.5-1.3-3-2.7-.3-.8-.4-1.7-.5-2.6-.3-2-.5-2.1-2.4-1.3-1.6.7-3.2,1.4-4.9,1.8-1.1.3-2.2.3-3.5-.5Z"/>
  <path class="cls-2" d="M414,379.2c.7-1.1,1.8-1.6,2.9-1.9,2.8-.9,5.2-2.4,6.8-4.9.5-.7,1.1-1.3,2.2-1.7,1.1,3.3,2.5,6.4,5.8,8.4-2,.9-3.8.6-4.7-.8-1.7-2.6-3.6-2.1-5.8-1-1.6.8-3.2,1.3-4.8,2-.7.3-1.5.5-2.3-.1Z"/>
  <path class="cls-2" d="M278.1,428.7c-3.4.3-6.1-1.4-8.3-4.1-1.1-1.3-1.7-2.8-1.1-4.4.5-1.5,0-2.5-1.3-3.1-.4-.2-.7-.4-1-.7-.5-.5-1.1-1.2-.7-1.9.5-.8,1.3-.1,1.9.2,7,3.9,14.3,3.9,21.8,1.8,1.2-.3,2.1-1,3.1-1.7.9-.6,1.8-1.2,2.8-.2.8.8.8,1.5-.1,2.8-2.5,3.4-5,6.8-8.8,9-2.5,1.5-5.2,2.5-8.3,2.3ZM287.1,420.7c-.4-.4-.7-.3-1-.3-3.6.2-7.2.4-10.7-.4-.7-.1-1.6-.4-2,.3-.4.8.2,1.5.7,2.1.3.3.7.7,1.1.9,2.4,1.3,4.8,1.6,7.3.5,1.7-.7,3.2-1.8,4.5-3.2Z"/>
  <path class="cls-2" d="M280.4,413.5c-1.9,0-3.8-.4-5.4-1.4-.7-.5-1.5-1-1.8-1.8-.3-.7-.4-1.5.1-2.1.6-.6,1.2.1,1.7.5,2.4,1.8,5,1.9,7.7,1.1.5-.1.9-.3,1.4-.4,1,0,1.8.4,2.1,1.3.3.8-.4,1.3-1,1.7-1.4.9-3,1-4.6,1.2Z"/>
</svg>