<svg width="256" height="256" viewBox="0 0 256 256" fill="none" xmlns="http://www.w3.org/2000/svg">
<path d="M139.79 142.085C139.637 142.009 140.008 140.615 140.008 140.244C141.478 136.486 142.437 133.61 143.995 129.482C132.415 129.482 121.205 129.482 110.072 129.482C111.771 134.939 113.536 140.615 115.312 146.301C115.159 146.083 115.018 145.931 114.865 145.713C115.606 146.748 116.27 147.707 116.565 148.295C118.852 152.424 120.693 158.916 122.611 164.886C124.604 170.856 125.933 178.677 125.933 178.677C125.933 178.677 128.439 166.291 130.508 160.245C132.709 154.112 140.748 140.615 139.79 142.085Z" fill="#4DAE37"/>
<path d="M137.132 155.735C137.056 155.888 136.979 156.029 136.838 156.247C133.373 164.287 127.622 184.865 127.404 190.246C127.186 194.299 127.328 201.303 127.404 205.366C128.068 204.778 137.066 206.325 141.119 206.913C139.419 199.386 137.437 192.24 136.173 184.865C134.55 174.984 133.885 165.104 137.132 155.735Z" fill="#4DAE37"/>
<path d="M124.081 205.508C124.081 200.933 124.157 191.793 124.005 190.388C123.852 188.612 122.088 170.692 117 161.476C117.371 163.023 117.665 164.722 117.665 166.422C117.817 173.35 117 180.431 115.9 187.294C114.865 193.634 112.872 199.756 111.325 206.031C115.377 205.584 120.835 205.29 124.081 205.508Z" fill="#4DAE37"/>
<path d="M125.192 109.786C122.611 109.71 120.029 109.492 117.447 109.198L116.118 122.619C118.841 122.836 121.499 123.131 124.234 123.283L125.192 109.786Z" fill="#4DAE37"/>
<path d="M148.494 121.29C150.781 120.843 153.069 120.407 155.281 120.037L152.699 107.574C150.705 108.021 148.646 108.315 146.653 108.609L148.494 121.29Z" fill="#4DAE37"/>
<path d="M99.6795 120.625C100.486 120.919 101.303 121.137 102.109 121.213C103.579 121.366 105.061 121.507 106.532 121.66L111.031 108.381C108.667 108.01 106.39 107.575 104.026 107.052L99.6795 120.625Z" fill="#4DAE37"/>
<path d="M140.89 122.619L140.008 109.416C137.132 109.633 134.256 109.862 131.304 109.862V123.436C131.456 123.436 131.522 123.436 131.674 123.436C134.779 123.436 137.873 123.065 140.89 122.619Z" fill="#4DAE37"/>
<path d="M222.015 68.0415C220.686 74.4579 215.969 77.6279 209.476 76.5277C206.088 76.0157 203.507 77.6388 201.883 80.4385C198.931 85.5258 196.72 90.9835 193.256 95.7004C189.715 100.57 185.075 104.622 180.946 109.045C180.205 109.851 179.541 110.668 178.811 111.474C177.776 111.921 176.741 112.433 175.717 112.88C171.512 114.797 167.307 116.638 162.449 118.849C161.566 114.797 160.608 111.18 160.161 107.487C160.085 106.529 161.566 105.058 162.59 104.459C168.418 101.365 174.312 98.4892 180.216 95.537C184.268 93.4672 187.373 90.6676 189.29 86.3973C192.384 79.6106 197.548 74.6758 204.258 71.4295C205.958 70.6233 207.505 69.3597 208.975 68.1069C213.028 64.5665 216.644 64.1961 221.361 66.8541C221.568 67.3117 221.786 67.6821 222.015 68.0415Z" fill="#060607"/>
<path d="M95.3983 104.622C94.8863 108.969 94.2872 113.544 93.6989 118.261C77.6962 112.956 65.1576 103.882 57.5648 88.7612C55.2771 84.2622 53.2182 79.5452 48.425 77.1051C46.2899 75.9939 43.7844 75.776 41.6383 74.7411C38.9803 73.4884 36.1806 72.1593 33.9692 70.3183C32.8581 69.5776 32.2044 66.9958 32.7927 65.8955C33.4572 64.5665 35.4507 63.39 37.0739 63.0959C41.1263 62.3551 44.4489 64.1308 47.2485 67.0067C48.5776 68.3357 50.1244 69.5122 51.7476 70.3946C57.0528 73.2705 61.0399 77.4754 64.3624 82.4102C68.2732 88.3146 72.0315 94.5784 78.6657 97.8247C83.8184 100.494 89.4286 102.269 95.3983 104.622Z" fill="#060607"/>
<path d="M146.947 205.149C147.459 201.684 148.2 198.362 148.352 194.974C148.57 190.845 148.494 186.717 148.134 182.588C147.764 178.753 147.546 178.83 151.816 177.424C153.952 183.1 154.616 188.928 154.028 194.909C153.81 197.044 153.069 199.19 152.917 201.401C152.622 205.584 150.335 206.031 146.947 205.149Z" fill="#060607"/>
<path d="M99.8211 177.566C103.95 177.936 103.95 179.93 103.808 183.176C103.514 189.44 104.179 195.791 104.473 202.131C104.549 203.166 104.843 204.201 104.985 205.225C99.6795 205.813 99.7449 205.737 98.7209 200.726C97.2393 192.904 97.3918 185.159 99.8211 177.566Z" fill="#060607"/>
<path d="M181.752 110.004C180.717 110.516 179.758 111.039 178.8 111.474C177.765 111.921 176.73 112.433 175.706 112.88C174.889 113.62 174.235 114.503 173.277 115.015C166.272 118.773 159.191 122.39 152.263 126.224C150.716 127.03 149.169 128.218 148.134 129.612C146.359 131.976 144.67 134.482 143.047 136.911C138.254 144.068 132.654 154.09 130.585 160.071C128.45 166.117 126.009 178.503 126.009 178.503C126.009 178.503 124.604 170.681 122.687 164.711C120.693 158.742 118.929 152.249 116.641 148.121C116.347 147.609 115.682 146.65 114.941 145.539C113.689 143.916 112.512 142.292 111.401 140.669V140.593C109.113 137.347 106.978 134.024 104.767 130.789C103.514 128.948 101.673 127.248 99.7558 126.148C93.0453 122.39 86.117 118.991 79.4065 115.309C76.3781 113.686 73.4368 111.769 70.3321 109.927C68.709 116.344 70.7787 121.137 76.0839 123.501C78.6657 124.612 81.4654 125.266 83.9709 126.453C85.6703 127.259 87.7292 128.523 88.3937 130.07C91.64 137.521 97.2393 141.573 105.137 142.685C106.314 142.837 108.013 143.131 108.46 143.861C111.706 149.537 115.682 154.994 117.24 161.334C122.327 170.55 124.103 188.47 124.245 190.246C124.397 191.651 124.321 203.591 124.245 208.09C125.356 208.166 126.532 208.231 127.567 208.09C127.491 203.961 127.415 194.157 127.567 190.094C127.785 184.712 133.537 164.134 137.001 156.095C137.077 155.877 137.154 155.724 137.295 155.583C138.472 152.26 140.095 149.014 142.306 145.92C143.712 143.926 145.106 142.826 147.546 142.532C153.298 141.791 158.973 139.438 161.12 134.275C163.843 127.641 168.941 126.094 174.54 124.1C181.229 121.736 183.299 117.607 181.752 110.004ZM91.7816 128.37C98.7862 128 100.921 129.623 104.832 138.403C98.3505 137.151 94.8863 133.164 91.7816 128.37ZM147.165 138.48C150.117 130.364 153.211 128.011 159.997 128.447C157.122 133.534 153.287 137.151 147.165 138.48Z" fill="#060607"/>
<path d="M131.38 109.862C129.31 109.862 127.251 109.862 125.181 109.786L124.299 123.283C126.663 123.436 129.016 123.501 131.456 123.436V109.862H131.38Z" fill="#060607"/>
<path d="M116.194 122.619L117.523 109.198C115.388 108.98 113.242 108.686 111.107 108.315L106.608 121.595C109.778 121.954 112.948 122.324 116.194 122.619Z" fill="#060607"/>
<path d="M104.026 107.062C102.697 106.768 101.368 106.474 100.039 106.18C99.1566 111.267 98.3396 115.549 97.6097 119.971C98.3505 120.189 99.0804 120.483 99.7449 120.712L104.026 107.062Z" fill="#060607"/>
<path d="M156.457 106.768C155.204 107.062 153.952 107.357 152.775 107.574L155.357 120.037C155.433 120.037 155.433 120.037 155.498 120.037C156.239 119.884 157.339 118.49 157.274 117.607C157.187 114.209 156.751 110.821 156.457 106.768Z" fill="#060607"/>
<path d="M146.718 108.686C144.507 108.98 142.295 109.274 140.084 109.492L140.966 122.695C143.472 122.324 146.054 121.889 148.559 121.366L146.718 108.686Z" fill="#060607"/>
<path d="M51.6713 203.515C51.9219 203.297 52.1942 203.133 52.4993 203.035C52.8043 202.937 53.1202 202.894 53.4361 202.915C53.752 202.948 54.057 203.024 54.3403 203.166C54.6235 203.308 54.8741 203.504 55.0919 203.754C55.3643 204.07 55.8545 204.103 56.1704 203.83L58.5888 201.728C58.9047 201.456 58.9374 200.965 58.665 200.649C57.8262 199.691 56.8131 198.994 55.6366 198.591C54.4819 198.188 53.2945 198.079 52.1071 198.275C51.4861 198.384 50.8652 198.569 50.2661 198.841C49.656 199.124 49.0896 199.495 48.5667 199.941L43.719 204.168C43.4684 204.386 43.1961 204.539 42.8911 204.637C42.5752 204.735 42.2701 204.778 41.9542 204.756C41.6383 204.735 41.3442 204.658 41.0501 204.517C40.7668 204.375 40.5163 204.19 40.2875 203.928C40.0696 203.678 39.9062 203.395 39.8082 203.09C39.7101 202.774 39.6666 202.469 39.6884 202.153C39.7101 201.837 39.7864 201.543 39.928 201.249C40.0696 200.965 40.2548 200.715 40.5163 200.486L45.353 196.27C46.0938 195.628 46.6821 194.876 47.096 194.015C47.4991 193.166 47.7387 192.283 47.7932 191.379C47.8586 190.453 47.7387 189.538 47.4555 188.656C47.1723 187.751 46.7038 186.924 46.0502 186.172C45.7779 185.856 45.2877 185.823 44.9718 186.096L42.5534 188.198C42.2375 188.47 42.2048 188.961 42.4771 189.277C42.695 189.538 42.8584 189.81 42.9564 190.104C43.0545 190.42 43.0981 190.725 43.0763 191.03C43.0436 191.357 42.9673 191.651 42.8257 191.956C42.6841 192.24 42.4989 192.49 42.2484 192.708L37.4116 196.924C36.8887 197.381 36.4421 197.882 36.0826 198.438C36.0826 198.438 36.0826 198.449 36.0717 198.449C35.7231 199.005 35.4507 199.604 35.2656 200.203C34.917 201.347 34.8516 202.534 35.0804 203.743C35.32 204.963 35.8647 206.064 36.6926 207.022C37.3353 207.763 38.0979 208.351 38.9585 208.754C39.7973 209.157 40.6906 209.397 41.6056 209.462C41.769 209.473 41.9324 209.484 42.085 209.484C42.8366 209.484 43.5883 209.364 44.3181 209.125C45.2223 208.841 46.0502 208.373 46.8019 207.719L46.8128 207.709L51.6713 203.515Z" fill="#4FAE37"/>
<path d="M63.9049 204.724L61.4756 202.643C61.3231 202.512 61.127 202.447 60.92 202.458C60.713 202.469 60.5278 202.567 60.3971 202.719L47.9348 217.317C47.6625 217.633 47.6952 218.123 48.022 218.395L50.4513 220.476C50.5929 220.596 50.7672 220.661 50.9415 220.661C50.9633 220.661 50.985 220.661 50.9959 220.661C51.2029 220.65 51.3881 220.552 51.5188 220.4L63.9811 205.813C64.2644 205.486 64.2208 204.996 63.9049 204.724Z" fill="#4FAE37"/>
<path d="M73.1318 216.304L74.951 213.667C75.1907 213.319 75.1035 212.85 74.7549 212.611L72.1187 210.792C71.0729 210.073 69.9181 209.659 68.6872 209.561C67.4562 209.463 66.2797 209.648 65.1903 210.127C64.613 210.388 64.0574 210.726 63.5454 211.14C63.0987 211.5 62.6957 211.924 62.3362 212.404C62.3144 212.426 62.2926 212.447 62.2817 212.48L58.5452 217.905C57.9896 218.711 57.6084 219.594 57.4341 220.52C57.2489 221.435 57.238 222.361 57.4014 223.265C57.5648 224.158 57.9025 225.008 58.3927 225.803C58.8938 226.609 59.5583 227.295 60.3644 227.851L63.0007 229.67C63.1314 229.757 63.2839 229.801 63.4364 229.801C63.48 229.801 63.5236 229.801 63.5781 229.79C63.7741 229.757 63.9484 229.637 64.0683 229.474L65.8875 226.838C66.0073 226.674 66.0509 226.467 66.0073 226.271C65.9747 226.075 65.8548 225.901 65.6914 225.781L63.0552 223.962C62.7828 223.777 62.565 223.548 62.3907 223.276C62.2164 222.992 62.0965 222.698 62.0312 222.382C61.9767 222.077 61.9767 221.772 62.0421 221.456C62.1074 221.14 62.2381 220.857 62.4342 220.574L62.9027 219.888L64.8962 221.26C65.2448 221.5 65.7132 221.413 65.9529 221.064L67.7721 218.428C67.8919 218.265 67.9355 218.058 67.8919 217.861C67.8593 217.665 67.7394 217.491 67.576 217.371L65.5825 215.999L66.0618 215.301C66.2579 215.018 66.4758 214.8 66.7372 214.637C67.0095 214.463 67.2928 214.354 67.5978 214.299C67.9137 214.245 68.2296 214.256 68.5564 214.31C68.8724 214.376 69.1556 214.495 69.4279 214.681L72.0642 216.5C72.4237 216.739 72.8921 216.652 73.1318 216.304Z" fill="#4FAE37"/>
<path d="M80.6375 215.89L77.7833 214.441C77.413 214.256 76.9445 214.397 76.7593 214.778L70.9857 226.173C70.55 227.045 70.2885 227.96 70.2341 228.908C70.1687 229.844 70.2885 230.759 70.5718 231.62C70.855 232.492 71.3016 233.298 71.9008 234.006C72.4999 234.736 73.2516 235.335 74.134 235.781L76.9881 237.23C77.097 237.285 77.2169 237.317 77.3367 237.317C77.413 237.317 77.5001 237.307 77.5764 237.285C77.7724 237.219 77.925 237.089 78.023 236.903L79.4719 234.049C79.559 233.864 79.5808 233.657 79.5154 233.472C79.4501 233.276 79.3193 233.123 79.1341 233.025L76.28 231.576C75.67 231.271 75.2778 230.803 75.0708 230.16C74.8639 229.518 74.9183 228.918 75.2124 228.319L80.9861 216.925C81.0732 216.739 81.095 216.532 81.0296 216.347C80.9534 216.14 80.8227 215.977 80.6375 215.89Z" fill="#4FAE37"/>
<path d="M93.4157 238.396L90.3873 237.35C89.7445 237.132 89.287 236.718 88.9929 236.119C88.6987 235.509 88.6661 234.899 88.8948 234.267L93.0889 222.197C93.1542 222.001 93.1433 221.794 93.0562 221.62C92.969 221.435 92.8056 221.293 92.6205 221.228L89.592 220.182C89.3959 220.116 89.189 220.127 89.0147 220.214C88.8295 220.302 88.6879 220.465 88.6225 220.65L84.4284 232.72C84.1125 233.635 83.9818 234.594 84.0472 235.531C84.1125 236.468 84.3413 237.35 84.7553 238.178C85.1474 239.006 85.703 239.747 86.3893 240.368C87.0865 241.01 87.9035 241.501 88.8404 241.816L91.8688 242.862C91.945 242.895 92.0322 242.906 92.1193 242.906C92.2283 242.906 92.3481 242.884 92.457 242.83C92.6422 242.742 92.7839 242.579 92.8492 242.394L93.895 239.365C94.0257 238.962 93.8187 238.527 93.4157 238.396Z" fill="#4FAE37"/>
<path d="M111.477 226.108L108.34 225.476C107.087 225.226 105.867 225.302 104.701 225.694C103.536 226.086 102.523 226.718 101.706 227.589C101.27 228.058 100.9 228.592 100.595 229.169C100.322 229.67 100.115 230.226 99.9845 230.803C99.9736 230.836 99.9627 230.858 99.9627 230.89L98.6555 237.339C98.4594 238.309 98.4594 239.267 98.6555 240.182C98.8407 241.098 99.2002 241.958 99.7122 242.721C100.213 243.472 100.856 244.126 101.629 244.671C102.403 245.215 103.285 245.586 104.255 245.782L107.392 246.414C107.447 246.425 107.49 246.425 107.545 246.425C107.904 246.425 108.22 246.174 108.296 245.815L108.928 242.677C109.015 242.263 108.743 241.86 108.329 241.784L105.192 241.152C104.865 241.087 104.582 240.967 104.32 240.782C104.048 240.596 103.83 240.368 103.645 240.106C103.47 239.845 103.362 239.572 103.285 239.257C103.231 238.941 103.231 238.625 103.296 238.287L103.46 237.47L105.834 237.949C106.03 237.993 106.237 237.949 106.412 237.84C106.575 237.731 106.695 237.557 106.739 237.361L107.37 234.224C107.414 234.028 107.37 233.821 107.261 233.646C107.153 233.483 106.978 233.363 106.782 233.32L104.407 232.84L104.571 232.034C104.636 231.696 104.756 231.402 104.93 231.13C105.115 230.868 105.333 230.651 105.584 230.476C105.856 230.302 106.15 230.182 106.466 230.117C106.782 230.051 107.087 230.051 107.414 230.117L110.551 230.749C110.747 230.792 110.954 230.749 111.129 230.64C111.303 230.531 111.412 230.356 111.456 230.16L112.087 227.023C112.131 226.827 112.087 226.62 111.978 226.446C111.848 226.26 111.673 226.152 111.477 226.108Z" fill="#4FAE37"/>
<path d="M120.356 241.392L113.983 240.88C113.569 240.847 113.198 241.163 113.166 241.577L112.915 244.769C112.904 244.976 112.959 245.172 113.09 245.324C113.22 245.477 113.405 245.575 113.612 245.586L119.985 246.098C120.007 246.098 120.029 246.098 120.051 246.098C120.236 246.098 120.41 246.032 120.541 245.912C120.693 245.782 120.791 245.597 120.802 245.39L121.053 242.198C121.064 241.991 121.009 241.795 120.879 241.642C120.748 241.501 120.563 241.403 120.356 241.392Z" fill="#4FAE37"/>
<path d="M141.369 230.64C140.945 229.812 140.378 229.082 139.692 228.472L139.681 228.461C138.995 227.862 138.188 227.404 137.306 227.088C136.467 226.794 135.574 226.674 134.648 226.718C134.594 226.707 134.539 226.707 134.485 226.707L131.293 226.925C131.238 226.925 131.184 226.936 131.14 226.947C130.519 227.001 129.909 227.132 129.343 227.35C128.711 227.568 128.134 227.873 127.611 228.254C126.641 228.951 125.868 229.866 125.334 230.956C124.789 232.067 124.55 233.276 124.637 234.55C124.669 234.975 125.029 235.291 125.443 235.259L128.635 235.041C129.06 235.008 129.376 234.648 129.343 234.235C129.321 233.897 129.354 233.581 129.463 233.287C129.572 232.971 129.724 232.709 129.931 232.47C130.149 232.23 130.4 232.045 130.694 231.892C130.748 231.86 130.803 231.838 130.857 231.816L131.859 246.882C131.881 247.285 132.219 247.59 132.622 247.59C132.644 247.59 132.654 247.59 132.676 247.59L135.868 247.372C136.075 247.361 136.26 247.263 136.391 247.111C136.522 246.958 136.587 246.762 136.576 246.555L135.574 231.489C135.639 231.511 135.705 231.522 135.759 231.544C136.064 231.653 136.337 231.805 136.565 232.012C136.805 232.219 136.99 232.459 137.143 232.764C137.284 233.047 137.371 233.352 137.393 233.679C137.426 234.104 137.785 234.42 138.199 234.387L141.391 234.169C141.816 234.136 142.132 233.777 142.099 233.363C142.056 232.404 141.805 231.478 141.369 230.64Z" fill="#4FAE37"/>
<path d="M160.357 235.575L157.252 223.178C157.198 222.981 157.078 222.818 156.904 222.709C156.729 222.6 156.522 222.578 156.326 222.622L153.222 223.395C152.808 223.493 152.568 223.907 152.666 224.321L155.771 236.718C155.858 237.056 155.869 237.372 155.814 237.677C155.76 238.004 155.651 238.287 155.498 238.559C155.335 238.832 155.128 239.06 154.867 239.257C154.616 239.453 154.333 239.583 153.995 239.671C153.668 239.747 153.363 239.769 153.047 239.714C152.721 239.66 152.426 239.551 152.143 239.398C151.882 239.235 151.653 239.039 151.457 238.777C151.272 238.516 151.141 238.233 151.054 237.895L147.949 225.498C147.895 225.302 147.775 225.138 147.601 225.029C147.426 224.921 147.219 224.899 147.023 224.942L143.919 225.716C143.722 225.77 143.559 225.89 143.45 226.064C143.341 226.239 143.319 226.446 143.363 226.642L146.468 239.039C146.642 239.714 146.892 240.346 147.23 240.912C147.568 241.49 147.971 242.002 148.428 242.448C149.289 243.276 150.324 243.865 151.5 244.202C152.121 244.387 152.764 244.475 153.407 244.475C153.984 244.475 154.562 244.398 155.15 244.257C156.108 244.017 156.969 243.603 157.721 243.026C158.472 242.448 159.093 241.762 159.562 240.989C160.03 240.215 160.346 239.344 160.499 238.418C160.64 237.492 160.597 236.533 160.357 235.575Z" fill="#4FAE37"/>
<path d="M175.15 233.516C174.475 232.851 173.702 232.339 172.863 232.001C172.166 231.718 171.425 231.544 170.651 231.479C171.153 230.89 171.545 230.248 171.839 229.539C172.187 228.69 172.373 227.775 172.373 226.849C172.384 225.901 172.198 224.964 171.828 224.049C171.447 223.145 170.913 222.35 170.227 221.696C169.551 221.032 168.778 220.52 167.939 220.182C167.1 219.833 166.196 219.659 165.259 219.637C164.311 219.626 163.374 219.811 162.459 220.182C162.416 220.204 162.372 220.225 162.329 220.258L159.507 221.435C159.115 221.598 158.93 222.045 159.093 222.437L166.468 240.128C166.545 240.313 166.697 240.466 166.882 240.542C166.98 240.586 167.078 240.596 167.176 240.596C167.274 240.596 167.372 240.575 167.47 240.542L170.423 239.311C170.815 239.148 171 238.701 170.837 238.309L169.954 236.185C170.009 236.185 170.074 236.185 170.139 236.185C170.466 236.185 170.771 236.25 171.065 236.37H171.076C171.37 236.479 171.61 236.642 171.839 236.871L171.85 236.882C172.078 237.1 172.253 237.361 172.394 237.677C172.558 238.069 173.004 238.243 173.386 238.091L176.338 236.86C176.523 236.784 176.676 236.631 176.752 236.446C176.828 236.261 176.828 236.054 176.752 235.858C176.371 234.964 175.826 234.169 175.15 233.516ZM165.216 224.376C165.542 224.376 165.847 224.441 166.141 224.561H166.152C166.446 224.67 166.686 224.833 166.915 225.062L166.926 225.073C167.155 225.291 167.329 225.552 167.47 225.879C167.732 226.511 167.732 227.121 167.47 227.753C167.318 228.123 167.111 228.428 166.828 228.668L165.041 224.387C165.096 224.376 165.15 224.376 165.216 224.376Z" fill="#4FAE37"/>
<path d="M190.053 220.901C189.541 220.062 188.887 219.354 188.125 218.809C187.362 218.264 186.523 217.883 185.652 217.665C184.759 217.437 183.833 217.393 182.907 217.535C181.97 217.665 181.066 217.981 180.227 218.493C180.053 218.602 179.933 218.766 179.878 218.962C179.824 219.158 179.857 219.365 179.965 219.539L181.164 221.522C181.109 221.533 181.044 221.543 180.989 221.554C180.663 221.598 180.347 221.587 180.031 221.511C179.726 221.435 179.453 221.304 179.192 221.119C178.931 220.923 178.724 220.694 178.549 220.4C178.375 220.106 178.255 219.811 178.212 219.495C178.168 219.18 178.19 218.875 178.255 218.57C178.342 218.254 178.473 217.97 178.658 217.698C178.843 217.437 179.072 217.23 179.355 217.055L182.09 215.399C182.264 215.291 182.384 215.127 182.438 214.931C182.493 214.735 182.46 214.528 182.351 214.354L180.695 211.619C180.586 211.445 180.423 211.325 180.227 211.271C180.031 211.227 179.824 211.249 179.65 211.358L176.915 213.014C176.076 213.526 175.368 214.168 174.824 214.942C174.279 215.704 173.898 216.543 173.68 217.426C173.462 218.319 173.418 219.245 173.549 220.16C173.68 221.097 173.996 222.001 174.508 222.84C174.867 223.428 175.292 223.951 175.793 224.409C176.273 224.844 176.806 225.215 177.373 225.509C178.44 226.053 179.606 226.315 180.837 226.293C182.068 226.26 183.234 225.912 184.323 225.258C184.682 225.04 184.802 224.572 184.584 224.212L183.386 222.23C183.451 222.208 183.517 222.197 183.582 222.186C183.898 222.143 184.203 222.164 184.508 222.241H184.519C184.824 222.317 185.107 222.448 185.369 222.633C185.63 222.818 185.837 223.047 186.011 223.33C186.186 223.624 186.295 223.918 186.338 224.234C186.382 224.561 186.371 224.866 186.295 225.171C186.218 225.476 186.088 225.759 185.903 226.021C185.739 226.25 185.543 226.435 185.303 226.598C185.26 226.609 185.216 226.631 185.184 226.653L179.715 229.964C179.541 230.073 179.421 230.237 179.366 230.433C179.312 230.629 179.345 230.836 179.453 231.01L181.109 233.744C181.218 233.919 181.382 234.038 181.578 234.093C181.643 234.104 181.698 234.115 181.763 234.115C181.905 234.115 182.035 234.082 182.155 234.006L187.493 230.77C187.537 230.749 187.591 230.727 187.635 230.705C188.234 230.346 188.757 229.91 189.203 229.42C189.639 228.929 190.02 228.396 190.314 227.818C190.848 226.762 191.11 225.607 191.088 224.376C191.066 223.188 190.717 222.001 190.053 220.901Z" fill="#4FAE37"/>
<path d="M204.149 209.288C204.138 209.277 204.138 209.277 204.138 209.266L200.021 204.451C199.378 203.7 198.626 203.112 197.766 202.687C196.927 202.273 196.034 202.033 195.129 201.968C194.225 201.902 193.31 202 192.406 202.284C191.502 202.556 190.663 203.024 189.911 203.667C188.942 204.495 188.245 205.508 187.842 206.674C187.428 207.839 187.308 209.016 187.482 210.203C187.58 210.835 187.776 211.456 188.038 212.055C188.31 212.654 188.669 213.232 189.127 213.765L197.417 223.472C197.548 223.624 197.733 223.722 197.94 223.733C197.962 223.733 197.984 223.733 197.994 223.733C198.18 223.733 198.354 223.668 198.485 223.548L200.914 221.467C201.066 221.337 201.164 221.151 201.175 220.944C201.186 220.737 201.121 220.541 200.99 220.389L196.829 215.53C196.611 215.269 196.448 214.996 196.349 214.702C196.251 214.386 196.208 214.081 196.23 213.776C196.262 213.46 196.349 213.145 196.491 212.85C196.633 212.567 196.818 212.317 197.079 212.099C197.341 211.881 197.613 211.717 197.918 211.63C198.234 211.532 198.539 211.5 198.855 211.521C199.171 211.543 199.465 211.63 199.77 211.783C200.053 211.924 200.293 212.11 200.511 212.36L204.683 217.241C204.955 217.556 205.435 217.6 205.762 217.328L208.191 215.247C208.343 215.116 208.441 214.931 208.452 214.724C208.463 214.517 208.398 214.321 208.267 214.169L204.149 209.288ZM194.051 208.504C193.408 209.049 192.885 209.68 192.493 210.367C192.384 210.203 192.308 210.018 192.243 209.844C192.145 209.539 192.112 209.234 192.134 208.929C192.166 208.602 192.253 208.308 192.395 208.003C192.537 207.72 192.722 207.469 192.983 207.251C193.245 207.033 193.517 206.87 193.822 206.783C194.138 206.685 194.443 206.652 194.759 206.674C195.075 206.696 195.369 206.783 195.663 206.924C195.837 207.011 196.001 207.12 196.153 207.24C195.391 207.534 194.694 207.959 194.051 208.504Z" fill="#4FAE37"/>
<path d="M223.126 197.066L208.289 184.908C207.962 184.636 207.483 184.69 207.21 185.017L205.184 187.49C204.912 187.817 204.966 188.296 205.293 188.569L216.971 198.133C216.917 198.166 216.862 198.198 216.797 198.231C216.503 198.384 216.209 198.471 215.893 198.503C215.577 198.536 215.272 198.503 214.956 198.416C214.651 198.329 214.368 198.177 214.106 197.959L211.644 195.943C211.644 195.943 211.644 195.943 211.633 195.943L209.171 193.928C208.409 193.307 207.559 192.861 206.655 192.599C205.762 192.338 204.836 192.251 203.921 192.338C203.016 192.425 202.134 192.686 201.295 193.122C200.511 193.536 199.803 194.102 199.204 194.811C199.16 194.843 199.127 194.876 199.095 194.919L197.068 197.392C196.796 197.719 196.851 198.198 197.177 198.471L212.014 210.628C212.156 210.748 212.33 210.802 212.494 210.802C212.712 210.802 212.93 210.704 213.082 210.519L215.108 208.046C215.239 207.894 215.293 207.687 215.283 207.491C215.272 207.295 215.163 207.109 215.01 206.979L203.332 197.414C203.387 197.381 203.441 197.349 203.485 197.327C203.779 197.174 204.073 197.087 204.389 197.055H204.4C204.705 197.022 205.01 197.044 205.315 197.142C205.631 197.24 205.914 197.381 206.176 197.599L208.627 199.604C208.627 199.604 208.627 199.604 208.637 199.604L211.11 201.63C211.873 202.251 212.723 202.698 213.627 202.959C214.531 203.21 215.446 203.297 216.361 203.22C217.265 203.133 218.148 202.861 218.986 202.425C219.825 201.989 220.577 201.39 221.198 200.628L223.224 198.155C223.496 197.806 223.453 197.327 223.126 197.066Z" fill="#4FAE37"/>
<path d="M55.3752 199.31C54.3403 198.95 53.2945 198.852 52.2269 199.026C51.6604 199.124 51.1158 199.288 50.5711 199.538C50.0264 199.789 49.5253 200.116 49.0569 200.519C46.9108 202.392 45.2877 203.798 44.2092 204.735L44.1983 204.745C43.8606 205.04 43.5011 205.236 43.0981 205.366C42.695 205.497 42.2919 205.541 41.878 205.519C41.464 205.497 41.0827 205.388 40.7015 205.203C40.3202 205.018 39.9825 204.767 39.6884 204.43C39.4051 204.103 39.1873 203.732 39.0565 203.318C38.9258 202.915 38.8822 202.512 38.904 202.109C38.9367 201.706 39.0347 201.314 39.2199 200.933C39.4051 200.551 39.6557 200.214 39.9934 199.92C42.1394 198.046 43.7517 196.641 44.841 195.704C45.5056 195.126 46.0284 194.462 46.3988 193.699C46.7583 192.937 46.9762 192.152 47.0307 191.335C47.0851 190.507 46.9871 189.69 46.7256 188.895C46.4751 188.089 46.0611 187.348 45.4729 186.684C45.0807 187.032 44.6776 187.381 44.2746 187.73C43.8715 188.078 43.4684 188.438 43.0654 188.786C43.3486 189.113 43.5665 189.483 43.6972 189.876C43.8279 190.29 43.8824 190.693 43.8606 191.096C43.8279 191.51 43.719 191.902 43.5338 192.283C43.3486 192.664 43.0981 193.002 42.7713 193.285C40.6252 195.159 39.013 196.564 37.9236 197.501C37.4552 197.915 37.0521 198.362 36.7362 198.852C36.4203 199.353 36.1806 199.876 36.0172 200.432C35.7013 201.456 35.6468 202.512 35.8538 203.602C36.0717 204.691 36.551 205.671 37.3027 206.532C37.88 207.197 38.5554 207.709 39.318 208.079C40.0805 208.438 40.8758 208.656 41.6928 208.722C42.4989 208.776 43.3159 208.678 44.133 208.417C44.9391 208.166 45.669 207.752 46.3335 207.175L46.3444 207.164C48.5013 205.29 50.1136 203.885 51.192 202.948C51.5188 202.665 51.8892 202.447 52.2814 202.316C52.6844 202.185 53.0875 202.131 53.5015 202.153C53.9154 202.185 54.3076 202.294 54.6889 202.48C55.0593 202.665 55.397 202.926 55.6802 203.253C56.7587 202.316 57.5648 201.619 58.0986 201.151C57.3251 200.29 56.4319 199.669 55.3752 199.31ZM38.7733 205.225C38.8822 205.138 38.9803 205.04 39.1001 204.942C38.9912 205.04 38.8822 205.138 38.7733 205.225Z" fill="black"/>
<path d="M60.9745 203.231C61.5083 203.689 62.3253 204.386 63.4038 205.312C60.6368 208.547 56.4863 213.417 50.9415 219.899C50.3968 219.43 49.5907 218.744 48.5122 217.818C51.2792 214.572 55.4296 209.713 60.9745 203.231Z" fill="black"/>
<path d="M74.3192 213.232C73.9161 213.82 73.3061 214.702 72.4999 215.868C71.9117 215.465 71.0293 214.855 69.8637 214.049C69.5042 213.798 69.112 213.635 68.6981 213.558C68.2841 213.482 67.8702 213.471 67.4671 213.537C67.064 213.613 66.6827 213.755 66.3233 213.983C65.9856 214.201 65.6914 214.484 65.4518 214.833C65.4409 214.844 65.43 214.866 65.4191 214.877C65.1576 215.258 64.8526 215.694 64.5149 216.184C65.0923 216.587 65.9747 217.186 67.1403 217.992C66.7372 218.57 66.1381 219.452 65.321 220.628C64.7437 220.225 63.8613 219.626 62.6957 218.82C62.4125 219.234 62.1074 219.67 61.7915 220.127C61.541 220.498 61.3667 220.879 61.2795 221.293C61.2033 221.707 61.1924 222.11 61.2686 222.513C61.3558 222.916 61.5083 223.297 61.7262 223.657C61.944 224.016 62.2382 224.321 62.5976 224.561C63.1859 224.964 64.0683 225.574 65.2339 226.38C64.8308 226.958 64.2317 227.84 63.4147 229.016C62.8264 228.613 61.944 228.003 60.7784 227.197C60.0485 226.696 59.4603 226.086 59.0136 225.367C58.567 224.648 58.2729 223.897 58.1204 223.09C57.9679 222.273 57.9787 221.456 58.153 220.628C58.3165 219.8 58.6433 219.016 59.1444 218.297C59.9505 217.121 61.1597 215.367 62.7719 213.036C62.7719 213.036 62.7828 213.025 62.7828 213.014C62.8155 212.97 62.8482 212.916 62.8809 212.872C63.2077 212.426 63.5781 212.033 63.992 211.707C64.4604 211.325 64.9507 211.02 65.4736 210.791C66.454 210.367 67.4998 210.203 68.6 210.29C69.7003 210.378 70.7243 210.737 71.6611 211.391C72.2712 211.826 73.1536 212.426 74.3192 213.232Z" fill="black"/>
<path d="M75.9205 232.252C76.5524 232.579 77.511 233.058 78.7747 233.701C78.4479 234.343 77.9685 235.291 77.3258 236.555C76.6831 236.228 75.7353 235.749 74.4717 235.106C73.6873 234.703 73.0228 234.18 72.4782 233.526C71.9335 232.884 71.5413 232.176 71.2907 231.391C71.0293 230.618 70.9313 229.801 70.9857 228.962C71.0402 228.112 71.2581 227.295 71.6611 226.511C72.9466 223.973 74.8747 220.182 77.4347 215.116C78.0666 215.432 79.0143 215.911 80.2889 216.565C79.0034 219.103 77.0753 222.894 74.5153 227.96C74.1231 228.744 74.0577 229.55 74.3192 230.389C74.6024 231.228 75.1362 231.849 75.9205 232.252Z" fill="black"/>
<path d="M93.1651 239.115C92.9255 239.79 92.5769 240.803 92.1193 242.143C91.4439 241.915 90.4308 241.555 89.0909 241.098C88.2521 240.803 87.5331 240.379 86.9122 239.801C86.2913 239.235 85.801 238.581 85.4524 237.84C85.0821 237.1 84.8751 236.315 84.8206 235.476C84.7553 234.627 84.8751 233.788 85.1583 232.96C86.0843 230.28 87.4896 226.25 89.3524 220.89C90.0169 221.119 91.03 221.467 92.3808 221.936C91.4548 224.615 90.0496 228.646 88.1867 234.006C87.9035 234.834 87.9471 235.64 88.3175 236.435C88.6988 237.23 89.3088 237.775 90.1476 238.069C90.823 238.298 91.8252 238.646 93.1651 239.115Z" fill="black"/>
<path d="M103.797 231.871C103.71 232.328 103.601 232.84 103.481 233.428C104.168 233.57 105.213 233.777 106.608 234.06C106.466 234.757 106.259 235.803 105.976 237.198C105.279 237.056 104.244 236.849 102.85 236.566C102.882 236.424 102.675 237.415 102.534 238.124C102.446 238.559 102.446 238.984 102.523 239.398C102.61 239.812 102.773 240.182 102.991 240.531C103.231 240.869 103.514 241.163 103.863 241.403C104.211 241.642 104.593 241.806 105.028 241.893C105.725 242.034 106.771 242.241 108.166 242.525C108.024 243.211 107.817 244.257 107.534 245.662C106.837 245.52 105.791 245.313 104.396 245.03C103.525 244.856 102.752 244.529 102.054 244.039C101.357 243.559 100.791 242.971 100.344 242.296C99.8865 241.61 99.5706 240.847 99.4072 240.019C99.2329 239.191 99.2329 238.341 99.4072 237.481C99.6904 236.086 100.115 233.995 100.671 231.217C100.671 231.195 100.682 231.173 100.682 231.152C100.693 231.108 100.704 231.064 100.714 231.032C100.845 230.487 101.03 229.986 101.281 229.518C101.564 228.984 101.891 228.515 102.283 228.091C103.013 227.317 103.906 226.751 104.963 226.402C106.009 226.043 107.087 225.977 108.209 226.206C108.906 226.348 109.952 226.555 111.347 226.838C111.205 227.535 110.998 228.581 110.715 229.975C110.018 229.834 108.972 229.627 107.577 229.343C107.153 229.256 106.728 229.256 106.314 229.343C105.9 229.43 105.518 229.594 105.17 229.812C104.832 230.041 104.538 230.324 104.298 230.672C104.048 231.032 103.884 231.424 103.797 231.871Z" fill="black"/>
<path d="M113.928 241.642C115.345 241.751 117.469 241.925 120.301 242.154C120.247 242.862 120.16 243.93 120.051 245.346C118.634 245.237 116.51 245.063 113.678 244.834C113.732 244.115 113.809 243.058 113.928 241.642Z" fill="black"/>
<path d="M140.683 230.988C140.291 230.237 139.79 229.594 139.18 229.038C138.559 228.505 137.851 228.091 137.056 227.807C136.26 227.535 135.421 227.426 134.539 227.481C134.539 227.47 134.539 227.47 134.539 227.47C133.123 227.568 132.055 227.633 131.347 227.688V227.698C130.737 227.742 130.149 227.862 129.593 228.069C129.027 228.265 128.515 228.537 128.046 228.875C127.175 229.496 126.489 230.302 126.009 231.293C125.519 232.296 125.312 233.363 125.388 234.496C126.805 234.398 127.872 234.333 128.58 234.289C128.548 233.853 128.602 233.439 128.733 233.036C128.874 232.633 129.081 232.274 129.343 231.969C129.626 231.664 129.953 231.413 130.323 231.217C130.694 231.021 131.108 230.912 131.543 230.879C132.001 237.808 132.36 243.124 132.6 246.828C134.016 246.73 135.084 246.664 135.792 246.621C135.356 240.03 134.997 234.714 134.735 230.672C135.182 230.64 135.607 230.705 135.999 230.847C136.391 230.988 136.75 231.195 137.056 231.468C137.361 231.74 137.611 232.067 137.807 232.448C138.003 232.818 138.112 233.232 138.145 233.668C138.167 233.668 138.188 233.668 138.221 233.668C138.254 233.668 138.286 233.668 138.308 233.657C138.809 233.625 139.3 233.592 139.812 233.559C140.313 233.526 140.825 233.494 141.348 233.461C141.304 232.557 141.075 231.74 140.683 230.988Z" fill="black"/>
<path d="M159.736 238.309C159.594 239.148 159.322 239.91 158.897 240.607C158.483 241.305 157.928 241.915 157.252 242.437C156.588 242.949 155.825 243.32 154.965 243.538C153.853 243.81 152.775 243.799 151.718 243.494C150.651 243.189 149.725 242.666 148.962 241.925C148.559 241.522 148.2 241.065 147.895 240.553C147.59 240.041 147.372 239.485 147.219 238.875C146.533 236.119 145.498 231.99 144.115 226.478C144.801 226.304 145.836 226.053 147.219 225.705C147.906 228.461 148.94 232.59 150.313 238.102C150.422 238.538 150.596 238.919 150.847 239.257C151.108 239.594 151.413 239.867 151.762 240.074C152.121 240.281 152.503 240.422 152.928 240.487C153.341 240.553 153.766 240.542 154.191 240.433C154.627 240.324 155.008 240.139 155.346 239.888C155.684 239.627 155.956 239.333 156.163 238.973C156.37 238.625 156.512 238.243 156.577 237.829C156.642 237.416 156.631 236.991 156.522 236.555C155.836 233.799 154.801 229.67 153.418 224.158C154.115 223.984 155.15 223.722 156.522 223.385C157.209 226.141 158.244 230.269 159.616 235.781C159.834 236.62 159.878 237.47 159.736 238.309Z" fill="black"/>
<path d="M174.617 234.06C174.018 233.461 173.331 233.014 172.569 232.709C171.817 232.404 171.011 232.241 170.172 232.23C169.322 232.219 168.494 232.383 167.677 232.72C168.494 232.383 169.192 231.914 169.78 231.304C170.368 230.694 170.815 230.008 171.12 229.256C171.436 228.494 171.599 227.687 171.599 226.849C171.61 225.999 171.447 225.171 171.109 224.354C170.771 223.537 170.292 222.84 169.682 222.252C169.083 221.652 168.396 221.206 167.634 220.901C166.882 220.585 166.076 220.432 165.237 220.411C164.388 220.4 163.56 220.563 162.743 220.901C162.743 220.901 162.743 220.912 162.754 220.912C161.435 221.467 160.444 221.87 159.801 222.143C163.08 230.008 165.542 235.901 167.176 239.834C168.484 239.289 169.475 238.875 170.129 238.603C169.704 237.59 169.301 236.609 168.898 235.662C169.301 235.498 169.715 235.411 170.139 235.422C170.564 235.433 170.956 235.509 171.338 235.662C171.719 235.814 172.068 236.032 172.362 236.337C172.667 236.631 172.906 236.98 173.081 237.394C173.113 237.383 173.135 237.372 173.168 237.361C173.19 237.35 173.211 237.339 173.233 237.328C173.702 237.132 174.17 236.936 174.638 236.74C175.107 236.544 175.575 236.348 176.044 236.152C175.695 235.346 175.227 234.649 174.617 234.06ZM163.985 223.864C164.388 223.7 164.802 223.613 165.226 223.624C165.651 223.635 166.043 223.711 166.425 223.864C166.806 224.016 167.155 224.234 167.449 224.539C167.754 224.833 167.993 225.182 168.168 225.596C168.505 226.413 168.505 227.23 168.168 228.047C167.841 228.864 167.264 229.441 166.457 229.779C166.457 229.768 164.704 225.574 163.985 223.864Z" fill="black"/>
<path d="M190.325 224.43C190.347 225.531 190.107 226.565 189.628 227.513C189.367 228.036 189.029 228.515 188.637 228.951C188.245 229.387 187.776 229.768 187.242 230.095C187.242 230.095 187.242 230.084 187.232 230.084C186.022 230.825 184.192 231.925 181.763 233.396C181.393 232.786 180.837 231.871 180.107 230.661C181.316 229.921 183.146 228.82 185.576 227.35L185.587 227.361C185.968 227.132 186.284 226.838 186.523 226.5C186.763 226.152 186.937 225.781 187.035 225.389C187.133 224.997 187.155 224.583 187.101 224.169C187.046 223.755 186.905 223.352 186.665 222.971C186.436 222.6 186.153 222.284 185.804 222.045C185.456 221.805 185.085 221.631 184.693 221.533C184.29 221.424 183.887 221.402 183.462 221.456C183.048 221.522 182.645 221.663 182.264 221.903C181.992 221.445 181.708 220.988 181.436 220.53C181.164 220.084 180.891 219.626 180.608 219.169C181.36 218.711 182.166 218.428 182.994 218.319C183.833 218.188 184.65 218.232 185.445 218.439C186.24 218.635 186.981 218.973 187.667 219.463C188.354 219.953 188.931 220.574 189.388 221.326C189.998 222.284 190.314 223.33 190.325 224.43Z" fill="black"/>
<path d="M183.931 224.615C182.95 225.204 181.915 225.52 180.815 225.541C179.704 225.563 178.669 225.334 177.71 224.844C177.198 224.583 176.73 224.256 176.294 223.853C175.848 223.45 175.466 222.981 175.15 222.459C174.693 221.707 174.41 220.901 174.29 220.073C174.17 219.245 174.203 218.417 174.41 217.622C174.606 216.827 174.943 216.097 175.434 215.399C175.924 214.713 176.545 214.136 177.297 213.678C177.907 213.308 178.822 212.752 180.031 212.022C180.401 212.633 180.957 213.548 181.687 214.768C181.077 215.138 180.162 215.694 178.952 216.423C178.582 216.652 178.266 216.935 178.026 217.284C177.787 217.633 177.612 218.003 177.503 218.406C177.405 218.798 177.384 219.212 177.438 219.626C177.504 220.04 177.656 220.432 177.885 220.824C178.114 221.195 178.397 221.511 178.734 221.761C179.083 222.012 179.453 222.186 179.857 222.284C180.26 222.371 180.674 222.393 181.088 222.339C181.501 222.284 181.905 222.143 182.275 221.914C182.645 222.491 183.19 223.395 183.931 224.615Z" fill="black"/>
<path d="M203.561 209.778L203.55 209.767C201.862 207.796 200.489 206.194 199.432 204.942C198.855 204.266 198.19 203.743 197.417 203.373C196.654 203.003 195.87 202.785 195.064 202.719C194.247 202.654 193.441 202.752 192.624 203.003C191.818 203.253 191.077 203.656 190.402 204.233C189.53 204.974 188.92 205.868 188.561 206.913C188.19 207.959 188.081 209.016 188.245 210.072C188.332 210.639 188.506 211.195 188.746 211.739C188.985 212.284 189.312 212.785 189.715 213.264C191.251 215.062 192.635 216.674 193.844 218.101C195.543 220.095 196.927 221.707 198.005 222.971C199.084 222.045 199.901 221.358 200.435 220.89C198.866 219.06 197.472 217.426 196.241 215.988C195.968 215.661 195.772 215.312 195.652 214.931C195.522 214.517 195.478 214.114 195.511 213.7C195.554 213.286 195.663 212.894 195.848 212.513C196.034 212.131 196.295 211.805 196.622 211.521C196.96 211.227 197.33 211.02 197.733 210.9C198.136 210.781 198.539 210.737 198.942 210.759C199.345 210.791 199.748 210.9 200.13 211.096C200.511 211.282 200.838 211.543 201.121 211.87C202.82 213.863 204.204 215.476 205.282 216.739C206.361 215.813 207.178 215.127 207.712 214.659C206.176 212.829 204.781 211.205 203.561 209.778ZM196.753 207.839C195.946 208.09 195.217 208.504 194.541 209.081C193.67 209.822 193.049 210.715 192.689 211.75C192.678 211.761 192.678 211.783 192.667 211.794C192.482 211.576 192.308 211.369 192.134 211.173C191.84 210.835 191.633 210.465 191.502 210.062C191.382 209.659 191.328 209.255 191.36 208.841C191.404 208.428 191.513 208.035 191.698 207.654C191.883 207.273 192.145 206.946 192.471 206.663C192.809 206.369 193.179 206.162 193.582 206.042C193.986 205.922 194.389 205.868 194.803 205.9C195.206 205.933 195.598 206.042 195.979 206.227C196.36 206.412 196.698 206.674 196.981 207.011C197.156 207.218 197.341 207.425 197.515 207.632C197.265 207.698 197.014 207.763 196.753 207.839Z" fill="black"/>
<path d="M222.636 197.654C222.189 198.209 221.503 199.037 220.61 200.127C220.054 200.813 219.389 201.347 218.638 201.728C217.875 202.12 217.091 202.36 216.285 202.436C215.468 202.512 214.651 202.436 213.834 202.207C213.017 201.979 212.276 201.586 211.59 201.02C211.034 200.562 210.217 199.898 209.128 199.005L209.117 198.994C208.572 198.547 207.755 197.872 206.666 196.978C206.328 196.706 205.947 196.499 205.533 196.379C205.13 196.259 204.727 196.216 204.313 196.27C203.91 196.314 203.517 196.423 203.136 196.619C202.755 196.815 202.428 197.076 202.156 197.414C205.282 199.974 209.411 203.351 214.52 207.545C214.062 208.101 213.387 208.929 212.494 210.018C209.193 207.316 204.247 203.264 197.657 197.861C198.103 197.316 198.779 196.488 199.683 195.388L199.694 195.399C200.249 194.712 200.903 194.179 201.655 193.787C202.406 193.405 203.191 193.166 203.997 193.089C204.825 193.002 205.642 193.089 206.448 193.318C207.265 193.547 208.006 193.939 208.692 194.506C209.237 194.952 210.054 195.617 211.143 196.51L211.154 196.521C211.709 196.978 212.526 197.643 213.616 198.536C213.964 198.819 214.335 199.015 214.749 199.135C215.152 199.255 215.566 199.288 215.969 199.244C216.372 199.201 216.764 199.092 217.145 198.896C217.527 198.7 217.853 198.438 218.137 198.09C214.999 195.519 210.882 192.152 205.772 187.958C206.219 187.414 206.894 186.586 207.799 185.486C211.099 188.198 216.045 192.251 222.636 197.654Z" fill="black"/>
<path d="M63.3602 51.4724C63.2295 52.4419 62.7828 53.3243 61.846 54.1195C60.7348 55.0782 59.6128 55.3287 58.5452 55.1762C56.6933 54.9148 55.5495 53.7927 52.1833 49.8928C48.8172 45.9929 47.8695 44.7075 47.8804 42.8338C47.8804 41.7553 48.2943 40.6768 49.4055 39.7182C50.3968 38.8685 51.3445 38.5635 52.3576 38.6179C53.5559 38.6833 54.7651 39.4023 55.7782 40.5352L54.1006 41.9841C53.5668 41.4067 52.9568 40.8947 52.2596 40.7749C51.8021 40.6877 51.2574 40.7749 50.7236 41.2324C50.168 41.7117 49.9828 42.2564 50.0155 42.7793C50.1027 43.8795 50.9959 45.0778 53.8827 48.4222C56.7696 51.7665 57.8262 52.8232 58.9047 53.0738C59.4167 53.1827 59.9832 53.0738 60.5387 52.5944C61.0725 52.1369 61.2359 51.6031 61.2141 51.1456C61.1706 50.4593 60.7566 49.7403 60.2664 49.1303L61.944 47.6814C62.9571 48.8906 63.5018 50.2414 63.3602 51.4724Z" fill="#4DAE37"/>
<path d="M72.1622 44.6856C72.0206 45.7641 71.5086 46.7881 70.2994 47.616C69.0902 48.4439 67.9682 48.5528 66.9006 48.3023C65.1576 47.8883 64.0792 46.592 61.1597 42.3544C58.2402 38.1059 57.4232 36.6461 57.6519 34.8596C57.7936 33.7811 58.3056 32.7571 59.5147 31.9292C60.7239 31.1013 61.846 30.9923 62.9136 31.2429C64.6565 31.6568 65.735 32.9532 68.6545 37.1908C71.574 41.4393 72.391 42.9099 72.1622 44.6856ZM62.3035 33.3127C61.8133 33.1493 61.2577 33.1711 60.6586 33.5959C60.0594 34.0099 59.8089 34.5328 59.7871 35.0557C59.7544 36.1559 60.5061 37.4414 63.0116 41.0907C65.5171 44.7292 66.4431 45.8948 67.4889 46.2652C67.9791 46.4286 68.5564 46.385 69.1556 45.9711C69.7547 45.5571 69.9835 45.056 70.0053 44.5331C70.038 43.4328 69.3081 42.1256 66.8026 38.4871C64.297 34.8269 63.3493 33.6722 62.3035 33.3127Z" fill="#4DAE37"/>
<path d="M84.3413 39.2607L78.2953 27.4629L79.6353 36.5591L78.4043 37.1909L71.9444 30.9488L77.8923 42.5614L75.8878 43.5854L67.3908 27.0162L69.2754 26.0467L77.3476 33.5415L75.9641 22.637L77.8487 21.6675L86.3457 38.2367L84.3413 39.2607Z" fill="#4DAE37"/>
<path d="M89.1018 37.2453L82.3151 19.9136L84.4067 19.0966L91.1934 36.4283L89.1018 37.2453Z" fill="#4DAE37"/>
<path d="M93.2305 18.2359L98.1217 34.097L95.9757 34.7616L91.0844 18.9004L88.0887 19.8264L87.5004 17.8982L95.6162 15.3927L96.2044 17.3209L93.2305 18.2359Z" fill="#4DAE37"/>
<path d="M102.85 32.7789L99.0804 14.5539L106.118 13.0942L106.521 15.0659L101.684 16.0681L102.948 22.1903L107.12 21.3298L107.523 23.3015L103.351 24.1621L104.636 30.3606L109.473 29.3583L109.876 31.3301L102.85 32.7789ZM103.067 12.3861L101.477 12.7129L102.523 8.88924L104.418 8.49707L103.067 12.3861Z" fill="#4DAE37"/>
<path d="M124.201 28.7047C123.558 29.4999 122.6 30.0991 121.085 30.1753L116.804 30.4041L115.824 11.8196L120.105 11.5908C121.619 11.5146 122.643 12.0048 123.362 12.7237C124.626 13.9438 124.855 15.5997 125.116 20.6434C125.378 25.6872 125.334 27.3648 124.201 28.7047ZM121.761 14.2271C121.401 13.824 120.857 13.5626 120.127 13.6061L118.166 13.7042L118.929 28.2689L120.889 28.1709C121.619 28.1273 122.131 27.8223 122.447 27.3866C123.112 26.4824 123.079 25.0444 122.861 20.7632C122.643 16.482 122.513 15.055 121.761 14.2271Z" fill="#4DAE37"/>
<path d="M128.046 30.0119L128.983 11.4165L136.162 11.776L136.064 13.7913L131.129 13.5408L130.813 19.7828L135.073 20.0007L134.975 22.016L130.715 21.7981L130.4 28.1164L135.334 28.367L135.236 30.3823L128.046 30.0119Z" fill="#4DAE37"/>
<path d="M144.616 30.7309C143.82 31.2974 142.666 31.5697 141.195 31.3519C139.779 31.134 138.744 30.5784 138.134 29.7505C137.415 28.7701 137.284 27.6698 137.589 25.6981L139.812 26.0358C139.626 27.2559 139.659 27.9422 140.062 28.5304C140.324 28.9117 140.803 29.2276 141.5 29.3257C142.252 29.4346 142.775 29.2821 143.167 28.9662C143.744 28.4977 143.951 27.8114 144.136 26.6023C144.463 24.478 144.245 23.7917 142.84 22.942L140.879 21.7655C139.114 20.6979 138.646 19.5759 139.071 16.7871C139.31 15.1857 139.975 13.933 141.043 13.2249C141.87 12.6584 142.905 12.4297 144.125 12.604C145.465 12.8109 146.424 13.3447 147.012 14.1291C147.807 15.1749 147.906 16.4058 147.655 18.0835L145.433 17.7457C145.585 16.7653 145.585 16.079 145.204 15.4363C144.953 15.0006 144.496 14.6955 143.799 14.5866C143.156 14.4886 142.655 14.652 142.295 14.9352C141.783 15.36 141.457 16.079 141.315 17.0377C141.043 18.846 141.239 19.4343 142.622 20.2731L144.561 21.4387C146.522 22.6152 146.816 23.9769 146.38 26.8746C146.065 28.8137 145.618 29.9902 144.616 30.7309Z" fill="#4DAE37"/>
<path d="M159.485 18.2795L157.644 24.2492L161.719 25.502L161.13 27.4302L157.056 26.1774L154.594 34.1515L152.448 33.487L157.939 15.6978L164.812 17.822L164.224 19.7502L159.485 18.2795Z" fill="#4DAE37"/>
<path d="M161.359 36.3739L168.527 19.1946L175.161 21.9616L174.388 23.8244L169.824 21.9181L167.416 27.6808L171.349 29.3257L170.575 31.1885L166.643 29.5436L164.202 35.3826L168.767 37.2889L167.993 39.1518L161.359 36.3739ZM173.876 20.0117L173.299 17.3101L170.978 18.8025L169.388 18.138L172.994 15.8176L174.584 16.4821L175.466 20.6762L173.876 20.0117Z" fill="#4DAE37"/>
<path d="M181.654 27.5282L173.843 42.1801L171.861 41.1234L179.671 26.4715L176.904 25.0009L177.852 23.2252L185.347 27.2232L184.399 28.9988L181.654 27.5282Z" fill="#4DAE37"/>
<path d="M178.114 44.6094L188.386 29.0751L194.389 33.0403L193.277 34.718L189.16 31.9946L185.717 37.2126L189.269 39.5656L188.157 41.2432L184.606 38.8902L181.12 44.1736L185.238 46.897L184.127 48.5746L178.114 44.6094Z" fill="#4DAE37"/>
<path d="M192.014 53.662C191.033 53.7383 189.9 53.3897 188.746 52.4528C187.635 51.5487 187.025 50.5465 186.926 49.5116C186.807 48.3024 187.264 47.2893 188.517 45.7424L190.26 47.1694C189.486 48.1172 189.149 48.7272 189.203 49.4462C189.236 49.9037 189.486 50.4157 190.031 50.8624C190.619 51.3417 191.153 51.4724 191.643 51.4071C192.373 51.2981 192.907 50.8188 193.681 49.8602C195.031 48.2043 195.206 47.4963 194.432 46.0474L193.343 44.043C192.362 42.2237 192.537 41.0254 194.323 38.8358C195.347 37.5831 196.556 36.8423 197.831 36.7769C198.833 36.7116 199.846 37.0384 200.794 37.8118C201.851 38.6724 202.385 39.6202 202.504 40.5897C202.657 41.8969 202.112 43.0081 201.045 44.3262L199.302 42.8991C199.933 42.1257 200.282 41.5374 200.282 40.7967C200.282 40.2956 200.053 39.7945 199.509 39.3478C199.007 38.9339 198.485 38.814 198.027 38.8794C197.373 38.9883 196.731 39.435 196.11 40.1866C194.955 41.6028 194.824 42.2129 195.587 43.6399L196.665 45.6334C197.755 47.6379 197.319 48.9669 195.467 51.2328C194.236 52.747 193.256 53.5313 192.014 53.662Z" fill="#4DAE37"/>
</svg>
