<svg width="256" height="256" viewBox="0 0 256 256" fill="none" xmlns="http://www.w3.org/2000/svg">
<path d="M80.0761 23.4923C77.2466 26.6221 74.7001 29.6248 71.9534 32.4331C67.5706 36.9159 65.3051 42.3689 64.2907 48.4186C63.5073 53.0921 63.3321 57.8021 64.4889 62.4351C65.2897 65.638 66.6948 68.6753 68.5002 71.4086C70.6252 74.623 73.9109 76.5055 77.4872 77.8298C79.7989 78.6863 82.1876 79.2811 84.6128 79.6987C86.5569 80.0337 88.1468 79.5544 89.5712 77.9452C91.1514 76.1609 93.236 74.8752 95.2359 73.5509C102.631 68.6542 110.779 65.7689 119.498 64.333C125.794 63.2955 132.121 62.9567 138.452 63.6516C150.965 65.0278 162.514 68.9333 172.321 77.1503C173.129 77.8278 173.897 78.5554 174.669 79.2734C175.164 79.7334 175.733 80.0587 176.403 79.9336C179.824 79.2984 183.24 78.6767 186.472 77.2754C191.151 75.2486 194.47 72.0053 196.171 67.1297C196.843 65.203 197.803 63.3802 198.225 61.3611C198.976 57.7771 198.991 54.1661 198.527 50.559C198.119 47.3869 197.436 44.263 196.416 41.2198C195.513 38.5289 193.659 36.4771 191.861 34.3983C188.953 31.0337 185.997 27.7115 183.065 24.37C182.925 24.2083 182.713 24.0832 182.707 23.7425C184.805 24.0255 186.853 24.4682 188.899 24.9224C193.894 26.0331 198.854 27.2765 203.562 29.3245C210.474 32.3291 216.299 36.6349 220.027 43.3737C222.121 47.1598 223.22 51.2346 223.428 55.5501C223.736 61.9366 223.488 68.3154 222.599 74.6326C222.023 78.7152 220.478 82.5744 218.668 86.2951C216.622 90.5066 213.814 94.1406 210.089 96.9662C205.458 100.481 200.471 103.258 194.468 103.659C192.235 103.809 190.014 104.136 187.79 104.411C186.287 104.598 185.606 105.784 186.11 107.195C186.241 107.558 186.493 107.466 186.726 107.48C191.781 107.743 196.839 107.945 201.89 108.276C206.323 108.567 210.755 108.883 215.075 110.107C221.192 111.841 224.345 115.647 224.604 121.977C224.747 125.471 224.679 128.97 223.438 132.315C222.401 135.114 220.911 137.566 218.027 138.831C216.033 139.707 213.954 139.52 211.881 139.216C207.862 138.625 203.82 138.234 199.778 137.853C195.565 137.459 191.344 137.283 187.121 137.087C186.141 137.041 186.062 137.389 186.064 138.186C186.081 151.369 186.064 164.552 186.077 177.735C186.083 184.967 183.825 191.453 179.541 197.21C174.082 204.546 166.924 209.727 158.556 213.288C152.963 215.669 147.1 217.028 141.11 218.018C136.321 218.809 131.522 218.689 126.732 218.576C124.589 218.524 122.432 218.018 120.282 217.712C113.235 216.707 106.492 214.692 100.173 211.396C92.1504 207.212 85.4829 201.512 80.9057 193.601C78.0088 188.595 76.6922 183.152 76.7076 177.364C76.7384 164.373 76.7288 151.383 76.7692 138.392C76.7712 137.51 76.5421 137.264 75.6682 137.285C73.2314 137.345 70.7927 137.331 68.3559 137.293C67.6764 137.281 67.5147 137.493 67.4897 138.153C67.4243 139.88 67.3415 141.614 67.1105 143.325C66.7698 145.864 65.3378 147.631 62.8971 148.445C60.4584 149.26 58.3334 148.696 56.5067 146.834C54.6455 144.936 53.5425 142.619 52.5744 140.207C52.4204 139.822 52.5359 139.61 52.9478 139.541C53.8928 139.383 54.8302 139.189 55.7792 139.06C56.5279 138.956 56.8532 139.514 57.1285 140.072C57.6405 141.106 58.2044 142.101 58.8935 143.035C59.4074 143.73 60.0715 144.091 60.8838 144.245C61.9097 144.438 62.7662 143.862 62.8702 142.821C63.0242 141.293 63.0723 139.755 63.2186 138.227C63.2936 137.441 62.7816 137.674 62.4198 137.715C60.0041 137.984 57.5866 138.257 55.1767 138.567C53.2423 138.814 51.3194 139.162 49.3811 139.378C45.4699 139.811 42.4344 137.79 40.6193 133.74C39.2643 130.718 38.3731 127.628 38.6657 124.272C38.8216 122.499 38.5309 120.726 39.0217 118.938C40.4018 113.914 43.7183 110.975 48.6497 109.816C53.7369 108.621 58.9416 108.221 64.1425 107.836C67.8535 107.56 71.5665 107.464 75.2852 107.453C75.7703 107.453 76.5209 107.764 76.6711 106.871C76.8385 105.876 76.4574 105.004 75.6779 104.708C74.4383 104.236 73.1102 104.221 71.8167 104.044C68.5561 103.599 65.2762 103.283 62.0887 102.394C57.9446 101.237 54.6377 98.7005 51.381 96.0404C46.6825 92.2004 44.0474 87.0284 41.7723 81.5851C40.5231 78.5939 39.9957 75.4834 39.7532 72.269C39.3451 66.866 38.939 61.465 39.0525 56.0428C39.1873 49.637 41.3719 43.9742 45.4294 39.0409C49.4773 34.1173 54.7263 30.9086 60.5873 28.6065C65.5688 26.649 70.785 25.5403 75.982 24.3662C77.2543 24.0794 78.5362 23.8253 80.0741 23.5L80.0761 23.4923ZM62.0194 134.054C62.976 132.825 64.1482 131.984 65.8209 132.063C63.8576 131.274 62.4294 132.011 62.0194 134.054Z" fill="#FE0000"/>
<path d="M55.9524 219.355C7.92831 184.776 -7.63187 106.921 36.2654 53.144C36.5426 54.3798 36.1922 55.5308 36.1345 56.6703C36.0267 58.8165 35.9362 60.9569 35.9478 63.1049C35.9536 64.2213 35.5205 65.2184 34.9161 66.1481C31.1762 71.8994 27.956 77.9298 25.3517 84.2779C22.3702 91.544 20.2259 99.0547 18.8439 106.79C17.3676 115.054 16.7844 123.379 17.1616 131.751C17.5851 141.146 19.2154 150.347 22.0256 159.34C25.5577 170.648 30.643 181.173 37.5146 190.835C41.8724 196.96 47.0193 202.371 52.4107 207.572C53.4232 208.55 54.3856 209.579 55.4019 210.555C55.7811 210.921 55.9524 211.329 55.9524 211.829C55.9543 214.299 55.9524 216.767 55.9524 219.353V219.355Z" fill="#FE0000"/>
<path d="M201.514 218.341C201.281 218.068 201.389 217.737 201.391 217.429C201.405 215.729 201.52 214.026 201.428 212.334C201.333 210.578 201.982 209.289 203.262 208.132C212.376 199.897 219.506 190.142 225.444 179.429C229.23 172.598 232.271 165.488 234.425 157.994C236.442 150.976 237.845 143.841 238.486 136.552C238.956 131.205 239.073 125.856 238.792 120.512C238.361 112.318 237.039 104.257 234.789 96.3521C232.664 88.8877 229.9 81.687 226.187 74.8616C225.621 73.8203 225.367 72.7135 225.775 71.5413C225.906 71.166 225.875 70.7829 225.875 70.3999C225.873 67.7379 225.869 65.0759 225.881 62.4158C225.881 62.1579 225.748 61.8018 226.148 61.6901C226.521 61.5862 226.654 61.9057 226.801 62.1348C231.089 68.8562 234.794 75.8741 237.73 83.3C239.872 88.7164 241.614 94.2503 242.917 99.9227C244.141 105.256 244.944 110.653 245.414 116.108C245.806 120.653 245.847 125.201 245.727 129.75C245.593 134.968 245.059 140.157 244.262 145.321C243.083 152.959 241.192 160.404 238.538 167.663C235.539 175.862 231.611 183.588 226.779 190.855C222.626 197.103 217.9 202.889 212.644 208.245C209.281 211.673 205.77 214.934 202.08 218.002C201.913 218.141 201.788 218.354 201.514 218.345V218.341Z" fill="#FE0000"/>
<path d="M153.619 235.42C153.619 238.315 153.619 240.967 153.619 243.622C153.619 243.974 153.638 244.326 153.642 244.68C153.681 247.352 152.749 248.264 150.062 248.131C149.398 248.099 148.665 248.312 148.155 247.56C147.983 247.308 147.656 247.673 147.444 247.833C144.704 249.91 141.62 250.381 138.271 249.995C134.899 249.606 132.306 246.992 131.938 243.702C131.63 240.936 131.484 238.113 132.62 235.464C134.023 232.188 136.733 230.625 140.13 230.096C142.836 229.674 145.489 229.828 148.118 230.991C148.245 229.894 148.542 228.997 149.831 228.816C151.627 228.562 153.227 228.851 154.485 230.233C156.682 232.646 159.043 234.894 161.336 237.214C161.465 237.345 161.569 237.531 161.813 237.524C162.067 237.129 162.031 236.677 162.029 236.238C162.025 233.545 162.025 230.85 162.002 228.158C161.984 226.117 164.614 224.112 166.592 224.66C166.949 224.758 167.114 224.984 167.251 225.288C167.788 226.471 167.48 227.678 166.392 228.385C166.023 228.625 165.878 228.879 165.88 229.314C165.892 232.488 165.9 235.664 165.867 238.838C165.859 239.564 166.15 239.583 166.654 239.32C167.303 238.979 167.74 238.44 167.998 237.755C169.408 234.021 170.748 230.261 172.017 226.477C172.3 225.634 172.076 224.828 171.942 224.013C171.693 222.524 172.173 221.773 173.635 221.415C176.086 220.816 176.929 221.138 178.216 223.349C179.469 225.505 180.655 227.699 181.849 229.89C182.133 230.412 182.434 230.668 183.1 230.639C184.563 230.571 185.3 231.545 184.89 232.954C184.557 234.101 183.831 234.97 182.605 235.174C181.444 235.366 180.224 235.591 179.444 234.273C179.111 233.709 178.538 233.845 178.066 234.042C176.355 234.752 174.694 235.576 173.104 236.525C172.363 236.967 172.117 237.782 171.874 238.53C171.085 240.963 169.659 242.684 167.024 243.171C166.808 243.212 166.583 243.296 166.404 243.419C164.358 244.83 162.335 244.114 160.805 242.551C158.703 240.403 156.582 238.272 154.464 236.14C154.266 235.94 154.037 235.772 153.619 235.418V235.42ZM149.523 244.214C149.569 244.214 149.618 244.214 149.664 244.212V233.537C149.456 234.286 149.646 235.073 149.356 235.807C149.034 236.619 148.157 236.979 146.904 236.808C146.107 236.698 145.87 236.174 145.862 235.449C145.853 234.592 145.379 234.042 144.567 233.892C141.861 233.393 139.312 233.67 137.31 235.793C135.378 237.843 135.016 241.71 136.435 244.151C137.372 245.762 139.081 246.715 140.644 246.395C141.799 246.158 142.938 245.845 144.009 245.313C145.583 244.532 145.96 243.874 145.878 242.128C145.853 241.597 145.701 241.362 145.146 241.427C144.099 241.549 143.046 241.627 142.001 241.754C140.939 241.885 140.54 241.579 140.444 240.505C140.419 240.218 140.378 239.934 140.344 239.647C140.249 238.852 140.586 238.344 141.374 238.188C143.597 237.743 145.826 237.349 148.085 237.137C148.917 237.058 149.377 237.391 149.462 238.201C149.517 238.74 149.516 239.289 149.517 239.832C149.525 241.292 149.519 242.753 149.519 244.214H149.523ZM175.733 227.871C175.331 229.031 174.963 230.09 174.573 231.214C177.063 230.512 177.171 230.279 176.022 228.279C175.961 228.173 175.88 228.077 175.733 227.871Z" fill="#FE0000"/>
<path d="M124.455 5.26431C128.131 5.04295 131.586 5.31628 134.86 6.76566C138.977 8.58846 141.822 11.672 143.547 15.7853C145.993 21.6194 146.338 27.5652 144.193 33.5648C142.194 39.1641 137.98 42.2361 132.371 43.5758C129.207 44.3322 125.95 44.2379 122.724 44.4208C120.041 44.5728 117.348 44.5459 114.678 44.9193C113.294 45.1137 112.469 44.3091 112.53 42.9213C112.54 42.6981 112.565 42.4728 112.571 42.2496C112.615 40.8502 112.904 40.5307 114.299 40.3517C115.344 40.2183 115.866 39.6203 115.866 38.5578C115.866 29.6093 115.853 20.6609 115.881 11.7105C115.883 10.8501 115.689 10.4421 114.778 10.6057C114.623 10.6345 114.459 10.6057 114.297 10.6057C113.485 10.6095 112.867 10.4382 112.904 9.40265C112.921 8.93685 112.727 8.46527 112.653 7.99176C112.492 6.94082 112.858 6.43267 113.907 6.24404C117.444 5.61077 121.011 5.28933 124.451 5.26431H124.455ZM120.409 24.9186H120.403C120.403 29.5054 120.403 34.0922 120.403 38.679C120.403 39.9321 120.407 39.961 121.61 39.8724C124.162 39.6857 126.732 39.7223 129.268 39.3431C132.856 38.808 135.928 37.3394 138.032 34.2597C141.148 29.6979 141.487 24.7857 139.793 19.6311C138.517 15.7468 136.209 12.7691 132.425 11.0156C128.73 9.30256 124.874 9.7241 121.015 10.0167C120.328 10.0686 120.407 10.5171 120.407 10.9637C120.407 15.614 120.407 20.2663 120.407 24.9166L120.409 24.9186Z" fill="#FE0000"/>
<path d="M103.114 8.57697C106.024 8.42298 108.746 8.98695 110.994 11.0657C112.009 12.0051 112.627 13.1388 112.532 14.5381C112.461 15.5948 112.432 16.6419 112.507 17.7006C112.567 18.5436 112.247 19.1423 111.296 19.2058C111.233 19.2096 111.171 19.2289 111.11 19.2481C108.788 19.9584 108.069 19.506 108.105 16.9884C108.136 14.848 106.858 13.7162 104.292 13.1676C101.761 12.6268 99.4935 13.4718 97.2492 14.4457C92.2235 16.6304 89.5115 20.7302 87.9427 25.7617C87.1285 28.3737 86.5684 31.0318 86.7898 33.7843C87.0188 36.6253 87.6425 39.3509 89.6 41.574C90.855 42.9984 92.4564 43.7337 94.3504 43.6952C99.0085 43.6008 103.093 41.9821 106.583 38.9024C107.795 37.8341 108.198 36.4194 108.14 34.8372C108.086 33.3397 108.309 33.1068 109.778 32.999C112.176 32.8219 112.099 32.8373 112.513 35.124C113.127 38.5116 111.626 40.8137 109.145 42.9214C103.819 47.4428 97.6573 48.8036 90.9416 47.9221C87.4134 47.4601 85.2615 44.929 83.6947 41.9263C82.8843 40.3729 82.663 38.6579 82.5398 36.9141C82.2973 33.484 82.1914 30.0617 82.9324 26.6817C84.5705 19.2077 88.5298 13.439 95.5092 10.009C97.869 8.85029 100.435 8.4403 103.108 8.58082L103.114 8.57697Z" fill="#FE0000"/>
<path d="M148.751 26.3314C148.751 21.8735 148.753 17.4176 148.751 12.9597C148.751 11.9261 148.434 11.5758 147.433 11.4565C145.437 11.2178 145.3 11.0638 145.331 9.10049C145.364 6.96202 145.522 6.91005 147.625 7.1776C155.115 8.12846 162.156 10.5864 169.102 13.3947C170.723 14.0492 172.276 14.7594 173.266 16.3089C174.244 17.8391 174.559 19.4791 174.199 21.2634C174.115 21.6849 173.897 21.9313 173.57 22.168C172.55 22.9091 169.655 22.0025 169.759 20.2432C169.822 19.1673 169.272 18.4897 168.205 18.1182C163.563 16.5052 158.938 14.8364 154.303 13.1984C153.167 12.7981 153.13 12.8365 153.128 14.0396C153.125 16.9249 153.157 19.8121 153.098 22.6974C153.078 23.6829 153.446 24.1082 154.376 24.3777C159.374 25.8252 164.354 27.3439 169.347 28.8106C170.227 29.0685 170.665 29.5362 170.519 30.4698C170.509 30.5333 170.517 30.5987 170.515 30.6622C170.5 33.3262 169.842 33.7997 167.33 33.0028C162.831 31.5746 158.318 30.1849 153.829 28.7297C153.067 28.4833 153.123 28.8317 153.123 29.3322C153.123 33.6284 153.132 37.9246 153.107 42.2227C153.094 44.6036 151.92 45.7277 149.542 45.7143C148.838 45.7104 148.132 45.72 147.437 45.5641C147.344 45.543 147.246 45.5468 147.15 45.5391C145.525 45.4294 145.212 45.0752 145.302 43.4622C145.387 41.9763 146.187 41.216 147.702 41.1813C148.559 41.1621 148.755 40.6289 148.751 39.8956C148.742 37.6512 148.746 35.4069 148.746 33.1626C148.746 30.8855 148.746 28.6104 148.746 26.3333L148.751 26.3314Z" fill="#FE0000"/>
<path d="M76.3092 232.09V226.918C76.3092 226.021 76.2861 225.122 76.3149 224.225C76.3457 223.317 76.3669 222.526 75.3602 221.969C74.6134 221.557 74.5422 219.756 75.0715 219.057C75.4988 218.493 76.0724 218.416 76.7057 218.63C79.0097 219.405 81.1963 220.466 83.4156 221.442C85.1113 222.189 86.7936 222.964 88.4778 223.74C90.0215 224.45 90.8838 225.938 90.7414 227.39C90.649 228.321 90.164 228.754 89.3209 228.92C88.1525 229.151 87.2479 228.902 86.8976 228.063C86.5646 227.264 86.0006 226.889 85.2557 226.597C83.712 225.986 82.1741 225.353 80.6631 224.67C80.0991 224.414 80.0202 224.62 79.9682 225.099C79.8316 226.354 80.0625 226.868 81.204 227.415C83.1326 228.339 85.0767 229.234 87.0246 230.117C87.6386 230.396 88.0717 230.818 88.3643 231.416C88.7704 232.248 88.9417 233.089 88.2507 233.83C87.5789 234.55 86.7878 234.25 86.0352 233.926C84.2721 233.174 82.4994 232.446 80.7574 231.647C80.0048 231.303 79.9355 231.572 79.8797 232.248C79.7488 233.799 80.2088 234.86 81.7718 235.462C83.1384 235.99 84.4126 236.756 85.7234 237.426C86.2874 237.714 86.8648 237.764 87.4923 237.68C89.9137 237.356 91.3169 239.129 90.4854 241.429C90.343 241.822 90.0562 242.116 89.6712 242.174C88.4393 242.361 87.2459 242.486 86.0237 241.87C82.9998 240.344 80.0087 238.756 77.0117 237.181C75.98 236.638 75.2139 235.87 74.5306 234.979C74.3285 234.715 74.1688 234.488 73.7703 234.531C72.4576 234.671 71.4028 234.046 70.4539 233.266C66.7967 230.267 63.0684 227.351 59.5441 224.192C58.8761 223.594 58.6779 222.814 58.6779 221.944C58.6856 217.167 58.6586 212.39 58.6952 207.614C58.7048 206.236 58.3314 205.106 57.2227 204.246C56.8474 203.955 56.6337 201.872 56.9013 201.451C57.2093 200.964 58.5143 200.708 59.2226 201.095C61.2379 202.196 62.5179 203.826 62.5314 206.211C62.5564 210.827 62.5679 215.442 62.5179 220.056C62.5044 221.271 62.9413 222.135 63.8633 222.853C66.3579 224.795 68.8409 226.752 71.3201 228.714C71.73 229.037 72.1381 229.347 72.6905 229.293C75.7895 228.989 75.7375 230.061 76.313 232.094L76.3092 232.09Z" fill="#FE0000"/>
<path d="M113.639 242.526C114.75 239.907 115.777 237.464 116.821 235.031C118.081 232.094 119.333 229.155 120.632 226.235C121.717 223.796 124.262 222.834 126.716 223.873C127.821 224.341 128.15 224.957 127.938 226.154C127.763 227.145 127.149 227.784 126.079 227.711C125.076 227.642 124.732 228.067 124.383 228.902C121.748 235.208 119.044 241.485 116.403 247.787C115.887 249.019 115.198 249.862 113.758 249.883C112.317 249.904 111.585 249.484 111.031 248.099C109.487 244.243 107.965 240.38 106.45 236.513C105.135 233.152 103.832 229.788 102.548 226.414C102.175 225.432 101.563 224.824 100.498 224.635C99.9901 224.545 99.2837 224.539 99.1413 223.906C98.9373 223.001 98.8969 222.037 99.2029 221.153C99.3511 220.728 99.9516 220.678 100.394 220.684C103.195 220.712 105.283 221.509 106.407 224.348C108.725 230.196 111.025 236.051 113.335 241.903C113.391 242.045 113.47 242.18 113.639 242.526Z" fill="#FE0000"/>
<path d="M188.541 226.379C191.5 224.464 193.929 222.2 194.789 218.657C194.985 217.844 195.084 217.021 195.087 216.189C195.097 214.266 195.114 212.343 195.078 210.42C195.049 208.959 195.675 207.824 196.695 206.871C197.557 206.066 198.862 205.963 199.592 206.584C200.061 206.985 200.152 208.463 199.561 209.192C198.72 210.234 198.664 211.385 198.66 212.619C198.656 214.667 198.8 216.72 198.531 218.763C198.098 222.037 196.373 224.585 193.977 226.733C192.978 227.628 191.956 228.5 190.891 229.314C189.452 230.413 187.856 230.421 186.27 229.69C185.013 229.11 184.745 227.873 184.555 226.662C184.239 224.656 184.389 222.633 184.391 220.616C184.391 220.102 184.316 219.773 183.783 219.488C182.953 219.045 183.007 218.143 183.075 217.352C183.134 216.653 183.473 216.068 184.224 215.848C185.063 215.602 185.927 215.544 186.79 215.581C187.762 215.623 187.956 216.382 187.979 217.146C188.021 218.651 188.006 220.158 187.996 221.665C187.987 223.232 187.943 224.799 188.539 226.381L188.541 226.379Z" fill="#FE0000"/>
<path d="M131.447 239.695C131.447 241.808 131.455 243.922 131.442 246.035C131.438 246.511 131.476 246.84 132.038 247.046C133.667 247.644 133.559 248.924 133.058 250.276C132.958 250.545 132.693 250.67 132.356 250.657C131.717 250.628 131.076 250.649 130.435 250.651C128.851 250.651 128.033 249.929 127.973 248.318C127.91 246.592 127.952 244.861 127.95 243.133C127.948 240.571 127.936 238.009 127.952 235.447C127.956 234.916 127.875 234.608 127.263 234.413C126.41 234.144 125.939 233.468 125.973 232.502C126.016 231.36 126.318 231.043 127.451 231.041C128.06 231.041 128.67 231.022 129.276 231.045C130.733 231.101 131.417 231.717 131.451 233.164C131.501 235.339 131.465 237.518 131.465 239.695C131.457 239.695 131.451 239.695 131.443 239.695H131.447Z" fill="#FE0000"/>
</svg>
