<svg width="256" height="256" viewBox="0 0 256 256" fill="none" xmlns="http://www.w3.org/2000/svg">
<path d="M26.0626 102.912C24.5575 103.097 23.04 103.307 21.504 103.535C14.3051 104.596 7.50726 105.996 1.12268 107.613L11.0728 127.025L1.12268 151.065C2.81907 150.713 4.52162 150.368 6.23651 150.028C21.8864 146.956 36.5309 144.982 51.2493 143.749L48.9361 127.358L26.0626 102.912Z" fill="white"/>
<path d="M0.616856 151.484L10.7335 127.038L0.672374 107.409L1.04866 107.316C7.76018 105.62 14.6259 104.244 21.4608 103.233C22.9783 103.011 24.5143 102.801 26.0256 102.61L26.1798 102.591L49.226 127.223L51.5948 144.032L51.2678 144.057C36.0065 145.334 21.2943 147.388 6.29204 150.331C4.57715 150.664 2.87459 151.009 1.18437 151.367L0.610687 151.484H0.616856ZM1.57917 107.816L11.4182 127.013L1.63469 150.645C3.13984 150.331 4.65734 150.028 6.181 149.726C21.0969 146.802 35.729 144.754 50.8977 143.471L48.6462 127.5L25.9454 103.239C24.4835 103.424 23.0091 103.621 21.5472 103.837C14.8603 104.824 8.14881 106.163 1.573 107.81L1.57917 107.816Z" fill="#97191A"/>
<path d="M51.4467 143.267L25.6185 133.539L25.9948 132.941L51.6626 142.694L51.4467 143.267Z" fill="#97191A"/>
<path d="M230.036 102.912C231.541 103.097 233.059 103.307 234.595 103.535C241.794 104.596 248.591 105.996 254.976 107.613L245.026 127.025L254.976 151.065C253.28 150.713 251.577 150.368 249.862 150.028C234.212 146.956 219.66 144.921 204.948 143.687L207.446 127.439L230.036 102.912Z" fill="white"/>
<path d="M255.482 151.484L254.908 151.367C253.218 151.015 251.515 150.67 249.8 150.331C234.373 147.302 219.691 145.229 204.917 143.995L204.59 143.971L207.156 127.303L207.218 127.235L229.913 102.591L230.067 102.61C231.578 102.801 233.114 103.011 234.632 103.233C241.46 104.244 248.326 105.614 255.044 107.316L255.42 107.409L245.359 127.038L255.476 151.484H255.482ZM205.3 143.409C219.987 144.649 234.582 146.716 249.924 149.726C251.448 150.022 252.959 150.331 254.47 150.645L244.693 127.013L254.532 107.816C247.956 106.163 241.238 104.83 234.558 103.843C233.096 103.628 231.621 103.424 230.166 103.245L207.749 127.58L205.312 143.409H205.3Z" fill="#97191A"/>
<path d="M204.646 143.267L204.436 142.694L230.258 133.213L230.517 133.842L204.646 143.267Z" fill="#97191A"/>
<path d="M128.888 236.359C128.888 236.359 128.864 236.365 128.857 236.359C115.57 228.081 104.448 219.469 97.4465 213.27C80.1866 197.977 61.5387 181.452 53.76 155.377C50.3919 144.088 49.2692 131.701 48.9546 128.049C47.9984 117.044 48.5043 108.063 48.3562 100.63C48.3562 100.611 47.7579 100.617 47.7394 100.617L28.8139 102.018C24.8721 99.7906 17.519 92.7522 12.9974 85.4793C6.87189 75.6218 6.97676 65.8074 7.03228 61.113C7.11247 53.8587 8.75951 48.1527 10.0796 43.6002C11.3318 39.2574 15.6746 28.4746 19.0674 22.8179C19.7644 21.652 20.5293 20.3628 21.7569 19.9371C22.9845 19.5115 24.6994 19.7953 25.674 20.9303C26.0441 21.3621 26.2045 21.9296 26.1428 22.491C25.1312 31.1271 25.9516 38.1286 26.8399 42.7551C28.1415 49.5159 29.2025 55.0616 33.7241 60.2371C34.927 61.6189 39.2759 66.4736 46.4316 68.5463C47.252 68.7869 47.9553 68.9411 48.4426 69.0336C48.4611 69.0336 48.4734 69.0213 48.4734 69.0028L48.7202 60.7676C51.2062 62.1185 54.198 62.4701 58.0225 62.8032C80.4827 64.734 98.89 58.2693 101.172 57.307C115.391 51.2863 126.297 43.6248 128.87 43.668C131.461 43.705 152.015 57.2268 163.599 60.3913C169.842 62.0939 196.417 65.647 208.211 60.7738C208.23 60.7676 208.433 69.6628 208.433 69.6628C208.532 69.6443 208.211 69.6813 208.211 69.6813C209.692 69.5641 210.938 69.3297 212.147 68.9843C223.423 65.7889 228.66 53.8217 229.851 50.8299C231.72 46.1232 232.103 42.1444 232.559 37.3698C233.071 32.0586 232.88 27.4999 232.553 24.0825C232.485 23.3731 232.516 22.6637 232.658 21.9666C232.726 21.652 232.806 21.3559 232.911 21.1647C233.682 19.7768 235.347 19.7706 236.088 19.7891C239.894 19.8631 242.756 28.4314 245.686 36.1361C247.401 40.6454 254.119 55.8512 251.164 71.1001C250.349 75.3072 248.24 85.0043 239.844 93.0051C235.458 97.1813 230.887 99.4328 227.852 100.63C227.852 100.63 227.846 100.63 227.84 100.63L209.76 100.593C209.76 100.593 208.588 100.58 208.588 100.593C208.47 108.075 209.106 118.648 207.348 131.189C205.855 141.83 203.813 149.516 201.383 159.01C192.5 193.746 130.011 235.606 128.882 236.359H128.888Z" fill="#C4181A"/>
<path d="M187.102 135.489H68.9966V137.16H187.102V135.489Z" fill="white"/>
<path d="M187.102 158.152H68.9966V163.488H187.102V158.152Z" fill="white"/>
<path d="M75.9117 152.761C73.4257 152.761 71.4024 150.738 71.4024 148.252C71.4024 145.766 73.4257 143.742 75.9117 143.742C76.2448 143.742 76.5964 143.779 76.9665 143.866L77.1516 143.909V142.003L77.0221 141.978C76.6519 141.917 76.288 141.88 75.9055 141.88C72.3894 141.88 69.5333 144.742 69.5333 148.252C69.5333 151.762 72.3956 154.624 75.9055 154.624C76.288 154.624 76.6519 154.593 77.0221 154.525L77.1516 154.501V152.582L76.9604 152.632C76.6458 152.712 76.3127 152.749 75.9117 152.749V152.761Z" fill="white"/>
<path d="M83.2154 141.873C79.6993 141.873 76.8432 144.736 76.8432 148.246C76.8432 151.756 79.7054 154.618 83.2154 154.618C86.7254 154.618 89.5876 151.756 89.5876 148.246C89.5876 144.736 86.7254 141.873 83.2154 141.873ZM83.2154 152.761C80.7294 152.761 78.7061 150.738 78.7061 148.252C78.7061 145.766 80.7294 143.742 83.2154 143.742C85.7014 143.742 87.7247 145.766 87.7247 148.252C87.7247 150.738 85.7014 152.761 83.2154 152.761Z" fill="white"/>
<path d="M94.6768 149.492L91.7714 141.429L89.6432 154.624H91.5431L92.4808 148.85L94.6583 154.92L96.8729 148.844L97.7982 154.624H99.692L97.5823 141.429L94.6768 149.492Z" fill="white"/>
<path d="M102.388 141.873H100.525V154.624H102.388V141.873Z" fill="white"/>
<path d="M109.772 141.873H103.245V143.736H105.577V154.624H107.44V143.736H109.772V141.873Z" fill="white"/>
<path d="M110.629 146.543H108.982L109.913 148.406H110.629V154.624H117.155V152.761H112.492V148.406H115.601V146.543H112.492V143.736H117.155V141.873H110.629V146.543Z" fill="white"/>
<path d="M114.768 139.11H112.665L111.462 141.404H113.565L114.768 139.11Z" fill="white"/>
<path d="M124.934 141.873H122.757V154.624H124.934C128.45 154.624 131.306 151.762 131.306 148.252C131.306 144.742 128.444 141.879 124.934 141.879V141.873ZM124.934 152.761H124.62V143.749L124.934 143.736C127.42 143.736 129.443 145.76 129.443 148.246C129.443 150.732 127.42 152.755 124.934 152.755V152.761Z" fill="white"/>
<path d="M132.941 146.543H131.288L132.219 148.406H132.941V154.624H139.468V152.761H134.804V148.406H137.913V146.543H134.804V143.736H139.468V141.873H132.941V146.543Z" fill="white"/>
<path d="M141.984 145.827C141.824 145.519 141.775 145.167 141.843 144.81C142.009 144.045 142.749 143.761 143.329 143.749L144.785 143.73V141.867H143.107C141.645 141.867 140.356 142.903 140.035 144.335C139.795 145.346 140.047 146.321 140.806 147.302L143.002 150.491C143.304 151.065 143.311 151.799 143.015 152.28C142.885 152.496 142.632 152.755 142.188 152.755H140.368V154.618H142.262C143.329 154.618 144.285 154.026 144.822 153.032C145.365 152.021 145.322 150.812 144.711 149.886L141.984 145.827Z" fill="white"/>
<path d="M154.235 143.736H158.905V141.873H152.372V146.543H150.725L151.657 148.406H152.372V154.624H154.235V148.406H157.351V146.543H154.235V143.736Z" fill="white"/>
<path d="M163.026 140.504L163.926 141.17H166.289L163.032 138.777L159.775 141.17H162.045L163.026 140.504Z" fill="white"/>
<path d="M159.756 146.543H158.109L159.041 148.406H159.756V154.624H166.289V152.761H161.625V148.406H164.734V146.543H161.625V143.736H166.289V141.873H159.756V146.543Z" fill="white"/>
<path d="M173.673 141.873H167.146V143.736H169.478V154.624H171.341V143.736H173.673V141.873Z" fill="white"/>
<path d="M174.53 146.543H172.877L173.809 148.406H174.53V154.624H181.057V152.761H176.393V148.406H179.502V146.543H176.393V143.736H181.057V141.873H174.53V146.543Z" fill="white"/>
<path d="M186.3 149.886L183.574 145.827C183.413 145.519 183.364 145.167 183.432 144.81C183.598 144.045 184.338 143.761 184.918 143.749L186.374 143.73V141.867H184.696C183.234 141.867 181.945 142.903 181.624 144.335C181.384 145.346 181.637 146.321 182.395 147.302L184.591 150.491C184.894 151.065 184.9 151.799 184.604 152.28C184.474 152.496 184.221 152.755 183.777 152.755H181.957V154.618H183.851C184.918 154.618 185.875 154.026 186.411 153.032C186.954 152.021 186.911 150.812 186.3 149.886Z" fill="white"/>
<path d="M139.591 186.763C139.005 186.454 138.345 186.325 137.716 186.368C137.611 185.776 137.512 185.14 137.42 184.493C138.986 183.117 140.652 180.97 140.282 177.226C140.232 176.745 140.084 176.079 139.628 175.647C139.369 175.4 139.091 175.277 138.752 175.289C138.147 175.314 137.623 175.789 137.37 176.072C136.679 176.831 136.322 178.521 136.303 179.428C136.272 180.662 136.371 181.908 136.5 182.981C136.5 182.981 136.5 182.981 136.494 182.988C135.242 183.956 133.977 185.011 133.219 186.195C132.287 187.639 132.318 189.989 133.28 191.328C133.589 191.759 134.471 192.796 135.933 193.123C136.581 193.265 137.432 193.308 138.271 193.123C138.474 194.77 138.357 195.578 138.197 196.287C138.043 196.972 137.383 197.57 136.667 197.681C136.389 197.725 135.896 197.718 135.526 197.28C135.711 197.243 135.921 197.151 136.106 196.997C136.315 196.824 136.562 196.515 136.562 196.022C136.562 195.374 136.266 195.041 136.019 194.868C135.649 194.615 135.125 194.578 134.644 194.757C134.311 194.887 134.045 195.158 133.903 195.522C133.718 195.991 133.749 196.565 133.984 197.058C134.348 197.823 135.421 198.452 136.513 198.452C136.827 198.452 137.142 198.403 137.444 198.286C138.808 197.762 139.307 195.96 138.956 192.925C139.313 192.79 139.659 192.605 139.973 192.358C140.794 191.71 141.232 190.742 141.244 189.557C141.256 188.336 140.658 187.318 139.603 186.763H139.591ZM134.539 191.309C133.65 190.168 133.04 188.379 135.211 186.294L135.285 186.22C135.495 186.01 135.81 185.77 136.18 185.492C136.377 185.344 136.593 185.184 136.815 185.005C136.883 185.369 136.938 185.659 136.982 185.862C137.006 185.998 137.025 186.09 137.031 186.121C137.031 186.177 137.056 186.306 137.086 186.485C136.778 186.572 136.482 186.707 136.229 186.886C135.803 187.188 135.458 187.596 135.248 188.046C134.927 188.737 134.915 189.613 135.217 190.334C135.464 190.92 135.89 191.352 136.426 191.55L136.772 191.679L136.618 191.346C136.445 190.964 136.081 189.798 136.5 188.996C136.679 188.657 136.982 188.422 137.401 188.293C137.555 189.169 137.709 190.008 137.74 190.131C137.913 190.92 138.043 191.605 138.141 192.197C137.969 192.271 137.777 192.327 137.568 192.37C136.593 192.568 135.125 192.062 134.545 191.315L134.539 191.309ZM138.363 189.705C138.32 189.514 138.203 188.959 138.055 188.194C138.659 188.243 139.153 188.657 139.369 189.119C139.505 189.415 139.665 190.341 139.252 191.167C139.134 191.402 138.974 191.611 138.789 191.778C138.69 191.204 138.573 190.6 138.425 189.952L138.37 189.705H138.363ZM137.16 179.089C137.321 178.201 137.901 177.325 138.431 177.17C138.481 177.158 138.53 177.146 138.579 177.146C138.703 177.146 138.808 177.195 138.906 177.3C139.634 178.077 139.215 179.484 139.165 179.638C138.789 180.816 137.981 181.723 137.179 182.426C137.056 181.106 137.019 179.897 137.167 179.089H137.16Z" fill="white"/>
<path d="M159.584 179.687H132.04V180.212H159.584V179.687Z" fill="white"/>
<path d="M159.584 183.018H132.04V183.543H159.584V183.018Z" fill="white"/>
<path d="M159.584 186.343H132.04V186.868H159.584V186.343Z" fill="white"/>
<path d="M159.584 189.674H132.04V190.199H159.584V189.674Z" fill="white"/>
<path d="M159.584 193.005H132.04V193.53H159.584V193.005Z" fill="white"/>
<path d="M146.062 180.36V188.626C145.988 188.583 145.914 188.546 145.834 188.515C145.593 188.422 145.322 188.373 145.013 188.367H144.989C144.47 188.367 143.94 188.509 143.446 188.774C142.965 189.033 142.577 189.422 142.354 189.859C142.077 190.409 142.065 190.927 142.324 191.303C142.583 191.679 143.113 191.901 143.767 191.92C143.792 191.92 143.816 191.92 143.841 191.92C144.347 191.92 144.877 191.784 145.334 191.537C145.834 191.266 146.216 190.896 146.45 190.47C146.5 190.378 146.642 190.23 146.679 190.143V180.36H146.056H146.062Z" fill="white"/>
<path d="M159.152 180.366C158.961 179.983 158.56 179.743 158.048 179.706C157.647 179.675 157.209 179.792 156.826 180.039C156.444 180.298 156.141 180.643 155.956 181.057C155.852 181.285 155.79 181.519 155.778 181.741C155.778 181.754 155.778 181.766 155.778 181.785V181.945C155.778 181.988 155.79 182.025 155.796 182.062L155.771 187.423L149.152 189.582L149.171 185.042C149.171 185.042 149.208 185.066 149.226 185.073C149.411 185.177 149.621 185.233 149.862 185.245C150.263 185.264 150.688 185.14 151.077 184.887C151.447 184.641 151.749 184.277 151.928 183.851C152.058 183.549 152.231 182.969 151.99 182.463C151.799 182.081 151.398 181.84 150.886 181.803C150.479 181.778 150.041 181.889 149.664 182.142C149.282 182.395 148.98 182.747 148.795 183.16C148.69 183.388 148.634 183.623 148.616 183.845C148.616 183.857 148.616 183.876 148.616 183.888V184.036C148.616 184.079 148.628 184.123 148.634 184.16L148.61 189.761V190.507L148.603 193.511L156.308 191.124L156.339 182.944C156.339 182.944 156.376 182.969 156.394 182.975C156.579 183.074 156.789 183.136 157.03 183.148C157.437 183.166 157.856 183.043 158.245 182.79C158.615 182.55 158.917 182.179 159.096 181.754C159.226 181.452 159.399 180.872 159.158 180.366H159.152ZM149.14 191.142V190.322L155.765 188.194V188.983L149.14 191.142Z" fill="white"/>
<path d="M99.9942 198.897C101.786 198.897 103.239 197.444 103.239 195.652C103.239 193.86 101.786 192.407 99.9942 192.407C98.2022 192.407 96.7495 193.86 96.7495 195.652C96.7495 197.444 98.2022 198.897 99.9942 198.897Z" fill="white"/>
<path d="M118.494 175.011C111.943 175.011 106.638 180.323 106.638 186.868C106.638 193.413 111.949 198.724 118.494 198.724C125.039 198.724 130.35 193.413 130.35 186.868C130.35 180.323 125.039 175.011 118.494 175.011ZM127.007 180.144C122.738 177.985 117.84 177.189 113.146 178.195C117.754 176.763 122.942 177.596 127.007 180.144ZM125.674 178.083C121.696 176.332 117.254 175.875 113.035 176.967C117.125 175.456 121.893 175.931 125.674 178.083ZM125.896 189.391C125.804 189.341 125.711 189.292 125.625 189.243C125.403 189.545 125.169 189.835 124.922 190.112C125.045 190.186 125.169 190.26 125.286 190.341C125.156 190.273 125.027 190.205 124.897 190.143C121.27 194.178 114.824 195.288 110.197 191.346C114.478 194.714 121.073 194.036 124.675 190.032C124.009 189.699 123.324 189.397 122.633 189.138C121.474 190.322 120.012 191.204 118.352 191.562C114.774 192.487 110.697 191.106 108.748 187.892C111.992 192.493 118.574 192.574 122.393 189.051C118.747 187.737 114.756 187.441 110.974 188.447C114.713 187.096 118.914 187.355 122.565 188.891C122.818 188.644 123.053 188.385 123.281 188.108C119.438 186.528 115.163 186.066 111.092 187.003C115.12 185.714 119.598 186.152 123.411 187.96C123.774 187.485 124.095 186.966 124.367 186.405C124.792 185.615 125.132 184.77 125.341 183.888C125.076 185.369 124.459 186.806 123.565 188.034C123.799 188.145 124.027 188.262 124.256 188.385C124.663 188.613 125.058 188.854 125.446 189.107C126.415 187.793 127.124 186.275 127.519 184.672C127.241 186.399 126.575 187.935 125.644 189.236C125.73 189.292 125.816 189.347 125.903 189.403L125.896 189.391Z" fill="white"/>
<path d="M122.775 188.971C123.441 189.261 124.089 189.6 124.712 189.977C124.829 189.841 124.953 189.718 125.07 189.576C125.193 189.428 125.304 189.273 125.422 189.119C124.78 188.774 124.126 188.453 123.46 188.169C123.25 188.447 123.022 188.712 122.781 188.965L122.775 188.971Z" fill="white"/>
<path d="M109.944 177.158C108.464 175.437 106.57 174.74 104.121 174.74C100.852 174.74 97.0826 176.986 96.7495 181.643C96.4287 186.097 99.3527 190.52 103.819 190.52C104.615 190.52 105.386 190.402 106.114 190.186C105.787 189.218 105.589 188.2 105.521 187.139C104.392 187.651 102.968 187.565 101.925 186.886C103.128 187.176 104.306 187.226 105.515 187.071C105.503 186.855 105.49 186.639 105.49 186.417C105.49 186.158 105.503 185.899 105.515 185.646C103.955 186.405 101.919 186.183 100.599 185.048C102.159 185.801 103.831 185.973 105.515 185.622C105.743 182.204 107.421 179.182 109.938 177.164L109.944 177.158ZM105.904 175.869C105.034 176.054 104.066 175.931 103.233 175.85C104.109 175.844 105.077 175.604 105.904 175.869ZM102.567 176.245C102.474 176.356 102.381 176.362 102.289 176.319C102.209 176.288 102.042 176.288 102.011 176.221C102.19 176.19 102.456 176.005 102.567 176.239V176.245ZM102.567 183.53C103.387 183.524 104.3 183.284 105.071 183.549C104.257 183.734 103.344 183.611 102.567 183.53ZM102.011 182.42C103.035 182.42 104.152 182.173 105.127 182.439C104.109 182.624 102.992 182.5 102.011 182.42ZM105.133 177.004C105.133 177.004 103.202 176.961 103.245 176.905C104.349 176.905 105.984 176.659 107.02 176.924C106.391 177.035 105.762 177.041 105.133 176.998V177.004Z" fill="white"/>
<path fill-rule="evenodd" clip-rule="evenodd" d="M196.207 69.9651L196.065 69.1323L194.683 69.3421L194.801 70.181L196.207 69.9651Z" fill="white"/>
<path fill-rule="evenodd" clip-rule="evenodd" d="M198.545 69.4839L198.81 68.5339L197.25 68.9041L197.262 69.7738L198.545 69.4839Z" fill="white"/>
<path fill-rule="evenodd" clip-rule="evenodd" d="M200.784 68.7992L201.352 67.9541L199.988 68.2564L199.538 69.2187L200.784 68.7992Z" fill="white"/>
<path fill-rule="evenodd" clip-rule="evenodd" d="M188.595 70.693L188.564 69.8479C188.095 69.8726 187.633 69.8911 187.164 69.8911L187.182 70.7362C187.657 70.7362 188.126 70.7177 188.601 70.693H188.595Z" fill="white"/>
<path fill-rule="evenodd" clip-rule="evenodd" d="M191.136 70.5696L191.075 69.7245C190.612 69.7553 190.143 69.7738 189.674 69.7923L189.718 70.6375C190.193 70.6128 190.661 70.6004 191.136 70.5634V70.5696Z" fill="white"/>
<path fill-rule="evenodd" clip-rule="evenodd" d="M193.666 70.3352L193.567 69.4901L192.173 69.6258L192.253 70.4648L193.666 70.3352Z" fill="white"/>
<path fill-rule="evenodd" clip-rule="evenodd" d="M180.964 70.656L181.001 69.8109L179.595 69.7307L179.545 70.5758L180.964 70.656Z" fill="white"/>
<path fill-rule="evenodd" clip-rule="evenodd" d="M183.5 70.7301L183.518 69.885L182.112 69.8418L182.087 70.6869L183.5 70.7301Z" fill="white"/>
<path fill-rule="evenodd" clip-rule="evenodd" d="M186.035 70.7423L186.029 69.8972L184.628 69.9096L184.616 70.7547L186.035 70.7423Z" fill="white"/>
<path fill-rule="evenodd" clip-rule="evenodd" d="M173.358 70.0638L173.445 69.2248L172.05 69.0645L171.952 69.9034L173.358 70.0638Z" fill="white"/>
<path fill-rule="evenodd" clip-rule="evenodd" d="M175.881 70.3105L175.955 69.4654L174.555 69.342L174.475 70.1871L175.881 70.3105Z" fill="white"/>
<path fill-rule="evenodd" clip-rule="evenodd" d="M178.41 70.5079L178.466 69.6628C177.997 69.6381 177.528 69.6073 177.066 69.5641L176.998 70.4092C177.467 70.4524 177.942 70.4832 178.41 70.5079Z" fill="white"/>
<path fill-rule="evenodd" clip-rule="evenodd" d="M165.802 69.0029L165.95 68.1639L164.562 67.9233L164.408 68.7561L165.802 69.0029Z" fill="white"/>
<path fill-rule="evenodd" clip-rule="evenodd" d="M168.306 69.4099L168.436 68.571C167.973 68.5093 167.51 68.4353 167.048 68.3551L166.912 69.1879C167.375 69.2742 167.843 69.3421 168.312 69.4099H168.306Z" fill="white"/>
<path fill-rule="evenodd" clip-rule="evenodd" d="M170.817 69.774L170.922 68.935L169.534 68.7314L169.41 69.5704L170.817 69.774Z" fill="white"/>
<path fill-rule="evenodd" clip-rule="evenodd" d="M158.344 67.3557L158.572 66.5415L157.227 66.1528L156.98 66.9609L158.344 67.3557Z" fill="white"/>
<path fill-rule="evenodd" clip-rule="evenodd" d="M160.811 67.9911L161.002 67.1645L159.639 66.8314L159.429 67.6519L160.811 67.9911Z" fill="white"/>
<path fill-rule="evenodd" clip-rule="evenodd" d="M163.285 68.5278L163.451 67.695L162.082 67.4113L161.897 68.244L163.285 68.5278Z" fill="white"/>
<path fill-rule="evenodd" clip-rule="evenodd" d="M151.188 64.66L151.54 63.8889L150.269 63.2968L149.905 64.0617L151.188 64.66Z" fill="white"/>
<path fill-rule="evenodd" clip-rule="evenodd" d="M153.514 65.6902L153.841 64.9067L152.551 64.3516L152.212 65.1226L153.514 65.6902Z" fill="white"/>
<path fill-rule="evenodd" clip-rule="evenodd" d="M155.889 66.597L156.166 65.7951L154.858 65.3263L154.544 66.1159L155.889 66.597Z" fill="white"/>
<path fill-rule="evenodd" clip-rule="evenodd" d="M144.353 61.2735L144.748 60.5209L143.502 59.8608L143.101 60.6134L144.353 61.2735Z" fill="white"/>
<path fill-rule="evenodd" clip-rule="evenodd" d="M146.611 62.4332L146.993 61.6806L145.741 61.0391L145.346 61.7916L146.611 62.4332Z" fill="white"/>
<path fill-rule="evenodd" clip-rule="evenodd" d="M148.875 63.5621L149.245 62.8033L147.98 62.1803L147.604 62.939L148.875 63.5621Z" fill="white"/>
<path d="M136.813 56.2514L136.409 56.9935L137.65 57.6693L138.054 56.9272L136.813 56.2514Z" fill="white"/>
<path d="M139.029 57.4544L138.626 58.1973L139.868 58.8709L140.271 58.128L139.029 57.4544Z" fill="white"/>
<path fill-rule="evenodd" clip-rule="evenodd" d="M142.095 60.0768L142.496 59.3303L141.256 58.658L140.849 59.4044L142.095 60.0768Z" fill="white"/>
<path fill-rule="evenodd" clip-rule="evenodd" d="M130.924 54.124L131.288 53.3591C130.844 53.1494 130.443 52.9643 129.943 52.7607L129.666 53.5627C130.066 53.7231 130.511 53.9266 130.924 54.124Z" fill="white"/>
<path fill-rule="evenodd" clip-rule="evenodd" d="M133.182 55.2591L133.57 54.5126L132.306 53.8588L131.929 54.6175L133.182 55.2591Z" fill="white"/>
<path fill-rule="evenodd" clip-rule="evenodd" d="M135.402 56.4434L135.81 55.7031L134.557 55.0308L134.163 55.7772L135.402 56.4434Z" fill="white"/>
<path fill-rule="evenodd" clip-rule="evenodd" d="M124.157 54.9999L123.756 54.2473L122.51 54.9197L122.917 55.6661L124.157 54.9999Z" fill="white"/>
<path fill-rule="evenodd" clip-rule="evenodd" d="M126.402 53.8648L126.051 53.0938C125.613 53.2973 125.181 53.5071 124.761 53.723L125.144 54.4755C125.563 54.2596 125.983 54.0561 126.402 53.8587V53.8648Z" fill="white"/>
<path fill-rule="evenodd" clip-rule="evenodd" d="M128.66 53.2418L128.722 52.3906C128.191 52.3042 127.667 52.4646 127.167 52.6373L127.383 53.4578C127.79 53.3159 128.222 53.1617 128.66 53.2418Z" fill="white"/>
<path fill-rule="evenodd" clip-rule="evenodd" d="M117.482 58.6517L117.075 57.9115L115.835 58.5777L116.236 59.3241L117.482 58.6517Z" fill="white"/>
<path fill-rule="evenodd" clip-rule="evenodd" d="M119.703 57.4304L119.296 56.6902L118.062 57.3749L118.469 58.1151L119.703 57.4304Z" fill="white"/>
<path d="M121.507 55.4731L120.27 56.1541L120.677 56.8945L121.915 56.2135L121.507 55.4731Z" fill="white"/>
<path fill-rule="evenodd" clip-rule="evenodd" d="M110.728 62.1864L110.351 61.4276L109.087 62.0445L109.457 62.8094L110.728 62.1864Z" fill="white"/>
<path fill-rule="evenodd" clip-rule="evenodd" d="M112.992 61.039L112.603 60.2864L111.351 60.9279L111.733 61.6805L112.992 61.039Z" fill="white"/>
<path fill-rule="evenodd" clip-rule="evenodd" d="M115.231 59.8608L114.836 59.1144L113.59 59.7744L113.985 60.5208L115.231 59.8608Z" fill="white"/>
<path fill-rule="evenodd" clip-rule="evenodd" d="M103.813 65.4003L103.48 64.623C103.042 64.8143 102.622 64.987 102.196 65.1474L102.493 65.9431C102.943 65.7766 103.381 65.5915 103.813 65.4003Z" fill="white"/>
<path fill-rule="evenodd" clip-rule="evenodd" d="M106.132 64.3702L105.787 63.5991L104.504 64.1728L104.843 64.9501L106.132 64.3702Z" fill="white"/>
<path fill-rule="evenodd" clip-rule="evenodd" d="M108.427 63.303L108.063 62.5381L106.792 63.1364L107.15 63.9075L108.427 63.303Z" fill="white"/>
<path fill-rule="evenodd" clip-rule="evenodd" d="M96.5521 67.806L96.33 66.9856L94.9729 67.3495L95.1826 68.17L96.5521 67.806Z" fill="white"/>
<path fill-rule="evenodd" clip-rule="evenodd" d="M98.9949 67.1029L98.7543 66.2948L97.4034 66.6896L97.6378 67.5039L98.9949 67.1029Z" fill="white"/>
<path fill-rule="evenodd" clip-rule="evenodd" d="M101.413 66.3256L101.135 65.5237C100.691 65.6717 100.253 65.8259 99.803 65.9617L100.062 66.7698C100.512 66.634 100.963 66.4737 101.407 66.3256H101.413Z" fill="white"/>
<path fill-rule="evenodd" clip-rule="evenodd" d="M89.1127 69.5148L88.9584 68.6882L87.5767 68.9412L87.7247 69.7801L89.1127 69.5148Z" fill="white"/>
<path fill-rule="evenodd" clip-rule="evenodd" d="M91.6048 69.009L91.4259 68.1824L90.0503 68.4785L90.2168 69.3051L91.6048 69.009Z" fill="white"/>
<path fill-rule="evenodd" clip-rule="evenodd" d="M94.0723 68.4415L93.8749 67.6149L92.5054 67.948L92.6967 68.7746L94.0723 68.4415Z" fill="white"/>
<path fill-rule="evenodd" clip-rule="evenodd" d="M81.5745 70.6806L81.4758 69.8417C81.0132 69.9095 80.5444 69.9465 80.0817 69.9897L80.1681 70.8348C80.6369 70.7917 81.1119 70.7485 81.5745 70.6868V70.6806Z" fill="white"/>
<path fill-rule="evenodd" clip-rule="evenodd" d="M84.0913 70.3599L83.9741 69.521L82.58 69.6999L82.6911 70.5388L84.0913 70.3599Z" fill="white"/>
<path fill-rule="evenodd" clip-rule="evenodd" d="M86.5958 69.9713L86.4601 69.1323L85.0722 69.3544L85.1955 70.1872L86.5958 69.9713Z" fill="white"/>
<path fill-rule="evenodd" clip-rule="evenodd" d="M73.9624 71.2728L73.9316 70.4277L72.5251 70.4524L72.5436 71.3037L73.9624 71.2728Z" fill="white"/>
<path fill-rule="evenodd" clip-rule="evenodd" d="M76.5039 71.131L76.4484 70.2859L75.0419 70.3661L75.0851 71.2174L76.5039 71.131Z" fill="white"/>
<path fill-rule="evenodd" clip-rule="evenodd" d="M79.0269 70.9335L78.9529 70.0946L77.5526 70.2241L77.6143 71.0693L79.0269 70.9335Z" fill="white"/>
<path fill-rule="evenodd" clip-rule="evenodd" d="M66.3318 71.2421L66.3688 70.3908L64.9685 70.3044L64.913 71.1495L66.3318 71.2421Z" fill="white"/>
<path fill-rule="evenodd" clip-rule="evenodd" d="M68.8671 71.3099L68.8856 70.4648L67.4791 70.434L67.4545 71.2852L68.8671 71.3099Z" fill="white"/>
<path fill-rule="evenodd" clip-rule="evenodd" d="M71.4024 71.3223V70.4772C70.9274 70.4895 70.4586 70.5018 69.9898 70.4833V71.3284C70.4586 71.347 70.9274 71.3285 71.4024 71.3223Z" fill="white"/>
<path fill-rule="evenodd" clip-rule="evenodd" d="M58.8121 70.4155L58.7381 69.521C58.6518 69.5025 58.5716 69.4779 58.4852 69.4532C58.0411 69.3236 57.6093 69.2126 57.196 69.1016L57.5414 70.0639C57.893 70.1749 58.2446 70.2798 58.6024 70.3661L58.806 70.4155H58.8121Z" fill="white"/>
<path fill-rule="evenodd" clip-rule="evenodd" d="M61.2426 70.8411L61.3536 70.0022C60.891 69.9405 60.453 69.8726 59.9719 69.7863L59.8423 70.6252C60.2988 70.7054 60.78 70.7794 61.2426 70.8411Z" fill="white"/>
<path fill-rule="evenodd" clip-rule="evenodd" d="M63.7718 71.0756L63.8334 70.2305C63.3646 70.2058 62.902 70.175 62.4393 70.1256L62.353 70.9707C62.828 71.0201 63.2968 71.0509 63.7656 71.0818L63.7718 71.0756Z" fill="white"/>
<path fill-rule="evenodd" clip-rule="evenodd" d="M55.2405 73.2161L54.4016 72.9385L54.3522 74.5115L55.1973 74.5362L55.2405 73.2161Z" fill="white"/>
<path fill-rule="evenodd" clip-rule="evenodd" d="M55.3084 70.8596L54.5681 70.1564C54.5126 70.6375 54.4632 71.1434 54.4386 71.6739L55.2713 72.1735L55.3084 70.8596Z" fill="white"/>
<path fill-rule="evenodd" clip-rule="evenodd" d="M56.5606 69.6814L56.0794 68.7746C55.8635 68.7067 55.6538 68.5895 55.4009 68.6389C55.1541 68.6821 54.9197 68.8363 54.7902 69.0522L55.4194 69.8356C55.5243 69.6444 55.7278 69.5087 55.9437 69.4902C56.172 69.4593 56.3632 69.595 56.5606 69.6814Z" fill="white"/>
<path fill-rule="evenodd" clip-rule="evenodd" d="M55.1356 80.7356L54.2843 80.7109V82.1236L55.1294 82.1482L55.1356 80.7356Z" fill="white"/>
<path fill-rule="evenodd" clip-rule="evenodd" d="M55.1418 78.2003L54.2967 78.1757L54.2905 79.5883L55.1356 79.613L55.1418 78.2003Z" fill="white"/>
<path fill-rule="evenodd" clip-rule="evenodd" d="M55.1664 75.6773L54.3213 75.6465C54.3028 76.1153 54.309 76.5903 54.3028 77.0591L55.1479 77.09C55.1479 76.6211 55.1479 76.1461 55.1664 75.6773Z" fill="white"/>
<path fill-rule="evenodd" clip-rule="evenodd" d="M55.1048 88.3416L54.2596 88.3292L54.2535 89.7419L55.0986 89.7542L55.1048 88.3416Z" fill="white"/>
<path fill-rule="evenodd" clip-rule="evenodd" d="M55.1171 85.8125L54.2658 85.7939V87.2066L55.1109 87.2189L55.1171 85.8125Z" fill="white"/>
<path fill-rule="evenodd" clip-rule="evenodd" d="M55.1233 83.2833L54.2782 83.2648L54.272 84.6774L55.1171 84.6959L55.1233 83.2833Z" fill="white"/>
<path fill-rule="evenodd" clip-rule="evenodd" d="M55.0739 95.9475H54.2288L54.2227 97.3663L55.0739 97.3601V95.9475Z" fill="white"/>
<path d="M54.2359 93.4153L54.2295 94.8279L55.0746 94.8317L55.081 93.4191L54.2359 93.4153Z" fill="white"/>
<path fill-rule="evenodd" clip-rule="evenodd" d="M55.0986 90.8954L54.2473 90.8831L54.2411 92.2957L55.0924 92.3018L55.0986 90.8954Z" fill="white"/>
<path fill-rule="evenodd" clip-rule="evenodd" d="M55.0492 103.554L54.2041 103.572L54.198 104.985L55.0431 104.966L55.0492 103.554Z" fill="white"/>
<path fill-rule="evenodd" clip-rule="evenodd" d="M55.0554 101.024L54.2103 101.031L54.2041 102.449L55.0554 102.437V101.024Z" fill="white"/>
<path fill-rule="evenodd" clip-rule="evenodd" d="M55.0677 98.5015H54.2226L54.2165 99.9203L55.0616 99.9141L55.0677 98.5015Z" fill="white"/>
<path d="M54.2097 111.172L54.2011 112.584L55.0462 112.59L55.0548 111.177L54.2097 111.172Z" fill="white"/>
<path fill-rule="evenodd" clip-rule="evenodd" d="M55.0678 108.637H54.2227L54.2165 110.049H55.0616L55.0678 108.637Z" fill="white"/>
<path fill-rule="evenodd" clip-rule="evenodd" d="M55.0554 106.107L54.2103 106.12L54.2227 107.526H55.0678L55.0554 106.107Z" fill="white"/>
<path fill-rule="evenodd" clip-rule="evenodd" d="M55.0554 118.778L54.2103 118.79L54.235 120.209L55.0801 120.19L55.0554 118.778Z" fill="white"/>
<path fill-rule="evenodd" clip-rule="evenodd" d="M55.0369 116.249H54.1918L54.198 117.667L55.0431 117.661L55.0369 116.249Z" fill="white"/>
<path fill-rule="evenodd" clip-rule="evenodd" d="M55.0431 113.726L54.198 113.719L54.1918 115.138H55.0369L55.0431 113.726Z" fill="white"/>
<path fill-rule="evenodd" clip-rule="evenodd" d="M55.3145 126.371L54.4694 126.421L54.5619 127.84L55.407 127.778L55.3145 126.371Z" fill="white"/>
<path fill-rule="evenodd" clip-rule="evenodd" d="M55.1911 123.848L54.346 123.879L54.4139 125.298L55.259 125.255L55.1911 123.848Z" fill="white"/>
<path fill-rule="evenodd" clip-rule="evenodd" d="M55.1048 121.325L54.2596 121.35L54.3028 122.763L55.1479 122.738L55.1048 121.325Z" fill="white"/>
<path fill-rule="evenodd" clip-rule="evenodd" d="M55.9622 133.94L55.1171 134.033L55.2775 135.439L56.1164 135.341L55.9622 133.94Z" fill="white"/>
<path fill-rule="evenodd" clip-rule="evenodd" d="M55.7031 131.424L54.8642 131.504L54.9999 132.916L55.845 132.83L55.7031 131.424Z" fill="white"/>
<path fill-rule="evenodd" clip-rule="evenodd" d="M55.4934 128.913L54.6483 128.975L54.7593 130.393L55.6044 130.319L55.4934 128.913Z" fill="white"/>
<path fill-rule="evenodd" clip-rule="evenodd" d="M56.9677 141.466L56.1349 141.602L56.3694 143.002L57.2021 142.86L56.9677 141.466Z" fill="white"/>
<path fill-rule="evenodd" clip-rule="evenodd" d="M56.5914 138.968L55.7525 139.085L55.9622 140.492L56.795 140.362L56.5914 138.968Z" fill="white"/>
<path fill-rule="evenodd" clip-rule="evenodd" d="M56.2583 136.47L55.4194 136.574L55.5983 137.981L56.4434 137.87L56.2583 136.47Z" fill="white"/>
<path fill-rule="evenodd" clip-rule="evenodd" d="M58.3927 148.924L57.5661 149.109C57.6648 149.572 57.782 150.028 57.8868 150.491L58.7134 150.294C58.6086 149.837 58.4914 149.381 58.3927 148.924Z" fill="white"/>
<path fill-rule="evenodd" clip-rule="evenodd" d="M57.8683 146.457L57.0356 146.623C57.1281 147.086 57.2206 147.549 57.3255 148.011L58.1521 147.832C58.0472 147.376 57.9609 146.913 57.8683 146.451V146.457Z" fill="white"/>
<path fill-rule="evenodd" clip-rule="evenodd" d="M57.3995 143.977L56.5606 144.131L56.8197 145.525L57.6524 145.365L57.3995 143.977Z" fill="white"/>
<path fill-rule="evenodd" clip-rule="evenodd" d="M60.3667 156.246L59.5586 156.499L60.0089 157.85L60.8108 157.585L60.3667 156.246Z" fill="white"/>
<path fill-rule="evenodd" clip-rule="evenodd" d="M59.6264 153.834L58.8121 154.063C58.9417 154.519 59.0651 154.976 59.2069 155.426L60.015 155.185C59.8731 154.735 59.7559 154.285 59.6264 153.834Z" fill="white"/>
<path fill-rule="evenodd" clip-rule="evenodd" d="M58.9787 151.404L58.1521 151.607L58.5099 152.983L59.3303 152.767L58.9787 151.404Z" fill="white"/>
<path fill-rule="evenodd" clip-rule="evenodd" d="M62.9883 163.359L62.2111 163.692C62.3838 164.13 62.6059 164.556 62.7971 164.987L63.5682 164.642C63.3769 164.216 63.161 163.797 62.9883 163.359Z" fill="white"/>
<path fill-rule="evenodd" clip-rule="evenodd" d="M62.0507 161.015L61.2611 161.323L61.7916 162.643L62.575 162.323L62.0507 161.015Z" fill="white"/>
<path fill-rule="evenodd" clip-rule="evenodd" d="M61.1686 158.658L60.3728 158.942C60.5209 159.392 60.6689 159.843 60.854 160.281L61.6497 159.985C61.4647 159.553 61.3166 159.109 61.1747 158.658H61.1686Z" fill="white"/>
<path fill-rule="evenodd" clip-rule="evenodd" d="M66.3256 170.163L65.5853 170.57L66.2577 171.822L66.9918 171.403L66.3256 170.163Z" fill="white"/>
<path fill-rule="evenodd" clip-rule="evenodd" d="M65.135 167.936L64.3763 168.318L65.0487 169.577L65.8012 169.176L65.135 167.936Z" fill="white"/>
<path fill-rule="evenodd" clip-rule="evenodd" d="M64.0493 165.666L63.2844 166.024L63.8828 167.313L64.6415 166.943L64.0493 165.666Z" fill="white"/>
<path fill-rule="evenodd" clip-rule="evenodd" d="M70.2674 176.64L69.5641 177.109L70.3599 178.287L71.0569 177.806L70.2674 176.64Z" fill="white"/>
<path fill-rule="evenodd" clip-rule="evenodd" d="M68.8794 174.524L68.1638 174.974C68.4044 175.388 68.6697 175.776 68.9349 176.171L69.6443 175.709C69.3791 175.32 69.12 174.931 68.8794 174.524Z" fill="white"/>
<path fill-rule="evenodd" clip-rule="evenodd" d="M67.5778 172.371L66.8499 172.803L67.584 174.018L68.3057 173.58L67.5778 172.371Z" fill="white"/>
<path fill-rule="evenodd" clip-rule="evenodd" d="M74.7335 182.766L74.0734 183.29L74.9617 184.4L75.6218 183.864L74.7335 182.766Z" fill="white"/>
<path fill-rule="evenodd" clip-rule="evenodd" d="M73.1975 180.767L72.5189 181.273L73.364 182.414L74.0364 181.896L73.1975 180.767Z" fill="white"/>
<path fill-rule="evenodd" clip-rule="evenodd" d="M71.6985 178.744L71.0076 179.231L71.8527 180.372L72.5374 179.872L71.6985 178.744Z" fill="white"/>
<path fill-rule="evenodd" clip-rule="evenodd" d="M79.6376 188.564L79.0084 189.131L79.9707 190.174L80.5937 189.6L79.6376 188.564Z" fill="white"/>
<path fill-rule="evenodd" clip-rule="evenodd" d="M77.972 186.664L77.3305 187.219L78.262 188.286L78.8912 187.725L77.972 186.664Z" fill="white"/>
<path fill-rule="evenodd" clip-rule="evenodd" d="M76.3312 184.746L75.6773 185.288C75.9672 185.665 76.2818 186.016 76.5903 186.374L77.238 185.825C76.9295 185.467 76.6149 185.122 76.3312 184.752V184.746Z" fill="white"/>
<path fill-rule="evenodd" clip-rule="evenodd" d="M84.8748 194.06L84.2764 194.659C84.6095 194.998 84.9488 195.319 85.2881 195.652L85.8803 195.047C85.5472 194.714 85.2017 194.393 84.8748 194.06Z" fill="white"/>
<path fill-rule="evenodd" clip-rule="evenodd" d="M83.1044 192.253L82.4999 192.845L83.4869 193.857L84.0914 193.265L83.1044 192.253Z" fill="white"/>
<path fill-rule="evenodd" clip-rule="evenodd" d="M81.3648 190.433L80.748 191.013C81.0687 191.358 81.3833 191.71 81.7164 192.049L82.3271 191.463C82.0002 191.124 81.6856 190.779 81.3648 190.433Z" fill="white"/>
<path fill-rule="evenodd" clip-rule="evenodd" d="M90.3526 199.328L89.7789 199.951L90.8152 200.914L91.3889 200.291L90.3526 199.328Z" fill="white"/>
<path fill-rule="evenodd" clip-rule="evenodd" d="M88.5081 197.595L87.9283 198.212L88.9585 199.18L89.5383 198.563L88.5081 197.595Z" fill="white"/>
<path fill-rule="evenodd" clip-rule="evenodd" d="M86.6945 195.849L86.1024 196.454L87.1202 197.441L87.7062 196.83L86.6945 195.849Z" fill="white"/>
<path d="M95.978 204.452L95.4146 205.082L96.4675 206.023L97.0309 205.394L95.978 204.452Z" fill="white"/>
<path d="M94.092 202.767L93.5258 203.394L94.5744 204.341L95.1406 203.713L94.092 202.767Z" fill="white"/>
<path fill-rule="evenodd" clip-rule="evenodd" d="M92.2279 201.056L91.6542 201.685L92.7028 202.635L93.2704 202.012L92.2279 201.056Z" fill="white"/>
<path fill-rule="evenodd" clip-rule="evenodd" d="M101.678 209.482L101.129 210.124L102.209 211.043L102.758 210.395L101.678 209.482Z" fill="white"/>
<path fill-rule="evenodd" clip-rule="evenodd" d="M99.7722 207.823L99.2108 208.458L100.278 209.389L100.833 208.754L99.7722 207.823Z" fill="white"/>
<path d="M97.8811 206.159L97.3196 206.79L98.3753 207.729L98.9368 207.097L97.8811 206.159Z" fill="white"/>
<path fill-rule="evenodd" clip-rule="evenodd" d="M107.557 214.294L107.033 214.96L108.149 215.836L108.667 215.163L107.557 214.294Z" fill="white"/>
<path fill-rule="evenodd" clip-rule="evenodd" d="M105.577 212.721L105.046 213.381L106.151 214.263L106.681 213.603L105.577 212.721Z" fill="white"/>
<path fill-rule="evenodd" clip-rule="evenodd" d="M103.628 211.123L103.085 211.777L104.183 212.677L104.719 212.017L103.628 211.123Z" fill="white"/>
<path fill-rule="evenodd" clip-rule="evenodd" d="M113.615 218.889L113.115 219.574L114.262 220.407L114.756 219.722L113.615 218.889Z" fill="white"/>
<path fill-rule="evenodd" clip-rule="evenodd" d="M111.579 217.384L111.073 218.063L112.208 218.908L112.714 218.223L111.579 217.384Z" fill="white"/>
<path fill-rule="evenodd" clip-rule="evenodd" d="M109.574 215.86L109.056 216.533L110.185 217.39L110.691 216.712L109.574 215.86Z" fill="white"/>
<path fill-rule="evenodd" clip-rule="evenodd" d="M119.814 223.288L119.339 223.985L120.511 224.78L120.986 224.077L119.814 223.288Z" fill="white"/>
<path fill-rule="evenodd" clip-rule="evenodd" d="M117.735 221.844L117.248 222.535L118.414 223.343L118.895 222.646L117.735 221.844Z" fill="white"/>
<path fill-rule="evenodd" clip-rule="evenodd" d="M115.675 220.388L115.188 221.073L116.341 221.893L116.829 221.203L115.675 220.388Z" fill="white"/>
<path fill-rule="evenodd" clip-rule="evenodd" d="M126.156 227.482L125.699 228.198C126.131 228.475 126.587 228.753 127.031 229.018L127.266 228.192L126.156 227.488V227.482Z" fill="white"/>
<path fill-rule="evenodd" clip-rule="evenodd" d="M124.027 226.107L123.565 226.816L124.755 227.587L125.212 226.872L124.027 226.107Z" fill="white"/>
<path fill-rule="evenodd" clip-rule="evenodd" d="M121.924 224.713L121.455 225.416L122.633 226.199L123.102 225.496L121.924 224.713Z" fill="white"/>
<path fill-rule="evenodd" clip-rule="evenodd" d="M132.152 226.323L132.639 227.013L133.792 226.193L133.299 225.508L132.152 226.323Z" fill="white"/>
<path fill-rule="evenodd" clip-rule="evenodd" d="M130.11 227.754L130.498 228.519L131.72 227.661L131.232 226.97L130.11 227.754Z" fill="white"/>
<path fill-rule="evenodd" clip-rule="evenodd" d="M128.167 228.753L128.13 229.648L128.296 229.74C128.352 229.759 128.407 229.833 128.469 229.802L128.796 229.623C129.018 229.487 129.24 229.37 129.456 229.228L129.258 228.346L128.716 228.716L128.444 228.901C128.345 228.907 128.259 228.802 128.16 228.759L128.167 228.753Z" fill="white"/>
<path fill-rule="evenodd" clip-rule="evenodd" d="M138.302 221.85L138.808 222.535L139.936 221.684L139.431 221.005L138.302 221.85Z" fill="white"/>
<path fill-rule="evenodd" clip-rule="evenodd" d="M136.266 223.355L136.766 224.04L137.907 223.201L137.401 222.523L136.266 223.355Z" fill="white"/>
<path fill-rule="evenodd" clip-rule="evenodd" d="M134.224 224.842L134.718 225.527L135.865 224.7L135.365 224.015L134.224 224.842Z" fill="white"/>
<path fill-rule="evenodd" clip-rule="evenodd" d="M144.347 217.242L144.865 217.908L145.982 217.032L145.457 216.372L144.347 217.242Z" fill="white"/>
<path d="M143.468 217.911L142.348 218.772L142.863 219.442L143.983 218.581L143.468 217.911Z" fill="white"/>
<path d="M141.462 219.476L140.336 220.329L140.846 221.003L141.972 220.15L141.462 219.476Z" fill="white"/>
<path fill-rule="evenodd" clip-rule="evenodd" d="M150.287 212.492L150.824 213.152L151.916 212.246L151.373 211.598L150.287 212.492Z" fill="white"/>
<path fill-rule="evenodd" clip-rule="evenodd" d="M148.32 214.09L148.85 214.75L149.954 213.856L149.418 213.202L148.32 214.09Z" fill="white"/>
<path d="M147.457 214.783L146.35 215.661L146.875 216.323L147.982 215.445L147.457 214.783Z" fill="white"/>
<path d="M157.184 206.663L156.113 207.585L156.665 208.226L157.735 207.304L157.184 206.663Z" fill="white"/>
<path fill-rule="evenodd" clip-rule="evenodd" d="M154.186 209.248L154.729 209.895L155.808 208.976L155.259 208.335L154.186 209.248Z" fill="white"/>
<path d="M153.341 209.95L152.255 210.853L152.796 211.503L153.882 210.599L153.341 209.95Z" fill="white"/>
<path fill-rule="evenodd" clip-rule="evenodd" d="M161.804 202.567L162.372 203.19L163.414 202.234L162.841 201.611L161.804 202.567Z" fill="white"/>
<path fill-rule="evenodd" clip-rule="evenodd" d="M159.923 204.257L160.484 204.886L161.539 203.943L160.972 203.313L159.923 204.257Z" fill="white"/>
<path fill-rule="evenodd" clip-rule="evenodd" d="M158.035 205.929L158.59 206.57L159.658 205.633L159.096 204.997L158.035 205.929Z" fill="white"/>
<path fill-rule="evenodd" clip-rule="evenodd" d="M167.344 197.361L167.93 197.965L168.941 196.972L168.343 196.367L167.344 197.361Z" fill="white"/>
<path fill-rule="evenodd" clip-rule="evenodd" d="M165.512 199.106L166.098 199.723L167.122 198.742L166.536 198.132L165.512 199.106Z" fill="white"/>
<path fill-rule="evenodd" clip-rule="evenodd" d="M163.673 200.834L164.253 201.457L165.29 200.494L164.71 199.877L163.673 200.834Z" fill="white"/>
<path fill-rule="evenodd" clip-rule="evenodd" d="M172.692 191.957L173.303 192.543C173.636 192.204 173.957 191.858 174.277 191.513L173.661 190.933C173.34 191.278 173.025 191.624 172.692 191.957Z" fill="white"/>
<path fill-rule="evenodd" clip-rule="evenodd" d="M170.928 193.777L171.532 194.369L172.519 193.351L171.909 192.765L170.928 193.777Z" fill="white"/>
<path fill-rule="evenodd" clip-rule="evenodd" d="M169.151 195.566L169.75 196.164L170.755 195.171L170.157 194.572L169.151 195.566Z" fill="white"/>
<path fill-rule="evenodd" clip-rule="evenodd" d="M177.806 186.343L178.447 186.898C178.762 186.541 179.077 186.189 179.373 185.825L178.725 185.276C178.429 185.64 178.114 185.992 177.806 186.343Z" fill="white"/>
<path fill-rule="evenodd" clip-rule="evenodd" d="M176.134 188.237L176.763 188.805L177.701 187.744L177.066 187.182L176.134 188.237Z" fill="white"/>
<path fill-rule="evenodd" clip-rule="evenodd" d="M174.432 190.1L175.048 190.674L176.017 189.631L175.388 189.064L174.432 190.1Z" fill="white"/>
<path fill-rule="evenodd" clip-rule="evenodd" d="M182.617 180.471L183.29 180.989C183.58 180.613 183.882 180.249 184.153 179.86L183.475 179.354C183.203 179.737 182.901 180.101 182.617 180.471Z" fill="white"/>
<path fill-rule="evenodd" clip-rule="evenodd" d="M181.057 182.457L181.717 182.994L182.593 181.871L181.927 181.353L181.057 182.457Z" fill="white"/>
<path fill-rule="evenodd" clip-rule="evenodd" d="M179.453 184.4L180.101 184.943L181.007 183.857L180.354 183.321L179.453 184.4Z" fill="white"/>
<path fill-rule="evenodd" clip-rule="evenodd" d="M187.016 174.29L187.725 174.752C187.984 174.358 188.262 173.969 188.496 173.556L187.781 173.105C187.546 173.512 187.275 173.895 187.016 174.29Z" fill="white"/>
<path fill-rule="evenodd" clip-rule="evenodd" d="M185.615 176.393L186.312 176.874L187.102 175.69L186.399 175.221L185.615 176.393Z" fill="white"/>
<path fill-rule="evenodd" clip-rule="evenodd" d="M184.141 178.435L184.826 178.935L185.659 177.781L184.968 177.294L184.141 178.435Z" fill="white"/>
<path fill-rule="evenodd" clip-rule="evenodd" d="M190.846 167.751L191.599 168.133C191.833 167.72 192.012 167.276 192.222 166.85L191.457 166.486C191.254 166.906 191.081 167.344 190.846 167.751Z" fill="white"/>
<path fill-rule="evenodd" clip-rule="evenodd" d="M189.65 169.972L190.384 170.391L191.062 169.133L190.316 168.738L189.65 169.972Z" fill="white"/>
<path fill-rule="evenodd" clip-rule="evenodd" d="M188.373 172.137L189.095 172.581L189.829 171.36L189.101 170.934L188.373 172.137Z" fill="white"/>
<path fill-rule="evenodd" clip-rule="evenodd" d="M193.777 160.786L194.578 161.052L194.992 159.682L194.178 159.448L193.777 160.786Z" fill="white"/>
<path fill-rule="evenodd" clip-rule="evenodd" d="M192.913 163.149L193.703 163.464L194.215 162.125L193.419 161.841L192.913 163.149Z" fill="white"/>
<path fill-rule="evenodd" clip-rule="evenodd" d="M191.932 165.462L192.703 165.814C192.901 165.382 193.117 164.957 193.289 164.512L192.506 164.185C192.333 164.623 192.117 165.037 191.926 165.462H191.932Z" fill="white"/>
<path fill-rule="evenodd" clip-rule="evenodd" d="M195.732 153.458L196.559 153.662L196.886 152.28L196.059 152.089L195.732 153.458Z" fill="white"/>
<path fill-rule="evenodd" clip-rule="evenodd" d="M195.128 155.919L195.948 156.123L196.293 154.753L195.467 154.55L195.128 155.919Z" fill="white"/>
<path d="M194.852 156.989L194.502 158.358L195.321 158.567L195.671 157.199L194.852 156.989Z" fill="white"/>
<path fill-rule="evenodd" clip-rule="evenodd" d="M197.367 146.037L198.2 146.204C198.292 145.741 198.385 145.278 198.471 144.81L197.638 144.655C197.558 145.118 197.465 145.581 197.373 146.037H197.367Z" fill="white"/>
<path fill-rule="evenodd" clip-rule="evenodd" d="M196.861 148.517L197.688 148.696L197.977 147.308L197.145 147.135L196.861 148.517Z" fill="white"/>
<path fill-rule="evenodd" clip-rule="evenodd" d="M196.318 150.978L197.145 151.17L197.453 149.788L196.627 149.603L196.318 150.978Z" fill="white"/>
<path fill-rule="evenodd" clip-rule="evenodd" d="M198.668 138.555L199.507 138.684L199.711 137.278L198.872 137.161L198.668 138.555Z" fill="white"/>
<path fill-rule="evenodd" clip-rule="evenodd" d="M198.267 141.053L199.106 141.189L199.335 139.795L198.502 139.659L198.267 141.053Z" fill="white"/>
<path fill-rule="evenodd" clip-rule="evenodd" d="M197.842 143.539L198.674 143.687L198.921 142.293L198.088 142.151L197.842 143.539Z" fill="white"/>
<path fill-rule="evenodd" clip-rule="evenodd" d="M199.655 131.023L200.494 131.115L200.648 129.703L199.81 129.616L199.655 131.023Z" fill="white"/>
<path fill-rule="evenodd" clip-rule="evenodd" d="M199.359 133.533L200.198 133.638L200.377 132.232L199.532 132.133L199.359 133.533Z" fill="white"/>
<path fill-rule="evenodd" clip-rule="evenodd" d="M199.038 136.032L199.877 136.149L200.056 134.742L199.217 134.637L199.038 136.032Z" fill="white"/>
<path fill-rule="evenodd" clip-rule="evenodd" d="M200.359 123.454L201.204 123.515L201.302 122.103L200.457 122.047L200.359 123.454Z" fill="white"/>
<path fill-rule="evenodd" clip-rule="evenodd" d="M200.155 125.977L200.994 126.045L201.123 124.638L200.278 124.57L200.155 125.977Z" fill="white"/>
<path fill-rule="evenodd" clip-rule="evenodd" d="M199.927 128.487L200.772 128.568L200.895 127.161L200.056 127.081L199.927 128.487Z" fill="white"/>
<path fill-rule="evenodd" clip-rule="evenodd" d="M200.815 115.866L201.66 115.903C201.685 115.434 201.703 114.959 201.716 114.491L200.871 114.46C200.858 114.929 200.84 115.397 200.815 115.872V115.866Z" fill="white"/>
<path fill-rule="evenodd" clip-rule="evenodd" d="M200.685 118.389L201.531 118.438L201.605 117.026L200.76 116.983L200.685 118.389Z" fill="white"/>
<path fill-rule="evenodd" clip-rule="evenodd" d="M200.537 120.912L201.383 120.968C201.413 120.499 201.457 120.024 201.475 119.555L200.63 119.506C200.611 119.975 200.568 120.443 200.537 120.912Z" fill="white"/>
<path fill-rule="evenodd" clip-rule="evenodd" d="M201.031 108.266L201.882 108.279L201.901 106.86L201.056 106.854L201.031 108.266Z" fill="white"/>
<path fill-rule="evenodd" clip-rule="evenodd" d="M200.988 110.796L201.833 110.814C201.851 110.345 201.858 109.87 201.864 109.401L201.019 109.383C201.012 109.852 201.006 110.327 200.988 110.796Z" fill="white"/>
<path fill-rule="evenodd" clip-rule="evenodd" d="M200.908 113.319L201.753 113.343L201.802 111.931L200.951 111.906L200.908 113.319Z" fill="white"/>
<path d="M201.118 99.2411L201.109 100.654L201.954 100.659L201.963 99.2464L201.118 99.2411Z" fill="white"/>
<path d="M201.093 101.78L201.084 103.193L201.929 103.198L201.938 101.785L201.093 101.78Z" fill="white"/>
<path fill-rule="evenodd" clip-rule="evenodd" d="M201.068 105.713L201.913 105.719L201.932 104.306L201.08 104.3L201.068 105.713Z" fill="white"/>
<path d="M201.18 91.6367L201.171 93.0493L202.016 93.0546L202.025 91.642L201.18 91.6367Z" fill="white"/>
<path d="M201.161 94.1694L201.153 95.582L201.998 95.5873L202.007 94.1747L201.161 94.1694Z" fill="white"/>
<path d="M201.137 96.6898L201.128 98.1024L201.973 98.1077L201.982 96.6951L201.137 96.6898Z" fill="white"/>
<path d="M201.213 84.0207L201.205 85.4333L202.05 85.4385L202.058 84.0259L201.213 84.0207Z" fill="white"/>
<path d="M201.188 86.5531L201.18 87.9657L202.025 87.9709L202.034 86.5583L201.188 86.5531Z" fill="white"/>
<path d="M201.164 89.0791L201.155 90.4917L202 90.4969L202.009 89.0843L201.164 89.0791Z" fill="white"/>
<path d="M201.265 76.4075L201.257 77.8201L202.102 77.8251L202.11 76.4125L201.265 76.4075Z" fill="white"/>
<path d="M201.228 78.9393L201.219 80.3519L202.064 80.3569L202.073 78.9444L201.228 78.9393Z" fill="white"/>
<path d="M201.232 81.4698L201.223 82.8824L202.068 82.8876L202.077 81.475L201.232 81.4698Z" fill="white"/>
<path fill-rule="evenodd" clip-rule="evenodd" d="M201.29 70.4648L201.969 69.9096L201.821 68.5402L201.296 69.1509L201.29 70.4648Z" fill="white"/>
<path fill-rule="evenodd" clip-rule="evenodd" d="M201.278 72.8274L202.123 72.6053V71.8158C202.129 71.5505 202.135 71.2852 202.098 71.057L201.284 71.5135V72.8336L201.278 72.8274Z" fill="white"/>
<path fill-rule="evenodd" clip-rule="evenodd" d="M201.259 75.2702L202.11 75.2763L202.117 73.8452L201.272 73.8637L201.259 75.2702Z" fill="white"/>
<path d="M25.9269 133.151C29.7639 132.287 35.3033 131.128 42.0148 130.03C54.5126 127.988 65.7519 127.025 93.5603 126.254C114.133 125.687 125.73 125.366 142.811 125.6C153.366 125.742 166.696 126.075 193.376 127.901C199.162 128.296 208.834 128.771 221.283 131.35C225.052 132.127 228.136 132.898 230.209 133.447L229.832 89.5383C219.093 87.7371 204.714 85.6582 187.651 84.1716C167.455 82.4074 152.601 82.2655 134.218 82.1236C113.683 81.9694 93.1532 81.8645 66.2146 84.1716C49.6208 85.5904 36.2225 87.9283 26.2539 89.4767L25.9331 133.157L25.9269 133.151Z" fill="white"/>
<path d="M230.517 133.842L230.129 133.737C227.198 132.966 224.2 132.263 221.221 131.646C209.834 129.289 200.84 128.697 194.887 128.308L193.351 128.204C166.203 126.347 153.026 126.045 142.805 125.909C125.736 125.674 114.312 125.989 93.5788 126.563C64.4565 127.371 53.7662 128.42 42.0642 130.332C36.6789 131.214 31.2752 132.263 25.9948 133.447L25.6185 133.533L25.9454 89.2793C25.9454 89.2793 29.1532 88.6994 30.7323 88.4465C40.1951 86.9413 51.9772 85.0661 66.1837 83.8508C93.6837 81.5006 115.219 81.661 134.218 81.8028C151.836 81.9386 167.054 82.0496 187.676 83.8508C201.79 85.0846 215.99 86.892 229.882 89.2238L230.135 89.2669V89.526L230.517 133.836V133.842ZM131.936 125.218C135.39 125.218 138.956 125.243 142.817 125.298C153.045 125.44 166.233 125.742 193.394 127.599L194.924 127.704C200.895 128.099 209.914 128.691 221.344 131.054C224.207 131.646 227.081 132.318 229.894 133.052L229.524 89.8098C215.725 87.5027 201.629 85.7076 187.62 84.4862C167.029 82.6911 151.817 82.5739 134.212 82.4444C115.231 82.3025 93.7083 82.136 66.2331 84.4862C52.0451 85.7014 40.2814 87.5706 30.8249 89.0757C29.3382 89.3101 27.9132 89.6864 26.5561 89.9023L26.2415 132.781C31.4109 131.627 36.7036 130.603 41.9717 129.746C53.7045 127.827 64.4133 126.772 93.5603 125.964C109.624 125.52 120.104 125.23 131.942 125.23L131.936 125.218Z" fill="#97191A"/>
<path d="M60.2248 123.361L53.5379 108.84L52.6373 124.095L48.9361 124.453L50.7127 94.0661L59.2008 112.455L63.9938 92.7769L71.5443 122.263L67.8431 122.621L64.0617 107.822L60.2186 123.361H60.2248Z" fill="#C4181A"/>
<path d="M85.5533 91.1236C93.6035 90.7288 100.451 97.1381 100.852 105.447C101.259 113.75 95.0654 120.801 87.0215 121.19C78.9714 121.585 72.1241 115.175 71.7232 106.866C71.316 98.5631 77.5094 91.5123 85.5533 91.1236ZM86.8364 117.433C92.8817 117.137 97.5144 111.863 97.2121 105.626C96.9099 99.3896 91.7837 94.5904 85.7384 94.8865C79.6931 95.1826 75.0604 100.457 75.3627 106.693C75.665 112.93 80.7911 117.729 86.8364 117.433Z" fill="#C4181A"/>
<path d="M114.984 104.855L107.563 98.563L107.995 120.505L104.349 120.579L103.757 90.4635L114.885 99.9201L114.694 90.2476L118.34 90.1736L118.932 120.289L115.286 120.363L114.978 104.855H114.984Z" fill="#C4181A"/>
<path d="M122.565 116.502H126.47C129.098 116.489 129.962 112.985 128.685 110.469L123.491 102.721C121.881 100.58 121.147 98.3594 121.726 95.8365C122.448 92.4869 125.323 90.1428 128.568 90.1366H132.139L132.145 93.8933L129.086 93.9365C127.334 93.9797 125.662 94.9235 125.261 96.8049C125.082 97.7858 125.23 98.7234 125.631 99.513L132.071 109.364C134.995 113.917 131.763 120.246 126.661 120.252H122.578L122.572 116.495L122.565 116.502Z" fill="#C4181A"/>
<path d="M133.391 101.401L137.037 101.456L137.216 90.1613L151.799 90.3957L151.737 94.1586L140.8 93.9859L140.677 101.512L147.968 101.629L147.906 105.392L140.615 105.275L140.436 116.569L151.373 116.742L151.311 120.505L136.729 120.271L136.969 105.213L135.149 105.182L133.385 101.388L133.391 101.401ZM139.437 88.9276L141.954 84.1469L146.074 84.2147L143.557 88.9954L139.437 88.9276Z" fill="#C4181A"/>
<path d="M165.135 117.433L165.709 102.425L169.355 102.566L168.645 121.153C167.8 121.27 166.961 121.313 166.085 121.282C158.035 120.974 151.768 113.991 152.089 105.675C152.409 97.3601 159.189 90.8768 167.239 91.1852C168.115 91.2161 168.948 91.3271 169.78 91.506L169.632 95.3429C168.8 95.1209 167.967 94.979 167.091 94.942C161.046 94.7076 155.969 99.5685 155.728 105.811C155.506 111.678 159.621 116.662 165.135 117.439V117.433Z" fill="#C4181A"/>
<path d="M174.308 91.2778L177.948 91.4937L176.591 114.04C176.467 116.107 178.003 117.896 180.002 118.013C182.007 118.13 183.746 116.539 183.87 114.472L185.227 91.9256L188.866 92.1415L187.509 114.688C187.262 118.821 183.783 122.004 179.78 121.763C175.776 121.523 172.704 117.945 172.951 113.812L174.308 91.2655V91.2778Z" fill="#C4181A"/>
<path d="M189.977 103.64L193.61 103.973L194.646 92.7274L201.907 93.4306C205.861 93.8316 208.779 97.502 208.403 101.592C208.039 105.564 204.726 108.513 200.926 108.427L206.589 124.07L202.561 123.7L196.898 108.094L195.522 123.053L191.889 122.72L193.271 107.723L191.457 107.557L189.989 103.64H189.977ZM204.769 101.259C204.96 99.1984 203.486 97.3231 201.487 97.138L197.928 96.8111L197.237 104.306L200.871 104.639C202.832 104.818 204.578 103.319 204.769 101.259Z" fill="#C4181A"/>
</svg>
