<svg width="256" height="256" viewBox="0 0 256 256" fill="none" xmlns="http://www.w3.org/2000/svg">
<g clip-path="url(#clip0_876_30858)">
<path d="M128 256.001C198.693 256.001 256.001 198.693 256.001 128C256.001 57.3077 198.693 0 128 0C57.3077 0 0 57.3077 0 128C0 198.693 57.3077 256.001 128 256.001Z" fill="white"/>
<path d="M65.2289 58.7098C66.0036 59.6487 66.8546 60.4258 67.3803 61.3814C68.0473 62.5934 67.0056 63.6916 66.5623 64.6617C64.6509 68.8466 62.8177 73.0621 62.1074 77.6192C61.0531 84.3836 61.5691 90.8251 67.0735 95.9608C67.9925 93.0661 67.8452 89.876 69.4282 87.0943C70.4121 87.377 70.5228 87.9917 70.3929 88.8656C70.0747 91.0139 69.9767 93.1473 71.0563 95.1723C71.5068 96.0173 72.282 96.5334 72.9189 97.2888C72.842 102.639 74.422 107.884 74.3011 113.321C74.2313 116.471 73.696 119.451 72.6182 122.337C71.5777 125.125 71.5831 127.906 72.4462 130.636C73.3075 133.362 73.6605 136.138 73.8103 138.945C73.9895 142.309 74.7491 145.478 76.1066 148.568C77.4568 151.641 78.1593 154.904 77.9885 158.296C77.84 161.241 78.0174 164.19 78.712 167.024C79.4981 170.229 80.8797 173.231 82.5511 176.13C84.6892 179.839 86.9416 183.406 90.2062 186.163C90.3241 188.579 90.6904 190.839 91.4223 193.051C91.7441 194.024 92.3347 194.822 92.9602 195.491C95.0683 197.743 95.704 200.57 96.427 203.395C97.4524 207.405 98.4105 211.425 101.768 214.34C102.894 215.318 103.178 216.907 103.976 218.626C95.0322 216.591 87.0859 212.977 79.5438 208.52C59.7095 196.799 46.1205 179.581 38.778 158.112C23.9422 114.734 44.7317 75.22 65.2289 58.7116V58.7098Z" fill="#EBC05C"/>
<path d="M187.283 71.126C188.555 70.3327 188.666 69.2207 188.718 67.9805C188.909 63.5003 186.468 60.1599 184.06 56.7774C182.729 54.9075 181.547 52.9318 179.779 51.3999C179.451 51.1154 178.992 50.7148 179.14 49.8746C181.404 50.8147 183.308 52.1679 185.122 53.6661C207.98 72.5538 220.746 96.4919 221.478 126.415C222.688 175.842 185.798 209.688 154.94 217.642C155.33 216.403 155.697 215.257 156.049 214.106C156.185 213.665 156.402 213.209 156.384 212.768C156.289 210.464 157.636 209.021 159.192 207.584C162.927 204.134 166.574 200.575 169.036 196.048C170.886 192.648 172.639 189.248 173.327 185.307C173.968 181.631 176.001 178.375 177.675 175.053C179.212 172.001 180.267 168.851 180.575 165.436C180.741 163.6 181.125 161.785 181.334 159.951C181.524 158.288 182.354 156.96 183.41 155.762C185.681 153.188 187.128 150.215 188.139 146.949C188.675 145.215 189.443 143.546 190.034 141.814C191.102 138.689 191.993 135.536 191.758 132.224C191.541 129.166 192.402 126.311 193.265 123.506C194.422 119.744 192.747 116.015 189.317 114.417C188.152 113.874 186.866 114.388 185.724 113.987C185.38 113.468 185.433 112.917 185.555 112.446C186.379 109.279 186.708 106.024 187.268 102.812C187.513 101.407 187.481 99.9454 187.199 98.5127C186.972 97.3616 187.083 96.3439 187.991 95.3966C188.848 94.5011 189.246 93.3078 189.305 92.0244C189.533 87.0252 189.203 82.0398 188.54 77.1032C188.273 75.116 188.161 73.0506 187.283 71.1272L187.283 71.126Z" fill="#EBC05C"/>
<path d="M124.989 179.587C125.378 179.545 125.766 179.502 126.154 179.46L126.141 179.423C126.373 179.798 126.642 179.63 126.909 179.472C127.75 178.599 129.095 179.566 129.925 178.649C131.513 178.657 132.693 180.131 134.322 179.773C134.851 180.417 135.314 180.982 135.775 181.545C135.737 181.58 135.699 181.651 135.665 181.648C133.083 181.472 131.153 183.137 128.915 183.945C125.457 185.195 121.886 185.29 118.52 183.376C117.896 183.022 117.227 183.152 116.572 183.083C115.536 182.973 114.435 183.454 113.465 182.754C115.773 182.092 117.719 180.701 119.8 179.592C120.366 179.29 120.826 179.223 121.371 179.483C122.573 179.631 123.772 179.917 124.989 179.587H124.989Z" fill="#8B9AA4"/>
<path fill-rule="evenodd" clip-rule="evenodd" d="M140.765 34.4759C140.765 34.5174 140.91 34.7857 141.054 35.0329C141.632 35.8995 142.003 37.9011 142.003 40.171C142.003 41.4088 141.921 42.4408 141.797 42.5028C141.693 42.5647 141.59 42.5443 141.59 42.4204C141.59 41.7805 136.824 39.16 134.554 38.5826C133.11 38.1904 130.778 38.0876 129.581 38.3348C128.653 38.5206 128.591 38.7474 129.375 39.0776C129.685 39.2015 130.304 39.6345 130.758 40.0266C131.459 40.6251 131.521 40.7279 131.15 40.749C130.49 40.749 127.869 39.6345 127.044 38.9952C126.115 38.2939 126.033 37.4681 126.734 35.8382L127.126 34.9715H126.012C124.423 34.9715 120.317 35.5285 118.274 36.0445C114.725 36.9112 111.486 38.6445 108.886 41.0172L107.462 42.338L106.307 41.8635C104.677 41.2031 102.325 40.9144 100.488 41.1622C98.0737 41.4719 95.3708 42.3999 96.8768 42.3999C97.5781 42.3999 99.7451 43.2047 99.6008 43.4314C99.3945 43.7616 96.6296 44.1123 94.133 44.1327C91.1619 44.1531 90.9556 44.0912 86.8081 41.677C84.5587 40.3773 83.4033 39.9027 83.4033 40.2738C83.4033 40.666 85.8175 42.8739 87.9839 44.5038C90.0059 46.0098 90.4396 46.5258 89.7172 46.5258C89.5729 46.5258 88.6238 46.9384 87.6128 47.434C85.7146 48.3422 85.1162 48.8991 84.0228 50.6734C83.1561 52.097 82.5781 52.3033 79.5661 52.159C76.6359 52.0146 76.3472 52.1794 77.5025 53.2319C78.596 54.2225 78.4931 54.6766 77.0899 55.3364C76.0374 55.8109 75.7487 55.8524 74.0364 55.7694C72.1587 55.6455 71.4779 55.4597 68.8983 54.2839L67.7014 53.7474L67.8253 54.2015C68.5062 56.4508 70.776 59.4629 73.3965 61.6088L74.9236 62.8676L73.8091 63.8991C71.5807 65.9212 68.2379 71.7606 67.619 74.6908C67.041 77.4147 66.8143 80.757 67.103 82.7177C67.2473 83.6872 67.4127 84.4919 67.4951 84.4919C67.7014 84.4919 68.0521 83.7906 68.4442 82.6347C68.8772 81.3758 70.2185 79.1679 71.0027 78.4252C71.849 77.6 72.3644 77.8063 72.1377 78.8793C71.6631 81.0457 72.0962 82.0982 73.6647 82.5312C74.9236 82.8819 75.0264 83.3564 74.5314 86.5753C74.0569 89.8147 74.0364 90.104 74.3456 91.8987C74.5519 93.0336 74.6343 93.178 74.7786 92.8273C75.1707 91.9811 76.8422 91.5276 77.2343 92.1465C77.544 92.6415 77.4406 94.6022 76.9865 97.0777C76.4915 99.7602 76.5535 101.143 77.2132 102.938C77.6463 104.093 78.4306 105.248 78.451 104.753C78.4925 102.649 79.6274 95.7365 80.5146 92.0839C81.546 87.7716 82.3718 85.6876 85.4253 79.6419C87.9839 74.5453 87.7361 74.8755 89.8201 74.0912C93.4516 72.7295 97.3105 69.9647 99.807 66.952C101.973 64.3316 101.953 64.3316 101.973 64.7027C101.973 65.4869 101.313 68.4376 100.921 69.3247C100.694 69.8612 100.529 70.3358 100.591 70.3773C100.632 70.4188 101.375 69.9442 102.242 69.3247L103.831 68.1694L105.007 68.3757C107.235 68.7882 112.621 68.52 116.727 67.7772C119.038 67.3442 122.897 66.2917 125.167 65.4454L127.416 64.5992L127.829 65.1152C128.035 65.3835 128.448 66.0643 128.737 66.6212C129.191 67.5084 129.274 67.5908 129.459 67.2612C129.954 66.3741 129.892 63.9394 129.295 61.0092C129.13 60.2045 129.563 60.5142 129.935 61.5042C130.574 63.1756 131.338 64.3514 132.597 65.6307C134.35 67.3845 135.465 67.7766 138.663 67.7766C139.983 67.7766 141.82 67.6732 142.728 67.5499C144.317 67.3231 144.482 67.3436 146.648 67.942C150.61 69.0565 153.106 69.3037 154.448 68.7263C154.819 68.582 155.541 67.9835 156.099 67.4055C156.883 66.5593 157.233 66.3326 157.976 66.2291C160.205 65.8785 165.053 67.859 167.468 70.0874C170.666 72.9965 173.534 78.8775 174.69 84.8408C175.639 89.7106 177.888 104.546 178.528 110.118C179.208 116.246 179.291 118.392 178.837 121.116C178.507 123.117 178.549 123.716 179.374 129.885C179.745 132.547 179.786 133.723 179.704 136.901C179.56 141.213 178.507 154.357 177.991 157.948C177.124 164.056 175.288 168.636 171.141 174.971C168.974 178.293 167.117 180.171 164.744 181.471C162.392 182.75 161.979 183.101 163.981 182.111C167.282 180.501 168.912 178.954 171.76 174.724C175.66 168.905 177.517 164.469 178.528 158.527C178.92 156.133 178.941 156.112 179.828 155.266C180.859 154.337 181.706 152.625 182.077 150.788C182.242 149.942 182.51 149.365 182.985 148.828C183.749 147.962 184.141 147.281 184.512 146.084C184.657 145.63 185.379 143.69 186.101 141.751C186.844 139.831 187.669 137.356 187.959 136.283C188.433 134.487 188.454 134.075 188.351 131.434L188.227 128.545L189.156 125.821C190.208 122.726 190.311 121.571 189.651 120.725C189.156 120.085 188.598 119.838 187.134 119.548C185.173 119.177 181.15 120.126 179.871 121.24L179.148 121.88V121.158C179.148 120.745 179.437 119.59 179.767 118.558C180.118 117.547 180.572 115.813 180.799 114.699C181.294 112.347 182.326 105.228 182.676 101.906C182.924 99.5124 182.841 92.9097 182.573 92.2698C182.305 91.6713 183.027 91.8367 183.852 92.5585L184.595 93.2189L184.781 92.7239C184.884 92.4556 184.925 90.2477 184.863 87.7926C184.781 84.1816 184.657 82.8404 184.223 80.5705C183.13 74.7311 181.128 69.1804 179.127 66.3332C178.652 65.6523 178.301 65.0334 178.363 64.9715C178.59 64.7447 180.303 65.3432 181.479 66.0649C182.139 66.4571 182.717 66.7457 182.779 66.7048C182.943 66.5401 180.695 62.3306 179.704 60.9274C177.393 57.688 173.493 53.8502 169.614 50.9819C168.355 50.0737 167.84 49.5373 167.2 48.4234C166.045 46.4422 164.476 45.0601 161.917 43.8013C160.824 43.2444 159.545 42.9142 159.545 43.1824C159.545 43.2648 159.731 43.4922 159.957 43.6774C160.35 44.028 161.608 46.3183 161.608 46.69C161.608 46.7935 161.196 46.7724 160.68 46.6485C159.999 46.4627 159.627 46.2155 159.174 45.596C158.287 44.3582 155.707 42.0264 153.891 40.7676C151.89 39.406 150.156 38.6632 147.515 38.0647C145.782 37.6726 145.307 37.4663 144.42 36.7235C142.605 35.2789 140.768 34.1235 140.768 34.4741L140.765 34.4759ZM188.389 120.478C189.812 121.221 189.854 122.191 188.637 125.554C188.017 127.232 187.742 129.605 187.811 132.673C187.853 134.984 187.481 136.552 185.913 140.617C185.459 141.814 184.716 143.836 184.242 145.115C183.643 146.786 183.189 147.694 182.632 148.334C182.034 148.994 181.766 149.551 181.518 150.624C181.353 151.387 181.002 152.46 180.775 152.976C180.383 153.864 179.454 155.06 179.145 155.06C179.083 155.06 179.083 154.38 179.187 153.554C179.269 152.75 179.517 150.109 179.744 147.735C180.837 136.552 180.817 134.53 179.682 127.597C179.269 125.141 179.001 122.975 179.063 122.789C179.145 122.583 179.62 122.128 180.115 121.736C182.055 120.251 186.615 119.549 188.389 120.477L188.389 120.478Z" fill="#21475A"/>
<path fill-rule="evenodd" clip-rule="evenodd" d="M186.057 123.986C184.86 124.502 183.581 126.132 183.189 127.617C183.106 127.927 183.23 127.803 183.498 127.307C184.076 126.234 185.004 125.265 186.222 124.481C186.759 124.15 187.192 123.82 187.192 123.779C187.192 123.615 186.676 123.717 186.057 123.986Z" fill="#21475A"/>
<path fill-rule="evenodd" clip-rule="evenodd" d="M181.414 131.373C181.414 131.435 181.641 131.951 181.909 132.508C183.725 136.119 183.725 139.378 181.889 141.793C181.394 142.453 181.366 142.577 181.807 142.164C182.653 141.38 183.416 139.812 183.684 138.306C183.953 136.861 183.664 135.005 182.941 133.498C182.487 132.529 181.435 131.063 181.414 131.373Z" fill="#21475A"/>
<path fill-rule="evenodd" clip-rule="evenodd" d="M185.541 134.097C185.541 134.282 185.355 135.005 185.128 135.686C184.695 136.965 184.736 137.501 185.232 136.841C185.5 136.469 185.851 134.056 185.665 133.849C185.603 133.787 185.541 133.89 185.541 134.097Z" fill="#21475A"/>
<path fill-rule="evenodd" clip-rule="evenodd" d="M104.656 84.1419C103.377 84.5749 101.932 85.3183 101.045 86.0196C100.818 86.2054 101.561 85.9576 102.696 85.4831C105.358 84.3897 106.513 84.0799 108.164 84.0595C109.154 84.039 109.36 83.9975 108.989 83.8736C107.978 83.5434 106.018 83.6673 104.655 84.1419H104.656Z" fill="#21475A"/>
<path fill-rule="evenodd" clip-rule="evenodd" d="M138.599 86.6794C138.723 86.7209 140.703 87.092 143.035 87.4842C145.346 87.8968 147.76 88.4128 148.4 88.6191C149.205 88.8873 149.411 88.9078 149.143 88.7015C148.586 88.3094 146.708 87.6285 145.223 87.2779C143.345 86.8448 137.753 86.3288 138.599 86.6794Z" fill="#21475A"/>
<path fill-rule="evenodd" clip-rule="evenodd" d="M106.967 91.0127C105.812 91.3225 102.325 92.7461 102.449 92.87C102.49 92.9115 103.439 92.5813 104.595 92.1272C108.824 90.4558 112.497 90.6212 119.513 92.7876C123.351 93.9845 124.589 93.964 129.21 92.7876C134.513 91.4049 136.411 91.4049 143.716 92.7461C145.552 93.0968 147.162 93.365 147.265 93.3445C147.698 93.303 144.252 92.5194 140.869 91.8999C135.978 91.0127 133.668 91.0747 128.592 92.3329C124.258 93.3854 123.412 93.3644 119.513 92.209C115.531 91.0326 113.57 90.703 110.64 90.703C109.072 90.703 107.628 90.8269 106.967 91.0127Z" fill="#21475A"/>
<path fill-rule="evenodd" clip-rule="evenodd" d="M147.74 93.5094C147.884 93.5713 148.07 93.5509 148.132 93.4889C148.214 93.427 148.09 93.365 147.864 93.3854C147.637 93.3854 147.575 93.4474 147.74 93.5094Z" fill="#21475A"/>
<path fill-rule="evenodd" clip-rule="evenodd" d="M148.565 93.7156C148.709 93.7776 148.895 93.7571 148.957 93.6952C149.039 93.6332 148.915 93.5713 148.689 93.5917C148.462 93.5917 148.4 93.6537 148.565 93.7156Z" fill="#21475A"/>
<path fill-rule="evenodd" clip-rule="evenodd" d="M78.5749 112.658C78.5954 118.311 78.6784 120.477 78.9051 121.695C79.2149 123.284 79.2148 123.325 78.7812 123.491C77.378 124.027 76.7387 125.678 76.7387 128.856C76.7592 131.394 77.0274 133.044 77.9356 135.768C78.4306 137.213 78.5136 137.893 78.6579 141.236C78.8227 145.342 79.0501 146.394 80.4117 149.056C80.9278 150.067 81.0102 150.645 81.4642 155.411C82.1246 162.468 82.5372 164.902 83.7341 168.699C84.5593 171.402 86.8291 176.478 87.9021 178.067C89.1399 179.904 92.6481 183.061 95.7016 185.104C97.2076 186.094 98.5488 187.208 99.6218 188.323C100.509 189.272 101.025 189.726 100.757 189.354C99.9105 188.137 97.7645 186.115 96.2585 185.124C94.2774 183.803 89.8207 179.863 88.9131 178.645C88.026 177.407 87.2213 175.839 86.0244 172.909C83.775 167.441 82.9089 163.458 82.269 155.783C82.0831 153.616 81.712 149.303 81.4227 146.188C81.1545 143.073 80.8243 137.872 80.7215 134.633C80.4737 127.019 80.4328 126.648 79.5865 122.191C78.9262 118.621 78.8853 118.167 78.9057 114.288C78.9057 112.039 78.8438 109.068 78.7409 107.706C78.5761 105.746 78.5551 106.757 78.5761 112.658L78.5749 112.658ZM79.524 124.956C79.6064 125.451 79.7718 128.876 79.8957 132.569C79.9991 136.263 80.2463 141.194 80.4322 143.547C80.618 145.899 80.7209 147.942 80.68 148.087C80.618 148.231 80.2878 147.468 79.9167 146.374C79.2978 144.517 79.2563 144.166 79.1944 141.009C79.1324 137.893 79.0705 137.46 78.4931 135.624C77.2343 131.662 76.9252 128.629 77.544 126.277C77.8538 125.059 78.7205 123.821 79.174 123.966C79.2774 124.007 79.4422 124.461 79.5246 124.956L79.524 124.956Z" fill="#21475A"/>
<path fill-rule="evenodd" clip-rule="evenodd" d="M78.0384 128.257C77.6878 128.897 77.5019 131.022 77.7906 130.836C77.935 130.754 78.0384 130.279 78.0384 129.784C78.0384 129.288 78.1208 128.649 78.2447 128.36C78.4715 127.72 78.3482 127.659 78.0384 128.257V128.257Z" fill="#21475A"/>
<path fill-rule="evenodd" clip-rule="evenodd" d="M116.768 105.766C116.149 106.117 115.943 106.963 116.314 107.52C116.913 108.449 118.481 107.912 118.481 106.798C118.481 105.91 117.511 105.332 116.768 105.766H116.768Z" fill="#21475A"/>
<path fill-rule="evenodd" clip-rule="evenodd" d="M154.941 106.385C149.927 106.757 144.438 108.015 142.746 109.15C142.333 109.439 141.921 109.686 141.838 109.686C141.755 109.707 141.095 110.367 140.352 111.172C139.609 111.977 139.197 112.513 139.424 112.348C139.65 112.184 139.898 111.936 139.98 111.832C140.063 111.708 140.145 111.832 140.145 112.101C140.145 112.369 140.063 112.534 139.959 112.472C139.856 112.39 139.815 112.514 139.856 112.699C139.918 112.905 139.836 113.256 139.67 113.462C139.381 113.854 139.36 113.854 139.051 113.256C138.639 112.493 138.597 112.781 139.01 113.586C139.175 113.916 139.258 114.349 139.175 114.556C139.113 114.762 139.133 114.865 139.216 114.762C139.319 114.679 139.567 114.782 139.773 114.968C140.062 115.236 140.206 115.257 140.392 115.072C140.536 114.927 140.866 114.824 141.135 114.824C141.403 114.824 141.568 114.741 141.506 114.638C141.445 114.535 141.589 114.452 141.857 114.473C142.105 114.473 143.631 114.143 145.241 113.73C146.85 113.318 150.028 112.637 152.297 112.245C154.567 111.853 156.816 111.44 157.312 111.337C159.003 110.986 160.469 110.904 161.191 111.11C161.583 111.234 162.8 111.461 163.873 111.626C165.091 111.812 166.473 112.183 167.484 112.617C169.342 113.401 170.477 113.978 170.167 113.999C170.063 113.999 170.559 114.329 171.281 114.742C172.292 115.299 172.643 115.402 172.767 115.217C172.87 115.031 172.581 114.598 171.9 113.917C170.848 112.864 170.703 112.452 171.612 113.05C171.9 113.236 172.128 113.339 172.128 113.298C172.128 113.236 171.447 112.72 170.642 112.163C169.817 111.585 168.806 110.822 168.414 110.471C167.753 109.893 167.733 109.852 168.207 109.976C168.496 110.059 169.033 110.244 169.404 110.409C169.776 110.554 170.044 110.616 169.982 110.513C169.92 110.43 169.198 110.1 168.373 109.77C166.619 109.069 165.897 108.655 166.041 108.429C166.103 108.325 166.041 108.181 165.917 108.099C165.752 107.995 165.731 108.037 165.835 108.222C165.938 108.387 165.897 108.449 165.711 108.387C165.546 108.325 165.443 108.181 165.463 108.057C165.504 107.933 165.401 107.871 165.236 107.933C165.071 107.995 164.886 107.933 164.782 107.789C164.7 107.624 164.72 107.582 164.865 107.685C165.009 107.768 165.112 107.789 165.112 107.747C165.112 107.521 163.523 106.736 162.554 106.488C161.377 106.179 158.386 106.138 154.94 106.385H154.941ZM146.027 108.572C145.47 108.882 144.83 109.129 144.645 109.15C143.943 109.212 143.097 110.244 142.561 111.647C141.529 114.391 141.529 114.371 141.426 113.813C141.384 113.566 141.55 112.802 141.797 112.142C142.23 111.007 142.21 110.326 141.777 110.594C141.674 110.677 141.591 110.636 141.591 110.512C141.591 110.223 143.489 108.882 144.15 108.717C144.583 108.613 144.707 108.634 144.604 108.82C144.377 109.171 144.81 109.088 145.12 108.717C145.45 108.325 146.069 108.036 146.647 108.036C146.895 108.036 146.647 108.242 146.028 108.572H146.027ZM141.384 110.883C141.384 111.007 141.157 111.358 140.868 111.667C140.456 112.142 140.373 112.184 140.352 111.874C140.352 111.647 140.558 111.317 140.827 111.089C141.363 110.635 141.384 110.635 141.384 110.883H141.384ZM141.818 111.337C141.632 111.791 141.612 111.791 141.612 111.399C141.591 111.172 141.653 110.904 141.735 110.842C141.983 110.594 142.024 110.842 141.818 111.337ZM141.157 113.071C141.137 114.556 140.91 114.784 140.559 113.711C140.373 113.133 140.394 112.885 140.662 112.369C140.827 112.019 141.034 111.729 141.075 111.729C141.137 111.729 141.157 112.328 141.157 113.071ZM140.353 114.329C140.353 114.865 140.002 115.01 139.816 114.515C139.651 114.102 139.878 113.524 140.146 113.69C140.25 113.751 140.353 114.04 140.353 114.329V114.329Z" fill="#21475A"/>
<path fill-rule="evenodd" clip-rule="evenodd" d="M140.579 109.109C139.857 109.46 138.846 110.182 138.31 110.657L137.361 111.565L138.289 110.863C138.805 110.471 139.837 109.811 140.621 109.378C141.384 108.965 142.004 108.573 142.004 108.532C142.004 108.435 141.529 108.628 140.58 109.11L140.579 109.109Z" fill="#21475A"/>
<path fill-rule="evenodd" clip-rule="evenodd" d="M137.113 110.388L136.535 110.925L137.32 110.471C138.083 110.038 138.248 109.872 137.898 109.872C137.774 109.872 137.423 110.099 137.113 110.388Z" fill="#21475A"/>
<path fill-rule="evenodd" clip-rule="evenodd" d="M103.624 110.759C104.533 111.812 107.504 114.721 107.235 114.288C106.947 113.793 107.009 113.834 107.71 114.536C108.37 115.217 108.515 115.485 108.432 115.918C108.37 116.249 108.412 116.475 108.536 116.475C108.66 116.475 108.742 116.187 108.742 115.815C108.722 115.134 107.834 114.123 105.482 112.142C104.45 111.275 103.398 110.491 103.624 110.759Z" fill="#21475A"/>
<path fill-rule="evenodd" clip-rule="evenodd" d="M99.7042 112.286C102.16 112.699 104.966 113.813 105.131 114.432C105.193 114.639 105.151 114.824 105.049 114.824C104.966 114.824 104.925 114.969 105.007 115.155C105.213 115.671 104.326 115.155 103.562 114.288C103.232 113.896 102.758 113.463 102.51 113.339C102.221 113.195 102.304 113.359 102.778 113.875C103.356 114.474 103.418 114.618 103.129 114.618C102.923 114.618 102.468 114.37 102.097 114.061C100.88 113.03 99.5803 112.617 97.3928 112.576C94.7724 112.534 91.8217 113.133 88.7682 114.35C84.3734 116.083 83.1765 116.929 82.186 118.931C81.5671 120.21 80.3702 124.048 80.5561 124.233C80.7004 124.357 83.3828 123.325 86.9735 121.757C88.4181 121.117 90.8317 120.189 92.3383 119.694C94.8969 118.827 95.2686 118.745 98.4664 118.538C103.357 118.229 104.656 117.94 104.656 117.218C104.656 117.073 104.883 116.743 105.173 116.475C105.771 115.918 105.812 116.042 105.358 116.949L105.008 117.61L105.524 117.156C105.854 116.825 106.081 116.743 106.225 116.887C106.369 117.032 106.431 116.97 106.411 116.681C106.39 116.454 106.267 116.145 106.143 116.021C105.998 115.876 105.895 115.649 105.895 115.484C105.895 115.34 105.812 115.278 105.689 115.34C105.565 115.422 105.482 115.216 105.482 114.886C105.482 114.081 105.358 113.978 103.831 113.235C102.18 112.43 101.087 112.141 100.014 112.162C99.4775 112.182 99.374 112.224 99.7042 112.286V112.286ZM103.624 115.031C103.624 115.134 103.583 115.237 103.542 115.237C103.48 115.237 103.377 115.134 103.315 115.031C103.253 114.907 103.295 114.824 103.398 114.824C103.522 114.824 103.624 114.907 103.624 115.031ZM104.986 115.753C105.11 116.041 104.924 116.825 104.78 116.661C104.738 116.619 104.656 116.33 104.573 116C104.429 115.402 104.78 115.196 104.986 115.753Z" fill="#21475A"/>
<path fill-rule="evenodd" clip-rule="evenodd" d="M109.588 114.556C109.856 115.443 110.124 116.062 110.166 115.918C110.248 115.67 109.505 113.401 109.237 113.133C109.134 113.029 109.299 113.669 109.588 114.556Z" fill="#21475A"/>
<path fill-rule="evenodd" clip-rule="evenodd" d="M106.101 114.185C106.389 114.763 106.348 114.927 105.997 114.618C105.749 114.411 105.687 114.411 105.687 114.7C105.687 114.886 105.749 115.01 105.852 115.01C106.306 114.927 106.513 115.092 106.719 115.753C107.008 116.619 107.379 116.929 107.152 116.103C106.946 115.422 106.141 113.792 105.975 113.792C105.934 113.792 105.975 113.978 106.099 114.185H106.101Z" fill="#21475A"/>
<path fill-rule="evenodd" clip-rule="evenodd" d="M144.851 119.467C143.798 119.756 141.797 120.829 141.384 121.345C141.219 121.51 141.611 121.324 142.23 120.912C144.645 119.323 146.955 119.158 154.177 120.045C159.439 120.705 161.255 121.304 163.979 123.326C164.639 123.821 164.577 123.718 163.69 122.893C162.431 121.738 160.389 120.582 158.717 120.128C157.334 119.736 150.608 119.159 147.843 119.179C146.729 119.179 145.387 119.323 144.851 119.468V119.467Z" fill="#21475A"/>
<path fill-rule="evenodd" clip-rule="evenodd" d="M145.965 121.448C144.624 121.798 141.55 123.078 139.466 124.15C138.145 124.811 138.743 124.769 140.229 124.109C142.045 123.284 145.119 122.252 145.78 122.252C146.254 122.252 146.296 122.334 146.378 123.428C146.44 124.089 146.543 124.769 146.626 124.955C146.75 125.244 146.481 125.327 144.645 125.471L142.519 125.657L144.067 125.699C144.913 125.74 146.831 125.905 148.297 126.091C152.63 126.648 156.633 126.277 159.006 125.142C159.48 124.915 159.687 124.77 159.48 124.832C158.387 125.121 155.787 125.575 155.684 125.492C155.622 125.43 155.725 125.162 155.91 124.894C156.323 124.316 156.343 123.284 155.931 122.748C155.766 122.542 155.621 122.294 155.621 122.211C155.621 121.985 158.386 122.706 160.882 123.594C164.163 124.791 164.328 124.832 163.359 124.295C161.377 123.202 157.437 121.84 155.023 121.427C151.783 120.87 148.048 120.891 145.964 121.448H145.965ZM152.795 122.19C153.063 122.521 153.083 122.644 152.815 123.243C152.589 123.779 152.423 123.924 152.072 123.862C151.701 123.82 151.577 123.655 151.536 123.119C151.433 121.984 152.134 121.468 152.795 122.19Z" fill="#21475A"/>
<path fill-rule="evenodd" clip-rule="evenodd" d="M102.18 121.86C100.013 122.335 96.9803 123.428 94.8343 124.522C92.8947 125.513 88.4999 128.257 87.8395 128.917C87.4889 129.247 89.016 128.422 90.6248 127.39C95.8453 124.047 103.067 121.654 106.059 122.252C106.699 122.396 108.267 122.994 109.505 123.613C110.764 124.232 111.547 124.562 111.259 124.315C110.97 124.088 109.793 123.428 108.638 122.829C106.657 121.839 106.43 121.756 104.821 121.715C103.872 121.673 102.695 121.735 102.18 121.859V121.86Z" fill="#21475A"/>
<path fill-rule="evenodd" clip-rule="evenodd" d="M130.696 123.965C129.871 126.441 129.128 131.125 129.623 130.816C129.726 130.754 129.829 130.547 129.829 130.362C129.829 130.176 130.201 128.257 130.654 126.111C131.129 123.965 131.459 122.17 131.418 122.129C131.376 122.088 131.067 122.913 130.695 123.965H130.696Z" fill="#21475A"/>
<path fill-rule="evenodd" clip-rule="evenodd" d="M115.241 123.8C116.211 125.781 117.717 131.042 118.336 134.632C118.543 135.788 118.46 133.333 118.254 131.826C117.841 128.773 116.376 124.728 115.179 123.284C114.787 122.83 114.808 122.892 115.241 123.8Z" fill="#21475A"/>
<path fill-rule="evenodd" clip-rule="evenodd" d="M168.105 124.336C167.713 124.584 167.61 124.728 167.816 124.728C168.002 124.728 168.373 124.543 168.642 124.316C169.26 123.8 168.91 123.8 168.105 124.336Z" fill="#21475A"/>
<path fill-rule="evenodd" clip-rule="evenodd" d="M168.518 125.141C168.374 125.389 168.56 125.389 169.137 125.141C169.529 124.976 169.529 124.955 169.096 124.955C168.848 124.935 168.58 125.017 168.518 125.141H168.518Z" fill="#21475A"/>
<path fill-rule="evenodd" clip-rule="evenodd" d="M101.871 125.678C98.9819 126.111 95.5152 127.369 93.679 128.67C93.3283 128.917 92.3377 129.474 91.4711 129.907L89.9031 130.692L90.7493 130.712C91.4097 130.712 91.9047 130.506 93.1431 129.701C94.7321 128.649 96.8161 127.535 96.9189 127.659C96.9394 127.7 97.0633 128.175 97.1872 128.732L97.3935 129.722L95.9699 129.598C94.3808 129.434 93.9683 129.743 95.4953 129.97C97.0428 130.176 98.6727 130.114 100.654 129.784C103.027 129.372 107.587 128.278 106.988 128.257C106.596 128.237 106.576 128.175 106.782 127.638C106.947 127.184 106.947 126.895 106.762 126.483L106.514 125.946L107.69 126.05C108.763 126.153 108.805 126.132 108.062 125.967C107.113 125.741 102.779 125.534 101.872 125.679L101.871 125.678ZM103.851 126.936C104.057 127.493 103.603 128.154 103.129 127.968C102.902 127.885 102.799 127.596 102.799 127.101C102.799 126.441 102.861 126.358 103.232 126.42C103.479 126.462 103.748 126.689 103.851 126.936H103.851Z" fill="#21475A"/>
<path fill-rule="evenodd" clip-rule="evenodd" d="M167.28 126.173L166.248 126.317L167.177 126.338C167.693 126.358 168.25 126.276 168.415 126.173C168.58 126.07 168.642 125.987 168.518 126.008C168.415 126.029 167.858 126.091 167.281 126.173H167.28Z" fill="#21475A"/>
<path fill-rule="evenodd" clip-rule="evenodd" d="M109.36 126.317C109.608 126.359 110.021 126.359 110.289 126.317C110.537 126.276 110.33 126.235 109.814 126.235C109.298 126.235 109.092 126.277 109.36 126.317Z" fill="#21475A"/>
<path fill-rule="evenodd" clip-rule="evenodd" d="M160.161 126.792C159.295 127.37 156.406 128.092 154.384 128.237L152.217 128.381L153.992 128.402C155.168 128.422 156.302 128.298 157.334 128.051C158.758 127.679 160.574 126.916 160.574 126.689C160.574 126.545 160.512 126.565 160.161 126.793V126.792Z" fill="#21475A"/>
<path fill-rule="evenodd" clip-rule="evenodd" d="M137.051 126.998C137.216 127.102 137.546 127.205 137.753 127.205C138.289 127.205 138.124 127.081 137.361 126.916C136.906 126.812 136.824 126.834 137.051 126.998H137.051Z" fill="#21475A"/>
<path fill-rule="evenodd" clip-rule="evenodd" d="M112.311 128.463C111.981 128.732 111.939 128.856 112.146 128.856C112.456 128.856 113.033 128.299 112.889 128.154C112.848 128.092 112.579 128.237 112.311 128.464V128.463Z" fill="#21475A"/>
<path fill-rule="evenodd" clip-rule="evenodd" d="M84.7445 131.228C83.6096 131.476 83.5681 131.496 84.3319 131.496C84.786 131.496 85.5288 131.393 85.9829 131.228C87.0144 130.898 86.375 130.898 84.7451 131.228H84.7445Z" fill="#21475A"/>
<path fill-rule="evenodd" clip-rule="evenodd" d="M158.738 131.373C158.345 131.476 157.149 131.641 156.055 131.723L154.074 131.888L155.539 131.93C157.025 131.95 159.191 131.641 159.749 131.311C160.017 131.166 160.017 131.146 159.749 131.146C159.584 131.166 159.13 131.249 158.738 131.373Z" fill="#21475A"/>
<path fill-rule="evenodd" clip-rule="evenodd" d="M86.7046 131.723C86.7046 131.827 86.8905 131.868 87.1172 131.806C87.344 131.744 87.5298 131.661 87.5298 131.62C87.5298 131.578 87.344 131.537 87.1172 131.537C86.8905 131.537 86.7046 131.62 86.7046 131.723Z" fill="#21475A"/>
<path fill-rule="evenodd" clip-rule="evenodd" d="M161.09 132.487C160.306 132.755 159.975 132.92 160.368 132.859C161.605 132.652 162.617 132.364 162.74 132.158C162.905 131.889 162.782 131.91 161.089 132.488L161.09 132.487Z" fill="#21475A"/>
<path fill-rule="evenodd" clip-rule="evenodd" d="M88.2317 132.466C88.0254 132.631 87.943 132.776 88.0669 132.776C88.1908 132.776 88.4175 132.631 88.5619 132.466C88.8921 132.074 88.7477 132.074 88.2317 132.466Z" fill="#21475A"/>
<path fill-rule="evenodd" clip-rule="evenodd" d="M93.7409 132.446C93.9887 132.714 98.0947 133.395 99.3536 133.374C101.644 133.333 101.85 133.024 99.6014 133.003C97.6822 132.982 95.4538 132.734 94.1541 132.425C93.8654 132.363 93.6796 132.363 93.7415 132.445L93.7409 132.446Z" fill="#21475A"/>
<path fill-rule="evenodd" clip-rule="evenodd" d="M94.4422 135.046C94.5865 135.272 95.9277 135.726 96.2164 135.624C96.3403 135.582 95.9686 135.397 95.3913 135.211C94.8133 135.025 94.3802 134.963 94.4422 135.046V135.046Z" fill="#21475A"/>
<path fill-rule="evenodd" clip-rule="evenodd" d="M111.796 149.861C111.631 150.191 110.97 151.14 110.33 151.965C109.051 153.678 108.68 154.71 108.845 156.133C109.072 157.949 109.629 158.836 111.486 160.301C112.992 161.498 115.283 162.901 115.716 162.901C115.798 162.901 115.324 162.571 114.663 162.159C111.878 160.487 109.897 158.61 109.505 157.248C108.927 155.288 109.154 154.008 110.433 152.275C111.32 151.099 112.393 149.283 112.208 149.283C112.146 149.283 111.96 149.551 111.795 149.861H111.796Z" fill="#21475A"/>
<path fill-rule="evenodd" clip-rule="evenodd" d="M137.877 149.572C137.877 149.654 138.351 150.273 138.95 150.913C141.054 153.224 141.714 155.659 140.683 157.413C140.064 158.465 137.67 160.301 136.081 160.962C135.421 161.23 135.029 161.457 135.194 161.457C136.391 161.457 139.775 159.29 140.91 157.805C141.426 157.144 141.488 156.876 141.488 155.597C141.488 154.318 141.384 153.946 140.91 153.1C140.353 152.089 137.877 149.221 137.877 149.572Z" fill="#21475A"/>
<path fill-rule="evenodd" clip-rule="evenodd" d="M144.603 153.409C144.789 154.937 145.078 155.659 145.078 154.544C145.078 154.09 144.933 153.389 144.768 152.997L144.479 152.275L144.603 153.409Z" fill="#21475A"/>
<path fill-rule="evenodd" clip-rule="evenodd" d="M105.791 156.566C105.873 157.475 106.431 158.919 106.616 158.733C106.719 158.65 106.162 156.649 105.873 155.988C105.729 155.7 105.708 155.885 105.791 156.566Z" fill="#21475A"/>
<path fill-rule="evenodd" clip-rule="evenodd" d="M136.639 156.546C136.35 156.649 135.256 156.876 134.183 157.041C132.058 157.371 130.882 157.825 129.933 158.671L129.314 159.228L129.974 158.795C130.387 158.506 130.944 158.362 131.563 158.362C132.45 158.362 135.711 157.33 136.99 156.628C137.65 156.278 137.423 156.216 136.639 156.546H136.639Z" fill="#21475A"/>
<path fill-rule="evenodd" clip-rule="evenodd" d="M111.981 158.093C112.105 158.197 112.889 158.548 113.755 158.857C114.91 159.269 115.633 159.393 116.582 159.352C117.283 159.331 117.861 159.29 117.861 159.248C117.861 158.98 116.293 158.526 114.725 158.361C113.672 158.258 112.579 158.093 112.29 158.031C111.96 157.949 111.836 157.969 111.98 158.093L111.981 158.093Z" fill="#21475A"/>
<path fill-rule="evenodd" clip-rule="evenodd" d="M84.703 159.723C84.5587 160.095 84.8889 160.776 85.1776 160.673C85.4662 160.611 85.4043 159.538 85.1156 159.455C84.9713 159.393 84.7854 159.517 84.703 159.723Z" fill="#21475A"/>
<path fill-rule="evenodd" clip-rule="evenodd" d="M125.29 162.2C124.176 162.798 123.619 162.819 122.422 162.262L121.493 161.849L121.885 162.282C122.814 163.293 124.898 163.252 125.909 162.179C126.177 161.89 126.363 161.684 126.301 161.684C126.26 161.704 125.806 161.931 125.29 162.2Z" fill="#21475A"/>
<path fill-rule="evenodd" clip-rule="evenodd" d="M172.377 164.263C171.634 164.779 171.778 166.822 172.562 166.822C173.347 166.822 173.904 164.758 173.326 164.181C173.016 163.871 172.934 163.871 172.377 164.263Z" fill="#21475A"/>
<path fill-rule="evenodd" clip-rule="evenodd" d="M121.369 164.469C120.998 164.634 120.111 164.82 119.409 164.902C117.696 165.067 116.582 165.728 114.622 167.729C112.683 169.71 111.548 170.494 108.102 172.31C105.275 173.795 105.049 173.981 104.14 175.405C103.171 176.911 102.882 177.551 102.717 178.458L102.572 179.263L103.357 178.603C104.285 177.818 104.45 177.818 104.45 178.479C104.45 179.139 104.636 179.119 105.379 178.541C105.936 178.108 105.957 178.108 106.225 178.479C106.555 178.912 106.328 179.077 109.506 176.106C110.414 175.239 111.672 174.146 112.312 173.671C113.571 172.722 116.687 171.34 118.73 170.824C119.431 170.638 120.422 170.267 120.896 169.999C121.701 169.545 123.248 167.957 123.661 167.193C123.826 166.883 123.764 166.863 123.124 166.966C122.629 167.049 122.402 166.842 122.444 166.347C122.464 165.955 122.382 165.501 122.237 165.336C122.113 165.171 122.051 164.841 122.134 164.593C122.258 164.057 122.299 164.077 121.371 164.469H121.369Z" fill="#21475A"/>
<path fill-rule="evenodd" clip-rule="evenodd" d="M127.395 164.655C127.044 165.398 127.085 165.666 127.559 166.1C127.807 166.327 127.972 166.74 127.972 167.131C127.972 167.482 128.096 167.957 128.261 168.184C128.467 168.452 128.487 168.658 128.343 168.824C128.054 169.195 129.767 169.938 132.655 170.702C135.379 171.444 138.515 172.93 141.982 175.096C143.406 176.004 145.077 176.994 145.676 177.284C146.687 177.779 146.831 177.8 147.595 177.552C148.358 177.284 148.503 177.304 149.308 177.758C150.236 178.253 150.876 178.212 150.876 177.634C150.876 177.408 150.979 177.346 151.247 177.448C153.145 178.253 153.311 178.109 152.094 176.788C150.628 175.158 149.7 174.642 147.327 174.168C147.038 174.106 146.316 173.673 145.718 173.198C145.14 172.744 143.468 171.753 142.045 171.011C140.6 170.268 138.124 168.803 136.535 167.75C134.946 166.719 133.275 165.666 132.821 165.439C132.141 165.089 128.468 164.14 127.807 164.14C127.704 164.14 127.519 164.367 127.395 164.656V164.655Z" fill="#21475A"/>
<path fill-rule="evenodd" clip-rule="evenodd" d="M92.4201 164.697C92.2138 164.903 92.2553 166.058 92.4821 166.41C92.6679 166.678 92.7503 166.636 93.101 166.224C93.3896 165.894 93.4727 165.584 93.3897 165.295C93.2038 164.697 92.7088 164.387 92.4201 164.697Z" fill="#21475A"/>
<path fill-rule="evenodd" clip-rule="evenodd" d="M124.733 169.236C124.919 169.277 125.249 169.277 125.455 169.236C125.641 169.174 125.475 169.132 125.083 169.132C124.691 169.132 124.526 169.174 124.733 169.236Z" fill="#21475A"/>
<path fill-rule="evenodd" clip-rule="evenodd" d="M144.521 170.041C143.943 170.453 143.922 171.278 144.479 171.464C145.428 171.774 146.522 170.185 145.594 169.834C145.14 169.648 145.037 169.669 144.521 170.041Z" fill="#21475A"/>
<path fill-rule="evenodd" clip-rule="evenodd" d="M125.599 170.659C124.753 171.01 124.031 171.175 123.329 171.134C118.79 170.969 118.996 170.948 116.314 172.248C113.219 173.754 111.403 174.972 109.855 176.54C108.535 177.861 107.338 179.986 107.338 180.997C107.338 181.492 107.483 181.657 108.267 182.05C108.762 182.297 109.773 182.606 110.475 182.73C111.63 182.937 111.981 182.916 113.528 182.524C115.55 182.008 117.222 181.286 117.82 180.688C118.047 180.461 118.46 180.213 118.728 180.131C118.976 180.027 119.533 179.759 119.925 179.512C120.627 179.099 120.668 179.079 121.019 179.45C121.307 179.76 121.72 179.822 123.536 179.822C124.897 179.822 125.702 179.739 125.702 179.615C125.702 179.471 125.826 179.471 126.094 179.595C126.321 179.719 126.734 179.739 127.167 179.615C127.559 179.533 128.426 179.389 129.107 179.306C129.788 179.223 130.448 179.079 130.572 178.976C130.716 178.872 131.294 178.996 132.099 179.326C132.821 179.615 133.585 179.801 133.791 179.759C134.059 179.677 134.431 179.924 135.029 180.564C135.586 181.162 136.143 181.555 136.721 181.699C138.66 182.235 145.449 181.162 146.027 180.234C146.253 179.842 141.302 175.447 138.722 173.714C136.659 172.352 129.808 170.124 127.662 170.124C127.208 170.124 126.28 170.371 125.599 170.66L125.599 170.659ZM130.366 171.175C133.44 171.98 136.886 173.239 138.062 173.982C140.621 175.633 145.429 179.78 145.119 180.089C144.521 180.688 138.805 181.493 137.196 181.183C136.371 181.039 134.864 179.759 135.091 179.409C135.174 179.285 134.885 179.202 134.266 179.202C133.585 179.202 132.842 178.976 131.728 178.439C129.871 177.552 128.675 177.387 127.147 177.841C126.467 178.047 125.27 178.171 123.97 178.171C122.134 178.171 121.866 178.129 121.411 177.696L120.895 177.242L121.143 177.696C121.35 178.109 121.329 178.171 120.999 178.171C120.793 178.171 120.174 178.501 119.658 178.914C118.894 179.512 118.523 179.656 117.842 179.656C117.388 179.636 116.872 179.532 116.707 179.388C116.542 179.264 116.418 179.244 116.418 179.347C116.418 179.45 116.666 179.656 116.955 179.801C117.718 180.151 117.347 180.482 115.325 181.307C113.819 181.905 113.406 181.988 111.569 181.988C109.919 181.988 109.341 181.905 108.681 181.575C107.732 181.1 107.711 180.894 108.474 179.285C109.093 178.026 111.095 175.983 112.911 174.766C114.809 173.507 118.296 171.836 119.637 171.568C120.462 171.403 121.04 171.382 121.804 171.547C123.372 171.898 124.445 171.815 125.703 171.258C127.107 170.64 128.241 170.619 130.366 171.176L130.366 171.175ZM130.119 178.604C130.283 178.748 129.954 178.831 128.035 179.099C127.602 179.161 126.982 179.264 126.652 179.326C126.219 179.429 126.095 179.388 126.157 179.181C126.219 179.016 126.838 178.748 127.58 178.562C128.839 178.232 129.726 178.232 130.119 178.604ZM125.475 179.119C125.496 179.14 125.475 179.264 125.393 179.388C125.125 179.862 121.163 179.552 121.163 179.078C121.163 178.872 121.596 178.83 123.289 178.933C124.444 178.995 125.435 179.078 125.476 179.119H125.475Z" fill="#21475A"/>
<path fill-rule="evenodd" clip-rule="evenodd" d="M127.89 176.252C127.766 176.54 127.786 176.561 127.993 176.376C128.137 176.231 128.199 176.066 128.137 176.004C128.075 175.942 127.952 176.045 127.89 176.252Z" fill="#21475A"/>
<path fill-rule="evenodd" clip-rule="evenodd" d="M169.446 183.597C167.527 189.044 166.681 190.695 161.709 198.805C160.264 201.157 157.891 203.591 155.436 205.263C154.467 205.903 153.744 206.439 153.806 206.439C153.889 206.439 154.817 205.944 155.87 205.346C158.697 203.757 161.049 201.364 163.195 197.877C166.084 193.193 167.569 190.51 168.23 188.798C168.91 187.024 170.768 180.648 170.623 180.524C170.582 180.482 170.066 181.865 169.447 183.598L169.446 183.597Z" fill="#21475A"/>
<path fill-rule="evenodd" clip-rule="evenodd" d="M161.4 183.556L160.677 184.174L161.462 183.638C162.142 183.143 162.349 182.916 162.163 182.916C162.142 182.916 161.791 183.204 161.4 183.556Z" fill="#21475A"/>
<path fill-rule="evenodd" clip-rule="evenodd" d="M143.324 184.299C142.891 184.856 142.23 185.661 141.879 186.135C139.547 189.086 133.976 192.779 130.345 193.77C128.509 194.286 122.607 194.41 119.987 193.976C117.222 193.543 116.087 193.171 114.642 192.243C113.033 191.19 111.485 189.602 110.186 187.683C108.886 185.702 108.741 185.578 109.608 187.146C110.949 189.602 112.744 191.582 114.725 192.841C117.944 194.884 126.424 195.544 130.964 194.121C133.378 193.357 137.443 190.943 139.878 188.797C140.456 188.281 141.693 186.837 142.602 185.599C144.314 183.267 144.706 182.566 143.324 184.299Z" fill="#21475A"/>
<path fill-rule="evenodd" clip-rule="evenodd" d="M148.132 184.422L147.781 185.083L148.194 184.588C148.544 184.175 148.73 183.741 148.565 183.741C148.524 183.741 148.339 184.051 148.132 184.422H148.132Z" fill="#21475A"/>
<path fill-rule="evenodd" clip-rule="evenodd" d="M160.037 184.608L159.645 185.083L160.12 184.691C160.553 184.319 160.677 184.154 160.512 184.154C160.47 184.154 160.264 184.36 160.037 184.608Z" fill="#21475A"/>
<path fill-rule="evenodd" clip-rule="evenodd" d="M134.988 184.856C134.988 184.897 135.153 185.062 135.36 185.207C135.669 185.475 135.69 185.454 135.422 185.124C135.153 184.794 134.988 184.691 134.988 184.856H134.988Z" fill="#21475A"/>
<path fill-rule="evenodd" clip-rule="evenodd" d="M131.687 185.599C131.81 185.825 131.955 186.011 132.017 186.011C132.058 186.011 132.017 185.825 131.893 185.599C131.769 185.372 131.625 185.186 131.563 185.186C131.521 185.186 131.563 185.372 131.687 185.599Z" fill="#21475A"/>
<path fill-rule="evenodd" clip-rule="evenodd" d="M114.354 185.908C114.086 186.197 113.9 186.465 113.962 186.507C114.004 186.548 114.251 186.301 114.519 185.991C115.117 185.248 115.014 185.207 114.354 185.908Z" fill="#21475A"/>
<path fill-rule="evenodd" clip-rule="evenodd" d="M106.555 186.651C106.802 187.105 107.153 187.58 107.318 187.724C107.462 187.848 107.297 187.476 106.926 186.878C106.163 185.619 105.873 185.433 106.554 186.651H106.555Z" fill="#21475A"/>
<path fill-rule="evenodd" clip-rule="evenodd" d="M105.42 187.889C105.626 188.24 105.915 188.632 106.08 188.756C106.245 188.9 106.122 188.611 105.791 188.116C105.131 187.105 104.863 186.939 105.42 187.889Z" fill="#21475A"/>
<path fill-rule="evenodd" clip-rule="evenodd" d="M119.141 187.765C119.141 188.095 119.183 188.219 119.244 188.013C119.286 187.827 119.286 187.538 119.244 187.394C119.183 187.27 119.141 187.414 119.141 187.766V187.765Z" fill="#21475A"/>
<path fill-rule="evenodd" clip-rule="evenodd" d="M126.569 187.559C126.569 187.786 126.652 188.199 126.734 188.487C126.858 188.9 126.899 188.921 126.899 188.591C126.899 188.364 126.817 187.951 126.734 187.662C126.61 187.25 126.569 187.229 126.569 187.559Z" fill="#21475A"/>
<path fill-rule="evenodd" clip-rule="evenodd" d="M94.9787 187.786C94.9787 188.012 95.0406 188.074 95.1026 187.909C95.1645 187.765 95.1441 187.579 95.0821 187.517C95.0202 187.435 94.9582 187.559 94.9787 187.786Z" fill="#21475A"/>
<path fill-rule="evenodd" clip-rule="evenodd" d="M95.185 188.364C95.1026 189.086 96.0932 191.603 97.6407 194.554C100.055 199.217 100.199 199.609 101.169 204.458C102.056 209.018 102.573 210.318 104.1 212.113C104.574 212.67 105.152 213.64 105.399 214.28C105.626 214.92 106.266 216.157 106.844 217.045L107.855 218.654L108.02 217.663C108.268 216.034 108.33 216.012 109.113 217.189C111.321 220.449 114.416 222.554 117.821 223.07L118.688 223.214L118.172 222.306C117.903 221.811 117.655 221.171 117.655 220.923C117.655 220.469 117.738 220.511 118.749 221.418C120.791 223.275 123.247 224.617 125.723 225.236L127.353 225.648L128.075 225.091C128.715 224.596 131.48 223.626 131.48 223.894C131.48 223.956 131.336 224.266 131.171 224.596L130.84 225.215H131.749C133.028 225.215 135.566 224.534 137.072 223.77C138.413 223.109 140.703 221.562 141.157 221.005C141.322 220.819 141.529 220.675 141.632 220.675C141.756 220.675 141.488 221.149 141.075 221.727C140.394 222.697 140.374 222.759 140.807 222.636C141.921 222.285 145.243 220.283 146.275 219.334C147.678 218.055 149.143 216.136 149.72 214.836C150.023 214.176 150.25 214.011 150.401 214.341C150.545 214.63 150.711 215.208 150.793 215.662C151.041 217.106 151.185 217.106 151.887 215.703C153.063 213.289 153.186 211.061 152.32 207.924C151.804 206.088 151.804 206.15 152.444 206.583L152.98 206.934L152.836 205.696C152.65 204.107 152.196 202.457 151.598 201.28C150.773 199.671 150.649 199.671 149.885 201.301C149.184 202.807 146.872 205.407 146.542 205.076C146.46 204.973 146.232 204.396 146.026 203.797C145.84 203.219 145.572 202.724 145.428 202.724C144.953 202.724 143.24 203.983 142.539 204.87C142.147 205.324 141.548 206.273 141.198 206.954C140.579 208.192 139.795 209.244 139.65 209.1C139.609 209.059 139.485 208.708 139.382 208.316L139.196 207.593L138.701 208.316C137.896 209.492 136.163 211.184 135.338 211.617C134.801 211.906 134.244 212.009 133.584 211.968C132.635 211.906 132.615 211.885 131.954 210.668C131.397 209.637 131.273 209.492 131.149 209.843C130.633 211.308 129.499 213.454 128.962 214.011C128.59 214.383 128.013 214.733 127.662 214.816C126.837 214.96 125.392 214.589 124.567 214.011C124.134 213.701 123.639 213.557 122.896 213.557C121.988 213.557 121.699 213.433 120.688 212.67C119.017 211.411 118.253 209.946 117.964 207.429L117.84 206.232L116.871 207.037C115.488 208.171 114.354 208.914 113.94 208.914C113.61 208.914 110.329 205.654 109.917 204.911C109.71 204.56 109.607 204.601 108.699 205.509C108.163 206.066 107.647 206.418 107.585 206.314C106.76 205.159 106.14 204.065 105.769 203.033L105.336 201.816L105.006 202.93C104.469 204.808 104.243 206.418 104.243 208.275V210.049L104.676 209.533L105.088 209.017L104.964 210.462C104.882 211.246 104.8 211.927 104.758 211.968C104.676 212.071 103.355 209.78 103.066 209.017C102.922 208.666 102.488 206.851 102.076 204.952C100.941 199.669 100.652 198.927 97.7838 193.974C96.8756 192.406 95.9266 190.446 95.6583 189.641C95.4105 188.836 95.1838 188.258 95.1838 188.362L95.185 188.364Z" fill="#21475A"/>
<path fill-rule="evenodd" clip-rule="evenodd" d="M137.794 194.492C138.805 195.606 139.321 196.452 139.961 198.041L140.559 199.526L140.497 198.433C140.394 197.133 139.404 195.565 138.021 194.471L137.154 193.79L137.794 194.492Z" fill="#21475A"/>
<path fill-rule="evenodd" clip-rule="evenodd" d="M117.552 197.401C117.036 198.681 116.83 199.63 116.974 200.29C117.16 201.26 117.387 200.93 117.531 199.424C117.613 198.639 117.758 197.69 117.861 197.34C118.15 196.349 117.965 196.39 117.551 197.401H117.552Z" fill="#21475A"/>
<path fill-rule="evenodd" clip-rule="evenodd" d="M227.284 160.508C225.426 162.076 225.654 165.584 227.717 167.4C229.78 169.195 233.597 168.617 234.711 166.347C235.144 165.501 235.206 163.933 234.876 163.046C234.566 162.221 234.98 162.53 235.454 163.479C236.445 165.398 236.176 167.358 234.753 168.864C234.147 169.497 233.377 169.813 232.442 169.813C231.39 169.813 230.44 169.627 228.563 169.029C225.654 168.1 224.622 167.502 224.188 166.45L223.858 165.687L223.487 167.234C223.28 168.08 222.847 169.463 222.496 170.267C222.166 171.092 221.918 171.773 221.98 171.773C222.042 171.773 222.31 171.609 222.599 171.423C223.404 170.907 224.807 171.031 227.365 171.856C229.965 172.702 230.914 173.259 231.347 174.188C231.512 174.559 231.719 174.868 231.781 174.868C231.842 174.868 232.028 174.476 232.173 173.981C232.709 172.165 233.431 171.113 235.598 169.029C238.198 166.532 238.879 165.335 238.734 163.685C238.631 162.797 238.508 162.508 237.888 161.951C237.021 161.146 235.639 160.858 234.442 161.229C233.7 161.456 233.658 161.497 233.576 162.529C233.493 163.395 233.349 163.705 232.813 164.18C232.462 164.489 232.09 164.758 232.008 164.758C231.904 164.758 231.822 164.221 231.822 163.561C231.822 161.518 230.749 160.239 228.892 160.053C228.067 159.991 227.819 160.053 227.282 160.507L227.284 160.508ZM229.553 163.438C230.276 163.81 231.142 164.531 231.142 164.779C231.142 165.563 227.449 164.635 226.624 163.665C225.984 162.88 228.13 162.716 229.554 163.438H229.553Z" fill="#070405"/>
<path fill-rule="evenodd" clip-rule="evenodd" d="M217.627 171.877C216.636 172.846 217.07 174.415 218.473 174.869C219.835 175.323 221.135 174.25 220.867 172.888C220.619 171.526 218.597 170.907 217.627 171.877H217.627Z" fill="#070405"/>
<path fill-rule="evenodd" clip-rule="evenodd" d="M222.579 172.434C222.331 173.549 221.568 175.117 220.722 176.19C220.041 177.098 219.999 177.18 220.433 177.036C221.568 176.644 222.806 176.85 224.643 177.758C226.747 178.79 227.841 179.739 227.841 180.503C227.841 180.791 227.923 181.101 228.047 181.163C228.254 181.287 231.039 175.942 230.854 175.757C230.812 175.715 230.565 175.777 230.297 175.901C229.574 176.314 228.13 176.004 226.273 175.076C224.292 174.106 223.096 173.054 223.096 172.291C223.096 171.527 222.745 171.651 222.58 172.435L222.579 172.434Z" fill="#070405"/>
<path fill-rule="evenodd" clip-rule="evenodd" d="M219.752 178.48C218.329 179.45 216.905 181.823 216.905 183.226C216.905 184.237 217.215 184.753 218.04 185.083C218.824 185.434 219.319 185.31 221.217 184.361C223.239 183.35 224.498 183.288 225.365 184.155C225.901 184.691 225.901 185.806 225.344 186.507C224.787 187.208 224.457 187.208 224.622 186.486C224.932 185.269 223.714 183.99 222.476 184.258C221.63 184.444 221.135 185.083 221.135 186.053C221.135 187.58 222.93 188.488 224.478 187.745C226.025 186.982 227.428 184.238 227.119 182.587C226.933 181.596 225.922 180.503 224.911 180.234C223.941 179.966 223.405 180.07 220.97 180.977C219.958 181.349 219.009 181.596 218.844 181.534C218.39 181.369 218.514 180.461 219.071 179.925C219.669 179.306 220.907 179.223 221.877 179.739C222.93 180.275 222.847 179.842 221.753 178.872C221.196 178.377 220.68 177.964 220.618 177.964C220.556 177.964 220.164 178.191 219.752 178.48H219.752Z" fill="#070405"/>
<path fill-rule="evenodd" clip-rule="evenodd" d="M214.965 187.353C213.376 187.909 212.179 189.622 212.158 191.335C212.158 193.15 214.18 194.285 215.522 193.233C216.471 192.49 216.409 191.335 215.377 190.509C214.799 190.034 213.974 190.055 213.335 190.55C213.046 190.777 212.757 190.963 212.695 190.963C212.385 190.963 212.612 190.096 213.005 189.704C213.603 189.106 214.841 189.271 216.244 190.137C216.822 190.509 217.317 190.86 217.317 190.9C217.317 190.941 217.049 191.519 216.698 192.2C215.852 193.892 215.831 195.213 216.678 196.1C217.4 196.884 218.597 196.987 219.422 196.327C220.144 195.77 220.66 194.407 220.495 193.5C220.412 193.032 220.522 192.888 220.825 193.067C221.114 193.232 221.32 193.253 221.382 193.129C221.424 193.005 221.96 192.138 222.579 191.169C223.177 190.22 223.652 189.394 223.61 189.332C223.549 189.291 223.26 189.374 222.93 189.497C222.104 189.848 221.093 189.539 219.278 188.445C217.813 187.578 216.637 187.062 216.079 187.062C215.914 187.062 215.419 187.186 214.965 187.351V187.353ZM219.525 192.449C219.835 192.779 219.999 193.13 219.937 193.316C219.773 193.728 218.988 193.749 218.431 193.336C217.895 192.986 217.441 191.913 217.606 191.479C217.71 191.169 217.792 191.19 218.349 191.521C218.7 191.727 219.236 192.139 219.525 192.449H219.525Z" fill="#070405"/>
<path fill-rule="evenodd" clip-rule="evenodd" d="M208.857 193.811C208.094 194.161 207.557 194.739 205.39 197.608C204.111 199.279 203.08 200.682 203.08 200.723C203.08 200.764 203.513 200.765 204.07 200.723C204.916 200.641 205.205 200.723 206.258 201.384C208.073 202.477 210.199 204.252 210.714 205.119C210.983 205.531 211.189 206.13 211.168 206.48C211.168 206.81 211.23 207.058 211.333 207.017C211.519 206.955 215.522 201.817 216.388 200.537C217.275 199.217 216.966 197.504 215.666 196.596C214.903 196.06 213.809 195.915 213.025 196.245C212.117 196.617 212.158 196.638 212.158 195.915C212.158 194.966 211.044 193.852 209.992 193.749C209.538 193.687 209.022 193.728 208.857 193.811ZM209.064 196.431C209.827 196.823 210.302 197.504 210.302 198.227C210.302 198.867 209.91 199.836 209.641 199.836C209.394 199.836 206.175 197.34 206.175 197.133C206.175 197.051 206.422 196.783 206.711 196.555C207.351 196.039 208.238 195.998 209.063 196.431H209.064ZM213.417 199.052C213.892 199.3 214.387 199.836 214.655 200.352C215.068 201.115 215.088 201.301 214.861 201.858C214.717 202.208 214.428 202.642 214.201 202.827C213.85 203.178 213.726 203.116 211.869 201.692L209.888 200.186L210.321 199.608C211.126 198.473 212.095 198.308 213.416 199.051L213.417 199.052Z" fill="#070405"/>
<path fill-rule="evenodd" clip-rule="evenodd" d="M197.612 207.904C195.92 208.791 195.239 209.782 195.239 211.288C195.239 212.072 195.343 212.361 195.838 212.856C197.035 214.052 198.953 213.392 198.953 211.783C198.953 210.483 197.694 209.616 196.559 210.132C195.899 210.42 195.858 210.42 195.858 210.07C195.858 209.575 196.477 209.121 197.158 209.121C197.901 209.121 198.767 209.678 199.758 210.812L200.459 211.597L199.324 212.794C197.673 214.527 197.488 215.971 198.808 217.085C199.324 217.519 199.592 217.602 200.253 217.519C201.512 217.354 202.667 216.033 202.667 214.754C202.687 214.238 202.709 214.217 202.956 214.527C203.1 214.733 203.306 214.899 203.389 214.899C203.595 214.899 206.67 212.216 206.772 211.948C206.814 211.824 206.649 211.783 206.38 211.866C205.534 212.092 204.358 211.411 202.955 209.864C202.212 209.059 201.263 208.193 200.851 207.945C199.881 207.346 198.684 207.346 197.611 207.903L197.612 207.904ZM201.945 213.537C202.358 214.321 202.255 214.899 201.677 214.899C200.81 214.899 199.964 213.227 200.418 212.402L200.645 211.969L201.12 212.423C201.367 212.65 201.738 213.166 201.945 213.538L201.945 213.537Z" fill="#070405"/>
<path fill-rule="evenodd" clip-rule="evenodd" d="M189.585 210.318C189.667 210.71 189.585 211.04 189.317 211.371C188.966 211.783 188.656 211.887 187.171 212.011C185.066 212.196 184.819 212.299 184.509 213.042C184.323 213.517 184.323 213.743 184.591 214.239C185.086 215.188 185.54 215.25 185.54 214.383C185.54 213.414 186.201 212.836 187.274 212.836C188.697 212.815 189.874 212.506 190.41 212.011C191.009 211.412 191.029 210.999 190.472 210.277C189.894 209.555 189.441 209.555 189.585 210.319V210.318Z" fill="#070405"/>
<path fill-rule="evenodd" clip-rule="evenodd" d="M190.369 213.351C189.75 213.784 189.4 214.734 189.503 215.827C189.544 216.343 189.523 216.756 189.461 216.756C189.399 216.756 189.131 216.384 188.842 215.931C188.554 215.477 188.285 215.106 188.202 215.106C188.14 215.106 187.253 215.684 186.242 216.385L184.406 217.664L185.107 217.808C185.479 217.891 186.015 218.077 186.304 218.221C186.944 218.551 188.904 221.13 189.441 222.327C189.895 223.318 189.998 224.493 189.667 224.7C189.544 224.782 189.503 224.906 189.564 225.009C189.688 225.195 193.381 222.781 193.381 222.533C193.381 222.471 192.803 221.564 192.082 220.532C190.596 218.386 189.977 217.127 190.142 216.673C190.514 215.704 192.288 217.024 193.381 219.046C193.938 220.099 194.021 220.47 193.938 221.234C193.876 221.894 193.918 222.121 194.103 222.059C194.557 221.873 198.931 218.716 198.828 218.634C198.787 218.592 198.456 218.51 198.106 218.469C197.157 218.365 196.455 217.768 194.969 215.766C193.133 213.31 191.585 212.485 190.368 213.352L190.369 213.351Z" fill="#070405"/>
<path fill-rule="evenodd" clip-rule="evenodd" d="M182.59 218.675C181.455 219.026 180.506 219.892 179.887 221.11C178.65 223.627 179.619 226.495 182.137 227.671C184.592 228.827 187.089 227.568 187.811 224.824C188.142 223.586 187.811 223.318 187.048 224.164C186.45 224.845 185.294 225.195 184.592 224.927C184.283 224.803 184.304 224.721 184.757 224.226C186.078 222.823 186.346 220.924 185.418 219.686C184.985 219.129 183.746 218.345 183.436 218.427C183.395 218.427 183.024 218.551 182.59 218.675ZM183.065 221.77C183.663 222.802 183.931 224.391 183.498 224.391C183.147 224.391 181.992 223.049 181.496 222.08C181.001 221.11 180.877 220.45 181.125 220.202C181.434 219.913 182.486 220.759 183.064 221.77H183.065Z" fill="#070405"/>
<path fill-rule="evenodd" clip-rule="evenodd" d="M174.997 221.791C173.924 222.183 168.126 225.36 168.043 225.608C168.002 225.732 168.208 225.835 168.497 225.835C169.26 225.835 170.251 226.804 171.324 228.641C173.016 231.55 173.594 233.572 172.913 234.254C172.789 234.378 172.727 234.563 172.81 234.625C172.954 234.77 177.618 232.376 178.113 231.901C178.36 231.654 178.339 231.613 177.948 231.613C176.875 231.613 175.74 230.498 174.646 228.394C174.358 227.857 174.399 227.816 176.235 226.846C177.701 226.083 178.319 225.299 178.319 224.226C178.319 222.452 176.628 221.234 174.998 221.791L174.997 221.791ZM174.564 223.482C175.183 223.915 175.637 224.844 175.637 225.69C175.637 226.185 175.472 226.537 174.997 226.99C174.378 227.588 174.357 227.588 174.048 227.176C173.8 226.846 172.5 224.452 172.17 223.709C172.067 223.523 172.913 223.173 173.573 223.173C173.862 223.152 174.316 223.297 174.564 223.482Z" fill="#070405"/>
</g>
<defs>
<clipPath id="clip0_876_30858">
<rect width="256" height="256" fill="white"/>
</clipPath>
</defs>
</svg>
