<svg width="256" height="256" viewBox="0 0 256 256" fill="none" xmlns="http://www.w3.org/2000/svg">
<path d="M86.4951 147.164C86.5804 140.875 87.3918 134.681 89.2452 128.658C90.5147 124.535 92.7334 120.884 95.4206 117.525C101.096 110.428 108.122 104.975 116.215 100.857C118.145 99.8756 120.13 99.0001 122.375 99.0418C123.244 99.0582 124.076 99.2622 124.413 100.132C124.747 100.997 124.715 101.929 123.962 102.609C122.193 104.208 120.42 105.805 118.585 107.328C115.965 109.502 113.15 111.461 110.664 113.772C104.643 119.367 100.41 126.091 98.7471 134.201C96.6587 144.381 98.3489 153.872 104.559 162.358C108.361 167.555 113.356 171.362 119.211 174.057C122.783 175.701 126.512 176.831 130.442 177.154C133.398 177.397 136.261 176.802 138.947 175.596C147.212 171.886 152.896 165.728 155.539 157.126C157.632 150.313 156.687 143.713 152.152 138.01C148.597 133.539 143.829 131.116 137.999 131.234C134.431 131.305 131.207 132.636 128.183 134.462C127.991 134.578 127.802 134.702 127.603 134.801C126.711 135.241 126.301 135.116 125.871 134.236C124.073 130.564 122.284 126.886 120.492 123.212C120.296 122.811 120.098 122.411 119.905 122.009C119.408 120.975 119.621 120.165 120.681 119.765C123.702 118.626 126.723 117.472 129.802 116.508C132.392 115.698 135.093 115.188 137.818 115.302C145.279 115.617 152.145 117.616 157.816 122.735C161.614 126.164 164.15 130.408 165.833 135.184C167.367 139.541 168.143 144.042 168.177 148.653C168.205 152.484 167.599 156.251 166.707 159.967C165.521 164.906 163.752 169.623 161.073 173.969C157.436 179.871 152.569 184.354 145.959 186.79C143.029 187.87 139.987 188.456 136.89 188.83C133.804 189.202 130.719 189.225 127.638 188.939C124.034 188.605 120.513 187.837 117.088 186.65C109.474 184.013 102.839 179.828 97.1827 174.127C92.0148 168.917 88.5191 162.777 87.2511 155.52C86.7705 152.774 86.6148 149.974 86.3124 147.197C86.3738 147.186 86.4352 147.177 86.4966 147.167L86.4951 147.164Z" fill="#D80001"/>
<path d="M179.01 106.737C177.841 106.545 176.763 106.364 175.685 106.189C174.481 105.994 173.686 105.328 173.165 104.225C172.478 102.77 171.725 101.344 170.954 99.9308C169.538 97.3341 167.412 95.3761 165.171 93.4882C162.377 91.1342 159.69 88.6551 156.968 86.2178C156.271 85.5924 156.418 84.8197 157.295 84.4251C161.235 82.6548 164.939 80.4705 168.502 78.0495C175.448 73.3281 181.628 67.7997 186.527 60.9417C188.539 58.1262 190.204 55.1156 191.59 51.9486C191.68 51.7446 191.859 51.5794 191.999 51.3962C192.183 51.5749 192.419 51.7238 192.543 51.9382C193.729 53.9751 194.897 56.0208 196.068 58.0651C197.443 60.4683 199.328 62.4262 201.448 64.1876C203.706 66.0622 205.938 67.9635 208.182 69.853C208.886 70.4456 208.883 70.7046 208.047 71.1424C203.532 73.5113 199.057 75.962 194.47 78.1835C190.736 79.9911 186.868 81.5232 183.05 83.1565C182.6 83.3501 182.094 83.4141 181.616 83.5436C181.065 83.6925 180.492 83.7938 179.974 84.0201C179.585 84.1898 179.267 84.5234 178.917 84.7839C179.225 85.04 179.498 85.3691 179.848 85.5403C181.008 86.1046 182.188 86.6302 183.377 87.1349C184.139 87.458 184.798 87.2749 185.42 86.7002C188.039 84.2881 190.774 82.0279 193.903 80.2755C198.658 77.6103 203.742 76.4013 209.186 76.8822C211.496 77.0862 213.763 77.5656 215.88 78.5736C219.678 80.3841 221.802 83.432 222.299 87.531C222.925 92.6961 221.888 97.5961 219.383 102.149C216.48 107.426 212.591 111.802 207.201 114.702C204.275 116.278 201.138 117.161 197.807 117.396C194.021 117.664 190.337 117.269 186.861 115.703C182.875 113.907 180.208 110.915 179.007 106.734L179.01 106.737ZM205.435 90.1679C205.42 90.1187 205.406 90.0696 205.391 90.019C204.258 90.2453 203.069 90.3287 202 90.7262C198.96 91.8593 196.656 93.9661 194.903 96.6343C194.276 97.5887 193.841 98.6994 193.491 99.7938C193.147 100.866 193.761 101.735 194.897 101.874C195.621 101.962 196.401 101.951 197.105 101.78C200.842 100.873 204.132 99.0508 207.155 96.7296C208.17 95.9494 208.823 94.9071 209.092 93.643C209.468 91.8757 208.749 90.7575 206.981 90.4002C206.471 90.2974 205.951 90.2438 205.436 90.1679H205.435Z" fill="#D80001"/>
<path d="M124.383 235.398C120.676 235.203 116.956 235.146 113.266 234.786C102.363 233.721 91.8696 231.086 81.9484 226.367C75.6892 223.391 69.9479 219.621 64.5584 215.293C56.585 208.889 49.5802 201.543 43.3703 193.464C40.3926 189.589 37.7248 185.48 34.9328 181.466C34.6843 181.107 34.5286 180.677 34.3804 180.261C34.325 180.107 34.3519 179.822 34.4552 179.742C34.5585 179.663 34.8639 179.697 34.9777 179.798C35.7547 180.491 36.5511 181.171 37.2547 181.933C42.7625 187.911 48.372 193.782 54.4801 199.172C59.6525 203.737 65.2575 207.662 71.3836 210.841C76.282 213.383 81.1715 215.945 86.1418 218.341C89.7497 220.08 93.5568 221.327 97.542 221.957C97.9357 222.02 98.3295 222.079 98.7262 222.106C99.1663 222.137 99.4163 221.983 99.2067 221.49C97.792 218.169 97.551 214.629 97.3429 211.104C97.2096 208.862 97.2486 206.596 97.3938 204.352C97.5689 201.656 98.6618 199.203 100.042 196.927C101.416 194.662 102.954 192.493 104.484 190.325C105.321 189.141 105.956 189.229 106.503 190.603C107.713 193.638 108.852 196.699 110.02 199.75C110.108 199.982 110.197 200.213 110.284 200.445C110.602 201.292 110.469 201.601 109.779 202.163C108.761 202.994 107.789 203.883 106.8 204.748C106.11 205.351 105.908 206.158 105.888 207.017C105.882 207.273 105.971 207.57 106.11 207.787C107.274 209.614 109.854 209.924 111.463 208.479C112.417 207.622 112.936 206.532 113.152 205.327C113.713 202.19 114.218 199.041 114.7 195.891C114.8 195.238 114.688 194.557 114.698 193.889C114.712 193.078 115.01 192.716 115.782 192.85C117.294 193.114 118.797 193.462 120.281 193.858C121.037 194.061 121.128 194.781 121.101 195.439C121.024 197.371 121.025 199.315 120.78 201.225C120.444 203.844 120.19 206.526 119.401 209.024C117.773 214.184 115.615 219.142 112.272 223.492C112.121 223.689 111.918 223.853 111.797 224.066C111.637 224.348 111.535 224.663 111.408 224.963C111.701 225.054 111.992 225.205 112.291 225.225C113.484 225.31 114.679 225.364 115.874 225.41C117.642 225.48 119.411 225.546 121.181 225.587C122.049 225.608 122.426 225.266 122.471 224.407C122.634 221.214 122.763 218.019 122.931 214.827C123.081 211.981 123.266 209.138 123.435 206.294C123.617 203.227 123.796 200.161 123.979 197.094C124.021 196.401 124.06 195.707 124.126 195.017C124.179 194.442 124.462 194.104 125.105 194.168C126.888 194.344 128.671 194.527 130.457 194.67C131.244 194.734 131.565 195.195 131.584 195.882C131.606 196.672 131.535 197.466 131.508 198.258C131.436 200.363 131.353 202.47 131.3 204.577C131.189 208.89 131.096 213.204 130.99 217.516C130.892 221.481 130.792 225.446 130.687 229.412C130.647 230.949 130.573 232.484 130.547 234.021C130.536 234.621 130.187 234.899 129.683 234.951C128.398 235.082 127.108 235.161 125.817 235.241C125.346 235.271 124.87 235.246 124.395 235.246C124.392 235.294 124.391 235.341 124.388 235.39L124.383 235.398Z" fill="#D80001"/>
<path d="M229.777 143.044C228.704 141.592 227.846 140.319 226.873 139.139C225.234 137.151 222.904 136.185 220.611 135.22C219.334 134.682 217.971 134.347 216.673 133.852C216.402 133.747 216.161 133.372 216.056 133.07C215.854 132.491 215.803 131.859 215.606 131.277C215.293 130.354 214.681 130.205 214.091 130.963C212.95 132.431 211.842 133.929 210.814 135.476C209.269 137.799 207.511 139.885 205.017 141.254C202.605 142.578 200.036 142.879 197.351 142.446C194.645 142.009 192.136 140.986 189.69 139.816C187.176 138.615 185.44 136.564 183.985 134.282C180.937 129.505 178.959 124.3 177.872 118.755C177.667 117.712 177.496 116.662 177.333 115.611C177.279 115.271 177.249 114.914 177.29 114.574C177.402 113.639 177.977 113.412 178.713 113.997C182.212 116.771 186.281 118.184 190.618 118.992C192.951 119.427 195.285 119.244 197.622 119.148C197.943 119.135 198.268 119.166 198.592 119.18C199.433 119.217 199.915 119.607 200.19 120.445C200.466 121.281 200.896 122.086 201.375 122.829C202.086 123.932 203.159 124.55 204.49 124.328C207.971 123.749 210.591 122.166 211.369 118.76C211.612 117.7 211.817 116.626 211.95 115.548C212.272 112.956 213.815 111.208 215.929 109.921C220.091 107.389 225.699 107.88 229.08 112.902C231.273 116.162 232.643 119.747 233.24 123.612C234.197 129.799 233.225 135.744 230.806 141.478C230.571 142.035 230.133 142.507 229.777 143.04V143.044Z" fill="#D80001"/>
<path d="M105.37 51.0315C105.37 50.4195 105.417 49.8031 105.363 49.1956C105.087 46.1389 104.78 43.0866 104.497 40.0313C104.388 38.8476 104.303 37.6609 104.234 36.4757C104.144 34.9466 104.568 33.5351 105.336 32.2278C105.493 31.9598 105.743 31.7082 106.011 31.5459C107.263 30.7895 108.635 30.3503 110.093 30.2625C111.236 30.194 112.008 30.8714 112.594 31.7618C114.995 35.4112 117.387 39.065 119.772 42.7248C120.572 43.9516 121.281 45.2396 122.133 46.4262C122.753 47.2898 122.807 48.1906 122.736 49.1703C122.483 52.6782 122.248 56.1891 122.003 59.6985C121.979 60.044 121.92 60.3864 121.886 60.7318C121.778 61.7786 121.495 61.9066 120.557 61.381C119.386 60.7244 118.208 60.0782 117.019 59.4529C116.157 58.9987 115.784 59.1714 115.573 60.0961C115.215 61.6624 114.865 63.2288 114.529 64.7996C114.312 65.815 113.806 66.5044 112.772 66.9005C110.613 67.7283 108.49 68.65 106.37 69.5701C105.568 69.9185 104.87 69.8977 104.114 69.4287C103.144 68.8256 102.129 68.2896 101.107 67.776C100.508 67.4752 100.165 67.6926 100.313 68.3075C100.794 70.3027 99.5586 71.6278 98.4253 72.8889C97.7082 73.687 96.6318 74.1709 95.6991 74.7694C95.3203 75.0121 95.0134 74.8662 94.7559 74.4985C91.2273 69.4287 87.1448 64.7385 84.0908 59.3486C82.1745 55.9673 80.4469 52.4772 78.6683 49.0185C78.0965 47.9062 78.056 46.6734 78.1758 45.454C78.3195 43.9918 79.4678 42.9228 81.0023 42.7471C83.2165 42.4925 85.2959 43.1327 87.3798 43.7149C88.311 43.9755 89.2197 44.3209 90.133 44.644C90.9833 44.9448 91.2677 44.7646 91.1435 43.8817C90.9114 42.2409 90.6704 40.6001 90.35 38.9742C89.9683 37.0341 89.9324 37.046 91.8741 36.6738C93.437 36.3745 94.9999 36.0767 96.5569 35.7477C97.3638 35.5764 97.7935 35.9144 98.1259 36.6172C100.303 41.2358 102.503 45.8441 104.698 50.4553C104.8 50.6682 104.933 50.8647 105.051 51.0687C105.158 51.0568 105.265 51.0434 105.372 51.0315H105.37ZM111.51 46.4516C111.564 46.4694 111.617 46.4888 111.67 46.5066C111.67 46.6555 111.67 46.8044 111.67 46.9533C111.682 48.1192 112.212 48.4244 113.233 47.8333C113.836 47.4849 114.423 47.1111 115.01 46.7359C115.438 46.462 115.55 46.124 115.218 45.6803C114.788 45.1041 114.395 44.5011 113.966 43.9219C113.471 43.2518 112.733 43.2697 112.362 44.041C111.993 44.8048 111.787 45.646 111.508 46.453L111.51 46.4516Z" fill="#D80001"/>
<path d="M34.4552 119.434C33.1692 119.415 31.9326 119.605 30.7949 120.264C30.0448 120.698 29.5837 120.441 29.6077 119.559C29.6346 118.545 29.7424 117.533 29.8487 116.522C30.1182 113.962 30.4086 111.404 30.6871 108.846C30.8428 107.42 30.9865 105.992 31.1497 104.567C31.217 103.97 31.6347 103.787 32.3279 104.082C33.9747 104.785 35.6185 105.493 37.2488 106.233C45.8375 110.127 54.5969 113.575 63.6647 116.214C66.7157 117.103 69.7877 117.923 72.8537 118.764C74.2999 119.16 74.4526 119.278 74.3777 120.791C74.243 123.536 74.0379 126.28 73.8628 129.024C73.8388 129.395 73.8074 129.766 73.7969 130.138C73.758 131.521 73.0753 132.305 71.7189 132.513C65.819 133.417 59.934 134.432 54.1807 136.019C49.8946 137.202 45.6563 138.586 41.466 140.071C37.4389 141.499 33.4806 143.129 29.5313 144.767C28.3277 145.266 27.2767 146.119 26.1165 146.737C25.7737 146.92 25.2602 146.984 24.8904 146.875C24.3634 146.72 24.6045 146.242 24.6958 145.861C26.2228 139.466 27.7453 133.071 29.2694 126.676C29.5822 125.36 29.9954 125.174 31.3293 125.536C32.8069 125.936 34.307 126.487 35.8041 126.513C37.1125 126.533 38.4868 126.05 39.7324 125.543C41.1247 124.978 41.4106 123.7 40.5828 122.39C39.3626 120.46 37.5422 119.533 35.2741 119.436C35.0002 119.424 34.7262 119.434 34.4507 119.434H34.4552ZM54.0579 123.288L54.0175 123.398C53.5759 123.454 53.1238 123.471 52.6941 123.575C52.0114 123.739 51.3243 124.099 51.2659 124.812C51.2075 125.534 51.8453 126.014 52.4995 126.234C53.4591 126.556 54.4442 126.851 55.4427 127.005C56.5161 127.172 57.5806 126.998 58.4998 126.331C59.2109 125.814 59.2498 125.168 58.5671 124.616C58.2842 124.386 57.9443 124.174 57.5955 124.086C56.4248 123.788 55.2391 123.551 54.0594 123.291L54.0579 123.288Z" fill="#D80001"/>
<path d="M87.1373 175.071C87.2152 175.738 86.8409 176.491 86.1433 177.154C83.6761 179.501 81.2374 181.874 78.7777 184.226C77.9243 185.042 77.0605 185.007 76.2371 184.174C75.6083 183.538 75.038 182.819 74.3209 182.306C73.8418 181.963 73.1142 181.706 72.5603 181.795C71.8237 181.913 71.7234 182.746 71.5647 183.399C71.5468 183.47 71.5647 183.547 71.5528 183.62C71.168 186.023 70.3506 188.257 68.9553 190.271C67.3909 192.532 65.1528 193.553 62.4775 193.703C58.2288 193.94 54.2645 193.082 50.7359 190.587C48.7119 189.156 47.4349 187.191 46.4947 184.957C44.8614 181.08 43.8224 177.039 43.0619 172.918C42.9377 172.243 43.2236 171.879 44.0305 171.694C45.9917 171.246 47.9588 170.829 49.92 170.384C52.0758 169.894 54.2316 169.406 56.3799 168.883C57.7333 168.554 57.844 168.587 58.7094 169.674C59.7753 171.011 60.7888 172.404 61.9805 173.624C63.482 175.16 65.1677 174.973 66.5136 173.286C66.7442 172.997 66.9657 172.683 67.105 172.345C67.7143 170.856 68.2442 169.334 68.897 167.865C69.4883 166.533 70.1515 165.226 70.8701 163.958C71.963 162.028 73.8418 161.279 75.8958 160.832C77.842 160.409 79.4708 161.039 80.9245 162.286C84.7645 165.578 86.8454 169.732 87.1403 175.069L87.1373 175.071Z" fill="#D80001"/>
<path d="M64.8668 163.901C61.7978 163.59 58.7303 163.255 55.6568 162.975C53.7989 162.805 51.9306 162.595 50.0727 162.637C48.4049 162.674 46.9543 163.573 45.4856 164.313C43.2086 165.46 41.6501 167.357 40.1186 169.288C39.7024 169.813 39.2818 170.336 38.8536 170.853C38.4 171.401 37.9973 171.411 37.614 170.799C37.1544 170.065 36.7772 169.279 36.3759 168.509C35.5376 166.904 34.7022 165.296 33.8713 163.687C33.3818 162.738 33.551 162.385 34.6229 162.126C37.4673 161.443 39.9884 160.174 42.0529 158.079C43.4361 156.675 43.1412 155.255 41.2938 154.571C39.418 153.878 37.4958 153.931 35.5585 154.335C34.2935 154.598 33.018 154.811 31.7455 155.036C31.0164 155.164 30.5568 154.822 30.2858 154.166C29.4894 152.243 28.6795 150.325 27.8935 148.397C27.4773 147.375 27.5926 147.229 28.6615 147.107C32.8608 146.625 37.0721 146.211 41.2549 145.614C45.7117 144.978 50.0757 143.875 54.4112 142.66C59.6704 141.186 64.9491 139.782 70.2173 138.345C71.8177 137.909 72.0183 138.016 72.7848 139.548C74.2056 142.386 75.6308 145.224 76.4108 148.319C77.044 150.833 77.4827 153.368 76.7012 155.935C75.8194 158.83 73.8747 160.846 71.2608 162.257C69.2787 163.326 67.1483 163.87 64.8653 163.902L64.8668 163.901ZM61.8816 156.206C63.6108 156.112 65.253 155.77 66.7426 154.89C67.9882 154.154 68.8311 153.109 68.9493 151.641C69.1035 149.728 68.2936 148.532 66.319 148.473C65.4791 148.447 64.6258 148.497 63.7934 148.619C61.1451 149.009 58.7737 150.003 56.8844 151.96C56.0984 152.774 56.0864 153.105 56.8095 153.994C58.1195 155.608 59.922 156.108 61.8816 156.208V156.206Z" fill="#D80001"/>
<path d="M196.124 172.666C199 172.115 201.881 171.584 204.748 170.988C205.055 170.924 205.465 170.518 205.504 170.227C205.55 169.888 205.342 169.304 205.071 169.167C204.038 168.646 202.966 168.131 201.849 167.856C199.464 167.269 197.035 166.864 194.636 166.326C191.828 165.697 189.197 164.668 187.166 162.53C186.352 161.672 185.41 160.887 185.072 159.68C184.643 158.155 185.104 156.773 185.88 155.5C187.675 152.554 190.298 150.557 193.47 149.269C194.425 148.882 195.452 148.631 196.469 148.441C197.398 148.269 198.108 148.559 198.728 149.445C199.72 150.862 200.961 152.106 202.086 153.434C202.986 154.495 203.899 155.547 204.746 156.648C205.529 157.665 205.465 158.252 204.607 159.218C204.31 159.552 203.968 159.85 203.695 160.201C203.276 160.743 203.409 161.13 204.075 161.276C205.311 161.545 206.59 161.663 207.787 162.046C210.561 162.932 212.961 164.501 215 166.544C216.724 168.271 217.23 170.521 216.995 172.866C216.414 178.637 214.311 183.83 210.463 188.208C207.99 191.022 205.291 193.639 202.691 196.343C202.605 196.431 202.508 196.532 202.397 196.568C202.014 196.69 201.572 196.936 201.249 196.834C201.05 196.772 200.982 196.167 200.929 195.797C200.616 193.621 200.396 191.43 200.009 189.266C199.527 186.567 199.02 183.864 198.327 181.214C197.677 178.728 196.361 176.512 194.895 174.401C194.782 174.237 194.647 174.084 194.563 173.907C194.142 173.009 194.573 172.379 195.562 172.428C195.735 172.437 195.91 172.447 196.084 172.458C196.097 172.528 196.112 172.599 196.126 172.669L196.124 172.666Z" fill="#D80001"/>
<path d="M65.4971 86.0123C66.3429 86.925 67.3849 87.9584 68.3161 89.0825C69.0077 89.9178 69.5841 90.8528 70.156 91.7775C70.7323 92.7095 70.7907 93.7294 70.5198 94.7881C70.1664 96.1728 69.6544 97.4786 68.7023 98.5714C67.6573 99.77 66.6034 99.9934 65.2755 99.1104C61.7334 96.7579 58.2003 94.389 54.7241 91.9427C49.682 88.3931 44.6922 84.7706 39.683 81.1763C38.7039 80.475 38.4943 79.9196 38.8746 78.7628C39.0812 78.1314 39.3446 77.5016 39.689 76.9344C42.0978 72.9619 44.6952 69.1234 47.8211 65.6572C49.8017 63.4611 52.2524 62.1166 55.1568 61.719C58.1225 61.314 60.6825 62.2491 62.8308 64.3782C65.5584 67.0792 67.2187 70.2565 67.6873 74.0831C68.0241 76.8361 68.2322 79.5787 67.3325 82.2409C66.8968 83.5303 66.1423 84.714 65.4986 86.0123H65.4971ZM59.901 76.3522C59.886 76.2033 59.8726 75.8549 59.8097 75.5169C59.4414 73.5322 57.9488 72.6775 56.2287 72.14C53.6043 71.3196 50.8811 73.3922 51.0608 76.0365C51.0772 76.2703 51.212 76.5755 51.3931 76.7051C53.239 78.0079 55.1044 79.2869 56.9757 80.5554C57.1015 80.6418 57.3934 80.676 57.4832 80.5956C58.7063 79.4998 59.9758 78.4188 59.8995 76.3537L59.901 76.3522Z" fill="#D80001"/>
<path d="M99.5466 188.689C99.5361 191.924 98.5645 194.927 97.295 197.855C95.8218 201.251 93.952 204.385 91.1734 206.912C88.4862 209.354 85.3049 210.775 81.7538 211.432C79.4723 211.853 77.2087 211.914 74.9751 211.131C72.2668 210.183 70.9779 208.203 70.6635 205.447C70.2623 201.937 71.2743 198.731 72.7743 195.646C74.9062 191.263 77.7087 187.39 81.7149 184.478C85.0773 182.035 88.832 180.842 92.9939 181.1C97.2066 181.359 99.2576 183.829 99.5436 187.795C99.5645 188.092 99.5466 188.391 99.5466 188.689ZM83.688 198.142C83.682 200.158 84.6896 201.234 86.4861 201.014C87.055 200.944 87.6613 200.704 88.1269 200.371C89.8201 199.16 91.0866 197.57 91.886 195.655C92.3022 194.659 92.5732 193.566 91.6764 192.663C90.7887 191.768 89.6045 191.439 88.4442 191.823C86.1028 192.597 83.6626 195.061 83.688 198.143V198.142Z" fill="#D80001"/>
<path d="M171.695 174.916C171.776 172.827 172.04 170.799 172.834 168.87C173.068 168.302 173.361 167.741 173.721 167.244C174.924 165.578 176.591 165.088 178.446 165.974C179.603 166.526 180.784 167.153 181.729 167.997C184.928 170.86 188.13 173.735 191.13 176.8C193.526 179.247 194.699 182.432 195.491 185.718C196.422 189.58 196.656 193.507 196.234 197.448C196.089 198.806 195.78 200.195 195.265 201.456C194.407 203.562 192.665 204.346 190.41 203.923C188.25 203.518 186.521 202.303 184.899 200.938C181.131 197.765 178.413 193.779 176.124 189.484C174.406 186.262 172.926 182.937 172.264 179.322C171.998 177.867 171.881 176.384 171.697 174.915L171.695 174.916ZM186.09 185.447C186.082 185.379 186.076 185.179 186.042 184.986C185.551 182.231 183.893 180.31 181.58 178.875C180.988 178.507 180.315 178.332 179.664 178.683C178.947 179.07 178.94 179.809 178.922 180.51C178.919 180.632 178.944 180.756 178.958 180.879C179.145 182.627 180.255 183.917 181.253 185.225C181.838 185.995 182.588 186.726 183.42 187.207C184.765 187.983 186.073 187.113 186.088 185.447H186.09Z" fill="#D80001"/>
<path d="M134.587 33.678C137.765 34.1351 140.396 35.493 142.673 37.5581C146.089 40.6581 147.947 44.638 149.089 49.0005C150.221 53.3229 150.504 57.739 150.441 62.1805C150.353 68.3923 148.443 74.0859 145.335 79.4223C142.48 84.3223 138.942 88.6834 134.821 92.5799C134.496 92.8866 134.128 93.5462 133.622 93.0325C133.385 92.7928 133.406 92.0826 133.575 91.7029C136.093 86.0301 138.078 80.1757 139.457 74.1381C140.441 69.8261 140.846 65.4278 140.411 61.0057C140.077 57.6259 138.822 54.517 137.093 51.6255C136.054 49.8894 134.749 48.3111 133.643 46.6123C133.395 46.2341 133.387 45.6341 133.43 45.1502C133.693 42.1931 134 39.2406 134.298 36.2866C134.385 35.4334 134.488 34.5818 134.59 33.6795L134.587 33.678Z" fill="#D80001"/>
<path d="M135.61 223.943C135.276 223.943 135.15 223.943 135.026 223.943C134.253 223.933 134.089 223.656 134.369 222.918C134.982 221.301 135.659 219.701 136.167 218.052C137.556 213.542 137.873 208.905 137.463 204.232C137.218 201.426 136.719 198.644 136.429 195.841C136.243 194.046 136.647 193.297 138.27 192.78C141.773 191.665 145.246 190.452 148.749 189.336C150.61 188.744 151.104 189.186 150.883 191.072C150.438 194.856 149.995 198.638 149.54 202.42C149.29 204.506 149.008 206.589 148.767 208.676C148.718 209.112 148.74 209.571 148.817 210.004C148.968 210.853 149.452 211.118 150.276 210.816C151.576 210.341 152.622 209.541 153.386 208.374C153.56 208.109 153.868 207.932 154.114 207.714C154.319 207.97 154.602 208.197 154.715 208.488C156.262 212.403 157.789 216.323 159.31 220.248C159.775 221.451 159.506 221.765 158.213 221.866C155.907 222.045 153.606 222.298 151.303 222.523C148.505 222.795 145.709 223.081 142.911 223.34C140.682 223.546 138.448 223.72 136.216 223.908C135.943 223.93 135.67 223.94 135.605 223.945L135.61 223.943Z" fill="#D80001"/>
<path d="M181.642 211.377C181.691 212.17 181.323 212.584 180.612 212.907C175.541 215.212 170.489 217.554 165.427 219.882C165.202 219.984 164.964 220.063 164.726 220.135C164.021 220.346 163.582 220.092 163.512 219.38C163.292 217.139 163.018 214.9 162.909 212.653C162.517 204.62 160.443 197.101 156.205 190.209C155.901 189.713 155.687 189.138 155.551 188.571C155.373 187.825 155.611 187.216 156.241 186.671C158.76 184.494 161.237 182.267 163.723 180.053C164.809 179.085 165.527 179.286 165.866 180.726C167.172 186.282 168.466 191.844 169.743 197.408C170.08 198.876 170.336 200.363 170.643 201.839C170.851 202.835 171.152 202.987 171.995 202.442C173.308 201.592 174.584 200.686 175.879 199.809C176.106 199.656 176.333 199.501 176.58 199.388C177.275 199.071 177.565 199.19 177.821 199.917C179.02 203.325 180.217 206.736 181.396 210.151C181.531 210.542 181.562 210.969 181.642 211.378V211.377Z" fill="#D80001"/>
<path d="M79.7657 54.4456C79.5651 54.7404 79.3824 55.1647 79.0696 55.4417C77.9917 56.3976 76.8689 57.3013 75.764 58.2289C74.9481 58.9138 74.9331 59.0225 75.5484 59.8534C75.8883 60.3119 76.2431 60.7601 76.5799 61.2217C76.8614 61.6058 77.1728 61.6148 77.5381 61.3423C78.056 60.9566 78.574 60.568 79.11 60.2062C79.5965 59.8787 80.0591 59.9055 80.3975 60.4325C81.1879 61.6624 81.9589 62.9057 82.7539 64.1325C83.2105 64.8353 83.0907 65.5187 82.6536 66.1381C82.182 66.8037 81.6326 67.4141 81.1056 68.0395C80.3286 68.9626 80.3226 69.2172 81.0562 70.1344C81.3361 70.4828 81.5981 70.8446 81.8676 71.2005C82.5832 72.1489 82.8437 72.2412 83.9515 71.8794C84.9441 71.5548 85.9247 71.199 86.9187 70.8818C87.7152 70.6272 88.3619 70.8089 88.8006 71.5027C89.6733 72.8859 90.4982 74.3004 91.3231 75.7134C91.654 76.2777 91.5941 76.7274 90.9683 77.1353C87.7586 79.2273 84.5773 81.3594 81.3796 83.4692C80.5876 83.9918 80.3106 83.904 79.5995 82.9109C77.7791 80.3693 75.9691 77.8187 74.1532 75.2742C69.8281 69.2113 65.5001 63.1498 61.175 57.0869C60.6106 56.2963 60.6555 55.9896 61.4759 55.467C65.6498 52.8063 69.8296 50.1545 74.0109 47.5057C74.2819 47.3345 74.5753 47.1915 74.8718 47.0665C75.5275 46.788 75.9781 46.9399 76.3239 47.6189C77.3674 49.6736 78.4662 51.7015 79.5352 53.7443C79.625 53.9155 79.6594 54.1165 79.7642 54.4411L79.7657 54.4456Z" fill="#D80001"/>
<path d="M134.054 165.097C134.054 167.452 134.047 169.809 134.059 172.164C134.062 172.753 133.783 173.068 133.222 173.082C131.529 173.119 129.831 173.219 128.144 173.12C126.195 173.007 126.224 172.927 126.199 170.936C126.145 166.498 126.073 162.059 125.989 157.621C125.907 153.209 125.808 148.796 125.699 144.384C125.68 143.604 125.967 143.075 126.672 142.711C128.57 141.725 130.446 140.695 132.343 139.704C133.304 139.203 133.687 139.459 133.699 140.547C133.762 146.003 133.836 151.458 133.885 156.913C133.909 159.641 133.889 162.369 133.889 165.097C133.945 165.097 133.999 165.097 134.054 165.097Z" fill="#D80001"/>
<path d="M128.774 29.3899C128.864 30.9279 129.018 32.3826 129.021 33.8388C129.045 43.0895 129.049 52.3402 129.028 61.5924C129.02 65.6095 128.948 69.6266 128.886 73.6422C128.828 77.5075 128.746 81.3727 128.672 85.2395C128.666 85.5611 128.725 85.9244 128.596 86.1939C128.43 86.5423 128.145 86.9994 127.837 87.0649C127.564 87.123 126.977 86.7701 126.898 86.4931C126.46 84.9819 125.983 83.4572 125.795 81.9028C124.699 72.8725 124.816 63.793 124.891 54.7224C124.929 49.9906 125.138 45.2603 125.328 40.5315C125.455 37.3392 125.73 34.1529 125.843 30.9622C125.879 29.9348 126.543 29.3184 127.689 29.2946C128.007 29.2871 128.328 29.3482 128.777 29.3899H128.774Z" fill="#D80001"/>
</svg>
