<svg width="256" height="256" viewBox="0 0 256 256" fill="none" xmlns="http://www.w3.org/2000/svg">
<path d="M127.236 249.6C194.855 249.6 249.672 195.158 249.672 128C249.672 60.8421 194.855 6.3999 127.236 6.3999C59.6164 6.3999 4.79999 60.8421 4.79999 128C4.79999 195.158 59.6164 249.6 127.236 249.6Z" fill="#CE3B3E"/>
<path d="M126.59 239.748C188.466 239.748 238.626 189.942 238.626 128.503C238.626 67.0644 188.466 17.2583 126.59 17.2583C64.7147 17.2583 14.5547 67.0644 14.5547 128.503C14.5547 189.942 64.7147 239.748 126.59 239.748Z" fill="#FFE62F"/>
<path d="M125.012 50.4807C125.012 50.4807 75.4498 59.9728 82.6941 92.1167C82.6941 92.1167 83.77 106.427 111.098 100.458C111.098 100.458 117.84 89.3841 128.455 95.2088C128.455 95.2088 144.091 87.874 149.829 94.5616C149.829 94.5616 150.26 120.593 173.929 123.973C173.929 123.973 164.605 121.6 169.482 98.8043C169.482 98.8043 184.33 61.9144 149.758 69.5369C149.758 69.5369 150.618 62.4178 170.486 64.7908C170.486 64.7908 153.559 39.7661 118.198 65.1504C118.198 65.1504 116.118 56.8088 124.941 50.5526L125.012 50.4807Z" fill="#CE3B3E"/>
<path d="M107.87 104.341C107.87 104.341 80.112 113.546 94.5289 146.696C108.946 179.847 102.132 201.276 103.638 205.519C105.144 209.762 161.664 192.791 161.664 192.791C161.664 192.791 166.542 106.067 133.906 101.609C133.906 101.609 129.029 97.8695 107.87 104.341Z" fill="#008D4D"/>
<path d="M108.731 112.539C108.731 112.539 119.346 75.7933 133.691 108.656L108.731 112.539Z" fill="#008D4D"/>
<path d="M109.089 112.683L108.372 112.467C108.587 111.748 113.464 95.2089 121.283 94.6336C125.586 94.346 129.89 99.0201 134.05 108.512L133.333 108.8C129.316 99.6673 125.299 95.137 121.283 95.4246C113.967 95.928 109.089 112.539 109.017 112.683H109.089Z" fill="white"/>
<path d="M134.05 120.09C136.273 128.431 134.05 135.91 129.172 136.773C124.223 137.636 118.485 131.523 116.262 123.182C114.038 114.84 116.262 107.362 121.139 106.499C126.088 105.636 131.826 111.748 134.05 120.09Z" fill="white"/>
<path d="M108.372 127.137C110.309 132.818 108.731 138.067 104.786 138.93C100.912 139.793 96.1786 135.91 94.242 130.229C92.3054 124.548 93.8834 119.299 97.8283 118.436C101.701 117.573 106.435 121.456 108.372 127.137Z" fill="white"/>
<path d="M131.324 123.685C132.83 127.353 131.898 130.876 129.172 131.595C126.447 132.315 123.004 129.942 121.498 126.274C119.992 122.607 120.924 119.083 123.65 118.364C126.375 117.645 129.818 120.018 131.324 123.685Z" fill="black"/>
<path d="M128.168 132.099C125.514 132.099 122.574 129.798 121.139 126.418C120.207 124.189 120.135 121.816 120.996 120.162C121.569 119.011 122.43 118.292 123.578 118.004C126.447 117.213 130.105 119.73 131.683 123.541C132.615 125.771 132.687 128.144 131.826 129.798C131.252 130.948 130.392 131.667 129.244 131.955C128.886 132.027 128.527 132.099 128.168 132.099ZM124.725 118.652C124.725 118.652 124.08 118.652 123.793 118.795C122.861 119.011 122.143 119.658 121.713 120.593C120.996 122.103 121.067 124.189 121.928 126.202C123.363 129.654 126.59 131.955 129.172 131.308C130.105 131.092 130.822 130.445 131.252 129.51C131.97 128 131.898 125.915 131.037 123.901C129.746 120.809 127.092 118.723 124.725 118.723V118.652Z" fill="#1D1D1B"/>
<path d="M126.232 121.744C126.519 123.038 126.017 124.189 125.156 124.261C124.295 124.332 123.434 123.398 123.147 122.103C122.861 120.809 123.363 119.658 124.223 119.586C125.084 119.514 125.945 120.449 126.232 121.744Z" fill="#FDFDFE"/>
<path d="M105.359 130.229C106.579 133.537 105.862 136.557 103.71 137.132C101.558 137.636 98.8324 135.407 97.6131 132.099C96.3937 128.791 97.111 125.771 99.2628 125.195C101.415 124.692 104.14 126.921 105.359 130.229Z" fill="black"/>
<path d="M103.136 137.564C100.984 137.564 98.5455 135.407 97.3262 132.243C96.5372 130.085 96.4655 127.928 97.3262 126.418C97.7565 125.555 98.4738 125.052 99.2628 124.836C101.63 124.261 104.499 126.562 105.79 130.085C106.579 132.243 106.651 134.4 105.79 135.838C105.359 136.701 104.642 137.204 103.853 137.42C103.638 137.42 103.351 137.492 103.136 137.492V137.564ZM99.9083 125.555C99.9083 125.555 99.5497 125.555 99.3345 125.555C98.689 125.699 98.1869 126.13 97.9 126.777C97.2544 128 97.2544 130.013 97.9717 131.955C99.1193 135.047 101.701 137.204 103.638 136.701C104.284 136.557 104.786 136.126 105.073 135.479C105.718 134.256 105.718 132.243 105.001 130.301C103.925 127.496 101.773 125.483 99.9083 125.483V125.555Z" fill="#1D1D1B"/>
<path d="M101.845 128.287C102.132 129.582 101.63 130.732 100.769 130.804C99.9083 130.876 99.0476 129.941 98.7607 128.647C98.4738 127.353 98.9759 126.202 99.8366 126.13C100.697 126.058 101.558 126.993 101.845 128.287Z" fill="#FDFDFE"/>
<path d="M123.219 171.937C123.219 171.937 141.868 165.034 131.396 143.173C131.396 143.173 117.84 150.148 95.6765 152.881L114.756 153.096C114.756 153.096 122.43 161.294 123.219 171.937Z" fill="#FFE62F"/>
<path d="M122.861 172.512V172.009C122.072 162.301 115.473 154.535 114.54 153.528L95.6048 153.312V152.593C117.409 149.86 131.037 143.029 131.181 142.957L131.539 142.813L131.683 143.173C135.197 150.436 135.843 156.908 133.619 162.301C130.679 169.636 123.578 172.368 123.291 172.44L122.789 172.584L122.861 172.512ZM100.554 152.593L114.899 152.809L115.042 152.953C115.042 152.953 122.574 161.15 123.578 171.505C125.227 170.786 130.607 167.91 133.046 161.941C135.126 156.836 134.48 150.723 131.252 143.748C129.172 144.755 117.911 149.86 100.554 152.665V152.593Z" fill="white"/>
<path d="M132.615 155.11C132.615 155.11 115.258 157.842 125.873 169.06C125.873 169.06 135.197 163.595 132.615 155.11Z" fill="#CE3B3E"/>
<path d="M110.667 175.173C116.836 188.764 132.041 186.894 132.041 186.894C149.184 172.943 136.488 139.937 136.488 139.937C119.346 138.714 112.747 134.184 112.747 134.184C112.747 134.184 106.364 144.036 84.4156 154.247C84.4156 154.247 115.545 151.514 131.396 143.173C131.396 143.173 145.167 167.191 115.76 174.669L110.667 175.173Z" fill="#FFE62F"/>
<path d="M130.248 187.325C125.945 187.325 115.186 186.175 110.309 175.317L110.093 174.813L115.688 174.238C124.654 171.937 130.464 167.838 132.902 162.085C136.273 154.175 132.113 145.402 131.181 143.676C115.329 151.802 84.7025 154.606 84.3439 154.606L84.1287 153.887C105.79 143.892 112.245 134.04 112.317 133.968L112.532 133.609L112.819 133.824C112.819 133.824 119.561 138.355 136.345 139.505H136.56L136.632 139.721C136.775 140.081 149.256 173.159 132.041 187.11H131.97L131.826 187.182C131.826 187.182 131.109 187.254 130.033 187.254L130.248 187.325ZM111.169 175.46C116.979 187.541 130.535 186.606 131.826 186.534C147.678 173.447 137.206 143.245 136.13 140.296C121.067 139.218 114.254 135.55 112.819 134.687C111.6 136.413 104.929 144.755 86.4956 153.672C93.8117 152.881 117.983 149.788 131.181 142.885L131.468 142.741L131.683 143.029C131.683 143.029 137.493 153.312 133.619 162.445C131.109 168.485 125.084 172.728 115.831 175.029L111.241 175.46H111.169Z" fill="white"/>
<path d="M121.641 227.595L124.08 227.739L125.299 223.497L121.856 223.281L122 221.627L125.801 221.843L127.021 217.6L118.342 217.097L117.409 233.348L125.084 233.78L126.375 229.537L121.57 229.321L121.641 227.595Z" fill="#1D1D1B"/>
<path d="M85.348 202.211C85.348 202.211 83.1245 206.526 82.0486 208.611L78.1754 206.598L81.4031 200.198L76.454 199.047C74.876 202.139 72.9394 205.879 71.3615 208.971C70.2139 211.128 69.0663 213.357 67.9186 215.586C69.2097 216.737 70.5008 217.888 71.7918 219.038C73.1546 216.377 74.4457 213.789 75.8085 211.2C77.1713 211.847 78.3906 212.494 79.7534 213.213C78.4623 215.802 77.1713 218.391 75.8802 220.98C77.4582 221.339 80.901 222.202 80.901 222.202C80.901 222.202 86.7108 210.768 89.3646 205.591C89.3646 205.591 86.6391 203.29 85.4197 202.211H85.348Z" fill="#1D1D1B"/>
<path d="M150.188 218.751C150.188 218.751 148.323 215.802 147.462 214.22C146.458 214.724 143.876 215.874 143.876 215.874C143.948 219.254 144.02 223.353 144.091 226.733C144.091 228.099 144.091 231.622 144.091 231.622C145.311 231.694 147.104 231.91 148.467 231.982C148.323 229.034 148.18 226.301 148.036 223.568C148.682 224.575 150.905 228.746 150.905 228.746L154.635 228.027L154.133 221.555C155.639 224.072 157.074 226.517 158.58 229.106C159.871 228.315 161.09 227.452 162.238 226.733C162.238 226.733 156.715 217.456 154.133 213.142C154.133 213.142 151.479 213.357 150.188 213.501V218.751Z" fill="#1D1D1B"/>
<path d="M107.87 220.261C109.089 219.254 109.95 219.038 110.811 220.692L114.469 218.103C113.034 215.155 109.448 214.076 106.507 215.73C102.993 217.672 100.697 222.202 101.199 226.157C101.63 229.537 104.355 231.766 107.583 231.551C111.384 231.263 113.823 227.524 113.895 224.288C113.895 224.144 113.895 223.856 113.895 223.856L109.017 222.777L107.296 226.229C107.87 226.373 108.3 226.517 108.874 226.661C108.013 227.452 107.153 227.38 106.364 227.092C105.575 226.804 105.359 226.085 105.359 225.222C105.503 223.209 106.364 221.483 107.87 220.189V220.261Z" fill="#1D1D1B"/>
<path d="M83.9135 223.568L87.2846 226.301L89.5081 223.137L93.3096 224.503L93.0944 228.315L97.3979 228.53L97.9717 211.056L94.0268 210.409L83.9135 223.568ZM91.8033 219.901L93.5965 217.456L93.453 220.476L91.875 219.901H91.8033Z" fill="#1D1D1B"/>
<path d="M161.664 209.546L163.959 226.013L168.263 225.51L167.546 221.699L171.204 219.901L173.786 222.706L176.942 219.757L164.892 207.173L161.664 209.546ZM168.478 217.097L166.972 217.816L166.47 214.867L168.55 217.097H168.478Z" fill="#1D1D1B"/>
<path d="M129.244 221.483L132.615 221.195L133.548 233.133L137.995 233.708L136.991 220.836L139.644 220.692L140.146 216.234L129.818 217.025L129.244 221.483Z" fill="#1D1D1B"/>
<path d="M186.696 206.526C185.836 204.944 184.688 203.434 183.397 201.995C182.106 200.557 180.958 199.407 179.954 198.4L179.667 198.112L176.87 201.42L177.157 201.636C177.587 202.067 178.233 202.715 179.165 203.649C180.098 204.584 180.958 205.591 181.747 206.67C182.536 207.748 183.038 208.755 183.325 209.762C183.612 210.625 183.325 211.344 182.68 211.847C181.963 212.351 181.317 212.351 180.528 211.775C179.667 211.128 178.878 210.265 178.161 209.186C177.444 208.036 176.727 206.885 176.225 205.663C175.651 204.44 175.292 203.577 175.005 203.074L174.862 202.715L170.845 204.368L171.06 204.728C171.634 205.879 172.351 207.317 173.284 208.971C174.216 210.697 175.22 212.279 176.44 213.645C177.659 215.083 179.022 216.09 180.456 216.665C180.958 216.881 181.46 216.953 182.034 216.953C183.11 216.953 184.258 216.521 185.405 215.73C187.127 214.508 188.059 213.07 188.059 211.344C188.059 209.762 187.629 208.108 186.696 206.526Z" fill="#1D1D1B"/>
<path d="M84.2004 29.1235C84.4156 29.9865 84.2004 30.4898 83.6266 30.7056C83.2679 30.8494 82.479 30.9213 81.3314 30.9213C80.1837 30.9213 79.323 31.0651 78.6775 31.2808C77.8168 31.6404 77.1713 32.2876 76.7409 33.2224C76.3823 34.2292 76.3823 35.3797 76.8126 36.8179L79.323 35.8831C79.1796 34.9483 79.323 34.373 79.8968 34.1572C80.1837 34.0134 80.6141 34.0134 81.1162 34.0134C81.6183 34.0134 82.0486 34.0134 82.3355 34.0134C83.6983 34.0134 84.7025 33.8696 85.2045 33.6539C86.0653 33.3662 86.6391 32.719 86.926 31.7842C87.2129 30.8494 87.1411 29.6269 86.7108 28.0449L84.2004 28.9797V29.1235Z" fill="#1D1D1B"/>
<path fill-rule="evenodd" clip-rule="evenodd" d="M116.19 43.2898L120.78 43.937H120.852L119.991 36.746C122.215 36.1707 123.865 35.0202 124.941 33.3662C125.73 32.0718 126.088 30.6336 125.873 29.0516C125.801 28.4763 125.658 27.901 125.443 27.3258C124.797 25.7437 124.008 24.6651 123.076 24.0898C122.072 23.4426 120.924 23.2269 119.633 23.3707C118.772 23.4426 117.983 23.6583 117.122 24.0179L116.8 24.1471C115.859 24.523 115.034 24.8527 114.325 25.2404H114.038L116.19 43.2898ZM119.346 32.5033L118.844 28.4044C119.203 28.1887 119.561 28.0449 119.92 28.0449H120.35C120.852 28.1168 121.211 28.4044 121.498 28.9078C121.641 29.1954 121.713 29.4831 121.713 29.6988C121.785 30.2741 121.641 30.8494 121.139 31.3527C120.565 31.928 119.992 32.3595 119.346 32.5033Z" fill="#1D1D1B"/>
<path d="M99.4724 48.6828L99.478 48.6831V48.755L99.4724 48.6828Z" fill="#1D1D1B"/>
<path fill-rule="evenodd" clip-rule="evenodd" d="M99.1911 45.0157L99.4724 48.6828L95.4613 48.4674L94.8875 32.719L98.0435 30.9213L107.44 44.5842L104.284 47.0291L102.275 44.0089L99.1911 45.0157ZM98.9759 40.9887L98.8324 38.8314L99.9801 40.6291L98.9759 40.9887Z" fill="#1D1D1B"/>
<path d="M78.821 39.8382L85.2046 53.7168L85.1328 53.7887L89.1495 53.1415L86.2087 46.7415L92.2337 51.5595L95.3179 49.0426L88.7909 35.0921L84.7025 35.955L87.8584 42.6426L81.69 37.3932L78.821 39.8382Z" fill="#1D1D1B"/>
<path d="M68.9228 45.4472L77.0995 59.5415H77.1712L83.8417 55.6584L82.5507 51.4157L78.3906 53.8606L77.5299 52.4224L79.6099 51.2L78.3189 46.9573L75.3064 48.6831L74.4457 47.2449L77.7451 45.3033L76.454 41.0606L68.9228 45.4472Z" fill="#1D1D1B"/>
<path fill-rule="evenodd" clip-rule="evenodd" d="M55.797 50.9123L66.1972 65.7977L66.1255 65.8696L70.429 64.2876L66.3407 58.319C68.0621 56.737 68.9945 54.9392 69.138 52.9977C69.2814 51.4876 68.9228 50.0494 67.9904 48.755C67.7035 48.2516 67.2731 47.8201 66.8428 47.3887C65.48 46.31 64.2606 45.6628 63.1848 45.6628C62.0371 45.5909 60.8895 45.9505 59.8136 46.6696C59.1681 47.101 58.5226 47.6763 57.9488 48.3954L57.5188 48.9139L57.5163 48.917C56.9696 49.5769 56.4682 50.1821 56.0122 50.6965L55.797 50.9123ZM63.8303 54.7235L61.5351 51.4156C61.7502 51.0561 62.0371 50.7685 62.324 50.5527C62.3806 50.5243 62.426 50.4848 62.4691 50.4473C62.5352 50.3897 62.5958 50.337 62.6827 50.337C63.113 50.1213 63.6151 50.1932 64.1172 50.5527C64.3324 50.7685 64.4758 50.9123 64.6193 51.128C64.9779 51.6314 65.1213 52.2067 64.9062 52.8538C64.691 53.6449 64.3324 54.292 63.8303 54.7235Z" fill="#1D1D1B"/>
<path fill-rule="evenodd" clip-rule="evenodd" d="M131.539 43.3618H131.755L131.826 43.4337C133.333 43.4337 134.695 42.9303 135.843 41.7797C136.919 40.773 137.708 39.3348 138.282 37.6809C138.64 36.6022 138.855 35.4516 138.855 34.3011V32.5752C138.712 30.7775 138.066 29.2674 136.991 27.973C135.771 27.0382 134.624 26.4629 133.548 26.4629C132.759 26.391 131.898 26.6786 131.109 27.182C129.388 28.3326 128.097 29.9865 127.308 32.2157C126.877 33.3663 126.59 34.5887 126.59 35.8112C126.519 36.8179 126.662 37.8247 126.877 38.9033C127.379 41.2764 128.957 42.7865 131.539 43.3618ZM134.48 36.2427C133.906 38.0404 132.974 38.9033 131.683 38.9033H131.611C130.75 38.6157 130.248 38.0404 130.248 36.9618V36.2427C130.32 35.3078 130.535 34.373 130.894 33.4382C131.324 32.3595 131.898 31.5685 132.687 31.0651C132.902 30.8494 133.046 30.8494 133.261 30.8494C133.691 30.8494 134.122 31.137 134.48 31.7842C134.767 32.2876 134.839 33.0067 134.839 33.7977C134.839 34.6606 134.695 35.4516 134.48 36.2427Z" fill="#1D1D1B"/>
<path d="M144.665 44.5123C145.096 44.6561 145.454 44.6561 145.813 44.6561L145.741 44.5123C148.323 44.5123 150.116 42.7146 151.192 39.0471C151.407 38.3999 151.551 37.6808 151.694 36.9618C151.91 35.8831 152.125 34.8044 152.125 33.7258C152.268 31.9999 152.34 30.346 152.34 28.9797V28.5483L148.467 28.9078V31.9999C148.467 33.1505 148.323 34.4449 148.108 35.7393C147.606 38.7595 146.674 40.1258 145.454 39.9101C145.024 39.8382 144.378 39.5505 144.235 38.1123C144.163 37.3213 144.235 36.3146 144.522 35.0921C144.809 33.6539 145.454 31.4966 146.458 28.8359L146.602 28.4764L143.087 26.8943L142.944 27.3258C142.78 27.8996 142.547 28.637 142.27 29.5114C142.061 30.1709 141.828 30.9084 141.581 31.7123C141.359 32.5462 141.18 33.3371 141.011 34.0851L141.01 34.0893C140.961 34.3073 140.912 34.5218 140.864 34.7325C140.146 38.328 140.433 40.9168 141.509 42.5707C142.227 43.5775 143.302 44.2247 144.665 44.5123Z" fill="#1D1D1B"/>
<path fill-rule="evenodd" clip-rule="evenodd" d="M158.221 48.3235L162.166 48.6831V48.5393L167.187 34.0134L163.673 31.7842L161.234 38.7595L160.445 30.7056L156.715 30.4898L151.623 44.9438L154.922 47.3168L157.217 40.7011L158.221 48.3235ZM161.044 40.6292L161.019 40.7011L161.012 40.6292H161.044Z" fill="#1D1D1B"/>
<path fill-rule="evenodd" clip-rule="evenodd" d="M169.913 53.6449L173.858 54.1483V54.2202L176.87 37.8966L173.356 36.8898L162.597 48.3955L165.251 51.4157L167.689 48.6112L170.63 50.0494L169.913 53.6449ZM171.419 46.1662L170.415 45.6629L171.849 44.0089L171.419 46.1662Z" fill="#1D1D1B"/>
<path d="M179.954 59.8176V59.8291H179.883L179.954 59.8176Z" fill="#1D1D1B"/>
<path fill-rule="evenodd" clip-rule="evenodd" d="M179.954 59.8176V59.4696C179.667 58.6066 179.596 57.3123 179.667 55.7302V53.2134L176.798 57.6718L174.145 54.7235L182.321 41.9954H182.608C182.967 42.1392 183.325 42.2651 183.684 42.3909C184.043 42.5168 184.401 42.6426 184.76 42.7864C185.621 43.074 186.338 43.4335 186.911 43.7211C187.844 44.2964 188.418 45.0875 188.777 46.0224C189.063 46.9572 188.992 48.0359 188.561 49.4021C188.545 49.4436 188.528 49.486 188.511 49.5293C188.382 49.8612 188.233 50.2429 187.916 50.6246C187.414 51.3437 186.84 51.9909 186.051 52.4943C185.119 53.1415 184.114 53.3572 183.182 53.3572C183.182 53.5548 183.189 53.7725 183.196 54.0083C183.212 54.5446 183.232 55.175 183.182 55.8741C183.182 57.0246 183.182 58.0314 183.469 58.8224V59.2538L179.954 59.8176ZM183.612 49.546C182.967 49.6898 182.393 49.6179 181.963 49.4021H182.034L183.756 46.6696C184.114 46.6696 184.401 46.8134 184.616 46.9572C185.119 47.3168 185.262 47.6763 185.119 48.2516C185.069 48.402 184.984 48.5525 184.913 48.6785C184.882 48.7332 184.853 48.7833 184.832 48.8269C184.545 49.2583 184.186 49.4741 183.612 49.546Z" fill="#1D1D1B"/>
<path fill-rule="evenodd" clip-rule="evenodd" d="M185.334 63.2808C186.553 63.9999 187.844 64.3595 189.135 64.3595H189.279C190.211 64.3595 191.215 64.1437 192.148 63.7123C193.869 62.9932 195.375 61.8426 196.523 60.3325C197.025 59.7572 197.455 59.0381 197.814 58.319C198.388 57.0965 198.603 55.8022 198.531 54.4359C198.173 53.0696 197.527 51.9909 196.666 51.3437L196.021 50.9123C194.801 50.337 193.582 49.7617 192.219 49.1864H191.932L182.465 61.3392L182.752 61.555C183.469 62.1302 184.329 62.7055 185.334 63.2808ZM190.641 60.1168C189.709 60.4763 188.92 60.4763 188.274 60.1168L192.937 54.0763C193.295 54.2201 193.582 54.3639 193.797 54.5078C194.228 54.7954 194.371 55.155 194.371 55.6583C194.299 56.5932 193.941 57.4561 193.223 58.2471C192.506 59.11 191.574 59.7572 190.641 60.1168Z" fill="#1D1D1B"/>
</svg>
