<svg width="256" height="256" viewBox="0 0 256 256" fill="none" xmlns="http://www.w3.org/2000/svg">
<path d="M104.004 36.8612L24.027 69.3618C11.5655 74.4278 3.41333 86.5366 3.41333 99.9908V156.157C3.41333 169.609 11.5655 181.72 24.027 186.786L104.004 219.29C119.39 225.542 136.61 225.542 151.996 219.29L231.973 186.786C244.434 181.72 252.587 169.611 252.587 156.157V99.9908C252.587 86.5394 244.434 74.4278 231.973 69.3618L151.996 36.8612C136.61 30.6091 119.39 30.6091 104.004 36.8612Z" fill="white"/>
<path d="M73.3469 160.111C71.8706 159.386 70.4569 158.811 69.103 158.384C67.7519 157.958 66.3496 157.747 64.8989 157.747C63.6473 157.747 62.484 157.978 61.4059 158.441C60.3307 158.905 59.3977 159.548 58.6098 160.375C57.8219 161.2 57.2018 162.179 56.7524 163.305C56.303 164.432 56.0754 165.658 56.0754 166.986C56.0754 168.314 56.3001 169.54 56.7524 170.667C57.2047 171.793 57.8276 172.757 58.6297 173.557C59.4319 174.359 60.3876 174.985 61.5026 175.434C62.6148 175.883 63.8351 176.111 65.1634 176.111C65.738 176.111 66.3325 176.074 66.9469 175.997C67.5613 175.923 68.2241 175.789 68.938 175.602C69.652 175.414 70.42 175.164 71.2477 174.851C72.0726 174.538 72.9885 174.131 73.9897 173.631L75.6054 177.985C73.6029 179.038 71.7426 179.738 70.0303 180.087C68.3151 180.437 66.708 180.614 65.2061 180.614C63.1268 180.614 61.2125 180.27 59.4603 179.581C57.7081 178.893 56.1949 177.934 54.9177 176.708C53.6406 175.482 52.6393 174.043 51.914 172.39C51.1887 170.738 50.8246 168.937 50.8246 166.983C50.8246 164.932 51.22 163.066 52.0079 161.388C52.7958 159.713 53.8482 158.271 55.1624 157.07C56.4765 155.87 57.9841 154.937 59.6879 154.274C61.3889 153.611 63.1666 153.279 65.0184 153.279C66.5458 153.279 68.1473 153.461 69.8255 153.822C71.5009 154.186 73.3782 154.843 75.4575 155.793L73.3554 160.111H73.3469Z" fill="#112F19"/>
<path d="M95.0102 153.731C96.7624 153.731 98.2443 153.933 99.4589 154.331C100.673 154.732 101.655 155.27 102.406 155.947C103.157 156.624 103.7 157.397 104.038 158.273C104.377 159.149 104.545 160.051 104.545 160.976C104.545 164.104 103.157 166.295 100.378 167.546L108.413 178.998L104.283 181.589L95.6843 168.897H92.3051V180.386H87.2363V153.728H95.0074L95.0102 153.731ZM92.3051 164.619H94.6717C96.2475 164.619 97.4194 164.326 98.1818 163.738C98.9441 163.149 99.3281 162.329 99.3281 161.277C99.3281 160.327 98.9526 159.55 98.2017 158.95C97.4507 158.35 96.2504 158.049 94.5978 158.049H92.308V164.619H92.3051Z" fill="#112F19"/>
<path d="M142.845 179.897L138.266 181.965L133.911 172.416H124.41L119.979 182.042L115.51 179.897L127.3 154.294L130.304 153.017L142.845 179.897ZM129.141 162.028L126.362 168.149H131.957L129.141 162.028Z" fill="#112F19"/>
<path d="M161.729 153.731C163.356 153.731 164.753 153.933 165.916 154.331C167.08 154.732 168.038 155.281 168.789 155.984C169.54 156.683 170.092 157.491 170.442 158.404C170.792 159.317 170.968 160.302 170.968 161.351C170.968 162.304 170.817 163.243 170.519 164.167C170.217 165.094 169.7 165.925 168.96 166.665C168.22 167.404 167.239 168.004 166.013 168.468C164.787 168.932 163.248 169.162 161.394 169.162H158.427V180.389H153.321V153.731H161.732H161.729ZM158.427 164.881H161.28C162.105 164.881 162.808 164.787 163.382 164.599C163.957 164.412 164.42 164.161 164.77 163.849C165.12 163.536 165.376 163.166 165.541 162.742C165.703 162.315 165.786 161.866 165.786 161.391C165.786 160.466 165.447 159.67 164.773 159.007C164.096 158.345 162.995 158.012 161.468 158.012H158.427V164.884V164.881Z" fill="#112F19"/>
<path d="M195.371 160C194.244 159.4 193.28 158.905 192.481 158.518C191.679 158.131 190.842 157.935 189.966 157.935C188.991 157.935 188.177 158.236 187.526 158.837C186.874 159.437 186.55 160.188 186.55 161.089C186.55 161.914 186.852 162.56 187.452 163.024C188.052 163.487 188.803 163.888 189.705 164.224C190.606 164.562 191.588 164.887 192.651 165.2C193.715 165.512 194.697 165.951 195.598 166.514C196.5 167.077 197.251 167.816 197.851 168.73C198.451 169.643 198.753 170.863 198.753 172.39C198.753 173.719 198.52 174.899 198.059 175.937C197.595 176.976 196.964 177.852 196.162 178.566C195.359 179.28 194.421 179.823 193.346 180.198C192.27 180.574 191.118 180.762 189.892 180.762C188.464 180.762 187.056 180.5 185.668 179.974C184.28 179.447 182.821 178.696 181.294 177.721L183.171 173.289C183.646 173.616 184.147 173.952 184.673 174.302C185.199 174.652 185.717 174.973 186.232 175.26C186.744 175.548 187.258 175.787 187.77 175.974C188.282 176.162 188.777 176.256 189.252 176.256C190.003 176.256 190.646 176.156 191.187 175.954C191.724 175.755 192.162 175.491 192.501 175.167C192.839 174.842 193.084 174.478 193.232 174.077C193.383 173.676 193.456 173.275 193.456 172.877C193.456 171.85 193.155 171.062 192.555 170.51C191.955 169.961 191.204 169.503 190.302 169.139C189.4 168.778 188.419 168.445 187.355 168.144C186.291 167.842 185.31 167.424 184.408 166.886C183.507 166.349 182.756 165.64 182.155 164.764C181.555 163.888 181.254 162.688 181.254 161.16C181.254 160.085 181.478 159.075 181.931 158.137C182.383 157.198 182.989 156.379 183.751 155.676C184.514 154.977 185.415 154.425 186.453 154.024C187.492 153.623 188.598 153.424 189.776 153.424C192.253 153.424 194.771 154.211 197.322 155.79L195.371 159.994V160Z" fill="#112F19"/>
<path d="M104.391 190.575C104.163 190.455 103.97 190.356 103.811 190.276C103.649 190.199 103.481 190.16 103.304 190.16C103.108 190.16 102.943 190.219 102.815 190.342C102.684 190.461 102.619 190.615 102.619 190.794C102.619 190.959 102.679 191.09 102.801 191.184C102.92 191.277 103.074 191.357 103.253 191.425C103.435 191.494 103.632 191.559 103.845 191.622C104.058 191.684 104.257 191.772 104.437 191.886C104.619 192 104.769 192.148 104.889 192.333C105.008 192.518 105.071 192.762 105.071 193.069C105.071 193.337 105.025 193.573 104.931 193.783C104.838 193.991 104.712 194.167 104.55 194.313C104.388 194.455 104.2 194.566 103.984 194.64C103.768 194.716 103.538 194.753 103.29 194.753C103.003 194.753 102.721 194.699 102.44 194.594C102.161 194.489 101.868 194.338 101.561 194.142L101.939 193.252C102.036 193.317 102.135 193.385 102.241 193.456C102.346 193.527 102.451 193.59 102.554 193.65C102.656 193.707 102.761 193.755 102.864 193.792C102.966 193.829 103.066 193.849 103.162 193.849C103.313 193.849 103.444 193.829 103.552 193.789C103.66 193.749 103.748 193.695 103.816 193.63C103.885 193.564 103.933 193.49 103.964 193.411C103.996 193.331 104.01 193.249 104.01 193.169C104.01 192.961 103.95 192.805 103.828 192.694C103.708 192.583 103.555 192.492 103.376 192.418C103.194 192.344 102.997 192.279 102.784 192.219C102.571 192.159 102.371 192.074 102.192 191.966C102.01 191.858 101.859 191.716 101.74 191.539C101.621 191.363 101.558 191.121 101.558 190.814C101.558 190.598 101.603 190.396 101.695 190.205C101.786 190.017 101.908 189.852 102.061 189.71C102.215 189.568 102.397 189.46 102.605 189.377C102.812 189.298 103.037 189.258 103.273 189.258C103.771 189.258 104.277 189.417 104.789 189.733L104.397 190.578L104.391 190.575Z" fill="#112F19"/>
<path d="M108.552 194.657H107.526V189.434L108.552 189.05V194.66V194.657Z" fill="#112F19"/>
<path d="M116.264 195.012L115.479 194.611L112.301 191.056V194.657H111.275V188.951L112.091 189.357L115.245 192.89V189.312H116.264V195.009V195.012Z" fill="#112F19"/>
<path d="M123.329 190.595C123.034 190.45 122.749 190.333 122.476 190.248C122.203 190.163 121.921 190.12 121.631 190.12C121.381 190.12 121.145 190.165 120.929 190.259C120.712 190.353 120.525 190.481 120.365 190.649C120.206 190.814 120.081 191.01 119.993 191.238C119.902 191.465 119.856 191.71 119.856 191.977C119.856 192.245 119.902 192.489 119.993 192.717C120.084 192.944 120.209 193.138 120.371 193.297C120.533 193.459 120.724 193.584 120.949 193.675C121.173 193.766 121.418 193.812 121.685 193.812C121.802 193.812 121.921 193.803 122.044 193.789C122.166 193.775 122.3 193.747 122.445 193.71C122.587 193.673 122.743 193.621 122.908 193.559C123.073 193.496 123.258 193.414 123.46 193.314L123.784 194.19C123.381 194.401 123.008 194.543 122.664 194.614C122.32 194.685 121.995 194.719 121.694 194.719C121.276 194.719 120.892 194.651 120.539 194.512C120.186 194.372 119.882 194.182 119.626 193.934C119.37 193.687 119.168 193.399 119.023 193.067C118.878 192.734 118.804 192.373 118.804 191.98C118.804 191.568 118.883 191.192 119.043 190.857C119.202 190.521 119.413 190.231 119.677 189.989C119.942 189.747 120.243 189.559 120.587 189.426C120.931 189.292 121.287 189.227 121.66 189.227C121.967 189.227 122.288 189.264 122.627 189.335C122.965 189.409 123.341 189.54 123.759 189.73L123.335 190.598L123.329 190.595Z" fill="#112F19"/>
<path d="M129.158 190.188H127.149V191.539H129.149V192.398H127.149V193.795H129.271L129.559 194.657H126.125V189.312H129.545L129.161 190.188H129.158Z" fill="#112F19"/>
<path d="M135.7 189.895C135.95 189.679 136.206 189.514 136.465 189.406C136.724 189.298 136.997 189.241 137.284 189.241C137.515 189.241 137.734 189.281 137.938 189.36C138.143 189.44 138.32 189.554 138.47 189.699C138.621 189.844 138.741 190.02 138.826 190.222C138.911 190.427 138.954 190.652 138.954 190.899C138.954 191.101 138.917 191.297 138.84 191.491C138.763 191.684 138.655 191.895 138.513 192.117C138.371 192.341 138.197 192.586 137.992 192.856C137.788 193.126 137.557 193.436 137.301 193.789H139.423V194.671H135.447C135.819 194.173 136.161 193.724 136.471 193.328C136.781 192.933 137.045 192.577 137.264 192.27C137.483 191.963 137.654 191.698 137.773 191.474C137.893 191.249 137.955 191.058 137.955 190.905C137.955 190.683 137.882 190.501 137.736 190.353C137.591 190.205 137.409 190.134 137.193 190.134C137.011 190.134 136.846 190.177 136.693 190.259C136.539 190.342 136.365 190.49 136.169 190.7L135.708 189.892L135.7 189.895Z" fill="#112F19"/>
<path d="M145.499 193.166C145.388 193.502 145.237 193.786 145.047 194.019C144.856 194.253 144.634 194.432 144.384 194.551C144.134 194.671 143.866 194.733 143.585 194.733C143.277 194.733 142.996 194.671 142.74 194.546C142.484 194.421 142.262 194.241 142.08 194.005C141.895 193.772 141.753 193.49 141.65 193.163C141.548 192.836 141.497 192.472 141.497 192.068C141.497 191.727 141.537 191.388 141.616 191.053C141.696 190.717 141.821 190.418 141.995 190.151C142.168 189.884 142.381 189.667 142.64 189.502C142.899 189.338 143.209 189.252 143.573 189.252C143.937 189.252 144.247 189.34 144.512 189.514C144.776 189.687 144.993 189.909 145.16 190.177C145.328 190.444 145.456 190.743 145.539 191.067C145.621 191.391 145.664 191.707 145.664 192.014C145.67 192.446 145.616 192.83 145.505 193.166H145.499ZM144.543 191.337C144.501 191.115 144.435 190.916 144.35 190.74C144.264 190.563 144.156 190.421 144.026 190.313C143.895 190.205 143.738 190.151 143.556 190.151C143.405 190.151 143.266 190.197 143.141 190.29C143.016 190.384 142.908 190.512 142.817 190.674C142.726 190.839 142.655 191.033 142.606 191.26C142.555 191.488 142.529 191.73 142.529 191.991C142.529 192.267 142.555 192.52 142.606 192.745C142.657 192.973 142.726 193.166 142.814 193.331C142.902 193.496 143.01 193.621 143.135 193.709C143.26 193.798 143.4 193.84 143.551 193.84C143.721 193.84 143.875 193.789 144.008 193.69C144.142 193.59 144.253 193.453 144.341 193.283C144.429 193.112 144.495 192.916 144.54 192.694C144.586 192.472 144.609 192.245 144.609 192.006C144.609 191.767 144.586 191.556 144.543 191.334V191.337Z" fill="#112F19"/>
<path d="M149.151 194.671H148.147V189.485L149.151 188.928V194.671Z" fill="#112F19"/>
<path d="M154.328 189.75C154.086 189.952 153.884 190.143 153.725 190.325C153.563 190.507 153.432 190.677 153.33 190.842C153.227 191.007 153.148 191.158 153.091 191.3C153.034 191.443 152.994 191.573 152.963 191.693C153.048 191.653 153.142 191.625 153.242 191.61C153.341 191.596 153.444 191.588 153.543 191.588C153.779 191.588 154.001 191.63 154.203 191.713C154.405 191.795 154.584 191.909 154.732 192.057C154.88 192.202 154.997 192.375 155.082 192.575C155.167 192.774 155.21 192.99 155.21 193.22C155.21 193.451 155.167 193.667 155.085 193.863C155.002 194.059 154.886 194.227 154.735 194.369C154.584 194.512 154.405 194.62 154.2 194.697C153.995 194.773 153.768 194.813 153.52 194.813C153.247 194.813 153.003 194.768 152.781 194.674C152.559 194.58 152.371 194.446 152.215 194.273C152.058 194.099 151.939 193.892 151.853 193.65C151.768 193.408 151.725 193.138 151.725 192.833C151.725 192.435 151.785 192.051 151.902 191.681C152.021 191.312 152.175 190.965 152.371 190.638C152.565 190.31 152.784 190.012 153.023 189.744C153.264 189.474 153.506 189.244 153.748 189.047L154.328 189.756V189.75ZM152.73 192.899C152.73 193.215 152.804 193.462 152.949 193.638C153.094 193.815 153.279 193.903 153.5 193.903C153.6 193.903 153.694 193.886 153.779 193.849C153.864 193.815 153.941 193.766 154.007 193.707C154.072 193.647 154.123 193.576 154.157 193.491C154.192 193.405 154.212 193.317 154.212 193.223C154.212 193.118 154.192 193.018 154.155 192.927C154.118 192.836 154.066 192.757 154.004 192.688C153.941 192.62 153.864 192.566 153.776 192.526C153.688 192.486 153.594 192.467 153.492 192.467C153.355 192.467 153.227 192.489 153.108 192.538C152.988 192.586 152.86 192.663 152.73 192.768V192.896V192.899Z" fill="#112F19"/>
<path d="M97.6099 191.474H70.8181V193.749H97.6099V191.474Z" fill="#112F19"/>
<path d="M186.724 191.474H159.932V193.749H186.724V191.474Z" fill="#112F19"/>
<path d="M102.932 34.2243C119.097 27.6565 136.9 27.6565 153.065 34.2243L233.042 66.7278C239.684 69.4272 245.308 73.9954 249.313 79.9431C253.315 85.8908 255.431 92.8227 255.431 99.9907V156.157C255.431 163.325 253.315 170.257 249.313 176.205C245.311 182.152 239.684 186.721 233.042 189.42L153.065 221.921C144.984 225.206 136.491 226.847 128 226.847C119.509 226.847 111.016 225.206 102.932 221.921L22.9546 189.42C16.3128 186.721 10.6894 182.152 6.6844 176.205C2.67943 170.257 0.568848 163.325 0.568848 156.154V99.9879C0.568848 92.8199 2.68511 85.888 6.68725 79.9402C10.6894 73.9925 16.3157 69.4243 22.9575 66.725L102.932 34.2243ZM105.074 39.4951L25.0965 71.9957C13.6504 76.6464 6.25774 87.6345 6.25774 99.9879V156.154C6.25774 168.508 13.6533 179.496 25.0965 184.146L105.074 216.647C119.856 222.655 136.141 222.655 150.923 216.647L230.901 184.146C242.347 179.496 249.739 168.508 249.739 156.154V99.9879C249.739 87.6345 242.344 76.6464 230.901 71.9957L150.923 39.4922C136.141 33.4848 119.856 33.4848 105.074 39.4922V39.4951Z" fill="#112F19"/>
<path d="M191.935 90.3167C192.279 92.8426 190.62 94.4725 189.232 96.1678C188.038 97.627 187.918 98.0878 189.138 99.5811C190.743 101.541 191.485 103.751 191.255 106.285C191.104 107.949 189.972 109.585 188.376 109.989C186.408 110.49 184.582 110.444 183.31 108.917C175.974 100.107 167.72 92.2709 158.219 85.8083C152.192 81.7066 145.712 78.4611 138.721 76.4046C131.041 74.1432 123.227 73.5914 115.291 75.1217C112.93 75.5768 111.516 77.1441 109.975 78.6517C106.226 82.3182 102.792 86.2975 98.4348 89.3411C91.7617 93.9975 84.7075 95.9345 76.9137 92.6492C73.1363 91.0563 70.2492 88.1948 67.6551 85.0659C62.9532 79.3998 59.9921 72.8063 57.5658 65.9427C57.4264 65.5445 57.7393 64.987 57.8417 64.5034C58.3822 64.7765 59.1217 64.9073 59.4261 65.3425C61.4911 68.278 63.2149 71.4865 65.5132 74.2143C72.3456 82.3239 80.9898 86.1326 91.7048 84.3775C96.8504 83.5356 101.481 81.3112 105.745 78.4639C109.668 75.8442 113.28 72.7665 117.077 69.9505C123.125 65.4648 129.948 63.4936 137.404 64.4892C142.103 65.115 146.315 67.254 150.212 69.979C156.991 74.715 162.503 80.7367 167.731 87.0599C173.101 93.5566 178.532 100.002 183.836 106.553C184.946 107.924 186.052 108.823 187.75 108.103C188.413 107.821 189.15 107.022 189.289 106.345C189.659 104.533 189.269 102.784 188.06 101.276C186.846 99.7603 185.788 98.1987 186.752 96.0967C186.869 95.8407 186.704 95.2689 186.476 95.0727C183.302 92.3534 183.708 89.0794 185.079 85.7343C185.685 84.2552 186.55 82.8671 187.412 81.5132C187.702 81.0552 188.37 80.529 188.82 80.566C189.229 80.6001 189.773 81.297 189.926 81.8033C190.774 84.5937 191.522 87.4154 192.301 90.2257C192.179 90.2542 192.06 90.2855 191.937 90.3139L191.935 90.3167Z" fill="#112F19"/>
<path d="M103.293 133.51C103.819 133.609 104.357 133.666 104.866 133.817C105.853 134.11 106.96 134.272 107.762 134.844C108.427 135.319 109.215 136.4 109.087 137.04C108.86 138.177 107.841 139.045 106.502 139.096C105.509 139.133 104.513 139.082 103.521 139.022C101.757 138.914 101.484 139.241 101.063 140.99C100.727 142.396 100.21 143.801 99.4986 145.052C99.143 145.675 98.1475 146.327 97.4961 146.275C96.8561 146.224 96.1279 145.394 95.7269 144.731C95.3343 144.08 95.195 143.215 95.1409 142.433C95.0556 141.232 94.6175 140.999 93.4883 141.374C91.3863 142.074 89.2501 142.691 87.0997 143.226C86.4056 143.4 85.4869 143.44 84.9066 143.115C84.1983 142.72 83.3649 141.923 83.2796 141.218C83.1971 140.538 83.8399 139.543 84.4543 139.056C85.7429 138.038 87.2476 137.296 88.6101 136.36C88.9372 136.135 89.2785 135.521 89.1846 135.216C89.0908 134.912 88.465 134.596 88.0668 134.59C86.6502 134.565 85.2337 134.724 83.8172 134.704C82.2698 134.682 80.7196 134.568 79.175 134.443C77.9462 134.343 77.127 133.72 77.0104 132.414C76.891 131.055 77.403 129.946 78.6175 129.345C79.3998 128.958 80.3043 128.708 81.1775 128.631C85.7514 128.219 90.1034 129.408 94.4326 130.642C95.9402 131.072 96.1535 131.009 96.3982 129.468C97.9654 119.629 100.124 109.929 103.634 100.585C105.017 96.9044 106.65 93.3147 109.906 90.7889C112.196 89.0111 114.765 89.068 117.214 90.6267C121.21 93.1754 123.275 96.8106 123.554 101.424C123.779 105.148 122.664 108.629 121.005 111.943C116.981 119.979 110.848 126.262 104.226 132.136C103.851 132.469 103.293 132.597 102.818 132.821C102.975 133.054 103.134 133.288 103.29 133.521L103.293 133.51Z" fill="#112F19"/>
<path d="M181.313 115.473C181.413 119.122 180.463 122.874 179.069 126.521C178.642 127.636 178.972 128.017 180.002 128.35C181.837 128.944 183.686 129.556 185.418 130.392C186.553 130.941 187.625 131.843 187.304 133.404C187.065 134.556 184.943 136.115 183.649 136.135C178.955 136.209 174.29 136.439 169.722 137.714C167.165 138.428 164.878 139.614 162.836 141.255C162.304 141.682 161.963 142.467 161.755 143.152C161.24 144.848 160.333 145.783 158.999 145.764C156.84 145.732 155.628 144.916 155.153 143.167C155.053 142.8 154.957 142.433 154.877 142.063C154.419 139.969 155.796 138.47 157.824 139.059C159.235 139.469 160.299 139.147 161.562 138.524C164.096 137.276 166.736 136.22 169.387 135.228C170.522 134.804 170.615 134.448 169.867 133.561C165.956 128.93 162.66 123.887 160.865 118.073C159.94 115.08 159.084 111.846 159.26 108.783C159.573 103.313 162.452 100.417 168.294 100.861C171.264 101.086 174.066 101.922 176.475 103.765C180.235 106.644 181.439 110.629 181.322 115.467L181.313 115.473Z" fill="#112F19"/>
<path d="M92.4985 95.7895C90.5557 97.3909 88.6101 98.9895 86.6702 100.599C85.1797 101.837 83.7347 103.134 82.2016 104.317C81.1662 105.116 81.1036 105.944 81.664 107.031C82.89 109.409 84.9977 110.697 87.3074 111.761C87.6515 111.92 88.0071 112.048 88.3598 112.188C91.3152 113.36 91.3379 113.368 92.6635 110.39C93.4912 108.53 94.1596 106.598 95.0613 104.778C95.3913 104.115 96.2475 103.199 96.768 103.259C97.7806 103.373 98.0651 104.383 98.0366 105.461C97.9172 110.128 97.2373 114.694 95.6871 119.111C95.5136 119.6 95.4027 120.186 95.0642 120.53C94.4412 121.168 93.6562 122.103 92.965 122.084C92.2738 122.064 91.2953 121.148 90.9966 120.405C89.9328 117.746 88.7011 117.114 85.6434 118.912C83.126 120.391 80.8789 122.32 78.4242 123.915C74.8288 126.256 72.9316 125.207 72.4907 120.991C72.283 118.994 71.6373 117.032 71.04 115.098C70.875 114.56 70.2435 114.074 69.7116 113.755C66.2443 111.681 66.2613 110.834 67.2654 107.184C68.2411 103.634 70.2635 100.557 72.7865 97.8545C74.075 96.475 74.9511 96.5802 76.7061 97.4392C77.9207 98.0337 79.4027 98.3466 80.7623 98.3324C84.3093 98.2954 87.6572 97.2259 90.9227 95.8919C91.3721 95.707 91.8528 95.6017 92.3193 95.4567C92.379 95.5676 92.4387 95.6814 92.4985 95.7923V95.7895ZM76.4217 104.932C75.2412 105.583 74.2741 106.029 73.4066 106.621C72.6443 107.139 72.8604 107.819 73.3952 108.427C73.9413 109.045 74.6183 109.54 75.2811 108.752C76.0803 107.802 76.7118 106.701 76.4217 104.932Z" fill="#112F19"/>
<path d="M137.614 108.692C143.923 108.746 149.311 111.422 154.496 114.651C155.418 115.225 156.336 115.84 157.127 116.574C157.474 116.895 157.503 117.561 157.673 118.07C157.133 118.03 156.501 118.161 156.066 117.928C152.573 116.05 149.254 113.786 145.621 112.253C140.14 109.941 134.497 109.835 128.993 112.546C127.056 113.499 125.608 114.91 124.595 116.801C124.373 117.217 124.166 117.689 123.821 117.973C123.565 118.181 122.994 118.289 122.746 118.141C122.482 117.982 122.209 117.356 122.322 117.126C122.843 116.079 123.361 114.975 124.129 114.113C127.71 110.091 132.338 108.561 137.611 108.695L137.614 108.692Z" fill="#112F19"/>
</svg>
