<svg width="256" height="256" viewBox="0 0 256 256" fill="none" xmlns="http://www.w3.org/2000/svg">
<g clip-path="url(#clip0_394_12053)">
<path d="M128 256C198.692 256 256 198.692 256 128C256 57.3076 198.692 0 128 0C57.3076 0 0 57.3076 0 128C0 198.692 57.3076 256 128 256Z" fill="#FEFFFF"/>
<path d="M123.709 247.348C120.816 247.249 117.887 247.038 115.015 246.727L115.622 241.117C118.36 241.413 121.148 241.611 123.907 241.71L123.709 247.348ZM132.432 247.341L132.227 241.702C134.993 241.604 137.788 241.399 140.512 241.096L141.126 246.706C138.261 247.016 135.332 247.235 132.432 247.341ZM106.384 245.471C103.533 244.949 100.668 244.314 97.8666 243.587L99.285 238.125C101.953 238.816 104.684 239.423 107.394 239.917L106.377 245.471H106.384ZM149.75 245.45L148.726 239.896C151.436 239.402 154.16 238.795 156.835 238.096L158.26 243.558C155.452 244.292 152.587 244.928 149.743 245.45H149.75ZM89.5111 241.089C86.7659 240.157 84.0278 239.106 81.3532 237.976L83.562 232.782C86.1026 233.862 88.7207 234.857 91.3318 235.746L89.5111 241.089ZM166.616 241.039L164.795 235.697C167.399 234.808 170.003 233.813 172.544 232.726L174.753 237.92C172.085 239.056 169.347 240.108 166.616 241.039ZM73.4493 234.264C70.8735 232.938 68.3118 231.498 65.8419 229.988L68.7847 225.168C71.1417 226.608 73.5764 227.977 76.0322 229.24L73.4493 234.264ZM182.642 234.215L180.052 229.197C182.501 227.934 184.936 226.565 187.286 225.126L190.229 229.938C187.759 231.449 185.204 232.888 182.635 234.215H182.642ZM58.5661 225.175C56.2091 223.488 53.8873 221.696 51.6644 219.84L55.2775 215.5C57.3946 217.264 59.6105 218.972 61.8547 220.581L58.5661 225.175ZM197.504 225.126L194.216 220.539C196.46 218.93 198.669 217.222 200.786 215.457L204.399 219.798C202.176 221.646 199.854 223.446 197.504 225.133V225.126ZM45.1648 214.025C43.083 212.014 41.0436 209.904 39.1099 207.751L43.3089 203.976C45.1507 206.029 47.0914 208.041 49.0815 209.953L45.1648 214.018V214.025ZM210.892 213.975L206.975 209.911C208.965 207.998 210.906 205.98 212.748 203.926L216.954 207.695C215.02 209.847 212.988 211.964 210.899 213.975H210.892ZM33.5208 201.061C31.7495 198.768 30.0346 196.389 28.4397 193.976L33.1468 190.857C34.6711 193.15 36.3012 195.423 37.9879 197.603L33.5208 201.061ZM222.529 200.991L218.062 197.54C219.748 195.359 221.378 193.087 222.903 190.786L227.61 193.905C226.008 196.319 224.3 198.704 222.529 200.998V200.991ZM23.888 186.545C22.4695 184.019 21.1216 181.414 19.8937 178.803L25.003 176.397C26.1744 178.888 27.4588 181.372 28.8138 183.772L23.895 186.545H23.888ZM232.161 186.46L227.243 183.694C228.598 181.287 229.875 178.803 231.053 176.305L236.163 178.705C234.928 181.33 233.587 183.941 232.168 186.467L232.161 186.46ZM16.4711 170.787C15.4337 168.084 14.481 165.303 13.6483 162.537L19.0539 160.907C19.8514 163.546 20.7547 166.193 21.7426 168.768L16.4711 170.794V170.787ZM239.578 170.66L234.307 168.641C235.295 166.058 236.198 163.412 236.988 160.766L242.394 162.389C241.561 165.162 240.616 167.943 239.578 170.653V170.66ZM11.4324 154.097C10.8043 151.274 10.2679 148.388 9.85158 145.523L15.4407 144.704C15.843 147.435 16.3511 150.187 16.9509 152.876L11.4394 154.104L11.4324 154.097ZM244.596 153.956L239.084 152.735C239.677 150.046 240.185 147.294 240.58 144.563L246.17 145.374C245.753 148.239 245.224 151.126 244.596 153.949V153.956ZM8.89889 136.849C8.68718 133.97 8.58132 131.035 8.57426 128.134H14.2199C14.2199 130.893 14.3257 133.688 14.5304 136.433L8.89889 136.849ZM247.108 136.708L241.477 136.299C241.674 133.554 241.773 130.759 241.773 127.993V127.711H247.419V127.993C247.419 130.893 247.313 133.822 247.108 136.701V136.708ZM14.5092 119.828L8.87772 119.426C9.08237 116.539 9.39288 113.625 9.80924 110.76L15.3984 111.564C15.0032 114.295 14.7068 117.076 14.5092 119.828ZM241.463 119.419C241.258 116.666 240.947 113.886 240.545 111.162L246.127 110.336C246.551 113.194 246.875 116.109 247.094 119.002L241.463 119.426V119.419ZM16.8874 103.392L11.3759 102.178C11.9969 99.3485 12.7379 96.5046 13.5636 93.7382L18.9692 95.3543C18.1789 97.9936 17.4802 100.696 16.8874 103.392ZM239.021 102.997C238.421 100.308 237.708 97.6055 236.904 94.9661L242.309 93.3289C243.149 96.1023 243.897 98.9392 244.532 101.762L239.021 102.997ZM21.6438 87.4857L16.3652 85.4745C17.3955 82.7646 18.5458 80.0618 19.7737 77.4365L24.8901 79.8289C23.7186 82.327 22.6248 84.9029 21.6438 87.4857ZM234.208 87.1046C233.22 84.5359 232.119 81.9671 230.941 79.476L236.043 77.0625C237.278 79.6807 238.435 82.3764 239.473 85.0722L234.208 87.1046ZM28.6867 72.4331L23.7609 69.6738C25.1794 67.1474 26.7037 64.6422 28.3057 62.2216L33.0127 65.3338C31.4884 67.6414 30.0346 70.0267 28.6867 72.4331ZM227.123 72.1014C225.768 69.7091 224.307 67.3238 222.776 65.0233L227.476 61.897C229.085 64.3105 230.616 66.8087 232.034 69.321L227.123 72.1014ZM37.8467 58.5732L33.3796 55.1223C35.151 52.8288 37.0281 50.5705 38.9547 48.4111L43.1607 52.1725C41.3258 54.226 39.5334 56.3784 37.8467 58.5661V58.5732ZM217.927 58.2838C216.234 56.1032 214.441 53.9579 212.599 51.9113L216.798 48.1358C218.732 50.2882 220.616 52.5394 222.395 54.8259L217.935 58.2909L217.927 58.2838ZM48.9262 46.1881L45.0025 42.1303C47.0844 40.1191 49.265 38.1572 51.4879 36.3012L55.1082 40.6342C52.9911 42.4056 50.9093 44.2757 48.9262 46.1881ZM206.813 45.9411C204.823 44.0287 202.734 42.1656 200.617 40.4014L204.223 36.0542C206.453 37.9032 208.64 39.858 210.729 41.8622L206.82 45.9341L206.813 45.9411ZM61.6712 35.5461L58.3756 30.9591C60.7256 29.2725 63.1673 27.6494 65.6372 26.1321L68.5871 30.945C66.2371 32.3846 63.9083 33.9371 61.6712 35.5461ZM194.032 35.3274C191.788 33.7254 189.452 32.18 187.095 30.7474L190.031 25.9274C192.508 27.4376 194.957 29.0537 197.314 30.7333L194.032 35.3274ZM75.8205 26.866L73.2306 21.8485C75.8064 20.5218 78.4598 19.2656 81.1132 18.1365L83.3291 23.3305C80.7957 24.4102 78.2693 25.6028 75.8205 26.8731V26.866ZM179.841 26.6896C177.385 25.4264 174.844 24.2479 172.311 23.1682L174.513 17.9671C177.18 19.0963 179.841 20.3383 182.424 21.665L179.848 26.6896H179.841ZM91.0707 20.3454L89.2359 15.0032C91.981 14.0646 94.7897 13.2107 97.5843 12.4768L99.0169 17.9389C96.3564 18.6376 93.6747 19.4491 91.0636 20.3454H91.0707ZM164.534 20.2113C161.923 19.3291 159.248 18.5317 156.574 17.8401L157.985 12.3709C160.787 13.0978 163.603 13.9376 166.341 14.8621L164.527 20.2113H164.534ZM107.125 16.1323L106.095 10.5785C108.939 10.0492 111.839 9.6187 114.719 9.30114L115.34 14.9115C112.595 15.2149 109.828 15.6242 107.118 16.1253L107.125 16.1323ZM148.458 16.0547C145.748 15.5607 142.982 15.1655 140.237 14.8691L140.837 9.25174C143.716 9.56224 146.623 9.97861 149.467 10.4938L148.458 16.0476V16.0547ZM123.632 14.3046L123.42 8.666C126.299 8.55309 129.256 8.55309 132.135 8.65189L131.945 14.2975C129.2 14.2058 126.377 14.2128 123.632 14.3116V14.3046Z" fill="#FFC328"/>
<path d="M54.4095 76.8508C56.7948 73.4211 56.9924 69.6456 53.3863 67.1474C49.6531 64.5505 46.5833 66.3076 44.1204 69.8503L40.6272 74.8749L56.7807 86.1096L58.7496 83.2797L52.8076 79.1514L54.4025 76.8579L54.4095 76.8508ZM50.5282 77.5495L44.8967 73.6328L46.2587 71.671C47.903 69.2998 49.4485 68.5377 51.4526 69.9349C53.4357 71.3181 53.6121 73.1106 51.9537 75.4959L50.5211 77.5565L50.5282 77.5495Z" fill="#FFC328"/>
<path d="M66.8934 68.4247L62.8215 64.2611L67.8178 59.3776L65.7643 57.2817L60.7679 62.1581L57.2464 58.552L63.139 52.7934L61.0855 50.6975L52.73 58.8625L66.4841 72.9341L75.0583 64.5575L73.0047 62.4545L66.8934 68.4247Z" fill="#FFC328"/>
<path d="M76.2086 39.9567L80.831 47.1408C82.0165 48.9826 83.5903 50.9304 84.8323 52.5535L84.7335 52.617L80.7745 50.1682L69.7162 44.1274L66.7381 46.0399L77.3801 62.5886L80.1394 60.8172L75.4817 53.5697C74.2962 51.7278 72.786 49.8789 71.5228 48.2205L71.6216 48.157L75.5735 50.5916L86.6389 56.6466L89.6169 54.7341L78.975 38.1854L76.2157 39.9567H76.2086Z" fill="#FFC328"/>
<path d="M89.751 33.3444L90.8519 53.9791L94.1334 52.723L93.6536 47.2044L99.7367 44.8826L103.046 49.3285L106.455 48.03L93.5265 31.9048L89.751 33.3444ZM98.0359 42.6032L93.3995 44.3745L93.1807 41.8905C93.0184 39.724 92.7573 37.4445 92.475 35.2145L92.5879 35.1722C93.8935 36.9858 95.2202 38.8771 96.5399 40.6061L98.0289 42.6103L98.0359 42.6032Z" fill="#FFC328"/>
<path d="M124.041 25.7651L109.468 27.36L109.793 30.2816L115.361 29.6677L117.189 46.3081L120.618 45.9341L118.791 29.2936L124.359 28.6797L124.041 25.7651Z" fill="#FFC328"/>
<path d="M132.446 26.0262L124.895 45.2636L128.402 45.4824L130.251 40.2602L136.751 40.6695L137.922 46.0823L141.564 46.3081L136.475 26.2803L132.446 26.0262ZM131.204 37.5715L132.037 35.2215C132.785 33.182 133.49 30.9944 134.161 28.8561H134.281C134.718 31.0579 135.142 33.3302 135.629 35.4473L136.158 37.882L131.204 37.5715Z" fill="#FFC328"/>
<path d="M158.649 30.5428L155.692 41.4599C154.57 45.5953 152.622 46.5269 150.328 45.9059C148.056 45.2919 146.906 43.5206 148.021 39.3852L150.978 28.468L147.654 27.5647L144.76 38.2278C143.067 44.4662 145.184 47.656 149.524 48.8345C153.871 50.013 157.258 48.3123 158.945 42.0739L161.838 31.4108L158.642 30.5428H158.649Z" fill="#FFC328"/>
<path d="M178.747 45.9058C180.765 42.0033 178.669 39.2934 175.084 37.4374L169.276 34.4312L160.229 51.9043L163.285 53.4851L166.821 46.6539L169.446 48.0159L169.622 56.7666L173.059 58.5449L172.706 49.1238C175.155 49.4696 177.378 48.5593 178.747 45.9058ZM170.54 45.433L168.105 44.1698L171.048 38.4819L173.482 39.7451C175.847 40.9659 176.771 42.3279 175.727 44.3392C174.696 46.3293 172.897 46.6539 170.533 45.433H170.54Z" fill="#FFC328"/>
<path d="M186.39 44.282L174.853 60.2195L177.643 62.2388L189.18 46.3013L186.39 44.282Z" fill="#FFC328"/>
<path d="M202.967 58.6438L196.926 64.6846C195.38 66.2371 193.807 68.1849 192.487 69.7445L192.402 69.6598L193.955 65.2703L197.504 53.1817L194.999 50.6835L181.09 64.5999L183.412 66.9146L189.502 60.8173C191.047 59.2719 192.529 57.4017 193.884 55.8069L193.969 55.8915L192.43 60.2669L188.867 72.3626L191.372 74.8608L205.281 60.9444L202.96 58.6297L202.967 58.6438Z" fill="#FFC328"/>
<path d="M210.165 67.2109L193.75 78.0576L200.348 88.0573L202.804 86.4413L198.097 79.3137L202.96 76.1028L206.806 81.9319L209.254 80.3158L205.408 74.4867L209.614 71.7063L214.152 78.5868L216.601 76.9637L210.165 67.2109Z" fill="#FFC328"/>
<path d="M49.7166 161.987L29.8794 164.414L31.3049 167.498L36.5976 166.665L39.244 172.382L35.1792 175.868L36.6612 179.065L51.3609 165.522L49.7237 161.979L49.7166 161.987ZM43.1677 169.029L41.3329 170.596L39.3216 166.242L41.7069 165.868C43.7817 165.564 45.9693 165.162 48.1006 164.746L48.15 164.852C46.4845 166.228 44.7485 167.639 43.1677 169.029Z" fill="#FFC328"/>
<path d="M54.904 172.009L38.8117 182.158L40.5886 184.976L56.6809 174.826L54.904 172.009Z" fill="#FFC328"/>
<path d="M62.8991 191.887C66.1524 189.156 65.2844 185.952 62.7791 182.967L58.7143 178.119L44.1416 190.349L46.2799 192.896L51.9749 188.119L53.8167 190.313L50.7187 198.189L53.1251 201.054L56.3149 192.515C58.3756 193.729 60.6903 193.743 62.9062 191.887H62.8991ZM58.7849 182.41L60.4927 184.442C62.144 186.411 62.4686 187.97 60.7891 189.375C59.1307 190.765 57.4017 190.391 55.7504 188.422L54.0426 186.39L58.7849 182.41Z" fill="#FFC328"/>
<path d="M76.011 199.424L77.8388 197.25L69.1728 189.989L56.9571 204.569L65.8348 212.007L67.6626 209.833L61.3325 204.533L64.9456 200.214L70.1255 204.554L71.9462 202.374L66.7734 198.041L69.8997 194.308L76.011 199.424Z" fill="#FFC328"/>
<path d="M90.2238 204.103C86.9494 202.459 83.5479 203.348 82.1789 206.058C80.9298 208.542 82.0024 210.743 83.3009 212.268L85.0863 214.427C86.279 215.846 87.1399 216.841 86.4342 218.238C85.7638 219.565 84.296 219.911 82.4047 218.958C80.8451 218.174 79.6313 216.58 79.0103 214.822L76.2369 216.015C77.0272 218.4 78.7562 220.405 81.0215 221.548C84.7829 223.446 88.1985 222.282 89.5817 219.529C90.8237 217.067 90.0686 215.084 88.5019 213.242L86.7236 211.139C85.6227 209.861 84.5994 208.725 85.2698 207.391C85.8979 206.149 87.3093 205.916 88.8971 206.721C90.3297 207.441 91.1977 208.556 91.8046 210.017L94.2957 208.873C93.6606 206.869 92.1786 205.091 90.2168 204.103H90.2238Z" fill="#FFC328"/>
<path d="M105.283 221.618C104.147 225.598 102.249 226.474 100.04 225.845C97.8525 225.224 96.7586 223.495 97.8948 219.508L100.901 208.993L97.6972 208.076L94.7615 218.344C93.0466 224.349 95.0438 227.462 99.2286 228.661C103.413 229.854 106.716 228.259 108.431 222.253L111.367 211.986L108.283 211.103L105.276 221.618H105.283Z" fill="#FFC328"/>
<path d="M121.021 213.009L114.712 212.486L113.131 231.442L116.448 231.717L117.062 224.307L119.913 224.547L123.321 232.288L127.054 232.599L123.237 224.321C125.551 223.714 127.196 222.077 127.435 219.205C127.788 214.971 124.902 213.333 121.014 213.009H121.021ZM119.941 221.844L117.295 221.625L117.81 215.457L120.456 215.676C123.018 215.888 124.352 216.763 124.175 218.937C123.999 221.096 122.51 222.056 119.948 221.844H119.941Z" fill="#FFC328"/>
<path d="M141.549 228.591L139.178 212.585L135.883 213.072L138.677 231.886L149.679 230.256L149.263 227.447L141.549 228.591Z" fill="#FFC328"/>
<path d="M148.112 209.607C147.054 209.868 146.475 210.8 146.772 211.993C147.04 213.086 148.035 213.538 149.016 213.298C149.108 213.277 149.185 213.242 149.263 213.206C149.651 214.844 149.129 216.064 147.809 217.313L148.945 218.584C150.956 216.784 151.676 214.66 151.076 212.197C150.589 210.207 149.531 209.254 148.112 209.607Z" fill="#FFC328"/>
<path d="M155.311 208.852L156.059 228.824L159.255 227.659L158.874 222.31L164.795 220.158L167.929 224.505L171.245 223.298L158.994 207.511L155.325 208.845L155.311 208.852ZM163.186 217.935L158.677 219.572L158.507 217.165C158.38 215.069 158.162 212.861 157.929 210.701L158.035 210.659C159.27 212.437 160.526 214.286 161.775 215.973L163.186 217.928V217.935Z" fill="#FFC328"/>
<path d="M169.834 202.367L165.515 204.907L175.162 221.301L179.629 218.676C184.442 215.846 185.698 211.287 182.508 205.86C179.319 200.433 174.795 199.452 169.834 202.367ZM177.907 216.516L176.651 217.257L169.777 205.578L171.034 204.837C174.287 202.924 177.187 203.566 179.558 207.596C181.93 211.626 181.16 214.604 177.907 216.516Z" fill="#FFC328"/>
<path d="M184.865 191.104C181.231 194.378 181.146 199.346 185.268 203.912C189.389 208.478 194.442 209.022 198.069 205.747C201.703 202.473 201.682 197.399 197.561 192.826C193.454 188.267 188.493 187.829 184.858 191.104H184.865ZM196.107 203.574C193.912 205.549 190.666 204.794 187.808 201.626C184.95 198.457 184.632 195.26 186.827 193.284C189.022 191.308 192.162 191.951 195.027 195.119C197.886 198.288 198.302 201.598 196.114 203.574H196.107Z" fill="#FFC328"/>
<path d="M209.741 178.818L201.118 172.516L199.226 175.106L208.055 181.556C211.4 183.997 211.562 186.086 210.207 187.935C208.866 189.77 206.862 190.2 203.524 187.759L194.696 181.309L192.734 183.997L201.358 190.299C206.403 193.983 210.017 193.186 212.585 189.671C215.154 186.157 214.794 182.508 209.748 178.818H209.741Z" fill="#FFC328"/>
<path d="M224.328 168.31L225.909 164.915L216.819 165.635C217.052 163.257 216.086 161.147 213.467 159.926C209.621 158.133 207.081 160.265 205.429 163.807L202.755 169.538L219.995 177.583L221.407 174.562L214.667 171.422L215.874 168.832L224.321 168.317L224.328 168.31ZM213.347 167.879L212.225 170.286L206.615 167.667L207.737 165.261C208.824 162.932 210.101 161.98 212.084 162.904C214.046 163.821 214.434 165.543 213.347 167.879Z" fill="#FFC328"/>
<path d="M128 202.049C87.1682 202.049 53.9508 168.832 53.9508 128C53.9508 87.1681 87.1682 53.9508 128 53.9508C168.832 53.9508 202.049 87.1681 202.049 128C202.049 168.832 168.832 202.049 128 202.049ZM128 59.5964C90.2803 59.5964 59.5964 90.2803 59.5964 128C59.5964 165.72 90.2803 196.404 128 196.404C165.72 196.404 196.404 165.72 196.404 128C196.404 90.2803 165.72 59.5964 128 59.5964Z" fill="#FFC328"/>
<path d="M123.476 102.164C122.185 102.164 121.056 102.792 120.103 104.049C119.186 105.248 118.671 106.617 118.565 108.149C120.287 107.944 121.776 107.457 123.018 106.695C124.323 105.869 124.98 104.91 124.98 103.809C124.98 102.708 124.479 102.164 123.476 102.164ZM163.229 104.169C161.126 105.622 160.074 107.309 160.074 109.235C160.074 110.823 160.73 111.614 162.036 111.614C163.483 111.614 165.176 110.428 167.138 108.064C168.176 106.808 169.079 105.608 169.855 104.458C170.631 103.308 171.224 102.432 171.626 101.833C168.253 101.861 165.459 102.637 163.229 104.169ZM163.229 104.169C161.126 105.622 160.074 107.309 160.074 109.235C160.074 110.823 160.73 111.614 162.036 111.614C163.483 111.614 165.176 110.428 167.138 108.064C168.176 106.808 169.079 105.608 169.855 104.458C170.631 103.308 171.224 102.432 171.626 101.833C168.253 101.861 165.459 102.637 163.229 104.169ZM123.476 102.164C122.185 102.164 121.056 102.792 120.103 104.049C119.186 105.248 118.671 106.617 118.565 108.149C120.287 107.944 121.776 107.457 123.018 106.695C124.323 105.869 124.98 104.91 124.98 103.809C124.98 102.708 124.479 102.164 123.476 102.164ZM81.6143 148.218C80.5981 148.945 80.09 149.686 80.09 150.427C80.09 150.886 80.2876 151.112 80.6969 151.112C81.5649 151.112 82.7999 150.208 84.4089 148.402C84.9029 147.844 85.4039 147.23 85.912 146.553C84.1336 146.878 82.694 147.435 81.6143 148.218ZM123.476 102.164C122.185 102.164 121.056 102.792 120.103 104.049C119.186 105.248 118.671 106.617 118.565 108.149C120.287 107.944 121.776 107.457 123.018 106.695C124.323 105.869 124.98 104.91 124.98 103.809C124.98 102.708 124.479 102.164 123.476 102.164ZM163.229 104.169C161.126 105.622 160.074 107.309 160.074 109.235C160.074 110.823 160.73 111.614 162.036 111.614C163.483 111.614 165.176 110.428 167.138 108.064C168.176 106.808 169.079 105.608 169.855 104.458C170.631 103.308 171.224 102.432 171.626 101.833C168.253 101.861 165.459 102.637 163.229 104.169ZM81.6143 148.218C80.5981 148.945 80.09 149.686 80.09 150.427C80.09 150.886 80.2876 151.112 80.6969 151.112C81.5649 151.112 82.7999 150.208 84.4089 148.402C84.9029 147.844 85.4039 147.23 85.912 146.553C84.1336 146.878 82.694 147.435 81.6143 148.218ZM163.229 104.169C161.126 105.622 160.074 107.309 160.074 109.235C160.074 110.823 160.73 111.614 162.036 111.614C163.483 111.614 165.176 110.428 167.138 108.064C168.176 106.808 169.079 105.608 169.855 104.458C170.631 103.308 171.224 102.432 171.626 101.833C168.253 101.861 165.459 102.637 163.229 104.169ZM123.476 102.164C122.185 102.164 121.056 102.792 120.103 104.049C119.186 105.248 118.671 106.617 118.565 108.149C120.287 107.944 121.776 107.457 123.018 106.695C124.323 105.869 124.98 104.91 124.98 103.809C124.98 102.708 124.479 102.164 123.476 102.164ZM81.6143 148.218C80.5981 148.945 80.09 149.686 80.09 150.427C80.09 150.886 80.2876 151.112 80.6969 151.112C81.5649 151.112 82.7999 150.208 84.4089 148.402C84.9029 147.844 85.4039 147.23 85.912 146.553C84.1336 146.878 82.694 147.435 81.6143 148.218ZM100.527 141.281C98.9745 142.354 98.1982 143.603 98.1982 145.022C98.1982 146.193 98.6781 146.779 99.6449 146.779C100.711 146.779 101.967 145.911 103.413 144.161C104.183 143.229 104.853 142.347 105.425 141.493C105.996 140.646 106.434 140.004 106.73 139.559C104.239 139.581 102.171 140.152 100.527 141.281ZM116.949 148.218C115.933 148.945 115.424 149.686 115.424 150.427C115.424 150.886 115.629 151.112 116.038 151.112C116.906 151.112 118.141 150.208 119.743 148.402C120.244 147.844 120.745 147.23 121.254 146.553C119.468 146.878 118.036 147.435 116.949 148.218ZM123.476 102.164C122.185 102.164 121.056 102.792 120.103 104.049C119.186 105.248 118.671 106.617 118.565 108.149C120.287 107.944 121.776 107.457 123.018 106.695C124.323 105.869 124.98 104.91 124.98 103.809C124.98 102.708 124.479 102.164 123.476 102.164ZM163.229 104.169C161.126 105.622 160.074 107.309 160.074 109.235C160.074 110.823 160.73 111.614 162.036 111.614C163.483 111.614 165.176 110.428 167.138 108.064C168.176 106.808 169.079 105.608 169.855 104.458C170.631 103.308 171.224 102.432 171.626 101.833C168.253 101.861 165.459 102.637 163.229 104.169ZM116.949 148.218C115.933 148.945 115.424 149.686 115.424 150.427C115.424 150.886 115.629 151.112 116.038 151.112C116.906 151.112 118.141 150.208 119.743 148.402C120.244 147.844 120.745 147.23 121.254 146.553C119.468 146.878 118.036 147.435 116.949 148.218ZM100.527 141.281C98.9745 142.354 98.1982 143.603 98.1982 145.022C98.1982 146.193 98.6781 146.779 99.6449 146.779C100.711 146.779 101.967 145.911 103.413 144.161C104.183 143.229 104.853 142.347 105.425 141.493C105.996 140.646 106.434 140.004 106.73 139.559C104.239 139.581 102.171 140.152 100.527 141.281ZM81.6143 148.218C80.5981 148.945 80.09 149.686 80.09 150.427C80.09 150.886 80.2876 151.112 80.6969 151.112C81.5649 151.112 82.7999 150.208 84.4089 148.402C84.9029 147.844 85.4039 147.23 85.912 146.553C84.1336 146.878 82.694 147.435 81.6143 148.218ZM163.229 104.169C161.126 105.622 160.074 107.309 160.074 109.235C160.074 110.823 160.73 111.614 162.036 111.614C163.483 111.614 165.176 110.428 167.138 108.064C168.176 106.808 169.079 105.608 169.855 104.458C170.631 103.308 171.224 102.432 171.626 101.833C168.253 101.861 165.459 102.637 163.229 104.169ZM123.476 102.164C122.185 102.164 121.056 102.792 120.103 104.049C119.186 105.248 118.671 106.617 118.565 108.149C120.287 107.944 121.776 107.457 123.018 106.695C124.323 105.869 124.98 104.91 124.98 103.809C124.98 102.708 124.479 102.164 123.476 102.164ZM81.6143 148.218C80.5981 148.945 80.09 149.686 80.09 150.427C80.09 150.886 80.2876 151.112 80.6969 151.112C81.5649 151.112 82.7999 150.208 84.4089 148.402C84.9029 147.844 85.4039 147.23 85.912 146.553C84.1336 146.878 82.694 147.435 81.6143 148.218ZM100.527 141.281C98.9745 142.354 98.1982 143.603 98.1982 145.022C98.1982 146.193 98.6781 146.779 99.6449 146.779C100.711 146.779 101.967 145.911 103.413 144.161C104.183 143.229 104.853 142.347 105.425 141.493C105.996 140.646 106.434 140.004 106.73 139.559C104.239 139.581 102.171 140.152 100.527 141.281ZM116.949 148.218C115.933 148.945 115.424 149.686 115.424 150.427C115.424 150.886 115.629 151.112 116.038 151.112C116.906 151.112 118.141 150.208 119.743 148.402C120.244 147.844 120.745 147.23 121.254 146.553C119.468 146.878 118.036 147.435 116.949 148.218ZM123.476 102.164C122.185 102.164 121.056 102.792 120.103 104.049C119.186 105.248 118.671 106.617 118.565 108.149C120.287 107.944 121.776 107.457 123.018 106.695C124.323 105.869 124.98 104.91 124.98 103.809C124.98 102.708 124.479 102.164 123.476 102.164ZM135.869 141.281C134.316 142.354 133.533 143.603 133.533 145.022C133.533 146.193 134.02 146.779 134.986 146.779C136.052 146.779 137.308 145.911 138.755 144.161C139.517 143.229 140.187 142.347 140.759 141.493C141.338 140.646 141.768 140.004 142.072 139.559C139.581 139.581 137.513 140.152 135.869 141.281ZM152.29 148.218C151.274 148.945 150.766 149.686 150.766 150.427C150.766 150.886 150.971 151.112 151.38 151.112C152.241 151.112 153.476 150.208 155.085 148.402C155.579 147.844 156.087 147.23 156.595 146.553C154.81 146.878 153.377 147.435 152.29 148.218ZM163.229 104.169C161.126 105.622 160.074 107.309 160.074 109.235C160.074 110.823 160.73 111.614 162.036 111.614C163.483 111.614 165.176 110.428 167.138 108.064C168.176 106.808 169.079 105.608 169.855 104.458C170.631 103.308 171.224 102.432 171.626 101.833C168.253 101.861 165.459 102.637 163.229 104.169ZM152.29 148.218C151.274 148.945 150.766 149.686 150.766 150.427C150.766 150.886 150.971 151.112 151.38 151.112C152.241 151.112 153.476 150.208 155.085 148.402C155.579 147.844 156.087 147.23 156.595 146.553C154.81 146.878 153.377 147.435 152.29 148.218ZM135.869 141.281C134.316 142.354 133.533 143.603 133.533 145.022C133.533 146.193 134.02 146.779 134.986 146.779C136.052 146.779 137.308 145.911 138.755 144.161C139.517 143.229 140.187 142.347 140.759 141.493C141.338 140.646 141.768 140.004 142.072 139.559C139.581 139.581 137.513 140.152 135.869 141.281ZM116.949 148.218C115.933 148.945 115.424 149.686 115.424 150.427C115.424 150.886 115.629 151.112 116.038 151.112C116.906 151.112 118.141 150.208 119.743 148.402C120.244 147.844 120.745 147.23 121.254 146.553C119.468 146.878 118.036 147.435 116.949 148.218ZM100.527 141.281C98.9745 142.354 98.1982 143.603 98.1982 145.022C98.1982 146.193 98.6781 146.779 99.6449 146.779C100.711 146.779 101.967 145.911 103.413 144.161C104.183 143.229 104.853 142.347 105.425 141.493C105.996 140.646 106.434 140.004 106.73 139.559C104.239 139.581 102.171 140.152 100.527 141.281ZM81.6143 148.218C80.5981 148.945 80.09 149.686 80.09 150.427C80.09 150.886 80.2876 151.112 80.6969 151.112C81.5649 151.112 82.7999 150.208 84.4089 148.402C84.9029 147.844 85.4039 147.23 85.912 146.553C84.1336 146.878 82.694 147.435 81.6143 148.218ZM163.229 104.169C161.126 105.622 160.074 107.309 160.074 109.235C160.074 110.823 160.73 111.614 162.036 111.614C163.483 111.614 165.176 110.428 167.138 108.064C168.176 106.808 169.079 105.608 169.855 104.458C170.631 103.308 171.224 102.432 171.626 101.833C168.253 101.861 165.459 102.637 163.229 104.169ZM123.476 102.164C122.185 102.164 121.056 102.792 120.103 104.049C119.186 105.248 118.671 106.617 118.565 108.149C120.287 107.944 121.776 107.457 123.018 106.695C124.323 105.869 124.98 104.91 124.98 103.809C124.98 102.708 124.479 102.164 123.476 102.164ZM168.874 145.022C168.874 146.193 169.354 146.779 170.321 146.779C171.394 146.779 172.643 145.911 174.089 144.161C174.859 143.229 175.529 142.347 176.101 141.493C176.672 140.646 177.11 140.004 177.406 139.559C174.915 139.581 172.847 140.152 171.203 141.281C169.65 142.354 168.874 143.603 168.874 145.022ZM128 65.3903C93.4207 65.3903 65.3902 93.4207 65.3902 128C65.3902 162.579 93.4207 190.61 128 190.61C162.579 190.61 190.61 162.579 190.61 128C190.61 93.4207 162.579 65.3903 128 65.3903ZM138.903 92.6515C139.411 91.9811 139.905 91.4588 140.392 91.0919C141.486 90.245 142.495 89.8216 143.427 89.8216C144.358 89.8216 145.099 89.9204 145.65 90.118C146.207 90.3156 146.722 90.5344 147.202 90.7743C147.675 91.0143 148.141 91.233 148.585 91.4306C149.03 91.6282 149.573 91.727 150.215 91.727C150.858 91.727 151.443 91.3389 151.987 90.5555C153.081 91.0637 153.624 91.4659 153.624 91.7693C153.624 92.6938 153.109 93.6747 152.086 94.698C150.992 95.7777 149.848 96.3211 148.649 96.3211C147.449 96.3211 146.433 95.813 145.438 94.8109C144.45 93.8088 143.624 93.3078 142.961 93.3078C141.952 93.3078 140.731 93.957 139.298 95.2555C138.529 94.7333 138.148 94.331 138.148 94.0417C138.148 93.7806 138.395 93.3219 138.903 92.6515ZM115.629 103.533C116.561 102.814 117.57 102.185 118.664 101.67C120.985 100.534 123.349 99.9696 125.763 99.9696C127.506 99.9696 128.699 100.52 129.348 101.628C129.574 102.009 129.694 102.517 129.694 103.152C129.694 103.787 129.531 104.416 129.214 105.029C128.896 105.643 128.473 106.201 127.929 106.702C127.393 107.203 126.765 107.641 126.052 108.015C125.332 108.389 124.57 108.713 123.766 108.988C122.333 109.482 120.696 109.835 118.847 110.054C119.63 111.473 121.402 112.185 124.168 112.185C125.897 112.185 127.52 111.762 129.051 110.908C129.27 110.781 129.475 110.633 129.687 110.499C129.941 109.617 130.286 108.741 130.717 107.88C131.147 107.02 131.648 106.187 132.213 105.382C132.785 104.571 133.384 103.83 134.02 103.145C135.353 101.699 136.617 100.682 137.823 100.09C138.148 99.9414 138.437 99.8637 138.698 99.8637C138.96 99.8637 139.185 99.8708 139.362 99.8849C139.806 99.9272 140.131 100.097 140.35 100.4C139.524 102.164 138.854 103.773 138.324 105.234C140.731 102.842 143.518 101.212 146.701 100.337C147.746 100.047 148.649 99.9061 149.425 99.9061C150.201 99.9061 150.646 100.054 150.773 100.344C150.893 100.64 150.949 100.908 150.949 101.155C150.949 101.402 150.921 101.734 150.851 102.15C150.787 102.567 150.611 103.145 150.328 103.886C150.039 104.62 149.75 105.368 149.453 106.116C148.698 108.029 148.324 109.334 148.324 110.033C148.324 111.24 148.748 111.839 149.594 111.839C151.055 111.839 152.657 110.866 154.414 108.925H154.421C154.81 108.099 155.325 107.288 155.988 106.49C157.548 104.571 159.601 103.018 162.135 101.811C164.767 100.569 167.484 99.9484 170.293 99.9484C171.358 99.9484 172.12 100.118 172.579 100.457C172.939 100.026 173.271 99.7649 173.56 99.6944C173.849 99.6167 174.075 99.5815 174.237 99.5815C174.753 99.5815 175.296 99.652 175.875 99.8002C175.818 99.9837 175.705 100.287 175.529 100.718C175.36 101.148 175.162 101.656 174.943 102.242C174.731 102.828 174.499 103.477 174.259 104.169C173.377 106.66 172.939 108.523 172.939 109.758C172.939 110.993 173.327 111.614 174.096 111.614C175.091 111.614 176.206 111.155 177.434 110.238C178.528 109.405 179.488 108.367 180.307 107.125C180.913 107.083 181.217 107.337 181.217 107.88C181.217 108.346 180.935 109.059 180.377 110.012C179.82 110.971 179.276 111.797 178.747 112.496C178.225 113.187 177.639 113.872 176.99 114.542C176.34 115.213 175.656 115.813 174.922 116.349C173.292 117.52 171.704 118.113 170.152 118.113C168.183 118.113 166.856 117.506 166.185 116.307C165.967 115.94 165.861 115.615 165.861 115.333V114.832C164.012 117.019 161.761 118.113 159.1 118.113C157.414 118.113 156.066 117.598 155.057 116.575C154.266 115.77 153.793 114.761 153.624 113.554C153.299 113.971 152.961 114.387 152.594 114.789C151.959 115.488 151.26 116.116 150.505 116.674C148.861 117.894 147.259 118.501 145.692 118.501C144.125 118.501 142.94 118.085 142.128 117.252C141.324 116.412 140.914 115.199 140.914 113.604C140.914 111.24 142.128 108.41 144.556 105.114C145.304 104.119 145.621 103.618 145.53 103.618C144.506 103.618 143.06 104.274 141.204 105.587C139.355 106.9 137.943 108.29 136.969 109.765C136.348 112.326 136.01 114.846 135.96 117.33C135.96 117.88 135.509 118.148 134.605 118.148C132.361 118.148 130.773 117.252 129.828 115.446C129.687 115.192 129.588 114.909 129.503 114.613C129.235 114.853 128.974 115.093 128.692 115.312C127.915 115.918 127.083 116.441 126.193 116.878C124.26 117.838 122.234 118.318 120.103 118.318C115.813 118.318 113.025 117.111 111.741 114.705C111.289 113.83 111.056 112.835 111.056 111.705C111.056 110.576 111.247 109.539 111.635 108.6C112.016 107.655 112.545 106.758 113.223 105.905C113.893 105.051 114.698 104.26 115.629 103.533ZM83.188 91.5929C83.7384 90.7249 84.4583 89.9557 85.3616 89.2853C86.2649 88.6149 87.3022 88.0362 88.4737 87.5422C89.6381 87.0553 90.8449 86.653 92.101 86.3355C94.5851 85.6933 96.6739 85.3686 98.3676 85.3686C100.061 85.3686 101.48 85.4463 102.623 85.5874C103.773 85.7285 104.874 85.9685 105.94 86.2931C107.005 86.6248 108.015 87.0412 108.96 87.5563C109.899 88.0644 110.731 88.6854 111.444 89.4123C112.954 90.979 113.71 92.9408 113.71 95.2908C113.71 97.6408 112.954 100.224 111.444 102.778C109.991 105.248 108.099 107.302 105.777 108.925C103.315 110.633 100.823 111.487 98.3112 111.487C97.0832 111.487 96.0106 111.183 95.0791 110.569C94.6345 110.252 94.4016 109.885 94.3875 109.468C94.3734 109.052 94.3804 108.671 94.4086 108.332C94.5145 106.928 94.818 105.269 95.319 103.371C96.307 103.78 97.3585 103.985 98.4735 103.985C99.5885 103.985 100.527 103.865 101.268 103.625C102.009 103.385 102.757 103.046 103.505 102.609C104.253 102.178 104.973 101.656 105.672 101.056C106.363 100.449 106.977 99.7861 107.521 99.0451C108.692 97.4361 109.278 95.9048 109.278 94.451C109.278 92.9973 108.953 91.8611 108.297 91.0213C107.648 90.1815 106.808 89.5041 105.777 89.003C103.851 88.0291 101.473 87.5422 98.6358 87.5422C96.1941 87.5422 93.7029 88.0432 91.1483 89.0383C89.3699 89.751 88.0926 90.6543 87.3093 91.7482C86.9 92.3198 86.7024 92.9479 86.7024 93.6324C86.7024 95.1779 87.267 96.4764 88.3961 97.5279C87.1752 98.8546 86.1943 99.5179 85.4674 99.5179C84.6559 99.5179 83.936 98.9887 83.3009 97.9372C82.6799 96.8998 82.3694 95.7989 82.3694 94.6345C82.3694 93.4701 82.6446 92.4609 83.188 91.5929ZM83.2586 112.912C84.1901 111.091 84.9875 109.511 85.6509 108.17C86.3072 106.829 86.9988 105.453 87.7186 104.049C88.4455 102.637 89.1865 101.24 89.9486 99.8567C90.7108 98.4664 91.48 97.1609 92.2633 95.9259C94.0064 93.2231 95.5942 91.3248 97.0409 90.2309C97.2032 90.0968 97.3796 90.0263 97.5772 90.0263C97.7748 90.0263 97.9724 90.0616 98.17 90.1251C98.6146 90.2803 99.0098 90.5132 99.3485 90.8237C97.6619 92.1928 95.9188 95.7777 94.1264 101.586C93.6112 103.216 93.1172 104.839 92.6303 106.455C92.1433 108.078 91.6705 109.638 91.2189 111.141C90.7672 112.644 90.3226 113.971 89.878 115.121C88.9183 117.647 88.0644 118.911 87.3093 118.911C84.917 118.911 83.0539 118.417 81.699 117.436C81.3673 117.189 81.078 116.963 80.831 116.758C81.5225 116.017 82.327 114.74 83.2586 112.912ZM91.2683 145.113C90.6684 146.532 90.0051 147.88 89.2853 149.164C88.5654 150.455 87.7892 151.648 86.9706 152.756C86.1449 153.857 85.298 154.817 84.423 155.621C82.5388 157.357 80.7463 158.225 79.0526 158.225C77.867 158.225 76.8861 157.851 76.1098 157.096C75.3336 156.355 74.9454 155.522 74.9454 154.584C74.9454 153.645 75.1007 152.798 75.4182 152.022C75.7287 151.246 76.1663 150.505 76.7308 149.799C77.2954 149.1 77.9588 148.451 78.735 147.851C79.5042 147.244 80.344 146.722 81.2544 146.264C83.188 145.304 85.1922 144.76 87.274 144.612C89.3911 141.408 90.8025 138.324 91.5223 135.375C91.7693 134.358 91.8963 133.377 91.8963 132.439C91.8963 131.5 91.6776 130.823 91.233 130.414C90.7955 129.997 90.0968 129.793 89.1441 129.793C87.8809 129.793 86.5613 130.068 85.1993 130.625C83.6044 131.289 82.8069 132.15 82.8069 133.201C82.8069 133.646 82.9975 134.224 83.3927 134.937C82.9975 135.382 82.5388 135.607 82.0165 135.607C81.5578 135.607 81.0003 135.311 80.3581 134.725C79.7442 134.161 79.4407 133.646 79.4407 133.18C79.4407 132.714 79.596 132.262 79.9065 131.811C80.217 131.366 80.6263 130.943 81.1415 130.555C81.6566 130.167 82.2494 129.814 82.9339 129.503C83.6185 129.193 84.3312 128.924 85.0793 128.699C86.6248 128.233 87.9727 128.007 89.1371 128.007C90.3015 128.007 91.1765 128.092 91.7764 128.275C92.3692 128.459 92.849 128.734 93.209 129.108C93.8441 129.807 94.1616 130.893 94.1616 132.368C94.1616 133.843 94.0487 135.262 93.8088 136.645C93.5689 138.021 93.2301 139.425 92.8067 140.851C92.3762 142.283 91.8611 143.702 91.2683 145.113ZM105.636 151.577C104.183 151.577 103.209 151.14 102.708 150.251C102.552 149.976 102.468 149.736 102.468 149.531V149.157C101.106 150.773 99.4403 151.577 97.4784 151.577C96.2364 151.577 95.2343 151.203 94.4933 150.448C93.7523 149.7 93.3854 148.712 93.3854 147.491C93.3854 145.946 93.9852 144.45 95.1779 142.996C96.3352 141.585 97.8454 140.434 99.7226 139.545C101.663 138.621 103.674 138.162 105.742 138.162C106.533 138.162 107.097 138.289 107.436 138.543C107.704 138.219 107.944 138.028 108.156 137.979C108.374 137.922 108.537 137.894 108.657 137.894C109.038 137.894 109.44 137.95 109.871 138.056C109.828 138.19 109.744 138.416 109.616 138.734C109.482 139.051 109.341 139.425 109.179 139.863C109.024 140.293 108.854 140.766 108.671 141.281C108.029 143.123 107.704 144.499 107.704 145.41C107.704 146.32 107.986 146.779 108.551 146.779C109.292 146.779 110.11 146.44 111.021 145.77C111.825 145.149 112.531 144.386 113.145 143.462C113.59 143.434 113.815 143.624 113.815 144.026C113.815 144.365 113.611 144.895 113.194 145.6C112.778 146.306 112.383 146.92 111.995 147.435C111.6 147.95 111.169 148.451 110.689 148.945C110.209 149.439 109.708 149.884 109.165 150.279C107.958 151.147 106.787 151.577 105.636 151.577ZM126.603 145.113C126.01 146.532 125.347 147.88 124.627 149.164C123.9 150.455 123.131 151.648 122.305 152.756C121.486 153.857 120.64 154.817 119.757 155.621C117.873 157.357 116.088 158.225 114.394 158.225C113.209 158.225 112.228 157.851 111.451 157.096C110.675 156.355 110.287 155.522 110.287 154.584C110.287 153.645 110.442 152.798 110.753 152.022C111.07 151.246 111.508 150.505 112.072 149.799C112.63 149.1 113.3 148.451 114.069 147.851C114.846 147.244 115.686 146.722 116.589 146.264C118.522 145.304 120.534 144.76 122.615 144.612C124.726 141.408 126.144 138.324 126.857 135.375C127.111 134.358 127.231 133.377 127.231 132.439C127.231 131.5 127.012 130.823 126.574 130.414C126.137 129.997 125.438 129.793 124.486 129.793C123.215 129.793 121.903 130.068 120.534 130.625C118.946 131.289 118.148 132.15 118.148 133.201C118.148 133.646 118.339 134.224 118.727 134.937C118.339 135.382 117.88 135.607 117.351 135.607C116.892 135.607 116.342 135.311 115.693 134.725C115.086 134.161 114.782 133.646 114.782 133.18C114.782 132.714 114.937 132.262 115.248 131.811C115.551 131.366 115.968 130.943 116.476 130.555C116.991 130.167 117.591 129.814 118.275 129.503C118.953 129.193 119.673 128.924 120.414 128.699C121.959 128.233 123.314 128.007 124.471 128.007C125.629 128.007 126.518 128.092 127.111 128.275C127.711 128.459 128.191 128.734 128.55 129.108C129.186 129.807 129.503 130.893 129.503 132.368C129.503 133.843 129.383 135.262 129.143 136.645C128.903 138.021 128.572 139.425 128.141 140.851C127.718 142.283 127.203 143.702 126.603 145.113ZM140.978 151.577C139.524 151.577 138.55 151.14 138.049 150.251C137.887 149.976 137.809 149.736 137.809 149.531V149.157C136.447 150.773 134.782 151.577 132.82 151.577C131.571 151.577 130.576 151.203 129.828 150.448C129.094 149.7 128.72 148.712 128.72 147.491C128.72 145.946 129.32 144.45 130.519 142.996C131.67 141.585 133.187 140.434 135.057 139.545C137.005 138.621 139.009 138.162 141.084 138.162C141.867 138.162 142.432 138.289 142.77 138.543C143.038 138.219 143.285 138.028 143.497 137.979C143.709 137.922 143.878 137.894 143.998 137.894C144.379 137.894 144.782 137.95 145.205 138.056C145.17 138.19 145.085 138.416 144.951 138.734C144.824 139.051 144.683 139.425 144.52 139.863C144.358 140.293 144.189 140.766 144.012 141.281C143.363 143.123 143.038 144.499 143.038 145.41C143.038 146.32 143.328 146.779 143.892 146.779C144.633 146.779 145.452 146.44 146.355 145.77C147.167 145.149 147.873 144.386 148.479 143.462C148.931 143.434 149.157 143.624 149.157 144.026C149.157 144.365 148.945 144.895 148.536 145.6C148.12 146.306 147.717 146.92 147.329 147.435C146.941 147.95 146.511 148.451 146.031 148.945C145.551 149.439 145.043 149.884 144.506 150.279C143.3 151.147 142.121 151.577 140.978 151.577ZM161.944 145.113C161.344 146.532 160.688 147.88 159.961 149.164C159.241 150.455 158.465 151.648 157.646 152.756C156.821 153.857 155.974 154.817 155.099 155.621C153.215 157.357 151.429 158.225 149.736 158.225C148.55 158.225 147.569 157.851 146.786 157.096C146.009 156.355 145.621 155.522 145.621 154.584C145.621 153.645 145.777 152.798 146.094 152.022C146.405 151.246 146.849 150.505 147.407 149.799C147.971 149.1 148.642 148.451 149.411 147.851C150.18 147.244 151.02 146.722 151.93 146.264C153.864 145.304 155.868 144.76 157.95 144.612C160.067 141.408 161.478 138.324 162.198 135.375C162.445 134.358 162.572 133.377 162.572 132.439C162.572 131.5 162.354 130.823 161.916 130.414C161.471 129.997 160.78 129.793 159.82 129.793C158.557 129.793 157.237 130.068 155.875 130.625C154.28 131.289 153.483 132.15 153.483 133.201C153.483 133.646 153.68 134.224 154.069 134.937C153.68 135.382 153.222 135.607 152.692 135.607C152.234 135.607 151.683 135.311 151.034 134.725C150.427 134.161 150.124 133.646 150.124 133.18C150.124 132.714 150.279 132.262 150.582 131.811C150.893 131.366 151.302 130.943 151.817 130.555C152.333 130.167 152.925 129.814 153.61 129.503C154.294 129.193 155.007 128.924 155.755 128.699C157.301 128.233 158.656 128.007 159.813 128.007C160.97 128.007 161.852 128.092 162.452 128.275C163.052 128.459 163.525 128.734 163.885 129.108C164.52 129.807 164.845 130.893 164.845 132.368C164.845 133.843 164.725 135.262 164.485 136.645C164.245 138.021 163.913 139.425 163.483 140.851C163.052 142.283 162.544 143.702 161.944 145.113ZM182.671 147.435C182.282 147.95 181.845 148.451 181.365 148.945C180.892 149.439 180.384 149.884 179.841 150.279C178.641 151.147 177.463 151.577 176.319 151.577C174.866 151.577 173.885 151.14 173.391 150.251C173.228 149.976 173.151 149.736 173.151 149.531V149.157C171.782 150.773 170.116 151.577 168.154 151.577C166.912 151.577 165.917 151.203 165.169 150.448C164.428 149.7 164.061 148.712 164.061 147.491C164.061 145.946 164.661 144.45 165.854 142.996C167.011 141.585 168.528 140.434 170.398 139.545C172.339 138.621 174.35 138.162 176.425 138.162C177.209 138.162 177.773 138.289 178.112 138.543C178.38 138.219 178.62 138.028 178.839 137.979C179.05 137.922 179.22 137.894 179.34 137.894C179.714 137.894 180.116 137.95 180.546 138.056C180.504 138.19 180.419 138.416 180.292 138.734C180.165 139.051 180.017 139.425 179.862 139.863C179.7 140.293 179.53 140.766 179.354 141.281C178.705 143.123 178.38 144.499 178.38 145.41C178.38 146.32 178.662 146.779 179.234 146.779C179.968 146.779 180.793 146.44 181.697 145.77C182.501 145.149 183.214 144.386 183.821 143.462C184.266 143.434 184.491 143.624 184.491 144.026C184.491 144.365 184.287 144.895 183.87 145.6C183.461 146.306 183.059 146.92 182.671 147.435ZM162.036 111.614C163.483 111.614 165.176 110.428 167.138 108.064C168.176 106.808 169.079 105.608 169.855 104.458C170.631 103.308 171.224 102.432 171.626 101.833C168.253 101.861 165.459 102.637 163.229 104.169C161.126 105.622 160.074 107.309 160.074 109.235C160.074 110.823 160.73 111.614 162.036 111.614ZM150.766 150.427C150.766 150.886 150.971 151.112 151.38 151.112C152.241 151.112 153.476 150.208 155.085 148.402C155.579 147.844 156.087 147.23 156.595 146.553C154.81 146.878 153.377 147.435 152.29 148.218C151.274 148.945 150.766 149.686 150.766 150.427ZM133.533 145.022C133.533 146.193 134.02 146.779 134.986 146.779C136.052 146.779 137.308 145.911 138.755 144.161C139.517 143.229 140.187 142.347 140.759 141.493C141.338 140.646 141.768 140.004 142.072 139.559C139.581 139.581 137.513 140.152 135.869 141.281C134.316 142.354 133.533 143.603 133.533 145.022ZM124.98 103.809C124.98 102.715 124.479 102.164 123.476 102.164C122.185 102.164 121.056 102.792 120.103 104.049C119.186 105.248 118.671 106.617 118.565 108.149C120.287 107.944 121.776 107.457 123.018 106.695C124.323 105.869 124.98 104.91 124.98 103.809ZM115.424 150.427C115.424 150.886 115.629 151.112 116.038 151.112C116.906 151.112 118.141 150.208 119.743 148.402C120.244 147.844 120.745 147.23 121.254 146.553C119.468 146.878 118.036 147.435 116.949 148.218C115.933 148.945 115.424 149.686 115.424 150.427ZM98.1982 145.022C98.1982 146.193 98.6781 146.779 99.6449 146.779C100.711 146.779 101.967 145.911 103.413 144.161C104.183 143.229 104.853 142.347 105.425 141.493C105.996 140.646 106.434 140.004 106.73 139.559C104.239 139.581 102.171 140.152 100.527 141.281C98.9745 142.354 98.1982 143.603 98.1982 145.022ZM80.09 150.427C80.09 150.886 80.2876 151.112 80.6969 151.112C81.5649 151.112 82.7999 150.208 84.4089 148.402C84.9029 147.844 85.4039 147.23 85.912 146.553C84.1336 146.878 82.694 147.435 81.6143 148.218C80.5981 148.945 80.09 149.686 80.09 150.427ZM123.476 102.164C122.185 102.164 121.056 102.792 120.103 104.049C119.186 105.248 118.671 106.617 118.565 108.149C120.287 107.944 121.776 107.457 123.018 106.695C124.323 105.869 124.98 104.91 124.98 103.809C124.98 102.708 124.479 102.164 123.476 102.164ZM163.229 104.169C161.126 105.622 160.074 107.309 160.074 109.235C160.074 110.823 160.73 111.614 162.036 111.614C163.483 111.614 165.176 110.428 167.138 108.064C168.176 106.808 169.079 105.608 169.855 104.458C170.631 103.308 171.224 102.432 171.626 101.833C168.253 101.861 165.459 102.637 163.229 104.169ZM81.6143 148.218C80.5981 148.945 80.09 149.686 80.09 150.427C80.09 150.886 80.2876 151.112 80.6969 151.112C81.5649 151.112 82.7999 150.208 84.4089 148.402C84.9029 147.844 85.4039 147.23 85.912 146.553C84.1336 146.878 82.694 147.435 81.6143 148.218ZM100.527 141.281C98.9745 142.354 98.1982 143.603 98.1982 145.022C98.1982 146.193 98.6781 146.779 99.6449 146.779C100.711 146.779 101.967 145.911 103.413 144.161C104.183 143.229 104.853 142.347 105.425 141.493C105.996 140.646 106.434 140.004 106.73 139.559C104.239 139.581 102.171 140.152 100.527 141.281ZM116.949 148.218C115.933 148.945 115.424 149.686 115.424 150.427C115.424 150.886 115.629 151.112 116.038 151.112C116.906 151.112 118.141 150.208 119.743 148.402C120.244 147.844 120.745 147.23 121.254 146.553C119.468 146.878 118.036 147.435 116.949 148.218ZM135.869 141.281C134.316 142.354 133.533 143.603 133.533 145.022C133.533 146.193 134.02 146.779 134.986 146.779C136.052 146.779 137.308 145.911 138.755 144.161C139.517 143.229 140.187 142.347 140.759 141.493C141.338 140.646 141.768 140.004 142.072 139.559C139.581 139.581 137.513 140.152 135.869 141.281ZM163.229 104.169C161.126 105.622 160.074 107.309 160.074 109.235C160.074 110.823 160.73 111.614 162.036 111.614C163.483 111.614 165.176 110.428 167.138 108.064C168.176 106.808 169.079 105.608 169.855 104.458C170.631 103.308 171.224 102.432 171.626 101.833C168.253 101.861 165.459 102.637 163.229 104.169ZM135.869 141.281C134.316 142.354 133.533 143.603 133.533 145.022C133.533 146.193 134.02 146.779 134.986 146.779C136.052 146.779 137.308 145.911 138.755 144.161C139.517 143.229 140.187 142.347 140.759 141.493C141.338 140.646 141.768 140.004 142.072 139.559C139.581 139.581 137.513 140.152 135.869 141.281ZM123.476 102.164C122.185 102.164 121.056 102.792 120.103 104.049C119.186 105.248 118.671 106.617 118.565 108.149C120.287 107.944 121.776 107.457 123.018 106.695C124.323 105.869 124.98 104.91 124.98 103.809C124.98 102.708 124.479 102.164 123.476 102.164ZM116.949 148.218C115.933 148.945 115.424 149.686 115.424 150.427C115.424 150.886 115.629 151.112 116.038 151.112C116.906 151.112 118.141 150.208 119.743 148.402C120.244 147.844 120.745 147.23 121.254 146.553C119.468 146.878 118.036 147.435 116.949 148.218ZM100.527 141.281C98.9745 142.354 98.1982 143.603 98.1982 145.022C98.1982 146.193 98.6781 146.779 99.6449 146.779C100.711 146.779 101.967 145.911 103.413 144.161C104.183 143.229 104.853 142.347 105.425 141.493C105.996 140.646 106.434 140.004 106.73 139.559C104.239 139.581 102.171 140.152 100.527 141.281ZM81.6143 148.218C80.5981 148.945 80.09 149.686 80.09 150.427C80.09 150.886 80.2876 151.112 80.6969 151.112C81.5649 151.112 82.7999 150.208 84.4089 148.402C84.9029 147.844 85.4039 147.23 85.912 146.553C84.1336 146.878 82.694 147.435 81.6143 148.218ZM123.476 102.164C122.185 102.164 121.056 102.792 120.103 104.049C119.186 105.248 118.671 106.617 118.565 108.149C120.287 107.944 121.776 107.457 123.018 106.695C124.323 105.869 124.98 104.91 124.98 103.809C124.98 102.708 124.479 102.164 123.476 102.164ZM163.229 104.169C161.126 105.622 160.074 107.309 160.074 109.235C160.074 110.823 160.73 111.614 162.036 111.614C163.483 111.614 165.176 110.428 167.138 108.064C168.176 106.808 169.079 105.608 169.855 104.458C170.631 103.308 171.224 102.432 171.626 101.833C168.253 101.861 165.459 102.637 163.229 104.169ZM81.6143 148.218C80.5981 148.945 80.09 149.686 80.09 150.427C80.09 150.886 80.2876 151.112 80.6969 151.112C81.5649 151.112 82.7999 150.208 84.4089 148.402C84.9029 147.844 85.4039 147.23 85.912 146.553C84.1336 146.878 82.694 147.435 81.6143 148.218ZM100.527 141.281C98.9745 142.354 98.1982 143.603 98.1982 145.022C98.1982 146.193 98.6781 146.779 99.6449 146.779C100.711 146.779 101.967 145.911 103.413 144.161C104.183 143.229 104.853 142.347 105.425 141.493C105.996 140.646 106.434 140.004 106.73 139.559C104.239 139.581 102.171 140.152 100.527 141.281ZM163.229 104.169C161.126 105.622 160.074 107.309 160.074 109.235C160.074 110.823 160.73 111.614 162.036 111.614C163.483 111.614 165.176 110.428 167.138 108.064C168.176 106.808 169.079 105.608 169.855 104.458C170.631 103.308 171.224 102.432 171.626 101.833C168.253 101.861 165.459 102.637 163.229 104.169ZM123.476 102.164C122.185 102.164 121.056 102.792 120.103 104.049C119.186 105.248 118.671 106.617 118.565 108.149C120.287 107.944 121.776 107.457 123.018 106.695C124.323 105.869 124.98 104.91 124.98 103.809C124.98 102.708 124.479 102.164 123.476 102.164ZM100.527 141.281C98.9745 142.354 98.1982 143.603 98.1982 145.022C98.1982 146.193 98.6781 146.779 99.6449 146.779C100.711 146.779 101.967 145.911 103.413 144.161C104.183 143.229 104.853 142.347 105.425 141.493C105.996 140.646 106.434 140.004 106.73 139.559C104.239 139.581 102.171 140.152 100.527 141.281ZM81.6143 148.218C80.5981 148.945 80.09 149.686 80.09 150.427C80.09 150.886 80.2876 151.112 80.6969 151.112C81.5649 151.112 82.7999 150.208 84.4089 148.402C84.9029 147.844 85.4039 147.23 85.912 146.553C84.1336 146.878 82.694 147.435 81.6143 148.218ZM123.476 102.164C122.185 102.164 121.056 102.792 120.103 104.049C119.186 105.248 118.671 106.617 118.565 108.149C120.287 107.944 121.776 107.457 123.018 106.695C124.323 105.869 124.98 104.91 124.98 103.809C124.98 102.708 124.479 102.164 123.476 102.164ZM163.229 104.169C161.126 105.622 160.074 107.309 160.074 109.235C160.074 110.823 160.73 111.614 162.036 111.614C163.483 111.614 165.176 110.428 167.138 108.064C168.176 106.808 169.079 105.608 169.855 104.458C170.631 103.308 171.224 102.432 171.626 101.833C168.253 101.861 165.459 102.637 163.229 104.169ZM163.229 104.169C161.126 105.622 160.074 107.309 160.074 109.235C160.074 110.823 160.73 111.614 162.036 111.614C163.483 111.614 165.176 110.428 167.138 108.064C168.176 106.808 169.079 105.608 169.855 104.458C170.631 103.308 171.224 102.432 171.626 101.833C168.253 101.861 165.459 102.637 163.229 104.169ZM123.476 102.164C122.185 102.164 121.056 102.792 120.103 104.049C119.186 105.248 118.671 106.617 118.565 108.149C120.287 107.944 121.776 107.457 123.018 106.695C124.323 105.869 124.98 104.91 124.98 103.809C124.98 102.708 124.479 102.164 123.476 102.164ZM123.476 102.164C122.185 102.164 121.056 102.792 120.103 104.049C119.186 105.248 118.671 106.617 118.565 108.149C120.287 107.944 121.776 107.457 123.018 106.695C124.323 105.869 124.98 104.91 124.98 103.809C124.98 102.708 124.479 102.164 123.476 102.164ZM163.229 104.169C161.126 105.622 160.074 107.309 160.074 109.235C160.074 110.823 160.73 111.614 162.036 111.614C163.483 111.614 165.176 110.428 167.138 108.064C168.176 106.808 169.079 105.608 169.855 104.458C170.631 103.308 171.224 102.432 171.626 101.833C168.253 101.861 165.459 102.637 163.229 104.169ZM163.229 104.169C161.126 105.622 160.074 107.309 160.074 109.235C160.074 110.823 160.73 111.614 162.036 111.614C163.483 111.614 165.176 110.428 167.138 108.064C168.176 106.808 169.079 105.608 169.855 104.458C170.631 103.308 171.224 102.432 171.626 101.833C168.253 101.861 165.459 102.637 163.229 104.169ZM123.476 102.164C122.185 102.164 121.056 102.792 120.103 104.049C119.186 105.248 118.671 106.617 118.565 108.149C120.287 107.944 121.776 107.457 123.018 106.695C124.323 105.869 124.98 104.91 124.98 103.809C124.98 102.708 124.479 102.164 123.476 102.164Z" fill="#FFC328"/>
</g>
<defs>
<clipPath id="clip0_394_12053">
<rect width="256" height="256" fill="white"/>
</clipPath>
</defs>
</svg>
