<svg width="256" height="256" viewBox="0 0 256 256" fill="none" xmlns="http://www.w3.org/2000/svg">
<g clip-path="url(#clip0_483_17699)">
<path d="M128 256C119.318 256 110.64 255.125 102.208 253.4C93.9878 251.718 85.9018 249.208 78.1752 245.94C70.59 242.731 63.2737 238.76 56.4313 234.138C49.6543 229.559 43.2818 224.302 37.4904 218.51C31.699 212.719 26.4411 206.346 21.8631 199.569C17.2399 192.726 13.2693 185.411 10.0611 177.825C6.7927 170.099 4.28282 162.013 2.60085 153.793C0.87502 145.359 0 136.682 0 128C0 119.318 0.87502 110.64 2.60019 102.208C4.28217 93.9878 6.79204 85.9018 10.0604 78.1752C13.2686 70.59 17.2399 63.2737 21.8624 56.4313C26.4411 49.6543 31.6984 43.2818 37.4897 37.4904C43.2811 31.699 49.6536 26.4411 56.4306 21.8631C63.2737 17.2399 70.5893 13.2693 78.1746 10.0611C85.9012 6.7927 93.9871 4.28282 102.207 2.60085C110.641 0.87502 119.318 0 128 0C136.681 0 145.359 0.87502 153.791 2.60019C162.012 4.28217 170.098 6.79204 177.824 10.0604C185.409 13.2686 192.726 17.2399 199.568 21.8624C206.345 26.4411 212.718 31.6984 218.509 37.4897C224.3 43.2811 229.558 49.6536 234.136 56.4306C238.759 63.2737 242.73 70.5893 245.938 78.1746C249.207 85.9012 251.717 93.9871 253.399 102.207C255.124 110.639 255.999 119.318 255.999 127.999C255.999 136.681 255.124 145.359 253.399 153.791C251.717 162.011 249.207 170.097 245.938 177.823C242.73 185.409 238.759 192.725 234.136 199.567C229.558 206.344 224.3 212.717 218.509 218.508C212.718 224.3 206.345 229.558 199.568 234.136C192.725 238.759 185.409 242.729 177.824 245.938C170.098 249.206 162.012 251.716 153.791 253.398C145.359 255.124 136.681 255.998 128 255.998V256Z" fill="#F8FCFF"/>
<path d="M128 256C119.318 256 110.64 255.125 102.208 253.4C93.9878 251.718 85.9018 249.208 78.1752 245.94C70.59 242.731 63.2737 238.76 56.4313 234.138C49.6543 229.559 43.2818 224.302 37.4904 218.51C31.699 212.719 26.4411 206.346 21.8631 199.569C17.2399 192.726 13.2693 185.411 10.0611 177.825C6.7927 170.099 4.28282 162.013 2.60085 153.793C0.87502 145.359 0 136.682 0 128C0 119.318 0.87502 110.64 2.60019 102.208C4.28217 93.9878 6.79204 85.9018 10.0604 78.1752C13.2686 70.59 17.2399 63.2737 21.8624 56.4313C26.4411 49.6543 31.6984 43.2818 37.4897 37.4904C43.2811 31.699 49.6536 26.4411 56.4306 21.8631C63.2737 17.2399 70.5893 13.2693 78.1746 10.0611C85.9012 6.7927 93.9871 4.28282 102.207 2.60085C110.641 0.87502 119.318 0 128 0C136.681 0 145.359 0.87502 153.791 2.60019C162.012 4.28217 170.098 6.79204 177.824 10.0604C185.409 13.2686 192.726 17.2399 199.568 21.8624C206.345 26.4411 212.718 31.6984 218.509 37.4897C224.3 43.2811 229.558 49.6536 234.136 56.4306C238.759 63.2737 242.73 70.5893 245.938 78.1746C249.207 85.9012 251.717 93.9871 253.399 102.207C255.124 110.639 255.999 119.318 255.999 127.999C255.999 136.681 255.124 145.359 253.399 153.791C251.717 162.011 249.207 170.097 245.938 177.823C242.73 185.409 238.759 192.725 234.136 199.567C229.558 206.344 224.3 212.717 218.509 218.508C212.718 224.3 206.345 229.558 199.568 234.136C192.725 238.759 185.409 242.729 177.824 245.938C170.098 249.206 162.012 251.716 153.791 253.398C145.359 255.124 136.681 255.998 128 255.998V256ZM128 8.37716C119.88 8.37716 111.768 9.19458 103.887 10.8078C96.2084 12.3792 88.6558 14.7235 81.4384 17.7766C74.3512 20.774 67.5153 24.4849 61.1205 28.805C54.7853 33.0852 48.8277 38.0002 43.414 43.4146C38.0002 48.829 33.0845 54.7859 28.8043 61.1212C24.4842 67.516 20.7734 74.3518 17.7759 81.439C14.7235 88.6565 12.3786 96.209 10.8072 103.888C9.19458 111.769 8.3765 119.882 8.3765 128C8.3765 136.119 9.19393 144.232 10.8072 152.113C12.3786 159.792 14.7229 167.344 17.7759 174.562C20.7734 181.649 24.4842 188.485 28.8043 194.879C33.0845 201.215 37.9996 207.172 43.414 212.586C48.8283 218 54.7853 222.915 61.1205 227.196C67.5153 231.516 74.3512 235.227 81.4384 238.224C88.6558 241.277 96.2084 243.621 103.887 245.192C111.768 246.805 119.881 247.623 128 247.623C136.118 247.623 144.231 246.805 152.112 245.192C159.791 243.621 167.344 241.277 174.561 238.224C181.648 235.227 188.484 231.516 194.879 227.196C201.214 222.915 207.172 218 212.585 212.586C218 207.172 222.915 201.215 227.195 194.879C231.515 188.485 235.226 181.649 238.223 174.562C241.276 167.344 243.621 159.792 245.192 152.113C246.804 144.232 247.622 136.119 247.622 128C247.622 119.882 246.805 111.769 245.192 103.888C243.62 96.209 241.276 88.6565 238.223 81.439C235.226 74.3518 231.515 67.516 227.195 61.1212C222.915 54.7859 218 48.8284 212.585 43.4146C207.171 38.0009 201.214 33.0852 194.879 28.805C188.484 24.4849 181.648 20.774 174.561 17.7766C167.344 14.7242 159.791 12.3792 152.112 10.8078C144.231 9.19524 136.118 8.37716 128 8.37716Z" fill="#484850"/>
<path d="M128 244.633C120.087 244.633 112.179 243.835 104.495 242.263C97.0061 240.73 89.6395 238.444 82.6007 235.466C75.6896 232.543 69.0238 228.925 62.7887 224.713C56.6132 220.54 50.8055 215.749 45.5285 210.471C40.2509 205.194 35.4596 199.387 31.2874 193.211C27.0752 186.976 23.4567 180.31 20.5338 173.399C17.5567 166.36 15.27 158.994 13.7372 151.505C12.1652 143.821 11.3674 135.913 11.3674 128C11.3674 120.088 12.1645 112.18 13.7372 104.496C15.27 97.0068 17.556 89.6401 20.5338 82.6014C23.4573 75.6902 27.0752 69.0245 31.2874 62.7894C35.4596 56.6138 40.2509 50.8061 45.5285 45.5292C50.8061 40.2516 56.6132 35.4602 62.7887 31.288C69.0238 27.0759 75.6896 23.4573 82.6007 20.5345C89.6401 17.5573 97.0061 15.2706 104.495 13.7379C112.179 12.1658 120.087 11.368 128 11.368C135.912 11.368 143.82 12.1652 151.504 13.7379C158.993 15.2706 166.36 17.5567 173.399 20.5345C180.31 23.458 186.976 27.0759 193.211 31.288C199.386 35.4602 205.193 40.2516 210.471 45.5292C215.748 50.8068 220.54 56.6138 224.712 62.7894C228.924 69.0245 232.543 75.6902 235.465 82.6014C238.443 89.6408 240.729 97.0068 242.262 104.496C243.834 112.179 244.632 120.088 244.632 128C244.632 135.913 243.835 143.821 242.262 151.505C240.729 158.994 238.443 166.36 235.465 173.399C232.542 180.31 228.924 186.976 224.712 193.211C220.54 199.387 215.748 205.194 210.471 210.471C205.193 215.749 199.386 220.54 193.211 224.713C186.976 228.925 180.31 232.543 173.399 235.466C166.359 238.443 158.993 240.73 151.504 242.263C143.821 243.835 135.912 244.633 128 244.633ZM128 13.7235C120.246 13.7235 112.496 14.5049 104.968 16.0455C97.6312 17.5468 90.4144 19.7871 83.5183 22.704C76.7472 25.568 70.2163 29.1126 64.1075 33.2403C58.0563 37.3287 52.3657 42.0239 47.1941 47.1954C42.0226 52.367 37.3274 58.0576 33.239 64.1088C29.1119 70.2182 25.5667 76.7485 22.7027 83.5196C19.7858 90.4157 17.5456 97.6325 16.0442 104.969C14.5036 112.497 13.7222 120.247 13.7222 128.001C13.7222 135.755 14.5036 143.505 16.0442 151.033C17.5456 158.369 19.7858 165.586 22.7027 172.482C25.5667 179.253 29.1113 185.784 33.239 191.893C37.3274 197.944 42.0226 203.635 47.1941 208.806C52.3657 213.978 58.0563 218.673 64.1075 222.762C70.2169 226.889 76.7472 230.434 83.5183 233.298C90.4144 236.215 97.6312 238.455 104.968 239.956C112.496 241.497 120.246 242.278 128 242.278C135.754 242.278 143.503 241.496 151.032 239.956C158.368 238.455 165.585 236.215 172.481 233.298C179.252 230.434 185.783 226.889 191.892 222.762C197.943 218.673 203.634 213.978 208.805 208.806C213.977 203.635 218.672 197.944 222.76 191.893C226.887 185.784 230.433 179.253 233.297 172.482C236.214 165.586 238.454 158.369 239.955 151.033C241.496 143.504 242.277 135.755 242.277 128.001C242.277 120.247 241.495 112.497 239.955 104.969C238.454 97.6325 236.214 90.4157 233.297 83.5196C230.433 76.7485 226.888 70.2176 222.76 64.1088C218.672 58.0576 213.977 52.367 208.805 47.1954C203.634 42.0239 197.943 37.3287 191.892 33.2403C185.782 29.1132 179.252 25.568 172.481 22.704C165.585 19.7871 158.368 17.5468 151.032 16.0455C143.503 14.5049 135.754 13.7235 128 13.7235Z" fill="#484850"/>
<path d="M129.956 213.18C130.64 214.645 131.752 219.498 132.181 222.94C132.61 226.381 132.395 231.995 132.313 233.149C134.212 232.761 145.628 231.395 147.621 231.202C147.727 230.562 148.01 226.778 148.083 226.234C144.452 228.585 142.87 229.171 139.686 229.571C137.889 229.796 137.571 229.346 137.546 228.864C137.522 228.382 136.717 223.662 136.955 223.463C137.222 223.24 140.042 223.093 145.295 223.847C145.374 222.918 144.882 219.443 144.76 218.993C144.338 219.275 137.163 221.743 136.632 221.532C136.311 221.404 135.949 217.926 135.901 216.898C135.853 215.87 135.777 214.489 138.378 214.497C140.977 214.505 144.655 215.364 147.013 216.524C146.748 215.197 145.669 212.074 145.325 211.458C144.457 211.574 131.853 212.953 129.956 213.18Z" fill="#068BB0"/>
<path d="M145.325 211.458C145.669 212.074 146.748 215.196 147.013 216.524C144.655 215.364 140.977 214.505 138.378 214.497C138.37 214.497 138.363 214.497 138.355 214.497C135.778 214.497 135.853 215.873 135.901 216.898C135.949 217.926 136.311 221.404 136.632 221.532C136.654 221.54 136.687 221.545 136.73 221.545C137.741 221.545 144.356 219.264 144.76 218.993C144.882 219.444 145.374 222.919 145.295 223.848C142.33 223.422 140.141 223.283 138.747 223.283C137.672 223.283 137.071 223.366 136.955 223.463C136.717 223.663 137.521 228.383 137.546 228.865C137.567 229.259 137.783 229.632 138.842 229.632C139.078 229.632 139.358 229.613 139.686 229.571C142.87 229.171 144.452 228.586 148.083 226.234C148.011 226.779 147.728 230.562 147.622 231.202C145.629 231.396 134.213 232.761 132.313 233.149C132.395 231.995 132.61 226.381 132.182 222.94C131.753 219.499 130.64 214.646 129.957 213.18C131.854 212.953 144.457 211.574 145.326 211.459M146.105 209.903L145.136 210.031C144.708 210.088 141.121 210.485 137.652 210.87C134.244 211.248 130.72 211.638 129.784 211.75L127.811 211.987L128.651 213.789C129.216 215 130.318 219.635 130.752 223.118C131.154 226.344 130.966 231.793 130.877 233.048L130.743 234.94L132.601 234.56C134.434 234.186 145.869 232.82 147.761 232.636L148.861 232.528L149.042 231.438C149.108 231.037 149.206 229.92 149.346 228.261C149.411 227.49 149.484 226.617 149.511 226.425L149.924 223.328L147.301 225.026C147.059 225.183 146.827 225.331 146.603 225.472L146.73 223.97C146.827 222.834 146.308 219.203 146.151 218.62L145.871 217.582C146.047 217.659 146.215 217.737 146.377 217.816L148.995 219.104L148.424 216.243C148.152 214.876 147.05 211.595 146.582 210.757L146.105 209.904L146.105 209.903ZM137.358 216.093C137.414 216.059 137.668 215.937 138.355 215.937H138.374C140.271 215.943 142.818 216.449 144.87 217.186L144.022 217.754C143.679 217.908 142.232 218.44 140.462 219.022C139.179 219.445 138.271 219.716 137.664 219.881C137.517 218.921 137.372 217.543 137.339 216.83V216.818C137.328 216.609 137.311 216.226 137.357 216.092L137.358 216.093ZM138.432 224.725C138.529 224.723 138.633 224.722 138.747 224.722C139.686 224.722 141.759 224.794 145.09 225.273L146.577 225.487C143.541 227.393 142.169 227.808 139.506 228.143C139.283 228.171 139.084 228.187 138.915 228.19C138.886 227.986 138.847 227.719 138.794 227.358C138.703 226.741 138.534 225.587 138.433 224.725H138.432Z" fill="#484850"/>
<path d="M129.056 219.072C128.687 215.339 125.487 213.394 121.623 212.842C117.759 212.29 114.019 212.557 113.23 212.653C113.758 213.487 114.142 219.33 114.069 221.609C113.997 223.888 114.334 226.553 112.832 233.74C113.729 233.83 117.869 233.886 118.461 233.903C118.096 232.605 118.312 225.747 118.348 225.459C118.384 225.172 118.369 224.858 118.751 225.026C119.134 225.194 120.643 225.712 122.263 225.56C123.848 225.412 129.462 223.191 129.055 219.072H129.056ZM126.014 220.106C125.322 221.641 123.397 222.658 121.647 222.747C119.897 222.836 118.655 222.526 118.054 221.997C117.581 221.58 117.902 220.301 117.925 219.156C117.948 218.012 117.782 217.343 118.002 216.415C118.357 214.917 120.432 214.824 121.493 215.097C124.606 215.897 126.705 218.572 126.013 220.106H126.014Z" fill="#068BB0"/>
<path d="M116.541 212.504C118.011 212.504 119.803 212.581 121.623 212.842C125.487 213.394 128.686 215.339 129.056 219.072C129.464 223.191 123.848 225.412 122.263 225.56C122.06 225.579 121.859 225.588 121.662 225.588C120.284 225.588 119.087 225.173 118.752 225.026C118.678 224.993 118.619 224.979 118.571 224.979C118.373 224.979 118.377 225.228 118.348 225.459C118.312 225.747 118.096 232.605 118.461 233.903C117.869 233.885 113.729 233.829 112.832 233.739C114.333 226.552 113.997 223.887 114.069 221.608C114.142 219.328 113.758 213.487 113.23 212.652C113.647 212.602 114.891 212.503 116.541 212.503M121.067 222.762C121.253 222.762 121.447 222.757 121.647 222.747C123.397 222.658 125.322 221.641 126.014 220.106C126.706 218.572 124.607 215.898 121.494 215.097C121.208 215.024 120.848 214.977 120.467 214.977C119.438 214.977 118.262 215.321 118.002 216.415C117.781 217.343 117.948 218.012 117.925 219.156C117.902 220.3 117.581 221.58 118.054 221.997C118.586 222.466 119.621 222.762 121.067 222.762ZM116.541 211.064C114.833 211.064 113.548 211.164 113.057 211.223L110.792 211.497L111.978 213.367C112.073 213.638 112.282 214.682 112.459 216.943C112.595 218.669 112.664 220.525 112.63 221.563C112.616 222 112.616 222.446 112.617 222.916C112.618 224.94 112.62 227.711 111.423 233.446L111.095 235.013L112.688 235.172C113.374 235.241 115.446 235.285 117.509 235.324C117.943 235.332 118.286 235.338 118.418 235.343L120.378 235.403L119.848 233.515C119.831 233.45 119.676 232.774 119.694 229.412C119.7 228.457 119.719 227.526 119.738 226.82C120.31 226.94 120.972 227.028 121.662 227.028C121.912 227.028 122.159 227.017 122.399 226.994C123.774 226.865 127.144 225.653 129.07 223.315C130.153 222.002 130.644 220.486 130.49 218.931C130.278 216.785 129.254 214.949 127.528 213.623C126.074 212.505 124.102 211.742 121.827 211.417C120.189 211.183 118.411 211.064 116.543 211.064L116.541 211.064ZM119.237 221.048C119.242 220.823 119.27 220.509 119.292 220.277C119.323 219.942 119.357 219.563 119.365 219.185C119.373 218.745 119.357 218.376 119.344 218.05C119.321 217.515 119.306 217.161 119.404 216.747C119.414 216.706 119.426 216.654 119.58 216.579C119.791 216.475 120.115 216.417 120.468 216.417C120.706 216.417 120.95 216.444 121.136 216.492C122.826 216.926 124.054 218.005 124.52 218.881C124.723 219.262 124.714 219.479 124.701 219.516C124.278 220.453 122.905 221.242 121.575 221.309C121.401 221.318 121.231 221.322 121.068 221.322C120.139 221.322 119.549 221.179 119.238 221.048H119.237Z" fill="#484850"/>
<path d="M77.7184 208.136C76.8323 203.01 71.9205 200.773 71.107 200.709C67.5297 200.432 64.9989 200.978 62.6101 204.957C60.2213 208.936 61.4922 212.796 62.5826 214.076C63.6729 215.356 66.027 218.368 69.6227 218.026C73.2183 217.684 78.6045 213.261 77.7184 208.136ZM72.9624 214.774C72.2215 215.436 71.0566 215.813 69.713 215.968C67.658 216.205 66.4289 214.517 65.8045 213.783C65.1802 213.05 64.3863 210.798 65.8202 208.559C66.9636 206.774 68.5408 206.345 69.7143 206.46C70.6057 206.548 71.4473 207.153 72.27 207.77C73.1856 208.457 73.9637 209.194 74.1876 210.177C74.6012 211.993 74.1974 213.67 72.9624 214.773V214.774Z" fill="#068BB0"/>
<path d="M69.6822 200.649C70.139 200.649 70.6129 200.671 71.107 200.709C71.9205 200.772 76.8323 203.009 77.7184 208.136C78.6045 213.262 73.2183 217.684 69.6227 218.026C69.4316 218.044 69.2444 218.053 69.0605 218.053C65.781 218.053 63.6153 215.288 62.5826 214.076C61.4922 212.796 60.2206 208.935 62.6101 204.957C64.669 201.527 66.8333 200.649 69.6822 200.649ZM69.3249 215.991C69.4505 215.991 69.5801 215.983 69.713 215.968C71.0566 215.814 72.2209 215.436 72.9624 214.775C74.1974 213.671 74.6012 211.994 74.1876 210.178C73.9637 209.195 73.1856 208.459 72.27 207.772C71.4467 207.155 70.6057 206.549 69.7143 206.462C69.5984 206.45 69.4787 206.444 69.3556 206.444C68.2332 206.444 66.8504 206.951 65.8202 208.56C64.3863 210.798 65.1802 213.05 65.8045 213.783C66.389 214.469 67.5015 215.99 69.3249 215.99M69.6822 199.209C67.8654 199.209 66.4236 199.543 65.1448 200.261C63.7286 201.056 62.4955 202.35 61.3757 204.215C59.8535 206.75 59.7108 209.123 59.8587 210.666C60.023 212.382 60.6323 214.006 61.487 215.01C61.5367 215.068 61.5891 215.13 61.6434 215.195C62.8215 216.59 65.2737 219.493 69.0605 219.493C69.2915 219.493 69.5265 219.481 69.7588 219.459C72.3217 219.216 75.3152 217.388 77.2079 214.911C77.9835 213.896 78.5489 212.814 78.8879 211.697C79.2715 210.433 79.3552 209.152 79.1373 207.89C78.5921 204.738 76.7557 202.632 75.3106 201.421C74.4075 200.664 73.5612 200.171 73.0102 199.892C72.5023 199.634 71.7791 199.318 71.2182 199.274C70.6521 199.23 70.1495 199.209 69.6822 199.209ZM69.3249 214.551C68.3949 214.551 67.7214 213.835 67.0572 213.037C67.0015 212.97 66.9492 212.907 66.9001 212.85C66.8124 212.748 66.5454 212.295 66.4721 211.588C66.3903 210.803 66.5787 210.045 67.0323 209.337C67.8013 208.136 68.7202 207.884 69.3556 207.884C69.4289 207.884 69.5022 207.888 69.5736 207.895C70.103 207.947 70.8563 208.512 71.4067 208.924C72.268 209.57 72.6797 210.041 72.7837 210.498C72.9611 211.276 73.0946 212.726 72.0036 213.701C71.5435 214.112 70.6718 214.409 69.5487 214.539C69.4735 214.547 69.3982 214.552 69.3255 214.552L69.3249 214.551Z" fill="#484850"/>
<path d="M197.498 194.238C192.313 193.811 188.917 198.005 188.652 198.777C187.487 202.17 187.381 204.757 190.633 208.067C193.886 211.377 197.942 211.114 199.455 210.379C200.967 209.644 204.473 208.121 205.043 204.554C205.614 200.988 202.683 194.664 197.498 194.237V194.238ZM202.732 200.507C203.187 201.39 203.26 202.612 203.073 203.952C202.787 206.001 200.846 206.767 199.979 207.188C199.113 207.609 196.734 207.812 194.926 205.863C193.484 204.309 193.465 202.675 193.87 201.567C194.179 200.726 194.976 200.063 195.779 199.421C196.673 198.707 197.582 198.139 198.59 198.168C200.451 198.223 201.974 199.034 202.732 200.507H202.732Z" fill="#068BB0"/>
<path d="M196.76 194.207C197.002 194.207 197.248 194.217 197.497 194.237C202.682 194.664 205.613 200.988 205.043 204.554C204.472 208.12 200.967 209.644 199.454 210.379C198.913 210.642 198.046 210.844 197.006 210.844C195.141 210.844 192.721 210.192 190.633 208.067C187.38 204.757 187.485 202.17 188.651 198.777C188.903 198.042 191.992 194.207 196.76 194.207M198.515 207.467C199.138 207.467 199.661 207.342 199.979 207.187C200.846 206.766 202.787 206 203.073 203.951C203.261 202.611 203.187 201.389 202.732 200.506C201.973 199.033 200.451 198.222 198.589 198.167C198.563 198.167 198.539 198.166 198.513 198.166C197.536 198.166 196.65 198.724 195.779 199.42C194.975 200.062 194.178 200.725 193.87 201.566C193.464 202.673 193.483 204.308 194.925 205.862C196.069 207.095 197.441 207.467 198.514 207.467M196.76 192.767C193.825 192.767 191.545 194.017 190.148 195.065C188.605 196.223 187.542 197.573 187.29 198.309C186.756 199.862 186.254 201.714 186.563 203.677C186.859 205.549 187.826 207.264 189.606 209.076C192.35 211.868 195.421 212.284 197.007 212.284C198.181 212.284 199.274 212.068 200.084 211.674C200.152 211.641 200.226 211.606 200.302 211.569C201.169 211.153 202.478 210.523 203.691 209.497C205.241 208.184 206.174 206.598 206.465 204.781C206.871 202.239 205.852 198.883 203.929 196.43C203.14 195.425 202.235 194.607 201.239 193.999C200.111 193.31 198.892 192.908 197.616 192.803C197.332 192.779 197.044 192.767 196.76 192.767ZM198.515 206.028C197.965 206.028 196.905 205.879 195.982 204.884C194.863 203.677 195.026 202.598 195.222 202.062C195.406 201.562 196.141 200.974 196.678 200.546C197.502 199.887 198.051 199.607 198.514 199.607C198.525 199.607 198.536 199.607 198.547 199.607C199.344 199.63 200.782 199.864 201.452 201.165C201.734 201.713 201.804 202.632 201.648 203.751C201.503 204.794 200.582 205.309 199.571 205.787C199.492 205.824 199.418 205.859 199.351 205.891C199.274 205.929 198.972 206.027 198.516 206.027L198.515 206.028Z" fill="#484850"/>
<path d="M42.143 193.245C43.7916 194.739 53.2283 207.452 53.9096 208.475C54.8952 207.877 57.7624 206.102 58.343 204.914C52.4292 202.914 48.0999 198.637 48.3898 197.16C48.6798 195.683 50.7394 192.699 54.5287 190.089C58.3181 187.479 62.8529 184.652 64.4262 183.966C63.4733 183.351 60.5276 179.732 60.0838 178.646C57.8528 181.901 46.9415 192.152 42.143 193.245Z" fill="#068BB0"/>
<path d="M60.0838 178.645C60.5276 179.732 63.4733 183.351 64.4262 183.966C62.8529 184.651 58.3181 187.478 54.5287 190.089C50.7394 192.699 48.6798 195.683 48.3898 197.16C48.0999 198.637 52.4292 202.914 58.343 204.914C57.7631 206.102 54.8952 207.876 53.9096 208.475C53.2283 207.452 43.7916 194.739 42.143 193.245C46.9415 192.152 57.8528 181.901 60.0838 178.645ZM60.4065 175.627L58.896 177.831C57.9634 179.193 54.9266 182.401 51.1366 185.665C47.1293 189.117 43.6476 191.425 41.8236 191.841L39.1272 192.455L41.1763 194.311C41.4034 194.518 42.5127 195.674 47.2426 201.907C49.9481 205.473 52.4083 208.818 52.7119 209.274L53.477 210.422L54.657 209.706C58.4136 207.426 59.2985 206.24 59.6368 205.547L60.3548 204.075L58.8037 203.551C56.4987 202.772 54.2074 201.53 52.3526 200.056C51.581 199.442 50.9213 198.815 50.4455 198.242C50.0286 197.74 49.882 197.438 49.8336 197.313C49.9665 196.856 50.4017 196.016 51.263 194.96C52.0032 194.052 53.3127 192.676 55.3455 191.275C59.1604 188.648 63.582 185.905 65.0008 185.287L67.4649 184.214L65.207 182.757C64.9845 182.61 64.2043 181.831 63.1696 180.56C62.1343 179.289 61.521 178.357 61.417 178.102L60.4065 175.628V175.627Z" fill="#484850"/>
<path d="M76.2675 222.531C79.0967 223.504 87.8914 227.509 89.2678 227.645C90.6441 227.78 94.1265 228.006 95.4662 224.981C96.8059 221.956 95.3471 219.12 93.6959 217.943C92.0447 216.767 87.7245 214.197 87.1041 213.097C86.4647 211.962 86.0144 210.354 88.6997 210.734C91.385 211.113 97.137 214.169 97.8589 215.369C98.5939 214.37 100.914 211.094 101.172 210.83C97.406 210.547 92.9419 207.937 90.7403 206.765C88.5387 205.592 83.5085 205.504 81.6118 208.011C79.7145 210.517 80.4573 213.863 82.9011 215.522C85.3442 217.181 89.1022 219.317 89.9327 220.296C90.7632 221.276 91.9144 223.058 88.1421 222.9C85.5753 222.793 79.6661 218.679 79.6078 218.095C79.0784 218.767 76.952 221.759 76.2681 222.531H76.2675Z" fill="#068BB0"/>
<path d="M86.9254 205.973C88.4006 205.973 89.8188 206.274 90.7403 206.765C92.9419 207.937 97.406 210.547 101.172 210.83C100.914 211.094 98.5939 214.371 97.8589 215.369C97.137 214.169 91.3849 211.113 88.6997 210.734C88.4261 210.695 88.1853 210.677 87.9732 210.677C86.1086 210.677 86.5301 212.077 87.1041 213.096C87.7245 214.197 92.0453 216.767 93.6959 217.943C95.3471 219.12 96.8059 221.956 95.4662 224.981C94.4347 227.309 92.1343 227.711 90.5014 227.711C90.0132 227.711 89.5845 227.675 89.2677 227.644C87.8908 227.508 79.0967 223.504 76.2674 222.531C76.9514 221.758 79.0777 218.765 79.6072 218.094C79.6654 218.679 85.5746 222.792 88.1414 222.9C88.2998 222.906 88.449 222.91 88.5904 222.91C91.8175 222.91 90.7279 221.234 89.932 220.296C89.1015 219.317 85.3442 217.18 82.9004 215.521C80.4573 213.862 79.7145 210.517 81.6112 208.01C82.7139 206.552 84.8756 205.973 86.9254 205.973M86.9254 204.533C84.0733 204.533 81.7178 205.484 80.4632 207.142C79.346 208.619 78.8932 210.417 79.1883 212.208C79.3487 213.18 79.727 214.103 80.2819 214.912L78.4763 217.204C78.2708 217.465 77.8859 217.991 77.3984 218.656C76.6326 219.701 75.5835 221.132 75.1895 221.578L73.7602 223.192L75.7995 223.894C76.9173 224.278 79.1419 225.213 81.2931 226.117C86.4005 228.263 88.2487 228.992 89.1277 229.079C89.4785 229.113 89.9517 229.152 90.5021 229.152C91.739 229.152 92.8418 228.948 93.7796 228.543C95.1612 227.947 96.1717 226.945 96.783 225.565C97.5369 223.863 97.6364 222.05 97.0716 220.322C96.5997 218.879 95.6743 217.585 94.5316 216.771C94.0624 216.437 93.4249 216.02 92.6873 215.537C91.7776 214.941 90.7462 214.267 89.8901 213.651C88.6709 212.774 88.3934 212.434 88.3508 212.376C88.3004 212.286 88.2579 212.203 88.2226 212.129C88.3083 212.136 88.4006 212.147 88.4981 212.161C89.5204 212.305 91.3254 212.99 93.2096 213.95C95.3615 215.045 96.4381 215.885 96.637 216.133L97.7378 217.964L99.018 216.224C99.2693 215.882 99.7038 215.278 100.163 214.638C100.85 213.682 101.993 212.093 102.224 211.813L104.356 209.627L101.279 209.395C98.1914 209.163 94.4027 207.111 92.1389 205.884C91.881 205.744 91.6382 205.612 91.4164 205.494C90.2704 204.884 88.6329 204.534 86.9254 204.534V204.533ZM80.9986 217.538L80.8035 215.58C81.1805 216.007 81.6131 216.388 82.0922 216.714C82.9384 217.288 83.9345 217.917 84.8985 218.523C85.8501 219.123 86.7487 219.69 87.4909 220.194C88.5151 220.891 88.7782 221.161 88.8351 221.228C88.9065 221.311 88.968 221.388 89.0204 221.457C88.8999 221.465 88.7573 221.47 88.591 221.47C88.4693 221.47 88.3384 221.468 88.2023 221.462C87.6074 221.437 86.2147 220.96 84.0916 219.695C82.604 218.808 81.4521 217.945 80.9992 217.538H80.9986Z" fill="#484850"/>
<path d="M212.909 200.162C214.633 197.717 220.929 190.387 221.443 189.102C221.957 187.817 223.144 184.536 220.612 182.407C218.081 180.277 214.95 180.888 213.361 182.146C211.772 183.403 208.099 186.837 206.869 187.125C205.602 187.423 203.932 187.407 205.045 184.935C206.157 182.462 210.695 177.789 212.049 177.431C211.294 176.446 208.794 173.305 208.612 172.984C207.291 176.522 203.539 180.081 201.8 181.869C200.062 183.657 198.575 188.462 200.453 190.983C202.332 193.503 205.751 193.722 208.026 191.838C210.3 189.954 213.398 186.94 214.57 186.416C215.743 185.891 217.775 185.282 216.572 188.862C215.754 191.297 210.157 195.825 209.579 195.718C210.077 196.414 212.358 199.29 212.909 200.162Z" fill="#068BB0"/>
<path d="M208.612 172.984C208.794 173.305 211.294 176.446 212.049 177.431C210.695 177.789 206.157 182.462 205.044 184.935C204.214 186.779 204.932 187.257 205.876 187.257C206.198 187.257 206.547 187.201 206.869 187.126C208.098 186.837 211.771 183.404 213.36 182.146C214.195 181.485 215.456 181.003 216.832 181.003C218.074 181.003 219.411 181.396 220.612 182.407C223.144 184.537 221.957 187.818 221.443 189.102C220.929 190.387 214.633 197.717 212.909 200.163C212.358 199.291 210.077 196.415 209.579 195.719C209.585 195.72 209.593 195.721 209.601 195.721C210.287 195.721 215.763 191.269 216.572 188.862C217.33 186.61 216.805 186.016 216.02 186.016C215.558 186.016 215.005 186.222 214.57 186.417C213.398 186.941 210.3 189.955 208.026 191.839C207.028 192.666 205.809 193.088 204.596 193.088C203.047 193.088 201.507 192.398 200.452 190.983C198.573 188.463 200.06 183.657 201.8 181.869C203.539 180.081 207.29 176.522 208.611 172.984M208.343 169.59L207.263 172.48C206.179 175.382 203.153 178.448 201.344 180.28C201.137 180.489 200.943 180.686 200.768 180.865C199.683 181.981 198.76 183.897 198.359 185.864C197.872 188.254 198.206 190.378 199.299 191.844C200.57 193.55 202.501 194.527 204.597 194.527C205.317 194.527 206.031 194.41 206.711 194.185L208.408 196.556C208.602 196.826 208.998 197.342 209.502 197.996C210.292 199.023 211.375 200.429 211.692 200.932L212.845 202.755L214.087 200.992C214.767 200.026 216.285 198.149 217.753 196.335C221.237 192.028 222.453 190.457 222.781 189.637C223.112 188.807 223.559 187.542 223.609 186.123C223.679 184.168 222.964 182.503 221.54 181.305C220.185 180.165 218.557 179.563 216.832 179.563C215.226 179.563 213.635 180.093 212.468 181.017C212.016 181.375 211.437 181.871 210.768 182.445C209.943 183.152 209.007 183.954 208.177 184.606C206.996 185.532 206.59 185.704 206.523 185.728C206.421 185.752 206.331 185.769 206.25 185.782C206.279 185.706 206.314 185.621 206.357 185.526C206.78 184.585 207.942 183.042 209.388 181.5C211.04 179.738 212.147 178.939 212.44 178.817L214.505 178.27L213.191 176.555C212.933 176.219 212.473 175.633 211.987 175.012C211.26 174.086 210.052 172.546 209.848 172.247L208.342 169.59L208.343 169.59ZM207.497 193.87C208.012 193.626 208.5 193.317 208.945 192.947C209.733 192.295 210.614 191.513 211.466 190.757C212.307 190.01 213.101 189.305 213.792 188.733C214.746 187.944 215.08 187.766 215.159 187.731C215.26 187.686 215.35 187.648 215.432 187.616C215.388 187.817 215.318 188.076 215.208 188.404C215.019 188.968 214.172 190.173 212.365 191.859C211.099 193.041 209.949 193.907 209.432 194.228L207.498 193.871L207.497 193.87Z" fill="#484850"/>
<path d="M172.399 202.318C170.965 202.683 167.139 204.941 166.626 205.242C167.671 206.527 175.2 221.684 175.384 223.056C176.016 222.563 180.772 220.086 181.325 219.866C180.519 219.277 176.957 213.751 176.774 213.252C177.458 213.364 179.126 213.452 179.571 213.509C179.955 212.905 180.774 211.428 181.117 210.946C181.307 211.706 183.325 217.861 183.58 218.466C184.206 218.15 189.339 215.404 189.756 215.261C188.136 213.842 180.675 198.762 180.272 197.711C179.735 198.045 174.797 200.685 174.388 200.886C175.167 201.276 179.35 204.93 179.685 207.212C179.861 208.409 178.717 210.947 178.5 211.064C178.283 211.18 175.095 211.142 174.456 210.065C173.817 208.988 173.013 205.377 172.399 202.318L172.399 202.318Z" fill="#068BB0"/>
<path d="M180.271 197.713C180.674 198.764 188.135 213.843 189.756 215.262C189.339 215.405 184.206 218.151 183.579 218.468C183.324 217.862 181.306 211.706 181.117 210.947C180.774 211.429 179.954 212.905 179.57 213.51C179.126 213.453 177.457 213.365 176.773 213.253C176.956 213.752 180.519 219.277 181.324 219.867C180.772 220.086 176.016 222.565 175.384 223.056C175.2 221.685 167.67 206.528 166.626 205.243C167.137 204.942 170.964 202.683 172.398 202.319C173.012 205.379 173.816 208.989 174.455 210.066C174.948 210.898 176.96 211.11 177.952 211.11C178.245 211.11 178.449 211.092 178.499 211.065C178.716 210.949 179.86 208.411 179.684 207.213C179.349 204.931 175.166 201.276 174.386 200.887C174.795 200.687 179.734 198.046 180.27 197.713M180.992 195.569L179.511 196.49C179.034 196.787 174.136 199.406 173.755 199.594L171.141 200.873L171.55 201.078C170.11 201.596 167.746 202.914 165.915 203.991L165.896 204.003L164.452 204.852L165.508 206.15C165.876 206.624 167.64 209.91 169.957 214.594C172.355 219.44 173.801 222.669 173.962 223.285L174.291 225.732L176.266 224.195C176.84 223.771 181.263 221.451 181.859 221.204L184.277 220.243L183.861 219.938L184.229 219.752C184.43 219.651 185 219.349 185.791 218.931C187.102 218.238 189.813 216.806 190.255 216.612L192.575 215.816L190.709 214.182C190.605 214.082 189.657 213.049 185.801 205.619C183.622 201.421 181.778 197.613 181.616 197.196L180.992 195.568L180.992 195.569ZM175.656 209.263C175.437 208.839 174.886 207.361 173.853 202.249C174.238 202.522 175.208 203.321 176.225 204.402C177.615 205.88 178.188 206.931 178.26 207.422C178.275 207.524 178.252 207.976 177.967 208.82C177.859 209.14 177.742 209.432 177.641 209.663C176.704 209.625 175.906 209.423 175.656 209.262V209.263ZM180.295 215.053L180.697 214.422C181.217 216.023 181.805 217.79 182.099 218.616C181.824 218.304 181.168 217.455 180.02 215.737C179.84 215.468 179.666 215.205 179.501 214.952L180.295 215.053Z" fill="#484850"/>
<path d="M164.945 209.657C164.054 209.17 159.383 207.13 155.734 208.839C152.085 210.547 149.15 214.345 149.815 218.603C150.496 222.966 155.175 228.452 159.479 228.328C163.784 228.204 167.685 225.861 169.048 220.317C168.349 220.003 165.225 219.131 164.958 219.072C165.044 219.903 163.997 222.966 160.328 223.344C156.658 223.722 154.242 221.363 154.129 218.014C154.016 214.665 156.109 212.479 158.852 212.11C161.596 211.741 163.292 213.305 163.292 213.305L164.945 209.658V209.657Z" fill="#068BB0"/>
<path d="M158.998 208.168C161.743 208.168 164.309 209.309 164.945 209.657L163.292 213.304C163.292 213.304 161.936 212.053 159.686 212.053C159.421 212.053 159.142 212.071 158.852 212.11C156.109 212.479 154.017 214.665 154.129 218.014C154.235 221.126 156.328 223.383 159.569 223.383C159.815 223.383 160.068 223.37 160.328 223.344C163.997 222.966 165.044 219.903 164.958 219.071C165.225 219.131 168.349 220.002 169.048 220.317C167.685 225.86 163.783 228.203 159.479 228.327C159.432 228.329 159.383 228.329 159.335 228.329C155.071 228.329 150.488 222.916 149.815 218.603C149.15 214.343 152.085 210.546 155.734 208.838C156.776 208.35 157.901 208.168 158.998 208.168M158.998 206.729C157.57 206.729 156.266 207 155.124 207.535C153.014 208.522 151.178 210.1 149.952 211.977C148.564 214.102 148.025 216.471 148.393 218.826C148.766 221.218 150.18 223.924 152.176 226.066C153.198 227.164 154.299 228.043 155.447 228.677C156.759 229.403 158.067 229.77 159.335 229.77C159.397 229.77 159.46 229.77 159.521 229.768C162.084 229.694 164.408 228.908 166.245 227.497C168.308 225.911 169.722 223.611 170.446 220.662L170.732 219.497L169.639 219.004C168.792 218.624 165.564 217.732 165.271 217.667L163.322 217.232L163.523 219.184C163.51 219.337 163.365 219.958 162.833 220.596C162.202 221.353 161.31 221.795 160.181 221.912C159.974 221.933 159.768 221.944 159.57 221.944C158.396 221.944 157.403 221.567 156.699 220.854C156 220.146 155.609 219.147 155.569 217.965C155.527 216.731 155.857 215.661 156.521 214.872C157.14 214.137 158.013 213.676 159.045 213.536C159.26 213.508 159.475 213.493 159.686 213.493C161.25 213.493 162.221 214.282 162.322 214.368L163.786 215.785L164.604 213.898L166.256 210.251L166.807 209.035L165.637 208.394C165.19 208.149 164.28 207.743 163.187 207.405C161.731 206.956 160.321 206.727 158.998 206.727V206.729Z" fill="#484850"/>
<path d="M176.99 36.1795C177.691 35.9013 180.116 38.3216 180.846 38.4773C181.538 37.2469 181.052 33.8129 180.692 32.9785C179.576 32.7233 164.61 30.2108 162.899 29.6754L160.023 35.2416C160.023 35.2416 164.698 33.8908 164.822 34.0682C164.946 34.2455 165.082 35.2888 164.428 37.904C163.775 40.5199 160.661 50.4036 154.498 55.9417C155.745 56.1584 165.33 57.9202 166.056 58.2055C165.737 57.4156 165.258 51.2996 165.698 51.0987C166.138 50.8978 167.67 52.8546 168.361 52.8788C169.052 52.903 170.01 51.509 170.641 52.0071C171.272 52.5051 170.186 55.106 168.294 58.5C169.764 58.5511 176.234 60.2913 179.861 60.5047C177.819 57.2585 175.958 47.1752 176.176 40.9106C176.28 37.9393 176.761 36.2718 176.99 36.1808L176.99 36.1795ZM168.555 50.2034C167.711 50.1739 166.235 48.9115 166.298 47.1254C166.461 42.4591 169.124 38.0539 171.166 35.7312C171.883 38.3229 172.124 42.1377 171.997 45.7956C171.869 49.4534 170.168 50.259 168.556 50.2027L168.555 50.2034Z" fill="#068BB0"/>
<path d="M162.898 29.6747C164.61 30.2101 179.575 32.7226 180.691 32.9778C181.051 33.8123 181.537 37.2463 180.845 38.4766C180.155 38.33 177.949 36.1566 177.118 36.1566C177.07 36.1566 177.027 36.1638 176.989 36.1788C176.76 36.2698 176.279 37.9374 176.175 40.9086C175.956 47.1732 177.818 57.2572 179.859 60.5027C176.233 60.2893 169.762 58.5498 168.293 58.4981C170.185 55.1033 171.271 52.5025 170.639 52.0051C170.544 51.9298 170.44 51.8978 170.332 51.8978C169.73 51.8978 168.962 52.8775 168.378 52.8775C168.372 52.8775 168.366 52.8775 168.36 52.8775C167.702 52.8546 166.284 51.083 165.769 51.083C165.743 51.083 165.718 51.0875 165.697 51.0974C165.257 51.2983 165.736 57.4143 166.054 58.2042C165.329 57.9195 155.744 56.157 154.497 55.9404C160.66 50.4023 163.773 40.5186 164.427 37.9027C165.081 35.2868 164.944 34.2436 164.821 34.0669C164.813 34.0557 164.788 34.0505 164.748 34.0505C164.138 34.0505 160.021 35.2397 160.021 35.2397L162.898 29.6734M168.708 50.206C170.274 50.206 171.873 49.3382 171.997 45.7962C172.124 42.1384 171.883 38.3228 171.166 35.7318C169.124 38.0539 166.461 42.4597 166.298 47.1261C166.235 48.9121 167.711 50.1746 168.555 50.204C168.606 50.206 168.656 50.2066 168.707 50.2066M162.175 27.9398L161.62 29.0137L158.743 34.58L157.207 37.5532L160.422 36.6245C161.409 36.3392 162.523 36.0329 163.391 35.8104C163.324 36.2515 163.213 36.8248 163.031 37.5552C162.94 37.919 162.087 41.228 160.224 45.2176C159.343 47.1025 158.379 48.8309 157.36 50.3539C156.158 52.1504 154.871 53.6701 153.535 54.8704L151.329 56.8527L154.251 57.3599C156.093 57.68 164.642 59.271 165.55 59.5537L165.966 59.7167L165.889 59.8554L166.362 59.8718L168.64 60.7664L168.307 59.9412C168.842 59.9811 170.314 60.2906 171.739 60.591C174.312 61.1329 177.515 61.8077 179.774 61.9405L182.568 62.1048L181.078 59.737C180.216 58.3659 179.284 55.3147 178.585 51.5738C177.876 47.7864 177.514 43.8184 177.613 40.9597C177.655 39.7515 177.759 38.836 177.866 38.1874C178.079 38.3444 178.285 38.5015 178.443 38.6219C179.391 39.3451 179.956 39.7607 180.545 39.8857L181.581 40.1063L182.1 39.1835C182.549 38.3837 182.717 37.137 182.598 35.4772C182.525 34.4556 182.316 33.1107 182.013 32.4084L181.723 31.7383L181.012 31.5753C180.621 31.4863 179.091 31.216 176.193 30.7068C171.774 29.93 164.378 28.6302 163.328 28.3017L162.174 27.9404L162.175 27.9398ZM168.656 48.7655C168.397 48.6699 167.705 48.0718 167.737 47.1751C167.836 44.3374 168.992 41.5075 170.352 39.281C170.565 41.1744 170.639 43.3976 170.558 45.7451C170.527 46.611 170.378 47.7661 169.836 48.3506C169.671 48.5286 169.375 48.7655 168.707 48.7655C168.69 48.7655 168.673 48.7655 168.655 48.7655H168.656ZM167.323 57.2801C167.241 56.7644 167.135 55.8573 167.053 54.6884C167.031 54.3756 167.013 54.0863 167 53.8199C167.413 54.104 167.84 54.3003 168.311 54.3173C168.334 54.318 168.357 54.3186 168.379 54.3186C168.532 54.3186 168.678 54.3016 168.817 54.2709C168.513 54.9816 168.044 55.9574 167.323 57.2801Z" fill="#484850"/>
<path d="M101.237 31.5014C102.119 33.493 103.491 40.0586 103.978 44.7039C104.464 49.3493 104.027 56.9038 103.887 58.4562C106.455 57.9837 121.865 56.4451 124.555 56.2363C124.714 55.377 125.195 50.2892 125.307 49.5575C120.354 52.6289 118.209 53.3756 113.91 53.8311C111.484 54.0883 111.068 53.4725 111.047 52.8226C111.026 52.1727 110.067 45.7949 110.393 45.5325C110.758 45.2393 114.56 45.1156 121.614 46.2701C121.744 45.0201 121.173 40.3282 121.021 39.7176C120.446 40.0867 110.719 43.2222 110.008 42.9231C109.579 42.7425 109.184 38.0493 109.146 36.6638C109.108 35.2783 109.043 33.4157 112.544 33.4949C116.045 33.5741 120.976 34.8274 124.12 36.4511C123.799 34.6566 122.427 30.4229 121.981 29.5851C120.808 29.7173 103.798 31.2429 101.237 31.4995L101.237 31.5014Z" fill="#068BB0"/>
<path d="M121.981 29.5871C122.427 30.4248 123.799 34.6585 124.12 36.4531C120.976 34.8294 116.045 33.5754 112.544 33.4969C112.472 33.4956 112.401 33.4942 112.332 33.4942C109.046 33.4942 109.109 35.3084 109.146 36.6658C109.184 38.0513 109.58 42.7445 110.008 42.9251C110.04 42.9388 110.092 42.9454 110.159 42.9454C111.583 42.9454 120.472 40.0723 121.021 39.7195C121.173 40.3301 121.744 45.022 121.614 46.272C117.266 45.56 114.153 45.3342 112.319 45.3342C111.179 45.3342 110.533 45.4219 110.393 45.5338C110.067 45.7962 111.027 52.174 111.047 52.8239C111.064 53.3697 111.361 53.892 112.896 53.892C113.187 53.892 113.523 53.873 113.91 53.8324C118.208 53.3769 120.354 52.6302 125.306 49.5587C125.194 50.2904 124.714 55.3776 124.554 56.2376C121.865 56.4463 106.455 57.985 103.886 58.4575C104.027 56.9051 104.463 49.3506 103.977 44.7052C103.491 40.0598 102.119 33.4942 101.237 31.5027C103.798 31.2462 120.808 29.7206 121.981 29.5884M122.791 28.0465L121.819 28.1558C121.236 28.2212 116.393 28.663 111.709 29.0897C107.109 29.5086 102.353 29.9418 101.093 30.0681L99.1148 30.2664L99.9198 32.0839C100.678 33.7973 102.039 40.0258 102.544 44.8531C103.004 49.2446 102.605 56.6283 102.451 58.326L102.28 60.2154L104.146 59.8718C106.635 59.4137 122.106 57.8705 124.665 57.6715L125.767 57.5858L125.969 56.4987C126.065 55.9804 126.231 54.4182 126.456 52.2676C126.57 51.1753 126.687 50.0457 126.729 49.7747L127.202 46.6863L124.547 48.3329C122.03 49.8938 120.384 50.7603 118.862 51.3245C117.412 51.8618 115.982 52.1629 113.758 52.3985C113.434 52.4332 113.143 52.4502 112.896 52.4502C112.706 52.4502 112.563 52.4397 112.459 52.4266C112.429 52.1334 112.37 51.672 112.271 50.8893C112.147 49.9135 111.9 47.971 111.803 46.7786C111.952 46.774 112.122 46.7714 112.319 46.7714C113.607 46.7714 116.497 46.8905 121.382 47.6903L122.888 47.937L123.047 46.4186C123.197 44.9736 122.606 40.1246 122.419 39.37L121.935 37.4197L120.296 38.4715C119.886 38.6567 117.874 39.3537 115.356 40.1286C113.211 40.7883 111.835 41.1548 111.031 41.34C110.969 40.9551 110.894 40.408 110.813 39.6397C110.685 38.4165 110.601 37.1966 110.586 36.6232V36.6075C110.571 36.1069 110.554 35.4845 110.76 35.2724C110.838 35.1926 111.182 34.9314 112.332 34.9314C112.391 34.9314 112.452 34.9321 112.512 34.9334C115.81 35.008 120.517 36.2103 123.46 37.7299L126.052 39.069L125.538 36.1972C125.196 34.2894 123.786 29.9097 123.252 28.9078L122.791 28.0452L122.791 28.0465Z" fill="#484850"/>
<path d="M97.4558 36.5604C95.3046 31.2658 89.79 29.8043 83.9057 30.6656C78.0214 31.5269 72.6745 33.5322 71.5619 34.0126C72.6954 35.0041 75.7773 43.3734 76.6543 46.7347C77.5319 50.096 79.1746 53.8448 80.083 64.9936C81.4332 64.7377 87.5053 63.0322 88.3783 62.8031C87.2854 61.0636 84.6394 50.9501 84.5681 50.5149C84.4967 50.0797 84.3396 49.6274 84.9712 49.7073C85.6028 49.7871 88.0321 49.8925 90.3319 48.9717C92.5839 48.0698 99.8289 42.4021 97.4558 36.5604ZM93.4563 39.3837C93.1082 41.9237 90.7344 44.2418 88.216 45.1267C85.6977 46.0122 83.7487 46.0953 82.642 45.5809C81.7722 45.1764 81.6877 43.1685 81.2277 41.4872C80.7676 39.8059 80.2368 38.9008 80.1576 37.4485C80.03 35.1075 83.0216 34.076 84.6898 34.0165C89.5839 33.8411 93.8045 36.8438 93.4563 39.3837Z" fill="#068BB0"/>
<path d="M86.9523 30.4346C91.6212 30.4346 95.6822 32.1944 97.4558 36.5604C99.8289 42.4015 92.5839 48.0698 90.3319 48.9717C88.7239 49.6156 87.053 49.7577 85.9771 49.7577C85.5137 49.7577 85.161 49.7315 84.9712 49.7073C84.9221 49.7007 84.8776 49.6981 84.837 49.6981C84.3632 49.6981 84.5019 50.1143 84.568 50.5149C84.6394 50.9501 87.2854 61.0635 88.3783 62.8031C87.5053 63.0322 81.4332 64.7377 80.083 64.9936C79.1746 53.8448 77.5319 50.096 76.6542 46.7347C75.7766 43.3734 72.6947 35.0034 71.5618 34.0125C72.6744 33.5322 78.0221 31.5275 83.9057 30.6656C84.9385 30.5144 85.9588 30.4346 86.9523 30.4346ZM84.371 45.8983C85.411 45.8983 86.7127 45.6555 88.2167 45.1267C90.7351 44.2412 93.1082 41.9237 93.4563 39.3837C93.7947 36.9144 89.8169 34.0086 85.0995 34.0093C84.964 34.0093 84.8266 34.0119 84.6898 34.0165C83.0215 34.076 80.03 35.1075 80.1576 37.4485C80.2368 38.9001 80.7676 39.8059 81.2276 41.4872C81.6877 43.1685 81.7722 45.1764 82.6419 45.5809C83.0876 45.7883 83.6695 45.8983 84.3704 45.8983M86.9523 28.9948C85.9071 28.9948 84.8122 29.0772 83.6969 29.2408C77.8729 30.0936 72.4362 32.0662 70.9905 32.6905L68.8962 33.5943L70.5926 35.078C70.8282 35.3483 71.6057 36.7436 72.933 40.1913C73.9081 42.7248 74.844 45.501 75.2609 47.0986C75.4265 47.7327 75.6169 48.3761 75.8191 49.058C76.704 52.0457 77.9167 56.138 78.6477 65.1108L78.778 66.7064L80.3507 66.4086C81.3553 66.2181 84.5163 65.3562 87.4012 64.563C88.0406 64.3869 88.5452 64.2482 88.7435 64.1965L90.6408 63.6991L89.5976 62.0381C89.4621 61.8221 88.9098 60.7402 87.5105 55.8992C86.9693 54.0261 86.4915 52.2459 86.2199 51.1962C87.271 51.1772 89.0819 51.0247 90.8679 50.3094C91.9419 49.8794 93.4432 48.848 94.7856 47.6182C96.0068 46.4991 97.6626 44.696 98.6135 42.4591C99.0533 41.425 99.3033 40.3864 99.3563 39.3713C99.4172 38.2207 99.2261 37.0931 98.7902 36.0191C96.9505 31.4902 92.7462 28.9961 86.9529 28.9961L86.9523 28.9948ZM83.3874 44.3295C83.2342 44.0115 83.0706 43.1908 82.9692 42.6809C82.8671 42.1672 82.7617 41.6357 82.6164 41.1069C82.4456 40.4832 82.2669 39.9623 82.1099 39.5028C81.835 38.7011 81.636 38.1213 81.5955 37.3699C81.5791 37.0689 81.674 36.8222 81.9044 36.5708C82.5039 35.9144 83.818 35.4884 84.7415 35.455C84.8599 35.4511 84.9804 35.4484 85.0995 35.4484H85.1001C86.4176 35.4484 87.7422 35.7089 88.9314 36.2017C89.9864 36.6389 90.8823 37.2404 91.453 37.8948C91.8673 38.3693 92.0774 38.8405 92.0302 39.1874C91.7783 41.0271 89.9333 42.9964 87.7389 43.768C86.4549 44.2196 85.2899 44.4578 84.371 44.4578C83.8874 44.4578 83.5739 44.391 83.3874 44.3289V44.3295Z" fill="#484850"/>
<path d="M129.057 33.8136C129.748 35.0924 130.864 41.533 130.748 43.6057C130.633 45.6777 130.422 52.9377 129.53 56.1943C130.949 56.4601 134.406 56.5379 136.728 55.71C134.879 49.2001 136.194 43.7523 136.586 43.6797C136.978 43.607 142.564 49.6418 143.157 56.1943C144.799 56.2519 152.119 55.9882 152.814 55.8828C152.168 54.5628 151.255 47.2635 151.304 44.6267C151.353 41.9898 152.254 34.7541 152.787 33.129C151.741 33.3522 145.773 33.3169 144.992 33.3758C145.471 34.5171 146.228 41.3347 145.037 45.7059C143.391 44.5239 139.062 38.4466 138.28 33.5741C135.362 34.1212 132.915 32.3482 129.058 33.8143L129.057 33.8136Z" fill="#068BB0"/>
<path d="M152.786 33.1284C152.253 34.7534 151.352 41.9892 151.303 44.626C151.253 47.2629 152.167 54.5621 152.813 55.8822C152.184 55.9777 146.145 56.2022 143.777 56.2022C143.525 56.2022 143.314 56.1996 143.156 56.1944C142.566 49.6805 137.043 43.679 136.593 43.679C136.59 43.679 136.588 43.679 136.585 43.6797C136.193 43.7523 134.878 49.2001 136.727 55.71C135.336 56.2061 133.535 56.3769 132.011 56.3769C130.993 56.3769 130.097 56.3004 129.529 56.1944C130.421 52.9377 130.632 45.6784 130.747 43.6057C130.863 41.5337 129.746 35.0924 129.056 33.8136C130.242 33.3627 131.295 33.2187 132.269 33.2187C134.013 33.2187 135.504 33.6821 137.057 33.6821C137.459 33.6821 137.864 33.6513 138.278 33.5734C139.059 38.4453 143.389 44.5226 145.035 45.7052C146.226 41.3347 145.469 34.5165 144.99 33.3751C145.771 33.3156 151.739 33.3516 152.785 33.1284M154.934 31.1984L152.486 31.72C151.906 31.8397 148.634 31.877 147.062 31.8954C145.829 31.9091 145.171 31.9176 144.882 31.9399L142.89 32.0911L143.664 33.9327C143.798 34.273 144.105 36.0015 144.204 38.4426C144.264 39.9263 144.232 41.3282 144.115 42.5749C143.641 41.9453 143.113 41.1763 142.563 40.2745C141.03 37.7561 140.014 35.296 139.701 33.3457L139.467 31.8862L138.014 32.1585C137.713 32.2147 137.4 32.2422 137.058 32.2422C136.41 32.2422 135.731 32.1421 135.014 32.0361C134.158 31.9098 133.272 31.7789 132.269 31.7789C130.984 31.7789 129.765 32.004 128.545 32.468L127.009 33.0518L127.79 34.4982C127.947 34.7894 128.357 36.1762 128.786 38.6573C129.146 40.7392 129.357 42.6954 129.311 43.5252C129.294 43.8269 129.275 44.2373 129.253 44.7124C129.127 47.4592 128.864 53.1747 128.141 55.8135L127.728 57.3213L129.265 57.6093C129.968 57.7409 130.969 57.8168 132.012 57.8168C133.167 57.8168 135.379 57.7193 137.211 57.0668L138.481 56.6139L138.112 55.3167C137.266 52.3376 137.16 49.7132 137.219 48.0358C137.24 47.4494 137.281 46.935 137.332 46.4919C137.806 47.0907 138.355 47.8493 138.914 48.7485C140.047 50.5712 141.453 53.3644 141.722 56.3239L141.836 57.589L143.105 57.6335C143.277 57.6394 143.497 57.6427 143.777 57.6427C145.957 57.6427 152.227 57.4287 153.029 57.3069L154.969 57.0131L154.106 55.2506C153.957 54.9397 153.599 53.4299 153.223 50.5457C152.914 48.1772 152.721 45.8093 152.742 44.6542C152.791 42.0396 153.688 35.0002 154.154 33.578L154.934 31.1997V31.1984Z" fill="#484850"/>
<path d="M147.873 28.8907C143.087 29.6754 142.182 28.3462 138.66 28.8717C136.035 29.2637 134.516 31.1061 134.11 31.5681C133.705 32.0295 135.458 31.3554 137.896 30.9215C140.333 30.4876 141.925 31.9706 144.324 31.4058C146.723 30.841 147.416 29.5674 147.873 28.8913V28.8907Z" fill="#068BB0"/>
<path d="M140.296 28.7448C141.943 28.7448 143.079 29.1453 145.014 29.1453C145.804 29.1453 146.728 29.0785 147.873 28.8907C147.417 29.5668 146.724 30.8404 144.325 31.4052C143.931 31.4981 143.56 31.5354 143.202 31.5354C141.666 31.5354 140.397 30.8404 138.813 30.8404C138.52 30.8404 138.215 30.8646 137.896 30.9209C136.037 31.252 134.576 31.7226 134.167 31.7226C134.039 31.7226 134.014 31.6768 134.11 31.5675C134.516 31.1061 136.035 29.2631 138.66 28.8711C139.273 28.7795 139.808 28.7441 140.297 28.7441M150.932 26.9299L147.639 27.4699C146.673 27.6282 145.814 27.7055 145.014 27.7055C144.105 27.7055 143.4 27.6086 142.653 27.5065C141.931 27.4077 141.184 27.3049 140.296 27.3049C139.694 27.3049 139.09 27.3514 138.446 27.4476C137.137 27.6433 135.907 28.1544 134.788 28.9673C133.906 29.6087 133.322 30.2801 133.072 30.5661L133.027 30.6172C132.599 31.1054 132.492 31.7278 132.743 32.2808C132.936 32.7069 133.411 33.1624 134.166 33.1624C134.533 33.1624 134.957 33.0583 135.724 32.8699C136.387 32.7069 137.213 32.5047 138.148 32.3384C138.369 32.2992 138.586 32.2802 138.813 32.2802C139.436 32.2802 140.048 32.4307 140.697 32.5897C141.432 32.7704 142.265 32.9752 143.202 32.9752C143.697 32.9752 144.172 32.9203 144.654 32.8064C145.846 32.5256 146.85 32.0492 147.639 31.3895C148.328 30.8142 148.719 30.2199 148.979 29.8266C149.009 29.7808 149.037 29.7369 149.066 29.6957L150.931 26.9299H150.932Z" fill="#484850"/>
<path d="M119.076 77.3421C121.441 81.7519 124.717 85.9019 124.911 89.862C124.911 90.0381 124.185 90.1663 124.014 89.987C121.734 87.5878 118.924 80.0653 117.929 77.0829C117.882 76.9422 119.017 77.2413 119.075 77.3421H119.076Z" fill="#484850"/>
<path d="M137.986 89.4458C137.447 87.5779 138.474 86.1859 139.183 85.0236C140.304 83.1826 141.635 81.3998 142.925 79.6648C143.039 79.511 143.454 79.5457 143.66 79.7047C143.876 79.8716 144.278 80.1275 144.164 80.3245C143.085 82.1969 141.575 84.4529 140.461 86.305C139.988 87.0904 139.106 88.5387 138.645 89.3633C138.55 89.5328 138.014 89.521 137.987 89.4451L137.986 89.4458Z" fill="#484850"/>
<path d="M138.717 83.6394C138.357 84.5576 137.942 85.5936 137.29 86.5616C136.667 87.4857 135.817 88.3417 135.071 89.2128C134.879 89.4537 134.091 89.3313 133.644 89.3437C134.379 86.4209 136.18 85.2533 137.837 83.8848C138.139 83.9424 138.583 83.5392 138.716 83.64L138.717 83.6394Z" fill="#484850"/>
<path d="M86.7612 98.933C86.9837 98.9173 87.1761 98.9002 87.3351 98.8826C87.1401 98.8898 86.949 98.9068 86.7612 98.933ZM86.7612 98.933C86.9837 98.9173 87.1761 98.9002 87.3351 98.8826C87.1401 98.8898 86.949 98.9068 86.7612 98.933Z" fill="#484850"/>
<path d="M207.03 158.606C204.47 156.174 202.308 153.716 200.223 150.97C198.101 148.175 194.8 145.009 191 144.098C189.887 143.831 189.643 143.273 188.582 141.525C187.195 139.241 185.268 136.771 183.835 135.531C181.172 133.227 178.443 131.576 175.608 129.476C173.411 127.848 173.399 127.89 174.385 125.324C175.792 121.659 175.907 117.918 173.486 114.588C172.699 113.507 172.06 112.641 170.918 111.469C172.003 111.212 173.751 110.887 174.607 110.63C174.977 110.519 175.026 110.357 175.034 109.997C175.062 108.726 174.688 106.913 174.804 105.658C175.038 103.131 174.999 100.492 176.581 98.3059C176.843 97.944 177.089 97.5461 177.48 97.6822C180.776 98.8308 184.489 100.338 187.747 101.594C194.546 104.215 201.247 106.836 208.044 109.462C209.335 109.961 211.072 110.594 212.712 111.17C212.651 110.727 212.598 109.919 212.475 109.23C212.383 108.708 212.25 108.255 212.043 108.079C210.759 106.986 209.013 105.922 207.479 105.248C204.658 104.009 201.512 102.932 198.629 101.833C193.258 99.785 188.936 97.1632 184.153 93.6298C183.468 93.1232 182.981 92.6599 182.163 91.9635C183.517 91.563 184.055 91.6225 184.797 91.3666C185.284 91.1984 185.912 90.722 186.018 90.419C186.097 90.1945 185.91 89.4837 185.801 89.2736C184.786 87.3057 183.785 86.5373 181.944 86.2454C177.803 85.5897 173.156 86.3122 170.658 89.1087C169.916 89.9386 167.397 89.5511 166.974 88.612C166.468 87.4863 165.948 86.3652 165.482 85.2225C165.22 84.5792 165.116 83.8835 164.9 83.2428C164.827 83.0294 163.946 83.1184 164.033 82.9626C164.467 82.1838 164.826 81.1432 164.857 80.3016C164.923 78.4063 164.842 77.1386 163.974 75.7138C163.052 74.1993 161.48 73.0495 159.707 72.52C157.108 71.7444 154.356 71.3478 151.716 71.8681C150.038 72.1993 147.797 73.3014 146.581 74.2013C146.028 74.6104 145.478 75.3204 146.223 75.9206C147.177 76.6889 147.365 76.7609 146.826 77.4147C146.352 77.9894 146.181 79.0731 146.253 79.7198C146.296 80.1085 146.505 80.2682 146.642 80.3245C146.786 79.7918 147.121 80.0228 147.42 79.6334C147.694 79.276 147.89 78.5012 148.052 78.1792C148.4 77.4861 148.552 76.9592 149.401 77.2557C151.528 77.9966 153.667 77.9396 155.324 77.8172C155.376 77.8133 155.43 77.8179 155.488 77.829C156.265 77.9808 157.523 79.4298 157.599 80.0594C157.938 82.8573 157.118 85.75 154.038 86.9352C153.543 87.1257 153.196 87.7572 153.193 88.2841C153.191 88.5564 153.185 88.8293 153.176 89.1035C153.123 90.6735 152.952 92.2672 152.77 93.7927C152.508 95.9786 151.977 98.4741 151.636 100.811C151.597 101.079 151.56 101.345 151.527 101.608C151.624 101.792 152.544 102.607 152.737 102.531C153.285 102.315 154.25 100.728 154.481 100.369C155.998 98.014 157.345 95.5199 158.674 93.0493C159.373 91.7508 159.805 90.4098 160.432 89.0721C160.563 88.7939 160.639 88.256 160.915 87.9359C161.131 88.4366 161.195 89.0675 161.318 89.3967C161.947 91.0747 163.113 92.1782 165.016 92.5388C166.303 92.7829 167.592 93.3778 168.829 93.8543C169.488 94.1082 169.67 94.1579 169.421 95.0827C168.193 99.6384 167.239 104.216 166.143 108.806C165.893 109.856 165.296 110.291 164.361 110.456C160.785 111.088 157.201 111.472 153.572 110.809C149.744 110.109 146.55 108.4 145.043 104.707C144.139 102.494 143.915 99.698 143.472 97.3144C143.301 96.3982 143.766 96.2358 144.743 95.8975C146.666 95.2312 147.757 94.2882 148.686 92.1919C148.846 91.832 149.423 90.3326 148.904 90.1814C148.195 89.9746 147.638 90.6683 147.301 90.9255C146.213 91.7554 145.29 92.7816 144.19 93.5931C143.837 93.8549 143.023 93.9792 142.833 93.7895C142.5 93.455 142.328 92.8065 142.452 92.3627C142.67 91.5806 143.086 91.0662 143.544 90.3758C143.944 89.7724 145.455 88.4903 145.965 87.8901C142.117 87.9333 141.706 88.4752 141.169 90.0407C140.996 90.5466 140.622 90.6192 140.067 90.6304C133.453 90.7599 126.329 90.9065 119.714 90.9798C115.872 91.0217 112.031 91.063 108.188 91.0911C106.105 91.1061 104.02 91.0937 101.53 91.0937C105.195 87.3286 109.501 83.5196 112.77 80.1622C112.698 80.1622 111.199 80.3873 110.823 80.4299C106.163 80.956 101.705 81.4548 97.0428 81.9561C93.3588 82.3527 89.6703 82.8547 85.9765 83.142C83.8658 83.3062 81.7362 83.2074 79.6236 83.3534C74.6608 83.6976 69.7084 84.2801 64.7417 84.4358C62.362 84.5111 59.8011 84.2513 57.5995 83.4136C53.1485 81.7192 48.8892 79.5208 44.5423 77.5502C44.1862 77.3892 43.7615 77.3794 43.2994 77.2852C43.5684 79.6759 43.0416 81.6301 41.7189 83.4103C40.7438 84.7218 39.8033 86.0772 39.0284 87.5112C38.5389 88.4156 38.086 89.5125 38.1285 90.5014C38.2928 94.3889 38.7195 98.2647 38.9184 102.151C38.9243 102.263 38.9289 102.371 38.9328 102.476C38.9721 103.523 38.9394 104.217 39.2745 105.278C39.4479 105.826 40.0382 106.606 40.641 106.788C42.5632 107.373 45.4173 108.447 51.066 108.995C53.4659 109.262 59.6591 109.263 60.2056 109.307C63.0348 109.531 63.0591 109.798 66.8432 108.914C69.1849 108.366 76.9252 105.918 78.1569 105.557C79.2839 105.227 85.2572 103.029 86.3731 102.654C86.8868 102.482 87.8306 102.259 88.5446 102.007C89.0754 101.82 89.4785 101.617 89.4837 101.407C89.5125 100.171 91.0244 99.4643 91.2776 99.2248C94.3582 97.0245 96.982 94.904 100.443 92.2711C100.396 92.4053 100.382 92.6906 100.394 93.0218C100.415 93.6154 100.521 94.3536 100.684 94.6167C101.039 95.1887 104.125 95.4289 105.017 95.5434C107.497 95.8602 112.173 96.1475 115.516 96.1475C118.859 96.1475 121.401 96.0873 124.753 96.2195C126.426 96.2862 127.965 96.444 130.027 96.6449C128.769 98.2477 127.911 99.4139 126.914 100.686C126.597 99.5481 126.064 97.9054 125.603 97.012C125.395 97.0598 124.822 98.0036 124.73 98.1901C124.79 99.2372 125.079 100.373 125.166 101.424C125.225 102.149 125.265 102.446 124.847 102.977C123.451 104.752 122.346 106.321 121.078 108.281C120.872 108.599 120.415 108.835 120.039 108.773C115.241 107.986 110.425 107.501 105.571 107.988C101.126 108.434 96.8 109.431 93.169 112.23C89.8627 114.778 86.2972 116.884 82.6184 118.812C82.0896 119.09 81.7061 119.302 81.1249 119.077C80.261 118.742 79.5719 118.504 78.6183 118.368C74.9814 117.849 70.6751 118.899 67.1769 119.65C62.6991 120.613 57.1231 121.848 53.3082 119.363C53.1099 119.233 52.5804 119.911 52.5189 120.143C53.0883 121.024 53.9888 121.618 54.5641 121.914C55.9732 122.641 57.2703 123.005 58.7396 123.606C60.4562 124.307 62.1795 124.652 63.8359 125.468C64.3575 125.725 64.6219 126.549 64.758 127.208C64.8052 127.434 64.1658 128.036 63.703 128.125C62.0204 128.449 60.3024 128.864 58.6107 128.813C54.4594 128.689 50.7329 128.151 46.5842 127.913C46.1699 127.889 45.4356 127.805 45.0135 127.913C44.823 128.186 44.4376 129.017 44.8106 129.183C46.1032 129.758 48.4311 130.626 49.7557 131.129C56.2042 133.575 62.8221 134.8 69.7457 133.918C70.876 133.774 71.0311 134.139 71.2314 135.093C71.5396 136.564 71.8538 138.012 72.0285 139.504C72.5364 143.831 74.1666 147.388 76.348 150.751C77.2897 152.202 78.2911 152.857 80.0372 152.997C82.1969 153.17 84.0393 152.625 85.8515 152.143C87.5851 151.682 88.2488 150.304 88.0289 148.552C87.8541 147.162 88.4189 146.233 89.4563 145.499C91.8097 143.836 92.8772 141.49 92.9347 138.703C92.9576 137.603 93.3739 137.484 94.2836 137.519C96.6168 137.609 98.7968 138.269 100.963 139.069C103.828 140.128 105.036 142.396 103.536 144.982C101.549 148.409 99.7 151.52 97.1233 154.506C93.6357 158.548 88.9648 162.225 85.6793 166.116C84.7664 167.197 83.2801 168.775 82.4836 170.02C84.4856 170.259 86.4758 170.48 88.1447 170.642C88.521 170.679 89.097 170.382 89.2737 170.149C90.2645 168.84 91.758 168.77 93.1435 168.384C94.4963 168.006 95.2214 165.891 94.3242 164.608C94.0172 165.222 93.6481 165.728 93.5048 166.292C93.188 167.543 92.5388 168.26 91.1716 168.116C90.2063 168.014 89.4837 168.357 88.8856 169.153C88.6441 169.474 88.1054 169.571 87.7016 169.769C87.6925 169.754 87.6833 169.738 87.6742 169.723C87.6081 169.612 87.5413 169.502 87.4745 169.391C92.5885 164.116 97.5657 159.689 102.816 153.569C103.642 152.606 105.794 148.81 106.302 147.621C106.826 146.391 107.175 145.103 107.507 143.807C107.639 143.295 107.9 140.804 107.651 140.174C107.254 139.166 106.427 137.908 105.911 137.389C104.902 136.373 103.79 135.707 102.561 135.141C99.7942 133.866 96.0133 133.556 92.5316 134.169C92.3438 134.201 92.1586 134.257 91.9792 134.331C91.0159 134.732 90.2311 135.696 90.2292 136.836C90.2272 137.718 90.3876 138.534 90.4301 139.416C90.5518 141.962 88.7056 144.846 85.9215 145.136C84.9005 145.242 85.3285 145.726 85.4588 146.359C85.5098 146.608 85.5851 147.227 85.5151 147.557C85.4902 147.676 85.447 147.757 85.3763 147.772C83.481 148.147 82.5006 148.226 81.3468 146.869C80.6066 145.999 79.9148 145.048 79.4004 144.033C78.2943 141.851 78.2826 139.434 78.0836 137.044C77.9017 134.853 77.6988 132.644 77.3657 130.476C77.2145 129.489 76.4782 127.598 75.9756 127.25C75.7576 127.099 74.8708 127.094 74.5685 127.209C74.4618 127.361 74.3577 127.517 74.2556 127.674C73.0318 129.565 72.0874 131.781 69.821 132.502C67.6907 133.181 63.5093 132.8 61.8234 132.512C63.0859 132.226 65.5545 131.735 66.7228 131.358C69.7137 130.394 70.6057 129.262 69.9846 125.458C69.605 123.131 69.0166 123.694 71.3007 122.863C71.7163 122.712 72.7065 122.314 73.1372 122.229C76.5574 121.545 80.3821 121.884 82.4162 124.329C82.4672 124.39 82.5176 124.454 82.5667 124.518C83.1505 125.285 84.426 125.393 84.8364 125.285C87.0262 124.708 88.3267 123.799 90.3483 122.799C91.0185 122.467 93.402 120.911 93.8497 120.638C96.8255 118.819 99.4336 116.915 102.799 115.687C104.398 115.104 106.54 114.582 108.224 114.412C114.734 113.753 119.811 113.82 126.121 116.033C127.47 116.506 129.346 117.281 130.574 117.914C133.612 119.477 137.211 121.463 139.539 122.845C139.987 123.111 144.603 125.204 146.105 125.769C147.474 126.283 149.026 126.803 150.565 127.052C151.818 127.254 153.16 127.359 154.498 127.441C155.612 127.509 156.723 127.561 157.779 127.64C158.137 127.668 158.424 127.583 158.553 127.219C158.998 125.954 160.229 123.984 160.915 122.855C161.68 121.593 161.852 121.394 161.101 120.491C160.402 119.651 159.067 117.437 159.023 116.897C159.006 116.675 159.258 115.666 159.582 115.19C159.669 115.064 158.761 115.298 158.35 115.73C158.114 115.98 157.859 116.425 157.709 116.956C157.666 117.037 157.478 117.229 157.287 117.138C157.094 117.045 156.702 116.653 156.57 116.653C156.432 116.653 156.073 117.224 155.922 117.215C155.656 117.198 155.558 116.969 155.449 116.784C154.811 115.699 154.172 114.444 153.577 113.333C153.543 113.107 153.97 113.34 154.106 113.367C155.348 113.611 156.95 113.91 158.17 114.045C158.901 114.124 159.209 114.112 159.87 113.886C160.575 113.646 161.902 113.349 162.442 113.312C162.455 113.311 162.467 113.31 162.479 113.31C162.767 113.295 162.525 113.889 162.925 114.319C164.148 115.632 164.567 115.469 165.375 117.042C166.715 119.65 167.79 124.627 166.283 127.72C165.074 130.201 163.986 131.679 163.055 134.277C161.127 139.65 160.764 145.835 159.885 151.411C159.11 156.324 158.631 161.411 156.145 166.829C154.991 169.343 154.412 170.313 151.873 170.677C150.536 170.868 149.438 171.113 148.407 171.429C146.933 171.881 145.592 172.478 143.875 173.271C143.655 173.372 141.403 174.35 141.028 174.698C140.859 174.856 141.066 175.871 141.166 176.037C141.253 176.181 142.014 176.119 142.264 176.107C146.951 175.89 151.573 175.67 156.258 175.41C156.665 175.387 157.438 175.024 157.776 174.757C159.553 173.357 160.207 171.423 160.976 169.436C161.844 167.19 162.563 165.037 163.541 162.839C164.215 161.324 165.335 161.051 165.914 159.511C166.898 156.897 166.639 152.949 166.446 150.222C166.239 147.316 166.079 144.408 167.65 141.726C168.044 141.055 168.339 140.093 168.647 139.372C169.446 137.504 170.118 135.83 170.952 133.884C170.961 133.863 170.97 133.841 170.979 133.82C171.281 134.086 171.518 134.505 171.687 134.688C175.167 138.47 180.244 141.882 184.638 145.443C186.408 146.877 188.851 148.535 190.578 150.013C192.917 152.013 194.842 153.629 196.998 155.827C199.605 158.483 201.834 161.351 203.591 164.646C203.753 164.951 203.776 165.268 203.562 165.495C202.003 167.148 201.257 169.51 199.893 171.192C199.829 171.271 199.73 171.304 199.614 171.315C199.34 171.343 198.967 171.247 198.707 171.326C198.469 171.477 197.048 174.544 196.647 176.139C196.4 177.115 197.376 177.81 198.336 177.35C199.09 176.988 200.195 176.282 200.936 175.893C205.475 173.511 208.329 169.411 211.862 165.914C212.707 165.078 212.717 164.559 211.962 163.754C210.389 162.076 208.697 160.19 207.03 158.606ZM94.2391 83.3717C98.0108 83.5026 105.23 82.9836 106.538 83.2846C105.608 85.4045 99.0697 83.7185 93.9106 83.9515C93.9106 83.729 94.0244 83.3638 94.2391 83.3717ZM80.8167 101.426C76.0247 102.815 71.3983 104.789 66.5847 106.078C64.1363 106.735 61.4307 106.451 58.8397 106.546C57.2631 106.603 55.6793 106.635 54.106 106.548C53.5215 106.516 52.3592 106.555 52.3592 106.426C52.3631 106.141 52.2296 105.582 52.6295 105.29C53.0032 105.017 55.8501 102.13 56.5419 100.424C57.017 100.535 62.832 100.946 66.8091 100.752C70.7863 100.557 78.1785 99.7137 81.9829 99.6057C83.2336 99.5703 84.125 99.5625 84.7572 99.569C83.4502 100.188 82.2251 101.017 80.8167 101.426ZM97.4172 92.2953C97.2411 92.4877 97.2215 92.5106 96.6888 92.6742C95.2404 93.1199 92.5951 93.6749 90.3058 93.6232C86.2088 93.3804 82.2205 92.8032 78.1766 92.4367C77.1379 92.3424 74.3433 92.0918 73.3008 92.1271C71.3034 92.1945 68.9964 92.741 67.7058 93.1095C67.8039 93.2849 68.1678 93.6854 68.3517 93.8366C69.7379 93.4995 72.0278 92.9197 74.0214 92.9197C76.7439 92.9197 80.6269 93.4681 84.4398 93.8274C87.7108 94.135 91.2704 94.6167 93.9649 94.2018C93.173 95.9269 91.3627 97.3177 89.5937 98.2038C88.9726 98.5147 88.2553 98.7712 87.5727 98.7961C87.4137 98.8138 87.2213 98.8308 86.9987 98.8465C86.0694 98.9139 84.6132 98.9696 82.8691 99.0219C80.7074 99.0867 75.6065 99.3681 73.9854 99.4977C72.3642 99.6273 67.9761 99.8001 64.1285 99.8001C60.2808 99.8001 55.9797 99.2287 55.7421 99.2981C55.5039 99.3681 55.3959 102.113 53.1262 104.253C52.0843 105.236 51.1471 105.845 50.3958 106.231C47.0521 107.536 42.84 105.133 42.2654 101.467C41.7817 98.3825 41.2346 95.3065 40.836 92.2109C40.7346 91.4223 41.0232 90.5544 41.2523 89.7573C41.9329 87.3803 42.7392 85.1512 43.5023 82.6321C45.4638 83.3272 47.2825 84.1282 49.1687 84.7945C53.7395 86.4104 58.4778 87.2664 63.2966 87.4123C66.9754 87.5236 70.6639 87.3534 74.3466 87.2468C76.7191 87.178 79.1 86.9778 81.4554 86.714C86.3934 86.1623 91.3378 85.9732 96.3026 86.1047C98.1489 86.1538 99.9951 86.2114 101.839 86.3004C102.153 86.3155 102.457 86.25 102.803 86.3763C101.345 88.4418 98.9421 90.6232 97.4172 92.2953ZM125.4 110.44C124.579 110.333 123.776 110.086 122.701 109.831C123.527 107.954 124.504 105.853 125.3 104.435C126.208 105.961 126.293 108.813 126.305 110.232C126.308 110.525 125.719 110.482 125.4 110.44ZM150.428 120.127C148.185 119.53 145.893 118.941 143.815 117.944C139.13 115.697 134.561 113.204 129.95 110.802C129.609 110.624 129.082 110.408 128.705 110.154C130.953 107.754 135.475 103.032 136.259 98.8491C136.299 98.6358 135.748 97.8334 135.517 97.747C133.059 101.161 130.464 104.719 128.139 107.949C127.994 107.934 127.665 106.371 127.57 105.678C127.438 104.719 127.371 103.246 127.25 102.285C127.121 101.271 126.975 100.989 127.451 100.989C127.773 100.989 128.893 100.873 129.212 100.275C129.633 99.4866 130.089 98.6004 130.39 98.0821C130.837 97.3131 131.135 96.7169 131.299 96.6554C131.455 96.5971 132.127 96.8 132.768 96.9145C134.895 97.2948 136.989 98.0324 139.005 98.4597C139.751 98.6188 140.211 98.4918 141.071 98.4355H141.075C141.4 100.839 141.983 103.485 142.217 105.886C142.339 107.131 142.247 107.718 143.571 108.347C143.807 108.459 145.001 109.094 145.234 109.211C146.709 109.946 147.847 110.601 148.666 111.018C149.224 111.302 149.217 111.494 149.481 113.05C149.691 114.295 151.452 116.923 151.873 118.122C152.481 119.859 152.191 120.597 150.428 120.127Z" fill="#484850"/>
<path d="M69.8629 130.392C70.0252 130.078 70.4951 129.781 70.9015 129.28C71.3498 128.728 71.8891 128.115 72.3001 127.835C72.554 127.738 72.4251 128.279 72.4676 128.462C72.484 128.532 72.8623 128.349 72.7864 128.668C72.6784 129.124 72.289 129.748 72.1109 129.943C71.7968 130.286 71.3531 130.642 71.1273 131.138C71.1005 131.197 70.7163 130.749 70.302 130.805C69.8354 130.879 69.7869 130.602 69.8629 130.392Z" fill="#068BB0"/>
<path d="M156.498 126.581C156.083 126.977 155.301 127.235 154.498 127.441C153.16 127.359 151.818 127.254 150.565 127.052C149.026 126.803 147.474 126.283 146.105 125.769C144.603 125.204 139.987 123.111 139.539 122.845C137.211 121.463 133.612 119.477 130.574 117.914C129.346 117.282 127.47 116.506 126.121 116.033C119.811 113.82 114.734 113.753 108.224 114.412C106.54 114.582 104.398 115.104 102.799 115.687C99.4336 116.915 96.8255 118.819 93.8497 120.638C93.402 120.911 91.0185 122.467 90.3483 122.799C88.3266 123.799 87.0262 124.708 84.8364 125.285C84.426 125.393 83.1505 125.285 82.5667 124.518C82.5176 124.454 82.4672 124.39 82.4162 124.329C82.6753 123.596 82.9934 123.223 83.6256 122.907C84.4038 122.518 104.636 110.63 115.876 111.408C127.116 112.186 128.629 112.662 134.898 116.293C141.166 119.924 148.667 124.564 154.265 124.564C155.504 124.564 156.43 124.427 156.611 124.876C156.76 125.246 156.991 126.114 156.498 126.581Z" fill="#068BB0"/>
<path d="M86.9981 149.076C87.0269 150.056 86.1047 150.719 83.2224 150.978C80.3402 151.238 79.0725 148.24 78.0921 146.309C77.1124 144.378 76.2478 138.758 75.9023 135.588C75.6005 132.826 74.6974 129.203 74.2556 127.674C74.3577 127.517 74.4618 127.361 74.5685 127.209C74.8708 127.094 75.7576 127.099 75.9756 127.25C76.4782 127.598 77.2145 129.489 77.3656 130.476C77.6988 132.644 77.9016 134.853 78.0836 137.044C78.2825 139.434 78.2943 141.851 79.4004 144.033C79.9148 145.048 80.6065 145.999 81.3467 146.869C82.5006 148.226 83.481 148.147 85.3763 147.772C85.447 147.757 85.4902 147.676 85.515 147.557C86.5229 147.797 86.9745 148.271 86.9981 149.076Z" fill="#068BB0"/>
<path d="M107.507 143.807C107.175 145.103 106.826 146.391 106.302 147.621C105.794 148.81 103.642 152.606 102.816 153.569C97.5657 159.689 92.5885 164.116 87.4745 169.391C87.5413 169.502 87.608 169.612 87.6741 169.723C87.428 169.895 87.1866 170.02 86.9987 170.028C86.3652 170.057 85.7873 169.452 85.3842 169.25C85.8449 168.76 92.7619 161.209 97.6613 156.483C102.561 151.756 104.866 146.223 105.356 142.908C105.847 139.594 103.483 138.239 101.12 136.971C98.7568 135.703 94.635 136.222 93.7993 136.25C92.9635 136.28 92.3876 136.106 92.0702 135.646C91.8516 135.327 91.9046 134.816 91.9792 134.331C92.1585 134.257 92.3437 134.201 92.5316 134.169C96.0133 133.556 99.7942 133.866 102.561 135.141C103.79 135.707 104.902 136.373 105.911 137.389C106.427 137.908 107.254 139.166 107.651 140.174C107.9 140.804 107.639 143.294 107.507 143.807Z" fill="#068BB0"/>
<path d="M163.127 142.923C161.701 149.191 162.608 153.731 162.349 155.114C162.089 156.497 161.052 160.388 160.576 162.247C160.101 164.106 158.847 170.418 154.135 172.06C149.423 173.703 147.867 172.882 147.91 172.536C147.937 172.323 148.079 171.862 148.407 171.429C149.438 171.113 150.536 170.868 151.873 170.677C154.412 170.313 154.991 169.343 156.145 166.829C158.631 161.411 159.11 156.324 159.885 151.411C160.764 145.835 161.127 139.65 163.055 134.277C163.986 131.679 165.074 130.201 166.283 127.72C167.79 124.627 166.715 119.65 165.375 117.042C164.567 115.469 164.148 115.632 162.925 114.319C162.525 113.889 162.767 113.295 162.479 113.31C162.467 113.31 162.455 113.311 162.442 113.312C163.159 112.716 164.188 111.925 164.943 112.056C165.937 112.229 169.013 116.012 169.352 120.266C170.087 129.478 164.554 136.654 163.127 142.923Z" fill="#068BB0"/>
<path d="M207.121 166.483C206.632 167.377 201.848 172.046 201.185 172.42C200.522 172.795 199.484 173.516 199.167 173.401C198.938 173.317 199.236 172.347 199.614 171.315C199.73 171.304 199.829 171.271 199.893 171.192C201.257 169.51 202.003 167.148 203.562 165.495C203.776 165.267 203.753 164.951 203.591 164.646C201.834 161.351 199.605 158.483 196.998 155.827C194.842 153.628 192.917 152.013 190.578 150.013C188.851 148.535 186.408 146.877 184.638 145.443C180.244 141.881 175.167 138.47 171.687 134.688C171.518 134.505 171.281 134.086 170.979 133.82C170.97 133.841 170.961 133.863 170.952 133.884C170.802 133.41 170.615 132.83 171.06 132.763C171.643 132.677 173.372 132.526 173.891 132.893C174.41 133.261 178.604 137.324 180.074 138.556C181.543 139.788 188.042 145.502 188.936 146.136C189.829 146.77 196.372 152.823 197.639 154.033C198.908 155.244 205.94 162.852 206.517 163.457C207.092 164.063 207.611 165.59 207.121 166.483Z" fill="#068BB0"/>
<path d="M141.274 97.8333C141.238 98.1272 141.178 98.2817 141.071 98.4355C140.211 98.4917 139.751 98.6187 139.005 98.4597C136.989 98.0323 134.895 97.2947 132.768 96.9145C132.127 96.7999 131.455 96.5971 131.299 96.6553L130.027 96.6448C127.965 96.4439 126.426 96.2862 124.753 96.2194C121.401 96.0872 118.87 96.1474 115.516 96.1474C112.162 96.1474 107.497 95.8601 105.017 95.5434C104.125 95.4288 101.039 95.1887 100.684 94.6167C100.521 94.3536 100.415 93.6153 100.394 93.0217C101.494 92.5158 104.771 93.0597 106.733 93.1212C108.807 93.186 117.973 93.7259 121.107 93.9642C124.241 94.2017 130.877 94.6775 134.141 94.9799C137.405 95.2822 139.675 96.1906 140.388 96.493C141.101 96.7954 141.382 96.7306 141.274 97.0336C141.166 97.336 141.339 97.3144 141.274 97.8333Z" fill="#068BB0"/>
<path d="M88.5446 102.007C87.8306 102.259 86.8868 102.482 86.3731 102.654C85.2572 103.029 79.2839 105.227 78.1569 105.557C76.9252 105.918 69.1848 108.366 66.8432 108.914C63.059 109.798 63.0348 109.531 60.2056 109.307C59.6591 109.263 53.4659 109.262 51.066 108.995C45.4173 108.447 42.5631 107.373 40.641 106.788C40.0382 106.606 39.4479 105.826 39.2745 105.278C38.9394 104.217 38.9721 103.523 38.9328 102.476C39.1743 102.103 39.3393 101.852 39.444 101.983C39.6174 102.199 41.0867 104.087 42.1535 104.606C43.2196 105.125 45.698 106.739 47.543 107.055C49.3873 107.373 51.03 106.739 51.8369 106.796C52.6439 106.854 64.3739 107.465 65.7862 107.145C67.1985 106.825 74.1149 104.519 75.1817 104.145C76.2478 103.77 86.8364 99.9081 87.3351 99.9081C87.8037 99.9081 88.7239 100.392 88.5446 102.007Z" fill="#068BB0"/>
<path d="M103.627 86.3914C103.339 86.5641 102.803 86.3763 102.803 86.3763C102.457 86.25 102.153 86.3154 101.839 86.3004C99.9951 86.2114 98.1489 86.1538 96.3026 86.1047C91.3378 85.9731 86.3934 86.1623 81.4554 86.714C79.1 86.9777 76.7191 87.178 74.3466 87.2467C70.6639 87.3534 66.9754 87.5236 63.2966 87.4123C58.4778 87.2664 53.7395 86.4103 49.1687 84.7945C47.2825 84.1282 45.4638 83.3271 43.5023 82.6321C43.573 82.1622 44.0481 81.6864 44.6967 81.5784C45.3453 81.4704 46.7936 81.1465 47.5286 81.4056C48.2636 81.6648 55.3102 85.21 60.0655 85.642C64.8209 86.0746 68.5814 86.2186 71.2909 85.9306C73.9998 85.642 90.8228 84.0765 93.9105 83.9515C96.9983 83.8265 101.696 84.4031 103.512 84.8638C103.915 85.4404 103.915 86.2186 103.627 86.3914Z" fill="#068BB0"/>
<path d="M160.915 87.9359C160.639 88.2559 160.563 88.7939 160.432 89.072C159.805 90.4098 159.373 91.7508 158.674 93.0492C157.345 95.5198 155.998 98.014 154.481 100.369C154.25 100.728 153.285 102.314 152.737 102.531C152.544 102.607 151.624 101.792 151.527 101.608C151.56 101.345 151.597 101.079 151.636 100.811C152.036 100.131 152.621 99.2169 153.487 98.0637C154.956 96.1043 157.521 90.7723 158.213 89.4987C158.905 88.2251 159.395 86.3625 159.654 86.1898C159.913 86.017 160.634 86.1322 160.915 86.3337C161.197 86.5353 161.124 87.0831 160.915 87.9359Z" fill="#068BB0"/>
<path d="M158.826 85.21C157.572 87.4581 154.243 89.3561 153.962 89.4988C153.795 89.5832 153.446 89.3508 153.176 89.1035C153.185 88.8292 153.191 88.5563 153.193 88.2841C153.196 87.7572 153.543 87.1257 154.038 86.9352C157.118 85.75 157.938 82.8572 157.599 80.0594C157.523 79.4298 156.265 77.9808 155.488 77.829C155.778 77.1516 156.483 76.2085 157.01 76.3257C157.593 76.4559 158.393 76.9095 159.085 78.5306C159.777 80.1517 160.08 82.962 158.826 85.21Z" fill="#068BB0"/>
<path d="M212.475 109.23C212.313 109.323 212.172 109.429 212.136 109.563C212.064 109.837 212.05 109.967 211.733 109.938C211.416 109.909 209.542 108.641 208.332 107.949C207.121 107.258 203.058 105.442 201.127 104.577C199.196 103.712 194.354 101.811 191.53 100.657C188.705 99.5049 182.797 95.9309 181.299 94.7496C179.8 93.5676 179.396 91.8241 179.367 91.5283C179.339 91.2318 179.396 90.2678 179.93 90.023C180.462 89.7776 183.287 89.6624 183.546 89.6768C183.517 89.5328 183.705 88.8626 183.619 88.7763C183.532 88.6899 180.593 87.9117 178.712 87.6957C176.831 87.4798 175.383 88.6467 174.238 89.5165C173.092 90.3862 170.714 91.6297 169.007 91.5217C167.299 91.4138 166.131 90.3326 165.7 90.0302C165.267 89.7272 163.387 84.8855 163.343 84.2801C163.3 83.6754 163.667 83.2212 164.033 82.9626C163.946 83.1184 164.827 83.0294 164.9 83.2428C165.116 83.8835 165.22 84.5792 165.482 85.2225C165.948 86.3652 166.468 87.4863 166.974 88.612C167.397 89.5511 169.916 89.9386 170.658 89.1087C173.156 86.3122 177.803 85.5897 181.944 86.2454C183.785 86.5373 184.786 87.3057 185.801 89.2737C185.91 89.4837 186.097 90.1945 186.018 90.419C185.912 90.722 185.284 91.1984 184.797 91.3666C184.055 91.6225 183.517 91.563 182.163 91.9635C182.981 92.6599 183.468 93.1232 184.153 93.6298C188.936 97.1632 193.258 99.785 198.629 101.833C201.513 102.932 204.658 104.009 207.479 105.248C209.013 105.922 210.759 106.986 212.043 108.079C212.25 108.255 212.383 108.708 212.475 109.23Z" fill="#068BB0"/>
<path d="M77.7701 176.635L81.6347 179.031L79.8965 185.164L84.6054 180.873L88.468 183.267L83.161 191.828L80.7538 190.336L84.801 183.807L78.8997 189.186L76.721 187.836L78.9167 180.159L74.8695 186.688L72.4624 185.197L77.7695 176.636L77.7701 176.635Z" fill="#068BB0"/>
<path d="M85.8979 189.05C86.3515 188.034 87.1067 187.366 88.163 187.048C89.2193 186.729 90.3954 186.86 91.6919 187.438C93.1743 188.1 94.1213 188.987 94.533 190.099C94.8635 190.993 94.8248 191.897 94.4178 192.809C93.9603 193.834 93.2077 194.504 92.1605 194.822C91.1134 195.139 89.9229 195.001 88.5891 194.405C87.3993 193.874 86.5589 193.173 86.0681 192.301C85.4673 191.225 85.4104 190.141 85.8979 189.05V189.05ZM88.7442 190.314C88.4791 190.908 88.4163 191.407 88.557 191.81C88.6971 192.214 88.9693 192.506 89.3738 192.686C89.7828 192.869 90.1808 192.879 90.5689 192.716C90.9563 192.553 91.2888 192.162 91.565 191.543C91.8228 190.966 91.8824 190.477 91.743 190.076C91.6042 189.676 91.3398 189.389 90.9491 189.214C90.5355 189.03 90.1297 189.021 89.7324 189.187C89.3352 189.353 89.0053 189.729 88.7442 190.315V190.314Z" fill="#068BB0"/>
<path d="M96.1665 189.576L98.9185 190.468L98.552 191.599C99.1129 191.27 99.6365 191.075 100.121 191.013C100.607 190.951 101.152 191.018 101.757 191.215C102.575 191.48 103.144 191.906 103.464 192.493C103.785 193.081 103.797 193.832 103.5 194.747L102.071 199.159L99.1011 198.197L100.337 194.38C100.479 193.944 100.489 193.607 100.368 193.368C100.248 193.13 100.025 192.957 99.7006 192.853C99.3426 192.737 99.0121 192.764 98.7104 192.936C98.4087 193.109 98.1554 193.51 97.9506 194.142L96.8707 197.475L93.9151 196.518L96.1639 189.576H96.1665Z" fill="#068BB0"/>
<path d="M109.258 190.466L108.631 193.169L110.296 193.556L109.833 195.55L108.167 195.164L107.582 197.681C107.512 197.984 107.498 198.192 107.539 198.305C107.603 198.48 107.759 198.596 108.007 198.653C108.23 198.705 108.556 198.72 108.984 198.697L108.771 200.629C107.988 200.602 107.272 200.514 106.623 200.363C105.87 200.189 105.334 199.973 105.018 199.716C104.702 199.459 104.499 199.134 104.41 198.74C104.321 198.346 104.369 197.753 104.553 196.959L105.134 194.459L104.019 194.2L104.482 192.206L105.597 192.465L105.9 191.16L109.258 190.466Z" fill="#068BB0"/>
<path d="M123.348 192.436L122.346 202.459L119.452 202.17L119.56 201.096C119.109 201.512 118.709 201.782 118.359 201.909C117.892 202.073 117.386 202.129 116.838 202.074C115.74 201.964 114.938 201.504 114.433 200.694C113.929 199.884 113.73 198.942 113.838 197.866C113.958 196.663 114.37 195.774 115.075 195.2C115.779 194.626 116.625 194.389 117.612 194.488C118.093 194.535 118.522 194.652 118.9 194.837C119.278 195.022 119.604 195.276 119.878 195.598L120.225 192.124L123.347 192.436H123.348ZM119.612 198.498C119.669 197.928 119.577 197.49 119.337 197.183C119.097 196.876 118.772 196.702 118.361 196.66C118.002 196.624 117.687 196.729 117.417 196.973C117.147 197.218 116.98 197.657 116.917 198.29C116.857 198.882 116.94 199.329 117.162 199.63C117.386 199.931 117.682 200.1 118.051 200.136C118.446 200.175 118.789 200.069 119.08 199.818C119.371 199.566 119.548 199.126 119.611 198.497L119.612 198.498Z" fill="#068BB0"/>
<path d="M132.749 199.641L126.521 199.55C126.57 200 126.701 200.336 126.911 200.56C127.207 200.88 127.597 201.044 128.08 201.051C128.385 201.055 128.676 200.99 128.953 200.857C129.121 200.772 129.305 200.621 129.501 200.405L132.558 200.704C132.079 201.429 131.507 201.947 130.841 202.255C130.174 202.564 129.224 202.71 127.987 202.691C126.914 202.676 126.071 202.527 125.46 202.246C124.848 201.964 124.344 201.524 123.949 200.925C123.553 200.326 123.361 199.626 123.373 198.824C123.389 197.684 123.808 196.767 124.631 196.073C125.453 195.38 126.578 195.044 128.008 195.065C129.168 195.082 130.081 195.253 130.748 195.579C131.416 195.905 131.92 196.37 132.262 196.976C132.605 197.581 132.769 198.364 132.754 199.326L132.75 199.642L132.749 199.641ZM129.609 198.255C129.556 197.714 129.4 197.325 129.141 197.087C128.883 196.849 128.54 196.728 128.112 196.722C127.619 196.715 127.222 196.885 126.922 197.234C126.73 197.451 126.606 197.776 126.549 198.211L129.609 198.255Z" fill="#068BB0"/>
<path d="M136.719 192.255L141.202 191.491L143.96 197.238L144.647 190.904L149.126 190.14L150.82 200.069L148.028 200.545L146.738 192.972L145.878 200.911L143.351 201.342L139.913 194.135L141.204 201.708L138.412 202.183L136.72 192.254L136.719 192.255Z" fill="#068BB0"/>
<path d="M153.708 194.007L150.786 194.606C150.757 194.126 150.803 193.728 150.927 193.41C151.051 193.092 151.273 192.781 151.595 192.476C151.826 192.256 152.168 192.037 152.623 191.817C153.077 191.596 153.581 191.401 154.136 191.232C155.026 190.959 155.756 190.785 156.323 190.71C156.89 190.635 157.398 190.684 157.845 190.858C158.159 190.978 158.443 191.196 158.7 191.513C158.957 191.83 159.135 192.152 159.235 192.481L160.178 195.562C160.279 195.891 160.38 196.141 160.483 196.313C160.587 196.485 160.76 196.692 161.004 196.933L158.216 197.786C158.049 197.641 157.935 197.526 157.872 197.442C157.809 197.359 157.73 197.221 157.635 197.03C157.349 197.486 157.035 197.846 156.695 198.108C156.228 198.461 155.647 198.745 154.951 198.957C154.026 199.24 153.266 199.262 152.668 199.024C152.072 198.785 151.686 198.383 151.513 197.818C151.351 197.288 151.39 196.8 151.632 196.352C151.873 195.905 152.432 195.455 153.311 195.005C154.363 194.463 155.043 194.101 155.349 193.918C155.655 193.736 155.973 193.523 156.303 193.278C156.202 192.949 156.057 192.743 155.865 192.658C155.674 192.573 155.389 192.588 155.009 192.704C154.523 192.853 154.18 193.035 153.979 193.249C153.822 193.417 153.732 193.669 153.708 194.008V194.007ZM156.714 194.625C156.346 194.881 155.955 195.128 155.543 195.364C154.985 195.693 154.646 195.952 154.528 196.141C154.407 196.336 154.375 196.526 154.431 196.71C154.495 196.92 154.629 197.067 154.833 197.151C155.037 197.235 155.297 197.228 155.614 197.132C155.944 197.03 156.23 196.864 156.47 196.632C156.71 196.4 156.858 196.162 156.914 195.918C156.97 195.674 156.947 195.385 156.845 195.052L156.714 194.625H156.714Z" fill="#068BB0"/>
<path d="M159.131 189.766L161.828 188.679L162.275 189.788C162.341 189.203 162.476 188.765 162.679 188.473C162.883 188.181 163.187 187.953 163.593 187.79C164.018 187.618 164.531 187.55 165.131 187.585L164.984 189.792C164.593 189.802 164.298 189.847 164.1 189.927C163.722 190.079 163.486 190.337 163.392 190.701C163.254 191.216 163.403 192.015 163.839 193.098L164.754 195.367L161.858 196.534L159.131 189.766H159.131Z" fill="#068BB0"/>
<path d="M166.694 192.442L169.325 190.811C169.588 191.048 169.853 191.177 170.122 191.2C170.39 191.223 170.694 191.148 171.035 190.975C171.406 190.786 171.658 190.569 171.79 190.322C171.895 190.135 171.907 189.962 171.826 189.803C171.735 189.624 171.56 189.538 171.302 189.547C171.116 189.553 170.676 189.67 169.98 189.895C168.942 190.233 168.203 190.433 167.764 190.495C167.324 190.557 166.898 190.499 166.487 190.324C166.075 190.148 165.77 189.864 165.571 189.473C165.353 189.045 165.304 188.605 165.423 188.154C165.542 187.704 165.805 187.278 166.213 186.879C166.62 186.479 167.232 186.072 168.048 185.656C168.91 185.218 169.577 184.954 170.047 184.864C170.518 184.773 170.954 184.783 171.355 184.892C171.756 185.002 172.155 185.223 172.552 185.555L170.044 187.123C169.87 186.95 169.679 186.854 169.471 186.837C169.186 186.817 168.89 186.885 168.582 187.042C168.269 187.201 168.066 187.367 167.974 187.539C167.882 187.712 167.872 187.869 167.945 188.012C168.026 188.171 168.177 188.244 168.4 188.234C168.623 188.224 169.055 188.096 169.696 187.852C170.665 187.478 171.416 187.261 171.95 187.199C172.484 187.138 172.949 187.202 173.345 187.391C173.741 187.58 174.033 187.86 174.221 188.231C174.412 188.607 174.472 189.036 174.401 189.519C174.329 190.002 174.076 190.486 173.641 190.972C173.206 191.457 172.52 191.938 171.586 192.413C170.266 193.084 169.24 193.393 168.508 193.338C167.775 193.284 167.171 192.985 166.694 192.441V192.442Z" fill="#068BB0"/>
<path d="M175.884 184.15L173.24 185.53C173.08 185.077 173.015 184.681 173.047 184.341C173.078 184.001 173.206 183.64 173.432 183.259C173.594 182.985 173.863 182.679 174.238 182.342C174.614 182.006 175.045 181.679 175.532 181.363C176.313 180.856 176.966 180.488 177.491 180.259C178.016 180.031 178.517 179.939 178.995 179.983C179.329 180.012 179.663 180.144 179.997 180.377C180.331 180.611 180.591 180.872 180.778 181.16L182.532 183.863C182.72 184.151 182.886 184.364 183.033 184.5C183.18 184.638 183.403 184.788 183.704 184.953L181.259 186.541C181.058 186.447 180.916 186.369 180.833 186.305C180.749 186.243 180.635 186.132 180.49 185.975C180.341 186.493 180.139 186.924 179.884 187.269C179.532 187.737 179.052 188.17 178.441 188.566C177.63 189.092 176.905 189.323 176.265 189.258C175.625 189.193 175.145 188.912 174.823 188.417C174.521 187.952 174.424 187.471 174.533 186.975C174.641 186.479 175.056 185.893 175.776 185.218C176.639 184.407 177.193 183.871 177.437 183.612C177.681 183.352 177.928 183.059 178.178 182.734C177.99 182.446 177.793 182.287 177.587 182.258C177.379 182.228 177.109 182.322 176.776 182.538C176.35 182.814 176.069 183.084 175.936 183.345C175.832 183.549 175.815 183.817 175.884 184.149V184.15ZM178.945 183.916C178.661 184.264 178.354 184.608 178.022 184.949C177.575 185.419 177.321 185.762 177.261 185.976C177.198 186.197 177.219 186.388 177.323 186.549C177.443 186.733 177.613 186.837 177.831 186.862C178.051 186.887 178.299 186.809 178.576 186.629C178.866 186.44 179.095 186.201 179.263 185.913C179.43 185.624 179.507 185.354 179.493 185.104C179.479 184.854 179.377 184.582 179.188 184.29L178.945 183.916H178.945Z" fill="#068BB0"/>
<path d="M179.923 178.67L182.155 176.829L182.911 177.746C182.936 177.096 183.053 176.55 183.261 176.107C183.47 175.665 183.82 175.242 184.311 174.837C184.973 174.289 185.64 174.039 186.307 174.085C186.975 174.13 187.615 174.524 188.227 175.267L191.178 178.844L188.769 180.83L186.216 177.735C185.925 177.382 185.646 177.192 185.38 177.165C185.114 177.138 184.849 177.233 184.586 177.45C184.295 177.69 184.142 177.983 184.124 178.33C184.107 178.677 184.309 179.106 184.732 179.619L186.962 182.322L184.565 184.299L179.922 178.67L179.923 178.67Z" fill="#068BB0"/>
</g>
<defs>
<clipPath id="clip0_483_17699">
<rect width="256" height="256" fill="white"/>
</clipPath>
</defs>
</svg>
