<svg width="256" height="256" viewBox="0 0 256 256" fill="none" xmlns="http://www.w3.org/2000/svg">
<g clip-path="url(#clip0_876_31318)">
<path d="M128.034 256.068C198.745 256.068 256.068 198.745 256.068 128.034C256.068 57.3227 198.745 0 128.034 0C57.3227 0 0 57.3227 0 128.034C0 198.745 57.3227 256.068 128.034 256.068Z" fill="#79AC2B"/>
<path d="M128.034 249.382C195.053 249.382 249.382 195.053 249.382 128.034C249.382 61.0149 195.053 6.6853 128.034 6.6853C61.0149 6.6853 6.6853 61.0149 6.6853 128.034C6.6853 195.053 61.0149 249.382 128.034 249.382Z" fill="white"/>
<path d="M130.465 132.491L220.075 178.072C220.075 178.072 214.335 216.901 167.875 224.734L130.532 132.491H130.465Z" fill="#AFCB23"/>
<path d="M127.561 122.631L96.498 27.0113C96.498 27.0113 128.034 3.64651 166.39 30.9955L127.561 122.631Z" fill="#AFCB23"/>
<path d="M129.317 125.198L173.886 35.1147C173.886 35.1147 212.782 40.4495 221.088 86.7739L129.249 125.198H129.317Z" fill="#AFCB23"/>
<path d="M131.478 129.182L227.165 98.3888C227.165 98.3888 250.463 129.992 222.979 168.281L131.478 129.182Z" fill="#AFCB23"/>
<path d="M124.522 128.574L28.632 158.827C28.632 158.827 5.53732 127.088 33.1564 88.9348L124.455 128.574H124.522Z" fill="#AFCB23"/>
<path d="M124.522 123.915L34.4395 79.3458C34.4395 79.3458 39.7742 40.4495 86.0986 32.1435L124.522 123.982V123.915Z" fill="#AFCB23"/>
<path d="M127.629 133.369L158.422 229.056C158.422 229.056 126.818 252.353 88.5297 224.869L127.629 133.369Z" fill="#AFCB23"/>
<path d="M124.522 133.909L78.603 223.316C78.603 223.316 39.7742 217.441 32.1435 170.982L124.522 133.909Z" fill="#AFCB23"/>
<path d="M207.852 70.6346L184.42 88.8673C181.381 81.1015 174.763 74.2812 165.782 69.149L174.696 56.3862L167.605 50.8488L157.611 65.1648C149.913 62.1261 141.067 60.1678 131.68 59.7626V31.4682H122.834V59.7626C113.38 60.2353 104.466 62.1936 96.7682 65.2324L86.774 50.8488L79.616 56.3186L88.5297 69.149C79.6835 74.2136 73.1332 80.9665 70.0945 88.6647L48.2153 71.6476L42.9481 79.1432L72.7281 102.305C72.8631 101.09 73.1332 99.8744 73.4033 98.6589C73.4033 98.3888 73.5384 98.1862 73.6059 97.9161C74.0786 96.2279 74.7539 94.5397 75.5643 92.919C79.0082 86.0311 85.0858 80.0211 92.9866 75.4967C95.5527 74.0111 98.3213 72.728 101.225 71.6476C108.923 68.6763 117.769 67.0556 127.088 67.0556C136.407 67.0556 145.254 68.7439 152.952 71.6476C155.855 72.7956 158.624 74.0786 161.19 75.5642C169.159 80.0886 175.304 86.1662 178.68 93.1891C179.558 94.9449 180.233 96.8356 180.706 98.7264C180.908 99.6043 181.111 100.415 181.246 101.293L181.921 102.238L212.984 78.1303L207.717 70.6346H207.852Z" fill="#010101"/>
<path d="M176.722 144.578C175.304 141.404 173.683 138.366 172.13 135.259H171.252C171.725 139.108 172.062 143.025 171.927 146.874C171.86 149.508 171.59 152.209 170.442 154.64C169.564 156.531 168.618 157.544 166.457 157.341C164.432 157.206 162.338 157.206 160.312 157.071C156.936 156.868 153.56 156.598 150.183 156.531C146.469 156.531 142.755 156.733 139.041 156.868C139.041 156.868 139.041 156.868 138.973 156.868C135.327 157.003 131.748 157.138 128.101 157.274C127.494 157.274 126.683 157.071 126.211 156.666C124.995 155.653 124.387 154.235 124.05 152.749C122.767 147.684 123.172 142.552 123.644 137.42C123.644 136.812 123.78 136.272 123.847 135.664C123.847 135.529 123.847 135.394 123.847 135.259H123.104C120.673 139.514 118.445 143.835 116.824 148.495C115.609 152.074 114.731 155.72 115.203 159.569C115.609 162.743 117.162 165.242 119.93 166.863C121.686 167.875 123.644 168.416 125.603 168.686C127.494 168.956 129.452 169.023 131.343 169.159C132.153 169.159 132.288 169.361 132.085 170.171C131.815 171.117 131.41 171.995 131.073 172.873C130.127 175.574 129.047 178.207 128.169 180.908C127.021 184.217 127.966 187.054 130.532 189.417C131.748 190.565 133.098 191.51 134.246 192.726C135.124 193.604 136.07 194.549 136.407 195.63C136.88 197.115 137.015 198.803 137.083 200.424C137.15 202.585 136.812 204.678 136.407 206.772C135.327 207.244 134.246 207.65 133.233 207.987C129.992 209.068 126.818 209.54 123.78 209.54C113.245 209.54 107.505 205.016 101.158 195.63C94.8098 186.243 92.4464 174.493 92.4464 158.557C92.4464 142.62 95.215 129.114 100.955 120.065C106.695 110.949 111.017 107.032 120.606 107.032C125.4 107.032 129.587 108.518 133.301 111.557C137.015 114.596 139.851 118.85 141.81 124.455C142.08 125.13 142.417 126.21 142.823 127.494C144.038 132.018 146.064 134.246 148.833 134.246C151.061 134.246 152.682 133.571 153.56 132.22C154.437 130.87 154.91 128.439 154.91 124.995V110.679C154.91 103.588 154.505 99.0641 153.695 97.1058C152.884 95.1474 151.196 94.1345 148.697 94.1345C147.212 94.1345 145.996 94.5397 145.051 95.35C144.713 95.6201 144.376 96.0253 144.106 96.4305C143.093 97.9161 141.337 98.4563 139.716 97.7135C136.812 96.2954 134.044 95.215 131.343 94.4046C127.696 93.3242 123.982 92.7839 120.403 92.7839C107.032 92.7839 95.9578 99.0641 87.3142 111.692C78.6706 124.252 74.3488 140.256 74.3488 159.569C74.3488 178.883 78.7381 194.549 87.5843 206.569C96.4305 218.589 108.045 224.599 122.361 224.599C128.371 224.599 134.314 223.789 140.121 222.101C140.999 221.831 141.742 221.561 142.552 221.29H156.396C156.396 221.29 156.598 221.088 156.801 220.953C159.232 219.872 160.38 218.522 160.177 215.55C160.042 213.525 159.637 211.566 159.232 209.54C158.489 206.029 157.746 202.585 158.084 198.938C158.286 196.643 158.827 194.482 160.718 192.928C162.271 191.578 163.824 190.227 165.309 188.809C166.998 187.189 167.74 185.163 167.335 182.799C166.93 180.098 165.917 177.532 164.904 175.033C164.297 173.548 163.689 172.062 163.149 170.509C162.811 169.496 162.946 169.429 163.959 169.294C166.255 169.023 168.618 168.888 170.914 168.416C172.4 168.146 173.818 167.605 175.169 166.93C176.182 166.39 177.194 165.579 177.937 164.634C179.558 162.608 180.166 160.245 180.098 157.679C180.098 153.019 178.68 148.765 176.789 144.578H176.722Z" fill="#010101"/>
</g>
<defs>
<clipPath id="clip0_876_31318">
<rect width="256" height="256" fill="white"/>
</clipPath>
</defs>
</svg>
