<svg width="256" height="256" viewBox="0 0 256 256" fill="none" xmlns="http://www.w3.org/2000/svg">
<g clip-path="url(#clip0_766_20157)">
<path d="M128.125 0.266663C110.859 0.266663 94.0827 3.66933 78.264 10.3813C62.9707 16.8693 49.2453 26.1467 37.4693 37.9547C25.7733 49.6827 16.5973 63.3067 10.2 78.4533C3.56533 94.1653 0.224001 110.837 0.266667 128.008C0.205334 145.165 3.53333 161.848 10.16 177.587C16.5573 192.779 25.7413 206.443 37.4533 218.197C49.2027 229.992 62.8933 239.256 78.144 245.733C93.9413 252.445 110.709 255.848 127.981 255.848C129.237 255.848 130.512 255.829 131.768 255.792C148.587 255.304 164.864 251.576 180.147 244.717C194.925 238.083 208.176 228.803 219.533 217.136C230.896 205.461 239.813 191.957 246.035 177C252.475 161.517 255.747 145.123 255.755 128.264C255.795 57.824 198.653 0.405329 128.381 0.266663H128.125Z" fill="white"/>
<path d="M128.125 2.26666C128.211 2.26666 128.291 2.26666 128.376 2.26666C197.475 2.40266 253.795 58.8853 253.755 128.264C253.717 196.131 199.389 251.827 131.709 253.795C130.464 253.832 129.219 253.848 127.979 253.848C58.52 253.848 2.016 197.259 2.26667 128.003C2.088 58.5093 58.92 2.26933 128.125 2.26666ZM128.125 0.266663C110.859 0.266663 94.0827 3.66933 78.264 10.3813C62.9707 16.8693 49.2453 26.1467 37.4693 37.9547C25.7733 49.6827 16.5973 63.3067 10.2 78.4533C3.56533 94.1653 0.224001 110.837 0.266667 128.008C0.205334 145.165 3.53333 161.848 10.16 177.587C16.5573 192.779 25.7413 206.443 37.4533 218.197C49.2027 229.992 62.8933 239.256 78.144 245.733C93.9413 252.445 110.709 255.848 127.981 255.848C129.237 255.848 130.512 255.829 131.768 255.792C148.587 255.304 164.864 251.576 180.147 244.717C194.925 238.083 208.176 228.803 219.533 217.136C230.896 205.461 239.813 191.957 246.035 177C252.475 161.517 255.747 145.123 255.755 128.264C255.795 57.824 198.653 0.405329 128.381 0.266663H128.125Z" fill="#020202"/>
<path d="M2.26667 128.003C2.088 58.424 59.056 2.13066 128.376 2.26666C197.475 2.40266 253.795 58.8853 253.755 128.264C253.717 196.131 199.389 251.827 131.709 253.795C60.5573 255.864 2.01067 198.493 2.26667 128.003ZM128.317 8.17333C62.52 7.912 7.00267 62.08 7.96533 129.277C8.92533 196.069 63.9813 248.445 128.829 248.059C194.464 247.667 248.336 193.432 247.949 127.24C247.563 60.984 193.091 7.888 128.315 8.17333H128.317Z" fill="#B768A4"/>
<path d="M128.317 8.1733C193.093 7.89064 247.565 60.984 247.952 127.24C248.339 193.432 194.467 247.667 128.832 248.059C63.984 248.445 8.928 196.069 7.968 129.277C7.00267 62.08 62.52 7.91197 128.317 8.1733ZM245.472 128.136C245.6 63.5786 193.28 11.3413 129.523 10.56C63.4293 9.75197 9.74933 63.6346 10.4907 129.32C11.2187 193.968 63.896 245.435 127.779 245.587C192.579 245.744 245.501 192.955 245.475 128.136H245.472Z" fill="#020202"/>
<path d="M245.472 128.136C245.499 192.955 192.576 245.744 127.776 245.587C63.896 245.432 11.216 193.965 10.488 129.32C9.74934 63.6347 63.4293 9.752 129.523 10.56C193.28 11.3413 245.6 63.5787 245.472 128.136ZM42.4507 127.893C42.3413 174.664 80.5947 212.824 126.504 213.592C173.8 214.384 212.88 175.947 213.531 129.267C214.181 82.56 176.483 43.656 130.219 42.5307C81.192 41.3387 42.4133 81.4427 42.4507 127.893Z" fill="#FCC918"/>
<path d="M42.4507 127.893C42.4133 81.4427 81.192 41.3387 130.219 42.5307C176.483 43.656 214.181 82.56 213.531 129.267C212.88 175.947 173.8 214.384 126.504 213.592C80.5947 212.824 42.3413 174.664 42.4507 127.893ZM211.056 128.179C211.056 82.4453 173.84 45.0347 128.309 44.9973C82.5093 44.96 44.9493 82.144 44.928 127.541C44.9067 173.563 82.024 211.115 127.544 211.125C173.651 211.136 211.056 173.984 211.059 128.179H211.056Z" fill="#020202"/>
<path d="M127.837 51.9333C171.445 51.976 204.763 87.6773 204.491 128.44C204.208 170.568 170.027 204.712 127.555 204.589C85.64 204.469 50.88 169.555 51.632 127.661C52.416 83.9627 87.192 52.024 127.84 51.9333H127.837ZM201.461 128.912C201.448 87.5653 167.603 55 126.669 55.272C87.2613 55.5307 54.488 88.896 54.464 129.181C54.4373 169.685 87.9787 203.061 129.093 202.459C168.744 201.877 201.501 169.405 201.461 128.912Z" fill="#020202"/>
<path d="M172.731 205.101C172.189 208.163 171.691 210.995 171.192 213.824C170.789 216.096 170.352 218.363 170.008 220.645C169.923 221.216 170.027 221.883 170.248 222.421C171.555 225.565 172.92 228.685 174.307 231.909C172.573 232.664 170.92 233.387 169.109 234.176C168.405 232.565 167.557 231.048 167.072 229.424C165.84 225.291 163.355 222.365 159.507 220.387C157.155 219.179 155.035 217.517 152.544 215.885C152.989 218.328 153.379 220.512 153.784 222.693C154.251 225.224 154.744 227.752 155.2 230.285C156.155 235.573 153.853 239.261 148.667 240.64C147.432 240.968 146.133 241.165 144.859 241.203C140.371 241.328 137.485 239.253 136.373 234.893C135.584 231.803 135.109 228.632 134.509 225.493C134.013 222.885 133.541 220.269 133.027 217.491C134.909 217.133 136.709 216.789 138.603 216.429C139.472 221.075 140.301 225.608 141.179 230.131C141.397 231.259 141.661 232.4 142.093 233.456C142.824 235.235 144.24 235.8 146.403 235.368C148.411 234.968 149.597 233.835 149.4 231.923C149.075 228.752 148.48 225.611 147.949 222.464C147.536 220.016 147.045 217.579 146.603 215.205C150.099 214.211 153.555 213.227 157.28 212.168C159.544 213.685 162.12 215.411 164.869 217.253C165.413 214.032 165.933 210.957 166.467 207.803C168.48 206.933 170.496 206.064 172.725 205.101H172.731Z" fill="#020202"/>
<path d="M68.8267 228.099C75.2133 221.715 81.5493 215.381 88.04 208.896C89.408 209.485 91.0187 210.179 92.656 210.883C92.4027 219.925 92.1493 228.885 91.8933 238.032C89.9467 237.195 88.1387 236.416 86.3173 235.632C86.4027 233.816 86.4827 232.091 86.568 230.261C83.7067 229.027 80.8693 227.8 77.912 226.523C76.696 227.795 75.48 229.067 74.192 230.413C72.3707 229.627 70.56 228.848 68.824 228.099H68.8267ZM86.9067 224.885V217.816C85.392 219.216 83.6053 220.872 81.696 222.64C83.4507 223.397 85.056 224.088 86.9067 224.885Z" fill="#020202"/>
<path d="M204.693 212.277C202.936 213.581 201.373 214.744 199.781 215.925C198.296 214.955 196.853 214.011 195.288 212.989C192.813 214.837 190.301 216.712 187.72 218.643C188.221 220.363 188.712 222.051 189.221 223.808C187.637 224.995 186.083 226.157 184.344 227.461C181.979 218.643 179.645 209.947 177.301 201.205C178.752 200.12 180.128 199.091 181.52 198.048C189.237 202.787 196.901 207.491 204.696 212.275L204.693 212.277ZM184.027 205.824C184.811 208.536 185.491 210.899 186.227 213.44C187.771 212.283 189.184 211.221 190.704 210.083C188.432 208.635 186.355 207.307 184.027 205.824Z" fill="#020202"/>
<path d="M117.755 233.013C117.589 235.981 117.419 238.984 117.243 242.149C115.36 242.053 113.563 241.96 111.573 241.859C112.024 233.48 112.472 225.179 112.92 216.827C113.131 216.776 113.293 216.693 113.451 216.701C116.683 216.88 119.928 216.949 123.144 217.283C127.589 217.741 130.371 220.907 130.157 224.992C129.907 229.808 126.891 232.893 122.296 233.005C120.837 233.04 119.376 233.011 117.755 233.011V233.013ZM117.987 228.232C120.083 228.264 122.173 228.773 123.592 226.861C124.379 225.8 124.448 224.453 123.696 223.352C122.427 221.493 120.397 221.656 118.365 221.536C118.237 223.8 118.117 225.909 117.984 228.232H117.987Z" fill="#020202"/>
<path d="M66.5147 195.331C68.0827 196.491 69.5413 197.568 71.0933 198.712C67.0987 204.144 63.1387 209.525 59.1387 214.963C61.4773 216.693 63.7173 218.352 66.0267 220.061C65.0187 221.432 64.0533 222.739 63.0293 224.131C59.1573 221.28 55.384 218.499 51.5387 215.669C56.5413 208.877 61.4827 202.165 66.5173 195.331H66.5147Z" fill="#020202"/>
<path d="M143.029 20.696C144.653 20.8853 146.096 21.0507 147.715 21.24C146.933 28.1867 146.163 35.048 145.376 42.0667C143.808 41.896 142.288 41.7307 140.68 41.5547C138.499 37.0693 136.317 32.5867 134.133 28.1013C134.045 28.1147 133.957 28.1307 133.869 28.144C133.397 32.2613 132.925 36.3787 132.44 40.6053C130.837 40.4293 129.36 40.264 127.752 40.088C128.539 33.1013 129.315 26.24 130.101 19.2587C131.688 19.4293 133.171 19.5867 134.789 19.76C136.965 24.232 139.16 28.7413 141.355 33.2533C141.44 33.232 141.523 33.2133 141.608 33.192C142.075 29.0773 142.544 24.9627 143.029 20.6933V20.696Z" fill="#020202"/>
<path d="M162.469 47.8774V43.4267C160 42.5201 157.555 41.6214 155.059 40.7041C154.083 41.8454 153.136 42.9494 152.147 44.1041C150.584 43.5281 149.064 42.9681 147.392 42.3521C152.472 36.6721 157.437 31.1227 162.443 25.5254C163.797 26.0214 165.117 26.5041 166.552 27.0294C166.768 34.5121 166.981 41.9841 167.2 49.6081C165.557 49.0054 164.069 48.4614 162.467 47.8747L162.469 47.8774ZM162.259 38.8561V32.3627C160.736 34.1281 159.429 35.6454 158.008 37.2907C159.504 37.8401 160.845 38.3334 162.259 38.8534V38.8561Z" fill="#020202"/>
<path d="M96.808 37.4667C97.5013 39.8614 98.1973 42.2694 98.9253 44.792C97.3973 45.248 95.9733 45.6747 94.408 46.1414C92.4293 39.408 90.472 32.7547 88.472 25.9494C91.5627 25.104 94.4747 24.1547 97.4587 23.5307C100.488 22.8987 103.096 24.5787 104.168 27.4987C105.4 30.8614 104.485 33.9707 101.571 35.584C100.12 36.3867 98.4667 36.824 96.8107 37.464L96.808 37.4667ZM95.6747 33.68C97.4133 33.1307 99.2587 32.88 99.6427 30.9787C99.808 30.1547 99.3387 28.856 98.7013 28.2934C97.32 27.0747 95.7173 27.864 94.1173 28.3654C94.6427 30.1574 95.1387 31.8454 95.6773 33.6827L95.6747 33.68Z" fill="#020202"/>
<path d="M116.229 36.8533C118.595 36.6347 120.872 36.424 123.301 36.1973C123.437 37.6 123.568 38.9333 123.709 40.368C119.739 40.7573 115.912 41.1333 111.928 41.5253C111.243 34.5707 110.56 27.6667 109.869 20.6453C113.837 20.2533 117.661 19.8773 121.645 19.4827C121.787 20.8667 121.923 22.2027 122.072 23.6453C119.659 23.8987 117.384 24.136 115.003 24.384C115.141 25.7947 115.267 27.1013 115.403 28.488C117.693 28.2747 119.883 28.072 122.173 27.8613C122.315 29.28 122.448 30.584 122.589 32.0027C120.299 32.2427 118.112 32.472 115.813 32.7147C115.952 34.104 116.083 35.4053 116.229 36.8533Z" fill="#020202"/>
<path d="M136.843 15.9894C136.448 16.472 136.144 16.8427 135.771 17.296C135.072 17.2027 134.293 17.1014 133.371 16.9787C133.752 16.1867 134.029 15.488 134.408 14.848C135.477 13.0427 136.739 12.64 138.677 13.4587C139.76 13.9147 140.824 14.408 142.093 14.9707C142.432 14.464 142.677 14.096 142.939 13.7067C143.773 13.7814 144.552 13.8507 145.64 13.9494C145.016 15.056 144.6 16.0267 143.976 16.8427C143.091 18 141.968 18.2214 140.52 17.6427C139.379 17.1867 138.272 16.6347 136.845 15.9894H136.843Z" fill="#020202"/>
<path d="M105.853 63.568H156.024C156.024 65.8267 156.072 68.0773 156.016 70.3227C155.827 77.6907 155.611 85.0587 155.381 92.424C155.325 94.2427 155.243 96.064 155.069 97.8773C154.875 99.92 153.968 100.584 152.016 99.9947C150.197 99.4453 148.416 98.7413 146.667 97.992C142.267 96.1093 137.872 94.208 133.517 92.2213C131.173 91.152 128.941 91.136 126.6 92.2053C121.315 94.6133 116.005 96.9653 110.685 99.296C109.155 99.9653 107.555 100.48 105.853 101.115V63.5707V63.568Z" fill="#020202"/>
<path d="M120.701 187.429H129.883C126.403 190.909 122.933 194.376 119.552 197.755C116.205 194.408 112.717 190.917 109.216 187.413H118.531V156.715H99.3253C99.5307 155.245 100.408 154.925 101.595 154.928C106.837 154.944 112.08 154.936 117.323 154.936C117.757 154.936 118.192 154.936 118.72 154.936V103.648C119.08 103.56 119.371 103.424 119.656 103.429C125.824 103.568 132.016 103.443 138.157 103.949C144.653 104.483 149.891 107.819 154 112.813C157.411 116.96 157.763 122.28 155.083 127.147C151.955 132.832 146.933 136.005 140.757 137.224C137.037 137.957 133.189 138.115 129.387 138.339C126.52 138.507 123.632 138.373 120.683 138.373V154.936C121.968 154.936 123.243 154.936 124.515 154.936C128.912 154.936 133.312 154.928 137.709 154.941C139.104 154.944 139.355 155.267 139.064 156.677H120.701V187.429ZM120.6 105.005V136.699C124.2 136.699 127.715 136.869 131.203 136.651C134.509 136.443 137.851 136.08 141.072 135.333C146.608 134.048 151.147 131.144 153.765 125.877C155.96 121.461 155.477 117.261 152.245 113.499C149.315 110.085 145.648 107.717 141.352 106.392C139.92 105.949 138.419 105.571 136.933 105.504C131.536 105.261 126.136 105.163 120.603 105.005H120.6Z" fill="#020202"/>
</g>
<defs>
<clipPath id="clip0_766_20157">
<rect width="256" height="256" fill="white"/>
</clipPath>
</defs>
</svg>
