<svg width="256" height="256" viewBox="0 0 256 256" fill="none" xmlns="http://www.w3.org/2000/svg">
<g clip-path="url(#clip0_239_7053)">
<path d="M128 256C110.734 256 93.9662 252.615 78.1653 245.931C62.9191 239.488 49.2373 230.258 37.4898 218.51C25.7422 206.763 16.512 193.081 10.0693 177.835C3.38489 162.034 0 145.266 0 128C0 110.734 3.38489 93.9662 10.0693 78.1653C16.512 62.9191 25.7422 49.2373 37.4898 37.4898C49.2373 25.7422 62.9191 16.512 78.1653 10.0693C93.9662 3.38489 110.734 0 128 0C145.266 0 162.034 3.38489 177.835 10.0693C193.081 16.512 206.763 25.7422 218.51 37.4898C230.258 49.2373 239.488 62.9191 245.931 78.1653C252.615 93.9662 256 110.72 256 128C256 145.28 252.615 162.034 245.931 177.835C239.488 193.081 230.258 206.763 218.51 218.51C206.763 230.258 193.081 239.488 177.835 245.931C162.034 252.615 145.266 256 128 256Z" fill="white"/>
<path d="M44.6293 127.829C44.5298 82.1049 82.1049 44.3449 127.758 44.288C174.037 44.2311 211.484 81.4649 211.57 127.63C211.641 173.596 174.208 211.271 128.37 211.356C82.304 211.428 44.7289 173.952 44.6293 127.829ZM128.242 206.734C171.748 206.663 206.834 171.378 206.805 127.701C206.791 84.1387 171.492 48.896 127.957 48.9956C84.352 49.0951 49.3227 84.2667 49.3511 127.943C49.3796 171.435 84.7787 206.805 128.242 206.734Z" fill="#E60000"/>
<path d="M32.3555 137.429C32.3555 137.757 34.2755 140.8 34.3324 140.999C34.3893 141.198 33.7209 141.682 32.8391 141.682C31.4027 141.682 29.3689 140.231 27.2355 140.231C25.2587 140.231 24.0782 141.838 24.0782 143.076C24.0782 144.398 25.0453 145.849 27.0222 145.849C27.9182 145.849 27.9467 145.55 27.9467 145.323C27.9467 145.109 27.4916 144.313 27.2498 144.313C26.9511 144.313 26.8231 144.64 26.3822 144.64C25.4578 144.64 24.9031 143.744 24.9031 143.332C24.9031 142.919 25.984 141.653 27.3351 141.653C28.8569 141.653 30.3502 142.905 32.256 142.905C34.3609 142.905 36.1529 141.483 36.1529 141.156C36.1529 140.914 33.92 136.775 33.6213 136.605C33.3511 136.462 32.3555 137.159 32.3555 137.429Z" fill="#E60000"/>
<path d="M28.8285 130.987C26.1689 130.987 21.3902 132.082 21.3902 135.339C21.3902 137.287 23.6373 137.913 25.8418 137.913C29.1556 137.913 33.0951 136.078 33.0951 133.803C33.0951 131.684 31.1609 130.987 28.8285 130.987ZM24.6898 136.348C23.5093 136.348 22.2151 136.263 22.2151 135.424C22.2151 133.931 26.624 132.622 30.2222 132.622C31.5165 132.622 32.0853 132.978 32.0853 133.618C32.0711 134.983 27.7902 136.348 24.6898 136.348Z" fill="#E60000"/>
<path d="M32.9387 123.378C32.9245 123.25 23.808 123.62 23.5378 123.62C23.2818 123.634 22.9689 125.113 23.2391 125.269C23.424 125.369 24.3342 125.397 24.7893 125.483C25.2302 125.568 31.7013 127.701 32.0427 127.744C32.3982 127.787 32.4125 127.047 32.3271 126.948C32.1991 126.777 30.976 126.35 30.8338 126.194C30.6916 126.037 30.7769 125.17 30.8196 125.127C30.8907 125.056 31.8151 125.227 32.4267 124.971C32.9102 124.786 32.9671 123.534 32.9387 123.378ZM29.5538 126.08C29.312 126.052 27.136 125.184 27.3493 125.156C27.4631 125.141 29.5965 125.141 29.7671 125.227C29.9805 125.326 29.7245 126.094 29.5538 126.08Z" fill="#E60000"/>
<path d="M32.7253 123.022C32.1991 123.051 25.5289 120.732 25.0169 120.604C24.5049 120.476 23.9502 120.647 23.9502 120.448C23.9502 120.263 24.0213 118.912 24.9316 118.869C26.0836 118.827 30.1369 118.727 30.1796 118.713C30.5067 118.642 25.2444 117.035 25.1591 116.622C25.1022 116.338 25.2018 115.982 25.6427 116.011C26.0409 116.039 32.7964 118.528 33.2231 118.585C33.5218 118.628 34.1476 118.656 34.2044 119.268C34.2471 119.78 33.8916 120.22 33.5644 120.306C33.2373 120.391 27.8756 120.491 27.7618 120.519C27.648 120.548 32.8533 122.155 32.9529 122.24C33.0524 122.325 33.2373 122.994 32.7253 123.022Z" fill="#E60000"/>
<path d="M34.176 118.187C33.792 118.187 33.6213 118.13 33.6213 117.788C33.6213 117.348 34.1618 117.049 34.1618 116.537C34.1618 116.025 33.4364 115.612 32.6116 115.612C31.9431 115.612 31.6302 115.726 30.464 115.726C28.7289 115.726 26.9653 115.015 26.9653 113.522C26.9653 112.028 28.288 111.602 29.056 111.602C29.1698 111.602 29.3547 111.687 29.2124 111.9C28.9849 112.242 28.3307 112.583 28.3307 113.252C28.3307 113.948 29.5253 114.233 30.2222 114.233C30.9191 114.233 32.0284 114.119 32.7538 114.119C34.1902 114.119 35.5982 114.844 35.5982 116.324C35.6124 117.532 34.7733 118.187 34.176 118.187Z" fill="#E60000"/>
<path d="M222.436 118.215C222.492 117.888 221.198 114.532 221.184 114.332C221.17 114.133 221.909 113.778 222.777 113.948C224.199 114.233 225.906 116.039 227.996 116.452C229.931 116.836 231.41 115.484 231.652 114.261C231.908 112.967 231.239 111.346 229.291 110.976C228.423 110.805 228.324 111.09 228.281 111.303C228.238 111.502 228.537 112.37 228.779 112.427C229.063 112.484 229.262 112.185 229.689 112.27C230.599 112.455 230.969 113.436 230.884 113.835C230.798 114.233 229.504 115.271 228.167 115.015C226.674 114.716 225.436 113.209 223.573 112.839C221.511 112.427 219.477 113.479 219.406 113.806C219.364 114.048 220.757 118.528 221.013 118.756C221.269 118.983 222.379 118.485 222.436 118.215Z" fill="#E60000"/>
<path d="M225.365 125.454C228.011 125.71 232.875 125.084 233.188 121.828C233.372 119.893 231.196 119.054 229.006 118.841C225.707 118.528 221.611 119.979 221.383 122.24C221.17 124.359 223.033 125.241 225.365 125.454ZM229.988 120.505C231.154 120.619 232.448 120.832 232.363 121.671C232.22 123.164 227.712 124.046 224.128 123.705C222.848 123.577 222.308 123.179 222.379 122.539C222.507 121.159 226.901 120.206 229.988 120.505Z" fill="#E60000"/>
<path d="M221.34 133.447C221.369 133.575 230.457 132.764 230.713 132.736C230.969 132.708 231.211 131.214 230.926 131.072C230.741 130.972 229.817 130.987 229.376 130.93C228.921 130.873 222.364 129.052 222.023 129.024C221.668 129.01 221.696 129.735 221.781 129.835C221.909 129.991 223.161 130.375 223.303 130.517C223.46 130.66 223.403 131.541 223.374 131.584C223.303 131.655 222.364 131.527 221.767 131.812C221.298 132.039 221.312 133.276 221.34 133.447ZM224.597 130.574C224.839 130.588 227.058 131.356 226.844 131.385C226.731 131.399 224.597 131.499 224.427 131.428C224.199 131.342 224.412 130.56 224.597 130.574Z" fill="#E60000"/>
<path d="M221.582 134.315C222.094 134.201 229.049 135.495 229.561 135.552C230.073 135.595 230.613 135.353 230.642 135.538C230.67 135.723 230.812 137.074 229.902 137.244C228.779 137.458 224.768 138.169 224.74 138.183C224.427 138.297 229.874 139.108 230.016 139.492C230.116 139.762 230.073 140.132 229.632 140.174C229.234 140.203 222.18 138.766 221.753 138.78C221.454 138.78 220.828 138.837 220.686 138.254C220.558 137.756 220.857 137.273 221.17 137.131C221.483 137.003 226.759 136.092 226.873 136.036C226.987 135.993 221.596 135.182 221.483 135.125C221.355 135.054 221.07 134.414 221.582 134.315Z" fill="#E60000"/>
<path d="M221.084 139.676C221.454 139.591 221.639 139.62 221.71 139.947C221.81 140.388 221.34 140.786 221.44 141.284C221.554 141.781 222.336 142.037 223.161 141.867C223.815 141.724 224.1 141.554 225.237 141.298C226.93 140.928 228.807 141.255 229.12 142.72C229.433 144.185 228.224 144.882 227.484 145.052C227.371 145.081 227.186 145.038 227.271 144.796C227.428 144.412 227.982 143.943 227.84 143.289C227.698 142.606 226.46 142.592 225.778 142.734C225.095 142.876 224.028 143.232 223.332 143.374C221.924 143.673 220.402 143.275 220.089 141.81C219.833 140.615 220.501 139.804 221.084 139.676Z" fill="#E60000"/>
<path d="M147.684 34.6311C147.925 34.5742 148.281 15.5733 148.281 15.0471C148.281 14.5209 145.138 13.9804 145.081 14.3502C145.024 14.7627 145.067 16.128 144.882 17.0098C144.697 17.8915 139.307 32.2987 139.207 32.9671C139.164 33.3084 140.516 33.3227 140.587 33.152C140.772 32.7253 141.653 29.7387 141.966 29.4684C142.279 29.1982 144.384 29.7102 144.583 29.9662C145.138 30.6631 144.512 33.4364 144.839 34.0622C144.953 34.2898 147.385 34.7022 147.684 34.6311ZM142.82 27.9182C142.635 27.6053 144 22.8978 144.384 22.2578C144.612 21.888 144.981 22.0018 145.038 22.3573C145.067 22.5849 144.924 27.8898 144.612 28.1031C144.284 28.3591 142.99 28.2027 142.82 27.9182Z" fill="#E60000"/>
<path d="M119.068 32.9245C118.628 32.0285 118.144 16.4551 117.988 15.4738C117.831 14.4925 116.878 13.5965 117.205 13.4542C117.547 13.312 120.135 12.928 120.377 13.4542C121.287 15.4596 125.511 25.0311 125.767 25.3014C126.222 25.7707 124.786 13.5538 125.269 13.0276C125.653 12.6151 126.848 12.544 126.862 12.7147C126.976 13.4827 127.772 31.616 127.844 32.3556C127.858 32.5405 125.682 32.7254 125.54 32.5262C125.156 31.9858 119.95 20.2809 119.808 20.0818C119.666 19.8827 120.491 32.4409 120.42 32.6827C120.348 32.9387 119.31 33.4222 119.068 32.9245Z" fill="#E60000"/>
<path d="M85.3618 42.2969C85.3618 41.5147 85.632 40.8605 86.3289 40.8605C87.0827 40.8605 88.4338 41.216 88.4338 39.7369C88.4338 37.6747 86.4 36.5369 84.6223 35.6694C83.3991 35.0862 78.2791 32.8107 78.2791 29.0276C78.2791 26.2969 80.1565 25.0027 82.0196 25.0027C83.5698 25.0027 84.0107 25.344 84.6934 25.9129C84.7787 25.9982 84.3663 27.1645 84.1671 27.2498C83.8969 27.3636 83.3565 27.0934 82.7023 27.0934C82.0765 27.0934 81.2374 27.7476 81.2374 28.4445C81.2374 29.7102 82.5885 31.0329 83.8258 31.7582C85.0631 32.4836 87.0827 33.3796 88.3485 34.1191C90.8943 35.6125 91.5058 37.8169 91.5058 39.7796C91.5058 41.0311 90.2258 43.1929 87.5236 43.1929C86.2151 43.1929 85.3618 42.752 85.3618 42.2969Z" fill="#E60000"/>
<path d="M101.248 34.7591C101.404 33.9911 101.803 33.3938 102.485 33.536C103.225 33.6924 104.476 34.304 104.775 32.8533C105.188 30.8196 103.424 29.312 101.845 28.1173C100.764 27.2924 96.1991 24.0498 96.9529 20.352C97.4934 17.6782 99.5982 16.7822 101.419 17.152C102.94 17.4649 103.31 17.8773 103.865 18.5742C103.936 18.6738 103.296 19.7404 103.083 19.7831C102.784 19.84 102.329 19.4702 101.675 19.328C101.063 19.2 100.11 19.6693 99.968 20.352C99.712 21.6036 100.779 23.1538 101.845 24.1067C102.912 25.0738 104.718 26.3396 105.813 27.3209C108.004 29.2978 108.174 31.5733 107.776 33.5076C107.534 34.7307 105.842 36.5938 103.196 36.0533C101.916 35.7973 101.163 35.1858 101.248 34.7591Z" fill="#E60000"/>
<path d="M94.3929 40.1209C94.1369 39.8649 86.4569 22.3573 86.5849 22.2009C86.7129 22.0444 92.9849 19.4417 93.1271 19.5271C93.2694 19.6124 93.312 20.6933 93.1129 20.9777C92.9423 21.2337 90.2116 22.2862 90.1547 22.3715C90.0978 22.4711 92.2311 27.5342 92.3876 27.6195C92.5298 27.7049 95.2178 26.4249 95.3458 26.5102C95.4738 26.5955 95.6445 27.6906 95.3316 28.1173C95.2036 28.288 93.1698 29.0986 93.1271 29.2266C93.0845 29.3689 96.5405 37.3191 96.64 37.376C96.7396 37.4329 100.267 35.968 100.38 36.0106C100.565 36.0817 101.049 37.1057 100.907 37.3902C100.807 37.5466 94.6063 40.3484 94.3929 40.1209Z" fill="#E60000"/>
<path d="M110.236 34.4178C110.052 34.1049 106.567 15.3032 106.724 15.1894C106.88 15.0614 113.579 13.9663 113.707 14.0801C113.835 14.1938 113.621 15.2605 113.365 15.4881C113.138 15.7014 110.236 16.0854 110.165 16.1707C110.08 16.2561 111.019 21.6747 111.132 21.7885C111.246 21.9023 114.162 21.2765 114.261 21.3761C114.361 21.4756 114.276 22.5849 113.877 22.9263C113.721 23.0685 111.559 23.3814 111.474 23.5094C111.388 23.6374 112.953 32.1565 113.038 32.2418C113.124 32.3272 116.892 31.7014 116.992 31.7725C117.148 31.8721 117.39 32.9956 117.177 33.2374C117.063 33.3796 110.393 34.6881 110.236 34.4178Z" fill="#E60000"/>
<path d="M132.466 32.4694C132.324 32.1849 133.646 14.6632 133.532 14.5209C133.419 14.3787 130.731 14.464 130.56 14.4072C130.389 14.3503 130.432 12.8285 130.546 12.8285C130.66 12.8285 140.132 13.3547 140.188 13.44C140.245 13.5254 140.302 14.9049 140.132 14.9334C139.961 14.9618 136.903 14.7627 136.789 14.848C136.676 14.9334 135.652 32.5263 135.566 32.64C135.467 32.7538 132.551 32.64 132.466 32.4694Z" fill="#E60000"/>
<path d="M156.729 37.5893C156.786 36.9066 159.872 29.9662 159.957 29.4684C160.028 28.9706 160.37 18.0053 160.569 18.048C160.754 18.0906 163.456 19.1858 163.456 19.3706C163.456 19.5555 163.072 27.904 163.115 28.0604C163.157 28.2169 168.846 21.5751 169.074 21.5751C169.301 21.5751 170.283 22.0302 170.283 22.144C170.283 22.2578 162.958 30.7626 162.844 30.9902C162.731 31.2178 159.659 38.7271 159.545 38.8409C159.417 38.9689 156.686 38.0871 156.729 37.5893Z" fill="#E60000"/>
<path d="M169.244 43.8329C169.429 42.8516 178.389 30.1085 178.859 29.2409C179.328 28.3591 179.1 27.0649 179.456 27.1645C179.812 27.2498 182.116 28.5014 181.988 29.0703C181.504 31.2178 179.129 41.4009 179.172 41.7849C179.243 42.4249 185.458 31.8009 186.155 31.6871C186.709 31.5876 187.705 32.256 187.62 32.3983C187.236 33.0809 176.996 48.0569 176.597 48.6827C176.498 48.8391 174.649 47.6729 174.663 47.4311C174.677 46.7769 177.55 34.2756 177.55 34.0338C177.55 33.792 170.667 44.3165 170.468 44.4729C170.254 44.6151 169.145 44.3876 169.244 43.8329Z" fill="#E60000"/>
<path d="M185.941 57.2729C186.112 56.96 200.59 44.4729 200.775 44.544C200.96 44.6151 205.284 49.8489 205.255 50.0196C205.227 50.1902 204.188 50.5316 203.861 50.432C203.563 50.3467 201.771 48.0427 201.657 48.0142C201.543 47.9858 197.333 51.5271 197.291 51.6836C197.248 51.84 199.253 54.0444 199.225 54.1867C199.196 54.3289 198.187 54.8124 197.689 54.6418C197.49 54.5707 196.124 52.864 195.982 52.864C195.84 52.864 189.255 58.5102 189.227 58.6098C189.198 58.7236 191.63 61.6533 191.63 61.7813C191.616 61.9804 190.777 62.7484 190.464 62.6916C190.279 62.6489 185.785 57.5573 185.941 57.2729Z" fill="#E60000"/>
<path d="M196.708 71.9502C196.949 71.68 213.916 62.8765 214.087 62.9902C214.258 63.104 217.259 69.1911 217.173 69.3476C217.102 69.504 216.021 69.6036 215.723 69.4329C215.452 69.2765 214.229 66.6169 214.13 66.5742C214.03 66.5173 209.109 68.992 209.038 69.1342C208.967 69.2907 210.404 71.8933 210.347 72.0071C210.29 72.1209 209.195 72.3769 208.74 72.0925C208.569 71.9787 207.63 70.0018 207.488 69.9591C207.346 69.9165 199.637 73.8987 199.595 73.9982C199.538 74.0978 201.23 77.5253 201.202 77.6391C201.145 77.824 200.149 78.3787 199.851 78.2507C199.68 78.1796 196.494 72.192 196.708 71.9502Z" fill="#E60000"/>
<path d="M192.555 65.7778C192.583 65.408 206.677 52.1387 206.848 52.1387C207.019 52.1387 208.697 54.4427 208.64 54.5849C208.583 54.7271 197.845 64.8107 197.845 65.152C197.845 65.4933 211.371 58.8658 211.541 58.8658C211.712 58.8658 212.281 59.9751 212.281 60.1173C212.281 60.2596 194.603 68.2809 194.46 68.2809C194.332 68.2809 192.526 66.176 192.555 65.7778Z" fill="#E60000"/>
<path d="M179.385 49.4933C179.385 47.616 180.75 45.9947 181.618 45.1271C182.03 44.7147 190.535 35.2427 190.62 35.2285C190.791 35.2 193.067 37.1342 193.095 37.2765C193.109 37.376 184.988 46.2365 183.723 47.5165C182.798 48.4409 182.144 49.1236 182.144 50.176C182.144 50.9156 182.884 51.712 183.765 51.712C184.59 51.712 185.23 51.072 186.34 49.792C187.321 48.6542 195.513 39.6516 195.641 39.6658C195.812 39.6942 197.945 41.5716 197.916 41.7422C197.902 41.8702 190.18 50.3609 188.444 52.1956C187.008 53.7031 186.254 54.3858 184.434 54.3858C181.717 54.3858 179.385 51.6267 179.385 49.4933Z" fill="#E60000"/>
<path d="M81.2516 48.0853C81.3511 47.8578 66.8871 35.5556 66.4747 35.2284C66.0623 34.9013 63.6587 36.9778 63.9147 37.2622C64.1991 37.5609 65.2943 38.4 65.8489 39.0969C66.4036 39.7938 74.1405 53.0916 74.6098 53.5893C74.8374 53.8453 75.7049 52.8071 75.6196 52.6364C75.4063 52.224 73.6569 49.6498 73.6427 49.2373C73.6285 48.8249 75.3636 47.5307 75.6765 47.5307C76.5582 47.5449 78.3218 49.7778 79.0045 49.92C79.2747 49.9769 81.1236 48.3556 81.2516 48.0853ZM72.9885 47.6018C72.6329 47.5449 69.8454 43.5058 69.6036 42.8089C69.4614 42.4107 69.7885 42.1831 70.1014 42.368C70.3005 42.4818 74.3111 45.9662 74.2827 46.336C74.2543 46.7484 73.3014 47.6445 72.9885 47.6018Z" fill="#E60000"/>
<path d="M67.7974 60.7715C66.8445 60.4444 55.6658 49.5929 54.8694 48.9955C54.0729 48.3982 52.7645 48.4266 52.9067 48.0853C53.0489 47.744 54.6418 45.6675 55.1823 45.8809C57.2303 46.6915 66.9298 50.6169 67.3138 50.6311C67.968 50.6595 58.4391 42.88 58.4249 42.1689C58.4107 41.6142 59.2214 40.7324 59.3494 40.832C59.9609 41.3155 73.1734 53.7742 73.728 54.2577C73.8703 54.3857 72.4338 56.0213 72.192 55.9786C71.5378 55.8649 59.648 51.0862 59.4063 51.0435C59.1645 51.0009 68.4943 59.4346 68.608 59.6622C68.736 59.8897 68.3236 60.9564 67.7974 60.7715Z" fill="#E60000"/>
<path d="M58.4391 74.8516C58.3822 74.4818 52.6365 71.4667 51.9538 71.1254C51.2711 70.784 50.2471 70.016 50.1902 69.8454C50.1334 69.6747 51.1858 67.9538 51.1858 65.9769C51.1858 62.976 45.7956 59.2072 42.2258 59.2072C38.0445 59.2072 36.1245 65.0525 35.7831 65.4792C35.4418 65.9058 34.9014 66.3752 35.0294 66.5032C35.4134 66.8872 36.4942 66.816 37.2622 66.944C37.9307 67.0578 56.6187 77.4543 56.96 77.4543C57.3014 77.44 58.496 75.2214 58.4391 74.8516ZM48.0854 68.9494C47.8862 68.9494 38.9547 64.4267 38.9547 63.8863C38.9547 63.4027 39.9502 62.5209 41.3867 62.5209C43.8045 62.5209 48.5689 65.1947 48.5689 67.6978C48.5689 68.5227 48.2845 68.9494 48.0854 68.9494Z" fill="#E60000"/>
<path d="M62.4498 67.968C62.1085 67.8684 46.5067 56.8035 46.5351 56.6044C46.5636 56.4053 50.6027 50.944 50.7734 50.944C50.944 50.944 51.5271 51.8542 51.5129 52.1955C51.4987 52.4942 49.6925 54.7982 49.6925 54.912C49.6925 55.0257 54.1298 58.2684 54.3005 58.2684C54.4711 58.2684 56.1209 55.7937 56.2631 55.7937C56.4054 55.7937 57.1165 56.6471 57.0738 57.1733C57.0596 57.3866 55.7227 59.1217 55.7511 59.264C55.7796 59.4062 62.8338 64.4409 62.9476 64.4409C63.0614 64.4409 65.3369 61.3689 65.4507 61.3546C65.6356 61.312 66.5885 61.952 66.6027 62.2791C66.6311 62.4782 62.7627 68.0533 62.4498 67.968Z" fill="#E60000"/>
<path d="M51.4276 44.9565C51.3138 44.7005 51.3138 43.4205 52.0249 42.7094C52.736 41.9982 54.1156 42.4676 54.7414 41.8418C55.2534 41.3298 54.9262 40.0214 55.0827 39.9076C55.2391 39.7938 56.32 39.9218 56.4196 39.9929C56.5191 40.0498 56.6756 41.9698 56.0071 42.6525C54.9689 43.6907 53.8596 42.9938 53.1627 43.6907C52.6791 44.1743 52.864 45.1982 52.7929 45.2836C52.6791 45.3405 51.4987 45.1271 51.4276 44.9565Z" fill="#E60000"/>
<path d="M62.1227 216.149C62.3644 216.22 72.576 198.969 72.8462 198.514C73.1022 198.059 70.9831 196.466 70.7413 196.75C70.4853 197.063 69.8169 198.272 69.2053 198.926C68.5938 199.58 56.0213 209.792 55.6089 210.332C55.3671 210.66 56.4764 211.314 56.6898 211.1C57.0169 210.773 58.7947 209.124 59.2071 209.052C59.6196 208.981 61.8809 211.072 61.9236 211.385C62.0373 212.267 60.3164 213.589 60.2738 214.286C60.2453 214.571 61.8382 216.05 62.1227 216.149ZM60.16 208.142C60.3733 207.829 66.3182 202.652 66.9298 202.226C67.2853 201.984 67.5698 202.311 67.4276 202.652C67.3422 202.866 63.0187 209.991 62.6489 210.02C62.2507 210.048 60.0604 208.284 60.16 208.142Z" fill="#E60000"/>
<path d="M80.4124 227.484C80.4409 227.186 87.2675 212.75 87.4382 212.75C87.6089 212.736 92.7431 215.211 92.7715 215.353C92.8 215.495 92.1315 216.107 91.8471 216.149C91.5911 216.178 89.4151 215.054 89.3155 215.083C89.216 215.097 87.1964 219.221 87.2249 219.364C87.2533 219.506 89.5147 220.615 89.5431 220.729C89.5715 220.843 89.0595 221.412 88.6187 221.454C88.448 221.468 86.8409 220.516 86.7271 220.558C86.6133 220.601 83.4133 227.285 83.4275 227.371C83.4418 227.47 86.784 229.035 86.8267 229.134C86.8835 229.276 86.4996 230.158 86.2436 230.215C86.0587 230.244 80.3982 227.74 80.4124 227.484Z" fill="#E60000"/>
<path d="M64.8533 217.97C64.8533 217.614 74.1547 204.956 74.3396 204.743C74.5244 204.53 76.3876 206.052 76.3876 206.279C76.3876 206.507 67.1431 219.577 66.9724 219.577C66.8018 219.577 64.8533 218.212 64.8533 217.97Z" fill="#E60000"/>
<path d="M79.1182 218.937C79.744 218.283 81.8205 218.738 83.5413 215.211C85.4187 211.399 81.92 209.465 81.2231 209.095C80.5262 208.711 78.8338 207.829 78.7342 207.772C78.6347 207.716 78.2791 209.195 78.1369 209.536C77.9947 209.877 70.6987 221.596 70.784 222.009C70.8693 222.364 72.8604 223.431 73.0311 223.303C73.2302 223.161 75.9751 217.173 76.7716 217.557C77.5253 217.927 74.6951 224.185 74.752 224.427C74.8231 224.683 76.6293 225.892 77.056 225.749C77.9236 224 78.8196 219.25 79.1182 218.937ZM77.8098 216.804C77.4684 216.633 77.2693 216.519 77.2693 216.519C79.3884 212.196 80.64 210.418 81.1662 210.688C81.8773 211.044 82.2187 212.068 81.2373 214.073C80.0427 216.505 78.5493 217.173 77.8098 216.804Z" fill="#E60000"/>
<path d="M122.084 231.666C122.354 230.798 124.416 230.3 124.416 226.375C124.416 222.137 120.434 221.938 119.637 221.909C118.841 221.881 116.935 221.824 116.821 221.824C116.708 221.824 117.035 223.303 117.063 223.673C117.092 224.043 115.698 237.781 115.968 238.108C116.196 238.393 118.457 238.464 118.556 238.279C118.67 238.066 118.5 231.481 119.381 231.481C120.22 231.481 120.434 238.336 120.604 238.535C120.775 238.734 122.937 239.019 123.25 238.706C123.25 236.729 121.956 232.078 122.084 231.666ZM119.979 230.329C119.595 230.329 119.367 230.315 119.367 230.315C119.367 225.508 119.708 223.36 120.292 223.36C121.088 223.36 121.842 224.128 121.842 226.361C121.842 229.077 120.804 230.329 119.979 230.329Z" fill="#E60000"/>
<path d="M104.917 235.179C104.107 233.884 104.348 232.164 104.576 231.196C104.676 230.727 106.766 220.174 106.823 220.132C106.923 220.032 109.34 220.388 109.426 220.473C109.483 220.53 107.406 230.5 107.079 231.936C106.837 232.974 106.681 233.742 107.136 234.453C107.463 234.965 108.444 235.221 109.056 234.837C109.625 234.482 109.796 233.771 109.995 232.405C110.18 231.196 112.114 221.07 112.213 221.028C112.341 220.971 114.631 221.34 114.688 221.483C114.731 221.582 112.896 231.154 112.484 233.159C112.142 234.823 111.915 235.62 110.663 236.416C108.772 237.582 105.842 236.658 104.917 235.179Z" fill="#E60000"/>
<path d="M95.2178 231.268C95.6871 230.827 96.1138 230.955 96.4551 231.282C96.896 231.737 97.4933 232.747 98.4035 231.908C99.6693 230.727 99.2 228.821 98.7022 227.243C98.3609 226.162 96.8107 221.724 99.1289 219.563C100.793 217.998 102.67 218.396 103.737 219.534C104.633 220.487 104.633 220.843 104.676 221.582C104.676 221.696 103.78 222.052 103.609 221.98C103.381 221.881 103.225 221.554 102.855 221.141C102.5 220.757 101.618 220.615 101.191 221.028C100.409 221.753 100.395 223.332 100.651 224.512C100.921 225.692 101.532 227.428 101.803 228.636C102.343 231.054 101.362 232.69 100.153 233.813C99.3849 234.524 97.3511 234.88 95.8009 233.23C95.0329 232.434 94.9475 231.524 95.2178 231.268Z" fill="#E60000"/>
<path d="M133.575 238.777C133.362 238.777 132.21 222.35 132.395 222.265C132.58 222.194 134.997 222.208 135.111 222.322C135.225 222.435 135.893 237.184 136.078 237.184C136.263 237.184 139.321 237.084 139.492 237.113C139.733 237.155 139.662 238.549 139.534 238.549C138.524 238.635 134.059 238.777 133.575 238.777Z" fill="#E60000"/>
<path d="M141.739 224.128C141.625 224.014 141.696 217.472 141.966 217.131C142.236 216.789 144.526 216.633 144.74 216.846C144.953 217.06 144.327 222.222 143.602 223.246C142.876 224.27 141.924 224.327 141.739 224.128Z" fill="#E60000"/>
<path d="M158.905 234.425C159.061 234.297 152.476 219.918 152.306 219.534C152.135 219.164 149.973 219.719 150.044 220.004C150.13 220.316 150.613 221.312 150.741 222.009C150.884 222.706 151.808 235.548 151.964 236.06C152.064 236.373 153.031 235.932 152.988 235.705C152.932 235.335 152.647 232.846 152.789 232.533C152.932 232.22 154.965 231.851 155.179 231.964C155.804 232.292 156.231 234.482 156.672 234.823C156.857 234.965 158.72 234.581 158.905 234.425ZM152.647 231.168C152.548 230.884 152.078 225.707 152.092 225.124C152.107 224.782 152.462 224.74 152.619 224.981C152.718 225.138 154.766 230.528 154.61 230.784C154.425 231.068 152.69 231.296 152.647 231.168Z" fill="#E60000"/>
<path d="M194.83 206.692C194.404 205.881 195.513 204.075 192.725 201.301C189.724 198.3 186.766 200.988 186.183 201.529C185.6 202.069 184.22 203.378 184.135 203.463C184.05 203.548 185.33 204.359 185.614 204.601C185.899 204.843 194.645 215.523 195.058 215.566C195.413 215.609 197.063 214.059 197.006 213.845C196.935 213.618 192.142 209.081 192.768 208.455C193.365 207.858 198.372 212.551 198.628 212.565C198.884 212.579 200.619 211.257 200.619 210.816C199.239 209.436 195.029 207.076 194.83 206.692ZM192.398 207.246C192.128 207.516 191.957 207.673 191.957 207.673C188.544 204.274 187.264 202.524 187.676 202.098C188.245 201.529 189.312 201.543 190.905 203.122C192.825 205.042 192.981 206.649 192.398 207.246Z" fill="#E60000"/>
<path d="M185.173 221.283C183.68 220.928 182.656 219.534 182.13 218.681C181.874 218.283 175.972 209.28 175.972 209.209C175.986 209.067 177.948 207.63 178.062 207.63C178.148 207.63 183.652 216.206 184.42 217.458C184.974 218.368 185.401 219.022 186.226 219.221C186.809 219.363 187.691 218.851 187.861 218.155C188.018 217.5 187.634 216.875 186.823 215.751C186.112 214.755 180.395 206.165 180.437 206.08C180.494 205.952 182.386 204.615 182.514 204.672C182.613 204.715 188.004 212.835 189.127 214.556C190.052 215.979 190.45 216.704 190.108 218.155C189.611 220.288 186.866 221.682 185.173 221.283Z" fill="#E60000"/>
<path d="M161.337 216.633C159.346 216.633 156.188 218.226 156.188 218.339C156.188 218.453 157.212 219.136 157.44 219.449C157.668 219.762 162.162 233.315 162.617 233.315C163.044 233.315 168.164 232.178 168.164 227.797C168.164 222.848 165.148 216.633 161.337 216.633ZM164.736 231.282C164.565 231.239 159.744 218.652 159.744 218.339C159.744 218.027 160 217.899 160.54 217.913C162.133 217.955 163.428 220.245 164.437 222.805C165.589 225.763 165.973 227.669 165.973 229.148C165.959 230.428 165.077 231.367 164.736 231.282Z" fill="#E60000"/>
<path d="M172.772 211.911C169.799 211.612 167.353 213.817 167.367 216.235C167.396 221.127 171.819 226.972 174.45 227.484C176.811 227.939 179.996 225.749 179.94 223.502C179.84 219.164 176.228 212.252 172.772 211.911ZM176.427 226.062C174.407 226.062 170.197 220.345 169.799 214.841C169.742 214.016 170.34 213.276 171.022 213.276C173.924 213.276 177.166 220.459 177.65 223.673C177.82 224.811 177.308 226.062 176.427 226.062Z" fill="#E60000"/>
<path d="M129.621 146.318C129.522 145.522 129.451 144.725 129.422 143.929C129.408 143.63 129.38 143.346 129.351 143.047C129.252 142.308 129.209 141.525 129.052 140.843C128.782 139.676 128.484 138.51 128.128 137.358C127.516 135.339 126.677 133.433 125.582 131.612C124.971 130.645 124.402 129.692 123.676 128.811C122.325 127.147 121.074 125.852 119.908 124.9C118.002 123.349 115.669 122.112 112.896 121.173C112.341 120.988 111.744 120.846 111.104 120.732C110.45 120.619 109.81 120.519 109.184 120.434C106.809 120.092 104.405 120.235 102.016 120.832C101.689 120.917 101.362 120.988 101.049 121.031C100.622 121.102 100.167 121.145 99.7547 121.301C97.5218 122.112 95.2604 123.136 93.6107 120.619C93.3262 120.192 93.184 119.78 93.184 119.339C93.1698 118.67 93.184 118.016 93.2124 117.348C93.2267 116.964 93.2978 116.295 93.4116 115.371C93.5538 114.29 93.6107 113.138 93.7529 112.114C93.8951 111.161 94.0231 110.222 94.1653 109.298C94.2933 108.388 94.4924 107.477 94.7484 106.539C95.0898 105.33 95.3884 104.036 95.8151 102.926C96.3271 101.618 96.9102 100.423 97.5929 99.3423C98.5742 97.7778 99.8684 96.4694 101.518 95.4169C103.467 94.1654 105.6 93.6676 107.947 93.9094C108.8 94.0516 109.554 94.3503 110.194 94.8196C110.848 95.5449 111.346 96.6116 110.649 97.4649C109.511 98.8445 108.217 100.366 107.648 102.002C107.364 102.827 107.136 103.794 106.98 104.903C106.724 106.681 107.364 108.459 108.331 109.895C109.625 111.474 111.175 112.583 112.981 113.237C113.522 113.436 114.162 113.493 114.873 113.408C117.134 113.621 119.239 113.052 121.202 111.687C122.724 110.62 123.932 109.369 124.8 107.932C125.099 107.605 125.312 107.15 125.426 106.567C125.966 105.116 126.436 101.163 126.436 98.8729C126.436 98.2329 126.393 97.7209 126.322 97.4365C126.137 96.4552 125.895 95.6303 125.611 94.9903C124.971 93.5538 124.004 92.2454 122.695 91.0507C120.078 88.6614 117.006 87.1112 113.493 86.4C113.038 86.3147 112.583 86.2009 112.114 86.0729C111.531 85.9165 111.061 85.8312 110.677 85.8027C108.814 85.6605 106.624 85.6605 104.078 85.8027C102.969 85.8738 102.229 85.9449 101.888 86.0303C101.049 86.2578 100.224 86.4143 99.4133 86.4996C99.2427 86.5138 99.072 86.5565 98.8871 86.6276C98.7164 86.6987 98.5458 86.7414 98.3467 86.7556C98.3324 86.7556 98.3324 86.7556 98.3467 86.7698L98.3609 86.784C98.3751 86.7983 98.3751 86.8125 98.3609 86.8125C96.6258 87.2676 94.9333 87.8649 93.2978 88.6187C91.3209 89.4009 89.5004 90.4534 87.8507 91.8045C86.2151 93.0418 84.8498 94.3218 83.7689 95.6303C82.4604 97.2232 81.6071 98.304 81.2231 98.8445C79.872 100.779 78.5778 103.097 77.3547 105.785C75.7476 109.284 74.7093 113.223 73.9556 116.978C73.6996 118.201 73.5716 119.637 73.3582 120.96C73.1307 122.283 72.9884 123.278 72.9316 123.947C72.6756 126.507 72.5333 129.081 72.4907 131.655C72.4764 132.665 72.576 133.803 72.6187 134.884C72.6756 137.06 72.9173 139.15 73.0596 141.284C73.088 141.767 73.2444 142.919 73.5289 144.725C73.6996 145.806 73.8702 146.887 74.0124 147.968C74.1831 149.177 74.6524 151.168 75.4062 153.927C76.5724 158.194 78.4498 162.148 81.024 165.774C81.4507 166.372 82.3751 167.438 83.7831 168.974C85.2196 170.539 86.8836 171.89 88.7751 173.028C90.3253 173.966 91.5911 174.592 92.5724 174.919C93.824 175.317 94.8764 175.644 95.7582 175.858C96.2276 175.972 96.8107 176.085 97.536 176.185C97.92 176.228 99.0578 176.398 99.6267 176.441C101.461 176.555 103.609 176.569 104.946 176.498C105.728 176.412 106.51 176.313 107.307 176.213C108.117 176.114 108.885 175.972 109.639 175.772C111.09 175.388 112.27 175.033 113.195 174.72C114.617 174.236 116.039 173.511 117.447 172.53L118.699 171.634C119.012 171.477 119.239 171.321 119.381 171.179C119.979 170.567 120.619 170.012 121.316 169.501C121.643 169.259 121.884 168.974 122.197 168.704C123.605 167.253 124.786 165.618 125.71 163.797C125.909 163.399 126.393 162.517 127.147 161.166C127.545 160.455 127.886 159.374 128.185 157.924C128.384 157.255 128.569 156.572 128.768 155.904C128.853 155.449 129.65 146.56 129.621 146.318ZM109.028 152.135C108.956 154.112 108.885 155.435 108.828 156.103C108.772 156.615 108.629 157.71 108.388 159.388C108.188 160.754 107.975 161.792 107.748 162.517C107.392 163.655 106.923 164.622 106.368 165.447C106.012 165.959 105.33 166.571 104.32 167.282C103.438 167.851 102.585 168.149 101.788 168.192C99.5271 168.32 97.664 167.538 96.1991 165.86C95.1182 164.622 94.4071 163.342 94.0516 162.034C93.8667 161.337 93.5964 159.943 93.2409 157.881C93.2124 157.724 93.1982 157.454 93.184 157.084C93.0987 154.88 93.0133 152.676 92.928 150.485C92.8711 148.978 92.8427 147.627 92.8711 146.46C92.9138 143.673 93.0275 141.156 93.2409 138.88C93.3262 137.884 93.5111 136.704 93.7813 135.339C94.1227 133.575 94.7627 131.669 95.8578 130.318C96.9529 128.953 98.3324 128.043 100.011 127.588C100.622 127.417 101.333 127.374 102.158 127.474C102.457 127.502 102.784 127.573 103.125 127.687C103.595 127.844 103.908 127.957 104.064 128.028C104.405 128.199 104.633 128.299 104.747 128.299L105.003 128.526C105.088 128.612 105.728 129.024 106.098 129.522C106.453 130.02 107.577 133.049 107.577 133.049L107.89 133.945C108.316 135.879 108.587 137.828 108.686 139.819C109.013 145.024 109.127 149.134 109.028 152.135Z" fill="#E60000"/>
<path d="M184.178 116.665C184.107 115.143 184.135 113.749 183.865 112.142C183.723 111.588 183.623 111.019 183.552 110.421C183.381 108.9 183.211 107.506 183.026 106.268C182.926 105.6 182.812 104.932 182.67 104.277C182.3 102.5 181.774 100.764 181.333 99.0151C181.163 98.3182 180.636 96.896 179.783 94.7342C179.228 93.3405 178.532 91.9893 177.849 90.6809C177.138 89.3013 176.1 87.7511 174.72 86.0018C173.483 84.4374 171.961 83.1858 170.396 81.9342C169.927 81.5645 169.5 81.2516 169.116 80.9956C167.538 79.9574 165.874 79.104 164.11 78.4356C162.944 77.9805 161.664 77.6249 160.284 77.3831C157.099 76.8 153.643 76.544 150.599 77.0134C147.812 77.44 145.323 77.9662 142.72 79.0045C140.345 79.872 138.212 81.1662 136.306 82.9298C132.309 86.3573 129.678 90.9511 128.398 96.0142C128.1 97.1662 127.844 98.4462 127.616 99.84C127.303 101.86 127.204 103.893 127.289 105.941C127.289 107.292 127.346 108.373 127.474 109.17C127.815 111.303 128.427 113.678 129.28 116.267C131.228 122.183 135.41 127.573 141.156 130.162L143.275 131.029L143.943 131.228L144.882 131.527C146.119 131.968 147.285 131.968 148.75 132.025C148.907 132.025 149.092 132.124 149.248 132.124C150.898 132.224 152.519 132.139 154.14 131.897C155.79 131.641 157.227 131.086 158.777 130.66C159.844 130.375 160.754 130.318 161.508 130.517C162.247 130.702 162.887 131.143 163.413 131.812C163.826 132.608 163.954 133.376 163.797 134.116C163.712 134.514 163.669 134.812 163.669 135.04C163.669 135.452 163.669 135.879 163.655 136.292C163.655 136.434 163.612 136.718 163.541 137.173C163.47 137.586 163.584 137.984 163.456 138.411C163.428 138.496 163.413 138.596 163.399 138.695C163.257 140.217 163.086 141.668 162.873 143.061C162.745 143.9 162.446 145.166 161.963 146.844C161.892 147.115 161.835 147.385 161.82 147.669C161.806 147.925 161.749 148.181 161.664 148.437C161.593 148.651 161.522 148.864 161.465 149.092C161.422 149.291 161.365 149.49 161.28 149.689C161.209 149.888 161.138 150.087 161.081 150.286C161.052 150.428 160.996 150.556 160.924 150.67C160.868 150.784 160.796 150.898 160.725 151.04C160.697 151.111 160.64 151.268 160.583 151.538C160.54 151.723 160.455 151.879 160.341 152.007C160.299 152.064 160.27 152.107 160.256 152.178C160.228 152.263 160.199 152.348 160.171 152.434C160.085 152.604 159.858 152.732 159.801 152.974C159.772 153.088 159.73 153.188 159.701 153.244C159.474 153.6 159.246 153.97 159.033 154.354C158.99 154.425 158.933 154.482 158.862 154.51C158.791 154.539 158.777 154.596 158.791 154.681C158.805 154.738 158.791 154.78 158.763 154.837C158.436 155.278 158.094 155.719 157.767 156.16C157.71 156.245 157.639 156.302 157.554 156.345C157.497 156.373 157.454 156.416 157.412 156.473C157.028 157.042 156.729 157.412 156.487 157.582C156.075 157.881 155.676 158.18 155.278 158.507L155.051 158.663C154.098 159.204 152.988 159.616 151.694 159.9C149.348 160.412 146.503 160 145.209 157.767C144.811 157.099 145.266 156.345 145.664 155.804C146.688 154.382 147.669 153.23 148.48 151.509C149.575 149.148 149.803 146.517 148.551 144.242C147.413 142.165 145.579 140.814 143.047 140.188C141.767 139.876 140.402 139.861 138.923 140.174C136.932 140.587 135.182 141.383 133.689 142.564C132.352 143.616 131.356 144.939 130.688 146.517C130.532 146.859 130.389 147.2 130.261 147.556C130.133 147.897 130.048 148.252 130.005 148.636C129.906 149.646 129.82 150.67 129.721 151.68C129.593 153.031 129.65 154.155 129.877 155.051C130.361 157.212 131.186 159.033 132.352 160.526C133.902 162.517 135.936 164.11 138.411 165.333C139.463 165.845 140.8 166.315 142.407 166.727C143.374 166.983 144.384 167.111 145.38 167.324C146.034 167.452 146.887 167.524 147.968 167.524C149.561 167.524 151.14 167.524 152.732 167.509C153.273 167.509 154.183 167.367 155.463 167.097C155.876 167.196 156.26 167.154 156.601 166.955C157.028 166.884 157.34 166.827 157.54 166.77C158.777 166.414 160.014 166.03 161.252 165.618C162.133 165.333 162.972 164.964 163.783 164.537C164.651 164.082 165.518 163.598 166.372 163.1L168.548 161.451C169.429 160.882 170.098 160.398 170.553 159.986C172.658 158.123 174.578 155.563 176.156 153.116C176.725 152.22 177.365 151.097 178.048 149.732C179.541 146.731 180.693 144.242 181.476 141.511C181.746 140.572 182.101 139.207 182.542 137.387C182.94 135.78 183.154 134.13 183.41 132.48C183.58 131.186 183.737 129.892 183.879 128.612C184.021 127.374 184.092 126.066 184.121 124.715C184.149 122.852 184.178 121.003 184.192 119.14C184.249 118.443 184.22 117.604 184.178 116.665ZM163.513 114.276C163.271 116.48 162.958 118.699 162.162 120.661C161.337 122.667 159.929 124.117 157.924 125.013C157.284 125.298 156.558 125.454 155.762 125.454C153.074 125.468 151.125 123.833 149.689 121.742C149.433 121.372 149.248 121.003 149.148 120.661C148.722 119.239 148.395 117.788 148.181 116.324C147.925 114.603 147.982 112.654 147.968 110.82C147.94 108.999 147.769 106.041 147.826 103.637C147.826 103.609 147.84 103.509 147.854 103.339C147.868 103.253 147.868 103.154 147.868 103.04C147.954 99.84 148.053 97.3796 148.167 95.6445C148.267 94.0942 148.608 92.5014 149.177 90.8374C149.447 90.0409 149.803 89.344 150.229 88.7609C150.713 88.0925 151.268 87.5236 151.908 87.0827C152.619 86.5707 153.5 86.1582 154.553 85.8169C155.62 85.7316 156.459 85.7458 157.042 85.888C157.639 86.0302 158.364 86.3716 159.218 86.912C160.156 87.6373 161.195 88.6045 161.707 89.6853C162.844 92.1031 163.328 94.7627 163.484 97.408C163.499 97.7209 163.527 99.0436 163.57 101.376C163.612 104.405 163.641 106.368 163.641 107.264C163.655 110.99 163.612 113.337 163.513 114.276Z" fill="#E60000"/>
</g>
<defs>
<clipPath id="clip0_239_7053">
<rect width="256" height="256" fill="white"/>
</clipPath>
</defs>
</svg>
