<svg width="256" height="256" viewBox="0 0 256 256" fill="none" xmlns="http://www.w3.org/2000/svg">
<path d="M95.7695 11.2647C95.7695 14.1403 95.4469 16.5301 94.9185 18.6114C92.9649 18.9376 91.0183 19.2887 89.0752 19.6645C88.476 19.778 87.8768 19.8985 87.2776 20.0155C86.572 20.1574 85.8664 20.2992 85.1608 20.4517C83.902 20.7105 82.6469 20.9835 81.3917 21.2672C81.374 21.2707 81.3562 21.2743 81.3385 21.2778C80.7074 21.4232 80.0762 21.5685 79.4451 21.7139C78.6969 21.8877 77.9523 22.0649 77.2042 22.2493C76.6794 22.377 76.1547 22.5046 75.6299 22.6394C75.0981 22.7705 74.5662 22.9053 74.0343 23.0436C73.3004 23.2315 72.57 23.423 71.8395 23.618C70.5773 23.9548 69.3221 24.3023 68.0705 24.6569C67.4429 24.8341 66.8188 25.015 66.1948 25.1994C65.6736 25.3518 65.1488 25.5043 64.6276 25.6638C62.2768 26.3659 59.9437 27.1034 57.6213 27.8764C57.1142 28.043 56.6072 28.2132 56.1037 28.3869C55.7598 28.5004 55.4158 28.6174 55.0754 28.738C54.462 28.9472 53.8522 29.1599 53.2423 29.3762C52.6325 29.5889 52.0261 29.8088 51.4198 30.0286C50.81 30.2484 50.2036 30.4683 49.6009 30.6952C49.1116 30.876 48.6223 31.0569 48.133 31.2448C47.4132 31.5143 46.6969 31.7873 45.9843 32.0674C45.385 32.2979 44.7858 32.5354 44.1866 32.773C42.3854 33.4892 40.5948 34.2232 38.8148 34.982C38.4035 35.1557 37.9958 35.3294 37.5845 35.5103C37.3079 35.6273 37.0313 35.7478 36.7548 35.8684C36.2655 36.0776 35.7833 36.2903 35.2975 36.5066C32.4858 52.4481 31.0072 69.4037 31.0072 87.3237C31.0072 96.1241 31.5426 104.761 32.5815 113.204L32.585 113.211C37.5916 153.919 54.3025 190.178 79.1685 218.94C78.5161 218.352 77.8672 217.749 77.2219 217.15C43.4774 181.671 22.8024 133.326 22.8024 78.6296C22.8024 60.7096 24.281 43.754 27.0927 27.8125C27.2027 27.7629 27.3126 27.7168 27.4225 27.6672C48.6825 18.2852 71.4921 11.7718 95.3618 8.61963C95.6206 9.47414 95.7695 10.3464 95.7695 11.2647Z" fill="#40001F"/>
<path d="M125.103 11.2647C125.103 12.7752 125.015 14.1545 124.851 15.4203C124.277 15.4451 123.703 15.4735 123.132 15.5054C122.057 15.5621 120.99 15.6259 119.919 15.6968C119.366 15.7323 118.81 15.7713 118.256 15.8138C117.831 15.8422 117.405 15.8741 116.98 15.9096C116.179 15.9699 115.377 16.0372 114.579 16.1081C114.033 16.1542 113.487 16.2039 112.945 16.2535C112.356 16.3102 111.768 16.367 111.183 16.4273C111.527 14.7147 111.729 12.9383 111.729 11.0768C111.729 9.71523 111.52 8.3785 111.161 7.04177C115.356 6.75457 119.575 6.57019 123.823 6.49219H123.827C124.6 8.03102 125.103 9.56986 125.103 11.2647Z" fill="#40001F"/>
<path d="M155.316 11.2647C155.316 12.9276 155.206 14.431 155.015 15.8032C154.99 15.7997 154.962 15.7997 154.933 15.7961C154.369 15.7571 153.806 15.7181 153.242 15.6827C152.65 15.6436 152.058 15.6082 151.465 15.5727C151.033 15.5479 150.597 15.5231 150.161 15.4983C149.895 15.4841 149.625 15.4699 149.359 15.4593C148.207 15.399 147.051 15.3494 145.895 15.3104C145.374 15.2891 144.849 15.2713 144.328 15.2572C143.817 15.243 143.307 15.2288 142.796 15.2182C142.112 15.2004 141.424 15.1863 140.74 15.1756C140.945 13.8531 141.062 12.488 141.062 11.0768C141.062 9.66559 140.821 8.1693 140.403 6.7262C145.179 6.94958 149.92 7.30769 154.621 7.79345C155.057 8.91035 155.316 10.045 155.316 11.2647Z" fill="#40001F"/>
<path d="M230.113 33.1275C227.634 32.1312 225.138 31.1774 222.624 30.2591C221.961 30.0179 221.295 29.7768 220.628 29.5428C220.252 29.4081 219.876 29.2734 219.497 29.1422C219.022 28.9755 218.543 28.8089 218.068 28.6493C216.948 28.2628 215.824 27.887 214.7 27.5182C214.203 27.3551 213.707 27.1956 213.207 27.036C212.64 26.8516 212.072 26.6744 211.501 26.4935C211.005 26.3411 210.509 26.185 210.009 26.0361C209.977 26.0255 209.941 26.0148 209.909 26.0042C208.934 25.7064 207.956 25.4156 206.974 25.1284C200.474 23.235 193.869 21.5969 187.164 20.2247C186.674 20.1254 186.181 20.0262 185.692 19.9269C185.104 19.8134 184.519 19.6999 183.934 19.5865C183.384 19.4837 182.831 19.3808 182.278 19.278C182.278 19.2745 182.278 19.2745 182.271 19.278C181.714 19.1752 181.161 19.0759 180.604 18.9766C180.047 18.8773 179.487 18.7816 178.931 18.6859C177.831 18.498 176.729 18.3207 175.622 18.1469C175.59 18.1434 175.559 18.1363 175.53 18.1327C174.984 18.0476 174.438 17.9661 173.892 17.8845C173.332 17.7994 172.768 17.7179 172.208 17.6399C171.644 17.5583 171.08 17.4803 170.517 17.4059C170.988 15.3955 171.275 13.2964 171.275 11.0768C171.275 10.7435 171.261 10.4102 171.236 10.0804C188.77 13.0907 205.679 17.9235 221.763 24.3767C224.255 25.3766 226.727 26.412 229.177 27.4899C229.506 29.3549 229.822 31.2341 230.113 33.1275Z" fill="#40001F"/>
<path d="M241.729 87.3237C241.729 154.469 210.569 212.04 162.33 247.99C161.688 246.026 161.262 244.164 161.262 242.572C161.262 238.353 163.099 234.442 165.067 230.521C165.531 230.12 165.996 229.716 166.457 229.308C168.336 227.659 170.183 225.971 171.995 224.252C172.389 223.879 172.779 223.504 173.169 223.128C173.85 222.472 174.527 221.809 175.197 221.142C175.612 220.734 176.019 220.323 176.424 219.912C176.934 219.401 177.438 218.884 177.938 218.366C178.179 218.114 178.42 217.866 178.657 217.614C179.455 216.788 180.239 215.951 181.015 215.111C181.274 214.831 181.533 214.551 181.788 214.271C181.895 214.154 182.001 214.037 182.107 213.92C182.607 213.374 183.104 212.82 183.593 212.267C183.728 212.115 183.866 211.962 184.001 211.806C184.292 211.477 184.579 211.15 184.866 210.821C185.497 210.097 186.125 209.367 186.745 208.633C186.77 208.605 186.795 208.573 186.82 208.544C187.132 208.172 187.444 207.803 187.752 207.431C188.359 206.704 188.954 205.977 189.55 205.24C189.592 205.187 189.639 205.13 189.681 205.073C189.979 204.708 190.273 204.343 190.56 203.974C190.872 203.587 191.177 203.197 191.482 202.807C191.78 202.424 192.078 202.041 192.376 201.655C192.986 200.864 193.588 200.067 194.188 199.265C194.408 198.967 194.627 198.673 194.847 198.375C194.975 198.198 195.106 198.021 195.237 197.843C195.468 197.524 195.702 197.205 195.936 196.886C196.23 196.478 196.524 196.067 196.815 195.656C197.099 195.262 197.375 194.865 197.652 194.468C198.237 193.635 198.815 192.794 199.386 191.95C199.545 191.713 199.708 191.475 199.864 191.238C200.173 190.78 200.481 190.319 200.783 189.855C201.286 189.096 201.779 188.33 202.272 187.561C202.534 187.153 202.793 186.742 203.052 186.327C203.616 185.433 204.172 184.533 204.718 183.625C205.055 183.068 205.389 182.512 205.718 181.955C205.733 181.93 205.747 181.909 205.761 181.884C206.112 181.288 206.459 180.693 206.803 180.097C206.853 180.019 206.896 179.938 206.942 179.86C207.3 179.235 207.658 178.611 208.009 177.984C208.385 177.314 208.753 176.644 209.122 175.97C209.491 175.296 209.853 174.623 210.211 173.945C210.572 173.268 210.927 172.587 211.278 171.907C211.923 170.655 212.554 169.396 213.175 168.127C213.26 167.953 213.345 167.776 213.434 167.602C213.739 166.971 214.044 166.336 214.341 165.698C214.671 165.003 214.997 164.301 215.317 163.599C215.639 162.897 215.955 162.191 216.267 161.486C216.582 160.78 216.891 160.071 217.196 159.358C217.494 158.667 217.788 157.972 218.075 157.273C218.096 157.227 218.118 157.181 218.135 157.132C218.717 155.731 219.284 154.316 219.837 152.894C220.05 152.341 220.263 151.792 220.472 151.235C220.561 151.008 220.646 150.778 220.731 150.547C220.749 150.501 220.766 150.451 220.784 150.405C221.018 149.778 221.249 149.147 221.475 148.515C221.734 147.806 221.986 147.097 222.234 146.385C222.252 146.331 222.27 146.282 222.287 146.229C222.518 145.565 222.745 144.902 222.968 144.236C223.011 144.105 223.057 143.973 223.099 143.839C223.323 143.179 223.539 142.52 223.752 141.857C223.957 141.208 224.163 140.562 224.362 139.914C224.415 139.751 224.464 139.587 224.514 139.424C224.73 138.733 224.94 138.038 225.142 137.343C225.33 136.712 225.514 136.081 225.691 135.45C225.762 135.205 225.83 134.96 225.897 134.716C226.12 133.939 226.333 133.155 226.542 132.372C226.677 131.875 226.808 131.379 226.936 130.879C227.198 129.876 227.45 128.869 227.698 127.855C227.851 127.224 228.003 126.589 228.152 125.951C228.163 125.894 228.177 125.837 228.191 125.78C228.336 125.149 228.482 124.518 228.62 123.883C228.624 123.873 228.627 123.859 228.627 123.844C228.702 123.515 228.776 123.185 228.843 122.855C228.992 122.178 229.138 121.497 229.276 120.816C229.411 120.16 229.545 119.505 229.673 118.845C229.673 118.827 229.68 118.806 229.684 118.788C229.822 118.079 229.957 117.366 230.088 116.654C230.116 116.498 230.148 116.338 230.177 116.179C230.304 115.477 230.428 114.775 230.545 114.072C230.648 113.477 230.747 112.878 230.843 112.282C230.886 112.02 230.928 111.761 230.971 111.498C231.081 110.803 231.187 110.108 231.286 109.413C231.301 109.321 231.315 109.229 231.329 109.137C231.414 108.545 231.499 107.953 231.581 107.357C231.623 107.041 231.666 106.726 231.708 106.41C231.783 105.839 231.857 105.265 231.928 104.691C231.96 104.439 231.992 104.184 232.02 103.928C232.098 103.29 232.173 102.652 232.244 102.01C233.088 94.3619 233.524 86.5649 233.524 78.6296C233.524 62.6881 232.354 47.5089 230.113 33.1276C231.914 33.8544 233.708 34.599 235.492 35.3614C236.123 35.6344 236.754 35.9074 237.381 36.184C240.229 52.2212 241.729 69.2831 241.729 87.3237Z" fill="#A9A9A9"/>
<path d="M22.8024 78.6296C22.8024 133.326 43.4774 181.671 77.2219 217.15C38.6198 181.104 14.5374 129.471 14.5374 70.439C14.5374 52.519 16.0159 35.5634 18.8277 19.6219C22.1855 18.1363 25.5787 16.718 29.011 15.3777C48.4592 7.77219 69.0881 2.52809 90.5502 0C92.4614 3.24787 94.5108 5.82205 95.3618 8.61961C71.4921 11.7717 48.6825 18.2852 27.4225 27.6671C27.3126 27.7168 27.2026 27.7629 27.0927 27.8125C24.281 43.754 22.8024 60.7096 22.8024 78.6296Z" fill="#A9A9A9"/>
<path d="M232.244 102.01C232.173 102.652 232.098 103.29 232.02 103.928C231.992 104.183 231.96 104.439 231.928 104.691C231.857 105.265 231.783 105.839 231.708 106.41C231.666 106.726 231.623 107.041 231.581 107.357C231.499 107.953 231.414 108.545 231.329 109.137C231.315 109.229 231.301 109.321 231.286 109.413C231.187 110.108 231.081 110.803 230.971 111.498C230.928 111.761 230.886 112.02 230.843 112.282C230.747 112.878 230.648 113.477 230.545 114.072C230.428 114.775 230.304 115.477 230.177 116.179C230.148 116.338 230.116 116.498 230.088 116.654C229.957 117.366 229.822 118.079 229.684 118.788C229.68 118.806 229.677 118.827 229.673 118.845C229.545 119.504 229.411 120.16 229.276 120.816C229.138 121.497 228.992 122.178 228.843 122.855C228.776 123.185 228.702 123.515 228.627 123.844C228.627 123.859 228.624 123.873 228.62 123.883C228.482 124.518 228.336 125.149 228.191 125.78C228.177 125.837 228.163 125.894 228.152 125.951C228.003 126.589 227.851 127.223 227.698 127.855C227.45 128.869 227.198 129.876 226.936 130.879C226.808 131.379 226.677 131.875 226.542 132.372C226.333 133.155 226.12 133.939 225.897 134.716C225.83 134.96 225.762 135.205 225.691 135.45C225.51 136.084 225.33 136.715 225.142 137.343C224.936 138.038 224.727 138.733 224.514 139.424C224.464 139.587 224.415 139.75 224.362 139.914C224.163 140.562 223.957 141.208 223.752 141.853C223.535 142.52 223.319 143.179 223.099 143.839C223.057 143.973 223.011 144.105 222.968 144.236C222.745 144.902 222.518 145.565 222.287 146.228C222.27 146.282 222.252 146.331 222.234 146.384C221.986 147.097 221.734 147.806 221.475 148.515C221.249 149.147 221.018 149.778 220.784 150.405C220.766 150.451 220.749 150.501 220.731 150.547C220.646 150.778 220.561 151.008 220.472 151.235C220.263 151.792 220.05 152.341 219.837 152.894C219.284 154.316 218.717 155.731 218.135 157.132C218.118 157.181 218.096 157.227 218.075 157.273C217.788 157.972 217.494 158.667 217.196 159.358C216.891 160.071 216.582 160.78 216.267 161.486C215.955 162.191 215.639 162.897 215.317 163.599C214.994 164.301 214.671 164.999 214.341 165.698C214.04 166.333 213.739 166.967 213.434 167.602C213.345 167.776 213.26 167.953 213.175 168.127C212.554 169.396 211.923 170.655 211.278 171.906C210.927 172.587 210.569 173.268 210.211 173.945C209.853 174.622 209.487 175.296 209.122 175.97C208.753 176.644 208.385 177.314 208.009 177.98C207.658 178.611 207.3 179.235 206.942 179.86C206.896 179.938 206.853 180.019 206.803 180.097C206.459 180.693 206.112 181.288 205.761 181.884C205.747 181.909 205.733 181.93 205.718 181.955C205.389 182.512 205.055 183.068 204.718 183.625C204.172 184.533 203.616 185.433 203.052 186.327C202.793 186.742 202.534 187.153 202.272 187.561C201.779 188.33 201.286 189.096 200.783 189.855C200.481 190.319 200.173 190.78 199.864 191.238C199.708 191.475 199.545 191.713 199.386 191.95C198.815 192.794 198.237 193.635 197.652 194.468C197.375 194.865 197.095 195.262 196.815 195.656C196.524 196.067 196.23 196.478 195.936 196.886C195.702 197.205 195.468 197.524 195.237 197.843C195.106 198.021 194.975 198.198 194.847 198.375C194.627 198.673 194.408 198.967 194.188 199.265C193.588 200.066 192.986 200.864 192.376 201.655C192.078 202.041 191.78 202.424 191.482 202.807C191.177 203.197 190.872 203.587 190.56 203.974C190.27 204.343 189.975 204.708 189.681 205.073C189.639 205.13 189.592 205.186 189.55 205.24C188.954 205.977 188.359 206.704 187.752 207.431C187.444 207.803 187.132 208.172 186.82 208.544C186.795 208.573 186.77 208.605 186.745 208.633C186.125 209.367 185.497 210.097 184.866 210.821C184.579 211.15 184.292 211.477 184.001 211.806C183.866 211.962 183.728 212.115 183.593 212.267C183.1 212.82 182.607 213.374 182.107 213.92C182.001 214.037 181.895 214.154 181.788 214.271C181.533 214.551 181.274 214.831 181.015 215.111C180.239 215.951 179.455 216.788 178.657 217.614C178.42 217.866 178.179 218.114 177.938 218.366C177.438 218.884 176.934 219.401 176.424 219.912C176.019 220.323 175.612 220.734 175.197 221.142C174.527 221.809 173.85 222.472 173.169 223.128C172.779 223.504 172.389 223.879 171.995 224.252C170.183 225.971 168.336 227.659 166.457 229.308C165.996 229.716 165.531 230.12 165.067 230.521C167.347 225.982 169.804 221.433 169.804 216.377C169.804 214.537 169.478 212.771 168.953 211.048C200.595 183.405 223.294 145.682 232.244 102.01Z" fill="#40001F"/>
<path d="M233.524 78.6296C233.524 86.5649 233.088 94.3619 232.244 102.01C223.294 145.682 200.595 183.405 168.953 211.048C166.794 203.945 161.262 197.577 161.262 189.834C161.262 180.895 170.513 169.712 170.513 158.373C170.513 154.199 167.893 150.274 165.56 145.803H148.434C150.455 148.746 154.529 155.894 154.529 159.245C154.465 163.336 152.366 167.51 150.31 172.215C147.849 177.842 145.307 183.66 145.307 189.834C145.307 204.14 153.568 207.321 153.568 216.182C153.568 219.352 152.589 222.082 151.309 224.777H151.306C148.859 229.918 145.307 234.917 145.307 242.572C145.307 243.516 145.363 244.455 145.466 245.395C145.055 245.668 144.644 245.941 144.232 246.207C140.963 248.348 137.627 250.391 134.226 252.337C132.78 248.866 131.517 245.317 131.517 242.572C131.517 240.353 132.024 238.215 132.794 236.119H132.797C135.18 229.623 140.059 223.504 140.059 216.377C140.059 206.952 131.517 199.457 131.517 189.834C131.517 183.593 136.024 176.261 138.743 168.542H122.185C121.671 169.733 121.114 170.956 120.565 172.215C118.104 177.842 115.562 183.66 115.562 189.834C115.562 204.14 123.82 207.321 123.82 216.182C123.82 221.387 121.185 225.404 118.895 230.021C117.125 233.577 115.562 237.491 115.562 242.572C115.562 244.696 115.845 246.813 116.303 248.887C116.26 248.862 116.221 248.838 116.179 248.809C115.629 248.469 115.083 248.129 114.537 247.781C114.487 247.749 114.438 247.717 114.384 247.682C113.909 247.384 113.434 247.079 112.963 246.771C110.906 245.444 108.878 244.079 106.878 242.675C106.417 242.353 105.956 242.03 105.499 241.704C105.474 241.686 105.446 241.665 105.421 241.647C104.907 241.282 104.396 240.909 103.886 240.537C103.765 240.452 103.645 240.363 103.52 240.271C103.098 239.963 102.677 239.651 102.255 239.335C102.155 239.264 102.056 239.19 101.957 239.115C103.141 233.694 106.743 228.659 108.74 223.266C109.559 221.046 110.108 218.77 110.108 216.377C110.108 206.952 101.567 199.457 101.567 189.834C101.567 180.895 110.817 169.712 110.817 158.373C110.817 154.199 108.197 150.274 105.864 145.803H88.7384C90.7559 148.746 94.8299 155.894 94.8299 159.245C94.7661 163.336 92.6706 167.51 90.614 172.215C88.1533 177.842 85.6111 183.66 85.6111 189.834C85.6111 200.691 90.3659 205.14 92.6564 210.526C93.3868 212.242 93.8655 214.047 93.8655 216.182C93.8655 220.983 91.6246 224.776 89.4759 228.96C89.1284 228.656 88.7845 228.351 88.4405 228.042C88.3838 227.989 88.3271 227.939 88.2703 227.886C87.9406 227.592 87.6108 227.294 87.2811 226.993C85.5543 225.422 83.8524 223.816 82.1824 222.181C81.7427 221.752 81.3066 221.323 80.874 220.89C80.8704 220.887 80.8669 220.883 80.8634 220.88C80.2925 220.242 79.7287 219.596 79.1721 218.947L79.165 218.94C54.2989 190.177 37.588 153.919 32.5815 113.211C32.5815 113.211 32.5779 113.207 32.5779 113.204C31.539 104.761 31.0036 96.1241 31.0036 87.3236C31.0036 69.4036 32.4822 52.4481 35.2939 36.5066C35.7797 36.2903 36.2619 36.0775 36.7512 35.8683C37.0278 35.7478 37.3044 35.6272 37.5809 35.5102C37.9922 35.3294 38.4 35.1557 38.8113 34.9819C40.5912 34.2231 42.3818 33.4892 44.183 32.7729C44.7822 32.5354 45.3815 32.2978 45.9807 32.0673C46.6934 31.7872 47.4096 31.5142 48.1294 31.2447C48.6187 31.0568 49.108 30.876 49.5973 30.6952C50.2001 30.4682 50.8064 30.2484 51.4163 30.0286C52.0226 29.8087 52.6289 29.5889 53.2388 29.3762C53.8486 29.1599 54.4585 28.9471 55.0719 28.7379C55.4123 28.6174 55.7562 28.5004 56.1001 28.3869C56.6036 28.2132 57.1107 28.043 57.6177 27.8763C59.9401 27.1034 62.2732 26.3658 64.624 25.6638C65.1452 25.5042 65.67 25.3518 66.1912 25.1993C66.8153 25.0149 67.4393 24.8341 68.0669 24.6568C69.3185 24.3022 70.5737 23.9548 71.836 23.6179C72.5664 23.4229 73.2968 23.2314 74.0308 23.0435C74.5626 22.9052 75.0945 22.7705 75.6263 22.6393C76.1511 22.5081 76.6759 22.3769 77.2006 22.2493C77.9488 22.0649 78.6934 21.8876 79.4415 21.7139C80.0727 21.5685 80.7038 21.4231 81.3349 21.2778C81.3527 21.2742 81.3704 21.2707 81.3881 21.2671C82.6398 20.987 83.8985 20.714 85.1572 20.4516C85.8628 20.2991 86.5684 20.1573 87.274 20.0155C87.8732 19.8985 88.4724 19.7779 89.0717 19.6645C91.0147 19.2886 92.9613 18.9376 94.915 18.6114C92.6316 27.6529 86.5152 30.8263 86.5152 42.5378C86.5152 42.9775 86.5258 43.4136 86.5471 43.8426H102.545C102.496 43.4065 102.471 42.9739 102.471 42.5378C102.471 33.9856 109.194 26.3127 111.179 16.4272C111.764 16.367 112.353 16.3102 112.941 16.2535C113.484 16.2039 114.03 16.1542 114.576 16.1081C115.374 16.0372 116.175 15.9698 116.976 15.9096C117.402 15.8741 117.827 15.8422 118.253 15.8138C118.806 15.7713 119.363 15.7323 119.916 15.6968C120.987 15.6259 122.054 15.5621 123.128 15.5053C123.699 15.4734 124.273 15.4451 124.848 15.4203C123.369 27.0644 115.849 29.5463 115.849 42.5378C115.849 42.9775 115.859 43.4136 115.881 43.8426H131.879C131.829 43.4065 131.805 42.9739 131.805 42.5378C131.805 33.6275 139.102 25.6709 140.736 15.1756C141.42 15.1862 142.108 15.2004 142.793 15.2181C143.303 15.2288 143.814 15.243 144.324 15.2571C144.846 15.2713 145.37 15.2891 145.892 15.3103C147.048 15.3493 148.203 15.399 149.356 15.4593C149.622 15.4699 149.891 15.4841 150.157 15.4983C150.593 15.5231 151.029 15.5479 151.462 15.5727C152.054 15.6082 152.646 15.6436 153.238 15.6826C153.802 15.7181 154.366 15.7571 154.93 15.7961C154.958 15.7996 154.986 15.7996 155.011 15.8032C153.419 27.1175 146.062 29.6917 146.062 42.5378C146.062 42.9775 146.072 43.4136 146.094 43.8426H162.092C162.042 43.4065 162.017 42.9739 162.017 42.5378C162.017 34.2692 168.3 26.8232 170.509 17.4058H170.513C171.077 17.4803 171.641 17.5583 172.204 17.6399C172.765 17.7179 173.328 17.7994 173.889 17.8845C174.435 17.9661 174.981 18.0476 175.527 18.1327C175.555 18.1363 175.587 18.1434 175.619 18.1469C176.725 18.3206 177.828 18.4979 178.927 18.6858C179.484 18.7816 180.044 18.8773 180.601 18.9766C181.157 19.0759 181.71 19.1752 182.267 19.278C182.271 19.2744 182.274 19.2744 182.274 19.278C182.827 19.3808 183.38 19.4836 183.93 19.5865C184.515 19.6999 185.1 19.8134 185.689 19.9268C186.178 20.0261 186.671 20.1254 187.16 20.2247C193.865 21.5969 200.471 23.235 206.97 25.1284C207.952 25.4156 208.931 25.7063 209.906 26.0042C209.938 26.0148 209.973 26.0255 210.005 26.0361C210.505 26.185 211.001 26.341 211.498 26.4935C212.069 26.6743 212.636 26.8516 213.203 27.036C213.703 27.1955 214.2 27.3551 214.696 27.5182C215.82 27.887 216.944 28.2628 218.064 28.6493C218.54 28.8088 219.018 28.9755 219.493 29.1421C219.873 29.2733 220.249 29.4081 220.624 29.5428C221.291 29.7768 221.958 30.0179 222.621 30.259C225.135 31.1774 227.631 32.1312 230.109 33.1275C232.35 47.5089 233.52 62.6881 233.52 78.6296H233.524Z" fill="#620030"/>
<path d="M168.953 211.048C169.478 212.771 169.804 214.536 169.804 216.377C169.804 221.433 167.347 225.982 165.067 230.521C163.127 232.194 161.152 233.829 159.149 235.424C158.748 235.747 158.348 236.062 157.943 236.378C157.135 237.013 156.323 237.637 155.508 238.257C155.1 238.566 154.689 238.878 154.277 239.183C153.969 239.417 153.657 239.647 153.345 239.874C153.068 240.08 152.788 240.285 152.508 240.488C151.423 241.282 150.327 242.062 149.225 242.835C148.402 243.409 147.576 243.976 146.746 244.537C146.321 244.824 145.895 245.111 145.466 245.395C145.363 244.455 145.307 243.516 145.307 242.572C145.307 234.917 148.859 229.918 151.306 224.78H151.309C152.589 222.082 153.568 219.352 153.568 216.182C153.568 207.321 145.307 204.14 145.307 189.834C145.307 183.66 147.849 177.842 150.31 172.215C152.366 167.51 154.465 163.336 154.529 159.245C154.529 155.894 150.455 148.746 148.434 145.803H165.56C167.893 150.274 170.513 154.199 170.513 158.373C170.513 169.712 161.262 180.895 161.262 189.834C161.262 197.577 166.794 203.945 168.953 211.048Z" fill="white"/>
<path d="M131.517 242.572C131.517 245.317 132.78 248.866 134.226 252.337C133.726 252.624 133.226 252.908 132.723 253.188C132.219 253.472 131.716 253.752 131.209 254.029C130.705 254.305 130.198 254.582 129.691 254.855C129.184 255.128 128.674 255.401 128.163 255.67C127.153 255.138 126.149 254.596 125.149 254.046C124.809 253.858 124.468 253.67 124.128 253.479C122.657 252.664 121.199 251.827 119.753 250.972C119.448 250.791 119.143 250.611 118.838 250.43C118.434 250.185 118.029 249.944 117.625 249.696C117.221 249.451 116.817 249.206 116.416 248.955C116.377 248.933 116.342 248.912 116.303 248.887C115.845 246.813 115.562 244.696 115.562 242.572C115.562 237.491 117.125 233.577 118.895 230.021C121.185 225.404 123.82 221.387 123.82 216.182C123.82 207.321 115.562 204.141 115.562 189.834C115.562 183.661 118.104 177.842 120.565 172.215C121.114 170.956 121.671 169.733 122.185 168.542H138.743C136.024 176.261 131.517 183.593 131.517 189.834C131.517 199.457 140.059 206.952 140.059 216.377C140.059 223.504 135.18 229.624 132.797 236.119H132.794C132.024 238.215 131.517 240.353 131.517 242.572Z" fill="white"/>
<path d="M101.567 189.834C101.567 199.457 110.108 206.952 110.108 216.377C110.108 218.77 109.559 221.046 108.74 223.266C106.743 228.659 103.141 233.694 101.957 239.115C99.9038 237.58 97.8828 236.006 95.8936 234.392C95.5249 234.098 95.1597 233.797 94.7945 233.492C94.4966 233.251 94.1988 233.006 93.9045 232.758C93.4542 232.386 93.0074 232.01 92.5607 231.63C92.5146 231.591 92.4685 231.552 92.4224 231.513C92.0359 231.187 91.6565 230.857 91.2736 230.528C91.0856 230.368 90.8977 230.205 90.7098 230.042C90.2985 229.684 89.8872 229.322 89.4794 228.96C91.6281 224.777 93.869 220.983 93.869 216.182C93.869 214.047 93.3904 212.242 92.6599 210.53C90.3694 205.14 85.6146 200.691 85.6146 189.834C85.6146 183.66 88.1569 177.842 90.6176 172.215C92.6741 167.51 94.7696 163.336 94.8335 159.245C94.8335 155.894 90.7594 148.746 88.7419 145.803H105.868C108.201 150.274 110.821 154.199 110.821 158.373C110.821 169.712 101.57 180.895 101.57 189.834H101.567Z" fill="white"/>
<path d="M111.183 16.4272C109.197 26.3127 102.474 33.9856 102.474 42.5378C102.474 42.9739 102.499 43.4065 102.549 43.8426H86.5507C86.5294 43.4136 86.5188 42.9775 86.5188 42.5378C86.5188 30.8263 92.6351 27.6529 94.9185 18.6114C95.4469 16.5301 95.7695 14.1403 95.7695 11.2647C95.7695 10.3463 95.6206 9.4741 95.3618 8.61959C100.581 7.93172 105.846 7.40341 111.161 7.04175C111.52 8.37848 111.729 9.71521 111.729 11.0768C111.729 12.9383 111.527 14.7147 111.183 16.4272Z" fill="white"/>
<path d="M140.74 15.1756C139.105 25.6709 131.808 33.6275 131.808 42.5378C131.808 42.974 131.833 43.4065 131.883 43.8427H115.884C115.863 43.4136 115.852 42.9775 115.852 42.5378C115.852 29.5464 123.373 27.0644 124.851 15.4203C125.014 14.1545 125.103 12.7752 125.103 11.2647C125.103 9.56987 124.6 8.03103 123.827 6.49219C125.38 6.46383 126.936 6.44965 128.496 6.44965C132.489 6.44965 136.456 6.54183 140.403 6.72621C140.821 8.16931 141.062 9.60887 141.062 11.0768C141.062 12.5447 140.945 13.8531 140.74 15.1756Z" fill="white"/>
<path d="M171.275 11.0768C171.275 13.2964 170.988 15.3955 170.517 17.4059H170.513C168.304 26.8233 162.021 34.2692 162.021 42.5378C162.021 42.974 162.046 43.4065 162.096 43.8427H146.097C146.076 43.4136 146.065 42.9775 146.065 42.5378C146.065 29.6917 153.423 27.1176 155.015 15.8032C155.206 14.431 155.316 12.9276 155.316 11.2647C155.316 10.045 155.057 8.91035 154.621 7.79346C160.216 8.37495 165.758 9.13728 171.236 10.0804C171.261 10.4102 171.275 10.7435 171.275 11.0768Z" fill="white"/>
<path d="M101.113 210.824C101.113 204.041 108.314 197.258 117.097 192.457C124.149 188.603 131.929 186.816 139.641 186.816C149.71 186.816 155.625 191.383 155.625 197.12C155.625 202.857 151.487 208.519 143.683 213.654C136.793 218.189 126.933 221.887 117.271 221.887C107.609 221.887 101.109 217.026 101.109 210.821L101.113 210.824Z" fill="#A9A9A9"/>
<path d="M117.274 223.486C106.985 223.486 99.5173 218.16 99.5173 210.824C99.5173 204.105 105.648 196.9 116.331 191.057C123.316 187.238 131.376 185.221 139.641 185.221C144.771 185.221 149.15 186.355 152.306 188.497C155.476 190.649 157.22 193.713 157.22 197.12C157.22 203.357 152.841 209.537 144.562 214.987C136.481 220.305 126.277 223.482 117.274 223.482V223.486ZM139.641 188.415C131.911 188.415 124.38 190.298 117.863 193.861C108.375 199.049 102.708 205.392 102.708 210.828C102.708 216.263 108.97 220.298 117.274 220.298C125.578 220.298 135.226 217.32 142.807 212.328C150.044 207.566 154.029 202.166 154.029 197.127C154.029 192.089 148.111 188.419 139.641 188.419V188.415Z" fill="#620030"/>
<path d="M119.221 206.537L118.732 211.051L117.795 211.391L114.53 208.246L116.133 212.65L114.572 213.218L112.03 206.229L114.14 205.463L117.331 208.647L117.749 204.151L119.848 203.389L122.391 210.377L120.831 210.945L119.228 206.541L119.221 206.537Z" fill="#620030"/>
<path d="M128.248 203.254L127.755 207.768L126.819 208.108L123.554 204.963L125.156 209.367L123.593 209.934L121.05 202.946L123.16 202.18L126.351 205.364L126.77 200.868L128.869 200.105L131.411 207.094L129.851 207.661L128.248 203.258V203.254Z" fill="#620030"/>
<path d="M133.999 198.23L135.882 197.546L134.932 201.705L138.602 204.47L136.708 205.158L134.375 203.399L133.74 206.24L131.858 206.924L132.907 202.485L129.482 199.875L131.347 199.198L133.428 200.783L134.003 198.23H133.999Z" fill="#620030"/>
<path d="M140.442 195.886L142.325 195.202L141.374 199.361L145.044 202.127L143.151 202.814L140.818 201.056L140.183 203.896L138.3 204.58L139.35 200.141L135.925 197.531L137.79 196.854L139.871 198.439L140.445 195.886H140.442Z" fill="#620030"/>
<path d="M91.7806 96.4964L94.8689 119.873H85.2636L83.4163 105.9H73.7082L71.8289 119.873H62.2555L65.3438 96.5956L72.0629 53.9727H85.0934L91.7771 96.4928L91.7806 96.4964ZM82.1753 96.4964L78.548 69.0881L74.9208 96.4964H82.1753Z" fill="white"/>
<path d="M127.216 107.077C127.216 116.303 122.66 120.926 113.548 120.948C104.457 120.948 99.9109 116.324 99.9109 107.077V66.7727C99.9109 57.5468 104.457 52.9338 113.548 52.9338C122.639 52.9338 127.216 57.5468 127.216 66.7727V75.6405H117.71V66.7727C117.71 63.8156 116.335 62.3264 113.58 62.3051H113.512C110.779 62.3051 109.413 63.7943 109.413 66.7727V107.077C109.413 110.055 110.789 111.544 113.544 111.544C116.299 111.544 117.71 110.055 117.71 107.077V98.209H127.216V107.077Z" fill="white"/>
<path d="M134.939 119.873V53.9763H144.445V110.502H159.592V119.873H134.939Z" fill="white"/>
<path d="M165.304 53.9763H179.143C187.586 53.9975 191.805 58.6211 191.805 67.8471V77.7538C191.805 83.5545 189.309 87.3697 184.316 89.2064L194.996 119.873H184.582L176.016 90.8871L174.807 91.0537V119.873H165.301V53.9763H165.304ZM174.807 63.3476V82.2249H176.991C178.314 82.2249 179.218 82.1363 179.711 81.9554C181.434 81.2605 182.295 79.8635 182.295 77.7573V67.8506C182.295 64.8509 180.92 63.3511 178.165 63.3511H174.807V63.3476Z" fill="white"/>
<path d="M66.6345 134.496C67.5599 134.496 68.3151 134.131 68.8966 133.4L70.1093 134.638C69.1519 135.712 68.0244 136.251 66.7231 136.251C65.4218 136.251 64.3546 135.84 63.5143 135.021C62.6739 134.201 62.2555 133.166 62.2555 131.918C62.2555 130.67 62.6846 129.627 63.5391 128.791C64.3936 127.954 65.4431 127.536 66.6841 127.536C68.0669 127.536 69.2228 128.06 70.1554 129.113L68.9782 130.443C68.3825 129.705 67.645 129.333 66.7657 129.326C66.0601 129.326 65.4538 129.557 64.9538 130.021C64.4503 130.486 64.2021 131.11 64.2021 131.893C64.2021 132.677 64.4397 133.308 64.9148 133.783C65.3899 134.258 65.9643 134.496 66.638 134.496H66.6345Z" fill="white"/>
<path d="M78.6721 134.989C77.8212 135.822 76.7716 136.237 75.5236 136.237C74.2755 136.237 73.2259 135.822 72.375 134.989C71.524 134.155 71.0985 133.124 71.0985 131.886C71.0985 130.649 71.524 129.617 72.375 128.784C73.2259 127.95 74.2755 127.536 75.5236 127.536C76.7716 127.536 77.8212 127.95 78.6721 128.784C79.5231 129.617 79.9486 130.649 79.9486 131.886C79.9486 133.124 79.5231 134.155 78.6721 134.989ZM74.513 126.89H73.0309L74.396 124.983H76.644L78.0091 126.89H76.527L75.5129 125.912L74.513 126.89ZM78.0304 131.893C78.0304 131.142 77.7893 130.5 77.307 129.968C76.8248 129.436 76.2327 129.174 75.5306 129.174C74.8286 129.174 74.2365 129.44 73.7542 129.968C73.272 130.496 73.0309 131.138 73.0309 131.893C73.0309 132.648 73.272 133.287 73.7542 133.811C74.2365 134.336 74.8286 134.599 75.5306 134.599C76.2327 134.599 76.8248 134.336 77.307 133.811C77.7893 133.287 78.0304 132.645 78.0304 131.893Z" fill="white"/>
<path d="M85.097 129.351V136.155H83.2142V129.351H80.835V127.727H87.4868V129.351H85.097Z" fill="white"/>
<path d="M94.9257 127.727V129.411H90.7346V131.141H94.5002V132.744H90.7346V134.499H95.0569V136.159H88.8519V127.731H94.9257V127.727Z" fill="white"/>
<path d="M99.9074 136.155V127.727H101.79V134.485H105.382V136.155H99.9074Z" fill="white"/>
<path d="M112.75 136.155L111.963 134.329H108.431L107.655 136.155H105.655L109.293 127.727H111.119L114.757 136.155H112.757H112.75ZM110.208 130.234L109.147 132.684H111.254L110.204 130.234H110.208Z" fill="white"/>
<path d="M121.614 127.727H123.497V136.155H121.614L117.6 130.868V136.155H115.718V127.727H117.483L121.614 133.155V127.727Z" fill="white"/>
<path d="M131.992 128.833C132.797 129.571 133.198 130.592 133.198 131.9C133.198 133.209 132.808 134.244 132.028 135.01C131.248 135.776 130.053 136.159 128.443 136.159H125.561V127.731H128.539C130.039 127.731 131.191 128.099 131.996 128.837L131.992 128.833ZM130.62 133.84C131.085 133.404 131.315 132.773 131.315 131.943C131.315 131.113 131.085 130.478 130.62 130.028C130.156 129.581 129.447 129.358 128.489 129.358H127.44V134.492H128.628C129.489 134.492 130.152 134.276 130.617 133.84H130.62Z" fill="white"/>
<path d="M140.899 127.727V129.411H136.708V131.141H140.474V132.744H136.708V134.499H141.03V136.159H134.826V127.731H140.899V127.727Z" fill="white"/>
<path d="M144.672 129.408C144.488 129.557 144.395 129.752 144.395 129.996C144.395 130.241 144.509 130.432 144.732 130.578C144.956 130.723 145.47 130.897 146.267 131.095C147.065 131.294 147.689 131.592 148.129 131.985C148.569 132.379 148.788 132.95 148.788 133.705C148.788 134.46 148.505 135.07 147.941 135.542C147.377 136.013 146.629 136.247 145.704 136.247C144.371 136.247 143.169 135.754 142.101 134.765L143.218 133.4C144.129 134.194 144.97 134.588 145.739 134.588C146.083 134.588 146.356 134.513 146.551 134.365C146.746 134.216 146.845 134.014 146.845 133.758C146.845 133.503 146.743 133.304 146.533 133.159C146.324 133.014 145.913 132.865 145.292 132.705C144.31 132.471 143.594 132.166 143.144 131.794C142.693 131.422 142.466 130.833 142.466 130.035C142.466 129.237 142.754 128.617 143.325 128.188C143.899 127.755 144.615 127.539 145.48 127.539C146.044 127.539 146.608 127.635 147.168 127.826C147.728 128.018 148.218 128.291 148.632 128.645L147.679 130.021C146.948 129.464 146.189 129.184 145.406 129.184C145.101 129.184 144.853 129.259 144.668 129.408H144.672Z" fill="white"/>
<path d="M160.408 130.528C160.408 131.879 159.869 132.748 158.794 133.141L160.936 136.155H158.617L156.745 133.471H155.451V136.155H153.568V127.727H156.759C158.071 127.727 159.007 127.95 159.567 128.394C160.128 128.837 160.408 129.549 160.408 130.532V130.528ZM158.135 131.521C158.369 131.312 158.49 130.982 158.49 130.525C158.49 130.067 158.369 129.759 158.124 129.588C157.88 129.418 157.461 129.337 156.866 129.337H155.454V131.833H156.83C157.465 131.833 157.901 131.73 158.139 131.521H158.135Z" fill="white"/>
<path d="M164.556 133.978C164.865 134.372 165.287 134.567 165.822 134.567C166.357 134.567 166.776 134.372 167.081 133.985C167.386 133.599 167.538 133.06 167.538 132.379V127.727H169.421V132.446C169.421 133.67 169.084 134.609 168.407 135.262C167.733 135.914 166.868 136.24 165.819 136.24C164.769 136.24 163.9 135.91 163.223 135.251C162.542 134.591 162.205 133.659 162.205 132.45V127.731H164.088V132.382C164.088 133.056 164.244 133.592 164.553 133.985L164.556 133.978Z" fill="white"/>
<path d="M174.463 132.975V131.372H178.75V134.843C177.916 135.776 176.761 136.244 175.278 136.244C174.037 136.244 172.999 135.832 172.158 135.013C171.318 134.194 170.9 133.159 170.9 131.911C170.9 130.663 171.329 129.62 172.183 128.784C173.038 127.947 174.069 127.528 175.278 127.528C176.488 127.528 177.541 127.926 178.434 128.716L177.456 130.127C177.08 129.798 176.732 129.571 176.413 129.443C176.094 129.319 175.75 129.255 175.381 129.255C174.669 129.255 174.066 129.5 173.573 129.986C173.084 130.471 172.835 131.113 172.835 131.911C172.835 132.709 173.069 133.347 173.541 133.826C174.013 134.304 174.573 134.545 175.225 134.545C175.878 134.545 176.417 134.421 176.849 134.17V132.968H174.459L174.463 132.975Z" fill="white"/>
<path d="M183.586 136.155H180.253V127.727H183.242C183.721 127.727 184.136 127.794 184.49 127.933C184.845 128.071 185.121 128.255 185.327 128.493C185.703 128.925 185.894 129.415 185.905 129.964C185.905 130.624 185.689 131.113 185.256 131.436C185.114 131.546 185.015 131.613 184.962 131.641C184.905 131.67 184.816 131.716 184.692 131.776C185.196 131.886 185.6 132.12 185.905 132.482C186.21 132.843 186.362 133.287 186.362 133.811C186.362 134.4 186.164 134.918 185.763 135.364C185.292 135.889 184.565 136.152 183.586 136.152V136.155ZM182.068 131.138H182.82C183.26 131.138 183.586 131.081 183.799 130.968C184.012 130.854 184.118 130.61 184.118 130.237C184.118 129.865 184.019 129.617 183.817 129.496C183.618 129.376 183.288 129.315 182.834 129.315H182.068V131.141V131.138ZM182.068 134.567H183.15C183.604 134.567 183.944 134.499 184.168 134.368C184.391 134.233 184.504 133.975 184.504 133.584C184.504 133.194 184.384 132.939 184.146 132.815C183.905 132.691 183.526 132.627 182.997 132.627H182.068V134.57V134.567Z" fill="white"/>
<path d="M191.227 136.155H189.355V132.822L186.437 127.723H188.472L190.284 130.854L192.11 127.723H194.145L191.227 132.822V136.155Z" fill="white"/>
</svg>
