<svg width="256" height="256" viewBox="0 0 256 256" fill="none" xmlns="http://www.w3.org/2000/svg">
<path d="M127.767 64.6031L1.20605 128.034L127.767 191.465L254.327 128.034L127.767 64.6031Z" fill="white"/>
<path fill-rule="evenodd" clip-rule="evenodd" d="M127.767 64.2849L254.962 128.034L127.767 191.783L0.571289 128.034L127.767 64.2849ZM1.84094 128.034L127.767 191.147L253.693 128.034L127.767 64.9212L1.84094 128.034Z" fill="black"/>
<path d="M202.632 105.25H52.9009L127.767 67.7262L202.632 105.25Z" fill="#8742D1"/>
<path d="M73.29 118.932L77.238 127.169H75.264L72.2261 120.809H63.6928L60.9394 127.169H9.16479L47.781 107.816H69.3134L64.5063 118.932H73.29Z" fill="#1F9E33"/>
<path d="M85.47 107.816H123.165C117.498 110.074 113.437 114.631 113.437 120.468C113.437 123.096 114.165 125.338 115.291 127.169H93.0931L85.47 107.816Z" fill="#1F9E33"/>
<path d="M142.666 107.816H158.845V127.169H143.542C140.8 124.678 137.318 123.472 135.418 123.159C135.225 123.13 135.032 123.096 134.838 123.056L132.534 127.169H129.69L132.392 122.448C130.458 121.805 129.115 120.872 129.03 119.592C128.916 117.902 129.656 116.582 131.851 116.582C134.047 116.582 139.992 119.592 141.181 120.03L146.443 109.881C145.3 109.17 144.202 108.436 142.666 107.816Z" fill="#1F9E33"/>
<path d="M184.394 120.058C184.394 122.345 183.518 123.631 181.982 123.847H177.255V127.169H175.189V107.816H177.255V116.582H181.265C182.704 116.867 184.394 118.181 184.394 120.058Z" fill="#1F9E33"/>
<path d="M198.207 118.056C198.207 112.515 194.446 108.567 192.284 107.816H207.753L246.369 127.169H193.684C196.039 125.383 198.207 121.981 198.207 118.056Z" fill="#1F9E33"/>
<path d="M59.8301 129.735L51.4618 149.089H49.4479L10.8374 129.735H59.8301Z" fill="#8742D1"/>
<path d="M79.1781 129.735L87.2563 149.089H66.2131L68.5114 144.105H82.1819L77.8867 133.564H73.3698L75.139 129.735H79.1781Z" fill="#8742D1"/>
<path d="M131.351 136.937C131.351 138.57 130.344 139.759 128.529 139.759C126.714 139.759 118.386 137.062 117.066 136.562C116.753 137.125 111.434 146.46 111.434 146.46C112.566 147.393 114.057 148.366 116.867 149.089H101.723L94.1001 129.735H117.356C119.797 132.102 122.857 133.308 124.962 133.308C125.372 133.308 125.764 133.336 126.14 133.382L128.228 129.735H131.095L128.654 134.087C130.384 134.895 131.351 136.141 131.351 136.937Z" fill="#8742D1"/>
<path d="M145.727 129.735H158.845V149.089H137.358C143.935 147.075 147.507 142.427 147.507 135.999C147.507 133.501 146.808 131.436 145.727 129.735Z" fill="#8742D1"/>
<path d="M184.587 135.623C184.587 137.91 183.711 139.19 182.175 139.412H177.255V149.089H175.189V129.735H177.255V132.147H181.459C182.898 132.426 184.587 133.746 184.587 135.623Z" fill="#8742D1"/>
<path d="M244.696 129.735L206.086 149.089H192.194C196.329 147.837 199.805 143.514 199.805 137.409C199.805 133.444 198.468 131.1 196.711 129.735H244.696Z" fill="#8742D1"/>
<path d="M200.966 151.654L127.767 188.342L54.5679 151.654H200.966Z" fill="#1F9E33"/>
</svg>
