<svg width="256" height="256" viewBox="0 0 256 256" fill="none" xmlns="http://www.w3.org/2000/svg">
<path d="M194.436 0.387939H128.155H61.8667L19.8517 54.9547L128.155 254.526L236.451 54.9547L194.436 0.387939Z" fill="#FF7900"/>
<path d="M128.155 255.341L19.3939 54.9159L61.6805 0H194.63L194.746 0.147394L236.916 54.9159L236.792 55.1409L128.155 255.341ZM20.3171 54.9935L128.155 253.719L235.993 54.9935L194.25 0.775758H62.0606L20.3171 54.9935Z" fill="black"/>
<path d="M231.688 55.3348L212.317 30.1692L212.302 30.1537L192.59 4.54595L192.473 4.39856H63.8449L44.1173 30.0218L24.6226 55.3348L61.1685 122.686L105.914 205.149L128.155 246.125L217.569 81.3537L231.688 55.3348ZM217.104 80.578H39.2068L25.5457 55.4046L44.4975 30.7976H211.813L230.765 55.4046L217.104 80.578ZM195.134 9.13844L211.216 30.0218H195.134V9.13844ZM150.388 30.0218H105.914V5.17432H150.388V30.0218ZM61.1685 9.13844V30.0218H45.087L61.1685 9.13844ZM39.6257 81.3537H61.1685V121.057L39.6257 81.3537ZM105.914 203.512V81.3537H150.388V203.512L128.147 244.488L105.906 203.512H105.914ZM195.134 121.057V81.3537H216.677L195.134 121.057Z" fill="black"/>
<path d="M90.7016 46.111L95.1854 59.1593H86.2022L90.7093 46.111H90.7016ZM225.994 55.7847L214.714 76.5673H41.5884L30.3088 55.7847L46.4601 34.8082H209.827L225.978 55.7847H225.994ZM107.877 71.2223L95.7285 38.4233H85.6436L73.4953 71.2223H81.9976L84.0844 65.249H97.311L99.3745 71.2223H107.877ZM140.086 61.1374C140.086 58.3835 139.318 56.2579 137.782 54.7685C136.246 53.279 133.655 52.1619 130.001 51.4327L126.394 50.7113C124.68 50.3622 123.501 49.9355 122.849 49.4468C122.197 48.958 121.872 48.2676 121.872 47.391C121.872 46.2196 122.352 45.3585 123.322 44.8C124.292 44.2414 125.781 43.9622 127.806 43.9622C129.327 43.9622 130.948 44.1639 132.662 44.575C134.377 44.9862 136.13 45.5913 137.937 46.398V39.455C135.905 38.912 133.935 38.5086 132.026 38.2371C130.118 37.9656 128.272 37.8337 126.464 37.8337C122.508 37.8337 119.474 38.7103 117.372 40.4713C115.27 42.2322 114.207 44.7379 114.207 48.0039C114.207 50.6104 114.967 52.6817 116.48 54.2177C117.993 55.7537 120.398 56.8785 123.671 57.5767L126.945 58.2982C128.939 58.7404 130.265 59.2368 130.932 59.7954C131.599 60.3539 131.933 61.1452 131.933 62.1692C131.933 63.3096 131.444 64.1939 130.459 64.8068C129.482 65.4196 128.062 65.7299 126.216 65.7299C124.369 65.7299 122.515 65.4507 120.56 64.8844C118.606 64.318 116.581 63.4802 114.486 62.3709V69.5079C116.581 70.2836 118.675 70.8732 120.77 71.2688C122.864 71.6645 124.951 71.8584 127.03 71.8584C131.437 71.8584 134.718 70.974 136.859 69.2131C139.008 67.4521 140.079 64.7602 140.079 61.1374H140.086ZM186.888 38.4233H176.143L168.626 55.9787L161.156 38.4233H150.388V71.2223H158.41V47.2281L165.966 64.9154H171.326L178.882 47.2281V71.2223H186.88V38.4233H186.888Z" fill="black"/>
</svg>
