<svg width="256" height="256" viewBox="0 0 256 256" fill="none" xmlns="http://www.w3.org/2000/svg">
<path d="M186.099 0H70.0623L31.4768 69.9144L128.084 256L224.691 69.9144L186.099 0Z" fill="#0202C6"/>
<path d="M145.895 101.756V206.376L128.084 240.683L110.272 206.376V101.756H145.895Z" fill="white"/>
<path d="M145.895 7.05804H110.272V36.8026H145.895V7.05804Z" fill="white"/>
<path d="M198.353 36.8026H181.998V7.1701L198.353 36.8026Z" fill="white"/>
<path d="M200.207 101.756L181.998 136.835V101.756H200.207Z" fill="white"/>
<path d="M74.1698 7.1701V36.8026H57.8145L74.1698 7.1701Z" fill="white"/>
<path d="M74.1698 101.756V136.835L55.9599 101.756H74.1698Z" fill="white"/>
<path d="M98.1612 83.3707L95.9581 76.1757H84.955L82.7519 83.3707H75.8563L86.5234 53.0224H94.3525L105.057 83.3707H98.1612ZM94.4396 70.7982L92.2365 63.7713C92.0934 63.292 91.9129 62.6883 91.6888 61.9539C91.4648 61.2194 91.2345 60.4725 91.0105 59.7132C90.7864 58.9539 90.5997 58.2879 90.4628 57.7215C90.3197 58.2879 90.133 58.985 89.8903 59.819C89.6475 60.653 89.4235 61.4435 89.2119 62.1904C89.0003 62.9373 88.8385 63.4663 88.7265 63.7775L86.5669 70.8044H94.4396V70.7982Z" fill="white"/>
<path d="M107.472 80.408C107.472 79.1135 107.826 78.1985 108.53 77.6757C109.233 77.1529 110.098 76.8915 111.112 76.8915C112.127 76.8915 112.948 77.1529 113.651 77.6757C114.355 78.1985 114.709 79.1072 114.709 80.408C114.709 81.7089 114.355 82.5429 113.651 83.0968C112.948 83.6445 112.102 83.9246 111.112 83.9246C110.123 83.9246 109.233 83.6508 108.53 83.0968C107.826 82.5491 107.472 81.6529 107.472 80.408Z" fill="white"/>
<path d="M138.744 74.9869C138.744 77.6695 137.78 79.8043 135.844 81.3977C133.909 82.991 131.171 83.7877 127.611 83.7877C124.424 83.7877 121.574 83.184 119.06 81.9703V76.0015C120.497 76.6239 121.985 77.1965 123.522 77.7131C125.059 78.2359 126.59 78.4973 128.115 78.4973C129.64 78.4973 130.816 78.1923 131.482 77.5886C132.141 76.9848 132.477 76.2131 132.477 75.2795C132.477 74.5201 132.216 73.8666 131.693 73.3313C131.171 72.7961 130.473 72.2919 129.596 71.8314C128.725 71.3646 127.723 70.8666 126.59 70.3314C125.887 69.9953 125.121 69.5907 124.306 69.1239C123.491 68.6571 122.707 68.0783 121.96 67.3874C121.213 66.6965 120.597 65.8563 120.118 64.8667C119.638 63.8771 119.396 62.6945 119.396 61.3128C119.396 58.6053 120.311 56.4954 122.146 54.9829C123.982 53.4767 126.478 52.7174 129.64 52.7174C131.22 52.7174 132.714 52.9041 134.127 53.2651C135.539 53.6323 137.033 54.1552 138.614 54.8336L136.541 59.8252C135.16 59.2589 133.921 58.8232 132.82 58.512C131.718 58.2008 130.592 58.0452 129.434 58.0452C128.277 58.0452 127.287 58.3252 126.64 58.8916C125.993 59.458 125.669 60.1925 125.669 61.0949C125.669 62.1655 126.148 63.0119 127.107 63.6343C128.065 64.2567 129.49 65.0161 131.382 65.9185C132.932 66.653 134.251 67.4123 135.34 68.2028C136.423 68.9932 137.263 69.9268 137.861 70.9973C138.452 72.0679 138.751 73.3936 138.751 74.9745L138.744 74.9869Z" fill="white"/>
<path d="M142.852 80.408C142.852 79.1135 143.207 78.1985 143.91 77.6757C144.613 77.1529 145.478 76.8915 146.493 76.8915C147.507 76.8915 148.329 77.1529 149.032 77.6757C149.735 78.1985 150.09 79.1072 150.09 80.408C150.09 81.7089 149.735 82.5429 149.032 83.0968C148.329 83.6445 147.482 83.9246 146.493 83.9246C145.503 83.9246 144.619 83.6508 143.91 83.0968C143.207 82.5491 142.852 81.6529 142.852 80.408Z" fill="white"/>
<path d="M183.093 83.3707H174.965L161.802 60.5161H161.634C161.69 61.9538 161.753 63.3916 161.827 64.8356C161.896 66.2733 161.958 67.7111 162.02 69.155V83.3769H156.307V53.1593H164.391L177.51 75.8023H177.635C177.579 74.4205 177.523 73.0388 177.467 71.6571C177.411 70.2753 177.367 68.8812 177.342 67.4683V53.1655H183.099V83.3831L183.093 83.3707Z" fill="white"/>
</svg>
