<svg width="256" height="256" viewBox="0 0 256 256" fill="none" xmlns="http://www.w3.org/2000/svg">
<path d="M27.1714 73.07L74.9746 0H180.698L228.501 73.07L127.838 256L27.1714 73.07Z" fill="white"/>
<path d="M177.198 6.4749H78.475L34.7162 73.3555L127.838 242.574L220.956 73.3555L177.198 6.4749Z" fill="#0232B8"/>
<path d="M213.412 73.6448L195.784 46.706H127.838V97.4964H200.285L213.412 73.6448Z" fill="white"/>
<path d="M127.838 103.968V229.153L196.724 103.968H127.838Z" fill="white"/>
<path d="M191.549 40.2311L173.701 12.9498H127.838V40.2311H191.549Z" fill="white"/>
<path d="M42.2611 73.6448L55.3876 97.4964H200.285L213.411 73.6448L195.784 46.706H59.8887L42.2611 73.6448Z" fill="white"/>
<path d="M71.6112 51.0378H75.4883L92.7734 92.2967H87.1233L81.9868 80.1387H65.5426L60.7257 92.2967H55.0528L71.6112 51.0378ZM79.7192 74.9123L73.4984 60.0517L67.7303 74.9123H79.7154H79.7192Z" fill="#0232B8"/>
<path d="M107.334 75.1103L103.141 72.4C100.512 70.6909 98.6403 69.0084 97.5255 67.3526C96.4107 65.6968 95.8552 63.7935 95.8552 61.639C95.8552 58.4073 96.9091 55.7846 99.0132 53.7671C101.121 51.7497 103.857 50.7409 107.22 50.7409C110.584 50.7409 113.391 51.704 116.078 53.6263V60.2915C113.3 57.448 110.31 56.0244 107.11 56.0244C105.306 56.0244 103.826 56.4697 102.666 57.3567C101.505 58.2436 100.927 59.3779 100.927 60.7635C100.927 61.993 101.353 63.1426 102.209 64.216C103.061 65.2895 104.435 66.4162 106.326 67.5962L110.542 70.2494C115.244 73.2375 117.596 77.044 117.596 81.6613C117.596 84.9501 116.561 87.6223 114.491 89.6778C112.421 91.7334 109.731 92.7611 106.421 92.7611C102.613 92.7611 99.1464 91.5164 96.0188 89.0231V81.5623C98.998 85.582 102.449 87.5881 106.364 87.5881C108.091 87.5881 109.533 87.0742 110.682 86.0502C111.831 85.0263 112.406 83.7435 112.406 82.2018C112.406 79.7048 110.713 77.3371 107.33 75.0951L107.334 75.1103Z" fill="#0232B8"/>
<path d="M124.155 92.2967V51.2129H136.38C140.059 51.2129 142.993 52.2712 145.18 54.3838C147.368 56.4964 148.464 59.3361 148.464 62.899C148.464 65.2895 147.905 67.4021 146.782 69.2406C145.66 71.0792 144.123 72.4191 142.175 73.2489C140.227 74.0825 137.43 74.4974 133.789 74.4974H129.706V92.2929H124.159L124.155 92.2967ZM135.414 56.4431H129.703V69.2749H135.745C137.989 69.2749 139.717 68.7115 140.93 67.5848C142.144 66.4581 142.753 64.8479 142.753 62.7543C142.753 58.5443 140.307 56.4393 135.414 56.4393V56.4431Z" fill="#0232B8"/>
<path d="M163.603 75.1103L159.41 72.4C156.781 70.6909 154.909 69.0084 153.794 67.3526C152.68 65.6968 152.124 63.7935 152.124 61.639C152.124 58.4073 153.178 55.7846 155.282 53.7671C157.39 51.7497 160.126 50.7409 163.489 50.7409C166.852 50.7409 169.66 51.704 172.347 53.6263V60.2915C169.569 57.448 166.578 56.0244 163.379 56.0244C161.575 56.0244 160.095 56.4697 158.935 57.3567C157.774 58.2436 157.196 59.3779 157.196 60.7635C157.196 61.993 157.622 63.1426 158.478 64.216C159.33 65.2895 160.704 66.4162 162.595 67.5962L166.811 70.2494C171.513 73.2375 173.865 77.044 173.865 81.6613C173.865 84.9501 172.83 87.6223 170.76 89.6778C168.69 91.7334 166 92.7611 162.69 92.7611C158.881 92.7611 155.415 91.5164 152.288 89.0231V81.5623C155.267 85.582 158.718 87.5881 162.637 87.5881C164.364 87.5881 165.806 87.0742 166.955 86.0502C168.104 85.0263 168.679 83.7435 168.679 82.2018C168.679 79.7048 166.986 77.3371 163.603 75.0951V75.1103Z" fill="#0232B8"/>
<path d="M190.275 75.1103L186.082 72.4C183.453 70.6909 181.581 69.0084 180.466 67.3526C179.351 65.6968 178.796 63.7935 178.796 61.639C178.796 58.4073 179.85 55.7846 181.954 53.7671C184.061 51.7497 186.797 50.7409 190.161 50.7409C193.524 50.7409 196.332 51.704 199.018 53.6263V60.2915C196.241 57.448 193.25 56.0244 190.05 56.0244C188.247 56.0244 186.767 56.4697 185.606 57.3567C184.446 58.2436 183.867 59.3779 183.867 60.7635C183.867 61.993 184.294 63.1426 185.15 64.216C186.002 65.2895 187.375 66.4162 189.266 67.5962L193.482 70.2494C198.185 73.2375 200.536 77.044 200.536 81.6613C200.536 84.9501 199.501 87.6223 197.431 89.6778C195.362 91.7334 192.672 92.7611 189.362 92.7611C185.553 92.7611 182.087 91.5164 178.959 89.0231V81.5623C181.938 85.582 185.389 87.5881 189.308 87.5881C191.036 87.5881 192.478 87.0742 193.627 86.0502C194.776 85.0263 195.35 83.7435 195.35 82.2018C195.35 79.7048 193.657 77.3371 190.275 75.0951V75.1103Z" fill="#0232B8"/>
<path d="M108.103 146.357L99.5421 115.81H107.627L112.239 133.7L116.899 115.81H124.935L116.374 146.357L125.886 180.806H117.851L112.239 159.489L106.627 180.806H98.5909L108.103 146.357Z" fill="white"/>
<path d="M131.099 115.81H139.313L144.808 149.307H144.91L150.089 115.81H158.303L147.988 181.187H141.939L131.099 115.81Z" fill="#0232B8"/>
</svg>
