<svg width="256" height="256" viewBox="0 0 256 256" fill="none" xmlns="http://www.w3.org/2000/svg">
<mask id="mask0_3142_218" style="mask-type:luminance" maskUnits="userSpaceOnUse" x="18" y="1" width="220" height="255">
<path d="M237.591 82.3309C237.605 111.264 235.24 133.719 225.584 154.731C213.08 181.932 197.014 206.746 174.839 227.196C162.248 238.802 148.179 248.136 132.113 254.347C129.322 255.429 126.971 255.357 124.252 254.282C100.989 245.085 82.074 230.081 66.1228 211.074C50.4672 192.413 37.9557 171.798 28.6389 149.314C23.0934 135.933 20.8219 121.737 19.5816 107.376C18.1682 91.0734 18.7451 74.793 20.4109 58.5558C21.132 51.5445 22.1343 44.5403 23.4612 37.6156C24.5717 31.8088 27.9682 27.7117 33.5208 24.9706C58.3563 12.7008 84.4969 5.04022 112.015 2.19096C132.726 0.0413904 153.141 2.39293 173.296 7.24028C190.574 11.3952 207.102 17.6347 223.161 25.2303C228.909 27.9497 232.024 32.4797 233.048 38.4379C235.904 54.9708 237.714 71.6191 237.598 82.3309H237.591Z" fill="white"/>
</mask>
<g mask="url(#mask0_3142_218)">
<path d="M237.591 82.3309C237.605 111.264 235.24 133.719 225.584 154.731C213.08 181.932 197.014 206.746 174.839 227.196C162.248 238.802 148.179 248.136 132.113 254.347C129.322 255.429 126.971 255.357 124.252 254.282C100.989 245.085 82.074 230.081 66.1228 211.074C50.4672 192.413 37.9557 171.798 28.6389 149.314C23.0934 135.933 20.8219 121.737 19.5816 107.376C18.1682 91.0734 18.7451 74.793 20.4109 58.5558C21.132 51.5445 22.1343 44.5403 23.4612 37.6156C24.5717 31.8088 27.9682 27.7117 33.5208 24.9706C58.3563 12.7008 84.4969 5.04022 112.015 2.19096C132.726 0.0413904 153.141 2.39293 173.296 7.24028C190.574 11.3952 207.102 17.6347 223.161 25.2303C228.909 27.9497 232.024 32.4797 233.048 38.4379C235.904 54.9708 237.714 71.6191 237.598 82.3309H237.591Z" fill="#00532B"/>
<path d="M181.336 126.916C217.961 126.916 247.651 97.2178 247.651 60.5827C247.651 23.9477 217.961 -5.75092 181.336 -5.75092C144.712 -5.75092 115.022 23.9477 115.022 60.5827C115.022 97.2178 144.712 126.916 181.336 126.916Z" fill="url(#paint0_radial_3142_218)"/>
<path d="M112.123 233.883L113.025 230.543L110.328 228.372L113.782 228.199L115.015 224.967L116.248 228.199L119.702 228.372L117.005 230.543L117.907 233.883L115.008 231.993L112.109 233.883H112.123Z" fill="white"/>
<path d="M124.512 233.883L125.413 230.543L122.716 228.372L126.171 228.199L127.404 224.967L128.637 228.199L132.091 228.372L129.394 230.543L130.295 233.883L127.396 231.993L124.498 233.883H124.512Z" fill="white"/>
<path d="M136.793 233.883L137.694 230.543L134.997 228.372L138.451 228.199L139.684 224.967L140.917 228.199L144.372 228.372L141.675 230.543L142.576 233.883L139.677 231.993L136.778 233.883H136.793Z" fill="white"/>
<path d="M90.3236 87.6038L85.4993 33.1577H81.1726L85.4128 88.1448L90.3236 87.6038Z" fill="white"/>
<path d="M42.2464 155.409C42.2248 155.64 42.4628 155.798 42.6503 155.676C48.5346 151.773 57.0222 146.501 67.6443 141.091C88.6722 130.372 105.575 125.488 127.512 119.277C150.847 112.67 169.308 109.121 185.973 105.954C201.275 103.047 214.234 101.013 223.767 99.6428C223.868 99.6284 223.955 99.549 223.983 99.448L224.935 96.0362C224.986 95.8486 224.842 95.6683 224.661 95.6827C200.338 97.3995 179.966 100.48 164.7 103.307C140.333 107.815 111.755 113.276 77.5309 128.107C61.2913 135.147 48.3255 142.317 39.3692 147.669C39.2826 147.72 39.2321 147.813 39.2394 147.922L39.4268 152.235C39.4341 152.401 39.5855 152.524 39.7441 152.495L42.2464 151.997C42.4195 151.961 42.5782 152.112 42.5637 152.293L42.2536 155.416L42.2464 155.409Z" fill="#E52332"/>
<path d="M42.5133 156.08C42.4051 156.08 42.2969 156.051 42.196 155.993C41.9868 155.863 41.8642 155.633 41.8931 155.38L42.1887 152.372L39.8163 152.848C39.636 152.884 39.4557 152.841 39.3115 152.726C39.1672 152.61 39.0735 152.437 39.0663 152.25L38.8788 147.936C38.8716 147.698 38.987 147.482 39.1817 147.359C51.4335 140.037 64.2911 133.444 77.3795 127.775C112.347 112.62 141.336 107.26 164.628 102.947C184.3 99.311 204.484 96.7431 224.632 95.3221C224.834 95.3076 225.029 95.3942 225.159 95.5529C225.289 95.7116 225.339 95.928 225.281 96.13L224.322 99.5418C224.258 99.7799 224.056 99.9602 223.81 99.9963C211.27 101.807 198.564 103.928 186.031 106.308C170.599 109.237 151.388 112.886 127.598 119.624C107.01 125.459 89.2275 130.494 67.7958 141.408C59.2361 145.772 50.8422 150.67 42.8378 155.979C42.7368 156.051 42.6142 156.08 42.4988 156.08H42.5133ZM42.2969 151.622C42.4483 151.622 42.5926 151.68 42.7152 151.781C42.8666 151.918 42.9387 152.12 42.9243 152.322L42.6358 155.25C50.6042 149.977 58.9692 145.101 67.4857 140.759C88.9751 129.809 106.787 124.76 127.418 118.917C151.237 112.172 170.462 108.522 185.908 105.587C198.427 103.206 211.126 101.085 223.652 99.2822L224.56 96.0434C204.484 97.4644 184.365 100.025 164.765 103.653C141.509 107.953 112.563 113.312 77.6751 128.431C64.6228 134.086 51.8157 140.651 39.6071 147.943L39.7874 152.105L42.1743 151.629C42.2176 151.622 42.2536 151.615 42.2969 151.615V151.622Z" fill="white"/>
<path d="M60.2384 128.785C60.2168 128.842 60.2601 128.727 60.2384 128.785V128.785Z" fill="#00532B"/>
<path d="M60.3394 129.015L60.0005 128.907L60.1303 128.554L60.4764 128.655L60.3466 129.015H60.3394Z" fill="#00532B"/>
<path d="M90.0207 101.872C89.4222 102.023 88.8092 102.182 88.2179 102.305C88.6001 100.508 89.1121 98.5681 89.6025 96.6926C90.2587 94.1824 90.8789 91.8092 91.2466 89.7029C91.737 86.8969 91.636 85.0936 90.9293 84.1991C90.6265 83.8096 90.2226 83.6004 89.7251 83.5644C88.3044 83.4634 86.2348 85.5264 85.182 87.0123C83.1989 89.8183 81.4177 92.6748 79.6943 95.4375C77.5309 98.9071 75.2954 102.492 72.685 105.926C72.483 105.623 71.9927 105.536 71.5239 105.493C70.5072 105.406 69.4471 105.587 68.452 106.019C64.1685 107.888 63.0075 111.725 62.2503 115.173C62.1061 115.837 62.308 116.515 62.7984 116.984C63.2887 117.46 63.9738 117.647 64.6949 117.467C64.9978 117.395 65.243 117.33 65.6035 117.265C65.3367 118.376 63.9666 121.377 62.8489 123.057C62.7046 123.266 62.5532 123.504 62.3801 123.75C61.2696 125.387 59.748 127.631 59.4668 129.354C58.6808 131.49 59.7625 132.298 60.26 132.543C60.6062 132.716 61.0028 132.795 61.4066 132.795C62.4667 132.795 63.606 132.254 64.1541 131.381C65.8055 128.648 66.7934 125.56 67.7525 122.567C68.0986 121.492 68.452 120.388 68.827 119.314C70.3918 114.899 73.6296 114.055 77.3795 113.081C78.5837 112.771 79.8241 112.446 81.0428 111.985C80.9346 112.692 80.8336 113.348 80.7327 113.976C80.4731 115.628 80.2495 117.056 80.0981 118.491C79.9178 120.251 80.3361 121.687 81.2951 122.545C82.0451 123.216 83.0835 123.454 84.2085 123.209C86.6026 122.689 92.9917 115.808 92.5735 113.579C92.5014 113.197 92.1913 112.584 90.9293 112.793H90.8861C90.1722 113.002 89.2347 113.875 88.2323 114.791C87.7852 115.202 87.3237 115.628 86.9127 115.959C86.8117 116.039 86.7108 116.003 86.6747 115.981C86.6387 115.959 86.5521 115.902 86.5665 115.779C87.0064 111.523 87.7276 109.648 88.2756 109.294C91.7154 108.84 92.0399 106.294 92.3499 103.827C92.4365 103.156 92.523 102.463 92.6672 101.8L92.7826 101.287L92.2634 101.367C91.5567 101.475 90.7707 101.677 90.0135 101.872H90.0207ZM84.6772 94.5214L82.7662 103.56L77.9203 104.721L84.6844 94.5142L84.6772 94.5214Z" fill="#00532B"/>
<path d="M61.4066 132.976C60.9595 132.976 60.5341 132.882 60.1807 132.709C59.6399 132.442 58.4644 131.569 59.2937 129.297C59.5822 127.566 61.111 125.308 62.2287 123.656C62.3946 123.403 62.5532 123.173 62.6974 122.963C63.707 121.441 64.9545 118.78 65.3512 117.51C65.142 117.554 64.9618 117.597 64.7526 117.647C63.9666 117.842 63.2166 117.647 62.6758 117.121C62.1422 116.601 61.9186 115.866 62.0773 115.137C62.8417 111.646 64.0171 107.758 68.3799 105.861C69.4039 105.413 70.5 105.233 71.5384 105.32C71.9494 105.356 72.3893 105.428 72.6705 105.652C75.2233 102.283 77.4227 98.7628 79.5428 95.3509C81.2807 92.5594 83.0547 89.7101 85.0378 86.9113C86.0834 85.4326 88.2035 83.2902 89.7395 83.384C90.2875 83.4201 90.7346 83.6581 91.0736 84.0837C91.8091 85.0214 91.9245 86.868 91.4269 89.7317C91.0591 91.8452 90.439 94.2184 89.7828 96.7359C89.314 98.5248 88.8381 100.357 88.4631 102.074C88.9679 101.966 89.4799 101.836 89.9847 101.706C90.7491 101.511 91.5351 101.302 92.2562 101.194L93.035 101.071L92.8619 101.843C92.7177 102.499 92.6312 103.185 92.5447 103.855C92.2418 106.265 91.8956 108.991 88.3549 109.475C87.8718 109.85 87.1795 111.711 86.754 115.808L86.9199 115.974L86.8045 115.837C87.2156 115.505 87.6915 115.065 88.117 114.675C89.1337 113.738 90.0928 112.858 90.8428 112.641L90.8933 112.627C92.3788 112.389 92.6889 113.197 92.7538 113.557C93.0494 115.137 90.4029 118.246 89.5808 119.162C87.8862 121.059 85.5786 123.101 84.2445 123.396C83.0547 123.656 81.9658 123.396 81.1726 122.689C80.1774 121.795 79.7303 120.302 79.9178 118.484C80.0692 117.041 80.2928 115.613 80.5524 113.961L80.5812 113.767C80.6534 113.29 80.7327 112.793 80.812 112.273C79.6798 112.685 78.5333 112.98 77.4155 113.269C73.709 114.228 70.5144 115.058 68.9856 119.386C68.6034 120.468 68.2356 121.615 67.9111 122.632C66.952 125.632 65.9569 128.727 64.2983 131.482C63.7358 132.384 62.5748 132.983 61.3994 132.983L61.4066 132.976ZM65.8415 117.041L65.7766 117.315C65.5026 118.455 64.1036 121.499 63.0003 123.165C62.8561 123.382 62.7046 123.613 62.5316 123.858C61.4283 125.481 59.9283 127.703 59.6471 129.391C58.9043 131.425 59.8851 132.16 60.3466 132.391C60.6494 132.543 61.0244 132.622 61.4138 132.622C62.4522 132.622 63.5195 132.074 64.0027 131.295C65.6396 128.583 66.6275 125.503 67.5794 122.523C67.9039 121.506 68.2717 120.352 68.6611 119.263C70.2548 114.755 73.5359 113.904 77.3362 112.923C78.5405 112.612 79.7736 112.288 80.9851 111.833L81.2735 111.725L81.2303 112.028C81.1365 112.663 81.0428 113.254 80.9562 113.824L80.9274 114.019C80.6678 115.671 80.4442 117.092 80.2928 118.527C80.1125 120.23 80.5163 121.615 81.425 122.43C82.1317 123.064 83.1124 123.281 84.1796 123.05C86.4512 122.552 92.8043 115.729 92.4076 113.629C92.2995 113.074 91.8091 112.85 90.9654 112.987C90.2731 113.182 89.3501 114.033 88.3621 114.942C87.9367 115.339 87.4535 115.779 87.0353 116.118C86.9055 116.219 86.7396 116.241 86.5954 116.161C86.4512 116.082 86.3791 115.938 86.3935 115.779C86.7757 112.064 87.4319 109.655 88.1819 109.157L88.254 109.128C91.5567 108.696 91.8596 106.322 92.1769 103.819C92.2634 103.141 92.3499 102.449 92.5014 101.771L92.5591 101.511L92.2995 101.554C91.6 101.663 90.8212 101.865 90.064 102.059C89.4655 102.211 88.8453 102.377 88.254 102.492L87.9872 102.543L88.0449 102.276C88.427 100.48 88.939 98.5392 89.4222 96.671C90.0784 94.1463 90.6986 91.7803 91.0663 89.6812C91.5495 86.9258 91.4558 85.1729 90.7851 84.3218C90.5183 83.9755 90.1505 83.788 89.7106 83.7591C88.3982 83.6581 86.3574 85.6779 85.3262 87.1349C83.3503 89.9265 81.5764 92.7685 79.8601 95.524C77.6751 99.0297 75.4396 102.615 72.822 106.055L72.6705 106.257L72.5335 106.048C72.3677 105.803 71.8989 105.731 71.5095 105.695C70.5288 105.608 69.4976 105.789 68.5241 106.207C64.32 108.039 63.1734 111.826 62.4306 115.231C62.3008 115.83 62.4883 116.45 62.9282 116.875C63.3825 117.315 64.0099 117.474 64.6589 117.315C64.9762 117.236 65.2214 117.178 65.5747 117.106L65.8487 117.056L65.8415 117.041ZM77.5165 105.01L85.0522 93.6341L82.9177 103.711L77.5165 105.01ZM84.3094 95.4086L78.3241 104.447L82.6148 103.415L84.3094 95.4086Z" fill="#00532B"/>
<path d="M118.606 87.1061L120.099 84.6031C120.322 84.2352 120.07 83.7519 119.644 83.7231C114.481 83.4129 106.289 87.3802 103.462 91.8958C103.203 92.3141 103.47 92.8624 103.96 92.9489C106.513 93.3817 108.936 93.8073 111.373 94.1607C114.099 94.5503 117.099 94.7522 119.659 95.5024C122.219 96.2526 124.469 97.6736 125.507 99.6645C126.899 102.341 125.543 105.493 123.026 107.275C120.135 109.323 117.041 111.365 113.717 112.461C109.094 113.99 104.797 115.801 99.3881 115.512C98.4362 115.462 97.4266 115.144 96.4099 114.762C94.7945 114.156 93.9364 112.331 94.5422 110.715C94.8522 109.893 94.9532 109.381 95.8113 108.544C96.9579 107.433 98.155 107.549 98.6958 107.505C98.7823 107.505 98.8328 107.592 98.7896 107.671C98.1405 108.847 98.3641 108.825 98.7102 108.789C105.907 108.082 120.971 102.81 119.969 100.999C120.402 100.638 116.133 98.8711 113.428 98.3373C110.501 97.753 108.085 97.7891 105.107 97.551C102.575 97.3418 99.828 97.7386 98.5372 94.5431C97.3545 91.6144 98.5949 86.2838 101.032 84.2929C106.556 79.7846 112.981 77.3321 119.998 76.3799C121.418 76.1852 122.897 76.0265 124.296 76.2212C125.565 76.3944 127.396 76.6829 127.44 77.2239C127.555 78.8469 127.13 81.5879 126.091 82.5834C123.921 84.668 119.983 88.6281 118.606 87.1061Z" fill="#E52332"/>
<path d="M100.549 115.902C100.16 115.902 99.7703 115.894 99.3665 115.873C98.3064 115.815 97.2103 115.454 96.2801 115.101C95.4075 114.776 94.708 114.12 94.3114 113.269C93.9148 112.41 93.8787 111.458 94.2032 110.585L94.3186 110.283C94.5638 109.604 94.7513 109.071 95.5662 108.284C96.6767 107.21 97.8377 107.174 98.4651 107.159C98.5444 107.159 98.6165 107.159 98.6814 107.152C98.8473 107.138 99.0131 107.224 99.1069 107.361C99.2006 107.505 99.2078 107.693 99.1213 107.844C98.9771 108.111 98.8833 108.292 98.8328 108.414C105.972 107.664 118.7 103.062 119.637 101.273C119.659 101.237 119.673 101.187 119.666 101.172L119.536 100.934C118.786 100.407 115.736 99.1596 113.378 98.6907C111.337 98.2868 109.527 98.1858 107.616 98.0704C106.808 98.0271 105.972 97.9766 105.092 97.9045C104.739 97.8756 104.371 97.8612 104.01 97.8395C101.746 97.7313 99.4097 97.6231 98.2199 94.6729C96.9579 91.5495 98.292 86.0746 100.816 84.0116C106.073 79.7197 112.52 77.0291 119.962 76.0193C121.317 75.8389 122.889 75.6586 124.353 75.8606C126.553 76.1635 127.757 76.4665 127.807 77.195C127.923 78.7964 127.533 81.7033 126.351 82.8358L125.947 83.2254C123.913 85.1802 121.115 87.8419 119.363 87.8058C118.952 87.7914 118.613 87.6399 118.354 87.3442L118.173 87.1494L119.796 84.4156C119.854 84.3218 119.817 84.228 119.796 84.1992C119.774 84.1559 119.724 84.091 119.623 84.0837C114.445 83.7664 106.448 87.813 103.765 92.0833C103.686 92.2059 103.722 92.3213 103.751 92.379C103.801 92.4872 103.902 92.5666 104.018 92.5882L105.698 92.8768C107.667 93.2158 109.534 93.5332 111.424 93.8001C112.152 93.9011 112.895 93.9948 113.645 94.0886C115.714 94.3411 117.856 94.6008 119.76 95.1562C122.565 95.9785 124.836 97.6015 125.824 99.4986C127.382 102.485 125.702 105.825 123.228 107.57C120.51 109.496 117.315 111.653 113.825 112.8C113.183 113.009 112.556 113.226 111.921 113.442C108.236 114.704 104.739 115.902 100.542 115.902H100.549ZM98.2776 107.888C97.6863 107.917 96.8714 108.025 96.0637 108.804C95.3715 109.467 95.2272 109.893 94.9965 110.528L94.8811 110.845C94.6215 111.538 94.6503 112.288 94.9676 112.973C95.2849 113.651 95.8402 114.17 96.5325 114.43C97.4122 114.762 98.4362 115.101 99.4025 115.151C103.996 115.397 107.731 114.12 111.69 112.764C112.325 112.547 112.96 112.331 113.601 112.115C116.991 110.997 120.135 108.876 122.81 106.979C125.024 105.414 126.546 102.449 125.183 99.8304C124.281 98.0992 122.176 96.6133 119.551 95.8487C117.705 95.3077 115.592 95.0552 113.551 94.8027C112.794 94.709 112.044 94.6224 111.315 94.5142C109.412 94.2401 107.544 93.9227 105.568 93.5909L103.888 93.3096C103.535 93.2519 103.232 93.0138 103.08 92.6892C102.936 92.3718 102.958 92.004 103.145 91.7154C105.986 87.1782 114.164 83.045 119.659 83.3768C119.983 83.3985 120.272 83.5788 120.43 83.8746C120.589 84.1703 120.575 84.5165 120.409 84.7979L119.082 87.034C119.168 87.0773 119.269 87.0989 119.378 87.0989C119.392 87.0989 119.406 87.0989 119.421 87.0989C120.892 87.0989 123.733 84.3651 125.442 82.7204L125.846 82.3309C126.726 81.4869 127.209 78.9767 127.086 77.2599C126.993 77.1445 126.416 76.8921 124.252 76.5891C122.875 76.4016 121.361 76.5747 120.055 76.7478C112.743 77.736 106.426 80.3761 101.27 84.5815C98.9915 86.4425 97.7439 91.5856 98.8833 94.4132C99.9001 96.9379 101.818 97.0244 104.039 97.1326C104.407 97.1471 104.775 97.1687 105.143 97.1975C106.015 97.2697 106.844 97.313 107.652 97.3635C109.592 97.4717 111.424 97.5799 113.515 97.991C115.635 98.4094 120.142 99.9963 120.358 100.833C120.373 100.891 120.373 100.948 120.366 101.006C120.409 101.165 120.402 101.374 120.272 101.619C119.031 103.971 105.294 108.515 98.7535 109.157C98.5588 109.179 98.2704 109.208 98.1045 108.948C97.9603 108.732 97.9963 108.458 98.2776 107.895V107.888Z" fill="white"/>
<path d="M61.1831 129.968C61.1615 130.025 61.2047 129.903 61.1831 129.968V129.968Z" fill="#E52332"/>
<path d="M92.1553 113.492C91.225 113.788 89.6458 115.635 88.4054 116.702C88.016 117.034 87.4247 116.738 87.4608 116.234C87.6194 114.048 88.0665 110.001 89.2059 109.381C93.3018 108.761 92.5375 105.233 93.1432 102.03C91.7514 102.29 90.0856 102.925 88.6073 103.199C89.3429 98.9288 90.7851 93.8795 91.3404 89.9987C91.6216 88.015 91.9533 84.3939 89.9775 84.3218C88.8237 84.2785 86.855 86.2405 85.8599 87.7481C81.4322 94.4277 78.2376 101.165 73.5071 107.628C72.2379 109.366 70.4567 109.669 70.5288 109.489C70.8389 108.732 75.2594 106.957 72.447 106.791C71.4591 106.734 70.4639 106.957 69.5697 107.376C65.4233 109.338 64.4642 113.197 63.8512 116.45C63.6349 117.611 64.7166 118.592 65.8487 118.275C66.2526 118.159 66.541 118.08 67.0819 117.965C67.1972 117.943 67.3054 118.03 67.2982 118.152C67.2405 119.126 65.755 122.625 64.63 124.435C63.6277 126.058 61.7311 128.806 61.486 130.725C60.2528 134.368 64.4426 134.267 65.5675 132.348C67.6732 128.604 68.5385 124.291 69.8438 120.215C71.8917 113.831 77.603 114.322 82.5788 112.064C82.5932 112.064 82.6076 112.064 82.6076 112.086C82.2759 114.95 81.9586 117.063 81.7999 119.191C81.5764 122.213 83.235 123.995 85.6003 123.404C88.4415 122.697 96.5325 112.648 92.1553 113.492ZM83.9561 104.447L78.0429 106.063L85.968 93.2663L83.9561 104.447Z" fill="#E52332"/>
<path d="M63.1806 134.029C62.7768 134.043 62.3729 133.971 62.0268 133.812C61.5148 133.582 60.4187 132.81 61.1326 130.646C61.3706 128.914 62.82 126.628 63.8801 124.954C64.0387 124.702 64.1902 124.464 64.3272 124.247C65.3872 122.531 66.6708 119.494 66.9016 118.376C66.5482 118.455 66.3031 118.52 66.0002 118.607C65.2863 118.809 64.594 118.643 64.0892 118.181C63.5916 117.727 63.3609 117.049 63.4907 116.385C64.1397 112.915 65.1853 109.049 69.4111 107.051C70.3918 106.589 71.4447 106.373 72.4614 106.431C72.9302 106.459 73.4205 106.532 73.6369 106.827C76.1464 103.322 78.2737 99.6717 80.3289 96.1372C81.9658 93.324 83.6605 90.4098 85.557 87.5461C86.5666 86.0241 88.5713 83.9034 89.9919 83.9611C90.4895 83.9828 90.9005 84.1775 91.2178 84.5598C91.9461 85.4326 92.1048 87.2287 91.701 90.0491C91.3981 92.1627 90.85 94.5503 90.2731 97.0821C89.8405 98.972 89.3934 100.927 89.0617 102.737C89.6458 102.6 90.2515 102.427 90.85 102.254C91.6 102.038 92.3788 101.807 93.0855 101.677L93.6047 101.583L93.5038 102.103C93.374 102.773 93.3091 103.466 93.2442 104.144C93.0062 106.618 92.761 109.179 89.3357 109.734C88.7948 110.109 88.1314 112.006 87.8213 116.27C87.8141 116.392 87.9007 116.45 87.9367 116.472C87.9728 116.493 88.0737 116.529 88.1747 116.443C88.5713 116.096 89.0256 115.656 89.4583 115.231C90.4318 114.279 91.3476 113.384 92.0543 113.161H92.0976C93.3523 112.908 93.684 113.507 93.7706 113.889C94.2609 116.096 88.0737 123.173 85.7012 123.764C84.5835 124.046 83.5379 123.836 82.7663 123.187C81.7855 122.365 81.3168 120.937 81.4466 119.169C81.5548 117.727 81.7351 116.298 81.9442 114.639C82.0235 114.012 82.11 113.348 82.1894 112.641C80.9851 113.139 79.752 113.5 78.5549 113.846C74.8411 114.935 71.6249 115.873 70.1971 120.331C69.851 121.413 69.5265 122.531 69.2164 123.613C68.351 126.628 67.4569 129.744 65.8848 132.528C65.3656 133.423 64.2407 133.993 63.1806 134.029ZM67.1035 117.604C67.2405 117.604 67.3703 117.647 67.4785 117.741C67.6083 117.849 67.6732 118.008 67.666 118.181C67.6011 119.285 66.0146 122.913 64.9473 124.637C64.8103 124.853 64.6589 125.091 64.5003 125.351C63.4691 126.974 62.0557 129.203 61.8537 130.783L61.8393 130.855C61.4427 132.016 61.623 132.839 62.3369 133.163C63.2599 133.582 64.7382 133.084 65.2646 132.175C66.7862 129.47 67.6732 126.39 68.5241 123.418C68.8342 122.329 69.1587 121.203 69.5048 120.114C71.0552 115.289 74.596 114.25 78.3458 113.153C79.7015 112.757 81.1005 112.346 82.4273 111.747L82.6148 111.66L82.9754 111.905L82.961 112.136C82.8528 113.074 82.7446 113.925 82.6437 114.726C82.4345 116.378 82.2543 117.799 82.1533 119.22C82.0451 120.72 82.4273 121.968 83.2134 122.632C83.8119 123.137 84.6051 123.288 85.5065 123.057C87.7853 122.487 93.4244 115.743 93.0495 114.033C93.035 113.954 92.9774 113.709 92.2418 113.846C91.701 114.033 90.7707 114.935 89.9558 115.736C89.516 116.169 89.0544 116.616 88.6362 116.976C88.3477 117.222 87.9439 117.272 87.605 117.106C87.2661 116.933 87.0714 116.587 87.1002 116.212C87.4031 112.006 88.0593 109.597 89.0328 109.063L89.1482 109.02C92.0904 108.573 92.2779 106.582 92.5158 104.065C92.5663 103.545 92.6168 103.019 92.6961 102.492C92.1697 102.615 91.6216 102.773 91.0375 102.947C90.2515 103.177 89.4366 103.415 88.665 103.552L88.153 103.646L88.2396 103.134C88.5785 101.158 89.0761 99.0009 89.552 96.9162C90.1289 94.3988 90.6698 92.0256 90.9726 89.941C91.4341 86.7382 91.052 85.4903 90.6481 85.0143C90.4678 84.7979 90.2371 84.6897 89.9486 84.6752C89.04 84.6392 87.1795 86.3704 86.1411 87.9429C84.2518 90.7921 82.5644 93.6919 80.9346 96.4979C78.7568 100.249 76.4997 104.122 73.7811 107.837C72.5552 109.511 70.6731 109.965 70.2764 109.742C70.2764 109.742 70.637 108.789 71.4591 108.263C71.8629 108.003 72.2451 107.26 71.9711 107.246C71.0769 107.195 70.5793 107.296 69.7068 107.707C65.7911 109.561 64.832 113.081 64.1902 116.522C64.1109 116.94 64.2551 117.366 64.5724 117.655C64.8897 117.943 65.3295 118.051 65.7406 117.936C66.1805 117.813 66.4761 117.727 66.9953 117.626C67.0242 117.626 67.0602 117.618 67.0891 117.611L67.1035 117.604ZM77.2569 106.647L86.6603 91.463L84.2734 104.735L77.2569 106.647ZM85.283 95.0624L78.8362 105.471L83.646 104.158L85.283 95.0624Z" fill="white"/>
<path d="M147.458 91.6216L149.347 89.3999C149.629 89.0681 149.463 88.556 149.045 88.4622C144.004 87.2936 135.264 89.8327 131.723 93.8073C131.391 94.1751 131.572 94.7666 132.033 94.9253C134.478 95.7765 136.8 96.606 139.144 97.3562C141.761 98.193 144.689 98.8999 147.09 100.068C149.492 101.237 151.467 103.011 152.16 105.154C153.09 108.025 151.222 110.903 148.439 112.244C145.244 113.781 141.855 115.274 138.394 115.801C133.584 116.529 129.041 117.604 123.755 116.414C122.825 116.205 121.887 115.721 120.942 115.18C119.45 114.307 118.909 112.374 119.781 110.881C120.221 110.124 120.409 109.633 121.397 108.955C122.716 108.054 123.877 108.364 124.418 108.414C124.505 108.421 124.541 108.522 124.483 108.595C123.647 109.648 123.87 109.655 124.216 109.684C131.428 110.189 147.162 107.513 146.477 105.558C146.96 105.276 143.052 102.824 140.478 101.836C137.687 100.775 135.3 100.4 132.401 99.6645C129.935 99.0369 127.166 98.9648 126.43 95.6034C125.752 92.5233 127.865 87.474 130.598 85.9159C136.8 82.3958 143.542 81.0541 150.624 81.2922C152.052 81.3426 153.537 81.4292 154.886 81.8548C156.104 82.2371 157.871 82.8286 157.813 83.3696C157.655 84.9926 156.782 87.6182 155.585 88.4261C153.09 90.114 148.554 93.3672 147.451 91.636L147.458 91.6216Z" fill="#E52332"/>
<path d="M128.687 117.301C127.079 117.301 125.421 117.15 123.675 116.753C122.637 116.522 121.62 115.974 120.762 115.476C119.954 115.007 119.378 114.25 119.125 113.341C118.88 112.432 118.995 111.487 119.471 110.679L119.63 110.398C119.983 109.77 120.265 109.28 121.195 108.638C122.464 107.765 123.618 107.924 124.238 108.01C124.317 108.025 124.389 108.032 124.454 108.039C124.62 108.054 124.772 108.162 124.836 108.32C124.901 108.479 124.88 108.667 124.772 108.804C124.584 109.042 124.469 109.201 124.389 109.316C131.557 109.77 144.869 107.361 146.095 105.753C146.124 105.716 146.146 105.673 146.138 105.659L146.052 105.399C145.396 104.757 142.605 103.011 140.355 102.153C138.408 101.41 136.648 101.006 134.781 100.581C133.987 100.4 133.18 100.213 132.322 99.9963C131.976 99.9098 131.622 99.8304 131.269 99.7511C129.055 99.2678 126.769 98.77 126.084 95.6611C125.363 92.3718 127.598 87.1927 130.432 85.5841C136.338 82.2299 143.139 80.6574 150.645 80.9099C152.016 80.9532 153.588 81.0397 155.001 81.4869C157.121 82.1578 158.253 82.6555 158.181 83.3768C158.022 84.9782 157.157 87.777 155.794 88.7003L155.333 89.0104C153.003 90.5974 149.802 92.7686 148.071 92.4223C147.667 92.3358 147.357 92.1338 147.148 91.802L147.004 91.5784L149.066 89.1547C149.138 89.0681 149.117 88.9744 149.109 88.9383C149.095 88.895 149.059 88.8229 148.958 88.794C143.903 87.6255 135.343 90.2655 131.99 94.0309C131.896 94.1391 131.911 94.2617 131.925 94.3194C131.954 94.4348 132.04 94.5286 132.156 94.5647L133.771 95.1273C135.66 95.791 137.442 96.4113 139.259 96.9956C139.958 97.2192 140.679 97.4356 141.408 97.652C143.405 98.2435 145.475 98.8638 147.256 99.7294C149.888 101.006 151.85 102.99 152.513 105.024C153.552 108.234 151.33 111.242 148.605 112.547C145.598 113.99 142.093 115.577 138.458 116.132C137.795 116.233 137.132 116.342 136.475 116.45C133.865 116.875 131.341 117.287 128.702 117.287L128.687 117.301ZM123.394 108.667C122.882 108.667 122.276 108.782 121.606 109.237C120.813 109.778 120.596 110.167 120.265 110.751L120.099 111.04C119.731 111.675 119.63 112.425 119.832 113.146C120.027 113.868 120.488 114.473 121.13 114.849C121.938 115.317 122.897 115.83 123.834 116.046C128.319 117.056 132.221 116.421 136.353 115.75C137.016 115.642 137.672 115.534 138.343 115.433C141.877 114.899 145.324 113.334 148.287 111.913C150.732 110.737 152.729 108.075 151.821 105.262C151.222 103.408 149.398 101.583 146.939 100.393C145.208 99.5563 143.175 98.9504 141.199 98.3589C140.47 98.1425 139.742 97.9261 139.035 97.7025C137.204 97.1182 135.423 96.4906 133.526 95.827L131.918 95.2644C131.579 95.149 131.319 94.8676 131.226 94.5142C131.139 94.1752 131.226 93.8217 131.449 93.562C135.011 89.5659 143.766 86.8609 149.124 88.1088C149.441 88.1809 149.694 88.4117 149.802 88.7291C149.903 89.0465 149.838 89.3855 149.621 89.638L147.941 91.6144C148.021 91.6721 148.114 91.7082 148.222 91.7298C149.65 92.0184 152.953 89.775 154.929 88.4261L155.39 88.1088C156.4 87.4235 157.294 85.0359 157.46 83.3119C157.388 83.1821 156.861 82.8358 154.777 82.1794C153.451 81.761 151.929 81.6745 150.609 81.6312C143.247 81.386 136.562 82.9224 130.778 86.2117C128.219 87.6615 126.127 92.5305 126.783 95.5096C127.368 98.1641 129.243 98.5753 131.413 99.0514C131.774 99.1307 132.134 99.2101 132.488 99.2966C133.338 99.513 134.146 99.7006 134.932 99.8809C136.821 100.314 138.61 100.725 140.607 101.482C142.627 102.254 146.809 104.57 146.881 105.428C146.881 105.486 146.881 105.551 146.86 105.601C146.874 105.767 146.838 105.969 146.665 106.185C145.049 108.299 130.742 110.477 124.195 110.016C124 110.001 123.711 109.98 123.589 109.705C123.481 109.467 123.567 109.208 123.935 108.696C123.769 108.674 123.589 108.66 123.394 108.66V108.667Z" fill="white"/>
<path d="M169.164 62.5736L171.702 33.3453H167.375L164.628 64.3481L169.164 62.5736Z" fill="white"/>
<path d="M159.025 197.6L165.025 111.249L160.373 112.295L156.515 155.799H96.345L93.8859 130.934L88.8381 132.817L93.8355 197.592H66.1155L66.4617 198.148C66.7573 198.617 67.3559 199.288 68.0914 199.648C70.9182 201.04 83.0403 201.985 87.7203 201.437C88.5136 201.343 91.2683 201.351 92.6456 201.704C93.4893 201.92 94.0374 202.202 94.6647 202.519C95.184 202.786 95.7753 203.089 96.6262 203.399C97.7151 203.796 98.6165 203.832 99.8712 203.839C102.741 203.854 105.006 203.745 106.657 203.666C107.364 203.63 107.955 203.601 108.438 203.594C110.212 203.551 113.731 203.673 117.409 204.986C119.096 205.585 120.373 206.27 121.505 206.876C122.918 207.633 124.036 208.232 125.226 208.232C125.637 208.232 126.055 208.16 126.495 208.001C126.841 207.879 127.029 207.756 127.375 207.54C127.75 207.302 128.377 206.905 129.726 206.184C130.555 205.736 131.096 205.563 131.615 205.39C131.882 205.303 132.149 205.217 132.437 205.094C133.98 204.474 135.264 204.553 136.757 204.647C138.184 204.734 139.793 204.835 141.913 204.323C145.518 203.45 149.982 203.976 154.301 204.481C155.088 204.575 155.859 204.662 156.609 204.741C159.126 205.008 161.304 205.239 163.856 204.308C165.039 203.875 165.717 203.406 166.366 202.952C167.058 202.469 167.707 202.021 168.955 201.596C170.152 201.185 170.858 201.156 174.94 201.04L177.514 200.968C182.505 200.831 183.146 200.81 184.459 200.572C184.625 200.543 184.805 200.514 185 200.478C186.536 200.225 188.858 199.836 190.999 198.263L191.886 197.614H158.989L159.025 197.6ZM152.816 197.6H100.059L96.8137 160.992H156.061L152.816 197.6Z" fill="white"/>
<path d="M187.574 78.0823C192.29 72.0519 197.533 65.9134 202.285 59.9119C203.331 58.5919 204.225 56.5649 206.525 58.3178C208.458 59.7893 209.41 61.4267 208.126 63.8504C205.386 69.0368 202.573 74.2015 200.1 79.5105C198.953 81.963 198.283 84.7185 197.901 87.4091C197.735 88.556 198.362 90.6695 199.501 90.9941C200.23 91.1961 202.011 90.6046 202.819 89.8255C205.479 87.236 207.931 84.4372 210.773 81.3643C210.946 81.1768 211.27 81.2778 211.285 81.5302C211.364 82.5762 211.436 83.5932 211.104 84.2424C208.761 89.0104 204.773 92.682 200.554 95.7549C196.314 98.2291 193.069 97.5149 192.139 92.8551C191.562 89.9626 192.016 86.6661 192.788 83.7519C193.725 80.203 195.485 76.8704 196.314 72.9897C193.552 76.856 190.61 80.6069 188.072 84.6175C185.447 88.758 183.435 92.9345 180.896 97.1326C180.298 98.1281 179.043 99.0225 178.279 99.2461C177.067 99.5924 174.428 97.2408 174.291 96.0723C174.075 94.2978 175.221 92.6748 175.914 90.9941C178.192 85.4615 180.976 79.9505 183.341 74.454C183.918 73.1123 184.228 71.7201 184.61 70.2919C184.675 70.0538 184.697 69.8158 184.48 69.6932C184.149 69.4984 183.976 69.7509 183.716 70.0322C183.161 70.6309 182.728 71.3739 182.339 72.0736C177.478 80.8666 172.265 89.3423 167.44 98.1569C166.46 99.9458 166.056 102.687 163.085 101.771C160.482 100.97 159.724 97.5294 161.037 94.6008C163.82 88.3973 166.589 82.1794 169.171 75.8894C169.503 74.4828 169.755 71.4893 169.423 70.364C169.351 70.1188 169.07 70.0178 168.868 70.162C167.202 71.3306 165.291 72.6939 163.683 73.9346C160.936 76.0553 158.289 78.3203 155.506 80.3977C155.044 80.744 154.496 80.9748 153.934 81.184C153.112 81.4869 152.203 81.0253 151.951 80.1813C151.785 79.6115 151.619 79.0344 151.504 78.4574C150.602 74.0284 153.342 72.0159 156.768 69.2243C157.323 69.9817 156.847 70.4866 156.414 71.3883C156.789 71.2801 157.092 71.1647 157.33 70.9988C160.388 68.8925 163.106 66.1731 166.51 64.7088C167.938 64.0956 170.065 63.1651 170.592 63.6917C172.156 65.2642 173.692 67.3705 174.075 69.4768C174.471 71.6913 173.527 74.1438 173.736 76.8199C175.279 74.6632 176.815 72.4919 178.38 70.3496C180.074 68.0269 181.711 65.6537 183.55 63.4537C185.036 61.6792 186.846 60.0129 189.427 61.3474C192.103 62.7323 191.425 65.2858 190.884 67.4138C189.99 70.8906 187.264 77.9164 187.581 78.0895L187.574 78.0823Z" fill="#E52332"/>
<path d="M164.166 102.305C163.813 102.305 163.416 102.247 162.977 102.11C161.88 101.771 161.037 101.006 160.532 99.8881C159.818 98.3156 159.883 96.2814 160.705 94.4493C163.539 88.1376 166.294 81.9558 168.839 75.7523C169.142 74.4467 169.387 71.5109 169.077 70.465C167.404 71.6263 165.493 72.9896 163.9 74.2159C162.71 75.132 161.52 76.0914 160.373 77.0219C158.866 78.2409 157.301 79.5033 155.722 80.679C155.203 81.0686 154.59 81.321 154.056 81.5158C153.566 81.6961 153.04 81.6673 152.571 81.4292C152.102 81.1984 151.749 80.7728 151.605 80.2751C151.453 79.7557 151.28 79.1426 151.15 78.515C150.242 74.05 152.845 71.9365 156.133 69.2604L156.825 68.6905L157.049 68.9935C157.503 69.6138 157.417 70.126 157.186 70.6381C158.159 69.9601 159.126 69.2099 160.056 68.4813C162.017 66.9449 164.044 65.358 166.373 64.3625L166.445 64.3337C168.551 63.4248 170.217 62.7828 170.851 63.4248C171.991 64.5717 173.974 66.88 174.435 69.4046C174.659 70.6237 174.493 71.8788 174.313 73.206C174.204 74.0284 174.096 74.8651 174.075 75.7235L174.875 74.5982C175.942 73.1051 177.01 71.6119 178.091 70.1332C178.488 69.585 178.885 69.0368 179.281 68.4885C180.55 66.7285 181.863 64.9107 183.276 63.2156C184.855 61.3329 186.838 59.5945 189.593 61.0228C192.507 62.5303 191.778 65.3724 191.245 67.4498C190.812 69.145 189.983 71.5614 189.261 73.6966C188.923 74.6992 188.555 75.774 188.288 76.6035C190.545 73.7543 192.925 70.8545 195.232 68.0413C197.489 65.293 199.819 62.451 202.011 59.6883C202.155 59.508 202.292 59.3204 202.429 59.1257C202.999 58.3394 203.648 57.445 204.629 57.2935C205.278 57.1925 205.977 57.4377 206.749 58.022C208.364 59.2483 210.023 61.0444 208.45 64.0163C207.96 64.9396 207.47 65.8701 206.979 66.7934C204.758 70.9771 202.465 75.3051 200.432 79.662C199.422 81.8332 198.687 84.4588 198.261 87.4596C198.117 88.4766 198.687 90.3882 199.602 90.6478C200.179 90.8138 201.845 90.2655 202.566 89.5658C204.564 87.6255 206.46 85.548 208.465 83.348C209.128 82.6194 209.806 81.8765 210.506 81.1191C210.686 80.9243 210.96 80.8594 211.212 80.9459C211.458 81.0325 211.623 81.2489 211.645 81.5086C211.724 82.6339 211.804 83.6726 211.429 84.4083C209.402 88.5343 206.013 92.2348 200.771 96.0434C198.29 97.4933 196.155 97.8684 194.569 97.1543C193.163 96.5195 192.225 95.0985 191.793 92.92C191.281 90.3593 191.497 87.2432 192.449 83.6581C192.867 82.0712 193.466 80.4987 194.035 78.9767C194.554 77.6062 195.081 76.1996 195.506 74.7353C195.023 75.3989 194.533 76.0625 194.05 76.7261C192.132 79.3374 190.141 82.0424 188.389 84.8123C186.947 87.0845 185.663 89.4144 184.43 91.6721C183.413 93.5187 182.368 95.4303 181.221 97.3202C180.565 98.4094 179.238 99.3471 178.394 99.5924C177.724 99.7871 176.887 99.3687 176.303 98.9792C175.228 98.2651 174.053 96.9956 173.945 96.1155C173.772 94.6801 174.406 93.3673 175.019 92.0977C175.221 91.6866 175.416 91.2754 175.589 90.857C176.851 87.7842 178.293 84.6752 179.692 81.6673C180.81 79.258 181.971 76.7622 183.017 74.3097C183.478 73.2349 183.767 72.1385 184.062 70.9699L184.264 70.1909C184.307 70.0322 184.3 69.9889 184.293 69.9817C184.235 69.9961 184.127 70.1115 184.062 70.1909L183.983 70.2774C183.449 70.8545 183.017 71.5975 182.656 72.2467C180.327 76.452 177.882 80.6574 175.517 84.7185C172.942 89.1475 170.274 93.7279 167.758 98.3228C167.577 98.6546 167.419 99.0153 167.246 99.3976C166.662 100.718 165.962 102.305 164.166 102.305ZM169.07 69.7292C169.149 69.7292 169.229 69.7437 169.308 69.7725C169.532 69.8519 169.705 70.0322 169.77 70.263C170.123 71.4604 169.871 74.5044 169.524 75.9688C166.957 82.2371 164.202 88.4189 161.368 94.7378C160.64 96.3608 160.575 98.2218 161.188 99.5851C161.606 100.508 162.299 101.143 163.186 101.417C165.284 102.059 165.883 100.689 166.582 99.1018C166.748 98.7195 166.921 98.33 167.123 97.9694C169.64 93.3673 172.308 88.7796 174.89 84.3506C177.255 80.2895 179.699 76.0914 182.021 71.886C182.404 71.2007 182.858 70.4145 183.449 69.7725L183.521 69.6932C183.745 69.4479 184.105 69.044 184.661 69.3613C184.985 69.5489 185.086 69.8879 184.956 70.364L184.754 71.1358C184.444 72.326 184.156 73.4513 183.673 74.5766C182.62 77.0363 181.459 79.5321 180.334 81.9486C178.942 84.9493 177.5 88.0511 176.245 91.1095C176.072 91.5351 175.863 91.9607 175.661 92.3863C175.063 93.6197 174.5 94.7811 174.652 96.0073C174.724 96.5844 175.676 97.688 176.692 98.3589C177.32 98.77 177.875 98.9648 178.185 98.8782C178.892 98.6763 180.053 97.8251 180.594 96.9306C181.726 95.0552 182.779 93.1509 183.788 91.3043C185.036 89.0393 186.319 86.7022 187.776 84.4083C189.55 81.6168 191.54 78.9046 193.466 76.2789C194.324 75.1104 195.182 73.9418 196.026 72.766L197.035 71.3522L196.675 73.0474C196.206 75.2402 195.441 77.2599 194.706 79.2147C194.115 80.7872 193.552 82.2732 193.141 83.8313C192.218 87.3081 192.002 90.316 192.492 92.7686C192.881 94.7017 193.675 95.9568 194.857 96.4834C196.227 97.0965 198.131 96.7359 200.374 95.4231C205.494 91.701 208.811 88.0871 210.787 84.0621C211.061 83.5211 211.003 82.5761 210.938 81.6528C210.311 82.3814 209.648 83.1027 208.999 83.8168C206.987 86.0241 205.083 88.1088 203.071 90.0636C202.198 90.9147 200.28 91.5711 199.408 91.3259C198.074 90.9508 197.36 88.6498 197.547 87.3441C197.987 84.2713 198.737 81.5807 199.783 79.3446C201.823 74.9733 204.124 70.6381 206.345 66.44C206.835 65.5167 207.326 64.5861 207.816 63.6628C208.869 61.6647 208.436 60.1932 206.316 58.5847C205.703 58.1158 205.184 57.9282 204.737 57.9932C204.052 58.0942 203.525 58.8227 203.013 59.5296C202.869 59.7316 202.725 59.9335 202.573 60.1139C200.381 62.8766 198.045 65.7258 195.788 68.4741C193.141 71.6985 190.401 75.031 187.862 78.2842L187.675 78.5223L187.408 78.378C187.012 78.1616 187.019 78.0101 188.576 73.4369C189.298 71.3162 190.12 68.9141 190.538 67.2911C191.1 65.0983 191.67 62.8838 189.269 61.6359C187.098 60.5106 185.526 61.6359 183.831 63.6556C182.432 65.3291 181.127 67.1397 179.865 68.8853C179.469 69.4335 179.072 69.9817 178.675 70.5299C177.594 72.0086 176.526 73.5018 175.466 74.995L173.462 77.8009L173.382 76.8127C173.281 75.5071 173.44 74.2736 173.599 73.0834C173.765 71.8139 173.923 70.6093 173.729 69.5056C173.31 67.1757 171.428 64.9973 170.346 63.9081C170 63.5691 167.548 64.6222 166.734 64.9684L166.662 64.9973C164.419 65.9567 162.429 67.5147 160.51 69.0223C159.551 69.7725 158.563 70.5515 157.547 71.2512C157.294 71.4244 156.984 71.5614 156.523 71.6913L155.744 71.9149L156.097 71.1863C156.176 71.0204 156.256 70.8689 156.335 70.7247C156.587 70.2558 156.71 69.9961 156.66 69.7437L156.602 69.7942C153.378 72.4126 151.049 74.3097 151.871 78.3491C151.994 78.9478 152.16 79.5393 152.311 80.0443C152.405 80.3617 152.614 80.6141 152.91 80.7584C153.198 80.9027 153.523 80.9243 153.826 80.8089C154.309 80.6285 154.864 80.4049 155.311 80.0731C156.883 78.8974 158.441 77.6422 159.941 76.4304C161.094 75.4999 162.284 74.5405 163.481 73.6172C165.082 72.3837 167.008 71.0132 168.681 69.8302C168.803 69.7437 168.947 69.7004 169.092 69.7004L169.07 69.7292Z" fill="white"/>
</g>
<defs>
<radialGradient id="paint0_radial_3142_218" cx="0" cy="0" r="1" gradientUnits="userSpaceOnUse" gradientTransform="translate(181.336 60.5827) scale(68.4489 68.4688)">
<stop stop-color="#00A480"/>
<stop offset="0.17" stop-color="#009D78"/>
<stop offset="0.41" stop-color="#008A65"/>
<stop offset="0.71" stop-color="#006B44"/>
<stop offset="0.91" stop-color="#00532B"/>
</radialGradient>
</defs>
</svg>
