<svg width="256" height="256" viewBox="0 0 256 256" fill="none" xmlns="http://www.w3.org/2000/svg">
<path d="M37.1975 32.1575L36.329 48.8386C35.8947 57.8742 36.329 86.7186 36.329 86.7186H219.323C219.323 86.7186 219.931 53.8777 219.584 47.3616L218.629 31.9837C215.328 29.8986 210.638 27.1184 204.733 24.0776C196.047 19.5598 168.95 6.18018 137.684 3.74752C84.8785 -0.335868 37.1975 32.1575 37.1975 32.1575Z" fill="#283272"/>
<path d="M213.244 82.8089H42.4085V81.5926C42.4085 80.55 42.1479 56.2234 42.4953 48.3173L43.1902 33.1132L43.7113 32.7657C44.1455 32.505 88.4394 4.09504 136.902 7.65715C163.478 9.56852 187.275 19.7336 199.087 25.6414C204.125 28.161 208.728 30.5936 211.941 32.5919L212.462 32.9394L213.418 47.0141C213.765 52.7482 213.244 80.3763 213.157 81.5926V82.8089H213.244ZM44.9272 80.3763H210.812C210.899 74.8159 211.333 52.2269 210.986 47.1879L210.117 34.4164C206.991 32.505 202.735 30.2461 198.045 27.9003C186.407 22.0793 162.957 12.0881 136.728 10.1767C92.0003 6.87522 50.833 31.3756 45.7088 34.5033L45.1009 48.4911C44.7535 55.2678 44.9272 75.2503 44.9272 80.3763Z" fill="white"/>
<path d="M74.9775 208.873C91.566 229.464 128.13 252.313 128.13 252.313C128.13 252.313 159.483 233.373 178.764 211.219C192.4 195.58 211.42 166.649 217.76 132.505H38.1528C38.1528 132.505 43.7113 170.037 74.8907 208.786L74.9775 208.873Z" fill="#283272"/>
<path d="M128.043 245.797L127.435 245.363C127.435 245.363 94.3453 224.685 79.5807 206.353C51.7016 171.949 46.4037 138.065 46.4037 137.804L46.23 136.414H210.03L209.77 137.891C202.996 173.86 181.109 201.14 174.508 208.612C157.312 228.247 129.086 245.276 128.825 245.45L128.217 245.797H128.043ZM81.4045 204.876C94.7795 221.47 123.353 239.976 128.043 242.93C132.299 240.237 156.965 224.685 172.511 206.961C178.851 199.663 199.956 173.512 206.904 138.847H49.0092C50.312 145.537 57.26 174.902 81.4045 204.789V204.876Z" fill="white"/>
<path d="M46.7511 125.641H40.9321C39.3688 125.641 38.066 125.033 36.937 123.903C35.8079 122.774 35.2 121.384 35.2 119.907V118.778C35.2 117.822 35.6342 117.387 36.5896 117.387H39.5425C40.4978 117.387 40.9321 117.822 40.9321 118.778V119.907H46.7511V112.957H40.9321C39.3688 112.957 38.066 112.348 36.937 111.219C35.8079 110.089 35.2 108.699 35.2 107.222V100.272C35.2 98.795 35.8079 97.4049 36.937 96.2754C38.066 95.146 39.4556 94.5378 40.9321 94.5378H46.7511C48.2276 94.5378 49.6172 95.146 50.7462 96.2754C51.8753 97.4049 52.4832 98.795 52.4832 100.272V101.228C52.4832 102.183 52.049 102.618 51.0936 102.618H48.1407C47.1854 102.618 46.7511 102.183 46.7511 101.228V100.272H40.9321V107.222H46.7511C48.2276 107.222 49.6172 107.831 50.7462 108.96C51.8753 110.089 52.4832 111.48 52.4832 112.957V119.907C52.4832 121.471 51.8753 122.774 50.7462 123.903C49.6172 125.033 48.2276 125.641 46.7511 125.641Z" fill="#283272"/>
<path d="M71.1561 125.641H64.6423C63.079 125.641 61.7762 125.033 60.6472 123.903C59.5181 122.774 58.9102 121.471 58.9102 119.907V100.185C58.9102 98.7081 59.5181 97.318 60.6472 96.1886C61.7762 95.0591 63.1658 94.4509 64.6423 94.4509H71.1561C72.6326 94.4509 74.0222 95.0591 75.1512 96.1886C76.2803 97.318 76.8883 98.7081 76.8883 100.185V119.82C76.8883 121.384 76.2803 122.687 75.1512 123.817C74.0222 124.946 72.6326 125.554 71.1561 125.554V125.641ZM71.1561 119.907V100.272H64.6423V119.907H71.1561Z" fill="#283272"/>
<path d="M95.3008 125.641H88.9607C87.3973 125.641 86.0946 125.033 84.9655 123.903C83.8365 122.774 83.2285 121.384 83.2285 119.907V95.9279C83.2285 94.9722 83.6628 94.5378 84.6181 94.5378H87.4842C88.4396 94.5378 88.8738 94.9722 88.8738 95.9279V119.907H95.3008V95.9279C95.3008 94.9722 95.735 94.5378 96.6904 94.5378H99.6433C100.599 94.5378 101.033 94.9722 101.033 95.9279V119.82C101.033 121.384 100.425 122.687 99.2959 123.817C98.08 124.946 96.7772 125.554 95.2139 125.554L95.3008 125.641Z" fill="#283272"/>
<path d="M119.011 125.641H113.192C111.629 125.641 110.326 125.033 109.197 123.903C108.068 122.774 107.46 121.384 107.46 119.907V118.778C107.46 117.822 107.894 117.387 108.849 117.387H111.802C112.758 117.387 113.192 117.822 113.192 118.778V119.907H119.011V112.957H113.192C111.629 112.957 110.326 112.348 109.197 111.219C108.068 110.089 107.46 108.699 107.46 107.222V100.272C107.46 98.795 108.068 97.4049 109.197 96.2754C110.326 95.146 111.715 94.5378 113.192 94.5378H119.011C120.487 94.5378 121.877 95.146 123.006 96.2754C124.135 97.4049 124.743 98.795 124.743 100.272V101.228C124.743 102.183 124.309 102.618 123.353 102.618H120.4C119.445 102.618 119.011 102.183 119.011 101.228V100.272H113.192V107.222H119.011C120.487 107.222 121.877 107.831 123.006 108.96C124.135 110.089 124.743 111.48 124.743 112.957V119.907C124.743 121.471 124.135 122.774 123.006 123.903C121.877 125.033 120.487 125.641 119.011 125.641Z" fill="#283272"/>
<path d="M146.803 100.272H142.547V124.251C142.547 125.207 142.113 125.641 141.158 125.641H138.205C137.249 125.641 136.815 125.207 136.815 124.251V100.272H132.56C131.604 100.272 131.17 99.8375 131.17 98.8819V95.9279C131.17 94.9722 131.604 94.5378 132.56 94.5378H146.89C147.845 94.5378 148.28 94.9722 148.28 95.9279V98.8819C148.28 99.8375 147.845 100.272 146.89 100.272H146.803Z" fill="#283272"/>
<path d="M166.866 125.641H160.352C158.788 125.641 157.486 125.033 156.357 123.903C155.228 122.774 154.62 121.471 154.62 119.907V100.185C154.62 98.7081 155.228 97.318 156.357 96.1886C157.486 95.0591 158.875 94.4509 160.352 94.4509H166.866C168.342 94.4509 169.732 95.0591 170.861 96.1886C171.99 97.318 172.598 98.7081 172.598 100.185V119.82C172.598 121.384 171.99 122.687 170.861 123.817C169.732 124.946 168.342 125.554 166.866 125.554V125.641ZM166.866 119.907V100.272H160.352V119.907H166.866Z" fill="#283272"/>
<path d="M190.663 124.685L184.757 109.308V124.164C184.757 125.12 184.323 125.554 183.367 125.554H180.501C179.546 125.554 179.112 125.12 179.112 124.164V95.9279C179.112 94.9722 179.546 94.5378 180.501 94.5378H184.236C184.844 94.5378 185.278 94.7985 185.539 95.4066L191.444 110.785V95.9279C191.444 94.9722 191.879 94.5378 192.834 94.5378H195.7C196.655 94.5378 197.09 94.9722 197.09 95.9279V124.164C197.09 125.12 196.655 125.554 195.7 125.554H191.965C191.271 125.554 190.836 125.294 190.663 124.685Z" fill="#283272"/>
<path d="M214.981 125.641H209.162C207.599 125.641 206.296 125.033 205.167 123.903C204.038 122.774 203.43 121.384 203.43 119.907V118.778C203.43 117.822 203.864 117.387 204.819 117.387H207.772C208.728 117.387 209.162 117.822 209.162 118.778V119.907H214.981V112.957H209.162C207.599 112.957 206.296 112.348 205.167 111.219C204.038 110.089 203.43 108.699 203.43 107.222V100.272C203.43 98.795 204.038 97.4049 205.167 96.2754C206.296 95.146 207.685 94.5378 209.162 94.5378H214.981C216.457 94.5378 217.847 95.146 218.976 96.2754C220.105 97.4049 220.713 98.795 220.713 100.272V101.228C220.713 102.183 220.279 102.618 219.323 102.618H216.37C215.415 102.618 214.981 102.183 214.981 101.228V100.272H209.162V107.222H214.981C216.457 107.222 217.847 107.831 218.976 108.96C220.105 110.089 220.713 111.48 220.713 112.957V119.907C220.713 121.471 220.105 122.774 218.976 123.903C217.847 125.033 216.457 125.641 214.981 125.641Z" fill="#283272"/>
<path d="M84.7916 166.127L92.4345 176.727H87.8314L80.7097 166.562H80.0149V176.727H76.2803V151.879H80.6228C83.9231 151.879 86.2681 152.487 87.7446 153.704C89.3079 155.094 90.1764 156.918 90.1764 159.177C90.1764 160.915 89.6553 162.479 88.6999 163.695C87.6577 164.998 86.355 165.78 84.7048 166.127H84.7916ZM80.1886 163.347H81.4045C84.9653 163.347 86.7024 161.957 86.7024 159.264C86.7024 156.744 84.9653 155.441 81.4913 155.441H80.1886V163.347Z" fill="white"/>
<path d="M99.643 151.966V166.909C99.643 169.081 99.9904 170.558 100.685 171.601C101.727 172.991 103.204 173.773 105.028 173.773C106.852 173.773 108.415 173.078 109.457 171.601C110.152 170.645 110.499 169.081 110.499 166.909V151.966H114.234V167.952C114.234 170.558 113.452 172.73 111.802 174.381C109.978 176.293 107.72 177.248 105.028 177.248C102.335 177.248 100.077 176.293 98.3403 174.381C96.6901 172.73 95.9084 170.558 95.9084 167.952V151.966H99.643Z" fill="white"/>
<path d="M132.907 163.782H143.155V164.564C143.155 166.388 142.895 168.039 142.461 169.516C142.026 170.819 141.331 172.122 140.289 173.252C137.944 175.858 135.078 177.161 131.517 177.161C127.956 177.161 125.09 175.945 122.572 173.425C120.14 170.906 118.837 167.865 118.837 164.39C118.837 160.915 120.053 157.7 122.572 155.267C125.09 152.748 128.13 151.532 131.778 151.532C133.689 151.532 135.512 151.966 137.25 152.748C138.813 153.53 140.463 154.833 142.026 156.571L139.334 159.09C137.336 156.397 134.818 155.007 131.865 155.007C129.259 155.007 127.001 155.876 125.264 157.7C123.527 159.438 122.572 161.697 122.572 164.39C122.572 167.083 123.527 169.429 125.525 171.253C127.349 172.904 129.346 173.773 131.517 173.773C133.341 173.773 134.991 173.165 136.468 171.948C137.944 170.732 138.726 169.168 138.9 167.431H132.733V163.869L132.907 163.782Z" fill="white"/>
<path d="M147.845 176.727V151.879H151.58C153.23 151.879 154.533 151.966 155.575 152.227C156.53 152.487 157.399 152.922 158.094 153.53C158.788 154.138 159.31 154.92 159.744 155.876C160.178 156.831 160.352 157.787 160.352 158.743C160.352 160.48 159.657 162.044 158.354 163.26C159.657 163.695 160.699 164.477 161.481 165.606C162.262 166.736 162.61 168.039 162.61 169.516C162.61 171.427 161.915 173.078 160.525 174.468C159.657 175.25 158.788 175.858 157.746 176.206C156.617 176.553 155.228 176.64 153.491 176.64H147.845V176.727ZM151.58 162.565H152.796C154.185 162.565 155.228 162.218 155.835 161.61C156.443 161.002 156.791 160.046 156.791 158.916C156.791 157.787 156.443 156.831 155.835 156.223C155.141 155.615 154.185 155.354 152.969 155.354H151.667V162.565H151.58ZM151.58 173.252H153.925C155.575 173.252 156.878 172.904 157.659 172.296C158.528 171.601 158.875 170.645 158.875 169.603C158.875 168.56 158.441 167.604 157.659 166.909C156.878 166.214 155.488 165.867 153.491 165.867H151.58V173.339V173.252Z" fill="white"/>
<path d="M171.121 166.041L163.044 151.966H167.387L173.032 161.87L178.677 151.966H183.02L174.856 166.041V176.727H171.121V166.041Z" fill="white"/>
<path d="M118.577 51.8794H113.973L112.758 54.4858H111.021L116.318 43.1045L121.443 54.4858H119.706L118.577 51.8794ZM117.882 50.4024L116.318 46.7534L114.668 50.4024H117.969H117.882Z" fill="white"/>
<path d="M128.825 45.3634L127.522 46.1453C127.522 46.1453 127.001 45.4502 126.827 45.2765C126.567 45.1027 126.306 45.0158 125.959 45.0158C125.525 45.0158 125.177 45.1027 124.83 45.3634C124.569 45.624 124.396 45.9715 124.396 46.319C124.396 46.8403 124.743 47.2747 125.525 47.6223L126.567 48.0567C127.435 48.4042 128.043 48.8386 128.478 49.3599C128.912 49.8811 129.086 50.4893 129.086 51.1844C129.086 52.14 128.738 53.0089 128.13 53.617C127.435 54.2252 126.654 54.5727 125.698 54.5727C124.743 54.5727 123.961 54.3121 123.353 53.7039C122.745 53.1826 122.398 52.4007 122.224 51.3581L123.875 51.0106C123.875 51.6188 124.048 52.0532 124.222 52.3138C124.569 52.7482 125.004 53.0089 125.698 53.0089C126.219 53.0089 126.654 52.8351 126.914 52.4876C127.262 52.14 127.435 51.7056 127.435 51.1844C127.435 51.0106 127.435 50.75 127.349 50.5762C127.349 50.4024 127.175 50.2287 127.088 50.0549C127.001 49.8811 126.827 49.7943 126.654 49.6205C126.48 49.5336 126.219 49.3599 125.959 49.273L124.917 48.8386C123.44 48.2304 122.745 47.2747 122.745 46.1453C122.745 45.3634 123.093 44.6683 123.701 44.147C124.309 43.6257 125.09 43.3651 125.959 43.3651C127.175 43.3651 128.13 43.9733 128.825 45.1896V45.3634Z" fill="white"/>
<path d="M137.163 45.3634L135.86 46.1453C135.86 46.1453 135.339 45.4502 135.165 45.2765C134.905 45.1027 134.644 45.0158 134.297 45.0158C133.862 45.0158 133.515 45.1027 133.168 45.3634C132.907 45.624 132.733 45.9715 132.733 46.319C132.733 46.8403 133.081 47.2747 133.862 47.6223L134.905 48.0567C135.773 48.4042 136.381 48.8386 136.815 49.3599C137.25 49.8811 137.423 50.4893 137.423 51.1844C137.423 52.14 137.076 53.0089 136.468 53.617C135.773 54.2252 134.991 54.5727 134.036 54.5727C133.081 54.5727 132.299 54.3121 131.691 53.7039C131.083 53.1826 130.736 52.4007 130.562 51.3581L132.212 51.0106C132.212 51.6188 132.386 52.0532 132.56 52.3138C132.907 52.7482 133.341 53.0089 134.036 53.0089C134.557 53.0089 134.991 52.8351 135.252 52.4876C135.599 52.14 135.773 51.7056 135.773 51.1844C135.773 51.0106 135.773 50.75 135.686 50.5762C135.686 50.4024 135.513 50.2287 135.426 50.0549C135.339 49.8811 135.165 49.7943 134.991 49.6205C134.818 49.5336 134.557 49.3599 134.297 49.273L133.254 48.8386C131.778 48.2304 131.083 47.2747 131.083 46.1453C131.083 45.3634 131.431 44.6683 132.038 44.147C132.646 43.6257 133.428 43.3651 134.297 43.3651C135.513 43.3651 136.468 43.9733 137.163 45.1896V45.3634Z" fill="white"/>
<path d="M112.15 206.44H108.936V193.234H105.983L107.807 190.193H112.237V206.44H112.15ZM109.371 205.919H111.716V190.541H107.981L106.678 192.713H109.371V205.919Z" fill="white"/>
<path d="M118.403 207.135L116.058 205.311L119.271 200.706C118.056 200.706 116.927 200.185 115.971 199.142C115.016 198.1 114.582 196.883 114.582 195.406C114.582 193.842 115.103 192.539 116.145 191.497C117.187 190.367 118.403 189.846 119.879 189.846C121.356 189.846 122.572 190.367 123.614 191.497C124.656 192.539 125.177 193.842 125.177 195.319C125.177 196.623 124.656 198.013 123.701 199.49L118.316 207.135H118.403ZM116.666 205.224L118.316 206.527L123.44 199.229C124.396 197.839 124.917 196.536 124.917 195.319C124.917 194.016 124.396 192.8 123.44 191.844C122.485 190.888 121.269 190.367 119.966 190.367C118.664 190.367 117.448 190.888 116.579 191.844C115.624 192.887 115.189 194.103 115.189 195.493C115.189 196.796 115.624 197.926 116.492 198.882C117.361 199.837 118.403 200.272 119.532 200.272C119.532 200.272 119.706 200.272 119.879 200.272H120.314L116.84 205.224H116.666ZM119.966 197.839C119.271 197.839 118.664 197.578 118.229 197.057C117.708 196.536 117.534 195.928 117.534 195.233C117.534 194.537 117.795 193.929 118.229 193.408C118.75 192.887 119.271 192.626 119.966 192.626C120.661 192.626 121.269 192.887 121.703 193.408C122.224 193.929 122.398 194.537 122.398 195.233C122.398 195.928 122.138 196.536 121.703 197.057C121.182 197.578 120.661 197.839 119.966 197.839ZM119.966 193.061C119.445 193.061 118.924 193.234 118.577 193.669C118.142 194.103 117.969 194.624 117.969 195.146C117.969 195.754 118.142 196.275 118.577 196.709C119.011 197.144 119.445 197.318 120.053 197.318C120.661 197.318 121.095 197.144 121.443 196.709C121.877 196.275 122.051 195.754 122.051 195.146C122.051 194.537 121.877 194.016 121.443 193.582C121.008 193.147 120.574 192.974 119.966 192.974V193.061Z" fill="white"/>
<path d="M132.386 206.614C130.91 206.614 129.694 205.919 128.651 204.442C127.522 202.878 127.001 200.793 127.001 198.1C127.001 195.406 127.522 193.495 128.651 191.931C129.694 190.541 130.91 189.759 132.386 189.759C133.862 189.759 135.078 190.454 136.121 191.931C137.25 193.495 137.771 195.58 137.771 198.186C137.771 200.793 137.25 202.878 136.121 204.442C135.078 205.832 133.862 206.614 132.386 206.614ZM132.386 190.28C131.083 190.28 129.867 190.975 128.999 192.279C127.957 193.756 127.435 195.667 127.435 198.186C127.435 200.793 127.957 202.791 128.999 204.268C129.954 205.571 131.083 206.266 132.386 206.266C133.689 206.266 134.905 205.571 135.773 204.268C136.815 202.791 137.336 200.793 137.336 198.273C137.336 195.754 136.815 193.756 135.773 192.279C134.818 190.975 133.689 190.28 132.386 190.28ZM132.386 204.094C131.517 204.094 130.823 203.573 130.302 202.444C129.78 201.314 129.52 199.924 129.52 198.186C129.52 196.449 129.78 195.146 130.302 194.103C130.823 192.974 131.517 192.452 132.386 192.452C133.254 192.452 133.862 192.974 134.47 194.103C134.991 195.233 135.252 196.623 135.252 198.273C135.252 199.924 134.991 201.314 134.47 202.444C133.949 203.573 133.254 204.094 132.386 204.094ZM132.386 192.887C131.691 192.887 131.17 193.321 130.649 194.277C130.128 195.319 129.867 196.623 129.867 198.186C129.867 199.75 130.128 201.14 130.649 202.27C131.083 203.226 131.691 203.66 132.386 203.66C133.081 203.66 133.602 203.226 134.123 202.27C134.644 201.227 134.905 199.924 134.905 198.273C134.905 196.623 134.644 195.319 134.123 194.277C133.689 193.321 133.081 192.887 132.386 192.887Z" fill="white"/>
<path d="M145.24 206.614C143.242 206.614 141.766 205.832 140.724 204.355C140.29 203.747 140.029 202.878 139.942 201.749V201.227H142.982V201.575C143.156 202.183 143.416 202.704 143.764 203.052C144.111 203.399 144.632 203.573 145.24 203.573C145.848 203.573 146.369 203.399 146.803 202.965C147.238 202.53 147.411 202.009 147.411 201.314C147.411 200.445 147.151 199.837 146.543 199.49C146.195 199.316 145.587 199.142 144.806 199.142H144.372V196.275H144.806C145.935 196.275 146.369 196.101 146.543 196.014C147.064 195.667 147.238 195.233 147.238 194.537C147.238 194.016 147.064 193.582 146.716 193.234C146.369 192.887 145.935 192.713 145.327 192.713C144.806 192.713 144.372 192.8 144.111 193.061C143.85 193.321 143.677 193.756 143.503 194.451V194.798H140.203V194.277C140.55 192.713 141.071 191.584 141.94 190.802C142.808 190.02 143.937 189.672 145.327 189.672C146.716 189.672 148.019 190.107 148.888 190.975C149.843 191.844 150.277 192.974 150.277 194.364C150.277 195.754 149.843 196.796 148.888 197.665C149.93 198.534 150.538 199.75 150.538 201.314C150.538 202.791 150.017 204.094 148.975 205.05C147.932 206.006 146.63 206.527 145.066 206.527L145.24 206.614ZM140.463 201.749C140.55 202.791 140.811 203.573 141.158 204.094C142.027 205.484 143.416 206.179 145.327 206.179C146.803 206.179 148.019 205.745 148.888 204.876C149.756 204.007 150.277 202.878 150.277 201.488C150.277 199.924 149.756 198.795 148.627 198.013L148.367 197.839L148.627 197.665C149.583 196.883 150.017 195.841 150.017 194.537C150.017 193.234 149.583 192.279 148.714 191.497C147.846 190.715 146.716 190.28 145.414 190.28C144.111 190.28 143.069 190.628 142.287 191.323C141.505 192.018 141.071 193.061 140.811 194.537H143.156C143.329 193.756 143.59 193.234 143.937 192.974C144.285 192.626 144.806 192.539 145.414 192.539C146.109 192.539 146.63 192.713 147.064 193.147C147.498 193.582 147.759 194.103 147.759 194.711C147.759 195.58 147.498 196.188 146.89 196.536C146.543 196.709 145.848 196.883 144.893 196.883V198.882C145.761 198.882 146.456 198.968 146.89 199.229C147.672 199.663 148.019 200.358 148.019 201.401C148.019 202.183 147.759 202.791 147.324 203.312C146.803 203.834 146.195 204.094 145.501 204.094C144.806 204.094 144.198 203.921 143.677 203.486C143.242 203.052 142.895 202.53 142.808 201.749H140.55H140.463Z" fill="white"/>
<path d="M127.957 213.477L126.567 218.43L121.616 219.907L126.567 221.297L127.957 226.249L129.433 221.297L134.384 219.907L129.433 218.43L127.957 213.477Z" fill="white"/>
<path d="M162.784 191.844L161.394 196.796L156.444 198.273L161.394 199.663L162.784 204.616L164.173 199.663L169.211 198.273L164.173 196.796L162.784 191.844Z" fill="white"/>
<path d="M93.2163 191.844L91.7398 196.796L86.7893 198.273L91.7398 199.663L93.2163 204.616L94.6059 199.663L99.5564 198.273L94.6059 196.796L93.2163 191.844Z" fill="white"/>
<path d="M87.571 75.6847C93.3032 57.0923 93.7374 38.7604 87.571 20.2549C88.8738 20.168 90.0029 19.9073 91.1319 19.9073C99.0353 19.8204 106.418 21.2974 113.366 25.4677C119.272 29.0298 125.872 30.4199 132.82 29.8986C138.552 29.4642 144.371 29.5511 149.235 32.8525C155.228 36.9359 161.828 37.8916 168.776 38.4998C172.858 38.8473 181.717 39.8899 186.147 44.5814C188.839 47.4485 192.574 48.2304 196.482 47.7091C196.742 47.7091 197.698 47.5354 198.306 47.3616C197.611 49.5336 196.308 51.0975 194.745 52.3138C191.705 54.5727 188.318 55.8759 184.496 56.3103C182.238 56.571 179.98 56.8316 177.809 57.4398C176.506 57.7873 175.03 58.4823 174.074 59.438C169.471 63.7821 164 65.5197 157.746 65.5197C150.19 65.5197 143.156 67.1704 136.815 71.6882C133.255 74.2077 129.346 75.9454 124.743 75.0766C123.961 74.9028 123.006 74.729 122.311 74.2946C115.19 69.69 107.547 69.7768 99.7301 71.6882C96.1693 72.557 92.6952 74.034 89.2212 75.1634C88.787 75.3372 88.4395 75.4241 87.6579 75.6847H87.571ZM98.6011 28.5085C100.686 40.2374 100.946 51.8794 99.209 63.5214C101.728 63.1739 103.986 62.7395 106.244 62.6526C111.976 62.3051 117.448 63.2608 122.572 66.1278C126.22 68.213 129.694 67.8655 132.125 65.5197C136.729 61.1756 142.2 58.6561 148.367 57.7873C152.275 57.266 156.27 57.266 160.178 57.0923C162.957 56.9185 165.563 56.2234 167.821 54.5727C169.645 53.1826 171.643 51.8794 173.64 50.75C175.03 49.968 176.68 49.5336 178.677 48.7517C176.593 47.3616 170.34 46.3191 167.387 46.4059C162.784 46.4059 158.268 46.4059 154.012 44.5814C151.406 43.3651 148.888 41.8881 146.369 40.3243C142.374 37.8047 138.118 36.6753 133.341 37.5441C131.083 37.8916 128.651 37.8916 126.393 37.631C121.53 37.1966 117.1 35.3721 112.758 33.2001C108.415 30.9412 103.812 29.1167 98.5142 28.5085H98.6011Z" fill="white"/>
</svg>
