<svg width="256" height="256" viewBox="0 0 256 256" fill="none" xmlns="http://www.w3.org/2000/svg">
<g clip-path="url(#clip0_2559_2892)">
<path d="M127.998 3.26221L43.4321 25.3302V153.838C43.4321 206.925 128.002 248.15 128.002 248.15C128.002 248.15 212.572 206.925 212.572 153.838V25.3302L127.998 3.26221Z" fill="white"/>
<path d="M127.998 5.08267L212.013 28.2781V149.782C212.013 203.436 127.993 243.774 127.993 243.774C127.993 243.774 43.9865 203.436 43.9865 149.782V28.2781L127.998 5.08267ZM127.998 0L126.695 0.360407L42.6839 23.5558L39.0857 24.5493V149.786C39.0857 163.015 43.7833 176.724 53.0444 190.54C60.264 201.306 70.2781 212.187 82.8142 222.88C103.979 240.932 128.002 256.005 128.002 256.005C128.002 256.005 152.026 240.932 173.19 222.88C185.726 212.187 195.741 201.306 202.96 190.54C212.221 176.724 216.919 163.015 216.919 149.786V24.5493L213.321 23.5558L129.305 0.360407L128.002 0H127.998Z" fill="#E30613"/>
<path d="M125.36 25.9493L68.9063 40.6797C64.2965 41.8811 61.0817 46.0443 61.0817 50.8081V144.408C61.0817 179.353 107.392 207.802 122.963 216.378C126.099 218.106 129.901 218.106 133.037 216.378C148.608 207.802 194.918 179.349 194.918 144.408V50.8127C194.918 46.0489 191.704 41.8857 187.094 40.6844L130.64 25.9539C128.908 25.5011 127.088 25.5011 125.356 25.9539L125.36 25.9493Z" fill="#E52320"/>
<path d="M71.6269 81.2811L71.8025 81.2349L84.4032 98.442L94.445 95.8776L77.4285 73.6756L81.3685 47.5923L72.5415 49.8471L69.8348 69.5679L69.6592 69.6141L61.0817 57.8084V73.1165L64.1025 77.081L61.0817 96.5846V104.407L68.7354 102.448L71.6269 81.2811Z" fill="#ED6F74"/>
<path d="M108.399 40.6429L111.318 82.0111L111.143 82.0573L93.8583 44.3625L84.2507 46.8206L105.983 92.888L120.178 89.2609L117.143 38.4065L108.399 40.6429Z" fill="#ED6F74"/>
<path d="M169.477 144.38L161.707 94.667L157.767 87.1678L148.395 28.9851L144.104 27.6174L152.104 87.9487L150.936 95.9562L157.375 150.627L169.477 144.38Z" fill="white"/>
<path d="M86.5232 144.38L94.2924 94.667L98.2325 87.1678L107.605 28.9851L111.896 27.6174L103.6 88.1474L105.064 95.9562L98.6251 150.627L86.5232 144.38Z" fill="white"/>
<path d="M154.839 80.3339H101.942V83.0693H154.839V80.3339Z" fill="white"/>
<path d="M127.998 9.62939L47.3584 31.4294V145.637C47.3584 196.071 127.998 238.206 127.998 238.206C127.998 238.206 208.637 196.071 208.637 145.637V31.4294L127.998 9.62939ZM198.221 127.788C198.221 137.163 189.135 140.411 182.692 141.538L173.786 131.23H129.069V123.92L128.654 108.141V108.081L128.681 108.016C128.769 107.813 128.829 107.605 128.815 107.42C128.801 107.235 128.727 107.073 128.584 106.935C128.298 106.653 127.831 106.482 127.374 106.376C126.436 106.158 125.434 106.131 124.446 106.163C123.457 106.2 122.459 106.302 121.499 106.5C121.263 106.551 121.023 106.611 120.81 106.685C120.598 106.764 120.376 106.861 120.196 106.972C120.113 107.023 120.039 107.078 119.979 107.138L120.048 129.391L120.081 140.605L120.09 142.342H119.36V140.605L119.328 129.391L119.272 110.312H108.806L109.392 111.468V125.279L105.937 128.735V134.922L104.939 135.92V142.398L79.0681 142.49C64.4304 142.49 58.8691 132.501 57.7928 127.612V49.362C57.7928 44.0668 61.4003 39.4508 66.5367 38.1755L125.305 23.5651C127.083 23.1216 128.945 23.1216 130.723 23.5651L189.505 38.1801C194.637 39.4554 198.235 44.0621 198.235 49.3481V127.788H198.221Z" fill="#284899"/>
<path d="M122.021 98.2248L120.589 95.0043H117.388V95.032C115.559 100.993 110.076 107.997 108.796 109.587H119.254V107.951C119.254 107.951 119.245 107.947 119.245 107.942C119.198 107.863 119.161 107.776 119.138 107.683C119.083 107.498 119.092 107.277 119.161 107.092C119.185 107.027 119.217 106.972 119.249 106.916V106.893L119.272 106.828C119.901 105.151 120.473 103.441 121.004 101.723C121.365 100.563 121.702 99.3938 122.021 98.2248Z" fill="#284899"/>
<path d="M124.469 88.7111C124.399 89.5982 124.302 90.4854 124.192 91.3679C124.071 92.2689 123.933 93.1653 123.78 94.0571C123.702 94.5053 123.605 94.9489 123.494 95.3879L123.171 96.7093C122.968 97.5226 122.75 98.3312 122.524 99.1398L122.496 99.283V99.2692C122.238 100.161 121.974 101.053 121.702 101.94C121.263 103.349 120.801 104.749 120.298 106.14C120.39 106.103 120.487 106.066 120.584 106.029C120.847 105.941 121.101 105.886 121.36 105.83C122.381 105.632 123.402 105.544 124.427 105.516C125.453 105.502 126.487 105.535 127.517 105.784C127.776 105.849 128.03 105.927 128.284 106.043C128.303 106.052 128.492 106.14 128.51 106.149C127.097 102.425 125.54 94.5654 124.653 87.4358C124.607 87.8008 124.547 88.2352 124.473 88.7065L124.469 88.7111Z" fill="#284899"/>
<path d="M88.5325 170.533H103.013V174.793H98.1123V200.359H93.4286V174.793H88.5278V170.533H88.5325Z" fill="white"/>
<path d="M109.748 200.359H105.059V170.533H109.748V183.313H115.073V170.533H119.845V200.359H115.073V187.574H109.748V200.359Z" fill="white"/>
<path d="M127.938 183.101H134.372V187.361H127.938V196.094H136.03V200.354H123.249V170.528H136.03V174.788H127.938V183.096V183.101Z" fill="white"/>
<path d="M151.92 170.533V174.71L143.019 196.099H151.92V200.359H138.206V196.182L147.107 174.793H138.631V170.533H151.92Z" fill="white"/>
<path d="M159.375 183.101H165.809V187.361H159.375V196.094H167.467V200.354H154.686V170.528H167.467V174.788H159.375V183.096V183.101Z" fill="white"/>
<path d="M77.262 167.215H73.904L73.3312 163.907H69.2434L68.6706 167.215H65.6128L69.0032 148.987H73.8763L77.2666 167.215H77.262ZM69.6683 161.435H72.8786L71.3035 152.217H71.2434L69.6683 161.435Z" fill="white"/>
<path d="M83.0451 163.86H83.1052L85.6179 148.991H88.6757L85.4054 167.22H80.44L77.1697 148.991H80.5277L83.0405 163.86H83.0451Z" fill="white"/>
<path d="M100.242 167.215H96.8837L96.3109 163.907H92.2231L91.6457 167.215H88.5879L91.9783 148.987H96.8514L100.242 167.215ZM92.6434 161.435H95.8536L94.2786 152.217H94.2185L92.6434 161.435Z" fill="white"/>
<path d="M104.815 154.014H104.755V167.215H101.757V148.987H105.932L109.291 159.896H109.351V148.987H112.316V167.215H108.898L104.81 154.014H104.815Z" fill="white"/>
<path d="M113.743 148.991H124.034V151.597H120.552V167.22H117.221V151.597H113.739V148.991H113.743Z" fill="white"/>
<path d="M124.367 156.8H130.418V159.406H124.367V156.8Z" fill="white"/>
<path d="M137.688 157.064H142.349V162.844C142.349 165.76 140.654 167.428 137.384 167.428C134.113 167.428 132.418 165.76 132.418 162.844V153.367C132.418 150.451 134.113 148.783 137.384 148.783C140.654 148.783 142.349 150.451 142.349 153.367V155.137H139.203V153.182C139.203 151.879 138.538 151.385 137.476 151.385C136.414 151.385 135.753 151.879 135.753 153.182V163.024C135.753 164.327 136.418 164.794 137.476 164.794C138.534 164.794 139.203 164.327 139.203 163.024V159.665H137.688V157.059V157.064Z" fill="white"/>
<path d="M155.245 167.215H151.887L151.315 163.907H147.227L146.654 167.215H143.596L146.987 148.987H151.86L155.25 167.215H155.245ZM147.647 161.435H150.857L149.282 152.217H149.222L147.647 161.435Z" fill="white"/>
<path d="M163.749 167.215C163.569 166.748 163.444 166.462 163.444 164.974V162.109C163.444 160.418 162.779 159.79 161.264 159.79H160.114V167.21H156.784V148.982H161.809C165.259 148.982 166.742 150.364 166.742 153.173V154.605C166.742 156.481 166.045 157.678 164.562 158.279V158.33C166.225 158.93 166.77 160.284 166.77 162.183V164.997C166.77 165.884 166.802 166.531 167.135 167.21H163.744L163.749 167.215ZM160.118 151.593V157.193H161.421C162.664 157.193 163.416 156.726 163.416 155.266V153.469C163.416 152.166 162.904 151.593 161.721 151.593H160.118Z" fill="white"/>
<path d="M168.959 148.991H174.225C177.555 148.991 179.19 150.581 179.19 153.496V162.715C179.19 165.63 177.555 167.22 174.225 167.22H168.959V148.991ZM172.285 151.593V164.609H174.16C175.218 164.609 175.856 164.142 175.856 162.839V153.362C175.856 152.059 175.218 151.593 174.16 151.593H172.285Z" fill="white"/>
<path d="M184.636 156.671H189.205V159.277H184.636V164.614H190.387V167.22H181.306V148.991H190.387V151.597H184.636V156.675V156.671Z" fill="white"/>
<path d="M117.586 207.867H119.836V215.939H120.547V217.788H116.99V215.939H117.674V209.715H116.801L117.586 207.867Z" fill="white"/>
<path d="M126.238 216.254C126.238 217.349 125.804 217.788 124.598 217.788H121.577L121.212 215.939H123.942C124.058 215.939 124.118 215.856 124.118 215.75V214.341H121.998C121.36 214.341 120.894 213.985 120.894 213.259V209.087C120.894 208.306 121.429 207.872 122.127 207.872H125C125.697 207.872 126.233 208.311 126.233 209.087V216.254H126.238ZM124.118 209.771C124.118 209.66 124.076 209.605 123.956 209.605H123.101C123 209.605 122.94 209.646 122.94 209.771V212.7C122.94 212.784 122.981 212.839 123.069 212.839H124.113V209.776L124.118 209.771Z" fill="white"/>
<path d="M129.388 207.867H132.321V214.405H132.903V215.976H132.321V217.783H130.247V215.976H127.037V213.731L129.388 208.204V207.863V207.867ZM130.242 214.41V210.593L129.051 213.837V214.41H130.242Z" fill="white"/>
<path d="M139.259 211.425C139.259 211.933 139.143 212.34 138.548 212.589C139.143 212.714 139.374 213.246 139.374 213.712V216.23C139.374 217.326 138.894 217.792 137.688 217.792H135.379C134.173 217.792 133.693 217.326 133.693 216.23V213.712C133.693 213.246 133.998 212.686 134.566 212.589C133.998 212.414 133.855 211.892 133.855 211.425V209.387C133.855 208.292 134.39 207.867 135.596 207.867H137.513C138.718 207.867 139.254 208.292 139.254 209.387V211.425H139.259ZM135.905 209.826V211.661C135.905 211.85 135.993 211.906 136.21 211.906H136.88C137.097 211.906 137.171 211.85 137.171 211.661V209.826C137.171 209.674 137.143 209.609 136.926 209.609H136.155C135.965 209.609 135.91 209.678 135.91 209.826H135.905ZM137.166 215.792V213.643C137.166 213.49 137.106 213.412 136.889 213.412H136.178C135.989 213.412 135.901 213.495 135.901 213.643V215.792C135.901 216.036 136.016 216.064 136.192 216.064H136.875C137.051 216.064 137.166 216.036 137.166 215.792Z" fill="white"/>
<path d="M112.14 209.027L112.727 210.838H114.63L113.092 211.961L113.679 213.772L112.14 212.65L110.598 213.772L111.189 211.961L109.646 210.838H111.549L112.14 209.027Z" fill="white"/>
<path d="M105.646 209.027L106.233 210.838H108.14L106.598 211.961L107.184 213.772L105.646 212.65L104.103 213.772L104.695 211.961L103.152 210.838H105.059L105.646 209.027Z" fill="white"/>
<path d="M150.723 209.027L151.31 210.838H153.213L151.675 211.961L152.261 213.772L150.723 212.65L149.181 213.772L149.772 211.961L148.229 210.838H150.132L150.723 209.027Z" fill="white"/>
<path d="M144.229 209.027L144.816 210.838H146.723L145.18 211.961L145.767 213.772L144.229 212.65L142.686 213.772L143.277 211.961L141.735 210.838H143.642L144.229 209.027Z" fill="white"/>
<path d="M158.146 84.9774L176.137 114.531L156.308 86.1788L158.146 84.9774Z" fill="#284899"/>
<path d="M160.437 83.9379L177.514 114.018L159.356 84.5755L160.437 83.9379Z" fill="#284899"/>
<path d="M169.204 71.6793L178.308 100.526L168.017 72.0813L169.204 71.6793Z" fill="#284899"/>
<path d="M170.451 69.3136L179.555 98.16L169.264 69.7156L170.451 69.3136Z" fill="#284899"/>
<path d="M143.134 84.2705L164.738 107.78L142.451 84.9174L143.134 84.2705Z" fill="#284899"/>
<path d="M146.308 84.4323L166.738 108.284L145.601 85.056L146.308 84.4323Z" fill="#284899"/>
<path d="M148.83 95.5494C148.83 95.5494 148.964 95.6788 149.222 95.9098C149.485 96.1409 149.883 96.4551 150.4 96.8432C151.435 97.6056 152.991 98.6129 155.01 99.4169C156.017 99.8142 157.148 100.138 158.354 100.35C159.564 100.554 160.858 100.609 162.179 100.503C163.504 100.396 164.848 100.082 166.169 99.634L166.668 99.4631L167.158 99.2598C167.486 99.1258 167.814 98.9918 168.128 98.8254C168.442 98.6637 168.775 98.5251 169.079 98.3403L169.546 98.0769L169.777 97.9429L169.892 97.8782L169.92 97.8597L169.934 97.8505C169.934 97.8505 169.966 97.832 169.925 97.8551L169.985 97.8181L170.922 97.2221C171.227 97.0234 171.481 96.8108 171.768 96.6075L171.976 96.4551L172.174 96.2841L172.571 95.9422C172.844 95.725 173.075 95.4662 173.32 95.2214C174.271 94.2233 175.07 93.1236 175.611 91.9315C176.156 90.744 176.465 89.4964 176.595 88.2858C176.719 87.0752 176.682 85.9016 176.548 84.825C176.276 82.6718 175.685 80.9113 175.223 79.71C174.987 79.1093 174.789 78.638 174.641 78.3238C174.493 78.0096 174.405 77.8433 174.405 77.8433C174.405 77.8433 174.516 77.9911 174.715 78.2822C174.909 78.5733 175.195 79.003 175.509 79.576C175.823 80.1489 176.188 80.8605 176.525 81.7153C176.867 82.5655 177.204 83.5543 177.435 84.6725C177.675 85.7907 177.823 87.0383 177.759 88.369C177.699 89.6951 177.454 91.1183 176.872 92.4767C176.304 93.8352 175.472 95.1474 174.41 96.261C174.142 96.5336 173.883 96.8247 173.588 97.0742L173.153 97.4577L172.936 97.6518L172.701 97.832C172.387 98.063 172.068 98.3218 171.758 98.5297L170.825 99.135L170.765 99.172L170.678 99.2228L170.553 99.2921L170.299 99.4307L169.795 99.708C169.463 99.902 169.107 100.05 168.765 100.216C168.424 100.387 168.068 100.53 167.712 100.669L167.181 100.882L166.636 101.062C165.195 101.547 163.698 101.801 162.252 101.875C160.802 101.949 159.393 101.787 158.109 101.492C156.82 101.196 155.652 100.748 154.631 100.235C153.606 99.7311 152.728 99.1627 151.994 98.6129C151.255 98.0676 150.659 97.5363 150.188 97.0788C149.712 96.626 149.379 96.2333 149.153 95.9699C148.927 95.7019 148.82 95.5494 148.82 95.5494H148.83Z" fill="#284899"/>
<path d="M159.985 106.26C159.985 106.26 160.382 106.657 161.162 107.23C161.938 107.803 163.107 108.561 164.622 109.162C165.38 109.462 166.225 109.702 167.135 109.859C168.045 110.012 169.015 110.053 170.008 109.975C171.001 109.896 172.013 109.661 173.006 109.319C173.989 108.982 174.983 108.496 175.874 107.96L176.576 107.512C176.807 107.36 176.997 107.203 177.209 107.05C177.62 106.731 178.022 106.385 178.378 106.006C179.094 105.257 179.694 104.43 180.101 103.534C180.512 102.642 180.743 101.704 180.84 100.794C180.932 99.8835 180.904 99.0056 180.807 98.197C180.599 96.5798 180.161 95.2583 179.814 94.3527C179.463 93.447 179.2 92.9526 179.2 92.9526C179.2 92.9526 179.283 93.0635 179.431 93.2807C179.579 93.4979 179.791 93.8213 180.027 94.251C180.262 94.6807 180.535 95.2167 180.789 95.859C181.047 96.4966 181.297 97.2406 181.472 98.0815C181.653 98.9178 181.763 99.8558 181.717 100.858C181.671 101.857 181.486 102.924 181.052 103.945C180.627 104.966 180.004 105.95 179.204 106.787C178.807 107.212 178.378 107.595 177.92 107.965C177.685 108.141 177.445 108.335 177.214 108.492L176.516 108.949C176.234 109.116 176.003 109.236 175.745 109.379C175.495 109.527 175.227 109.633 174.969 109.762C174.71 109.892 174.447 109.998 174.179 110.104L173.782 110.261L173.375 110.395C172.294 110.76 171.172 110.95 170.082 111.005C168.992 111.061 167.934 110.941 166.969 110.714C165.999 110.492 165.121 110.155 164.354 109.772C162.816 109.005 161.721 108.085 161.015 107.401C160.659 107.059 160.41 106.768 160.239 106.565C160.072 106.362 159.989 106.251 159.989 106.251L159.985 106.26Z" fill="#284899"/>
<path d="M171.024 115.312C171.024 115.312 171.084 115.372 171.204 115.474C171.324 115.575 171.504 115.723 171.74 115.899C171.976 116.074 172.271 116.268 172.622 116.476C172.798 116.578 172.992 116.675 173.19 116.781C173.394 116.878 173.615 116.971 173.842 117.072C174.077 117.155 174.317 117.239 174.571 117.317C174.83 117.373 175.093 117.451 175.371 117.497C175.925 117.581 176.511 117.617 177.117 117.562C177.722 117.516 178.331 117.373 178.932 117.165L179.38 116.994C179.532 116.938 179.68 116.883 179.823 116.8C180.105 116.647 180.391 116.499 180.673 116.347L181.103 116.074C181.241 115.982 181.357 115.885 181.486 115.792C181.736 115.598 181.98 115.386 182.193 115.159C182.627 114.707 182.992 114.203 183.237 113.658C183.74 112.567 183.786 111.394 183.666 110.419C183.542 109.434 183.274 108.635 183.066 108.085C182.853 107.535 182.692 107.235 182.692 107.235C182.692 107.235 182.904 107.503 183.195 108.025C183.482 108.547 183.856 109.328 184.073 110.349C184.179 110.858 184.248 111.426 184.221 112.036C184.193 112.641 184.082 113.288 183.819 113.907C183.56 114.526 183.181 115.127 182.696 115.635C182.456 115.894 182.198 116.125 181.916 116.351C181.773 116.458 181.629 116.573 181.486 116.67L181.061 116.947C180.733 117.123 180.433 117.271 180.119 117.437C179.967 117.525 179.805 117.585 179.639 117.641L179.149 117.821C178.83 117.959 178.479 117.996 178.151 118.075C177.823 118.163 177.481 118.158 177.154 118.19C176.493 118.232 175.851 118.144 175.264 118.019C174.973 117.955 174.696 117.853 174.424 117.775C174.165 117.668 173.916 117.557 173.675 117.451C173.449 117.326 173.227 117.211 173.024 117.091C172.83 116.957 172.641 116.841 172.47 116.712C172.133 116.462 171.86 116.222 171.648 116.014C171.431 115.806 171.278 115.631 171.176 115.506C171.075 115.381 171.024 115.316 171.024 115.316V115.312Z" fill="#284899"/>
<path d="M177.315 122.903C177.315 122.903 177.495 123.074 177.846 123.328C178.022 123.453 178.239 123.596 178.498 123.744C178.627 123.818 178.77 123.888 178.918 123.961C179.066 124.031 179.227 124.095 179.394 124.169C179.565 124.229 179.74 124.285 179.925 124.345C180.114 124.382 180.304 124.442 180.507 124.47C180.909 124.53 181.338 124.548 181.773 124.511C182.211 124.474 182.655 124.368 183.094 124.216L183.422 124.091C183.532 124.049 183.643 124.012 183.745 123.948L184.364 123.62L184.678 123.421C184.78 123.356 184.863 123.287 184.955 123.218C185.135 123.079 185.311 122.926 185.468 122.76C185.782 122.432 186.05 122.067 186.23 121.674C186.595 120.889 186.636 120.039 186.558 119.322C186.475 118.606 186.285 118.015 186.138 117.613C185.985 117.206 185.874 116.984 185.874 116.984C185.874 116.984 186.031 117.178 186.253 117.557C186.466 117.936 186.752 118.509 186.918 119.258C187.001 119.632 187.057 120.052 187.034 120.501C187.015 120.949 186.937 121.429 186.743 121.887C186.553 122.344 186.272 122.792 185.916 123.167C185.74 123.356 185.546 123.532 185.338 123.698C185.232 123.777 185.126 123.864 185.02 123.934L184.71 124.137C184.465 124.271 184.248 124.377 184.013 124.497C183.902 124.562 183.782 124.604 183.657 124.65L183.297 124.779C183.061 124.881 182.803 124.909 182.558 124.964C182.313 125.029 182.059 125.024 181.819 125.047C181.329 125.075 180.858 125.01 180.424 124.913C180.207 124.863 180.003 124.789 179.805 124.729C179.611 124.65 179.431 124.567 179.255 124.488C179.089 124.391 178.927 124.313 178.779 124.216C178.636 124.114 178.498 124.026 178.378 123.934C178.133 123.749 177.934 123.569 177.777 123.412C177.468 123.102 177.324 122.894 177.324 122.894L177.315 122.903Z" fill="#284899"/>
<path d="M168.373 91.3771C177.074 84.7705 175.706 68.3169 165.319 54.627C154.931 40.9371 139.457 35.1948 130.756 41.8014C122.055 48.408 123.422 64.8616 133.81 78.5515C144.198 92.2414 159.672 97.9837 168.373 91.3771Z" fill="white"/>
<path d="M157.795 94.7224C155.781 94.5283 153.666 94.0293 151.486 93.2207C144.839 90.7533 138.367 85.6937 133.268 78.9708C128.169 72.2478 125.037 64.6561 124.45 57.5866C123.854 50.4062 125.951 44.6119 130.349 41.2712C134.746 37.9305 140.889 37.4731 147.642 39.9775C154.289 42.4449 160.761 47.5044 165.86 54.2274C170.959 60.9504 174.091 68.5421 174.678 75.6116C175.274 82.792 173.177 88.5862 168.779 91.9269C165.8 94.1864 162.022 95.129 157.795 94.7224ZM141.208 39.825C137.319 39.4507 133.868 40.3009 131.166 42.3525C127.148 45.4021 125.24 50.7758 125.799 57.4757C126.363 64.2911 129.402 71.6332 134.344 78.1529C139.291 84.6726 145.545 89.575 151.952 91.95C158.257 94.2881 163.938 93.8953 167.957 90.8457C171.976 87.7961 173.883 82.4224 173.324 75.7225C172.761 68.9071 169.722 61.5649 164.779 55.0453C159.832 48.5256 153.578 43.6231 147.171 41.2481C145.107 40.4811 143.107 40.0098 141.208 39.825Z" fill="#E30613"/>
<path d="M144.058 82.0064C144.058 82.0064 133.028 66.7168 139.019 51.5797C147.818 50.8774 159.056 58.7971 165.315 73.0332C152.853 60.5206 145.984 58.1964 143.67 60.5575C141.356 62.9187 141.06 69.1056 144.058 82.0064Z" fill="#E30613"/>
<path d="M135.434 77.894C135.434 77.894 128.025 67.3313 129.457 58.8664L127.637 57.8637C127.637 57.8637 129.517 52.7256 134.321 51.6074C131.808 60.4651 132.349 71.6932 135.434 77.894Z" fill="#284899"/>
<path d="M135.601 46.8344C135.601 46.8344 130.811 48.2114 128.376 51.3118C128.811 45.804 134.266 40.0929 141.167 41.5392C137.065 42.3386 135.601 46.8344 135.601 46.8344Z" fill="#E30613"/>
<path d="M140.64 46.2615C140.64 46.2615 156.114 45.4529 169.966 68.0939C165.888 54.0703 154.557 44.4826 146.774 41.835C142.238 42.1353 140.635 46.2615 140.635 46.2615H140.64Z" fill="#284899"/>
</g>
<defs>
<clipPath id="clip0_2559_2892">
<rect width="256" height="256" fill="white"/>
</clipPath>
</defs>
</svg>
