<svg width="256" height="256" viewBox="0 0 256 256" fill="none" xmlns="http://www.w3.org/2000/svg">
<path d="M213.566 14.3103C217.748 28.0024 220.999 42.0097 223.205 56.1794C228.196 88.2206 228.555 122.48 219.51 153.809C207.476 195.489 176.754 233.476 137.377 252.08C135.236 253.091 130.526 255.445 128.417 255.85C127.765 255.976 127.452 255.748 126.865 255.561C118.577 252.931 107.83 246.594 100.562 241.716C61.6703 215.617 36.9697 173.605 31.0715 127.164C26.3054 89.6388 31.7382 50.3976 42.4897 14.4024C54.7127 9.97334 67.6145 6.70546 80.4242 4.33213C111.646 -1.45212 144.613 -1.44242 175.83 4.36122C188.63 6.74182 201.29 10.0364 213.568 14.3103H213.566ZM210.844 17.76C198.882 13.7236 186.628 10.4752 174.194 8.17697C144.116 2.61819 112.136 2.5891 82.0557 8.14788C69.6048 10.4485 57.3212 13.6655 45.3479 17.7188L45.1564 17.9467C34.6909 52.9188 29.4812 91.0812 34.16 127.527C40.7951 179.224 73.3115 228.133 121.568 249.411C122.895 249.995 126.628 251.755 127.825 251.888C128.887 252.007 135.471 248.987 136.892 248.32C170.177 232.691 196.863 202.788 210.97 169.064C225.639 133.99 225.939 93.6679 219.937 56.5406C217.816 43.4206 214.79 30.4267 210.844 17.7576V17.76Z" fill="#CECCCC"/>
<path d="M210.844 17.76C214.788 30.4291 217.816 43.423 219.937 56.543C225.939 93.6679 225.639 133.993 210.97 169.067C196.865 202.79 170.177 232.693 136.892 248.322C135.471 248.989 128.89 252.01 127.825 251.891C126.628 251.758 122.895 249.998 121.568 249.413C73.3115 228.133 40.7951 179.224 34.16 127.527C29.4812 91.0812 34.6909 52.9188 45.1588 17.9467L45.3503 17.7188C57.3236 13.663 69.6073 10.4485 82.0582 8.14788C112.138 2.59152 144.119 2.61818 174.196 8.17697C186.63 10.4752 198.885 13.7236 210.846 17.76H210.844Z" fill="#010101"/>
<path d="M133.227 89.4885C132.965 89.4085 132.65 88.4097 132.606 88.1115C131.75 82.2788 131.527 71.0109 132.645 65.2873C133.139 62.7588 133.479 60.9939 136.497 61.3261C139.767 61.6873 143.464 68.4848 144.975 71.1976C145.585 72.2958 146.744 75.28 147.481 75.9588C147.661 76.1236 147.738 76.2933 148.032 76.2254C148.315 74.9309 148.158 73.6291 148.032 72.3224C147.699 68.9115 146.819 65.5588 146.41 62.16C146.475 61.6751 146.582 61.4667 147.069 61.3721C147.881 61.217 151.159 61.12 151.542 61.92C152.223 63.3382 152.625 67.7042 152.754 69.4158C153.139 74.5115 153.198 81.04 152.55 86.1067C152.468 86.7491 152.162 88.737 151.859 89.1855C151.658 89.4836 151.171 89.4739 150.856 89.4982C149.859 89.583 147.612 89.6218 146.662 89.4982C145.496 89.3479 145.799 87.5103 145.59 86.5745C144.681 82.4945 141.789 76.3903 139.498 72.863C136.065 67.5709 136.453 72.3758 136.579 75.7818C136.684 78.5721 137.013 81.5127 137.336 84.2909C137.445 85.2291 138.194 88.6255 138.012 89.1903C137.981 89.2897 137.833 89.4909 137.767 89.4909C136.849 89.4909 133.835 89.6751 133.227 89.4909V89.4885Z" fill="#FEFEFE"/>
<path d="M57.1564 61.3697C59.2655 60.9939 66.1455 61.183 68.3515 61.5321C74.1552 62.4533 74.1503 67.2097 70.9212 71.1394C70.4655 71.6945 69.1855 72.5551 69.1782 73.2218C69.1661 74.2109 70.0727 74.4073 70.5624 74.9454C73.36 78.0097 75.6655 81.7964 73.874 86.0873C72.0388 90.4824 66.2352 89.4206 62.3733 89.4812C60.4679 89.5103 58.3152 89.9588 56.3976 89.6606C55.36 89.4982 54.9964 88.2909 54.863 87.3794C54.063 81.9248 54.3491 68.6836 55.6897 63.3527C55.9297 62.3951 56.0243 61.5709 57.1564 61.3673V61.3697ZM63.6994 65.5539C60.3976 66.0242 59.217 70.1697 59.7527 73.04C60.1043 74.9261 63.6097 72.3806 64.3491 71.8327C65.7624 70.7854 67.6776 69.0133 67.3649 67.0594C67.1321 65.6097 64.863 65.3867 63.6994 65.5539ZM64.2449 76.0921C63.457 76.2012 61.3867 77.2145 60.8485 77.7818C59.554 79.1442 59.6533 82.8461 60.9455 84.2036C62.2376 85.5612 65.0085 85.2097 66.5915 84.6182C70.0727 83.3164 68.56 79.3964 66.8 77.2582C66.0024 76.2885 65.5637 75.9127 64.2449 76.0945V76.0921Z" fill="#FEFEFE"/>
<path d="M165.612 60.8315C176.15 59.6073 181.481 81.2558 175.261 87.3794C171.721 90.8655 161.457 91.0836 157.855 87.7479C151.566 81.9297 156.417 61.8982 165.612 60.8315ZM165.966 66.4533C163.697 66.9188 161.782 71.5224 161.268 73.5661C159.985 78.6618 160.555 84.4921 167.193 84.034C168.953 83.9127 170.713 83.3261 171.61 81.7309C172.853 79.5224 172.102 74.4849 171.328 72.0897C170.672 70.0558 168.589 65.9152 165.964 66.4533H165.966Z" fill="#FEFEFE"/>
<path d="M121.964 89.6703C121.728 89.6 121.685 89.3164 121.721 89.0764C121.821 88.4291 123.246 86.0727 123.598 85.1249C124.136 83.6727 125.108 81.2436 123.779 80.0412C121.537 78.0121 114.16 79.4739 113.716 82.8703C113.544 84.1867 114.039 85.3891 114.524 86.5746C114.73 87.0788 116.051 89.183 115.593 89.5079C115.11 89.8473 110.153 89.7552 109.535 89.3842C107.765 88.32 107.76 82.3903 107.888 80.497C108.274 74.7636 111.583 67.4376 115.699 63.4158C118.247 60.9261 120.162 60.1697 123.059 62.7733C128.337 67.5176 130.179 78.8315 129.299 85.5564C129.2 86.32 128.596 89.6679 127.598 89.6679C126.468 89.6679 122.73 89.8933 121.966 89.6679L121.964 89.6703ZM119.278 67.1782C118.337 67.3915 116.252 70.177 115.731 71.0812C115.355 71.7358 113.855 74.7127 114.594 75.2364C115.008 75.5297 118.776 74.6982 119.605 74.5915C120.577 74.4679 121.99 74.5624 122.868 74.4024C123.745 74.2424 123.576 72.88 123.464 72.1794C123.297 71.1321 121.646 67.9855 120.776 67.4182C120.303 67.1103 119.83 67.0521 119.278 67.1758V67.1782Z" fill="#FEFEFE"/>
<path d="M187.406 61.0085C189.731 60.7127 192.451 61.0206 194.63 61.8667C197.755 63.0788 198.967 64.7006 196.529 67.5903C194.577 69.903 194.182 67.4449 192.48 66.3782C190.502 65.137 187.43 65.1491 185.995 67.2315C184.618 69.2315 186.533 70.3539 188.051 71.1709C192.526 73.5758 199.573 74.7806 199.632 81.2194C199.745 93.2994 178.567 92.9818 179.639 81.0424C179.716 80.1649 180.301 77.6024 181.37 77.4885C182.32 77.3867 182.439 79.8861 182.718 80.6837C183.716 83.5564 187.605 84.737 190.398 84.354C192.861 84.0146 195.452 81.9176 193.081 79.583C189.714 76.2643 183.503 76.657 181.173 71.8715C178.909 67.2243 182.48 61.634 187.404 61.0085H187.406Z" fill="#FEFEFE"/>
<path d="M103.321 82.6085C103.811 84.5479 105.055 86.6449 105.442 88.5745C105.488 88.8024 105.665 89.1661 105.421 89.3261C105.132 89.4327 104.841 89.4764 104.533 89.4958C98.9988 89.8836 93.023 89.1806 87.44 89.4958C84.9697 89.1685 86.9673 83.9127 87.5661 82.5164C89.6388 77.6897 93.3382 73.8909 95.9709 69.4836C97.1345 67.537 98.3297 65.1588 94.7248 65.3139C93.4497 65.3673 90.0945 67.5346 89.7091 67.2436C89.5006 67.0861 88.1721 62.7152 88.1236 62.2715C88.0242 61.377 88.6958 61.377 89.4424 61.3164C94.4 60.9139 99.8836 61.6388 104.899 61.3164C105.818 61.3042 106.48 61.8812 106.4 62.817C106.126 66.0024 99.1152 74.1891 97.023 77.2582C96.1867 78.4849 94.2715 81.1176 94.097 82.5115C93.7406 85.3842 97.5806 85.4424 99.5297 84.6739C100.633 84.2376 101.665 83.0327 102.441 82.6812C102.718 82.5552 103.03 82.5261 103.324 82.6109L103.321 82.6085Z" fill="#FEFEFE"/>
<path d="M132.955 50.9697C132.902 50.6012 132.693 50.3297 132.608 49.9539C131.784 46.2958 131.624 36.4994 132.679 32.9794C133.459 30.3733 134.364 30.1358 137.042 30.4388C139.132 30.6764 141.84 33.4424 143.222 34.9794C144.807 36.7442 146.184 39.3309 147.675 40.88C148.155 41.377 148.478 41.6582 148.587 40.7127C148.798 38.8606 148 35.9467 147.581 34.0703C147.428 33.3842 146.752 31.537 146.776 31.0643C146.788 30.8388 146.926 30.6255 147.127 30.5309C147.525 30.3418 151.355 30.3661 151.806 30.5746C152.361 30.8291 152.669 32.383 152.817 33.0158C153.665 36.6109 153.714 42.0824 153.491 45.8012C153.442 46.5939 152.928 50.2788 152.533 50.7467C152.371 50.9382 151.845 50.96 151.585 50.9794C150.863 51.0327 146.788 51.0618 146.473 50.8073C146.32 50.6861 145.598 47.7891 145.285 47.0909C144.368 45.0497 139.707 37.8885 137.811 37.1224C137.142 36.8533 136.992 36.8049 136.824 37.4788C136.269 39.7236 137.127 45.2727 137.556 47.7333C137.687 48.4849 138.194 49.7988 138.223 50.3539C138.235 50.5649 138.141 50.9697 137.954 50.9697H132.958H132.955Z" fill="#FEFEFE"/>
<path d="M181.821 41.1539C181.872 41.2267 183.004 41.9079 183.275 42.1527C185.13 43.8303 187.185 46.2546 187.76 48.7515C187.893 49.3309 188.255 50.5794 187.741 50.9867C187.396 51.2582 182.007 51.2558 181.578 50.9843C181.149 50.143 181.227 49.0885 180.962 48.1018C180.204 45.2776 177.721 41.4594 174.495 43.7333C171.268 46.0073 174.538 48.0121 174.548 50.9649C174.279 51.2461 168.873 51.2606 168.32 50.9358C167.855 50.6618 167.622 49.4036 167.518 48.8315C166.851 45.1976 166.793 34.943 168.242 31.6679C168.613 30.8291 169.004 30.514 169.913 30.4315C172.657 30.1843 177.876 30.2109 180.635 30.4436C187.636 31.0327 189.949 36.3855 183.149 40.2206C182.882 40.3709 181.513 40.7152 181.821 41.1588V41.1539ZM176.145 33.5733C173.985 33.8861 173.025 35.6582 172.788 37.6655C172.701 38.3952 172.507 39.7673 173.411 40.0291C174.776 40.4267 178.744 38.4 179.881 37.4909C183.394 34.6812 178.778 33.1903 176.145 33.5709V33.5733Z" fill="#FEFEFE"/>
<path d="M79.5467 51.1515C79.1709 50.7685 80.9285 48.6788 81.2121 48.1842C82.2958 46.2909 83.2752 44.3321 80.4655 43.6C78.3273 43.0424 73.4837 43.5588 71.8182 45.1467C70.5382 46.3661 71.4134 47.76 72.1334 49.0255C72.4243 49.537 73.2024 50.3055 73.3503 50.7176C73.4618 51.0303 73.0812 51.0618 72.8703 51.1006C71.8958 51.28 68.6667 51.2776 67.6437 51.1539C65.7649 50.9285 65.3261 48.6376 65.1976 47.0594C64.7273 41.2776 68.1503 35.8764 72.56 32.4436C75.234 30.3612 77.2994 29.3285 80.5091 31.2C85.7431 34.2497 88.2134 42.0097 87.3358 47.7673C87.2194 48.5236 86.5891 51.1491 85.6315 51.1491H79.5467V51.1515ZM76.7709 34.657C75.617 34.9212 72.72 37.9127 72.2473 39.0327C72.114 39.3503 71.7552 40.3127 72.0921 40.5309C72.5285 40.8146 76.2546 40.1382 77.0982 40.0703C79.714 39.8642 83.1903 40.9455 80.4994 36.8461C79.6582 35.5661 78.4558 34.2715 76.7709 34.657Z" fill="#FEFEFE"/>
<path d="M108.521 30.4388C110.458 30.88 110.567 36.7806 110.407 38.32C109.976 42.4461 105.004 49.8255 101.081 51.3406C97.9661 52.543 94.1527 49.3115 92.3685 46.9576C89.6436 43.36 87.4133 35.9515 89.4449 31.7067C89.5564 31.4764 90.3952 30.4364 90.5382 30.4364H96.1697C96.3564 30.4364 96.4485 30.8 96.4145 31.0303C96.32 31.6461 95.4109 33.0448 95.1636 33.7915C93.9685 37.4255 94.5527 41.0497 96.9115 44.0485C98.6182 46.2206 100.31 46.9697 102.432 44.6933C105.287 41.6315 105.702 36.8097 104.104 33.0376C103.903 32.5624 102.839 31.0133 102.815 30.8703C102.785 30.6836 103.001 30.4364 103.072 30.4364C104.385 30.4364 107.464 30.1964 108.521 30.4364V30.4388Z" fill="#FEFEFE"/>
<path d="M112.48 50.7321C111.767 50.1527 111.998 47.9467 112.065 47.0642C112.364 43.1248 113.137 38.0994 113.935 34.2158C114.274 32.5648 114.201 30.7855 116.143 30.6109C120.531 30.2133 125.513 30.9358 129.966 30.6109C130.337 30.5964 130.764 30.8509 130.771 31.2509C130.776 31.583 128.589 34.6788 128.284 34.7709C127.537 34.9964 126.553 34.2255 125.833 34.017C123.719 33.4012 119.896 33.537 118.504 35.5176C117.92 36.3491 117.665 37.9782 118.919 38.2206C120.672 38.2764 125.377 36.4194 126.766 37.263C126.982 37.3939 127.118 37.52 127.13 37.7891C127.142 38.0582 125.329 41.503 125.144 41.6145C124.504 42.0048 122.638 41.1976 121.782 41.1976C118.931 41.1976 115.588 44.2788 118.419 46.7006C120.179 48.2061 123.35 47.8545 125.421 47.1612C126.388 46.8364 127.464 45.8667 128.55 46.3806C129.193 46.6836 131.35 50.1261 130.875 50.8024L112.478 50.7345L112.48 50.7321Z" fill="#FEFEFE"/>
<path d="M79.1345 61.3673C80.0267 61.1855 83.9224 61.0303 84.0921 62.1527C83.4352 67.5709 81.9661 72.8049 82.2642 78.32C82.4582 81.8691 83.297 85.4255 84.0824 88.8752C84.1285 89.2921 83.8497 89.6073 83.4473 89.663L77.9588 89.3479C77.2436 89.0424 76.9527 86.897 76.8436 86.1018C76.1091 80.6812 75.9758 68.4849 77.4982 63.3624C77.777 62.4267 78.0436 61.5855 79.1345 61.3649V61.3673Z" fill="#FEFEFE"/>
<path d="M164.109 30.4388C164.165 30.4533 164.441 30.7297 164.478 30.8073C164.764 31.4206 163.227 36.7176 163.013 37.8812C162.439 41.0303 162.65 43.3479 163.348 46.463C163.569 47.4449 164.584 50.0558 164.575 50.703C164.575 50.8315 164.616 50.9576 164.458 50.9891C164.082 51.2485 161.472 51.1903 160.832 51.1588C160.289 51.1321 158.577 51.0133 158.194 50.8897C157.505 50.6667 157.345 49.6024 157.202 48.9721C156.349 45.2073 156.4 35.4812 157.743 31.8861C157.932 31.3842 158.4 30.4388 159.021 30.4388C160.087 30.4388 163.36 30.2255 164.107 30.4388H164.109Z" fill="#FEFEFE"/>
<path d="M146.335 198.201C147.324 199.217 146.989 200.902 146.364 202.015C146.022 202.623 144.703 203.719 144.752 204.218C144.793 204.642 146.104 205.682 146.473 206.15C148.63 208.909 148.495 212.992 144.444 213.537C143.67 213.641 137.445 213.682 137.132 213.496C136.819 213.309 136.638 212.08 136.594 211.673C136.223 208.337 136.192 202.432 136.795 199.161C136.88 198.703 137.103 197.515 137.498 197.319C137.872 197.135 142.987 197.164 143.765 197.234C144.543 197.304 145.794 197.639 146.342 198.201H146.335ZM140.099 200.201C139.472 200.853 139.069 203.2 139.338 204.019C139.68 205.064 142.327 203.025 142.771 202.599C143.392 202 143.944 201.009 143.576 200.143C143.166 199.181 140.776 199.498 140.099 200.201ZM142.339 205.632C141.947 205.665 139.658 206.921 139.532 207.355C139.263 208.276 139.472 210.616 140.575 210.96C142.187 211.464 144.919 210.861 144.642 208.708C144.541 207.925 143.205 205.554 142.339 205.629V205.632Z" fill="#FEFEFE"/>
<path d="M108.977 213.585H105.343C105.268 212.235 104.975 210.897 104.468 209.646C103.867 208.165 103.006 206.303 101.256 207.77C100.468 208.429 100.558 209.256 100.645 210.204C100.72 211.016 101.329 212.57 101.319 213.173C101.316 213.348 101.183 213.588 101.076 213.588H97.9879C97.8376 213.588 97.6631 213.045 97.6146 212.87C97.0327 210.72 97.1467 200.313 97.8424 198.182C98.0315 197.602 98.0388 197.304 98.703 197.227C100.225 197.045 105.118 197.098 106.415 197.709C108.892 198.875 108.752 202.194 107.154 204.046C106.778 204.485 105.515 205.219 105.518 205.685C105.518 205.956 106.696 207.166 106.948 207.532C108.216 209.377 109.091 211.275 108.977 213.588V213.585ZM101.222 200.015C100.482 200.669 100.211 203.481 100.475 204.373C100.773 205.372 102.085 204.528 102.621 204.233C103.847 203.556 105.901 201.888 104.88 200.33C104.259 199.379 101.993 199.331 101.219 200.017L101.222 200.015Z" fill="#FEFEFE"/>
<path d="M114.063 197.232C113.522 200.633 112.495 204.601 113.569 207.993C114.943 212.335 118.533 210.507 118.945 206.567C119.268 203.486 118.754 200.221 118.061 197.232H120.875C121.096 197.232 121.353 197.913 121.425 198.136C121.699 198.962 121.833 200.754 121.881 201.678C122.112 206.053 122.133 213.775 116.16 213.959C109.457 214.165 109.765 205.838 110.058 201.135C110.138 199.847 110.427 198.468 110.793 197.236H114.063V197.232Z" fill="#FEFEFE"/>
<path d="M132.417 201.59C132.133 201.387 132.572 199.869 130.817 199.632C126.126 198.999 124.638 208.635 128.107 210.167C129.583 210.819 132.129 210.371 132.058 208.412C132.019 207.35 130.189 206.441 130.41 206.138C130.533 205.968 133.775 204.766 134.109 204.878C134.371 204.965 134.327 205.142 134.398 205.328C134.681 206.099 135.047 209.93 134.933 210.754C134.419 214.545 128.364 214.567 125.806 212.829C121.275 209.753 122.674 199.842 127.496 197.498C129.845 196.356 135.144 196.669 134.575 200.221C134.434 201.105 132.822 201.881 132.415 201.59H132.417Z" fill="#FEFEFE"/>
<path d="M149.394 197.232H152.482C152.948 197.232 152.543 199.518 152.594 200.029C152.686 200.96 154.048 204.558 155.023 204.635C155.733 204.693 157.2 201.93 157.435 201.275C157.939 199.869 157.913 198.878 157.736 197.404C157.918 197.156 159.901 197.161 160.288 197.236C161.173 197.404 160.965 198.572 160.907 199.297C160.521 204.01 155.782 206.601 155.646 211.675C155.636 212.046 156.095 213.583 155.571 213.583H152.482C151.632 213.583 152.196 210.897 152.342 210.352C152.528 209.651 153.36 208.221 153.304 207.68C153.275 207.404 150.754 204.516 150.318 203.755C149.394 202.141 148.739 200.095 148.928 198.218C148.975 197.762 148.967 197.515 149.394 197.229V197.232Z" fill="#FEFEFE"/>
<path d="M47.5758 93.6679C47.377 98.5721 47.2461 103.561 47.3867 108.482C48.1745 136.015 55.0909 162.499 69.8448 185.77C82.4582 205.665 101.501 223.741 123.079 233.544C123.939 233.935 127.442 235.549 128.112 235.518C128.899 235.479 132.301 233.859 133.258 233.421C163.67 219.532 187.593 190.655 199.212 159.665C207.052 138.756 209.375 115.898 208.521 93.6655H215.062C214.928 99.0182 215.239 104.402 215.069 109.753C213.656 154.47 194.95 196.25 159.559 223.932C151.292 230.4 140.749 237.118 130.95 240.921C129.675 241.416 128.579 242.114 127.224 241.753C124.034 240.904 118.907 238.17 115.876 236.57C80.2933 217.801 54.2764 181.971 45.3042 142.904C41.6097 126.815 40.4873 110.155 41.0376 93.663H47.5782L47.5758 93.6679Z" fill="#F7E203"/>
<path d="M209.794 49.8788H203.072C202.097 45.4327 201.12 40.9721 199.932 36.577C199.425 34.7006 198.815 31.7552 198.078 30.0727C197.961 29.8061 197.867 29.6024 197.571 29.4885C189.166 26.5139 180.553 24.0558 171.828 22.1673C137.113 14.6545 101.171 16.2715 67.2339 26.5721C65.0982 27.2194 60.2351 28.48 58.5212 29.4861C58.1236 29.7212 58.143 29.84 57.9685 30.2036C57.183 31.8279 56.4848 35.2339 55.9806 37.12C54.8558 41.3358 53.8982 45.6024 53.023 49.8788H46.3006C48.0024 41.6194 49.8958 33.343 52.5721 25.3552C62.2109 21.7891 72.3127 19.1055 82.4145 17.0497C122.478 8.89213 164.793 11.7285 203.324 25.1855C203.68 25.4545 204.032 26.8582 204.206 27.3915C206.599 34.72 208.058 42.3758 209.789 49.8788H209.794Z" fill="#F7E203"/>
<path d="M102.255 111.11L95.52 116.133L98.0751 124.192L91.2679 119.285L84.4533 124.01L87.006 116.124L80.2739 111.11H88.5406L91.2654 103.113L93.9903 111.11H102.255Z" fill="#F7E203"/>
<path d="M119.331 111.11H127.687L120.95 116.133L123.418 124.189L116.701 119.285L109.886 124.01L112.402 116.126L105.707 111.11H113.971L116.696 103.113L119.331 111.11Z" fill="#F7E203"/>
<path d="M179.004 148.175C179.241 148.247 179.261 148.589 179.285 148.802C179.515 150.764 178.987 152.718 178.931 154.645C178.921 155.006 179.118 155.343 179.103 155.709C178.725 165.2 177.28 174.611 176.548 184.058C176.499 184.669 175.908 187.05 176.208 187.404C176.434 187.668 178.07 187.464 178.288 187.775C178.434 187.983 178.541 190.121 178.07 190.305L75.28 189.605C75.137 189.593 74.9939 189.561 74.9042 189.435C74.5285 188.897 75.0061 186.121 75.0206 185.336C75.2339 173.787 74.8388 162.053 74.9964 150.441C77.3358 144.705 78.9842 138.645 81.2751 132.919C81.4521 132.475 81.9903 130.943 82.5309 131.113C82.7564 131.183 83.6703 133.265 83.8133 133.646C86.0024 139.491 86.7927 146.167 88.9745 152.107C89.0473 152.303 88.8848 152.415 89.263 152.354L108.548 138.032L118.967 143.011C119.164 142.873 119.253 142.676 119.343 142.463C120.078 140.691 120.538 138.429 121.241 136.55C122.029 134.439 123.093 132.434 123.961 130.368C124.342 129.464 124.458 128.473 124.953 127.547C125.52 126.485 125.976 127.828 126.238 128.461C128.461 133.828 129.651 140.141 131.821 145.588L131.762 155.811C134.461 157.251 137.605 157.481 140.473 158.528C141.122 158.337 140.509 156.56 140.621 155.949C140.756 155.207 141.476 154.189 141.76 153.447C143.248 149.544 144.613 145.544 146.175 141.692C146.291 141.404 147.103 139.67 147.215 139.641C147.518 139.568 147.84 140.119 147.939 140.366C149.84 144.611 150.992 150.196 153.159 154.225C153.418 154.708 153.959 155.234 154.402 154.645C154.759 154.172 154.536 147.661 154.56 146.448C154.594 144.812 154.514 142.412 154.761 140.834C155.008 139.256 157.001 138.216 155.295 136.281C154.398 135.265 152.296 134.075 151.115 133.011C148.15 130.344 147.847 129.554 146.996 125.685C146.761 124.616 146.228 120.565 145.753 120.024C145.033 119.205 142.036 118.618 140.897 118.158C138.121 117.038 136.383 115.299 136.764 112.109C136.928 110.732 139.847 109.152 141.069 108.601C143.988 107.287 146.819 108.373 149.918 108.002C153.016 107.632 154.722 106.041 158.468 106.032C164.451 106.017 173.775 105.244 179.239 106.878C183.838 108.252 188.773 109.525 193.062 111.767C194.194 112.359 196.972 114.143 197.789 115.033C198.327 115.619 198.887 117.236 198.812 118.027C198.713 119.074 197.394 121.68 196.592 122.347C194.061 124.446 191.433 122.931 189.025 124.589C187.971 125.316 187.181 127.353 186.184 127.743C185.908 127.852 185.484 127.77 185.265 127.915C185.028 128.073 185.062 128.703 184.722 129.006C184.427 129.27 183.653 129.394 183.212 129.675C182.352 130.223 181.719 130.754 180.722 131.365C178.361 132.805 178.737 133.777 177.285 135.011C174.16 137.668 172.199 138.742 170.095 142.536C168.921 144.652 168.141 147.287 166.863 149.295C166.095 150.502 164.611 152.155 163.653 153.353C163.384 153.687 162.49 154.385 162.388 154.63C162.233 155.001 162.64 154.887 162.839 154.899C163.518 154.948 165.539 154.863 165.758 155.612C166.301 157.491 166.196 159.913 166.385 161.893C166.688 165.045 167.178 168.218 167.472 171.345C167.544 172.121 167.314 173.399 167.467 174.036C167.493 174.145 167.867 174.342 167.927 174.342H172.104L174.012 148.177C174.994 148.177 178.368 147.978 179.008 148.177L179.004 148.175ZM168.376 116.378C167.675 116.703 167.207 116.272 166.8 116.223C166.141 116.145 164.761 118.931 165.108 119.646C165.331 119.898 166.257 118.693 166.463 118.55C166.722 118.368 167.074 118.402 167.273 118.269C168.002 117.779 168.599 117.341 168.376 116.376V116.378ZM156.936 121.648C158.352 121.479 158.206 118.189 158.024 117.198C157.762 115.777 155.741 118.233 155.018 118.184C153.944 120.087 156.958 119.973 156.938 121.648H156.936ZM173.098 116.926C172.565 116.577 171.2 117.714 171.282 118.104C171.459 118.933 173.384 117.615 173.098 116.926ZM182.182 119.651L175.224 119.503C174.587 119.692 174.8 120.475 174.727 120.55C174.674 120.606 173.736 120.497 173.212 120.764C172.984 120.88 170.936 122.747 170.737 123.011C169.935 124.082 169.159 126.158 168.349 127.345C168.041 127.796 165.985 129.493 167.559 129.479C168.116 129.474 168.965 128.555 169.105 128.01H169.37L170.276 128.735C170.541 128.575 171.069 127.484 171.222 127.452C171.712 127.345 172.747 128.235 172.664 128.562C172.582 128.89 170.994 130.405 170.623 130.701C170.085 131.13 168.858 131.964 168.255 132.337C167.76 132.645 166.058 133.285 165.828 133.544C165.576 133.828 165.736 134.25 165.544 134.385C165.321 134.543 164.638 134.463 164.458 134.718C164.242 135.021 164.444 136.545 164.335 137.137C164.218 137.772 163.733 138.039 163.653 138.456C163.547 139.016 163.719 139.767 163.653 140.361C164.245 140.192 164.337 139.661 164.895 139.331C165.241 139.125 165.624 139.108 165.93 138.912C166.325 138.659 166.674 137.964 167.152 137.772C167.673 137.561 168.807 137.702 168.904 137.617C168.965 137.564 169.091 136.524 169.462 136.085C169.656 135.857 170.041 135.712 170.288 135.459C172.245 133.457 173.457 132.085 175.818 130.633C177.964 129.312 178.495 126.218 179.539 124.179C180.175 122.938 181.343 121.542 182.007 120.288C182.121 120.073 182.262 119.944 182.184 119.651H182.182ZM166.865 124.32C167.258 123.767 167.28 123.115 166.47 123.084C166.255 123.074 164.308 123.622 164.015 123.733C163.542 123.913 163.202 124.288 163.05 124.766C162.664 125.959 162.376 127.222 161.973 128.412C161.675 129.297 161.093 130.141 161.115 131.093C161.171 131.154 162.514 130.647 162.664 130.555C163.229 130.211 165.457 127.779 165.615 127.147C165.876 126.087 165.156 126.017 166.744 125.823C166.79 125.459 166.366 125.137 166.376 124.817C166.388 124.424 166.768 124.458 166.868 124.318L166.865 124.32ZM184.725 123.103C184.15 122.533 181.762 125.108 182.002 126.007C182.368 126.087 182.487 125.927 182.737 125.743C183.115 125.464 185.139 123.51 184.725 123.101V123.103ZM160.019 124.01C158.827 123.83 158.526 125.219 157.939 125.838C157.353 126.456 156.204 126.393 156.919 127.748C157.646 128.371 159.944 125.748 160.015 125.37C160.092 124.955 159.978 124.444 160.017 124.01H160.019ZM152.267 129.77C152.475 130.002 153.651 131.021 153.818 130.434C154.136 129.319 153.488 129.086 153.338 128.424C153.139 127.552 153.571 126.504 152.747 125.745L150.032 124.194C149.794 124.892 150.429 125.287 150.541 125.775C150.652 126.262 150.521 126.752 150.662 127.29C150.715 127.496 152.078 129.559 152.269 129.772L152.267 129.77ZM160.693 135.122C160.434 135.195 159.644 136.073 159.556 136.354C159.396 136.865 159.549 137.379 159.44 137.872C159.331 138.364 158.899 139.522 158.705 140.225C158.645 140.446 157.69 141.656 158.482 141.816C158.819 141.884 160.381 140.412 160.575 140.095C160.652 139.966 161.375 138.463 161.399 138.371C161.488 138.036 161.258 137.712 161.287 137.372C161.345 136.691 161.99 134.752 160.693 135.122ZM158.022 146.085V154.533C158.213 154.509 158.354 154.303 158.463 154.158C160.456 151.532 163.028 148.128 164.783 145.399C165.413 144.417 165.903 143.336 166.378 142.272C166.378 142.097 165.571 142.167 165.392 142.194C164.417 142.339 160.812 144.024 159.767 144.562C159.394 144.754 158.078 145.748 158.019 146.085H158.022ZM117.331 153.081V149.719C116.861 149.278 116.027 149.016 115.382 148.761C113.83 148.15 110.693 146.943 109.168 146.618C107.816 146.33 109.314 147.731 109.639 147.966C110.832 148.829 112.371 149.716 113.583 150.562C113.966 150.832 117.093 153.35 117.333 153.081H117.331ZM131.137 154.354C131.285 154.131 131.137 149.738 131.137 148.994C131.137 148.536 128.112 148.754 127.588 148.73C125.064 148.606 123.181 148.674 120.693 148.739C120.284 148.749 118.604 148.252 118.604 148.994V154.536C119.137 154.638 119.326 154.167 119.775 153.981C121.695 153.178 124.611 153.042 126.669 153.285C127.91 153.43 129.382 154.366 130.366 154.504C130.519 154.526 131.118 154.39 131.139 154.356L131.137 154.354ZM98.7564 153.033C98.8751 152.921 99.9564 150.23 99.9976 150C100.17 149.042 99.3382 149.598 98.9818 150.08C98.7103 150.448 98.6739 150.848 98.4412 151.176C97.9491 151.864 96.7127 152.041 97.3745 153.236C97.5951 153.377 98.5382 153.236 98.7539 153.033H98.7564ZM112.063 153.629C110.72 152.856 109.404 151.988 108.116 151.122C107.476 150.693 106.664 149.818 106.007 149.593C105.804 149.522 105.593 149.394 105.522 149.721C105.377 150.398 106.863 151.195 107.256 151.619C107.699 152.099 108.451 153.479 108.977 153.714C109.263 153.84 111.583 154.041 111.971 153.99L112.061 153.629H112.063ZM75.777 154.308C76.2303 154.841 86.4921 154.39 87.9685 154.509C88.4048 154.366 88.6061 151.564 87.6388 151.801C84.1212 152.257 79.7648 151.227 76.3806 151.648C76.2085 151.67 75.777 151.728 75.7261 151.937C75.6121 152.412 75.4715 153.954 75.7745 154.308H75.777ZM178.005 154.536H175.008C173.913 154.536 173.45 157.593 173.993 158.279C174.458 158.868 175.425 158.366 175.937 158.371C176.448 158.376 178.189 158.938 178.189 157.898V154.992C178.189 154.931 177.949 154.715 178.007 154.538L178.005 154.536ZM130.931 158.143C131.113 158.029 131.312 156.672 130.96 156.439C128.56 155.859 125.731 154.558 123.251 154.914C122.623 155.004 122.175 155.474 121.704 155.549C121.166 155.636 120.747 155.389 119.937 155.598C118.528 155.959 118.036 157.673 119.416 157.447C119.806 157.384 119.925 156.979 120.335 156.899C120.926 156.785 121.61 157.021 122.25 156.817C122.681 156.679 122.948 156.143 123.457 156.027C123.966 155.91 125.612 155.918 126.133 156C127.028 156.143 127.268 157.004 127.881 157.338C128.09 157.452 129.108 158.017 129.181 158.044C129.498 158.167 130.715 158.279 130.931 158.143ZM78.4582 166.073C78.703 164.301 78.4582 161.442 78.4582 159.532C78.4582 159.513 78.7103 159.261 78.7297 159.261H82.9067C83.6024 160.126 83.1733 161.331 83.1709 162.252C83.1685 163.173 83.0206 165.922 83.2727 166.526C83.4836 167.03 84.3394 167.457 84.8945 167.445C85.7576 167.425 86.8121 167.278 86.8121 166.257V156.082C86.8121 156.063 86.56 155.811 86.5406 155.811H76.0048C75.8061 155.811 75.7455 156.255 75.7236 156.439C75.3527 159.6 75.7939 163.692 75.6024 166.945C75.6606 167.064 75.6848 167.379 75.7527 167.425C75.9442 167.556 78.1261 166.771 78.2327 166.669C78.2545 166.647 78.4533 166.138 78.4606 166.08L78.4582 166.073ZM87.36 156.262V166.618C87.36 167.372 89.3818 166.288 89.68 166.213C92.6448 165.459 98.6036 164.645 101.629 164.701C104.075 164.747 106.432 164.812 108.722 165.418C109.835 165.714 111.033 165.435 111.973 165.619C112.378 165.699 112.487 166.085 112.885 166.16C113.61 166.296 114.56 166.16 115.379 166.39C116.126 166.601 116.684 167.302 117.568 167.035C117.702 166.994 118.063 166.686 118.063 166.616V156.441C118.063 155.792 116.819 156.175 116.526 156.177C107.668 156.288 98.6788 155.838 89.8182 155.792C89.3891 155.792 87.457 155.964 87.3624 156.259L87.36 156.262ZM154.39 186.514C154.892 186.621 155.447 186.048 155.581 185.615C155.733 185.118 155.83 182.783 155.852 182.07C155.956 178.727 155.396 175.976 155.118 172.793C154.87 169.942 155.309 166.764 155.122 163.884C155.052 162.798 154.655 161.619 154.572 160.618C154.502 159.77 154.744 156.385 154.485 155.981C154.225 155.576 153.857 155.903 153.845 156.259C153.799 159.772 153.901 163.29 153.852 166.805C153.821 169.096 153.166 177.813 153.801 179.379C153.901 179.627 154.39 180.017 154.39 180.061V186.512V186.514ZM160.296 156.533C160.138 156.57 158.23 158.635 158.121 158.902C157.661 160.029 158.601 160.138 158.739 160.994C158.878 161.85 158.674 162.844 158.752 163.707C158.865 164.97 159.202 166.257 159.292 167.527C159.641 172.434 159.122 180.216 161.379 184.516C161.704 185.137 163.336 187.627 164.121 186.524C164.213 186.393 164.056 184.424 164.01 184.068C162.977 176.131 161.995 168.034 160.948 160.058C160.827 159.13 160.897 157.872 160.747 156.989C160.705 156.749 160.57 156.475 160.296 156.536V156.533ZM131.864 157.079L132.044 158.08L137.554 160.565C138.019 160.776 138.567 160.817 139.074 161.042C140.657 161.75 142.184 162.645 143.675 163.53C144.499 163.879 144.31 161.571 144.039 161.345L137.142 158.434C136.356 158.555 132.155 156.79 131.867 157.079H131.864ZM126.96 166.073C127.149 165.462 126.96 162.286 126.96 161.348C126.96 161.035 127.687 161.035 127.687 161.348V166.073C127.687 166.691 130.349 167.341 130.938 167.052C131.222 166.81 131.263 160.133 130.977 159.728C130.812 159.496 129.84 159.68 129.455 159.578C128.645 159.367 126.698 157.888 125.922 157.661C124.565 157.263 122.873 158.189 121.399 158.332C121.113 158.359 120.81 158.133 120.545 158.196C120.315 158.25 120.102 158.64 119.828 158.759C119.491 158.904 118.841 158.844 118.681 159.064C118.303 159.588 118.739 165.779 118.601 166.89C119.704 167.139 120.604 166.453 121.598 166.342C123.076 166.179 124.87 166.524 126.33 166.352C126.543 166.327 126.882 166.305 126.955 166.07L126.96 166.073ZM153.12 157.804L141.959 157.619C141.302 157.719 141.205 158.424 141.309 158.984C141.442 159.695 143.367 160.002 143.91 160.337C144.116 160.463 144.267 161.045 144.708 161.13L144.945 162.892C145.51 162.64 146.124 162.793 146.662 162.701C146.938 162.655 147.13 162.402 147.406 162.354C147.808 162.284 149.055 162.424 149.304 162.162C149.636 161.811 149.159 161.864 149.028 161.804C148.267 161.455 147.602 160.829 146.705 161.11C146.373 161.215 146.187 161.784 145.673 161.619C145.217 160.567 145.467 158.354 146.844 158.255C149.53 158.061 149.888 159.392 149.668 161.801C150.461 161.21 152.516 162.868 153.03 162.167C153.634 161.343 152.865 158.878 153.12 157.804ZM144.034 178.698L144.015 164.819C142.434 163.491 140.347 163.013 138.521 162.141C136.89 161.36 134.424 159.753 132.907 159.217C132.553 159.091 132.242 159.033 131.864 159.076L131.772 173.615L144.034 178.698ZM165.472 159.258H162.293C161.864 159.258 161.954 161.399 162.228 161.777C164.747 161.758 166.364 162.742 165.472 159.258ZM79.457 159.985C78.8994 159.985 78.8048 165.367 79.2727 165.985C79.5176 166.31 82.6376 166.332 82.6376 165.709V160.259C82.6376 160.24 82.3854 159.988 82.3661 159.988H79.4594L79.457 159.985ZM153.118 163.983C151.227 164.112 149.268 163.639 147.401 163.99C147.023 164.061 146.802 164.412 146.451 164.492C146.019 164.589 144.885 164.354 144.781 164.817C144.761 164.904 144.945 165.619 145.045 165.629C145.244 165.646 146.463 165.421 146.766 165.358C147.576 165.185 149.118 164.419 149.745 164.526C150.068 164.582 151.295 165.394 151.835 165.535C153.328 165.92 153.154 165.215 153.115 163.983H153.118ZM177.278 164.165C176.715 164.213 173.825 163.813 173.825 164.436V167.888C173.825 167.908 174.078 168.16 174.097 168.16H177.004C177.023 168.16 177.275 167.908 177.275 167.888V164.165H177.278ZM102.761 166.579C98.9455 166.783 94.0776 167.241 90.3976 168.022C90.0921 168.087 87.6558 168.882 87.5345 168.972C87.2873 169.156 87.2897 169.767 87.3818 170.041C87.6703 170.899 89.9879 169.782 90.5842 169.663C92.0679 169.367 94.1018 169.137 95.6145 169.062C99.6412 168.858 106.058 168.696 109.981 169.062C110.992 169.156 111.072 169.692 111.61 169.794C112.104 169.886 112.705 169.726 113.229 169.808C113.682 169.879 113.993 170.228 114.371 170.303C115.362 170.497 116.504 170.55 117.518 170.81C118.272 170.679 118.272 169.018 117.748 168.742L111.222 167.275C108.238 167.074 105.806 166.417 102.759 166.579H102.761ZM150.211 166.708H147.668C147.433 167.474 147.333 172.398 147.656 172.625C148.029 172.885 149.648 172.601 150.211 172.705C150.194 170.715 150.693 168.672 150.211 166.708ZM153.118 167.435C152.104 167.847 151.828 166.81 151.556 166.725C151.326 166.652 150.938 166.822 150.938 166.979V173.43C150.119 173.84 149.377 173.469 148.65 173.447C148.104 173.43 147.581 173.789 146.943 173.43V167.707C146.943 167.411 144.764 167.072 144.764 167.707V174.611C144.764 175.622 147.108 174.225 147.253 174.194C148.128 173.998 150.296 174.034 151.198 174.172C151.855 174.272 152.436 174.708 153.12 174.703V167.435H153.118ZM166.199 168.708C166.131 168.259 166.371 167.028 166.027 166.788C165.842 166.659 163.726 166.65 163.387 166.713C162.48 166.882 162.541 168.524 163.11 168.805C163.527 169.011 165.535 168.482 166.199 168.708ZM130.958 170.342C130.899 169.918 131.12 168.848 130.783 168.599C130.126 168.536 129.583 168.8 128.878 168.693C128.298 168.604 127.828 168.114 127.222 167.99C124.393 167.411 121.612 168.189 118.882 168.71C118.056 168.868 118.778 169.69 118.604 170.342C118.822 170.565 121.27 169.408 121.825 169.295C122.739 169.105 126.349 169.096 127.224 169.258C127.777 169.36 128.623 170.167 129.27 170.298C129.823 170.41 130.4 170.31 130.955 170.339L130.958 170.342ZM86.6061 170.679C86.7224 170.492 86.6836 169.304 86.463 169.149C86.1721 168.945 85.0958 169.132 84.5867 169.028C84.0461 168.919 83.7236 168.419 83.1006 168.335C82.3733 168.235 79.8667 168.136 79.12 168.172C78.6909 168.192 76.2376 169.052 75.8545 169.282C75.36 169.581 75.343 170.768 76.0097 170.892C77.1612 171.105 79.9006 169.6 81.0958 169.61C81.6436 169.615 82.2327 170.119 82.8073 170.264C83.263 170.381 83.7091 170.291 84.1382 170.385C84.5988 170.487 86.1891 171.348 86.6061 170.681V170.679ZM87.36 172.16V186.785C87.36 187.253 88.8121 186.953 88.8121 186.875V174.065C88.8121 174.046 89.0642 173.794 89.0836 173.794H93.0812C93.1418 173.794 93.3576 174.034 93.5345 173.976V186.604C93.5345 187.159 94.6327 187.455 94.9964 186.936L95.1709 173.976H100.439V186.785C100.439 187.198 103.345 187.198 103.345 186.785V174.25C103.345 174.23 103.598 173.978 103.617 173.978H108.795V187.059C108.795 187.176 110.975 187.236 110.975 186.788V174.252C110.975 174.233 111.227 173.981 111.246 173.981H115.697C116.162 178.293 115.661 182.739 115.959 187.074C116.982 187.319 117.939 187.702 118.061 186.429C118.371 183.144 118.318 177.03 118.068 173.702C118.044 173.367 118.017 173.035 117.847 172.739C116.298 172.373 114.657 172.288 113.11 171.937C111.92 171.668 109.937 170.64 109.076 170.519C106.095 170.107 102.167 170.844 99.0788 170.528L87.36 172.162V172.16ZM130.955 187.239V172.432C130.955 172.366 130.756 172.218 130.655 172.187C129.081 172.504 126.696 171.072 125.418 171.067C124.921 171.067 123.598 171.198 123.074 171.27C122.247 171.384 118.819 172.213 118.516 172.89L118.427 186.599C118.4 187.607 121.328 187.314 121.328 186.967V172.795C121.328 172.776 121.581 172.524 121.6 172.524H125.777C126.676 172.524 126.056 176.475 126.041 177.149C125.978 180.296 126.099 183.452 126.053 186.599C126.194 187.355 126.88 187.268 127.501 187.239V176.611C127.501 176.199 128.773 175.949 128.773 176.429V186.967C128.773 187.399 130.565 187.205 130.953 187.239H130.955ZM78.2764 186.875V173.52C78.2764 173.488 78.6982 173.067 78.7297 173.067H82.1818C82.3806 173.067 82.4412 173.51 82.463 173.695C82.8145 176.686 82 180.785 82.2642 183.886C82.5527 184.407 82.2715 187.059 82.7248 187.059H86.3588C86.3782 187.059 86.6303 186.807 86.6303 186.788V172.616C86.6303 172.097 85.2679 172.531 84.9333 172.512C83.7479 172.441 82.6182 171.896 81.4618 171.789C79.8473 171.641 79.0206 172.065 77.5927 172.296C77.0958 172.376 75.8376 172.216 75.6291 172.512C75.4642 173.993 75.5709 175.496 75.5564 176.982C75.537 179.372 75.5636 181.825 75.5564 184.25C75.5564 184.992 75.1515 185.755 75.5854 186.567C75.9248 187.205 77.6121 186.737 78.2739 186.875H78.2764ZM176.55 173.067H173.098C172.941 173.905 172.47 176.31 173.556 176.514C176.09 176.989 176.875 175.336 176.548 173.067H176.55ZM125.505 186.785V173.704C125.505 173.685 125.253 173.433 125.234 173.433H122.327C121.876 173.433 122.078 176.461 122.063 176.984C122.029 178.158 122.061 179.101 122.063 180.24C122.07 182.473 122.048 184.708 122.048 186.941C122.138 187.324 125.299 187.532 125.508 186.788L125.505 186.785ZM81.7285 173.976C81.1127 173.799 79.4036 173.52 79.0933 174.158L79.0279 186.579C79.2024 187.103 81.7285 186.958 81.7285 186.604V173.976ZM163.472 173.794C163.2 174.584 163.762 174.868 163.915 175.258C164.092 175.704 163.932 176.281 164.49 176.48C165.13 176.107 166.468 176.766 166.834 176.16C167.028 175.835 167.013 173.796 166.65 173.796H163.472V173.794ZM92.9891 174.703C91.7382 174.594 89.5103 173.842 89.3455 175.51C89.0861 178.145 89.1539 183.195 89.3479 185.886C89.4133 186.781 89.4594 186.928 90.3733 187.038C90.8291 187.091 92.9891 187.217 92.9891 186.606V174.705V174.703ZM95.7139 174.703V186.785C95.7139 186.805 95.9661 187.057 95.9854 187.057H99.4376C99.4691 187.057 99.8909 186.635 99.8909 186.604V174.975C99.8909 174.955 99.6388 174.703 99.6194 174.703H95.7139ZM104.344 174.703C104.264 174.824 103.891 175.098 103.891 175.156V186.604C103.891 186.635 104.313 187.057 104.344 187.057H107.978C107.998 187.057 108.25 186.805 108.25 186.785V174.975C108.25 174.955 107.998 174.703 107.978 174.703H104.344ZM115.152 174.885C114.08 174.669 112.948 174.606 111.869 174.783L111.724 175.001L111.699 187.059H114.878C114.897 187.059 115.149 186.807 115.149 186.788V174.887L115.152 174.885ZM144.034 180.153C141.622 179.205 139.299 177.99 136.897 177.025C136.548 176.885 136.17 176.914 135.859 176.793C134.526 176.272 133.152 175.367 131.682 175.248V186.967C131.682 187.326 133.622 187.307 133.956 187.241C134.875 187.062 134.4 185.568 134.4 184.975C134.4 184.116 134.245 180.051 134.761 179.687C135.687 179.04 138.109 180.868 139.132 181.059V186.965C139.132 186.984 139.384 187.236 139.404 187.236H144.036V180.15L144.034 180.153ZM153.118 187.239V176.79C153.118 176.247 151.753 176.376 151.428 176.301C151.033 176.208 150.858 175.855 150.31 175.782C148.793 175.588 148.327 176.095 147.171 176.293C146.713 176.371 144.761 176.189 144.761 176.608V187.236C145.149 187.2 146.941 187.396 146.941 186.965V177.881C146.941 177.862 147.193 177.61 147.212 177.61H151.21C151.229 177.61 151.481 177.862 151.481 177.881V187.147C151.481 187.59 153.025 187.379 153.115 187.236L153.118 187.239ZM147.486 187.239H150.664C150.684 187.239 150.936 186.987 150.936 186.967V178.79C150.936 178.771 150.684 178.519 150.664 178.519H147.758C147.738 178.519 147.486 178.771 147.486 178.79V187.239ZM168.766 179.452L168.948 187.122C169.086 187.547 171.602 187.707 171.648 186.967L171.799 179.728C171.559 179.016 169.392 179.159 168.766 179.452ZM135.135 180.79V186.967C135.135 186.987 135.387 187.239 135.406 187.239H138.131C138.722 187.239 138.703 182.844 138.49 182.337C138.308 181.903 136.167 180.715 135.685 180.594C135.452 180.536 135.205 180.526 135.132 180.788L135.135 180.79ZM167.469 181.425C167.379 181.336 165.355 181.447 164.916 181.321C164.747 181.447 164.562 183.52 164.72 183.709C164.928 183.956 167.59 184.172 167.823 184.068C167.954 184.01 168.065 183.799 168.189 183.697C167.2 183.408 167.556 181.515 167.467 181.425H167.469ZM175.825 183.971C175.927 181.857 176.128 180.902 173.593 181.464C172.417 181.726 171.869 183.588 172.545 184.075C172.698 184.184 175.324 183.796 175.825 183.971Z" fill="#F7E203"/>
<path d="M104.798 157.442H108.703C108.722 157.442 108.975 157.695 108.975 157.714V163.891C108.975 164.608 104.798 164.504 104.798 163.891V157.44V157.442ZM108.25 163.438V158.441C108.25 158.032 105.525 158.032 105.525 158.441V163.438H108.25Z" fill="#F7E203"/>
<path d="M88.5406 157.261H91.9927C92.0121 157.261 92.2642 157.513 92.2642 157.532V163.891C92.2642 163.91 92.0121 164.162 91.9927 164.162H88.5406C88.5091 164.162 88.2206 163.881 88.1794 163.796C88.0073 163.425 88.0024 158.928 88.0824 158.255C88.1309 157.845 88.2182 157.537 88.5406 157.258V157.261ZM88.8121 163.256C89.2412 163.462 91.537 163.622 91.537 163.166V158.259C91.537 157.83 88.8121 157.813 88.8121 158.441V163.256Z" fill="#F7E203"/>
<path d="M99.166 157.442V163.893C99.166 163.913 98.9139 164.165 98.8945 164.165H94.7176C94.6982 164.165 94.446 163.913 94.446 163.893V157.442C95.9539 157.125 97.6509 157.188 99.1685 157.442H99.166ZM98.4388 163.438C98.6933 163.438 98.7054 158.737 98.526 158.354C98.4848 158.269 98.1963 157.988 98.1648 157.988H95.44C95.4206 157.988 95.1685 158.24 95.1685 158.259V163.438H98.4388Z" fill="#F7E203"/>
<path d="M111.156 157.442H115.607C115.627 157.442 115.879 157.695 115.879 157.714V164.073C115.879 164.092 115.627 164.344 115.607 164.344H111.43C111.411 164.344 111.159 164.092 111.159 164.073V157.44L111.156 157.442ZM114.88 158.17C114.228 157.968 112.659 158.315 111.884 158.17C111.942 158.349 111.702 158.565 111.702 158.623V163.438C112.337 163.641 114.817 163.845 115.168 163.314C115.498 162.815 114.928 161.675 115.336 160.984C115.001 160.419 115.387 158.325 114.88 158.167V158.17Z" fill="#F7E203"/>
<path d="M137.132 174.158C135.612 174.296 134.492 173.045 133.127 172.584L133.135 163.527C133.408 162.044 137.028 163.745 137.273 164.839C137.518 165.932 137.36 168.844 137.319 170.078C137.275 171.379 136.965 172.795 137.13 174.16L137.132 174.158ZM133.862 163.983V171.341C133.862 171.571 134.553 172.247 134.822 172.381C135.091 172.514 136.587 173.069 136.587 172.613V164.982C136.252 164.662 134.133 163.714 133.862 163.983Z" fill="#F7E203"/>
<path d="M138.766 165.072C139.261 164.548 142.31 165.833 142.642 166.919C142.904 167.772 142.912 173.741 142.771 174.802C142.55 176.47 139.481 175.168 138.613 174.582L138.766 165.072ZM139.312 173.976C139.779 173.61 142.036 175.273 142.036 174.429V167.161C141.241 166.664 140.24 166.298 139.312 166.162V173.976Z" fill="#F7E203"/>
<path d="M124.781 159.622V165.527C124.781 165.547 124.528 165.799 124.509 165.799H121.057C121.038 165.799 120.785 165.547 120.785 165.527V159.622C122.109 159.282 123.45 159.467 124.783 159.622H124.781ZM121.627 160.373C121.535 160.405 121.464 160.436 121.408 160.519C121.263 160.727 121.261 164.385 121.418 164.71C121.702 165.292 124.075 165.319 124.235 164.436C124.308 164.041 124.272 160.684 124.155 160.519C123.99 160.284 121.954 160.264 121.627 160.373Z" fill="#F7E203"/>
<path d="M121.51 152.718V149.537C121.51 149.518 121.762 149.265 121.782 149.265H127.232C127.263 149.265 127.685 149.687 127.685 149.719V152.444C127.685 152.536 127.251 152.902 127.05 152.899C126.824 152.899 126.097 152.308 125.552 152.213C123.842 151.92 123.05 152.608 121.508 152.715L121.51 152.718Z" fill="#F7E203"/>
</svg>
