<svg width="256" height="256" viewBox="0 0 256 256" fill="none" xmlns="http://www.w3.org/2000/svg">
<path d="M197.054 4.201C197.776 4.201 197.776 4.201 197.776 4.92305C197.776 6.17023 197.711 7.41741 197.711 8.59895C197.711 9.84613 197.711 11.1589 197.711 12.4061C197.711 13.3907 197.711 14.441 197.711 15.4256C197.711 16.2789 197.711 17.0666 197.711 17.92C197.711 18.9046 197.711 19.8236 197.711 20.8082C197.711 22.3179 197.711 23.8277 197.711 25.3374C197.711 26.6502 197.711 27.963 197.645 29.2759C197.645 31.7046 197.58 34.1333 197.58 36.4964C197.58 37.6123 197.514 38.7282 197.514 39.7784C197.514 40.5661 197.448 41.4195 197.514 42.2072C197.58 43.1918 197.514 44.242 197.448 45.2266C197.448 46.2113 197.448 47.1959 197.448 48.1805C197.448 48.9682 197.383 49.8215 197.383 50.6092C197.383 51.3969 197.448 52.1846 197.383 52.9723C197.383 53.3661 197.448 53.6943 197.317 54.0882C197.251 54.4164 197.317 54.7446 197.317 55.0072C197.317 55.6636 197.317 56.32 197.317 56.9107C197.317 57.4359 197.317 58.0266 197.317 58.5518C197.317 59.1425 197.317 59.7333 197.317 60.2584C197.317 60.8492 197.251 61.5056 197.317 62.0964C197.317 62.6215 197.317 63.1466 197.317 63.6718C197.317 64.4595 197.317 65.3128 197.317 66.1005C197.317 67.1507 197.317 68.201 197.317 69.3169C197.317 70.4328 197.317 71.483 197.317 72.5989C197.317 74.3056 197.251 75.9466 197.317 77.6533C197.317 78.9661 197.251 80.2133 197.317 81.5261C197.383 82.4451 197.317 83.3641 197.251 84.283C197.251 85.2677 197.251 86.3179 197.251 87.3025C197.251 88.1559 197.186 89.0092 197.251 89.8625C197.251 90.4533 197.251 91.1097 197.251 91.7005C197.251 92.2256 197.251 92.8164 197.251 93.3415C197.251 94.3918 197.317 95.5077 197.251 96.5579C197.251 97.4113 197.251 98.199 197.251 99.0523C197.251 99.5774 197.317 100.037 197.251 100.562C197.186 101.415 197.251 102.269 197.251 103.122C197.251 104.304 197.251 105.551 197.251 106.732C197.251 107.586 197.251 108.439 197.251 109.358C197.251 110.343 197.251 111.327 197.251 112.312C197.251 113.362 197.251 114.412 197.251 115.463C197.251 116.447 197.251 117.432 197.251 118.416C197.251 119.27 197.186 120.123 197.251 120.976C197.251 121.567 197.251 122.092 197.251 122.683C197.251 123.274 197.251 123.93 197.251 124.521C197.251 125.046 197.251 125.637 197.251 126.162C197.251 126.95 197.251 127.737 197.251 128.591C197.251 129.116 197.251 129.641 197.251 130.232C197.251 131.151 197.251 132.07 197.251 132.989C197.251 133.908 197.251 134.892 197.251 135.811C197.251 137.387 197.186 138.896 197.186 140.472C197.186 142.572 197.186 144.738 197.186 146.839C197.186 147.692 197.12 148.546 197.12 149.465C197.12 150.318 197.054 151.106 197.12 151.959C197.186 152.944 197.12 153.928 197.054 154.913C197.054 155.569 196.923 156.291 196.923 156.948C196.923 157.867 196.792 158.786 196.726 159.705C196.661 160.492 196.529 161.28 196.464 162.002C196.398 162.658 196.267 163.315 196.201 163.971C195.938 165.35 195.676 166.663 195.413 168.041C195.151 169.288 194.823 170.535 194.429 171.717C193.904 173.424 193.378 175.13 192.788 176.837C192.394 178.018 191.934 179.266 191.475 180.382C191.015 181.366 190.622 182.416 190.162 183.401C189.768 184.254 189.374 185.108 188.981 185.961C188.652 186.683 188.324 187.405 187.865 188.062C187.536 188.587 187.274 189.243 186.946 189.834C186.289 191.081 185.633 192.263 184.911 193.51C184.451 194.232 183.992 194.954 183.664 195.742C183.532 196.004 183.335 196.267 183.139 196.529C182.679 197.186 182.416 197.973 181.957 198.63C181.366 199.417 180.907 200.336 180.316 201.124C179.856 201.715 179.463 202.437 179.003 203.028C178.281 203.947 177.625 204.997 176.903 205.916C176.509 206.441 176.049 207.032 175.655 207.557C175.196 208.213 174.605 208.804 174.146 209.395C173.358 210.445 172.505 211.43 171.651 212.414C170.798 213.399 170.01 214.384 169.157 215.303C168.632 215.828 168.172 216.484 167.647 217.009C166.728 217.994 165.809 218.978 164.956 219.963C163.84 221.21 162.659 222.392 161.411 223.573C160.492 224.427 159.705 225.346 158.786 226.265C158.129 226.921 157.407 227.512 156.751 228.168C156.029 228.825 155.307 229.481 154.585 230.137C153.403 231.188 152.222 232.238 151.106 233.223C150.187 234.01 149.268 234.864 148.283 235.651C147.167 236.57 146.051 237.555 144.87 238.474C143.623 239.524 142.31 240.509 141.063 241.559C140.406 242.15 139.684 242.609 138.962 243.134C137.846 243.988 136.796 244.775 135.68 245.629C134.63 246.416 133.514 247.138 132.464 247.926C131.807 248.451 131.085 248.976 130.429 249.436C129.707 249.961 128.919 250.486 128.197 251.011C128 251.143 127.869 251.143 127.672 251.011C127.015 250.552 126.293 250.158 125.703 249.633C125.374 249.37 124.981 249.108 124.652 248.911C123.668 248.32 122.749 247.598 121.83 246.876C120.714 246.023 119.598 245.235 118.482 244.316C117.169 243.266 115.791 242.281 114.478 241.231C112.64 239.721 110.802 238.277 109.03 236.702C107.586 235.52 106.207 234.207 104.829 233.026C103.253 231.647 101.744 230.269 100.234 228.89C98.3959 227.184 96.558 225.477 94.8513 223.639C93.6041 222.326 92.2913 221.079 91.0441 219.7C89.7313 218.256 88.4185 216.812 87.1057 215.303C86.6462 214.712 86.0554 214.187 85.5959 213.596C84.5457 212.349 83.4298 211.167 82.5108 209.854C81.5918 208.542 80.5416 207.36 79.6226 206.113C79.0318 205.325 78.5067 204.537 77.9159 203.75C76.8657 202.371 75.8811 200.927 74.9621 199.483C74.3713 198.63 73.8462 197.645 73.2554 196.792C72.599 195.873 72.0739 194.888 71.4831 193.904C70.4329 192.131 69.4483 190.359 68.5293 188.521C67.6103 186.749 66.757 184.976 65.9693 183.204C65.0503 181.104 64.1313 178.937 63.4093 176.771C62.9498 175.327 62.4247 173.883 62.0308 172.439C61.5713 170.732 61.0462 169.026 60.718 167.253C60.5867 166.531 60.3898 165.809 60.2585 165.087C60.1272 164.234 59.9959 163.315 59.8647 162.462C59.799 161.805 59.6677 161.214 59.6021 160.558C59.4708 159.639 59.4052 158.72 59.3395 157.801C59.2083 156.226 59.2083 154.65 59.2083 153.075C59.2083 151.828 59.2083 150.58 59.2083 149.333C59.2083 146.773 59.2083 144.213 59.2739 141.653C59.2739 139.618 59.3395 137.518 59.3395 135.483C59.3395 133.711 59.3395 131.938 59.3395 130.166C59.3395 128.197 59.4052 126.228 59.4052 124.258C59.4052 122.158 59.4052 120.057 59.4708 117.957C59.4708 113.822 59.5365 109.686 59.5365 105.551C59.5365 103.516 59.6021 101.481 59.6021 99.4461C59.6021 98.0677 59.6021 96.6892 59.6677 95.2451C59.6677 93.9979 59.6021 92.6851 59.6677 91.4379C59.6677 90.2564 59.7334 89.0092 59.7334 87.8277C59.7334 86.3179 59.7334 84.8738 59.799 83.3641C59.799 81.3292 59.799 79.36 59.799 77.3251C59.799 73.8461 59.8647 70.3672 59.8647 66.8225C59.8647 64.722 59.8647 62.6872 59.8647 60.5866C59.8647 59.0769 59.9303 57.5672 59.9303 56.0574C59.9303 55.0072 59.9303 53.8913 59.9303 52.841C59.7334 51.2 59.7334 49.8215 59.7334 48.4431C59.7334 47.3272 59.7334 46.1456 59.7334 45.0297C59.799 43.0605 59.7334 41.1569 59.799 39.1877C59.799 37.2184 59.799 35.1836 59.799 33.2143C59.799 31.2451 59.799 29.2759 59.799 27.3723C59.799 25.4031 59.799 23.4995 59.799 21.5302C59.799 19.0359 59.799 16.5415 59.799 14.0472C59.799 12.603 59.799 11.1589 59.799 9.71484C59.799 8.2051 59.799 6.761 59.799 5.25125C59.799 4.85741 59.799 4.39792 59.799 4.00407C59.799 3.74151 59.9303 3.67587 60.1272 3.61023C60.4554 3.54459 60.718 3.61023 61.0462 3.61023C63.1467 3.54459 195.545 4.201 197.054 4.201Z" fill="black"/>
<path d="M62.162 7.81128L195.085 8.27077C195.085 8.27077 194.166 142.704 194.166 142.638C193.969 141.916 163.84 14.9005 163.709 14.3097C163.577 13.7846 163.512 13.7846 162.987 13.7846C162.527 13.7846 162.133 13.7846 161.674 13.7846C161.28 13.7846 161.214 13.8503 161.083 14.2441C160.952 14.5723 127.54 195.413 127.54 195.413C127.54 195.413 95.8358 14.3097 95.8358 14.2441C95.7046 13.719 95.7046 13.5877 95.1794 13.5877C94.7199 13.5877 94.3261 13.5877 93.8666 13.5877C93.3415 13.5877 93.3415 13.5877 93.2102 14.1128C93.0789 14.6379 61.8338 140.8 61.7025 140.997C61.4399 140.669 62.162 7.81128 62.162 7.81128Z" fill="#E30613"/>
<path d="M194.232 154.06H184.648L181.563 140.866C178.347 140.866 149.858 140.734 149.858 140.734C149.727 141.653 135.943 216.615 135.943 216.615L120.386 216.55L106.601 140.669C105.223 140.669 95.3764 140.603 93.4072 140.603C90.6502 140.603 74.6995 140.537 74.24 140.537L71.0892 153.6H61.5056C61.5056 153.6 93.9979 20.677 94.1948 20.1519C94.2605 20.5457 126.359 201.321 126.425 201.452C126.556 202.043 126.556 202.043 127.147 202.043C127.606 202.043 128.066 202.043 128.525 202.043C128.919 202.043 128.985 201.977 129.05 201.584C129.182 201.19 162.593 20.6113 162.593 20.6113C162.593 20.6113 193.904 152.812 194.232 154.06Z" fill="#FFFEFE"/>
<path d="M104.435 131.282C102.531 131.282 76.5376 131.151 76.5376 131.151L92.9479 65.2472L104.435 131.282Z" fill="black"/>
<path d="M178.347 131.61L151.434 131.479L163.709 65.2472C163.84 65.7067 178.347 131.61 178.347 131.61Z" fill="black"/>
<path d="M54.2852 0C54.2852 0 53.8257 150.384 53.8257 151.631C53.8257 153.337 53.8913 154.782 53.957 156.226C54.0226 157.342 54.1539 158.392 54.2852 159.508L54.3508 159.836C54.4821 161.017 54.679 162.265 54.8103 163.446C55.0072 164.825 55.2698 166.137 55.5324 167.45C55.598 167.778 56.8452 172.702 57.3703 174.408C57.6329 175.327 57.9611 176.246 58.2893 177.231L58.8144 178.675C59.077 179.397 59.2739 180.053 59.5365 180.775C59.9303 181.826 60.3898 182.81 60.8493 183.861C61.3088 184.911 61.7026 185.764 62.0965 186.683L62.4247 187.471C62.8185 188.324 63.2123 189.177 63.6062 189.965C64 190.753 64.4595 191.541 64.8534 192.263C65.0503 192.656 65.3129 193.05 65.5098 193.444L66.1006 194.494C66.4288 195.085 66.757 195.676 67.0852 196.267C67.4134 196.792 67.7416 197.317 68.0698 197.842L69.0544 199.417C69.3826 199.943 69.7108 200.468 70.039 200.993C70.3016 201.452 70.6298 201.846 70.8923 202.306C71.1549 202.634 71.3518 203.028 71.6144 203.356C71.877 203.75 72.0739 204.144 72.3365 204.537C72.5334 204.866 72.7303 205.194 72.9272 205.456C73.1241 205.785 73.3867 206.113 73.5836 206.375L74.5026 207.623C75.2247 208.673 76.0123 209.657 76.8 210.642C78.5723 212.874 80.1477 214.712 81.5918 216.418C82.9703 217.994 84.4144 219.569 85.7929 221.145L87.3682 222.917C87.959 223.573 88.4841 224.164 89.0749 224.755C89.797 225.477 90.4534 226.199 91.1754 226.855C93.2103 228.825 95.2452 230.728 97.28 232.697C98.1334 233.551 99.0523 234.338 99.9713 235.192C100.431 235.651 100.956 236.045 101.415 236.505L102.334 237.358C103.056 238.014 103.844 238.671 104.566 239.262C105.551 240.115 106.535 240.903 107.52 241.756C108.57 242.609 109.621 243.463 110.671 244.316C111.984 245.366 113.296 246.351 114.675 247.401C116.119 248.517 117.563 249.567 119.007 250.617C119.598 251.011 120.123 251.471 120.714 251.865L124.521 254.556C124.849 254.818 125.243 255.015 125.571 255.278C126.162 255.672 126.818 255.869 127.475 255.869C128.197 255.869 128.853 255.672 129.51 255.278C130.363 254.687 131.216 254.162 132.07 253.571L133.054 252.915C133.711 252.455 134.367 252.062 135.024 251.602C135.614 251.143 136.271 250.749 136.862 250.289L138.437 249.173C138.962 248.779 139.487 248.451 139.947 248.057C141.194 247.138 142.375 246.219 143.623 245.301L144.41 244.71C145.329 244.053 146.248 243.331 147.102 242.609C148.94 241.165 150.712 239.655 152.484 238.08C154.191 236.636 155.832 235.192 157.473 233.748C158.654 232.697 159.836 231.582 160.952 230.466L162.33 229.153C163.512 228.037 164.759 226.855 165.941 225.674C167.516 224.098 169.026 222.523 170.47 220.948C171.651 219.701 172.767 218.453 173.883 217.206C174.408 216.55 174.933 215.959 175.458 215.303L176.968 213.465C177.428 212.939 177.887 212.349 178.347 211.758C178.741 211.298 179.069 210.839 179.397 210.38L182.745 205.916C183.073 205.456 183.401 204.997 183.729 204.537C184.583 203.29 185.436 202.043 186.224 200.796C186.946 199.614 187.668 198.433 188.39 197.251L189.046 196.201C190.687 193.51 192.131 190.687 193.444 187.996C194.363 186.158 195.216 184.254 196.135 182.023C197.186 179.463 198.105 176.903 198.892 174.277C199.483 172.242 199.943 170.535 200.336 168.829C200.599 167.713 200.796 166.531 200.993 165.415L201.19 164.431C201.387 163.446 201.518 162.462 201.649 161.477C201.781 160.755 201.846 160.033 201.912 159.311L201.977 158.523C202.043 157.473 202.174 156.357 202.24 155.307C202.306 154.191 202.306 153.075 202.306 151.959V151.106C202.306 149.53 202.306 147.955 202.306 146.379L202.634 0.328205L54.2852 0ZM60.1929 5.84205C78.638 5.90769 178.215 6.30154 196.726 6.36718C196.726 6.36718 196.464 154.191 196.398 155.241C196.332 156.226 196.267 157.21 196.201 158.195L196.135 158.983C196.07 159.573 196.004 160.23 195.938 160.821C195.807 161.739 195.676 162.658 195.479 163.577L195.282 164.562C195.085 165.612 194.888 166.597 194.691 167.582C194.297 169.157 193.904 170.732 193.313 172.702C192.591 175.065 191.737 177.493 190.753 179.856C189.9 181.957 189.046 183.795 188.258 185.436C187.011 187.93 185.633 190.622 184.123 193.116L183.467 194.232C182.745 195.348 182.088 196.529 181.366 197.645C180.578 198.827 179.791 200.074 178.937 201.255C178.675 201.649 178.412 202.043 178.084 202.371L174.736 206.901C174.408 207.294 174.146 207.754 173.817 208.148C173.358 208.673 172.964 209.198 172.505 209.723L170.929 211.627C170.47 212.217 169.945 212.808 169.485 213.399C168.435 214.581 167.385 215.762 166.269 216.944C164.759 218.519 163.315 220.094 161.805 221.604C160.689 222.72 159.508 223.836 158.326 224.952L156.948 226.265C155.832 227.315 154.716 228.365 153.6 229.415C152.025 230.859 150.384 232.238 148.743 233.682C146.97 235.192 145.264 236.636 143.491 238.08C142.638 238.736 141.785 239.393 140.997 240.049L140.209 240.64C139.028 241.559 137.846 242.478 136.599 243.331C136.14 243.66 135.614 244.053 135.155 244.382L133.58 245.563C132.989 245.957 132.464 246.416 131.873 246.81C131.282 247.204 130.626 247.598 130.035 248.057L129.05 248.714C128.853 248.845 128.656 248.976 128.394 249.108C128 249.37 127.541 249.37 127.147 249.108L124.324 247.138C123.799 246.745 123.274 246.416 122.749 246.023C121.305 244.972 119.926 243.922 118.482 242.872C117.169 241.887 115.856 240.903 114.544 239.852C113.493 239.065 112.509 238.211 111.524 237.424C110.54 236.636 109.621 235.848 108.702 234.995C107.98 234.338 107.257 233.748 106.535 233.091L105.551 232.238C105.091 231.844 104.632 231.45 104.172 231.056C103.319 230.269 102.4 229.481 101.547 228.628C99.5118 226.724 97.477 224.755 95.4421 222.851C94.7857 222.195 94.1293 221.538 93.4729 220.882C92.9477 220.357 92.4882 219.832 91.9631 219.241L90.3221 217.403C88.9436 215.893 87.5652 214.318 86.1867 212.743C84.7426 211.102 83.2985 209.329 81.5262 207.097C80.8041 206.178 80.0821 205.194 79.36 204.275L78.4411 203.028C78.2441 202.765 77.4565 201.584 77.4565 201.584C77.1939 201.124 76.9313 200.73 76.6688 200.271C76.4062 199.877 76.1436 199.483 75.8811 199.089C75.6185 198.695 75.3559 198.302 75.0934 197.908C74.7652 197.448 74.5026 196.923 74.1744 196.398L73.1241 194.757C72.8616 194.297 72.5334 193.838 72.2708 193.378C71.9426 192.853 71.68 192.328 71.4175 191.803C71.2206 191.409 71.0236 191.081 70.8267 190.687C70.6298 190.293 70.3672 189.834 70.1047 189.44C69.7108 188.718 69.317 188.062 68.9231 187.339C68.5293 186.617 68.2011 185.83 67.8729 185.108L67.5447 184.32C67.1508 183.467 66.757 182.613 66.3631 181.76C65.9036 180.644 65.4441 179.725 65.1159 178.741C64.8534 178.15 64.6565 177.559 64.4595 176.968L63.9344 175.458C63.6718 174.605 63.3436 173.752 63.0811 172.898C62.6216 171.323 62.0965 169.485 61.7026 167.713C61.637 167.385 61.5713 167.122 61.44 166.794C61.44 166.728 61.44 166.728 61.3744 166.663C61.1118 165.35 60.9149 164.103 60.718 162.79C60.5211 161.674 60.3898 160.558 60.2585 159.376L60.1929 158.851C60.0616 157.867 59.9303 156.882 59.9303 155.897C59.8647 154.585 59.799 153.141 59.799 151.565C59.799 150.384 59.799 149.202 59.799 148.021L60.1929 5.84205Z" fill="white"/>
</svg>
