<svg width="256" height="256" viewBox="0 0 256 256" fill="none" xmlns="http://www.w3.org/2000/svg">
<path d="M74.2804 57.2332H65.2141L66.9417 48.6849H51.0039L48.9708 57.2332H40.1426C40.1426 57.2332 40.954 52.5878 41.8418 48.7508C43.0304 43.6173 44.6847 38.2533 47.869 31.2874C48.905 29.0193 49.1041 28.8816 50.0383 28.1331C50.9739 27.3845 52.0458 27.0103 53.2555 27.0103H74.1951C75.0005 27.0103 75.7416 27.1764 76.4182 27.5073C77.0934 27.8381 77.6623 28.2843 78.1234 28.8457C78.583 29.4071 78.9079 30.0478 79.095 30.7664C79.2821 31.4865 79.2896 32.2336 79.116 33.012L74.2804 57.2317V57.2332ZM51.0024 34.0495L54.6732 35.5601L52.5039 41.6038H68.3655L69.617 35.2576C69.6739 34.9418 69.602 34.6603 69.4014 34.4163C69.1993 34.1723 68.9403 34.0495 68.6245 34.0495H51.0024Z" fill="#4FAEE3"/>
<path d="M95.8368 46.6564L90.7857 45.1458L81.2014 27.0132H90.7857L96.3114 38.1096L104.86 27.0132H115.437L100.586 45.1458L98.3399 57.2347H88.4967L90.4833 46.6579H95.8368V46.6564Z" fill="#4FAEE3"/>
<path d="M128.253 34.0495H117.589L119.015 27.0117H149.841L148.416 34.0495H133.003L138.054 35.5601L133.693 57.2332H123.635L128.255 34.0495H128.253Z" fill="#4FAEE3"/>
<path d="M156.263 57.2332H147.197L153.241 27.0117H182.339C183.145 27.0117 183.886 27.1779 184.563 27.5088C185.238 27.8396 185.799 28.2858 186.247 28.8472C186.693 29.4086 187.016 30.0493 187.218 30.7679C187.419 31.488 187.449 32.235 187.305 33.0135L184.974 44.6278C184.744 45.836 184.167 46.8151 183.247 47.5636C182.324 48.3121 181.26 48.6864 180.052 48.6864H178.109L181.952 57.2347H172.885L169.042 48.6864H157.989L156.263 57.2347V57.2332ZM159.373 41.6052H175.692C176.21 41.6052 176.541 41.3463 176.685 40.8283L177.764 35.2591C177.821 34.9433 177.757 34.6618 177.57 34.4178C177.383 34.1738 177.131 34.051 176.814 34.051H155.573L160.581 35.5616L159.373 41.6052Z" fill="#4FAEE3"/>
<path d="M188.738 51.1895L193.573 27.0132H213.726C215.354 27.0132 217.627 27.0132 218.765 30.1032L220.525 34.051H195.906L200.957 35.5615L200.309 38.8431H213.459L212.164 45.4048H198.97L198.28 48.9888C198.222 49.3062 198.295 49.5862 198.496 49.8302C198.696 50.0757 198.955 50.197 199.273 50.197H217.146L215.765 57.2347H193.704C192.897 57.2347 192.156 57.07 191.48 56.7377C190.804 56.4068 190.242 55.9607 189.796 55.3993C189.35 54.8379 189.027 54.1912 188.825 53.4561C188.623 52.7225 188.594 51.9665 188.738 51.1895Z" fill="#4FAEE3"/>
<path d="M56.5145 90.3755H48.5995L53.8767 63.9925H79.2791C79.9827 63.9925 80.6294 64.1377 81.2208 64.4266C81.8106 64.7156 82.3002 65.1048 82.6909 65.5944C83.0801 66.0839 83.3631 66.6438 83.5397 67.2711C83.7149 67.8999 83.7403 68.5526 83.6146 69.2308L81.5801 79.369C81.378 80.4244 80.8764 81.2792 80.0725 81.932C79.2686 82.5862 78.3389 82.911 77.2835 82.911H75.5873L78.9422 90.374H71.0272L67.6722 82.911H58.0236L56.516 90.374L56.5145 90.3755ZM59.2272 76.7326H73.4734C73.9255 76.7326 74.2145 76.5065 74.3402 76.0544L75.2819 71.1919C75.3313 70.915 75.2759 70.6709 75.1127 70.4569C74.9495 70.2443 74.7295 70.1365 74.4525 70.1365H55.9097L60.2812 71.4554L59.2257 76.7326H59.2272Z" fill="#172439"/>
<path d="M89.2646 84.233H104.114C104.566 84.233 104.855 83.9949 104.981 83.5174L108.9 63.994H116.815L112.255 86.8334C112.053 87.8888 111.546 88.7437 110.728 89.3964C109.911 90.0506 108.975 90.377 107.92 90.377H89.6404C88.9367 90.377 88.29 90.2332 87.6986 89.9428C87.1073 89.6539 86.6178 89.2646 86.2285 88.7751C85.8393 88.2855 85.5563 87.7196 85.3812 87.0789C85.2045 86.4381 85.1791 85.7779 85.3063 85.0998L89.5281 63.994H97.4431L93.6735 82.914L89.2631 84.233H89.2646Z" fill="#172439"/>
<path d="M129.178 71.4569L126.841 83.1775C126.79 83.4545 126.853 83.6985 127.03 83.9126C127.205 84.1267 127.431 84.233 127.708 84.233H137.131C137.634 84.233 137.923 83.9949 137.997 83.5174L138.752 79.8241H135.473C135.045 79.8241 134.656 79.7357 134.306 79.5606C133.954 79.3854 133.659 79.1519 133.419 78.863C133.18 78.574 133.011 78.2357 132.91 77.8449C132.81 77.4557 132.798 77.0605 132.873 76.6578L133.288 74.5469H147.722L145.688 84.7225C145.511 85.5519 145.21 86.3124 144.784 87.0026C144.355 87.6942 143.842 88.29 143.239 88.793C142.635 89.2961 141.951 89.6853 141.185 89.9608C140.418 90.2377 139.62 90.3755 138.791 90.3755H122.208C121.604 90.3755 121.04 90.2497 120.512 89.9982C119.985 89.7482 119.544 89.4024 119.193 88.9622C118.841 88.5236 118.589 88.0265 118.44 87.4741C118.288 86.9217 118.276 86.3438 118.402 85.7405L122.058 67.5361C122.259 66.4806 122.762 65.6273 123.566 64.9731C124.369 64.3204 125.299 63.9925 126.355 63.9925H149.119L147.914 70.1365H124.772L129.181 71.4554L129.178 71.4569Z" fill="#172439"/>
<path d="M179.755 90.3755H150.66L155.937 63.9925H181.339C182.017 63.9925 182.652 64.1377 183.242 64.4266C183.832 64.7156 184.321 65.1048 184.712 65.5944C185.101 66.0839 185.384 66.6438 185.56 67.2711C185.735 67.8999 185.76 68.5526 185.634 69.2308L184.805 73.4899C184.628 74.2939 184.221 74.9661 183.58 75.5065C182.94 76.0469 182.191 76.3164 181.338 76.3164H181.904C182.456 76.3164 182.965 76.4362 183.431 76.6742C183.895 76.9138 184.291 77.2266 184.618 77.6159C184.944 78.0051 185.176 78.4513 185.315 78.9543C185.453 79.4573 185.459 79.9723 185.335 80.4993L184.091 86.8304C183.889 87.8858 183.381 88.7407 182.564 89.3934C181.746 90.0476 180.811 90.374 179.755 90.374V90.3755ZM176.099 73.6801C176.602 73.6801 176.891 73.442 176.966 72.9645L177.344 71.1934C177.393 70.9165 177.33 70.6724 177.155 70.4584C176.978 70.2458 176.752 70.138 176.477 70.138H158.386L162.796 71.4569L162.344 73.6801H176.101H176.099ZM160.233 84.233H175.987C176.463 84.233 176.74 83.9949 176.817 83.5174L177.532 80.0127C177.582 79.7372 177.519 79.4917 177.344 79.2776C177.167 79.0651 176.941 78.9573 176.665 78.9573H161.289L160.233 84.2345V84.233Z" fill="#172439"/>
<path d="M200.975 81.143L196.564 79.8241L188.197 63.994H196.564L201.388 73.6801L208.851 63.994H218.085L205.12 79.8241L203.161 90.377H194.567L196.301 81.143H200.975Z" fill="#172439"/>
<path d="M91.329 104.032V105.267C91.329 106.755 90.585 107.605 89.1508 107.605C87.7166 107.605 86.9725 106.755 86.9725 105.267V100.431C86.9725 98.9432 87.7166 98.0929 89.1508 98.0929C90.585 98.0929 91.329 98.9432 91.329 100.431V101.336H89.9472V100.339C89.9472 99.6738 89.6553 99.4223 89.1897 99.4223C88.7241 99.4223 88.4322 99.6753 88.4322 100.339V105.361C88.4322 106.026 88.7241 106.265 89.1897 106.265C89.6553 106.265 89.9472 106.026 89.9472 105.361V104.033H91.329V104.032Z" fill="#4FAEE3"/>
<path d="M92.1 100.431C92.1 98.9432 92.8844 98.0929 94.3186 98.0929C95.7528 98.0929 96.5373 98.9432 96.5373 100.431V105.267C96.5373 106.755 95.7528 107.605 94.3186 107.605C92.8844 107.605 92.1 106.755 92.1 105.267V100.431ZM93.5611 105.36C93.5611 106.024 93.853 106.276 94.3186 106.276C94.7842 106.276 95.0762 106.023 95.0762 105.36V100.337C95.0762 99.6723 94.7842 99.4208 94.3186 99.4208C93.853 99.4208 93.5611 99.6738 93.5611 100.337V105.36Z" fill="#4FAEE3"/>
<path d="M98.783 100.762V107.498H97.467V98.1977H99.301L100.803 103.764V98.1977H102.105V107.498H100.603L98.783 100.762Z" fill="#4FAEE3"/>
<path d="M103.033 100.431C103.033 98.9432 103.818 98.0929 105.252 98.0929C106.686 98.0929 107.47 98.9432 107.47 100.431V105.267C107.47 105.785 107.378 106.224 107.192 106.569C107.258 106.742 107.364 106.768 107.604 106.768H107.737V108.071H107.538C106.887 108.071 106.475 107.831 106.276 107.433C105.984 107.539 105.638 107.605 105.253 107.605C103.819 107.605 103.035 106.755 103.035 105.267V100.431H103.033ZM104.496 105.36C104.496 106.024 104.788 106.276 105.253 106.276C105.719 106.276 106.011 106.023 106.011 105.36V100.337C106.011 99.6723 105.719 99.4208 105.253 99.4208C104.788 99.4208 104.496 99.6738 104.496 100.337V105.36Z" fill="#4FAEE3"/>
<path d="M109.809 98.1992V105.373C109.809 106.038 110.101 106.277 110.566 106.277C111.032 106.277 111.324 106.038 111.324 105.373V98.1992H112.706V105.28C112.706 106.768 111.962 107.619 110.528 107.619C109.093 107.619 108.349 106.768 108.349 105.28V98.1992H109.81H109.809Z" fill="#4FAEE3"/>
<path d="M115.164 102.119H117.17V103.446H115.164V106.17H117.688V107.499H113.703V98.1992H117.688V99.5271H115.164V102.119Z" fill="#4FAEE3"/>
<path d="M121.648 107.499C121.568 107.259 121.515 107.114 121.515 106.357V104.896C121.515 104.032 121.223 103.713 120.558 103.713H120.053V107.499H118.592V98.1992H120.797C122.313 98.1992 122.964 98.9028 122.964 100.339V101.069C122.964 102.026 122.658 102.65 122.007 102.955C122.738 103.261 122.977 103.964 122.977 104.935V106.369C122.977 106.821 122.991 107.153 123.136 107.498H121.648V107.499ZM120.053 99.5271V102.384H120.625C121.17 102.384 121.503 102.144 121.503 101.4V100.484C121.503 99.819 121.277 99.5271 120.759 99.5271H120.055H120.053Z" fill="#4FAEE3"/>
<path d="M123.932 98.1992H125.394V107.499H123.932V98.1992Z" fill="#4FAEE3"/>
<path d="M129.512 107.499C129.433 107.259 129.379 107.114 129.379 106.357V104.896C129.379 104.032 129.087 103.713 128.422 103.713H127.918V107.499H126.456V98.1992H128.662C130.177 98.1992 130.828 98.9028 130.828 100.339V101.069C130.828 102.026 130.522 102.65 129.871 102.955C130.602 103.261 130.841 103.964 130.841 104.935V106.369C130.841 106.821 130.855 107.153 131 107.498H129.512V107.499ZM127.918 99.5271V102.384H128.489C129.034 102.384 129.367 102.144 129.367 101.4V100.484C129.367 99.819 129.141 99.5271 128.623 99.5271H127.919H127.918Z" fill="#4FAEE3"/>
<path d="M135.318 102.119H137.324V103.446H135.318V106.17H137.842V107.499H133.856V98.1992H137.842V99.5271H135.318V102.119Z" fill="#4FAEE3"/>
<path d="M140.048 100.762V107.498H138.732V98.1977H140.566L142.068 103.764V98.1977H143.37V107.498H141.869L140.048 100.762Z" fill="#4FAEE3"/>
<path d="M146.385 98.0929C147.808 98.0929 148.538 98.9432 148.538 100.431V100.723H147.156V100.339C147.156 99.6738 146.891 99.4223 146.426 99.4223C145.96 99.4223 145.695 99.6753 145.695 100.339C145.695 102.252 148.552 102.611 148.552 105.267C148.552 106.755 147.808 107.605 146.373 107.605C144.939 107.605 144.195 106.755 144.195 105.267V104.695H145.577V105.36C145.577 106.024 145.869 106.264 146.335 106.264C146.8 106.264 147.092 106.024 147.092 105.36C147.092 103.446 144.236 103.089 144.236 100.431C144.236 98.9432 144.966 98.0929 146.388 98.0929H146.385Z" fill="#4FAEE3"/>
<path d="M150.85 102.119H152.856V103.446H150.85V106.17H153.374V107.499H149.389V98.1992H153.374V99.5271H150.85V102.119Z" fill="#4FAEE3"/>
<path d="M157.373 104.801L158.37 98.1977H160.403V107.498H159.021V100.828L158.012 107.498H156.63L155.54 100.921V107.498H154.265V98.1977H156.298L157.374 104.801H157.373Z" fill="#4FAEE3"/>
<path d="M165.835 100.339V100.671C165.835 101.627 165.544 102.238 164.892 102.544C165.677 102.849 165.982 103.553 165.982 104.536V105.294C165.982 106.728 165.225 107.499 163.764 107.499H161.466V98.1992H163.671C165.186 98.1992 165.837 98.9028 165.837 100.339H165.835ZM162.927 99.5271V101.985H163.499C164.043 101.985 164.376 101.746 164.376 101.002V100.484C164.376 99.819 164.15 99.5271 163.632 99.5271H162.928H162.927ZM162.927 103.313V106.17H163.764C164.255 106.17 164.521 105.944 164.521 105.253V104.443C164.521 103.58 164.243 103.315 163.578 103.315H162.927V103.313Z" fill="#4FAEE3"/>
<path d="M166.858 98.1992H168.319V106.171H170.723V107.501H166.857V98.2007L166.858 98.1992Z" fill="#4FAEE3"/>
<path d="M172.824 102.119H174.83V103.446H172.824V106.17H175.348V107.499H171.363V98.1992H175.348V99.5271H172.824V102.119Z" fill="#4FAEE3"/>
<path d="M79.0576 101.999H61.6885V103.183H79.0576V101.999Z" fill="#4FAEE3"/>
<path d="M196.066 101.999H182.645V103.183H196.066V101.999Z" fill="#4FAEE3"/>
<path d="M137.876 143.095H206.977C209.607 133.985 211.648 123.923 212.899 112.817H134.147V125.491C134.147 125.491 140.014 132.196 137.876 143.094V143.095Z" fill="#4FAEE3"/>
<path d="M142.551 222.822C149.064 219.811 158.001 214.783 167.361 206.8H141.427C141.427 206.8 146.014 212.242 142.551 222.822Z" fill="#4FAEE3"/>
<path d="M161.256 169.247C160.443 169.247 160.037 169.732 160.037 170.701V173.351C160.037 174.335 160.443 174.826 161.256 174.826C162.069 174.826 162.475 174.335 162.475 173.351V170.701C162.475 169.732 162.069 169.247 161.256 169.247Z" fill="#4FAEE3"/>
<path d="M169.87 175.553C168.987 175.553 168.545 176.116 168.545 177.242V178.675C168.545 179.8 168.987 180.363 169.87 180.363C170.753 180.363 171.195 179.8 171.195 178.675V177.242C171.195 176.116 170.753 175.553 169.87 175.553Z" fill="#4FAEE3"/>
<path d="M169.87 173.415C170.697 173.415 171.11 172.917 171.11 171.918V170.743C171.11 169.746 170.697 169.247 169.87 169.247C169.044 169.247 168.631 169.746 168.631 170.743V171.918C168.631 172.915 169.044 173.415 169.87 173.415Z" fill="#4FAEE3"/>
<path d="M143.535 159.808C143.535 159.808 142.48 163.666 141.878 165.047C141.941 167.638 142.728 169.264 141.113 173.417C140.628 174.827 142.79 177.948 143.001 178.809C143.212 179.67 145.411 183.006 142.806 188.009L143.454 190.087H184.91C191.403 181.847 197.535 171.866 202.598 159.808H143.535ZM155.015 182.287H152.663V170.873H150.205V169.205C150.874 169.205 151.413 169.149 151.818 169.035C152.224 168.921 152.549 168.732 152.792 168.469C153.034 168.205 153.248 167.824 153.432 167.325H155.015V182.287ZM164.827 178.61C164.827 181.203 163.629 182.5 161.235 182.5C160.094 182.5 159.226 182.176 158.627 181.526C158.028 180.878 157.729 179.949 157.729 178.737V178.459H159.952V178.887C159.952 179.871 160.358 180.362 161.171 180.362C161.612 180.362 161.94 180.227 162.154 179.956C162.368 179.685 162.475 179.207 162.475 178.523V175.659H162.433C162.019 176.529 161.307 176.963 160.295 176.963C159.44 176.963 158.792 176.671 158.35 176.088C157.909 175.504 157.687 174.655 157.687 173.544V170.872C157.687 169.674 157.992 168.749 158.606 168.093C159.218 167.437 160.102 167.11 161.256 167.11C162.41 167.11 163.294 167.437 163.906 168.093C164.518 168.749 164.825 169.676 164.825 170.872V178.609L164.827 178.61ZM173.547 178.802C173.547 179.999 173.23 180.914 172.596 181.549C171.962 182.184 171.054 182.5 169.872 182.5C168.689 182.5 167.78 182.182 167.147 181.549C166.512 180.916 166.196 179.999 166.196 178.802V177.477C166.196 176.736 166.318 176.113 166.56 175.607C166.803 175.101 167.193 174.706 167.735 174.42V174.376C167.237 174.105 166.87 173.731 166.635 173.255C166.4 172.778 166.282 172.168 166.282 171.427V170.807C166.282 169.61 166.592 168.695 167.211 168.06C167.831 167.425 168.719 167.11 169.873 167.11C171.027 167.11 171.915 167.427 172.535 168.06C173.155 168.693 173.465 169.61 173.465 170.807V171.427C173.465 172.852 172.98 173.836 172.011 174.376V174.42C172.553 174.706 172.944 175.101 173.186 175.607C173.429 176.113 173.55 176.736 173.55 177.477V178.802H173.547ZM181.776 180.149V182.287H174.98V180.663C174.98 179.594 175.15 178.679 175.493 177.915C175.835 177.153 176.448 176.309 177.332 175.382C178.2 174.456 178.803 173.665 179.137 173.01C179.471 172.354 179.639 171.67 179.639 170.957C179.639 170.316 179.535 169.87 179.329 169.622C179.122 169.373 178.82 169.247 178.42 169.247C177.607 169.247 177.201 169.738 177.201 170.722V172.325H174.978V170.872C174.978 169.661 175.278 168.731 175.876 168.083C176.475 167.434 177.344 167.11 178.484 167.11C179.625 167.11 180.493 167.434 181.092 168.083C181.691 168.731 181.99 169.661 181.99 170.872C181.99 171.783 181.773 172.674 181.339 173.544C180.905 174.414 180.154 175.411 179.085 176.537C178.387 177.278 177.915 177.88 177.674 178.342C177.432 178.805 177.311 179.3 177.311 179.827V180.148H181.778L181.776 180.149Z" fill="#4FAEE3"/>
<path d="M45.7356 63.9162C45.7356 62.4041 45.7865 60.9055 45.8868 59.4219H39.8835C39.7922 60.9115 39.7473 62.4101 39.7473 63.9162V81.8257C39.7473 98.6887 41.2429 114.567 44.2101 129.326C44.9497 124.262 48.5067 119.085 48.5067 119.085C46.7387 107.809 45.7371 95.4206 45.7371 81.8257V63.9162H45.7356Z" fill="#152339"/>
<path d="M207.56 24.8215H215.134C213.722 22.7675 212.194 20.8034 210.553 18.938C205.384 13.059 199.357 8.44051 192.641 5.20832C185.661 1.85188 178.246 0.149704 170.602 0.149704H96.1017C88.4576 0.149704 81.0426 1.85188 74.0647 5.20832C67.3474 8.43901 61.3216 13.059 56.1522 18.938C54.5474 20.7644 52.8736 22.8154 51.4858 24.8215H59.1164C68.3205 13.4872 81.5441 6.31167 96.1032 6.31167H170.604C185.194 6.31167 198.355 13.4452 207.562 24.8215H207.56Z" fill="#152339"/>
<path d="M222.564 39.1934C222.135 38.0362 221.675 36.8969 221.188 35.7771L214.528 35.7562C218.627 44.0874 220.967 53.6956 220.967 63.9162V81.8257C220.967 148.341 196.964 185.973 176.827 205.828C165.431 217.067 154.03 223.945 146.471 227.735C143.478 229.235 140.836 230.382 138.683 231.238C138.613 233.252 138.328 235.391 137.807 237.575C137.758 237.781 137.707 237.984 137.655 238.186C140.246 237.276 144.109 235.758 148.812 233.415C156.756 229.458 168.738 222.275 180.721 210.522C194.171 197.328 204.882 181.184 212.559 162.536C222.111 139.331 226.954 112.176 226.954 81.8257V63.9162C226.954 55.3454 225.476 47.0276 222.563 39.1934H222.564Z" fill="#152339"/>
<path d="M125.989 155.136L125.323 152.272C125.673 152.339 126.028 152.398 126.383 152.471C130.913 153.387 135.34 154.889 139.473 156.985C135.36 154.846 130.973 153.239 126.455 152.149C126.045 152.048 125.636 151.959 125.227 151.871L125.214 151.803L125.079 151.838C124.831 151.783 124.581 151.733 124.332 151.682C122.953 151.399 121.559 151.163 120.164 150.977L118.591 150.782C116.609 150.559 114.616 150.411 112.622 150.356C107.956 150.233 103.273 150.558 98.6407 151.233C96.3247 151.574 94.0207 152.022 91.7347 152.542C90.5865 152.804 89.4472 153.094 88.3124 153.411C87.5444 153.627 86.7899 153.846 86.0264 154.094C86.0308 153.322 85.9545 152.554 85.8317 151.808C85.5114 149.901 84.9125 148.086 84.1445 146.353C90.5236 143.345 97.4476 141.463 104.493 140.661C108.147 140.252 111.837 140.146 115.504 140.378C117.576 140.508 125.245 141.872 126.334 142.183C129.835 143.192 133.235 144.643 136.126 146.761C136.848 147.297 137.527 147.862 138.164 148.49C138.658 148.95 139.087 149.735 139.438 150.52C140.129 152.124 140.577 153.899 140.721 155.655C140.788 156.528 140.771 157.406 140.611 158.22C140.456 159.025 140.138 159.763 139.628 160.211C139.493 160.329 139.345 160.427 139.189 160.506C139.185 160.455 139.182 160.404 139.176 160.355C139.159 160.118 139.146 159.87 139.104 159.582C139.099 159.552 139.092 159.519 139.087 159.485V159.476C139.062 159.362 139.036 159.239 138.987 159.091C138.915 158.915 138.827 158.648 138.463 158.412C138.429 158.391 138.4 158.374 138.37 158.361L138.34 158.349L138.259 158.314L138.18 158.284L138.011 158.226L137.677 158.103L137.006 157.867C133.428 156.602 129.745 155.635 126.037 154.922L125.991 155.133L125.989 155.136Z" fill="#152339"/>
<path d="M138.988 199.553C138.891 198.696 138.685 197.875 138.418 197.081C137.924 195.668 137.262 194.313 136.355 193.12C137.056 191.96 137.824 190.825 138.536 189.639C138.903 189.031 139.258 188.412 139.587 187.771C139.646 188.158 139.727 188.543 139.819 188.918C139.968 189.542 140.153 190.154 140.334 190.753C140.815 192.331 141.276 193.837 141.132 195.512C140.795 195.078 140.42 194.575 140.322 194.356L139.529 192.537L139.364 194.512C139.271 195.638 139.541 196.916 139.798 198.153C140.093 199.566 140.397 201.026 140.156 202.194C140.008 202.899 139.659 203.843 139.321 204.758C139.168 205.164 139.026 205.556 138.899 205.927C138.692 205.686 138.497 205.442 138.312 205.194C137.982 204.713 137.687 204.189 137.637 203.574C137.602 203.704 137.586 203.84 137.586 203.975L137.333 203.962C137.354 203.518 137.37 203.08 137.37 202.632C137.37 202.342 137.366 202.045 137.354 201.75C137.53 201.966 137.729 202.185 137.957 202.387L138.497 202.864L138.75 202.194C138.962 201.607 139.038 201.012 139.038 200.435C139.038 200.135 139.017 199.84 138.987 199.553H138.988Z" fill="#152339"/>
<path d="M134.913 134.033C135.475 136.632 135.487 139.319 135.095 141.96C134.458 141.167 133.8 140.408 133.12 139.674C134.559 126.57 121.97 119.871 121.838 119.804L121.374 120.69C121.497 120.753 132.93 126.837 132.199 138.701C131.368 137.849 130.515 137.026 129.651 136.216C127.212 133.984 124.66 131.904 121.998 129.981C120.854 129.141 119.687 128.335 118.501 127.555C118.526 127.433 118.552 127.311 118.573 127.193C118.636 126.793 118.678 126.392 118.696 125.995C118.735 125.197 118.688 124.406 118.57 123.629C118.33 122.076 117.806 120.591 117.097 119.229C116.384 117.862 115.486 116.618 114.486 115.486C113.954 114.887 113.393 114.318 112.806 113.778C113.924 114.154 115.038 114.571 116.122 115.026C117.856 115.752 119.547 116.574 121.176 117.498C124.429 119.35 127.462 121.615 129.909 124.392C132.359 127.156 134.162 130.467 134.912 134.036L134.913 134.033Z" fill="#152339"/>
<path d="M133.976 169.268C134.352 169.324 134.74 169.373 135.137 169.387C135.039 169.551 134.942 169.712 134.837 169.867C134.617 170.201 134.361 170.508 134.039 170.698C133.385 171.086 132.571 170.986 131.829 170.833C131.463 170.744 131.117 170.605 130.864 170.394C130.611 170.183 130.463 169.9 130.391 169.559C130.319 169.247 130.302 168.897 130.273 168.517C130.841 168.622 131.412 168.74 131.994 168.872C132.635 169.015 133.289 169.162 133.978 169.268H133.976Z" fill="#152339"/>
<path d="M131.255 141.364C131.271 141.385 131.285 141.402 131.301 141.423C129.904 140.807 128.479 140.279 127.036 139.824C126.614 139.694 126.019 139.262 126.019 139.262C124.235 137.081 122.253 135.141 120.163 133.369C118.074 131.6 115.881 130.011 113.619 128.546C111.357 127.082 109.034 125.753 106.662 124.534C104.286 123.319 101.87 122.197 99.3969 121.248C101.701 122.548 103.911 124.003 106.05 125.53C108.189 127.066 110.252 128.69 112.21 130.412C114.167 132.133 116.02 133.955 117.712 135.879C118.353 136.61 118.97 137.355 119.561 138.119C118.282 137.921 116.996 137.764 115.709 137.65C111.878 137.316 108.022 137.337 104.192 137.671C96.762 138.321 89.4173 140.198 82.5787 143.291C82.0053 142.317 81.3885 141.372 80.6879 140.472C79.8226 139.375 78.8914 138.303 77.6593 137.444C77.5036 137.339 77.3434 137.232 77.1743 137.135C77.0096 137.042 76.812 136.941 76.6473 136.869C76.3224 136.729 75.9886 136.602 75.6517 136.484C75.3149 136.366 74.9691 136.261 74.6143 136.168L75.1592 135.481C75.6532 134.852 76.1637 134.232 76.6697 133.613C77.6908 132.376 78.7282 131.153 79.7956 129.955C81.9424 127.572 84.1911 125.251 86.7361 123.298C88.0011 122.314 89.3515 121.441 90.7782 120.724C91.4953 120.378 92.2259 120.058 92.9804 119.821C93.7349 119.582 94.5074 119.383 95.2754 119.324C96.8369 119.19 98.4312 119.405 99.9837 119.759C101.541 120.116 103.068 120.627 104.562 121.218C110.528 123.664 116.008 127.222 121.045 131.229C123.542 133.262 125.947 135.415 128.141 137.747C129.241 138.908 130.292 140.114 131.258 141.363L131.255 141.364Z" fill="#152339"/>
<path d="M130.635 165.889C130.862 165.813 131.099 165.708 131.293 165.627C131.395 165.581 131.475 165.547 131.563 165.514L131.825 165.409C132.171 165.274 132.512 165.156 132.825 165.075C133.133 164.991 133.416 164.948 133.651 164.945C133.888 164.954 134.069 164.966 134.318 165.012C134.562 165.059 134.866 165.151 135.232 165.279C135.604 165.404 136.021 165.557 136.515 165.641L137.199 164.91L137.617 164.876C137.705 166.024 137.752 167.159 137.638 168.226C137.515 169.521 136.836 170.846 136.559 172.471C136.542 172.572 136.524 172.673 136.517 172.775L136.496 172.944L136.482 173.083C136.466 173.31 136.466 173.526 136.478 173.745C136.503 174.188 136.601 174.631 136.744 175.032C137.036 175.847 137.452 176.483 137.777 177.107C138.427 178.356 138.929 179.71 139.232 181.082C139.523 182.458 139.611 183.878 139.316 185.212C139.244 185.546 139.147 185.871 139.029 186.187C138.906 186.503 138.755 186.841 138.602 187.157C138.289 187.807 137.948 188.449 137.586 189.081C136.966 190.157 136.312 191.227 135.662 192.316C135.485 192.139 135.3 191.966 135.113 191.81C134.797 191.539 134.467 191.286 134.133 191.046C133.467 190.561 132.771 190.123 132.07 189.691C131.826 189.543 131.576 189.392 131.332 189.244C132.344 188.817 132.982 188.012 133.096 186.949C133.205 185.941 132.804 184.86 132.121 184.118C132.716 184.426 133.261 184.916 133.716 185.477C134.319 186.215 134.813 187.072 135.184 187.983C135.083 187.503 134.94 187.025 134.767 186.561C134.59 186.093 134.383 185.633 134.13 185.19C133.877 184.751 133.581 184.324 133.219 183.937C132.859 183.553 132.43 183.206 131.924 182.958C131.924 182.958 131.877 182.971 131.886 182.881C131.921 182.535 131.903 182.194 131.861 181.86C131.659 180.526 131.085 179.345 130.469 178.224C130.042 177.456 129.566 176.727 129.06 176.017L129.178 176.022L130.499 174.481L130.009 172.367C130.506 172.822 131.051 173.212 131.603 173.562C132.785 174.296 134.026 174.899 135.3 175.405C134.098 174.746 132.945 174.004 131.895 173.156C131.377 172.73 130.883 172.275 130.466 171.773C130.057 171.279 130.085 171.313 130.039 170.798C130.039 170.798 132.009 172.03 133.253 171.924C134.713 171.798 135.383 169.562 135.463 169.381C135.767 169.385 135.822 169.385 136.134 169.339C135.556 168.858 134.985 168.469 134.37 168.12C133.755 167.774 133.105 167.491 132.416 167.28C131.729 167.065 131.003 166.918 130.265 166.884C129.894 166.863 129.522 166.875 129.151 166.921C129.021 166.934 128.885 166.963 128.751 166.988L128.557 166.144C128.751 166.181 128.933 166.19 129.097 166.19C129.692 166.178 130.169 166.042 130.633 165.886L130.635 165.889Z" fill="#152339"/>
<path d="M128.437 164.699L128.235 164.755L126.193 155.997C129.704 156.844 133.138 157.955 136.496 159.25L137.197 159.524C137.231 161.064 137.42 162.529 137.547 163.975C137.572 164.274 137.598 164.578 137.619 164.877L137.201 164.912C137.078 164.422 136.885 164 136.593 163.596C136.306 163.195 135.914 162.807 135.378 162.52C134.851 162.232 134.187 162.085 133.584 162.114C132.973 162.13 132.424 162.279 131.939 162.464C131.454 162.654 131.023 162.891 130.626 163.147C130.524 163.21 130.431 163.277 130.335 163.346C130.238 163.418 130.136 163.49 130.061 163.553C129.892 163.687 129.767 163.794 129.614 163.91C129.326 164.133 129.031 164.344 128.795 164.484C128.681 164.556 128.437 164.699 128.437 164.699Z" fill="#152339"/>
<path d="M119.285 154.308L125.281 172.846L120.303 151.57C121.624 151.7 122.94 151.869 124.248 152.085L129.412 174.213L128.728 175.011L123.896 174.914L121.339 164.202C121.39 164.13 121.238 163.776 121.238 163.776L119.124 154.92L119.259 154.405L119.284 154.308H119.285Z" fill="#152339"/>
<path d="M117.758 195.225C118.552 194.951 119.538 194.473 120.327 194.111C121.884 193.385 123.353 192.579 124.947 192.162L125.142 192.213C125.307 192.259 125.471 192.322 125.639 192.368C126.28 192.549 129.567 195.111 130.567 196.394C130.043 196.294 128.555 195.862 128.036 195.791C126.495 195.596 124.977 195.533 123.474 195.419C121.871 195.322 120.323 195.529 118.821 195.892C118.362 196.006 117.901 196.141 117.45 196.294L117.172 195.449C117.369 195.368 117.568 195.294 117.758 195.226V195.225Z" fill="#152339"/>
<path d="M112.743 204.843C111.731 205.628 110.84 206.57 110.077 207.598C110.047 207.354 110.022 207.101 110.001 206.851C109.95 206.189 109.933 205.514 109.938 204.843C109.942 204.173 109.968 203.498 110.019 202.827C110.074 202.152 110.149 201.485 110.288 200.827C110.288 200.827 110.84 199.667 111.296 199.165C111.869 198.529 112.507 197.954 113.189 197.473C113.886 196.979 114.624 196.566 115.392 196.204C115.775 196.027 116.169 195.858 116.568 195.693C116.767 195.612 116.969 195.529 117.172 195.449L117.45 196.294C116.438 196.63 115.463 197.074 114.594 197.672C115.986 197.065 117.467 196.761 118.944 196.584C120.42 196.424 121.926 196.386 123.335 196.614C124.841 196.862 126.344 197.062 127.795 197.327C128.525 197.461 129.234 197.642 129.934 197.816C130.28 197.897 130.621 197.969 130.972 198.036C131.006 198.104 131.043 198.171 131.076 198.243C131.684 199.547 131.996 201.011 132.067 202.499C132.127 203.739 132.03 204.996 131.828 206.249C131.536 205.84 131.255 205.409 130.993 204.98C130.782 204.643 130.587 204.292 130.415 203.942C130.385 203.879 130.356 203.816 130.326 203.752C130.684 203.803 131.039 203.857 131.403 203.908C130.876 203.52 130.314 203.182 129.732 202.887C129.154 202.592 128.555 202.334 127.948 202.102C126.72 201.655 125.458 201.301 124.058 201.234L123.775 201.229H123.536C123.32 201.243 123.169 201.259 122.991 201.28C122.654 201.319 122.328 201.382 122.007 201.445C121.366 201.575 120.745 201.74 120.134 201.918C119.522 202.095 118.923 202.294 118.32 202.491C118.299 202.496 118.273 202.505 118.248 202.512L118.227 202.48C118.058 202.542 117.89 202.61 117.726 202.686C117.324 202.818 116.92 202.939 116.486 203.02C116.486 203.02 116.488 203.021 116.493 203.024C116.456 203.033 116.417 203.041 116.38 203.05C115.878 203.164 115.389 203.328 114.915 203.535C114.143 203.881 113.414 204.333 112.743 204.846V204.843Z" fill="#152339"/>
<path d="M114.168 245.779C114.198 245.835 114.224 245.893 114.248 245.949C114.037 246.076 113.818 246.202 113.582 246.32C112.962 246.624 112.294 246.889 111.616 247.139C110.245 247.624 108.819 248.033 107.376 248.396C105.928 248.751 104.469 249.081 103.002 249.38L100.795 249.814L99.6902 250.025C99.3354 250.093 98.9776 250.143 98.6138 250.19C97.1496 250.375 95.6571 250.438 94.163 250.489C92.6689 250.531 91.1673 250.552 89.6732 250.515C88.1762 250.48 86.6776 250.426 85.1925 250.304C84.5128 250.257 83.8586 249.983 83.2478 249.603C82.9394 249.413 82.6445 249.206 82.357 248.979C82.0696 248.756 81.7911 248.515 81.5217 248.266C79.3449 246.27 77.6487 243.739 75.4974 241.588C74.439 240.499 73.3282 239.469 72.1814 238.483C71.0376 237.492 69.8654 236.538 68.6708 235.613C67.4776 234.689 66.2665 233.791 65.0673 232.884C63.8696 231.976 62.663 231.083 61.4893 230.154C59.1359 228.303 56.8693 226.361 54.8318 224.219L54.5878 224.481C55.1237 222.519 55.8363 220.608 56.7226 218.789C57.7271 216.712 58.9622 214.756 60.4309 213.017C61.895 211.279 63.6032 209.764 65.5149 208.622C67.0375 207.715 68.6663 207.065 70.3744 206.689C70.5691 211.317 71.5721 215.874 73.3102 220.106C74.3432 222.582 75.5977 224.97 77.1248 227.172C78.6308 229.388 80.3824 231.437 82.348 233.256C84.3182 235.092 86.5159 236.628 88.769 238.049C89.8873 238.761 91.052 239.432 92.1778 240.095C93.3291 240.766 94.4983 241.42 95.7005 242.019C96.8996 242.618 98.1392 243.154 99.4087 243.627C100.683 244.1 102.003 244.483 103.391 244.711C104.774 244.934 106.247 244.993 107.74 244.622C109.111 244.297 110.457 243.475 111.406 242.344C111.764 242.689 112.111 243.044 112.444 243.411C112.896 243.905 113.317 244.423 113.68 244.964C113.861 245.238 114.031 245.504 114.165 245.782L114.168 245.779ZM83.8676 238.641C81.6564 236.887 79.5051 235.149 77.505 233.288C75.5004 231.427 73.6485 229.457 72.0332 227.335C71.632 226.804 71.2442 226.264 70.873 225.716C70.5017 225.168 70.1514 224.606 69.8145 224.04C69.1393 222.906 68.5734 221.72 68.0165 220.534C67.4641 219.344 66.9536 218.13 66.4805 216.877C66.0045 215.619 65.5688 214.336 65.1646 212.923C64.8517 213.598 64.687 214.332 64.5822 215.062C64.4849 215.793 64.464 216.536 64.4939 217.274C64.5658 218.75 64.8742 220.209 65.3592 221.602C65.8398 222.998 66.5314 224.305 67.292 225.555C68.06 226.804 68.9208 227.99 69.8699 229.087C71.7607 231.294 73.9584 233.192 76.3208 234.786C78.6832 236.378 81.2148 237.68 83.8676 238.643V238.641Z" fill="#152339"/>
<path d="M109.49 240.619C109.228 241.053 108.908 241.438 108.524 241.758C108.123 242.088 107.652 242.345 107.128 242.531C106.794 242.654 106.441 242.737 106.078 242.797L105.943 241.704C105.834 240.704 105.665 239.742 105.442 238.769C105.328 238.284 105.202 237.803 105.033 237.316C105.008 237.237 104.975 237.152 104.945 237.072C105.375 237.397 105.806 237.722 106.231 238.047C107.328 238.894 108.438 239.739 109.493 240.621L109.49 240.619Z" fill="#152339"/>
<path d="M110.182 168.054C109.337 168.008 108.388 167.78 107.545 167.476C107.123 167.316 106.71 167.135 106.369 166.908C106.2 166.798 106.053 166.671 105.947 166.548C105.891 166.485 105.845 166.425 105.816 166.363C105.803 166.346 105.8 166.328 105.791 166.312C106.39 166.156 106.981 166.033 107.545 165.987C108.304 165.936 109.072 165.991 109.878 166.096L111.11 166.273L111.426 166.315L111.582 166.336C111.582 166.336 111.619 166.34 111.623 166.34C111.623 166.34 111.628 166.34 111.649 166.345C111.779 166.379 111.978 166.446 112.164 166.514C112.856 166.762 113.589 167.045 114.345 167.268C114.252 167.345 114.159 167.421 114.058 167.484C113.728 167.69 113.357 167.821 112.939 167.897C112.522 167.978 112.071 168.006 111.593 168.02L110.864 168.045L110.493 168.054L110.328 168.059L110.18 168.054H110.182Z" fill="#152339"/>
<path d="M121.049 172.189C121.024 171.788 120.991 171.388 120.949 170.978C120.856 170.168 120.747 169.328 120.438 168.506C120.13 169.325 119.953 170.135 119.839 170.966C119.788 171.379 119.751 171.801 119.751 172.224C119.744 172.435 119.751 172.65 119.764 172.864L119.773 173.034L119.785 173.185C119.799 173.303 119.815 173.421 119.832 173.531C119.976 174.421 120.305 175.231 120.663 175.974C121.025 176.721 121.417 177.408 121.777 178.189C121.92 177.338 121.768 176.46 121.603 175.653C121.434 174.844 121.232 174.08 121.143 173.342C121.097 173.005 121.083 172.578 121.05 172.191L121.049 172.189ZM117.155 168.391C116.675 169.47 116.18 170.399 115.568 171.239C114.965 172.074 114.276 172.828 113.51 173.543C112.742 174.251 111.899 174.897 111.017 175.529C110.131 176.162 109.212 176.769 108.249 177.411C109.414 177.369 110.544 177.061 111.62 176.618C112.692 176.17 113.713 175.555 114.616 174.773C115.514 173.998 116.296 173.026 116.781 171.909C117.261 170.795 117.444 169.542 117.157 168.391H117.155ZM115.034 166.101L112.748 165.045C112.541 164.957 112.342 164.873 112.073 164.788C112.043 164.779 111.992 164.767 111.942 164.753L111.824 164.732L111.673 164.702L111.36 164.651C110.947 164.584 110.52 164.508 110.086 164.461C109.216 164.356 108.288 164.31 107.369 164.449C106.427 164.589 105.589 164.913 104.791 165.264C103.997 165.623 103.252 166.032 102.512 166.433C101.774 166.839 101.053 167.243 100.234 167.5C101.103 167.593 101.976 167.373 102.803 167.166C103.473 166.99 104.123 166.786 104.768 166.598C104.773 166.632 104.777 166.669 104.785 166.702C104.827 166.876 104.899 167.036 104.982 167.183C105.147 167.473 105.363 167.698 105.577 167.9C106.02 168.288 106.497 168.566 106.985 168.794C107.475 169.026 107.977 169.2 108.492 169.342C109.011 169.481 109.529 169.578 110.111 169.616C110.183 169.616 110.26 169.62 110.334 169.62H110.453L110.545 169.616L110.912 169.599L111.671 169.562C112.191 169.524 112.727 169.469 113.279 169.313C113.824 169.165 114.388 168.9 114.85 168.499C115.153 168.229 115.39 167.912 115.576 167.58C116.107 167.689 116.655 167.756 117.216 167.753C117.672 167.737 118.145 167.677 118.579 167.479C118.794 167.378 118.992 167.243 119.152 167.074C119.308 166.904 119.426 166.707 119.489 166.5C119.194 166.821 118.823 166.994 118.443 167.027C118.064 167.069 117.675 167.023 117.296 166.925C116.528 166.74 115.778 166.427 115.031 166.099L115.034 166.101ZM111.945 187.781C112.195 187.663 112.3 187.359 112.182 187.111L112.177 187.102C111.802 186.317 111.59 185.503 111.595 184.676C111.599 183.853 111.797 183.022 112.189 182.276C112.384 181.905 112.616 181.546 112.899 181.235C113.173 180.91 113.498 180.631 113.857 180.399C114.574 179.935 115.465 179.707 116.43 179.859C115.621 179.314 114.46 179.239 113.481 179.636C113.477 179.636 113.472 179.64 113.468 179.64C111.692 179.928 109.975 180.758 108.62 181.995C107.755 182.775 107.03 183.708 106.49 184.729C105.949 185.745 105.557 186.852 105.464 187.985C105.958 186.968 106.527 186.027 107.156 185.142C107.792 184.265 108.497 183.455 109.291 182.738C109.971 182.118 110.713 181.582 111.507 181.1C111.363 181.276 111.228 181.462 111.11 181.657C110.548 182.55 110.237 183.622 110.27 184.699C110.295 185.771 110.679 186.838 111.333 187.648C111.477 187.825 111.73 187.889 111.944 187.783L111.945 187.781ZM108.249 203.405C108.819 202.539 109.375 201.662 109.975 200.822C109.789 201.46 109.659 202.113 109.548 202.767C109.435 203.442 109.351 204.125 109.286 204.809C109.224 205.496 109.182 206.185 109.173 206.876C109.168 207.573 109.185 208.269 109.307 208.999L109.518 210.227L110.231 209.143C110.978 207.725 111.944 206.409 113.143 205.328C113.742 204.788 114.4 204.312 115.109 203.927C115.54 203.7 115.99 203.51 116.454 203.361C115.914 203.712 115.399 204.12 114.936 204.58C113.978 205.513 113.224 206.673 112.739 207.917C112.245 209.158 112.022 210.465 111.954 211.734C111.92 212.372 111.929 212.996 111.938 213.616C111.951 214.241 111.972 214.848 111.921 215.482C112.272 214.941 112.474 214.321 112.668 213.723C112.854 213.119 113.019 212.525 113.188 211.938C113.522 210.773 113.893 209.659 114.394 208.638C114.896 207.617 115.525 206.685 116.26 205.821C116.998 204.948 117.847 204.164 118.754 203.331C119.306 203.327 119.854 203.301 120.395 203.252C121.031 203.192 121.66 203.113 122.272 203.032L123.175 202.927C123.314 202.914 123.479 202.902 123.584 202.897L123.816 202.888L124.013 202.893C125.157 202.923 126.392 203.129 127.62 203.324C128.16 203.412 128.696 203.498 129.239 203.586C129.265 203.653 129.295 203.721 129.323 203.78C129.416 203.983 129.518 204.173 129.618 204.354C129.82 204.725 130.031 205.075 130.243 205.435C130.674 206.14 131.087 206.832 131.558 207.532C132.588 208.815 132.951 210.396 133.073 211.595C133.124 212.245 133.015 212.971 132.829 213.693C132.648 214.419 132.358 215.14 132.057 215.865C131.428 217.308 130.66 218.729 129.847 220.16C131.133 219.123 132.244 217.874 133.175 216.477C133.651 215.777 134.048 215.022 134.386 214.212C134.707 213.393 134.943 212.507 134.943 211.529C134.934 210.513 134.512 209.619 133.994 208.9C133.732 208.534 133.449 208.204 133.171 207.879L132.744 207.399C132.693 207.341 132.647 207.285 132.596 207.23L132.672 207.246C133.081 205.715 133.364 204.116 133.398 202.483C133.433 200.858 133.213 199.178 132.6 197.601C132.563 197.499 132.521 197.403 132.478 197.306L132.494 197.268C132.478 197.261 132.464 197.247 132.448 197.234C131.835 195.795 130.895 194.479 129.71 193.433C129.073 192.859 128.368 192.361 127.621 191.943C127.25 191.732 126.867 191.542 126.47 191.374C126.271 191.286 126.069 191.205 125.862 191.133L125.546 191.024C125.432 190.989 125.344 190.961 125.188 190.922L124.838 190.855L124.59 190.952C122.97 191.576 121.315 192.189 119.675 192.841C118.851 193.171 118.034 193.5 117.207 193.892C116.776 194.099 116.405 194.31 116.01 194.521C115.621 194.732 115.228 194.955 114.845 195.192C114.073 195.66 113.33 196.196 112.656 196.791C111.969 197.398 111.373 198.077 110.846 198.803C109.795 200.255 109.05 201.849 108.252 203.406L108.249 203.405ZM104.415 227.907C103.508 227.178 102.714 226.313 101.972 225.422C101.111 224.359 100.335 223.229 99.6213 222.06C98.9087 220.895 98.2799 219.679 97.7111 218.444C97.1452 217.203 96.6556 215.934 96.2349 214.648L96.0194 213.994L95.4744 214.441C95.0478 214.791 94.7199 215.128 94.3651 215.492C94.0148 215.85 93.6809 216.226 93.365 216.618C93.3141 216.681 93.2647 216.748 93.2138 216.816C93.1465 216.465 93.0791 216.11 93.0192 215.76C92.7962 214.544 92.6524 213.314 92.4997 212.077C92.3605 210.841 92.2333 209.592 92.115 208.339C91.9892 207.086 91.8829 205.828 91.7153 204.572C91.5461 205.83 91.4233 207.088 91.3185 208.348C91.2257 209.609 91.1584 210.875 91.1539 212.149C91.1284 213.423 91.1883 214.697 91.2841 215.98C91.3979 217.263 91.588 218.549 91.8919 219.832L92.6599 223.102L93.8082 219.899L94.2468 218.658C94.395 218.245 94.5373 217.828 94.7019 217.414C94.8666 217.001 95.0567 216.592 95.2888 216.208C95.3936 216.034 95.5119 215.857 95.6391 215.693C96.6721 217.992 97.9177 220.185 99.3354 222.248C100.115 223.383 100.964 224.476 101.883 225.497C102.656 226.37 103.496 227.193 104.415 227.906V227.907ZM80.8181 189.837C80.9782 189.314 81.1265 188.79 81.2732 188.263C81.5396 187.284 81.7792 186.293 81.9813 185.289C82.1789 184.281 82.3481 183.26 82.4364 182.209C82.4918 181.479 82.5202 180.72 82.4574 179.94C82.4708 179.931 82.4873 179.919 82.4993 179.91C83.0098 179.547 83.5083 179.155 83.9844 178.733C83.926 179.508 83.8826 180.29 83.8826 181.074C83.8826 181.947 83.9335 182.833 84.1026 183.694C84.2763 184.551 84.5712 185.432 85.2045 186.04C84.6805 185.344 84.5413 184.479 84.5039 183.648C84.4739 182.808 84.5593 181.968 84.6895 181.133C84.8197 180.302 85.0024 179.475 85.2 178.648L85.5877 177.104C85.9425 176.703 86.2749 176.282 86.5923 175.839C86.7659 175.598 86.9261 175.349 87.0863 175.096L87.1836 177.104C87.242 178.151 87.3154 179.201 87.4202 180.248C87.4785 180.772 87.5414 181.294 87.6357 181.809C87.7375 182.324 87.8259 182.86 88.0998 183.311C88.0699 183.253 88.0489 183.193 88.028 183.13L89.0699 183.125C89.1119 183.344 89.1628 183.564 89.2226 183.78L89.5176 184.859L90.1209 183.931C90.5595 183.281 90.9682 182.618 91.365 181.947C91.3275 182.449 91.2976 182.964 91.3605 183.525C91.4024 183.875 91.5042 184.256 91.6853 184.588C91.862 184.922 92.094 185.203 92.3306 185.444C92.7947 185.917 93.2797 186.296 93.7603 186.676C92.8111 187.57 91.7093 188.373 90.832 189.558C90.3559 190.259 89.9547 191.022 89.6882 191.823C89.4232 192.624 89.2586 193.455 89.1957 194.279C89.0565 195.933 89.2032 197.544 89.3649 199.156C89.6089 197.553 89.6778 195.928 89.9562 194.38C90.2302 192.837 90.7571 191.373 91.6479 190.132C92.0701 189.542 92.6435 188.992 93.2213 188.444C93.7917 187.876 94.4025 187.322 94.913 186.643C95.1406 186.356 95.3217 186.049 95.4789 185.736C95.6271 186.349 95.7409 187.676 94.8711 189.799C93.7917 192.44 94.7184 195.322 96.2544 196.234C96.2334 196.343 96.208 196.454 96.1915 196.563C96.0403 197.445 95.943 198.343 96.0014 199.234C96.0688 198.348 96.2888 197.487 96.5583 196.656C96.6975 196.234 96.8532 195.821 97.0224 195.416C97.1916 195.015 97.3727 194.627 97.5658 194.244C97.9581 193.467 98.4057 192.726 98.9162 192.054C98.9881 191.957 99.0644 191.859 99.1393 191.766C99.1048 192.5 99.1348 193.24 99.2411 193.964C99.3504 194.695 99.5315 195.412 99.789 196.099C99.9192 196.445 100.067 196.783 100.237 197.111C100.41 197.445 100.582 197.747 100.831 198.086L100.97 197.984C100.928 198.056 100.882 198.123 100.844 198.195C100.638 198.583 100.464 199.014 100.334 199.427C100.202 199.819 100.081 200.253 99.9791 200.659C99.557 202.313 99.3459 203.98 98.9881 205.553L98.4865 207.773L100.292 206.267C101.042 205.546 101.907 204.921 102.836 204.394C103.363 204.095 103.912 203.825 104.472 203.584C104.059 204.758 103.662 205.944 103.307 207.137C103.059 207.972 102.831 208.817 102.653 209.668C102.565 210.095 102.484 210.525 102.437 210.96C102.395 211.39 102.365 211.833 102.458 212.26C102.421 211.829 102.505 211.404 102.598 210.986C102.699 210.568 102.825 210.16 102.969 209.754C103.247 208.944 103.577 208.15 103.922 207.366C104.614 205.793 105.382 204.257 106.176 202.725L106.821 201.481L105.382 201.836C104.259 202.161 103.184 202.595 102.147 203.131C101.671 203.381 101.202 203.655 100.75 203.954C100.855 202.921 100.952 201.9 101.126 200.908C101.198 200.502 101.27 200.128 101.37 199.722C101.458 199.339 101.572 198.984 101.725 198.625C102.033 197.912 102.463 197.241 102.973 196.624C103.526 195.954 104.159 195.346 104.839 194.782L105.27 194.436C105.717 194.085 106.182 193.752 106.658 193.436C108.033 192.533 109.496 191.748 111.028 191.106C109.45 191.626 107.918 192.296 106.454 193.102C106.027 193.338 105.607 193.591 105.192 193.853L105.175 193.728L104.265 193.841C105.316 193.073 106.387 192.326 107.479 191.623C109.092 190.585 110.763 189.627 112.492 188.864C113.348 188.455 114.221 188.105 115.128 187.919C116.038 187.738 117.01 187.67 117.975 187.594C118.941 187.518 119.92 187.441 120.883 187.253C121.845 187.063 122.795 186.742 123.607 186.211C122.747 186.666 121.793 186.886 120.844 186.983C119.886 187.088 118.925 187.085 117.958 187.081C117.371 187.076 116.788 187.073 116.203 187.094C117.625 186.073 119.595 185.618 120.995 186.525L121.54 185.681C119.389 184.289 116.456 185.305 114.794 186.971C114.794 186.971 113.022 187.596 112.098 187.946C110.267 188.718 108.58 189.726 106.93 190.781C105.289 191.849 103.702 192.975 102.159 194.186L100.737 195.3C100.614 194.814 100.535 194.32 100.493 193.823C100.383 192.524 100.544 191.208 100.915 189.959L101.291 187.792L99.7261 189.163C98.9536 189.838 98.4177 190.632 97.9626 191.442C97.5105 192.256 97.1571 193.1 96.8652 193.957C96.726 194.367 96.6032 194.776 96.4939 195.189C95.5148 194.323 95.0133 192.109 95.7978 190.19C97.2485 186.646 96.2499 184.916 96.2065 184.844C96.2065 184.844 95.9535 184.642 96.0418 184.417C96.3158 183.649 96.5478 182.874 96.7799 182.097C96.3367 182.781 95.9819 183.51 95.5852 184.206C95.3906 184.561 95.1975 184.907 94.9864 185.236C94.7753 185.573 94.5642 185.865 94.3022 186.143C94.2184 186.236 93.4459 185.164 93.0447 184.76C92.639 184.347 92.4084 183.946 92.353 183.414C92.2902 182.878 92.3396 182.263 92.3949 181.651L92.5761 179.79L92.7947 177.511L91.6434 179.49C91.091 180.44 90.5505 181.389 89.9772 182.308C89.9188 181.655 89.9263 180.992 89.9847 180.329C90.082 179.24 90.3095 178.157 90.588 177.08C90.8709 176.004 91.2078 174.933 91.5581 173.857L92.0731 172.233C92.1569 171.954 92.2422 171.692 92.3216 171.393C92.4024 171.093 92.4608 170.794 92.5072 170.499C92.6929 169.318 92.7303 168.162 92.7438 167.009C92.7527 165.861 92.7228 164.719 92.6854 163.584L92.5761 160.196C92.5551 159.213 92.5387 158.221 92.6225 157.307C96.5044 156.379 100.449 155.742 104.415 155.346C108.947 154.89 113.511 154.801 118.089 154.907L118.152 155.164L120.202 163.767C119.649 164.142 119.079 164.333 118.54 164.268C117.818 164.213 117.067 163.788 116.329 163.268C115.957 163.002 115.591 162.707 115.224 162.395L114.08 161.442C113.688 161.121 113.266 160.787 112.827 160.476C112.405 160.172 111.966 159.882 111.514 159.603C110.611 159.042 109.646 158.54 108.599 158.148C107.553 157.76 106.411 157.477 105.181 157.468C104.873 157.464 104.566 157.477 104.253 157.515C103.919 157.54 103.532 157.642 103.246 157.738C102.659 157.953 102.178 158.202 101.723 158.497C101.268 158.792 100.85 159.117 100.461 159.483C100.073 159.855 99.7141 160.256 99.4102 160.741L99.9327 161.593C101.021 161.512 101.979 161.235 102.886 160.978C103.339 160.847 103.777 160.699 104.144 160.611C104.334 160.555 104.434 160.539 104.596 160.522C104.782 160.502 104.972 160.49 105.165 160.49C106.729 160.494 108.469 161.16 110.119 162.033C110.532 162.249 110.945 162.488 111.358 162.729C111.76 162.961 112.143 163.214 112.556 163.488C113.375 164.036 114.231 164.627 115.201 165.129C115.686 165.377 116.201 165.623 116.775 165.779C117.341 165.939 117.974 166.032 118.615 165.955C119.257 165.888 119.868 165.617 120.353 165.259C120.411 165.213 120.462 165.162 120.522 165.115L123.095 175.912L127.686 176.005C128.12 177.085 128.618 178.08 129.057 179.068C129.31 179.609 129.53 180.148 129.741 180.663C129.838 180.92 129.922 181.178 129.99 181.431C130.066 181.675 130.129 181.916 130.163 182.143C130.244 182.603 130.231 182.97 130.142 183.274C130.066 183.582 129.864 183.914 129.506 184.274C129.16 184.645 128.678 184.986 128.181 185.354C127.675 185.721 127.135 186.088 126.612 186.549C127.844 186.292 129.088 186.018 130.219 185.347C130.552 185.149 130.877 184.896 131.147 184.592C131.78 185.103 132.193 186.024 132.1 186.855C132.038 187.462 131.687 188.238 130.404 188.512C130.404 188.512 128.745 187.664 127.949 187.052C128.754 187.739 129.624 188.347 130.497 188.943C130.497 188.943 130.949 189.407 131.105 189.356C131.144 189.382 131.177 189.407 131.214 189.432C131.454 189.593 131.699 189.753 131.936 189.918C132.611 190.377 133.273 190.85 133.906 191.361C134.437 191.795 134.964 192.251 135.403 192.762C135.377 192.808 135.698 193.124 135.698 193.124C136.617 194.373 137.262 195.832 137.693 197.318C137.914 198.081 138.065 198.866 138.111 199.643C138.137 200.111 138.125 200.587 138.048 201.035C137.981 200.947 137.909 200.858 137.842 200.768C137.589 200.434 137.336 200.077 137.006 199.731L135.301 198.039L136.171 200.237C136.301 200.571 136.39 200.996 136.458 201.409C136.53 201.827 136.581 202.253 136.619 202.679C136.699 203.535 136.732 204.4 136.732 205.264C136.728 206.129 136.69 206.998 136.589 207.859C136.479 208.715 136.349 209.588 135.964 210.374C136.424 209.627 136.644 208.754 136.837 207.902C137.018 207.041 137.141 206.168 137.229 205.291C137.271 204.852 137.306 204.414 137.331 203.975L137.584 203.989C137.563 204.478 137.702 204.98 137.884 205.436C138.078 205.938 138.343 206.402 138.614 206.849C138.61 206.87 138.601 206.896 138.598 206.912L138.665 206.933C138.698 206.984 138.732 207.043 138.765 207.093C139.086 207.625 139.436 208.123 139.744 208.625C139.897 208.869 140.044 209.124 140.146 209.347C140.25 209.591 140.357 209.865 140.45 210.127C140.807 211.206 141.023 212.338 141.134 213.485C141.248 214.628 141.243 215.78 141.15 216.935C141.062 218.091 140.884 219.239 140.661 220.411C140.433 221.593 140.213 222.766 139.948 223.922C139.551 225.672 139.041 227.382 138.315 229.006C138.247 228.491 138.176 227.981 138.099 227.47C137.948 226.512 137.893 225.428 137.728 224.449C137.711 224.352 137.693 224.259 137.677 224.166C137.997 222.525 138.155 221.04 138.415 219.395C137.914 221.871 137.352 224.335 136.689 226.77C136.52 227.373 136.343 227.976 136.141 228.571C135.946 229.169 135.714 229.731 135.424 230.301C134.876 231.436 134.327 232.575 133.762 233.701C132.636 235.959 131.497 238.212 130.286 240.414C129.687 241.516 129.067 242.607 128.413 243.667C128.253 243.929 128.088 244.185 127.919 244.443C127.919 244.387 127.924 244.338 127.924 244.282C127.949 243.261 127.835 242.245 127.653 241.275L127.129 238.499L126.057 241.145C125.509 242.499 124.917 243.896 124.335 245.27L122.563 249.405L119.862 255.747C119.11 253.811 118.326 251.895 117.537 249.971C117.237 249.245 116.929 248.525 116.613 247.806C116.627 247.798 116.639 247.79 116.651 247.781L115.938 246.326C115.908 246.263 115.88 246.196 115.85 246.131C115.697 245.811 115.537 245.495 115.36 245.169C115.179 244.827 114.963 244.514 114.752 244.22C114.314 243.63 113.833 243.085 113.332 242.574C112.32 241.558 111.213 240.676 110.092 239.836C108.969 238.996 107.809 238.221 106.646 237.46L105.274 236.569V236.565L104.355 235.971C104.325 235.933 104.3 235.899 104.271 235.861L104.237 235.891L103.157 235.191C102.584 234.807 102.014 234.411 101.457 234C100.904 233.587 100.364 233.153 99.8953 232.643C100.308 233.2 100.807 233.698 101.321 234.17C101.831 234.643 102.371 235.086 102.915 235.52C103.223 235.77 103.539 236.005 103.852 236.251C103.852 236.251 104.029 237.441 104.105 237.655C104.265 238.089 104.396 238.546 104.511 239.01C104.65 239.567 104.773 240.135 104.873 240.71C104.325 240.339 103.755 240.035 103.211 239.724C102.359 239.243 101.527 238.712 100.726 238.141C99.1183 237.007 97.6167 235.728 96.217 234.336C94.7993 232.927 93.3531 231.556 92.0776 230.075C90.808 228.602 89.7152 226.996 89.1208 225.223L87.9651 222.058L87.6567 225.407C87.5848 226.213 87.3318 227.057 87.0414 227.901C86.9321 228.217 86.8138 228.535 86.6956 228.855C85.6626 226.813 84.8946 224.624 84.3032 222.404C83.5562 219.599 83.2358 216.688 82.8735 213.836C82.8062 213.166 82.7717 212.481 82.7208 211.79C82.6834 211.098 82.6789 210.39 82.7089 209.68C82.7643 208.255 82.9289 206.812 83.1056 205.364C83.2822 203.912 83.4769 202.453 83.5906 200.981C83.6999 199.512 83.7209 198.027 83.5323 196.572C83.5367 198.041 83.3167 199.482 83.0382 200.909C82.8616 201.798 82.655 202.685 82.4394 203.575C82.0307 202.774 81.7013 201.93 81.4858 201.06C81.1609 199.786 81.0726 198.461 81.1654 197.145C81.2537 195.821 81.5322 194.514 81.8989 193.217C82.0801 192.567 82.2867 191.922 82.4858 191.26C82.5876 190.931 82.6849 190.594 82.7687 190.244C82.8496 189.894 82.9334 189.534 82.92 189.088L82.878 187.802L82.0337 188.793C81.7432 189.139 81.3375 189.464 80.9288 189.768C80.8914 189.798 80.8525 189.823 80.8151 189.852L80.8181 189.837ZM135.406 219.646C136.756 217.166 137.756 214.474 138.081 211.699C137.452 214.42 136.187 216.917 134.626 219.166C133.844 220.292 132.981 221.359 132.061 222.364C131.138 223.364 130.154 224.317 129.117 225.157L127.623 226.376L129.606 226.743C130.075 226.78 130.564 226.785 131.049 226.738C131.534 226.692 132.008 226.594 132.454 226.464C132.939 226.325 133.395 226.151 133.841 225.963C133.538 226.756 133.15 227.523 132.695 228.253C132.02 229.342 131.205 230.358 130.323 231.312C129.433 232.265 128.476 233.156 127.462 233.987C126.45 234.818 125.391 235.602 124.277 236.298C125.441 235.679 126.551 234.969 127.63 234.206C128.707 233.442 129.74 232.611 130.71 231.704C131.68 230.797 132.591 229.81 133.385 228.717C134.174 227.624 134.845 226.422 135.276 225.102V225.097L135.663 224.072L134.538 224.43C133.732 224.687 132.922 224.915 132.136 225.028C131.976 225.049 131.82 225.061 131.663 225.075C132.169 224.476 132.659 223.864 133.118 223.23C133.963 222.087 134.731 220.889 135.404 219.645L135.406 219.646ZM127.922 212.504C128.133 211.618 128.193 210.689 128.087 209.791C127.977 208.897 127.715 208.023 127.284 207.243C127.314 208.132 127.352 208.986 127.301 209.821C127.259 210.657 127.141 211.471 126.946 212.272C126.751 213.07 126.491 213.862 126.191 214.655C125.897 215.453 125.558 216.25 125.28 217.098C125.913 216.47 126.444 215.766 126.9 214.998C127.352 214.23 127.709 213.39 127.921 212.504H127.922ZM120.303 214.374C120.468 213.462 120.459 212.559 120.426 211.687C120.392 210.809 120.324 209.957 120.312 209.118C120.305 208.27 120.35 207.442 120.607 206.579C119.962 207.228 119.645 208.165 119.505 209.055C119.362 209.962 119.384 210.86 119.429 211.733C119.471 212.606 119.552 213.459 119.538 214.29C119.531 215.125 119.413 215.944 118.935 216.708C119.32 216.476 119.627 216.104 119.854 215.696C120.07 215.278 120.214 214.827 120.302 214.375L120.303 214.374Z" fill="#152339"/>
<path d="M100.74 195.292L102.536 195.069L103.692 194.921C103.24 195.283 102.801 195.675 102.392 196.097C102.059 196.439 101.752 196.81 101.469 197.202C101.371 197.024 101.279 196.836 101.199 196.65C101.069 196.355 100.955 196.047 100.862 195.734C100.816 195.585 100.779 195.439 100.74 195.291V195.292Z" fill="#152339"/>
<path d="M104.234 153.363C99.4282 153.79 94.6615 154.73 90.046 156.127C88.4097 156.621 86.7929 157.178 85.203 157.789C85.4231 157.376 85.8438 156.819 85.8438 156.819C86.8438 156.385 87.9322 155.979 88.9996 155.603C90.076 155.223 91.1644 154.873 92.2617 154.545C94.4504 153.881 96.6826 153.338 98.9312 152.869C103.424 151.937 108.009 151.393 112.617 151.296C114.528 151.254 116.439 151.291 118.351 151.414L118.52 151.934L118.112 153.512L118.107 153.516C113.513 152.989 108.855 152.959 104.235 153.363H104.234Z" fill="#152339"/>
<path d="M90.2227 163.743C90.2347 163.35 90.2347 162.949 90.2063 162.553L91.2018 162.497L91.2617 163.636C91.3246 164.762 91.3755 165.885 91.3919 167.003C91.4054 168.117 91.3875 169.235 91.2437 170.294C91.2063 170.56 91.1599 170.821 91.1 171.066C91.0371 171.315 90.9563 171.598 90.8799 171.864L90.3994 173.489C90.0745 174.573 89.7497 175.67 89.4832 176.793C89.2167 177.916 89.0026 179.062 88.9218 180.234C88.8589 181.188 88.8843 182.167 89.07 183.125L88.028 183.13C87.8753 182.703 87.8544 182.239 87.8169 181.788C87.787 181.269 87.7825 180.749 87.7915 180.231C87.8035 179.19 87.8588 178.148 87.9217 177.11L88.1373 173.984L88.2047 172.954C88.534 172.182 88.799 171.393 89.0146 170.604C89.2676 169.697 89.4622 168.78 89.6389 167.887C89.811 167.009 89.9967 166.089 90.1104 165.157C90.1658 164.693 90.2078 164.22 90.2197 163.744L90.2227 163.743Z" fill="#152339"/>
<path d="M81.5307 190.958C81.3331 191.603 81.125 192.262 80.9363 192.933C80.8899 193.097 80.8435 193.266 80.8016 193.434L79.8614 193.383C78.7895 193.627 77.6548 193.704 76.6502 193.388C76.4766 193.332 76.3134 193.265 76.1487 193.189C76.1322 193.154 76.1143 193.126 76.0933 193.096L76.0424 193.133C75.3298 192.762 74.7639 192.168 74.3926 191.467C73.9076 190.578 73.6621 189.552 73.5408 188.518C73.4225 187.48 73.4315 186.425 73.5153 185.366C73.5153 185.366 74.6292 184.473 75.3418 184.058C76.1188 183.603 76.9062 183.176 77.7131 182.745C78.6069 182.269 79.5141 181.779 80.4139 181.248C80.4393 181.543 80.4558 181.838 80.4648 182.142C80.4857 183.091 80.4393 184.07 80.351 185.045C80.2627 186.024 80.1309 187.003 79.9752 187.98C79.8195 188.955 79.6384 189.943 79.4273 190.9L79.1533 192.132L80.1609 191.47H80.1654C80.6384 191.178 81.0846 190.883 81.5322 190.555C81.5831 190.516 81.6295 190.479 81.6804 190.442C81.634 190.611 81.5831 190.783 81.5322 190.957L81.5307 190.958Z" fill="#152339"/>
<path d="M76.5364 193.877C77.7056 194.054 78.8359 193.784 79.8614 193.383L80.8016 193.434C80.4902 194.611 80.2537 195.822 80.1683 197.059C80.0665 198.467 80.1638 199.906 80.5186 201.291C80.8435 202.595 81.3914 203.843 82.1011 204.978C82.0846 205.037 82.0711 205.096 82.0546 205.155C81.7088 206.58 81.3705 208.023 81.1384 209.508C81.0202 210.251 80.9273 211.005 80.8944 211.773C80.839 212.541 80.8989 213.326 81.0456 214.098C81.6025 217.018 82.4798 219.84 83.3152 222.666C84.155 225.493 85.1117 228.273 86.1506 231.078L86.7959 232.816L87.6013 230.972V230.967C87.8633 230.132 88.1957 229.271 88.4951 228.377C88.5624 228.183 88.6253 227.981 88.6897 227.783C89.3649 228.939 90.1913 229.99 91.0655 230.955C92.4444 232.473 93.9429 233.815 95.3906 235.186C96.8622 236.574 98.4491 237.857 100.136 238.987C100.981 239.553 101.844 240.08 102.747 240.556C103.634 241.029 104.511 241.463 105.19 242.074L106.005 242.805C105.246 242.923 104.436 242.93 103.626 242.863C101.153 242.627 98.6647 241.784 96.2978 240.742C95.1077 240.218 93.9399 239.64 92.7962 239.008C91.6284 238.372 90.4847 237.755 89.3574 237.084C87.1088 235.748 84.9575 234.249 83.0382 232.511C81.1265 230.743 79.4393 228.744 77.9931 226.584C77.6053 225.99 77.2341 225.386 76.8793 224.769C76.6637 224.398 77.791 211.573 77.8539 210.838C77.7401 211.547 75.9421 223.027 75.8029 222.744C75.3088 221.735 74.8657 220.697 74.4824 219.643C72.8162 215.142 72.1156 210.299 72.5542 205.574C72.9255 204.562 73.3521 203.469 73.6336 202.743C73.9585 201.908 74.216 201.246 74.3178 200.949C74.4735 200.476 74.7609 199.857 75.0648 199.198C75.7984 197.604 76.6727 195.71 76.5035 194.223C76.4915 194.097 76.4661 193.975 76.4361 193.852C76.4691 193.856 76.5035 193.868 76.5379 193.873L76.5364 193.877Z" fill="#152339"/>
<path d="M73.3088 137.324C73.9166 137.468 74.5199 137.665 75.1098 137.915C75.4002 138.038 75.6921 138.173 75.9796 138.312C76.1233 138.384 76.2206 138.442 76.3464 138.518C76.4691 138.595 76.5874 138.679 76.7042 138.771C77.6533 139.51 78.5096 140.51 79.2776 141.547C80.0366 142.598 80.7463 143.703 81.3705 144.854C81.9948 146.005 82.5682 147.188 83.0413 148.402C83.5263 149.613 83.9231 150.857 84.1925 152.11C84.3228 152.739 84.4201 153.372 84.462 154.001C84.5084 154.625 84.5039 155.254 84.4156 155.853C84.2764 156.932 83.8377 157.928 83.0533 158.65C81.4634 159.32 79.9019 160.051 78.3704 160.84C78.7462 160.406 79.0755 159.937 79.354 159.443C80.1893 157.946 80.5561 156.292 80.6699 154.684C80.7837 153.064 80.649 151.465 80.3615 149.913C80.0741 148.351 79.6145 146.841 79.0276 145.378C78.4363 143.918 77.7117 142.51 76.779 141.197C76.3059 140.542 75.7835 139.918 75.1502 139.352C74.8298 139.074 74.484 138.812 74.0873 138.589C73.9989 138.538 73.8642 138.471 73.7744 138.433L73.4959 138.31L72.969 138.09C72.2638 137.795 71.5722 137.499 70.9015 137.183C71.0826 137.153 71.2728 137.132 71.4584 137.125H71.4704C72.0782 137.104 72.698 137.18 73.3058 137.322L73.3088 137.324Z" fill="#152339"/>
<path d="M72.0512 163.868C72.4224 163.831 72.8521 163.771 73.2533 163.692C73.3342 163.675 73.409 163.654 73.4899 163.636C72.5272 164.249 71.5781 164.885 70.6544 165.551C70.0511 165.99 69.0181 166.53 69.0181 166.53C67.7905 166.066 64.7394 164.623 63.7783 163.096C64.5373 163.328 65.3098 163.514 66.0898 163.657C67.6587 163.945 69.2621 164.05 70.8535 163.966C71.2547 163.945 71.6425 163.915 72.0512 163.868Z" fill="#152339"/>
<path d="M62.5328 162.675C63.0313 165.008 67.039 166.815 68.325 167.337C68.1558 167.476 67.9791 167.611 67.81 167.75C67.7501 167.797 67.6962 167.848 67.6408 167.894C67.6408 167.894 67.4761 167.987 67.4552 168.05C66.6572 168.72 65.8862 169.426 65.1646 170.176C65.8443 169.614 66.5479 169.083 67.262 168.568C66.768 169.744 66.0045 170.765 65.0598 171.61C65.0553 171.605 65.0464 171.605 65.0434 171.601C64.955 171.568 64.8667 171.529 64.7859 171.483C64.6257 171.394 64.4865 171.276 64.3592 171.146C64.1182 170.879 63.9415 170.533 63.8233 170.134C63.7005 169.732 63.6241 169.247 63.5283 168.762L63.2708 167.282C63.1062 166.286 62.946 165.282 62.7648 164.282C62.6675 163.734 62.5672 163.189 62.4564 162.644C62.4819 162.653 62.5073 162.665 62.5328 162.674V162.675Z" fill="#152339"/>
<path d="M66.0016 110.381C66.0136 110.402 66.0061 110.402 65.9851 110.385C65.9896 110.385 65.9941 110.381 66.0016 110.381Z" fill="#152339"/>
<path d="M65.6976 110.026L65.6631 110.073C65.6422 110.035 65.6467 110.013 65.6976 110.026Z" fill="#152339"/>
<path d="M65.3563 110.52L65.1497 110.815L64.4865 111.743C64.0479 112.368 63.6212 113.001 63.208 113.646C62.3846 114.932 61.6181 116.266 60.9594 117.658C60.3007 119.046 59.7408 120.501 59.3905 122.03C59.0491 123.552 58.9219 125.173 59.2722 126.768C59.4459 127.557 59.7408 128.334 60.1585 129.042C60.2633 129.216 60.374 129.388 60.4923 129.557L60.8292 130.026C61.0567 130.338 61.2888 130.641 61.5208 130.949C62.458 132.169 63.4565 133.351 64.5584 134.446C65.6602 135.544 66.8744 136.556 68.2038 137.408C69.5242 138.264 70.9584 138.927 72.3432 139.538L72.8627 139.77L73.1067 139.884C73.183 139.921 73.2205 139.942 73.2968 139.986C73.5588 140.141 73.8163 140.345 74.0603 140.568C74.5544 141.023 75.0005 141.575 75.4017 142.162C76.2026 143.344 76.8494 144.668 77.3629 146.031C77.8824 147.393 78.2611 148.811 78.5111 150.241C78.7596 151.67 78.8614 153.122 78.7432 154.536C78.6294 155.94 78.2881 157.311 77.6338 158.476C76.9841 159.641 76.0005 160.551 74.7939 161.112C74.1951 161.395 73.5408 161.593 72.8657 161.728C72.5198 161.79 72.1995 161.837 71.8147 161.879C71.4734 161.916 71.1021 161.951 70.7473 161.967C69.3086 162.048 67.8609 161.963 66.4432 161.705C63.6032 161.195 60.8875 160.025 58.4488 158.419C57.2302 157.614 56.0729 156.697 54.9936 155.702C53.9052 154.711 52.8887 153.634 51.947 152.495C50.0742 150.212 48.4783 147.678 47.3106 144.969C46.7282 143.614 46.2596 142.215 45.9812 140.797C45.7147 139.388 45.6653 137.89 45.6982 136.414C45.7865 133.448 46.297 130.478 47.1998 127.635C48.107 124.795 49.4364 122.082 51.203 119.678C52.9665 117.273 55.1822 115.192 57.7257 113.615C60.0552 112.146 62.6616 111.125 65.3533 110.519L65.3563 110.52ZM69.6754 154.98C68.0466 153.841 66.4432 152.736 64.9252 151.555C63.4056 150.383 61.9684 149.137 60.66 147.809C58.0401 145.159 55.9637 142.093 54.8424 138.662C53.6986 135.232 53.5429 131.49 54.0669 127.772C54.5983 124.048 55.7376 120.342 57.32 116.74C56.0041 118.221 54.9277 119.913 54.0085 121.685C53.0923 123.465 52.3467 125.347 51.8272 127.317C51.3078 129.278 51.0173 131.329 51.0128 133.404C51.0128 135.481 51.3033 137.577 51.929 139.589C52.5488 141.598 53.4905 143.508 54.6971 145.213C55.8918 146.93 57.3544 148.428 58.9369 149.72C60.5267 151.006 62.2619 152.073 64.0628 152.952C65.8683 153.825 67.7412 154.521 69.6784 154.982L69.6754 154.98Z" fill="#152339"/>
<path d="M55.7825 208.944C55.8499 211.1 56.2301 213.26 56.9981 215.277C56.4622 216.247 55.9816 217.242 55.5549 218.259C54.736 220.212 54.1073 222.233 53.6686 224.292C53.6102 224.566 53.5503 224.844 53.4994 225.123H53.5129C53.4321 225.418 53.3857 225.717 53.3827 226.017C53.3692 226.481 53.4411 226.933 53.5474 227.358C53.7629 228.214 54.1207 228.987 54.492 229.72C54.8124 230.349 55.1462 230.952 55.4621 231.544C55.3528 231.493 55.239 231.442 55.1283 231.388C54.2345 230.961 53.3527 230.499 52.4949 229.996C51.6386 229.49 50.7987 228.954 50.0143 228.359C49.2298 227.768 48.4738 227.127 47.9094 226.385L46.791 224.508L46.9976 226.744C47.1204 228.074 47.3644 229.369 47.5665 230.638C47.6549 231.19 47.7402 231.738 47.8076 232.283C45.1832 230.427 42.7579 228.297 40.6186 225.904C39.3281 224.44 38.138 222.888 37.075 221.256C36.8056 220.846 36.5481 220.432 36.298 220.019L35.5345 218.724C35.0195 217.859 34.4881 217.007 33.9566 216.163C32.8982 214.48 31.8472 212.814 30.9864 211.079C30.1256 209.353 29.4804 207.547 29.2019 205.691C29.0627 204.763 29.0163 203.83 29.0537 202.894C29.0956 201.936 29.1884 200.984 29.3441 200.042C29.6525 198.156 30.2094 196.321 30.9984 194.596C31.7963 192.874 32.7994 191.25 34.006 189.778C35.2127 188.305 36.6094 186.985 38.132 185.825C39.6635 184.66 41.2998 183.622 43.0214 182.741C44.743 181.85 46.5485 181.095 48.3884 180.374C50.2283 179.652 52.1102 178.972 53.9665 178.197C54.4306 178.002 54.8992 177.805 55.3588 177.606C55.7765 177.415 56.2196 177.26 56.6837 177.104C57.6119 176.796 58.5775 176.501 59.5357 176.164C60.4938 175.827 61.4504 175.451 62.3786 174.995C63.3068 174.535 64.205 173.99 65.0329 173.34C65.8593 172.686 66.6108 171.915 67.2052 171.033C67.804 170.156 68.2307 169.147 68.4837 168.147C68.4837 168.147 69.9987 166.699 71.0063 166.089C73.0393 164.865 75.1247 163.734 77.2595 162.717C77.791 162.46 78.3314 162.216 78.8674 161.97C82.6385 160.274 86.5504 158.898 90.5281 157.823C90.6973 157.777 90.865 157.739 91.0341 157.693C91.0042 158.566 91.0476 159.398 91.0761 160.237L91.1988 162.499L90.2033 162.554C90.1943 162.473 90.1868 162.394 90.1778 162.313C90.085 161.368 89.8275 160.368 89.2122 159.656C89.4862 160.546 89.4143 161.431 89.2885 162.292C89.1448 163.157 88.9173 164.005 88.6553 164.854C88.3978 165.705 88.1074 166.545 87.8319 167.431C87.5699 168.304 87.3004 169.149 87.0085 169.975C86.4261 171.634 85.7135 173.156 84.7509 174.556C84.2748 175.252 83.7389 175.948 83.1685 176.577C82.6071 177.189 81.9708 177.772 81.2957 178.32C78.5874 180.505 75.2041 182.079 72.3387 184.543C71.6305 185.167 70.9554 185.859 70.4194 186.669C69.8924 187.495 69.5167 188.335 69.1873 189.209C68.8714 190.082 68.6094 190.982 68.4822 191.906C68.4238 192.365 68.3939 192.838 68.4522 193.302C68.5121 193.762 68.6723 194.235 69.0002 194.555C68.7217 194.193 68.6424 193.729 68.6454 193.29C68.6499 192.847 68.7262 192.404 68.8355 191.975C69.0586 191.109 69.4089 190.278 69.8146 189.485C70.2203 188.696 70.6709 187.898 71.1949 187.241C71.3386 187.067 71.4898 186.899 71.65 186.735C71.7473 187.435 71.8776 188.132 72.0632 188.814C72.3716 189.94 72.8177 191.063 73.5528 192.025C73.9151 192.502 74.3582 192.933 74.8687 193.258C75.0544 193.376 75.249 193.473 75.4421 193.557L75.2729 193.68C75.4032 193.865 75.4795 194.093 75.5095 194.35C75.6442 195.545 74.7969 197.379 74.1471 198.789C73.8312 199.469 73.5348 200.114 73.3582 200.641C73.2698 200.915 73.0034 201.599 72.6965 202.388C72.397 203.152 71.2952 204.042 71.2952 204.042C68.849 204.502 66.4566 205.498 64.4101 206.89C62.3472 208.278 60.5836 210.037 59.1195 211.983C58.4697 212.844 57.8799 213.747 57.3394 214.675C56.7736 212.818 56.5086 210.878 56.5131 208.936C56.525 206.426 56.9098 203.924 57.6014 201.506C59.0057 196.68 61.4369 192.145 64.6437 188.284C65.4491 187.322 66.3099 186.407 67.2291 185.563C67.6887 185.136 68.1663 184.732 68.6543 184.351C69.1529 183.959 69.6544 183.583 70.1694 183.205L73.2668 180.964C74.2968 180.2 75.3133 179.416 76.2879 178.564C76.773 178.137 77.2506 177.698 77.7012 177.234L79.0171 175.838C79.8944 174.909 80.7597 173.965 81.5786 172.972C82.3975 171.986 83.161 170.942 83.7973 169.821C84.1132 169.259 84.3961 168.677 84.6027 168.066C84.8048 167.458 84.9231 166.809 84.8647 166.172C84.8737 166.813 84.691 167.43 84.4515 168.012C84.2105 168.595 83.8991 169.147 83.5532 169.674C82.8616 170.73 82.0337 171.695 81.1864 172.631C80.33 173.568 79.4318 174.457 78.5246 175.353L77.1622 176.685C76.7071 177.119 76.234 177.532 75.7535 177.933C74.7879 178.739 73.7669 179.486 72.7279 180.217L69.5975 182.414C69.078 182.785 68.5555 183.169 68.045 183.558C67.53 183.959 67.033 184.381 66.551 184.816C65.5898 185.693 64.6991 186.637 63.8637 187.626C62.193 189.605 60.7663 191.781 59.5641 194.064C58.3575 196.351 57.4083 198.773 56.7421 201.27C56.0834 203.767 55.6912 206.354 55.781 208.948L55.7825 208.944ZM77.5021 171.653C79.1683 169.827 80.5516 167.743 81.5307 165.497C80.08 167.467 78.5306 169.315 76.7925 170.96C75.0588 172.61 73.1561 174.065 71.1724 175.424C69.1858 176.782 67.1019 178.032 65.0374 179.332C62.9699 180.624 60.9324 181.994 58.9832 183.483C57.0296 184.973 55.1777 186.6 53.477 188.382C51.7808 190.157 50.2283 192.085 48.9498 194.195C48.2956 195.255 47.7941 196.418 47.4767 197.617C47.1608 198.819 47.0036 200.051 46.9408 201.274C46.818 203.725 47.0426 206.152 47.1264 208.582C47.2147 206.152 47.1099 203.709 47.3465 201.304C47.574 198.908 48.2282 196.545 49.5576 194.575C50.8826 192.57 52.444 190.732 54.1432 189.031C55.8558 187.34 57.7002 185.787 59.6315 184.348C61.5642 182.91 63.6017 181.61 65.6557 180.327C67.7142 179.044 69.8161 177.8 71.8491 176.424C73.8821 175.049 75.8283 173.489 77.4991 171.653H77.5021ZM41.6621 195.912C42.5528 193.642 43.8343 191.519 45.4631 189.546C43.2819 190.901 41.4929 192.93 40.2488 195.25C39.0003 197.575 38.2907 200.195 38.135 202.84C37.9838 205.486 38.3835 208.164 39.3326 210.621C40.2818 213.071 41.7923 215.317 43.7924 216.932C42.4211 214.772 41.4255 212.498 40.8222 210.14C40.2144 207.785 39.9868 205.36 40.1261 202.956C40.2653 200.554 40.7713 198.171 41.6621 195.913V195.912Z" fill="#152339"/>
</svg>
