<svg width="256" height="256" viewBox="0 0 256 256" fill="none" xmlns="http://www.w3.org/2000/svg">
<path d="M128.197 246.009L76.8198 207.99C56.3988 192.735 47.6948 176.049 47.6948 152.182L47.6423 51.1935L50.8128 52.0206C77.9685 59.0835 101.547 57.7379 127.271 47.662L128.197 47.301L129.123 47.662C152.78 56.9239 172.885 60.5933 205.575 52.0271L208.752 51.1935L208.699 152.189C208.699 176.043 200.008 192.735 179.633 207.984L128.197 246.016V246.009ZM52.7098 57.7051L52.7558 152.182C52.7558 174.27 60.8559 189.742 79.8393 203.927L128.197 239.715L176.62 203.92C195.551 189.742 203.638 174.27 203.638 152.189L203.691 57.7248C171.914 65.4967 151.657 61.8076 128.197 52.736C102.781 62.5166 79.3141 64.0854 52.7098 57.7182V57.7051Z" fill="white"/>
<path d="M128.197 47.2944L129.122 47.6554C143.511 53.2874 156.593 56.8517 171.986 56.8517C181.898 56.8517 192.768 55.3748 205.575 52.0205L208.752 51.1869L208.699 152.182C208.699 176.036 200.008 192.729 179.633 207.977L128.197 246.009L76.8197 207.99C56.3988 192.735 47.6948 176.049 47.6948 152.182L47.6423 51.1935L50.8127 52.0205C62.1292 54.9613 72.8222 56.4447 83.305 56.4447C97.9889 56.4447 112.266 53.5368 127.271 47.6554L128.197 47.2944ZM128.19 39.1352L125.42 40.2248L124.495 40.5859C110.31 46.1457 96.8337 48.8435 83.3116 48.8435C73.5508 48.8435 63.5471 47.4782 52.7295 44.6622L49.559 43.8351L40.0476 41.3604V51.1935L40.1067 152.182C40.1067 178.36 50.0316 197.448 72.2839 214.069L123.687 252.114L128.203 255.455L132.72 252.114L184.156 214.082C206.395 197.429 216.3 178.347 216.3 152.176L216.353 51.1803V41.3276L206.828 43.8285L203.651 44.6622C191.882 47.7473 181.524 49.2439 171.993 49.2439C159.258 49.2439 147.64 46.7299 131.899 40.5662L130.967 40.2051L128.197 39.1221L128.19 39.1352Z" fill="#090C14"/>
<path d="M206.218 54.4689L206.165 144.24V152.189C206.165 174.769 198.065 191.022 178.117 205.955L170.47 211.574L128.19 242.865L85.9109 211.574L78.3163 205.955C58.3155 191.022 50.2154 174.769 50.2154 152.189V144.24L50.1628 54.4689C81.0995 62.5165 104.947 59.1294 128.184 50.0119C151.473 59.1229 172.235 63.3764 206.205 54.4689H206.218Z" fill="#C41718"/>
<path d="M206.165 144.233V152.182C206.165 174.763 198.065 191.015 178.117 205.949L170.47 211.568L128.19 170.811L85.9109 211.568L78.3163 205.949C58.3154 191.015 50.2153 174.763 50.2153 152.182V144.233L128.184 68.9427L206.152 144.233H206.165Z" fill="#FCEA19"/>
<path d="M128.197 190.74L85.7009 161.615V174.579L128.197 203.559L170.699 174.579V161.615L128.197 190.74Z" fill="#090C14"/>
<path d="M170.699 180.427L128.197 209.552L85.7009 180.427V184.747L128.197 213.451V213.458V213.451V213.458V213.451L170.699 184.747V180.427Z" fill="#090C14"/>
<path d="M168.192 73.9315H156.797L154.67 76.0583V85.8125H148.716V76.1633L146.452 73.8987H135.234L132.936 76.1961V85.8125H123.464V76.1961L121.16 73.8987H109.942L107.678 76.1633V85.8125H101.724V76.0583L99.5972 73.9315H88.2084L87.0072 75.1327V97.3785H169.393V75.1327L168.192 73.9315Z" fill="#090C14"/>
<path d="M154.532 123.294H156.764V117.025H99.63V123.294H101.862L97.5426 161.615L128.197 183.913L158.858 161.615L154.532 123.294Z" fill="#090C14"/>
<path d="M153.055 112.115H128.197H103.339L102.978 114.622H128.197H153.423L153.055 112.115Z" fill="#090C14"/>
<path d="M165.008 100.739L156.751 105.958V109.804H99.643V105.958L91.392 100.739H165.008Z" fill="#090C14"/>
<path d="M71.2795 16.0295C71.2795 11.7826 71.2795 7.53559 71.2795 3.28862C71.2795 1.33908 71.5552 1.03713 73.4391 1.06339C77.8633 1.12247 82.2941 1.13559 86.7183 1.33252C88.8385 1.43098 90.7946 2.22524 92.3634 3.79406C94.5624 5.99959 95.6061 10.7061 92.4947 13.7715C91.1031 15.1434 91.1359 15.1828 92.6129 16.3118C95.5798 18.583 95.698 21.7075 95.0022 24.9305C94.3917 27.7596 92.4881 29.6172 89.6984 30.3196C87.9983 30.7528 86.2063 30.9432 84.4471 30.9957C80.7187 31.0942 76.9837 31.0351 73.2488 31.022C71.6077 31.022 71.2795 30.6872 71.2795 29.0462C71.273 24.7073 71.2795 20.3684 71.2795 16.0295ZM82.6748 23.552C83.3706 23.552 84.073 23.5848 84.7688 23.5454C86.0947 23.4667 86.9546 22.6068 86.9283 21.4581C86.9021 20.2962 86.0356 19.4101 84.7688 19.351C83.561 19.2919 82.3466 19.3182 81.1322 19.3247C79.4256 19.3379 79.2418 19.5348 79.2221 21.2808C79.2024 23.342 79.3928 23.5454 81.4145 23.552C81.8346 23.552 82.2547 23.552 82.6748 23.552ZM82.235 12.5834C82.793 12.5768 83.3509 12.5965 83.9089 12.5703C85.0313 12.5177 85.9897 11.5922 86.0159 10.5616C86.0422 9.62298 85.1167 8.63836 84.0336 8.57929C82.8717 8.51365 81.6968 8.48083 80.548 8.60554C80.1017 8.65149 79.4715 9.07816 79.3206 9.47857C78.5788 11.4741 79.419 12.5834 81.5392 12.59C81.769 12.59 82.0053 12.59 82.235 12.59V12.5834Z" fill="white"/>
<path d="M129.221 15.9639C129.221 11.625 129.221 7.28614 129.221 2.9407C129.221 1.32593 129.483 1.0568 131.092 1.0568C135.01 1.04367 138.936 0.932084 142.854 1.08962C147.082 1.25373 150.672 2.87506 152.412 6.97762C154.256 11.3296 153.862 15.5635 150.633 19.2459C148.664 21.4909 148.611 21.4515 150.515 23.8867C151.946 25.7247 153.396 27.5495 154.795 29.4137C155.037 29.7419 155.202 30.2671 155.123 30.6412C155.083 30.8381 154.434 31.0088 154.059 31.0154C152.005 31.0482 149.944 31.1466 147.902 30.976C147.082 30.9103 146.091 30.4049 145.559 29.7748C143.944 27.8515 142.566 25.7313 140.997 23.762C140.537 23.1844 139.828 22.6658 139.126 22.4558C137.866 22.0751 137.039 22.7643 136.993 24.1034C136.94 25.7838 136.986 27.4642 136.96 29.1446C136.934 30.825 136.737 31.0219 135.122 31.0351C133.816 31.0482 132.509 31.0482 131.203 31.0351C129.411 31.0219 129.227 30.8447 129.227 28.9936C129.221 24.6547 129.227 20.3159 129.227 15.9704L129.221 15.9639ZM140.715 8.55301C140.065 8.55301 139.415 8.5727 138.765 8.55301C137.603 8.50049 137.026 9.09783 136.993 10.2072C136.953 11.3231 136.835 12.4652 137.058 13.5352C137.17 14.0865 137.918 14.8611 138.437 14.9071C139.993 15.0449 141.594 14.9858 143.15 14.802C144.614 14.6248 145.697 13.1413 145.638 11.73C145.565 10.0562 144.285 8.67773 142.671 8.56614C142.021 8.52019 141.371 8.55957 140.721 8.55301H140.715Z" fill="white"/>
<path d="M123.3 31.0285C123.018 31.0285 122.736 30.9957 122.46 31.0285C120.038 31.3764 118.311 30.7003 117.537 28.1206C117.373 27.5823 116.362 26.985 115.718 26.9522C113.021 26.8209 110.303 26.9259 107.599 26.88C106.292 26.8537 105.734 27.7071 105.413 28.6851C104.796 30.5427 103.621 31.232 101.698 31.0482C100.214 30.9103 98.7109 31.0482 97.2208 31.0219C95.7111 31.0022 95.3304 30.3918 95.9343 28.9805C97.2668 25.856 98.6059 22.738 99.945 19.6135C102.387 13.929 104.848 8.25106 107.264 2.55998C107.71 1.50973 108.406 1.03711 109.509 1.05024C110.907 1.06337 112.312 1.09619 113.71 1.04367C114.996 0.991161 115.692 1.68696 116.145 2.7569C119.926 11.6119 123.7 20.4734 127.481 29.3284C127.941 30.4049 127.672 30.9366 126.523 31.0022C125.453 31.0613 124.377 31.0154 123.3 31.0154V31.0285ZM111.951 13.7846C111.622 13.8896 111.412 13.8962 111.38 13.975C110.644 15.6488 109.903 17.3226 109.266 19.0359C109.2 19.2065 109.771 19.8367 110.093 19.8761C111.097 19.9877 112.128 19.968 113.145 19.8958C113.92 19.8433 114.353 19.4035 113.999 18.5633C113.336 16.9944 112.66 15.4322 111.951 13.7846Z" fill="white"/>
<path d="M157.204 16.4431C157.276 8.24451 162.954 1.85764 170.594 0.846768C177.657 -0.0918981 183.027 2.50092 186.926 8.40205C187.602 9.41949 187.326 9.93805 186.375 10.3319C184.694 11.0277 183.033 11.7826 181.294 12.2814C180.808 12.4193 179.896 11.9007 179.515 11.415C177.822 9.26851 175.728 7.99508 172.944 8.0082C169.446 8.02133 166.039 10.857 165.488 14.2375C164.706 19.0096 166.919 22.2129 170.345 23.5783C173.568 24.8583 176.975 23.8474 179.213 21.0051C180.086 19.8958 180.854 19.4035 182.246 20.1124C183.611 20.8016 185.088 21.2743 186.512 21.8585C187.294 22.1801 187.589 22.6658 187.09 23.4995C180.999 33.7395 166.709 34.1071 160.079 24.9895C158.136 22.3179 157.118 19.305 157.204 16.4365V16.4431Z" fill="white"/>
</svg>
