<svg width="256" height="256" viewBox="0 0 256 256" fill="none" xmlns="http://www.w3.org/2000/svg">
<path d="M83.6874 30.7254C100.933 25.5518 115.179 13.8122 127.732 1.3175C140.27 13.7105 154.826 24.7163 171.857 29.9809C190.929 36.0542 211.521 34.4743 230.721 29.8578C232.526 54.4777 232.371 79.2957 229.249 103.809C226.63 124.197 221.917 144.388 214.333 163.524C207.237 181.449 197.597 198.448 185.193 213.241C169.838 231.551 150.312 246.762 127.834 255.229C110.391 248.673 94.5701 238.123 81.2024 225.205C66.1583 210.745 54.3063 193.162 45.6355 174.23C30.4576 141.025 24.7645 104.253 24.1754 67.9739C23.9344 55.2703 24.4807 42.5667 25.3644 29.8899C44.4037 34.1476 64.707 36.5362 83.6874 30.7254Z" fill="#B4121D"/>
<path d="M127.625 0.535507C134.384 6.80162 141.196 13.0891 148.919 18.1663C160.825 26.2158 174.637 31.5394 188.979 32.9104C203.156 34.41 217.445 32.423 231.246 29.1936C232.976 52.9673 232.965 76.9231 230.202 100.611C227.744 121.696 223.084 142.594 215.404 162.41C208.699 179.709 199.643 196.167 188.058 210.686C172.591 230.03 152.599 246.215 129.392 255.25C127.775 256.214 126.083 255.213 124.546 254.602C106.679 247.281 90.6015 235.906 77.1803 222.077C61.2311 205.641 49.1649 185.696 40.8261 164.429C28.2618 132.45 23.7684 97.8423 23.5649 63.6465C23.5327 52.1693 24.0362 40.6975 24.8502 29.2471C40.071 32.5462 55.7952 34.9295 71.364 32.8247C82.311 31.4055 92.867 27.4423 102.197 21.5618C111.547 15.692 119.881 8.3494 127.625 0.530151M83.6874 30.7253C64.707 36.5308 44.4037 34.1476 25.3644 29.8898C24.4753 42.5666 23.9344 55.2702 24.1754 67.9738C24.7645 104.253 30.4576 141.025 45.6355 174.235C54.3063 193.167 66.1583 210.75 81.2024 225.21C94.5701 238.134 110.396 248.684 127.834 255.234C150.312 246.767 169.838 231.557 185.193 213.246C197.597 198.454 207.237 181.455 214.333 163.529C221.922 144.399 226.63 124.203 229.249 103.814C232.371 79.301 232.526 54.483 230.721 29.863C211.516 34.4796 190.929 36.0649 171.857 29.9862C154.826 24.7216 140.264 13.7158 127.732 1.32279C115.179 13.8122 100.933 25.5571 83.6874 30.7307V30.7253Z" fill="#FECD58"/>
<path d="M84.9888 38.6463C101.768 33.7084 115.58 22.2098 127.673 9.9989C135.337 17.3469 143.387 24.4163 152.566 29.8362C164.943 37.3234 179.334 41.458 193.816 41.4633C203.852 41.6454 213.83 40.0869 223.577 37.8268C225.596 65.1032 225.066 92.7008 220.272 119.677C216.443 141.084 209.813 162.121 199.402 181.262C190.206 198.223 177.984 213.642 163.042 225.896C152.449 234.529 140.607 241.813 127.689 246.376C109.866 239.628 93.7399 228.659 80.5115 214.976C64.2999 198.378 52.5389 177.786 44.8535 155.983C33.7781 124.529 30.6022 90.821 31.4912 57.6535C31.6947 51.0285 32.0321 44.4089 32.5463 37.8054C49.6629 41.7258 67.8989 43.7716 84.9995 38.6463M127.764 21.6421C117.31 31.8553 105.164 40.7617 91.121 45.2819C74.5774 50.734 56.7377 49.9681 39.7817 47.0707C38.4696 70.6195 39.1337 94.3932 43.4075 117.631C99.7597 117.53 156.112 117.647 212.464 117.572C212.528 117.412 212.657 117.09 212.721 116.924C216.839 93.9058 217.616 70.3892 216.336 47.0707C197.698 49.6307 178.054 50.2359 160.22 43.3592C147.88 38.7534 137.19 30.6985 127.764 21.6367M44.8696 125.493C49.5183 147.446 57.3643 168.917 69.5859 187.828C78.9208 202.358 90.8211 215.318 104.949 225.296C111.799 230.068 119.077 234.336 126.945 237.191C127.952 237.673 128.975 237.025 129.933 236.73C138.695 233.254 146.82 228.311 154.323 222.64C168.639 211.757 180.48 197.805 189.585 182.344C199.953 164.809 206.814 145.368 211.066 125.493C155.667 125.488 100.258 125.477 44.8589 125.499L44.8696 125.493Z" fill="#FECD58"/>
<path d="M166.984 62.3397C172.243 61.6756 177.759 61.997 182.719 64.0053C182.231 65.6442 181.717 67.2669 181.198 68.9004C176.474 66.9134 171.102 66.4796 166.116 67.6579C162.121 68.6005 158.356 70.9516 156.171 74.481C153.102 79.3278 152.641 85.4815 153.943 90.9764C155.073 95.775 158.538 100.001 163.16 101.805C168.96 104.071 175.601 103.653 181.358 101.425C181.792 103.016 182.226 104.596 182.66 106.176C177.909 108.077 172.698 108.409 167.637 108.168C162.56 107.847 157.467 106.085 153.611 102.689C150.006 99.5508 147.827 95.0092 147.055 90.339C146.166 84.2229 146.868 77.614 150.349 72.3601C153.959 66.6724 160.386 63.1645 166.984 62.3397Z" fill="#FECD58"/>
<path d="M62.9985 63.3733C68.2899 62.4736 73.7205 62.1148 79.0708 62.6878C82.7555 63.0627 86.5151 64.4391 89.0162 67.2723C91.1906 69.7198 91.6137 73.3081 90.8157 76.3929C89.7339 79.8527 86.6544 82.3377 83.3232 83.5106C86.3223 84.3621 89.2519 85.926 91.0514 88.5502C94.2594 93.1186 93.3115 99.9578 89.1555 103.632C85.6797 106.786 80.7792 107.552 76.2644 107.895C71.8353 108.007 67.3901 108.034 62.9824 107.466C63.0146 92.7651 62.9878 78.0639 62.9985 63.3733ZM69.2539 67.3847C69.2539 72.1566 69.2485 76.9285 69.2592 81.7004C72.2209 81.6575 75.2254 81.92 78.1496 81.3255C80.3829 80.8542 82.6109 79.7188 83.8855 77.764C85.835 74.813 84.9727 70.2125 81.7486 68.5201C77.9193 66.5278 73.3992 66.8813 69.2539 67.3901M69.2539 86.1938V103.139C73.9615 103.423 79.2047 103.862 83.3018 101.05C87.3667 98.2868 87.447 91.5012 83.4303 88.6574C79.3546 85.6421 74.0204 86.2259 69.2539 86.1938Z" fill="#FECD58"/>
<path d="M107.991 62.8216C116.56 62.7842 125.129 62.8109 133.698 62.8056C133.698 64.4391 133.698 66.0672 133.693 67.7006C127.218 67.7114 120.738 67.6846 114.257 67.7114C114.257 72.3708 114.252 77.0355 114.263 81.7003C120.374 81.711 126.49 81.7057 132.606 81.7057C132.611 83.3338 132.617 84.9619 132.606 86.5954C126.495 86.6061 120.379 86.6007 114.263 86.6007C114.252 91.9457 114.252 97.2906 114.263 102.646C121.054 102.652 127.855 102.636 134.646 102.652C134.652 104.323 134.652 105.999 134.652 107.67C125.767 107.675 116.887 107.681 108.002 107.67C107.997 92.7222 108.013 77.7746 107.991 62.827V62.8216Z" fill="#FECD58"/>
<path d="M113.336 139.263C117.166 135.889 121.637 133.281 126.409 131.503C120.17 137.03 115.457 144.265 113.309 152.341C122.703 148.817 133.313 148.844 142.712 152.347C140.575 144.308 135.916 137.051 129.687 131.556C141.871 135.91 151.645 146.37 155.201 158.806C155.432 160.161 156.551 161.007 157.472 161.912C167.059 171.327 171.375 185.562 168.971 198.753C167.241 190.152 163.015 182.038 156.605 175.997C155.217 186.393 149.824 196.172 141.689 202.802C150.349 205.362 159.743 204.907 168.189 201.785C157.943 211.071 142.824 214.467 129.548 210.648C128.391 210.166 127.181 210.402 126.034 210.772C112.876 214.397 98.003 210.964 87.8541 201.812C96.3106 204.875 105.683 205.378 114.332 202.802C106.288 196.14 100.761 186.468 99.4812 176.072C93.0383 182.151 88.8341 190.367 87.1739 199.032C85.1869 189.129 87.1632 178.547 92.326 169.892C94.479 166.186 97.3871 163.01 100.402 160.005C102.657 152.063 107.043 144.656 113.342 139.258M112.201 167.739C113.39 178.729 119.292 189.017 127.989 195.808C136.751 189.065 142.653 178.713 143.815 167.701C133.806 163.578 122.211 163.578 112.201 167.739Z" fill="#FECD58"/>
</svg>
