<svg width="256" height="256" viewBox="0 0 256 256" fill="none" xmlns="http://www.w3.org/2000/svg">
<path d="M226.495 91.768L128.145 256L29.7948 91.768L79.9794 0H176.311L226.495 91.768Z" fill="#0000AA"/>
<path d="M171.226 33.5074C169.783 25.6784 157.834 20.9504 142.125 20.97C141.502 20.97 140.871 20.9779 140.235 20.9936C140.232 20.9936 140.228 20.9936 140.224 20.9936C139.593 21.0092 138.957 21.0328 138.314 21.0641C138.303 21.0641 138.291 21.0641 138.275 21.0641C137.64 21.0955 137.001 21.1347 136.358 21.1778C136.339 21.1778 136.315 21.1778 136.296 21.1817C135.66 21.2288 135.017 21.2797 134.375 21.3385C134.347 21.3385 134.316 21.3425 134.288 21.3464C133.649 21.4052 133.006 21.4758 132.359 21.5502C132.324 21.5542 132.289 21.5581 132.258 21.562C131.615 21.6365 130.968 21.7188 130.317 21.809C130.282 21.8129 130.25 21.8207 130.215 21.8247C129.56 21.9148 128.906 22.0128 128.243 22.1226C128.22 22.1226 128.196 22.1305 128.173 22.1344C127.498 22.2441 126.824 22.3618 126.146 22.4833C125.675 22.5695 125.209 22.6597 124.742 22.7538C124.625 22.7773 124.507 22.8008 124.389 22.8244C123.95 22.9145 123.507 23.0047 123.072 23.1027C123.049 23.1066 123.025 23.1145 123.002 23.1184C122.531 23.2203 122.065 23.3301 121.602 23.4399C121.512 23.4595 121.422 23.483 121.335 23.5026C120.888 23.6084 120.442 23.7182 119.999 23.8319C119.987 23.8319 119.975 23.8397 119.963 23.8397C119.485 23.9613 119.015 24.0867 118.544 24.2161C118.493 24.2318 118.442 24.2435 118.391 24.2592C117.929 24.3847 117.47 24.514 117.015 24.6473C116.537 24.7885 116.059 24.9296 115.588 25.0747C115.572 25.0786 115.561 25.0825 115.545 25.0864C115.078 25.2315 114.616 25.3804 114.157 25.5294C97.5231 31.0101 86.4167 40.4268 87.9731 48.8556C89.3256 56.1906 99.9027 60.8049 114.157 61.342C116.325 61.4243 118.579 61.4125 120.9 61.2989C120.924 61.2989 120.947 61.2989 120.971 61.2989C121.72 61.2636 122.476 61.2165 123.241 61.1577C123.264 61.1577 123.292 61.1577 123.315 61.1538C124.86 61.0362 126.432 60.8755 128.024 60.6677C128.082 60.6598 128.145 60.652 128.204 60.6442C128.949 60.5461 129.698 60.4403 130.446 60.3227C130.513 60.3109 130.576 60.3031 130.642 60.2913C131.438 60.1659 132.242 60.0287 133.046 59.8797C133.818 59.7385 134.578 59.5856 135.335 59.4288C135.378 59.421 135.425 59.4092 135.468 59.4014C136.19 59.2485 136.907 59.0878 137.617 58.9231C137.664 58.9113 137.711 58.8996 137.758 58.8878C138.471 58.7193 139.181 58.5428 139.879 58.3586C139.91 58.3507 139.938 58.3429 139.969 58.3351C140.694 58.143 141.416 57.943 142.125 57.7392C160.359 52.4388 172.869 42.4223 171.222 33.5113L171.226 33.5074Z" fill="white"/>
<path d="M206.411 73.5735H176.828V19.4764L171.038 8.89139H142.125V18.1905C142.153 18.1905 142.18 18.1905 142.207 18.1905C160.104 18.1905 172.273 23.8672 173.955 33.0056C175.088 39.1409 171.214 45.6252 163.048 51.2666C157.442 55.14 150.201 58.3625 142.125 60.6285V73.5775H114.157V64.1294C97.8171 63.557 86.8362 58.0136 85.2406 49.3653C84.1076 43.2299 87.9809 36.7456 96.147 31.1042C101.067 27.7052 107.253 24.8081 114.157 22.6166V8.89139H85.2445L79.4541 19.4764V73.5735H49.8788L40.0387 91.568L49.8553 107.959H79.4619V157.399L114.161 215.342V107.959H142.129V215.342L176.828 157.395V107.955H206.435L216.251 91.5641L206.411 73.5696V73.5735Z" fill="white"/>
<path d="M103.839 89.8784C106.787 90.6036 108.857 91.4779 110.049 92.5089C111.758 93.9712 112.616 95.8687 112.616 98.2013C112.616 100.663 111.676 102.694 109.798 104.305C107.493 106.25 104.137 107.222 99.7381 107.222H83.9507V106.328C85.3856 106.328 86.3618 106.187 86.8714 105.905C87.385 105.623 87.7417 105.258 87.9495 104.807C88.1573 104.356 88.2592 103.247 88.2592 101.479V80.2539C88.2592 78.4858 88.1573 77.3724 87.9495 76.9137C87.7417 76.455 87.3811 76.0904 86.8597 75.816C86.3382 75.5416 85.3699 75.4044 83.9507 75.4044V74.5105H98.8442C102.404 74.5105 104.925 74.8437 106.407 75.5102C107.889 76.1767 109.057 77.1764 109.911 78.5015C110.766 79.8265 111.193 81.2379 111.193 82.7354C111.193 84.3114 110.652 85.7149 109.566 86.9459C108.48 88.1769 106.571 89.1531 103.839 89.8784ZM95.5002 91.1093V101.6L95.4766 102.808C95.4766 103.674 95.6883 104.333 96.1078 104.772C96.5273 105.215 97.1506 105.434 97.9739 105.434C99.1971 105.434 100.322 105.148 101.353 104.58C102.384 104.007 103.176 103.18 103.725 102.094C104.274 101.008 104.548 99.8008 104.548 98.464C104.548 96.935 104.211 95.5668 103.541 94.3515C102.87 93.1362 101.945 92.2894 100.769 91.8072C99.6244 91.3406 97.9425 91.1093 95.7275 91.1093H95.5002ZM95.5002 89.2276C97.6681 89.2276 99.2676 88.9688 100.299 88.4553C101.33 87.9417 102.122 87.2164 102.671 86.2834C103.219 85.3503 103.494 84.1625 103.494 82.7119C103.494 81.2614 103.223 80.0774 102.678 79.1562C102.137 78.2309 101.361 77.5292 100.354 77.047C99.3774 76.5805 97.8328 76.3492 95.7236 76.3492H95.4962V89.2276H95.5002Z" fill="#0000AA"/>
<path d="M161.766 74.0557C162.041 74.0401 162.315 74.0322 162.589 74.0322C167.157 74.0322 170.908 75.5612 173.841 78.6151C176.926 81.8455 178.471 85.8913 178.471 90.7487C178.471 94.8964 177.318 98.5463 175.009 101.698C171.955 105.877 167.639 107.971 162.064 107.971C156.489 107.971 152.149 105.975 149.095 101.988C146.681 98.8364 145.477 95.1003 145.477 90.7722C145.477 85.9149 147.049 81.8651 150.197 78.6151C153.145 75.5612 156.744 74.0322 160.99 74.0322C161.249 74.0322 161.507 74.0401 161.77 74.0557H161.766ZM162.041 75.6004C159.198 75.6004 157.038 77.1293 155.556 80.1833C154.349 82.6923 153.745 86.2951 153.745 90.9878C153.745 96.5665 154.678 100.691 156.54 103.36C157.838 105.227 159.657 106.16 161.994 106.16C163.566 106.16 164.879 105.76 165.933 104.952C167.278 103.925 168.325 102.278 169.074 100.02C169.822 97.7622 170.195 94.8141 170.195 91.1799C170.195 86.8558 169.815 83.6175 169.05 81.4731C168.286 79.3247 167.313 77.8115 166.129 76.9255C164.946 76.0395 163.581 75.6004 162.041 75.6004Z" fill="#0000AA"/>
<path d="M117.733 42.3674L126.208 49.3378C127.365 50.2826 128.545 50.6355 129.102 50.8001C129.658 50.9648 131.046 51.1059 131.728 51.0432L131.83 51.592L121.206 53.5522L121.104 53.0034C122.072 52.7642 122.68 52.529 122.935 52.2977C123.186 52.0664 123.288 51.8233 123.241 51.5646C123.209 51.3843 123.135 51.2353 123.021 51.1138C122.794 50.8472 122.257 50.3728 121.414 49.6867L115.823 45.0999L111.683 50.8668C110.743 52.2193 110.307 53.0975 110.382 53.5052C110.433 53.7914 110.484 54.0775 110.825 54.2696C111.166 54.4617 111.425 54.5833 112.024 54.5872C112.295 54.599 112.248 54.6382 113.056 54.4892L113.157 55.038L104.423 56.6493L104.321 56.1005C105.399 55.7672 106.222 55.3713 106.791 54.9087C107.536 54.301 108.52 53.1327 109.739 51.4117L114.592 44.5471L107.367 38.9645C106.085 37.9178 105.109 37.4944 104.936 37.3846C104.541 37.118 103.674 36.9926 103.286 36.9377C102.933 36.8867 101.926 36.8985 101.341 36.9377L101.24 36.3889L112.573 34.2993L112.675 34.8481L112.044 34.9658C111.327 35.0991 110.841 35.2833 110.59 35.5185C110.339 35.7538 110.237 36.0125 110.292 36.2869C110.331 36.5065 110.409 36.6868 110.527 36.8279L112.095 38.1373L116.694 41.7245L119.277 38.0589C120.394 36.4673 121.602 35.2755 121.504 34.7423C121.457 34.4757 121.312 34.2444 121.081 34.0523C120.845 33.8602 120.54 33.7308 120.155 33.6681C119.771 33.6054 119.203 33.6446 118.446 33.7818L118.344 33.233L126.922 31.653L127.024 32.2019C126.295 32.347 125.718 32.5273 125.299 32.7429C124.875 32.9585 124.448 33.2957 124.005 33.7583C123.727 34.0562 123.056 34.9422 121.998 36.4202L117.736 42.3713L117.733 42.3674Z" fill="#0000AA"/>
<path d="M157.328 26.0391L157.43 26.5879C156.536 26.8781 155.788 27.4191 155.192 28.2149C154.764 28.8069 154.204 30.1163 153.514 32.1392L148.331 48.9536L147.719 49.0673L135.46 34.8246C134.065 33.084 133.155 32.0765 132.74 31.806C132.324 31.5354 131.618 31.4453 130.623 31.5354L130.521 30.9866L140.232 29.195L140.333 29.7438L139.926 29.8183C138.836 30.0183 138.111 30.2653 137.754 30.5554C137.495 30.7553 137.393 31.0023 137.448 31.2885C137.479 31.4688 137.57 31.6687 137.715 31.8922C137.86 32.1157 138.314 32.7076 139.079 33.6642L148.041 44.1473L152.008 32.4175C152.404 31.2257 152.636 30.4377 152.706 30.0457C152.773 29.6537 152.785 29.3283 152.737 29.0695C152.683 28.7716 152.534 28.5285 152.294 28.3364C152.055 28.1443 151.73 28.0267 151.326 27.9758C150.762 27.9052 150.04 27.9522 149.158 28.113L149.056 27.5641L157.328 26.0391Z" fill="#0000AA"/>
</svg>
