<svg width="256" height="256" viewBox="0 0 256 256" fill="none" xmlns="http://www.w3.org/2000/svg">
<path d="M138.624 0L150.436 1.0944C174.643 4.13653 200.107 13.6128 219.454 28.5035C220.166 29.0517 223.027 31.1424 223.328 31.6693C223.473 31.9232 223.503 32.0149 223.541 32.3093C223.923 35.1701 223.469 39.4987 223.522 42.5685C223.84 61.1072 224.337 79.6608 224.376 98.2485L224.811 104.32V111.36L223.932 121.041C217.837 168.896 188.504 209.617 151.953 239.356C144.708 245.25 137.058 250.592 129.451 256H129.024C125.329 253.536 121.523 251.232 117.862 248.708C75.7249 219.639 38.1654 174.15 31.9852 121.679C30.2678 107.098 31.6353 92.5589 32.1793 77.9819C32.6956 64.1813 33.0646 50.3552 33.6556 36.5781C33.726 34.9376 33.9649 33.2331 33.9862 31.5755C59.2492 12 91.3324 1.02187 123.388 0.221867L123.904 0H138.624Z" fill="#811642"/>
<path d="M47.1124 84.0533C47.4538 94.72 46.4724 105.536 47.5412 116.158C48.066 121.376 49.073 126.935 50.2036 132.055C56.1727 159.091 69.922 184.785 89.7151 204.107C89.3482 203.39 89.1156 202.884 88.8746 202.398C88.8746 202.398 89.0879 198.308 89.1455 196.809C90.3722 165.498 92.194 134.24 93.8388 102.942C94.0351 99.2256 93.8175 94.8117 94.2527 91.1957C94.4874 89.2437 95.9914 89.2309 97.5956 88.992C101.086 88.4693 106.029 88.3648 109.453 89.2352C110.645 89.5381 111.006 89.6917 111.121 90.9803C111.671 97.0795 110.699 104.011 111.102 110.199L111.537 111.044L146.229 111.345C146.099 107.223 145.98 100.427 145.871 96.3029C145.841 95.1232 145.698 89.9861 145.907 89.7856C146.342 89.3632 147.477 89.1669 148.194 89.0304C151.42 88.4181 155.927 88.3243 159.217 88.5376C159.94 88.5845 162.152 88.7616 162.511 89.2971L173.084 199.68C194.208 177.056 206.402 147.102 209.67 116.373C210.812 105.651 210.133 94.8288 210.312 84.0555H216.286V112.747C211.955 165.331 181.062 210.677 135.923 236.759C134.835 237.389 129.265 240.689 128.516 240.64C127.618 240.582 122.317 237.188 121.158 236.465C78.3615 209.7 43.5839 162.253 41.3439 110.409C41.0239 103.004 40.8106 92.7317 41.3439 85.4315C41.378 84.9536 41.5338 84.5248 41.5658 84.0533H47.1124ZM121.992 165.013V175.147H136.072V165.013C136.072 163.936 141.623 163.887 142.677 164.595C143.046 164.845 143.202 165.291 143.275 165.705C143.699 168.096 143.4 172.036 143.531 174.622C144.164 187.202 144.843 199.799 145.468 212.365C145.54 213.826 145.555 215.298 145.66 217.024C146.406 216.529 148.196 215.068 148.196 215.068C148.126 212.849 148.062 209.318 148.028 207.029C147.671 182.526 147.076 157.948 146.731 133.446C146.669 129.071 146.884 124.687 146.632 120.318C146.317 119.654 143.957 119.337 143.215 119.255C135.251 118.394 121.615 118.054 113.807 119.281C112.804 119.439 110.914 119.59 110.886 120.841C110.871 121.525 111.383 125.171 111.526 125.926C111.584 126.225 111.56 126.436 111.878 126.543C112.409 126.722 115.149 126.537 115.919 126.515C123.036 126.313 131.951 125.69 138.957 126.285C142.558 126.592 141.476 128.544 141.617 131.305C141.747 133.839 142.174 137.598 141.839 140.064C141.771 140.572 141.632 140.864 141.126 141.071C140.416 141.363 136.269 140.651 135.108 140.589C128.828 140.252 121.557 140.19 115.368 141.325C114.556 141.474 111.488 142.074 111.144 142.647C110.957 142.961 110.918 143.511 110.888 143.885C111.091 159.172 110.558 174.5 110.462 189.751C110.411 197.99 110.489 206.234 110.507 214.473L113.03 216.32L114.942 164.832C115.923 163.827 121.651 163.834 121.992 165.013ZM136.689 190.528C131.838 188.979 126.287 188.416 121.555 190.647L121.57 222.18L122.101 222.929L129.352 227.981L136.717 223.422L136.691 190.526L136.689 190.528Z" fill="white"/>
<path d="M216.073 57.6C214.415 57.3675 212.16 56.9195 210.323 56.736L209.995 39.8912C195.821 32.0043 180.516 26.1077 164.661 22.5045C145.19 18.08 125.052 16.832 105.312 20.3349C85.3269 23.8805 65.8368 31.3109 47.456 39.6587L47.296 56.1856C47.104 56.7488 42.4277 57.3696 41.5637 57.6V36.5867C44.8 34.5515 48.2709 32.8171 51.7269 31.1765C87.136 14.3851 126.679 7.88053 165.299 16.7445C182.931 20.7915 200.429 27.5883 216.07 36.5867V57.6H216.073Z" fill="white"/>
<path d="M52.066 79.6586C51.6244 80.1472 51.1231 80.5077 50.562 80.7445C50.001 80.9792 49.4186 81.1328 48.8148 81.2053C48.2111 81.2778 47.6394 81.3141 47.0996 81.3162C45.2052 81.3226 43.3108 81.329 41.4143 81.3376V62.2165C41.4143 62.1269 41.4143 62.0352 41.4143 61.9456C41.425 61.9328 41.4314 61.9178 41.4314 61.8986C41.4314 61.8453 41.4314 61.7941 41.4314 61.7493C41.4314 61.5274 41.4314 61.3077 41.4314 61.0858C41.7108 60.9962 41.9924 60.9066 42.2719 60.817C42.7647 60.6613 43.2511 60.5077 43.7332 60.3562C43.7908 60.3392 43.8484 60.32 43.906 60.3029C45.0068 59.9594 46.1034 59.6266 47.1978 59.3002C47.5092 59.1978 47.9551 59.0869 48.5354 58.9717C49.1178 58.8565 49.7236 58.833 50.3551 58.9077C50.9866 58.9824 51.5114 59.2618 51.9338 59.7482C52.3668 60.305 52.6356 60.9557 52.7359 61.6853C52.8362 62.4149 52.8767 63.1381 52.8618 63.8485C52.8618 63.8954 52.8618 63.9424 52.8618 63.9914C52.8767 64.2837 52.8575 64.7061 52.8042 65.2586C52.7508 65.8112 52.6058 66.3978 52.3668 67.0144C52.1279 67.6309 51.7311 68.192 51.1764 68.689C52.2282 69.1136 52.913 70.1077 53.233 71.6608C53.3183 72.0853 53.3759 72.5077 53.4036 72.928C53.4314 73.3482 53.4463 73.7664 53.4506 74.1781C53.4612 75.3002 53.3887 76.2389 53.233 76.9856C53.0218 78.0736 52.6378 78.9568 52.081 79.6245C52.0746 79.6352 52.0703 79.6458 52.0639 79.6565L52.066 79.6586ZM46.0778 62.8458C46.0863 64.6058 46.0948 66.3637 46.1034 68.1237C46.1375 68.1173 46.178 68.1109 46.225 68.1024C46.6879 68.0469 47.1167 67.9552 47.5114 67.8229C47.7439 67.7418 47.9103 67.5861 48.0127 67.3514C48.1151 67.1189 48.1834 66.7498 48.2132 66.2464C48.2452 65.7216 48.2516 65.1818 48.2367 64.6272C48.2239 64.4714 48.2175 64.3136 48.2154 64.1536C48.2154 63.8656 48.1919 63.5541 48.1492 63.2213C48.1066 62.8885 47.97 62.6752 47.7375 62.5856C47.5519 62.5429 47.3151 62.5514 47.0271 62.609C46.7391 62.6688 46.4447 62.7413 46.1439 62.8266C46.1332 62.8288 46.1204 62.833 46.1098 62.8352C46.0991 62.8373 46.0863 62.8416 46.0756 62.8437L46.0778 62.8458ZM46.2399 78.1226C46.5556 78.1269 46.865 78.1162 47.17 78.0864C47.473 78.0586 47.7311 77.9904 47.9402 77.8794C48.3135 77.6448 48.5396 77.2714 48.6164 76.7616C48.6954 76.2517 48.721 75.7717 48.6932 75.3237C48.6932 75.3194 48.6932 75.313 48.6932 75.3088C48.7018 74.8586 48.7039 74.4021 48.7018 73.9434C48.7018 73.873 48.7018 73.8026 48.7018 73.7344C48.6954 73.6704 48.689 73.6064 48.6826 73.5402C48.7018 72.9984 48.6506 72.4373 48.5311 71.8634C48.4586 71.6032 48.3775 71.4197 48.2836 71.3109C48.1898 71.2042 48.1023 71.136 48.0212 71.1082C47.8932 71.057 47.7332 71.0357 47.5412 71.0485C47.3492 71.0613 47.1423 71.0826 46.9226 71.1125C46.6559 71.1509 46.3871 71.1872 46.1204 71.2256C46.1311 73.5253 46.1439 75.8272 46.1546 78.1269C46.161 78.1269 46.1652 78.1269 46.1716 78.1269C46.1951 78.1269 46.2186 78.1248 46.242 78.1226H46.2399Z" fill="white"/>
<path d="M66.9546 81.2544C65.3823 81.2587 63.8101 81.2629 62.2378 81.2672C62.1226 79.6715 62.0394 76.8341 61.9839 72.7467C61.9882 72.5504 61.9903 72.3541 61.9946 72.1557C61.9797 71.0016 61.8794 70.2933 61.6938 70.0373C61.5082 69.7792 61.1647 69.6512 60.6613 69.6512C60.3221 69.6555 59.9423 69.6811 59.5221 69.7301C59.5711 73.5787 59.6181 77.4251 59.6671 81.2736C58.0885 81.2779 56.5098 81.2821 54.9333 81.2885C54.8501 73.5915 54.769 65.8944 54.6858 58.1995C54.6965 58.1205 54.6986 57.7813 54.6922 57.1797C56.9023 56.5867 59.1167 56.0192 61.3375 55.4816C61.7791 55.3749 62.2655 55.2896 62.7946 55.2277C63.3258 55.1659 63.8719 55.2469 64.4351 55.4752C65.3055 55.8613 65.8837 56.6805 66.1695 57.9243C66.3701 58.944 66.4789 59.9189 66.4917 60.8448C66.5087 61.1563 66.5237 61.4656 66.5407 61.7771C66.5535 62.7627 66.4575 63.7845 66.2506 64.8341C66.0309 65.8389 65.5786 66.6197 64.8959 67.1787C65.3781 67.4048 65.7834 67.9104 66.1119 68.704C66.5045 69.9435 66.7221 72.1621 66.7669 75.3387C66.7669 75.6587 66.7647 75.9765 66.7626 76.2965C66.7946 78.5088 66.8586 80.1621 66.9546 81.2565V81.2544ZM60.5098 65.8347C60.8127 65.7899 61.0687 65.7109 61.2778 65.6C61.6938 65.3099 61.8922 64.2432 61.8666 62.4064C61.841 60.5355 61.6597 59.552 61.3205 59.4624C61.073 59.3643 60.6485 59.3771 60.0426 59.5051C59.8335 59.5541 59.6245 59.6053 59.4154 59.6565C59.441 61.7664 59.4687 63.8784 59.4943 65.9883C59.8314 65.9371 60.1706 65.8859 60.5098 65.8347Z" fill="white"/>
<path d="M77.939 81.2266C74.7475 81.233 71.5539 81.2416 68.3625 81.2501C68.1214 64.1941 67.9977 55.0933 67.9934 53.9477C71.1038 53.2714 74.2227 52.6464 77.3502 52.0746C77.3715 53.6277 77.395 55.1829 77.4163 56.736C75.8611 56.9749 74.3081 57.2266 72.7571 57.4869C72.7913 59.825 72.8233 62.1653 72.8574 64.5034C74.3337 64.3264 75.8121 64.1578 77.2905 63.9957C77.3118 65.521 77.3331 67.0464 77.3545 68.5717C75.8761 68.6912 74.3977 68.817 72.9214 68.9472C72.9577 71.537 72.9961 74.129 73.0323 76.7189C74.6451 76.6634 76.2579 76.6122 77.8729 76.561C77.8942 78.1162 77.9177 79.6714 77.939 81.2266Z" fill="white"/>
<path d="M87.025 81.2096C85.4592 81.2117 83.8912 81.216 82.3253 81.2181C82.1461 68.0405 82.0373 59.6608 82.001 56.0811C81.0026 56.2197 80.0042 56.3648 79.0058 56.5141C78.9845 54.9397 78.961 53.3632 78.9397 51.7888C82.4682 51.1637 86.0053 50.6069 89.5509 50.1163C89.5722 51.7803 89.5914 53.4443 89.6128 55.1083C88.6528 55.2213 87.6928 55.3365 86.7328 55.456C86.9397 71.6139 87.04 80.1984 87.0293 81.2117L87.025 81.2096Z" fill="white"/>
<path d="M94.6922 75.7248C94.5301 77.5531 94.3679 79.3771 94.2079 81.1989C92.6655 81.2011 91.121 81.2032 89.5786 81.2053C89.6213 80.8171 89.6639 80.4288 89.7045 80.0427C89.7151 79.9595 89.7258 79.8763 89.7365 79.7931C89.809 79.0869 89.8837 78.3851 89.9562 77.6896C90.1674 75.744 90.3786 73.792 90.5898 71.8357C90.6112 71.6821 90.6261 71.5285 90.6367 71.3749C91.3514 64.7936 92.0682 58.1461 92.7893 51.4389C92.8 51.2981 92.8149 51.1552 92.8383 51.0101C92.8597 50.8523 92.8767 50.7093 92.8874 50.5813C92.9194 50.2741 92.9514 49.9691 92.9834 49.6619C94.9503 49.4144 96.9173 49.1861 98.8885 48.9792C98.9333 49.2757 98.9781 49.5744 99.0207 49.8709C99.1359 50.7648 99.2575 51.6523 99.3834 52.5333C99.537 53.7152 99.697 54.8885 99.8613 56.0576C100.038 57.3419 100.211 58.6347 100.378 59.936C101.242 66.3616 102.103 72.8363 102.959 79.3536C102.982 79.4709 103.002 79.5925 103.014 79.7248C103.014 79.7397 103.014 79.7547 103.014 79.7675C103.027 79.84 103.034 79.9061 103.034 79.9637C103.078 80.3712 103.123 80.7765 103.168 81.184C101.677 81.184 100.188 81.1883 98.6965 81.1883C98.6581 80.8789 98.6197 80.5717 98.5813 80.2645C98.4021 78.7307 98.2207 77.1925 98.0415 75.6501C96.9258 75.6714 95.8079 75.6971 94.6922 75.7205V75.7248ZM95.2426 69.6512C95.2426 69.6789 95.2362 69.7088 95.2255 69.7365C95.1935 70.1205 95.1637 70.5131 95.1317 70.9099C95.9082 70.88 96.6847 70.8501 97.4613 70.8203C97.4613 70.7776 97.4549 70.7413 97.4421 70.7136C97.2608 69.2203 97.0815 67.7291 96.9002 66.24C96.8618 65.8923 96.8213 65.5445 96.7829 65.1989C96.6272 63.9104 96.4735 62.6304 96.3178 61.3589C96.2538 60.8512 96.1877 60.3349 96.1237 59.8144C95.8293 63.104 95.5349 66.3851 95.2405 69.6512H95.2426Z" fill="white"/>
<path d="M109.35 81.5126C105.653 81.4571 103.776 78.0352 103.716 71.247C103.663 64.9707 103.622 61.1478 103.601 59.7803C103.592 58.848 103.597 57.9158 103.612 56.9814C103.678 51.1062 105.736 47.9531 109.796 47.6651C112.431 47.488 114.146 48.6102 114.942 50.9888C115.447 52.5184 115.706 54.6048 115.718 57.2459C115.71 57.9926 115.708 58.9483 115.714 60.111C114.212 60.1558 112.712 60.207 111.211 60.2646L111.185 56.0875C111.176 54.7392 111.029 53.8283 110.741 53.3547C110.526 53.071 110.223 52.9387 109.832 52.96C109.596 52.9728 109.376 53.0603 109.178 53.2203C108.659 53.5766 108.407 55.0059 108.427 57.5104C108.452 61.9904 108.478 66.4683 108.503 70.9483C108.508 71.5819 108.531 72.2368 108.57 72.9131C108.576 73.8859 108.706 74.767 108.958 75.5606C109.16 76.0299 109.491 76.2624 109.95 76.2582C110.419 76.2539 110.76 76.0128 110.967 75.5371C111.339 74.7328 111.518 73.344 111.507 71.3728C111.499 69.9798 111.49 68.5867 111.482 67.1936C110.827 67.2107 110.174 67.2299 109.519 67.247C109.508 65.696 109.498 64.1472 109.487 62.5963C111.565 62.5152 113.643 62.4491 115.723 62.3936C115.752 68.6528 115.78 74.912 115.81 81.1734C114.976 81.1734 114.144 81.1734 113.31 81.1734C113.201 80.6315 113.092 80.0896 112.983 79.5456C112.028 80.7979 110.816 81.4486 109.35 81.5083V81.5126Z" fill="white"/>
<path d="M129.736 81.1712C128.58 81.1712 127.424 81.1712 126.268 81.1712C124.695 75.4368 123.115 69.7109 121.523 64.0128C121.64 67.9893 121.7 70.6709 121.702 72.0512C121.687 75.2939 121.683 78.336 121.689 81.1733C120.205 81.1733 118.72 81.1733 117.235 81.1733C117.15 60.768 117.116 49.5936 117.133 47.648C118.398 47.5968 119.663 47.5541 120.928 47.52C122.487 52.9408 124.025 58.4021 125.544 63.8848C125.421 59.6885 125.359 56.9728 125.357 55.7397C125.365 52.64 125.367 49.8709 125.365 47.4347C126.833 47.4176 128.301 47.4112 129.768 47.4176C129.758 58.6688 129.747 69.9221 129.739 81.1733L129.736 81.1712Z" fill="white"/>
<path d="M140.74 81.1755C137.547 81.1755 134.355 81.1733 131.162 81.1733C131.181 60.0896 131.196 48.8405 131.209 47.4261C134.374 47.4539 137.54 47.5328 140.706 47.6672C140.698 49.4528 140.691 51.2384 140.683 53.024C139.113 52.9685 137.542 52.9237 135.97 52.8896C135.964 55.6736 135.955 58.4597 135.949 61.2437C137.438 61.2672 138.927 61.2971 140.416 61.3333C140.41 63.0891 140.401 64.847 140.395 66.6027C138.908 66.575 137.421 66.5536 135.936 66.5366C135.927 69.6214 135.921 72.7061 135.913 75.7931C137.53 75.7995 139.147 75.8102 140.764 75.8208C140.755 77.6064 140.749 79.392 140.74 81.1776V81.1755Z" fill="white"/>
<path d="M162.238 81.1968C160.665 81.1946 159.093 81.1925 157.519 81.1904C157.444 79.2042 157.431 75.6586 157.48 70.56C157.489 70.3146 157.497 70.0714 157.506 69.8261C157.521 68.3861 157.438 67.488 157.259 67.1338C157.079 66.7797 156.736 66.5557 156.23 66.4597C155.889 66.4 155.507 66.3616 155.083 66.3445C155.038 71.2917 154.993 76.241 154.948 81.1882C153.369 81.1882 151.791 81.184 150.212 81.184C150.291 70.6666 150.37 60.1493 150.449 49.632C150.462 49.5296 150.47 49.0688 150.477 48.2453C152.74 48.4181 155.004 48.6186 157.265 48.8448C157.715 48.8896 158.208 48.9813 158.745 49.1157C159.283 49.2522 159.833 49.5658 160.397 50.0565C161.265 50.8522 161.826 52.0298 162.08 53.5893C162.255 54.8565 162.336 56.0362 162.325 57.1264C162.334 57.4954 162.34 57.8666 162.349 58.2357C162.336 59.3984 162.21 60.5717 161.973 61.7621C161.724 62.8949 161.25 63.7226 160.548 64.2517C161.028 64.6229 161.421 65.3098 161.728 66.3061C162.088 67.8485 162.248 70.4832 162.206 74.225C162.195 74.6005 162.187 74.976 162.176 75.3514C162.148 77.9605 162.167 79.9082 162.236 81.1989L162.238 81.1968ZM156.171 61.5936C156.478 61.6128 156.738 61.5765 156.951 61.489C157.378 61.2266 157.604 59.9509 157.625 57.6618C157.649 55.328 157.489 54.0458 157.148 53.8154C156.9 53.6064 156.469 53.4762 155.855 53.425C155.641 53.4144 155.428 53.4058 155.217 53.3952C155.193 56.1088 155.168 58.8224 155.144 61.536C155.486 61.5552 155.829 61.5744 156.171 61.5957V61.5936Z" fill="white"/>
<path d="M169.611 81.5787C166.044 81.5893 164.104 79.2811 163.793 74.6261C163.757 73.7515 163.742 72.8832 163.752 72.0235C163.838 64.5419 163.923 57.0603 164.008 49.5765C165.602 49.7749 167.196 49.9861 168.789 50.2123C168.593 66.0544 168.508 74.2784 168.535 74.8864C168.638 76.064 169.03 76.6592 169.711 76.6741C170.005 76.6805 170.253 76.6187 170.453 76.4864C170.773 76.2752 170.969 75.6736 171.04 74.6795C171.083 74.0245 171.204 65.9989 171.405 50.5963C172.99 50.8352 174.573 51.0891 176.153 51.3557C176.057 58.7435 175.964 66.1291 175.868 73.5147C175.859 74.1525 175.808 74.8629 175.714 75.6459C175.236 79.5755 173.203 81.5659 169.613 81.5787H169.611Z" fill="white"/>
<path d="M182.726 81.521C179.029 81.504 177.224 78.4 177.31 72.2133C177.389 66.5237 177.431 63.0592 177.436 61.8176C177.446 60.9728 177.47 60.1301 177.506 59.2874C177.696 53.9562 179.804 51.6373 183.81 52.448C186.408 52.9706 188.077 54.3466 188.819 56.4736C189.293 57.8432 189.512 59.5925 189.483 61.745C189.461 62.3509 189.446 63.1296 189.431 64.0789C187.947 63.8741 186.46 63.6757 184.971 63.488C184.988 62.3061 185.005 61.1242 185.022 59.9424C185.039 58.7989 184.909 57.9968 184.633 57.5317C184.427 57.2437 184.13 57.0666 183.744 57.0026C183.509 56.9642 183.292 56.992 183.091 57.0858C182.571 57.28 182.295 58.4704 182.266 60.6506C182.204 64.5461 182.142 68.4394 182.082 72.3349C182.074 72.8853 182.082 73.457 182.11 74.048C182.097 74.8928 182.21 75.6672 182.447 76.3669C182.641 76.7829 182.965 76.9962 183.424 77.0112C183.893 77.0261 184.237 76.8341 184.452 76.4373C184.836 75.7696 185.041 74.6048 185.067 72.9365C185.084 71.7568 185.101 70.5749 185.118 69.3952C184.467 69.3397 183.816 69.2842 183.166 69.2288C183.185 67.8933 183.204 66.5557 183.223 65.2202C185.286 65.4485 187.347 65.6896 189.408 65.9434C189.335 71.0464 189.263 76.1493 189.192 81.2544C188.358 81.2522 187.526 81.2501 186.692 81.248C186.594 80.7957 186.494 80.3413 186.396 79.8869C185.419 80.9194 184.196 81.4741 182.728 81.5253L182.726 81.521Z" fill="white"/>
<path d="M201.303 79.5691C200.851 80.0597 200.343 80.4309 199.778 80.6741C199.213 80.9173 198.626 81.0795 198.02 81.1563C197.414 81.2331 196.842 81.2715 196.303 81.2693C194.408 81.2629 192.512 81.2587 190.617 81.2544C190.737 72.7637 190.854 64.2709 190.974 55.7803C190.974 55.6608 190.978 55.5392 190.978 55.4197C190.989 55.4112 190.995 55.3941 190.997 55.3685C190.997 55.296 190.997 55.2299 190.999 55.1701C191.004 54.8757 191.008 54.5813 191.012 54.2869C191.298 54.3509 191.584 54.4149 191.87 54.4789C192.371 54.592 192.866 54.7072 193.354 54.8203C193.412 54.8331 193.47 54.848 193.529 54.8608C194.647 55.1211 195.759 55.3877 196.862 55.6587C197.175 55.7248 197.625 55.8613 198.21 56.0704C198.794 56.2795 199.402 56.6016 200.032 57.0325C200.661 57.4635 201.18 58.0416 201.589 58.7648C202.009 59.5669 202.263 60.3584 202.349 61.1499C202.432 61.9435 202.46 62.6965 202.43 63.4133C202.43 63.4624 202.43 63.5115 202.43 63.5584C202.438 63.8635 202.41 64.2859 202.346 64.832C202.282 65.3781 202.125 65.9264 201.873 66.4832C201.621 67.04 201.214 67.4965 200.65 67.8549C201.692 68.6315 202.355 69.8411 202.641 71.4859C202.718 71.936 202.765 72.3755 202.784 72.8064C202.803 73.2373 202.809 73.6619 202.805 74.08C202.792 75.2171 202.701 76.1557 202.53 76.9003C202.295 77.9861 201.894 78.8629 201.322 79.5371C201.316 79.5477 201.31 79.5584 201.305 79.5691H201.303ZM195.661 59.2043C195.633 61.3056 195.605 63.4069 195.577 65.5083C195.612 65.5125 195.654 65.5189 195.699 65.5253C196.166 65.6299 196.597 65.6747 196.994 65.6683C197.229 65.6576 197.399 65.5381 197.506 65.312C197.615 65.0837 197.689 64.6912 197.732 64.1323C197.775 63.5499 197.794 62.9419 197.79 62.3061C197.781 62.1227 197.777 61.9413 197.779 61.76C197.783 61.4315 197.766 61.0688 197.732 60.6699C197.696 60.2709 197.564 59.9616 197.333 59.744C197.148 59.6032 196.911 59.4923 196.621 59.4155C196.33 59.3387 196.034 59.2725 195.731 59.2213C195.718 59.2192 195.708 59.2171 195.697 59.2149C195.684 59.2128 195.673 59.2107 195.663 59.2085L195.661 59.2043ZM195.507 77.4613C195.823 77.4955 196.134 77.5104 196.439 77.5061C196.744 77.4997 197.002 77.4443 197.216 77.3397C197.593 77.1051 197.828 76.7061 197.918 76.1408C198.007 75.5755 198.041 75.04 198.026 74.5301C198.026 74.5237 198.026 74.5195 198.026 74.5131C198.044 74.0075 198.056 73.4955 198.063 72.9771C198.063 72.8981 198.063 72.8192 198.065 72.7403C198.061 72.6656 198.054 72.5931 198.05 72.5184C198.08 71.9125 198.041 71.2725 197.933 70.5941C197.866 70.2827 197.788 70.0523 197.696 69.9072C197.604 69.76 197.517 69.6597 197.436 69.6064C197.308 69.5125 197.148 69.4443 196.956 69.4059C196.764 69.3675 196.554 69.3333 196.335 69.3077C196.066 69.2779 195.797 69.2459 195.528 69.216C195.492 71.9637 195.456 74.7115 195.42 77.4592C195.426 77.4592 195.432 77.4592 195.437 77.4592C195.46 77.4592 195.484 77.4592 195.507 77.4613Z" fill="white"/>
<path d="M211.861 81.3205C210.276 81.3141 208.693 81.3098 207.108 81.3034C207.151 76.0298 207.187 73.1349 207.215 72.6186C207.217 72.3136 207.155 71.9701 207.031 71.5861C206.908 71.2469 205.538 66.848 202.982 57.2352C204.493 57.6426 205.999 58.0608 207.503 58.4917C208.198 61.088 208.898 63.6224 209.6 66.0928C210.257 63.8976 210.912 61.7621 211.561 59.6885C213.06 60.1429 214.556 60.6101 216.049 61.0901C215.678 62.0629 215.305 63.0549 214.929 64.0682C213.681 67.5498 212.915 69.7728 212.659 70.4149C212.143 71.8357 211.883 72.704 211.881 72.9706C211.889 73.5104 211.891 74.5984 211.883 76.2389C211.874 78.3104 211.861 79.4517 211.851 79.6629C211.849 80.2197 211.851 80.7722 211.861 81.3184V81.3205Z" fill="white"/>
<path d="M119.134 42.5856C118.858 42.9504 118.545 43.2299 118.186 43.4219C117.828 43.6139 117.455 43.7483 117.064 43.8251C116.674 43.9019 116.303 43.9509 115.951 43.9744C114.718 44.0533 113.485 44.1408 112.252 44.2368C111.829 38.8608 111.405 33.4848 110.982 28.1067C110.976 28.0299 110.969 27.9552 110.965 27.8784C110.972 27.8699 110.976 27.8592 110.974 27.8421C110.969 27.7973 110.967 27.7547 110.963 27.7163C110.948 27.5307 110.933 27.3429 110.918 27.1573C111.119 27.1424 111.317 27.1253 111.518 27.1104C111.868 27.0827 112.215 27.0571 112.559 27.0336C112.599 27.0315 112.64 27.0272 112.68 27.0251C113.463 26.9696 114.244 26.9163 115.018 26.8672C115.238 26.8459 115.556 26.8437 115.97 26.8608C116.384 26.8779 116.819 26.9675 117.276 27.1296C117.73 27.2917 118.116 27.584 118.43 28.0043C118.754 28.4779 118.963 28.9856 119.053 29.5275C119.144 30.0693 119.193 30.5963 119.202 31.1083C119.202 31.1424 119.206 31.1765 119.206 31.2107C119.225 31.424 119.223 31.7291 119.202 32.1237C119.181 32.5184 119.097 32.9301 118.95 33.3568C118.803 33.7856 118.547 34.1611 118.182 34.4853C118.918 34.8821 119.415 35.6501 119.673 36.7851C119.744 37.0965 119.793 37.4037 119.823 37.7067C119.853 38.0117 119.874 38.3125 119.889 38.6091C119.927 39.4176 119.904 40.0917 119.821 40.6315C119.71 41.4165 119.484 42.0587 119.138 42.5579C119.134 42.5664 119.132 42.5728 119.127 42.5813L119.134 42.5856ZM114.381 29.4464C114.472 30.8331 114.564 32.2219 114.656 33.6085C114.679 33.6085 114.707 33.6043 114.739 33.6021C115.059 33.6021 115.353 33.5744 115.62 33.5104C115.778 33.4699 115.887 33.3653 115.949 33.1968C116.01 33.0283 116.042 32.7531 116.042 32.3712C116.042 31.9744 116.025 31.5605 115.991 31.1339C115.976 31.0123 115.964 30.8907 115.957 30.7691C115.944 30.5472 115.914 30.3061 115.872 30.0459C115.827 29.7856 115.72 29.6021 115.552 29.4976C115.417 29.4379 115.249 29.408 115.046 29.408C114.844 29.408 114.637 29.4208 114.428 29.4421C114.419 29.4421 114.41 29.4421 114.404 29.4421C114.396 29.4421 114.387 29.4421 114.381 29.4421V29.4464ZM115.236 41.4933C115.445 41.4933 115.65 41.4827 115.85 41.4592C116.051 41.4357 116.217 41.3803 116.352 41.2949C116.589 41.1115 116.723 40.8277 116.755 40.4373C116.787 40.0491 116.785 39.6843 116.749 39.3408C116.749 39.3365 116.749 39.3323 116.749 39.3301C116.736 38.9867 116.719 38.6389 116.7 38.2891C116.697 38.2357 116.693 38.1824 116.691 38.1291C116.685 38.08 116.678 38.0309 116.67 37.9819C116.661 37.5701 116.604 37.1413 116.499 36.6955C116.439 36.4928 116.375 36.3477 116.307 36.2603C116.239 36.1728 116.175 36.1152 116.119 36.0875C116.03 36.0405 115.919 36.0128 115.789 36.0107C115.658 36.0064 115.518 36.0107 115.368 36.0192C115.187 36.0299 115.006 36.0427 114.824 36.0555C114.944 37.8688 115.065 39.6843 115.185 41.4976C115.189 41.4976 115.193 41.4976 115.196 41.4976C115.21 41.4976 115.225 41.4976 115.242 41.4955L115.236 41.4933Z" fill="white"/>
<path d="M128.889 43.4859C127.863 43.4987 126.839 43.5157 125.813 43.5413C125.726 42.4896 125.651 40.6101 125.585 37.9072C125.585 37.7771 125.585 37.6469 125.587 37.5168C125.568 36.7531 125.495 36.2816 125.369 36.1003C125.244 35.9189 125.009 35.8144 124.67 35.7867C124.439 35.7696 124.183 35.7653 123.9 35.7739C123.979 38.3765 124.06 40.9813 124.138 43.584C123.11 43.616 122.082 43.6544 121.054 43.6971C120.819 38.2336 120.582 32.768 120.348 27.3045C120.354 27.2512 120.348 27.0101 120.328 26.5835C121.89 26.5173 123.452 26.4619 125.013 26.4235C125.325 26.4149 125.666 26.4299 126.039 26.4619C126.413 26.496 126.797 26.624 127.193 26.8459C127.804 27.2107 128.207 27.8037 128.403 28.6272C128.542 29.2971 128.614 29.9264 128.621 30.5152C128.631 30.7136 128.642 30.912 128.653 31.1104C128.661 31.7376 128.591 32.3755 128.448 33.0261C128.296 33.6469 127.989 34.1141 127.526 34.4256C127.855 34.6027 128.13 34.9547 128.35 35.4795C128.614 36.2944 128.755 37.7088 128.778 39.7248C128.778 39.9275 128.776 40.1301 128.774 40.3328C128.791 41.7387 128.83 42.7883 128.892 43.4837L128.889 43.4859ZM124.527 33.2245C124.734 33.2181 124.909 33.1883 125.052 33.1307C125.335 32.9707 125.461 32.2837 125.431 31.0699C125.401 29.8325 125.267 29.1627 125.03 29.0624C124.857 28.9685 124.561 28.9259 124.141 28.9387C123.996 28.9472 123.848 28.9557 123.703 28.9621C123.746 30.3893 123.791 31.8187 123.836 33.2459C124.066 33.2395 124.299 33.2331 124.529 33.2245H124.527Z" fill="white"/>
<path d="M136.049 43.5072C133.969 43.471 131.887 43.4624 129.807 43.4774C129.721 32.7766 129.681 27.0656 129.685 26.3467C131.865 26.3296 134.044 26.3403 136.224 26.3766C136.209 27.2896 136.194 28.2027 136.177 29.1158C135.104 29.0987 134.033 29.0859 132.96 29.0816C132.953 30.4982 132.947 31.9147 132.941 33.3334C133.943 33.3376 134.948 33.3483 135.951 33.3654C135.936 34.2635 135.921 35.1595 135.908 36.0576C134.916 36.0406 133.922 36.032 132.93 36.0278C132.924 37.5979 132.915 39.168 132.909 40.7382C133.973 40.7424 135.036 40.7552 136.098 40.7723C136.083 41.6854 136.066 42.5984 136.051 43.5115L136.049 43.5072Z" fill="white"/>
<path d="M140.22 43.808C139.654 43.7888 139.144 43.6885 138.69 43.5093C137.546 43.072 136.86 41.9797 136.629 40.2176C136.565 39.5584 136.537 38.9099 136.55 38.2677C136.565 37.8773 136.578 37.3931 136.589 36.8128C137.602 36.832 138.615 36.8576 139.629 36.8875C139.607 37.6085 139.584 38.3296 139.562 39.0528C139.537 39.9083 139.62 40.4907 139.81 40.8021C139.912 40.9813 140.096 41.0752 140.358 41.0837C140.659 41.0944 140.868 40.9941 140.983 40.7851C141.128 40.4224 141.209 40.0341 141.224 39.6139C141.254 38.8053 141.128 38.1227 140.842 37.5701C140.616 37.1179 140.262 36.6357 139.782 36.1237C139.462 35.7781 139.277 35.584 139.232 35.5456C139.01 35.3088 138.786 35.0741 138.564 34.8395C137.401 33.6021 136.772 32.3264 136.7 31.0037C136.695 30.8053 136.695 30.6069 136.7 30.4085C136.725 28.9813 137.062 27.9275 137.713 27.2555C138.372 26.56 139.422 26.2293 140.853 26.2784C142.466 26.3339 143.507 26.9056 143.97 27.9744C144.273 28.6699 144.424 29.4485 144.431 30.3125C144.437 30.8395 144.416 31.6011 144.369 32.5931C143.358 32.544 142.349 32.5013 141.337 32.4629C141.357 32.0747 141.374 31.6843 141.393 31.296C141.395 31.0123 141.397 30.7307 141.399 30.4469C141.433 29.5083 141.201 29.0283 140.697 29.0112C140.115 28.992 139.81 29.3952 139.784 30.2208C139.776 30.4875 139.797 30.7371 139.846 30.9675C139.944 31.3984 140.298 31.9339 140.9 32.5739C140.909 32.5739 140.917 32.5803 140.93 32.5931C140.941 32.6059 141.399 33.1157 142.289 34.1291C142.942 34.8672 143.432 35.6075 143.761 36.3499C144.153 37.2096 144.32 38.1973 144.266 39.3109C144.23 40.0427 144.119 40.7104 143.936 41.3141C143.714 42.0523 143.398 42.6112 142.991 42.9909C142.357 43.5819 141.436 43.8528 140.222 43.8101L140.22 43.808Z" fill="white"/>
<path d="M149.387 44.096C148.367 44.0235 147.347 43.9573 146.327 43.8976C146.769 36.3712 147.053 31.5861 147.181 29.5424C146.494 29.5019 145.807 29.4635 145.12 29.4293C145.167 28.5141 145.214 27.5989 145.259 26.6837C147.714 26.8096 150.167 26.9675 152.619 27.1595C152.546 28.0725 152.476 28.9877 152.403 29.9008C151.746 29.8496 151.087 29.8005 150.428 29.7536C149.788 38.752 149.44 43.5328 149.384 44.096H149.387Z" fill="white"/>
</svg>
