<svg width="256" height="256" viewBox="0 0 256 256" fill="none" xmlns="http://www.w3.org/2000/svg">
<path d="M124.06 253.61C94.6307 239.456 71.4843 221.76 55.2669 201.007C36.2487 176.676 29.829 158.679 29.829 129.686C29.829 122.072 29.8745 112.376 29.9245 101.147C30.0473 75.1322 30.1973 41.395 29.829 19.128L29.729 12.9881L35.685 11.4964C65.0692 4.14227 95.8356 0.412903 127.12 0.412903C158.405 0.412903 190.049 4.21504 220.179 11.7102L226.035 13.1655L226.275 133.692C226.162 149.228 222.947 163.332 216.46 176.812C210.758 188.65 202.424 200.111 190.976 211.854C173.24 230.042 155.186 242.553 130.603 253.687L127.316 255.174L124.065 253.61H124.06Z" fill="#FFF000"/>
<path d="M218.31 20.5788C159.81 6.02516 96.1765 5.69315 37.5581 20.3605C38.0855 52.1238 37.5581 104.053 37.5581 129.686C37.5581 155.318 42.8821 172.614 61.3546 196.246C76.9811 216.243 99.5182 233.23 127.407 246.638C154.381 234.422 171.122 221.128 185.434 206.451C205.657 185.708 218.314 163.473 218.537 133.633L218.31 20.5788ZM178.982 200.152C160.242 219.372 142.633 229.528 127.534 236.646C106.052 225.862 88.4838 213.082 75.1443 198.551H180.524C180.019 199.084 179.51 199.62 178.987 200.152H178.982ZM94.9671 168.375L94.8989 185.312H100.55V180.951H109.371V189.028L105.824 193.794H89.8296L86.4288 189.069L86.3651 164.487L89.875 159.889H105.824L109.371 164.655V172.732H100.55V168.371H94.9671V168.375ZM114.172 189.046V164.487L117.682 159.893H133.631L137.177 164.66V189.023L133.631 193.79H117.645L114.172 189.042V189.046ZM142.574 168.375V159.893H164.238L167.784 164.66V177.985L164.634 182.179L165.102 185.312H167.784V193.794H142.574V185.312H144.779V168.375H142.574ZM206.484 155.891H49.4564C47.4059 148.141 46.583 139.8 46.583 129.686C46.583 122.113 46.6284 112.43 46.6784 101.224C46.7876 77.8246 46.9194 50.6548 46.6784 28.8243C72.63 22.9028 99.6546 19.9011 127.116 19.9011C154.577 19.9011 182.601 22.9847 209.303 29.0745L209.517 133.61C209.458 141.392 208.467 148.764 206.48 155.891H206.484Z" fill="black"/>
<path d="M122.706 185.312H128.357V168.375H122.774L122.706 185.312Z" fill="black"/>
<path d="M156.223 185.312L155.836 182.715H153.39V185.312H154.731H156.223Z" fill="black"/>
<path d="M158.964 168.375H153.39V174.265H158.964V168.375Z" fill="black"/>
<path d="M104.529 162.472L106.793 165.515V170.158H103.128V165.797H92.3984L92.3074 187.891H103.124V183.529H106.788V188.173L104.524 191.216H91.1435L88.9976 188.237L88.9384 165.36L91.1435 162.472H104.524M104.988 161.563H90.698L90.4252 161.922L88.2201 164.81L88.0337 165.055V165.365L88.0928 188.241V188.532L88.2656 188.769L90.4115 191.748L90.6843 192.125H104.988L105.26 191.757L107.525 188.714L107.707 188.473V182.62H102.223V186.981H93.2258L93.3077 166.706H102.223V171.068H107.707V165.215L107.525 164.974L105.26 161.931L104.988 161.563Z" fill="#1D1D1B"/>
<path d="M132.335 162.472L134.599 165.515V188.173L132.335 191.216H118.955L116.75 188.205V165.36L118.955 162.472H132.335ZM120.118 187.891H130.935V165.797H120.205L120.114 187.891M132.794 161.563H118.504L118.232 161.922L116.027 164.81L115.84 165.055V188.505L116.018 188.746L118.223 191.757L118.495 192.13H132.794L133.067 191.761L135.331 188.719L135.513 188.478V165.219L135.331 164.978L133.067 161.935L132.794 161.567V161.563ZM121.11 166.706H130.025V186.981H121.028L121.11 166.706Z" fill="#1D1D1B"/>
<path d="M162.942 162.472L165.207 165.515V177.126L162.942 180.137H161.719L162.883 187.886H165.207V191.211H157.309V187.886H159.219L158.055 180.137H150.812V187.886H153.017V191.211H145.147V187.886H147.352V165.792H145.147V162.468H162.938M150.812 176.844H161.542V165.797H150.812V176.844ZM163.397 161.563H144.238V166.706H146.443V186.981H144.238V192.125H153.927V186.981H151.722V181.051H157.273L158.164 186.981H156.404V192.125H166.12V186.981H163.67L162.779 181.051H163.397L163.67 180.687L165.934 177.676L166.116 177.435V165.219L165.934 164.978L163.67 161.935L163.397 161.567V161.563ZM151.722 166.706H160.633V175.934H151.722V166.706Z" fill="#1D1D1B"/>
<path d="M121.678 44.7014C112.017 36.8789 93.9351 41.4951 84.8921 48.6036C81.0366 51.6326 76.9356 55.7122 77.1266 60.8514C77.1448 61.4017 76.7856 62.5433 77.5767 62.4341C77.6949 54.9799 87.6563 48.3899 93.9578 45.843C103.06 42.1682 119.264 40.7083 126.479 48.7674C131.63 54.5251 129.594 71.562 121.901 73.7951C119.878 74.3818 122.819 71.562 123.033 71.2891C125.042 68.724 126.997 65.927 127.552 62.6206C127.629 62.1703 127.952 60.524 127.143 60.6195C126.743 63.0845 125.161 65.4495 123.86 67.5734C119.05 75.4142 112.23 83.0548 103.951 86.9934C110.425 80.7717 119.723 73.7723 123.438 65.3312C133.267 42.9778 102.319 46.507 90.1478 52.0419C85.0375 54.366 75.3034 60.001 82.1232 66.0771C80.9229 60.2465 88.3883 55.1255 93.0485 53.1244C98.7999 50.6548 113.026 48.2443 118.391 51.4143C119.218 51.9055 119.364 52.756 119.496 52.8333C119.818 53.0198 122.033 51.7736 123.169 54.3751C123.824 55.8805 123.124 57.4814 122.392 58.8276C121.16 61.0834 111.467 69.1152 109.08 69.6154C107.311 69.9884 104.851 69.5427 104.41 67.446C108.129 69.5154 111.294 66.5592 113.735 63.8122C121.905 54.6025 111.853 53.5473 104.238 54.3114C99.3909 54.798 91.4527 57.8588 87.6154 60.8787C86.1105 62.0612 84.3965 63.5029 84.8602 65.6223L87.5836 65.1675C87.67 67.5279 84.2146 68.4875 82.0323 68.2419C77.3766 67.7235 74.0395 63.6803 74.4078 59.0277C75.558 44.5832 105.492 29.6157 117.368 38.3297C118.327 39.0346 122.628 43.5144 121.683 44.6969L121.678 44.7014ZM118.541 54.6343L118.946 52.8879C116.213 54.3478 116.527 56.9674 119.855 56.9765C120.432 54.9436 118.914 55.1073 118.536 54.6297L118.541 54.6343Z" fill="black"/>
<path d="M114.863 100.637C115.276 101.015 117.486 99.3776 118.004 99.0092C123.647 95.0388 130.144 89.9769 135.536 85.6199C142.606 79.903 153.936 70.8616 150.326 60.6195C153.317 60.5149 154.263 65.3358 154.408 67.6734C155.913 91.5323 105.651 92.7102 108.007 121.849C108.079 122.732 108.198 123.25 107.361 123.823C101.923 117.692 106.015 109.752 109.671 103.857C114.976 95.3117 122.828 87.1799 127.007 77.9929C143.974 40.6583 97.0767 13.3884 76.2991 49.0994L72.8119 59.7008C71.0615 57.9543 71.4207 52.4922 71.7162 49.9771C73.1984 37.3337 83.8509 27.3371 96.4539 26.5094C116.022 25.2223 128.934 36.2558 131.63 55.4393C134.263 74.1953 123.433 85.5471 114.863 100.633V100.637Z" fill="black"/>
<path d="M96.6766 141.574C99.5455 146.709 115.449 150.743 121.046 150.625C132.762 150.374 142.533 140.323 146.907 130.199C147.83 128.066 148.407 124.91 149.307 123.05C149.621 122.404 149.662 122.099 150.548 122.477C152.44 123.287 150.812 132.719 150.762 134.506C150.662 137.981 150.735 140.81 152.203 144.016C152.981 145.722 155.35 148.16 155.777 149.538C155.991 150.229 155.736 150.274 155.122 150.197C152.726 149.906 150.353 148.769 148.503 147.259C147.416 146.368 145.002 142.92 144.197 142.925C128.093 155.559 101.487 154.108 88.502 137.69C76.5764 122.609 87.1835 108.055 94.7671 94.8614C97.9724 89.2901 102.792 81.6586 96.2356 76.2874C90.3888 71.4938 84.1782 76.1373 78.7179 78.8206C78.1905 79.0798 77.5994 79.4209 77.5858 78.5841C77.563 77.2334 82.9279 72.4989 84.3283 71.6939C94.6307 65.7496 105.461 72.3124 103.828 84.3783C102.114 97.0263 85.7286 104.99 85.2967 118.625C85.0648 126.002 90.3706 137.781 96.6675 141.574C96.4084 141.11 96.0674 140.842 96.2174 140.21L98.8726 140.137L98.9363 138.39L95.7673 139.104C87.5518 131.982 86.7288 120.162 90.2933 110.407C92.2665 105.004 97.2177 97.2992 103.965 99.032C104.97 102.843 102.86 101.865 100.759 102.689C94.2715 105.235 91.2254 114.895 90.7616 121.335C90.7161 121.954 90.3706 124.146 91.2072 124.283C91.5027 118.361 93.8533 108.778 100.182 106.654C101.187 106.318 103.483 105.504 104.197 106.536L103.906 108.787C98.2588 108.81 95.3763 115.027 94.2488 119.821C93.7623 121.89 92.7848 126.925 93.3759 128.703C94.0988 130.891 97.9633 133.042 100.309 132.928L100.091 134.302L97.1268 134.293V135.653C100.346 137.012 102.364 132.833 104.183 132.483C107.343 131.878 111.512 133.538 114.858 132.924C115.395 137.517 110.175 139.85 106.22 138.386C106.602 141.874 110.048 141.451 112.353 139.746C115.795 137.199 116.813 130.977 122.583 133.388C122.997 135.193 120.373 133.633 119.596 134.711C119.073 139.65 127.307 138.45 130.312 136.79L139.405 131.564C135.213 137.385 125.984 145.422 118.495 141.792C122.687 140.696 118.759 137.886 117.345 140.201C116.472 141.624 118.618 143.466 116.445 143.843C113.044 144.435 103.46 143.261 103.465 138.613C103.465 136.83 105.174 135.134 106.925 135.225C108.043 135.284 108.234 136.739 109.398 136.562L109.343 134.798C105.274 133.092 99.8047 136.489 102.483 140.987C104.197 143.871 111.085 145.167 114.235 145.599C120.541 146.472 126.77 146.413 132.367 143.052L133.344 144.057C133.013 146.204 131.98 146.527 130.157 147.091C119.932 150.252 105.679 146.986 96.6721 141.565L96.6766 141.574Z" fill="black"/>
<path d="M153.054 127.248C153.458 123.86 155.663 119.634 157.145 116.565C151.285 117.483 145.502 119.766 139.487 119.216C137.986 115.446 135.595 111.766 132.835 108.815C131.685 107.587 129.634 106.932 129.412 105.195C130.266 104.403 135.177 108.919 136.022 109.72C137.6 111.221 140.973 116.019 142.919 116.464L157.736 115.559C162.883 110.306 169.503 105.936 177.15 106.104L175.336 107.455C176.414 107.669 177.428 108.205 178.364 108.751C180.769 110.143 182.32 112.594 181.247 107.919C181.665 107.359 183.143 111.462 183.288 112.007C187.312 126.866 175.091 143.02 159.873 143.839L164.443 141.829C164.734 141.533 165.175 141.192 165.275 140.796C165.911 138.313 156.282 134.124 154.172 133.847C152.572 133.638 154.331 136.694 153.049 137.021C153.313 133.911 152.69 130.281 153.049 127.243L153.054 127.248ZM169.567 136.417C169.898 136.658 170.185 136.899 170.621 136.921C178.514 133.802 183.27 124.201 182.174 115.855C181.929 113.972 176.923 110.661 175.113 109.729C170.74 107.469 169.185 108.374 165.188 110.739C158.928 114.45 154.008 121.381 154.004 128.799C158.964 129.554 162.733 131.145 166.834 133.929C167.93 134.675 168.839 135.894 169.567 136.417Z" fill="black"/>
<path d="M124.979 108.26L127.593 108.828V107.469L125.779 107.919L126.456 105.658C128.702 107.232 132.594 107.919 133.049 111.102C130.712 110.843 128.498 109.602 126.074 109.77C121.719 110.07 120.255 114.995 115.777 114.736L115.577 113.399C113.39 114.068 111.485 115.696 110.121 117.497C109.475 118.352 109.371 119.771 108.507 120.194C108.402 115.546 110.339 110.784 114.863 109.051C111.967 109.424 112.503 106.486 115.131 106.118C120.369 105.381 121.164 111.425 116.231 111.093L117.136 109.283C114.535 108.906 114.767 112.135 116.977 112.344C118.877 112.526 124.983 108.76 122.355 106.545C121.896 106.45 120.56 108.151 120.319 106.768C119.864 104.158 124.233 102.711 125.124 104.722C125.306 105.135 123.851 106.945 124.983 108.251L124.979 108.26Z" fill="black"/>
<path d="M171.235 90.1815C169.998 90.4544 170.462 89.804 170.112 89.2765C166.002 83.0639 157.364 69.1288 158.537 61.7838C158.669 60.9651 160.387 57.4541 161.01 57.445C162.365 58.723 161.174 60.8241 161.201 62.6752C161.337 72.3351 167.966 79.5938 170.885 88.0349C171.135 88.7626 171.372 89.3811 171.24 90.177L171.235 90.1815Z" fill="black"/>
<path d="M157.145 88.3623L158.955 89.2719C158.259 87.621 160.069 86.1611 160.214 85.3334C160.423 84.1008 158.709 82.7319 159.187 81.5403C161.269 82.7546 165.197 90.0133 164.215 91.9871C163.051 94.3339 155.759 91.7733 157.145 88.3623Z" fill="black"/>
<path d="M163.506 105.64C162.665 104.967 163.624 104.849 164.197 104.749C167.684 104.144 170.571 103.63 172.326 100.137L173.504 96.5488C175.977 105.14 171.108 107.196 163.506 105.64Z" fill="black"/>
<path d="M150.776 92.9103C150.83 94.4976 151.367 96.3577 152.062 97.7676C153.185 100.06 155.331 101.119 156.232 103.371C151.171 103.807 148.807 97.8404 149.871 93.5971C150.044 92.9103 149.553 92.7921 150.771 92.9103H150.776Z" fill="black"/>
<path d="M136.227 116.101C135.222 115.978 134.554 115.3 133.526 114.932C132.853 114.691 131.694 114.909 131.308 114.659C131.08 114.509 130.976 113.445 130.526 112.944C129.794 112.126 128.439 112.012 128.048 111.102C131.476 111.102 134.936 112.812 136.227 116.096V116.101Z" fill="black"/>
<path d="M173.518 118.834L176.923 116.565C177.259 116.492 177.237 117.047 177.146 117.238C176.886 117.788 172.244 121.554 171.249 122.713C169.367 124.915 167.498 127.375 166.684 130.204L165.775 129.972C166.893 126.766 165.784 123.891 162.024 125.765C160.733 126.406 160.833 127.352 159.878 127.93C161.892 121.29 167.243 115.177 173.054 111.562C173.354 112.571 171.913 112.94 171.844 113.599C171.744 114.582 173.522 117.52 173.518 118.839V118.834ZM172.144 117.924C172.504 117.433 171.499 114.491 171.017 113.836L168.525 116.333L172.149 117.924H172.144ZM172.599 119.748C168.448 118.093 163.615 116.96 165.379 123.327C168.93 123.946 171.044 122.895 172.599 119.748Z" fill="black"/>
</svg>
