<svg width="256" height="256" viewBox="0 0 256 256" fill="none" xmlns="http://www.w3.org/2000/svg">
<path d="M96 29.44C99.52 29.44 103.04 29.44 106.56 29.44C106.963 29.536 107.36 29.6928 107.766 29.7216C109.786 29.8656 111.811 29.9072 113.824 30.1088C117.901 30.5152 121.99 30.8576 126.035 31.4912C132.918 32.5696 139.728 34.0288 146.451 35.888C162.39 40.2976 177.504 46.6336 191.709 55.1104C205.11 63.1072 217.219 72.7072 227.722 84.2816C235.501 92.8544 242.093 102.24 247.085 112.707C252.061 123.142 255.222 134.058 255.722 145.67C255.738 146.077 255.904 146.477 256 146.88V152.32C255.901 152.723 255.757 153.123 255.712 153.533C255.574 154.803 255.501 156.077 255.357 157.347C254.506 164.867 252.413 172.038 249.094 178.829C243.472 190.333 235.174 199.533 224.72 206.838C215.744 213.114 205.926 217.61 195.453 220.768C187.891 223.046 180.198 224.63 172.362 225.485C168.874 225.866 165.357 226.003 161.856 226.269C161.235 226.317 160.621 226.461 160.003 226.56H150.723C150.426 226.477 150.128 226.336 149.827 226.32C147.274 226.17 144.72 226.064 142.17 225.904C135.568 225.494 129.043 224.486 122.563 223.226C111.936 221.158 101.552 218.147 91.472 214.23C78.3232 209.123 65.8752 202.634 54.2784 194.547C42.2592 186.17 31.5104 176.442 22.4224 164.922C15.4528 156.083 9.69597 146.541 5.68957 135.984C2.76477 128.275 0.809574 120.349 0.310374 112.093C0.281574 111.632 0.108774 111.178 0.00317383 110.72C0.00317383 108.266 0.00317383 105.814 0.00317383 103.36C0.102374 102.957 0.243174 102.557 0.294374 102.147C0.643174 99.4592 0.841574 96.7424 1.33117 94.08C3.67997 81.3504 9.32797 70.2336 18.0192 60.672C25.3536 52.6048 34.1376 46.4576 43.8848 41.6736C50.8768 38.2432 58.1824 35.632 65.7408 33.7248C71.632 32.24 77.5936 31.1328 83.632 30.5024C87.232 30.128 90.8544 29.9808 94.464 29.712C94.9792 29.6736 95.488 29.5296 96 29.4368V29.44Z" fill="white"/>
<path d="M96 29.44C99.52 29.44 103.04 29.44 106.56 29.44C106.963 29.536 107.36 29.6928 107.766 29.7216C109.786 29.8656 111.811 29.9072 113.824 30.1088C117.901 30.5152 121.99 30.8576 126.035 31.4912C132.918 32.5696 139.728 34.0288 146.451 35.888C162.39 40.2976 177.504 46.6336 191.709 55.1104C205.11 63.1072 217.219 72.7072 227.722 84.2816C235.501 92.8544 242.093 102.24 247.085 112.707C252.061 123.142 255.222 134.058 255.722 145.67C255.738 146.077 255.904 146.477 256 146.88V152.32C255.901 152.723 255.757 153.123 255.712 153.533C255.574 154.803 255.501 156.077 255.357 157.347C254.506 164.867 252.413 172.038 249.094 178.829C243.472 190.333 235.174 199.533 224.72 206.838C215.744 213.114 205.926 217.61 195.453 220.768C187.891 223.046 180.198 224.63 172.362 225.485C168.874 225.866 165.357 226.003 161.856 226.269C161.235 226.317 160.621 226.461 160.003 226.56H150.723C150.426 226.477 150.128 226.336 149.827 226.32C147.274 226.17 144.72 226.064 142.17 225.904C135.568 225.494 129.043 224.486 122.563 223.226C111.936 221.158 101.552 218.147 91.472 214.23C78.3232 209.123 65.8752 202.634 54.2784 194.547C42.2592 186.17 31.5104 176.442 22.4224 164.922C15.4528 156.083 9.69597 146.541 5.68957 135.984C2.76477 128.275 0.809574 120.349 0.310374 112.093C0.281574 111.632 0.108774 111.178 0.00317383 110.72C0.00317383 108.266 0.00317383 105.814 0.00317383 103.36C0.102374 102.957 0.243174 102.557 0.294374 102.147C0.643174 99.4592 0.841574 96.7424 1.33117 94.08C3.67997 81.3504 9.32797 70.2336 18.0192 60.672C25.3536 52.6048 34.1376 46.4576 43.8848 41.6736C50.8768 38.2432 58.1824 35.632 65.7408 33.7248C71.632 32.24 77.5936 31.1328 83.632 30.5024C87.232 30.128 90.8544 29.9808 94.464 29.712C94.9792 29.6736 95.488 29.5296 96 29.4368V29.44ZM245.098 180.144C245.325 179.734 245.587 179.277 245.83 178.813C247.939 174.787 249.517 170.56 250.726 166.182C252.237 160.704 253.027 155.117 253.021 149.456C253.018 146.112 252.627 142.758 252.24 139.43C251.27 131.11 248.749 123.222 245.306 115.616C239.862 103.59 232.269 93.0336 223.187 83.52C215.501 75.4688 206.989 68.3872 197.722 62.2176C183.757 52.9216 168.758 45.7824 152.787 40.672C144.819 38.1216 136.72 36.0896 128.461 34.7488C124.525 34.112 120.563 33.552 116.592 33.1904C111.875 32.7616 107.136 32.4928 102.4 32.3264C99.584 32.2272 96.7552 32.4736 93.9296 32.5344C86.5568 32.688 79.28 33.664 72.0704 35.1616C60.368 37.5936 49.216 41.5136 38.88 47.6C31.4752 51.9616 24.8384 57.2576 19.1744 63.744C9.83677 74.4448 4.64957 86.9312 3.20637 101.005C2.59837 106.922 2.95997 112.832 3.89757 118.688C5.11677 126.298 7.49437 133.565 10.672 140.582C14.3424 148.688 19.1104 156.115 24.56 163.117C26.5184 165.632 28.6592 168.006 30.672 170.39C33.1008 169.6 34.3808 169.386 36.3136 169.686C37.2928 169.84 38.3616 170.051 39.1616 170.579C40.2304 171.286 41.216 171.363 42.3232 170.938C43.0656 170.653 43.7632 170.182 44.528 170.026C47.8464 169.35 50.8896 167.933 53.9616 166.598C54.8128 166.227 55.648 166.032 56.576 166.038C60.256 166.064 63.936 166.038 67.616 166.058C68.4896 166.064 69.2768 165.942 70.048 165.466C70.6016 165.123 71.296 165.011 71.9072 164.803C72.224 165.197 72.4224 165.44 72.6208 165.69C73.5872 166.915 74.1088 167.046 75.4848 166.419C77.3856 165.549 79.424 165.37 81.4176 165.706C83.232 166.013 85.0976 166.496 86.7296 167.315C89.0016 168.458 91.2928 168.986 93.792 168.778C93.8944 168.768 94 168.813 94.2144 168.854C94.72 169.52 95.3984 169.872 96.3712 169.526C97.0496 169.283 97.792 169.133 98.512 169.104C99.9936 169.04 101.482 169.085 102.909 169.085C103.67 168 104.339 167.05 104.97 166.15C105.658 166.067 106.23 166 106.774 165.936C107.008 165.622 107.219 165.379 107.382 165.107C108.109 163.91 108.842 162.774 110.413 162.518C110.826 162.451 111.19 161.987 111.546 161.67C113.699 159.76 115.84 157.843 118.102 155.824C120.867 156.179 123.552 155.926 125.574 153.229V147.914C126.038 147.968 126.378 148.006 126.851 148.064V153.043H129.917C130.147 153.443 130.304 153.706 130.515 154.074H133.837C135.235 155.283 136.365 156.336 137.581 157.28C138.01 157.613 138.653 157.891 139.168 157.846C140.669 157.712 141.53 158.397 142.243 159.629C143.149 161.187 144.528 162.266 146.186 163.005C147.046 163.389 147.805 163.405 148.557 162.774C148.957 162.442 149.427 162.189 149.875 161.894C152.877 163.667 155.83 165.37 158.736 167.149C160.301 168.106 161.814 169.098 163.702 168.637C164.893 170.333 165.35 170.502 167.245 170.022C167.398 169.984 167.558 169.958 167.709 169.907C168.858 169.504 169.997 169.578 171.162 169.885C173.139 170.41 174.947 171.29 176.666 172.378C177.11 172.659 177.59 173.078 178.061 173.088C179.914 173.133 181.786 173.389 183.606 172.768C184.848 172.346 186.106 171.965 187.334 171.571C187.754 172.147 188.093 172.618 188.474 173.146C189.914 173.146 191.35 173.114 192.784 173.155C193.923 173.19 194.989 173.002 196.054 172.586C197.635 171.968 199.251 171.453 200.826 170.902C202.314 171.68 203.789 172.326 205.123 173.184C206.605 174.138 208.25 173.542 209.747 173.882C210.675 175.629 211.453 176.467 213.229 177.322C214.47 177.92 215.763 178.442 217.078 178.854C219.616 179.651 222.192 180.326 224.736 181.094C225.437 181.306 226.138 181.594 226.765 181.971C228.554 183.04 230.355 183.174 232.243 182.269C233.683 181.578 235.149 180.938 236.586 180.243C237.715 179.699 238.899 179.389 240.141 179.507C241.722 179.654 243.293 179.904 245.085 180.141L245.098 180.144Z" fill="#DF1F26"/>
<path d="M101.088 88.4192H146.816C149.258 99.8176 151.696 111.219 154.138 122.621C154.246 122.614 154.358 122.608 154.467 122.605C157.654 111.328 160.838 100.051 164.045 88.7072H186.186C183.754 97.4592 181.354 106.096 178.906 114.909H209.542C205.181 120.198 200.986 125.286 196.787 130.378H132.918C130.845 122.048 128.771 113.709 126.678 105.309H113.443C107.325 113.651 101.184 122.022 95.0144 130.438C94.432 130.438 93.9039 130.438 93.3759 130.438C75.3535 130.438 57.3311 130.467 39.3087 130.416C35.6831 130.406 32.0799 129.994 28.6847 128.538C24.2591 126.64 21.1263 123.558 20.0639 118.758C19.4975 116.192 19.7535 113.555 20.0287 110.954C20.4479 107.018 21.8239 103.302 22.7711 99.488C23.5903 96.1856 24.4959 92.9024 25.3663 89.6128C25.4335 89.3568 25.5487 89.1168 25.6863 88.7488H48.0863C47.9583 89.2128 47.8528 89.6576 47.712 90.0928C45.8368 95.8592 44.0063 101.642 42.0639 107.386C41.0015 110.528 43.0367 113.472 46.4383 113.437C54.8607 113.354 63.2864 113.408 71.7119 113.411C72.2879 113.411 72.8639 113.411 73.6639 113.411C72.2399 118.544 70.8703 123.482 69.5007 128.419C69.5871 128.464 69.6735 128.506 69.7599 128.55C80.2111 115.162 90.6656 101.773 101.085 88.4288L101.088 88.4192Z" fill="#DF1F26"/>
<path d="M86.6944 67.1712C85.1872 72.3744 83.7408 77.3696 82.2784 82.416H27.5072C27.6672 81.856 27.7568 81.3888 27.9264 80.9536C29.7088 76.4192 32.608 72.7424 36.5472 69.904C39.168 68.016 42.0896 67.1168 45.3728 67.1488C53.6864 67.2288 61.9968 67.1744 70.3104 67.1744C75.1584 67.1744 80.0096 67.1744 84.8576 67.1744H86.6944V67.1712Z" fill="#DF1F26"/>
<path d="M220.525 84.7424C219.709 84.1056 218.89 83.4752 218.08 82.8352C205.712 73.0528 192.589 64.4608 178.314 57.7024C170.026 53.7792 161.501 50.4704 152.605 48.1792C148.896 47.2224 145.146 46.5056 141.347 45.9808C138.346 45.5648 135.389 44.848 132.394 44.384C128.714 43.8144 125.021 43.3024 121.318 42.8896C114.909 42.1728 108.474 41.808 102.019 41.8016C96.1503 41.7952 90.2943 41.9584 84.4544 42.5696C74.8448 43.5744 65.4239 45.504 56.2431 48.5312C45.1295 52.1952 34.8063 57.3856 25.5519 64.608C24.8799 65.1328 24.2271 65.68 23.5743 66.2304C22.9375 66.7648 22.3103 67.312 21.6255 67.7984C23.7823 65.3088 26.1663 63.0592 28.7007 60.9696C37.9615 53.344 48.5343 48.2144 59.8815 44.528C67.1391 42.1696 74.5504 40.5152 82.0831 39.3664C87.6672 38.512 93.2799 37.9008 98.9279 37.76C104.253 37.6256 109.587 37.456 114.906 37.6256C118.832 37.7536 122.749 38.3232 126.653 38.8416C133.302 39.7248 139.878 41.04 146.358 42.7776C156.195 45.4144 165.744 48.8352 174.973 53.168C190.125 60.2848 203.955 69.3952 216.486 80.48C217.802 81.6448 219.03 82.912 220.294 84.1344C220.432 84.2688 220.547 84.4256 220.672 84.5696C220.624 84.6272 220.576 84.688 220.525 84.7456V84.7424Z" fill="#DF1F26"/>
<path d="M106.147 82.4287C110.589 77.2191 114.835 72.2367 119.098 67.2383H142.256C143.334 72.2975 144.406 77.3215 145.498 82.4287H106.15H106.147Z" fill="#DF1F26"/>
<path d="M192.23 67.3279C190.742 72.3007 189.267 77.2319 187.779 82.1951H165.734C167.133 77.1871 168.493 72.3135 169.885 67.3279H192.23Z" fill="#DF1F26"/>
</svg>
