<svg width="256" height="256" viewBox="0 0 256 256" fill="none" xmlns="http://www.w3.org/2000/svg">
<g clip-path="url(#clip0_3006_21931)">
<path d="M231.715 91.2276C231.644 90.8749 231.298 90.4167 231.153 90.0604C226.718 86.4987 222.235 83.0044 217.599 79.7028C217.544 75.3939 217.674 71.1233 217.743 66.8162C217.83 61.5202 218.356 55.7405 217.939 50.4553C217.797 48.6518 216.81 46.3356 215.265 45.3102C213.569 44.1848 209.614 44.5557 207.477 44.3684C196.143 43.3812 184.961 38.5669 177.633 29.7492C172.393 23.446 169.903 17.1736 169.01 9.00678C168.73 6.4542 169.219 4.1816 167.553 1.91809C166.42 0.38 164.92 0.112742 163.106 2.12364e-05H92.7009C88.5104 -0.0599754 87.1445 2.97076 86.8008 6.64692C86.7299 7.41233 86.879 8.24864 86.7971 9.00678C84.6492 28.7729 69.8297 41.2831 50.6706 43.9812C47.9242 44.3684 45.0432 44.2175 42.3769 44.5993C39.8342 44.9647 38.2355 47.9209 38.0482 50.2717C37.6389 55.4387 38.1718 60.9257 38.2446 66.0872C38.3082 70.6251 38.301 75.163 38.3883 79.701C36.5859 81.1263 34.6234 82.359 32.7955 83.7462C30.8203 85.2461 28.5541 86.9478 26.6916 88.5532C25.8659 89.264 24.4509 90.3003 24.269 91.413C24.0835 92.5511 25.7277 96.78 26.1824 98.1435C31.1422 113.034 36.5404 127.827 41.693 142.636C43.3208 144.088 45.869 144.401 47.5932 145.828C51.3326 159.071 56.1415 172.048 62.3945 184.302C76.0372 211.032 97.0951 234.739 121.369 252.253C123.238 253.602 126.203 256.264 128.524 255.98C130.384 255.753 135.237 251.928 136.976 250.613C159.29 233.743 180.005 210.595 192.925 185.639C199.467 173.003 204.409 159.571 208.25 145.87C209.944 144.419 212.459 143.95 214.198 142.537C219.36 127.773 224.789 112.795 229.938 97.9181C230.451 96.4364 231.982 92.5693 231.713 91.2294L231.715 91.2276Z" fill="#CF252A"/>
<path d="M127.962 247.057C133.62 243.083 139.109 238.856 144.358 234.354C156.977 223.535 168.09 211.132 177.336 197.323V119.172C161.484 111.617 144.767 107.716 127.811 107.716C118.721 107.716 109.503 108.848 100.414 111.081C93.2793 112.834 85.735 115.637 78.3089 119.212V197.083C91.3496 216.766 108.543 233.68 127.962 247.055V247.057Z" fill="#25397D"/>
<path d="M166.229 55.6805C169.965 56.6532 173.668 57.775 177.335 59.0331V40.5668C175.496 38.8433 173.481 36.4398 172.026 34.5345C166.373 27.1276 162.968 18.2172 162.431 8.8541L162.171 8.57594L93.7922 8.54321L93.5521 8.58139C93.3248 8.7232 93.2248 11.8594 93.1411 12.443C91.5933 23.2151 86.3097 33.3854 78.3071 40.7141V59.1858C94.4652 53.6207 111.222 50.8008 128.142 50.8008C140.972 50.8008 153.787 52.4444 166.229 55.6842V55.6805Z" fill="#25397D"/>
<path d="M77.8851 41.0977C68.9985 49.03 56.6562 53.0189 44.8086 53.1225L44.9595 75.0012C44.9504 75.2085 44.8413 75.3321 44.7013 75.4685C44.5394 75.6248 42.1386 77.0648 41.9658 77.0975C41.6021 77.1684 41.7021 77.0502 41.6912 76.8248C41.5675 74.5049 41.4402 57.7495 41.322 51.5426C41.2929 50.0463 41.673 48.99 43.2863 48.7773C45.7052 48.4591 48.4498 48.7027 51.0379 48.3464C73.2235 45.292 90.1619 28.4893 90.2928 5.59063C90.4511 5.07612 90.8567 4.67432 91.3368 4.45251L164.821 4.46706C165.529 4.92158 165.662 5.67426 165.731 6.46695C166.011 9.61768 166.02 12.1157 166.733 15.2828C171.173 35.049 188.646 47.3155 208.378 48.7409C209.847 48.8464 213.847 48.1955 214.396 49.9972C214.447 56.3877 214.574 75.194 214.296 76.8248C214.269 76.9793 214.156 77.2629 214.025 77.2738C213.792 77.2938 211.093 75.7321 211.026 75.1849L211.206 53.2788C205.168 53.1025 198.989 52.1989 193.287 50.1917C188.209 48.4046 181.947 44.6102 177.922 41.0977C175.936 39.3651 173.641 36.6434 172.029 34.5344C166.376 27.1276 162.972 18.2172 162.435 8.85408L162.175 8.57592L93.7958 8.54319L93.5557 8.58137C93.3284 8.72318 93.2284 11.8594 93.1447 12.443C91.5696 23.4042 86.1278 33.7454 77.8887 41.0995L77.8851 41.0977Z" fill="#FEFEFE"/>
<path d="M78.067 196.725C91.1349 216.562 108.423 233.6 127.96 247.057C133.618 243.083 139.107 238.856 144.356 234.354C157.157 223.378 168.41 210.774 177.737 196.725C187.474 182.055 194.9 166.347 200.206 149.463C200.346 149.315 203.587 147.712 203.84 147.641C204.202 147.539 204.145 147.834 204.098 148.081C203.651 150.468 202.274 154.306 201.463 156.72C189.877 191.238 168.421 220.417 140.173 243.083C137.001 245.628 133.156 248.746 129.762 250.897C129.337 251.166 128.258 251.84 127.822 251.811C127.385 251.782 124.493 249.751 123.915 249.342C93.6376 227.936 69.3859 197.111 56.4197 162.275C54.7937 157.907 52.9859 152.97 51.8291 148.501C51.7491 148.19 51.1762 147.595 51.7873 147.63C52.1638 147.652 55.5394 149.186 55.7795 149.461C56.1887 149.928 57.1218 154.019 57.4637 155.049C62.3472 169.738 69.5768 183.841 78.0651 196.725H78.067Z" fill="#FEFEFE"/>
<path d="M201.121 73.9031C206.692 77.0229 212.224 80.7264 217.344 84.3607C220.995 86.9533 224.76 89.4768 227.906 92.6766L212.363 137.983C211.737 137.97 211.632 137.367 211.208 136.998C180.016 109.914 140.812 97.18 99.4905 107.33C80.6424 111.961 60.0556 123.349 45.5635 136.056C45.3306 136.261 43.7356 138.361 43.33 138.003L27.9576 92.933C27.9121 92.6002 28.1158 92.3984 28.3232 92.1857C29.409 91.0767 31.0513 90.0658 32.2717 89.0841C80.7679 50.0536 146.162 43.1267 201.121 73.9031Z" fill="#FEFEFE"/>
<path d="M177.191 100.003C177.513 100.009 177.969 100.173 177.915 99.738C177.737 98.3344 176.776 96.4782 176.516 94.7692C176.371 93.8074 176.045 91.0985 176.307 90.3022C176.476 89.7876 177.806 90.064 178.355 89.9858C179.748 89.7858 181.205 89.2259 182.004 87.9968C182.273 87.5823 182.269 86.966 182.647 86.7333C182.796 88.8059 181.009 89.8876 179.203 90.2876C178.79 90.3785 176.922 90.5003 176.807 90.6567C176.367 91.2567 177.044 95.7764 177.282 96.7345C177.546 97.789 178.017 98.8217 178.395 99.8362C181.793 99.9343 184.099 97.6617 186.598 95.7709C187.323 94.9855 185.155 94.0729 185.567 93.4711C185.634 93.3729 187.649 92.4639 187.742 92.5529C187.665 92.9166 188.069 94.6946 188.651 94.1892C188.768 94.0892 188.018 92.2711 188.107 92.1911C188.811 91.5639 188.762 93.8692 189.286 93.6438C189.801 92.8475 192.829 91.1276 193.114 90.5549C193.424 89.9367 192.687 89.2295 192.834 88.5568C193.049 88.3186 197.874 91.4839 198.285 91.9203C198.298 92.3166 196.463 92.0875 196.325 92.6838L195.381 98.5562C195.866 98.6926 195.861 98.0926 195.95 97.7654C196.172 96.9418 196.59 93.482 196.923 93.1002C197.201 92.7838 198.735 92.7293 199.198 92.7402C199.217 93.4929 197.896 93.0947 197.452 93.4474C197.203 93.6456 196.103 98.3708 196.288 98.5562H197.743C197.532 99.4616 197.098 100.325 197.198 101.283C197.03 101.483 195.037 99.6653 194.688 100.685C194.499 102.521 193.409 104.738 193.211 106.483C193.093 107.512 193.598 108.128 193.558 109.103C193.378 109.345 189.286 105.641 188.466 106.01C188.4 105.61 188.498 105.647 188.822 105.558C189.424 105.39 190.41 105.623 190.745 105.29C190.883 105.152 191.674 101.623 191.556 101.467C190.606 101.636 189.444 102.232 188.542 102.365C188.164 102.42 188.031 102.46 188.102 102.016C188.7 101.749 191.57 101.214 191.827 100.931C191.876 100.878 191.803 100.523 191.92 100.378C191.61 100.185 188.606 101.387 188.213 101.274C187.8 101.154 187.896 98.9562 187.731 98.2872C187.678 98.0763 187.869 97.9563 187.465 98.0145C186.849 98.6962 185.919 99.178 185.372 99.9216C185.254 100.082 184.644 101.122 184.644 101.194V104.103C184.644 104.158 184.897 104.358 184.826 104.556C184.613 104.6 184.477 104.53 184.292 104.456C183.08 103.967 180.583 102.354 179.317 101.607C179.03 101.436 178.537 101.342 178.644 100.922C179.233 100.922 179.775 101.292 180.285 101.552C180.729 101.78 184.097 103.84 184.281 103.647C183.449 100.929 185.412 98.938 187.516 97.6108C188.038 95.5946 186.476 97.2345 185.734 97.9181C184.226 99.3089 183.215 100.52 183.917 102.738C183.662 102.987 179.632 100.096 178.768 100.243C178.519 100.285 178.357 100.596 177.822 100.578C177.287 100.56 177.226 100.203 177.187 100.193V100.011L177.191 100.003ZM193.378 92.1875C193.151 91.9421 189.179 95.1073 188.729 95.4619L189.197 99.4598H189.923L189.404 95.8546C190.297 95.0528 192.44 93.9638 193.122 93.1093C193.295 92.8929 193.536 92.3566 193.38 92.1875H193.378ZM192.256 98.6981C192.422 98.5144 192.929 94.4583 193.014 93.822C192.487 94.1947 189.955 95.8364 189.919 96.2745C189.857 97.0109 190.555 98.2653 190.106 99.0926C190.241 99.198 192.172 98.7908 192.256 98.6981Z" fill="#26397E"/>
<path d="M129.993 87.6406C129.79 87.6297 129.106 87.2406 128.829 87.4788C128.584 87.6878 129.066 88.6351 127.967 88.6641C124.09 88.7641 120.445 88.8587 116.542 89.1041C116.307 89.1187 115.252 89.2787 115.354 88.826C115.976 88.3096 117.018 88.6042 117.806 88.5478C118.893 88.4696 120.19 88.2296 121.265 88.1878C122.254 88.1496 127.958 88.3278 128.277 88.106C129.213 87.4533 126.283 84.1862 126.63 83.8226C126.843 83.599 127.118 84.1026 127.211 84.2408C127.487 84.6535 128.597 87.0951 128.904 87.0915C130.868 85.7189 132.143 83.4081 133.029 81.2191C133.737 79.4738 133.735 79.4029 131.723 79.0938C131.508 78.8429 132.669 77.0866 132.905 76.7357L134.18 78.0029C134.957 77.9848 134.037 76.9539 134.088 76.9157C135.286 77.2866 134.924 76.9121 135.361 75.914C135.621 75.3213 136.939 72.925 136.968 72.6069C136.992 72.3433 135.844 71.2488 135.724 70.8215C137.752 70.7179 139.837 71.3451 141.907 71.2779C142.121 72.1433 140.688 72.2669 140.679 72.9632C140.657 74.4177 142.063 77.103 142.092 78.732C142.394 78.7793 142.592 78.6374 142.601 78.3193C142.634 77.2212 141.013 73.6214 141.454 72.916C141.586 72.7032 142.974 71.5978 143.365 71.8251C143.371 72.4123 142.218 72.7487 141.999 73.0978C141.575 73.7795 143.083 77.3412 143.003 78.3684L144.456 77.643L144.822 80.3683C144.755 80.4373 143.254 80.3228 142.907 80.3683C142.638 80.4028 142.605 80.2646 142.649 80.6282C142.834 82.19 143.492 85.6425 144.04 87.0588C144.369 87.9096 144.797 88.1024 145.366 88.7314C143.405 88.8478 141.49 88.3387 139.546 88.186C139.726 87.5206 141.015 87.3079 141.157 86.7861C141.326 86.1679 140.393 83.9226 140.453 83.0972C140.197 82.8572 137.98 85.0825 137.816 85.4589C137.494 83.819 140.586 83.3572 140.088 81.8245L137.46 84.3698L136.999 84.5498L135.452 81.6445C134.568 83.0663 133.969 84.8007 134.442 86.4679C134.57 86.9188 135.717 88.7423 135.543 88.9114L128.993 88.6423C128.635 88.4423 129.011 88.2242 129.268 88.1842C130.963 87.9169 133.093 88.4133 134.815 88.366C133.962 86.4752 133.487 85.7934 134.037 83.6808C134.286 82.7208 135.424 81.2046 134.542 80.5501C133.977 82.3554 132.751 84.0971 133.404 86.0516C133.624 86.7097 134.089 87.0297 134.271 87.6388C132.854 87.5824 131.414 87.7151 129.997 87.6388L129.993 87.6406ZM137.727 73.6432C137.54 74.9377 135.433 77.8048 135.363 78.8374C135.339 79.1756 137.26 82.1391 137.454 82.1863C137.696 82.2463 137.903 81.9791 137.907 81.7409C137.92 81.0064 136.072 79.4792 136.128 78.8538C136.196 78.1011 137.914 75.6722 138.058 74.7777C138.094 74.5504 138.054 73.7068 137.727 73.6432ZM138.449 75.4594C137.974 75.3758 138.167 75.5285 138.071 75.7176C137.807 76.2321 136.628 78.6465 136.647 79.0101C136.656 79.201 137.711 80.681 137.929 80.9791C138.456 81.6973 139.626 80.3846 139.688 80.0701C139.786 79.5701 138.318 76.3539 138.449 75.4576V75.4594Z" fill="#26397E"/>
<path d="M172.462 99.2762C173.297 96.3255 173.784 93.282 173.894 90.2095C173.408 90.0767 171.449 89.5731 171.171 89.9349C170.987 90.1731 169.579 93.8147 169.559 94.1165C169.512 94.7765 170.582 97.1636 170.461 97.2745C168.705 96.64 166.493 95.9982 164.825 95.1746C164.565 95.0474 164.369 95.2164 164.461 94.731C165.245 94.5565 169.543 96.7509 169.734 96.5473C169.754 95.8655 169.285 95.2764 169.205 94.6219C169.01 93.0275 170.529 90.8931 170.842 89.2913L173.919 89.6386C173.888 89.4295 173.99 89.095 173.894 88.9386C173.814 88.8059 171.154 88.2296 170.874 88.2205C170.725 88.215 170.632 88.2132 170.556 88.3623C170.258 89.9386 168.477 92.5602 168.685 94.0474C168.728 94.3583 169.296 95.531 169.188 95.6382L164.279 93.7274L166.184 92.5439L167.551 88.5496C167.435 88.4405 166.222 88.8023 166.096 88.1859L167.731 88.3677C168.281 87.0933 166.962 87.5096 166.096 87.4569C166.195 85.7043 167.189 86.0588 168.457 86.5479C168.634 84.857 170.341 82.3226 170.456 80.7973C170.52 79.9573 169.905 79.8991 169.55 79.2774C173.148 78.661 179.303 80.1555 181.225 83.5135C183.699 87.8314 179.228 89.7222 175.55 89.275C175.414 92.6675 175.729 96.1146 177.007 99.2762H172.46H172.462ZM172.098 87.4569C174.226 87.8405 176.955 88.4732 178.431 86.426C180.085 84.1353 178.36 81.6972 176.043 80.8791C175.529 80.6973 174.001 80.3246 173.584 80.5809C173.279 80.7682 171.46 86.4824 171.009 87.2751L171.9 87.2569L174.11 81.2827C175.852 81.6118 178.471 82.5063 178.646 84.5498C178.222 84.3898 178.206 83.8498 177.924 83.5462C177.256 82.8262 174.796 81.0682 174.141 82.319C173.355 83.8207 172.97 85.9352 172.1 87.4569H172.098Z" fill="#26397E"/>
<path d="M65.3064 86.5951C72.5143 86.3242 77.3813 98.5545 70.9192 102.403C62.2145 107.587 52.895 93.5729 61.0195 88.1441C62.2181 87.3424 63.8532 86.6497 65.3064 86.5951ZM65.0481 101.202C66.4031 102.211 67.6254 102.643 69.2841 102.042C73.8347 100.391 70.6955 93.8493 68.8658 91.1112C67.4489 88.9914 65.7738 87.3224 63.0293 88.3332C57.4565 90.3876 61.8598 98.8253 65.0481 101.2V101.202Z" fill="#26397E"/>
<path d="M103.492 72.4233C113.177 71.5124 114.521 88.5642 105.965 89.6205C95.9039 90.8622 92.5919 73.4487 103.492 72.4233ZM105.831 74.0723C104.64 73.3232 102.364 73.5214 101.217 74.3304C98.0082 76.5867 99.9307 84.7353 102.164 87.2806C104.103 89.4896 107.491 88.9187 108.353 86.0098C108.926 84.0735 108.575 76.1176 106.662 75.1031C105.691 74.5886 102.864 74.6722 101.982 75.4613C99.847 77.3703 101.437 84.2044 102.868 86.397L104.62 88.3715C103.261 87.9624 102.341 86.5279 101.804 85.2789C99.9125 80.8773 98.954 72.1815 106.436 74.9195C106.569 74.7886 105.913 74.1305 105.829 74.0777L105.831 74.0723Z" fill="#26397E"/>
<path d="M157.548 91.2766C157.543 91.613 157.661 91.6439 157.29 91.6293C155.804 91.5712 153.567 90.2585 151.91 90.3658C152.17 89.6531 153.696 89.4149 153.996 88.9077C154.131 88.6804 155.198 84.0552 155.176 83.7516C155.107 82.7971 152.85 77.2102 152.304 76.0648C151.977 75.3739 151.586 74.7521 151.151 74.1267C150.791 73.6104 150.111 73.2413 150.091 72.5522L156.637 73.8249C157.042 74.2685 154.713 74.9848 154.854 75.5157L157.55 82.7335C157.708 82.8753 158.292 82.4444 158.196 82.1772C158.086 81.199 155.633 75.7812 155.935 75.303C155.984 75.2266 156.962 74.8576 157.184 74.9157C157.346 75.5103 156.38 75.3103 156.319 75.7266C156.273 76.0339 158.154 80.8536 158.441 81.5736C158.516 81.759 158.343 81.8863 158.728 81.8208C160.047 80.4245 164.881 77.3811 165.018 75.5484C165.072 74.8194 164.665 74.3285 164.643 73.6431H172.1L166.84 76.6575L158.094 84.0952C157.654 84.6879 156.684 88.2204 156.639 89.0113C156.566 90.2531 157.006 90.4021 157.55 91.2785C157.561 90.6312 157.142 90.1712 157.197 89.3949C157.252 88.6186 158.337 84.8297 158.823 84.2807C159.831 83.1426 162.526 81.0663 163.828 80.0118C166.367 77.9556 169.219 75.4539 172.462 74.7358C172.562 75.2194 172.338 75.0485 172.104 75.1866C171.418 75.5921 170.642 75.7866 169.974 76.1557C167.164 77.7138 163.645 80.6791 161.184 82.8226C160.605 83.3262 159.272 84.3607 158.921 84.9243C158.69 85.2933 157.57 89.3058 157.559 89.7567C157.543 90.404 158.949 92.7838 158.639 93.0965L151.646 91.453L151.184 90.9167L157.826 92.5493C158.592 92.6456 157.641 91.4275 157.548 91.2785V91.2766Z" fill="#26397E"/>
<path d="M46.9657 98.3691C46.8566 100.222 47.4695 102.002 47.6933 103.821C47.1822 103.805 46.9985 103.289 46.5492 103.058C43.9647 101.727 41.1056 102.283 40.0216 105.152C39.4396 106.69 39.978 108.201 40.7528 109.581C42.2496 112.252 45.8654 115.641 49.0628 115.821C51.7855 115.975 53.8971 113.566 53.4697 110.867C53.306 109.825 52.2784 108.572 52.2348 107.736C52.2075 107.221 52.9696 107.421 53.2387 107.643C53.4661 107.83 54.1972 109.285 54.33 109.643C55.1121 111.754 54.8647 113.212 53.4243 114.915C46.2364 123.422 32.7119 111.443 39.8779 103.192C41.7804 101.002 44.0866 101.074 45.7344 99.6454C45.9254 99.4799 46.7093 98.0818 46.9639 98.3709L46.9657 98.3691Z" fill="#26397E"/>
<path d="M217.75 107.825C218.026 108.112 217.688 108.134 217.497 108.205C215.953 108.774 214.174 108.916 212.659 109.639C213.772 107.389 214.187 104.7 211.935 103C207.337 99.5272 200.662 108.201 200.83 112.448C200.901 114.241 202.583 116.17 204.382 116.368C206.65 116.617 207.679 115.615 209.473 114.548C210.024 115.788 208.512 116.724 207.545 117.166C204.866 118.386 202.392 117.364 200.561 115.281C193.64 107.403 206.879 94.1493 214.291 103.92C215.207 105.129 215.617 106.592 216.895 107.498C217.121 107.658 217.717 107.794 217.75 107.827V107.825Z" fill="#26397E"/>
<path d="M88.4341 94.0038C81.9501 92.6948 78.1743 82.3572 83.618 77.8266C86.2297 75.6521 88.5196 76.4703 91.426 75.9957C92.0099 75.8994 92.3263 75.3049 92.9811 75.4612C93.1939 75.6667 91.7698 79.8228 92.0717 80.55C91.5479 80.6046 91.5024 79.7937 91.1623 79.3701C90.2584 78.2411 89.1089 77.472 87.6193 77.4466C79.9386 77.3248 84.9257 92.6821 90.7003 92.5548C93.7141 92.4894 94.7126 89.7459 94.6271 87.1769C94.6089 86.6133 94.0578 85.4552 95.1654 86.0934C95.6147 86.3515 95.7311 88.4132 95.6874 88.9823C95.3873 92.8621 92.1062 93.6166 88.8797 93.8202C88.6178 93.8365 88.4796 93.6893 88.4359 94.0038C90.7731 94.4765 93.3685 94.2002 94.9781 92.2712C95.2618 91.9312 96.2567 90.2368 96.2567 89.9131V87.0042C96.2567 86.9497 95.7638 85.7007 96.3458 86.0061C97.1679 86.437 96.7114 89.8495 96.4659 90.6676C95.5983 93.5602 92.3973 95.1038 89.5181 94.651C89.1162 94.5874 88.3668 94.5092 88.4359 94.0038H88.4341Z" fill="#26397E"/>
<path d="M119.535 70.7342C119.865 71.0269 117.86 72.2905 118.071 72.8141C118.18 75.5958 118.239 78.412 118.446 81.1845C118.517 82.1245 118.71 85.7443 118.946 86.3206C119.013 86.4861 119.157 86.7115 119.352 86.7315C119.403 82.0881 118.802 77.4666 118.631 72.8268C118.641 72.3905 120.421 70.8906 120.627 71.0978C120.885 71.3578 119.117 72.5959 119.032 73.0268L119.908 86.5406C122.469 86.7915 124.01 86.1861 125.074 83.8135C125.268 83.3826 124.946 82.7826 125.536 82.9117C125.25 83.6553 127.755 87.2642 127.536 87.4569L114.988 88.1841C114.634 87.7642 116.423 86.6751 116.269 86.1043C115.849 82.4227 115.769 78.6829 115.349 75.0049C115.287 74.4704 115.185 73.2268 114.967 72.8414C114.783 72.5196 113.039 71.4542 113.168 71.2778L119.532 70.7306L119.535 70.7342Z" fill="#26397E"/>
<path d="M102.986 90.184C102.937 89.8804 103.43 89.9858 103.626 89.9967C105.334 90.1022 106.717 90.2767 108.383 89.4913C114.259 86.7205 113.573 74.8467 107.351 72.7304C107.313 72.3959 107.959 72.5468 108.126 72.5922C109.57 72.9831 110.956 74.7321 111.6 76.0284C113.979 80.8118 113.306 88.7913 107.309 90.4185C105.704 90.8548 104.563 90.6549 102.986 90.184Z" fill="#26397E"/>
<path d="M197.743 103.094C197.421 103.416 195.979 101.565 195.381 101.822C195.266 103.898 193.92 106.22 194.126 108.258C194.178 108.787 194.899 110.985 194.651 111.276L188.287 106.821C188.429 106.549 188.726 106.872 188.893 106.943C190.852 107.783 192.462 109.47 194.288 110.548L193.586 107.741L195.106 101.276C195.488 100.667 196.99 102.403 197.561 102.369C197.534 101.516 197.641 100.603 198.016 99.8253C198.529 100.743 197.676 102.087 197.743 103.096V103.094Z" fill="#26397E"/>
<path d="M212.188 104.292C212.721 104.86 213.108 105.361 213.203 106.185L211.373 104.107C210.18 103.305 209.091 103.432 207.874 104.04C205.515 105.219 201.89 109.934 201.923 112.63C201.928 113.103 202.167 113.815 202.25 114.319C202.31 114.683 202.028 114.646 201.93 114.548C201.461 114.081 201.526 111.817 201.688 111.128C202.51 107.616 208.441 100.305 212.188 104.292Z" fill="#26397E"/>
<path d="M72.0668 102.731L73.7329 100.489C76.4483 95.8074 73.7092 89.1041 69.1004 86.697L66.4286 85.8261C70.9374 85.708 74.3676 90.4495 75.1151 94.5038C75.6244 97.2619 74.9278 101.529 72.0668 102.732V102.731Z" fill="#26397E"/>
<path d="M59.2862 106.047C62.1417 105.536 61.9125 110.168 58.7788 109.194C57.4038 108.767 57.4911 106.367 59.2862 106.047Z" fill="#26397E"/>
<path d="M79.6566 94.2293C81.9483 93.8238 82.3466 96.8964 80.8061 97.3763C78.0397 98.2363 77.5923 94.5947 79.6566 94.2293Z" fill="#26397E"/>
<path d="M44.7832 102.732C44.2757 103.358 43.3009 103.294 42.6097 103.74C41.8749 104.212 41.0874 105.547 41.1529 106.438C41.3439 109.081 45.5471 113.454 47.9643 114.37L50.9671 115.092C50.1468 115.403 49.0282 115.134 48.1989 114.863C45.0924 113.846 40.3017 109.274 40.8 105.747C41.0347 104.089 43.1372 102.549 44.785 102.734L44.7832 102.732Z" fill="#26397E"/>
<path d="M89.1616 78.1902L86.7517 78.7775C84.8493 79.3501 84.9366 81.75 85.1821 83.3481C85.6004 86.0534 86.9955 88.7969 88.8142 90.8077L90.9786 92.1876C88.6687 91.9313 86.9664 89.5332 86.0351 87.586C84.3 83.959 82.9214 77.1521 89.1598 78.192L89.1616 78.1902Z" fill="#26397E"/>
<path d="M54.3882 107.136C54.8047 107.405 55.7487 110.085 55.8305 110.687C56.3416 114.414 53.4988 117.606 49.8758 118.001L52.9696 116.277C55.5195 114.066 56.016 111.576 54.5519 108.508C54.481 108.359 53.2151 106.379 54.3864 107.134L54.3882 107.136Z" fill="#26397E"/>
<path d="M210.293 116.186C210.737 116.613 208.054 118.208 207.788 118.317C204.002 119.877 200.777 117.939 199.016 114.55C199.317 114.27 200.422 116.039 200.65 116.279C202.33 118.057 204.953 118.81 207.303 118.012C207.798 117.844 210.167 116.063 210.293 116.184V116.186Z" fill="#26397E"/>
<path d="M146.272 81.8227L143.909 81.4609C143.718 81.65 144.726 86.157 144.902 86.7388C145.064 87.2715 145.564 87.6751 145.455 88.1859C145.129 87.8423 144.72 87.5642 144.54 87.1006C143.867 85.3479 143.86 82.7517 143.181 80.9173L145.726 81.2791C145.571 80.3737 145.242 79.641 145.118 78.7047C145.086 78.461 144.778 78.1192 145.269 78.1902C145.55 78.581 146.403 81.6881 146.272 81.8245V81.8227Z" fill="#26397E"/>
<path d="M146.268 88.7332C146.335 88.7932 147.123 90.2495 146.997 90.3676L141.359 89.6404L141.454 89.0932L146.27 89.8222C146.332 89.4604 145.966 89.3477 145.902 89.0077C145.839 88.6677 146.135 88.615 146.268 88.7332Z" fill="#26397E"/>
<path d="M218.296 109.096C218.383 109.601 218.19 109.401 217.897 109.505C217.383 109.687 213.021 110.917 212.841 110.73C212.794 110.681 212.77 110.29 212.961 110.183C213.285 110.003 216.6 109.227 217.161 109.141C217.539 109.085 217.915 109.076 218.296 109.096Z" fill="#26397E"/>
<path d="M79.8858 97.8236C81.1117 97.7672 82.1084 98.0709 82.4612 96.6691C82.8141 95.2674 82.3866 95.0583 81.5264 94.0929C84.5546 94.8492 82.5612 100.078 79.8858 97.8236Z" fill="#26397E"/>
<path d="M94.2542 75.4612L92.8938 81.0936C92.3536 80.4736 92.8992 79.1537 93.0702 78.3665C93.2139 77.7065 93.4449 76.4575 93.6959 75.9012C93.8195 75.6266 93.8832 75.3921 94.2542 75.4612Z" fill="#26397E"/>
<path d="M48.057 98.1854C47.7933 99.0126 49.1828 103.636 48.9664 103.821C48.9246 103.858 48.5244 103.885 48.4044 103.716C48.1443 103.352 47.6114 99.0635 47.6933 98.4545C47.726 98.2072 47.826 97.8799 48.0552 98.1854H48.057Z" fill="#26397E"/>
<path d="M61.8271 109.585C61.4342 109.901 60.5648 110.027 60.061 110.001C60.8704 109.234 62.0289 109.305 62.2108 107.865C62.3363 106.879 61.6561 106.498 61.1523 105.823C62.9511 105.843 63.0147 108.63 61.8271 109.585Z" fill="#26397E"/>
<path d="M177.191 100.003V100.185C177.033 100.136 176.68 100.2 176.463 100.185C175.598 100.125 174.326 100.078 173.553 100.367C173.377 100.372 173.168 100.342 173.008 100.367L172.826 100.185C173.701 99.4944 176.142 99.9852 177.191 100.003Z" fill="#121519"/>
<path d="M71.8831 102.732C72.336 103.178 69.4587 104.592 68.9749 103.912C69.5333 104.085 71.7704 102.622 71.8831 102.732Z" fill="#26397E"/>
<path d="M176.463 100.185C175.641 100.54 174.488 100.342 173.553 100.367C174.326 100.078 175.598 100.125 176.463 100.185Z" fill="#26397E"/>
<path d="M121.483 20.797C121.525 20.8115 122.171 21.1352 122.207 21.1588C122.342 21.2461 122.595 21.7351 122.678 21.7733C122.906 21.8751 123.3 21.786 123.348 21.8333C123.395 21.8806 123.308 22.2751 123.408 22.5024C123.444 22.5842 123.93 22.8332 124.013 22.9787C124.119 23.1641 124.346 23.8496 124.432 24.1132C125.303 26.8076 125.847 29.6656 125.17 32.6091C125.139 32.7454 124.844 32.72 124.814 32.8563C124.481 34.338 124.201 35.1271 123.408 36.5034C122.131 38.7196 119.686 40.4995 117.036 41.0504C116.236 41.2177 115.938 40.8813 115.352 40.3704C115.936 40.6359 116.122 40.025 116.203 40.0068C116.809 39.8723 117.14 39.8941 117.744 39.6232C118.635 39.2214 120.539 37.8778 121.114 37.0397C121.689 36.2016 121.993 35.0235 122.269 33.9508C122.307 33.8017 122.595 33.8326 122.624 33.6981C122.684 33.4254 122.573 33.1181 122.622 32.8472C122.656 32.6581 123.168 32.8563 122.989 32.3691C122.254 32.0473 122.102 32.9618 121.756 33.0799C121.411 33.1981 119.755 33.4999 119.444 33.4617C119.059 33.4126 119.79 32.7509 119.846 32.74C120.23 32.6654 120.654 32.8 121.041 32.7272C121.154 32.7054 121.434 32.2054 121.607 32.0836C121.851 31.9109 122.831 31.4328 122.947 31.2328C123.038 31.0764 122.944 30.8164 123.004 30.7001C123.106 30.5001 123.328 30.6019 123.369 30.2928C123.566 28.822 123.3 27.3021 123 25.9094C122.927 25.5767 123.06 25.1786 122.989 24.8604C122.958 24.7259 122.662 24.7513 122.631 24.6131C122.291 23.1023 122.436 24.0186 121.956 23.2278C121.845 23.0441 121.956 22.7369 121.867 22.5951C121.8 22.486 121.241 22.3678 121.036 22.246C120.794 22.1042 120.881 21.8606 120.547 21.8169C119.954 21.7406 118.781 21.8497 118.326 22.2533C117.871 22.6569 117.222 24.3677 117.162 25.0004C117.049 26.1949 117.113 28.3293 117.595 29.4129C117.646 29.5292 118.184 29.7656 118.253 29.9747C118.311 30.1474 118.219 30.5019 118.264 30.5528C118.359 30.6601 120.91 30.5837 121.127 30.5001C121.651 30.2965 122.837 28.3148 122.629 27.6439C123.073 27.0748 123.024 28.8165 122.998 29.0147C122.886 29.871 122.102 31.2964 121.305 31.6946C120.157 32.2691 117.431 32.1727 116.494 31.2328C116.303 31.0419 116.269 30.5783 116.074 30.3274C115.941 30.1565 115.381 29.7929 115.361 29.6947C115.289 29.3038 115.432 28.8638 115.35 28.4947C115.319 28.3511 115.019 28.4475 114.976 28.1111C114.914 27.6384 114.914 26.1967 114.976 25.724C115.019 25.3858 115.319 25.484 115.35 25.3404C115.554 24.4186 115.538 23.5514 116.14 22.6114C116.196 22.5242 117.506 21.2133 117.593 21.1588C117.74 21.0643 117.984 21.1424 118.113 21.0843C118.313 20.997 118.215 20.7625 118.524 20.7225C118.968 20.6643 121.145 20.6734 121.483 20.797Z" fill="#CF252A"/>
<path d="M139.542 21.0989C139.578 21.3698 139.717 21.5788 139.688 21.8716C139.638 22.3679 138.84 24.7132 138.613 25.3168C137.101 29.3293 136.141 30.1293 135.719 34.8236C135.626 35.8617 135.199 36.7398 135.541 37.8252L132.813 38.007V34.189C132.813 34.169 133.124 34.2709 133.176 34.0672C133.445 33.0237 133.7 32.0164 133.909 31.0492C133.944 30.8892 134.588 30.5838 134.624 30.422C134.881 29.2548 135.435 28.5148 136.108 27.4331C136.323 27.0894 137.5 25.4859 137.536 25.335C137.607 25.0423 137.512 24.6805 137.541 24.3714H132.085C132.001 24.3714 132.151 25.775 132.08 26.0622C132.05 26.184 131.809 26.1877 131.783 26.2495C131.521 26.904 131.569 27.4567 130.532 27.2949C130.274 27.2549 129.926 26.5931 129.177 26.9149V25.4623C129.401 25.4186 130.21 25.5204 130.268 25.4623C130.361 25.3695 130.243 23.246 130.259 22.8188C130.281 22.2097 130.585 21.7443 130.268 21.0989H139.544H139.542ZM131.721 23.2824C130.461 22.957 131.172 24.4223 130.987 25.3314C130.957 25.4768 130.355 25.7932 130.324 25.875C129.852 27.0767 131.272 26.4604 131.35 26.0586C131.51 25.2532 131.479 24.1423 131.721 23.2824ZM138.451 23.2806H132.085V23.6442H137.087C137.28 23.6442 138.318 24.4387 138.451 23.2806Z" fill="#CF252A"/>
<path d="M107.713 20.7352V35.9162C107.713 36.0034 107.937 36.4761 108.077 36.3707V21.917C108.077 21.8861 108.255 21.3861 108.439 21.4624C109.03 26.1713 108.255 31.2182 108.624 35.9125C108.677 36.5707 108.705 37.3179 109.348 37.5543L108.623 37.9161C109.314 38.6724 109.552 37.8579 109.65 37.8288C110.627 37.5433 110.172 38.5615 110.258 39.2814C109.408 39.5087 109.581 38.9178 109.53 38.9178H104.438C104.248 38.4415 104.76 38.6215 104.807 38.4433C104.985 37.7652 104.194 37.8397 104.438 37.0997C105.618 37.2543 104.985 36.8088 105.163 36.1271C105.214 35.9325 105.531 36.0271 105.531 36.0089V25.1004C105.531 25.0113 104.134 25.1913 103.757 25.0459C103.681 25.0168 102.644 23.9587 102.628 23.8787C102.546 23.4732 102.661 22.9787 102.619 22.5551C103.481 22.5806 103.863 22.2606 103.712 23.2842C104.323 23.5078 104.423 23.0133 104.498 22.9805C104.709 22.8896 104.981 22.9514 105.109 22.8642C105.976 22.2551 106.149 20.2752 107.713 20.7388V20.7352ZM105.531 24.0096H104.441V24.3714H105.531V24.0096ZM108.077 37.827C107.451 37.8506 106.811 37.7742 106.184 37.8415C106.007 37.8597 105.5 37.9215 105.533 38.1869C106.158 38.1633 106.798 38.2397 107.426 38.1724C107.602 38.1542 108.11 38.0924 108.077 37.827Z" fill="#CF252A"/>
<path d="M136.086 34.28C136.11 34.0763 136.383 32.8291 136.459 32.471C137.307 28.4821 140.011 25.2568 140.271 21.1007L140.461 22.8352C139.964 23.5551 140.23 24.3369 140.084 24.975C140.053 25.1096 139.757 25.0841 139.726 25.2223C139.375 26.8204 138.911 27.1367 138.287 28.5257C137.643 29.9529 137.563 31.1401 137.181 32.6164C137.132 32.8091 136.814 32.7146 136.814 32.7346V38.9161H132.813C132.711 38.5034 132.973 38.487 133.309 38.4215C134.211 38.2416 135.182 38.5415 136.086 38.1888C136.19 36.9434 135.945 35.4963 136.086 34.28Z" fill="#CF252A"/>
<path d="M116.262 41.825C115.965 41.6014 116.263 41.4959 116.531 41.4614C117.025 41.3977 117.691 41.565 118.137 41.4577C118.275 41.425 118.246 41.1305 118.386 41.0996C121.532 40.4087 123.575 37.7525 124.826 34.6945C125.185 33.8163 125.785 32.691 125.907 31.5583C126.174 29.0639 125.792 26.4113 125.175 24.0078C125.283 24.1351 125.878 24.815 125.892 24.8678C126.343 26.5513 126.509 30.7129 126.279 32.4728C126.236 32.8109 125.936 32.7128 125.905 32.8564C125.721 33.6891 125.837 33.9691 125.476 34.8563C125.114 35.7435 124.583 36.9271 124.022 37.767C123.931 37.9016 123.446 38.1561 123.408 38.2397C123.306 38.4688 123.393 38.867 123.349 38.9124C123.286 38.9779 122.864 38.8397 122.667 38.9524C122.535 39.0288 122.409 39.6142 122.214 39.7742C121.971 39.9742 121.545 39.9287 121.351 40.0996C120.865 40.5251 121.445 40.2705 120.499 40.7905C120.368 40.8632 120.103 41.425 119.95 41.4559C119.675 41.5141 119.355 41.3996 119.11 41.4577C118.913 41.5032 119.01 41.825 118.992 41.825H116.263H116.262Z" fill="#CF252A"/>
<path d="M149.722 37.0489C149.736 36.9907 149.713 36.8907 149.727 36.7343C150.175 31.9255 149.389 26.4586 149.731 21.577C149.765 21.3461 149.398 21.5134 149.364 21.4625V36.738L149.182 36.7343C149.149 37.0834 149.302 37.1525 148.82 37.0961V21.4625C148.663 21.2407 149.267 20.3225 147.776 20.7934C147.574 20.8571 147.308 21.6225 147.172 21.7279C147.039 21.8315 146.737 21.7806 146.668 21.8606C146.574 21.9697 146.692 22.3042 146.583 22.5024C146.372 22.8824 145.47 23.546 144.986 23.2006C144.695 22.9933 145.098 22.2442 143.725 22.5551C143.214 23.1606 144.955 25.3732 145.311 25.4604C145.602 25.5313 146.23 25.1968 146.275 25.0095C146.366 24.6314 145.168 24.295 145.546 24.0114C145.642 23.9387 146.393 24.0569 146.635 24.0114V36.3744C146.635 36.3907 146.388 36.3234 146.315 36.4125C146.173 36.5889 146.332 37.0361 146.272 37.1016C146.21 37.1707 145.608 37.038 145.542 37.1016C145.517 37.127 145.508 37.8288 145.542 37.8288H150.271C150.44 36.9216 150.064 37.1943 149.72 37.0525L149.722 37.0489Z" fill="#CF252A"/>
<path d="M118.262 24.3713V28.7347C118.122 28.8402 117.898 28.3675 117.898 28.2802V24.3713H118.262Z" fill="#CF252A"/>
<path d="M121.9 117.093L121.518 118.393C120.96 118.93 120.765 119.97 120.379 120.664C120.199 120.99 118.042 123.829 117.84 123.94C117.664 124.037 117.418 123.955 117.311 124.008C117.062 124.129 117.302 124.497 116.807 124.364C116.725 123.966 116.931 122.384 116.778 122.209C116.74 122.166 116.251 122.088 116.042 121.946C115.683 121.704 115.736 121.475 115.712 121.459C115.336 121.202 115.37 121.793 115.234 121.822C113.506 122.211 112.582 122.513 111.051 123.708C110.22 124.357 109.941 125.04 109.472 125.758C109.39 125.884 108.879 126.171 108.859 126.226C108.819 126.333 108.464 128.189 108.435 128.447C108.375 128.973 108.344 131.069 108.446 131.507C108.494 131.707 109.33 132.893 109.481 133.142C109.594 133.327 109.467 133.658 109.563 133.783C109.61 133.845 110.09 133.909 110.298 134.054C111.511 134.907 113.726 135.272 115.223 134.903C115.307 134.883 116.365 134.302 116.651 134.163C120.705 132.211 124.15 128.871 127.067 125.164C129.184 122.475 131.119 119.359 133.351 116.813C135.106 114.814 136.123 114.392 138.569 113.394C138.633 113.368 138.634 113.126 138.756 113.097C139.335 112.954 140.282 113.188 140.913 113.106C141.25 113.063 141.152 112.766 141.299 112.732C141.686 112.641 142.212 112.779 142.629 112.728C142.761 113.223 142.396 112.983 142.272 113.232C141.737 114.312 141.441 114.586 141.135 115.866C141.07 116.139 140.832 116.359 140.812 116.65C140.788 116.972 141.359 118.277 141.601 118.484C141.872 118.715 142.51 118.804 142.847 118.931C143.996 119.364 144.085 119.133 145.259 119.284C146.717 119.47 149.562 120.111 150.842 120.755C150.909 120.788 151.973 121.47 152.032 121.515C152.899 122.195 153.88 123.84 152.512 124.509C151.837 124.84 151.057 124.911 150.406 125.135C149.018 125.615 146.761 125.991 147.414 127.956C147.463 128.102 149.469 130.042 149.598 130.125C149.775 130.238 150.68 130.505 150.94 130.609C151.05 130.653 150.917 131.125 151.723 130.729C151.575 131.569 152.015 131.142 152.306 131.285C154.325 132.278 159.07 134.234 160.624 135.923C161.026 136.36 160.944 137.26 161.729 137.094C161.588 138.041 161.695 139.003 160.762 139.579C159.567 140.318 157.355 140.561 155.795 140.707C154.476 140.828 154.111 140.478 153.094 140.359C150.917 140.108 148.269 140.55 146.035 140.372C144.946 141.125 146.11 141.232 146.564 141.892C146.654 142.021 146.603 142.29 146.65 142.336C146.794 142.47 147.368 142.303 147.625 142.352C147.823 142.39 147.65 142.808 147.739 142.886C147.845 142.981 148.169 142.856 148.303 142.923C148.969 143.254 149.8 143.557 150.42 143.979C150.802 144.226 153.288 144.843 153.316 144.994C153.469 145.81 152.745 145.925 152.221 146.19C152.11 146.246 152.108 146.512 151.961 146.544C151.628 146.617 150.178 146.612 149.802 146.563C149.465 146.519 149.562 146.221 149.418 146.188C149.04 146.104 148.569 146.272 148.207 146.183C148.05 146.144 148.139 145.508 147.359 146.003C147.501 145.175 147.097 145.59 146.683 145.403C146.594 145.363 146.346 144.879 146.21 144.788C145.782 144.505 144.667 143.986 144.216 143.636C143.272 142.897 142.239 141.421 141.841 140.427C141.816 140.365 141.574 140.361 141.545 140.239C141.499 140.054 141.477 138.607 141.537 138.549C141.597 138.49 143.06 138.35 143.267 138.352C146.028 138.367 148.629 138.959 151.281 139.267C152.035 139.354 153.823 139.563 153.896 138.558C153.401 138.238 152.892 138.045 152.315 137.863C150.675 137.345 148.818 136.75 147.234 136.37C146.772 136.26 146.126 136.474 145.664 136.363C145.58 136.343 144.407 135.663 144.324 135.643C143.864 135.532 143.214 135.747 142.754 135.636C142.027 135.461 140.699 134.827 139.618 134.556C138.309 134.227 137.851 134.196 136.579 133.452C136.477 133.392 136.459 133.171 136.397 133.143C136.168 133.042 135.774 133.14 135.724 133.089C135.664 133.027 135.774 132.676 135.71 132.513C135.646 132.349 135.424 132.365 135.372 132.223C135.21 131.791 135.241 130.758 135.368 130.324C135.399 130.222 136.745 128.907 136.879 128.807C137.129 128.625 138.642 127.669 138.755 127.644C140.306 127.293 142.936 126.666 144.391 125.764C144.455 125.724 145.182 124.911 145.186 124.831C145.22 124.048 145.013 124.528 144.587 124.362C144.087 124.169 143.414 123.897 142.934 123.702C140.199 122.588 136.157 122.009 132.942 122.593C132.787 122.622 130.739 123.413 130.657 123.506C130.501 123.686 130.912 124.108 129.948 124.058C127.565 126.302 125.296 129.145 122.844 131.267C121.663 132.289 119.424 134.091 118.199 134.854C118.009 134.972 117.047 135.218 116.858 135.336C116.704 135.432 116.456 135.965 116.305 135.998C115.319 136.211 114.932 136.389 113.95 136.792C113.686 136.901 111.365 137.463 111.071 137.452C110.591 137.436 108.743 136.907 108.284 136.752C106.236 136.069 104.476 135.314 103.164 133.552C102.346 132.453 101.717 130.242 101.88 128.816C102.015 127.649 102.828 125.573 103.359 124.522C104.874 121.531 107.613 119.075 109.583 116.426C110.243 115.539 110.578 115.848 111.3 115.588C111.384 115.557 112.28 114.404 112.491 114.244C112.633 114.139 112.957 114.234 113.104 114.126C114.87 112.837 116.269 111.766 118.484 111.236C118.892 111.137 120.739 110.603 120.989 110.806C121.238 111.01 121.083 111.488 121.2 111.614C121.276 111.696 121.611 111.576 121.727 111.745C121.863 111.941 121.809 112.354 121.907 112.59C121.971 112.741 122.218 112.732 122.249 112.861C122.331 113.203 122.216 113.641 122.254 114.004C122.018 114.179 121.263 114.13 120.94 114.235C120.103 114.51 117.287 116.075 116.982 116.824C116.727 117.446 118.011 116.761 118.171 116.741C119.481 116.584 120.659 116.712 121.891 117.095L121.9 117.093Z" fill="#CF252A"/>
<path d="M144.411 145.514C144.54 145.579 146.388 147.419 146.466 147.541C146.632 147.803 147.341 148.781 147.357 148.863C147.734 150.575 147.79 149.648 148.398 150.604C148.736 151.135 148.96 152.335 149.245 153.035C149.893 154.622 150.418 156.164 151.02 158.04C151.351 159.075 151.17 159.406 151.37 160.24C151.666 161.471 152.174 163.182 152.448 164.647C153.185 168.592 153.336 172.808 152.863 176.865C152.828 177.165 153.085 177.685 152.999 177.81C152.963 177.863 152.152 178.055 152.095 178.001C152.061 177.966 152.195 177.639 151.981 177.443C150.68 176.245 149.66 178.286 149.542 179.361C149.409 180.568 149.38 184.024 149.533 185.197C149.551 185.335 150.253 186.582 150.273 186.671C150.52 187.789 151.095 189.198 151.788 190.127C152.643 191.271 153.774 191.586 154.776 192.311C154.944 192.433 155.098 192.318 155.002 192.727C154.507 192.785 153.918 192.653 153.445 192.715C153.047 192.765 152.937 193.227 151.657 193.073C147.723 192.6 145.366 189.587 143.058 186.853L142.545 185.453C142.383 185.488 141.956 185.411 141.908 185.453C141.839 185.519 141.861 187.129 141.894 187.375C141.937 187.711 142.238 187.615 142.268 187.758C142.434 188.513 142.268 188.855 142.656 189.66C143.092 190.566 143.778 191.702 144.596 192.353C145.004 192.676 145.584 192.729 145.908 193.184C146.002 193.76 144.409 193.142 144.24 193.069C143.751 192.86 141.552 190.942 141.232 190.491C140.972 190.126 140.904 189.264 140.815 188.849C140.677 188.217 139.9 186.78 139.769 186.046C139.648 185.37 139.829 184.662 139.542 183.999C139.027 184.36 138.627 185.084 138.131 185.442C137.498 185.899 135.217 187.108 134.635 186.359C134.48 186.16 135.328 185.597 135.501 185.46C136.978 184.308 137.583 183.693 138.293 181.962C138.358 181.801 138.585 181.808 138.627 181.686C138.693 181.492 138.651 180.757 138.274 181.088C138.091 181.25 137.438 182.444 137.169 182.762C135.73 184.453 133.391 185.54 131.569 186.524C130.799 186.94 129.37 187.844 128.688 187.993C126.912 188.386 125.15 188.904 123.213 189.402C121.001 189.971 119.148 190.8 116.938 191.275C116.778 191.309 116.473 191.953 116.311 191.989C114.694 192.345 115.596 192.233 114.566 193.027C114.428 193.135 114.079 193.038 113.954 193.144C112.777 194.134 112.398 195.307 111.655 196.3C111.455 196.567 110.611 197.345 110.26 197.083C109.93 196.838 110.549 196.707 110.614 196.578C110.925 195.976 111.107 194.893 111.365 194.316C111.6 193.791 115.72 189.358 116.132 189.142C116.393 189.006 116.765 189.053 117.069 188.886C118.35 188.184 119.323 187.302 120.505 186.6C120.718 186.473 121.647 186.237 121.84 186.117C123.82 184.88 126.034 183.799 128.386 182.842C129.093 182.555 128.993 182.673 129.768 182.532C130.033 182.482 130.261 181.735 130.397 181.633C130.888 181.272 132.18 180.972 132.749 180.661C136.405 178.657 141.57 174.412 143.702 170.752C144.324 169.685 144.744 168.736 145.126 167.487C145.52 166.192 145.64 164.954 145.91 163.754C145.924 163.685 146.606 163.278 146.272 162.54C146.537 162.507 146.597 163.016 146.617 163.191C146.714 164.078 146.552 165.009 146.644 165.892C146.681 166.245 146.961 166.545 147.01 166.998C147.245 169.158 146.615 173.51 146.264 175.716C146.237 175.883 146.137 176.735 146.45 176.719C146.512 176.108 146.839 175.557 146.988 174.983C147.356 173.565 147.772 172.083 148.085 170.778C148.245 170.112 147.981 168.987 148.074 168.254C148.118 167.907 148.423 168.081 148.467 167.732C148.543 167.125 148.4 166.356 148.445 165.712C148.676 162.413 148.511 159.006 148.103 155.889C148.05 155.486 147.467 153.724 147.279 153.075C146.659 150.926 145.413 148.059 144.396 146.23C144.365 146.175 143.296 144.946 144.409 145.505L144.411 145.514Z" fill="#CF252A"/>
<path d="M128.398 138.238C128.522 138.643 129.57 138.789 129.892 139.016C130.606 139.518 130.743 140.203 131.054 140.672C131.156 140.825 131.689 141.083 131.716 141.225C131.789 141.616 131.645 142.056 131.727 142.425C131.758 142.568 132.058 142.472 132.101 142.808C132.674 147.197 131.498 151.742 129.177 155.044C129.051 155.222 128.337 156.215 128.262 156.271C128.129 156.373 127.815 156.317 127.747 156.393C127.634 156.52 127.807 156.933 127.694 157.064C127.629 157.14 127.26 157.073 127.085 157.269C126.911 157.466 126.956 157.882 126.825 158.071C126.72 158.224 126.436 158.16 126.339 158.251C123.651 160.78 120.001 162.513 116.567 163.274C116.483 163.293 115.31 163.976 115.229 163.996C113.421 164.431 109.199 163.754 107.504 162.887C103.67 160.927 103.079 156.202 106.68 153.515C106.737 153.473 107.641 152.87 107.771 152.788C108.361 152.422 110.28 151.757 110.905 151.646C112.891 151.295 115.008 150.981 116.931 150.55C117.298 150.468 117.742 150.613 118.131 150.539C118.208 150.524 119.088 149.528 119.152 149.355C119.619 148.086 119.266 147.708 118.246 147.01C116.964 146.132 115.152 145.768 113.615 145.465C113.008 145.345 112.66 145.619 112.091 145.083C112.147 144.225 112.953 144.466 113.406 144.361C113.472 144.346 114.323 143.656 114.386 143.641C115.891 143.299 118.466 143.03 120.183 143.259C120.279 143.272 121.74 143.996 121.842 144.059C122.04 144.183 123.32 145.832 123.346 145.95C123.579 147.024 123.12 148.012 122.438 148.823C122.098 149.226 120.925 149.962 120.847 150.053C120.758 150.157 120.85 150.457 120.787 150.517C120.714 150.586 120.188 150.541 119.903 150.65C119.543 150.786 119.304 151.257 119.223 151.271C117.968 151.517 116.465 152.464 115.409 153.153C115.303 153.222 113.915 154.997 113.844 155.14C113.381 156.068 113.473 157.211 113.961 158.126C114.217 158.606 115.179 158.782 115.483 159.266C116.533 159.573 119.661 159.88 120.681 159.635C120.819 159.602 120.79 159.307 120.93 159.276C122.327 158.969 122.3 158.747 123.506 158.202C124.453 157.773 126.21 157.477 126.912 156.293C127.152 155.888 127.405 155.402 127.353 154.911C127.242 154.802 125.81 155.104 125.528 155.177C123.417 155.713 122.564 156.228 120.15 156.015C119.926 155.995 119.479 155.773 119.412 155.588C119.07 154.64 119.583 155.046 119.941 154.906C120.98 154.5 123.431 153.384 124.388 152.671C124.77 152.386 126.083 150.704 126.314 150.602C126.545 150.501 126.936 150.592 126.985 150.542C127.034 150.493 126.943 150.099 127.045 149.872C127.083 149.786 127.915 149.199 128.025 149.039C128.606 148.203 129.324 146.204 129.541 145.219C129.571 145.081 129.864 145.11 129.899 144.97C130.112 144.086 129.908 142.437 129.53 141.596C129.251 140.974 128.704 140.738 128.486 140.499C128.397 140.403 128.493 140.098 128.424 140.034C128.309 139.932 127.989 140.059 127.864 139.994C127.682 139.899 127.713 139.674 127.593 139.645C127.049 139.51 126.209 139.768 125.661 139.636C125.523 139.603 125.55 139.314 125.412 139.279C125.008 139.179 124.306 139.55 124.444 138.912L128.397 138.238H128.398Z" fill="#CF252A"/>
<path d="M122.264 114.003C122.447 113.868 122.447 113.661 122.447 113.457H122.626C122.729 114.27 123.899 114.063 124.452 114.27C125.757 114.761 126.858 115.784 128.369 115.824C128.744 115.835 130.166 115.706 130.505 115.632C130.626 115.604 130.617 115.357 130.781 115.295C131.25 115.119 132.225 114.543 132.08 115.354C131.841 116.681 130.525 118.804 129.79 119.975C128.035 122.768 125.292 126.173 122.931 128.482C121.913 129.478 120.738 130.376 119.63 131.271C119.352 130.662 120.196 130.345 120.45 130.04C122.611 127.438 126.558 122.122 124.442 118.684C124.317 118.479 122.811 117.273 122.618 117.19C122.307 117.053 122.069 117.143 121.905 117.092C120.676 116.708 119.497 116.581 118.186 116.737C118.024 116.757 116.742 117.443 116.996 116.821C117.302 116.072 120.117 114.506 120.954 114.232C121.278 114.125 122.033 114.174 122.269 114.001L122.264 114.003Z" fill="#121519"/>
<path d="M110.261 138.181C110.325 138.25 110.189 138.841 110.261 138.91C110.3 138.947 110.705 138.861 110.938 138.965C111.002 138.992 111.262 139.454 111.424 139.561C113.726 141.085 115.565 141.223 118.362 141.099C119.161 141.065 120.112 140.778 120.903 140.727C121.267 140.703 121.187 140.768 121.176 141.09C121.107 141.141 119.725 141.388 119.494 141.468C117.955 142.001 118.066 141.959 116.22 142.228C114.819 142.432 113.45 143.139 112.386 143.576C111.995 143.736 110.863 144.041 110.609 144.256C110.15 144.641 110.369 145.001 110.205 145.405C110.185 145.455 109.457 146.163 109.403 146.174C107.739 146.514 105.029 145.934 103.248 146.166C103.017 146.197 102.632 146.87 101.897 146.544C101.599 145.503 102.191 145.552 102.41 145.155C102.592 144.821 102.535 144.401 102.69 144.057C102.752 143.923 103.552 143.381 103.657 143.216C103.819 142.963 104.032 141.879 104.087 141.825C104.134 141.776 104.53 141.867 104.758 141.765C104.985 141.663 106.302 139.979 106.684 139.694C106.886 139.543 108.146 139.009 108.388 138.849C108.512 138.767 108.805 138.252 108.857 138.236C109.052 138.172 110.218 138.127 110.267 138.179L110.261 138.181ZM105.531 142.183C105.189 142.552 104.665 142.796 104.443 143.366C104.78 143.325 105.343 142.952 105.591 142.736C105.771 142.579 105.698 142.376 105.713 142.365C107.037 141.336 108.857 140.57 110.531 140.365C111.145 140.116 109.518 139.525 109.232 139.51C108.181 139.454 106.236 141.427 105.533 142.185L105.531 142.183Z" fill="#121519"/>
<path d="M141.888 144.148C139.94 139.972 135.079 134.552 130.859 132.736C129.637 132.211 128.357 131.709 126.994 131.64C126.894 132.124 127.118 131.953 127.353 132.091C128.258 132.623 129.271 133.04 130.124 133.518C131.57 134.327 134.777 136.009 135.357 137.552C135.568 138.114 133.969 137.407 133.773 137.316C132.347 136.661 132.334 136.287 130.583 135.96C130.45 135.934 128.979 135.34 129.541 136C129.564 136.029 130.015 136.16 130.219 136.32C133.358 138.803 135.533 140.948 137.269 144.73C141.47 153.886 139.786 167.016 130.303 171.945C129.601 172.31 128.842 172.674 128.086 172.908L130.015 171.105C137.58 164.982 140.306 150.602 134.086 142.639C133.907 142.412 133.689 142.13 133.36 142.185C133.518 143.577 134.173 144.866 134.266 146.277C134.373 147.917 133.924 150.039 133.462 151.464C130.994 159.073 123.508 163.576 116.303 165.587C115.158 165.907 113.743 166 112.559 166.358C112.389 167.285 112.135 166.762 111.478 166.914C111.415 166.929 110.563 167.618 110.498 167.632C110.125 167.72 109.667 167.556 109.292 167.641C109.157 167.672 109.179 167.967 109.045 167.998C108.215 168.185 108.443 167.921 107.581 168.36C106.858 168.727 105.414 169.465 104.86 169.878C104.594 170.076 101.666 172.921 101.584 173.138C101.424 173.561 101.62 174.008 101.524 174.421C101.508 174.49 100.811 175.357 100.787 175.536C100.727 175.981 100.856 176.534 100.8 177.001C101.175 177.395 101.1 176.83 101.306 176.736C102.282 176.29 103.57 174.667 103.756 174.601C104.081 174.485 104.376 174.607 104.67 174.541C104.83 174.507 105.145 173.856 105.298 173.828C105.685 173.756 106.118 173.892 106.495 173.817C106.597 173.797 106.751 173.39 107.053 173.261C112.08 171.123 118.904 170.63 124.453 169.01C128.153 167.931 132.442 165.527 134.251 162.04C134.442 161.671 134.606 160.049 135.179 160.46C134.971 160.884 135.055 161.398 134.908 161.825C131.789 170.805 118.23 171.998 110.925 174.848C110.518 175.008 110.247 175.217 110.116 175.268C109.947 175.334 109.588 175.225 109.532 175.276C109.459 175.341 109.594 175.941 109.532 176.005C109.488 176.05 108.821 175.957 108.572 176.01C108.415 176.043 108.097 176.694 107.944 176.723C106.986 176.903 106.125 176.939 105.222 177.515C105.069 177.614 104.474 178.457 104.387 178.495C104.154 178.599 103.748 178.514 103.71 178.55C103.637 178.617 103.774 179.217 103.71 179.279C103.646 179.341 103.048 179.206 102.981 179.279C102.944 179.317 103.03 179.723 102.926 179.955C102.824 180.186 100.953 181.644 100.851 181.873C100.749 182.106 100.833 182.512 100.796 182.55C100.727 182.622 100.138 182.479 100.069 182.552C100.034 182.588 100.116 182.995 100.014 183.226C99.978 183.31 99.4905 183.564 99.3996 183.699C99.2959 183.855 99.385 184.153 99.2814 184.31C99.1777 184.464 98.6521 184.717 98.6212 184.864C98.5029 185.442 98.723 186.202 98.6048 186.78C98.572 186.939 97.9246 187.251 97.8936 187.409C97.7972 187.895 97.9755 188.478 97.8773 188.962C97.8464 189.12 97.197 189.433 97.1643 189.589C97.0133 190.291 96.9461 190.817 96.7915 191.515C96.7605 191.653 96.4677 191.624 96.4332 191.764C96.3731 192.015 96.2367 193.322 96.7933 193.095C96.6187 192.587 97.5426 191.656 97.9427 191.333C98.5157 190.869 100.202 189.864 100.738 189.398C101.137 189.053 102.948 186.924 103.243 186.902C104.168 186.831 103.699 188.186 103.192 188.355C103.017 188.413 102.662 188.322 102.615 188.366C102.541 188.435 102.686 189.022 102.613 189.091C102.57 189.131 101.931 188.96 101.586 189.517C101.189 190.158 100.916 190.627 100.431 191.273C100.4 191.313 99.8434 191.167 100.067 192C99.0977 192.375 99.2814 192.869 98.9158 193.396C98.1719 194.475 98.1974 194.022 97.8773 195.504C97.8427 195.664 97.197 195.971 97.1625 196.131C96.9897 196.934 96.9897 196.747 96.7987 197.229C96.7332 197.396 96.8442 197.758 96.7915 197.816C96.726 197.887 96.1258 197.754 96.0621 197.816C96.0166 197.86 96.1094 198.527 96.0567 198.776C96.0257 198.925 95.4965 199.174 95.3946 199.329C95.3673 199.369 94.9872 200.078 94.9763 200.127C94.909 200.418 95.0363 200.714 94.9181 201.047C94.8963 201.11 94.2779 201.447 94.2524 201.585C94.0942 202.425 94.0578 203.072 93.8796 203.876C93.8559 203.985 93.2466 205.388 93.092 205.758C92.4991 207.183 92.7519 208.323 92.4209 209.692C92.3882 209.83 92.099 209.805 92.0644 209.943C91.9862 210.272 91.9935 212.075 92.0462 212.466C92.0862 212.763 92.6683 212.828 92.4245 213.455C93.6941 213.208 92.9356 211.564 93.1575 210.674C93.1884 210.552 93.4285 210.55 93.454 210.486C93.9523 209.29 94.1742 208.166 94.6671 206.968C94.8599 206.497 94.8599 206.319 95.0236 205.861C95.0454 205.801 95.9875 205.107 96.0094 205.047C96.2804 204.294 96.395 203.636 96.8406 202.961C97.4026 202.116 97.4571 202.087 97.9464 201.147C98.0119 201.023 98.5193 200.754 98.5539 200.674C98.6557 200.44 98.5739 200.038 98.6084 200C98.6794 199.921 99.6269 200.074 99.6979 199.996C99.7324 199.956 99.6506 199.554 99.7524 199.32C99.8088 199.191 101.495 197.347 101.604 197.258C101.795 197.102 102.164 197.129 102.222 197.063C102.342 196.925 102.182 196.427 102.244 196.36C102.302 196.296 102.904 196.425 102.975 196.362C103.006 196.334 102.964 195.805 102.975 195.633C103.448 195.753 103.656 194.933 103.703 194.905C103.763 194.871 104.017 194.978 104.203 194.865C104.319 194.794 105.68 192.866 105.929 192.778C106.455 192.591 107.149 192.62 107.648 192.304C107.817 192.196 108.437 191.306 108.563 191.278C108.812 191.226 109.479 191.318 109.523 191.273C109.585 191.209 109.45 190.611 109.523 190.544C109.561 190.507 109.967 190.593 110.2 190.489C110.283 190.453 110.874 189.615 111.038 189.52C114.288 187.644 118.541 186.071 121.998 184.388C130.565 180.217 140.662 176.221 143.662 166.036C145.733 159.002 144.978 150.795 141.876 144.146L141.888 144.148ZM112.975 168.987C111.285 169.443 109.965 170.778 108.444 171.547C108.996 170.903 110.023 169.714 110.712 169.27C111.096 169.023 111.498 169.003 111.886 168.807C112.249 168.623 112.278 168.158 112.877 168.183C112.964 168.187 114.21 168.5 114.263 168.549C114.743 168.989 113.177 168.934 112.975 168.989V168.987ZM113.681 185.139C109.394 187.111 105.372 189.96 102.162 193.451C101.957 193.675 101.706 193.824 101.711 194.18C101.442 194.369 101.153 194.524 100.891 194.733C100.509 195.038 99.4742 197.007 98.9831 196.543C98.7757 196.347 100.558 193.791 100.802 193.455C101.882 191.953 103.232 190.409 104.62 189.18C107.117 186.966 110.662 184.746 114.079 184.73C114.177 185.25 113.939 185.022 113.683 185.14L113.681 185.139ZM101.895 184.908C101.835 184.017 102.522 183.186 103.074 182.542C107.295 177.599 116.358 178.412 121.629 174.91L121.678 175.421C115.863 180.155 107.977 180.761 101.895 184.908ZM127.811 173.09V172.908C127.929 172.968 127.929 173.03 127.811 173.09Z" fill="url(#paint0_linear_3006_21931)"/>
<path d="M122.627 132.911L123.002 132.145L124.082 131.274C123.766 132.211 124.464 133.374 124.457 134.096C124.452 134.507 124.208 134.718 124.124 135.043C124.055 135.309 124.126 135.941 124.075 135.994C124.039 136.031 123.593 135.98 123.366 136.096C123.138 136.212 122.991 136.532 122.68 136.689C122.078 136.99 120.863 136.898 120.221 136.718C120.026 136.663 119.746 136.043 119.586 136.011C119.015 135.894 117.409 136.25 118.702 135.356C119.132 135.06 120.13 134.672 120.39 134.489C120.767 134.223 121.611 132.747 122.265 133.274C121.702 134.174 123.399 136.127 123.71 133.9C123.864 132.789 123.68 132.191 122.629 132.911H122.627ZM121.536 134.912C120.996 134.351 120.192 136.336 121.538 135.911C121.496 135.696 121.594 134.974 121.536 134.912Z" fill="#121519"/>
<path d="M122.627 132.911C123.679 132.191 123.862 132.789 123.708 133.9C123.397 136.127 121.7 134.176 122.264 133.274C122.278 133.253 122.606 132.925 122.627 132.911Z" fill="#FEFEFE"/>
<path d="M121.678 175.423C115.863 180.157 107.977 180.763 101.895 184.91C101.835 184.019 102.522 183.188 103.074 182.544C107.295 177.601 116.358 178.414 121.629 174.912L121.678 175.423Z" fill="#FEFEFE"/>
<path d="M100.802 193.453C101.882 191.951 103.232 190.407 104.62 189.178C107.117 186.964 110.662 184.744 114.079 184.728C114.177 185.248 113.939 185.02 113.683 185.139C109.396 187.111 105.374 189.96 102.164 193.451C101.959 193.675 101.708 193.824 101.713 194.18C101.444 194.369 101.155 194.524 100.893 194.733C100.511 195.038 99.476 197.007 98.9849 196.543C98.7776 196.347 100.56 193.791 100.804 193.455L100.802 193.453Z" fill="#FEFEFE"/>
<path d="M114.263 168.547C114.743 168.987 113.177 168.932 112.975 168.987C111.285 169.443 109.965 170.778 108.444 171.547C108.996 170.903 110.023 169.714 110.712 169.27C111.096 169.023 111.498 169.003 111.886 168.807C112.249 168.623 112.278 168.158 112.877 168.183C112.964 168.187 114.21 168.5 114.263 168.549V168.547Z" fill="#FEFEFE"/>
<path d="M105.531 142.183C106.198 141.392 108.181 139.452 109.23 139.509C109.516 139.523 111.144 140.114 110.529 140.363C108.857 140.568 107.215 141.185 105.078 142.774C105.078 142.774 105.409 142.325 105.529 142.181L105.531 142.183Z" fill="#FEFEFE"/>
<path d="M121.536 134.912C121.596 134.974 121.496 135.696 121.538 135.91C120.192 136.336 120.996 134.351 121.536 134.912Z" fill="#FEFEFE"/>
</g>
<defs>
<linearGradient id="paint0_linear_3006_21931" x1="147.552" y1="145.146" x2="72.6727" y2="199.54" gradientUnits="userSpaceOnUse">
<stop offset="0.34" stop-color="#121519"/>
<stop offset="1" stop-color="#CF252A"/>
</linearGradient>
<clipPath id="clip0_3006_21931">
<rect width="256" height="256" fill="white"/>
</clipPath>
</defs>
</svg>
