<svg width="256" height="256" viewBox="0 0 256 256" fill="none" xmlns="http://www.w3.org/2000/svg">
<path d="M137.7 41.2067C137.7 41.2067 34.8059 86.9927 56.8189 203.835L49.9994 207.488C49.9994 207.488 0.507793 69.9293 137.7 33.7008V41.2067Z" fill="#FFED00"/>
<path d="M110.823 246.268C110.823 246.268 213.718 200.482 191.705 83.6401L198.524 79.9872C198.524 79.9872 248.016 217.545 110.823 253.774V246.268Z" fill="#AFCA0B"/>
<path d="M161.518 33.7008L156.404 123.572H109.62L106.561 33.7008H101.146L108.868 164.654H110.974L109.77 128.575H156.103L155.25 144.038H156.354L168.238 35.1019L161.518 33.7008Z" fill="#00AED4"/>
<path d="M38.9678 14.886C39.2687 14.5858 39.5696 14.4357 39.9206 14.3857C40.2716 14.3857 40.6226 14.3857 40.9234 14.5358C41.2243 14.6859 41.475 14.886 41.6254 15.1863C41.7759 15.4865 41.826 15.8368 41.7257 16.2871C41.6254 16.6875 41.4249 17.0878 41.124 17.4381C40.8231 17.7883 40.5223 18.1386 40.2214 18.4388C39.5194 19.1394 38.7673 19.6898 37.965 20.0401C37.1627 20.3904 36.3102 20.5405 35.4578 20.5405C34.6054 20.5405 33.8031 20.3403 32.9506 19.94C32.1483 19.5397 31.3962 18.9893 30.7443 18.2387C30.3432 17.7883 30.0423 17.2879 29.7916 16.7875C29.5409 16.2872 29.3403 15.7367 29.1899 15.1863C29.0394 14.2856 28.9391 13.4349 28.9391 12.5842C28.9391 11.6835 29.0896 10.8329 29.3403 9.98219C29.591 9.13152 29.9922 8.38093 30.4435 7.63034C30.8947 6.87975 31.4965 6.27928 32.1985 5.72885C32.6999 5.32853 33.2013 5.0283 33.7028 4.72806C34.2042 4.42782 34.7558 4.17763 35.3575 3.92743C35.7085 3.77731 36.0094 3.67723 36.3604 3.52712C36.7114 3.377 37.0624 3.27692 37.4134 3.22688C37.7644 3.17684 38.1655 3.1268 38.5165 3.1268C38.8676 3.1268 39.2186 3.22688 39.5696 3.377C39.8203 3.47708 40.071 3.62719 40.3217 3.82735C40.5724 4.02751 40.773 4.22767 41.0237 4.47786C41.2243 4.72806 41.4249 4.97826 41.5753 5.22845C41.7257 5.47865 41.826 5.72885 41.9263 5.97904C41.9764 6.22924 41.9764 6.4294 41.9263 6.67959C41.9263 6.92979 41.826 7.12995 41.7257 7.33011C41.6254 7.53026 41.475 7.68038 41.2744 7.8305C41.0739 7.98062 40.8733 8.03066 40.6226 8.0807C40.2214 8.13074 39.9206 8.0807 39.6698 7.93058C39.4693 7.78046 39.2687 7.63034 39.1684 7.43018C39.018 7.23003 38.9177 7.02987 38.7673 6.82971C38.667 6.62956 38.4664 6.47944 38.2658 6.37936C38.1154 6.37936 38.0151 6.37936 37.965 6.37936C37.3632 6.52948 36.7615 6.72963 36.1598 7.02987C35.5581 7.33011 35.0065 7.63034 34.5051 8.03066C34.0036 8.43097 33.5523 8.88133 33.1512 9.38172C32.7501 9.88211 32.4993 10.4325 32.2988 11.0831C32.0982 11.8336 31.9979 12.5842 32.048 13.3348C32.0982 14.0854 32.2988 14.836 32.6999 15.4865C32.9005 15.8868 33.2013 16.2371 33.5523 16.5373C33.9033 16.8376 34.3045 17.0377 34.7056 17.1879C35.1068 17.338 35.5581 17.388 36.0094 17.338C36.4607 17.338 36.8618 17.1378 37.263 16.8876C37.614 16.6374 37.9148 16.3372 38.2157 15.9869C38.5165 15.6366 38.7673 15.2864 38.9678 14.886Z" fill="white"/>
<path d="M43.23 13.2347C43.3303 12.7343 43.5309 12.234 43.7315 11.7336C43.932 11.2332 44.2329 10.7828 44.5338 10.3325C44.8346 9.8821 45.1856 9.48179 45.5868 9.13151C45.9879 8.78124 46.3891 8.481 46.8404 8.2308C47.6427 7.83049 48.4449 7.58029 49.2472 7.58029C50.0495 7.58029 50.8017 7.73041 51.5037 8.08068C52.2057 8.43096 52.8074 8.88131 53.2587 9.53183C53.7602 10.1823 54.061 10.983 54.2114 11.8837C54.3117 12.4841 54.3619 13.0346 54.3619 13.585C54.3619 14.1354 54.3619 14.6859 54.2114 15.2363C54.061 16.0369 53.6599 16.8876 53.1584 17.6882C52.6069 18.4889 52.0051 19.1894 51.253 19.7399C50.5008 20.2903 49.6985 20.6406 48.8461 20.8407C47.9435 20.9908 47.0911 20.8407 46.1885 20.4404C45.7873 20.2402 45.4363 20.0401 45.0853 19.7899C44.7845 19.5397 44.4836 19.2395 44.2329 18.8892C43.932 18.4889 43.6813 18.0886 43.5309 17.6882C43.3805 17.2879 43.23 16.8376 43.1297 16.3872C43.0295 15.8868 42.9793 15.3864 42.9793 14.9361C42.9793 14.4357 43.0796 13.9353 43.1799 13.4849V13.3348L43.23 13.2347ZM46.3389 13.7852C46.2888 14.0854 46.2386 14.3356 46.1885 14.5858C46.1885 14.836 46.1885 15.1362 46.1885 15.3864C46.2386 15.7867 46.3389 16.137 46.5395 16.4873C46.6899 16.8376 46.9406 17.0878 47.1914 17.2879C47.4421 17.4881 47.7931 17.5882 48.0939 17.5882C48.4449 17.5882 48.7959 17.4881 49.1971 17.2379C49.6985 16.9377 50.1498 16.4873 50.5008 15.8868C50.8518 15.2864 51.1025 14.6358 51.2028 13.9353C51.3031 13.2848 51.2028 12.6343 51.0023 12.0338C50.7515 11.4333 50.3504 10.983 49.6484 10.7328C49.1971 10.7328 48.796 10.8328 48.4449 10.983C48.0939 11.1331 47.7429 11.3833 47.4922 11.6335C47.2415 11.8837 46.9908 12.234 46.7902 12.5842C46.5896 12.9345 46.4392 13.3348 46.2888 13.7351L46.3389 13.7852Z" fill="white"/>
<path d="M65.2931 15.9369C65.6943 15.8368 66.0954 15.8368 66.3963 15.9369C66.6971 16.0369 66.9479 16.1871 67.1484 16.4373C67.2989 16.6875 67.3992 16.9376 67.3992 17.2879C67.3992 17.6382 67.2487 17.9885 66.9479 18.3388C66.6971 18.639 66.3963 18.8892 65.9951 19.0893C65.594 19.2895 65.243 19.4396 64.892 19.5897C64.0395 19.89 63.2372 20.1402 62.4851 20.2402C61.7329 20.3403 60.9808 20.3403 60.3289 20.2402C59.6771 20.1402 59.0252 19.89 58.4235 19.4897C57.8218 19.0893 57.3203 18.5889 56.7687 17.8884C56.4177 17.438 56.167 16.8876 56.0166 16.2871C55.8662 15.6867 55.7659 15.0862 55.7659 14.4357C55.7659 13.7852 55.7659 13.1847 55.9163 12.5842C56.0166 11.9838 56.2172 11.4333 56.4177 10.9329C56.7186 10.3325 57.1699 9.78202 57.8218 9.28163C58.4736 8.78124 59.1756 8.38092 59.9779 8.08068C60.7802 7.78045 61.5825 7.63033 62.3848 7.58029C63.1871 7.58029 63.9393 7.68037 64.541 7.98061C65.0424 8.2308 65.4937 8.58108 65.8948 9.03143C66.2459 9.48179 66.5467 9.98218 66.647 10.5326C66.7974 11.083 66.7974 11.6335 66.647 12.1839C66.5467 12.7343 66.2459 13.2347 65.7946 13.6851C65.3433 14.1354 64.892 14.4857 64.3404 14.7359C63.839 14.9861 63.2874 15.2363 62.7358 15.4365C62.1842 15.6366 61.5825 15.7867 61.0309 15.9369C60.4292 16.087 59.8776 16.2371 59.3261 16.3872C59.6771 16.7875 60.1284 17.0878 60.5796 17.1878C61.0309 17.2879 61.5324 17.338 62.0338 17.2379C62.5352 17.1878 63.0868 17.0377 63.5882 16.7875C64.0897 16.5874 64.5911 16.3372 65.0424 16.087L65.1928 15.9869L65.2931 15.9369ZM60.0281 11.4834C59.6269 11.7336 59.3261 11.9838 59.1255 12.334C58.9249 12.6843 58.7745 13.1347 58.7243 13.7351C59.1756 13.585 59.6771 13.4349 60.2286 13.2848C60.7802 13.1347 61.3318 12.9845 61.8332 12.7844C62.3347 12.6343 62.786 12.4341 63.137 12.234C63.488 12.0338 63.6384 11.7836 63.6384 11.5334C63.6384 11.3833 63.6384 11.2832 63.5882 11.1331C63.5882 10.983 63.4378 10.9329 63.3375 10.8829C62.8361 10.7328 62.3347 10.6827 61.8332 10.7828C61.3318 10.8829 60.8805 11.033 60.5295 11.2332L60.0782 11.4834H60.0281Z" fill="white"/>
<path d="M80.0855 17.4381C80.0855 17.4381 80.3362 17.9385 80.3362 18.2387C80.3362 18.5389 80.3362 18.8392 80.2359 19.0894C80.1356 19.3396 79.9852 19.5898 79.7846 19.7399C79.5841 19.89 79.2832 19.9901 78.9322 19.9901C78.4809 19.9901 78.1299 19.7899 77.829 19.5397C77.5282 19.2395 77.2775 18.9392 77.0267 18.589C76.3247 19.1394 75.6227 19.5397 74.9207 19.7399C74.2187 19.94 73.4666 19.9901 72.8147 19.89C72.1127 19.7899 71.4608 19.4897 70.8591 19.0393C70.2574 18.589 69.7559 17.9385 69.3046 17.1879C68.9035 16.4373 68.7029 15.6366 68.6528 14.786C68.6026 13.9353 68.6026 13.0346 68.6528 12.234C68.6528 11.9337 68.6528 11.6835 68.6528 11.4333C68.6528 11.1831 68.6528 10.8829 68.7029 10.5827C68.7029 10.3325 68.7029 10.1323 68.7029 9.93216C68.7029 9.732 68.7029 9.53184 68.7029 9.33169C68.7029 9.13153 68.8032 8.93137 68.8534 8.78125C68.9536 8.5811 69.0539 8.43098 69.2044 8.23082C69.4049 7.98062 69.6557 7.88054 69.9565 7.83051C70.2574 7.83051 70.5582 7.83051 70.809 7.93058C71.0597 8.03066 71.3104 8.18078 71.511 8.43098C71.7115 8.63114 71.8118 8.93137 71.862 9.23161C71.862 10.1323 71.862 11.033 71.8118 11.9337C71.7115 12.8344 71.7617 13.7351 71.8118 14.5858C71.8118 14.9861 71.9622 15.4365 72.1127 15.8868C72.3133 16.3372 72.564 16.6374 72.9651 16.8376C73.3663 16.9877 73.7674 16.9877 74.1686 16.8376C74.5697 16.6374 74.9207 16.3872 75.1714 16.137C75.2717 15.9869 75.4221 15.8368 75.5224 15.6867C75.6227 15.5366 75.7732 15.3864 75.9236 15.2363C75.8734 14.6359 75.8233 14.0354 75.7732 13.4349C75.7732 12.8344 75.7732 12.234 75.7732 11.6335C75.7732 11.2832 75.7732 10.9329 75.7732 10.5326C75.7732 10.1323 75.8734 9.78204 75.9737 9.43176C76.074 9.08149 76.2746 8.78125 76.4752 8.48102C76.7259 8.23082 77.0267 8.03066 77.4279 7.98062C77.6285 7.98062 77.829 7.98062 77.9795 8.03066C78.18 8.0807 78.3305 8.18078 78.4809 8.3309C78.7316 8.53106 78.882 8.78125 78.9823 9.03145C79.0826 9.28165 79.1328 9.58188 79.1328 9.88212C79.1328 10.1824 79.1328 10.4826 79.0826 10.7828C79.0826 11.0831 79.0325 11.3833 78.9823 11.6335C78.9823 12.1339 78.9322 12.6343 78.882 13.1847C78.882 13.7351 78.882 14.2856 78.9322 14.786C78.9823 15.3364 79.0826 15.8368 79.233 16.3372C79.3835 16.8376 79.5841 17.2879 79.8849 17.7383L80.0855 17.4381Z" fill="white"/>
<path d="M82.9437 11.3833C82.9437 11.3833 82.9437 11.0831 82.9437 10.7828C82.6428 10.6327 82.4422 10.4326 82.2918 10.1824C82.1414 9.93216 82.0411 9.68196 82.0411 9.38172C82.0411 9.08149 82.0411 8.83129 82.1915 8.5811C82.3419 8.3309 82.5425 8.13074 82.8434 7.93058C83.2445 7.68039 83.6958 7.68039 84.1471 7.78047C84.6485 7.93058 85.0497 8.13074 85.4007 8.43098C85.852 8.0807 86.3033 7.83051 86.7546 7.58031C87.2059 7.33011 87.7073 7.17999 88.2087 7.12995C88.7102 7.02988 89.2116 7.07992 89.713 7.12995C90.2145 7.23003 90.7159 7.43019 91.2173 7.78047C91.468 7.93058 91.6686 8.13074 91.9193 8.38094C92.1199 8.63113 92.2703 8.88133 92.3205 9.18157C92.4208 9.63192 92.3706 9.9822 92.2202 10.3325C92.0698 10.6327 91.8692 10.8829 91.5683 11.033C91.2675 11.1831 90.9666 11.2332 90.6156 11.1831C90.2646 11.1331 89.9136 10.9329 89.6127 10.6327C89.5125 10.5827 89.4122 10.4826 89.4122 10.4826C89.4122 10.4826 89.2617 10.3825 89.1614 10.3325C88.8606 10.2824 88.6099 10.2824 88.3592 10.3825C88.1084 10.4826 87.8076 10.6327 87.5569 10.8329C87.3061 11.033 87.0554 11.2332 86.8548 11.4333C86.6543 11.6335 86.4537 11.8337 86.2531 12.0338V18.689C86.2531 18.9392 86.203 19.1894 86.1027 19.4396C85.9523 19.8399 85.7015 20.1402 85.3505 20.2903C84.9995 20.4404 84.6485 20.4905 84.3477 20.4404C83.9967 20.3904 83.6958 20.1902 83.4451 19.94C83.1944 19.6398 83.0439 19.2895 83.0439 18.8892V11.5835C83.0439 11.5835 83.0439 11.5835 83.0439 11.5334L82.9437 11.3833Z" fill="white"/>
<path d="M114.233 17.388C114.534 17.8884 114.634 18.3388 114.534 18.7391C114.434 19.1394 114.233 19.4396 113.932 19.6398C113.631 19.8399 113.28 19.94 112.829 19.89C112.378 19.89 111.977 19.6398 111.576 19.2395C111.174 19.5397 110.723 19.7899 110.272 19.94C109.821 20.0901 109.319 20.2403 108.818 20.3904C108.015 20.5405 107.263 20.5405 106.561 20.3904C105.859 20.1902 105.207 19.8399 104.656 19.3896C104.104 18.9392 103.653 18.3888 103.302 17.6883C102.951 17.0377 102.75 16.2872 102.75 15.4865C102.7 14.6359 102.75 13.7852 102.951 12.9846C103.151 12.1839 103.402 11.4333 103.803 10.7828C104.204 10.1323 104.706 9.58188 105.408 9.08148C106.06 8.63113 106.812 8.28085 107.715 8.0807C108.216 7.98062 108.768 7.93058 109.319 7.93058C109.871 7.93058 110.372 7.93058 110.924 8.0807C110.924 7.68038 110.924 7.28007 110.924 6.77967C110.924 6.27928 110.924 5.77889 110.924 5.32853C110.924 4.87818 110.924 4.42782 110.974 4.07755C110.974 3.72727 111.074 3.42704 111.124 3.27692C111.225 2.97668 111.425 2.72649 111.676 2.57637C111.927 2.42625 112.177 2.32617 112.478 2.32617C112.779 2.32617 113.03 2.37621 113.28 2.52633C113.531 2.67645 113.782 2.8766 113.932 3.17684C113.932 3.27692 114.033 3.32696 114.083 3.42704C114.133 3.52712 114.183 3.57716 114.183 3.67723C114.183 5.97904 114.183 8.23082 114.183 10.4325C114.183 12.6343 114.183 14.886 114.183 17.1879C114.233 17.2879 114.333 17.388 114.384 17.4381L114.233 17.388ZM110.623 15.9369C110.623 15.9369 110.723 15.8368 110.823 15.7868C110.924 15.7367 110.974 15.6867 110.974 15.5866V13.4349C110.974 12.7344 110.974 12.0338 110.974 11.2832C110.573 11.1831 110.121 11.1331 109.67 11.1331C109.219 11.1331 108.768 11.1331 108.366 11.2832C107.915 11.3833 107.564 11.5835 107.213 11.7836C106.862 12.0338 106.561 12.3841 106.361 12.8344C106.26 13.1847 106.16 13.4849 106.06 13.8352C105.96 14.1855 105.909 14.4857 105.909 14.786C105.909 15.0862 105.909 15.3864 106.01 15.6867C106.11 15.9869 106.26 16.2872 106.461 16.5373C106.511 16.5874 106.611 16.6875 106.712 16.7375C106.812 16.7875 107.013 16.9377 107.263 17.0878C107.915 17.1378 108.517 17.0878 109.119 16.8876C109.72 16.7375 110.222 16.3872 110.673 15.8868L110.623 15.9369Z" fill="white"/>
<path d="M126.468 15.9369C126.869 15.8368 127.27 15.8368 127.571 15.9369C127.872 16.0369 128.123 16.1871 128.323 16.4373C128.474 16.6875 128.574 16.9376 128.574 17.2879C128.574 17.6382 128.424 17.9885 128.123 18.3388C127.872 18.639 127.571 18.8892 127.17 19.0893C126.769 19.2895 126.418 19.4396 126.067 19.5897C125.215 19.89 124.412 20.1402 123.66 20.2402C122.908 20.3403 122.156 20.3403 121.504 20.2402C120.852 20.1402 120.2 19.89 119.599 19.4897C118.997 19.0893 118.495 18.5889 117.944 17.8884C117.593 17.438 117.342 16.8876 117.192 16.2871C117.041 15.6867 116.941 15.0862 116.941 14.4357C116.941 13.7852 116.941 13.1847 117.091 12.5842C117.192 11.9838 117.392 11.4333 117.593 10.9329C117.894 10.3325 118.345 9.78202 118.997 9.28163C119.649 8.78124 120.351 8.38092 121.153 8.08068C121.955 7.78045 122.758 7.63033 123.56 7.58029C124.362 7.58029 125.114 7.68037 125.716 7.98061C126.217 8.2308 126.669 8.58108 127.07 9.03143C127.421 9.48179 127.722 9.98218 127.822 10.5326C127.972 11.083 127.972 11.6335 127.822 12.1839C127.722 12.7343 127.421 13.2347 126.97 13.6851C126.518 14.1354 126.067 14.4857 125.515 14.7359C125.014 14.9861 124.462 15.2363 123.911 15.4365C123.359 15.6366 122.758 15.7867 122.206 15.9369C121.604 16.087 121.053 16.2371 120.501 16.3872C120.852 16.7875 121.303 17.0878 121.755 17.1878C122.206 17.2879 122.707 17.338 123.209 17.2379C123.71 17.1878 124.262 17.0377 124.763 16.7875C125.265 16.5874 125.766 16.3372 126.217 16.087L126.368 15.9869L126.468 15.9369ZM121.203 11.4834C120.802 11.7336 120.501 11.9838 120.301 12.334C120.1 12.6843 119.95 13.1347 119.899 13.7351C120.351 13.585 120.852 13.4349 121.404 13.2848C121.955 13.1347 122.507 12.9845 123.008 12.7844C123.51 12.6343 123.961 12.4341 124.312 12.234C124.663 12.0338 124.813 11.7836 124.813 11.5334C124.813 11.3833 124.813 11.2832 124.763 11.1331C124.763 10.983 124.613 10.9329 124.513 10.8829C124.011 10.7328 123.51 10.6827 123.008 10.7828C122.507 10.8829 122.056 11.033 121.705 11.2332L121.253 11.4834H121.203Z" fill="white"/>
<path d="M129.928 17.6883C129.828 17.388 129.778 17.0878 129.778 16.8376C129.778 16.5374 129.878 16.2872 129.978 16.037C130.129 15.7868 130.279 15.6367 130.53 15.4865C130.781 15.3364 131.081 15.2864 131.432 15.3364C131.633 15.3364 131.783 15.3865 131.934 15.4865C132.084 15.5866 132.235 15.6867 132.385 15.7868C132.536 15.8868 132.636 16.037 132.786 16.1871C132.937 16.3372 133.037 16.4373 133.187 16.5374C133.488 16.7876 133.789 16.9377 134.14 17.0378C134.491 17.1378 134.842 17.2379 135.193 17.2879C135.444 17.2879 135.644 17.2379 135.795 17.0878C135.945 16.9877 136.046 16.8376 136.096 16.6374C136.146 16.4873 136.146 16.2872 136.096 16.087C136.096 15.8868 135.995 15.7367 135.895 15.5866C135.594 15.2864 135.243 15.0862 134.792 15.0362C134.341 14.9361 133.99 14.836 133.589 14.7359C133.087 14.5858 132.536 14.3356 132.034 14.0854C131.533 13.8352 131.132 13.4349 130.831 12.9846C130.48 12.4842 130.279 11.9838 130.229 11.4333C130.179 10.8829 130.229 10.3325 130.379 9.83208C130.53 9.33169 130.781 8.8313 131.132 8.38094C131.483 7.93059 131.884 7.58031 132.385 7.33012C132.736 7.12996 133.137 6.97984 133.589 6.9298C134.04 6.87976 134.441 6.87976 134.892 6.9298C135.344 6.9298 135.795 7.02988 136.196 7.18C136.647 7.33012 137.048 7.4302 137.399 7.63035C137.801 7.83051 138.152 8.08071 138.352 8.43098C138.553 8.78126 138.653 9.13153 138.653 9.48181C138.653 9.83209 138.503 10.1323 138.302 10.3825C138.101 10.6327 137.7 10.7828 137.249 10.7828C136.948 10.7828 136.697 10.7828 136.497 10.6327C136.296 10.4826 136.046 10.4326 135.795 10.3825C135.494 10.2824 135.143 10.1824 134.792 10.1323C134.441 10.1323 134.14 10.1323 133.889 10.1824C133.839 10.1824 133.739 10.2324 133.639 10.3325C133.538 10.4326 133.488 10.5326 133.438 10.6828C133.438 10.8329 133.388 10.983 133.438 11.0831C133.438 11.2332 133.538 11.3333 133.689 11.4333C134.09 11.6835 134.541 11.8337 135.043 11.9337C135.494 12.0338 135.995 12.1839 136.447 12.3341C136.898 12.4842 137.299 12.6843 137.7 12.9345C138.101 13.1847 138.402 13.535 138.703 13.9854C139.104 14.6359 139.305 15.3364 139.305 16.037C139.305 16.7375 139.154 17.4381 138.854 18.0385C138.553 18.6891 138.101 19.1894 137.55 19.6398C136.998 20.0902 136.296 20.3404 135.544 20.4404C134.993 20.4905 134.491 20.4404 133.94 20.3403C133.438 20.2403 132.887 20.0401 132.435 19.7899C131.934 19.5397 131.483 19.2395 131.081 18.8892C130.68 18.5389 130.279 18.1887 129.978 17.7883L129.878 17.6382L129.928 17.6883Z" fill="white"/>
<path d="M161.017 16.9376C161.418 17.1378 161.719 17.388 161.92 17.6882C162.12 17.9885 162.22 18.2887 162.22 18.5889C162.22 18.8892 162.12 19.1894 161.869 19.4396C161.669 19.6898 161.318 19.89 160.867 20.0401C160.716 20.0901 160.465 20.1402 160.114 20.1402C159.814 20.1402 159.362 20.1402 158.811 20.1402H156.705C155.852 20.1402 154.799 20.1402 153.546 20.1402C153.245 20.1402 152.894 20.1402 152.593 20.1402C152.292 20.1402 151.991 20.0401 151.74 19.7899C151.54 19.6398 151.389 19.3395 151.289 18.9893C151.189 18.639 151.139 18.2387 151.089 17.8884C151.089 17.4881 151.089 17.0878 151.089 16.7375C151.089 16.3372 151.089 16.0369 151.089 15.7367C151.089 15.2363 151.089 14.6358 151.089 13.9353C151.089 13.2347 151.089 12.5842 151.089 11.8837C151.089 11.1831 151.089 10.4826 151.089 9.83206V8.03064C151.089 7.12994 151.089 6.37935 151.089 5.77887C151.089 5.22844 151.139 4.77809 151.189 4.42781C151.239 4.12758 151.339 3.87738 151.49 3.72726C151.64 3.57714 151.841 3.47706 152.041 3.32695C152.242 3.22687 152.493 3.22687 152.743 3.22687C152.994 3.22687 153.245 3.32695 153.445 3.42703C153.646 3.5271 153.847 3.67722 153.997 3.87738C154.147 4.07754 154.198 4.27769 154.198 4.52789C154.198 6.62954 154.198 8.68116 154.198 10.7328C154.198 12.7844 154.147 14.836 154.147 16.8876C155.251 16.8876 156.354 16.8876 157.407 16.8876C158.51 16.8876 159.613 16.8376 160.716 16.7875H160.867L161.017 16.9376Z" fill="white"/>
<path d="M174.506 18.2887C174.656 18.7891 174.606 19.1894 174.405 19.5397C174.205 19.89 173.954 20.0901 173.603 20.1902C173.252 20.2903 172.901 20.2903 172.5 20.1902C172.099 20.0401 171.748 19.7899 171.447 19.3396C170.945 19.6898 170.494 19.94 170.043 20.0901C169.592 20.2403 169.04 20.3403 168.438 20.3403C167.536 20.3403 166.733 20.2903 166.081 20.0401C165.379 19.7899 164.778 19.4396 164.326 18.9893C163.825 18.5389 163.474 17.9384 163.273 17.2379C163.023 16.5373 162.973 15.7367 163.023 14.786C163.023 14.3857 163.123 14.0354 163.223 13.6851C163.324 13.3348 163.424 12.9846 163.574 12.6343C163.725 12.234 163.925 11.8336 164.176 11.4333C164.427 10.983 164.677 10.6327 164.928 10.3325C165.881 9.18156 167.034 8.38093 168.438 7.8305C168.689 7.73042 168.99 7.68038 169.441 7.5803C169.842 7.53026 170.294 7.48022 170.695 7.48022C171.146 7.48022 171.547 7.53026 171.948 7.63034C172.349 7.73042 172.65 7.93058 172.801 8.18078C172.951 8.38093 173.051 8.58109 173.152 8.73121C173.252 8.88133 173.252 9.03144 173.252 9.2316C173.252 9.38172 173.252 9.58188 173.252 9.78204C173.252 9.98219 173.252 10.2324 173.252 10.5326C173.252 11.033 173.252 11.4834 173.252 11.9337C173.252 12.3841 173.252 12.8344 173.252 13.3348V13.9353C173.252 14.1855 173.252 14.4357 173.252 14.7359C173.252 15.0362 173.252 15.2864 173.302 15.5366C173.302 15.7868 173.352 15.9869 173.402 16.137L174.455 18.2887H174.506ZM168.99 17.1378C168.99 17.1378 169.391 16.8876 169.642 16.7375C169.892 16.5874 170.093 16.4373 170.294 16.2371C170.143 15.3364 170.043 14.3857 170.043 13.4849C170.043 12.5842 170.043 11.6335 170.043 10.6827C169.241 10.8329 168.538 11.1831 167.937 11.6835C167.285 12.234 166.884 12.8344 166.633 13.585C166.533 13.8853 166.432 14.1855 166.382 14.4857C166.332 14.786 166.282 15.0862 166.282 15.3864C166.282 15.7868 166.382 16.137 166.583 16.3872C166.783 16.6374 166.984 16.8376 167.285 16.9877C167.536 17.1378 167.836 17.1879 168.137 17.2379C168.438 17.2379 168.739 17.2379 168.99 17.0878V17.1378Z" fill="white"/>
<path d="M186.791 18.7891C186.741 19.2395 186.59 19.5897 186.289 19.8399C186.039 20.1402 185.738 20.2903 185.387 20.3403C185.036 20.3904 184.735 20.3403 184.384 20.1902C184.033 20.0401 183.832 19.7399 183.682 19.2895C183.531 18.7891 183.481 18.2887 183.481 17.7883C183.481 17.2379 183.531 16.7875 183.531 16.3372C183.531 15.3864 183.531 14.4857 183.531 13.535C183.531 12.5842 183.531 11.6835 183.431 10.7328C183.431 10.7328 183.431 10.6827 183.381 10.6327C183.381 10.6327 183.331 10.5827 183.281 10.5326C182.88 10.4325 182.428 10.4325 181.977 10.6327C181.526 10.8329 181.125 10.983 180.824 11.2332C180.523 11.4834 180.272 11.7836 180.021 12.1839C179.771 12.5842 179.62 12.9345 179.62 13.3348V16.9377C179.62 17.2379 179.62 17.5381 179.62 17.8384C179.62 18.1886 179.62 18.4889 179.62 18.7891C179.62 19.0893 179.47 19.3896 179.319 19.6398C179.169 19.89 178.918 20.0901 178.567 20.1902C178.367 20.2403 178.216 20.2903 178.016 20.2903C177.865 20.2903 177.665 20.2403 177.464 20.1402C177.163 20.0401 176.912 19.8399 176.762 19.5897C176.612 19.3395 176.511 19.0893 176.461 18.7891C176.411 18.4889 176.411 18.2387 176.411 17.9384C176.411 17.6882 176.411 17.438 176.411 17.2879C176.411 16.8876 176.411 16.2871 176.411 15.5366C176.411 14.786 176.411 13.9853 176.411 13.1347V9.03144C176.411 8.63112 176.511 8.33089 176.762 8.08069C177.013 7.83049 177.263 7.68037 177.564 7.5803C177.865 7.48022 178.216 7.53026 178.517 7.63034C178.868 7.73041 179.119 7.98061 179.369 8.33089C180.071 7.88053 180.824 7.5803 181.676 7.43018C182.529 7.28006 183.281 7.28006 184.033 7.53026C184.785 7.73041 185.387 8.13073 185.888 8.68116C186.39 9.23159 186.64 10.0322 186.64 11.033C186.64 11.033 186.64 11.1831 186.64 11.3332C186.64 11.4834 186.64 11.7336 186.64 12.0838V18.7391L186.791 18.7891Z" fill="white"/>
<path d="M201.383 17.388C201.683 17.8884 201.784 18.3388 201.683 18.7391C201.583 19.1394 201.383 19.4396 201.082 19.6398C200.781 19.8399 200.43 19.94 199.979 19.89C199.527 19.89 199.126 19.6398 198.725 19.2395C198.324 19.5397 197.872 19.7899 197.421 19.94C196.97 20.0901 196.468 20.2403 195.967 20.3904C195.165 20.5405 194.413 20.5405 193.711 20.3904C193.009 20.1902 192.357 19.8399 191.805 19.3896C191.254 18.9392 190.802 18.3888 190.451 17.6883C190.1 17.0377 189.9 16.2872 189.9 15.4865C189.85 14.6359 189.9 13.7852 190.1 12.9846C190.301 12.1839 190.552 11.4333 190.953 10.7828C191.354 10.1323 191.855 9.58188 192.557 9.08148C193.209 8.63113 193.961 8.28085 194.864 8.0807C195.365 7.98062 195.917 7.93058 196.468 7.93058C197.02 7.93058 197.521 7.93058 198.073 8.0807C198.073 7.68038 198.073 7.28007 198.073 6.77967C198.073 6.27928 198.073 5.77889 198.073 5.32853C198.073 4.87818 198.073 4.42782 198.123 4.07755C198.123 3.72727 198.224 3.42704 198.274 3.27692C198.374 2.97668 198.575 2.72649 198.825 2.57637C199.076 2.42625 199.327 2.32617 199.628 2.32617C199.928 2.32617 200.179 2.37621 200.43 2.52633C200.681 2.67645 200.931 2.8766 201.082 3.17684C201.082 3.27692 201.182 3.32696 201.232 3.42704C201.282 3.52712 201.332 3.57716 201.332 3.67723C201.332 5.97904 201.332 8.23082 201.332 10.4325C201.332 12.6343 201.332 14.886 201.332 17.1879C201.383 17.2879 201.483 17.388 201.533 17.4381L201.383 17.388ZM197.772 15.9369C197.772 15.9369 197.872 15.8368 197.973 15.7868C198.073 15.7367 198.123 15.6867 198.123 15.5866V13.4349C198.123 12.7344 198.123 12.0338 198.123 11.2832C197.722 11.1831 197.271 11.1331 196.819 11.1331C196.368 11.1331 195.917 11.1331 195.516 11.2832C195.064 11.3833 194.713 11.5835 194.362 11.7836C194.011 12.0338 193.711 12.3841 193.51 12.8344C193.41 13.1847 193.309 13.4849 193.209 13.8352C193.109 14.1855 193.059 14.4857 193.059 14.786C193.059 15.0862 193.059 15.3864 193.159 15.6867C193.259 15.9869 193.41 16.2872 193.61 16.5373C193.66 16.5874 193.761 16.6875 193.861 16.7375C193.961 16.7875 194.162 16.9377 194.413 17.0878C195.064 17.1378 195.666 17.0878 196.268 16.8876C196.87 16.7375 197.371 16.3872 197.822 15.8868L197.772 15.9369Z" fill="white"/>
<path d="M213.617 15.9369C214.019 15.8368 214.42 15.8368 214.721 15.9369C215.021 16.0369 215.272 16.1871 215.473 16.4373C215.623 16.6875 215.723 16.9376 215.723 17.2879C215.723 17.6382 215.573 17.9885 215.272 18.3388C215.021 18.639 214.721 18.8892 214.319 19.0893C213.918 19.2895 213.567 19.4396 213.216 19.5897C212.364 19.89 211.562 20.1402 210.809 20.2402C210.057 20.3403 209.305 20.3403 208.653 20.2402C208.001 20.1402 207.35 19.89 206.748 19.4897C206.146 19.0893 205.645 18.5889 205.093 17.8884C204.742 17.438 204.491 16.8876 204.341 16.2871C204.19 15.6867 204.09 15.0862 204.09 14.4357C204.09 13.7852 204.09 13.1847 204.241 12.5842C204.341 11.9838 204.542 11.4333 204.742 10.9329C205.043 10.3325 205.494 9.78202 206.146 9.28163C206.798 8.78124 207.5 8.38092 208.302 8.08068C209.105 7.78045 209.907 7.63033 210.709 7.58029C211.511 7.58029 212.264 7.68037 212.865 7.98061C213.367 8.2308 213.818 8.58108 214.219 9.03143C214.57 9.48179 214.871 9.98218 214.971 10.5326C215.122 11.083 215.122 11.6335 214.971 12.1839C214.871 12.7343 214.57 13.2347 214.119 13.6851C213.668 14.1354 213.216 14.4857 212.665 14.7359C212.163 14.9861 211.612 15.2363 211.06 15.4365C210.509 15.6366 209.907 15.7867 209.355 15.9369C208.754 16.087 208.202 16.2371 207.65 16.3872C208.001 16.7875 208.453 17.0878 208.904 17.1878C209.355 17.2879 209.857 17.338 210.358 17.2379C210.86 17.1878 211.411 17.0377 211.913 16.7875C212.414 16.5874 212.915 16.3372 213.367 16.087L213.517 15.9869L213.617 15.9369ZM208.352 11.4834C207.951 11.7336 207.65 11.9838 207.45 12.334C207.249 12.6843 207.099 13.1347 207.049 13.7351C207.5 13.585 208.001 13.4349 208.553 13.2848C209.105 13.1347 209.656 12.9845 210.158 12.7844C210.659 12.6343 211.11 12.4341 211.461 12.234C211.812 12.0338 211.963 11.7836 211.963 11.5334C211.963 11.3833 211.963 11.2832 211.913 11.1331C211.913 10.983 211.762 10.9329 211.662 10.8829C211.16 10.7328 210.659 10.6827 210.158 10.7828C209.656 10.8829 209.205 11.033 208.854 11.2332L208.403 11.4834H208.352Z" fill="white"/>
<path d="M217.077 17.6883C216.977 17.388 216.927 17.0878 216.927 16.8376C216.927 16.5374 217.027 16.2872 217.128 16.037C217.278 15.7868 217.428 15.6367 217.679 15.4865C217.93 15.3364 218.231 15.2864 218.582 15.3364C218.782 15.3364 218.933 15.3865 219.083 15.4865C219.234 15.5866 219.384 15.6867 219.534 15.7868C219.685 15.8868 219.785 16.037 219.936 16.1871C220.086 16.3372 220.186 16.4373 220.337 16.5374C220.638 16.7876 220.938 16.9377 221.289 17.0378C221.64 17.1378 221.991 17.2379 222.342 17.2879C222.593 17.2879 222.794 17.2379 222.944 17.0878C223.095 16.9877 223.195 16.8376 223.245 16.6374C223.295 16.4873 223.295 16.2872 223.245 16.087C223.245 15.8868 223.145 15.7367 223.044 15.5866C222.744 15.2864 222.393 15.0862 221.941 15.0362C221.49 14.9361 221.139 14.836 220.738 14.7359C220.236 14.5858 219.685 14.3356 219.183 14.0854C218.682 13.8352 218.281 13.4349 217.98 12.9846C217.629 12.4842 217.428 11.9838 217.378 11.4333C217.328 10.8829 217.378 10.3325 217.529 9.83208C217.679 9.33169 217.93 8.8313 218.281 8.38094C218.632 7.93059 219.033 7.58031 219.534 7.33012C219.885 7.12996 220.287 6.97984 220.738 6.9298C221.189 6.87976 221.59 6.87976 222.042 6.9298C222.493 6.9298 222.944 7.02988 223.345 7.18C223.797 7.33012 224.198 7.4302 224.549 7.63035C224.95 7.83051 225.301 8.08071 225.502 8.43098C225.702 8.78126 225.802 9.13153 225.802 9.48181C225.802 9.83209 225.652 10.1323 225.451 10.3825C225.251 10.6327 224.85 10.7828 224.398 10.7828C224.098 10.7828 223.847 10.7828 223.646 10.6327C223.446 10.4826 223.195 10.4326 222.944 10.3825C222.643 10.2824 222.292 10.1824 221.941 10.1323C221.59 10.1323 221.289 10.1323 221.039 10.1824C220.989 10.1824 220.888 10.2324 220.788 10.3325C220.688 10.4326 220.638 10.5326 220.587 10.6828C220.587 10.8329 220.537 10.983 220.587 11.0831C220.587 11.2332 220.688 11.3333 220.838 11.4333C221.239 11.6835 221.691 11.8337 222.192 11.9337C222.643 12.0338 223.145 12.1839 223.596 12.3341C224.047 12.4842 224.449 12.6843 224.85 12.9345C225.251 13.1847 225.552 13.535 225.853 13.9854C226.254 14.6359 226.454 15.3364 226.454 16.037C226.454 16.7375 226.304 17.4381 226.003 18.0385C225.702 18.6891 225.251 19.1894 224.699 19.6398C224.148 20.0902 223.446 20.3404 222.693 20.4404C222.142 20.4905 221.64 20.4404 221.089 20.3403C220.587 20.2403 220.036 20.0401 219.585 19.7899C219.083 19.5397 218.632 19.2395 218.231 18.8892C217.83 18.5389 217.428 18.1887 217.128 17.7883L217.027 17.6382L217.077 17.6883Z" fill="white"/>
<path d="M74.9709 197.029C74.9207 197.63 74.67 198.13 74.2187 198.48C73.7674 198.881 73.3161 199.131 72.8147 199.231C72.3133 199.331 71.862 199.281 71.4107 199.081C71.0095 198.881 70.7588 198.43 70.7588 197.78C70.6585 195.028 70.5582 192.175 70.5582 189.173V180.316C70.1571 180.166 69.9064 179.966 69.7058 179.666C69.5052 179.365 69.4049 179.065 69.3548 178.715C69.3548 178.365 69.3548 178.014 69.5052 177.664C69.6557 177.314 69.8061 177.014 70.0568 176.713C70.3075 176.413 70.6585 176.163 71.16 175.913C71.6113 175.662 72.1127 175.462 72.6643 175.262C73.2158 175.062 73.7173 174.862 74.2689 174.762C74.8204 174.612 75.2216 174.512 75.6227 174.462C77.127 174.161 78.6815 174.161 80.1858 174.462C81.7402 174.762 83.0941 175.362 84.2474 176.213C85.4007 177.064 86.3033 178.164 86.8549 179.465C87.4566 180.817 87.5067 182.368 87.0554 184.069C86.905 184.569 86.7546 185.02 86.5039 185.52C86.3033 186.021 86.0526 186.421 85.7517 186.871C85.3506 187.472 84.8491 188.072 84.2975 188.523C83.746 189.023 83.1442 189.423 82.4924 189.874C82.9437 190.374 83.395 190.874 83.7961 191.375C84.1973 191.925 84.6485 192.376 85.15 192.826C85.3506 192.976 85.6013 193.276 86.0024 193.627C86.3534 193.977 86.7546 194.377 87.1056 194.778C87.4566 195.178 87.7574 195.578 88.0082 195.978C88.2589 196.379 88.4093 196.729 88.3592 196.979C88.3592 197.43 88.2087 197.83 87.958 198.23C87.7073 198.581 87.4566 198.881 87.1056 199.081C86.8047 199.281 86.4036 199.381 86.0526 199.381C85.7016 199.381 85.3004 199.231 84.8993 198.981C84.448 198.631 84.0468 198.23 83.6958 197.78C83.2947 197.33 82.9437 196.879 82.5927 196.529C81.7904 195.678 81.0382 194.778 80.2861 193.927C79.5339 193.026 78.7316 192.175 77.9795 191.375C77.478 191.475 77.0267 191.525 76.5253 191.575C76.0239 191.575 75.5224 191.675 75.0711 191.725V197.079L74.9709 197.029ZM81.4394 179.616C80.4866 179.015 79.4336 178.715 78.2803 178.665C77.127 178.615 76.0239 178.765 74.9709 179.115V187.272C76.074 187.222 77.127 187.071 78.18 186.871C79.2331 186.671 80.1858 186.221 81.0884 185.52C81.5898 185.12 81.9408 184.67 82.2417 184.169C82.5425 183.669 82.7431 183.118 82.7932 182.568C82.8434 182.017 82.7932 181.517 82.5927 180.967C82.3921 180.466 81.9909 180.016 81.4394 179.616Z" fill="white"/>
<path d="M106.912 195.128C107.113 195.428 107.263 195.828 107.313 196.229C107.313 196.629 107.313 197.029 107.163 197.43C107.013 197.78 106.812 198.13 106.511 198.33C106.21 198.58 105.809 198.681 105.358 198.631C104.756 198.631 104.205 198.38 103.854 197.98C103.452 197.58 103.101 197.179 102.75 196.679C101.798 197.43 100.845 197.98 99.842 198.28C98.8392 198.581 97.8865 198.631 96.8836 198.48C95.9309 198.33 95.0283 197.93 94.1758 197.279C93.3234 196.629 92.6214 195.778 92.0698 194.727C91.5182 193.727 91.2675 192.626 91.1672 191.375C91.1171 190.174 91.0669 188.973 91.1171 187.872C91.1171 187.472 91.1171 187.121 91.1171 186.721C91.1171 186.371 91.1171 185.971 91.1672 185.57C91.1672 185.27 91.1672 184.97 91.1672 184.67C91.1672 184.369 91.1672 184.069 91.2174 183.819C91.2174 183.569 91.3177 183.268 91.4179 183.018C91.5182 182.768 91.6687 182.518 91.9194 182.268C92.2202 181.967 92.5712 181.767 92.9724 181.717C93.3735 181.667 93.7747 181.717 94.1257 181.867C94.4767 182.017 94.8277 182.218 95.0784 182.518C95.3793 182.818 95.5297 183.168 95.5297 183.619C95.5297 184.82 95.5297 186.071 95.4294 187.322C95.3291 188.573 95.3291 189.774 95.4294 190.975C95.4294 191.575 95.63 192.125 95.8807 192.726C96.1314 193.326 96.5326 193.777 97.0842 194.027C97.6357 194.277 98.1873 194.227 98.7389 193.977C99.2905 193.677 99.7418 193.376 100.143 192.976C100.293 192.776 100.494 192.576 100.644 192.326C100.795 192.075 100.995 191.875 101.146 191.725C101.045 190.874 100.995 190.024 100.945 189.223C100.945 188.372 100.945 187.522 100.945 186.721C100.945 186.271 100.945 185.77 100.995 185.22C101.045 184.67 101.146 184.169 101.296 183.669C101.447 183.168 101.697 182.768 101.998 182.368C102.299 182.017 102.75 181.767 103.352 181.667C103.603 181.667 103.854 181.667 104.104 181.717C104.355 181.817 104.556 181.967 104.756 182.118C105.107 182.418 105.308 182.718 105.458 183.068C105.558 183.419 105.659 183.819 105.659 184.219C105.659 184.62 105.659 185.02 105.558 185.47C105.508 185.871 105.458 186.271 105.408 186.621C105.408 187.272 105.308 188.022 105.308 188.723C105.308 189.423 105.308 190.224 105.358 190.975C105.408 191.725 105.558 192.426 105.759 193.126C105.96 193.827 106.26 194.477 106.662 195.028L106.912 195.128Z" fill="white"/>
<path d="M110.372 205.486C109.971 204.986 109.77 204.485 109.72 203.935C109.72 203.384 109.821 202.934 110.071 202.534C110.322 202.133 110.723 201.883 111.225 201.733C111.726 201.583 112.278 201.683 112.879 201.933C113.13 202.133 113.381 202.283 113.581 202.383C113.782 202.484 114.083 202.634 114.484 202.834C114.835 202.984 115.236 203.134 115.687 203.234C116.139 203.334 116.59 203.334 116.991 203.284C117.793 203.284 118.445 203.084 118.897 202.884C119.348 202.634 119.649 202.333 119.849 201.983C120.05 201.633 120.15 201.133 120.2 200.632C120.2 200.082 120.25 199.481 120.25 198.831C119.498 199.081 118.696 199.281 117.944 199.431C117.192 199.581 116.389 199.581 115.587 199.481C113.982 199.281 112.679 198.731 111.676 197.78C110.673 196.829 109.921 195.728 109.419 194.427C108.968 193.126 108.768 191.725 108.868 190.274C108.968 188.823 109.319 187.422 109.871 186.171C110.222 185.47 110.723 184.77 111.375 184.169C111.977 183.569 112.679 183.068 113.481 182.668C114.283 182.268 115.086 182.017 115.938 181.917C116.791 181.817 117.593 181.917 118.395 182.118C118.846 182.268 119.298 182.468 119.749 182.618C120.2 182.768 120.601 183.018 121.003 183.268C121.454 182.868 122.005 182.668 122.607 182.668C123.209 182.668 123.76 182.968 124.162 183.519C124.262 183.669 124.362 183.819 124.462 184.019C124.563 184.219 124.663 184.369 124.663 184.519C124.663 187.071 124.663 189.674 124.663 192.226C124.663 194.778 124.663 197.33 124.663 199.932C124.663 200.982 124.513 201.933 124.262 202.834C123.961 203.735 123.56 204.485 123.008 205.186C122.457 205.886 121.755 206.437 120.952 206.837C120.15 207.287 119.197 207.538 118.094 207.688C117.543 207.688 116.991 207.738 116.49 207.738C115.988 207.738 115.437 207.688 114.885 207.538C114.133 207.387 113.381 207.137 112.679 206.837C111.977 206.487 111.275 206.136 110.573 205.736L110.422 205.586L110.372 205.486ZM114.634 194.477C115.687 194.978 116.69 195.128 117.543 194.978C118.395 194.828 119.348 194.377 120.25 193.777V188.072C119.548 187.372 118.897 186.871 118.195 186.621C117.543 186.321 116.74 186.271 115.838 186.371C115.687 186.471 115.487 186.571 115.336 186.621C115.186 186.671 115.035 186.771 114.835 186.821C114.333 187.422 113.932 187.972 113.682 188.473C113.431 188.973 113.28 189.573 113.23 190.124C113.23 190.674 113.23 191.275 113.381 191.875C113.531 192.476 113.732 193.126 113.982 193.777C114.033 193.877 114.183 194.027 114.283 194.127C114.434 194.227 114.534 194.377 114.584 194.427L114.634 194.477Z" fill="white"/>
<path d="M134.692 198.881C133.99 198.881 133.338 198.881 132.686 198.731C132.034 198.631 131.432 198.43 130.781 198.13C130.48 198.28 130.179 198.38 129.878 198.38C129.577 198.38 129.276 198.38 129.026 198.23C128.775 198.13 128.574 198.03 128.374 197.88C128.173 197.73 128.073 197.63 127.973 197.58C127.722 197.179 127.571 196.779 127.521 196.279C127.521 195.778 127.622 195.328 127.973 194.928V176.413C127.973 175.863 128.173 175.412 128.574 175.012C128.975 174.662 129.427 174.412 129.928 174.311C130.43 174.211 130.931 174.311 131.382 174.562C131.834 174.812 132.185 175.312 132.335 176.013C132.435 176.463 132.485 176.863 132.586 177.314C132.636 177.714 132.686 178.214 132.686 178.765C132.686 179.315 132.686 179.966 132.686 180.666C132.686 181.367 132.686 182.268 132.586 183.319C132.786 183.218 133.037 183.068 133.238 182.968C133.488 182.868 133.689 182.768 133.94 182.618C134.591 182.318 135.344 182.118 136.096 182.017C136.848 181.967 137.6 182.017 138.352 182.168C139.104 182.318 139.756 182.618 140.408 183.018C141.06 183.419 141.561 183.969 141.963 184.67C142.564 185.62 142.915 186.771 143.116 188.022C143.316 189.273 143.316 190.574 143.116 191.825C142.915 193.076 142.514 194.277 141.862 195.328C141.21 196.429 140.308 197.229 139.155 197.73C138.453 198.08 137.7 198.33 136.948 198.48C136.196 198.681 135.394 198.781 134.642 198.781L134.692 198.881ZM132.435 189.674V193.977C132.435 193.977 132.536 194.077 132.586 194.077C132.586 194.077 132.686 194.127 132.736 194.177C134.892 194.878 136.798 194.427 138.352 192.726C138.703 191.775 138.904 190.874 138.854 190.024C138.854 189.173 138.703 188.272 138.352 187.272C138.252 186.971 138.051 186.821 137.751 186.721C137.45 186.621 137.249 186.521 136.998 186.421C136.597 186.371 136.196 186.421 135.745 186.621C135.293 186.821 134.892 187.121 134.441 187.422C134.04 187.722 133.639 188.122 133.338 188.473C132.987 188.873 132.736 189.173 132.536 189.423L132.335 189.623L132.435 189.674Z" fill="white"/>
<path d="M157.156 182.068C157.457 181.567 157.808 181.267 158.259 181.067C158.71 180.867 159.112 180.867 159.563 180.917C159.964 181.017 160.365 181.217 160.666 181.567C160.967 181.917 161.167 182.368 161.268 182.918C161.268 183.319 161.268 183.919 161.017 184.67C160.816 185.42 160.566 186.171 160.265 186.971C159.964 187.772 159.663 188.523 159.362 189.223C159.061 189.924 158.811 190.524 158.61 190.924C157.808 192.726 156.905 194.477 155.953 196.229C155 197.98 153.997 199.681 152.994 201.383C152.844 201.633 152.693 201.983 152.493 202.333C152.292 202.734 152.092 203.134 151.891 203.534C151.69 203.935 151.49 204.335 151.239 204.685C151.039 205.036 150.838 205.286 150.637 205.486C150.186 205.886 149.735 206.136 149.283 206.186C148.832 206.237 148.431 206.186 148.03 205.986C147.679 205.786 147.378 205.486 147.127 205.086C146.877 204.685 146.826 204.185 146.877 203.634C146.877 203.434 146.977 203.134 147.177 202.784C147.328 202.434 147.528 202.083 147.779 201.683C147.98 201.333 148.23 200.932 148.431 200.632C148.632 200.282 148.832 200.032 148.932 199.781C149.434 198.981 149.885 198.18 150.336 197.43C150.788 196.629 151.239 195.828 151.69 195.078C150.086 193.777 148.732 192.276 147.579 190.674C146.425 189.073 145.523 187.272 144.871 185.32C144.771 184.97 144.62 184.67 144.52 184.319C144.42 183.969 144.369 183.619 144.42 183.268C144.42 182.868 144.57 182.518 144.771 182.168C144.971 181.867 145.172 181.567 145.473 181.367C145.773 181.167 146.074 181.067 146.475 181.017C146.826 181.017 147.228 181.067 147.629 181.267C147.93 181.417 148.18 181.667 148.381 181.967C148.581 182.268 148.732 182.568 148.832 182.918C148.932 183.268 149.033 183.619 149.133 183.969C149.233 184.319 149.334 184.67 149.434 184.92C150.387 187.272 151.841 189.323 153.796 191.025C154.498 189.573 155.1 188.122 155.652 186.671C156.203 185.22 156.705 183.719 157.106 182.218L157.256 182.017L157.156 182.068Z" fill="white"/>
</svg>
