<svg width="256" height="256" viewBox="0 0 256 256" fill="none" xmlns="http://www.w3.org/2000/svg">
<g clip-path="url(#clip0_3438_1588)">
<path d="M227.941 21.7505C228.316 23.7391 228.599 25.7547 228.829 27.7675C232.729 61.9378 234.526 97.5656 229.375 131.656C224.387 164.673 206.903 196.259 183.054 219.297C168.424 233.43 148.298 247.12 129.632 255.287C129.178 255.485 127.948 256.058 127.555 255.994C127.369 255.964 126.87 255.712 126.638 255.616C111.948 249.505 94.9524 238.494 82.6668 228.399C52.3072 203.451 30.7063 167.459 25.6527 128.103C21.7569 97.7649 24.1534 67.2558 26.49 36.8791C26.8745 31.887 27.4455 26.9063 27.5793 21.8929C27.7502 21.4929 34.5124 18.6303 35.4636 18.236C56.7926 9.36497 82.0388 3.75795 105.02 1.21991C125.416 -1.03201 144.739 -0.0555133 164.941 3.23553C186.539 6.75434 208.115 12.5251 227.94 21.7505H227.941Z" fill="#030303"/>
<path d="M222.278 45.5437C222.263 45.4441 222.237 45.2832 222.204 45.0754C222.035 43.9864 221.883 43.0569 221.753 42.3139L220.89 37.3645L216.272 35.3802C198.59 27.7846 178.278 22.3654 155.898 19.2765C146.054 17.9171 136.699 17.2566 127.298 17.2566C118.582 17.2566 109.944 17.8218 100.887 18.9861C77.7998 21.9512 56.7528 27.48 38.3286 35.4186L33.6723 37.4243L32.8436 42.4249C32.6941 43.3245 32.509 44.5188 32.2911 45.9736C32.2413 46.3124 32.2028 46.57 32.1815 46.7024C28.9463 66.9199 27.5324 84.7758 27.8584 101.288C28.2543 121.273 31.1477 139.015 36.7081 155.529C37.2592 157.575 37.796 158.89 38.2303 159.952C38.3556 160.258 38.4838 160.574 38.5991 160.876C39.8365 164.118 42.7242 170.954 44.9982 175.345C53.0548 191.353 64.4961 205.864 79.0059 218.475C91.881 229.664 106.869 239.119 123.556 246.575L127.355 248.273L131.151 246.567C147.091 239.402 161.418 230.49 173.737 220.077C187.515 208.429 198.797 194.882 207.267 179.813C207.447 179.494 207.797 178.83 208.827 176.851L208.837 176.833C209.117 176.295 209.463 175.63 209.553 175.462C210.419 173.936 212.648 169.092 213.399 167.311C213.967 165.963 215.038 163.103 216.281 159.78C216.784 158.434 217.303 157.049 217.8 155.733L217.829 155.656L217.856 155.579C219.052 152.237 220.148 148.611 221.208 144.497C228.31 116.912 228.661 84.5452 222.277 45.5437H222.278ZM216.519 143.29C215.496 147.26 214.443 150.746 213.298 153.948L213.269 154.024C212.772 155.341 212.251 156.732 211.746 158.081C210.574 161.213 209.466 164.171 208.936 165.431C208.192 167.2 206.053 171.816 205.341 173.072L205.312 173.122L205.285 173.173C205.204 173.325 204.995 173.724 204.542 174.596L204.529 174.622C203.696 176.223 203.211 177.15 203.047 177.44C194.859 192.005 183.946 205.105 170.611 216.379C158.639 226.5 144.694 235.17 129.167 242.15L127.351 242.965L125.534 242.154C109.283 234.893 94.699 225.696 82.1841 214.819C68.1527 202.624 57.0973 188.61 49.3256 173.167L49.2999 173.117C47.1114 168.893 44.3219 162.283 43.1244 159.148C42.9905 158.796 42.8453 158.443 42.7185 158.131C42.3127 157.136 41.8571 156.022 41.3843 154.266L41.3459 154.123L41.2989 153.982C35.8994 137.945 33.0871 120.676 32.7012 101.188C32.3794 84.968 33.7749 67.3939 36.9645 47.464C36.9858 47.3316 37.0228 47.0853 37.0712 46.7593L37.0826 46.6853C37.2962 45.2533 37.4785 44.0847 37.6223 43.2135L38.0182 40.8221L40.2452 39.8627C58.255 32.1034 78.8649 26.6942 101.505 23.7861C110.354 22.6487 118.79 22.0964 127.298 22.0964C136.477 22.0964 145.614 22.7427 155.236 24.0708C177.186 27.1013 197.078 32.4023 214.361 39.8271L216.57 40.7751L216.983 43.1423C217.108 43.8597 217.255 44.7608 217.42 45.8199C217.454 46.0433 217.483 46.217 217.5 46.3252C223.772 84.6505 223.452 116.367 216.52 143.29H216.519Z" fill="white"/>
<path d="M91.9892 8.61906C91.1933 8.92653 86.3306 9.26389 86.0201 9.6283C85.8308 9.85036 86.2594 11.1998 86.7891 11.0546L91.9892 10.0439C92.1174 11.1357 92.3623 12.2105 92.2754 13.3193C91.5934 13.3293 87.2091 13.903 87.024 14.1905C86.8716 14.4282 87.2006 15.3862 87.4312 15.5271C88.3824 16.1036 93.285 14.3684 93.6809 14.6175C93.94 15.6723 94.0354 16.7755 93.9671 17.8588L83.6023 19.4246L80.8926 7.49453L90.4799 5.77641C91.4481 5.86466 91.6703 7.85751 91.9892 8.62049V8.61906Z" fill="#FEFEFE"/>
<path d="M177.448 11.9186C177.314 12.0012 176.954 13.1257 177.223 13.3336L182.688 14.32C182.881 14.5506 181.734 16.8082 181.681 17.2865L176.505 16.3001C176.048 16.3442 175.726 17.5499 175.998 17.8032C176.327 18.1093 178.264 18.4424 178.822 18.5434C179.282 18.626 181.725 18.8452 181.85 18.9306C182.347 19.2723 181.261 21.5384 180.918 21.8601C180.788 21.9811 180.694 22.0366 180.512 21.9939L170.597 20.0011C171.686 16.078 173.103 12.2475 173.733 8.20056L183.623 10.0425C184.048 10.4368 183.653 12.9051 183.318 13.0204C182.719 13.2268 178.041 11.5528 177.452 11.9186H177.448Z" fill="#FEFEFE"/>
<path d="M193.941 25.8444L190.415 24.9562C189.906 24.0266 190.664 19.4701 188.623 20.1648C188.156 20.3242 187.794 23.7946 187.515 23.974C187.143 24.2131 183.783 23.3633 183.706 23.0573L187.405 11.3393C187.885 11.3009 188.368 11.3066 188.846 11.3635C190.29 11.5357 194.465 12.6304 195.512 13.5257C197.193 14.9634 196.933 17.2638 195.819 18.9676C195.291 19.7762 193.579 20.5306 193.531 20.6673C193.296 21.3349 194.34 25.4174 193.938 25.843L193.941 25.8444ZM189.824 17.0075C190.714 17.2353 192.395 17.8545 193.148 17.1499C194.509 15.8745 191.382 14.804 190.622 15.0403C190.35 15.1243 189.675 16.794 189.826 17.0075H189.824Z" fill="#FEFEFE"/>
<path d="M206.758 29.6892C206.585 29.86 203.384 28.8935 203.185 28.6344C202.812 28.149 203.292 25.369 202.818 24.3128C202.721 24.0978 201.915 23.7619 201.674 23.7334C201.394 23.6992 201.543 23.7106 201.458 23.8914C200.893 25.0928 200.713 26.465 200.067 27.6365C199.583 27.5682 196.548 26.6814 196.495 26.4622L201.156 15.0503C201.62 14.898 202.581 15.2225 203.085 15.3535C204.749 15.7834 208.177 16.7186 209.319 17.947C210.82 19.5627 210.138 22.5662 208.456 23.7733C208.056 24.0594 206.708 24.4409 206.634 24.6558L206.756 29.6906L206.758 29.6892ZM202.647 21.4146C202.698 21.4929 204.246 21.9783 204.425 21.9954C206.073 22.1562 206.998 19.9925 205.384 19.0331C205.07 18.8466 204.044 18.4965 203.72 18.6032C203.417 18.7029 202.456 21.1213 202.645 21.4146H202.647Z" fill="#FEFEFE"/>
<path d="M154.216 4.63479L153.36 9.04752C153.983 9.06461 157.508 9.8589 157.767 9.60979L158.502 5.50595L162.036 6.07106L159.678 18.0068L156.223 17.4331C155.945 17.1043 157.137 13.5428 156.929 12.8354C156.858 12.5791 153.343 12.1493 152.798 12.1877L152.072 16.5848C151.459 16.6502 148.566 16.505 148.391 15.9271L150.514 4.21059L154.215 4.63479H154.216Z" fill="#FEFEFE"/>
<path d="M52.8227 23.2879C52.3272 23.359 48.9781 24.4067 48.8571 24.5775C48.5509 25.0117 50.6014 28.0408 50.684 28.7497C50.5928 29.1454 47.8005 29.9881 47.2822 30.1148C46.4962 28.5191 45.8896 26.8266 45.1207 25.2252C44.3831 23.6878 43.3322 22.0551 42.6958 20.532C42.5804 20.2573 42.1618 19.3733 42.307 19.1684L45.7059 18.0196L47.2053 21.7249C47.4246 21.9711 48.4356 21.547 48.7745 21.4345C49.6616 21.1413 50.5131 20.7128 51.4059 20.4338C51.329 19.6139 49.327 17.0687 49.7584 16.4438C49.8908 16.2517 52.4568 15.5399 52.8896 15.3222L57.9531 25.9255C57.9417 26.3084 56.5135 26.8252 56.1405 26.9476C55.7062 27.0899 54.9543 27.4515 54.5371 27.1981C54.2652 27.033 53.0676 23.8359 52.8213 23.2879H52.8227Z" fill="#FEFEFE"/>
<path d="M112.779 3.21132C113.038 5.16858 112.801 7.15574 112.922 9.11727C112.965 9.80481 113.109 11.4347 113.51 11.9457C114.123 12.7286 116.575 12.4667 116.632 11.1158C116.455 8.43259 116.129 5.75078 116.054 3.06755L119.757 2.78286C120.001 4.69884 119.82 6.63048 119.892 8.555C119.957 10.2347 120.563 11.7535 119.828 13.4603C118.966 15.4645 113.404 15.6367 111.668 15.0688C108.961 14.1834 109.682 11.1827 109.502 8.97777C109.345 7.05325 109.069 5.13727 108.934 3.21132H112.779Z" fill="#FEFEFE"/>
<path d="M59.5237 13.4603H57.9574C58.0912 13.1329 59.2033 11.2596 59.3514 11.1884C60.4749 10.6532 62.2947 11.7848 63.5093 11.7521C63.6431 12.1549 62.6549 12.5592 62.6578 12.6774C64.3537 14.2232 65.9029 15.9955 67.4265 17.7292C68.7792 19.268 70.2089 20.7925 71.3452 22.4936C71.3452 22.6815 68.3108 23.5583 67.989 23.5498C67.2172 23.5284 67.0591 22.4338 66.6875 22.3071C66.3158 22.1804 63.1661 23.0345 63.0038 23.2765C62.7532 23.6508 63.1576 24.764 62.7987 25.0643C62.4129 25.3875 60.136 25.6992 59.5209 25.9867V13.4603H59.5237ZM62.3701 12.6076C61.1683 12.5236 60.3966 12.1165 59.6647 13.3165C60.2969 13.2083 61.053 13.1229 61.6639 12.9677C61.8404 12.9222 62.3459 12.8211 62.3701 12.6076ZM62.7987 18.1577V20.5776C63.0252 20.6758 64.6541 20.3199 64.6513 20.2203C64.6043 19.9285 63.0166 17.9001 62.7987 18.1577Z" fill="#FEFEFE"/>
<path d="M39.7283 23.9925C38.4895 23.6523 37.2421 22.9932 35.9791 23.7306C32.808 25.5811 36.7281 32.018 39.9433 29.1169C40.3007 28.7938 41.0269 27.3618 41.3473 27.4216C41.4982 27.4486 43.6526 29.181 43.6954 29.3618C43.8064 29.8315 42.8011 31.5098 42.4338 31.8927C41.8172 32.5375 40.5969 33.1154 39.734 33.3219C31.6988 35.245 27.4526 21.9754 35.3113 20.0751C36.261 19.8445 39.4506 19.6979 39.9447 20.7199C40.1284 21.1 39.9775 23.816 39.7269 23.9925H39.7283Z" fill="#FEFEFE"/>
<path d="M104.063 14.4894C103.544 14.1919 101.008 15.0019 100.249 14.8866L100.098 16.7285C98.9095 16.8438 97.7476 17.2339 96.5444 17.1627L98.2474 4.84261C99.0063 4.81984 100.897 4.15365 101.465 4.48532C101.837 4.70169 103.523 7.29239 103.923 7.86462C105.277 9.79626 107.267 12.3998 108.334 14.414C108.474 14.6773 108.839 15.1172 108.505 15.3819C108.127 15.6851 105.47 16.0097 105.008 15.7449C104.656 15.5428 104.202 14.5691 104.061 14.488L104.063 14.4894ZM102.384 12.1777L102.073 11.4219L100.819 9.75925L100.533 12.3215C101.158 12.3172 101.786 12.387 102.384 12.1763V12.1777Z" fill="#FEFEFE"/>
<path d="M216.299 26.2714C216.43 26.364 218.881 25.1796 219.153 24.9263C219.596 24.512 220.215 22.495 220.528 22.421C221.29 22.243 223.492 23.6409 224.41 23.7149C224.661 24.0679 222.723 27.0131 222.207 27.4088C220.903 28.4123 216.811 29.7561 216.18 30.6358C215.837 31.1141 215.257 32.798 214.873 33.0386C214.538 33.2478 210.968 31.7589 210.897 31.4528C211.324 30.2457 212.657 29.3902 212.597 28.055C212.527 26.4907 211.714 24.1448 211.881 22.6373C211.995 21.6096 213.174 20.3228 213.462 19.305C213.668 19.1555 216.859 20.6516 217.288 20.9491C217.429 21.4003 215.969 22.9548 215.877 23.6494C215.777 24.401 216.234 25.4928 216.299 26.27V26.2714Z" fill="#FEFEFE"/>
<path d="M78.4605 8.0511C78.4235 8.58917 79.5911 10.8895 79.3134 11.1799L76.326 11.6098V11.9642C76.3189 13.3151 79.3974 19.9328 79.1611 20.6288C79.0358 20.9961 75.5998 21.7363 74.9961 21.7035L72.1924 12.8966C71.9532 12.6859 69.121 13.9414 68.7735 13.6866L68.3521 10.6148C71.8093 10.1365 75.1641 9.14432 78.4619 8.05252L78.4605 8.0511Z" fill="#FEFEFE"/>
<path d="M146.81 6.62906L143.393 6.2006L142.682 15.3122C142.08 15.315 138.406 15.3492 138.187 15.036L139.123 5.9159L135.563 5.77356C135.869 4.73728 136.356 3.7437 136.417 2.64194C139.853 3.26257 143.359 3.52306 146.86 3.51879C147.023 3.57004 147.077 3.64548 147.068 3.81914C147.025 4.74866 146.8 5.69384 146.81 6.63048V6.62906Z" fill="#FEFEFE"/>
<path d="M170.732 7.48314L167.437 19.4203C167.111 19.631 163.344 18.9363 163.036 18.6573L166.194 6.78991C166.656 6.49241 169.961 7.50164 170.732 7.48314Z" fill="#FEFEFE"/>
<path d="M131.432 7.62406C131.634 7.82904 130.862 9.66958 130.774 10.0525C129.167 10.0781 127.549 9.99128 125.943 10.0383C125.51 10.0511 123.758 10.4767 123.606 9.95854C123.561 9.80481 124.433 7.78918 124.549 7.76071L131.431 7.62406H131.432Z" fill="#FEFEFE"/>
<path d="M127.345 238.103C111.493 231.02 97.2863 222.065 85.0975 211.471C71.4961 199.649 60.791 186.082 53.2798 171.149C53.2713 171.132 53.2627 171.115 53.2542 171.099C51.2351 167.204 48.484 160.739 47.2751 157.569C47.1228 157.17 46.9718 156.802 46.8266 156.444C46.4293 155.472 46.0548 154.555 45.6419 152.998C45.6148 152.899 45.5864 152.8 45.5536 152.703C40.2708 137.065 37.5198 120.187 37.1425 101.104C36.8264 85.1502 38.2033 67.8352 41.3502 48.1686C41.3744 48.0177 41.4185 47.7273 41.4755 47.3444C41.6862 45.9323 41.8628 44.7964 42.0052 43.9409C59.6391 36.3439 79.8332 31.0472 102.074 28.1903C110.732 27.0786 118.984 26.5376 127.301 26.5376C136.273 26.5376 145.214 27.1697 154.632 28.4693C176.199 31.4472 195.691 36.6371 212.611 43.9067C212.721 44.5359 212.861 45.3786 213.036 46.506C213.073 46.7437 213.101 46.9302 213.121 47.0441C219.293 84.7488 218.999 115.869 212.223 142.184C211.235 146.022 210.219 149.381 209.12 152.453C208.62 153.778 208.098 155.173 207.591 156.527C206.435 159.616 205.342 162.533 204.847 163.71C204.031 165.648 201.985 170.009 201.481 170.885C201.394 171.038 201.296 171.224 200.606 172.548C200.164 173.399 199.339 174.982 199.181 175.264C191.254 189.366 180.677 202.059 167.748 212.99C156.086 222.849 142.503 231.291 127.35 238.101L127.345 238.103Z" fill="#990038"/>
<path d="M37.2065 89.4035H217.423C217.211 82.3047 216.695 74.9297 215.874 67.2601H38.77C37.937 74.9795 37.4173 82.3346 37.2065 89.4035Z" fill="#21B5EF"/>
<path d="M40.557 133.975H214.09C215.495 126.935 216.47 119.565 217.016 111.832H37.6209C38.1663 119.55 39.1431 126.906 40.557 133.975Z" fill="#21B5EF"/>
<path d="M46.8665 156.545C46.9989 156.871 47.1356 157.207 47.2737 157.569C48.484 160.739 51.2351 167.204 53.2528 171.099C53.2613 171.116 53.2699 171.133 53.2784 171.149C54.5628 173.702 55.944 176.216 57.4135 178.689H197.18C197.862 177.557 198.529 176.417 199.175 175.265C199.335 174.984 200.158 173.399 200.601 172.549C201.29 171.224 201.388 171.038 201.475 170.887C201.979 170.009 204.025 165.65 204.841 163.711C205.335 162.537 206.424 159.629 207.578 156.547H46.8665V156.545Z" fill="#21B5EF"/>
<path d="M74.6857 201.483C77.9408 204.935 81.4109 208.267 85.0974 211.471C90.0812 215.803 95.401 219.86 101.034 223.626H153.603C158.582 220.294 163.302 216.745 167.744 212.991C172.054 209.347 176.102 205.505 179.878 201.483H74.6857Z" fill="#21B5EF"/>
<path d="M102.071 28.1903C79.8303 31.0472 59.6362 36.3439 42.0023 43.9409C41.9511 44.2484 41.8955 44.5943 41.8357 44.9743H212.788C212.721 44.5644 212.661 44.2099 212.607 43.9067C195.685 36.6371 176.195 31.4472 154.628 28.4693C145.21 27.1697 136.271 26.5376 127.297 26.5376C118.98 26.5376 110.728 27.0786 102.069 28.1903H102.071Z" fill="#21B5EF"/>
<path d="M215.378 156.168C212.799 153.213 209.12 150.836 205.018 149.476C202.151 148.527 198.882 148.044 195.301 148.044C192.873 148.044 190.259 148.267 187.533 148.704C184.537 149.185 181.4 150.113 177.946 151.542C177.943 151.542 177.94 151.545 177.937 151.546C176.636 148.267 175.295 144.94 173.889 141.68C173.724 141.299 173.418 140.994 173.035 140.833C171.956 140.376 170.801 140.146 169.605 140.146C167.13 140.146 164.839 141.098 162.703 142.073C160.689 142.993 158.757 144.084 156.889 145.141C154.122 146.705 151.511 148.183 148.642 149.158C142.61 151.207 135.107 152.336 127.516 152.336C118.651 152.336 110.291 150.813 103.976 148.046C102.626 147.455 100.93 146.491 99.1331 145.472C94.7488 142.983 89.7779 140.163 85.6556 140.163C85.1088 140.163 84.5805 140.213 84.0864 140.312C83.373 140.456 81.7199 140.789 81.2272 142.258L77.3755 151.953C77.132 151.731 76.8144 151.521 76.4044 151.331C76.3531 151.307 76.3018 151.284 76.2548 151.26C74.0235 150.121 70.1533 149.138 67.5005 148.705C64.6997 148.248 62.1565 148.027 59.7259 148.027C53.3553 148.027 48.0184 149.569 43.4106 152.741C41.9852 153.721 40.5114 154.802 39.5289 156.264C39.2 156.753 39.1644 157.384 39.4364 157.906C39.7083 158.43 40.2437 158.763 40.8347 158.776C43.2995 158.83 46.1844 159.001 48.8841 159.869C50.328 160.333 51.4045 160.917 51.8858 161.305C51.3575 161.737 50.3807 162.366 49.7969 162.742C49.1063 163.186 48.5096 163.57 48.1109 163.899C46.1416 165.523 44.0314 168.436 42.411 170.793L42.3953 170.816C41.9695 171.435 41.5993 171.986 41.2946 172.455C41.0198 172.878 40.8133 173.21 40.6652 173.47C40.4502 173.845 39.7981 174.982 40.7393 175.897C41.0483 176.198 41.4541 176.354 41.8656 176.354C42.1219 176.354 42.3796 176.293 42.6174 176.169L48.034 173.32C50.5088 172.196 53.3481 171.651 56.7115 171.651C60.0748 171.651 63.6061 172.243 65.9157 172.689C73.3771 174.128 80.1835 178.37 86.7663 182.472L87.4241 182.882C87.6406 183.018 87.8855 183.099 88.1389 183.12L88.7014 183.168C88.7484 183.173 88.7939 183.174 88.8409 183.174C89.4034 183.174 89.9302 182.879 90.2236 182.391C90.5553 181.839 90.6408 181.301 90.581 180.8C90.5838 180.8 90.5881 180.798 90.5909 180.797C91.2445 180.536 91.6546 179.885 91.6019 179.183C91.592 178.844 91.9266 177.762 92.1259 177.116C92.5616 175.707 92.8222 174.803 92.7012 174.026C92.6684 173.812 92.6044 173.604 92.4662 173.357C93.3918 173.996 94.3544 174.623 95.391 175.186C103.299 179.483 115.064 181.947 127.669 181.947C139.106 181.947 150.084 179.899 157.79 176.326C159.401 175.579 160.849 174.749 162.213 173.89C162.153 174.135 162.149 174.393 162.207 174.645L163.321 179.378C163.448 179.916 163.841 180.346 164.357 180.527C164.234 181.019 164.265 181.472 164.45 181.899C164.777 182.656 165.534 183.109 166.473 183.109C166.668 183.109 166.872 183.092 167.097 183.056C167.325 183.02 167.543 182.936 167.735 182.81C173.95 178.716 181.251 174.218 189.233 172.659C192.863 171.95 195.587 171.634 198.063 171.634C202.41 171.634 206.103 172.621 210.034 174.831C210.095 174.868 210.283 174.995 210.434 175.096C211.938 176.102 212.386 176.359 212.993 176.359C213.446 176.359 213.883 176.172 214.192 175.846C214.484 175.537 214.643 175.126 214.635 174.7C214.616 173.876 214.201 173.243 213.926 172.823C213.892 172.77 213.857 172.717 213.825 172.668C212.364 170.329 209.126 165.767 206.255 163.508C205.741 163.103 205.147 162.742 204.572 162.392C204.102 162.105 203.38 161.666 203.02 161.345C203.157 161.223 203.383 161.049 203.749 160.831C205.969 159.508 209.295 158.837 213.635 158.837C213.805 158.837 213.974 158.837 214.141 158.84C214.146 158.84 214.154 158.84 214.159 158.84C214.789 158.84 215.361 158.474 215.624 157.903C215.891 157.325 215.794 156.645 215.375 156.165L215.378 156.168Z" fill="#030303"/>
<path d="M172.407 142.319C175.532 149.565 178.269 156.974 181.275 164.271L181.412 165.059C180.659 165.019 179.964 164.9 179.198 164.911C169.251 165.061 165.102 171.159 157.114 174.861C140.967 182.346 111.891 182.312 96.1656 173.766C93.275 172.196 90.9298 170.064 88.0976 168.451C83.8315 166.02 78.8563 164.56 73.9053 165.059L82.7508 142.8C82.9273 142.198 83.8386 142.008 84.4068 141.894C89.728 140.823 98.3228 147.331 103.329 149.525C116.313 155.213 135.825 155.219 149.161 150.686C154.218 148.968 158.548 145.746 163.373 143.542C166.223 142.241 169.304 141.011 172.407 142.321V142.319Z" fill="#BEBEBE"/>
<path d="M87.81 179.201C88.3653 179.798 89.3322 180.744 88.8423 181.559L88.2799 181.51C81.4721 177.271 74.2371 172.648 66.2247 171.102C60.0534 169.912 53.1829 169.191 47.3249 171.868L41.8684 174.739C41.7403 174.615 43.543 171.999 43.7452 171.705C45.1449 169.668 47.2651 166.69 49.1418 165.143C50.093 164.359 53.1915 162.696 53.613 161.784C54.3776 160.125 50.5102 158.695 49.3825 158.332C46.6258 157.445 43.758 157.223 40.8731 157.16C41.7146 155.908 43.0845 154.924 44.329 154.067C51.1909 149.344 59.2033 148.987 67.2442 150.296C69.6307 150.685 73.3913 151.607 75.5244 152.695C75.9601 152.917 76.6008 153.088 76.4485 153.707L70.9891 167.479C70.364 169.513 71.6997 170.9 73.3828 171.776C78.2953 174.333 83.6991 174.781 87.8128 179.201H87.81Z" fill="#BEBEBE"/>
<path d="M214.162 157.229C210.548 157.186 206.094 157.559 202.924 159.448C198.878 161.861 203.216 163.173 205.258 164.779C207.71 166.709 210.783 170.843 212.458 173.524C212.681 173.883 213.013 174.303 213.023 174.737C212.905 174.863 211.109 173.584 210.842 173.432C203.457 169.274 197.072 169.485 188.927 171.075C180.846 172.652 173.623 177.001 166.851 181.462C164.797 181.785 166.637 179.65 167.244 179.006C171.236 174.764 176.932 174.225 181.681 171.66C183.065 170.912 184.317 169.755 184.055 168.04C182.52 163.407 180.264 158.898 178.745 154.275C178.637 153.948 178.262 153.27 178.567 153.031C181.53 151.805 184.613 150.806 187.792 150.295C193.236 149.421 199.236 149.257 204.512 151.007C208.163 152.217 211.635 154.328 214.165 157.227L214.162 157.229Z" fill="#BEBEBE"/>
<path d="M89.9943 179.294C87.5465 176.309 84.5506 174.112 81.0207 172.537C79.228 171.737 74.519 170.544 73.3443 169.677C71.4078 168.249 74.0591 166.661 75.5585 166.498C78.9403 166.131 85.0404 168.911 87.7658 170.92C88.334 171.338 91.0309 173.759 91.1106 174.27C91.2516 175.184 89.9088 178.119 89.9957 179.294H89.9943Z" fill="#676765"/>
<path d="M181.947 169.439C181.694 169.873 175.621 171.815 174.581 172.253C172.407 173.171 169.931 174.532 168.102 176.026C167.154 176.8 166.207 178.118 165.323 178.798C165.18 178.908 165.142 179.075 164.896 179.011L163.782 174.277C166.208 171.177 169.805 168.928 173.506 167.621C175.576 166.89 179.764 165.69 181.561 167.404C182.035 167.856 182.269 168.891 181.947 169.441V169.439Z" fill="#676765"/>
<path d="M88.5732 155.807C88.7398 155.932 88.8936 155.698 88.9691 155.563C89.2211 155.115 90.1424 152.225 90.2933 152.118C90.7077 152.046 92.3167 152.674 92.3893 153.049C92.5104 153.664 89.4973 159.889 89.2652 161.056C89.0403 161.197 87.3073 160.506 87.1692 160.269C86.7662 159.582 86.5342 155.764 86.2907 155.522C86.0799 155.311 86.0429 155.59 85.9717 155.704C85.5887 156.313 84.8753 158.953 84.4396 159.16C84.1135 159.315 82.7081 158.703 82.6127 158.417C82.5244 158.155 82.6013 157.911 82.6611 157.656C82.9914 156.266 84.5706 152.52 85.2284 151.112C85.3281 150.897 85.442 150.497 85.6769 150.419C86.0942 150.278 87.5793 150.728 87.7844 151.113C88.1517 151.804 88.2372 155.553 88.5732 155.807Z" fill="#030303"/>
<path d="M138.124 163.92C137.677 166.716 137.054 169.533 136.302 172.278C135.936 173.264 133.914 173.633 133.139 173.247C132.842 173.099 132.618 171.711 132.715 171.609C132.799 171.519 134.703 172.12 134.566 170.698C134.341 169.885 131.56 164.799 131.861 164.491C132.326 164.666 133.683 164.191 133.974 164.372C134.132 164.47 135.006 167.332 135.265 167.846C135.342 167.999 135.193 168.115 135.563 168.048L136.147 164.077L138.127 163.92H138.124Z" fill="#030303"/>
<path d="M107.652 163.066C108.505 162.681 109.68 162.302 110.489 163.007C111.897 164.236 110.241 167.863 110.063 169.462C109.683 169.479 108.04 169.263 107.947 168.958C107.855 168.653 108.773 165.846 108.749 165.1C108.73 164.544 108.229 164.141 107.715 164.481C106.838 165.062 106.798 168.269 106.377 168.557C106.085 168.756 104.827 168.282 104.384 168.327L105.731 162.066C105.864 161.892 107.342 162.15 107.513 162.281C107.736 162.451 107.641 162.82 107.652 163.066Z" fill="#030303"/>
<path d="M117.905 168.904C118.026 169.066 117.097 169.947 116.943 170.037C115.813 170.702 113.65 170.537 112.709 169.613C111.071 168.004 111.817 164.074 114.165 163.67C115.668 163.411 117.774 163.929 118.127 165.621C118.187 165.908 118.306 167.725 118.208 167.843C118.067 168.01 117.91 168.053 117.7 168.057C116.861 168.073 115.025 167.408 114.298 167.646C113.714 167.836 114.309 168.754 114.912 168.847C115.359 168.915 115.638 168.484 116.122 168.473C116.325 168.468 117.852 168.831 117.906 168.904H117.905ZM116.196 166.483C116.361 165.049 114.698 164.577 114.229 165.873C113.901 166.784 115.672 166.41 116.196 166.483Z" fill="#030303"/>
<path d="M94.3814 161.328C94.7986 161.086 95.9634 157.933 96.14 157.822C96.4532 157.624 98.0224 158.338 98.1007 158.605C98.1876 158.901 95.6786 164 95.4066 164.144C95.2016 164.252 93.8702 163.724 93.6937 163.567C93.3676 163.278 93.8047 163.091 93.7705 162.787C92.593 163.22 90.9284 162.823 90.7347 161.394C90.6393 160.692 91.1463 159.688 91.4396 159.032C91.6304 158.605 92.8222 156.178 93.0842 156.111C93.3462 156.044 94.7659 156.773 94.8157 157.038C94.8926 157.456 93.1668 160.05 93.1255 160.732C93.0885 161.351 93.9799 161.56 94.38 161.33L94.3814 161.328Z" fill="#030303"/>
<path d="M153.892 159.969C157.678 159.26 159.406 164.439 156.396 166.174C151.932 168.746 149.148 160.857 153.892 159.969ZM155.605 164.74C156.426 163.916 155.106 160.89 153.832 161.831C152.678 162.682 154.566 165.781 155.605 164.74Z" fill="#030303"/>
<path d="M166.888 156.661C166.875 155.814 166.68 155.411 167.059 154.483C167.651 153.032 170.194 152.322 171.491 153.125C172.104 153.503 173.25 154.964 172.996 155.714C172.875 156.071 170.09 156.555 169.555 156.834C169.397 156.917 169.139 157.066 169.177 157.281C169.656 157.913 170.198 158.363 170.95 157.802C171.286 157.552 171.238 157.209 171.75 157.038C172.004 156.954 173.179 156.746 173.157 157.16C173.102 158.249 171.83 159.062 170.879 159.298C168.71 159.838 167.58 158.978 166.888 156.945C166.882 156.851 166.889 156.755 166.888 156.661ZM169.308 154.526C169.167 154.536 169.102 154.637 169.024 154.668C168.794 154.759 168.792 154.497 168.739 154.953C168.72 155.111 168.72 155.364 168.739 155.522C168.749 155.614 168.726 155.713 168.739 155.807C168.833 155.811 168.928 155.81 169.024 155.807C169.286 155.801 170.318 155.518 170.504 155.392C170.671 155.28 170.569 155.096 170.59 154.953C170.594 154.924 170.781 154.863 170.673 154.678C170.503 154.387 170.114 154.276 169.804 154.239C169.546 154.208 169.222 154.126 169.308 154.527V154.526Z" fill="#030303"/>
<path d="M122.888 167.052C122.876 166.054 122.736 165.283 123.754 164.715C125.054 163.989 128.362 164.292 128.158 166.34C127.632 166.218 127.036 166.557 126.555 166.46C126.074 166.363 126.131 165.953 125.813 165.902C125.534 165.858 124.654 165.853 124.741 166.268C125.41 167.021 126.696 166.759 127.55 167.304C127.889 167.52 127.945 167.775 128.158 168.048C129.084 170.925 125.84 171.717 123.741 170.827C123.412 170.688 123.254 170.362 122.89 170.326C122.749 170.021 122.673 169.66 122.605 169.33C123.021 169.248 124.023 168.994 124.378 169.039C124.878 169.105 124.781 169.964 125.946 169.755C126.312 169.69 126.623 169.23 126.431 168.92C126.297 168.705 124.07 168.253 123.602 168.048C123.576 168.037 123.495 167.888 123.175 167.764L122.89 167.052H122.888Z" fill="#030303"/>
<path d="M144.545 162.626C144.86 163.081 145.54 162.03 145.775 163.459C146.01 164.888 145.573 164.124 144.966 164.977L145.811 168.84C145.797 169.369 143.749 169.741 143.562 169.233C143.282 168.473 143.063 165.589 142.756 165.199C142.554 164.941 142.104 165.137 141.986 165.043C141.868 164.95 141.76 163.503 141.818 163.295C141.866 163.128 142.277 163.267 142.381 162.978C142.643 162.248 141.943 161.113 143.07 160.535C143.514 160.308 145.482 159.938 145.654 160.453C145.734 160.691 145.64 161.342 145.507 161.55C145.352 161.797 144.095 161.98 144.545 162.626Z" fill="#030303"/>
<path d="M163.637 154.927C164.073 155.182 164.406 154.348 164.901 154.876C165.049 155.032 165.481 156.147 165.447 156.291C165.383 156.554 164.715 156.551 164.75 157.146C164.766 157.409 165.667 159.207 165.843 159.233C166.087 159.268 166.559 158.931 166.861 159.109C166.989 159.185 167.487 160.06 167.463 160.285C167.4 160.89 165.693 161.533 165.111 161.508C164.419 161.478 163.846 160.513 163.536 159.939C163.354 159.602 162.754 157.916 162.605 157.805C162.34 157.609 161.92 158.498 161.41 157.224C160.929 156.02 161.638 156.108 161.599 155.76C161.572 155.516 161.266 155.371 161.356 154.913C161.376 154.812 162.384 153.223 162.469 153.166C163.029 152.79 163.349 154.756 163.637 154.924V154.927Z" fill="#030303"/>
<path d="M158.469 155.256C158.675 155.374 159.055 156.735 159.339 156.88C159.779 157.105 160.376 156.674 160.605 156.82C160.671 156.863 161.222 158.16 161.185 158.281C161.114 158.575 160.353 158.561 160.336 158.736C160.301 159.101 161.414 161.301 161.709 161.348C161.94 161.385 162.691 160.501 163.126 161.923C163.335 162.611 162.482 163.048 161.905 163.28C160.224 163.953 159.647 162.597 159.003 161.341C158.857 161.056 158.539 159.989 158.482 159.939C158.353 159.826 157.859 160.124 157.634 160.013C157.437 159.916 156.745 158.654 156.796 158.453C156.855 158.219 157.356 158.222 157.357 157.871C157.359 157.602 156.987 157.474 156.934 157.271C156.882 157.069 158.019 154.994 158.469 155.253V155.256Z" fill="#030303"/>
<path d="M96.7052 165.186C96.4518 164.843 99.8963 158.372 100.242 157.437C100.516 156.917 102.167 157.819 102.23 158.034C102.351 158.444 98.9921 164.821 98.609 165.775C98.4125 166.046 96.7665 165.268 96.7052 165.186Z" fill="#030303"/>
<path d="M150.37 161.501C150.289 162.009 150.581 163.048 150.147 163.342C149.657 163.674 149.203 163.24 149.086 164.275C148.982 165.204 149.853 167.893 149.791 168.103C149.728 168.312 148.059 168.777 147.893 168.739C147.717 168.699 147.658 168.481 147.594 168.333C147.245 167.533 146.812 165.448 146.595 164.491C146.514 164.134 146.105 162.545 146.255 162.367C146.648 162.4 148.014 161.839 148.206 161.962C148.266 162 148.163 162.337 148.516 162.211C148.696 161.342 149.678 161.492 150.37 161.499V161.501Z" fill="#030303"/>
<path d="M131.29 161.928C131.087 162.718 131.53 164.151 131.406 164.809C131.311 165.315 130.183 166.86 129.662 166.777C129.611 166.769 129.147 166.003 129.174 165.862C129.225 165.592 130.158 165.106 130.001 164.575C129.886 164.187 129.077 164.411 129.01 164.347C128.922 164.263 129.112 162.316 128.869 161.926H131.29V161.928Z" fill="#030303"/>
<path d="M129.575 68.4558C125.086 68.4558 121.093 66.8259 118.332 63.868C115.515 60.8502 114.202 56.7151 114.537 51.9095C115.091 43.9537 121.325 37.9538 129.038 37.9538C131.04 37.9538 133.035 38.3609 134.97 39.1652C135.546 39.4043 136.787 40.1161 137.87 40.8933C139.91 42.3594 140.191 43.1552 140.206 43.6833C140.213 43.9181 140.228 44.405 138.466 46.6256C136.715 48.8334 136.283 48.9173 136.051 48.9629C136 48.9729 135.939 48.9786 135.887 48.9786C135.499 48.9786 135.23 48.7949 134.032 47.8583C133.678 47.5821 133.193 47.2021 133.038 47.1181C131.962 46.5259 130.831 46.2498 129.48 46.2498C129.192 46.2498 128.887 46.2626 128.571 46.2882C125.857 46.5046 123.139 49.0668 123.195 53.5436C123.232 56.5243 124.812 60.0873 129.145 60.325C129.154 60.325 129.165 60.325 129.176 60.325C130.031 60.325 132.9 59.8111 133.833 59.4254L133.205 53.4582C133.196 53.3799 133.2 53.3002 133.215 53.2233L133.359 52.4717C133.431 52.0874 133.769 51.8155 134.15 51.8155C134.18 51.8155 134.21 51.8169 134.24 51.8198C135.627 51.9735 136.884 52.0475 138.085 52.0475C139.285 52.0475 140.45 51.9707 141.563 51.8127C141.602 51.807 141.639 51.8041 141.677 51.8041C141.859 51.8041 142.039 51.8668 142.183 51.9821C142.356 52.1216 142.465 52.3265 142.482 52.5486C142.487 52.6184 142.51 52.7137 142.536 52.8162C142.584 53.0127 142.644 53.2589 142.637 53.545C142.623 54.1272 142.553 54.7635 142.484 55.3784C142.419 55.9692 142.352 56.5798 142.341 57.1023C142.282 59.6873 142.455 62.3164 142.623 64.8587C142.674 65.6459 142.727 66.4331 142.772 67.2202C142.786 67.4793 142.677 67.7298 142.475 67.8935C142.329 68.0117 142.15 68.0729 141.966 68.0729C141.895 68.0729 141.822 68.0629 141.753 68.0444L137.384 66.8459C134.805 67.9149 132.18 68.4558 129.575 68.4558Z" fill="#030303"/>
<path d="M98.9252 68.5071C95.1461 68.5071 91.9778 67.8793 90.235 66.7832C86.9599 64.7249 87.0696 61.4068 87.1664 58.4788C87.1835 57.9748 87.2006 57.4553 87.2006 56.9514C87.2091 50.9757 86.997 45.121 86.7677 39.6848C86.7577 39.4627 86.8417 39.2463 86.997 39.0869C87.1493 38.9317 87.3572 38.8435 87.5751 38.8435C87.5808 38.8435 95.1347 38.9858 95.1347 38.9858C95.5419 38.993 95.8794 39.3018 95.9221 39.7061C95.9335 39.8086 95.9577 39.9239 95.9834 40.0463C96.0346 40.2869 96.0916 40.5588 96.0845 40.8776C96.0432 42.8121 95.9278 44.805 95.8168 46.7323C95.6089 50.3237 95.3938 54.0375 95.6373 57.609C95.8367 60.5243 96.7907 61.5093 99.4164 61.5093C99.6414 61.5093 99.8821 61.5008 100.133 61.4865C103.418 61.283 103.534 59.0538 103.452 55.434C103.445 55.1308 103.438 54.829 103.435 54.5301C103.433 54.3991 103.405 54.2582 103.371 54.0945C103.329 53.8909 103.282 53.6617 103.28 53.4027C103.265 51.9863 103.257 50.57 103.248 49.1536C103.228 46.1373 103.208 43.0185 103.143 39.9538C103.139 39.7303 103.225 39.5154 103.385 39.3602C103.536 39.2122 103.739 39.1296 103.95 39.1296C103.962 39.1296 103.973 39.1296 103.984 39.1296C104.009 39.1296 104.039 39.1296 104.073 39.1296C104.441 39.1296 105.284 39.0855 106.261 39.0342C107.617 38.9631 109.304 38.8734 110.376 38.8734C111.357 38.8734 111.816 38.9161 112.099 39.3246C112.243 39.5324 112.38 39.7289 112.31 41.7474C112.257 43.3075 112.143 44.9018 112.034 46.4448C111.891 48.4519 111.743 50.5259 111.729 52.5329C111.723 53.2247 111.763 54.056 111.805 54.9357C111.993 58.9015 112.249 64.332 108.843 66.4985C106.515 67.9789 102.195 68.5071 98.9266 68.5071H98.9252Z" fill="#030303"/>
<path d="M77.1092 67.932C76.7561 67.932 76.3588 67.7839 75.8533 66.7135C75.4048 65.7598 75.0132 64.5683 74.5974 63.3071C74.0421 61.6175 73.4668 59.8709 72.7819 58.8417C72.6238 58.604 72.3661 58.3706 72.2693 58.3279C72.0343 58.2368 71.1771 58.103 70.374 58.103C69.8287 58.103 69.551 58.1613 69.43 58.1983C69.2292 58.9357 69.5012 61.7299 69.6507 63.263C69.8187 64.9911 69.964 66.4829 69.8629 67.2316C69.8087 67.6316 69.467 67.9306 69.0626 67.9306H61.587C61.5058 67.9306 61.4261 67.9177 61.3478 67.895C60.67 67.6857 60.5931 66.9882 60.5675 66.759L60.5632 66.7263C60.3311 64.7491 60.5447 62.4958 60.7511 60.3164C60.8608 59.1649 60.9633 58.0773 60.9989 57.0653C61.1897 51.6063 60.9277 46.3224 60.566 39.9808C60.5404 39.5381 60.8779 39.1581 61.3207 39.1296C64.956 38.899 68.5358 38.8577 71.5573 38.8492C71.7837 38.8492 72.0101 38.8478 72.2351 38.8463C72.547 38.8449 72.8559 38.8421 73.1635 38.8421C76.0285 38.8421 78.8236 38.9958 81.5277 40.862C83.3773 42.1374 84.5991 44.2213 84.9693 46.7309C85.3723 49.4597 84.6802 52.2554 83.1196 54.2069C82.8519 54.5415 82.4319 54.8845 81.9463 55.2817C81.559 55.5991 80.7915 56.2254 80.5893 56.5613L85.1772 66.7918C85.2897 67.0409 85.2669 67.3313 85.1188 67.5605C84.9707 67.7896 84.7144 67.9291 84.441 67.9291H77.1078L77.1092 67.932ZM69.2335 51.7173C69.3246 51.76 69.5581 51.8383 70.1377 51.9308C70.5335 51.9949 71.1629 52.0703 71.9076 52.0703C73.1464 52.0703 75.3165 51.8568 75.943 50.4319C76.5126 49.1351 76.252 46.9942 75.063 46.1786C74.3767 45.7074 72.7563 45.38 71.123 45.38C70.6417 45.38 70.2103 45.4099 69.8728 45.4654C69.3431 45.5537 69.2164 45.7316 69.2862 47.1508C69.3004 47.4313 69.3146 47.7216 69.3075 48.0063C69.2876 48.7622 69.2833 49.222 69.3004 49.9551C69.3132 50.4647 69.2819 50.8703 69.2577 51.1977C69.2434 51.3814 69.2278 51.602 69.2349 51.7173H69.2335Z" fill="#030303"/>
<path d="M178.92 67.932C178.839 67.932 178.759 67.9206 178.682 67.8964C177.802 67.6245 177.852 66.4345 177.889 65.5662L177.893 65.4551C177.913 64.8487 177.984 64.1968 178.06 63.5064C178.202 62.2096 178.347 60.8687 178.14 59.8823C177.994 59.283 176.027 56.5428 175.081 55.2247C174.576 54.5215 174.14 53.9151 173.901 53.5479C173.634 53.1422 173.351 52.7223 173.052 52.2781C172.293 51.1536 171.51 49.9921 170.91 48.9116C170.166 47.5693 170.19 46.7494 170.218 45.8C170.228 45.4412 170.24 45.0697 170.213 44.6128C170.203 44.4619 170.173 44.1445 170.139 43.7758C169.818 40.3652 169.851 39.7317 170.133 39.3246C170.284 39.1068 170.532 38.9773 170.796 38.9773C170.802 38.9773 178.231 39.1225 178.231 39.1225C178.504 39.1282 178.755 39.2705 178.9 39.5026C179.055 39.7517 179.159 39.9168 179.098 43.3957L179.095 43.5836C179.091 43.9025 179.048 44.1957 179.008 44.4804C178.96 44.8277 178.913 45.1566 178.94 45.5025C179.011 46.4291 180.036 48.1159 181.984 50.5159C182.082 50.6369 182.178 50.7678 182.278 50.9073C182.391 51.0653 182.581 51.3287 182.725 51.4753C183.491 50.6241 185.963 46.9928 186.166 46.3992C186.368 45.8056 186.316 45.3658 186.243 44.7566C186.21 44.4833 186.176 44.2014 186.163 43.8811L186.136 43.2206C186.092 42.1516 186.047 41.0456 186.018 39.9552C186.007 39.5111 186.357 39.141 186.801 39.1282C188.634 39.0727 190.498 38.9972 192.301 38.9246C192.983 38.8976 193.663 38.8691 194.342 38.8435C194.352 38.8435 194.364 38.8435 194.374 38.8435C194.593 38.8435 194.804 38.9332 194.956 39.0926C195.116 39.2591 195.197 39.4869 195.178 39.7175C195.093 40.7637 195.167 41.8271 195.247 42.953C195.321 44.0121 195.398 45.1067 195.328 46.1886C195.211 48.0006 194.325 49.4682 193.468 50.8888C193.374 51.044 193.28 51.1992 193.188 51.3557C191.97 53.4027 190.549 55.3357 189.176 57.2047C188.54 58.0702 187.884 58.9641 187.257 59.8552C187.107 62.3264 187.234 64.8502 187.347 67.0864C187.358 67.3071 187.278 67.5234 187.126 67.6829C186.974 67.8423 186.761 67.9334 186.541 67.9334H178.923L178.92 67.932Z" fill="#030303"/>
<path d="M155.569 68.4515C153.501 68.4515 151.504 68.3448 149.897 68.2579C149.626 68.2437 149.365 68.2295 149.116 68.2167C149.013 68.211 148.801 68.2096 148.555 68.2081C146.135 68.1882 145.495 68.0829 145.126 67.6501C144.825 67.2971 144.75 66.6594 144.746 66.5071C144.696 64.4701 144.851 62.1342 145.001 59.8737C145.056 59.0325 145.109 58.2382 145.15 57.4752C145.385 53.108 145.201 49.2134 145.006 45.0897C144.955 44.0121 144.902 42.8989 144.857 41.7545C144.835 41.2321 144.853 40.7082 144.87 40.2015C144.874 40.0648 144.878 39.9282 144.882 39.7929C144.89 39.5054 145.05 39.2435 145.304 39.1054C145.715 38.8819 146.12 38.862 146.443 38.8449L146.541 38.8392C147.606 38.778 149.803 38.6741 152.54 38.6741C155.905 38.6741 160.504 38.8335 163.311 39.5965C166.042 40.3381 168.09 42.2256 168.79 44.6455C169.484 47.0426 168.799 49.5978 166.909 51.6561C166.772 51.8041 166.604 51.9308 166.442 52.0518C166.382 52.0959 166.304 52.1557 166.231 52.2141C166.248 52.2226 166.266 52.2326 166.281 52.2397C166.536 52.3707 166.824 52.5187 167.043 52.7023C168.887 54.2482 169.837 56.7279 169.647 59.5051C169.445 62.4801 167.946 65.1932 165.734 66.584C163.738 67.8395 160.412 68.4501 155.565 68.4501L155.569 68.4515ZM153.883 56.2254C153.743 57.1336 153.776 60.0061 153.879 60.9912C153.907 61.2635 154.214 61.4196 154.799 61.4595C154.884 61.4652 154.972 61.4709 155.062 61.478C155.774 61.5335 156.341 61.5591 156.848 61.5591C158.546 61.5591 159.644 61.2488 160.201 60.6111C160.667 60.0787 160.822 59.2204 160.664 58.0631C160.436 56.3891 158.202 56.0375 156.368 56.0375C155.758 56.0375 155.102 56.0759 154.418 56.1528C154.333 56.1628 154.25 56.1699 154.169 56.177C154.078 56.1856 153.964 56.1955 153.886 56.2083C153.886 56.2126 153.884 56.2183 153.883 56.224V56.2254ZM153.816 45.5053C153.694 46.3651 153.664 48.8106 153.738 49.2647C153.765 49.4269 153.772 49.4711 154.53 49.5237L154.622 49.5309C155.068 49.5622 155.501 49.5793 155.906 49.5793C157.386 49.5793 159.896 49.3558 160.094 47.864C160.252 46.6626 159.762 45.9608 158.552 45.6519C157.93 45.4939 156.718 45.3872 155.535 45.3872C154.914 45.3872 154.377 45.4171 154.021 45.4726C153.943 45.4854 153.875 45.4968 153.818 45.5067L153.816 45.5053Z" fill="#030303"/>
<path d="M134.152 52.6226C136.661 52.9002 139.171 52.9685 141.677 52.6112C141.701 52.9201 141.838 53.2077 141.831 53.5251C141.804 54.6283 141.56 55.9792 141.535 57.0838C141.458 60.493 141.771 63.8708 141.966 67.2672L137.327 65.9946C126.179 70.7746 114.439 64.9327 115.34 51.9678C116.021 42.1787 125.491 36.1033 134.659 39.9125C135.674 40.3339 139.363 42.5943 139.396 43.7089C139.413 44.2954 136.373 48.0789 135.893 48.1729C135.677 48.2156 133.922 46.6868 133.424 46.4135C131.865 45.5551 130.279 45.3445 128.504 45.4854C120.66 46.1117 119.831 60.6253 129.098 61.1321C129.894 61.1762 134.536 60.4218 134.679 59.7841L134.005 53.3756L134.149 52.6241L134.152 52.6226Z" fill="#FEFEFE"/>
<path d="M95.1176 39.793C95.1561 40.1545 95.2842 40.4876 95.2757 40.862C95.1575 46.3736 94.4512 52.1073 94.83 57.6645C95.0749 61.2488 96.5601 62.5157 100.183 62.2922C104.797 62.0061 104.282 58.0389 104.241 54.5215C104.236 54.1158 104.09 53.7657 104.086 53.3956C104.043 48.9074 104.044 44.4221 103.949 39.9367C104.85 39.9752 111.217 39.4712 111.434 39.7858C111.557 39.9638 111.514 41.373 111.503 41.7217C111.382 45.2961 110.947 48.9487 110.922 52.5287C110.895 56.3151 112.121 63.4595 108.41 65.8181C104.752 68.1441 94.3274 68.4003 90.665 66.1C87.2718 63.9676 88.0037 60.3805 88.008 56.9528C88.0165 51.1664 87.8186 45.4227 87.5737 39.6506L95.1176 39.793Z" fill="#FEFEFE"/>
<path d="M61.5884 67.1249C61.4033 67.0679 61.3877 66.8003 61.3677 66.6338C61.026 63.7271 61.7038 60.0617 61.8077 57.0952C62.0085 51.3686 61.6995 45.6348 61.3734 39.9367C64.7538 39.7218 68.1627 39.6677 71.5616 39.6577C74.9591 39.6478 78.1017 39.4798 81.0706 41.5267C84.8412 44.126 85.2441 50.2597 82.4903 53.7045C81.8751 54.4746 79.6865 55.7628 79.7449 56.651L84.441 67.1249H77.1078C76.9697 67.1249 76.6593 66.5327 76.5824 66.369C75.5429 64.1598 74.7199 60.2965 73.4526 58.3948C73.2632 58.1115 72.8816 57.7001 72.5626 57.5763C71.8891 57.3158 69.215 57.0681 68.7878 57.6688C68.063 58.6852 69.2833 65.5007 69.0626 67.1249H61.587H61.5884ZM69.739 44.6683C68.036 44.953 68.5344 46.6726 68.5002 47.985C68.4802 48.7408 68.4745 49.2149 68.4931 49.9736C68.5415 51.9935 67.8523 52.3821 70.0095 52.728C72.1668 53.0739 75.6939 53.0055 76.6821 50.7565C77.3969 49.1266 77.0509 46.5629 75.5187 45.5124C74.2386 44.6356 71.2341 44.4192 69.7376 44.6683H69.739Z" fill="#FEFEFE"/>
<path d="M178.92 67.1249C178.604 67.0281 178.688 65.8253 178.699 65.4808C178.756 63.7498 179.282 61.3812 178.927 59.7143C178.712 58.6965 175.391 54.3564 174.573 53.1066C173.631 51.6689 172.427 49.9892 171.614 48.5202C170.718 46.906 171.12 46.2726 171.016 44.563C170.97 43.8313 170.542 40.1488 170.795 39.7844L178.214 39.9296C178.359 40.1616 178.293 43.0242 178.285 43.5722C178.275 44.2185 178.076 44.8235 178.133 45.5651C178.254 47.1466 180.321 49.7529 181.356 51.0255C181.833 51.612 182.466 52.849 183.18 52.1657C183.834 51.5422 186.652 47.4711 186.928 46.6612C187.295 45.5836 187.008 44.8562 186.967 43.8498C186.914 42.5445 186.855 41.2406 186.821 39.9367C189.34 39.8613 191.861 39.7502 194.37 39.652C194.193 41.7972 194.656 44.0121 194.518 46.1359C194.401 47.938 193.397 49.417 192.49 50.9415C190.692 53.965 188.47 56.6994 186.461 59.5762C186.292 62.0929 186.41 64.6153 186.537 67.1249H178.919H178.92Z" fill="#FEFEFE"/>
<path d="M165.501 52.7123C165.633 52.8489 166.247 53.0852 166.528 53.3215C170.237 56.4318 169.316 63.3812 165.309 65.9035C161.619 68.2252 153.474 67.6345 149.158 67.4124C148.603 67.3839 146.014 67.4494 145.741 67.1277C145.647 67.0181 145.557 66.6494 145.553 66.4886C145.486 63.7384 145.805 60.3321 145.958 57.5208C146.257 51.9721 145.889 47.2704 145.664 41.7232C145.639 41.0926 145.673 40.4449 145.69 39.8157C145.972 39.662 146.278 39.6648 146.59 39.6463C150.867 39.3986 159.107 39.2919 163.102 40.3766C168.215 41.7644 169.951 47.1537 166.315 51.1109C165.955 51.5024 164.79 51.9821 165.499 52.7123H165.501ZM153.897 44.674C153.697 44.7053 153.257 44.7722 153.145 44.9188C152.875 45.2719 152.845 48.8063 152.942 49.3956C153.084 50.2682 153.838 50.2839 154.565 50.3351C156.483 50.4718 160.56 50.5059 160.894 47.9679C161.112 46.3138 160.319 45.2676 158.751 44.869C157.605 44.5772 155.064 44.4932 153.899 44.674H153.897ZM154.329 55.3528C153.695 55.424 153.2 55.3642 153.086 56.103C152.933 57.088 152.969 60.0374 153.077 61.0751C153.2 62.258 153.961 62.2025 155.001 62.2837C158.442 62.5527 162.076 62.4289 161.465 57.9563C161.058 54.9671 156.59 55.0994 154.33 55.3528H154.329Z" fill="#FEFEFE"/>
<path d="M92.7824 211.208C91.4852 211.208 90.0584 211.068 88.5405 210.794C85.4919 210.24 85.2085 209.68 85.0732 209.411C84.7386 208.748 84.9778 207.671 85.3537 206.22C85.4192 205.967 85.4762 205.749 85.5047 205.609C85.5502 205.384 85.6898 205.189 85.8891 205.074C86.0144 205.002 86.154 204.965 86.2964 204.965C86.3804 204.965 86.4644 204.977 86.5456 205.004C87.1536 205.201 87.7004 205.487 88.2287 205.763C88.831 206.078 89.4005 206.375 90.0014 206.51C90.5596 206.636 91.1833 206.703 91.807 206.703C94.0012 206.703 96.4718 205.904 96.8263 203.661C97 202.557 96.8164 201.679 96.2795 201.051C95.5576 200.207 94.1636 199.742 92.3566 199.742C91.6831 199.742 90.9683 199.81 90.2891 199.941C90.0997 199.977 89.7636 200.091 89.439 200.199C88.737 200.434 88.2842 200.577 87.914 200.577C87.9097 200.577 87.894 200.577 87.8883 200.577C87.3487 200.567 86.7706 200.166 86.7706 199.581V187.909C86.7706 187.833 86.7805 187.759 86.8019 187.687C87.0625 186.781 88.3881 186.609 88.4024 186.608C88.606 186.583 88.8239 186.571 89.0659 186.571C89.8448 186.571 90.7262 186.699 91.5791 186.821C92.2883 186.924 92.9575 187.02 93.5043 187.037C93.6211 187.04 93.7364 187.043 93.8532 187.043C94.8172 187.043 95.7683 186.934 96.7751 186.817C97.544 186.729 98.34 186.636 99.1388 186.598L99.1843 186.595C99.2698 186.59 99.3737 186.585 99.4834 186.585C99.6984 186.585 100.351 186.585 100.702 187.073C100.859 187.291 100.971 187.447 100.752 189.121C100.692 189.573 100.53 190.697 100.298 191.383C100.221 191.61 100.042 192.141 99.5318 192.296C99.4563 192.318 99.3766 192.33 99.2983 192.33C99.257 192.33 99.2157 192.327 99.1744 192.32L92.9945 191.36L91.2132 191.45L91.1135 195.906C92.4392 195.575 93.7079 195.285 95.0208 195.285C96.3336 195.285 97.4614 195.557 98.6333 196.116C100.933 197.214 102.348 199.41 102.519 202.142C102.709 205.195 101.28 208.162 98.8796 209.699C97.3147 210.7 95.2643 211.208 92.7838 211.208H92.7824Z" fill="black"/>
<path d="M112.629 186.904C108.927 187.788 105.356 191.087 104.306 196.21C104.054 197.443 104.191 200.39 104.376 201.642C104.874 205.019 108.179 209.616 111.508 210.668C118.802 212.974 126.275 207.759 126.275 199.131C126.275 191.479 120.922 184.922 112.629 186.902V186.904ZM120.53 201.366C120.196 202.555 119.623 203.612 118.691 204.493C117.658 205.47 116.448 205.965 115.259 205.965C113.358 205.965 112.079 205.141 111.054 203.928C109.963 202.639 109.29 200.684 109.29 199.204C109.29 197.44 109.743 196.069 110.774 194.162C111.124 193.514 112.354 192.343 113.454 192.001C114.181 191.775 115.722 191.894 116.276 191.953C117.241 192.055 118.94 193.312 119.515 194.132C119.771 194.498 120.69 195.964 120.795 196.741C120.936 197.777 120.828 200.301 120.529 201.366H120.53Z" fill="#030303"/>
<path d="M156.991 210.848C156.711 210.848 156.453 210.73 156.267 210.516C155.875 210.068 155.892 209.377 156.079 208.001C156.096 207.874 156.117 207.716 156.12 207.671V207.641C156.164 206.123 156.22 204.234 156.114 202.77C155.98 200.903 155.488 200.563 154.568 200.563C154.363 200.563 154.132 200.583 153.879 200.624C153.476 200.697 151.988 201.474 151.606 201.881V210.042C151.606 210.488 151.245 210.849 150.799 210.849H148.521C148.091 210.849 147.735 210.512 147.715 210.082C147.652 208.806 147.689 207.491 147.726 206.219C147.764 204.876 147.803 203.487 147.722 202.186C147.713 202.038 147.639 201.595 147.575 201.204C147.26 199.285 147.219 198.838 147.504 198.449C147.625 198.284 147.806 198.17 148.008 198.133L150.216 197.726C150.265 197.718 150.315 197.713 150.363 197.713C150.713 197.713 151.031 197.943 151.135 198.289L151.34 198.97C151.413 198.921 151.487 198.871 151.562 198.819C152.583 198.123 153.638 197.403 155.062 197.274C155.308 197.251 155.548 197.239 155.774 197.239C159.822 197.239 159.965 200.899 160.012 202.102C160.03 202.594 159.976 203.041 159.928 203.436C159.892 203.729 159.858 204.007 159.858 204.268C159.856 205.191 159.895 206.132 159.932 207.041C159.972 208.021 160.013 209.033 160.007 210.043C160.005 210.488 159.644 210.845 159.2 210.845H156.993L156.991 210.848Z" fill="black"/>
<path d="M138.136 211.275C136.632 211.275 135.178 210.594 134.045 209.357C132.637 207.821 131.873 205.577 132.054 203.497C132.36 199.967 135.18 197.202 138.47 197.202C139.638 197.202 140.759 197.55 141.801 198.236C142.157 198.469 142.422 198.763 142.655 199.022C142.672 199.04 142.688 199.059 142.705 199.077C142.714 199.03 142.722 198.985 142.729 198.948C142.813 198.489 142.886 198.094 143.255 197.853C143.439 197.733 143.652 197.676 143.91 197.676C144.168 197.676 144.434 197.732 144.696 197.787C144.87 197.823 145.086 197.869 145.194 197.87C145.257 197.854 145.321 197.847 145.385 197.847C145.589 197.847 145.788 197.924 145.94 198.068C146.338 198.444 146.308 198.819 145.916 201.262C145.846 201.698 145.767 202.193 145.758 202.33C145.674 203.625 145.779 204.905 145.892 206.26C145.99 207.453 146.091 208.686 146.051 209.925C146.043 210.183 145.912 210.422 145.698 210.566C145.563 210.658 145.405 210.705 145.244 210.705C145.164 210.705 145.083 210.694 145.005 210.67C144.999 210.67 144.988 210.67 144.986 210.67C144.857 210.67 144.637 210.711 144.442 210.747C144.182 210.795 143.911 210.845 143.658 210.845C143.367 210.845 143.131 210.779 142.932 210.646C142.506 210.357 142.412 209.87 142.335 209.434C142.146 209.574 141.936 209.733 141.781 209.854C141.308 210.217 140.901 210.53 140.596 210.68C139.786 211.076 138.959 211.275 138.134 211.275H138.136ZM139.053 200.56C138.834 200.56 138.601 200.58 138.365 200.622C136.581 200.926 135.799 202.888 135.95 204.668C136.078 206.189 136.943 207.965 138.955 207.965C139.09 207.965 139.231 207.957 139.372 207.941C141.401 207.715 142.221 205.735 142.123 203.991C142.027 202.283 141.042 200.56 139.051 200.56H139.053Z" fill="black"/>
<path d="M163.059 210.863C162.672 210.863 162.183 210.814 161.836 210.425C161.413 209.951 161.478 209.366 161.588 208.398L161.591 208.377C161.605 208.244 161.653 208.118 161.729 208.008C162.002 207.614 162.432 207.581 163.026 207.535C163.614 207.49 164.709 207.406 164.951 206.949C165.152 206.569 165.098 206.394 165.081 206.337C164.948 205.911 164.124 205.477 163.462 205.128C162.731 204.744 162.042 204.382 161.624 203.826C160.896 202.858 160.669 201.693 160.987 200.549C161.337 199.282 162.313 198.216 163.594 197.693C164.365 197.38 164.92 197.241 165.396 197.241C166.042 197.241 166.442 197.511 166.664 197.739C167.09 198.175 167.277 198.828 167.251 199.796C167.247 199.941 167.205 200.082 167.127 200.204C166.828 200.68 166.284 200.706 165.757 200.731C165.39 200.748 164.776 200.778 164.611 200.98C164.534 201.076 164.516 201.293 164.56 201.58C164.595 201.803 165.397 202.261 165.827 202.506C166.7 203.004 167.688 203.568 168.158 204.505C168.782 205.747 168.772 207.06 168.134 208.202C167.329 209.636 165.603 210.667 163.735 210.828C163.443 210.852 163.235 210.863 163.059 210.863Z" fill="black"/>
<path d="M87.5751 187.906C87.652 187.638 88.2244 187.439 88.4964 187.405C89.8633 187.238 92.012 187.796 93.4787 187.84C95.3924 187.897 97.2763 187.49 99.1758 187.4C99.4093 187.389 99.9077 187.351 100.046 187.543C100.165 187.709 99.7169 191.393 99.2968 191.521L93.0358 190.549L90.4229 190.682L90.282 196.945C93.1398 196.242 95.448 195.491 98.2844 196.844C103.057 199.121 102.637 206.334 98.4425 209.019C95.7057 210.769 91.7714 210.559 88.6843 209.999C88.1461 209.901 86.0116 209.48 85.7937 209.047C85.5033 208.473 86.154 206.468 86.2964 205.77C87.5153 206.165 88.5547 207.012 89.822 207.296C92.6656 207.935 97.0784 207.225 97.6209 203.785C98.3456 199.187 93.5869 198.482 90.1324 199.145C89.5543 199.256 88.3497 199.775 87.8983 199.767C87.7616 199.765 87.5736 199.662 87.5736 199.578V187.906H87.5751Z" fill="#FEFEFE"/>
<path d="M121.121 189.459C128.701 195.521 125.578 210.577 114.986 210.439C106.824 210.332 103.146 200.778 105.877 193.96C108.334 187.825 115.715 185.134 121.121 189.459ZM114.171 191.148C107 192.011 106.778 205.022 113.771 206.559C123.538 208.705 124.711 189.882 114.171 191.148Z" fill="#FEFEFE"/>
<path d="M159.199 210.041H156.991C156.513 210.041 156.916 208.032 156.926 207.698C156.97 206.156 157.027 204.227 156.919 202.711C156.768 200.6 156.114 199.449 153.751 199.826C153.14 199.924 150.797 201.133 150.797 201.713V210.041H148.519C148.392 207.45 148.686 204.707 148.525 202.135C148.491 201.587 147.984 199.155 148.152 198.928L150.36 198.521L150.873 200.222C152.263 199.429 153.44 198.232 155.135 198.076C158.122 197.803 159.097 199.376 159.204 202.133C159.234 202.909 159.05 203.575 159.049 204.268C159.046 206.202 159.211 208.112 159.199 210.041Z" fill="#FEFEFE"/>
<path d="M143.695 198.529C143.977 198.345 144.982 198.777 145.386 198.653C145.559 198.815 144.986 201.755 144.954 202.277C144.788 204.828 145.328 207.355 145.245 209.9C144.784 209.735 143.713 210.199 143.387 209.978C143.021 209.73 143.235 208.352 142.587 208.365C142.24 208.372 140.779 209.693 140.245 209.954C136.084 211.984 132.507 207.612 132.859 203.567C133.21 199.521 137.615 196.445 141.357 198.911C141.864 199.245 142.201 199.816 142.604 200.086C143.561 200.728 143.444 198.694 143.696 198.53L143.695 198.529ZM138.23 199.826C133.699 200.599 134.14 209.337 139.462 208.744C144.544 208.177 143.988 198.844 138.23 199.826Z" fill="#FEFEFE"/>
<path d="M166.443 199.775C166.187 200.183 163.391 199.346 163.764 201.705C163.953 202.903 166.708 203.412 167.437 204.866C168.796 207.575 166.247 209.803 163.667 210.024C162.196 210.149 162.223 209.975 162.394 208.468C162.568 208.216 165.015 208.56 165.666 207.326C166.878 205.031 163.193 204.569 162.27 203.342C160.92 201.547 161.944 199.238 163.899 198.442C165.489 197.795 166.495 197.762 166.443 199.776V199.775Z" fill="#FEFEFE"/>
<path d="M54.5941 133.468C49.8652 133.468 45.4154 131.34 42.3853 127.631C38.7742 123.209 36.7836 116.862 36.9246 110.216C37.0669 103.514 39.378 97.2824 43.2667 93.1187C46.1815 89.9985 50.3408 88.2078 54.6781 88.2078C59.0153 88.2078 63.2501 90.0554 66.1108 93.2753C67.0221 94.3016 67.4322 94.8425 67.5703 95.2027C67.959 96.2176 67.3652 97.5201 66.8897 98.5678C66.8185 98.7229 66.753 98.8667 66.6989 98.9948C66.5436 99.362 65.92 100.734 65.2835 102.05C63.9193 104.872 63.7357 104.928 63.3726 105.039C63.2601 105.073 63.1447 105.09 63.0308 105.09C62.3601 105.09 61.9999 104.553 61.7835 104.232C61.7436 104.172 61.6838 104.082 61.6581 104.055C59.9651 102.351 58.2521 100.798 55.9297 100.536C55.6236 100.502 55.3188 100.485 55.0255 100.485C49.8809 100.485 47.5385 105.827 47.5385 110.792C47.5385 113.521 48.2391 116.163 49.4608 118.044C50.3892 119.473 52.0865 121.175 54.8931 121.175C55.2576 121.175 55.6364 121.147 56.0194 121.09C58.3845 120.738 59.9993 119.477 61.9814 117.417C61.9914 117.393 62.0013 117.359 62.0084 117.338C62.0383 117.239 62.0953 117.056 62.2818 116.899C62.4527 116.755 62.6677 116.677 62.887 116.677C63.1818 116.677 63.4665 116.814 63.6929 117.061C63.9735 117.37 64.3337 118.026 64.8107 118.919C64.9218 119.128 65.02 119.312 65.0941 119.441C65.6095 120.354 66.0823 121.299 66.5394 122.214C66.9067 122.949 67.2855 123.708 67.6785 124.434C67.7284 124.525 67.7597 124.624 67.7711 124.728L67.8152 125.112C67.8337 125.275 67.8024 125.437 67.7255 125.581C65.1055 130.519 60.1972 133.465 54.5955 133.467L54.5941 133.468Z" fill="#030303"/>
<path d="M210.315 133.095C209.805 133.095 209.295 133.001 208.8 132.818C207.562 132.358 206.588 131.428 205.984 130.13C205.46 129.004 205.248 127.648 205.386 126.31C205.674 123.527 207.324 121.508 209.59 121.165C209.846 121.127 210.102 121.107 210.352 121.107C211.796 121.107 213.041 121.746 213.957 122.956C215.193 124.59 215.629 127.081 215.042 129.155C214.396 131.438 212.408 133.095 210.315 133.095Z" fill="#030303"/>
<path d="M191.146 133.465C187.334 133.465 183.684 132.085 180.872 129.579C178.456 127.426 176.583 124.603 175.307 121.191C174.127 118.032 173.519 114.449 173.55 110.829C173.617 103.015 176.57 95.8404 181.452 91.6369C184.009 89.4348 187.426 88.2234 191.075 88.2234C196.775 88.2234 201.841 91.0462 204.297 95.5885C204.401 95.7806 204.422 96.0055 204.357 96.2133C204.169 96.8126 203.34 98.8795 202.547 100.727C200.87 104.635 200.585 104.8 200.31 104.959C200.145 105.054 199.958 105.104 199.77 105.104C199.406 105.104 199.13 104.921 198.98 104.822C198.425 104.454 197.919 103.904 197.384 103.322C196.894 102.788 196.387 102.236 195.89 101.89C194.593 100.985 193.121 100.507 191.631 100.507C189.562 100.507 187.706 101.42 186.401 103.082C183.821 106.365 183.375 112.707 185.427 116.929C186.364 118.856 188.207 121.154 191.658 121.154C191.929 121.154 192.208 121.14 192.49 121.111C195.237 120.834 197.276 118.831 198.97 116.977C199.124 116.809 199.34 116.714 199.567 116.714C199.588 116.714 199.61 116.714 199.629 116.717C199.877 116.737 200.104 116.869 200.24 117.077C201.56 119.077 202.633 121.236 203.671 123.326C203.876 123.737 204.079 124.149 204.286 124.56C204.309 124.604 204.326 124.65 204.34 124.697C204.549 125.416 204.109 126.076 203.819 126.512C203.78 126.57 203.743 126.626 203.71 126.677C201.028 130.929 196.33 133.468 191.147 133.47H191.146V133.465Z" fill="#030303"/>
<path d="M86.4145 132.68C84.9579 132.68 83.6009 132.637 82.597 132.56H82.5699C82.0701 132.52 81.6757 132.49 81.3326 132.224C80.8897 131.881 80.8171 131.354 80.7829 130.889C80.5622 127.823 80.7673 124.429 80.9652 121.147C81.0805 119.248 81.1887 117.456 81.2201 115.728C81.3767 107.147 81.1133 98.6788 80.8071 90.807C80.8014 90.6462 80.8427 90.4867 80.9282 90.3501C81.0777 90.1081 81.2343 89.859 83.4485 89.6683C84.7799 89.5544 86.1184 89.5373 87.3672 89.5373C87.6704 89.5373 87.9737 89.5373 88.2756 89.5387C88.5775 89.5387 88.8779 89.5401 89.1798 89.5401C89.8163 89.5401 90.3047 89.5359 90.7661 89.5259C91.4723 89.5102 92.1914 89.4846 92.8863 89.4576C93.9457 89.4177 95.0421 89.3779 96.1072 89.3779C100.304 89.3779 104.645 89.9615 107.976 94.1934C109.805 96.518 110.791 100.06 110.68 103.907C110.569 107.728 109.405 111.217 107.484 113.483C107.295 113.706 106.993 113.991 106.643 114.321C106.207 114.733 105.341 115.548 105.115 115.951L110.969 131.464C111.063 131.715 111.027 131.995 110.873 132.213C110.722 132.428 110.476 132.556 110.213 132.556C110.208 132.556 100.537 132.394 100.537 132.394C100.198 132.388 99.9006 132.171 99.7881 131.853C99.3894 130.711 99.0405 129.541 98.703 128.409C98.4382 127.52 98.1634 126.6 97.87 125.71C97.7205 125.258 97.5425 124.674 97.3546 124.056C96.842 122.369 96.1385 120.061 95.5861 119.1C95.4764 118.909 95.1731 118.592 95.0507 118.522C94.847 118.419 93.9101 118.267 92.7596 118.267C92.0191 118.267 91.5919 118.331 91.3969 118.38C91.1875 119.141 91.4453 121.749 91.5464 122.767C91.5962 123.273 91.6361 123.675 91.6503 123.952C91.6902 124.708 91.7258 125.466 91.7614 126.223C91.8425 127.969 91.9266 129.774 92.0732 131.537C92.1088 131.966 91.7998 132.349 91.3727 132.403C91.2716 132.416 91.1605 132.439 91.0437 132.463C90.8572 132.502 90.645 132.546 90.4101 132.561C89.3279 132.637 87.8698 132.68 86.4117 132.68H86.4145ZM93.5071 99.2467C92.5246 99.2467 91.4467 99.4247 91.3712 99.9229C91.058 101.978 91.0338 106.327 91.2231 108.556C91.2678 109.077 91.4614 109.366 91.8041 109.423C92.7553 109.581 93.6694 109.662 94.5181 109.662C96.0844 109.662 98.1634 109.373 99.1701 108C100.437 106.267 100.135 102.134 98.6304 100.627C98.0324 100.03 97.0498 99.7435 96.3621 99.5798C95.8381 99.456 94.6491 99.2453 93.5085 99.2453L93.5071 99.2467Z" fill="#030303"/>
<path d="M136.105 133.448C135.69 133.448 135.274 133.436 134.869 133.408C128.83 133.011 123.776 128.28 123.36 122.634C122.903 116.435 124.495 107.067 134.67 97.6482C140.431 92.3145 147.238 89.069 154.353 88.2604C154.68 88.2234 155.025 88.2049 155.38 88.2049C159.194 88.2049 164.628 90.4583 166.755 94.0967C169.185 98.2532 169.321 103.563 167.151 109.453C165.472 114.008 162.427 118.836 158.794 122.7C153.926 127.877 144.75 133.45 136.105 133.45V133.448ZM164.507 105.718C164.232 106.299 163.949 106.895 163.631 107.469C158.605 116.548 151.249 123.595 141.768 128.416C141.764 128.419 140.72 128.925 140.72 128.925C145.805 127.931 150.309 124.878 153.409 122.243C158.102 118.251 163.392 111.528 164.507 105.719V105.718ZM159.181 93.7137C158.454 93.7137 157.651 93.8376 156.596 94.0127C152.488 94.6945 147.376 97.4831 142.198 101.867C137.627 105.738 133.468 110.469 131.072 114.522C128.845 118.288 126.616 124.795 129.604 127.283C130.179 127.763 131.211 128.015 132.588 128.015C134.194 128.015 135.826 127.679 136.655 127.478C145.839 125.259 160.395 111.399 163.052 102.341C163.522 100.74 163.963 98.9065 163.675 97.4589C163.664 97.4019 163.658 97.345 163.66 97.2866C163.67 96.7514 163.102 95.4717 162.654 94.9806C162.556 94.9607 162.415 94.9208 162.274 94.8169C161.223 94.0326 160.326 93.7123 159.181 93.7123V93.7137ZM150 93.3308C145.505 94.6176 140.769 97.4105 136.688 101.268C132.554 105.175 129.628 109.611 128.257 113.93C128.274 113.923 128.291 113.916 128.308 113.91C128.486 113.802 128.825 113.167 128.933 112.652C128.956 112.546 128.998 112.447 129.06 112.357C132.208 107.826 135.846 104.173 138.992 101.197C139.306 100.899 139.592 100.656 139.869 100.421C140.398 99.9699 140.857 99.5813 141.321 98.9564C141.429 98.8112 141.583 98.7058 141.758 98.6589C142.19 98.5421 142.897 97.9414 143.467 97.4589C143.813 97.1656 144.141 96.8881 144.45 96.6703C146.387 95.3023 148.22 94.1977 150.001 93.3323L150 93.3308Z" fill="#030303"/>
<path d="M167.127 133.054C166.483 133.054 165.837 132.903 165.208 132.606C162.6 131.373 161.87 128.216 162.293 125.804C162.758 123.152 164.424 121.374 166.64 121.165C166.792 121.151 166.945 121.144 167.094 121.144C168.374 121.144 169.532 121.666 170.442 122.656C171.624 123.941 172.262 125.897 172.105 127.76C171.891 130.307 169.928 133.055 167.128 133.055L167.127 133.054Z" fill="#030303"/>
<path d="M116.889 133.073C113.782 133.073 112.19 130.226 112.025 127.579C111.846 124.681 113.273 121.547 116.348 121.164C116.562 121.137 116.775 121.124 116.982 121.124C120.136 121.124 121.81 124.126 121.833 127.093C121.845 128.604 121.442 130.022 120.698 131.088C119.81 132.362 118.52 133.048 116.968 133.073H116.889Z" fill="#030303"/>
<path d="M73.3144 133.065C71.1515 133.065 69.1907 131.36 68.5471 128.917C68.0388 126.99 68.4318 124.728 69.5495 123.154C70.3996 121.957 71.5786 121.268 72.9598 121.16C73.088 121.15 73.2162 121.144 73.3415 121.144C75.4546 121.144 77.216 122.607 77.9393 124.962C78.3323 126.241 78.3736 127.648 78.0561 128.923C77.7001 130.357 76.9298 131.508 75.8305 132.253C75.0345 132.792 74.1873 133.065 73.3144 133.065Z" fill="#030303"/>
<path d="M62.8016 117.517C62.8842 117.447 62.9995 117.5 63.0949 117.605C63.4124 117.954 64.0988 119.325 64.3893 119.84C65.3077 121.466 66.0766 123.179 66.968 124.819L67.0121 125.204C62.0967 134.466 49.5235 135.094 43.0118 127.12C35.7299 118.204 35.9335 102.153 43.8591 93.6682C49.6616 87.4548 59.837 87.4235 65.5099 93.8105C65.8203 94.1593 66.6789 95.1272 66.8185 95.4902C67.136 96.3215 66.3144 97.8404 65.9584 98.6788C65.6608 99.3791 63.4637 104.168 63.139 104.267C62.7218 104.395 62.4926 103.748 62.2363 103.49C60.4877 101.729 58.6252 100.028 56.0237 99.7364C43.4362 98.3229 43.805 123.72 56.1419 121.888C58.9157 121.477 60.7383 119.881 62.5979 117.944C62.7432 117.793 62.7873 117.53 62.8058 117.515L62.8016 117.517Z" fill="#FEFEFE"/>
<path d="M209.711 121.964C213.48 121.394 215.132 125.875 214.266 128.936C213.64 131.148 211.438 132.939 209.082 132.062C204.834 130.482 205.349 122.623 209.711 121.964Z" fill="#FEFEFE"/>
<path d="M199.906 104.26C199.735 104.358 199.561 104.237 199.417 104.142C198.472 103.516 197.469 102.005 196.353 101.227C192.911 98.8254 188.395 99.2368 185.766 102.582C181.1 108.521 182.962 122.885 192.571 121.911C195.524 121.612 197.669 119.594 199.565 117.518C201.112 119.863 202.305 122.414 203.564 124.919C203.688 125.343 203.263 125.868 203.027 126.244C198.338 133.675 187.872 134.738 181.409 128.977C171.686 120.313 172.149 100.711 181.978 92.2476C188.371 86.743 199.55 88.5024 203.587 95.9714C203.252 97.0375 200.396 103.974 199.904 104.26H199.906Z" fill="#FEFEFE"/>
<path d="M110.215 131.75L100.553 131.588C99.8479 129.569 99.3111 127.49 98.639 125.458C98.068 123.732 97.094 120.099 96.2881 118.698C96.1257 118.417 95.7313 117.982 95.4551 117.823C94.7331 117.407 91.1676 117.283 90.7789 117.804C90.1751 118.614 90.7832 122.815 90.8458 123.997C90.9797 126.533 91.0594 129.075 91.2701 131.605C90.9626 131.645 90.6692 131.737 90.3546 131.759C88.2201 131.907 84.7799 131.921 82.6554 131.759C81.8167 131.695 81.6487 131.69 81.586 130.833C81.2457 126.105 81.9377 120.552 82.0246 115.745C82.1755 107.412 81.9349 99.0788 81.6116 90.7771C81.6729 90.6803 83.2321 90.4981 83.5154 90.4739C85.9219 90.2675 88.3611 90.3885 90.7817 90.3359C96.9174 90.2049 103.047 89.2398 107.341 94.6959C110.956 99.2909 110.633 108.522 106.868 112.965C106.318 113.612 104.245 115.254 104.269 115.999L110.214 131.753L110.215 131.75ZM99.2 100.058C98.5037 99.3606 97.4842 99.019 96.5472 98.7955C95.2087 98.4781 90.8714 97.8446 90.5724 99.8005C90.2421 101.966 90.2292 106.41 90.4172 108.623C90.5012 109.61 90.6294 110.045 91.6688 110.219C94.2191 110.643 98.1292 110.784 99.8194 108.476C101.285 106.475 101.001 101.862 99.2 100.058Z" fill="#FEFEFE"/>
<path d="M135.217 98.2404C140.558 93.2952 147.099 89.896 154.443 89.0619C158.303 88.6234 164.05 91.0704 166.056 94.5038C171.228 103.352 164.396 115.562 158.205 122.147C152.742 127.957 143.088 133.141 134.921 132.604C129.582 132.254 124.567 128.069 124.163 122.576C123.451 112.913 128.385 104.565 135.215 98.2418L135.217 98.2404ZM141.969 99.4375C142.866 99.1941 144.055 97.9343 144.915 97.3293C148.337 94.9137 152.052 92.8739 156.208 92.0341L154.43 91.7508C142.114 92.37 127.237 106.051 126.595 118.444C126.579 118.745 126.468 119.023 126.877 118.939C126.716 118.374 127.176 118.078 127.291 117.827C127.758 116.802 128.128 115.666 128.587 114.669C129.161 114.469 129.607 113.386 129.726 112.818C132.608 108.67 135.895 105.242 139.55 101.785C140.47 100.914 141.204 100.474 141.972 99.4375H141.969ZM162.758 94.1707C160.607 92.565 159.023 92.7913 156.463 93.2155C147.091 94.77 135.099 106.124 130.375 114.111C128.393 117.463 125.397 124.831 129.085 127.903C130.831 129.356 134.726 128.774 136.843 128.263C146.335 125.969 161.081 111.923 163.825 102.568C164.298 100.958 164.795 98.9549 164.466 97.3009C164.48 96.4824 163.724 94.8539 163.116 94.3031C162.989 94.1878 162.807 94.2077 162.757 94.1693L162.758 94.1707ZM165.464 104.775C165.546 103.988 165.403 103.086 165.464 102.284C164.416 103.734 163.796 105.504 162.925 107.077C157.941 116.078 150.562 123.039 141.402 127.696L136.558 130.041C142.974 130.361 149.184 126.893 153.931 122.855C158.767 118.743 164.776 111.279 165.464 104.775Z" fill="#FEFEFE"/>
<path d="M166.715 121.968C169.797 121.676 171.527 124.977 171.299 127.692C171.063 130.51 168.488 133.265 165.552 131.875C161.598 130.005 162.381 122.378 166.715 121.967V121.968Z" fill="#FEFEFE"/>
<path d="M116.448 121.964C122.212 121.246 122.702 132.174 116.956 132.264C111.699 132.347 111.366 122.597 116.448 121.964Z" fill="#FEFEFE"/>
<path d="M73.0225 121.965C77.6261 121.604 79.0414 129.102 75.3763 131.585C72.7861 133.339 70.0394 131.417 69.326 128.712C68.6226 126.046 69.8941 122.21 73.0225 121.965Z" fill="#FEFEFE"/>
</g>
<defs>
<clipPath id="clip0_3438_1588">
<rect width="256" height="256" fill="white"/>
</clipPath>
</defs>
</svg>
