<svg width="256" height="256" viewBox="0 0 256 256" fill="none" xmlns="http://www.w3.org/2000/svg">
<g clip-path="url(#clip0_2_968)">
<path d="M165.452 202.092C232.085 168.898 269.526 108.714 249.078 67.6661C228.63 26.6187 158.037 20.2521 91.4033 53.4459C24.7701 86.6397 -12.6704 146.824 7.77761 187.871C28.2256 228.919 98.819 235.285 165.452 202.092Z" fill="white"/>
<path d="M98.9494 150.817C98.2816 150.595 97.5024 150.372 96.8346 150.149C94.052 148.48 90.8242 148.146 87.7077 147.256C86.9285 147.033 86.0381 146.922 85.259 146.81C83.9233 146.476 83.5894 145.92 84.1459 144.584C84.4798 143.805 85.0364 143.137 85.3703 142.469C85.9268 141.468 86.4833 140.466 86.0381 139.242C85.8155 138.685 86.2607 138.129 86.4833 137.572C88.2642 133.899 90.2677 130.449 92.939 127.332C93.8294 126.219 93.9407 125.217 93.1616 123.993C87.5964 115.2 84.7024 105.405 83.2555 95.1651C83.1442 94.0521 82.8103 92.939 82.9216 91.826C83.0329 90.0451 83.5894 89.5999 85.259 90.379C88.3755 91.826 91.2694 93.3843 94.2746 95.0538C98.1703 97.2799 102.289 98.8382 106.184 101.064C108.967 102.623 111.749 104.181 114.421 106.073C115.868 107.075 117.315 107.409 118.984 107.075C124.438 106.184 130.003 106.184 135.457 107.075C136.904 107.297 138.351 107.186 139.687 106.296C146.81 101.621 154.379 97.9477 162.059 94.1634C164.619 92.939 167.068 91.6034 169.628 90.2677C171.409 89.3773 172.076 89.8225 171.854 91.826C170.963 100.285 169.182 108.522 165.732 116.424C164.619 118.984 163.172 121.433 161.836 123.77C160.723 125.774 160.723 126.108 162.17 127.889C164.842 131.005 166.734 134.567 168.515 138.129C168.626 138.351 168.849 138.685 168.737 139.019C168.069 140.911 169.294 142.247 170.073 143.805C171.297 146.031 170.741 147.033 168.181 147.367C161.169 148.369 154.713 150.929 148.257 153.6C147.367 153.934 146.476 154.379 145.697 154.713C143.805 155.492 142.469 156.716 141.913 158.831C141.356 161.169 139.464 162.838 137.906 164.619C136.236 166.623 134.678 168.515 132.786 170.296C129.781 173.078 125.217 173.189 122.212 170.296C119.429 167.624 117.092 164.73 114.643 161.836C113.753 160.723 112.974 159.388 112.64 157.941C112.417 157.162 112.083 156.383 111.304 155.937C107.186 153.823 103.402 151.708 98.9494 150.817Z" fill="#020203"/>
<path d="M179.311 152.487C174.859 156.716 170.518 160.278 165.955 163.729C146.588 178.198 125.44 188.883 101.732 194.226C90.0451 196.897 78.2469 197.899 66.3373 195.896C61.106 195.005 56.0973 193.336 51.4225 190.887C50.1982 190.219 49.8643 189.662 50.4208 188.327C51.5338 185.544 51.4225 185.544 54.0938 186.88C62.8869 191.221 72.1251 192.556 81.8086 192.222C98.2817 191.555 113.642 186.88 128.556 180.202C130.337 179.422 132.452 179.2 134.233 178.198C146.143 171.075 158.275 164.396 168.849 155.381C169.183 155.158 171.409 154.045 172.856 153.711C174.859 153.266 176.863 152.932 179.311 152.487Z" fill="#E30613"/>
<path d="M99.6173 88.9321C107.52 83.9234 115.534 79.6938 123.882 76.0208C136.014 70.6782 148.591 66.7825 161.836 65.113C173.412 63.5547 184.988 63.666 196.229 67.7843C198.233 68.5634 200.236 69.4538 202.129 70.4556C203.242 71.0121 203.464 71.6799 203.019 72.9043C201.906 76.0208 202.017 76.0208 199.123 74.4625C191.555 70.4556 183.318 69.2312 174.748 69.1199C161.725 69.0086 149.37 71.7912 137.127 76.0208C126.33 79.8051 116.202 85.0364 106.296 90.6017C105.071 91.2695 104.069 91.3808 102.956 90.6017C101.955 90.0451 100.842 89.5999 99.6173 88.9321Z" fill="#020203"/>
<path d="M98.9495 150.817C99.7286 150.372 100.396 150.483 101.176 150.817C104.626 152.153 108.076 153.6 111.304 155.381C111.861 155.603 112.417 155.826 112.529 156.494C113.085 159.722 115.2 161.948 117.203 164.285C118.65 165.955 120.32 167.513 121.767 169.294C124.327 172.633 130.115 172.856 133.12 169.294C135.569 166.4 138.129 163.617 140.466 160.612C140.911 160.056 141.356 159.499 141.468 158.72C141.69 156.605 143.026 155.381 144.807 154.49C151.263 151.374 158.052 148.925 165.064 147.256C166.289 146.922 167.624 146.922 168.96 146.699C170.407 146.476 170.741 145.809 170.073 144.473C169.516 143.36 168.849 142.358 168.292 141.245C167.958 140.689 167.513 139.909 168.292 139.353C168.737 138.908 168.403 138.685 168.181 138.24C166.177 134.344 164.174 130.449 161.169 127.221C160.278 126.33 160.167 125.329 160.946 124.216C165.621 116.758 168.626 108.744 170.296 100.174C170.963 96.8347 171.409 93.4956 171.52 89.9338C171.075 90.0451 170.852 90.0451 170.629 90.1564C162.282 95.0538 153.377 98.7269 145.029 103.624C143.471 104.515 141.913 105.405 140.577 106.407C138.908 107.631 137.127 107.743 135.235 107.409C130.003 106.629 124.883 106.629 119.652 107.409C117.76 107.743 115.979 107.631 114.309 106.407C109.969 103.179 105.183 100.842 100.285 98.393C95.2764 95.833 90.379 93.273 85.3703 90.6017C83.5895 89.7112 83.3669 89.7112 83.5895 91.6034C84.146 98.8382 85.8156 105.85 88.3756 112.64C89.8225 116.647 91.7147 120.431 94.0521 123.993C94.8312 125.106 94.8312 125.996 93.9408 126.998C91.1582 130.226 88.9321 133.899 87.1512 137.683C86.8173 138.24 86.2608 138.796 87.0399 139.464C87.4851 139.909 86.9286 140.577 86.706 141.134C86.0382 142.358 85.3703 143.471 84.7025 144.696C84.2573 145.475 84.4799 146.031 85.3703 146.143C88.8208 146.588 92.2712 147.589 95.6103 148.591C96.2782 148.814 97.1686 148.703 96.946 149.816C96.3895 150.149 95.8329 150.149 95.2764 149.927C91.6034 148.591 87.819 147.812 83.9234 147.144C82.699 146.922 82.3651 146.476 82.9216 145.252C85.4816 138.574 87.819 131.784 92.7164 126.33C93.273 125.663 93.1616 124.995 92.8277 124.438C86.706 114.866 83.8121 104.181 82.4764 93.0503C82.2538 91.6034 82.2538 90.2677 82.1425 88.8208C82.0312 87.2625 82.5877 87.3738 83.7008 87.9303C88.1529 90.379 92.4938 92.7164 97.0573 95.0538C103.513 98.393 110.303 101.287 116.202 105.739C116.869 106.184 117.537 106.073 118.205 106.073C124.549 105.405 131.005 105.183 137.349 106.184C138.017 106.296 138.685 106.073 139.13 105.739C144.139 102.066 149.704 99.3947 155.158 96.6121C160.501 93.9408 165.843 91.0469 171.186 88.153C173.078 87.1512 173.189 87.1512 173.078 89.266C172.299 101.509 169.183 113.196 162.838 123.77C162.059 125.106 162.059 125.996 163.061 127.221C166.734 131.339 168.96 136.348 170.852 141.468C171.52 143.249 172.076 145.029 172.744 146.922C167.847 147.923 163.061 148.925 158.386 150.483C153.934 151.93 149.482 153.823 145.252 155.826C144.139 156.383 143.36 157.05 143.137 158.275C142.915 159.165 142.581 160.056 142.024 160.835C139.353 164.619 136.348 168.181 132.897 171.186C129.669 174.08 124.549 173.746 121.544 170.518C118.65 167.513 115.979 164.285 113.196 161.057C112.64 160.501 112.306 159.722 112.195 159.054C111.972 157.273 110.97 156.16 109.412 155.492C106.518 154.268 103.624 152.709 100.619 151.819C99.7286 151.819 99.0608 151.708 98.9495 150.817Z" fill="#E30613"/>
<path d="M47.0817 187.548C44.4104 184.654 42.8521 181.203 41.8504 177.53C39.6243 168.849 40.626 160.389 43.52 152.042C48.0834 138.574 56.2086 127.332 65.5582 116.87C69.2313 112.863 73.1269 109.078 77.3565 105.405C77.8017 107.075 78.2469 108.41 78.6921 109.857C79.026 110.748 78.2469 111.082 77.8017 111.638C69.7878 118.873 62.9982 127.109 56.9878 136.014C51.4226 144.25 47.4156 153.155 45.8573 163.061C45.1895 167.179 45.4121 171.186 46.1913 175.193C46.4139 176.417 46.4139 177.642 46.4139 178.866C46.1913 181.871 46.7478 184.654 47.0817 187.548Z" fill="#020203"/>
<path d="M181.537 150.372C181.315 150.261 181.315 150.15 181.315 150.15C179.311 146.143 179.979 146.254 179.979 146.254C188.104 137.35 198.01 124.55 203.019 113.308C206.136 106.407 208.473 99.1721 207.694 91.4921C207.137 85.9269 207.471 80.2504 206.358 74.6852C206.247 74.3512 206.247 74.1286 206.247 73.4608C207.916 75.0191 208.696 76.6886 209.586 78.3582C213.37 86.2608 213.482 94.6086 211.478 102.956C208.473 115.756 201.906 126.664 193.892 136.793C189.996 141.69 185.878 146.143 181.537 150.372Z" fill="#E30613"/>
<path d="M160.056 50.866C162.727 50.866 166.623 50.9773 169.071 50.866L171.075 58.7686C165.843 60.4382 160.167 60.5495 155.381 57.6556C152.376 55.7634 150.817 52.313 151.596 49.6417C152.376 46.859 154.936 45.0782 158.831 44.633C161.057 44.4103 164.953 44.9669 167.179 45.4121C167.179 45.4121 168.181 48.9738 168.515 50.1982C166.4 49.6417 164.619 48.8625 162.616 48.5286C161.057 48.306 159.388 48.306 157.941 48.8625C156.16 49.5303 155.715 50.6434 156.605 52.313C157.829 54.7617 160.167 55.4295 162.616 55.7634C163.172 55.8747 165.732 55.7634 165.732 55.7634L165.398 54.3164L160.835 54.0938C160.946 54.4277 160.946 54.4277 160.056 50.866Z" fill="#020303"/>
<path d="M128.89 48.306C130.783 47.9721 133.454 47.4156 133.454 47.4156C133.454 47.4156 137.016 54.3165 137.795 55.5408C138.908 57.5443 142.247 58.1008 144.028 56.7652C144.807 56.2087 144.473 55.6521 144.25 55.0956C143.137 52.5356 140.355 46.3026 140.355 46.3026C143.916 45.6347 144.807 45.5234 144.807 45.5234C145.586 47.4156 148.369 52.6469 148.925 54.5391C149.704 56.7652 148.925 58.7687 147.033 59.8817C143.694 61.6626 140.243 61.9965 136.682 60.3269C135.457 59.7704 134.456 58.88 133.899 57.7669C132.23 54.6504 130.671 51.6452 128.89 48.306Z" fill="#020303"/>
<path d="M26.9355 144.918C27.7147 142.024 29.6069 134.901 29.6069 134.901L33.2799 135.68C33.0573 136.57 32.3895 139.242 32.0555 140.132C31.9442 140.466 31.9442 140.911 32.6121 141.022C33.0573 141.134 33.3912 141.134 33.5025 140.466C33.7251 139.353 34.7269 136.348 34.7269 136.348L38.5112 137.127C38.5112 137.127 37.7321 139.909 37.6208 140.466C37.3982 141.356 37.2869 141.579 38.066 141.802C38.6225 141.913 38.8451 142.024 39.0677 141.134C39.4016 139.909 40.2921 137.127 40.2921 137.127L44.1877 138.017L41.6277 146.699C37.0642 145.809 31.7216 145.475 26.9355 144.918Z" fill="#020303"/>
<path d="M201.127 65.4469C201.127 65.4469 196.786 64.4452 196.675 64.3339C196.675 64.3339 196.675 63.6661 196.452 59.4365C196.452 59.4365 195.784 58.5461 195.228 57.8782C192.445 54.0939 189.44 50.6435 186.212 46.7478C188.438 47.193 190.776 47.5269 192.779 47.8608L198.456 54.7617L203.13 49.6417L208.362 50.5322C206.803 52.4243 202.796 57.433 201.016 59.3252L201.127 65.4469Z" fill="#020303"/>
<path d="M40.9599 121.099C39.7355 122.546 38.3999 123.548 37.6207 125.217C36.7303 127.11 36.8416 128.668 37.9546 129.558C39.4016 130.671 41.6277 130.56 43.186 129.224C44.6329 128 45.1894 126.33 45.3007 124.55C45.3007 123.882 45.3007 123.325 45.3007 122.657C45.3007 122.657 49.6416 124.216 49.8642 124.216C49.8642 124.216 49.8642 124.216 48.6399 127.666C46.859 132.897 42.4068 135.569 37.732 134.233C34.1703 133.231 32.1668 129.892 32.946 126.33C33.1686 125.551 33.6138 123.325 36.2851 119.763L40.9599 121.099Z" fill="#020303"/>
<path d="M47.5269 100.73C50.0869 97.0573 49.8642 97.3912 49.8642 97.3912L59.9929 102.4C59.9929 102.4 63.3321 98.2816 63.7773 97.8364L67.1164 100.174L60.8834 107.52C60.7721 107.52 51.7564 102.845 47.5269 100.73Z" fill="#020304"/>
<path d="M93.7181 136.014C94.052 135.569 94.386 135.235 94.7199 134.678C93.8294 134.344 93.0503 134.678 92.2712 135.012C91.7147 135.235 91.2694 135.457 90.8242 135.012C90.2677 134.344 91.0468 134.233 91.2694 133.899C93.3842 130.003 96.7233 127.221 100.174 124.55C100.508 124.327 100.73 124.104 100.953 123.882C100.953 123.882 100.953 123.77 100.953 123.659C98.1703 123.548 97.3912 123.77 95.1651 124.216C96.8347 122.101 98.8381 120.876 101.064 119.763C102.734 118.873 102.734 118.316 101.398 117.203C100.953 116.758 100.174 116.424 100.619 115.645C101.064 114.977 101.843 115.2 102.511 115.534C102.734 115.645 103.068 115.756 103.29 115.868C103.513 114.977 102.956 114.755 102.511 114.421C96.0555 109.078 90.1564 103.179 86.706 95.3878C86.4833 95.0539 85.9268 94.6087 86.4833 94.1634C86.9286 93.8295 87.3738 94.0521 87.819 94.2747C95.3877 99.2834 104.069 102.511 111.638 107.52C114.421 109.301 114.421 109.746 112.195 112.083C111.972 112.306 111.416 112.529 111.861 113.085C112.306 113.53 112.64 113.085 112.974 112.974C118.984 108.744 125.662 108.856 132.563 109.746C133.454 109.857 134.344 109.969 135.235 109.969C138.129 110.08 140.466 111.416 142.581 113.419C142.915 112.306 142.358 111.638 141.913 111.193C140.689 109.857 141.134 108.967 142.581 108.076C146.031 105.962 149.482 103.847 153.155 102.066C157.607 99.9513 162.059 97.6139 166.177 94.9426C166.511 94.72 166.845 94.6087 167.068 94.386C167.402 94.1634 167.847 94.0521 168.181 94.386C168.403 94.72 168.181 95.0539 168.069 95.3878C166.066 100.508 162.838 104.849 158.942 108.744C156.382 111.304 153.711 113.642 150.817 116.202C152.042 116.202 152.932 115.534 153.822 115.2C154.268 114.977 154.602 114.866 154.936 115.311C155.269 115.756 154.824 115.868 154.713 116.202C154.156 117.203 152.376 117.649 152.821 119.096C153.155 120.431 154.49 120.431 155.715 120.876C157.273 121.544 158.72 122.769 159.944 124.438C157.607 124.438 155.603 123.325 152.932 123.436C158.275 126.887 162.282 130.894 165.398 136.57C163.729 135.791 162.393 135.123 161.169 134.456C160.835 134.344 160.501 133.788 160.056 134.233C159.61 134.678 160.167 135.123 160.389 135.457C161.948 136.904 162.727 138.908 163.506 140.8C163.951 142.024 163.506 142.915 162.282 143.249C160.946 143.694 159.499 143.916 158.163 144.25C151.708 145.92 145.363 148.146 139.353 151.151C138.462 151.596 137.572 152.153 136.904 152.932C136.57 153.934 136.682 154.936 136.682 155.937C136.57 157.83 135.902 159.499 134.567 160.835C134.122 161.28 133.676 161.836 132.897 161.614C132.341 161.391 131.896 161.057 131.228 161.057C128.334 161.169 125.44 160.612 122.546 161.503C120.542 161.057 119.875 159.388 119.207 157.718C118.984 157.273 118.984 156.605 118.984 156.16C119.429 153.266 117.871 151.93 115.422 150.929C108.41 147.923 101.287 145.252 93.7181 143.583C91.826 143.137 91.6034 142.581 92.1599 140.8C92.1599 138.796 93.3842 137.572 93.7181 136.014Z" fill="#E30613"/>
<path d="M93.7181 136.014C94.386 136.682 93.9407 137.127 93.6068 137.683C91.0468 142.024 91.0468 142.024 95.8329 143.249C102.956 145.029 109.635 147.701 116.424 150.595C118.428 151.485 119.207 152.932 119.096 154.936C118.873 157.607 120.097 159.499 122.101 160.946C123.102 161.391 123.436 162.393 124.104 163.172C125.885 165.287 127.666 165.509 130.003 163.84C131.005 163.061 131.673 161.948 132.897 161.169C135.235 159.499 136.236 157.273 136.014 154.379C135.902 153.711 135.791 152.932 136.793 152.709C137.461 154.156 138.129 155.603 138.796 157.05C139.353 158.275 139.242 159.388 138.24 160.501C135.902 163.172 133.676 165.955 131.005 168.292C128.668 170.407 126.553 170.407 124.327 168.292C121.989 165.843 119.652 163.395 117.426 160.946C116.202 159.61 116.09 158.163 116.869 156.494C117.537 155.269 117.649 154.045 118.316 152.709C117.315 152.487 116.981 152.709 116.313 153.043C114.866 153.822 113.419 153.711 112.083 152.932C104.737 149.148 97.0573 146.476 89.1546 144.696C87.819 144.362 87.819 144.028 88.3755 143.026C89.7112 140.466 91.1581 137.795 93.7181 136.014Z" fill="#FEFEFE"/>
<path d="M136.459 152.821C136.236 151.819 136.904 151.374 137.683 151.04C145.141 147.478 152.821 144.696 160.946 142.915C163.061 142.47 163.283 142.024 162.393 140.021C161.725 138.463 160.501 137.016 159.944 135.346C160.501 135.235 160.946 135.569 161.391 135.903C163.395 138.129 165.287 140.466 166.734 143.137C167.29 144.028 167.29 144.362 166.066 144.584C158.72 146.365 151.485 148.48 144.807 152.153C142.024 153.711 139.242 153.6 136.459 152.821Z" fill="#FEFEFE"/>
<path d="M123.659 60.3268C125.329 61.3285 128 62.7755 129.669 63.6659C129.669 63.6659 133.454 62.7755 135.346 62.219C132.675 60.6607 129.447 58.8798 127.109 57.5442C127.109 57.5442 127.109 57.5442 127.332 56.7651C128.222 53.3146 126.553 50.9772 122.88 50.7546C118.984 50.4207 115.645 52.0903 111.972 53.4259C114.755 57.5442 117.76 62.3303 120.431 66.3372C120.431 66.3372 123.436 65.3355 124.661 65.0016C123.993 63.7772 121.878 60.5494 121.878 60.5494C122.323 60.2155 122.991 59.9929 123.659 60.3268ZM121.544 55.9859C121.099 56.2085 119.541 56.5425 119.541 56.5425L118.539 54.9842C118.539 54.9842 120.542 54.4277 120.876 54.3164C121.989 53.9825 122.546 54.3164 122.657 54.9842C122.769 55.7633 121.989 55.8746 121.544 55.9859Z" fill="#020203"/>
<path d="M92.8277 72.3477C91.7146 69.7877 88.8207 67.8955 85.5929 67.8955C85.4816 67.8955 85.259 67.8955 85.0364 68.0068C80.3616 68.452 76.5772 72.1251 73.0155 74.6851C73.0155 74.6851 81.0294 81.5859 84.3686 84.7025C84.3686 84.7025 89.1546 81.5859 90.8242 79.8051C92.8277 77.6903 94.052 75.3529 92.8277 72.3477ZM87.2625 77.579C85.3703 79.3599 85.3703 79.3599 85.3703 79.3599C84.1459 78.2468 81.0294 75.4642 79.9164 74.4625C81.3633 73.3494 82.699 72.5703 84.3686 72.2364C86.0381 71.9025 87.9303 72.7929 88.5981 74.1286C89.2659 75.6868 88.2642 76.6886 87.2625 77.579Z" fill="#020303"/>
<path d="M52.9808 106.184C48.5286 103.736 43.186 105.628 40.626 110.859C37.9547 116.313 40.9599 121.21 46.9704 121.21C51.1999 121.21 54.7617 118.316 56.0973 113.976C57.0991 110.748 55.8747 107.743 52.9808 106.184ZM51.8677 113.753C50.9773 115.756 49.4191 116.869 47.0817 116.869C46.0799 116.869 44.7443 116.424 44.0764 115.2C43.4086 113.976 43.9651 112.751 44.633 111.749C46.0799 109.523 48.306 108.856 50.4208 109.857C52.2017 110.636 52.6469 111.972 51.8677 113.753Z" fill="#020303"/>
<path d="M148.48 129.892C145.697 134.344 142.692 137.683 137.461 137.906C135.68 138.017 134.122 138.685 133.231 140.355C133.12 140.689 132.786 140.911 132.118 140.689C133.231 137.238 135.123 134.456 138.24 132.675C141.245 130.894 144.807 131.116 148.48 129.892Z" fill="#050303"/>
<path d="M122.212 140.466C120.543 138.351 118.316 138.017 116.09 137.795C111.861 137.238 109.19 134.456 106.963 131.116C106.741 130.783 106.63 130.449 106.963 130.115C107.186 129.892 107.52 129.781 107.743 130.003C109.523 131.339 111.638 130.894 113.53 131.45C117.76 132.675 120.431 135.569 122.101 139.464C122.212 139.687 122.212 139.91 122.212 140.466Z" fill="#040303"/>
<path d="M132.675 161.28C132.563 161.502 132.563 161.725 132.341 161.948C128.779 167.068 124.883 166.734 121.99 161.057C122.101 160.278 122.991 160.167 123.77 160.278C126.108 160.278 128.445 160.278 130.783 160.278C131.673 160.278 132.675 160.389 132.675 161.28Z" fill="#030304"/>
<path d="M123.214 132.786C121.878 131.228 120.654 129.892 118.984 128.779C121.099 128.779 122.657 130.337 123.214 132.786Z" fill="#040303"/>
<path d="M131.896 132.007C132.786 129.781 133.565 129.002 135.68 128.556C134.456 129.669 133.454 130.671 131.896 132.007Z" fill="#040303"/>
<path d="M137.127 136.793C138.24 135.791 139.353 135.569 140.466 134.901C140.132 137.127 138.796 136.793 137.127 136.793Z" fill="#EFEEEF"/>
<path d="M117.76 136.682C115.868 137.127 114.532 136.682 113.53 134.901C115.2 135.235 116.313 135.903 117.76 136.682Z" fill="#F4F3F4"/>
<path d="M56.8764 205.913L49.6416 216.153H52.2016L54.3164 213.036L61.9964 213.148L64.1112 216.376L66.8938 216.487L59.5477 205.913H56.8764ZM55.7633 211.701L58.1007 208.028L60.6607 211.701H55.7633Z" fill="#E30613"/>
<path d="M70.1216 205.245L68.0068 205.356L68.3408 216.821V217.043L70.4555 216.932L70.1216 205.468V205.245Z" fill="#E30613"/>
<path d="M82.1425 211.367C82.0312 211.256 81.8086 211.144 81.586 211.033C82.5877 210.81 83.3668 210.476 83.9234 210.031C84.5912 209.475 84.8138 208.696 84.8138 207.916C84.8138 207.249 84.5912 206.692 84.146 206.136C83.7007 205.579 83.2555 205.245 82.5877 205.023C81.9199 204.8 81.0294 204.8 79.8051 204.8L73.6833 204.911L74.0173 216.264V216.487H76.1321L76.0207 211.589H77.9129C78.3581 211.589 78.6921 211.589 78.9147 211.589C79.1373 211.589 79.4712 211.701 79.6938 211.812C79.9164 211.923 80.2503 212.146 80.5842 212.48C80.9181 212.814 81.3634 213.37 81.9199 213.927L83.8121 216.264L86.4834 216.153L83.8121 212.925C83.2555 212.257 82.699 211.812 82.1425 211.367ZM82.699 207.916C82.699 208.25 82.5877 208.584 82.3651 208.807C82.1425 209.141 81.8086 209.252 81.4747 209.475C81.0294 209.586 80.4729 209.697 79.6938 209.697L76.1321 209.809L76.0207 206.469L80.0277 206.358C81.0294 206.358 81.6973 206.469 82.1425 206.803C82.4764 207.026 82.699 207.471 82.699 207.916Z" fill="#E30613"/>
<path d="M90.4903 213.593L90.0451 209.92L96.5007 209.141H96.7233L96.5007 207.36L89.8225 208.139L89.4886 204.8L96.3894 204.021H96.612L96.3894 202.24L87.4851 203.242L87.3738 203.353L88.7094 215.485V215.597L97.8364 214.595H98.059L97.8364 212.814L90.4903 213.593Z" fill="#E30613"/>
<path d="M133.676 191.109L130.337 192.223H130.226L129.224 203.687C129.113 204.577 129.113 205.356 129.002 205.802C128.668 205.356 128.222 204.911 127.666 204.355L120.097 195.673L119.986 195.562L116.09 196.897L120.876 211.256V211.367L123.548 210.476L119.763 199.012L128.556 208.807L130.894 208.028L132.118 195.116L135.791 206.247V206.358L138.463 205.468L133.676 191.109Z" fill="#E30613"/>
<path d="M180.313 164.396L177.53 166.177L180.981 179.423C181.315 180.536 181.537 181.426 181.76 182.094C181.315 181.649 180.647 181.092 179.756 180.424L169.071 171.631H168.96L165.955 173.635H165.843L176.083 189.329V189.44L178.087 188.104H178.198L169.85 175.304L182.316 185.322H182.428L184.32 184.097L180.313 168.737L188.438 181.315V181.426L190.442 180.09H190.553L180.313 164.396Z" fill="#E30613"/>
<path d="M136.014 190.219L142.024 204.355L143.916 203.464L138.017 189.329L136.014 190.219Z" fill="#E30613"/>
<path d="M152.598 193.002C152.376 192.89 152.042 192.779 151.708 192.779C152.598 192.111 153.155 191.221 153.377 190.33C153.6 189.329 153.489 188.327 153.043 187.214C152.709 186.435 152.153 185.767 151.485 185.21C150.817 184.654 150.149 184.431 149.482 184.431C148.814 184.431 147.923 184.654 146.81 185.21L141.356 187.882L148.035 202.463L148.146 202.574L150.038 201.683L147.144 195.228L148.814 194.449C149.259 194.226 149.482 194.115 149.704 194.115C149.927 194.115 150.261 194.115 150.595 194.115C150.929 194.226 151.263 194.337 151.819 194.671C152.376 195.005 153.043 195.45 153.823 196.118L156.828 198.456L159.165 197.343L155.047 194.226C154.045 193.781 153.377 193.336 152.598 193.002ZM151.374 189.551C151.374 189.996 151.151 190.442 150.929 190.776C150.595 191.11 150.149 191.443 149.37 191.777L146.143 193.336L144.139 188.883L147.812 187.103C148.703 186.657 149.37 186.657 149.927 186.88C150.483 187.103 150.929 187.548 151.263 188.216C151.263 188.661 151.374 189.106 151.374 189.551Z" fill="#E30613"/>
<path d="M157.495 179.979L159.722 197.231L161.836 196.229L161.057 190.998L167.29 187.882L171.409 191.332L173.635 190.219L159.722 178.866L157.495 179.979ZM165.064 186.323L161.169 188.438L160.167 182.428L165.064 186.323Z" fill="#E30613"/>
<path d="M201.127 160.39C199.791 158.831 198.456 157.607 196.897 156.828C195.339 156.049 193.781 155.715 192.222 155.826C190.664 155.937 189.217 156.605 187.993 157.607C186.101 159.165 185.099 161.28 185.099 163.729C185.099 166.177 186.212 168.737 188.327 171.297C189.44 172.633 190.776 173.746 192.334 174.525C193.669 175.193 195.005 175.638 196.452 175.638C196.675 175.638 196.897 175.638 197.009 175.638C198.567 175.527 200.014 174.97 201.349 173.857C202.574 172.856 203.353 171.631 203.798 170.184C204.243 168.737 204.243 167.068 203.798 165.398C203.353 163.617 202.462 161.948 201.127 160.39ZM201.572 167.624C201.572 169.294 201.016 170.741 199.68 171.854C198.456 172.856 196.897 173.19 195.228 172.856C193.558 172.522 191.889 171.409 190.442 169.628C188.549 167.402 187.659 165.398 187.77 163.617C187.882 161.948 188.438 160.612 189.662 159.61C190.553 158.943 191.443 158.497 192.556 158.497C193.669 158.386 194.782 158.72 195.896 159.276C197.009 159.944 198.122 160.835 199.123 162.059C200.682 163.951 201.461 165.843 201.572 167.624Z" fill="#E30613"/>
<path d="M206.247 140.911L204.355 142.692L215.485 154.379L197.899 149.036H197.788L195.896 150.817L210.588 166.289L210.699 166.4L212.591 164.619L201.461 152.932L219.047 158.275H219.158L221.05 156.494L206.358 141.023L206.247 140.911Z" fill="#E30613"/>
<path d="M216.153 135.457L219.937 131.45L217.711 129.447L208.473 139.242L210.588 141.245L214.372 137.238L228.285 150.483L228.396 150.595L230.177 148.814L216.153 135.457Z" fill="#E30613"/>
<path d="M106.571 197.05L104.424 197.637L109.529 216.318L111.676 215.731L106.571 197.05Z" fill="#E30613"/>
<path d="M76.2434 156.716C76.3547 156.716 76.3547 156.716 76.2434 156.716C76.3547 156.828 76.3547 156.939 76.3547 157.05C76.3547 157.162 76.3547 157.273 76.3547 157.384C76.3547 157.496 76.3547 157.607 76.3547 157.607C76.3547 157.718 76.3547 157.718 76.3547 157.83C76.3547 157.941 76.3547 157.941 76.3547 158.052C76.3547 158.163 76.3547 158.275 76.3547 158.386C76.3547 158.497 76.3547 158.609 76.3547 158.72C76.3547 158.943 76.3547 159.165 76.3547 159.388C76.3547 159.499 76.3547 159.61 76.3547 159.722C76.3547 159.833 76.3547 159.833 76.3547 159.944C76.3547 160.056 76.3547 160.167 76.3547 160.167C76.3547 160.278 76.3547 160.278 76.3547 160.389C76.3547 160.501 76.3547 160.501 76.3547 160.612C76.3547 160.723 76.3547 160.723 76.3547 160.835V160.946C76.3547 160.946 76.3547 160.946 76.3547 161.057V161.169V161.28V161.391V161.503V161.614C76.3547 161.725 76.3547 161.725 76.3547 161.836C76.3547 161.948 76.3547 162.059 76.3547 162.059C76.3547 162.17 76.3547 162.282 76.3547 162.282C76.3547 162.393 76.3547 162.616 76.3547 162.727C76.3547 162.838 76.3547 162.949 76.3547 163.061C76.3547 163.172 76.3547 163.172 76.3547 163.283C76.3547 163.395 76.3547 163.506 76.3547 163.506C76.3547 163.617 76.3547 163.617 76.3547 163.729V163.84V163.951C76.3547 164.063 76.3547 164.174 76.3547 164.174C76.3547 164.285 76.3547 164.285 76.3547 164.396V164.508C76.3547 164.619 76.3547 164.619 76.3547 164.73C76.3547 164.842 76.3547 164.953 76.3547 165.064C76.3547 165.176 76.3547 165.176 76.3547 165.287C76.3547 165.398 76.3547 165.509 76.3547 165.509C76.3547 165.621 76.3547 165.732 76.3547 165.732C76.3547 165.843 76.3547 165.955 76.3547 165.955C76.3547 166.066 76.3547 166.066 76.3547 166.177V166.289V166.4V166.511C76.3547 166.623 76.3547 166.623 76.3547 166.734V166.845C76.3547 166.956 76.3547 166.956 76.3547 167.068C76.3547 167.179 76.3547 167.179 76.3547 167.29C76.3547 167.402 76.3547 167.513 76.3547 167.736C76.3547 167.958 76.3547 168.069 76.3547 168.292C76.3547 168.403 76.3547 168.403 76.3547 168.515C76.3547 168.626 76.3547 168.626 76.3547 168.737C76.3547 168.849 76.3547 168.849 76.3547 168.96C76.3547 169.071 76.3547 169.071 76.3547 169.183C76.3547 169.294 76.3547 169.294 76.3547 169.405C76.3547 169.516 76.3547 169.516 76.3547 169.628V169.739C76.3547 169.85 76.3547 169.962 76.2434 170.073C76.2434 170.184 76.2434 170.296 76.1321 170.407C76.1321 170.518 76.0208 170.741 76.0208 170.852C76.0208 170.963 75.9095 171.075 75.9095 171.186C75.9095 171.297 75.7982 171.409 75.7982 171.409C75.7982 171.52 75.6869 171.52 75.6869 171.631C75.6869 171.743 75.6869 171.743 75.5756 171.854C75.5756 171.854 75.5756 171.965 75.4643 171.965C75.4643 172.076 75.3529 172.188 75.2416 172.299C75.2416 172.41 75.1303 172.41 75.1303 172.522C75.1303 172.522 75.1303 172.522 75.1303 172.633C75.1303 172.744 75.019 172.744 75.019 172.856C75.019 172.967 74.9077 172.967 74.9077 173.078L74.7964 173.189C74.6851 173.301 74.6851 173.301 74.5738 173.412L74.4625 173.523C74.4625 173.635 74.3512 173.635 74.3512 173.635C74.2399 173.746 74.2399 173.857 74.1286 173.857C74.0173 173.969 74.0173 174.08 73.906 174.08L73.7947 174.191C73.6834 174.303 73.6834 174.303 73.5721 174.414C73.4608 174.525 73.3495 174.636 73.2382 174.748C73.1269 174.859 73.1269 174.859 73.0156 174.97C73.0156 174.97 72.9042 175.082 72.7929 175.082C72.6816 175.193 72.6816 175.193 72.5703 175.304C72.459 175.416 72.3477 175.527 72.2364 175.527C72.1251 175.638 72.1251 175.638 72.0138 175.749C71.9025 175.861 71.7912 175.861 71.6799 175.972C71.5686 176.083 71.4573 176.195 71.346 176.195C71.346 176.195 71.2347 176.306 71.1234 176.306C71.0121 176.417 70.9008 176.417 70.9008 176.529C70.7895 176.64 70.6782 176.64 70.6782 176.751C70.5669 176.751 70.5669 176.863 70.4556 176.863C70.3442 176.863 70.3442 176.974 70.2329 176.974C70.2329 176.974 70.1216 176.863 70.0103 176.863C70.0103 176.863 69.899 176.863 69.899 176.751C69.7877 176.751 69.7877 176.64 69.6764 176.529C69.5651 176.417 69.4538 176.417 69.3425 176.306C69.2312 176.195 69.1199 176.083 69.0086 176.083C68.8973 175.972 68.6747 175.861 68.5634 175.749C68.4521 175.638 68.3408 175.527 68.2295 175.416C68.1182 175.304 68.0069 175.193 67.7842 175.082C67.6729 174.97 67.4503 174.748 67.339 174.636C67.2277 174.525 67.1164 174.414 67.0051 174.303C66.8938 174.191 66.7825 174.08 66.6712 173.969L66.5599 173.857C66.4486 173.746 66.3373 173.635 66.3373 173.523C66.226 173.412 66.226 173.301 66.1147 173.189C66.1147 173.078 66.0034 173.078 66.0034 172.967C65.8921 172.856 65.7808 172.744 65.7808 172.633C65.7808 172.522 65.6695 172.522 65.6695 172.41C65.6695 172.299 65.5582 172.299 65.5582 172.188C65.4469 172.076 65.3356 171.854 65.3356 171.743C65.2242 171.631 65.2242 171.409 65.1129 171.297C65.0016 171.075 65.0016 170.963 64.8903 170.741C64.8903 170.63 64.779 170.518 64.779 170.407C64.779 170.296 64.6677 170.073 64.6677 169.962C64.6677 169.85 64.6677 169.85 64.6677 169.739C64.6677 169.628 64.6677 169.628 64.6677 169.516V169.405C64.6677 169.294 64.6677 169.294 64.6677 169.183C64.6677 169.071 64.6677 168.96 64.6677 168.737C64.6677 168.626 64.6677 168.515 64.6677 168.403C64.6677 168.181 64.6677 167.958 64.6677 167.736C64.6677 167.513 64.6677 167.402 64.6677 167.179C64.6677 167.068 64.6677 166.845 64.6677 166.734C64.6677 166.623 64.6677 166.4 64.6677 166.289C64.6677 166.066 64.6677 165.955 64.6677 165.732C64.6677 165.398 64.6677 165.064 64.6677 164.73C64.6677 164.508 64.6677 164.396 64.6677 164.174C64.6677 164.063 64.6677 163.951 64.6677 163.84C64.6677 163.729 64.6677 163.617 64.6677 163.506C64.6677 163.395 64.6677 163.283 64.6677 163.172C64.6677 163.061 64.6677 162.95 64.6677 162.838C64.6677 162.616 64.6677 162.504 64.6677 162.282C64.6677 161.948 64.6677 161.725 64.6677 161.391C64.6677 161.169 64.6677 161.057 64.6677 160.835C64.6677 160.723 64.6677 160.612 64.6677 160.501C64.6677 160.389 64.6677 160.278 64.6677 160.278C64.6677 160.167 64.6677 160.056 64.6677 159.944C64.6677 159.833 64.6677 159.722 64.6677 159.61C64.6677 159.499 64.6677 159.276 64.6677 159.165C64.6677 158.943 64.6677 158.831 64.6677 158.609C64.6677 158.497 64.6677 158.275 64.6677 158.163C64.6677 158.052 64.6677 157.829 64.6677 157.718C64.6677 157.496 64.6677 157.273 64.6677 157.05C64.6677 156.939 64.6677 156.828 64.6677 156.716C64.6677 156.605 64.6677 156.494 64.6677 156.383V156.271C64.6677 156.271 64.6677 156.271 64.779 156.271C64.8903 156.605 76.1321 156.716 76.2434 156.716Z" fill="#040404"/>
<path d="M64.8903 156.939H76.132V168.292C76.132 168.181 73.572 157.496 73.572 157.496C73.572 157.496 73.572 157.496 73.4607 157.496H73.3494L70.5668 172.856L67.8955 157.496C67.8955 157.496 67.8955 157.496 67.7842 157.384H67.6729L65.0016 168.07C64.7789 168.181 64.8903 156.939 64.8903 156.939Z" fill="#E30613"/>
<path d="M76.0207 169.294H75.2416L75.019 168.181C74.7963 168.181 72.3477 168.181 72.3477 168.181C72.3477 168.292 71.2346 174.636 71.2346 174.636H69.899L68.6746 168.181C68.5633 168.181 67.6729 168.181 67.5616 168.181C67.339 168.181 66.0033 168.181 65.892 168.181L65.6694 169.294H64.8903C64.8903 169.294 67.5616 158.052 67.6729 158.052L70.4555 173.412C70.4555 173.412 70.4555 173.412 70.5668 173.412H70.6781L73.4607 158.052C73.4607 158.052 76.0207 169.183 76.0207 169.294Z" fill="#FFFEFE"/>
<path d="M68.452 167.402C68.3407 167.402 66.1146 167.402 66.1146 167.402L67.4503 161.836L68.452 167.402Z" fill="#030405"/>
<path d="M74.6851 167.402H72.459L73.4607 161.836L74.6851 167.402Z" fill="#030406"/>
<path d="M64.2224 156.383C64.2224 156.383 64.2224 169.071 64.2224 169.183C64.2224 169.294 64.2224 169.405 64.2224 169.628C64.2224 169.739 64.2224 169.85 64.2224 169.962C64.2224 170.073 64.2224 170.184 64.2224 170.296C64.2224 170.407 64.2224 170.518 64.3337 170.63C64.3337 170.63 64.445 171.075 64.445 171.186C64.445 171.297 64.445 171.297 64.5563 171.409V171.52C64.5563 171.631 64.5563 171.631 64.6676 171.743C64.6676 171.854 64.7789 171.965 64.7789 171.965C64.7789 172.076 64.8902 172.076 64.8902 172.188V172.299C64.8902 172.41 65.0015 172.41 65.0015 172.522C65.0015 172.633 65.1128 172.633 65.1128 172.744C65.1128 172.744 65.1128 172.856 65.2241 172.856V172.967C65.2241 172.967 65.2242 173.078 65.3355 173.078C65.3355 173.078 65.3355 173.19 65.4468 173.19L65.5581 173.301L65.6694 173.412C65.6694 173.412 65.6694 173.523 65.7807 173.523C65.7807 173.523 65.7807 173.635 65.892 173.635C65.892 173.635 65.892 173.746 66.0033 173.746C66.0033 173.746 66.0033 173.746 66.0033 173.857C66.0033 173.857 66.0033 173.857 66.1146 173.969L66.2259 174.08C66.3372 174.191 66.3372 174.303 66.4485 174.303C66.5598 174.525 66.7824 174.636 66.8937 174.748C67.005 174.859 67.1163 174.97 67.2276 175.193L67.3389 175.304L67.4502 175.416C67.5615 175.527 67.5615 175.527 67.6728 175.638C67.8955 175.75 68.0068 175.972 68.2294 176.083C68.3407 176.195 68.3407 176.195 68.452 176.306L68.5633 176.417L68.6746 176.529C68.7859 176.529 68.7859 176.64 68.8972 176.64C69.0085 176.751 69.0085 176.751 69.1198 176.863C69.2311 176.974 69.3424 176.974 69.3424 177.085C69.4537 177.196 69.565 177.308 69.6763 177.308C69.7876 177.419 69.8989 177.53 70.0102 177.53L70.1215 177.642L70.4555 177.864C70.4555 177.864 70.5668 177.864 70.5668 177.976H70.6781C70.7894 177.976 70.7894 177.976 70.9007 177.976C71.012 177.976 71.012 177.864 71.1233 177.864H71.2346L71.3459 177.753L71.4572 177.642L71.5685 177.53L71.6798 177.419C71.7911 177.308 71.9024 177.308 72.0137 177.196H72.125C72.2363 177.085 72.2363 177.085 72.3476 176.974C72.4589 176.863 72.6815 176.751 72.7928 176.64C72.9042 176.529 73.1268 176.417 73.2381 176.306C73.3494 176.195 73.4607 176.083 73.572 176.083L73.6833 175.972C73.7946 175.861 73.9059 175.75 74.0172 175.638C74.1285 175.527 74.2398 175.416 74.3511 175.193C74.4624 175.082 74.5737 174.97 74.685 174.859L74.7963 174.748L74.9076 174.636L75.0189 174.525L75.1302 174.414L75.4642 174.08L75.5755 173.969C75.6868 173.857 75.6868 173.746 75.7981 173.635C75.9094 173.523 75.9094 173.412 76.0207 173.301V173.19C76.132 172.967 76.2433 172.744 76.3546 172.522C76.4659 172.41 76.4659 172.188 76.5772 171.965C76.6885 171.743 76.6885 171.52 76.7998 171.297C76.7998 171.075 76.9111 170.963 76.9111 170.852C76.9111 170.741 76.9111 170.63 77.0224 170.518V170.407C77.0224 170.296 77.0224 170.296 77.0224 170.184C77.0224 170.073 77.0224 170.073 77.0224 169.962V169.85C77.0224 169.739 77.0224 169.628 77.0224 169.628C77.0224 169.516 77.0224 169.405 77.0224 169.294V169.183C77.0224 169.071 77.0224 168.96 77.0224 168.737V156.383H64.2224ZM64.6676 156.828C66.2259 156.828 74.685 156.828 76.2433 156.828C76.2433 156.828 76.2433 169.294 76.2433 169.405C76.2433 169.516 76.2433 169.516 76.2433 169.628V169.739V169.85C76.2433 169.962 76.2433 169.962 76.2433 170.073V170.184C76.2433 170.296 76.2433 170.407 76.2433 170.407C76.2433 170.518 76.132 170.63 76.132 170.852C76.0207 171.075 76.0207 171.297 75.9094 171.409C75.7981 171.631 75.7981 171.743 75.6868 171.854C75.5755 172.076 75.4641 172.299 75.3528 172.522L75.2415 172.633C75.1302 172.744 75.1302 172.856 75.0189 172.967C74.9076 173.078 74.9076 173.19 74.7963 173.301C74.7963 173.301 74.7963 173.412 74.685 173.412L74.3511 173.746C74.3511 173.746 74.3511 173.857 74.2398 173.857L74.1285 173.969L74.0172 174.08L73.9059 174.191C73.7946 174.303 73.6833 174.414 73.6833 174.525C73.572 174.636 73.4607 174.748 73.3494 174.97C73.2381 175.082 73.1268 175.193 73.0155 175.304L72.9042 175.416C72.7928 175.527 72.6815 175.638 72.5702 175.638C72.4589 175.75 72.3476 175.861 72.125 175.972C72.0137 176.083 71.7911 176.195 71.6798 176.306C71.5685 176.417 71.5685 176.417 71.4572 176.417H71.3459C71.2346 176.529 71.1233 176.529 71.012 176.64L70.9007 176.751L70.7894 176.863L70.6781 176.974L70.5668 177.085H70.4555H70.3442L70.1215 176.863L70.0102 176.751C69.8989 176.64 69.7876 176.529 69.6763 176.529C69.565 176.417 69.4537 176.306 69.3424 176.306C69.2311 176.195 69.1198 176.195 69.1198 176.083C69.0085 175.972 69.0085 175.972 68.8972 175.861C68.7859 175.861 68.7859 175.75 68.6746 175.75L68.5633 175.638L68.452 175.527C68.3407 175.416 68.3407 175.416 68.2294 175.304C68.0068 175.193 67.8955 174.97 67.6728 174.859C67.5615 174.859 67.5615 174.748 67.5615 174.748L67.4502 174.636L67.3389 174.525C67.2276 174.414 67.1163 174.303 67.005 174.08C66.8937 173.969 66.7824 173.746 66.5598 173.635C66.4485 173.523 66.4485 173.523 66.3372 173.412L66.2259 173.301L66.1146 173.19C66.1146 173.19 66.1146 173.078 66.0033 173.078C66.0033 173.078 66.0033 172.967 65.892 172.967C65.892 172.967 65.892 172.856 65.7807 172.856C65.7807 172.856 65.7807 172.744 65.6694 172.744L65.5581 172.633C65.5581 172.633 65.5581 172.522 65.4468 172.522C65.4468 172.522 65.4468 172.41 65.3355 172.41V172.299C65.3355 172.299 65.3355 172.188 65.2241 172.188C65.2241 172.076 65.1128 172.076 65.1128 171.965C65.1128 171.854 65.0015 171.854 65.0015 171.743V171.631C65.0015 171.52 64.8902 171.52 64.8902 171.409C64.8902 171.297 64.7789 171.186 64.7789 171.186V171.075V170.963C64.7789 170.852 64.7789 170.852 64.6676 170.741C64.6676 170.63 64.5563 170.407 64.5563 170.296C64.5563 170.296 64.5563 170.296 64.5563 170.184C64.5563 170.073 64.5563 169.962 64.445 169.85C64.445 169.739 64.445 169.628 64.445 169.516C64.445 169.405 64.445 169.405 64.445 169.294C64.445 169.183 64.445 169.071 64.445 168.96C64.445 168.849 64.445 168.737 64.445 168.626L64.6676 156.828Z" fill="white"/>
<path d="M70.4555 178.087C70.3442 178.087 70.3442 178.087 70.2329 177.976C70.2329 177.976 70.1216 177.976 70.1216 177.864L69.7877 177.642L69.6764 177.53C69.5651 177.419 69.4538 177.308 69.3425 177.308C69.2312 177.196 69.1199 177.085 69.0085 177.085C68.8972 176.974 68.7859 176.974 68.7859 176.863C68.6746 176.751 68.5633 176.751 68.5633 176.64L68.1181 176.306C68.0068 176.195 68.0068 176.195 67.8955 176.083C67.6729 175.972 67.5616 175.75 67.339 175.638C67.2277 175.527 67.2277 175.527 67.1164 175.416L67.0051 175.304L66.7825 175.082C66.6712 174.97 66.5599 174.859 66.4485 174.748C66.3372 174.636 66.2259 174.414 66.0033 174.303C65.892 174.191 65.892 174.08 65.7807 174.08L65.6694 173.969C65.6694 173.969 65.6694 173.969 65.5581 173.857V173.746C65.5581 173.746 65.5581 173.635 65.4468 173.635C65.4468 173.635 65.4468 173.523 65.3355 173.523C65.3355 173.523 65.3355 173.412 65.2242 173.412L65.1129 173.301L65.0016 173.189L64.8903 173.078L64.779 172.967V172.856V172.744C64.779 172.633 64.6677 172.633 64.6677 172.522C64.6677 172.41 64.5564 172.41 64.5564 172.299V172.188C64.5564 172.076 64.4451 172.076 64.4451 171.965C64.4451 171.854 64.3338 171.743 64.3338 171.743C64.3338 171.631 64.3338 171.631 64.2225 171.52V171.409C64.2225 171.297 64.2225 171.297 64.1112 171.186C64.1112 171.075 63.9999 170.63 63.9999 170.63C63.9999 170.518 63.9999 170.407 63.8885 170.296C63.8885 170.184 63.8885 170.073 63.8885 169.962C63.8885 169.85 63.8885 169.739 63.8885 169.628C63.8885 169.516 63.8885 169.405 63.8885 169.183C63.8885 169.071 63.8885 156.828 63.8885 156.383V156.271H63.9999H76.6885V169.183C76.6885 169.294 76.6885 169.405 76.6885 169.405C76.6885 169.516 76.6885 169.516 76.6885 169.628V169.739C76.6885 169.85 76.6885 169.85 76.6885 169.962C76.6885 170.073 76.6885 170.184 76.6885 170.184V170.296C76.6885 170.407 76.6885 170.518 76.6885 170.518C76.6885 170.629 76.5772 170.852 76.5772 170.963C76.4659 171.186 76.4659 171.409 76.3546 171.631C76.2433 171.854 76.2433 171.965 76.132 172.188C76.0207 172.41 75.9094 172.633 75.7981 172.856V172.967C75.6868 173.078 75.6868 173.189 75.5755 173.301C75.4642 173.412 75.4642 173.523 75.3529 173.635C75.3529 173.635 75.3529 173.746 75.2416 173.746L74.9077 174.08L74.7964 174.191L74.6851 174.303L74.5738 174.414C74.5738 174.525 74.4625 174.525 74.4625 174.525C74.3512 174.636 74.2399 174.748 74.1285 174.859C74.0172 174.97 73.9059 175.082 73.7946 175.193C73.6833 175.304 73.572 175.416 73.572 175.416L73.4607 175.527C73.3494 175.638 73.2381 175.749 73.1268 175.749C73.0155 175.861 72.7929 175.972 72.6816 176.083C72.5703 176.195 72.3477 176.306 72.2364 176.417C72.1251 176.529 72.1251 176.529 72.0138 176.64H71.9025C71.7912 176.751 71.6799 176.751 71.5685 176.863L71.4572 176.974L71.1233 177.196C71.012 177.196 71.012 177.308 70.9007 177.308L70.5668 177.53C70.5668 177.976 70.4555 178.087 70.4555 178.087ZM64.3338 156.383C64.3338 157.607 64.3338 168.96 64.3338 169.071C64.3338 169.183 64.3338 169.294 64.3338 169.405C64.3338 169.516 64.3338 169.628 64.3338 169.628C64.3338 169.739 64.3338 169.85 64.3338 169.962C64.3338 170.073 64.3338 170.184 64.4451 170.296C64.4451 170.296 64.5564 170.741 64.5564 170.852C64.5564 170.963 64.5564 170.963 64.6677 171.075V171.186C64.6677 171.297 64.6677 171.297 64.779 171.409C64.779 171.52 64.8903 171.631 64.8903 171.631C64.8903 171.743 65.0016 171.743 65.0016 171.854V171.965C65.0016 172.076 65.1129 172.076 65.1129 172.188C65.1129 172.299 65.2242 172.299 65.2242 172.41C65.2242 172.41 65.2242 172.522 65.3355 172.522V172.633C65.3355 172.633 65.3355 172.744 65.4468 172.744C65.4468 172.744 65.4468 172.856 65.5581 172.856L65.6694 172.967C65.6694 172.967 65.6694 173.078 65.7807 173.078C65.7807 173.078 65.7807 173.189 65.892 173.189C65.892 173.189 65.892 173.301 66.0033 173.301C66.0033 173.301 66.0033 173.412 66.1146 173.412V173.523C66.1146 173.523 66.1146 173.523 66.1146 173.635L66.2259 173.746C66.3372 173.857 66.3372 173.969 66.4485 173.969C66.5599 174.191 66.7825 174.303 66.8938 174.414C67.0051 174.525 67.1164 174.636 67.2277 174.748L67.4503 174.97L67.5616 175.082C67.6729 175.193 67.6729 175.193 67.7842 175.304C68.0068 175.416 68.1181 175.638 68.3407 175.749C68.452 175.861 68.452 175.861 68.5633 175.972L69.0085 176.306C69.1199 176.417 69.1199 176.417 69.2312 176.529C69.3425 176.64 69.4538 176.64 69.4538 176.751C69.5651 176.863 69.6764 176.974 69.7877 176.974C69.899 177.085 70.0103 177.196 70.1216 177.196L70.2329 177.308L70.5668 177.53C70.5668 177.53 70.6781 177.53 70.6781 177.642C70.7894 177.642 70.7894 177.642 70.9007 177.642L71.2346 177.419L71.3459 177.308L71.6799 177.085L71.7912 176.974C71.9025 176.863 72.0138 176.863 72.1251 176.751H72.2364C72.3477 176.64 72.3477 176.64 72.459 176.529C72.5703 176.417 72.7929 176.306 72.9042 176.195C73.0155 176.083 73.2381 175.972 73.3494 175.861C73.4607 175.75 73.572 175.638 73.6833 175.638L73.7946 175.527C73.9059 175.416 74.0172 175.304 74.0172 175.304C74.1285 175.193 74.2399 175.082 74.3512 174.97C74.4625 174.859 74.5738 174.748 74.6851 174.636L74.7964 174.525L74.9077 174.303L75.019 174.191L75.1303 174.08L75.4642 173.746L75.5755 173.635C75.6868 173.523 75.6868 173.412 75.7981 173.301C75.9094 173.189 75.9094 173.078 76.0207 172.967V172.856C76.132 172.633 76.2433 172.41 76.3546 172.188C76.4659 172.076 76.4659 171.854 76.5772 171.743C76.6886 171.52 76.6885 171.297 76.7999 171.075C76.7999 170.852 76.9112 170.741 76.9112 170.63C76.9112 170.518 76.9112 170.407 76.9112 170.407V170.296C76.9112 170.184 76.9112 170.184 76.9112 170.073C76.9112 169.962 76.9112 169.962 76.9112 169.85V169.739C76.9112 169.628 76.9112 169.628 76.9112 169.516C76.9112 169.405 76.9112 169.405 76.9112 169.294V156.494L64.3338 156.383ZM70.4555 177.53C70.3442 177.53 70.3442 177.53 70.4555 177.53L70.1216 177.308L70.0103 177.196C69.899 177.085 69.7877 176.974 69.6764 176.974C69.5651 176.863 69.4538 176.751 69.3425 176.751C69.2312 176.64 69.1199 176.64 69.1199 176.529C69.0085 176.529 69.0085 176.417 68.8972 176.417C68.7859 176.417 68.7859 176.306 68.6746 176.306L68.5633 176.195L68.452 176.083C68.3407 175.972 68.3407 175.972 68.2294 175.861C68.0068 175.75 67.8955 175.527 67.6729 175.416C67.5616 175.416 67.5616 175.304 67.4503 175.193L67.339 175.082L67.2277 174.97C67.1164 174.859 67.0051 174.748 66.8938 174.525C66.7825 174.414 66.6712 174.191 66.4485 174.08C66.3372 173.969 66.3372 173.969 66.2259 173.857L66.1146 173.746L66.0033 173.635L65.892 173.412C65.892 173.412 65.892 173.301 65.7807 173.301L65.6694 173.078C65.6694 173.078 65.6694 172.967 65.5581 172.967C65.5581 172.967 65.5581 172.856 65.4468 172.856L65.3355 172.633C65.3355 172.522 65.2242 172.522 65.2242 172.41C65.2242 172.299 65.1129 172.299 65.1129 172.188L65.0016 172.076C65.0016 172.076 65.0016 171.965 64.8903 171.965C64.8903 171.854 64.779 171.743 64.779 171.743V171.631L64.6677 171.409C64.6677 171.297 64.6677 171.297 64.5564 171.186C64.5564 171.075 64.4451 170.852 64.4451 170.741C64.4451 170.741 64.4451 170.741 64.4451 170.63V170.518C64.4451 170.407 64.4451 170.296 64.4451 170.296C64.4451 170.184 64.4451 170.073 64.4451 169.962C64.4451 169.85 64.4451 169.85 64.4451 169.739C64.4451 169.628 64.4451 169.516 64.4451 169.405C64.4451 169.294 64.4451 169.183 64.4451 169.071V156.939H64.5564C66.1146 156.939 74.5738 156.939 76.132 156.939H76.2433V157.05C76.2433 157.607 76.2433 169.516 76.2433 169.628C76.2433 169.739 76.2433 169.85 76.2433 169.85V169.962V170.073C76.2433 170.184 76.2433 170.184 76.2433 170.296V170.407C76.2433 170.518 76.2433 170.63 76.2433 170.63C76.2433 170.741 76.132 170.852 76.132 171.075C76.0207 171.297 76.0207 171.52 75.9094 171.743C75.7981 171.965 75.7981 172.076 75.6868 172.188C75.5755 172.41 75.4642 172.633 75.3529 172.856L75.2416 172.967C75.1303 173.078 75.1303 173.189 75.019 173.301C74.9077 173.412 74.9077 173.523 74.7964 173.635C74.7964 173.635 74.7964 173.746 74.6851 173.746L74.3512 174.08L74.2398 174.191L74.1285 174.303L74.0172 174.414L73.9059 174.525C73.7946 174.636 73.6833 174.748 73.6833 174.859C73.572 174.97 73.4607 175.082 73.3494 175.193C73.2381 175.304 73.1268 175.416 73.0155 175.527L72.9042 175.638C72.7929 175.75 72.6816 175.75 72.6816 175.861C72.5703 175.972 72.459 176.083 72.2364 176.195C72.1251 176.306 71.9025 176.417 71.7912 176.529C71.6799 176.64 71.6799 176.64 71.5685 176.751H71.4572C71.3459 176.863 71.2346 176.863 71.1233 176.974L71.012 177.085L70.9007 177.196C70.7894 177.196 70.7894 177.308 70.7894 177.308L70.6781 177.419L70.4555 177.53ZM66.2259 173.301L66.3372 173.412L66.4485 173.523C66.5599 173.635 66.5599 173.635 66.6712 173.746C66.7825 173.969 66.8938 174.08 67.1164 174.191C67.2277 174.303 67.339 174.414 67.4503 174.636L67.5616 174.748L67.6729 174.859L67.7842 174.97C68.0068 175.082 68.1181 175.304 68.3407 175.416C68.452 175.527 68.452 175.527 68.5633 175.638L68.6746 175.749L68.7859 175.861C68.8972 175.861 68.8972 175.972 69.0085 175.972C69.1199 175.972 69.1199 176.083 69.2312 176.083C69.3425 176.195 69.4538 176.195 69.4538 176.306C69.5651 176.417 69.6764 176.529 69.7877 176.529C69.899 176.64 70.0103 176.751 70.1216 176.751L70.2329 176.863L70.4555 177.085L70.5668 176.974L70.6781 176.863L70.7894 176.751L70.9007 176.64L71.012 176.529C71.1233 176.417 71.2346 176.417 71.3459 176.306H71.4572C71.5685 176.306 71.5685 176.195 71.6799 176.195C71.7912 176.083 72.0138 175.972 72.1251 175.861C72.2364 175.75 72.3477 175.638 72.5703 175.527C72.6816 175.416 72.7929 175.416 72.7929 175.304L72.9042 175.193C73.0155 175.082 73.1268 174.97 73.2381 174.859C73.3494 174.748 73.4607 174.636 73.572 174.525C73.6833 174.414 73.7946 174.303 73.7946 174.191L73.9059 174.08L74.0172 173.969L74.1285 173.857C74.1285 173.857 74.1285 173.857 74.2398 173.746L74.5738 173.301C74.5738 173.301 74.5738 173.189 74.6851 173.189C74.7964 173.078 74.7964 172.967 74.9077 172.856C75.019 172.744 75.019 172.633 75.1303 172.522L75.2416 172.41C75.3529 172.188 75.4642 171.965 75.5755 171.743C75.6868 171.631 75.6868 171.409 75.7981 171.297C75.9094 171.075 75.9094 170.852 76.0207 170.741C76.0207 170.63 76.132 170.407 76.132 170.296C76.132 170.184 76.132 170.184 76.132 170.073V169.962C76.132 169.85 76.132 169.85 76.132 169.739V169.628V169.516C76.132 169.405 76.132 169.405 76.132 169.294C76.132 169.183 76.132 157.941 76.132 156.828C74.3512 156.828 66.5599 156.828 64.779 156.828V168.737C64.779 168.849 64.779 168.96 64.779 169.071C64.779 169.183 64.779 169.294 64.779 169.405C64.779 169.516 64.779 169.516 64.779 169.628C64.779 169.739 64.779 169.85 64.779 169.962C64.779 170.073 64.779 170.184 64.779 170.184V170.296C64.779 170.407 64.8903 170.63 64.8903 170.741C64.8903 170.852 64.8903 170.852 65.0016 170.963L65.1129 171.186V171.297C65.1129 171.409 65.2242 171.409 65.2242 171.52C65.2242 171.631 65.2242 171.631 65.3355 171.743L65.4468 171.854C65.4468 171.965 65.5581 171.965 65.5581 172.076C65.5581 172.188 65.6694 172.188 65.6694 172.299L65.7807 172.522C65.7807 172.522 65.7807 172.633 65.892 172.633C65.892 172.633 65.892 172.744 66.0033 172.744L66.1146 172.967C66.1146 172.967 66.1146 173.078 66.2259 173.078V173.301Z" fill="#040404"/>
<path d="M190.219 96.5008C195.874 96.5008 200.459 91.9161 200.459 86.2608C200.459 80.6054 195.874 76.0208 190.219 76.0208C184.564 76.0208 179.979 80.6054 179.979 86.2608C179.979 91.9161 184.564 96.5008 190.219 96.5008Z" fill="white"/>
<path d="M194.003 81.4746V81.3633L193.558 81.6972V81.8085L194.003 81.4746Z" fill="black"/>
<path d="M193.781 80.4729L193.558 80.6955V80.8068L193.892 80.4729H193.781Z" fill="black"/>
<path d="M193.669 80.4729L193.558 80.5842V80.6955L193.781 80.4729H193.669Z" fill="black"/>
<path d="M194.003 80.8068L193.558 81.252V81.3633L194.003 80.9181V80.8068Z" fill="black"/>
<path d="M194.003 81.0294L193.558 81.3633V81.4746L194.003 81.0294Z" fill="black"/>
<path d="M194.003 80.6955V80.5842L193.558 81.0294V81.1408L194.003 80.6955Z" fill="black"/>
<path d="M194.003 81.4746L193.558 81.9198V82.0311L194.003 81.5859V81.4746Z" fill="black"/>
<path d="M194.003 80.4729L193.558 80.9181L194.003 80.5842V80.4729Z" fill="black"/>
<path d="M194.003 81.1407L193.558 81.586V81.6973L194.003 81.252V81.1407Z" fill="black"/>
<path d="M193.113 87.4851H193.558V92.0486H194.003V86.8173V81.6973L193.558 82.1425V85.3703V86.9286H193.113" fill="black"/>
<path d="M194.003 80.4729H193.892L193.558 80.8068V80.9181L194.003 80.4729Z" fill="#E32021"/>
<path d="M194.003 80.5842L193.558 80.9181V81.0294L194.003 80.5842Z" fill="#E32021"/>
<path d="M194.003 80.6956L193.558 81.1408V81.2521L194.003 80.8069V80.6956Z" fill="#E32021"/>
<path d="M194.003 80.9181L193.558 81.3633L194.003 81.0294V80.9181Z" fill="#E32021"/>
<path d="M194.003 81.0294L193.558 81.4746V81.5859L194.003 81.1407V81.0294Z" fill="#E32021"/>
<path d="M194.003 81.2521L193.558 81.6973L194.003 81.3634V81.2521Z" fill="#E32021"/>
<path d="M194.003 81.4746L193.558 81.8085V81.9198L194.003 81.4746Z" fill="#E32021"/>
<path d="M194.003 81.5859L193.558 82.0312V82.1425L194.003 81.6972V81.5859Z" fill="#E32021"/>
<path d="M193.781 80.4729L193.558 80.6955L193.781 80.4729Z" fill="#E32021"/>
<path d="M193.669 80.4729H193.558V80.5842L193.669 80.4729Z" fill="#E32021"/>
<path d="M193.002 86.2608H192.111V81.3634L190.775 83.8121L189.996 83.9234L188.661 81.4747V84.146H187.77V80.6956H188.995L190.33 83.2556L191.666 80.6956H192.89V86.2608H193.002Z" fill="#E30613"/>
<path d="M193.002 86.2607H192.111V81.4747L190.775 83.8121L189.996 83.9234L188.661 81.4747V84.146H187.659V80.5842H188.883L190.219 83.1442L191.555 80.5842H192.779V86.2607H193.002ZM192.111 86.2607H193.002V80.5842H191.777L190.442 83.1442L188.995 80.5842H187.77V84.0347H188.661V81.3634L189.996 83.9234L190.775 83.8121L192.111 81.3634V86.2607Z" fill="#E30613"/>
<path d="M189.217 88.8208C189.217 89.0434 189.329 89.266 189.329 89.4886C189.44 89.7112 189.551 89.9338 189.662 90.0451C189.774 90.1564 189.996 90.2677 190.108 90.379C190.33 90.4903 190.442 90.4903 190.664 90.4903C190.887 90.4903 190.998 90.4903 191.221 90.379C191.443 90.379 191.555 90.2677 191.666 90.1564C191.777 90.0451 191.889 89.9338 192 89.7112C192.111 89.5999 192.111 89.3773 192.111 89.1547C192.111 88.9321 192.111 88.8208 192 88.5982C191.889 88.4869 191.777 88.3756 191.666 88.2643C191.555 88.153 191.332 88.0417 191.109 88.0417C190.887 87.9303 190.664 87.9304 190.553 87.819C190.33 87.7077 189.996 87.5964 189.774 87.4851C189.551 87.3738 189.217 87.2625 188.995 87.0399C188.772 86.9286 188.661 86.706 188.438 86.4834C188.327 86.2608 188.216 85.9269 188.216 85.593C188.216 85.259 188.215 85.0364 188.327 84.7025C188.438 84.4799 188.549 84.2573 188.772 84.0347C188.995 83.9234 189.217 83.7008 189.551 83.7008C189.885 83.5895 190.108 83.5895 190.442 83.5895C190.887 83.5895 191.221 83.7008 191.555 83.8121C191.889 83.9234 192.111 84.146 192.222 84.3686C192.445 84.5912 192.556 84.8138 192.668 85.1477C192.779 85.4817 192.779 85.7043 192.779 85.9269H191.777C191.777 85.4817 191.555 85.0364 191.332 84.8138C191.109 84.5912 190.776 84.4799 190.442 84.4799C190.33 84.4799 190.108 84.4799 189.996 84.4799C189.885 84.4799 189.662 84.5912 189.551 84.7025C189.44 84.8138 189.329 84.9251 189.217 85.0364C189.106 85.1477 189.106 85.3703 189.106 85.4817C189.106 85.7043 189.106 85.8156 189.217 86.0382C189.329 86.1495 189.44 86.2608 189.551 86.3721C189.662 86.4834 189.885 86.5947 190.108 86.706C190.33 86.8173 190.553 86.8173 190.664 86.9286C190.887 87.0399 191.221 87.1512 191.443 87.2625C191.666 87.3738 192 87.4851 192.111 87.7077C192.334 87.819 192.445 88.0417 192.668 88.2643C192.779 88.4869 192.89 88.8208 192.89 89.1547C192.89 89.4886 192.779 89.8225 192.668 90.1564C192.556 90.4903 192.334 90.713 192.111 90.8243C191.889 91.0469 191.666 91.1582 191.332 91.2695C190.998 91.3808 190.664 91.3808 190.33 91.3808C189.996 91.3808 189.662 91.2695 189.44 91.1582C189.106 91.0469 188.883 90.8243 188.661 90.6017C188.438 90.379 188.216 90.0451 188.104 89.7112C187.993 89.3773 187.882 89.0434 187.882 88.5982H189.217V88.8208Z" fill="black"/>
<path d="M190.776 91.7147C190.442 91.7147 190.108 91.6034 189.774 91.4921C189.44 91.3808 189.106 91.1582 188.883 90.9355C188.661 90.7129 188.438 90.379 188.216 90.0451C188.104 89.7112 187.993 89.266 187.993 88.8208V88.5981H189.329V88.8208C189.329 89.0434 189.44 89.266 189.44 89.4886C189.551 89.7112 189.662 89.8225 189.774 90.0451C189.885 90.1564 189.996 90.2677 190.219 90.379C190.553 90.4903 190.887 90.4903 191.221 90.379C191.332 90.379 191.555 90.2677 191.666 90.1564C191.777 90.0451 191.889 89.9338 191.889 89.8225C192 89.7112 192 89.4886 192 89.266C192 89.1547 192 88.9321 191.889 88.8208C191.777 88.7095 191.666 88.5981 191.555 88.4868C191.443 88.3755 191.221 88.2642 191.109 88.2642C190.887 88.1529 190.664 88.1529 190.553 88.0416C190.33 87.9303 189.996 87.819 189.774 87.7077C189.44 87.5964 189.217 87.4851 188.995 87.2625C188.772 87.0399 188.549 86.8173 188.438 86.5947C188.327 86.3721 188.216 86.0382 188.216 85.5929C188.216 85.259 188.327 84.9251 188.438 84.7025C188.549 84.4799 188.772 84.2573 188.995 84.0347C189.217 83.8121 189.44 83.7008 189.774 83.5895C190.108 83.4781 190.442 83.4781 190.776 83.4781C191.221 83.4781 191.666 83.5895 192 83.7008C192.334 83.8121 192.556 84.0347 192.779 84.3686C193.002 84.5912 193.113 84.9251 193.224 85.259C193.336 85.5929 193.336 85.8155 193.336 86.1495V86.3721H192V86.2608C192 85.8155 191.889 85.4816 191.666 85.259C191.443 85.0364 191.221 84.9251 190.887 84.9251C190.776 84.9251 190.553 84.9251 190.442 84.9251C190.33 84.9251 190.219 85.0364 190.108 85.0364C189.996 85.1477 189.885 85.1477 189.885 85.259C189.774 85.3703 189.774 85.4816 189.774 85.5929C189.774 85.8155 189.774 85.9268 189.885 86.0381C189.996 86.1495 190.108 86.2608 190.219 86.3721C190.33 86.4834 190.553 86.5947 190.664 86.5947C190.887 86.706 191.109 86.706 191.221 86.8173C191.443 86.9286 191.777 87.0399 192 87.1512C192.334 87.2625 192.556 87.3738 192.779 87.5964C193.002 87.819 193.224 88.0416 193.336 88.2642C193.447 88.4868 193.558 88.8208 193.558 89.266C193.558 89.7112 193.447 90.0451 193.336 90.2677C193.224 90.6016 193.002 90.8242 192.779 91.0468C192.556 91.2695 192.222 91.3808 191.889 91.4921C191.443 91.6034 191.109 91.7147 190.776 91.7147ZM188.327 88.9321C188.327 89.266 188.438 89.5999 188.549 89.8225C188.661 90.1564 188.883 90.379 189.106 90.6016C189.329 90.8242 189.551 90.9355 189.885 91.1582C190.219 91.2695 190.442 91.3808 190.776 91.3808C191.109 91.3808 191.443 91.3808 191.666 91.2695C192 91.1581 192.222 91.0468 192.334 90.8242C192.556 90.6016 192.668 90.4903 192.779 90.1564C192.89 89.9338 193.002 89.5999 193.002 89.266C193.002 88.9321 192.89 88.7095 192.779 88.4868C192.668 88.2642 192.445 88.0416 192.334 87.9303C192.111 87.819 191.889 87.5964 191.666 87.4851C191.443 87.3738 191.109 87.2625 190.887 87.1512C190.664 87.0399 190.442 87.0399 190.33 86.9286C190.108 86.8173 189.885 86.706 189.774 86.5947C189.551 86.4834 189.44 86.3721 189.329 86.1495C189.217 85.9268 189.106 85.8155 189.106 85.4816C189.106 85.259 189.106 85.0364 189.217 84.9251C189.329 84.8138 189.44 84.5912 189.551 84.5912C189.662 84.4799 189.885 84.4799 189.996 84.3686C190.219 84.3686 190.33 84.2573 190.553 84.2573C190.998 84.2573 191.332 84.3686 191.555 84.7025C191.777 84.9251 192 85.259 192 85.7042H192.668C192.668 85.4816 192.556 85.3703 192.556 85.1477C192.445 84.9251 192.334 84.5912 192.222 84.3686C192.111 84.146 191.889 83.9234 191.555 83.8121C191.332 83.7008 190.887 83.5895 190.553 83.5895C190.219 83.5895 189.885 83.5895 189.662 83.7008C189.44 83.8121 189.217 83.9234 188.995 84.0347C188.772 84.146 188.661 84.3686 188.549 84.5912C188.438 84.8138 188.438 85.0364 188.438 85.3703C188.438 85.7042 188.549 85.9268 188.661 86.1495C188.772 86.3721 188.995 86.5947 189.106 86.706C189.329 86.8173 189.551 87.0399 189.774 87.1512C189.996 87.2625 190.33 87.3738 190.553 87.4851C190.776 87.5964 190.998 87.5964 191.109 87.7077C191.332 87.819 191.555 87.9303 191.666 88.0416C191.889 88.1529 192 88.2642 192.111 88.4868C192.222 88.7095 192.222 88.8208 192.222 89.0434C192.222 89.266 192.222 89.4886 192.111 89.7112C192 89.9338 191.889 90.0451 191.777 90.1564C191.666 90.2677 191.443 90.379 191.221 90.379C190.998 90.379 190.776 90.4903 190.664 90.4903C190.442 90.4903 190.219 90.4903 189.996 90.379C189.774 90.2677 189.551 90.1564 189.44 89.9338C189.329 89.7112 189.217 89.5999 189.106 89.266C188.995 89.0434 188.995 88.9321 188.995 88.7095H188.327V88.9321Z" fill="white"/>
<path d="M189.217 88.8208C189.217 89.0434 189.329 89.266 189.329 89.4886C189.44 89.7112 189.551 89.9338 189.662 90.0451C189.774 90.1564 189.996 90.2677 190.108 90.379C190.33 90.4903 190.442 90.4903 190.664 90.4903C190.887 90.4903 190.998 90.4903 191.221 90.379C191.443 90.379 191.555 90.2677 191.666 90.1564C191.777 90.0451 191.889 89.9338 192 89.7112C192.111 89.5999 192.111 89.3773 192.111 89.1547C192.111 88.9321 192.111 88.8208 192 88.5982C191.889 88.4869 191.777 88.3756 191.666 88.2643C191.555 88.153 191.332 88.0417 191.109 88.0417C190.887 87.9303 190.664 87.9304 190.553 87.819C190.33 87.7077 189.996 87.5964 189.774 87.4851C189.551 87.3738 189.217 87.2625 188.995 87.0399C188.772 86.9286 188.661 86.706 188.438 86.4834C188.327 86.2608 188.216 85.9269 188.216 85.593C188.216 85.259 188.215 85.0364 188.327 84.7025C188.438 84.4799 188.549 84.2573 188.772 84.0347C188.995 83.9234 189.217 83.7008 189.551 83.7008C189.885 83.5895 190.108 83.5895 190.442 83.5895C190.887 83.5895 191.221 83.7008 191.555 83.8121C191.889 83.9234 192.111 84.146 192.222 84.3686C192.445 84.5912 192.556 84.8138 192.668 85.1477C192.779 85.4817 192.779 85.7043 192.779 85.9269H191.777C191.777 85.4817 191.555 85.0364 191.332 84.8138C191.109 84.5912 190.776 84.4799 190.442 84.4799C190.33 84.4799 190.108 84.4799 189.996 84.4799C189.885 84.4799 189.662 84.5912 189.551 84.7025C189.44 84.8138 189.329 84.9251 189.217 85.0364C189.106 85.1477 189.106 85.3703 189.106 85.4817C189.106 85.7043 189.106 85.8156 189.217 86.0382C189.329 86.1495 189.44 86.2608 189.551 86.3721C189.662 86.4834 189.885 86.5947 190.108 86.706C190.33 86.8173 190.553 86.8173 190.664 86.9286C190.887 87.0399 191.221 87.1512 191.443 87.2625C191.666 87.3738 192 87.4851 192.111 87.7077C192.334 87.819 192.445 88.0417 192.668 88.2643C192.779 88.4869 192.89 88.8208 192.89 89.1547C192.89 89.4886 192.779 89.8225 192.668 90.1564C192.556 90.4903 192.334 90.713 192.111 90.8243C191.889 91.0469 191.666 91.1582 191.332 91.2695C190.998 91.3808 190.664 91.3808 190.33 91.3808C189.996 91.3808 189.662 91.2695 189.44 91.1582C189.106 91.0469 188.883 90.8243 188.661 90.6017C188.438 90.379 188.216 90.0451 188.104 89.7112C187.993 89.3773 187.882 89.0434 187.882 88.5982H189.217V88.8208Z" fill="black"/>
<path d="M192 89.3773H189.996V91.3808H192.223V91.9373H189.329V86.4834H192.111V87.0399H189.996V88.7095H192V89.3773Z" fill="#E32021"/>
<path d="M192.334 92.0486H189.106V86.2607H192.222V87.1512H190.108V88.4868H192.111V89.3773H190.108V91.0468H192.334V92.0486ZM189.44 91.7147H192V91.492H189.774V89.1547H191.777V88.932H189.774V86.9286H191.889V86.706H189.44V91.7147Z" fill="white"/>
<path d="M192 89.3773H189.996V91.3808H192.223V91.9373H189.329V86.4834H192.111V87.0399H189.996V88.7095H192V89.3773Z" fill="#E30613"/>
<path d="M192.223 91.9373H189.329V86.4834H192.111V87.0399H189.996V88.7095H192V89.266H189.996V91.1582H192.223V91.9373ZM189.329 91.9373H192.223V91.3808H189.996V89.3773H192V88.8208H189.996V87.0399H192.111V86.4834H189.329V91.9373Z" fill="#E30613"/>
<path d="M186.769 81.4746V81.3633L187.214 81.6972V81.8085L186.769 81.4746Z" fill="black"/>
<path d="M186.991 80.4729L187.214 80.6955V80.8068L186.88 80.4729H186.991Z" fill="black"/>
<path d="M187.102 80.4729L187.214 80.5842V80.6955L186.991 80.4729H187.102Z" fill="black"/>
<path d="M186.769 80.8068L187.214 81.252V81.3633L186.769 80.9181V80.8068Z" fill="black"/>
<path d="M186.769 81.1407V81.0294L187.214 81.3633V81.4746L186.769 81.0294V81.1407Z" fill="black"/>
<path d="M186.769 80.6955V80.5842L187.214 81.0294V81.1408L186.769 80.6955Z" fill="black"/>
<path d="M186.769 81.5859L187.214 81.9198V82.0312L186.769 81.5859Z" fill="black"/>
<path d="M186.769 80.4729L187.214 80.9181V81.0294L186.769 80.5842V80.4729Z" fill="black"/>
<path d="M186.769 81.1407L187.214 81.586V81.6973L186.769 81.252V81.1407Z" fill="black"/>
<path d="M188.104 87.4851H187.214V92.0486H186.769V86.8173V81.6973L187.214 82.1425V85.3703V86.9286H188.104" fill="black"/>
<path d="M186.769 80.4729H186.88L187.214 80.8068V80.9181L186.769 80.4729Z" fill="#E32021"/>
<path d="M186.769 80.5842L187.214 81.0294L186.769 80.5842Z" fill="#E32021"/>
<path d="M186.769 80.6956L187.214 81.1408V81.2521L186.769 80.8069V80.6956Z" fill="#E32021"/>
<path d="M186.769 80.9181L187.214 81.3633L186.769 81.0294V80.9181Z" fill="#E32021"/>
<path d="M186.769 81.1407V81.0294L187.214 81.4746V81.5859L186.769 81.1407Z" fill="#E32021"/>
<path d="M186.769 81.2521L187.214 81.6973L186.769 81.3634V81.2521Z" fill="#E32021"/>
<path d="M186.769 81.4746L187.214 81.8085V81.9198L186.769 81.5859V81.4746Z" fill="#E32021"/>
<path d="M186.769 81.5859L187.214 82.0312V82.1425L186.769 81.6972V81.5859Z" fill="#E32021"/>
<path d="M186.991 80.4729L187.214 80.6955L186.991 80.4729Z" fill="#E32021"/>
<path d="M187.102 80.4729H187.214V80.5842L187.102 80.4729Z" fill="#E32021"/>
<path d="M190.219 96.5008C184.542 96.5008 179.979 91.9373 179.979 86.2608C179.979 80.5842 184.542 76.0208 190.219 76.0208C195.896 76.0208 200.459 80.5842 200.459 86.2608C200.459 91.9373 195.896 96.5008 190.219 96.5008ZM190.219 79.6938C186.657 79.6938 183.763 82.5877 183.763 86.1494C183.763 89.7112 186.657 92.6051 190.219 92.6051C193.781 92.6051 196.675 89.7112 196.675 86.1494C196.786 82.699 193.892 79.6938 190.219 79.6938Z" fill="black"/>
<path d="M190.219 95.9442C184.876 95.9442 180.424 91.6033 180.424 86.1494C180.424 80.6955 184.765 76.3546 190.219 76.3546C195.562 76.3546 200.014 80.6955 200.014 86.1494C200.014 91.6033 195.673 95.9442 190.219 95.9442ZM190.219 76.7998C185.099 76.7998 180.869 81.0294 180.869 86.1494C180.869 91.2694 185.099 95.499 190.219 95.499C195.339 95.499 199.569 91.2694 199.569 86.1494C199.569 81.0294 195.45 76.7998 190.219 76.7998Z" fill="#E30613"/>
<path d="M183.318 81.1407L183.541 81.252L183.207 81.9199L183.429 82.0312L183.763 81.4747L183.986 81.586L183.652 82.1425L183.875 82.2538L184.32 81.586L184.542 81.6973L183.986 82.5877L182.762 81.8086L183.318 81.1407Z" fill="white"/>
<path d="M184.654 81.6972H184.542L184.431 81.5859V81.4746L184.542 81.3633H184.654L184.765 81.4746V81.5859C184.765 81.6972 184.765 81.6972 184.654 81.6972Z" fill="white"/>
<path d="M184.542 80.2502C184.654 80.3616 184.654 80.3616 184.654 80.3616C184.654 80.3616 184.765 80.3616 184.876 80.2502C184.988 80.1389 185.099 80.1389 185.21 80.1389C185.322 80.1389 185.433 80.1389 185.544 80.2502C185.655 80.3616 185.655 80.4729 185.655 80.5842C185.655 80.6955 185.544 80.8068 185.433 80.9181C185.21 81.0294 185.099 81.1407 184.765 81.1407V80.8068C184.988 80.8068 185.099 80.8068 185.21 80.6955L185.322 80.5842V80.4729H185.21C185.21 80.4729 185.099 80.4729 184.988 80.5842C184.876 80.6955 184.654 80.6955 184.654 80.6955C184.542 80.6955 184.431 80.6955 184.32 80.5842C184.209 80.4729 184.208 80.3616 184.208 80.2502C184.208 80.1389 184.32 80.0276 184.431 79.9163C184.542 79.805 184.542 79.805 184.654 79.805C184.765 79.805 184.876 79.6937 184.988 79.6937V80.0276C184.876 80.0276 184.654 80.1389 184.542 80.1389C184.542 80.1389 184.542 80.1389 184.542 80.2502Z" fill="white"/>
<path d="M187.325 78.8033V79.6938L187.103 79.8051L186.435 79.2485L186.88 80.139L186.546 80.2503L185.878 78.9146L186.323 78.692L186.991 79.2485V78.3581L187.436 78.1355L188.104 79.4712L187.77 79.5825L187.325 78.8033Z" fill="white"/>
<path d="M187.882 78.0241L188.216 77.9128L188.549 79.3598L188.216 79.4711L187.882 78.0241Z" fill="white"/>
<path d="M189.996 78.1355C189.996 78.3581 189.996 78.5807 189.774 78.5807L190.219 79.0259H189.774L189.44 78.5807H189.217V79.0259H188.883L188.772 77.579H189.329C189.551 77.579 189.774 77.579 189.885 77.6903C189.885 77.8016 189.996 77.9129 189.996 78.1355ZM189.551 78.3581C189.551 78.3581 189.551 78.2468 189.551 78.1355C189.551 78.0242 189.551 78.0242 189.44 78.0242C189.44 78.0242 189.329 78.0242 189.217 78.0242H188.995V78.4694H189.217C189.44 78.4694 189.551 78.3581 189.551 78.3581Z" fill="white"/>
<path d="M191.443 79.2486L191.332 78.9147L190.664 78.8034L190.442 79.1373H190.108L190.887 77.6903H191.221L191.666 79.2486H191.443ZM191.109 78.1355L190.887 78.5807H191.221L191.109 78.1355Z" fill="white"/>
<path d="M193.447 78.9146L192.779 79.5824L192.556 79.4711L192.445 78.5807L192.111 79.4711L191.777 79.3598L192.334 78.0242L192.779 78.1355L192.89 79.0259L193.558 78.3581L194.003 78.4694L193.447 79.805L193.113 79.6937L193.447 78.9146Z" fill="white"/>
<path d="M194.783 80.5841C194.56 80.5841 194.337 80.5841 194.226 80.4728C194.003 80.3615 193.892 80.1389 193.892 79.9163C193.892 79.6937 193.892 79.4711 194.003 79.3598C194.115 79.1372 194.337 79.0259 194.56 79.0259C194.783 79.0259 195.005 79.0259 195.116 79.1372C195.339 79.2485 195.45 79.4711 195.45 79.6937C195.45 79.9163 195.45 80.1389 195.339 80.2502C195.116 80.4728 195.005 80.5841 194.783 80.5841ZM195.005 80.1389C195.116 80.0276 195.116 79.9163 195.116 79.805C195.116 79.6937 195.005 79.5824 194.894 79.4711C194.783 79.3598 194.671 79.3598 194.56 79.3598C194.449 79.3598 194.337 79.4711 194.226 79.5824C194.115 79.6937 194.115 79.805 194.115 79.9163C194.115 80.0276 194.226 80.1389 194.337 80.2502C194.449 80.3615 194.56 80.3615 194.671 80.3615C194.783 80.2502 194.894 80.2502 195.005 80.1389Z" fill="white"/>
<path d="M196.786 80.9182L197.009 81.1408L195.896 82.1425L195.673 81.9199L195.896 80.8069L195.228 81.3634L195.005 81.1408L196.118 80.139L196.341 80.3616L196.118 81.586L196.786 80.9182Z" fill="white"/>
<path d="M197.342 82.2537L196.341 82.8103L196.229 82.4763L197.231 81.9198L197.008 81.5859L197.231 81.4746L197.788 82.4763L197.565 82.5877L197.342 82.2537Z" fill="white"/>
<path d="M184.097 90.8242L183.096 91.492L182.984 91.2694L183.986 90.6016L183.763 90.2677L183.986 90.1564L184.543 90.9355L184.32 91.0468L184.097 90.8242Z" fill="white"/>
<path d="M184.097 92.1599C184.097 92.2712 184.097 92.3825 184.209 92.3825C184.32 92.4939 184.32 92.4939 184.431 92.4939C184.543 92.4939 184.654 92.3825 184.654 92.3825L185.21 91.826L185.322 91.9373L184.765 92.4939C184.654 92.6052 184.431 92.7165 184.32 92.7165C184.209 92.7165 183.986 92.7165 183.875 92.6052C183.763 92.4939 183.652 92.3825 183.652 92.1599C183.652 92.0486 183.763 91.826 183.875 91.7147L184.431 91.1582L184.543 91.2695L183.986 91.826C184.209 92.0486 184.097 92.1599 184.097 92.1599Z" fill="white"/>
<path d="M186.323 93.1616C186.212 93.3842 185.989 93.3842 185.878 93.3842V94.052L185.656 93.9407V93.3842L185.433 93.2729L185.21 93.7181L184.988 93.6068L185.767 92.3824L186.212 92.6051C186.435 92.7164 186.435 92.8277 186.546 92.939C186.435 92.8277 186.435 92.939 186.323 93.1616ZM185.989 93.1616C186.101 93.1616 186.101 93.0503 186.101 93.0503C186.101 92.939 186.212 92.939 186.101 92.8277C186.101 92.8277 185.989 92.7164 185.878 92.6051L185.656 92.4937L185.433 92.939L185.656 93.0503C185.878 93.1616 185.878 93.1616 185.989 93.1616Z" fill="white"/>
<path d="M187.214 93.1616C187.103 93.1616 187.103 93.1616 187.103 93.1616C187.103 93.1616 186.991 93.1616 186.991 93.2729V93.3842C186.991 93.3842 187.103 93.4955 187.214 93.6068C187.325 93.7181 187.436 93.8294 187.436 93.8294C187.436 93.9407 187.436 94.052 187.436 94.1633C187.436 94.2746 187.325 94.3859 187.214 94.3859C187.103 94.3859 186.991 94.3859 186.88 94.3859C186.657 94.2746 186.546 94.1633 186.435 93.9407L186.657 93.8294C186.769 93.9407 186.88 94.052 186.991 94.1633C187.103 94.1633 187.103 94.1633 187.214 94.1633C187.214 94.1633 187.325 94.1633 187.325 94.052V93.9407L187.214 93.8294C187.103 93.7181 187.103 93.7181 186.991 93.7181L186.88 93.6068C186.88 93.4955 186.88 93.3842 186.88 93.2729C186.88 93.1616 186.991 93.0503 187.103 93.0503C187.214 93.0503 187.325 93.0503 187.436 93.0503C187.548 93.0503 187.548 93.1616 187.659 93.1616C187.77 93.2729 187.77 93.2729 187.77 93.3842L187.548 93.4955L187.436 93.3842C187.325 93.2729 187.214 93.1616 187.214 93.1616Z" fill="white"/>
<path d="M187.882 94.3859L187.659 94.7198H187.436L188.327 93.4955H188.549L188.772 95.0537H188.549L188.438 94.7198L187.882 94.3859ZM188.549 94.2746L188.438 93.6068L188.104 94.1633L188.549 94.2746Z" fill="white"/>
<path d="M190.33 93.6068H190.553V95.0538H190.33L189.662 94.052V95.0538H189.44V93.6068H189.662L190.442 94.7199L190.33 93.6068Z" fill="white"/>
<path d="M192.556 93.7182C192.556 93.9408 192.556 94.1634 192.334 94.1634L192.779 94.6086L192.556 94.7199L192.111 94.2747L191.777 94.386L191.889 94.8312H191.666L191.443 93.4956L191.889 93.3843C192.111 93.3843 192.222 93.3843 192.334 93.3843C192.445 93.4956 192.556 93.4956 192.556 93.7182ZM192.334 93.9408C192.334 93.9408 192.334 93.8295 192.334 93.7182C192.334 93.6069 192.222 93.6069 192.222 93.4956C192.222 93.3843 192.111 93.4956 192 93.4956L191.777 93.6069L191.889 94.0521L192.111 93.9408C192.222 94.0521 192.334 94.0521 192.334 93.9408Z" fill="white"/>
<path d="M193.447 94.0521C193.558 94.0521 193.669 94.0521 193.669 94.0521C193.781 94.0521 193.781 93.9408 193.892 93.8295C193.892 93.7182 193.892 93.6069 193.892 93.4956L193.558 92.8277L193.781 92.7164L194.115 93.4956C194.226 93.7182 194.226 93.8295 194.115 93.9408C194.115 94.0521 194.003 94.1634 193.781 94.2747C193.669 94.386 193.447 94.386 193.336 94.2747C193.224 94.1634 193.113 94.0521 193.002 93.9408L192.668 93.1616L192.89 93.0503L193.224 93.7182C193.336 93.9408 193.447 93.9408 193.447 94.0521Z" fill="white"/>
<path d="M196.675 92.2711L196.229 92.7164L195.228 91.7146L195.562 91.3807C195.673 91.2694 195.673 91.2694 195.784 91.2694C195.895 91.2694 195.895 91.2694 195.895 91.2694C196.007 91.2694 196.118 91.2694 196.118 91.3807C196.229 91.492 196.229 91.492 196.229 91.6033C196.229 91.6033 196.229 91.6033 196.229 91.7146C196.341 91.7146 196.341 91.6033 196.452 91.6033C196.563 91.6033 196.563 91.6033 196.675 91.7146C196.786 91.8259 196.786 91.8259 196.786 91.9372C196.786 92.0485 196.786 92.1598 196.675 92.2711ZM195.784 91.9372L196.007 91.7146C196.118 91.6033 196.118 91.492 196.007 91.3807L195.895 91.2694C195.895 91.2694 195.784 91.2694 195.784 91.3807L195.562 91.6033L195.784 91.9372ZM196.229 92.3825L196.452 92.1598C196.563 92.0485 196.563 92.0485 196.563 92.0485C196.563 92.0485 196.563 91.9372 196.452 91.9372C196.341 91.8259 196.229 91.8259 196.118 92.0485L195.895 92.2711L196.229 92.3825Z" fill="white"/>
<path d="M197.565 91.1582L197.454 91.3808L197.009 91.0469L196.007 90.9356L196.118 90.713L196.897 90.8243L196.563 90.1564L196.675 89.9338L197.12 90.8243L197.565 91.1582Z" fill="white"/>
<path d="M195.339 92.3825L194.894 92.7164L195.005 92.939L195.228 92.7164L195.339 92.939C195.339 93.0503 195.228 93.1616 195.116 93.1616C195.005 93.2729 194.894 93.2729 194.782 93.2729C194.671 93.2729 194.56 93.1616 194.449 93.0503C194.337 92.939 194.337 92.8277 194.337 92.7164C194.337 92.6051 194.449 92.4938 194.56 92.3825C194.671 92.3825 194.671 92.2712 194.671 92.2712C194.671 92.2712 194.782 92.2712 194.894 92.2712V92.0486C194.671 92.0486 194.56 92.0486 194.449 92.1599C194.337 92.2712 194.226 92.3825 194.226 92.6051C194.226 92.8277 194.226 92.939 194.337 93.1616C194.449 93.3842 194.56 93.4955 194.782 93.4955C195.005 93.4955 195.116 93.4955 195.339 93.3842C195.562 93.2729 195.673 93.0503 195.673 92.939L195.339 92.3825Z" fill="white"/>
<path d="M186.323 54.2051C185.433 53.5373 184.542 52.9808 184.542 52.9808C186.101 51.1999 185.767 47.7495 183.096 46.859C179.645 45.746 175.415 45.6347 171.854 45.3008L175.638 60.6608C175.638 60.6608 180.09 61.5512 182.65 61.5512C185.544 61.5512 187.102 60.3269 187.659 59.3251C188.661 57.433 187.993 55.3182 186.323 54.2051ZM177.419 49.3077C177.419 49.3077 179.311 49.5303 179.534 49.5303C180.536 49.6417 180.869 50.0869 180.758 50.6434C180.647 51.1999 179.979 51.0886 179.534 51.0886C179.089 51.0886 177.642 50.9773 177.642 50.9773L177.419 49.3077ZM181.315 56.8764C180.758 56.8764 179.2 56.6538 179.2 56.6538L178.755 54.7617C178.755 54.7617 180.869 54.9843 181.203 54.9843C182.428 55.0956 182.762 55.6521 182.65 56.2086C182.539 56.9877 181.871 56.8764 181.315 56.8764Z" fill="#020203"/>
<path d="M56.8765 89.7113C58.8799 87.4852 63.9999 82.1426 63.9999 82.1426L66.7826 84.5913C66.1147 85.2591 64.3339 87.2626 63.666 88.0417C63.4434 88.2643 63.2208 88.7095 63.7773 89.1548C64.1112 89.4887 64.3339 89.6 64.8904 89.0434C65.6695 88.153 67.8956 85.9269 67.8956 85.9269L70.9008 88.3756C70.9008 88.3756 68.8973 90.4904 68.5634 90.8243C67.8956 91.4921 67.673 91.7148 68.3408 92.16C68.786 92.4939 68.8973 92.7165 69.5652 92.0487C70.4556 91.1582 72.5704 89.0434 72.5704 89.0434L75.6869 91.6034L69.0086 98.2817C65.3356 95.2765 60.7721 92.3826 56.8765 89.7113Z" fill="#020303"/>
<path d="M88.8208 63.666C91.3808 62.1077 97.7251 58.4347 97.7251 58.4347L99.8399 61.5512C99.0608 61.9964 96.7234 63.4434 95.833 63.8886C95.4991 64.1112 95.1651 64.3338 95.6104 65.0016C95.9443 65.4469 96.0556 65.5582 96.7234 65.2243C97.6138 64.6677 100.396 63.1095 100.396 63.1095L102.511 66.3373C102.511 66.3373 99.9512 67.8956 99.506 68.1182C98.7269 68.5634 98.5043 68.6747 98.8382 69.3425C99.1721 69.7877 99.2834 70.0103 100.063 69.5651C101.176 69.0086 103.736 67.5617 103.736 67.5617L105.962 70.9008L98.0591 75.353C95.4991 71.346 91.826 67.339 88.8208 63.666Z" fill="#020303"/>
</g>
<defs>
<clipPath id="clip0_2_968">
<rect width="256" height="256" fill="white"/>
</clipPath>
</defs>
</svg>
