<svg width="256" height="256" viewBox="0 0 256 256" fill="none" xmlns="http://www.w3.org/2000/svg">
<path d="M127.876 251.11L27.4897 63.2809L77.2515 2.58876H178.501L228.266 63.2809L127.876 251.11Z" fill="url(#paint0_linear_1139_44284)"/>
<path d="M111.757 68.7547V190.435L74.7721 121.235V68.7547H111.757Z" fill="#FCED00"/>
<path d="M180.538 68.7547V122.069L143.553 191.267V68.7547H180.538Z" fill="#FCED00"/>
<path d="M67.699 24.9183H94.9789V31.9511H77.8988V37.1862H93.742V43.9054H77.8988V50.4004H95.4707V57.8618H67.6962V24.9183H67.699Z" fill="#FCED00"/>
<path d="M98.7614 48.6946H108.535V57.8646H98.7614V48.6946Z" fill="#FCED00"/>
<path d="M113.063 24.9183H123.242V49.7503H139.129V57.8618H113.063V24.9183Z" fill="#FCED00"/>
<path d="M141.562 48.6946H151.336V57.8646H141.562V48.6946Z" fill="#FCED00"/>
<path d="M154.581 41.4116C154.581 36.0327 156.079 31.8475 159.074 28.8503C162.071 25.8531 166.242 24.3574 171.592 24.3574C176.942 24.3574 181.3 25.8301 184.265 28.7727C187.231 31.7152 188.715 35.84 188.715 41.1441C188.715 44.9956 188.068 48.151 186.771 50.6161C185.473 53.0812 183.601 54.9969 181.153 56.3689C178.705 57.7409 175.65 58.4255 171.995 58.4255C168.339 58.4255 165.203 57.833 162.77 56.6508C160.337 55.4686 158.36 53.596 156.847 51.0332C155.334 48.4703 154.578 45.266 154.578 41.4145L154.581 41.4116ZM164.76 41.4576C164.76 44.7827 165.379 47.173 166.616 48.6256C167.853 50.0782 169.532 50.8059 171.661 50.8059C173.789 50.8059 175.541 50.0955 176.741 48.6716C177.94 47.2478 178.538 44.6936 178.538 41.0089C178.538 37.9081 177.911 35.6415 176.663 34.212C175.412 32.7824 173.715 32.0662 171.572 32.0662C169.429 32.0662 167.87 32.7939 166.627 34.2465C165.385 35.6991 164.763 38.1037 164.763 41.4605L164.76 41.4576Z" fill="#FCED00"/>
<path d="M127.876 255.991L24.7371 63.0105L76.1643 0.287643H179.591L231.018 63.0105L127.876 255.991ZM30.2454 63.5513L127.879 246.229L225.51 63.5513L177.414 4.88989H78.3417L30.2454 63.5513Z" fill="#FFEC00"/>
<path d="M134.944 80.5623C120.162 85.1732 105.538 91.9615 94.8926 103.441C91.4783 107.319 87.204 113.02 87.2385 118.232C87.1867 121.117 87.8742 123.8 90.1983 125.802C90.3594 125.938 90.3766 126.182 90.2357 126.337C90.1436 126.441 90.0056 126.484 89.879 126.458C88.1474 126.127 86.5366 125.014 85.4637 123.599C83.2547 120.611 82.688 116.699 83.4186 113.117C85.1445 105.104 92.8388 98.5686 99.2245 94.0325C107.206 88.5444 116.238 84.7763 125.549 82.2882C128.63 81.4627 131.745 80.7953 134.877 80.2805C134.955 80.2661 135.03 80.3207 135.044 80.3984C135.056 80.4703 135.013 80.5393 134.944 80.5595V80.5623Z" fill="#47240E"/>
<path d="M117.57 86.0045C115.933 86.7811 114.351 87.5836 112.818 88.4149C105.391 92.4448 99.0778 97.2369 94.0498 102.659L94.0383 102.67L94.0297 102.682C88.6623 108.777 86.0649 113.86 86.0908 118.226C86.0534 120.392 86.4187 122.241 87.2011 123.803C86.9077 123.533 86.6316 123.234 86.3871 122.912C84.5001 120.355 83.8299 116.871 84.5462 113.362C85.2739 109.979 87.2529 106.51 90.4255 103.05C92.8187 100.441 95.9137 97.8006 99.886 94.9789C105.095 91.3978 111.018 88.3948 117.573 86.0045M134.9 80.2804C134.9 80.2804 134.886 80.2804 134.877 80.2804C131.745 80.7982 128.63 81.4626 125.549 82.2882C116.238 84.7763 107.206 88.5444 99.2245 94.0325C92.8388 98.5658 85.1445 105.104 83.4186 113.117C82.688 116.696 83.2547 120.608 85.4637 123.599C86.5366 125.014 88.1474 126.127 89.879 126.458C89.902 126.464 89.9279 126.464 89.9509 126.464C90.0545 126.464 90.1609 126.421 90.2357 126.337C90.3738 126.179 90.3565 125.938 90.1983 125.802C87.877 123.8 87.1896 121.117 87.2385 118.232C87.204 113.02 91.4783 107.319 94.8926 103.441C105.538 91.9615 120.159 85.1732 134.944 80.5623C135.013 80.5422 135.056 80.4732 135.044 80.4013C135.033 80.3293 134.972 80.2804 134.903 80.2804H134.9Z" fill="#67400B"/>
<path d="M168.275 87.0515C167.956 86.6459 167.151 85.7629 166.645 85.5615C166.552 85.5587 166.472 85.6306 166.469 85.7226C166.458 85.9872 166.86 86.7754 166.883 87.0112C166.981 87.6699 167.001 88.3545 166.854 89.0017C166.725 89.6633 166.498 90.135 166.147 90.5578C165.833 91.0468 165.436 91.4725 164.993 91.9356C163.308 93.7363 161.306 95.3039 159.33 96.8917C155.179 100.162 149.924 103.315 145.466 106.174C137.984 110.975 129.921 114.705 121.669 117.961C116.725 119.874 112.666 121.623 107.543 122.981C101.321 124.853 96.3596 125.397 89.8589 126.127C89.8589 126.127 91.1418 127.862 95.1802 129.335C96.9406 129.976 101.411 130.574 103.159 130.689C106.39 130.816 110.448 131.017 113.658 130.951C116.825 130.816 119.42 130.853 122.538 130.154C122.966 130.051 122.857 129.392 122.405 129.453C121.393 129.594 120.36 129.642 119.328 129.686C117.265 129.757 115.186 129.714 113.123 129.625C111.078 129.533 109.021 129.476 107.008 129.07C106.769 129.021 106.533 128.964 106.298 128.906C109.191 127.951 112.082 126.887 114.938 125.774C125.831 121.491 135.401 115.824 145.555 110.002C152.677 105.987 160.682 101.488 166.958 96.1409C170.326 93.1869 171.644 91.3201 168.275 87.0515Z" fill="#47240E"/>
<path d="M168.068 88.7083C169.987 91.5358 169.069 92.7554 166.204 95.2694C160.055 100.507 152.127 104.974 145.135 108.918L144.982 109.004C144.183 109.462 143.389 109.919 142.595 110.376C133.275 115.732 124.473 120.789 114.518 124.704C111.38 125.926 108.573 126.944 105.935 127.816L102.15 129.064L104.238 129.582C103.89 129.568 103.548 129.553 103.214 129.542C101.48 129.427 97.1735 128.843 95.5685 128.256C94.3863 127.825 93.463 127.373 92.7554 126.959C97.9789 126.352 102.466 125.71 107.851 124.091C112.079 122.969 115.64 121.565 119.408 120.081C120.277 119.739 121.163 119.391 122.086 119.031C131.762 115.214 139.388 111.435 146.081 107.143C146.984 106.565 147.905 105.984 148.88 105.368C152.717 102.947 156.683 100.438 160.046 97.792L160.512 97.4181C162.333 95.9569 164.217 94.4467 165.825 92.7295C166.276 92.2578 166.713 91.7889 167.073 91.2396C167.53 90.67 167.818 90.0315 167.973 89.2433C168.014 89.0707 168.042 88.8924 168.065 88.7112M166.636 85.5587C166.547 85.5587 166.472 85.6306 166.466 85.7197C166.455 85.9844 166.857 86.7725 166.88 87.0084C166.978 87.6671 166.998 88.3516 166.852 88.9988C166.722 89.6604 166.495 90.1321 166.144 90.555C165.83 91.044 165.433 91.4697 164.991 91.9328C163.305 93.7334 161.303 95.301 159.327 96.8888C155.176 100.159 149.921 103.312 145.463 106.171C137.981 110.972 129.919 114.702 121.666 117.958C116.722 119.871 112.663 121.62 107.54 122.978C101.318 124.85 96.3566 125.394 89.856 126.125C89.856 126.125 91.1388 127.859 95.1773 129.332C96.9377 129.973 101.408 130.572 103.156 130.687C105.947 130.796 109.352 130.96 112.298 130.96C112.764 130.96 113.215 130.957 113.652 130.945C116.819 130.81 119.414 130.848 122.532 130.149C122.943 130.051 122.86 129.444 122.457 129.444C122.44 129.444 122.42 129.444 122.4 129.447C121.387 129.588 120.354 129.637 119.322 129.68C118.597 129.706 117.869 129.717 117.139 129.717C115.795 129.717 114.452 129.68 113.117 129.622C111.072 129.53 109.016 129.473 107.002 129.067C106.763 129.018 106.528 128.961 106.292 128.903C109.185 127.948 112.076 126.884 114.932 125.771C125.825 121.488 135.395 115.821 145.549 109.999C152.671 105.984 160.676 101.485 166.952 96.1381C170.321 93.184 171.638 91.3172 168.27 87.0486C167.95 86.6431 167.145 85.76 166.639 85.5587H166.633H166.636Z" fill="#67400B"/>
<path d="M135.901 127.042C145.221 125.213 152.412 121.099 159.272 114.633C165.198 108.794 171.408 100.887 169.17 91.996C168.491 89.5482 167.47 87.4168 165.899 85.4148C165.782 85.2624 165.81 85.0438 165.966 84.9258C166.107 84.8165 166.305 84.8338 166.426 84.9575C168.31 86.8243 170.151 88.901 171.086 91.4697C173.508 98.0854 170.467 105.32 166.504 110.661C164.89 112.813 163.006 114.748 160.975 116.5C157.998 119.149 154.774 121.588 151.241 123.467C146.527 126.024 141.249 127.433 136.008 127.807C135.551 127.822 135.41 127.166 135.901 127.039V127.042Z" fill="#47240E"/>
<path d="M170.792 95.9252C170.853 97.6108 170.62 99.3798 170.088 101.224C169.259 104.094 167.703 107.12 165.586 109.971C164.128 111.915 162.327 113.819 160.227 115.629L160.221 115.634L160.216 115.64C158.185 117.446 156.223 118.988 154.287 120.291C156.232 118.879 158.148 117.274 160.066 115.467L160.075 115.459L160.083 115.45C164.835 110.767 170.717 103.939 170.795 95.9252M166.178 84.8539C166.104 84.8539 166.029 84.8769 165.966 84.9258C165.813 85.0438 165.784 85.2624 165.899 85.4148C167.47 87.4168 168.491 89.5482 169.17 91.996C171.405 100.884 165.198 108.791 159.272 114.633C152.412 121.099 145.221 125.213 135.901 127.042C135.415 127.169 135.551 127.81 135.994 127.81C135.999 127.81 136.002 127.81 136.008 127.81C141.249 127.436 146.527 126.027 151.241 123.47C154.774 121.591 157.998 119.155 160.975 116.503C163.006 114.754 164.89 112.818 166.504 110.664C170.467 105.322 173.51 98.0883 171.086 91.4725C170.151 88.9068 168.31 86.83 166.426 84.9604C166.36 84.8913 166.268 84.8568 166.176 84.8568L166.178 84.8539Z" fill="#67400B"/>
<defs>
<linearGradient id="paint0_linear_1139_44284" x1="19.223" y1="49.5029" x2="202.039" y2="155.053" gradientUnits="userSpaceOnUse">
<stop stop-color="#E20611"/>
<stop offset="0.26" stop-color="#961005"/>
<stop offset="0.38" stop-color="#B70F14"/>
<stop offset="0.51" stop-color="#D80F23"/>
<stop offset="0.75" stop-color="#981005"/>
<stop offset="1" stop-color="#E20611"/>
</linearGradient>
</defs>
</svg>
