<svg width="256" height="256" viewBox="0 0 256 256" fill="none" xmlns="http://www.w3.org/2000/svg">
<g clip-path="url(#clip0_1_718)">
<path d="M128 256C198.692 256 256 198.692 256 128C256 57.3076 198.692 0 128 0C57.3076 0 0 57.3076 0 128C0 198.692 57.3076 256 128 256Z" fill="white"/>
<path d="M174.203 68.1763V66.9723L169.086 71.7883V73.0675L174.203 68.1763Z" fill="black"/>
<path d="M172.247 55.9858L169.086 59.2216V59.9741L173.225 55.9858H172.247Z" fill="black"/>
<path d="M170.667 55.9858L169.086 57.6413V58.6948L171.795 55.9858H170.667Z" fill="black"/>
<path d="M174.203 60.4255L169.086 65.5425V66.7465L174.203 61.78V60.4255Z" fill="black"/>
<path d="M169.086 55.9858V56.6631L169.764 55.9858H169.086Z" fill="black"/>
<path d="M174.203 63.7366V62.5326L169.086 67.4991V68.7031L174.128 63.6613L174.203 63.7366Z" fill="black"/>
<path d="M174.203 59.3721V57.9424L169.086 63.1346V64.2634L174.128 59.2969L174.203 59.3721Z" fill="black"/>
<path d="M174.203 69.3804L169.086 74.2716V75.6261L174.203 70.6596V69.3804Z" fill="black"/>
<path d="M174.203 56.3621L169.086 61.2533V62.382L174.203 57.1898V56.3621Z" fill="black"/>
<path d="M174.203 64.8654L169.086 69.9071V71.0358L174.203 66.2199V64.8654Z" fill="black"/>
<path d="M163.367 143.276H169.011V200.466H174.203V135.525V71.4121L169.086 76.3786V117.841H169.011V136.578H163.367" fill="black"/>
<path d="M174.203 55.9858H173.225L169.086 59.9741V61.2533L174.203 56.3621V55.9858Z" fill="#E30613"/>
<path d="M174.203 57.1899L169.086 62.3822V63.1347L174.203 57.9424V57.1899Z" fill="#E30613"/>
<path d="M174.203 59.3721L174.128 59.2969L169.086 64.2634V65.5426L174.203 60.4256V59.3721Z" fill="#E30613"/>
<path d="M174.203 61.78L169.086 66.7465V67.499L174.203 62.5325V61.78Z" fill="#E30613"/>
<path d="M174.203 63.7366L174.128 63.6614L169.086 68.7031V69.9071L174.203 64.8654V63.7366Z" fill="#E30613"/>
<path d="M174.203 66.2198L169.086 71.0358V71.7883L174.203 66.9723V66.2198Z" fill="#E30613"/>
<path d="M174.203 68.1763L169.086 73.0675V74.2715L174.203 69.3803V68.1763Z" fill="#E30613"/>
<path d="M174.203 70.6595L169.086 75.626V76.3785L174.203 71.412V70.6595Z" fill="#E30613"/>
<path d="M171.795 55.9858L169.086 58.6948V59.2216L172.247 55.9858H171.795Z" fill="#E30613"/>
<path d="M169.764 55.9858L169.086 56.6631V57.6413L170.667 55.9858H169.764Z" fill="#E30613"/>
<path d="M162.615 128.15H151.026V67.6493L134.923 97.674L125.291 98.577L108.51 67.6493L108.661 101.136L96.9971 101.211V57.6411H112.574L129.881 89.7728L147.113 57.6411H162.69L162.615 128.15Z" fill="#E30613"/>
<path d="M162.69 128.226H150.876V68.0257L134.923 97.7494H134.848L125.14 98.6524V98.5771L108.51 68.0257L108.586 101.211H108.51L96.696 101.286V57.4907H112.499V57.566L129.731 89.5472L146.888 57.4907H162.69V128.226ZM151.102 128.075H162.464V57.7165H147.038L129.731 89.9987L112.348 57.7165H96.9218V101.06L108.435 100.985L108.285 67.198L125.291 98.4266L134.772 97.5236L151.102 67.198V128.075Z" fill="#E30613"/>
<path d="M114.305 159.981C114.455 163.142 115.057 166.076 116.111 168.785C117.164 171.494 118.519 173.827 120.174 175.708C121.905 177.665 123.861 179.17 126.194 180.223C128.527 181.277 131.01 181.879 133.719 181.879C136.127 181.879 138.46 181.578 140.792 180.976C143.05 180.374 145.082 179.471 146.737 178.191C148.468 176.912 149.822 175.257 150.801 173.225C151.854 171.193 152.381 168.71 152.381 165.775C152.381 163.292 151.854 161.185 150.725 159.454C149.597 157.648 148.092 156.143 146.21 154.864C144.329 153.585 142.222 152.456 139.739 151.478C137.331 150.5 134.848 149.521 132.214 148.543C128.828 147.339 125.441 146.06 122.055 144.705C118.669 143.351 115.659 141.62 113.025 139.513C110.316 137.481 108.209 134.923 106.554 131.988C104.898 129.053 104.071 125.366 104.071 120.926C104.071 117.013 104.748 113.477 106.178 110.467C107.532 107.381 109.564 104.823 112.122 102.791C114.681 100.759 117.691 99.1791 121.228 98.1257C124.764 97.0722 128.602 96.5454 132.816 96.5454C138.46 96.5454 143.125 97.4484 146.812 99.3297C150.5 101.211 153.51 103.619 155.767 106.554C158.025 109.488 159.68 112.724 160.734 116.336C161.787 119.873 162.389 123.259 162.54 126.57H149.822C149.371 120.55 147.565 116.035 144.404 112.95C141.244 109.865 137.331 108.36 132.816 108.36C130.784 108.36 128.752 108.585 126.871 109.037C124.915 109.488 123.184 110.166 121.604 111.144C120.024 112.122 118.82 113.401 117.841 115.057C116.938 116.712 116.412 118.669 116.412 120.926C116.412 123.485 117.014 125.667 118.142 127.398C119.271 129.204 120.851 130.709 122.733 132.063C124.614 133.418 126.721 134.547 129.204 135.525C131.612 136.503 134.095 137.481 136.729 138.46C140.115 139.664 143.501 140.943 146.888 142.373C150.274 143.802 153.209 145.533 155.842 147.64C158.476 149.672 160.658 152.23 162.314 155.09C163.969 158.025 164.797 161.561 164.797 165.775C164.797 170.441 164.045 174.504 162.464 177.966C160.884 181.427 158.777 184.362 155.993 186.77C153.284 189.103 149.973 190.909 146.21 192.113C142.373 193.317 138.309 193.919 133.794 193.919C129.806 193.919 125.893 193.091 122.055 191.586C118.218 190.006 114.907 187.748 111.897 184.889C108.962 181.954 106.554 178.417 104.673 174.279C102.791 170.065 101.813 165.399 101.738 160.132L114.305 159.981Z" fill="black"/>
<path d="M133.794 196.026C129.505 196.026 125.291 195.198 121.227 193.467C117.164 191.812 113.552 189.404 110.391 186.243C107.231 183.158 104.672 179.396 102.641 174.956C100.609 170.516 99.5555 165.474 99.4802 159.981V157.724H116.411L116.562 159.831C116.712 162.765 117.314 165.474 118.217 167.958C119.12 170.366 120.4 172.473 121.905 174.203C123.41 175.859 125.216 177.213 127.172 178.192C131.085 179.998 135.976 179.922 140.266 178.794C142.222 178.267 144.028 177.439 145.458 176.386C146.888 175.332 148.016 173.902 148.919 172.172C149.747 170.441 150.199 168.334 150.199 165.7C150.199 163.668 149.747 161.938 148.844 160.508C147.866 159.003 146.587 157.648 145.006 156.595C143.276 155.391 141.244 154.337 138.986 153.434C136.578 152.456 134.095 151.478 131.537 150.5C128.15 149.296 124.689 148.016 121.378 146.662C117.841 145.232 114.681 143.351 111.821 141.169C108.886 138.911 106.554 136.127 104.748 132.966C102.942 129.731 101.963 125.592 101.963 120.776C101.963 116.562 102.716 112.724 104.221 109.338C105.726 105.952 107.983 103.092 110.768 100.835C113.552 98.5772 116.863 96.9217 120.701 95.793C124.388 94.7395 128.527 94.1375 132.891 94.1375C138.836 94.1375 143.878 95.191 147.941 97.1475C151.929 99.1792 155.24 101.813 157.724 105.049C160.132 108.209 161.938 111.746 163.066 115.508C164.12 119.196 164.797 122.808 164.948 126.194L165.098 128.527H147.941L147.791 126.495C147.414 121.077 145.759 117.013 143.05 114.304C140.266 111.671 136.955 110.316 132.966 110.316C131.085 110.316 129.279 110.542 127.473 110.918C125.818 111.294 124.237 111.896 122.958 112.799C121.679 113.627 120.701 114.605 119.948 115.96C119.196 117.239 118.819 118.819 118.819 120.701C118.819 122.808 119.271 124.538 120.174 125.968C121.152 127.473 122.507 128.828 124.162 130.032C125.893 131.236 127.925 132.364 130.182 133.267C132.59 134.246 135.073 135.224 137.632 136.202C141.018 137.406 144.48 138.685 147.866 140.19C151.403 141.695 154.563 143.577 157.347 145.759C160.207 148.016 162.54 150.725 164.346 153.886C166.152 157.122 167.13 161.11 167.13 165.7C167.13 170.591 166.302 175.031 164.571 178.794C162.916 182.556 160.508 185.792 157.573 188.35C154.638 190.909 151.026 192.865 146.963 194.145C142.824 195.424 138.46 196.026 133.794 196.026ZM103.995 162.163C104.296 166.152 105.199 169.839 106.629 173.15C108.36 177.063 110.692 180.449 113.401 183.083C116.11 185.792 119.271 187.899 122.808 189.329C126.344 190.758 129.956 191.511 133.719 191.511C137.933 191.511 141.921 190.984 145.458 189.855C148.919 188.802 152.005 187.146 154.488 184.964C156.971 182.857 158.928 180.148 160.357 176.912C161.787 173.752 162.54 169.914 162.54 165.625C162.54 161.787 161.787 158.551 160.357 155.993C158.852 153.359 156.896 151.026 154.488 149.145C152.005 147.189 149.145 145.533 145.985 144.179C142.749 142.749 139.363 141.47 135.976 140.341C133.343 139.363 130.859 138.384 128.376 137.331C125.818 136.277 123.485 135.073 121.453 133.644C119.346 132.139 117.615 130.408 116.336 128.376C114.906 126.269 114.229 123.635 114.229 120.625C114.229 117.992 114.831 115.659 115.96 113.702C117.089 111.746 118.594 110.166 120.475 109.037C122.281 107.908 124.237 107.08 126.42 106.629C128.527 106.177 130.709 105.876 132.891 105.876C138.008 105.876 142.448 107.607 146.06 111.069C149.22 114.154 151.252 118.518 151.929 124.012H160.282C159.981 121.604 159.454 119.196 158.777 116.637C157.799 113.401 156.294 110.316 154.187 107.607C152.155 104.898 149.371 102.716 145.985 100.985C142.598 99.2544 138.234 98.4267 132.966 98.4267C128.978 98.4267 125.291 98.9534 121.98 99.8564C118.744 100.835 115.96 102.264 113.627 104.07C111.37 105.876 109.564 108.209 108.36 110.918C107.08 113.702 106.478 116.863 106.478 120.475C106.478 124.538 107.231 127.849 108.661 130.483C110.166 133.192 112.122 135.45 114.605 137.331C117.164 139.287 120.023 140.943 123.184 142.222C126.495 143.577 129.806 144.856 133.192 146.06C135.826 147.038 138.384 148.092 140.792 149.07C143.351 150.123 145.684 151.327 147.64 152.682C149.747 154.112 151.478 155.918 152.757 157.949C154.112 160.056 154.789 162.615 154.789 165.474C154.789 168.785 154.187 171.645 152.983 173.978C151.779 176.31 150.199 178.192 148.242 179.697C146.286 181.126 144.028 182.255 141.47 182.857C139.062 183.459 136.428 183.835 133.869 183.835C130.859 183.835 128 183.233 125.441 182.029C122.883 180.825 120.55 179.095 118.669 176.988C116.788 174.881 115.283 172.322 114.154 169.387C113.251 167.13 112.724 164.647 112.348 162.013H103.995V162.163Z" fill="white"/>
<path d="M114.605 160.132C114.756 163.292 115.358 166.227 116.411 168.936C117.465 171.645 118.819 173.978 120.475 175.859C122.206 177.815 124.162 179.245 126.495 180.374C128.828 181.427 131.311 182.029 134.02 182.029C136.428 182.029 138.761 181.728 141.093 181.126C143.351 180.524 145.383 179.621 147.038 178.342C148.769 177.063 150.123 175.407 151.102 173.376C152.155 171.344 152.607 168.861 152.607 165.926C152.607 163.443 152.08 161.336 150.951 159.605C149.822 157.799 148.317 156.294 146.436 155.015C144.555 153.735 142.448 152.607 139.965 151.628C137.557 150.65 135.073 149.672 132.44 148.694C129.053 147.49 125.667 146.21 122.281 144.856C118.895 143.501 115.885 141.771 113.251 139.664C110.542 137.632 108.435 135.073 106.779 132.139C105.124 129.204 104.296 125.517 104.296 121.077C104.296 117.164 104.973 113.627 106.403 110.617C107.758 107.532 109.789 104.974 112.273 102.942C114.831 100.91 117.841 99.3298 121.378 98.2763C124.915 97.2228 128.752 96.696 132.966 96.696C138.61 96.696 143.276 97.599 146.963 99.4803C150.65 101.362 153.66 103.77 155.918 106.704C158.175 109.639 159.831 112.95 160.884 116.487C161.938 120.024 162.54 123.41 162.69 126.721H149.973C149.521 120.701 147.715 116.186 144.555 113.101C141.394 110.015 137.481 108.51 132.966 108.51C130.935 108.51 128.903 108.736 127.022 109.188C125.065 109.639 123.334 110.316 121.754 111.295C120.174 112.273 118.97 113.552 117.992 115.208C117.089 116.863 116.562 118.819 116.562 121.077C116.562 123.635 117.164 125.818 118.293 127.548C119.421 129.354 121.002 130.859 122.883 132.214C124.764 133.568 126.871 134.697 129.354 135.675C131.762 136.654 134.246 137.632 136.879 138.61C140.266 139.814 143.652 141.093 147.038 142.523C150.424 143.953 153.359 145.684 155.993 147.791C158.627 149.822 160.809 152.381 162.464 155.24C164.12 158.175 164.948 161.712 164.948 165.926C164.948 170.591 164.195 174.655 162.615 178.116C161.035 181.578 158.928 184.513 156.143 186.921C153.434 189.253 150.123 191.059 146.361 192.263C142.523 193.467 138.46 194.069 133.945 194.069C129.881 194.069 126.043 193.242 122.206 191.737C118.368 190.156 115.057 187.899 112.047 185.039C109.112 182.105 106.704 178.568 104.823 174.429C102.942 170.215 101.963 165.55 101.888 160.282L114.605 160.132Z" fill="black"/>
<path d="M149.521 167.205H124.614V191.586H152.381V198.885H116.336V131.16H150.951V138.46H124.614V159.831H149.521V167.205Z" fill="#E32021"/>
<path d="M154.413 201.068H114.229V129.279H152.983V140.717H126.645V158.025H151.553V169.312H126.645V189.554H154.413V201.068ZM118.368 196.929H150.274V193.693H122.507V165.173H147.414V162.088H122.507V136.578H148.844V133.343H118.293L118.368 196.929Z" fill="white"/>
<path d="M149.521 167.205H124.614V191.586H152.381V198.885H116.336V131.16H150.951V138.46H124.614V159.831H149.521V167.205Z" fill="#E30613"/>
<path d="M152.456 199.036H116.186V131.16H151.026V138.685H124.689V159.906H149.597V167.356H124.689V191.586H152.456V199.036ZM116.412 198.885H152.306V191.737H124.539V167.13H149.446V160.132H124.539V138.535H150.876V131.386H116.412V198.885Z" fill="#E30613"/>
<path d="M84.656 68.3269V67.0476L89.773 71.9388V73.1428L84.656 68.3269Z" fill="black"/>
<path d="M86.6125 56.1362L89.773 59.372V60.1245L85.6343 56.1362H86.6125Z" fill="black"/>
<path d="M88.1927 56.1362L89.773 57.7917V58.8452L87.064 56.1362H88.1927Z" fill="black"/>
<path d="M84.656 60.576L89.773 65.6178V66.8218L84.656 61.9305V60.576Z" fill="black"/>
<path d="M89.773 56.1362V56.8135L89.0957 56.1362H89.773Z" fill="black"/>
<path d="M84.656 63.8871V62.6831L89.773 67.5743V68.7783L84.7313 63.8119L84.656 63.8871Z" fill="black"/>
<path d="M84.656 59.5225V58.0928L89.773 63.285V64.4138L84.7313 59.4473L84.656 59.5225Z" fill="black"/>
<path d="M84.656 69.5308L89.773 74.3468V75.7012L84.656 70.81V69.5308Z" fill="black"/>
<path d="M84.656 56.5127L89.773 61.4039V62.5327L84.656 57.3404V56.5127Z" fill="black"/>
<path d="M84.656 65.0159L89.773 70.0576V71.1864L84.656 66.3704V65.0159Z" fill="black"/>
<path d="M100.835 143.05L89.8482 143.2V200.24H84.656V135.525V71.5625L89.773 76.4537V117.766H89.8482V136.503L100.835 136.578" fill="black"/>
<path d="M84.656 56.1362H85.6343L89.773 60.1245V61.4037L84.656 56.5125V56.1362Z" fill="#E30613"/>
<path d="M84.656 57.3403L89.773 62.5326V63.2851L84.656 58.0928V57.3403Z" fill="#E30613"/>
<path d="M84.656 59.5226L84.7313 59.4474L89.773 64.4139V65.6179L84.656 60.5761V59.5226Z" fill="#E30613"/>
<path d="M84.656 61.9305L89.773 66.8218V67.5743L84.656 62.683V61.9305Z" fill="#E30613"/>
<path d="M84.656 63.887L84.7313 63.8118L89.773 68.7783V70.0575L84.656 65.0158V63.887Z" fill="#E30613"/>
<path d="M84.656 66.3704L89.773 71.1864V71.9389L84.656 67.0476V66.3704Z" fill="#E30613"/>
<path d="M84.656 68.3268L89.773 73.1428V74.3468L84.656 69.5308V68.3268Z" fill="#E30613"/>
<path d="M84.656 70.8101L89.773 75.7013V76.4538L84.656 71.5626V70.8101Z" fill="#E30613"/>
<path d="M87.064 56.1362L89.773 58.8452V59.372L86.6125 56.1362H87.064Z" fill="#E30613"/>
<path d="M89.0959 56.1362L89.7731 56.8135V57.7917L88.1929 56.1362H89.0959Z" fill="#E30613"/>
<path d="M128 256C57.4156 256 0 198.584 0 128C0 57.4156 57.4156 0 128 0C198.584 0 256 57.4156 256 128C256 198.584 198.584 256 128 256ZM128 47.1064C83.3768 47.1064 47.1064 83.3768 47.1064 128C47.1064 172.623 83.3768 208.894 128 208.894C172.623 208.894 208.894 172.623 208.894 128C208.894 83.3768 172.623 47.1064 128 47.1064Z" fill="black"/>
<path d="M128 249.528C61.0276 249.528 6.47144 195.048 6.47144 128C6.47144 60.9523 60.9523 6.47144 128 6.47144C194.972 6.47144 249.528 60.9523 249.528 128C249.528 195.048 194.972 249.528 128 249.528ZM128 11.0617C63.5108 11.0617 11.0617 63.5108 11.0617 128C11.0617 192.489 63.5108 244.938 128 244.938C192.489 244.938 244.938 192.489 244.938 128C244.938 63.5108 192.489 11.0617 128 11.0617Z" fill="#E30613"/>
<path d="M41.1616 65.1665L44.3221 67.123L39.5061 74.949L42.7418 76.9055L47.0311 69.832L50.041 71.638L45.7518 78.7115L48.9875 80.7432L53.954 72.6915L57.0393 74.5727L49.8905 86.1612L34.1633 76.5292L41.1616 65.1665Z" fill="white"/>
<path d="M58.7699 72.1648C58.1679 72.24 57.5659 72.0143 57.0392 71.638C56.5124 71.2618 56.2867 70.735 56.2114 70.0578C56.1362 69.4558 56.3619 68.8538 56.7382 68.327C57.1144 67.8003 57.6412 67.5745 58.3184 67.4993C58.9204 67.424 59.5224 67.6498 60.0492 68.026C60.5759 68.4023 60.8017 68.929 60.8769 69.6063C60.9522 70.2083 60.7264 70.8103 60.3502 71.337C59.8987 71.7885 59.3719 72.0895 58.7699 72.1648Z" fill="white"/>
<path d="M56.7383 53.1265C56.663 53.6533 56.8135 54.1048 57.1898 54.481C57.566 54.8573 58.0175 55.0078 58.6195 54.9325C59.2215 54.8573 60.275 54.3305 61.8553 53.5028C63.4355 52.5998 64.8652 52.1483 66.1445 52.1483C67.4237 52.1483 68.6277 52.7503 69.7565 53.9543C70.8852 55.1583 71.3367 56.588 71.111 58.1683C70.8852 59.7485 70.0575 61.2535 68.5525 62.608C66.4455 64.5645 63.7365 65.618 60.576 65.618L60.275 61.705C62.9088 61.6298 64.8652 61.0278 66.0692 59.899C66.596 59.3723 66.9722 58.8455 67.0475 58.3188C67.1227 57.792 66.9722 57.3405 66.596 56.889C66.2197 56.5128 65.7682 56.287 65.1662 56.3623C64.6395 56.4375 63.7365 56.8138 62.5325 57.491C60.576 58.5445 58.9958 59.1465 57.7165 59.2218C56.4373 59.297 55.158 58.695 54.0293 57.4158C52.8253 56.1365 52.3738 54.7068 52.6748 53.1265C52.9758 51.5463 53.8035 50.1918 55.158 48.9125C56.061 48.0848 57.1145 47.4075 58.3185 46.8808C59.5225 46.354 60.7265 46.053 61.9305 45.9778L62.4573 49.665C60.4255 49.8908 58.8453 50.568 57.566 51.6968C57.0393 52.1483 56.7383 52.5998 56.7383 53.1265Z" fill="white"/>
<path d="M90.676 34.7655L90.4503 46.053L88.1928 47.1065L79.3885 40.1083L84.355 50.6433L80.5925 52.374L72.8418 35.5933L77.8835 33.1853L86.5373 40.334V29.1218L91.579 26.7891L99.405 43.4945L95.6425 45.2253L90.676 34.7655Z" fill="white"/>
<path d="M98.502 25.1336L102.49 24.0801L107.08 41.9895L103.092 43.043L98.502 25.1336Z" fill="white"/>
<path d="M124.538 27.1653C124.839 30.1001 123.861 32.1318 121.604 33.1853L126.871 39.2805L121.829 39.8073L117.164 34.314L114.304 34.615L114.906 40.4845L110.843 40.8608L109.037 22.4998L116.035 21.8226C118.895 21.5216 121.002 21.8226 122.281 22.6503C123.56 23.5533 124.313 24.9831 124.538 27.1653ZM119.798 29.7991C120.249 29.2723 120.475 28.5198 120.324 27.5416C120.249 26.5633 119.873 25.8861 119.346 25.5851C118.819 25.2841 117.841 25.2088 116.562 25.2841L113.477 25.5851L114.003 31.0031L117.013 30.7021C118.368 30.6268 119.346 30.3258 119.798 29.7991Z" fill="white"/>
<path d="M142.072 41.0113L140.792 36.8725L133.192 35.8943L131.01 39.6568L126.646 39.13L136.729 21.7473L140.717 22.1988L146.511 41.4628L142.072 41.0113ZM138.083 27.4663L135.149 32.508L139.739 33.0348L138.083 27.4663Z" fill="white"/>
<path d="M167.13 36.722L158.852 44.3975L156.519 43.4945L155.466 32.2823L151.327 43.1183L147.49 41.6885L154.036 24.4563L159.228 26.4128L160.056 37.5498L168.108 29.799L173.3 31.7555L166.753 48.9877L162.916 47.558L167.13 36.722Z" fill="white"/>
<path d="M183.911 57.8673C181.352 58.2435 178.944 57.6415 176.687 56.0613C174.429 54.481 173.15 52.374 172.698 49.8155C172.247 47.257 172.849 44.849 174.429 42.6668C176.009 40.4845 178.116 39.2053 180.675 38.7538C183.233 38.3775 185.641 38.9795 187.899 40.5598C190.081 42.14 191.436 44.247 191.887 46.8055C192.339 49.364 191.737 51.772 190.156 53.9543C188.576 56.1365 186.469 57.491 183.911 57.8673ZM186.695 51.5463C187.673 50.1918 188.049 48.762 187.899 47.1818C187.748 45.6015 186.996 44.3975 185.717 43.4945C184.437 42.5915 183.083 42.2905 181.503 42.6668C179.998 42.9678 178.718 43.7955 177.74 45.15C176.762 46.5045 176.386 47.9343 176.611 49.5145C176.762 51.0948 177.514 52.2988 178.794 53.2018C180.073 54.1048 181.427 54.4058 182.932 54.1048C184.513 53.6533 185.717 52.8255 186.695 51.5463Z" fill="white"/>
<path d="M208.818 61.1031L211.527 64.2636L197.531 76.3036L194.822 73.1431L197.907 58.9208L189.103 66.4458L186.394 63.2853L200.39 51.2454L202.874 54.1801L199.713 68.7786L208.818 61.1031Z" fill="white"/>
<path d="M216.118 79.0878L203.099 86.2365L201.143 82.6245L214.161 75.4758L211.678 70.8855L214.838 69.1548L221.837 81.9473L218.676 83.678L216.118 79.0878Z" fill="white"/>
<path d="M51.0948 185.34L38.829 193.844L37.2488 191.586L49.5145 183.083L46.7303 179.019L48.9878 177.439L56.2117 187.748L53.9542 189.329L51.0948 185.34Z" fill="white"/>
<path d="M51.245 202.422C51.0945 203.626 51.546 204.68 52.449 205.507C53.352 206.41 54.4055 206.711 55.6095 206.561C56.8135 206.41 57.9423 205.733 59.071 204.529L65.8435 197.456L67.8 199.337L60.9523 206.486C59.2215 208.292 57.3403 209.27 55.459 209.42C53.5778 209.496 51.9223 208.894 50.4925 207.464C49.0628 206.034 48.3103 204.454 48.3103 202.573C48.3103 200.691 49.2133 198.81 51.0193 197.004L57.867 189.855L59.8235 191.737L53.051 198.81C51.9975 200.014 51.3955 201.218 51.245 202.422Z" fill="white"/>
<path d="M79.0875 213.785C77.5073 216.268 75.5508 217.171 73.1428 216.569L73.2933 224.245L70.3586 222.363L70.2833 215.29L67.1981 213.333L64.0376 218.375L61.7048 216.87L71.1863 201.971L76.3033 205.206C78.4103 206.561 79.6895 207.84 80.0658 209.195C80.5173 210.549 80.2163 212.129 79.0875 213.785ZM74.7231 213.935C75.4756 213.785 76.1528 213.258 76.7548 212.28C77.3568 211.302 77.5825 210.474 77.2815 209.797C77.0558 209.119 76.3033 208.367 75.0241 207.614L72.0893 205.733L68.7031 211.076L71.5626 212.882C72.9171 213.71 73.9706 214.086 74.7231 213.935Z" fill="white"/>
<path d="M89.5473 214.688C88.7948 214.387 88.1175 214.312 87.5155 214.462C86.9136 214.613 86.462 214.989 86.1611 215.666C85.8601 216.343 85.9353 216.945 86.2363 217.472C86.5373 217.999 87.4403 218.827 88.7948 219.88C90.1493 220.934 91.1275 221.987 91.579 223.041C92.0305 224.094 92.0305 225.298 91.4285 226.728C90.8265 228.158 89.8483 229.136 88.4938 229.587C87.1393 230.039 85.6343 229.964 84.0541 229.286C81.7213 228.308 79.9906 226.577 78.8618 224.094L81.2698 222.664C82.1728 224.696 83.4521 226.051 85.1076 226.728C85.9353 227.029 86.6878 227.104 87.2898 226.954C87.8918 226.803 88.3433 226.352 88.6443 225.75C88.87 225.148 88.87 224.546 88.569 224.019C88.268 223.492 87.5908 222.815 86.6125 222.138C85.6343 221.385 84.8818 220.783 84.4303 220.332C83.9788 219.88 83.6026 219.353 83.3016 218.751C82.6996 217.623 82.6996 216.343 83.3768 214.838C83.9788 213.333 84.9571 212.355 86.3115 211.979C87.666 211.603 89.0958 211.678 90.6008 212.28C91.579 212.656 92.482 213.258 93.2345 213.935C94.0623 214.688 94.6643 215.516 95.1158 216.419L92.9335 217.924C92.6325 217.322 92.181 216.72 91.579 216.118C90.977 215.44 90.2998 214.989 89.5473 214.688Z" fill="white"/>
<path d="M98.8029 229.738L96.3197 233.274L93.4602 232.672L104.296 217.021L107.156 217.623L110.316 236.435L107.457 235.833L106.704 231.544L98.8029 229.738ZM106.253 228.609L104.973 220.858L100.534 227.33L106.253 228.609Z" fill="white"/>
<path d="M128.602 219.73L131.311 219.805L130.784 237.488L127.774 237.413L118.895 224.245L118.519 237.112L115.885 237.037L116.412 219.353L119.121 219.429L128.226 232.898L128.602 219.73Z" fill="white"/>
<path d="M156.821 221.084C157.498 223.944 156.745 225.975 154.638 227.255L160.282 232.522L156.896 233.35L151.779 228.459L148.242 229.286L149.597 235.081L146.888 235.683L142.899 218.526L148.769 217.171C151.177 216.569 152.983 216.644 154.262 217.322C155.541 217.848 156.369 219.128 156.821 221.084ZM153.886 224.32C154.337 223.718 154.413 222.815 154.112 221.686C153.811 220.557 153.359 219.88 152.757 219.579C152.08 219.278 151.026 219.353 149.597 219.654L146.21 220.482L147.64 226.653L150.951 225.9C152.456 225.449 153.434 224.997 153.886 224.32Z" fill="white"/>
<path d="M168.183 225.223C169.237 225.75 170.366 225.825 171.494 225.298C172.623 224.771 173.376 223.944 173.677 222.815C173.978 221.686 173.827 220.332 173.15 218.827L169.237 209.872L171.72 208.743L175.708 217.773C176.762 220.106 176.912 222.138 176.31 223.944C175.708 225.75 174.429 227.029 172.623 227.856C170.742 228.684 169.011 228.684 167.28 227.932C165.55 227.179 164.195 225.674 163.142 223.342L159.153 214.312L161.637 213.183L165.55 222.138C166.227 223.643 167.13 224.696 168.183 225.223Z" fill="white"/>
<path d="M207.238 203.4L202.272 208.517L189.63 196.252L193.994 191.737C194.747 190.909 195.499 190.382 196.252 190.006C197.004 189.63 197.681 189.479 198.359 189.554C199.563 189.63 200.541 190.081 201.369 190.909C202.347 191.887 202.798 192.865 202.723 193.919C202.723 194.295 202.648 194.521 202.648 194.671C202.648 194.822 202.573 194.972 202.422 195.273C203.325 194.747 204.228 194.446 205.131 194.596C206.109 194.671 206.937 195.123 207.765 195.875C208.668 196.703 209.195 197.757 209.27 198.961C209.496 200.315 208.818 201.82 207.238 203.4ZM196.778 199.337L199.186 196.854C200.541 195.424 200.767 194.22 199.713 193.166C199.111 192.564 198.509 192.339 197.907 192.414C197.305 192.489 196.628 192.941 195.951 193.618L193.543 196.176L196.778 199.337ZM202.272 204.604L205.282 201.519C205.959 200.767 206.41 200.089 206.486 199.487C206.636 198.885 206.335 198.208 205.658 197.531C204.529 196.477 203.175 196.703 201.594 198.359L198.81 201.218L202.272 204.604Z" fill="white"/>
<path d="M218.676 188.877L217.096 191.21L211.302 187.372L199.036 186.469L200.691 183.986L209.872 184.738L205.658 176.611L207.313 174.128L212.882 185.115L218.676 188.877Z" fill="white"/>
<path d="M191.285 204.83L185.641 208.743L187.222 211.001L190.608 208.593L192.715 211.603C192.263 212.807 191.436 213.86 190.156 214.688C188.877 215.591 187.523 215.817 185.942 215.516C184.438 215.215 183.083 214.312 182.029 212.731C180.976 211.226 180.525 209.646 180.826 208.066C181.051 206.486 181.879 205.206 183.233 204.303C183.911 203.852 184.588 203.476 185.265 203.325C185.942 203.175 186.695 203.099 187.523 203.25L187.447 200.541C185.34 200.24 183.309 200.691 181.352 202.046C179.396 203.4 178.267 205.206 177.966 207.614C177.59 210.022 178.192 212.28 179.697 214.387C181.202 216.569 183.083 217.848 185.416 218.375C187.748 218.827 189.855 218.45 191.812 217.021C194.145 215.365 195.424 213.409 195.65 211.001L191.285 204.83Z" fill="white"/>
</g>
<defs>
<clipPath id="clip0_1_718">
<rect width="256" height="256" fill="white"/>
</clipPath>
</defs>
</svg>
