<svg width="256" height="256" viewBox="0 0 256 256" fill="none" xmlns="http://www.w3.org/2000/svg">
<path d="M127.819 5.21484V250.817C127.819 250.817 110.98 238.863 104.824 236.056C98.5769 233.248 59.7384 217.944 41.2697 203.816C41.2697 203.816 20.2661 186.609 14.6531 166.776C8.94952 146.943 15.4679 108.364 19.7229 89.2558C23.978 70.0568 37.4673 20.248 37.4673 20.248C37.4673 20.248 87.8035 21.697 127.909 5.21484" fill="#0962AD"/>
<path d="M22.5294 150.023C19.2703 122.673 45.8869 30.3909 45.8869 30.3909H45.9774C80.742 32.9266 128.181 16.535 128.181 16.535L127.728 193.13C50.0514 208.887 22.5294 150.023 22.5294 150.023Z" fill="url(#paint0_linear_524_15584)"/>
<path d="M127.819 5.21484V250.817C127.819 250.817 144.658 238.863 150.814 236.056C157.061 233.248 195.9 217.944 214.368 203.816C214.368 203.816 235.372 186.609 240.985 166.776C246.689 146.943 240.17 108.364 235.915 89.2558C231.66 70.0568 218.171 20.248 218.171 20.248C218.171 20.248 167.835 21.697 127.729 5.21484" fill="#E30613"/>
<path d="M128.013 21.15L130.349 16.8602C140.323 20.0859 180.036 32.1385 210.204 29.9381C210.204 29.9381 236.82 122.22 233.561 149.57C233.561 149.57 206.039 208.435 128.362 192.677H128.453L128.013 21.15Z" fill="url(#paint1_linear_524_15584)"/>
<path d="M170.369 124.484L163.76 131.095V143.321L170.369 150.022H185.036L188.114 153.102V160.528L185.036 163.607H175.168L171.999 160.528V157.177H163.76V162.792L170.369 169.403H189.834L196.533 162.792V150.837L189.834 144.227H175.168L171.999 141.057V133.45L175.168 130.28H185.036L188.114 133.45V136.891H196.533V131.095L189.834 124.484H170.369Z" fill="#0962AD"/>
<path d="M169.011 121.767L160.954 129.827V144.77L169.011 152.83H183.859L185.398 154.46V159.26L183.859 160.799H176.526L174.896 159.26V154.46H161.044V164.15L169.102 172.21H191.373L199.43 164.15V149.479L191.373 141.419H176.526L174.896 139.789V134.718L176.526 133.087H183.859L185.398 134.718V139.698H199.34V129.737L191.282 121.677H169.011V121.767ZM198.797 139.246H185.941V134.446L184.13 132.635H176.163L174.353 134.446V140.151L176.163 141.963H191.011L198.887 149.841V163.969L191.011 171.848H169.374L161.497 163.969V155.094H174.353V159.713L176.163 161.524H184.13L185.941 159.713V154.279L184.13 152.468H169.283L161.407 144.679V130.19L169.283 122.401H190.92L198.797 130.19V139.336V139.246Z" fill="#0962AD"/>
<path d="M191.282 172.391H168.921L160.773 164.241V154.279H174.987V159.169L176.526 160.618H183.768L185.217 159.169V154.46L183.768 152.92H168.921L160.773 144.77V129.646L168.921 121.496H191.282L199.43 129.646V139.789H185.126V134.627L183.678 133.087H176.435L174.896 134.627V139.517L176.435 141.057H191.282L199.43 149.298V164.059L191.282 172.21V172.391ZM169.102 172.029H191.192L199.159 164.059V149.57L191.192 141.6H176.345L174.624 139.88V134.627L176.345 132.906H183.859L185.579 134.627V139.517H199.068V129.827L191.101 121.858H169.011L161.045 129.827V144.589L169.011 152.558H183.859L185.579 154.279V159.26L183.859 160.98H176.345L174.624 159.26V154.551H161.135V163.969L169.102 171.938V172.029ZM191.011 171.848H169.192L161.226 163.878V154.732H174.443V159.441L176.163 161.161H183.949L185.669 159.441V154.188L183.949 152.468H169.102L161.135 144.589V130.008L169.102 122.13H190.92L198.887 130.008V139.427H185.669V134.446L183.949 132.725H176.163L174.443 134.446V139.97L176.163 141.691H191.011L198.978 149.66V163.878L191.011 171.848ZM169.374 171.485H190.83L198.616 163.697V149.751L190.83 141.962H175.982L174.081 140.061V134.174L175.982 132.272H184.13L186.032 134.174V138.883H198.525V129.918L190.739 122.22H169.283L161.497 129.918V144.227L169.283 151.924H184.13L186.032 153.826V159.441L184.13 161.343H175.982L174.081 159.441V154.913H161.588V163.516L169.374 171.304V171.485Z" fill="#0962AD"/>
<path d="M122.297 151.653L127.819 135.08V124.484H117.408V130.28H120.576L119.852 132.635L109.531 163.607H107.359V169.403H121.12V163.607H118.404L120.939 155.728H127.819V151.653H122.297Z" fill="#E30D13"/>
<path d="M122.297 157.992L121.21 161.343H123.111V171.667H104.824V161.343H107.721L117.227 132.544H114.782V122.22H127.547V121.767H114.33V133.087H116.593L107.359 160.799H104.281V172.21H123.564V160.799H121.934L122.749 158.535H127.547V157.992H122.297Z" fill="#E30613"/>
<path d="M123.836 172.391H104.19V160.618H107.268L116.412 133.269H114.239V121.586H127.819V122.492H115.144V132.454H117.679L107.992 161.614H105.186V171.576H123.111V161.614H121.21L122.387 157.901H127.91V158.807H123.111L122.478 160.709H124.017V172.482L123.836 172.391ZM104.552 172.029H123.473V161.071H121.753L122.659 158.354H127.366L122.478 158.264L121.482 161.252H123.292V171.938H104.552V161.252H107.54L116.955 132.816H114.601V122.13H127.276L114.511 122.039V132.997H116.865L107.449 161.161H104.462V172.119L104.552 172.029Z" fill="#E30613"/>
<path d="M122.025 151.653H127.547V149.389H125.194L127.547 142.415V135.08L122.025 151.653Z" fill="#0962AD"/>
<path d="M126.28 148.845H127.819V143.955L126.28 148.845Z" fill="#0962AD"/>
<path d="M126.099 148.845L127.638 144.045V142.415L125.375 149.389H127.638V148.845H126.099Z" fill="#E30D13"/>
<path d="M127.819 149.57H125.103L127.819 141.238V144.136L126.28 148.755H127.819V149.66V149.57ZM125.737 149.207H127.547L125.918 149.117L127.547 144.045V143.593L125.737 149.207Z" fill="#E30D13"/>
<path d="M128 142.415V144.045L129.63 148.936H128V149.389H130.354L128 142.415Z" fill="#0962AD"/>
<path d="M130.625 149.57H127.819V148.664H129.449L127.819 144.045V141.238L130.625 149.57ZM128.181 149.207H130.082L128.181 143.593V144.045L129.992 149.117H128.181V149.207Z" fill="#0962AD"/>
<path d="M137.053 163.607H134.247V169.403H148.098V163.607H145.926L145.111 161.252L134.79 130.28H138.411V124.484H127.547V135.08L132.979 151.653H127.547V155.728H134.428L137.053 163.607Z" fill="#0962AD"/>
<path d="M133.16 160.799H131.44V172.21H150.814V160.799H147.827L138.683 133.087H141.218V121.767H127.547V122.22H140.675V132.544H137.959L147.465 161.343H150.362V171.667H131.983V161.343H133.794L132.708 157.992H127.547V158.535H132.346L133.16 160.799Z" fill="#585FA8"/>
<path d="M151.086 172.391H131.259V160.618H132.889L132.255 158.716H127.366V157.811H132.889L134.066 161.524H132.165V171.485H150.181V161.524H147.284L137.687 132.363H140.584V122.401H127.366V121.496H141.399V133.178H138.955L148.008 160.528H151.086V172.301V172.391Z" fill="#0962AD"/>
<path d="M90.0668 138.34H81.7378V133.45L78.5692 130.28H68.7916L65.7135 133.45V160.528L68.7916 163.607H78.5692L81.7378 160.528V151.743H78.026V146.943H90.0668V162.792L83.3674 169.403H64.0839L57.3845 162.792V131.82V131.095L64.0839 124.484H83.3674L90.0668 131.095V138.34Z" fill="#E30D13"/>
<path d="M62.6354 121.767L54.578 129.827V164.15L62.6354 172.21H84.7254L92.8733 164.15V144.227H75.1289V154.551H79.0218V159.35L77.3922 160.89H70.1496L68.52 159.35V134.808L70.1496 133.178H77.3922L79.0218 134.808V141.238H92.9639V129.918L84.8159 121.858H62.726L62.6354 121.767ZM92.3302 140.513H79.4745V134.355L77.6638 132.544H69.7875L67.9769 134.355V159.531L69.7875 161.343H77.6638L79.4745 159.531V154.007H75.6721V144.679H92.3302V163.878L84.4538 171.757H62.907L55.0307 163.878V130.099L62.907 122.311H84.4538L92.3302 130.099V140.604V140.513Z" fill="#E30613"/>
<path d="M93.0544 141.329V129.737L84.8159 121.586H62.6354L54.4874 129.737V164.241L62.6354 172.391H84.8159L93.0544 164.331V144.045H74.8573V154.732H78.7502V159.26L77.2111 160.709H70.1496L68.6105 159.26V134.899L70.1496 133.359H77.2111L78.7502 134.899V141.419H93.0544V141.329ZM77.3922 132.906H69.9685L68.2484 134.627V159.35L69.9685 161.071H77.3922L79.1123 159.35V154.279H75.2194V144.408H92.6017V164.059L84.5443 172.029H62.6354L54.6685 164.059V129.827L62.6354 121.858H84.5443L92.6017 129.827V140.876H79.1123V134.536L77.3922 132.816V132.906Z" fill="#E30613"/>
<path d="M79.2934 140.785H92.5112V130.008L84.6348 122.13H62.9975L55.0306 130.008V163.969L62.9975 171.938H84.6348L92.6017 163.969V144.498H75.5816V154.188H79.3839V159.441L77.6638 161.161H69.9685L68.2484 159.441V134.446L69.9685 132.725H77.6638L79.3839 134.446V140.695L79.2934 140.785ZM77.7544 132.363H69.6969L67.7958 134.265V159.622L69.6969 161.524H77.7544L79.6555 159.622V153.826H75.8532V144.86H92.1491V163.788L84.3632 171.576H62.9975L55.2117 163.788V130.099L62.9975 122.401H84.3632L92.1491 130.099V140.332H79.6555V134.265L77.7544 132.363Z" fill="#E30613"/>
<path d="M64.0839 124.484L57.3845 131.095V131.82V162.792L64.0839 169.403H83.3674L90.0668 162.792V146.943H78.026V151.743H81.7378V160.528L78.5692 163.607H68.7916L65.7135 160.528V133.45L68.7916 130.28H78.5692L81.7378 133.45V138.34H90.0668V131.095L83.3674 124.484H64.0839Z" fill="#E30613"/>
<path d="M124.831 47.7787C127.185 45.9674 129.177 44.609 130.807 43.7034C132.527 42.7978 133.794 42.0733 135.695 41.4394C139.045 40.3526 141.761 40.2621 141.761 39.8998C141.761 39.8093 141.218 39.7187 140.131 39.6281C137.506 39.447 136.148 39.3564 134.971 39.3564C133.251 39.3564 130.354 39.3565 126.642 40.8054C125.284 41.2582 123.292 42.2544 121.301 43.5223L124.922 47.7787H124.831Z" fill="#0962AD"/>
<path d="M130.173 48.7748V61.3629C130.173 61.3629 130.897 63.4458 131.44 65.3476L142.485 49.4088C136.148 46.058 130.173 48.7748 130.173 48.7748Z" fill="#0962AD"/>
<path d="M152.082 47.1447C154.345 53.484 152.715 61.6345 151.357 68.5172C149.818 76.2149 141.942 85.6333 141.942 85.6333C141.942 85.6333 144.115 85.5427 145.382 84.456C146.65 83.3693 149.185 83.0976 150.452 84.0032C151.72 84.9088 151.991 87.7162 151.991 87.7162C149.637 91.3387 146.921 94.4177 146.921 94.4177C145.111 93.2405 144.386 91.3387 144.386 91.3387C144.386 91.3387 142.123 90.9764 141.127 91.067C140.041 91.1575 126.37 91.7915 124.741 91.9726C123.111 92.1537 119.58 88.7124 119.58 88.7124C119.58 88.7124 117.317 93.6027 116.412 94.9611C115.416 96.3195 112.609 99.942 112.7 101.21C112.791 102.478 113.062 105.647 113.062 105.647C114.33 106.281 115.688 106.734 117.046 107.096C118.132 107.277 119.218 107.459 120.305 107.64C123.836 108.002 128 107.821 128 107.821C127.366 108.002 125.375 107.911 124.741 108.093C126.008 108.093 127.095 108.093 127.819 107.911C130.716 107.187 133.432 105.195 135.967 103.655C141.308 100.304 147.555 95.9573 150.905 90.4331C155.069 83.6409 157.333 75.8527 157.966 67.9738C158.328 64.1703 158.419 60.2761 157.242 56.5631C156.699 54.7519 155.884 53.1218 154.979 51.4917C154.255 50.2238 152.625 48.7748 152.082 47.4164" fill="#0962AD"/>
<path d="M130.082 73.4981C128 75.1282 126.099 76.2149 126.099 76.4866C126.099 76.7583 126.733 78.8412 126.733 78.8412L125.375 79.294L126.461 82.192C126.461 82.192 130.082 81.558 132.346 82.192C134.7 82.9165 140.946 85.6333 140.946 85.6333C140.946 85.6333 145.473 74.8565 146.197 71.3246C146.921 67.7927 151.176 55.4763 144.115 50.4049C143.481 49.9521 142.938 49.5899 142.304 49.3182L131.259 65.257C131.531 66.1626 131.712 67.0682 131.802 67.521C131.893 69.0606 131.984 71.7774 129.992 73.4075" fill="#0962AD"/>
<path d="M129.811 51.0389C129.811 51.0389 129.449 51.0389 129.358 50.9483C129.539 50.9483 129.72 50.9483 129.811 51.0389Z" fill="#9E8466"/>
<path d="M105.457 69.0606C105.457 69.0606 102.47 71.2341 100.569 71.4152C98.758 71.5963 103.013 63.8986 103.013 63.8986L105.457 69.0606ZM96.3136 72.683C95.8609 72.2302 96.4041 69.9662 94.2314 69.1511C92.0586 68.3361 89.6142 68.2455 86.6266 70.419C86.6266 70.419 85.1781 68.5172 84.997 67.6116L85.9929 59.1894L94.1408 55.1141L98.3053 56.9254L101.746 61.9968C101.746 61.9968 98.6674 68.0644 97.7621 71.3246C97.7621 71.3246 96.7663 73.0453 96.3136 72.5925M110.165 91.067C108.807 96.8629 106.182 101.572 106.182 101.572C106.182 101.572 105.005 100.576 103.647 99.2175C102.289 97.8591 100.207 92.6066 99.3917 89.0747C98.4864 85.5428 98.3959 78.2978 100.207 76.3961C102.017 74.4943 107.178 73.4981 107.178 73.4981C106.815 78.1167 111.795 82.5542 111.795 82.5542C111.795 82.5542 111.523 85.2711 110.165 91.067ZM141.037 85.6333C141.037 85.6333 134.699 82.9165 132.436 82.192C130.082 81.5581 126.552 82.192 126.552 82.192L125.465 79.294L126.823 78.8412C126.823 78.8412 126.099 76.7583 126.099 76.4866C126.099 76.2149 128 75.1282 130.082 73.4981C132.165 71.868 131.983 69.1511 131.893 67.6116C131.893 67.0682 131.621 66.2532 131.35 65.3476C130.807 63.4458 129.992 61.3629 129.992 61.3629V48.7748C129.992 48.7748 136.057 46.058 142.395 49.4088C143.028 49.771 143.572 50.1333 144.205 50.4955C151.176 55.5669 146.921 67.8833 146.288 71.4152C145.654 74.9471 141.037 85.7239 141.037 85.7239M150.452 84.0032C149.185 83.0976 146.65 83.4599 145.382 84.456C144.115 85.5428 141.942 85.6333 141.942 85.6333C141.942 85.6333 149.818 76.2149 151.357 68.5172C152.806 61.544 154.345 53.3935 152.082 47.1447C151.81 46.5108 151.539 45.8769 151.267 45.2429C147.827 38.7225 141.942 39.7187 141.942 39.7187C141.942 39.7187 129.811 41.8922 125.375 47.2353C125.375 47.2353 124.107 45.6052 121.844 44.0656C121.753 43.9751 121.572 43.8845 121.482 43.794C123.564 42.7072 126.914 40.8054 128.634 39.9904L131.259 38.7225L120.667 43.16C118.947 41.8016 117.408 40.5337 117.408 40.5337L118.585 37.0924C118.585 37.0924 118.675 36.8207 118.041 36.0962C117.408 35.3718 119.037 31.6587 118.494 30.6626C118.041 29.6664 114.239 26.859 109.984 27.1307C105.729 27.4024 105.186 30.6626 105.457 37.5452C105.457 37.5452 99.0296 38.5414 96.5852 39.447C94.1408 40.4432 81.6473 48.322 79.384 51.6728C77.1207 55.1141 80.9231 66.3437 80.2893 67.0682C79.5651 67.8833 78.1165 73.4075 78.2071 74.3131C78.2976 75.3093 80.4704 80.1091 80.8325 80.4713C81.1946 80.743 81.8284 80.4713 81.8284 80.4713C81.8284 80.4713 83.639 83.9127 84.9065 84.456C86.1739 84.9994 88.5278 84.1843 92.6018 82.2826C92.6018 82.2826 94.1408 82.7354 96.3136 81.4675C96.3136 81.4675 95.3177 96.7724 104.099 102.931C104.099 102.931 101.746 105.466 102.741 106.644C103.737 107.821 110.98 107.006 110.98 107.006C110.98 107.006 118.675 109.451 127.819 107.459C126.461 107.459 121.844 107.459 120.305 107.187C119.309 107.096 118.223 106.915 117.046 106.644C115.688 106.281 114.33 105.829 113.062 105.195C113.062 105.195 112.791 102.025 112.7 100.757C112.61 99.4892 115.416 95.8668 116.412 94.5083C117.408 93.1499 119.581 88.2596 119.581 88.2596C119.581 88.2596 123.111 91.7915 124.741 91.5198C126.37 91.3387 140.041 90.7048 141.127 90.6142C142.214 90.5236 144.386 90.8859 144.386 90.8859C144.386 90.8859 145.744 93.2405 147.555 94.4178C147.555 94.4178 149.818 91.7009 152.172 88.0785C152.172 88.0785 151.629 84.456 150.362 83.5504" fill="#E30613"/>
<path d="M124.107 237.867C123.021 236.961 117.498 234.063 117.136 233.882C109.35 229.716 101.202 226.185 93.0544 222.743C80.6514 217.491 68.1579 212.329 56.5697 205.537C45.7963 199.197 36.1999 191.59 29.3194 181.266C22.2578 170.218 19.2703 158.173 18.9987 145.404C18.8176 139.427 19.6324 133.54 20.5377 127.654C22.2578 116.696 24.0685 105.738 26.3318 94.8706C29.2289 80.9241 32.3975 66.9777 36.0188 53.2123C38.3727 44.4279 40.817 35.6434 43.8952 26.9495C44.1668 26.225 44.2573 25.5911 45.3437 25.5911C54.0348 25.5911 62.5449 24.8666 71.1455 23.961C78.2071 23.2365 85.2686 22.1498 92.2396 21.063C100.84 19.6141 106.725 17.7123 115.144 15.6293C116.865 15.1765 122.478 12.8219 124.107 12.3691C124.107 12.3691 117.046 14.8143 116.865 14.8143C102.47 18.1651 87.8941 21.063 73.1372 22.512C63.7218 23.4176 54.2159 24.1421 44.8005 23.961C43.2614 23.961 42.5372 24.5044 42.0845 25.7722C40.817 29.7569 39.3685 33.6511 38.1011 37.6358C32.488 55.0236 27.7803 72.683 23.7969 90.5236C20.5377 105.013 17.2785 119.503 16.0111 134.265C15.1963 143.683 15.649 153.011 18.0028 162.158C19.8135 169.221 22.5294 176.014 26.9655 182.081C28.6857 184.979 30.8584 187.605 33.2123 190.051C41.8129 199.107 52.3147 205.718 63.6313 211.242C81.3757 219.936 100.388 226.094 118.132 234.788C118.132 234.788 122.93 237.595 124.288 237.958L124.107 237.867Z" fill="#E30613"/>
<path d="M131.169 237.867C132.255 236.961 137.778 234.063 138.14 233.882C145.925 229.716 154.073 226.185 162.221 222.743C174.624 217.491 187.118 212.329 198.706 205.537C209.479 199.197 219.076 191.59 225.956 181.266C233.018 170.218 236.006 158.173 236.277 145.404C236.458 139.427 235.643 133.54 234.738 127.654C233.018 116.696 231.207 105.738 228.944 94.8706C226.047 80.9241 222.878 66.9777 219.257 53.2123C216.903 44.4279 214.459 35.6434 211.381 26.9495C211.109 26.225 211.018 25.5911 209.932 25.5911C201.241 25.5911 192.731 24.8666 184.13 23.961C177.069 23.2365 170.007 22.1498 163.036 21.063C154.436 19.6141 148.551 17.7123 140.131 15.6293C138.411 15.1765 132.798 12.8219 131.169 12.3691C131.169 12.3691 138.23 14.8143 138.411 14.8143C152.806 18.1651 167.382 21.063 182.139 22.512C191.554 23.4176 201.06 24.1421 210.475 23.961C212.014 23.961 212.739 24.5044 213.191 25.7722C214.459 29.7569 215.907 33.6511 217.175 37.6358C222.788 55.0236 227.495 72.683 231.479 90.5236C234.738 105.013 237.997 119.503 239.265 134.265C240.079 143.683 239.627 153.011 237.273 162.158C235.462 169.221 232.746 176.014 228.31 182.081C226.59 184.979 224.417 187.605 222.063 190.051C213.463 199.107 202.961 205.718 191.644 211.242C173.9 219.936 154.888 226.094 137.144 234.788C137.144 234.788 132.346 237.595 130.988 237.958L131.169 237.867Z" fill="#0962AD"/>
<path d="M93.8692 187.515C93.8692 187.515 93.8692 188.239 93.8692 188.692C93.8692 189.054 93.9597 189.507 94.0503 189.869H93.5071C93.326 189.236 93.0544 188.692 92.5112 188.421C91.968 188.058 91.2438 187.877 90.2479 187.877C88.8899 187.877 87.8941 188.239 87.1698 189.054C86.4455 189.869 86.0834 190.956 86.0834 192.405C86.0834 193.945 86.5361 195.213 87.3509 196.118C88.1657 197.024 89.3426 197.477 90.7006 197.477C90.9722 197.477 91.2438 197.477 91.6059 197.477C91.8775 197.477 92.2396 197.296 92.5112 197.205C92.5112 196.843 92.5112 196.48 92.5112 196.209C92.5112 195.937 92.5112 195.665 92.5112 195.575C92.5112 194.669 92.4207 194.216 92.2396 194.035C92.0586 193.854 91.6059 193.764 90.9722 193.764H90.8816V193.22C90.8816 193.22 91.6964 193.22 92.0586 193.22C92.4207 193.22 92.7828 193.22 92.9639 193.22C93.326 193.22 93.6881 193.22 94.0503 193.22C94.4124 193.22 94.684 193.22 94.9556 193.22V193.764C94.9556 193.764 94.2313 193.764 94.1408 194.035C94.0503 194.216 93.9597 194.76 93.9597 195.575V196.39C93.9597 196.39 93.9597 197.114 93.9597 197.296C93.9597 197.477 93.9597 197.748 93.9597 197.929C93.7787 197.929 93.5071 198.02 93.2355 198.111C91.8775 198.382 90.8816 198.563 90.2479 198.563C88.4373 198.563 87.0793 198.02 85.9929 197.024C84.9065 196.028 84.3633 194.579 84.3633 192.949C84.3633 191.318 84.9065 189.869 86.0834 188.783C87.2603 187.696 88.7089 187.153 90.5195 187.153C91.0627 187.153 91.6059 187.153 92.1491 187.334C92.6923 187.424 93.2355 187.605 93.8692 187.787V187.515Z" fill="white"/>
<path d="M100.297 187.153H101.655C102.289 189.145 102.922 191.047 103.556 192.767C104.19 194.488 104.643 195.665 105.005 196.571C105.186 197.024 105.367 197.386 105.548 197.477C105.729 197.567 105.91 197.658 106.182 197.658H106.363V198.201C106.363 198.201 105.638 198.201 105.276 198.201C104.914 198.201 104.643 198.201 104.461 198.201C104.19 198.201 103.828 198.201 103.556 198.201C103.194 198.201 102.832 198.201 102.47 198.201V197.658H102.651C102.651 197.658 103.285 197.658 103.375 197.567C103.466 197.567 103.556 197.296 103.556 197.114C103.556 197.114 103.556 196.933 103.556 196.843C103.556 196.752 103.556 196.662 103.466 196.48L102.741 194.126C102.741 194.126 102.289 194.126 101.927 194.126C101.293 194.126 100.931 194.126 100.75 194.126C100.388 194.126 100.116 194.126 99.7538 194.126C99.4822 194.126 99.1201 194.126 98.7579 194.126C98.3958 195.031 98.1242 195.756 98.0337 196.118C97.9431 196.571 97.8526 196.843 97.8526 197.024C97.8526 197.296 97.8526 197.477 98.0337 197.567C98.1242 197.658 98.3958 197.748 98.7579 197.748H98.939V198.292C98.939 198.292 98.2147 198.292 97.8526 198.292C97.4905 198.292 97.2189 198.292 96.9473 198.292C96.7662 198.292 96.4946 198.292 96.223 198.292C95.9514 198.292 95.5893 198.292 95.2272 198.292V197.748C95.2272 197.748 95.8609 197.748 96.1325 197.567C96.3136 197.477 96.4946 197.205 96.6757 196.843C96.9473 196.209 97.4905 195.031 98.2148 193.22C98.939 191.409 99.7538 189.417 100.478 187.243L100.297 187.153ZM100.659 188.602L98.939 193.22C98.939 193.22 99.2106 193.22 99.3917 193.22C99.9349 193.22 100.388 193.22 100.569 193.22C100.84 193.22 101.293 193.22 101.927 193.22C102.108 193.22 102.198 193.22 102.289 193.22L100.75 188.602H100.659Z" fill="white"/>
<path d="M107.268 197.567C107.268 197.567 107.268 197.567 107.359 197.567C107.359 197.567 107.359 197.567 107.54 197.567C108.264 197.567 108.536 196.571 108.536 194.669C108.536 194.216 108.536 193.854 108.536 193.582V191.5C108.536 191.5 108.536 190.594 108.536 190.232C108.536 189.779 108.536 189.326 108.536 188.873C108.536 188.421 108.536 188.149 108.264 187.968C108.083 187.787 107.811 187.696 107.359 187.696V187.153C107.359 187.153 107.992 187.153 108.354 187.153C108.626 187.153 108.988 187.153 109.35 187.153C109.712 187.153 110.165 187.153 110.708 187.153C111.251 187.153 111.614 187.153 111.704 187.153C112.791 187.153 113.605 187.424 114.239 187.877C114.873 188.33 115.144 188.964 115.144 189.779C115.144 190.322 114.963 190.775 114.692 191.228C114.42 191.59 113.877 192.043 113.243 192.405C114.149 192.586 114.782 192.858 115.235 193.311C115.688 193.764 115.869 194.307 115.869 195.031C115.869 195.937 115.507 196.752 114.782 197.296C114.058 197.839 113.062 198.111 111.795 198.111C111.614 198.111 111.161 198.111 110.527 198.111C109.894 198.111 109.441 198.111 108.988 198.111C108.807 198.111 108.626 198.111 108.264 198.111C107.992 198.111 107.63 198.111 107.268 198.111V197.567ZM109.984 197.114C109.984 197.114 110.527 197.296 110.889 197.296C111.161 197.296 111.433 197.296 111.704 197.296C112.519 197.296 113.153 197.114 113.696 196.662C114.149 196.209 114.42 195.665 114.42 194.941C114.42 194.126 114.149 193.583 113.605 193.22C113.062 192.858 112.338 192.677 111.251 192.677C111.07 192.677 110.889 192.677 110.708 192.677C110.527 192.677 110.346 192.677 109.984 192.677C109.984 192.858 109.984 193.22 109.984 193.582C109.984 194.035 109.984 194.307 109.984 194.488C109.984 194.85 109.984 195.122 109.984 195.484C109.984 195.847 109.984 196.299 109.984 196.933V197.114ZM109.984 192.043C109.984 192.043 110.256 192.043 110.346 192.043C110.437 192.043 110.708 192.043 110.98 192.043C111.252 192.043 111.523 192.043 111.795 192.043C112.066 192.043 112.247 192.043 112.519 192.043C112.881 191.771 113.153 191.5 113.334 191.137C113.515 190.775 113.605 190.413 113.605 190.051C113.605 189.417 113.424 188.873 112.972 188.511C112.519 188.149 111.976 187.968 111.251 187.968C111.07 187.968 110.889 187.968 110.708 187.968C110.527 187.968 110.256 187.968 109.984 188.058C109.984 188.783 109.984 189.507 109.984 190.413C109.984 191.318 109.984 191.862 109.984 192.043Z" fill="white"/>
<path d="M121.482 187.153H122.84C123.473 189.145 124.107 191.047 124.741 192.767C125.375 194.488 125.827 195.665 126.189 196.571C126.37 197.024 126.552 197.386 126.733 197.477C126.914 197.567 127.095 197.658 127.366 197.658H127.547V198.201C127.547 198.201 126.823 198.201 126.461 198.201C126.099 198.201 125.827 198.201 125.646 198.201C125.375 198.201 125.012 198.201 124.741 198.201C124.379 198.201 124.017 198.201 123.654 198.201V197.658H123.836C123.836 197.658 124.469 197.658 124.56 197.567C124.65 197.567 124.741 197.296 124.741 197.114C124.741 197.114 124.741 196.933 124.741 196.843C124.741 196.752 124.741 196.662 124.65 196.48L123.926 194.126C123.926 194.126 123.473 194.126 123.111 194.126C122.478 194.126 122.115 194.126 121.934 194.126C121.572 194.126 121.301 194.126 120.939 194.126C120.667 194.126 120.305 194.126 119.943 194.126C119.581 195.031 119.309 195.756 119.218 196.118C119.128 196.571 119.037 196.843 119.037 197.024C119.037 197.296 119.037 197.477 119.218 197.567C119.309 197.658 119.581 197.748 119.943 197.748H120.124V198.292C120.124 198.292 119.399 198.292 119.037 198.292C118.675 198.292 118.404 198.292 118.132 198.292C117.951 198.292 117.679 198.292 117.408 198.292C117.136 198.292 116.774 198.292 116.412 198.292V197.748C116.412 197.748 117.046 197.748 117.317 197.567C117.498 197.477 117.679 197.205 117.86 196.843C118.132 196.209 118.675 195.031 119.399 193.22C120.124 191.409 120.939 189.417 121.663 187.243L121.482 187.153ZM121.753 188.602L120.033 193.22C120.033 193.22 120.305 193.22 120.486 193.22C121.029 193.22 121.482 193.22 121.663 193.22C121.934 193.22 122.387 193.22 123.021 193.22C123.202 193.22 123.292 193.22 123.383 193.22L121.844 188.602H121.753Z" fill="white"/>
<path d="M128.362 197.567C128.362 197.567 128.362 197.567 128.453 197.567C128.453 197.567 128.453 197.567 128.634 197.567C129.358 197.567 129.63 196.571 129.63 194.669C129.63 194.216 129.63 193.854 129.63 193.582V191.5C129.63 191.5 129.63 190.594 129.63 190.232C129.63 189.779 129.63 189.326 129.63 188.873C129.63 188.421 129.63 188.149 129.358 187.968C129.177 187.787 128.905 187.696 128.453 187.696V187.153C128.453 187.153 129.177 187.153 129.449 187.153C129.72 187.153 130.082 187.153 130.444 187.153C130.807 187.153 131.169 187.153 131.712 187.153C132.255 187.153 132.527 187.153 132.708 187.153C133.794 187.153 134.609 187.424 135.243 187.968C135.876 188.511 136.239 189.236 136.239 190.051C136.239 190.685 136.057 191.228 135.695 191.681C135.333 192.134 134.881 192.586 134.156 192.949L135.605 195.122C135.605 195.122 135.695 195.303 135.876 195.484C136.872 197.024 137.687 197.748 138.321 197.748V198.201C138.321 198.201 138.14 198.201 137.959 198.201C137.597 198.201 137.415 198.201 137.234 198.201C136.691 198.201 136.239 198.201 135.967 198.02C135.695 197.839 135.333 197.567 135.062 197.205C135.062 197.205 134.7 196.662 134.247 195.847C133.794 195.031 133.251 194.216 132.708 193.492C132.527 193.492 132.346 193.492 132.074 193.492C131.893 193.492 131.621 193.492 131.35 193.492H130.897V195.847C130.897 196.571 130.897 197.114 131.169 197.296C131.35 197.477 131.621 197.567 132.074 197.567V198.111C132.074 198.111 131.35 198.111 130.988 198.111C130.626 198.111 130.263 198.111 129.901 198.111C129.72 198.111 129.449 198.111 129.086 198.111C128.724 198.111 128.362 198.111 127.91 198.111V197.567H128.362ZM131.078 192.677C131.078 192.677 131.531 192.677 131.802 192.677C131.984 192.677 132.255 192.677 132.346 192.677C132.527 192.677 132.617 192.677 132.798 192.677C132.979 192.677 133.16 192.677 133.432 192.677C133.885 192.405 134.247 192.043 134.518 191.681C134.79 191.318 134.881 190.866 134.881 190.322C134.881 189.598 134.609 189.054 134.156 188.602C133.704 188.149 133.07 187.968 132.255 187.968C132.074 187.968 131.802 187.968 131.621 187.968C131.44 187.968 131.259 187.968 130.988 187.968C130.988 188.602 130.988 189.236 130.988 189.96C130.988 190.594 130.988 191.5 130.988 192.677H131.078Z" fill="white"/>
<path d="M139.407 197.567C139.407 197.567 139.407 197.567 139.498 197.567C139.498 197.567 139.498 197.567 139.679 197.567C140.403 197.567 140.675 196.571 140.675 194.669C140.675 194.216 140.675 193.854 140.675 193.582V191.5C140.675 191.5 140.675 190.594 140.675 190.232C140.675 189.779 140.675 189.326 140.675 188.873C140.675 188.421 140.675 188.149 140.403 187.968C140.222 187.787 139.95 187.696 139.498 187.696V187.153C139.498 187.153 140.222 187.153 140.494 187.153C140.765 187.153 141.127 187.153 141.489 187.153C141.852 187.153 142.214 187.153 142.757 187.153C143.3 187.153 143.572 187.153 143.753 187.153C144.839 187.153 145.654 187.424 146.288 187.968C146.921 188.511 147.284 189.236 147.284 190.051C147.284 190.685 147.103 191.228 146.74 191.681C146.378 192.134 145.926 192.586 145.201 192.949L146.65 195.122C146.65 195.122 146.74 195.303 146.921 195.484C147.917 197.024 148.732 197.748 149.366 197.748V198.201C149.366 198.201 149.185 198.201 149.004 198.201C148.642 198.201 148.461 198.201 148.279 198.201C147.736 198.201 147.284 198.201 147.012 198.02C146.74 197.839 146.378 197.567 146.107 197.205C146.107 197.205 145.745 196.662 145.292 195.847C144.839 195.031 144.296 194.216 143.753 193.492C143.572 193.492 143.391 193.492 143.119 193.492C142.938 193.492 142.666 193.492 142.395 193.492H141.942V195.847C141.942 196.571 141.942 197.114 142.214 197.296C142.395 197.477 142.666 197.567 143.119 197.567V198.111C143.119 198.111 142.395 198.111 142.033 198.111C141.671 198.111 141.308 198.111 140.946 198.111C140.765 198.111 140.494 198.111 140.132 198.111C139.769 198.111 139.407 198.111 138.955 198.111V197.567H139.407ZM142.123 192.677C142.123 192.677 142.576 192.677 142.847 192.677C143.029 192.677 143.3 192.677 143.391 192.677C143.572 192.677 143.662 192.677 143.843 192.677C144.024 192.677 144.205 192.677 144.477 192.677C144.93 192.405 145.292 192.043 145.563 191.681C145.835 191.318 145.926 190.866 145.926 190.322C145.926 189.598 145.654 189.054 145.201 188.602C144.749 188.149 144.115 187.968 143.3 187.968C143.119 187.968 142.847 187.968 142.666 187.968C142.485 187.968 142.304 187.968 142.033 187.968C142.033 188.602 142.033 189.236 142.033 189.96C142.033 190.594 142.033 191.5 142.033 192.677H142.123Z" fill="white"/>
<path d="M150.633 187.153C151.539 187.153 152.353 187.153 153.078 187.153C153.802 187.153 154.436 187.153 154.888 187.153C155.432 187.153 156.065 187.153 156.608 187.153C157.152 187.153 157.785 187.153 158.419 187.153C158.419 187.515 158.419 187.968 158.419 188.33C158.419 188.692 158.419 189.145 158.51 189.507H157.966C157.966 188.964 157.695 188.511 157.423 188.33C157.152 188.149 156.337 187.968 155.25 187.968C154.979 187.968 154.436 187.968 153.711 187.968C153.53 187.968 153.44 187.968 153.349 187.968C153.349 188.602 153.349 189.326 153.349 190.232C153.349 191.137 153.349 191.681 153.349 191.952H153.621C153.621 191.952 154.345 191.952 154.798 191.952C155.25 191.952 155.522 191.952 155.703 191.952C156.427 191.952 156.971 191.952 157.152 191.771C157.423 191.59 157.514 191.409 157.514 191.047H157.966C157.966 191.047 157.966 191.681 157.966 191.952C157.966 192.224 157.966 192.496 157.966 192.677C157.966 192.767 157.966 193.13 157.966 193.492C157.966 193.673 157.966 193.764 157.966 193.854H157.423C157.423 193.401 157.333 193.13 157.061 192.949C156.79 192.767 156.246 192.677 155.25 192.677H153.349C153.349 192.677 153.349 193.311 153.349 193.673C153.349 194.126 153.349 194.398 153.349 194.669C153.349 195.031 153.349 195.394 153.349 195.756C153.349 196.118 153.349 196.571 153.349 197.024C153.621 197.024 153.892 197.024 154.255 197.024C154.617 197.024 154.979 197.024 155.341 197.024C156.608 197.024 157.514 196.933 157.876 196.662C158.238 196.39 158.6 195.937 158.872 195.213L159.415 195.394C159.415 195.394 159.143 196.209 159.053 196.662C158.962 197.114 158.872 197.477 158.781 197.839C157.966 197.839 157.242 197.839 156.518 197.839C155.794 197.839 155.16 197.839 154.617 197.839C153.892 197.839 152.625 197.839 150.905 197.839H150.633V197.386C150.633 197.386 150.633 197.386 150.724 197.386C150.724 197.386 150.724 197.386 150.905 197.386C151.629 197.386 151.901 196.39 151.901 194.488C151.901 194.035 151.901 193.673 151.901 193.401V191.318C151.901 191.318 151.901 190.413 151.901 190.051C151.901 189.598 151.901 189.145 151.901 188.692C151.901 188.239 151.901 187.968 151.629 187.787C151.448 187.605 151.176 187.515 150.724 187.515V186.971L150.633 187.153Z" fill="white"/>
<path d="M162.403 197.567H162.674C162.674 197.567 163.308 197.567 163.489 197.477C163.67 197.477 163.761 197.205 163.851 197.024C163.851 196.843 163.851 196.299 163.942 195.303C163.942 194.307 163.942 192.767 163.942 190.685V188.239H162.403C161.678 188.239 161.135 188.33 160.863 188.511C160.592 188.692 160.411 189.145 160.32 189.779H159.777C159.868 189.236 159.958 188.783 159.958 188.33C159.958 187.877 159.958 187.515 159.958 187.062C160.139 187.153 160.411 187.243 160.863 187.243C161.316 187.243 162.131 187.243 163.308 187.243H165.209C166.748 187.243 167.744 187.243 168.197 187.243C168.649 187.243 168.921 187.153 169.102 187.062C169.102 187.062 169.102 187.153 169.102 187.334C169.102 187.424 169.102 187.515 169.102 187.605C169.102 187.968 169.102 188.239 169.102 188.602C169.102 188.964 169.102 189.326 169.193 189.688H168.74C168.74 189.236 168.559 188.783 168.287 188.602C168.016 188.42 167.472 188.239 166.658 188.239H165.209C165.209 188.239 165.209 188.964 165.209 189.507C165.209 190.866 165.209 191.862 165.209 192.315C165.209 194.126 165.209 195.394 165.209 196.028C165.209 196.662 165.209 197.114 165.3 197.205C165.3 197.386 165.481 197.477 165.662 197.567C165.843 197.567 166.024 197.658 166.386 197.658H166.658V198.201C166.658 198.201 165.843 198.201 165.481 198.201C165.119 198.201 164.756 198.201 164.485 198.201C164.213 198.201 163.942 198.201 163.489 198.201C163.127 198.201 162.674 198.201 162.221 198.201V197.658L162.403 197.567Z" fill="white"/>
<path d="M114.511 209.974C114.511 210.97 114.511 211.876 114.42 212.963C114.42 213.959 114.42 215.317 114.42 217.038C114.42 217.219 114.42 217.491 114.42 217.762C114.42 218.125 114.42 218.306 114.42 218.396C114.42 219.302 114.511 219.936 114.692 220.117C114.873 220.389 115.235 220.479 115.688 220.479C115.688 220.479 115.688 220.479 115.869 220.479C115.869 220.479 115.959 220.479 116.05 220.479V221.023C115.597 221.023 115.144 221.023 114.782 221.023C114.42 221.023 113.967 221.023 113.696 221.023C113.424 221.023 113.062 221.023 112.7 221.023C112.338 221.023 111.885 221.023 111.433 221.023V220.479H111.704C112.247 220.479 112.609 220.479 112.791 220.298C112.972 220.208 113.153 219.936 113.153 219.664C113.153 219.483 113.153 218.759 113.243 217.672C113.243 216.495 113.243 215.136 113.243 213.415C113.243 213.144 113.243 212.782 113.243 212.238C113.243 211.695 113.243 211.333 113.243 211.061C112.972 211.061 112.609 211.061 112.338 211.061C111.976 211.061 111.614 211.061 111.251 211.151V210.608C111.704 210.517 112.247 210.427 112.881 210.336C113.424 210.246 114.058 210.065 114.692 209.974H114.511Z" fill="white"/>
<path d="M124.107 215.861C124.107 215.861 123.202 216.495 122.84 216.585C122.387 216.766 122.025 216.857 121.663 216.857C120.848 216.857 120.124 216.585 119.58 215.951C119.037 215.317 118.766 214.502 118.766 213.597C118.766 212.51 119.128 211.695 119.761 210.97C120.395 210.336 121.21 209.974 122.206 209.974C123.292 209.974 124.107 210.427 124.741 211.242C125.375 212.057 125.646 213.234 125.646 214.683C125.646 216.585 125.103 218.215 124.107 219.483C123.111 220.751 121.844 221.385 120.395 221.385C120.033 221.385 119.761 221.385 119.49 221.204C119.309 221.113 119.218 220.932 119.218 220.66C119.218 220.479 119.218 220.389 119.399 220.298C119.49 220.298 119.58 220.208 119.761 220.208C119.761 220.208 120.033 220.208 120.305 220.298C120.576 220.298 120.848 220.389 121.119 220.389C122.025 220.389 122.749 220.026 123.292 219.302C123.835 218.577 124.107 217.491 124.198 215.951L124.107 215.861ZM124.198 215.046C124.198 213.597 124.017 212.51 123.654 211.785C123.292 211.061 122.749 210.699 122.025 210.699C121.391 210.699 120.938 210.88 120.667 211.333C120.305 211.785 120.124 212.329 120.124 213.053C120.124 213.868 120.305 214.502 120.757 215.046C121.119 215.498 121.663 215.77 122.387 215.77C122.659 215.77 123.021 215.77 123.292 215.589C123.654 215.498 123.926 215.227 124.288 215.046H124.198Z" fill="white"/>
<path d="M131.983 209.974C131.983 210.97 131.983 211.876 131.893 212.963C131.893 213.959 131.893 215.317 131.893 217.038C131.893 217.219 131.893 217.491 131.893 217.762C131.893 218.125 131.893 218.306 131.893 218.396C131.893 219.302 131.983 219.936 132.164 220.117C132.346 220.389 132.708 220.479 133.16 220.479C133.16 220.479 133.16 220.479 133.341 220.479C133.341 220.479 133.432 220.479 133.522 220.479V221.023C133.07 221.023 132.617 221.023 132.255 221.023C131.893 221.023 131.44 221.023 131.169 221.023C130.897 221.023 130.535 221.023 130.173 221.023C129.811 221.023 129.358 221.023 128.905 221.023V220.479H129.177C129.72 220.479 130.082 220.479 130.263 220.298C130.444 220.208 130.625 219.936 130.625 219.664C130.625 219.483 130.625 218.759 130.716 217.672C130.716 216.495 130.716 215.136 130.716 213.415C130.716 213.144 130.716 212.782 130.716 212.238C130.716 211.695 130.716 211.333 130.716 211.061C130.444 211.061 130.082 211.061 129.811 211.061C129.449 211.061 129.086 211.061 128.724 211.151V210.608C129.177 210.517 129.72 210.427 130.354 210.336C130.897 210.246 131.531 210.065 132.164 209.974H131.983Z" fill="white"/>
<path d="M136.057 215.861C136.057 214.049 136.419 212.6 137.144 211.514C137.868 210.427 138.773 209.884 139.95 209.884C141.127 209.884 141.942 210.336 142.666 211.333C143.3 212.329 143.662 213.597 143.662 215.317C143.662 217.128 143.3 218.577 142.576 219.574C141.851 220.66 140.946 221.204 139.769 221.204C138.592 221.204 137.777 220.751 137.053 219.755C136.419 218.759 136.057 217.491 136.057 215.77V215.861ZM139.679 210.789C138.954 210.789 138.411 211.151 137.959 211.876C137.596 212.6 137.415 213.687 137.415 215.136C137.415 216.857 137.596 218.125 138.049 219.03C138.502 219.936 139.135 220.389 139.95 220.389C140.675 220.389 141.218 220.026 141.67 219.302C142.033 218.577 142.214 217.491 142.214 215.951C142.214 214.23 142.033 212.963 141.58 212.057C141.127 211.151 140.493 210.699 139.679 210.699V210.789Z" fill="white"/>
<defs>
<linearGradient id="paint0_linear_524_15584" x1="-19.6353" y1="69.0745" x2="52.2665" y2="117.759" gradientUnits="userSpaceOnUse">
<stop stop-color="white"/>
<stop offset="0.1" stop-color="#D8E6F2"/>
<stop offset="0.29" stop-color="#9ABEDD"/>
<stop offset="0.46" stop-color="#669DCC"/>
<stop offset="0.63" stop-color="#3D83BE"/>
<stop offset="0.78" stop-color="#2071B4"/>
<stop offset="0.91" stop-color="#0F65AF"/>
<stop offset="1" stop-color="#0962AD"/>
</linearGradient>
<linearGradient id="paint1_linear_524_15584" x1="137.031" y1="68.5328" x2="238.444" y2="122.711" gradientUnits="userSpaceOnUse">
<stop stop-color="#E30613"/>
<stop offset="0.49" stop-color="#E30D13"/>
<stop offset="0.55" stop-color="#E31117"/>
<stop offset="0.62" stop-color="#E41D23"/>
<stop offset="0.68" stop-color="#E73237"/>
<stop offset="0.75" stop-color="#EA4F53"/>
<stop offset="0.82" stop-color="#EE7477"/>
<stop offset="0.89" stop-color="#F4A2A4"/>
<stop offset="0.95" stop-color="#FAD7D8"/>
<stop offset="1" stop-color="white"/>
</linearGradient>
</defs>
</svg>
