<svg width="256" height="256" viewBox="0 0 256 256" fill="none" xmlns="http://www.w3.org/2000/svg">
<path d="M226.369 25.0553C227.459 37.3651 228.112 54.1413 226.478 73.9677C225.171 89.8723 222.666 119.285 208.613 154.254C206.216 160.245 194.124 189.767 172.01 216.456C166.128 223.646 156.432 234.975 140.746 246.087C135.952 249.464 131.704 251.969 128.654 253.712C122.662 250.226 114.71 245.106 106.213 238.026C88.892 223.537 78.9788 209.157 72.3337 199.244C68.6299 193.797 52.6162 169.505 41.8316 133.229C35.7311 112.531 33.6613 96.0817 32.3541 85.1881C29.3039 60.4596 29.9575 41.6136 30.2843 34.5328C30.5022 30.5021 30.7201 27.1251 30.9379 24.7285C61.549 22.6587 84.7524 18.3013 96.1907 15.2511C109.045 11.874 120.157 7.5166 120.157 7.5166C123.643 6.10043 126.475 4.90213 128.545 4.03064C129.525 4.46638 130.941 5.12 132.684 5.88255C145.43 11.4383 155.67 13.9438 161.661 15.4689C183.666 20.9157 226.369 25.0553 226.369 25.0553Z" fill="white"/>
<path d="M128.545 255.673L127.782 255.237C119.83 250.662 112.204 245.324 105.123 239.442C87.149 224.408 76.909 209.266 70.8085 200.225C64.926 191.51 50.2196 167.544 40.1975 133.774C33.8792 112.531 31.8094 95.537 30.6111 85.4059C28.5413 68.0851 27.8877 50.5464 28.6502 34.5328C28.7592 31.2647 29.086 27.8876 29.3039 24.6196L29.4128 23.2034L30.829 23.0945C60.3507 21.0247 83.7719 16.8851 95.8639 13.7259C108.392 10.4579 119.176 6.20935 119.612 5.99148C122.444 4.90212 125.168 3.70382 127.891 2.50552L128.545 2.17871L129.198 2.50552C130.506 3.15914 131.922 3.70382 133.229 4.35743C145.866 9.80424 155.888 12.3098 161.988 13.8349C183.666 19.2817 226.043 23.4213 226.478 23.4213L227.786 23.5302L227.894 24.8374C229.311 41.1779 229.311 57.7362 228.003 74.0766C226.805 88.674 224.409 118.958 209.92 154.798C205.672 165.474 193.471 192.817 172.991 217.437C167.653 223.864 157.631 235.956 141.399 247.394C137.477 250.117 133.338 252.732 129.198 255.128L128.545 255.673ZM32.463 26.2536C32.2451 29.0859 32.0273 31.8093 31.9183 34.6417C31.1558 50.5464 31.8094 67.9762 33.8792 85.0791C35.0775 95.1013 37.1473 111.877 43.3566 132.902C53.2698 166.237 67.7583 189.876 73.6409 198.482C79.6324 207.414 89.6545 222.23 107.193 236.827C113.838 242.383 121.137 247.503 128.654 251.86C132.466 249.682 136.17 247.285 139.765 244.78C155.67 233.559 165.474 221.794 170.703 215.367C190.856 191.074 202.839 164.058 207.088 153.6C221.358 118.196 223.755 88.2383 224.844 73.8587C226.043 58.1719 226.043 42.2672 224.844 26.5804C217.328 25.8179 180.943 22.0051 161.226 16.994C155.125 15.4689 144.885 12.8545 132.031 7.29871C130.832 6.75403 129.743 6.31828 128.545 5.7736C126.039 6.86297 123.425 7.95233 120.81 9.04169C120.374 9.25956 109.372 13.5081 96.7353 16.8851C84.6434 20.0442 61.549 24.1838 32.463 26.2536Z" fill="#E30613"/>
<path d="M50.6553 38.7812C52.0715 38.7812 53.2698 38.8902 54.3591 39.1081C55.4485 39.3259 56.4289 39.6527 57.3004 40.0885L56.32 43.3566C55.5574 42.9208 54.6859 42.703 53.8144 42.4851C52.9429 42.2672 52.0715 42.1583 51.3089 42.1583C50.3285 42.1583 49.457 42.2672 48.5855 42.594C47.714 42.9208 46.9515 43.3566 46.4068 44.0102C45.7532 44.6638 45.3174 45.5353 44.8817 46.5157C44.5549 47.4961 44.337 48.6944 44.337 50.1106C44.337 52.6161 44.8817 54.577 46.08 55.9932C47.1693 57.4093 48.8034 58.063 50.8732 58.063C52.0715 58.063 52.9429 57.954 53.5966 57.7361V52.6161H50.0017V49.0213H58.1719V60.1327C57.3004 60.5685 56.211 60.8953 55.0127 61.1132C53.8144 61.331 52.3983 61.5489 50.8732 61.5489C49.2391 61.5489 47.714 61.331 46.2978 60.7864C44.8817 60.3506 43.6834 59.5881 42.594 58.6076C41.5047 57.6272 40.7421 56.4289 40.1974 55.0127C39.6527 53.5966 39.3259 51.9625 39.3259 50.1106C39.3259 48.2587 39.6527 46.6247 40.1974 45.2085C40.7421 43.7923 41.6136 42.594 42.594 41.6136C43.5744 40.6332 44.8817 39.9796 46.2978 39.4349C47.4961 38.9991 49.0212 38.7812 50.6553 38.7812Z" fill="#004D92"/>
<path d="M62.0936 39.217H70.4817C71.68 39.217 72.7694 39.4349 73.7498 39.7617C74.7302 40.0885 75.4928 40.6331 76.1464 41.1778C76.8 41.8314 77.2358 42.4851 77.5626 43.3566C77.8894 44.228 77.9983 45.0995 77.9983 46.08C77.9983 46.9514 77.8894 47.714 77.5626 48.4766C77.3447 49.0212 77.0179 49.6749 76.5821 50.1106C76.1464 50.6553 75.7107 50.9821 75.166 51.4178C74.6213 51.7446 74.1855 52.0714 73.7498 52.2893L79.0877 61.2221H73.6409L69.3924 53.1608H66.8868V61.2221H62.0936V39.217ZM66.8868 49.457H68.7387C70.046 49.457 71.0264 49.2391 71.7889 48.6944C72.5515 48.1497 72.9872 47.2783 72.9872 46.1889C72.9872 45.0995 72.6604 44.337 72.0068 43.7923C71.3532 43.2476 70.4817 42.9208 69.1745 42.9208H66.7779V49.457H66.8868Z" fill="#004D92"/>
<path d="M88.2383 39.217H93.2494L101.42 61.2221H96.4085L94.6656 56.211H86.8222L85.0792 61.2221H80.0681L88.2383 39.217ZM87.9115 52.6161H93.4673L92.4868 49.6749C92.16 48.8034 91.8332 47.8229 91.6153 46.9514C91.2885 46.08 91.0707 45.0995 90.8528 44.228H90.7439C90.526 45.0995 90.1992 45.971 89.8724 46.9514C89.5456 47.8229 89.2188 48.8034 88.8919 49.7838L87.9115 52.6161Z" fill="#004D92"/>
<path d="M104.143 39.217H108.5L116.126 50.7642C116.671 51.5268 117.106 52.2893 117.542 53.0519C117.978 53.8144 118.305 54.3591 118.414 54.7949H118.523C118.414 53.2697 118.305 51.7446 118.305 50.2195C118.305 48.6944 118.305 47.1693 118.305 45.6442V39.217H122.771V61.2221H118.414L111.333 50.5463C111.006 50.1106 110.679 49.5659 110.461 49.1302C110.134 48.5855 109.917 48.1497 109.59 47.714C109.372 47.2783 109.154 46.8425 108.936 46.4068C108.718 45.971 108.609 45.7532 108.5 45.4263H108.391C108.5 47.0604 108.609 48.5855 108.609 50.0017C108.609 51.5268 108.609 52.9429 108.609 54.577V61.2221H104.143V39.217Z" fill="#004D92"/>
<path d="M135.299 39.217C137.042 39.217 138.567 39.4349 139.983 39.8706C141.399 40.3063 142.597 40.96 143.578 41.8314C144.558 42.7029 145.321 43.7923 145.865 45.0995C146.41 46.4068 146.737 47.9319 146.737 49.6749C146.737 51.6357 146.41 53.3787 145.757 54.7949C145.103 56.211 144.231 57.4093 143.142 58.3897C142.053 59.3702 140.745 60.0238 139.22 60.4595C137.695 60.8953 136.17 61.1131 134.427 61.1131H127.673V39.217H135.299ZM132.357 57.5183H133.991C134.972 57.5183 135.952 57.4093 136.824 57.1914C137.695 56.9736 138.567 56.5378 139.22 55.8842C139.874 55.3395 140.528 54.468 140.854 53.4876C141.29 52.5072 141.508 51.2 141.508 49.7838C141.508 47.6051 140.854 45.8621 139.656 44.6638C138.349 43.4655 136.715 42.9208 134.645 42.9208H132.357V57.5183Z" fill="#004D92"/>
<path d="M165.365 39.217C167.108 39.217 168.633 39.4349 170.049 39.8706C171.465 40.3063 172.664 40.96 173.644 41.8314C174.625 42.7029 175.387 43.7923 175.932 45.0995C176.477 46.4068 176.803 47.9319 176.803 49.6749C176.803 51.6357 176.477 53.3787 175.823 54.7949C175.169 56.211 174.298 57.4093 173.208 58.3897C172.119 59.3702 170.812 60.0238 169.287 60.4595C167.762 60.8953 166.237 61.1131 164.494 61.1131H157.74V39.217H165.365ZM162.424 57.5183H164.058C165.038 57.5183 166.019 57.4093 166.89 57.1914C167.762 56.9736 168.633 56.5378 169.287 55.8842C169.94 55.3395 170.594 54.468 170.921 53.4876C171.357 52.5072 171.574 51.2 171.574 49.7838C171.574 47.6051 170.921 45.8621 169.722 44.6638C168.415 43.4655 166.781 42.9208 164.711 42.9208H162.424V57.5183Z" fill="#E30613"/>
<path d="M185.191 39.217H190.203L198.373 61.2221H193.362L191.619 56.211H183.775L182.032 61.2221H177.021L185.191 39.217ZM184.756 52.6161H190.311L189.331 49.6749C189.004 48.8034 188.677 47.8229 188.46 46.9514C188.133 46.08 187.915 45.0995 187.697 44.228H187.588C187.37 45.0995 187.043 45.971 186.717 46.9514C186.39 47.8229 186.063 48.8034 185.736 49.7838L184.756 52.6161Z" fill="#E30613"/>
<path d="M205.018 39.217L209.593 46.9514L214.169 39.217H219.615L212.534 50.0017L219.942 61.2221H214.277L209.266 53.1608L204.473 61.2221H199.026L206.216 50.0017L199.353 39.217H205.018Z" fill="#E30613"/>
<path d="M185.845 104.361C186.825 104.143 187.697 103.816 188.46 103.163C188.677 103.054 188.786 102.618 188.677 102.4C188.459 101.746 188.133 100.984 187.806 100.33C186.717 98.4783 185.082 97.9336 183.122 98.8051C181.814 99.3498 180.616 100.112 179.636 101.202C179.309 101.529 178.982 101.855 178.437 102.4C181.052 102.509 183.122 103.38 184.865 104.797C185.3 104.579 185.518 104.361 185.845 104.361ZM187.806 101.42C187.915 101.42 188.024 101.42 188.133 101.311C188.242 101.746 188.46 102.182 188.46 102.618C188.46 102.727 188.133 102.945 187.915 103.054L187.806 102.945C187.697 102.509 187.697 101.964 187.806 101.42ZM186.499 99.6766C186.934 99.6766 187.261 99.8945 187.261 100.33C187.261 100.766 186.934 100.984 186.608 100.984C186.172 100.984 185.954 100.766 185.954 100.33C185.845 99.8945 186.063 99.6766 186.499 99.6766ZM181.379 102.073C181.379 102.291 181.161 102.291 181.052 102.291C180.507 102.182 179.962 102.182 179.2 102.073C179.854 101.093 180.725 100.439 181.705 99.8945C181.488 100.766 181.379 101.42 181.379 102.073Z" fill="#004D92"/>
<path d="M178.437 95.7549C180.507 94.7745 182.795 94.4477 185.083 94.1209C186.825 93.794 188.46 93.6851 190.203 93.4672C190.529 93.4672 190.856 93.2494 190.965 93.0315C191.183 92.3779 191.292 91.7243 191.51 90.9617C191.619 90.6349 191.51 90.417 191.074 90.417C190.529 90.417 189.985 90.417 189.44 90.526C185.409 91.1796 181.705 92.8136 178.437 95.3191C178.328 95.4281 178.22 95.537 178.111 95.646L178.22 95.7549C178.22 95.7549 178.328 95.8638 178.437 95.7549Z" fill="#004D92"/>
<path d="M189.767 111.986C187.588 111.333 185.518 110.788 183.34 110.134C182.686 109.917 182.032 109.699 181.379 109.372C181.488 109.59 181.705 109.699 181.923 109.808C183.122 110.243 184.32 110.788 185.518 111.224C187.043 111.769 188.677 112.204 190.311 112.531C192.817 112.967 194.778 111.66 196.521 109.808C195.976 110.243 195.431 110.679 194.887 111.006C193.253 112.095 191.619 112.531 189.767 111.986Z" fill="#004D92"/>
<path d="M195.867 106.213C195.431 107.193 194.669 107.629 193.688 107.738C192.817 107.847 191.837 107.847 190.856 107.847C192.708 108.827 195.649 107.847 195.867 106.213Z" fill="#004D92"/>
<path d="M166.019 95.9728C166.237 96.1907 166.454 96.2996 166.563 96.5175C167.108 97.28 167.544 98.0426 168.088 98.8051C168.306 99.023 168.088 99.2409 167.871 99.3498C168.088 99.5677 168.415 99.7855 168.633 100.112C168.633 98.4783 167.435 96.2996 166.019 95.9728Z" fill="#004D92"/>
<path d="M167.326 99.3498C167.435 99.3498 167.653 99.3498 167.762 99.3498C167.326 99.2409 166.781 99.1319 166.345 99.1319C165.365 99.2409 164.929 100.221 165.256 101.093C165.583 99.5677 165.91 99.3498 167.326 99.3498Z" fill="#004D92"/>
<path d="M190.203 114.928C190.203 115.037 190.203 115.146 190.311 115.146C190.965 114.928 191.51 114.819 192.163 114.601C192.163 114.492 192.163 114.383 192.054 114.274C191.401 114.601 190.856 114.71 190.203 114.928Z" fill="#004D92"/>
<path d="M211.009 118.087C210.791 117.869 210.574 117.433 210.574 117.106C210.574 116.235 209.92 115.472 209.048 115.254C208.286 115.037 207.523 114.928 206.87 114.819C205.236 114.601 203.493 114.383 201.75 114.056C200.878 113.947 200.116 113.62 199.135 113.294C199.789 112.531 200.443 111.986 200.987 111.442C203.493 108.827 204.582 105.668 203.493 102.073C202.948 99.8945 202.621 97.6068 202.948 95.4281C203.057 95.1013 203.166 94.6655 203.493 94.4476C203.82 94.1208 203.928 93.794 203.711 93.3583C203.602 93.0315 203.493 92.5957 203.493 92.16C203.602 90.417 203.602 88.674 203.166 87.04C203.057 86.7132 203.166 86.2774 203.275 85.9506C203.711 84.9702 204.146 84.0987 204.473 83.1183C205.563 79.6323 204.364 76.9089 201.75 74.5123C201.423 74.1855 201.096 74.0766 200.66 74.2945C200.225 74.5123 200.007 74.4034 199.789 73.9676C198.808 72.5515 197.61 71.4621 195.976 70.9174C195.649 70.8085 195.649 70.8085 195.54 70.8085H195.431C194.56 71.68 194.56 71.8979 195.54 72.7694C195.758 72.9872 195.976 73.2051 196.085 73.5319C196.303 74.4034 196.085 75.1659 195.649 75.9285C195.54 76.0374 195.323 76.1464 195.214 76.0374C194.669 75.6017 194.124 75.3838 193.797 74.6213C193.58 73.8587 193.144 73.0962 192.708 72.4425C192.599 72.2247 192.054 72.0068 191.728 72.1157C191.51 72.2247 191.183 72.5515 191.074 72.8783C190.856 73.6408 190.965 73.6408 190.203 73.314C187.37 72.4425 184.538 72.0068 181.706 72.4425C181.052 72.5515 180.398 72.5515 179.636 72.6604C179.854 72.1157 180.071 71.68 180.18 71.2442C180.616 70.0459 179.745 68.8476 178.546 68.7387C177.457 68.7387 176.477 69.0655 175.823 69.937C174.951 71.0264 174.298 72.2247 173.644 73.423C173.426 73.8587 173.317 73.9676 172.773 73.7498C171.901 73.314 170.921 72.9872 169.94 72.7694C168.633 72.4425 167.326 72.3336 166.019 72.8783C164.494 73.6408 164.058 75.1659 165.038 76.4732C165.038 76.5821 165.038 76.5821 165.147 76.8C164.603 77.0179 164.058 77.3447 163.513 77.5625C162.642 77.9983 162.097 78.6519 161.77 79.6323C161.552 80.3949 161.988 81.2664 162.751 81.5932C163.513 81.8111 164.385 82.0289 165.147 82.2468V82.3557C165.038 82.6825 164.82 83.0093 164.711 83.3362C163.84 85.297 163.295 87.2579 163.186 89.4366C163.186 90.1991 162.968 90.8528 162.206 91.3974C159.156 93.6851 158.829 97.9336 159.483 100.657C159.918 102.4 160.572 104.034 161.77 105.341C161.879 105.45 161.879 105.668 161.879 105.777C161.879 105.777 161.661 105.886 161.552 105.886C160.354 105.668 159.265 105.559 158.175 104.797C157.304 104.252 156.432 104.034 155.561 104.579C155.343 104.688 154.907 104.797 154.58 104.688C152.62 104.47 150.659 104.361 148.589 104.688H148.48V106.104C149.896 105.886 151.421 105.777 152.837 105.995C153.491 106.104 154.145 106.213 155.016 106.322C152.946 109.59 151.966 112.858 152.075 116.671C150.877 116.126 149.787 115.472 148.589 115.363V115.472C149.351 115.799 150.005 116.017 150.659 116.344C151.203 116.562 151.421 116.889 151.421 117.433C151.421 118.523 151.421 119.721 151.421 120.81C151.421 123.316 152.62 125.277 154.907 126.366C156.323 127.128 157.74 127.673 159.156 128.327C159.809 128.654 160.027 128.871 159.918 129.307C159.809 129.743 159.156 129.961 158.611 129.852C158.175 129.743 157.848 129.525 157.413 129.307L157.304 129.416C158.175 129.961 159.156 130.506 160.136 131.05C159.483 131.922 158.72 132.575 157.74 133.011C155.452 134.1 152.728 133.011 151.421 130.832C150.659 129.634 150.114 128.327 149.787 127.02C149.569 126.366 149.243 125.712 148.698 125.277V127.891C148.698 127.564 148.698 127.346 148.698 127.455C148.916 128.871 149.569 130.179 150.332 131.377C150.55 131.813 150.659 132.031 150.441 132.466C150.332 132.684 150.223 132.902 150.114 133.12C149.46 134.427 149.243 135.843 149.896 137.26C150.114 137.913 150.332 138.458 150.55 139.111H148.698V171.139C149.787 173.644 151.203 176.041 153.927 176.912C155.561 177.457 157.304 177.348 158.938 176.912C160.899 176.259 162.968 175.932 164.276 173.535C165.256 171.792 165.147 169.723 164.385 167.98C163.186 165.583 161.77 163.404 160.136 161.334C160.027 161.226 159.918 161.008 159.809 160.79C160.136 160.681 160.354 160.572 160.572 160.572C164.167 159.809 167.435 158.284 170.703 156.541C171.03 156.323 171.466 156.214 171.901 156.214C173.1 156.106 174.298 155.888 175.496 155.343C178.328 153.818 180.725 149.243 178.111 145.212C177.784 144.776 177.675 144.231 177.457 143.796C177.13 142.815 176.803 141.726 176.368 140.746C176.15 140.201 176.15 139.983 176.694 139.765C180.071 137.913 182.795 135.408 185.083 132.357C186.063 131.159 186.826 129.852 187.697 128.654C187.915 128.327 188.133 128.218 188.351 128.654C188.46 128.98 188.677 129.307 188.895 129.525C189.44 129.961 189.44 130.506 189.44 131.159C189.331 132.575 189.876 133.447 191.292 133.991C191.946 134.209 192.599 134.427 193.253 134.427C194.451 134.536 195.431 134.863 196.521 135.517C197.283 136.061 198.155 136.279 199.026 136.606C199.789 136.933 200.551 136.933 201.205 136.497C201.75 136.17 202.294 136.17 202.948 136.17C203.82 136.17 204.8 136.279 205.671 136.061C207.632 135.843 210.683 133.883 210.683 131.159C210.683 130.941 210.683 130.723 210.9 130.614C211.554 130.07 212.099 129.416 212.752 128.98C213.733 128.327 214.495 127.346 214.495 126.148C214.713 123.207 213.515 120.266 211.009 118.087ZM161.117 95.4281C161.879 93.0315 163.84 91.7242 166.019 91.9421C168.306 92.16 170.158 93.794 170.485 96.1906C170.812 98.1515 170.594 100.112 170.049 101.964C169.831 102.727 169.94 102.836 170.594 102.836C171.574 102.945 172.446 102.618 172.882 101.528C173.317 100.33 173.753 99.023 174.08 97.7157C174.625 95.6459 175.169 93.4672 176.259 91.6153C176.477 91.2885 176.694 90.9617 177.021 90.6349C179.2 88.8919 181.814 88.0204 184.538 87.6936C186.063 87.4757 187.588 87.3668 189.004 87.4757C190.965 87.5847 193.035 87.8025 194.996 88.1293C197.174 88.4562 199.244 88.4562 201.096 86.9311C201.423 86.6042 201.75 86.6042 201.859 87.1489C202.403 88.783 202.294 90.5259 202.186 92.16C202.186 92.5957 201.859 92.4868 201.641 92.2689C200.769 91.5064 199.68 91.0706 198.591 90.8528C197.828 90.6349 197.719 90.7438 197.61 91.5064C197.501 91.9421 197.501 92.2689 197.392 92.7047C197.283 93.1404 197.501 93.2493 197.937 93.3583C199.135 93.4672 200.225 93.5762 201.423 93.794C201.968 93.903 202.077 94.1208 201.859 94.8834C201.641 95.6459 201.75 96.4085 201.75 97.171C201.75 97.28 201.641 97.4979 201.641 97.6068C201.532 97.4979 201.314 97.4979 201.314 97.3889C200.443 95.9728 199.68 96.2996 198.917 97.0621C198.264 97.8247 197.719 98.6962 197.174 99.4587C196.957 99.7855 196.848 100.112 196.739 100.439C196.521 100.984 196.63 101.637 197.174 102.073C199.026 103.38 201.096 102.727 201.75 100.548C201.75 100.439 201.859 100.33 201.968 100.112C202.077 100.33 202.186 100.439 202.186 100.548C202.403 101.746 202.621 102.945 202.73 104.034C203.057 106.431 202.077 108.5 200.551 110.352C198.482 112.64 195.976 114.383 193.144 115.581C191.51 116.235 189.876 116.997 188.133 117.433C183.884 118.414 179.963 117.324 176.259 115.363C176.041 115.254 175.714 115.037 175.496 114.928C174.516 114.383 173.644 113.62 173.208 112.531C172.337 110.679 171.139 109.045 169.178 108.065C168.415 107.738 167.653 107.302 166.781 107.302C165.038 107.193 163.84 106.322 162.751 105.014C160.572 102.073 160.027 98.8051 161.117 95.4281ZM199.898 96.8442C200.551 96.7353 200.878 97.171 201.096 97.6068C201.532 98.3693 201.532 99.2408 201.423 100.003C201.314 100.003 201.205 100.003 201.096 100.112C201.205 98.914 200.987 97.7157 199.898 96.8442ZM200.443 98.4783C200.443 98.8051 200.225 99.1319 200.007 99.1319C199.789 99.1319 199.571 98.8051 199.571 98.4783C199.571 98.1515 199.789 97.8247 200.007 97.8247C200.334 97.8247 200.443 98.1515 200.443 98.4783ZM198.155 102.291C197.501 102.291 197.174 101.855 196.957 101.528C196.848 101.311 196.957 100.875 196.957 100.548C197.066 100.548 197.066 100.548 197.174 100.548C197.501 100.984 197.719 101.637 198.155 102.291ZM173.971 116.017C176.477 116.997 179.745 123.207 178.655 124.841C178.546 124.732 178.437 124.623 178.437 124.514C177.784 122.226 176.15 120.701 174.407 119.176C173.208 118.196 173.208 118.196 173.753 116.78C173.862 116.562 173.862 116.344 173.971 116.235C173.862 116.126 173.862 116.126 173.971 116.017ZM159.7 128.327C157.195 127.782 155.016 126.584 153.273 124.623C152.62 123.86 152.184 122.88 152.184 121.9C152.075 120.592 152.075 119.285 152.075 117.978C152.075 117.869 152.075 117.76 152.184 117.651C152.184 117.651 152.293 117.651 152.293 117.542C152.402 117.651 152.511 117.869 152.62 117.978C153.927 120.919 156.323 122.553 159.374 123.098C162.751 123.751 166.019 123.316 169.178 121.9C170.703 121.246 171.901 120.157 172.882 118.631C173.535 119.176 174.189 119.612 174.734 120.157C176.15 121.464 177.348 122.771 178.002 124.623C178.328 125.603 177.893 126.693 177.021 127.237C175.496 128.327 173.753 128.763 172.01 128.98C167.871 129.525 163.731 129.307 159.7 128.327ZM159.918 130.614C160.136 130.07 160.354 129.634 160.681 129.089C161.443 129.198 162.424 129.307 163.295 129.416C166.781 129.852 170.158 129.961 173.644 129.307C175.06 128.98 176.477 128.545 177.675 127.564C177.784 127.455 177.893 127.455 178.002 127.346C178.002 127.346 178.111 127.346 178.328 127.346C178.111 127.673 178.111 128.109 177.893 128.218C177.13 128.98 176.368 129.743 175.496 130.288C172.555 131.922 169.287 132.575 165.91 132.14C164.058 131.922 162.206 131.595 160.463 130.832C160.136 130.723 160.027 130.723 159.918 130.614ZM148.807 150.332H152.402V151.203H148.807V150.332ZM148.807 151.639H152.402V152.511H148.807V151.639ZM151.421 164.058C151.53 163.84 151.857 163.622 152.075 163.513C152.946 163.404 153.927 163.295 154.798 163.186C155.125 163.186 158.393 162.533 158.393 162.533C158.938 162.424 159.156 162.751 159.265 163.077C159.483 163.84 157.631 164.929 156.977 165.038C155.343 165.474 154.036 165.256 152.62 165.038C152.293 164.929 151.857 164.929 151.639 164.711C151.53 164.711 151.421 164.167 151.421 164.058ZM160.027 165.474C160.354 165.474 160.681 165.801 160.79 166.019C160.899 166.454 160.681 166.89 160.463 166.999C159.809 167.326 159.047 167.653 158.284 167.871C155.234 168.633 153.6 168.088 152.837 167.435C152.402 166.999 152.402 166.672 153.055 166.563C153.818 166.346 154.58 166.346 155.343 166.237C156.432 166.019 157.522 165.801 158.502 165.583C159.156 165.474 159.591 165.365 160.027 165.474ZM177.348 146.955C179.309 150.441 176.694 155.779 171.683 155.67C171.248 155.67 170.703 155.888 170.267 156.106C167.217 157.957 163.949 159.156 160.572 160.027C159.591 160.245 158.502 160.354 157.413 160.572C156.323 160.572 154.363 160.463 154.145 160.027C153.927 159.7 153.709 158.284 153.709 157.848L154.254 151.857C154.254 151.421 154.254 150.877 153.818 150.55L150.55 148.698C150.55 148.698 150.877 145.648 151.094 144.776C151.203 144.34 151.639 144.231 151.966 144.558C153.6 146.083 155.997 148.698 157.848 149.569C157.086 149.787 156.323 150.005 155.997 150.114C155.561 150.332 154.58 150.441 154.036 150.114C153.818 149.896 154.363 150.659 154.471 150.986C154.58 151.53 154.58 151.312 154.471 152.075C155.452 150.986 156.106 150.332 157.413 150.114C159.483 149.678 161.77 149.569 163.84 149.896C164.494 150.005 165.256 150.659 165.256 150.768C164.82 150.223 165.038 149.787 165.365 149.134C164.929 149.351 164.167 149.569 163.84 149.46C162.097 149.134 160.899 149.134 159.156 149.243C159.047 149.243 158.829 149.243 158.502 149.351C158.393 148.262 157.848 144.885 157.957 144.776C159.7 142.815 164.603 139.22 166.999 138.022C168.415 137.26 169.94 136.824 171.574 137.368C172.228 137.586 172.991 138.022 173.317 138.567C174.516 140.201 175.605 141.944 176.041 144.014C176.368 145.103 176.803 146.083 177.348 146.955ZM152.837 152.946L152.946 151.094C153.055 151.094 154.036 151.203 153.818 151.53C153.6 152.075 153.491 152.075 152.837 152.946ZM184.102 132.248C181.706 135.299 178.982 137.804 175.496 139.547C175.278 139.656 174.843 139.765 174.625 139.656C174.516 139.656 174.516 139.111 174.516 138.894C174.407 138.458 174.298 138.022 174.08 137.695C173.208 136.497 171.901 135.843 170.594 135.299C167.435 133.883 164.167 133.12 160.899 132.575C160.681 132.575 160.463 132.466 160.245 132.466L160.136 132.357C160.463 131.486 160.79 131.377 161.552 131.595C165.147 132.793 168.851 133.011 172.555 131.922C174.298 131.377 175.932 130.614 177.348 129.307C179.309 127.564 179.636 125.386 179.2 122.989C178.655 119.83 176.803 117.542 174.407 115.581C174.08 115.254 173.862 114.928 173.971 114.383C174.189 114.492 174.407 114.492 174.516 114.601C176.368 115.69 178.22 116.78 180.398 117.324C183.666 118.196 186.934 118.196 190.203 117.106C190.638 116.997 190.965 117.215 190.856 117.651C189.985 123.207 187.479 127.891 184.102 132.248ZM199.462 136.279C199.026 136.061 198.264 135.952 197.61 135.517C196.085 134.427 194.451 133.991 192.599 133.774C191.401 133.665 190.747 133.12 190.529 132.248C190.42 132.031 190.42 131.704 190.42 131.486C190.529 130.832 190.638 130.723 191.292 131.05C191.837 131.268 192.381 131.377 193.035 131.595C193.362 131.704 193.58 131.813 193.906 131.922C195.105 132.357 196.194 132.793 197.392 133.229C198.264 133.556 199.135 133.665 200.007 133.883C200.225 133.991 200.551 134.209 200.66 134.427C200.769 134.536 200.769 134.754 200.878 134.972C201.096 135.952 200.769 136.388 199.462 136.279ZM210.574 130.07C210.247 130.397 209.92 130.397 209.593 129.961C209.157 129.198 208.613 128.98 207.741 129.307C207.306 129.416 206.434 129.525 206.325 129.416C206.216 129.852 205.998 130.288 205.889 130.832C205.998 130.832 205.998 130.941 206.107 130.941C206.216 130.832 206.325 130.614 206.543 130.506C207.088 130.179 207.523 129.852 208.068 129.634C208.94 129.416 209.375 129.852 209.593 130.723C209.92 132.357 208.94 134.209 207.306 134.972C205.563 135.843 203.82 135.952 201.968 135.517C201.532 135.408 201.096 134.972 201.096 134.536C201.096 133.338 201.205 132.031 201.314 130.832C201.423 130.07 201.75 129.307 201.859 128.545C201.968 128 201.859 127.455 201.859 126.802C201.859 126.584 201.75 126.475 201.532 126.366C201.532 126.475 201.423 126.584 201.532 126.693C201.859 127.564 201.641 128.327 201.423 129.089C201.096 130.397 200.878 131.595 200.66 132.902C200.551 133.447 200.334 133.665 199.898 133.447C198.264 133.011 196.63 132.575 194.996 132.031C193.906 131.704 193.688 131.159 194.015 130.07C194.451 128.654 194.996 127.237 195.431 125.821C195.54 125.386 195.54 124.95 195.54 124.514C195.54 124.187 195.431 123.86 194.996 123.751C195.431 125.603 194.56 127.237 194.015 128.871C193.797 129.525 193.58 130.179 193.362 130.832C193.253 130.941 193.035 131.268 192.926 131.159C191.728 130.832 190.638 130.397 189.876 129.307C189.222 128.436 189.222 127.564 189.985 126.693C191.183 125.386 192.381 124.187 193.688 122.989C194.342 122.335 194.887 121.791 195.54 121.246C196.303 120.592 197.174 120.483 198.155 121.028C200.334 122.117 202.621 123.098 204.8 124.187C206.652 125.168 208.504 126.148 210.029 127.564C210.465 127.891 210.791 128.327 211.009 128.763C211.118 129.198 211.009 129.743 210.574 130.07ZM213.406 126.148C213.297 127.237 212.97 128.109 211.99 128.654C211.663 128.871 211.445 128.871 211.227 128.545C210.574 127.346 209.484 126.475 208.286 125.821C206.325 124.732 204.364 123.751 202.512 122.662C202.294 122.553 202.077 122.335 201.641 122.226C202.403 121.682 203.166 121.246 203.711 120.701C204.473 120.048 205.345 119.285 205.998 118.523C206.543 117.978 206.979 117.869 207.741 117.978C209.593 118.414 211.009 119.612 211.99 121.137C212.97 122.662 213.515 124.296 213.406 126.148Z" fill="#004D92"/>
<path d="M134.645 169.614L144.776 173.753V170.267L142.706 169.505V166.563L144.776 165.801V162.315L134.645 166.346V169.614ZM140.419 167.435V168.742L139.765 168.524C139.329 168.415 139.003 168.306 138.567 168.089C139.003 167.98 139.329 167.762 139.765 167.653L140.419 167.435Z" fill="#004D92"/>
<path d="M144.014 154.798C143.687 154.363 143.36 154.145 142.924 153.927C142.162 153.6 141.29 153.6 140.528 153.927C140.201 154.036 139.874 154.254 139.656 154.58C139.438 154.798 139.22 155.125 139.003 155.561C138.785 155.888 138.676 156.323 138.567 156.759L138.24 157.74C138.131 158.284 137.913 158.611 137.804 158.829C137.804 158.938 137.695 159.047 137.369 159.047C137.26 159.047 137.042 158.938 137.042 158.829C136.933 158.611 136.824 158.284 136.824 157.848C136.824 157.522 136.824 157.086 136.933 156.65C137.042 156.214 137.151 155.779 137.369 155.452L137.586 155.016L135.19 154.254L135.081 154.58C134.863 155.016 134.754 155.452 134.536 155.997C134.427 156.541 134.318 157.195 134.318 157.957C134.318 158.611 134.427 159.265 134.536 159.809C134.645 160.354 134.863 160.79 135.19 161.226C135.517 161.661 135.843 161.879 136.17 162.097C136.606 162.315 137.042 162.424 137.478 162.424C137.913 162.424 138.349 162.315 138.676 162.206C139.003 162.097 139.329 161.879 139.547 161.552C139.765 161.334 139.983 161.008 140.201 160.572C140.419 160.245 140.528 159.809 140.637 159.483L140.855 158.611C140.963 158.284 141.072 157.957 141.181 157.74C141.29 157.522 141.29 157.413 141.399 157.304C141.508 157.195 141.508 157.195 141.508 157.195C141.726 157.086 141.944 157.195 142.053 157.413C142.162 157.522 142.271 157.849 142.271 158.502C142.271 158.938 142.162 159.374 142.053 159.809C141.944 160.245 141.835 160.681 141.617 161.117L141.399 161.552L143.796 162.315L143.905 161.988C144.123 161.443 144.34 160.899 144.449 160.245C144.558 159.591 144.667 158.938 144.667 158.284C144.667 157.522 144.558 156.868 144.449 156.323C144.558 155.67 144.34 155.234 144.014 154.798Z" fill="#004D92"/>
<path d="M138.022 143.578L134.754 145.974V148.916H144.885V145.757H141.508C140.963 145.757 140.31 145.757 139.765 145.757C140.31 145.43 140.855 144.994 141.399 144.667L144.776 142.162V139.22H134.645V142.38H137.913C138.567 142.38 139.112 142.38 139.765 142.38H139.874L139.765 142.489C139.22 142.706 138.567 143.142 138.022 143.578Z" fill="#004D92"/>
<path d="M134.645 134.645L144.776 138.785V135.299L142.706 134.536V131.595L144.776 130.832V127.237L134.645 131.268V134.645ZM140.419 132.357V133.665L139.765 133.447C139.329 133.338 139.003 133.229 138.567 133.011C139.003 132.902 139.329 132.684 139.765 132.575L140.419 132.357Z" fill="#004D92"/>
<path d="M134.645 126.911H144.776V123.534H141.399V123.098L144.776 121.246V117.433L140.746 120.048C140.746 119.939 140.637 119.83 140.528 119.721C140.419 119.503 140.201 119.176 139.874 118.958C139.656 118.74 139.329 118.523 139.003 118.414C138.349 118.087 137.369 118.087 136.606 118.414C136.17 118.631 135.843 118.849 135.517 119.176C135.19 119.503 134.972 119.939 134.754 120.483C134.536 121.028 134.536 121.573 134.536 122.226V126.911H134.645ZM137.151 123.534V122.88C137.151 122.444 137.26 122.117 137.369 121.9C137.478 121.682 137.695 121.573 138.022 121.573C138.458 121.573 138.676 121.791 138.785 121.9C139.003 122.226 139.003 122.553 139.003 123.098V123.425H137.151V123.534Z" fill="#004D92"/>
<path d="M144.776 111.551V107.738L140.746 110.352C140.746 110.243 140.637 110.134 140.528 110.026C140.419 109.808 140.201 109.481 139.874 109.263C139.656 109.045 139.329 108.827 139.003 108.718C138.349 108.391 137.369 108.391 136.606 108.718C136.17 108.936 135.843 109.154 135.517 109.481C135.19 109.808 134.972 110.243 134.754 110.788C134.536 111.333 134.536 111.877 134.536 112.531V117.106H144.667V113.729H141.29V113.294L144.776 111.551ZM137.151 113.838V113.185C137.151 112.749 137.26 112.422 137.369 112.204C137.478 111.986 137.695 111.877 138.022 111.877C138.458 111.877 138.676 112.095 138.785 112.204C139.003 112.531 139.003 112.858 139.003 113.403V113.729H137.151V113.838Z" fill="#004D92"/>
<path d="M143.578 98.1515C143.142 97.6068 142.598 97.28 141.944 96.9532C141.29 96.6264 140.637 96.5175 139.765 96.5175C139.003 96.5175 138.24 96.6264 137.586 96.9532C136.933 97.28 136.388 97.6068 135.952 98.1515C135.517 98.6962 135.19 99.2409 134.863 100.003C134.645 100.657 134.536 101.42 134.536 102.291C134.536 103.054 134.645 103.816 134.863 104.579C135.081 105.232 135.517 105.886 135.952 106.431C136.388 106.975 136.933 107.302 137.586 107.629C138.24 107.956 139.003 108.065 139.765 108.065C140.528 108.065 141.29 107.956 141.944 107.629C142.598 107.302 143.142 106.975 143.578 106.431C144.014 105.886 144.341 105.341 144.558 104.579C144.776 103.925 144.885 103.163 144.885 102.291C144.885 101.529 144.776 100.766 144.558 100.003C144.341 99.3498 144.014 98.6962 143.578 98.1515ZM142.598 102.182C142.598 102.509 142.489 102.727 142.489 103.054C142.38 103.271 142.271 103.598 142.053 103.707C141.835 103.925 141.508 104.034 141.181 104.252C140.419 104.47 139.329 104.47 138.567 104.252C138.24 104.143 137.913 103.925 137.695 103.816C137.478 103.598 137.26 103.38 137.151 103.163C137.042 102.945 136.933 102.618 136.933 102.291C136.933 101.964 137.042 101.746 137.042 101.42C137.151 101.202 137.26 100.875 137.478 100.766C137.695 100.548 138.022 100.439 138.349 100.221C138.676 100.112 139.112 100.003 139.656 100.003C140.092 100.003 140.528 100.112 140.963 100.221C141.29 100.33 141.617 100.548 141.835 100.657C142.053 100.875 142.162 101.093 142.271 101.311C142.489 101.637 142.598 101.855 142.598 102.182Z" fill="#004D92"/>
<path d="M144.014 88.5651C143.687 88.1294 143.36 87.9115 142.924 87.6936C142.162 87.3668 141.29 87.3668 140.528 87.6936C140.201 87.8026 139.874 88.0204 139.656 88.3472C139.438 88.5651 139.22 88.8919 139.003 89.3277C138.785 89.6545 138.676 90.0902 138.567 90.526L138.24 91.5064C138.131 92.0511 137.913 92.3779 137.804 92.5958C137.804 92.7047 137.695 92.8136 137.369 92.8136C137.26 92.8136 137.042 92.7047 137.042 92.5958C136.933 92.3779 136.824 92.0511 136.824 91.6153C136.824 91.2885 136.824 90.8528 136.933 90.417C137.042 89.9813 137.151 89.5455 137.369 89.2187L137.586 88.783L135.19 88.0204L135.081 88.3472C134.863 88.783 134.754 89.2187 134.536 89.7634C134.427 90.3081 134.318 90.9617 134.318 91.7243C134.318 92.3779 134.427 93.0315 134.536 93.5762C134.645 94.1209 134.863 94.5566 135.19 94.9923C135.517 95.4281 135.843 95.646 136.17 95.8638C136.606 96.0817 137.042 96.1906 137.478 96.1906C137.913 96.1906 138.349 96.0817 138.676 95.9728C139.003 95.8638 139.329 95.646 139.547 95.3192C139.765 95.1013 139.983 94.7745 140.201 94.3387C140.419 94.0119 140.528 93.5762 140.637 93.2494L140.855 92.3779C140.963 92.0511 141.072 91.7243 141.181 91.5064C141.29 91.2885 141.29 91.1796 141.399 91.0706C141.508 90.9617 141.508 90.9617 141.508 90.9617C141.726 90.8528 141.944 90.9617 142.053 91.1796C142.162 91.2885 142.271 91.6153 142.271 92.2689C142.271 92.7047 142.162 93.1404 142.053 93.5762C141.944 94.0119 141.835 94.4477 141.617 94.8834L141.399 95.3192L143.796 96.0817L143.905 95.7549C144.123 95.2102 144.34 94.6655 144.449 94.0119C144.558 93.3583 144.667 92.7047 144.667 92.0511C144.667 91.2885 144.558 90.6349 144.449 90.0902C144.558 89.4366 144.34 88.8919 144.014 88.5651Z" fill="#004D92"/>
<path d="M135.408 85.9506C135.735 86.3864 136.061 86.6043 136.388 86.8221C136.824 87.04 137.26 87.1489 137.695 87.1489C138.131 87.1489 138.567 87.04 138.894 86.9311C139.22 86.8221 139.547 86.6043 139.765 86.2774C139.983 86.0596 140.201 85.7328 140.419 85.297C140.637 84.9702 140.746 84.5345 140.855 84.2077L141.072 83.3362C141.181 83.0094 141.29 82.6825 141.399 82.4647C141.508 82.2468 141.508 82.1379 141.617 82.0289C141.726 81.92 141.726 81.92 141.726 81.92C141.944 81.8111 142.162 81.92 142.271 82.1379C142.38 82.2468 142.489 82.5736 142.489 83.2272C142.489 83.663 142.38 84.0987 142.271 84.5345C142.162 84.9702 142.053 85.406 141.835 85.8417L141.617 86.2774L144.014 87.04L144.123 86.7132C144.34 86.1685 144.558 85.6238 144.667 84.9702C144.776 84.3166 144.885 83.663 144.885 83.0094C144.885 82.2468 144.776 81.5932 144.667 81.0485C144.449 80.5038 144.232 79.9591 144.014 79.6323C143.687 79.1966 143.36 78.9787 142.924 78.7609C142.162 78.434 141.29 78.434 140.528 78.7609C140.201 78.8698 139.874 79.0877 139.656 79.4145C139.438 79.6323 139.22 79.9592 139.003 80.3949C138.785 80.7217 138.676 81.1574 138.567 81.5932L138.24 82.5736C138.131 83.1183 137.913 83.4451 137.804 83.663C137.804 83.7719 137.695 83.8808 137.369 83.8808C137.26 83.8808 137.042 83.7719 137.042 83.663C136.933 83.4451 136.824 83.1183 136.824 82.6826C136.824 82.3557 136.824 81.92 136.933 81.4843C137.042 81.0485 137.151 80.6128 137.369 80.286L137.586 79.8502L135.19 79.0877L135.081 79.4145C134.863 79.8502 134.754 80.286 134.536 80.8306C134.427 81.3753 134.318 82.0289 134.318 82.7915C134.318 83.4451 134.427 84.0987 134.536 84.6434C134.863 85.1881 135.081 85.6238 135.408 85.9506Z" fill="#004D92"/>
<path d="M144.776 69.7191H142.38V74.2945H140.746V70.2638H138.349V74.2945H137.151V69.8281H134.645V77.6715H144.776V69.7191Z" fill="#004D92"/>
<path d="M95.8639 168.415C96.7354 168.197 97.6069 167.98 98.4784 167.762C98.9141 167.653 99.3498 167.544 99.7856 167.435C100.984 167.217 101.855 167.762 102.182 168.742C102.4 169.396 102.182 169.94 101.855 170.485C101.964 170.485 102.073 170.594 102.073 170.594C102.945 170.812 103.38 171.248 103.598 172.119C103.707 172.991 103.38 173.753 102.727 174.298C102.4 174.516 101.964 174.734 101.529 174.843C100.33 175.169 99.132 175.496 97.9337 175.823C97.1711 173.426 96.5175 170.921 95.8639 168.415ZM99.4588 173.644C100.003 173.535 100.439 173.426 100.875 173.208C101.311 173.1 101.42 172.773 101.311 172.446C101.202 172.119 100.875 171.901 100.439 172.01C100.003 172.119 99.4588 172.228 99.023 172.337C99.2409 172.773 99.3499 173.208 99.4588 173.644ZM98.6962 170.703C99.132 170.594 99.4588 170.485 99.8945 170.376C100.221 170.267 100.33 170.049 100.221 169.723C100.112 169.396 99.8945 169.287 99.5677 169.396C99.132 169.505 98.8052 169.614 98.3694 169.723C98.4784 169.94 98.5873 170.267 98.6962 170.703Z" fill="#E30613"/>
<path d="M62.2026 169.831C63.4009 167.544 64.4903 165.365 65.6886 162.969C66.2333 163.186 66.669 163.513 67.2137 163.731C67.9763 164.167 68.7388 164.494 69.5014 165.038C70.3728 165.692 70.6997 166.563 70.4818 167.544C70.155 168.633 69.5014 169.287 68.412 169.505C68.3031 169.505 68.3031 169.505 68.3031 169.505C68.3031 169.505 68.3031 169.505 68.1941 169.505C68.3031 170.594 68.412 171.683 68.5209 172.882C67.7584 172.555 67.1048 172.119 66.4511 171.792C66.3422 171.792 66.3422 171.574 66.3422 171.466C66.3422 170.812 66.2333 170.158 66.2333 169.505C66.2333 168.851 66.0154 168.524 65.3618 168.415C65.035 169.069 64.5992 169.831 64.2724 170.594C63.4009 170.485 62.7473 170.158 62.2026 169.831ZM66.0154 166.999C66.4511 167.217 66.8869 167.435 67.3226 167.544C67.7584 167.653 68.0852 167.544 68.1941 167.108C68.412 166.781 68.3031 166.346 67.9763 166.128C67.5405 165.91 67.1048 165.692 66.669 165.365C66.4511 166.019 66.2333 166.454 66.0154 166.999Z" fill="#E30613"/>
<path d="M91.7243 169.831C91.2886 170.267 90.8528 170.703 90.4171 171.139C89.8724 170.812 89.3277 170.703 88.783 170.703C88.0205 170.812 87.4758 171.139 87.2579 171.792C86.9311 172.555 86.9311 173.317 87.3669 174.08C87.6937 174.734 88.3473 175.06 89.1098 175.06C89.7634 175.06 90.3081 174.843 90.6349 174.189C90.6349 174.08 90.6349 174.08 90.7439 173.862C90.1992 173.862 89.7635 173.862 89.2188 173.862C89.2188 173.317 89.2188 172.773 89.2188 172.119C90.4171 172.119 91.7243 172.119 92.9226 172.01C93.3583 174.298 92.0511 176.803 89.0009 176.803C87.8026 176.803 86.7132 176.477 85.8417 175.605C84.3166 173.971 84.3166 169.94 87.8026 169.069C89.0009 168.742 90.1992 168.851 91.2886 169.396C91.2886 169.614 91.5064 169.723 91.7243 169.831Z" fill="#E30613"/>
<path d="M74.6213 167.108C75.3839 167.326 76.0375 167.435 76.6911 167.653C76.3643 169.178 76.0375 170.594 75.7107 172.01C75.4928 172.991 75.9286 173.644 76.8001 173.862C77.6716 174.08 78.3252 173.644 78.543 172.773C78.8699 171.466 79.1967 170.158 79.5235 168.742C79.5235 168.633 79.6324 168.524 79.6324 168.306C80.286 168.415 80.9396 168.633 81.7022 168.742C81.7022 168.96 81.5933 169.069 81.5933 169.178C81.2665 170.485 80.9396 171.792 80.6128 173.1C80.286 174.625 79.0877 175.605 77.4537 175.605C75.9286 175.605 74.7303 175.06 73.8588 173.753C73.532 173.208 73.532 172.555 73.532 171.901C73.532 171.792 73.6409 171.574 73.6409 171.466C73.8588 170.049 74.1856 168.633 74.6213 167.108Z" fill="#E30613"/>
<path d="M108.936 167.108C108.827 166.019 108.827 165.038 108.718 164.058C108.718 163.622 108.609 163.622 109.045 163.404C109.59 163.186 110.026 162.86 110.679 162.642C110.679 163.622 110.679 164.494 110.679 165.474C110.679 166.346 110.679 167.217 110.679 168.089C110.679 168.306 110.788 168.524 110.788 168.742C111.115 169.396 111.442 170.049 111.769 170.703C111.115 171.03 110.57 171.357 109.917 171.683C109.59 171.03 109.263 170.485 108.936 169.831C108.827 169.614 108.609 169.287 108.392 169.178C106.975 168.197 105.559 167.217 104.252 166.237C104.252 166.237 104.143 166.237 104.143 166.128C104.797 165.801 105.341 165.474 105.995 165.147C106.104 165.147 106.322 165.256 106.431 165.256C107.193 165.801 107.847 166.346 108.609 166.89C108.718 166.89 108.827 166.999 108.936 167.108Z" fill="#E30613"/>
<path d="M76.1464 100.657C76.3642 100.221 76.4732 99.7855 76.691 99.3498C79.4144 92.8136 82.1378 86.2774 84.9702 79.7412C85.0791 79.4144 85.297 79.3055 85.6238 79.3055C86.931 79.3055 88.2383 79.3055 89.5455 79.3055C89.7634 79.3055 89.8723 79.4144 89.9813 79.6323C92.7047 86.1685 95.4281 92.7047 98.1515 99.2408C98.2604 99.3498 98.2604 99.5676 98.3693 99.7855C98.4783 99.6766 98.5872 99.5676 98.6961 99.4587C100.875 96.2996 103.054 93.1404 105.232 89.9813C105.45 89.7634 105.45 89.5455 105.232 89.2187C103.054 86.0596 100.875 82.9004 98.6961 79.7412C98.5872 79.6323 98.4783 79.4144 98.3693 79.3055C98.5872 79.3055 102.073 79.3055 103.816 79.3055C104.034 79.3055 104.252 79.4144 104.361 79.6323C105.559 81.4842 106.757 83.3361 108.065 85.1881C108.174 85.297 108.174 85.4059 108.391 85.6238C108.718 85.0791 109.045 84.6434 109.372 84.0987C110.352 82.5736 111.333 81.1574 112.204 79.6323C112.313 79.4144 112.531 79.3055 112.749 79.3055C114.492 79.3055 116.344 79.3055 118.196 79.3055C118.087 79.4144 118.087 79.5234 117.978 79.6323C115.799 82.7915 113.62 85.9506 111.333 89.1098C111.115 89.4366 111.115 89.5455 111.333 89.8723C113.729 93.3583 116.126 96.7353 118.523 100.221C118.631 100.33 118.631 100.439 118.74 100.548C118.305 100.548 117.869 100.548 117.433 100.548C116.017 100.548 114.71 100.548 113.294 100.548C113.076 100.548 112.967 100.439 112.749 100.221C111.333 98.0425 109.917 95.9727 108.5 93.794C108.391 93.6851 108.283 93.5761 108.174 93.3583C107.629 94.1208 107.193 94.8834 106.648 95.6459C105.668 97.171 104.688 98.6961 103.707 100.112C103.598 100.33 103.38 100.439 103.163 100.439C100.003 100.439 96.7353 100.439 93.5761 100.439C93.2493 100.439 93.1404 100.33 93.0315 100.112C92.7047 99.1319 92.2689 98.2604 91.9421 97.28C91.8332 97.0621 91.7242 96.9532 91.5064 96.9532C88.674 96.9532 85.9506 96.9532 83.1183 96.9532C82.7915 96.9532 82.6825 97.0621 82.6825 97.28C82.3557 98.2604 81.92 99.2408 81.4842 100.221C81.3753 100.439 81.3753 100.548 81.1574 100.548C79.5234 100.548 77.7804 100.548 76.1464 100.548C76.2553 100.766 76.2553 100.766 76.1464 100.657ZM90.417 93.0315C89.4366 90.5259 88.5651 88.1293 87.5847 85.8417C87.5847 85.8417 85.6238 90.6349 84.6434 93.0315C86.6042 93.0315 88.4561 93.0315 90.417 93.0315Z" fill="#E30613"/>
<path d="M55.6664 79.4145C55.7753 79.4145 55.9932 79.4145 56.1021 79.4145C59.0434 79.4145 61.9847 79.4145 64.926 79.4145C67.9762 79.4145 70.5906 80.3949 72.6604 82.6825C74.1855 84.3166 74.8391 86.2774 75.166 88.4562C75.3838 90.6349 75.2749 92.8136 74.2945 94.8834C72.8783 98.0425 70.3728 99.8945 66.9957 100.548C66.0153 100.766 65.1438 100.766 64.1634 100.766C61.5489 100.766 58.8255 100.766 56.1021 100.766C55.9932 100.766 55.7753 100.766 55.6664 100.766C55.6664 93.5762 55.6664 86.6042 55.6664 79.4145ZM60.7864 83.554C60.7864 87.9115 60.7864 92.16 60.7864 96.5174C60.8953 96.5174 61.1132 96.5174 61.2221 96.5174C62.4204 96.5174 63.6187 96.5174 64.7081 96.5174C66.7779 96.5174 68.303 95.537 69.1745 93.794C70.3728 91.3974 70.3728 88.8919 69.2834 86.4953C68.6298 84.9702 67.4315 83.9898 65.7974 83.663C65.5796 83.663 65.4706 83.554 65.2528 83.554C63.8366 83.554 62.3115 83.554 60.7864 83.554Z" fill="#E30613"/>
<path d="M55.6664 66.6689C56.2111 66.6689 56.8647 66.6689 57.4094 66.6689C57.4094 66.7779 57.4094 69.8281 57.4094 71.2442C57.4094 72.5515 58.4987 73.314 59.697 72.8783C60.3506 72.6604 60.7864 72.1157 60.7864 71.2442C60.7864 69.937 60.7864 68.5208 60.7864 67.2136C60.7864 67.1047 60.7864 66.8868 60.7864 66.7778C61.44 66.7778 61.9847 66.7778 62.6383 66.7778C62.6383 66.8868 62.6383 70.0459 62.6383 71.68C62.5294 73.314 61.44 74.4034 59.806 74.5123C58.9345 74.6213 58.063 74.5123 57.3004 74.1855C56.32 73.6408 55.7753 72.8783 55.6664 71.7889C55.6664 70.0459 55.6664 66.7779 55.6664 66.6689Z" fill="#E30613"/>
<path d="M66.778 73.5319C66.9958 73.2051 67.2137 72.7693 67.4316 72.4425C67.9763 72.6604 68.412 72.8783 68.9567 72.9872C69.3924 73.0962 69.8282 72.9872 70.2639 72.9872C70.4818 72.9872 70.6997 72.6604 70.8086 72.4425C70.9175 72.1157 70.6997 71.8979 70.4818 71.7889C70.046 71.571 69.5014 71.4621 69.0656 71.3532C68.7388 71.2442 68.3031 71.1353 67.9763 70.9174C66.5601 70.2638 66.3422 68.4119 67.5405 67.4315C68.412 66.6689 69.3924 66.6689 70.4818 66.7779C71.1354 66.8868 71.789 67.1047 72.3337 67.5404C72.1158 67.9762 71.789 68.303 71.5712 68.7387C70.9175 68.303 70.2639 68.0851 69.6103 68.0851C69.0656 68.0851 68.6299 68.303 68.6299 68.6298C68.6299 68.9566 68.8477 69.1744 69.3924 69.3923C70.046 69.6102 70.6997 69.7191 71.3533 70.0459C72.8784 70.6996 73.2052 72.3336 72.2248 73.423C71.898 73.7498 71.4622 74.0766 71.0265 74.1855C69.7192 74.6213 68.412 74.4034 67.2137 73.6408C67.1048 73.6408 66.8869 73.5319 66.778 73.5319Z" fill="#E30613"/>
<path d="M74.6213 74.4034C73.9677 74.4034 73.532 73.8587 73.532 73.314C73.532 72.6604 74.0767 72.2247 74.6213 72.2247C75.275 72.2247 75.7107 72.7694 75.7107 73.314C75.7107 73.9676 75.275 74.4034 74.6213 74.4034Z" fill="#E30613"/>
<path d="M65.7975 73.314C65.7975 73.9676 65.3618 74.4034 64.7081 74.4034C64.0545 74.4034 63.6188 73.9676 63.6188 73.314C63.6188 72.6604 64.0545 72.2247 64.7081 72.2247C65.2528 72.2247 65.7975 72.7694 65.7975 73.314Z" fill="#E30613"/>
<path d="M118.523 70.3727H81.2664V73.423H118.523V70.3727Z" fill="#E30613"/>
<path d="M123.316 109.045V105.995H50.7643C50.7643 107.084 50.7643 107.738 50.7643 108.827V109.045H55.4485C55.5575 109.045 55.5575 109.045 55.5575 109.154C55.5575 110.57 55.5575 125.059 55.5575 132.357C55.5575 134.427 55.7753 136.606 56.2111 138.676C58.4988 148.589 64.1634 155.779 73.0962 160.463C78.543 163.295 84.4256 164.167 90.4171 163.513C94.2298 163.077 97.8247 161.988 101.311 160.245C111.551 154.907 118.414 144.449 118.414 132.248C118.414 125.059 118.414 110.788 118.414 109.263C118.414 109.154 118.523 109.154 118.523 109.154H123.316V109.045ZM66.4511 127.891C66.3422 127.891 66.3422 127.891 66.3422 128V131.05H68.1941V153.164C67.9762 153.055 67.8673 152.837 67.7583 152.728C63.2919 148.48 60.4596 143.251 59.3702 137.042C59.0434 135.517 58.9345 133.883 58.9345 132.248C58.9345 127.455 58.9345 122.662 58.9345 117.76C63.7277 117.651 68.6298 122.226 68.303 127.782L66.4511 127.891ZM99.2409 157.74C96.1907 159.265 92.9226 160.136 89.5456 160.463C85.406 160.79 81.4843 160.354 77.5626 158.938C77.2358 158.829 77.2358 158.72 77.2358 158.175C77.2358 157.195 77.2358 154.907 77.2358 154.58C77.6715 154.798 78.1073 155.016 78.543 155.234C79.4145 155.779 80.286 156.432 81.1575 156.868C84.4256 158.502 87.6936 158.284 90.8528 156.323C91.3975 155.997 91.9422 155.561 92.4868 155.234C94.7745 153.927 96.9532 153.818 99.2409 155.125C100.003 155.561 100.657 155.997 101.42 156.541C100.657 156.977 100.003 157.413 99.2409 157.74ZM77.3447 127.891C77.2358 122.88 80.8307 118.631 85.6239 117.869C90.9617 116.997 95.9728 120.701 96.8443 126.039C96.9532 126.475 96.9532 127.02 96.9532 127.564C96.9532 127.891 96.8443 128 96.6264 128C96.0817 128 95.646 128 95.1013 128V129.525V131.05H96.9532V136.061C96.4085 136.061 95.8639 136.061 95.3192 136.061C93.3583 136.061 91.7243 136.824 90.0902 137.913C89.2188 138.567 88.3473 139.22 87.2579 139.438C85.406 139.874 83.5541 139.656 81.92 138.567C81.2664 138.131 80.7217 137.695 80.0681 137.368C79.0877 136.824 78.4341 136.497 77.5626 136.279C77.1268 136.17 77.2358 136.061 77.2358 135.843C77.2358 134.427 77.2358 133.011 77.2358 131.486C77.2358 131.159 77.3447 131.05 77.6715 131.05C78.2162 131.05 78.6519 131.05 79.1966 131.05C79.3056 131.05 79.3056 131.05 79.3056 130.941C79.3056 130.397 79.3056 127.891 79.3056 127.891C78.6519 127.891 77.9983 127.891 77.3447 127.891ZM104.688 154.363C104.47 154.471 104.361 154.58 104.143 154.471C103.489 154.036 102.727 153.709 102.073 153.273C100.875 152.402 99.5677 151.639 98.0426 151.421C95.3192 150.877 92.8136 151.312 90.526 152.946C89.8724 153.382 89.2188 153.927 88.5651 154.254C86.4953 155.234 84.4256 155.234 82.4647 154.036C81.8111 153.709 81.1575 153.164 80.5039 152.728C79.6324 152.184 78.4341 151.639 77.4536 151.421C77.3447 151.421 77.3447 151.312 77.3447 151.203C77.3447 149.787 77.3447 146.955 77.3447 146.846C77.7805 147.064 78.3251 147.282 78.6519 147.5C79.1966 147.826 79.7413 148.262 80.3949 148.698C83.8809 150.877 87.4758 150.877 90.9617 148.698C91.3975 148.371 91.9422 148.044 92.3779 147.717C94.5566 146.301 97.389 146.301 99.5677 147.717C100.439 148.262 101.311 148.916 102.291 149.351C104.361 150.441 109.045 149.896 109.263 149.787C109.154 149.787 106.322 153.055 104.688 154.363ZM113.729 141.508C113.403 142.38 113.076 143.142 112.749 144.014L112.64 144.123C111.769 144.667 110.897 145.212 110.134 145.757C108.065 147.173 105.995 147.391 103.707 146.41C103.054 146.083 102.4 145.648 101.855 145.212C100.548 144.231 99.1319 143.578 97.4979 143.36C95.2102 143.033 93.0315 143.36 91.0707 144.667C90.417 145.103 89.7634 145.648 89.0009 146.083C86.8222 147.282 84.6434 147.282 82.4647 146.083C81.92 145.757 81.3753 145.321 80.7217 144.994C79.7413 144.34 78.7609 143.905 77.6715 143.687C77.3447 143.578 77.3447 143.687 77.3447 143.36V139.547C77.6715 139.765 78.1073 139.874 78.4341 140.092C78.9788 140.419 79.5234 140.746 80.0681 141.181C83.3362 143.578 88.2383 143.578 91.5064 141.072C92.3779 140.419 93.2494 139.765 94.2298 139.547C96.0817 139.111 97.9337 139.22 99.5677 140.419C100.33 140.963 101.093 141.508 101.964 141.944C105.341 143.578 108.718 143.36 111.877 141.29C112.531 140.854 114.383 139.765 114.492 139.765C114.274 140.092 113.947 140.854 113.729 141.508ZM115.363 132.793C115.363 133.883 115.255 134.972 115.146 136.061C113.403 136.279 111.877 137.151 110.461 138.24C109.372 139.003 108.283 139.547 106.975 139.656C106.866 139.656 106.54 139.656 106.54 139.656C106.213 139.656 106.213 139.547 106.322 139.22C106.322 136.824 106.322 134.427 106.322 132.031C106.322 131.813 106.322 131.595 106.322 131.377C106.322 131.159 106.431 131.05 106.649 131.05C107.193 131.05 107.629 131.05 108.174 131.05V127.891H106.322C106.322 125.386 107.084 123.098 108.718 121.246C110.461 119.176 112.749 118.087 115.581 117.869V118.414C115.363 123.207 115.363 128 115.363 132.793ZM115.363 114.274C115.363 114.819 115.472 114.71 114.928 114.71C109.045 115.254 104.252 119.612 103.163 125.386C103.054 126.257 102.945 127.02 102.945 127.891C102.945 131.268 102.945 134.754 102.945 138.131C102.945 138.349 102.945 138.458 102.945 138.676C102.727 138.567 102.509 138.458 102.4 138.349C101.746 137.913 100.984 137.477 100.33 136.933C100.221 136.824 100.112 136.606 100.112 136.497C100.112 133.447 100.112 130.397 100.112 127.237C100.112 121.9 96.8443 117.106 91.8332 115.363C83.8809 112.64 76.0375 117.106 74.4034 124.95C74.1856 125.821 74.1856 126.584 74.1856 127.455C74.1856 137.151 74.1856 146.955 74.1856 156.65C74.1856 156.868 74.1856 156.977 74.1856 157.304C73.8587 157.086 73.5319 156.977 73.3141 156.868C72.7694 156.541 72.2247 156.214 71.68 155.888C71.4622 155.779 71.3532 155.561 71.3532 155.234C71.3532 148.916 71.3532 142.597 71.3532 136.388C71.3532 133.229 71.4622 130.179 71.3532 127.02C71.1353 120.81 66.56 115.69 60.4596 114.71C60.0239 114.601 58.8256 114.601 58.8256 114.601C58.8256 114.056 58.8256 110.897 58.8256 109.154C58.8256 109.045 58.8256 109.045 58.9345 109.045C61.6579 109.045 112.204 109.045 115.255 109.045C115.363 109.045 115.363 109.154 115.363 109.154C115.363 109.917 115.363 112.858 115.363 114.274Z" fill="#E30613"/>
<path d="M115.799 201.423L109.045 196.63L102.291 201.314L104.797 193.471L98.2605 188.46H106.54L109.263 180.616L111.769 188.46L120.048 188.677L113.403 193.58L115.799 201.423Z" fill="#B08935"/>
<path d="M154.798 201.423L148.153 196.63L141.399 201.314L143.905 193.471L137.369 188.46H145.539L148.262 180.616L150.877 188.46L159.047 188.677L152.402 193.58L154.798 201.423Z" fill="#B08935"/>
</svg>
