<svg width="256" height="256" viewBox="0 0 256 256" fill="none" xmlns="http://www.w3.org/2000/svg">
<path d="M243.633 64.4408C243.633 50.3354 242.646 36.4631 240.741 22.8843C206.035 8.61485 168.019 0.742065 128.168 0.742065C88.3173 0.742065 50.043 8.66952 15.2385 23.0339C13.3453 36.5638 12.3671 50.3901 12.3671 64.4408C12.3671 160.085 58.542 255.502 128.001 255.502C197.461 255.502 243.636 160.082 243.636 64.4408H243.633Z" fill="#136553"/>
<path d="M128.157 44.3992C161.068 44.3992 194.069 47.199 222.374 53.7165C222.195 47.0983 221.882 40.5232 221.341 33.9367C194.23 25.5172 161.134 21.9692 128.139 21.9692C95.1447 21.9692 63.4705 25.2755 34.6417 34.069C34.1037 40.6498 33.7959 47.2306 33.6204 53.8603C63.1166 47.035 94.9433 44.3963 128.157 44.3963V44.3992Z" fill="#E41A26"/>
<path d="M33.4247 73.7092C33.4708 80.7734 33.7614 87.8836 34.2908 94.9852C64.7968 92.8502 96.2092 91.9207 128.301 91.9207C160.392 91.9207 191.312 92.8876 221.741 94.9795C222.256 87.8549 222.535 80.7158 222.578 73.6229C192.61 69.3239 160.383 67.3989 128.217 67.3989C96.051 67.3989 63.7381 69.2462 33.4247 73.7092Z" fill="#E41A26"/>
<path d="M40.629 139.045C69.1441 140.878 98.4275 141.687 128.301 141.687C158.174 141.687 187.051 140.846 215.558 139.037C217.103 131.719 218.403 124.255 219.451 116.716C189.451 116.535 159.417 116.44 129.388 116.44C99.3597 116.44 67.4207 116.529 36.65 116.713C37.7231 124.249 39.0552 131.713 40.629 139.045Z" fill="#E41A26"/>
<path d="M53.9386 183.557C77.6576 187.442 102.524 189.044 128.168 189.044C153.812 189.044 178.817 187.358 202.32 183.589C205.171 176.427 207.744 168.899 210.025 161.101C183.763 164.275 155.964 165.714 128.209 165.714C100.453 165.714 72.5967 164.338 46.225 161.084C48.5181 168.853 51.096 176.375 53.9386 183.557Z" fill="#E41A26"/>
<path d="M128.131 211.399C105.951 211.399 84.508 209.776 64.1898 205.785C66.8684 210.772 69.6966 215.494 72.6686 219.899C74.7862 223.039 76.9469 225.965 79.168 228.673C94.7937 231.45 111.193 232.592 128.108 232.592C145.022 232.592 160.921 231.432 176.153 228.843C178.854 225.721 181.455 222.331 183.97 218.697C186.741 214.691 189.379 210.401 191.882 205.86C171.895 209.702 149.988 211.402 128.128 211.402L128.131 211.399Z" fill="#E41A26"/>
<path d="M128.819 169.782L132.858 181.862L145.592 181.75L135.355 189.326L139.395 201.406L129.029 194.008L118.789 201.584L122.618 189.436L112.252 182.04L124.986 181.928L128.819 169.782Z" fill="#136553"/>
<path d="M117.978 202.721L122.115 189.605L110.92 181.617L124.67 181.499L128.807 168.384L133.169 181.425L146.918 181.307L135.865 189.487L140.226 202.528L129.031 194.54L117.978 202.718V202.721ZM113.584 182.461L123.125 189.269L119.6 200.448L129.023 193.476L138.563 200.284L134.846 189.168L144.269 182.196L132.547 182.297L128.83 171.178L125.306 182.357L113.584 182.458V182.461Z" fill="white"/>
<path d="M108.682 212.668L107.824 229.594L106.084 229.504L106.863 214.127L102.873 213.926L102.95 212.378L108.682 212.668Z" fill="white"/>
<path d="M124.601 221.545C124.497 227.277 121.312 230.209 116.738 230.126C115.221 230.1 113.803 229.809 112.756 229.139L113.481 227.755C114.338 228.348 115.489 228.587 116.743 228.61C120.38 228.676 122.759 226.38 122.84 221.804C122.846 221.419 122.831 220.935 122.791 220.429C121.913 222.268 119.92 223.269 117.583 223.229C114.234 223.168 111.936 221.151 111.99 218.066C112.045 214.982 114.565 212.933 117.839 212.991C122.319 213.071 124.696 216.222 124.601 221.545ZM122.276 218.153C122.311 216.297 120.8 214.513 117.885 214.458C115.451 214.415 113.742 215.805 113.702 218.046C113.662 220.288 115.276 221.712 117.877 221.761C120.455 221.807 122.241 220.251 122.279 218.153H122.276Z" fill="white"/>
<path d="M154.73 224.552C154.865 227.352 152.935 229.602 148.892 229.795C146.475 229.91 144.116 229.185 142.761 227.93L143.532 226.526C144.663 227.6 146.639 228.319 148.814 228.215C151.588 228.083 153.058 226.716 152.958 224.636C152.863 222.627 151.387 221.378 148.276 221.528L147.08 221.586L147.019 220.317L151.381 214.283L142.819 214.691L142.747 213.16L153.51 212.645L153.567 213.865L149.117 220.049C152.713 220.069 154.597 221.873 154.727 224.552H154.73Z" fill="white"/>
<path d="M138.109 212.781C136.636 212.096 134.837 212.381 133.048 213.58C131.33 214.734 129.808 216.61 128.758 218.864C127.711 221.117 127.256 223.491 127.481 225.548C127.714 227.692 128.655 229.248 130.128 229.933C130.645 230.175 131.201 230.29 131.779 230.29C134.492 230.29 137.663 227.749 139.475 223.85C141.673 219.12 141.058 214.153 138.103 212.781H138.109ZM130.873 229.208C130.758 229.171 130.643 229.127 130.53 229.076C130.418 229.024 130.309 228.961 130.205 228.894C129.653 228.402 129.362 227.369 129.403 225.977C129.454 224.187 130.027 222.034 131.014 219.911C132.921 215.811 135.528 213.486 137.145 213.486C137.231 213.486 137.309 213.497 137.389 213.509C137.499 213.543 137.605 213.586 137.709 213.635C137.821 213.687 137.93 213.75 138.034 213.816C138.586 214.308 138.877 215.341 138.837 216.734C138.785 218.524 138.212 220.676 137.225 222.8C135.229 227.093 132.464 229.438 130.873 229.205V229.208ZM129.618 219.263C130.594 217.163 132.001 215.425 133.577 214.366C133.761 214.242 133.943 214.136 134.124 214.035C132.72 215.249 131.316 217.169 130.214 219.543C129.178 221.773 128.577 224.049 128.519 225.956C128.519 225.997 128.519 226.034 128.519 226.074C128.479 225.873 128.447 225.666 128.424 225.45C128.217 223.562 128.64 221.367 129.618 219.266V219.263ZM138.621 223.45C137.47 225.922 135.767 227.807 134.052 228.73C135.476 227.519 136.906 225.582 138.025 223.174C139.061 220.944 139.662 218.668 139.72 216.76C139.72 216.703 139.72 216.645 139.72 216.587C140.108 218.489 139.763 220.993 138.621 223.45Z" fill="white"/>
<path d="M88.5561 110.673C88.9589 111.324 90.8808 112.949 91.5454 113.289C92.2129 113.631 94.0341 114.207 94.903 114.207C97.6593 114.207 99.1698 112.21 99.1698 109.643V87.4146H109.188V108.852C109.188 115.599 106.368 122.062 95.2195 122.062C90.6593 122.062 86.5853 120.146 85.6847 119.337C84.6317 118.376 83.7369 117.979 83.0551 116.739L88.5532 110.67L88.5561 110.673Z" fill="white"/>
<path d="M174.758 116.742C174.076 117.982 173.184 118.379 172.128 119.34C171.23 120.146 167.156 122.065 162.593 122.065C151.444 122.065 148.625 115.602 148.625 108.855V87.4174H158.643V109.646C158.643 112.213 160.153 114.21 162.91 114.21C163.778 114.21 165.6 113.631 166.267 113.292C166.935 112.952 168.857 111.326 169.256 110.676L174.755 116.745L174.758 116.742Z" fill="white"/>
<path d="M144.444 112.955C144.05 122.713 136.851 126.445 128.977 126.445C122.825 126.445 117.408 124.894 113.498 121.795L116.855 112.987C120.023 115.389 124.422 117.041 128.479 117.136C130.473 117.136 132.375 116.67 133.134 116.212C134.676 115.335 134.717 111.844 132.841 111.151C129.584 109.706 125.343 108.987 122.17 107.637C110.316 104.104 111.947 86.3096 123.372 83.435C130.922 81.3344 137.182 82.189 142.916 86.065L139.749 95.2844C136.147 92.8156 134.259 91.9235 129.987 91.9235C125.714 91.9235 124.037 93.9033 124.123 95.6643C124.169 96.6253 124.693 97.6469 125.783 98.0411C133.736 100.904 144.902 101.56 144.444 112.955Z" fill="white"/>
<path d="M181.775 71.8905C167.619 63.3214 148.815 58.6024 128.827 58.6024C108.84 58.6024 90.0378 63.3214 75.8824 71.8905C61.5918 80.5402 53.72 92.0876 53.72 104.406C53.72 116.725 61.5918 128.272 75.8824 136.922C90.0378 145.491 108.843 150.21 128.827 150.21C148.812 150.21 167.616 145.491 181.775 136.922C196.065 128.272 203.937 116.725 203.937 104.406C203.937 92.0876 196.065 80.5402 181.775 71.8905ZM128.827 60.3288C160.599 60.3288 187.716 72.5207 197.901 89.5237C194.144 85.1241 188.694 81.0927 181.709 77.634C167.568 70.6331 148.789 66.7744 128.827 66.7744C108.866 66.7744 90.0839 70.6302 75.9457 77.634C68.9629 81.0927 63.5108 85.1241 59.7533 89.5237C69.9383 72.5207 97.0551 60.3288 128.827 60.3288ZM202.211 104.406C202.211 124.203 169.291 140.308 128.83 140.308C88.3691 140.308 55.4491 124.203 55.4491 104.406C55.4491 84.609 88.3691 68.5038 128.83 68.5038C169.291 68.5038 202.211 84.609 202.211 104.406ZM128.827 148.48C97.0551 148.48 69.9383 136.289 59.7533 119.285C63.5108 123.685 68.9601 127.717 75.9457 131.175C90.0868 138.176 108.866 142.035 128.827 142.035C148.789 142.035 167.57 138.179 181.709 131.175C188.691 127.717 194.141 123.685 197.901 119.285C187.716 136.289 160.599 148.48 128.827 148.48Z" fill="white"/>
</svg>
