<svg width="256" height="256" viewBox="0 0 256 256" fill="none" xmlns="http://www.w3.org/2000/svg">
<path d="M227.155 28.6235C171.395 0.186789 128.194 2.54614 128.194 2.54614C128.194 2.54614 84.992 0.186789 29.2324 28.6235C29.2324 28.6235 17.6778 72.1297 24.9635 114.328C32.2491 156.527 49.5741 214.992 128.194 253.71C206.82 214.998 224.145 156.534 231.431 114.328C238.717 72.1297 227.162 28.6235 227.162 28.6235" fill="#C4124C"/>
<path d="M183.462 11.1118C156.942 3.27958 137.424 2.49774 130.726 2.49774C129.066 2.49774 128.194 2.54617 128.194 2.54617C128.194 2.54617 84.992 0.186823 29.2324 28.6236C29.2324 28.6236 17.6778 72.1297 24.9635 114.328C32.1315 155.869 49.0344 213.165 124.547 251.876C115.712 244.155 100.67 227.224 99.5632 200.739C98.5808 177.145 126.416 154.541 168.662 78.8134C191.308 43.1395 187.316 25.8699 183.469 11.1187L183.462 11.1118Z" fill="#11AD88"/>
<path d="M130.726 2.49773C140.738 2.49773 179.325 4.23438 227.155 28.6236C227.155 28.6236 238.71 72.1297 231.424 114.328C224.138 156.527 206.813 214.992 128.187 253.71C49.5672 214.992 32.2422 156.527 24.9566 114.321C17.671 72.1228 29.2256 28.6167 29.2256 28.6167C77.063 4.23438 115.657 2.49773 125.661 2.49773C127.322 2.49773 128.194 2.54616 128.194 2.54616C128.194 2.54616 129.066 2.49773 130.726 2.49773ZM130.726 0.691895C129.335 0.691895 128.471 0.726489 128.194 0.740327C127.917 0.726489 127.059 0.691895 125.661 0.691895C114.958 0.691895 76.3088 2.58768 28.4091 27.0115L27.6896 27.3782L27.482 28.16C27.4543 28.2707 24.5415 39.341 22.5696 55.4275C20.7499 70.2824 19.3799 92.6166 23.1784 114.633C26.5895 134.407 32.5259 160.415 48.2803 186.264C56.4515 199.673 66.6846 211.989 78.7028 222.872C92.333 235.209 108.71 246.134 127.391 255.329L128.187 255.723L128.983 255.329C147.664 246.134 164.048 235.209 177.671 222.872C189.689 211.989 199.922 199.673 208.093 186.264C223.848 160.415 229.784 134.407 233.195 114.633C236.994 92.6166 235.624 70.2893 233.804 55.4275C231.832 39.341 228.919 28.2638 228.892 28.16L228.684 27.3782L227.965 27.0115C180.079 2.58768 141.43 0.691895 130.726 0.691895Z" fill="#231F20"/>
<path d="M117.947 231.798H117.919L116.397 232.683L116.169 231.715L118.078 230.615H119.088V240.003H117.947V231.798Z" fill="white"/>
<path d="M120.479 239.104C120.777 239.132 121.116 239.104 121.579 239.062C122.375 238.959 123.115 238.661 123.689 238.156C124.354 237.589 124.838 236.772 125.025 235.658H124.976C124.416 236.295 123.613 236.669 122.603 236.669C120.784 236.669 119.621 235.395 119.621 233.797C119.621 232.026 121.005 230.462 123.067 230.462C125.129 230.462 126.402 232.019 126.402 234.42C126.402 236.482 125.661 237.928 124.665 238.82C123.89 239.526 122.818 239.962 121.731 240.073C121.233 240.149 120.797 240.163 120.472 240.149V239.111L120.479 239.104ZM120.977 233.707C120.977 234.877 121.738 235.7 122.921 235.7C123.835 235.7 124.547 235.278 124.907 234.717C124.983 234.6 125.032 234.461 125.032 234.254C125.032 232.649 124.395 231.424 122.97 231.424C121.801 231.424 120.977 232.379 120.977 233.707Z" fill="white"/>
<path d="M134.635 235.209C134.635 238.398 133.245 240.163 130.802 240.163C128.65 240.163 127.19 238.447 127.163 235.34C127.163 232.192 128.754 230.462 130.996 230.462C133.238 230.462 134.635 232.227 134.635 235.216M128.657 235.354C128.657 237.796 129.536 239.18 130.892 239.18C132.421 239.18 133.148 237.665 133.148 235.271C133.148 232.877 132.449 231.445 130.906 231.445C129.605 231.445 128.65 232.801 128.65 235.354" fill="white"/>
<path d="M135.078 238.544C135.521 238.772 136.559 239.139 137.645 239.139C139.665 239.139 140.288 238.094 140.267 237.319C140.246 236.004 138.787 235.444 137.271 235.444H136.393V234.489H137.271C138.413 234.489 139.859 234.012 139.859 232.898C139.859 232.15 139.271 231.486 137.825 231.486C136.898 231.486 136.005 231.818 135.507 232.109L135.092 231.182C135.701 230.822 136.877 230.462 138.122 230.462C140.406 230.462 141.443 231.562 141.443 232.697C141.443 233.666 140.731 234.489 139.305 234.904V234.932C140.731 235.16 141.893 236.025 141.893 237.34C141.893 238.841 140.447 240.156 137.666 240.156C136.365 240.156 135.223 239.824 134.649 239.519L135.078 238.537V238.544Z" fill="white"/>
<path d="M129.121 219.184L130.318 222.865H134.192L131.058 225.142L132.255 228.822L129.121 226.546L125.987 228.822L127.184 225.142L124.049 222.865H127.924L129.121 219.184Z" fill="white"/>
<path d="M141.07 244.003H117.497V245.947H141.07V244.003Z" fill="white"/>
<path d="M136.019 65.0448C139.202 58.8108 145.837 55.8288 150.839 58.3888C155.849 60.9419 157.329 68.0614 154.153 74.2954C150.978 80.5293 144.342 83.5045 139.333 80.9514C134.324 78.3983 132.843 71.2787 136.019 65.0448ZM186.921 92.4506C180.674 88.0986 173.568 87.5105 171.056 91.1222C169.078 93.9659 170.531 98.5531 174.26 102.497C166.691 104.469 153.731 106.205 140.758 100.255C120.666 91.0461 126.353 79.6575 132.387 75.2986C132.387 75.2986 117.151 75.1326 110.952 90.8731C105.043 105.88 148.438 116.778 176.882 104.849C177.187 105.085 177.491 105.313 177.809 105.534C184.057 109.886 191.156 110.474 193.674 106.856C196.193 103.237 193.169 96.7819 186.921 92.4368V92.4506ZM146.909 113.194C138.593 111.927 129.564 115.996 125.156 118.376C119.462 114.231 111.616 106.282 111.616 106.282C111.616 106.282 110.613 114.826 104.579 145.214C98.5461 175.609 80.8475 206.627 80.8475 206.627C80.8475 206.627 93.0317 193.944 109.36 166.691C125.073 140.461 128.097 121.794 128.297 120.438C134.684 119.663 140.419 125.156 138.247 141.575C135.735 160.54 109.36 180.383 109.36 180.383C109.36 180.383 130.339 173.478 146.916 152.126C163.494 130.775 158.471 114.951 146.916 113.194H146.909Z" fill="white"/>
<path d="M61.3015 56.4169L59.9454 53.1719C60.6097 52.8952 76.5162 46.3222 101.59 42.6275C116.307 40.4619 131.113 39.7561 145.595 40.531C163.708 41.4997 181.366 44.8069 198.068 50.3628L196.961 53.6978C159.834 41.3682 124.942 42.752 102.213 46.0869C77.5402 49.7125 61.4538 56.3477 61.2946 56.41" fill="white"/>
<path d="M79.8373 21.9538L79.436 19.4076C79.436 19.4076 77.305 19.6498 73.5411 20.8882C69.7772 22.1198 64.8717 24.3685 65.8542 27.226C66.8436 30.0835 69.881 30.3464 73.5965 30.1873C77.3188 30.0281 79.2492 30.5471 79.8027 33.0448C80.3562 35.5425 75.8659 38.1094 68.8293 37.9711C68.8293 37.9711 69.1407 40.2128 68.9608 40.8493C68.9608 40.8493 83.2691 38.1855 83.2414 32.4844C83.1515 29.5576 80.716 28.4645 73.7279 28.5821C66.7398 28.6997 67.7292 23.3168 73.1813 22.3066C77.3119 21.5732 79.8512 21.9468 79.8512 21.9468" fill="white"/>
<path d="M130.94 18.4182C130.857 15.8029 128.208 14.0247 122.486 14.2115C116.764 14.3983 114.453 14.4744 114.453 14.4744C114.453 14.4744 116.155 15.6852 116.217 17.5533C116.279 19.4214 116.459 24.9358 116.556 27.8487C116.653 30.7616 115.034 32.1592 115.034 32.1592L120.209 31.9931C120.209 31.9931 119.524 30.893 119.469 29.2532C119.42 27.6134 119.282 23.5105 119.282 23.5105L122.043 23.0816C128.152 29.0457 127.875 31.744 127.875 31.744C129.612 31.1629 131.356 30.81 131.356 30.81L123.606 22.6941C123.606 22.6941 131.037 21.0336 130.954 18.4182M119.095 22.4243L118.867 15.4085C118.867 15.4085 126.976 14.6197 127.073 17.6433C127.17 20.6669 123.157 22.2928 119.095 22.4243Z" fill="white"/>
<path d="M132.566 14.0108C132.566 14.0108 135.099 14.2876 136.289 13.3397C136.316 13.3189 136.344 13.2913 136.365 13.2705C136.365 13.2705 136.15 28.4575 142.177 30.4779C145.47 31.4258 147.733 30.6439 149.615 27.7103L150.867 15.9205C150.867 15.9205 150.846 15.6714 150.078 14.9933H152.451C154.243 14.9933 154.437 14.5574 154.437 14.5574C154.437 14.5574 152.285 29.7099 152.285 30.8584C152.285 32.0069 153.185 32.7473 153.185 32.7473C153.185 32.7473 151.324 32.1246 149.594 32.7473V30.0835C149.594 30.0835 147.802 33.114 144.405 33.114C141.008 33.114 138.247 33.1762 135.555 26.4926C132.864 19.8089 134.123 18.0584 132.56 14.0108" fill="white"/>
<path d="M173.132 22.4242C173.132 22.4242 173.9 20.563 174.855 19.8573C174.855 19.8573 172.855 17.8854 166.289 16.6193C159.723 15.3462 154.797 18.2867 153.704 23.9395C152.611 29.5922 162.463 36.7118 171.036 35.7086C171.036 35.7086 172.163 29.8828 172.399 28.6859C172.627 27.4889 173.236 26.4787 173.236 26.4787C173.236 26.4787 165.494 24.9842 163.757 24.6452C162.02 24.3062 161.833 23.8564 161.833 23.8564C161.833 23.8564 162.477 25.1088 161.294 26.6586C161.294 26.6586 162.719 26.3403 164.49 26.6794C166.262 27.0253 166.787 27.1222 168.427 27.4404C170.067 27.7587 168.393 33.5983 168.393 33.5983C168.393 33.5983 166.345 34.6846 163.01 33.2662C159.675 31.8478 156.485 28.9764 157.62 23.1023C158.755 17.2281 168.732 15.2977 173.139 22.4311" fill="white"/>
<path d="M184.002 29.0456C184.002 29.0456 190.409 29.8551 191.156 26.5963C191.903 23.3375 188.361 21.5455 183.905 20.6599C179.456 19.7812 176.73 19.2415 176.73 19.2415C176.73 19.2415 178.072 20.6599 177.581 22.8117C177.09 24.9635 176.239 28.6582 175.561 31.6402C174.883 34.6223 172.779 36.5181 172.779 36.5181C183.407 38.6214 189.322 38.8636 190.27 34.7261C191.218 30.5885 184.002 29.0456 184.002 29.0456ZM180.57 20.9782C185.621 21.9745 188.153 23.3444 187.523 26.0774C186.901 28.8104 178.937 28.0977 178.937 28.0977L180.563 20.9782H180.57ZM177.055 36.3243L178.806 28.6789C182.258 29.3639 187.862 30.3671 186.963 34.2902C186.063 38.2063 177.055 36.3243 177.055 36.3243Z" fill="white"/>
<path d="M194.802 24.154C194.802 24.154 196.94 25.4132 198.829 25.6069L200.31 34.3109C200.31 34.3109 204.336 30.9068 205.976 28.4852C205.976 28.4852 208.744 29.357 209.664 29.5092C209.664 29.5092 197.258 38.4969 194.871 42.7935L190.844 41.3405C190.844 41.3405 196.878 37.6182 198.981 35.8538L194.802 24.147V24.154Z" fill="white"/>
<path d="M85.2272 17.7609L89.8421 16.813C89.8421 16.813 89.6691 20.5215 90.9007 26.5133C92.1323 32.4982 92.6719 33.6744 92.6719 33.6744C92.6719 33.6744 99.8192 32.0277 102.206 31.1075L102.67 33.363C102.67 33.363 97.0101 33.5499 89.3024 35.8193C89.3024 35.8193 89.5238 32.5674 88.5552 26.9146C87.5865 21.2619 85.2341 17.7678 85.2341 17.7678" fill="white"/>
<path d="M49.318 32.3806C49.318 32.3806 48.9306 30.8584 47.8304 30.1458L57.7868 25.7177C57.7868 25.7177 58.3403 29.357 60.838 35.6463C63.3357 41.9425 64.7818 43.9282 59.7725 46.7788C57.1917 48.0865 55.6419 48.6746 55.6419 48.6746C55.6419 48.6746 55.5935 47.277 54.9708 46.0247C54.9708 46.0247 56.9634 46.1146 58.8384 45.1875C60.7066 44.2534 61.3085 43.3263 59.8486 40.0052C58.3887 36.6911 54.7424 29.1425 54.7424 29.1425C54.7424 29.1425 51.2346 30.9968 49.318 32.3806Z" fill="white"/>
<path d="M87.6558 34.8922C87.8426 35.3972 87.3928 36.0338 86.6456 36.3105C85.8984 36.5942 85.1373 36.4074 84.9505 35.9092C84.7637 35.4042 85.2134 34.7676 85.9606 34.4909C86.7079 34.2072 87.469 34.394 87.6558 34.8922Z" fill="white"/>
<path d="M67.6739 40.3442C67.8608 40.8493 67.411 41.4858 66.6638 41.7626C65.9165 42.0463 65.1555 41.8664 64.9686 41.3613C64.7818 40.8562 65.2316 40.2197 65.9788 39.9429C66.7261 39.6662 67.4871 39.8461 67.6739 40.3442Z" fill="white"/>
</svg>
