<svg width="256" height="256" viewBox="0 0 256 256" fill="none" xmlns="http://www.w3.org/2000/svg">
<g clip-path="url(#clip0_3092_374)">
<path d="M249.073 60.9524C223.863 101.986 198.674 143.031 173.43 184.043C159.637 206.45 145.748 228.801 131.904 251.18C131.804 251.336 131.681 251.482 131.591 251.644C128.125 257.784 125.094 257.113 121.835 251.661C100.543 216.073 79.2186 180.497 57.8379 144.966C45.0844 123.772 32.2079 102.657 19.3874 81.5028C15.6804 75.3908 11.9958 69.2676 8.24412 63.1836C6.94137 61.0642 6.82396 59.1182 8.22734 56.9597C15.781 45.3452 23.2788 33.6972 30.771 22.0435C32.9348 18.6827 35.1265 15.3332 37.0946 11.855C40.3263 6.13438 43.8656 0.877938 51.1453 0C55.2436 0 59.3476 0 63.4459 0C64.4411 0.156575 65.4364 0.447357 66.4316 0.452949C80.1132 0.536828 93.7949 0.615116 107.476 0.631892C139.497 0.676627 171.524 0.805242 203.544 0.6263C210.198 0.587156 214.604 3.17064 217.914 8.71787C224.573 19.885 231.455 30.9235 238.232 42.0236C241.855 47.9567 245.461 53.8953 249.073 59.834V60.9524Z" fill="#2561AA"/>
<path d="M204.159 80.1217C179.569 80.1217 154.979 80.1888 130.389 80.1049C97.9771 79.9987 65.565 79.6967 33.1473 79.6855C28.2606 79.6855 24.9226 77.952 22.6414 73.8196C20.9361 70.7272 19.0463 67.7131 17.6205 64.4978C16.055 60.9636 16.6477 57.3736 18.5319 54.0408C20.0863 51.284 21.7301 48.5775 23.3347 45.8542C25.957 41.3918 29.9435 39.5464 35.0091 39.6191C49.7195 39.826 64.4355 40.0441 79.146 40.1671C94.0521 40.2846 108.958 40.2846 123.859 40.3461C156.461 40.4747 189.063 40.6201 221.665 40.7319C225.943 40.7487 229.415 42.2697 232.199 45.5354C236.135 50.1544 239.585 55.0082 239.177 61.4613C238.707 68.8315 234.872 74.5186 229.202 78.7964C227.391 80.1609 224.478 80.4349 222.04 80.5355C216.091 80.7704 210.119 80.6138 204.159 80.6138C204.159 80.4516 204.159 80.2951 204.159 80.1329V80.1217Z" fill="white"/>
<path d="M148.6 208.491C148.482 207.428 148.259 206.36 148.264 205.298C148.331 182.192 148.41 159.086 148.521 135.98C148.583 123.314 148.695 110.643 148.79 97.9768C148.807 95.3766 148.65 92.7651 148.896 90.1872C149.17 87.3577 150.568 86.3176 153.397 86.34C158.798 86.3847 164.199 86.435 169.595 86.4853C173.128 86.5189 174.319 87.6373 174.297 91.177C174.135 116.889 173.989 142.601 173.682 168.307C173.654 170.404 172.843 172.73 171.736 174.542C166.251 183.511 160.554 192.352 154.901 201.221C153.235 203.833 151.451 206.366 149.724 208.938L148.605 208.491H148.6Z" fill="white"/>
<path d="M108.265 214.703C107.147 213.188 105.905 211.745 104.932 210.14C100.739 203.218 96.7917 196.133 92.425 189.327C88.7125 183.534 87.3594 177.444 87.4544 170.566C87.8011 145.799 87.7452 121.027 87.8682 96.2601C87.8794 94.0345 87.9017 91.7865 88.2037 89.5889C88.5391 87.1005 90.2389 85.9262 92.7102 85.9373C97.267 85.9541 101.829 85.9541 106.386 86.0771C109.5 86.161 110.703 87.5143 110.68 90.6625C110.434 127.536 110.194 164.415 109.903 201.288C109.87 205.622 109.54 209.95 109.344 214.278C108.986 214.424 108.623 214.564 108.265 214.709V214.703Z" fill="white"/>
<path d="M162.309 34.2005C159.704 34.2005 157.093 34.3627 154.504 34.1613C150.948 33.8873 149.489 32.3887 149.399 28.8098C149.265 23.5198 149.181 18.2187 149.427 12.9398C149.617 8.84094 151.272 7.16335 155.354 6.99559C160.542 6.78869 165.753 6.95644 170.948 7.16894C173.223 7.264 174.839 8.62285 174.873 11.0777C174.945 17.0164 175.085 22.9662 174.822 28.8937C174.655 32.6795 172.614 34.2117 168.734 34.29C166.598 34.3347 164.456 34.2955 162.315 34.2955C162.315 34.2564 162.315 34.2229 162.315 34.1837L162.309 34.2005Z" fill="white"/>
<path d="M111.044 20.2093C111.044 23.5645 111.094 26.9197 111.027 30.2748C110.971 33.261 110.205 33.8425 107.342 33.8034C102.528 33.7363 97.7143 33.7139 92.9003 33.8146C89.294 33.8928 87.9744 32.7409 87.9968 29.0782C88.0303 22.9382 88.1478 16.8038 88.1198 10.6638C88.1086 8.01325 88.9809 6.90604 91.8715 7.03465C97.3565 7.27511 102.864 7.16886 108.36 7.0738C110.44 7.03465 111.189 7.85108 111.144 9.86419C111.066 13.3088 111.122 16.7591 111.122 20.2093C111.094 20.2093 111.066 20.2093 111.044 20.2093Z" fill="white"/>
<path d="M30.2902 86.2448C34.5115 85.9596 37.9501 85.4899 41.3831 85.5402C47.9248 85.6409 49.563 87.3912 49.6189 93.9226C49.6804 100.532 49.6357 107.142 49.6133 113.752C49.6133 114.445 49.4512 115.138 49.3617 115.832C49.1157 115.927 48.8753 116.022 48.6293 116.117C42.7082 106.471 36.7815 96.8192 30.2902 86.2448Z" fill="white"/>
<path d="M31.9284 32.9814C36.966 23.2682 41.7297 14.1701 49.4512 6.10645C49.781 7.59391 50.1445 8.48303 50.1556 9.37215C50.206 16.2503 50.1556 23.1284 50.1948 30.0065C50.2116 32.2992 49.4847 33.8426 46.9239 33.8482C42.7473 33.8482 38.5707 33.8594 34.3997 33.7755C33.6616 33.7587 32.9348 33.3169 31.9284 32.9814Z" fill="white"/>
<path d="M224.092 87.8609C219.971 94.5265 215.901 101.103 211.836 107.679L211.053 107.505C210.869 104.721 210.612 101.941 210.511 99.1511C210.405 96.1762 210.31 93.1901 210.489 90.2263C210.55 89.2086 211.394 87.4415 212.004 87.3856C215.66 87.0669 219.356 87.1284 223.041 87.1172C223.326 87.1172 223.617 87.5086 224.092 87.8609Z" fill="white"/>
<path d="M214.374 16.5466C217.902 22.1218 221.43 27.6914 225.193 33.6412C221.022 35.2965 217.511 34.8491 214.061 33.8481C213.485 33.6804 212.831 32.534 212.831 31.835C212.82 27.1993 212.965 22.558 213.094 17.9222C213.105 17.5867 213.351 17.2568 213.485 16.9269C213.782 16.7982 214.078 16.6696 214.374 16.541V16.5466Z" fill="white"/>
<path d="M38.2296 48.6389H44.9223V60.382C44.9223 62.8481 44.7042 64.7214 44.2681 66.0131C43.832 67.2993 42.9486 68.3897 41.6291 69.2844C40.3096 70.1791 38.6154 70.6265 36.5523 70.6265C34.3717 70.6265 32.6776 70.3301 31.4811 69.743C30.279 69.1558 29.3564 68.289 28.7023 67.1539C28.0481 66.0187 27.6623 64.6151 27.5449 62.9431L33.93 62.0708C33.9412 63.027 34.0251 63.7316 34.1816 64.1957C34.3382 64.6599 34.6066 65.0289 34.9756 65.3141C35.2328 65.4987 35.5962 65.5937 36.0659 65.5937C36.8151 65.5937 37.363 65.3141 37.7097 64.7605C38.0563 64.2069 38.2352 63.2675 38.2352 61.9534V48.6333L38.2296 48.6389Z" fill="#2561AA"/>
<path d="M48.6069 65.4595H53.4432V69.9946H48.6069V65.4595Z" fill="#2561AA"/>
<path d="M77.7705 65.4595H82.6069V69.9946H77.7705V65.4595Z" fill="#2561AA"/>
<path d="M55.6742 63.1053L62.0257 62.7082C62.1655 63.7428 62.4451 64.5256 62.8644 65.0681C63.5521 65.9404 64.5362 66.3822 65.811 66.3822C66.7615 66.3822 67.4995 66.1585 68.0139 65.7111C68.5283 65.2638 68.7855 64.7437 68.7855 64.1566C68.7855 63.5694 68.5395 63.0941 68.0475 62.6523C67.5554 62.2106 66.4148 61.7912 64.6257 61.3997C61.6959 60.7399 59.6104 59.8675 58.3579 58.7771C57.0999 57.6867 56.4681 56.2943 56.4681 54.6055C56.4681 53.4927 56.7924 52.447 57.4354 51.4572C58.0784 50.4674 59.0456 49.6957 60.3372 49.1254C61.6288 48.5606 63.4012 48.2754 65.6544 48.2754C68.4165 48.2754 70.5244 48.7898 71.9725 49.8188C73.4206 50.8477 74.2872 52.4805 74.5612 54.7229L68.2655 55.092C68.0978 54.119 67.7455 53.4088 67.2088 52.967C66.672 52.5253 65.934 52.3016 64.9891 52.3016C64.2119 52.3016 63.6248 52.4638 63.2334 52.7937C62.8421 53.1236 62.6464 53.5262 62.6464 53.996C62.6464 54.3427 62.8085 54.6502 63.1328 54.9242C63.4459 55.2094 64.1951 55.4722 65.3749 55.7183C68.2935 56.3446 70.3846 56.9821 71.6482 57.6252C72.9118 58.2682 73.8287 59.0679 74.4046 60.0185C74.9805 60.9747 75.2657 62.0372 75.2657 63.2171C75.2657 64.6039 74.8799 65.8789 74.1139 67.0532C73.3479 68.2219 72.2744 69.111 70.899 69.715C69.5235 70.3189 67.7903 70.6209 65.6936 70.6209C62.0202 70.6209 59.4706 69.9107 58.056 68.4959C56.6414 67.0812 55.8419 65.2805 55.6518 63.0997L55.6742 63.1053Z" fill="#2561AA"/>
<path d="M86.3138 70.2573V48.6444H97.4459C99.509 48.6444 101.086 48.8234 102.176 49.1756C103.266 49.5279 104.144 50.1878 104.815 51.144C105.486 52.1002 105.816 53.269 105.816 54.6446C105.816 55.8469 105.559 56.8758 105.05 57.7481C104.541 58.6205 103.837 59.3251 102.942 59.8619C102.372 60.2086 101.589 60.4882 100.599 60.7175C101.393 60.9859 101.975 61.2487 102.338 61.5171C102.584 61.6961 102.942 62.0707 103.406 62.6523C103.87 63.2338 104.183 63.6812 104.34 63.9943L107.572 70.2573H100.023L96.4563 63.6532C96.0034 62.7977 95.6008 62.2441 95.2486 61.9868C94.7677 61.6513 94.2198 61.4836 93.6103 61.4836H93.0233V70.2573H86.3138ZM93.0233 57.3958H95.8412C96.1431 57.3958 96.7358 57.2952 97.608 57.0995C98.0497 57.01 98.4132 56.7863 98.6927 56.4228C98.9723 56.0594 99.1121 55.64 99.1121 55.1702C99.1121 54.4712 98.8884 53.9344 98.4467 53.5653C98.005 53.1907 97.1719 53.0061 95.9531 53.0061H93.0177V57.4014L93.0233 57.3958Z" fill="#2561AA"/>
<path d="M111.961 53.4424H117.166V70.2518H111.961V53.4424Z" fill="#2561AA"/>
<path d="M119.402 64.6934L124.345 64.3858C124.451 65.1911 124.669 65.8006 124.999 66.22C125.536 66.9022 126.296 67.2433 127.292 67.2433C128.035 67.2433 128.606 67.07 129.008 66.7232C129.411 66.3765 129.612 65.9739 129.612 65.5154C129.612 65.0568 129.422 64.6878 129.036 64.3467C128.65 64.0056 127.767 63.6756 126.375 63.3737C124.099 62.8592 122.472 62.1826 121.499 61.3326C120.521 60.4826 120.034 59.4034 120.034 58.0893C120.034 57.2281 120.286 56.4117 120.783 55.64C121.281 54.8739 122.036 54.27 123.042 53.8282C124.049 53.3864 125.424 53.1683 127.174 53.1683C129.321 53.1683 130.959 53.5654 132.089 54.365C133.218 55.1647 133.889 56.434 134.102 58.1787L129.204 58.4639C129.075 57.709 128.801 57.1554 128.382 56.8143C127.963 56.4732 127.392 56.2998 126.654 56.2998C126.05 56.2998 125.597 56.4284 125.29 56.6857C124.982 56.9429 124.832 57.2561 124.832 57.6195C124.832 57.888 124.96 58.1284 125.212 58.3409C125.458 58.5646 126.039 58.7715 126.956 58.9616C129.226 59.4537 130.853 59.9458 131.837 60.4491C132.821 60.9523 133.537 61.5731 133.979 62.3112C134.426 63.0549 134.65 63.8825 134.65 64.7996C134.65 65.8789 134.353 66.8742 133.755 67.7801C133.157 68.686 132.324 69.3794 131.256 69.8492C130.188 70.3189 128.835 70.5537 127.208 70.5537C124.351 70.5537 122.371 70.0057 121.27 68.9041C120.168 67.8025 119.548 66.4045 119.402 64.7046V64.6934Z" fill="#2561AA"/>
<path d="M147.867 63.3737L152.418 64.7494C152.111 66.0243 151.63 67.0924 150.976 67.948C150.322 68.8035 149.5 69.4522 148.527 69.8884C147.554 70.3246 146.313 70.5426 144.803 70.5426C142.975 70.5426 141.482 70.2742 140.325 69.7486C139.167 69.2173 138.167 68.2835 137.328 66.947C136.489 65.6105 136.064 63.8994 136.064 61.8136C136.064 59.0344 136.802 56.8927 138.284 55.3996C139.766 53.9066 141.857 53.1572 144.563 53.1572C146.682 53.1572 148.342 53.5878 149.556 54.4434C150.769 55.2989 151.669 56.6131 152.256 58.3857L147.672 59.409C147.509 58.8946 147.342 58.5199 147.168 58.2851C146.878 57.888 146.52 57.5805 146.1 57.368C145.681 57.1555 145.211 57.0492 144.691 57.0492C143.512 57.0492 142.611 57.5245 141.985 58.4696C141.51 59.1742 141.275 60.2758 141.275 61.78C141.275 63.6422 141.56 64.9227 142.125 65.6105C142.69 66.2983 143.484 66.645 144.512 66.645C145.541 66.645 146.257 66.3654 146.766 65.8062C147.275 65.247 147.644 64.4362 147.873 63.3737H147.867Z" fill="#2561AA"/>
<path d="M154.359 53.4424H159.553V66.1138H167.66V70.2518H154.359V53.4424Z" fill="#2561AA"/>
<path d="M168.376 61.8583C168.376 59.1127 169.142 56.9765 170.668 55.4499C172.194 53.9233 174.325 53.1572 177.053 53.1572C179.782 53.1572 182.007 53.9065 183.522 55.4108C185.037 56.915 185.792 59.0176 185.792 61.7241C185.792 63.6869 185.462 65.303 184.803 66.5556C184.143 67.8138 183.187 68.7923 181.934 69.4913C180.682 70.1903 179.128 70.5426 177.26 70.5426C175.393 70.5426 173.794 70.2407 172.552 69.6367C171.311 69.0328 170.305 68.0766 169.533 66.7681C168.761 65.4595 168.376 63.8267 168.376 61.8583ZM173.57 61.8863C173.57 63.5862 173.883 64.8053 174.515 65.5434C175.147 66.2872 176.002 66.6562 177.087 66.6562C178.171 66.6562 179.066 66.2927 179.675 65.5658C180.285 64.8388 180.592 63.5359 180.592 61.657C180.592 60.0745 180.274 58.9169 179.636 58.19C178.999 57.4574 178.132 57.094 177.036 57.094C175.941 57.094 175.147 57.463 174.515 58.2068C173.883 58.9505 173.564 60.1751 173.564 61.8863H173.57Z" fill="#2561AA"/>
<path d="M188.213 53.4424H193.419V70.2518H188.213V53.4424Z" fill="#2561AA"/>
<path d="M195.649 64.6934L200.592 64.3858C200.698 65.1911 200.916 65.8006 201.246 66.22C201.783 66.9022 202.543 67.2433 203.539 67.2433C204.282 67.2433 204.853 67.07 205.255 66.7232C205.658 66.3765 205.859 65.9739 205.859 65.5154C205.859 65.0568 205.669 64.6878 205.283 64.3467C204.897 64.0056 204.014 63.6756 202.622 63.3737C200.346 62.8592 198.719 62.1826 197.746 61.3326C196.768 60.4826 196.281 59.4034 196.281 58.0893C196.281 57.2281 196.533 56.4117 197.03 55.64C197.528 54.8739 198.283 54.27 199.289 53.8282C200.296 53.3864 201.671 53.1683 203.421 53.1683C205.568 53.1683 207.206 53.5654 208.336 54.365C209.465 55.1647 210.136 56.434 210.349 58.1787L205.451 58.4639C205.322 57.709 205.048 57.1554 204.629 56.8143C204.21 56.4732 203.639 56.2998 202.901 56.2998C202.297 56.2998 201.845 56.4284 201.537 56.6857C201.229 56.9429 201.079 57.2561 201.079 57.6195C201.079 57.888 201.207 58.1284 201.459 58.3409C201.705 58.5646 202.286 58.7715 203.203 58.9616C205.473 59.4537 207.1 59.9458 208.084 60.4491C209.068 60.9523 209.784 61.5731 210.226 62.3112C210.673 63.0549 210.897 63.8825 210.897 64.7996C210.897 65.8789 210.6 66.8742 210.002 67.7801C209.404 68.686 208.571 69.3794 207.503 69.8492C206.435 70.3189 205.082 70.5537 203.455 70.5537C200.598 70.5537 198.618 70.0057 197.517 68.9041C196.415 67.8025 195.795 66.4045 195.649 64.7046V64.6934Z" fill="#2561AA"/>
<path d="M212.921 53.4424H226.843V57.0324H218.126V59.7054H226.211V63.1333H218.126V66.4493H227.094V70.2574H212.921V53.448V53.4424Z" fill="#2561AA"/>
</g>
<defs>
<clipPath id="clip0_3092_374">
<rect width="256" height="256" fill="white"/>
</clipPath>
</defs>
</svg>
