<svg width="256" height="256" viewBox="0 0 256 256" fill="none" xmlns="http://www.w3.org/2000/svg">
<path d="M45.5678 22.8862C45.0561 23.2036 44.8813 23.5923 45.0756 24.7778L46.5394 33.8407L46.3451 33.9573L38.9872 28.71C37.6853 27.7707 37.3938 27.7254 36.7397 28.0946L36.5907 27.8484L40.0235 25.8208L40.166 26.067L39.8227 26.3066C39.4211 26.5787 39.324 26.7925 39.4794 27.0581C39.6025 27.2654 39.9069 27.5116 40.8072 28.1594L45.4124 31.4697L44.4732 25.5228C44.3955 25.0369 44.2918 24.6612 44.1623 24.4345C43.8644 23.9227 43.4628 24.1948 42.9122 24.4474L42.7633 24.2012L45.4059 22.64L45.5549 22.8862H45.5678Z" fill="#E30613"/>
<path d="M51.0149 31.094L50.8789 30.8413C51.9735 30.2065 52.0577 29.9538 51.5007 28.9108L48.3659 23.0287C47.8024 21.9727 47.5886 21.9468 46.4228 22.478L46.2867 22.2254L50.2248 20.1265L50.3608 20.3791C49.2726 21.0269 49.1755 21.2861 49.7196 22.3031L52.8479 28.1853C53.3855 29.1894 53.7029 29.2801 54.8105 28.7359L54.9465 28.9886L51.0085 31.0875L51.0149 31.094Z" fill="#E30613"/>
<path d="M62.5375 25.2508L55.2638 28.7878L55.1408 28.5287C56.1123 27.9845 56.1836 27.6866 55.6784 26.6436L52.8155 20.7614C52.3039 19.712 52.0901 19.5759 50.9955 20.01L50.866 19.7508L54.6939 17.8916L54.8234 18.1507C53.7482 18.7597 53.6705 19.0123 54.1822 20.0618L57.2652 26.3974C57.5178 26.9157 57.7964 26.9027 58.7809 26.4168L59.7265 25.9569C60.8211 25.4257 61.4299 24.8232 61.6048 24.0134C61.6696 23.696 61.6955 23.3138 61.6825 22.7243L62.0323 22.5559L62.5375 25.2443V25.2508Z" fill="#E30613"/>
<path d="M70.841 21.6424L63.4054 24.8296L63.2889 24.564C64.2863 24.0717 64.3705 23.7672 63.9171 22.7113L61.3393 16.6931C60.8794 15.6177 60.6722 15.4752 59.5581 15.8574L59.4415 15.5918L63.3536 13.9139L63.4702 14.1795C62.3691 14.7367 62.2785 14.9893 62.7383 16.0647L65.5105 22.5428C65.7372 23.074 66.0157 23.0676 67.0261 22.64L67.9912 22.2254C69.1117 21.746 69.7464 21.1759 69.9602 20.3727C70.0379 20.0552 70.0897 19.673 70.0962 19.09L70.4524 18.9345L70.8281 21.6488L70.841 21.6424Z" fill="#E30613"/>
<path d="M79.3389 18.4422L71.7414 21.2667L71.6377 20.9946C72.6999 20.5217 72.7712 20.282 72.3631 19.1872L70.0573 12.9812C69.6687 11.9252 69.4161 11.7762 68.3409 12.1131L68.2438 11.841L75.7117 9.06189L76.5214 11.0766L76.1716 11.2062C75.4851 10.0012 75.0835 9.91053 73.4448 10.5195L71.5989 11.2062C71.2038 11.3552 71.126 11.4458 71.2944 11.8993L72.4538 15.0283L74.5848 14.2379C75.796 13.7845 75.919 13.467 75.6729 12.2815L75.9967 12.1584L77.2338 15.4882L76.91 15.6113C76.2947 14.4776 76.0162 14.374 74.805 14.821L72.674 15.6113L73.9565 19.0706C74.1767 19.6666 74.5848 19.6018 75.6275 19.2131L76.1328 19.0253C78.1471 18.2738 78.6199 17.6778 78.6912 15.9352L79.0863 15.7862L79.3324 18.4358L79.3389 18.4422Z" fill="#E30613"/>
<path d="M87.3833 5.7191C86.8521 5.93936 86.6514 6.04949 86.5153 6.26975C86.3146 6.60013 86.2692 6.96291 86.6125 8.10954L88.8859 15.6371L88.6268 15.7149L79.8764 9.65134L81.5799 15.2938C82.0333 16.7903 82.3377 16.9716 83.4906 16.7967L83.5748 17.0753L80.2067 18.0924L80.1225 17.8138C81.2625 17.3279 81.4115 17.0429 80.9451 15.4881L79.015 9.09422C78.3608 8.64075 78.0952 8.53062 77.3893 8.7444L77.3051 8.46584L79.7534 7.72733L87.4286 13.0718L85.9389 8.12897C85.7187 7.39047 85.5244 6.96939 85.2394 6.788C84.909 6.58717 84.6435 6.63252 83.9893 6.75561L83.9051 6.47705L87.3185 5.44702L87.4027 5.72558L87.3833 5.7191Z" fill="#E30613"/>
<path d="M98.3424 13.2661L90.4405 15.0541L90.3757 14.7755C91.4897 14.4451 91.5934 14.2184 91.3343 13.0782L89.877 6.61954C89.6309 5.52473 89.4042 5.34334 88.2901 5.53121L88.2253 5.25265L95.9977 3.49707L96.5353 5.60247L96.1661 5.68668C95.648 4.40401 95.2594 4.25501 93.5559 4.6437L91.6322 5.07774C91.2242 5.16843 91.1335 5.25265 91.2371 5.72555L91.9755 8.98406L94.1907 8.48524C95.4537 8.2002 95.6156 7.89573 95.5249 6.6908L95.8617 6.61306L96.6454 10.0789L96.3086 10.1566C95.8488 8.95167 95.5897 8.80915 94.3267 9.09419L92.1115 9.593L92.9276 13.1949C93.0701 13.8168 93.4782 13.8038 94.5663 13.5576L95.0974 13.441C97.196 12.9681 97.74 12.4369 98.0445 10.7202L98.4525 10.6295L98.3424 13.2855V13.2661Z" fill="#E30613"/>
<path d="M107.987 1.76748C106.756 2.08491 106.672 2.46712 106.892 3.89231L107.501 7.71441C107.734 9.172 107.728 10.0012 107.184 10.8693C106.672 11.6855 105.726 12.2232 104.36 12.437C103.278 12.6119 102.41 12.5147 101.723 12.1455C100.81 11.6596 100.26 10.6749 100.001 9.0813L99.2622 4.43647C99.1002 3.43236 98.9124 3.28984 97.7271 3.38701L97.6818 3.10197L101.885 2.43473L101.931 2.71976C100.758 3.01128 100.622 3.21858 100.804 4.34578L101.549 9.023C101.736 10.1891 101.898 10.8563 102.591 11.3487C103.09 11.6985 103.751 11.8539 104.599 11.7244C105.551 11.5754 106.329 11.109 106.717 10.4806C107.112 9.80038 107.073 9.19143 106.879 7.98002L106.251 4.03483C106.005 2.49303 105.759 2.19503 104.547 2.30516L104.502 2.02012L107.948 1.46948L107.993 1.75452L107.987 1.76748Z" fill="#E30613"/>
<path d="M119.172 0.724491C118.576 0.795751 118.253 1.06783 117.922 2.22094L115.364 11.0312L115.137 11.0507L110.746 3.1538C109.969 1.74156 109.729 1.58608 108.978 1.63791L108.952 1.35287L112.916 0.996574L112.941 1.28161L112.527 1.34639C112.048 1.41765 111.866 1.57313 111.899 1.8776C111.918 2.11729 112.087 2.47359 112.624 3.44531L115.364 8.41405L117.061 2.63554C117.197 2.16912 117.268 1.78043 117.249 1.5213C117.197 0.931792 116.718 1.00305 116.115 0.996574L116.089 0.711535L119.146 0.439453L119.172 0.724491Z" fill="#E30613"/>
<path d="M128.551 10.2279L120.448 10.4482V10.1631C121.595 10.053 121.744 9.85217 121.711 8.6861L121.536 2.06544C121.504 0.944719 121.323 0.717984 120.189 0.685593V0.394077L128.15 0.180298L128.266 2.35048L127.89 2.36343C127.631 1.00302 127.275 0.782765 125.533 0.83459L123.564 0.886416C123.143 0.899372 123.039 0.964153 123.052 1.45001L123.143 4.78626L125.41 4.72796C126.705 4.69556 126.919 4.42996 127.068 3.22503H127.411L127.502 6.76857H127.159C126.945 5.50533 126.712 5.31747 125.423 5.34986L123.156 5.40816L123.253 9.09422C123.272 9.72908 123.68 9.79386 124.788 9.76795L125.326 9.755C127.476 9.69669 128.111 9.28857 128.745 7.65608L129.166 7.64312L128.545 10.2279H128.551Z" fill="#E30613"/>
<path d="M137.91 0.465286C139.847 0.58837 141.363 1.1714 142.321 2.13017C143.241 3.03711 143.675 4.255 143.578 5.81623C143.461 7.61716 142.671 8.997 141.278 9.77438C140.307 10.325 138.953 10.5971 137.437 10.5064L133.221 10.2408L133.24 9.94929C134.413 9.94929 134.575 9.76142 134.652 8.5824L135.073 1.99413C135.151 0.795671 134.976 0.646674 133.843 0.504155L133.862 0.219116L137.91 0.478242V0.465286ZM136.155 9.146C136.123 9.67721 136.246 9.86507 136.829 9.90394C138.37 10.0011 139.212 9.87155 140.151 9.32091C141.246 8.67309 141.835 7.51351 141.939 5.7968C142.043 4.22261 141.628 3.14724 140.734 2.25325C139.899 1.4111 138.973 1.09367 137.47 0.996494C136.9 0.957625 136.667 1.08071 136.634 1.57953L136.155 9.13952V9.146Z" fill="#E30613"/>
<path d="M151.855 12.0418L143.83 10.9535L143.869 10.6684C145.029 10.7462 145.203 10.5713 145.359 9.41816L146.246 2.86228C146.395 1.74804 146.246 1.50187 145.139 1.28809L145.178 1.00305L153.073 2.07195L152.84 4.22917L152.471 4.17734C152.432 2.79102 152.121 2.51894 150.392 2.28572L148.442 2.02012C148.027 1.96182 147.911 2.00716 147.846 2.49303L147.399 5.80336L149.647 6.10783C150.929 6.28274 151.182 6.05601 151.525 4.88994L151.868 4.93529L151.389 8.45292L151.046 8.40757C151.039 7.11842 150.838 6.89169 149.562 6.71678L147.315 6.4123L146.823 10.066C146.738 10.7008 147.127 10.8304 148.228 10.9794L148.766 11.0507C150.897 11.3422 151.59 11.0377 152.477 9.53477L152.892 9.59307L151.862 12.0418H151.855Z" fill="#E30613"/>
<path d="M164.757 14.7626L164.822 14.484C165.995 14.6849 166.215 14.484 166.506 13.2661L168.093 6.639L162.342 14.1925L162.134 14.1407L160.392 5.1555L158.986 11.0312C158.598 12.6572 158.766 12.9746 159.88 13.305L159.816 13.5836L156.396 12.7673L156.46 12.4888C157.698 12.6896 157.95 12.5341 158.345 10.8822L159.751 5.00651C160.023 3.88579 159.874 3.6461 158.695 3.28332L158.76 3.00476L161.655 3.69792L163.255 11.9187L168.262 5.27859L171.17 5.97175L171.105 6.25031C170.049 6.01062 169.771 6.21144 169.505 7.31921L167.957 13.7844C167.705 14.8339 167.866 15.1383 168.916 15.4622L168.851 15.7408L164.757 14.7626Z" fill="#E30613"/>
<path d="M175.49 17.911L175.581 17.6389C176.099 17.8073 176.202 17.8073 176.41 17.762C176.546 17.7426 176.682 17.613 176.72 17.477C176.792 17.2567 176.818 16.8356 176.772 16.3757L176.623 14.8274L172.873 13.6225L171.688 15.0606C171.558 15.2226 171.422 15.4493 171.364 15.6242C171.222 16.0712 171.487 16.3174 172.174 16.5376L172.083 16.8097L169.233 15.8963L169.324 15.6242C170.185 15.8056 170.405 15.54 171.902 13.7909L177.116 7.68201L177.401 7.7727L178.307 17.0429C178.405 18.1118 178.508 18.4811 179.227 18.805L179.136 19.0835L175.483 17.911H175.49ZM176.228 9.65784L173.307 13.1042L176.617 14.1666L176.235 9.65784H176.228Z" fill="#E30613"/>
<path d="M186.17 21.8626L184.564 16.2007L183.767 15.9222L182.686 18.6624C182.258 19.7378 182.362 19.971 183.411 20.4698L183.308 20.7354L179.447 19.2131L179.557 18.9475C180.639 19.2778 180.84 19.1742 181.332 17.9369L183.716 11.9122C184.13 10.8692 184.085 10.6554 183.042 10.1437L183.146 9.87805L186.948 11.381C188.275 11.9057 189.137 12.6377 189.538 13.3698C189.849 13.9334 189.797 14.7107 189.551 15.3326C189.066 16.5635 187.958 17.0688 186.106 16.6477L187.492 21.3249C187.692 22.0051 187.952 22.206 188.541 22.5104L188.437 22.776L186.17 21.8821V21.8626ZM183.975 15.3974C185.328 15.9027 185.859 15.9934 186.637 15.8962C187.252 15.812 187.79 15.3067 188.068 14.6006C188.573 13.3309 187.99 12.3851 186.255 11.6984C185.782 11.5105 185.503 11.517 185.309 12.0094L183.968 15.3974H183.975Z" fill="#E30613"/>
<path d="M197.395 19.2066C197.512 18.5264 197.531 18.0988 197.44 17.6518C197.253 16.8097 196.78 16.0388 195.964 15.6566C195.115 15.2614 194.331 15.5659 193.982 16.3238C193.548 17.2567 194.286 18.3061 195.329 19.8155C196.378 21.3379 196.676 22.4521 196.19 23.4951C195.471 25.0369 193.794 25.5098 192.213 24.7778C191.644 24.5122 191.151 24.1689 190.75 23.7154C190.542 23.4886 190.329 23.3332 190.18 23.2684C189.972 23.1712 189.72 23.2554 189.584 23.5469L189.286 23.4044L190.244 20.3014L190.542 20.4439C190.393 22.4003 190.925 23.5858 192.22 24.1883C193.172 24.6353 194.137 24.3114 194.558 23.398C194.778 22.9186 194.791 22.5364 194.668 22.1282C194.435 21.3832 193.774 20.3403 193.12 19.4657C192.201 18.2349 192.162 17.1789 192.557 16.3238C193.256 14.8209 194.701 14.3933 196.048 15.0152C196.605 15.2744 196.922 15.5205 197.337 15.987C197.531 16.2137 197.725 16.3692 197.861 16.4339C198.095 16.5441 198.321 16.4469 198.516 16.1683L198.801 16.3044L197.738 19.375L197.395 19.2195V19.2066Z" fill="#E30613"/>
<path d="M201.437 29.2153L201.573 28.9627C202.046 29.2218 202.156 29.2412 202.363 29.2347C202.499 29.2347 202.654 29.1311 202.719 29.0145C202.829 28.8137 202.926 28.4055 202.972 27.9456L203.108 26.3973L199.643 24.5251L198.211 25.7171C198.049 25.8532 197.874 26.054 197.79 26.2159C197.57 26.6305 197.79 26.9221 198.425 27.2654L198.289 27.518L195.653 26.0993L195.789 25.8467C196.598 26.1835 196.87 25.9633 198.658 24.5122L204.902 19.4592L205.167 19.6017L204.364 28.8849C204.267 29.9538 204.3 30.336 204.947 30.7895L204.811 31.0422L201.437 29.2218V29.2153ZM203.665 21.2407L200.161 24.0976L203.218 25.7495L203.665 21.2472V21.2407Z" fill="#E30613"/>
<path d="M219.061 28.9886C218.555 28.7165 218.342 28.6258 218.089 28.6517C217.707 28.7036 217.396 28.8914 216.716 29.8826L212.266 36.3607L212.046 36.2053L211.301 25.5811L207.966 30.4332C207.078 31.7224 207.13 32.0722 207.991 32.8625L207.83 33.1022L204.928 31.107L205.09 30.8673C206.184 31.4568 206.495 31.392 207.421 30.0575L211.204 24.5511C211.146 23.7543 211.062 23.4822 210.459 23.0611L210.621 22.8214L212.726 24.2725L213.354 33.601L216.276 29.3449C216.716 28.71 216.923 28.2954 216.884 27.9586C216.839 27.5764 216.632 27.395 216.127 26.9609L216.288 26.7213L219.223 28.7424L219.061 28.9821V28.9886Z" fill="#E30613"/>
<path d="M108.816 254.635L105.266 249.097L104.314 249.045L104.016 252.303C103.9 253.579 104.081 253.8 105.376 254.001L105.344 254.318L100.681 253.897L100.706 253.579C101.982 253.592 102.17 253.424 102.306 251.947L102.96 244.776C103.077 243.532 102.96 243.318 101.665 243.098L101.697 242.78L106.296 243.195C107.902 243.338 109.068 243.849 109.735 244.504C110.254 245.009 110.448 245.858 110.383 246.596C110.254 248.06 109.217 248.948 107.073 249.071L110.066 253.625C110.5 254.292 110.843 254.422 111.581 254.558L111.555 254.875L108.816 254.629V254.635ZM104.372 248.423C105.998 248.539 106.601 248.475 107.417 248.125C108.058 247.846 108.479 247.14 108.557 246.298C108.693 244.789 107.766 243.959 105.668 243.765C105.091 243.713 104.793 243.804 104.742 244.393L104.372 248.423Z" fill="#E30613"/>
<path d="M123.81 244.601C122.378 244.672 122.191 245.067 122.119 246.667L121.925 250.962C121.854 252.595 121.653 253.502 120.856 254.324C120.105 255.102 118.933 255.471 117.372 255.4C116.135 255.341 115.195 255.043 114.522 254.493C113.622 253.761 113.233 252.562 113.317 250.774L113.557 245.553C113.609 244.426 113.427 244.231 112.093 244.07L112.106 243.752L116.905 243.972L116.892 244.29C115.532 244.348 115.332 244.536 115.28 245.799L115.04 251.053C114.982 252.368 115.014 253.126 115.662 253.813C116.135 254.305 116.834 254.629 117.799 254.668C118.887 254.72 119.852 254.389 120.422 253.793C121.012 253.145 121.109 252.472 121.174 251.111L121.375 246.68C121.452 244.944 121.251 244.562 119.878 244.419L119.891 244.102L123.823 244.283L123.81 244.601Z" fill="#E30613"/>
<path d="M135.967 249.686C134.983 249.777 134.782 249.952 134.788 251.046L134.821 254.422C133.895 255.192 132.269 255.626 130.52 255.639C128.791 255.652 127.048 255.03 125.921 253.877C124.963 252.893 124.49 251.597 124.477 249.945C124.458 248.092 125.125 246.531 126.252 245.495C127.262 244.555 128.648 244.024 130.293 244.005C131.207 243.998 131.79 244.128 132.554 244.374C132.878 244.491 133.13 244.536 133.305 244.536C133.661 244.536 133.966 244.296 134.063 243.972H134.439L134.607 247.529H134.218C133.784 246.505 133.506 246.071 132.994 245.585C132.347 244.983 131.459 244.672 130.507 244.678C129.335 244.691 128.409 245.119 127.683 245.87C126.789 246.771 126.394 248.313 126.414 249.984C126.44 253.119 128.26 254.992 130.922 254.972C132.23 254.959 133.176 254.48 133.169 253.923L133.143 251.273C133.13 249.958 132.962 249.822 131.621 249.738V249.433L135.961 249.395V249.699L135.967 249.686Z" fill="#E30613"/>
<path d="M143.396 249.032C144.523 249.148 145.003 249.42 145.521 249.829C146.091 250.282 146.421 250.975 146.473 251.714C146.589 253.579 145.061 254.81 142.606 254.959L136.893 255.309L136.874 254.992C138.208 254.875 138.48 254.59 138.403 253.307L137.949 245.948C137.865 244.62 137.606 244.484 136.226 244.484L136.207 244.167L140.954 243.875C143.882 243.694 145.456 244.633 145.566 246.415C145.611 247.108 145.378 247.814 144.977 248.209C144.588 248.585 144.258 248.74 143.396 249.012V249.032ZM141.427 248.844C143.137 248.74 143.927 247.995 143.843 246.603C143.759 245.19 142.723 244.387 140.708 244.51L140.015 244.555C139.73 244.575 139.62 244.73 139.64 245.119L139.873 248.941L141.434 248.844H141.427ZM140.164 253.722C140.197 254.292 140.482 254.46 141.259 254.415C142.684 254.331 143.273 254.227 143.979 253.521C144.381 253.126 144.562 252.536 144.523 251.817C144.472 251.008 144.199 250.399 143.617 250.062C142.561 249.453 141.92 249.557 139.918 249.615L140.171 253.722H140.164Z" fill="#E30613"/>
<path d="M157.905 242.644C156.92 242.839 156.571 243.227 155.78 244.776L153.695 248.87L154.044 252.089C154.187 253.398 154.524 253.528 155.949 253.443L155.981 253.761L150.812 254.318L150.78 254.001C152.27 253.735 152.458 253.566 152.296 252.07L151.985 249.207L149.426 246.227C147.626 244.134 147.218 243.836 146.408 243.888L146.376 243.571L151.085 243.059L151.117 243.376L150.715 243.435C150.178 243.512 149.938 243.687 149.97 243.953C149.996 244.173 150.145 244.458 150.359 244.711L153.228 248.151L155.275 244.167C155.418 243.895 155.456 243.623 155.437 243.435C155.379 243.065 155.113 242.962 154.232 243.04L154.2 242.722L157.879 242.327L157.911 242.644H157.905Z" fill="#E30613"/>
<path d="M160.735 85.6854C160.087 85.8538 159.394 85.938 158.663 85.938C156.117 85.938 152.218 84.9533 148.241 83.3014C146.285 82.5305 144.484 81.8827 142.762 81.3256V88.9503C147.671 90.965 152.302 93.945 156.493 97.8124L160.729 85.6789L160.735 85.6854Z" fill="#E30613"/>
<path d="M164.732 107.815C167.005 111.695 168.825 116.288 170.755 122.805H175.049L171.293 88.8467L164.732 107.821V107.815Z" fill="#E30613"/>
<path d="M150.897 147.837L143.344 169.687C146.466 171.994 149.323 174.358 151.635 176.697C156.467 181.685 158.527 186.919 158.527 194.201C158.527 208.815 146.952 219.019 130.378 219.019C108.382 219.019 93.1607 206.943 82.4737 181.024H78.8401L85.2847 224.972H88.9183C89.2357 220.729 92.1114 217.891 96.1078 217.891C97.5975 217.891 101.652 218.125 107.203 220.308C115.344 223.592 124.134 225.192 134.056 225.192C146.939 225.192 158.65 221.331 167.024 214.322C175.645 207.105 180.199 197.252 180.199 185.831C180.199 171.618 171.351 160.035 150.897 147.837Z" fill="#E30613"/>
<path d="M133.94 162.399L140.967 142.285C140.793 142.188 140.618 142.097 140.443 142C138.551 148.173 135.617 153.395 132.1 157.677L133.94 162.399Z" fill="#E30613"/>
<path d="M124.121 137.187V132.704C123.331 132.211 122.553 131.719 121.802 131.233L124.121 137.187Z" fill="#E30613"/>
<path d="M87.2278 102.412C85.8741 106.37 85.1487 110.73 85.1487 115.426C85.1487 127.994 91.7552 138.625 104.806 147.124L87.2213 102.418L87.2278 102.412Z" fill="#E30613"/>
<path d="M104.573 87.0263L107.462 94.4437C111.063 89.76 116.867 86.7412 124.121 86.0481V78.65C116.161 78.6889 109.088 80.438 103.232 83.5928C103.653 84.6812 104.1 85.8149 104.573 87.0263Z" fill="#E30613"/>
<path d="M112.171 165.833C105.914 165.742 100.156 164.991 100.046 161.577C100.007 160.275 99.5729 159.271 98.7244 158.526C97.4744 157.418 95.311 156.854 92.2863 156.854C91.0621 156.854 90.0193 156.945 89.3911 157.003C87.9337 157.133 84.5333 158.046 84.5333 163.734C84.5333 165.477 85.1163 166.863 86.321 167.971C89.268 170.685 95.8745 171.65 105.959 170.828C108.343 170.633 110.882 170.076 113.473 169.156L112.164 165.833H112.171Z" fill="#E30613"/>
<path d="M125.675 44.7694V141.184L131.453 156.012C137.191 148.711 141.207 138.696 141.207 125.902V44.9896C141.207 27.842 143.37 24.7843 156.622 23.3915V20.6512H110.092V23.4045C123.318 24.9657 125.675 26.7342 125.675 44.7694Z" fill="#E30613"/>
<path d="M192.291 54.9012V52.1285H153.403V54.9465C154.019 55.0113 154.621 55.0696 155.217 55.1279C161.908 55.7822 167.679 56.3458 167.679 64.9164C167.679 68.6802 166.396 74.2449 163.87 81.4551L134.031 166.889L133.914 166.584L103.129 87.5834C97.0145 72.0165 95.3435 66.7497 95.3435 63.1025C95.3435 58.1273 98.2257 55.7952 104.988 55.3158L109.813 54.9206V52.1221H58.8262V54.8818C68.7684 55.2834 71.9874 59.1249 80.1873 80.2307L128.37 202.752H130.254L174.091 75.9616C179.389 60.5437 183.819 55.4 192.291 54.8947V54.9012Z" fill="#E30613"/>
</svg>
