<svg width="256" height="256" viewBox="0 0 256 256" fill="none" xmlns="http://www.w3.org/2000/svg">
<path d="M245.087 0L245.096 82.335C244.762 86.7365 244.621 91.1451 244.236 95.5622C238.241 164.163 194.261 219.588 135.569 252.013C133.064 253.397 130.425 254.59 127.93 256C115.541 249.598 103.674 242.246 92.442 234.014C92.102 233.765 91.3764 233.395 91.3252 233.352C91.2626 233.299 91.2726 232.994 91.0919 232.804C90.5441 232.231 88.3859 230.896 87.565 230.25C72.6752 218.557 58.6788 204.347 47.4125 188.979C46.3483 187.527 45.3781 185.974 44.3978 184.732C43.2099 183.225 42.0404 181.303 40.9578 179.635C22.4372 151.113 11.7272 117.876 10.9049 83.6114L10.9106 0C54.9641 0.00426916 245.087 0 245.087 0Z" fill="black"/>
<path d="M237.687 7.1167L237.697 88.7387C235.576 127.44 220.027 164.659 195.433 194.035C177.791 215.109 154.49 234.014 129.992 246.833C129.567 247.055 128.317 247.749 127.924 247.741C127.638 247.734 125.582 246.635 125.15 246.407C112.71 239.83 99.5725 230.946 88.7331 222.064C80.1685 215.047 72.0777 207.031 64.6384 198.711C41.7246 173.083 25.5259 140.905 20.178 106.356C18.8862 98.0085 18.394 89.6025 18.0184 81.1937L18.0241 7.11812H237.687V7.1167Z" fill="#FEFEFE"/>
<path d="M127.856 11.6704C162.757 11.6704 197.664 11.6718 232.567 11.6704L232.573 79.6283C232.201 90.045 231.409 100.337 229.394 110.602C221.436 151.172 198.375 187.077 167.549 213.744L160.861 205.206L160.569 205.292L157.52 210.183C156.05 208.651 154.248 207.502 152.824 205.918C151.294 204.218 149.83 202.301 148.349 200.542C148.193 200.357 147.543 199.293 147.467 199.25C146.888 198.911 142.839 202.325 142.385 202.059L135.056 186.837C134.844 186.649 134.616 186.702 134.369 186.736C133.137 186.909 131.506 187.93 130.203 188.143C129.398 188.142 128.516 186.077 127.931 185.567L127.867 158.329C127.083 158.398 125.078 156.54 124.657 156.54H122.594C122.455 157.168 122.885 156.926 123.21 157.138C123.642 157.419 124.551 158.094 124.868 158.464C125.52 159.224 125.989 160.371 125.868 161.378C124.548 161.263 124.05 161.38 123.869 162.726C123.854 162.843 123.969 163.218 123.664 163.085C123.511 163.018 122.934 162.172 122.593 162.02C122.207 161.848 121.237 161.943 120.874 161.464C120.701 161.235 120.783 160.922 120.67 160.673C120.641 160.611 119.859 159.681 119.793 159.665C118.748 159.41 118.483 161.265 117.816 160.68C117.584 160.476 117.392 159.123 116.831 158.676C116.575 158.472 116.236 158.562 116.199 158.527C116.127 158.458 116.246 157.234 116.187 156.928C116.113 156.551 114.421 156.369 115.864 155.285C116.15 155.07 117.616 154.222 117.937 154.085C118.13 154.003 118.48 153.916 118.671 153.967C118.777 153.996 119.308 155.672 119.484 156.022C119.661 156.372 120.812 158.369 121.314 157.962C121.574 157.751 121.076 157.667 121.037 157.573C120.739 156.853 119.992 154.866 119.9 154.183C119.823 153.61 119.685 152.119 120.396 151.988C122.146 151.663 124.811 154.62 126.083 155.685C126.508 155.873 126.131 155.121 126.063 154.992C125.842 154.572 124.202 152.813 124.445 152.555C124.921 152.54 127.736 153.825 127.858 153.692C127.893 153.655 127.868 153.204 127.829 153.083C127.624 152.469 125.228 151.918 125.891 151.152C125.926 151.111 127.08 150.842 126.72 150.563C126.504 150.395 125.376 150.831 125.088 150.852C124.169 150.92 123.176 150.775 122.25 150.859C121.52 150.926 120.63 151.519 119.886 150.744C118.58 149.381 121.355 146.553 121.597 145.156C120.166 146.125 119.315 147.669 118.467 149.14C117.389 147.875 117.18 146.542 117.656 144.983C118.405 142.531 119.137 144.383 119.661 144.292C119.897 144.251 120.358 143.279 120.672 143.021C120.856 142.872 121.909 142.345 122.109 142.314C122.626 142.234 123.208 142.698 123.819 142.724C124.155 142.738 124.704 142.403 124.949 142.731C125.315 143.22 124.232 143.468 123.923 143.782C123.304 144.413 123.792 144.556 123.868 145.093C123.923 145.484 123.781 145.915 123.947 146.293C124.162 146.778 124.41 146.32 124.791 146.287C125.192 146.253 126.264 146.23 126.616 146.301C126.672 146.313 127.383 147.043 127.412 147.091C127.645 147.485 127.386 148.079 127.857 148.002V11.6704H127.856Z" fill="#108A65"/>
<path d="M127.856 11.6705V147.997C127.385 148.074 127.644 147.481 127.41 147.087C127.382 147.038 126.669 146.308 126.615 146.297C126.262 146.224 125.191 146.247 124.79 146.283C124.388 146.318 124.161 146.774 123.946 146.288C123.778 145.911 123.922 145.48 123.866 145.089C123.791 144.552 123.303 144.409 123.922 143.778C124.231 143.464 125.313 143.215 124.948 142.726C124.701 142.398 124.154 142.734 123.818 142.719C123.206 142.694 122.624 142.228 122.108 142.31C121.907 142.341 120.855 142.867 120.671 143.017C120.357 143.274 119.896 144.246 119.659 144.288C119.136 144.38 118.403 142.527 117.655 144.979C117.178 146.537 117.387 147.872 118.466 149.136C119.314 147.664 120.165 146.12 121.596 145.151C121.354 146.549 118.578 149.376 119.884 150.74C120.627 151.515 121.518 150.922 122.249 150.855C123.174 150.771 124.167 150.918 125.087 150.848C125.374 150.827 126.501 150.391 126.719 150.559C127.079 150.836 125.924 151.107 125.889 151.148C125.228 151.915 127.624 152.466 127.827 153.079C127.867 153.2 127.891 153.651 127.857 153.688C127.735 153.821 124.919 152.536 124.444 152.551C124.201 152.809 125.841 154.568 126.062 154.988C126.13 155.117 126.507 155.868 126.081 155.681C124.81 154.616 122.145 151.659 120.395 151.983C119.684 152.116 119.822 153.606 119.898 154.179C119.991 154.862 120.738 156.849 121.035 157.569C121.074 157.663 121.572 157.747 121.313 157.957C120.81 158.364 119.665 156.382 119.483 156.018C119.301 155.654 118.776 153.991 118.669 153.963C118.48 153.912 118.129 153.999 117.935 154.081C117.616 154.218 116.148 155.066 115.862 155.281C114.42 156.365 116.111 156.547 116.185 156.924C116.245 157.23 116.126 158.453 116.198 158.522C116.235 158.558 116.574 158.468 116.83 158.672C117.39 159.119 117.582 160.472 117.814 160.675C118.481 161.259 118.746 159.406 119.792 159.661C119.857 159.676 120.64 160.607 120.668 160.668C120.782 160.916 120.701 161.23 120.873 161.46C121.237 161.941 122.206 161.845 122.592 162.016C122.933 162.168 123.509 163.014 123.663 163.08C123.967 163.214 123.852 162.838 123.868 162.722C124.05 161.377 124.546 161.259 125.867 161.374C125.989 160.367 125.518 159.22 124.867 158.46C124.549 158.09 123.64 157.415 123.209 157.133C122.885 156.92 122.454 157.162 122.593 156.536H124.656C125.077 156.536 127.082 158.394 127.866 158.325L127.93 185.563C128.514 186.074 129.395 188.138 130.202 188.139C131.505 187.927 133.135 186.907 134.367 186.732C134.615 186.696 134.842 186.645 135.054 186.833L142.384 202.055C142.838 202.321 146.888 198.907 147.466 199.246C147.54 199.29 148.191 200.353 148.348 200.538C149.829 202.297 151.293 204.214 152.822 205.914C154.246 207.498 156.05 208.647 157.519 210.179L160.567 205.288L160.859 205.201L167.547 213.74C166.879 214.317 165.839 214.995 165.129 215.59L161.142 210.327L160.849 210.413C160.131 211.911 158.906 213.226 158.298 214.734L157.839 214.586C154.439 211.507 151.163 208.503 148.226 204.967C147.893 204.565 147.235 203.363 146.817 203.236C146.072 203.011 146.042 203.447 145.629 203.697C144.279 204.517 142.974 205.406 141.649 206.263L141.078 206.276L133.518 190.286C133 189.985 129.665 191.704 128.809 191.517L125.793 187.557L116.036 204.621L110.502 202.069L104.024 212.886L93.5247 204.932L88.3973 213.442C87.8425 212.961 87.6518 212.742 86.9533 212.173C81.2113 207.498 75.7624 201.652 70.8044 196.307C42.0305 165.276 24.1914 124.177 23.4232 81.3303L23.4288 11.6648H127.856V11.6705Z" fill="#FBC565"/>
<path d="M88.3973 213.446L93.5247 204.937L104.024 212.89L110.502 202.073L116.036 204.625L125.793 187.561L128.809 191.522C129.665 191.708 133 189.989 133.518 190.291L141.078 206.28L141.649 206.267C142.974 205.41 144.279 204.521 145.629 203.701C146.042 203.451 146.072 203.015 146.817 203.24C147.235 203.367 147.893 204.569 148.226 204.971C151.163 208.507 154.438 211.511 157.839 214.591L158.298 214.739C158.906 213.23 160.131 211.915 160.849 210.417L161.142 210.331L165.129 215.594C156.324 222.968 147.079 229.665 137.146 235.632C134.131 237.442 131.041 239.199 127.912 240.783C118.897 236.003 110.314 230.371 101.971 224.478C98.4144 221.857 95.0555 219.075 91.7179 216.305C91.0079 215.726 90.7092 215.484 90.1529 215.025C89.6322 214.579 89.1186 214.077 88.3959 213.448L88.3973 213.446Z" fill="#108A65"/>
<path d="M189.245 91.0769L194.366 101.889C194.957 101.154 195.132 100.476 196.045 100.014C198.084 98.9791 199.976 100.002 200.842 101.892C201.022 102.033 202.141 101.06 202.222 101.044C202.639 100.957 203.292 100.889 203.736 100.853C204.1 100.762 204.181 100.295 204.117 99.9752C204.011 99.4345 202.669 99.443 202.229 99.295C200.413 98.676 199.405 97.1718 199.275 95.2749C199.216 94.4296 199.616 93.8846 199.559 93.072H201.907C202.006 93.072 203.618 93.664 203.786 93.7537C204.844 94.3243 205.381 96.0732 205.536 97.1989L207.886 96.4717C208.317 96.9143 208.232 96.6851 208.653 96.6837C209.139 96.6809 208.731 97.5248 208.644 97.603C208.504 97.7282 207.301 97.5376 206.916 97.6542C206.079 97.909 204.504 100.522 204.991 101.303C205.018 101.346 205.678 101.559 205.894 101.751C206.196 102.02 206.495 102.646 206.691 103.016C207.115 103.169 207.257 102.7 207.54 102.548C209.013 101.754 210.347 102.293 211.796 102.75L216.917 91.0798H225.169L203.048 138.896L181.066 91.0798H189.246L189.245 91.0769ZM200.361 93.9429C199.758 94.1393 200.39 96.6553 200.696 97.1263C200.791 97.2729 201.471 97.9488 201.621 98.0513C202.067 98.353 204.123 98.9933 204.547 98.6988C205.109 98.3089 204.412 95.7303 203.968 95.134C203.359 94.3158 201.313 93.6313 200.361 93.9429ZM197.104 100.503C197.01 100.527 196.122 101.031 196.009 101.117C194.924 101.952 195.031 104.149 196.093 105.003C197.156 105.857 198.364 105.743 199.41 104.945C200.529 104.089 200.39 101.912 199.326 101.058C198.755 100.6 197.829 100.317 197.104 100.505V100.503ZM205.6 102.968C205.445 102.722 205.452 102.535 205.182 102.316C203.999 101.357 202.898 101.592 201.732 102.419C200.692 103.157 200.795 104.969 201.571 105.928C202.346 106.887 203.876 107.048 204.908 106.383C204.962 106.348 205.756 105.611 205.786 105.559C205.813 105.512 206.081 104.61 206.099 104.515C206.209 103.928 205.876 103.405 205.6 102.968ZM207.005 104.215C206.907 104.394 206.66 105.288 206.675 105.502C206.748 106.46 208.064 108.506 209.147 107.852C209.484 107.648 210.451 105.47 210.656 104.95C210.771 104.656 211.147 103.856 211.019 103.6C210.721 103.002 209.171 102.931 208.6 103.036C208.327 103.087 207.125 103.995 207.005 104.215ZM196.432 107.014C196.643 107.199 197.15 106.698 197.281 106.516C197.004 106.097 196.606 106.13 196.146 106.161C196.231 106.309 196.398 106.984 196.432 107.014ZM201.507 110.669C201.851 110.207 201.932 108.792 201.83 108.23C201.68 107.415 200.352 106.597 199.593 106.473C198.654 106.319 196.921 107.513 197.207 108.583C197.28 108.858 198.592 111.454 198.735 111.539C198.879 111.624 200.07 111.594 200.309 111.533C200.431 111.502 201.437 110.765 201.508 110.669H201.507ZM203.592 112.373C204.261 112.911 206.093 112.84 206.805 112.342C207.98 111.518 208.132 109.672 207.155 108.596C206.414 107.779 205.429 107.684 204.358 107.902C202.601 108.259 202.163 111.222 203.592 112.373ZM208.949 108.723H208.381C208.287 110.082 208.666 109.693 208.949 108.723ZM203.513 116.377C203.548 116.313 203.814 115.02 203.803 114.949C203.608 113.684 202.493 112.578 201.188 112.561C200.918 112.558 199.677 112.858 199.582 113.013C199.235 113.575 201.128 116.74 201.286 117.523C202.281 117.721 202.5 117.255 203.035 116.68C203.164 116.541 203.481 116.43 203.511 116.377H203.513ZM203.257 121.386L206.7 113.654C206.95 112.946 206.206 113.531 206.028 113.555C205.513 113.625 204.923 113.517 204.396 113.56C204.332 115.065 204.768 116.222 203.614 117.402C203.062 117.967 202.41 118.068 201.848 118.493C201.808 118.634 202.797 120.864 202.962 121.186C203.018 121.294 203.016 121.641 203.258 121.388L203.257 121.386Z" fill="#FBC565"/>
<path d="M150.405 91.0769C150.437 91.084 150.843 91.4028 150.906 91.4697L159.586 105.09L160.789 106.732L170.821 91.0769H179.072L165.028 113.175L179.072 135.192H170.536C170.515 135.192 170.542 134.935 170.455 134.783C168.066 130.619 164.948 126.353 162.31 122.289C162.091 121.951 161.09 119.881 160.664 119.971L153.759 130.463C152.926 132.104 151.626 133.508 150.905 135.192H142.368L156.419 113.173L142.368 91.0769H150.407H150.405Z" fill="#FBC565"/>
<path d="M215.832 65.6911C218.548 68.1103 219.151 71.8017 217.229 74.9523C214.423 79.5516 207.355 79.4264 204.709 74.7545C200.677 67.635 209.593 60.1327 215.832 65.6911ZM211.756 66.0767C211.227 65.832 209.834 66.2048 209.275 66.4282C203.675 68.6639 205.873 76.9503 212.116 75.9584C213.873 75.6795 215.762 73.4852 216.054 71.7875C216.388 69.8393 214.833 67.1825 212.989 66.4738C212.463 66.2717 212.244 66.303 211.756 66.0782V66.0767Z" fill="#FBC565"/>
<path d="M179.926 63.4697L187.608 72.435V64.3236H189.885V78.8387L182.202 69.7312V77.7003H179.926V63.4697Z" fill="#FBC565"/>
<path d="M220.046 63.4697L227.728 72.5773V64.3236H230.005V78.8387L228.662 77.4099C226.785 75.0648 224.978 72.509 223.031 70.2321C222.854 70.0272 222.628 69.707 222.322 69.7312V77.7003H220.046V63.4697Z" fill="#FBC565"/>
<path d="M160.933 64.3236C162.11 64.5299 164.006 65.8704 164.591 66.9263C165.74 68.9997 165.213 72.0721 163.271 73.4923C162.874 73.7826 161.929 73.9861 161.996 74.497L165.13 77.7003H162.213C162.046 77.7003 160.236 75.708 159.946 75.4163C159.761 75.2313 159.394 75.0819 159.287 74.9353C158.953 74.4756 159.261 72.9274 159.155 72.2913C161.249 72.3581 163.313 71.0404 162.822 68.6952C162.794 68.56 162.37 67.6621 162.29 67.5582C162.191 67.4301 160.745 66.599 160.65 66.599H157.449V77.6989H155.173V64.3222C156.89 64.5356 159.306 64.0361 160.935 64.3222L160.933 64.3236Z" fill="#FBC565"/>
<path d="M144.643 64.3235V74.2137C144.643 74.403 145.783 75.5499 146.016 75.6866C146.948 76.233 148.281 76.0822 149.105 75.4034C149.231 75.2981 150.05 74.2891 150.05 74.2137V64.3235H152.326V74.356C152.326 74.4371 151.772 75.6424 151.666 75.8303C150.54 77.8055 148.102 78.7689 145.882 78.2651C145.781 78.2424 144.202 77.4326 144.118 77.3743C143.711 77.0897 142.367 75.0305 142.367 74.642V64.3249H144.643V64.3235Z" fill="#FBC565"/>
<path d="M204.09 65.7649C204.412 66.2658 203.14 67.743 202.76 67.743C202.652 67.743 201.386 66.7611 200.936 66.5732C199.289 65.8902 198.205 65.9329 196.59 66.6885C195.457 67.2179 194.483 68.4218 194.11 69.6157C192.868 73.5903 197.199 77.4368 201.036 75.547C201.345 75.3947 201.919 74.8255 202.17 74.8739C202.323 74.9038 203.699 76.2244 203.678 76.4919C203.646 76.8918 202.167 77.6488 201.746 77.8225C198.116 79.3238 193.762 77.6531 192.202 74.0272C189.176 66.9859 197.527 60.622 203.548 65.5273C203.696 65.6482 204.059 65.718 204.089 65.7649H204.09Z" fill="#FBC565"/>
<path d="M165.699 77.7002L172.455 63.3259L179.072 77.7002H176.583L172.316 68.8758L168.189 77.7002H165.699Z" fill="#FBC565"/>
<path d="M139.522 64.3234V74.6406C139.522 75.0746 138.227 76.8634 137.804 77.1921C135.564 78.9353 132.737 78.5739 130.694 76.7538C130.68 76.6101 131.759 74.9252 131.855 74.8697C132.267 74.6292 133.196 75.8416 133.652 75.9569C134.347 76.1334 135.433 76.028 136.049 75.6495C136.242 75.5314 137.244 74.3062 137.244 74.2122V64.322H139.52L139.522 64.3234Z" fill="#FBC565"/>
<path d="M202.12 81.4001H193.868V83.9616H202.12V81.4001Z" fill="#FBC565"/>
<path d="M84.3214 82.254C84.3014 82.234 83.7736 82.234 83.7523 82.254C83.6214 82.3792 83.7167 85.443 83.7523 85.8827C83.9287 88.0543 85.1977 90.4365 84.8961 92.5796C84.8478 92.9226 84.6116 93.1133 84.5903 93.4249C84.559 93.8874 84.9004 94.1734 84.899 94.5634C84.899 95.346 84.3114 97.038 84.0724 97.8734C83.987 98.1708 84.1421 98.6433 83.7523 98.7614C83.9145 98.2704 83.5759 98.2462 83.4834 98.074C81.9839 95.282 79.571 93.701 77.8012 91.1238C77.592 90.8193 77.5038 90.4977 77.2776 90.2245C77.2278 91.6973 78.3318 93.4818 79.1983 94.6672C79.3292 94.8465 80.8258 96.2824 80.621 96.4845L74.7168 93.3566C74.418 92.5384 75.0739 92.0175 74.9231 91.158C74.8306 90.6286 74.0865 89.9512 74.0809 89.7307C74.0681 89.2525 75.229 88.5609 75.1948 88.1867C75.1649 87.8522 74.0794 86.1133 74.364 85.813C75.0853 85.8742 76.387 86.3694 76.6004 85.4202C76.6573 85.1698 76.5122 84.2505 76.8508 84.39C77.4469 84.6361 78.6036 87.0625 79.5255 86.7906C79.5724 86.7764 80.2852 86.2542 80.3094 86.2115C80.4175 86.0151 80.2838 85.6977 80.3364 85.4772C80.3706 85.3306 80.5982 85.4459 80.6266 85.3135C80.6949 84.9919 80.4332 85.1484 80.3791 85.0716C80.2411 84.8738 80.2937 80.6943 80.4075 80.2588C80.4958 79.923 80.9752 79.3182 81.264 79.1232C81.6368 78.8714 81.9497 78.8927 82.2656 78.702C82.6127 78.4914 83.8846 76.8449 84.3171 77.1381C84.6557 78.0061 85.037 79.4264 86.2164 79.1261C86.3928 79.082 86.3359 78.6707 86.8196 78.5569C87.4996 78.3975 87.447 78.8087 87.5509 78.8358C88.8299 79.1531 88.5467 78.0574 89.1628 77.7742C89.7788 77.491 90.1145 77.9478 90.3692 77.9364C90.6239 77.925 91.3992 77.0029 91.9726 76.8691C92.3809 76.7738 92.2329 77.0541 92.4008 77.1196C93.4536 77.5237 93.4237 76.8108 94.0056 76.3597C95.5393 75.1686 94.6387 77.2562 94.5633 77.9108C94.4936 78.5184 94.5121 79.7124 94.559 80.3414C94.5818 80.6445 94.8464 80.8594 94.8251 81.0159C94.7482 81.5723 93.5247 82.429 93.4479 82.9214C93.3526 83.539 94.6913 83.2572 94.054 84.5166C93.6229 85.369 92.8134 86.0379 92.378 86.8234C92.176 87.1877 91.4362 88.8583 91.4448 89.1558C91.4519 89.3678 91.9214 90.3298 92.1518 90.4322C93.3924 90.9901 94.4452 89.1856 94.973 88.2792C95.5791 87.2361 95.9148 86.0862 96.6987 85.1741C97.3318 84.4369 98.2296 83.7894 99.1202 83.3924V85.3847C99.5071 85.3534 99.9439 85.443 100.321 85.3761C100.719 85.305 101.23 84.7799 101.596 84.8069C101.667 84.8126 102.35 85.6508 102.623 85.7945C104.697 86.8874 108.244 88.4158 110.5 89.0149C111.244 89.2127 112.004 89.4276 112.778 89.3692C112.434 90.1434 111.791 90.7197 111.397 91.4725C110.946 92.3334 110.33 93.8219 109.98 94.7512C109.725 95.4257 109.638 96.5542 109.284 97.186C108.987 97.714 107.942 98.3017 107.736 98.9108C107.459 99.7305 107.9 100.472 107.777 101.077C107.682 101.549 106.682 102.656 106.155 102.739C103.725 103.123 101.725 101.666 99.4673 101.884C98.6564 101.962 98.1072 102.513 98.3035 103.351C98.4515 103.985 99.8529 104.836 100.432 105.064C100.829 105.221 103.033 105.877 103.319 105.877H105.381C105.426 106.147 105.32 107.526 105.381 107.584C105.407 107.608 105.879 107.571 106.097 107.651C107.247 108.072 107.614 109.016 108.139 110.022L109.509 111.853H107.446C107.269 111.853 107.093 112.603 106.952 112.783C106.262 113.659 104.994 113.685 104.037 113.851C103.821 113.89 103.67 114.09 103.454 114.122C103.074 114.179 102.216 114.031 101.995 114.159C101.904 114.211 101.315 115.477 101.011 115.546C100.24 115.724 100.248 115.287 100.162 115.269C99.9467 115.222 99.6935 115.317 99.4958 115.27C99.3663 115.24 99.4161 115.006 99.3976 114.991C99.1216 114.789 99.1244 115.179 99.0718 115.212C98.9324 115.299 98.7588 115.311 98.6279 115.408C98.0034 115.869 97.9991 116.306 97.0601 116.115C95.8836 115.878 93.243 110.903 92.8233 109.612C92.0679 108.96 90.5029 109.171 90.3038 110.217C90.1928 110.798 90.2454 112.686 90.2995 113.346C90.3365 113.794 90.5826 114.143 90.5968 114.626C90.6409 116.194 89.6337 115.263 88.8782 115.054C87.1383 114.57 87.8468 115.388 87.0259 115.763C86.1609 116.157 86.2007 115.412 85.8835 115.061C85.3827 114.506 84.0226 113.93 83.3482 113.321C82.9186 112.934 82.1546 111.547 82.0579 111.489C81.7577 111.31 80.7874 112.178 80.2695 111.71C79.5482 111.057 79.9267 109.715 79.7389 108.969C79.6151 108.481 78.9379 108.242 78.9223 107.944C78.8995 107.533 79.7474 107.009 80.0633 106.661C81.0577 105.561 82.267 104.079 83.3269 103.095C83.4663 102.965 83.5289 102.834 83.758 102.887C83.7736 103.136 83.7196 103.413 83.7694 103.658C84.3555 106.491 83.8505 109.514 85.5093 112.03C85.6786 112.287 86.1453 113.399 86.6034 112.99C86.7342 112.874 85.3685 110.257 85.2233 109.747C85.0242 109.046 84.8392 108.316 84.899 107.583C85.1522 107.24 87.0046 110.261 87.1696 110.362C87.2749 110.426 87.3218 110.455 87.457 110.429C87.0287 108.479 85.4268 106.878 85.1963 104.794C85.1337 104.233 85.2362 103.647 85.1821 103.1C85.1238 102.514 84.7482 101.972 84.8961 101.321C85.1465 101.309 85.3955 101.314 85.6445 101.357C88.2252 101.8 92.4919 105.986 94.2759 107.983C95.3856 109.225 96.4939 111.68 98.0603 112.135C98.7474 112.334 97.5666 111.223 97.4969 111.132C97.3575 110.95 96.4597 109.67 96.5636 109.577C97.393 109.456 98.1897 110.354 98.9807 109.79C97.5837 108.805 95.976 108.146 94.6856 107.004C94.5178 106.856 93.3369 105.656 94.1863 105.905C94.734 106.066 96.9577 106.73 97.3447 106.73H100.973C100.894 106.51 100.624 106.296 100.411 106.225C99.1529 105.804 97.5979 105.857 96.2719 105.527C93.4436 104.824 91.6055 103.233 89.2368 101.748C88.3903 101.218 87.3005 100.738 86.5023 100.219C86.3643 100.129 86.2477 100.234 86.3188 99.9012C87.0771 99.8429 87.8084 99.1641 88.5325 99.0545C91.3694 98.6262 92.3866 100.223 94.6885 100.99C95.0883 101.124 97.5509 101.751 97.6989 101.606C97.753 101.553 97.7202 101.212 97.5609 101.105C97.329 100.949 96.9307 101.092 96.6603 101.034C96.087 100.909 94.4893 99.9624 93.8932 99.6209C93.5148 99.4032 92.3254 98.9834 92.2827 98.5451C92.2016 97.7339 93.1548 97.9773 93.6115 97.8748C94.7767 97.613 96.0073 97.3269 97.1583 97.011C99.288 96.4261 100.301 95.6008 102.741 95.9238C103.033 95.9622 104.457 96.5471 104.526 96.4845L104.67 95.6306C104.073 95.8199 104.05 95.4599 103.843 95.356C103.603 95.235 103.041 95.2806 103.098 94.5833C103.108 94.4566 104.359 93.7394 104.563 93.6028C104.827 93.4263 104.858 93.4249 104.812 93.0706C103.893 93.4022 102.967 93.8091 102.086 94.2261C101.958 94.2859 101.946 94.4339 101.853 94.478C101.125 94.8195 100.453 95.06 99.6935 95.346C100.29 93.637 102.661 92.7888 102.468 90.7937C101.576 91.5223 100.964 92.712 100.194 93.5018C99.2496 94.4723 97.339 95.7843 96.0557 96.1928C94.6985 96.6239 93.1947 96.5414 91.8687 97.0551L93.3583 95.2023C94.3983 94.2531 95.1594 93.0492 96.1311 91.999C96.6603 91.427 97.4001 91.1082 97.7003 90.2259C97.5026 90.2302 97.2764 90.1889 97.0886 90.2529C96.814 90.3469 95.4994 91.6888 95.1936 91.9876C93.2459 93.886 91.799 95.6008 89.4345 97.1106C88.0787 97.9758 86.6845 98.2733 85.1821 98.7628C85.7469 96.4304 85.9816 94.1066 87.1454 91.9763C87.4797 91.3643 88.7971 89.7463 88.8811 89.3009C88.9167 89.1145 88.8612 89.0135 88.6677 89.0875C87.945 89.3621 87.5452 90.1832 86.8353 90.4977C85.7341 89.8161 86.5948 87.9903 87.1952 87.1891C87.8297 86.341 89.0347 85.8785 89.1613 84.8169C88.4614 84.6945 88.1114 85.4686 87.4555 85.527C87.3275 84.6262 88.1441 84.0769 88.026 83.1789C88.0004 82.9868 87.9393 82.752 87.7415 82.9655L85.3927 87.9447C85.202 87.8608 84.7539 86.6654 84.6728 86.3879C84.5561 85.9866 84.3242 84.8681 84.3242 84.4597C84.3242 84.1438 84.4039 82.3308 84.3242 82.254H84.3214Z" fill="#108A65"/>
<path d="M58.9263 116.692C59.0188 117.102 60.0047 116.821 59.8497 117.188C59.6192 117.733 57.5919 119.441 57.0057 119.751C56.7525 119.885 55.7253 120.312 55.4792 120.359C52.6196 120.911 48.9376 120.856 46.2388 121.931C45.0665 122.4 44.3039 123.152 46.226 122.63C47.6515 122.242 49.0458 121.699 50.5282 121.526C51.7887 121.379 52.9183 121.853 54.1603 121.886C50.3489 124.4 46.0539 126.181 42.3506 128.857L40.7871 130.565C40.8269 130.743 41.2196 130.615 41.3504 130.559C42.2254 130.192 43.3621 129.04 44.2726 128.502C45.1248 127.998 46.1378 127.594 47.0284 127.131C47.6316 126.818 48.4397 125.858 48.1765 127.283C48.0627 127.901 47.4623 128.25 47.6174 128.929C48.6375 128.916 48.7897 127.85 49.2634 127.232C51.0176 124.938 53.2228 124.025 55.5688 122.582C55.9003 122.378 56.6941 121.655 56.9559 121.549C57.2177 121.442 57.3614 121.507 57.2888 121.812C57.1835 121.805 57.0669 121.812 57.0142 121.92C56.5988 122.772 55.9344 124.341 55.6584 125.233C55.4365 125.95 55.1576 126.763 55.371 127.507C57.0228 125.027 57.7981 121.816 60.4202 120.108C61.0163 122.609 61.0618 125.297 59.9308 127.656C59.4015 128.759 58.454 129.651 58.1453 130.851C59.7486 130.827 59.5651 128.048 61.2766 128.361C61.076 129.188 61.5939 129.943 61.564 130.702C61.4929 132.49 60.4671 134.51 60.137 136.257C60.1356 136.381 60.4429 136.353 60.4927 136.328C60.6805 136.242 61.9339 132.979 62.089 132.517C62.1629 132.297 62.0861 132.039 62.1416 131.859C62.217 131.61 62.5044 130.595 62.7676 130.922C63.4092 131.719 63.2783 132.515 63.267 133.482C63.8901 133.474 63.7279 132.762 64.1348 132.421C63.708 130.426 62.8046 128.561 62.4489 126.545C62.2056 125.167 61.9439 123.121 61.8471 121.739C61.8144 121.274 61.8557 120.513 62.5542 120.88C63.1873 121.213 63.671 123.279 65.1164 122.952C65.2189 122.565 64.802 122.445 64.6953 122.276C64.0224 121.211 63.348 119.948 63.267 118.684C65.6372 119.199 68.5679 118.517 70.369 120.483C70.4202 120.774 69.7402 121.076 69.6904 121.337C69.6506 121.544 70.0318 121.984 70.0859 122.321C70.2524 123.354 69.8597 124.356 70.4117 125.411C70.6763 125.917 71.1885 126.118 71.2411 126.868C71.3066 127.823 70.7147 127.676 70.6607 127.891C70.5497 128.339 70.7062 129.04 70.8058 129.498C70.544 129.731 68.8994 128.3 68.5238 128.154C66.6757 127.44 68.0187 131.329 67.8153 132.246C67.7897 132.36 67.5905 132.358 67.5393 132.451C67.3515 132.794 66.1522 134.871 66.0071 134.9C65.7752 134.945 65.0112 134.864 64.9728 134.905C64.8974 134.988 64.987 136.579 64.1277 136.835C63.8261 136.925 63.523 136.861 63.2314 136.937C62.4176 137.152 62.2796 139.076 61.3534 139.609C60.7915 139.932 60.4472 139.543 60.1399 139.668C59.8554 139.785 59.4328 140.603 59.07 140.6C57.912 139.24 56.899 136.918 56.7226 135.117C56.6515 134.387 56.8777 133.023 56.7226 132.446C56.7126 132.409 56.2232 131.933 56.1905 131.914C54.3353 130.825 54.3296 133.849 53.3764 134.047C52.2724 134.276 52.4005 133.529 51.8015 133.479C51.278 133.435 51.2068 134.103 50.6847 134.057C50.376 134.03 49.3602 133.23 48.9561 133.195C48.5222 133.158 48.0485 133.878 47.1152 133.777C46.4636 133.706 46.5575 133.226 46.3825 133.188C46.0439 133.115 45.7209 133.428 45.4037 133.474C44.2001 133.649 43.0178 132.969 41.9978 132.899C41.5183 132.866 40.2038 133.411 39.7144 133.475C39.1951 133.543 38.6146 133.444 38.0854 133.481C37.9844 133.39 39.1339 131.319 39.2506 131.019C39.6646 129.956 40.7074 127.12 40.898 126.115C41.0147 125.5 40.7799 125.603 40.218 125.512C40.272 124.463 41.6734 124.059 41.8925 122.99C42.0974 121.99 41.3903 121.716 41.9793 120.726C42.1059 120.514 43.5385 119.084 43.7406 119.003C44.5415 118.683 45.3695 118.796 46.1221 118.681C46.9601 118.552 48.6175 118.367 49.2819 117.999C49.6419 117.8 50.4784 116.692 50.4343 116.36C50.3674 115.866 48.8523 115.031 48.3856 114.984C47.9574 114.941 47.4865 115.234 46.9829 115.273C45.6896 115.37 44.4989 115.303 43.2697 114.99C43.052 114.934 42.7603 115.038 42.5839 114.991C42.5455 114.981 42.2638 114.374 42.2624 114.338C42.2539 113.972 42.9054 113.589 41.6791 113.308C40.2607 112.98 39.4682 112.911 38.2376 111.912C38.148 111.839 37.8848 111.695 38.01 111.567C38.7668 111.014 40.5651 110.417 40.9962 109.568C41.0872 109.389 41.0474 109.044 41.0773 109.013C41.1925 108.893 43.3806 109.13 43.8217 108.983C44.3438 108.808 44.0777 107.829 44.3338 107.645C44.7734 107.329 46.7794 107.966 47.1849 107.189C47.5676 106.457 46.8292 105.859 48.3287 106.231C48.9391 106.382 51.3434 107.985 51.5796 107.85C51.8271 107.709 51.9267 106.813 51.8897 106.511C51.8257 106.002 50.6065 104.607 51.7033 104.203C52.7903 103.803 53.7662 104.428 54.6213 105.027C54.9684 105.27 56.2303 106.518 56.5277 106.572C56.7738 106.616 57.1636 105.958 57.5762 106.224C57.8849 106.423 58.1026 107.569 58.8467 107.805C59.134 107.896 59.6206 107.792 59.7828 108.007C59.844 108.088 60.4116 109.74 60.4287 109.922C60.4984 110.669 60.2466 110.881 60.1669 111.387C60.1129 111.727 60.0688 113.069 59.8369 113.259C59.3432 113.666 58.0215 111.654 57.6644 111.72C56.9203 111.853 57.7654 112.968 57.8494 113.356C57.8935 113.558 57.9603 113.928 57.6502 113.84C56.9972 113.655 55.9074 112.747 55.2501 112.397C52.2184 110.775 48.8551 109.744 45.4023 110.713C45.1761 110.777 44.9811 110.558 45.0537 110.998C45.7522 110.787 46.2914 111.216 46.8235 111.291C47.4225 111.375 48.1865 111.223 48.821 111.286C50.4912 111.451 52.4332 112.1 53.927 112.867C54.23 113.023 57.9262 115.269 57.5734 115.55C57.1281 115.398 56.8151 115.774 56.5006 115.831C55.4977 116.009 55.2373 115.883 54.1859 116.369C53.9825 116.463 53.8004 116.283 53.8744 116.692H58.9249H58.9263Z" fill="#108A65"/>
<path d="M76.0698 58.9159C76.0854 59.3058 76.0228 59.7029 76.1039 60.0914C76.1836 60.7047 77.8183 64.1641 77.7784 64.3904C77.7457 64.5697 77.4953 64.6024 77.3146 64.5811C76.7953 64.5213 75.1095 63.6931 74.8662 63.7543C74.4707 63.8525 74.7751 64.3193 74.9316 64.4957C75.3812 65.0023 76.7427 64.9269 76.4397 65.8932C76.3742 66.1009 74.5119 67.5724 74.1833 67.773C73.3197 68.2995 72.9953 68.5358 72.0379 68.0007C71.8273 67.8826 71.658 67.588 71.52 67.5311C71.382 67.4742 71.1672 67.6293 71.1089 67.588C71.0662 67.5581 70.7148 66.7328 70.6949 66.6403C70.3804 65.1233 70.8087 62.6415 70.6692 60.9737C70.6294 60.4927 70.2183 59.673 70.443 59.3357C70.6678 58.9985 71.1871 59.4012 71.4788 59.451C72.7478 59.6687 72.2228 59.202 72.7279 58.775C73.2984 58.2926 73.9443 59.266 74.6499 58.8462C75.0469 58.61 75.4722 55.1946 75.6842 54.4746C76.2732 52.4695 77.5721 52.7498 79.1542 52.1109C80.325 51.6384 81.6254 50.4132 82.6895 50.0959C82.9556 50.0162 82.8773 50.14 82.8987 50.3036C83.0395 51.3652 82.8347 52.7442 82.8987 53.8655C83.0096 55.8678 83.2031 56.2733 82.9072 58.4264C82.6426 60.3475 83.4777 61.1373 84.8079 59.4738C85.138 59.0597 86.2036 57.3036 86.6887 57.2197C86.9903 57.167 87.4129 57.9909 87.686 58.0422C88.0246 58.1048 89.7048 57.204 90.0875 57.2111C90.3023 57.2154 90.5684 57.5783 90.8885 57.685C91.6326 57.934 92.6469 57.9113 93.3298 58.0664C93.8249 58.1788 95.0868 58.8049 95.7811 58.9102C96.9477 59.0867 98.6848 58.3994 98.2395 60.3176C95.9291 60.9822 94.66 63.1324 93.0097 64.6907C92.6128 64.9198 92.0907 64.9482 91.6382 64.9041C90.3009 64.7746 89.1443 64.4459 87.6604 64.6053C86.9775 64.6793 86.1268 64.9739 86.8054 65.7537C88.0872 67.2223 91.8417 66.9861 93.4166 68.106C94.2617 68.7065 94.6145 70.0157 95.2761 70.7998C95.6588 71.2268 98.1157 72.9216 98.2281 73.1749C98.5738 73.9562 97.2892 73.9519 96.9449 74.0359C96.3545 74.1796 95.3088 74.366 94.8165 74.6108C94.2304 74.9025 93.8477 75.6453 92.9571 75.4219C92.8618 75.3977 92.8603 75.2085 92.812 75.1871C92.6526 75.1202 92.4961 75.1615 92.3297 75.0918C92.277 75.069 92.2841 74.8456 92.2201 74.8541C91.4647 74.9708 90.9795 76.1377 89.8016 76.2814C88.1299 76.4864 87.0088 75.772 85.7483 74.7744C85.2376 74.3703 85.2561 73.7555 84.3199 74.0017C85.2603 75.6496 84.1378 75.5301 83.2515 76.1334C82.1788 76.8635 81.9213 78.0062 80.2653 77.9962C79.7033 77.9934 79.5212 77.7714 79.12 77.7073C78.7188 77.6433 78.1426 77.8084 77.7756 77.6291C77.629 77.5579 75.9986 75.2782 75.8677 74.9836C75.2076 73.4923 75.458 71.5953 76.3771 70.252C76.9689 69.3882 77.4327 69.0737 77.9747 70.1723C78.3589 70.9493 78.817 73.0084 79.2765 73.5663C79.3989 73.7157 79.6877 73.7939 79.7673 73.7143C79.9082 73.5748 79.009 70.6888 78.9507 70.1922C78.8782 69.5803 79.1115 68.0918 79.3064 67.4912C79.4117 67.1682 79.9338 66.3912 80.2909 66.3485C80.5441 66.3186 81.8729 67.0928 82.1148 67.3119C82.6554 67.8015 83.4208 69.4081 83.6669 69.6016C84.0169 69.8749 84.7496 69.6258 85.2803 69.8379C85.727 70.0172 85.8906 70.5522 86.1851 70.7828C86.37 70.9279 86.6901 70.9934 86.9306 71.1755C87.5935 71.6764 87.7187 72.1816 88.6549 72.0009C88.8768 71.9582 89.0433 71.7348 89.2296 71.7277C89.5981 71.7149 91.3836 72.5687 91.7193 72.2912C91.7819 71.9781 91.5671 71.9696 91.3708 71.8586C90.7448 71.5071 89.7916 71.3463 89.0831 71.0161C88.0986 70.5565 87.1639 70.1395 87.4513 68.8759C88.1441 68.7691 89.1059 69.2601 88.8754 68.3081C88.6748 68.2896 88.4329 68.3493 88.2451 68.2995C85.5178 67.5795 83.4621 67.2821 81.0037 65.5801C80.8571 65.479 80.5982 65.3424 80.6352 65.1261C81.3821 64.029 82.9542 64.8614 84.0382 64.8913C84.2374 64.7191 82.9698 63.9279 83.61 63.3957C83.7253 63.3004 86.215 62.3668 86.3956 62.3398C87.1952 62.2188 88.312 62.4864 89.0546 62.2957C89.5796 62.1619 90.6481 61.3494 91.1133 61.2241C91.5358 61.1117 92.2144 61.3365 92.2884 60.6222C91.7165 60.6649 91.0791 60.5553 90.5186 60.6279C89.958 60.7004 88.8327 61.106 88.2266 61.1814C87.6206 61.2569 86.9377 61.0804 86.3145 61.3309C86.5052 61.0149 88.4073 59.8623 88.0203 59.4823C87.9834 59.4467 87.669 59.4823 87.5566 59.515C86.8694 59.7171 84.936 61.3024 84.2033 61.7435C83.6385 62.0836 80.1771 64.0717 79.8456 64.0389C78.5026 63.9094 79.2879 60.6279 79.6009 59.811C79.9139 58.9942 80.5142 58.2898 80.9069 57.49C80.2511 57.2339 79.682 58.5716 79.5554 58.6271C79.1812 58.7893 79.2011 58.341 79.13 58.3382C78.4983 58.3239 78.6776 59.2945 78.5993 59.6616C78.531 59.9846 78.1526 61.8303 78.0615 61.8986C77.6475 62.2089 76.8636 59.8936 76.7171 59.6175C76.5037 59.2148 76.4781 59.0668 76.0712 58.9117C76.0669 58.8177 76.0797 58.7224 76.0712 58.6285C75.8592 58.5246 75.6415 58.7381 75.7881 58.9117C75.818 58.9472 76.0015 58.8846 76.0712 58.9117L76.0698 58.9159Z" fill="#108A65"/>
<path d="M113.006 141.969C111.818 143.613 109.644 145.203 108.646 146.644C108.563 146.765 108.449 146.785 108.507 147.001C111.83 147.349 114.656 149.237 117.594 150.649L118.749 151.413C116.564 151.679 114.955 150.151 112.946 149.463C109.241 148.195 107.059 148.383 103.31 148.565C101.919 148.634 100.502 148.461 99.1159 148.638C101.394 150.725 103.89 152.573 105.858 154.986C107.153 156.573 108.456 158.592 109.364 160.338C109.826 161.228 110.519 163.391 111.062 164.01C111.702 164.741 113.479 165.712 114.339 166.425C117.39 168.958 122.267 174.648 120.708 178.918C119.884 181.17 118.107 181.609 115.867 181.263C114.152 180.998 113.469 178.465 114.277 177.039C114.444 176.745 114.709 176.645 114.943 176.454C114.989 176.417 115.345 175.783 115.437 176.382C115.49 176.719 114.876 177.574 114.798 177.987C114.292 180.639 117.76 181.394 119.176 179.236C121.042 176.39 118.328 172.272 116.402 170.055C115.074 168.526 113.273 166.756 111.35 166.073C111.621 166.689 111.739 167.445 111.782 168.129C111.896 170.001 111.546 171.983 111.311 173.789L110.781 174.751C110.563 173.739 111.002 172.733 111.064 171.834C111.166 170.302 111.028 168.541 110.744 167.032C110.668 166.635 110.327 165.075 110.172 164.829C109.938 164.459 107.76 163.442 107.19 163.076C105.319 161.872 103.696 160.049 102.439 158.121C100.908 155.772 99.6338 152.352 97.9521 150.229C97.8099 150.048 97.0174 149.255 96.8382 149.423C97.6818 150.809 97.6306 152.454 97.8753 154.006C98.1627 155.82 98.4857 157.263 98.5525 159.163C98.8342 167.214 94.9972 174.1 96.9022 182.444C97.6605 185.761 101.405 190.68 105.161 190.558C106.796 190.505 107.387 189.368 108.433 188.415C109.051 190.302 106.175 191.403 104.734 191.403C103.088 191.403 101.412 190.606 100.186 189.549C99.712 189.141 97.9166 186.845 97.6207 186.844C97.1497 186.842 96.7315 188.059 96.474 188.405C96.1226 188.877 95.1992 189.736 94.6216 189.831C93.7125 189.98 92.2657 189.24 92.5701 188.129C93.9715 188.234 94.1422 189.425 95.2476 187.891C96.353 186.357 96.1923 183.417 95.6573 181.695C95.1224 179.973 94.3186 181.593 93.6357 182.154C89.463 185.577 83.0893 183.875 82.6042 178.104C82.3538 175.124 85.303 171.115 88.3675 173.476C89.6906 174.495 89.8741 175.377 89.7219 177.029C89.4829 177.078 89.4288 176.971 89.3264 176.786C89.0874 176.355 89.0575 175.676 88.7246 175.111C88.3333 174.448 87.208 173.514 86.4184 173.638C85.3414 173.807 84.0041 175.403 83.812 176.453C83.674 177.213 83.8007 179.472 84.1065 180.156C84.4124 180.839 86.9434 182.319 87.669 182.427C92.6768 183.181 94.8976 178.908 95.3956 174.661C95.7911 171.287 96.097 167.637 96.8396 164.317C97.2579 162.447 97.3361 159.83 97.2621 157.747C97.1668 155.049 96.7855 152.746 95.3045 150.455C94.2944 148.893 92.4648 147.839 92.8532 145.722L96.9221 147.131C103.535 149.099 114.608 142.563 113.63 135.115C113.478 133.956 111.435 132.5 110.386 132.365C110.16 132.337 108.359 133.101 108.089 133.282C106.786 134.154 106.249 135.839 107.165 137.169C107.764 138.04 107.949 137.932 108.861 138.036C109.584 138.119 108.513 138.587 108.146 138.615C107.478 138.666 107.119 138.375 106.734 137.884C105.601 136.439 105.635 134.799 106.734 133.35C108.025 131.648 109.854 131.592 111.852 131.769C113.144 131.883 113.703 132.614 114.12 133.77C115.181 136.717 114.832 139.435 113.001 141.968L113.006 141.969ZM104.302 156.477C103.954 156.066 103.549 155.645 103.384 155.114C103.148 155.076 103.252 155.291 103.279 155.436C103.415 156.17 104.516 157.465 104.741 158.239C104.818 158.501 104.777 159.069 104.807 159.099C104.839 159.131 105.401 159.039 105.666 159.167C105.804 159.234 106.592 160.463 106.8 160.236C106.862 159.97 106.71 159.841 106.608 159.647C105.987 158.47 105.13 157.459 104.303 156.477H104.302Z" fill="#108A65"/>
<path d="M89.7276 140.599C89.7987 140.174 89.6166 140.374 89.3947 140.299C88.3931 139.962 83.5759 138.284 83.1747 137.65C82.7735 137.017 83.6356 136.727 84.0468 136.407C84.2189 136.273 84.2431 136.011 84.4366 135.902C84.5561 135.833 86.9576 135.183 87.0942 135.179C87.8624 135.153 89.5227 135.793 90.1444 136.269C91.4888 137.298 90.4702 137.366 90.5812 138.238C90.6438 138.726 91.4263 139.522 91.4447 139.668C91.5401 140.438 91.082 140.888 91.1545 141.511C91.2143 142.022 92.5914 144.013 91.7705 144.286C91.3978 144.41 90.5385 143.873 90.5755 144.376C90.6438 145.287 92.5658 147.672 91.4462 148.655C91.2626 148.816 90.9923 148.803 90.8586 148.954C90.3991 149.466 90.6665 150.579 90.5826 151.206C90.5627 151.354 90.6182 151.512 90.372 151.416C90.1914 151.344 89.1016 150.462 88.955 150.272C87.9634 148.979 87.3545 145.587 85.5008 145.188C84.6784 145.012 83.8832 145.201 83.9372 146.202C83.9728 146.863 84.9957 147.8 84.8862 148.911C84.7553 150.237 83.5929 151.508 83.4635 152.834C83.1462 153.042 82.4107 152.581 82.331 152.62C81.9483 152.802 81.8871 154.151 81.5628 154.423C81.2227 154.707 80.5911 154.434 80.362 154.573C80.0931 154.737 79.3619 158.12 78.7046 157.965C78.5097 157.919 77.1268 154.895 76.8423 154.418C76.4752 153.805 74.4052 151.401 74.3668 151.202C74.2018 150.336 74.7751 148.681 74.2316 148.093C74.0908 147.941 73.8461 148.032 73.8105 147.993C73.2784 147.415 76.2149 144.135 76.0114 143.306C75.7625 142.294 75.108 142.149 74.1577 142.319C72.523 142.614 70.9523 145.807 69.8668 146.991C69.7345 147.135 68.6874 148.14 68.6021 148.143C68.4498 148.145 68.3972 147.798 68.3815 147.655C68.2606 146.559 68.2848 145.188 68.0956 144.098C67.9419 143.206 67.2562 142.931 67.572 141.567C67.6674 141.153 68.3431 140.442 68.2265 139.99C68.1866 139.833 67.2534 138.941 66.966 139.18C66.6444 138.913 68.8126 137.625 68.8866 137.475C69.1057 137.026 68.7714 136.486 68.9421 136.259C69.1128 136.031 71.2326 135.022 71.7064 134.745C71.9923 134.577 72.1801 134.225 72.5059 134.121C73.8717 133.687 75.1308 134.399 76.3557 134.84C77.4128 135.221 78.2707 134.938 78.0629 136.62C77.3132 136.428 76.6474 136.852 76 136.905C74.1634 137.056 72.7876 136.617 70.9751 137.434C70.7688 137.527 70.591 137.352 70.6635 137.757H73.0821L72.947 138.511L70.5227 140.812L69.5979 142.597C70.6593 141.767 71.4432 140.639 72.5258 139.833C74.2402 138.557 76.5449 137.544 78.7088 137.47C78.9678 137.461 80.1614 137.733 80.2752 137.891C80.611 138.361 79.9267 140.317 79.6777 140.869C79.1812 141.969 77.0429 144.532 76.9205 145.371C76.8949 145.548 76.9404 145.668 77.1339 145.584C78.0487 145.186 78.8369 143.233 79.9082 142.739C79.7346 143.279 79.8313 143.854 79.7602 144.369C79.5468 145.908 78.6975 148.585 78.9479 150.034C78.9905 150.276 79.083 150.538 79.2708 150.707L79.7588 149.207C79.7033 148.595 79.82 148.153 80.2638 147.723C80.7333 148.049 80.9354 148.679 81.4717 148.858C81.5514 148.759 80.9524 147.366 80.9126 147.071C80.5896 144.696 81.1445 142.378 81.4617 140.095C81.5443 139.506 81.1943 138.099 82.2186 138.353C83.8291 138.753 83.6442 141.803 84.0354 143.024C84.7211 142.362 84.6585 141.204 84.7453 140.32C84.9018 140.299 85.0341 140.33 85.1807 140.383C86.1495 140.729 87.484 142.744 88.0417 143.64C88.2039 143.901 88.5425 144.824 88.588 144.874C88.7018 144.998 88.8853 144.929 88.8739 144.66C88.8085 143.272 87.3887 142.026 87.4484 140.605H89.7247L89.7276 140.599Z" fill="#108A65"/>
<path d="M61.914 45.8237C61.968 45.8337 62.8373 46.1695 62.9412 46.2194C63.5358 46.5054 63.7706 47.2169 63.4804 47.8174C63.368 48.048 61.16 49.4781 60.7772 49.6674C59.8938 50.1043 58.6973 50.2153 58.1453 50.9467C60.0958 51.1403 61.7987 50.1029 63.4661 49.2519C63.6212 49.2875 64.2472 50.6095 64.3098 50.83C64.6128 51.903 63.8972 52.0567 63.3466 52.8067C63.1816 53.0315 62.7832 53.9807 62.6694 54.0476C62.1928 54.3251 61.6963 53.7331 61.241 53.8156C60.3988 53.9679 60.1811 55.1846 59.3645 54.2098C59.1597 53.9636 58.996 53.2393 58.9107 53.2165C58.74 53.171 57.875 53.198 57.653 53.2322C57.4581 53.2635 57.3187 53.4399 57.1807 53.4698C55.8519 53.753 54.7436 52.5932 54.2428 51.5046C54.1404 51.2812 54.1987 50.961 54.0892 50.8002C53.9896 50.655 52.9269 50.2466 52.8799 50.0203C52.8116 49.6902 54.0522 49.2505 54.3495 49.074C54.6142 48.916 54.8247 48.546 55.0154 48.4592C55.6783 48.1561 57.0114 48.8264 57.1466 47.8174C56.2801 47.3777 55.1334 47.2255 54.3439 46.7046C53.8744 46.3958 53.7847 46.0714 53.4803 45.8209C53.1616 45.5576 52.0633 45.1549 51.9509 44.9713C51.7574 44.654 51.948 43.7091 51.8499 43.2224C51.7332 42.6503 50.7316 41.6272 51.0902 41.1163C51.2822 40.8431 52.0277 41.0565 52.3535 40.9811C53.0834 40.8132 53.3736 40.8032 54.2215 40.6908C56.108 40.4403 57.5122 38.9931 59.1013 38.7412C59.4769 38.6814 60.9209 38.7739 60.9878 38.7071C61.086 38.6089 60.6819 37.1858 61.6209 37.2769C61.8471 37.2982 63.3267 38.7754 63.5486 39.0628C63.7706 39.3503 64.2002 40.3678 64.2614 40.4147C64.4222 40.5357 64.5829 40.3023 64.6669 40.1828C65.0041 39.6947 65.1819 38.2175 65.8264 37.9272C66.3243 37.7024 67.6403 37.913 68.0941 38.2161C68.7173 38.6331 68.7756 40.3151 69.1981 41.0892C69.329 41.3297 70.0077 41.8235 70.0759 42.0811C70.2068 42.5792 69.1925 44.0876 68.8126 44.4704C68.602 44.6825 66.8336 45.9959 66.68 45.8223C66.5164 45.2929 66.8934 44.8803 66.956 44.4633C67.0641 43.7546 67.3031 42.1181 67.2547 41.4749C67.2348 41.2202 67.222 40.89 67.0342 40.6979C66.2475 39.8967 66.431 42.1167 66.3784 42.4625C66.2802 43.1214 65.5774 46.0899 64.7608 46.1027C64.3354 46.1098 62.2839 44.5643 61.8386 44.1872C60.8498 43.3505 60.2779 42.2761 59.4926 41.2714C59.1099 41.5603 59.3844 42.0413 59.2094 42.4084C59.016 42.8154 58.2022 42.7186 57.8181 42.6589C56.9403 42.5208 55.5731 41.899 54.7792 41.8392C54.2926 41.8022 53.9796 42.2618 53.4461 42.1238C53.3878 42.5194 53.4959 42.3415 53.6595 42.4084C54.506 42.7528 59.1312 43.867 59.42 44.4733C59.5737 44.7963 58.6788 44.6839 58.5664 44.8973C57.9504 44.987 57.148 45.1706 56.6145 45.5021C56.4651 45.5946 56.3683 45.4936 56.4324 45.8223C58.067 46.0244 60.3604 45.5505 61.9097 45.8223L61.914 45.8237Z" fill="#108A65"/>
<path d="M101.065 23.0976C101.88 23.8661 101.079 25.9949 100.472 26.7577C99.6821 27.7496 98.7289 28.0441 97.4812 27.8933C97.1796 27.4806 98.1684 27.3782 98.4842 27.1875C99.6764 26.4674 100.621 25.1397 99.9666 23.7351C99.7049 23.1716 97.9806 22.2979 97.3275 22.2125C93.0794 21.6561 88.3646 25.4257 86.0542 28.7002C85.6515 29.2694 85.431 29.934 85.0853 30.4349C81.1018 36.2352 75.1635 40.0277 72.6923 46.9266C72.3935 47.7591 72.0165 48.6243 72.0876 49.5223C72.4561 49.6077 72.3352 49.4141 72.4533 49.2533C74.8007 46.0714 76.5933 43.1712 80.1927 41.1946C82.4121 39.9764 84.4636 39.1895 87.0614 39.5951C87.9378 39.7317 89.3292 40.8787 89.4501 41.7595C89.8271 44.516 88.6506 46.7388 85.7454 46.9579C86.7456 46.2009 88.3589 45.2844 88.5823 43.8912C88.9778 41.4265 87.2137 40.4375 84.9743 40.7093C79.2352 41.4066 73.5999 48.6656 72.1289 53.9024C71.7063 55.408 72.0421 56.6076 71.7718 57.8144C71.7177 58.0577 71.5541 58.4434 71.2297 58.2783C70.5298 57.9197 70.0631 55.1846 69.7644 54.335C69.0545 52.3157 67.4041 49.434 65.7168 48.1063C65.4195 47.8729 64.923 47.9228 64.9756 47.53C65.4551 47.5371 65.9843 47.429 66.3912 47.7491L70.3804 51.5131C70.6237 48.0323 72.0321 44.5103 73.8788 41.5646C76.4567 37.4534 80.3478 34.8136 83.1049 30.8703C84.4977 28.878 86.8921 24.6786 85.3741 22.3576C84.677 21.2918 83.2913 20.5418 82.0095 20.8079C81.4916 20.9161 80.1571 22.0958 79.9537 22.5924C79.8285 22.897 79.7886 23.9799 79.2907 23.8974C78.4727 23.7593 79.3149 21.7172 79.6307 21.2733C81.3323 18.884 84.7709 19.1799 86.2263 21.6475C86.5564 22.2068 87.235 24.219 87.5992 24.4111C88.2024 24.7284 89.1741 23.5658 89.6009 23.2769C90.7234 22.5156 91.8488 21.8482 93.1448 21.4141C95 20.7923 98.1797 20.6599 99.0134 18.6036C99.4886 17.4324 98.6137 16.6768 98.2679 15.6522C99.0732 15.5497 99.5484 15.7433 100.049 16.3595C101.536 18.1909 99.3535 19.8303 99.6935 21.5536C99.7162 21.6674 100.486 22.7404 100.624 22.9041C100.731 23.0307 100.977 23.0065 101.069 23.0933L101.065 23.0976Z" fill="#108A65"/>
<path d="M73.7934 111C73.7778 110.062 72.8687 104.502 72.3423 104.199C69.8327 104.291 67.3814 103.84 65.0055 103.069C60.3661 101.562 56.8378 98.4412 54.5331 94.1905C51.3946 88.4029 48.2505 79.691 40.558 78.8543C38.5321 78.6337 36.3967 80.0795 35.7693 82.0163C35.5416 82.7207 36.7936 84.1822 37.3812 84.5934C38.5165 85.3875 39.9861 85.369 40.9279 84.3174C41.3419 83.8549 41.4643 83.1917 41.8413 82.6652C41.9608 82.4987 41.8441 82.3151 42.2083 82.3977C42.261 84.1181 41.5141 85.8187 39.6802 86.1986C38.3315 86.4775 36.3269 85.4174 35.5231 84.3174C35.0849 83.7168 34.7122 82.0732 34.8203 81.3375C34.9526 80.4424 35.7024 79.3452 36.4436 78.8358C39.8766 76.4792 44.5017 78.2751 47.3983 80.6928C47.8365 81.0586 50.1455 83.593 50.386 83.5361C51.3335 81.8099 52.1174 80.367 53.8303 79.294C55.6485 78.1555 57.6829 77.5963 59.4072 79.21C60.9893 80.69 61.2837 83.4607 59.8283 85.1513C58.3729 86.8419 55.6286 86.802 55.5816 84.2476C55.6826 84.121 56.1336 84.6077 56.2147 84.6802C56.8009 85.2082 56.8179 85.5924 57.8906 85.3462C60.5326 84.7428 60.0218 80.0482 57.7768 79.7024C56.4665 79.5003 55.2402 79.7821 54.2101 80.6046C53.4035 81.2493 51.9153 84.3031 51.8912 85.3291C51.8684 86.2712 53.1531 88.3304 53.5173 89.3692C53.6453 89.7335 53.56 90.2017 53.7577 90.5518C53.9 90.8036 54.5772 91.2192 54.6825 91.4042C55.1776 92.2722 55.593 93.4605 56.1735 94.3968C58.6062 98.3287 61.7319 100.613 66.2205 101.851C67.4596 102.192 71.7661 103.05 71.8017 100.971L70.6621 92.4259C70.3719 86.5985 70.2125 79.6754 68.3431 74.1112C67.5735 71.8215 64.8504 68.0433 62.5243 67.2663C62.3607 67.2123 61.0291 66.8964 60.9494 66.9077C59.2209 67.1568 59.0473 69.7097 60.5112 70.703C60.9352 70.9905 61.7902 71.1043 61.84 71.1541C62.0805 71.4017 61.4146 71.9083 61.1628 71.9738C59.2507 72.469 58.0002 68.7975 58.454 67.2692C58.6518 66.6018 60.0531 65.8063 60.7645 65.738C64.1889 65.4107 66.8948 68.6197 68.4726 71.2779C69.2408 72.5715 69.625 73.9191 70.1599 75.2824C70.389 75.8659 70.3349 76.519 70.7304 76.9858C71.0377 76.9858 72.062 72.8319 72.1574 72.2968C72.2484 71.7931 72.3693 69.8051 72.4945 69.6457C72.6581 69.4393 73.0266 69.3782 73.2713 69.4607C73.7693 69.6286 73.1248 70.6119 74.0367 70.2548C74.2871 70.1566 75.6685 68.2312 75.9915 67.8783C76.2348 67.6121 78.1881 65.5985 78.4826 65.8888C78.3219 66.3072 77.9619 66.7982 77.6888 67.1568C74.1577 71.8158 70.5099 78.026 71.2226 84.1779C71.4787 86.3922 71.5285 88.6534 71.7846 90.8734C72.2143 94.6046 72.624 98.3287 73.2187 102.034C73.3738 102.192 75.1791 101.377 75.3925 101.188C75.5618 101.038 75.5846 100.819 75.7183 100.618C75.7781 100.529 75.9901 100.503 76.0299 100.438C76.3586 99.8884 75.6373 98.6162 75.7795 98.4767C77.9107 98.3358 76.9518 100.273 77.0599 101.607L82.893 100.186C82.5501 101.034 81.8331 101.356 81.0563 101.691C78.8127 102.665 76.4283 103.2 74.0965 103.907C74.1207 106.467 74.9017 108.939 75.4267 111.422C75.6145 112.312 75.6188 113.415 75.8763 114.246C76.0712 114.875 76.6118 115.562 76.8707 116.239C77.969 119.112 80.0348 127.006 81.9696 128.785C82.9143 129.654 84.6486 130.431 85.7981 129.484C85.8294 129.457 86.2932 128.866 86.3017 128.826C86.5222 127.86 85.7341 125.962 84.6628 125.806C83.6712 125.663 83.1761 125.898 82.3282 126.297C82.6838 125.721 83.2686 125.065 83.9699 124.954C87.2862 124.429 88.7075 130.306 84.8876 131.136C83.6527 131.403 82.6796 130.898 81.4717 130.921C81.7477 132.111 81.8644 133.467 81.7548 134.689C81.7406 134.839 81.4859 136.293 81.1886 135.9C80.9965 132.304 80.0803 129.085 78.9137 125.724C77.8538 122.67 76.7455 119.532 75.6045 116.511C74.2046 112.804 70.968 111.029 67.2178 113.035L62.6922 115.551C62.3522 115.179 64.2372 113.493 64.5773 113.231C65.5049 112.514 68.346 110.997 69.45 110.997H73.7892L73.7934 111Z" fill="#108A65"/>
<path d="M90.1544 215.025C90.6679 215.01 90.7078 214.391 90.8856 214.122C91.2769 213.53 91.7634 212.953 92.1404 212.355C92.4705 211.831 94.1649 208.716 94.5078 208.632L98.9551 211.626L95.9162 216.87L94.5619 214.312C93.4934 214.776 92.6128 215.571 91.7193 216.304C91.2057 215.878 90.5854 215.392 90.1544 215.023V215.025Z" fill="#FBC565"/>
<path d="M146.575 207.258C148.359 208.555 149.892 210.249 151.522 211.7C152.871 212.901 154.494 214.07 155.813 215.312C155.878 215.373 156.422 215.921 156.308 216.019L147.127 211.182L144.996 215.165C144.764 215.221 144.709 214.975 144.633 214.82C144.403 214.347 143.815 211.517 143.555 211.456L135.54 213.456L136.487 212.627L145.855 206.664C146.097 206.861 146.324 207.071 146.575 207.255V207.258Z" fill="#FBC565"/>
<path d="M129.789 220.917C131.717 222.548 131.468 226.799 128.978 227.888C127.942 228.34 127.218 228.353 126.205 227.839C123.95 226.694 123.66 223.298 125.155 221.361C126.406 219.741 128.213 219.585 129.788 220.919L129.789 220.917ZM128.951 226.507C129.726 225.797 129.995 224.276 129.779 223.277C129.189 220.549 125.81 220.882 125.575 223.486C125.473 224.61 125.571 225.73 126.484 226.502C127.048 226.977 128.41 227.002 128.951 226.509V226.507Z" fill="#FBC565"/>
<path d="M134.115 225.982C134.298 225.463 134.326 224.909 134.438 224.384C134.645 223.432 134.996 222.449 135.221 221.467C135.485 220.308 134.892 220.183 136.675 220.29C136.629 220.925 135.559 224.58 135.821 224.844H137.528V220.29C137.795 220.3 138.951 220.192 138.951 220.503V224.844H140.091L140.092 225.901C140.064 226.092 138.951 225.925 138.951 225.982V227.974H137.528V225.982H134.114H134.115Z" fill="#FBC565"/>
<path d="M118.181 227.974C118.887 227.326 119.455 226.541 120.093 225.838C120.369 225.535 120.852 225.235 121.141 224.894C121.372 224.619 122.384 223.155 122.425 222.888C122.496 222.419 121.724 221.521 121.233 221.437C120.934 221.386 120.431 221.389 120.138 221.464C119.635 221.593 119.376 222.396 119.032 222.215C117.871 221.606 118.748 220.714 119.571 220.328C122.183 219.103 124.546 221.82 123.267 224.31C122.842 225.138 121.748 225.641 121.454 226.551H123.588V227.974H118.181Z" fill="#FBC565"/>
<path d="M107.703 212.94C107.252 213.37 106.628 214.43 105.948 214.386C107.335 211.746 109.025 209.248 110.412 206.613C110.59 206.276 110.741 205.88 110.792 205.499C111.395 205.154 113.489 207.256 113.431 207.49C111.589 209.352 109.611 211.123 107.703 212.94Z" fill="#FBC565"/>
<path d="M137.817 208.619L135.683 198.944L139.929 207.02C139.988 207.206 139.921 207.277 139.808 207.407C139.718 207.508 137.91 208.691 137.817 208.619Z" fill="#FBC565"/>
<path d="M133.546 220.29V227.974H132.408V222.567C132.124 222.755 131.932 222.925 131.555 222.851C131.308 221.566 132.531 220.757 133.546 220.29Z" fill="#FBC565"/>
<path d="M126.717 193.252L126.797 193.813L129.561 198.305C129.002 198.285 127.442 196.522 127.016 196.821L121.863 207.463C121.399 207.861 118.772 205.987 118.04 206.059C118.058 205.735 118.221 205.459 118.376 205.187C119.789 202.697 121.873 199.929 123.512 197.515C124.29 196.371 125.352 194.437 126.295 193.47C126.43 193.33 126.483 193.202 126.719 193.255L126.717 193.252Z" fill="#FBC565"/>
</svg>
