<svg width="256" height="256" viewBox="0 0 256 256" fill="none" xmlns="http://www.w3.org/2000/svg">
<g clip-path="url(#clip0_3147_5656)">
<path d="M94.8297 197.696L94.8908 196.697C94.9588 195.65 95.0878 195.365 95.448 195.324L98.2337 195.046C98.3899 195.032 98.4511 195.181 98.4103 195.487C98.3628 195.854 98.1589 196.697 97.8124 198.015C97.6969 198.443 97.629 199.218 97.6086 200.318C97.5882 200.828 97.6154 201.27 97.6697 201.657C97.8939 203.322 98.6889 203.777 100.075 203.002C100.17 202.948 100.279 202.866 100.387 202.785L100.639 202.574C100.89 202.35 101.053 202.241 101.128 202.248C101.169 202.255 101.271 202.35 101.386 202.513L101.434 202.581C101.434 202.581 101.631 203.098 101.971 204.069L102.215 204.796V204.81C102.229 204.939 102.14 205.048 102.039 205.061L95.8081 205.686C95.4615 205.72 95.3257 205.646 95.1558 204.932C95.0743 204.565 95.0131 204.083 94.9656 203.464L94.7821 200.794C94.7481 200.278 94.7617 199.292 94.8365 197.859V197.702L94.8297 197.696Z" fill="#1D1D1B"/>
<path d="M111.279 203.58L108.473 204.049C108.357 204.069 108.255 203.954 108.242 203.784C108.242 203.77 108.31 203.308 108.439 202.425V202.377C108.439 202.099 108.452 201.806 108.48 201.528C108.486 201.236 108.48 201.018 108.473 200.862C108.439 200.4 107.963 200.176 107.325 200.454C106.903 200.638 106.611 200.794 106.441 200.91C105.402 201.589 105.381 202.044 106.475 203.757C106.57 203.899 106.679 204.028 106.801 204.137C106.835 204.178 106.842 204.219 106.822 204.253C106.788 204.3 106.733 204.341 106.666 204.355L103.819 204.83C103.69 204.851 103.499 204.667 103.268 204.253C103.18 204.076 103.071 203.852 102.949 203.546C102.643 202.826 102.487 201.82 102.473 200.522C102.473 200.074 102.487 199.734 102.507 199.51C102.609 198.62 102.732 197.899 102.922 197.342C103.187 196.568 103.513 195.902 103.9 195.331C104.063 195.086 104.254 194.848 104.464 194.624L105.259 193.795C105.409 193.639 105.592 193.537 105.83 193.483C106.068 193.415 106.258 193.415 106.428 193.483C106.598 193.544 106.897 193.666 107.304 193.863C107.603 194.006 107.848 194.149 108.031 194.284C109.75 195.44 110.844 197.471 111.306 200.407C111.327 200.536 111.347 200.746 111.381 201.032C111.571 202.69 111.537 203.539 111.279 203.58ZM107.005 198.592L107.583 198.395C107.793 198.185 107.773 197.886 107.522 197.505L107.223 197.002L107.182 196.935L106.849 196.527C106.604 196.201 106.251 196.187 106.081 196.466C105.986 196.615 105.891 196.819 105.775 197.084L105.517 197.723C105.517 197.784 105.504 197.825 105.497 197.845C105.388 198.327 105.368 198.64 105.436 198.776C105.544 198.98 106.054 198.919 107.005 198.599V198.592Z" fill="#1D1D1B"/>
<path d="M111.918 194.651L111.843 193.931C111.761 193.17 111.958 192.885 112.685 192.708L114.01 192.389C114.248 192.334 114.581 192.429 114.982 192.667C115.464 192.946 116.164 193.578 117.075 194.583C117.455 194.978 117.829 195.419 118.168 195.915C118.114 195.277 117.978 194.645 117.754 194.033C117.659 193.775 117.557 193.517 117.441 193.292C116.796 191.988 116.762 191.668 116.898 191.675L119.201 191.118C119.324 191.084 119.48 191.302 119.69 191.736C119.826 192.001 120.071 192.769 120.458 194.047C120.648 194.638 120.764 195.066 120.825 195.365L120.941 195.902L121.579 198.762C121.905 200.291 121.912 201.107 121.566 201.195L119.222 201.766C119.181 201.779 119.011 201.623 118.739 201.304C118.698 201.256 118.304 200.611 117.557 199.36C117.428 199.143 117.285 198.925 117.129 198.708C116.538 197.92 116.11 197.39 115.852 197.111C115.593 196.833 115.301 196.622 114.982 196.452L115.104 196.955C115.519 198.525 115.845 199.571 116.076 200.108C116.674 201.487 116.918 202.228 116.81 202.336C116.796 202.357 116.782 202.357 116.755 202.364L114.384 202.941C113.868 203.064 113.609 202.418 112.38 197.186C112.332 197.002 112.285 196.737 112.21 196.357C112.067 195.637 111.965 195.1 111.911 194.713V194.651H111.918Z" fill="#1D1D1B"/>
<path d="M122.157 194.115L121.763 192.477C121.552 191.58 121.457 191.016 121.518 190.792C121.572 190.547 121.817 190.364 122.259 190.221L125.092 189.311C125.486 189.181 125.982 189.175 126.58 189.297C127.212 189.426 127.932 189.841 128.727 190.534C128.965 190.744 129.107 190.88 129.182 190.962C129.597 191.403 129.957 191.906 130.256 192.47C131.601 195.012 131.601 196.928 130.595 197.988C130.222 198.382 129.909 198.62 129.631 198.708L124.943 200.216C124.766 200.271 124.61 200.128 124.148 199.387C123.984 199.122 123.726 198.558 123.373 197.675C123.013 196.778 122.66 195.779 122.299 194.672C122.266 194.563 122.204 194.325 122.17 194.23L122.15 194.115H122.157ZM126.104 196.194C126.383 196.812 126.607 197.193 126.804 197.295C127.402 197.648 127.98 197.383 128.156 196.663C128.211 196.418 128.238 196.078 128.224 195.616C128.204 195.127 128.048 194.556 127.749 193.897C127.694 193.782 127.64 193.646 127.538 193.483C127.375 193.157 127.137 192.796 126.825 192.395C126.553 192.076 126.369 191.879 126.261 191.777C125.921 191.478 125.649 191.329 125.438 191.288C125.072 191.227 124.779 191.437 124.732 191.804C124.698 192.069 124.922 192.993 125.405 194.563C125.445 194.685 125.527 194.889 125.629 195.154L126.098 196.194H126.104Z" fill="#1D1D1B"/>
<path d="M131.098 189.752L130.915 188.787C130.806 188.196 130.786 187.802 130.867 187.585C130.949 187.367 131.2 187.177 131.601 187.014L136.167 185.2C136.303 185.145 136.459 185.118 136.622 185.098C136.792 185.098 136.914 185.213 136.901 185.329C136.901 185.716 136.867 186.097 136.806 186.484L136.683 187.116C136.683 187.116 136.473 187.123 136.072 187.129C135.82 187.123 135.549 187.17 135.256 187.252C135.161 187.279 135.025 187.326 134.849 187.401C133.87 187.85 133.524 188.42 133.646 189.317C133.721 189.861 133.938 189.977 134.461 189.691L134.502 189.678C134.672 189.562 134.842 189.433 135.005 189.311C135.134 189.215 135.324 189.107 135.576 188.991C135.61 188.964 135.664 188.944 135.732 188.916C136.344 188.672 136.731 188.597 136.887 188.706C137.037 188.801 137.125 189.181 137.138 189.841C137.145 190.051 137.125 190.309 137.064 190.629L137.023 190.833V190.853C136.921 191.003 136.575 191.07 135.977 191.077C135.902 191.077 135.841 191.084 135.807 191.111C135.63 191.179 135.426 191.403 135.175 191.777C134.951 192.11 134.944 192.565 135.175 193.123C135.549 194.067 136.507 194.448 137.465 193.945C137.865 193.741 138.164 193.53 138.368 193.292L138.796 192.735C138.851 192.667 138.987 192.627 139.442 193.068L140.257 193.87L140.556 194.196C140.706 194.373 140.665 194.556 140.509 194.617L134.258 197.104C134.135 197.152 133.999 197.084 133.857 196.907C133.565 196.527 132.926 195.236 131.961 192.484C131.927 192.389 131.859 192.185 131.818 192.09C131.465 191.043 131.241 190.282 131.132 189.813V189.752H131.098Z" fill="#1D1D1B"/>
<path d="M142.132 193.123C141.195 192.851 140.597 192.26 140.298 191.335C140.278 191.254 140.244 191.125 140.223 190.941C140.196 190.506 140.23 190.221 140.352 190.072C140.441 189.949 140.556 189.929 140.665 189.99C140.746 190.031 140.875 190.126 141.032 190.296C141.072 190.343 141.1 190.377 141.106 190.384L141.249 190.554L141.331 190.656C141.392 190.751 141.63 190.846 142.03 190.962C142.601 191.125 143.138 191.118 143.627 190.955C144.008 190.819 144.286 190.676 144.456 190.52C144.735 190.262 144.857 189.949 144.83 189.596C144.803 189.243 144.64 188.984 144.354 188.821C144.313 188.794 144.252 188.774 144.184 188.726C144.028 188.624 143.851 188.563 143.654 188.55L142.16 188.59L141.555 188.624C140.977 188.645 140.468 188.55 140.046 188.353C139.238 187.958 138.722 187.408 138.504 186.667C138.103 185.376 138.688 184.194 140.257 183.12C140.869 182.706 141.48 182.448 142.105 182.359C143.79 182.122 144.456 182.325 144.504 182.923C144.544 183.78 144.544 184.146 144.313 184.33C144.076 184.507 143.817 184.452 143.118 184.228C143.022 184.194 142.791 184.208 142.452 184.255C141.942 184.35 141.582 184.568 141.344 184.907C140.977 185.444 141.202 186.09 141.793 186.266C141.983 186.334 142.268 186.362 142.635 186.362C142.839 186.362 143.383 186.328 144.286 186.26C144.762 186.226 145.163 186.26 145.489 186.341C146.732 186.688 147.384 187.354 147.67 188.597C147.745 188.93 147.765 189.236 147.738 189.521C147.697 190.065 147.405 190.867 146.888 191.485C146.528 191.927 146.039 192.28 145.434 192.586C144.178 193.211 143.07 193.401 142.132 193.129V193.123Z" fill="#1D1D1B"/>
<path d="M158.731 185.132L155.898 186.83C154.824 187.469 153.377 186.98 152.1 185.268C151.522 184.473 151.115 183.596 150.884 182.645C150.632 181.639 150.544 180.756 150.578 180.015C150.659 178.996 150.911 178.194 151.312 177.603C152.073 176.495 153.241 176.067 154.804 176.332C155.422 176.448 156.081 176.706 156.788 177.134C157.162 177.345 157.596 177.705 158.099 178.208C160.919 181.021 161.068 183.345 159.139 184.846C159.05 184.914 158.908 185.016 158.724 185.132H158.731ZM156.448 183.773C156.91 183.481 157.175 183.202 157.284 182.957C157.393 182.713 157.345 182.332 157.189 181.823C157.046 181.422 156.632 180.831 155.925 180.069C155.66 179.791 155.436 179.594 155.28 179.465C154.845 179.105 154.457 178.853 154.145 178.69C153.642 178.439 153.221 178.69 153.187 179.295C153.146 179.703 153.187 180.226 153.336 180.864C153.52 181.761 153.812 182.502 154.213 183.12C154.899 184.18 155.545 184.364 156.448 183.773Z" fill="#1D1D1B"/>
<path d="M166.898 175.198C167.374 175.198 167.781 175.571 168.128 176.258C168.705 177.413 168.42 178.717 167.231 179.832C167.02 180.029 166.776 180.212 166.511 180.382C165.763 180.844 165.131 181.116 164.581 181.197C164.031 181.279 163.44 181.211 162.787 180.994C162.631 180.946 162.488 180.885 162.353 180.817C161.632 180.504 160.973 180.002 160.369 179.288C159.281 178.031 158.69 176.781 158.602 175.537C158.48 173.757 159.064 172.52 160.559 171.379C160.844 171.161 161.13 170.991 161.388 170.862C162.223 170.482 162.889 170.407 163.412 170.645C163.834 170.828 164.078 171.161 164.18 171.637C164.275 172.113 164.167 172.554 163.834 172.989C163.807 173.023 163.752 173.098 163.664 173.173C163.399 173.424 163.236 173.54 163.141 173.533C163.052 173.526 162.903 173.383 162.685 173.098C162.454 172.785 161.938 172.894 161.503 173.404C161.028 174.008 161.089 174.885 161.673 176.04C161.802 176.298 161.952 176.55 162.122 176.774C162.685 177.521 163.29 177.997 163.949 178.174C164.479 178.316 165.016 178.282 165.526 178.085C166.565 177.651 167.102 176.747 166.966 175.53L166.905 175.211L166.898 175.198Z" fill="#1D1D1B"/>
<path d="M165.933 170.706L165.505 169.823C165.247 169.279 165.125 168.905 165.152 168.674C165.172 168.443 165.363 168.192 165.709 167.934L169.643 164.992C169.758 164.903 169.901 164.835 170.051 164.774C170.214 164.727 170.363 164.808 170.377 164.924C170.479 165.297 170.547 165.678 170.581 166.065L170.628 166.711C170.628 166.711 170.424 166.772 170.037 166.881C169.792 166.935 169.541 167.057 169.283 167.213C169.195 167.261 169.079 167.349 168.93 167.458C168.101 168.151 167.917 168.79 168.271 169.619C168.488 170.122 168.726 170.176 169.154 169.768L169.188 169.741C169.324 169.585 169.453 169.422 169.575 169.252C169.677 169.123 169.833 168.973 170.044 168.797C170.071 168.756 170.119 168.722 170.173 168.681C170.703 168.287 171.056 168.11 171.233 168.178C171.403 168.233 171.586 168.579 171.77 169.211C171.831 169.415 171.878 169.666 171.906 169.993L171.919 170.203V170.224C171.865 170.387 171.552 170.55 170.975 170.713C170.9 170.733 170.846 170.754 170.818 170.794C170.669 170.91 170.526 171.175 170.384 171.603C170.254 171.984 170.37 172.418 170.73 172.908C171.342 173.723 172.361 173.845 173.156 173.105C173.489 172.806 173.72 172.52 173.856 172.242L174.127 171.596C174.161 171.521 174.284 171.447 174.834 171.753L175.833 172.316L176.206 172.554C176.39 172.683 176.403 172.874 176.268 172.976L170.88 176.998C170.778 177.073 170.628 177.046 170.438 176.917C170.057 176.624 169.106 175.544 167.455 173.139C167.394 173.057 167.279 172.88 167.217 172.799C166.599 171.875 166.185 171.202 165.96 170.781L165.94 170.726L165.933 170.706Z" fill="#1D1D1B"/>
<path d="M183.755 166.881L181.567 168.695C181.479 168.77 181.329 168.722 181.227 168.579C181.221 168.566 181.044 168.131 180.718 167.309L180.704 167.268C180.562 167.03 180.426 166.772 180.303 166.514C180.168 166.255 180.052 166.072 179.957 165.943C179.699 165.562 179.176 165.603 178.761 166.167C178.489 166.541 178.313 166.819 178.224 167.003C177.667 168.117 177.878 168.518 179.685 169.449C179.841 169.524 179.998 169.578 180.161 169.619C180.208 169.632 180.235 169.666 180.235 169.707C180.235 169.768 180.202 169.83 180.147 169.87L177.925 171.712C177.823 171.793 177.565 171.732 177.158 171.488C176.995 171.379 176.784 171.236 176.526 171.039C175.894 170.57 175.255 169.775 174.596 168.661C174.365 168.274 174.216 167.975 174.12 167.771C173.76 166.948 173.509 166.262 173.387 165.691C173.23 164.89 173.176 164.149 173.217 163.463C173.237 163.171 173.285 162.865 173.353 162.566L173.624 161.451C173.672 161.241 173.788 161.057 173.964 160.894C174.134 160.718 174.297 160.622 174.481 160.595C174.657 160.561 174.977 160.521 175.432 160.48C175.765 160.453 176.043 160.459 176.268 160.48C178.333 160.616 180.303 161.818 182.179 164.129C182.26 164.231 182.389 164.4 182.559 164.631C183.558 165.97 183.952 166.724 183.755 166.887V166.881ZM177.552 164.727L177.953 164.265C178.034 163.979 177.857 163.728 177.45 163.524L176.933 163.238L176.865 163.204L176.376 163.014C176.003 162.858 175.69 163.021 175.683 163.347C175.683 163.517 175.697 163.748 175.731 164.033L175.826 164.713C175.853 164.767 175.867 164.808 175.867 164.828C176.016 165.304 176.152 165.583 176.274 165.664C176.465 165.787 176.886 165.474 177.545 164.72L177.552 164.727Z" fill="#1D1D1B"/>
<path d="M179.855 158.829L179.441 158.237C178.992 157.612 179.026 157.266 179.57 156.756L180.568 155.825C180.745 155.655 181.085 155.581 181.554 155.594C182.111 155.601 183.028 155.805 184.319 156.24C184.842 156.403 185.386 156.6 185.922 156.865C185.562 156.335 185.134 155.852 184.638 155.431C184.428 155.254 184.21 155.078 184.006 154.942C182.804 154.12 182.62 153.855 182.743 153.8L184.475 152.183C184.57 152.095 184.808 152.204 185.209 152.482C185.46 152.645 186.051 153.189 187.016 154.12C187.472 154.541 187.784 154.86 187.981 155.085L188.341 155.492L190.298 157.673C191.338 158.849 191.738 159.549 191.473 159.8L189.707 161.445C189.707 161.445 189.455 161.424 189.061 161.282C189 161.261 188.341 160.894 187.077 160.167C186.86 160.038 186.629 159.916 186.391 159.807C185.488 159.413 184.856 159.155 184.496 159.039C184.135 158.924 183.782 158.883 183.415 158.89L183.769 159.27C184.896 160.439 185.698 161.186 186.16 161.54C187.356 162.443 187.934 162.973 187.893 163.123C187.893 163.143 187.879 163.15 187.859 163.171L186.072 164.835C185.685 165.195 185.141 164.761 181.506 160.806C181.377 160.67 181.2 160.459 180.949 160.167C180.473 159.61 180.12 159.195 179.882 158.883L179.855 158.829Z" fill="#1D1D1B"/>
<path d="M189.279 147.284L192.771 143.486C192.995 143.241 193.322 143.058 193.736 142.928C193.981 142.86 194.198 142.827 194.422 142.82C195.156 142.813 195.768 143.119 196.284 143.771C196.753 144.362 196.923 145.137 196.78 146.591C196.759 146.788 196.787 146.836 196.997 146.89H197.018L198.044 146.897C198.445 146.91 198.974 147.012 199.64 147.175C199.878 147.236 200.075 147.298 200.252 147.386C201.93 148.127 202.202 148.595 202.005 148.745L200.218 150.688C200.218 150.688 200.136 150.749 200.082 150.777C200 150.797 199.858 150.743 199.64 150.62L199.287 150.43L198.642 150.05L198.499 149.975C197.806 149.669 197.33 149.486 197.072 149.404C196.814 149.322 196.59 149.288 196.42 149.329C196.053 149.384 195.829 149.818 195.999 150.213C196.134 150.512 196.461 150.851 196.977 151.211C197.147 151.327 197.323 151.429 197.507 151.524C198.608 152.088 198.73 152.319 198.655 152.401L196.624 154.609C196.399 154.854 195.632 154.303 194.361 152.951C193.519 152.04 192.622 151.211 191.664 150.471C189.197 148.589 189.014 147.603 189.306 147.284H189.279ZM194.402 148.147C194.456 148.025 194.483 147.868 194.517 147.685C194.667 146.632 194.449 145.979 193.858 145.748C193.437 145.592 193.09 145.646 192.826 145.911C192.302 146.462 192.275 146.869 192.724 147.42C192.948 147.685 193.104 147.963 193.682 148.5C193.892 148.677 194.212 148.541 194.402 148.147Z" fill="#1D1D1B"/>
<path d="M195.598 140.842C195.469 140.639 195.482 140.448 195.645 140.244L197.12 138.464C197.215 138.355 197.405 138.464 197.69 138.79C197.955 139.083 198.356 139.585 198.907 140.319C199.104 140.577 199.484 140.951 200.041 141.447C200.544 141.902 201.013 142.256 201.468 142.5C202.684 143.173 203.452 143.058 203.771 142.154C203.968 141.624 203.826 141.209 203.207 140.496C202.643 139.823 201.556 138.974 199.966 137.941C199.715 137.791 199.545 137.683 199.416 137.635C198.458 137.173 198.302 137.044 198.444 136.867L199.932 135.073C200.068 134.91 200.333 134.904 200.727 135.04C201.264 135.243 202.079 135.787 203.167 136.691L204.22 137.56C204.294 137.622 204.43 137.757 204.614 137.921C205.49 138.797 206.054 139.49 206.319 139.986C207.094 141.508 207.067 142.711 206.136 144.124C205.959 144.403 205.769 144.661 205.572 144.851C204.967 145.47 204.261 145.85 203.452 145.986C202.195 146.217 200.741 145.701 199.104 144.437C198.73 144.145 198.159 143.615 197.405 142.86C197.351 142.813 197.269 142.731 197.181 142.636C196.27 141.637 195.74 141.046 195.604 140.842H195.598Z" fill="#1D1D1B"/>
<path d="M208.392 133.178L209.071 130.351C209.105 130.215 209.173 130.14 209.282 130.168C209.39 130.195 209.689 130.317 210.212 130.555L210.708 130.779C213.209 131.914 213.82 133.286 212.815 135.495C212.686 135.794 212.543 136.025 212.393 136.222C211.959 136.827 211.476 137.275 210.967 137.594C210.029 138.152 209.003 138.328 207.875 138.152C207.087 138.029 206.265 137.642 205.409 136.99C205.096 136.738 204.784 136.432 204.485 136.086C203.092 134.401 202.698 132.987 203.133 131.255C203.214 130.901 203.35 130.535 203.547 130.147C203.921 129.454 204.301 128.917 204.702 128.557C205.225 128.068 205.742 127.844 206.251 127.905C206.754 127.959 207.101 128.238 207.298 128.741C207.427 128.999 207.447 129.305 207.366 129.651C207.366 129.672 207.345 129.726 207.325 129.801C207.182 130.249 207.073 130.528 206.971 130.609C206.876 130.684 206.693 130.67 206.435 130.562C206 130.399 205.653 130.568 205.395 131.092C205.185 131.493 205.273 132.097 205.653 132.899C205.918 133.477 206.319 133.973 206.876 134.408C208.371 135.549 209.54 135.719 210.131 135.209C210.695 134.72 210.763 134.197 210.308 133.653C209.975 133.259 209.485 133.144 208.854 133.3L208.595 133.375C208.527 133.416 208.487 133.402 208.446 133.354C208.398 133.3 208.378 133.232 208.392 133.171V133.178Z" fill="#1D1D1B"/>
<path d="M207.298 125.663C207.25 125.425 207.386 125.065 207.698 124.603L209.703 121.626C209.975 121.219 210.24 120.933 210.498 120.757C211.565 120.023 212.557 120.295 213.243 121.518C213.317 121.64 213.379 121.803 213.453 122.027C213.508 122.184 213.555 122.387 213.616 122.639C213.725 123.04 213.793 123.278 213.827 123.352C213.847 123.42 213.895 123.434 213.943 123.413C213.99 123.393 214.038 123.373 214.072 123.379H214.085L214.704 123.216C215.349 123.06 215.933 123.006 216.477 123.08C217.374 123.216 218.019 123.515 218.42 123.977C219.195 124.861 219.235 125.669 218.508 127.035C218.4 127.219 218.332 127.348 218.277 127.429L215.709 131.241C215.621 131.37 215.424 131.357 215.104 131.241L214.615 131.017L214.561 130.997C213.718 130.548 212.842 130.045 211.931 129.468C209.975 128.204 208.677 127.28 208.045 126.695C207.576 126.26 207.325 125.914 207.291 125.683L207.298 125.663ZM211.762 124.236C211.694 123.998 211.605 123.767 211.503 123.543C211.252 123.094 210.736 123.04 210.423 123.4C210.056 123.841 210.131 124.48 210.736 125.119C211.048 125.452 211.367 125.615 211.707 125.601C211.918 125.187 211.931 124.908 211.762 124.236ZM213.725 127.028C213.943 127.246 214.187 127.422 214.425 127.552C214.853 127.789 215.179 127.905 215.397 127.912C215.607 127.912 215.804 127.789 216.028 127.538C216.137 127.402 216.225 127.273 216.259 127.144C216.477 126.546 216.287 126.07 215.675 125.724C215.478 125.608 215.254 125.527 214.989 125.486C213.929 125.343 213.671 125.642 213.705 126.824L213.725 127.028Z" fill="#1D1D1B"/>
<path d="M211.863 118.358L213.134 116.258C213.154 116.224 213.182 116.204 213.216 116.204L213.338 116.163C213.413 116.122 213.487 116.136 213.562 116.184C213.644 116.218 213.888 116.367 214.309 116.639C214.52 116.788 214.71 116.897 214.839 116.979C215.111 117.162 215.594 117.318 216.3 117.427C216.484 117.454 216.633 117.461 216.735 117.454C217.231 117.434 217.523 117.21 217.394 116.999C217.34 116.863 217.238 116.673 217.088 116.394L216.694 115.715H216.681C216.681 115.715 216.599 115.592 216.463 115.423C216.137 115.076 215.818 114.797 215.512 114.607C215.145 114.403 214.921 114.281 214.792 114.24C214.588 114.166 214.513 113.955 214.602 113.805L215.77 111.876C216.09 111.346 216.783 111.651 217.87 112.759C218.08 112.97 218.339 113.343 218.644 113.901L219.562 116.021L219.779 116.489C220.125 117.223 220.445 117.746 220.73 118.107C221.022 118.453 221.457 118.82 222.028 119.18C222.211 119.289 222.361 119.384 222.463 119.425C222.884 119.649 223.034 119.839 222.938 119.996L221.627 122.156C221.525 122.326 221.348 122.34 221.117 122.197L220.737 121.966H220.723C220.153 121.545 219.718 121.13 219.398 120.682C218.869 119.839 218.848 119.873 218.576 119.799L217.163 120.084C217.068 120.111 216.871 120.125 216.606 120.145C215.56 120.233 214.731 120.165 214.119 119.982C211.938 119.282 211.565 118.82 211.857 118.344L211.863 118.358Z" fill="#1D1D1B"/>
<path d="M227.572 103.681C227.993 103.464 228.523 103.593 229.155 104.027C230.215 104.768 230.582 106.059 230.059 107.602C229.964 107.873 229.841 108.152 229.685 108.424C229.244 109.185 228.822 109.722 228.374 110.061C227.925 110.394 227.375 110.612 226.702 110.734C226.539 110.761 226.39 110.782 226.24 110.788C225.459 110.856 224.644 110.72 223.767 110.388C222.211 109.796 221.097 108.981 220.431 107.921C219.48 106.413 219.405 105.047 220.18 103.328C220.329 103.001 220.499 102.716 220.669 102.478C221.226 101.744 221.777 101.364 222.347 101.323C222.802 101.282 223.183 101.459 223.489 101.833C223.801 102.2 223.91 102.648 223.828 103.185C223.822 103.232 223.808 103.321 223.767 103.43C223.652 103.776 223.563 103.953 223.475 103.994C223.394 104.034 223.19 103.98 222.864 103.824C222.51 103.661 222.109 104 221.967 104.653C221.838 105.407 222.306 106.154 223.366 106.895C223.604 107.065 223.849 107.208 224.114 107.33C224.963 107.717 225.724 107.853 226.383 107.69C226.92 107.561 227.375 107.275 227.728 106.868C228.442 105.991 228.476 104.945 227.783 103.939L227.572 103.688V103.681Z" fill="#1D1D1B"/>
<path d="M224.644 99.9777L223.808 99.4205C222.938 98.8294 222.762 98.5712 222.911 98.245L224.087 95.7037C224.155 95.561 224.318 95.5882 224.555 95.7785C224.848 96.0095 225.466 96.6142 226.431 97.5791C226.743 97.8985 227.375 98.3469 228.313 98.9245C228.741 99.2031 229.135 99.4002 229.495 99.5496C231.044 100.202 231.839 99.7467 231.873 98.1635C231.873 98.0548 231.859 97.9189 231.839 97.783L231.785 97.4568C231.717 97.1239 231.71 96.9336 231.751 96.8724C231.785 96.8385 231.907 96.8045 232.111 96.7841H232.192C232.192 96.7841 232.736 96.8657 233.748 97.0695L234.496 97.2258H234.509C234.625 97.2869 234.672 97.4228 234.632 97.5112L232.002 103.199C231.859 103.511 231.724 103.593 231.017 103.375C230.657 103.26 230.208 103.069 229.658 102.791L227.266 101.595C226.804 101.364 225.962 100.854 224.766 100.059L224.63 99.9777H224.644Z" fill="#1D1D1B"/>
<path d="M226.003 92.3198C225.819 92.1636 225.772 91.9801 225.867 91.7355L226.736 89.5951C226.791 89.4592 227.008 89.5067 227.375 89.731C227.715 89.928 228.252 90.2882 228.992 90.825C229.257 91.0084 229.733 91.253 230.412 91.5588C231.024 91.8374 231.581 92.0345 232.084 92.1296C233.443 92.4014 234.142 92.0684 234.176 91.1036C234.204 90.5396 233.945 90.1862 233.137 89.6902C232.396 89.2214 231.105 88.7389 229.284 88.2293C228.999 88.1614 228.802 88.1138 228.666 88.1002C227.613 87.9507 227.423 87.876 227.511 87.6585L228.388 85.5045C228.469 85.3075 228.72 85.2192 229.135 85.2327C229.712 85.2667 230.657 85.5385 231.955 86.0685L233.218 86.5849C233.313 86.6257 233.477 86.7072 233.701 86.8092C234.801 87.3799 235.549 87.8692 235.943 88.2633C237.139 89.4796 237.472 90.6415 237.01 92.2655C236.921 92.5848 236.819 92.8838 236.69 93.1284C236.296 93.8963 235.739 94.4806 235.012 94.8476C233.884 95.4455 232.342 95.3912 230.399 94.6777C229.957 94.5146 229.25 94.1817 228.306 93.6856C228.238 93.6584 228.136 93.6041 228.027 93.5429C226.859 92.8634 226.173 92.4625 225.989 92.3063L226.003 92.3198Z" fill="#1D1D1B"/>
<path d="M229.604 83.0516C229.495 82.8341 229.536 82.4536 229.726 81.9236L230.908 78.5329C231.071 78.0709 231.248 77.7244 231.452 77.4933C232.294 76.5081 233.327 76.5216 234.299 77.5273C234.401 77.6224 234.502 77.7651 234.632 77.9622C234.72 78.0981 234.822 78.2883 234.944 78.5126C235.155 78.8727 235.277 79.0833 235.331 79.1513C235.372 79.2124 235.42 79.2124 235.46 79.1785C235.501 79.1445 235.542 79.1173 235.576 79.1105H235.59L236.147 78.7912C236.731 78.4786 237.288 78.2747 237.825 78.2068C238.729 78.1117 239.428 78.234 239.931 78.5737C240.903 79.2328 241.154 80.0006 240.794 81.5091C240.74 81.7198 240.706 81.8557 240.672 81.9508L239.157 86.2927C239.102 86.4422 238.912 86.483 238.572 86.4422L238.042 86.3471H237.981C237.05 86.1229 236.079 85.8647 235.053 85.5317C232.838 84.8047 231.35 84.2407 230.589 83.8398C230.025 83.534 229.692 83.269 229.597 83.0516H229.604ZM233.558 80.5307C233.436 80.32 233.293 80.1162 233.13 79.9259C232.77 79.559 232.253 79.6337 232.043 80.0686C231.798 80.5918 232.036 81.1898 232.783 81.6518C233.171 81.8964 233.524 81.9712 233.85 81.8693C233.945 81.414 233.891 81.1354 233.558 80.5307ZM236.167 82.7322C236.432 82.8885 236.711 82.9972 236.982 83.0584C237.458 83.1807 237.798 83.2079 238.015 83.1603C238.212 83.1059 238.382 82.9361 238.532 82.6371C238.599 82.4808 238.654 82.3313 238.654 82.1954C238.708 81.5635 238.409 81.149 237.723 80.9723C237.499 80.9112 237.268 80.8908 236.996 80.918C235.929 81.0471 235.759 81.4004 236.099 82.5352L236.167 82.7254V82.7322Z" fill="#1D1D1B"/>
<path d="M8.79169e-07 159.63C1.00557 154.901 1.48798 150.077 2.71097 145.388C7.22247 128.068 15.5524 112.684 26.4031 98.578C44.3811 75.1966 66.6736 56.9998 93.0155 43.8041C105.252 37.6751 117.999 32.9186 131.438 29.9153C145.598 26.742 159.811 25.5054 174.141 27.6526C178.428 28.2981 182.953 28.8281 186.921 31.0228C187.587 31.3898 188.912 31.3626 188.701 32.3614C188.464 33.5098 187.186 33.0341 186.344 33.0477C183.789 33.1021 181.227 33.1021 178.673 33.0613C163.372 32.8235 148.54 35.6162 134.02 40.1756C104.369 49.4846 78.5299 65.3712 55.49 86.0142C38.7689 101.004 24.8812 118.222 14.5944 138.247C9.19285 148.765 5.02787 159.719 2.77892 171.358C2.49355 172.833 2.50714 174.307 2.45278 175.782C2.4324 176.305 2.28292 176.876 1.71899 176.896C1.08711 176.923 1.06672 176.298 0.99878 175.809C0.665854 173.383 0.326133 170.951 -0.013588 168.525C-0.013588 165.556 -0.013588 162.586 -0.013588 159.624L8.79169e-07 159.63Z" fill="#E05097"/>
<path d="M40.5083 162.172C41.2693 146.224 46.9019 133.042 56.1083 121.096C62.8959 112.297 71.3278 105.42 80.1809 98.9381C80.4459 98.7411 80.7313 98.51 81.0302 98.4489C81.7097 98.3198 82.4095 97.3821 83.0278 98.082C83.714 98.8498 82.987 99.5836 82.4774 100.236C74.8133 110.095 69.8874 121.191 67.5365 133.429C66.429 139.212 66.2116 145.035 67.3463 150.851C69.0517 159.583 74.1882 165.821 81.6553 170.319C84.6652 172.133 84.9642 172.982 83.4626 176.183C82.8035 177.596 82.029 179.016 81.7232 180.511C81.2544 182.842 80.1333 182.808 78.2785 182.115C75.4044 181.048 72.7342 179.614 70.0844 178.113C69.5884 177.834 68.9837 176.998 68.4062 177.793C67.8558 178.547 68.5353 179.071 69.0652 179.648C71.8442 182.665 75.1938 185.03 78.2717 187.7C79.2705 188.563 79.6917 189.528 79.7325 190.894C79.9159 196.907 81.6825 202.37 85.698 206.984C85.9969 207.324 86.6084 207.603 86.3367 208.18C86.0785 208.737 85.5077 208.595 85.0321 208.493C72.0752 205.652 60.151 200.801 51.3182 190.384C45.8963 183.99 42.2341 176.726 41.4663 168.199C41.2625 165.916 40.2705 163.735 40.5083 162.172Z" fill="#E05097"/>
<path d="M93.5727 229.428C88.769 229.428 83.9654 229.428 79.1549 229.428C74.3309 229.299 69.4729 229.407 64.9546 226.975C68.6712 226.975 72.3877 226.927 76.0975 226.988C81.2137 227.07 86.2755 226.526 91.3645 226.051C95.3528 225.677 99.1985 224.631 103.166 224.209C105.368 223.978 107.685 223.088 109.9 222.375C121.79 218.563 133.66 214.662 144.925 209.159C161.809 200.903 177.355 190.649 191.976 178.853C211.062 163.463 226.587 145.062 239.354 124.256C245.618 114.043 250.306 103.083 253.88 91.654C254.03 91.1851 254.186 90.7163 254.315 90.2338C254.458 89.7038 254.723 89.2893 255.327 89.398C255.939 89.5068 256.014 90.0707 255.993 90.56C255.959 91.3822 255.912 92.2111 255.749 93.0129C251.862 111.842 243.818 128.809 232.933 144.566C225.554 155.248 217.421 165.284 207.889 174.09C194.545 186.409 180.29 197.553 164.371 206.461C144.585 217.53 123.821 225.704 101.162 228.477C98.6345 228.789 96.107 229.115 93.5727 229.441V229.428Z" fill="#E05097"/>
<path d="M194.225 105.353C191.895 105.325 189.659 105.06 187.539 104C186.391 103.43 186.371 102.832 187.173 101.941C188.436 100.549 190.101 99.8962 191.8 99.2643C195.686 97.8102 199.817 97.3685 204.002 96.5667C202.976 94.0662 201.495 92.2179 199.837 90.5056C194.103 84.5465 186.996 80.8636 179.203 78.4854C161.707 73.131 144.123 74.3541 126.587 78.2748C123.991 78.8523 121.77 78.9339 119.33 77.6224C115.797 75.7199 111.986 74.3949 108.113 73.3077C103.581 72.037 99.0014 71.0246 93.6202 71.2624C98.0094 74.721 100.544 78.7436 102.304 83.3506C102.915 84.9542 102.562 85.7628 101.203 86.7344C95.5363 90.7842 90.6103 95.6358 86.4929 101.255C83.5034 105.339 80.5002 109.457 79.0802 114.587C95.2985 106.48 111.727 100.827 129.95 105.373C123.421 107.201 116.932 108.906 110.606 111.183C97.8939 115.756 85.7048 121.327 74.9152 129.638C73.2166 130.942 72.4964 132.485 72.1975 134.571C71.4025 140.075 71.8985 145.592 71.7694 151.103C71.749 152.115 71.7422 153.223 72.7546 153.705C73.8281 154.215 74.3173 153.066 74.9424 152.509C92.1119 137.187 111.992 126.994 134.135 120.967C136.473 120.329 136.819 120.988 136.581 123.013C135.875 129.026 133.864 134.557 130.473 139.782C130.942 139.782 131.275 139.864 131.56 139.769C140.712 136.779 147.575 130.752 151.746 122.36C154.165 117.502 157.522 116.598 162.026 116.605C164.085 116.605 166.151 116.605 168.209 116.571C170.798 116.53 173.339 116.211 176.084 115.416C174.236 113.67 172.605 112.107 171.96 109.321C177.022 112.501 181.615 115.525 187.621 113.697C192.961 112.073 198.247 110.483 202.365 105.733C199.403 105.013 196.78 105.393 194.205 105.359L194.225 105.353ZM174.902 92.9518C173.421 94.3244 171.939 95.4863 169.344 94.4942C165.329 92.9518 161.075 91.919 156.666 91.9597C155.286 91.9733 153.853 92.0617 152.453 91.1783C156.795 85.7628 165.084 84.3698 172.272 87.7809C173.081 88.1614 173.923 88.5487 174.61 89.1127C176.003 90.2474 176.138 91.8102 174.895 92.9586L174.902 92.9518ZM184.672 92.8703C183.823 92.9178 183.205 92.4286 183.096 91.6811C182.974 90.8114 183.728 90.4241 184.468 90.3493C185.263 90.2746 185.793 90.7706 186.099 91.5045C185.936 92.3063 185.515 92.8227 184.665 92.8703H184.672Z" fill="#1D1D1B"/>
</g>
<defs>
<clipPath id="clip0_3147_5656">
<rect width="256" height="256" fill="white"/>
</clipPath>
</defs>
</svg>
