<svg width="256" height="256" viewBox="0 0 256 256" fill="none" xmlns="http://www.w3.org/2000/svg">
<g clip-path="url(#clip0_3116_439)">
<path d="M36.4985 218.819C35.0621 217.579 33.9417 216.154 33.1399 214.544C32.3381 212.934 31.9359 211.227 31.9359 209.423C31.9359 207.62 32.3303 205.911 33.1216 204.303C33.9103 202.693 35.036 201.271 36.4985 200.028V218.819ZM60.1991 209.423C60.1991 211.206 59.8283 212.876 59.0866 214.432C58.3449 215.987 57.3316 217.341 56.0518 218.492C54.7721 219.646 53.2757 220.554 51.5624 221.217C49.8492 221.88 48.0132 222.211 46.0493 222.211C44.4222 222.211 42.8474 221.966 41.3274 221.478C39.8074 220.987 38.4128 220.277 37.1436 219.341V199.506C38.4128 198.549 39.8022 197.826 41.3091 197.338C42.816 196.85 44.3987 196.604 46.0493 196.604C48.0132 196.604 49.857 196.936 51.5807 197.599C53.3044 198.261 54.8009 199.175 56.0701 200.339C57.3394 201.503 58.3449 202.862 59.0866 204.415C59.8283 205.971 60.1991 207.641 60.1991 209.423ZM58.9795 209.408C58.9795 207.779 58.6426 206.253 57.9714 204.83C57.3002 203.408 56.3757 202.168 55.2004 201.117C54.0252 200.062 52.6515 199.232 51.0819 198.624C49.5123 198.016 47.8252 197.711 46.0284 197.711C44.5893 197.711 43.2 197.922 41.855 198.348C40.5126 198.77 39.2773 199.373 38.149 200.156V218.628C39.2747 219.411 40.51 220.019 41.855 220.452C43.1973 220.886 44.5893 221.105 46.0284 221.105C47.8278 221.105 49.5123 220.802 51.0819 220.194C52.6515 219.586 54.02 218.756 55.1822 217.702C56.3443 216.647 57.2689 215.41 57.9531 213.988C58.6374 212.566 58.9795 211.039 58.9795 209.41V209.408Z" fill="#0A034F"/>
<path d="M64.8322 221.689V198.071H63.179V197.157H68.9246V221.689H64.8322ZM69.716 221.689V197.157H70.7214V220.711H79.1597V221.689H69.716Z" fill="#0A034F"/>
<path d="M88.9167 221.689V212.033L81.6616 197.157H86.1876L93.1189 211.48V221.689H88.9167ZM94.8791 211.088V221.689H93.8736V211.088L87.086 197.157H88.1985L94.3228 209.75L99.0421 197.157H100.118L94.8739 211.088H94.8791Z" fill="#0A034F"/>
<path d="M104.926 221.689V198.071H103.022V197.158H109.019V221.689H104.923H104.926ZM115.088 221.689V202.241C115.088 201.719 114.973 201.221 114.743 200.743C114.513 200.266 114.2 199.843 113.803 199.472C113.406 199.102 112.946 198.799 112.427 198.559C111.907 198.321 111.359 198.167 110.779 198.102V221.689H109.773V197.158H110.024C111.077 197.158 112.035 197.343 112.897 197.711C113.759 198.081 114.49 198.656 115.088 199.438V197.155H119.18V221.687H115.088V221.689ZM125.25 221.689V202.437C125.25 201.894 125.143 201.372 124.926 200.874C124.712 200.375 124.412 199.929 124.028 199.538C123.644 199.146 123.189 198.825 122.664 198.577C122.137 198.327 121.575 198.17 120.977 198.105V221.692H119.972V197.16H120.222C121.056 197.16 121.836 197.285 122.563 197.536C123.289 197.786 123.926 198.144 124.472 198.611C125.02 199.078 125.454 199.634 125.775 200.276C126.096 200.918 126.258 201.631 126.258 202.414V221.695H125.253L125.25 221.689Z" fill="#0A034F"/>
<path d="M131.267 221.689V198.071H129.651V197.157H135.469V221.689H131.267ZM148.969 208.249C148.969 209.75 148.669 211.159 148.07 212.474C147.472 213.79 146.644 214.948 145.592 215.948C144.537 216.947 143.299 217.754 141.876 218.362C140.45 218.97 138.914 219.307 137.261 219.374V221.692H136.255V197.16C138.123 197.16 139.833 197.45 141.39 198.024C142.946 198.601 144.286 199.389 145.412 200.388C146.537 201.388 147.41 202.562 148.034 203.912C148.655 205.261 148.969 206.707 148.969 208.249ZM147.963 208.283C147.963 206.913 147.689 205.624 147.138 204.418C146.587 203.212 145.827 202.15 144.858 201.237C143.889 200.323 142.758 199.59 141.466 199.034C140.173 198.481 138.773 198.17 137.263 198.105V218.461C138.773 218.396 140.173 218.085 141.466 217.532C142.758 216.979 143.889 216.243 144.858 215.329C145.827 214.416 146.587 213.356 147.138 212.148C147.689 210.942 147.963 209.653 147.963 208.283Z" fill="#0A034F"/>
<path d="M153.085 221.689V198.071H151.432V197.157H157.177V221.689H153.085ZM157.969 221.689V197.157H158.974V221.689H157.969Z" fill="#0A034F"/>
<path d="M166.665 218.722C165.205 217.503 164.093 216.091 163.325 214.481C162.557 212.871 162.176 211.175 162.176 209.392C162.176 207.61 162.565 205.945 163.343 204.334C164.122 202.724 165.229 201.312 166.665 200.093V218.722ZM190.222 209.392C190.222 211.044 189.893 212.623 189.235 214.121C188.577 215.622 187.613 216.971 186.344 218.166L188.679 221.689H187.459L185.628 218.85C184.312 219.938 182.852 220.758 181.249 221.313C179.645 221.867 177.955 222.146 176.185 222.146C174.558 222.146 172.988 221.901 171.481 221.413C169.974 220.922 168.585 220.212 167.316 219.275V199.571C168.585 198.614 169.966 197.891 171.463 197.403C172.959 196.912 174.534 196.669 176.185 196.669C178.123 196.669 179.948 197.001 181.661 197.664C183.372 198.327 184.863 199.23 186.133 200.373C187.402 201.516 188.399 202.862 189.131 204.418C189.862 205.973 190.225 207.63 190.225 209.392H190.222ZM189.217 209.408C189.217 207.779 188.875 206.247 188.193 204.815C187.511 203.382 186.574 202.132 185.388 201.067C184.203 200.002 182.816 199.167 181.233 198.559C179.65 197.951 177.961 197.645 176.161 197.645C174.746 197.645 173.367 197.846 172.024 198.248C170.682 198.65 169.447 199.243 168.319 200.023V218.852C169.444 219.612 170.679 220.199 172.024 220.611C173.367 221.024 174.746 221.23 176.161 221.23C177.961 221.23 179.656 220.919 181.251 220.301C182.847 219.682 184.231 218.839 185.406 217.777C186.582 216.715 187.511 215.46 188.196 214.014C188.88 212.568 189.219 211.034 189.219 209.405L189.217 209.408Z" fill="#0A034F"/>
<path d="M207.36 215.361C207.36 216.274 207.175 217.127 206.804 217.921C206.433 218.714 205.918 219.411 205.26 220.009C204.602 220.606 203.837 221.081 202.962 221.428C202.087 221.775 201.149 221.95 200.144 221.95C199.139 221.95 198.198 221.775 197.326 221.428C196.451 221.081 195.681 220.614 195.01 220.024C194.338 219.437 193.813 218.74 193.429 217.936C193.046 217.133 192.855 216.271 192.855 215.358V197.155H194.075V215.332C194.075 216.091 194.231 216.809 194.542 217.482C194.853 218.156 195.284 218.743 195.835 219.241C196.386 219.74 197.031 220.131 197.775 220.413C198.517 220.695 199.308 220.836 200.144 220.836C200.98 220.836 201.766 220.69 202.497 220.395C203.226 220.103 203.868 219.706 204.419 219.205C204.97 218.706 205.401 218.124 205.712 217.461C206.023 216.799 206.179 216.089 206.179 215.327V197.15H207.365V215.353L207.36 215.361ZM205.456 215.295C205.456 215.862 205.354 216.41 205.151 216.942C204.947 217.475 204.654 217.955 204.27 218.378C203.886 218.8 203.437 219.166 202.923 219.471C202.408 219.776 201.852 219.993 201.254 220.123V197.157H205.456V215.295Z" fill="#0A034F"/>
<path d="M212.675 221.689V198.071H211.021V197.157H216.804V221.689H212.675ZM217.485 221.689V197.157H224.061V198.071H218.491V202.703H224.061V203.617H218.491V220.711H224.061V221.689H217.485Z" fill="#0A034F"/>
<path d="M41.061 252.607C39.6246 251.368 38.5042 249.943 37.7025 248.332C36.9007 246.722 36.4985 245.015 36.4985 243.212C36.4985 241.409 36.8929 239.699 37.6842 238.092C38.4729 236.481 39.5985 235.059 41.061 233.817V252.607ZM64.7617 243.212C64.7617 244.994 64.3908 246.665 63.6491 248.22C62.9074 249.776 61.8941 251.13 60.6144 252.281C59.3347 253.434 57.8382 254.343 56.125 255.006C54.4118 255.668 52.5758 256 50.6118 256C48.9848 256 47.4099 255.755 45.89 255.267C44.37 254.776 42.9754 254.066 41.7061 253.129V233.295C42.9754 232.337 44.3648 231.614 45.8717 231.126C47.3786 230.638 48.9613 230.393 50.6118 230.393C52.5758 230.393 54.4196 230.724 56.1433 231.387C57.867 232.05 59.3634 232.963 60.6327 234.127C61.9019 235.291 62.9074 236.651 63.6491 238.204C64.3908 239.759 64.7617 241.43 64.7617 243.212ZM63.5394 243.196C63.5394 241.568 63.2025 240.041 62.5314 238.619C61.8602 237.196 60.9356 235.957 59.7604 234.905C58.5852 233.851 57.2114 233.021 55.6418 232.413C54.0722 231.805 52.3851 231.499 50.5883 231.499C49.1493 231.499 47.7599 231.711 46.4149 232.136C45.0725 232.559 43.8372 233.162 42.709 233.945V252.417C43.8346 253.2 45.0699 253.808 46.4149 254.241C47.7573 254.674 49.1493 254.893 50.5883 254.893C52.3877 254.893 54.0722 254.591 55.6418 253.983C57.2114 253.374 58.5799 252.545 59.7421 251.49C60.9043 250.436 61.8288 249.199 62.5131 247.776C63.1973 246.354 63.5394 244.827 63.5394 243.199V243.196Z" fill="#0A034F"/>
<path d="M83.6334 254.567C82.7951 255 81.915 255.34 80.9931 255.577C80.0711 255.815 79.1205 255.935 78.1385 255.935C76.6551 255.935 75.2657 255.679 73.973 255.167C72.6802 254.656 71.5494 253.962 70.5804 253.08C69.6115 252.197 68.8437 251.172 68.2822 249.997C67.7207 248.823 67.4386 247.562 67.4386 246.213H68.4441C68.4441 247.432 68.6948 248.578 69.1989 249.656C69.7003 250.731 70.3898 251.668 71.2647 252.461C72.1396 253.254 73.1686 253.881 74.3516 254.337C75.5373 254.794 76.7988 255.021 78.1411 255.021C78.9064 255.021 79.6742 254.94 80.4394 254.776C81.2046 254.614 81.9359 254.358 82.6306 254.009V238.807L78.1411 237.306C76.8484 236.87 75.9212 236.307 75.3571 235.61C74.7956 234.913 74.5136 234.219 74.5136 233.522C74.5136 232.695 74.8374 231.977 75.4825 231.369C76.1302 230.761 77.0025 230.455 78.1046 230.455C78.8698 230.455 79.5775 230.656 80.2226 231.058C80.8703 231.46 81.3352 231.987 81.6225 232.64L80.6901 232.966C80.4733 232.488 80.1286 232.113 79.6481 231.841C79.1701 231.57 78.6556 231.434 78.1046 231.434C77.2897 231.434 76.6682 231.635 76.2373 232.037C75.8063 232.439 75.5922 232.922 75.5922 233.485C75.5922 234.007 75.8011 234.529 76.2216 235.049C76.6394 235.571 77.2819 235.983 78.1438 236.286L83.6386 238.209V254.564L83.6334 254.567ZM88.8776 246.213C88.8776 247.823 88.4702 249.324 87.6553 250.715C86.8405 252.106 85.7175 253.26 84.2811 254.173V238.514C85.7175 239.428 86.8431 240.542 87.6553 241.858C88.4702 243.173 88.8776 244.626 88.8776 246.213Z" fill="#0A034F"/>
<path d="M107.493 254.567C106.655 255 105.775 255.34 104.853 255.577C103.931 255.815 102.98 255.935 101.998 255.935C100.515 255.935 99.1257 255.679 97.8329 255.167C96.5402 254.656 95.4093 253.962 94.4404 253.08C93.4715 252.197 92.7037 251.172 92.1421 249.997C91.5806 248.823 91.2986 247.562 91.2986 246.213H92.3041C92.3041 247.432 92.5548 248.578 93.0588 249.656C93.5603 250.731 94.2497 251.668 95.1246 252.461C95.9995 253.254 97.0285 253.881 98.2116 254.337C99.3973 254.794 100.659 255.021 102.001 255.021C102.766 255.021 103.534 254.94 104.299 254.776C105.065 254.614 105.796 254.358 106.491 254.009V238.807L102.001 237.306C100.708 236.87 99.7812 236.307 99.2171 235.61C98.6556 234.913 98.3735 234.219 98.3735 233.522C98.3735 232.695 98.6974 231.977 99.3424 231.369C99.9901 230.761 100.862 230.455 101.965 230.455C102.73 230.455 103.437 230.656 104.083 231.058C104.73 231.46 105.195 231.987 105.482 232.64L104.55 232.966C104.333 232.488 103.989 232.113 103.508 231.841C103.03 231.57 102.516 231.434 101.965 231.434C101.15 231.434 100.528 231.635 100.097 232.037C99.6663 232.439 99.4521 232.922 99.4521 233.485C99.4521 234.007 99.6611 234.529 100.082 235.049C100.499 235.571 101.142 235.983 102.004 236.286L107.499 238.209V254.564L107.493 254.567ZM112.738 246.213C112.738 247.823 112.33 249.324 111.515 250.715C110.7 252.106 109.577 253.26 108.141 254.173V238.514C109.577 239.428 110.703 240.542 111.515 241.858C112.33 243.173 112.738 244.626 112.738 246.213Z" fill="#0A034F"/>
<path d="M129.128 255.478L128.266 253.064H118.966L118.104 255.478H117.028L117.927 253.064H116.167V252.15H118.251L123.636 237.666L130.207 255.478H129.131H129.128ZM123.599 240.571L119.327 252.153H127.909L123.599 240.571ZM131.283 255.478L124.064 236.557L126.146 231.045L135.446 255.478H131.28H131.283Z" fill="#0A034F"/>
<path d="M140.262 255.478V231.859H138.608V230.946H144.354V255.478H140.262ZM145.145 255.478V230.946H146.151V254.499H154.589V255.478H145.145Z" fill="#0A034F"/>
<path d="M161.74 252.607C160.303 251.368 159.183 249.943 158.381 248.332C157.579 246.722 157.177 245.015 157.177 243.212C157.177 241.409 157.572 239.699 158.363 238.092C159.152 236.481 160.277 235.059 161.737 233.817V252.607H161.74ZM185.44 243.212C185.44 244.994 185.07 246.665 184.328 248.22C183.586 249.776 182.573 251.13 181.293 252.281C180.011 253.434 178.517 254.343 176.804 255.006C175.091 255.668 173.255 256 171.291 256C169.661 256 168.089 255.755 166.569 255.267C165.049 254.776 163.654 254.066 162.385 253.129V233.295C163.654 232.337 165.044 231.614 166.55 231.126C168.06 230.636 169.64 230.393 171.291 230.393C173.252 230.393 175.098 230.724 176.819 231.387C178.543 232.05 180.04 232.963 181.309 234.127C182.578 235.291 183.584 236.651 184.325 238.204C185.067 239.759 185.438 241.43 185.438 243.212H185.44ZM184.221 243.196C184.221 241.568 183.884 240.041 183.213 238.619C182.542 237.196 181.617 235.957 180.442 234.905C179.267 233.851 177.893 233.021 176.323 232.413C174.754 231.805 173.069 231.499 171.27 231.499C169.831 231.499 168.441 231.711 167.096 232.136C165.754 232.559 164.519 233.162 163.39 233.945V252.417C164.516 253.2 165.751 253.808 167.096 254.241C168.439 254.674 169.831 254.893 171.27 254.893C173.069 254.893 174.751 254.591 176.323 253.983C177.895 253.374 179.261 252.545 180.423 251.49C181.586 250.436 182.51 249.199 183.194 247.776C183.879 246.354 184.221 244.827 184.221 243.199V243.196Z" fill="#0A034F"/>
<path d="M189.726 255.478V231.859H188.073V230.946H193.819V255.478H189.726ZM194.61 255.478V230.946H195.615V255.478H194.61Z" fill="#0A034F"/>
<path d="M215.106 254.567C214.268 255 213.388 255.34 212.466 255.577C211.544 255.815 210.593 255.935 209.611 255.935C208.128 255.935 206.738 255.679 205.446 255.167C204.153 254.656 203.022 253.962 202.053 253.08C201.084 252.197 200.316 251.172 199.755 249.997C199.191 248.823 198.911 247.562 198.911 246.213H199.917C199.917 247.432 200.168 248.578 200.672 249.656C201.176 250.733 201.862 251.668 202.737 252.461C203.612 253.254 204.641 253.881 205.827 254.337C207.013 254.794 208.274 255.021 209.616 255.021C210.382 255.021 211.149 254.94 211.915 254.776C212.68 254.614 213.411 254.358 214.106 254.009V238.807L209.616 237.306C208.324 236.87 207.397 236.307 206.832 235.61C206.271 234.913 205.989 234.219 205.989 233.522C205.989 232.695 206.313 231.977 206.958 231.369C207.605 230.761 208.478 230.455 209.58 230.455C210.345 230.455 211.053 230.656 211.698 231.058C212.343 231.46 212.81 231.987 213.098 232.64L212.163 232.966C211.946 232.488 211.601 232.113 211.121 231.841C210.643 231.57 210.128 231.434 209.577 231.434C208.762 231.434 208.141 231.635 207.71 232.037C207.279 232.439 207.065 232.922 207.065 233.485C207.065 234.007 207.274 234.529 207.694 235.049C208.112 235.571 208.755 235.983 209.616 236.286L215.111 238.209V254.564L215.106 254.567ZM220.35 246.213C220.35 247.823 219.943 249.324 219.128 250.715C218.313 252.106 217.19 253.26 215.754 254.173V238.514C217.19 239.428 218.316 240.542 219.128 241.858C219.943 243.173 220.35 244.626 220.35 246.213Z" fill="#0A034F"/>
<path d="M210.465 114.274C187.509 93.7194 173.064 69.9522 164.989 53.6307C159.439 42.4139 156.083 33.2041 154.333 27.8253C154.263 27.6035 153.986 27.533 153.813 27.6922L143.868 36.8995C143.693 37.0613 143.552 37.257 143.456 37.4736L134.012 58.3622C133.926 58.5527 133.646 58.5136 133.612 58.3074L129.823 34.1227C129.765 33.7495 129.609 33.3998 129.369 33.1075L108.917 8.04329C108.656 7.71707 108.191 7.63878 107.836 7.86061L79.3321 25.5313C79.1518 25.6436 79.0056 25.8028 78.9116 25.9933L49.1937 85.5351L43.9182 82.881L74.3908 21.8411C74.4848 21.6506 74.6311 21.4914 74.8139 21.3792L109.152 0.125253C109.504 -0.0965771 109.969 -0.018284 110.23 0.307937L134.939 30.5943C135.182 30.8944 135.341 31.252 135.396 31.6356L136.282 37.7633C136.321 38.0374 136.694 38.0896 136.809 37.839L138.564 33.9557C138.663 33.7391 138.802 33.5433 138.977 33.3815L156.898 16.7886C157.075 16.6242 157.363 16.7103 157.423 16.9426L158.52 21.2304C158.551 21.3557 161.839 33.987 170.358 51.1697C178.196 66.9797 192.202 89.9978 214.406 109.879L210.465 114.277V114.274Z" fill="#1613AD"/>
<path d="M152.186 109.918C152.186 110.247 152.184 110.573 152.176 110.9C151.722 130.58 137.702 146.969 119.118 151.072C118.225 148.175 117.744 145.098 117.744 141.911C117.744 141.309 117.762 140.711 117.799 140.118C130.69 136.796 140.382 125.428 141.163 111.716C141.199 111.121 141.218 110.521 141.218 109.918C141.218 106.732 140.737 103.657 139.844 100.761C135.921 88.0223 124.033 78.7393 110.016 78.7393C92.8107 78.7393 78.8123 92.7251 78.8123 109.918C78.8123 126.021 91.0923 139.315 106.786 140.933C106.778 141.259 106.775 141.585 106.775 141.911C106.775 145.393 107.201 148.778 108 152.014C85.6783 150.959 67.8434 132.48 67.8434 109.918C67.8434 87.3568 86.7622 67.7783 110.016 67.7783C129.786 67.7783 146.423 81.4431 150.962 99.8184C151.763 103.055 152.186 106.437 152.186 109.918Z" fill="#0A034F"/>
<path d="M191.118 141.911C191.118 165.149 172.199 184.051 148.948 184.051C129.178 184.051 112.542 170.389 108 152.014C107.201 148.778 106.775 145.393 106.775 141.911C106.775 141.585 106.778 141.259 106.786 140.933C107.237 121.25 121.259 104.863 139.844 100.76C140.737 103.657 141.218 106.732 141.218 109.918C141.218 110.521 141.199 111.121 141.163 111.716C128.269 115.036 118.577 126.404 117.799 140.118C117.762 140.711 117.744 141.308 117.744 141.911C117.744 145.098 118.225 148.175 119.118 151.072C123.043 163.807 134.931 173.09 148.948 173.09C166.153 173.09 180.149 159.104 180.149 141.911C180.149 125.806 167.869 112.517 152.176 110.899C152.184 110.573 152.186 110.247 152.186 109.918C152.186 106.437 151.763 103.054 150.962 99.8184C173.281 100.873 191.118 119.347 191.118 141.911Z" fill="#1613AD"/>
</g>
<defs>
<clipPath id="clip0_3116_439">
<rect width="256" height="256" fill="white"/>
</clipPath>
</defs>
</svg>
