<svg width="256" height="256" viewBox="0 0 256 256" fill="none" xmlns="http://www.w3.org/2000/svg">
<path d="M19.1551 21.9846H237.754V144.135C237.754 204.463 188.778 253.429 128.46 253.429C68.1319 253.429 19.1663 204.452 19.1663 144.135V21.9846H19.1551Z" fill="white"/>
<path d="M134.782 255.742H122.128C64.0786 255.742 16.8421 208.516 16.8421 150.456V19.6716H240.067V150.456C240.067 208.516 192.831 255.742 134.782 255.742ZM21.4681 24.2975V150.456C21.4681 205.956 66.6274 251.116 122.128 251.116H134.782C190.282 251.116 235.441 205.956 235.441 150.456V24.2975H21.4681Z" fill="#1D1D1B"/>
<path d="M49.9986 192.438H51.9523L56.5895 205.204H54.6919L53.4007 201.375H48.3481L46.967 205.204H45.193L49.9986 192.438ZM52.8505 199.972L50.9081 194.324L48.8421 199.972H52.8393H52.8505Z" fill="#E30613"/>
<path d="M58.1614 192.438H60.2049L66.5712 202.756V192.438H68.2217V205.204H66.2793L59.8119 194.897V205.204H58.1614V192.438Z" fill="#E30613"/>
<path d="M79.5284 192.808C80.7747 193.471 81.5495 194.639 81.8302 196.312H80.1123C79.9102 195.38 79.4835 194.695 78.8435 194.268C78.2035 193.841 77.3951 193.628 76.4182 193.628C75.2617 193.628 74.2849 194.066 73.4989 194.953C72.713 195.84 72.3088 197.165 72.3088 198.917C72.3088 200.432 72.6344 201.667 73.2856 202.622C73.9368 203.576 75.0035 204.048 76.4856 204.048C77.6196 204.048 78.5516 203.711 79.2926 203.048C80.0337 202.375 80.4154 201.297 80.4267 199.804H76.4295V198.366H82.0323V205.204H80.9207L80.5053 203.565C79.9326 204.205 79.4161 204.654 78.9782 204.901C78.226 205.328 77.2828 205.541 76.1263 205.541C74.633 205.541 73.353 205.047 72.2863 204.07C71.1186 202.846 70.5347 201.151 70.5347 199.006C70.5347 196.862 71.1074 195.166 72.2526 193.898C73.3417 192.696 74.7453 192.09 76.4631 192.09C77.6421 192.09 78.6639 192.326 79.5284 192.786V192.808Z" fill="#E30613"/>
<path d="M95.3937 194.268C96.2358 195.402 96.6625 196.839 96.6625 198.602C96.6625 200.511 96.1797 202.094 95.214 203.363C94.08 204.845 92.4632 205.586 90.3523 205.586C88.3874 205.586 86.8379 204.935 85.7151 203.644C84.7158 202.397 84.2105 200.814 84.2105 198.894C84.2105 197.165 84.6372 195.694 85.5018 194.459C86.6021 192.887 88.2302 192.09 90.386 192.09C92.5418 192.09 94.3046 192.82 95.3937 194.268ZM93.8667 202.408C94.5516 201.319 94.8884 200.062 94.8884 198.636C94.8884 197.131 94.4954 195.919 93.7095 195.009C92.9235 194.088 91.8456 193.639 90.487 193.639C89.1284 193.639 88.0842 194.088 87.2533 194.998C86.4225 195.907 85.9958 197.244 85.9958 199.018C85.9958 200.432 86.3551 201.622 87.0737 202.599C87.7923 203.576 88.9488 204.059 90.5544 204.059C92.16 204.059 93.1818 203.509 93.8667 202.42V202.408Z" fill="#E30613"/>
<path d="M98.7284 192.438H100.458V203.688H106.869V205.215H98.7284V192.449V192.438Z" fill="#E30613"/>
<path d="M112.337 192.438H114.291L118.928 205.204H117.03L115.739 201.375H110.686L109.305 205.204H107.531L112.337 192.438ZM115.178 199.972L113.235 194.324L111.169 199.972H115.166H115.178Z" fill="#E30613"/>
<path d="M46.4954 174.181H52.3004C53.2547 174.181 54.0407 174.327 54.6695 174.608C55.8484 175.158 56.4323 176.157 56.4323 177.628C56.4323 178.392 56.2751 179.02 55.9607 179.503C55.6463 179.986 55.1972 180.379 54.6358 180.682C55.1298 180.884 55.5116 181.154 55.7586 181.479C56.0056 181.805 56.1516 182.344 56.1853 183.085L56.2414 184.803C56.2639 185.286 56.2975 185.656 56.3649 185.892C56.466 186.296 56.6568 186.554 56.9263 186.678V186.97H54.8042C54.7481 186.858 54.7032 186.723 54.6695 186.543C54.6358 186.375 54.6021 186.038 54.5796 185.533L54.4786 183.399C54.4337 182.568 54.1418 182.007 53.5804 181.726C53.2547 181.569 52.7607 181.491 52.0646 181.491H48.2358V186.97H46.5067V174.204L46.4954 174.181ZM52.1207 180.031C52.9067 180.031 53.5354 179.874 53.9958 179.548C54.4561 179.222 54.6807 178.639 54.6807 177.797C54.6807 176.887 54.3551 176.269 53.7151 175.933C53.367 175.764 52.9067 175.674 52.334 175.674H48.2246V180.042H52.1095L52.1207 180.031Z" fill="#1D1D1B"/>
<path d="M61.0133 174.181V182.074C61.0133 183.006 61.193 183.77 61.5411 184.387C62.0575 185.319 62.9333 185.78 64.1684 185.78C65.6505 185.78 66.6498 185.274 67.1775 184.275C67.4582 183.736 67.6042 182.995 67.6042 182.074V174.181H69.3558V181.356C69.3558 182.928 69.1425 184.129 68.7158 184.982C67.941 186.521 66.4702 187.295 64.3032 187.295C62.1361 187.295 60.6653 186.521 59.9017 184.982C59.4751 184.14 59.2617 182.928 59.2617 181.356V174.181H61.0133Z" fill="#1D1D1B"/>
<path d="M80.5053 174.54C81.7516 175.203 82.5263 176.371 82.807 178.044H81.0891C80.887 177.112 80.4604 176.427 79.8204 176C79.1804 175.573 78.3719 175.36 77.3951 175.36C76.2386 175.36 75.2618 175.809 74.4758 176.685C73.6898 177.572 73.2856 178.897 73.2856 180.648C73.2856 182.164 73.6112 183.399 74.2625 184.354C74.9137 185.308 75.9804 185.78 77.4625 185.78C78.5965 185.78 79.5284 185.443 80.2695 184.78C81.0105 184.107 81.3923 183.029 81.4035 181.535H77.4063V180.098H83.0091V186.936H81.8975L81.4821 185.297C80.9095 185.937 80.393 186.386 79.9551 186.633C79.2028 187.06 78.2597 187.273 77.1032 187.273C75.6098 187.273 74.3298 186.779 73.2632 185.802C72.0954 184.578 71.5116 182.883 71.5116 180.738C71.5116 178.594 72.0842 176.898 73.2295 175.641C74.3186 174.439 75.7221 173.833 77.44 173.833C78.619 173.833 79.6407 174.069 80.5053 174.529V174.54Z" fill="#1D1D1B"/>
<path d="M85.8161 174.181H91.3403C92.8449 174.181 93.9116 174.63 94.5516 175.517C94.9221 176.045 95.113 176.651 95.113 177.347C95.113 178.156 94.8884 178.818 94.4281 179.335C94.1923 179.604 93.8442 179.851 93.4063 180.087C94.0575 180.334 94.5516 180.615 94.8772 180.929C95.4498 181.491 95.7417 182.254 95.7417 183.231C95.7417 184.051 95.4835 184.803 94.967 185.465C94.1923 186.465 92.9572 186.959 91.2617 186.959H85.8274V174.192L85.8161 174.181ZM90.6891 179.582C91.4302 179.582 92.0028 179.481 92.407 179.279C93.047 178.964 93.3726 178.392 93.3726 177.561C93.3726 176.73 93.0245 176.168 92.3396 175.876C91.9579 175.719 91.374 175.629 90.6217 175.629H87.5003V179.582H90.6779H90.6891ZM91.273 185.476C92.3396 185.476 93.1032 185.173 93.5635 184.556C93.8554 184.163 93.9902 183.702 93.9902 183.152C93.9902 182.22 93.5747 181.592 92.7326 181.255C92.2835 181.075 91.6996 180.985 90.9698 180.985H87.5003V185.476H91.2617H91.273Z" fill="#1D1D1B"/>
<path d="M96.7523 174.181H98.7733L102.445 180.323L106.116 174.181H108.149L103.309 181.805V186.947H101.58V181.805L96.7523 174.181Z" fill="#1D1D1B"/>
<path d="M123.273 175.113C124.16 175.966 124.643 176.932 124.744 178.021H123.06C122.869 177.201 122.498 176.55 121.937 176.067C121.375 175.585 120.589 175.349 119.579 175.349C118.344 175.349 117.345 175.787 116.581 176.674C115.818 177.561 115.436 178.919 115.436 180.738C115.436 182.232 115.784 183.444 116.469 184.376C117.154 185.308 118.175 185.768 119.534 185.768C120.792 185.768 121.746 185.274 122.397 184.298C122.745 183.781 123.003 183.107 123.172 182.265H124.856C124.71 183.613 124.216 184.735 123.374 185.645C122.375 186.745 121.016 187.284 119.321 187.284C117.85 187.284 116.626 186.835 115.627 185.937C114.313 184.747 113.662 182.917 113.662 180.435C113.662 178.549 114.156 176.999 115.144 175.798C116.211 174.484 117.681 173.833 119.556 173.833C121.151 173.833 122.397 174.26 123.273 175.113Z" fill="#1D1D1B"/>
<path d="M127.102 174.181H128.831V185.432H135.242V186.959H127.102V174.192V174.181Z" fill="#1D1D1B"/>
<path d="M138.869 174.181V182.074C138.869 183.006 139.048 183.77 139.396 184.387C139.913 185.319 140.789 185.78 142.024 185.78C143.506 185.78 144.505 185.274 145.033 184.275C145.314 183.736 145.46 182.995 145.46 182.074V174.181H147.211V181.356C147.211 182.928 146.998 184.129 146.571 184.982C145.796 186.521 144.326 187.295 142.159 187.295C139.992 187.295 138.521 186.521 137.757 184.982C137.331 184.14 137.117 182.928 137.117 181.356V174.181H138.869Z" fill="#1D1D1B"/>
<path d="M149.816 174.181H155.34C156.845 174.181 157.912 174.63 158.552 175.517C158.922 176.045 159.113 176.651 159.113 177.347C159.113 178.156 158.888 178.818 158.428 179.335C158.192 179.604 157.844 179.851 157.406 180.087C158.058 180.334 158.552 180.615 158.877 180.929C159.45 181.491 159.742 182.254 159.742 183.231C159.742 184.051 159.484 184.803 158.967 185.465C158.192 186.465 156.957 186.959 155.262 186.959H149.827V174.192L149.816 174.181ZM154.689 179.582C155.43 179.582 156.003 179.481 156.407 179.279C157.047 178.964 157.373 178.392 157.373 177.561C157.373 176.73 157.025 176.168 156.34 175.876C155.958 175.719 155.374 175.629 154.622 175.629H151.5V179.582H154.678H154.689ZM155.273 185.476C156.34 185.476 157.103 185.173 157.564 184.556C157.855 184.163 157.99 183.702 157.99 183.152C157.99 182.22 157.575 181.592 156.733 181.255C156.284 181.075 155.7 180.985 154.97 180.985H151.5V185.476H155.262H155.273Z" fill="#1D1D1B"/>
<path d="M64.0112 156.766C64.7074 155.969 65.2239 155.06 65.5495 154.027C65.8751 152.994 66.0323 151.938 66.0323 150.872C66.0323 149.805 65.8751 148.716 65.5495 147.694C65.2239 146.672 64.7186 145.763 64.0112 144.966C63.3151 144.168 62.3944 143.528 61.2828 143.046C60.16 142.563 58.8126 142.316 57.2182 142.316H45.7319V168.971H51.3347V159.416H57.2182C58.8126 159.416 60.1712 159.169 61.2828 158.686C62.4056 158.203 63.3151 157.563 64.0112 156.766ZM60.1937 152.915C59.9242 153.443 59.5537 153.847 59.1046 154.128C58.6554 154.42 58.1277 154.61 57.5326 154.712C56.9376 154.813 56.32 154.858 55.68 154.858H51.3235V146.874H55.68C56.32 146.874 56.9376 146.919 57.5326 147.02C58.1277 147.121 58.6554 147.312 59.1046 147.604C59.5537 147.896 59.9242 148.3 60.1937 148.817C60.4632 149.345 60.6091 150.029 60.6091 150.872C60.6091 151.714 60.4744 152.399 60.1937 152.926V152.915Z" fill="#1D1D1B"/>
<path d="M70.6919 142.316L61.0583 168.971H66.6947L68.6933 163.032H78.2147L80.146 168.971H85.9621L76.4407 142.316H70.7032H70.6919ZM70.153 158.664L73.4653 148.884H73.5326L76.7439 158.664H70.1418H70.153Z" fill="#1D1D1B"/>
<path d="M113.336 142.316L105.488 164.042H93.1144V142.316H87.5116V168.971H109.339L111.338 163.032H120.859L122.79 168.971H128.606L119.085 142.316H113.347H113.336ZM112.797 158.664L116.109 148.884H116.177L119.388 158.664H112.786H112.797Z" fill="#1D1D1B"/>
<path d="M179.728 142.316L173.799 158.72H168.399C168.185 160.516 167.601 161.954 166.636 163.054C165.67 164.154 164.334 164.693 162.627 164.693C161.37 164.693 160.292 164.435 159.416 163.93C158.54 163.425 157.822 162.74 157.272 161.898C156.721 161.055 156.328 160.101 156.081 159.046C155.834 157.99 155.711 156.901 155.711 155.778C155.711 154.655 155.834 153.476 156.081 152.376C156.328 151.276 156.733 150.299 157.272 149.446C157.822 148.592 158.529 147.907 159.416 147.391C160.292 146.886 161.37 146.627 162.627 146.627C163.312 146.627 163.975 146.751 164.604 146.987C165.232 147.222 165.794 147.548 166.299 147.975C166.793 148.401 167.22 148.884 167.545 149.446C167.882 150.007 168.095 150.625 168.185 151.298H173.608C173.44 149.76 173.036 148.39 172.396 147.189C171.756 145.987 170.936 144.988 169.948 144.18C168.96 143.371 167.848 142.754 166.591 142.327C165.345 141.9 164.02 141.687 162.616 141.687C160.662 141.687 158.911 142.046 157.35 142.765C155.789 143.484 154.476 144.483 153.409 145.752C152.342 147.02 151.523 148.514 150.95 150.209C150.928 150.288 150.905 150.366 150.883 150.434V142.293H145.639V160.18H145.572L134.939 142.293H129.37V168.949H134.613V151.107H134.681L145.28 168.949H150.883V160.954C150.905 161.033 150.928 161.1 150.95 161.179C151.523 162.863 152.342 164.323 153.409 165.569C154.476 166.815 155.789 167.792 157.35 168.5C158.911 169.207 160.662 169.566 162.616 169.566C164.188 169.566 165.625 169.319 166.928 168.825C168.23 168.331 169.375 167.601 170.352 166.658C170.7 166.321 171.015 165.962 171.307 165.592L170.094 168.96H175.731L177.729 163.02H187.251L189.182 168.96H194.998L185.477 142.305H179.739L179.728 142.316ZM179.2 158.664L182.512 148.884H182.58L185.791 158.664H179.189H179.2Z" fill="#1D1D1B"/>
<path d="M214.883 157.395C214.276 156.441 213.558 155.677 212.727 155.105C211.896 154.532 211.054 154.116 210.212 153.858C209.37 153.6 208.707 153.42 208.236 153.319C206.641 152.893 205.35 152.545 204.362 152.275C203.374 152.006 202.599 151.725 202.038 151.455C201.476 151.186 201.106 150.883 200.915 150.557C200.724 150.232 200.634 149.816 200.634 149.288C200.634 148.716 200.758 148.244 200.994 147.874C201.229 147.503 201.533 147.189 201.903 146.942C202.274 146.695 202.678 146.515 203.138 146.414C203.587 146.313 204.036 146.268 204.497 146.268C205.182 146.268 205.822 146.335 206.406 146.459C206.989 146.582 207.506 146.796 207.955 147.099C208.404 147.402 208.775 147.806 209.044 148.334C209.314 148.862 209.482 149.513 209.527 150.31H214.95C214.95 148.772 214.669 147.458 214.108 146.369C213.547 145.291 212.794 144.393 211.84 143.697C210.886 143.001 209.796 142.495 208.573 142.181C207.349 141.867 206.069 141.709 204.733 141.709C203.587 141.709 202.453 141.867 201.308 142.192C200.163 142.518 199.141 143.012 198.243 143.686C197.333 144.359 196.604 145.201 196.053 146.201C195.492 147.211 195.211 148.401 195.211 149.771C195.211 150.995 195.436 152.028 195.874 152.893C196.312 153.746 196.895 154.465 197.603 155.037C198.321 155.61 199.13 156.081 200.028 156.441C200.926 156.8 201.858 157.103 202.813 157.35C203.745 157.62 204.654 157.878 205.564 158.091C206.462 158.316 207.27 158.574 207.989 158.877C208.707 159.18 209.28 159.551 209.718 160C210.156 160.449 210.38 161.033 210.38 161.752C210.38 162.425 210.212 162.975 209.886 163.413C209.549 163.851 209.134 164.188 208.64 164.435C208.146 164.682 207.607 164.851 207.034 164.94C206.462 165.03 205.934 165.075 205.429 165.075C204.688 165.075 203.98 164.985 203.284 164.794C202.599 164.604 201.993 164.323 201.488 163.941C200.971 163.559 200.567 163.054 200.253 162.425C199.938 161.808 199.792 161.044 199.792 160.146H194.369C194.347 161.785 194.627 163.211 195.222 164.401C195.818 165.592 196.615 166.58 197.625 167.354C198.636 168.129 199.804 168.691 201.117 169.05C202.442 169.409 203.801 169.589 205.204 169.589C206.945 169.589 208.472 169.375 209.785 168.949C211.11 168.522 212.211 167.938 213.098 167.175C213.985 166.411 214.658 165.513 215.119 164.469C215.568 163.425 215.792 162.291 215.792 161.067C215.792 159.573 215.489 158.349 214.883 157.395Z" fill="#1D1D1B"/>
<path d="M213.21 5.29965C211.526 5.01894 209.898 4.53614 208.18 4.35649C206.125 4.14316 204.115 3.57052 202.083 3.17754C198.669 2.51509 195.245 2.2793 191.787 2.77333C188.272 3.27859 184.859 4.25544 181.389 4.92912C180.3 5.14245 179.245 5.67017 178.088 5.38947C176.079 4.89544 174.058 4.41263 172.059 3.88491C168.208 2.87438 164.401 1.6393 160.427 1.25754C157.406 0.965611 152.938 1.25754 152.342 1.32491C150.142 1.59438 147.964 1.89754 145.819 2.61614C138.824 4.94035 132.469 8.32 126.844 13.1368C120.679 18.414 115.312 24.3986 110.855 31.1691C107.093 36.8842 104.084 42.981 102.209 49.5832C101.086 53.5242 100.458 57.5551 99.9411 61.5972C99.5369 64.7523 99.2112 67.9298 99.6267 71.1186C99.6716 71.433 99.5256 71.5453 99.2898 71.6575C98.6274 71.9719 97.9537 72.2639 97.3025 72.6007C89.8246 76.3846 82.7509 80.8309 76.1488 86.0182C67.0316 93.1818 59.1046 101.401 53.4344 111.618C52.2891 113.684 51.2449 115.818 50.4365 118.041C49.9312 119.422 49.5607 120.814 50.2568 122.296C51.3572 124.676 52.8281 126.799 54.6919 128.629C55.2533 129.179 55.2533 129.235 54.546 129.538C51.9972 130.594 49.5719 131.851 47.5621 133.771C46.5516 134.737 45.6197 135.77 45.1032 137.106C44.8898 137.667 44.9684 137.847 45.6309 137.847C80.3481 137.836 115.065 137.836 149.782 137.825C149.962 137.825 150.164 137.903 150.355 137.712C149.524 136.488 148.368 135.624 147.155 134.86C142.462 131.919 137.409 129.83 131.997 128.618C131.795 128.573 131.458 128.651 131.402 128.337C131.357 128.09 131.638 128.056 131.806 127.978C136.713 125.777 140.957 122.611 144.876 118.995C151.489 112.887 156.632 105.858 158.765 96.9319C159.764 92.7551 161.426 88.7691 162.268 84.5474C162.987 80.9881 163.324 77.4175 162.481 73.8358C161.864 71.1972 160.64 68.9516 157.99 67.7726C156.867 67.2786 155.722 66.8632 154.554 66.5151C151.646 65.6505 148.828 64.3032 145.651 64.7635C145.347 64.8084 145.314 64.5951 145.235 64.3705C144.966 63.5172 144.865 62.6526 144.842 61.7656C144.786 59.2281 145.302 56.7579 145.909 54.3102C146.695 51.1775 148.031 48.247 149.142 45.2267C150.097 42.633 150.939 40.0168 152.342 37.614C157.99 27.9916 166.029 20.9853 176.011 16.1347C176.988 15.6632 177.976 15.36 179.065 15.214C180.446 15.0232 181.861 15.1242 183.197 14.6751C183.961 14.4168 184.747 14.4393 185.521 14.5853C186.509 14.7649 187.486 14.9895 188.452 15.214C190.08 15.5958 191.697 15.9663 193.381 15.8428C193.662 15.8203 193.999 15.8765 194.189 15.5846C194.605 14.9221 194.066 13.3502 193.325 13.047C192.46 12.6989 191.596 12.3846 190.742 12.0365C190.102 11.7782 189.485 11.4751 189.025 10.9361C188.811 10.6891 188.721 10.5207 189.182 10.4196C192.067 9.76842 194.931 9.07228 197.816 8.43228C199.882 7.98316 201.971 7.64631 204.081 7.97193C206.428 8.33123 208.775 8.70175 211.133 8.92631C211.829 8.99368 212.536 9.13965 213.255 8.99368C214.232 8.79158 214.86 8.28631 214.86 7.64631C214.86 6.87158 213.816 5.36701 213.199 5.26596L213.21 5.29965ZM165.67 10.4646C164.604 11.0035 163.514 11.5088 162.47 12.0814C158.159 14.4505 153.948 16.9768 149.985 19.8737C147.705 21.5354 145.864 23.7137 143.798 25.6225C141.081 28.1375 138.42 30.6975 135.994 33.5046C132.772 37.2435 130.425 41.5214 128.573 46.0688C126.226 51.8063 124.272 57.6674 122.509 63.607C122.431 63.8877 122.364 64.1684 122.307 64.4603C122.027 65.8526 122.027 65.8414 120.634 66.0884C119.77 66.2344 118.894 66.3691 118.052 66.5825C117.592 66.706 117.524 66.5263 117.423 66.167C117.154 65.2463 117.098 64.2919 117.03 63.5509C117.098 60.8112 117.805 58.4309 118.759 56.1179C120.174 52.727 120.949 49.1116 122.543 45.7656C123.722 43.3067 124.8 40.8028 125.766 38.2428C126.653 35.8737 128.269 33.8302 129.808 31.7979C134.366 25.8133 139.621 20.5361 145.841 16.2807C150.355 13.193 155.352 11.2505 160.797 10.5432C161.931 10.3972 163.076 10.2625 164.121 9.71228C164.547 9.48772 165.086 9.61123 165.569 9.64491C165.839 9.66737 165.973 9.94807 166.029 10.1614C166.074 10.3186 165.816 10.3747 165.67 10.4421V10.4646Z" fill="#1D1D1B"/>
<path d="M61.193 123.239C62.8997 123.475 64.4379 122.97 66.0098 122.813C68.0758 122.611 70.153 122.453 72.2302 122.42C75.1383 122.375 78.0575 122.319 80.9544 122.072C83.8512 121.825 86.7144 121.353 89.5214 120.511C92.3733 119.658 95.2028 118.737 97.9761 117.67C100.671 116.637 103.287 115.402 105.881 114.111C110.147 111.978 114.257 109.575 118.243 106.947C121.084 105.072 123.846 103.074 126.552 101.019C133.614 95.6631 139.812 89.3867 145.92 83.0091C147.582 81.2688 149.221 79.4835 150.333 77.3052C150.613 76.7551 151.085 76.2049 150.31 75.621C149.535 75.0372 148.929 74.9474 148.177 75.4975C146.111 77.0133 144.483 78.9558 142.967 80.9881C140.665 84.0758 137.802 86.5459 134.759 88.8477C132.839 90.3074 131.032 91.913 129.044 93.294C125.709 95.607 122.173 97.5944 118.591 99.4919C114.728 101.535 110.866 103.568 106.992 105.6C104.208 107.06 101.389 108.474 98.5039 109.732C95.6519 110.978 92.7551 112.112 89.8021 113.145C87.0063 114.122 84.1319 114.874 81.2912 115.66C79.0007 116.3 76.6653 116.828 74.3186 117.277C71.7025 117.771 69.0863 118.198 66.4365 118.445C64.786 118.602 63.1242 118.557 61.4961 118.782C60.8 118.872 60.1151 118.961 59.419 118.961C59.0597 118.961 58.88 118.894 58.9698 118.456C59.1944 117.232 59.767 116.154 60.3733 115.088C62.3719 111.573 64.9095 108.463 67.5256 105.409C70.3326 102.142 73.0498 98.7958 75.9916 95.6519C78.7986 92.654 81.7628 89.8582 85.0526 87.3768C86.7593 86.0856 88.3537 84.6596 90.1839 83.5144C92.7326 81.9088 95.4386 80.6063 98.2232 79.4947C98.9305 79.214 99.6491 78.9558 100.312 78.5965C101.199 78.1137 102.175 77.9677 103.119 77.7768C105.465 77.294 107.733 76.6091 109.923 75.6098C111.427 74.9249 113.011 74.4758 114.627 74.1165C116.514 73.701 118.4 73.3979 120.32 73.2519C121.42 73.1733 121.667 73.3867 121.69 74.5095C121.712 75.6547 121.667 76.8 121.465 77.934C121.286 78.9109 121.578 79.2252 122.509 79.5059C123.778 79.8877 125.013 79.7081 126.237 79.3375C128.045 78.7761 129.729 77.8779 131.492 77.2154C132.761 76.7326 134.074 76.3284 135.343 75.8344C137.308 75.0821 138.801 73.7123 140.227 72.2526C141.171 71.287 142.136 70.3663 143.338 69.7151C143.798 69.4681 144.236 69.4568 144.662 69.5579C146.223 69.9172 147.818 69.8049 149.389 70.0856C151.242 70.4224 153.128 70.6695 154.813 71.5789C156.07 72.2638 156.373 73.1284 156.25 74.5993C156.025 77.193 155.307 79.6856 154.644 82.1782C153.578 86.2091 152.286 90.1838 150.479 93.9452C149.738 95.4947 148.806 96.9544 147.93 98.4365C146.313 101.176 144.595 103.848 142.844 106.498C140.643 109.822 137.937 112.696 135.029 115.391C133.76 116.57 132.514 117.794 131.346 119.074C129.617 120.96 127.439 122.184 125.249 123.385C122.846 124.699 120.354 125.822 117.794 126.799C115.099 127.82 112.449 129.011 109.608 129.639C107.969 129.999 106.42 130.751 104.747 130.897C103.107 131.032 101.535 131.537 99.8849 131.627C98.5375 131.705 97.2014 132.02 95.854 132.154C94.8098 132.267 93.7432 132.188 92.699 132.334C91.5088 132.502 90.2849 132.356 89.1172 132.581C86.1193 133.154 83.099 133.187 80.0898 133.041C78.1811 132.952 76.2611 132.794 74.3523 132.547C71.9832 132.233 69.614 131.896 67.3011 131.29C64.8533 130.65 62.4168 129.931 60.2611 128.472C59.2281 127.775 58.7116 126.855 58.3747 125.721C58.2063 125.137 58.1502 124.508 57.8358 123.969C57.7011 123.745 57.9144 123.7 58.0716 123.621C59.0933 123.071 60.2161 123.408 61.1818 123.251L61.193 123.239Z" fill="#E30613"/>
<path d="M128.46 72.7691C128.46 71.3319 128.865 69.9621 129.145 68.581C129.662 66.1221 130.246 63.6631 130.751 61.2042C131.076 59.621 131.245 57.993 131.705 56.421C132.053 55.2196 132.592 54.0519 132.873 52.8617C133.861 48.6849 135.893 44.9796 137.858 41.2631C139.498 38.153 141.305 35.1102 143.236 32.1684C145.123 29.2828 147.615 26.9024 150.153 24.5782C154.397 20.7045 158.888 17.1677 164.087 14.6189C167.635 12.8786 171.307 11.5312 175.147 10.5881C175.618 10.4758 176.045 10.2175 176.505 10.0603C176.674 10.0042 176.853 9.65613 177.033 10.0042C177.168 10.2624 177.179 10.5095 176.842 10.7228C176.067 11.2056 175.27 11.6323 174.417 11.9242C168.758 13.9003 164.031 17.4372 159.326 21.0189C154.801 24.466 151.298 28.8224 148.199 33.5382C144.269 39.5116 141.193 45.9116 138.97 52.7046C137.05 58.5431 135.747 64.5053 135.792 70.6919C135.792 71.0175 135.792 71.2758 135.388 71.433C133.333 72.2526 131.481 73.4428 129.606 74.5993C128.932 75.0147 128.876 74.9923 128.629 74.2288C128.472 73.7572 128.449 73.2744 128.46 72.7803V72.7691Z" fill="#FBE906"/>
<path d="M138.442 11.7221C135.309 13.2267 133.019 15.7193 130.919 18.3803C128.651 21.2772 126.248 24.0617 123.767 26.7677C121.802 28.9235 120.241 31.3375 118.883 33.8975C116.716 37.9733 114.291 41.9593 112.797 46.327C111.394 50.4365 110.001 54.6133 109.777 59.026C109.754 59.3628 109.732 59.7221 109.788 60.0477C110.08 61.8105 109.956 63.5621 109.698 65.3024C109.575 66.1333 109.608 66.9642 109.552 67.7951C109.541 68.0084 109.608 68.2667 109.283 68.3003C108.182 68.4239 107.307 69.1312 106.285 69.4568C106.004 69.5467 105.757 69.7263 105.476 69.8049C103.669 70.3438 103.5 70.1867 103.411 68.5361C103.22 65.0217 103.871 61.6084 104.702 58.2288C105.443 55.2421 106.319 52.3003 106.712 49.2239C107.048 46.6414 108.373 44.3846 109.429 42.0603C114.055 31.854 120.915 23.3207 129.213 15.8989C131.571 13.7881 134.276 12.2274 137.286 11.2281C137.993 10.9923 137.993 10.9923 138.408 11.6884L138.442 11.7221Z" fill="#FBE906"/>
</svg>
