<svg width="256" height="256" viewBox="0 0 256 256" fill="none" xmlns="http://www.w3.org/2000/svg">
<path d="M255.828 210.866L252.375 213.039C252.12 213.201 246.455 216.724 238.827 218.4C238.503 218.969 238.176 219.522 237.839 220.064C237.491 220.62 237.127 221.182 236.754 221.741C235.804 223.153 234.769 224.552 233.671 225.912C233.228 226.461 232.771 227.003 232.302 227.542C231.842 228.075 231.359 228.611 230.87 229.137C230.063 229.997 229.315 230.761 228.564 231.485C228.032 231.998 227.493 232.5 226.947 232.996C222.892 236.648 218.417 239.74 213.638 242.198C213.247 242.4 212.841 242.601 212.437 242.796L210.79 243.567C210.505 243.696 210.244 243.812 209.983 243.924L209.55 244.113C209.249 244.239 208.958 244.358 208.666 244.48L208.319 244.622C207.916 244.781 207.512 244.94 207.105 245.092C207.039 245.115 206.927 245.158 206.804 245.201C206.493 245.317 206.183 245.429 205.872 245.538L205.478 245.674C205.21 245.77 204.922 245.866 204.635 245.958L204.221 246.091C204.019 246.157 203.818 246.223 203.616 246.286L202.931 246.494C202.412 246.65 201.886 246.799 201.364 246.937L201.02 247.03C200.49 247.169 199.945 247.308 199.405 247.434L199.233 247.477C198.701 247.599 198.178 247.715 197.653 247.824C197.567 247.84 197.49 247.857 197.414 247.87C196.885 247.979 196.359 248.079 195.83 248.171L195.565 248.217C194.997 248.317 194.474 248.399 193.955 248.472C193.869 248.489 193.776 248.499 193.687 248.512C193.181 248.585 192.671 248.651 192.159 248.71L192.096 248.717L191.98 248.73C191.444 248.79 190.909 248.843 190.376 248.889L190.092 248.912C189.566 248.955 189.036 248.991 188.514 249.021L188.253 249.034C187.161 249.087 186.08 249.107 185.041 249.11C184.962 249.11 184.876 249.114 184.786 249.11C184.297 249.107 183.807 249.097 183.321 249.077C183.248 249.077 183.179 249.077 183.109 249.071H183.03C182.531 249.051 182.038 249.025 181.548 248.991L181.399 248.985C180.91 248.948 180.42 248.909 179.931 248.862L179.812 248.849C179.776 248.849 179.739 248.843 179.703 248.839C179.22 248.79 178.744 248.737 178.271 248.674C178.148 248.661 178.052 248.647 177.956 248.631C177.54 248.575 177.06 248.509 176.587 248.429L176.455 248.406C175.985 248.327 175.532 248.244 175.079 248.155L174.99 248.138C174.474 248.036 174.011 247.933 173.554 247.824L173.333 247.774C172.886 247.665 172.443 247.553 172.006 247.434L171.801 247.371C171.507 247.291 171.199 247.202 170.888 247.106H170.859L170.458 246.974C170.022 246.832 169.592 246.686 169.172 246.534L168.986 246.468C168.583 246.319 168.186 246.164 167.796 246.005L167.581 245.915C167.366 245.826 167.154 245.734 166.946 245.644H166.913L166.168 245.287C165.848 245.132 165.533 244.973 165.223 244.814L165.024 244.708C164.69 244.533 164.333 244.331 163.989 244.129C163.956 244.11 163.886 244.07 163.817 244.027C163.446 243.809 163.089 243.584 162.749 243.352C162.702 243.322 162.646 243.286 162.59 243.243C162.295 243.045 162.008 242.836 161.727 242.631L161.578 242.515C161.273 242.281 160.982 242.046 160.698 241.808C160.648 241.761 160.599 241.722 160.549 241.675C160.218 241.387 159.931 241.126 159.659 240.858C159.6 240.799 159.553 240.752 159.51 240.706C159.256 240.455 159.014 240.2 158.783 239.939C158.743 239.896 158.707 239.853 158.67 239.81C158.426 239.529 158.194 239.241 157.973 238.95L157.946 238.914C157.946 238.914 157.943 238.907 157.939 238.904L157.873 238.821C157.609 238.464 157.39 238.146 157.189 237.825L157.126 237.726C156.871 237.309 156.679 236.972 156.514 236.651C155.598 234.868 155.019 232.854 154.787 230.645C146.155 237.627 137.195 243.432 128.063 247.953L123.799 250.06L119.606 247.83C118.226 247.096 116.791 246.296 115.322 245.442C113.407 246.058 111.486 246.62 109.59 247.123C101.361 249.296 93.1556 250.397 85.201 250.397C83.5837 250.397 81.9597 250.354 80.3721 250.268C65.1477 249.431 52.5891 246.355 43.0371 241.123L42.971 241.087L41.2444 240.091C31.4576 234.2 27.224 226.887 26.1391 223.15C23.2054 222.766 20.1261 222.495 16.9509 222.346L15.3931 222.287C13.9345 222.23 12.4163 222.204 11.0206 222.204C8.73178 222.204 7.32279 222.267 7.30956 222.27L1.48176 222.545L9.72734 203.494L0 185.663L4.78264 184.651C7.61054 184.052 10.369 182.937 13.7261 181.036L16.2332 179.557C16.855 179.177 17.4669 178.79 18.0821 178.41C22.2032 175.83 26.4666 173.167 31.58 171.937C33.5446 171.46 35.4629 171.226 37.4375 171.226C38.8399 171.226 40.3283 171.358 41.8629 171.616L42.0416 171.649L44.8595 172.274C45.3457 172.406 45.8584 172.562 46.4537 172.754C34.097 150.412 27.3927 127.676 27.3927 107.672V5.29199H220.511V107.672C220.511 120.767 217.918 134.684 212.798 149.092C212.837 149.128 212.88 149.165 212.923 149.204C213.442 149.661 213.965 150.154 214.471 150.67C216.065 152.297 217.488 154.113 218.695 156.071L218.731 156.13C218.794 156.229 218.854 156.325 218.91 156.421C219.578 157.533 219.995 158.399 220.17 158.78C220.216 158.862 220.259 158.945 220.306 159.031L220.365 159.143C221.301 160.88 222.148 163.023 222.879 165.507C222.915 165.629 222.952 165.755 222.988 165.881C224.566 166.248 226.163 166.552 227.741 166.784L230.876 167.157C232.461 167.3 233.992 167.372 235.437 167.372C241.91 167.372 245.906 166.099 245.945 166.086L254.399 163.347L240.617 189.83C240.716 189.953 240.809 190.072 240.901 190.191L241.053 190.393C241.282 190.703 241.5 191.014 241.698 191.335L241.801 191.501C241.963 191.762 242.175 192.119 242.38 192.516C242.843 193.426 243.23 194.434 243.527 195.519L255.828 210.866Z" fill="white"/>
<path d="M201.228 35.658V39.1044L174.149 61.7012L172.456 59.6704L201.228 35.658Z" fill="#003962"/>
<path d="M149.782 79.6759L118.001 106.192L119.697 108.224L151.477 81.7076L149.782 79.6759Z" fill="#003962"/>
<path d="M201.228 57.5007V60.9471L118.263 130.18L116.566 128.149L201.228 57.5007Z" fill="#003962"/>
<path fill-rule="evenodd" clip-rule="evenodd" d="M138.283 33.0452C138.283 35.8665 138.283 38.5753 138.283 41.2808C138.283 43.0007 138.256 44.7173 138.303 46.4372C138.376 49.1328 140.426 50.6311 143.032 49.9365C144.62 49.5132 145.473 48.2232 145.477 46.1759C145.487 42.1275 145.477 38.0759 145.48 34.0275V33.0882H151.811C151.84 33.2436 151.897 33.3958 151.897 33.5512C151.89 37.9998 151.969 42.4517 151.837 46.8969C151.715 51.0379 149.042 54.8316 143.853 55.0069C141.872 55.0731 139.831 55.0334 137.899 54.6332C134.542 53.9386 132.733 51.5737 132.121 48.2729C131.956 47.3765 131.873 46.4537 131.863 45.5409C131.837 41.6314 131.863 37.7253 131.837 33.8158C131.83 33.1907 132.002 33.0121 132.627 33.0286C134.483 33.0683 136.338 33.0452 138.28 33.0452H138.283Z" fill="#003962"/>
<path fill-rule="evenodd" clip-rule="evenodd" d="M153.015 75.5829C155.108 75.4539 157.096 75.3282 159.09 75.2025C159.266 75.7813 159.381 76.3072 159.58 76.8C160.347 78.6919 162.897 79.5088 164.644 78.4372C166.119 77.531 166.132 75.6358 164.587 74.8453C163.661 74.369 162.596 74.1606 161.597 73.8233C160.198 73.3503 158.753 72.9799 157.414 72.3713C155.012 71.2831 153.65 69.4177 153.845 66.6824C154.04 63.9901 155.548 62.2173 158.042 61.3871C161.019 60.3915 164.075 60.3982 167.065 61.3573C169.79 62.2305 170.974 64.3374 171.302 67.1487C169.287 67.2711 167.31 67.3935 165.305 67.5159C165.249 67.367 165.203 67.2678 165.17 67.162C164.597 65.2403 163.357 64.4564 161.382 64.7872C161.134 64.8302 160.876 64.9162 160.655 65.0419C160.112 65.3528 159.653 65.8423 159.815 66.4575C159.934 66.9106 160.341 67.4332 160.761 67.635C161.488 67.9855 162.325 68.1079 163.112 68.3428C164.644 68.7959 166.211 69.1564 167.69 69.7418C170.66 70.916 171.986 72.874 171.976 75.7978C171.966 78.6853 170.286 81.1858 167.591 82.2971C165.652 83.0975 163.608 83.2066 161.554 83.0876C160.549 83.028 159.534 82.9023 158.555 82.6774C155.393 81.9531 153.822 79.7404 153.177 76.7239C153.104 76.3833 153.074 76.0327 153.011 75.5961L153.015 75.5829Z" fill="#003962"/>
<path fill-rule="evenodd" clip-rule="evenodd" d="M194.738 94.5017C193.085 94.8093 191.424 95.1202 189.767 95.4278C189.513 95.4741 189.255 95.57 189.007 95.5535C188.818 95.5403 188.547 95.4278 188.477 95.279C187.713 93.612 186.354 93.0497 184.624 93.139C182.944 93.225 181.687 94.0155 181.009 95.537C180.655 96.3374 180.381 97.2436 180.354 98.1102C180.311 99.5787 180.324 101.09 180.619 102.522C181.184 105.287 183.639 106.61 186.615 105.856C187.465 105.641 188.256 105.178 189.073 104.824C189.638 104.576 189.433 104.064 189.44 103.647C189.463 102.546 189.446 102.546 188.348 102.546H185.16V98.1036H195.063C195.076 98.2888 195.109 98.4873 195.109 98.689C195.112 101.375 195.122 104.057 195.096 106.739C195.096 107.001 194.97 107.361 194.778 107.507C190.617 110.632 185.947 111.472 180.95 110.308C177.057 109.402 174.999 106.607 174.163 102.88C173.455 99.7309 173.614 96.5954 175.092 93.6517C176.613 90.6287 179.127 88.9451 182.478 88.5416C184.872 88.2539 187.273 88.244 189.635 88.8228C192.241 89.4644 194.378 91.8557 194.745 94.5017H194.738Z" fill="#003962"/>
<path d="M123.548 139.368H52.255C48.5903 128.566 46.6753 118.104 46.6753 108.436V93.6318H53.1712L55.0036 87.9098H71.9082L80.3952 123.462H90.397L98.3086 88.0124H114.618L116.42 93.6318H123.551V139.368H123.548ZM57.1733 81.1493H70.2941L64.6912 57.676L57.17 81.1493H57.1733ZM99.8201 81.2518H112.451L105.006 58.0101L99.8201 81.2518Z" fill="#1D1D1B"/>
<path d="M65.6438 32.5357L85.3432 115.061L103.842 32.1983L123.548 93.6317V24.8557L46.6753 24.8789V91.8755L65.6438 32.5357Z" fill="#E30613"/>
<path d="M124.051 227.575C143.737 217.071 163.092 198.787 177.53 176.957C179.828 173.485 181.972 169.959 183.963 166.406H64.7343C66.7485 169.869 68.9149 173.326 71.2401 176.766C85.8195 198.334 104.927 216.687 124.051 227.572V227.575Z" fill="#003962"/>
<path d="M123.548 135.67H51.0676C53.1117 142.387 55.8503 149.254 59.2404 156.166C62.8258 152.462 67.8499 150.157 73.4164 150.157C84.3146 150.157 93.1456 158.991 93.1456 169.886V176.63H104.136V169.886C104.136 159.097 112.799 150.335 123.548 150.163C123.654 150.163 123.76 150.153 123.869 150.153C134.764 150.153 143.598 158.988 143.598 169.883V176.627H154.586V169.883C154.586 158.984 163.42 150.153 174.315 150.153C180.136 150.153 185.368 152.677 188.98 156.686C192.311 149.654 195.013 142.589 197.021 135.667H123.548V135.67Z" fill="#A3CEEB"/>
<path d="M123.862 245.972L121.316 244.619C98.6559 232.58 75.8739 211.193 58.8105 185.947C40.8971 159.448 31.0342 131.648 31.0342 107.675V8.93018H216.876V107.675C216.876 132.081 207.357 159.917 190.068 186.046C172.846 212.08 150.253 232.907 126.449 244.692L123.862 245.972ZM42.2764 20.1757V107.675C42.2764 129.429 51.4546 154.989 68.1244 179.65C83.5439 202.465 103.796 221.863 124.041 233.294C168.527 209.831 205.624 153.024 205.624 107.675V20.1757H42.2764Z" fill="#1D1D1B"/>
<path d="M235.642 187.849L247.08 165.887C247.08 165.887 242.681 167.356 235.434 167.356C233.913 167.356 232.252 167.283 230.496 167.124L229.1 169.347L227.261 166.737C225.055 166.416 222.717 165.95 220.253 165.292C220.177 165.269 220.1 165.252 220.024 165.232C219.826 164.422 219.614 163.635 219.389 162.881C218.751 160.721 218.013 158.796 217.157 157.208C217.074 157.056 216.998 156.901 216.915 156.759C216.915 156.759 216.548 155.899 215.774 154.609C215.721 154.516 215.658 154.42 215.599 154.324C214.775 152.991 213.548 151.268 211.878 149.562C211.455 149.132 211.005 148.698 210.522 148.275C209.765 147.607 208.934 146.962 208.031 146.363C205.567 144.726 202.554 143.429 198.929 142.999C198.086 142.9 197.216 142.844 196.306 142.844C195.837 142.844 195.354 142.867 194.868 142.897C193.551 142.973 192.162 143.175 190.71 143.492C187.885 144.111 184.813 145.206 181.462 146.935C168.943 153.392 154.341 163.936 138.524 173.19L136.874 174.153C120.786 183.417 103.478 191.176 85.8361 191.851C85.6145 191.858 85.3995 191.858 85.1812 191.864C84.8769 191.871 84.5792 191.878 84.2749 191.878C83.5837 191.894 82.8825 191.917 82.2044 191.917C79.8429 191.917 77.5739 191.821 75.3712 191.656C73.6777 191.527 72.0273 191.358 70.4298 191.143C68.6735 190.908 66.9734 190.627 65.3329 190.303C64.8004 190.201 64.2712 190.095 63.7486 189.982C61.8832 184.055 57.9473 178.218 50.1482 174.483C48.6334 173.756 47.1946 173.184 45.8187 172.714C45.1704 172.496 44.5321 172.294 43.9103 172.125L41.9886 174.311L41.2643 171.543C39.9314 171.318 38.658 171.202 37.4408 171.202C35.6713 171.202 34.0176 171.427 32.4366 171.811C27.1843 173.074 22.7985 176.134 18.1151 179.011L17.4933 181.641L15.5254 180.539C12.4957 182.256 9.27089 183.761 5.54004 184.548L13.779 199.647L7.14417 214.971C7.14417 214.971 8.60609 214.901 11.0239 214.901C12.284 214.901 13.8286 214.924 15.5419 214.987L16.5639 213.978L17.1295 215.05C20.8802 215.228 25.342 215.612 29.8898 216.363C29.7774 216.975 29.688 217.557 29.5657 218.185C29.5657 218.185 31.5105 226.319 43.1297 233.314L44.036 232.285L44.7967 234.273C52.4238 238.454 63.7585 242.052 80.5838 242.975C82.135 243.061 83.6829 243.101 85.2109 243.101C93.3573 243.101 101.18 241.927 108.671 239.945C113.46 238.679 118.121 237.084 122.642 235.255L123.518 232.861L123.561 232.745L123.704 232.844L125.447 234.071C127.305 233.271 129.138 232.431 130.95 231.561C142.106 226.203 152.373 219.687 161.723 213.591C168.834 208.954 175.416 204.568 181.459 201.119C181.677 200.993 181.892 200.871 182.107 200.748C183.533 199.945 184.932 199.194 186.298 198.509C189.251 197.027 192.066 195.84 194.732 195.053C198.939 193.806 202.541 193.287 205.62 193.287C206.358 193.287 207.042 193.343 207.717 193.396C209.249 198.225 211.729 202.809 215.672 206.298C220.044 210.165 224.946 211.683 229.656 211.938L230.658 209.675L232.411 211.951C242.165 211.511 250.443 206.302 250.443 206.302L235.649 187.849H235.642Z" fill="white"/>
<path d="M247.083 169.542C247.083 169.542 242.684 171.007 235.437 171.007C233.916 171.007 232.256 170.935 230.499 170.776L227.261 170.389C225.055 170.068 222.717 169.602 220.253 168.943C220.177 168.92 220.1 168.904 220.024 168.884C219.826 168.074 219.614 167.29 219.389 166.532C218.751 164.372 218.013 162.448 217.157 160.86C217.074 160.708 216.998 160.552 216.915 160.41C216.915 160.41 216.548 159.55 215.774 158.26C215.721 158.168 215.658 158.072 215.599 157.976C214.775 156.643 213.548 154.92 211.878 153.213C211.455 152.783 211.005 152.35 210.522 151.926C209.765 151.258 208.934 150.613 208.031 150.015C205.567 148.377 202.554 147.081 198.929 146.651C198.086 146.552 197.216 146.495 196.306 146.495C195.837 146.495 195.354 146.519 194.868 146.548C193.551 146.624 192.162 146.823 190.71 147.144C187.885 147.762 184.813 148.857 181.462 150.587C168.943 157.043 154.341 167.587 138.524 176.845L136.874 177.808C120.786 187.072 103.478 194.831 85.8361 195.506C85.6145 195.513 85.3995 195.513 85.1812 195.519C84.8769 195.526 84.5792 195.529 84.2749 195.536C83.5837 195.552 82.8825 195.575 82.2044 195.575C79.8429 195.575 77.5739 195.479 75.3712 195.314C73.6777 195.185 72.0273 195.016 70.4298 194.801C68.6735 194.567 66.9734 194.285 65.3329 193.961C64.8004 193.859 64.2712 193.756 63.7486 193.64C61.8832 187.713 57.9473 181.876 50.1482 178.142C48.6334 177.414 47.1946 176.842 45.8187 176.372C45.1704 176.154 44.5321 175.952 43.9103 175.783L41.2643 175.201C39.9314 174.976 38.658 174.864 37.4408 174.864C35.6713 174.864 34.0176 175.089 32.4366 175.472C27.1843 176.736 22.7985 179.795 18.1151 182.673L15.5254 184.198C12.4957 185.914 9.27089 187.419 5.54004 188.206L13.779 203.305L7.14417 218.629C7.14417 218.629 8.60609 218.559 11.0239 218.559C12.284 218.559 13.8286 218.582 15.5419 218.645L17.1262 218.708C20.8769 218.887 25.3387 219.27 29.8865 220.021C29.774 220.633 29.6847 221.215 29.5624 221.84C29.5624 221.84 31.5072 229.973 43.1264 236.969L44.7934 237.928C52.4205 242.108 63.7552 245.707 80.5805 246.63C82.1317 246.716 83.6796 246.756 85.2076 246.756C93.354 246.756 101.176 245.581 108.668 243.6C113.457 242.333 118.117 240.739 122.639 238.907L125.443 237.726C127.302 236.926 129.134 236.086 130.947 235.216C142.103 229.858 152.37 223.342 161.72 217.246C168.831 212.609 175.413 208.223 181.456 204.774C181.674 204.648 181.889 204.525 182.104 204.406C183.53 203.603 184.929 202.852 186.295 202.164C189.248 200.682 192.063 199.495 194.729 198.708C198.936 197.464 202.538 196.941 205.617 196.941C206.355 196.941 207.039 196.998 207.714 197.051C209.245 201.879 211.726 206.464 215.668 209.953C220.041 213.82 224.943 215.338 229.653 215.592L232.411 215.606C242.165 215.166 250.443 209.956 250.443 209.956L235.649 191.504L247.086 169.542H247.083ZM32.6218 193.406C32.6053 197.57 32.3307 202.6 31.6295 208.524C30.7894 208.597 31.6527 213.657 30.677 213.823C28.2261 214.206 24.5151 213.816 24.5151 213.816C21.2936 213.479 18.1912 213.294 15.3931 213.204L18.7436 205.461L18.8858 205.134C18.8858 205.134 19.2728 204.403 19.2959 203.259C19.3191 202.111 18.6212 200.884 18.6212 200.884L18.5286 200.715L13.4119 191.335C16.9641 189.794 20.0765 187.852 22.9441 186.056C26.0399 184.122 28.8744 182.349 31.8512 181.294C31.9338 181.81 32.0099 182.385 32.086 183.02L32.2712 184.757C32.4531 186.721 32.5953 189.093 32.6218 191.921V193.409V193.406ZM205.61 191.52C201.82 191.52 197.639 192.189 193.181 193.511C183.9 196.257 173.68 202.948 161.846 210.694C140.982 224.344 115.018 241.341 85.1977 241.341C83.759 241.341 82.297 241.301 80.8649 241.222C45.65 239.291 36.8686 225.115 35.162 221.387C37.7484 207.459 38.2346 196.885 37.9932 189.483C47.1119 194.861 61.9626 201.006 82.1978 201.006C83.4679 201.006 84.7578 200.98 86.0378 200.934C113.252 199.895 138.66 183.596 161.075 169.215C169.278 163.956 177.024 158.985 183.943 155.416C188.428 153.104 192.585 151.93 196.303 151.93C207.102 151.93 211.746 162.147 211.928 162.547L212.057 162.844L212.219 163.126C215.682 169.132 217.163 182.769 217.719 194.345C214.524 192.632 210.535 191.52 205.617 191.52H205.61ZM241.943 208.035C238.976 209.166 235.126 210.228 231.118 210.228C228.978 210.228 227.01 209.913 225.184 209.315C225.941 209.384 226.709 209.434 227.476 209.437C217.216 208.134 222.869 199.759 223.282 198.135C223.14 193.657 222.859 188.378 222.323 183.1C222.323 183.1 221.318 175.327 221.225 174.788C225.971 175.879 230.724 176.432 235.434 176.432C236.109 176.432 236.76 176.422 237.392 176.402L230.83 189L229.709 191.153L225.469 192.05L231.306 194.772L231.409 194.897L241.94 208.038L241.943 208.035ZM45.134 196.65C43.9897 196.009 43.3348 195.642 43.3348 195.642C43.3348 195.642 44.0426 195.893 45.2763 196.329C46.4967 196.802 48.2762 197.371 50.3996 198.053C52.5098 198.78 55.04 199.386 57.7224 200.103C60.4147 200.775 63.3219 201.354 66.2458 201.793C69.1663 202.28 72.1067 202.63 74.875 202.825C77.6467 202.978 80.2398 203.186 82.4723 203.15C84.7016 203.156 86.5736 203.166 87.8768 203.097C89.1866 203.064 89.9374 203.044 89.9374 203.044C89.9374 203.044 89.1998 203.193 87.9165 203.444C86.6232 203.659 84.7644 204.009 82.512 204.162C80.2629 204.347 77.6202 204.479 74.7923 204.387C71.9644 204.264 68.9579 203.986 65.9613 203.573C62.9879 203.04 60.0409 202.372 57.3189 201.608C54.6001 200.818 52.1327 199.875 50.0523 198.999C47.9586 198.152 46.3016 197.249 45.1374 196.644L45.134 196.65Z" fill="#1D1D1B"/>
<path d="M75.7118 218.999C75.5233 219.942 75.1131 220.689 74.4781 221.245C73.8464 221.797 73.089 222.154 72.2026 222.316C71.3228 222.479 70.4033 222.462 69.4673 222.27L65.8224 221.533L65.4288 223.481L66.8643 223.772L66.1664 227.212L57.8116 225.511L58.5095 222.072L59.8888 222.353L61.3937 214.918L60.0211 214.636L60.7189 211.197L70.476 213.178C72.4638 213.578 73.9026 214.296 74.7989 215.331C75.6953 216.36 75.9996 217.583 75.7118 218.996V218.999ZM69.9435 217.729C70.0361 217.246 69.9535 216.872 69.6889 216.608C69.4243 216.343 69.0075 216.158 68.432 216.039L67.0032 215.744L66.4674 218.374L68.0682 218.698C68.5842 218.804 69.0042 218.774 69.325 218.609C69.6525 218.443 69.8575 218.146 69.9435 217.726V217.729Z" fill="#003962"/>
<path d="M86.62 216.958L89.8481 224.374L90.9164 224.314L91.1214 227.813L83.4911 228.25L83.3091 225.038L84.5825 224.966L83.9177 223.18L80.1736 223.391L79.6643 225.243L80.855 225.177L81.0369 228.386L75.2719 228.716L75.0735 225.217L76.1517 225.157L78.4835 217.421L77.2862 217.491L77.0878 213.988L87.5791 213.386L87.7776 216.889L86.6133 216.955L86.62 216.958ZM83.2595 221.38L81.8042 217.415H81.7645L80.6532 221.529L83.2595 221.38Z" fill="#003962"/>
<path d="M96.0827 215.189L98.259 217.706L99.4001 214.398L98.5368 214.603L97.7232 211.193L103.187 209.884L104.007 213.297L103.098 213.512L100.766 219.479L101.309 221.744L102.426 221.476L103.247 224.886L95.4774 226.745L94.6638 223.332L95.8049 223.061L95.2624 220.795L90.4467 216.535L89.5041 216.76L88.6904 213.353L96.0992 211.58L96.9195 214.997L96.0827 215.192V215.189Z" fill="#003962"/>
<path d="M111.155 207.763L110.834 206.91L113.93 205.762L115.369 209.649L112.286 210.796C111.932 210.35 111.539 210.046 111.105 209.887C110.672 209.731 110.209 209.741 109.716 209.93C109.405 210.046 109.19 210.211 109.058 210.429C108.929 210.651 108.909 210.882 109.002 211.131C109.108 211.415 109.28 211.6 109.511 211.686C109.749 211.775 110.513 211.861 111.797 211.951L113.01 212.07C115.689 212.351 117.38 213.419 118.071 215.278C118.349 216.036 118.415 216.806 118.259 217.59C118.111 218.374 117.757 219.075 117.214 219.7C116.672 220.325 115.967 220.792 115.117 221.109C114.565 221.318 113.95 221.43 113.285 221.453C112.62 221.476 112.005 221.404 111.429 221.238L111.773 222.148L108.684 223.295L107.057 218.906L110.139 217.759C110.573 218.304 111.003 218.655 111.446 218.814C111.889 218.976 112.372 218.959 112.891 218.768C113.222 218.642 113.467 218.47 113.606 218.235C113.751 218.007 113.768 217.752 113.662 217.468C113.563 217.196 113.335 216.985 112.981 216.839C112.637 216.694 112.094 216.608 111.376 216.575L110.302 216.512C108.906 216.439 107.755 216.171 106.845 215.711C105.942 215.252 105.301 214.517 104.933 213.512C104.636 212.718 104.556 211.947 104.702 211.197C104.834 210.443 105.168 209.778 105.694 209.192C106.22 208.607 106.895 208.164 107.725 207.853C108.317 207.634 108.909 207.519 109.491 207.509C110.077 207.496 110.632 207.585 111.158 207.767L111.155 207.763Z" fill="#003962"/>
<path d="M133.715 200.107L139.679 205.567L140.631 205.071L142.242 208.187L135.442 211.696L133.97 208.835L135.104 208.25L133.772 206.887L130.444 208.607L130.739 210.505L131.797 209.96L133.269 212.821L128.136 215.467L126.531 212.351L127.494 211.851L126.469 203.844L125.41 204.39L123.799 201.274L133.146 196.452L134.747 199.567L133.719 200.103L133.715 200.107ZM132.449 205.514L129.498 202.488L129.465 202.511L130.12 206.715L132.452 205.514H132.449Z" fill="#003962"/>
<path d="M154.192 192.618C155.383 194.636 155.704 196.551 155.151 198.36C154.599 200.169 153.213 201.731 151.01 203.03L143.585 207.419L141.802 204.396L142.794 203.811L138.925 197.262L137.929 197.851L136.163 194.844L143.393 190.568C144.623 189.847 145.9 189.384 147.24 189.182C148.569 188.983 149.853 189.149 151.083 189.681C152.317 190.217 153.352 191.193 154.195 192.618H154.192ZM144.557 193.955L143.803 194.398L147.663 200.93L148.42 200.487C149.201 200.021 149.654 199.412 149.783 198.661C149.905 197.907 149.618 196.938 148.913 195.754C148.199 194.55 147.511 193.822 146.833 193.574C146.158 193.33 145.394 193.455 144.557 193.955Z" fill="#003962"/>
<path d="M169.913 182.719C170.686 183.956 171.08 185.249 171.093 186.599C171.103 187.951 170.749 189.231 170.025 190.445C169.304 191.663 168.275 192.694 166.926 193.538C165.619 194.358 164.263 194.821 162.851 194.93C161.449 195.039 160.132 194.785 158.918 194.18C157.705 193.574 156.719 192.661 155.962 191.454C155.204 190.244 154.814 188.967 154.804 187.621C154.787 186.275 155.135 184.991 155.846 183.771C156.56 182.557 157.579 181.525 158.925 180.685C160.274 179.832 161.67 179.359 163.079 179.263C164.498 179.167 165.805 179.421 167.005 180.03C168.203 180.635 169.175 181.532 169.919 182.722L169.913 182.719ZM165.143 190.621C165.547 190.369 165.801 190.058 165.897 189.695C165.996 189.331 165.937 188.858 165.719 188.286C165.497 187.713 165.11 186.979 164.544 186.079C163.976 185.17 163.483 184.498 163.049 184.065C162.623 183.635 162.226 183.384 161.865 183.311C161.502 183.242 161.125 183.331 160.731 183.576C160.337 183.82 160.093 184.115 159.993 184.469C159.894 184.819 159.944 185.282 160.159 185.855C160.364 186.427 160.757 187.171 161.333 188.087C161.898 188.987 162.391 189.658 162.805 190.105C163.225 190.548 163.618 190.809 163.989 190.882C164.353 190.958 164.743 190.869 165.14 190.617L165.143 190.621Z" fill="#003962"/>
<path d="M175.416 175.138L178.059 179.934C178.479 180.708 178.889 181.198 179.289 181.406C179.683 181.618 180.113 181.591 180.579 181.337C181.022 181.092 181.244 180.754 181.244 180.325C181.244 179.895 181.022 179.276 180.579 178.459L177.976 173.733L177.328 174.087L175.638 171.007L180.454 168.365L182.144 171.441L181.141 171.993L183.926 177.053C184.78 178.608 184.985 180.057 184.551 181.399C184.118 182.739 183.04 183.883 181.323 184.826C179.458 185.851 177.85 186.169 176.508 185.772C175.158 185.378 174.01 184.317 173.058 182.587L170.462 177.86L169.469 178.403L167.776 175.33L174.358 171.712L176.048 174.788L175.416 175.135V175.138Z" fill="#003962"/>
<path d="M199.859 165.603C200.801 165.864 201.519 166.317 202.025 166.969C202.524 167.614 202.806 168.348 202.878 169.162C202.945 169.903 202.812 170.597 202.475 171.252C202.144 171.907 201.668 172.396 201.046 172.73L203.355 175.886L204.406 175.793L204.711 179.286L199.468 179.746L195.764 174.096L193.988 174.252L194.203 176.686L195.311 176.59L195.615 180.083L187.697 180.771L187.393 177.282L188.56 177.179L187.902 169.618L186.728 169.721L186.43 166.228L195.145 165.464C197.256 165.285 198.827 165.325 199.862 165.606L199.859 165.603ZM197.014 169.919C196.974 169.492 196.793 169.172 196.472 168.943C196.144 168.722 195.724 168.629 195.208 168.675L193.508 168.824L193.753 171.576L195.413 171.431C195.949 171.384 196.366 171.219 196.647 170.951C196.925 170.68 197.047 170.333 197.011 169.916L197.014 169.919Z" fill="#003962"/>
<path d="M241.414 193.012C241.249 192.688 241.067 192.374 240.878 192.066L240.779 191.911C240.594 191.613 240.392 191.322 240.144 190.988L240.041 190.852C239.83 190.578 239.615 190.31 239.363 190.019L239.307 189.959C239.089 189.711 238.854 189.466 238.612 189.225C238.586 189.195 238.556 189.165 238.523 189.129L238.464 189.073C238.202 188.818 237.938 188.573 237.624 188.302L237.495 188.19C237.23 187.965 236.955 187.74 236.671 187.525C236.611 187.475 236.545 187.426 236.482 187.383C236.205 187.174 235.92 186.973 235.629 186.771L235.5 186.685C235.189 186.48 234.865 186.275 234.485 186.047L234.346 185.961C234.015 185.769 233.674 185.58 233.347 185.405C233.281 185.368 233.215 185.335 233.145 185.299C232.904 185.173 232.656 185.048 232.404 184.925L232.199 184.747L231.819 184.651C231.521 184.515 231.217 184.383 230.909 184.254C230.843 184.224 230.777 184.198 230.694 184.165C230.311 184.006 229.92 183.854 229.504 183.702L229.332 183.639C228.981 183.513 228.624 183.387 228.263 183.272L228.058 183.205C227.635 183.073 227.205 182.944 226.821 182.838C226.729 182.812 226.643 182.785 226.59 182.772C226.17 182.656 225.74 182.547 225.313 182.445L225.075 182.388C224.632 182.286 224.182 182.183 223.682 182.084L223.616 182.071C223.17 181.982 222.713 181.899 222.26 181.823C222.201 181.813 222.144 181.803 222.088 181.793C221.632 181.717 221.175 181.651 220.729 181.591C220.63 181.578 220.534 181.565 220.477 181.558C220.005 181.495 219.532 181.442 218.989 181.386L218.857 181.376C218.381 181.33 217.894 181.29 217.408 181.254L217.312 181.247C216.816 181.214 216.317 181.191 215.801 181.171L215.556 181.161C215.063 181.145 214.564 181.135 214.068 181.132H213.829C212.778 181.132 211.709 181.155 210.664 181.208L210.419 181.221C209.91 181.251 209.401 181.284 208.855 181.327L208.59 181.35C208.068 181.399 207.539 181.449 207.006 181.509L206.904 181.522C206.391 181.581 205.872 181.648 205.289 181.73C205.213 181.74 205.134 181.75 205.121 181.753C204.598 181.829 204.072 181.912 203.523 182.005L203.252 182.054C202.716 182.147 202.177 182.25 201.704 182.349C201.602 182.365 201.499 182.388 201.397 182.415C200.897 182.517 200.394 182.627 199.941 182.736L199.71 182.785C199.181 182.911 198.651 183.047 198.069 183.199L197.805 183.272C197.279 183.414 196.75 183.563 196.22 183.721L195.853 183.834C195.582 183.916 195.311 184.003 195.026 184.092L194.59 184.234C194.411 184.294 194.229 184.356 194.047 184.416L193.806 184.499C193.657 184.548 193.508 184.598 193.356 184.654C193.052 184.763 192.747 184.872 192.45 184.982L192.162 185.087C191.762 185.236 191.372 185.392 190.961 185.55L189.354 186.222C189.086 186.334 188.818 186.453 188.524 186.586L188.1 186.777C187.833 186.903 187.561 187.029 187.317 187.148L186.906 187.343C186.516 187.535 186.126 187.727 185.736 187.928C184.72 188.451 183.688 189.02 182.663 189.622C181.998 190.016 181.347 190.419 180.698 190.832C180.057 191.246 179.428 191.669 178.796 192.103C176.663 193.588 174.603 195.225 172.671 196.965C172.129 197.454 171.596 197.95 171.073 198.453C170.326 199.177 169.569 199.948 168.814 200.752C168.332 201.271 167.862 201.793 167.396 202.326C166.03 203.897 164.753 205.534 163.608 207.175C163.413 207.453 163.225 207.73 163.04 208.008C160.632 211.587 158.78 215.229 157.536 218.817C157.341 219.37 157.165 219.922 157.003 220.468C156.841 221.017 156.696 221.559 156.56 222.105C156.497 222.366 156.438 222.631 156.375 222.915C156.263 223.451 156.16 223.983 156.081 224.503C155.823 226.127 155.72 227.691 155.77 229.153C155.862 231.779 156.434 234.134 157.476 236.155C157.642 236.476 157.824 236.793 158.015 237.104L158.108 237.25C158.293 237.548 158.498 237.842 158.737 238.163L158.836 238.292C159.044 238.563 159.262 238.834 159.491 239.099C159.524 239.142 159.557 239.175 159.573 239.191C159.802 239.449 160.036 239.701 160.288 239.949C160.327 239.992 160.37 240.035 160.423 240.088C160.681 240.339 160.949 240.587 161.267 240.865C161.313 240.905 161.356 240.944 161.402 240.981C161.674 241.212 161.951 241.437 162.242 241.662L162.375 241.765C162.649 241.97 162.93 242.168 163.218 242.363C163.268 242.4 163.314 242.433 163.354 242.459C163.678 242.677 164.019 242.889 164.386 243.107C164.445 243.144 164.501 243.18 164.535 243.197C164.869 243.392 165.206 243.584 165.537 243.756L165.719 243.852C166.036 244.017 166.357 244.179 166.688 244.338L167.204 244.583H167.22C167.475 244.698 167.733 244.807 167.994 244.92L168.196 245.006C168.573 245.158 168.96 245.31 169.41 245.472L169.539 245.519C169.946 245.667 170.362 245.81 170.789 245.945L171.07 246.038H171.09C171.431 246.144 171.771 246.246 172.115 246.342L172.287 246.392C172.711 246.508 173.144 246.62 173.633 246.736L173.796 246.775C174.239 246.881 174.692 246.98 175.181 247.08L175.251 247.093C175.701 247.182 176.157 247.265 176.643 247.348L176.756 247.367C177.219 247.444 177.688 247.51 178.115 247.569C178.198 247.582 178.28 247.592 178.403 247.606C178.876 247.668 179.352 247.721 179.769 247.764C179.822 247.771 179.875 247.778 179.934 247.781L180.027 247.791C180.503 247.834 180.986 247.877 181.472 247.91L181.601 247.916C182.084 247.95 182.577 247.973 183.07 247.993H183.152C183.215 247.999 183.281 247.999 183.348 248.002C183.834 248.019 184.323 248.032 184.766 248.036C184.809 248.036 184.852 248.036 184.895 248.036C184.942 248.036 184.991 248.036 185.044 248.036C186.053 248.036 187.125 248.016 188.196 247.959L188.451 247.946C188.967 247.92 189.483 247.883 189.999 247.84L190.28 247.817C190.806 247.771 191.332 247.721 191.861 247.662L191.997 247.645C192.509 247.586 193.025 247.52 193.548 247.444C193.631 247.434 193.71 247.424 193.793 247.41C194.305 247.338 194.818 247.255 195.37 247.162L195.645 247.113C196.164 247.02 196.687 246.924 197.209 246.815C197.279 246.802 197.351 246.789 197.434 246.772C197.95 246.666 198.466 246.551 198.989 246.431L199.161 246.388C199.693 246.266 200.229 246.127 200.755 245.988L201.082 245.902C201.618 245.757 202.151 245.608 202.627 245.462L203.292 245.261C203.487 245.198 203.685 245.135 203.834 245.085L204.294 244.936C204.575 244.844 204.853 244.751 205.117 244.659L205.514 244.523C205.832 244.414 206.146 244.298 206.404 244.202C206.526 244.159 206.649 244.113 206.728 244.083C207.128 243.934 207.525 243.779 207.975 243.6L208.256 243.484C208.544 243.365 208.835 243.246 209.126 243.124L209.553 242.939C209.811 242.826 210.069 242.714 210.343 242.591L211.964 241.831C212.361 241.639 212.758 241.44 213.145 241.242C217.841 238.831 222.237 235.788 226.219 232.203C226.758 231.716 227.291 231.22 227.81 230.718C228.548 230.003 229.285 229.252 230.076 228.412C230.559 227.893 231.028 227.37 231.485 226.844C231.945 226.315 232.394 225.783 232.828 225.244C233.906 223.907 234.925 222.531 235.854 221.152C236.218 220.603 236.578 220.054 236.919 219.505C243.124 209.516 244.804 199.614 241.414 193.025V193.012Z" fill="white"/>
<path d="M231.991 187.575C231.667 187.403 231.329 187.237 230.989 187.078C230.982 187.072 230.972 187.069 230.966 187.069C230.618 186.903 230.264 186.751 229.904 186.599C229.844 186.572 229.785 186.549 229.732 186.526C229.378 186.381 229.017 186.238 228.654 186.106C228.594 186.086 228.535 186.063 228.472 186.04C228.091 185.904 227.704 185.769 227.311 185.643C227.304 185.643 227.301 185.643 227.294 185.636C226.897 185.511 226.497 185.392 226.087 185.279C226.031 185.263 225.978 185.246 225.918 185.233C225.521 185.124 225.118 185.021 224.708 184.922C224.638 184.905 224.569 184.889 224.496 184.872C224.079 184.773 223.656 184.681 223.226 184.595C223.193 184.588 223.16 184.581 223.127 184.575C222.707 184.492 222.277 184.413 221.843 184.34C221.797 184.33 221.751 184.323 221.708 184.317C221.268 184.244 220.825 184.178 220.378 184.118C220.302 184.108 220.223 184.098 220.147 184.088C219.697 184.029 219.247 183.979 218.787 183.93C218.731 183.926 218.675 183.92 218.619 183.916C218.162 183.873 217.699 183.834 217.233 183.801C217.206 183.801 217.18 183.801 217.15 183.794C216.677 183.764 216.198 183.738 215.718 183.721C215.639 183.721 215.556 183.715 215.477 183.711C215.004 183.695 214.531 183.685 214.051 183.682C213.975 183.682 213.899 183.682 213.826 183.682C212.834 183.682 211.825 183.701 210.81 183.754C210.727 183.758 210.648 183.764 210.565 183.768C210.075 183.794 209.586 183.83 209.093 183.867C209.004 183.877 208.914 183.883 208.825 183.89C208.322 183.936 207.81 183.983 207.3 184.042C207.267 184.045 207.234 184.052 207.198 184.055C206.705 184.112 206.206 184.174 205.709 184.244C205.633 184.254 205.561 184.264 205.485 184.277C204.982 184.35 204.479 184.429 203.976 184.515C203.88 184.532 203.781 184.552 203.685 184.568C203.176 184.654 202.667 184.753 202.161 184.856C202.094 184.869 202.032 184.882 201.965 184.899C201.473 185.001 200.976 185.107 200.48 185.223C200.424 185.236 200.361 185.249 200.305 185.259C199.796 185.382 199.283 185.511 198.77 185.646C198.671 185.676 198.569 185.699 198.469 185.726C197.963 185.861 197.454 186.007 196.948 186.156C196.921 186.166 196.888 186.172 196.859 186.182C196.769 186.209 196.68 186.238 196.594 186.265C196.333 186.344 196.068 186.427 195.807 186.51C195.665 186.556 195.526 186.602 195.383 186.648C195.129 186.731 194.871 186.82 194.616 186.91C194.481 186.956 194.345 187.002 194.209 187.049C193.915 187.155 193.617 187.26 193.323 187.37C193.234 187.403 193.141 187.436 193.052 187.469C192.668 187.611 192.291 187.76 191.907 187.912C191.805 187.955 191.699 187.998 191.593 188.038C191.315 188.153 191.034 188.266 190.756 188.385C190.617 188.444 190.482 188.504 190.346 188.564C190.095 188.669 189.843 188.782 189.595 188.894C189.456 188.96 189.318 189.02 189.175 189.086C188.914 189.208 188.656 189.328 188.398 189.453C188.276 189.509 188.153 189.569 188.031 189.629C187.654 189.814 187.28 189.999 186.903 190.191C185.901 190.707 184.922 191.249 183.963 191.811C183.324 192.189 182.696 192.575 182.077 192.972C181.459 193.369 180.854 193.779 180.255 194.193C178.165 195.648 176.203 197.213 174.378 198.856C173.855 199.326 173.346 199.802 172.846 200.282C172.099 201.006 171.378 201.744 170.68 202.488C170.213 202.987 169.764 203.49 169.32 203.996C168.001 205.514 166.787 207.072 165.692 208.643C165.51 208.905 165.332 209.166 165.153 209.43C162.858 212.844 161.098 216.32 159.94 219.657C159.762 220.17 159.596 220.683 159.448 221.185C159.299 221.695 159.163 222.194 159.041 222.694C158.981 222.942 158.925 223.193 158.869 223.438C158.766 223.931 158.67 224.417 158.598 224.9C158.369 226.345 158.27 227.737 158.316 229.06C158.392 231.263 158.859 233.268 159.739 234.981C159.874 235.245 160.023 235.503 160.182 235.758C160.208 235.801 160.235 235.844 160.261 235.887C160.413 236.129 160.579 236.37 160.754 236.608C160.787 236.651 160.823 236.694 160.853 236.74C161.035 236.979 161.227 237.217 161.429 237.445C161.445 237.465 161.459 237.478 161.475 237.498C161.674 237.723 161.882 237.941 162.1 238.156C162.13 238.189 162.163 238.222 162.196 238.255C162.418 238.474 162.649 238.685 162.891 238.894C162.937 238.933 162.98 238.973 163.03 239.013C163.274 239.221 163.526 239.426 163.79 239.628C163.82 239.651 163.853 239.674 163.886 239.701C164.148 239.896 164.415 240.084 164.693 240.27C164.716 240.289 164.743 240.309 164.773 240.326C165.057 240.518 165.355 240.703 165.659 240.881C165.712 240.915 165.765 240.948 165.821 240.981C166.122 241.156 166.43 241.331 166.747 241.5C166.794 241.526 166.843 241.55 166.889 241.573C167.217 241.741 167.551 241.91 167.895 242.072C167.902 242.072 167.911 242.079 167.915 242.082C168.262 242.244 168.619 242.4 168.983 242.552C169.039 242.572 169.096 242.598 169.155 242.624C169.509 242.767 169.866 242.909 170.233 243.041C170.293 243.061 170.352 243.084 170.412 243.104C170.792 243.243 171.179 243.375 171.576 243.504C171.576 243.504 171.583 243.504 171.586 243.504C171.983 243.63 172.39 243.752 172.797 243.865C172.853 243.881 172.906 243.898 172.962 243.914C173.362 244.024 173.766 244.126 174.176 244.225C174.245 244.239 174.311 244.255 174.384 244.272C174.801 244.371 175.224 244.463 175.658 244.553C175.687 244.559 175.724 244.566 175.754 244.569C176.18 244.655 176.607 244.731 177.04 244.804C177.086 244.814 177.129 244.821 177.172 244.827C177.612 244.9 178.059 244.963 178.509 245.026C178.585 245.039 178.661 245.046 178.737 245.055C179.183 245.115 179.637 245.165 180.093 245.211C180.149 245.218 180.205 245.221 180.262 245.227C180.721 245.27 181.184 245.31 181.651 245.343C181.677 245.343 181.7 245.343 181.727 245.343C182.2 245.376 182.683 245.399 183.166 245.419C183.242 245.419 183.321 245.426 183.404 245.426C183.877 245.442 184.353 245.456 184.833 245.459C184.905 245.459 184.978 245.459 185.051 245.459C186.046 245.462 187.055 245.439 188.071 245.386C188.15 245.383 188.229 245.38 188.312 245.373C188.802 245.347 189.294 245.313 189.791 245.274C189.88 245.267 189.966 245.257 190.055 245.251C190.561 245.208 191.071 245.158 191.58 245.102C191.61 245.095 191.646 245.092 191.679 245.089C192.175 245.032 192.675 244.966 193.174 244.897C193.247 244.887 193.323 244.88 193.392 244.867C193.895 244.794 194.398 244.715 194.904 244.629C195 244.612 195.099 244.592 195.192 244.576C195.701 244.487 196.21 244.391 196.72 244.285C196.786 244.275 196.849 244.262 196.908 244.248C197.404 244.146 197.901 244.037 198.397 243.921C198.456 243.908 198.512 243.891 198.569 243.878C199.081 243.759 199.594 243.627 200.107 243.491C200.206 243.465 200.308 243.438 200.404 243.412C200.914 243.276 201.42 243.134 201.926 242.978C201.959 242.968 201.989 242.962 202.018 242.955C202.108 242.929 202.194 242.899 202.283 242.873C202.544 242.79 202.809 242.707 203.07 242.621C203.212 242.578 203.348 242.532 203.49 242.486C203.751 242.4 204.009 242.314 204.264 242.224C204.4 242.178 204.532 242.135 204.664 242.085C204.962 241.983 205.26 241.874 205.561 241.761C205.65 241.731 205.739 241.698 205.822 241.665C206.206 241.523 206.586 241.374 206.966 241.222C207.066 241.179 207.171 241.139 207.274 241.096C207.555 240.981 207.836 240.865 208.117 240.746C208.253 240.69 208.389 240.627 208.524 240.567C208.776 240.458 209.024 240.349 209.275 240.236C209.417 240.174 209.556 240.111 209.698 240.045C209.956 239.922 210.211 239.803 210.472 239.681C210.595 239.621 210.714 239.562 210.839 239.502C211.216 239.32 211.59 239.135 211.967 238.94C216.644 236.535 220.845 233.565 224.496 230.278C225.015 229.808 225.528 229.332 226.027 228.849C226.775 228.124 227.496 227.39 228.194 226.643C228.654 226.147 229.11 225.644 229.547 225.134C229.987 224.628 230.416 224.119 230.83 223.606C231.868 222.32 232.831 221.017 233.717 219.704C234.068 219.178 234.412 218.652 234.739 218.123C240.309 209.156 242.128 199.981 239.132 194.153C238.996 193.889 238.844 193.631 238.688 193.376C238.662 193.333 238.636 193.29 238.606 193.244C238.454 192.999 238.288 192.761 238.113 192.526C238.077 192.48 238.044 192.433 238.01 192.39C237.829 192.152 237.637 191.917 237.438 191.686C237.425 191.669 237.405 191.649 237.389 191.633C237.194 191.408 236.982 191.19 236.764 190.975C236.734 190.942 236.704 190.909 236.671 190.875C236.446 190.657 236.215 190.445 235.976 190.237C235.93 190.197 235.884 190.158 235.837 190.118C235.593 189.91 235.338 189.705 235.077 189.506C235.047 189.48 235.011 189.453 234.978 189.433C234.72 189.238 234.452 189.05 234.18 188.861C234.154 188.845 234.124 188.825 234.094 188.805C233.81 188.616 233.516 188.428 233.215 188.249C233.158 188.216 233.105 188.183 233.053 188.15C232.748 187.971 232.441 187.799 232.123 187.631C232.077 187.608 232.031 187.581 231.981 187.558L231.991 187.575ZM224.777 228.505C224.258 229.001 223.725 229.487 223.183 229.967C221.552 231.399 219.832 232.758 218.037 234.012L217.137 234.634L216.214 235.222L215.291 235.811L214.345 236.367L213.399 236.919L212.453 237.425L211.508 237.931L210.525 238.407C207.952 239.691 205.296 240.69 202.693 241.503C201.393 241.933 200.083 242.251 198.813 242.578C197.527 242.843 196.273 243.134 195.036 243.312C194.421 243.425 193.806 243.511 193.204 243.587C192.602 243.663 192.003 243.726 191.421 243.795C190.836 243.838 190.26 243.881 189.695 243.921C189.129 243.967 188.573 243.99 188.028 244.004C186.39 244.076 184.859 244.027 183.453 243.938C182.984 243.908 182.527 243.878 182.087 243.845C181.651 243.802 181.224 243.752 180.811 243.706C180.401 243.66 180.007 243.61 179.63 243.564C178.872 243.438 178.181 243.326 177.553 243.22C177.245 243.157 176.951 243.094 176.676 243.035C175.846 242.853 175.181 242.691 174.698 242.542C174.371 242.453 174.123 242.383 173.954 242.333C173.786 242.287 173.7 242.264 173.7 242.264C173.7 242.264 173.749 242.274 173.848 242.294C174.01 242.327 174.305 242.383 174.718 242.469C174.801 242.486 174.887 242.502 174.98 242.522C175.257 242.581 175.575 242.651 175.942 242.701C176.183 242.737 176.445 242.777 176.719 242.82C176.997 242.863 177.291 242.909 177.602 242.955C178.228 243.025 178.919 243.101 179.673 243.187C180.43 243.24 181.251 243.293 182.12 243.336C182.56 243.342 183.013 243.349 183.477 243.359C183.708 243.365 183.943 243.369 184.184 243.365C184.422 243.365 184.664 243.362 184.909 243.349C185.401 243.336 185.901 243.326 186.417 243.312C186.93 243.279 187.455 243.246 187.991 243.213C188.262 243.2 188.53 243.18 188.802 243.16C189.076 243.137 189.351 243.111 189.628 243.074C190.184 243.015 190.753 242.949 191.325 242.886C192.185 242.75 193.068 242.638 193.965 242.482C194.259 242.433 194.56 242.373 194.861 242.31C195.77 242.155 196.683 241.937 197.613 241.708C197.924 241.636 198.235 241.559 198.549 241.487C199.786 241.123 201.062 240.802 202.329 240.356C202.65 240.256 202.968 240.15 203.285 240.038C204.238 239.704 205.19 239.324 206.153 238.947C206.784 238.672 207.419 238.398 208.054 238.12C208.696 237.848 209.315 237.518 209.946 237.217L210.886 236.76L211.825 236.248L212.771 235.738L213.681 235.199L214.593 234.657L215.49 234.078L216.386 233.499L217.259 232.887C219.019 231.67 220.709 230.354 222.31 228.961C222.842 228.498 223.365 228.025 223.878 227.542C224.9 226.58 225.882 225.594 226.821 224.585C227.761 223.577 228.65 222.551 229.484 221.503C229.901 220.98 230.307 220.454 230.698 219.928C231.478 218.87 232.209 217.808 232.881 216.743C233.218 216.211 233.542 215.682 233.846 215.149C234.458 214.087 235.017 213.032 235.513 211.99C236.013 210.949 236.453 209.923 236.826 208.921C237.385 207.416 237.812 205.971 238.103 204.615C238.199 204.162 238.282 203.722 238.348 203.292C238.417 202.862 238.47 202.445 238.507 202.042C238.626 200.828 238.612 199.736 238.523 198.804C238.503 198.648 238.487 198.496 238.474 198.347C238.46 198.198 238.444 198.056 238.414 197.92C238.361 197.646 238.315 197.388 238.265 197.15C238.239 197.031 238.212 196.918 238.182 196.809C238.093 196.482 238.004 196.201 237.934 195.952C237.683 195.327 237.547 194.993 237.547 194.993C237.547 194.993 237.706 195.317 238.007 195.926C238.156 196.32 238.358 196.836 238.533 197.477C238.632 197.861 238.728 198.291 238.791 198.764C238.887 199.392 238.95 200.097 238.963 200.867C238.983 201.638 238.95 202.472 238.86 203.355C238.814 203.798 238.755 204.254 238.682 204.721C238.533 205.653 238.321 206.632 238.04 207.644C237.905 208.147 237.746 208.66 237.574 209.179C237.23 210.218 236.823 211.286 236.35 212.368C235.88 213.449 235.345 214.544 234.746 215.649C234.144 216.747 233.489 217.858 232.771 218.963C232.054 220.071 231.276 221.169 230.436 222.247C229.176 223.868 227.807 225.469 226.315 226.997C225.819 227.506 225.31 228.009 224.784 228.501L224.777 228.505ZM231.161 194.259C231.303 194.322 231.438 194.385 231.567 194.444C231.931 199.339 229.818 205.974 226.004 212.391C225.75 212.817 225.492 213.247 225.217 213.674C223.927 214.954 222.535 216.244 221.036 217.514C220.54 217.941 220.031 218.361 219.512 218.781C218.526 219.578 217.497 220.362 216.439 221.132C213.793 223.054 210.942 224.876 207.988 226.553C207.396 226.887 206.801 227.215 206.199 227.539C203.785 228.829 201.347 229.996 198.873 231.035C196.402 232.074 193.915 232.967 191.467 233.694C186.572 235.159 181.836 235.97 177.751 236.251C176.729 236.324 175.747 236.367 174.814 236.38C172.482 236.423 170.442 236.301 168.795 236.135C168.467 236.099 168.156 236.062 167.855 236.029C166.665 235.887 165.738 235.722 165.107 235.599C164.472 235.474 164.141 235.381 164.141 235.381C164.141 235.381 164.465 235.503 165.084 235.682C165.394 235.775 165.778 235.877 166.235 235.983C166.691 236.092 167.217 236.201 167.809 236.31C168.404 236.42 169.062 236.522 169.787 236.615C170.872 236.75 172.092 236.86 173.432 236.922C174.328 236.962 175.271 236.982 176.263 236.969C176.759 236.969 177.268 236.952 177.784 236.932C178.304 236.912 178.829 236.889 179.369 236.853C183.139 236.615 187.383 235.973 191.782 234.819C194.295 234.167 196.855 233.347 199.405 232.375C200.044 232.133 200.682 231.882 201.317 231.624C202.594 231.101 203.864 230.549 205.124 229.967C205.749 229.676 206.374 229.378 206.993 229.074C209.966 227.595 212.87 225.965 215.619 224.215C216.535 223.633 217.431 223.038 218.311 222.432C216.723 224.066 215.03 225.584 213.244 226.954C211.458 228.316 209.583 229.52 207.638 230.522C188.798 240.207 164.878 241.03 161.343 234.154C157.42 226.524 162.99 211.508 175.565 200.186C176.068 199.733 176.58 199.29 177.11 198.847C178.161 197.967 179.256 197.113 180.394 196.29C182.669 194.646 185.117 193.131 187.723 191.788C201.615 184.647 216.849 184.105 226.967 187.416C227.178 187.495 227.383 187.581 227.579 187.674C228.561 188.143 229.351 188.805 229.963 189.625C230.086 189.791 230.201 189.963 230.307 190.138C230.416 190.316 230.516 190.498 230.612 190.687C229.679 190.356 228.584 190.012 227.35 189.681C225.707 189.245 223.811 188.835 221.708 188.54C221.179 188.468 220.64 188.401 220.087 188.342C218.969 188.22 217.802 188.134 216.588 188.094C215.377 188.051 214.124 188.051 212.837 188.1C210.267 188.203 207.568 188.504 204.823 189.063C202.081 189.612 199.3 190.409 196.561 191.434C193.819 192.463 191.133 193.71 188.53 195.142C188.213 195.324 187.892 195.499 187.575 195.678C187.257 195.857 186.939 196.035 186.622 196.237C185.99 196.63 185.362 197.024 184.73 197.414C184.121 197.828 183.516 198.245 182.911 198.661C182.316 199.088 181.74 199.534 181.155 199.971C178.853 201.754 176.736 203.689 174.844 205.706C173.895 206.715 173.005 207.744 172.175 208.779C169.678 211.888 167.706 215.076 166.225 218.03C164.485 221.473 163.383 224.585 162.722 226.973C162.629 227.314 162.543 227.642 162.467 227.949C162.391 228.26 162.318 228.554 162.259 228.836C162.07 229.672 161.945 230.354 161.872 230.863C161.766 231.538 161.733 231.902 161.733 231.902C161.733 231.902 161.793 231.541 161.951 230.876C162.11 230.211 162.361 229.242 162.735 228.025C163.02 227.112 163.37 226.061 163.813 224.903C164.105 224.129 164.439 223.309 164.816 222.445C165.004 222.015 165.206 221.576 165.414 221.126C165.834 220.226 166.307 219.297 166.827 218.341C167.343 217.385 167.915 216.409 168.543 215.417C169.483 213.932 170.551 212.424 171.735 210.925C172.525 209.927 173.375 208.934 174.278 207.959C174.728 207.469 175.195 206.983 175.674 206.507C176.63 205.551 177.642 204.618 178.697 203.715C179.752 202.812 180.86 201.939 182.008 201.109C182.59 200.705 183.166 200.289 183.761 199.888C184.363 199.505 184.962 199.121 185.57 198.734C186.185 198.377 186.804 198.02 187.419 197.662C188.034 197.302 188.702 196.984 189.341 196.64C191.256 195.668 193.23 194.785 195.228 194.027C195.893 193.773 196.558 193.535 197.226 193.306C199.898 192.404 202.594 191.725 205.233 191.286C210.519 190.389 215.546 190.469 219.753 191.064C223.97 191.653 227.364 192.721 229.643 193.614C230.221 193.842 230.724 194.054 231.154 194.249L231.161 194.259ZM217.977 205.495C215.348 206.947 212.272 208.614 208.957 210.37C208.127 210.806 207.284 211.253 206.431 211.706C205.581 212.162 204.717 212.616 203.841 213.065C202.091 213.972 200.318 214.894 198.542 215.817C196.756 216.724 194.973 217.633 193.22 218.526C192.344 218.976 191.471 219.412 190.607 219.842C189.741 220.272 188.888 220.696 188.051 221.116C186.377 221.959 184.747 222.753 183.199 223.504C181.657 224.265 180.192 224.969 178.836 225.614C173.425 228.214 169.76 229.838 169.76 229.838C169.76 229.838 170.098 229.639 170.723 229.275C172.099 228.482 174.857 226.901 178.472 224.913C179.789 224.189 181.214 223.405 182.732 222.594C183.109 222.389 183.493 222.181 183.88 221.972C185.044 221.344 186.255 220.693 187.502 220.038C189.162 219.164 190.869 218.242 192.615 217.342C194.365 216.432 196.138 215.513 197.914 214.59C199.696 213.684 201.479 212.774 203.235 211.878C204.988 210.982 206.732 210.128 208.408 209.288C210.085 208.451 211.713 207.651 213.257 206.897C214.802 206.14 216.267 205.435 217.623 204.79C223.037 202.19 226.702 200.566 226.702 200.566C226.702 200.566 225.839 201.076 224.314 201.942C222.796 202.815 220.613 204.043 217.984 205.491L217.977 205.495ZM215.44 208.822C215.824 208.64 216.188 208.475 216.522 208.319C216.859 208.164 217.163 208.018 217.438 207.889C218.549 207.373 219.188 207.092 219.188 207.092C219.188 207.092 219.151 207.112 219.078 207.155C219.002 207.198 218.896 207.261 218.754 207.343C218.612 207.426 218.437 207.525 218.228 207.644C218.02 207.764 217.785 207.896 217.517 208.048C217.253 208.197 216.958 208.362 216.637 208.544C215.675 209.087 214.474 209.765 213.098 210.519C212.179 211.025 211.183 211.57 210.125 212.139C209.599 212.424 209.053 212.715 208.498 213.013C207.942 213.31 207.373 213.611 206.794 213.919C205.633 214.527 204.436 215.159 203.222 215.801C202.614 216.118 201.995 216.439 201.377 216.757C200.761 217.077 200.14 217.402 199.521 217.719C198.899 218.037 198.274 218.354 197.656 218.668C197.034 218.986 196.419 219.3 195.807 219.611C195.192 219.919 194.58 220.223 193.981 220.527C193.379 220.831 192.784 221.129 192.198 221.423C191.613 221.715 191.037 222.002 190.472 222.28C188.775 223.117 187.184 223.891 185.769 224.569C184.588 225.138 183.526 225.637 182.626 226.057C182.084 226.309 181.601 226.534 181.188 226.732C181.049 226.795 180.917 226.858 180.791 226.911C180.668 226.97 180.553 227.02 180.444 227.073C180.229 227.169 180.047 227.255 179.895 227.321C179.822 227.354 179.752 227.384 179.696 227.41C179.527 227.486 179.435 227.526 179.435 227.526C179.435 227.526 179.517 227.476 179.683 227.38C179.898 227.258 180.252 227.049 180.725 226.782C180.844 226.715 180.969 226.643 181.102 226.57C181.502 226.345 181.968 226.084 182.488 225.789C182.66 225.69 182.841 225.591 183.027 225.485C183.582 225.174 184.194 224.83 184.852 224.466C185.071 224.344 185.296 224.222 185.527 224.096C187.363 223.084 189.516 221.923 191.828 220.696C192.989 220.087 194.186 219.456 195.403 218.814C196.624 218.179 197.864 217.537 199.101 216.892C200.348 216.26 201.592 215.625 202.819 215C204.049 214.382 205.256 213.777 206.427 213.188C207.016 212.897 207.595 212.612 208.157 212.331C208.723 212.053 209.278 211.782 209.814 211.518C210.624 211.121 211.402 210.744 212.139 210.386C212.384 210.267 212.625 210.155 212.86 210.039C213.098 209.927 213.33 209.814 213.555 209.708C214.233 209.384 214.865 209.083 215.447 208.815L215.44 208.822ZM188.438 198.331C189.192 197.907 189.963 197.524 190.713 197.13C190.965 196.998 191.216 196.869 191.464 196.74C191.722 196.624 191.977 196.511 192.228 196.396C192.738 196.171 193.24 195.952 193.733 195.731C193.981 195.622 194.223 195.513 194.467 195.407C194.712 195.304 194.963 195.222 195.205 195.129C195.691 194.954 196.167 194.778 196.634 194.606C197.1 194.444 197.543 194.259 197.99 194.13C198.436 194.001 198.866 193.875 199.283 193.76C199.905 193.584 200.484 193.409 201.026 193.27C201.205 193.224 201.38 193.181 201.552 193.144C201.727 193.111 201.889 193.078 202.051 193.045C202.531 192.946 202.961 192.857 203.328 192.784C203.699 192.714 204.006 192.652 204.248 192.605C204.654 192.529 204.873 192.489 204.873 192.489C204.873 192.489 204.797 192.516 204.651 192.559C204.406 192.638 203.97 192.777 203.371 192.959C202.895 193.105 202.313 193.28 201.648 193.478C201.311 193.568 200.97 193.71 200.603 193.846C200.236 193.978 199.852 194.117 199.448 194.262C199.048 194.405 198.628 194.557 198.195 194.712C197.765 194.868 197.332 195.069 196.878 195.251C196.429 195.44 195.966 195.635 195.496 195.83C195.261 195.929 195.023 196.029 194.778 196.131C194.543 196.244 194.305 196.356 194.064 196.472C193.581 196.7 193.095 196.931 192.599 197.17C192.351 197.289 192.102 197.408 191.854 197.527C191.61 197.659 191.362 197.788 191.117 197.917C190.624 198.182 190.125 198.443 189.628 198.708C189.129 198.979 188.636 199.257 188.157 199.558C187.667 199.845 187.174 200.13 186.688 200.414C186.215 200.722 185.739 201.026 185.272 201.33C184.327 201.922 183.43 202.561 182.554 203.173C182.332 203.322 182.12 203.477 181.909 203.636C181.7 203.791 181.495 203.95 181.287 204.099C181.082 204.254 180.88 204.403 180.678 204.552C180.48 204.701 180.278 204.85 180.09 205.002C179.517 205.465 178.965 205.891 178.446 206.315C178.274 206.454 178.105 206.596 177.946 206.735C177.292 207.281 176.703 207.797 176.177 208.256C175.658 208.719 175.218 209.136 174.857 209.48C174.765 209.566 174.682 209.652 174.603 209.728C174.523 209.808 174.447 209.88 174.378 209.946C174.239 210.082 174.123 210.198 174.024 210.294C173.977 210.34 173.938 210.383 173.898 210.419C173.825 210.492 173.779 210.545 173.752 210.568C173.739 210.581 173.736 210.588 173.736 210.588C173.736 210.588 173.786 210.522 173.878 210.403C173.911 210.363 173.944 210.317 173.987 210.264C174.153 210.052 174.397 209.741 174.725 209.368C175.052 208.991 175.456 208.531 175.939 208.021C176.418 207.512 176.961 206.94 177.592 206.351C177.897 206.047 178.228 205.743 178.572 205.432C178.744 205.276 178.919 205.118 179.101 204.962C179.279 204.803 179.461 204.645 179.646 204.479C180.407 203.851 181.201 203.169 182.068 202.528C182.286 202.366 182.501 202.207 182.722 202.042C183.384 201.552 184.059 201.049 184.776 200.596C185.249 200.282 185.726 199.971 186.205 199.657C186.698 199.359 187.191 199.065 187.687 198.77C187.932 198.618 188.18 198.476 188.431 198.334L188.438 198.331ZM170.061 207.145C170.462 206.629 170.872 206.077 171.345 205.544C171.57 205.27 171.808 204.995 172.052 204.721C172.297 204.449 172.545 204.175 172.8 203.897C173.293 203.335 173.845 202.812 174.371 202.263C174.92 201.737 175.489 201.231 176.038 200.725C176.326 200.484 176.607 200.242 176.885 200.004C177.169 199.769 177.444 199.534 177.712 199.303C177.989 199.078 178.267 198.866 178.538 198.658C178.813 198.453 179.081 198.251 179.342 198.056C179.726 197.752 180.119 197.497 180.487 197.249C180.609 197.166 180.728 197.084 180.844 197.001C181.317 196.683 181.74 196.376 182.14 196.148C182.54 195.909 182.881 195.701 183.169 195.532C183.596 195.281 183.887 195.109 184.009 195.04C184.049 195.016 184.069 195.003 184.069 195.003C184.069 195.003 183.992 195.059 183.847 195.159C183.701 195.261 183.486 195.413 183.219 195.605C183.083 195.701 182.931 195.804 182.769 195.919C182.603 196.032 182.428 196.154 182.24 196.287C182.048 196.412 181.853 196.561 181.644 196.716C181.439 196.875 181.224 197.041 180.993 197.206C180.771 197.381 180.53 197.553 180.285 197.735C180.043 197.917 179.789 198.106 179.544 198.321C179.041 198.731 178.512 199.161 177.963 199.611C177.43 200.074 176.881 200.553 176.319 201.043C175.78 201.552 175.224 202.061 174.688 202.591C174.424 202.859 174.153 203.12 173.885 203.384C173.617 203.646 173.352 203.914 173.104 204.188C172.595 204.727 172.095 205.26 171.639 205.799C171.173 206.328 170.733 206.851 170.323 207.35C170.114 207.601 169.919 207.846 169.727 208.088C169.539 208.329 169.36 208.564 169.188 208.789C168.851 209.245 168.54 209.655 168.275 210.036C168.14 210.221 168.017 210.4 167.905 210.562C167.792 210.727 167.696 210.879 167.601 211.018C167.24 211.57 167.045 211.898 167.045 211.898C167.045 211.898 167.204 211.554 167.524 210.972C167.607 210.83 167.696 210.671 167.799 210.495C168.103 209.98 168.49 209.338 168.98 208.637C169.304 208.167 169.661 207.664 170.055 207.142L170.061 207.145Z" fill="#003962"/>
</svg>
