<svg width="256" height="256" viewBox="0 0 256 256" fill="none" xmlns="http://www.w3.org/2000/svg">
<path d="M232.907 41.3881L127.674 256L22.433 41.3881L62.5158 0H192.824L232.907 41.3881Z" fill="black"/>
<path d="M228.443 40.1848H26.8972L63.521 2.375H191.819L228.443 40.1848Z" fill="white"/>
<path d="M162.335 41.8869L129.867 246.136L127.674 250.609L125.482 246.136L93.0132 41.8869H162.335Z" fill="white"/>
<path d="M71.7053 34.3028C72.109 34.2237 72.5048 34.1445 72.6235 34.1445C74.3886 33.9466 74.9427 33.0995 74.9901 30.6612V13.3158C74.911 10.5134 74.3886 9.91169 71.7053 9.71377V8.75586H84.3222C90.9315 8.75586 94.6199 11.3208 94.6199 15.8492C94.6199 18.9366 92.8944 21.2958 89.7362 22.5387C88.0107 23.2195 86.6968 23.3383 81.3619 23.3779V30.6691C81.4411 33.5903 81.7656 33.9545 84.8051 34.3186V35.2766H71.7053V34.3186V34.3028ZM81.3619 22.0004C84.1639 22.0004 85.4462 21.7233 86.3723 20.9158C87.4567 20.0371 87.892 18.5566 87.892 16.0312C87.892 11.8275 86.5701 10.1017 83.3249 10.1017C82.0031 10.1017 81.3619 10.545 81.3619 11.4633V22.0004Z" fill="black"/>
<path d="M100.192 32.4977C100.192 34.3423 98.7121 35.7831 96.8283 35.7831C94.9445 35.7831 93.5435 34.3423 93.5435 32.4582C93.5435 30.574 95.0632 29.1332 96.8283 29.1332C98.5934 29.1332 100.192 30.6532 100.192 32.4977Z" fill="black"/>
<path d="M132.384 16.6329C131.545 14.0679 130.943 12.9041 129.621 11.5425C128.212 10.1017 126.574 9.34167 124.769 9.34167C122.125 9.34167 120.487 10.8221 120.487 13.2683C120.487 15.1921 121.366 16.15 124.532 17.7175L130.294 20.5991C132.819 21.842 134.584 24.8108 134.584 27.732C134.584 32.7036 130.658 36.0286 124.848 36.0286C123.131 36.0286 121.643 35.7515 119.759 35.0707C118.92 34.7857 118.476 34.667 118.152 34.667C117.511 34.667 117.234 34.9915 116.949 36.0286H115.825V26.3307H116.949C117.63 29.0541 118.152 30.3761 119.268 31.8249C120.709 33.7486 122.632 34.7461 124.951 34.7461C127.959 34.7461 129.882 32.9807 129.882 30.297C129.882 28.2149 128.925 27.1303 125.521 25.5312L122.877 24.2883C118.231 22.0399 116.189 19.562 116.189 16.15C116.189 11.1783 119.434 8.13834 124.761 8.13834C126.32 8.13834 127.571 8.37584 129.368 9.01708C130.207 9.29417 130.65 9.42083 131.014 9.42083C131.734 9.42083 131.972 9.13583 132.296 8.09875H133.46V16.6329H132.384Z" fill="black"/>
<path d="M144.526 32.4977C144.526 34.3423 143.045 35.7831 141.162 35.7831C139.278 35.7831 137.877 34.3423 137.877 32.4582C137.877 30.574 139.396 29.1332 141.162 29.1332C142.927 29.1332 144.526 30.6532 144.526 32.4977Z" fill="black"/>
<path d="M186.927 35.2607H178.878L170.741 22.9583H169.696V30.6532C169.775 33.4953 170.139 33.8991 173.139 34.3028V35.2607H159.881V34.3028C162.881 33.9782 163.245 33.5824 163.324 30.6532V13.3079C163.245 10.4262 162.683 9.86417 159.881 9.70584V8.74792H172.538C179.748 8.74792 183.595 11.1942 183.595 15.7146C183.595 17.48 182.954 19.0791 181.83 20.1241C180.754 21.1295 179.748 21.6045 177.421 22.3645L185.313 33.5428C185.669 34.0653 186.191 34.3028 186.912 34.3028V35.2607H186.927ZM169.704 21.7233C172.712 21.6837 174.026 21.4383 175.07 20.7574C176.353 19.9183 176.907 18.3983 176.907 15.8729C176.907 11.7483 175.427 10.0621 171.825 10.0621C170.82 10.0621 170.218 10.26 169.981 10.6637C169.862 10.9012 169.696 11.4633 169.696 11.7087V21.7233H169.704Z" fill="black"/>
<path d="M195.508 32.4977C195.508 34.3423 194.028 35.7831 192.144 35.7831C190.26 35.7831 188.859 34.3423 188.859 32.4582C188.859 30.574 190.379 29.1332 192.144 29.1332C193.909 29.1332 195.508 30.6532 195.508 32.4977Z" fill="black"/>
</svg>
