<svg width="256" height="256" viewBox="0 0 256 256" fill="none" xmlns="http://www.w3.org/2000/svg">
<path d="M30.72 65.8194C64.2103 64.5394 98.3497 59.008 128.11 42.5874C139.547 47.808 150.994 53.3028 163.227 56.5668C183.634 62.8663 204.983 64.9508 226.222 65.6365C227.52 105.929 225.481 153.115 207.342 189.897C191.36 220.718 162.542 243.749 129.911 254.894C128.832 255.177 127.79 255.159 126.72 254.857C72.2377 235.941 39.6709 191.543 33.7554 134.729C30.9943 111.963 29.2114 88.64 30.72 65.8194Z" fill="#010202"/>
<path d="M225.17 68.416H31.6983C31.7257 67.9131 31.7531 67.4103 31.7897 66.9166C50.1394 66.1668 66.2674 64.2286 81.0606 60.992C98.7429 57.1246 114.149 51.52 128.155 43.8583C129.079 44.2788 130.002 44.6994 130.926 45.1291C141.175 49.8286 151.762 54.6834 162.917 57.664C180.37 63.0491 199.598 65.856 225.125 66.7428C225.143 67.3006 225.161 67.8583 225.17 68.416Z" fill="#213B85"/>
<path d="M179.566 224.165C165.495 237.138 148.416 247.387 129.591 253.833C129.179 253.934 128.786 253.989 128.384 253.989C127.945 253.989 127.515 253.925 127.058 253.806C113.755 249.179 101.522 242.917 90.6971 235.191C85.952 231.808 81.4629 228.123 77.248 224.174H179.566V224.165Z" fill="#213B85"/>
<path d="M225.417 83.1086H31.296C31.296 80.7131 31.3234 78.3634 31.3874 76.0411H225.344C225.381 78.3451 225.408 80.704 225.408 83.1086H225.417Z" fill="#213B85"/>
<path d="M225.381 90.7337C225.353 93.0651 225.298 95.424 225.225 97.8011H31.6434C31.5337 95.3966 31.4514 93.0468 31.3874 90.7337H225.371H225.381Z" fill="#213B85"/>
<path d="M224.923 105.426C224.805 107.767 224.667 110.126 224.503 112.494H32.5943C32.3931 110.089 32.2194 107.73 32.064 105.426H224.923Z" fill="#213B85"/>
<path d="M223.89 120.119C223.671 122.469 223.433 124.827 223.15 127.186H34.0206C33.7554 124.782 33.5086 122.423 33.2891 120.119H223.899H223.89Z" fill="#213B85"/>
<path d="M99.7211 188.955C98.0571 190.921 96.5851 190.866 94.9851 188.791C91.8034 184.658 89.3714 180.114 87.3874 175.305C86.9577 174.263 86.5737 173.202 86.144 172.059C82.4229 170.715 77.9246 170.322 76.5714 165.403C79.2503 166.747 81.9017 168.101 85.0377 168.768C84.7177 167.342 84.4251 166.034 84.1417 164.736C83.5749 162.158 83.1909 159.552 82.8891 156.937C82.6971 155.282 82.3223 153.765 80.3931 152.969C82.112 151.973 83.7486 151.397 85.4857 151.168C86.7383 151.003 87.6526 151.744 87.9817 153.143C88.384 154.889 88.32 156.699 88.5029 158.473C88.8686 162.075 89.4263 165.632 90.2857 169.125C96.2011 169.554 101.614 166.821 103.909 162.094C105.664 158.473 105.81 154.688 103.927 151.095C102.217 147.831 99.136 146.322 95.616 145.993C90.5966 145.527 85.7783 146.386 81.3806 149.038C77.9063 151.141 75.5474 154.158 74.2034 157.998C71.7623 155.995 71.2594 152.741 72.9783 150.19C74.4411 148.023 76.5714 146.615 78.7931 145.371C83.5291 142.738 88.6309 141.486 94.0343 141.294C96.5851 141.202 99.1086 141.303 101.586 141.943C107.2 143.387 110.299 147.237 110.821 152.978C111.717 162.834 103.744 171.063 95.8263 172.105C94.3451 172.297 92.8457 172.389 91.2366 172.535C92.0137 175.653 93.1291 178.597 94.5189 181.413C95.872 184.165 96.8503 187.218 99.712 188.946L99.7211 188.955Z" fill="white"/>
<path d="M193.042 137.637C194.139 140.398 193.728 142.437 191.707 144.421C188.91 147.154 185.399 148.059 181.632 148.16C178.624 148.242 175.607 148.178 172.489 148.178C169.938 154.77 167.022 161.216 163.776 167.515C160.539 173.778 156.599 179.639 152.997 186.094C151.936 186.542 150.583 187.419 148.955 187.109C148.654 186.176 149.138 185.627 149.431 185.097C151.872 180.699 154.267 176.274 156.498 171.758C160.229 164.197 163.438 156.425 166.217 148.471C166.263 148.343 166.245 148.197 166.272 147.941C160.905 147.803 155.575 147.557 150.318 148.955C150.345 145.6 153.024 142.985 156.553 142.839C161.262 142.647 165.961 142.894 170.67 143.067C174.528 143.214 178.386 143.415 182.254 143.406C186.597 143.397 190.245 141.833 192.667 138.002C192.741 137.893 192.869 137.819 193.051 137.646L193.042 137.637Z" fill="white"/>
<path d="M117.915 176.549C118.409 178.761 119.022 180.654 120.229 182.318C122.222 185.042 125.23 186.377 128.027 185.682C131.227 184.887 133.733 182.135 134.181 178.88C134.418 177.143 133.723 175.653 132.855 174.226C131.639 172.251 130.103 170.542 128.475 168.896C126.528 166.921 124.407 165.111 122.697 162.907C120.878 160.576 119.387 158.107 119.259 155.035C119.095 151.122 120.366 147.758 123.365 145.262C128.393 141.065 134.171 140.206 140.315 142.208C143.506 143.25 144.219 145.408 142.72 148.434C142.409 149.056 142.208 149.76 141.541 150.226C141.257 149.723 141.001 149.239 140.709 148.773C138.853 145.774 136.009 144.613 132.654 144.878C129.106 145.161 126.546 147.063 125.486 150.519C124.672 153.198 124.855 155.813 126.967 158.007C129.115 160.247 131.227 162.523 133.33 164.8C134.61 166.181 135.726 167.698 136.686 169.326C138.917 173.129 138.962 177.051 137.079 180.928C134.93 185.353 131.758 188.645 126.565 189.376C122.021 190.016 116.626 186.03 116.005 181.504C115.749 179.63 116.635 178.149 117.934 176.549H117.915Z" fill="white"/>
<path d="M165.723 179.493C165.751 181.531 165.157 183.488 165.175 185.49C165.97 185.573 165.851 184.658 166.555 184.384C166.162 185.646 165.659 186.542 164.48 186.871C163.685 186.24 164.288 185.399 163.986 184.594C163.401 185.262 162.962 185.993 162.286 186.469C161.335 187.145 160.64 186.889 160.503 185.746C160.256 183.561 160.869 181.632 162.533 180.142C163.429 179.346 164.498 179.118 165.723 179.483V179.493ZM161.792 185.6C163.529 184.905 164.581 182.912 164.544 180.571C163.675 179.968 162.926 180.215 162.45 181.065C161.673 182.437 161.408 183.918 161.792 185.609V185.6Z" fill="white"/>
<path d="M179.831 180.471C179.995 179.465 180.901 179.547 181.568 179.355C181.943 179.246 182.391 179.392 182.93 179.429C183.003 181.504 182.309 183.479 182.437 185.536C183.159 185.463 183.022 184.677 183.506 184.485C183.506 185.829 182.72 186.679 181.449 186.725C181.074 186.112 181.513 185.381 181.175 184.622C180.59 185.243 180.224 185.957 179.602 186.432C178.651 187.154 177.81 186.898 177.701 185.755C177.509 183.762 178.002 181.952 179.447 180.471C179.575 180.334 179.73 180.224 179.895 180.434C179.209 182.071 178.432 183.689 179.09 185.765C181.147 184.475 181.623 182.638 181.87 180.699C181.221 179.968 180.517 180.434 179.858 180.471H179.831Z" fill="white"/>
<path d="M188.315 179.374C188.352 179.904 188.032 180.069 187.803 180.352C187.291 180.343 186.798 179.849 186.203 180.224C185.856 180.745 186.185 181.184 186.459 181.595C186.77 182.062 187.154 182.482 187.465 182.949C188.251 184.11 188.206 185.088 187.337 186.011C186.459 186.935 185.481 187.054 184.192 186.359C184.283 185.966 184.622 185.792 184.887 185.573C185.179 185.472 185.326 185.71 185.509 185.819C185.947 186.094 186.377 186.231 186.789 185.829C187.182 185.445 187.109 184.905 186.898 184.512C186.514 183.817 185.993 183.205 185.563 182.537C184.914 181.522 185.051 180.471 185.865 179.758C186.597 179.118 187.438 179.291 188.315 179.365V179.374Z" fill="white"/>
<path d="M173.979 180.59C172.864 180.05 171.803 180.389 170.953 180.91C169.966 181.513 169.609 182.683 169.39 183.808C169.234 184.64 169.161 185.481 169.061 186.304C168.786 186.551 168.512 186.706 168.082 186.587C168.256 184.567 168.43 182.528 168.594 180.498C167.744 180.416 167.872 181.202 167.47 181.467C167.314 180.261 168.11 179.438 169.408 179.419C169.92 179.95 169.426 180.672 169.774 181.321C170.578 180.443 170.944 178.99 172.553 179.365C172.846 179.529 172.672 179.831 172.699 180.142C173.102 179.703 173.413 179.282 173.915 179.328C174.254 178.67 173.998 177.682 175.186 177.847C175.159 178.304 175.122 178.761 175.086 179.246C175.863 179.566 176.677 179.246 177.518 179.465C177.189 180.91 175.963 180.224 175.003 180.535C174.967 182.427 174.071 184.393 175.287 186.478C175.077 186.743 174.683 186.917 174.19 186.761C173.614 186.587 173.586 186.066 173.586 185.6C173.568 183.909 173.76 182.226 173.97 180.571L173.979 180.59Z" fill="white"/>
<path d="M121.701 241.883C123.941 242.386 124.507 241.993 125.294 239.406C125.23 239.36 125.129 239.25 125.102 239.269C124.224 239.744 123.337 239.973 122.505 239.214C121.573 238.354 121.719 237.221 121.984 236.187C122.24 235.227 122.798 234.386 123.913 234.167C125.01 233.947 126.025 234.469 126.336 235.584C126.976 237.879 126.61 240.037 125.202 241.984C124.663 242.725 123.904 243.026 122.999 242.999C122.258 242.981 121.783 242.679 121.691 241.874L121.701 241.883ZM124.27 234.688C123.118 235.465 122.606 236.562 122.853 237.65C123.109 238.766 124.105 239.077 124.955 238.318C126.034 237.349 125.733 235.566 124.261 234.688H124.27Z" fill="white"/>
<path d="M136.137 241.426C137.381 241.829 139.209 240.366 139.758 242.862C137.993 242.469 136.393 242.624 134.793 242.917C134.318 242.194 134.638 241.783 135.159 241.335C136.265 240.375 137.17 239.241 137.838 237.925C137.902 237.797 137.966 237.678 138.021 237.55C138.35 236.763 138.798 235.831 137.975 235.237C137.07 234.569 136.466 235.502 135.863 236.059C135.771 236.142 135.698 236.242 135.506 236.462C135.314 235.401 135.808 234.871 136.521 234.459C137.307 234.011 138.139 233.902 138.898 234.432C139.584 234.907 139.666 235.648 139.447 236.453C139.09 237.76 138.331 238.811 137.49 239.835C137.051 240.366 136.603 240.896 136.137 241.445V241.426Z" fill="white"/>
<path d="M117.486 241.755C118.007 241.801 118.409 241.829 118.775 241.865C119.15 242.094 119.122 242.45 119.25 242.743C116.955 243.538 115.474 243.392 114.889 242.304C115.264 241.929 115.794 242.286 116.361 241.92C116.663 240.11 116.992 238.153 117.349 236.05C116.517 236.142 115.575 236.562 115.502 235.154C116.645 235.31 117.568 234.715 118.674 233.993C118.254 236.718 117.879 239.159 117.477 241.755H117.486Z" fill="white"/>
<path d="M130.679 236.261C130.167 235.977 129.673 236.389 129.179 236.041C128.978 235.858 128.914 235.557 129.006 235.109C130.167 235.493 130.926 234.505 132.032 234.139C131.63 236.727 131.246 239.195 130.871 241.637C131.538 242.021 132.69 241.463 132.535 242.962C131.127 242.615 129.755 243.365 128.384 243.118C128.037 242.798 128.311 242.542 128.265 242.331C128.704 241.938 129.253 242.304 129.746 241.92C130.048 240.101 130.368 238.181 130.688 236.27L130.679 236.261Z" fill="white"/>
<path d="M112.055 209.262C111.497 208.512 111.945 207.918 112.448 207.442C113.783 206.19 115.419 205.842 117.166 206.235C118.418 206.519 118.793 208.201 117.943 209.362C117.522 209.938 116.928 210.331 116.325 210.651C116.709 212.864 117.467 214.437 119.086 213.019C119.141 213.797 118.418 214.875 117.76 214.875C115.648 214.528 116.261 211.739 114.359 211.081C114.13 212.608 113.92 213.998 113.71 215.387C113.445 215.589 113.179 215.781 112.631 215.488C112.805 212.983 113.426 210.459 113.755 207.899C114.066 207.89 114.487 207.79 114.834 207.899C114.789 208.85 114.624 209.646 114.478 210.551C114.981 210.176 115.173 210.13 115.529 210.066C116.544 209.883 117.321 209.061 117.312 208.219C117.312 207.653 117.01 207.232 116.48 207.031C115.648 206.711 113.938 207.269 113.399 207.735C112.585 208.421 112.265 209.499 112.055 209.243V209.262Z" fill="white"/>
<path d="M145.765 208.448C145.499 210.158 145.115 211.767 144.064 213.413C143.845 212.142 143.534 211.127 143.195 210.13C143.022 209.627 142.848 209.106 142.199 209.106C141.55 209.106 141.586 209.655 141.605 210.048C139.621 210.624 139.264 208.338 137.655 208.567C137.298 209.673 138.149 210.039 138.843 210.551C138.953 211.483 139.035 212.315 138.633 213.129C138.322 213.76 137.957 214.345 137.179 214.199C136.375 214.053 136.265 213.349 136.283 212.654C136.283 212.325 136.293 211.995 136.347 211.666C136.585 210.231 136.914 208.805 137.051 207.369C137.134 206.528 137.618 205.687 137.253 204.709C136.475 205.147 135.726 205.166 134.958 204.891C134.647 205.97 135.598 206.034 136 206.254C136.247 209.125 135.04 211.063 132.59 212.498C132.809 210.88 133.029 209.335 133.23 207.89C132.233 207.845 132.187 208.274 131.986 208.667C131.739 208.503 131.282 208.439 130.624 208.439C128.722 208.439 128 210.679 127.689 211.2C127.159 212.105 126.528 213.531 125.934 213.531C124.974 213.531 125.76 210.322 125.815 208.786C125.541 208.457 125.239 208.384 124.901 208.53C124.224 210.514 122.651 213.806 121.856 213.806C121.326 213.806 121.426 213.019 121.509 212.599C121.682 211.675 121.92 210.24 122.066 209.307C122.121 208.933 121.92 208.741 121.061 208.786C120.85 210.423 120.293 211.986 120.411 213.641C120.448 214.162 120.558 214.702 121.143 214.894C121.746 215.086 122.258 214.866 122.651 214.391C123.136 213.806 123.73 213.038 124.279 212.078C124.389 215.269 125.678 215.406 127.634 213.166C127.863 214.162 128.421 214.199 128.814 214.199C129.966 214.199 131.054 212.882 131.529 212.16C131.685 213.413 130.807 214.034 130.103 214.464C129.463 214.857 128.869 215.323 128.311 215.817C127.717 216.338 127.625 217.07 127.899 217.755C128.201 218.523 128.905 218.661 129.664 218.606C130.935 218.505 132.069 217.381 132.334 215.899C132.471 215.159 132.535 214.409 132.626 213.696C133.477 212.946 134.299 212.224 135.278 211.374C135.241 211.867 135.223 212.096 135.214 212.325C135.177 213.705 135.643 214.629 136.503 214.894C137.591 215.223 138.706 214.665 139.419 213.458C139.858 212.718 139.986 211.895 139.977 210.907C140.809 211.118 141.504 210.853 142.208 210.706C142.665 211.794 143.003 212.809 143.177 213.888C143.424 215.451 141.925 216.896 140.974 216.896C140.462 216.896 140.16 216.658 140.032 216.677C139.941 216.695 139.886 217.673 140.315 217.984C141.102 218.203 141.723 217.81 142.217 217.317C144.32 215.15 145.627 212.507 146.569 209.673C146.807 208.951 146.587 208.503 145.765 208.439V208.448ZM130.944 217.051C130.679 217.509 130.341 217.902 129.728 217.819C129.39 217.774 129.097 217.664 128.969 217.289C128.786 216.75 129.097 216.402 129.417 216.055C129.957 215.479 130.587 215.022 131.429 214.638C131.346 215.625 131.319 216.384 130.944 217.051ZM129.234 213.184C128.539 212.032 129.015 209.947 130.085 209.362C130.789 208.978 131.31 209.326 131.886 209.957C131.118 211.218 130.578 212.517 129.234 213.184Z" fill="white"/>
<path d="M133.714 57.1886V56.3566C133.714 56.0823 133.495 55.8629 133.221 55.8629C132.946 55.8629 132.727 56.0823 132.727 56.3566V57.1886C132.389 57.1886 132.041 57.1886 131.694 57.1886V56.3566C131.694 56.0823 131.474 55.8629 131.2 55.8629C130.926 55.8629 130.706 56.0823 130.706 56.3566V57.1977C130.368 57.1977 130.021 57.1977 129.673 57.1977V56.3566C129.673 56.0823 129.454 55.8629 129.179 55.8629C128.905 55.8629 128.686 56.0823 128.686 56.3566V57.1977C128.338 57.1977 128 57.1977 127.653 57.1977V56.3566C127.653 56.0823 127.433 55.8629 127.159 55.8629C126.885 55.8629 126.665 56.0823 126.665 56.3566V57.2069C126.318 57.2069 125.97 57.2069 125.632 57.2069V56.3566C125.632 56.0823 125.413 55.8629 125.138 55.8629C124.864 55.8629 124.645 56.0823 124.645 56.3566V57.2069C124.297 57.2069 123.95 57.2069 123.611 57.2069V56.3475C123.611 56.0732 123.392 55.8537 123.118 55.8537C122.843 55.8537 122.624 56.0732 122.624 56.3475V57.2069C119.058 57.216 116.16 57.2252 115.301 57.2252C116.983 46.9577 139.099 46.9669 141.029 57.152C140.206 57.152 137.307 57.152 133.733 57.1703L133.714 57.1886Z" fill="white"/>
<path d="M141.001 58.2217C139.182 68.4343 117.047 68.48 115.237 58.176C116.087 58.176 119.003 58.176 122.597 58.1852V58.9166C122.597 59.1909 122.816 59.4103 123.09 59.4103C123.365 59.4103 123.584 59.1909 123.584 58.9166V58.1852C123.922 58.1852 124.27 58.1852 124.617 58.1852V58.9166C124.617 59.1909 124.837 59.4103 125.111 59.4103C125.385 59.4103 125.605 59.1909 125.605 58.9166V58.1943C125.943 58.1943 126.29 58.1943 126.638 58.1943V58.9166C126.638 59.1909 126.857 59.4103 127.131 59.4103C127.406 59.4103 127.625 59.1909 127.625 58.9166V58.1943C127.973 58.1943 128.311 58.1943 128.658 58.1943V58.9166C128.658 59.1909 128.878 59.4103 129.152 59.4103C129.426 59.4103 129.646 59.1909 129.646 58.9166V58.1943H130.679V58.9166C130.679 59.1909 130.898 59.4103 131.173 59.4103C131.447 59.4103 131.666 59.1909 131.666 58.9166V58.2035H132.699V58.9166C132.699 59.1909 132.919 59.4103 133.193 59.4103C133.467 59.4103 133.687 59.1909 133.687 58.9166V58.2035C137.243 58.2035 140.133 58.2126 140.974 58.2126L141.001 58.2217Z" fill="white"/>
<path d="M128.128 0.192017V23.8812L122.167 15.6709L128.128 0.192017Z" fill="#F3C540"/>
<path d="M128.165 23.9177H128.11V23.8994L122.121 15.68V15.6617L128.165 0V23.9177ZM122.203 15.6617L128.091 23.7714V0.384L122.203 15.6709V15.6617Z" fill="#B06816"/>
<path d="M128.128 23.8812L118.482 27.0172L105.6 16.5577L128.128 23.8812Z" fill="#B06816"/>
<path d="M118.473 27.0537H118.455L105.426 16.4663L105.609 16.5212L128.155 23.8446V23.8995H128.128L118.464 27.0446L118.473 27.0537ZM105.774 16.6492L118.491 26.9715L128.018 23.872L105.774 16.64V16.6492Z" fill="#B06816"/>
<path d="M128.128 23.8812L105.6 16.5578L122.167 15.6709L128.128 23.8812Z" fill="#F3C540"/>
<path d="M128.219 23.9451L128.119 23.9086L105.408 16.5303L122.185 15.6343V15.6526L128.219 23.9451ZM105.792 16.5851L128.037 23.808L122.149 15.7074L105.792 16.5851Z" fill="#B06816"/>
<path d="M128.128 23.8811L114.203 43.0445L118.482 27.0171L128.128 23.8811Z" fill="#F3C540"/>
<path d="M114.121 43.2183L118.455 26.9897H118.473L128.219 23.8171L128.155 23.9086L114.121 43.2274V43.2183ZM118.51 27.0446L114.286 42.8709L128.037 23.9543L118.51 27.0446Z" fill="#B06816"/>
<path d="M128.128 23.8812V34.0298L114.203 43.0447L128.128 23.8812Z" fill="#B06816"/>
<path d="M114.066 43.1726L128.091 23.872V23.8446H128.165V23.8812V34.048H128.146L114.057 43.1817L114.066 43.1726ZM128.091 23.9817L114.341 42.9075L128.091 34.0023V23.9817Z" fill="#B06816"/>
<path d="M142.053 43.0447L128.128 34.0298V23.8812L142.053 43.0447Z" fill="#B06816"/>
<path d="M142.19 43.1726L142.034 43.0721L128.091 34.0481V23.7715L128.155 23.8629L142.19 43.1818V43.1726ZM128.165 34.0023L141.915 42.9075L128.165 23.9909V34.0115V34.0023Z" fill="#B06816"/>
<path d="M142.053 43.0445L128.128 23.8811L137.774 27.0171L142.053 43.0445Z" fill="#F3C540"/>
<path d="M142.135 43.2183L142.025 43.0629L128.037 23.8171L128.137 23.8537L137.801 26.9897V27.008L142.135 43.2183ZM128.219 23.9451L141.97 42.8617L137.746 27.0354L128.219 23.9451Z" fill="#B06816"/>
<path d="M150.656 16.5577L137.774 27.0172L128.128 23.8812L150.656 16.5577Z" fill="#B06816"/>
<path d="M137.783 27.0537H137.765L128.091 23.9086V23.8537H128.119L150.83 16.4663L150.683 16.5852L137.792 27.0537H137.783ZM128.238 23.8812L137.765 26.9806L150.482 16.6583L128.238 23.8903V23.8812Z" fill="#B06816"/>
<path d="M150.656 16.5578L128.128 23.8812V23.872L134.089 15.6709L150.656 16.5578Z" fill="#F3C540"/>
<path d="M128.091 23.9268V23.8628L134.062 15.6343H134.08L150.83 16.5303L128.073 23.9268H128.091ZM134.107 15.7074L128.219 23.808L150.464 16.576L134.107 15.6983V15.7074Z" fill="#B06816"/>
<path d="M134.089 15.6709L128.128 23.872V0.192017L134.089 15.6709Z" fill="#B06816"/>
<path d="M128.091 23.9817V0L128.155 0.173714L134.126 15.6709V15.6891L128.091 23.9817ZM128.165 0.384V23.7714L134.053 15.6709L128.165 0.384Z" fill="#B06816"/>
</svg>
