<svg width="256" height="256" viewBox="0 0 256 256" fill="none" xmlns="http://www.w3.org/2000/svg">
<path d="M128 256C126.733 256 125.489 255.779 124.301 255.344C120.325 253.89 109.669 249.498 96.6216 240.082C80.5076 228.455 66.3011 213.361 54.3941 195.218C43.8593 179.166 36.1139 160.967 31.3717 141.131C27.3986 124.519 25.4685 106.961 25.4685 87.4521V37.9518C25.4685 32.116 29.3939 26.949 35.0157 25.3875L124.821 0.432471C125.856 0.145833 126.924 0 128 0C129.076 0 130.144 0.145833 131.179 0.432471L220.987 25.3875C226.608 26.949 230.534 32.116 230.534 37.9518V87.4521C230.534 106.961 228.604 124.519 224.631 141.129C219.888 160.967 212.141 179.164 201.608 195.215C189.701 213.359 175.495 228.453 159.381 240.079C146.333 249.495 135.677 253.888 131.702 255.341C130.511 255.776 129.267 255.997 128.002 255.997L128 256Z" fill="#4F267A"/>
<path d="M219.461 30.8814L129.654 5.92636C128.573 5.62463 127.43 5.62463 126.346 5.92636L36.5388 30.8814C33.3647 31.764 31.1658 34.6555 31.1658 37.9518V87.4521C31.1658 121.064 37.157 158.566 59.1565 192.087C86.2526 233.376 118.486 247.149 126.253 249.988C127.382 250.4 128.616 250.4 129.744 249.988C137.512 247.149 169.745 233.376 196.841 192.087C218.841 158.566 224.832 121.064 224.832 87.4521V37.9518C224.832 34.6555 222.635 31.764 219.459 30.8814H219.461Z" fill="#FAF6F9"/>
<path d="M121.755 154.379C121.26 154.402 120.971 154.143 120.677 154.691C119.702 156.494 121.735 156.962 122.378 158.659C122.805 159.783 123.192 162.149 123.024 163.318C122.76 165.156 118.92 165.666 119.553 168.02C119.664 168.43 121.013 170.177 120.752 170.469C117.43 171.025 113.235 171.407 109.943 170.6C107.4 169.976 107.073 168.4 105.407 166.65C104.46 165.654 102.65 164.271 101.939 163.27C101.185 162.207 99.4034 157.937 99.0189 156.637C98.755 155.75 98.1569 153.311 98.4258 152.536C98.7952 151.473 100.585 152.31 101.401 152.117C101.813 151.03 100.358 150.711 99.4436 150.424C99.0239 150.294 98.4082 150.455 98.172 150.316C97.986 150.208 96.5485 147.027 96.35 146.535C95.7167 144.973 94.7994 141.511 94.6185 139.668C94.3898 137.352 95.1789 134.858 94.8849 132.62C94.8271 132.18 94.3295 132.208 94.3622 131.753L93.6158 134.898C93.1483 138.614 94.0128 141.712 94.5908 145.23C94.7517 146.208 94.6486 147.774 94.8572 148.682C94.9427 149.049 95.6413 148.896 95.8223 149.155C95.9404 149.323 96.2796 150.751 96.3751 151.108C96.0359 151.601 85.7674 151.438 84.4405 151.36C83.4076 151.299 77.7406 150.643 77.3963 150.103C77.2581 149.886 77.3234 149.494 77.1827 149.18C77.145 149.092 76.7831 149.089 76.7605 148.941C76.665 148.295 77.4767 147.613 77.5169 146.95C77.7356 143.284 76.2704 138.655 78.0598 135.175C78.6554 134.018 79.4922 133.576 79.7284 132.067C80.0149 130.237 79.4269 127.486 79.8491 125.902C79.9622 125.479 80.4648 125.12 80.6407 124.682C81.94 121.414 84.7119 114.054 88.092 112.508C88.7027 112.229 89.4164 112.772 90.0924 112.387L89.5923 111.638C90.5146 111.716 91.261 110.846 92.0375 110.687C93.2941 110.428 98.1846 110.956 99.142 111.761C100.017 112.495 98.5364 114.054 99.524 114.16C101.286 114.346 101.821 113.385 102.992 112.847C104.611 112.103 106.236 111.414 107.938 110.881C107.973 110.992 108.116 111.168 108.189 111.384C107.516 112.724 108.091 114.567 108.141 116.045C108.149 116.272 107.883 116.619 107.935 116.661C108.008 116.719 108.639 116.591 108.958 116.78C109.277 116.968 108.873 117.401 109.003 117.602C109.054 117.68 109.441 117.665 109.456 117.811C109.519 118.459 108.729 120.129 108.933 121.575C109.094 122.719 110.36 123.32 109.951 124.705C110.773 124.094 112.15 125.54 112.602 126.198C113.2 127.063 113.361 128.253 114.115 129.211C114.801 130.081 117.073 131.479 116.998 132.61C116.987 132.756 116.5 132.736 116.47 132.912C116.402 133.297 116.698 133.719 116.666 134.104C116.638 134.415 116.256 134.689 116.286 135.094C116.392 136.517 118.234 136.827 117.101 138.526C115.907 140.314 113.635 140.002 112.047 140.89C111.858 140.996 110.632 142.3 110.363 142.597C108.991 144.116 108.27 145.363 107.965 147.488C107.661 149.612 107.837 152.054 107.44 154.193C107.935 154.314 107.91 155.096 108.084 155.146C108.657 155.312 110.152 155.066 110.692 154.731C110.888 154.611 110.918 154.198 110.984 154.158C111.089 154.09 111.499 154.467 111.665 154.352C112.577 153.721 113.924 152.189 115.223 151.978C115.733 151.895 116.181 152.134 116.786 152.064C117.797 151.946 118.862 151.055 119.888 151.096C120.081 151.103 121.416 151.581 121.468 151.646C121.607 151.81 121.461 152.584 121.526 152.971C121.559 153.178 121.755 153.328 121.76 153.371C121.795 153.701 121.725 154.048 121.76 154.377L121.755 154.379Z" fill="#4F267A"/>
<path d="M150.907 126.721C151.691 125.972 150.321 126.085 149.904 126.847C149.889 127.056 150.258 127.006 150.404 126.973C149.055 127.828 147.79 128.834 146.474 129.709C146.097 129.96 145.418 129.952 145.378 129.99C145.265 130.101 145.355 131.328 145.207 131.68C144.998 132.175 144.275 132.047 144.342 133.395C144.365 133.837 144.787 133.714 144.858 133.948C145.252 135.285 145.622 137.199 144.936 138.479C144.559 139.183 143.845 138.79 144.131 140.153C144.307 140.99 145.7 142.381 145.765 143.04C145.923 144.589 144.782 145.592 145.24 147.098C145.36 147.493 147.609 150.314 147.813 150.359C148.142 150.434 150.123 150.62 150.515 150.615C154.654 150.553 156.169 148.921 160.856 149.826C164.379 150.507 164.766 149.346 165.606 146.082C166.274 143.49 166.5 139.334 166.206 136.678C165.973 134.566 164.563 132.447 164.726 130.239C165.817 129.864 166.025 131.106 166.304 132.054C167.475 136.055 167.523 142.268 166.613 146.333C166.443 147.093 165.271 149.921 165.586 150.364C165.686 150.505 167.621 151.264 167.9 151.282C172.094 151.543 177.146 149.424 181.059 147.711C182.735 146.977 184.401 146.278 184.341 144.204C184.311 143.125 183.481 142.313 183.338 141.415C183.094 139.872 183.434 137.8 183.32 136.153C182.848 129.241 179.93 125.379 178.825 119.279C178.608 118.08 178.754 116.752 178.38 115.45C178.068 114.366 177.07 112.817 176.128 112.171C175.037 111.424 171.439 110.245 170.124 110.129C166.51 109.812 164.97 110.438 162.015 112.055C161.761 112.193 161.731 112.586 161.532 112.633C160.004 112.99 158.418 110.705 156.946 109.993C155.83 109.453 155.305 109.644 154.174 109.372C153.875 112.538 154.907 116.732 152.555 119.196C152.585 120.622 151.319 124.257 151.397 125.323C151.404 125.419 152.46 125.464 151.52 126.467C151.281 126.721 150.975 126.666 150.904 126.721" fill="#4F267A"/>
<path d="M145.353 103.564C144.546 103.373 144.151 104.251 143.93 104.326C138.643 106.167 127.522 105.716 121.938 104.535C120.433 104.215 118.885 103.418 117.485 102.988C116.932 102.817 116.075 103.454 116.007 101.714C115.985 101.13 116.739 97.1425 117.148 97.0419C118.596 96.6849 118.37 97.5196 119.081 97.8314C120.177 98.3142 121.569 97.7082 122.516 98.988L123.132 101.072C124.087 99.5135 123.826 97.3084 126.296 98.6637L127.153 100.816C127.904 98.6611 128.344 97.9194 130.799 97.7987L130.299 97.3009C135.107 97.7484 140.017 97.8012 144.722 96.6019C146.443 96.9262 145.192 102.267 145.353 103.559V103.564Z" fill="#4F267A"/>
<path d="M126.253 203.933L127.188 212.215C126.18 214.81 124.167 215.846 121.438 215.416C120.194 214.521 112.451 213.432 112.002 212.914C111.605 212.454 111.17 209.459 111.197 208.687C110.521 209.2 110.755 208.516 110.441 208.323C110.127 208.129 109.715 208.292 109.418 208.023C108.981 207.631 108.056 204.782 108.438 204.415C108.687 204.176 109.843 204.375 109.443 205.17C109.86 205.28 109.561 204.707 109.848 204.652C110.826 204.456 113.565 205.994 114.872 206.15C115.952 206.278 118.309 206.314 119.375 206.185C120.647 206.032 125.731 203.573 126.253 203.938V203.933Z" fill="#4F267A"/>
<path d="M127.889 204.554C128.58 204.903 128.689 205.263 129.101 205.481C131.272 206.638 135.813 205.499 138.196 205.672C139.512 205.768 139.796 206.688 140.978 206.673C142.794 206.648 144.395 205.524 146.129 205.17C145.938 205.791 146.19 207.043 146.122 207.521C146.102 207.661 144.39 209.303 144.114 209.552C143.646 209.97 142.51 210.402 142.194 210.782C141.561 211.541 141.397 213.065 140.284 213.774C138.909 214.649 138.412 213.902 137.241 213.977C136.542 214.02 135.7 214.601 134.929 214.702C131.342 215.164 128.442 212.285 127.605 208.996C127.236 207.548 127.296 205.851 126.779 204.418C127.879 204.038 127.608 204.413 127.889 204.554Z" fill="#4F267A"/>
<path d="M142.071 93.5042C142.181 93.3357 142.214 92.9862 142.355 92.8882C142.787 92.5839 147.969 94.354 144.742 95.5358C140.709 97.0117 134.981 95.1611 130.94 95.8073C129.711 96.0035 128.593 97.9043 127.032 97.1726C126.665 96.9991 126.422 96.2775 125.896 96.28C125.278 96.2826 125.381 97.1601 124.645 97.3059C123.23 97.585 123.15 96.7024 122.378 96.5491C121.403 96.3555 120.458 96.9363 119.631 96.8055C119.247 96.7427 117.752 95.5182 117.721 95.1662C117.711 95.0354 118.121 93.1949 118.214 93.1471L123.846 92.4758C124.71 92.2269 124.685 90.7836 124.914 90.7484C125.856 90.6026 127.06 91.817 128.043 92.1439C129.339 92.5764 133.142 93.4564 134.34 93.1698C135.011 93.0088 135.667 92.2897 136.205 92.2897C136.866 92.2897 137.831 93.1497 138.485 93.2653C139.603 93.4614 140.912 93.0541 142.076 93.5042H142.071Z" fill="#5B5B5B"/>
<path d="M143.307 147.91C143.357 147.928 143.76 148.617 143.958 148.75C144.378 149.029 144.818 149.024 145.383 149.471C145.948 149.919 147.097 151.161 147.316 151.81C147.662 152.838 148.871 159.803 148.758 160.703C148.71 161.073 148.58 161.43 148.268 161.666C147.378 161.12 146.328 160.585 145.315 160.328C144.689 160.17 144.307 160.396 143.868 160.296C142.493 159.986 140.937 158.669 139.844 157.776C139.336 157.361 136.017 154.395 135.934 154.143C135.411 152.577 137.188 152.868 138.354 152.255C140.445 151.154 140.5 149.24 142.872 151.993C143.29 152.479 143.046 153.303 144.373 153.12C144.76 151.576 140.465 149.582 141.855 148.212C142.176 147.895 142.885 147.752 143.31 147.907L143.307 147.91Z" fill="#5EAE2B"/>
<path d="M117.199 142.783C117.156 142.859 116.083 143.369 115.718 143.691C115.269 144.088 112.848 146.635 112.708 146.965C112.575 147.271 112.756 147.43 113.077 147.334C114.67 146.864 115.96 143.849 117.729 143.819C118.033 145.036 117.143 146.213 116.993 147.226C116.834 148.295 117.209 149.321 116.975 150.354C116.442 150.543 116.105 149.645 115.849 149.645C115.625 149.645 112.936 151.812 112.162 152.202C111.476 152.546 109.267 153.741 109.25 152.3C109.642 150.372 109.338 148.141 109.695 146.213C109.891 145.154 111.047 145.122 111.584 144.583C112.002 144.166 112.14 143.339 112.592 142.826C113.899 141.345 118.166 141.114 117.196 142.783H117.199ZM112.708 147.593C112.346 147.307 111.738 148.104 111.956 148.596C112.268 148.601 112.758 147.631 112.708 147.593Z" fill="#5EAE2B"/>
<path d="M134.572 195.364C135.331 195.504 135.057 194.979 135.074 194.496C135.177 191.323 134.064 190.345 133.39 187.619C132.878 185.548 132.923 183.342 132.445 181.273C131.81 178.52 130.02 175.918 129.364 173.287C129.244 172.802 128.94 170.708 129.023 170.368C129.065 170.197 130.257 169.913 130.299 169.966C130.36 170.039 130.221 170.537 130.309 170.781C130.387 170.997 130.699 170.937 130.89 171.502C131.79 174.183 131.237 177.484 133.018 180.199C134.536 182.513 134.195 180.559 135.195 179.767C136.135 179.023 140.007 179.795 140.115 180.177C141.04 183.451 136.228 183.114 134.574 181.786C133.659 185.698 135.755 189.686 136.301 193.508C136.441 194.499 136.733 197.599 136.471 198.396C136.193 199.243 135.363 199.515 134.572 199.135C134.428 197.996 134.627 196.563 134.572 195.364Z" fill="#5EAE2B"/>
<path d="M120.586 117.335C120.845 117.69 122.373 119.219 122.75 119.327C123.8 119.628 123.607 118.188 124.771 118.799C125.338 119.098 126.761 122.314 127.62 123.113C130.719 125.995 133.664 120.825 135.946 119.173C136.75 117.288 135.019 117.368 135.062 116.033C135.082 115.399 135.491 114.992 135.579 114.401C137.087 114.683 137.728 116.003 139.404 115.59C140.482 115.324 141.498 115.045 142.631 114.796C143.199 114.673 143.644 114.124 144.244 114.122C144.792 114.122 145.805 114.735 145.89 115.284C146.187 117.179 144.513 116.699 143.433 117.109C142.601 117.423 141.988 118.381 141.332 118.779C140.291 119.407 138.811 119.55 137.751 120.224C136.871 120.783 135.119 122.515 134.31 123.32C132.699 124.921 132.061 127.398 129.158 125.972C127.716 125.263 123.68 122.374 122.28 121.29C121.365 120.581 119.548 118.796 118.87 117.914C118.093 116.903 117.998 114.911 118.483 113.775C119.254 111.97 121.134 114.135 122.185 114.346C123.016 114.514 124.936 114.145 125.409 114.899C125.741 115.427 124.931 116.506 124.456 116.732C123.147 117.358 122.943 116.423 122.076 116.216C121.003 115.957 119.704 116.131 120.584 117.34L120.586 117.335ZM138.288 117.72C135.539 117.931 137.354 120.046 138.482 119.198C139.098 118.736 139.46 117.629 138.288 117.72Z" fill="#030404"/>
<path d="M150.331 108.314C149.979 108.558 149.605 108.057 149.645 108.744C149.703 109.682 151.198 110.519 150.902 111.635C147.499 112.234 147.954 105.138 150.233 105.88C151.125 106.169 150.874 107.939 150.329 108.314H150.331Z" fill="#030404"/>
<path d="M142.307 110.325C142.282 110.371 141.515 110.806 141.412 110.828C140.432 111.057 140.334 110.225 139.61 109.983C138.99 109.777 137.575 110.117 137.869 109.028C138.123 108.082 140.661 107.929 141.432 108.16C142.096 108.362 142.631 109.76 142.307 110.323V110.325Z" fill="#030404"/>
<path d="M135.263 108.412C137.492 108.042 136.441 111.595 134.951 111.633C134.68 111.64 133.486 110.951 133.315 110.753C132.358 109.636 134.32 108.568 135.26 108.412H135.263Z" fill="#030404"/>
<path d="M122.76 110.122C122.592 109.315 123.652 109.722 124.346 109.37C124.487 109.297 124.481 108.922 124.693 108.874C127.444 108.238 127.201 111.726 125.442 111.577C124.549 111.502 123.75 110.159 122.76 110.122Z" fill="#030404"/>
<path d="M122.635 129.487C122.798 129.57 122.798 129.656 122.635 129.739V129.487Z" fill="#030404"/>
<path d="M112.708 147.593C112.758 147.631 112.268 148.601 111.956 148.596C111.738 148.104 112.346 147.307 112.708 147.593Z" fill="#030404"/>
<path d="M185.323 147.201C185.381 146.261 185.778 145.443 185.839 144.822C185.919 143.988 185.904 141.694 185.577 140.998C185.444 140.714 185.06 140.686 184.884 140.382C184.582 139.849 183.906 132.009 183.499 130.191C182.918 127.596 181.938 125.809 181.187 123.453C180.478 121.233 180.38 118.834 179.807 116.661C179.762 116.488 179.631 116.144 179.556 115.907C179.531 115.832 179.581 115.729 179.556 115.656C177.945 111.059 173.364 108.643 168.629 108.595C165.995 108.568 163.53 109.817 160.838 109.616C160.064 109.558 154.018 108.082 153.731 107.803C153.347 107.431 153.091 105.347 152.791 104.595C151.369 101.015 148.788 103.956 147.391 103.222C146.705 102.86 146.17 100.268 146.202 99.5034C146.298 97.2858 148.776 95.8199 148.655 94.6683C148.587 94.0146 147.602 93.5997 147.331 92.9611C147.084 92.3803 147.295 91.6888 146.758 91.2639L144.629 92.0182C145.398 86.7456 143.631 90.3537 142.44 90.7107C142.01 90.839 141.495 90.6931 141.045 90.8239C140.593 90.9546 140.133 91.5178 139.608 91.6561C137.434 92.2319 137.816 90.4442 137.188 90.2908C136.602 90.15 135.253 91.3217 134.466 91.2639C134.283 91.2513 132.159 90.6705 131.875 90.5699C131.116 90.2984 130.566 89.4611 129.872 89.3052C129.091 89.1292 128.186 89.4083 127.465 89.1996C126.525 88.9306 126.379 87.2082 125.173 87.4772C124.826 87.5552 124.74 90.0142 123.456 90.5724C122.768 90.8716 120.629 91.103 119.857 91.03C119.119 90.9596 118.397 90.3637 117.905 90.5322C117.779 90.5749 116.035 92.2646 115.967 92.3803C115.394 93.3659 116.08 94.2585 115.967 95.3849C115.894 96.0915 115.412 96.9539 115.291 97.7409C115.055 99.2948 115.723 101.97 113.53 102.284C112.381 102.45 111.501 100.791 109.808 102.312C109.149 102.903 107.694 105.55 107.388 106.428C106.523 108.905 107.629 110.232 104.266 110.597C98.7526 111.193 95.561 106.848 89.2581 110.164C87.22 111.238 83.5132 115.515 82.0506 117.411C81.8144 117.718 81.6133 118.029 81.2967 118.416C81.1534 118.593 81.2866 119.281 80.5427 119.171C80.5553 120.3 79.6305 121.041 79.2711 122.047C78.2207 124.989 79.2284 128.253 78.771 131.101C78.6504 131.846 77.9492 132.494 77.6577 133.256C76.3786 136.593 76.2127 138.793 76.0217 142.305C75.9765 143.135 76.0343 143.988 76.0217 144.82C75.9915 146.668 75.7629 147.897 76.0217 149.849C76.072 150.233 76.1725 151.649 76.3182 151.815C76.4464 151.958 77.0772 151.92 77.3637 152.091C77.9417 152.441 77.8437 157.075 78.0573 158.249C78.5675 161.05 82.2567 169.561 84.0661 171.724C86.4359 174.557 95.6866 176.727 99.2803 176.76C100.607 176.772 101.814 175.87 103.166 175.998V186.684C103.166 188.323 104.432 192.819 105.176 194.353C105.694 195.421 107.224 196.493 107.802 197.383C109.468 199.937 107.375 202.263 107.418 204.787C107.463 207.382 110.104 209.273 109.159 211.921C107.051 211.584 104.92 213.256 103.04 213.231C99.8659 213.188 97.7473 210.462 94.5532 211.01C92.5427 211.355 88.5645 214.631 88.1423 216.663C87.5643 219.454 89.9919 221.533 91.4571 223.542C92.0074 224.299 93.5982 227.183 94.2491 227.304C94.6965 227.387 95.2292 227.273 95.6263 227.042C95.8776 226.484 96.139 226.698 96.3802 226.539C96.4405 226.499 96.4807 226.237 96.6391 226.17C97.9057 225.619 97.5714 226.476 97.6368 226.539C97.9484 226.846 98.3605 227.288 98.642 227.545C98.7953 227.683 99.7402 228.44 99.8985 228.551C100.004 228.624 100.077 228.757 100.15 228.802C100.2 228.835 101.1 229.282 101.155 229.305C103.063 230.072 104.347 227.671 105.54 227.784C106.159 227.842 108.116 229.891 109.554 229.805C110.722 229.735 112.871 227.336 113.844 227.304C114.326 227.286 114.779 227.816 115.223 227.927C116.417 228.226 118.84 228.317 119.852 227.568C120.26 227.266 119.538 226.517 120.817 226.853C122.237 227.228 122.157 227.811 124.122 227.263C125.906 226.765 125.437 224.764 126.678 223.504C129.073 224.415 128.538 227.366 131.493 227.987C133.554 228.42 133.674 227.251 135.19 226.773C135.615 226.64 138.158 226.069 138.472 226.066C139.193 226.061 139.736 226.728 140.48 226.806C141.92 226.959 144.252 226.278 145.956 226.592C146.959 226.776 147.114 228.008 148.09 228.234C149.977 228.671 150.482 226.816 153.008 228.591C153.902 229.22 154.169 230.278 155.438 229.554C155.606 229.458 155.893 229.018 156.307 228.795C158.049 227.854 158.285 228.621 159.71 229.302C159.863 229.375 160.348 229.227 160.464 229.302C162.932 227.51 167.775 223.286 167.996 220.095C168.146 217.925 166.292 213.291 164.04 212.524C162.389 211.963 159.396 212.155 157.695 212.572C156.549 212.854 154.87 213.962 153.872 213.905C152.681 213.837 145.793 211.063 145.257 210.196C144.461 208.903 146.717 209.278 147.225 209.135C148.265 208.841 148.044 205.6 148.218 204.596C148.617 202.296 149.753 200.523 149.914 198.122C150.027 196.435 149.741 196.264 150.417 194.35C150.477 194.182 150.351 193.8 150.467 193.531C150.892 192.545 152.108 192.799 152.93 192.59C153.008 192.57 153.103 192.61 153.181 192.59C153.638 192.472 154.591 192.241 154.94 192.087C155.292 191.931 155.661 191.655 155.671 191.227C155.053 187.426 154.264 183.473 153.935 179.639C153.87 178.887 153.513 174.879 153.915 174.597C154.488 174.193 162.17 175.648 163.61 175.741C167.405 175.985 174.53 175.49 177.807 173.481C178.624 172.981 179.126 171.91 180.069 171.721C180.069 171.638 180.064 171.553 180.069 171.47C180.136 170.044 183.549 165.128 184.384 163.089C187.276 156.039 184.929 153.801 185.333 147.193L185.323 147.201ZM118.211 93.1471L123.843 92.4758C124.708 92.2269 124.683 90.7836 124.911 90.7484C125.854 90.6026 127.057 91.817 128.04 92.1439C129.337 92.5764 133.139 93.4564 134.338 93.1698C135.009 93.0088 135.665 92.2897 136.203 92.2897C136.864 92.2897 137.829 93.1497 138.482 93.2653C139.6 93.4614 140.91 93.0541 142.073 93.5042C142.184 93.3357 142.216 92.9862 142.357 92.8882C142.789 92.5839 147.971 94.354 144.745 95.5358C140.711 97.0117 134.984 95.1611 130.943 95.8073C129.714 96.0035 128.595 97.9043 127.035 97.1726C126.668 96.9991 126.424 96.2775 125.899 96.28C125.281 96.2826 125.384 97.1601 124.647 97.3059C123.233 97.585 123.152 96.7024 122.381 96.5491C121.406 96.3555 120.461 96.9363 119.634 96.8055C119.249 96.7427 117.754 95.5182 117.724 95.1662C117.714 95.0354 118.123 93.1949 118.216 93.1471H118.211ZM117.148 97.0444C118.596 96.6874 118.37 97.5221 119.081 97.8339C120.177 98.3167 121.569 97.7107 122.516 98.9905L123.132 101.075C124.087 99.516 123.826 97.3109 126.296 98.6662L127.153 100.818C127.904 98.6637 128.344 97.9219 130.799 97.8012L130.299 97.3034C135.107 97.7509 140.017 97.8037 144.722 96.6044C146.443 96.9287 145.192 102.269 145.353 103.562C144.546 103.371 144.151 104.248 143.93 104.323C138.643 106.164 127.522 105.714 121.938 104.532C120.433 104.213 118.885 103.416 117.485 102.986C116.932 102.815 116.075 103.451 116.007 101.711C115.985 101.128 116.739 97.14 117.148 97.0394V97.0444ZM101.967 174.937C99.6322 175.357 94.709 174.532 92.3492 173.866C90.8263 173.436 87.7779 172.415 86.828 171.344C83.9203 168.065 78.7409 160.145 78.771 155.772C78.776 154.9 78.9645 152.702 80.1608 152.846L86.936 153.379C90.2483 153.2 93.5656 152.911 96.8879 153.228C97.7348 155.579 98.3279 158.312 99.3406 160.58C100.399 162.946 102.437 165.511 103.761 168.1C103.796 168.168 104.083 168.239 104.229 168.52C105.063 170.16 104.017 174.562 101.967 174.932V174.937ZM121.436 215.418C120.192 214.523 112.449 213.434 111.999 212.916C111.602 212.456 111.167 209.462 111.195 208.69C110.519 209.203 110.753 208.519 110.438 208.325C110.117 208.129 109.712 208.295 109.416 208.026C108.978 207.634 108.054 204.785 108.436 204.418C108.684 204.179 109.84 204.378 109.441 205.172C109.858 205.283 109.559 204.709 109.845 204.654C110.823 204.458 113.562 205.997 114.869 206.153C115.95 206.281 118.307 206.316 119.372 206.188C120.644 206.035 125.728 203.575 126.251 203.94L127.186 212.222C126.178 214.817 124.165 215.853 121.436 215.423V215.418ZM146.122 207.523C146.102 207.664 144.39 209.306 144.114 209.555C143.646 209.972 142.51 210.405 142.194 210.784C141.561 211.544 141.397 213.067 140.284 213.776C138.909 214.651 138.412 213.905 137.241 213.98C136.542 214.023 135.7 214.603 134.928 214.704C131.342 215.167 128.442 212.288 127.605 208.999C127.236 207.551 127.296 205.854 126.779 204.42C127.879 204.041 127.608 204.415 127.889 204.556C128.58 204.906 128.688 205.265 129.101 205.484C131.272 206.641 135.813 205.502 138.195 205.675C139.512 205.771 139.796 206.691 140.977 206.676C142.794 206.651 144.395 205.527 146.129 205.172C145.938 205.793 146.19 207.045 146.122 207.523ZM149.042 199.889C148.929 200.352 146.695 203.759 146.303 204.083C145.735 204.551 141.968 205.524 141.606 205.167L141.857 203.661C141.143 204.179 137.974 203.508 137.836 203.658C137.6 203.912 138.535 204.74 136.708 204.918C134.994 205.087 132.217 205.034 130.603 204.486C130.083 204.31 127.58 202.889 127.354 202.582C127.138 202.288 126.922 200.634 126.653 200.641C126.381 201.368 126.593 202.356 125.876 202.884C125.276 203.327 122.077 204.471 121.189 204.735C120.468 204.951 118.433 205.733 117.975 204.994C117.792 204.699 117.643 203.437 117.767 203.075C117.932 202.585 120.709 201.67 119.993 200.898C119.86 200.752 118.254 202.037 117.591 202.137C116.359 202.323 113.886 201.753 113.037 200.82C112.492 200.221 112.474 198.318 111.826 198.129C111.22 197.953 111.547 198.388 111.572 198.637C111.632 199.228 111.682 200.583 111.934 200.981C112.286 201.534 116.023 202.665 116.193 202.937C116.616 203.611 115.656 204.662 114.854 204.684C114.557 204.692 109.667 203.206 109.443 203.03C108.39 202.193 109.159 201.001 109.134 200.018C109.059 196.98 106.259 195.997 106.925 192.849C107.116 192.661 111.584 193.289 112.26 193.423C114.163 193.797 116.636 195.027 118.352 195.127C120.038 195.225 122.227 194.262 124.142 194.111C126.474 193.928 131.076 193.448 133.199 193.596C134.966 193.719 134.504 193.908 134.569 195.366C135.328 195.507 135.054 194.981 135.072 194.499C135.175 191.326 134.061 190.347 133.388 187.622C132.875 185.55 132.921 183.345 132.443 181.276C131.807 178.522 130.018 175.92 129.362 173.29C129.241 172.805 128.937 170.71 129.02 170.371C129.063 170.2 130.254 169.916 130.297 169.969C130.357 170.041 130.219 170.539 130.307 170.783C130.385 170.999 130.696 170.939 130.887 171.505C131.787 174.185 131.234 177.486 133.016 180.202C134.534 182.515 134.192 180.562 135.192 179.769C136.132 179.025 140.005 179.797 140.113 180.179C141.038 183.453 136.225 183.116 134.572 181.789C133.657 185.701 135.753 189.689 136.298 193.51C136.439 194.501 136.73 197.601 136.469 198.398C136.19 199.246 135.361 199.517 134.569 199.138C134.793 200.905 135.841 201.27 136.791 199.729C137.59 198.434 136.946 197.933 137.062 196.746C137.163 195.703 137.434 194.662 137.61 193.634C140.053 193.302 142.538 194.179 144.973 193.835C146.481 193.621 146.898 191.954 148.492 192.102C151.382 192.369 148.253 196.447 148.13 197.767C147.994 199.203 149.376 198.527 149.042 199.894V199.889ZM184.265 159.217C183.426 164.065 180.581 167.751 177.807 171.613C176.771 172.561 175.377 172.06 174.183 172.262C172.479 172.546 170.843 173.207 169.096 173.458C161.575 174.54 153.219 171.527 145.757 170.72C142.842 170.406 139.447 171.61 136.479 171.203C134.697 170.959 133.034 169.305 131.114 169.028C129.45 168.787 121.609 169.559 121.272 167.542C121.091 166.463 123.376 166.333 123.823 166.129C124.451 165.842 124.896 165.156 125.705 164.995C126.51 164.834 128.957 164.993 129.5 164.646C129.948 164.359 129.452 162.916 129.543 162.423C128.766 162.551 124.914 163.821 124.517 163.429C124.306 163.217 124.763 162.116 124.743 161.782C124.695 160.97 123.517 160.59 124.891 159.406C125.195 159.142 129.885 156.919 129.038 156.14C126.99 155.446 125.2 157.975 123.444 157.605C121.453 157.188 121.898 155.805 121.75 154.379C121.255 154.402 120.966 154.143 120.672 154.691C119.697 156.494 121.73 156.962 122.373 158.659C122.8 159.783 123.187 162.149 123.019 163.318C122.755 165.156 118.915 165.666 119.548 168.02C119.659 168.43 121.008 170.177 120.747 170.469C117.425 171.025 113.23 171.407 109.938 170.6C107.395 169.976 107.068 168.4 105.402 166.65C104.455 165.654 102.645 164.271 101.934 163.27C101.18 162.207 99.3984 157.937 99.0139 156.637C98.7501 155.75 98.152 153.311 98.4209 152.536C98.7903 151.473 100.58 152.31 101.396 152.117C101.808 151.03 100.353 150.711 99.4386 150.424C99.019 150.294 98.4033 150.455 98.167 150.316C97.9811 150.208 96.5436 147.027 96.345 146.535C95.7117 144.973 94.7945 141.511 94.6135 139.668C94.3848 137.352 95.1739 134.858 94.8799 132.62C94.8221 132.18 94.3245 132.208 94.3572 131.753L93.6108 134.898C93.1434 138.614 94.0079 141.712 94.5859 145.23C94.7467 146.208 94.6437 147.774 94.8523 148.682C94.9377 149.049 95.6363 148.896 95.8173 149.155C95.9354 149.323 96.2747 150.751 96.3702 151.108C96.0309 151.601 85.7624 151.438 84.4355 151.36C83.4026 151.299 77.7356 150.643 77.3913 150.103C77.2531 149.886 77.3185 149.494 77.1777 149.18C77.14 149.092 76.7781 149.089 76.7555 148.941C76.66 148.295 77.4718 147.613 77.512 146.95C77.7306 143.284 76.2655 138.655 78.0548 135.175C78.6504 134.018 79.4872 133.576 79.7235 132.067C80.01 130.237 79.4219 127.486 79.8441 125.902C79.9572 125.479 80.4598 125.12 80.6357 124.682C81.935 121.414 84.7069 114.054 88.087 112.508C88.6977 112.229 89.4114 112.772 90.0875 112.387L89.5873 111.638C90.5096 111.716 91.256 110.846 92.0326 110.687C93.2891 110.428 98.1796 110.956 99.1371 111.761C100.012 112.495 98.5314 114.054 99.5191 114.16C101.281 114.346 101.816 113.385 102.987 112.847C104.606 112.103 106.232 111.414 107.933 110.881C107.282 108.854 108.096 108.042 108.765 106.307C109.26 105.02 109.142 102.742 111.328 104.087L111.2 103.089C112.456 102.729 113.253 103.697 114.206 103.977C115.266 104.288 115.527 104.1 116.734 104.675C116.91 104.761 117.199 104.587 117.211 104.608C117.294 104.743 117.42 105.764 117.256 105.991C116.842 106.561 114.278 106.878 115.532 107.429C117.51 108.301 118.596 104.655 120.755 105.468C121.72 106.119 119.508 107.356 119.757 108.206C119.88 108.626 121.054 108.998 121.378 109.367C119.141 104.364 125.095 106.687 127.648 106.868C131.176 107.117 134.526 106.32 137.708 106.332C138.65 106.335 139.673 106.928 140.226 106.873C140.824 106.813 140.746 106.247 140.895 106.154C141.664 105.671 142.254 106.795 142.769 107.074C143.455 107.001 146.793 109.765 146.275 107.846C146.024 106.921 141.9 106.549 143.785 105.329C144.76 104.698 146.594 105.664 147.733 105.591C149.205 105.493 149.53 104.07 151.223 104.907C153.035 105.802 152.311 107.311 152.829 108.56C152.975 108.912 153.452 108.968 153.638 109.267C154.322 110.363 153.387 112.304 153.194 113.549C152.935 115.216 153.548 118.733 150.907 117.672C151.638 119.91 151.907 123.772 150.16 125.603C148.537 127.305 147.112 127.906 145.375 129.993C145.416 129.952 146.094 129.96 146.471 129.711C147.788 128.839 149.055 127.83 150.402 126.975C150.253 127.008 149.884 127.058 149.901 126.85C150.319 126.085 151.691 125.972 150.904 126.724C150.972 126.669 151.281 126.724 151.52 126.47C152.462 125.464 151.404 125.422 151.397 125.326C151.319 124.26 152.588 120.627 152.555 119.198C154.908 116.732 153.872 112.538 154.174 109.375C155.305 109.646 155.83 109.455 156.946 109.996C158.418 110.707 160.004 112.993 161.532 112.636C161.733 112.588 161.763 112.198 162.015 112.058C164.97 110.441 166.51 109.815 170.124 110.132C171.439 110.247 175.037 111.427 176.128 112.173C177.07 112.82 178.068 114.368 178.38 115.452C178.754 116.755 178.608 118.082 178.825 119.281C179.93 125.379 182.848 129.243 183.32 136.155C183.434 137.802 183.094 139.874 183.338 141.418C183.479 142.316 184.311 143.128 184.341 144.206C184.401 146.281 182.735 146.98 181.059 147.714C177.146 149.426 172.095 151.543 167.9 151.284C167.624 151.267 165.686 150.507 165.586 150.367C165.271 149.924 166.443 147.095 166.613 146.336C167.523 142.27 167.475 136.055 166.304 132.057C166.028 131.109 165.817 129.867 164.726 130.242C164.563 132.449 165.97 134.566 166.206 136.681C166.503 139.336 166.274 143.492 165.606 146.085C164.766 149.348 164.377 150.51 160.856 149.828C156.169 148.923 154.654 150.555 150.515 150.618C150.123 150.623 148.142 150.437 147.813 150.361C147.61 150.316 145.36 147.493 145.24 147.1C144.78 145.594 145.921 144.591 145.765 143.042C145.697 142.383 144.307 140.993 144.131 140.156C143.845 138.79 144.559 139.185 144.936 138.481C145.619 137.201 145.252 135.288 144.858 133.95C144.79 133.716 144.365 133.84 144.342 133.397C144.272 132.049 144.998 132.178 145.207 131.682C145.355 131.33 145.265 130.103 145.378 129.993C143.79 131.904 143.543 132.63 140.601 132.258C140.739 129.59 140.1 128.673 137.535 128.137C136.994 128.024 136.492 128.298 136.09 128.119C135.416 127.818 135.461 126.666 134.469 126.719C133.732 126.759 132.478 128.054 131.415 128.217C128.9 128.61 125.643 127.063 123.765 128.733C125.115 128.509 126.814 129.025 126.801 130.629C126.794 131.617 124.238 132.655 123.391 132.522C122.471 132.376 122.489 130.772 122.506 129.995C121.559 130.282 120.848 131.013 119.81 131.189C119.038 131.32 118.03 131.358 117.294 131.059C116.97 130.928 115.045 128.776 114.723 128.351C113.974 127.36 113.552 126.266 112.781 125.283C111.29 123.392 109.717 123.035 109.473 120.028C109.277 117.602 110.361 116.968 110.949 114.906C110.461 114.773 110.298 115.402 109.863 115.369C108.576 115.269 109.041 113.715 108.88 112.83C108.75 112.118 108.307 111.748 108.187 111.386C107.513 112.726 108.089 114.57 108.139 116.048C108.146 116.274 107.88 116.621 107.933 116.664C108.006 116.722 108.637 116.594 108.956 116.782C109.287 116.978 108.87 117.403 109.001 117.604C109.051 117.682 109.438 117.667 109.453 117.813C109.516 118.462 108.727 120.131 108.931 121.577C109.091 122.721 110.358 123.322 109.948 124.707C110.77 124.096 112.147 125.542 112.6 126.201C113.198 127.066 113.359 128.255 114.113 129.213C114.799 130.083 117.07 131.481 116.995 132.613C116.985 132.758 116.497 132.738 116.467 132.914C116.399 133.299 116.696 133.721 116.663 134.106C116.636 134.418 116.254 134.692 116.284 135.097C116.389 136.52 118.232 136.829 117.098 138.529C115.904 140.317 113.633 140.005 112.044 140.892C111.856 140.998 110.629 142.303 110.361 142.6C108.988 144.118 108.267 145.365 107.963 147.49C107.661 149.582 107.835 152.056 107.438 154.196C107.933 154.317 107.908 155.099 108.081 155.149C108.654 155.315 110.149 155.068 110.69 154.734C110.886 154.613 110.916 154.201 110.981 154.161C111.087 154.093 111.496 154.47 111.662 154.354C112.575 153.723 113.922 152.192 115.221 151.981C115.731 151.898 116.178 152.137 116.784 152.066C117.794 151.948 118.86 151.058 119.885 151.098C120.079 151.106 121.413 151.583 121.466 151.649C121.604 151.812 121.458 152.587 121.524 152.974C121.556 153.18 121.752 153.331 121.757 153.374C122.011 152.929 122.039 152.838 122.589 152.883C123.69 152.976 125.301 153.713 126.354 153.58C127.186 153.474 127.276 152.466 127.902 152.104C129.279 151.302 130.857 152.557 132.194 152.632C133.217 152.69 133.868 152.164 134.825 152.117C134.906 153.344 135.069 155.119 135.919 156.054C136.343 156.522 137.303 156.851 137.713 157.402C138.145 157.988 138.213 159.069 138.673 159.584C139.595 160.615 147.278 163.431 148.818 163.577C151.12 163.796 151.138 162.991 150.919 160.779C150.658 158.111 147.939 158.01 148.763 154.623C148.811 154.427 149.562 152.828 149.655 152.75C149.957 152.496 152.349 151.855 152.915 151.737C156.654 150.955 160.924 152.534 164.857 152.868C167.468 153.09 172.723 153.497 175.143 153.107C176.271 152.926 181.026 149.341 182.722 148.622C183.18 148.428 183.562 148.265 184.077 148.342C184.125 152.013 184.899 155.554 184.265 159.217ZM124.142 146.59C123.431 146.615 122.029 149.916 121.589 150.067C120.395 150.472 118.629 148.996 118.244 147.958C117.204 145.147 120.843 144.581 121.006 142.921C121.159 141.358 117.87 142.494 117.5 141.398C117.206 140.52 118.221 139.21 119.129 139.057C122.298 138.521 121.144 139.904 121.886 142.054C123.172 145.785 129.493 148.295 133.184 147.586C133.803 147.467 134.685 146.323 135.207 145.826C135.421 145.622 135.997 145.599 135.858 145.282C136.225 145.008 136.59 144.729 136.856 144.508C137.665 143.844 138.683 142.869 139.015 142.411C139.241 142.099 139.434 141.835 139.625 141.594C140.181 141.556 140.51 140.804 140.935 140.842C141.623 140.902 144.31 142.786 144.521 143.558C144.682 144.154 144.069 145.989 143.516 146.351C141.963 147.367 140.917 144.79 140.09 145.438C138.897 146.66 140.862 148.101 140.304 149.049C140.151 149.31 136.841 151.483 136.401 151.568C134.916 151.86 134.971 149.167 134.32 148.094C133.006 148.247 133.747 150.223 132.644 150.558C130.37 151.249 130.558 149.436 129.05 148.848C128.766 151.765 122.471 152.476 123.381 149.092C123.459 148.8 125.163 146.555 124.145 146.59H124.142ZM116.977 150.354C116.445 150.543 116.108 149.645 115.852 149.645C115.628 149.645 112.939 151.812 112.165 152.202C111.479 152.546 109.27 153.741 109.252 152.3C109.644 150.372 109.34 148.141 109.697 146.213C109.893 145.154 111.049 145.122 111.587 144.583C112.004 144.166 112.142 143.339 112.595 142.826C113.901 141.345 118.169 141.114 117.199 142.783C117.156 142.859 116.083 143.369 115.718 143.691C115.269 144.088 112.848 146.635 112.708 146.965C112.575 147.271 112.755 147.43 113.077 147.334C114.67 146.864 115.96 143.849 117.729 143.819C118.033 145.036 117.143 146.213 116.993 147.226C116.834 148.295 117.209 149.321 116.975 150.354H116.977ZM136.575 133.641C139.967 134.873 140.678 138.164 139.467 141.254C139.429 141.342 139.387 141.443 139.344 141.554C138.66 143.306 136.291 144.674 135.697 145.074C132.033 146.532 123.321 145.137 122.072 140.862C121.486 138.856 122.702 135.067 124.281 133.651C127.535 130.732 132.926 132.316 136.572 133.641H136.575ZM129.48 129.301C130.453 130.254 129.111 130.591 128.161 130.513C126.077 130.342 128.442 128.283 129.48 129.301ZM130.815 130.133C131.181 128.821 133.551 127.37 134.893 127.772C135.838 128.057 135.981 130.641 135.569 131.499C134.2 130.988 132.471 130.991 131.144 130.518C130.897 130.43 130.676 130.619 130.815 130.131V130.133ZM140.098 133.51C141.111 133.633 142.548 133.11 143.237 134.013C143.44 134.28 144.096 136.341 144.094 136.656C144.081 138.2 140.538 139.359 140.347 138.406C140.264 137.991 141.324 137.244 141.342 136.653C141.367 135.901 139.676 134.672 140.095 133.51H140.098ZM140.1 132.504C138.515 132.452 135.039 133.095 136.474 130.511C137.014 129.538 138.688 129.13 139.527 129.807C140.05 130.226 140.176 131.841 140.098 132.507L140.1 132.504ZM121.21 136.985C120.559 137.367 118.588 136.077 118.345 135.28C117.48 132.469 121.657 132.215 123.258 133.651C122.926 134.109 121.38 136.887 121.212 136.985H121.21ZM138.354 152.255C140.445 151.154 140.5 149.24 142.872 151.993C143.29 152.479 143.046 153.303 144.373 153.12C144.76 151.576 140.465 149.582 141.855 148.212C142.176 147.895 142.885 147.752 143.31 147.907C143.36 147.925 143.762 148.614 143.961 148.747C144.38 149.026 144.82 149.021 145.385 149.469C145.938 149.904 147.099 151.159 147.318 151.807C147.665 152.836 148.874 159.8 148.761 160.701C148.713 161.07 148.582 161.427 148.27 161.664C147.381 161.118 146.33 160.582 145.318 160.326C144.692 160.168 144.31 160.394 143.87 160.293C142.495 159.984 140.94 158.666 139.847 157.774C139.339 157.359 136.019 154.392 135.936 154.141C135.413 152.574 137.19 152.866 138.356 152.252L138.354 152.255Z" fill="black"/>
<path d="M135.7 145.074C136.293 144.674 138.663 143.306 139.347 141.554C139.389 141.443 139.429 141.345 139.47 141.254C140.678 138.164 139.97 134.873 136.577 133.641C132.928 132.316 127.538 130.732 124.286 133.651C122.707 135.067 121.491 138.856 122.077 140.862C123.326 145.139 132.038 146.532 135.703 145.074H135.7Z" fill="#FFEE00"/>
<path d="M121.755 153.374C122.009 152.929 122.036 152.838 122.587 152.883C123.688 152.976 125.298 153.713 126.351 153.58C127.183 153.474 127.274 152.466 127.899 152.104C129.277 151.302 130.855 152.557 132.192 152.632C133.215 152.69 133.866 152.164 134.823 152.117C134.903 153.344 135.067 155.119 135.916 156.054C136.341 156.522 137.301 156.851 137.711 157.402C138.143 157.988 138.211 159.069 138.671 159.584C139.593 160.615 147.275 163.431 148.816 163.577C151.118 163.796 151.135 162.991 150.917 160.779C150.655 158.111 147.936 158.01 148.761 154.623C148.808 154.427 149.56 152.828 149.653 152.75C149.954 152.496 152.347 151.855 152.912 151.737C156.652 150.955 160.921 152.534 164.854 152.868C167.466 153.09 172.72 153.497 175.14 153.107C176.269 152.926 181.024 149.341 182.72 148.622C183.177 148.428 183.559 148.265 184.075 148.342C184.122 152.013 184.896 155.554 184.263 159.217C183.424 164.065 180.579 167.751 177.804 171.613C176.769 172.561 175.374 172.06 174.18 172.262C172.477 172.546 170.841 173.207 169.094 173.458C161.572 174.54 153.216 171.527 145.755 170.72C142.84 170.406 139.445 171.61 136.477 171.203C134.695 170.959 133.031 169.305 131.111 169.028C129.448 168.787 121.607 169.559 121.27 167.542C121.089 166.464 123.373 166.333 123.821 166.129C124.449 165.842 124.894 165.156 125.703 164.995C126.512 164.834 128.955 164.993 129.498 164.646C129.945 164.359 129.45 162.916 129.541 162.423C128.764 162.551 124.911 163.821 124.514 163.429C124.303 163.217 124.761 162.116 124.741 161.782C124.693 160.97 123.514 160.59 124.889 159.406C125.193 159.142 129.882 156.919 129.035 156.14C126.987 155.446 125.198 157.975 123.441 157.605C121.451 157.188 121.896 155.805 121.747 154.379C121.712 154.05 121.783 153.703 121.747 153.374H121.755Z" fill="#FAF6F9"/>
<path d="M107.933 110.881C107.282 108.854 108.096 108.042 108.765 106.307C109.26 105.02 109.142 102.742 111.328 104.087L111.2 103.089C112.457 102.729 113.253 103.697 114.206 103.977C115.266 104.288 115.528 104.1 116.734 104.676C116.91 104.761 117.199 104.588 117.211 104.608C117.294 104.743 117.42 105.764 117.257 105.991C116.842 106.561 114.279 106.878 115.533 107.429C117.51 108.301 118.596 104.655 120.755 105.468C121.72 106.119 119.508 107.356 119.757 108.206C119.88 108.626 121.054 108.998 121.378 109.367C119.141 104.364 125.095 106.687 127.648 106.868C131.177 107.117 134.526 106.32 137.708 106.332C138.65 106.335 139.673 106.928 140.226 106.873C140.824 106.813 140.746 106.247 140.895 106.154C141.664 105.671 142.254 106.795 142.769 107.074C143.455 107.001 146.793 109.765 146.275 107.846C146.024 106.921 141.9 106.549 143.785 105.329C144.76 104.698 146.594 105.664 147.733 105.591C149.205 105.493 149.53 104.07 151.223 104.907C153.035 105.802 152.312 107.311 152.829 108.56C152.975 108.912 153.453 108.968 153.638 109.267C154.322 110.363 153.387 112.304 153.194 113.549C152.935 115.216 153.548 118.733 150.907 117.672C151.638 119.91 151.907 123.772 150.16 125.603C148.537 127.305 147.112 127.906 145.375 129.993C143.787 131.904 143.541 132.63 140.598 132.258C140.736 129.59 140.098 128.673 137.532 128.137C136.992 128.024 136.489 128.298 136.087 128.119C135.414 127.818 135.459 126.666 134.466 126.719C133.73 126.759 132.476 128.054 131.413 128.217C128.897 128.61 125.64 127.063 123.763 128.733C125.112 128.509 126.811 129.025 126.799 130.629C126.791 131.617 124.235 132.655 123.388 132.522C122.469 132.376 122.486 130.772 122.504 129.995C121.556 130.282 120.845 131.013 119.807 131.189C119.036 131.32 118.028 131.358 117.292 131.059C116.968 130.928 115.042 128.776 114.721 128.351C113.972 127.36 113.55 126.266 112.778 125.283C111.288 123.392 109.715 123.035 109.471 120.028C109.275 117.602 110.358 116.968 110.946 114.906C110.459 114.773 110.295 115.402 109.861 115.369C108.574 115.269 109.039 113.715 108.878 112.83C108.747 112.118 108.305 111.748 108.184 111.386C108.111 111.17 107.968 110.994 107.933 110.883V110.881ZM150.331 108.314C150.879 107.937 151.128 106.169 150.236 105.88C147.954 105.138 147.502 112.234 150.904 111.635C151.201 110.519 149.706 109.682 149.648 108.744C149.605 108.06 149.979 108.558 150.334 108.314H150.331ZM142.307 110.325C142.631 109.762 142.098 108.364 141.432 108.163C140.661 107.932 138.123 108.085 137.869 109.03C137.575 110.119 138.99 109.78 139.61 109.986C140.332 110.225 140.43 111.059 141.412 110.831C141.515 110.806 142.282 110.373 142.307 110.328V110.325ZM135.263 108.412C134.323 108.568 132.36 109.636 133.318 110.753C133.486 110.951 134.682 111.638 134.954 111.633C136.441 111.598 137.494 108.042 135.265 108.412H135.263ZM122.76 110.122C123.748 110.159 124.547 111.502 125.442 111.577C127.201 111.726 127.445 108.238 124.693 108.874C124.482 108.922 124.487 109.299 124.346 109.37C123.655 109.722 122.594 109.315 122.76 110.122ZM120.586 117.335C119.707 116.126 121.006 115.955 122.079 116.211C122.944 116.42 123.15 117.353 124.459 116.727C124.934 116.501 125.743 115.422 125.411 114.894C124.939 114.14 123.019 114.507 122.187 114.341C121.137 114.13 119.257 111.965 118.485 113.77C118 114.906 118.093 116.9 118.872 117.909C119.551 118.791 121.368 120.576 122.283 121.285C123.682 122.372 127.719 125.258 129.161 125.967C132.064 127.395 132.702 124.919 134.313 123.314C135.122 122.507 136.874 120.777 137.753 120.219C138.814 119.545 140.294 119.402 141.334 118.774C141.99 118.376 142.606 117.418 143.435 117.104C144.513 116.697 146.19 117.174 145.893 115.279C145.808 114.73 144.795 114.117 144.247 114.117C143.646 114.117 143.202 114.665 142.634 114.791C141.5 115.04 140.485 115.319 139.407 115.585C137.731 115.998 137.092 114.678 135.582 114.396C135.491 114.987 135.084 115.394 135.064 116.028C135.022 117.363 136.753 117.283 135.949 119.168C133.667 120.82 130.719 125.987 127.623 123.108C126.764 122.309 125.341 119.093 124.773 118.794C123.61 118.183 123.803 119.621 122.753 119.322C122.376 119.214 120.848 117.685 120.589 117.33L120.586 117.335ZM122.635 129.487V129.739C122.798 129.656 122.798 129.57 122.635 129.487Z" fill="#FAF6F9"/>
<path d="M103.764 168.105C103.799 168.173 104.085 168.244 104.231 168.525C105.065 170.165 104.02 174.567 101.969 174.937C99.6347 175.357 94.7116 174.532 92.3518 173.866C90.8289 173.436 87.7805 172.415 86.8305 171.344C83.9229 168.065 78.7434 160.145 78.7736 155.772C78.7786 154.9 78.9671 152.702 80.1633 152.846L86.9386 153.379C90.2508 153.2 93.5681 152.911 96.8904 153.228C97.7373 155.579 98.3304 158.312 99.3432 160.58C100.401 162.946 102.439 165.511 103.764 168.1V168.105Z" fill="#FAF6F9"/>
<path d="M134.572 199.135C134.795 200.903 135.843 201.267 136.793 199.726C137.592 198.431 136.949 197.931 137.065 196.744C137.165 195.701 137.437 194.66 137.613 193.631C140.055 193.299 142.541 194.177 144.976 193.832C146.484 193.619 146.901 191.952 148.494 192.1C151.384 192.366 148.255 196.445 148.132 197.765C147.997 199.201 149.379 198.524 149.045 199.892C148.932 200.355 146.697 203.762 146.305 204.086C145.737 204.554 141.97 205.527 141.608 205.17L141.86 203.664C141.146 204.181 137.977 203.51 137.839 203.661C137.603 203.915 138.537 204.742 136.71 204.921C134.996 205.089 132.219 205.036 130.606 204.488C130.086 204.312 127.583 202.892 127.357 202.585C127.13 202.278 126.924 200.636 126.656 200.644C126.384 201.37 126.595 202.359 125.879 202.887C125.278 203.329 122.079 204.473 121.192 204.737C120.471 204.953 118.435 205.735 117.978 204.996C117.794 204.702 117.646 203.44 117.769 203.078C117.935 202.587 120.712 201.672 119.996 200.9C119.863 200.754 118.257 202.039 117.593 202.14C116.362 202.326 113.889 201.755 113.04 200.822C112.494 200.224 112.477 198.32 111.828 198.132C111.223 197.956 111.549 198.391 111.574 198.64C111.635 199.231 111.685 200.586 111.936 200.983C112.288 201.536 116.025 202.668 116.196 202.939C116.618 203.613 115.658 204.664 114.857 204.687C114.56 204.694 109.67 203.208 109.446 203.032C108.393 202.195 109.162 201.003 109.137 200.02C109.061 196.983 106.262 196 106.928 192.852C107.119 192.663 111.587 193.292 112.263 193.425C114.165 193.8 116.638 195.029 118.355 195.13C120.071 195.23 122.23 194.265 124.145 194.114C126.477 193.93 131.079 193.45 133.202 193.599C134.969 193.722 134.506 193.91 134.572 195.369C134.627 196.568 134.428 198.001 134.572 199.14V199.135Z" fill="#FAF6F9"/>
<path d="M140.098 133.51C141.111 133.633 142.548 133.11 143.237 134.013C143.44 134.28 144.096 136.341 144.094 136.656C144.081 138.2 140.538 139.359 140.347 138.406C140.264 137.991 141.324 137.244 141.342 136.653C141.367 135.901 139.676 134.672 140.096 133.51H140.098Z" fill="#FAF6F9"/>
<path d="M121.209 136.985C120.559 137.367 118.588 136.077 118.345 135.28C117.48 132.469 121.657 132.215 123.258 133.651C122.926 134.109 121.38 136.887 121.212 136.985H121.209Z" fill="#FAF6F9"/>
<path d="M135.572 131.499C134.202 130.988 132.473 130.991 131.146 130.518C130.9 130.43 130.679 130.619 130.817 130.131C131.184 128.818 133.554 127.368 134.896 127.77C135.841 128.054 135.984 130.639 135.572 131.496V131.499Z" fill="#FAF6F9"/>
<path d="M139.53 129.807C140.053 130.226 140.178 131.841 140.1 132.507C138.515 132.454 135.039 133.098 136.474 130.513C137.014 129.54 138.688 129.133 139.527 129.809L139.53 129.807Z" fill="#FAF6F9"/>
<path d="M129.48 129.301C130.453 130.254 129.111 130.591 128.161 130.513C126.077 130.342 128.442 128.283 129.48 129.301Z" fill="#FAF6F9"/>
<path d="M138.288 117.72C139.457 117.63 139.095 118.736 138.482 119.198C137.354 120.046 135.539 117.934 138.288 117.72Z" fill="#FAF6F9"/>
<path d="M144.516 143.555C144.305 142.781 141.618 140.9 140.93 140.84C140.508 140.802 140.176 141.551 139.621 141.591C139.43 141.833 139.236 142.097 139.01 142.409C138.678 142.866 137.66 143.842 136.851 144.506C136.582 144.727 136.22 145.006 135.853 145.28C135.994 145.594 135.416 145.619 135.203 145.823C134.68 146.321 133.8 147.465 133.179 147.583C129.488 148.292 123.167 145.785 121.881 142.052C121.139 139.902 122.293 138.521 119.124 139.054C118.217 139.208 117.199 140.518 117.495 141.395C117.865 142.494 121.154 141.355 121.001 142.919C120.838 144.578 117.199 145.144 118.239 147.955C118.624 148.991 120.39 150.47 121.584 150.065C122.026 149.914 123.426 146.613 124.137 146.587C125.153 146.552 123.451 148.798 123.373 149.089C122.461 152.474 128.759 151.762 129.043 148.845C130.551 149.434 130.362 151.247 132.637 150.555C133.74 150.218 132.999 148.244 134.313 148.091C134.964 149.165 134.908 151.86 136.394 151.566C136.834 151.48 140.143 149.305 140.297 149.046C140.854 148.099 138.889 146.655 140.083 145.436C140.912 144.785 141.958 147.364 143.508 146.349C144.061 145.987 144.677 144.151 144.514 143.555H144.516Z" fill="#FAF6F9"/>
<path d="M33.6663 88.8752H115.992C115.774 89.0688 115.512 89.3152 115.181 89.6346C114.037 90.7333 113.962 90.8666 113.809 91.1306C112.987 92.5387 113.246 93.8411 113.401 94.6206C113.437 94.794 113.487 95.0581 113.484 95.1159C113.464 95.224 113.356 95.5257 113.283 95.7244C113.12 96.1795 112.916 96.7477 112.821 97.3713C112.738 97.9194 112.733 98.465 112.728 98.9905C112.725 99.1238 112.725 99.2847 112.72 99.4506C112.306 99.3023 111.803 99.1766 111.213 99.1766C110.122 99.1766 109.087 99.609 108.137 100.461C106.991 101.492 105.375 104.62 105.03 105.611C104.706 106.536 104.593 107.326 104.51 107.901C104.503 107.949 104.495 107.999 104.488 108.052C104.364 108.075 104.201 108.1 103.995 108.123C103.734 108.15 103.467 108.165 103.201 108.165C101.836 108.165 100.545 107.781 99.1749 107.376C97.6545 106.926 95.9305 106.415 93.9628 106.415C91.995 106.415 90.0725 106.921 88.0947 107.964C84.9735 109.606 80.1207 115.832 80.0729 115.895C79.9649 116.035 79.8618 116.179 79.7563 116.325C79.7085 116.39 79.6633 116.455 79.6156 116.518L78.0122 116.279L78.0172 116.611H35.3199C34.2593 107.786 33.714 98.5857 33.6663 88.8752Z" fill="#4F267A"/>
<path d="M222.336 88.8752C222.288 98.5857 221.743 107.786 220.683 116.611H182.36C182.315 116.418 182.267 116.221 182.217 116.028C182.172 115.854 182.112 115.678 182.049 115.492C182.031 115.296 181.994 115.072 181.908 114.834C180.071 109.594 174.869 106.167 168.654 106.104H168.544C167.071 106.104 165.749 106.398 164.47 106.682C163.397 106.921 162.384 107.147 161.439 107.147C161.308 107.147 161.18 107.142 161.057 107.135C160.386 107.042 157.27 106.292 155.669 105.84C155.634 105.684 155.599 105.53 155.571 105.405C155.43 104.766 155.3 104.163 155.106 103.677C153.932 100.725 151.832 100.285 150.683 100.285C149.994 100.285 149.381 100.429 148.856 100.58C148.766 100.2 148.698 99.8127 148.69 99.594C148.728 99.1615 149.253 98.5002 149.675 97.9672C150.394 97.0595 151.291 95.933 151.133 94.4119C150.995 93.1069 150.123 92.3124 149.653 91.8849L149.64 91.8724C149.567 91.2966 149.369 90.1576 148.301 89.3102L147.75 88.8752H222.336Z" fill="#4F267A"/>
<path d="M75.597 158.702C76.0695 161.281 78.7635 167.784 80.8745 171.419H50.4988C46.405 162.659 43.0525 153.391 40.4666 143.683H73.5137C73.5137 143.739 73.5162 143.791 73.5162 143.847C73.5212 144.176 73.5287 144.49 73.5237 144.785C73.5162 145.305 73.4885 145.788 73.4634 146.256C73.4006 147.407 73.3352 148.599 73.5438 150.18C73.5539 150.256 73.5664 150.377 73.5815 150.522C73.7172 151.91 73.8001 152.748 74.4561 153.484C74.7199 153.779 75.0089 153.975 75.2904 154.11C75.3457 154.784 75.3834 155.637 75.4085 156.192C75.4613 157.389 75.499 158.151 75.597 158.702Z" fill="#4F267A"/>
<path d="M215.536 143.683C212.952 153.391 209.597 162.659 205.504 171.419H182.66C183.027 170.567 184.007 168.9 184.627 167.841C185.474 166.398 186.273 165.035 186.681 164.045C188.777 158.933 188.43 155.943 188.06 152.775C187.874 151.171 187.681 149.512 187.814 147.354C187.829 147.093 187.925 146.766 188.025 146.419C188.141 146.017 188.274 145.562 188.322 145.064C188.322 145.049 188.369 144.473 188.372 143.683H215.536Z" fill="#4F267A"/>
<path d="M106.179 208.959C106.317 209.235 106.43 209.469 106.526 209.675C105.917 209.839 105.347 210.047 104.812 210.244C104.495 210.359 104.156 210.485 103.849 210.581C103.54 210.676 103.264 210.741 103.068 210.741C102.158 210.729 101.251 210.301 100.203 209.806C98.8507 209.17 97.3177 208.446 95.3977 208.446C94.973 208.446 94.5458 208.484 94.1261 208.554C91.1908 209.059 86.3355 213.077 85.6972 216.16C85.2926 218.106 85.7952 219.76 86.5818 221.163C79.4195 214.42 72.7523 206.844 66.6304 198.491H105.485C105.588 198.597 105.669 198.693 105.706 198.75C106.081 199.321 106.008 199.822 105.543 201.373C105.239 202.381 104.895 203.525 104.917 204.835C104.947 206.51 105.631 207.868 106.179 208.959Z" fill="#4F267A"/>
<path d="M189.369 198.491C183.552 206.432 177.241 213.668 170.479 220.158C170.556 218.642 170.066 216.618 169.162 214.717C168.363 213.042 166.965 210.892 164.832 210.168C163.892 209.849 162.701 209.688 161.288 209.688C159.876 209.688 158.283 209.864 157.089 210.156C156.4 210.327 155.727 210.631 155.076 210.925C154.747 211.076 154.226 211.31 153.945 211.398C153.191 211.217 151.439 210.558 149.866 209.887C150.487 208.672 150.557 207.083 150.613 205.871C150.625 205.569 150.643 205.157 150.663 205.031C150.801 204.232 151.072 203.45 151.359 202.625C151.771 201.438 152.239 200.096 152.374 198.491H189.369Z" fill="#4F267A"/>
<path d="M63.3533 50.6091H70.2819L66.8163 42.7417L63.3533 50.6091Z" fill="#4F267A"/>
<path d="M52.2931 45.065C52.2931 43.5865 51.308 42.1081 49.094 42.1081H43.7361V48.0218H49.094C51.3331 48.0218 52.2931 46.5434 52.2931 45.065Z" fill="#4F267A"/>
<path d="M213.183 44.3006C213.183 43.4558 212.49 42.0301 210.251 42.0301H204.868V46.2794H210.251C212.462 46.2794 213.183 45.3566 213.183 44.3006Z" fill="#4F267A"/>
<path d="M220.389 34.0671H35.6138C34.4151 34.9648 33.6611 36.3929 33.6611 37.9518V61.8031H222.341V37.9518C222.341 36.3929 221.587 34.9648 220.389 34.0671ZM73.2674 57.3401L71.6942 53.8552H61.9409L60.3426 57.3401H52.5596L47.1237 51.1623H43.7386V57.3401H40.2203V38.8344C43.1782 38.8344 46.1361 38.8595 49.094 38.8595C53.4919 38.8846 55.809 41.7887 55.809 44.9845C55.809 47.519 54.6354 50.0786 51.0919 50.7927L56.671 57.0233L64.8963 38.8595H68.7338L77.1024 57.3401H73.2649H73.2674ZM87.205 57.7625C80.2764 57.7625 77.3436 53.038 77.3185 48.2331C77.2908 43.403 80.4624 38.4924 87.205 38.4924C89.7357 38.4924 92.1356 39.4428 94.0531 41.316L91.7084 43.5588C90.482 42.3696 88.8309 41.8164 87.205 41.8164C82.7015 41.8164 80.7564 45.1429 80.7815 48.2305C80.8092 51.293 82.5935 54.4863 87.205 54.4863C88.8309 54.4863 90.6705 53.8275 91.8944 52.6106L94.2919 55.0118C92.3719 56.885 89.894 57.7575 87.2025 57.7575L87.205 57.7625ZM100.077 57.3401H96.5863V38.8595H100.077V57.3401ZM119.425 57.3401H117.239V57.3652L107.43 44.8789V57.3401H103.912V38.8595H106.764L115.904 50.3175V38.8344H119.423V57.3401H119.425ZM139.467 54.436C137.628 56.5204 135.31 57.7625 132.031 57.7625C125.022 57.7625 122.17 53.1964 122.17 48.3387C122.17 43.1389 125.447 38.334 132.031 38.334C134.536 38.334 137.042 39.2844 138.959 41.1576L136.773 43.3753C135.522 42.1885 133.654 41.5272 132.028 41.5272C128.03 41.5272 125.605 44.5369 125.605 48.3387C125.605 51.3735 127.392 54.5164 132.028 54.5164C133.494 54.5164 134.773 54.1996 136.24 53.038V49.7643H131.47V46.649H139.467V54.436ZM157.617 57.7625C150.688 57.7625 147.755 53.038 147.73 48.2331C147.703 43.403 150.874 38.4924 157.617 38.4924C160.15 38.4924 162.547 39.4428 164.465 41.316L162.12 43.5588C160.894 42.3696 159.243 41.8164 157.617 41.8164C153.113 41.8164 151.168 45.1429 151.193 48.2305C151.221 51.293 153.005 54.4863 157.617 54.4863C159.243 54.4863 161.082 53.8275 162.309 52.6106L164.706 55.0118C162.786 56.885 160.308 57.7575 157.617 57.7575V57.7625ZM179.79 57.3401H166.676V38.8595H170.195V54.1192H179.79V57.3401ZM197.806 49.4726C197.806 54.9363 194.421 57.7348 189.731 57.7348C185.042 57.7348 181.443 55.0419 181.443 49.4726V38.8872H184.934V49.4726C184.934 52.7991 186.854 54.5667 189.757 54.5667C192.659 54.5667 194.313 52.6382 194.313 49.4726V38.8872H197.803V49.4726H197.806ZM210.253 57.3401H201.405V38.8595H210.253C213.93 38.8595 216.677 40.4964 216.677 44.2176C216.677 45.6433 215.983 47.0161 214.252 47.7805C216.438 48.4392 217.237 50.7374 217.237 51.899C217.237 56.0175 214.118 57.3376 210.256 57.3376L210.253 57.3401Z" fill="#4F267A"/>
<path d="M210.253 49.3419H204.87V54.094H210.253C211.693 54.094 213.744 53.6188 213.744 51.8764C213.744 50.1339 211.691 49.3419 210.253 49.3419Z" fill="#4F267A"/>
<path d="M47.1816 71.4029C46.7317 70.548 45.4903 69.7359 44.0603 69.7359C42.2182 69.7359 41.3336 70.6134 41.3336 71.7248C41.3336 73.0297 42.6882 73.3918 44.2664 73.6055C47.0107 73.9902 49.5665 74.8023 49.5665 78.3727C49.5665 81.7068 46.973 83.14 44.0402 83.14C41.3512 83.14 39.2855 82.1996 38.3079 79.464L40.3761 78.2445C40.9592 79.8914 42.4821 80.6181 44.0804 80.6181C45.6787 80.6181 47.1062 79.997 47.1062 78.3727C47.1062 76.9622 45.8094 76.3839 44.0603 76.1702C41.3713 75.8081 38.8909 74.9934 38.8909 71.6393C38.8909 68.5617 41.5598 67.2995 43.9849 67.2794C46.0331 67.2794 48.1592 67.9432 49.1543 70.2513L47.1816 71.4054V71.4029Z" fill="#4F267A"/>
<path d="M60.7146 79.9316H53.8337L52.7054 82.7528H50.0164L55.9196 67.7923H58.6262L64.5294 82.7528H61.8228L60.7146 79.9316ZM57.2767 70.9327L54.8339 77.3016H59.7219L57.2792 70.9327H57.2767Z" fill="#4F267A"/>
<path d="M65.3586 82.7528V67.7923H67.8215V82.7528H65.3586Z" fill="#4F267A"/>
<path d="M78.6856 67.7697H81.166V82.7528H79.6255V82.7729L72.707 72.6626V82.7502H70.2266V67.7898H72.237L78.6856 77.0653V67.7672V67.7697Z" fill="#4F267A"/>
<path d="M86.7325 70.3544H82.5608V67.7898H93.3872V70.3544H89.2129V82.7502H86.7325V70.3544Z" fill="#4F267A"/>
<path d="M94.5129 74.5861H101.449V76.9798H94.5129V74.5861Z" fill="#4F267A"/>
<path d="M116.168 75.0789C116.186 76.7887 115.791 78.5638 114.947 79.9518L116.508 81.7043L114.759 83.6931L113.16 81.8979C112.165 82.6245 110.903 83.0092 109.418 83.0092C104.739 83.0092 102.671 79.1396 102.65 75.2499C102.633 71.3376 104.794 67.4277 109.418 67.4277C114.042 67.4277 116.111 71.232 116.166 75.0789H116.168ZM105.096 75.3128C105.133 77.7718 106.561 80.3993 109.418 80.3993C112.276 80.3993 113.816 77.5556 113.723 74.9909C113.63 72.5746 112.519 69.9672 109.418 69.9672C106.317 69.9672 105.058 72.7883 105.096 75.3102V75.3128Z" fill="#4F267A"/>
<path d="M129.402 67.8124V76.3839C129.402 80.8092 127.015 83.0746 123.708 83.0746C120.4 83.0746 117.862 80.8946 117.862 76.3839V67.8124H120.325V76.3839C120.325 79.0768 121.679 80.5099 123.728 80.5099C125.776 80.5099 126.942 78.9485 126.942 76.3839V67.8124H129.405H129.402Z" fill="#4F267A"/>
<path d="M141.528 82.7528H131.679V67.7923H141.528V70.5279H134.14V73.9701H141.264V76.6001H134.14V79.9769H141.528V82.7553V82.7528Z" fill="#4F267A"/>
<path d="M152.374 67.7697H154.855V82.7528H153.314V82.7729L146.396 72.6626V82.7502H143.915V67.7898H145.926L152.374 77.0653V67.7672V67.7697Z" fill="#4F267A"/>
<path d="M160.419 70.3544H156.247V67.7898H167.073V70.3544H162.899V82.7502H160.419V70.3544Z" fill="#4F267A"/>
<path d="M168.483 82.7528V67.7923H170.946V82.7528H168.483Z" fill="#4F267A"/>
<path d="M181.81 67.7697H184.291V82.7528H182.75V82.7729L175.831 72.6626V82.7502H173.351V67.7898H175.362L181.81 77.0653V67.7672V67.7697Z" fill="#4F267A"/>
<path d="M199.575 75.3555C199.537 79.2251 197.452 83.0922 192.828 83.0922C188.203 83.0922 186.06 79.3081 186.06 75.3756C186.06 71.4431 188.279 67.4881 192.828 67.4881C197.376 67.4881 199.613 71.4431 199.575 75.353V75.3555ZM188.503 75.4209C188.558 77.8799 189.724 80.5074 192.825 80.5074C195.926 80.5074 197.092 77.8573 197.13 75.3982C197.168 72.8763 195.926 70.0552 192.825 70.0552C189.724 70.0552 188.445 72.899 188.503 75.4209Z" fill="#4F267A"/>
<path d="M201.304 82.7528V67.7923H203.767V82.7528H201.304Z" fill="#4F267A"/>
<path d="M214.48 71.4029C214.028 70.548 212.789 69.7359 211.359 69.7359C209.517 69.7359 208.632 70.6134 208.632 71.7248C208.632 73.0297 209.987 73.3918 211.565 73.6055C214.31 73.9902 216.865 74.8023 216.865 78.3727C216.865 81.7068 214.272 83.14 211.339 83.14C208.65 83.14 206.584 82.1996 205.607 79.464L207.675 78.2445C208.258 79.8914 209.781 80.6181 211.379 80.6181C212.978 80.6181 214.405 79.997 214.405 78.3727C214.405 76.9622 213.108 76.3839 211.359 76.1702C208.67 75.8081 206.19 74.9934 206.19 71.6393C206.19 68.5617 208.859 67.2995 211.284 67.2794C213.332 67.2794 215.455 67.9432 216.453 70.2513L214.48 71.4054V71.4029Z" fill="#4F267A"/>
<path d="M107.903 26.5391C106.782 27.6731 105.196 28.3243 103.59 28.3243C101.733 28.3243 100.786 27.301 100.786 26.1846C100.786 26.0161 100.823 25.9055 100.901 25.7949C101.132 25.4982 102.429 24.7162 102.836 24.7162C103.088 24.7162 103.166 24.8268 103.166 25.0883C103.166 25.3121 102.972 26.074 102.972 26.3908C102.972 27.0973 103.437 27.6002 104.075 27.6002C105.41 27.6002 106.551 25.9432 106.995 22.5941C107.345 19.9339 107.79 18.7597 108.833 17.7942C109.491 17.1806 110.459 16.7155 111.114 16.7155C111.288 16.7155 111.403 16.7909 111.657 17.0499C110.574 17.8872 110.401 18.3699 109.973 21.4048L109.916 21.8523C109.586 24.0474 109.006 25.463 107.905 26.5416L107.903 26.5391ZM114.15 26.9112C114.693 26.9112 115.369 26.4461 116.394 25.3473L116.683 25.0305V26.0538C115.098 27.6907 114.015 28.3243 112.816 28.3243C111.539 28.3243 110.687 27.487 110.687 26.167C110.687 25.3473 111.248 23.8588 111.248 22.9838C111.248 22.3703 111.074 22.0912 110.647 22.0711C110.358 22.0535 110.28 21.9781 110.28 21.7543C110.28 21.3822 110.453 21.1961 110.745 21.1961C110.765 21.1961 110.841 21.2338 111.363 21.2338C112.62 21.2338 113.374 19.9314 113.374 18.2744C113.374 16.3761 112.233 15.3904 110.009 15.3904C107.166 15.3904 104.535 17.158 104.535 19.0187C104.535 19.5391 104.786 19.9314 105.329 20.2105C105.618 20.3412 105.716 20.472 105.716 20.6756C105.716 20.8064 105.638 20.8793 105.349 21.0301C104.905 21.2916 104.188 21.533 103.957 21.533C103.357 21.533 102.816 20.6957 102.816 19.7654C102.816 16.9192 106.201 14.6864 110.418 14.6864C112.411 14.6864 113.977 15.1893 115.002 16.1573C115.64 16.7532 116.048 17.6458 116.048 18.4655C116.048 20.1401 114.829 21.181 112.024 21.8523C113.223 22.5212 113.688 23.1925 113.688 24.3089C113.688 24.8671 113.474 25.7043 113.474 26.0941C113.474 26.5969 113.726 26.9138 114.15 26.9138V26.9112Z" fill="#4F267A"/>
<path d="M125.675 20.1375L125.655 20.2306C125.617 20.3236 125.56 20.4921 125.499 20.7133C124.899 22.4633 124.358 24.2309 124.202 24.8997C124.125 25.3096 124.067 25.5334 124.067 25.7194C124.067 26.2776 124.318 26.612 124.705 26.612C125.15 26.612 125.673 26.2575 126.62 25.3473C126.814 25.1788 126.871 25.1059 126.987 24.9928V26.0538C125.188 27.7284 124.182 28.3243 123.293 28.3243C122.81 28.3243 122.345 28.1005 122.074 27.6907C121.785 27.2809 121.687 26.9087 121.687 26.1469C120.197 27.7108 119.154 28.3419 118.088 28.3419C117.083 28.3419 116.462 27.5222 116.462 26.1645C116.462 24.8067 116.887 23.0567 117.817 20.6555L120.428 20.1526L119.402 23.278C119.247 23.6501 119.093 24.339 118.958 24.8972C118.86 25.4177 118.802 25.6968 118.802 25.9382C118.802 26.4964 119.073 26.8308 119.518 26.8308C119.885 26.8308 120.388 26.4964 120.91 25.9181C121.317 25.4353 121.627 24.9878 121.722 24.6533L122.999 20.653L125.668 20.1325L125.675 20.1375Z" fill="#4F267A"/>
<path d="M135.036 20.0445H135.25C135.019 20.7712 134.825 21.4576 134.67 22.222L133.742 26.949C134.652 26.5944 135.406 26.0564 136.451 24.9953V26.0564C135.464 26.9314 134.71 27.3764 133.491 27.8064C132.446 30.9518 130.686 32.8477 128.771 32.8477C127.746 32.8477 127.07 32.1964 127.07 31.1907C127.07 30.1849 127.804 29.2923 129.352 28.5481C129.855 28.3067 130.242 28.1584 131.169 27.8416L131.594 25.9985C130.259 27.4493 129.465 27.9698 128.595 27.9698C127.512 27.9698 126.738 26.8911 126.738 25.3272C126.738 22.76 129.194 20.0244 131.496 20.0244C132.154 20.0244 132.657 20.2658 133.179 20.8064C133.702 20.6203 134.069 20.472 134.805 20.1551L135.036 20.0445ZM128.751 32.1386C129.661 32.1386 130.299 31.153 130.975 28.6587C128.809 29.403 127.804 30.2025 127.804 31.1882C127.804 31.7464 128.191 32.1361 128.751 32.1361V32.1386ZM129.138 24.8645C129.138 25.7194 129.525 26.26 130.164 26.26C130.958 26.26 131.596 25.4982 132.079 23.9518C132.368 23.0592 132.523 22.2773 132.523 21.7945C132.523 21.1986 132.174 20.7536 131.712 20.7536C131.111 20.7536 130.591 21.088 130.086 21.7945C129.525 22.6142 129.138 23.8588 129.138 24.8645Z" fill="#4F267A"/>
<path d="M143.393 20.1375C143.837 20.1375 144.167 20.5474 144.167 21.1986C144.167 22.1666 143.528 23.6929 142.367 25.4227C142.717 25.8502 143.121 26.0362 143.586 26.0362C144.146 26.0362 144.631 25.7396 145.134 25.0883C145.159 25.0515 145.185 25.0204 145.212 24.9953V26.0564C144.787 26.5039 144.207 26.7453 143.568 26.7453C143.008 26.7453 142.601 26.5768 141.942 26.0564C140.377 27.7686 139.487 28.3092 138.326 28.3092C137.165 28.3092 136.316 27.3035 136.316 25.9633C136.316 24.8294 136.665 23.1548 137.205 21.5531C137.592 20.4745 137.959 19.431 138.386 18.4077C138.831 17.3089 139.16 16.6954 139.857 15.5991C141.075 15.2094 142.139 14.9102 143.106 14.7241C143.164 14.7065 143.222 14.7065 143.262 14.7065C143.649 14.7065 143.996 15.2647 143.996 15.9335C143.996 16.5671 143.764 17.1605 143.32 17.9425C142.739 19.0036 141.772 20.2306 140.709 21.2363L139.412 22.4633C138.967 23.972 138.811 24.8092 138.811 25.4957C138.811 26.1821 139.178 26.6674 139.739 26.6674C140.299 26.6674 140.744 26.3883 141.46 25.4755C141.111 24.8998 140.977 24.3592 140.977 23.8186C140.977 21.9957 142.196 20.135 143.395 20.135L143.393 20.1375ZM143.101 16.3233C143.101 15.9687 142.945 15.7274 142.694 15.7274C142.211 15.7274 141.648 16.454 140.972 17.9777C140.606 18.7974 140.412 19.3556 139.889 21.01C140.952 20.0244 141.515 19.3732 142.191 18.385C142.792 17.4924 143.101 16.8035 143.101 16.3207V16.3233Z" fill="#4F267A"/>
<path d="M146.544 20.6027L149.406 20.1375L148.167 22.9285C147.974 23.3936 147.743 24.0449 147.587 24.6206C147.413 25.2342 147.315 25.6264 147.315 25.9784C147.315 26.519 147.547 26.8157 147.934 26.8157C148.745 26.8157 149.944 25.4026 150.623 23.5596L151.743 20.6002L154.412 20.135L154.083 21.01C154.025 21.2137 153.91 21.5305 153.754 21.9781C153.503 22.6846 153.231 23.4666 152.96 24.2862L151.857 27.5046C153.598 26.6849 154.352 26.1846 155.493 24.9928V26.0538C154.546 26.9464 153.52 27.5423 151.568 28.4173C151.045 29.7952 150.62 30.5948 150.097 31.2837C149.245 32.3624 148.203 32.9583 147.137 32.9583C146.305 32.9583 145.765 32.4378 145.765 31.6181C145.765 31.0222 146.074 30.3911 146.634 29.8505C147.351 29.1993 147.949 28.8272 149.283 28.2489L149.884 26.2399C148.607 27.6178 147.622 28.2112 146.634 28.2112C145.647 28.2112 144.971 27.3739 144.971 26.0538C144.971 25.1788 145.222 23.9518 145.589 23.0014L146.536 20.6002L146.544 20.6027ZM147.067 32.2517C147.763 32.2517 148.459 31.1907 149.019 29.1817C147.454 29.8505 146.506 30.7632 146.506 31.6181C146.506 31.9903 146.737 32.2517 147.067 32.2517Z" fill="#4F267A"/>
</svg>
