<svg width="256" height="256" viewBox="0 0 256 256" fill="none" xmlns="http://www.w3.org/2000/svg">
<path d="M33.2363 130.779C34.5315 126.816 36.3478 122.725 38.1628 118.945C44.0629 106.664 52.3786 93.4896 61.8488 83.6675C62.4298 83.0655 65.2869 79.9982 65.8862 80.1255C66.4892 80.884 66.3767 82.0684 66.6739 83.0141C67.0958 84.3599 69.9199 90.7416 70.9008 91.2665C71.2738 91.4659 71.8157 91.3644 71.8854 91.0108C71.9209 90.8297 70.5266 88.5027 70.3003 87.9509C67.3674 80.7984 67.3894 72.1851 76.286 70.0929C77.0749 69.3625 72.947 69.0407 72.6767 68.8132C72.1606 68.3764 72.1349 66.2047 73.2247 66.1839C74.2447 66.1643 75.5571 68.2565 76.7752 68.1366C77.0578 67.1835 76.1074 66.6048 75.9069 65.949C75.7552 65.451 75.1106 63.0041 75.0813 62.5954C74.8379 59.204 77.4455 56.708 80.3796 55.7134C82.712 54.923 84.6151 54.6465 86.8852 53.1673C87.608 52.6963 91.967 48.715 92.186 48.1914C92.389 47.7032 91.8508 47.8292 91.5708 47.8195C89.6114 47.7424 86.5586 50.2725 84.1137 49.5397C84.1553 49.2558 84.0195 48.8117 84.1504 48.5964C84.291 48.3664 88.6513 46.7465 89.1931 46.6682C91.276 46.3672 93.1803 46.9483 95.2143 46.8174C97.055 46.6987 100.224 45.7542 101.857 44.9002C102.412 44.609 106.575 41.8954 105.884 41.2237L96.2625 41.1882C94.9844 40.782 97.5577 39.4839 98.0396 39.3689C101.507 38.5455 104.493 39.1291 107.648 40.3073C108.957 40.7967 110.937 41.4072 112.379 41.4745C113.171 41.5112 116.404 40.8615 116.617 40.0846C116.928 38.9455 115.304 39.3787 114.635 39.1988C112.531 38.6348 110.444 37.3991 108.333 36.8142C108.156 36.2368 108.772 36.1597 109.207 36.1083C118.455 35.0206 125.625 41.1552 135.239 38.4072C136.557 38.0304 138.172 37.1434 138.172 35.5932C136.988 36.3958 135.302 36.4019 133.883 36.3371C128.783 36.1022 124.966 34.0259 120.613 32.1919C120.311 32.0647 118.418 31.8763 119.678 31.4065C121.465 30.7397 124.826 31.5007 126.672 32.05C130.283 33.1242 132.183 35.1821 136.329 34.3599C136.813 34.2645 137.04 33.8913 137.427 33.7445C138.341 33.3995 138.876 34.1519 138.664 32.6581C137.966 32.7107 134.764 32.2629 134.359 31.9472C133.838 31.541 133.651 30.6601 134.629 30.6907C136.12 30.7372 138.718 31.0015 140.195 31.2474C143.335 31.7686 147.38 33.9452 150.464 33.5732C151.45 33.4546 153.927 32.3387 154.647 32.882C154.876 33.0545 156.665 37.2645 157.126 38.0463C159.232 41.6299 160.404 41.97 163.699 43.9508C165.265 44.8917 166.297 50.1563 166.826 50.4879C167.065 50.6371 167.685 50.472 168.016 50.5209C168.665 49.8884 165.501 45.627 165.567 44.5283C165.584 44.2971 168.251 44.6873 168.014 43.5507C167.913 43.0613 166.156 43.4663 165.506 43.366C164.172 43.1592 162.346 42.3126 161.294 41.4622C158.473 39.1829 152.514 27.0142 151.131 23.2446C150.108 20.4563 148.248 13.502 153.664 17.285C156.512 19.2756 157.011 21.5684 158.666 24.2711C160.343 27.0093 163.218 29.5064 164.687 31.9509C165.236 32.8648 166.545 37.0381 166.775 37.2021C167.316 37.5875 168.069 37.2963 167.977 36.5108C167.92 36.0214 166.685 33.3506 166.371 32.7229C166.182 32.3436 165.426 32.0109 165.57 31.1887L171.073 34.6156C174.664 40.2118 184.168 47.806 190.892 48.326C193.134 48.4997 194.846 46.147 196.761 47.8256C198.706 55.8443 203.912 63.2341 208.872 69.7234C210.857 72.3209 212.941 73.033 212.278 77.057C212.171 77.714 211.586 78.1043 211.548 78.5545C211.507 79.0525 212.16 79.7829 212.27 80.517C212.791 84.0039 210.827 87.2877 207.534 88.4598C204.723 89.4606 201.446 85.6617 199.814 83.6785C199.348 83.112 198.399 80.933 197.496 81.1079C197.155 81.174 197.142 81.5557 197.226 81.8579C197.501 82.8428 200.629 86.2796 201.524 87.1067C201.924 87.4762 204.909 89.1927 203.113 89.1915C199.906 89.189 197.561 85.8147 195.939 83.3946C195.467 82.6899 195.335 81.3074 194.306 81.1128C193.584 80.9758 192.831 81.2095 191.979 80.9941C191.183 80.7935 186.282 78.1018 186.13 77.5415C186.026 77.1573 186.739 76.6961 186.605 76.2165C185.313 75.8384 184.617 77.008 183.532 77.1781C177.139 78.1765 171.415 73.9689 168.969 68.3299C167.708 65.4229 166.638 61.3597 165.775 58.0245C165.439 56.7325 164.445 50.861 163.972 50.2848C162.606 48.6221 163.316 52.6192 163.435 53.2688C163.627 54.3186 164.673 55.383 163.492 56.155C157.405 59.2321 151.306 62.3581 145.678 66.228C143.669 67.6093 141.478 70.0269 138.975 70.5334C138.067 70.7169 135.721 70.1015 136.237 71.6639C136.58 72.7014 139.839 71.4975 140.592 71.172C142.793 70.2189 144.268 68.5024 146.169 67.208C150.366 64.3487 155.175 61.5322 159.695 59.2052C160.404 58.8394 164.202 56.8231 164.581 57.1412C165.156 60.0274 165.72 63.1558 166.677 65.9343C166.831 66.3797 167.582 67.4894 167.527 67.7683C167.398 68.4229 163.598 68.0766 162.761 68.1464C150.465 69.1729 138.845 73.5713 133.323 85.4342C132.747 86.6699 133.156 86.9464 134.146 86.0129C135.033 85.176 136.181 82.5969 137.094 81.3759C138.182 79.9224 141.947 75.8347 143.543 75.3502C145.294 74.818 149.049 77.1463 150.289 78.4102C151.836 79.9872 152.847 82.187 152.87 84.4138C152.877 85.0781 152.214 86.6821 152.832 87.1226C153.119 87.3281 153.746 87.3098 153.963 86.9941C154.35 86.435 153.656 84.935 154.432 85.0292C155.083 85.1075 155.876 85.6226 156.483 85.9174C162.859 89.0214 170.734 95.2024 175.235 100.682C175.452 100.945 176.132 101.762 176.089 102.026L170.804 103.109C165.558 103.539 160.202 104.371 154.927 104.598C154.416 104.62 153.742 104.692 153.266 104.551C152.821 104.419 151.2 102.804 151.873 102.281C152.206 102.023 154.164 101.95 154.645 102C155.871 102.125 158.565 103.585 158.475 101.669C158.1 101.402 156.88 101.643 156.802 101.612C156.654 101.554 154.806 99.6278 154.566 99.3366C152.617 96.9655 151.73 94.1368 150.165 91.7498C149.961 91.4402 149.979 91.0242 149.425 91.1466C149.004 92.3701 149.999 93.0907 150.145 93.9716C150.545 96.3978 148.118 102.843 146.596 104.834C145.32 106.503 143.22 105.949 141.582 106.425C140.643 106.698 138.417 107.724 137.601 108.316C136.122 109.387 134.877 111.011 134.992 112.922C136.319 113.087 136.151 111.745 136.604 110.989C137.637 109.271 139.642 108.296 141.547 107.858C151.728 105.515 163.058 105.537 173.456 103.807C178.815 102.915 181.631 101.194 187.089 103.507C189.592 104.568 195.328 108.949 196.261 111.461C197.084 113.677 197.181 115.067 198.488 117.308C200.496 120.751 204.014 125.733 206.567 128.803C208.823 131.517 210.337 132.006 211.197 135.916C212.851 143.436 208.652 148.155 202.012 142.658C201.332 142.095 198.336 139.072 198.153 138.441C197.782 137.172 198.891 135.568 198.842 134.103C198.824 133.594 198.576 132.575 198.42 132.059C197.515 129.077 190.623 121.08 188.075 118.916C185.301 116.56 179.911 113.985 176.275 115.632C176.083 115.719 176.04 116.026 175.902 116.095C167.477 120.283 158.627 124.553 149.658 127.474C146.09 128.637 141.57 130.024 137.797 129.57C136.339 129.394 132.048 126.17 130.822 125.047C130.422 124.68 129.921 123.574 129.451 123.484C129.08 123.415 127.773 124.529 127.16 124.79C125.221 125.613 121.318 125.596 119.262 125.153C119.079 125.114 119.073 124.738 118.902 124.69C112.516 122.863 106.467 117.981 101.475 113.54C100.853 112.986 98.0102 109.573 97.3216 110.234C97.0893 110.458 97.51 110.995 97.6763 111.223C99.8595 114.204 107.751 120.307 111.04 122.325C115.218 124.888 120.523 127.412 125.559 126.613C126.552 126.455 127.689 125.463 128.553 125.202C128.906 125.096 129.218 125.026 129.118 125.523C127.117 127.277 126.071 131.187 123.675 132.314C123.407 132.44 120.582 133.401 120.38 133.428C119.195 133.584 115.181 131.435 113.625 130.994C101.969 127.702 90.9568 130.447 83.4165 140.003C82.7096 140.898 82.7671 142.019 81.2859 142.275C78.2429 142.8 78.8153 141.021 77.9408 139.041C76.0683 134.803 72.6877 132.262 68.2235 131.143C59.9078 130.857 51.5763 131.146 43.2606 131.033C42.7396 131.026 33.6913 131.008 33.1396 130.998L33.2314 130.789L33.2363 130.779ZM147.227 39.9965C151.734 40.2791 158.02 41.9614 161.054 45.6184C161.762 46.4724 162.099 48.1461 163.37 48.0703C163.391 47.6506 163.387 47.2285 163.266 46.8211C163.024 46.005 160.147 43.317 159.33 42.6931C158.703 42.2147 157.63 41.5075 156.932 41.1772C155.679 40.5838 154.027 40.0993 152.853 39.7518C152.739 39.7176 152.597 39.5512 152.364 39.5071C152.048 39.4472 151.105 39.26 150.896 39.2624C150.694 39.0067 150.449 39.0312 150.162 39.0177C149.514 38.9859 148.852 39.0569 148.205 39.0177C148.167 39.0153 147.931 38.7816 147.614 38.7632C146.718 38.7119 145.403 38.4439 145.32 39.4423C145.215 40.6829 146.349 39.9415 147.228 39.9965H147.227ZM176.81 50.5038C176.859 50.461 177.072 49.3904 177.032 49.2203C176.743 48.003 173.114 46.6657 171.933 47.0952C171.343 47.9394 173.95 49.0234 174.461 49.3341C174.907 49.6057 176.183 51.0494 176.809 50.5038H176.81ZM110.289 49.0515C109.715 48.5107 105.387 50.8867 104.612 51.3321C99.8669 54.0641 95.0125 58.1016 90.9617 61.8932C90.2315 62.5771 88.3651 64.2435 87.8942 64.9421C86.7017 66.71 88.1975 66.2659 89.2579 65.3275C95.1531 60.1167 99.1159 55.5139 106.303 51.7958C106.76 51.5584 111.153 49.8663 110.289 49.0515ZM187.257 59.6591C185.679 57.9536 183.852 55.4638 182.041 54.2317C179.72 52.651 176.077 52.1543 173.332 52.7746C171.148 53.2676 173.994 54.5633 173.399 55.1665C172.723 55.2949 172.215 54.6122 171.577 54.671C170.903 54.7334 170.426 55.7855 170.717 56.1367C171.083 56.5784 174.16 56.3716 174.376 56.505C174.731 56.7215 175.17 57.923 175.497 58.3316C176.49 59.5759 178.409 60.7602 180.004 60.9437C180.849 61.0416 181.211 60.5779 182.072 60.5375C183.978 60.447 185.963 60.4898 187.833 60.7945C188 60.6366 187.416 59.8304 187.258 59.6591H187.257ZM196.638 70.0929C196.817 69.9057 196.542 69.2561 196.402 68.9857C195.899 68.0228 191.475 62.5489 190.706 62.2051C190.325 62.0351 189.96 61.9776 189.547 62.0204C189.107 62.4217 191.435 64.4759 191.74 64.8405C192.866 66.1815 194.132 68.1525 195.292 69.3625C195.51 69.5901 196.301 70.4453 196.639 70.0929H196.638ZM187.587 73.0305C187.374 71.8927 188.996 67.4257 188.094 66.7736C187.457 66.3112 186.26 67.4319 185.553 67.6937C184.53 68.073 183.547 68.2271 182.451 68.139C182.377 68.6504 182.418 68.5367 182.758 68.6859C183.854 69.1668 185.769 69.3124 186.244 70.5811C186.616 71.5758 186.162 73.0709 187.584 73.0305H187.587ZM201.061 74.0313C200.982 74.0852 200.571 75.6537 200.562 75.8776C200.476 78.0566 203.322 75.0187 202.036 74.1157C201.852 73.9861 201.218 73.9237 201.061 74.0313ZM204.432 75.7613C203.64 75.2621 203.273 76.3547 202.812 76.6899C202.078 77.2222 200.818 77.3029 200.799 78.6573C201.128 78.7185 202.433 78.5753 202.511 78.6573C202.555 78.7038 202.499 79.5957 202.573 79.9395C202.889 81.3967 203.767 85.3608 205.805 85.0329C207.431 84.771 204.77 82.0965 205.56 80.8522C206.057 80.0704 207.129 81.6242 207.574 81.7906C207.906 81.9142 208.47 82.0341 208.355 81.5031C207.878 79.3021 206.295 78.7491 205.203 77.3115C204.908 76.9224 204.507 75.8066 204.433 75.7613H204.432ZM94.5392 79.0072C93.6194 78.5717 90.7941 76.7939 90.1104 76.6973C89.4927 76.6104 89.686 77.3934 89.8633 77.6822C90.0798 78.037 96.2686 81.2303 97.1602 81.6377C101.653 83.6931 109.571 86.9036 114.352 87.4419C116.414 87.6744 120.471 87.0345 122.104 87.5178C122.332 87.5863 124.763 89.8179 125.478 90.2596C127.611 91.5748 129.129 91.9455 131.699 91.6335C133.192 91.4525 136.586 88.8391 136.939 87.3318C137.478 85.0353 135.079 88.28 134.754 88.5712C132.577 90.5189 129.625 90.9288 126.924 89.7922C126.54 89.6307 123.398 87.6242 123.291 87.4358C122.829 86.6209 125.209 85.751 125.818 85.269C126.427 84.7869 129.36 81.8946 128.636 81.1067C127.081 81.5276 126.607 83.3946 125.198 84.3942C120.888 87.4492 113.425 85.8538 108.63 84.6046C103.47 83.26 99.3006 81.2621 94.5416 79.0072H94.5392Z" fill="white"/>
<path d="M250.697 12.5918C250.772 12.9894 250.483 13.2341 250.22 13.4629C249.397 14.175 248.205 14.4772 247.346 14.9873C239.696 19.5252 231.817 23.5334 223.802 27.4093C221.654 28.0982 222.076 25.3674 221.226 25.5619C220.059 25.8298 221.908 27.9171 221.487 28.508C221.325 28.7344 217.117 30.4277 216.407 30.7764C215.494 31.2242 211.037 33.7678 210.499 33.6161C209.579 33.3555 209.61 30.654 209.85 29.8453C207.761 29.1345 209.425 34.1703 209.255 34.382L192.252 42.8411C190.695 43.1286 190.659 38.9407 190.769 37.9203C190.397 37.3795 189.864 38.5394 189.803 38.9101C189.543 40.4847 190.148 42.0226 190.767 43.4235C188.411 44.3766 186.525 43.2828 184.801 41.6874C184.368 41.2873 182.022 38.5039 181.986 38.1234C181.944 37.6462 182.677 37.4101 183.014 37.2608C186.037 35.9162 191.525 33.9758 194.725 33.0716C195.071 32.9737 195.41 32.8612 195.779 32.9016C195.94 34.1018 195.529 35.1466 195.719 36.3946C195.806 36.9623 196.189 38.5112 197.002 38.2861C197.815 38.061 196.756 36.4117 196.687 35.8979C196.622 35.4195 197.266 32.8453 197.505 32.4268C198.11 31.3685 202.419 30.3824 203.73 29.9701C202.889 31.7723 202.243 32.3131 202.507 34.4933C203.751 35.0292 203.613 32.5186 204.122 31.4603C204.466 30.7446 205.58 29.3425 206.251 28.9411L216.571 25.0725C216.651 26.3877 215.515 27.2784 216.006 28.8261C216.599 30.6944 216.983 27.4962 217.058 27.2723C218.34 23.3976 223.283 22.9008 226.6 21.4008C226.814 21.6088 226.176 24.6259 227.212 23.8502C227.314 23.7744 227.704 22.1521 228.194 21.5281C229.061 20.4245 230.983 19.6084 232.35 19.4482L232.715 20.6692C233.563 19.5277 235.119 17.8026 236.65 17.75C237.285 17.7279 237.659 18.1305 238.477 17.876C239.155 17.6655 240.44 16.1766 241.389 15.8866C243.911 15.1195 245.331 14.2741 247.687 13.3785C248.138 13.2072 250.452 12.385 250.695 12.5967L250.697 12.5918Z" fill="white"/>
<path d="M176.947 26.5382C175.59 26.3082 172.122 24.566 171.193 23.4856C170.101 22.2169 170.481 21.8866 170.834 20.422C171.638 17.0917 173.197 14.6729 171.95 10.9829C171.596 9.93681 169.553 8.17745 170.809 7.18276C172.965 5.476 177.131 11.3866 178.104 12.9013C180.713 16.9645 181.072 19.7271 181.231 24.4546C181.243 24.8217 181.815 26.537 181.107 26.537C179.922 26.537 178.005 26.7169 176.949 26.537L176.947 26.5382Z" fill="white"/>
<path d="M176.185 56.1135C175.218 54.5682 179.093 53.8781 178.54 55.6363C178.257 56.5355 176.823 57.1302 176.185 56.1135Z" fill="white"/>
<path d="M182.323 57.7786C182.323 58.1934 181.908 58.2937 181.585 58.2937C180.788 58.2937 180.854 57.4886 180.444 56.9405C179.997 56.3422 179.246 56.0413 179.246 55.2032C179.246 54.3651 179.778 55.3145 181.136 55.9385C181.631 56.1648 182.323 56.7888 182.323 57.7798V57.7786Z" fill="white"/>
<path d="M212.295 50.7619C211.922 52.9532 213.155 54.8055 213.691 56.8292C218.624 75.4714 217.797 96.1776 213.695 114.929C212.835 118.857 210.982 123.541 210.401 127.294C210.277 128.093 210.674 130.313 209.726 130.3C208.39 130.283 201.793 120.362 200.743 118.721C200.073 117.673 199.295 116.683 198.798 115.529C197.123 111.651 197.956 110.671 194.441 107.408C191.563 104.736 185.812 100.857 181.836 100.909C180.071 100.932 177.701 102.307 176.419 100.843C171.282 94.981 166.293 90.1507 159.393 86.178C158.376 85.5932 154.702 84.1299 154.185 83.5684C153.773 83.1206 153.513 81.2682 153.146 80.4473C152.229 78.3979 150.112 76.6985 148.211 75.5962C147.447 75.152 144.465 74.4608 146.386 73.5346C151.529 71.0534 158.053 69.5473 163.73 69.3503C164.659 69.3185 167.116 69.1973 167.848 69.4115C168.52 69.6072 169.646 71.9355 170.228 72.6586C173.092 76.2226 177.657 78.8261 182.329 78.4126C183.145 78.3404 184.234 77.7507 184.968 77.9648C185.235 78.0431 186.682 79.3694 187.17 79.6924C188.538 80.599 190.057 81.6732 191.685 82.0268C192.293 82.1589 192.928 82.0023 193.533 82.1357C194.564 82.3632 196.373 85.9835 197.382 87.0944C203.084 93.3672 214.405 89.2673 213.5 80.5145C213.439 79.9261 213.026 79.4073 213.024 78.7821C213.018 76.4514 214.649 76.0843 212.893 72.8029C211.573 70.3327 207.953 66.8079 206.126 64.1566C202.865 59.4242 199.619 54.1314 198.11 48.5646C198.591 48.1412 201.261 49.5739 201.925 49.7623C205.367 50.7375 208.728 50.9185 212.298 50.7644L212.295 50.7619Z" fill="#DCBE2D"/>
<path d="M201.902 148.886C201.751 148.644 199.471 147.21 198.846 146.556C198.089 145.764 195.467 142.265 195.231 141.364C194.574 138.848 197.6 137.283 197.565 134.326C197.521 130.572 190.389 122.213 187.458 119.775C184.562 117.363 180.032 115.511 176.276 116.848C176.04 116.933 176.047 117.243 175.909 117.313C168.805 120.861 161.297 124.519 153.82 127.223C149.843 128.661 141.599 131.541 137.618 130.726C135.494 130.292 131.798 126.984 129.98 125.648C129.575 125.652 126.563 131.596 125.441 132.358C124.836 132.771 121.631 134.13 120.937 134.212C119.138 134.425 116.987 133.445 115.181 132.984C107.397 130.993 101.265 129.915 93.4127 133.108C91.4509 133.906 87.7315 136.133 84.3595 140.517C83.8433 141.187 82.5958 142.829 82.2191 143.034C81.7825 143.272 78.6477 143.108 78.1719 142.967C77.4711 142.76 77.2877 140.66 76.9636 139.771C74.3205 132.524 68.6895 132.372 62.1008 132.249C56.5737 132.148 32.5452 132.3 32.5452 132.3C30.8194 137.437 29.123 141.154 27.6798 146.388C19.1367 177.368 16.5144 221.351 55.2503 231.475C91.0509 240.831 135.346 217.28 162.509 195.374C175.514 184.886 187.476 172.999 196.348 158.751C197.705 156.571 198.845 153.967 200.207 151.845C200.748 151.001 202.423 149.726 201.903 148.888L201.902 148.886Z" fill="#DCBE2D"/>
<path d="M208.868 43.6657C208.243 44.22 202.193 42.0667 206.123 41.5308C207.952 41.2812 208.301 42.0459 208.868 43.6657Z" fill="#DCBE2D"/>
<path d="M196.148 30.7017C196.678 31.5068 194.717 32.2874 193.999 31.8665C193.935 31.8286 193.437 30.9428 193.458 30.8265C193.568 30.1818 196.008 30.4864 196.15 30.7017H196.148Z" fill="#DCBE2D"/>
<path d="M210.581 46.8468C209.909 46.8346 209.043 47.1013 209.361 46.2387C209.651 45.4508 210.677 46.1935 210.581 46.8468Z" fill="#DCBE2D"/>
<path d="M250.4 11.164C234.108 17.5554 217.558 23.329 201.157 29.4709C197.357 26.4942 194.089 24.128 188.954 24.8474C188.08 24.9697 187.377 25.6194 186.491 25.5802C185.547 25.5374 184.094 24.5794 182.925 24.7189C182.487 24.4216 182.762 22.4861 182.668 21.7948C182.213 18.4351 180.913 16.2585 179.358 13.4861C178.871 12.6175 178.782 11.8406 178.149 10.8985C176.713 8.76472 171.604 3.18932 169.374 6.97354C168.059 9.2064 170.066 9.50493 170.644 10.8202C171.963 13.825 170.411 16.9951 169.791 19.8715C169.677 20.4 169.911 21.7434 169.345 21.8792C169.068 21.9453 166.729 21.0105 166.168 20.9261C165.276 20.7928 161.885 21.4437 160.849 21.6945C160.256 21.8376 159.86 22.546 159.13 22.3943C158.951 22.3576 157.819 19.8238 157.355 19.2181C155.946 17.3768 150.95 12.7349 149.077 16.0359C147.783 18.3177 149.004 20.1835 149.669 22.3772C149.474 22.5521 145.272 22.2609 144.426 22.3943C143.572 22.5277 142.964 23.2434 141.97 23.3633C135.025 24.2087 132.194 19.5118 126.496 18.5208C122.956 17.9053 119.637 18.6235 116.567 20.4636C116.135 20.723 112.954 23.3584 112.734 23.1113C114.209 19.0187 110.524 15.7961 106.618 15.5281C107.413 18.2712 107.152 20.7891 106.069 23.4208C103.737 29.0892 98.4653 30.0252 94.061 33.4313C93.4837 33.8779 92.1677 35.4391 91.8142 35.5895C91.4228 35.7572 91.484 35.455 91.3984 35.2837C91.0082 34.5006 90.9214 33.9599 90.3282 33.1671C89.439 31.9778 86.4498 30.1854 85.0213 29.6667C84.7167 29.5566 84.4599 29.4024 84.1137 29.4758C83.8471 30.7017 84.7962 31.0908 85.3062 32.0733C86.6406 34.6475 85.6646 39.5854 83.6331 41.5968C81.1992 44.0071 80.1754 42.2698 77.6425 42.7029C74.8343 43.1825 73.4143 48.277 72.4933 50.5148C71.5882 49.569 71.2605 48.5095 70.0985 47.7766C68.4621 46.744 67.0935 46.9337 65.2784 46.6058C65.1842 47.7118 66.7021 47.8023 67.3454 48.8166C68.0817 49.9765 68.0841 52.2044 67.9361 53.5478C67.793 54.841 66.9932 56.2517 67.0152 57.4678C67.0714 60.4213 69.6154 63.3442 69.6546 66.573C69.6815 68.7704 68.8999 71.1451 67.897 73.0843C67.4812 73.8882 66.6091 74.7434 66.3107 75.4126C66.0184 76.0684 66.071 77.0472 65.7848 77.5182C65.5585 77.889 64.4932 78.0321 64.0737 78.3147C61.4747 80.0655 56.69 85.9358 54.519 88.5761C48.3401 96.0907 42.9647 104.519 38.4858 113.157C30.5603 128.442 26.1633 144.911 17.9491 160.15C15.2388 165.178 14.7459 164.869 10.7244 168.338C8.76386 170.029 5.05917 173.836 4.91118 176.493C4.8855 176.954 5.0714 178.875 5.47257 178.985C5.88964 179.099 8.18657 177.073 9.14179 176.788C9.46958 176.69 9.598 176.82 9.50015 177.146C9.25065 177.977 7.53712 179.491 7.01364 180.533C3.48019 187.572 8.41773 193.126 7.73404 199.594C7.47964 201.996 5.77712 202.808 3.88135 203.823C3.87769 204.027 5.37473 204.569 5.70373 204.687C7.54201 205.348 9.63714 206.129 11.5696 206.405C13.2122 206.64 15.8626 206.118 17.0147 204.853C17.2508 204.594 17.4832 203.154 18.1925 204.184C18.3992 204.485 18.3674 207.62 18.3185 208.235C17.8855 213.667 11.7127 218.387 13.3369 223.968C13.4152 224.234 14.2518 225.763 14.3924 225.847C15.5042 226.521 15.4993 225.119 15.9824 224.249C16.287 223.702 17.5847 221.365 18.3087 222.052C18.6402 222.366 17.6654 224.154 17.592 224.635C16.7836 229.892 20.4149 236.598 24.6871 239.529C26.8788 241.033 29.7897 241.632 31.7381 243.487C32.3154 244.036 33.9164 246.69 34.1096 246.75C35.0563 247.045 35.6458 244.657 35.9993 244.019C37.2505 241.761 38.2094 240.541 38.9787 237.709C39.7639 234.821 40.1858 232.477 38.6154 229.755L39.2942 229.434C41.4052 230.38 44.003 230.982 45.2689 233.133C45.9013 234.207 45.7435 236.121 47.1745 235.755C47.3102 234.643 47.3371 232.762 47.7126 231.764C47.8337 231.441 47.945 231.376 48.2826 231.334C51.4589 232.303 54.612 233.555 57.8751 234.227C94.1931 241.696 137.621 218.435 164.952 196.105C178.82 184.775 191.981 171.524 200.592 155.657C200.938 155.02 202.433 152.425 202.499 152.14C202.77 150.963 201.773 149.72 203.782 149.913C206.169 150.143 207.132 152.231 209.602 150.233C213.169 147.35 213.236 140.961 212.797 136.757C212.618 135.043 210.779 132.497 210.806 131.403C210.814 131.032 211.352 129.284 211.546 128.995C211.806 128.608 212.426 128.616 212.717 127.901C213.625 125.667 214.548 121.134 215.16 118.599C219.696 99.7942 221.327 77.933 216.668 58.9862C216.262 57.3369 215.247 53.4316 214.546 52.0552C214.287 51.545 213.33 50.8537 213.287 50.6066C213.224 50.2456 215.458 48.4116 215.829 47.817C215.995 47.5503 217.046 45.2342 216.938 45.1364C215.593 44.8745 214.125 46.5764 213.093 46.8015C212.714 46.8847 211.505 46.826 211.346 46.5703C210.557 45.2991 213.742 44.1674 213.515 43.0589C213.286 41.9443 211.316 43.9838 210.343 43.552C210.024 43.41 208.7 41.357 208.652 41.0426C208.514 40.1201 209.729 40.2278 209.599 39.6332C208.727 38.3497 206.492 39.0104 205.932 37.4297C216.926 31.6316 228.489 26.8894 239.455 21.0424C242.527 19.4041 247.522 16.8788 250.192 14.8993C251.822 13.6917 253.441 11.6693 250.398 11.1627L250.4 11.164ZM196.148 30.7017C196.678 31.5068 194.717 32.2874 194 31.8665C193.935 31.8286 193.437 30.9428 193.458 30.8265C193.568 30.1818 196.008 30.4864 196.15 30.7017H196.148ZM170.835 20.4233C171.638 17.093 173.198 14.6741 171.95 10.9841C171.597 9.93804 169.553 8.17867 170.809 7.18398C172.965 5.47723 177.131 11.3879 178.104 12.9025C180.713 16.9657 181.072 19.7283 181.231 24.4559C181.243 24.8229 181.815 26.5382 181.107 26.5382C179.922 26.5382 178.005 26.7181 176.949 26.5382C175.591 26.3082 172.124 24.566 171.194 23.4856C170.102 22.2169 170.482 21.8866 170.836 20.422L170.835 20.4233ZM200.205 151.844C198.844 153.966 197.704 156.57 196.347 158.75C187.474 172.998 175.513 184.885 162.508 195.373C135.345 217.279 91.051 240.83 55.2492 231.474C16.5133 221.351 19.1367 177.368 27.6787 146.387C28.8467 142.15 31.3112 135.543 32.5747 132.372C38.9163 132.316 56.8013 132.149 62.0996 132.247C68.6883 132.368 74.3194 132.521 76.9624 139.769C77.2865 140.657 77.47 142.758 78.1708 142.965C78.6466 143.105 81.9966 143.104 82.4748 142.965C83.2637 142.732 83.8496 141.196 84.6042 140.813C85.0531 138.827 91.451 133.904 93.4128 133.107C101.265 129.915 107.399 130.993 115.181 132.982C116.988 133.444 119.138 134.424 120.937 134.211C121.633 134.129 124.836 132.769 125.441 132.357C126.563 131.594 129.575 125.65 129.98 125.646C131.798 126.984 135.494 130.291 137.618 130.725C141.601 131.54 149.844 128.661 153.82 127.222C161.297 124.518 168.805 120.861 175.909 117.312C176.047 117.242 176.04 116.931 176.276 116.847C180.031 115.51 184.561 117.362 187.459 119.774C190.389 122.213 197.521 130.572 197.565 134.324C197.599 137.282 194.573 138.846 195.231 141.363C195.466 142.264 198.089 145.763 198.847 146.554C199.473 147.209 201.751 148.642 201.902 148.885C202.422 149.723 200.747 150.997 200.205 151.842V151.844ZM211.202 135.909C212.856 143.428 208.657 148.147 202.017 142.65C201.337 142.087 198.341 139.064 198.158 138.434C197.787 137.164 198.896 135.56 198.847 134.096C198.829 133.587 198.581 132.568 198.425 132.051C197.52 129.07 190.628 121.073 188.08 118.909C185.306 116.552 179.916 113.978 176.28 115.625C176.088 115.712 176.045 116.019 175.907 116.087C167.482 120.275 158.632 124.545 149.663 127.467C146.095 128.629 141.575 130.017 137.802 129.563C136.344 129.387 132.053 126.163 130.827 125.039C130.427 124.672 129.926 123.566 129.456 123.477C129.085 123.407 127.777 124.522 127.165 124.783C125.226 125.606 121.323 125.589 119.267 125.146C119.084 125.107 119.078 124.731 118.907 124.682C112.521 122.856 106.472 117.974 101.48 113.533C100.858 112.978 98.0152 109.566 97.3266 110.227C97.0942 110.451 97.515 110.988 97.6813 111.215C99.8645 114.197 107.756 120.3 111.045 122.317C115.223 124.88 120.528 127.404 125.564 126.606C126.557 126.448 127.694 125.455 128.558 125.195C128.911 125.088 129.223 125.019 129.123 125.515C127.122 127.27 126.076 131.18 123.68 132.307C123.412 132.433 120.587 133.393 120.385 133.42C119.2 133.577 115.186 131.427 113.63 130.987C101.974 127.694 90.9617 130.44 83.4215 139.995C82.7145 140.891 82.772 142.012 81.2909 142.267C78.2479 142.792 78.8203 141.013 77.9458 139.034C76.0733 134.796 72.6927 132.254 68.2285 131.136C60.2063 130.86 41.892 131.076 33.1446 130.991C33.1789 130.911 33.2107 130.84 33.2376 130.781C34.5328 126.818 36.3491 122.727 38.1641 118.948C44.0642 106.666 52.3799 93.492 61.8501 83.6699C62.4311 83.068 65.2882 80.0007 65.8875 80.1279C66.4905 80.8865 66.378 82.0708 66.6752 83.0166C67.0971 84.3624 69.9212 90.7441 70.9021 91.2689C71.2751 91.4684 71.817 91.3668 71.8867 91.0132C71.9221 90.8322 70.5278 88.5051 70.3016 87.9533C67.3686 80.8008 67.3907 72.1875 76.2873 70.0954C77.0762 69.365 72.9483 69.0432 72.678 68.8156C72.1619 68.3788 72.1362 66.2072 73.2259 66.1864C74.246 66.1668 75.5583 68.2589 76.7765 68.139C77.0603 67.1859 76.1087 66.6072 75.9081 65.9515C75.7565 65.4535 75.1119 63.0065 75.0826 62.5979C74.8392 59.2064 77.4468 56.7105 80.3809 55.7158C82.7133 54.9254 84.6164 54.6489 86.8864 53.1697C87.6093 52.6987 91.9683 48.7175 92.1872 48.1938C92.3903 47.7057 91.8521 47.8317 91.572 47.8219C89.6127 47.7448 86.5599 50.275 84.115 49.5421C84.1565 49.2583 84.0208 48.8142 84.1517 48.5988C84.2923 48.3688 88.6526 46.7489 89.1944 46.6706C91.2773 46.3696 93.1816 46.9508 95.2156 46.8199C97.0563 46.7012 100.225 45.7567 101.858 44.9027C102.413 44.6115 106.577 41.8978 105.886 41.2261L96.2638 41.1906C94.9856 40.7844 97.559 39.4863 98.0409 39.3713C101.508 38.5479 104.494 39.1315 107.649 40.3097C108.958 40.7991 110.938 41.4096 112.38 41.4769C113.173 41.5136 116.405 40.864 116.618 40.0871C116.929 38.948 115.306 39.3811 114.637 39.2013C112.532 38.6372 110.445 37.4015 108.334 36.8167C108.157 36.2392 108.773 36.1621 109.209 36.1107C118.456 35.0231 125.626 41.1576 135.241 38.4097C136.559 38.0328 138.174 37.1458 138.174 35.5957C136.99 36.3983 135.303 36.4044 133.884 36.3395C128.784 36.1046 124.967 34.0272 120.614 32.1944C120.312 32.0671 118.42 31.8787 119.679 31.4089C121.466 30.7421 124.827 31.5031 126.673 32.0525C130.285 33.1267 132.184 35.1846 136.33 34.3624C136.815 34.267 137.041 33.8938 137.429 33.747C138.342 33.402 138.877 34.1544 138.665 32.6605C137.967 32.7131 134.765 32.2653 134.36 31.9497C133.839 31.5435 133.652 30.6626 134.63 30.6932C136.121 30.7397 138.719 31.0039 140.197 31.2499C143.336 31.7711 147.381 33.9476 150.465 33.5757C151.451 33.457 153.928 32.3412 154.648 32.8844C154.877 33.0569 156.666 37.2669 157.128 38.0487C159.234 41.6323 160.405 41.9724 163.7 43.9533C165.266 44.8941 166.298 50.1588 166.828 50.4903C167.066 50.6396 167.686 50.4744 168.018 50.5234C168.666 49.8908 165.502 45.6294 165.568 44.5307C165.585 44.2995 168.253 44.6898 168.015 43.5532C167.914 43.0638 166.158 43.4688 165.507 43.3684C164.174 43.1617 162.348 42.315 161.296 41.4647C158.474 39.1854 152.515 27.0166 151.132 23.2471C150.11 20.4588 148.249 13.5045 153.665 17.2875C156.514 19.2781 157.013 21.5709 158.667 24.2736C160.344 27.0117 163.22 29.5088 164.689 31.9534C165.238 32.8673 166.546 37.0406 166.776 37.2045C167.317 37.5899 168.07 37.2987 167.979 36.5133C167.921 36.0239 166.686 33.353 166.373 32.7254C166.183 32.3461 165.602 31.2768 165.572 31.1911L171.074 34.6181C174.665 40.2143 184.17 47.8085 190.893 48.3284C193.135 48.5022 194.847 46.1494 196.762 47.828C198.707 55.8467 203.914 63.2366 208.873 69.7259C210.858 72.3233 212.942 73.0354 212.28 77.0594C212.172 77.7165 211.587 78.1067 211.549 78.557C211.508 79.0549 212.161 79.7854 212.271 80.5194C212.792 84.0064 210.828 87.2902 207.535 88.4623C204.725 89.4631 201.447 85.6642 199.815 83.6809C199.349 83.1145 198.4 80.9354 197.498 81.1104C197.156 81.1765 197.143 81.5582 197.227 81.8604C197.502 82.8453 200.63 86.282 201.525 87.1091C201.925 87.4786 204.911 89.1952 203.114 89.1939C199.907 89.1915 197.562 85.8171 195.941 83.3971C195.468 82.6924 195.336 81.3098 194.308 81.1153C193.585 80.9783 192.833 81.2119 191.98 80.9966C191.184 80.796 186.283 78.1043 186.132 77.5439C186.028 77.1598 186.741 76.6985 186.606 76.2189C185.315 75.8409 184.619 77.0105 183.534 77.1806C177.141 78.1789 171.417 73.9714 168.971 68.3324C167.71 65.4254 166.639 61.3622 165.776 58.027C165.441 56.735 164.446 50.8635 163.973 50.2872C162.607 48.6245 163.318 52.6216 163.436 53.2713C163.628 54.321 164.674 55.3855 163.494 56.1575C157.406 59.2345 151.307 62.3605 145.68 66.2304C143.67 67.6117 141.48 70.0293 138.976 70.5358C138.068 70.7194 135.723 70.104 136.239 71.6663C136.581 72.7038 139.841 71.4999 140.593 71.1745C142.794 70.2214 144.269 68.5049 146.17 67.2104C150.368 64.3511 155.177 61.5347 159.696 59.2076C160.405 58.8418 164.203 56.8255 164.582 57.1436C165.157 60.0298 165.721 63.1582 166.679 65.9368C166.833 66.3821 167.584 67.4918 167.529 67.7708C167.399 68.4253 163.599 68.0791 162.762 68.1488C150.467 69.1753 138.846 73.5737 133.324 85.4366C132.748 86.6723 133.158 86.9488 134.147 86.0153C135.034 85.1785 136.182 82.5994 137.095 81.3783C138.183 79.9248 141.947 75.8372 143.544 75.3527C145.296 74.8205 149.05 77.1488 150.291 78.4126C151.838 79.9897 152.848 82.1895 152.871 84.4162C152.879 85.0806 152.216 86.6846 152.833 87.125C153.121 87.3306 153.747 87.3122 153.965 86.9966C154.351 86.4374 153.658 84.9374 154.433 85.0316C155.084 85.1099 155.878 85.625 156.484 85.9199C162.86 89.0239 170.735 95.2049 175.236 100.685C175.453 100.948 176.133 101.764 176.09 102.028L170.805 103.111C165.559 103.542 160.204 104.374 154.928 104.6C154.417 104.622 153.743 104.694 153.268 104.554C152.822 104.421 151.202 102.806 151.874 102.284C152.207 102.026 154.165 101.952 154.646 102.003C155.873 102.127 158.566 103.587 158.477 101.671C158.101 101.404 156.882 101.645 156.803 101.615C156.655 101.556 154.807 99.6302 154.568 99.339C152.618 96.9679 151.731 94.1392 150.166 91.7522C149.963 91.4427 149.98 91.0267 149.426 91.1491C149.005 92.3725 150.001 93.0932 150.146 93.9741C150.546 96.4002 148.12 102.846 146.597 104.836C145.321 106.505 143.221 105.952 141.584 106.428C140.644 106.701 138.418 107.726 137.602 108.318C136.124 109.39 134.879 111.013 134.994 112.925C136.321 113.09 136.152 111.748 136.606 110.991C137.638 109.274 139.644 108.299 141.548 107.861C151.729 105.518 163.059 105.54 173.457 103.81C178.816 102.918 181.632 101.196 187.09 103.51C189.593 104.571 195.329 108.952 196.262 111.464C197.085 113.679 197.182 115.069 198.489 117.311C200.498 120.754 204.015 125.736 206.568 128.805C208.824 131.519 210.339 132.008 211.198 135.919L211.202 135.909ZM212.295 50.7619C211.922 52.9532 213.155 54.8055 213.691 56.8292C218.624 75.4714 217.797 96.1776 213.695 114.929C212.835 118.857 210.982 123.541 210.401 127.294C210.277 128.093 210.674 130.313 209.726 130.3C208.39 130.283 201.793 120.362 200.744 118.721C200.073 117.673 199.295 116.683 198.798 115.529C197.123 111.651 197.956 110.671 194.441 107.408C191.563 104.736 185.812 100.857 181.836 100.909C180.071 100.932 177.701 102.307 176.419 100.843C171.282 94.981 166.293 90.1507 159.391 86.178C158.375 85.5932 154.701 84.1299 154.184 83.5684C153.77 83.1206 153.512 81.2682 153.145 80.4473C152.228 78.3979 150.111 76.6985 148.21 75.5962C147.446 75.152 144.464 74.4608 146.385 73.5346C151.528 71.0534 158.052 69.5473 163.728 69.3503C164.658 69.3185 167.115 69.1974 167.847 69.4115C168.519 69.6072 169.644 71.9355 170.227 72.6586C173.091 76.2226 177.656 78.8262 182.328 78.4126C183.144 78.3404 184.233 77.7507 184.967 77.9648C185.234 78.0431 186.681 79.3694 187.169 79.6924C188.537 80.599 190.056 81.6732 191.684 82.0268C192.292 82.1589 192.927 82.0023 193.532 82.1357C194.563 82.3632 196.372 85.9835 197.381 87.0944C203.083 93.3672 214.404 89.2673 213.499 80.5146C213.438 79.9261 213.024 79.4073 213.023 78.7821C213.017 76.4514 214.647 76.0843 212.892 72.8029C211.571 70.3327 207.952 66.8079 206.125 64.1566C202.864 59.4242 199.618 54.1314 198.109 48.5646C198.59 48.1412 201.26 49.5739 201.924 49.7624C205.366 50.7375 208.727 50.9185 212.297 50.7644L212.295 50.7619ZM209.361 46.2387C209.651 45.4508 210.677 46.1935 210.581 46.8468C209.909 46.8346 209.043 47.1013 209.361 46.2387ZM206.123 41.532C207.952 41.2824 208.301 42.0471 208.868 43.667C208.243 44.2212 202.193 42.0679 206.123 41.532ZM250.221 13.4629C249.397 14.175 248.205 14.4772 247.345 14.9873C239.695 19.5252 231.816 23.5334 223.801 27.4093C221.653 28.0982 222.075 25.3674 221.225 25.5619C220.058 25.8298 221.906 27.9171 221.486 28.508C221.324 28.7344 217.116 30.4277 216.406 30.7764C215.493 31.2242 211.036 33.7678 210.498 33.6161C209.578 33.3555 209.608 30.654 209.849 29.8453C207.76 29.1345 209.424 34.1703 209.254 34.382L192.251 42.8411C190.694 43.1286 190.658 38.9407 190.768 37.9203C190.396 37.3795 189.863 38.5394 189.802 38.9101C189.541 40.4847 190.147 42.0226 190.766 43.4235C188.41 44.3766 186.524 43.2828 184.8 41.6874C184.367 41.2873 182.021 38.5039 181.985 38.1246C181.942 37.6474 182.676 37.4113 183.013 37.262C186.036 35.9174 191.524 33.977 194.724 33.0728C195.07 32.975 195.409 32.8624 195.778 32.9028C195.939 34.103 195.528 35.1479 195.718 36.3958C195.805 36.9635 196.188 38.5124 197.001 38.2873C197.784 38.0708 196.755 36.4129 196.685 35.8991C196.621 35.4207 197.265 32.8465 197.504 32.4281C198.109 31.3698 202.418 30.3836 203.729 29.9713C202.888 31.7735 202.242 32.3143 202.506 34.4945C203.75 35.0304 203.612 32.5198 204.12 31.4615C204.465 30.7458 205.578 29.3437 206.25 28.9424L216.57 25.0737C216.65 26.389 215.513 27.2797 216.005 28.8274C216.598 30.6956 216.982 27.4974 217.057 27.2735C218.339 23.3988 223.282 22.902 226.599 21.4021C226.813 21.61 226.175 24.6272 227.211 23.8515C227.312 23.7756 227.703 22.1533 228.193 21.5293C229.06 20.4257 230.982 19.6097 232.349 19.4494L232.713 20.6704C233.562 19.5289 235.118 17.8038 236.649 17.7512C237.284 17.7292 237.658 18.1317 238.475 17.8772C239.154 17.6668 240.438 16.1778 241.388 15.8878C243.909 15.1207 245.329 14.2753 247.686 13.3797C248.136 13.2084 250.45 12.3862 250.694 12.5979C250.768 12.9955 250.48 13.2402 250.217 13.469L250.221 13.4629Z" fill="#1A2849"/>
<path d="M136.94 87.3318C137.478 85.0353 135.079 88.28 134.754 88.5712C132.577 90.519 129.626 90.9288 126.924 89.7922C126.54 89.6307 123.398 87.6242 123.291 87.4358C122.829 86.621 125.209 85.7511 125.818 85.269C126.435 84.7808 129.36 81.8946 128.636 81.1067C127.082 81.5276 126.607 83.3946 125.198 84.3942C120.888 87.4492 113.425 85.8538 108.63 84.6047C103.47 83.2601 99.3006 81.2621 94.5417 79.0072C93.6219 78.5717 90.7966 76.794 90.1129 76.6973C89.4953 76.6104 89.6885 77.3935 89.8659 77.6822C90.0823 78.037 96.2711 81.2303 97.1627 81.6377C101.655 83.6932 109.573 86.9036 114.354 87.4419C116.416 87.6744 120.473 87.0345 122.106 87.5178C122.335 87.5863 124.765 89.8179 125.481 90.2596C127.614 91.5748 129.131 91.9455 131.701 91.6336C133.194 91.4525 136.588 88.8391 136.942 87.3318H136.94Z" fill="#1A2849"/>
<path d="M200.799 78.6573C201.128 78.7185 202.433 78.5753 202.511 78.6573C202.555 78.7038 202.499 79.5957 202.573 79.9395C202.889 81.3967 203.767 85.3608 205.805 85.0329C207.431 84.771 204.77 82.0965 205.56 80.8522C206.057 80.0704 207.129 81.6242 207.574 81.7906C207.906 81.9142 208.47 82.0341 208.355 81.5031C207.878 79.3021 206.295 78.7491 205.203 77.3115C204.908 76.9224 204.507 75.8066 204.434 75.7613C203.641 75.2621 203.274 76.3547 202.813 76.6899C202.079 77.2222 200.819 77.3029 200.8 78.6573H200.799Z" fill="#1A2849"/>
<path d="M110.289 49.0515C109.715 48.5107 105.387 50.8867 104.612 51.3321C99.8669 54.0641 95.0125 58.1016 90.9617 61.8932C90.2315 62.5771 88.3651 64.2435 87.8942 64.9421C86.7017 66.71 88.1975 66.2659 89.2579 65.3275C95.1532 60.1167 99.1159 55.5139 106.303 51.7958C106.76 51.5584 111.153 49.8664 110.289 49.0515Z" fill="#1A2849"/>
<path d="M182.759 68.6859C183.855 69.1668 185.771 69.3124 186.245 70.5811C186.617 71.5758 186.163 73.0709 187.586 73.0305C187.373 71.8927 188.995 67.4257 188.093 66.7736C187.456 66.3111 186.259 67.4319 185.552 67.6937C184.529 68.073 183.546 68.2271 182.45 68.139C182.375 68.6504 182.417 68.5367 182.757 68.6859H182.759Z" fill="#1A2849"/>
<path d="M191.739 64.8405C192.865 66.1815 194.13 68.1525 195.291 69.3625C195.509 69.5901 196.3 70.4453 196.638 70.0929C196.817 69.9058 196.542 69.2561 196.402 68.9857C195.899 68.0228 191.475 62.549 190.706 62.2052C190.325 62.0351 189.96 61.9776 189.548 62.0204C189.107 62.4217 191.435 64.4759 191.741 64.8405H191.739Z" fill="#1A2849"/>
<path d="M174.462 49.3341C174.909 49.6058 176.184 51.0495 176.81 50.5038C176.859 50.461 177.072 49.3904 177.032 49.2204C176.743 48.003 173.114 46.6657 171.933 47.0952C171.343 47.9394 173.95 49.0234 174.461 49.3341H174.462Z" fill="#1A2849"/>
<path d="M202.036 74.1157C201.852 73.986 201.218 73.9236 201.062 74.0313C200.982 74.0851 200.571 75.6536 200.562 75.8775C200.476 78.0566 203.322 75.0187 202.036 74.1157Z" fill="#1A2849"/>
<path d="M147.227 39.9965C151.734 40.2791 158.02 41.9614 161.054 45.6184C161.762 46.4724 162.099 48.1461 163.37 48.0703C163.391 47.6506 163.387 47.2285 163.266 46.8211C163.024 46.005 160.147 43.317 159.33 42.6931C158.703 42.2147 157.63 41.5075 156.932 41.1772C155.679 40.5838 153.716 39.8362 152.364 39.5071C151.422 39.2783 149.799 38.9272 147.614 38.7632C146.718 38.696 145.478 38.4537 145.32 39.4423C145.154 40.4822 146.349 39.9415 147.228 39.9965H147.227Z" fill="#1A2849"/>
<path d="M187.257 59.6591C185.679 57.9536 183.852 55.4638 182.042 54.2317C179.72 52.651 176.077 52.1543 173.332 52.7746C171.148 53.2676 173.994 54.5633 173.399 55.1665C172.723 55.2949 172.215 54.6122 171.577 54.671C170.903 54.7334 170.426 55.7855 170.717 56.1367C171.083 56.5784 174.16 56.3716 174.377 56.505C174.731 56.7215 175.17 57.923 175.497 58.3316C176.49 59.5759 178.409 60.7602 180.004 60.9437C180.849 61.0416 181.211 60.5779 182.072 60.5375C183.978 60.447 185.963 60.4898 187.833 60.7945C188 60.6366 187.416 59.8304 187.258 59.6591H187.257ZM178.54 55.6363C178.256 56.5355 176.823 57.1302 176.185 56.1134C175.218 54.5682 179.093 53.8781 178.54 55.6363ZM181.587 58.2937C180.789 58.2937 180.855 57.4886 180.445 56.9405C179.998 56.3422 179.247 56.0413 179.247 55.2032C179.247 54.3651 179.779 55.3145 181.138 55.9385C181.632 56.1648 182.324 56.7888 182.324 57.7798C182.324 58.1946 181.909 58.2949 181.587 58.2949V58.2937Z" fill="#1A2849"/>
<path d="M162.882 208.837C163.23 209.299 163.505 209.993 163.981 210.552C164.491 211.153 166.455 212.636 166.281 213.314C166.165 213.768 164.445 215.155 163.97 214.483L158.757 207.704C158.584 207.426 158.434 207.09 158.466 206.758C158.506 206.347 161.198 204.326 161.73 204.464C162.024 204.54 164.212 206.708 164.723 207.117C164.946 207.295 166.145 208.285 166.306 208.1C166.378 207.32 166.214 206.862 165.594 206.44C165.673 205.283 164 203.567 164.097 202.605C164.155 202.028 166.719 200.112 167.359 200.302C168.157 200.539 171.613 206.334 172.776 207.134C173.842 208.294 172.227 208.869 171.346 209.56C170.866 208.88 169.922 208.05 169.488 207.436C168.874 206.566 168.565 204.705 167.041 204.432C166.5 205.069 169.345 209.186 169.631 210.056C169.917 210.925 168.634 211.872 167.941 212.23C166.378 211.158 165.078 209.777 163.615 208.592C163.43 208.442 162.227 207.018 161.904 207.37C161.574 208.419 162.772 208.693 162.881 208.837H162.882Z" fill="#1A2849"/>
<path d="M185.876 190.242C185.496 190.523 188.97 193.124 189.035 193.337C189.245 194.033 187.671 195.715 187.012 195.585C186.535 195.491 180.796 189.65 180.241 188.65C180.241 188.177 181.887 186.691 182.379 186.615C183.189 186.49 187.778 188.065 188.076 187.792C188.118 186.385 185.169 185.205 184.923 184.195C184.743 183.456 186.542 181.659 187.232 182.395C188.62 184.468 192.066 186.4 193.349 188.268C194.022 189.249 193.392 190.033 192.495 190.621C190.765 191.756 187.895 189.831 185.876 190.241V190.242Z" fill="#1A2849"/>
<path d="M146.004 220.582C146.105 220.679 147.589 220.382 148.451 221.682C150.051 224.095 147.462 225.645 145.74 226.804C145.156 227.196 142.293 228.977 141.851 228.793L136.981 220.122C139.113 219.462 142.589 215.665 144.769 217.048C146.582 218.198 145.837 220.427 146.003 220.582H146.004ZM141.774 219.657C140.456 219.961 140.335 221.635 141.485 221.819C143.374 222.121 144.876 218.945 141.774 219.657ZM144.479 222.582C141.768 223.004 142.179 225.752 144.353 225.173C146.248 224.669 146.437 222.276 144.479 222.582Z" fill="#1A2849"/>
<path d="M92.3512 237.793C93.8103 239.255 92.7401 239.9 92.4857 241.068C92.2179 242.297 92.6863 241.646 93.3969 242.001C94.4072 242.505 94.5417 243.674 94.3986 244.697C94.1846 246.235 92.7181 246.721 91.4033 247.082C89.6054 247.577 87.6387 247.745 85.8286 248.234L83.9731 238.438C84.2178 238.229 84.5309 238.139 84.8354 238.063C85.8432 237.814 89.5565 236.998 90.3833 237C90.9679 237.003 91.9403 237.381 92.35 237.793H92.3512ZM88.2062 239.48C86.7128 239.835 87.0418 241.782 88.5756 241.585C90.9324 241.28 90.9716 238.822 88.2062 239.48ZM88.3016 243.366C88.2172 243.465 88.2294 244.667 88.2747 244.93C88.4569 245.981 91.3923 245.313 91.4021 243.902C91.4107 242.676 88.5377 243.087 88.3016 243.366Z" fill="#1A2849"/>
<path d="M57.6979 245.054C57.5303 245.291 59.6719 248.979 59.1643 249.945C58.2238 249.884 56.6289 249.827 55.9782 249.096C55.2603 248.289 55.2114 245.109 54.3589 244.837C52.6197 244.28 53.4991 247.977 52.7738 248.446C52.3347 248.73 49.041 248.333 49.8898 246.918L51.8479 238.219C54.5986 239.035 61.4221 238.82 59.9557 243.273C59.4138 244.92 57.8018 244.909 57.6991 245.053L57.6979 245.054ZM54.0641 242.817C54.1705 242.984 55.681 243.366 56.0492 243.301C58.329 242.901 56.6534 240.355 54.6916 240.939C54.0348 241.134 53.7816 242.374 54.0641 242.817Z" fill="#1A2849"/>
<path d="M82.6486 241.38C81.8536 241.273 80.6574 242.05 80.0349 242.064C79.449 242.078 78.7922 240.978 77.6927 241.175C75.2575 241.612 75.6599 246.696 77.6462 246.986C79.1457 247.205 80.6011 247.098 80.6892 245.298C80.6048 245.211 79.098 245.869 78.473 245.434C78.1709 245.223 78.1391 243.769 78.2736 243.611C78.4754 243.375 82.1777 243.206 82.8907 242.85C83.0424 242.984 83.4362 246.557 83.3873 246.873C83.1292 248.53 78.8436 249.504 77.404 249.464C73.1991 249.345 71.5137 244.008 73.736 240.908C75.5303 238.405 81.6518 237.84 82.6486 241.379V241.38Z" fill="#1A2849"/>
<path d="M194.375 174.885C196.853 174.732 200.182 177.588 200.318 180.094C200.454 182.599 197.745 185.662 195.288 185.843C192.83 186.024 189.49 183.321 189.309 180.791C189.143 178.466 192.012 175.031 194.374 174.885H194.375ZM193.636 177.809C190.744 178.442 192.649 182.41 195.171 183.042C196.379 183.346 197.877 181.64 197.567 180.393C197.254 179.136 194.983 177.515 193.636 177.808V177.809Z" fill="#1A2849"/>
<path d="M129.569 223.806C130.331 224.254 131.573 229.639 133.047 230.255C133.472 230.434 134.918 229.746 135.116 229.389C135.965 227.867 132.393 222.976 132.568 222.197C132.664 221.774 135.011 220.796 135.63 221.293C135.897 221.509 138.257 227.041 138.364 227.614C138.888 230.402 136.033 232.378 133.593 232.757C131.277 233.117 130.18 232.191 129.085 230.288C128.777 229.752 126.696 225.612 126.672 225.337C126.586 224.37 129.061 223.505 129.571 223.805L129.569 223.806Z" fill="#1A2849"/>
<path d="M178.469 190.03C179.285 189.804 180.218 190.715 179.975 191.537C179.795 192.146 176.748 193.909 176.614 194.823C176.542 195.31 176.929 195.878 177.438 195.875C177.996 195.872 180.269 193.129 180.91 192.959C181.551 192.789 182.215 193.743 182.202 194.284C182.181 195.158 178.978 196.649 179.066 197.637C179.37 201.054 183.025 195.951 183.915 195.715C184.818 195.475 186.064 196.983 185.036 197.843C184.074 198.349 179.991 202.726 179.395 202.728C179.137 202.728 178.931 202.551 178.766 202.37L172.685 195.468C172.628 195.139 173.61 194.291 173.887 194.03C174.451 193.501 178.177 190.112 178.469 190.031V190.03Z" fill="#1A2849"/>
<path d="M67.9717 240.158H71.1529C70.8948 242.32 71.2189 245.306 70.8936 247.363C70.3493 250.794 63.3839 251.218 61.8074 248.16C60.8668 246.334 61.6007 244.357 61.6276 242.483C61.6374 241.769 61.1873 240.298 61.4723 239.896C61.7279 239.537 64.1814 239.523 64.4407 239.897C65.3029 241.139 62.3969 248.601 66.5713 247.695C67.0275 247.596 67.9729 246.794 67.9729 246.397V240.157L67.9717 240.158Z" fill="#1A2849"/>
<path d="M203.946 161.399C204.349 162.052 203.575 163.508 202.995 163.933C202.416 164.357 201.531 164.341 201.02 165.156C200.563 165.887 201.075 166.593 202.016 166.133C203.652 165.334 204.587 162.098 207.414 162.948C212.095 164.355 208.404 173.065 203.894 171.605C203.027 171.325 204.139 169.238 204.569 168.932C205.565 168.226 207.694 169.287 207.159 166.259C204.151 165.773 203.718 170.115 200.597 169.276C196.465 168.165 199.804 161.306 203.167 161.202C203.351 161.196 203.882 161.296 203.946 161.398V161.399Z" fill="#1A2849"/>
<path d="M163.117 216.167C162.256 216.166 161.689 217.253 160.993 217.363C160.185 217.492 159.847 216.591 159.146 216.698C159.022 216.716 157.059 217.783 156.939 217.876C155.967 218.643 157.169 219.601 156.908 220.092C156.839 220.22 154.689 221.887 154.569 221.805L151.906 211.455C152.035 210.993 154.357 209.5 154.872 209.61C156.224 211.025 162.314 214.138 163.006 215.441C163.132 215.677 163.176 215.904 163.117 216.166V216.167ZM154.811 212.753C154.908 213.744 155.309 216.547 156.767 215.816C158.55 214.92 155.056 212.478 154.811 212.753Z" fill="#1A2849"/>
<path d="M116.831 237.65C117.31 237.136 116.937 235.935 117.373 235.62C117.808 235.306 119.9 234.94 120.081 235.881C120.676 238.987 116.305 241.542 113.513 240.727C111.497 240.14 109.745 236.874 109.781 234.897C109.85 231.321 113.6 229.793 116.717 230.425C117.631 230.61 119.116 231.666 117.968 232.544C115.853 234.167 115.517 232.208 114.137 232.613C111.977 233.248 113.047 238.229 115.306 238.214C115.639 238.211 116.628 237.866 116.832 237.647L116.831 237.65Z" fill="#1A2849"/>
<path d="M103.684 233.797C103.932 234.027 101.823 239.189 101.74 240.065C101.492 242.639 105.077 244.941 99.7973 245.278C99.253 244.275 99.1588 243.083 98.7418 242.046C97.8783 239.896 94.7044 238.559 93.4165 236.609C93.4238 236.352 96.0877 235.747 96.4179 235.799C97.3144 235.937 99.0536 238.541 99.5233 238.2C99.9404 235.514 100.649 233.784 103.683 233.798L103.684 233.797Z" fill="#1A2849"/>
<path d="M121.75 227.228C122.047 227.413 123.963 233.572 124.262 233.767C124.714 234.06 127.412 232.881 127.983 232.577C128.211 232.456 128.014 231.931 128.51 232.086C129.161 232.643 130.06 233.949 129.501 234.787C129.196 235.243 124.079 236.645 123.315 237.406L122.295 237.447L118.598 228.303C119.294 227.992 121.063 226.803 121.749 227.23L121.75 227.228Z" fill="#1A2849"/>
<path d="M170.868 196.623C171.387 196.529 176.384 203.11 177.217 203.936C177.46 204.814 175.333 206.756 174.607 205.794C173.964 204.409 168.929 199.58 168.786 198.637C168.728 198.256 170.643 196.665 170.869 196.623H170.868Z" fill="#1A2849"/>
<path d="M204.661 174.382C205.061 175.069 203.656 177.294 203.163 177.248C202.047 177.143 197.122 172.627 195.525 172.148C194.541 170.99 195.437 170.881 195.75 170.401C196.145 169.796 196.085 168.958 197.134 169.295L204.66 174.384L204.661 174.382Z" fill="#1A2849"/>
<path d="M62.1009 133.471C67.0812 134.229 71.2226 134.19 74.3879 138.675C78.7286 144.827 76.0464 154.771 68.7055 157.206C67.7393 157.527 66.1994 157.523 65.3396 157.878C64.2119 158.343 65.9022 158.547 66.3266 158.73C68.8755 159.83 70.7774 160.677 72.1301 163.08C73.6846 165.84 76.6665 171.283 78.2161 174.488C78.6907 175.469 79.2496 176.729 79.4685 177.762H65.4032C65.2809 177.762 64.8858 177.488 64.7819 177.337L56.8197 162.613C55.4816 160.566 54.0323 159.709 51.5812 159.411C51.0443 159.345 50.4205 159.455 49.8677 159.41V177.763C48.027 177.438 37.7189 178.236 36.8885 177.657C36.7857 177.584 36.7221 177.484 36.694 177.362L36.6414 134.3C36.5105 133.962 36.8713 133.627 36.9044 133.473H62.0997L62.1009 133.471ZM51.5825 142.035C51.0137 142.051 50.4377 142.021 49.8689 142.034V151.579C50.275 151.594 50.6872 151.56 51.0932 151.578C54.6401 151.738 62.529 152.367 63.0781 147.542C63.8474 140.793 56.0442 141.909 51.5825 142.035Z" fill="#1A2849"/>
<path d="M159.453 133.471L176.091 177.761L162.564 177.774C162.564 177.774 160.827 172.72 160.287 170.65H143.953C143.218 172.073 142.043 175.791 141.187 177.714L128 177.681C128.932 175.962 129.832 173.46 130.248 172.235C134.136 162.465 144.831 133.369 144.831 133.369L159.454 133.471H159.453ZM150.183 149.364C148.868 153.254 147.355 158.597 146.447 161.102L157.245 161.081C157.245 161.081 155.819 155.514 155.04 152.937C154.289 150.45 152.377 144.695 151.981 143.866C151.981 143.866 150.616 148.084 150.183 149.362V149.364Z" fill="#1A2849"/>
<path d="M124.588 146.049L113.32 148.536C112.999 147.97 112.719 147.276 112.374 146.68C108.443 139.895 98.7907 141.333 96.4693 148.64C95.1227 152.877 94.8989 155.952 95.711 160.142C96.3054 163.208 96.6479 165.101 99.412 167.232C101.006 168.461 102.999 168.638 104.84 168.638C109.601 168.638 111.99 165.863 113.716 159.937C115.552 160.44 124.311 163.394 124.931 163.604C125.159 163.681 124.035 166.856 123.7 167.602C121.524 172.436 117.823 176.105 112.61 177.42C99.8523 180.638 86.6908 176.921 83.2638 163.078C81.3521 155.352 82.3416 147.68 84.6079 143.258C85.7515 141.028 87.58 139.147 89.4978 137.506C97.5382 130.62 114.548 130.89 121.403 139.609C122.557 141.077 124.843 145.875 124.591 146.049H124.588Z" fill="#1A2849"/>
<path d="M68.8595 188.641H67.0066V182.821C66.3302 183.348 65.5316 183.738 64.613 183.992V182.59C65.0962 182.457 65.6221 182.208 66.1884 181.84C66.7559 181.471 67.1448 181.042 67.3552 180.551H68.8583V188.641H68.8595Z" fill="#1A2849"/>
<path d="M71.6677 186.778L73.4608 186.612C73.5048 186.917 73.6185 187.142 73.8032 187.289C73.9879 187.436 74.2313 187.509 74.5346 187.509C74.9174 187.509 75.2428 187.362 75.5106 187.07C75.7785 186.776 75.9497 186.168 76.0255 185.246C75.5595 185.696 74.9774 185.922 74.2778 185.922C73.517 185.922 72.8614 185.678 72.3098 185.188C71.7582 184.699 71.4818 184.063 71.4818 183.278C71.4818 182.494 71.7729 181.803 72.3551 181.302C72.9373 180.802 73.6797 180.552 74.5799 180.552C75.5595 180.552 76.3643 180.868 76.993 181.501C77.6216 182.133 77.936 183.172 77.936 184.619C77.936 186.067 77.6082 187.154 76.9538 187.807C76.2983 188.459 75.4458 188.785 74.3952 188.785C73.6393 188.785 73.0278 188.618 72.5618 188.282C72.0958 187.947 71.7974 187.447 71.6653 186.779L71.6677 186.778ZM75.8616 183.403C75.8616 182.905 75.7247 182.519 75.4495 182.243C75.1743 181.968 74.8575 181.831 74.4967 181.831C74.1359 181.831 73.8693 181.944 73.643 182.169C73.4167 182.394 73.303 182.763 73.303 183.276C73.303 183.789 73.4265 184.179 73.6723 184.422C73.9182 184.666 74.2264 184.788 74.5958 184.788C74.9651 184.788 75.2513 184.671 75.4959 184.436C75.7393 184.201 75.8616 183.857 75.8616 183.402V183.403Z" fill="#1A2849"/>
<path d="M82.2693 180.55C83.2049 180.55 83.9375 180.829 84.4647 181.386C85.0933 182.045 85.4077 183.139 85.4077 184.667C85.4077 186.195 85.0909 187.287 84.4586 187.953C83.9351 188.503 83.2061 188.778 82.2693 188.778C81.3324 188.778 80.5704 188.477 79.9943 187.874C79.4183 187.271 79.1309 186.196 79.1309 184.65C79.1309 183.103 79.4476 182.041 80.08 181.375C80.6034 180.825 81.3324 180.55 82.2693 180.55ZM82.2693 181.831C82.0454 181.831 81.8449 181.891 81.6687 182.01C81.4926 182.128 81.3568 182.342 81.2602 182.65C81.133 183.048 81.0694 183.721 81.0694 184.667C81.0694 185.613 81.1269 186.262 81.2407 186.615C81.3544 186.968 81.4987 187.203 81.6724 187.321C81.8461 187.438 82.0454 187.497 82.2693 187.497C82.4931 187.497 82.6937 187.437 82.8698 187.318C83.0459 187.2 83.1817 186.986 83.2783 186.678C83.4055 186.283 83.4691 185.613 83.4691 184.667C83.4691 183.721 83.4116 183.073 83.2979 182.719C83.1829 182.366 83.0398 182.13 82.8661 182.011C82.6924 181.892 82.4931 181.832 82.2693 181.832V181.831Z" fill="#1A2849"/>
<path d="M89.779 180.55C90.7147 180.55 91.4473 180.829 91.9745 181.386C92.6031 182.045 92.9174 183.139 92.9174 184.667C92.9174 186.195 92.6007 187.287 91.9683 187.953C91.4449 188.503 90.7159 188.778 89.779 188.778C88.8422 188.778 88.0802 188.477 87.5041 187.874C86.928 187.271 86.6406 186.196 86.6406 184.65C86.6406 183.103 86.9574 182.041 87.5897 181.375C88.1132 180.825 88.8422 180.55 89.779 180.55ZM89.779 181.831C89.5552 181.831 89.3546 181.891 89.1785 182.01C89.0024 182.128 88.8666 182.342 88.77 182.65C88.6428 183.048 88.5792 183.721 88.5792 184.667C88.5792 185.613 88.6367 186.262 88.7504 186.615C88.8642 186.968 89.0085 187.203 89.1822 187.321C89.3559 187.438 89.5552 187.497 89.779 187.497C90.0029 187.497 90.2034 187.437 90.3796 187.318C90.5557 187.2 90.6914 186.986 90.7881 186.678C90.9153 186.283 90.9789 185.613 90.9789 184.667C90.9789 183.721 90.9214 183.073 90.8076 182.719C90.6927 182.366 90.5496 182.13 90.3759 182.011C90.2022 181.892 90.0029 181.832 89.779 181.832V181.831Z" fill="#1A2849"/>
</svg>
