<svg width="256" height="256" viewBox="0 0 256 256" fill="none" xmlns="http://www.w3.org/2000/svg">
<path d="M177.837 224.053C192.265 199.725 202.717 173.883 207.883 145.837H48.5946C53.707 173.8 64.1743 199.65 78.5875 223.992C77.8074 224.227 77.7771 224.25 77.2469 223.477C74.2249 219.062 71.0514 214.737 68.2339 210.2C55.6308 189.925 47.1934 167.998 42.649 144.564C41.0055 136.066 39.9376 127.5 39.5361 118.843C38.9075 105.248 40.2784 91.8343 42.9899 78.542C47.3904 56.9335 55.0704 36.5595 66.454 17.6625C69.7941 12.1108 73.6038 6.84686 77.2242 1.46935C77.4969 1.06793 78.6102 0.719526 78.7087 0.825561C78.3906 1.34816 78.0725 1.87077 77.7619 2.39337C64.6893 24.5396 55.0704 48.0644 49.7307 73.263C47.6251 83.2076 46.3451 93.2734 46.277 103.46C46.2543 106.422 46.277 109.383 46.277 112.428H136.831V91.1527C131.196 92.4024 125.796 93.6066 120.464 94.7882C120.805 95.7122 121.327 96.6968 121.539 97.7496C122.327 101.673 120.668 104.422 116.844 105.573C115.715 105.914 114.95 106.346 114.882 107.687C114.859 108.103 114.299 108.792 113.928 108.83C112.799 108.951 111.64 108.853 110.497 108.762C110.3 108.747 110.004 108.406 109.959 108.179C109.785 107.27 109.111 106.982 108.361 106.937C107.088 106.861 105.808 106.937 104.536 106.907C100.81 106.8 97.0756 106.71 93.3492 106.535C91.8268 106.467 91.2588 106.755 90.7664 108.232C90.4483 109.171 89.6303 109.148 88.873 109.148C87.3279 109.148 86.6462 108.293 86.7068 106.808C86.7295 106.323 86.2675 105.816 86.0176 105.324C85.9873 105.271 85.904 105.225 85.8358 105.21C80.7612 104.324 77.3605 100.613 73.4145 97.8253C72.1951 96.9619 71.0666 95.9697 69.9229 95.0154C68.9231 94.1898 68.5066 94.1898 67.7113 95.0911C66.5752 96.3863 64.8938 96.1136 64.2803 94.4473C64.0455 93.796 64.0152 92.9931 64.1288 92.3039C64.3788 90.8118 64.144 89.5091 63.0003 88.4866C60.3721 86.1387 60.1979 83.3212 61.6673 80.4052C63.6138 76.5501 65.7042 72.7631 67.8931 69.0443C68.7868 67.5219 69.0746 66.2495 67.9991 64.7347C67.2796 63.7198 66.9993 62.5307 67.6053 61.3037C68.1885 60.1221 69.2867 59.5314 70.5364 60.2812C72.4526 61.44 73.9674 61.2734 75.7397 59.9858C76.9667 59.0921 78.5572 59.3193 80.0038 59.7207C80.9051 59.9706 81.6625 59.8343 82.5335 59.5086C83.5712 59.1299 84.7376 59.0693 85.8509 58.9633C86.4266 58.9103 86.8204 58.8421 87.1915 58.2817C90.2969 53.5404 94.3111 49.6625 99.1735 46.845C102.779 44.7546 105.437 42.1112 107.459 38.4303C112.451 29.3491 118.487 20.9572 125.342 13.1787C125.826 12.6258 126.281 12.0123 126.872 11.6109C127.508 11.1716 128.28 10.6793 129.007 10.6566C131.969 10.5581 134.945 10.6263 137.907 10.6338C138.036 10.6338 138.172 10.702 138.414 10.7778C131.976 19.0637 124.561 26.5316 119.866 36.249C121.199 35.9157 122.38 35.6052 123.569 35.3325C127.697 34.3631 131.787 33.1512 135.96 32.5075C140.83 31.7576 145.784 31.5077 150.699 31.0381C150.919 31.0154 151.139 31.0078 151.358 31.0305C152.926 31.2123 153.668 30.4549 154.373 29.0386C156.774 24.1837 159.394 19.4348 161.931 14.648C162.431 13.7089 162.863 12.7243 163.461 11.8533C163.802 11.3609 164.393 10.7399 164.9 10.7172C167.423 10.596 169.952 10.6566 172.474 10.6717C172.709 10.6717 172.944 10.8232 173.323 10.952C173.095 11.467 172.929 11.9366 172.686 12.3759C169.377 18.3744 166.317 24.4866 163.802 30.8639C163.355 32 163.484 32.2727 164.779 32.356C168.354 32.5832 171.573 33.7799 174.444 35.8854C179.086 39.3013 181.321 44.035 179.753 49.6473C177.276 58.524 172.861 66.151 165.84 72.2178C161.235 76.1941 156.804 80.3673 151.699 83.7302C151.245 84.0256 150.828 84.6769 150.76 85.2147C149.949 91.5995 150.161 98.0147 150.26 104.43C150.298 106.816 150.343 109.194 150.351 111.58C150.351 112.292 150.593 112.526 151.313 112.526C170.702 112.511 190.091 112.511 209.473 112.511C209.647 112.511 209.829 112.481 210.064 112.458C210.064 107.952 210.231 103.483 210.034 99.0296C209.155 79.0722 204.361 59.9555 197.378 41.3387C192.159 27.4178 185.797 14.0421 178.064 1.33302C177.95 1.15124 177.859 0.954319 177.761 0.764969C177.837 0.674082 178.92 1.02248 179.208 1.41633C185.312 9.55834 190.69 18.1548 195.378 27.183C203.588 43.005 209.496 59.6525 213.184 77.0878C214.813 84.7981 216.138 92.569 216.54 100.446C216.858 106.702 217.093 112.981 216.896 119.237C216.585 129.212 215.085 139.073 212.965 148.821C209.397 165.211 203.884 180.919 196.302 195.893C191.409 205.565 185.736 214.752 179.253 223.432C178.685 224.197 178.677 224.189 177.837 224.053ZM118.979 92.9856C124.827 92.3948 130.265 91.3117 135.612 89.7439C136.437 89.5015 136.763 89.032 136.854 88.1837C137.24 84.6542 137.551 81.1172 138.149 77.618C138.649 74.6717 139.512 71.786 140.209 68.8701C140.565 67.378 140.452 67.2568 138.907 67.2265C136.786 67.1811 134.665 67.1281 132.544 67.0675C124.569 66.8478 116.601 66.6357 108.626 66.3782C107.732 66.3479 107.331 66.6433 107.05 67.4613C105.248 72.8312 103.415 78.1936 101.559 83.5484C101.309 84.2604 101.415 84.7299 102.097 85.0556C104.369 86.1236 106.596 87.343 108.936 88.2215C112.095 89.4107 115.208 90.6528 117.957 92.6599C118.298 92.9098 118.813 92.925 118.979 92.9704V92.9856ZM115.473 93.3415C113.019 91.4253 109.361 89.6985 106.528 89.1834C106.073 89.1001 105.437 89.2592 105.096 89.547C104.165 90.3347 103.339 91.2587 102.483 92.1373C102.294 92.3342 102.158 92.5841 101.991 92.8038C102.249 92.9628 102.491 93.2204 102.771 93.2658C103.672 93.4097 104.589 93.4779 105.498 93.5763C107.634 93.8111 109.61 93.0613 111.633 92.5766C111.936 92.5008 112.542 92.675 112.61 92.8644C112.708 93.1598 112.579 93.7354 112.337 93.902C111.693 94.3565 110.974 94.8109 110.216 94.9851C107.762 95.5531 105.293 96.1212 102.801 96.462C96.8559 97.2724 92.107 95.1441 88.623 90.2589C87.1309 88.1685 85.7525 86.0099 84.3059 83.8892C84.0711 83.5484 83.7681 83.2606 83.344 82.7683C83.344 83.609 83.3591 84.177 83.344 84.7451C83.2985 86.0554 83.4121 87.396 83.1546 88.6684C82.5108 91.9101 80.5416 94.5231 78.7769 97.2118C78.6632 97.386 78.4663 97.5754 78.277 97.6208C77.9816 97.689 77.6105 97.7344 77.3681 97.6133C77.2318 97.5375 77.1863 97.0604 77.2848 96.8331C77.5196 96.2575 77.8528 95.7273 78.1482 95.182C79.095 93.4476 80.125 91.7586 80.9733 89.9787C81.814 88.2291 82.1397 86.3432 81.708 84.4118C81.193 82.0866 79.9735 80.2462 77.8831 79.0192C77.1788 78.6026 76.3229 78.2315 76.6334 76.9893C78.9738 76.694 79.9887 78.8753 81.8292 79.8372C81.708 79.4206 81.655 79.1479 81.5489 78.898C80.9051 77.4286 80.2159 75.9669 79.61 74.4824C79.4812 74.1718 79.6327 73.7553 79.663 73.3841C80.0796 73.5205 80.6325 73.5356 80.8748 73.8234C81.3444 74.3688 81.6853 75.0428 81.9958 75.7018C84.1468 80.284 86.5932 84.7072 89.4713 88.8729C91.645 92.0085 94.4247 94.364 98.2495 95.2047C99.4235 95.4622 100.635 95.5759 101.809 94.9396C101.453 94.6291 101.082 94.4625 100.688 94.364C98.5449 93.8111 96.2424 93.6445 94.5231 92.0009C93.228 90.7588 91.7359 89.6454 90.7286 88.1988C88.2064 84.5633 85.8888 80.7915 83.5409 77.0424C82.6699 75.6563 82.738 75.6185 83.9272 74.6187C83.9726 74.5808 83.9726 74.4899 84.0105 74.3536C82.632 72.6646 81.0718 71.2331 78.8375 70.5969C76.535 69.9456 74.7324 68.552 73.5508 66.4161C73.369 66.0828 73.0585 65.8253 72.5965 65.28C71.2408 67.378 70.0062 69.3018 68.7565 71.218C68.2188 72.036 68.4233 72.5889 69.2261 73.1266C70.5818 74.0279 71.4907 75.2852 71.9224 76.8757C72.7934 80.0189 69.5063 85.0935 68.908 85.5252C68.6429 85.7297 67.7264 85.6767 67.8098 85.298C67.8855 84.9344 68.2415 84.2906 68.4233 83.9422C69.1428 82.5183 70.0214 81.1323 70.4909 79.6251C71.1196 77.5877 70.0592 75.4897 68.4081 74.808C67.6204 74.4899 66.8933 74.5732 66.4919 75.3231C65.2725 77.6104 63.9925 79.875 63.0003 82.2608C62.2277 84.1089 62.6746 85.9569 64.1515 87.4187C65.636 88.8805 67.0751 90.4104 68.6883 91.7359C72.5056 94.8715 76.4062 97.9162 80.2992 100.969C80.8976 101.438 81.5944 101.84 82.3063 102.082C87.1688 103.733 92.1146 105.18 97.2801 105.149C102.249 105.119 107.225 104.756 112.186 104.445C113.814 104.339 115.465 104.074 117.025 103.627C118.851 103.104 119.949 101.756 120.229 99.8249C120.487 98.0526 119.108 95.3865 117.722 94.9169C116.806 94.6064 115.904 94.2277 114.867 93.8263C115.162 93.5991 115.283 93.5006 115.473 93.3491V93.3415ZM109.724 55.4944C110.3 55.6232 110.603 55.7368 110.913 55.752C113.837 55.8807 116.753 56.0095 119.676 56.0928C122.789 56.1837 125.894 56.1912 129.007 56.2897C133.393 56.4336 137.778 56.6305 142.171 56.7972C143.383 56.8426 144.163 56.3049 144.557 55.1233C145.564 52.1467 146.693 49.2005 147.609 46.1936C147.95 45.0802 147.927 43.823 147.882 42.6338C147.776 39.8391 146.905 37.0594 147.761 34.2419C147.844 33.9768 147.768 33.6738 147.768 33.2724C147.049 33.2724 146.352 33.1967 145.678 33.2876C142.201 33.742 138.71 34.1434 135.256 34.7418C130.181 35.6204 125.13 36.605 120.252 38.3697C118.411 39.0362 117.116 40.0511 116.283 41.8462C114.185 46.3527 111.981 50.8061 109.717 55.4944H109.724ZM66.3707 138.907C64.4621 136.051 62.7276 133.453 60.978 130.825C61.2053 130.689 61.3264 130.613 61.4476 130.537C61.5764 130.462 61.7051 130.393 61.8263 130.318C64.1288 128.765 64.8105 126.538 64.4393 123.91C64.1364 121.774 62.5534 119.956 60.1146 119.691C57.4183 119.396 54.6689 119.623 51.912 119.623V138.891C52.4195 138.891 53.8585 138.922 54.6311 138.922C55.5955 138.922 56.0777 138.452 56.0777 137.513C56.0777 135.513 56.0777 133.415 56.0777 131.416C56.1761 131.378 56.3428 131.401 56.3655 131.401C56.5927 131.689 56.8502 131.961 57.0547 132.272C58.3877 134.249 59.6905 136.24 61.0386 138.21C61.2431 138.513 61.6143 138.876 61.9248 138.891C63.3032 138.967 64.6893 138.922 66.3707 138.922V138.907ZM151.366 81.6776C151.767 81.4504 152.176 81.2914 152.494 81.0187C157.273 76.9212 162.037 72.8085 166.794 68.6883C167.68 67.9233 167.688 67.5749 166.756 66.8705C162.999 64.0151 159.22 61.2052 155.441 58.3801C155.418 58.3574 155.372 58.365 155.334 58.3574C154.486 59.7813 151.055 79.716 151.366 81.6776ZM186.691 138.907C186.759 138.907 186.819 138.846 186.789 138.778C186.259 137.392 181.912 126.569 179.776 121.396C178.814 119.085 178.632 119.381 176.845 119.388C175.958 119.351 175.565 119.669 175.246 120.471C173.058 126.038 168.453 137.634 168.036 138.732C168.021 138.77 168.051 138.808 168.097 138.808C172.815 138.914 171.959 139.308 173.285 136.021C173.535 135.392 173.838 135.104 174.557 135.12C176.458 135.165 178.367 135.15 180.268 135.12C180.859 135.112 181.207 135.256 181.404 135.869C181.662 136.665 182.002 137.445 182.366 138.195C182.502 138.475 182.82 138.854 183.078 138.869C184.229 138.937 185.388 138.907 186.691 138.899V138.907ZM135.983 138.914C136.006 138.46 136.006 137.96 135.983 137.437C135.945 136.627 135.938 135.657 135.869 134.998C135.097 134.976 134.037 134.93 129.401 134.93V130.954H135.9V127.137H129.409V123.228H135.907V119.494H125.13V138.846C125.478 138.869 125.758 138.907 126.046 138.907C129.295 138.907 132.552 138.907 135.991 138.907L135.983 138.914ZM120.971 124.963C120.971 123.668 120.994 122.312 120.949 120.964C120.941 120.714 120.676 120.365 120.441 120.259C118.177 119.26 115.806 118.851 113.375 119.388C108.974 120.358 105.967 124.327 105.877 129.136C105.786 134.014 109.005 138.134 113.685 139.035C116.018 139.482 118.26 138.884 120.472 138.179C120.668 138.119 120.941 137.854 120.949 137.68C120.987 136.278 120.971 134.87 120.971 133.423C119.654 133.923 118.533 134.476 117.343 134.786C114.041 135.65 111.178 134.074 110.519 131.037C110.322 130.121 110.353 129.136 110.421 128.197C110.641 124.955 113.185 122.895 116.382 123.493C117.896 123.781 119.351 124.425 120.987 124.963H120.971ZM93.7051 133.4C92.4251 133.9 91.3648 134.408 90.2514 134.726C86.3433 135.839 83.2531 133.771 83.0259 129.727C82.7532 124.978 85.9191 122.357 90.3575 123.743C91.4557 124.084 92.5009 124.614 93.7051 125.114C93.7051 123.653 93.7279 122.267 93.6824 120.888C93.6824 120.676 93.4173 120.373 93.1977 120.282C90.9407 119.267 88.5624 118.843 86.1312 119.381C81.3369 120.441 78.3073 124.811 78.6254 130.083C78.9511 135.407 83.2228 139.384 88.5321 139.119C90.0772 139.043 91.6147 138.551 93.1371 138.187C93.3643 138.134 93.6673 137.755 93.6749 137.52C93.7279 136.172 93.6976 134.824 93.6976 133.4H93.7051ZM151.313 121.206C149.086 119.229 146.624 118.798 143.996 119.404C141.58 119.956 139.959 121.971 139.8 124.319C139.619 126.993 140.724 128.788 143.186 129.871C144.284 130.356 145.39 130.84 146.45 131.408C147.253 131.84 147.548 132.635 147.238 133.484C146.935 134.324 146.276 134.96 145.337 134.87C144.602 134.801 143.868 134.498 143.193 134.173C142.686 133.93 142.277 133.491 141.762 133.097C140.838 134.173 139.967 135.195 139.103 136.195C142.057 139.694 146.761 140.111 149.881 137.218C152.896 134.43 152.373 130.037 148.783 128.083C147.98 127.652 147.109 127.341 146.314 126.902C145.678 126.553 145.049 126.16 144.526 125.667C143.936 125.099 143.898 124.349 144.375 123.66C144.648 123.266 144.981 122.994 145.382 122.895C145.632 122.835 145.867 122.865 146.276 122.971C146.723 123.092 148.48 123.993 148.791 123.971C149.548 123.145 150.555 122.009 151.32 121.183L151.313 121.206ZM201.377 121.471C201.483 121.35 201.475 121.161 201.354 121.055C199.18 119.131 195.734 118.51 193.318 119.775C192.333 120.29 191.371 121.161 190.811 122.115C189.061 125.076 190.311 128.485 193.447 129.863C194.552 130.348 195.689 130.795 196.703 131.431C197.787 132.113 197.961 133.34 197.052 134.249C196.219 135.089 195.242 135.12 194.303 134.642C193.636 134.302 193.03 133.847 192.356 133.378C192.167 133.249 191.917 133.279 191.765 133.453L189.645 135.945C189.478 136.142 189.501 136.453 189.705 136.627C190.099 136.968 190.44 137.271 190.803 137.528C194.598 140.24 199.21 139.444 201.392 135.733C202.301 134.173 202.513 132.287 201.717 130.666C200.642 128.492 198.567 127.962 196.757 126.978C196.12 126.629 195.454 126.281 194.916 125.804C194.28 125.228 194.197 124.44 194.659 123.706C195.113 122.978 195.908 122.729 196.764 123.062C197.332 123.304 198.786 124.327 199.157 123.91C199.839 123.274 200.68 122.267 201.384 121.471H201.377ZM167.354 119.51H154.32C154.32 120.593 154.312 121.577 154.304 122.554C154.297 123.668 154.123 123.554 154.6 123.569C155.713 123.584 157.554 123.577 158.712 123.577V124.955C158.712 129.25 158.864 137.945 158.864 138.914C158.864 139.02 161.666 138.914 162.961 138.914V123.592H167.354V119.51ZM91.948 71.9981C95.2048 63.6819 98.3404 55.6762 101.476 47.6705C96.2879 50.6698 92.2434 55.2899 87.4945 59.1375C88.9335 59.5389 90.2817 60.0615 90.6301 61.6293C90.9331 63.0078 91.0315 64.4393 91.2057 65.8405C91.4481 67.8173 91.6829 69.7941 91.948 71.9981ZM81.8746 65.6587C82.0185 67.0599 82.0715 68.0521 82.2382 69.0215C82.8289 72.4601 84.7148 73.7098 88.0928 72.9448C88.4867 72.854 88.8654 72.7328 89.2592 72.6646C90.365 72.4753 90.4786 71.8693 90.2817 70.8393C89.8651 68.658 89.4864 66.454 89.3425 64.2424C89.1077 60.6978 88.6533 60.213 85.0935 60.4933C83.8893 60.5917 82.9577 61.1446 82.6093 62.3186C82.2533 63.5304 82.0564 64.7953 81.8746 65.6587ZM80.5492 69.529C80.4583 67.8854 80.3371 66.3252 80.3144 64.7574C80.2992 63.7728 80.4962 62.7882 80.4886 61.8035C80.4886 61.5006 80.1856 61.0234 79.9205 60.9325C78.3603 60.4251 77.1409 61.1446 76.1108 62.2353C75.0732 63.3411 74.49 64.6135 75.1035 66.1434C75.823 67.9385 78.5042 69.6047 80.5492 69.529ZM99.1735 85.4722C97.9617 86.4189 96.9014 87.3808 95.7122 88.1155C95.2957 88.373 94.2656 88.3048 94.0157 87.9867C93.5688 87.4263 93.9778 86.7522 94.614 86.3583C95.1745 86.0099 95.7274 85.6615 96.2803 85.3056C96.6666 85.0556 97.0377 84.783 97.5224 84.4497C97.1664 84.1316 96.9317 83.9347 96.553 83.6014C95.5986 85.6161 93.5461 85.8433 91.7283 86.737C92.357 87.4641 92.8038 88.1534 93.4022 88.6533C94.9927 89.9787 96.6135 91.2814 98.2874 92.4933C98.9918 93.0007 99.8401 92.7811 99.9688 91.8419C100.09 90.9179 100.65 90.6376 101.317 90.3195C101.908 90.0393 102.544 89.8045 103.074 89.4334C103.468 89.1607 103.733 88.6987 104.059 88.32C103.551 88.0095 103.074 87.5702 102.529 87.4414C102.226 87.3733 101.764 87.7747 101.438 88.0398C100.522 88.8956 99.4992 89.7893 98.1435 90.5543C97.8178 90.7361 96.7575 89.7969 97.0225 89.4561C97.4618 88.9032 98.2798 88.2367 98.8554 87.7898C99.4083 87.3581 99.9385 86.9037 100.613 86.3432C99.9309 85.9342 99.4765 85.654 99.166 85.4646L99.1735 85.4722ZM72.3617 134.332C71.0893 134.332 69.9608 135.453 69.938 136.71C69.9153 137.982 71.1272 139.172 72.4147 139.134C73.6947 139.103 74.7854 137.975 74.7702 136.71C74.7551 135.445 73.619 134.324 72.3617 134.332ZM97.2952 136.763C97.3028 138.073 98.3631 139.134 99.6583 139.134C100.931 139.134 102.037 138.043 102.052 136.763C102.074 135.453 100.916 134.309 99.6053 134.332C98.3025 134.355 97.2801 135.43 97.2952 136.756V136.763ZM92.6069 79.5191C91.3724 80.1401 90.259 80.6779 89.1759 81.2762C88.9866 81.3822 88.7821 81.7837 88.8427 81.9579C89.2895 83.3136 89.8651 84.6088 90.8725 85.3889C92.4403 84.4194 93.8718 83.5333 95.3033 82.6471C94.9776 82.4653 94.6292 82.435 94.3338 82.5411C93.4022 82.8667 92.5085 83.306 91.5693 83.5711C91.2436 83.662 90.5468 83.7529 90.312 83.2227C90.0999 82.6244 91.486 81.4959 91.8192 81.3444C92.304 81.1247 92.7963 80.9202 93.4022 80.6627C93.0841 80.2007 92.8341 79.8523 92.5993 79.5191H92.6069ZM84.889 75.0277C84.9269 76.6409 86.0403 77.4059 87.6081 76.7318C88.676 76.2774 89.7591 75.8381 90.8043 75.3458C91.0618 75.2246 91.2209 74.8838 91.433 74.649C91.1224 74.4975 90.7892 74.187 90.4938 74.2249C88.6609 74.4445 86.8431 74.7399 84.8966 75.0353L84.889 75.0277ZM71.7634 63.3335C71.5437 62.3716 70.8772 61.6975 70.0668 61.6596C69.3246 61.6218 68.7414 62.2353 68.7262 63.0684C68.7111 63.9697 69.6805 65.3179 70.2107 65.0301C70.8469 64.6892 71.2559 63.9167 71.7634 63.3335ZM91.3345 76.8227C90.6831 77.2923 90.1454 77.6862 89.6001 78.0724C91.077 78.2466 91.6072 77.8452 91.3345 76.8227Z" fill="#154282"/>
<path d="M90.418 97.0907C93.1598 97.1664 96.5832 100.855 96.8029 103.574C96.8332 103.945 96.0606 104.286 95.7956 103.998C95.5078 103.68 94.9927 102.832 94.8109 102.438C93.9172 100.423 92.3418 99.4234 90.1908 99.2568C89.4183 99.1962 88.7821 98.9841 88.8578 98.0374C88.9411 97.0528 89.6985 97.0907 90.4105 97.0907H90.418Z" fill="#154282"/>
<path d="M86.9037 90.9785C88.0019 92.4175 87.8732 93.7657 87.2067 94.9169C86.1236 96.7725 84.8285 98.507 83.5485 100.234C83.344 100.507 82.7608 100.491 82.3518 100.605C82.3215 100.135 82.1094 99.5749 82.2912 99.2265C82.8668 98.1283 83.6393 97.1361 84.2453 96.0454C84.8966 94.8639 85.4268 93.6218 86.0327 92.4175C86.2524 91.9782 86.5477 91.5692 86.9037 90.986V90.9785Z" fill="#154282"/>
<path d="M56.1686 122.933C57.5698 122.963 58.9255 122.842 59.8117 124.092C60.4176 124.955 60.3418 125.932 59.7814 126.773C58.9103 128.083 57.5395 127.886 56.161 127.841V122.933H56.1686Z" fill="#154282"/>
<path d="M175.239 131.431C175.315 131.12 175.345 130.946 175.405 130.787C176.019 129.227 176.64 127.674 177.337 125.917C178.117 127.841 178.829 129.575 179.586 131.431H175.239Z" fill="#154282"/>
<path d="M123.312 184.638C123.312 184.782 123.312 184.934 123.312 185.077C123.312 187.319 122.918 187.812 120.6 188.448C119.085 188.864 117.654 188.289 116.836 186.744C115.314 183.85 115.215 180.828 116.594 177.875C117.73 175.436 120.32 175.375 121.774 177.647C122.721 179.124 123.304 181.783 123.312 184.631V184.638Z" fill="#154282"/>
<path d="M152.562 184.744C152.6 187.244 152.04 187.963 149.616 188.524C148.071 188.88 146.624 188.077 145.806 186.267C144.587 183.563 144.564 180.806 145.708 178.079C146.155 177.011 146.852 176.148 148.2 176.08C149.601 176.004 150.502 176.716 151.101 177.844C152.252 179.995 152.509 182.351 152.555 184.744H152.562Z" fill="#154282"/>
<path d="M149.518 163.386C149.518 161.522 147.526 161.318 146.67 161.318H145.625V165.431C145.875 165.461 146.223 165.468 146.685 165.468C147.745 165.468 149.518 165.196 149.518 163.386Z" fill="#154282"/>
<path d="M129.946 159.886C129.621 159.553 129.182 159.387 128.629 159.387C127.273 159.387 126.682 160.591 126.508 161.454H130.545C130.522 161.06 130.409 160.364 129.939 159.879L129.946 159.886Z" fill="#154282"/>
<path d="M166.233 158.493C166.067 158 165.93 157.538 165.817 157.092C165.68 157.599 165.552 158.046 165.415 158.47L164.347 161.621H167.294L166.233 158.493Z" fill="#154282"/>
<path d="M149.146 157.925C149.146 156.789 148.344 156.213 146.761 156.213C146.306 156.213 145.92 156.236 145.632 156.281V159.697H146.799C148.23 159.697 149.154 159 149.154 157.932L149.146 157.925Z" fill="#154282"/>
<path d="M89.2667 163.386C89.2667 161.522 87.2748 161.318 86.4189 161.318H85.3737V165.431C85.6237 165.461 85.9721 165.468 86.4341 165.468C87.4944 165.468 89.2667 165.196 89.2667 163.386Z" fill="#154282"/>
<path d="M64.4166 159.394C63.0608 159.394 62.47 160.598 62.2958 161.462H66.3328C66.31 161.068 66.1964 160.371 65.7269 159.886C65.4012 159.553 64.9619 159.387 64.409 159.387L64.4166 159.394Z" fill="#154282"/>
<path d="M94.4019 184.926C94.1141 184.699 93.69 184.585 93.1825 184.578H93.1749C92.3948 184.578 91.6071 184.949 91.5996 185.789C91.5996 186.304 91.9783 186.766 92.516 186.903C92.5993 186.925 92.7205 186.956 92.819 186.956H93.6521C93.7657 186.956 93.8717 186.941 93.9702 186.925C94.4701 186.797 94.8185 186.35 94.8185 185.827C94.8185 185.441 94.6746 185.138 94.3943 184.918L94.4019 184.926Z" fill="#154282"/>
<path d="M91.5162 191.235C91.5162 191.879 92.0464 192.197 92.4857 192.318V190.258C92.2812 190.281 91.9783 190.356 91.7662 190.561C91.5996 190.728 91.5162 190.955 91.5087 191.235H91.5162Z" fill="#154282"/>
<path d="M200.278 148.018C151.76 148.018 103.248 148.018 54.7295 148.018H53.245C53.8055 152.229 54.2372 156.228 54.881 160.197C57.1683 174.353 61.7884 187.728 68.7262 200.271C80.6779 221.879 97.1513 239.209 117.949 252.524C124.546 256.75 133.135 255.955 138.846 251.978C149.253 244.73 158.811 236.467 167.415 227.136C179.132 214.434 188.554 200.263 194.765 184.07C199.029 172.944 201.687 161.477 201.702 149.487C201.702 148.018 201.702 148.018 200.271 148.018H200.278ZM164.764 154.653H166.945L166.998 154.804L171.172 167.021H169.043L167.771 163.272H163.878L162.643 167.021H160.568L164.772 154.645L164.764 154.653ZM153.214 154.653H155.213V165.279H160.303V167.029H153.214V154.653ZM143.633 154.857L143.814 154.819C144.557 154.66 145.647 154.569 146.67 154.569C148.245 154.569 149.298 154.85 150.086 155.486C150.783 156.009 151.161 156.796 151.161 157.766C151.161 158.856 150.54 159.818 149.503 160.371C150.563 160.81 151.601 161.795 151.601 163.408C151.601 164.408 151.237 165.264 150.525 165.961C149.654 166.756 148.26 167.142 146.246 167.142C145.057 167.142 144.216 167.051 143.83 166.998L143.633 166.968V154.857ZM144.034 176.685C146.321 173.55 150.495 173.451 153.009 176.42C154.933 178.693 155.494 181.427 155.539 184.305C155.6 188.637 154.463 192.553 151.525 195.84C149.457 198.15 146.859 199.415 143.799 199.816C142.694 199.96 142.921 199.142 142.656 198.536C147.897 196.62 150.336 194.28 152.047 189.584C151.101 189.872 150.199 190.281 149.253 190.417C145.579 190.947 143.299 189.417 142.375 185.774C141.55 182.517 142.035 179.42 144.034 176.685ZM140.497 176.329C139.467 180.139 138.429 183.949 137.392 187.759C136.49 191.076 135.574 194.393 134.673 197.703C134.15 199.604 134.082 199.301 131.583 199.188C133.658 192.008 135.741 184.82 137.846 177.534C135.529 177.534 133.287 177.435 131.052 177.572C129.871 177.647 129.583 178.92 129.159 179.814C128.682 180.821 128.053 180.934 127.046 180.472C127.644 178.67 128.212 176.867 128.879 175.11C128.962 174.89 129.545 174.754 129.894 174.747C133.006 174.716 136.119 174.731 139.232 174.731C140.838 174.731 140.906 174.807 140.497 176.314V176.329ZM133.014 158.016H134.339V156.016L136.316 155.486V158.016H138.543V159.659H136.316V164.045C136.316 165.302 136.763 165.476 137.255 165.476C137.657 165.476 137.929 165.423 138.096 165.378L138.369 165.302L138.467 166.915L138.316 166.976C137.96 167.12 137.437 167.203 136.846 167.203C136.051 167.203 135.415 166.953 134.991 166.468C134.544 166.006 134.332 165.249 134.332 164.09V159.652H133.006V158.008L133.014 158.016ZM128.75 157.819C131.529 157.819 132.514 160.114 132.514 162.083C132.514 162.363 132.491 162.59 132.469 162.757L132.438 163.037H126.463C126.614 165.302 128.386 165.552 129.159 165.552C130.28 165.552 130.916 165.347 131.439 165.128L131.689 165.022L132.06 166.582L131.885 166.658C131.333 166.907 130.371 167.21 128.947 167.21C126.25 167.21 124.508 165.431 124.508 162.666C124.508 159.902 126.25 157.819 128.75 157.819ZM123.993 176.678C125.599 178.715 126.19 181.101 126.288 183.646C126.493 188.63 125.205 193.068 121.532 196.62C119.563 198.529 117.162 199.506 114.473 199.832C113.776 199.915 113.761 199.862 113.481 198.438C118.419 197.408 121.017 193.947 122.91 189.523C122.092 189.811 121.403 190.114 120.691 190.303C117.131 191.243 114.374 189.788 113.307 186.32C112.314 183.07 112.685 179.92 114.556 177.064C116.889 173.497 121.35 173.338 123.993 176.693V176.678ZM109.982 154.653H111.996V161.939C111.996 164.241 112.898 165.514 114.541 165.514C116.745 165.514 117.215 163.575 117.215 161.939V154.653H119.229V161.833C119.229 165.256 117.503 167.226 114.496 167.226C111.489 167.226 109.989 165.34 109.989 161.909V154.66L109.982 154.653ZM101.302 154.653H108.194V156.402H103.294V159.712H107.929V161.447H103.294V165.287H108.459V167.036H101.302V154.653ZM101.499 176.716C103.18 175.951 104.824 175.087 106.687 174.156V175.625C106.687 182.146 106.687 188.675 106.687 195.196C106.687 197.029 106.99 197.37 108.838 197.438C109.497 197.461 109.838 197.582 109.838 198.355C109.838 199.18 109.383 199.203 108.785 199.203C106.195 199.195 103.604 199.203 101.014 199.203C100.666 197.961 100.923 197.431 102.12 197.4C103.369 197.378 103.938 196.794 103.945 195.545C103.983 190.008 103.968 184.479 103.96 178.943C103.96 178.102 103.491 177.837 102.733 178.034C102.074 178.2 101.415 178.405 100.741 178.594C100.423 177.678 100.62 177.125 101.506 176.723L101.499 176.716ZM92.9629 154.653H94.9624V165.279H100.052V167.029H92.9629V154.653ZM88.2519 194.318L94.3565 194.34C94.8639 194.34 95.3184 194.325 95.591 194.303L95.841 194.28V195.545L95.3865 195.567C95.7425 195.946 95.947 196.469 95.9394 197.044C95.9394 197.688 95.6668 198.271 95.1745 198.695C94.6897 199.112 94.0005 199.339 93.2507 199.339H93.228C92.3569 199.339 91.592 199.051 91.077 198.536C90.6452 198.105 90.4104 197.529 90.4104 196.923C90.4104 196.431 90.5543 195.999 90.8043 195.666H88.2519V194.318ZM88.6684 176.36C88.6684 176.14 88.7517 175.943 88.9032 175.799C89.0471 175.663 89.244 175.58 89.4713 175.587C89.6682 175.587 89.8575 175.663 89.9939 175.792C90.1454 175.936 90.2287 176.148 90.2287 176.383C90.2287 176.807 89.8878 177.14 89.4561 177.14C89.2289 177.14 89.0396 177.057 88.8956 176.913C88.7517 176.769 88.676 176.572 88.676 176.352L88.6684 176.36ZM95.1972 192.992C94.72 193.447 94.0535 193.681 93.2734 193.681H93.2582C91.5844 193.681 90.4104 192.644 90.418 191.167C90.418 190.387 90.7361 189.773 91.3345 189.379C91.948 188.978 92.6599 188.933 92.9401 188.94C93.1143 188.94 93.2507 188.955 93.3491 188.97L93.5536 188.993L93.5839 189.198V192.364C94.6746 192.242 94.8033 191.341 94.8033 190.947C94.8033 190.326 94.6973 189.978 94.5761 189.69L94.4701 189.44L95.5532 189.19L95.6289 189.364C95.7728 189.69 95.947 190.25 95.947 191.076C95.947 191.864 95.6819 192.53 95.1972 192.992ZM92.3569 188.296C91.7359 188.296 91.2436 188.311 90.7816 188.327H90.5392V187.085L91.0088 187.062C90.6301 186.66 90.4332 186.13 90.4332 185.517C90.4332 184.199 91.5693 183.237 93.1219 183.237H93.1371C95.0836 183.237 95.9697 184.509 95.9697 185.683C95.9697 186.176 95.8183 186.63 95.5456 186.963H97.8405V188.304L92.3494 188.289L92.3569 188.296ZM94.1444 179.465C94.0459 179.427 93.9096 179.405 93.7809 179.405L90.5695 179.389V178.049L94.3338 178.064C94.8867 178.064 95.3032 178.056 95.644 178.034L95.894 178.018V179.268L95.4471 179.298C95.7274 179.594 96 180.063 95.9925 180.73C95.9925 181.298 95.7577 182.631 93.6445 182.631H93.6294L90.5619 182.616V181.275L93.4855 181.283H93.5006C93.9399 181.283 94.2656 181.215 94.4852 181.078C94.7049 180.942 94.8033 180.738 94.8033 180.427C94.8033 179.927 94.4474 179.601 94.1444 179.473V179.465ZM90.5846 177.041V175.701L95.9091 175.724V177.064L90.5846 177.041ZM91.7435 173.459C91.8192 173.542 91.9177 173.595 92.0388 173.595C92.2585 173.595 92.3948 173.489 92.6448 172.823C92.9023 172.164 93.3188 171.406 94.3186 171.406H94.3262C95.3487 171.406 96.0076 172.217 96 173.459C96 174.012 95.8637 174.55 95.6289 174.936L95.538 175.095L94.4095 174.716L94.5761 174.466C94.7352 174.224 94.8942 173.815 94.8942 173.429C94.8942 173.164 94.8336 172.951 94.7125 172.838C94.6291 172.755 94.5307 172.709 94.4019 172.717C94.1368 172.717 93.9626 172.83 93.7278 173.467C93.3037 174.648 92.6296 174.898 92.1373 174.898C91.1754 174.898 90.4862 174.088 90.4938 172.989C90.4938 172.512 90.6149 172.035 90.8346 171.679L90.933 171.52L92.0237 171.899L91.8646 172.141C91.7889 172.255 91.6147 172.573 91.6147 173.012C91.6147 173.201 91.6601 173.36 91.751 173.467L91.7435 173.459ZM83.3818 154.857L83.5636 154.819C84.3058 154.66 85.3965 154.569 86.419 154.569C87.9943 154.569 89.0471 154.85 89.8348 155.486C90.5316 156.009 90.9103 156.796 90.9103 157.766C90.9103 158.856 90.2893 159.818 89.2516 160.371C90.312 160.81 91.3496 161.795 91.3496 163.408C91.3496 164.408 90.9861 165.264 90.2741 165.961C89.4031 166.756 88.0095 167.142 85.9948 167.142C84.8057 167.142 83.965 167.051 83.5787 166.998L83.3818 166.968V154.857ZM71.5285 158.016L71.5891 159.023C72.1269 158.379 73.0282 157.826 74.2627 157.826C75.7624 157.826 77.512 158.841 77.512 161.697V167.036H75.4973V161.871C75.4973 160.818 75.1943 159.576 73.7477 159.576C72.7631 159.576 72.0966 160.295 71.8845 161.007C71.8239 161.182 71.7861 161.416 71.7861 161.666V167.044H69.7714V160.576C69.7714 159.614 69.7487 158.932 69.7032 158.281L69.6881 158.031H71.5285V158.016ZM68.2642 162.749L68.2339 163.03H62.258C62.4095 165.294 64.1818 165.544 64.9543 165.544C66.0753 165.544 66.7115 165.34 67.2341 165.12L67.484 165.014L67.8552 166.574L67.681 166.65C67.1281 166.9 66.1662 167.203 64.7423 167.203C62.0459 167.203 60.3039 165.423 60.3039 162.658C60.3039 159.894 62.0459 157.811 64.5454 157.811C67.325 157.811 68.3096 160.106 68.3096 162.075C68.3096 162.356 68.2869 162.583 68.2642 162.749ZM156.077 228.211C149.23 232.793 142.391 237.391 135.513 241.928C133.022 243.571 130.204 244.185 127.235 243.92C124.72 243.7 122.365 242.905 120.153 241.723C118.798 240.996 117.442 240.246 116.223 239.322C107.149 232.483 98.0904 225.628 90.1302 217.449C81.8064 208.882 74.7096 199.415 69.0594 188.872C68.9383 188.645 68.8246 188.418 68.7262 188.183C68.7035 188.13 68.7262 188.054 68.7489 187.872C69.1427 188.145 69.4911 188.38 69.8244 188.63C82.7001 198.324 96.2348 206.966 110.648 214.199C120.116 218.948 129.878 222.978 140.209 225.477C145.344 226.719 150.54 227.529 155.834 227.59C156.039 227.59 156.243 227.628 156.614 227.666C156.357 227.938 156.243 228.113 156.084 228.219L156.077 228.211ZM179.798 194.136C175.572 203.823 169.467 212.253 162.386 220.016C161.325 221.183 160.159 222.25 159.129 223.44C158.5 224.159 157.841 224.28 156.993 224.023C153.108 222.856 149.139 221.91 145.352 220.493C133.264 215.979 121.236 211.298 109.186 206.671C108.929 206.572 108.694 206.413 108.452 206.201C134.264 207.095 158.637 201.823 181.707 189.296C181.003 191.091 180.457 192.636 179.806 194.136H179.798ZM181.775 167.029H179.867L176.019 160.879C175.269 159.682 174.678 158.667 174.209 157.758C174.262 158.932 174.285 160.144 174.285 161.712V167.029H172.376V154.653H174.413L178.299 160.788C178.943 161.803 179.488 162.757 179.973 163.696C179.897 162.446 179.874 161.235 179.874 159.871V154.66H181.783V167.036L181.775 167.029ZM189.728 165.453C190.614 165.453 191.538 165.272 192.136 164.984L192.386 164.863L192.818 166.536L192.651 166.62C192.083 166.907 190.932 167.21 189.402 167.21C185.683 167.21 183.282 164.756 183.282 160.954C183.282 157.152 185.933 154.463 189.735 154.463C191.47 154.463 192.417 154.888 192.667 155.016L192.833 155.107L192.333 156.804L192.091 156.683C191.462 156.38 190.644 156.213 189.788 156.213C187.024 156.213 185.365 157.963 185.365 160.901C185.365 163.84 186.994 165.461 189.713 165.461L189.728 165.453Z" fill="#154282"/>
<path d="M91.9934 197.65C92.2888 197.87 92.7129 197.991 93.1977 197.991H93.2052C93.6521 197.991 94.0535 197.877 94.3262 197.68C94.614 197.468 94.7655 197.173 94.7655 196.794C94.7655 196.279 94.4171 195.848 93.8945 195.719C93.8036 195.696 93.6975 195.681 93.5688 195.681H92.7281C92.6069 195.681 92.4857 195.689 92.4175 195.711C91.9858 195.81 91.5617 196.173 91.5617 196.764C91.5617 197.128 91.7132 197.431 92.001 197.65H91.9934Z" fill="#154282"/>
<path d="M88.8956 157.925C88.8956 156.789 88.0928 156.213 86.5098 156.213C86.0554 156.213 85.6691 156.236 85.3813 156.281V159.697H86.5477C87.9792 159.697 88.9032 159 88.9032 157.932L88.8956 157.925Z" fill="#154282"/>
</svg>
