<svg width="256" height="256" viewBox="0 0 256 256" fill="none" xmlns="http://www.w3.org/2000/svg">
<g clip-path="url(#clip0_3116_363)">
<g opacity="0.6" filter="url(#filter0_f_3116_363)">
<path d="M217.427 36.436L216.232 31.6799C216.16 31.3894 215.865 31.2131 215.57 31.2909C213.454 31.8511 205.192 33.8635 195.368 33.8635C173.852 33.8635 164.457 29.8438 155.978 25.3626C150.189 22.3077 145.621 19.0609 141.948 16.452C136.986 12.9252 133.023 8.81219 129.981 8.81219C127.333 8.81219 122.977 12.9252 118.015 16.452C114.342 19.0609 109.774 22.3077 103.985 25.3626C95.5059 29.8438 86.1162 33.8635 64.6 33.8635C54.8998 33.8635 46.5034 31.8925 44.372 31.348C44.0823 31.2753 43.7925 31.4517 43.7149 31.7421L42.5354 36.436C40.4195 44.8487 40.3936 72.8355 40.3936 73.1208C40.3936 74.7027 40.3936 76.3209 40.4091 77.9703C40.5488 100.833 41.8318 129.769 48.3607 152.885C50.2231 159.483 52.5201 165.608 55.3344 170.982C70.2131 199.389 101.848 229.803 126.598 247.339L129.63 249.491C129.842 249.636 130.121 249.636 130.333 249.491L133.37 247.339C158.114 229.803 189.75 199.389 204.634 170.982C207.448 165.608 209.74 159.483 211.602 152.885C218.131 129.769 219.414 100.833 219.554 77.9703C219.564 76.3209 219.569 74.7027 219.569 73.1208C219.569 72.8355 219.549 44.8487 217.427 36.436Z" fill="black"/>
</g>
<path d="M207.779 34.9682C206.584 34.9682 201.23 36.8406 191.405 36.8406C169.651 36.8406 159.227 32.9143 149.283 27.6655C136.665 21.0007 129.635 13.5735 126.019 13.5735C122.402 13.5735 115.372 21.0007 102.754 27.6655C92.8105 32.9195 82.3913 36.8406 60.6319 36.8406C50.8077 36.8406 45.4532 34.9682 44.2581 34.9682C42.7785 40.8498 42.2922 60.5329 42.2922 70.2111C42.2922 92.0675 42.7889 139.053 56.5605 165.339C71.5375 193.932 103.437 223.626 126.019 239.626C148.6 223.626 180.495 193.932 195.477 165.339C209.248 139.053 209.745 92.0675 209.745 70.2111C209.745 60.5329 209.259 40.8498 207.779 34.9682Z" fill="white"/>
<mask id="mask0_3116_363" style="mask-type:luminance" maskUnits="userSpaceOnUse" x="42" y="13" width="168" height="227">
<path d="M207.78 34.9682C206.584 34.9682 201.23 36.8406 191.406 36.8406C169.652 36.8406 159.227 32.9143 149.284 27.6655C136.666 21.0007 129.635 13.5735 126.019 13.5735C122.403 13.5735 115.372 21.0007 102.754 27.6655C92.811 32.9195 82.3918 36.8406 60.6324 36.8406C50.8081 36.8406 45.4537 34.9682 44.2586 34.9682C42.779 40.8498 42.2927 60.5329 42.2927 70.2111C42.2927 92.0675 42.7894 139.053 56.561 165.339C71.538 193.932 103.437 223.626 126.019 239.626C148.601 223.626 180.495 193.932 195.477 165.339C209.249 139.053 209.745 92.0675 209.745 70.2111C209.745 60.5329 209.259 40.8498 207.78 34.9682Z" fill="white"/>
</mask>
<g mask="url(#mask0_3116_363)">
<g opacity="0.3" filter="url(#filter1_f_3116_363)">
<path d="M216.052 34.5688L214.857 29.8127C214.784 29.5223 214.489 29.3459 214.194 29.4237C212.078 29.9839 203.817 31.9963 193.992 31.9963C172.476 31.9963 163.081 27.9767 154.602 23.4955C148.813 20.4405 144.245 17.1937 140.572 14.5849C135.61 11.058 131.648 6.94502 128.606 6.94502C125.957 6.94502 121.601 11.058 116.64 14.5849C112.966 17.1937 108.398 20.4405 102.609 23.4955C94.1301 27.9767 84.7404 31.9963 63.2242 31.9963C53.524 31.9963 45.1276 30.0254 42.9962 29.4808C42.7065 29.4082 42.4167 29.5845 42.3391 29.875L41.1596 34.5688C39.0437 42.9815 39.0178 70.9684 39.0178 71.2536C39.0178 72.8356 39.0178 74.4538 39.0333 76.1031C39.173 98.9656 40.456 127.902 46.9849 151.018C48.8473 157.616 51.1443 163.741 53.9586 169.114C68.8373 197.521 100.473 227.936 125.222 245.471L128.254 247.624C128.466 247.769 128.745 247.769 128.957 247.624L131.994 245.471C156.739 227.936 188.374 197.521 203.258 169.114C206.072 163.741 208.364 157.616 210.226 151.018C216.755 127.902 218.038 98.9656 218.178 76.1031C218.188 74.4538 218.193 72.8356 218.193 71.2536C218.193 70.9684 218.173 42.9815 216.052 34.5688ZM198.064 166.381C183.082 194.975 151.188 224.668 128.606 240.669C106.024 224.668 74.1297 194.975 59.1527 166.381C56.7574 161.806 54.7605 156.604 53.0998 151.018H204.117C202.456 156.604 200.459 161.806 198.064 166.381ZM44.8948 76.1031C44.8845 74.376 44.8845 72.7578 44.8845 71.2536C44.8845 61.5755 45.3656 41.8871 46.8504 36.0055C48.0454 36.0055 53.3999 37.8779 63.2242 37.8779C84.9783 37.8779 95.4027 33.9516 105.341 28.6976C117.959 22.038 124.989 14.6108 128.606 14.6108C132.222 14.6108 139.253 22.038 151.87 28.6976C161.809 33.9516 172.233 37.8779 193.992 37.8779C203.817 37.8779 209.171 36.0055 210.366 36.0055C211.846 41.8871 212.332 61.5755 212.332 71.2536C212.332 72.7578 212.332 74.376 212.322 76.1031H44.8948Z" fill="black"/>
</g>
</g>
<path d="M213.465 33.5315L212.27 28.7754C212.197 28.485 211.902 28.3086 211.607 28.3864C209.491 28.9466 201.23 30.959 191.405 30.959C169.889 30.959 160.494 26.9393 152.015 22.4581C146.226 19.4032 141.658 16.1564 137.985 13.5476C133.023 10.0207 129.061 5.90769 126.019 5.90769C123.37 5.90769 119.014 10.0207 114.053 13.5476C110.379 16.1564 105.811 19.4032 100.022 22.4581C91.543 26.9393 82.1533 30.959 60.6371 30.959C50.937 30.959 42.5406 28.9881 40.4091 28.4435C40.1194 28.3708 39.8297 28.5472 39.7521 28.8376L38.5726 33.5315C36.4567 41.9442 36.4308 69.9311 36.4308 70.2163C36.4308 71.7982 36.4308 73.4164 36.4463 75.0658C36.586 97.9283 37.869 126.864 44.3978 149.981C46.2603 156.578 48.5572 162.704 51.3716 168.077C66.2503 196.484 97.8856 226.898 122.635 244.434L125.667 246.587C125.879 246.732 126.158 246.732 126.37 246.587L129.407 244.434C154.152 226.898 185.787 196.484 200.671 168.077C203.485 162.704 205.777 156.578 207.639 149.981C214.168 126.864 215.451 97.9283 215.591 75.0658C215.601 73.4164 215.606 71.7982 215.606 70.2163C215.606 69.9311 215.586 41.9442 213.465 33.5315ZM195.477 165.344C180.495 193.937 148.601 223.631 126.019 239.631C103.437 223.631 71.5427 193.937 56.5657 165.344C54.1704 160.769 52.1735 155.567 50.5128 149.981H201.53C199.869 155.567 197.872 160.769 195.477 165.344ZM42.3078 75.0658C42.2974 73.3386 42.2974 71.7204 42.2974 70.2163C42.2974 60.5381 42.7786 40.8498 44.2633 34.9682C45.4584 34.9682 50.8128 36.8406 60.6371 36.8406C82.3913 36.8406 92.8157 32.9143 102.754 27.6603C115.372 21.0007 122.402 13.5735 126.019 13.5735C129.635 13.5735 136.665 21.0007 149.283 27.6603C159.222 32.9143 169.646 36.8406 191.405 36.8406C201.23 36.8406 206.584 34.9682 207.779 34.9682C209.259 40.8498 209.745 60.5381 209.745 70.2163C209.745 71.7204 209.745 73.3386 209.735 75.0658H42.3078Z" fill="#E10511"/>
<path d="M84.2951 99.7332H74.3518V116.745H77.6887V110.35H83.845C85.0038 110.35 85.8523 110.516 86.3644 110.853C86.799 111.139 87.0163 111.688 87.0163 112.529V116.745H90.4514V112.124C90.4514 111.107 90.1514 110.262 89.5513 109.603C89.365 109.401 89.1477 109.225 88.8942 109.074C89.5771 108.753 90.022 108.333 90.229 107.809C90.5497 107.005 90.7101 106.025 90.7101 104.894C90.7101 103.011 90.1669 101.657 89.1012 100.864C88.0717 100.101 86.499 99.7281 84.3003 99.7281L84.2951 99.7332ZM77.6938 102.441H84.321C86.2351 102.441 86.6955 102.856 86.8042 103.037C87.0991 103.525 87.2543 104.292 87.2543 105.324C87.2543 106.357 87.0111 106.943 86.5352 107.223C85.9557 107.56 84.9573 107.731 83.5656 107.731H77.6938V102.451V102.441Z" fill="black"/>
<path d="M110.198 99.7332H106.815V111.413C106.815 112.243 106.686 113.307 106.08 113.639C105.672 113.867 104.746 114.136 102.671 114.136H100.514C98.6047 114.136 97.7976 113.851 97.4562 113.613C97.0268 113.312 96.8044 112.555 96.8044 111.413V99.7332H93.3951V111.413C93.3951 113.976 94.228 115.558 95.8783 116.113C97.3217 116.6 99.3031 116.844 101.776 116.844C102.143 116.844 102.516 116.844 102.888 116.833C103.266 116.823 103.633 116.813 104.006 116.797C106.38 116.73 107.974 116.273 108.864 115.412C109.753 114.551 110.203 113.208 110.203 111.419V99.7384L110.198 99.7332Z" fill="black"/>
<path d="M121.569 99.6191H120.385C117.586 99.6191 115.687 100.112 114.585 101.128C113.489 102.14 112.93 103.789 112.93 106.025V108.187C112.914 108.525 112.904 108.903 112.904 109.282V110.376C112.904 113.016 113.577 114.79 114.896 115.651C116.158 116.476 118.377 116.875 121.683 116.875C122.366 116.875 123.065 116.865 123.747 116.849C124.43 116.833 125.113 116.802 125.781 116.75C127.871 116.574 129.195 115.879 129.718 114.681C130.183 113.623 130.416 112.435 130.416 111.154V109.157C130.416 108.841 130.39 108.519 130.338 108.208L130.256 107.726H120.721V110.428H127.007V111.253C127.007 112.933 126.619 113.457 126.386 113.618C126.117 113.804 125.325 114.121 123.008 114.121H121.078C120.83 114.121 120.576 114.116 120.317 114.1H120.302H120.286C120.043 114.1 119.795 114.095 119.536 114.079C119.283 114.064 119.029 114.043 118.791 114.012C117.601 113.867 116.903 113.504 116.722 112.923C116.479 112.166 116.36 111.336 116.36 110.449L116.334 108.182L116.36 106.128C116.417 103.898 116.81 103.182 117.043 102.959C117.229 102.778 117.943 102.352 120.571 102.352C121.249 102.352 121.932 102.352 122.614 102.363C123.292 102.373 123.965 102.389 124.622 102.42C126.158 102.472 126.536 102.85 126.624 103.011C126.877 103.457 127.012 104.116 127.012 104.956V105.537H130.349V104.365C130.349 102.913 129.94 101.766 129.138 100.962C128.326 100.148 127.017 99.7281 125.139 99.6762C124.73 99.6762 124.342 99.6762 123.949 99.6658C123.551 99.6606 123.152 99.6555 122.754 99.6555C122.371 99.6399 121.968 99.6295 121.569 99.6295V99.6191Z" fill="black"/>
<path d="M143.215 99.7332H133.127V116.745H143.784C145.967 116.745 147.436 116.284 148.269 115.335C149.071 114.422 149.48 113.167 149.48 111.6C149.48 110.459 149.247 109.531 148.792 108.841C148.502 108.41 148.057 108.053 147.431 107.767C147.887 107.477 148.207 107.135 148.404 106.725C148.725 106.056 148.89 105.215 148.89 104.23C148.89 102.529 148.388 101.326 147.4 100.656C146.474 100.029 145.103 99.7281 143.215 99.7281V99.7332ZM136.515 102.441H142.977C144.343 102.441 144.85 102.69 145.031 102.835C145.31 103.063 145.46 103.597 145.46 104.37C145.46 105.013 145.362 105.853 144.881 106.185C144.57 106.398 143.846 106.657 142.175 106.657H136.515V102.446V102.441ZM136.515 109.406H143.763C144.746 109.406 145.403 109.598 145.615 109.946C145.89 110.397 146.029 110.983 146.029 111.688C146.029 112.456 145.915 113.415 145.367 113.654C144.958 113.83 144.048 114.043 142.03 114.043H136.515V109.401V109.406Z" fill="black"/>
<path d="M169.056 99.7332H164.933L164.757 99.9511L159.351 106.792L153.924 99.9459L153.748 99.7281H149.692L150.432 100.667L157.587 109.733V116.745H160.949V109.738L168.29 100.677L169.056 99.7332Z" fill="black"/>
<path d="M102.801 55.8494H101.838C101.512 55.8494 101.181 55.8598 100.85 55.8754C100.529 55.8909 100.203 55.9117 99.8775 55.9376C99.5464 55.9635 99.2257 55.9895 98.9049 56.0206C96.6752 56.2125 95.2111 56.8401 94.4351 57.9396C93.7057 58.977 93.3332 60.3255 93.3332 61.9489V65.4187C93.3487 67.1562 93.6074 68.7848 94.0989 70.2734C94.6524 71.9486 96.4372 72.877 99.4068 73.0326H99.4223H99.4378L102.19 73.0067C102.723 73.0067 103.256 73.0067 103.789 72.9963C104.332 72.986 104.88 72.9652 105.413 72.9341C107.084 72.8304 108.331 72.3843 109.117 71.6011C109.914 70.8076 110.323 69.7443 110.323 68.4321C110.323 68.2817 110.312 68.1365 110.292 67.9861C110.281 67.8927 110.271 67.7942 110.271 67.6904C110.271 67.5712 110.271 67.4363 110.261 67.3015C110.255 67.1873 110.25 67.0784 110.25 66.9799V66.399H106.913V67.4207C106.913 67.5815 106.924 67.7423 106.939 67.8927V68.7433C106.882 69.5317 106.551 69.7184 106.443 69.7755C106.039 70.0037 105.434 70.1437 104.653 70.2008C104.047 70.2474 103.437 70.2734 102.837 70.2837C102.221 70.2941 101.6 70.2941 100.969 70.2941C100.773 70.2941 100.571 70.2941 100.364 70.2837C100.157 70.2786 99.9448 70.263 99.7327 70.2474C99.2154 70.2163 98.7291 70.1385 98.2738 70.0089C97.9013 69.8999 97.6426 69.7391 97.4823 69.5161C97.296 69.2464 97.1615 68.8989 97.0787 68.5047C96.9908 68.0535 96.9184 67.5712 96.877 67.0681C96.8615 66.8087 96.8511 66.5338 96.8459 66.2589C96.8356 65.9841 96.8356 65.7247 96.8356 65.481V64.6511L96.8097 62.1045V61.8244C96.8097 60.813 96.9753 60.0298 97.296 59.5008C97.4823 59.1896 98.0358 58.8058 99.6085 58.7228C100.297 58.6761 100.99 58.645 101.678 58.6295C102.376 58.6139 103.075 58.6035 103.752 58.6035C105.749 58.6035 106.179 59.0392 106.267 59.1689C106.468 59.4852 106.706 60.1388 106.706 61.4717V62.0526H110.079L110.043 61.4406C109.904 59.0651 109.355 57.561 108.367 56.8556C107.426 56.1814 105.61 55.8546 102.801 55.8546V55.8494Z" fill="black"/>
<path d="M98.9567 77.5554H95.475V94.5674H109.009V91.7666H98.9567V77.5502V77.5554Z" fill="black"/>
<path d="M103.773 121.227H93.6848V138.239H104.342C106.525 138.239 107.994 137.777 108.833 136.828C109.634 135.915 110.043 134.66 110.043 133.093C110.043 131.952 109.81 131.024 109.355 130.334C109.065 129.904 108.62 129.546 107.994 129.261C108.45 128.97 108.77 128.628 108.967 128.223C109.288 127.554 109.448 126.714 109.448 125.723C109.448 124.022 108.946 122.819 107.958 122.155C107.027 121.527 105.661 121.227 103.773 121.227ZM97.0682 123.934H103.53C104.896 123.934 105.403 124.183 105.584 124.328C105.863 124.556 106.013 125.085 106.013 125.863C106.013 126.506 105.915 127.347 105.434 127.679C105.123 127.891 104.399 128.151 102.728 128.151H97.0682V123.939V123.934ZM97.0682 130.894H104.316C105.299 130.894 105.956 131.086 106.168 131.434C106.442 131.885 106.582 132.471 106.582 133.176C106.582 133.944 106.468 134.904 105.925 135.142C105.516 135.318 104.606 135.531 102.588 135.531H97.0734V130.889L97.0682 130.894Z" fill="black"/>
<path d="M168.751 55.9221H165.435V69.2724L155.352 56.1451L155.176 55.9169H150.711V72.9289H154.027V59.7031L164.11 72.7007L164.286 72.9237H168.751V55.9117V55.9221Z" fill="black"/>
<path d="M159.387 77.3842H158.414C154.907 77.3842 152.894 78.1933 152.258 79.8582C151.699 81.3208 151.415 83.1828 151.415 85.4027V87.8767C151.415 88.4213 151.425 88.9555 151.441 89.4638C151.601 91.7148 152.362 93.1722 153.712 93.8205C154.953 94.417 156.697 94.7074 159.035 94.7074H159.449C159.568 94.7074 159.692 94.7126 159.827 94.7282H159.858H159.889H160.789C163.433 94.7282 165.233 94.3081 166.288 93.4471C167.359 92.5706 167.939 91.0613 168.006 88.9659C168.037 88.0271 168.052 87.0728 168.052 86.1288V83.3125C168.052 80.574 167.245 78.8676 165.647 78.2348C164.203 77.6643 162.16 77.3842 159.387 77.3842ZM159.009 92.0519C156.599 92.0519 155.812 91.6681 155.554 91.4399C155.248 91.1702 154.881 90.4907 154.845 88.7947L154.819 86.2585L154.865 83.3488C154.922 81.3519 155.347 80.7555 155.595 80.5791C155.936 80.3354 156.764 80.0449 158.771 80.0449H159.506C161.544 80.0449 162.977 80.2005 163.769 80.5065C164.529 80.8022 164.69 82.2337 164.69 83.3903V86.0043C164.69 86.4244 164.679 86.8601 164.664 87.301C164.648 87.7418 164.638 88.1827 164.638 88.6184C164.612 89.7542 164.395 91.1961 163.531 91.5384C162.672 91.8807 161.146 92.0571 159.004 92.0571L159.009 92.0519Z" fill="black"/>
<path d="M159.387 120.646H158.414C154.907 120.646 152.894 121.455 152.258 123.12C151.699 124.582 151.415 126.444 151.415 128.664V131.138C151.415 131.683 151.425 132.217 151.441 132.725C151.601 134.976 152.362 136.434 153.712 137.082C154.953 137.678 156.697 137.969 159.035 137.969H159.449C159.563 137.969 159.692 137.974 159.832 137.99H159.863H159.894H160.794C163.438 137.99 165.238 137.569 166.294 136.709C167.364 135.832 167.944 134.323 168.011 132.227C168.042 131.294 168.058 130.339 168.058 129.39V126.574C168.058 123.835 167.251 122.129 165.652 121.496C164.209 120.926 162.165 120.646 159.392 120.646H159.387ZM159.009 135.313C156.599 135.313 155.812 134.93 155.554 134.701C155.248 134.432 154.881 133.752 154.845 132.056L154.819 129.52L154.865 126.61C154.922 124.613 155.347 124.017 155.595 123.841C155.936 123.597 156.764 123.306 158.771 123.306H159.506C161.544 123.306 162.977 123.462 163.769 123.768C164.529 124.064 164.69 125.495 164.69 126.652V129.266C164.69 129.686 164.679 130.122 164.664 130.562C164.648 131.003 164.638 131.444 164.638 131.88C164.612 133.016 164.395 134.458 163.531 134.8C162.672 135.142 161.146 135.318 159.004 135.318L159.009 135.313Z" fill="black"/>
<path d="M168.751 142.445H165.435V155.795L155.352 142.668L155.176 142.44H150.711V159.452H154.027V146.231L164.11 159.229L164.286 159.452H168.751V142.44V142.445Z" fill="black"/>
<path d="M168.172 56.503V72.3584H164.566L153.448 58.0226V72.3584H151.291V56.503H154.897L166.014 70.9788V56.503H168.172Z" fill="white"/>
<path d="M151.989 86.3311V85.4027C151.989 83.2451 152.258 81.4712 152.796 80.0657C153.334 78.6653 155.207 77.9599 158.415 77.9599H159.387C162.057 77.9599 164.074 78.2296 165.435 78.769C166.795 79.3084 167.473 80.8229 167.473 83.3073V86.1236C167.473 87.0676 167.458 88.0064 167.427 88.9399C167.365 90.8745 166.863 92.2231 165.921 92.9907C164.98 93.7583 163.267 94.1421 160.789 94.1421H159.889C159.729 94.1265 159.584 94.1162 159.449 94.1162H159.035C156.806 94.1162 155.114 93.8413 153.96 93.2863C152.807 92.7313 152.16 91.4503 152.015 89.4379C152 88.914 151.989 88.3902 151.989 87.8715V86.3259V86.3311ZM154.24 86.2637L154.265 88.8051C154.297 90.3403 154.597 91.3621 155.166 91.8704C155.735 92.3787 157.013 92.6328 159.004 92.6328C161.234 92.6328 162.812 92.4461 163.748 92.0727C164.68 91.6992 165.171 90.5478 165.218 88.6132C165.218 88.1879 165.228 87.7522 165.243 87.3165C165.259 86.8809 165.269 86.44 165.269 85.9991V83.3851C165.269 81.4349 164.84 80.2939 163.976 79.9619C163.112 79.63 161.622 79.464 159.506 79.464H158.772C157.033 79.464 155.864 79.6767 155.264 80.1072C154.664 80.5325 154.338 81.6113 154.291 83.3384L154.245 86.2637H154.24Z" fill="white"/>
<path d="M151.989 129.592V128.664C151.989 126.512 152.258 124.727 152.796 123.327C153.334 121.927 155.207 121.221 158.415 121.221H159.387C162.057 121.221 164.074 121.491 165.435 122.03C166.795 122.57 167.473 124.084 167.473 126.569V129.385C167.473 130.329 167.458 131.268 167.427 132.201C167.365 134.136 166.863 135.484 165.921 136.252C164.98 137.02 163.267 137.404 160.789 137.404H159.889C159.729 137.388 159.584 137.378 159.449 137.378H159.035C156.806 137.378 155.114 137.103 153.96 136.548C152.807 135.993 152.16 134.712 152.015 132.699C152 132.175 151.989 131.652 151.989 131.133V129.587V129.592ZM154.24 129.525L154.265 132.067C154.297 133.602 154.597 134.629 155.166 135.132C155.735 135.64 157.013 135.894 159.004 135.894C161.234 135.894 162.812 135.707 163.748 135.334C164.68 134.961 165.171 133.809 165.218 131.875C165.218 131.444 165.228 131.014 165.243 130.578C165.259 130.142 165.269 129.701 165.269 129.261V126.647C165.269 124.696 164.84 123.555 163.976 123.223C163.112 122.891 161.622 122.725 159.506 122.725H158.772C157.033 122.725 155.864 122.938 155.264 123.369C154.664 123.794 154.338 124.873 154.291 126.6L154.245 129.525H154.24Z" fill="white"/>
<path d="M168.172 143.026V158.881H164.566L153.448 144.551V158.881H151.291V143.026H154.897L166.014 157.502V143.026H168.172Z" fill="white"/>
<path d="M74.9314 116.17V100.314H84.2952C86.3491 100.314 87.8338 100.656 88.7547 101.336C89.6704 102.015 90.1308 103.208 90.1308 104.899C90.1308 105.962 89.986 106.86 89.6911 107.596C89.3962 108.333 88.3926 108.831 86.6698 109.079C87.808 109.142 88.6254 109.448 89.122 109.992C89.6187 110.537 89.867 111.247 89.867 112.119V116.159H87.5907V112.523C87.5907 111.476 87.2855 110.755 86.6802 110.361C86.0697 109.966 85.1282 109.764 83.8452 109.764H77.1094V116.159H74.9262L74.9314 116.17ZM77.1146 108.302H83.5658C85.0661 108.302 86.1525 108.104 86.825 107.715C87.4976 107.326 87.8338 106.528 87.8338 105.319C87.8338 104.173 87.658 103.312 87.301 102.731C86.944 102.15 85.9507 101.86 84.3263 101.86H77.1197V108.302H77.1146Z" fill="white"/>
<path d="M107.389 100.314H109.619V111.413C109.619 113.047 109.231 114.24 108.455 114.992C107.679 115.744 106.189 116.154 103.975 116.216C103.613 116.232 103.245 116.242 102.873 116.253C102.5 116.258 102.133 116.263 101.771 116.263C99.355 116.263 97.446 116.03 96.0596 115.563C94.6679 115.096 93.9747 113.711 93.9747 111.413V100.314H96.2251V111.413C96.2251 112.778 96.5252 113.67 97.1253 114.09C97.7254 114.51 98.8584 114.717 100.514 114.717H102.671C104.44 114.717 105.672 114.525 106.36 114.147C107.048 113.768 107.389 112.855 107.389 111.413V100.314Z" fill="white"/>
<path d="M121.306 108.302H129.769C129.816 108.587 129.842 108.872 129.842 109.157V111.154C129.842 112.357 129.625 113.457 129.19 114.448C128.755 115.438 127.607 116.014 125.739 116.17C125.077 116.216 124.41 116.247 123.737 116.263C123.065 116.278 122.382 116.289 121.689 116.289C118.528 116.289 116.37 115.91 115.217 115.158C114.063 114.406 113.484 112.809 113.484 110.371V109.277C113.484 108.914 113.489 108.55 113.509 108.182V106.019C113.509 103.945 114.001 102.456 114.979 101.549C115.956 100.646 117.762 100.195 120.385 100.195H121.57C121.963 100.195 122.361 100.205 122.754 100.221C123.147 100.221 123.546 100.221 123.939 100.231C124.332 100.242 124.731 100.242 125.124 100.242C126.831 100.288 128.031 100.662 128.73 101.357C129.423 102.052 129.775 103.053 129.775 104.349V104.946H127.591C127.591 103.997 127.436 103.25 127.131 102.71C126.821 102.171 125.998 101.881 124.653 101.829C123.991 101.798 123.313 101.777 122.625 101.772C121.937 101.766 121.254 101.761 120.576 101.761C118.476 101.761 117.162 102.021 116.639 102.534C116.117 103.047 115.832 104.24 115.786 106.113L115.76 108.182L115.786 110.438C115.786 111.388 115.915 112.274 116.179 113.089C116.438 113.903 117.291 114.401 118.729 114.572C118.983 114.603 119.242 114.629 119.511 114.645C119.78 114.66 120.038 114.671 120.292 114.671C120.561 114.686 120.825 114.697 121.088 114.697H123.018C124.917 114.697 126.153 114.494 126.727 114.09C127.307 113.685 127.591 112.741 127.591 111.248V109.847H121.306V108.302Z" fill="white"/>
<path d="M133.706 116.17V100.314H143.215C144.969 100.314 146.257 100.589 147.08 101.144C147.902 101.699 148.311 102.731 148.311 104.235C148.311 105.138 148.166 105.89 147.882 106.481C147.597 107.072 146.893 107.529 145.771 107.85C147.069 108.136 147.913 108.576 148.306 109.168C148.699 109.764 148.901 110.573 148.901 111.605C148.901 113.032 148.544 114.147 147.835 114.956C147.121 115.765 145.771 116.17 143.779 116.17H133.701H133.706ZM135.936 107.233H142.17C143.639 107.233 144.653 107.041 145.207 106.663C145.76 106.279 146.035 105.516 146.035 104.37C146.035 103.4 145.823 102.741 145.393 102.389C144.969 102.036 144.162 101.865 142.977 101.865H135.936V107.238V107.233ZM135.936 114.624H142.03C143.738 114.624 144.928 114.479 145.6 114.188C146.273 113.898 146.609 113.063 146.609 111.688C146.609 110.869 146.443 110.184 146.112 109.64C145.781 109.095 145 108.825 143.764 108.825H135.941V114.624H135.936Z" fill="white"/>
<path d="M167.841 100.314L160.37 109.536V116.17H158.166V109.536L150.887 100.314H153.474L159.356 107.731L165.212 100.314H167.846H167.841Z" fill="white"/>
<path d="M107.493 66.9851H109.676C109.676 67.094 109.676 67.2133 109.686 67.3429C109.691 67.4674 109.697 67.5867 109.697 67.7008C109.697 67.8305 109.702 67.9498 109.723 68.0691C109.738 68.1884 109.748 68.3128 109.748 68.4373C109.748 69.5939 109.407 70.512 108.719 71.1966C108.031 71.8812 106.919 72.265 105.387 72.3636C104.849 72.3947 104.316 72.4154 103.789 72.4206C103.261 72.4258 102.723 72.431 102.19 72.431L99.4378 72.4569C96.7218 72.3117 95.1232 71.5285 94.6472 70.0918C94.1713 68.6552 93.9281 67.0992 93.9126 65.4187V61.9489C93.9126 60.4448 94.2437 59.2207 94.9111 58.2768C95.5733 57.3328 96.9287 56.7778 98.967 56.6015C99.2826 56.5704 99.6033 56.5445 99.9293 56.5185C100.255 56.4926 100.571 56.477 100.892 56.4615C101.207 56.4459 101.528 56.4355 101.854 56.4355H102.816C105.47 56.4355 107.213 56.7312 108.046 57.3276C108.879 57.9241 109.355 59.3037 109.479 61.4769H107.296C107.296 60.2892 107.12 59.4178 106.763 58.8629C106.406 58.3079 105.408 58.033 103.763 58.033C103.07 58.033 102.371 58.0434 101.678 58.0589C100.985 58.0745 100.286 58.1056 99.593 58.1523C98.1237 58.2301 97.1977 58.5828 96.8201 59.2104C96.4424 59.8379 96.251 60.7093 96.251 61.8348V62.12L96.2768 64.6615V65.4913C96.2768 65.7455 96.2768 66.01 96.2872 66.2901C96.2924 66.565 96.3079 66.8502 96.3234 67.1355C96.37 67.6593 96.4424 68.1572 96.5355 68.6344C96.6286 69.1116 96.7942 69.5213 97.0322 69.8688C97.2701 70.2008 97.6374 70.4393 98.1341 70.5794C98.6307 70.7246 99.1584 70.8076 99.712 70.8387C99.9344 70.8543 100.152 70.8646 100.364 70.875C100.576 70.8854 100.788 70.8854 100.99 70.8854C101.621 70.8854 102.247 70.8854 102.863 70.875C103.478 70.8646 104.094 70.8387 104.709 70.792C105.579 70.7298 106.256 70.5638 106.737 70.2941C107.219 70.0244 107.482 69.5161 107.534 68.7744V67.872C107.519 67.7268 107.508 67.5815 107.508 67.4311V66.9903L107.493 66.9851Z" fill="white"/>
<path d="M98.3772 78.1311V92.3475H108.429V93.9865H96.0544V78.1311H98.3772Z" fill="white"/>
<path d="M94.2644 137.663V121.807H103.773C105.527 121.807 106.815 122.082 107.638 122.637C108.46 123.192 108.869 124.219 108.869 125.728C108.869 126.631 108.724 127.383 108.445 127.974C108.16 128.571 107.457 129.022 106.334 129.344C107.632 129.629 108.476 130.07 108.869 130.661C109.262 131.257 109.464 132.066 109.464 133.099C109.464 134.525 109.107 135.64 108.398 136.449C107.689 137.258 106.334 137.663 104.342 137.663H94.2644ZM96.4941 128.726H102.728C104.197 128.726 105.211 128.534 105.765 128.156C106.318 127.772 106.593 127.01 106.593 125.863C106.593 124.893 106.381 124.23 105.951 123.882C105.527 123.529 104.72 123.358 103.535 123.358H96.4941V128.732V128.726ZM96.4941 136.117H102.588C104.296 136.117 105.486 135.972 106.158 135.682C106.831 135.391 107.167 134.556 107.167 133.182C107.167 132.362 107.001 131.677 106.67 131.133C106.339 130.588 105.558 130.319 104.321 130.319H96.4993V136.117H96.4941Z" fill="white"/>
<path d="M161.658 202.765V201.385L145.15 190.742V121.491H142.837V169.151L115.48 151.724V121.491H113.168V170.126L87.3629 153.492V154.872L113.168 171.505V184.047L86.887 167.512V168.876L113.168 185.416L115.48 186.873L142.837 204.088L145.15 205.545L152.299 210.042V208.678L145.15 204.176V192.127L161.658 202.77V202.765ZM142.837 202.718L115.48 185.504V172.999L142.837 190.634V202.718ZM142.837 189.254L115.48 171.619V153.103L142.837 170.53V189.254Z" fill="black"/>
<path d="M145.15 56.503H142.837V94.8475H145.15V56.503Z" fill="black"/>
<path d="M115.48 37.8831H113.168V94.8475H115.48V37.8831Z" fill="black"/>
<path d="M124.658 140.723C114.306 147.595 103.851 160.743 96.4681 171.739C103.913 159.929 114.399 147.118 124.43 139.945C124.389 139.743 124.358 139.525 124.337 139.307C114.87 145.998 104.984 157.73 97.5701 168.974C105.175 156.381 114.384 145.759 124.317 138.223C124.332 137.964 124.353 137.699 124.394 137.435C116.986 142.974 109.971 150.225 103.711 158.726C110.028 149.659 117.581 140.91 124.498 136.869C124.555 136.605 124.627 136.345 124.715 136.086C118.569 139.499 111.098 147.18 103.576 157.849C97.3166 166.729 91.6931 176.785 89.5771 182.869L89.8876 182.994L90.0997 183.108C103.359 159.607 118.01 145.904 124.917 141.252C124.818 141.096 124.73 140.92 124.658 140.728V140.723Z" fill="url(#paint0_linear_3116_363)"/>
<path d="M132.361 131.605C131.989 131.351 131.321 131.289 130.54 131.434C129.174 131.693 127.276 132.621 126.034 134.447C124.265 137.056 124.58 140.624 125.708 141.397C126.08 141.651 126.748 141.714 127.529 141.568C128.895 141.309 130.793 140.381 132.035 138.555C133.804 135.946 133.489 132.383 132.361 131.605Z" fill="white"/>
<path d="M132.361 131.605C131.989 131.351 131.321 131.289 130.54 131.434C129.174 131.693 127.276 132.621 126.034 134.447C124.265 137.056 124.58 140.624 125.708 141.397C126.08 141.651 126.748 141.714 127.529 141.568C128.895 141.309 130.793 140.381 132.035 138.555C133.804 135.946 133.489 132.383 132.361 131.605ZM130.597 131.735C130.752 131.703 130.897 131.688 131.037 131.672C131.14 131.683 131.228 131.709 131.29 131.75C131.932 132.191 131.838 134.67 130.302 136.942C128.76 139.208 126.474 140.215 125.832 139.779C125.315 139.426 125.304 136.854 126.846 134.587C127.855 133.104 129.21 132.186 130.183 131.833C130.318 131.797 130.457 131.76 130.597 131.735ZM131.787 138.379C130.706 139.971 129.107 140.847 127.845 141.179C129.009 140.5 130.473 139.286 131.528 136.999C132.139 135.671 132.568 134.255 132.889 133.306C133.137 134.675 132.92 136.698 131.787 138.373V138.379Z" fill="black"/>
<path d="M126.753 138.347C126.448 138.14 126.334 137.222 126.634 136.2C126.158 137.424 126.179 138.524 126.494 138.736C126.805 138.949 127.834 138.565 128.797 137.678C127.958 138.332 127.069 138.56 126.758 138.353L126.753 138.347ZM130.24 133.208C130.545 133.415 130.659 134.333 130.359 135.355C130.835 134.131 130.814 133.031 130.499 132.819C130.188 132.606 129.159 132.99 128.196 133.877C129.035 133.223 129.924 132.995 130.235 133.202L130.24 133.208Z" fill="black"/>
</g>
<defs>
<filter id="filter0_f_3116_363" x="32.5167" y="0.935264" width="194.93" height="256.542" filterUnits="userSpaceOnUse" color-interpolation-filters="sRGB">
<feFlood flood-opacity="0" result="BackgroundImageFix"/>
<feBlend mode="normal" in="SourceGraphic" in2="BackgroundImageFix" result="shape"/>
<feGaussianBlur stdDeviation="3.93846" result="effect1_foregroundBlur_3116_363"/>
</filter>
<filter id="filter1_f_3116_363" x="31.1409" y="-0.931901" width="194.93" height="256.542" filterUnits="userSpaceOnUse" color-interpolation-filters="sRGB">
<feFlood flood-opacity="0" result="BackgroundImageFix"/>
<feBlend mode="normal" in="SourceGraphic" in2="BackgroundImageFix" result="shape"/>
<feGaussianBlur stdDeviation="3.93846" result="effect1_foregroundBlur_3116_363"/>
</filter>
<linearGradient id="paint0_linear_3116_363" x1="125.977" y1="137.471" x2="87.0679" y2="180.385" gradientUnits="userSpaceOnUse">
<stop stop-opacity="0"/>
<stop offset="0.5"/>
</linearGradient>
<clipPath id="clip0_3116_363">
<rect width="256" height="256" fill="white"/>
</clipPath>
</defs>
</svg>
