<svg width="256" height="256" viewBox="0 0 256 256" fill="none" xmlns="http://www.w3.org/2000/svg">
<g clip-path="url(#clip0_2517_1947)">
<path d="M128.06 256C124.881 251.255 121.941 246.81 119.062 242.425C113.662 234.316 108.323 226.267 102.924 218.159C96.7451 208.848 90.5661 199.598 84.3871 190.288C79.108 182.359 73.8288 174.431 68.5497 166.502C60.271 154.068 51.9924 141.695 43.7137 129.261C37.5947 120.071 31.5957 110.821 25.4767 101.691C19.1777 92.2008 12.8787 82.7705 6.51974 73.4003C5.61989 72.0788 5.61989 71.2379 6.51974 69.8564C13.0587 59.8254 19.4176 49.6743 25.8966 39.5232C34.0553 26.6692 42.214 13.8752 50.3726 1.14123C50.7326 0.540577 51.7524 0.120117 52.4723 0.120117C86.4268 0.120117 120.381 0.120117 154.336 0.120117C170.773 0.120117 187.27 0.120117 203.708 0.120117C204.968 0.120117 205.447 0.720774 205.927 1.56169C213.066 12.7339 220.145 23.9662 227.284 35.1384C234.843 47.0915 242.461 58.9845 250.02 70.9376C250.26 71.298 250.26 72.1389 250.02 72.5593C243.421 82.5303 236.822 92.4411 230.223 102.412C224.164 111.482 218.105 120.612 212.106 129.682C204.128 141.695 196.149 153.708 188.17 165.721C181.331 175.992 174.552 186.324 167.654 196.595C161.595 205.725 155.476 214.855 149.357 223.985C143.058 233.415 136.819 242.786 130.52 252.216C129.74 253.417 129.02 254.618 128.06 256.12V256ZM128 249.993C128.42 249.513 128.54 249.333 128.66 249.152C135.439 239.001 142.218 228.79 148.937 218.579C150.256 216.597 151.636 214.855 151.636 212.092C151.516 180.257 151.576 148.362 151.576 116.527C151.576 79.4068 151.576 42.2862 151.576 5.16564C151.576 3.42373 151.156 2.94321 149.357 2.94321C134.899 3.00327 120.381 3.00327 105.864 2.94321C104.304 2.94321 103.824 3.36366 103.824 4.98544C103.824 74.0009 103.824 143.016 103.884 212.032C103.884 213.173 104.244 214.435 104.844 215.396C106.823 218.639 109.043 221.702 111.143 224.886C115.222 231.073 119.301 237.259 123.381 243.386C124.821 245.549 126.32 247.651 127.88 249.933L128 249.993ZM89.3663 192.03C89.3663 192.03 89.6663 191.91 89.7862 191.91C89.7862 191.309 89.8462 190.649 89.8462 190.048C89.8462 128.541 89.8462 67.0333 89.8462 5.52603C89.8462 5.16564 89.8462 4.80524 89.8462 4.50491C89.9662 3.36367 89.4263 3.00327 88.3465 3.00327C85.4069 3.00327 82.4674 3.00327 79.5279 3.00327C77.2483 3.00327 77.2483 3.00327 77.2483 5.2257C77.2483 16.6382 77.2483 27.9906 77.2483 39.4031C77.2483 40.0037 77.2483 40.6645 77.2483 41.3252C76.7084 41.3853 76.4084 41.4453 76.0485 41.4453C65.1302 41.4453 54.212 41.4453 43.2938 41.4453C42.034 41.4453 41.854 40.8447 41.854 39.8836C41.854 35.0784 41.854 30.2731 41.854 25.4678C41.854 24.0863 41.854 22.6448 41.854 21.2632C41.674 21.2632 41.5541 21.2632 41.3741 21.2032C40.9542 21.7438 40.5342 22.2243 40.1743 22.825C36.2749 29.0117 32.3156 35.1384 28.4762 41.3853C27.8163 42.4664 27.3964 43.8479 27.3964 45.0493C27.3364 62.4082 27.3364 79.7072 27.3964 97.0662C27.3964 98.2074 27.8163 99.4688 28.4162 100.43C31.4757 105.175 34.6552 109.8 37.7747 114.485C38.9745 116.287 40.1743 118.029 41.3741 119.771C41.794 118.75 41.854 117.909 41.914 117.068C41.914 113.885 41.914 110.701 41.914 107.518C41.914 106.196 42.2739 105.716 43.7137 105.776C54.392 105.776 65.0702 105.776 75.7485 105.776C76.2284 105.776 76.7084 105.896 77.3083 105.896C77.3083 106.737 77.3083 107.458 77.3083 108.118C77.3083 127.099 77.4882 146.02 77.1883 165C77.0683 170.887 77.7882 176.173 81.9275 180.618C81.9875 180.678 82.0475 180.798 82.1075 180.918C84.5671 184.582 86.9667 188.246 89.4263 191.91L89.3663 192.03ZM165.674 193.111C166.154 192.631 166.454 192.33 166.634 192.03C169.573 187.645 172.513 183.26 175.392 178.816C176.712 176.773 178.092 174.971 178.092 172.148C177.912 150.645 178.032 129.141 178.032 107.638C178.032 107.097 178.092 106.496 178.152 105.896H213.426V121.213C213.966 120.552 214.206 120.312 214.386 120.071C219.065 113.044 223.744 106.016 228.424 98.9883C228.844 98.3876 229.144 97.4866 229.144 96.7658C229.144 79.4669 229.144 62.2281 229.144 44.9291C229.144 44.2083 228.844 43.3674 228.424 42.7067C225.004 37.2407 221.465 31.7747 217.985 26.3088C216.606 24.1464 215.226 22.0441 213.846 19.8817C213.726 19.8817 213.546 20.0019 213.426 20.0019V41.3252H178.032V3.00327C175.872 3.00327 173.833 3.00327 171.853 3.00327C169.873 3.00327 167.834 3.00327 165.734 3.00327V193.111H165.674Z" fill="#E73141"/>
<path d="M128 249.993C126.44 247.711 124.941 245.609 123.501 243.446C119.421 237.259 115.342 231.073 111.263 224.946C109.163 221.762 107.003 218.699 104.964 215.456C104.364 214.494 104.004 213.233 104.004 212.092C104.004 143.076 104.004 74.0609 103.944 5.04541C103.944 3.42363 104.424 3.00317 105.984 3.00317C120.501 3.00317 134.959 3.06324 149.477 3.00317C151.276 3.00317 151.696 3.4837 151.696 5.2256C151.696 42.3462 151.696 79.4668 151.696 116.587C151.696 148.422 151.696 180.317 151.756 212.152C151.756 214.915 150.316 216.657 149.057 218.639C142.338 228.85 135.559 239.001 128.78 249.212C128.66 249.393 128.48 249.573 128.12 250.053L128 249.993ZM146.837 49.1336C142.458 42.8868 139.818 35.9792 133.399 31.6545C135.079 31.0539 136.519 30.7535 137.838 30.0928C142.998 27.51 144.017 22.8849 143.238 18.1397C142.638 14.3556 140.538 11.3523 136.579 10.3913C134.359 9.85066 132.079 9.55034 129.8 9.49027C124.281 9.37014 118.702 9.49027 113.182 9.4302C111.563 9.4302 111.203 9.97079 111.203 11.4724C111.203 23.3054 111.203 35.1984 111.203 47.0313C111.203 47.5119 111.143 47.9924 111.263 48.4128C111.383 48.7132 111.743 49.1336 111.983 49.1336C114.322 49.1336 116.662 49.1336 119.181 49.1336V32.5555C120.621 32.5555 121.881 32.4354 123.141 32.5555C125 32.7357 126.62 33.4565 127.64 35.0182C130.64 39.3429 133.579 43.7878 136.579 48.1125C136.879 48.533 137.418 49.0736 137.838 49.0736C140.658 49.1336 143.477 49.0736 146.777 49.0736L146.837 49.1336ZM146.597 215.215C146.417 214.615 146.357 214.134 146.177 213.654C141.558 202.001 136.879 190.288 132.259 178.635C131 175.572 131 175.572 127.46 175.572C125.84 175.572 123.921 175.151 122.721 175.872C121.701 176.473 121.461 178.455 120.921 179.837C120.741 180.257 120.501 180.678 120.381 181.098C116.962 189.928 113.602 198.757 110.183 207.587C109.223 210.11 108.263 212.572 107.183 215.335C109.763 215.335 111.983 215.335 114.262 215.335C115.342 215.335 115.822 214.975 116.122 213.954C116.782 211.852 117.622 209.869 118.282 207.767C118.702 206.446 119.421 206.025 120.801 206.025C124.821 206.085 128.9 206.205 132.919 206.025C134.539 205.965 135.139 206.746 135.619 208.007C136.519 210.41 137.418 212.813 138.258 215.215H146.657H146.597ZM120.561 144.878C123.141 144.878 125.54 144.998 127.88 144.878C130.46 144.698 133.099 144.518 135.499 143.797C140.238 142.296 143.418 138.031 142.818 131.063C142.278 124.816 138.378 120.672 132.199 120.492C126.38 120.311 120.561 120.251 114.742 120.131C114.142 120.131 113.542 120.131 112.882 120.131V159.715H120.621V144.938L120.561 144.878ZM136.699 89.9783C136.159 91.3598 135.799 92.5611 135.199 93.7024C133.519 96.7657 131 98.3875 127.34 98.2674C124.161 98.1472 121.521 96.9459 120.081 94.243C117.142 88.6569 117.082 82.7104 119.181 76.8239C121.461 70.3368 130.28 68.8952 134.179 73.7005C135.079 74.8418 135.799 76.1632 136.639 77.4246C139.098 76.884 141.558 76.3434 144.017 75.7427C142.878 70.9375 140.178 67.5738 135.919 65.6517C132.259 64.0299 128.42 63.8497 124.461 64.5104C118.342 65.5916 114.142 69.0154 111.743 74.6015C109.523 79.7071 109.463 85.173 110.423 90.5189C111.803 97.907 116.062 102.892 123.561 104.514C132.139 106.376 140.838 103.493 143.897 93.4021C144.017 93.0417 143.897 92.2007 143.657 92.1407C141.378 91.3598 139.038 90.639 136.759 89.9783H136.699Z" fill="white"/>
<path d="M146.837 49.1337C143.538 49.1337 140.718 49.1337 137.898 49.1337C137.478 49.1337 136.879 48.5931 136.639 48.1726C133.639 43.8479 130.7 39.403 127.7 35.0783C126.62 33.5166 125.001 32.7357 123.201 32.6156C121.941 32.4955 120.681 32.6156 119.241 32.6156V49.1937C116.722 49.1937 114.382 49.1937 112.043 49.1937C111.803 49.1937 111.383 48.7733 111.323 48.4729C111.203 48.0525 111.263 47.5719 111.263 47.0914C111.263 35.2585 111.263 23.3655 111.263 11.5325C111.263 9.97082 111.623 9.43023 113.242 9.49029C118.762 9.61042 124.341 9.49029 129.86 9.55036C132.139 9.55036 134.419 9.91075 136.639 10.4513C140.598 11.4124 142.698 14.4157 143.298 18.1998C144.077 22.945 143.058 27.5701 137.898 30.1529C136.579 30.8136 135.139 31.1139 133.459 31.7146C139.878 36.0393 142.518 42.9469 146.897 49.1937L146.837 49.1337ZM119.241 26.0084C123.321 26.0084 127.16 26.0684 131 26.0084C133.399 25.9483 135.139 23.9661 135.439 21.5034C135.679 19.281 134.359 17.0586 132.319 16.518C128 15.3767 123.681 16.0975 119.241 15.9173V26.0684V26.0084Z" fill="#E73141"/>
<path d="M146.597 215.215H138.198C137.299 212.813 136.399 210.41 135.559 208.007C135.079 206.746 134.479 205.965 132.859 206.025C128.84 206.205 124.761 206.145 120.741 206.025C119.361 206.025 118.642 206.446 118.222 207.767C117.562 209.869 116.722 211.852 116.062 213.954C115.762 214.915 115.282 215.335 114.202 215.335C111.983 215.275 109.703 215.335 107.123 215.335C108.203 212.633 109.163 210.11 110.123 207.587C113.542 198.757 116.902 189.928 120.321 181.098C120.501 180.678 120.741 180.257 120.861 179.837C121.461 178.455 121.641 176.473 122.661 175.872C123.861 175.152 125.78 175.572 127.4 175.572C130.94 175.572 131 175.572 132.199 178.635C136.879 190.288 141.498 202.001 146.117 213.654C146.297 214.134 146.357 214.615 146.537 215.215H146.597ZM132.139 199.418C130.34 194.553 128.6 189.928 126.86 185.363C126.68 185.363 126.56 185.363 126.38 185.363C124.701 189.988 123.021 194.613 121.281 199.418H132.139Z" fill="#E73141"/>
<path d="M120.561 144.878V159.655H112.823V120.071C113.482 120.071 114.082 120.071 114.682 120.071C120.501 120.191 126.32 120.251 132.139 120.432C138.378 120.612 142.218 124.696 142.758 131.003C143.358 137.971 140.178 142.296 135.439 143.737C133.039 144.518 130.34 144.638 127.82 144.818C125.48 144.999 123.141 144.818 120.501 144.818L120.561 144.878ZM120.621 138.391C124.341 138.091 127.94 137.971 131.479 137.37C133.639 137.01 134.839 134.847 134.839 132.565C134.839 130.282 133.699 128.06 131.539 127.7C128 127.099 124.341 126.979 120.621 126.618V138.451V138.391Z" fill="#E73141"/>
<path d="M136.699 89.9784C138.978 90.6991 141.318 91.3599 143.597 92.1407C143.837 92.2008 143.957 93.0417 143.837 93.4021C140.778 103.493 132.079 106.436 123.501 104.514C116.062 102.892 111.743 97.907 110.363 90.5189C109.343 85.113 109.403 79.7071 111.683 74.6015C114.142 69.0154 118.342 65.5917 124.401 64.5105C128.36 63.7897 132.199 63.9699 135.859 65.6517C140.118 67.5739 142.878 70.9375 143.957 75.7428C141.498 76.2834 139.038 76.884 136.579 77.4246C135.739 76.1632 135.019 74.8418 134.119 73.7006C130.16 68.8953 121.401 70.3369 119.121 76.824C117.022 82.7104 117.082 88.6569 120.021 94.243C121.461 96.946 124.101 98.2074 127.28 98.2674C130.94 98.3876 133.459 96.7658 135.139 93.7024C135.739 92.6212 136.099 91.4199 136.639 89.9784H136.699Z" fill="#E73141"/>
<path d="M58.5312 94.3032C51.3324 82.4702 44.3735 70.8775 37.2947 59.2248C39.8743 55.0803 42.4538 50.8156 45.0934 46.611C45.3334 46.2506 45.9333 46.0103 46.3532 46.0103C54.4519 46.0103 62.4906 45.9503 70.5893 46.0103C71.1892 46.0103 71.9691 46.611 72.329 47.1516C74.7886 51.0559 77.1882 55.0803 79.7678 59.2849C72.8089 70.8175 65.7301 82.4702 58.5912 94.3632L58.5312 94.3032ZM58.5312 91.5401C65.1902 80.5481 71.6691 69.9165 78.0881 59.2248C75.8084 55.6208 73.6488 52.0169 71.3692 48.5331C71.0092 47.9925 70.1094 47.4519 69.5095 47.4519C62.1906 47.3919 54.8718 47.3919 47.553 47.4519C46.8931 47.4519 45.9933 47.9324 45.6333 48.473C43.5937 51.5964 41.734 54.84 39.7543 58.0235C39.1544 58.9845 39.2144 59.5852 39.7543 60.4862C43.5937 66.7931 47.373 73.1 51.1524 79.4069C53.4921 83.3111 55.8917 87.2755 58.5312 91.5401Z" fill="#E73141"/>
<path d="M214.086 46.3106C214.086 50.6353 214.086 54.8399 214.086 59.0445C214.086 66.6728 214.086 74.3012 214.086 81.9295C214.086 87.1552 210.007 91.2998 204.668 91.48C203.048 91.48 201.428 91.48 199.808 91.48C198.249 91.54 197.109 92.2608 196.509 93.7625C196.389 94.0628 196.089 94.303 195.849 94.6034C195.549 94.303 195.129 94.0628 195.009 93.7024C194.349 92.0806 193.149 91.54 191.53 91.4199C189.01 91.2397 186.491 91.2397 184.031 90.6991C180.552 89.9183 177.612 86.3744 177.612 82.7704C177.492 70.8174 177.612 58.8643 177.612 46.8511C177.612 46.671 177.672 46.5508 177.792 46.2505H214.206L214.086 46.3106ZM212.586 80.0074L213.006 79.7071C213.006 79.0464 213.066 78.3256 213.066 77.6648C213.066 68.2946 213.066 58.9244 213.066 49.5541C213.066 47.9323 212.646 47.3917 210.967 47.3917C200.708 47.4518 190.45 47.3917 180.132 47.3917C178.752 47.3917 178.392 47.8723 178.392 49.1937C178.392 59.4649 178.452 69.7362 178.392 80.0675C178.392 86.3143 181.931 90.639 189.01 90.1585C191.17 89.9783 193.269 90.0984 195.069 91.6001C195.309 91.8404 196.089 91.8404 196.329 91.6001C198.309 89.9783 200.588 90.0984 202.868 90.2186C208.747 90.5189 212.346 87.4556 212.946 81.7493C213.066 80.8483 212.766 80.4279 211.806 80.548C210.787 80.6681 209.767 80.7883 208.687 80.7883C207.607 80.7883 207.247 81.2688 207.307 82.2298C207.307 83.3711 207.307 84.5123 207.307 85.6536C207.127 85.6536 206.947 85.6536 206.767 85.7137C205.208 84.0919 203.708 82.35 202.088 80.7883C201.008 79.7071 200.348 78.5658 200.468 77.0041C200.468 76.1031 200.408 74.9619 199.868 74.2411C198.729 72.6193 197.229 71.2378 195.849 69.616C190.63 74.7817 185.831 79.5869 181.031 84.3321C180.911 84.3321 180.731 84.212 180.611 84.1519C180.791 83.6714 180.911 83.1308 181.151 82.6503C181.751 81.5091 182.591 80.4279 183.011 79.2266C183.491 77.9051 183.731 76.4635 183.971 75.022C184.751 70.517 186.791 67.1534 192.01 66.5527C191.65 66.0121 191.41 65.7118 191.17 65.4114C189.67 63.9098 188.05 62.4682 186.671 60.9065C185.771 59.9455 184.871 59.4049 183.551 59.525C183.191 59.525 182.591 59.1646 182.411 58.8643C181.631 57.2425 180.971 55.5607 180.072 53.5785C181.751 54.2993 183.071 54.8399 184.451 55.3805C185.471 55.7409 186.011 56.2815 186.011 57.4828C186.011 58.2036 186.551 58.9844 187.03 59.5851C187.69 60.426 188.53 61.1468 189.31 61.9276C190.51 63.129 191.71 64.2702 193.149 65.7118C193.449 63.0088 193.989 60.7864 196.029 59.6451C198.069 58.5039 200.228 57.5428 202.508 57.1224C205.267 56.5217 207.727 55.4405 209.887 53.5184C210.187 53.7587 210.487 53.999 210.787 54.2392C205.927 59.2247 201.188 64.09 196.269 69.1355C197.469 70.2167 198.549 70.9976 199.448 72.0787C200.648 73.4602 201.908 74.2411 203.768 73.9408C205.208 73.7005 206.227 74.2411 207.247 75.3223C208.867 77.0041 210.667 78.5058 212.406 80.0675L212.586 80.0074ZM194.769 69.1355C194.769 69.1355 194.709 68.7151 194.649 68.5349C193.989 68.2946 193.329 67.9943 192.61 67.9342C189.97 67.754 187.33 69.2556 186.431 71.7784C185.591 74.0609 185.171 76.4635 184.511 78.8662C187.99 75.5625 191.35 72.3791 194.709 69.1956L194.769 69.1355ZM205.507 58.2636C205.507 58.2636 205.327 58.0234 205.208 57.9032C204.308 57.9633 203.408 58.0234 202.568 58.1435C199.268 58.8042 196.209 59.8253 194.889 63.3692C194.229 65.1111 194.589 66.9131 195.429 67.5738C198.789 64.4504 202.148 61.327 205.447 58.2036L205.507 58.2636ZM206.107 82.5302C206.887 78.9863 203.528 78.3856 202.208 76.0431C201.728 78.5058 203.288 80.9685 206.107 82.5302Z" fill="#E73141"/>
<path d="M119.241 26.0084V15.8573C123.681 16.0976 128 15.3768 132.319 16.458C134.359 16.9986 135.679 19.221 135.439 21.4434C135.139 23.9662 133.399 25.8883 131 25.9484C127.16 26.0685 123.321 25.9484 119.241 25.9484V26.0084Z" fill="white"/>
<path d="M132.139 199.418H121.281C123.021 194.613 124.701 189.988 126.38 185.363C126.56 185.363 126.68 185.363 126.86 185.363C128.6 189.928 130.28 194.553 132.139 199.418Z" fill="white"/>
<path d="M120.621 138.391V126.558C124.341 126.919 128 126.979 131.539 127.64C133.699 128 134.839 130.222 134.839 132.505C134.839 134.787 133.639 136.95 131.479 137.31C128 137.911 124.401 138.031 120.621 138.331V138.391Z" fill="white"/>
<path d="M58.5312 91.54C55.9516 87.2153 53.552 83.311 51.1524 79.4067C47.373 73.0998 43.5936 66.7929 39.7543 60.486C39.2144 59.5851 39.0944 58.9243 39.7543 58.0233C41.7939 54.8999 43.5936 51.6564 45.6333 48.4729C45.9933 47.9323 46.8931 47.4518 47.553 47.4518C54.8718 47.3917 62.1906 47.3917 69.5094 47.4518C70.1693 47.4518 71.0092 47.9924 71.3691 48.533C73.6488 52.0168 75.8084 55.6207 78.0881 59.2247C71.6091 69.9164 65.1901 80.548 58.5312 91.54ZM52.2922 71.4781C55.9516 71.4781 59.3711 71.4781 62.7305 71.4781C64.2103 71.4781 64.8102 72.2189 64.5303 73.7005C64.5303 73.7005 64.4103 74.121 64.3503 74.3612C64.0503 76.1632 63.7504 77.9652 63.4504 79.7671C63.6304 79.7671 63.8104 79.8873 63.9903 79.8873C64.1703 79.5869 64.4103 79.2866 64.4703 78.9262C65.1901 75.3823 65.79 71.8385 66.5699 68.2946C67.2898 64.9309 67.6497 61.5672 69.5094 58.5039C71.3691 55.3805 70.7092 51.8366 70.1093 48.533C69.4495 48.7132 68.7896 49.0736 68.4296 48.9534C62.6706 46.6709 57.6314 48.2927 53.0721 52.0168C51.7523 53.098 50.5525 54.2993 49.1128 55.5607C48.8128 54.1191 48.5128 52.9178 48.2129 51.7164C47.773 49.7543 47.273 48.7332 46.7131 48.6531C46.8331 49.494 47.0131 50.2148 47.1331 50.9957C47.553 54.1191 48.9928 57.2425 47.313 60.426C47.0731 60.9065 47.0731 61.5672 46.9531 62.1078C46.5332 64.3302 47.553 66.3124 49.5327 67.4537C50.0126 67.754 50.4925 68.2946 50.6725 68.7751C51.1524 70.6371 51.3924 72.4992 51.8123 74.3612C52.2322 76.2233 52.7122 78.0252 53.1321 79.8873C53.3721 79.8873 53.552 79.8272 53.792 79.7671C53.3121 77.1242 52.8321 74.4813 52.3522 71.4781H52.2922Z" fill="white"/>
<path d="M212.586 80.0074C210.847 78.4457 209.047 76.944 207.427 75.2622C206.407 74.2411 205.327 73.7005 203.948 73.8807C202.088 74.181 200.828 73.3401 199.628 72.0187C198.729 70.9975 197.589 70.1566 196.449 69.0754C201.368 64.0299 206.047 59.1646 210.967 54.1792C210.667 53.9389 210.367 53.6986 210.067 53.4584C207.847 55.3805 205.447 56.4616 202.688 57.0623C200.468 57.5428 198.249 58.5039 196.209 59.5851C194.169 60.7263 193.629 62.9487 193.329 65.6517C191.89 64.2101 190.69 63.0689 189.49 61.8676C188.71 61.0867 187.87 60.3659 187.21 59.525C186.731 58.9243 186.191 58.1435 186.191 57.4227C186.191 56.2214 185.651 55.6808 184.631 55.3204C183.251 54.7798 181.931 54.1792 180.252 53.5184C181.091 55.5006 181.751 57.1824 182.591 58.8042C182.771 59.1646 183.371 59.525 183.731 59.4649C185.051 59.3448 185.951 59.8854 186.85 60.8464C188.29 62.4082 189.85 63.8497 191.35 65.3514C191.59 65.5916 191.83 65.952 192.19 66.4926C186.97 67.0933 184.931 70.457 184.151 74.9619C183.911 76.3434 183.671 77.785 183.191 79.1665C182.771 80.3678 181.931 81.449 181.331 82.5902C181.091 83.0708 180.971 83.6113 180.791 84.0919C180.911 84.0919 181.091 84.212 181.211 84.2721C186.011 79.4668 190.81 74.7216 196.029 69.556C197.469 71.1177 198.909 72.5593 200.048 74.181C200.588 74.9018 200.648 76.0431 200.648 76.9441C200.588 78.5658 201.188 79.647 202.268 80.7282C203.888 82.2899 205.387 84.0318 206.947 85.6536C207.127 85.6536 207.307 85.6536 207.487 85.5935C207.487 84.4523 207.487 83.311 207.487 82.1698C207.487 81.1487 207.787 80.6681 208.867 80.7282C209.887 80.7282 210.907 80.6081 211.986 80.4879C212.946 80.3678 213.186 80.7883 213.126 81.6892C212.526 87.4556 208.927 90.4588 203.048 90.1585C200.768 90.0384 198.429 89.9182 196.509 91.54C196.269 91.7803 195.489 91.7202 195.249 91.54C193.449 90.0384 191.35 89.9783 189.19 90.0984C182.111 90.579 178.572 86.2542 178.572 80.0074C178.572 69.7362 178.572 59.4649 178.572 49.1336C178.572 47.8122 178.932 47.3317 180.312 47.3317C190.57 47.3317 200.828 47.3917 211.147 47.3317C212.826 47.3317 213.246 47.8723 213.246 49.494C213.186 58.8643 213.246 68.2345 213.246 77.6048C213.246 78.2655 213.246 78.9863 213.186 79.647L212.766 79.9473L212.586 80.0074Z" fill="white"/>
<path d="M194.769 69.1356C191.41 72.3191 188.05 75.5025 184.571 78.8062C185.171 76.4636 185.651 74.0009 186.491 71.7184C187.39 69.2557 190.03 67.694 192.67 67.8742C193.329 67.8742 194.049 68.2947 194.709 68.4749C194.709 68.6551 194.769 68.8953 194.829 69.0755L194.769 69.1356Z" fill="white"/>
<path d="M205.507 58.2637C202.148 61.3871 198.849 64.4505 195.489 67.634C194.649 66.9732 194.289 65.1112 194.949 63.4294C196.269 59.8855 199.328 58.8644 202.628 58.2036C203.528 58.0234 204.428 58.0234 205.268 57.9634C205.387 58.0835 205.447 58.2036 205.567 58.3238L205.507 58.2637Z" fill="white"/>
<path d="M206.107 82.5302C203.348 80.9685 201.788 78.5058 202.208 76.0431C203.528 78.3857 206.887 78.9863 206.107 82.5302Z" fill="white"/>
<path d="M200.408 100.61C199.748 101.331 199.329 101.751 198.909 102.232C198.549 101.751 198.009 101.271 197.949 100.79C197.949 100.31 198.489 99.7691 198.789 99.2285C199.269 99.5889 199.688 100.009 200.408 100.61Z" fill="white"/>
<path d="M52.2923 71.4781C52.8322 74.4813 53.3121 77.1242 53.732 79.7671C53.4921 79.7671 53.3121 79.8272 53.0722 79.8873C52.6522 78.0252 52.1723 76.2233 51.7524 74.3612C51.3324 72.4992 51.0925 70.6371 50.6126 68.7751C50.4926 68.2345 49.9527 67.6939 49.4727 67.4537C47.5531 66.3124 46.5332 64.3302 46.8932 62.1078C47.0131 61.5672 47.0131 60.9065 47.2531 60.426C48.8728 57.2425 47.4931 54.1191 47.0731 50.9957C46.9531 50.2148 46.7732 49.434 46.6532 48.6531C47.1731 48.7732 47.673 49.7943 48.153 51.7164C48.4529 52.9178 48.6929 54.1191 49.0528 55.5607C50.4926 54.2392 51.6924 53.0379 53.0122 52.0168C57.5714 48.2927 62.5506 46.6709 68.3697 48.9534C68.7896 49.1336 69.3895 48.7132 70.0494 48.533C70.6493 51.8366 71.3092 55.3805 69.4495 58.5039C67.5898 61.5672 67.2299 64.991 66.51 68.2946C65.7901 71.8385 65.1302 75.3823 64.4103 78.9262C64.3503 79.2265 64.1104 79.5269 63.9304 79.8873C63.7504 79.8873 63.5705 79.7671 63.3905 79.7671C63.6904 77.9652 63.9904 76.1632 64.2903 74.3612C64.2903 74.121 64.4103 73.9408 64.4703 73.7005C64.7903 72.2189 64.1904 71.4781 62.6706 71.4781C59.2512 71.4781 55.8917 71.4781 52.2323 71.4781H52.2923ZM49.6527 63.7296C50.7925 64.5705 51.9923 65.1712 52.7722 66.1322C54.032 67.6939 55.7117 67.6939 57.1515 67.2735C61.8907 65.952 65.7901 63.3091 68.2497 58.8643C69.1495 57.2425 68.1297 53.2181 66.57 52.197C66.33 52.0168 65.7901 52.0768 65.4901 52.197C59.5511 54.5996 54.5119 58.2636 49.5927 63.7296H49.6527ZM65.6101 50.9356C64.7703 49.4339 63.6904 48.9534 62.3107 49.0736C56.2516 49.6141 52.1123 52.9778 49.1128 58.0233C48.153 59.6451 48.9328 60.7864 49.7727 62.1679C54.332 57.3026 59.5511 53.6385 65.6101 50.9957V50.9356ZM51.8124 68.1144C51.5724 69.9764 52.0523 70.7573 53.732 70.6371C55.1718 70.517 56.6116 70.6371 58.0513 70.6371C60.391 70.6371 62.7306 70.6371 65.1902 70.6371C65.6701 68.0543 66.09 65.6517 66.57 62.8887C62.1907 66.853 57.5714 69.0754 51.8124 68.1744V68.1144ZM52.2923 67.2134C50.7925 65.3514 49.4727 63.6695 48.093 61.9276C47.3731 64.9309 48.8128 66.7329 52.2923 67.2134ZM69.4495 54.7798C70.3494 51.8366 68.8496 49.4339 66.33 49.7343C67.3498 51.4161 68.3697 53.0379 69.4495 54.7798Z" fill="#E73141"/>
<path d="M49.6527 63.7297C54.5719 58.3238 59.5511 54.5997 65.5501 52.1971C65.8501 52.077 66.39 52.0169 66.63 52.1971C68.1897 53.1582 69.2095 57.2426 68.3097 58.8644C65.8501 63.2492 61.9507 65.8921 57.2115 67.2736C55.7117 67.6941 54.092 67.6941 52.8322 66.1323C52.0523 65.1713 50.8525 64.5706 49.7127 63.7297H49.6527Z" fill="white"/>
<path d="M65.6101 50.9356C59.5511 53.5785 54.3319 57.2425 49.7727 62.1078C48.9328 60.7263 48.153 59.5851 49.1128 57.9633C52.1123 52.9178 56.2516 49.5541 62.3107 49.0135C63.6904 48.8934 64.7703 49.434 65.6101 50.8756V50.9356Z" fill="white"/>
<path d="M51.8123 68.1144C57.5714 69.0154 62.2506 66.853 66.5699 62.8286C66.09 65.6517 65.6701 67.9943 65.1902 70.5771C62.7906 70.5771 60.3909 70.5771 58.0513 70.5771C56.6116 70.5771 55.1718 70.457 53.732 70.5771C52.0523 70.6972 51.5724 69.9164 51.8123 68.0543V68.1144Z" fill="white"/>
<path d="M52.2923 67.2135C48.8129 66.6729 47.3731 64.871 48.093 61.9277C49.4728 63.6696 50.8526 65.4115 52.2923 67.2135Z" fill="white"/>
<path d="M69.4495 54.7799C68.3696 53.038 67.3498 51.4162 66.33 49.7344C68.9095 49.4341 70.4093 51.8367 69.4495 54.7799Z" fill="white"/>
<path d="M88.3464 3.00319C85.4069 3.00319 82.4674 3.00319 79.5279 3.00319C77.2482 3.00319 77.2482 3.00319 77.2482 5.22562C77.2482 16.6381 77.2482 27.9905 77.2482 39.403C77.2482 40.0037 77.2482 40.6644 77.2482 41.3251C76.7083 41.3852 76.4084 41.4452 76.0484 41.4452C65.1302 41.4452 54.212 41.4452 43.2937 41.4452C42.0339 41.4452 41.854 40.8446 41.854 39.8835C41.854 35.0783 41.854 30.273 41.854 25.4678C41.854 24.0862 41.854 22.6447 41.854 21.2632C41.674 21.2632 41.554 21.2632 41.374 21.2031C40.9541 21.7437 40.5342 22.2242 40.1742 22.8249C36.2749 29.0116 32.3155 35.1383 28.4761 41.3852C27.8162 42.4664 27.3963 43.8479 27.3963 45.0492C27.3363 62.4082 27.3363 79.7071 27.3963 97.0661C27.3963 98.2073 27.8162 99.4687 28.4161 100.43C31.4757 105.175 34.6551 109.8 37.7746 114.485C38.9744 116.287 40.1742 118.029 41.374 119.771C41.794 118.75 41.854 117.909 41.914 117.068C41.914 113.884 41.914 110.701 41.914 107.518C41.914 106.196 42.2739 105.716 43.7137 105.776C54.3919 105.776 65.0702 105.776 75.7485 105.776C76.2284 105.776 76.7083 105.896 77.3082 105.896C77.3082 106.737 77.3082 107.457 77.3082 108.118C77.3082 127.099 77.4882 146.02 77.1882 165C77.0683 170.887 77.7881 176.173 81.9275 180.617C81.9875 180.678 82.0475 180.798 82.1074 180.918C84.567 184.582 86.9667 188.246 89.4263 191.91C89.5462 191.91 89.7262 191.79 89.8462 191.79C89.8462 191.189 89.9062 190.528 89.9062 189.928C89.9062 128.42 89.9062 66.9131 89.9062 5.40582C89.9062 5.04542 89.9062 4.68503 89.9062 4.3847C90.0262 3.24345 89.4863 2.88306 88.4064 2.88306L88.3464 3.00319ZM58.5313 94.3031C51.3324 82.4701 44.3736 70.8774 37.2947 59.2247C39.8743 55.0802 42.4539 50.8155 45.0934 46.6109C45.3334 46.2505 45.9333 46.0102 46.3532 46.0102C54.4519 46.0102 62.4906 45.9502 70.5893 46.0102C71.1892 46.0102 71.9691 46.6109 72.329 47.1515C74.7886 51.0557 77.1882 55.0802 79.7678 59.2847C72.809 70.8174 65.7301 82.4701 58.5913 94.3631L58.5313 94.3031Z" fill="white"/>
<path d="M229.084 44.929C229.084 44.2082 228.784 43.3673 228.364 42.7066C224.944 37.2406 221.405 31.7746 217.925 26.3087C216.546 24.1463 215.166 22.044 213.786 19.8816C213.666 19.8816 213.486 20.0018 213.366 20.0018V41.3251H177.972V3.00317H165.674V193.111C166.154 192.631 166.454 192.33 166.634 192.03C169.573 187.645 172.513 183.26 175.392 178.815C176.712 176.773 178.092 174.971 178.092 172.148C177.912 150.645 178.032 129.141 178.032 107.638C178.032 107.097 178.092 106.496 178.152 105.896H213.426V121.212C213.966 120.552 214.206 120.311 214.386 120.071C219.065 113.044 223.744 106.016 228.424 98.9882C228.844 98.3875 229.144 97.4865 229.144 96.7657C229.144 79.4668 229.144 62.228 229.144 44.929H229.084ZM214.086 58.9844C214.086 66.6127 214.086 74.2411 214.086 81.8694C214.086 87.0952 210.007 91.2397 204.668 91.4199C203.048 91.4199 201.428 91.4199 199.808 91.4199C198.249 91.4799 197.109 92.2007 196.509 93.7024C196.389 94.0027 196.089 94.243 195.849 94.5433C195.549 94.243 195.129 94.0027 195.009 93.6423C194.349 92.0205 193.149 91.4799 191.53 91.3598C189.01 91.1796 186.491 91.1796 184.031 90.639C180.551 89.8582 177.612 86.3143 177.612 82.7104C177.492 70.7573 177.612 58.8042 177.612 46.7911C177.612 46.6109 177.672 46.4907 177.792 46.1904H214.206C214.206 50.5151 214.206 54.7197 214.206 58.9243L214.086 58.9844Z" fill="white"/>
<path d="M46.1133 98.6879C46.1133 98.6879 46.7732 98.6278 47.1932 98.6278C47.7931 98.6278 48.153 98.7479 48.453 98.9882C48.6929 99.1684 48.8729 99.4687 48.8729 99.8291C48.8729 100.19 48.7529 100.49 48.5129 100.67C48.213 100.97 47.7331 101.091 47.1332 101.091C46.9532 101.091 46.7732 101.091 46.6532 101.091V102.712H46.0533V98.7479L46.1133 98.6879ZM46.7132 100.61C46.7132 100.61 47.0132 100.61 47.1932 100.61C47.913 100.61 48.333 100.31 48.333 99.7691C48.333 99.2285 47.913 98.9882 47.2532 98.9882C47.0132 98.9882 46.8332 98.9882 46.7132 98.9882V100.55V100.61Z" fill="#E73141"/>
<path d="M53.4921 100.61C53.4921 101.991 52.5323 102.712 51.3925 102.712C50.2526 102.712 49.3528 101.871 49.3528 100.67C49.3528 99.4687 50.2526 98.5677 51.4524 98.5677C52.6522 98.5677 53.4921 99.4087 53.4921 100.61ZM50.0127 100.67C50.0127 101.511 50.5526 102.292 51.4524 102.292C52.3523 102.292 52.8922 101.511 52.8922 100.61C52.8922 99.8291 52.4123 98.9882 51.4524 98.9882C50.4926 98.9882 50.0127 99.7691 50.0127 100.67Z" fill="#E73141"/>
<path d="M57.9914 100.91C57.9914 100.37 57.9314 99.6489 57.9314 99.1684C57.7515 99.6489 57.5715 100.129 57.3915 100.67L56.6116 102.592H56.1917L55.4718 100.67C55.2319 100.129 55.1119 99.5889 54.9319 99.1083C54.9319 99.5889 54.9319 100.25 54.8719 100.85L54.7519 102.592H54.212L54.512 98.5677H55.2319L56.0117 100.49C56.1917 100.97 56.3717 101.391 56.4917 101.811C56.6116 101.391 56.7916 100.97 56.9716 100.49L57.7515 98.5677H58.4713L58.7713 102.592H58.1714L58.0514 100.85L57.9914 100.91Z" fill="#E73141"/>
<path d="M60.2111 101.391L59.7311 102.652H59.1312L60.631 98.6278H61.3509L62.8506 102.652H62.2507L61.7708 101.391H60.2111ZM61.7108 100.97L61.2909 99.8291C61.2909 99.8291 61.1109 99.3486 61.0509 99.1083C61.0509 99.1083 60.9309 99.5889 60.811 99.8291L60.391 100.97H61.7708H61.7108Z" fill="#E73141"/>
<path d="M63.5706 98.6879C63.5706 98.6879 64.2904 98.6278 64.6504 98.6278C65.2503 98.6278 65.6702 98.7479 65.9702 98.9281C66.2101 99.1083 66.3301 99.4087 66.3301 99.709C66.3301 100.25 65.9702 100.61 65.4902 100.73C65.8502 100.85 66.0302 101.151 66.1501 101.571C66.2701 102.112 66.3901 102.532 66.5101 102.652H65.9102C65.9102 102.652 65.7302 102.172 65.6102 101.691C65.4902 101.151 65.2503 100.91 64.7104 100.91H64.1705V102.652H63.5706V98.6879ZM64.1705 100.55H64.7704C65.3703 100.55 65.7902 100.25 65.7902 99.7691C65.7902 99.2285 65.3703 99.0483 64.7704 99.0483C64.4704 99.0483 64.2904 99.0483 64.1705 99.0483V100.49V100.55Z" fill="#E73141"/>
<path d="M69.4496 100.79H67.7099V102.232H69.6296V102.652H67.11V98.6278H69.5096V99.0483H67.6499V100.31H69.3896V100.73L69.4496 100.79Z" fill="#E73141"/>
<path d="M70.1095 102.352L72.5691 99.1083H70.2895V98.6879H73.289V98.9882L70.8294 102.232H73.349V102.652H70.1095V102.352Z" fill="#E73141"/>
<path d="M188.17 101.451L187.69 102.712H187.09L188.59 98.6879H189.31L190.81 102.712H190.21L189.73 101.451H188.17ZM189.61 101.03L189.19 99.8892C189.19 99.8892 189.01 99.4087 188.95 99.1684C188.95 99.1684 188.83 99.6489 188.71 99.8892L188.29 101.03H189.67H189.61Z" fill="#E73141"/>
<path d="M195.249 100.97C195.249 100.43 195.189 99.709 195.189 99.2285C195.009 99.709 194.829 100.19 194.649 100.73L193.869 102.652H193.449L192.73 100.73C192.49 100.19 192.37 99.6489 192.19 99.1684C192.19 99.6489 192.19 100.31 192.13 100.91L192.01 102.652H191.47L191.77 98.6278H192.49L193.269 100.55C193.449 101.03 193.629 101.451 193.749 101.871C193.869 101.451 194.049 101.03 194.229 100.55L195.009 98.6278H195.729L196.029 102.652H195.429L195.309 100.91L195.249 100.97Z" fill="#E73141"/>
<path d="M200.648 100.67C200.648 102.052 199.688 102.772 198.549 102.772C197.409 102.772 196.509 101.931 196.509 100.73C196.509 99.5288 197.409 98.6278 198.609 98.6278C199.808 98.6278 200.648 99.4687 200.648 100.67ZM197.169 100.73C197.169 101.571 197.709 102.352 198.609 102.352C199.508 102.352 200.048 101.571 200.048 100.67C200.048 99.8892 199.568 99.0483 198.609 99.0483C197.649 99.0483 197.169 99.8291 197.169 100.73Z" fill="#E73141"/>
<path d="M201.968 98.6879V101.03C201.968 101.931 202.388 102.292 202.988 102.292C203.648 102.292 204.068 101.871 204.068 101.03V98.6879H204.668V101.03C204.668 102.232 203.948 102.772 202.988 102.772C202.088 102.772 201.368 102.292 201.368 101.09V98.7479H201.968V98.6879Z" fill="#E73141"/>
</g>
<defs>
<clipPath id="clip0_2517_1947">
<rect width="256" height="256" fill="white"/>
</clipPath>
</defs>
</svg>
