<svg width="256" height="256" viewBox="0 0 256 256" fill="none" xmlns="http://www.w3.org/2000/svg">
<path opacity="0.7" d="M104.357 210.456C97.3771 210.456 90.2492 210.002 83.1718 209.11C64.2862 206.723 45.3785 200.871 29.9243 192.63C14.8234 184.577 4.59838 175.173 1.12908 166.155C-2.16361 157.592 2.51365 144.089 5.59187 136.803C10.7391 124.626 18.832 111.996 27.7986 102.144C49.9895 77.7597 75.3375 61.529 105.293 52.5151C120.669 47.8899 136.937 45.5442 153.643 45.5442C161.43 45.5442 169.233 46.0644 176.827 47.0954C219.55 52.884 248.891 73.2544 254.808 89.4819C259.961 103.626 248.065 130.708 225.199 156.877C208.43 176.068 179.95 193.85 150.867 203.283C136.199 208.041 120.549 210.456 104.354 210.456H104.357Z" fill="white"/>
<path d="M245.661 117.154C242.851 123.428 239.104 129.996 234.563 136.636C233.371 129.056 231.876 120.673 230.412 113.447C199.479 131.225 180.621 139.183 134.811 153.402C91.5486 166.83 53.4431 171.736 34.3524 171.777C37.0396 178.313 40.4458 186.107 43.8142 193.591C39.8055 191.936 35.9515 190.126 32.2961 188.178C18.4693 180.803 8.82465 172.114 5.83474 164.343C3.92347 159.371 5.56981 149.808 10.2376 138.764C13.2212 131.705 17.2393 124.485 21.8535 117.791C22.9163 125.386 24.4081 134.567 25.9851 142.84C51.1849 128 82.0333 114.134 119.858 103.011C164.751 89.8098 192.354 84.8977 221.572 84.1631C218.368 76.3504 214.643 68.1215 211.366 61.1853C232.15 69.4331 246.396 81.1458 250.064 91.2096C252.155 96.9383 250.591 106.154 245.661 117.154Z" fill="white"/>
<path d="M250.064 91.2096C252.155 96.9383 250.591 106.154 245.661 117.154C242.851 123.428 239.104 129.996 234.563 136.635C233.371 129.056 231.876 120.673 230.412 113.446C199.479 131.225 180.621 139.183 134.811 153.402C91.5486 166.83 53.4431 171.736 34.3524 171.777C37.0396 178.313 40.4458 186.106 43.8142 193.591C39.8055 191.936 35.9515 190.126 32.2961 188.178C18.5734 180.857 8.97288 172.243 5.90728 164.516L3.47877 165.247C7.7334 176.307 23.7206 188.443 45.3123 196.914C56.7641 201.41 69.793 204.878 83.4841 206.606C104.13 209.213 127.188 208.315 150.088 200.884C178.562 191.646 206.625 174.296 223.297 155.215C227.653 150.23 231.608 145.202 235.115 140.242C249.437 119.989 256.271 100.87 252.436 90.3457L250.011 91.074C250.026 91.1181 250.049 91.1623 250.064 91.2096Z" fill="#4F66AC"/>
<path d="M5.90728 164.516C5.8852 164.459 5.85682 164.399 5.83474 164.343C3.92347 159.371 5.56981 149.808 10.2376 138.764C13.2212 131.705 17.2393 124.485 21.8535 117.791C22.9163 125.386 24.4081 134.567 25.9851 142.84C51.1849 128 82.0333 114.134 119.858 103.011C164.751 89.8098 192.354 84.8977 221.572 84.1631C218.368 76.3504 214.643 68.1215 211.366 61.1853C232.059 69.3953 246.267 81.0418 250.011 91.0741L252.436 90.3458C248.405 79.2888 232.778 66.4474 209.776 57.8465C199.923 54.1608 188.718 51.2508 176.49 49.5955C154.927 46.6729 130.14 47.6723 106.019 54.9301C74.2967 64.4769 49.712 81.8111 29.6626 103.84C26.7168 107.075 23.935 110.533 21.352 114.112C7.66401 133.076 -0.324853 155.354 3.47877 165.247L5.90728 164.516Z" fill="#E53123"/>
<path d="M91.0976 161.915C94.8855 160.566 99.3167 158.069 102.395 155.291C99.4902 151.804 93.2612 145.511 91.9681 144.127C93.4284 142.361 95.8033 136.617 95.9988 135.441C94.5543 127.53 87.0228 121.004 83.79 120.02C74.2494 121.262 58.4199 126.502 52.9889 129.876C52.9731 131.711 53.9035 136.714 54.6699 138.802C55.9063 138.619 56.7925 138.354 57.6535 138.083C59.4103 144.94 65.5604 164.176 67.7019 168.744C71.7421 168.252 77.7124 165.919 79.9328 164.169C79.0938 160.991 77.0249 154.5 76.9303 153.85C77.397 153.352 78.1855 152.917 78.6397 152.762C82.6546 155.24 87.5873 159.995 91.0945 161.918L91.0976 161.915ZM73.9246 144.048C72.4391 140.706 70.982 136.071 70.6382 133.956C72.2562 132.928 76.0566 132.14 78.4378 132.275C79.8602 133.937 80.8884 136.033 81.8377 139.174C80.3428 140.788 77.889 142.885 73.9214 144.048H73.9246Z" fill="#2C2A28"/>
<path d="M169.977 122.224C171.544 119.579 173.374 115.036 173.998 109.465C171.179 102.837 165.42 97.0804 161.124 94.8135C150.281 97.4587 136.091 101.538 130.446 104.817C130.373 106.69 131.061 111.861 131.783 114.128C133.199 114.068 134.01 113.847 134.899 113.636C136.482 120.689 142.532 140.589 144.582 145.322C148.865 144.609 154.334 142.607 156.945 141.075C156.185 137.805 153.977 131.793 153.671 130.753C158.554 128.987 165.845 125.472 169.977 122.227V122.224ZM151.129 119.737C149.716 116.281 148.732 111.473 148.448 109.304C150.133 108.301 152.791 107.409 155.217 107.62C156.617 109.357 158.358 111.347 159.235 114.585C157.658 116.19 155.217 118.668 151.132 119.737H151.129Z" fill="#2C2A28"/>
<path d="M173.522 92.8082C175.354 100.025 183.192 123.353 186.182 131.456C192.329 129.816 203.241 126.736 213.097 122.085C212.312 118.554 211.013 114.462 209.833 111.798C205.947 113.254 200.561 115.679 195.82 116.751C192.496 105.01 188.8 93.1424 187.26 88.0222C182.918 89.0091 176.014 91.4777 173.522 92.8082Z" fill="#2C2A28"/>
<path d="M127.131 116.47C126.503 112.655 125.302 109.247 124.166 107.144C117.764 107.73 103.502 114.399 98.7396 118.977C97.2162 126.792 100.796 146.349 106.997 152.406C116.928 152.888 132.515 148.727 136.845 147.078C136.681 142.639 136.23 139.933 135.174 137.537C130.089 138.54 122.492 140.763 117.818 141.065C115.067 138.316 113.516 131.247 112.812 122.984C117.171 119.809 122.621 117.895 127.131 116.467V116.47Z" fill="#2C2A28"/>
<path d="M62.8133 107.355C63.4157 106.085 64.0591 103.941 64.1159 101.381C62.5579 98.4802 59.6973 96.0998 57.6472 95.2454C52.8217 96.9006 46.5297 99.344 44.098 101.072C44.1422 101.926 44.672 104.253 45.0915 105.256C45.7317 105.17 46.0944 105.035 46.4887 104.902C47.5042 108.049 51.0839 116.855 52.213 118.923C54.1338 118.422 56.5402 117.284 57.6662 116.476C57.1836 115.02 55.9283 112.375 55.7486 111.914C57.8964 110.909 61.0692 109.004 62.8165 107.359L62.8133 107.355ZM54.1306 107.005C53.3421 105.492 52.6956 103.342 52.478 102.368C53.2034 101.841 54.3766 101.324 55.49 101.321C56.1996 102.055 57.0764 102.888 57.6062 104.325C56.9565 105.12 55.9473 106.35 54.1306 107.009V107.005Z" fill="white"/>
<path d="M112.093 77.1514C112.856 80.4713 116.203 91.2224 117.486 94.9585C120.315 94.2712 125.337 92.9754 129.894 90.9481C129.572 89.3244 129.02 87.439 128.506 86.2094C126.715 86.8369 124.223 87.8899 122.047 88.3313C120.647 82.9274 119.079 77.4604 118.426 75.1021C116.43 75.5088 113.248 76.5681 112.093 77.1514Z" fill="white"/>
<path d="M127.541 73.0086C128.166 76.3569 131.064 87.2373 132.193 91.0238C135.047 90.4563 140.119 89.3686 144.755 87.5305C144.5 85.8942 144.027 83.9867 143.566 82.7382C141.749 83.29 139.217 84.239 137.025 84.5889C135.852 79.1314 134.508 73.6045 133.956 71.2209C131.944 71.5457 128.721 72.4695 127.544 73.0054L127.541 73.0086Z" fill="white"/>
<path d="M81.5066 91.0112C80.1914 89.6555 78.3085 88.4953 76.9902 87.9719C75.2713 88.1106 67.7145 91.1531 66.1344 92.2535C65.5762 93.2056 64.8129 95.2455 64.6048 96.5728C65.0463 98.8586 67.8344 106.391 68.4841 107.504C69.3893 108.503 70.8621 109.931 72.3224 110.88C75.4448 110.253 82.3991 107.772 84.4429 106.425C85.0169 104.881 85.3102 102.708 85.4269 101.687C84.4303 97.9758 82.2509 92.2566 81.5066 91.0112ZM74.7951 105.256C74.016 104.073 71.6159 97.32 71.4425 95.8477C71.9408 95.173 74.404 93.8803 75.2997 93.6439C76.2238 95.0563 78.2171 100.054 79.0434 103.02C78.277 104.181 76.4477 105.196 74.7951 105.259V105.256Z" fill="white"/>
<path d="M161.115 68.9256C159.998 67.3996 158.298 65.9934 157.062 65.2904C155.34 65.1895 147.433 67.1537 145.717 68.027C145.033 68.8909 143.992 70.8047 143.601 72.091C143.721 74.4178 145.44 82.262 145.928 83.4538C146.685 84.5667 147.947 86.1873 149.262 87.3318C152.441 87.1426 159.673 85.6482 161.884 84.5983C162.666 83.148 163.259 81.0387 163.515 80.0424C163.045 76.2307 161.676 70.2624 161.111 68.9287L161.115 68.9256ZM152.492 82.1012C151.886 80.8212 150.445 73.803 150.476 72.318C151.063 71.719 153.681 70.7794 154.602 70.6691C155.321 72.1951 156.601 77.4193 157.008 80.4744C156.087 81.518 154.138 82.2715 152.489 82.1012H152.492Z" fill="white"/>
<path d="M89.9528 84.4376C87.7009 84.838 85.8653 85.6325 83.9856 86.6887C84.4271 88.9745 87.5148 98.3321 88.1645 99.4482C89.0697 100.448 90.3659 102.062 91.8262 103.014C94.9486 102.387 101.903 99.9022 103.947 98.5591C104.521 97.0142 104.325 94.4226 104.439 93.4011C103.278 89.7217 101.096 82.7698 100.165 80.6416C97.4938 81.4613 95.3586 82.3536 94.0939 83.1418C94.5701 84.9988 97.5411 93.2844 98.1593 94.8829C97.4149 95.7121 95.674 96.3837 94.22 96.535C93.0594 94.2019 90.8579 86.7896 89.9465 84.4408L89.9528 84.4376Z" fill="white"/>
<path d="M103.994 80.2127C104.603 84.0592 108.132 94.9648 109.179 97.2947C110.608 97.1024 113.011 96.1471 114.055 95.4156C113.03 91.0269 110.346 81.3036 109.387 78.3557C107.804 78.6678 104.959 79.6326 103.994 80.2127Z" fill="white"/>
<path d="M167.536 82.9399C166.479 78.8539 164.918 68.6198 164.546 64.9278C167.006 63.837 171.778 62.9132 172.964 62.7934C173.771 63.9914 176.367 68.6892 177.486 70.4989C177.729 70.5336 178.19 70.4358 178.379 70.3665C178.231 68.0271 177.622 63.9946 177.524 62.7083C178.688 62.2353 181.214 61.6363 182.552 61.5354C183.094 64.7418 184.677 73.9922 185.371 79.2259C183.652 80.074 179.53 81.0703 177.464 81.2595C176.118 79.62 173.569 75.556 172.346 73.6359C172.103 73.617 171.63 73.7021 171.336 73.8283C171.668 75.9533 172.434 81.3793 172.592 82.1296C171.582 82.5837 169.081 83.0251 167.536 82.9431V82.9399Z" fill="white"/>
<path d="M68.257 178.641C68.6134 182.03 70.6256 193.106 71.4488 196.971C74.3409 196.634 79.4818 195.956 84.2505 194.496C84.1275 192.844 83.8089 190.908 83.4494 189.622C81.5949 190.026 78.9961 190.77 76.7789 190.943C76.0472 185.407 75.1515 179.792 74.7919 177.373C72.7608 177.534 69.4744 178.199 68.257 178.638V178.641Z" fill="white"/>
<path d="M176.651 150.366C174.418 150.868 172.623 151.744 170.791 152.882C171.333 155.146 174.84 164.355 175.541 165.44C176.49 166.395 177.856 167.953 179.36 168.836C182.451 168.07 189.288 165.276 191.269 163.838C191.774 162.271 191.461 159.689 191.531 158.661C190.206 155.039 187.711 148.191 186.69 146.107C184.059 147.043 181.965 148.033 180.735 148.878C181.293 150.713 184.636 158.857 185.324 160.424C184.617 161.285 182.908 162.035 181.464 162.249C180.199 159.97 177.669 152.665 176.651 150.36V150.366Z" fill="white"/>
<path d="M100.622 172.291C96.9292 172.638 90.9652 173.839 87.8964 175.11C87.7923 175.945 87.9027 177.938 88.0068 178.704C88.4547 178.698 88.912 178.682 89.2431 178.616C88.8142 182.172 88.0699 190.388 87.9437 194.556C89.6279 194.474 92.5074 193.964 93.6902 193.522C93.7375 192.977 93.8479 190.675 93.9519 190.19C95.4658 189.625 99.1969 188.787 100.206 188.679C100.578 189.316 101.6 191.35 101.96 191.835C103.098 191.615 107.056 190.647 108.091 190.101C106.571 185.646 102.578 176.557 100.626 172.288L100.622 172.291ZM94.3493 185.129C94.5228 182.623 94.9076 178.114 95.2986 177.733C95.7938 177.887 97.806 182.055 98.6008 184.187C97.5915 184.559 95.7907 185.032 94.3493 185.129Z" fill="white"/>
<path d="M144.749 160.689C141.097 161.329 135.246 163 132.288 164.51C132.25 165.352 132.518 167.329 132.682 168.085C133.127 168.044 133.584 167.991 133.909 167.899C133.764 171.478 133.675 179.729 133.88 183.894C135.552 183.679 138.381 182.941 139.526 182.409C139.526 181.86 139.457 179.558 139.523 179.063C140.989 178.379 144.638 177.247 145.638 177.061C146.058 177.667 147.24 179.612 147.638 180.069C148.754 179.76 152.624 178.477 153.611 177.853C151.741 173.53 147.039 164.791 144.755 160.689H144.749ZM139.52 173.984C139.494 171.471 139.52 166.947 139.879 166.537C140.387 166.651 142.724 170.648 143.686 172.707C142.708 173.158 140.952 173.773 139.523 173.984H139.52Z" fill="white"/>
<path d="M151.246 159.327C151.394 161.187 151.773 162.338 152.378 163.905C153.302 163.697 156.33 162.388 157.018 161.988C158.002 164.92 160.787 172.755 161.884 175.081C163.139 174.75 166.315 173.259 167.482 172.335C166.454 169.129 164.322 161.773 163.713 159.696C164.984 159.204 167.038 158.334 167.908 157.832C167.769 156.804 166.943 154.235 166.58 153.399C163.376 154.326 153.826 157.753 151.246 159.324V159.327Z" fill="white"/>
<path d="M190.512 144.896C190.834 146.734 191.32 147.844 192.07 149.348C192.969 149.055 195.864 147.466 196.511 147.002C197.766 149.83 201.276 157.366 202.588 159.582C203.806 159.134 206.83 157.35 207.903 156.322C206.578 153.226 203.762 146.104 202.961 144.095C204.181 143.487 206.14 142.428 206.96 141.847C206.723 140.839 205.664 138.357 205.219 137.56C202.115 138.786 192.928 143.096 190.512 144.899V144.896Z" fill="white"/>
<path d="M128.964 178.029C128.005 177.105 127.014 176.478 126.437 176.046C125.583 175.873 124.375 175.747 123.712 175.62C124.233 175.151 124.819 174.422 125.113 173.826C125.668 172.714 125.854 171.85 125.895 170.771C125.163 169.16 124.11 167.716 123.037 166.777C120.546 166.96 109.873 169.844 107.485 170.923C107.504 172.02 107.694 173.53 107.984 175.248C108.659 175.179 109.33 175.122 109.863 174.895C110.63 179.098 112.535 187.138 113.289 189.54C119.823 188.531 127.5 185.508 128.809 184.48C129.083 182.453 129.08 180.101 128.957 178.029H128.964ZM115.569 172.269C116.073 172.014 117.117 171.538 118.206 171.503C118.773 171.884 119.786 173.558 120.085 174.867C119.354 175.529 117.373 176.109 116.493 176.156C116.19 175.211 115.651 173.045 115.569 172.269ZM118.663 184.429C118.36 183.484 117.654 180.665 117.572 179.886C118.821 179.467 120.028 179.12 121.423 179.051C121.842 179.852 122.145 181.261 122.145 183.03C121.413 183.692 119.543 184.385 118.663 184.429Z" fill="white"/>
</svg>
