<?xml version="1.0" encoding="UTF-8"?>
<svg id="Calque_1" data-name="Calque 1" xmlns="http://www.w3.org/2000/svg" version="1.1" viewBox="0 0 249.4 249.4">
  <defs>
    <style>
      .cls-1 {
        fill: #1d1d1b;
      }

      .cls-1, .cls-2, .cls-3 {
        stroke-width: 0px;
      }

      .cls-2 {
        fill: #27a739;
      }

      .cls-3 {
        fill: #fff;
      }
    </style>
  </defs>
  <path class="cls-3" d="M124.7,18.4c-58.6,0-106.3,47.7-106.3,106.3s47.7,106.3,106.3,106.3,106.3-47.7,106.3-106.3S183.3,18.4,124.7,18.4ZM124.7,226.9c-56.5,0-102.2-45.8-102.2-102.2S68.3,22.5,124.7,22.5s102.2,45.8,102.2,102.2-45.8,102.2-102.2,102.2Z"/>
  <circle class="cls-2" cx="124.7" cy="124.7" r="102.2" transform="translate(-51.7 124.7) rotate(-45)"/>
  <path class="cls-3" d="M68.4,117.5v-17.3l-.6-.6h-4.2v5h2.6v12.9h-20v-12.8h2.6v-21.8h-2.6v-12.6h29.2c0,.1,8,8.2,8,8.2v12.2l-2.3,2.3,2.2,2.2v9.4h2.8v12.8h-17.7ZM68,86.7l.5-.5v-2.5l-.7-.7h-4.1v3.7h4.2Z"/>
  <path class="cls-1" d="M80.7,107.5v-11l-3.4-3.4,3.5-3.5v-10l-6.5-6.5h-25.4c0-.1,0,7.1,0,7.1h2.6v27.2h-2.6v7.4h14.6v-7.5h-2.6v-10.4h8l2.2,2.2v15.7h12.3v-7.4h-2.8ZM71.2,87.3l-2.1,2.1h-8v-9.1h7.9l2.2,2.2v4.7Z"/>
  <polygon class="cls-3" points="92.8 78.6 84.9 70.7 84.9 39.5 92.5 31.8 113.4 31.8 121.3 39.6 121.3 51.3 106.2 51.3 106.2 45 105.5 44.3 100.3 44.3 99.6 45 99.6 65.6 100.2 66.2 105.6 66.2 106.4 65.5 106.4 59.3 121.3 59.3 121.3 69.5 112.2 78.6 92.8 78.6"/>
  <path class="cls-3" d="M136.7,80.3l-7.8-7.8v-10.4h6.9l-6.8-6.8v-14c-.1,0,7.8-7.9,7.8-7.9h20.6l7.9,7.9v10.6h-6.8l6.8,6.8v14l-7.8,7.8h-20.8ZM150,67.8l.6-.6v-3.5l-.7-.7h-6.1v4.1l.6.6h5.7ZM144.6,50.7c.5,0,1.2,0,2.2,0s2.5,0,3.8,0v-4.1l-.7-.7h-5.4l-.7.7v3.3c.1.1.2.2.4.4.2.2.3.3.4.4Z"/>
  <path class="cls-1" d="M131.6,42.3l6.3-6.3h18.4l6.3,6.3v6.7h-9.3v-3.5l-2.2-2.2h-7.7l-2.2,2.2v5.6s2.3,2.3,2.3,2.3,12.9,0,12.9,0l6.3,6.3v11.7l-6.2,6.2h-18.5l-6.2-6.2v-6.6h9.5v3.6l2.2,2.2h7.9l2.1-2.1v-5.7l-2.3-2.3h-13l-6.3-6.3v-11.8Z"/>
  <polygon class="cls-3" points="168.2 119.4 168.2 107 170.2 107 170.2 85 167.5 85 167.5 72.4 202.9 72.4 202.9 86.6 190.2 86.6 190.2 84.9 184.9 84.9 184.9 88 196.8 88 196.8 103.9 185.1 103.9 185.1 106.8 190.2 106.8 190.2 105.1 202.9 105.1 202.9 119.4 168.2 119.4"/>
  <polygon class="cls-1" points="170.2 75.1 170.2 82.4 172.9 82.4 172.9 109.7 170.9 109.7 170.9 116.7 200.2 116.7 200.2 107.8 192.9 107.8 192.9 109.4 182.4 109.4 182.4 99.6 186.8 99.6 186.8 101.2 194.2 101.2 194.2 90.7 186.9 90.7 186.9 92.5 182.2 92.5 182.2 82.2 192.9 82.2 192.9 83.9 200.2 83.9 200.2 75.1 170.2 75.1"/>
  <path class="cls-1" d="M108.1,75.4s0,0,0-.1c0-.5-.2-1.4.4-2.5v-.2c0,0,.2-.1.2-.1,0-.1.2-.2.2-.3.1-.1.2-.3.3-.4-.2-1.3-.3-3.3.3-4.7.7-1.8,2.2-4,4.5-5.1h-4.8v4.6l-2.3,2.3h-7.7l-2.1-2.1v-22.8l2.2-2.2h7.5l2.2,2.2v4.7h9.7v-7.9l-6.3-6.3h-18.7l-6.1,6.2v29l6.3,6.3h14.3c0-.3,0-.4-.1-.5Z"/>
  <g>
    <path class="cls-1" d="M110.7,72.7s-.7-3.3,0-5.1c.7-1.8,2.2-3.9,4.4-4.7,2.2-.8,5.3-.9,7.4-.3,2.1.6,4.3,3.1,4.8,4.4.5,1.3.7,2.9.6,3.9,0,1.1-.4,2.9-.4,3.3,0,.4.5,1.5.5,2.4,0,.9,0,1.4,0,1.4,0,0,4.4,1.8,5.3,2,.9.2,4.6.5,5.1.5.5,0,3.2.6,4.4,1.1,1.2.5,8,2.8,8.4,2.9.5.2,5,1.9,7.4,3.1,1,.5,2.2,1.1,3.8,2.4,1.6,1.3,3.8,3.3,4.7,4.8.9,1.5,2.7,5.1,4,10.6,1,4.1,2.6,6.7,3.9,9.2,1.4,2.5,2.9,4.7,2.6,6.6-.3,1.9-3.8,3.7-4.7,4.1-.2,0-.3.1-.3.1,0,0,0,.5-.1.6-.2.1-.8.7-1.8.4-1-.3-1.4-1.6-1.4-1.6v-.7s-1.6-1.1-1.6-2.1c0-1,.3-3.6,1.4-4.8,1-1.2.8-1.4.8-1.4,0,0-3.1-5.8-4.6-8-1.4-2.3-3.9-5.8-5.1-6.8-1.3-.9-2.3-2.5-4.1-2.8-1.8-.3-5.8-.2-7.3-.4-1.5-.1-6.6-1.1-6.6-1.1,0,0-3.7,10.4-3.7,10.7,0,.2-1.6,5.1-1.7,5.8-.1.7,0,7.2,0,7.2,0,0-.1,3.6-1.1,4.5-.6.5-.7.7-.7.7,0,0,.3.3.3.5,0,.2.2,2,0,2.7-.2.8-.5,3-.7,5.9-.3,2.9-.8,6.3-.8,6.3,0,0-.5.9-1.8,1.8-.4,1.6-.5,3-3.9,8.4-1.6,2.7-2.5,3.4-5.6,6-1.5,1.2-1.9,2.3-1.9,2.3,0,0-.8,2.3-1.5,3.1-.7.8-2.5,2.2-4.4,3-1.8.8-4.4,2.5-5.2,3.5-.8,1-2.2,3.3-2.6,5.4-.4,2.1-1.2,4.7-2.4,6.6-1.2,1.9-2.2,3.5-6.6,4.4-4.4.9-4.4-3.3-4.4-4.4,0-1.1,1.1-5.3,1.8-6.3.7-1,3.6-2.8,4.2-3.9.6-1.1,1.9-5.4,2.3-6.2.4-.8,2.8-1.8,3.4-2.2.6-.4,1.5-2.2,1.7-4.3.2-2.1,1.6-3.4,2.4-4.6.7-1.2.9-5.7.9-5.7,0,0-6.4,8.2-9.2,11.2-2.7,3-7.3,10.5-8,12.2-.6,1.7-1.9,5.2-2.2,6.3-.3,1.1-2.8,4.5-3.9,5.5-1.1,1-3.2,3.8-3.4,4.4-.3.5-3.1,10.4-3.1,10.4,0,0-3,0-4.6-.2l-3.2,1.3s-3.4.5-6.2,0c-2.8-.5-2.9-2.2-2.9-2.2,0,0,.8-1.4,1.6-1.8.8-.4,3.5-.7,3.5-.7l8.1-11.7s1.7-5.4,2.1-7.9c.4-2.5,2.4-6.7,3.4-8s3.1-5.4,3.5-6.6c.4-1.1.6-8.1,1.5-10.2.8-2.1,3.6-8,5.1-10.3,1.4-2.4,3.5-8.1,6.7-11.5,3.2-3.4,2.6-2.8,2.6-2.8,0,0,1-4.2,1.3-5.4,0,0-3.9.2-8.2.6-5.1,0-6.5-.3-7.3-.8-.7-.5-1.6-1-1.5-2.8,0-1.8,1.1-4.5,1.1-5.5,0-1.1,1.2-4.1,4.1-7.6,2.9-3.5,3.7-5.6,3.9-6.9.2-1.3-.2-3,3.7-7.5,3.6-4.1,12.2-9,13.5-9.7.1-.3.1-.8.1-.8,0,0-1-.4-1.4-1.1-.3-.5-1.3-2.7-1.3-3,0-.3-.2-1.1.2-1.9.5-.6.3-.5,1-.7Z"/>
    <path class="cls-3" d="M152.3,85.9s.4,1.7.3,3.4c-.1,1.7-.5,2.5-.5,2.5,0,0,2.4,2.5,5.5,2.8,3.1.3,3.6.2,3.6.2,0,0,5.3,11.5,6,12.6,0,0,.2-.8-.2-3,1.2,2.9,3,6.6,3.5,9.9.2,1.9,0,2.7,0,2.7,0,0-1.9,2-2.1,2.6-.2.6-.6,2.3-.5,2.8,0,.5,1,1.8,1.3,1.7.3-.1.2-1.7.3-2.1.1-.4.5-1.4.5-1.4v4.8s.5.9,1.5.8c1-.1,1-1.1,1-1.1v-2.4l.3,1.8s0,.6,1.8-.5c1.9-1.1,2.6-1.6,2.6-2.7,0-1.1,0-1.4-.7-3.1-.8-1.6-2.6-4.9-2.6-4.9,0,0-1.6-2.5-2.2-4.9-.7-2.3-2.3-7.4-2.5-8.1-.3-.6-1.6-4.4-3.2-6.2-1.5-1.7-3.6-3.9-5.5-4.9-1.9-1-4.3-2.1-5.5-2.5-1.2-.5-1.9-.7-2.7-.8Z"/>
    <path class="cls-3" d="M92.6,103.2s-1.5,2.1-1.9,2.5c-.4.4-1.9,2.6-2.1,3.1-.3.5-.6,2.4-.7,3-.2.6-.9,2.8-1.1,3.1-.1.4-.8,2.6-.3,3.4.4.8,1.3,1,2.5.9,1.1,0,4.7-.6,5.9-1-1.1-.4-2-.8-2-.8,0,0,9.2,0,11.3.3-3.1.4-4,.7-4.6,1.1,1.8,0,4,.2,7.5-.4,3.5-.6,4.7-.3,7.3,0,2.6.2,3.5.6,4.3-.3.8-.9-2.3-.8-3.3-1,2.2,0,2.6,0,3.4-.1.8-.2.9-.7,1.3-1.4,0-.6-2.8-.4-2.8-.4,0,0,2.4-.2,2.6-.5.3-.3,1-1.3.6-1.5-.4-.3-2.4,0-2.4,0,0,0,2.5-.4,2.8-1.1,0-.7-1.1-1.4-2.1-1.3-.9.1-5.2.2-5.4,0v-.4c0,0,3.6-1.2,4.1-1.7.5-.5.3-1.3,0-1.6,0,0-1.7,1.1-2.5,1.4-.8.3-2.2.5-2.6.6-.4,0-.9,0-1.6.9-.7.9-.9,1.8-1.4,2.3-.5.4-1.2.5-2.7.4-1.5,0-6.6-.9-8.8-1.4-2.2-.5-4.6-.9-5.2-.9-.6,0,2.3,0,3.2-.3.9-.3,3.8-3.2,4.4-3.9.5-.7,1.6-2,1.2-4.8,0,0-2.9,0-5.6.8-2.7.8-3,1-3,1Z"/>
    <path class="cls-3" d="M111.9,141.9s-.8.9-.9,2.6c0,1.6-.2,3.2-.4,5.4-.2,2.2-.4,3.5-.7,3.9-.3.4-1,1.9-1.1,2.4,0,.4-.2,2.2.6,3.3.8,1.1,2.3,2.5,2.3,2.5,0,0,1.5-1.8,2.2-3.5.7-1.8.4-2.4-.7-2.6,0,0,1.4-.5,1.8-1.6.4-1.1.5-1.8.5-1.8,0,0,.8,2.3,1.8,3,1,.7,1.9.8,2.4.7.5-.1,1.9-1.3,2.4-2.4,0,0,.8,1.7.9,2.2,0,0,2-1.3,3.4-3.3,1.4-2.1,2.6-4.2,3.2-5.6.6-1.4,1.4-2.7,1.6-4.6,0,0,0-2-1.5-3.1-1.5-1.2-3.5-2.1-4.8-2.5-1.3-.3-4.3-.6-6.5.3-2.2,1-3.8,1.9-4.6,2.6-.7.7-1.5,1.4-2,2.1Z"/>
    <path class="cls-3" d="M92.7,140.4s-2.7,5.2-2.9,5.6c-.2.4-1.7,3.7-2,4.4-.3.7-1,2.1-1,4.5,0,2.4-.1,4.2-.3,4.9-.2.7-1,2.8-1.6,3.8-.6,1-1.7,2.8-1.8,3.1,0,.4-.2,1-.2,1,0,0-.4-.1-.5.2,0,.3-.3,2.5.5,3.7.8,1.1,1.6,1.6,1.7,1.7.1,0,3.2-8.1,3.2-8.1,0,0,1.7-.4,2.7-1.3.9-.9,2.3-2.4,4.9-7.6l2-4.5-4.4,2.6,5.5-9.8s-5-3.9-5.8-4.1Z"/>
    <path class="cls-3" d="M103.9,112.1s0-3.6,1.5-6.5c1.5-2.9,4.4-7.8,9.3-7.8s6.3,5.6,6.3,10,0,3.1,0,3.1c0,0-.6.2-.8,0-.2-.2-.8-.6-1.7-.6-.9,0-2.4.2-2.4.2,0,0,2.3-1,2.2-2.2,0-1.2-.3-1.5-1.1-1.5-.8,0-1.5,1.2-2.6,1.4-1.2.2-2.3.3-3.1.6-.8.3-1.6,1.1-2.3,2.9-.2.5-.5.8-1,.8-.6,0-4.2-.3-4.2-.3"/>
    <path class="cls-3" d="M104.8,119.8s4.7-1,6.2-.9c1.4,0,4.8.6,6.1.6-1.1,1.8-3.8,4.4-7.2,4.3-3.4,0-5-4-5-4"/>
    <path class="cls-3" d="M110.9,72.9s-.8.2-.9.9c-.1.7-.4,1.2.3,2.7.8,1.5.9,2.1,1.4,2.2.4.2,1.1,0,1.3,0,0,0,.2.6,0,1.1-.2.5-1,2.8-.9,3.5,0,.7,1.5,3.4,3.6,5.6,2.1,2.2,4.3,5,5.4,6.9,0-3.7,0-5.7.7-6.5-1.5.5-2.7,1.8-2.8,2-.1.1-1.1-1.1-1.1-1.1,0,0,1.5-1.9,1.4-3.7.9.4,3.4.9,4.6.3s2.3-3.9,2.9-6c.7-2.1.7-3.8.5-4.7-.1-.8-.4-2-.3-2.6.1-.7.6-3.1.3-3.7-.3-.6-1.2-1.4-2.1-.9-.5.3.2.7.2.7,0,0,.3.5.3.7,0,0-.5-.5-1.4-.5,0,0,.5.3.7,1.1,0,0-2.2-1.3-7.5-1.9-3.1-.1-3.3,1.4-3.2,2.4,0,1,.3,3.3.6,4.2,0,0-.8,0-1.1-.2-.2-.1-1-1.3-1.5-1.9-.5-.6-1.3-.6-1.5-.5Z"/>
    <path class="cls-1" d="M116.4,73.9s.6-.9,2.6-.8c2,0,2.8,1,2.8,1h1s1.3-.9,3.3-1c.6,0,1.1,0,1.1,0v.3s-1.2.2-1,.8c.1.3.3.5.3.5v.3s-1.1-.1-1.7.7c-.2.3.4.8.5.8,0,0-.9.5-1.3.1-.4-.4-1.4-2.2-1.6-2.2s-.7,0-.7,0c0,0-.7,1.7-2.2,2.1-1.5.4-1.7.2-1.7.2,0,0,1.3-.7.9-1.4-.4-.8-2.2.3-2.2.3l-.2-.7s1.3,0,1.5-.4c.2-.3,0-.6-.3-.6s-1.2,0-1.2,0Z"/>
    <path class="cls-1" d="M123.1,76.5s0,.6.3,1.3c.3.7.5,1.3.3,1.6-.2.3-.5.4-1.3.4-.8,0-1.8,0-1.8,0,0,0,1.4,1,1.5,1.3.1.3-.5.5-.5.5,0,0-2.1-.2-3.5,1.1,1.2-.2,1.7-.2,3.5-.2,1.9,0,2.5,0,3,.3-.3-.8-1.6-1.4-1.7-1.5,0,0-.2-.8,0-.9,0,0,.9-.2,1.2-.4.3-.2.6-.3,0-1.7-.6-1.4-.8-1.3-1-1.9Z"/>
    <path class="cls-1" d="M119.7,83.8s.9.6.7,1c-.2.4,0,.7.1.7s1.6,0,2.2-.3c.6-.3.9-1.1.3-1.5-.6-.4-3.3,0-3.3,0Z"/>
    <path class="cls-2" d="M114.7,97.7c-4.9,0-7.7,4.9-9.3,7.8-.2.4-.4.8-.6,1.3.2-.4.4-.8.6-1.1,0,0,2.4-5.1,6.5-6.5,1.1-.4,1.5.3.9,1.2-.6.9-4,8.7-5.1,11.7l-.2.2c.2,0,.4,0,.5,0,.6,0,.8-.4,1-.8.3-.9.7-1.6,1.1-2.1v-.4c.1,0,2.8-6.6,3.8-8,1-1.4,1.9-2,2.6-2,.7,0,3,.9,3.8,5.8.3,3.5.3,5.2.4,6,0,0,.1,0,.1,0,0,0,0-1.5,0-3.1,0-4.4-1.4-10-6.3-10Z"/>
    <path class="cls-2" d="M117,119.5c0,0-.2,0-.3,0-.9,1.1-3,3.3-5.1,3.8-1.3.2-2.6-.2-3.2-1.6-.4-.9-.6-1.9-.6-2.4-.5,0-1,.2-1.4.3,0,.3-.2.7-.4.8-.3.1-.8,0-1.2-.5,0,0,0,0,0,0,0,0,1.6,4,5,4,3.4,0,6.1-2.5,7.2-4.3Z"/>
    <path class="cls-1" d="M111.2,76.7s-.4-1.8.2-2c.5-.2,1,.5,1.3.9-.2-.7-.4-2-1.4-2s-.7,2.3,0,3.1Z"/>
  </g>
  <g>
    <path class="cls-3" d="M46.8,167.6l1.9,2.3c-1,.9-1.6,1.7-1.9,2.5-.2.8,0,1.6.4,2.3.5.8,1.2,1.3,1.9,1.4.7.1,1.4,0,2-.4.4-.3.7-.6.8-.9.2-.4.2-.8.1-1.4,0-.4-.2-1.2-.6-2.5-.4-1.7-.5-3-.2-3.9.4-1.4,1.3-2.5,2.6-3.3.9-.5,1.8-.9,2.7-1,1-.1,1.9,0,2.7.5.8.4,1.6,1.1,2.2,2.1,1,1.6,1.3,3.1.9,4.5-.4,1.4-1.4,2.6-2.9,3.6l-1.8-2.5c.8-.7,1.3-1.3,1.4-1.9.1-.6,0-1.3-.5-2-.5-.7-1-1.2-1.7-1.4-.4-.1-.9,0-1.3.3-.4.3-.7.6-.8,1-.2.6,0,1.6.4,3.1.4,1.5.6,2.7.6,3.5,0,.9-.3,1.7-.8,2.5-.5.8-1.3,1.5-2.4,2.2-1,.6-2,1-3.1,1.1-1.1.1-2.1,0-3-.5-.9-.5-1.7-1.3-2.4-2.4-1-1.6-1.3-3.1-.9-4.6.4-1.5,1.5-2.9,3.3-4.3Z"/>
    <path class="cls-3" d="M60,195.5l-2.2-2.5,2.5-4-4-4.5-4.2,2.1-2.1-2.4,18.7-8.9,2.1,2.4-10.9,17.7ZM62.1,186.1l4.1-6.5-6.9,3.4,2.7,3.1Z"/>
    <path class="cls-3" d="M62.9,197.8l13-15.1,2.3,2-13,15.1-2.3-2Z"/>
    <path class="cls-3" d="M69.1,203.1l10.7-16.8,2.5,1.6-2,14.5,7.2-11.2,2.4,1.5-10.7,16.8-2.6-1.6,1.9-14.2-7,10.9-2.4-1.5Z"/>
    <path class="cls-3" d="M87.8,213.5l6.1-15.4-4.1-1.6,1.2-3.1,11.1,4.4-1.2,3.1-4.1-1.6-6.1,15.4-2.8-1.1Z"/>
    <path class="cls-3" d="M99.3,217.5l3.9-19.5,10.9,2.2-.7,3.3-7.9-1.6-.9,4.3,7.4,1.5-.7,3.3-7.4-1.5-1.1,5.3,8.2,1.6-.7,3.3-11.2-2.2Z"/>
    <path class="cls-3" d="M115.1,214.8l.3-3.8,5.6.4-.3,3.8-5.6-.4Z"/>
    <path class="cls-3" d="M124,220.6l-.8-19.9,11.1-.5v3.4c.1,0-7.9.3-7.9.3l.2,4.4,7.5-.3v3.4c.1,0-7.4.3-7.4.3l.2,5.4,8.4-.4v3.4c.1,0-11.3.5-11.3.5Z"/>
    <path class="cls-3" d="M136.3,200.1l3-.7,2.3,10.5c.4,1.7.6,2.7.8,3.2.3.8.7,1.3,1.3,1.7.6.4,1.3.5,2.1.3.8-.2,1.4-.5,1.7-1.1.3-.5.5-1.2.4-1.8,0-.7-.3-1.8-.6-3.3l-2.4-10.8,3-.6,2.2,10.2c.5,2.3.8,4,.8,5,0,1,0,1.9-.3,2.6-.3.8-.7,1.4-1.4,2-.6.6-1.5,1-2.7,1.2-1.4.3-2.5.3-3.3,0-.8-.3-1.5-.7-2.1-1.3-.6-.6-1-1.3-1.3-2-.4-1.1-.9-2.7-1.4-4.9l-2.3-10.4Z"/>
    <path class="cls-3" d="M158.1,215l-7.8-18.2,2.8-1.2,6.4,15.1,6.9-3,1.3,3.1-9.7,4.1Z"/>
    <path class="cls-3" d="M183.5,200.9l-2.7,1.8-3.6-3-5,3.4,1.5,4.4-2.7,1.8-6.3-19.8,2.7-1.8,16.1,13.1ZM174.4,197.5l-5.8-5,2.5,7.3,3.4-2.3Z"/>
    <path class="cls-3" d="M186.7,197.9l-13.8-14.1,2.2-2.1,11.4,11.7,5.4-5.3,2.3,2.4-7.6,7.4Z"/>
    <path class="cls-3" d="M196.8,187.4l-15.4-12.6,1.9-2.3,15.4,12.6-1.9,2.3Z"/>
    <path class="cls-3" d="M201.7,181.3l-16.7-10.9,6.1-9.3,2.8,1.8-4.4,6.8,3.7,2.4,4.1-6.3,2.8,1.8-4.1,6.3,4.5,3,4.6-7,2.8,1.8-6.2,9.6Z"/>
  </g>
</svg>