<svg width="256" height="256" viewBox="0 0 256 256" fill="none" xmlns="http://www.w3.org/2000/svg">
<path d="M127.856 256C156.083 236.499 175.801 211.139 190.213 188.477C215.891 148.098 225.698 98.4979 219.962 42.1559C219.51 37.7238 216.831 18.8832 216.504 16.3309C216.504 16.3309 208.717 11.5139 195.759 7.27679C181.164 2.50476 163.898 0 127.961 0C97.8124 0 80.0814 0.592442 62.5953 5.40447C49.0703 9.12661 39.4013 16.2759 39.4013 16.2759C35.033 41.8959 33.3461 71.3755 35.1929 94.4733C37.2746 120.483 43.3449 144.586 53.2413 166.114C60.2062 181.267 69.5278 197.253 81.4959 211.594C93.7114 226.23 110.77 245.416 127.856 256Z" fill="#FDFDFD"/>
<path d="M48.7204 22.7578C46.7511 34.4091 45.3691 46.1805 44.7294 57.9943C55.6754 51.4975 68.7655 48.2553 81.166 45.5731C101.111 41.261 120.352 38.5062 140.787 40.7785C153.504 42.1909 166.717 44.5282 179.182 47.3679C190.043 49.8426 201.487 52.6874 211.166 58.2443C210.771 46.553 209.281 34.9041 207.4 23.3702C207.325 22.1128 209.239 22.4953 210.169 22.2453C211.051 29.1197 212.213 35.969 212.915 42.8708C217.978 92.601 210.973 141.589 183.933 184.11C169.281 207.15 149.591 226.753 127.511 242.686C127.002 242.786 126.084 241.989 125.62 241.676C98.707 223.596 73.1864 192.531 59.6789 163.149C39.5138 119.288 37.9469 69.3332 45.9789 22.2478L48.7229 22.7578H48.7204ZM124.398 42.3184C104.552 42.7808 69.2479 48.7777 51.3869 57.2794C49.6776 58.0943 44.9518 60.5516 44.5319 62.4214C44.3645 63.1688 44.262 65.4261 44.2196 66.3585C43.7972 75.2827 44.2745 85.4492 44.9818 94.3633C49.5376 151.728 76.0479 200.07 121.336 234.967C122.186 235.622 126.767 239.212 127.324 239.212C127.881 239.212 130.495 237.087 131.173 236.577C180.599 199.471 208.247 147.466 211.431 85.3792C211.748 79.1648 212.085 71.5355 211.68 65.3611C211.438 61.6465 210.718 60.9791 207.589 59.2042C198.733 54.1772 183.583 50.9575 173.482 48.8252C158.887 45.743 139.16 41.9784 124.4 42.3234L124.398 42.3184Z" fill="#020101"/>
<path d="M137.945 14.5011C138.19 16.5109 136.248 14.856 135.976 17.1508C135.688 19.5606 135.513 22.9153 135.436 25.365C135.416 26.0075 135.299 28.6322 135.681 28.8897C136.101 29.1746 140.202 29.3996 140.782 29.2621C140.991 29.2121 142.353 25.0351 142.446 29.5021C143.063 29.5421 143.685 29.5146 144.19 29.1222L151.248 17.6833L151.438 15.8934C152.587 15.2885 152.85 16.5559 153.197 17.3733C154.799 21.1654 155.501 25.92 157.001 29.8196C157.59 31.3544 157.708 30.7495 158.535 31.4794C159.212 32.0769 158.448 32.4643 157.685 32.3993C156.316 32.2818 154.616 31.8894 153.204 31.7344C152.9 30.662 154.089 30.782 154.941 30.752C155.116 30.587 154.254 27.3123 153.952 27.1174C153.337 26.7174 148.696 26.8424 148.301 26.2699C148.111 25.995 148.209 25.5725 148.194 25.255L153.442 25.755C153.714 25.4775 151.902 19.5081 151.568 19.5106L145.792 28.9947C145.465 29.9196 147.801 30.0821 146.537 30.9845L131.695 29.8871C130.83 28.6872 133.057 28.8722 133.217 28.5947L133.962 19.1406C133.809 18.2057 134.304 16.3609 133.589 15.741C133.282 15.476 132.06 15.2885 132.202 14.6336C132.382 13.8036 134.406 14.7436 135.071 14.7736C136.068 14.8161 136.955 14.4036 137.948 14.5061L137.945 14.5011Z" fill="#020101"/>
<path d="M184.93 33.4967C185.303 33.4617 185.318 33.1268 185.415 32.8618C186.305 30.437 186.54 27.3298 187.417 24.8401C187.437 23.3152 184.93 23.8677 186.325 22.5103C187.484 23.0478 188.861 23.1152 190.036 23.5127C192.258 24.2626 188.499 24.4351 188.486 25.19C187.874 28.8822 186.252 32.7943 185.723 36.4464C185.605 37.2514 186.307 39.0312 184.903 38.3438L178.798 24.2501L176.231 34.1767C176.456 35.4615 178.093 34.7891 177.673 36.2465C176.388 35.974 175.099 35.744 173.807 35.4915C173.022 35.3391 173.002 34.5241 173.307 34.4966C174.047 34.5441 174.812 34.6216 175.121 33.8192C175.706 30.3995 177.456 26.4149 177.863 23.0577C178.063 21.4179 177.663 21.6229 176.426 20.8705C176.149 19.7406 179.422 20.763 179.797 21.2504L184.925 33.4967H184.93Z" fill="#020101"/>
<path d="M173.929 23.9977C172.695 24.1726 172.772 22.4878 172.232 21.5704C171.235 19.8756 169.174 19.3056 167.307 19.4981C160.984 20.148 159.487 34.1217 169.064 33.0018C170.643 32.8168 171.478 30.447 170.908 29.7696C170.803 29.6446 168.539 29.3996 168.434 29.2446C168.286 29.0272 168.466 28.3622 168.839 28.2672C169.096 28.2022 173.422 29.0422 173.567 29.2346C174.042 29.8596 173.05 30.2545 172.932 30.8745C172.63 32.4918 173.672 32.7343 171.675 33.6167C166.904 35.729 160.397 32.8368 159.925 27.3823C159.37 20.973 164.533 16.6234 170.751 18.8032C173.492 19.7631 174.772 20.948 173.929 23.9977Z" fill="#020101"/>
<path d="M82.6779 18.5332C82.8229 18.6257 83.3677 20.5955 83.2127 20.7455C82.0506 21.1179 82.0581 19.8456 81.3359 19.7331C80.9436 19.6706 77.5048 20.458 77.4523 20.6505C77.3674 21.3979 77.7047 24.2376 78.377 24.4676C78.8143 24.6176 81.7183 24.0227 82.0656 23.7752C82.3056 23.6027 82.2181 22.3753 82.8429 22.2478C83.6451 22.0853 83.4126 23.5852 83.5226 24.0626C83.6226 24.4976 84.4173 26.06 83.5851 26.2449C82.9378 26.3874 82.8329 25.13 82.6804 25.0301C82.333 24.8051 78.6519 25.5825 78.4945 26.1599C78.397 26.5199 79.8939 33.1743 80.2038 33.3792C80.8236 33.7867 85.297 32.8618 85.5918 32.2493C85.7568 31.9069 85.9117 28.9772 86.8939 31.187C87.886 33.4192 86.9264 33.3992 85.2145 33.8742C83.9849 34.2142 77.6448 35.7015 76.88 35.4565C76.6376 35.379 76.4027 35.1491 76.4652 34.8741C76.6726 34.4141 77.8222 34.3816 77.9322 34.2142C78.237 33.7467 76.1253 24.8501 75.7929 23.5427C75.3181 21.6679 75.6855 20.9005 73.3414 21.2479C72.8865 20.558 73.5538 20.2555 74.1586 20.0655C75.8329 19.5356 79.1517 18.8132 80.9011 18.5632C81.3009 18.5057 82.4205 18.3707 82.6779 18.5357V18.5332Z" fill="#020101"/>
<path d="M56.725 32.9943C56.2551 32.3843 59.0891 31.7644 59.5314 30.682C60.8584 27.4273 56.2876 25.115 54.5208 27.8223L58.6942 39.5961L60.826 39.7411C61.5407 41.046 58.9242 40.8385 58.1594 41.056C57.5072 41.241 56.75 42.2434 55.8653 42.2334C54.4633 40.8635 57.1398 41.4285 56.6775 39.9361L52.8014 28.8122C52.6215 27.8423 50.2149 29.0022 50.4748 27.8748C50.6047 27.3148 52.3266 27.2173 52.8614 27.0099C55.1156 26.1374 56.8424 24.6576 59.464 25.63C62.8977 26.9024 62.5178 30.4845 59.6439 32.2943C59.1191 32.6243 57.1623 33.5617 56.7225 32.9943H56.725Z" fill="#020101"/>
<path d="M97.2101 27.2473C98.6045 26.9199 98.2347 28.0548 98.8445 28.9847C100.809 31.9694 106.152 29.3421 104.07 26.0075C102.421 23.3677 94.0937 21.8579 97.0951 17.2583C98.7595 14.7086 104.867 14.0461 104.472 17.8783C104.227 20.253 103.175 17.2208 102.701 16.8784C101.191 15.786 98.1947 16.7459 98.4646 18.8507C98.6645 20.4105 102.686 21.9679 104.038 23.0403C109.433 27.3123 104.5 32.9343 98.7595 31.0695C96.7277 30.4095 97.6199 29.0672 97.2101 27.2473Z" fill="#020101"/>
<path d="M120.946 17.7483C120.057 18.3482 119.937 16.6659 119.757 16.3159C118.73 14.3336 114.856 15.201 114.931 17.3658C114.986 18.9706 118.56 20.658 119.817 21.7554C121.716 23.4127 123.158 25.535 121.661 28.0848C120.349 30.322 115.916 30.9345 113.866 29.4596C112.757 28.6622 113.329 27.0124 112.954 25.75C114.561 25.455 114.046 26.8699 114.701 27.8748C116.098 30.0296 120.432 29.0947 120.459 26.3774C120.489 23.6377 115.233 21.8804 113.841 19.983C110.953 16.0484 116.63 12.4513 120.179 14.6436C121.001 15.151 121.394 17.4458 120.946 17.7483Z" fill="#020101"/>
<path d="M87.771 32.1894C87.5411 31.9569 87.0913 28.8747 87.2137 28.7497C88.4433 28.5572 88.3158 29.6846 88.7482 30.337C90.9549 33.6667 96.4853 30.1971 93.8163 27.0174C92.0095 24.8651 83.795 23.4752 86.5015 18.9107C88.0459 16.3059 94.0737 15.396 93.9713 19.1381C93.9088 21.4329 92.5043 18.5457 92.0919 18.2457C90.0502 16.7634 86.3291 19.2931 88.4733 21.3629C90.1976 23.0278 93.6714 23.4427 95.4582 25.875C97.34 28.4372 95.7231 32.0019 92.7242 32.6368C91.7196 32.8493 88.4808 32.9043 87.771 32.1894Z" fill="#020101"/>
<path d="M196.671 26.2449C196.451 26.4624 195.074 25.825 195.177 26.6124C195.396 28.3197 196.788 30.422 196.923 32.2469C197.203 32.2793 197.416 32.2568 197.671 32.1219C198.09 31.8994 201.534 28.6822 201.667 28.3672C201.914 27.7798 200.072 28.0073 200.67 26.7474C200.822 26.5874 204.736 27.7448 204.913 27.8773C205.173 28.0723 205.298 28.6172 205.168 28.7447C205.083 28.8272 203.611 28.6222 202.826 29.0272C202.379 29.2596 197.578 33.5892 197.308 34.0067C196.913 34.6191 195.409 39.2837 195.431 39.8911C195.454 40.561 196.546 40.5485 196.421 41.116C196.201 42.1184 194.567 40.9735 194.179 40.8635C193.667 40.716 192.075 40.731 191.923 40.1161C191.76 39.4561 193.1 39.6086 193.537 38.9862C193.795 38.6212 195.177 33.8717 195.174 33.3667C195.169 32.6943 192.777 25.7125 192.413 25.38C192.208 25.1925 190.551 24.6026 191.173 23.9977C191.643 23.5402 193.33 24.5251 193.865 24.6776C194.897 24.9751 196.841 24.8451 196.671 26.2449Z" fill="#020101"/>
<path d="M66.9637 23.2377C66.8662 23.3852 65.3793 23.3802 65.5192 24.8101L68.958 36.1365C69.2354 36.4664 69.3703 36.4714 69.7752 36.4514C70.23 36.4289 73.4413 35.4565 73.8087 35.2116C74.7208 34.6041 74.4684 33.9917 74.4684 32.9968C75.1432 32.2768 76.6326 35.414 75.9679 35.8715C72.979 36.4414 69.5902 38.1363 66.6663 38.5912C65.8441 38.7187 64.8445 38.3113 65.6242 37.7238C66.199 37.2914 66.7738 37.7538 66.7313 36.3839C66.6888 35.0141 65.3193 31.047 64.8445 29.4971C64.6171 28.7497 63.7449 25.4025 63.4925 25.1001C63.0576 24.5801 61.0134 24.8876 61.2233 23.8752C61.3258 23.3827 63.2751 23.4852 63.9248 23.3252C64.6895 23.1377 65.6442 22.2903 66.1115 22.2428C66.7638 22.1753 67.2636 22.7853 66.9637 23.2377Z" fill="#020101"/>
<path d="M111.202 14.7511C111.36 16.5209 109.858 15.236 109.933 17.6258L110.703 28.3747C110.923 29.5771 112.664 28.6697 112.202 30.2495L107.451 30.4995C107.196 29.1372 107.831 29.6896 108.341 29.2721C108.976 28.7547 108.636 27.4073 108.698 26.6274C108.216 25.1625 108.361 16.7359 107.536 16.2309C106.857 15.816 106.202 16.4434 106.452 15.0035L111.2 14.7536L111.202 14.7511Z" fill="#020101"/>
<path d="M130.945 23.9977C131.16 24.2451 130.303 26.3649 130.158 26.4549C129.746 26.7149 126.064 26.3549 125.09 26.5099C124.115 26.6649 123.923 27.5698 122.953 27.4948C122.851 27.3973 124.065 25.14 124.368 25.0376C125.447 24.6651 128.014 25.2375 129.321 24.9926C130.088 24.8476 130.18 23.9802 130.95 24.0002L130.945 23.9977Z" fill="#020101"/>
<path d="M119.399 53.3173C138.86 52.3374 161.384 56.6945 179.87 62.6764C184.258 64.0962 196.189 68.2333 198.673 71.8655C199.737 73.4228 199.31 75.1227 199.422 76.865C203.221 135.457 181.202 185.089 134.919 220.578C133.907 221.353 127.941 225.965 127.321 225.963C121.849 222.486 116.62 218.354 111.7 214.109C71.3596 179.31 54.4083 134.299 56.2127 81.1071C56.2951 78.6523 56.4076 75.2701 56.745 72.8904C57.3472 68.6158 66.5089 64.9637 70.1575 63.5588C84.2873 58.1118 104.265 54.0822 119.399 53.3198V53.3173Z" fill="#020101"/>
<path d="M162.883 74.8177C168.354 74.3327 174.024 75.1602 178.755 78.0399C181.307 79.5947 181.741 80.5346 181.936 83.6068C183.143 102.585 150.256 119.813 135.826 107.232C135.219 106.702 133.812 105.357 133.697 104.595C133.452 102.97 135.414 97.283 136.151 95.5732C140.577 85.3117 151.463 75.8301 162.883 74.8177ZM176.853 79.3148C176.626 79.0298 174.951 77.9799 174.524 77.7749C169.339 75.2676 162.099 76.35 156.876 78.3074C149.271 81.1546 142.928 86.7115 138.945 93.7408C139.415 94.1858 141.489 91.0861 141.816 90.7411C147.759 84.4368 159.94 75.9701 168.931 79.6247C171.01 80.4696 171.53 81.2096 171.125 83.5618C170.578 86.7365 164.163 93.0509 161.691 95.3732C159.762 97.188 157.603 98.7853 155.691 100.62C155.759 100.878 156.306 100.745 156.501 100.68C158.607 99.9802 165.827 94.7132 167.909 93.0934C171.248 90.4912 176.988 85.6191 177.198 81.1246C177.226 80.5596 177.231 79.7847 176.858 79.3172L176.853 79.3148ZM145.942 109.487C151.388 111.244 157.545 109.134 162.439 106.62C170.438 102.51 179.105 94.3783 179.175 84.7417C175.716 88.9063 171.993 92.7934 167.802 96.2356C163.448 99.8103 158.69 102.902 153.857 105.785L145.942 109.489V109.487Z" fill="#FDFDFD"/>
<path d="M142.941 60.2441C157.845 60.7291 172.697 64.5887 186.487 70.0557C187.444 70.4356 191.705 71.978 192.173 72.3679C192.453 72.6029 192.398 72.7979 192.435 73.1054C192.795 75.9926 192.283 79.2473 192.173 82.122C190.451 127.823 174.287 170.808 144.57 205.24C144.328 205.52 142.458 207.502 142.191 207.232C142.164 206.76 142.578 206.375 142.841 206.01C144.315 203.95 146.062 202.045 147.542 199.963C172.862 164.324 186.295 119.848 186.122 76.0476C177.391 71.4005 168.239 67.1434 158.483 65.0761C153.507 64.0212 147.984 63.2488 142.941 63.7488V60.2491V60.2441Z" fill="#F70000"/>
<path d="M113.954 60.2416V63.4938C100.826 63.2563 87.996 67.2434 76.3777 73.0279C75.6605 73.3853 71.1721 75.6326 70.9672 75.8651C70.7198 76.1401 70.7448 76.2751 70.7073 76.605C70.3125 79.8822 70.8273 83.8343 70.9697 87.1215C72.7541 128.52 87.1863 170.261 111.582 203.48C112.007 204.058 114.354 205.3 113.332 206.227C85.092 175.768 68.2957 132.46 64.9769 91.1161C64.5646 85.9941 63.8923 78.0524 64.4621 73.1054C64.5021 72.7479 64.4846 72.4454 64.872 72.2654C80.4462 65.7736 96.9227 60.7041 113.959 60.2441L113.954 60.2416Z" fill="#F70000"/>
<path d="M120.202 66.496C120.719 66.0411 122.776 68.0434 123.963 66.566C125.015 65.2561 125.287 60.0166 123.843 58.9767C120.706 56.712 119.829 64.9537 122.803 64.4987C123.293 64.4237 123.765 63.7738 124.448 63.9963C124.13 65.5386 122.091 65.5186 120.961 64.8587C118.195 63.2388 119.442 57.9493 122.578 57.7294C128.304 57.3269 127.599 70.1756 121.391 67.6784C121.144 67.5784 119.834 66.8185 120.202 66.496Z" fill="#FDFDFD"/>
<path d="M129.123 57.7969C131.18 57.3219 132.615 58.4743 132.19 60.6141C132.08 61.1665 131.45 61.5415 131.45 61.619C131.45 61.7815 133.009 62.8439 133.179 63.8813C134.019 69.0308 126.987 69.0358 126.707 65.0886C126.574 63.2113 128.329 62.6614 128.429 62.0839C128.509 61.6265 127.646 61.309 127.499 60.8191C127.117 59.5442 127.809 58.1018 129.123 57.7969ZM129.628 58.5393C128.471 58.8767 128.416 60.1466 129.463 60.8541C131.47 62.2089 132.042 57.8343 129.628 58.5393ZM129.128 62.7789C128.861 62.8514 127.834 63.8888 127.751 64.1687C126.619 67.9359 132.779 67.9784 131.585 64.2287C131.333 63.4363 129.901 62.5664 129.131 62.7789H129.128Z" fill="#FDFDFD"/>
<path d="M138.942 57.7444V63.4938C138.942 63.5688 140.224 63.4388 140.442 63.4938C140.672 64.3987 139.007 64.3562 138.927 64.6462C138.875 64.8362 138.88 66.6085 138.932 66.826C139.042 67.2809 140.212 66.9335 139.942 67.7409H136.696C136.423 66.9335 137.595 67.2809 137.705 66.826C138.173 64.8712 137.583 63.9013 135.568 63.9713C134.894 63.9937 133.549 64.8762 133.692 64.1162C133.787 63.6113 137.35 59.0317 137.953 58.3768C138.232 58.0718 138.452 57.6619 138.945 57.7444H138.942ZM137.695 63.2463L137.57 60.2466L135.196 63.2438L137.695 63.2488V63.2463Z" fill="#FDFDFD"/>
<path d="M118.2 57.7444C118.12 60.1516 117.52 64.0787 117.95 66.3685C118.095 67.1409 119.02 66.9485 118.95 67.7409H115.703C115.633 66.9485 116.56 67.1409 116.703 66.3685C116.803 65.8336 116.928 60.2141 116.703 59.9916C116.57 59.8617 115.168 60.3016 115.453 59.6217C115.558 59.3742 118.02 57.5394 118.2 57.7444Z" fill="#FDFDFD"/>
<path d="M138.942 133.237C136.246 133.479 132.72 130.99 135.189 128.357C136.788 126.653 138.587 127.625 140.322 127.733C143.823 127.95 147.272 126.975 150.81 127.24C155.779 127.613 160.612 130.01 162.374 134.922C165.862 144.638 155.021 149.853 146.939 148.486L146.727 161.562C147.719 162.979 149.198 161.534 150.573 162.974C152.25 164.729 151.44 167.366 149.039 167.711C146.459 168.084 144.618 166.794 142.301 166.974C141.124 167.066 140.062 167.634 138.925 167.876C138.912 170.371 138.987 172.871 138.95 175.365C138.925 176.99 137.84 179.987 140.552 179.99L149.383 179.81C149.846 179.597 150.026 176.613 151.758 175.68C153.587 174.698 155.269 175.828 155.873 177.66C156.346 179.09 156.603 183.422 155.796 184.717C155.599 185.032 155.206 185.339 154.926 185.597C147.182 185.747 139.327 185.849 131.552 185.714C131.04 185.704 130.535 185.912 130.103 185.889C127.766 185.767 125.9 183.56 127.142 181.302C128.166 179.442 131.02 180.927 130.94 178.353L130.888 152.16C130.718 151.215 128.616 150.358 127.799 150.245C125.987 149.993 122.856 150.655 120.601 150.45C106.274 149.138 98.897 133.489 104.08 120.741C105.03 118.403 106.147 117.491 107.454 115.616C107.601 115.404 107.801 115.369 107.699 114.989C103.133 114.771 100.734 111.287 98.5021 107.814C95.8931 103.755 93.8188 99.2878 90.8299 95.4907C90.2651 95.3882 90.4851 95.7382 90.4576 96.1106C90.2226 99.3178 90.5425 102.86 90.4701 106.125C90.4576 106.697 89.9278 108.344 90.495 108.704C90.9524 108.994 92.5943 108.374 93.9413 109.382C96.3129 111.152 94.9184 114.411 92.0845 114.741C89.8678 114.999 89.6029 114.399 87.9185 113.911C85.1145 113.099 81.6108 116.496 78.9543 113.626C77.3174 111.857 77.9497 109.809 80.1588 109.062C81.061 108.757 82.553 109.012 82.4755 107.879V80.1597C82.3455 79.6147 78.4495 79.8922 78.0196 77.3075C77.7522 75.7026 79.0667 74.2552 80.6037 74.0128C82.2481 73.7528 84.8971 74.3527 86.8464 74.2552C91.1523 74.0403 93.7738 72.9954 98.2622 74.3152C106.577 76.7625 110.023 87.4365 102.036 92.6984C101.429 93.0984 99.4418 93.6909 99.4468 94.3608L107.344 107.724C108.613 109.467 111.725 108.989 111.202 112.242C111.362 112.259 111.7 111.909 111.7 111.867V98.1179C111.7 97.438 108.858 97.0355 108.388 95.9306C107.579 94.0258 108.618 91.7485 110.823 91.7235C112.802 91.701 114.919 92.366 117.32 92.2435C119.262 92.1435 121.906 90.8836 123.006 93.5584C124.273 96.6406 121.256 96.7581 119.744 98.1679L119.447 109.244C124.515 108.482 132.76 109.754 136.413 113.644C137.953 115.284 137.315 116.604 137.443 118.613C137.538 120.126 138.492 121.946 136.678 123.108C133.074 125.413 131.857 119.716 130.433 117.876C128.129 114.894 123.158 114.064 119.727 115.279L119.504 125.308C119.892 127.388 122.773 126.45 123.143 129.185C123.74 133.604 117.518 131.7 115.311 131.727C114.809 131.732 111.597 132.12 111.472 132.267C112.105 143.786 122.841 148.296 132.265 141.944C134.309 140.566 136.248 137.409 138.935 139.491V133.242L138.942 133.237ZM89.283 109.419C88.9131 109.049 88.7482 108.154 88.7007 107.627C87.8885 98.6754 89.318 88.4714 88.7357 79.3897C89.1805 75.9626 94.5536 77.2075 96.5428 78.5348C101.606 81.907 100.579 90.1437 94.3136 90.9711C92.9841 91.1461 90.9549 90.3512 90.2401 91.4011C89.4779 92.5185 91.3422 93.0134 92.097 93.7308C96.3179 97.738 99.8391 109.177 104.702 111.869C105.934 112.552 108.711 113.764 109.583 111.992C110.555 110.019 106.979 110.132 106.349 108.722L97.2051 93.3459C97.1426 92.3635 99.0944 92.0335 99.9291 91.5861C102.473 90.2237 104.652 88.7788 104.955 85.6141C105.542 79.4622 100.591 75.4376 94.8459 74.9827C91.6771 74.7327 88.9256 75.7301 86.0792 75.7501C85.0346 75.7576 78.6294 74.1053 80.0914 76.995C80.5562 77.9149 83.2552 77.24 84.0749 78.7598C84.2898 79.1598 84.4173 79.9022 84.4648 80.3697C85.3369 89.0238 83.8125 99.0703 84.4773 107.872C84.1374 111.967 79.5091 108.897 80.0089 111.552C80.5087 114.206 85.0695 111.752 86.589 111.722C88.1334 111.692 92.7717 113.981 93.424 111.812C94.1387 109.434 90.2751 110.407 89.288 109.417L89.283 109.419ZM90.2101 89.4938C92.4943 89.6013 94.0587 90.2212 96.083 88.7413C99.5567 86.2016 98.0298 81.2046 94.3836 79.6947C93.6089 79.3748 90.7724 78.7773 90.495 79.6522L90.2101 89.4938ZM113.452 117.739V126.113C113.452 126.178 113.127 127.078 113.052 127.213C112.262 128.65 110.203 128.342 109.81 128.985C109.598 129.332 109.793 130.05 110.12 130.257C111.112 130.89 115.064 130.147 116.585 130.227C117.553 130.28 121.024 131.29 121.429 130.08C122.063 128.19 118.21 128.695 117.935 126.625C117.458 123.005 118.32 118.348 117.945 114.611C118.047 113.904 119.504 113.639 120.137 113.554C123.603 113.089 128.376 113.479 130.94 116.116C132.137 117.349 133.682 121.308 134.296 121.756C134.734 122.073 135.693 122.211 135.906 121.576C136.203 120.691 135.384 116.979 135.578 115.724C131.403 111.132 123.793 110.327 117.947 111.487V97.8629C117.947 97.713 118.715 96.5356 118.95 96.3656C119.552 95.9281 121.079 95.8856 121.329 95.4982C121.504 95.2282 121.596 94.1733 121.299 93.9583C120.259 93.2084 116.933 94.2708 115.573 94.2583C114.491 94.2483 110.005 92.9284 109.735 94.3958C109.436 96.0381 112.952 95.4932 113.389 97.9204L113.454 113.059C99.5642 120.653 101.598 143.538 116.895 148.161C119.779 149.033 122.816 149.133 125.817 148.978C126.572 148.938 127.611 148.441 128.269 148.533C128.431 148.556 131.048 149.63 131.283 149.77C132.32 150.383 132.597 151.21 132.705 152.348C133.512 160.957 132.1 170.838 132.672 179.582C132.202 182.907 128.481 180.775 128.481 182.855C128.481 183.892 129.216 183.917 130.06 183.99C136.586 184.549 144.135 183.765 150.823 183.97C152.007 184.007 154.319 184.987 154.641 183.292C154.169 181.81 155.139 177.323 153.254 177.028C151.003 176.673 152.555 180.972 149.453 181.62C147.649 181.997 142.051 181.907 140.059 181.74C138.277 181.59 137.41 181.252 137.195 179.355C136.706 175.05 137.558 169.881 137.195 165.481C139.267 166.441 141.386 164.674 143.306 164.721C145.38 164.774 148.476 167.009 150.153 164.821C149.788 162.304 145.882 164.526 145.455 161.839L145.427 132.847C145.452 131.38 146.195 130.85 147.552 130.722C158.145 129.73 159.515 144.001 150.306 144.481C149.351 144.531 147.067 143.801 146.714 144.898C146.052 146.966 150.63 146.583 151.807 146.478C158.488 145.876 164.51 140.276 160.287 133.504C157.885 129.652 152.852 128.407 148.551 128.475C146.697 128.505 144.31 129.237 142.551 129.245C141.359 129.25 136.923 127.878 136.538 129.472C135.953 131.89 140.337 129.962 140.884 132.415L140.936 146.483C137.883 146.956 135.106 147.841 131.942 147.483C131.502 147.098 134.097 145.823 134.419 145.588C135.296 144.943 138.62 142.226 137.713 141.094C137.555 140.896 137.33 140.749 137.07 140.741C136.416 140.726 133.857 143.141 133.019 143.688C123.773 149.71 112.549 146.828 110.068 135.497C108.831 129.852 109.271 122.063 113.452 117.739ZM146.689 142.986C148.891 143.106 151.638 143.598 153.324 141.746C156.741 137.999 152.43 131.837 147.564 132.735C147.279 132.787 147.059 132.82 146.974 133.145L146.689 142.986ZM138.93 145.223C138.99 145.161 139.025 143.718 138.82 143.486L136.945 145.481C137.265 145.448 138.862 145.293 138.932 145.221L138.93 145.223Z" fill="#FDFDFD"/>
<path d="M140.941 148.985V161.609C140.941 163.259 138.407 163.612 137.193 163.734V151.36C137.193 149.945 139.714 148.948 140.941 148.985ZM138.942 160.734V154.985H138.692V160.734H138.942Z" fill="#FDFDFD"/>
</svg>
