<svg width="256" height="256" viewBox="0 0 256 256" fill="none" xmlns="http://www.w3.org/2000/svg">
<path d="M25.8273 41.8704C25.8273 41.8704 40.1064 28.3878 71.2246 22.3006C78.5064 20.8784 93.9233 16.5549 132.835 16.5549C147.058 16.5549 165.945 16.3273 196.096 23.8935C226.247 31.4598 239.786 42.0411 239.786 42.0411C240.298 45.9664 241.152 51.9398 241.721 58.8802C242.915 73.6144 244.451 93.5824 240.81 117.874C239.274 128.114 236.658 144.953 227.783 165.206C219.818 183.41 210.602 195.641 207.587 199.51C202.24 206.393 192.796 218.567 174.023 233.188C171.008 235.52 152.291 250.994 132.835 250.994C119.353 250.994 104.505 242.859 100.295 240.299C78.9615 227.271 61.8949 209.693 58.4815 205.426C55.0682 201.159 48.8104 192.854 42.6664 181.134C28.9562 155.079 26.1117 131.527 24.2344 114.461C21.6175 90.9087 23.1535 71.3958 24.0637 60.1318C24.6326 53.5895 25.8273 41.8704 25.8273 41.8704Z" fill="black"/>
<path d="M29.013 44.7718C29.013 44.7718 42.837 31.7442 72.9881 25.8278C80.0423 24.4624 95.0041 20.2527 132.665 20.2527C146.432 20.2527 164.693 20.082 193.934 27.3638C223.175 34.6456 236.259 44.9424 236.259 44.9424C236.771 48.754 237.568 54.5567 238.137 61.2696C239.274 75.5487 240.753 94.8909 237.283 118.386C235.804 128.285 233.301 144.612 224.711 164.238C216.974 181.874 208.042 193.707 205.141 197.462C199.964 204.118 190.805 215.894 172.657 230.059C169.756 232.334 151.609 247.296 132.778 247.296C119.751 247.296 105.358 239.389 101.262 236.942C80.6112 224.313 64.0565 207.303 60.757 203.15C57.4574 198.998 51.3703 190.976 45.4539 179.598C32.2557 154.34 29.4681 131.527 27.6477 115.03C25.0877 92.2171 26.5668 73.2731 27.477 62.4073C27.989 56.0358 29.1837 44.7149 29.1837 44.7149L29.013 44.7718Z" fill="#F7CA00"/>
<path d="M132.892 20.2527C132.892 20.2527 132.835 20.2527 132.778 20.2527C95.1179 20.2527 80.1561 24.4625 73.1019 25.8278C42.9508 31.7442 29.1837 44.7718 29.1837 44.7718C29.1837 44.7718 27.989 56.0927 27.477 62.4642C26.5668 73.3869 25.0877 92.274 27.6477 115.086C29.4681 131.584 32.2557 154.397 45.4539 179.655C51.3703 190.976 57.4574 199.054 60.757 203.207C64.1134 207.36 80.6112 224.427 101.262 236.999C105.301 239.502 119.751 247.353 132.778 247.353C132.778 247.353 132.835 247.353 132.892 247.353V20.2527Z" fill="#FFE402"/>
<path d="M132.778 243.598C119.011 243.598 103.765 234.553 102.058 233.529C82.6592 221.696 66.6165 205.483 62.9756 200.932C57.4574 193.991 52.5081 186.368 48.2414 178.233C35.2707 153.43 32.7107 130.902 31.061 116.054C28.5579 93.6962 30.0939 75.3211 30.8903 65.4224C31.4023 59.3922 32.4832 48.5833 32.5401 48.4695V48.1282L32.8245 47.9006C33.3934 47.3886 46.5916 35.1575 75.4343 29.5255C76.1739 29.3549 77.0272 29.1842 77.9943 29.0135C85.9019 27.3069 100.636 24.178 132.835 24.178H133.802C146.659 24.178 164.352 24.178 191.772 31.0046C220.046 38.0589 232.163 47.6162 232.675 48.0144L232.96 48.242L233.073 48.9246C233.585 52.5655 234.325 58.0269 234.837 64.3415C235.861 77.0278 237.454 96.1993 233.984 119.296C232.675 128 230.286 144.157 221.866 163.442C216.86 174.934 210.147 186.311 203.036 195.47C198.201 201.671 189.269 213.22 171.69 226.873L171.292 227.214C154.112 240.754 140.913 243.598 132.892 243.598H132.778ZM34.4743 48.9815C34.2467 50.9726 33.3365 60.1886 32.8814 65.5362C32.085 75.3211 30.549 93.5824 33.0521 115.769C34.7019 130.503 37.205 152.804 50.005 177.266C54.2147 185.287 59.1072 192.854 64.5685 199.68C68.1525 204.174 83.9676 220.16 103.139 231.822C104.789 232.846 119.58 241.607 132.835 241.607C140.572 241.607 153.258 238.82 170.041 225.622L170.496 225.28C187.847 211.798 196.721 200.363 201.443 194.219C208.497 185.174 215.097 173.91 220.046 162.589C228.409 143.531 230.741 127.545 232.049 118.898C235.463 96.0286 233.927 76.9709 232.903 64.3984C232.391 58.1975 231.651 52.7931 231.196 49.2091C226.702 45.7389 213.049 38.2295 191.374 32.7682C164.181 25.9984 146.659 25.9984 133.859 25.9984H132.892C100.921 25.9984 86.3001 29.1273 78.5063 30.7771C77.5392 31.0046 76.6859 31.1753 75.9463 31.2891C61.2121 34.1904 50.6876 38.8553 44.4299 42.3255C38.741 45.4544 35.4983 48.1282 34.5881 48.9246L34.4743 48.9815Z" fill="white"/>
<path d="M80.3269 38.7981L96.7678 36.295C103.765 35.2141 109.852 38.855 110.876 45.3403C111.502 49.4363 109.909 53.2479 106.098 55.6941L105.984 55.0114C110.592 55.5803 112.469 58.5954 112.981 62.1226L113.834 67.7545C114.062 69.3474 114.688 71.0541 116.281 72.7608L109.226 73.8417C108.202 72.647 107.463 71.1679 107.122 68.8923L106.268 63.2603C105.813 60.1883 103.651 58.5954 100.01 59.1643L90.51 60.6434L92.8994 76.3448L86.1865 77.3688L80.27 38.855L80.3269 38.7981ZM99.214 53.6461C102.684 53.1341 104.732 50.1759 104.22 46.7625C103.708 43.3492 100.864 41.3012 97.3936 41.8132L87.8931 43.2923L89.7136 55.1252L99.214 53.6461Z" fill="#1D1D1B"/>
<path d="M114.403 54.8407C114.403 42.6096 121.287 34.759 132.665 34.759C144.042 34.759 150.869 42.6096 150.869 54.8407C150.869 67.0719 144.042 75.1501 132.665 75.1501C121.287 75.1501 114.403 67.015 114.403 54.8407ZM143.929 54.8407C143.929 46.535 139.776 40.391 132.608 40.391C125.44 40.391 121.287 46.535 121.287 54.8407C121.287 63.1465 125.554 69.5181 132.608 69.5181C139.662 69.5181 143.929 63.2603 143.929 54.8407Z" fill="#1D1D1B"/>
<path d="M152.234 53.3616C154.51 41.2443 162.873 34.8159 173.909 36.8639C182.67 38.5136 187.733 44.3732 188.074 53.3047L181.475 52.0532C180.906 46.5918 177.778 43.3492 172.885 42.439C165.319 41.0167 160.54 46.6487 159.061 54.6132C157.468 63.2603 160.711 69.8025 167.481 71.0541C173.113 72.135 177.607 68.6647 179.541 63.2603L186.14 64.5119C182.841 73.7278 175.843 78.3927 166.343 76.6292C155.534 74.5812 149.959 65.5927 152.234 53.4185V53.3616Z" fill="#1D1D1B"/>
<path d="M148.821 127.886C146.773 125.724 144.555 123.563 142.165 121.799C140.516 120.604 137.842 119.58 135.851 119.182C136.704 117.646 136.42 116.053 135.965 114.631C135.509 113.266 134.03 112.697 132.437 112.924C131.015 113.152 130.162 113.948 129.991 115.484C129.877 116.907 129.65 118.443 131.072 119.58C130.731 119.808 128.91 120.661 128.228 121.06C126.293 122.197 125.838 124.359 124.644 126.066C122.482 129.081 122.425 132.324 123.506 135.737C123.847 136.818 123.563 137.728 122.937 138.923C122.141 140.402 122.766 142.052 124.018 142.507C124.189 142.564 124.245 142.393 124.189 142.222C123.961 141.141 123.392 140.06 124.644 139.492C125.554 139.036 125.781 138.24 125.554 137.216C125.269 135.964 126.18 131.925 125.838 130.503C125.838 130.503 127.716 129.479 128.853 127.374C129.309 126.521 129.764 127.602 130.276 128.171C131.3 129.308 131.698 131.47 130.901 132.779C130.105 134.087 129.821 135.452 129.65 136.932C129.422 139.036 128.797 141.141 128.626 143.246C128.398 145.692 128.285 148.139 128.341 150.528C128.341 151.78 128.626 153.088 129.024 154.283C129.365 155.534 130.162 156.558 130.56 157.81C131.527 160.427 130.333 160.711 128.74 161.394C128.285 161.564 126.692 162.304 127.488 163.044C128.114 163.214 128.797 163.044 129.479 163.044C130.389 163.044 131.072 162.645 131.925 162.418C132.949 162.076 134.144 162.418 133.746 160.54C133.12 158.948 132.608 157.412 132.665 155.762C132.779 153.486 133.917 152.86 133.632 151.04C133.405 149.561 134.713 150.357 135.851 151.211C136.135 151.438 136.704 152.007 137.045 152.178C138.468 152.974 138.923 152.576 139.662 151.154C139.833 150.812 140.288 149.845 140.459 149.561C142.336 146.716 141.255 143.986 143.303 141.198C143.645 140.686 143.303 135.111 143.872 132.665C143.986 132.21 147.342 131.243 148.309 130.617C149.675 129.764 149.959 128.967 148.935 127.829L148.821 127.886ZM135.908 146.944C135.794 147.968 134.429 147.627 132.893 146.83C133.689 145.465 135.111 143.076 135.908 141.653C135.908 141.596 136.021 141.653 136.078 141.653C136.363 142.45 136.078 145.863 135.965 146.887L135.908 146.944ZM141.028 132.21C140.971 132.551 140.857 132.892 140.516 132.949C139.89 133.12 139.378 133.12 137.842 133.234C137.671 133.632 138.923 133.575 139.264 133.689C139.264 133.689 138.809 134.03 138.752 134.03C137.444 134.03 136.306 132.779 136.306 131.3C136.306 129.934 137.102 129.081 138.525 129.081C140.288 129.081 141.824 129.707 142.962 131.584C142.109 131.356 141.426 131.186 140.686 131.072C140.345 131.072 139.833 130.958 139.776 131.3C139.776 131.3 141.141 131.641 141.028 132.153V132.21ZM144.555 129.081C144.555 129.081 144.1 129.422 143.872 129.65C143.588 129.877 143.588 130.162 143.417 130.276C143.189 130.389 142.848 130.276 142.677 129.764C142.507 129.365 142.791 129.024 143.133 128.74C143.474 128.455 143.645 128.341 144.043 128.398C144.327 128.398 144.498 128.398 144.612 128.626C144.725 128.853 144.725 128.91 144.555 129.138V129.081Z" fill="black"/>
<path d="M132.722 165.604C129.763 165.604 127.203 164.466 125.099 163.328C118.215 159.574 113.778 153.43 111.104 144.043C108.885 136.306 108.203 126.749 109.227 117.817V117.647H109.397C109.568 117.647 127.317 112.413 132.892 110.535H132.949L156.899 117.817V117.988C156.899 117.988 157.127 122.198 157.184 123.506C157.298 125.44 157.355 127.147 157.298 128.797C156.956 137.899 155.136 145.238 151.723 151.951C148.594 158.038 143.531 162.418 136.761 164.921C135.395 165.433 134.03 165.661 132.779 165.661L132.722 165.604ZM109.625 118.045C108.658 126.863 109.34 136.249 111.502 143.872C114.176 153.145 118.556 159.175 125.269 162.873C129.536 165.206 133.006 165.718 136.476 164.409C143.246 161.906 148.025 157.753 151.154 151.666C154.567 145.067 156.331 137.785 156.672 128.74C156.729 127.09 156.672 125.383 156.558 123.506C156.501 122.368 156.331 118.955 156.274 118.159L132.835 110.991C127.488 112.811 111.331 117.533 109.568 118.045H109.625Z" fill="black"/>
<path d="M104.619 171.691C104.96 170.211 105.472 168.846 106.553 167.253C105.814 167.253 105.017 167.139 104.221 167.253C102.742 167.481 101.262 167.936 99.7833 168.163C99.442 168.22 98.7024 167.936 98.6455 167.708C98.1335 165.945 96.882 164.978 94.9478 164.409C97.6215 162.019 101.49 160.427 103.822 157.411C103.083 157.241 96.6544 157.867 94.1513 158.037C93.5824 158.037 92.9566 157.753 92.3877 157.582C91.3069 157.241 90.226 156.956 88.8606 156.501C90.3966 155.079 91.9326 153.657 93.5824 152.121C89.3158 152.462 81.2375 152.747 81.2375 152.747C83.9113 150.926 86.2438 148.878 88.0073 145.92C81.3513 147.513 75.4917 145.067 69.5753 143.303C68.3806 142.962 67.2429 142.45 66.0482 142.222C64.7398 141.938 64.0002 141.369 64.2846 139.947C64.2846 139.662 64.2846 139.378 64.2846 139.036C67.186 138.354 70.1442 137.842 72.4197 135.339C70.5993 134.201 65.8775 131.015 64.114 130.219C64.114 130.219 64.114 127.488 64.3984 124.928C64.3984 124.928 65.4224 124.53 66.7878 123.847C67.0153 123.733 67.2429 123.676 67.7549 123.506C66.4464 123.278 65.4793 123.051 64.4553 122.88V117.305C62.6918 118.329 60.4162 118.499 58.8233 119.523C57.6286 120.32 58.3113 119.353 57.5149 118.329C55.2962 115.427 53.9309 113.379 53.1344 109.909C50.7451 99.4417 51.2002 88.9741 52.5655 78.3928C52.7362 77.255 52.4518 76.1741 52.9638 75.0932C53.0775 74.8657 53.1344 74.5812 53.1913 74.3537C53.5326 72.1919 53.7602 69.9732 54.2153 67.8115C55.6375 68.7217 57.1166 70.599 58.5389 71.7937C64.9673 66.3892 69.8598 59.0506 74.2971 51.8257C75.2642 61.895 75.5486 70.9972 67.7549 78.791C69.6891 80.1564 72.1353 80.5546 74.0126 79.5306C76.402 78.2221 78.6775 76.7999 81.0669 75.5483C81.6926 75.207 82.3184 74.8088 82.9442 74.4675C83.2855 76.743 82.7735 78.3928 80.7824 84.1955C81.4082 84.5937 82.7735 85.3332 83.4562 85.6746C89.202 88.7466 92.8429 93.6959 95.2891 99.4986C97.2233 104.107 98.8162 108.885 100.58 113.55C101.092 114.859 101.661 116.11 102.343 117.362C102.116 115.143 103.254 112.299 104.448 110.535L104.96 110.763C107.065 111.047 108.487 109.682 110.023 108.942C108.601 108.316 107.179 107.634 105.302 106.78C106.553 105.927 109.284 104.107 109.796 103.822C110.99 103.253 111.332 102.4 110.592 101.319C110.08 100.579 109.796 100.295 109.796 100.295C110.422 99.8968 112.128 98.6452 112.811 98.247C113.892 97.5075 115.03 96.8248 113.323 94.9475C113.209 94.8337 113.949 94.5492 114.176 94.2648C114.574 93.8666 115.086 93.5252 115.542 93.1839C115.712 93.0701 115.655 92.7857 115.428 92.7288C114.233 92.5581 113.038 92.3306 111.844 92.1599C110.934 91.9892 110.535 91.5341 110.137 90.6239C109.511 89.1448 108.374 87.8932 107.35 86.6417C106.553 85.7315 105.415 85.1057 104.619 84.1955C103.083 82.5457 103.31 81.5786 105.358 80.7252C107.975 79.6443 110.706 79.7581 113.494 79.9288C116.11 80.0995 118.784 79.9857 121.401 79.9288C122.027 79.9288 122.653 79.6444 123.563 79.4168C123.165 80.0995 122.937 80.4408 122.482 81.2372C126.123 81.2372 128.74 84.5937 132.722 83.0577C132.096 84.935 131.584 86.471 130.958 88.007C130.731 88.519 130.333 89.2586 129.878 89.5999C128.797 90.2826 129.252 90.567 129.991 91.0221C130.845 91.5341 131.755 91.8186 133.006 92.3875C131.869 93.639 130.845 94.7768 129.593 96.1421C129.991 96.4266 130.503 96.9386 131.243 97.3368C132.21 97.8488 132.438 98.1332 132.494 99.0435C132.608 100.75 132.779 102.4 133.177 104.163C133.575 102.343 133.974 100.579 134.315 98.759C134.429 98.0764 134.599 97.5644 135.453 97.3368C136.078 97.1661 136.534 96.4835 136.932 96.199C135.737 94.8337 134.713 93.7528 133.462 92.3875C134.429 91.9892 135.111 91.7048 135.794 91.4203C137.33 90.7946 137.33 90.3395 136.306 89.1448C135.68 88.4621 135.282 87.5519 134.941 86.6986C134.486 85.6177 134.258 84.4799 133.86 83.1715C135.623 83.911 137.216 83.6266 138.809 82.887C140.345 82.2043 142.507 81.4648 144.441 81.1804L143.133 79.7012C143.702 79.7581 144.1 79.815 144.498 79.8719C147.001 79.9857 149.447 80.2701 151.95 80.1564C154.795 80.0426 157.582 79.7012 160.37 80.5546C163.101 81.4079 163.442 82.5457 161.394 84.5937C160.598 85.447 159.63 86.1297 158.72 86.9261C157.412 88.0639 156.331 89.3155 155.99 91.1359C155.933 91.5341 155.307 91.9892 154.852 92.103C153.714 92.4443 152.576 92.615 151.154 92.8995C150.926 92.8995 150.87 93.2408 151.04 93.3546C151.382 93.6959 152.861 94.5492 153.202 94.7199C153.202 94.7199 153.088 95.1181 152.462 95.8577C151.837 96.6541 152.064 97.223 152.804 97.735C153.657 98.3608 155.591 99.8968 156.502 100.466C156.502 100.466 156.331 100.693 155.819 101.376C155.022 102.4 155.307 103.139 156.388 103.765C157.867 104.619 160.654 106.951 160.654 106.951C159.46 107.463 158.265 107.975 156.9 108.544C158.265 109.397 160.029 110.649 161.963 110.535C161.963 110.535 161.963 110.933 162.134 111.218C163.442 112.981 163.897 115.143 163.67 117.362C163.783 117.362 163.897 117.475 164.011 117.532C164.75 115.598 165.604 113.664 166.286 111.673C168.107 106.155 169.984 100.636 172.829 95.5163C175.161 91.4203 178.29 88.0639 182.443 85.7883C183.41 85.2195 184.434 84.6506 185.401 84.0817C185.287 83.5128 185.06 82.4319 184.946 81.8061C184.946 81.8061 185.515 82.0337 185.629 82.0906C187.847 83.1715 189.782 82.375 191.83 81.4648C193.309 80.7821 194.902 80.327 196.722 79.7012C189.44 74.1261 188.075 66.1617 186.084 57.799C192.455 63.8292 200.306 69.8595 209.01 72.8177C209.92 71.6799 210.546 70.599 211.399 69.7457C212.025 69.063 213.334 68.2097 214.073 67.6977C214.073 67.6977 212.651 70.6559 211.911 71.6799C210.432 73.671 210.318 73.1021 211.911 75.2639C215.382 79.9857 217.771 84.8212 220.786 90.3395C224.427 96.9955 224.37 105.017 224.029 112.697C223.118 117.931 222.379 118.784 218.909 120.035C215.382 121.287 211.741 121.913 207.986 122.368V113.209C206.507 112.412 204.914 111.502 202.923 110.421C202.923 114.233 202.923 123.051 202.923 123.051C202.126 122.994 199.737 123.221 198.884 123.619C200.135 123.904 201.444 124.188 202.752 124.53V130.958C199.908 132.323 197.063 133.689 194.276 134.997C193.934 135.168 193.934 135.68 194.276 135.851C195.072 136.249 195.869 136.647 196.722 136.931C198.315 137.443 200.022 137.899 201.671 138.297C202.582 138.524 202.638 139.093 202.582 139.776C202.468 140.459 202.923 141.312 201.842 141.653C198.372 142.677 194.902 143.758 191.431 144.839C187.222 146.147 182.955 147.115 178.461 145.92C178.461 145.92 183.126 151.609 185.799 154.51C181.419 153.714 177.152 152.917 172.829 152.121C174.308 153.543 175.901 155.022 177.323 156.331C175.844 157.013 174.592 157.582 173.341 158.094C172.999 158.208 172.544 158.094 172.089 158.037C169.757 157.81 164.011 157.525 163.044 157.639C165.319 160.768 168.676 161.906 171.406 164.352C169.358 164.864 168.278 166.115 167.652 167.822C167.595 168.05 166.855 168.163 166.514 168.107C165.262 167.879 164.011 167.538 162.759 167.31C161.792 167.139 160.768 167.083 159.687 167.196C160.654 168.675 161.565 169.984 161.394 171.691C161.394 171.691 160.484 170.098 159.687 169.415C157.867 167.595 155.762 166.172 153.259 165.945C152.007 165.831 151.609 164.864 151.723 163.783C151.894 161.678 152.064 159.687 149.902 158.379C149.789 158.322 149.902 157.582 150.073 157.298C157.696 147.171 159.744 135.566 159.403 123.221C159.403 121.401 159.005 119.523 159.118 117.703C159.175 116.622 159.858 115.541 160.313 114.403C159.801 114.403 158.948 114.347 158.094 114.29C150.073 114.005 142.336 112.242 134.884 109.34C133.063 108.601 131.584 109.056 129.991 109.682C123.563 112.128 116.907 113.835 110.023 114.29C108.544 114.403 107.008 114.517 105.415 114.688C107.52 115.484 107.52 117.077 107.35 118.898C106.61 127.147 107.065 135.282 109.398 143.246C110.877 148.252 113.095 152.974 116.281 157.127C116.85 157.867 116.964 158.322 116.11 158.891C115.143 159.573 114.631 160.597 114.745 161.849C114.802 162.531 114.973 163.328 114.802 163.954C114.631 164.636 114.119 165.717 113.607 165.774C110.365 166.172 108.886 167.595 106.667 169.699C106.041 170.325 104.733 171.577 104.733 171.577L104.619 171.691ZM208.27 99.783C206.621 99.271 205.028 98.7021 203.264 98.1332V102.457C204.8 102.571 206.393 102.627 208.1 102.741C208.1 101.66 208.214 100.75 208.214 99.7261L208.27 99.783ZM64.3415 99.9537C62.6349 101.376 59.4491 104.562 59.4491 104.562C59.4491 104.562 63.2606 103.481 64.3415 103.253V100.011V99.9537Z" fill="black"/>
<path d="M146.717 160.939C146.261 162.134 145.749 163.385 145.351 164.58C144.213 167.822 144.27 170.951 146.034 174.023C147.058 175.844 147.911 177.778 148.992 179.883H119.012C119.581 178.916 120.149 177.892 120.775 176.811C119.41 177.892 118.215 178.859 116.85 179.94C120.434 174.137 123.677 168.278 119.467 161.28C123.563 164.694 128.171 166.969 133.234 166.855C138.24 166.685 142.848 164.694 146.717 160.939ZM145.181 176.413C146.091 178.859 147.058 179.94 148.196 179.883C147.342 178.916 146.091 177.494 145.181 176.413Z" fill="black"/>
<path d="M119.979 185.344C120.092 185.059 120.832 184.832 121.287 184.832C127.829 184.832 134.371 184.832 140.857 184.832C142.222 184.832 143.587 184.718 144.953 184.832C145.351 184.832 145.977 185.23 146.091 185.628C146.546 186.709 146.83 187.904 147.001 189.155C145.635 187.79 144.896 185.742 142.848 185.628C143.019 189.44 143.303 196.949 143.246 196.949C141.539 194.105 141.141 190.293 137.387 188.53C138.467 191.715 138.354 194.674 137.102 197.746C136.419 196.153 135.794 194.56 135.225 193.138C134.77 195.072 134.258 197.234 133.689 199.282C133.575 199.737 133.12 200.704 132.779 201.102C132.437 200.704 131.811 199.68 131.698 199.225C131.186 197.177 130.844 195.072 130.389 192.853C129.593 194.218 128.796 195.527 127.829 197.177C127.09 195.584 127.317 194.162 127.488 192.853C127.659 191.488 128.114 190.122 128.455 188.643C125.44 190.122 124.473 193.024 123.164 195.754C122.766 192.341 122.425 188.985 123.563 185.628C120.889 185.628 120.32 188.245 118.727 189.497C119.182 188.131 119.41 186.709 119.922 185.401L119.979 185.344Z" fill="black"/>
<path d="M207.587 128.569C207.473 125.668 207.758 125.212 207.758 125.212H213.674C211.797 126.293 209.237 127.602 207.587 128.569Z" fill="black"/>
<path d="M59.4488 124.758V127.374C58.0835 126.578 56.0355 125.326 54.8408 124.644L59.4488 124.814V124.758Z" fill="black"/>
<path d="M95.573 89.5996C98.1899 84.309 102.627 82.4316 102.627 82.4316C102.627 82.4316 103.936 84.9348 105.642 86.0725C106.325 86.5276 107.975 88.0636 108.999 89.6565C109.511 90.453 109.852 91.7614 109.852 91.7614C109.852 91.7614 108.999 91.5908 107.918 90.965C107.633 90.7943 107.349 90.6236 104.106 89.3152C102.343 88.6325 101.831 88.4619 101.091 88.2912C99.9534 88.1205 99.3277 88.1774 99.1001 88.2912C98.0761 88.5188 95.6299 89.5996 95.6299 89.5996H95.573Z" fill="#BA181E"/>
<path d="M110.08 92.1028H109.738C109.738 92.1028 108.828 91.8752 107.747 91.2494C107.463 91.0788 107.121 90.8512 103.936 89.5997C102.172 88.917 101.717 88.7463 100.921 88.5757C100.181 88.4619 99.4984 88.405 99.0433 88.5757C98.0762 88.7463 95.6868 89.8841 95.6299 89.8841L95.0042 90.1686L95.2886 89.5428C97.9055 84.2521 102.286 82.3179 102.457 82.261L102.684 82.1472L102.798 82.3179C102.798 82.3179 104.106 84.7641 105.699 85.9019C106.496 86.4708 108.089 88.0068 109.113 89.5428C109.625 90.3392 109.966 91.6477 109.966 91.7046L110.08 92.0459V92.1028ZM99.7259 87.9499C100.124 87.9499 100.522 87.9499 100.977 88.0637C101.774 88.1774 102.286 88.405 104.049 89.0877C107.235 90.3392 107.577 90.5668 107.861 90.7374C108.487 91.0788 108.999 91.3063 109.34 91.4201C109.226 90.965 108.999 90.2823 108.657 89.8272C107.577 88.1774 105.927 86.6983 105.358 86.3001C103.936 85.2761 102.741 83.3988 102.4 82.773C101.546 83.1712 98.1899 85.0486 95.9713 89.0877C96.7677 88.7463 98.133 88.1774 98.8726 88.0068C99.1002 88.0068 99.3846 87.9499 99.669 87.9499H99.7259Z" fill="black"/>
<path d="M111.786 85.0486C111.786 85.0486 112.526 84.4228 113.265 84.309C114.517 84.1383 116.849 84.2521 116.849 84.2521C116.849 84.4228 116.508 84.9348 115.825 85.2761C115.029 85.6743 113.777 85.845 112.753 85.6175C112.583 85.6175 111.729 85.2761 111.729 85.0486H111.786Z" fill="#BA181E"/>
<path d="M113.721 85.9019C113.379 85.9019 113.095 85.9019 112.753 85.7881C112.753 85.7881 111.616 85.4468 111.616 85.0486C111.616 84.7072 112.526 84.1952 113.266 84.1384C114.517 83.9677 116.793 84.0815 116.906 84.0815H117.02V84.1952C117.134 84.4797 116.622 85.1055 115.939 85.4468C115.313 85.7312 114.517 85.9019 113.721 85.9019ZM112.014 85.0486C112.014 85.0486 112.697 85.3899 112.867 85.4468C113.778 85.6175 114.972 85.4468 115.826 85.1055C116.281 84.8779 116.565 84.5935 116.679 84.4228C116.053 84.4228 114.346 84.4228 113.379 84.4797C112.754 84.5366 112.242 84.8779 112.071 85.0486H112.014Z" fill="black"/>
<path d="M100.01 91.0788C101.091 90.6236 101.944 90.5668 102.456 90.7374C106.609 91.9321 107.861 93.2405 109.681 93.7525C110.933 94.1508 112.071 93.9801 112.071 93.9801C112.071 93.9801 111.786 94.2645 111.445 94.4352C111.217 94.549 110.648 94.8334 109.909 94.9472C108.544 95.1179 107.406 94.7196 106.78 94.4921C106.211 94.2645 105.813 94.037 104.96 93.5819C103.879 92.9561 103.48 92.6716 102.57 92.2165C101.944 91.9321 100.067 91.1356 100.067 91.1356L100.01 91.0788Z" fill="#BA181E"/>
<path d="M109.113 95.2317C107.975 95.2317 107.065 94.8903 106.609 94.7197C106.041 94.4921 105.642 94.2645 104.789 93.8094C104.334 93.525 103.993 93.3543 103.708 93.1268C103.31 92.8992 102.969 92.6717 102.4 92.3872C101.774 92.1028 99.9534 91.3063 99.8965 91.3063L99.3276 91.0788L99.8965 90.8512C100.921 90.453 101.888 90.2823 102.513 90.453C105.073 91.1925 106.553 91.9321 107.747 92.5579C108.487 92.9561 109.056 93.2405 109.738 93.4681C110.933 93.8094 112.014 93.6957 112.014 93.6957L112.753 93.5819L112.185 94.0939C112.185 94.0939 111.843 94.3783 111.445 94.6059C111.217 94.7197 110.592 95.0041 109.795 95.1179C109.511 95.1179 109.283 95.1179 109.056 95.1179L109.113 95.2317ZM100.693 91.0788C101.319 91.3632 102.229 91.7614 102.627 91.9321C103.196 92.2165 103.537 92.4441 103.936 92.6717C104.22 92.8423 104.561 93.0699 105.017 93.2974C105.87 93.7525 106.268 93.9801 106.78 94.1508C107.349 94.3783 108.487 94.7765 109.795 94.6059C110.421 94.4921 110.933 94.2645 111.217 94.1508C110.762 94.1508 110.193 94.037 109.625 93.8663C108.885 93.6388 108.259 93.2974 107.52 92.9561C106.382 92.3303 104.903 91.5908 102.4 90.8512C102.001 90.7374 101.376 90.8512 100.693 91.0219V91.0788Z" fill="black"/>
<path d="M99.2139 92.3303C100.579 94.2645 101.945 95.6868 103.025 96.597C103.651 97.1659 105.244 98.5881 107.69 99.2139C108.316 99.3846 109.226 99.4414 109.625 99.3277C110.592 99.0432 110.592 98.9863 111.786 98.0761C112.412 97.621 113.095 97.1659 113.322 96.7677C113.493 96.4263 112.81 95.2886 112.241 95.0041C112.014 94.8903 111.161 95.7437 110.08 96.1988C108.942 96.6539 107.861 96.4263 106.951 96.1988C105.87 95.9143 105.13 95.5161 104.277 94.9472C103.025 94.1508 102.798 93.7526 101.546 92.8992C100.977 92.501 100.067 91.9321 98.8157 91.3632L99.2139 92.3872V92.3303Z" fill="#BA181E"/>
<path d="M108.942 99.6121C108.487 99.6121 107.975 99.5552 107.577 99.4414C105.073 98.8156 103.481 97.3934 102.798 96.8245C101.376 95.573 100.067 94.0939 98.9295 92.501L98.3037 90.9081L98.8726 91.1356C99.8397 91.5908 100.807 92.1028 101.66 92.6716C102.229 93.0699 102.57 93.3543 102.912 93.6388C103.31 93.9801 103.708 94.2645 104.391 94.7196C105.244 95.2316 105.927 95.6867 107.008 95.9143C107.918 96.1419 108.942 96.3694 110.023 95.9143C110.535 95.6867 110.99 95.4023 111.331 95.1179C111.843 94.7765 112.128 94.6059 112.355 94.7196C112.981 95.061 113.777 96.2556 113.493 96.8245C113.322 97.1659 112.867 97.5072 112.355 97.9054C112.241 98.0192 112.071 98.133 111.957 98.1899L111.616 98.4174C110.705 99.1001 110.592 99.2139 109.681 99.4983C109.511 99.5552 109.226 99.5552 108.942 99.5552V99.6121ZM99.3846 92.2165C100.465 93.7525 101.717 95.1747 103.139 96.4263C103.765 96.9952 105.301 98.3605 107.69 98.9863C108.316 99.157 109.169 99.157 109.511 99.1001C110.364 98.8725 110.421 98.8156 111.274 98.133L111.616 97.9054C111.616 97.9054 111.9 97.6779 112.014 97.5641C112.469 97.2227 112.924 96.8814 113.038 96.6539C113.095 96.4832 112.64 95.5161 112.128 95.2316C112.014 95.2316 111.786 95.4592 111.559 95.573C111.161 95.8574 110.705 96.1419 110.137 96.3694C108.942 96.8814 107.804 96.597 106.837 96.3694C105.699 96.085 104.96 95.6299 104.106 95.1179C103.367 94.6628 103.025 94.3783 102.57 93.9801C102.229 93.6956 101.888 93.4112 101.319 93.013C100.636 92.5579 99.9535 92.1596 99.157 91.7614L99.3277 92.1596L99.3846 92.2165Z" fill="black"/>
<path d="M170.553 89.429C167.993 84.2521 163.669 82.4317 163.669 82.4317C163.669 82.4317 162.361 84.8779 160.768 86.0157C160.085 86.4708 158.492 87.9499 157.468 89.5428C156.956 90.3393 156.672 91.5908 156.672 91.5908C156.672 91.5908 157.525 91.4201 158.549 90.8513C158.834 90.6806 159.061 90.5099 162.304 89.2584C164.011 88.5757 164.523 88.405 165.262 88.2913C166.4 88.1206 166.969 88.1775 167.196 88.2913C168.22 88.4619 170.61 89.5997 170.61 89.5997L170.553 89.429Z" fill="#BA181E"/>
<path d="M156.331 91.8753L156.444 91.5339C156.444 91.5339 156.786 90.2255 157.298 89.4291C158.322 87.8931 159.915 86.4139 160.654 85.8451C162.247 84.7642 163.499 82.3748 163.499 82.3748L163.612 82.2042L163.84 82.3179C163.84 82.3179 168.334 84.2522 170.837 89.4291L171.122 90.0548L170.496 89.7704C170.496 89.7704 168.107 88.6895 167.139 88.4619C166.684 88.3482 166.059 88.4051 165.319 88.4619C164.579 88.5757 164.124 88.7464 162.418 89.4291C159.346 90.6806 159.004 90.8513 158.72 91.0219C157.639 91.6477 156.786 91.8184 156.729 91.8184H156.387L156.331 91.8753ZM163.783 82.7731C163.442 83.3988 162.304 85.2762 160.882 86.2433C160.313 86.6415 158.72 88.0637 157.639 89.6566C157.355 90.1117 157.127 90.7944 156.956 91.1926C157.298 91.0788 157.81 90.9082 158.379 90.5668C158.72 90.3962 159.061 90.1686 162.19 88.9171C163.954 88.2344 164.409 88.0637 165.205 87.8931C166.002 87.7793 166.684 87.7224 167.196 87.8931C167.879 88.0068 169.187 88.5757 169.984 88.9171C167.822 84.9348 164.579 83.1713 163.726 82.7731H163.783Z" fill="black"/>
<path d="M166.229 90.9082C165.148 90.51 164.352 90.3962 163.84 90.5669C159.744 91.7046 158.549 93.0131 156.786 93.5251C155.534 93.9233 154.453 93.7526 154.453 93.7526C154.453 93.7526 154.738 94.0371 155.079 94.2077C155.307 94.3215 155.876 94.606 156.615 94.6629C157.98 94.8335 159.061 94.4353 159.687 94.2077C160.199 94.0371 160.597 93.8095 161.451 93.3544C162.532 92.7855 162.873 92.4442 163.783 91.9891C164.409 91.7046 166.229 90.9082 166.229 90.9082Z" fill="#BA181E"/>
<path d="M157.298 94.9473C157.298 94.9473 156.843 94.9473 156.558 94.9473C155.762 94.8335 155.193 94.5491 154.965 94.4353C154.624 94.2646 154.283 93.9802 154.283 93.9802L153.714 93.4682L154.453 93.582C154.453 93.582 155.477 93.6957 156.672 93.3544C157.355 93.1837 157.924 92.8424 158.606 92.5011C159.744 91.8753 161.223 91.1357 163.726 90.4531C164.352 90.2824 165.262 90.4531 166.286 90.7944L166.855 91.022L166.286 91.2495C166.286 91.2495 164.466 92.0459 163.84 92.3304C163.328 92.6148 162.987 92.7855 162.589 93.07C162.304 93.2406 161.963 93.4682 161.508 93.6957C160.654 94.1508 160.256 94.3784 159.744 94.606C159.289 94.7766 158.379 95.118 157.298 95.118V94.9473ZM155.25 93.9802C155.25 93.9802 155.989 94.3215 156.615 94.3784C157.924 94.5491 159.005 94.1508 159.573 93.9802C160.085 93.8095 160.484 93.582 161.28 93.1268C161.735 92.8993 162.02 92.6717 162.361 92.5011C162.759 92.2735 163.101 92.046 163.669 91.7615C164.068 91.5908 164.921 91.1926 165.547 90.9082C164.864 90.6806 164.295 90.6237 163.897 90.7375C161.451 91.4202 160.029 92.1597 158.891 92.7855C158.151 93.1837 157.525 93.4682 156.843 93.6957C156.274 93.8664 155.705 93.9233 155.307 93.9802H155.25Z" fill="black"/>
<path d="M167.139 92.3873C165.774 94.3215 164.409 95.7437 163.328 96.6539C162.702 97.2228 161.109 98.6451 158.663 99.2708C158.037 99.4415 157.127 99.4984 156.729 99.3846C155.762 99.1002 155.762 99.0433 154.567 98.1331C153.941 97.6779 153.259 97.2228 153.031 96.8246C152.86 96.4833 153.543 95.3455 154.112 95.0611C154.34 94.9473 155.193 95.8006 156.274 96.2557C157.411 96.7108 158.492 96.4833 159.403 96.2557C160.484 95.9713 161.223 95.5731 162.076 95.0042C163.328 94.2077 163.555 93.8095 164.807 92.9562C165.376 92.5579 166.286 91.9891 167.538 91.4202L167.139 92.4442V92.3873Z" fill="#BA181E"/>
<path d="M157.355 99.6121C157.355 99.6121 156.843 99.6121 156.615 99.5553C155.705 99.2708 155.591 99.2139 154.681 98.4744L154.34 98.1899C154.34 98.1899 154.055 97.9624 153.941 97.9055C153.429 97.5073 152.974 97.1659 152.747 96.8246C152.462 96.2557 153.316 95.061 153.884 94.7197C154.112 94.6059 154.396 94.7766 154.908 95.1179C155.25 95.3455 155.762 95.6868 156.217 95.9144C157.241 96.3695 158.265 96.085 159.232 95.9144C160.313 95.6868 160.996 95.2317 161.849 94.7197C162.532 94.3215 162.93 93.9801 163.328 93.6388C163.669 93.3544 164.011 93.0699 164.58 92.6717C165.433 92.1028 166.343 91.5908 167.367 91.1357L167.936 90.9081L167.31 92.501C166.172 94.0939 164.921 95.573 163.499 96.8246C162.816 97.4504 161.223 98.8157 158.72 99.4415C158.322 99.5553 157.81 99.6121 157.355 99.6121ZM154.112 95.2317C153.6 95.5161 153.145 96.4833 153.202 96.6539C153.316 96.8815 153.771 97.2228 154.226 97.5641C154.34 97.6779 154.51 97.7917 154.624 97.9055L154.965 98.1899C155.819 98.8726 155.876 98.9295 156.729 99.157C157.07 99.2708 157.924 99.2139 158.549 99.0433C160.939 98.4175 162.475 97.109 163.1 96.5401C164.523 95.2886 165.774 93.8664 166.855 92.3304L167.026 91.9321C166.286 92.2735 165.547 92.7286 164.864 93.1837C164.295 93.5819 163.954 93.8664 163.612 94.1508C163.214 94.4921 162.816 94.8335 162.076 95.2317C161.223 95.7437 160.484 96.1988 159.346 96.4833C158.379 96.7108 157.241 96.9953 156.046 96.4833C155.534 96.2557 155.022 95.9144 154.624 95.6868C154.396 95.573 154.169 95.3455 154.055 95.3455L154.112 95.2317Z" fill="black"/>
<path d="M154.51 85.0487C154.51 85.0487 153.771 84.4229 153.031 84.3091C151.779 84.1385 149.447 84.2522 149.447 84.2522C149.447 84.4229 149.788 84.9349 150.471 85.2762C151.267 85.6745 152.519 85.8451 153.543 85.6176C153.714 85.6176 154.567 85.2762 154.567 85.0487H154.51Z" fill="#BA181E"/>
<path d="M152.576 85.902C151.78 85.902 150.983 85.7314 150.357 85.4469C149.675 85.1056 149.106 84.5367 149.276 84.1954V84.0816H149.447C149.561 84.0816 151.78 83.9678 153.088 84.1385C153.828 84.2523 154.738 84.7074 154.738 85.0487C154.738 85.4469 153.6 85.7883 153.6 85.7883C153.316 85.8451 152.974 85.902 152.633 85.902H152.576ZM149.675 84.4229C149.675 84.4229 150.073 84.878 150.528 85.1056C151.324 85.5038 152.519 85.6176 153.486 85.4469C153.657 85.4469 154.169 85.2194 154.34 85.0487C154.169 84.878 153.657 84.5936 153.031 84.4798C152.007 84.366 150.357 84.366 149.732 84.4229H149.675Z" fill="black"/>
<path d="M36.5152 6.02188C37.8531 5.53942 39.3094 6.22376 39.7918 7.56165L63.6447 73.7069C63.6447 73.7069 63.6149 73.9595 63.5078 73.9981L59.066 75.5999C59.066 75.5999 58.8134 75.5701 58.7748 75.463L34.9219 9.31781C34.4394 7.97992 35.1238 6.52364 36.4617 6.04118L36.5152 6.02188Z" fill="#FFE402"/>
<path d="M58.9938 75.833C58.9938 75.833 58.8801 75.833 58.8232 75.833C58.7094 75.833 58.6525 75.7192 58.5956 75.6054L34.7592 9.38675C34.5316 8.70409 34.5316 7.96453 34.873 7.28186C35.2143 6.5992 35.7263 6.0872 36.4658 5.85964C37.1485 5.63209 37.8881 5.63209 38.5707 5.97342C39.2534 6.31475 39.7654 6.82675 39.993 7.56631L63.8294 73.7281C63.8294 73.7281 63.8294 73.9556 63.8294 74.0694C63.8294 74.1832 63.7156 74.2401 63.6018 74.297L59.1645 75.8899H59.0507L58.9938 75.833ZM37.3761 6.03031C37.3761 6.03031 36.8072 6.03031 36.5796 6.20098C35.9538 6.42853 35.4987 6.88364 35.2143 7.45253C34.9298 8.02142 34.9298 8.70409 35.1005 9.27298L58.937 75.4348L63.3743 73.8419L39.6516 7.6232C39.4241 6.99742 38.969 6.54231 38.4001 6.25786C38.0587 6.0872 37.7174 6.03031 37.3761 6.03031Z" fill="#E5BA07"/>
<path d="M217.203 23.2913C218.59 23.6059 219.448 24.9672 219.134 26.3542L203.58 94.9269C203.58 94.9269 203.418 95.1237 203.307 95.0985L198.702 94.054C198.702 94.054 198.506 93.8927 198.531 93.7818L214.072 25.2645C214.387 23.8775 215.748 23.0196 217.135 23.3342L217.203 23.2913Z" fill="#FFE402"/>
<path d="M203.378 95.2888C203.378 95.2888 203.321 95.2888 203.264 95.2888L198.656 94.2648C198.656 94.2648 198.315 93.9804 198.372 93.7528L213.902 25.1448C214.073 24.4053 214.528 23.8364 215.154 23.4382C215.78 23.0399 216.519 22.9262 217.259 23.0968C218.738 23.4382 219.705 24.9173 219.364 26.3964L203.833 95.0044C203.833 95.0044 203.719 95.175 203.662 95.2319C203.605 95.2319 203.549 95.2888 203.435 95.2888H203.378ZM216.633 23.3813C216.178 23.3813 215.723 23.495 215.381 23.7795C214.813 24.1208 214.471 24.6328 214.301 25.2586L198.77 93.8666L203.378 94.8906L218.909 26.2826C219.193 24.9742 218.397 23.7226 217.088 23.4382C216.917 23.4382 216.747 23.3813 216.576 23.3813H216.633Z" fill="#E5BA07"/>
<path d="M63.3744 193.934H60.53C59.8473 193.934 59.3353 193.422 59.3353 192.739L59.3353 93.1837C59.3353 93.1837 59.4491 92.9561 59.5629 92.9561H64.2847C64.2847 92.9561 64.5122 93.0699 64.5122 93.1837L64.5122 192.796C64.5122 193.422 64.0002 193.934 63.3744 193.934Z" fill="#F7CA00"/>
<path d="M63.3743 194.161H60.5299C59.7903 194.161 59.1646 193.536 59.1646 192.796V93.2406C59.1646 93.2406 59.3352 92.8423 59.5628 92.8423H64.2846C64.2846 92.8423 64.6828 93.013 64.6828 93.2406V192.853C64.6828 193.593 64.1139 194.161 63.3743 194.161ZM59.5628 93.1837V192.739C59.5628 193.308 60.0179 193.763 60.5868 193.763H63.4312C63.9432 193.763 64.3983 193.365 64.3983 192.796V93.2406H59.6765L59.5628 93.1837Z" fill="#E5BA07"/>
<path d="M204.872 194.003L202.028 193.941C201.346 193.926 200.845 193.403 200.86 192.72L203.032 93.1885C203.032 93.1885 203.15 92.9635 203.264 92.966L207.985 93.069C207.985 93.069 208.21 93.1877 208.207 93.3015L206.034 192.89C206.021 193.516 205.498 194.017 204.872 194.003Z" fill="#F7CA00"/>
<path d="M204.914 194.218H202.069C201.33 194.161 200.704 193.536 200.704 192.739L202.866 93.2406C202.866 93.2406 203.037 92.8423 203.264 92.8423L207.986 92.9561C207.986 92.9561 208.384 93.1268 208.384 93.3543L206.222 192.91C206.222 193.649 205.597 194.218 204.914 194.218ZM203.264 93.1837L201.102 192.682C201.102 193.251 201.557 193.706 202.069 193.706H204.914C205.426 193.763 205.881 193.365 205.881 192.853L208.043 93.2975L203.321 93.1837H203.264Z" fill="#E5BA07"/>
<path d="M200.988 180.338H64.6826C63.1745 180.338 61.9519 181.548 61.9519 183.04C61.9519 184.533 63.1745 185.742 64.6826 185.742H200.988C202.496 185.742 203.719 184.533 203.719 183.04C203.719 181.548 202.496 180.338 200.988 180.338Z" fill="#F7CA00"/>
<path d="M200.988 185.913H64.6257C63.0328 185.913 61.7244 184.605 61.7244 183.012C61.7244 181.419 63.0328 180.11 64.6257 180.11H200.931C202.524 180.11 203.833 181.419 203.833 183.012C203.833 184.605 202.524 185.913 200.931 185.913H200.988ZM64.6257 180.509C63.2604 180.509 62.1226 181.646 62.1226 183.012C62.1226 184.377 63.2604 185.515 64.6257 185.515H200.931C202.297 185.515 203.435 184.377 203.435 183.012C203.435 181.646 202.297 180.509 200.931 180.509H64.6257Z" fill="#E5BA07"/>
<path d="M175.958 180.508C176.413 181.589 176.527 185.059 176.527 185.059C176.527 185.059 175.559 188.074 174.08 188.586L171.748 185.514C172.26 183.921 170.838 180.508 170.838 180.508C169.415 181.418 168.05 182.385 166.912 183.182C166.286 183.58 167.14 185.002 167.879 185.116C168.278 185.116 167.879 185.116 168.562 185.173L165.376 188.757C165.376 188.757 163.556 186.709 162.987 185.742C162.759 185.344 162.532 184.718 162.532 184.718C162.816 183.58 163.613 181.873 164.068 180.451H157.867C159.687 178.688 161.963 177.607 162.247 174.705C162.475 172.202 162.703 169.927 160.825 167.936C160.825 167.936 162.702 168.391 163.499 168.561C164.807 168.846 166.173 168.96 167.424 169.301C167.424 169.301 168.164 169.984 168.619 170.382C170.382 172.032 172.317 173.795 174.251 175.217C175.559 176.185 182.841 178.289 184.093 179.37C184.662 179.598 184.946 184.092 184.889 185.116C184.719 186.311 183.182 187.505 181.988 189.155C181.988 189.155 180.964 188.359 178.461 185.969C178.461 185.969 178.176 185.969 180.11 185.457C180.338 185.457 180.281 184.718 180.281 184.433C180.281 183.865 180.281 183.296 180.281 182.727C180.054 180.963 179.769 180.508 179.769 180.508C179.257 180.508 176.583 180.508 175.901 180.508H175.958Z" fill="#BA181E"/>
<path d="M182.159 189.553L181.931 189.383C181.931 189.383 180.907 188.529 178.404 186.254H178.29V186.026C178.29 185.799 178.29 185.742 180.111 185.287C180.111 185.173 180.111 184.889 180.111 184.775C180.111 184.661 180.111 184.604 180.111 184.49C180.111 183.978 180.111 183.409 180.111 182.841C179.94 181.589 179.769 181.02 179.655 180.849C179.03 180.849 177.152 180.849 176.242 180.849C176.583 182.215 176.754 185.002 176.754 185.116V185.173C176.754 185.287 175.73 188.302 174.194 188.871H174.023L171.52 185.628V185.514C171.919 184.32 171.122 181.76 170.781 180.963C169.7 181.646 168.676 182.385 167.709 183.068L167.083 183.466C167.083 183.466 166.969 183.751 167.026 183.865C167.14 184.32 167.595 184.889 167.993 184.889C168.164 184.889 168.164 184.889 168.221 184.889C168.221 184.889 168.221 184.889 168.448 184.889H169.188L165.547 189.098L165.376 188.871C165.376 188.871 163.556 186.766 162.93 185.856C162.703 185.457 162.475 184.832 162.475 184.775V184.661C162.646 183.978 162.987 183.125 163.328 182.215C163.499 181.703 163.727 181.191 163.897 180.736H157.412L157.867 180.281C158.265 179.882 158.72 179.541 159.175 179.143C160.598 177.948 161.963 176.867 162.191 174.705C162.418 172.259 162.646 170.041 160.825 168.106L160.256 167.537L161.053 167.708C161.053 167.708 162.93 168.163 163.727 168.334C164.239 168.448 164.807 168.561 165.319 168.618C166.116 168.732 166.912 168.903 167.709 169.073H167.766C167.766 169.073 168.505 169.756 168.96 170.211C170.496 171.69 172.544 173.568 174.592 174.99C175.161 175.388 177.095 176.128 178.916 176.81C181.248 177.664 183.695 178.574 184.377 179.2C185.174 179.712 185.287 184.661 185.287 185.116C185.174 185.969 184.491 186.709 183.695 187.619C183.239 188.131 182.784 188.643 182.329 189.269L182.159 189.497V189.553ZM179.03 186.083C180.736 187.676 181.703 188.529 182.102 188.871C182.5 188.359 182.955 187.847 183.296 187.392C184.036 186.538 184.662 185.856 184.775 185.173C184.832 184.035 184.491 180.053 184.093 179.712C183.467 179.086 180.964 178.176 178.745 177.379C176.754 176.64 174.934 175.957 174.251 175.502C172.203 174.023 170.155 172.145 168.562 170.666C168.164 170.325 167.595 169.756 167.424 169.585C166.685 169.415 165.888 169.244 165.149 169.13C164.58 169.017 164.068 168.96 163.556 168.846C163.044 168.732 162.191 168.561 161.622 168.391C163.044 170.325 162.873 172.487 162.646 174.762C162.418 177.152 160.996 178.346 159.46 179.598C159.175 179.825 158.891 180.053 158.663 180.281H164.58L164.466 180.679C164.295 181.248 164.011 181.873 163.783 182.499C163.442 183.353 163.158 184.206 162.987 184.832C163.044 185.002 163.215 185.457 163.385 185.742C163.84 186.481 165.092 187.961 165.604 188.473L168.278 185.457C168.278 185.457 168.278 185.457 168.107 185.457C167.481 185.344 166.912 184.661 166.742 184.035C166.628 183.637 166.742 183.296 167.026 183.125L167.652 182.727C168.676 182.044 169.814 181.191 170.951 180.451L171.179 180.281L171.293 180.565C171.293 180.565 172.601 183.921 172.203 185.628L174.308 188.416C175.332 187.904 176.128 185.913 176.413 185.116C176.413 184.718 176.242 181.703 175.844 180.679L175.73 180.337H176.071C176.811 180.337 179.485 180.337 179.94 180.337H180.054L180.111 180.451C180.111 180.451 180.452 181.02 180.679 182.784C180.736 183.409 180.736 183.978 180.679 184.547C180.679 184.604 180.679 184.718 180.679 184.775C180.679 185.23 180.679 185.685 180.338 185.742C179.655 185.913 179.314 186.026 179.087 186.083H179.03Z" fill="black"/>
<path d="M89.8847 180.508C89.4296 181.589 89.3159 185.059 89.3159 185.059C89.3159 185.059 90.283 188.074 91.7621 188.586L94.0945 185.514C93.5825 183.921 95.0047 180.508 95.0047 180.508C96.427 181.418 97.7923 182.385 98.9301 183.182C99.5559 183.58 98.7025 185.002 97.963 185.116C97.5647 185.116 97.963 185.116 97.2803 185.173L100.466 188.757C100.466 188.757 102.287 186.709 102.855 185.742C103.083 185.344 103.311 184.718 103.311 184.718C103.026 183.58 102.23 181.873 101.775 180.451H107.975C106.155 178.688 103.879 177.607 103.595 174.705C103.367 172.202 103.14 169.927 105.017 167.936C105.017 167.936 103.14 168.391 102.343 168.561C101.035 168.846 99.6696 168.96 98.4181 169.301C98.4181 169.301 97.6785 169.984 97.2234 170.382C95.4599 172.032 93.5256 173.795 91.5914 175.217C90.283 176.185 83.0012 178.289 81.7496 179.37C81.1807 179.598 80.8963 184.092 80.9532 185.116C81.1239 186.311 82.6599 187.505 83.8545 189.155C83.8545 189.155 84.8785 188.359 87.3816 185.969C87.3816 185.969 87.6661 185.969 85.7319 185.457C85.5043 185.457 85.5612 184.718 85.5612 184.433C85.5612 183.865 85.5612 183.296 85.5612 182.727C85.7887 180.963 86.0732 180.508 86.0732 180.508C86.5852 180.508 89.259 180.508 89.9416 180.508H89.8847Z" fill="#BA181E"/>
<path d="M83.7407 189.553L83.57 189.326C83.1718 188.7 82.6598 188.188 82.2047 187.676C81.4083 186.766 80.7256 186.026 80.6118 185.173C80.6118 184.661 80.7256 179.769 81.522 179.2C82.2616 178.574 84.6509 177.664 86.9834 176.81C88.8607 176.128 90.738 175.445 91.3069 174.99C93.3549 173.511 95.346 171.633 96.9389 170.211C97.394 169.756 98.1336 169.073 98.1336 169.073H98.1905C98.9869 168.846 99.7834 168.732 100.58 168.618C101.092 168.505 101.661 168.448 102.173 168.334C102.969 168.163 104.846 167.708 104.846 167.708L105.643 167.537L105.074 168.106C103.254 170.041 103.481 172.259 103.709 174.649C103.936 176.867 105.245 177.948 106.724 179.143C107.179 179.484 107.577 179.882 108.032 180.281L108.487 180.679H102.002C102.173 181.191 102.343 181.703 102.571 182.215C102.912 183.125 103.254 183.978 103.424 184.661V184.775C103.424 184.775 103.197 185.457 102.969 185.856C102.4 186.766 100.637 188.814 100.523 188.871L100.352 189.098L96.7114 184.945H97.4509C97.4509 184.945 97.6216 184.832 97.6785 184.832C97.6785 184.832 97.7354 184.832 97.906 184.832C98.2474 184.832 98.7594 184.263 98.8731 183.808C98.8731 183.694 98.8731 183.466 98.8163 183.409L98.1905 183.011C97.2803 182.385 96.1994 181.646 95.1185 180.906C94.834 181.76 93.9807 184.263 94.322 185.457V185.571L91.8758 188.871H91.7051C90.1123 188.245 89.1452 185.23 89.1452 185.116V185.059C89.1452 184.945 89.2589 182.101 89.6572 180.793C88.7469 180.793 86.9265 180.793 86.2438 180.793C86.13 181.02 85.9594 181.589 85.7887 182.784C85.7318 183.353 85.7318 183.921 85.7887 184.433C85.7887 184.49 85.7887 184.604 85.7887 184.718C85.7887 184.889 85.7887 185.173 85.7887 185.287C87.6091 185.742 87.6091 185.799 87.6091 186.026V186.254H87.4385C84.9923 188.586 83.9683 189.383 83.9114 189.44L83.6838 189.61L83.7407 189.553ZM98.4749 169.585C98.4749 169.585 97.6785 170.268 97.3371 170.666C95.8011 172.145 93.6963 174.023 91.6483 175.502C91.0225 175.957 89.1451 176.64 87.154 177.379C84.9354 178.176 82.4323 179.086 81.8065 179.655H81.7496C81.4083 180.053 81.0669 184.035 81.1238 185.173C81.2376 185.856 81.8634 186.538 82.6029 187.392C83.0012 187.847 83.3994 188.302 83.7976 188.871C84.1958 188.529 85.1629 187.733 86.8696 186.083C86.642 186.026 86.2438 185.913 85.618 185.742C85.2767 185.685 85.2767 185.173 85.2767 184.775C85.2767 184.661 85.2767 184.604 85.2767 184.547C85.2767 183.978 85.2767 183.409 85.2767 182.784C85.5043 180.963 85.7887 180.508 85.8456 180.451V180.337H86.0163C86.4714 180.337 89.1452 180.337 89.8847 180.337H90.226L90.1123 180.679C89.714 181.646 89.5434 184.718 89.5434 185.116C89.6571 185.457 90.4536 187.79 91.6483 188.416L93.7531 185.628C93.3549 183.978 94.6065 180.736 94.6634 180.565L94.7771 180.281L95.0047 180.451C96.1994 181.191 97.3371 181.987 98.3043 182.727L98.93 183.125C98.93 183.125 99.3283 183.637 99.2145 184.035C99.0438 184.661 98.4749 185.344 97.8491 185.457C97.7354 185.457 97.6785 185.457 97.6785 185.457L100.352 188.473C100.807 187.904 102.116 186.425 102.571 185.742C102.742 185.457 102.912 185.002 102.969 184.832C102.798 184.206 102.457 183.353 102.173 182.499C101.945 181.873 101.661 181.248 101.49 180.679L101.376 180.337H107.293C107.008 180.053 106.724 179.825 106.496 179.598C104.96 178.346 103.538 177.209 103.31 174.819C103.083 172.487 102.912 170.325 104.334 168.391C103.709 168.505 102.855 168.732 102.4 168.846C101.888 168.96 101.319 169.073 100.807 169.13C100.068 169.244 99.2714 169.415 98.5318 169.585H98.4749Z" fill="black"/>
<path d="M52.1673 75.15C53.2482 74.5242 54.9548 73.5571 56.889 72.1918C63.4313 67.47 67.2997 61.9518 70.4286 57.5145C71.5095 55.9785 72.9886 53.7029 74.5246 50.9153C74.5246 51.7118 75.2073 58.5953 75.321 59.6193C75.7193 63.4309 74.6953 67.2993 74.2401 68.9491C72.249 76.3447 66.0481 80.4407 66.3326 81.1233C66.5033 81.5216 67.4704 81.294 69.2908 80.9527C72.1353 80.3838 74.1264 79.3598 74.7521 79.0185C77.6535 77.5393 80.5548 75.9465 83.3993 74.2967C83.3993 74.8656 83.3993 75.662 83.3993 76.6291C83.3993 77.1411 82.9441 80.2131 80.8961 84.0816C79.7015 86.3571 77.9379 89.3722 74.1264 92.6149C67.5273 98.2469 61.3264 102.514 61.3264 102.514C59.8473 103.538 58.0837 105.074 58.0837 105.074C58.0837 105.074 66.6739 102.058 67.8117 101.546C72.4197 99.6122 75.6055 97.9056 76.4588 97.4504C78.905 96.0851 81.0099 94.8336 82.6028 93.7527C82.4321 94.3785 82.2046 95.2318 81.8633 96.2558C81.0668 98.5313 79.7584 101.148 76.2881 105.358C74.0126 108.146 70.3148 112.526 64.1139 116.793C61.7815 118.386 59.7335 119.523 58.2544 120.32C57.7424 119.751 57.0028 118.841 56.2064 117.703C52.7362 112.469 51.4277 103.196 51.257 99.2709C50.6882 88.462 52.281 74.9225 52.281 74.9225L52.1673 75.15Z" fill="black"/>
<path d="M58.1406 120.661H58.0837C57.3442 119.751 56.6615 118.841 56.0357 117.93C52.3948 112.412 51.2002 102.741 51.0295 99.4415C50.4606 88.7464 51.9966 75.2069 52.0535 75.0931V74.9793C53.6464 74.126 55.2393 73.102 56.7184 72.0211C63.3744 67.2424 67.3566 61.5535 70.201 57.3438C71.6802 55.2389 73.0455 53.0202 74.2971 50.7447L74.5246 50.2896V50.8015C74.5246 51.4842 75.0366 57.1731 75.2642 59.0504V59.5056C75.7193 63.4878 74.5815 67.5269 74.2402 68.8922C72.8179 74.126 69.3477 77.71 67.4704 79.6442C66.9015 80.27 66.2757 80.8958 66.2757 81.0096C66.3895 81.294 67.3566 81.1233 68.665 80.8389H69.0633C71.7939 80.2131 73.785 79.246 74.4108 78.9047C77.369 77.3687 80.2704 75.7758 83.0579 74.1829L83.2286 74.0691V74.2398C83.2286 75.0362 83.2286 75.8327 83.2286 76.6291C83.2286 76.6291 83.001 79.8149 80.7255 84.1384C79.417 86.6416 77.5966 89.5998 73.9557 92.7287C67.4704 98.3038 61.2126 102.627 61.1557 102.627C60.1886 103.31 59.0508 104.22 58.425 104.732C60.4162 104.05 66.5602 101.831 67.5273 101.433C71.6802 99.6691 74.7522 98.1331 76.1744 97.3367C78.2793 96.1989 80.3273 94.9473 82.3184 93.6958L82.6028 93.5251V93.8096C82.3184 94.6629 82.0908 95.5162 81.8064 96.3127C81.0668 98.3607 79.8722 101.034 76.2313 105.472C74.0126 108.146 70.3717 112.583 64.0002 116.963C62.1228 118.272 60.1317 119.466 58.0837 120.49H58.0268L58.1406 120.661ZM52.2811 75.2069C52.1673 76.2309 50.7451 89.2015 51.2571 99.4415C51.4277 102.684 52.5655 112.298 56.2064 117.76C56.7753 118.67 57.4579 119.523 58.1975 120.32C60.1886 119.296 62.1228 118.101 64.0002 116.85C70.3148 112.526 73.9557 108.089 76.1744 105.415C79.8153 100.978 81.0099 98.3607 81.7495 96.3695C81.977 95.63 82.2046 94.9473 82.4322 94.2078C80.4979 95.4593 78.5068 96.654 76.5157 97.7349C75.0935 98.5313 72.0215 100.124 67.8117 101.831C66.6739 102.286 58.1406 105.301 58.0837 105.358L57.4579 105.586L57.9699 105.187C57.9699 105.187 59.7904 103.594 61.2126 102.627C61.2695 102.627 67.4704 98.3038 74.0126 92.7287C77.6535 89.5998 79.4739 86.6984 80.7255 84.1953C83.001 79.8718 83.2286 76.7998 83.2286 76.7998C83.2286 76.1171 83.2286 75.3776 83.2286 74.638C80.4979 76.2309 77.5966 77.7669 74.7522 79.246C74.1264 79.5873 72.0784 80.6113 69.3477 81.1802H68.9495C67.2428 81.5784 66.4464 81.7491 66.2757 81.2371C66.1619 80.9527 66.5033 80.6113 67.5273 79.5873C69.4046 77.6531 72.8179 74.126 74.2402 68.9491C74.5815 67.6407 75.7193 63.6015 75.321 59.6762V59.2211C75.0935 57.5713 74.6384 52.9633 74.5815 51.3704C73.3868 53.5322 72.0784 55.6371 70.6562 57.6282C67.7548 61.838 63.8295 67.5269 57.1166 72.3624C55.6375 73.4433 54.0446 74.4104 52.4517 75.2638L52.2811 75.2069Z" fill="#9D9D9C"/>
<path d="M210.546 73.2158C204.629 72.078 196.21 66.3322 191.943 63.1464C190.464 62.0656 188.359 59.9607 186.027 57.8558C186.482 61.6104 187.62 65.7064 187.961 66.6167C189.269 70.3713 190.862 73.5002 191.829 74.9224C195.982 81.1233 200.704 82.7731 200.704 83.5127C200.704 83.5127 198.201 84.5367 194.332 84.0816C191.09 83.6833 187.677 82.4318 184.491 81.806C184.661 82.3749 185.287 84.0815 185.628 84.9918C185.799 85.4469 187.108 88.1207 190.237 91.1358C192.057 92.8424 194.674 95.118 199.225 96.9384C207.189 100.124 214.357 102.115 214.357 102.115C216.064 102.57 217.543 102.969 217.486 103.253C217.372 103.936 209.18 103.31 207.929 103.253C202.923 102.912 199.452 102.343 198.485 102.172C195.755 101.717 193.365 101.148 191.545 100.693C191.886 101.205 192.341 101.945 193.024 102.798C194.446 104.618 196.494 106.666 201.102 109.454C204.117 111.331 208.953 114.233 216.121 116.224C218.795 116.963 221.184 117.418 222.834 117.703C223.175 117.02 223.517 115.939 223.915 114.574C225.621 108.658 224.085 99.6691 223.061 96.0282C220.331 85.902 210.717 73.2727 210.717 73.2727L210.546 73.2158Z" fill="black"/>
<path d="M222.777 117.76H222.663C221.127 117.532 218.681 117.077 215.893 116.281C208.555 114.233 203.719 111.274 200.818 109.454C195.982 106.496 194.048 104.391 192.74 102.741C192.228 102.058 191.716 101.376 191.261 100.636L191.09 100.352H191.374C193.65 100.978 195.982 101.49 198.315 101.888C199.908 102.172 203.264 102.684 207.758 102.969C214.301 103.424 216.917 103.31 217.202 103.082C217.031 102.855 215.723 102.514 214.642 102.172L214.187 102.058C214.187 102.058 206.905 100.01 199.054 96.8816C194.617 95.118 192 92.9562 190.009 91.0789C186.539 87.7794 185.344 84.9349 185.344 84.9349C185.003 84.0816 184.377 82.318 184.206 81.7491V81.5785H184.32C185.685 81.8629 187.108 82.2042 188.473 82.6025C190.35 83.1145 192.341 83.6834 194.162 83.854C197.518 84.2522 199.851 83.5127 200.363 83.342C200.249 83.1714 199.737 82.83 199.168 82.4318C197.518 81.294 194.389 79.1322 191.545 74.9225C190.521 73.3865 188.928 70.2007 187.677 66.6167C187.335 65.5358 186.197 61.4967 185.742 57.7989V57.4576L185.97 57.6851C186.766 58.4247 187.563 59.1074 188.302 59.79C189.725 61.0985 190.919 62.2362 191.886 62.9758C196.267 66.2185 204.516 71.9074 210.432 72.9882C210.546 73.102 220.103 85.7314 222.834 95.8007C223.687 98.8727 225.508 108.202 223.687 114.403C223.289 115.882 222.891 116.906 222.606 117.532L222.777 117.76ZM191.716 100.807C192.114 101.433 192.569 102.058 193.024 102.627C194.333 104.277 196.267 106.325 201.045 109.283C203.947 111.047 208.725 114.005 216.064 116.053C218.795 116.793 221.127 117.248 222.663 117.475C222.948 116.85 223.289 115.882 223.687 114.46C225.451 108.259 223.687 99.0434 222.834 95.9714C220.217 86.2434 211.115 74.0691 210.546 73.2727C204.629 72.1349 196.381 66.446 191.943 63.2034C190.976 62.4638 189.725 61.326 188.359 60.0176C187.677 59.3918 186.994 58.766 186.311 58.0834C186.766 61.6105 187.847 65.4789 188.189 66.5029C189.383 70.0869 190.976 73.2158 192 74.7518C194.788 78.9616 197.917 81.0665 199.566 82.2042C200.42 82.7731 200.875 83.1145 200.875 83.3989L200.818 83.5127C200.818 83.5127 198.201 84.5367 194.389 84.0816C192.512 83.854 190.521 83.342 188.644 82.83C187.335 82.4887 186.027 82.0905 184.718 81.8629C184.946 82.5456 185.458 84.0247 185.742 84.8211C185.742 84.8211 186.88 87.6087 190.35 90.9082C192.341 92.7856 194.901 94.9474 199.339 96.654C207.189 99.7829 214.357 101.831 214.471 101.831L214.926 101.945C217.088 102.514 217.771 102.741 217.714 103.082C217.714 103.31 217.6 103.879 207.986 103.196C203.492 102.855 200.135 102.343 198.485 102.115C196.267 101.717 193.991 101.262 191.829 100.693L191.716 100.807Z" fill="#9D9D9C"/>
<path d="M39.1392 200.59C40.6752 200.306 42.9507 199.908 45.7383 199.623C51.9392 198.997 56.3196 199.282 63.1463 199.851C68.892 200.306 69.916 200.647 70.94 201.387C74.4103 203.776 75.2636 208.27 75.4912 210.489L39.1392 200.647V200.59Z" fill="#E68409"/>
<path d="M75.7757 210.773L38.0583 200.533L39.0823 200.306C41.2441 199.908 43.4628 199.566 45.6815 199.339C52.053 198.656 56.7179 199.054 63.1463 199.566C68.8921 200.021 69.973 200.363 71.0539 201.102C74.2966 203.321 75.3775 207.36 75.7188 210.375V210.716L75.7757 210.773ZM40.2201 200.647L75.2068 210.091C74.8655 207.246 73.7846 203.605 70.8263 201.557C69.8592 200.875 68.7783 200.533 63.1463 200.078C56.4903 199.566 52.1099 199.225 45.7383 199.851C43.9179 200.021 42.0406 200.306 40.2201 200.647Z" fill="#E5BA07"/>
<path d="M220.444 200.59C218.34 200.078 216.633 199.851 215.666 199.737C203.378 198.144 188.985 201.046 188.075 201.671C186.766 202.525 186.937 204.288 185.572 207.929C185.287 208.726 185.003 209.351 184.832 209.75L220.444 200.534V200.59Z" fill="#E68409"/>
<path d="M184.434 210.148L184.661 209.693C184.946 209.124 185.173 208.498 185.401 207.872C185.913 206.507 186.197 205.369 186.425 204.516C186.823 202.98 187.108 202.069 187.961 201.501C189.099 200.761 203.776 197.973 215.723 199.509C217.316 199.737 218.908 200.022 220.501 200.363L221.469 200.59L184.377 210.148H184.434ZM207.872 199.509C198.03 199.509 188.928 201.444 188.245 201.899C187.506 202.411 187.278 203.207 186.937 204.629C186.709 205.54 186.425 206.621 185.856 208.043C185.685 208.498 185.515 208.953 185.287 209.408L219.421 200.59C218.169 200.306 216.917 200.135 215.666 199.965C213.106 199.623 210.432 199.509 207.872 199.509Z" fill="#E5BA07"/>
<path d="M55.922 192.057L51.4846 234.837L67.4135 247.011L68.2099 192.739C66.6739 191.203 64.5691 190.293 62.4073 190.293H61.1557C59.7335 190.293 58.3682 190.634 57.1735 191.317L55.922 192V192.057Z" fill="black"/>
<path d="M209.408 192.057L213.845 234.837L197.917 247.011L197.12 192.739C198.656 191.203 200.761 190.293 202.923 190.293H204.174C205.597 190.293 206.962 190.634 208.157 191.317L209.408 192V192.057Z" fill="black"/>
<path d="M38.4001 201.102C60.0179 205.596 78.7912 207.872 93.4685 209.067C133.461 212.423 163.954 209.692 173.966 208.668C193.138 206.734 209.181 203.719 221.07 201.102L225.849 218.795C226.133 219.876 225.565 221.013 224.541 221.525C215.666 225.564 202.98 227.954 198.997 228.466C162.304 232.903 146.66 233.301 146.66 233.301C127.374 233.756 106.61 233.074 78.9619 230.571C60.473 228.921 40.5619 223.744 35.0436 222.208C34.1903 221.98 33.6783 221.127 33.9059 220.274L38.4001 201.102Z" fill="url(#paint0_linear_425_25582)"/>
<path d="M135.452 233.927C118.443 233.927 100.58 233.017 78.9618 231.083C60.4729 229.433 40.6187 224.256 34.9298 222.72C33.8489 222.436 33.1662 221.298 33.4507 220.217L38.0587 200.59L38.5138 200.704C56.6613 204.459 75.1502 207.132 93.5253 208.668C128.171 211.57 156.388 210.034 173.966 208.27C189.724 206.677 205.54 204.117 221.013 200.704L221.468 200.59L226.361 218.738C226.702 220.046 226.076 221.468 224.768 222.037C215.211 226.361 202.069 228.636 199.111 228.978C162.816 233.415 146.887 233.813 146.716 233.813C142.962 233.927 139.264 233.927 135.452 233.927ZM38.7982 201.728L34.4178 220.444C34.304 221.013 34.6453 221.639 35.2142 221.753C40.8462 223.289 60.6436 228.409 79.0756 230.059C105.415 232.448 126.293 233.301 146.716 232.789C146.887 232.789 162.759 232.334 198.997 227.954C203.378 227.442 215.893 224.939 224.37 221.07C225.223 220.672 225.621 219.819 225.394 218.908L220.786 201.671C205.483 205.028 189.781 207.531 174.08 209.124C156.501 210.944 128.228 212.423 93.4684 209.522C75.264 207.986 56.832 205.312 38.7982 201.614V201.728Z" fill="#E5BA07"/>
<path d="M44.2026 205.995L49.095 207.019C51.1999 207.474 52.4515 209.237 52.0533 211.285C51.7688 212.594 50.9155 213.561 49.5501 213.902V213.675C50.8017 214.357 51.0293 215.495 50.7448 216.576L50.3466 218.34C50.2328 218.852 50.2328 219.42 50.4604 220.103L48.3555 219.648C48.1848 219.193 48.1848 218.624 48.3555 217.941L48.7537 216.178C48.9813 215.211 48.5261 214.471 47.4453 214.244L44.6008 213.618L43.5199 218.624L41.5288 218.226L44.1457 205.938L44.2026 205.995ZM47.8435 212.537C48.8675 212.764 49.7777 212.082 50.0053 211.001C50.2328 209.92 49.6639 209.01 48.6399 208.782L45.7955 208.156L44.999 211.911L47.8435 212.537Z" fill="black"/>
<path d="M50.9155 220.501L48.2417 219.932V219.819C48.0142 219.25 48.0142 218.681 48.1279 217.998L48.5262 216.235C48.6399 215.78 48.5262 215.438 48.4124 215.154C48.2417 214.869 47.9004 214.699 47.4453 214.585L44.8853 214.016L43.8044 219.022L41.3582 218.51L44.0888 205.767L49.2088 206.848C50.2897 207.076 51.1999 207.644 51.7688 208.498C52.3377 209.351 52.5653 210.375 52.3377 211.456C52.1102 212.651 51.3706 213.561 50.4035 214.016C51.0862 214.699 51.3706 215.609 51.0862 216.747L50.6879 218.51C50.5742 219.079 50.5742 219.591 50.8017 220.16L50.9724 220.558L50.9155 220.501ZM48.6399 219.477L50.1759 219.819C50.0622 219.307 50.0622 218.852 50.1759 218.34L50.5742 216.576C50.8017 215.495 50.5742 214.699 49.8346 214.13C49.8346 214.13 49.7208 214.13 49.6639 214.13L49.2657 214.244L49.4364 213.333L49.7208 213.504C49.7208 213.504 49.8346 213.504 49.8346 213.561C50.8586 213.22 51.5413 212.366 51.7688 211.285C51.9395 210.375 51.7688 209.465 51.2568 208.725C50.7448 207.986 49.9484 207.531 48.9813 207.303L44.3164 206.336L41.8133 218.112L43.2924 218.453L44.3733 213.447L47.4453 214.073C48.071 214.187 48.4693 214.471 48.7537 214.869C48.9813 215.268 49.095 215.723 48.9244 216.292L48.5262 218.055C48.4124 218.624 48.4124 219.079 48.5262 219.534L48.6399 219.477ZM48.2417 212.821C48.2417 212.821 47.9573 212.821 47.7866 212.821L44.7146 212.196L45.6248 207.929L48.6968 208.555C49.2657 208.668 49.7208 209.01 50.0053 209.465C50.2897 209.92 50.3466 210.489 50.2328 211.058C50.0053 212.139 49.2088 212.821 48.2417 212.821ZM45.2835 211.74L47.8435 212.309C48.6968 212.48 49.4933 211.911 49.7208 211.001C49.8346 210.546 49.7208 210.091 49.5502 209.749C49.3226 209.408 48.9813 209.18 48.583 209.067L46.023 208.498L45.3404 211.797L45.2835 211.74Z" fill="black"/>
<path d="M52.7927 217.316L53.8736 211.513L55.8078 211.854L54.8407 217.202C54.5563 218.624 55.0683 219.42 55.9785 219.591C56.9456 219.762 57.7421 219.079 58.0265 217.657L58.9936 212.423L60.9278 212.764L59.2781 221.753L57.4007 221.412L57.6852 219.819V219.932C57.1732 220.9 56.0923 221.412 55.0114 221.184C53.3047 220.843 52.3945 219.42 52.7927 217.202V217.316Z" fill="black"/>
<path d="M59.4488 222.094L57.1164 221.639L57.2302 220.956C56.6044 221.468 55.808 221.639 54.9546 221.525C53.0773 221.184 52.1671 219.534 52.5653 217.259L53.7031 211.228L56.1493 211.684L55.1253 217.259C54.9546 218.112 55.0115 219.193 56.0924 219.364C56.9457 219.534 57.6284 218.852 57.856 217.657L58.88 212.196L61.3262 212.651L59.5626 222.151L59.4488 222.094ZM57.6853 221.241L59.0506 221.525L60.6435 212.992L59.2213 212.708L58.3111 217.714C58.1973 218.34 57.9697 218.852 57.6853 219.193L58.0835 219.989V220.103C58.0835 220.103 57.9697 220.217 57.9128 220.274L57.7422 221.241H57.6853ZM53.0773 217.316C52.6791 219.307 53.4755 220.672 55.0684 220.956C55.9786 221.127 56.8888 220.786 57.4008 220.046L57.5146 219.307C57.1164 219.762 56.5475 219.932 55.9217 219.819C54.784 219.591 54.3288 218.624 54.6133 217.145L55.5804 212.025L54.1013 211.74L53.0773 217.316Z" fill="black"/>
<path d="M61.0416 222.834L62.9758 223.118C62.9758 223.858 63.6016 224.427 64.5118 224.597C65.7065 224.768 66.446 224.142 66.6736 222.891L66.9011 221.525H67.0149C66.446 222.549 65.422 222.834 64.398 222.663C62.2363 222.322 61.2123 220.274 61.6105 217.543C62.0656 214.699 63.886 213.106 65.8771 213.39C67.1856 213.618 67.8683 214.528 67.982 215.552H67.8683L68.0958 213.959L69.9731 214.244L68.5509 223.118C68.1527 225.564 66.5029 226.702 64.1705 226.304C62.0656 225.963 60.9278 224.654 60.9847 222.777L61.0416 222.834ZM67.3563 218.396V218.283C67.6407 216.747 67.1856 215.381 65.934 215.211C64.6256 214.983 63.8291 216.235 63.5447 217.828C63.3171 219.42 63.7154 220.786 64.9669 221.013C66.2754 221.241 67.0718 219.989 67.2994 218.453L67.3563 218.396Z" fill="black"/>
<path d="M65.0239 226.645C65.0239 226.645 64.455 226.645 64.1706 226.588C61.9519 226.247 60.7003 224.825 60.7572 222.834V222.549L63.2035 222.948V223.175C63.2035 223.801 63.7155 224.256 64.5688 224.37C65.0808 224.427 65.5359 224.37 65.8203 224.085C66.1048 223.858 66.3323 223.403 66.4461 222.834V222.436C65.9341 222.834 65.1946 223.004 64.3981 222.834C62.1795 222.492 60.9848 220.331 61.4399 217.429C61.6675 216.007 62.2363 214.812 63.0897 214.016C63.943 213.22 64.967 212.878 66.0479 213.049C66.9012 213.163 67.5839 213.618 67.9821 214.244L68.0959 213.618L70.4852 214.016L69.0061 223.118C68.7786 224.37 68.2666 225.337 67.4132 225.963C66.7875 226.418 66.0479 226.645 65.1946 226.645H65.0239ZM61.2692 223.118C61.2692 224.711 62.407 225.792 64.2275 226.076C65.3083 226.247 66.2755 226.076 66.9581 225.564C67.6977 225.052 68.1528 224.199 68.3235 223.061L69.6888 214.471L68.3235 214.244L68.1528 215.211C68.1528 215.211 68.1528 215.381 68.1528 215.495V215.836L67.527 215.723V215.211C67.4701 214.585 67.015 213.788 65.7635 213.561C64.8532 213.39 63.943 213.732 63.2603 214.357C62.5208 215.097 62.0088 216.178 61.7812 217.486C61.383 220.103 62.3501 221.98 64.3412 222.322C65.0239 222.436 65.8772 222.322 66.503 221.582V221.127L67.2426 221.355L67.0719 221.639C67.0719 221.639 66.9581 221.753 66.9581 221.81L66.7875 222.891C66.6737 223.573 66.3892 224.142 65.991 224.484C65.5928 224.825 65.0239 224.939 64.3412 224.825C63.3172 224.654 62.6915 224.085 62.5777 223.346L61.0986 223.118H61.2692ZM65.3083 221.241C65.3083 221.241 65.0808 221.241 64.967 221.241C63.6586 221.013 63.0328 219.648 63.3172 217.771C63.431 216.917 63.7723 216.178 64.1706 215.666C64.6826 215.097 65.2515 214.869 65.991 214.983C67.2995 215.211 67.9252 216.519 67.6408 218.34V218.453C67.4701 219.307 67.1857 219.989 66.7875 220.501C66.3892 221.013 65.8772 221.241 65.3083 221.241ZM65.7066 215.438C65.3083 215.438 64.9101 215.609 64.6257 216.007C64.2843 216.405 63.9999 217.088 63.8861 217.884C63.6586 219.136 63.8861 220.558 65.1377 220.786C65.6497 220.843 66.1048 220.672 66.4461 220.217C66.7875 219.819 67.0719 219.136 67.1857 218.396V218.283C67.4132 217.088 67.1857 215.666 65.991 215.495C65.9341 215.495 65.8203 215.495 65.7635 215.495L65.7066 215.438Z" fill="black"/>
<path d="M72.5902 222.208H72.7609L72.5333 223.858L70.656 223.63L72.3627 211.115L74.2969 211.399L73.6142 216.405L73.5005 216.292C74.1262 215.324 75.0933 214.812 76.2311 214.983C78.336 215.268 79.4169 217.486 79.0187 220.217C78.6205 223.118 76.9138 224.768 74.9796 224.484C73.7849 224.313 72.9316 223.516 72.5902 222.265V222.208ZM77.0845 219.876C77.312 218.112 76.8 216.747 75.6053 216.633C74.4107 216.462 73.5573 217.6 73.2729 219.307V219.42C73.0453 221.184 73.6142 222.492 74.752 222.663C75.9467 222.834 76.8 221.696 77.0845 219.876Z" fill="black"/>
<path d="M75.3778 224.711C75.3778 224.711 75.0934 224.711 74.9227 224.711C74.0694 224.597 73.3298 224.142 72.8178 223.46L72.704 224.199L70.3147 223.858L72.0783 210.83L74.5245 211.172L73.9556 215.268C74.5814 214.756 75.3209 214.528 76.1743 214.642C77.2551 214.812 78.1654 215.438 78.6774 216.462C79.1894 217.486 79.36 218.738 79.1894 220.16C78.7911 222.891 77.2551 224.654 75.3209 224.654L75.3778 224.711ZM72.9885 222.606C73.3298 223.516 74.0694 224.085 75.0365 224.199C76.9138 224.427 78.4498 222.777 78.7911 220.16C78.9618 218.852 78.7911 217.657 78.336 216.747C77.8809 215.836 77.1414 215.324 76.2311 215.211C75.3209 215.097 74.5245 215.438 73.9556 216.121L73.8418 217.031L73.2729 216.292L73.3867 216.121C73.3867 216.121 73.4436 216.007 73.5005 215.95L74.0694 211.627L72.5903 211.456L70.9405 223.46L72.3627 223.63L72.4765 222.663C72.4765 222.663 72.4196 222.436 72.3627 222.322L72.2489 221.98L73.0454 222.094V222.663L72.9885 222.606ZM74.9796 222.948C74.9796 222.948 74.8089 222.948 74.6951 222.948C74.0694 222.834 73.5005 222.436 73.216 221.753C72.9316 221.127 72.8747 220.331 72.9885 219.42V219.307C73.2729 217.429 74.2969 216.235 75.6054 216.405C76.288 216.519 76.8 216.917 77.0845 217.6C77.3689 218.226 77.4258 219.022 77.312 219.989C77.0845 221.867 76.1743 223.004 74.9796 223.004V222.948ZM75.3778 216.86C74.4676 216.86 73.728 217.828 73.5574 219.307V219.42C73.4436 220.217 73.5574 220.956 73.728 221.525C73.8987 221.867 74.1831 222.322 74.8089 222.436C76.0605 222.606 76.6863 221.241 76.8569 219.876C76.9707 219.022 76.8569 218.283 76.6863 217.771C76.4587 217.259 76.1174 216.974 75.6054 216.917C75.5485 216.917 75.4916 216.917 75.4347 216.917L75.3778 216.86Z" fill="black"/>
<path d="M79.5874 228.352L79.7581 226.588C79.7581 226.588 80.1563 226.759 80.3839 226.759C81.0665 226.816 81.4079 226.475 81.7492 225.792L82.1474 224.939L80.1563 215.609L82.2043 215.836L83.4559 222.777L86.1865 216.292L88.2345 216.519L83.6265 226.532C83.0576 227.84 82.1474 228.75 80.6114 228.58C80.2132 228.58 79.815 228.409 79.5305 228.295L79.5874 228.352Z" fill="black"/>
<path d="M81.0096 228.921C81.0096 228.921 80.7821 228.921 80.6114 228.921C80.1563 228.921 79.7581 228.75 79.4168 228.636H79.2461L79.4736 226.304L79.7581 226.418C79.7581 226.418 80.1563 226.532 80.327 226.588C80.839 226.645 81.1234 226.418 81.4079 225.735L81.7492 224.996L79.7012 215.381L82.2612 215.666L83.399 221.98L85.9021 216.121L88.4621 216.405L83.7403 226.759C83.0576 228.238 82.0905 228.978 80.8959 228.978L81.0096 228.921ZM79.815 228.238C79.815 228.238 80.3839 228.409 80.6683 228.409C81.863 228.523 82.7732 227.897 83.399 226.532L87.8363 216.804L86.3003 216.633L83.2852 223.687L81.9199 216.121L80.3839 215.95L82.3181 225.052L81.9199 225.963C81.5785 226.702 81.1803 227.157 80.327 227.1C80.2132 227.1 80.0425 227.1 79.9288 226.987L79.815 228.238Z" fill="black"/>
<path d="M92.3874 219.876C92.6718 215.95 94.9474 213.561 98.3038 213.845C101.717 214.13 103.538 216.804 103.253 220.729C102.969 224.654 100.693 227.1 97.3367 226.816C93.9234 226.532 92.1029 223.801 92.3874 219.876ZM101.205 220.501C101.433 217.828 100.352 215.78 98.1901 215.609C96.0283 215.438 94.6629 217.316 94.4354 219.989C94.2078 222.663 95.3456 224.825 97.4505 224.939C99.5554 225.109 100.978 223.175 101.205 220.501Z" fill="black"/>
<path d="M97.7919 227.044C97.7919 227.044 97.4506 227.044 97.2799 227.044C95.5733 226.93 94.1511 226.133 93.2408 224.825C92.3306 223.573 91.9324 221.81 92.103 219.819C92.4444 215.666 94.7768 213.276 98.3039 213.561C100.011 213.675 101.433 214.414 102.343 215.723C103.253 216.974 103.651 218.681 103.481 220.672C103.196 224.597 100.978 227.044 97.7919 227.044ZM92.615 219.876C92.4444 221.753 92.8426 223.346 93.639 224.54C94.4924 225.735 95.7439 226.418 97.3368 226.532C100.523 226.759 102.741 224.54 103.026 220.672C103.196 218.795 102.798 217.202 102.002 216.007C101.148 214.869 99.8968 214.187 98.3039 214.073C95.1182 213.845 92.8995 216.064 92.615 219.876ZM97.7351 225.223C97.7351 225.223 97.5644 225.223 97.4506 225.223C96.3697 225.166 95.4595 224.54 94.8906 223.573C94.3217 222.606 94.0942 221.412 94.2079 219.989C94.4355 217.031 96.0284 215.211 98.1902 215.381C99.3279 215.438 100.181 216.007 100.75 217.031C101.319 217.941 101.547 219.193 101.433 220.558C101.205 223.403 99.7262 225.28 97.6782 225.28L97.7351 225.223ZM97.9626 215.893C96.1991 215.893 94.8906 217.486 94.7199 220.046C94.6062 221.355 94.8337 222.492 95.3457 223.346C95.8577 224.199 96.5973 224.711 97.5644 224.768C99.4417 224.882 100.807 223.232 101.035 220.558C101.148 219.25 100.921 218.169 100.409 217.316C99.8968 216.462 99.1573 216.007 98.1902 215.95C98.1333 215.95 98.0195 215.95 97.9626 215.95V215.893Z" fill="black"/>
<path d="M105.188 214.414L107.179 214.528L106.496 227.157L104.505 227.044L105.188 214.414Z" fill="black"/>
<path d="M106.724 227.385L104.277 227.271L105.017 214.187L107.463 214.3L106.724 227.385ZM104.732 226.816H106.212L106.894 214.756H105.415L104.732 226.816Z" fill="black"/>
<path d="M108.43 230.798V229.035C108.43 229.035 108.942 229.148 109.17 229.148C109.852 229.148 110.194 228.807 110.421 228.068L110.706 227.214L108.089 218.055H110.137L111.9 224.939L114.176 218.283H116.224L112.356 228.693C111.844 230.059 110.99 231.026 109.511 230.969C109.113 230.969 108.658 230.855 108.373 230.798H108.43Z" fill="black"/>
<path d="M109.682 231.253H109.568C109.113 231.253 108.715 231.14 108.373 231.026H108.203L108.316 228.693L108.658 228.807C108.658 228.807 109.056 228.921 109.227 228.921C109.739 228.921 109.966 228.693 110.251 228.011L110.535 227.214L107.804 217.771L110.421 217.884L112.014 224.085L114.062 218.055L116.622 218.169L112.64 228.807C112.071 230.4 111.047 231.196 109.682 231.196V231.253ZM108.715 230.628C108.715 230.628 109.284 230.741 109.568 230.741C110.763 230.741 111.616 230.116 112.185 228.636L115.94 218.624H114.404L111.9 225.849L109.966 218.396H108.43L110.99 227.271L110.649 228.181C110.364 228.921 110.023 229.433 109.17 229.433C109.056 229.433 108.885 229.433 108.772 229.433V230.684L108.715 230.628Z" fill="black"/>
<path d="M124.131 227.726H122.14L122.197 222.265C122.197 220.786 121.742 220.103 120.775 220.103C119.808 220.103 119.182 220.956 119.182 222.379V227.726H117.134L117.248 218.567H119.125V220.217L119.011 220.046C119.466 218.965 120.434 218.34 121.401 218.34C123.107 218.34 124.188 219.534 124.131 221.924V227.783V227.726ZM126.464 218.34C128.227 218.34 129.251 219.648 129.251 221.582V227.726H127.203V222.265C127.317 220.843 126.805 220.16 125.838 220.16C124.985 220.16 124.302 220.843 124.245 222.265L123.847 220.103C124.359 219.022 125.326 218.34 126.464 218.396V218.34Z" fill="black"/>
<path d="M129.422 228.011H126.976L127.033 222.265C127.033 221.582 126.919 221.127 126.748 220.786C126.578 220.501 126.236 220.388 125.838 220.331C125.042 220.331 124.586 221.013 124.53 222.208V227.897H121.97V222.208C122.027 221.525 121.97 221.013 121.742 220.729C121.571 220.444 121.287 220.274 120.832 220.274C119.978 220.274 119.466 221.013 119.466 222.265V227.84H116.906L117.02 218.169H119.41V218.908C119.922 218.283 120.661 217.941 121.458 217.941C122.368 217.941 123.164 218.283 123.676 218.908C123.79 219.022 123.847 219.136 123.961 219.307C124.587 218.453 125.44 217.998 126.521 217.998C127.431 217.998 128.227 218.34 128.739 219.022C129.251 219.648 129.536 220.501 129.479 221.525V227.954L129.422 228.011ZM127.431 227.499H128.91L128.967 221.582C128.967 220.672 128.739 219.932 128.341 219.364C127.886 218.852 127.26 218.567 126.464 218.567C125.497 218.567 124.7 219.079 124.188 219.932C124.245 220.16 124.359 220.444 124.359 220.672C124.7 220.103 125.269 219.876 125.781 219.876C126.35 219.876 126.805 220.103 127.09 220.501C127.374 220.9 127.488 221.468 127.488 222.265V227.499H127.431ZM122.425 227.442H123.904L123.961 222.265L123.562 220.046V219.932C123.449 219.705 123.335 219.534 123.221 219.364C122.766 218.852 122.197 218.567 121.401 218.567C120.547 218.567 119.808 219.079 119.353 219.876V220.615C119.694 220.103 120.149 219.819 120.775 219.819C121.344 219.819 121.799 220.046 122.083 220.444C122.368 220.843 122.482 221.412 122.482 222.208V227.385L122.425 227.442ZM117.418 227.385H118.898L118.954 222.322C118.954 221.696 119.068 221.184 119.296 220.786L118.784 220.046V219.932C118.784 219.932 118.898 219.819 118.898 219.762V218.795H117.475L117.362 227.442L117.418 227.385Z" fill="black"/>
<path d="M131.072 218.567H132.949V220.217L132.836 220.103C133.291 218.852 134.201 218.226 135.396 218.226C137.444 218.226 138.866 220.16 138.923 222.948C138.923 225.906 137.444 227.783 135.509 227.84C134.315 227.84 133.461 227.157 133.006 226.247L133.12 226.076V231.026H131.243L131.072 218.453V218.567ZM136.988 223.061C136.988 221.241 136.249 220.103 134.997 220.103C133.803 220.103 133.063 221.355 133.12 223.061V223.175C133.12 224.939 133.916 226.133 135.111 226.133C136.306 226.133 137.045 224.882 136.988 223.061Z" fill="black"/>
<path d="M131.015 231.367L130.788 218.34H133.177V219.079C133.746 218.396 134.485 218.055 135.396 218.055C136.476 218.055 137.444 218.51 138.126 219.477C138.809 220.388 139.15 221.639 139.15 223.061C139.15 224.54 138.809 225.792 138.126 226.759C137.444 227.669 136.533 228.181 135.452 228.181C134.656 228.181 133.916 227.897 133.348 227.328V231.424H130.958L131.015 231.367ZM131.3 218.852L131.47 230.912H132.949L132.892 226.645C132.892 226.588 132.836 226.532 132.779 226.475V226.361L133.348 225.564V226.588C133.689 227.1 134.315 227.783 135.509 227.783C136.42 227.783 137.216 227.328 137.785 226.532C138.411 225.678 138.695 224.484 138.695 223.118C138.695 221.81 138.354 220.672 137.728 219.819C137.159 219.022 136.363 218.624 135.396 218.624C134.372 218.624 133.632 219.136 133.177 220.046V220.9L132.551 220.274V220.103C132.551 220.103 132.665 219.989 132.665 219.932V218.852H131.243H131.3ZM135.054 226.361C134.428 226.361 133.86 226.02 133.461 225.451C133.063 224.882 132.892 224.085 132.892 223.175V223.061C132.892 221.127 133.689 219.876 134.997 219.819C135.68 219.819 136.249 220.103 136.647 220.729C136.988 221.298 137.216 222.094 137.216 223.004C137.216 225.052 136.42 226.304 135.111 226.361H135.054ZM135.054 220.331C134.03 220.331 133.404 221.412 133.404 223.061V223.175C133.404 223.972 133.575 224.711 133.916 225.166C134.144 225.508 134.485 225.906 135.111 225.849C136.135 225.849 136.761 224.768 136.761 223.004C136.761 222.151 136.59 221.468 136.249 220.956C135.964 220.501 135.566 220.274 135.054 220.274V220.331Z" fill="black"/>
<path d="M140.288 214.983H142.279L142.336 217.031H140.345L140.288 214.983ZM140.402 218.396H142.393L142.677 227.499H140.686L140.402 218.396Z" fill="black"/>
<path d="M140.459 227.783L140.174 218.169H142.62L142.905 227.726H140.459V227.783ZM140.629 218.624L140.914 227.271H142.393L142.108 218.567H140.629V218.624ZM140.117 217.372V214.756L142.507 214.699V217.316L140.117 217.372ZM140.515 215.268V216.917H142.108V215.268H140.515Z" fill="black"/>
<path d="M144.042 222.834C143.929 220.046 145.294 217.998 147.74 217.884C149.788 217.771 151.21 219.079 151.495 221.127L149.561 221.241C149.39 220.217 148.707 219.648 147.854 219.705C146.659 219.762 145.977 221.013 146.034 222.777C146.09 224.54 146.887 225.792 148.082 225.735C148.992 225.735 149.674 224.939 149.674 223.687L151.609 223.573C151.609 225.849 150.243 227.442 148.138 227.499C145.749 227.612 144.156 225.735 143.986 222.834H144.042Z" fill="black"/>
<path d="M148.025 227.726C146.887 227.726 145.863 227.271 145.123 226.418C144.327 225.564 143.929 224.313 143.815 222.834C143.701 219.819 145.237 217.714 147.74 217.6C149.902 217.486 151.438 218.795 151.779 221.07V221.355L149.39 221.468V221.241C149.219 220.331 148.651 219.876 147.854 219.932C146.83 219.932 146.204 221.07 146.261 222.777C146.261 223.63 146.489 224.313 146.83 224.825C147.171 225.28 147.57 225.508 148.082 225.508C148.878 225.508 149.447 224.768 149.447 223.687V223.46L151.893 223.346V223.63C151.836 226.076 150.357 227.726 148.195 227.84C148.139 227.84 148.025 227.84 147.968 227.84L148.025 227.726ZM144.327 222.834C144.384 224.199 144.782 225.337 145.522 226.133C146.204 226.93 147.171 227.328 148.252 227.271C150.13 227.157 151.324 225.849 151.495 223.858H150.016C149.902 225.166 149.219 225.963 148.195 226.02C147.513 226.02 146.944 225.735 146.489 225.109C146.091 224.54 145.863 223.744 145.863 222.834C145.749 220.843 146.546 219.534 147.911 219.477C148.878 219.477 149.618 219.989 149.845 221.013H151.324C150.926 219.136 149.618 218.112 147.854 218.169C145.635 218.283 144.27 220.103 144.384 222.891L144.327 222.834Z" fill="black"/>
<path d="M156.217 220.558C155.876 216.633 157.81 213.902 161.166 213.618C163.84 213.39 165.774 214.812 166.571 217.543L164.58 217.714C163.954 216.064 162.816 215.324 161.337 215.438C159.061 215.609 158.094 217.771 158.322 220.388C158.549 223.175 160.029 224.996 162.077 224.825C163.783 224.711 164.807 223.232 164.921 221.412L166.912 221.241C166.685 224.37 165.035 226.418 162.19 226.645C158.891 226.93 156.558 224.54 156.274 220.615L156.217 220.558Z" fill="black"/>
<path d="M161.678 226.873C160.199 226.873 158.891 226.361 157.924 225.337C156.843 224.199 156.16 222.549 155.989 220.558C155.648 216.462 157.696 213.675 161.166 213.39C163.897 213.163 166.002 214.642 166.855 217.486L166.969 217.771L164.466 217.941V217.771C163.84 216.292 162.816 215.552 161.394 215.666C159.061 215.836 158.436 218.169 158.606 220.331C158.72 221.639 159.118 222.777 159.744 223.516C160.37 224.256 161.166 224.597 162.076 224.54C163.556 224.427 164.58 223.175 164.693 221.355V221.127L167.196 220.9V221.184C166.969 224.54 165.148 226.588 162.19 226.816C162.02 226.816 161.849 226.816 161.678 226.816V226.873ZM156.444 220.501C156.615 222.379 157.184 223.915 158.208 224.939C159.232 225.963 160.54 226.418 162.076 226.304C164.636 226.076 166.286 224.313 166.571 221.412L165.035 221.525C164.807 223.516 163.669 224.825 161.963 224.939C160.882 224.996 159.915 224.597 159.175 223.744C158.492 222.891 158.037 221.696 157.924 220.274C157.696 217.259 158.948 215.268 161.166 215.097C162.759 214.983 163.954 215.78 164.58 217.372L166.116 217.259C165.262 214.812 163.499 213.618 161.052 213.788C157.81 214.016 156.046 216.576 156.331 220.444L156.444 220.501Z" fill="black"/>
<path d="M168.05 223.516C167.879 221.81 168.96 220.956 170.837 220.388C172.089 219.989 172.885 219.819 172.772 218.908C172.715 218.169 172.146 217.828 171.292 217.884C170.382 217.998 169.813 218.51 169.87 219.42L167.936 219.591C167.765 217.657 169.131 216.292 171.122 216.064C172.942 215.893 174.478 216.747 174.706 218.624L175.161 222.777C175.161 223.175 175.332 223.403 175.787 223.403C175.9 223.403 176.071 223.403 176.185 223.289L176.356 224.882C176.356 224.882 175.9 225.109 175.502 225.166C174.421 225.28 173.852 224.654 173.568 223.744H173.739C173.284 224.825 172.316 225.621 171.008 225.735C169.472 225.906 168.277 225.109 168.107 223.46L168.05 223.516ZM173.113 222.606L172.942 220.786C172.601 221.241 172.203 221.468 171.292 221.753C170.382 222.094 169.927 222.436 169.984 223.175C170.041 223.858 170.496 224.085 171.179 224.028C172.089 223.915 172.828 223.346 173.113 222.606Z" fill="black"/>
<path d="M170.553 226.076C169.017 226.076 167.936 225.109 167.765 223.516C167.538 221.355 169.244 220.558 170.724 220.103H170.951C172.146 219.648 172.544 219.534 172.487 218.852C172.43 218.055 171.691 217.998 171.292 218.055C170.837 218.055 169.984 218.34 170.098 219.307V219.534L167.708 219.762V219.534C167.538 217.486 168.903 216.007 171.122 215.78C173.284 215.552 174.763 216.633 174.99 218.567L175.445 222.72C175.445 223.118 175.559 223.118 175.787 223.118C175.9 223.118 176.014 223.118 176.071 223.061L176.412 222.891L176.64 224.996H176.526C176.526 224.996 175.957 225.337 175.559 225.394C174.706 225.451 174.08 225.166 173.682 224.484C173.113 225.337 172.203 225.849 171.122 225.963C171.008 225.963 170.837 225.963 170.724 225.963L170.553 226.076ZM171.52 217.657C172.373 217.657 172.942 218.112 172.999 218.908C173.113 219.989 172.26 220.217 171.122 220.615H170.894C168.903 221.298 168.164 222.151 168.277 223.573C168.448 224.996 169.415 225.792 170.894 225.621C171.975 225.508 172.772 224.939 173.284 224.085C173.284 224.085 173.284 223.972 173.284 223.915V223.573L174.023 223.687L173.909 223.972C173.909 223.972 173.909 224.085 173.852 224.085C174.08 224.597 174.478 225.109 175.388 225.052C175.673 225.052 175.9 224.939 176.014 224.882L175.9 223.744C175.9 223.744 175.787 223.744 175.73 223.744C174.933 223.801 174.876 223.118 174.876 222.891L174.421 218.738C174.194 216.804 172.601 216.235 171.122 216.405C169.244 216.576 168.107 217.771 168.107 219.364L169.529 219.193C169.529 218.34 170.212 217.714 171.179 217.657C171.292 217.657 171.349 217.657 171.463 217.657H171.52ZM170.951 224.313C170.212 224.313 169.813 223.915 169.7 223.232C169.586 222.208 170.382 221.867 171.179 221.582C172.089 221.241 172.43 221.07 172.715 220.672L173.113 220.217L173.397 222.72C173.056 223.687 172.203 224.256 171.236 224.37C171.179 224.37 171.065 224.37 171.008 224.37L170.951 224.313ZM172.715 221.298C172.373 221.582 171.975 221.753 171.349 221.98C170.439 222.322 170.155 222.606 170.212 223.118C170.212 223.46 170.382 223.858 171.122 223.744C171.918 223.687 172.544 223.175 172.828 222.492L172.715 221.241V221.298Z" fill="black"/>
<path d="M184.491 224.028L182.556 224.256L181.874 218.852C181.703 217.372 181.077 216.747 180.167 216.917C179.2 217.031 178.688 217.941 178.915 219.364L179.598 224.654L177.664 224.882L176.469 215.78L178.347 215.552L178.574 217.202L178.46 217.088C178.802 215.95 179.598 215.154 180.622 215.04C182.272 214.812 183.523 215.78 183.865 218.169L184.604 223.972L184.491 224.028ZM185.458 214.414C187.221 214.187 188.416 215.324 188.643 217.259L189.44 223.346L187.506 223.573L186.823 218.112C186.652 216.69 186.083 216.064 185.116 216.178C184.263 216.292 183.694 217.031 183.808 218.51L183.125 216.405C183.467 215.268 184.377 214.471 185.515 214.357L185.458 214.414Z" fill="black"/>
<path d="M177.323 225.166L176.071 215.609L178.46 215.324L178.574 216.064C179.029 215.381 179.712 214.926 180.451 214.812C181.362 214.699 182.158 214.926 182.784 215.495C182.898 215.609 183.011 215.723 183.125 215.836C183.58 214.926 184.434 214.3 185.458 214.187C186.368 214.073 187.221 214.3 187.847 214.869C188.416 215.438 188.814 216.235 188.928 217.259L189.724 223.63L187.278 223.972L186.539 218.283C186.482 217.657 186.311 217.145 186.027 216.86C185.799 216.633 185.458 216.519 185.059 216.576C184.263 216.69 183.865 217.429 183.979 218.624L184.718 224.313L182.272 224.654L181.532 219.022C181.419 218.34 181.248 217.884 181.02 217.6C180.793 217.316 180.508 217.259 180.11 217.316C179.712 217.316 179.427 217.6 179.257 217.941C179.029 218.34 178.972 218.852 179.086 219.534L179.826 225.052L177.379 225.394L177.323 225.166ZM176.64 216.064L177.721 224.654L179.2 224.484L178.574 219.42C178.517 218.795 178.574 218.283 178.688 217.828L178.062 217.145V217.031C178.062 217.031 178.119 216.917 178.176 216.86L178.062 215.893L176.64 216.064ZM180.338 216.633C180.793 216.633 181.134 216.804 181.419 217.088C181.76 217.429 181.931 217.998 182.044 218.795L182.727 223.972L184.206 223.801L183.523 218.624L182.841 216.462V216.348C182.727 216.121 182.556 215.95 182.386 215.836C181.874 215.381 181.248 215.211 180.451 215.324C179.598 215.438 178.915 216.007 178.574 216.917L178.688 217.657C178.688 217.657 178.688 217.6 178.688 217.543C178.972 217.031 179.371 216.747 179.939 216.69C180.053 216.69 180.11 216.69 180.224 216.69L180.338 216.633ZM185.287 216.007C185.742 216.007 186.083 216.178 186.368 216.462C186.709 216.804 186.88 217.372 186.994 218.112L187.676 223.289L189.155 223.118L188.416 217.259C188.302 216.348 187.961 215.666 187.449 215.154C186.937 214.699 186.254 214.528 185.458 214.585C184.491 214.699 183.751 215.324 183.41 216.235C183.523 216.462 183.637 216.69 183.694 216.974C183.979 216.348 184.491 216.007 185.003 215.95C185.116 215.95 185.173 215.95 185.287 215.95V216.007Z" fill="black"/>
<path d="M192.967 221.184H193.138L193.365 222.777L191.488 223.061L189.554 210.603L191.488 210.318L192.227 215.268L192.057 215.154C192.398 214.016 193.195 213.333 194.275 213.163C196.38 212.821 198.03 214.642 198.428 217.429C198.883 220.331 197.689 222.379 195.755 222.663C194.56 222.834 193.479 222.322 192.853 221.184H192.967ZM196.551 217.657C196.267 215.893 195.413 214.756 194.219 214.926C193.024 215.097 192.512 216.462 192.739 218.112V218.226C193.024 219.989 193.934 221.07 195.129 220.9C196.323 220.729 196.835 219.364 196.551 217.6V217.657Z" fill="black"/>
<path d="M191.317 223.346L189.326 210.375L191.772 209.977L192.398 214.073C192.853 213.39 193.536 212.992 194.389 212.878C195.47 212.708 196.494 213.106 197.291 213.902C198.087 214.699 198.599 215.893 198.827 217.316C199.282 220.217 198.087 222.492 195.925 222.834C195.072 222.948 194.219 222.72 193.593 222.208L193.707 222.948L191.317 223.289V223.346ZM189.838 210.773L191.716 222.777L193.081 222.549L192.91 221.582C192.91 221.582 192.74 221.355 192.683 221.241L192.512 220.956L193.308 220.843L193.422 221.412C194.048 222.151 194.901 222.549 195.812 222.379C197.689 222.094 198.656 220.046 198.258 217.429C198.03 216.121 197.575 214.983 196.836 214.3C196.153 213.561 195.3 213.276 194.332 213.39C193.422 213.504 192.739 214.073 192.398 214.926L192.512 215.836L191.772 215.268V215.097C191.772 215.097 191.886 214.926 191.886 214.869L191.204 210.603L189.724 210.83L189.838 210.773ZM194.901 221.241C194.332 221.241 193.82 221.013 193.422 220.501C192.967 219.989 192.683 219.25 192.512 218.34V218.226C192.228 216.348 192.853 214.926 194.162 214.756C194.844 214.642 195.413 214.869 195.925 215.438C196.38 215.95 196.665 216.747 196.836 217.657C197.12 219.648 196.494 221.07 195.186 221.241C195.072 221.241 195.015 221.241 194.901 221.241ZM194.446 215.154C194.446 215.154 194.275 215.154 194.219 215.154C193.251 215.324 192.74 216.462 192.967 218.055V218.169C193.138 218.965 193.365 219.648 193.763 220.103C194.048 220.388 194.446 220.729 195.072 220.672C196.267 220.501 196.494 218.965 196.267 217.657C196.153 216.804 195.868 216.121 195.47 215.666C195.186 215.324 194.788 215.097 194.389 215.097L194.446 215.154Z" fill="black"/>
<path d="M199.282 212.537L201.159 212.196L201.444 213.902V213.788C201.557 212.537 202.24 211.797 203.207 211.627C203.492 211.627 203.776 211.57 203.947 211.627L204.288 213.561C204.288 213.561 203.776 213.561 203.492 213.561C202.183 213.788 201.671 214.756 201.899 216.064L202.809 221.241L200.875 221.582L199.339 212.537H199.282Z" fill="black"/>
<path d="M200.647 221.867L198.997 212.366L201.33 211.968L201.444 212.708C201.899 211.854 202.581 211.57 203.15 211.456C203.378 211.456 203.719 211.399 204.004 211.456H204.174L204.572 213.902H204.288C204.288 213.902 203.833 213.902 203.548 213.902C202.98 214.016 202.581 214.244 202.354 214.642C202.126 215.04 202.069 215.552 202.126 216.121L203.036 221.525L200.59 221.924L200.647 221.867ZM199.566 212.764L201.045 221.298L202.524 221.07L201.671 216.121C201.557 215.552 201.614 215.097 201.785 214.642L201.159 213.902V213.788V213.675L200.988 212.537L199.623 212.764H199.566ZM201.671 213.675L201.842 214.528C201.842 214.528 201.899 214.357 201.956 214.3C202.297 213.788 202.809 213.447 203.492 213.333C203.662 213.333 203.833 213.333 204.004 213.333L203.776 211.911C203.776 211.911 203.435 211.911 203.264 211.911C202.411 212.082 201.899 212.651 201.671 213.675Z" fill="black"/>
<path d="M205.881 218.34C205.539 216.633 206.563 215.723 208.384 214.983C209.635 214.471 210.375 214.244 210.204 213.333C210.09 212.594 209.465 212.309 208.668 212.48C207.758 212.651 207.246 213.22 207.36 214.13L205.482 214.471C205.141 212.537 206.393 211.115 208.384 210.716C210.204 210.375 211.797 211.115 212.138 212.992L212.935 217.088C212.992 217.486 213.162 217.714 213.561 217.657C213.674 217.657 213.845 217.6 213.959 217.543L214.243 219.136C214.243 219.136 213.788 219.42 213.39 219.477C212.366 219.648 211.683 219.136 211.399 218.226H211.57C211.228 219.364 210.318 220.217 209.01 220.444C207.53 220.729 206.222 220.046 205.938 218.396L205.881 218.34ZM210.83 216.974L210.489 215.154C210.147 215.666 209.806 215.893 208.953 216.292C208.042 216.69 207.644 217.088 207.758 217.828C207.872 218.51 208.384 218.738 209.01 218.567C209.92 218.396 210.602 217.771 210.83 216.974Z" fill="black"/>
<path d="M208.327 220.672C206.962 220.672 205.938 219.819 205.653 218.34C205.255 216.235 206.848 215.268 208.327 214.699L208.555 214.585C209.692 214.13 210.091 213.959 209.977 213.276C209.977 212.992 209.806 212.764 209.579 212.651C209.351 212.537 209.067 212.48 208.725 212.594C208.27 212.708 207.474 212.992 207.644 213.959V214.187L205.312 214.642V214.414C204.914 212.423 206.165 210.773 208.384 210.375C210.489 209.977 212.082 210.944 212.423 212.821L213.219 216.917C213.219 216.917 213.276 217.202 213.333 217.259C213.333 217.259 213.39 217.316 213.561 217.259C213.675 217.259 213.788 217.202 213.845 217.145L214.13 216.974L214.528 219.079L214.414 219.193C214.414 219.193 213.845 219.477 213.447 219.591C212.594 219.762 211.911 219.477 211.513 218.852C211.001 219.705 210.147 220.331 209.067 220.558C208.839 220.558 208.611 220.615 208.384 220.615L208.327 220.672ZM209.01 212.196C209.294 212.196 209.579 212.252 209.749 212.366C210.091 212.537 210.318 212.878 210.375 213.333C210.546 214.414 209.749 214.699 208.611 215.154L208.384 215.268C206.45 216.007 205.767 216.917 206.051 218.34C206.336 219.762 207.417 220.444 208.839 220.16C209.863 219.989 210.659 219.364 211.058 218.396C211.058 218.396 211.058 218.283 211.058 218.226L210.944 217.884H211.797L211.683 218.226C211.683 218.226 211.683 218.34 211.683 218.396C211.911 218.908 212.423 219.364 213.276 219.193C213.561 219.193 213.731 219.079 213.902 218.965L213.675 217.828C213.675 217.828 213.561 217.828 213.504 217.828C213.219 217.828 212.992 217.828 212.821 217.657C212.651 217.486 212.594 217.259 212.537 217.088L211.74 212.992C211.399 211.058 209.692 210.66 208.27 210.944C206.45 211.285 205.369 212.537 205.539 214.187L206.962 213.902C206.962 213.049 207.474 212.366 208.498 212.196C208.668 212.196 208.782 212.196 208.953 212.196H209.01ZM208.725 218.852C208.725 218.852 208.27 218.852 208.099 218.681C207.815 218.51 207.644 218.226 207.531 217.828C207.36 216.86 208.099 216.405 208.839 216.064C209.749 215.666 210.034 215.438 210.318 215.04L210.659 214.528L211.115 216.974C210.83 217.941 210.091 218.624 209.123 218.795C209.01 218.795 208.839 218.795 208.725 218.795V218.852ZM210.375 215.723C210.091 216.007 209.692 216.235 209.067 216.519C208.156 216.917 207.929 217.259 208.043 217.771C208.043 217.998 208.213 218.169 208.327 218.283C208.498 218.396 208.725 218.396 209.01 218.283C209.749 218.112 210.375 217.6 210.603 216.917L210.375 215.666V215.723Z" fill="black"/>
<path d="M213.049 206.564L215.04 206.165L215.438 208.27L213.447 208.668L213.049 206.564ZM213.731 209.92L215.666 209.522L217.486 218.51L215.552 218.908L213.731 209.92Z" fill="black"/>
<path d="M215.324 219.193L213.39 209.749L215.836 209.237L217.771 218.681L215.324 219.193ZM214.016 210.091L215.723 218.567L217.202 218.283L215.495 209.806L214.016 210.091ZM213.276 208.953L212.764 206.393L215.211 205.881L215.723 208.441L213.276 208.953ZM213.333 206.791L213.675 208.384L215.154 208.1L214.812 206.507L213.333 206.791Z" fill="black"/>
<defs>
<linearGradient id="paint0_linear_425_25582" x1="33.9059" y1="217.259" x2="225.906" y2="217.259" gradientUnits="userSpaceOnUse">
<stop stop-color="#FFE402"/>
<stop offset="1" stop-color="#F7CA00"/>
</linearGradient>
</defs>
</svg>
