<svg width="256" height="256" viewBox="0 0 256 256" fill="none" xmlns="http://www.w3.org/2000/svg">
<path d="M137.242 239.878C135.403 244.019 133.716 247.7 132.183 251.381C131.723 252.608 131.11 253.068 129.73 253.068C128.35 253.068 127.736 252.608 127.123 251.381C125.59 247.853 123.903 244.326 122.217 240.492C121.91 244.939 121.757 249.08 121.45 253.221H117.157C117.464 247.7 117.924 242.179 118.384 236.198C120.224 236.198 122.064 236.198 123.903 236.198C124.21 236.198 124.67 236.965 124.977 237.425C126.663 240.952 128.35 244.479 130.036 248.007C131.57 244.479 133.103 241.105 134.483 237.578C135.096 236.198 135.863 235.584 137.396 235.738C138.622 235.738 139.849 235.738 141.229 235.738C141.842 241.412 142.455 246.933 143.069 252.761H138.622C138.316 248.62 137.856 244.479 137.549 239.725" fill="#2C2927"/>
<path d="M62.1148 204.758C61.3482 203.378 60.7349 202.304 59.9683 201.078C64.8746 198.164 69.7809 195.403 74.6872 192.643C76.6804 195.096 77.7536 197.243 76.2204 200.464C74.5339 203.991 73.3073 207.826 71.9274 211.506C75.3005 209.513 78.6736 207.519 82.2 205.525C82.9666 206.752 83.5799 207.979 84.3465 209.206C79.4402 212.12 74.5339 214.88 69.6276 217.641C67.481 215.34 66.8678 213.193 68.2477 210.126C69.9342 206.445 71.1608 202.611 72.8473 198.47C69.1676 200.617 65.6412 202.611 61.9614 204.758" fill="#2C2927"/>
<path d="M170.514 238.191C166.527 234.204 162.694 230.217 158.554 226.076C161.621 222.548 164.687 218.714 169.134 216.414C173.733 213.96 178.333 215.494 180.173 219.941C181.246 222.395 180.939 225.002 179.713 227.303C177.566 231.75 173.887 234.971 170.36 238.191M172.2 233.591C173.887 231.137 175.573 228.99 176.646 226.689C177.566 224.695 176.953 222.702 175.42 221.015C174.04 219.481 172.353 218.714 170.207 219.328C167.14 220.248 165.147 222.395 163.461 224.542C166.221 227.456 168.98 230.217 172.047 233.591" fill="#2C2927"/>
<path d="M190.599 173.319C191.519 169.485 192.132 165.957 193.205 162.43C193.665 160.743 194.738 159.056 195.812 157.522C199.491 152.921 206.084 153.842 208.537 159.209C210.224 162.737 209.764 166.264 209.151 169.945C208.691 172.245 208.077 174.546 207.464 176.846C201.791 175.619 196.425 174.546 190.599 173.165M205.931 171.938C206.544 169.178 207.464 166.571 206.544 163.657C205.778 161.356 204.244 159.976 201.791 159.516C199.338 159.209 197.345 159.976 196.425 162.123C195.352 164.27 194.738 166.724 193.818 169.178C198.111 170.098 201.944 170.865 205.931 171.785" fill="#2C2927"/>
<path d="M103.665 16.4283C104.432 16.4283 105.045 16.4283 105.658 16.4283C108.878 16.4283 110.411 19.1888 109.031 22.1027C108.571 22.8695 108.111 23.6363 107.498 24.2498C105.505 26.2435 99.8319 29.4641 96.6122 30.3843C94.159 25.4767 91.5525 20.7224 88.7927 15.3547C92.3191 13.6677 95.5389 11.9807 98.7587 10.6005C100.599 9.83364 102.898 9.52692 104.432 11.3673C105.965 13.2076 104.738 14.7413 103.665 16.5816M96.9188 21.4892C97.8387 23.3296 98.6053 24.7099 99.6786 26.5502C101.365 25.4767 102.898 24.5565 104.278 23.3296C104.892 22.8695 105.198 21.4892 104.892 20.8758C104.432 20.2623 103.205 19.4955 102.438 19.6489C100.599 19.9556 98.912 20.8758 97.0721 21.4892M95.9989 19.4955C97.5321 18.422 98.912 17.8085 99.9852 16.735C100.599 16.2749 100.905 14.8946 100.599 14.2812C100.292 13.6677 98.912 13.2076 98.1454 13.361C96.6122 13.6677 95.2323 14.5879 93.699 15.2014C94.4656 16.735 95.0789 17.9619 95.9989 19.3422" fill="#2C2927"/>
<path d="M205.931 77.9269V78.2336C205.931 80.3807 205.777 82.5278 203.324 83.448C201.484 84.0614 199.491 82.9879 197.805 80.8408C195.352 77.4668 194.125 73.6328 193.052 69.4919C198.265 67.4982 203.478 65.5045 208.691 63.3574C210.53 67.1915 212.37 70.7188 212.83 74.7063C212.83 76.5466 212.984 78.387 210.99 79.3072C208.997 80.2274 207.617 79.1538 206.084 77.7736M201.944 71.0256C199.951 71.7924 198.418 72.4058 196.425 73.1727C197.498 75.013 198.418 76.8534 199.645 78.387C199.951 78.8471 201.331 79.1538 201.791 78.8471C202.404 78.5404 203.171 77.4668 203.171 76.8534C203.018 75.013 202.558 73.0193 202.098 70.8722M203.784 70.2588C204.704 71.9458 205.318 73.4794 206.391 74.7063C206.851 75.1664 208.077 75.6265 208.691 75.3197C209.151 75.3197 209.764 73.9395 209.611 73.326C209.304 71.639 208.844 70.1054 208.384 68.4184C206.697 69.0319 205.471 69.4919 203.938 70.2588" fill="#2C2927"/>
<path d="M93.6991 31.4579C90.326 36.3655 87.1063 40.353 81.8933 42.3467C78.8269 43.4202 76.0671 42.9601 73.7672 40.8131C71.4674 38.666 71.0074 35.7521 71.9274 32.8382C73.4606 27.4705 77.447 23.9431 82.0466 20.8759C82.3533 21.3359 82.5066 21.796 82.8132 22.1028C82.9666 22.5628 83.1199 22.8696 83.2732 23.1763C81.4333 24.7099 79.7468 26.2436 78.0603 27.7772C77.1403 28.6974 76.3737 30.0776 75.9137 31.3045C74.9938 33.4516 75.4538 35.292 76.987 36.979C78.6735 38.666 80.6667 39.1261 82.8132 38.3593C85.4197 37.4391 87.4129 35.5987 89.0994 33.1449C88.0262 32.3781 87.1063 31.7646 86.033 30.9978C86.033 30.8445 86.1863 30.5377 86.3396 30.3844C85.4197 31.3045 84.3465 32.0714 83.2732 33.1449C82.8132 32.5315 82.3533 31.918 81.8933 31.3045C83.7332 29.4642 85.7264 27.4705 87.4129 25.7835C89.5594 27.4705 91.7059 29.3108 94.0057 31.3045" fill="#2C2927"/>
<path d="M57.6684 67.9583C59.5082 67.0381 62.5747 66.6802 66.8677 66.8847C66.4077 68.1116 66.1011 69.3385 65.4878 70.4121C65.3345 70.8722 64.5679 71.0255 64.1079 71.1789C63.4946 71.1789 62.8813 71.1789 62.268 71.1789C58.1283 70.4121 57.0551 72.2524 55.9818 75.7798C57.0551 76.2399 57.975 76.7 59.0483 77.0067C60.1215 77.4668 61.0415 77.7735 62.268 78.387C61.8081 79.7672 61.1948 81.1475 60.5815 82.5278C55.2152 80.3807 50.1556 78.387 44.636 76.0865C46.0159 72.7125 47.2425 69.3385 48.929 66.1179C50.3089 63.204 52.4554 62.2838 54.6019 62.7439C57.3617 63.3574 57.515 65.6578 57.6684 67.8049M53.682 75.013C54.142 73.1726 54.7552 71.4856 54.9086 69.7986C54.9086 69.0318 54.142 67.6515 53.3753 67.3448C52.7621 67.0381 51.3822 67.6515 50.9222 68.4184C50.0023 69.7986 49.389 71.3323 48.6224 73.0193C50.4622 73.7861 51.8421 74.3995 53.8353 75.1663" fill="#2C2927"/>
<path d="M199.951 197.55C194.585 195.556 189.525 193.563 184.312 191.569C185.386 187.735 186.459 184.054 188.452 180.68C189.985 178.226 191.825 177.306 193.818 177.92C196.272 178.533 196.578 180.527 196.732 182.981C199.645 180.834 202.711 181.907 206.084 181.6C205.624 182.981 205.318 184.208 204.704 185.128C204.398 185.588 203.631 185.895 203.018 186.048C202.251 186.048 201.331 186.048 200.565 186.048C197.498 186.048 196.425 186.815 195.352 190.802C197.498 191.569 199.491 192.489 201.791 193.409C201.178 194.79 200.718 196.17 200.105 197.55M187.686 188.042C189.679 188.808 191.059 189.269 193.052 190.035C193.512 188.042 194.125 186.355 194.125 184.668C194.125 183.901 193.359 182.827 192.592 182.521C191.979 182.214 190.599 182.674 190.139 183.287C189.219 184.668 188.606 186.201 187.686 188.042Z" fill="#2C2927"/>
<path d="M195.965 40.813C196.885 42.1933 197.498 43.4202 198.418 44.6471C195.505 46.3341 192.745 48.0211 189.985 49.8614C187.072 51.7018 186.612 53.8489 188.452 56.6094C190.139 59.2166 192.132 59.83 194.738 58.2964C197.651 56.6094 200.411 54.9224 203.324 53.082C204.091 54.4623 204.858 55.6892 205.778 57.0695C202.558 58.9098 199.645 60.9036 196.425 62.5906C193.818 63.9708 191.212 63.5107 188.912 61.6704C186.459 59.6767 184.926 57.0695 184.159 54.0022C183.392 50.7816 184.159 48.3278 186.919 46.4874C189.832 44.6471 192.745 42.8067 195.965 40.9664" fill="#2C2927"/>
<path d="M60.888 43.7269C61.808 42.3467 62.4213 41.2731 63.3412 39.7395C66.7143 42.0399 70.2407 44.0337 73.3071 46.4875C75.607 48.3278 75.7603 51.2417 74.5337 53.8489C73.4604 56.1494 72.2339 58.2964 70.5473 60.1368C68.2475 62.744 65.181 63.0507 62.2679 61.3637C59.3548 59.6767 56.4417 57.683 53.2219 55.8426C53.9885 54.6157 54.7551 53.3888 55.6751 52.0086C58.5882 53.8489 61.348 55.5359 64.2611 57.2229C66.8676 58.7565 69.1674 58.2964 70.854 55.6893C72.5405 52.9287 72.0805 50.7816 69.3207 48.9413C66.5609 47.2543 63.8011 45.5673 60.888 43.7269Z" fill="#2C2927"/>
<path d="M54.2952 186.968C54.2952 186.968 53.9886 186.201 53.9886 186.048C52.9153 182.367 52.762 182.367 55.8285 179.913C56.7484 179.147 57.2084 178.38 56.5951 177.306C56.4417 176.846 56.2884 176.386 56.2884 176.079C55.9818 172.859 54.6019 170.865 51.0755 171.172C50.6155 171.172 50.0022 170.558 49.6956 169.945C49.2356 169.025 49.0823 167.951 48.7756 166.571C50.7688 166.878 52.4554 167.031 54.2952 167.338C58.1283 167.951 62.1147 168.565 65.9477 169.178C67.1743 169.331 67.3276 169.945 67.7876 170.865C69.1675 173.932 68.2475 175.773 65.6411 177.613C61.808 180.527 58.2816 183.747 54.4486 186.968M59.2015 177.46C61.1947 175.773 62.8813 174.392 64.8745 172.859C62.4213 172.552 60.2748 172.245 57.8216 171.939C58.2816 173.779 58.7416 175.619 59.3549 177.46" fill="#2C2927"/>
<path d="M197.958 202.151C197.191 203.531 196.732 204.912 195.812 205.678C195.198 206.138 193.818 206.292 193.052 205.985C190.905 205.372 189.679 205.985 188.912 207.979C188.299 209.359 187.379 210.586 186.612 211.966C187.686 213.347 188.605 214.88 189.679 216.26C188.912 217.641 188.145 218.868 187.226 220.248C184.619 216.414 182.013 212.733 179.406 209.052C179.099 208.592 178.793 207.979 178.333 207.519C176.493 205.678 176.646 203.991 178.026 201.844C179.099 200.311 180.019 199.851 181.859 200.157C187.072 200.924 192.438 201.384 198.111 201.998M180.326 204.145C181.859 206.292 183.239 208.132 184.772 209.973C185.846 208.286 186.612 206.752 187.686 205.065C185.232 204.758 183.086 204.451 180.479 204.145" fill="#2C2927"/>
<path d="M143.835 234.051C147.975 231.903 152.115 229.756 156.255 227.609C156.715 228.376 157.174 229.143 157.634 229.91C154.875 231.443 152.115 232.824 149.202 234.357C149.815 235.584 150.428 236.658 151.042 238.038C153.648 236.658 156.255 235.431 159.014 233.897C159.474 234.664 159.781 235.277 160.394 236.198C157.788 237.578 155.181 238.958 152.421 240.338C153.188 241.719 153.801 243.099 154.568 244.479C157.481 242.946 160.394 241.412 163.461 239.878C163.921 240.645 164.227 241.412 164.687 242.332C160.394 244.633 156.255 246.78 151.808 249.08C149.202 244.019 146.595 238.958 143.835 233.897" fill="#2C2927"/>
<path d="M46.6292 147.554C47.7024 147.86 48.6223 148.014 49.0823 148.167C49.0823 150.621 49.2356 152.768 49.3889 154.915C49.3889 155.529 49.6956 156.295 50.1556 156.909C50.4622 157.369 51.2288 157.982 51.8421 157.982C52.4554 157.982 53.222 157.216 53.3753 156.756C53.8353 155.069 54.1419 153.382 54.4486 151.695C54.6019 150.774 54.9085 149.701 55.3685 148.781C56.5951 146.02 59.5082 145.56 61.6547 147.861C64.1079 150.621 64.5678 153.995 64.5678 157.522C64.5678 158.289 64.5678 159.209 64.4145 160.283C63.4946 159.976 62.5747 159.823 61.9614 159.669C61.9614 157.676 61.808 155.835 61.5014 153.842C61.5014 153.228 61.1948 152.615 60.8881 152.155C59.9682 150.774 58.5883 150.774 58.1283 152.461C57.6683 153.995 57.515 155.529 57.2084 157.062C57.0551 157.982 56.9017 158.749 56.5951 159.669C55.9818 161.203 55.2152 162.583 53.3753 162.737C51.5355 163.043 50.1556 162.277 49.0823 160.743C46.4758 156.756 46.3225 152.461 46.9358 147.707" fill="#2C2927"/>
<path d="M170.207 33.7583C170.207 33.7583 169.747 34.8319 169.44 35.9054C164.38 33.605 159.934 31.1511 157.788 25.9368C155.641 20.4157 160.087 14.8947 166.067 15.5081C171.28 15.9682 175.266 18.7287 178.793 22.5628C177.873 23.1763 177.259 23.6364 176.953 23.9431C174.346 22.2561 172.2 20.5691 169.593 19.4956C165.914 17.9619 162.081 20.109 161.774 23.9431C161.774 25.4767 162.234 27.4704 163.307 28.3906C165.3 30.3843 167.754 31.918 170.207 33.9117" fill="#2C2927"/>
<path d="M119.304 11.674C120.377 9.37359 121.297 7.37987 122.064 5.23278C122.524 3.69915 123.597 3.0857 124.977 3.0857C125.897 3.0857 126.663 2.77897 128.043 2.62561C126.663 5.07942 125.743 7.37987 124.21 9.22022C121.757 12.2875 121.604 15.6615 122.524 19.1888C122.524 19.6489 122.677 20.109 122.83 20.7225C121.297 21.0292 119.917 21.1825 118.384 21.4893C118.077 19.8023 117.617 18.2686 117.464 16.735C117.464 15.048 116.544 13.9745 115.317 12.9009C112.864 10.7539 110.564 8.45341 107.958 5.9996C109.645 5.69287 111.178 5.38615 112.558 5.23278C113.018 5.23278 113.478 5.69287 113.938 6.15296C115.624 7.99332 117.311 9.83368 119.151 11.8274" fill="#2C2927"/>
<path d="M90.6327 220.555C87.1063 223.775 83.5799 226.996 80.0535 230.063C78.9802 228.99 78.0603 227.916 76.9871 226.689C80.5135 223.469 84.0399 220.248 87.5663 217.027C86.0331 215.34 84.6532 213.807 83.1199 211.966C83.7332 211.353 84.3465 210.739 85.1131 210.126C89.2528 214.727 93.2392 219.174 97.3789 223.622C96.7656 224.235 96.1523 224.849 95.3857 225.462C93.8525 223.775 92.3193 222.242 90.7861 220.401" fill="#2C2927"/>
<path d="M183.699 26.7036C184.772 27.9305 185.692 29.0041 186.766 30.0776C183.239 33.2982 179.713 36.5189 176.186 39.7395C178.333 42.1933 180.479 44.4937 182.626 46.9475C182.013 47.561 181.399 48.1744 180.633 48.9413C177.413 45.2605 174.193 41.8866 170.973 38.2058C175.266 34.3718 179.406 30.5377 183.699 26.7036Z" fill="#2C2927"/>
<path d="M55.9819 190.956C61.3482 188.808 66.5612 186.661 71.9274 184.514C72.5407 185.895 73.0007 187.275 73.614 188.808C68.2477 190.956 63.1881 193.103 57.6685 195.25C57.0552 193.869 56.5952 192.489 55.9819 190.956Z" fill="#2C2927"/>
<path d="M106.271 240.032C106.271 240.032 105.505 241.259 105.045 242.025C102.438 240.492 99.8318 239.112 97.072 237.425C97.3787 236.811 97.8386 236.198 98.2986 235.431C101.058 236.964 103.512 238.498 106.271 240.032Z" fill="#2C2927"/>
<path d="M138.776 15.5081C138.776 14.7413 139.082 14.1278 139.236 13.2076C142.302 13.9745 145.062 14.5879 148.282 15.3547C148.128 16.1215 147.975 16.735 147.668 17.6552C144.755 16.8884 141.995 16.2749 138.776 15.5081Z" fill="#2C2927"/>
<path d="M211.91 108.6C211.144 108.753 210.531 108.906 209.611 109.06C209.151 105.992 208.537 103.078 208.077 99.8579C208.844 99.8579 209.457 99.7045 210.377 99.5511C210.837 102.465 211.45 105.379 211.91 108.6Z" fill="#2C2927"/>
<path d="M50.1555 90.656C50.9222 90.8094 51.5354 90.9627 52.4554 91.1161C51.8421 94.1834 51.0755 97.0973 50.4622 100.165C49.6956 100.011 49.0823 99.8578 48.1624 99.5511C48.7756 96.6372 49.3889 93.7233 50.1555 90.656Z" fill="#2C2927"/>
<path d="M127.43 173.932C125.897 174.392 125.59 173.319 126.203 172.399C126.817 171.478 127.89 170.712 128.81 170.098C129.73 169.485 130.803 169.331 131.723 169.025C131.11 167.184 130.496 165.344 129.883 163.657C129.73 163.197 128.963 162.737 128.35 162.737C123.597 161.663 120.07 158.749 117.311 154.762C116.237 153.382 115.164 152.001 113.784 151.081C110.105 148.627 107.191 145.867 105.965 141.573C105.658 140.346 105.045 140.346 103.972 140.652C101.365 141.266 98.7587 141.573 96.1522 141.879C95.8456 141.879 95.3856 141.879 95.0789 142.186C90.6326 144.487 86.3396 146.787 81.7399 149.241C82.0466 150.008 82.3532 150.774 82.8132 151.695C83.8864 153.535 85.573 154.148 87.5662 153.075C91.7059 150.621 95.6922 148.167 97.9921 143.72C98.2987 143.26 99.0653 143.106 99.5253 142.8C99.5253 143.413 99.6786 144.18 99.5253 144.64C96.6122 150.314 91.7059 153.995 86.1863 156.449C82.8132 157.982 79.4401 157.369 76.527 154.455C73.1539 150.928 71.774 146.634 70.7007 142.186C70.0874 139.579 69.1675 136.972 68.4009 134.365C67.7876 132.524 67.021 130.837 66.561 129.15C66.2544 128.23 66.2544 127.156 66.561 126.39C67.6343 124.089 67.1743 121.789 66.8677 119.488C66.1011 114.581 66.561 109.52 69.6275 105.379C71.0074 103.539 73.3072 102.158 74.9938 100.471C75.7604 99.7045 76.527 98.9377 76.8336 97.8641C78.5202 92.343 81.8932 88.2022 86.4929 84.6749C89.0994 82.6812 90.6326 79.0005 92.7791 76.2399C93.3924 75.3197 93.8524 74.2462 94.4657 73.4794C95.9989 71.639 97.6854 69.952 99.5253 68.265C100.292 67.4982 101.365 66.4247 102.285 66.2713C105.198 65.8112 108.265 65.6579 111.331 65.3511C111.944 65.3511 112.864 65.3511 113.171 64.891C115.164 62.5906 118.384 62.2839 120.837 64.1242C120.837 64.1242 120.837 64.1242 120.99 64.1242C121.757 64.2776 122.524 64.431 123.29 64.7377C122.984 64.1242 122.984 63.3574 122.524 62.744C121.604 61.3637 121.144 59.8301 122.217 58.2964C122.984 57.2229 123.75 56.1494 124.517 54.9224C122.37 53.8489 122.37 53.8489 120.99 57.0695C119.61 56.4561 119.61 55.2292 119.764 54.1556C119.917 53.3888 120.837 52.7754 121.45 52.4686C122.064 52.1619 122.984 52.0085 123.75 52.0085C126.357 51.5485 128.35 50.3216 129.116 47.8677C130.65 42.9601 134.483 41.8866 138.776 41.5799C140.462 41.5799 141.996 41.2731 143.682 40.813C145.522 40.353 147.208 40.3529 148.588 41.4265C150.735 43.1135 153.035 44.9538 154.721 47.1009C157.634 50.935 158.094 55.3825 157.634 59.9834C157.634 60.5969 157.021 61.2103 156.561 61.8238C155.795 63.0507 155.028 64.2776 154.108 65.5045C153.801 65.5045 153.341 65.1978 153.341 65.0444C152.268 65.5045 151.501 65.8112 150.888 66.4247C149.815 67.3449 149.048 68.265 148.128 69.1852C147.362 70.1054 146.902 71.1789 146.135 71.9458C145.062 73.1727 143.989 73.326 142.302 73.0193C141.076 72.7126 139.542 73.0193 138.162 73.0193C138.162 73.1727 138.162 73.4794 138.162 73.6327C138.316 73.9395 138.469 74.2462 138.776 74.3996C140.922 75.7798 141.996 77.9269 142.302 80.2274C142.609 82.0677 143.682 82.8345 145.369 82.9879C146.595 83.1413 147.975 83.2946 149.202 83.6014C154.108 84.8283 156.714 87.7422 157.021 93.57C157.328 99.091 155.948 104.305 151.808 108.293C150.582 109.52 148.895 110.287 147.362 111.207C145.982 111.974 145.522 112.894 146.442 114.121C148.282 116.881 150.275 119.642 152.115 122.402C152.575 123.016 153.035 123.476 153.495 123.936C155.028 125.776 155.028 125.93 153.495 127.923C154.261 128.537 154.875 129.15 155.641 129.764C161.007 134.825 164.841 140.806 166.68 148.014C166.834 148.934 166.68 149.854 166.987 150.621C167.294 152.461 167.6 154.455 168.214 156.142C169.134 158.749 168.214 160.59 166.22 163.043C164.381 165.344 162.541 167.491 160.701 169.791C159.934 170.865 159.934 171.938 160.547 173.165C163.154 178.993 165.914 184.821 168.214 190.802C169.9 195.25 170.973 200.004 172.2 204.605C172.353 205.218 172.047 205.832 171.893 206.445C171.28 206.138 170.513 205.832 170.207 205.372C168.367 202.611 166.68 199.851 164.994 197.09C164.841 196.783 164.534 196.477 164.534 196.323C165.3 193.563 163.001 192.029 162.081 190.035C161.467 188.808 160.701 187.735 160.088 186.661C160.088 186.661 160.394 186.355 160.394 186.201C161.007 186.661 161.621 186.968 162.387 187.582C162.387 187.121 162.387 186.661 162.234 186.201C161.927 184.821 160.854 183.594 162.081 182.06C162.234 181.754 162.081 180.987 161.927 180.527C160.394 177.46 159.014 174.546 157.328 171.478C156.868 170.712 155.641 170.252 154.875 169.638C154.568 169.331 154.108 169.178 153.801 168.871C152.575 167.491 151.042 166.417 149.508 165.344C147.822 164.117 147.208 161.51 146.289 159.363C145.675 157.982 145.829 156.295 145.215 154.915C144.449 152.615 142.915 150.621 142.302 148.321C140.002 140.192 135.709 133.751 128.043 129.764C127.277 129.457 126.817 128.69 126.357 127.923C131.416 128.69 135.556 132.678 141.076 130.53C141.229 131.911 139.236 133.751 141.996 134.365C141.536 135.591 140.769 136.665 140.769 137.739C140.769 138.965 140.769 140.346 141.536 141.419C143.375 144.18 145.369 147.094 147.668 149.394C151.655 153.382 151.961 154.148 149.662 159.209C149.662 159.516 149.508 159.823 149.355 160.283C149.662 160.283 149.662 160.283 149.815 160.13C150.428 159.516 151.042 158.903 151.501 158.443C151.348 159.209 151.195 160.13 150.888 160.896C150.888 161.356 150.582 161.663 150.275 162.277H151.348V164.424C151.348 164.424 152.268 163.197 153.035 162.123C153.035 163.35 153.035 164.117 153.188 165.037C153.495 164.424 153.801 163.964 153.801 163.964C155.181 163.964 156.254 163.964 157.634 164.117C157.481 164.73 157.174 165.344 157.021 166.111C157.634 166.571 158.248 167.184 158.861 167.644C160.547 165.957 162.234 164.424 163.461 162.583C165.147 160.283 165.76 157.676 164.841 154.762C164.227 152.921 164.227 150.774 164.074 148.781C164.074 146.48 163.767 144.333 161.927 142.646C162.387 146.634 162.541 150.468 162.387 154.302C162.081 154.302 161.927 154.302 161.621 154.455C161.314 153.995 161.007 153.688 160.854 153.228C160.701 152.001 160.394 150.774 160.394 149.547C160.394 145.253 157.481 142.339 155.181 139.119C154.568 138.352 154.108 137.432 153.648 136.665C153.955 136.512 154.108 136.358 154.415 136.205C156.101 138.199 157.941 140.346 159.628 142.493C159.781 142.493 159.934 142.339 160.241 142.186C159.934 141.113 159.781 139.886 159.321 138.812C157.328 134.825 154.875 131.144 151.042 128.69C150.582 128.383 150.122 128.23 149.815 127.77C149.355 127.156 148.588 126.39 148.435 125.623C148.435 125.009 149.048 124.089 149.662 123.629C148.742 121.022 146.442 118.875 142.762 117.955C143.375 117.341 143.835 117.035 144.602 116.268C143.529 115.654 142.609 114.581 141.842 114.734C140.462 114.887 138.776 115.501 138.009 116.421C135.556 119.642 132.03 121.329 128.81 123.322C126.357 124.856 124.21 126.236 123.137 128.997C122.37 130.991 120.837 132.524 118.691 133.138C117.311 133.598 117.157 134.211 117.771 135.591C120.684 141.266 124.823 145.713 130.036 149.241C132.336 150.774 134.483 152.768 136.783 154.455L136.476 155.222C136.476 155.222 134.943 155.222 134.329 154.762C126.817 150.314 120.53 144.64 116.697 136.512C116.391 135.745 115.931 135.131 115.164 133.904C114.704 135.285 114.244 136.052 113.938 137.125C113.478 136.665 113.018 136.358 112.558 135.898C112.404 136.205 112.098 136.512 112.098 136.665C113.938 140.192 115.624 143.72 119.304 145.713C119.61 145.713 119.917 146.02 120.07 146.327C121.604 147.86 123.137 149.547 124.67 151.081C124.823 151.234 124.977 151.541 125.13 151.541C128.503 151.541 129.116 155.069 131.723 155.989C131.876 158.443 133.869 158.749 135.709 159.363C136.016 159.363 136.169 159.976 136.323 160.283C136.476 160.743 136.629 161.356 136.936 161.51C139.849 162.737 140.462 165.957 142.455 167.798C143.069 168.411 143.069 169.485 143.375 170.252C143.375 170.865 143.375 171.632 143.682 171.938C146.289 173.779 147.208 176.693 148.742 179.3C149.968 181.447 151.042 183.901 152.575 185.895C156.101 191.109 159.781 196.17 163.461 201.231C163.921 201.844 164.381 202.304 164.841 202.764C164.994 203.071 165.147 203.531 165.147 203.991C164.687 203.991 164.074 204.145 163.767 203.991C162.847 203.225 162.081 202.304 161.314 201.384C159.781 199.237 158.248 197.09 156.714 195.096C156.408 195.25 156.101 195.403 155.795 195.556C156.254 196.63 156.408 197.703 157.174 198.624C159.781 201.998 162.541 205.372 165.147 208.592C165.607 209.206 165.607 210.126 165.914 210.739C165.76 210.739 165.607 210.893 165.3 211.046C164.841 210.739 164.381 210.433 164.074 209.973C160.854 206.138 157.481 202.611 153.035 200.004C152.575 199.697 151.961 199.237 151.655 198.777C149.202 195.403 146.135 192.796 142.762 190.495C141.996 189.882 140.922 189.269 140.616 188.348C139.389 185.281 136.629 183.747 134.483 181.6C133.563 180.68 132.336 180.067 131.263 179.3C128.503 177.613 127.277 175.006 128.197 172.245C129.27 171.939 130.343 171.478 131.416 171.172C132.183 170.865 133.103 171.018 133.869 170.558C134.329 170.251 134.483 169.331 134.789 168.718C134.176 168.718 133.563 168.564 133.103 168.718C131.876 169.025 130.803 169.638 129.576 170.098C128.503 170.405 127.737 170.865 128.197 172.245M113.784 134.211C115.931 133.444 118.384 132.984 119.764 130.837C118.231 130.224 118.231 129.457 119.304 128.383C120.53 127.156 121.91 125.93 123.137 124.856L122.677 124.243C121.604 124.856 120.377 125.316 119.457 126.083C118.537 126.85 117.924 128.077 117.004 128.997C116.544 129.457 115.777 129.61 114.858 130.07C114.858 128.69 114.551 127.617 114.858 126.85C115.471 125.93 116.544 125.316 117.771 124.243C116.697 124.089 116.237 123.936 115.624 123.782C115.624 123.629 115.471 123.476 115.317 123.322C120.224 119.488 124.977 115.654 129.883 111.82C130.036 111.82 130.19 112.127 130.343 112.28C129.73 116.881 124.67 118.108 122.677 121.942C123.597 121.635 124.363 121.329 125.13 121.022C125.13 121.022 125.13 121.329 125.283 121.329L123.904 123.169C123.904 123.169 124.057 123.476 124.21 123.476C125.59 121.635 127.123 120.255 129.423 120.562C129.73 120.562 130.036 120.102 130.343 119.795C132.03 117.955 133.716 115.961 135.556 114.121C138.622 111.053 141.996 108.293 145.062 105.226C146.902 103.385 148.588 101.238 150.275 99.3978C150.582 99.091 151.195 99.091 151.655 98.9377C151.655 99.3978 151.655 100.011 151.348 100.471C150.735 101.391 149.968 102.312 149.202 103.232C149.355 103.232 149.508 103.539 149.662 103.539C151.042 102.312 152.728 101.238 152.881 99.2444C152.881 97.0973 152.881 94.9502 152.575 92.8031C152.575 92.1897 152.575 91.2695 151.961 90.8094C149.508 88.8157 147.822 85.9018 144.142 85.5951C141.689 85.2883 139.849 84.2148 138.469 82.0677C138.162 81.6076 137.702 81.4543 137.089 80.9942C136.629 82.6812 139.389 83.1413 138.009 84.9816C136.629 83.9081 135.556 83.1413 134.483 82.2211C130.036 84.5215 128.043 88.9691 125.437 92.9565C125.13 92.0363 125.13 90.9628 125.437 90.3493C126.663 88.0489 127.89 85.5951 129.576 83.7547C131.263 81.9144 133.409 80.3807 135.403 79.0005C136.783 78.0803 137.243 77.6202 136.016 76.3933C135.249 75.6265 134.023 75.3197 132.95 74.7063C134.176 73.7861 135.249 73.0193 136.323 72.0991C137.243 71.3323 137.243 70.4121 136.016 69.952C134.176 69.1852 132.336 68.4184 130.496 67.8049C129.27 69.7987 130.803 70.8722 132.183 72.5592C130.343 72.4058 129.116 72.4058 127.89 72.0991C126.203 71.7924 124.517 71.9458 123.137 73.0193C122.064 73.7861 121.144 74.7063 120.224 75.4731C118.537 76.7 117.771 78.0803 118.844 80.074C119.151 80.5341 119.151 80.9942 119.151 81.6076C119.151 82.9879 119.764 83.6013 120.99 84.0614C122.064 84.3682 122.83 85.135 123.75 85.9018C123.904 86.0552 123.75 86.822 123.597 87.1287C123.597 87.2821 122.83 87.2821 122.524 87.1287C119.61 85.2883 116.851 83.6014 114.091 81.6076C113.478 81.1475 113.324 79.9206 112.864 79.1538L113.324 78.8471C114.551 79.6139 115.624 80.5341 116.851 81.3009C116.851 81.1475 117.157 80.9942 117.311 80.8408C117.157 80.3807 116.851 80.074 116.697 79.6139C116.391 78.8471 115.777 78.0803 115.624 77.3135C115.164 73.9395 116.544 71.0256 118.844 68.7251C119.304 68.265 119.457 67.6516 119.61 67.0381C118.537 66.578 117.617 66.118 116.391 65.9646C116.237 65.9646 115.471 66.8848 115.471 67.3449C115.471 68.5718 115.471 69.6453 115.471 70.8722C115.317 70.8722 115.164 71.1789 115.011 71.1789C113.938 68.7251 112.251 67.3449 109.645 67.6516C107.038 67.9583 105.198 69.0319 105.045 71.639H101.825C102.285 70.7188 102.592 69.7987 103.052 68.8785C100.752 70.2588 98.7587 71.9458 96.7655 73.6327C95.2323 75.013 93.8524 76.3933 94.159 77.9269C86.0329 87.7422 78.5202 97.2507 72.0806 108.139C71.774 107.219 71.6207 106.759 71.4673 106.146C71.314 106.146 71.0074 106.146 70.8541 106.146V108.753C68.0943 111.36 67.021 114.887 67.481 119.028C68.0943 117.341 68.7075 115.654 69.4742 113.661C69.9341 114.581 70.0874 114.887 70.2408 115.194C71.1607 114.274 71.9273 113.661 72.8472 112.894C73.1539 113.047 73.3072 113.354 73.6139 113.507C72.3873 115.041 71.314 116.574 69.9341 118.261C71.1607 118.108 72.0806 117.955 73.0006 117.648C73.7672 117.495 74.8404 117.648 75.3004 117.035C77.6002 115.194 79.9001 113.2 82.1999 111.207C83.2731 110.133 83.8864 108.753 84.653 107.526C85.4197 106.452 85.7263 105.072 86.6462 104.152C90.0193 100.778 93.5457 97.404 96.9188 94.03C97.3788 93.57 97.3788 92.9565 97.6854 92.343C98.6054 90.0426 99.0653 87.5888 100.292 85.4417C101.212 83.6014 102.745 82.0677 103.972 80.3807C104.738 79.3072 105.505 78.0803 107.191 78.8471C107.191 79.1538 107.191 79.4605 107.038 79.6139C104.432 82.5278 102.592 85.9018 100.905 89.4291C99.9853 91.4229 100.445 92.8031 101.212 94.03C102.132 95.4103 103.512 96.4838 104.892 97.7108H105.198C105.352 96.9439 105.658 96.1771 105.811 95.4103C105.965 95.4103 106.118 95.4103 106.425 95.4103C106.425 96.0238 106.425 96.7906 106.731 97.2507C107.191 98.0175 107.958 98.9377 108.418 98.9377C110.105 98.9377 111.024 99.3978 111.331 101.391C109.491 101.085 107.651 100.778 105.965 100.471C105.505 100.471 104.738 100.165 104.432 100.471C104.125 100.778 103.972 101.545 104.125 102.005C104.432 102.772 104.738 103.845 105.352 104.305C106.578 105.379 108.111 106.146 109.491 107.066C109.491 107.066 109.798 107.066 109.951 106.913C109.338 105.532 108.725 103.999 108.111 102.618C108.265 102.618 108.571 102.465 108.725 102.312C110.258 104.612 111.791 106.913 113.324 109.366H113.784V102.312C116.237 103.232 118.537 103.999 120.837 104.765C122.524 105.379 123.904 105.072 125.13 103.692C126.663 102.158 128.043 100.471 129.73 99.091C131.723 97.2507 133.869 95.5637 135.863 93.7233C135.863 93.7233 136.169 94.03 136.323 94.1834C136.016 96.0238 135.096 97.5574 133.716 98.7843C130.956 101.238 128.197 103.692 126.663 107.219C125.897 109.06 125.13 110.9 122.524 110.747C122.217 110.747 121.91 110.9 121.604 111.207C119.917 112.894 117.924 114.274 116.697 116.268C114.857 119.182 112.404 121.022 109.338 122.249C105.045 123.936 101.059 126.083 97.9921 129.764C97.3788 130.377 96.1522 130.837 95.2323 130.837C94.159 130.837 92.6258 130.377 92.0125 129.61C90.9393 128.23 90.326 126.39 89.7127 124.703C89.406 123.936 90.326 123.322 91.0926 123.936C91.8592 124.549 92.3192 125.469 92.9324 126.236C93.5457 126.85 94.159 127.77 95.0789 128.077C96.4588 128.537 100.752 125.163 100.599 123.629C100.292 120.715 100.139 117.801 99.2186 115.194C97.5321 110.44 89.866 109.366 86.6462 113.354C89.7127 115.194 86.1863 115.654 85.7263 117.035C88.1795 117.801 88.1795 119.948 88.3328 121.789C88.4861 123.322 87.8728 124.856 87.7195 126.236C87.4128 130.684 86.9529 131.297 82.6599 131.911C79.1335 132.371 75.7604 132.984 71.9273 133.598C71.9273 133.598 71.774 134.211 71.6207 134.978C72.3873 134.978 72.8472 135.285 73.4605 135.285C75.9137 135.285 78.2135 134.978 80.6667 134.978C81.1266 134.978 81.5866 135.438 82.0466 135.745C81.5866 136.052 81.28 136.665 80.82 136.665C78.2135 137.278 75.607 137.739 73.1539 138.352C73.0006 138.352 72.6939 138.659 72.234 138.965C75.7604 141.879 79.5934 138.965 83.1198 140.039C80.36 141.419 77.1403 141.726 74.0738 142.646C74.8404 144.64 76.2203 144.18 77.2936 144.026C78.6735 143.72 79.9001 142.953 81.1266 142.493C82.0466 142.186 83.1198 141.879 83.7331 143.106C82.0466 144.026 80.36 144.64 78.6735 145.56C78.3668 145.713 78.0602 146.327 77.9069 146.634C78.3668 146.94 78.8268 147.4 79.2868 147.247C80.0534 147.247 80.82 146.787 81.5866 146.48C87.1062 144.333 91.8592 140.039 98.1454 139.579C98.1454 139.579 99.372 139.732 99.8319 139.579C104.278 137.739 108.571 135.898 113.018 134.058L113.784 134.211ZM103.818 122.862C103.818 122.862 104.125 123.169 104.278 123.322C104.738 122.709 105.658 122.095 105.811 121.329C106.578 119.028 107.345 116.728 107.958 114.427C108.878 110.747 108.265 109.366 105.198 107.373C105.198 107.373 105.045 107.219 104.892 107.066C102.898 105.839 102.745 103.692 102.438 101.545C102.285 100.471 101.978 99.2444 101.365 98.1708C100.905 97.2507 99.8319 96.7906 99.372 96.3305C95.9989 99.091 92.6258 101.852 89.2527 104.612C88.1795 105.532 87.5662 106.759 86.3396 108.293C97.8387 105.992 104.278 111.207 103.818 122.709M154.108 51.0884C152.881 52.1619 152.421 51.3951 152.268 50.1682C152.268 48.9413 152.575 47.1009 150.275 47.561C150.275 47.561 149.968 47.2543 149.815 47.1009C148.895 46.0274 148.282 44.8005 147.208 43.7269C146.748 43.2669 145.829 42.8068 145.215 42.9601C141.689 43.5736 138.162 44.3404 134.789 45.1072C134.329 45.1072 133.563 46.3341 133.716 46.9476C133.716 47.8677 134.483 48.7879 134.943 49.8615C136.783 48.1745 137.549 49.8615 138.316 50.7816C139.082 51.8552 139.542 53.2355 140.309 54.6157C140.769 54.0023 141.076 53.6955 141.536 53.2355C143.989 50.7816 143.989 49.8615 141.536 47.2543C141.229 46.9476 141.382 46.4875 141.229 46.0274C141.689 46.0274 142.302 45.7207 142.455 46.0274C143.222 47.2543 143.835 48.4812 144.449 49.7081C144.755 50.6283 144.909 51.5485 145.215 53.0821C146.289 52.1619 147.055 51.7018 147.515 50.935C147.975 50.1682 147.975 49.4014 148.282 48.4812C150.275 49.8615 150.735 52.3153 149.508 54.9224C150.428 55.996 151.348 56.9162 152.115 58.1431C152.728 59.2166 152.881 60.5969 153.341 61.8238C156.408 59.9834 156.714 56.4561 154.415 51.2417M133.409 62.4372C135.403 64.8911 137.243 67.3449 139.236 69.4919C140.769 71.1789 144.142 71.639 145.215 70.2588C146.748 68.265 148.282 66.2713 150.122 63.9709C148.742 62.4372 147.208 60.5969 145.369 59.0633C142.915 57.0695 141.996 57.5296 141.229 60.5969C140.922 61.6704 140.922 62.744 139.389 62.2839C137.089 61.6704 136.169 60.5969 136.476 59.0633C136.936 57.3763 137.396 55.5359 137.549 53.8489C137.549 53.3888 136.936 52.3153 136.629 52.3153C136.016 52.3153 134.943 52.7754 134.789 53.2355C134.483 55.0758 133.869 57.2229 134.176 59.0633C134.483 60.4435 134.329 61.3637 133.103 62.2839M70.7007 134.211C71.1607 132.371 71.9273 130.684 72.0806 128.843C72.3873 125.623 74.0738 123.476 76.8336 122.249C77.6002 121.942 78.3668 121.789 78.9801 121.329C79.2868 121.022 79.4401 120.408 79.4401 119.795C79.4401 119.642 78.6735 119.182 78.2135 119.182C74.9938 119.642 71.9273 120.408 71.1607 124.243C71.1607 124.396 71.0074 124.549 70.8541 124.703C67.7876 127.617 68.8609 130.837 70.7007 134.058M133.716 177.766C133.716 177.766 132.643 176.233 132.03 175.926C131.263 175.619 130.343 175.926 129.423 175.926C129.883 176.539 130.036 177.306 130.65 177.766C132.643 179.453 134.636 181.14 136.629 182.674C136.323 180.68 135.863 178.686 135.556 176.233C134.789 176.693 134.176 177.153 133.716 177.46M145.522 182.367C145.522 182.367 145.215 182.521 144.909 182.674C145.829 186.815 147.208 190.802 151.348 193.716C149.202 189.729 147.362 186.048 145.522 182.367ZM151.195 62.1305C150.888 58.7565 148.435 57.2229 146.289 55.3825C145.215 54.4624 144.602 54.9224 144.142 55.6893C146.595 57.8363 148.895 59.9834 151.348 62.1305M115.624 110.44C115.624 110.44 116.084 110.44 116.237 110.593C117.617 109.52 118.997 108.446 120.684 107.066C119.151 106.299 118.077 105.686 116.697 104.919C116.391 106.913 115.931 108.753 115.624 110.44ZM144.142 150.008C144.142 150.008 143.835 150.161 143.835 150.314C145.062 152.461 146.289 154.608 147.668 156.909C148.588 155.529 149.202 154.455 147.975 153.228C146.748 152.001 145.369 150.928 144.142 149.854M139.236 171.785C138.929 175.773 140.922 182.214 142.915 183.747C141.689 179.607 140.462 175.619 139.236 171.785ZM71.314 119.948C69.1675 120.562 68.5542 122.095 69.7808 123.476C70.2408 122.402 70.7007 121.175 71.314 119.948ZM118.231 149.854C118.231 149.854 118.537 149.547 118.691 149.394C117.771 148.627 117.004 147.86 115.777 146.634C116.237 148.627 116.851 149.701 118.231 149.854Z" fill="#2C2927"/>
<path d="M152.881 184.514C151.962 182.981 151.042 181.6 150.275 180.067C149.202 177.92 148.128 175.619 147.209 173.319C146.289 171.172 145.675 168.871 145.062 166.724C145.062 166.417 145.522 165.651 145.829 165.651C146.289 165.651 147.362 166.111 147.362 166.417C146.749 171.785 150.888 175.313 152.421 179.913C152.881 181.294 153.341 182.827 153.955 184.208C153.648 184.208 153.341 184.514 153.035 184.668" fill="#2C2927"/>
<path d="M143.375 163.35C141.995 160.13 140.615 156.909 139.236 153.382C139.849 153.382 140.462 153.382 140.615 153.688C142.149 156.602 145.062 159.209 144.295 163.043C143.989 163.043 143.835 163.197 143.529 163.35" fill="#2C2927"/>
<path d="M117.311 141.573C119.457 144.333 121.144 146.634 122.983 149.087C120.377 148.321 116.851 143.72 117.311 141.573Z" fill="#2C2927"/>
<path d="M132.643 141.726C130.803 140.039 129.73 136.665 130.343 135.131C131.723 136.052 133.256 140.499 132.643 141.726Z" fill="#2C2927"/>
<path d="M152.881 159.363V154.762C153.955 155.529 154.261 157.522 152.881 159.363Z" fill="#2C2927"/>
<path d="M123.903 89.8893C122.83 94.1834 121.757 98.3243 120.684 102.618C118.844 100.165 121.45 90.6561 123.903 89.8893Z" fill="#2C2927"/>
<path d="M77.7535 104.459C76.6802 107.679 73.7671 109.826 72.2339 112.894C71.7739 112.28 71.314 111.82 70.854 111.207C73.0005 108.906 75.147 106.606 77.2935 104.152C77.4469 104.152 77.6002 104.459 77.7535 104.612" fill="#2C2927"/>
<path d="M94.3123 83.1412C95.5389 85.2883 92.6258 89.8892 88.946 90.656C90.7859 87.8955 92.6258 85.595 94.3123 83.1412Z" fill="#2C2927"/>
<path d="M86.9529 103.232C86.1863 102.925 85.573 102.618 84.9597 102.312C85.2664 101.852 85.4197 101.085 85.8796 100.931C86.9529 100.318 88.1795 100.011 89.4061 99.5511L90.0193 100.318C88.9461 101.392 87.8728 102.312 86.9529 103.232Z" fill="#2C2927"/>
<path d="M99.0652 139.732C99.0652 139.732 98.1453 139.732 97.072 139.579C98.9119 138.199 100.138 137.125 101.518 136.205C101.825 135.898 102.592 136.205 103.052 136.205C102.898 136.818 102.745 137.585 102.285 137.892C101.212 138.659 99.9851 139.272 98.9119 139.886L99.0652 139.732Z" fill="#2C2927"/>
<path d="M109.951 71.6391C109.951 71.6391 109.185 70.5655 108.878 70.4122C108.418 70.8723 107.958 71.3323 107.191 71.9458C106.885 68.8785 109.491 69.9521 110.718 68.8785C110.564 69.6454 110.258 70.4122 109.951 71.6391Z" fill="#2C2927"/>
<path d="M96.3054 76.3933C97.2254 75.3197 98.1453 74.2462 99.2185 73.0193C99.2185 75.4731 98.6053 76.2399 96.3054 76.3933Z" fill="#2C2927"/>
<path d="M113.938 134.058C113.938 134.058 113.324 133.905 112.404 133.598C113.938 132.524 115.011 131.757 116.084 130.991C116.186 131.809 115.471 132.831 113.938 134.058Z" fill="#2C2927"/>
<path d="M133.409 114.734C131.723 113.354 132.183 112.434 133.869 111.513C133.716 112.587 133.563 113.661 133.409 114.734Z" fill="#2C2927"/>
</svg>
