<svg width="256" height="256" viewBox="0 0 256 256" fill="none" xmlns="http://www.w3.org/2000/svg">
<path d="M17.3228 12.9707V13.2267V128.853C17.3228 129.792 17.3228 130.731 17.3228 131.755C17.3228 192.512 66.5601 241.749 127.317 241.749C188.075 241.749 237.312 192.512 237.312 131.755C237.312 130.816 237.312 129.877 237.312 128.853V12.9707H17.3228Z" fill="#6EC5CF"/>
<path d="M8.61865 3.49878V3.84011V129.109C8.61865 130.133 8.61865 131.157 8.61865 132.181C8.61865 197.973 61.952 251.307 127.744 251.307C193.536 251.307 246.869 197.973 246.869 132.181C246.869 131.157 246.869 130.133 246.869 129.109V3.49878H8.61865Z" fill="#6EC5CF"/>
<path d="M147.456 176.128C147.456 187.733 137.984 197.205 126.379 197.205C114.773 197.205 105.301 187.819 105.301 176.128C105.301 164.523 114.688 155.051 126.379 155.051C138.069 155.051 147.456 164.437 147.456 176.128Z" fill="#93D1D7"/>
<path d="M126.037 149.333L125.952 142.421C125.952 142.165 126.208 141.909 126.464 141.909C126.72 141.909 126.976 142.165 126.976 142.421L126.891 149.333C126.891 149.589 126.72 149.76 126.464 149.76C126.208 149.76 126.037 149.589 126.037 149.333Z" fill="#93D1D7"/>
<path d="M125.867 139.264L125.696 127.061C125.696 126.635 126.037 126.293 126.464 126.293C126.891 126.293 127.232 126.635 127.232 127.061L127.061 139.264C127.061 139.605 126.805 139.861 126.464 139.776C126.123 139.776 125.867 139.52 125.867 139.264Z" fill="#93D1D7"/>
<path d="M125.611 123.733L125.525 116.821C125.525 116.309 125.952 115.883 126.464 115.883C126.976 115.883 127.403 116.309 127.403 116.821L127.317 123.733C127.317 124.16 126.976 124.501 126.464 124.501C125.952 124.587 125.611 124.16 125.611 123.733Z" fill="#93D1D7"/>
<path d="M116.907 151.125L114.432 144.725C114.347 144.469 114.432 144.128 114.688 144.043C114.944 143.957 115.285 144.043 115.371 144.384L117.589 150.869C117.675 151.04 117.589 151.296 117.333 151.381C117.163 151.381 116.992 151.296 116.907 151.125Z" fill="#93D1D7"/>
<path d="M113.237 141.653L108.885 130.219C108.715 129.792 108.885 129.365 109.312 129.28C109.739 129.109 110.165 129.365 110.251 129.707L114.261 141.227C114.347 141.483 114.176 141.824 113.92 141.909C113.664 142.08 113.408 141.909 113.237 141.653Z" fill="#93D1D7"/>
<path d="M107.776 127.232L105.301 120.832C105.131 120.32 105.387 119.808 105.813 119.637C106.325 119.467 106.837 119.723 107.008 120.149L109.227 126.635C109.397 127.061 109.141 127.488 108.715 127.659C108.373 127.829 107.861 127.573 107.776 127.232Z" fill="#93D1D7"/>
<path d="M108.885 155.904L104.363 150.699C104.192 150.528 104.192 150.187 104.448 150.016C104.619 149.845 104.96 149.845 105.131 150.101L109.483 155.477C109.653 155.648 109.568 155.904 109.397 156.075C109.312 156.075 109.056 156.075 108.885 155.904Z" fill="#93D1D7"/>
<path d="M102.229 148.224L94.2079 139.008C93.9519 138.667 93.9519 138.24 94.2932 137.899C94.6345 137.643 95.0612 137.643 95.3172 137.984L102.997 147.456C103.168 147.712 103.168 148.053 102.912 148.224C102.827 148.48 102.485 148.48 102.229 148.224Z" fill="#93D1D7"/>
<path d="M92.1599 136.533L87.6372 131.328C87.2959 130.987 87.3812 130.389 87.7226 130.048C88.0639 129.707 88.6612 129.792 89.0026 130.133L93.3545 135.509C93.6105 135.851 93.6106 136.363 93.2692 136.619C92.9279 136.875 92.4159 136.875 92.1599 136.533Z" fill="#93D1D7"/>
<path d="M103.083 163.072L97.1093 159.744C96.8533 159.573 96.768 159.317 96.9386 159.061C97.1093 158.805 97.3653 158.72 97.6213 158.891L103.509 162.389C103.68 162.475 103.765 162.731 103.68 162.901C103.509 163.157 103.253 163.157 103.083 163.072Z" fill="#93D1D7"/>
<path d="M94.208 158.123L83.5414 152.149C83.2 151.979 83.0294 151.467 83.2854 151.125C83.456 150.784 83.968 150.613 84.3094 150.869L94.8054 157.099C95.0614 157.269 95.1467 157.611 94.976 157.867C94.8054 158.208 94.464 158.293 94.208 158.123Z" fill="#93D1D7"/>
<path d="M80.64 150.614L74.6667 147.286C74.24 147.03 74.0694 146.518 74.3254 146.006C74.5814 145.579 75.0934 145.408 75.6054 145.664L81.4934 149.163C81.8347 149.419 82.0054 149.846 81.7494 150.272C81.4934 150.699 81.0667 150.87 80.64 150.614Z" fill="#93D1D7"/>
<path d="M100.011 171.861L93.184 170.752C92.928 170.667 92.7573 170.411 92.7573 170.155C92.8427 169.899 93.0987 169.728 93.3547 169.728L100.096 171.008C100.352 171.093 100.437 171.264 100.437 171.435C100.437 171.776 100.181 171.861 100.011 171.861Z" fill="#93D1D7"/>
<path d="M90.0265 170.24L77.9945 168.278C77.5679 168.192 77.3119 167.851 77.3972 167.424C77.4825 166.998 77.8239 166.742 78.2505 166.827L90.1972 169.131C90.5385 169.216 90.7092 169.472 90.6239 169.814C90.5385 170.07 90.2825 170.326 90.0265 170.24Z" fill="#93D1D7"/>
<path d="M74.752 167.851L67.9254 166.742C67.4134 166.656 67.072 166.23 67.1574 165.718C67.2427 165.206 67.6694 164.864 68.1814 164.95L74.9227 166.23C75.3494 166.315 75.6054 166.742 75.52 167.168C75.52 167.595 75.1787 167.851 74.752 167.851Z" fill="#93D1D7"/>
<path d="M100.096 181.163L93.3547 182.443C93.0987 182.528 92.8427 182.358 92.7573 182.016C92.672 181.76 92.8427 181.504 93.184 181.419L100.011 180.31C100.267 180.31 100.437 180.395 100.437 180.651C100.523 180.907 100.352 181.078 100.096 181.163Z" fill="#93D1D7"/>
<path d="M90.1972 183.04L78.2505 185.344C77.8239 185.429 77.4825 185.173 77.3972 184.747C77.3119 184.32 77.5679 183.979 77.9945 183.893L90.0265 181.931C90.3679 181.845 90.6239 182.101 90.7092 182.357C90.7092 182.699 90.4532 183.04 90.1972 183.04Z" fill="#93D1D7"/>
<path d="M75.0079 186.027L68.2665 187.307C67.7545 187.392 67.3279 187.051 67.1572 186.624C67.0719 186.112 67.4132 185.685 67.8399 185.515L74.6665 184.405C75.0932 184.32 75.5199 184.661 75.6052 185.088C75.6905 185.515 75.4345 185.941 75.0079 186.027Z" fill="#93D1D7"/>
<path d="M103.424 189.867L97.5361 193.365C97.2801 193.536 97.0241 193.451 96.8534 193.195C96.6828 192.939 96.7681 192.683 97.0241 192.512L102.997 189.184C103.168 189.099 103.424 189.184 103.509 189.355C103.68 189.44 103.595 189.696 103.424 189.867Z" fill="#93D1D7"/>
<path d="M94.7199 195.072L84.2239 201.302C83.8826 201.472 83.3706 201.387 83.1999 201.046C82.9439 200.704 83.1146 200.192 83.4559 200.022L94.1226 194.048C94.3786 193.878 94.7199 193.963 94.8906 194.304C95.0612 194.56 94.9759 194.902 94.7199 195.072Z" fill="#93D1D7"/>
<path d="M81.4934 203.008L75.6054 206.507C75.1787 206.763 74.5814 206.592 74.3254 206.166C74.0694 205.739 74.24 205.142 74.6667 204.886L80.64 201.558C81.0667 201.302 81.4934 201.472 81.7494 201.899C82.0054 202.24 81.8347 202.752 81.4934 203.008Z" fill="#93D1D7"/>
<path d="M109.483 196.864L105.131 202.24C104.96 202.496 104.619 202.496 104.448 202.326C104.192 202.155 104.192 201.814 104.363 201.643L108.885 196.438C109.056 196.267 109.312 196.267 109.483 196.438C109.653 196.438 109.653 196.694 109.483 196.864Z" fill="#93D1D7"/>
<path d="M103.168 204.715L95.4881 214.187C95.2321 214.528 94.7201 214.528 94.4641 214.272C94.1228 214.016 94.1228 213.504 94.3788 213.248L102.4 204.032C102.571 203.776 102.997 203.776 103.168 203.947C103.253 204.117 103.339 204.459 103.168 204.715Z" fill="#93D1D7"/>
<path d="M93.3546 216.747L89.0026 222.123C88.6612 222.549 88.1492 222.549 87.7226 222.293C87.2959 221.952 87.2959 221.355 87.5519 221.013L92.0746 215.808C92.3306 215.467 92.8426 215.467 93.1839 215.723C93.6106 215.893 93.6959 216.405 93.3546 216.747Z" fill="#93D1D7"/>
<path d="M117.675 201.387L115.456 207.872C115.371 208.128 115.115 208.299 114.773 208.213C114.517 208.128 114.347 207.872 114.432 207.531L116.907 201.131C116.992 200.96 117.248 200.789 117.419 200.875C117.589 200.96 117.675 201.216 117.675 201.387Z" fill="#93D1D7"/>
<path d="M114.347 210.944L110.336 222.464C110.165 222.891 109.739 223.061 109.397 222.891C108.971 222.72 108.8 222.293 108.971 221.952L113.323 210.517C113.408 210.261 113.749 210.091 114.005 210.176C114.261 210.347 114.432 210.688 114.347 210.944Z" fill="#93D1D7"/>
<path d="M109.227 225.536L107.008 232.021C106.837 232.533 106.325 232.789 105.813 232.619C105.301 232.448 105.045 231.936 105.216 231.424L107.691 225.024C107.861 224.597 108.288 224.427 108.715 224.597C109.227 224.683 109.397 225.195 109.227 225.536Z" fill="#93D1D7"/>
<path d="M126.805 202.838L126.891 209.75C126.891 210.006 126.635 210.262 126.379 210.262C126.123 210.262 125.867 210.006 125.867 209.75L125.952 202.838C125.952 202.582 126.123 202.411 126.379 202.411C126.635 202.496 126.805 202.667 126.805 202.838Z" fill="#93D1D7"/>
<path d="M126.976 212.992L127.147 225.195C127.147 225.621 126.805 225.963 126.379 225.963C125.952 225.963 125.611 225.621 125.611 225.195L125.781 212.992C125.781 212.651 126.037 212.395 126.379 212.48C126.72 212.48 126.976 212.651 126.976 212.992Z" fill="#93D1D7"/>
<path d="M127.232 228.437L127.317 235.349C127.317 235.861 126.891 236.288 126.379 236.288C125.867 236.288 125.44 235.861 125.44 235.349L125.525 228.437C125.525 228.011 125.867 227.669 126.379 227.669C126.891 227.669 127.232 228.011 127.232 228.437Z" fill="#93D1D7"/>
<path d="M135.936 201.131L138.411 207.531C138.496 207.787 138.411 208.128 138.155 208.213C137.899 208.299 137.557 208.213 137.472 207.872L135.253 201.387C135.168 201.216 135.253 200.96 135.509 200.875C135.595 200.789 135.851 200.875 135.936 201.131Z" fill="#93D1D7"/>
<path d="M139.52 210.603L143.872 222.037C144.043 222.464 143.872 222.891 143.445 222.976C143.019 223.147 142.592 222.891 142.507 222.549L138.496 211.029C138.411 210.773 138.581 210.432 138.837 210.347C139.093 210.176 139.435 210.261 139.52 210.603Z" fill="#93D1D7"/>
<path d="M145.067 225.024L147.541 231.424C147.712 231.936 147.456 232.448 147.029 232.619C146.517 232.789 146.005 232.533 145.835 232.107L143.616 225.621C143.445 225.195 143.701 224.768 144.128 224.597C144.469 224.427 144.896 224.597 145.067 225.024Z" fill="#93D1D7"/>
<path d="M143.872 196.352L148.395 201.557C148.565 201.813 148.565 202.069 148.309 202.24C148.139 202.411 147.797 202.411 147.627 202.155L143.275 196.779C143.104 196.608 143.189 196.352 143.36 196.181C143.531 196.181 143.787 196.181 143.872 196.352Z" fill="#93D1D7"/>
<path d="M150.528 204.032L158.549 213.248C158.805 213.589 158.805 214.016 158.464 214.357C158.123 214.613 157.696 214.613 157.44 214.272L149.76 204.8C149.589 204.544 149.589 204.203 149.845 204.032C150.016 203.776 150.357 203.776 150.528 204.032Z" fill="#93D1D7"/>
<path d="M160.683 215.723L165.205 220.928C165.547 221.269 165.461 221.867 165.12 222.208C164.779 222.549 164.181 222.464 163.84 222.123L159.488 216.747C159.232 216.405 159.232 215.893 159.573 215.637C159.915 215.296 160.427 215.381 160.683 215.723Z" fill="#93D1D7"/>
<path d="M149.76 189.099L155.733 192.427C155.989 192.598 156.075 192.854 155.904 193.11C155.733 193.366 155.477 193.451 155.221 193.28L149.333 189.782C149.163 189.696 149.077 189.44 149.163 189.27C149.333 189.099 149.589 189.014 149.76 189.099Z" fill="#93D1D7"/>
<path d="M158.635 194.048L169.301 200.022C169.643 200.192 169.813 200.704 169.557 201.046C169.387 201.387 168.875 201.558 168.533 201.302L158.037 195.072C157.781 194.902 157.696 194.56 157.867 194.304C158.037 193.963 158.379 193.878 158.635 194.048Z" fill="#93D1D7"/>
<path d="M172.117 201.558L178.091 204.886C178.517 205.142 178.688 205.654 178.432 206.166C178.176 206.592 177.664 206.763 177.152 206.507L171.264 203.008C170.923 202.752 170.752 202.326 171.008 201.899C171.264 201.472 171.776 201.387 172.117 201.558Z" fill="#93D1D7"/>
<path d="M152.832 180.395L159.659 181.504C159.915 181.589 160.085 181.845 160.085 182.101C160 182.357 159.744 182.528 159.488 182.528L152.747 181.248C152.491 181.163 152.405 180.992 152.405 180.821C152.405 180.48 152.576 180.309 152.832 180.395Z" fill="#93D1D7"/>
<path d="M162.816 181.931L174.848 183.894C175.275 183.979 175.531 184.32 175.445 184.747C175.36 185.174 175.019 185.43 174.592 185.344L162.645 183.04C162.304 182.955 162.133 182.699 162.219 182.358C162.219 182.102 162.56 181.931 162.816 181.931Z" fill="#93D1D7"/>
<path d="M178.091 184.405L184.917 185.515C185.429 185.6 185.771 186.027 185.685 186.539C185.6 187.051 185.173 187.392 184.661 187.307L177.92 186.027C177.493 185.941 177.237 185.515 177.323 185.088C177.237 184.661 177.664 184.32 178.091 184.405Z" fill="#93D1D7"/>
<path d="M152.661 171.093L159.403 169.813C159.659 169.728 159.915 169.899 160 170.24C160.085 170.496 159.915 170.752 159.573 170.837L152.747 171.947C152.491 171.947 152.32 171.861 152.32 171.605C152.32 171.349 152.491 171.093 152.661 171.093Z" fill="#93D1D7"/>
<path d="M162.645 169.131L174.592 166.827C175.019 166.742 175.36 166.998 175.445 167.424C175.531 167.851 175.275 168.192 174.848 168.278L162.816 170.24C162.475 170.326 162.219 170.07 162.133 169.814C162.133 169.472 162.304 169.216 162.645 169.131Z" fill="#93D1D7"/>
<path d="M177.835 166.23L184.576 164.95C185.088 164.864 185.515 165.206 185.685 165.718C185.771 166.23 185.429 166.656 185.003 166.827L178.176 167.936C177.749 168.022 177.323 167.68 177.237 167.254C177.067 166.742 177.408 166.315 177.835 166.23Z" fill="#93D1D7"/>
<path d="M149.333 162.389L155.221 158.891C155.477 158.72 155.733 158.805 155.904 159.061C156.075 159.317 155.989 159.573 155.733 159.744L149.76 163.072C149.589 163.157 149.333 163.072 149.248 162.901C149.163 162.731 149.163 162.475 149.333 162.389Z" fill="#93D1D7"/>
<path d="M158.037 157.184L168.533 150.955C168.875 150.784 169.387 150.869 169.557 151.211C169.813 151.552 169.643 152.064 169.301 152.235L158.635 158.208C158.379 158.379 158.037 158.293 157.867 157.952C157.696 157.696 157.781 157.355 158.037 157.184Z" fill="#93D1D7"/>
<path d="M171.349 149.248L177.237 145.749C177.664 145.493 178.261 145.664 178.517 146.091C178.773 146.517 178.603 147.115 178.176 147.371L172.203 150.699C171.776 150.955 171.349 150.784 171.093 150.357C170.837 149.931 171.008 149.419 171.349 149.248Z" fill="#93D1D7"/>
<path d="M143.275 155.392L147.627 150.016C147.797 149.76 148.139 149.76 148.309 149.931C148.565 150.101 148.565 150.443 148.395 150.613L143.872 155.819C143.701 155.989 143.445 155.989 143.275 155.819C143.189 155.733 143.189 155.563 143.275 155.392Z" fill="#93D1D7"/>
<path d="M149.675 147.456L157.355 137.984C157.611 137.643 158.123 137.643 158.464 137.899C158.805 138.155 158.805 138.667 158.549 138.923L150.528 148.139C150.357 148.395 149.931 148.395 149.76 148.224C149.504 148.053 149.504 147.712 149.675 147.456Z" fill="#93D1D7"/>
<path d="M159.403 135.509L163.755 130.133C164.096 129.707 164.608 129.707 165.035 129.963C165.461 130.304 165.461 130.901 165.205 131.243L160.683 136.448C160.427 136.789 159.915 136.789 159.573 136.533C159.232 136.363 159.147 135.851 159.403 135.509Z" fill="#93D1D7"/>
<path d="M135.168 150.869L137.387 144.384C137.472 144.128 137.728 143.957 138.069 144.043C138.325 144.128 138.496 144.384 138.411 144.725L135.936 151.125C135.851 151.296 135.595 151.467 135.424 151.381C135.253 151.296 135.083 151.04 135.168 150.869Z" fill="#93D1D7"/>
<path d="M138.496 141.227L142.507 129.707C142.677 129.28 143.104 129.11 143.445 129.28C143.872 129.451 144.043 129.878 143.872 130.219L139.52 141.654C139.435 141.91 139.093 142.08 138.837 141.995C138.581 141.824 138.411 141.568 138.496 141.227Z" fill="#93D1D7"/>
<path d="M143.531 126.635L145.749 120.149C145.92 119.637 146.432 119.381 146.944 119.552C147.456 119.723 147.712 120.235 147.541 120.747L145.067 127.147C144.896 127.573 144.469 127.744 144.043 127.573C143.616 127.488 143.445 127.061 143.531 126.635Z" fill="#93D1D7"/>
<path d="M122.197 154.112L120.064 142.848C119.979 142.592 120.235 142.336 120.491 142.251C120.747 142.165 121.003 142.336 121.088 142.677L122.88 154.027C122.88 154.197 122.795 154.368 122.624 154.368C122.368 154.453 122.197 154.283 122.197 154.112Z" fill="#93D1D7"/>
<path d="M119.211 138.752L117.077 127.488C116.992 127.061 117.248 126.635 117.675 126.635C118.101 126.549 118.528 126.805 118.613 127.232L120.405 138.581C120.491 138.923 120.235 139.179 119.893 139.264C119.552 139.264 119.296 139.093 119.211 138.752Z" fill="#93D1D7"/>
<path d="M114.944 156.928L109.056 147.115C108.885 146.859 108.971 146.517 109.227 146.432C109.483 146.261 109.824 146.347 109.909 146.603L115.456 156.587C115.541 156.757 115.456 156.928 115.371 157.013C115.2 157.099 115.029 157.099 114.944 156.928Z" fill="#93D1D7"/>
<path d="M106.923 143.445L101.035 133.632C100.779 133.291 100.949 132.779 101.291 132.608C101.632 132.352 102.144 132.523 102.315 132.864L107.861 142.848C108.032 143.104 107.947 143.445 107.605 143.616C107.435 143.787 107.008 143.701 106.923 143.445Z" fill="#93D1D7"/>
<path d="M109.056 161.963L100.181 154.709C99.9253 154.539 99.9253 154.197 100.096 154.027C100.267 153.771 100.608 153.771 100.864 153.941L109.568 161.451C109.739 161.536 109.739 161.792 109.568 161.877C109.397 162.048 109.227 162.133 109.056 161.963Z" fill="#93D1D7"/>
<path d="M96.9386 152.15L88.064 144.896C87.7226 144.64 87.7226 144.128 87.9786 143.787C88.2346 143.446 88.7466 143.446 89.088 143.702L97.7066 151.211C97.9626 151.382 97.9626 151.808 97.792 152.064C97.536 152.235 97.1093 152.32 96.9386 152.15Z" fill="#93D1D7"/>
<path d="M105.301 168.789L94.4641 165.035C94.2081 164.949 94.0375 164.608 94.1228 164.352C94.2081 164.096 94.5494 163.925 94.8054 164.011L105.472 168.107C105.643 168.192 105.728 168.363 105.643 168.533C105.643 168.789 105.472 168.875 105.301 168.789Z" fill="#93D1D7"/>
<path d="M90.4534 163.67L79.6161 159.915C79.1894 159.744 79.0188 159.318 79.1041 158.976C79.2748 158.55 79.7014 158.379 80.0428 158.55L90.7094 162.646C91.0508 162.731 91.1361 163.072 91.0508 163.414C91.1361 163.584 90.7948 163.755 90.4534 163.67Z" fill="#93D1D7"/>
<path d="M104.021 176.47L92.5867 176.64C92.3307 176.64 92.0747 176.384 92.0747 176.128C92.0747 175.872 92.3307 175.616 92.5867 175.616L104.021 175.787C104.192 175.787 104.363 175.958 104.363 176.128C104.363 176.299 104.192 176.47 104.021 176.47Z" fill="#93D1D7"/>
<path d="M88.4053 176.725L76.9706 176.896C76.544 176.896 76.2026 176.555 76.2026 176.128C76.2026 175.701 76.544 175.36 76.9706 175.36L88.4053 175.531C88.7466 175.531 89.0026 175.787 89.0026 176.128C88.9173 176.469 88.6613 176.725 88.4053 176.725Z" fill="#93D1D7"/>
<path d="M105.557 184.064L94.8907 188.16C94.6347 188.245 94.2934 188.16 94.208 187.904C94.1227 187.648 94.208 187.307 94.464 187.221L105.301 183.467C105.472 183.381 105.643 183.467 105.728 183.637C105.813 183.808 105.643 183.979 105.557 184.064Z" fill="#93D1D7"/>
<path d="M90.88 189.696L80.2133 193.792C79.7867 193.963 79.36 193.707 79.1893 193.366C79.0187 192.939 79.2747 192.512 79.616 192.342L90.4533 188.587C90.7947 188.502 91.0507 188.672 91.2213 188.928C91.3067 189.27 91.136 189.526 90.88 189.696Z" fill="#93D1D7"/>
<path d="M109.483 190.72L100.779 198.229C100.523 198.4 100.267 198.4 100.011 198.144C99.8399 197.888 99.8399 197.632 100.096 197.376L108.971 190.123C109.141 190.037 109.312 190.037 109.483 190.208C109.653 190.379 109.653 190.635 109.483 190.72Z" fill="#93D1D7"/>
<path d="M97.6213 200.96L88.9173 208.47C88.576 208.726 88.1493 208.726 87.808 208.384C87.552 208.043 87.552 207.616 87.8933 207.275L96.768 200.022C97.024 199.851 97.3653 199.851 97.6213 200.107C97.8773 200.448 97.8773 200.79 97.6213 200.96Z" fill="#93D1D7"/>
<path d="M115.541 195.669L109.995 205.653C109.824 205.909 109.568 205.995 109.312 205.824C109.056 205.653 108.971 205.397 109.141 205.141L115.029 195.328C115.115 195.157 115.285 195.157 115.456 195.243C115.541 195.243 115.627 195.499 115.541 195.669Z" fill="#93D1D7"/>
<path d="M107.861 209.323L102.315 219.307C102.144 219.648 101.632 219.819 101.291 219.563C100.949 219.392 100.779 218.88 101.035 218.539L106.923 208.726C107.093 208.47 107.435 208.384 107.691 208.555C107.947 208.726 108.032 209.067 107.861 209.323Z" fill="#93D1D7"/>
<path d="M122.88 198.144L121.088 209.493C121.003 209.749 120.747 210.005 120.491 209.92C120.235 209.92 119.979 209.579 120.064 209.323L122.197 198.059C122.197 197.888 122.368 197.803 122.624 197.803C122.795 197.803 122.88 197.973 122.88 198.144Z" fill="#93D1D7"/>
<path d="M120.405 213.675L118.613 225.024C118.528 225.451 118.187 225.707 117.76 225.621C117.333 225.536 117.077 225.195 117.163 224.768L119.296 213.504C119.381 213.163 119.637 212.992 119.979 213.077C120.235 213.077 120.405 213.333 120.405 213.675Z" fill="#93D1D7"/>
<path d="M130.645 198.059L132.779 209.323C132.864 209.579 132.608 209.835 132.352 209.92C132.096 210.005 131.84 209.749 131.755 209.493L129.963 198.144C129.963 197.973 130.048 197.803 130.219 197.803C130.389 197.803 130.56 197.888 130.645 198.059Z" fill="#93D1D7"/>
<path d="M133.547 213.419L135.68 224.683C135.765 225.109 135.509 225.536 135.083 225.621C134.656 225.707 134.229 225.451 134.144 225.024L132.352 213.675C132.267 213.333 132.523 213.077 132.864 212.992C133.205 212.907 133.547 213.163 133.547 213.419Z" fill="#93D1D7"/>
<path d="M137.899 195.328L143.787 205.141C143.957 205.397 143.872 205.739 143.616 205.824C143.36 205.995 143.019 205.909 142.933 205.653L137.387 195.669C137.301 195.499 137.387 195.328 137.472 195.243C137.557 195.072 137.813 195.157 137.899 195.328Z" fill="#93D1D7"/>
<path d="M145.92 208.726L151.808 218.539C152.064 218.88 151.893 219.392 151.552 219.563C151.211 219.734 150.699 219.648 150.528 219.307L144.981 209.323C144.811 209.067 144.896 208.726 145.237 208.555C145.408 208.384 145.749 208.47 145.92 208.726Z" fill="#93D1D7"/>
<path d="M143.787 190.208L152.661 197.461C152.917 197.632 152.917 197.973 152.747 198.229C152.576 198.485 152.235 198.485 151.979 198.315L143.275 190.805C143.104 190.72 143.104 190.464 143.275 190.293C143.36 190.123 143.616 190.123 143.787 190.208Z" fill="#93D1D7"/>
<path d="M155.904 200.107L164.779 207.36C165.12 207.616 165.12 208.128 164.864 208.469C164.608 208.811 164.096 208.811 163.755 208.555L155.136 201.045C154.88 200.875 154.88 200.448 155.051 200.192C155.307 199.936 155.648 199.936 155.904 200.107Z" fill="#93D1D7"/>
<path d="M147.541 183.467L158.379 187.221C158.635 187.307 158.805 187.648 158.72 187.904C158.635 188.16 158.293 188.331 158.037 188.245L147.371 184.149C147.2 184.064 147.115 183.893 147.2 183.723C147.2 183.467 147.371 183.381 147.541 183.467Z" fill="#93D1D7"/>
<path d="M162.389 188.587L173.227 192.341C173.653 192.512 173.824 192.939 173.739 193.28C173.568 193.707 173.141 193.877 172.8 193.707L162.133 189.611C161.792 189.525 161.707 189.184 161.792 188.843C161.707 188.587 162.048 188.501 162.389 188.587Z" fill="#93D1D7"/>
<path d="M148.736 175.787L160.171 175.616C160.427 175.616 160.683 175.872 160.683 176.128C160.683 176.384 160.427 176.64 160.171 176.64L148.736 176.47C148.565 176.47 148.395 176.299 148.395 176.128C148.395 175.958 148.565 175.787 148.736 175.787Z" fill="#93D1D7"/>
<path d="M164.437 175.531L175.872 175.36C176.299 175.36 176.64 175.701 176.64 176.128C176.64 176.555 176.299 176.896 175.872 176.896L164.437 176.725C164.096 176.725 163.84 176.469 163.84 176.128C163.84 175.787 164.096 175.531 164.437 175.531Z" fill="#93D1D7"/>
<path d="M147.285 168.107L157.952 164.011C158.208 163.925 158.549 164.011 158.635 164.267C158.72 164.523 158.635 164.864 158.379 164.949L147.541 168.704C147.371 168.789 147.2 168.704 147.115 168.533C147.029 168.363 147.115 168.192 147.285 168.107Z" fill="#93D1D7"/>
<path d="M143.36 161.451L152.064 153.941C152.32 153.771 152.576 153.771 152.832 154.027C153.003 154.283 153.003 154.539 152.747 154.795L143.872 162.048C143.701 162.133 143.531 162.133 143.36 161.963C143.189 161.792 143.189 161.621 143.36 161.451Z" fill="#93D1D7"/>
<path d="M155.136 151.211L163.84 143.702C164.181 143.446 164.608 143.446 164.949 143.787C165.205 144.128 165.205 144.555 164.864 144.896L155.989 152.15C155.733 152.32 155.392 152.32 155.136 152.064C154.88 151.808 154.965 151.382 155.136 151.211Z" fill="#93D1D7"/>
<path d="M137.301 156.587L142.848 146.603C143.019 146.347 143.275 146.261 143.531 146.432C143.787 146.603 143.872 146.859 143.701 147.115L137.813 156.928C137.728 157.099 137.557 157.099 137.387 157.013C137.301 156.928 137.216 156.757 137.301 156.587Z" fill="#93D1D7"/>
<path d="M144.896 142.848L150.443 132.864C150.613 132.523 151.125 132.352 151.467 132.608C151.808 132.779 151.979 133.291 151.723 133.632L145.835 143.445C145.664 143.701 145.323 143.787 145.067 143.616C144.896 143.531 144.725 143.189 144.896 142.848Z" fill="#93D1D7"/>
<path d="M129.963 154.027L131.755 142.678C131.84 142.422 132.096 142.166 132.352 142.251C132.608 142.251 132.864 142.592 132.779 142.848L130.645 154.112C130.645 154.283 130.475 154.368 130.219 154.368C130.048 154.368 129.963 154.198 129.963 154.027Z" fill="#93D1D7"/>
<path d="M132.437 138.581L134.229 127.232C134.315 126.805 134.656 126.549 135.083 126.635C135.509 126.72 135.765 127.061 135.68 127.488L133.547 138.752C133.461 139.093 133.205 139.264 132.864 139.179C132.608 139.179 132.352 138.837 132.437 138.581Z" fill="#93D1D7"/>
<path d="M152.235 135.083C152.32 134.741 151.979 134.229 151.637 134.4C150.357 135.253 149.077 134.229 147.883 134.571C144.981 133.632 142.08 132.949 139.008 133.291C137.387 133.12 135.765 132.864 134.144 132.693C134.144 132.523 134.144 132.267 134.144 132.096C134.997 130.645 133.461 130.645 132.864 130.133C132.864 130.048 132.864 130.048 132.864 129.963C133.035 129.877 133.205 129.792 133.376 129.621C136.277 129.877 139.093 129.28 141.909 129.024C142.933 128.939 142.933 128.085 142.763 127.317C144.128 127.232 145.152 126.976 144.555 125.269C144.469 125.013 144.469 124.672 144.384 124.331C144.384 124.16 144.299 123.989 144.299 123.819C143.189 123.307 142.08 124.16 140.971 123.819C140.288 123.648 139.691 123.392 139.008 123.307C136.277 122.965 133.717 121.771 130.901 121.941C128.512 121.685 126.208 121.515 123.819 121.259L122.965 121.173C122.197 120.832 121.344 120.832 120.576 121.173C120.405 121.173 120.235 121.173 119.979 121.259C118.869 121.173 117.845 121.429 116.821 121.685C115.2 122.027 115.456 123.563 115.2 124.672C115.029 125.611 115.797 125.952 116.565 126.208C117.504 126.635 118.528 126.976 119.637 126.72C120.149 126.891 120.661 127.147 121.259 127.317C121.429 128.085 122.112 128.171 122.709 128.427C124.416 129.109 126.208 128.768 127.915 128.683C128.341 129.024 128.683 129.365 129.28 129.365L130.133 130.56C130.56 131.157 130.816 131.755 130.475 132.523C130.475 132.523 130.389 132.523 130.389 132.608C130.219 132.608 130.133 132.608 129.963 132.608C129.963 132.608 129.963 132.523 129.877 132.523C128.085 131.157 126.123 130.645 123.989 131.072C122.709 130.731 121.344 130.901 119.979 130.645C119.04 130.475 118.955 131.499 118.699 132.181C118.443 132.864 119.04 132.949 119.552 133.035C121.259 133.376 123.051 134.144 124.672 132.864C124.757 132.779 124.928 132.779 125.099 132.779C125.099 132.864 125.099 132.949 125.184 133.035C125.867 133.291 126.72 133.12 127.232 133.632C126.635 134.315 126.037 134.912 124.843 134.571C121.429 133.717 118.101 134.656 114.688 135.168C112.299 134.656 110.251 135.68 108.032 136.192C106.411 136.533 105.216 137.301 104.533 139.008C104.021 140.203 104.448 140.373 105.387 140.459C106.752 142.763 108.971 143.275 111.36 143.019C111.531 143.189 111.701 143.445 111.872 143.616C110.933 143.531 109.995 143.787 109.995 144.811C109.995 145.835 111.019 145.835 111.787 145.835C111.957 145.835 112.213 145.92 112.384 146.005C112.384 146.261 112.384 146.517 112.384 146.773C111.104 147.029 111.701 147.541 112.213 148.053C112.469 148.736 112.469 149.419 112.469 150.101C112.469 152.149 112.725 154.197 113.067 156.16C113.067 156.672 113.152 157.184 113.152 157.696C113.067 158.379 113.067 159.061 113.408 159.744C113.408 160.341 113.493 160.939 113.493 161.536C113.493 163.669 113.493 165.803 113.493 167.936C113.493 168.021 113.493 168.192 113.493 168.277C113.579 168.363 113.749 168.448 113.835 168.448C113.749 168.363 113.664 168.363 113.493 168.277C113.323 168.533 113.067 168.789 113.579 169.045C115.115 169.557 115.627 169.131 115.371 167.339C115.456 165.717 115.285 164.096 115.029 162.56C114.517 158.379 114.091 154.197 113.579 150.016C113.493 149.077 113.493 148.309 114.091 147.541C114.773 146.944 115.712 146.944 116.565 146.603C116.651 147.712 117.504 147.456 118.187 147.627C118.272 148.224 118.528 148.651 119.211 148.907C120.491 149.504 121.771 149.504 123.051 149.504C123.051 149.845 122.795 149.931 122.539 150.016C122.197 150.272 121.685 150.357 121.856 150.869C122.027 151.296 122.368 151.467 122.88 151.467C123.136 151.467 123.392 151.467 123.648 151.467C123.733 151.637 123.904 151.808 123.989 151.979C123.648 153.771 123.989 155.477 124.245 157.184C124.245 157.44 124.331 157.781 124.331 158.037C124.16 159.232 124.587 160.427 124.672 161.536C124.672 162.219 124.587 162.901 124.928 163.584C124.843 165.12 125.184 166.656 124.843 168.107C124.672 168.789 124.757 169.131 125.525 169.131C126.208 169.131 126.805 169.216 126.72 168.192C126.549 166.827 126.464 165.461 126.293 164.096C126.123 162.816 125.952 161.451 125.781 160.171C125.611 157.611 124.501 155.136 125.355 152.576C126.037 152.747 126.464 152.235 126.976 151.893C127.659 151.893 128.171 151.552 128.768 151.296C128.768 152.149 128.768 153.003 128.768 153.856C128.597 158.464 128.341 162.987 128.171 167.595C128.171 168.021 128 168.619 128.427 168.704C129.024 168.875 129.707 168.96 130.304 168.619C130.731 168.363 130.304 167.851 130.304 167.424C130.219 166.571 130.133 165.717 130.133 164.864C130.219 161.024 130.389 157.099 130.475 153.259C130.475 153.003 130.56 152.832 130.56 152.576V152.491C130.645 152.064 130.645 151.637 130.731 151.296C132.011 152.149 133.291 151.637 134.571 151.467C134.997 151.381 135.851 151.467 135.595 150.613C135.424 150.016 135.168 149.419 134.229 149.589C133.12 149.76 131.925 149.845 130.731 149.931C130.731 149.845 130.731 149.76 130.645 149.675C130.731 149.248 130.816 148.821 130.987 148.395C131.584 148.309 132.181 148.309 132.523 147.712C133.376 146.603 134.827 147.456 135.851 146.773C136.704 146.517 137.728 146.603 137.728 145.152C137.728 143.787 137.045 143.104 135.765 143.019C135.168 142.933 134.485 142.933 133.888 142.848C133.291 142.507 132.693 142.592 132.096 142.592C131.584 142.592 131.243 142.507 131.328 141.909C132.267 141.995 133.12 141.739 133.888 141.227C134.741 141.397 135.595 141.483 136.448 141.568C136.875 141.824 137.301 142.165 137.813 141.909C138.24 142.08 138.667 142.336 139.093 142.507C139.776 143.189 139.947 143.872 139.776 144.811C139.264 147.541 139.008 150.272 138.667 153.003C138.581 153.173 138.496 153.344 138.496 153.6C138.24 158.037 138.069 162.389 137.813 166.827C137.728 168.875 137.728 168.875 139.861 168.533C139.52 167.253 139.52 165.888 139.605 164.608C139.861 159.744 140.117 154.795 140.373 149.931C140.715 149.163 140.629 148.395 140.629 147.627C140.629 147.541 140.629 147.371 140.629 147.285C140.629 146.859 140.715 146.517 140.715 146.091C141.056 144.555 141.141 143.104 140.971 141.568C141.312 141.568 141.653 141.483 142.08 141.483C142.592 141.483 143.019 141.227 143.104 140.715C143.189 140.203 142.677 140.117 142.336 139.947C142.08 139.861 141.909 139.691 141.653 139.605C141.653 139.52 141.653 139.435 141.653 139.349C144.213 139.52 146.773 139.008 149.248 138.923C150.187 138.923 150.699 138.411 150.699 137.472C151.04 137.472 151.467 137.472 151.808 137.301C153.088 136.704 152.064 135.765 152.235 135.083ZM113.92 143.872C114.005 143.787 114.005 143.616 114.005 143.531V143.445C114.261 143.189 114.603 142.933 114.859 142.677C114.944 142.592 115.029 142.421 115.115 142.336C115.2 142.336 115.2 142.336 115.285 142.421C115.712 142.336 115.968 142.08 116.139 141.739C117.163 141.739 118.272 141.739 119.296 141.653C120.32 141.568 121.429 141.568 122.197 140.715C122.283 140.715 122.368 140.715 122.453 140.629C123.051 140.459 123.648 140.203 124.245 140.117C124.672 140.032 125.269 140.117 125.611 139.776C126.635 139.691 127.829 139.52 128.171 138.581C128.597 137.472 129.365 137.131 130.219 136.875C130.304 136.96 130.304 136.96 130.389 137.045C130.304 137.728 130.219 138.411 130.133 139.093C130.048 139.093 129.963 139.093 129.963 139.093C129.109 139.093 128.512 139.605 128.427 140.373C128.256 141.227 129.024 141.483 129.621 141.653C129.536 141.824 129.536 141.995 129.536 142.165C127.744 142.251 126.037 142.592 124.245 142.507C123.819 142.507 123.307 142.592 122.965 143.019C122.965 143.104 123.051 143.104 123.051 143.189H122.88C122.027 142.507 121.088 142.933 120.149 143.104C120.064 143.104 119.979 143.189 119.808 143.189C119.467 142.933 119.125 142.848 118.699 143.019C117.333 143.701 115.712 143.531 114.517 144.299C114.432 144.299 114.261 144.043 113.92 143.872ZM127.573 149.419C126.976 149.504 126.464 149.76 126.037 150.187C126.037 150.187 126.037 150.187 126.037 150.272C125.781 150.187 125.696 150.187 125.525 150.187C125.525 149.845 125.525 149.589 125.525 149.248C126.549 149.333 127.317 148.48 128.341 148.48C128.341 148.992 128.171 149.333 127.573 149.419ZM135.083 139.179C134.741 139.093 134.315 139.093 134.144 139.435C134.144 139.435 134.144 139.435 134.059 139.435C133.376 139.349 132.693 139.349 132.011 139.349C131.925 139.349 131.755 139.349 131.669 139.349C131.584 139.179 131.584 139.008 131.499 138.923C131.84 138.667 131.584 138.069 132.011 137.899H132.096C132.352 138.155 132.693 138.155 133.035 138.24C134.571 138.752 136.277 138.155 137.813 138.581C138.155 139.093 138.667 139.349 139.264 139.435C139.179 139.776 139.264 140.032 139.435 140.373C139.349 140.288 139.179 140.288 138.923 140.373C138.837 140.288 138.837 140.203 138.752 140.203C137.728 139.52 136.363 139.52 135.083 139.179Z" fill="#0B5287"/>
<path d="M237.227 88.1496C236.629 88.2349 235.947 88.0642 235.435 87.8082C235.008 89.6856 233.131 91.1362 230.827 91.2216C229.547 91.3069 228.437 91.0509 227.499 90.4536C226.901 91.5629 225.707 92.3309 224.171 92.5016C223.061 92.5869 221.952 92.2456 221.184 91.6482C220.501 93.1842 218.88 94.3789 216.747 94.5496C214.699 94.7202 212.907 93.8669 211.968 92.5016C211.285 93.0136 210.432 93.3549 209.493 93.4402C208.64 93.5256 207.872 93.3549 207.189 93.0136C206.677 95.2322 204.544 96.9389 201.728 97.1096C199.68 97.2802 197.717 96.5122 196.523 95.2322C195.328 96.3416 193.621 97.1096 191.659 97.2802C188.416 97.5362 185.429 95.8296 184.32 93.4402C183.637 93.6962 182.955 93.8669 182.187 93.9522C179.627 94.1229 177.408 92.8429 176.555 90.9656C175.616 91.6482 174.507 92.1602 173.141 92.2456C173.056 92.2456 173.056 92.2456 173.056 92.2456C172.032 94.2936 169.643 95.8296 166.827 96.0856C165.376 96.1709 163.925 95.9149 162.731 95.3176C161.792 96.4269 160.341 97.2802 158.549 97.3656C155.733 97.5362 153.173 95.9149 152.661 93.6962C151.723 94.4642 150.528 95.0616 149.077 95.1469C148.309 95.2322 147.541 95.1469 146.859 94.8909C146.005 96.1709 144.384 97.0242 142.507 97.1949C139.605 97.3656 136.96 95.6589 136.533 93.2696C135.424 94.9762 133.291 96.1709 130.816 96.3416C127.744 96.5122 124.928 95.0616 123.648 92.8429C122.88 94.0376 121.344 94.8909 119.552 94.9762C116.821 95.1469 114.347 93.5256 114.091 91.2216C114.005 91.2216 114.005 91.2216 113.92 91.2216C111.872 91.3922 109.995 90.4536 109.056 89.0882C108.885 89.1736 108.629 89.1736 108.459 89.1736C107.093 89.2589 105.899 88.8322 105.131 87.9789C104.704 87.5522 104.363 86.9549 104.277 86.3576C104.107 86.4429 103.851 86.4429 103.595 86.4429C101.973 86.5282 100.608 85.5896 100.523 84.2242C100.437 82.8589 101.547 81.7496 103.168 81.5789C103.765 81.4936 104.448 81.6642 104.96 81.9202C105.387 80.0429 107.264 78.5922 109.568 78.5069C110.848 78.4216 111.957 78.6776 112.896 79.2749C113.493 78.1656 114.688 77.3976 116.224 77.2269C117.333 77.1416 118.443 77.4829 119.211 78.0802C119.893 76.5442 121.515 75.3496 123.648 75.1789C125.611 75.0082 127.488 75.8616 128.427 77.2269C129.109 76.7149 129.963 76.3736 130.901 76.2882C131.755 76.2029 132.523 76.3736 133.205 76.7149C133.717 74.4962 135.851 72.7896 138.667 72.6189C140.715 72.4482 142.677 73.2162 143.872 74.4962C145.067 73.3869 146.773 72.6189 148.736 72.4482C151.979 72.1922 154.965 73.8989 156.075 76.2882C156.672 76.0322 157.44 75.8616 158.208 75.7762C160.768 75.6056 163.072 76.8856 163.84 78.7629C164.693 78.0802 165.888 77.5682 167.253 77.4829C167.339 77.4829 167.339 77.4829 167.339 77.4829C168.363 75.4349 170.752 73.8989 173.568 73.6429C175.019 73.5576 176.469 73.8136 177.664 74.4109C178.603 73.3016 180.053 72.4482 181.845 72.3629C184.661 72.1922 187.221 73.8136 187.733 76.0322C188.672 75.2642 189.867 74.6669 191.317 74.5816C192.085 74.4962 192.853 74.5816 193.536 74.8376C194.389 73.5576 196.011 72.6189 197.888 72.5336C200.789 72.3629 203.435 74.0696 203.861 76.4589C204.971 74.7522 207.104 73.5576 209.579 73.3869C212.651 73.2162 215.467 74.6669 216.747 76.8856C217.515 75.6909 219.051 74.8376 220.843 74.7522C223.573 74.5816 226.048 76.2029 226.304 78.5069C226.389 78.5069 226.389 78.5069 226.475 78.5069C228.523 78.3362 230.4 79.2749 231.339 80.6402C231.509 80.5549 231.765 80.5549 231.936 80.5549C233.301 80.4696 234.496 80.9816 235.264 81.7496C235.691 82.1762 236.032 82.7736 236.117 83.3709C236.288 83.2856 236.544 83.2856 236.8 83.2856C238.421 83.2002 239.787 84.1389 239.872 85.5042C240.043 86.8696 238.848 88.0642 237.227 88.1496Z" fill="#93D1D7"/>
<path d="M200.363 193.195C200.363 208.555 168.107 220.928 128.256 220.928C88.4054 220.928 56.1494 208.469 56.1494 193.195C56.1494 177.835 88.4054 165.461 128.256 165.461C168.107 165.461 200.363 177.92 200.363 193.195Z" fill="#E5E4B6"/>
<path d="M152.405 44.6296C151.808 44.7149 151.125 44.5442 150.613 44.2882C150.187 46.1656 148.309 47.6162 146.005 47.7016C144.725 47.7869 143.616 47.5309 142.677 46.9336C142.08 48.0429 140.885 48.8109 139.349 48.9816C138.24 49.0669 137.131 48.7256 136.363 48.1282C135.68 49.6642 134.059 50.8589 131.925 51.0296C129.877 51.2002 128.085 50.3469 127.147 48.9816C126.464 49.4936 125.611 49.8349 124.672 49.9202C123.819 50.0056 123.051 49.8349 122.368 49.4936C121.856 51.7122 119.723 53.4189 116.907 53.5896C114.859 53.7602 112.896 52.9922 111.701 51.7122C110.507 52.8216 108.8 53.5896 106.837 53.7602C103.595 54.0162 100.608 52.3096 99.4987 49.9202C98.816 50.1762 98.1334 50.3469 97.3654 50.4322C94.8054 50.6029 92.5867 49.3229 91.7334 47.4456C90.7947 48.1282 89.6854 48.6402 88.32 48.7256C88.2347 48.7256 88.2347 48.7256 88.2347 48.7256C87.2107 50.7736 84.8214 52.3096 82.0054 52.5656C80.5547 52.6509 79.104 52.3949 77.9094 51.7976C76.9707 52.9069 75.5201 53.7602 73.728 53.8456C70.912 54.0162 68.3521 52.3949 67.84 50.1762C66.9014 50.9442 65.7067 51.5416 64.2561 51.6269C63.4881 51.7122 62.72 51.6269 62.0374 51.3709C61.184 52.6509 59.5627 53.5042 57.6854 53.6749C54.784 53.8456 52.1387 52.1389 51.712 49.7496C50.5174 51.4562 48.4694 52.6509 45.9947 52.8216C42.9227 52.9922 40.1067 51.5416 38.8267 49.3229C38.0587 50.5176 36.5227 51.3709 34.7307 51.4562C32 51.6269 29.5254 50.0056 29.2694 47.7016C29.184 47.7016 29.184 47.7016 29.0987 47.7016C27.0507 47.8722 25.1734 46.9336 24.2347 45.5682C24.064 45.6536 23.808 45.6536 23.6374 45.6536C22.272 45.7389 21.0774 45.3122 20.3094 44.4589C19.8827 44.0322 19.5414 43.4349 19.456 42.8376C19.2854 42.9229 19.0294 42.9229 18.7734 42.9229C17.152 43.0082 15.7867 42.0696 15.7014 40.7042C15.616 39.3389 16.7254 38.2296 18.3467 38.0589C18.944 37.9736 19.6267 38.1442 20.1387 38.4002C20.5654 36.5229 22.4427 35.0722 24.7467 34.9869C26.0267 34.9016 27.136 35.1576 28.0747 35.7549C28.672 34.6456 29.8667 33.8776 31.4027 33.7069C32.512 33.6216 33.6214 33.9629 34.3894 34.5602C35.072 33.0242 36.6934 31.8296 38.8267 31.6589C40.7894 31.4882 42.6667 32.3416 43.6054 33.7069C44.288 33.1949 45.1414 32.8536 46.08 32.7682C46.9334 32.6829 47.7014 32.8536 48.384 33.1949C48.896 30.9762 51.0294 29.2696 53.8454 29.0989C55.8934 28.9282 57.8561 29.6962 59.0507 30.9762C60.2454 29.8669 61.9521 29.0989 63.9147 28.9282C67.1574 28.6722 70.144 30.3789 71.2534 32.7682C71.8507 32.5122 72.6187 32.3416 73.3867 32.2562C75.9467 32.0856 78.2507 33.3656 79.0187 35.2429C79.872 34.5602 81.0667 34.0482 82.432 33.9629C82.5174 33.9629 82.5174 33.9629 82.5174 33.9629C83.5414 31.9149 85.9307 30.3789 88.7467 30.1229C90.1974 30.0376 91.648 30.2936 92.8427 30.8909C93.7814 29.7816 95.232 28.9282 97.024 28.8429C99.84 28.6722 102.4 30.2936 102.912 32.5122C103.851 31.7442 105.045 31.1469 106.496 31.0616C107.264 30.9762 108.032 31.0616 108.715 31.3176C109.568 30.0376 111.189 29.0989 113.067 29.0136C115.968 28.8429 118.613 30.5496 119.04 32.9389C120.149 31.2322 122.283 30.0376 124.757 29.8669C127.829 29.6962 130.645 31.1469 131.925 33.3656C132.693 32.1709 134.229 31.3176 136.021 31.2322C138.752 31.0616 141.227 32.6829 141.483 34.9869C141.568 34.9869 141.568 34.9869 141.653 34.9869C143.701 34.8162 145.579 35.7549 146.517 37.1202C146.688 37.1202 146.944 37.0349 147.115 37.0349C148.48 36.9496 149.675 37.4616 150.443 38.2296C150.869 38.6562 151.211 39.2536 151.296 39.8509C151.467 39.7656 151.723 39.7656 151.979 39.7656C153.6 39.6802 154.965 40.6189 155.051 41.9842C155.136 43.3496 153.941 44.5442 152.405 44.6296Z" fill="#93D1D7"/>
<mask id="mask0_2_2404" style="mask-type:luminance" maskUnits="userSpaceOnUse" x="16" y="114" width="224" height="137">
<path d="M16.0427 148.821C16.0427 204.971 66.048 250.539 127.744 250.539C189.44 250.539 239.445 204.971 239.445 148.821C239.445 138.581 237.824 128.768 234.667 119.381C146.859 119.381 75.0081 114.432 22.5281 114.432C18.3467 125.184 16.0427 136.704 16.0427 148.821Z" fill="white"/>
</mask>
<g mask="url(#mask0_2_2404)">
<path d="M238.934 177.75C238.251 177.75 237.653 178.262 237.568 178.859C236.885 184.32 227.755 190.464 216.576 190.464C207.019 190.464 194.048 183.723 194.048 177.75C194.048 183.723 182.784 190.464 171.605 190.464C162.389 190.464 148.224 183.894 148.224 177.75C148.224 183.638 135.083 190.464 126.635 190.464C115.456 190.464 104.192 183.638 104.192 177.75C104.192 183.723 92.7575 190.464 81.6642 190.464C70.4855 190.464 59.1362 183.552 59.1362 177.75C59.1362 183.552 47.8722 190.464 36.7788 190.464C25.6002 190.464 16.4695 184.32 15.7868 178.859C15.7015 178.176 15.1042 177.75 14.4215 177.75H14.3362C13.6535 177.75 13.0562 178.262 12.9708 178.859C12.9708 179.03 12.8855 179.2 12.8855 179.456C12.8855 179.542 12.8855 179.627 12.8855 179.712V241.152C12.8855 241.835 13.4828 242.432 14.3362 242.432L239.019 240.555C239.787 240.555 240.469 239.958 240.469 239.275V179.03C240.384 178.262 239.701 177.75 238.934 177.75Z" fill="#0673B9"/>
</g>
<mask id="mask1_2_2404" style="mask-type:luminance" maskUnits="userSpaceOnUse" x="16" y="114" width="224" height="137">
<path d="M16.0427 148.821C16.0427 204.971 66.048 250.539 127.744 250.539C189.44 250.539 239.445 204.971 239.445 148.821C239.445 138.581 237.824 128.768 234.667 119.381C146.859 119.381 75.0081 114.432 22.5281 114.432C18.3467 125.184 16.0427 136.704 16.0427 148.821Z" fill="white"/>
</mask>
<g mask="url(#mask1_2_2404)">
<path d="M240.384 192.768C239.701 192.768 239.104 193.28 239.019 193.877C238.336 199.339 229.205 205.483 218.027 205.483C208.469 205.483 195.499 198.741 195.499 192.768C195.499 198.741 184.235 205.483 173.056 205.483C163.84 205.483 149.675 198.912 149.675 192.768C149.675 198.656 136.533 205.483 128.171 205.483C116.992 205.483 105.728 198.656 105.728 192.768C105.728 198.741 94.2934 205.483 83.2001 205.483C72.0214 205.483 60.6721 198.571 60.6721 192.768C60.6721 198.571 49.4081 205.483 38.3147 205.483C27.1361 205.483 18.0054 199.339 17.3227 193.877C17.2374 193.195 16.6401 192.768 15.9574 192.768H15.8721C15.1894 192.768 14.5921 193.28 14.5067 193.877C14.5067 194.048 14.4214 194.219 14.4214 194.475C14.4214 194.56 14.4214 194.645 14.4214 194.731V256.171C14.4214 256.853 15.0187 257.451 15.8721 257.451L240.555 255.573C241.323 255.573 242.005 254.976 242.005 254.293V194.048C241.835 193.28 241.152 192.768 240.384 192.768Z" fill="#177ABF"/>
</g>
<mask id="mask2_2_2404" style="mask-type:luminance" maskUnits="userSpaceOnUse" x="16" y="114" width="224" height="137">
<path d="M16.0427 148.821C16.0427 204.971 66.048 250.539 127.744 250.539C189.44 250.539 239.445 204.971 239.445 148.821C239.445 138.581 237.824 128.768 234.667 119.381C146.859 119.381 75.0081 114.432 22.5281 114.432C18.3467 125.184 16.0427 136.704 16.0427 148.821Z" fill="white"/>
</mask>
<g mask="url(#mask2_2_2404)">
<path d="M240.043 208.128C239.36 208.128 238.763 208.64 238.677 209.238C237.995 214.699 228.864 220.843 217.685 220.843C208.128 220.843 195.157 214.102 195.157 208.128C195.157 214.102 183.893 220.843 172.715 220.843C163.499 220.843 149.333 214.272 149.333 208.128C149.333 214.016 136.192 220.843 127.744 220.843C116.565 220.843 105.301 214.016 105.301 208.128C105.301 214.102 93.8666 220.843 82.7733 220.843C71.5946 220.843 60.2453 213.931 60.2453 208.128C60.2453 213.931 48.9813 220.843 37.888 220.843C26.7093 220.843 17.5786 214.699 16.896 209.238C16.8106 208.555 16.2133 208.128 15.5306 208.128H15.4453C14.7626 208.128 14.1653 208.64 14.08 209.238C14.08 209.408 13.9946 209.579 13.9946 209.835C13.9946 209.92 13.9946 210.006 13.9946 210.091V271.531C13.9946 272.214 14.592 272.811 15.4453 272.811L240.128 270.934C240.896 270.934 241.579 270.336 241.579 269.654V209.408C241.493 208.726 240.811 208.128 240.043 208.128Z" fill="#2581C4"/>
</g>
<path d="M127.317 244.48C65.1946 244.48 14.6772 193.963 14.6772 131.84C14.6772 131.243 14.6772 130.731 14.6772 130.134V128.939V10.4109H240.043V131.67V131.84C239.957 193.878 189.44 244.48 127.317 244.48ZM19.9679 126.208V128.939C19.9679 129.878 19.9679 130.816 19.9679 131.755C19.9679 190.976 68.0959 239.104 127.317 239.104C186.539 239.104 234.667 190.976 234.667 131.755C234.667 130.816 234.667 129.878 234.667 128.939L234.581 126.208H234.667V15.7016H19.9679V126.208Z" fill="#56A546"/>
<path d="M66.4746 71.9361H55.2106L46.6773 55.8935C46.5066 55.8935 46.3359 55.8935 46.0799 55.8935H40.9599V71.9361H31.4026V26.7095H46.0799C56.1493 26.7095 62.8906 32.5975 62.8906 41.3015C62.8906 46.4215 60.4159 50.8588 56.0639 53.4188L66.4746 71.9361ZM57.3439 68.3521H60.3306L50.9439 51.7975L52.7359 51.0295C56.8319 49.2375 59.1359 45.7388 59.1359 41.3015C59.1359 34.6455 53.9306 30.2935 45.9093 30.2935H34.9866V68.4375H37.3759V52.3095H46.0799C46.5919 52.3095 47.1039 52.3095 47.4453 52.2241L48.6399 52.0535L57.3439 68.3521ZM46.0799 50.4321H37.3759V32.1708H46.0799C52.6506 32.1708 56.7466 35.6695 56.7466 41.3015C56.7466 46.9335 52.6506 50.4321 46.0799 50.4321ZM40.9599 46.9335H46.0799C48.7253 46.9335 53.1626 46.1655 53.1626 41.3015C53.1626 36.4375 48.7253 35.6695 46.0799 35.6695H40.9599V46.9335Z" fill="white"/>
<path d="M84.0533 72.7041C72.8746 72.7041 66.4746 65.9628 66.4746 54.2721V26.7095H75.9466V53.2481C75.9466 62.2935 80.0426 63.4881 84.0533 63.4881C91.1359 63.4881 92.0746 58.2828 92.0746 53.2481V26.7095H101.632V54.3575C101.632 66.0481 95.2319 72.7041 84.0533 72.7041ZM69.9733 30.2935V54.3575C69.9733 64.1708 74.6666 69.2055 84.0533 69.2055C93.2693 69.2055 98.1333 64.0855 98.1333 54.3575V30.2935H95.6586V53.2481C95.6586 62.3788 91.7333 67.0721 84.0533 67.0721C76.2879 67.0721 72.3626 62.4641 72.3626 53.2481V30.2935H69.9733Z" fill="white"/>
<path d="M127.915 72.7042C114.859 72.7042 104.96 62.6349 104.96 49.3229C104.96 36.0109 114.859 26.0269 127.915 26.0269C135.168 26.0269 141.568 29.0135 145.835 34.3895L147.029 35.9255L139.008 41.1309L137.984 39.8509C136.277 37.7175 133.12 35.0722 127.829 35.0722C119.04 35.0722 114.517 42.2402 114.517 49.3229C114.517 56.4055 119.125 63.5735 127.829 63.5735C134.059 63.5735 138.496 60.3309 140.032 54.8695H126.549V45.9095H148.651V71.9362H141.397L141.056 67.9255C137.899 71.0829 133.376 72.7042 127.915 72.7042ZM127.915 29.5255C116.651 29.5255 108.459 37.8029 108.459 49.3229C108.459 60.8429 116.651 69.1202 127.915 69.1202C133.973 69.1202 138.496 66.9015 141.141 62.3789L144.043 57.6855L144.896 68.3522H145.237V49.4082H130.219V51.2855H144.384L144.128 53.3335C142.933 61.8669 136.789 67.1575 128 67.1575C119.637 67.1575 111.104 61.0135 111.104 49.3229C111.104 37.6322 119.637 31.4882 128 31.4882C132.608 31.4882 136.789 33.1949 139.861 36.3522L141.824 35.0722C138.24 31.4882 133.376 29.5255 127.915 29.5255Z" fill="white"/>
<path d="M169.899 71.9361H153.003V26.7095H168.277C178.261 26.7095 184.235 31.4881 184.235 39.5948C184.235 43.0935 183.04 45.9948 180.821 48.1281C184.235 50.2615 186.027 53.6748 186.027 58.1121C185.941 66.6455 179.797 71.9361 169.899 71.9361ZM156.587 68.3521H169.899C177.835 68.3521 182.443 64.5975 182.443 58.0268C182.443 54.0161 180.651 51.4561 176.896 50.0908L175.701 49.6641V47.2748L176.64 46.7628C179.371 45.2268 180.736 42.8375 180.736 39.5948C180.736 33.6215 176.299 30.2935 168.363 30.2935H156.587V68.3521ZM169.899 66.5601H158.976V49.6641H169.387C176.043 49.6641 179.883 52.7361 179.883 58.0268C179.797 63.3175 176.043 66.5601 169.899 66.5601ZM162.475 62.9761H169.899C172.8 62.9761 176.299 62.1228 176.299 58.1121C176.299 56.9175 176.299 53.2481 169.387 53.2481H162.56V62.9761H162.475ZM167.765 48.2988H158.976V32.1708H168.277C176.981 32.1708 178.261 37.1201 178.261 40.1068C178.261 43.0935 176.896 48.2988 167.765 48.2988ZM162.475 44.7148H167.68C174.677 44.7148 174.677 41.3015 174.677 40.1068C174.677 38.8268 174.677 35.7548 168.277 35.7548H162.475V44.7148Z" fill="white"/>
<path d="M208.64 71.9361H199.168V55.0401L182.272 26.7095H193.109L203.947 45.6535L214.699 26.7095H225.621L208.725 55.0401V71.9361H208.64ZM202.667 68.3521H205.056V54.1015L219.307 30.2935H216.747L203.947 52.8215L191.061 30.2935H188.587L202.752 54.1015V68.3521H202.667Z" fill="white"/>
<path d="M76.1174 105.301V108.715H61.5254V82.4321H65.2801V105.301H76.1174Z" fill="white"/>
<path d="M76.6293 109.227H61.0986V81.9202H65.7066V104.875H76.544V109.227H76.6293ZM61.952 108.288H75.6906V105.728H64.8533V82.8588H61.952V108.288Z" fill="white"/>
<path d="M95.9999 102.4H84.6506L82.4319 108.715H78.3359L88.1493 82.3467H92.4159L102.229 108.715H98.1333L95.9999 102.4ZM94.7199 98.9867L90.2826 86.4427L85.9306 98.9867H94.7199Z" fill="white"/>
<path d="M102.912 109.227H97.8774L95.6588 102.912H84.9921L82.7734 109.227H77.7388L87.8934 81.9202H92.8428L102.912 109.227ZM98.5601 108.288H101.632L92.1601 82.8588H88.4908L79.0188 108.288H82.0908L84.3094 101.973H96.2561L98.5601 108.288ZM95.4028 99.4135H85.2481L90.2828 85.0775L95.4028 99.4135ZM86.5281 98.5602H94.1228L90.3681 87.8082L86.5281 98.5602Z" fill="white"/>
<path d="M126.379 82.4321V108.715H123.051L109.397 89.3441V108.715H105.643V82.4321H108.971L122.624 101.803V82.4321H126.379Z" fill="white"/>
<path d="M126.805 109.227H122.88L109.909 90.7948V109.227H105.301V81.9202H109.227L122.197 100.352V81.9202H126.891V109.227H126.805ZM123.307 108.288H125.867V82.8588H122.965V103.253L108.629 82.8588H106.069V108.288H108.971V87.8935L123.307 108.288Z" fill="white"/>
<path d="M152.832 95.5735C152.832 102.997 148.053 108.715 139.093 108.715H131.669V82.4321H139.093C147.968 82.4321 152.832 88.1495 152.832 95.5735ZM148.992 95.5735C148.992 89.6855 145.323 85.8455 139.093 85.8455H135.424V105.387H139.093C145.323 105.301 148.992 101.461 148.992 95.5735Z" fill="white"/>
<path d="M139.093 109.227H131.157V81.9202H139.093C147.712 81.9202 153.259 87.2962 153.259 95.5735C153.259 103.851 147.712 109.227 139.093 109.227ZM132.096 108.288H139.093C147.2 108.288 152.405 103.253 152.405 95.5735C152.405 87.8082 147.2 82.8588 139.093 82.8588H132.096V108.288ZM139.093 105.728H134.997V85.4188H139.093C145.493 85.4188 149.504 89.3442 149.504 95.5735C149.504 101.888 145.493 105.728 139.093 105.728ZM135.851 104.875H139.093C144.981 104.875 148.565 101.291 148.565 95.5735C148.565 89.8562 144.896 86.2722 139.093 86.2722H135.851V104.875Z" fill="white"/>
<path d="M172.032 105.301V108.715H157.184V82.4321H171.691V85.8455H160.939V93.3548H170.837V96.8535H160.939V105.301H172.032Z" fill="white"/>
<path d="M172.544 109.227H156.757V81.9202H172.203V86.2722H161.451V92.9282H171.349V97.2802H161.451V104.875H172.544V109.227ZM157.611 108.288H171.605V105.728H160.512V96.3415H170.411V93.7815H160.512V85.3335H171.264V82.7735H157.611V108.288Z" fill="white"/>
<path d="M193.877 101.461C193.877 105.131 191.317 109.227 184.576 109.227C180.565 109.227 176.384 107.435 175.104 103.253L178.859 102.059C179.2 103.765 181.163 105.643 184.661 105.643C187.563 105.643 190.037 104.363 190.037 101.717C190.037 98.1334 186.88 97.9627 182.699 96.9387C177.408 95.6587 176.213 92.8427 176.213 89.4294C176.213 84.9921 180.053 81.8347 184.917 81.8347C188.672 81.8347 191.829 83.8827 192.853 87.552L189.184 88.4907C188.672 86.9547 187.307 85.4187 184.491 85.4187C181.931 85.4187 179.968 86.9547 179.968 89.5147C179.968 92.8427 183.125 93.3547 186.539 94.1227C191.573 95.3174 193.877 97.1947 193.877 101.461Z" fill="white"/>
<path d="M184.576 109.654C180.736 109.654 176.128 108.032 174.677 103.424L174.507 102.998L179.115 101.547L179.2 102.059C179.541 103.595 181.333 105.302 184.576 105.302C186.965 105.302 189.525 104.363 189.525 101.803C189.525 99.1575 187.819 98.6455 184.149 97.8775C183.637 97.7922 183.04 97.6215 182.528 97.5362C176.469 96.0855 175.701 92.5015 175.701 89.6002C175.701 84.9922 179.627 81.5789 184.832 81.5789C188.928 81.5789 192.171 83.8829 193.195 87.5522L193.365 87.9789L188.843 89.0882L188.757 88.6615C188.331 87.3815 187.221 85.8455 184.491 85.8455C182.101 85.8455 180.395 87.2962 180.395 89.4295C180.395 92.0749 182.528 92.7575 186.112 93.5255L186.624 93.6109C191.317 94.7202 194.389 96.4269 194.389 101.376C194.304 105.216 191.744 109.654 184.576 109.654ZM175.616 103.595C177.067 107.435 181.077 108.8 184.491 108.8C191.061 108.8 193.365 104.875 193.365 101.462C193.365 97.6215 191.488 95.8295 186.283 94.6349L185.771 94.5495C182.613 93.8669 179.371 93.0989 179.371 89.6002C179.371 86.9549 181.419 85.0775 184.405 85.0775C187.477 85.0775 188.843 86.7842 189.355 88.0642L192.171 87.3815C191.061 84.3095 188.331 82.4322 184.747 82.4322C179.968 82.4322 176.469 85.4189 176.469 89.5149C176.469 92.4162 177.237 95.2322 182.613 96.5975C183.211 96.7682 183.723 96.8535 184.235 96.9389C187.648 97.7069 190.293 98.3042 190.293 101.718C190.293 104.363 187.989 106.07 184.491 106.07C181.077 106.07 179.029 104.363 178.347 102.571L175.616 103.595Z" fill="white"/>
<path d="M65.7919 204.459L66.2186 205.909C65.1092 206.08 63.8292 205.824 62.8052 204.885C61.0132 203.349 60.9279 200.789 62.5492 199.083C64.0852 197.291 66.5599 197.12 68.3519 198.656C69.3759 199.509 69.8026 200.704 69.7172 201.899L68.1812 201.643C68.1812 200.96 67.9252 200.277 67.3279 199.765C66.0479 198.656 64.5119 199.083 63.6586 200.107C62.8052 201.131 62.5492 202.667 63.7439 203.776C64.4266 204.459 65.1092 204.629 65.7919 204.459Z" fill="white"/>
<path d="M75.264 209.408C73.8987 211.285 71.4241 211.797 69.4614 210.347C67.5841 208.981 67.2427 206.507 68.6081 204.544C69.9734 202.667 72.448 202.24 74.3254 203.605C76.3734 205.056 76.7147 207.531 75.264 209.408ZM73.984 208.469C74.752 207.36 74.8374 205.824 73.5574 204.8C72.192 203.861 70.7414 204.373 69.9734 205.483C69.2054 206.592 69.1201 208.128 70.4001 209.152C71.7654 210.091 73.216 209.579 73.984 208.469Z" fill="white"/>
<path d="M86.0161 211.029L81.9201 218.027L80.5547 217.259L83.2854 212.651L79.1894 214.784L78.7628 214.528L78.6774 209.92L75.9467 214.528L74.6667 213.76L78.6774 206.848L80.1281 207.616L80.2134 212.48L84.5654 210.261L86.0161 211.029Z" fill="white"/>
<path d="M87.419 211.754L83.9097 218.967L85.2908 219.639L88.8002 212.426L87.419 211.754Z" fill="white"/>
<path d="M94.464 216.406L92.672 215.638L90.112 221.782L88.6614 221.099L91.2214 215.04L89.5147 214.272L90.0267 212.992L95.0614 215.04L94.464 216.406Z" fill="white"/>
<path d="M98.6453 223.318L98.1333 224.683L93.6106 223.147L96.2559 215.552L100.608 217.003L100.181 218.368L97.2799 217.43L96.6826 219.136L99.3279 219.99L98.9013 221.355L96.1706 220.502L95.5733 222.294L98.6453 223.318Z" fill="white"/>
<path d="M110.933 223.659C110.421 225.963 108.544 227.243 105.899 226.731L103.424 226.219L105.131 218.368L107.605 218.88C110.251 219.392 111.445 221.355 110.933 223.659ZM109.397 223.318C109.739 221.526 108.715 220.502 107.264 220.246L106.325 220.075L105.216 225.109L106.155 225.28C107.605 225.622 109.056 225.11 109.397 223.318Z" fill="white"/>
<path d="M116.907 227.072L116.736 228.523L112.043 227.925L113.067 219.904L117.675 220.501L117.504 221.952L114.432 221.525L114.176 223.317L116.992 223.744L116.821 225.195L114.005 224.768L113.749 226.645L116.907 227.072Z" fill="white"/>
<path d="M124.757 223.829C124.672 225.451 123.392 226.56 121.515 226.389L120.405 226.304L120.235 228.779L118.699 228.693L119.211 220.672L121.856 220.843C123.733 220.928 124.843 222.123 124.757 223.829ZM123.136 223.744C123.221 222.891 122.624 222.379 121.685 222.293L120.576 222.208L120.405 224.853L121.515 224.939C122.539 225.024 123.136 224.512 123.136 223.744Z" fill="white"/>
<path d="M130.56 227.413L127.232 227.499L126.72 229.12H125.099L127.829 221.013H129.707L132.693 229.035H131.072L130.56 227.413ZM130.048 226.048L128.768 222.549L127.659 226.048H130.048Z" fill="white"/>
<path d="M139.008 228.352L137.045 225.621H136.96L135.765 225.707L136.021 228.608L134.485 228.779L133.632 220.757L136.363 220.501C138.155 220.331 139.435 221.269 139.605 222.805C139.691 223.829 139.264 224.683 138.411 225.109L140.715 228.096L139.008 228.352ZM135.509 224.427L136.704 224.341C137.472 224.256 138.069 223.829 137.984 223.061C137.899 222.379 137.301 221.952 136.448 222.037L135.253 222.208L135.509 224.427Z" fill="white"/>
<path d="M146.091 220.587L144.213 220.928L145.323 227.414L143.787 227.67L142.677 221.184L140.715 221.526L140.459 220.075L145.835 219.136L146.091 220.587Z" fill="white"/>
<path d="M153.259 224.086L153.6 225.536L148.992 226.646L147.115 218.88L151.552 217.686L151.893 219.136L148.907 219.904L149.333 221.611L152.149 220.928L152.491 222.379L149.76 223.062L150.187 224.854L153.259 224.086Z" fill="white"/>
<path d="M160.939 214.614L163.584 222.208L162.133 222.72L160.341 217.686L159.403 222.123L158.891 222.294L155.307 219.392L157.099 224.427L155.648 224.939L153.003 217.344L154.539 216.832L158.293 219.904L159.403 215.126L160.939 214.614Z" fill="white"/>
<path d="M169.387 217.941L169.984 219.307L165.717 221.269L162.389 213.931L166.571 211.968L167.168 213.333L164.352 214.613L165.12 216.235L167.68 215.125L168.277 216.405L165.717 217.6L166.485 219.307L169.387 217.941Z" fill="white"/>
<path d="M173.653 208.213L177.579 215.211L176.299 215.893L170.581 212.992L173.227 217.685L171.861 218.368L167.936 211.371L169.131 210.688L174.848 213.589L172.288 208.981L173.653 208.213Z" fill="white"/>
<path d="M180.053 205.739L178.432 206.763L182.101 212.31L180.736 213.163L177.152 207.702L175.531 208.726L174.677 207.531L179.2 204.544L180.053 205.739Z" fill="white"/>
<path d="M187.477 206.336L184.832 208.384L185.344 210.005L184.064 211.029L181.419 202.923L182.955 201.728L190.123 206.336L188.843 207.36L187.477 206.336ZM186.197 205.568L183.125 203.52L184.32 207.019L186.197 205.568Z" fill="white"/>
<path d="M193.877 200.96L194.816 201.984L191.403 205.141L185.941 199.168L187.136 198.144L191.573 203.008L193.877 200.96Z" fill="white"/>
<path d="M125.696 209.408H123.989V212.224H121.259V209.408H114.688V207.275L120.405 198.144H123.989V207.104H125.696V209.408ZM121.259 207.019V200.875L117.419 207.019H121.259Z" fill="white"/>
<path d="M139.179 205.141C139.179 208.896 137.643 212.48 133.461 212.48C129.28 212.48 127.744 208.896 127.744 205.141C127.744 201.387 129.28 197.803 133.461 197.803C137.643 197.803 139.179 201.387 139.179 205.141ZM136.448 205.141C136.448 202.837 135.765 200.448 133.461 200.448C131.157 200.448 130.475 202.837 130.475 205.141C130.475 207.445 131.157 209.835 133.461 209.835C135.765 209.835 136.448 207.445 136.448 205.141Z" fill="white"/>
<path d="M127.744 253.099C61.0987 253.099 6.82666 198.827 6.82666 132.096C6.82666 131.413 6.82666 130.645 6.82666 129.963V129.024V2.04812V1.70679H248.747V130.816C248.747 131.243 248.747 131.669 248.747 132.096C248.747 198.827 194.475 253.099 127.744 253.099ZM10.4107 127.232L10.496 129.024C10.496 130.048 10.496 131.072 10.496 132.096C10.496 196.779 63.1467 249.515 127.915 249.515C192.683 249.515 245.333 196.864 245.333 132.096C245.333 131.072 245.333 130.048 245.333 129.024L245.248 127.232H245.333V5.29079H10.4107V127.232Z" fill="#6EC5CF"/>
</svg>
