<svg width="256" height="256" viewBox="0 0 256 256" fill="none" xmlns="http://www.w3.org/2000/svg">
<path d="M128.052 23.0141C136.016 22.9624 143.929 23.7899 151.79 25.238C157.789 26.324 163.633 27.9273 169.426 29.8408C175.063 31.7026 180.441 34.0299 185.716 36.7192C192.75 40.236 199.318 44.4768 205.524 49.2865C210.541 53.217 215.143 57.5612 219.436 62.2158C223.211 66.3531 226.676 70.7491 229.779 75.4036C233.658 81.196 236.968 87.402 239.554 93.8667C245.708 109.123 248.036 125 246.536 141.395C245.864 148.325 244.467 155.1 242.398 161.771C240.226 168.65 237.382 175.269 233.865 181.527C230.814 186.906 227.349 191.974 223.418 196.732C220.264 200.559 216.954 204.179 213.333 207.593C209.299 211.368 205.007 214.833 200.508 218.04C195.956 221.246 191.198 224.194 186.182 226.676C182.975 228.28 179.872 230.193 176.614 231.693C175.632 232.158 174.959 232.934 174.39 233.968C172.373 237.434 170.667 241.105 167.615 243.846C164.202 246.949 160.375 249.38 156.134 251.242C150.394 253.724 144.394 255.121 138.137 255.379C133.948 255.586 129.862 255.121 125.725 254.5C123.552 254.19 121.329 253.828 119.156 253.362C116.571 252.845 114.088 252.121 111.554 251.345C108.606 250.415 105.71 249.328 102.866 248.087C96.3492 245.088 90.2982 241.312 85.3334 235.985C84.6094 235.21 83.8853 234.434 83.3164 233.503C82.3338 231.848 80.5237 231.538 78.8688 230.917C77.3689 230.348 75.7657 229.883 74.4728 229.107C71.8352 227.556 68.9908 226.314 66.3532 224.815C60.354 221.453 54.6651 217.626 49.2865 213.333C45.356 210.179 41.6841 206.817 38.2191 203.145C35.3229 200.094 32.5819 196.836 29.996 193.474C27.7205 190.526 25.6518 187.423 23.7382 184.217C21.3075 180.234 19.2389 176.097 17.3253 171.804C14.8429 166.167 12.9294 160.375 11.533 154.376C8.89542 142.791 8.11966 131.051 9.72289 119.208C10.809 110.985 12.7742 103.021 15.7738 95.3147C17.7391 90.2982 20.118 85.4885 22.7556 80.8339C25.2898 76.3863 28.1342 72.1972 31.289 68.2149C34.9609 63.5087 39.0982 59.1644 43.4942 55.0788C47.6833 51.1483 52.1827 47.6315 56.9407 44.3733C62.2158 40.7531 67.7496 37.6501 73.5419 34.9091C77.3689 33.099 81.2995 31.444 85.3334 30.0477C97.1249 26.0137 109.278 23.6347 121.742 23.0141C122.777 22.9624 123.811 22.9107 124.845 22.9107C125.931 22.9624 127.017 23.0141 128.052 23.0141Z" fill="white"/>
<path d="M128.052 23.0141C136.016 22.9624 143.929 23.7899 151.79 25.238C157.789 26.324 163.633 27.9273 169.426 29.8408C175.063 31.7026 180.441 34.0299 185.716 36.7192C192.75 40.236 199.318 44.4768 205.524 49.2865C210.541 53.217 215.144 57.5612 219.436 62.2158C223.211 66.3531 226.676 70.7491 229.779 75.4036C233.658 81.196 236.968 87.402 239.554 93.8667C245.708 109.123 248.036 125 246.536 141.395C245.864 148.325 244.467 155.1 242.398 161.771C240.226 168.65 237.382 175.269 233.865 181.527C230.814 186.906 227.349 191.974 223.418 196.732C220.264 200.559 216.954 204.179 213.333 207.593C209.299 211.368 205.007 214.833 200.508 218.04C195.905 221.246 191.198 224.194 186.182 226.676C182.975 228.28 179.872 230.193 176.614 231.693C175.632 232.158 174.959 232.934 174.39 233.968C172.373 237.434 170.667 241.105 167.615 243.846C164.202 246.949 160.375 249.38 156.134 251.242C150.394 253.724 144.394 255.121 138.137 255.379C133.948 255.586 129.862 255.121 125.725 254.5C123.552 254.19 121.329 253.828 119.208 253.362C116.622 252.845 114.14 252.121 111.606 251.345C108.658 250.415 105.762 249.328 102.917 248.087C96.4009 245.088 90.35 241.312 85.3852 235.985C84.6611 235.21 83.9371 234.434 83.3682 233.503C82.3856 231.848 80.5755 231.538 78.9205 230.917C77.4207 230.348 75.8175 229.883 74.5246 229.107C71.887 227.556 69.0425 226.314 66.405 224.815C60.4058 221.453 54.7169 217.626 49.3383 213.333C45.4078 210.179 41.7359 206.817 38.2708 203.145C35.3746 200.094 32.6336 196.836 30.0478 193.474C27.7722 190.526 25.7035 187.423 23.79 184.217C21.3593 180.234 19.2906 176.097 17.3771 171.804C14.8946 166.167 12.9811 160.375 11.5847 154.376C8.94717 142.791 8.17142 131.051 9.77465 119.208C10.8607 110.985 12.826 103.021 15.8256 95.3147C17.7908 90.2982 20.1698 85.4885 22.8074 80.8339C25.3415 76.3863 28.186 72.1972 31.3407 68.2149C35.0126 63.5087 39.15 59.1644 43.546 55.0788C47.7351 51.1483 52.2344 47.6315 56.9924 44.3733C62.2676 40.7531 67.8013 37.6501 73.5936 34.9091C77.4207 33.099 81.3512 31.444 85.3852 30.0477C97.1767 26.0137 109.33 23.6347 121.794 23.0141C122.828 22.9624 123.863 22.9107 124.897 22.9107C125.931 23.0141 127.017 23.0141 128.052 23.0141ZM118.329 178.631C116.571 172.994 114.967 167.357 113.364 161.72C111.606 155.41 109.796 149.101 108.141 142.739C107.52 140.257 106.796 137.878 104.986 135.913C103.176 133.999 101.366 132.034 99.2971 130.379C94.2805 126.345 88.5916 123.811 82.1787 122.932C76.3346 122.104 70.6975 122.983 65.112 124.742C63.8191 125.156 62.5779 125.673 61.285 126.138C60.5609 126.397 59.8369 126.345 59.268 125.776C58.7508 125.259 58.1302 124.483 58.2854 123.863C58.4405 123.087 59.2163 122.466 59.8369 122.208C66.5601 119.622 74.3694 118.277 81.6098 118.949C87.1435 119.467 92.6256 121.122 97.3835 123.966C101.469 126.397 105.141 129.81 108.141 133.43C109.692 135.292 110.52 137.257 110.985 139.791C111.709 143.463 112.899 147.032 113.881 150.704C115.536 157.065 117.398 163.375 119.26 169.736C120.656 174.442 123.346 178.89 124.794 183.544L126.914 184.734C126.914 184.734 133.12 186.699 134.516 187.216C140.102 189.078 143.567 190.578 148.635 193.164C151.376 194.56 153.859 196.318 156.341 198.128C159.961 200.818 163.219 203.869 165.961 207.438C168.495 210.747 170.77 214.264 172.373 218.143C173.046 219.798 173.511 221.505 174.028 223.263C174.08 223.522 174.028 224.09 174.649 223.78C176.252 222.953 177.804 222.177 179.407 221.401C184.579 218.971 189.544 216.074 194.25 212.868C198.18 210.179 201.852 207.282 205.369 204.076C209.868 200.042 214.057 195.646 217.781 190.888C221.867 185.665 225.435 180.079 228.435 174.183C230.969 169.167 233.089 163.943 234.693 158.565C236.451 152.669 237.589 146.67 238.158 140.567C238.933 132.499 238.571 124.535 237.33 116.57C236.348 110.364 234.641 104.314 232.417 98.4695C229.883 91.798 226.573 85.5402 222.643 79.5927C220.212 75.9208 217.523 72.4558 214.626 69.0941C209.713 63.4053 204.283 58.3887 198.284 53.8893C193.215 50.0622 187.785 46.6489 182.096 43.7527C177.287 41.2703 172.322 39.0982 167.202 37.3915C160.53 34.8574 153.6 33.099 146.463 32.0646C139.895 31.082 133.379 30.5648 126.759 30.6166C120.553 30.6683 114.45 31.2889 108.348 32.2198C101.314 33.3059 94.5391 35.1677 87.8676 37.4432C84.2991 38.6844 80.7823 40.1325 77.369 41.7875C73.2833 43.7527 69.3528 45.9248 65.5258 48.3038C59.5783 52.0275 54.0445 56.2683 48.9245 61.0263C42.5116 66.9737 36.9262 73.6452 32.2716 81.0408C29.6858 85.1265 27.3585 89.3673 25.445 93.8149C23.79 97.5903 22.2385 101.417 21.2041 105.4C19.9112 110.106 18.8252 114.812 18.2045 119.674C17.0151 128.776 17.2219 137.775 18.6183 146.773C19.4458 151.997 20.8421 157.117 22.5488 162.185C24.6692 168.391 27.4102 174.287 30.7718 179.872C33.3577 184.217 36.3056 188.406 39.5637 192.336C42.7185 196.163 46.1318 199.835 49.8037 203.145C53.9928 206.972 58.4922 210.489 63.2502 213.592C67.5945 216.385 72.0421 218.971 76.6967 221.194C77.007 221.349 77.731 221.608 77.731 221.453C77.731 221.453 77.4724 220.057 77.4724 219.85C77.1104 215.971 77.1621 212.144 78.3516 208.368C79.6963 204.076 81.5064 200.094 84.4543 196.732C89.9363 190.474 97.125 187.733 105.193 186.958C110.054 186.492 114.916 186.647 119.777 187.371C122.363 187.785 124.897 188.354 127.431 189.026C130.017 189.699 132.448 190.94 134.982 191.819C141.085 193.939 146.722 196.939 152.1 200.404C156.083 202.938 159.496 206.3 162.909 209.558C164.978 211.575 166.84 213.799 168.702 216.074C169.477 217.005 170.46 218.04 170.512 218.195C170.356 217.833 166.478 210.799 162.237 206.093C158.668 202.059 154.531 198.697 149.98 195.801C146.98 193.939 143.981 192.44 139.636 190.526C134.206 188.199 121.587 184.682 120.708 184.682M162.806 241.829C162.34 242.243 161.72 242.605 161.668 242.605C158.462 244.208 155.1 245.243 151.583 245.863C148.584 246.432 145.584 246.743 142.533 247.001C139.533 247.26 136.533 247.57 133.534 247.467C127.793 247.26 122.104 246.587 116.415 245.967C108.865 245.088 101.78 242.864 95.108 239.192C91.9532 237.485 89.0054 235.468 86.2126 233.193C86.0575 233.038 85.6955 232.882 85.592 232.934C85.4886 233.038 85.4886 233.4 85.6438 233.606C85.6955 233.71 85.7989 233.813 85.9023 233.968C88.7468 238.261 92.7807 241.157 97.2284 243.588C104.365 247.467 112.071 249.432 119.984 250.725C126.811 251.863 133.741 251.966 140.671 251.345C146.515 250.777 152.152 249.587 157.531 247.208C163.271 244.674 168.184 241.209 171.701 235.882C172.632 234.486 173.615 233.038 173.77 231.383C173.977 229.159 173.408 226.935 172.322 224.97C170.046 220.781 167.047 217.264 163.323 214.264C157.427 209.455 150.756 205.834 143.929 202.524C137.516 199.473 130.896 196.784 124.07 194.767C120.036 193.577 116.002 192.44 111.864 191.871C105.969 191.043 100.021 190.888 94.1771 192.595C90.1949 193.784 86.6781 195.698 83.9888 198.956C80.2134 203.559 79.2308 209.093 79.0757 214.833C79.0239 216.592 79.3343 218.35 79.5928 220.057C79.7997 221.608 80.2652 223.108 81.5581 224.349C85.6955 228.383 90.6603 231.021 95.9355 233.193C98.2627 234.175 100.693 235.003 103.072 235.779C104.779 236.347 106.537 236.865 108.296 237.227C110.675 237.744 113.106 238.313 115.485 238.778C118.381 239.347 121.277 239.968 124.225 240.33C129.19 241.002 134.206 241.416 139.223 241.623C147.032 241.933 154.841 241.829 162.599 240.537C162.961 240.485 163.788 240.588 163.788 240.588" fill="#273476"/>
<path d="M134.31 219.85C141.24 220.781 150.445 223.573 160.996 226.573C160.996 226.573 128.104 208.989 120.501 216.074C118.588 217.833 118.691 218.35 118.846 218.764C119.26 219.695 124.432 218.505 134.31 219.85Z" fill="#DBB33D"/>
<path d="M128.827 221.97C128.827 221.97 133.379 227.504 134.568 230.917C135.809 234.331 133.172 231.021 131.982 229.314C130.844 227.607 125.518 223.16 125.518 223.16L128.827 221.97Z" fill="#DBB33D"/>
<path d="M113.209 214.937C113.209 214.937 104.934 216.643 104.262 218.402C103.59 220.108 102.865 221.505 103.279 222.332C104.417 220.832 106.434 219.798 109.123 219.229C112.071 218.608 113.209 214.937 113.209 214.937Z" fill="#DBB33D"/>
<path d="M115.278 214.523C115.278 214.523 113.364 209.713 108.503 204.903C104.21 200.714 98.7799 197.249 90.5569 194.819C95.6769 195.75 107.003 200.404 111.502 203.455C119.57 208.937 120.553 214.109 120.553 214.109L115.278 214.523Z" fill="#DBB33D"/>
<path d="M136.999 240.899C133.017 235.779 125.828 230.969 116.933 228.073C108.399 225.332 100.125 224.918 93.9702 226.521C100.28 226.056 108.244 226.521 116.364 229.159C125.156 232.003 131.775 236.192 136.999 240.899Z" fill="#DBB33D"/>
<path d="M183.958 102.245C185.096 101.883 186.337 101.728 187.475 101.262C190.94 99.8659 192.854 96.8145 192.492 93.0392C192.44 92.522 192.698 92.2634 193.009 91.9531C195.129 90.1948 195.439 87.402 193.733 85.2816C193.371 84.8162 193.267 84.6093 193.94 84.299C196.577 83.0578 196.991 80.9374 195.388 78.5067C194.043 76.5414 192.285 75.4036 190.113 74.783C189.13 74.4727 188.613 73.5935 187.94 72.9212C187.009 72.042 186.337 71.0594 186.027 69.7148C185.406 67.2323 184.579 64.7499 182.924 62.6812C182.096 61.6469 180.855 61.0263 179.924 60.1471C179.407 57.0958 178.942 53.9927 178.424 50.9414C178.373 50.6311 178.166 50.2691 178.424 50.0105C178.735 49.7519 178.993 50.1139 179.304 50.2174C184.786 52.9067 189.957 56.1649 194.974 59.7333C202.266 64.9568 208.731 71.0594 214.42 77.9895C218.557 83.0061 222.074 88.4364 225.022 94.2287C228.383 100.848 230.917 107.882 232.314 115.174C234.02 124.173 234.279 133.223 232.986 142.377C232.055 148.894 230.452 155.203 228.125 161.358C226.263 166.219 223.987 170.874 221.298 175.321C215.712 184.63 208.576 192.595 200.146 199.421C195.336 203.3 190.164 206.662 184.837 209.713C183.7 210.385 182.51 210.954 181.321 211.575C181.062 211.678 180.803 211.989 180.545 211.73C180.338 211.523 180.493 211.265 180.493 211.006C182.717 199.059 183.493 186.958 184.01 174.856C184.837 156.186 184.63 137.516 184.527 118.794C184.475 113.364 184.268 107.779 183.958 102.245Z" fill="#E30B1A"/>
<path d="M67.129 117.036C65.474 117.863 63.7157 118.277 62.009 118.846C60.2506 119.415 58.2854 120.087 57.4579 121.949C56.6304 123.811 56.7338 125.88 58.3371 127.483C59.8369 128.983 62.1124 128.569 63.9225 128C64.9569 127.69 65.8878 127.121 66.9221 126.914C66.9738 127.431 67.0256 128 67.0256 128.517C66.9738 139.792 66.9738 151.118 67.2324 162.392C67.5427 175.735 67.9565 189.078 69.5597 202.318C69.9217 205.162 70.3355 208.006 70.6975 210.851C70.7492 211.161 70.9561 211.523 70.594 211.73C70.3355 211.885 70.0769 211.627 69.8183 211.472C59.5783 205.679 50.5278 198.491 42.9771 189.44C38.3742 183.958 34.4955 178.011 31.3407 171.598C29.1169 167.15 27.2033 162.495 25.807 157.737C21.8765 144.136 20.7387 130.327 23.1177 116.26C24.1003 110.571 25.6001 105.038 27.7205 99.6073C29.634 94.6424 32.013 89.9362 34.754 85.3851C38.8914 78.455 43.9597 72.3523 49.6486 66.6635C49.8037 66.5083 50.3726 65.8877 50.3726 65.8877C50.3726 65.8877 49.8555 66.8186 49.752 67.0255C49.028 68.7321 49.1314 70.1285 50.2692 71.4731C51.6138 73.0247 53.9411 73.6453 55.9064 72.9729C60.354 71.4732 64.9569 70.7491 69.5597 69.8182C69.7666 69.7665 70.1803 69.7148 70.1803 69.7148C69.3011 77.6275 68.5254 85.7471 68.1116 93.7115C67.6979 101.469 67.2841 109.227 67.129 117.036Z" fill="#273476"/>
<path d="M71.3697 60.1988C68.6287 60.716 65.8877 61.2331 63.1467 61.7503C59.3713 62.4226 55.234 63.7156 51.6138 64.9051C51.6138 64.9051 52.5964 63.9224 52.9584 63.6121C57.1992 59.8368 61.7503 56.4234 66.56 53.3721C68.3184 52.2343 70.232 51.2517 72.0421 50.2174C72.2489 50.1139 72.4558 49.9071 72.7144 50.0622C73.0764 50.2691 72.8695 50.5794 72.8178 50.838C72.3006 53.8893 71.68 57.044 71.3697 60.1988Z" fill="#273476"/>
<path d="M49.7001 67.0255L50.3724 65.836C50.4759 65.7325 50.631 65.5257 50.8896 65.2671C51.1482 65.0602 51.4068 64.9051 51.7171 64.8016C51.8722 64.7499 51.9757 64.6982 52.0274 64.5948C55.6476 63.4053 59.3712 62.3709 63.1466 61.6986C65.8876 61.1814 68.6286 60.6643 71.3696 60.1471C75.2484 59.8885 79.0755 59.5265 82.9542 59.5265C85.9538 59.5265 88.9534 59.6816 91.953 59.8885C97.4868 60.354 102.865 61.5434 108.037 63.457C116.312 66.5083 123.449 71.2146 129.138 78.0929C133.327 83.1095 136.844 88.5915 139.481 94.5907C142.17 100.745 143.722 107.21 143.618 113.985C143.618 114.192 143.463 114.554 143.774 114.657C144.136 114.76 144.187 114.45 144.239 114.243C146.256 109.278 147.963 104.21 148.945 98.8832C150.031 92.9358 151.997 87.3503 154.893 82.0752C155.979 80.1099 157.22 78.1964 158.772 76.5414C159.289 75.9725 159.341 75.5588 158.772 75.0416C157.272 73.697 156.031 72.1455 155.358 70.1802C154.169 66.7152 156.237 63.095 159.858 62.4226C160.892 62.2158 161.926 62.0606 162.961 62.1641C163.478 62.2158 163.788 62.0606 164.15 61.6469C166.167 59.1645 169.063 58.3887 172.166 59.5265C173.614 60.0436 174.959 60.8711 176.717 60.2505C177.648 59.8885 178.786 60.1988 179.872 60.2505C179.924 60.2505 179.924 60.2505 179.924 60.3022C180.855 61.1814 182.044 61.7503 182.924 62.8364C184.578 64.9051 185.406 67.3875 186.027 69.8699C186.337 71.2146 187.009 72.1972 187.94 73.0764C188.612 73.7487 189.13 74.6279 190.112 74.9382C192.284 75.5588 194.094 76.6449 195.387 78.6618C196.991 81.0925 196.577 83.2129 193.939 84.4542C193.267 84.7645 193.37 84.9713 193.732 85.4368C195.439 87.5055 195.077 90.3499 193.008 92.1083C192.646 92.4186 192.44 92.6772 192.491 93.1944C192.853 96.9697 190.94 100.021 187.475 101.417C186.337 101.883 185.147 102.038 184.01 102.4C183.958 102.4 183.958 102.4 183.906 102.4C183.544 102.193 183.182 102.245 182.82 102.245C181.113 102.245 179.665 101.521 178.372 100.538C177.493 99.8659 177.39 99.8659 177.235 100.952C176.821 103.745 176.769 106.537 176.821 109.33C176.821 112.381 176.976 115.433 176.873 118.484C176.717 125.88 175.735 133.172 173.356 140.257C171.494 145.842 168.96 151.066 165.495 155.772C160.892 161.978 155.1 166.84 148.17 170.201C141.498 173.408 131.672 174.856 124.38 175.683L126.966 184.889L124.018 184.941C124.018 184.941 123.656 183.958 123.501 183.493C122.052 178.786 120.553 174.132 119.156 169.425C117.294 163.116 115.433 156.755 113.778 150.394C112.847 146.773 111.606 143.205 110.882 139.481C110.364 136.947 108.916 135.085 107.365 133.172C104.365 129.5 100.745 126.5 96.711 124.07C91.953 121.225 86.7296 119.57 81.1959 119.053C73.9555 118.381 67.0254 119.829 60.2504 122.363C59.5781 122.621 58.9575 122.88 58.8023 123.656C58.6472 124.276 58.6472 124.949 59.1643 125.466C59.7332 126.035 60.4573 126.035 61.1813 125.828C62.4742 125.414 63.7155 124.845 65.0084 124.432C70.5938 122.725 76.231 121.846 82.0751 122.621C88.488 123.501 94.1252 126.035 99.1934 130.069C101.262 131.724 103.072 133.689 104.882 135.602C106.692 137.568 107.934 139.895 108.554 142.377C110.209 148.739 112.071 155.152 113.881 161.461C115.484 167.098 117.036 172.787 118.794 178.424C119.363 180.338 119.984 183.131 120.708 184.992L117.967 185.096C117.967 185.096 114.553 173.563 113.312 168.96C111.968 164.099 110.52 159.237 109.175 154.376C107.985 149.98 106.848 145.532 105.71 141.084C105.399 139.895 104.831 138.809 104.055 137.878C99.6589 132.293 94.1769 128.207 87.3502 126.19C82.3854 124.742 77.2654 124.638 72.1454 125.724C70.387 126.086 68.6803 126.5 66.9736 127.121C65.9393 127.328 65.0084 127.897 63.974 128.207C62.1639 128.724 59.5781 129.138 58.0783 127.638C56.5268 126.035 56.6819 124.018 57.5094 122.104C58.3369 120.242 60.3021 119.622 62.0605 119.001C63.7672 118.432 65.5256 118.019 67.1805 117.191H67.2322C67.4908 117.243 67.7494 117.295 68.0597 117.191C72.766 115.95 77.5757 115.64 82.4371 115.95C88.6949 116.415 94.3837 118.484 99.7106 121.691C103.848 124.225 107.416 127.379 110.52 131.103C112.174 133.12 113.829 135.24 114.398 137.93C114.864 140.309 115.639 142.636 116.26 144.963C117.501 149.721 118.898 154.479 120.191 159.237C120.811 161.461 121.432 163.737 122.052 165.96C122.208 166.426 122.363 166.891 122.363 166.891C122.363 166.891 126.862 166.322 128.776 166.116C134.93 165.443 140.826 163.737 146.204 160.737C150.755 158.203 154.686 154.841 157.841 150.652C162.702 144.136 165.495 136.792 166.84 128.827C167.719 123.811 167.874 118.794 167.77 113.726C167.667 109.692 167.615 105.606 167.977 101.573C168.288 97.8489 168.753 94.1253 170.615 90.8154C172.115 88.0744 174.132 86.0057 177.442 85.954C178.89 85.954 179.51 85.5402 180.027 84.2473C180.493 83.1095 181.372 82.1269 182.044 81.1443C182.251 80.8857 182.51 80.6271 182.251 80.3168C181.372 79.0756 180.131 78.2998 179.045 77.3172C178.476 76.8517 177.907 77.3172 177.286 77.3689C176.976 77.3689 176.717 77.4206 176.407 77.3689C173.149 77.0586 170.511 78.4032 168.081 80.3685C166.115 81.9717 164.667 83.9887 163.374 86.1608C161.306 89.6259 159.961 93.3495 158.978 97.2283C157.841 101.676 157.324 106.227 155.772 110.571C155.307 111.864 154.841 113.209 154.324 114.502C152.152 120.087 149.566 125.518 144.963 129.552C142.274 131.931 139.223 133.275 135.551 132.913C132.706 132.655 129.965 129.034 131.827 125.931C133.172 123.707 133.741 121.173 134.258 118.639C135.344 112.899 134.413 107.261 132.551 101.831C130.948 96.9697 128.517 92.522 125.569 88.3329C123.914 86.0057 122.208 83.6784 120.191 81.6614C117.036 78.5067 113.416 75.9725 109.382 74.0073C104.675 71.68 99.7106 70.2837 94.5389 69.5596C90.505 68.9907 86.4193 68.6804 82.3336 68.8356C78.7134 68.9907 75.0415 69.3527 71.4213 69.6113C71.0593 69.663 69.9732 69.8699 69.8181 69.8699C65.2153 70.8008 60.6124 71.5766 56.1647 73.0247C54.1995 73.697 51.8722 73.0764 50.5276 71.5249C49.0795 70.1802 48.9761 68.7321 49.7001 67.0255ZM187.578 81.196C186.906 81.8683 186.389 82.0235 185.871 82.2303C184.785 82.6958 183.544 83.0061 183.596 84.5576C183.596 84.8162 183.389 84.9196 183.182 85.023C181.786 86.1608 181.734 87.0917 183.027 88.3329C184.32 89.5742 185.354 91.074 186.078 92.7289C186.389 93.4529 186.595 94.2804 186.027 94.9527C184.941 96.3491 182.355 96.1422 181.475 94.6424C180.855 93.6081 180.596 92.4703 180.545 91.2808C180.441 89.781 179.821 89.1604 178.372 88.9536C176.407 88.695 174.235 89.8845 173.201 91.7463C171.597 94.6942 170.925 97.9006 170.615 101.211C170.305 104.986 170.305 108.813 170.408 112.588C170.615 119.467 170.253 126.345 168.65 133.12C167.15 139.585 164.667 145.636 160.84 151.014C156.91 156.6 151.842 160.996 145.635 164.047C142.015 165.857 138.24 167.15 134.309 168.029C130.793 168.805 127.276 169.322 123.656 169.477C122.363 169.529 121.484 170.305 121.535 171.287C121.587 172.322 122.414 172.994 123.759 172.891C124.949 172.839 126.19 172.735 127.379 172.632C135.809 171.908 143.722 169.581 150.911 165.133C156.806 161.461 161.616 156.6 165.236 150.704C167.719 146.722 169.581 142.429 170.977 137.878C173.252 130.482 174.028 122.88 173.873 115.174C173.77 109.589 173.511 104.003 174.597 98.4695C174.907 96.7628 175.269 95.0045 176.252 93.5047C176.407 93.2461 176.562 92.8841 176.976 92.9875C177.338 93.0909 177.286 93.4529 177.338 93.7115C177.7 95.3665 178.269 96.918 179.665 98.0558C181.889 99.9176 185.303 99.8659 187.837 98.1075C190.061 96.556 190.319 93.2978 189.078 90.8154C188.974 90.5568 188.664 90.3499 188.974 90.0396C189.181 89.8327 189.44 89.9879 189.698 90.0913C190.526 90.5568 191.25 90.2982 191.767 89.6259C192.388 88.8501 192.284 87.8675 191.56 87.1952C190.94 86.6263 190.267 86.1608 189.647 85.6437C188.819 84.9713 188.819 84.8162 189.854 84.4024C190.991 83.937 192.181 83.5233 193.319 83.0578C196.008 82.0235 195.439 79.8513 193.474 78.9204C193.319 78.8687 193.164 78.817 193.008 78.7136C191.612 78.1964 190.164 77.9378 188.716 77.8861C188.25 77.8344 187.888 77.6792 187.63 77.2655C186.854 75.9725 185.768 74.9899 184.682 74.0073C184.165 73.5418 183.854 73.0247 183.699 72.3006C183.337 70.7491 182.924 69.2493 182.406 67.7495C181.889 66.3014 181.062 65.0602 179.924 64.0259C178.734 62.9915 176.717 62.8364 175.58 63.8707C174.856 64.543 174.39 64.3879 173.77 63.8707C172.425 62.6812 170.822 62.1123 169.012 62.1641C167.15 62.2158 165.909 63.3536 166.012 64.8533C166.064 65.7843 165.702 65.7325 165.029 65.5774C163.53 65.2154 161.978 65.0085 160.478 65.4222C157.892 66.0946 157.013 68.0598 158.254 70.4388C159.341 72.5075 161.151 73.8521 163.012 75.1451C163.685 75.6105 163.736 75.9208 163.064 76.438C161.771 77.3689 160.789 78.6101 159.858 79.8513C156.548 84.0921 154.531 88.9535 152.928 94.0735C151.376 98.9867 150.962 104.107 149.204 108.968C147.394 113.933 145.532 118.846 142.17 122.983C141.343 123.966 140.412 124.897 139.378 125.621C139.119 125.828 138.861 126.138 138.55 125.88C138.24 125.621 138.498 125.311 138.602 125C139.067 123.707 139.533 122.363 139.74 120.966C141.188 112.743 140.153 104.779 136.895 97.0731C134.309 91.0222 130.793 85.4885 126.552 80.4202C120.966 73.697 113.881 69.1459 105.658 66.2497C98.2625 63.6639 90.6084 62.5261 82.8508 62.5778C72.5074 62.5778 62.3708 64.2327 52.4411 67.1806C51.4068 67.4909 50.8379 68.4218 51.0965 69.301C51.4068 70.4388 52.3377 70.956 53.5272 70.5422C55.4407 69.8699 57.4577 69.4562 59.4229 68.939C65.9393 67.3358 72.5074 66.4566 79.1789 66.2497C89.0569 65.8877 98.728 66.8703 107.882 70.8525C111.554 72.4558 114.967 74.4727 118.07 77.0069C121.07 79.4376 123.604 82.282 125.879 85.3851C130.017 90.9705 133.327 96.918 135.24 103.59C137.568 111.813 137.412 119.88 133.482 127.638C133.016 128.517 133.327 129.138 133.947 129.758C134.413 130.224 135.033 130.276 135.654 130.327C138.292 130.482 140.412 129.19 142.377 127.638C144.808 125.724 146.463 123.139 147.963 120.501C149.773 117.346 151.169 114.036 152.307 110.571C152.876 108.761 153.652 107.003 153.962 105.141C154.583 101.366 155.462 97.6937 156.548 94.0735C158.048 89.1604 160.168 84.5576 163.633 80.6788C166.995 76.9035 171.132 74.4727 176.407 74.7313C177.493 74.783 178.321 74.1624 178.424 73.2315C178.528 72.2489 177.855 71.4214 176.769 71.2663C176.149 71.2146 175.528 71.2146 174.959 71.2146C174.701 71.2146 174.442 71.1111 174.442 70.8008C174.442 70.4388 174.442 69.9733 174.597 69.663C174.752 69.4562 175.063 69.7148 175.218 69.8699C175.838 70.3871 176.459 70.3354 177.131 69.9733C177.752 69.6113 177.959 69.0424 177.907 68.3184C177.907 68.0081 177.648 67.5944 178.062 67.4909C178.528 67.3875 178.579 67.9047 178.683 68.215C179.51 69.9733 180.079 71.8352 180.338 73.7487C180.493 74.8865 181.01 75.714 181.993 76.3863C183.13 77.162 184.216 78.0929 184.785 79.2824C185.354 80.3685 185.716 81.4546 187.578 81.196Z" fill="#E4C002"/>
<path d="M187.578 81.196C185.716 81.4546 185.354 80.3685 184.785 79.2307C184.216 78.0412 183.079 77.1103 181.993 76.3346C181.062 75.6622 180.493 74.8348 180.338 73.697C180.079 71.7834 179.51 69.9216 178.683 68.1632C178.527 67.8529 178.527 67.3358 178.062 67.4392C177.648 67.5426 177.907 68.0081 177.907 68.2667C177.959 68.9907 177.752 69.5596 177.131 69.9216C176.459 70.2836 175.838 70.3354 175.218 69.8182C175.062 69.663 174.7 69.3527 174.597 69.6113C174.442 69.9216 174.442 70.3354 174.442 70.7491C174.442 71.0594 174.649 71.1628 174.959 71.1628C175.58 71.1628 176.2 71.1628 176.769 71.2146C177.907 71.3697 178.579 72.1972 178.424 73.1798C178.321 74.1107 177.441 74.7313 176.407 74.6796C171.08 74.421 166.995 76.8517 163.633 80.6271C160.168 84.5059 158.047 89.1087 156.548 94.0218C155.462 97.642 154.582 101.366 153.962 105.089C153.652 106.951 152.876 108.71 152.255 110.52C151.169 113.985 149.721 117.295 147.911 120.449C146.411 123.087 144.756 125.673 142.325 127.586C140.36 129.138 138.24 130.431 135.602 130.276C134.982 130.224 134.361 130.172 133.896 129.707C133.275 129.086 132.965 128.465 133.43 127.586C137.361 119.829 137.516 111.813 135.188 103.538C133.275 96.8146 129.965 90.8671 125.828 85.3333C123.5 82.2303 121.018 79.3859 118.018 76.9552C114.915 74.421 111.502 72.404 107.83 70.8008C98.6244 66.8186 88.9533 65.836 79.1271 66.198C72.4556 66.4566 65.8358 67.284 59.3711 68.8873C57.4059 69.4045 55.3889 69.7665 53.4754 70.4905C52.2859 70.9043 51.3549 70.3871 51.0446 69.2493C50.7861 68.3701 51.4067 67.4392 52.3893 67.1289C62.319 64.181 72.4556 62.5261 82.799 62.5261C90.6083 62.5261 98.2107 63.6121 105.606 66.198C113.829 69.0942 120.915 73.6453 126.5 80.3685C130.689 85.4368 134.258 90.9188 136.843 97.0214C140.102 104.727 141.084 112.692 139.688 120.915C139.429 122.311 139.016 123.604 138.55 124.949C138.447 125.259 138.136 125.569 138.498 125.828C138.809 126.086 139.119 125.724 139.326 125.569C140.36 124.794 141.343 123.914 142.119 122.932C145.48 118.794 147.342 113.881 149.152 108.916C150.91 104.055 151.324 98.935 152.876 94.0218C154.479 88.9535 156.496 84.0404 159.806 79.7996C160.788 78.5584 161.771 77.3172 163.064 76.3863C163.736 75.9208 163.685 75.5588 163.012 75.0933C161.151 73.8004 159.34 72.4041 158.254 70.3871C157.013 68.0081 157.841 66.0946 160.478 65.3705C162.03 64.9568 163.529 65.1636 165.029 65.5257C165.702 65.6808 166.064 65.7325 166.012 64.8016C165.908 63.3018 167.201 62.2158 169.012 62.1123C170.822 62.0606 172.425 62.6295 173.718 63.819C174.338 64.3879 174.804 64.4913 175.528 63.819C176.666 62.7847 178.683 62.9398 179.872 63.9742C181.062 64.9568 181.889 66.2497 182.355 67.6978C182.872 69.1976 183.285 70.6974 183.647 72.2489C183.803 72.9729 184.113 73.4901 184.63 73.9556C185.716 74.9382 186.802 75.9208 187.578 77.2137C187.837 77.6792 188.199 77.8344 188.716 77.8344C190.164 77.8861 191.56 78.1447 192.905 78.6618C193.319 78.817 193.784 79.0238 194.146 79.3341C195.646 80.5754 195.387 82.1786 193.577 82.9026C192.336 83.4198 191.043 83.8853 189.75 84.4024C188.767 84.8162 188.716 84.9713 189.543 85.6437C190.164 86.1608 190.836 86.678 191.457 87.1952C192.181 87.8675 192.233 88.8501 191.664 89.6259C191.146 90.2982 190.422 90.6085 189.595 90.0913C189.388 89.9879 189.13 89.8327 188.871 89.9879C188.561 90.2465 188.871 90.5051 188.974 90.7636C190.164 93.2461 189.905 96.5043 187.733 98.0558C185.199 99.8142 181.786 99.9176 179.562 98.0041C178.165 96.8146 177.597 95.3148 177.235 93.6598C177.183 93.4012 177.235 93.0392 176.873 92.9358C176.459 92.8323 176.304 93.1944 176.148 93.4529C175.218 95.0045 174.856 96.7111 174.494 98.4178C173.407 103.952 173.666 109.537 173.769 115.174C173.925 122.88 173.149 130.482 170.873 137.878C169.477 142.377 167.615 146.67 165.133 150.704C161.513 156.6 156.703 161.461 150.807 165.133C143.618 169.581 135.706 171.908 127.276 172.632C126.086 172.735 124.845 172.839 123.656 172.891C122.311 172.942 121.483 172.322 121.432 171.287C121.38 170.305 122.311 169.581 123.552 169.477C127.121 169.27 130.689 168.753 134.206 168.029C138.136 167.202 141.912 165.857 145.532 164.047C151.686 160.996 156.755 156.6 160.737 151.014C164.564 145.584 167.046 139.585 168.546 133.12C170.098 126.345 170.511 119.518 170.304 112.588C170.201 108.761 170.201 104.986 170.511 101.211C170.77 97.9006 171.494 94.6941 173.097 91.7463C174.132 89.8845 176.304 88.6432 178.269 88.9535C179.717 89.1604 180.338 89.8327 180.441 91.2808C180.493 92.4703 180.803 93.6081 181.372 94.6424C182.251 96.1422 184.837 96.3491 185.923 94.9527C186.492 94.2287 186.285 93.4529 185.975 92.7289C185.251 91.074 184.216 89.6259 182.923 88.3329C181.631 87.0917 181.682 86.1608 183.079 85.023C183.234 84.8679 183.492 84.7645 183.492 84.5576C183.441 83.0061 184.682 82.6958 185.768 82.2303C186.388 82.0234 186.906 81.8683 187.578 81.196ZM162.702 68.6804C162.288 68.6804 161.926 68.577 161.668 68.8873C161.513 69.0942 161.616 69.301 161.771 69.4562C162.65 70.2319 163.426 71.1111 164.357 71.8869C165.908 73.1281 167.46 73.8521 169.322 72.4041C169.787 72.042 170.873 72.0937 170.873 71.6283C170.873 70.956 169.891 71.0077 169.322 70.7491C167.201 69.6113 164.978 68.939 162.702 68.6804Z" fill="#273476"/>
<path d="M162.702 68.6804C164.978 68.939 166.943 69.5079 169.167 70.4388C169.787 70.6974 170.925 71.0077 170.925 71.6283C170.925 72.0937 168.495 73.0246 167.926 73.3867C166.581 74.2141 165.96 73.1281 164.409 71.8351C163.478 71.1111 162.702 70.1802 161.823 69.4044C161.668 69.2493 161.564 69.0424 161.72 68.8356C161.926 68.577 162.288 68.6804 162.702 68.6804Z" fill="#E4C002"/>
<path d="M17.1183 70.9043L15.2048 70.4905L11.9466 75.5588L13.1361 77.162C13.6015 77.7826 13.9118 78.2481 14.0153 78.5584C14.1187 78.8687 14.067 79.179 13.8084 79.5927C13.6015 79.903 13.2912 80.1099 12.9292 80.2134C12.5672 80.3168 12.2052 80.2651 11.8949 80.0582C11.7397 79.9548 11.5846 79.7996 11.4294 79.6445C11.2743 79.4893 11.1191 79.2307 10.8605 78.8687L4.91305 70.594C4.75789 70.3354 4.55103 70.0768 4.29244 69.7148C4.03385 69.4045 3.8787 69.0942 3.77527 68.7839C3.67183 68.5253 3.62012 68.215 3.62012 67.9047C3.62012 67.5944 3.77527 67.2323 3.98214 66.922C4.18901 66.56 4.44759 66.3014 4.75789 66.1463C5.01648 65.9911 5.32678 65.8877 5.63709 65.8877C5.94739 65.8877 6.25769 65.8877 6.51628 65.9394C6.82658 65.9911 7.24032 66.0428 7.70577 66.1463L17.7389 67.9564C18.5147 68.1115 19.0318 68.215 19.2904 68.4218C19.6007 68.6287 19.7559 68.8873 19.8593 69.301C19.9627 69.7148 19.8593 70.0768 19.6524 70.3871C19.549 70.594 19.3939 70.7491 19.2387 70.8525C19.0836 70.956 18.9284 71.0077 18.7215 71.0077C18.5147 71.0077 18.3078 71.0077 17.9458 70.956C17.6355 71.0077 17.3769 70.956 17.1183 70.9043ZM10.4985 73.7487L12.8775 70.0251L6.568 68.6804L10.4985 73.7487Z" fill="#273476"/>
<path d="M20.0144 63.3018L21.7211 64.8016C22.1348 65.1636 22.3934 65.5257 22.3934 65.8877C22.4451 66.2497 22.3417 66.6117 22.0314 66.922C21.7728 67.2323 21.4625 67.3875 21.1005 67.3875C20.7385 67.3875 20.3247 67.2323 19.911 66.8703L14.1704 61.9572C13.2395 61.1814 13.0843 60.4057 13.6532 59.7333C13.9635 59.3713 14.2738 59.2162 14.6358 59.2679C14.9979 59.3196 15.3599 59.4747 15.8253 59.8368C15.6185 59.2162 15.515 58.699 15.515 58.2335C15.515 57.7681 15.7219 57.3543 16.0839 56.8889C16.4459 56.4234 16.9114 56.1131 17.532 55.9063C18.1009 55.6994 18.5663 55.6994 18.9284 56.0097C19.1869 56.2166 19.2904 56.4751 19.3421 56.7855C19.3421 57.0958 19.2904 57.3543 19.0835 57.5612C19.0318 57.6129 18.8249 57.7681 18.4629 57.9749C18.1009 58.1818 17.8423 58.3887 17.6354 58.6473C17.3768 58.9576 17.2217 59.2679 17.2217 59.5782C17.2217 59.8885 17.3251 60.2505 17.532 60.6125C17.7389 60.9745 18.0492 61.3883 18.4629 61.802C18.8766 62.3192 19.3938 62.7846 20.0144 63.3018Z" fill="#273476"/>
<path d="M29.0133 50.3208L31.6508 52.7515C32.0646 53.1135 32.3232 53.5273 32.3232 53.8893C32.3749 54.2513 32.2197 54.6133 31.9094 54.9236C31.6508 55.2339 31.2888 55.3891 30.9268 55.3891C30.5648 55.3891 30.151 55.1822 29.7373 54.8202L26.5308 51.8723C26.0137 51.4069 25.5999 51.0449 25.2896 50.838C24.9793 50.6311 24.669 50.476 24.3587 50.476C24.0484 50.476 23.7381 50.6311 23.4278 50.9414C22.8072 51.6137 22.652 52.2343 22.9106 52.855C23.1692 53.4756 23.7381 54.1996 24.5656 54.9754L27.2549 57.4578C27.6686 57.8198 27.8755 58.2335 27.9272 58.5956C27.9789 58.9576 27.8238 59.3196 27.5652 59.6299C27.3066 59.9402 26.9446 60.0954 26.5308 60.0954C26.1171 60.0954 25.7551 59.8885 25.3413 59.5265L19.6007 54.2513C19.2387 53.8893 19.0318 53.579 18.9801 53.217C18.9284 52.855 19.0836 52.5447 19.3421 52.2343C19.6007 51.9758 19.911 51.8206 20.2731 51.7689C20.6351 51.7689 20.9454 51.8723 21.3074 52.1826L21.5143 52.3378C21.4108 51.6137 21.4625 50.9414 21.6177 50.3725C21.7729 49.8036 22.0832 49.2348 22.5486 48.7693C23.0141 48.2521 23.5312 47.8901 24.0484 47.735C24.5656 47.5281 25.1862 47.5281 25.8068 47.6832C25.7034 46.9592 25.7551 46.3386 25.9102 45.718C26.0654 45.1491 26.3757 44.6319 26.7894 44.1665C27.3066 43.5976 27.8238 43.2356 28.4444 43.0287C29.0133 42.8218 29.6339 42.8218 30.2028 42.977C30.7199 43.1321 31.3922 43.5976 32.168 44.2699L36.0985 47.8901C36.5122 48.2521 36.7708 48.6659 36.7708 49.0279C36.8225 49.3899 36.6674 49.7519 36.3571 50.0622C36.0985 50.3725 35.7365 50.5277 35.3228 50.5277C34.909 50.5277 34.547 50.3208 34.1333 49.9588L30.7716 46.8558C30.3579 46.442 29.9959 46.1834 29.6856 45.9766C29.3753 45.7697 29.065 45.6663 28.7547 45.6663C28.4444 45.6663 28.1341 45.8214 27.8238 46.1834C27.5652 46.442 27.41 46.7523 27.3583 47.1661C27.3066 47.5281 27.3066 47.9418 27.4617 48.3038C27.6169 48.9244 28.1341 49.5451 29.0133 50.3208Z" fill="#273476"/>
<path d="M33.4092 33.5645L34.3918 32.6335C34.6504 32.375 34.8055 32.3232 34.8572 32.375C34.909 32.4267 34.909 32.6853 34.909 33.2541C34.909 33.7713 34.8572 34.2885 34.8572 34.8057C34.8055 35.3228 34.7538 35.6331 34.7021 35.7883C34.5469 36.202 34.3401 36.564 34.0298 36.8744C33.8229 37.0812 33.6678 37.1329 33.5643 36.9778C33.4609 36.8744 33.4092 36.7192 33.3574 36.3572L33.0989 35.478C32.9437 34.9608 32.892 34.5471 32.9437 34.3402C32.9954 34.0816 33.1506 33.8748 33.4092 33.5645ZM42.3045 39.0465L38.4257 42.8218C38.8395 43.2873 39.3049 43.5459 39.8221 43.7527C40.3393 43.9079 40.8047 43.9596 41.2702 43.8562C41.7356 43.7527 42.1494 43.4941 42.5114 43.1838C42.77 42.977 42.9251 42.7184 43.0803 42.4598C43.2354 42.2012 43.3389 41.9426 43.3906 41.6323C43.4423 41.322 43.494 41.0634 43.5457 40.7531C43.5457 40.4946 43.5974 40.0808 43.5974 39.6154C43.5974 39.4085 43.7009 39.2533 43.9078 39.0465C44.1146 38.8396 44.3215 38.7362 44.5801 38.7362C44.7869 38.7362 45.0455 38.8396 45.2007 38.9948C45.3558 39.1499 45.511 39.4602 45.6144 39.8222C45.7178 40.1842 45.7178 40.6497 45.6144 41.1152C45.5627 41.5806 45.3558 42.1495 45.0455 42.6667C44.7352 43.2356 44.3215 43.7527 43.7526 44.3216C42.4597 45.5628 41.1667 46.1317 39.7187 46.1317C38.3223 46.08 37.0294 45.4594 35.8399 44.2182C35.271 43.6493 34.8572 43.0287 34.5469 42.3564C34.2366 41.684 34.0815 41.0117 34.0815 40.3394C34.0815 39.6671 34.2366 38.9948 34.5469 38.3224C34.8572 37.6501 35.3227 37.0295 35.8916 36.4606C36.6673 35.7366 37.4948 35.2194 38.374 35.0125C39.2532 34.8057 40.0807 34.8057 40.8047 35.0643C41.5805 35.3228 42.2011 35.6849 42.7183 36.202C43.1837 36.7192 43.3389 37.1329 43.2354 37.5467C43.132 38.1156 42.8217 38.5293 42.3045 39.0465ZM37.3397 41.684L40.9082 38.219C40.2358 37.5984 39.5635 37.2881 38.8912 37.2364C38.2706 37.2364 37.65 37.4432 37.1328 37.9604C36.6156 38.4259 36.4088 38.9948 36.4088 39.6671C36.5122 40.2877 36.7708 40.96 37.3397 41.684Z" fill="#273476"/>
<path d="M52.1308 31.9095L47.9417 35.2711C48.3554 35.7366 48.7692 36.0986 49.2863 36.3055C49.7518 36.5123 50.269 36.6158 50.7344 36.5123C51.1999 36.4606 51.6136 36.2537 52.0273 35.9434C52.2859 35.7366 52.4928 35.5297 52.648 35.2711C52.8031 35.0642 52.9583 34.8057 53.0617 34.4954C53.1651 34.1851 53.2168 33.9265 53.2686 33.6679C53.3203 33.4093 53.372 32.9956 53.4237 32.5301C53.4754 32.3232 53.5789 32.1681 53.7857 32.0129C53.9926 31.8578 54.2512 31.7543 54.4581 31.7543C54.6649 31.7543 54.8718 31.8578 55.0787 32.1164C55.2338 32.3232 55.3372 32.5818 55.389 32.9956C55.4407 33.3576 55.389 33.823 55.2855 34.2885C55.1821 34.7539 54.9235 35.2711 54.6132 35.7883C54.2512 36.3055 53.7857 36.8226 53.2168 37.2881C51.8205 38.3741 50.4758 38.8913 49.0795 38.6844C47.6831 38.5293 46.4419 37.7535 45.4076 36.4606C44.8904 35.84 44.5284 35.1677 44.2698 34.4954C44.0112 33.823 43.9595 33.1507 44.0112 32.4267C44.0629 31.7543 44.2698 31.082 44.6318 30.4614C44.9938 29.8408 45.511 29.2719 46.1316 28.7547C46.9591 28.0824 47.8383 27.6687 48.7174 27.5653C49.5966 27.4101 50.4241 27.5135 51.1482 27.8238C51.8722 28.1341 52.4928 28.5996 52.9583 29.1685C53.372 29.6857 53.5271 30.1511 53.3203 30.5648C53.0617 31.0303 52.6997 31.444 52.1308 31.9095ZM46.9591 34.0816L50.8379 30.9269C50.2172 30.2545 49.5449 29.8408 48.9243 29.7891C48.3037 29.6857 47.6831 29.8925 47.1142 30.358C46.597 30.7717 46.2867 31.3406 46.235 31.9612C46.235 32.5818 46.4419 33.3059 46.9591 34.0816Z" fill="#273476"/>
<path d="M68.6285 27.1515L68.5251 26.8929C68.37 27.4101 68.1631 27.8756 67.9562 28.2893C67.7494 28.6513 67.4391 29.0133 67.1287 29.3236C66.8184 29.6339 66.4047 29.8925 65.9393 30.0994C65.3186 30.358 64.698 30.5131 64.0774 30.4614C63.4568 30.4614 62.8362 30.3063 62.2673 29.996C61.6984 29.6857 61.1296 29.2719 60.6641 28.7548C60.1986 28.1859 59.7849 27.5653 59.4746 26.8412C58.8023 25.2897 58.5954 23.8933 59.0091 22.7038C59.3712 21.5144 60.1986 20.5834 61.4399 20.0663C62.1639 19.756 62.8362 19.6008 63.4568 19.6008C64.0774 19.6008 64.698 19.8077 65.4221 20.0663L63.7671 16.3944C63.5603 15.8772 63.4568 15.4634 63.5603 15.1014C63.6637 14.7394 63.8706 14.4808 64.2843 14.3257C64.6463 14.1705 65.0083 14.1188 65.3186 14.2739C65.6289 14.4291 65.8875 14.7394 66.0944 15.2049L71.0075 26.1689C71.2144 26.6343 71.2661 27.0481 71.1627 27.3584C71.0593 27.6687 70.8007 27.9273 70.4904 28.0824C70.1283 28.2376 69.818 28.2376 69.456 28.0824C69.094 27.8756 68.8354 27.5653 68.6285 27.1515ZM62.0605 25.7034C62.3708 26.3758 62.7328 26.8929 63.1465 27.255C63.5603 27.617 64.0257 27.8756 64.4912 27.9273C64.9566 27.979 65.4221 27.9273 65.8358 27.7204C66.3013 27.5135 66.6116 27.2032 66.8702 26.8412C67.1287 26.4275 67.2839 25.962 67.2839 25.3931C67.2839 24.8242 67.1287 24.2036 66.8184 23.4796C66.5081 22.8073 66.1461 22.2901 65.7324 21.9281C65.3186 21.5661 64.8532 21.3075 64.336 21.2558C63.8706 21.1523 63.4051 21.204 62.9397 21.4109C62.4742 21.6178 62.1122 21.9281 61.8536 22.3418C61.595 22.7556 61.4916 23.2727 61.4916 23.8416C61.595 24.4622 61.7502 25.0828 62.0605 25.7034Z" fill="#273476"/>
<path d="M79.5925 19.1354L74.5243 20.9972C74.7311 21.5661 75.0414 22.0315 75.4552 22.3935C75.8689 22.7556 76.2826 22.9624 76.7481 23.0659C77.2135 23.1693 77.679 23.1176 78.1445 22.9624C78.4548 22.859 78.7133 22.7038 78.9719 22.5487C79.1788 22.3935 79.3857 22.1867 79.5925 21.9281C79.7994 21.6695 79.9546 21.4626 80.058 21.204C80.2131 20.9455 80.3683 20.6352 80.5752 20.2214C80.6786 20.0663 80.8338 19.9111 81.0923 19.8594C81.3509 19.756 81.6095 19.756 81.8164 19.8594C82.0232 19.9628 82.1784 20.118 82.2818 20.3766C82.3853 20.5834 82.3853 20.8937 82.2818 21.3075C82.2301 21.6695 82.0232 22.0832 81.7647 22.497C81.5061 22.9107 81.1441 23.3244 80.6269 23.7382C80.1614 24.1519 79.5408 24.4622 78.8168 24.7208C77.1618 25.3414 75.7137 25.3414 74.4208 24.7208C73.1796 24.1002 72.2487 23.0141 71.6281 21.4109C71.3695 20.6352 71.2144 19.9111 71.2144 19.1871C71.2144 18.463 71.3178 17.7907 71.6281 17.1701C71.8867 16.5495 72.3004 15.9806 72.8693 15.5152C73.4382 15.0497 74.0588 14.636 74.8346 14.3774C75.8689 14.0154 76.7998 13.9119 77.679 14.0671C78.5582 14.2222 79.2822 14.5842 79.9028 15.1014C80.5234 15.6186 80.9372 16.2392 81.1958 16.9632C81.4544 17.5838 81.4026 18.101 81.0923 18.4113C80.782 18.6182 80.2649 18.8768 79.5925 19.1354ZM74.0071 19.5491L78.7133 17.8424C78.3513 17.015 77.8342 16.4461 77.2653 16.1358C76.6964 15.8772 76.0758 15.8255 75.4034 16.084C74.7828 16.3426 74.3174 16.7564 74.0588 17.3253C73.8002 17.8941 73.7485 18.6699 74.0071 19.5491Z" fill="#273476"/>
<path d="M89.3155 19.1871L86.2642 7.8093C86.109 7.29213 86.109 6.87839 86.3159 6.51637C86.471 6.20607 86.7813 5.94748 87.1434 5.84405C87.5571 5.74061 87.9191 5.79233 88.2294 5.9992C88.5397 6.20607 88.7983 6.56809 88.9017 7.08526L91.953 18.463C92.1082 18.9802 92.0565 19.4457 91.9013 19.756C91.7462 20.0663 91.4359 20.3249 91.0221 20.4283C90.6084 20.5317 90.2981 20.48 89.9361 20.2731C89.6775 20.0663 89.4706 19.7042 89.3155 19.1871Z" fill="#273476"/>
<path d="M94.0735 7.2404L93.9184 7.29212C93.5563 7.39556 93.1943 7.29212 92.8323 7.08525C92.4703 6.87838 92.2117 6.56808 92.16 6.15434C92.0565 5.74061 92.16 5.37859 92.3668 5.01657C92.6254 4.65455 92.9357 4.44768 93.4012 4.34424C93.7115 4.29253 94.0218 4.29253 94.3321 4.39596C94.6424 4.49939 94.901 4.70626 95.1078 5.01657C95.3147 5.32687 95.4699 5.68889 95.625 6.15434C95.7802 6.77495 95.7802 7.44727 95.625 8.06788C95.4699 8.68849 95.263 9.20566 94.901 9.61939C94.5907 10.0331 94.2804 10.2917 93.9184 10.3434C93.7115 10.3952 93.5563 10.3434 93.4012 10.2917C93.246 10.1883 93.1426 10.0331 93.0909 9.87798C93.0392 9.56768 93.0909 9.36081 93.3495 9.15394C93.6598 8.89535 93.8666 8.58505 94.0218 8.32647C94.0735 7.96445 94.1252 7.65414 94.0735 7.2404Z" fill="#273476"/>
<path d="M110.157 14.7394L109.175 13.0327L103.227 13.9636L102.814 15.9289C102.658 16.7046 102.503 17.2218 102.348 17.4804C102.193 17.739 101.883 17.9459 101.469 17.9976C101.107 18.0493 100.745 17.9976 100.435 17.739C100.124 17.5321 99.9174 17.2218 99.8657 16.9115C99.814 16.7046 99.814 16.4978 99.8657 16.2909C99.9174 16.084 99.9691 15.7737 100.073 15.36L102.348 5.37859C102.4 5.06829 102.503 4.75798 102.555 4.34425C102.658 3.93051 102.762 3.6202 102.865 3.3099C103.02 3.05132 103.176 2.79273 103.434 2.58586C103.693 2.37899 104.003 2.27556 104.417 2.17212C104.831 2.12041 105.193 2.12041 105.503 2.22384C105.813 2.32728 106.072 2.48243 106.279 2.74101C106.485 2.94788 106.692 3.20647 106.848 3.46505C107.003 3.72364 107.21 4.08566 107.468 4.4994L112.743 13.2913C113.157 13.9636 113.364 14.4291 113.416 14.7911C113.467 15.1014 113.364 15.4634 113.157 15.7737C112.898 16.084 112.588 16.2909 112.174 16.3426C111.916 16.3943 111.761 16.3943 111.554 16.2909C111.399 16.2392 111.243 16.1358 111.088 16.0323C110.933 15.9289 110.778 15.722 110.623 15.4634C110.468 15.2049 110.313 14.9463 110.157 14.7394ZM103.693 11.6364L108.089 10.964L104.934 5.37859L103.693 11.6364Z" fill="#273476"/>
<path d="M115.691 3.67192C115.329 3.72364 114.967 3.6202 114.657 3.41333C114.347 3.20646 114.192 2.89616 114.192 2.48242C114.14 2.1204 114.295 1.75838 114.554 1.4998C114.812 1.24121 115.122 1.08606 115.484 1.03434C115.846 0.982626 116.157 1.08606 116.467 1.29293C116.777 1.4998 116.933 1.8101 116.984 2.22384C117.036 2.63758 116.933 2.9996 116.674 3.25818C116.364 3.51677 116.053 3.67192 115.691 3.67192ZM117.243 6.36121L117.915 14.2222C117.967 14.7394 117.863 15.2048 117.605 15.4634C117.346 15.7737 117.036 15.9289 116.622 15.9806C116.209 16.0323 115.898 15.8772 115.588 15.6186C115.329 15.36 115.174 14.9463 115.122 14.4291L114.45 6.67151C114.398 6.15434 114.502 5.74061 114.709 5.4303C114.916 5.12 115.278 4.96485 115.64 4.96485C116.053 4.91313 116.364 5.01657 116.674 5.27515C117.088 5.53374 117.243 5.89576 117.243 6.36121Z" fill="#273476"/>
<path d="M123.139 11.7398L123.19 14.0154C123.19 14.5842 123.087 14.998 122.828 15.2566C122.57 15.5152 122.259 15.6703 121.846 15.722C121.432 15.722 121.122 15.6186 120.863 15.3083C120.604 15.0497 120.449 14.636 120.449 14.0671L120.242 6.51637C120.191 5.27516 120.656 4.65455 121.535 4.65455C122.001 4.65455 122.311 4.75799 122.518 5.06829C122.725 5.32687 122.828 5.74061 122.88 6.3095C123.19 5.74061 123.501 5.32687 123.863 5.01657C124.225 4.70627 124.638 4.55112 125.259 4.55112C125.828 4.55112 126.397 4.65455 126.966 4.91314C127.535 5.17172 127.793 5.53374 127.793 5.9992C127.793 6.3095 127.69 6.6198 127.483 6.82667C127.276 7.03354 127.017 7.18869 126.759 7.18869C126.655 7.18869 126.397 7.13698 126.035 7.03354C125.621 6.93011 125.311 6.87839 125 6.87839C124.587 6.87839 124.276 6.98182 124.018 7.24041C123.759 7.44728 123.604 7.75758 123.449 8.17132C123.345 8.58506 123.242 9.10223 123.19 9.67112C123.139 10.24 123.139 10.964 123.139 11.7398Z" fill="#273476"/>
<path d="M142.015 11.0675L136.637 10.602C136.585 11.2226 136.688 11.7915 136.895 12.257C137.102 12.7224 137.412 13.1362 137.775 13.3947C138.137 13.6533 138.602 13.8085 139.067 13.8602C139.378 13.9119 139.688 13.8602 139.998 13.8085C140.257 13.7568 140.567 13.6533 140.826 13.4982C141.084 13.343 141.343 13.1879 141.55 13.0327C141.757 12.8776 142.067 12.619 142.429 12.3604C142.584 12.257 142.791 12.2052 143.05 12.257C143.308 12.257 143.567 12.3604 143.722 12.5673C143.877 12.7224 143.929 12.981 143.929 13.2396C143.929 13.4982 143.774 13.7568 143.567 14.0671C143.36 14.3774 143.05 14.6877 142.584 14.9463C142.17 15.2048 141.653 15.4117 141.033 15.5669C140.412 15.722 139.74 15.7737 138.964 15.6703C137.206 15.5151 135.861 14.8945 134.982 13.8085C134.103 12.7224 133.689 11.3261 133.844 9.61939C133.896 8.84363 134.103 8.06787 134.413 7.44726C134.723 6.77494 135.137 6.20605 135.602 5.79232C136.12 5.32686 136.688 5.01656 137.413 4.80969C138.137 4.60282 138.861 4.5511 139.688 4.60282C140.774 4.70626 141.653 5.01656 142.377 5.48201C143.101 5.99918 143.619 6.61979 143.981 7.34383C144.291 8.06787 144.446 8.84363 144.394 9.56767C144.343 10.24 144.084 10.6537 143.67 10.8606C143.308 11.0675 142.739 11.1192 142.015 11.0675ZM136.74 9.10221L141.705 9.51595C141.705 8.58504 141.498 7.861 141.136 7.39555C140.722 6.87838 140.154 6.61979 139.481 6.56807C138.809 6.51636 138.24 6.67151 137.723 7.13696C137.257 7.49898 136.947 8.17131 136.74 9.10221Z" fill="#273476"/>
<path d="M147.756 5.84404L148.066 5.89576L148.325 4.29252C148.377 3.87879 148.48 3.51677 148.532 3.25818C148.583 2.99959 148.687 2.79272 148.842 2.63757C148.997 2.48242 149.152 2.32727 149.359 2.27555C149.566 2.17212 149.825 2.17212 150.032 2.22384C150.394 2.27555 150.652 2.48242 150.911 2.74101C151.066 2.94788 151.169 3.15474 151.169 3.41333C151.169 3.67192 151.169 4.03394 151.066 4.44767L150.756 6.25778L151.738 6.41293C152.1 6.46464 152.411 6.6198 152.566 6.82666C152.721 7.03353 152.824 7.29212 152.773 7.5507C152.721 7.91272 152.514 8.11959 152.204 8.22303C151.893 8.32646 151.48 8.32646 150.911 8.22303L150.394 8.11959L149.618 13.0327C149.566 13.4465 149.514 13.7568 149.514 14.0154C149.514 14.2222 149.566 14.4291 149.67 14.5842C149.773 14.7394 149.98 14.8428 150.29 14.8945C150.445 14.9463 150.652 14.9463 150.962 14.8945C151.221 14.8945 151.48 14.8945 151.635 14.8945C151.842 14.9463 152.049 15.0497 152.204 15.2566C152.359 15.4634 152.411 15.6703 152.359 15.9289C152.307 16.3426 151.997 16.6529 151.48 16.8081C150.962 16.9632 150.238 16.9632 149.359 16.8081C148.532 16.6529 147.911 16.4461 147.497 16.084C147.084 15.722 146.877 15.3083 146.825 14.7911C146.773 14.2739 146.825 13.6016 146.929 12.7741L147.756 7.60242L147.394 7.75757C146.98 7.70586 146.722 7.5507 146.567 7.34384C146.411 7.13697 146.308 6.87838 146.36 6.6198C146.411 6.36121 146.567 6.10262 146.773 5.99919C147.032 5.79232 147.342 5.79232 147.756 5.84404Z" fill="#273476"/>
<path d="M165.288 18.5665L165.34 18.3079C164.874 18.6182 164.409 18.8768 163.995 19.0319C163.581 19.1871 163.168 19.2905 162.702 19.2905C162.237 19.2905 161.823 19.2388 161.306 19.1354C160.685 18.9802 160.116 18.6699 159.651 18.2562C159.185 17.8424 158.823 17.3253 158.565 16.7564C158.306 16.1358 158.151 15.5152 158.099 14.7911C158.048 14.0671 158.151 13.343 158.358 12.5673C158.772 10.9123 159.547 9.77455 160.582 9.05051C161.616 8.32647 162.806 8.17132 164.15 8.53334C164.926 8.74021 165.547 9.05051 166.012 9.41253C166.478 9.82627 166.891 10.3434 167.253 11.0158L168.288 7.13697C168.443 6.6198 168.65 6.20607 168.96 5.9992C169.27 5.79233 169.581 5.74061 169.994 5.84405C170.408 5.94748 170.667 6.15435 170.822 6.46465C170.977 6.77495 170.977 7.18869 170.873 7.65415L167.822 19.2388C167.667 19.756 167.46 20.0663 167.15 20.2731C166.84 20.48 166.529 20.5317 166.167 20.4283C165.805 20.3249 165.547 20.118 165.391 19.8077C165.185 19.4457 165.185 19.0836 165.288 18.5665ZM161.099 13.343C160.892 14.0671 160.84 14.6877 160.944 15.2566C161.047 15.8255 161.254 16.2909 161.564 16.6529C161.875 17.015 162.288 17.2735 162.754 17.377C163.219 17.4804 163.685 17.4804 164.15 17.377C164.616 17.2218 165.029 16.9632 165.391 16.4978C165.753 16.084 166.012 15.4634 166.219 14.7394C166.426 14.0154 166.426 13.3948 166.374 12.8259C166.271 12.257 166.064 11.7915 165.753 11.4295C165.443 11.0675 165.029 10.8089 164.564 10.7055C164.099 10.602 163.581 10.602 163.168 10.7572C162.702 10.9123 162.288 11.2226 161.978 11.6881C161.513 12.1018 161.254 12.6707 161.099 13.343Z" fill="#273476"/>
<path d="M178.683 19.4456L173.615 17.6873C173.408 18.2562 173.356 18.825 173.408 19.3422C173.459 19.8594 173.666 20.3248 173.977 20.6869C174.287 21.0489 174.649 21.3075 175.114 21.4626C175.425 21.5661 175.735 21.6178 175.993 21.6695C176.252 21.6695 176.562 21.6695 176.873 21.6178C177.183 21.5661 177.442 21.4626 177.7 21.3592C177.959 21.2558 178.321 21.1006 178.735 20.9454C178.89 20.8937 179.097 20.8937 179.355 20.9972C179.614 21.1006 179.821 21.2558 179.924 21.4626C180.027 21.6695 180.027 21.8764 179.976 22.1867C179.872 22.3935 179.717 22.6521 179.407 22.9107C179.097 23.1693 178.735 23.3762 178.269 23.5313C177.804 23.6865 177.235 23.7382 176.614 23.7382C175.993 23.7382 175.321 23.583 174.597 23.3244C172.942 22.7555 171.804 21.8246 171.184 20.5317C170.563 19.2905 170.563 17.8424 171.132 16.2392C171.391 15.4634 171.753 14.7911 172.218 14.2222C172.684 13.6533 173.201 13.1879 173.821 12.8776C174.442 12.5673 175.063 12.4121 175.838 12.3604C176.562 12.3604 177.338 12.4638 178.114 12.7224C179.148 13.0844 179.924 13.6016 180.493 14.2739C181.062 14.9463 181.424 15.6703 181.579 16.4978C181.682 17.2735 181.631 18.0493 181.424 18.7216C181.217 19.3422 180.855 19.7042 180.441 19.756C179.924 19.756 179.355 19.7042 178.683 19.4456ZM174.08 16.1875L178.786 17.8424C179.045 16.9632 179.045 16.1875 178.735 15.6186C178.476 15.0497 178.01 14.636 177.338 14.3774C176.666 14.1705 176.097 14.1705 175.528 14.4808C174.959 14.7911 174.494 15.36 174.08 16.1875Z" fill="#273476"/>
<path d="M186.337 25.7552L191.457 15.1014C191.715 14.636 191.974 14.2739 192.336 14.1705C192.698 14.0154 193.06 14.0671 193.422 14.2222C193.784 14.3774 194.043 14.6877 194.146 15.0497C194.25 15.4117 194.198 15.8255 193.939 16.3426L188.819 26.9964C188.561 27.5135 188.302 27.8238 187.94 27.9273C187.578 28.0824 187.216 28.0307 186.854 27.8756C186.492 27.7204 186.233 27.4101 186.13 27.0481C186.027 26.6861 186.078 26.2206 186.337 25.7552Z" fill="#273476"/>
<path d="M197.56 19.7042L197.404 19.6525C197.042 19.4974 196.836 19.1871 196.68 18.7733C196.525 18.3596 196.577 17.9976 196.732 17.5838C196.939 17.2218 197.198 16.9632 197.611 16.8598C198.025 16.7564 198.439 16.8081 198.801 17.0149C199.059 17.1701 199.318 17.377 199.473 17.6355C199.628 17.8941 199.68 18.2562 199.68 18.6182C199.68 18.9802 199.525 19.3939 199.318 19.8077C199.008 20.3766 198.594 20.8937 198.128 21.2558C197.611 21.6178 197.094 21.8764 196.577 22.0315C196.06 22.1349 195.646 22.1349 195.387 21.9798C195.181 21.8764 195.077 21.7729 195.025 21.5661C194.974 21.4109 194.974 21.204 195.077 21.0489C195.232 20.7903 195.439 20.6351 195.749 20.6351C196.163 20.6351 196.525 20.5317 196.784 20.4283C197.094 20.2731 197.353 20.0663 197.56 19.7042Z" fill="#273476"/>
<path d="M210.747 26.6861L204.955 23.2727L203.093 26.3758L208.42 29.5822C208.834 29.8408 209.041 30.0994 209.144 30.358C209.248 30.6683 209.196 30.9269 209.041 31.2372C208.886 31.5475 208.627 31.7026 208.317 31.7543C208.006 31.8061 207.644 31.7543 207.282 31.4958L201.955 28.2893L199.835 31.8578L205.834 35.4263C206.248 35.6849 206.507 35.9434 206.558 36.2537C206.662 36.564 206.61 36.8743 206.403 37.1847C206.248 37.495 205.989 37.6501 205.679 37.7018C205.369 37.7535 205.007 37.6501 204.593 37.4432L197.611 33.2541C197.042 32.9438 196.732 32.5818 196.629 32.1681C196.525 31.7543 196.629 31.2889 196.991 30.7717L202.628 21.3592C202.835 20.9972 203.093 20.7386 203.3 20.5834C203.559 20.4283 203.817 20.3766 204.128 20.3766C204.438 20.4283 204.748 20.5317 205.11 20.7386L211.937 24.7725C212.351 25.0311 212.609 25.2897 212.713 25.6C212.816 25.9103 212.764 26.1689 212.609 26.4792C212.454 26.7895 212.195 26.9447 211.885 26.9964C211.523 27.0481 211.161 26.9447 210.747 26.6861Z" fill="#273476"/>
<path d="M216.281 42.0978C215.816 42.7184 215.299 43.1321 214.678 43.339C214.057 43.5459 213.385 43.5459 212.661 43.339C211.937 43.1321 211.11 42.7184 210.282 42.1495C209.455 41.5806 208.886 40.96 208.472 40.2877C208.058 39.6154 207.851 39.0465 207.851 38.4776C207.851 37.9087 207.955 37.4432 208.213 37.0812C208.368 36.8226 208.627 36.7192 208.937 36.6675C209.248 36.6158 209.506 36.7192 209.765 36.8743C210.023 37.0295 210.127 37.2364 210.179 37.4432C210.23 37.6501 210.23 37.9087 210.179 38.1673C210.127 38.7362 210.179 39.2016 210.385 39.6671C210.541 40.0808 210.954 40.4945 211.472 40.9083C211.937 41.2186 212.351 41.3737 212.764 41.4255C213.178 41.4255 213.488 41.322 213.695 41.0634C213.954 40.6497 214.006 40.2877 213.851 39.8739C213.695 39.4602 213.333 38.943 212.764 38.3224C212.144 37.5984 211.627 36.9261 211.316 36.3572C211.006 35.7883 210.799 35.2711 210.747 34.7022C210.696 34.1333 210.851 33.6162 211.213 33.1507C211.523 32.6853 211.989 32.3749 212.506 32.1681C213.075 31.9612 213.695 31.9612 214.368 32.0646C215.04 32.2198 215.764 32.5301 216.488 33.099C217.057 33.5127 217.522 33.9782 217.936 34.3919C218.298 34.8574 218.557 35.2711 218.764 35.6848C218.919 36.0986 219.022 36.5123 218.971 36.8743C218.971 37.2364 218.867 37.5467 218.712 37.7535C218.505 38.0121 218.298 38.1673 217.988 38.1673C217.678 38.219 217.419 38.1156 217.057 37.857C216.85 37.7018 216.695 37.4949 216.592 37.2364C216.54 36.9778 216.488 36.6675 216.436 36.2537C216.436 35.8917 216.333 35.5814 216.23 35.3228C216.074 35.0125 215.816 34.7539 215.454 34.4436C215.04 34.1333 214.678 33.9782 214.264 33.9782C213.851 33.9782 213.592 34.0816 213.385 34.3402C213.23 34.5471 213.178 34.8574 213.282 35.116C213.385 35.4263 213.54 35.7366 213.799 36.0469C214.057 36.4089 214.419 36.8226 214.937 37.3915C215.505 38.0638 215.919 38.6844 216.178 39.2016C216.436 39.7705 216.592 40.2877 216.592 40.7531C216.747 41.2186 216.592 41.684 216.281 42.0978Z" fill="#273476"/>
<path d="M223.935 40.6497L223.728 40.9083C224.556 40.7531 225.228 40.8048 225.849 40.96C226.469 41.1151 227.038 41.4255 227.555 41.8909C228.176 42.4598 228.641 43.1321 228.9 43.9079C229.159 44.6836 229.159 45.5628 228.9 46.442C228.641 47.3212 228.176 48.2004 227.4 49.0796C226.831 49.7002 226.262 50.2174 225.59 50.5794C224.97 50.9414 224.297 51.1483 223.677 51.2517C223.056 51.3552 222.435 51.3034 221.866 51.0966C221.246 50.8897 220.729 50.5794 220.263 50.1657C219.694 49.6485 219.281 49.0796 219.074 48.5107C218.867 47.9418 218.815 47.2178 218.815 46.442L216.126 49.4933C215.35 50.3725 214.626 50.5277 213.954 49.9588C213.54 49.5968 213.385 49.2865 213.488 48.9244C213.54 48.5624 213.799 48.2004 214.212 47.735L221.97 38.943C222.332 38.5293 222.642 38.3224 223.004 38.3224C223.366 38.2707 223.677 38.3741 223.987 38.6327C224.297 38.8913 224.452 39.2016 224.452 39.5636C224.401 39.9257 224.245 40.2877 223.935 40.6497ZM225.383 47.2178C225.849 46.7006 226.159 46.1317 226.366 45.6145C226.521 45.0974 226.573 44.5802 226.469 44.1147C226.366 43.6493 226.107 43.2356 225.745 42.9253C225.176 42.4081 224.504 42.2012 223.728 42.3046C222.953 42.4081 222.177 42.8735 221.401 43.7527C220.677 44.5802 220.315 45.356 220.315 46.1834C220.315 46.9592 220.574 47.6315 221.142 48.1487C221.504 48.459 221.866 48.6141 222.332 48.7176C222.797 48.7693 223.315 48.6659 223.832 48.459C224.349 48.1487 224.866 47.735 225.383 47.2178Z" fill="#273476"/>
<path d="M230.4 58.6473C229.572 58.4404 228.9 58.1818 228.279 57.8715C227.711 57.5612 227.142 57.0958 226.676 56.4751C226.262 55.9063 225.952 55.3374 225.849 54.7685C225.745 54.1996 225.745 53.6307 225.952 53.1135C226.159 52.5964 226.469 52.1826 226.883 51.8206C227.452 51.3551 228.124 51.1483 228.797 51.2C229.469 51.2517 230.193 51.562 230.865 52.0792C231.02 52.1826 231.331 52.4929 231.9 52.9584C232.417 53.4238 232.934 53.7859 233.296 54.0962C233.71 54.4065 234.123 54.7685 234.641 55.0788C235.158 54.6133 235.52 54.1479 235.623 53.7341C235.727 53.3204 235.52 52.8032 235.003 52.1826C234.589 51.6137 234.175 51.3034 233.813 51.1483C233.451 50.9931 233.037 50.9414 232.572 50.9931C232.106 51.0448 231.796 51.0448 231.641 51.0448C231.486 51.0448 231.279 50.8897 231.072 50.6311C230.865 50.3725 230.814 50.1139 230.814 49.8036C230.814 49.4933 230.969 49.2347 231.176 49.0796C231.538 48.7693 232.003 48.6141 232.572 48.6141C233.141 48.6141 233.761 48.7693 234.434 49.183C235.106 49.5968 235.778 50.1656 236.451 51.0448C237.226 51.9758 237.692 52.8549 237.899 53.5273C238.106 54.2513 238.054 54.9236 237.744 55.4925C237.433 56.1131 236.916 56.7337 236.089 57.3543C235.572 57.7681 235.158 58.0784 234.796 58.337C234.434 58.5956 234.072 58.9059 233.606 59.2679C233.193 59.5782 232.831 59.9919 232.52 60.4574C232.21 60.9228 231.951 61.2331 231.848 61.3366C231.641 61.4917 231.331 61.5434 231.02 61.4917C230.658 61.44 230.4 61.2848 230.193 60.9745C230.038 60.7677 229.934 60.4574 229.986 60.0953C230.09 59.6816 230.193 59.2162 230.4 58.6473ZM233.348 56.0614C232.986 55.8545 232.52 55.4925 231.9 54.9753C231.279 54.4582 230.865 54.1479 230.607 53.941C230.348 53.7341 230.09 53.6307 229.727 53.579C229.365 53.5273 229.055 53.579 228.745 53.8376C228.435 54.0962 228.228 54.4582 228.228 54.8719C228.176 55.2857 228.331 55.6994 228.641 56.1131C229.003 56.5269 229.365 56.8372 229.831 57.0958C230.296 57.3026 230.762 57.4061 231.176 57.3026C231.641 57.2509 232.262 56.9406 232.986 56.32L233.348 56.0614Z" fill="#273476"/>
<path d="M240.795 69.8699C240.485 70.0251 240.123 70.1285 239.709 70.1285C239.295 70.1285 238.778 70.0768 238.261 69.8699C237.744 69.663 237.227 69.3527 236.709 68.939C236.192 68.4735 235.727 67.9046 235.365 67.2323C234.486 65.7842 234.279 64.3879 234.641 63.0432C235.003 61.6986 235.882 60.6642 237.33 59.8368C238.313 59.2679 239.244 58.9576 240.226 58.9059C241.209 58.8541 242.088 59.061 242.916 59.5265C243.743 59.9919 244.415 60.7677 245.036 61.7503C245.398 62.3709 245.657 62.9915 245.76 63.6121C245.863 64.2327 245.915 64.8016 245.812 65.3188C245.708 65.836 245.605 66.3014 245.398 66.6634C245.191 67.0255 244.932 67.284 244.674 67.4909C244.415 67.6461 244.105 67.6978 243.795 67.5943C243.484 67.4909 243.226 67.284 243.071 66.9737C242.967 66.7669 242.916 66.56 242.916 66.4049C242.916 66.198 243.019 65.9911 243.122 65.6808C243.381 65.1119 243.536 64.6465 243.588 64.181C243.64 63.7156 243.484 63.2501 243.226 62.7846C242.812 62.0606 242.191 61.6469 241.416 61.5434C240.64 61.44 239.761 61.6469 238.83 62.2158C238.364 62.4743 238.002 62.7846 237.692 63.0949C237.382 63.4053 237.175 63.7673 237.02 64.1293C236.865 64.4913 236.813 64.8533 236.865 65.2154C236.916 65.5774 237.02 65.9394 237.227 66.3014C237.485 66.7669 237.847 67.1289 238.261 67.3358C238.675 67.5426 239.192 67.6461 239.812 67.6461C240.175 67.6461 240.485 67.6978 240.692 67.7495C240.95 67.8529 241.157 68.0081 241.261 68.2149C241.416 68.5252 241.467 68.8356 241.364 69.1459C241.209 69.4562 241.054 69.7148 240.795 69.8699Z" fill="#273476"/>
<path d="M247.363 77.6275L245.036 72.7661C244.467 73.0246 244.053 73.3867 243.743 73.8004C243.433 74.2141 243.226 74.6796 243.174 75.145C243.122 75.6105 243.226 76.076 243.433 76.5414C243.588 76.8517 243.743 77.1103 243.898 77.3172C244.105 77.524 244.312 77.7309 244.57 77.8861C244.829 78.0412 245.088 78.1964 245.346 78.2998C245.605 78.4032 245.967 78.5584 246.381 78.7135C246.536 78.7652 246.691 78.9721 246.794 79.179C246.898 79.4376 246.949 79.6962 246.898 79.903C246.846 80.1099 246.691 80.3168 246.432 80.4202C246.225 80.5236 245.915 80.5753 245.553 80.5236C245.191 80.4719 244.777 80.3685 244.312 80.1099C243.846 79.903 243.433 79.541 243.019 79.0755C242.605 78.6101 242.191 78.0412 241.881 77.3689C241.105 75.7657 241.002 74.3176 241.467 72.9729C241.933 71.68 242.967 70.6456 244.519 69.9216C245.243 69.5596 245.967 69.3527 246.691 69.301C247.415 69.2493 248.087 69.301 248.76 69.5079C249.38 69.7147 250.001 70.0768 250.518 70.5939C251.035 71.1111 251.501 71.7317 251.863 72.4558C252.328 73.4384 252.535 74.3693 252.431 75.2485C252.38 76.1277 252.069 76.9034 251.604 77.5757C251.138 78.2481 250.57 78.7135 249.897 79.0238C249.277 79.3341 248.811 79.3341 248.449 79.0755C247.984 78.7135 247.673 78.2481 247.363 77.6275ZM246.484 72.0937L248.604 76.5931C249.432 76.1277 249.949 75.6105 250.156 74.9899C250.363 74.3693 250.363 73.7487 250.052 73.1281C249.742 72.5075 249.328 72.0937 248.708 71.8869C248.087 71.7317 247.311 71.7834 246.484 72.0937Z" fill="#273476"/>
</svg>
