<svg width="256" height="256" viewBox="0 0 256 256" fill="none" xmlns="http://www.w3.org/2000/svg">
<g clip-path="url(#clip0_224_11215)">
<path d="M82.2723 91.978C82.9358 92.4418 79.5009 77.3519 79.5068 77.164C79.6125 70.7171 79.6712 62.2209 79.771 55.7739C79.7769 55.3747 79.771 54.9813 79.7769 54.582C79.7769 54.1123 79.9589 53.9185 80.4815 53.9244C83.1002 53.9714 85.7189 53.989 88.3435 54.0007C91.1618 54.0125 93.986 54.1416 96.7927 53.9714C101.367 53.7013 104.343 56.1145 106.721 59.5728C107.802 61.1464 108.16 63.0488 108.36 64.9101C108.683 67.8459 108.847 70.7993 109.052 73.7468C109.141 74.9798 109.135 76.2128 109.205 77.4459C109.299 79.0547 108.706 80.5108 108.242 81.9905C107.391 84.7031 106.228 87.2807 104.291 89.418C103.839 89.9171 103.245 90.3281 102.647 90.6628C101.766 91.156 101.678 91.3673 102.012 92.295C102.5 93.6514 102.899 95.0429 103.386 96.4051C103.821 97.6147 104.326 98.7949 104.801 99.9868C104.848 100.11 104.983 100.257 104.948 100.351C104.655 101.22 105.177 101.93 105.4 102.688C106.375 106.046 107.309 109.422 108.395 112.752C109.129 115 110.086 117.179 110.972 119.375C111.043 119.551 111.319 119.68 111.53 119.756C111.994 119.921 112.1 120.226 111.701 120.52C111.454 120.702 111.084 120.837 110.779 120.819C108.342 120.702 105.899 120.543 103.463 120.408C103.163 120.39 102.858 120.437 102.517 120.455C102.547 120.696 102.594 120.837 102.57 120.954C102.535 121.113 102.476 121.301 102.359 121.389C102.294 121.436 102.059 121.342 101.965 121.248C101.185 120.443 100.421 119.627 99.611 118.77H100.486C100.451 118.512 100.457 118.283 100.38 118.083C99.5816 115.952 98.7361 113.838 97.9728 111.695C97.6851 110.884 97.5794 110.01 97.3915 109.158C97.3681 109.047 97.3504 108.923 97.2859 108.841C96.4051 107.731 96.1937 106.334 95.677 105.072C95.6536 105.019 95.6125 104.972 95.5068 104.813C95.1427 106.633 94.0448 107.772 92.5416 108.571C92.1248 108.794 91.6961 109.023 91.244 109.152C90.651 109.323 90.5805 109.716 90.5747 110.233C90.5629 111.683 90.5101 113.133 90.4748 114.589C90.4396 116.098 90.3809 117.601 90.3809 119.11C90.3809 119.287 90.6569 119.486 90.833 119.639C91.062 119.839 91.5259 120.003 91.52 120.185C91.52 120.678 91.0561 120.684 90.6569 120.696C88.96 120.737 87.2631 120.796 85.5662 120.819C84.1101 120.843 82.6481 120.819 81.0862 120.819C80.9394 121.054 80.7163 121.406 80.4991 121.753C79.771 121.635 79.6242 121.136 79.8297 120.643C80.0881 120.015 79.9882 119.428 79.9471 118.805C79.906 118.159 79.9354 117.508 79.9354 116.844C78.7963 117.044 78.7082 117.085 78.6378 118.194C78.5438 119.727 78.5204 121.265 78.4851 122.804C78.4499 124.342 78.4558 125.88 78.4088 127.419C78.3677 128.828 77.7805 130.049 76.9468 131.147M90.9915 83.4055C92.3596 83.4055 93.6925 83.429 95.0194 83.3879C95.3659 83.3761 95.7769 83.2294 96.0411 83.0062C97.3974 81.8554 98.2429 80.364 98.6304 78.6495C98.8712 77.5985 99.0356 76.5064 99.0473 75.4319C99.0649 72.6723 99.0708 69.9127 98.8947 67.1648C98.7831 65.3974 97.9846 63.8473 96.3993 62.8727C96.0704 62.673 95.6007 62.6202 95.1956 62.6261C93.8569 62.6319 92.5181 62.7259 91.1794 62.7259C90.5747 62.7259 90.4044 62.8609 90.469 63.4539C90.5747 64.458 90.6921 65.4561 90.7215 66.4661C90.8271 70.1886 90.9211 73.9053 90.9857 77.6279C91.0209 79.4774 90.9857 81.3211 90.9857 83.4114L90.9915 83.4055Z" fill="#92841B"/>
<path d="M220.659 68.0984H220.037C220.037 68.8382 220.043 69.5428 220.037 70.2532C219.996 73.5295 219.866 76.8117 218.763 79.9237C218.181 81.5618 217.06 82.9417 215.839 84.1923C215.521 84.5152 215.152 84.7853 214.746 85.1259C215.011 85.3373 215.14 85.4547 215.281 85.5428C218.581 87.633 220.348 90.6217 220.759 94.5145C221.217 98.8595 221.094 103.181 220.636 107.508C220.495 108.865 220.283 110.215 220.095 111.566C219.866 113.204 219.021 114.548 218.111 115.893C216.69 117.989 214.682 119.275 212.515 120.484C211.206 121.218 209.902 121.06 208.575 121.095C207.225 121.13 205.875 121.083 204.53 121.089C203.884 121.089 203.244 121.16 202.598 121.148C200.878 121.119 199.163 121.072 197.443 121.001C196.504 120.96 195.564 120.766 194.636 120.807C194.014 120.837 193.315 120.437 192.734 121.036C192.669 121.107 192.241 120.995 192.206 120.895C192.07 120.461 192.006 120.009 191.947 119.557C191.918 119.339 191.982 119.11 191.971 118.887C191.871 117.014 191.607 115.135 191.701 113.28C191.847 110.456 191.301 107.702 191.196 104.913C191.137 103.316 191.278 101.707 191.295 100.104C191.319 97.6499 191.243 95.1897 191.319 92.7354C191.489 87.0928 191.73 81.4562 191.941 75.8195C192.024 73.6705 192.117 71.5215 192.159 69.3784C192.247 64.7516 192.299 60.1248 192.37 55.498C192.382 54.7053 192.699 54.2884 193.55 54.2121C195 54.0771 196.462 53.9949 197.919 53.9714C200.426 53.9303 202.939 54.0125 205.446 53.9303C207.618 53.8598 209.632 54.3824 211.494 55.4099C213.073 56.2789 214.553 57.3299 216.062 58.3163C216.279 58.4573 216.455 58.6862 216.614 58.9035C218.416 61.3226 219.69 63.9472 219.908 67.018C219.931 67.3703 220.371 67.6932 220.671 68.0984H220.659ZM201.864 102.347C201.905 102.347 201.946 102.347 201.988 102.347C201.988 105.4 202.005 108.454 201.976 111.507C201.97 112.229 202.287 112.493 202.939 112.47C204.066 112.429 205.211 112.47 206.315 112.299C208.564 111.953 209.879 110.655 210.231 108.43C210.795 104.854 210.959 101.255 210.419 97.6558C210.184 96.0881 209.85 94.5439 208.998 93.164C208.211 91.8899 207.025 91.1207 205.604 90.9152C204.553 90.7626 203.444 90.9505 202.363 91.0444C202.228 91.0561 202.029 91.3732 202.005 91.567C201.923 92.3772 201.87 93.1934 201.864 94.0037C201.847 96.7868 201.858 99.5699 201.858 102.353L201.864 102.347ZM202.046 72.7075C202.011 72.7075 201.982 72.7075 201.946 72.7075C201.946 73.9758 201.958 75.2382 201.946 76.5064C201.935 77.7747 201.894 79.0371 201.876 80.3053C201.858 81.1919 202.052 81.4151 202.956 81.462C203.608 81.4973 204.272 81.4562 204.923 81.4796C205.816 81.5149 206.561 81.1919 207.19 80.5872C208.247 79.5714 209.186 78.3912 209.538 76.9938C210.396 73.5883 211.047 70.1651 208.787 66.9299C208.299 66.2312 207.783 65.6969 207.09 65.2683C205.769 64.458 204.277 64.1879 202.78 63.9648C202.586 63.9354 202.275 64.182 202.146 64.3817C202.029 64.5637 202.058 64.8631 202.058 65.1097C202.058 67.6404 202.058 70.1769 202.058 72.7075H202.046ZM219.485 92.4477C219.485 91.109 218.181 88.5725 217.612 88.5549C218.205 89.7879 218.804 91.0385 219.485 92.4477Z" fill="#92841B"/>
<path d="M134.159 55.0459C134.465 54.6055 134.705 54.1651 135.04 53.807C135.157 53.6837 135.51 53.7307 135.739 53.7718C136.191 53.8481 136.631 54.036 137.089 54.0653C138.98 54.2004 140.87 54.3178 142.767 54.3824C143.219 54.4 143.718 54.2532 144.129 54.0536C144.593 53.8305 144.904 54.0477 145.145 54.3119C145.274 54.4529 145.192 54.8051 145.168 55.0635C145.157 55.2396 145.051 55.4099 145.057 55.5802C145.092 57.2066 145.18 58.833 145.174 60.4595C145.174 62.3149 145.074 64.1644 145.057 66.0198C144.986 73.9347 144.957 81.8495 144.845 89.7644C144.804 92.5299 144.505 95.2954 144.423 98.0668C144.364 99.9516 144.528 101.836 144.487 103.721C144.464 104.866 144.323 106.029 144.094 107.15C143.607 109.557 143.055 111.953 142.473 114.343C142.133 115.758 141.252 116.862 140.142 117.76C138.363 119.199 136.396 120.279 134.142 120.778C132.856 121.066 131.57 121.465 130.266 121.553C129.139 121.629 127.971 121.418 126.843 121.212C123.455 120.602 120.396 119.292 117.971 116.75C116.644 115.353 115.546 113.767 115.041 111.924C114.695 110.673 114.783 109.293 114.718 107.972C114.66 106.786 114.636 105.594 114.63 104.402C114.63 104.097 114.754 103.792 114.812 103.486C114.853 103.263 114.895 103.046 114.9 102.823C115 100.462 115.112 98.0962 115.182 95.7358C115.229 94.0976 115.206 92.4595 115.235 90.8154C115.264 89.2947 115.353 87.774 115.358 86.2532C115.376 81.5325 115.376 76.8118 115.358 72.091C115.335 66.3897 115.288 60.6884 115.218 54.9872C115.206 54.2943 115.423 53.9655 116.087 53.9244C118.001 53.807 119.921 53.7072 121.835 53.5839C122.915 53.5134 123.996 53.4371 125.07 53.302C125.551 53.2374 125.763 53.349 125.751 53.8305C125.722 55.0987 125.704 56.3611 125.663 57.6294C125.634 58.6393 125.581 59.6492 125.546 60.6591C125.346 66.1549 125.446 71.6507 125.716 77.1464C125.827 79.454 125.669 81.7732 125.64 84.0925C125.622 85.625 125.622 87.1574 125.593 88.6958C125.534 91.5846 125.469 94.4675 125.387 97.3505C125.293 100.821 125.205 104.291 125.064 107.761C125.011 109.094 125.522 110.092 126.573 110.832C127.677 111.612 128.845 112.17 130.278 112.088C131.564 112.018 132.568 111.542 133.237 110.468C133.995 109.252 134.482 107.96 134.435 106.469C134.324 103.134 134.282 99.793 134.247 96.458C134.236 95.0253 134.353 93.5868 134.347 92.1483C134.341 89.6587 134.271 87.1633 134.253 84.6738C134.253 83.887 134.376 83.0943 134.371 82.3075C134.365 80.8631 134.271 79.4129 134.277 77.9684C134.277 76.2363 134.359 74.5101 134.376 72.778C134.435 67.5112 134.476 62.2503 134.529 56.9835C134.535 56.2026 134.541 55.4217 134.171 55.0576L134.159 55.0459Z" fill="#92841B"/>
<path d="M153.87 100.674C153.87 98.7068 153.894 96.7457 153.864 94.7787C153.847 93.7864 153.706 92.8 153.688 91.8077C153.659 90.0697 153.688 88.3259 153.688 86.5879C153.688 85.4136 153.8 84.2217 153.653 83.065C153.406 81.1039 154.011 79.2191 153.97 77.2815C153.929 75.3439 154.146 73.4004 154.199 71.4569C154.24 69.8363 154.158 68.2158 154.228 66.5952C154.322 64.4228 154.598 62.2738 155.291 60.1952C155.749 58.8213 156.495 57.7057 157.751 56.9013C159.659 55.6859 161.509 54.3295 163.781 53.895C165.108 53.6426 166.476 53.6367 167.833 53.5251C168.508 53.4723 169.189 53.4488 169.864 53.3901C171.673 53.2316 173.311 54.0477 175.037 54.3119C176.006 54.4646 176.828 54.8873 177.597 55.4686C179.934 57.2125 181.537 59.5024 182.57 62.1916C182.793 62.767 182.664 63.4774 182.899 64.0411C183.427 65.3152 183.369 66.6246 183.369 67.9457C183.369 68.985 183.369 70.0301 183.369 71.0694C183.369 71.9853 183.169 72.1439 182.259 72.1791C181.267 72.2202 180.274 72.3787 179.282 72.3963C178.02 72.4139 176.746 72.4257 175.495 72.2848C174.039 72.1204 173.546 71.2983 173.816 69.8598C173.874 69.5604 173.874 69.2257 173.798 68.938C173.452 67.6521 173.088 66.3721 172.7 65.098C172.189 63.4305 170.933 62.5439 169.318 62.2444C168.707 62.127 167.974 62.3677 167.363 62.6143C166.2 63.084 165.296 63.9354 164.627 64.9747C164.351 65.3974 164.398 66.0198 164.216 66.5189C163.593 68.2217 163.693 69.9655 163.805 71.7211C163.922 73.5002 164.057 75.2793 164.063 77.0583C164.092 83.2 164.063 89.3417 164.081 95.4892C164.087 97.9141 164.139 100.339 164.222 102.758C164.257 103.739 164.439 104.713 164.509 105.694C164.556 106.363 164.48 107.039 164.527 107.702C164.592 108.589 165.126 109.358 165.055 110.315C165.003 111.061 166.265 112.035 167.099 112.176C168.966 112.487 170.528 111.877 171.855 110.591C172.442 110.021 172.759 109.323 172.853 108.495C172.935 107.802 173.176 107.132 173.252 106.44C173.328 105.776 173.252 105.089 173.305 104.42C173.346 103.903 173.546 103.398 173.552 102.887C173.575 100.128 173.563 97.3681 173.563 94.6026C173.563 93.3872 173.546 92.1659 173.563 90.9505C173.575 90.3927 173.375 90.1813 172.806 90.2283C172.166 90.2752 171.514 90.2165 170.868 90.2459C170.17 90.2811 169.53 90.4103 169.23 91.1912C169.06 91.6433 168.76 91.4084 168.549 91.1912C167.997 90.6275 167.921 89.7116 168.279 89.0011C168.437 88.6899 168.549 88.32 168.543 87.9736C168.531 86.7523 168.478 85.531 168.396 84.3156C168.355 83.7167 168.244 83.1178 168.114 82.5306C167.991 81.9846 168.402 81.4209 168.89 81.6029C170.369 82.1607 171.89 81.9317 173.393 81.9141C176.358 81.8789 179.323 81.8026 182.283 81.7028C182.829 81.6851 183.063 81.8613 183.116 82.3897C183.316 84.433 183.592 86.4763 183.727 88.5255C183.85 90.3985 183.909 92.2833 183.862 94.1622C183.803 96.3171 183.568 98.4661 183.457 100.621C183.375 102.171 183.369 103.721 183.328 105.271C183.287 106.88 183.31 108.495 182.77 110.057C182.57 110.626 182.6 111.278 182.523 111.894C182.47 112.305 182.494 112.74 182.359 113.116C182.089 113.855 181.766 114.583 181.408 115.288C180.192 117.695 178.401 119.398 175.747 120.214C172.53 121.207 169.289 121.77 165.924 121.33C164.31 121.119 162.83 120.526 161.474 119.615C161.28 119.486 160.998 119.48 160.763 119.41C160.64 119.375 160.493 119.357 160.411 119.275C159.096 117.948 157.569 116.856 156.448 115.294C154.903 113.133 153.876 110.89 153.911 108.166C153.946 105.659 153.759 103.146 153.67 100.639C153.729 100.639 153.788 100.639 153.847 100.639L153.87 100.674Z" fill="#92841B"/>
<path d="M244.028 119.938C244.157 119.968 244.251 119.974 244.333 120.015C244.609 120.156 244.879 120.302 245.155 120.449C244.897 120.59 244.644 120.749 244.368 120.872C244.227 120.931 244.057 120.948 243.905 120.942C240.37 120.913 236.865 120.59 233.53 119.862C233.53 119.058 233.5 118.306 233.541 117.56C233.582 116.821 233.741 116.087 233.764 115.353C233.788 114.537 233.694 113.714 233.7 112.892C233.706 111.178 233.759 109.463 233.77 107.749C233.77 106.892 233.7 106.034 233.723 105.183C233.747 104.508 233.958 103.827 233.923 103.157C233.835 101.437 233.682 99.7226 233.512 98.0081C233.43 97.2095 233.248 96.4169 233.118 95.6242C233.101 95.5185 233.142 95.4011 233.154 95.2895C233.171 95.1428 233.248 94.9784 233.201 94.855C231.586 90.1637 230.183 85.4194 229.014 80.593C227.505 74.3868 225.838 68.2216 224.288 62.0272C223.753 59.884 223.372 57.6998 222.931 55.5332C222.896 55.3512 222.99 55.1457 223.031 54.9402C222.925 54.7758 222.644 54.4881 222.696 54.3824C222.82 54.1651 223.096 53.9538 223.342 53.9127C223.906 53.8128 224.487 53.7835 225.063 53.7894C227.094 53.8187 229.126 53.9127 231.163 53.9068C231.633 53.9068 231.786 54.0771 231.938 54.4411C233.371 57.876 234.258 61.4635 235.091 65.0745C235.778 68.0631 236.688 70.9989 237.499 73.964C237.804 75.0738 238.098 76.1776 238.573 77.3402C238.755 76.9292 238.984 76.5358 239.113 76.113C239.847 73.7879 240.481 71.4334 241.286 69.1317C242.607 65.3739 243.805 61.5868 244.439 57.6528C244.597 56.6488 245.22 55.9325 245.519 55.0341C245.155 54.9461 244.838 54.8697 244.48 54.7758C244.674 54.1593 245.126 54.1828 245.537 54.1828C247.868 54.1769 250.199 54.1828 252.53 54.171C252.835 54.171 253.182 54.1299 253.434 53.9831C253.992 53.6484 254.456 53.5897 254.896 54.1593C255.031 54.3354 255.231 54.4587 255.466 54.6642C254.262 55.4451 254.162 56.6899 253.892 57.9112C253.422 60.0484 252.765 62.1446 252.236 64.2701C251.044 69.0672 249.917 73.8818 248.702 78.6789C247.539 83.2763 246.3 87.8503 245.102 92.436C244.333 95.3776 243.952 98.3545 244.028 101.414C244.104 104.678 243.899 107.949 243.887 111.219C243.875 113.615 243.975 116.016 244.022 118.412C244.034 118.905 244.022 119.398 244.022 119.932L244.028 119.938Z" fill="#92841B"/>
<path d="M201.524 127.935C201.541 128.029 201.553 128.059 201.547 128.07C201.271 128.575 201.06 129.456 201.154 130.049C201.494 132.163 201.858 134.277 202.211 136.39C202.445 137.817 202.657 139.244 202.921 140.665C203.185 142.08 203.508 143.477 203.79 144.887C204.424 148.069 205.046 151.251 205.686 154.428C205.792 154.95 205.992 155.455 206.18 156.072C206.268 155.878 206.356 155.737 206.385 155.59C206.884 153.042 207.407 150.506 207.853 147.946C208.364 145.01 208.781 142.057 209.292 139.121C209.521 137.794 209.914 136.496 210.161 135.175C210.431 133.713 210.607 132.233 210.859 130.771C210.989 130.008 211.176 129.257 211.364 128.505C211.611 127.519 212.233 127.119 213.267 127.278C215.075 127.554 216.878 127.853 218.692 128.112C218.997 128.153 219.338 128.07 219.637 127.977C219.978 127.871 220.166 127.906 220.172 128.299C220.172 128.37 220.172 128.434 220.172 128.505C220.207 131.535 220.289 134.564 220.271 137.594C220.254 140.594 220.166 143.601 220.06 146.601C219.954 149.783 219.708 152.96 219.678 156.136C219.655 158.491 219.902 160.851 219.99 163.206C220.019 163.969 219.878 164.738 219.902 165.502C219.966 167.504 220.078 169.5 220.172 171.549C220.06 171.62 219.884 171.784 219.678 171.837C219.467 171.89 219.215 171.872 218.997 171.825C218.61 171.731 218.234 171.52 217.846 171.485C216.572 171.373 215.292 171.32 213.977 171.244C213.249 162.859 213.754 154.539 213.278 146.225C213.161 146.783 213.026 147.335 212.926 147.893C212.233 151.715 211.511 155.526 210.865 159.354C210.266 162.912 209.785 166.494 209.174 170.052C208.91 171.608 208.969 171.467 207.424 171.432C206.485 171.408 205.54 171.303 204.606 171.191C204.307 171.156 204.019 170.997 203.919 170.81C203.86 170.222 203.86 169.629 203.737 169.054C203.191 166.47 202.58 163.899 202.046 161.315C201.559 158.931 201.165 156.524 200.678 154.14C200.291 152.244 199.809 150.359 199.386 148.468C199.222 147.728 199.11 146.983 198.975 146.237C198.917 146.237 198.852 146.237 198.793 146.237C198.729 146.771 198.617 147.3 198.6 147.84C198.564 149.237 198.6 150.635 198.547 152.032C198.488 153.729 198.353 155.42 198.282 157.111C198.241 158.121 198.247 159.131 198.23 160.135C198.206 161.955 198.165 163.781 198.165 165.601C198.165 167.222 198.206 168.843 198.235 170.463C198.235 170.539 198.282 170.663 198.335 170.68C198.834 170.827 198.84 171.303 198.688 171.549C198.511 171.831 198.089 172.095 197.76 172.113C196.668 172.183 195.558 172.213 194.472 172.113C193.92 172.06 193.368 171.731 192.869 171.444C192.558 171.268 192.376 170.962 192.681 170.539C192.828 170.34 192.816 169.988 192.81 169.712C192.763 166.435 192.669 163.159 192.652 159.877C192.64 158.051 192.757 156.219 192.798 154.393C192.828 153.036 192.81 151.686 192.816 150.33C192.822 147.3 192.822 144.27 192.845 141.234C192.851 140.001 192.928 138.768 192.922 137.53C192.922 136.52 192.816 135.51 192.804 134.5C192.781 133.032 192.804 131.57 192.787 130.102C192.787 129.756 192.704 129.392 192.599 129.057C192.44 128.564 192.481 128.194 193.063 128.094C193.591 128.006 194.131 127.93 194.666 127.912C196.092 127.877 197.513 127.877 198.94 127.859C199.604 127.853 200.267 127.818 200.931 127.824C201.142 127.824 201.353 127.894 201.541 127.924L201.524 127.935Z" fill="#44605D"/>
<path d="M155.638 171.502C154.328 171.502 153.019 171.502 151.704 171.502C150.852 171.502 149.995 171.532 149.149 171.455C148.057 171.356 147.952 171.191 147.952 170.111C147.952 167.228 147.969 164.345 147.952 161.456C147.934 159.119 147.858 156.782 147.84 154.44C147.817 151.968 147.805 149.49 147.84 147.018C147.905 143.043 148.034 139.074 148.098 135.099C148.122 133.461 148.034 131.816 147.993 130.172C147.981 129.773 147.916 129.356 147.993 128.975C148.081 128.57 148.269 128.159 148.827 128.159C150.7 128.17 152.573 128.176 154.446 128.164C155.168 128.164 155.89 128.053 156.606 128.094C157.845 128.164 159.072 128.405 160.311 128.411C162.431 128.423 163.787 129.65 164.915 131.188C165.825 132.433 166.224 133.948 166.347 135.451C166.547 137.899 166.541 140.365 166.6 142.826C166.664 145.491 166.711 148.157 166.752 150.823C166.776 152.226 166.747 153.629 166.794 155.027C166.829 156.095 166.964 157.164 167.022 158.233C167.093 159.519 167.152 160.804 167.193 162.09C167.298 165.742 165.731 168.484 162.613 170.352C161.327 171.121 159.906 171.438 158.421 171.461C157.493 171.479 156.565 171.461 155.638 171.461C155.638 171.473 155.638 171.491 155.638 171.502ZM154.387 156.336C154.387 156.336 154.434 156.336 154.463 156.336C154.463 157.487 154.451 158.638 154.463 159.789C154.487 161.662 154.522 163.535 154.545 165.408C154.545 165.766 154.657 165.936 155.05 165.942C156.6 165.96 157.98 165.449 159.231 164.592C159.489 164.415 159.683 164.087 159.818 163.787C160.305 162.683 160.429 161.538 160.382 160.323C160.317 158.573 160.47 156.818 160.511 155.062C160.552 153.259 160.57 151.463 160.593 149.66C160.611 148.233 160.634 146.807 160.622 145.386C160.611 144.065 160.581 142.743 160.493 141.428C160.382 139.72 160.247 138.011 160.035 136.308C159.871 135.034 159.067 134.218 157.81 133.971C156.976 133.807 156.113 133.766 155.262 133.737C155.062 133.737 154.722 133.995 154.68 134.189C154.551 134.793 154.469 135.428 154.481 136.044C154.522 137.776 154.657 139.508 154.68 141.24C154.716 143.771 154.722 146.302 154.669 148.832C154.622 151.334 154.487 153.835 154.387 156.336Z" fill="#44605D"/>
<path d="M129.715 160.076C129.474 163.875 128.217 167.604 128.329 171.667C125.945 171.179 123.532 171.996 121.119 171.69C121.054 171.573 120.995 171.45 120.931 171.332C121.077 171.279 121.218 171.185 121.371 171.174C122.111 171.103 122.164 170.492 122.234 169.988C122.428 168.625 122.551 167.246 122.704 165.877C122.851 164.533 122.98 163.188 123.144 161.85C123.232 161.121 123.385 160.405 123.473 159.683C123.596 158.667 123.673 157.64 123.79 156.624C123.913 155.585 124.066 154.545 124.195 153.506C124.465 151.31 124.683 149.108 124.994 146.912C125.346 144.435 125.775 141.963 126.156 139.491C126.438 137.641 126.726 135.786 126.949 133.924C127.119 132.498 127.213 131.059 127.313 129.621C127.337 129.309 127.231 128.986 127.166 128.517C127.401 128.44 127.748 128.258 128.1 128.235C129.509 128.153 130.918 128.1 132.333 128.07C133.543 128.047 134.758 128.112 135.968 128.041C136.496 128.012 136.713 128.159 136.801 128.64C137.042 130.008 137.306 131.37 137.535 132.738C137.723 133.854 137.823 134.987 138.046 136.091C138.434 137.988 138.898 139.866 139.309 141.757C139.837 144.2 140.407 146.642 140.829 149.102C141.276 151.68 141.563 154.287 141.945 156.876C142.233 158.808 142.556 160.74 142.855 162.672C143.225 165.032 143.595 167.392 143.953 169.753C143.982 169.952 143.941 170.158 143.965 170.363C143.994 170.651 144.053 170.939 144.094 171.226C144.159 171.232 144.223 171.244 144.288 171.25C144.153 171.467 144.024 171.69 143.859 171.96C143.019 171.185 141.998 171.502 141.07 171.403C140.219 171.309 139.35 171.332 138.492 171.379C137.917 171.408 137.641 171.138 137.53 170.651C137.195 169.177 136.866 167.704 136.567 166.224C136.185 164.298 135.844 162.366 135.463 160.44C135.439 160.305 135.257 160.106 135.146 160.1C133.367 160.076 131.588 160.082 129.715 160.082V160.076ZM132.574 140.876C132.545 140.876 132.515 140.87 132.486 140.865C131.799 145.456 131.112 150.042 130.396 154.821C131.928 153.829 133.466 154.557 134.923 154.199C134.136 149.748 133.355 145.309 132.574 140.876Z" fill="#44605D"/>
<path d="M97.5149 171.262C97.3916 171.467 97.2683 171.673 97.1802 171.819C95.4775 171.215 93.7454 171.403 92.0426 171.361C90.9799 171.338 90.8977 171.361 90.6569 170.31C90.2459 168.508 89.923 166.688 89.5707 164.868C89.283 163.405 89.0188 161.943 88.7135 160.487C88.6782 160.329 88.4492 160.094 88.3024 160.088C86.5645 160.059 84.8265 160.07 82.9711 160.07C82.6834 163.834 81.4973 167.586 81.556 171.667C79.1663 171.179 76.7648 171.99 74.3634 171.679L74.3223 171.444C74.428 171.35 74.5278 171.179 74.6452 171.168C75.4026 171.08 75.4026 170.445 75.4731 169.952C75.7549 167.944 76.0015 165.93 76.2364 163.916C76.3773 162.695 76.4419 161.468 76.5769 160.252C76.6533 159.548 76.8001 158.855 76.9175 158.156C76.9527 157.933 77.0173 157.716 77.0467 157.493C77.2933 155.268 77.4812 153.03 77.7865 150.811C78.5498 145.333 79.3835 139.866 80.1469 134.388C80.37 132.779 80.4522 131.153 80.5637 129.532C80.5872 129.245 80.458 128.945 80.3758 128.523C80.6283 128.44 80.9513 128.264 81.2859 128.247C82.7186 128.164 84.1513 128.112 85.5839 128.082C86.8169 128.053 88.0558 128.106 89.2889 128.047C89.7234 128.029 89.9347 128.147 90.0052 128.54C90.2518 129.891 90.4925 131.235 90.7391 132.586C91.0034 134.03 91.25 135.48 91.5318 136.925C91.796 138.269 92.0955 139.608 92.3949 140.941C92.7355 142.456 93.1817 143.953 93.4401 145.486C93.945 148.492 94.3443 151.51 94.7964 154.528C94.9549 155.579 95.1663 156.618 95.319 157.669C95.5949 159.601 95.8063 161.544 96.0999 163.476C96.4169 165.549 96.7986 167.615 97.1509 169.682C97.1861 169.882 97.1744 170.081 97.1979 170.281C97.239 170.61 97.2859 170.939 97.327 171.268C97.3916 171.268 97.4503 171.268 97.5149 171.268V171.262ZM85.807 140.835C85.807 140.835 85.7542 140.853 85.7307 140.859C85.0437 145.444 84.3568 150.036 83.6404 154.792C85.167 153.829 86.723 154.557 88.1674 154.193C87.3747 149.707 86.5938 145.268 85.8129 140.829L85.807 140.835Z" fill="#44605D"/>
<path d="M171.191 128.211C171.596 128.129 171.954 128.012 172.313 128C174.661 127.924 177.01 127.841 179.359 127.83C181.484 127.818 183.61 127.888 185.735 127.918C186.445 127.93 187.156 127.918 187.843 127.918C187.884 128.81 187.943 129.673 187.966 130.537C187.99 131.37 187.966 132.21 187.966 133.22C187.414 133.331 186.704 133.578 185.982 133.607C183.95 133.695 181.919 133.701 179.881 133.731C179.077 133.742 179.006 133.813 179.024 134.641C179.065 136.801 179.106 138.968 179.135 141.129C179.153 142.256 179.088 143.383 179.147 144.505C179.2 145.509 179.353 145.662 180.38 145.756C181.302 145.844 182.23 145.808 183.157 145.826C183.815 145.838 184.473 145.826 185.124 145.861C186.674 145.938 187.25 146.801 186.768 148.304C186.487 149.179 186.175 150.054 186.628 151.081C186.222 151.193 185.876 151.357 185.518 151.381C183.833 151.492 182.148 151.563 180.462 151.639C180.222 151.651 179.975 151.592 179.546 151.539C179.546 152.056 179.488 152.543 179.558 153.007C179.946 155.778 179.617 158.55 179.664 161.321C179.687 162.566 179.611 163.817 179.535 165.067C179.505 165.578 179.734 165.701 180.175 165.672C182.23 165.555 184.285 165.443 186.34 165.32C187.109 165.273 187.872 165.185 188.636 165.132C188.847 165.114 189.058 165.149 189.252 165.155C189.276 165.29 189.305 165.355 189.287 165.372C188.336 166.259 188.641 167.357 188.724 168.449C188.8 169.488 188.741 170.539 188.741 171.549C187.062 171.485 185.394 171.391 183.727 171.373C181.96 171.356 180.192 171.426 178.419 171.45C177.28 171.461 176.135 171.426 174.996 171.461C174.55 171.473 174.08 171.555 173.681 171.737C173.017 172.037 172.459 171.661 171.866 171.555C171.79 171.543 171.743 171.356 171.643 171.185C171.937 171.121 172.166 171.068 172.501 170.992C172.43 169.999 172.342 169.007 172.283 168.003C172.195 166.517 172.119 165.032 172.037 163.541C171.954 162.037 171.861 160.534 171.79 159.031C171.772 158.673 171.849 158.309 171.861 157.951C171.913 155.649 171.99 153.348 171.99 151.046C171.99 148.04 171.89 145.039 171.896 142.033C171.896 139.027 172.001 136.015 172.019 133.008C172.025 131.734 171.954 130.454 171.843 129.186C171.819 128.892 171.479 128.622 171.179 128.194L171.191 128.211Z" fill="#44605D"/>
<path d="M100.909 151.539C100.838 149.848 100.721 148.157 100.709 146.466C100.697 144.505 100.727 142.538 100.821 140.577C100.915 138.698 101.02 136.807 101.284 134.94C101.778 131.499 103.927 129.339 107.044 128.07C109.011 127.272 111.043 127.442 113.069 127.836C113.245 127.871 113.415 127.941 113.597 127.965C115.781 128.27 117.214 129.685 118.441 131.341C118.799 131.828 119.011 132.468 119.152 133.067C119.563 134.793 120.038 136.514 119.921 138.316C119.897 138.675 119.88 139.068 119.709 139.361C119.568 139.596 119.21 139.837 118.94 139.843C117.419 139.866 115.893 139.819 114.372 139.796C113.685 139.784 113.28 139.197 113.386 138.399C113.544 137.201 113.409 136.026 112.969 134.899C112.552 133.836 111.877 133.302 110.996 133.314C109.769 133.337 108.589 134.065 108.254 135.034C107.954 135.903 107.491 136.766 107.438 137.653C107.338 139.356 107.479 141.076 107.52 142.79C107.52 142.926 107.561 143.061 107.555 143.19C107.514 144.511 107.473 145.838 107.432 147.159C107.367 149.144 107.238 151.134 107.25 153.119C107.279 156.618 107.285 160.117 107.825 163.588C108.06 165.085 108.923 165.748 109.828 165.754C111.448 165.766 112.693 164.944 112.922 163.488C113.116 162.266 113.127 161.016 113.192 159.771C113.239 158.873 113.198 158.914 114.043 159.237C114.39 159.372 114.83 159.278 115.229 159.266C116.292 159.243 117.355 159.172 118.412 159.178C119.48 159.184 119.803 159.472 119.768 160.558C119.709 162.131 119.604 163.711 119.386 165.273C119.122 167.146 117.995 168.59 116.527 169.647C113.897 171.543 110.873 172.43 107.679 171.825C104.602 171.244 102.318 169.418 101.49 166.247C101.161 164.997 101.061 163.664 101.008 162.366C100.891 159.501 100.873 156.63 100.821 153.764C100.809 153.019 100.821 152.273 100.821 151.527C100.85 151.527 100.879 151.527 100.909 151.527V151.539Z" fill="#44605D"/>
<path d="M245.073 145.832C246.758 145.832 248.361 145.838 249.97 145.832C250.534 145.832 251.103 145.709 251.661 145.767C251.866 145.791 252.166 146.149 252.201 146.396C252.354 147.306 252.401 148.233 252.512 149.155C252.583 149.766 252.735 150.365 252.759 150.975C252.765 151.146 252.501 151.463 252.319 151.492C251.837 151.568 251.332 151.51 250.839 151.539C249.171 151.639 247.51 151.762 245.842 151.862C245.513 151.886 245.179 151.862 244.797 151.862C244.744 152.167 244.668 152.426 244.662 152.69C244.621 154.316 244.574 155.943 244.58 157.569C244.58 160.17 244.644 162.771 244.644 165.367C244.644 165.913 244.791 166.101 245.367 166.106C247.099 166.136 248.825 166.253 250.557 166.3C251.585 166.33 252.618 166.33 253.646 166.271C253.904 166.259 254.145 165.983 254.468 165.783C255.072 168.185 254.62 170.492 254.561 172.87C254.297 172.782 254.221 172.777 254.221 172.753C254.051 171.878 253.417 171.984 252.753 171.984C251.238 171.984 249.723 171.919 248.208 171.849C245.496 171.731 242.789 171.59 240.076 171.455C239.401 171.42 238.732 171.356 238.045 171.303C238.697 169.124 238.115 166.934 238.321 164.779C238.432 163.599 238.55 162.413 238.55 161.227C238.55 159.519 238.385 157.816 238.379 156.107C238.379 154.316 238.503 152.526 238.515 150.735C238.526 148.662 238.432 146.589 238.444 144.517C238.462 141.616 238.526 138.716 238.579 135.815C238.603 134.5 238.661 133.179 238.691 131.863C238.708 131.03 238.744 130.196 238.679 129.368C238.65 129.022 238.391 128.687 238.192 128.252C238.585 127.977 238.955 127.736 239.624 127.918C240.423 128.135 241.298 128.147 242.137 128.141C243.993 128.141 245.854 128.053 247.709 128.029C249.306 128.012 250.904 128.018 252.501 128.047C253.011 128.053 253.516 128.153 254.021 128.211C254.133 128.047 254.286 127.824 254.438 127.601C254.515 127.612 254.585 127.63 254.661 127.642C254.714 127.906 254.814 128.176 254.808 128.44C254.779 129.773 254.72 131.106 254.679 132.439C254.673 132.709 254.679 132.985 254.726 133.249C254.873 134.012 254.773 134.153 254.021 134.13C252.618 134.089 251.215 134.024 249.811 134.018C248.772 134.012 247.733 134.083 246.694 134.106C246.206 134.118 245.719 134.106 245.067 134.106V145.826L245.073 145.832Z" fill="#44605D"/>
<path d="M225.186 128.358C225.908 127.9 226.719 128.194 227.511 128.194C228.909 128.2 230.306 128.2 231.703 128.117C232.296 128.082 232.455 128.382 232.455 128.804C232.49 132.556 232.531 136.308 232.502 140.06C232.484 142.444 232.279 144.828 232.279 147.206C232.279 150.594 232.39 153.982 232.455 157.37C232.525 161.186 232.572 164.997 232.672 168.813C232.69 169.465 232.925 170.117 233.107 170.974C232.702 171.086 232.15 171.338 231.58 171.373C230.118 171.455 228.644 171.42 227.177 171.467C226.448 171.491 226.349 171.479 225.785 170.792C225.902 170.44 226.061 170.187 226.061 169.941C226.032 165.619 226.149 161.286 225.873 156.982C225.662 153.676 225.996 150.4 225.908 147.106C225.82 143.806 225.961 140.501 225.961 137.201C225.961 134.647 225.932 132.092 225.85 129.538C225.838 129.163 225.439 128.799 225.18 128.364L225.186 128.358Z" fill="#44605D"/>
<path d="M148.674 204.459H144.423C144.423 204.09 144.487 203.761 144.411 203.467C143.378 199.304 142.321 195.141 141.276 190.984C141.234 190.814 141.176 190.65 141.041 190.503V204.518C139.843 204.319 138.674 204.724 137.659 204.401C137.794 203.978 137.97 203.696 137.964 203.42C137.946 200.708 137.888 197.995 137.87 195.282C137.852 192.887 137.899 190.491 137.87 188.095C137.841 185.835 137.747 183.58 137.67 181.143C138.034 181.185 138.387 181.273 138.745 181.267C139.532 181.255 140.324 181.232 141.111 181.155C141.645 181.108 141.851 181.279 141.98 181.819C143.09 186.563 144.241 191.295 145.386 196.028C145.427 196.198 145.497 196.363 145.609 196.697V181.261H148.674V204.459Z" fill="#92841B"/>
<path d="M224.393 204.465H220.195C220.166 204.06 220.189 203.749 220.119 203.467C219.074 199.287 218.023 195.106 216.966 190.925C216.925 190.761 216.854 190.608 216.66 190.462C216.66 190.761 216.66 191.061 216.66 191.354C216.713 195.4 216.766 199.445 216.813 203.491C216.825 204.477 216.813 204.465 215.827 204.483C215.198 204.495 214.57 204.589 213.942 204.583C213.707 204.583 213.478 204.412 213.402 204.377C213.525 203.984 213.689 203.72 213.684 203.455C213.66 200.52 213.601 197.578 213.566 194.642C213.519 190.714 213.484 186.78 213.437 182.852C213.431 182.335 213.378 181.819 213.337 181.126C213.748 181.179 214.13 181.273 214.511 181.267C215.298 181.255 216.091 181.22 216.872 181.149C217.394 181.102 217.594 181.325 217.7 181.807C218.41 184.948 219.127 188.09 219.866 191.225C220.248 192.845 220.688 194.46 221.111 196.075C221.158 196.257 221.234 196.433 221.44 196.586C221.44 195.558 221.458 194.537 221.44 193.509C221.411 191.994 221.346 190.485 221.317 188.976C221.264 186.522 221.234 184.062 221.176 181.607C221.164 181.138 221.463 181.155 221.751 181.161C222.602 181.185 223.454 181.237 224.393 181.279V204.465Z" fill="#92841B"/>
<path d="M125.352 204.477C124.201 204.818 123.027 204.142 121.876 204.659C121.582 204.366 121.353 204.025 121.254 203.432C121.071 202.34 120.549 201.312 120.185 200.25C119.774 199.058 119.404 197.854 118.981 196.668C118.735 195.975 118.423 195.3 118.136 194.619C118.065 194.619 118.001 194.619 117.93 194.613C117.93 195.411 117.93 196.216 117.93 197.014C117.924 197.854 117.895 198.688 117.889 199.527C117.889 200.361 117.86 201.201 117.907 202.035C117.954 202.821 117.46 203.673 118.224 204.459C116.873 204.518 115.587 204.577 114.219 204.636C114.219 204.565 114.249 204.307 114.249 204.043C114.249 202.011 114.249 199.979 114.243 197.948C114.214 192.681 114.178 187.42 114.149 182.153C114.149 181.179 114.161 181.173 115.106 181.19C116.891 181.214 118.676 181.261 120.461 181.273C122.081 181.284 123.279 182.2 123.673 183.563C124.495 186.404 125 189.364 123.573 192.206C123.226 192.904 122.575 193.444 122.081 194.073C121.976 194.208 121.847 194.437 121.888 194.566C122.874 197.631 123.872 200.69 124.888 203.749C124.964 203.984 125.158 204.183 125.352 204.489V204.477ZM117.995 184.22V191.378C119.745 191.706 120.15 191.571 120.766 189.792C120.778 189.751 120.79 189.704 120.79 189.657C120.825 188.442 120.907 187.226 120.86 186.017C120.842 185.553 120.572 185.077 120.338 184.661C120.22 184.455 119.921 184.267 119.692 184.244C119.116 184.185 118.535 184.226 118.001 184.226L117.995 184.22Z" fill="#92841B"/>
<path d="M248.361 181.801C250.375 181.772 252.013 182.652 253.205 184.138C253.833 184.925 254.186 186.058 253.904 187.15C253.234 189.751 252.483 192.329 251.778 194.918C251.385 196.374 251.05 197.848 250.633 199.292C250.369 200.22 250.046 201.136 249.676 202.029C248.525 204.818 246.617 205.786 243.74 205.099C242.942 204.906 242.12 204.683 241.397 204.295C239.747 203.414 238.996 201.248 239.659 199.287C239.982 198.33 240.2 197.337 240.458 196.357C240.569 195.928 240.646 195.494 240.751 195.065C241.039 193.908 241.303 192.746 241.638 191.601C241.92 190.661 242.46 189.769 242.589 188.818C242.824 187.109 243.717 185.7 244.374 184.185C245.126 182.453 246.6 181.866 248.361 181.801ZM250.434 186.528C250.164 186.193 249.976 185.929 249.753 185.7C249.582 185.524 249.353 185.412 249.177 185.242C248.719 184.796 248.073 184.86 247.774 185.441C247.474 186.023 247.187 186.622 246.993 187.244C246.312 189.434 245.642 191.636 245.02 193.844C244.433 195.928 243.91 198.03 243.376 200.126C243.188 200.854 243.593 201.559 244.321 201.847C245.114 202.158 245.736 201.988 246.071 201.207C246.465 200.285 246.735 199.31 247.04 198.353C247.703 196.245 248.385 194.143 249.001 192.023C249.518 190.233 249.958 188.418 250.445 186.534L250.434 186.528Z" fill="#92841B"/>
<path d="M237.693 191.284C237.693 192.845 237.663 194.401 237.704 195.963C237.728 197.067 237.804 198.171 237.921 199.263C238.221 202.034 235.937 204.524 233.306 204.506C231.839 204.501 230.371 204.571 228.903 204.594C227.717 204.612 227.599 204.483 227.599 203.291C227.588 198.934 227.558 194.583 227.576 190.227C227.582 188.236 227.676 186.252 227.711 184.261C227.723 183.474 227.693 182.682 227.664 181.895C227.646 181.455 227.858 181.29 228.28 181.302C230.377 181.355 232.479 181.325 234.569 181.478C235.696 181.56 236.542 182.353 236.935 183.392C237.276 184.308 237.499 185.301 237.552 186.275C237.651 187.943 237.581 189.616 237.581 191.29H237.698L237.693 191.284ZM231.046 201.471C232.96 201.647 234.217 200.937 234.305 199.21C234.334 198.582 234.352 197.948 234.357 197.314C234.381 195.429 234.434 193.544 234.404 191.659C234.375 189.775 234.322 187.884 234.17 186.005C234.076 184.872 233.606 184.473 232.473 184.314C231.116 184.12 231.169 184.238 231.122 185.524C231.069 186.962 231.187 188.412 231.181 189.851C231.157 192.945 231.099 196.04 231.058 199.14C231.046 199.921 231.058 200.708 231.058 201.471H231.046Z" fill="#92841B"/>
<path d="M103.897 181.02C103.897 181.948 103.897 182.782 103.897 183.61C103.897 187.209 103.915 190.802 103.891 194.401C103.88 196.21 103.792 198.018 103.75 199.827C103.727 200.731 104.25 201.348 105.16 201.524C105.976 201.682 106.739 201.295 106.874 200.379C107.05 199.21 106.992 198.001 107.009 196.809C107.027 195.529 107.027 194.243 107.021 192.963C107.015 190.955 106.974 188.947 106.986 186.939C106.986 185.494 107.044 184.044 107.08 182.6C107.091 182.171 106.945 181.578 107.168 181.361C107.391 181.138 107.978 181.279 108.407 181.279C108.812 181.279 109.223 181.302 109.628 181.308C109.998 181.308 110.374 181.308 110.673 181.308C110.673 184.901 110.696 188.465 110.667 192.029C110.65 193.996 110.585 195.963 110.473 197.924C110.403 199.134 110.209 200.338 110.045 201.535C109.857 202.915 108.988 203.737 107.767 204.26C105.841 205.082 103.956 204.982 102.194 203.866C100.815 202.992 100.11 201.753 100.145 200.009C100.263 194.137 100.28 188.26 100.333 182.388C100.333 182.183 100.345 181.977 100.333 181.778C100.304 181.384 100.462 181.185 100.868 181.173C101.86 181.132 102.852 181.079 103.909 181.032L103.897 181.02Z" fill="#92841B"/>
<path d="M89.8056 204.636H86.1829C86.9462 204.084 86.723 203.262 86.8111 202.598C87.6097 196.838 88.3671 191.072 89.1069 185.312C89.2654 184.068 89.3359 182.805 89.4651 181.367C90.1814 181.337 91.021 181.29 91.8548 181.267C92.577 181.249 93.2992 181.237 94.0155 181.279C94.1917 181.29 94.4618 181.502 94.497 181.666C94.6849 182.523 94.8023 183.392 94.9667 184.255C95.2603 185.782 95.5832 187.297 95.8709 188.823C96.2467 190.82 96.6225 192.81 96.9513 194.812C97.4093 197.619 97.8203 200.432 98.2489 203.238C98.3194 203.708 98.3546 204.189 98.4016 204.571C97.4739 204.536 96.6108 204.454 95.7535 204.495C95.1487 204.524 94.8845 204.289 94.7788 203.737C94.4852 202.211 94.1623 200.684 93.8981 199.152C93.8041 198.582 93.6104 198.33 92.9939 198.382C92.2775 198.441 91.5495 198.394 90.7157 198.394C90.4221 200.414 90.1227 202.451 89.7997 204.641L89.8056 204.636ZM93.5223 195.364C93.0819 192.887 92.6768 190.597 92.2658 188.301C92.2247 188.301 92.1836 188.307 92.1425 188.313C91.7843 190.702 91.432 193.092 91.0915 195.364H93.5164H93.5223Z" fill="#92841B"/>
<path d="M193.803 204.559C192.816 204.53 191.965 204.454 191.125 204.489C190.556 204.512 190.297 204.301 190.197 203.772C189.892 202.175 189.552 200.584 189.27 198.987C189.193 198.535 189.023 198.371 188.571 198.382C187.784 198.406 186.992 198.388 186.111 198.388C185.817 200.42 185.524 202.457 185.212 204.612H181.66C181.807 204.201 182.007 203.825 182.065 203.426C182.365 201.312 182.623 199.193 182.905 197.079C183.457 192.969 184.038 188.859 184.572 184.743C184.713 183.674 184.743 182.594 184.837 181.355C185.647 181.32 186.534 181.273 187.42 181.255C188.048 181.237 188.683 181.296 189.311 181.255C189.692 181.226 189.857 181.343 189.916 181.695C190.074 182.606 190.227 183.516 190.397 184.42C190.679 185.899 190.984 187.379 191.266 188.859C191.618 190.72 191.982 192.581 192.299 194.443C192.581 196.087 192.799 197.742 193.051 199.398C193.309 201.083 193.574 202.774 193.826 204.459C193.838 204.53 193.761 204.618 193.791 204.553L193.803 204.559ZM187.69 188.383C187.643 188.383 187.59 188.383 187.543 188.383C187.191 190.749 186.833 193.116 186.498 195.376C187.338 195.341 188.084 195.306 188.906 195.27C188.495 192.939 188.095 190.661 187.696 188.383H187.69Z" fill="#92841B"/>
<path d="M176.881 193.773C176.1 193.908 175.577 193.996 174.955 194.102V190.937C176.499 190.937 178.073 190.926 179.646 190.955C179.799 190.955 180.075 191.237 180.081 191.389C180.145 193.35 180.18 195.312 180.192 197.273C180.198 197.971 180.169 198.676 180.098 199.369C180.004 200.261 179.951 201.171 179.711 202.023C179.194 203.855 177.709 204.459 176.006 204.712C173.54 205.076 171.579 204.178 170.393 201.988C170.034 201.33 169.911 200.484 169.882 199.721C169.8 197.508 169.788 195.288 169.805 193.075C169.823 190.908 169.893 188.735 169.964 186.569C169.987 185.823 170.029 185.077 170.122 184.338C170.322 182.776 171.526 181.466 173.246 181.22C174.409 181.055 175.624 181.138 176.798 181.255C178.39 181.414 179.223 182.582 179.775 183.921C180.239 185.042 180.192 186.252 180.063 187.614C179.218 187.614 178.39 187.626 177.562 187.614C177.08 187.602 176.875 187.356 176.828 186.845C176.781 186.269 176.634 185.694 176.452 185.142C176.223 184.443 175.653 184.056 175.043 184.085C174.397 184.115 173.569 184.749 173.487 185.395C173.381 186.24 173.358 187.097 173.352 187.949C173.34 190.321 173.346 192.693 173.381 195.059C173.405 196.639 173.475 198.212 173.546 199.792C173.563 200.167 173.604 200.578 173.763 200.907C173.892 201.177 174.191 201.465 174.467 201.541C175.372 201.8 176.393 201.183 176.475 200.238C176.663 198.159 176.74 196.069 176.881 193.773Z" fill="#92841B"/>
<path d="M130.096 201.688H135.398V205.041C134.905 204.97 134.488 204.876 134.071 204.853C132.016 204.741 129.961 204.653 127.906 204.548C127.454 204.524 127.008 204.483 126.702 204.459V181.232H135.51C135.51 181.59 135.51 182.112 135.51 182.635C135.51 183.128 135.457 183.627 135.492 184.115C135.521 184.578 135.234 184.496 134.97 184.496C133.443 184.496 131.91 184.496 130.302 184.496V190.72H134.071C134.183 191.73 134.288 192.675 134.406 193.756C133.026 193.838 131.611 193.914 130.102 194.002V201.682L130.096 201.688Z" fill="#92841B"/>
<path d="M154.487 184.432C153.16 184.678 152.05 184.173 150.799 184.543V181.014C154.152 181.12 157.651 181.226 161.245 181.337C161.245 182.2 161.268 183.14 161.221 184.073C161.215 184.203 160.863 184.402 160.669 184.414C159.748 184.449 158.826 184.432 157.933 184.432V204.53H154.252C154.199 197.86 154.064 191.225 154.493 184.437L154.487 184.432Z" fill="#92841B"/>
<path d="M204.166 205.411C204.119 204.277 203.467 204.518 202.857 204.542C201.682 204.589 200.502 204.571 199.328 204.571C198.112 204.571 196.897 204.571 195.752 204.571C195.752 203.185 195.752 201.788 195.752 200.385C195.758 197.695 195.781 195.006 195.781 192.317C195.781 189 195.77 185.682 195.729 182.365C195.717 181.29 195.664 181.273 196.727 181.237C197.625 181.208 198.523 181.232 199.316 181.232C199.316 183.885 199.275 186.563 199.328 189.24C199.404 193.215 199.551 197.196 199.651 201.171C199.662 201.641 199.927 201.659 200.273 201.665C201.582 201.688 202.892 201.735 204.207 201.741C204.7 201.741 204.818 201.923 204.771 202.399C204.712 203.021 204.818 203.667 204.741 204.289C204.7 204.618 204.43 204.917 204.166 205.405V205.411Z" fill="#92841B"/>
<path d="M80.3406 181.196C80.3406 183.504 80.3054 185.741 80.3465 187.972C80.4228 192.329 80.552 196.685 80.6342 201.042C80.6459 201.565 80.8455 201.682 81.3211 201.682C82.6305 201.682 83.9399 201.741 85.2492 201.747C85.6544 201.747 85.7483 201.911 85.7366 202.281C85.7131 202.956 85.7835 203.643 85.7072 204.313C85.672 204.636 85.396 204.929 85.1553 205.381C85.0848 204.371 84.5035 204.501 83.887 204.536C82.8947 204.594 81.8966 204.577 80.9043 204.577C79.4716 204.577 78.0331 204.577 76.6767 204.577C76.7061 204.019 76.7531 203.473 76.7589 202.927C76.7589 200.42 76.7296 197.913 76.7589 195.405C76.7824 192.769 76.8999 190.133 76.8881 187.497C76.8764 185.565 76.712 183.633 76.6415 181.695C76.6356 181.531 76.8 181.22 76.894 181.214C78.0624 181.179 79.225 181.19 80.3465 181.19L80.3406 181.196Z" fill="#92841B"/>
<path d="M206.597 181.349C206.691 181.337 206.884 181.296 207.072 181.296C207.977 181.296 208.881 181.32 209.785 181.296C210.202 181.284 210.325 181.425 210.325 181.842C210.313 183.968 210.349 186.087 210.343 188.213C210.337 190.855 210.278 193.503 210.29 196.145C210.296 197.977 210.384 199.803 210.443 201.629C210.472 202.475 210.507 203.32 210.548 204.307C210.401 204.336 210.09 204.448 209.773 204.465C209.004 204.506 208.235 204.495 207.466 204.512C207.043 204.518 206.849 204.436 206.884 203.896C206.961 202.839 206.902 201.77 206.896 200.708C206.867 196.345 206.832 191.977 206.802 187.614C206.79 185.923 206.814 184.232 206.79 182.541C206.79 182.165 206.673 181.795 206.591 181.343L206.597 181.349Z" fill="#92841B"/>
<path d="M186.475 119.016C185.958 119.451 185.529 119.727 185.212 120.097C184.238 121.248 183.292 122.428 182.371 123.62C181.977 124.131 181.531 124.371 180.885 124.383C179.922 124.401 178.965 124.524 178.002 124.571C177.832 124.583 177.568 124.506 177.509 124.389C177.409 124.201 177.339 123.878 177.433 123.725C177.985 122.81 178.619 121.941 179.165 121.025C179.535 120.408 179.822 119.745 180.116 119.087C180.374 118.506 180.474 117.919 181.431 118.095C182.253 118.247 183.14 118.095 183.991 117.995C184.931 117.883 185.559 118.388 186.475 119.005V119.016Z" fill="#44605D"/>
<path d="M91.6844 91.9369C91.7373 92.025 91.7725 92.1189 91.796 92.2246C92.483 95.7006 96.7692 100.656 95.3072 105.858C93.763 111.513 85.9832 111.589 85.578 113.268C84.938 117.966 79.6888 117.29 78.8962 117.014C78.8962 117.19 78.7846 117.132 78.72 118.247C78.6261 119.78 78.6026 121.318 78.5674 122.857C78.5322 124.395 78.538 125.933 78.491 127.472C78.4499 128.881 77.8628 130.102 77.029 131.2C76.4184 132.016 75.9839 132.868 75.9545 133.919C75.9369 134.635 75.5964 135.24 74.9505 135.592C73.876 136.173 73.4591 137.025 73.512 138.258C73.5589 139.42 73.1127 140.471 72.2085 141.27C71.6859 141.734 71.181 142.221 70.6525 142.691C70.1182 143.166 69.8011 143.742 69.8481 144.476C69.9068 145.333 69.5839 146.014 68.9263 146.554C68.6092 146.812 68.3509 147.141 68.0103 147.359C67.1178 147.934 66.6599 148.744 66.4074 149.76C65.2448 154.446 62.8551 158.479 59.7373 162.114C58.3222 163.764 56.9131 165.414 55.4569 167.022C54.9931 167.539 54.4646 167.997 53.8716 168.355C52.4389 169.224 51.6639 170.563 51.0826 172.054C50.9241 172.454 50.8125 172.865 50.701 173.276C50.1843 175.272 49.28 177.033 48.0999 178.73C45.0995 183.052 41.3476 186.633 37.3901 190.033C36.0867 191.154 34.8771 192.393 33.5149 193.439C31.5714 194.93 31.1898 196.926 31.5127 199.134C31.6595 200.115 32.0764 201.066 32.4463 201.999C32.8808 203.103 33.3857 204.178 33.8496 205.27C33.9612 205.534 34.0375 205.816 34.061 206.098C34.1138 206.626 33.9846 206.943 33.3799 206.984C31.6008 207.113 29.8217 207.448 28.0426 207.442C26.105 207.436 24.2496 206.861 22.9637 205.299C22.5175 204.759 22.4235 203.896 22.2533 203.162C22.1534 202.733 22.2122 202.258 22.2298 201.806C22.265 201.019 22.0478 200.373 21.6074 199.668C21.1259 198.899 20.9967 197.907 20.7619 196.997C20.5975 196.374 20.5094 195.734 20.3685 194.983C19.9164 195.394 19.5934 195.734 19.2294 196.016C18.6364 196.468 18.2723 196.38 17.9318 195.728C17.3035 194.531 16.1175 194.343 14.9725 194.079C14.0389 193.861 13.352 194.073 12.7942 194.942C12.207 195.852 11.7138 195.781 11.1501 194.836C10.6687 194.026 10.1872 193.21 9.72922 192.376C8.63711 190.379 9.43565 188.113 11.6316 187.232C12.5065 186.88 13.1347 186.375 13.5868 185.571C14.221 184.437 14.8668 183.304 15.5597 182.2C16.0353 181.443 16.5989 180.738 17.1039 179.993C17.5619 179.323 18.0375 178.66 18.4309 177.949C20.3685 174.432 21.7072 170.663 22.905 166.846C23.9619 163.464 24.9483 160.059 26.0404 156.688C26.9153 153.988 28.436 151.715 30.6789 149.966C31.5127 149.314 32.8632 148.216 33.6734 147.529C34.5718 146.771 35.4408 145.985 35.8224 144.799C35.9105 144.523 36.069 144.276 36.2863 144.082C37.7894 142.726 37.396 140.876 37.0848 139.203C36.8676 138.046 36.527 136.913 36.0808 135.821C34.7421 132.574 34.4837 129.298 35.1589 125.839C35.6228 123.479 35.7755 121.042 35.9105 118.629C35.9634 117.719 35.57 116.779 35.3703 115.858C35.0474 114.378 35.1061 112.957 35.7931 111.566C36.2393 110.655 36.5857 109.698 36.9263 108.741C37.0085 108.506 36.9439 108.172 36.8323 107.931C36.3156 106.792 36.0808 105.647 36.3626 104.385C36.6679 103.022 36.8734 101.631 37.032 100.239C37.0848 99.7989 36.8793 99.3174 36.7208 98.8771C36.5329 98.3486 36.5153 97.9435 36.9204 97.4503C37.1318 97.1861 37.1494 96.5519 36.9791 96.2231C35.5817 93.5281 33.509 91.6609 30.3912 91.2617C29.6045 91.1618 28.7883 91.3028 27.9839 91.3028C27.3791 91.3028 26.7626 91.3028 26.1696 91.2029C25.5002 91.0855 25.0481 91.2558 24.549 91.7372C23.7035 92.5475 22.7406 93.2345 21.8011 93.9508C20.8793 94.6495 19.9105 95.2778 19.0063 95.9941C18.1667 96.6576 17.2272 96.9747 16.1762 96.9453C15.5127 96.9277 15.1311 97.1919 14.814 97.8613C14.6378 98.2371 14.3971 98.5776 14.0859 98.8536C13.2991 99.564 13.4459 100.333 13.6808 101.12C13.8158 101.56 14.1212 101.678 14.585 101.56C15.2367 101.396 15.9061 101.284 16.5755 101.208C17.0863 101.149 17.5619 101.326 17.6676 101.889C17.7791 102.465 17.832 103.081 17.2155 103.469C17.1978 103.48 17.1802 103.498 17.1567 103.504C15.5421 103.927 14.2856 104.983 12.9116 105.841C12.0544 106.375 11.0621 106.363 10.1755 105.899C9.03051 105.295 7.81509 105.048 6.56445 104.807C4.37436 104.39 3.56409 103.516 3.21766 101.314C3.11198 100.621 3.07675 99.9163 2.91234 99.2352C2.84188 98.9299 2.58941 98.5717 2.31931 98.4367C1.785 98.1725 1.17436 98.0492 0.598948 97.8554C0.3817 97.7791 0.182067 97.6617 -0.0234375 97.5618C0.105737 97.3211 0.176196 96.9453 0.375829 96.8573C0.904269 96.6165 1.48555 96.4932 2.04335 96.3347C2.25473 96.276 2.47198 96.2407 2.68922 96.1938C2.67748 96.1057 2.68335 96.0528 2.66574 96.0235C2.32519 95.3835 2.37216 94.9607 3.09436 94.8492C3.81656 94.7376 4.53289 94.8198 5.19051 95.2426C5.94207 95.7299 6.14757 95.6301 6.24152 94.72C6.35308 93.6396 6.30023 92.5475 6.45289 91.473C6.74647 89.4062 7.65656 87.5978 9.06574 86.0653C9.40629 85.6954 9.88188 85.4371 10.3223 85.167C10.9799 84.7677 11.6727 84.433 12.3245 84.022C12.9938 83.5993 13.4166 83.0004 13.6808 82.2253C14.1329 80.8925 14.949 79.9061 16.6988 79.8767C17.9905 79.8532 19.0709 79.3189 19.8811 78.2209C20.3391 77.5985 21.0026 77.1347 21.5663 76.5945C22.0889 76.0954 22.6056 75.5905 23.1281 75.0855C23.7094 74.516 24.2378 73.876 24.8896 73.4004C25.5472 72.9189 26.2929 72.4609 27.0679 72.2437C28.436 71.862 29.6456 71.2631 30.6555 70.2826C31.407 69.5486 32.2408 69.1552 33.3153 69.167C33.7204 69.167 34.1725 68.9204 34.5248 68.6679C35.5406 67.9339 36.345 68.0514 36.9909 69.1317C37.2199 69.5193 37.49 69.9127 37.5898 70.3413C38.0419 72.3435 39.5685 73.6352 40.7722 75.1794C40.7369 75.0268 40.7193 74.8683 40.6723 74.7215C39.7446 71.9853 38.7758 69.2609 37.9068 66.5072C37.5545 65.3974 37.443 64.2114 37.167 63.0723C37.0907 62.7611 36.9028 62.4088 36.6562 62.2268C35.6815 61.4928 35.1237 60.6004 35.2588 59.291C35.4525 59.52 35.6169 59.7138 35.9105 60.0602C35.7696 59.1794 35.6111 58.5101 35.5641 57.8349C35.5112 57.1244 35.7109 56.4668 36.2922 55.7916C36.2569 56.2084 36.2334 56.4668 36.21 56.778C36.6679 55.9207 37.1024 55.1105 37.5311 54.3002C37.578 54.2121 37.5722 54.0418 37.6191 54.0242C38.4646 53.7776 38.2944 52.8382 38.858 52.3215C38.6701 52.2745 38.5527 52.2451 38.2004 52.1629C38.7582 51.7578 39.1751 51.4231 39.6272 51.1413C39.7564 51.0591 39.9854 51.1413 40.1615 51.1119C40.7898 50.9945 41.4298 51.0708 41.8466 50.2899C42.0874 49.8495 42.8331 49.6793 43.3556 49.3916L43.4966 49.5266L43.0033 50.4719C43.0327 50.5248 43.0621 50.5776 43.0914 50.6305C44.2951 49.9141 45.4107 48.9629 47.0312 48.916C46.7259 49.2448 46.5263 49.462 46.1857 49.8202C47.1722 49.4738 47.9707 49.2095 48.7516 48.9101C49.7674 48.5167 50.6951 48.7222 51.6228 49.1978C51.9751 49.3798 52.3626 49.4855 52.7619 49.462C54.083 49.3857 54.5644 49.7791 54.9167 51.1295C55.0107 51.5053 55.2044 51.84 55.4393 52.1512C55.727 52.527 55.7035 52.7618 55.4393 53.0789C55.1986 53.3549 55.0048 53.6719 54.7289 54.0594C55.956 54.3883 57.1714 54.3295 58.0756 55.1516C57.6412 55.1927 57.2243 55.2338 56.8133 55.2807C56.8074 55.3688 56.8015 55.4569 56.7956 55.5391C57.3065 55.6624 57.8584 55.7152 58.3281 55.9383C58.8213 56.1791 59.2382 56.5842 59.6903 56.9189C59.6081 57.0187 59.5259 57.1127 59.4437 57.2125C59.2617 57.2007 59.0738 57.1596 58.8918 57.1772C58.4514 57.2301 58.1167 57.7233 58.3751 57.9875C58.8096 58.4279 58.9681 58.9328 59.1208 59.4965C59.2147 59.8371 59.5494 60.1072 59.7138 60.3244C59.4085 60.4653 58.8977 60.6297 58.9094 60.7119C58.974 61.1229 59.1736 61.5163 59.3439 61.9508C58.88 62.2385 58.8272 62.4851 59.2969 62.9901C59.5729 63.2895 59.6375 63.495 59.4144 63.9119C59.1325 64.4462 59.0621 65.098 58.8742 65.8202C60.072 66.0727 61.2639 66.3897 62.4734 66.56C66.149 67.0767 69.4841 68.3215 72.367 70.9226C73.7586 72.1791 75.338 73.1949 77.0055 74.058C77.8276 74.4866 78.5145 75.3556 79.3953 76.0015C79.5714 76.1365 81.4738 78.6965 81.7028 79.1017C82.7186 85.1728 89.5707 88.5725 91.6551 91.8958L91.6844 91.9369ZM55.956 104.819C55.8973 104.39 55.7622 104.021 55.821 103.686C56.0617 102.171 55.5509 100.891 54.7054 99.6815C54.2533 99.0356 54.0889 98.3193 54.4118 97.5618C54.7523 96.7574 55.5391 96.5519 56.1556 97.1684C56.5138 97.5207 56.7956 97.9846 57.0129 98.4484C57.3828 99.2235 57.6529 100.04 58.0052 100.821C58.4632 101.836 58.9916 102.817 59.9487 103.463C60.9821 104.161 61.7806 105.066 62.4382 106.111C62.5498 106.293 62.72 106.539 62.8962 106.569C64.0059 106.727 65.1333 107.003 66.2371 106.921C67.9399 106.792 69.3784 105.823 70.8228 104.989C72.8191 103.839 74.7861 102.635 76.9997 101.913C77.5751 101.725 78.1505 101.496 78.6848 101.214C79.3307 100.868 79.4422 100.415 79.0077 99.8165C78.2973 98.8301 77.6162 97.7967 76.7707 96.9277C71.9971 92.0191 66.0903 90.3457 59.432 91.1736C56.6254 91.5259 54.3178 92.935 52.803 95.4187C52.0925 96.5872 51.6287 97.8554 52.0103 99.2294C52.3802 100.568 52.8617 101.883 53.3314 103.193C53.76 104.385 54.7406 104.743 55.956 104.813V104.819ZM22.8756 189.804C22.9344 189.845 22.9931 189.892 23.0518 189.933C23.1986 189.839 23.3571 189.757 23.498 189.651C24.5725 188.841 25.512 187.902 26.6922 187.174C29.3461 185.53 31.0254 182.999 31.8474 179.952C32.094 179.036 32.3758 178.131 32.6518 177.227C33.2096 175.407 33.7674 173.581 35.1413 172.172C36.6268 170.651 38.1652 169.189 39.6389 167.657C40.2261 167.046 40.8133 166.388 41.189 165.648C41.6646 164.715 41.9993 163.687 42.2694 162.672C42.7509 160.84 43.1149 158.978 43.5729 157.141C43.9134 155.767 44.3244 154.416 44.7002 153.054C44.0602 153.53 43.5435 154.087 43.0327 154.651C42.2694 155.485 41.741 156.424 41.5824 157.575C41.3241 159.442 40.5549 161.11 39.5626 162.701C37.5428 165.96 35.2059 168.978 32.7222 171.884C30.8551 174.068 28.9762 176.247 28.1072 179.077C28.0133 179.376 27.8371 179.646 27.6903 179.928C26.4338 182.353 25.1597 184.766 23.9325 187.203C23.5098 188.037 23.2162 188.941 22.8698 189.81L22.8756 189.804Z" fill="#44605D"/>
</g>
<defs>
<clipPath id="clip0_224_11215">
<rect width="256" height="256" fill="white"/>
</clipPath>
</defs>
</svg>
