<svg width="256" height="256" viewBox="0 0 256 256" fill="none" xmlns="http://www.w3.org/2000/svg">
<path d="M128.475 253.43C127.914 253.43 127.349 253.223 126.909 252.804L116.972 243.367C58.1176 187.471 20.4346 112.292 10.8712 31.6844C10.7551 30.72 11.2701 29.7859 12.1487 29.3668L12.9313 28.9931C48.7814 11.8406 88.7366 2.7771 128.48 2.7771C168.223 2.7771 208.749 11.9719 244.811 29.3718C245.684 29.796 246.194 30.725 246.078 31.6844C236.515 112.292 198.832 187.466 139.977 243.367L130.04 252.804C129.601 253.218 129.04 253.43 128.475 253.43Z" fill="#1B61A7"/>
<path d="M128.48 5.04926C167.935 5.04926 207.39 13.8401 243.826 31.4168C234.303 111.67 197.014 186.062 138.417 241.715L128.48 251.153L118.543 241.715C59.9403 186.067 22.6512 111.67 13.1282 31.4168L13.9108 31.0431C50.1396 13.7139 89.3071 5.04926 128.48 5.04926ZM128.48 0.504883C108.53 0.504883 88.5497 2.72658 69.0947 7.11443C49.4024 11.5528 30.1746 18.2229 11.9517 26.9431L11.169 27.3167C9.41188 28.16 8.38687 30.0231 8.61409 31.952C13.416 72.4172 25.1051 111.403 43.3634 147.829C61.6217 184.254 85.8584 216.954 115.407 245.013L125.344 254.45C126.223 255.283 127.349 255.697 128.475 255.697C129.601 255.697 130.727 255.278 131.605 254.45L141.542 245.013C171.086 216.954 195.327 184.254 213.586 147.829C231.844 111.403 243.538 72.4172 248.34 31.952C248.567 30.0231 247.547 28.165 245.8 27.3218C227.471 18.4754 208.122 11.7093 188.294 7.20532C168.702 2.76192 148.576 0.504883 128.48 0.504883Z" fill="#E30613"/>
<path d="M231.758 39.3543C220.665 114.14 184.3 183.78 129.045 235.863L127.843 236.994L126.642 235.863C120.694 230.259 114.968 224.447 109.469 218.453L127.939 199.983V173.181L97.0224 204.098C93.1697 199.397 89.4535 194.6 85.8735 189.708L127.939 147.642V120.84L74.9266 173.853C71.5486 168.657 68.317 163.37 65.237 158.003L127.939 95.3006V68.4989L55.8806 140.558C53.0176 134.822 50.3162 129.005 47.7815 123.117L127.939 42.9595V17.7382C163.396 17.7533 199.195 25.2162 231.758 39.3543Z" fill="#E30613"/>
<path d="M66.7014 25.0546L28.3973 63.3586C26.8017 56.2593 25.4384 49.1044 24.3225 41.894L28.9982 37.2184C41.2074 32.2246 53.8357 28.1548 66.7014 25.0546Z" fill="#E30613"/>
<path d="M126.354 17.7432L40.1926 103.905C37.9002 97.5576 35.8047 91.1399 33.9011 84.6566L99.2139 19.3438C108.242 18.3339 117.306 17.7937 126.354 17.7432Z" fill="#E30613"/>
<path d="M238.661 34.4968C204.098 18.7985 165.779 10.4974 127.843 10.4974C89.908 10.4974 51.5837 18.7985 17.0262 34.4968L16.0012 34.9613L16.1527 36.0772C26.7007 114.104 64.1767 186.925 121.678 241.125L127.848 246.941L134.019 241.125C191.52 186.925 228.996 114.104 239.544 36.0722L239.696 34.9563L238.671 34.4918L238.661 34.4968ZM230.708 34.3302C230.738 34.3706 230.769 34.411 230.799 34.4514C230.748 34.4009 230.693 34.3504 230.642 34.3049C230.668 34.315 230.688 34.3251 230.713 34.3352L230.708 34.3302ZM25.292 34.1989C25.2011 34.2797 25.1102 34.3655 25.0243 34.4514C25.0748 34.3857 25.1253 34.315 25.1758 34.2494C25.2162 34.2342 25.2566 34.214 25.292 34.1989ZM123.753 238.923C123.668 238.842 123.587 238.762 123.501 238.686C124.107 239.07 124.758 239.378 125.445 239.59C126.187 239.817 126.955 239.908 127.707 239.913C129.151 239.923 130.53 239.564 131.807 239.044L127.843 242.781L123.753 238.923ZM136.755 234.288C136.483 234.48 136.2 234.656 135.897 234.813C135.089 235.232 134.195 235.53 133.246 235.671C131.398 235.949 129.262 235.883 127.955 234.354C127.677 234.03 127.45 233.657 127.298 233.258C127.131 232.813 127.197 232.354 127.278 231.895C127.278 231.874 127.288 231.854 127.293 231.834C127.596 232.718 128.313 233.414 129.257 233.611C131.07 233.99 132.337 232.541 132.529 230.935C132.655 229.839 132.226 228.698 131.353 228.012C130.605 227.421 129.611 227.173 128.661 227.249C125.521 227.497 122.128 230.763 122.88 234.076C123.592 237.201 127.167 238.156 129.959 238.267C130.732 238.297 131.514 238.252 132.277 238.11C132.105 238.161 131.933 238.221 131.762 238.267C131.1 238.459 130.429 238.6 129.757 238.676C129.086 238.751 128.419 238.797 127.763 238.731C127.106 238.671 126.47 238.534 125.869 238.327C125.268 238.105 124.698 237.797 124.183 237.418C123.148 236.671 122.299 235.651 121.83 234.485C121.34 233.323 121.219 232.036 121.517 230.809C121.658 230.193 121.895 229.592 122.208 229.032C122.532 228.481 122.925 227.966 123.385 227.527C124.309 226.658 125.561 226.158 126.909 226.098C128.257 226.002 129.646 226.295 130.984 226.749C129.787 225.987 128.399 225.467 126.914 225.351C126.177 225.305 125.41 225.356 124.667 225.563C123.925 225.77 123.223 226.148 122.612 226.623C121.39 227.587 120.552 228.961 120.123 230.45C119.704 231.96 119.835 233.626 120.431 235.071C120.653 235.586 120.931 236.075 121.254 236.53C65.9389 183.33 29.8111 112.574 19.3035 36.7892C21.2273 35.9258 23.1611 35.0876 25.1102 34.2696C24.0599 35.1431 23.1106 36.153 22.3078 37.2941C21.4898 38.4807 20.8031 39.8188 20.5052 41.3033C20.3537 42.0405 20.2881 42.813 20.3588 43.5856C20.4345 44.3531 20.6163 45.1054 20.8991 45.8224C21.4747 47.2514 22.4694 48.5187 23.7469 49.4175C25.0395 50.2961 26.6401 50.7657 28.2054 50.6647C29.7555 50.5486 31.2653 50.0083 32.462 49.0085C33.0527 48.5086 33.5678 47.8977 33.9212 47.216C34.2747 46.5344 34.4817 45.7972 34.5877 45.06C34.7746 43.5856 34.5524 42.1162 34.0475 40.7933C34.2242 42.197 34.2242 43.6159 33.8556 44.9135C33.5173 46.2213 32.7801 47.3422 31.7349 48.0744C31.2097 48.4329 30.624 48.7157 30.0181 48.9176C29.4071 49.1146 28.7709 49.2206 28.1398 49.2307C26.8774 49.2711 25.6404 48.8924 24.6052 48.1754C23.555 47.4735 22.737 46.4334 22.2119 45.272C21.9443 44.6914 21.7625 44.0703 21.6665 43.4341C21.5858 42.8029 21.5807 42.1516 21.6564 41.5002C21.7271 40.8438 21.9039 40.1975 22.1159 39.5562C22.328 38.9149 22.6057 38.2838 22.9289 37.6779C23.0097 37.5163 23.1006 37.3648 23.1914 37.2032C22.8986 37.9202 22.6916 38.6726 22.5653 39.4401C22.1058 42.197 22.3078 45.888 25.2263 47.2261C28.3114 48.6399 32.1994 45.989 33.0881 42.9594C33.3557 42.0455 33.3204 41.0205 32.8912 40.1672C32.3963 39.1725 31.3663 38.5161 30.2655 38.4151C28.6598 38.2737 26.9784 39.2179 26.9784 41.071C26.9784 42.0354 27.5136 42.8736 28.3165 43.3533C28.2963 43.3533 28.2761 43.3583 28.2559 43.3533C27.7914 43.3381 27.3268 43.3078 26.9279 43.0554C26.5694 42.8231 26.2513 42.5303 25.9888 42.192C24.7618 40.6014 25.1304 38.4959 25.7817 36.7437C26.115 35.845 26.5896 35.032 27.1652 34.3251C27.7308 33.6283 28.4023 33.0527 29.1496 32.6084C60.3897 20.0962 94.2655 13.522 127.843 13.522C161.421 13.522 195.57 20.1517 226.916 32.7598C227.562 33.184 228.148 33.7091 228.648 34.3251C229.223 35.032 229.698 35.845 230.031 36.7437C230.678 38.4959 231.051 40.6014 229.824 42.192C229.562 42.5303 229.244 42.8282 228.885 43.0554C228.486 43.3129 228.017 43.3381 227.557 43.3533C227.537 43.3533 227.517 43.3533 227.497 43.3533C228.299 42.8736 228.835 42.0354 228.835 41.071C228.835 39.223 227.158 38.2737 225.548 38.4151C224.447 38.5161 223.422 39.1674 222.922 40.1672C222.498 41.0205 222.457 42.0405 222.725 42.9594C223.614 45.984 227.502 48.6349 230.587 47.2261C233.505 45.8931 233.707 42.197 233.248 39.4401C233.122 38.6726 232.915 37.9202 232.622 37.2032C232.708 37.3598 232.803 37.5163 232.884 37.6779C233.207 38.2888 233.48 38.9149 233.697 39.5562C233.909 40.1975 234.091 40.8438 234.157 41.5002C234.232 42.1516 234.232 42.8029 234.147 43.4341C234.051 44.0703 233.864 44.6914 233.601 45.272C233.081 46.4384 232.258 47.4735 231.208 48.1754C230.173 48.8924 228.931 49.2761 227.673 49.2307C227.042 49.2155 226.401 49.1095 225.795 48.9176C225.189 48.7157 224.608 48.4329 224.078 48.0744C223.038 47.3422 222.296 46.2213 221.958 44.9135C221.589 43.6159 221.589 42.197 221.766 40.7933C221.266 42.1213 221.039 43.5856 221.225 45.06C221.331 45.7921 221.538 46.5293 221.892 47.216C222.245 47.8977 222.76 48.5086 223.351 49.0085C224.543 50.0083 226.058 50.5486 227.608 50.6647C229.173 50.7657 230.774 50.2961 232.066 49.4175C233.349 48.5187 234.338 47.2514 234.919 45.8224C234.975 45.6861 235.02 45.5447 235.071 45.4033C223.275 116.866 188.672 183.381 136.755 234.283V234.288ZM235.485 42.8282C235.475 42.3131 235.419 41.8032 235.318 41.3083C235.02 39.8238 234.333 38.4858 233.515 37.2992C232.743 36.2085 231.839 35.234 230.839 34.3857C232.697 35.1684 234.545 35.9662 236.383 36.7942C236.106 38.8089 235.803 40.8236 235.485 42.8332V42.8282Z" fill="#DEA12C"/>
<path d="M135.402 178.427L109.393 191.53L110.267 173.025C122.294 174.484 131.398 177.125 135.402 178.427Z" fill="url(#paint0_linear_1000_29795)"/>
<path d="M235.818 181.609C231.824 183.946 219.736 190.445 201.609 195.05C181.376 200.19 149.399 203.916 111.039 192.959L138.048 179.362L138.629 179.584L142.34 167.986C144.738 168.198 147.223 168.369 149.773 168.496C170.157 169.505 199.013 167.627 222.22 153.272L218.463 171.909L235.818 181.609Z" fill="url(#paint1_linear_1000_29795)"/>
<path d="M146.531 148.288L140.916 165.824L140.598 166.819L140.285 167.799L137.351 176.953C134.246 175.878 124.178 172.666 110.363 171.005C110.03 170.965 109.696 170.924 109.358 170.889C109.025 170.848 108.691 170.808 108.353 170.778C107.268 170.657 106.157 170.556 105.031 170.46C87.3581 168.99 61.1471 170.197 35.6936 184.012L37.2993 166.006L20.0054 156.337C24.0095 153.959 36.244 147.288 54.5225 142.85C75.1236 137.846 107.747 134.756 146.531 148.288Z" fill="url(#paint2_linear_1000_29795)"/>
<path d="M220.736 170.864L225.154 148.96L223.124 150.298C200.059 165.521 170.581 167.501 149.919 166.481C147.541 166.365 145.223 166.203 142.976 166.016L149.051 147.036L148.132 146.708C108.469 132.64 75.0782 135.776 54.0427 140.886C31.23 146.43 17.5867 155.453 17.4504 155.544L16.082 156.458L35.1684 167.127L33.3406 187.642L35.0119 186.698C60.516 172.277 87.04 171 104.798 172.469C105.975 172.565 107.126 172.676 108.257 172.797L107.252 193.949L108.01 194.176C127.389 199.993 145.213 202.078 160.815 202.078C177.327 202.078 191.354 199.741 202.109 197.009C224.79 191.243 238.242 182.502 238.373 182.416L239.766 181.502L220.736 170.864ZM105.031 170.46C87.3581 168.99 61.1471 170.197 35.6935 184.012L37.2992 166.006L20.0053 156.337C24.0094 153.959 36.2439 147.288 54.5224 142.85C75.1236 137.846 107.747 134.756 146.531 148.288L140.916 165.824L140.598 166.819L140.285 167.799L137.351 176.953C134.246 175.878 124.178 172.666 110.363 171.005C110.029 170.965 109.696 170.924 109.358 170.889C109.025 170.848 108.691 170.808 108.353 170.778C107.268 170.657 106.157 170.556 105.031 170.46ZM109.393 191.53L110.267 173.025C122.294 174.484 131.398 177.125 135.402 178.427L109.393 191.53ZM201.609 195.05C181.376 200.19 149.399 203.916 111.039 192.959L138.048 179.362L138.629 179.584L142.34 167.985C144.738 168.198 147.223 168.369 149.773 168.495C170.157 169.505 199.013 167.627 222.22 153.272L218.463 171.909L235.818 181.609C231.824 183.946 219.736 190.445 201.609 195.05Z" fill="#1D1D1B"/>
<path d="M68.7766 149.157C69.019 149.131 69.1351 149.116 69.3775 149.096C69.3775 149.232 69.3775 149.369 69.3775 149.505C69.3775 149.641 69.3977 149.823 69.4229 150.05C69.4381 150.202 69.4482 150.283 69.4633 150.434C69.9278 154.958 70.1551 157.22 70.6196 161.745C71.0993 161.694 71.3416 161.674 71.8213 161.623C71.8617 162.058 71.8819 162.275 71.9274 162.709C69.9127 162.901 68.9028 163.012 66.8932 163.264C66.8377 162.83 66.8124 162.613 66.7569 162.184C67.2366 162.123 67.4789 162.093 67.9586 162.037C67.484 158.013 67.2467 156.004 66.772 151.979C66.1863 152.282 65.8934 152.434 65.3077 152.742L65.1714 151.661C66.1308 151.197 66.9538 150.666 67.6405 150.066C68.3272 149.465 68.711 149.167 68.7766 149.157Z" fill="#1D1D1B"/>
<path d="M83.6166 155.857C83.1975 156.438 82.6976 156.882 82.122 157.2C81.5414 157.518 80.9051 157.69 80.2033 157.72C78.9814 157.776 77.9311 157.402 77.0323 156.584C76.1386 155.766 75.6337 154.716 75.5428 153.423C75.4418 151.964 75.8356 150.707 76.7496 149.662C77.6685 148.616 78.8652 148.056 80.3295 147.995C82.016 147.925 83.4197 148.526 84.5003 149.778C85.5859 151.035 86.1261 152.701 86.1514 154.771C86.1766 157.054 85.6414 158.877 84.5709 160.26C83.5005 161.644 82.0816 162.366 80.2639 162.452C79.5873 162.482 78.9511 162.396 78.3502 162.194C77.7493 161.992 77.2444 161.689 76.8404 161.29C77.5221 160.553 77.8604 160.184 78.5572 159.452C78.9864 159.907 79.4257 160.25 79.8852 160.477C80.3447 160.704 80.789 160.81 81.2232 160.79C82.0412 160.755 82.6774 160.412 83.1319 159.755C83.5863 159.099 83.8034 158.205 83.7732 157.074C83.7732 156.907 83.753 156.726 83.7277 156.529C83.7025 156.332 83.6621 156.105 83.6116 155.847M81.2131 156.069C81.7938 156.044 82.2685 155.812 82.632 155.367C82.9956 154.923 83.1723 154.357 83.1521 153.671C83.1167 152.545 82.7835 151.555 82.1321 150.712C81.4808 149.869 80.7284 149.465 79.9003 149.505C79.249 149.535 78.7491 149.763 78.4057 150.177C78.0624 150.591 77.9109 151.156 77.9513 151.868C78.0169 153.019 78.3805 154.014 79.0268 154.857C79.6731 155.701 80.4002 156.105 81.2182 156.069" fill="#1D1D1B"/>
<path d="M94.5482 148.233C94.7906 148.243 94.9118 148.243 95.1541 148.253C95.1339 148.389 95.1138 148.526 95.1037 148.662C95.0885 148.798 95.0784 148.98 95.0733 149.207C95.0683 149.364 95.0633 149.439 95.0582 149.591C94.8966 154.135 94.8108 156.407 94.6492 160.952C95.1339 160.972 95.3713 160.977 95.856 161.002C95.8358 161.437 95.8257 161.659 95.8106 162.093C93.7908 162.007 92.7759 161.977 90.7562 161.952C90.7612 161.517 90.7663 161.295 90.7713 160.861C91.2561 160.866 91.4934 160.871 91.9781 160.881C92.0589 156.832 92.1044 154.807 92.1852 150.752C91.5641 150.969 91.251 151.08 90.635 151.308C90.6401 150.873 90.6451 150.651 90.6502 150.217C91.66 149.889 92.5487 149.48 93.3111 148.98C94.0736 148.48 94.4927 148.238 94.5583 148.238" fill="#1D1D1B"/>
<path d="M108.328 156.902C107.833 157.417 107.278 157.796 106.662 158.028C106.046 158.261 105.384 158.346 104.687 158.281C103.465 158.17 102.476 157.65 101.703 156.721C100.931 155.786 100.577 154.681 100.663 153.388C100.764 151.929 101.324 150.737 102.38 149.828C103.43 148.919 104.697 148.531 106.157 148.667C107.838 148.829 109.146 149.616 110.05 151.01C110.953 152.403 111.261 154.13 110.999 156.18C110.711 158.442 109.923 160.179 108.676 161.401C107.424 162.623 105.914 163.143 104.107 162.977C103.435 162.916 102.814 162.744 102.243 162.457C101.673 162.169 101.218 161.805 100.875 161.356C101.648 160.72 102.036 160.402 102.829 159.775C103.193 160.285 103.581 160.684 104.006 160.972C104.43 161.26 104.854 161.427 105.288 161.467C106.106 161.548 106.783 161.295 107.323 160.704C107.863 160.114 108.202 159.26 108.328 158.139C108.348 157.973 108.358 157.791 108.358 157.594C108.358 157.397 108.353 157.165 108.333 156.902M105.914 156.786C106.495 156.842 106.995 156.68 107.419 156.291C107.843 155.903 108.096 155.367 108.171 154.681C108.292 153.56 108.096 152.535 107.565 151.611C107.035 150.687 106.349 150.182 105.515 150.106C104.864 150.045 104.339 150.202 103.94 150.565C103.541 150.929 103.314 151.469 103.258 152.181C103.167 153.327 103.39 154.363 103.915 155.287C104.44 156.211 105.106 156.71 105.919 156.791" fill="#1D1D1B"/>
<path d="M158.286 188.203C159.649 188.274 160.326 188.304 161.689 188.344C162.35 188.365 162.825 188.284 163.118 188.102C163.406 187.92 163.633 187.587 163.799 187.102C164.244 187.112 164.461 187.112 164.905 187.122C164.628 188.794 164.486 189.627 164.203 191.293C163.764 191.288 163.547 191.283 163.108 191.273C163.093 191.041 163.088 190.925 163.072 190.692C160.048 190.622 158.533 190.551 155.509 190.349C155.342 189.652 155.256 189.309 155.094 188.612C157.543 187.319 159.326 186.027 160.487 184.805C161.648 183.578 162.229 182.386 162.259 181.245C162.285 180.412 162.007 179.644 161.436 178.948C160.866 178.251 160.225 177.882 159.508 177.852C159.023 177.827 158.619 177.988 158.296 178.327C157.968 178.665 157.786 179.114 157.755 179.675C157.72 180.265 157.862 180.811 158.185 181.316C158.508 181.821 159.053 182.341 159.831 182.876C159.048 183.664 158.654 184.052 157.856 184.825C157.013 184.376 156.382 183.795 155.963 183.093C155.539 182.391 155.362 181.614 155.423 180.775C155.509 179.538 156.079 178.503 157.104 177.67C158.129 176.837 159.295 176.448 160.623 176.504C162.002 176.559 163.103 176.963 163.946 177.726C164.794 178.488 165.218 179.447 165.203 180.604C165.188 181.765 164.678 182.937 163.643 184.113C162.608 185.29 160.846 186.678 158.291 188.208" fill="#1D1D1B"/>
<path d="M172.903 190.98C171.257 191.036 169.894 190.389 168.844 189.066C167.799 187.749 167.289 186.001 167.289 183.85C167.289 181.699 167.783 179.957 168.748 178.619C169.707 177.281 170.929 176.595 172.439 176.549C173.949 176.499 175.216 177.105 176.271 178.382C177.327 179.66 177.943 181.361 178.084 183.502C178.22 185.643 177.826 187.415 176.857 188.804C175.888 190.192 174.56 190.925 172.903 190.98ZM169.45 181.528C169.46 182.265 169.606 183.118 169.894 184.098C170.182 185.072 170.566 185.971 171.035 186.789C171.469 187.547 171.939 188.107 172.434 188.481C172.929 188.849 173.439 189.026 173.974 189.006C174.645 188.981 175.166 188.688 175.534 188.132C175.903 187.577 176.059 186.845 176.014 185.936C175.973 185.178 175.787 184.31 175.463 183.335C175.14 182.356 174.741 181.487 174.282 180.73C173.838 179.993 173.373 179.432 172.898 179.059C172.419 178.685 171.934 178.503 171.444 178.518C170.828 178.534 170.343 178.811 169.98 179.357C169.616 179.902 169.44 180.624 169.455 181.538" fill="#1D1D1B"/>
<path d="M185.325 175.923C185.547 175.898 185.658 175.888 185.88 175.857C185.88 175.994 185.88 176.13 185.895 176.266C185.905 176.403 185.921 176.585 185.946 176.812C185.966 176.963 185.971 177.044 185.991 177.195C186.516 181.715 186.779 183.972 187.299 188.491C187.814 188.43 188.072 188.4 188.582 188.339C188.637 188.774 188.662 188.991 188.718 189.42C186.537 189.687 185.446 189.804 183.26 190.006C183.219 189.571 183.199 189.354 183.159 188.92C183.674 188.875 183.931 188.849 184.446 188.799C184.047 184.764 183.845 182.75 183.446 178.72C182.881 179.008 182.598 179.155 182.033 179.437C181.992 179.003 181.972 178.786 181.932 178.352C182.851 177.928 183.633 177.418 184.275 176.827C184.916 176.236 185.264 175.938 185.325 175.928" fill="#1D1D1B"/>
<path d="M200.256 181.351C199.938 181.992 199.503 182.522 198.963 182.921C198.423 183.325 197.792 183.593 197.075 183.719C195.827 183.941 194.701 183.684 193.722 182.957C192.737 182.23 192.162 181.22 191.97 179.937C191.753 178.493 192.035 177.211 192.788 176.095C193.545 174.979 194.575 174.307 195.908 174.065C197.443 173.787 198.812 174.166 200.049 175.216C201.286 176.266 202.139 177.791 202.573 179.816C203.053 182.048 202.876 183.951 201.998 185.517C201.119 187.082 199.69 188.062 197.741 188.405C197.014 188.531 196.312 188.531 195.641 188.4C194.969 188.269 194.403 188.021 193.939 187.663C194.605 186.86 194.929 186.456 195.58 185.648C196.075 186.052 196.58 186.335 197.09 186.496C197.6 186.663 198.089 186.703 198.549 186.617C199.412 186.461 200.033 186.012 200.402 185.284C200.771 184.557 200.841 183.638 200.619 182.528C200.584 182.366 200.538 182.189 200.483 181.997C200.427 181.805 200.347 181.593 200.251 181.346M197.882 181.942C198.463 181.836 198.902 181.533 199.195 181.033C199.488 180.538 199.564 179.947 199.433 179.271C199.215 178.165 198.726 177.246 197.978 176.509C197.231 175.772 196.479 175.474 195.706 175.61C195.1 175.716 194.661 175.994 194.388 176.443C194.111 176.893 194.03 177.468 194.146 178.17C194.333 179.306 194.792 180.26 195.535 181.023C196.277 181.785 197.064 182.088 197.882 181.942Z" fill="#1D1D1B"/>
<path d="M159.805 35.835C159.77 36.1379 159.77 36.3702 159.77 36.5671V45.5599H160.679V46.3981H156.831V45.5599H157.74V37.8143L156.635 38.2586V37.4204C158.573 36.7236 159.018 35.835 159.376 35.835H159.805Z" fill="white"/>
<path d="M163.815 41.1216C163.815 37.683 165.542 35.6027 167.748 35.6027C169.955 35.6027 171.702 37.7032 171.702 41.1216C171.702 44.5399 169.955 46.6405 167.748 46.6405C165.542 46.6405 163.815 44.5551 163.815 41.1216ZM166.501 43.4038C167.107 44.5803 167.799 45.1509 168.551 45.1509C169.475 45.1509 170.101 44.3127 170.101 42.8888C170.101 41.8386 169.707 40.147 169.015 38.8494C168.394 37.6729 167.677 37.0872 166.95 37.0872C166.062 37.0872 165.42 37.9253 165.42 39.3644C165.42 40.3945 165.814 42.0506 166.506 43.4038H166.501Z" fill="white"/>
<path d="M172.914 41.1216C172.914 37.683 174.64 35.6027 176.847 35.6027C179.054 35.6027 180.801 37.7032 180.801 41.1216C180.801 44.5399 179.054 46.6405 176.847 46.6405C174.64 46.6405 172.914 44.5551 172.914 41.1216ZM175.6 43.4038C176.206 44.5803 176.897 45.1509 177.65 45.1509C178.574 45.1509 179.2 44.3127 179.2 42.8888C179.2 41.8386 178.806 40.147 178.114 38.8494C177.493 37.6729 176.776 37.0872 176.049 37.0872C175.161 37.0872 174.519 37.9253 174.519 39.3644C174.519 40.3945 174.913 42.0506 175.605 43.4038H175.6Z" fill="white"/>
<path d="M186.87 40.1723L186.759 40.6015C187.289 40.2986 187.804 40.1471 188.324 40.1471C189.713 40.1471 190.394 40.854 190.394 42.2526V45.7872H190.95V46.3931H188.996L188.854 45.7013C188.314 46.282 187.708 46.5698 187.026 46.5698C185.905 46.5698 185.057 45.7013 185.057 44.5905C185.057 43.2171 186.092 42.4193 188.097 42.4193C188.349 42.4193 188.602 42.4294 188.854 42.4597V42.0305C188.854 41.3993 188.476 41.0459 187.844 41.0459C187.213 41.0459 186.683 41.3993 186.319 42.0658L185.739 41.8638L186.33 40.0107L186.87 40.1774V40.1723ZM188.258 42.9999C187.213 42.9999 186.542 43.5806 186.542 44.3986C186.542 45.1055 187.006 45.5852 187.688 45.5852C188.405 45.5852 188.849 45.1206 188.849 44.237V43.0403C188.571 43.005 188.369 43.005 188.258 43.005V42.9999Z" fill="white"/>
<path d="M192.702 41.2175L192.146 41.369V40.7782L194.176 40.1874H194.252L194.237 41.1973C195.08 40.5005 195.812 40.1521 196.459 40.1521C197.478 40.1521 198.211 40.8085 198.211 41.9951V45.7922H198.766V46.3981H196.105V45.7922H196.671V42.1819C196.671 41.5659 196.342 41.2377 195.762 41.2377C195.307 41.2377 194.742 41.4649 194.237 41.9345V45.7972H194.802V46.4031H192.141V45.7972H192.697V41.2276L192.702 41.2175Z" fill="white"/>
<path d="M203.305 41.7729C202.674 41.167 202.169 40.8641 201.664 40.8641C201.311 40.8641 201.033 41.1014 201.033 41.4296C201.033 41.9244 201.589 42.1617 202.573 42.601C203.593 43.0555 204.149 43.4342 204.149 44.4541C204.149 45.6003 203.113 46.5597 201.69 46.5597C200.831 46.5597 200.013 46.2315 199.407 45.6508L200.24 44.5046C200.998 45.3226 201.629 45.7518 202.26 45.7518C202.704 45.7518 203.043 45.4589 203.043 45.0196C203.043 44.5147 202.538 44.3026 201.796 43.9492C200.7 43.419 199.942 43.0555 199.942 41.9547C199.942 40.9449 200.786 40.137 202.063 40.137C202.73 40.137 203.351 40.3389 203.982 40.753L203.31 41.7628L203.305 41.7729Z" fill="white"/>
<path d="M159.907 120.542L159.427 120.719V127.45H159.927V128.01H158.185L158.074 127.359C157.538 127.909 156.963 128.177 156.417 128.177C155.195 128.177 154.287 127.106 154.287 125.425C154.287 123.501 155.498 122.239 156.796 122.239C157.276 122.239 157.685 122.38 158.074 122.658V121.189L157.574 121.365V120.78L159.907 119.962V120.547V120.542ZM156.948 122.86C156.246 122.86 155.635 123.627 155.635 124.915C155.635 126.314 156.291 127.212 157.079 127.212C157.422 127.212 157.801 127.026 158.069 126.687V124.142C158.069 123.314 157.624 122.86 156.948 122.86Z" fill="white"/>
<path d="M161.341 121.789C161.638 121.613 161.795 121.416 161.84 121.194H161.785C161.442 121.194 161.209 120.916 161.209 120.562C161.209 120.209 161.467 119.911 161.856 119.911C162.244 119.911 162.522 120.224 162.522 120.749C162.522 121.33 162.153 121.855 161.512 122.138L161.346 121.789H161.341Z" fill="white"/>
<path d="M166.117 120.542L165.638 120.719V123.203C166.38 122.552 167.026 122.234 167.582 122.234C168.48 122.234 169.127 122.84 169.127 123.935V127.445H169.627V128.005H167.284V127.445H167.773V124.107C167.773 123.521 167.496 123.233 166.93 123.233C166.607 123.233 166.087 123.446 165.643 123.875V127.445H166.132V128.005H163.79V127.445H164.289V121.178L163.79 121.355V120.769L166.122 119.951V120.537L166.117 120.542Z" fill="white"/>
<path d="M172.57 122.229C172.535 122.592 172.525 122.86 172.525 123.057V127.445H173.025V128.005H170.682V127.445H171.171V123.223L170.682 123.365V122.814L172.515 122.229H172.57ZM171.808 120.259C172.242 120.259 172.575 120.608 172.575 121.062C172.575 121.517 172.222 121.88 171.808 121.88C171.394 121.88 171.03 121.496 171.03 121.062C171.03 120.628 171.373 120.259 171.808 120.259Z" fill="white"/>
<path d="M177.039 123.738C176.483 123.178 176.039 122.9 175.595 122.9C175.282 122.9 175.039 123.122 175.039 123.425C175.039 123.88 175.529 124.102 176.392 124.511C177.291 124.93 177.781 125.278 177.781 126.228C177.781 127.288 176.872 128.177 175.615 128.177C174.857 128.177 174.135 127.874 173.605 127.339L174.337 126.278C175.004 127.036 175.559 127.434 176.115 127.434C176.504 127.434 176.801 127.167 176.801 126.758C176.801 126.293 176.357 126.091 175.701 125.768C174.736 125.278 174.07 124.94 174.07 123.925C174.07 122.991 174.812 122.244 175.938 122.244C176.529 122.244 177.069 122.431 177.624 122.814L177.034 123.748L177.039 123.738Z" fill="white"/>
<path d="M180.417 121.194V122.451H181.472L181.407 122.915C181.371 123.138 181.316 123.158 181.129 123.158H180.417V126.495C180.417 127.046 180.548 127.313 180.927 127.313C181.114 127.313 181.27 127.233 181.462 127.101L181.694 127.465C181.23 127.929 180.715 128.167 180.185 128.167C179.351 128.167 179.054 127.712 179.054 126.768V123.163H178.488V122.708C179.266 122.37 179.786 121.835 180.043 121.098L180.422 121.194H180.417Z" fill="white"/>
<path d="M182.174 125.208C182.174 123.471 183.431 122.234 185.098 122.234C186.764 122.234 188.021 123.481 188.021 125.208C188.021 126.935 186.779 128.172 185.098 128.172C183.416 128.172 182.174 126.945 182.174 125.208ZM185.305 127.54C186.062 127.54 186.582 126.874 186.582 125.652C186.582 124.031 185.759 122.865 184.86 122.865C184.128 122.865 183.593 123.541 183.593 124.768C183.593 126.369 184.416 127.546 185.305 127.546V127.54Z" fill="white"/>
<path d="M190.828 122.229C190.793 122.592 190.783 122.86 190.783 123.057V127.445H191.283V128.005H188.94V127.445H189.43V123.223L188.94 123.365V122.814L190.773 122.229H190.828ZM190.061 120.259C190.495 120.259 190.828 120.608 190.828 121.062C190.828 121.517 190.475 121.88 190.061 121.88C189.647 121.88 189.283 121.496 189.283 121.062C189.283 120.628 189.627 120.259 190.061 120.259Z" fill="white"/>
<path d="M196.428 122.395L195.772 123.91C195.449 123.688 195.206 123.562 194.903 123.562C194.514 123.562 194.201 123.875 194.201 124.516V127.445H194.833V128.005H192.353V127.445H192.843V124.061C192.843 123.804 192.843 123.698 192.641 123.582L192.409 123.839L192.04 123.491L192.985 122.229C193.52 122.521 193.838 122.814 193.994 123.269C194.348 122.582 194.641 122.229 195.04 122.229C195.226 122.229 195.494 122.309 195.807 122.496L195.984 122.193L196.418 122.39L196.428 122.395Z" fill="white"/>
<path d="M198.029 125.647C198.317 126.591 198.917 127.091 199.73 127.091C200.296 127.091 200.796 126.869 201.24 126.425L201.573 126.788C200.907 127.687 199.998 128.167 199.018 128.167C197.564 128.167 196.529 126.94 196.529 125.238C196.529 123.536 197.761 122.239 199.175 122.239C199.851 122.239 200.462 122.542 200.942 123.138C201.376 123.688 201.553 124.329 201.553 124.41C201.553 124.536 201.321 124.536 200.821 124.703L198.034 125.647H198.029ZM198.862 122.905C198.251 122.905 197.796 123.547 197.796 124.4C197.796 124.632 197.817 124.844 197.852 125.031L200.175 124.264C199.897 123.365 199.407 122.91 198.862 122.91V122.905Z" fill="white"/>
<path d="M55.6988 98.3554L69.2562 97.5071C69.5491 99.7086 70.1449 101.39 71.0487 102.541C72.5181 104.41 74.6135 105.339 77.3402 105.339C79.375 105.339 80.9403 104.864 82.0411 103.91C83.1418 102.955 83.6922 101.85 83.6922 100.592C83.6922 99.335 83.1671 98.3251 82.1168 97.3859C81.0666 96.4417 78.6328 95.553 74.8206 94.7098C68.5695 93.3061 64.111 91.4378 61.45 89.1101C58.7637 86.7824 57.4206 83.8134 57.4206 80.2082C57.4206 77.8401 58.1073 75.5982 59.4808 73.4926C60.8542 71.387 62.9193 69.7258 65.6763 68.5241C68.4332 67.3173 72.2151 66.7164 77.017 66.7164C82.9095 66.7164 87.4034 67.8121 90.4987 70.0035C93.5939 72.1949 95.4318 75.684 96.0176 80.4657L82.5864 81.2534C82.2279 79.1781 81.4806 77.6684 80.3344 76.7242C79.1933 75.7799 77.6128 75.3104 75.5981 75.3104C73.942 75.3104 72.6948 75.6638 71.8566 76.3657C71.0184 77.0675 70.5993 77.9209 70.5993 78.9307C70.5993 79.6629 70.9477 80.3243 71.6395 80.9151C72.311 81.5261 73.9066 82.0916 76.4212 82.6117C82.652 83.9548 87.1106 85.313 89.8069 86.6864C92.5032 88.0599 94.4624 89.7665 95.6893 91.7964C96.9163 93.8312 97.5273 96.1085 97.5273 98.623C97.5273 101.582 96.7093 104.309 95.0733 106.803C93.4374 109.297 91.15 111.191 88.2164 112.483C85.2777 113.771 81.5765 114.417 77.1129 114.417C69.2663 114.417 63.8383 112.908 60.8188 109.888C57.7993 106.869 56.0876 103.031 55.6887 98.3756L55.6988 98.3554Z" fill="white"/>
<path d="M133.069 106H116.891L114.644 113.614H100.092L117.427 67.494H132.973L150.303 113.614H135.382L133.074 106H133.069ZM130.11 96.0277L125.021 79.4508L119.982 96.0277H130.11Z" fill="white"/>
<path d="M186.122 51.9119V83.8841H169.965V51.9119H155.357V113.625H169.965V94.3715H186.122V113.625H200.735V51.9119H186.122Z" fill="white"/>
<path d="M77.1231 115.16C69.1098 115.16 63.4445 113.559 60.2937 110.408C57.143 107.257 55.3605 103.238 54.9465 98.4211L54.8809 97.6485L69.9177 96.7094L70.0086 97.4112C70.2813 99.4663 70.8316 101.037 71.6496 102.077C72.9776 103.763 74.8408 104.586 77.3452 104.586C79.1832 104.586 80.597 104.167 81.5513 103.339C82.4854 102.531 82.9399 101.632 82.9399 100.592C82.9399 99.6127 82.5056 98.7493 81.617 97.9464C80.9656 97.3607 79.2337 96.4519 74.6641 95.447C68.3171 94.0181 63.7071 92.0792 60.9552 89.6757C58.1124 87.2116 56.6683 84.0205 56.6683 80.2032C56.6683 77.6937 57.4055 75.2952 58.8496 73.0736C60.2988 70.8519 62.4952 69.0846 65.3784 67.8223C68.2211 66.5801 72.1343 65.949 77.0221 65.949C83.0459 65.949 87.7317 67.1002 90.938 69.3775C94.1998 71.69 96.159 75.3861 96.775 80.3648L96.8709 81.1676L81.9553 82.0411L81.8391 81.3746C81.516 79.4912 80.8495 78.1229 79.8547 77.2998C78.855 76.4768 77.426 76.0577 75.6032 76.0577C74.1389 76.0577 73.0432 76.3505 72.3464 76.9363C71.6799 77.4917 71.3568 78.1431 71.3568 78.9207C71.3568 79.4256 71.6092 79.8851 72.1293 80.3244C72.4676 80.6273 73.4674 81.213 76.5777 81.8593C82.8439 83.2126 87.4136 84.6011 90.1553 85.9998C92.9678 87.4338 95.0481 89.2465 96.3407 91.3975C97.6334 93.5434 98.2898 95.9722 98.2898 98.613C98.2898 101.708 97.4213 104.596 95.7096 107.207C93.9979 109.817 91.5792 111.822 88.5244 113.165C85.5049 114.493 81.6624 115.165 77.113 115.165L77.1231 115.16ZM56.532 99.0623C57.0319 103.172 58.6527 106.626 61.3591 109.333C64.217 112.191 69.5188 113.64 77.118 113.64C81.4554 113.64 85.0909 113.009 87.9185 111.766C90.7057 110.544 92.9022 108.727 94.4473 106.369C95.9923 104.011 96.775 101.4 96.775 98.6029C96.775 96.2398 96.1943 94.0736 95.0431 92.165C93.8969 90.2614 92.0185 88.6406 89.4636 87.3379C86.8379 85.9998 82.3945 84.6516 76.2596 83.3287C73.5532 82.7632 71.9172 82.1674 71.1295 81.4504C70.2813 80.7334 69.842 79.8699 69.842 78.9055C69.842 77.6684 70.357 76.6131 71.3719 75.7598C72.3464 74.9418 73.7703 74.5278 75.6032 74.5278C77.7896 74.5278 79.5417 75.063 80.8192 76.1183C81.9704 77.0676 82.7682 78.5218 83.2024 80.4405L95.1542 79.7386C94.4977 75.6033 92.786 72.5333 90.0594 70.6044C87.1106 68.514 82.7228 67.4587 77.017 67.4587C72.3414 67.4587 68.6251 68.0444 65.9792 69.2058C63.3687 70.3469 61.3995 71.9223 60.1119 73.8966C58.8244 75.8709 58.173 77.9916 58.173 80.1981C58.173 83.6064 59.405 86.333 61.9398 88.5295C64.4947 90.7663 68.8826 92.5942 74.9822 93.9625C78.961 94.8361 81.4604 95.7702 82.6218 96.8104C83.8336 97.901 84.4446 99.1684 84.4446 100.582C84.4446 102.067 83.8033 103.374 82.5309 104.475C81.2938 105.546 79.5467 106.091 77.3301 106.091C74.3712 106.091 72.0536 105.051 70.4428 103.001C69.5592 101.875 68.9432 100.294 68.5998 98.2999L56.5219 99.0573L56.532 99.0623Z" fill="#1D1D1B"/>
<path d="M151.393 114.372H134.816L132.509 106.758H117.457L115.21 114.372H99.0017L116.907 66.7367H133.499L151.398 114.372H151.393ZM135.937 112.857H149.207L132.448 68.2515H117.952L101.188 112.857H114.079L116.326 105.243H133.635L135.942 112.857H135.937ZM131.136 96.7851H118.962L125.016 76.8555L131.136 96.7851ZM121.007 95.2703H129.091L125.031 82.0412L121.012 95.2703H121.007Z" fill="#1D1D1B"/>
<path d="M201.493 114.382H185.365V95.1289H170.722V114.382H154.595V51.1595H170.722V83.1318H185.365V51.1595H201.493V114.382ZM186.88 112.867H199.978V52.6743H186.88V84.6466H169.207V52.6743H156.11V112.867H169.207V93.6141H186.88V112.867Z" fill="#1D1D1B"/>
<defs>
<linearGradient id="paint0_linear_1000_29795" x1="109.393" y1="182.275" x2="135.402" y2="182.275" gradientUnits="userSpaceOnUse">
<stop offset="0.05" stop-color="#D18D25"/>
<stop offset="0.51" stop-color="#E3B850"/>
<stop offset="1" stop-color="#F0CD6A"/>
</linearGradient>
<linearGradient id="paint1_linear_1000_29795" x1="111.039" y1="176.665" x2="235.818" y2="176.665" gradientUnits="userSpaceOnUse">
<stop stop-color="#F0CD6A"/>
<stop offset="0.13" stop-color="#D18D25"/>
<stop offset="0.29" stop-color="#F0CD6A"/>
<stop offset="0.59" stop-color="#E3B850"/>
<stop offset="0.87" stop-color="#FFF2D1"/>
<stop offset="1" stop-color="#EFCD69"/>
</linearGradient>
<linearGradient id="paint2_linear_1000_29795" x1="20.0054" y1="161.3" x2="146.531" y2="161.3" gradientUnits="userSpaceOnUse">
<stop stop-color="#F0CD6A"/>
<stop offset="0.13" stop-color="#D18D25"/>
<stop offset="0.29" stop-color="#F0CD6A"/>
<stop offset="0.59" stop-color="#E3B850"/>
<stop offset="0.87" stop-color="#FFF2D1"/>
<stop offset="1" stop-color="#EFCD69"/>
</linearGradient>
</defs>
</svg>
