<svg width="256" height="256" viewBox="0 0 256 256" fill="none" xmlns="http://www.w3.org/2000/svg">
<path d="M100.088 230.825C87.8066 224.184 71.2427 215.713 61.7831 210.182C38.4068 196.472 22.7771 184.768 22.7771 152.888C22.7771 138.321 24.8987 123.813 27.1371 108.467C30.2513 87.0843 33.4823 64.9613 31.0688 40.9688L30.2902 33.218L36.5382 28.5442C37.8812 27.5315 70.2695 3.81165 127.805 3.81165C178.023 3.81165 214.654 26.6357 216.192 27.6094L222.848 31.8353L222.595 39.7225C221.7 67.5514 224.289 88.1359 226.8 108.058C228.668 122.898 230.42 136.919 230.42 152.187C230.42 177.153 219.929 191.448 192.095 208.605C171.911 221.049 164.047 225.372 146.452 234.915C133.781 241.789 127.864 250.358 127.864 250.358C127.864 250.358 120.74 241.984 100.108 230.844L100.088 230.825Z" fill="white"/>
<path d="M128.078 255.11L125.625 252.227C125.625 252.227 118.463 244.068 98.7066 233.396C94.5607 231.156 89.9283 228.722 85.2569 226.248C76.0893 221.419 66.6297 216.414 60.3039 212.694C36.6161 198.79 19.8575 186.365 19.8575 152.888C19.8575 138.107 21.9791 123.501 24.237 108.039C27.3318 86.8311 30.5239 64.9029 28.1492 41.2609L27.215 31.8548L34.767 26.1877C36.149 25.1556 69.2769 0.870972 127.766 0.870972C178.821 0.870972 216.153 24.1234 217.71 25.1166L225.788 30.2189L225.476 39.7809C224.6 67.3761 227.17 87.8632 229.661 107.649C231.529 122.586 233.32 136.686 233.32 152.148C233.32 177.562 222.926 192.967 193.613 211.058C173.235 223.619 165.332 227.962 147.834 237.466C136 243.873 130.297 251.916 130.238 252.013L128.078 255.11ZM33.3656 34.5617L33.969 40.6767C36.402 65.0197 33.1515 87.3179 30.0178 108.876C27.7989 124.125 25.6968 138.516 25.6968 152.888C25.6968 183.346 40.5673 194.349 63.2625 207.65C69.4715 211.292 78.8727 216.258 87.9819 221.068C92.6727 223.542 97.3246 225.995 101.47 228.254C115.971 236.083 123.971 242.607 127.611 245.976C130.472 242.724 136.175 237.135 145.051 232.324C162.451 222.899 170.315 218.556 190.558 206.092C218.177 189.072 227.5 175.459 227.5 152.168C227.5 137.075 225.749 123.151 223.9 108.389C221.389 88.3696 218.781 67.6682 219.676 39.6056L219.871 33.3933L214.615 30.0631C213.116 29.1089 177.186 6.7133 127.786 6.7133C71.2038 6.73277 39.5941 29.9073 38.2706 30.8811L33.3462 34.5617H33.3656Z" fill="#1D1D1B"/>
<path d="M208.659 57.0353L67.9533 197.796C60.771 193.493 54.7956 189.5 50.0658 185.196L200.465 34.7371C205.837 37.4051 208.795 39.2746 208.795 39.2746C208.601 45.5064 208.562 51.4266 208.659 57.0353Z" fill="black"/>
<path d="M212.747 107.084L102.23 217.68C94.658 213.337 87.0475 208.955 80.2351 204.982L209.496 75.6333C210.294 87.0453 211.54 97.3278 212.747 107.084Z" fill="black"/>
<path d="M36.655 148.02C37.745 115.79 48.8785 80.6383 44.791 39.6056C44.791 39.6056 74.1818 17.619 127.786 17.619C140.632 17.619 152.505 19.2549 162.996 21.6113L36.655 148.02Z" fill="#1064A3"/>
<path d="M200.465 34.737L50.0657 185.196C45.9588 181.438 42.7667 177.426 40.5283 172.772L185.069 28.1547C191.336 30.4721 196.533 32.8285 200.465 34.737Z" fill="#1064A3"/>
<path d="M185.069 28.1547L40.5284 172.772C37.9007 167.3 36.5771 160.912 36.5771 152.908C36.5771 151.292 36.6161 149.656 36.655 148.02L162.996 21.6113C171.308 23.4809 178.723 25.8178 185.069 28.1547Z" fill="#D7121B"/>
<path d="M209.496 75.6334L80.2351 204.982C76.9457 203.093 73.8314 201.282 71.0091 199.627C69.9581 199.004 68.9459 198.4 67.9532 197.796L208.659 57.0353C208.776 63.5982 209.068 69.7716 209.496 75.6334Z" fill="white"/>
<path d="M216.62 152.187C216.62 170.727 210.022 182.782 184.991 198.225C159.824 213.746 148.418 220.25 127.786 232.422C120.253 228.06 111.261 222.879 102.229 217.68L212.747 107.084C214.712 122.664 216.62 136.9 216.62 152.187Z" fill="white"/>
<path d="M127.805 235.791L126.326 234.934C119.553 231 111.631 226.443 103.534 221.789C91.4464 214.836 78.9505 207.65 69.5298 202.12C47.8468 189.403 33.6381 179.101 33.6381 152.888C33.6381 139.12 35.7013 124.981 37.8812 110.025C41.0928 87.9801 44.4212 65.195 41.8714 39.8783L41.7157 38.2424L43.0392 37.2492C44.2655 36.3339 73.8314 14.6783 127.786 14.6783C174.889 14.6783 208.932 35.886 210.353 36.7818L211.754 37.6776L211.696 39.3524C210.781 68.0383 213.545 90.0054 215.978 109.382C217.807 123.871 219.52 137.562 219.52 152.168C219.52 172.966 210.878 185.664 186.509 200.698C166.422 213.084 155.152 219.705 140.866 228.099C137.245 230.221 133.43 232.461 129.246 234.934L127.766 235.81L127.805 235.791ZM47.8663 41.0467C50.1631 66.3829 46.8542 88.9928 43.6815 110.882C41.5405 125.624 39.4968 139.548 39.4968 152.888C39.4968 174.271 49.2288 183.424 72.5078 197.076C81.8895 202.587 94.3855 209.773 106.453 216.726C113.966 221.049 121.343 225.294 127.786 229.014C131.406 226.891 134.754 224.924 137.946 223.035C152.194 214.661 163.444 208.059 183.473 195.713C208.893 180.036 213.72 168.312 213.72 152.148C213.72 137.913 212.026 124.417 210.216 110.103C207.803 90.9012 205.078 69.1873 205.837 40.8714C198.985 36.9376 167.921 20.5012 127.786 20.5012C82.1036 20.5012 54.0948 36.9376 47.8663 41.0078V41.0467Z" fill="#1D1D1B"/>
<path d="M191.297 55.4384H147.055L132.418 78.8661L169.147 134.855L205.915 78.905L191.297 55.4384Z" fill="white"/>
<path d="M191.297 55.3409H147.055L132.399 78.8466L168.972 134.582L169.147 134.855L205.954 78.8855L191.297 55.3409ZM175.259 56.4705H183.083V67.123H175.259V56.4705ZM155.269 56.4705H163.113V67.123H155.269V56.4705ZM155.016 103.345C154.958 103.112 154.899 102.878 154.841 102.664C154.88 102.527 154.899 102.391 154.938 102.255C156.009 97.9899 158.539 93.8614 162.101 90.6481C165.721 87.3764 169.77 85.6626 173.274 85.0005C174.325 85.1758 175.453 85.4874 176.582 85.9742C175.979 86.169 175.376 86.4027 174.811 86.6363C169.984 88.7006 166.189 91.836 164.242 94.0756C160.602 98.2626 158.87 103.521 157.605 107.357C157.527 107.61 157.449 107.844 157.371 108.058C156.476 106.87 155.581 105.312 155.036 103.365L155.016 103.345ZM176.719 94.913C176.037 95.9841 175.317 97.0162 174.578 98.0289C174.636 97.6783 174.617 97.3278 174.5 96.9967C174.383 96.6462 174.208 96.3151 173.974 96.0035C173.741 95.692 173.488 95.3998 173.215 95.1467C172.943 94.8935 172.631 94.6598 172.3 94.4456C171.969 94.2314 171.639 94.0756 171.288 93.9977C170.938 93.9198 170.587 93.9198 170.237 93.9977C170.179 93.9977 170.12 94.0366 170.062 94.0561C171.035 93.0629 172.028 92.1281 173.059 91.2713L175.356 93.4524C175.453 93.2576 175.551 93.0629 175.668 92.8876C175.784 92.6929 175.921 92.5371 176.076 92.3618C176.193 92.245 176.31 92.1281 176.446 92.0308C176.582 91.9334 176.719 91.8555 176.874 91.7971C177.03 91.7581 177.186 91.7386 177.342 91.7581C177.497 91.7776 177.653 91.875 177.789 92.0113C177.984 92.1866 178.101 92.4008 178.101 92.6345C178.101 92.6539 178.101 92.6734 178.101 92.6929C177.945 92.9461 177.809 93.1992 177.653 93.4524C177.556 93.5108 177.439 93.5692 177.303 93.5692C177.108 93.5692 176.894 93.5303 176.719 93.4134L176.018 94.6209C176.271 94.7572 176.505 94.8351 176.758 94.874L176.719 94.913ZM165.429 103.56C165.683 103.657 165.936 103.715 166.189 103.715C166.442 103.715 166.695 103.657 166.948 103.56C167.201 103.462 167.415 103.287 167.629 103.073C167.687 103.014 167.726 102.956 167.765 102.897C167.804 102.839 167.843 102.781 167.882 102.703L168.485 105.098C167.376 106.169 166.247 107.162 165.079 108.078L161.926 105.157C162.529 104.066 163.23 102.878 164.048 101.651C164.048 101.904 164.106 102.157 164.203 102.391C164.32 102.664 164.495 102.897 164.729 103.131C164.943 103.326 165.176 103.482 165.429 103.579V103.56ZM165.352 101.476C165.352 101.203 165.449 100.97 165.644 100.736C165.858 100.522 166.091 100.405 166.364 100.385C166.636 100.385 166.87 100.463 167.084 100.658C167.298 100.853 167.415 101.086 167.415 101.34C167.415 101.612 167.317 101.846 167.123 102.08C166.909 102.294 166.675 102.411 166.403 102.43C166.13 102.43 165.897 102.352 165.683 102.157C165.468 101.963 165.352 101.729 165.352 101.476ZM168.388 100.113C168.271 99.9569 168.135 99.8011 167.979 99.6453C167.746 99.431 167.473 99.2753 167.201 99.1779C166.928 99.0805 166.636 99.061 166.344 99.0805C166.13 99.1 165.916 99.1584 165.702 99.2363C166.675 97.912 167.668 96.6657 168.719 95.4972C168.699 95.5751 168.68 95.6335 168.661 95.7114C168.602 96.062 168.622 96.4125 168.738 96.763C168.855 97.1136 169.03 97.4447 169.264 97.7562C169.497 98.0678 169.751 98.36 170.023 98.6131C170.296 98.8663 170.607 99.1 170.938 99.3142C171.269 99.5284 171.6 99.6842 171.95 99.7621C172.3 99.84 172.651 99.84 173.001 99.7621C173.137 99.7232 173.274 99.6647 173.39 99.6063C172.164 101.164 170.899 102.625 169.614 103.949L169.011 101.632C168.952 101.456 168.914 101.281 168.855 101.106C168.797 100.931 168.738 100.775 168.661 100.6C168.583 100.444 168.485 100.268 168.388 100.113ZM169.906 96.062C169.906 95.8672 169.965 95.6725 170.12 95.4972C170.276 95.3219 170.471 95.244 170.665 95.244C170.86 95.244 171.074 95.3025 171.269 95.3998C171.463 95.4972 171.658 95.6141 171.833 95.7699C172.008 95.9256 172.164 96.0425 172.281 96.1593C172.398 96.2762 172.553 96.4125 172.709 96.5878C172.865 96.763 173.001 96.9383 173.118 97.1331C173.235 97.3278 173.293 97.5226 173.312 97.7173C173.312 97.912 173.254 98.1068 173.098 98.282C172.923 98.4573 172.748 98.5547 172.553 98.5547C172.359 98.5547 172.145 98.4963 171.95 98.3989C171.755 98.3015 171.561 98.1847 171.385 98.0289C171.21 97.8731 171.055 97.7562 170.938 97.6394C170.821 97.5225 170.665 97.3862 170.51 97.211C170.354 97.0357 170.218 96.8604 170.101 96.6657C169.984 96.4709 169.926 96.2762 169.906 96.0814V96.062ZM177.828 90.5312C177.575 90.4339 177.303 90.3949 177.05 90.4144C176.797 90.4144 176.543 90.5118 176.29 90.6286C176.037 90.7649 175.804 90.9402 175.59 91.1739C175.434 91.3492 175.317 91.4855 175.259 91.6218L174.578 90.9597L176.252 89.168L176.057 88.9928C176.991 88.3696 177.945 87.7853 178.918 87.2595C179.405 87.5906 179.911 87.9411 180.417 88.3501C180.417 88.3696 180.397 88.4085 180.378 88.428C179.891 89.4017 179.385 90.3754 178.86 91.3102C178.762 91.1934 178.665 91.0765 178.548 90.9597C178.315 90.7454 178.081 90.5897 177.809 90.4923L177.828 90.5312ZM157.858 107.435C159.123 103.618 160.836 98.3989 164.437 94.2508C166.364 92.0308 170.12 88.9343 174.889 86.8895C175.551 86.6169 176.252 86.3637 176.933 86.13C177.147 86.2274 177.361 86.3248 177.575 86.4416C177.906 86.6169 178.276 86.8311 178.646 87.0648C177.692 87.5711 176.758 88.1554 175.843 88.7785L175.395 88.3696L173.118 90.8039C170.237 93.1797 167.532 96.1204 165.06 99.5674C164.943 99.6647 164.826 99.7621 164.709 99.879C164.476 100.132 164.301 100.385 164.184 100.658C164.145 100.755 164.106 100.853 164.086 100.97C163.152 102.352 162.354 103.696 161.673 104.923L160.875 104.183L160.038 105.098L159.921 107.786H160.194C159.727 108.759 159.357 109.538 159.143 110.045C158.695 109.616 158.15 109.051 157.566 108.311C157.663 108.019 157.761 107.727 157.858 107.416V107.435ZM160.505 107.805H161.07L161.108 106.637C161.167 106.52 161.225 106.422 161.284 106.306L164.048 108.857C162.88 109.714 161.692 110.512 160.466 111.213C160.213 111.018 159.96 110.804 159.726 110.609C159.629 110.512 159.493 110.395 159.357 110.278C159.59 109.752 159.98 108.896 160.505 107.825V107.805ZM164.262 109.051L164.631 109.402L165.507 108.467L165.293 108.272C168.602 105.663 171.716 102.391 174.617 98.4963C175.473 97.3473 176.29 96.1593 177.069 94.9519C177.186 94.9519 177.283 94.9519 177.38 94.913C177.828 94.8351 178.217 94.5819 178.587 94.1924C178.821 93.9393 178.996 93.6861 179.113 93.4134C179.23 93.1408 179.307 92.8487 179.307 92.576C179.307 92.3034 179.249 92.0113 179.132 91.7581C179.113 91.6997 179.074 91.6608 179.054 91.6023C179.619 90.6091 180.144 89.5965 180.65 88.5643C180.65 88.5643 180.65 88.5643 180.65 88.5448C181.215 89.0122 181.779 89.5186 182.305 90.0638C181.916 91.7776 181.332 93.9587 180.689 95.4972C178.509 100.853 175.317 103.969 173.429 105.819C169.965 109.207 165.877 111.427 162.821 112.771C162.062 112.343 161.361 111.875 160.7 111.388C161.906 110.687 163.094 109.908 164.242 109.051H164.262ZM169.575 112.868C168.116 113.375 166.656 113.725 165.235 113.901C164.515 113.628 163.814 113.297 163.152 112.946C166.208 111.583 170.237 109.382 173.643 106.033C175.551 104.163 178.762 101.028 180.981 95.6141C181.604 94.1145 182.169 92.0113 182.558 90.317C183.531 91.3881 184.31 92.576 184.641 93.7835C184.699 93.9587 184.835 94.4261 184.991 94.8935C184.913 95.4193 184.816 95.9451 184.679 96.4904C184.173 98.5547 183.336 100.58 182.188 102.527C180.942 104.631 179.385 106.52 177.556 108.175C175.278 110.239 172.514 111.856 169.575 112.888V112.868ZM183.083 85.5653C182.13 84.8642 180.884 84.3773 179.444 84.0852H183.083V85.5653ZM163.113 88.7591C162.568 89.168 162.062 89.5965 161.556 90.0444C158.812 92.5371 156.651 95.5556 155.269 98.7689V84.0852H163.113V88.7591ZM155.736 112.537C156.982 113.823 159.084 114.641 161.731 114.816C162.101 114.835 162.49 114.855 162.88 114.855C162.958 114.855 163.016 114.855 163.094 114.855V123.774L155.736 112.537ZM175.259 123.696V110.96C176.252 110.298 177.205 109.558 178.081 108.779C180.086 106.968 181.779 104.864 183.064 102.586V111.817L175.239 123.716L175.259 123.696ZM136.35 82.9752L133.645 78.8661L140.262 68.2525H198.051L204.689 78.905L202.022 82.9752H136.35Z" fill="#1D1D1B"/>
<path d="M154.491 77.6976V77.7366C154.491 79.1972 153.225 80.3656 151.668 80.3656H151.221C149.858 80.3656 148.69 79.4503 148.457 78.1845L150.111 77.9118C150.209 78.4182 150.676 78.7882 151.221 78.7882H151.668C152.291 78.7882 152.797 78.3208 152.797 77.7366V77.6976C152.797 77.2497 152.505 76.8602 152.058 76.7044L150.228 76.0618C148.963 75.6139 148.204 74.387 148.457 73.1211C148.69 71.8748 149.858 70.9595 151.221 70.9595H151.668C152.739 70.9595 153.732 71.5242 154.199 72.4201L152.681 73.1211C152.486 72.7511 152.097 72.5369 151.668 72.5369H151.221C150.676 72.5369 150.209 72.9069 150.111 73.4133C150.014 73.9196 150.306 74.4064 150.831 74.5817L152.661 75.2244C153.751 75.6139 154.491 76.5876 154.491 77.6782V77.6976Z" fill="#1D1D1B"/>
<path d="M167.687 80.4045H165.858L165.157 78.8466H161.712L161.011 80.4045H159.182L163.444 70.901L167.687 80.4045ZM164.456 77.2691L163.444 74.9906L162.413 77.2691H164.456Z" fill="#1D1D1B"/>
<path d="M178.431 77.6976V77.7366C178.431 79.1972 177.166 80.3656 175.609 80.3656H175.161C173.799 80.3656 172.631 79.4503 172.398 78.1845L174.052 77.9118C174.149 78.4182 174.617 78.7882 175.161 78.7882H175.609C176.232 78.7882 176.738 78.3208 176.738 77.7366V77.6976C176.738 77.2497 176.446 76.8602 175.998 76.7044L174.169 76.0618C172.904 75.6139 172.145 74.387 172.398 73.1211C172.631 71.8748 173.799 70.9595 175.161 70.9595H175.609C176.68 70.9595 177.672 71.5242 178.14 72.4201L176.621 73.1211C176.427 72.7511 176.037 72.5369 175.609 72.5369H175.161C174.617 72.5369 174.149 72.9069 174.052 73.4133C173.955 73.9196 174.247 74.4064 174.772 74.5817L176.602 75.2244C177.692 75.6139 178.431 76.5876 178.431 77.6782V77.6976Z" fill="#1D1D1B"/>
<path d="M189.935 77.6976V77.7366C189.935 79.1972 188.67 80.3656 187.112 80.3656H186.665C185.302 80.3656 184.134 79.4503 183.901 78.1845L185.555 77.9118C185.653 78.4182 186.12 78.7882 186.665 78.7882H187.112C187.735 78.7882 188.241 78.3208 188.241 77.7366V77.6976C188.241 77.2497 187.949 76.8602 187.502 76.7044L185.672 76.0618C184.407 75.6139 183.648 74.387 183.901 73.1211C184.134 71.8748 185.302 70.9595 186.665 70.9595H187.112C188.183 70.9595 189.176 71.5242 189.643 72.4201L188.125 73.1211C187.93 72.7511 187.541 72.5369 187.112 72.5369H186.665C186.12 72.5369 185.653 72.9069 185.555 73.4133C185.458 73.9196 185.75 74.4064 186.276 74.5817L188.105 75.2244C189.195 75.6139 189.935 76.5876 189.935 77.6782V77.6976Z" fill="#1D1D1B"/>
<path d="M92.6144 136.764C92.4392 136.764 92.2445 136.705 92.1083 136.569L88.8773 133.492C69.6857 115.264 57.4038 90.7455 54.2896 64.455C54.2507 64.1435 54.4258 63.8319 54.6983 63.6955L54.9514 63.5787C66.6298 57.9895 79.6707 55.0294 92.6144 55.0294C105.558 55.0294 118.774 58.0285 130.53 63.6955C130.822 63.8319 130.978 64.1435 130.939 64.455C127.825 90.7455 115.543 115.264 96.3515 133.492L93.1204 136.569C92.9842 136.705 92.7895 136.764 92.6144 136.764Z" fill="#1B61A7"/>
<path d="M92.6143 55.75C105.48 55.75 118.346 58.6127 130.219 64.3577C127.124 90.5313 114.959 114.796 95.8648 132.947L92.6338 136.024L89.4027 132.947C70.3085 114.796 58.1434 90.5313 55.0486 64.3577L55.3017 64.2408C67.1164 58.5932 79.8848 55.7694 92.6533 55.7694M92.6143 54.2699C86.1133 54.2699 79.5928 54.9905 73.2476 56.4316C66.8244 57.8727 60.557 60.0538 54.6204 62.8971L54.3674 63.0139C53.8029 63.2866 53.4526 63.8903 53.5304 64.5329C55.0876 77.7366 58.9025 90.4534 64.8585 102.333C70.8145 114.212 78.717 124.884 88.3517 134.037L91.5827 137.114C91.8747 137.387 92.2445 137.523 92.5949 137.523C92.9452 137.523 93.3345 137.387 93.607 137.114L96.838 134.037C106.473 124.884 114.375 114.212 120.331 102.333C126.287 90.4534 130.102 77.7366 131.659 64.5329C131.737 63.9097 131.406 63.306 130.822 63.0139C124.847 60.1317 118.54 57.9311 112.078 56.451C105.694 54.9905 99.1348 54.2699 92.5754 54.2699" fill="#E30613"/>
<path d="M126.287 66.9477C122.667 91.3491 110.813 114.056 92.809 131.038L92.4198 131.408L92.0305 131.038C90.0841 129.207 88.2155 127.318 86.4248 125.351L92.4392 119.334V110.59L82.3568 120.678C81.0917 119.139 79.8849 117.581 78.717 115.984L92.4392 102.255V93.5108L75.1551 110.804C74.0457 109.11 72.9946 107.377 72.0019 105.643L92.4392 85.1952V76.4512L68.9461 99.9568C68.0118 98.0873 67.1359 96.1983 66.299 94.2703L92.4392 68.1162V59.8979C104.001 59.8979 115.66 62.3323 126.287 66.9477Z" fill="#E30613"/>
<path d="M72.469 62.2738L59.9731 74.7764C59.4476 72.4589 58.9999 70.122 58.6495 67.7851L60.1677 66.2661C64.1384 64.6302 68.2648 63.3059 72.4496 62.2933L72.469 62.2738Z" fill="#E30613"/>
<path d="M91.9136 59.8979L63.8269 87.9995C63.0873 85.9353 62.4061 83.832 61.7832 81.7288L83.0769 60.4238C86.016 60.0927 88.9745 59.9174 91.9331 59.8979H91.9136Z" fill="#E30613"/>
<path d="M128.526 65.3508C117.256 60.229 104.76 57.5221 92.4002 57.5221C80.0405 57.5221 67.5446 60.229 56.2749 65.3508L55.944 65.5066L56.0024 65.8766C59.4475 91.3297 71.6515 115.069 90.3954 132.752L92.4002 134.641L94.405 132.752C113.149 115.069 125.372 91.3297 128.798 65.8766L128.856 65.5066L128.526 65.3508ZM125.937 65.2924C125.937 65.2924 125.937 65.3119 125.956 65.3313C125.956 65.3313 125.917 65.2924 125.898 65.2924C125.898 65.2924 125.898 65.2924 125.917 65.2924H125.937ZM58.9804 65.2534C58.9804 65.2534 58.922 65.3119 58.9025 65.3313C58.9025 65.3119 58.9414 65.2924 58.9609 65.2729C58.9609 65.2729 58.9804 65.2729 58.9998 65.2729L58.9804 65.2534ZM91.0767 132.031C91.0767 132.031 91.0183 131.973 90.9988 131.953C91.1934 132.07 91.4075 132.187 91.6411 132.245C91.8747 132.323 92.1277 132.343 92.3807 132.343C92.8479 132.343 93.2956 132.226 93.7238 132.051L92.4391 133.278L91.0961 132.012L91.0767 132.031ZM95.3004 130.512C95.3004 130.512 95.1252 130.629 95.0279 130.688C94.7554 130.824 94.4634 130.921 94.1714 130.96C93.5681 131.058 92.8673 131.038 92.4391 130.532C92.3418 130.434 92.2834 130.298 92.225 130.181C92.1666 130.045 92.1861 129.889 92.225 129.733C92.3224 130.025 92.5559 130.24 92.8673 130.317C93.4513 130.434 93.8795 129.967 93.9379 129.441C93.9768 129.091 93.8406 128.721 93.5486 128.487C93.2956 128.292 92.9841 128.214 92.6727 128.234C91.6411 128.312 90.5511 129.383 90.7847 130.454C91.0183 131.466 92.1861 131.778 93.1009 131.817C93.354 131.817 93.607 131.817 93.86 131.759C93.8016 131.759 93.7432 131.798 93.6848 131.817C93.4707 131.875 93.2566 131.934 93.0231 131.953C92.809 131.973 92.5948 131.992 92.3807 131.953C92.1666 131.953 91.9525 131.895 91.7579 131.817C91.5633 131.739 91.3686 131.642 91.2129 131.525C90.882 131.272 90.5901 130.941 90.4538 130.571C90.2981 130.201 90.2592 129.772 90.3565 129.363C90.3954 129.169 90.4733 128.974 90.59 128.779C90.6874 128.604 90.8236 128.428 90.9793 128.292C91.2908 128 91.68 127.844 92.1277 127.825C92.5754 127.786 93.0231 127.883 93.4513 128.039C93.062 127.786 92.6143 127.63 92.1277 127.591C91.8941 127.591 91.6411 127.591 91.3881 127.669C91.1545 127.727 90.9209 127.864 90.7263 128.02C90.337 128.331 90.0645 128.779 89.9088 129.266C89.7726 129.753 89.8115 130.298 90.0061 130.765C90.084 130.941 90.1618 131.096 90.2786 131.233C72.2549 113.881 60.4791 90.8039 57.0534 66.0908C57.6763 65.8182 58.3186 65.5456 58.9414 65.2729C58.5911 65.565 58.2991 65.8961 58.0266 66.2661C57.7541 66.6556 57.54 67.084 57.4427 67.5709C57.3843 67.8046 57.3648 68.0578 57.4038 68.3109C57.4232 68.5641 57.4816 68.7978 57.579 69.051C57.7736 69.5183 58.085 69.9273 58.5132 70.2194C58.9414 70.5115 59.4475 70.6673 59.973 70.6284C60.4791 70.5894 60.9657 70.4142 61.355 70.0831C61.5496 69.9273 61.7053 69.7131 61.8221 69.4989C61.9389 69.2846 61.9973 69.0315 62.0362 68.7978C62.0946 68.3109 62.0362 67.8435 61.8611 67.4151C61.9194 67.8825 61.9194 68.3304 61.8027 68.7588C61.6859 69.1873 61.4523 69.5573 61.1214 69.791C60.9462 69.9078 60.7516 70.0052 60.557 70.0636C60.3623 70.122 60.1482 70.161 59.9536 70.161C59.5448 70.161 59.1361 70.0441 58.8052 69.8105C58.4548 69.5768 58.2018 69.2457 58.0266 68.8562C57.9488 68.6615 57.8709 68.4667 57.8515 68.2525C57.832 68.0383 57.832 67.8435 57.8515 67.6293C57.8709 67.4151 57.9293 67.2009 58.0072 66.9867C58.085 66.7724 58.1629 66.5777 58.2797 66.383C58.2991 66.3245 58.3381 66.2856 58.3575 66.2272C58.2602 66.4609 58.2018 66.714 58.1629 66.9477C58.0072 67.8435 58.085 69.051 59.0388 69.4794C60.0509 69.9468 61.3161 69.0704 61.608 68.0967C61.6859 67.8046 61.6859 67.4735 61.5496 67.1814C61.3939 66.8503 61.0436 66.6361 60.6932 66.6167C60.1677 66.5777 59.6227 66.8698 59.6227 67.4735C59.6227 67.7851 59.7979 68.0578 60.0509 68.2136C60.0509 68.2136 60.0509 68.2136 60.0314 68.2136C59.8757 68.2136 59.72 68.2136 59.6032 68.1162C59.4864 68.0383 59.3891 67.9409 59.2918 67.8435C58.883 67.3177 59.0193 66.6361 59.2334 66.0714C59.3502 65.7793 59.5059 65.5066 59.6811 65.2729C59.8563 65.0392 60.0898 64.864 60.3234 64.7082C70.5031 60.6185 81.5587 58.4763 92.4975 58.4763C103.436 58.4763 114.57 60.638 124.788 64.7471C125.003 64.8834 125.197 65.0587 125.353 65.2534C125.548 65.4871 125.703 65.7403 125.801 66.0519C126.015 66.6166 126.131 67.3177 125.742 67.8241C125.664 67.9409 125.548 68.0383 125.431 68.0967C125.295 68.1746 125.139 68.1941 125.003 68.1941C125.003 68.1941 125.003 68.1941 124.983 68.1941C125.236 68.0383 125.411 67.7656 125.411 67.4541C125.411 66.8503 124.866 66.5388 124.341 66.5972C123.99 66.6361 123.64 66.8503 123.484 67.1619C123.348 67.4346 123.329 67.7656 123.426 68.0772C123.718 69.0704 124.983 69.9273 125.995 69.4599C126.949 69.0315 127.007 67.8241 126.871 66.9282C126.832 66.6751 126.754 66.4414 126.676 66.2077C126.696 66.2661 126.735 66.3051 126.754 66.3635C126.852 66.5582 126.949 66.7724 127.027 66.9672C127.105 67.1814 127.163 67.3956 127.183 67.6098C127.202 67.8241 127.202 68.0383 127.183 68.233C127.144 68.4473 127.085 68.642 127.007 68.8367C126.832 69.2262 126.56 69.5573 126.229 69.791C125.898 70.0247 125.489 70.1415 125.08 70.1415C124.866 70.1415 124.672 70.1026 124.477 70.0441C124.282 69.9857 124.088 69.8884 123.913 69.7715C123.582 69.5378 123.329 69.1678 123.231 68.7394C123.115 68.3109 123.115 67.8435 123.173 67.3956C123.017 67.8241 122.939 68.3109 122.998 68.7783C123.037 69.012 123.095 69.2652 123.212 69.4794C123.329 69.6936 123.504 69.9078 123.679 70.0636C124.068 70.3947 124.555 70.57 125.061 70.6089C125.567 70.6479 126.093 70.4921 126.521 70.1999C126.93 69.9078 127.26 69.4989 127.455 69.0315C127.455 68.9925 127.494 68.9341 127.513 68.8952C123.66 92.206 112.39 113.901 95.4561 130.493L95.3004 130.512ZM127.494 68.0772C127.494 67.902 127.475 67.7462 127.436 67.5904C127.338 67.1035 127.124 66.6751 126.852 66.2856C126.599 65.9351 126.307 65.604 125.976 65.3313C126.579 65.5845 127.183 65.8377 127.786 66.1103C127.689 66.7725 127.591 67.4151 127.494 68.0772Z" fill="#DEA12C"/>
<path d="M94.8722 112.304L86.3859 116.569L86.6778 110.531C90.5901 110.999 93.5681 111.875 94.8722 112.284V112.304Z" fill="url(#paint0_linear_1000_29906)"/>
<path d="M127.611 113.336C126.307 114.095 122.375 116.218 116.458 117.718C109.859 119.392 99.4462 120.619 86.9308 117.036L95.7286 112.596L95.9232 112.674L97.13 108.896C97.9085 108.974 98.726 109.013 99.5435 109.071C106.181 109.402 115.601 108.779 123.153 104.105L121.927 110.181L127.591 113.336H127.611Z" fill="url(#paint1_linear_1000_29906)"/>
<path d="M98.4925 102.469L96.6628 108.195L96.5655 108.526L96.4682 108.837L95.5144 111.817C94.5023 111.466 91.2129 110.415 86.7167 109.869C86.5999 109.869 86.5026 109.85 86.3858 109.83C86.269 109.83 86.1717 109.811 86.0549 109.791C85.7045 109.752 85.3347 109.714 84.9649 109.694C79.2035 109.207 70.6588 109.616 62.3671 114.115L62.8926 108.233L57.248 105.079C58.5521 104.3 62.5423 102.119 68.4983 100.677C75.2134 99.0416 85.8408 98.0289 98.4925 102.45V102.469Z" fill="url(#paint2_linear_1000_29906)"/>
<path d="M122.686 109.83L124.127 102.683L123.465 103.112C115.952 108.078 106.337 108.72 99.6019 108.389C98.8234 108.35 98.0643 108.292 97.3441 108.234L99.3294 102.041L99.0375 101.943C86.1133 97.3473 75.2134 98.3795 68.3621 100.035C60.9268 101.846 56.4695 104.787 56.4306 104.825L55.9829 105.118L62.2114 108.604L61.608 115.303L62.153 114.991C70.4642 110.278 79.1062 109.869 84.9065 110.356C85.2958 110.395 85.6656 110.415 86.0355 110.454L85.7046 117.348L85.9576 117.425C92.2834 119.314 98.0837 119.996 103.164 119.996C108.555 119.996 113.11 119.237 116.633 118.341C124.029 116.452 128.409 113.608 128.448 113.589L128.895 113.297L122.686 109.83ZM84.9649 109.694C79.2036 109.207 70.6588 109.616 62.3671 114.115L62.8927 108.234L57.2481 105.079C58.5522 104.3 62.5423 102.119 68.4983 100.677C75.2134 99.0416 85.8408 98.0289 98.4925 102.45L96.6629 108.175L96.5655 108.506L96.4682 108.818L95.5145 111.797C94.5023 111.447 91.2129 110.395 86.7167 109.85C86.5999 109.85 86.5026 109.83 86.3858 109.811C86.269 109.811 86.1717 109.791 86.0549 109.772C85.7046 109.733 85.3348 109.694 84.9649 109.675V109.694ZM86.3858 116.569L86.6778 110.532C90.5901 110.999 93.5681 111.875 94.8722 112.284L86.3858 116.549V116.569ZM116.458 117.718C109.86 119.392 99.4462 120.619 86.9308 117.036L95.7286 112.596L95.9232 112.674L97.13 108.896C97.9086 108.974 98.726 109.012 99.5435 109.071C106.181 109.402 115.601 108.779 123.153 104.105L121.927 110.181L127.591 113.336C126.287 114.095 122.355 116.218 116.438 117.718H116.458Z" fill="#1D1D1B"/>
<path d="M73.1502 102.761C73.1502 102.761 73.267 102.761 73.3448 102.742C73.3448 102.781 73.3448 102.839 73.3448 102.878C73.3448 102.917 73.3448 102.975 73.3448 103.053C73.3448 103.112 73.3448 103.131 73.3448 103.17C73.5006 104.65 73.5784 105.39 73.7147 106.851C73.8704 106.851 73.9482 106.831 74.1039 106.812C74.1039 106.948 74.1234 107.026 74.1429 107.162C73.4811 107.221 73.1502 107.26 72.5079 107.338C72.5079 107.201 72.4884 107.123 72.469 106.987C72.6247 106.987 72.7025 106.968 72.8582 106.948C72.7025 105.643 72.6247 104.981 72.469 103.676C72.2743 103.774 72.177 103.832 72.0018 103.93L71.9629 103.579C72.2743 103.423 72.5468 103.248 72.7609 103.053C72.9945 102.859 73.1113 102.761 73.1307 102.761" fill="#1D1D1B"/>
<path d="M77.9773 104.942C77.8411 105.137 77.6853 105.273 77.4907 105.371C77.2961 105.468 77.1014 105.527 76.8679 105.546C76.4786 105.546 76.1282 105.449 75.8363 105.176C75.5443 104.903 75.3886 104.572 75.3497 104.144C75.3107 103.676 75.447 103.268 75.7389 102.917C76.0309 102.586 76.4202 102.391 76.9068 102.372C77.4518 102.352 77.9189 102.547 78.2693 102.956C78.6196 103.365 78.7948 103.91 78.8143 104.592C78.8143 105.332 78.6391 105.936 78.3082 106.383C77.9578 106.831 77.4907 107.065 76.9068 107.104C76.6927 107.104 76.4786 107.104 76.2839 107.026C76.0893 106.968 75.9141 106.87 75.7973 106.734C76.0114 106.5 76.1282 106.364 76.3618 106.13C76.498 106.286 76.6537 106.383 76.79 106.461C76.9457 106.539 77.082 106.578 77.2182 106.559C77.4907 106.559 77.6853 106.442 77.8411 106.228C77.9968 106.013 78.0552 105.721 78.0552 105.351C78.0552 105.293 78.0552 105.234 78.0552 105.176C78.0552 105.118 78.0357 105.04 78.0162 104.962M77.1987 105.001C77.3934 105.001 77.5491 104.923 77.6659 104.767C77.7827 104.631 77.8411 104.436 77.8411 104.222C77.8411 103.852 77.7243 103.54 77.5102 103.248C77.2961 102.975 77.0625 102.839 76.79 102.859C76.5759 102.859 76.4202 102.936 76.3034 103.073C76.1866 103.209 76.1477 103.384 76.1477 103.618C76.1671 103.988 76.2839 104.319 76.498 104.592C76.7121 104.864 76.9457 105.001 77.2182 104.981" fill="#1D1D1B"/>
<path d="M81.5587 102.45C81.5587 102.45 81.6755 102.45 81.7533 102.45C81.7533 102.489 81.7533 102.547 81.7533 102.586C81.7533 102.625 81.7533 102.683 81.7533 102.761C81.7533 102.82 81.7533 102.839 81.7533 102.878C81.6949 104.358 81.6755 105.098 81.6171 106.578C81.7728 106.578 81.8506 106.578 82.0064 106.578C82.0064 106.714 82.0064 106.792 82.0064 106.929C81.3446 106.909 81.0137 106.89 80.3519 106.89C80.3519 106.753 80.3519 106.676 80.3519 106.539C80.5076 106.539 80.5855 106.539 80.7412 106.539C80.7607 105.215 80.7801 104.553 80.8191 103.229C80.6244 103.306 80.5076 103.345 80.313 103.404C80.313 103.268 80.313 103.19 80.313 103.053C80.6439 102.936 80.9358 102.82 81.1889 102.644C81.4419 102.489 81.5782 102.411 81.5976 102.411" fill="#1D1D1B"/>
<path d="M86.0355 105.273C85.8798 105.449 85.6851 105.565 85.4905 105.643C85.2958 105.721 85.0817 105.741 84.8482 105.721C84.4589 105.682 84.128 105.507 83.875 105.215C83.6219 104.903 83.5052 104.553 83.5441 104.124C83.583 103.657 83.7582 103.268 84.1085 102.956C84.4589 102.664 84.8676 102.527 85.3348 102.586C85.8798 102.644 86.308 102.898 86.5999 103.345C86.8919 103.793 86.9892 104.358 86.9114 105.04C86.814 105.78 86.561 106.344 86.1523 106.734C85.7435 107.123 85.2569 107.299 84.6535 107.24C84.4394 107.221 84.2253 107.162 84.0501 107.065C83.8555 106.968 83.7193 106.851 83.6025 106.714C83.8555 106.5 83.9723 106.403 84.2448 106.189C84.3616 106.364 84.4978 106.481 84.6341 106.578C84.7703 106.676 84.9066 106.734 85.0623 106.734C85.3348 106.753 85.5489 106.676 85.7241 106.481C85.8992 106.286 86.016 106.013 86.0549 105.643C86.0549 105.585 86.0549 105.527 86.0549 105.468C86.0549 105.41 86.0549 105.332 86.0549 105.234M85.2569 105.234C85.4516 105.234 85.6073 105.195 85.7435 105.079C85.8798 104.942 85.9576 104.767 85.9966 104.553C86.0355 104.183 85.9771 103.852 85.8019 103.56C85.6267 103.268 85.4126 103.092 85.1401 103.073C84.926 103.053 84.7508 103.112 84.6341 103.229C84.4978 103.345 84.4394 103.521 84.42 103.754C84.381 104.124 84.4589 104.475 84.6341 104.767C84.8092 105.059 85.0233 105.234 85.2958 105.254" fill="#1D1D1B"/>
<path d="M102.327 115.497C102.775 115.517 102.989 115.536 103.436 115.536C103.65 115.536 103.806 115.517 103.903 115.459C104.001 115.4 104.079 115.283 104.118 115.127C104.254 115.127 104.332 115.127 104.487 115.127C104.39 115.673 104.351 115.945 104.254 116.491C104.118 116.491 104.04 116.491 103.903 116.491C103.903 116.413 103.903 116.374 103.903 116.296C102.911 116.276 102.424 116.257 101.432 116.179C101.373 115.945 101.354 115.848 101.295 115.614C102.093 115.186 102.677 114.777 103.047 114.368C103.417 113.959 103.612 113.589 103.631 113.199C103.631 112.927 103.553 112.674 103.358 112.459C103.164 112.226 102.969 112.109 102.736 112.109C102.58 112.109 102.444 112.148 102.346 112.265C102.249 112.382 102.171 112.518 102.171 112.713C102.171 112.907 102.21 113.083 102.307 113.238C102.405 113.394 102.599 113.57 102.852 113.745C102.599 113.998 102.463 114.134 102.21 114.387C101.938 114.232 101.724 114.056 101.587 113.823C101.451 113.589 101.393 113.336 101.412 113.063C101.432 112.654 101.626 112.323 101.957 112.051C102.288 111.778 102.677 111.661 103.105 111.661C103.553 111.661 103.923 111.817 104.195 112.051C104.468 112.304 104.604 112.615 104.604 112.985C104.604 113.355 104.429 113.745 104.098 114.134C103.767 114.524 103.183 114.972 102.346 115.478" fill="#1D1D1B"/>
<path d="M107.096 116.393C106.551 116.393 106.122 116.198 105.772 115.77C105.422 115.342 105.266 114.777 105.266 114.076C105.266 113.375 105.422 112.81 105.733 112.362C106.045 111.934 106.453 111.7 106.94 111.68C107.427 111.68 107.855 111.856 108.186 112.284C108.536 112.693 108.731 113.258 108.77 113.959C108.808 114.66 108.692 115.244 108.361 115.692C108.049 116.14 107.621 116.393 107.076 116.393M105.967 113.316C105.967 113.55 106.025 113.842 106.103 114.154C106.2 114.465 106.317 114.757 106.473 115.03C106.609 115.283 106.765 115.458 106.92 115.575C107.076 115.692 107.251 115.751 107.427 115.751C107.641 115.751 107.816 115.653 107.933 115.458C108.049 115.283 108.108 115.03 108.088 114.738C108.088 114.485 108.01 114.212 107.913 113.881C107.816 113.569 107.68 113.277 107.524 113.024C107.388 112.79 107.232 112.596 107.076 112.479C106.92 112.362 106.765 112.304 106.609 112.304C106.414 112.304 106.259 112.401 106.142 112.576C106.025 112.752 105.967 112.985 105.967 113.297" fill="#1D1D1B"/>
<path d="M111.144 111.486C111.144 111.486 111.261 111.486 111.319 111.466C111.319 111.505 111.319 111.564 111.319 111.603C111.319 111.641 111.319 111.7 111.319 111.778C111.319 111.836 111.319 111.856 111.319 111.895C111.494 113.375 111.572 114.095 111.747 115.575C111.923 115.575 112.001 115.536 112.176 115.517C112.176 115.653 112.195 115.731 112.215 115.867C111.494 115.965 111.144 115.984 110.443 116.062C110.443 115.926 110.443 115.848 110.404 115.712C110.58 115.712 110.658 115.692 110.833 115.673C110.696 114.348 110.638 113.706 110.502 112.381C110.327 112.479 110.229 112.518 110.035 112.615C110.035 112.479 110.035 112.401 109.996 112.265C110.288 112.128 110.56 111.953 110.755 111.758C110.969 111.564 111.086 111.466 111.105 111.466" fill="#1D1D1B"/>
<path d="M116.01 113.258C115.913 113.472 115.757 113.647 115.582 113.764C115.407 113.901 115.193 113.978 114.959 114.017C114.55 114.095 114.18 114.017 113.869 113.764C113.558 113.531 113.363 113.2 113.305 112.771C113.227 112.304 113.324 111.875 113.577 111.525C113.83 111.155 114.161 110.94 114.589 110.863C115.095 110.765 115.543 110.902 115.932 111.233C116.341 111.583 116.614 112.07 116.75 112.732C116.905 113.453 116.847 114.076 116.555 114.582C116.263 115.089 115.796 115.42 115.173 115.517C114.94 115.556 114.706 115.556 114.492 115.517C114.278 115.478 114.083 115.4 113.947 115.283C114.161 115.03 114.278 114.894 114.472 114.621C114.628 114.757 114.803 114.835 114.959 114.894C115.134 114.952 115.29 114.952 115.426 114.933C115.699 114.874 115.913 114.738 116.03 114.504C116.146 114.271 116.166 113.959 116.107 113.608C116.107 113.55 116.088 113.492 116.069 113.433C116.069 113.375 116.03 113.297 115.991 113.219M115.232 113.453C115.426 113.414 115.562 113.316 115.66 113.161C115.757 113.005 115.777 112.81 115.738 112.596C115.66 112.226 115.504 111.934 115.27 111.7C115.017 111.466 114.784 111.369 114.531 111.408C114.336 111.447 114.2 111.525 114.103 111.681C114.005 111.836 113.986 112.012 114.025 112.245C114.083 112.615 114.239 112.927 114.472 113.18C114.706 113.433 114.979 113.531 115.232 113.472" fill="#1D1D1B"/>
<path d="M102.833 65.7988C102.833 65.8961 102.833 65.974 102.833 66.0325V68.9731H103.125V69.2457H101.879V68.9731H102.171V66.4414L101.821 66.5777V66.3051C102.444 66.0714 102.599 65.7793 102.716 65.7793H102.852L102.833 65.7988Z" fill="white"/>
<path d="M104.137 67.5125C104.137 66.383 104.701 65.7208 105.422 65.7208C106.142 65.7208 106.706 66.4024 106.706 67.5125C106.706 68.6225 106.142 69.3041 105.422 69.3041C104.701 69.3041 104.137 68.6225 104.137 67.5125ZM105.013 68.2525C105.207 68.642 105.441 68.8173 105.675 68.8173C105.986 68.8173 106.181 68.5446 106.181 68.0772C106.181 67.7267 106.044 67.1814 105.83 66.753C105.636 66.3635 105.402 66.1687 105.149 66.1687C104.857 66.1687 104.643 66.4414 104.643 66.9088C104.643 67.2398 104.779 67.7851 104.993 68.233L105.013 68.2525Z" fill="white"/>
<path d="M107.096 67.5125C107.096 66.383 107.66 65.7208 108.38 65.7208C109.1 65.7208 109.665 66.4024 109.665 67.5125C109.665 68.6225 109.1 69.3041 108.38 69.3041C107.66 69.3041 107.096 68.6225 107.096 67.5125ZM107.971 68.2525C108.166 68.642 108.4 68.8173 108.633 68.8173C108.945 68.8173 109.139 68.5446 109.139 68.0772C109.139 67.7267 109.003 67.1814 108.789 66.753C108.594 66.3635 108.361 66.1687 108.108 66.1687C107.816 66.1687 107.602 66.4414 107.602 66.9088C107.602 67.2398 107.738 67.7851 107.952 68.233L107.971 68.2525Z" fill="white"/>
<path d="M111.65 67.2009L111.611 67.3372C111.786 67.2398 111.962 67.1814 112.117 67.1814C112.565 67.1814 112.799 67.4151 112.799 67.863V69.012H112.974V69.2067H112.331L112.292 68.973C112.117 69.1678 111.923 69.2652 111.689 69.2652C111.319 69.2652 111.047 68.973 111.047 68.6225C111.047 68.1746 111.378 67.9214 112.039 67.9214C112.117 67.9214 112.195 67.9214 112.292 67.9214V67.7851C112.292 67.5709 112.176 67.4735 111.962 67.4735C111.747 67.4735 111.592 67.5904 111.456 67.8046L111.261 67.7462L111.456 67.1425L111.631 67.2009H111.65ZM112.098 68.1356C111.747 68.1356 111.533 68.3304 111.533 68.5836C111.533 68.8173 111.689 68.973 111.903 68.973C112.137 68.973 112.273 68.8173 112.273 68.5251V68.1356C112.273 68.1356 112.117 68.1356 112.078 68.1356H112.098Z" fill="white"/>
<path d="M113.558 67.5515L113.382 67.6099V67.4151L114.044 67.2204H114.064V67.5515C114.336 67.3178 114.57 67.2009 114.784 67.2009C115.115 67.2009 115.348 67.4151 115.348 67.8046V69.051H115.524V69.2457H114.648V69.051H114.842V67.8825C114.842 67.6878 114.726 67.5709 114.55 67.5709C114.395 67.5709 114.219 67.6488 114.044 67.8046V69.0705H114.239V69.2652H113.363V69.0705H113.538V67.5709L113.558 67.5515Z" fill="white"/>
<path d="M117.003 67.7267C116.789 67.532 116.633 67.4346 116.477 67.4346C116.36 67.4346 116.263 67.5125 116.263 67.6294C116.263 67.7852 116.438 67.8631 116.769 68.0188C117.1 68.1746 117.275 68.2915 117.275 68.6226C117.275 68.9926 116.944 69.3042 116.477 69.3042C116.205 69.3042 115.932 69.2068 115.738 69.012L116.01 68.642C116.263 68.9147 116.458 69.051 116.672 69.051C116.808 69.051 116.925 68.9536 116.925 68.8173C116.925 68.6615 116.769 68.5836 116.516 68.4668C116.166 68.2915 115.913 68.1746 115.913 67.8241C115.913 67.493 116.185 67.2399 116.613 67.2399C116.828 67.2399 117.042 67.2983 117.236 67.4346L117.022 67.7657L117.003 67.7267Z" fill="white"/>
<path d="M102.852 93.4135L102.697 93.4719V95.6725H102.852V95.8478H102.288L102.249 95.6336C102.074 95.8089 101.879 95.9062 101.704 95.9062C101.315 95.9062 101.003 95.5557 101.003 95.0104C101.003 94.3872 101.393 93.9783 101.821 93.9783C101.977 93.9783 102.113 94.0172 102.23 94.1146V93.6277L102.074 93.6861V93.4914L102.833 93.2188V93.4135H102.852ZM101.899 94.173C101.665 94.173 101.47 94.4262 101.47 94.8351C101.47 95.283 101.685 95.5752 101.938 95.5752C102.054 95.5752 102.171 95.5167 102.268 95.3999V94.5625C102.268 94.2898 102.132 94.1535 101.899 94.1535V94.173Z" fill="white"/>
<path d="M103.32 93.8224C103.417 93.764 103.475 93.7055 103.475 93.6277C103.358 93.6277 103.281 93.5303 103.281 93.4134C103.281 93.2966 103.358 93.1992 103.495 93.1992C103.631 93.1992 103.709 93.2966 103.709 93.4719C103.709 93.6666 103.592 93.8419 103.378 93.9198L103.32 93.8029V93.8224Z" fill="white"/>
<path d="M104.877 93.4134L104.721 93.4719V94.2898C104.955 94.0756 105.169 93.9782 105.363 93.9782C105.655 93.9782 105.869 94.1729 105.869 94.5429V95.6919H106.025V95.8672H105.266V95.6919H105.422V94.6014C105.422 94.4066 105.324 94.3093 105.149 94.3093C105.052 94.3093 104.877 94.3872 104.721 94.5235V95.6919H104.877V95.8672H104.118V95.6919H104.273V93.6471L104.118 93.7055V93.5108L104.877 93.2382V93.4329V93.4134Z" fill="white"/>
<path d="M106.979 93.9782C106.979 94.0951 106.979 94.1924 106.979 94.2509V95.6725H107.134V95.8478H106.375V95.6725H106.531V94.2898L106.375 94.3288V94.1535L106.979 93.9588V93.9782ZM106.745 93.3356C106.881 93.3356 106.998 93.4524 106.998 93.5887C106.998 93.7251 106.881 93.8614 106.745 93.8614C106.609 93.8614 106.492 93.7445 106.492 93.5887C106.492 93.4329 106.609 93.3356 106.745 93.3356Z" fill="white"/>
<path d="M108.439 94.465C108.263 94.2897 108.108 94.1924 107.971 94.1924C107.874 94.1924 107.796 94.2703 107.796 94.3676C107.796 94.5234 107.952 94.5819 108.244 94.7182C108.536 94.8545 108.692 94.9713 108.692 95.2829C108.692 95.6335 108.4 95.9256 107.991 95.9256C107.738 95.9256 107.504 95.8282 107.329 95.653L107.563 95.3024C107.777 95.5556 107.952 95.6724 108.147 95.6724C108.283 95.6724 108.38 95.5945 108.38 95.4582C108.38 95.3024 108.244 95.244 108.03 95.1271C107.718 94.9713 107.504 94.8545 107.504 94.5234C107.504 94.2118 107.738 93.9781 108.108 93.9781C108.302 93.9781 108.477 94.0366 108.653 94.1729L108.458 94.4845L108.439 94.465Z" fill="white"/>
<path d="M109.548 93.6276V94.0366H109.898V94.1924C109.898 94.1924 109.84 94.2703 109.782 94.2703H109.548V95.3608C109.548 95.5361 109.587 95.6335 109.723 95.6335C109.782 95.6335 109.84 95.614 109.898 95.5556L109.976 95.6724C109.821 95.8282 109.665 95.9061 109.49 95.9061C109.217 95.9061 109.12 95.7503 109.12 95.4582V94.2898H108.945V94.134C109.198 94.0171 109.373 93.8418 109.451 93.6082L109.568 93.6471L109.548 93.6276Z" fill="white"/>
<path d="M110.113 94.9519C110.113 94.3871 110.521 93.9781 111.066 93.9781C111.611 93.9781 112.02 94.3871 112.02 94.9519C112.02 95.5166 111.611 95.9256 111.066 95.9256C110.521 95.9256 110.113 95.5166 110.113 94.9519ZM111.144 95.7114C111.397 95.7114 111.553 95.4972 111.553 95.0882C111.553 94.5624 111.28 94.1729 110.988 94.1729C110.755 94.1729 110.58 94.3871 110.58 94.7961C110.58 95.3219 110.852 95.7114 111.144 95.7114Z" fill="white"/>
<path d="M112.935 93.9782C112.935 94.0951 112.935 94.1924 112.935 94.2509V95.6725H113.091V95.8478H112.331V95.6725H112.487V94.2898L112.331 94.3288V94.1535L112.935 93.9588V93.9782ZM112.682 93.3356C112.818 93.3356 112.935 93.4524 112.935 93.5887C112.935 93.7251 112.818 93.8614 112.682 93.8614C112.546 93.8614 112.429 93.7445 112.429 93.5887C112.429 93.4329 112.546 93.3356 112.682 93.3356Z" fill="white"/>
<path d="M114.764 94.0172L114.55 94.504C114.453 94.4261 114.375 94.3872 114.258 94.3872C114.122 94.3872 114.025 94.4846 114.025 94.6988V95.653H114.239V95.8283H113.441V95.653H113.597V94.543C113.597 94.543 113.597 94.4261 113.538 94.3872L113.46 94.4651L113.344 94.3482L113.655 93.9393C113.83 94.0366 113.927 94.134 113.986 94.2703C114.103 94.0366 114.2 93.9393 114.317 93.9393C114.375 93.9393 114.472 93.9587 114.57 94.0172L114.628 93.9198L114.764 93.9782V94.0172Z" fill="white"/>
<path d="M115.29 95.0882C115.387 95.3998 115.582 95.5556 115.835 95.5556C116.01 95.5556 116.185 95.4777 116.321 95.3414L116.438 95.4582C116.224 95.7503 115.932 95.9061 115.601 95.9061C115.134 95.9061 114.784 95.4972 114.784 94.9519C114.784 94.4066 115.193 93.9781 115.64 93.9781C115.854 93.9781 116.068 94.0755 116.224 94.2703C116.36 94.4455 116.419 94.6598 116.419 94.6792C116.419 94.7182 116.341 94.7182 116.185 94.7766L115.27 95.0882H115.29ZM115.562 94.1924C115.368 94.1924 115.212 94.4066 115.212 94.6792C115.212 94.7571 115.212 94.8156 115.212 94.8934L115.971 94.6403C115.874 94.3482 115.718 94.1924 115.543 94.1924H115.562Z" fill="white"/>
<path d="M68.8876 86.1885L73.3059 85.9159C73.4032 86.6364 73.5979 87.1817 73.8898 87.5517C74.3764 88.1554 75.0577 88.467 75.9336 88.467C76.5954 88.467 77.1014 88.3112 77.4712 87.9996C77.8216 87.688 78.0162 87.318 78.0162 86.9091C78.0162 86.5001 77.8411 86.169 77.5102 85.8574C77.1598 85.5459 76.3812 85.2537 75.1355 84.9811C73.0918 84.5137 71.6515 83.91 70.7756 83.1505C69.8997 82.391 69.4715 81.4173 69.4715 80.2488C69.4715 79.4698 69.7051 78.7493 70.1527 78.0677C70.6004 77.3861 71.2817 76.8408 72.177 76.4513C73.0723 76.0618 74.3181 75.8671 75.8752 75.8671C77.8021 75.8671 79.2619 76.2176 80.2741 76.9382C81.2862 77.6587 81.8896 78.7882 82.0648 80.3462L77.6853 80.5994C77.5686 79.9177 77.3155 79.4309 76.9457 79.1193C76.5759 78.8077 76.0504 78.6519 75.408 78.6519C74.863 78.6519 74.4543 78.7688 74.1818 79.0024C73.9093 79.2361 73.7731 79.5088 73.7731 79.8398C73.7731 80.0735 73.8898 80.2878 74.1039 80.4825C74.3181 80.6772 74.8436 80.872 75.6611 81.0278C77.6853 81.4562 79.1451 81.9041 80.021 82.3521C80.8969 82.8 81.5392 83.3647 81.948 84.0268C82.3567 84.689 82.5514 85.429 82.5514 86.2469C82.5514 87.2207 82.2789 88.097 81.7533 88.9149C81.2278 89.7329 80.4687 90.356 79.515 90.765C78.5612 91.1934 77.3545 91.3882 75.8946 91.3882C73.3449 91.3882 71.5736 90.9013 70.5809 89.9081C69.5883 88.9149 69.0433 87.6686 68.907 86.1496L68.8876 86.1885Z" fill="white"/>
<path d="M94.113 88.6812H88.8382L88.0986 91.1739H83.3494L88.994 76.1396H94.0546L99.6992 91.1739H94.8332L94.0741 88.6812H94.113ZM93.1398 85.4289L91.4854 80.0151L89.8504 85.4289H93.1593H93.1398Z" fill="white"/>
<path d="M111.397 71.0374V81.4562H106.142V71.0374H101.373V91.1739H106.142V84.8837H111.397V91.1739H116.166V71.0374H111.397Z" fill="white"/>
<path d="M75.8752 91.6608C73.267 91.6608 71.4179 91.135 70.3863 90.1028C69.3547 89.0707 68.7708 87.7659 68.6345 86.1884V85.9353L73.52 85.6237L73.5589 85.8574C73.6563 86.5195 73.8314 87.0453 74.0845 87.3764C74.5127 87.9217 75.1161 88.1943 75.9336 88.1943C76.5369 88.1943 76.9846 88.058 77.296 87.7853C77.6075 87.5127 77.7437 87.2206 77.7437 86.8895C77.7437 86.5779 77.6075 86.2858 77.3155 86.0327C77.1014 85.8379 76.5369 85.5458 75.0577 85.2147C72.9945 84.7473 71.4763 84.1242 70.5809 83.3257C69.6467 82.5273 69.1795 81.4756 69.1795 80.2293C69.1795 79.4113 69.4131 78.6324 69.8997 77.9118C70.3668 77.1913 71.087 76.607 72.0213 76.1981C72.9555 75.7891 74.2207 75.5944 75.8168 75.5944C77.7826 75.5944 79.3008 75.9644 80.3519 76.7044C81.4224 77.4639 82.0453 78.6713 82.2594 80.2877L82.2983 80.5409L77.4323 80.833L77.3934 80.6188C77.296 79.9956 77.0625 79.5671 76.751 79.2945C76.4202 79.0219 75.953 78.8855 75.3691 78.8855C74.8825 78.8855 74.5321 78.9829 74.2986 79.1777C74.0845 79.3529 73.9677 79.5671 73.9677 79.8203C73.9677 79.9761 74.0455 80.1319 74.2207 80.2877C74.3375 80.3851 74.6489 80.5798 75.6611 80.794C77.7048 81.2419 79.1841 81.6899 80.0794 82.1378C80.9942 82.6052 81.6755 83.1894 82.1037 83.8905C82.5319 84.5915 82.746 85.39 82.746 86.2469C82.746 87.2595 82.454 88.1943 81.909 89.0512C81.3446 89.9081 80.566 90.5507 79.5733 90.9986C78.5807 91.4271 77.335 91.6413 75.8557 91.6413L75.8752 91.6608ZM69.1601 86.4221C69.3158 87.7659 69.8608 88.8954 70.7366 89.7717C71.6709 90.7065 73.4032 91.1739 75.8752 91.1739C77.296 91.1739 78.4834 90.9597 79.3982 90.5702C80.313 90.1612 81.0137 89.577 81.5197 88.8175C82.0258 88.058 82.2788 87.2011 82.2788 86.2858C82.2788 85.5068 82.0842 84.8058 81.7144 84.1826C81.3446 83.5594 80.7217 83.0336 79.9042 82.6052C79.0478 82.1767 77.6075 81.7288 75.6027 81.3004C74.7268 81.1251 74.1818 80.9304 73.9288 80.6967C73.6563 80.463 73.5005 80.1903 73.5005 79.8593C73.5005 79.4503 73.6757 79.1192 74.0066 78.8271C74.318 78.5545 74.7852 78.4182 75.3886 78.4182C76.1087 78.4182 76.6732 78.5934 77.0819 78.944C77.4518 79.2556 77.7242 79.7229 77.8605 80.3461L81.7533 80.1124C81.5392 78.7687 80.9748 77.756 80.0989 77.1328C79.1451 76.4512 77.7048 76.1007 75.8557 76.1007C74.3375 76.1007 73.1113 76.2954 72.2548 76.6655C71.3984 77.0355 70.7561 77.5613 70.3474 78.2039C69.9192 78.8466 69.7245 79.5477 69.7245 80.2682C69.7245 81.3783 70.1333 82.2741 70.9507 82.9946C71.7877 83.7152 73.2086 84.3189 75.1939 84.7668C76.498 85.0589 77.3155 85.351 77.6853 85.7016C78.0746 86.0521 78.2887 86.4806 78.2887 86.9285C78.2887 87.4153 78.0746 87.8438 77.6659 88.1943C77.2571 88.5449 76.6927 88.7201 75.9725 88.7201C74.9993 88.7201 74.2596 88.3891 73.7341 87.7075C73.4422 87.3374 73.2475 86.8311 73.1307 86.169L69.199 86.4221H69.1601Z" fill="#1D1D1B"/>
<path d="M100.088 91.4077H94.6775L93.9184 88.9149H89.0134L88.2738 91.4077H82.999L88.8382 75.8671H94.2493L100.088 91.4077ZM95.0473 90.9208H99.3683L93.8989 76.3734H89.1691L83.6997 90.9208H87.904L88.6436 88.4281H94.2882L95.0473 90.9208ZM93.4707 85.6822H89.5L91.4659 79.1777L93.4512 85.6822H93.4707ZM90.1813 85.1758H92.8089L91.4854 80.8525L90.1813 85.1758Z" fill="#1D1D1B"/>
<path d="M116.419 91.4076H111.164V85.1368H106.395V91.4076H101.14V70.7842H106.395V81.203H111.164V70.7842H116.419V91.4076ZM111.65 90.9207H115.913V71.2905H111.65V81.7093H105.889V71.2905H101.626V90.9207H105.889V84.65H111.65V90.9207Z" fill="#1D1D1B"/>
<path d="M75.7584 147.806C75.6805 148.292 75.5832 148.799 75.4664 149.363C75.4664 149.363 75.46 149.376 75.447 149.402C74.6295 151.467 72.1965 152.538 70.1138 152.538C67.5446 152.538 49.696 146.189 44.791 146.189C39.8861 146.189 38.4847 149.11 38.4847 151.467V163.035C26.9035 163.035 18.9817 167.007 14.4855 171.077C15.6533 168.818 20.9086 156.92 20.9086 156.92C20.9086 156.92 15.9842 149.85 13.8431 147.28C21.9791 139.354 47.4771 137.426 54.2311 137.426C75.2329 137.426 75.7584 145.235 75.7584 147.806Z" fill="#E9C669"/>
<path d="M216.873 152.635V179.51C216.094 174.057 214.81 164.573 194.801 164.573C191.862 164.573 188.689 164.729 185.322 165.021C184.582 165.079 183.823 165.157 183.064 165.235C145.42 169.033 86.6193 188.02 58.085 188.02C51.9732 188.02 38.4846 186.949 38.4846 178.264V151.467C39.4189 154.992 40.4116 162.08 58.8246 162.08C62.0751 162.08 65.9874 161.749 70.4252 161.184C70.8923 161.126 71.3595 161.068 71.8461 160.99C105.558 156.355 166.831 138.438 194.197 138.438C206.265 138.438 216.873 141.807 216.873 152.635Z" fill="#E9C669"/>
<path d="M75.4469 149.402C75.4469 149.402 75.4469 149.519 75.408 149.578C74.5321 153.434 72.7414 158.555 71.8461 160.99C71.3595 161.068 70.8923 161.126 70.4252 161.185C65.9874 161.749 62.0751 162.08 58.8246 162.08C40.4116 162.08 39.4189 154.992 38.4846 151.467C38.4846 149.11 39.9055 146.189 44.791 146.189C49.6765 146.189 67.5445 152.538 70.1138 152.538C72.1964 152.538 74.6294 151.467 75.4469 149.402Z" fill="#E9C669"/>
<path d="M242.157 178.828C234.001 186.754 208.504 188.682 201.769 188.682C180.767 188.682 179.775 181.555 179.775 178.283C179.775 178.166 179.775 178.049 179.794 177.913C179.852 177.465 179.989 176.939 180.183 176.336C180.748 175.109 181.993 174.193 184.251 174.193C187.619 174.193 205.097 183.911 211.812 183.911C214.693 183.911 216.873 182.217 216.873 179.51V163.054C217.107 163.073 217.321 163.073 217.515 163.073C229.077 163.073 237.018 159.101 241.515 155.031C240.327 157.27 235.072 169.169 235.072 169.169C235.072 169.169 240.016 176.258 242.157 178.828Z" fill="#E9C669"/>
<path d="M216.873 179.51C216.873 182.217 214.693 183.911 211.812 183.911C205.097 183.911 187.619 174.193 184.251 174.193C181.993 174.193 180.748 175.109 180.183 176.336C179.95 176.822 179.833 177.368 179.794 177.893C179.95 173.064 183.122 171.486 183.122 167.183C183.122 166.384 183.122 165.741 183.064 165.235C183.823 165.157 184.582 165.079 185.322 165.021C188.689 164.729 191.862 164.573 194.801 164.573C214.81 164.573 216.094 174.057 216.873 179.51Z" fill="#E9C669"/>
<path d="M242.527 178.517C240.639 176.238 236.493 170.337 235.617 169.111C236.376 167.377 240.853 157.27 241.943 155.264C242.06 155.05 242.001 154.797 241.807 154.661C241.612 154.524 241.359 154.524 241.184 154.68C237.914 157.64 230.498 162.606 217.515 162.606C217.476 162.606 217.418 162.606 217.36 162.606V152.655C217.36 143.054 209.36 137.971 194.197 137.971C177.945 137.971 149.8 144.261 122.57 150.357C103.884 154.544 86.2106 158.478 72.5858 160.406C73.3838 158.185 75.0382 153.414 75.8752 149.734C75.8752 149.734 75.8752 149.734 75.8752 149.714C75.8752 149.675 75.8752 149.636 75.8946 149.597C75.8946 149.558 75.9336 149.539 75.9336 149.5C76.0504 148.935 76.1477 148.409 76.2255 147.922C76.2255 147.903 76.2255 147.864 76.2255 147.845C76.2255 138.867 64.2551 136.978 54.2117 136.978C48.1583 136.978 21.9207 138.75 13.4928 146.968C13.3176 147.143 13.2981 147.436 13.4539 147.63C15.3419 149.889 19.4877 155.79 20.3441 157.017C19.585 158.75 15.1083 168.857 14.0378 170.902C13.921 171.116 13.9794 171.37 14.174 171.506C14.2519 171.564 14.3687 171.603 14.466 171.603C14.5828 171.603 14.6996 171.564 14.7969 171.486C18.0279 168.565 25.3075 163.697 37.9786 163.58V178.303C37.9786 187.553 52.0317 188.546 58.0655 188.546C73.4811 188.546 97.3246 183.113 122.55 177.348C143.591 172.558 165.313 167.611 182.597 165.8C182.597 166.209 182.636 166.657 182.636 167.202C182.636 169.208 181.896 170.591 181.118 172.071C180.261 173.668 179.385 175.342 179.307 177.894C179.307 178.03 179.288 178.166 179.288 178.283C179.288 185.605 186.645 189.169 201.769 189.169C207.803 189.169 234.04 187.397 242.488 179.179C242.663 179.004 242.682 178.711 242.527 178.517ZM71.4958 160.542C71.1259 160.6 70.7367 160.659 70.3668 160.698C65.6565 161.301 61.8805 161.593 58.8246 161.593C41.56 161.593 40.0029 155.478 39.0686 151.817L38.9713 151.408C38.9713 151.408 38.9713 151.33 38.9713 151.291C38.9713 151.253 38.9713 151.233 38.9713 151.194C38.9713 151.136 38.9713 151.077 38.9713 151.019C38.9713 150.98 38.9713 150.941 38.9713 150.883C38.9713 150.824 38.9713 150.766 38.9907 150.707C38.9907 150.649 38.9907 150.61 39.0102 150.551C39.0102 150.493 39.0297 150.415 39.0491 150.357C39.0491 150.298 39.0686 150.24 39.0881 150.181C39.0881 150.123 39.127 150.045 39.1464 149.987C39.1464 149.928 39.1854 149.87 39.2048 149.792C39.2243 149.734 39.2632 149.656 39.2827 149.597C39.3022 149.539 39.3411 149.461 39.3606 149.402C39.3995 149.325 39.4384 149.266 39.4579 149.188C39.4968 149.13 39.5163 149.052 39.5552 148.994C39.5941 148.916 39.6525 148.857 39.6914 148.779C39.7304 148.721 39.7693 148.662 39.8277 148.585C39.8861 148.507 39.9445 148.448 40.0029 148.37C40.0613 148.312 40.1002 148.253 40.1586 148.195C40.217 148.137 40.2948 148.059 40.3727 148C40.4311 147.942 40.4895 147.883 40.5673 147.825C40.6452 147.767 40.7425 147.708 40.8204 147.65C40.8982 147.591 40.9566 147.552 41.0345 147.494C41.1318 147.436 41.2291 147.377 41.3459 147.338C41.4237 147.299 41.5016 147.241 41.5989 147.202C41.7157 147.143 41.852 147.104 41.9687 147.066C42.0661 147.027 42.1439 146.988 42.2412 146.968C42.3775 146.929 42.5332 146.89 42.6889 146.851C42.7862 146.832 42.8836 146.793 42.9809 146.773C43.1561 146.734 43.3507 146.715 43.5453 146.696C43.6427 146.696 43.7205 146.676 43.8178 146.657C44.1098 146.637 44.4212 146.618 44.7716 146.618C47.5549 146.618 54.854 148.779 60.7321 150.532C65.8317 152.051 69.0044 152.966 70.0943 152.966C70.4058 152.966 70.7367 152.927 71.0676 152.888C71.1649 152.888 71.2622 152.849 71.3595 152.83C71.6125 152.791 71.8461 152.733 72.0992 152.655C72.1965 152.616 72.2938 152.596 72.4106 152.557C72.722 152.46 73.014 152.324 73.3254 152.187C73.3449 152.187 73.3838 152.168 73.4032 152.148C73.7147 151.973 74.0066 151.778 74.2986 151.564C74.3181 151.545 74.357 151.525 74.3959 151.506C73.4227 155.031 72.0602 158.906 71.4763 160.483L71.4958 160.542ZM15.8869 169.286C17.7554 165.255 21.1811 157.504 21.3563 157.114C21.4341 156.959 21.4147 156.783 21.3173 156.647C21.1227 156.374 16.7627 150.104 14.5244 147.338C23.0691 139.607 48.353 137.932 54.2506 137.932C68.1869 137.932 75.2718 141.243 75.2913 147.786C75.2134 148.215 75.1355 148.643 75.0382 149.188C75.0382 149.188 75.0382 149.227 75.0188 149.227C74.2791 151.077 72.0018 152.051 70.1333 152.051C69.1211 152.051 65.1894 150.883 61.0435 149.656C54.7956 147.806 47.7301 145.702 44.8105 145.702C39.8082 145.702 38.0175 148.682 38.0175 151.467V162.548C26.9035 162.645 19.7991 166.345 15.9063 169.286H15.8869ZM122.355 176.355C97.1689 182.1 73.4032 187.514 58.085 187.514C52.4793 187.514 39.633 186.638 39.0297 178.809C40.6063 182.392 44.7326 186.579 58.8246 186.579H59.5253C59.7978 186.579 60.0119 186.345 60.0119 186.073C60.0119 185.8 59.7978 185.625 59.5253 185.586H58.8441C46.3287 185.586 42.0855 182.373 40.3338 179.198C42.2996 181.691 46.1146 183.989 54.2506 184.612C54.2506 184.612 54.27 184.612 54.2895 184.612C54.5425 184.612 54.7566 184.417 54.7761 184.164C54.7956 183.892 54.6009 183.658 54.3284 183.639C46.7764 183.054 43.1366 180.99 41.268 178.731C43.701 181.068 48.1583 183.074 56.8004 183.327C57.0534 183.327 57.287 183.113 57.287 182.86C57.287 182.587 57.0923 182.373 56.8198 182.353C46.2508 182.022 42.2412 179.179 40.4895 176.297C42.4943 178.711 46.3287 180.893 54.2311 181.496C54.2311 181.496 54.2506 181.496 54.27 181.496C54.5231 181.496 54.7372 181.302 54.7566 181.048C54.7761 180.776 54.5815 180.542 54.309 180.523C45.9783 179.88 42.4164 177.446 40.723 174.914C43.1755 177.66 48.1194 180.094 58.8441 180.094H59.428V179.12H58.8636C47.4576 179.12 42.9225 176.452 40.8788 173.57C42.9809 175.81 46.8153 177.796 54.2895 178.38C54.2895 178.38 54.309 178.38 54.3284 178.38C54.5815 178.38 54.7956 178.186 54.815 177.933C54.8345 177.66 54.6399 177.426 54.3674 177.407C45.7058 176.745 42.1828 174.135 40.5673 171.525C42.8252 174.193 47.3214 176.608 57.0145 176.881C57.2675 176.881 57.5011 176.667 57.5011 176.413C57.5011 176.141 57.3064 175.927 57.0339 175.907C47.5744 175.654 43.3312 173.375 41.2486 170.863C43.3118 172.85 46.8542 174.563 53.1995 175.187C53.1995 175.187 53.2384 175.187 53.2579 175.187C53.5109 175.187 53.7251 174.992 53.7445 174.739C53.764 174.466 53.5693 174.232 53.3163 174.213C46.0173 173.492 42.6694 171.292 40.9566 168.994C43.4869 171.642 48.4308 173.94 58.8636 173.94C59.1361 173.94 59.3502 173.726 59.3502 173.453C59.3502 173.181 59.1361 172.967 58.8636 172.967C47.9442 172.967 43.3118 170.513 41.1512 167.786C43.2923 169.909 47.1073 171.759 54.27 172.324C54.27 172.324 54.2895 172.324 54.309 172.324C54.562 172.324 54.7761 172.129 54.7956 171.876C54.815 171.603 54.6204 171.37 54.3479 171.35C45.0246 170.63 41.6768 167.65 40.2364 164.846C42.358 167.65 46.7958 170.318 56.9172 170.61C57.1702 170.61 57.4038 170.396 57.4038 170.143C57.4038 169.87 57.2091 169.656 56.9366 169.636C46.426 169.325 42.3775 166.52 40.6063 163.677C42.6305 166.053 46.4455 168.176 54.2117 168.799C54.2117 168.799 54.2311 168.799 54.2506 168.799C54.5036 168.799 54.7177 168.604 54.7372 168.351C54.7566 168.078 54.562 167.845 54.2895 167.825C46.3092 167.202 42.7473 164.924 40.9761 162.509C43.4869 165.157 48.4503 167.455 58.9025 167.455H59.4864C59.7589 167.455 59.973 167.222 59.973 166.949C59.973 166.676 59.7589 166.462 59.4864 166.462H58.9025C49.8128 166.462 45.1025 164.768 42.5137 162.626C44.7521 164.223 48.2362 165.527 53.8224 166.014H53.8613C54.1143 166.014 54.3284 165.819 54.3479 165.566C54.3674 165.294 54.1727 165.06 53.9002 165.04C45.2776 164.281 41.9298 161.574 40.4116 158.906C42.6111 161.652 47.0878 164.203 57.0729 164.476C57.3454 164.476 57.5595 164.261 57.5595 164.008C57.5595 163.736 57.3454 163.521 57.0923 163.502C44.9273 163.171 41.3459 159.529 39.9445 156.296C40.0613 156.472 40.178 156.627 40.3143 156.803C40.3727 156.881 40.4505 156.978 40.5284 157.056C40.6841 157.231 40.8398 157.426 41.015 157.601C41.0929 157.699 41.1902 157.776 41.268 157.854C41.4821 158.049 41.6962 158.244 41.9493 158.439C42.0271 158.497 42.0855 158.555 42.1634 158.614C42.4748 158.867 42.8252 159.101 43.2144 159.334C43.3118 159.393 43.4091 159.451 43.5064 159.49C43.7984 159.665 44.1293 159.841 44.4601 159.997C44.6159 160.074 44.7716 160.133 44.9273 160.211C45.2582 160.347 45.5891 160.503 45.9589 160.639C46.1341 160.698 46.2898 160.776 46.4649 160.834C46.9321 160.99 47.4187 161.146 47.9248 161.282C48.0221 161.301 48.0999 161.34 48.1972 161.36C48.8201 161.516 49.4819 161.652 50.1826 161.788C50.3772 161.827 50.5913 161.847 50.8054 161.886C51.331 161.963 51.876 162.061 52.4599 162.119C52.7324 162.158 53.0049 162.178 53.2774 162.217C53.8613 162.275 54.4647 162.314 55.107 162.353C55.3795 162.353 55.652 162.392 55.944 162.411C56.8782 162.45 57.832 162.489 58.8636 162.489C61.9584 162.489 65.7733 162.197 70.542 161.593C71.0092 161.535 71.4763 161.477 71.9629 161.399C85.724 159.51 103.748 155.478 122.823 151.214C149.994 145.138 178.081 138.847 194.236 138.847C202.547 138.847 212.143 140.464 215.335 147.299C212.338 142.859 206.09 140.347 196.883 139.938C196.591 139.938 196.397 140.133 196.377 140.405C196.358 140.678 196.572 140.892 196.844 140.912C203.676 141.204 211.501 142.859 214.81 148.351C212.318 145.196 208.056 143.093 202.119 142.158C201.866 142.119 201.613 142.294 201.555 142.567C201.516 142.84 201.691 143.073 201.964 143.132C206.791 143.891 210.43 145.391 212.844 147.611C210.041 145.352 205.993 143.852 200.737 143.21C200.484 143.171 200.231 143.365 200.192 143.638C200.153 143.911 200.348 144.144 200.621 144.183C207.55 145.04 212.202 147.28 214.576 150.902C212.357 148.234 208.893 146.326 204.163 145.293C203.89 145.235 203.637 145.41 203.579 145.663C203.521 145.936 203.696 146.189 203.949 146.248C209.185 147.377 212.786 149.539 214.713 152.655C211.52 148.701 205.506 146.462 196.864 146.092C196.572 146.092 196.377 146.287 196.358 146.559C196.338 146.832 196.553 147.046 196.825 147.066C203.832 147.377 211.871 149.11 215.024 154.914C212.61 151.661 208.387 149.461 202.45 148.487C202.178 148.429 201.925 148.623 201.886 148.896C201.847 149.169 202.022 149.422 202.294 149.461C207.861 150.376 211.773 152.324 214.07 155.225C211.112 152.129 206.207 150.22 199.492 149.578C199.239 149.558 198.986 149.753 198.966 150.026C198.947 150.298 199.141 150.532 199.414 150.551C206.83 151.253 211.832 153.453 214.401 157.095C211.91 154.291 207.9 152.382 202.489 151.486C202.217 151.428 201.964 151.623 201.925 151.895C201.886 152.168 202.061 152.421 202.333 152.46C207.842 153.375 211.754 155.284 214.051 158.146C210.664 154.641 204.766 152.674 196.514 152.382C196.222 152.382 196.027 152.577 196.008 152.849C196.008 153.122 196.202 153.336 196.475 153.356C203.365 153.609 211.248 155.186 214.693 160.542C212.163 157.484 207.92 155.44 202.061 154.524C201.808 154.485 201.555 154.661 201.496 154.933C201.438 155.206 201.633 155.44 201.905 155.498C208.036 156.452 212.26 158.594 214.498 161.886C211.52 158.439 206.323 156.355 199.024 155.732C198.771 155.732 198.518 155.907 198.499 156.18C198.479 156.452 198.674 156.686 198.947 156.705C206.907 157.368 212.163 159.724 214.693 163.716C212.202 160.678 208.017 158.633 202.256 157.699C201.983 157.66 201.749 157.835 201.691 158.108C201.652 158.38 201.827 158.614 202.1 158.672C208.426 159.685 212.669 161.983 214.81 165.527C211.598 161.477 205.428 159.198 196.514 158.867C196.202 158.867 196.027 159.062 196.008 159.334C196.008 159.607 196.202 159.821 196.475 159.841C202.762 160.074 209.866 161.399 213.681 165.722C211.228 163.366 207.569 161.749 202.781 160.912C202.528 160.853 202.256 161.048 202.217 161.301C202.178 161.574 202.353 161.827 202.606 161.866C208.698 162.937 212.747 165.255 214.81 168.741C211.871 165.021 206.44 162.781 198.713 162.178C198.46 162.178 198.207 162.353 198.188 162.626C198.168 162.898 198.363 163.132 198.635 163.151C211.112 164.125 215.219 169.208 216.172 174.116C216.172 174.057 216.133 174.018 216.114 173.96C216.094 173.901 216.056 173.823 216.036 173.765C215.919 173.492 215.803 173.239 215.686 172.967C215.686 172.947 215.666 172.908 215.647 172.889C215.511 172.597 215.355 172.324 215.18 172.032C215.141 171.973 215.102 171.895 215.063 171.837C214.907 171.584 214.732 171.311 214.537 171.058C214.537 171.039 214.498 171.019 214.479 170.98C214.284 170.707 214.051 170.435 213.817 170.162C213.759 170.104 213.7 170.045 213.661 169.967C213.428 169.714 213.194 169.461 212.941 169.227C212.922 169.227 212.902 169.188 212.883 169.169C212.61 168.916 212.299 168.663 211.988 168.41C211.91 168.351 211.832 168.293 211.754 168.234C211.443 168.001 211.131 167.786 210.781 167.553C210.761 167.553 210.742 167.533 210.722 167.514C210.353 167.28 209.963 167.066 209.555 166.871C209.457 166.813 209.36 166.774 209.263 166.715C208.854 166.52 208.445 166.326 207.997 166.15C207.978 166.15 207.958 166.15 207.939 166.131C207.472 165.936 206.985 165.78 206.46 165.605C206.343 165.566 206.207 165.527 206.07 165.488C205.564 165.333 205.019 165.177 204.455 165.06C204.435 165.06 204.416 165.06 204.397 165.06C203.813 164.924 203.209 164.807 202.567 164.709C202.411 164.69 202.256 164.651 202.08 164.631C201.438 164.534 200.776 164.437 200.095 164.359H200.056C199.355 164.281 198.596 164.242 197.837 164.184C197.643 164.184 197.448 164.164 197.253 164.164C196.455 164.125 195.657 164.106 194.801 164.106C191.92 164.106 188.728 164.261 185.283 164.554C184.543 164.612 183.784 164.69 183.006 164.768C165.605 166.52 143.61 171.545 122.336 176.394L122.355 176.355ZM181.974 172.499C182.772 170.98 183.609 169.422 183.609 167.183C183.609 166.598 183.609 166.112 183.57 165.683C184.173 165.625 184.777 165.566 185.361 165.508C188.767 165.216 191.959 165.06 194.801 165.06C196.027 165.06 197.175 165.099 198.246 165.157C214.421 166.17 215.647 174.408 216.386 179.529C216.386 179.685 216.367 179.822 216.348 179.977C216.348 180.114 216.347 180.23 216.309 180.367C216.27 180.503 216.231 180.639 216.172 180.756C216.133 180.873 216.114 181.009 216.056 181.126C215.997 181.243 215.919 181.36 215.861 181.477C215.803 181.594 215.744 181.691 215.666 181.808C215.588 181.905 215.491 182.003 215.394 182.1C215.316 182.197 215.238 182.295 215.141 182.373C215.024 182.47 214.907 182.548 214.771 182.626C214.674 182.684 214.576 182.762 214.479 182.84C214.343 182.918 214.168 182.976 214.012 183.054C213.914 183.093 213.817 183.152 213.7 183.191C213.525 183.249 213.331 183.288 213.136 183.327C213.019 183.346 212.922 183.385 212.805 183.405C212.494 183.444 212.163 183.483 211.832 183.483C207.997 183.483 200.329 180.133 194.158 177.426C189.468 175.381 185.769 173.765 184.271 173.765C183.901 173.765 183.57 173.784 183.259 173.823C183.142 173.823 183.044 173.862 182.928 173.882C182.752 173.921 182.558 173.94 182.402 173.999C182.266 174.038 182.149 174.077 182.032 174.135C181.916 174.174 181.799 174.213 181.682 174.271C181.546 174.33 181.429 174.408 181.312 174.466C181.234 174.505 181.156 174.544 181.098 174.602C181.059 174.622 181.02 174.641 180.981 174.68C181.273 173.921 181.643 173.239 181.993 172.558L181.974 172.499ZM201.769 188.196C180.261 188.196 180.261 180.737 180.261 178.283C180.261 178.186 180.261 178.088 180.261 177.952C180.319 177.582 180.436 177.076 180.611 176.53C181.176 175.303 182.402 174.68 184.232 174.68C185.536 174.68 189.507 176.414 193.73 178.264C200.309 181.146 207.764 184.398 211.793 184.398C215.063 184.398 217.34 182.392 217.34 179.51V163.56H217.496C228.882 163.56 236.123 159.821 240.074 156.822C238.186 160.853 234.78 168.565 234.605 168.974C234.527 169.13 234.546 169.305 234.644 169.442C234.838 169.714 239.218 176.005 241.456 178.77C232.892 186.501 207.628 188.176 201.73 188.176L201.769 188.196Z" fill="#D7121B"/>
<path d="M75.2523 167.669L76.4201 174.758C76.4785 175.148 76.5564 175.518 76.6537 175.927C76.751 176.316 76.8873 176.667 77.0624 176.978C77.2376 177.27 77.4906 177.504 77.8021 177.66C78.1135 177.816 78.5222 177.855 79.0283 177.777C79.5344 177.699 79.9042 177.523 80.1572 177.27C80.4103 177.017 80.566 176.725 80.6438 176.374C80.7217 176.024 80.7411 175.654 80.7022 175.245C80.6633 174.836 80.6049 174.446 80.5465 174.076L79.3787 166.988L82.4151 166.481L83.6608 174.038C83.9916 176.063 83.8165 177.621 83.1352 178.692C82.454 179.763 81.2472 180.445 79.5149 180.737C77.7826 181.029 76.4201 180.776 75.4274 179.977C74.4348 179.179 73.773 177.777 73.4421 175.751L72.1964 168.195L75.2523 167.689V167.669Z" fill="#D7121B"/>
<path d="M78.2498 181.087C77.0625 181.087 76.0698 180.776 75.2912 180.153C74.2596 179.315 73.5589 177.855 73.2086 175.771L71.924 167.981L75.4469 167.397L76.6537 174.719C76.7121 175.089 76.79 175.479 76.8873 175.868C76.9651 176.238 77.1014 176.569 77.2766 176.842C77.4323 177.115 77.6464 177.29 77.9189 177.426C78.1914 177.562 78.5417 177.582 79.0089 177.504C79.4566 177.426 79.7874 177.29 80.0015 177.076C80.2157 176.861 80.3519 176.608 80.4298 176.297C80.5076 175.985 80.5271 175.634 80.4882 175.264C80.4492 174.875 80.3908 174.485 80.3324 174.115L79.1257 166.793L82.6292 166.209L83.9138 173.999C84.2642 176.082 84.0695 177.699 83.3688 178.828C82.6487 179.958 81.3835 180.678 79.5928 180.97C79.1257 181.048 78.678 181.087 78.2692 181.087H78.2498ZM72.4884 168.371L73.6952 175.693C74.0261 177.66 74.6684 179.023 75.6027 179.783C76.5369 180.523 77.8605 180.776 79.4955 180.503C81.1499 180.23 82.3178 179.588 82.9406 178.575C83.5829 177.562 83.7387 176.043 83.4272 174.096L82.2205 166.774L79.6707 167.202L80.7996 174.057C80.858 174.447 80.9164 174.836 80.9553 175.245C80.9942 175.673 80.9553 176.082 80.8774 176.452C80.7801 176.842 80.6049 177.173 80.3324 177.446C80.0599 177.738 79.6317 177.913 79.0673 178.01C78.5223 178.108 78.0551 178.069 77.6853 177.874C77.335 177.699 77.043 177.446 76.8484 177.095C76.6537 176.764 76.498 176.394 76.4007 175.985C76.3034 175.576 76.2255 175.187 76.1671 174.817L75.0382 167.962L72.4689 168.39L72.4884 168.371Z" fill="#1D1D1B"/>
<path d="M95.2809 166.852L93.5875 167.202L92.9841 164.359L97.6944 163.366L100.439 176.297L97.4219 176.939L95.2809 166.852Z" fill="#D7121B"/>
<path d="M97.2273 177.231L95.0862 167.144L93.3928 167.494L92.6921 164.164L97.8891 163.054L100.731 176.452L97.2273 177.192V177.231ZM95.4755 166.579L97.6166 176.667L100.166 176.121L97.5387 163.677L93.2955 164.573L93.8016 166.949L95.495 166.598L95.4755 166.579Z" fill="#1D1D1B"/>
<path d="M109.529 160.756L107.173 165.702H107.232C107.485 165.43 107.68 165.255 107.855 165.177C108.03 165.099 108.186 165.04 108.341 165.001C108.906 164.885 109.451 164.885 109.976 165.001C110.502 165.118 110.988 165.371 111.436 165.702C111.884 166.034 112.254 166.462 112.584 166.988C112.915 167.514 113.129 168.078 113.285 168.721C113.441 169.403 113.46 170.065 113.363 170.707C113.266 171.35 113.052 171.934 112.721 172.46C112.39 172.986 111.962 173.453 111.397 173.843C110.833 174.232 110.19 174.505 109.431 174.68C108.653 174.855 107.952 174.875 107.29 174.758C106.628 174.641 106.045 174.408 105.519 174.076C104.993 173.745 104.565 173.298 104.195 172.772C103.845 172.246 103.592 171.662 103.456 171C103.3 170.279 103.261 169.442 103.358 168.526C103.456 167.611 103.728 166.676 104.137 165.722L106.025 161.496L109.509 160.717L109.529 160.756ZM106.434 170.337C106.492 170.63 106.609 170.902 106.765 171.136C106.92 171.37 107.115 171.564 107.329 171.72C107.543 171.876 107.777 171.993 108.049 172.051C108.302 172.11 108.575 172.11 108.828 172.051C109.081 171.993 109.334 171.876 109.529 171.72C109.723 171.564 109.898 171.35 110.035 171.116C110.171 170.883 110.249 170.63 110.307 170.357C110.346 170.084 110.346 169.792 110.268 169.5C110.21 169.208 110.093 168.935 109.937 168.702C109.782 168.468 109.587 168.273 109.373 168.117C109.159 167.962 108.925 167.845 108.653 167.786C108.4 167.728 108.127 167.728 107.874 167.786C107.602 167.845 107.368 167.962 107.173 168.117C106.959 168.273 106.804 168.487 106.667 168.721C106.531 168.955 106.453 169.208 106.395 169.481C106.336 169.753 106.356 170.045 106.434 170.337Z" fill="#D7121B"/>
<path d="M108.108 175.089C107.816 175.089 107.524 175.07 107.251 175.011C106.57 174.894 105.928 174.641 105.383 174.291C104.838 173.94 104.371 173.473 104.001 172.928C103.631 172.382 103.358 171.759 103.222 171.077C103.047 170.318 103.028 169.461 103.125 168.526C103.222 167.592 103.495 166.618 103.923 165.644L105.85 161.301L109.957 160.386L107.796 164.904C107.971 164.826 108.127 164.768 108.283 164.729C108.886 164.592 109.47 164.592 110.035 164.729C110.599 164.865 111.105 165.118 111.572 165.488C112.039 165.839 112.448 166.306 112.779 166.832C113.11 167.377 113.363 167.981 113.499 168.643C113.655 169.364 113.694 170.045 113.597 170.707C113.499 171.37 113.266 171.993 112.935 172.558C112.584 173.122 112.117 173.609 111.553 174.018C110.988 174.427 110.288 174.719 109.509 174.894C109.042 174.992 108.575 175.05 108.127 175.05L108.108 175.089ZM106.2 161.749L104.371 165.858C103.962 166.793 103.709 167.708 103.612 168.585C103.514 169.461 103.534 170.279 103.689 170.98C103.826 171.603 104.059 172.168 104.41 172.655C104.74 173.142 105.169 173.57 105.655 173.882C106.142 174.193 106.706 174.427 107.349 174.524C107.991 174.622 108.672 174.602 109.392 174.447C110.113 174.291 110.755 174.018 111.261 173.648C111.786 173.278 112.195 172.85 112.507 172.343C112.818 171.837 113.013 171.272 113.11 170.668C113.207 170.065 113.168 169.422 113.032 168.779C112.896 168.176 112.682 167.611 112.37 167.124C112.078 166.637 111.709 166.228 111.28 165.917C110.872 165.605 110.404 165.371 109.918 165.255C109.431 165.138 108.925 165.118 108.4 165.255C108.283 165.274 108.127 165.332 107.971 165.41C107.874 165.449 107.699 165.566 107.426 165.858L107.368 165.917L106.745 166.053L109.1 161.107L106.22 161.749H106.2ZM108.439 172.343C108.283 172.343 108.127 172.343 107.991 172.285C107.699 172.207 107.446 172.09 107.193 171.915C106.959 171.74 106.745 171.525 106.57 171.272C106.395 171.019 106.259 170.707 106.2 170.396C106.122 170.065 106.122 169.753 106.161 169.442C106.22 169.13 106.317 168.857 106.453 168.585C106.609 168.332 106.784 168.098 107.018 167.923C107.251 167.728 107.524 167.611 107.835 167.533C108.127 167.455 108.439 167.475 108.731 167.533C109.023 167.611 109.276 167.728 109.529 167.903C109.762 168.078 109.976 168.293 110.151 168.546C110.327 168.799 110.463 169.091 110.521 169.422C110.599 169.753 110.599 170.065 110.56 170.376C110.502 170.688 110.404 170.961 110.268 171.233C110.113 171.486 109.937 171.72 109.704 171.895C109.47 172.09 109.198 172.207 108.886 172.285C108.731 172.324 108.594 172.343 108.439 172.343ZM108.263 167.981C108.147 167.981 108.049 167.981 107.933 168.02C107.699 168.078 107.504 168.176 107.329 168.312C107.154 168.448 106.998 168.643 106.881 168.838C106.765 169.033 106.687 169.266 106.648 169.519C106.609 169.773 106.609 170.026 106.667 170.298C106.726 170.571 106.823 170.805 106.979 171.019C107.115 171.233 107.29 171.409 107.485 171.545C107.68 171.681 107.894 171.779 108.108 171.837C108.322 171.895 108.555 171.895 108.789 171.837C109.023 171.779 109.217 171.681 109.392 171.545C109.568 171.409 109.723 171.214 109.84 171.019C109.957 170.805 110.035 170.571 110.074 170.337C110.113 170.084 110.113 169.831 110.054 169.558C109.996 169.286 109.898 169.052 109.743 168.857C109.606 168.643 109.431 168.468 109.237 168.332C109.042 168.195 108.828 168.098 108.614 168.039C108.497 168.02 108.38 168 108.283 168L108.263 167.981Z" fill="#1D1D1B"/>
<path d="M132.983 168.974L129.226 169.831L125.217 165.527L126.346 170.474L123.329 171.155L120.409 158.263L125.1 157.192C125.742 157.036 126.326 157.017 126.871 157.114C127.397 157.212 127.864 157.406 128.253 157.698C128.642 157.991 128.973 158.361 129.246 158.808C129.518 159.256 129.713 159.743 129.83 160.289C130.044 161.262 130.024 162.119 129.732 162.82C129.44 163.521 128.915 164.086 128.136 164.495L132.983 168.955V168.974ZM124.73 163.346L125.295 163.21C125.898 163.073 126.307 162.84 126.579 162.489C126.832 162.139 126.91 161.71 126.793 161.204C126.676 160.697 126.423 160.327 126.054 160.133C125.664 159.938 125.178 159.899 124.594 160.035L124.029 160.172L124.75 163.346H124.73Z" fill="#D7121B"/>
<path d="M123.153 171.447L120.117 158.088L125.041 156.958C125.723 156.803 126.346 156.783 126.91 156.881C127.474 156.997 127.981 157.212 128.389 157.523C128.818 157.835 129.168 158.224 129.44 158.692C129.713 159.159 129.927 159.685 130.063 160.25C130.297 161.282 130.258 162.178 129.946 162.918C129.674 163.58 129.207 164.125 128.526 164.534L133.469 169.072L129.129 170.065L125.645 166.326L126.618 170.63L123.134 171.428L123.153 171.447ZM120.701 158.458L123.523 170.863L126.054 170.279L124.788 164.67L129.304 169.539L132.457 168.818L127.708 164.437L128.019 164.281C128.759 163.891 129.246 163.404 129.499 162.742C129.771 162.08 129.791 161.282 129.577 160.366C129.46 159.841 129.265 159.373 129.012 158.945C128.759 158.536 128.448 158.185 128.078 157.913C127.708 157.64 127.28 157.465 126.793 157.367C126.307 157.27 125.742 157.29 125.139 157.426L120.682 158.439L120.701 158.458ZM124.555 163.638L123.718 159.977L124.516 159.802C125.158 159.665 125.723 159.704 126.151 159.919C126.599 160.152 126.891 160.561 127.027 161.145C127.163 161.73 127.066 162.236 126.774 162.626C126.482 163.015 126.015 163.288 125.353 163.443L124.555 163.619V163.638ZM124.302 160.366L124.925 163.073L125.256 162.996C125.781 162.879 126.17 162.664 126.385 162.372C126.599 162.08 126.657 161.73 126.56 161.282C126.462 160.834 126.248 160.542 125.937 160.366C125.606 160.191 125.178 160.172 124.652 160.289L124.321 160.366H124.302Z" fill="#1D1D1B"/>
<path d="M135.435 154.894L136.973 161.905C137.051 162.275 137.148 162.664 137.265 163.054C137.382 163.443 137.537 163.774 137.732 164.067C137.927 164.359 138.199 164.573 138.511 164.709C138.822 164.846 139.25 164.865 139.756 164.748C140.262 164.631 140.632 164.456 140.846 164.183C141.06 163.911 141.216 163.619 141.274 163.268C141.333 162.918 141.333 162.548 141.274 162.139C141.216 161.73 141.138 161.36 141.06 160.97L139.523 153.959L142.52 153.297L144.155 160.775C144.603 162.781 144.505 164.339 143.883 165.449C143.26 166.559 142.092 167.299 140.379 167.669C138.666 168.039 137.284 167.864 136.253 167.124C135.221 166.384 134.481 165.001 134.034 162.995L132.399 155.517L135.416 154.855L135.435 154.894Z" fill="#D7121B"/>
<path d="M138.783 168.137C137.751 168.137 136.856 167.884 136.136 167.358C135.046 166.579 134.287 165.138 133.82 163.093L132.126 155.381L135.61 154.622L137.206 161.886C137.284 162.256 137.382 162.626 137.498 163.015C137.596 163.385 137.751 163.697 137.927 163.969C138.102 164.222 138.316 164.398 138.608 164.534C138.88 164.651 139.25 164.651 139.698 164.554C140.146 164.456 140.476 164.3 140.671 164.067C140.866 163.833 141.002 163.58 141.06 163.268C141.119 162.937 141.119 162.587 141.06 162.236C141.002 161.847 140.924 161.457 140.846 161.087L139.25 153.823L142.734 153.064L144.428 160.775C144.875 162.84 144.778 164.456 144.136 165.625C143.474 166.793 142.248 167.572 140.476 167.962C139.893 168.098 139.328 168.156 138.803 168.156L138.783 168.137ZM132.71 155.732L134.306 162.976C134.735 164.924 135.435 166.248 136.428 166.949C137.401 167.65 138.725 167.825 140.36 167.455C141.995 167.085 143.124 166.384 143.707 165.352C144.291 164.3 144.389 162.801 143.961 160.853L142.364 153.609L139.834 154.174L141.333 160.951C141.411 161.34 141.489 161.73 141.547 162.139C141.605 162.567 141.605 162.957 141.547 163.346C141.469 163.736 141.313 164.086 141.06 164.378C140.807 164.67 140.379 164.885 139.834 165.001C139.289 165.118 138.822 165.099 138.452 164.943C138.082 164.787 137.79 164.534 137.576 164.203C137.362 163.891 137.206 163.521 137.07 163.112C136.953 162.723 136.856 162.333 136.778 161.944L135.28 155.167L132.73 155.732H132.71Z" fill="#1D1D1B"/>
<path d="M153.128 157.075L159.142 155.868C159.279 156.55 159.376 157.192 159.434 157.757C159.493 158.322 159.493 158.867 159.434 159.373C159.357 160.094 159.181 160.756 158.909 161.34C158.636 161.944 158.286 162.45 157.858 162.918C157.43 163.385 156.924 163.736 156.379 164.047C155.814 164.359 155.211 164.573 154.549 164.709C153.634 164.885 152.778 164.885 151.96 164.709C151.143 164.534 150.403 164.184 149.761 163.697C149.099 163.21 148.535 162.567 148.067 161.788C147.6 161.009 147.269 160.113 147.055 159.081C146.861 158.069 146.822 157.114 146.938 156.219C147.055 155.323 147.328 154.524 147.756 153.804C148.184 153.083 148.729 152.499 149.43 152.012C150.131 151.525 150.948 151.194 151.882 150.999C153.089 150.746 154.218 150.824 155.25 151.233C156.281 151.642 157.196 152.402 157.975 153.512L155.366 155.42C154.958 154.758 154.51 154.33 154.023 154.096C153.537 153.882 153.011 153.823 152.466 153.921C152.019 154.018 151.61 154.193 151.279 154.446C150.948 154.719 150.676 155.05 150.5 155.44C150.306 155.849 150.189 156.296 150.131 156.822C150.072 157.348 150.131 157.913 150.228 158.517C150.345 159.062 150.5 159.568 150.734 160.016C150.968 160.464 151.24 160.834 151.551 161.126C151.882 161.418 152.252 161.613 152.661 161.73C153.089 161.847 153.537 161.847 154.043 161.73C154.335 161.671 154.627 161.574 154.88 161.438C155.133 161.301 155.366 161.146 155.561 160.931C155.756 160.717 155.892 160.464 155.989 160.172C156.087 159.88 156.106 159.549 156.087 159.159L153.595 159.666L153.07 157.056L153.128 157.075Z" fill="#D7121B"/>
<path d="M153.245 165.099C152.797 165.099 152.35 165.06 151.941 164.963C151.104 164.768 150.325 164.417 149.644 163.911C148.963 163.405 148.379 162.723 147.892 161.925C147.406 161.126 147.055 160.191 146.861 159.14C146.647 158.108 146.608 157.114 146.744 156.199C146.88 155.264 147.153 154.427 147.6 153.706C148.048 152.966 148.632 152.343 149.352 151.856C150.072 151.35 150.929 150.999 151.902 150.805C153.167 150.551 154.335 150.629 155.405 151.058C156.476 151.467 157.43 152.265 158.247 153.414L158.383 153.609L155.367 155.81L155.23 155.595C154.841 154.992 154.432 154.563 153.985 154.368C153.537 154.174 153.07 154.115 152.583 154.213C152.155 154.291 151.805 154.446 151.513 154.7C151.201 154.933 150.968 155.245 150.792 155.615C150.617 155.985 150.5 156.433 150.442 156.92C150.403 157.406 150.442 157.952 150.539 158.536C150.637 159.062 150.812 159.549 151.026 159.958C151.24 160.367 151.493 160.717 151.805 160.99C152.097 161.262 152.447 161.438 152.817 161.535C153.206 161.632 153.634 161.632 154.082 161.535C154.354 161.477 154.627 161.399 154.86 161.262C155.094 161.146 155.289 160.99 155.464 160.815C155.62 160.639 155.756 160.406 155.834 160.152C155.892 159.958 155.931 159.743 155.931 159.49L153.478 159.977L152.856 156.881L159.337 155.576L159.376 155.81C159.512 156.511 159.61 157.153 159.688 157.718C159.746 158.302 159.746 158.867 159.688 159.393C159.61 160.133 159.415 160.815 159.143 161.438C158.87 162.061 158.5 162.606 158.053 163.074C157.605 163.541 157.079 163.93 156.515 164.242C155.95 164.554 155.289 164.787 154.607 164.924C154.14 165.021 153.673 165.06 153.225 165.06L153.245 165.099ZM153.245 151.116C152.817 151.116 152.388 151.155 151.96 151.253C151.065 151.428 150.267 151.759 149.605 152.226C148.943 152.694 148.398 153.258 147.99 153.94C147.581 154.622 147.328 155.401 147.211 156.257C147.094 157.134 147.133 158.069 147.328 159.042C147.522 160.036 147.853 160.912 148.301 161.671C148.749 162.411 149.294 163.035 149.917 163.521C150.539 163.989 151.26 164.32 152.038 164.495C152.817 164.67 153.654 164.67 154.51 164.495C155.133 164.378 155.736 164.164 156.281 163.872C156.826 163.58 157.293 163.21 157.702 162.781C158.111 162.353 158.442 161.847 158.695 161.282C158.948 160.717 159.123 160.074 159.201 159.373C159.259 158.887 159.259 158.361 159.201 157.796C159.143 157.309 159.065 156.764 158.948 156.16L153.42 157.27L153.848 159.412L156.379 158.906V159.179C156.418 159.588 156.379 159.958 156.281 160.289C156.184 160.62 156.028 160.892 155.814 161.126C155.6 161.36 155.347 161.555 155.055 161.691C154.783 161.827 154.471 161.925 154.16 162.002C153.615 162.119 153.109 162.1 152.661 161.983C152.213 161.866 151.805 161.632 151.435 161.321C151.084 161.009 150.792 160.62 150.559 160.152C150.325 159.685 150.15 159.179 150.033 158.594C149.917 157.971 149.878 157.368 149.917 156.822C149.975 156.277 150.092 155.771 150.306 155.362C150.52 154.933 150.792 154.563 151.162 154.271C151.532 153.979 151.96 153.784 152.447 153.687C153.05 153.57 153.615 153.628 154.14 153.882C154.607 154.096 155.055 154.505 155.444 155.07L157.644 153.453C156.924 152.479 156.087 151.817 155.172 151.467C154.568 151.233 153.907 151.116 153.225 151.116H153.245Z" fill="#1D1D1B"/>
<path d="M161.4 149.558L165.935 148.799C167.006 148.624 167.882 148.76 168.544 149.247C169.205 149.734 169.614 150.513 169.809 151.603C169.926 152.265 169.906 152.83 169.77 153.297C169.634 153.765 169.361 154.193 168.991 154.563C169.439 154.563 169.828 154.661 170.179 154.797C170.509 154.933 170.801 155.128 171.035 155.362C171.269 155.615 171.463 155.888 171.599 156.219C171.736 156.55 171.852 156.92 171.911 157.309C172.008 157.913 172.008 158.478 171.911 158.984C171.814 159.49 171.599 159.938 171.307 160.308C171.016 160.698 170.626 161.009 170.159 161.243C169.692 161.477 169.147 161.671 168.524 161.769L163.619 162.587L161.42 149.558H161.4ZM165.313 154.154L165.877 154.057C166.831 153.901 167.239 153.395 167.103 152.557C166.967 151.72 166.422 151.369 165.468 151.545L164.904 151.642L165.332 154.174L165.313 154.154ZM166.208 159.432L166.87 159.315C167.629 159.179 168.174 158.984 168.466 158.711C168.758 158.439 168.874 158.049 168.777 157.582C168.699 157.095 168.466 156.783 168.096 156.608C167.726 156.452 167.162 156.433 166.383 156.55L165.721 156.666L166.188 159.432H166.208Z" fill="#D7121B"/>
<path d="M163.405 162.859L161.128 149.344L165.916 148.546C167.064 148.351 167.999 148.526 168.699 149.032C169.4 149.558 169.867 150.396 170.062 151.545C170.179 152.226 170.159 152.849 170.003 153.336C169.906 153.687 169.731 154.018 169.478 154.33C169.75 154.368 170.023 154.446 170.256 154.544C170.626 154.7 170.938 154.914 171.21 155.167C171.463 155.44 171.677 155.751 171.833 156.102C171.989 156.452 172.086 156.842 172.164 157.251C172.281 157.893 172.261 158.478 172.164 159.023C172.047 159.568 171.833 160.036 171.522 160.444C171.21 160.853 170.801 161.185 170.295 161.457C169.809 161.71 169.225 161.905 168.583 162.002L163.444 162.859H163.405ZM161.673 149.753L163.794 162.295L168.446 161.516C169.05 161.418 169.575 161.243 170.023 161.009C170.451 160.776 170.821 160.483 171.093 160.133C171.366 159.782 171.561 159.373 171.658 158.906C171.755 158.439 171.775 157.893 171.658 157.329C171.599 156.959 171.502 156.608 171.366 156.296C171.23 155.985 171.055 155.732 170.84 155.498C170.626 155.284 170.354 155.109 170.062 154.972C169.75 154.836 169.381 154.777 168.952 154.758H168.388L168.797 154.349C169.147 153.998 169.4 153.609 169.517 153.2C169.653 152.772 169.653 152.246 169.556 151.623C169.381 150.61 168.991 149.87 168.388 149.422C167.785 148.974 166.987 148.838 165.974 149.013L161.673 149.734V149.753ZM165.994 159.724L165.449 156.472L166.364 156.316C167.181 156.18 167.785 156.199 168.213 156.374C168.66 156.569 168.933 156.959 169.03 157.523C169.128 158.088 168.991 158.555 168.641 158.887C168.31 159.198 167.746 159.412 166.928 159.549L166.013 159.704L165.994 159.724ZM166.013 156.881L166.403 159.159L166.831 159.081C167.551 158.964 168.038 158.77 168.291 158.536C168.524 158.322 168.602 158.01 168.544 157.621C168.466 157.212 168.31 156.959 168.018 156.842C167.687 156.705 167.162 156.686 166.461 156.803L166.033 156.881H166.013ZM165.118 154.427L164.612 151.428L165.41 151.292C166.792 151.058 167.22 151.817 167.337 152.518C167.454 153.2 167.298 154.076 165.916 154.31L165.118 154.446V154.427ZM165.157 151.837L165.507 153.882L165.819 153.823C166.636 153.687 166.948 153.297 166.831 152.596C166.714 151.895 166.286 151.642 165.468 151.778L165.157 151.837Z" fill="#1D1D1B"/>
<path d="M176.738 154.096L171.6 147.805L175.259 147.358L177.887 150.668L179.638 146.812L183.298 146.364L179.794 153.706L180.553 159.996L177.478 160.366L176.719 154.076L176.738 154.096Z" fill="#D7121B"/>
<path d="M177.283 160.678L176.505 154.213L171.132 147.63L175.376 147.124L177.828 150.24L179.463 146.637L183.706 146.131L180.047 153.804L180.826 160.269L177.283 160.698V160.678ZM172.086 147.981L176.972 153.998L177.711 160.133L180.3 159.821L179.56 153.687L182.889 146.676L179.794 147.046L177.945 151.136L175.162 147.611L172.067 147.981H172.086Z" fill="#1D1D1B"/>
<defs>
<linearGradient id="paint0_linear_1000_29906" x1="86.3859" y1="113.55" x2="94.8722" y2="113.55" gradientUnits="userSpaceOnUse">
<stop offset="0.05" stop-color="#D18D25"/>
<stop offset="0.51" stop-color="#E3B850"/>
<stop offset="1" stop-color="#F0CD6A"/>
</linearGradient>
<linearGradient id="paint1_linear_1000_29906" x1="86.9308" y1="111.719" x2="127.611" y2="111.719" gradientUnits="userSpaceOnUse">
<stop stop-color="#F0CD6A"/>
<stop offset="0.13" stop-color="#D18D25"/>
<stop offset="0.29" stop-color="#F0CD6A"/>
<stop offset="0.59" stop-color="#E3B850"/>
<stop offset="0.87" stop-color="#FFF2D1"/>
<stop offset="1" stop-color="#EFCD69"/>
</linearGradient>
<linearGradient id="paint2_linear_1000_29906" x1="57.248" y1="106.714" x2="98.4925" y2="106.714" gradientUnits="userSpaceOnUse">
<stop stop-color="#F0CD6A"/>
<stop offset="0.13" stop-color="#D18D25"/>
<stop offset="0.29" stop-color="#F0CD6A"/>
<stop offset="0.59" stop-color="#E3B850"/>
<stop offset="0.87" stop-color="#FFF2D1"/>
<stop offset="1" stop-color="#EFCD69"/>
</linearGradient>
</defs>
</svg>
