<svg width="256" height="256" viewBox="0 0 256 256" fill="none" xmlns="http://www.w3.org/2000/svg">
<path d="M24.0536 109.162C24.0536 73.5289 24.051 37.8958 24.0562 2.26262C24.0562 0.274099 23.839 0.527513 25.7551 0.527513C93.833 0.522342 161.911 0.522342 229.991 0.527513C231.972 0.527513 231.703 0.338746 231.703 2.25487C231.708 72.7893 231.693 143.324 231.739 213.858C231.742 218.195 230.16 221.911 227.982 225.42C223.726 232.28 217.158 236.089 209.654 238.279C205.775 239.409 201.707 239.916 197.704 240.578C193.901 241.206 190.074 241.695 186.252 242.197C183.487 242.559 180.708 242.791 177.946 243.169C174.346 243.66 170.76 244.25 167.165 244.777C163.902 245.256 160.628 245.654 157.375 246.187C149.892 247.412 142.401 248.641 135.37 251.687C133.544 252.478 131.824 253.406 130.542 255.012C130.296 255.317 129.758 255.46 129.332 255.535C128.83 255.622 128.3 255.532 127.785 255.558C126.441 255.63 125.396 255.431 124.305 254.283C123.115 253.031 121.401 252.077 119.738 251.519C115.642 250.138 111.494 248.829 107.274 247.911C101.761 246.712 96.1681 245.853 90.5904 244.964C86.9934 244.39 83.3577 244.051 79.7453 243.559C75.9699 243.047 72.2023 242.453 68.427 241.943C65.8359 241.592 63.2346 241.297 60.6358 241.018C52.2343 240.115 43.9699 238.742 36.6183 234.168C30.9036 230.612 26.774 225.769 24.7725 219.281C24.3407 217.882 24.0872 216.364 24.0847 214.903C24.0485 179.655 24.0536 144.407 24.0536 109.162Z" fill="black"/>
<path d="M127.933 251.568C125.179 247.733 121.041 246.419 116.984 245.3C111.745 243.852 106.393 242.75 101.035 241.809C94.2727 240.622 87.4615 239.701 80.6633 238.747C75.1322 237.971 69.5751 237.384 64.0517 236.578C58.9162 235.828 53.7264 235.21 48.7021 233.966C41.2729 232.125 34.8729 228.497 30.9683 221.497C29.4995 218.862 28.7263 216.051 28.7289 213.005C28.7418 164.624 28.7341 116.242 28.7289 67.8607C28.7289 67.0487 28.7289 66.2368 28.7289 65.4222C28.8505 65.3369 28.972 65.2516 29.0935 65.1662C89.5587 120.977 150.024 176.79 210.704 232.8C209.372 233.255 208.288 233.785 207.148 233.984C202.672 234.773 198.183 235.494 193.689 236.172C189.823 236.753 185.941 237.253 182.065 237.762C178.274 238.261 174.473 238.695 170.687 239.223C167.072 239.727 163.465 240.291 159.863 240.878C155.583 241.576 151.291 242.233 147.04 243.086C142.155 244.066 137.356 245.385 132.799 247.474C130.842 248.374 129.153 249.569 127.935 251.568H127.933Z" fill="#F9F800"/>
<path d="M45.8731 52.1775C47.7582 52.1775 49.6433 52.1775 51.5284 52.1775C109.439 52.1775 167.349 52.1826 225.262 52.1516C226.55 52.1516 226.927 52.4567 226.927 53.7936C226.888 106.535 226.888 159.273 226.886 212.015C226.886 212.79 226.917 213.566 226.868 214.339C226.842 214.745 226.682 215.143 226.581 215.544C226.224 215.348 225.815 215.211 225.521 214.947C222.668 212.389 219.837 209.809 216.995 207.238C208.027 199.121 199.062 190.999 190.086 182.893C179.133 172.999 168.164 163.124 157.212 153.228C147.534 144.485 137.875 135.721 128.197 126.979C118.906 118.582 109.594 110.207 100.3 101.813C89.6957 92.2324 79.0988 82.6415 68.4994 73.0557C61.1271 66.3893 53.7574 59.7204 46.3826 53.0592C46.1653 52.8627 45.8887 52.736 45.6404 52.5757C45.718 52.4438 45.7956 52.3119 45.8731 52.18V52.1775Z" fill="#F9F800"/>
<path d="M80.2185 207.531C80.4176 207.575 80.6115 207.644 80.8132 207.663C84.842 208.025 88.8656 208.42 92.8995 208.731C97.236 209.062 101.575 209.343 105.917 209.589C109.71 209.804 113.514 209.879 117.302 210.166C118.026 210.22 118.696 210.975 119.389 211.407C118.911 212.069 118.569 212.982 117.923 213.336C116.976 213.858 115.813 213.988 114.737 214.269C114.199 214.412 113.628 214.461 113.121 214.675C112.852 214.789 112.544 215.151 112.526 215.418C112.513 215.627 112.88 215.945 113.149 216.069C114.08 216.504 115.027 216.907 115.991 217.256C116.826 217.559 117.134 217.978 116.834 218.906C116.57 219.718 116.651 220.646 116.356 221.443C116.141 222.022 115.567 222.472 115.146 222.973C114.905 223.26 114.383 223.612 114.44 223.801C114.815 225.052 113.855 225.239 113.124 225.422C112.019 225.696 110.869 225.779 109.604 225.96C109.889 226.299 110.222 226.539 110.305 226.847C110.372 227.093 110.199 227.615 110.015 227.677C109.211 227.956 108.322 228.008 107.543 228.334C106.002 228.978 104.507 229.741 103.002 230.47C102.62 230.653 102.286 231.005 101.891 231.088C100.117 231.455 98.2393 231.522 96.5715 232.148C95.1725 232.676 94.3735 231.44 93.1995 231.566C92.3927 231.652 91.5678 231.577 90.7533 231.577C90.0215 231.577 89.2923 231.587 88.5605 231.577C87.5908 231.566 86.6185 231.54 85.6488 231.522C85.5221 231.522 85.3824 231.569 85.2687 231.533C83.8801 231.075 82.5121 230.542 81.1003 230.165C80.4202 229.984 79.6496 229.989 78.9437 230.085C76.7948 230.372 74.8606 229.735 73.2625 228.448C71.9955 227.426 70.5655 227.918 69.2751 227.491C68.2511 227.155 67.2685 226.692 66.2704 226.281C66.2393 226.268 66.2005 226.203 66.2083 226.175C66.8108 223.917 64.7137 224.781 63.8836 224.264C63.1854 223.829 62.4588 223.674 62.7019 222.617C62.7303 222.495 62.3269 222.167 62.0839 222.11C60.9849 221.851 59.7721 222.464 58.7274 221.642C57.8741 220.972 57.9077 220.465 58.8877 220.002C59.0429 219.93 59.2135 219.87 59.3403 219.762C59.6169 219.526 59.8729 219.263 60.1367 219.012C59.8083 218.769 59.5058 218.365 59.1515 218.314C58.1689 218.171 57.1655 218.169 56.17 218.128C56.051 218.122 55.8907 218.28 55.8106 218.241C55.2598 217.967 54.7245 217.659 54.1815 217.362C54.5228 217.034 54.8253 216.646 55.2132 216.387C56.1622 215.754 57.1164 215.11 58.1352 214.606C59.0455 214.156 60.0333 213.848 61.0081 213.545C61.9106 213.266 61.8382 213.002 61.3857 212.198C60.4418 210.512 59.0765 210.186 57.3155 210.16C55.0555 210.127 52.798 209.84 50.5432 209.633C48.2418 209.421 45.9378 209.224 43.6493 208.899C43.1683 208.831 42.3951 208.226 42.4055 207.89C42.4236 207.298 42.8037 206.393 43.2769 206.194C45.5292 205.245 46.4135 203.362 47.2565 201.281C47.9677 199.52 49.0666 197.922 49.9096 196.21C50.7526 194.503 51.4456 192.721 52.286 191.012C53.1678 189.218 54.1634 187.48 55.071 185.698C55.4537 184.948 55.6968 184.129 56.0691 183.374C57.1811 181.121 58.3214 178.882 59.4592 176.643C60.8763 173.852 62.3114 171.07 63.7181 168.275C64.9128 165.901 66.0738 163.509 67.2582 161.127C68.4244 158.787 69.6449 156.473 70.762 154.109C71.7679 151.981 72.7272 149.825 73.5806 147.629C73.8624 146.905 73.865 146.011 73.7693 145.219C73.6504 144.237 72.2514 143.766 71.2895 144.226C68.5097 145.553 65.567 145.992 62.5545 145.455C61.6908 145.299 60.8788 144.588 60.1548 143.996C59.5161 143.476 60.1031 143.138 60.5298 142.822C60.8556 142.579 61.1478 142.289 61.4555 142.018C61.1452 141.834 60.853 141.617 60.5246 141.472C59.7669 141.136 59.648 140.733 60.2738 140.13C61.3753 139.067 62.6036 138.734 64.1681 138.879C66.1126 139.057 68.0158 138.824 69.8931 137.878C71.1059 137.265 72.704 137.41 74.1314 137.234C74.5115 137.188 74.9795 137.063 75.264 137.224C75.7734 137.511 76.4664 137.932 76.5569 138.4C76.7121 139.202 76.4173 140.081 76.3914 140.932C76.3293 142.895 76.756 144.663 77.8912 146.38C79.3574 148.591 80.4667 151.037 81.77 153.36C82.419 154.518 83.2 155.601 83.8516 156.757C84.9506 158.702 85.9694 160.693 87.0736 162.635C87.6011 163.563 88.2864 164.401 88.8346 165.319C90.2697 167.732 91.6428 170.186 93.0909 172.591C94.3528 174.68 95.6716 176.736 96.9929 178.789C97.9368 180.258 98.9789 181.667 99.8762 183.164C100.898 184.868 101.764 186.665 102.772 188.375C103.489 189.587 104.396 190.686 105.097 191.907C106.305 194.009 107.339 196.212 108.593 198.286C109.41 199.636 110.403 200.908 111.492 202.049C111.867 202.442 112.767 202.31 113.416 202.473C113.835 202.576 114.36 202.674 114.592 202.969C114.781 203.21 114.763 203.885 114.556 204.099C114.31 204.355 113.767 204.332 113.351 204.415C112.699 204.544 112.048 204.741 111.388 204.772C109.583 204.857 107.768 204.792 105.968 204.929C102.573 205.188 99.1858 205.553 95.7905 205.855C95.0044 205.925 94.2131 205.904 93.427 205.971C91.9014 206.103 90.3809 206.3 88.8552 206.408C87.1331 206.533 85.4031 206.543 83.6809 206.688C82.5018 206.786 81.3356 207.026 80.1642 207.202C80.1823 207.313 80.2004 207.422 80.2185 207.533V207.531ZM76.1794 197.353C76.2078 197.353 76.2337 197.353 76.2621 197.353C76.2621 199.326 76.2828 201.301 76.2518 203.274C76.2388 204.107 76.694 204.324 77.3844 204.311C79.0471 204.283 80.7124 204.283 82.3751 204.192C84.1205 204.097 85.8608 203.903 87.6063 203.771C89.7706 203.605 91.9324 203.411 94.102 203.311C98.4178 203.109 102.739 202.972 107.055 202.768C107.466 202.747 108.161 202.481 108.203 202.237C108.275 201.816 107.998 201.294 107.763 200.872C107.388 200.202 106.892 199.602 106.504 198.938C104.461 195.431 102.465 191.897 100.393 188.406C98.9298 185.939 97.342 183.547 95.8733 181.083C94.8001 179.283 93.8822 177.39 92.7935 175.6C90.4326 171.727 88.0019 167.895 85.6074 164.044C85.4264 163.752 85.3075 163.424 85.142 163.124C83.9344 160.957 82.7371 158.787 81.5088 156.633C80.1176 154.19 78.7058 151.756 77.2784 149.333C77.0818 149 76.7379 148.757 76.4612 148.47C76.3397 148.855 76.1173 149.24 76.1147 149.626C76.0915 152.416 76.1096 155.206 76.1199 157.999C76.1406 165.055 76.1716 172.11 76.1845 179.166C76.1949 185.228 76.1845 191.289 76.1845 197.35L76.1794 197.353ZM67.8865 167.742C67.7831 167.698 67.6797 167.654 67.5762 167.608C67.3331 167.915 67.0435 168.197 66.8573 168.536C66.079 169.935 65.2903 171.331 64.5818 172.766C63.126 175.717 61.7296 178.696 60.2841 181.651C59.635 182.978 58.9834 184.31 58.2413 185.587C57.2173 187.348 56.1053 189.06 55.0322 190.792C54.965 190.901 54.9081 191.02 54.8641 191.139C54.2694 192.74 53.7393 194.369 53.0644 195.933C52.3998 197.474 51.5413 198.93 50.8612 200.466C50.5639 201.136 50.5044 201.909 50.3027 202.775C50.7242 202.69 50.9233 202.643 51.125 202.607C53.2764 202.248 55.4485 201.508 57.5715 201.635C60.0255 201.78 62.4459 202.638 64.8559 203.287C66.1049 203.623 67.0228 203.246 66.8263 202.137C66.6867 201.348 66.5755 200.624 66.5936 199.804C66.6375 198.028 66.4048 196.246 66.291 194.464C66.2704 194.123 66.2781 193.779 66.2755 193.435C66.2574 191.266 66.1747 189.091 66.2393 186.924C66.304 184.791 66.4824 182.66 66.6763 180.537C66.9556 177.504 67.3047 174.478 67.6021 171.45C67.7236 170.217 67.7908 168.978 67.8839 167.742H67.8865ZM72.0498 170.987C71.8455 170.987 71.6386 170.987 71.4343 170.987C69.2803 182.926 69.3449 194.927 70.806 207.166C71.1111 206.84 71.5429 206.584 71.6412 206.235C71.9153 205.247 72.2152 204.223 72.2152 203.212C72.2178 197.81 72.1041 192.406 72.0885 187.004C72.0782 183.482 72.1868 179.958 72.1946 176.436C72.1997 174.618 72.1015 172.803 72.0472 170.985L72.0498 170.987ZM52.8291 205.185C52.8291 205.441 52.8239 205.7 52.8213 205.956H59.7799C59.785 205.803 59.7876 205.651 59.7928 205.498C57.4707 205.395 55.1486 205.289 52.8291 205.185ZM89.7939 218.986C89.7681 219.227 89.7448 219.467 89.7189 219.707C90.9239 219.829 92.1315 219.951 93.3365 220.072L93.4064 219.433L89.7913 218.983L89.7939 218.986ZM83.6344 223.338C83.6551 223.258 83.6758 223.18 83.6965 223.1C83.1198 222.904 82.5509 222.671 81.9614 222.534C81.7881 222.495 81.5528 222.738 81.3459 222.852C81.5321 223.041 81.7028 223.372 81.9045 223.39C82.4759 223.441 83.0578 223.364 83.637 223.338H83.6344ZM62.0916 206.509C62.1175 206.302 62.1407 206.098 62.1666 205.891C61.683 205.852 61.1995 205.806 60.7133 205.79C60.6901 205.79 60.628 206.194 60.6384 206.196C61.1193 206.315 61.6055 206.411 62.0942 206.509H62.0916ZM72.0265 169.48C71.9308 169.304 71.8739 169.2 71.817 169.1C71.7136 169.198 71.5688 169.281 71.5197 169.4C71.4886 169.475 71.6024 169.609 71.6489 169.715C71.7679 169.64 71.8868 169.568 72.0265 169.48ZM90.4973 225.67C90.6809 225.521 90.805 225.42 90.9265 225.321C90.8412 225.254 90.7533 225.127 90.6757 225.133C90.5671 225.14 90.4352 225.226 90.3706 225.319C90.3395 225.363 90.4326 225.497 90.4999 225.67H90.4973Z" fill="black"/>
<path d="M200.324 120.147C200.937 121.781 201.488 122.911 203.207 122.833C203.89 122.802 204.588 123.007 204.544 124.013C204.503 124.949 204.146 125.339 203.163 125.471C200.849 125.781 198.555 126.255 196.236 126.836C197.335 126.917 198.434 127.041 199.533 127.061C200.727 127.085 201.865 126.847 203.016 127.664C204.055 128.401 205.428 127.972 206.675 127.959C207.988 127.946 209.312 128.106 210.61 128.323C210.802 128.354 210.983 129.138 210.947 129.554C210.923 129.826 210.51 130.268 210.251 130.281C208.312 130.374 206.37 130.358 204.43 130.418C202.124 130.488 199.82 130.599 197.513 130.682C196.934 130.702 196.349 130.643 195.773 130.687C194.04 130.821 192.308 131.131 190.58 131.111C188.719 131.088 186.864 130.666 185 130.619C183.777 130.588 182.549 130.938 181.318 131.067C180.956 131.106 180.576 130.976 180.206 130.909C179.583 130.798 178.944 130.733 178.341 130.544C177.824 130.384 177.356 130.069 176.862 129.839C176.418 129.629 175.929 129.489 175.518 129.228C175.001 128.9 174.54 128.481 174.064 128.091C173.845 127.912 173.64 127.545 173.431 127.547C172.257 127.553 171.083 127.641 169.909 127.705C169.718 127.716 169.526 127.747 169.25 128.047C169.648 128.209 170.041 128.383 170.444 128.533C171.305 128.856 172.231 129.068 173.012 129.528C173.431 129.774 173.604 130.436 173.889 130.912C173.281 131.24 172.601 131.936 172.079 131.835C169.438 131.32 166.845 130.576 164.22 129.968C163.788 129.867 163.289 130.058 162.819 130.113C162.888 130.516 162.886 130.95 163.046 131.315C163.351 132.003 162.981 132.313 162.449 132.184C161.347 131.918 160.168 131.667 159.245 131.064C158.218 130.395 157.481 130.079 156.613 131.168C156.382 131.457 155.992 131.623 155.663 131.83C154.784 132.386 154.215 132.093 154.143 131.049C154.011 129.164 153.732 128.946 151.948 129.559C150.818 129.947 149.757 130.555 148.614 130.886C147.653 131.163 146.61 131.323 145.617 131.276C144.469 131.225 144.234 130.563 144.826 129.546C145.255 128.809 144.999 128.228 144.242 128.16C142.349 127.995 140.451 127.85 138.563 127.622C137.679 127.516 136.743 127.379 135.964 126.989C135.437 126.725 134.935 126.032 134.832 125.456C134.783 125.174 135.703 124.76 136.125 124.346C137.268 123.226 138.38 124.525 139.502 124.346C139.815 124.297 140.12 124.191 140.428 124.113C140.252 123.842 140.089 123.56 139.898 123.299C138.817 121.82 137.725 120.348 136.644 118.869C136.445 118.598 136.22 118.316 136.127 118.003C135.99 117.543 135.822 117.018 135.92 116.576C136.037 116.051 136.35 115.508 137.138 115.901C137.231 115.947 137.8 115.451 137.787 115.228C137.705 113.824 137.361 112.42 137.423 111.029C137.469 109.964 138.015 108.924 138.287 107.861C138.403 107.401 138.408 106.907 138.429 106.426C138.436 106.222 138.25 105.932 138.336 105.819C139.768 103.892 139.386 101.448 140.166 99.3021C140.73 97.7506 141.534 96.2922 142.08 94.7278C142.481 93.5719 143.903 92.8065 144.5 91.6739C145.747 89.3155 147.849 88.0692 149.993 86.784C150.334 86.5797 150.629 86.0263 150.66 85.6126C150.797 83.6887 152.698 82.2225 154.596 82.3984C155.258 82.4604 156.152 81.9872 156.644 81.4726C157.792 80.278 159.141 80.3969 160.517 80.5831C163.028 80.9244 165.242 81.9665 167.333 83.4069C168.22 84.0171 169.397 84.2369 170.47 84.5343C171.303 84.7644 172.084 83.7689 171.779 82.8431C171.386 81.6485 170.708 80.7822 169.306 80.5159C168.466 80.3581 167.608 79.8823 166.94 79.329C165.397 78.049 163.861 76.7121 163.599 74.5115C163.53 73.9194 163.056 73.0789 163.292 72.8023C164.117 71.8377 165.084 70.9223 166.162 70.2629C167.683 69.332 169.338 68.6209 170.959 67.8659C171.569 67.5814 172.337 67.5685 172.875 67.2013C173.912 66.4928 174.84 65.6187 175.81 64.812C176.989 63.8319 178.334 63.3432 179.854 63.0898C180.645 62.9579 181.439 62.3399 182.05 61.7503C182.554 61.2667 182.898 60.959 183.573 61.3521C184.191 61.7115 184.604 62.1046 184.31 62.9062C184.209 63.1829 184.273 63.5216 184.261 63.8319C184.581 63.7673 184.922 63.7492 185.22 63.6276C185.533 63.4983 185.791 63.1622 186.102 63.1182C186.394 63.0768 186.968 63.2579 186.996 63.4156C187.258 64.918 187.503 66.4333 187.581 67.9538C187.607 68.4813 187.141 69.0295 186.908 69.5725C186.536 70.4491 186.169 71.3283 185.802 72.2049C185.753 72.3239 185.753 72.5049 185.667 72.5592C184.017 73.6453 185.132 74.8425 185.507 76.0191C185.807 76.9552 185.895 77.8835 185.934 78.8945C185.993 80.4512 186.787 82.0183 187.446 83.5025C188.812 86.5797 191.322 88.7699 193.58 91.1567C194.136 91.7437 194.539 92.4729 195 93.1478C195.91 94.4821 196.911 95.7647 197.689 97.1714C198.966 99.4754 200.195 101.818 201.26 104.226C202.219 106.39 202.961 108.653 203.732 110.895C203.903 111.388 203.701 111.999 203.815 112.524C204.086 113.773 204.743 113.979 205.899 113.558C207.295 113.049 208.26 111.978 208.531 110.757C208.808 109.519 208.469 108.071 208.128 106.788C207.813 105.604 207.189 104.487 206.602 103.396C205.408 101.179 204.234 98.9427 202.881 96.8249C201.555 94.751 199.905 92.8814 198.607 90.7921C197.632 89.2225 196.991 87.446 196.189 85.7678C196.044 85.4626 195.85 85.1808 195.667 84.8963C195.504 84.6455 195.16 84.3947 195.178 84.1697C195.372 81.8424 193.981 79.766 194.159 77.4439C194.309 75.5097 194.464 73.6504 195.002 71.7033C196.109 67.7004 199.401 65.8179 202.02 63.2889C202.739 62.5959 204.141 62.5467 205.255 62.3347C208.128 61.7865 210.928 62.4175 213.701 63.0665C214.319 63.2113 214.838 63.7983 215.386 64.2069C215.591 64.3594 215.71 64.6723 215.924 64.7499C217.913 65.461 218.815 67.1444 219.77 68.8356C220.199 69.5958 220.152 70.0432 219.335 70.3198C218.616 70.5629 218.546 70.7801 218.981 71.499C219.64 72.585 220.176 73.7978 220.481 75.0287C220.628 75.6208 220.165 76.3914 219.883 77.0379C219.816 77.1956 219.338 77.3146 219.113 77.2448C218.068 76.9215 217.049 76.513 216.012 76.1587C214.634 75.6907 213.372 76.4457 212.731 77.8085C211.627 80.159 212.296 82.1372 213.669 84.0921C214.05 84.6326 214.259 85.3204 214.427 85.972C214.815 87.4822 216.442 88.457 216.235 90.2387C216.206 90.4921 216.589 90.7973 216.788 91.0739C216.912 91.2472 217.199 91.4722 217.158 91.5678C216.39 93.396 218.091 94.7898 217.988 96.5275C217.882 98.3273 218.086 100.143 218.065 101.95C218.053 102.925 217.812 103.897 217.747 104.875C217.68 105.904 217.843 106.967 217.647 107.962C217.429 109.077 217.016 110.178 216.519 111.205C215.355 113.623 214.132 116.208 211.896 117.646C209.413 119.239 206.83 121.176 203.471 120.519C202.519 120.333 201.542 120.284 200.314 120.139L200.324 120.147ZM159.873 95.2268C159.4 95.4156 158.909 95.5682 158.467 95.8086C158.249 95.9276 158.037 96.1991 157.996 96.4344C157.975 96.5534 158.324 96.8507 158.523 96.8688C158.767 96.8895 159.147 96.7732 159.258 96.5896C159.519 96.1655 159.653 95.6638 159.84 95.1932C160.01 95.082 160.178 94.9682 160.349 94.857C160.292 94.8027 160.238 94.7484 160.181 94.6967C160.078 94.8726 159.977 95.051 159.873 95.2268ZM171.326 96.5585C171.46 94.9838 171.393 94.87 170.354 94.9941C168.637 95.201 167.034 95.0613 165.658 93.8563C165.5 93.7167 165.156 93.7891 164.9 93.7632C165.014 93.9623 165.104 94.177 165.242 94.3606C165.766 95.0691 166.335 95.7492 166.829 96.4758C167.238 97.0757 167.447 97.8592 167.957 98.3299C169.092 99.3823 169.407 100.753 169.821 102.131C169.958 102.589 170.413 102.951 170.724 103.357C171.468 102.672 172.216 101.986 172.958 101.296C172.965 101.288 172.929 101.208 172.898 101.187C171.735 100.468 171.339 99.4625 171.742 98.1463C171.76 98.0894 171.644 98.004 171.626 97.9239C171.497 97.3446 171.375 96.7654 171.329 96.5585H171.326ZM178.559 119.087C177.496 119.539 176.407 119.93 175.388 120.457C174.077 121.137 172.818 121.918 171.548 122.673C171.161 122.903 170.809 123.193 170.439 123.454C170.879 123.744 171.282 124.132 171.763 124.297C172.347 124.496 172.994 124.54 173.617 124.579C174.031 124.605 174.602 124.651 174.835 124.419C175.236 124.02 175.686 123.395 175.652 122.896C175.575 121.703 177.292 119.966 178.466 120.206C178.781 120.271 179.146 120.173 179.469 120.082C179.554 120.059 179.645 119.671 179.603 119.645C179.296 119.443 178.957 119.291 178.556 119.087H178.559ZM159.607 111.743C160.846 112.089 161.109 111.474 161.151 110.39C161.169 109.927 161.453 109.384 161.787 109.043C162.56 108.252 163.452 107.577 164.264 106.819C164.497 106.602 164.616 106.263 164.786 105.979C164.316 105.769 163.638 105.25 163.411 105.402C162.382 106.087 161.114 106.674 161.184 108.275C161.197 108.588 160.98 109.118 160.745 109.201C159.527 109.627 158.267 109.933 157.029 110.305C156.778 110.38 156.563 110.566 156.331 110.703C156.514 110.907 156.669 111.246 156.889 111.295C157.784 111.494 158.699 111.603 159.607 111.748V111.743ZM169.12 119.399C171.06 118.993 172.241 117.788 173.459 116.661C173.599 116.532 173.622 116.09 173.511 115.916C173.02 115.151 172.479 114.416 171.91 113.705C171.724 113.47 171.342 113.16 171.153 113.219C170.905 113.294 170.677 113.677 170.579 113.972C170.343 114.67 170.191 115.394 170.002 116.105C169.728 117.142 169.449 118.179 169.123 119.399H169.12ZM161.505 113.02C161.275 113.323 160.905 113.726 160.946 113.773C161.2 114.067 161.676 114.554 161.841 114.476C162.607 114.117 163.191 114.484 163.884 114.629C164.254 114.706 164.828 114.005 165.236 113.586C165.386 113.431 165.329 113.072 165.366 112.805C164.869 112.774 164.184 112.521 163.918 112.751C163.181 113.387 162.57 114.01 161.508 113.023L161.505 113.02ZM160.103 116.382C159.007 115.743 158.089 115.927 157.28 116.72C156.876 117.114 156.752 117.38 157.512 117.667C158.86 118.176 159.547 117.613 160.103 116.382ZM157.624 103.279C158.33 103.959 158.971 104.58 159.542 105.131C159.798 104.259 160.023 103.491 160.222 102.811C159.39 102.961 158.604 103.103 157.624 103.279ZM156.183 99.5892C155.573 99.2271 155.214 98.8884 154.815 98.8263C154.565 98.7876 154.252 99.1651 153.965 99.3564C154.355 99.6461 154.714 100.011 155.149 100.184C155.325 100.254 155.666 99.8995 156.183 99.5892ZM161.096 101.366C161.272 101.404 161.451 101.443 161.626 101.482C161.795 101.035 161.965 100.587 162.133 100.14L161.239 100.031C161.192 100.476 161.143 100.921 161.096 101.366ZM166.594 109.873C166.832 109.444 167.072 109.209 167.046 109.004C167.013 108.728 166.78 108.474 166.63 108.21C166.439 108.461 166.149 108.691 166.09 108.968C166.048 109.159 166.328 109.421 166.594 109.871V109.873ZM195.775 122.053C196.106 121.548 196.331 121.272 196.468 120.954C196.51 120.86 196.3 120.659 196.205 120.506C195.969 120.76 195.7 120.992 195.517 121.282C195.457 121.378 195.62 121.616 195.775 122.053ZM146.993 109.108C147.04 109.234 147.086 109.361 147.133 109.488C147.567 109.255 148.002 109.025 148.436 108.792C148.369 108.673 148.302 108.552 148.234 108.433C147.821 108.658 147.404 108.883 146.991 109.108H146.993ZM180.234 67.4909C180.444 67.2504 180.63 67.0979 180.715 66.9013C180.744 66.8367 180.472 66.5341 180.405 66.5548C180.203 66.6169 179.989 66.7565 179.88 66.9298C179.839 66.997 180.066 67.2349 180.234 67.4909ZM153.848 113.149C153.579 113.01 153.437 112.873 153.313 112.886C153.184 112.899 153.072 113.059 152.954 113.155C153.072 113.25 153.186 113.413 153.313 113.426C153.44 113.436 153.582 113.297 153.851 113.149H153.848ZM160.993 84.5524C161.161 84.3921 161.272 84.2861 161.383 84.1826C161.267 84.0895 161.151 83.924 161.037 83.9266C160.908 83.9266 160.778 84.0792 160.649 84.1645C160.747 84.2757 160.843 84.3869 160.99 84.5524H160.993ZM152.284 119.824C152.126 119.976 152.02 120.074 151.917 120.175C151.999 120.245 152.087 120.372 152.165 120.367C152.266 120.359 152.392 120.263 152.442 120.17C152.47 120.118 152.367 119.994 152.284 119.821V119.824ZM181.305 70.2836C181.181 70.1104 181.101 69.9371 181.057 69.9449C180.922 69.9733 180.788 70.0561 180.687 70.1518C180.666 70.1724 180.777 70.4181 180.837 70.4233C180.969 70.431 181.106 70.3509 181.305 70.2836ZM161.639 120.553C161.722 120.4 161.797 120.307 161.818 120.206C161.826 120.173 161.686 120.059 161.639 120.072C161.541 120.098 161.458 120.186 161.368 120.248C161.443 120.33 161.518 120.416 161.639 120.553ZM159.778 92.9926C159.672 92.9228 159.581 92.8427 159.478 92.8039C159.444 92.791 159.369 92.8892 159.315 92.9383C159.403 93.0107 159.485 93.0961 159.584 93.1478C159.61 93.1607 159.692 93.065 159.778 92.9926ZM181.051 68.1684C180.953 68.1167 180.865 68.0546 180.77 68.0314C180.744 68.0262 180.643 68.1813 180.656 68.1994C180.718 68.277 180.808 68.3313 180.891 68.3934C180.935 68.3313 180.979 68.2718 181.051 68.1684ZM153.256 106.416C153.155 106.331 153.054 106.224 153.039 106.235C152.948 106.299 152.881 106.393 152.804 106.475C152.863 106.527 152.946 106.63 152.982 106.618C153.08 106.581 153.158 106.493 153.256 106.416Z" fill="black"/>
<path d="M210.005 221.631C210.005 219.953 210.021 218.275 210 216.597C209.99 215.818 210.243 215.363 211.107 215.397C213.165 215.482 215.239 215.42 217.279 215.653C219.785 215.937 220.768 218.59 219.216 220.569C218.932 220.933 218.28 221.262 219.089 221.768C220.501 222.653 220.825 223.982 220.408 225.479C219.958 227.098 218.645 227.835 217.111 227.943C215.056 228.088 212.984 227.99 210.918 228.006C210.171 228.011 209.982 227.587 209.99 226.925C210.008 225.161 209.995 223.397 209.995 221.634H210.005V221.631ZM214.781 225.929C214.781 225.95 214.784 225.968 214.787 225.989C215.42 225.924 216.072 225.924 216.685 225.776C217.476 225.585 218.086 225.177 218.034 224.189C217.985 223.219 217.38 222.816 216.56 222.717C215.547 222.596 214.515 222.521 213.499 222.578C213.189 222.596 212.759 223.067 212.651 223.413C212.503 223.881 212.617 224.429 212.604 224.941C212.586 225.647 212.935 225.955 213.626 225.934C214.011 225.921 214.396 225.934 214.781 225.934V225.929ZM214.466 220.411C215.154 220.411 215.772 220.589 216.157 220.367C216.674 220.07 217.251 219.511 217.365 218.973C217.512 218.27 217.018 217.683 216.157 217.647C215.56 217.623 214.96 217.564 214.363 217.564C212.599 217.564 212.568 217.652 212.583 219.351C212.602 221.078 213.902 220.186 214.466 220.411Z" fill="#F9F800"/>
<path d="M63.1208 85.7083C63.1208 84.074 63.1493 82.4372 63.1105 80.8029C63.0898 79.8927 63.2475 79.3574 64.3698 79.3755C65.3989 79.3936 65.8023 79.7453 65.6705 80.7434C65.6601 80.8288 65.6627 80.9167 65.6705 81.002C65.748 82.0984 65.8256 83.1948 65.9032 84.2912C67.2272 84.3378 68.5511 84.4283 69.8725 84.3895C70.113 84.3817 70.5086 83.8672 70.5371 83.562C70.625 82.5794 70.6095 81.5838 70.5655 80.596C70.5241 79.691 70.9172 79.3781 71.7912 79.3859C72.598 79.3936 73.0945 79.5488 73.0841 80.5185C73.0531 84.0482 73.0583 87.5753 73.079 91.105C73.0841 91.979 72.5825 92.0721 71.905 92.0462C71.2533 92.0204 70.5577 92.1212 70.5707 91.1205C70.5862 89.9155 70.5448 88.7105 70.5758 87.5055C70.5939 86.7375 70.2966 86.4142 69.5131 86.4504C68.5692 86.4944 67.6202 86.4918 66.6738 86.453C65.8592 86.4194 65.6291 86.8099 65.6524 87.5494C65.6886 88.5812 65.5903 89.6233 65.6886 90.6447C65.7972 91.7618 65.3421 92.023 64.3025 92.0643C63.1001 92.1109 63.1079 91.4541 63.1208 90.6111C63.1467 88.9768 63.1286 87.34 63.1286 85.7057H63.1208V85.7083Z" fill="#F9F800"/>
<path d="M93.3495 113.563C93.3495 111.885 93.3779 110.207 93.3391 108.528C93.3159 107.616 93.5977 107.223 94.5907 107.248C96.9128 107.311 99.2375 107.29 101.56 107.248C102.315 107.236 102.656 107.437 102.666 108.249C102.677 109.09 102.268 109.26 101.549 109.25C100.086 109.227 98.622 109.289 97.161 109.234C96.1215 109.196 95.8293 109.643 95.8423 110.623C95.8552 111.608 96.0802 112.177 97.2153 112.123C98.5471 112.058 99.884 112.125 101.216 112.089C102.053 112.066 102.198 112.511 102.211 113.222C102.227 113.974 101.999 114.341 101.19 114.316C99.9434 114.277 98.6945 114.292 97.4481 114.3C95.9328 114.308 95.9147 114.416 95.8242 116.051C95.7517 117.349 96.3103 117.69 97.492 117.633C98.9091 117.563 100.331 117.646 101.751 117.618C102.522 117.602 102.956 117.796 102.969 118.686C102.982 119.539 102.537 119.705 101.847 119.705C99.3513 119.699 96.8559 119.686 94.3606 119.71C93.5538 119.717 93.321 119.327 93.3314 118.595C93.3521 116.917 93.3391 115.239 93.3391 113.561C93.3417 113.561 93.3469 113.561 93.3495 113.561V113.563Z" fill="#F9F800"/>
<path d="M32.1939 64.5741C33.7687 60.3436 35.2065 56.4467 36.6778 52.5627C37.076 51.5129 38.0406 51.9266 38.8112 51.8439C39.7162 51.7482 40.0084 52.3921 40.2592 53.0411C41.4203 56.0433 42.5581 59.0533 43.7062 62.0606C43.9803 62.7769 44.2544 63.4906 44.5311 64.2095C42.4469 64.8869 41.9297 64.6801 41.2987 62.7278C40.9962 61.7943 40.5075 61.3573 39.5248 61.4762C39.1861 61.5176 38.837 61.4891 38.4931 61.4865C36.1038 61.4684 36.0805 61.4581 35.2039 63.6716C34.5859 65.2335 33.3679 64.1319 32.1939 64.5766V64.5741ZM38.5836 55.4615C38.475 55.4589 38.3638 55.4537 38.2552 55.4512C38.0121 56.0562 37.7665 56.6587 37.526 57.2664C36.6313 59.5394 36.8433 59.8057 39.2688 59.4566C39.3542 59.4437 39.4783 59.4747 39.5171 59.4282C39.6567 59.2601 39.9076 59.0171 39.8636 58.8903C39.468 57.7371 39.018 56.6019 38.5836 55.4615Z" fill="#F9F800"/>
<path d="M204.971 206.639C204.971 207.758 204.978 208.878 204.971 209.998C204.95 212.741 203.569 214.233 200.813 214.344C199.752 214.388 198.64 214.331 197.629 214.05C195.584 213.478 195.098 211.717 195.013 209.892C194.896 207.443 194.93 204.986 194.917 202.532C194.912 201.622 195.548 201.563 196.254 201.544C197.011 201.524 197.523 201.705 197.523 202.587C197.523 204.955 197.505 207.324 197.549 209.692C197.585 211.634 198.369 212.34 200.27 212.281C201.767 212.232 202.486 211.49 202.527 209.747C202.581 207.466 202.566 205.18 202.535 202.899C202.524 202.062 202.587 201.521 203.683 201.544C204.694 201.568 205.069 201.857 204.999 202.892C204.916 204.135 204.978 205.39 204.978 206.639H204.973H204.971Z" fill="#F9F800"/>
<path d="M175.298 182.792C174.383 186.19 171.267 186.991 169.18 186.637C166.322 186.151 164.326 183.661 164.303 180.669C164.282 177.933 164.947 175.51 167.636 174.214C170.289 172.937 173.664 173.915 174.729 176.221C174.907 176.606 174.778 177.134 174.791 177.597C174.103 177.504 173.309 178.321 172.722 177.336C171.936 176.014 170.739 175.572 169.294 175.929C167.874 176.281 167.103 177.294 167.072 178.737C167.046 180.043 167.026 181.385 167.287 182.65C167.538 183.865 168.686 184.545 169.808 184.506C170.677 184.475 171.732 183.958 172.337 183.312C173.633 181.928 173.534 181.835 175.298 182.789V182.792Z" fill="#F9F800"/>
<path d="M137.014 154.924C137.05 149.243 141.78 147.363 145.568 149.049C146.354 149.398 146.949 150.262 147.51 150.983C147.73 151.265 147.606 151.813 147.64 152.24C146.96 152.111 146.192 153.176 145.584 152.103C144.818 150.753 143.611 150.308 142.181 150.613C140.831 150.9 140.159 151.899 139.817 153.22C139.406 154.802 139.468 156.408 140.298 157.712C140.79 158.485 141.958 159.074 142.913 159.248C144.006 159.447 145.028 158.728 145.447 157.629C145.946 156.313 146.716 156.83 147.497 157.171C148.555 157.634 147.79 158.286 147.567 158.751C146.466 161.052 144.41 161.505 142.132 161.301C139.967 161.109 138.437 159.917 137.663 157.908C137.301 156.969 137.226 155.922 137.019 154.921L137.014 154.924Z" fill="#F9F800"/>
<path d="M111.412 128.173C111.412 126.798 111.381 125.419 111.425 124.046C111.451 123.25 111.127 122.95 110.362 123.007C109.935 123.038 109.501 122.991 109.072 123.027C108.239 123.097 107.794 122.875 107.823 121.903C107.851 120.964 108.319 120.907 109.072 120.915C111.52 120.946 113.972 120.915 116.421 120.897C117.116 120.891 117.672 120.91 117.688 121.884C117.703 122.823 117.331 123.04 116.47 123.045C113.757 123.056 113.92 122.528 113.92 125.722C113.92 127.915 113.884 130.107 113.925 132.3C113.941 133.148 113.656 133.454 112.811 133.404C112.048 133.358 111.339 133.454 111.401 132.3C111.476 130.927 111.419 129.549 111.419 128.173H111.412Z" fill="#F9F800"/>
<path d="M52.0275 73.0453C52.0275 71.8403 51.9344 70.6276 52.0507 69.4329C52.1852 68.0624 51.6318 67.6383 50.3648 67.8322C50.07 67.8788 49.7623 67.8219 49.4623 67.84C48.609 67.8917 48.3349 67.4521 48.34 66.6583C48.3452 65.8722 48.7253 65.5955 49.4597 65.6006C52.0404 65.6187 54.6185 65.6394 57.1992 65.611C58.0318 65.6006 58.2284 66.0144 58.2387 66.7229C58.249 67.4625 57.9698 67.8322 57.1863 67.8452C56.3459 67.8581 55.0607 67.6667 54.7685 68.1012C54.3185 68.7709 54.5099 69.8958 54.4996 70.8292C54.4737 72.9807 54.4349 75.1321 54.5099 77.281C54.5435 78.2558 54.0832 78.3334 53.3411 78.2972C52.6584 78.2636 51.9447 78.442 52.0145 77.3017C52.1025 75.8872 52.0352 74.4624 52.0352 73.0427H52.0249L52.0275 73.0453Z" fill="#F9F800"/>
<path d="M79.2617 99.6047C79.2617 97.8825 79.3005 96.1603 79.2436 94.4407C79.21 93.4167 79.7867 93.3573 80.5547 93.3521C81.3304 93.3443 81.8942 93.4271 81.8812 94.433C81.8476 97.1016 81.9071 99.7702 81.8605 102.439C81.8424 103.499 82.2019 103.902 83.2802 103.835C84.524 103.758 85.7755 103.848 87.0219 103.804C87.7563 103.778 88.1416 103.962 88.1571 104.787C88.1726 105.573 87.9011 105.852 87.1124 105.837C84.8317 105.798 82.551 105.795 80.2702 105.824C79.4867 105.834 79.223 105.557 79.2462 104.766C79.298 103.046 79.2617 101.324 79.2617 99.6021V99.6047Z" fill="#F9F800"/>
<path d="M181.036 193.97C181.036 192.207 181.08 190.443 181.02 188.682C180.987 187.658 181.607 187.746 182.275 187.736C182.975 187.726 183.542 187.744 183.524 188.721C183.477 191.214 183.487 193.707 183.498 196.199C183.505 198.116 183.521 198.113 185.383 198.1C186.544 198.092 187.705 198.126 188.863 198.085C189.662 198.056 189.911 198.413 189.908 199.165C189.905 199.877 189.631 200.176 188.92 200.174C186.598 200.161 184.279 200.156 181.957 200.187C181.173 200.197 181.033 199.783 181.041 199.132C181.059 197.412 181.046 195.693 181.046 193.973H181.039L181.036 193.97Z" fill="#F9F800"/>
<path d="M129.001 141.061C129.001 142.737 128.959 144.415 129.014 146.091C129.047 147.068 128.548 147.226 127.741 147.231C126.937 147.236 126.448 147.089 126.461 146.109C126.503 142.67 126.505 139.23 126.461 135.791C126.448 134.845 126.911 134.741 127.656 134.772C128.359 134.801 129.05 134.684 129.016 135.776C128.965 137.537 129.003 139.3 129.001 141.064V141.061Z" fill="#F9F800"/>
<path d="M155.379 169.076C155.035 169.076 154.689 169.051 154.347 169.079C153.538 169.146 153.072 168.978 153.088 167.977C153.104 166.974 153.525 166.692 154.425 166.762C154.981 166.803 155.545 166.783 156.103 166.775C156.925 166.765 157.714 166.599 157.748 167.923C157.784 169.291 156.954 169.071 156.155 169.076C155.896 169.076 155.638 169.076 155.379 169.076Z" fill="#F9F800"/>
<path d="M165.211 23.446C165.159 24.2424 165.104 24.6898 165.102 25.1371C165.097 28.5401 165.068 31.9431 165.128 35.3435C165.146 36.4348 164.877 36.8925 163.695 36.8511C160.74 36.7528 160.977 37.1821 160.98 34.1514C160.985 28.3384 161.009 22.5228 160.965 16.7098C160.954 15.5462 161.314 15.2359 162.493 15.1221C164.561 14.923 165.769 15.6057 166.78 17.4701C168.601 20.8317 170.726 24.0304 172.728 27.2963C172.947 27.6532 173.19 27.9971 173.715 28.3229C173.767 27.904 173.86 27.4825 173.863 27.0636C173.873 23.6192 173.904 20.1723 173.842 16.7279C173.821 15.5927 174.085 15.0807 175.339 15.1376C178.308 15.2747 177.969 14.8221 177.982 17.7752C178.005 23.6322 177.964 29.4891 178.011 35.3461C178.021 36.4658 177.669 36.7994 176.552 36.8692C174.595 36.9959 173.26 36.6261 172.218 34.6272C170.395 31.126 168.145 27.8445 166.064 24.4777C165.896 24.2036 165.653 23.9761 165.208 23.4434L165.211 23.446Z" fill="#F9F800"/>
<path d="M95.5113 28.2841C95.5553 27.3635 95.6354 26.4404 95.6354 25.5198C95.6354 22.5487 95.6458 19.5749 95.5708 16.6064C95.5423 15.4453 95.9923 15.1117 97.0939 15.1531C100.016 15.2643 99.7625 14.7471 99.7392 17.8579C99.6978 23.5856 99.7469 29.3159 99.7728 35.0435C99.7806 36.7347 99.7263 36.6597 98.0972 36.8511C96.0104 37.0941 94.8493 36.3184 93.8512 34.4643C91.9945 31.0225 89.825 27.7488 87.777 24.4105C87.6348 24.1778 87.4176 23.989 86.9728 23.4796C86.9133 24.5217 86.8409 25.2173 86.8383 25.9129C86.8228 29.1012 86.7763 32.2896 86.8513 35.4754C86.8771 36.6106 86.4505 36.8692 85.4316 36.8433C82.4812 36.7657 82.7346 37.1691 82.7372 34.1281C82.7372 28.4418 82.7294 22.7555 82.7242 17.0692C82.7242 15.8004 83.3707 15.1686 84.6636 15.1738C85.0515 15.1738 85.4446 15.2074 85.8247 15.1557C86.7142 15.029 87.234 15.4039 87.6917 16.1694C89.9853 20.0119 92.3359 23.8209 94.6709 27.6376C94.8209 27.8833 94.9967 28.116 95.1596 28.3565C95.2786 28.3332 95.3949 28.31 95.5139 28.2841H95.5113Z" fill="#F9F800"/>
<path d="M119.88 25.1682C121 25.1682 122.122 25.1992 123.239 25.1604C124.139 25.1294 124.47 25.5302 124.46 26.3938C124.434 28.5479 124.504 30.7019 124.408 32.8507C124.385 33.4067 124.039 34.1488 123.596 34.4514C119.436 37.2932 114.954 38.1776 110.178 36.1891C106.819 34.7901 105.182 32.0284 104.52 28.566C104.076 26.2361 104.164 23.9476 104.919 21.6953C106.336 17.4752 109.379 15.2695 113.698 14.8221C116.34 14.548 118.934 14.8738 121.23 16.4124C122.658 17.3692 123.488 18.7604 123.961 20.361C124.026 20.5834 123.661 21.1316 123.395 21.2195C122.503 21.5092 121.569 21.6979 120.638 21.8324C120.385 21.8686 119.948 21.654 119.829 21.429C118.541 19.0345 116.506 18.1372 113.91 18.5458C110.874 19.0242 109.154 21.0334 108.854 23.9321C108.658 25.8405 108.865 27.9169 109.431 29.7503C110.416 32.9593 114.117 34.3686 117.393 33.099C117.83 32.9283 118.262 32.7421 118.675 32.5223C119.999 31.8138 120.488 30.7355 120.012 29.3521C119.917 29.0728 119.405 28.7961 119.066 28.7703C118.081 28.6953 117.088 28.7263 116.097 28.7547C115.373 28.7754 115.138 28.4522 115.115 27.7463C115.029 25.163 115.009 25.1656 117.553 25.1656C118.329 25.1656 119.105 25.1656 119.878 25.1656L119.88 25.1682Z" fill="#F9F800"/>
<path d="M52.5576 21.473C51.456 21.8583 50.8561 21.2842 50.2484 20.074C49.2296 18.0467 45.1362 17.8631 43.6545 19.6215C42.8606 20.5602 43.2485 21.9048 44.6242 22.3858C46.6463 23.0917 48.7383 23.5908 50.7837 24.2321C55.1616 25.6078 57.0208 29.8175 54.9314 33.5981C54.0367 35.2168 52.6998 36.277 50.8716 36.7295C47.6419 37.526 44.4871 37.6165 41.5341 35.8064C39.6412 34.6453 38.7905 32.7758 38.3793 30.6941C38.3302 30.4407 38.8086 30.0839 39.0465 29.7787C39.0646 29.7581 39.1318 29.7813 39.1706 29.771C41.0893 29.2486 42.4081 29.409 43.3856 31.6613C44.4173 34.0428 48.8081 34.2057 50.5846 32.2586C51.7767 30.9527 51.3216 29.0599 49.5554 28.447C47.5747 27.7592 45.5137 27.3093 43.533 26.6266C40.5359 25.5948 39.1189 23.5934 39.1448 20.6688C39.1629 18.4734 40.5773 16.3633 42.646 15.5591C45.5344 14.4368 48.4564 14.442 51.3216 15.5979C53.2403 16.3737 54.4142 17.8941 54.859 19.8956C55.1693 21.2997 54.9883 21.4419 53.5454 21.4678C53.2868 21.473 53.0282 21.4678 52.5524 21.4678L52.5576 21.473Z" fill="#F9F800"/>
<path d="M183.521 25.8586C183.521 22.7581 183.562 19.6551 183.498 16.5572C183.474 15.497 183.764 15.1299 184.866 15.1454C189.215 15.2023 193.567 15.2048 197.916 15.1557C198.99 15.1428 199.463 15.3626 199.411 16.5676C199.29 19.3267 199.716 18.8457 197.058 18.8768C194.387 18.9078 191.716 18.9104 189.047 18.8587C188.126 18.8406 187.754 19.081 187.739 20.0766C187.676 23.7899 187.643 23.7925 191.333 23.7925C193.272 23.7925 195.209 23.808 197.148 23.7614C198.11 23.7382 198.529 24.02 198.519 25.0802C198.501 27.4127 198.555 27.4153 196.261 27.4153C193.849 27.4153 191.436 27.4411 189.026 27.3946C188.111 27.3765 187.671 27.617 187.739 28.6229C187.811 29.7374 187.79 30.8622 187.739 31.9819C187.695 32.918 188.026 33.2774 188.995 33.2645C192.181 33.2205 195.372 33.2903 198.558 33.2283C199.592 33.2076 199.882 33.5205 199.848 34.5445C199.771 36.8252 199.825 36.8226 197.492 36.8226C193.358 36.8226 189.223 36.7942 185.088 36.8485C183.922 36.864 183.5 36.489 183.524 35.2944C183.591 32.1526 183.547 29.0056 183.547 25.8612C183.542 25.8612 183.534 25.8612 183.529 25.8612L183.521 25.8586Z" fill="#F9F800"/>
<path d="M77.1931 36.8278C74.8425 36.7425 75.1502 37.2415 74.2245 34.7203C73.5056 32.7654 72.1007 31.7871 70.0096 31.7854C68.502 31.7854 66.9944 31.8293 65.4921 31.7724C64.6387 31.7388 64.2276 32.1345 63.9948 32.8714C63.8785 33.2386 63.7492 33.6006 63.6147 33.9627C62.4899 37.0114 62.4899 36.9855 59.2627 36.833C58.3292 36.789 58.1663 36.5097 58.5025 35.6616C60.0126 31.8293 61.4814 27.979 62.9631 24.1364C63.9199 21.654 64.9128 19.1845 65.8127 16.6788C66.2135 15.5617 66.7798 15.0859 68.0546 15.1299C70.9224 15.2307 70.9198 15.1531 71.9826 17.8036C74.2995 23.583 76.6268 29.3598 78.9463 35.1392C79.3979 36.2632 78.9868 36.8252 77.7128 36.8252C77.5396 36.8252 77.3689 36.8252 77.1957 36.8252L77.1931 36.8278ZM68.7373 28.2169C69.3838 28.2169 70.0302 28.2298 70.6741 28.2143C71.3542 28.1962 71.6205 27.8549 71.3723 27.1981C70.6431 25.269 69.9113 23.3425 69.1536 21.4264C69.0735 21.2273 68.8097 21.1006 68.6313 20.9403C68.4891 21.1316 68.2977 21.2997 68.215 21.5143C67.7237 22.7995 67.2685 24.0976 66.7798 25.3854C65.6214 28.4444 65.4507 28.2221 68.7347 28.2195L68.7373 28.2169Z" fill="#F9F800"/>
<path d="M146.463 23.5029C146.463 25.7836 146.515 28.0669 146.45 30.345C146.342 34.154 144.239 36.5666 140.425 36.9571C138.452 37.1588 136.378 37.1329 134.441 36.7476C131.455 36.1529 129.57 33.5619 129.487 30.1744C129.373 25.4862 129.433 20.7929 129.42 16.1021C129.42 15.9315 129.425 15.616 129.464 15.6108C130.601 15.4505 131.742 15.2566 132.885 15.2436C133.115 15.2436 133.554 15.947 133.557 16.3323C133.606 20.4205 133.58 24.5088 133.591 28.597C133.598 31.3173 134.447 32.724 136.435 33.4145C139.505 34.4772 142.111 32.9076 142.238 29.6676C142.406 25.4138 142.313 21.1497 142.328 16.8882C142.333 15.1609 142.328 15.148 144.102 15.1686C146.74 15.1997 146.494 14.7109 146.504 17.5631C146.51 19.5439 146.504 21.5221 146.504 23.5029C146.489 23.5029 146.476 23.5029 146.46 23.5029H146.463Z" fill="#F9F800"/>
<path d="M209.03 27.7669C209.03 25.2276 208.999 22.6909 209.046 20.1516C209.064 19.2284 208.824 18.8173 207.82 18.8742C206.535 18.9466 205.24 18.8457 203.949 18.8845C203.078 18.9104 202.643 18.6001 202.713 17.695C202.734 17.439 202.713 17.1778 202.713 16.9218C202.718 15.2048 202.744 15.1764 204.433 15.1738C208.994 15.1686 213.553 15.1997 218.115 15.1428C219.227 15.1298 219.625 15.4169 219.594 16.5857C219.526 19.2827 219.739 18.8044 217.308 18.8845C216.449 18.913 215.583 18.9362 214.727 18.8638C213.576 18.7681 213.145 19.1457 213.16 20.3766C213.225 25.3233 213.147 30.2726 213.217 35.2194C213.235 36.4839 212.834 36.8381 211.609 36.8123C209.02 36.7554 209.023 36.8149 209.03 34.2187C209.038 32.0672 209.03 29.9158 209.03 27.7644H209.025L209.03 27.7669Z" fill="#F9F800"/>
<path d="M151.733 26.0163C151.733 22.8797 151.769 19.7404 151.712 16.6038C151.694 15.5694 151.961 15.148 153.073 15.1531C155.938 15.1635 155.932 15.1169 155.932 18.0079C155.932 23.7692 155.904 29.5279 155.961 35.2866C155.974 36.4916 155.576 36.8692 154.402 36.833C151.736 36.7502 151.741 36.7942 151.749 34.1411C151.756 31.4337 151.749 28.7237 151.749 26.0163C151.743 26.0163 151.738 26.0163 151.733 26.0163Z" fill="#F9F800"/>
</svg>
