<svg width="256" height="256" viewBox="0 0 256 256" fill="none" xmlns="http://www.w3.org/2000/svg">
<path d="M195.234 7.68005H60.699L16.2358 78.8885L127.865 249.061L239.697 79.0232L195.234 7.68005Z" fill="white"/>
<path d="M195.234 7.41052H60.699L16.1685 78.821L127.326 248.185L127.865 248.994L239.764 78.9558L195.234 7.41052ZM146.459 10.8463H170.24V43.1832H146.459V10.8463ZM85.6927 10.8463H109.541V43.1832H85.6927V10.8463ZM84.8842 153.263C84.6821 152.589 84.48 151.848 84.3453 151.175C84.4127 150.771 84.5474 150.366 84.6148 149.962C87.8484 136.96 95.5958 124.429 106.375 114.661C117.356 104.691 129.684 99.5032 140.328 97.4821C143.562 98.021 146.931 98.9642 150.366 100.446C148.547 101.053 146.661 101.726 144.977 102.467C130.291 108.733 118.771 118.232 112.842 125.036C101.794 137.768 96.539 153.735 92.6316 165.389C92.3621 166.131 92.16 166.872 91.8906 167.545C89.3306 163.975 86.5685 159.192 84.8842 153.263ZM150.905 127.663C148.817 130.897 146.661 134.063 144.371 137.162C144.573 136.084 144.438 135.006 144.101 133.996C143.764 132.918 143.225 131.975 142.484 131.032C141.743 130.088 141.002 129.213 140.126 128.472C139.318 127.663 138.375 126.989 137.364 126.316C136.354 125.642 135.343 125.238 134.265 124.968C133.187 124.699 132.11 124.699 131.032 124.968C130.83 125.036 130.627 125.103 130.493 125.171C133.457 122.139 136.488 119.309 139.587 116.682L146.594 123.352C146.863 122.745 147.2 122.206 147.537 121.6C147.874 121.061 148.278 120.522 148.75 120.051C149.086 119.646 149.491 119.309 149.895 119.04C150.299 118.703 150.771 118.501 151.242 118.366C151.714 118.232 152.185 118.164 152.657 118.299C153.128 118.434 153.6 118.636 154.072 119.04C154.678 119.579 155.015 120.253 155.015 120.926C155.015 120.994 155.015 121.061 155.015 121.128C154.543 121.869 154.072 122.678 153.667 123.419C153.331 123.621 152.994 123.756 152.59 123.756C151.983 123.823 151.377 123.621 150.838 123.284L148.682 126.989C149.423 127.259 150.232 127.528 150.905 127.663ZM116.547 153.869C117.288 154.206 118.097 154.341 118.838 154.341C119.646 154.341 120.387 154.139 121.128 153.869C121.87 153.533 122.543 153.061 123.217 152.387C123.352 152.185 123.554 152.051 123.621 151.848C123.756 151.646 123.891 151.444 123.958 151.309L125.777 158.585C122.408 161.819 118.973 164.851 115.402 167.68L105.768 158.787C107.587 155.486 109.743 151.916 112.236 148.143C112.236 148.884 112.438 149.625 112.707 150.366C113.044 151.175 113.583 151.916 114.324 152.589C115.065 153.128 115.806 153.6 116.547 153.869ZM116.345 147.537C116.345 146.728 116.615 145.987 117.221 145.314C117.827 144.64 118.568 144.303 119.377 144.236C120.185 144.236 120.926 144.505 121.6 145.044C122.274 145.651 122.611 146.324 122.611 147.133C122.611 147.941 122.341 148.682 121.735 149.356C121.128 150.029 120.387 150.366 119.579 150.434C118.771 150.434 118.03 150.164 117.356 149.625C116.682 149.086 116.413 148.345 116.345 147.537ZM125.575 143.427C125.238 142.956 124.834 142.484 124.295 142.013C123.554 141.339 122.745 140.867 121.937 140.598C121.061 140.328 120.253 140.261 119.377 140.328C118.703 140.396 118.03 140.531 117.423 140.8C120.387 136.758 123.419 132.985 126.585 129.415C126.518 129.617 126.451 129.819 126.451 130.021C126.248 131.099 126.383 132.177 126.72 133.255C127.057 134.333 127.596 135.276 128.337 136.219C129.078 137.162 129.819 138.038 130.695 138.779C131.503 139.587 132.446 140.261 133.457 140.935C134.467 141.608 135.478 142.013 136.556 142.282C137.634 142.552 138.712 142.552 139.79 142.282C140.194 142.147 140.598 142.013 141.002 141.811C137.297 146.526 133.457 150.973 129.482 155.015L127.663 147.941C127.528 147.402 127.394 146.863 127.192 146.324C127.057 145.785 126.855 145.314 126.585 144.775C126.248 144.371 125.912 143.899 125.575 143.427ZM130.156 131.099C130.088 130.493 130.291 129.886 130.83 129.347C131.301 128.808 131.84 128.539 132.514 128.539C133.12 128.539 133.726 128.674 134.333 129.011C134.939 129.28 135.545 129.684 136.084 130.156C136.623 130.627 137.095 131.032 137.432 131.368C137.836 131.705 138.24 132.109 138.712 132.648C139.183 133.187 139.587 133.726 139.924 134.333C140.261 134.939 140.463 135.545 140.531 136.152C140.598 136.758 140.328 137.364 139.857 137.836C139.385 138.375 138.779 138.644 138.173 138.644C137.566 138.644 136.96 138.509 136.354 138.173C135.747 137.903 135.141 137.499 134.602 137.027C134.063 136.556 133.592 136.152 133.255 135.815C132.851 135.478 132.446 135.074 131.975 134.535C131.503 133.996 131.099 133.457 130.762 132.851C130.425 132.312 130.223 131.773 130.156 131.099ZM154.274 114.324C153.465 114.055 152.724 113.92 151.916 113.987C151.107 114.055 150.366 114.257 149.625 114.661C148.884 115.065 148.143 115.604 147.537 116.278C147.065 116.817 146.728 117.221 146.526 117.625L144.438 115.604L149.558 110.147L148.952 109.608C151.781 107.722 154.678 105.971 157.642 104.354C159.124 105.364 160.674 106.442 162.223 107.655C162.156 107.722 162.156 107.789 162.088 107.924C160.606 110.888 159.057 113.853 157.44 116.682C157.171 116.345 156.834 116.008 156.497 115.672C155.823 115.065 155.082 114.594 154.274 114.324ZM93.5748 165.659C97.4148 154.072 102.67 138.173 113.583 125.642C119.444 118.905 130.83 109.541 145.381 103.276C147.335 102.4 149.491 101.659 151.646 100.985C152.32 101.255 152.926 101.592 153.6 101.928C154.611 102.467 155.688 103.141 156.834 103.815C153.937 105.364 151.107 107.116 148.345 109.002L146.998 107.789L140.059 115.2C131.301 122.408 123.082 131.301 115.537 141.878C115.2 142.147 114.796 142.484 114.526 142.821C113.853 143.562 113.314 144.371 112.91 145.246C112.775 145.583 112.707 145.853 112.573 146.189C109.743 150.434 107.318 154.476 105.229 158.181L102.804 155.891L100.244 158.653L99.9074 166.804H100.716C99.3011 169.701 98.2232 172.059 97.4821 173.676C96.1348 172.396 94.4506 170.644 92.699 168.421C92.9685 167.545 93.2379 166.602 93.5748 165.659ZM101.592 166.804L103.343 166.872L103.411 163.234C103.613 162.897 103.747 162.56 103.95 162.223L112.371 169.971C108.8 172.598 105.162 174.956 101.457 177.112C100.716 176.505 99.9074 175.899 99.2337 175.293C98.8969 175.023 98.4927 174.686 98.0885 174.282C98.8295 172.665 100.042 170.038 101.592 166.804ZM113.044 170.577L114.19 171.655L116.817 168.825L116.143 168.219C126.181 160.269 135.68 150.299 144.438 138.509C146.998 135.006 149.491 131.436 151.848 127.731C152.185 127.731 152.522 127.663 152.792 127.663C154.139 127.394 155.352 126.653 156.497 125.507C157.171 124.766 157.71 123.958 158.114 123.149C158.518 122.341 158.653 121.465 158.72 120.589C158.72 119.714 158.585 118.905 158.181 118.097C158.114 117.962 158.046 117.827 157.979 117.625C159.663 114.594 161.28 111.562 162.829 108.396C162.829 108.328 162.829 108.328 162.897 108.328C164.648 109.743 166.333 111.293 167.882 112.977C166.669 118.232 164.918 124.834 162.964 129.482C156.295 145.718 146.661 155.217 140.867 160.876C130.425 171.116 117.962 177.853 108.665 181.895C106.375 180.615 104.219 179.2 102.265 177.718C105.903 175.562 109.474 173.204 113.044 170.577ZM129.213 182.164C124.766 183.714 120.32 184.724 116.008 185.331C113.785 184.455 111.697 183.512 109.676 182.434C118.973 178.324 131.234 171.587 141.608 161.415C147.402 155.688 157.171 146.189 163.907 129.752C165.794 125.171 167.478 118.838 168.691 113.651C171.655 116.884 174.013 120.522 175.023 124.16C175.158 124.699 175.562 126.114 176.101 127.528C175.832 129.145 175.562 130.762 175.158 132.379C173.608 138.644 171.048 144.775 167.545 150.703C163.773 157.103 158.99 162.897 153.465 167.882C146.526 174.147 138.105 179.133 129.213 182.164ZM170.24 99.2337C167.343 97.1453 163.571 95.5958 159.192 94.7874H170.24V99.2337ZM109.541 108.935C107.924 110.147 106.307 111.495 104.825 112.842C96.4716 120.387 89.9369 129.549 85.6927 139.318V94.6526H109.541V108.935ZM87.1748 181.221C90.9474 185.128 97.3474 187.621 105.364 188.16C106.509 188.227 107.655 188.295 108.867 188.295C108.867 188.295 108.867 188.295 108.935 188.295C109.137 188.295 109.406 188.295 109.608 188.295V215.444L87.1748 181.221ZM146.459 215.04V176.303C149.491 174.282 152.387 172.059 155.082 169.634C161.145 164.109 166.265 157.709 170.24 150.838V178.863L146.459 215.04ZM28.16 91.3516L19.9411 78.821L40.0842 46.5516H215.781L235.992 78.9558L227.84 91.3516H28.16Z" fill="black"/>
<path d="M83.3347 75.3179V75.4526C83.3347 79.8316 79.4947 83.4695 74.7789 83.4695H73.4316C69.2547 83.4695 65.6842 80.7074 65.0105 76.8674L70.0632 76.059C70.3326 77.6084 71.7474 78.6863 73.4316 78.6863H74.7789C76.6653 78.6863 78.2147 77.2716 78.2147 75.4526V75.3179C78.2147 73.9705 77.3389 72.7579 75.9916 72.2863L70.4 70.3326C66.56 68.9853 64.2695 65.2126 65.0105 61.44C65.7516 57.6674 69.3221 54.9053 73.4316 54.9053H74.7789C78.0126 54.9053 81.0442 56.6569 82.4589 59.3516L77.8779 61.44C77.2716 60.3621 76.1263 59.6211 74.7789 59.6211H73.4316C71.7474 59.6211 70.3326 60.699 70.0632 62.2484C69.7937 63.7979 70.6695 65.28 72.2189 65.819L77.8105 67.7726C81.1116 69.0526 83.3347 72.0169 83.3347 75.3179Z" fill="black"/>
<path d="M123.419 83.6042H117.895L115.806 78.821H105.297L103.141 83.6042H97.6169L110.552 54.7031L123.419 83.6042ZM113.651 74.0379L110.552 67.0989L107.453 74.0379H113.651Z" fill="black"/>
<path d="M156.16 75.3179V75.4526C156.16 79.8316 152.32 83.4695 147.604 83.4695H146.257C142.08 83.4695 138.509 80.7074 137.836 76.8674L142.888 76.059C143.158 77.6084 144.573 78.6863 146.257 78.6863H147.604C149.49 78.6863 151.04 77.2716 151.04 75.4526V75.3179C151.04 73.9705 150.164 72.7579 148.817 72.2863L143.225 70.3326C139.385 68.9853 137.095 65.2126 137.836 61.44C138.577 57.6674 142.147 54.9053 146.257 54.9053H147.604C150.838 54.9053 153.869 56.6569 155.284 59.3516L150.703 61.44C150.097 60.3621 148.952 59.6211 147.604 59.6211H146.257C144.573 59.6211 143.158 60.699 142.888 62.2484C142.619 63.7979 143.495 65.28 145.044 65.819L150.636 67.7726C153.937 69.0526 156.093 72.0169 156.16 75.3179Z" fill="black"/>
<path d="M191.057 75.3179V75.4526C191.057 79.8316 187.217 83.4695 182.501 83.4695H181.154C176.977 83.4695 173.406 80.7074 172.733 76.8674L177.785 76.059C178.055 77.6084 179.47 78.6863 181.154 78.6863H182.501C184.387 78.6863 185.937 77.2716 185.937 75.4526V75.3179C185.937 73.9705 185.061 72.7579 183.714 72.2863L178.122 70.3326C174.282 68.9853 171.992 65.2126 172.733 61.44C173.474 57.6674 177.044 54.9053 181.154 54.9053H182.501C185.735 54.9053 188.766 56.6569 190.181 59.3516L185.6 61.44C184.994 60.3621 183.848 59.6211 182.501 59.6211H181.154C179.47 59.6211 178.055 60.699 177.785 62.2484C177.516 63.7979 178.392 65.28 179.941 65.819L185.533 67.7726C188.834 69.0526 191.057 72.0169 191.057 75.3179Z" fill="black"/>
</svg>
