<svg width="256" height="256" viewBox="0 0 256 256" fill="none" xmlns="http://www.w3.org/2000/svg">
<path d="M138.791 200.933C173.865 194.079 200.853 153.81 200.96 117.344L201.068 74.6121L198.979 68.454L76.7816 68.1327L76.6209 117.022C76.5138 153.489 103.288 193.865 138.309 200.986H138.791V200.933Z" fill="#EB602B"/>
<path d="M76.1391 154.988C76.1926 156.97 76.7281 158.201 77.8526 159.915C79.5127 162.378 82.6185 163.877 85.5636 164.413L82.9933 165.377C78.2275 165.966 75.5501 164.359 74.1578 162.592C72.7655 160.879 72.712 158.683 74.2114 155.899L76.0856 154.988H76.1391Z" fill="#EB602B"/>
<path d="M96.3269 187.921C94.6133 186.796 93.6494 185.832 92.8462 184.012L92.3643 184.547C89.5798 183.958 86.6881 182.459 85.1352 180.156C84.0107 178.55 83.5288 177.318 83.4217 175.444C83.6894 175.444 84.0107 175.444 84.2785 175.337L86.8488 174.373C83.9036 173.838 80.7978 172.338 79.1378 169.875C78.0133 168.215 77.4243 166.93 77.3707 164.948L75.4965 165.859C73.9436 168.59 73.9972 170.839 75.443 172.552C76.7281 174.105 78.9772 175.605 82.8862 175.444L81.4939 176.14C79.941 178.871 80.0481 181.12 81.4404 182.834C82.8327 184.601 85.5101 186.207 90.2759 185.618L92.043 184.976L91.454 185.618C91.0791 188.778 91.9894 190.759 93.9172 191.83C95.8449 192.901 98.9507 193.436 103.128 191.08L105.162 189.26C102.217 189.849 98.7901 189.634 96.3269 187.974" fill="#EB602B"/>
<path d="M137.506 137.264C136.381 138.924 135.257 139.62 133.382 140.423C130.651 141.548 127.224 141.119 124.493 139.995L126.1 142.19C129.741 145.296 132.9 145.403 134.989 144.707C137.077 144.011 138.362 142.244 138.577 139.085L137.506 137.264Z" fill="#EB602B"/>
<path d="M95.1487 172.981C95.6307 174.908 96.4339 175.979 97.9332 177.372C100.129 179.406 103.449 180.156 106.447 180.049L104.145 181.548C99.6468 183.208 96.6481 182.191 94.9345 180.799C93.1674 179.406 92.6319 177.318 93.5423 174.266L95.1487 172.927V172.981Z" fill="#EB602B"/>
<path d="M126.314 130.195C126.421 131.802 126.85 132.766 127.76 134.104C129.152 136.032 131.615 137.21 133.971 137.585L131.937 138.388C128.135 138.924 125.993 137.692 124.815 136.3C123.69 134.961 123.583 133.194 124.815 130.945L126.314 130.195Z" fill="#EB602B"/>
<path d="M78.6023 186.743C77.21 185.243 76.1926 183.423 75.4429 181.441L6.20474 236.971L1.70667 247.467L39.3512 219.3L39.7796 218.336L78.6023 186.689V186.743Z" fill="#EB602B"/>
<path d="M91.454 192.044C90.1688 192.044 88.9372 191.883 87.7056 191.669L60.021 214.213L55.5229 224.709L94.6669 195.418C93.2746 194.936 92.1501 193.865 91.4004 191.99" fill="#EB602B"/>
<path d="M73.1404 168.643L74.5327 167.947C74.5327 167.947 74.5327 167.626 74.6398 167.465C73.6224 167.037 72.8191 166.448 72.2301 165.859L29.2307 200.879L24.3042 211.696L29.4984 207.787L72.0159 173.195C71.8017 171.856 72.123 170.357 73.0869 168.643" fill="#EB602B"/>
<path d="M200.372 68.454C198.819 61.1179 195.445 54.9063 190.09 50.5153C173.49 36.8069 143.45 44.9462 118.228 68.2398C116.461 69.8998 114.694 71.6134 112.927 73.434C110.678 75.7366 108.536 78.1998 106.394 80.7702C96.8623 92.2831 89.9546 104.706 85.8314 116.594L81.8152 119.861L76.8352 123.93L44.2242 150.544L39.2977 161.361L44.3313 157.612L77.692 130.41L82.4043 126.554L83.1539 125.912C83.1004 126.179 83.0468 126.501 82.9933 126.768C82.8862 127.304 82.7791 127.839 82.672 128.375C82.083 131.534 81.6546 134.586 81.4939 137.532L81.601 137.424C82.0294 135.283 82.5114 133.087 83.1004 130.892C83.743 128.643 84.4391 126.393 85.2959 124.091C86.6346 120.45 88.1875 116.755 90.0081 113.06C93.9707 105.081 99.1114 97.1025 105.43 89.4986C110.41 83.4476 115.819 78.0392 121.334 73.3269C145.591 52.8179 173.383 46.285 189.073 59.2437C197.212 65.9908 200.854 76.8611 200.264 89.6592C200.586 87.8386 200.854 86.0715 201.014 84.3044V72.7379C200.907 71.2385 200.639 69.7392 200.372 68.2934" fill="#EB602B"/>
<path d="M186.342 90.0341C183.664 103.1 176.221 118.201 164.655 132.23C162.941 134.319 161.013 136.246 159.193 138.174C179.327 113.756 182.486 83.2334 169.742 72.7379C165.833 69.525 160.317 68.0792 154.052 68.4005C137.88 70.5424 118.817 82.0554 103.556 100.53C92.739 113.649 85.7242 128.054 82.9396 141.119L81.8151 141.334C81.4403 141.708 81.119 142.083 80.8512 142.458C81.0654 140.852 81.2796 139.245 81.6009 137.585H81.4938C81.4938 137.585 81.4938 137.585 81.4938 137.478L79.3519 139.245L21.1447 186.636L16.6466 197.131L78.3345 150.972C78.0667 150.544 77.799 150.115 77.6383 149.741C76.8351 147.92 77.317 145.992 79.3519 143.957L79.9945 143.85C79.6196 144.921 79.6196 145.992 80.048 147.01C80.5835 148.348 81.708 149.741 83.9035 150.705L82.5112 151.133C80.5835 153.65 80.3158 155.845 81.4403 157.719C82.4577 159.433 84.4925 161.254 88.4016 161.628L86.9558 162.11C85.028 164.627 84.7603 166.823 85.9383 168.697C87.0629 170.625 89.4725 172.606 94.2919 172.713L96.9693 172.124C94.1313 171.16 91.2932 169.232 90.008 166.555C89.1513 164.788 88.7764 163.503 88.9906 161.682C89.2583 161.682 89.5796 161.682 89.8474 161.682L92.5248 161.093C89.6867 160.129 86.8487 158.201 85.5635 155.524C84.7603 153.81 84.3854 152.579 84.4925 150.812C85.2422 151.079 86.099 151.294 87.0629 151.454L89.5261 151.294C87.3842 150.223 85.3493 148.509 84.3319 146.367C85.0816 145.403 85.8312 144.439 86.6345 143.475C85.9383 142.512 85.51 141.548 85.3493 140.637C84.9209 138.549 85.7777 136.675 88.0803 135.015C87.6519 135.925 87.5448 136.889 87.759 137.906C88.1338 139.727 89.3119 141.923 92.3642 143.529L91.079 143.957C89.2048 146.474 88.9906 148.67 90.1687 150.597C91.1326 152.204 93.0067 153.81 96.4339 154.292L94.8809 154.828C93.0067 157.345 92.7925 159.54 93.9706 161.468C95.1487 163.342 97.5584 165.323 102.378 165.323L103.824 165.002L102.753 165.698C101.575 168.643 101.896 170.785 103.502 172.338C105.109 173.891 107.947 175.176 112.605 173.998L115.015 172.766C112.016 172.606 108.804 171.481 106.822 169.232C105.537 167.786 104.895 166.662 104.52 164.841L105.002 164.734C102.164 163.824 99.2719 161.95 97.9332 159.272C97.0229 157.505 96.648 156.274 96.8087 154.399C97.3442 154.453 97.9332 154.506 98.5222 154.506L101.2 153.917C98.308 153.007 95.47 151.133 94.1313 148.455C93.328 146.795 92.8996 145.617 93.0067 143.904C93.4351 144.118 93.8635 144.279 94.2919 144.439L97.0229 144.761C94.7203 142.994 92.7925 140.37 92.3106 137.532C92.3106 137.532 92.3106 137.532 92.3642 137.532C92.3642 137.478 92.3642 137.424 92.3642 137.371C91.9358 135.175 92.8461 133.194 95.5235 131.481H96.1661C95.3629 132.659 95.1487 133.89 95.4164 135.175C95.8448 137.371 97.4513 140.048 102.003 141.708L103.663 141.923L102.056 142.244C99.8609 144.546 99.4326 146.688 100.343 148.723C101.253 150.758 103.449 153.007 108.215 153.543L109.071 153.435L107.572 154.346C106.126 157.505 106.34 159.915 108.054 161.682C109.714 163.449 112.766 165.056 117.96 163.985L118.603 163.717L117.8 165.752C118.549 169.125 120.209 170.892 122.619 171.321C124.868 171.696 127.867 171.214 131.08 168.001L130.973 168.429L130.812 169.072C129.795 171.16 128.616 172.552 127.385 173.409C126.475 173.945 125.511 174.373 124.6 174.748C124.44 174.748 124.333 174.801 124.172 174.855C124.172 174.855 124.118 174.908 124.065 174.962C122.405 175.497 120.691 175.765 119.031 175.551C116.996 175.283 115.765 174.641 114.319 173.302L113.623 175.283C114.48 178.336 116.086 179.835 118.282 180.049C120.424 180.263 123.369 179.621 126.207 176.087C126.582 175.872 126.956 175.658 127.278 175.39L126.153 177.854C123.636 181.12 121.013 182.084 118.924 182.191C118.871 182.245 118.817 182.298 118.764 182.352C116.247 183.262 112.659 183.851 110.303 182.727C108.643 181.923 107.679 181.227 106.715 179.728L105.698 181.281C105.751 184.119 106.822 185.779 108.696 186.475C110.571 187.171 113.409 187.225 116.782 184.601L118.71 182.566C133.971 179.192 151.214 168.108 165.19 151.133C182.165 130.517 189.769 106.902 186.395 89.9805M138.63 153.382C137.666 154.614 136.702 155.47 135.792 156.166L136.006 158.308C135.578 161.414 134.453 163.396 133.168 164.627V164.52C130.384 166.234 126.796 167.251 123.583 166.448C121.441 165.912 120.102 165.27 118.603 163.717L120.638 162.806C117.371 162.432 113.837 161.093 111.802 158.523C110.464 156.809 109.767 155.524 109.5 153.489L110.838 153.328C108.107 152.097 105.484 149.901 104.466 147.063C103.77 145.189 103.556 143.904 103.931 142.03H104.573C102.217 140.263 100.182 137.532 99.8074 134.586C99.7003 133.569 99.6468 132.712 99.8074 131.855C99.8074 131.855 99.9145 131.802 99.9145 131.748C100.022 130.088 101.093 128.589 103.127 127.197H105.216C105.216 127.197 105.055 127.572 105.002 127.786C103.449 129.232 102.967 130.838 103.288 132.552C103.716 134.747 105.323 137.424 109.875 139.084L111.588 139.299C109.821 141.387 109.5 143.368 110.356 145.243C111.267 147.277 113.462 149.526 118.228 150.062L119.46 149.955C118.121 152.954 118.442 155.256 120.049 157.023C121.709 158.79 124.761 160.397 129.955 159.326L132.686 158.094C129.42 157.719 125.886 156.381 123.851 153.81C122.458 152.043 121.762 150.758 121.548 148.563L120.049 149.419C117.639 148.134 115.444 146.099 114.533 143.583C113.837 141.655 113.623 140.316 114.051 138.388L112.016 138.817C112.016 138.817 111.963 138.924 111.909 138.977C109.821 137.157 108.107 134.64 107.786 131.963C107.572 130.195 107.625 128.964 108.215 127.518C108.322 127.518 108.375 127.464 108.429 127.411C108.964 125.376 110.624 124.037 113.676 123.555L115.551 124.466C115.122 124.841 114.747 125.215 114.426 125.644C112.391 127.25 111.642 129.017 112.07 130.999C112.498 133.194 114.105 135.872 118.656 137.532L120.424 137.746L119.62 138.174C118.121 140.959 118.228 143.154 119.674 144.868C120.959 146.421 123.315 147.813 127.224 147.599L126.849 148.241C126.956 151.401 128.188 153.221 130.276 153.971C132.365 154.721 135.471 154.721 139.219 151.722L139.647 151.24C139.647 151.24 139.755 151.186 139.755 151.133L138.63 153.596V153.382ZM138.844 141.923C138.576 142.19 138.255 142.458 137.934 142.672C137.987 145.082 137.773 147.599 137.238 150.223C135.471 150.383 133.65 150.223 132.044 149.526C130.598 148.884 129.58 148.241 128.724 147.224L131.133 146.26C128.188 145.778 125.082 144.332 123.369 141.923C122.512 140.744 121.976 139.727 121.709 138.549C121.441 135.604 122.03 132.23 123.904 129.928C125.243 128.375 126.26 127.518 128.188 126.875L126.796 125.323C123.744 124.573 121.602 125.269 120.37 127.09C119.085 128.91 118.228 131.909 120.156 136.354L120.584 136.996C118.603 135.175 116.996 132.766 116.675 130.142C116.461 128.161 116.515 126.822 117.371 125.055C118.978 124.894 120.477 124.841 121.976 124.948C121.976 124.948 121.976 124.948 122.03 124.948C122.03 124.948 122.03 124.894 122.084 124.841C123.422 123.073 125.564 122.484 128.616 123.341L129.687 124.626C131.294 124.198 133.275 124.626 135.364 125.804L136.274 127.679C134.828 127.679 133.757 128 132.633 128.589C132.579 128.589 132.526 128.482 132.418 128.428C131.24 127.625 129.848 127.732 128.188 128.857L127.706 130.088C128.991 129.981 129.795 130.249 130.919 130.892C132.579 131.802 133.704 133.676 134.239 135.55L134.667 133.837C134.667 132.605 134.56 131.641 134.239 130.838C134.453 129.981 134.507 129.178 134.453 128.107L136.435 128.803C137.88 130.784 138.737 132.819 138.523 134.533L139.594 135.229C140.772 138.174 140.451 140.316 138.844 141.869" fill="#EB602B"/>
<path d="M72.23 224.066C72.23 224.066 72.6048 224.227 72.819 224.334C72.9797 224.387 73.1939 224.494 73.408 224.494C73.6222 224.494 73.8364 224.548 74.1042 224.548C74.5326 224.548 74.6932 224.28 74.6932 223.798C74.6932 223.584 74.6397 223.423 74.5326 223.209C74.4255 222.995 74.2648 222.781 74.0506 222.567C73.89 222.352 73.6758 222.085 73.4616 221.763C73.2474 221.496 73.0332 221.121 72.8726 220.746C72.7119 220.371 72.5513 219.943 72.3906 219.461C72.2835 218.979 72.23 218.443 72.23 217.854C72.23 217.158 72.2835 216.569 72.4442 216.034C72.6048 215.498 72.819 215.07 73.0868 214.748C73.3545 214.427 73.6758 214.159 73.9971 213.945C74.3184 213.731 74.7468 213.677 75.1216 213.677C75.3358 213.677 75.55 213.677 75.7642 213.677C75.9784 213.677 76.139 213.731 76.2997 213.785C76.5139 213.785 76.6745 213.892 76.8887 213.892V217.961C76.8887 217.961 76.7281 217.961 76.621 217.961C76.5674 217.961 76.4603 217.961 76.4068 217.961C76.2997 217.961 76.2461 217.961 76.139 217.961C76.139 217.961 76.0319 217.961 75.9248 217.961C75.8713 217.961 75.7642 217.961 75.7106 218.015C75.6571 218.015 75.6035 218.068 75.55 218.176C75.55 218.229 75.4964 218.336 75.4964 218.497C75.4964 218.604 75.55 218.765 75.6571 218.925C75.7642 219.086 75.9248 219.3 76.0855 219.514C76.2461 219.728 76.4603 219.996 76.6745 220.317C76.8887 220.639 77.0493 220.96 77.2635 221.388C77.4242 221.763 77.5848 222.245 77.6919 222.727C77.799 223.209 77.8526 223.798 77.8526 224.387C77.8526 225.03 77.799 225.619 77.6384 226.208C77.5313 226.743 77.3171 227.279 77.0493 227.654C76.7816 228.082 76.4603 228.403 76.0319 228.618C75.6571 228.832 75.1751 228.992 74.5861 228.992C74.2648 228.992 73.9435 228.992 73.6758 228.939C73.408 228.885 73.1403 228.832 72.9261 228.725C72.6584 228.671 72.4442 228.564 72.23 228.457V224.066Z" fill="white"/>
<path d="M81.0118 213.999H83.1002L86.3667 228.618H83.6357L83.368 227.279H80.7441L80.4763 228.564H77.7454L81.1189 213.999H81.0118ZM82.6183 224.066L82.0292 221.496L81.4402 224.066H82.6183Z" fill="white"/>
<path d="M86.5903 214.037L86.5471 228.602L89.4923 228.611L89.5355 214.046L86.5903 214.037Z" fill="white"/>
<path d="M90.5435 214.052H92.7926L95.2023 219.675L95.2558 214.052H97.9868L97.9332 228.671H95.6307L93.221 223.049V228.671L90.49 228.618L90.5435 214.052Z" fill="white"/>
<path d="M100.022 217.908H98.4152V214.052L104.573 214.106L104.52 217.908H102.913V228.671H100.022V217.908Z" fill="white"/>
<path d="M104.1 219.532L104.091 223.173L107.571 223.182L107.581 219.541L104.1 219.532Z" fill="white"/>
<path d="M115.122 219.675C115.122 220.692 115.015 221.549 114.801 222.245C114.587 222.941 114.319 223.531 113.944 223.959C113.569 224.387 113.141 224.709 112.659 224.923C112.177 225.137 111.642 225.244 111.106 225.244V228.725H108.322V214.16H111.16C111.695 214.16 112.231 214.267 112.713 214.481C113.195 214.695 113.623 215.016 113.998 215.445C114.373 215.873 114.64 216.462 114.855 217.158C115.069 217.854 115.176 218.711 115.176 219.729M111.106 221.281H111.213C111.588 221.281 111.856 221.121 112.017 220.853C112.177 220.585 112.284 220.157 112.284 219.675C112.284 219.14 112.177 218.765 112.07 218.497C111.909 218.229 111.642 218.069 111.267 218.069H111.16V221.281H111.106Z" fill="white"/>
<path d="M115.807 214.145L115.764 228.71L118.709 228.718L118.752 214.153L115.807 214.145Z" fill="white"/>
<path d="M119.674 214.106L124.868 214.16V217.962H122.458V219.568H124.815L124.761 223.209H122.458V224.869L124.922 224.923V228.725H119.674V214.106Z" fill="white"/>
<path d="M125.725 214.16H128.724C129.313 214.16 129.795 214.32 130.277 214.534C130.759 214.802 131.187 215.123 131.508 215.605C131.883 216.087 132.151 216.676 132.311 217.372C132.526 218.069 132.579 218.872 132.579 219.836C132.579 220.585 132.526 221.174 132.365 221.71C132.204 222.245 132.097 222.62 131.937 222.995C131.776 223.37 131.562 223.691 131.348 223.959L132.954 228.778H129.688L128.402 225.083V228.778H125.618V214.213L125.725 214.16ZM128.51 221.335H128.67C128.991 221.335 129.313 221.228 129.527 220.96C129.741 220.692 129.902 220.318 129.902 219.729C129.902 219.14 129.795 218.711 129.581 218.497C129.366 218.229 129.045 218.122 128.724 218.122H128.563V221.335H128.51Z" fill="white"/>
<path d="M133.382 214.16H136.381C136.97 214.16 137.452 214.32 137.934 214.534C138.416 214.802 138.844 215.123 139.165 215.605C139.54 216.087 139.808 216.676 139.969 217.372C140.183 218.069 140.236 218.872 140.236 219.836C140.236 220.585 140.183 221.174 140.022 221.71C139.862 222.245 139.755 222.62 139.594 222.995C139.433 223.37 139.219 223.691 139.005 223.959L140.611 228.778H137.345L136.06 225.083V228.778H133.275V214.213L133.382 214.16ZM136.167 221.335H136.327C136.649 221.335 136.97 221.228 137.184 220.96C137.398 220.692 137.559 220.318 137.559 219.729C137.559 219.14 137.452 218.711 137.238 218.497C137.024 218.229 136.702 218.122 136.381 218.122H136.22V221.335H136.167Z" fill="white"/>
<path d="M141.04 214.213H146.18V218.015H143.824V219.622L146.127 219.675V223.263H143.824V224.976H146.234V228.778H140.986L141.04 214.213Z" fill="white"/>
<path d="M146.837 219.693L146.827 223.334L150.308 223.343L150.317 219.702L146.837 219.693Z" fill="white"/>
<path d="M151.107 228.832V214.213H153.57C154.373 214.213 155.123 214.374 155.766 214.695C156.408 215.016 156.944 215.445 157.372 216.087C157.8 216.676 158.175 217.48 158.39 218.39C158.604 219.3 158.711 220.371 158.711 221.549C158.711 222.727 158.604 223.798 158.336 224.709C158.122 225.619 157.747 226.369 157.319 227.011C156.89 227.6 156.355 228.082 155.712 228.403C155.07 228.725 154.32 228.885 153.517 228.885H151.107V228.832ZM153.891 224.655C154.534 224.655 155.07 224.387 155.391 223.905C155.766 223.37 155.926 222.62 155.926 221.549C155.926 220.478 155.766 219.675 155.391 219.193C155.016 218.658 154.534 218.443 153.891 218.443V224.709V224.655Z" fill="white"/>
<path d="M162.995 229.207C162.459 229.207 161.924 229.1 161.495 228.832C161.067 228.618 160.692 228.243 160.371 227.761C160.049 227.279 159.835 226.69 159.675 225.994C159.514 225.298 159.407 224.441 159.407 223.477V214.213H162.245V223.316C162.245 223.852 162.245 224.227 162.406 224.494C162.513 224.762 162.727 224.923 163.048 224.923C163.369 224.923 163.584 224.816 163.691 224.548C163.798 224.28 163.905 223.905 163.905 223.37V214.32H166.743V223.584C166.743 224.548 166.636 225.405 166.475 226.101C166.315 226.797 166.047 227.386 165.726 227.868C165.404 228.35 165.029 228.671 164.548 228.939C164.119 229.153 163.584 229.26 163.048 229.26" fill="white"/>
<path d="M167.4 219.693L167.39 223.335L170.871 223.344L170.88 219.702L167.4 219.693Z" fill="white"/>
<path d="M171.67 214.267H173.972L176.275 219.889L178.524 214.32H180.88L180.826 228.885H177.988L178.042 223.638L176.221 228.029L174.454 223.638V228.885H171.616L171.67 214.267Z" fill="white"/>
<path d="M181.576 221.603C181.576 220.532 181.683 219.568 181.951 218.658C182.219 217.747 182.54 216.891 182.968 216.248C183.397 215.552 183.879 215.016 184.414 214.588C184.95 214.16 185.592 213.999 186.181 213.999C186.824 213.999 187.413 214.213 187.948 214.588C188.484 214.963 189.019 215.552 189.394 216.248C189.823 216.944 190.144 217.747 190.358 218.711C190.572 219.621 190.733 220.639 190.679 221.71C190.679 222.781 190.572 223.745 190.304 224.709C190.037 225.619 189.715 226.476 189.287 227.118C188.859 227.814 188.377 228.35 187.841 228.778C187.306 229.153 186.663 229.367 186.074 229.367C185.432 229.367 184.843 229.153 184.307 228.778C183.772 228.35 183.236 227.814 182.861 227.118C182.433 226.422 182.112 225.619 181.897 224.655C181.683 223.745 181.523 222.727 181.576 221.656M184.307 221.603C184.307 222.031 184.307 222.406 184.468 222.781C184.575 223.156 184.682 223.477 184.843 223.745C185.003 224.012 185.217 224.227 185.432 224.387C185.646 224.548 185.913 224.655 186.128 224.601C186.395 224.601 186.61 224.548 186.824 224.387C187.038 224.227 187.252 224.012 187.413 223.745C187.573 223.477 187.734 223.156 187.788 222.781C187.895 222.406 187.948 222.031 187.948 221.603C187.948 221.174 187.948 220.8 187.788 220.425C187.681 220.05 187.573 219.729 187.413 219.461C187.252 219.193 187.038 218.979 186.824 218.818C186.61 218.658 186.342 218.551 186.128 218.551C185.86 218.551 185.646 218.604 185.432 218.818C185.217 218.979 185.003 219.193 184.843 219.461C184.682 219.729 184.521 220.05 184.468 220.425C184.361 220.8 184.307 221.174 184.307 221.603Z" fill="white"/>
<path d="M191.482 214.32H193.785L196.195 219.943V214.32L198.926 214.374L198.872 228.939H196.57L194.213 223.316L194.16 228.939H191.429L191.482 214.32Z" fill="white"/>
<path d="M201.014 218.176H199.408V214.374H205.512V218.176H203.906L203.852 228.939H200.961L201.014 218.176Z" fill="white"/>
<path d="M31.319 23.8482C31.7474 24.0088 32.2293 24.1159 32.7112 24.223C33.1396 24.3301 33.568 24.4372 34.1035 24.4908C34.639 24.5443 35.1745 24.5979 35.7635 24.5979C36.7274 24.5979 37.37 24.223 37.5306 23.5269C37.5842 23.2592 37.5306 22.9379 37.3164 22.6701C37.1022 22.4024 36.7809 22.0811 36.4596 21.7063C36.0848 21.3314 35.71 20.9566 35.2816 20.5282C34.8532 20.0998 34.5319 19.6179 34.2106 19.0288C33.8893 18.4398 33.6751 17.8508 33.568 17.1546C33.4609 16.4585 33.568 15.6553 33.7822 14.7449C34.05 13.7275 34.4783 12.8708 35.0674 12.0675C35.6564 11.3178 36.3525 10.6217 37.1022 10.1398C37.9054 9.60429 38.7622 9.22946 39.6725 8.96171C40.5829 8.64042 41.6003 8.53333 42.5642 8.53333C43.0996 8.53333 43.5816 8.53333 44.0635 8.64042C44.5455 8.64042 45.0274 8.74752 45.4022 8.80107C45.8842 8.85462 46.3126 8.90816 46.7409 9.01526L45.0809 15.0662C45.0809 15.0662 44.7061 15.0662 44.5455 15.0127C44.3848 15.0127 44.1706 15.0127 43.9564 14.9591C43.7422 14.9591 43.528 14.9591 43.3138 14.9591C43.2067 14.9591 43.0461 14.9591 42.8319 14.9591C42.6177 14.9591 42.4571 14.9591 42.2429 15.0127C42.0822 15.0127 41.868 15.1198 41.7074 15.2269C41.5467 15.334 41.4396 15.4946 41.3861 15.6553C41.3861 15.8159 41.3861 16.0301 41.6538 16.2979C41.868 16.5656 42.1358 16.8869 42.4571 17.2082C42.7784 17.5295 43.1532 17.9579 43.528 18.3862C43.9029 18.8146 44.2242 19.3501 44.4919 19.9392C44.7596 20.5282 44.9203 21.1708 45.0274 21.9204C45.1345 22.6701 45.0274 23.4734 44.8132 24.3837C44.5455 25.3475 44.1706 26.2043 43.6351 27.0611C43.0996 27.8643 42.4571 28.614 41.6538 29.203C40.8506 29.7921 39.8867 30.274 38.8158 30.6488C37.7448 31.0237 36.5132 31.1843 35.1745 31.1843C34.3712 31.1843 33.6216 31.1843 32.9254 31.0772C32.2293 31.0237 31.6403 30.9166 31.1583 30.8095C30.5693 30.7024 30.0338 30.5418 29.5519 30.4347L31.319 23.9553V23.8482Z" fill="white"/>
<path d="M65.001 17.3152C64.5726 18.8145 63.9835 20.0462 63.1803 21.1171C62.3771 22.1346 61.4668 22.9913 60.3958 23.6339C59.3248 24.2765 58.1468 24.7584 56.8616 25.0262C55.5764 25.3475 54.2377 25.4546 52.899 25.4546L51.5068 30.5952H44.599L50.4893 9.06873H57.3435C58.7358 9.06873 59.9674 9.22937 61.0919 9.55066C62.2164 9.87195 63.1268 10.3539 63.8229 10.9965C64.519 11.6391 65.001 12.4958 65.2687 13.5132C65.4829 14.5842 65.4294 15.8158 65.001 17.3152ZM54.4519 19.6713H54.7197C55.63 19.6713 56.3261 19.4571 56.8616 19.0287C57.3971 18.6004 57.7184 18.0113 57.9326 17.2616C58.1468 16.512 58.0932 15.9229 57.8255 15.4945C57.5577 15.0662 56.9687 14.852 56.0584 14.852H55.7906L54.5055 19.6178L54.4519 19.6713Z" fill="white"/>
<path d="M65.4295 19.8856C65.8579 18.3327 66.554 16.8868 67.5179 15.4946C68.4817 14.1023 69.6063 12.9243 70.8914 11.9068C72.1766 10.8894 73.6224 10.0862 75.1218 9.49716C76.6747 8.90812 78.2276 8.64038 79.7269 8.64038C81.2798 8.64038 82.6721 8.96167 83.8502 9.55071C85.0818 10.1397 86.0457 10.943 86.7953 11.9604C87.545 12.9778 88.0269 14.2094 88.2411 15.5481C88.4553 16.8868 88.3482 18.3862 87.9199 19.9391C87.4915 21.492 86.7953 22.9378 85.8315 24.3301C84.8676 25.7223 83.7431 26.9004 82.4579 27.9178C81.1727 28.9353 79.7269 29.7385 78.2276 30.3275C76.6747 30.9166 75.1218 31.1843 73.6224 31.1843C72.0695 31.1843 70.6772 30.863 69.4992 30.274C68.3211 29.6849 67.3037 28.8817 66.554 27.8643C65.8043 26.8469 65.3224 25.6688 65.1082 24.2765C64.894 22.8843 65.0011 21.4385 65.4295 19.8856ZM72.2301 19.9391C72.0695 20.5817 72.0159 21.1707 72.123 21.7062C72.2301 22.2417 72.3908 22.7236 72.7121 23.152C72.9798 23.5804 73.4082 23.9017 73.8901 24.1159C74.3721 24.3301 74.9076 24.4907 75.5501 24.4907C76.1927 24.4907 76.7818 24.3836 77.4243 24.1159C78.0134 23.9017 78.6024 23.5804 79.1379 23.152C79.6734 22.7236 80.1018 22.2417 80.4766 21.7062C80.8514 21.1707 81.1192 20.5817 81.3334 19.9391C81.494 19.2965 81.5476 18.7075 81.4405 18.172C81.3334 17.6365 81.1727 17.1546 80.8514 16.7262C80.5837 16.2978 80.1553 15.9765 79.6734 15.7623C79.1914 15.5481 78.656 15.3875 78.0134 15.3875C77.3708 15.3875 76.7818 15.4946 76.1392 15.7623C75.5501 15.9765 74.9611 16.2978 74.4256 16.7262C73.8901 17.1546 73.4618 17.583 73.0869 18.172C72.7121 18.7075 72.4443 19.2965 72.2301 19.9391Z" fill="white"/>
<path d="M92.7391 9.17578H100.182C101.575 9.17578 102.806 9.38998 103.877 9.76481C104.948 10.1397 105.805 10.6751 106.501 11.3713C107.144 12.0674 107.626 12.9777 107.786 13.9951C108 15.0126 107.893 16.2442 107.518 17.5829C107.251 18.6539 106.822 19.5642 106.34 20.3139C105.805 21.0635 105.323 21.7061 104.841 22.1881C104.252 22.7235 103.663 23.2055 103.02 23.5803L105.109 30.7023H97.023L95.2559 25.2403L93.7565 30.7023H86.8488L92.7391 9.17578ZM96.7552 19.7784H97.1301C97.9333 19.7784 98.683 19.6177 99.3791 19.2429C100.075 18.8681 100.504 18.279 100.718 17.4222C100.932 16.5655 100.825 15.9764 100.343 15.6016C99.861 15.2268 99.2185 15.0661 98.4152 15.0661H98.0404L96.7552 19.8319V19.7784Z" fill="white"/>
<path d="M112.552 14.9055H108.589L110.089 9.22937L125.136 9.28292L123.636 14.9055H119.674L115.336 30.8094L108.268 30.7559L112.552 14.9055Z" fill="white"/>
<path d="M126.26 9.28296H133.597L127.76 30.8095H120.424L126.26 9.28296Z" fill="white"/>
<path d="M135.846 9.33643H141.468L145.163 17.6364L147.412 9.33643L154.159 9.38997L148.322 30.8629H142.646L139.005 22.6165L136.756 30.8629L130.009 30.8094L135.846 9.33643Z" fill="white"/>
<path d="M168.189 16.7262C167.921 16.4049 167.493 16.1371 166.957 15.9229C166.422 15.7623 165.886 15.6552 165.297 15.6552C164.655 15.6552 164.066 15.7623 163.477 15.9765C162.888 16.1907 162.352 16.512 161.87 16.8868C161.388 17.2616 160.96 17.7436 160.585 18.3326C160.21 18.8681 159.942 19.5107 159.782 20.1533C159.621 20.7958 159.568 21.3849 159.675 21.9739C159.728 22.5094 159.942 22.9913 160.264 23.4197C160.585 23.7946 160.96 24.1159 161.442 24.3836C161.924 24.6513 162.459 24.7049 163.102 24.7049C163.851 24.7049 164.548 24.5442 165.244 24.2229C165.94 23.9017 166.582 23.4733 167.118 22.9378H165.19L166.422 18.4397H174.722L172.794 25.6152C172.044 26.472 171.241 27.2752 170.384 28.0249C169.474 28.721 168.564 29.3636 167.546 29.8455C166.529 30.381 165.511 30.7559 164.44 31.0236C163.369 31.2913 162.298 31.452 161.281 31.452C159.728 31.452 158.336 31.1307 157.104 30.5952C155.873 30.0062 154.909 29.203 154.159 28.1855C153.409 27.1681 152.927 25.99 152.713 24.5978C152.499 23.2055 152.606 21.7597 153.035 20.1533C153.463 18.6004 154.106 17.1545 155.069 15.7623C155.98 14.37 157.104 13.192 158.336 12.1745C159.568 11.1571 160.96 10.3539 162.459 9.76486C163.958 9.17582 165.511 8.90808 167.064 8.90808C168.296 8.90808 169.26 9.01518 170.117 9.28292C170.92 9.49711 171.616 9.81841 172.098 10.0861C172.74 10.4074 173.222 10.7823 173.544 11.2107L168.135 16.7262H168.189Z" fill="white"/>
<path d="M182.004 20.2069C182.486 18.4934 183.183 16.9404 184.146 15.5482C185.11 14.1559 186.288 12.9779 187.574 12.014C188.859 11.0501 190.305 10.2469 191.804 9.76495C193.303 9.22946 194.856 8.96172 196.409 9.01527C197.641 9.01527 198.712 9.12237 199.568 9.39011C200.479 9.6043 201.228 9.87205 201.817 10.1933C202.514 10.5146 203.103 10.8895 203.585 11.3179L198.551 17.2617C198.283 16.994 197.962 16.7798 197.641 16.5121C197.319 16.3514 196.945 16.1908 196.463 16.0301C195.981 15.8695 195.445 15.7624 194.803 15.7624C194.16 15.7624 193.517 15.8695 192.875 16.1372C192.232 16.3514 191.697 16.6727 191.161 17.1011C190.626 17.5295 190.197 18.0114 189.769 18.5469C189.394 19.0824 189.126 19.6714 188.912 20.314C188.752 20.9566 188.698 21.5456 188.805 22.0811C188.912 22.6166 189.126 23.0985 189.448 23.5269C189.769 23.9553 190.197 24.2766 190.679 24.4908C191.215 24.705 191.804 24.8656 192.5 24.8656C193.196 24.8656 193.839 24.7585 194.428 24.5979C195.017 24.4372 195.499 24.223 195.927 24.0088C196.409 23.7947 196.891 23.4734 197.266 23.1521L199.033 29.1495C198.337 29.6314 197.534 30.0598 196.623 30.3811C195.874 30.7024 194.963 30.9701 193.892 31.2379C192.875 31.5056 191.697 31.6127 190.465 31.6127C188.805 31.6127 187.306 31.345 186.021 30.756C184.735 30.2205 183.718 29.4172 182.968 28.4534C182.219 27.4359 181.737 26.2579 181.523 24.8656C181.308 23.4734 181.469 21.9205 181.897 20.2605" fill="white"/>
<path d="M205.245 9.49731L212.42 9.55086L208.083 25.4012H214.026L212.527 31.0774L199.408 31.0238L205.245 9.49731Z" fill="white"/>
<path d="M221.844 31.6663C220.506 31.6663 219.328 31.5057 218.31 31.1309C217.293 30.756 216.49 30.2741 215.9 29.578C215.311 28.8818 214.937 28.025 214.83 26.9541C214.722 25.8831 214.83 24.6515 215.204 23.2592L218.899 9.60437H225.753L222.112 22.9915C221.898 23.7412 221.898 24.3302 222.112 24.705C222.326 25.0799 222.808 25.2941 223.504 25.2941C224.254 25.2941 224.79 25.0799 225.218 24.705C225.646 24.3302 225.968 23.7412 226.128 22.9915L229.77 9.60437H236.677L232.982 23.3128C232.608 24.7586 232.072 25.9902 231.376 27.0076C230.68 28.0786 229.823 28.9354 228.859 29.6315C227.895 30.3276 226.824 30.8096 225.593 31.1844C224.415 31.5057 223.13 31.7199 221.791 31.6663" fill="white"/>
<path d="M238.926 9.60437H247.333C248.404 9.60437 249.368 9.76502 250.172 10.0328C250.975 10.3005 251.671 10.6753 252.153 11.1573C252.635 11.6392 253.01 12.2282 253.17 12.9779C253.331 13.6741 253.277 14.5308 253.01 15.4947C252.849 16.1908 252.581 16.7799 252.26 17.2618C251.939 17.7437 251.671 18.1721 251.403 18.4934C251.082 18.8683 250.707 19.1895 250.332 19.4573C250.707 19.7786 251.028 20.1534 251.296 20.6354C251.51 21.0637 251.671 21.5457 251.778 22.1883C251.885 22.8308 251.778 23.5805 251.564 24.4908C251.296 25.5083 250.868 26.4721 250.279 27.2754C249.69 28.1321 248.94 28.8283 248.137 29.4173C247.28 30.0063 246.37 30.4347 245.299 30.756C244.228 31.0773 243.103 31.238 241.872 31.238H233.09L238.926 9.71147V9.60437ZM241.872 26.0973C243.478 26.0973 244.495 25.4547 244.817 24.2231C245.138 22.9915 244.495 22.3489 242.889 22.3489H242.086L241.068 26.0973H241.872ZM246.155 16.1908C246.423 15.227 245.995 14.6915 244.924 14.6915H244.121L243.317 17.6366H244.121C245.192 17.6366 245.888 17.1547 246.155 16.1373" fill="white"/>
<path d="M16.9144 36.0038H26.1783C27.8919 36.0038 29.4448 36.2715 30.7835 36.7535C32.1222 37.2354 33.1932 37.878 34.0499 38.7883C34.9067 39.6986 35.4422 40.7696 35.6564 42.0548C35.9241 43.3399 35.817 44.8393 35.3351 46.5528C34.9603 47.8915 34.4783 49.0161 33.8358 49.9799C33.1932 50.9438 32.6041 51.6935 31.9616 52.2825C31.2119 52.9787 30.4622 53.5677 29.659 54.0496L32.2828 62.8851H22.2157L20.0202 56.0309L18.1996 62.8316H9.63184L16.9144 36.0038ZM21.8944 49.1767H22.3228C23.3402 49.1767 24.2506 48.9625 25.1073 48.4806C25.9641 48.0522 26.4996 47.249 26.8209 46.178C27.0886 45.107 26.9815 44.3573 26.3925 43.8754C25.8035 43.3935 25.0002 43.1793 23.9828 43.1793H23.5544L21.948 49.1232L21.8944 49.1767Z" fill="white"/>
<path d="M43.9028 63.5812C42.1892 63.5812 40.7434 63.367 39.5118 62.9386C38.2802 62.5102 37.2628 61.8677 36.5131 61.0109C35.7634 60.1541 35.335 59.0831 35.1744 57.7444C35.0137 56.4057 35.1744 54.9064 35.6563 53.1393L40.2615 36.1108H48.8292L44.3312 52.818C44.0634 53.7283 44.0634 54.478 44.3312 54.9599C44.5989 55.4418 45.1879 55.7096 46.0983 55.7096C47.0086 55.7096 47.7047 55.4418 48.2402 54.9599C48.7757 54.478 49.1505 53.7283 49.4183 52.818L53.9163 36.1108H62.5377L57.9325 53.1928C57.4505 54.9599 56.7544 56.5128 55.8976 57.798C55.0409 59.1367 53.9699 60.2077 52.7383 61.0644C51.5067 61.9212 50.168 62.5638 48.7221 62.9922C47.2228 63.4206 45.6699 63.6348 43.9563 63.6348" fill="white"/>
<path d="M79.8339 45.2675C79.4591 44.8391 78.9771 44.5178 78.281 44.3036C77.6384 44.0894 76.9423 43.9823 76.2462 43.9288C75.4429 43.9288 74.6932 44.0894 73.9971 44.3571C73.301 44.6249 72.6049 44.9997 72.0158 45.5352C71.4268 46.0172 70.8913 46.6062 70.4094 47.3023C69.9274 47.9984 69.6061 48.7481 69.392 49.5514C69.1778 50.3546 69.1242 51.1043 69.2313 51.8004C69.3384 52.4965 69.5526 53.0856 69.981 53.5675C70.4094 54.0494 70.8378 54.4778 71.4268 54.7456C72.0158 55.0133 72.712 55.1739 73.5152 55.1739C74.4255 55.1739 75.3358 54.9598 76.1926 54.5849C77.0494 54.2101 77.8526 53.6746 78.5487 52.9785H76.1391L77.692 47.3559H88.0268L85.6171 56.2985C84.7068 57.423 83.6894 58.3869 82.5649 59.2972C81.4404 60.2075 80.3158 60.9572 79.0307 61.5998C77.7991 62.2423 76.5139 62.7243 75.1752 63.0991C73.8365 63.4204 72.5513 63.6346 71.2126 63.6346C69.2849 63.6346 67.5713 63.2598 66.0184 62.5101C64.519 61.7604 63.2874 60.7965 62.3235 59.5114C61.4132 58.2262 60.7706 56.7804 60.5029 55.0133C60.2352 53.2462 60.3423 51.4255 60.8777 49.4443C61.4132 47.5165 62.2165 45.6959 63.3945 43.9823C64.5726 42.2688 65.9113 40.7694 67.4642 39.4842C69.0171 38.1991 70.7307 37.2352 72.6049 36.4855C74.4791 35.7358 76.4068 35.4146 78.3345 35.4146C79.8339 35.4146 81.1191 35.5752 82.1365 35.8429C83.1539 36.1642 84.0107 36.4855 84.6533 36.8604C85.4029 37.2887 86.0455 37.7707 86.4739 38.2526L79.7268 45.1604L79.8339 45.2675Z" fill="white"/>
<path d="M93.2747 36.1643H103.77C105.109 36.1643 106.287 36.3785 107.304 36.6463C108.322 36.9676 109.179 37.396 109.768 38.0385C110.41 38.6276 110.785 39.3773 110.999 40.2876C111.213 41.1979 111.106 42.2153 110.785 43.4469C110.571 44.3037 110.25 45.0534 109.875 45.6424C109.5 46.2315 109.125 46.7669 108.804 47.1418C108.375 47.6237 107.947 47.9986 107.465 48.3199C107.947 48.6947 108.375 49.1766 108.697 49.7657C108.964 50.3011 109.179 50.9437 109.286 51.6934C109.393 52.4966 109.286 53.407 109.018 54.5315C108.643 55.8166 108.108 56.9947 107.358 58.0121C106.608 59.0831 105.751 59.9399 104.68 60.6896C103.663 61.4392 102.431 61.9747 101.146 62.3496C99.8076 62.7244 98.4153 62.9386 96.916 62.9386H85.9921L93.2747 36.0573V36.1643ZM96.9695 56.727C99.0044 56.727 100.236 55.9773 100.664 54.4244C101.093 52.8715 100.29 52.0683 98.2547 52.0683H97.2908L96.0056 56.727H96.9695ZM102.324 44.4108C102.646 43.1792 102.164 42.5366 100.825 42.5366H99.8611L98.8437 46.2315H99.8076C101.146 46.2315 102.003 45.6424 102.324 44.4108Z" fill="white"/>
<path d="M116.193 51.5328L112.016 36.2715H121.548L123.101 41.9476L127.706 36.2715L137.238 36.325L124.761 51.5864L121.655 63.0993H113.087L116.193 51.5328Z" fill="white"/>
<path d="M99.9145 134.479C100.236 137.425 102.324 140.155 104.68 142.03H104.038C103.663 143.797 103.877 145.136 104.573 147.01C105.591 149.794 108.215 151.99 110.945 153.275L109.607 153.436C109.875 155.47 110.571 156.756 111.909 158.469C113.944 161.039 117.425 162.432 120.745 162.753L118.71 163.663C120.209 165.216 121.548 165.859 123.69 166.394C126.849 167.197 130.491 166.18 133.329 164.467V164.574C134.56 163.342 135.631 161.361 136.113 158.255L135.899 156.113C136.809 155.47 137.773 154.56 138.737 153.328L139.862 150.865C139.862 150.865 139.755 150.919 139.755 150.972L139.326 151.454C135.578 154.453 132.472 154.453 130.384 153.703C128.295 152.954 127.064 151.133 126.956 147.974L127.331 147.331C123.369 147.599 121.066 146.153 119.781 144.6C118.335 142.886 118.228 140.691 119.727 137.906L120.531 137.478L118.764 137.264C114.265 135.604 112.659 132.926 112.177 130.731C111.802 128.803 112.498 126.983 114.533 125.376C114.855 125.001 115.229 124.626 115.658 124.198L113.784 123.288C110.785 123.77 109.071 125.108 108.536 127.143C108.482 127.143 108.375 127.197 108.322 127.25C107.733 128.696 107.733 129.981 107.893 131.695C108.215 134.372 109.928 136.889 112.016 138.71C112.016 138.71 112.124 138.603 112.124 138.549L114.158 138.121C113.73 140.048 113.944 141.387 114.64 143.315C115.551 145.832 117.746 147.866 120.156 149.152L121.655 148.295C121.869 150.49 122.566 151.776 123.958 153.543C125.993 156.113 129.473 157.505 132.793 157.826L130.062 159.058C124.868 160.129 121.816 158.576 120.156 156.756C118.549 155.042 118.228 152.739 119.567 149.687L118.335 149.794C113.569 149.205 111.374 147.01 110.464 144.975C109.607 143.101 109.928 141.119 111.695 139.031L109.982 138.817C105.484 137.157 103.877 134.479 103.395 132.284C103.074 130.57 103.556 128.964 105.109 127.518C105.162 127.357 105.269 127.143 105.323 126.983H103.234C101.146 128.321 100.129 129.821 100.022 131.481C100.022 131.481 99.9145 131.534 99.9145 131.588C99.8074 132.391 99.8609 133.248 99.9145 134.319" fill="white"/>
<path d="M116.622 130.142C116.943 132.712 118.549 135.176 120.531 136.996L120.102 136.354C118.228 131.909 119.031 128.91 120.317 127.09C121.602 125.269 123.69 124.627 126.742 125.323L128.135 126.876C126.207 127.465 125.189 128.321 123.904 129.874C121.977 132.177 121.388 135.55 121.709 138.496C121.977 139.674 122.512 140.638 123.369 141.869C125.082 144.279 128.188 145.725 131.133 146.207L128.724 147.17C129.58 148.188 130.598 148.83 132.044 149.473C133.597 150.169 135.417 150.383 137.238 150.223C137.773 147.599 138.041 145.082 137.934 142.672C138.309 142.458 138.577 142.19 138.898 141.923C140.504 140.37 140.826 138.228 139.648 135.283L138.577 134.587C138.791 132.873 137.934 130.838 136.488 128.857L134.507 128.161C134.614 129.178 134.507 130.035 134.293 130.892C134.56 131.695 134.721 132.659 134.721 133.89L134.293 135.55C133.757 133.73 132.633 131.856 130.973 130.892C129.848 130.249 128.991 129.981 127.76 130.088L128.242 128.857C129.902 127.732 131.294 127.625 132.526 128.428C132.579 128.428 132.633 128.536 132.74 128.589C133.864 128 134.935 127.679 136.381 127.679L135.471 125.805C133.382 124.627 131.401 124.198 129.795 124.68L128.724 123.395C125.671 122.538 123.583 123.127 122.191 124.894C122.191 124.894 122.191 124.948 122.137 125.001C122.137 125.001 122.137 125.001 122.084 125.001C120.584 124.894 119.085 124.948 117.478 125.108C116.675 126.876 116.568 128.214 116.782 130.196M137.506 137.264L138.577 139.085C138.362 142.244 137.077 144.011 134.989 144.707C132.847 145.403 129.741 145.296 126.1 142.19L124.493 139.995C127.278 141.173 130.651 141.601 133.382 140.423C135.257 139.62 136.381 138.924 137.506 137.264ZM127.813 134.105C129.206 136.032 131.669 137.21 134.025 137.585L131.99 138.388C128.188 138.924 126.046 137.692 124.868 136.3C123.744 134.961 123.637 133.194 124.868 130.945L126.368 130.196C126.475 131.802 126.903 132.766 127.813 134.105Z" fill="white"/>
<path d="M81.8153 116.969L81.9224 73.2733L112.981 73.3804C114.694 71.5598 116.461 69.8462 118.282 68.1862L76.7817 68.0791L76.6211 116.969C76.6211 119.271 76.7282 121.574 76.9424 123.877L81.9224 119.807C81.9224 118.843 81.8688 117.933 81.8688 116.969" fill="white"/>
<path d="M200.318 89.6593C200.318 89.6593 200.318 89.6593 200.318 89.7129C200.318 89.0167 200.318 88.3206 200.318 87.6245C200.318 87.5174 200.318 87.4103 200.318 87.2496C200.318 86.5535 200.318 85.9109 200.318 85.2148V84.8399C200.318 84.1438 200.211 83.4477 200.157 82.7516C200.157 82.7516 200.157 82.7516 200.157 82.698C200.104 82.0019 200.05 81.3593 199.943 80.7167C199.943 80.6096 199.943 80.5025 199.943 80.3954C199.836 79.7528 199.782 79.1103 199.622 78.5212C199.622 78.4141 199.622 78.307 199.568 78.1999C199.461 77.5574 199.3 76.9148 199.193 76.3257C199.193 76.2722 199.193 76.2186 199.193 76.1651C199.033 75.5761 198.872 74.987 198.711 74.398C198.711 74.2909 198.711 74.2373 198.658 74.1302C198.497 73.5412 198.283 72.9522 198.122 72.4167C198.122 72.3096 198.069 72.2025 198.015 72.0954C197.801 71.5064 197.587 70.9709 197.373 70.4354C197.373 70.3819 197.319 70.2748 197.266 70.2212C197.051 69.6857 196.784 69.2038 196.57 68.6683C196.57 68.6148 196.516 68.5612 196.462 68.5077C196.195 67.9722 195.927 67.4902 195.606 66.9548C195.552 66.8477 195.499 66.7406 195.445 66.6335C195.124 66.1515 194.856 65.6696 194.535 65.1877C194.481 65.0806 194.428 65.027 194.374 64.9735C194.053 64.4915 193.731 64.0631 193.357 63.6347C193.357 63.6347 193.357 63.5812 193.303 63.5277C192.928 63.0457 192.553 62.6173 192.179 62.1889C192.125 62.0818 192.018 62.0283 191.964 61.9212C191.589 61.4928 191.161 61.118 190.786 60.6896C190.733 60.636 190.626 60.5289 190.572 60.4754C190.144 60.047 189.715 59.6722 189.233 59.2973C188.805 58.9225 188.323 58.6012 187.895 58.2799C187.788 58.2263 187.68 58.1193 187.627 58.0657C187.199 57.7444 186.77 57.4767 186.288 57.2089C186.181 57.1554 186.074 57.0483 185.913 56.9947C185.485 56.727 185.057 56.5128 184.628 56.2451C184.575 56.2451 184.468 56.138 184.414 56.138C184.093 55.9773 183.825 55.8702 183.504 55.7096C183.236 55.5489 182.915 55.4418 182.647 55.3347C182.219 55.1205 181.737 54.9599 181.308 54.7992C181.148 54.7992 181.04 54.6921 180.88 54.6386C180.451 54.478 180.023 54.3173 179.595 54.2102C179.434 54.2102 179.273 54.1031 179.113 54.0496C178.684 53.9425 178.256 53.8354 177.828 53.7283C177.613 53.7283 177.453 53.6212 177.239 53.5676C176.81 53.4605 176.435 53.407 176.007 53.2999C175.793 53.2999 175.579 53.1928 175.364 53.1928C174.936 53.1392 174.561 53.0857 174.133 53.0321C173.919 53.0321 173.651 52.9786 173.437 52.925C173.062 52.925 172.687 52.8715 172.312 52.818C171.937 52.818 171.562 52.7644 171.188 52.7644C170.759 52.7644 170.384 52.7644 169.956 52.7644C169.688 52.7644 169.42 52.7644 169.153 52.7644C168.671 52.7644 168.242 52.7644 167.76 52.7644C167.439 52.7644 167.118 52.7644 166.797 52.7644C166.582 52.7644 166.315 52.7644 166.047 52.7644C165.458 52.7644 164.869 52.8715 164.28 52.925C164.119 52.925 163.905 52.925 163.744 52.9786C162.513 53.1392 161.281 53.2999 159.996 53.5676C159.996 53.5676 159.942 53.5676 159.889 53.5676C149.768 55.4954 138.791 60.5289 128.188 68.2399C125.939 69.8464 123.744 71.5599 121.548 73.4341C115.979 78.0928 110.624 83.5012 105.644 89.6058C99.379 97.2096 94.1848 105.188 90.2758 113.167C88.4551 116.862 86.8487 120.557 85.5635 124.198C85.3493 124.787 85.1351 125.323 84.9745 125.912C84.7067 126.661 84.4925 127.411 84.2248 128.214C84.1713 128.375 84.1177 128.589 84.0642 128.75C83.85 129.499 83.6358 130.249 83.4216 130.999C82.8325 133.194 82.2971 135.39 81.9222 137.532C81.6009 139.192 81.3867 140.798 81.1725 142.405C81.4403 142.03 81.7616 141.655 82.1364 141.28L83.2609 141.066C84.7067 134.212 87.3842 126.983 91.079 119.754C93.6493 114.827 96.7016 109.954 100.236 105.135C101.414 103.582 102.592 102.029 103.877 100.476C119.085 82.0019 138.148 70.489 154.373 68.347C160.692 68.0793 166.154 69.4715 170.063 72.6844C182.808 83.1799 179.648 113.703 159.514 138.121C161.281 136.193 163.262 134.265 164.976 132.177C176.489 118.201 183.932 103.1 186.663 90.0341C189.983 106.902 182.433 130.57 165.458 151.187C151.482 168.161 134.239 179.246 118.978 182.619L117.8 183.851C136.327 181.602 158.229 168.483 175.686 147.277C185.753 135.068 192.875 121.949 196.891 109.472C196.623 110.329 196.355 111.132 196.088 111.935V117.344C196.034 134.105 189.822 152.257 179.059 167.198C168.135 182.405 153.891 192.472 138.898 195.685C138.202 195.525 137.506 195.364 136.863 195.203C136.702 195.203 136.542 195.096 136.381 195.096C135.738 194.936 135.096 194.721 134.4 194.507C134.239 194.507 134.132 194.4 133.971 194.347C133.436 194.186 132.9 193.972 132.365 193.811C132.151 193.758 131.99 193.65 131.776 193.597C131.187 193.383 130.598 193.169 130.009 192.901C129.741 192.794 129.527 192.687 129.259 192.579C128.831 192.419 128.456 192.205 128.027 192.044C127.653 191.883 127.278 191.723 126.903 191.509C126.475 191.294 126.1 191.134 125.725 190.919C125.404 190.759 125.082 190.598 124.761 190.384L123.904 189.956C123.315 189.634 122.78 189.313 122.191 188.992C121.976 188.885 121.762 188.724 121.548 188.617C121.173 188.403 120.798 188.135 120.424 187.921C120.424 187.921 120.37 187.867 120.316 187.867C119.513 187.385 118.764 186.85 117.96 186.314C117.8 186.207 117.639 186.1 117.478 185.939C117.104 185.672 116.782 185.458 116.407 185.19C113.944 186.903 111.856 187.171 110.196 186.957C109.982 186.957 109.875 186.957 109.767 186.85C109.607 186.85 109.5 186.796 109.339 186.743C109.339 186.743 109.071 186.636 108.911 186.582C108.696 186.529 108.482 186.421 108.322 186.314C108.268 186.314 108.215 186.261 108.161 186.207C108.054 186.154 107.893 186.047 107.786 185.939C107.786 185.939 107.679 185.832 107.625 185.779C107.465 185.672 107.358 185.511 107.197 185.35C107.144 185.297 107.09 185.243 107.036 185.136C106.929 185.029 106.876 184.922 106.822 184.815C106.769 184.708 106.715 184.601 106.662 184.547C106.608 184.44 106.555 184.333 106.501 184.226C106.501 184.119 106.394 184.012 106.34 183.905C106.287 183.69 106.18 183.53 106.126 183.316C105.965 182.727 105.858 182.03 105.858 181.281L106.662 180.103L104.413 181.549C104.413 181.549 104.413 181.549 104.359 181.549C100.45 182.941 97.719 182.352 95.9519 181.281C95.9519 181.281 95.8984 181.281 95.8448 181.227C95.7377 181.174 95.6842 181.12 95.5771 181.067C95.47 180.959 95.3629 180.906 95.2558 180.799C93.4887 179.407 92.9532 177.265 93.8635 174.266L95.47 172.927C95.9519 174.855 96.7551 175.926 98.2545 177.318C98.4152 177.479 98.5223 177.586 98.6829 177.693C98.6829 177.693 98.7364 177.693 98.79 177.747C98.8971 177.854 99.0577 177.961 99.1648 178.068C100.182 178.71 101.307 179.192 102.485 179.514C103.877 179.889 105.323 179.996 106.662 179.942L106.876 179.567C107.84 181.067 108.804 181.816 110.464 182.566C111.481 183.048 112.766 183.209 114.051 183.155C115.122 183.155 116.193 182.941 117.157 182.673C117.157 182.673 117.532 182.566 117.746 182.512C117.907 182.512 118.121 182.405 118.282 182.352C118.442 182.352 118.603 182.245 118.817 182.191C118.871 182.138 118.924 182.084 118.978 182.03C121.066 181.977 123.636 180.959 126.207 177.747L127.331 175.283C127.01 175.498 126.635 175.765 126.26 175.979C123.422 179.46 120.477 180.156 118.335 179.942C116.14 179.728 114.533 178.175 113.676 175.176L114.373 173.195C115.818 174.587 117.05 175.23 119.085 175.444C120.745 175.658 122.458 175.444 124.118 174.855C124.118 174.855 124.172 174.801 124.226 174.748C124.386 174.748 124.493 174.748 124.654 174.641C125.618 174.266 126.528 173.838 127.438 173.302C128.67 172.392 129.848 171.053 130.866 168.965L131.026 168.322L131.133 167.84C127.974 171.053 124.922 171.535 122.673 171.16C120.263 170.785 118.603 169.018 117.853 165.591L118.656 163.556L118.014 163.824C112.82 164.895 109.767 163.288 108.107 161.521C106.447 159.754 106.18 157.345 107.625 154.185L109.125 153.275L108.268 153.382C103.502 152.793 101.307 150.597 100.396 148.563C99.4861 146.528 99.9145 144.386 102.11 142.083L103.716 141.762L102.056 141.548C97.5584 139.888 95.9519 137.21 95.47 135.015C95.2022 133.73 95.47 132.498 96.2197 131.32H95.5771C92.9532 133.034 91.9893 135.015 92.4177 137.21C92.4177 137.21 92.4177 137.317 92.4177 137.371C92.8461 140.209 94.8274 142.779 97.13 144.6L94.4526 144.279C93.9706 144.118 93.5422 143.904 93.1674 143.743C93.1139 145.403 93.4887 146.635 94.2919 148.295C95.6306 150.972 98.5223 152.847 101.36 153.757L98.6829 154.399C98.0939 154.399 97.5048 154.399 96.9693 154.292C96.8087 156.167 97.1835 157.452 98.0939 159.165C99.4326 161.843 102.324 163.717 105.162 164.627L104.68 164.734C105.002 166.555 105.698 167.679 106.929 169.125C108.911 171.374 112.124 172.499 115.122 172.659L112.713 173.891C108.054 175.069 105.216 173.784 103.609 172.231C102.003 170.678 101.682 168.483 102.86 165.591L103.931 164.895L102.485 165.216C97.6655 165.216 95.2558 163.235 94.0777 161.361C92.8997 159.487 93.1139 157.291 94.9881 154.721L96.5409 154.185C93.1138 153.703 91.2397 152.097 90.2758 150.49C89.0977 148.616 89.3119 146.421 91.1861 143.85L92.4713 143.422C89.419 141.816 88.2409 139.62 87.8661 137.799C87.6519 136.782 87.759 135.818 88.1874 134.908C85.8313 136.568 85.028 138.496 85.4564 140.53C85.6171 141.441 86.0455 142.405 86.7416 143.368C85.9384 144.332 85.1887 145.296 84.439 146.26C84.5461 146.528 84.7067 146.742 84.8674 147.01C85.028 147.224 85.1887 147.492 85.3493 147.706C85.3493 147.706 85.3493 147.706 85.3493 147.759C85.51 147.974 85.7242 148.188 85.8848 148.402C86.2596 148.83 86.688 149.205 87.17 149.58C87.17 149.58 87.17 149.58 87.2771 149.634C87.4913 149.794 87.7055 149.955 87.9196 150.116C87.9196 150.116 87.9732 150.116 88.0267 150.169C88.2409 150.33 88.4551 150.437 88.7229 150.597C88.7229 150.597 88.7764 150.597 88.83 150.651C89.0442 150.812 89.3119 150.919 89.5797 151.026L87.1164 151.187C87.1164 151.187 86.6345 151.079 86.3667 151.026C86.2061 151.026 86.0455 150.972 85.8848 150.919C85.8313 150.919 85.7242 150.919 85.6706 150.919C85.4564 150.919 85.2958 150.812 85.0816 150.758C84.8674 150.705 84.7067 150.651 84.4925 150.544C84.3855 152.311 84.7067 153.543 85.51 155.256C86.7951 157.934 89.6332 159.861 92.4713 160.825L89.7938 161.414C89.4726 161.414 89.2048 161.414 88.9371 161.414C88.7764 163.288 89.0977 164.52 89.9545 166.287C91.0255 168.483 93.0603 170.143 95.3093 171.214C95.5235 171.481 95.7377 171.749 95.9519 172.07L94.2384 172.445C89.419 172.338 87.0629 170.357 85.8848 168.429C84.7603 166.501 85.028 164.306 86.9558 161.843L88.4016 161.361C84.5461 160.932 82.4577 159.165 81.4403 157.452C80.3158 155.524 80.5835 153.328 82.5113 150.865L83.9035 150.437C82.8325 149.955 82.0293 149.366 81.3867 148.723C81.2261 148.563 81.119 148.402 80.9583 148.241C80.8512 148.081 80.7441 147.92 80.5835 147.759C80.4764 147.599 80.4229 147.492 80.3158 147.331C80.3158 147.331 80.3158 147.277 80.2622 147.224C80.2087 147.063 80.1016 146.903 80.048 146.796C80.048 146.688 79.9409 146.528 79.8874 146.421C79.8874 146.421 79.8874 146.367 79.8874 146.314C79.8874 146.207 79.8874 146.153 79.8338 146.046C79.8338 146.046 79.8338 145.939 79.8338 145.885C79.8338 145.832 79.8338 145.725 79.8338 145.671C79.8338 145.671 79.8338 145.564 79.8338 145.51C79.8338 145.457 79.8338 145.35 79.8338 145.296V145.136C79.8338 145.136 79.8338 144.975 79.8338 144.868V144.761C79.8338 144.654 79.8338 144.6 79.8338 144.493C79.8338 144.493 79.8338 144.439 79.8338 144.386C79.8338 144.279 79.8338 144.172 79.8874 144.065C79.8874 144.065 79.8874 144.065 79.8874 143.957C79.8874 143.85 79.9409 143.69 79.9945 143.583L79.3519 143.69C77.3171 145.725 76.8351 147.599 77.6383 149.473C77.799 149.901 78.0667 150.33 78.3345 150.705L54.2912 168.697L50.2215 178.282L70.677 162.967C70.8377 163.717 71.159 164.467 71.6409 165.109C71.8016 165.27 71.9622 165.484 72.1228 165.645C72.7119 166.234 73.5151 166.823 74.5325 167.251C74.5325 167.412 74.479 167.572 74.4254 167.733L73.0332 168.429C72.0693 170.143 71.748 171.696 71.9622 172.981L29.4447 207.573L19.5382 215.605L15.0402 226.101L75.2287 181.067C75.2287 181.067 75.2287 181.12 75.2287 181.174C75.9783 183.155 77.0493 184.922 78.388 186.475L39.5654 218.122L39.137 219.086L35.0673 228.671L85.4564 190.973C86.099 191.187 86.7951 191.348 87.5448 191.455C88.7229 191.669 90.008 191.83 91.2932 191.83C92.0429 193.65 93.1139 194.775 94.5597 195.257C94.881 195.364 95.2022 195.418 95.5235 195.471C97.719 195.739 100.771 195.043 103.77 191.294L104.627 189.527C105.323 190.116 106.073 190.491 106.983 190.598C108.482 190.759 110.41 190.438 112.445 188.831C116.782 192.098 121.441 194.829 126.314 196.97C126.314 196.97 126.367 196.97 126.421 196.97C126.903 197.185 127.385 197.399 127.867 197.559C127.92 197.559 128.027 197.613 128.081 197.667C128.563 197.827 128.991 198.041 129.473 198.202C129.58 198.202 129.687 198.256 129.795 198.309C130.223 198.47 130.651 198.63 131.08 198.791C131.187 198.791 131.347 198.898 131.455 198.952C131.883 199.059 132.258 199.22 132.686 199.327C132.847 199.327 133.007 199.434 133.115 199.487C133.489 199.594 133.918 199.701 134.293 199.809C134.453 199.809 134.614 199.916 134.775 199.969C135.203 200.076 135.578 200.183 136.006 200.29C136.167 200.29 136.327 200.344 136.488 200.398C137.024 200.558 137.613 200.665 138.202 200.772H138.684C173.758 193.918 200.746 153.65 200.853 117.183L200.96 84.3045C200.8 86.018 200.532 87.7316 200.211 89.4987M74.2112 162.592C72.819 160.879 72.7654 158.683 74.2648 155.899L76.139 154.988C76.139 156.381 76.4603 157.452 77.0493 158.523C77.0493 158.523 77.0493 158.63 77.2635 158.897C77.4777 159.219 77.6919 159.594 77.9061 159.915C79.5661 162.378 82.6719 163.878 85.6171 164.413L83.0467 165.377C78.2809 165.966 75.6035 164.359 74.2112 162.592ZM103.181 191.027C99.0042 193.383 95.8984 192.901 93.9706 191.776C92.0429 190.705 91.1326 188.67 91.5074 185.565L92.0964 184.922L90.3293 185.565C85.5635 186.154 82.8861 184.547 81.4938 182.834C80.1016 181.12 80.048 178.925 81.5474 176.14L82.9396 175.444C79.0306 175.605 76.7816 174.159 75.4964 172.552C74.1041 170.839 74.0506 168.643 75.5499 165.859L77.4241 164.948C77.4777 166.93 78.0132 168.161 79.1912 169.875C80.8512 172.338 83.9571 173.838 86.9022 174.373L84.3319 175.337C84.0106 175.337 83.7429 175.39 83.4751 175.444C83.5822 177.318 84.1177 178.496 85.1887 180.156C86.7951 182.512 89.6332 183.958 92.4177 184.547L92.8997 184.012C93.7029 185.832 94.6668 186.796 96.3803 187.921C98.5758 189.367 101.521 189.741 104.198 189.367C104.252 189.367 104.413 189.367 104.413 189.367C104.68 189.367 104.948 189.259 105.162 189.259L103.127 191.08L103.181 191.027Z" fill="white"/>
<path d="M81.708 135.39C81.708 135.39 81.708 135.015 81.7615 134.854C81.8151 134.265 81.8686 133.73 81.9222 133.141C81.9222 132.926 81.9222 132.766 81.9757 132.552C82.0293 131.963 82.1364 131.427 82.2435 130.838C82.2435 130.624 82.297 130.463 82.3506 130.249C82.4577 129.66 82.5648 129.017 82.6718 128.428C82.6718 128.428 82.6718 128.428 82.6718 128.375C82.8325 127.679 82.9396 126.983 83.1002 126.286C83.1002 126.179 83.1538 126.019 83.2073 125.912L77.7454 130.356L44.3847 157.559L34.6924 165.484L30.1943 175.979L79.4054 139.192L81.5473 137.425C81.5473 136.728 81.6544 136.086 81.708 135.39Z" fill="white"/>
</svg>
