<svg width="256" height="256" viewBox="0 0 256 256" fill="none" xmlns="http://www.w3.org/2000/svg">
<path d="M198.261 208.747C189.474 219.198 179.118 227.85 167.566 235.118C155.622 242.632 142.801 248.301 129.375 252.66C128.813 252.842 128.265 252.966 127.643 252.823C124.855 252.182 122.103 251.33 119.44 250.396C115.908 249.156 112.38 247.829 108.905 246.391C101.166 243.188 87.2324 235.221 82.938 232.732C82.0775 232.233 81.2469 231.693 80.4434 231.109C77.9135 229.269 72.061 224.984 69.7048 222.989C65.3915 219.334 52.0551 204.731 52.0551 204.731C53.2359 207.005 57.4814 211.819 57.6578 212.026C64.7454 220.265 72.7125 227.568 81.5916 233.866C87.9653 238.388 94.7679 242.206 101.801 245.634C110.151 249.702 118.911 252.703 127.714 255.599C128.137 255.737 128.406 255.797 128.802 255.664C130.29 255.159 131.818 254.413 133.333 253.81C144.916 249.216 156.273 244.396 166.719 237.636C175.334 232.062 183.299 225.69 190.462 218.33C193.975 214.72 197.265 210.943 200.389 207.016C201.35 205.805 202.328 204.579 202.963 203.141C201.364 204.978 199.83 206.883 198.261 208.747Z" fill="#004C7B"/>
<mask id="mask0_3187_328" style="mask-type:luminance" maskUnits="userSpaceOnUse" x="118" y="18" width="107" height="228">
<path d="M223.46 150.932C223.742 148.937 224.337 146.967 224.25 144.934C224.087 141.146 223.566 137.382 223.406 133.588C223.216 129.064 222.77 124.548 222.458 120.027C222.279 117.435 222.165 114.841 221.986 112.249C221.554 106.086 221.068 99.9255 220.672 93.7597C220.479 90.7582 220.319 87.7567 220.045 84.7579C219.893 83.0889 219.502 81.428 219.584 79.7428C219.736 76.6029 219.32 73.482 219.149 70.3556C218.829 64.4341 218.259 58.5233 217.854 52.6045C217.51 47.5866 217.238 42.566 216.97 37.5427C216.932 36.8263 216.584 36.5332 215.889 36.3731C207.928 34.5277 200.091 32.2671 192.205 30.1666C183.828 27.9331 175.424 25.7919 166.998 23.7239C161.946 22.4864 156.838 21.447 151.743 20.3588C148.507 19.6695 145.288 18.8146 141.935 18.8011C136.677 18.7821 131.422 18.7766 126.164 18.7793C124.831 20.2828 122.787 22.8257 121.023 26.2939C117.477 33.2658 117.665 38.8535 118.818 62.4448C119.456 75.4739 119.589 77.6857 120.043 81.5447C120.846 88.3754 121.921 94.164 123.224 100.189C125.192 109.277 127.608 118.548 133.507 137.705C141.297 163.006 142.193 163.434 143.898 172.575C144.633 176.515 146.433 186.977 146.58 200.595C146.68 209.987 146.743 215.841 144.905 223.323C142.657 232.463 138.618 239.783 134.82 245.18C137.25 244.369 139.682 243.566 142.068 242.651C151.729 238.949 160.988 234.548 169.686 229.133C180.91 222.145 190.921 213.922 199.388 204.123C201.459 201.727 203.321 199.17 205.224 196.654C208.541 192.266 211.589 187.707 213.981 182.836C217.54 175.587 219.988 167.975 221.715 160.172C222.393 157.109 223.017 154.028 223.455 150.929L223.46 150.932Z" fill="white"/>
</mask>
<g mask="url(#mask0_3187_328)">
<path d="M86.9745 230.2C88.8394 231.226 90.6879 232.276 92.5718 233.275C102.985 238.795 114.008 242.996 125.453 246.258C127.109 246.73 128.729 247.303 130.602 246.632C134.411 245.27 138.298 244.1 142.074 242.654C151.735 238.952 160.994 234.55 169.691 229.136C180.915 222.148 190.927 213.925 199.393 204.126C201.464 201.729 203.326 199.173 205.229 196.657C208.546 192.269 211.595 187.71 213.986 182.838C217.545 175.59 219.994 167.977 221.72 160.175C222.399 157.111 223.023 154.031 223.46 150.932C223.742 148.937 224.337 146.967 224.25 144.934C224.084 141.146 223.566 137.382 223.406 133.588C223.216 129.064 222.77 124.548 222.458 120.027C222.279 117.435 222.165 114.841 221.986 112.249C221.554 106.086 221.068 99.9255 220.672 93.7597C220.479 90.7582 220.319 87.7567 220.045 84.7579C219.893 83.0889 219.502 81.428 219.584 79.7427C219.736 76.6028 219.32 73.4819 219.149 70.3556C218.829 64.434 218.259 58.5233 217.854 52.6045C217.51 47.5866 217.238 42.566 216.97 37.5427C216.932 36.8263 216.584 36.5332 215.889 36.3731C207.928 34.5277 200.091 32.2671 192.205 30.1665C183.828 27.9331 175.424 25.7919 166.998 23.7239C161.946 22.4864 156.838 21.447 151.743 20.3588C148.507 19.6695 145.288 18.8146 141.935 18.801C132.608 18.7658 123.284 18.7793 113.957 18.782C113.292 18.782 112.613 18.7712 111.967 18.8906C107.971 19.6342 103.965 20.3425 99.996 21.2001C95.5523 22.1608 91.1277 23.2002 86.7085 24.2585C81.084 25.6046 75.4894 27.0402 69.9084 28.5165C60.0574 31.1164 50.2689 33.9143 40.3555 36.3107C39.7936 36.4463 39.5385 36.6255 39.5005 37.1926C39.1992 41.7112 38.8599 46.2297 38.5423 50.7455C38.2002 55.5951 37.8799 60.4474 37.5243 65.2943C36.9733 72.8578 36.634 80.4321 36.0259 87.9928C35.6242 92.9971 35.255 98.0149 35.008 103.027C34.7094 109.076 33.9737 115.096 33.8027 121.15C33.762 122.575 33.7702 124.003 33.6969 125.414C33.6317 126.697 33.306 127.995 33.2191 129.303C33.0047 132.554 33.0915 135.854 32.6246 139.053C31.965 143.572 32.1795 147.998 32.8526 152.449C33.8109 158.775 35.0867 165.044 37.0384 171.177C38.6617 176.276 40.3827 181.367 42.9913 186.108C46.3763 192.263 50.5512 197.987 55.0003 203.515C57.8478 207.051 61.0754 210.305 64.4387 213.431C68.2987 217.022 72.3569 220.406 76.7327 223.445C79.553 225.405 82.2214 227.57 85.2996 229.201C85.0445 230.718 86.0081 230.458 86.9745 230.192V230.2Z" fill="url(#paint0_linear_3187_328)"/>
</g>
<path d="M145.011 223.272C146.851 215.79 146.789 209.936 146.686 200.543C146.539 186.923 144.739 176.464 144.004 172.523C142.296 163.38 141.4 162.954 133.612 137.653C127.714 118.496 125.301 109.228 123.33 100.137C122.024 94.1125 120.949 88.3239 120.149 81.4932C119.695 77.6368 119.562 75.4251 118.924 62.3933C117.771 38.802 117.581 33.2142 121.128 26.2424C122.893 22.7714 124.937 20.2312 126.27 18.7278C122.201 18.7278 110.933 25.952 110.287 26.0714C106.291 26.815 100.783 26.5897 96.8146 27.4473C92.3709 28.408 87.3925 27.8435 82.9733 28.9019C77.3489 30.248 71.7814 31.4204 66.1977 32.894C56.3467 35.4938 50.3721 33.8601 40.4614 36.2564C39.8995 36.3921 39.6444 36.5712 39.6063 37.1384C39.305 41.6569 38.9657 46.1754 38.6481 50.6912C38.3061 55.5408 37.9858 60.3932 37.6302 65.2401C37.0791 72.8035 36.7398 80.3778 36.1318 87.9385C35.73 92.9428 35.3609 97.9607 35.1138 102.973C34.8152 109.022 34.0796 115.042 33.9086 121.099C33.8679 122.524 33.876 123.951 33.8027 125.362C33.7376 126.646 33.4118 127.943 33.325 129.251C33.1105 132.502 33.1974 135.802 32.7305 139.002C32.0709 143.52 32.2853 147.947 32.9585 152.397C33.9167 158.723 35.1926 164.992 37.1443 171.125C38.7676 176.225 40.4886 181.316 43.0972 186.057C46.4822 192.212 50.6544 197.935 55.1062 203.463C57.9537 207 61.1813 210.253 64.5445 213.38C68.4046 216.97 72.4627 220.354 76.8385 223.394C79.6589 225.353 82.3273 227.519 85.4055 229.15C85.1504 230.667 86.114 230.406 87.0804 230.14C88.9452 231.166 90.7938 232.216 92.6777 233.215C103.091 238.735 114.114 242.936 125.559 246.198C127.214 246.67 128.832 247.243 130.708 246.573C132.109 246.073 133.517 245.598 134.932 245.126C138.727 239.728 142.768 232.409 145.016 223.269L145.011 223.272Z" fill="url(#paint1_linear_3187_328)"/>
<path d="M113.045 2.25487C108.647 4.30924 107.732 10.0951 107.227 13.596C106.638 17.6857 104.336 33.6946 116.584 44.786C123.485 51.0359 135.583 56.2519 141.62 52.3467C143.61 51.0603 144.465 48.8893 146.172 44.5499C147.595 40.9378 149.566 35.928 148.955 29.4284C148.089 20.2258 142.603 13.9813 140.358 11.7071C133.178 4.43951 124.644 2.85734 120.127 2.01877C116.478 1.34303 114.627 1.51671 113.047 2.25487H113.045Z" fill="white"/>
<path d="M107.07 28.864C106.101 25.6264 105.876 22.1961 106.533 18.8825C107.355 14.7467 109.109 10.8822 111.394 7.18594C111.72 6.68388 112.046 6.37994 112.608 6C112.564 6.87657 112.238 20.2367 113.932 25.9711C115.485 31.2359 117.705 36.1968 121.099 40.5687C122.798 42.7588 124.709 44.7562 126.921 46.4279C129.435 48.3303 132.117 49.9477 135.219 50.7374C135.371 50.7754 136.541 51.1147 136.541 51.1147C136.541 51.1147 134.125 51.918 132.874 51.8582C127.613 51.6194 122.616 50.5556 118.308 47.2773C117.958 47.0086 111.115 42.368 107.073 28.8667L107.07 28.864Z" fill="#00AFD7"/>
<path d="M84.1759 231.378C81.0976 229.622 78.4239 227.302 75.6062 225.185C71.7082 222.254 68.0029 219.073 64.5174 215.662C60.538 211.765 56.6888 207.716 53.35 203.257C48.8194 197.205 44.574 190.942 41.1292 184.203C38.4772 179.012 36.7263 173.44 35.0732 167.858C33.0862 161.144 31.7886 154.281 30.8141 147.358C30.1273 142.486 29.9102 137.642 30.5807 132.695C30.8657 129.088 37.5244 22.0522 37.614 20.5841C37.614 20.5732 37.6221 20.5678 37.6302 20.5651C47.7689 17.9299 106.052 2.75964 110.118 1.94821C122.136 -0.450816 135.838 -0.193003 145.193 2.09204C150.445 3.37297 216.883 20.2123 218.034 20.5054C218.045 20.5054 218.05 20.5162 218.05 20.5244C218.335 26.2152 225.385 134.985 225.553 139.129C225.642 141.357 225.037 143.512 224.749 145.697C224.304 149.089 223.669 152.462 222.98 155.817C221.223 164.357 218.729 172.689 215.11 180.624C212.678 185.959 209.575 190.95 206.201 195.751C204.263 198.508 202.368 201.303 200.262 203.927C191.649 214.653 181.461 223.657 170.041 231.305C161.192 237.232 151.773 242.051 141.943 246.1C138.102 247.683 134.147 248.963 130.274 250.453C128.365 251.186 126.718 250.559 125.035 250.044C113.389 246.472 102.176 241.875 91.5784 235.834C89.6646 234.743 87.7835 233.592 85.8888 232.472L85.8833 232.466C85.4273 231.934 84.8735 231.552 84.1868 231.386H84.1786L84.1759 231.378ZM85.2101 224.392C98.3076 232.987 112.437 239.34 127.423 243.84C128.097 244.043 128.735 244.062 129.405 243.813C131.677 242.963 133.955 242.13 136.232 241.294C136.764 241.099 137.288 240.884 137.806 240.654C141.539 238.987 157.47 231.793 164.734 227.212C175.812 220.224 185.891 212.034 194.64 202.234C199.613 196.663 204.046 190.708 207.89 184.32C211.481 178.35 214.475 172.086 216.736 165.492C220.626 154.15 223.197 142.671 222.01 130.486C221.044 120.559 215.919 40.3841 215.838 39.1168C215.838 39.1059 215.83 39.1005 215.821 39.0978C208.107 37.0597 156.227 27.2926 148.445 26.6115C148.431 26.6115 148.42 26.6223 148.42 26.6359C148.426 26.7309 148.455 27.0782 148.621 27.849C149.506 32.0093 149.52 36.175 148.648 40.3489C147.742 44.7045 142.234 53.0577 141.938 53.2205C141.908 53.2368 141.903 53.2205 141.911 53.188C146.493 34.6037 143.876 18.6192 126.153 7.84807C126.091 7.81007 126.131 7.71509 126.202 7.73951C128.501 8.53466 137.573 11.7777 140.784 14.4644C140.966 14.6164 142.655 16.2718 142.655 16.2718C142.655 16.2718 140.277 12.3802 135.507 8.77619C131.639 6.1872 127.404 4.37165 122.752 3.93473C116.177 3.31598 116.24 3.15043 112.939 8.44511L112.542 9.03129C112.542 9.03129 112.591 6.17635 112.572 6.1872C112.062 6.4803 111.734 6.91994 111.465 7.40571C108.373 12.9989 106.443 18.8988 106.972 25.3794L107.062 26.4839C107.062 26.4839 107.054 26.5083 107.04 26.5083C99.103 26.9018 89.9578 28.3429 82.14 29.6482C68.2119 31.9713 40.0652 39.1711 39.3268 39.361C39.316 39.361 39.3105 39.3692 39.3105 39.38C39.2237 40.7695 33.2002 136.239 33.2952 139.897C33.439 145.314 34.3891 150.663 35.5916 155.947C37.2855 163.386 39.6933 170.583 43.005 177.47C44.802 181.207 46.7727 184.849 48.9905 188.345C54.7995 197.496 61.8111 205.64 69.9329 212.813C72.1479 214.769 84.0755 223.646 85.2047 224.387L85.2101 224.392Z" fill="#006EB7"/>
<path d="M130.271 250.451C130.58 250.331 130.893 250.215 131.205 250.098C133.45 247.604 135.871 244.437 138.034 240.551C137.956 240.586 137.877 240.621 137.806 240.654C137.288 240.884 136.764 241.099 136.232 241.294C133.954 242.13 131.677 242.963 129.405 243.813C128.737 244.062 128.097 244.041 127.423 243.84C112.437 239.34 98.3076 232.987 85.2101 224.393C84.0808 223.652 72.1533 214.775 69.9383 212.818C61.8192 205.643 54.8049 197.501 48.9958 188.35C46.7781 184.855 44.8073 181.213 43.0103 177.476C39.6986 170.585 37.2909 163.388 35.597 155.952C34.3945 150.669 33.4444 145.32 33.3005 139.903C33.2028 136.245 39.2263 40.775 39.3159 39.3855C39.3159 39.3746 39.3213 39.3692 39.3322 39.3665C40.0705 39.1765 68.2173 31.9767 82.1454 29.6537C89.9632 28.3484 99.1084 26.9073 107.046 26.5138C107.059 26.5138 107.07 26.503 107.067 26.4894L106.978 25.3849C106.446 18.9042 108.376 13.0044 111.47 7.41119C111.739 6.9227 112.07 6.48306 112.578 6.19268C112.597 6.18183 112.548 9.03677 112.548 9.03677L112.944 8.45059C116.245 3.15591 116.183 3.31874 122.757 3.94021C123.707 4.02976 124.641 4.17902 125.556 4.37985C126.044 3.37573 126.604 2.40689 127.236 1.48148C127.499 1.09611 127.795 0.691754 128.124 0.271111C122.184 0.254828 115.955 0.792166 110.121 1.9564C106.057 2.76783 47.7716 17.9381 37.641 20.576C37.6302 20.576 37.6248 20.5841 37.6248 20.595C37.5325 22.0604 30.8765 129.099 30.5915 132.706C29.9183 137.653 30.1381 142.497 30.8249 147.369C31.7994 154.292 33.097 161.155 35.084 167.869C36.7371 173.451 38.488 179.023 41.14 184.214C44.582 190.953 48.8302 197.216 53.3608 203.268C56.6969 207.727 60.5461 211.773 64.5282 215.673C68.0137 219.084 71.7163 222.268 75.617 225.196C78.4347 227.313 81.5482 229.95 85.8914 232.472C85.8914 232.472 89.6754 234.748 91.5892 235.842C102.184 241.886 113.4 246.483 125.045 250.052C126.731 250.567 128.379 251.194 130.284 250.462L130.271 250.451Z" fill="#005C9D"/>
<path d="M213.525 106.832C214.043 107.682 216.527 114.431 216.828 117.104C217.447 122.621 216.568 127.948 213.924 132.844C210.286 139.585 204.518 143.377 196.945 144.443C194.021 144.856 191.081 144.622 188.15 144.628C170.619 144.652 127.508 144.457 127.508 144.457L127.57 130.871C134.123 130.858 175.869 130.836 191.825 131.01C200.615 130.915 203.275 123.905 202.401 118.303C201.88 114.974 200.465 112.206 197.319 110.607C196.008 109.939 183.448 109.769 178.614 109.709C171.936 109.625 166.04 107.505 161.26 102.704L160.663 102.105C156.004 108.355 148.816 111.98 141.132 112.138C135.621 112.252 128.327 112.168 122.814 112.176L122.849 144.508L107.369 144.408L107.347 140.234C104.394 142.413 101.961 144.329 97.2842 145.094C95.5822 145.322 93.7336 145.263 92.2325 145.263C74.2489 145.263 36.8104 145.263 36.8104 145.263C36.8104 145.263 46.9844 134.999 51.1892 130.717C51.1892 130.717 75.9075 130.643 87.6993 130.619C89.9958 130.613 92.3139 130.874 94.5887 130.391C97.8923 129.688 99.8929 127.571 100.601 124.342C101.315 121.093 101.068 117.94 98.8451 115.234C97.0833 113.09 94.6946 112.287 92.0018 112.282C85.677 112.265 79.3495 112.311 73.0247 112.26C69.4008 112.23 65.7932 111.76 62.5928 109.988C58.54 107.744 55.2582 104.615 53.1626 100.39C48.3308 90.636 49.5306 81.3439 55.755 72.7275C59.0694 68.1411 63.9935 65.8154 69.5935 65.0284C71.5643 64.7515 73.5486 64.7163 75.5383 64.719C86.6976 64.7325 110.279 64.757 110.279 64.757L95.5578 79.3058C88.8258 79.2814 80.8669 79.2461 74.1322 79.2379C66.6944 79.2271 63.6515 85.9167 65.2747 91.4665C66.3551 95.1654 69.5311 97.6133 73.5594 97.5943C79.3875 97.5671 85.2182 97.5183 91.0463 97.5943C96.4726 97.6676 101.554 99.0326 106.09 102.132L107.51 103.155L107.347 97.6377C112.271 97.6838 136.137 97.7137 141.631 97.4993C144.842 97.3745 147.443 95.6973 149.061 92.7935C151.914 87.6671 149.731 80.3805 141.827 79.2434C140.602 79.1864 140.209 79.143 139.37 79.1457C127.765 79.1457 101.5 79.3357 101.5 79.3357L116.557 64.7027C123.694 64.7081 138.9 64.7244 141.094 64.7054C141.289 64.7054 141.482 64.7054 141.677 64.7163C148.548 65.0853 154.446 67.5332 158.947 72.9419C159.406 73.4955 159.498 73.5823 159.498 73.5823C163.258 69.2131 168.73 66.0488 174.39 65.1342C176.157 64.8492 177.978 64.7868 179.754 64.7651C188.519 64.6647 208.096 64.7 208.096 64.7C207.621 65.145 197.515 74.8687 193.942 78.375C193.942 78.375 183.578 78.3044 178.839 78.413C170.242 79.2868 170.152 84.2422 170.017 85.7104C170.076 87.5558 170.372 89.1407 170.671 90.3049C170.997 91.5777 171.635 92.7474 172.517 93.7217C172.701 93.9252 172.84 94.0744 172.859 94.0962C174.292 95.4504 176.119 95.8873 177.962 95.9117C184.208 95.9931 190.457 95.9416 196.703 95.9388C196.904 95.985 207.072 96.2455 213.528 106.84L213.525 106.832Z" fill="#005C9D"/>
<path d="M146.43 176.482C146.43 173.592 146.419 170.702 146.433 167.815C146.444 165.719 147.095 165.093 149.21 165.09C153.366 165.084 157.519 165.082 161.675 165.09C165.378 165.098 167.367 167.174 167.215 170.862C167.169 171.948 167.036 173.096 166.491 173.98C165.739 175.204 166.233 175.847 167.025 176.721C169.088 178.987 169.468 181.709 168.632 184.559C168.03 186.611 166.273 187.753 164.134 187.758C159.167 187.767 154.199 187.772 149.232 187.758C146.873 187.753 146.444 187.324 146.43 185.015C146.414 182.171 146.428 179.327 146.428 176.482H146.433H146.43ZM150.497 176.341C150.497 178.417 150.521 180.494 150.486 182.57C150.472 183.365 150.717 183.712 151.561 183.704C155.624 183.674 159.688 183.671 163.749 183.693C164.628 183.699 164.943 183.286 165.014 182.48C165.209 180.244 163.811 178.591 161.564 178.537C159.444 178.485 157.321 178.548 155.198 178.504C151.629 178.434 152.226 179.242 152.153 175.305C152.139 174.539 152.438 174.298 153.198 174.314C155.228 174.358 157.261 174.341 159.292 174.32C161.987 174.287 163.152 173.014 163.049 170.355C163.016 169.494 162.693 169.136 161.83 169.142C158.399 169.158 154.967 169.161 151.536 169.125C150.692 169.117 150.459 169.443 150.475 170.249C150.521 172.279 150.491 174.311 150.494 176.341H150.497Z" fill="#005C9D"/>
<path d="M142.033 175.625C142.057 178.879 142.098 182.135 142.101 185.389C142.101 186.684 141.028 187.742 139.726 187.745C134.94 187.756 130.151 187.786 125.366 187.726C121.84 187.68 119.595 185.321 119.587 181.769C119.576 177.978 119.576 174.184 119.616 170.393C119.644 167.625 121.926 165.163 124.684 165.122C130.146 165.038 135.613 165.093 141.075 165.087C141.487 165.087 141.938 165.071 141.943 165.641C141.951 166.593 141.979 167.502 141.981 168.428C141.984 169.307 141.338 169.131 140.825 169.131C135.993 169.133 131.161 169.131 126.329 169.131C123.911 169.131 123.628 169.418 123.628 171.869C123.628 175.12 123.612 178.371 123.626 181.62C123.631 183.234 124.101 183.69 125.746 183.696C129.359 183.709 138.015 183.704 138.015 183.704C137.994 180.059 138.043 178.597 138.043 178.597C136.102 178.599 130.45 178.553 128.506 178.51C127.551 178.542 127.152 178.333 127.163 177.259C127.035 174.298 127.141 174.349 130.075 174.349C133.102 174.349 136.126 174.385 139.153 174.333C139.891 174.322 140.496 174.328 141.083 174.58C141.46 174.743 141.783 175.025 141.962 175.392C142.003 175.473 142.03 175.554 142.03 175.622L142.033 175.625Z" fill="#005C9D"/>
<path d="M89.2818 187.579C89.2764 187.674 89.195 187.748 89.1 187.748C87.4007 187.748 85.6661 187.742 83.9343 187.748C83.3751 187.748 83.0249 187.373 82.6584 187.056C80.6768 185.346 78.698 183.633 76.7327 181.905C75.6659 180.966 74.6452 180.366 73.0246 180.366C72.2374 180.366 71.9198 180.179 71.9008 179.316C71.833 176.219 71.7977 176.219 74.8922 176.219C76.8793 176.219 78.869 176.252 80.856 176.219C83.4592 176.176 84.678 174.952 84.6726 172.363C84.6645 168.659 85.0906 169.18 81.5536 169.147C78.2555 169.117 74.9574 169.185 71.6593 169.117C70.5517 169.095 70.1934 169.386 70.207 170.539C70.2694 175.823 70.2097 181.107 70.2586 186.391C70.2694 187.441 69.979 187.81 68.9013 187.786C65.5326 187.707 66.2058 188.049 66.1841 185.05C66.1434 179.405 66.1597 173.758 66.1678 168.113C66.1705 165.581 66.6917 165.079 69.1673 165.082C73.9096 165.087 78.6545 165.079 83.3968 165.082C86.7356 165.087 88.6249 166.843 88.7959 170.176C88.8529 171.299 88.7959 172.433 88.6928 173.554C88.3616 177.071 86.1927 179.449 82.7263 180.176C82.3816 180.249 81.8848 180.16 81.7572 180.523C81.5862 181.012 82.1481 181.156 82.4277 181.4C84.5993 183.302 86.7899 185.188 88.967 187.083C89.1 187.197 89.2981 187.286 89.2846 187.571L89.2818 187.579Z" fill="#005C9D"/>
<path d="M115.105 175.831C115.105 178.857 115.119 181.886 115.1 184.912C115.086 187.104 114.44 187.739 112.266 187.748C109.51 187.758 106.752 187.775 103.997 187.753C97.01 187.701 92.4958 183.153 92.4768 176.16C92.4687 172.908 92.504 169.655 92.4442 166.403C92.4279 165.432 92.6397 165.049 93.7038 165.06C96.497 165.087 96.4997 165.038 96.5051 167.812C96.5106 170.702 96.4563 173.595 96.5269 176.485C96.6273 180.708 99.2332 183.43 103.441 183.663C105.694 183.788 107.958 183.663 110.216 183.715C111.283 183.739 111.071 183.042 111.071 182.439C111.071 177.199 111.112 171.959 111.033 166.718C111.014 165.386 111.416 165.008 112.711 165.065C115.461 165.19 115.113 164.707 115.121 167.562C115.129 170.317 115.121 173.074 115.121 175.829H115.105V175.831Z" fill="#005C9D"/>
<path d="M182.449 176.179C183.668 176.179 184.889 176.219 186.106 176.173C188.592 176.078 189.797 174.8 189.797 172.336C189.797 170.303 189.83 168.273 189.778 166.243C189.754 165.345 190.088 165.087 190.956 165.074C193.869 165.027 193.866 164.998 193.858 167.858C193.853 169.484 193.872 171.109 193.853 172.732C193.804 177.077 190.796 180.152 186.461 180.266C184.558 180.314 184.613 179.929 184.632 182.209C184.645 183.745 184.621 185.278 184.64 186.814C184.648 187.482 184.431 187.791 183.703 187.777C179.794 187.696 180.617 188.32 180.541 184.855C180.514 183.682 180.522 182.507 180.554 181.335C180.576 180.594 180.337 180.328 179.536 180.323C174.148 180.279 171.284 177.348 171.301 171.98C171.306 170.04 171.339 168.097 171.287 166.156C171.263 165.307 171.578 165.09 172.384 165.074C175.359 165.011 175.356 164.984 175.362 167.896C175.364 169.522 175.337 171.147 175.378 172.77C175.429 174.841 176.703 176.105 178.793 176.17C180.012 176.208 181.23 176.179 182.449 176.179Z" fill="#005C9D"/>
<defs>
<linearGradient id="paint0_linear_3187_328" x1="130.556" y1="92.2345" x2="122.696" y2="270.446" gradientUnits="userSpaceOnUse">
<stop offset="0.08" stop-color="white"/>
<stop offset="0.19" stop-color="#CAEEF6"/>
<stop offset="0.34" stop-color="#8DDBED"/>
<stop offset="0.48" stop-color="#5ACBE5"/>
<stop offset="0.61" stop-color="#33BFDF"/>
<stop offset="0.73" stop-color="#17B6DA"/>
<stop offset="0.83" stop-color="#06B0D7"/>
<stop offset="0.91" stop-color="#00AFD7"/>
</linearGradient>
<linearGradient id="paint1_linear_3187_328" x1="101.508" y1="241.083" x2="75.5483" y2="56.6083" gradientUnits="userSpaceOnUse">
<stop offset="0.08" stop-color="white"/>
<stop offset="0.19" stop-color="#CAEEF6"/>
<stop offset="0.34" stop-color="#8DDBED"/>
<stop offset="0.48" stop-color="#5ACBE5"/>
<stop offset="0.61" stop-color="#33BFDF"/>
<stop offset="0.73" stop-color="#17B6DA"/>
<stop offset="0.83" stop-color="#06B0D7"/>
<stop offset="0.91" stop-color="#00AFD7"/>
</linearGradient>
</defs>
</svg>
