<svg width="256" height="256" viewBox="0 0 256 256" fill="none" xmlns="http://www.w3.org/2000/svg">
<path d="M127.805 247.75C109.395 238.015 84.385 221.755 63.915 197.505C41.47 170.91 30.085 141.15 30.085 109.045V7.58502H225.41V109.045C225.41 138.215 214.8 167.285 194.725 193.1C177.73 214.96 154.065 234.265 127.8 247.745L127.805 247.75Z" fill="#2B64CA"/>
<path d="M23 0.5V109.045C23 162.43 52.88 202.175 86.3 228.995C90.98 232.755 95.73 236.255 100.475 239.5C109.76 245.865 119.03 251.26 127.75 255.705C137.01 251.155 146.185 245.805 155.025 239.725C159.865 236.395 164.6 232.85 169.2 229.1C205.085 199.835 232.5 157.99 232.5 109.045V0.5H23ZM86.3 219.84C79.69 214.23 73.14 207.965 66.94 201L86.3 75.115V219.84ZM86.3 65.265L65.65 199.53C65.07 198.86 64.49 198.185 63.915 197.505C41.465 170.91 30.085 141.15 30.085 109.045V7.585H86.3V65.265ZM155.025 231.03C146.42 237.26 137.28 242.885 127.805 247.75C119.665 243.445 110.235 237.865 100.475 230.88V187.03C100.475 171.965 112.685 159.755 127.75 159.755C135.28 159.755 142.1 162.81 147.035 167.745C151.97 172.68 155.025 179.5 155.025 187.03V231.03ZM101.15 90.16C101.15 59.47 113.06 34.59 127.75 34.59C142.44 34.59 154.35 59.47 154.35 90.16C154.35 120.85 142.44 145.73 127.75 145.73C113.06 145.73 101.15 120.85 101.15 90.16ZM162.19 20.095H93.31V7.585H162.19V20.095ZM169.2 219.815V75.15L188.5 200.65C182.645 207.37 176.17 213.79 169.2 219.815ZM225.41 109.045C225.41 138.22 214.8 167.285 194.725 193.1C193.135 195.145 191.49 197.165 189.795 199.16L169.2 65.265V7.585H225.41V109.045Z" fill="#1C3266"/>
<path d="M75.385 204.515V189.035H85.08C86.235 189.035 87.2 189.27 87.97 189.73C88.74 190.195 89.325 190.805 89.715 191.555C90.105 192.305 90.3 193.115 90.3 193.985C90.3 194.975 90.065 195.855 89.6 196.63C89.135 197.405 88.505 198.02 87.71 198.485L90.75 204.515H85.17L82.805 199.32H80.355V204.515H75.385ZM80.36 195.875H83.85C84.24 195.875 84.57 195.72 84.84 195.415C85.11 195.105 85.245 194.7 85.245 194.19C85.245 193.875 85.185 193.6 85.065 193.355C84.945 193.115 84.78 192.925 84.57 192.78C84.36 192.64 84.12 192.565 83.85 192.565H80.36V195.87V195.875Z" fill="white"/>
<path d="M92.735 204.515V189.035H106.125V192.745H97.71V194.885H104.91V198.44H97.71V200.805H106.28V204.515H92.735ZM97.39 187.595L99.46 184.6H104.14L104.185 184.69L100.585 187.59H97.39V187.595Z" fill="white"/>
<path d="M116.38 204.785C114.625 204.785 113.125 204.485 111.88 203.885C110.635 203.285 109.685 202.39 109.025 201.195C108.365 200 108.035 198.53 108.035 196.775C108.035 195.02 108.365 193.53 109.025 192.345C109.685 191.16 110.635 190.265 111.88 189.665C113.125 189.065 114.625 188.765 116.38 188.765C118.135 188.765 119.655 189.065 120.9 189.665C122.145 190.265 123.095 191.16 123.76 192.345C124.42 193.53 124.75 195.01 124.75 196.775C124.75 198.54 124.42 200.005 123.76 201.195C123.1 202.385 122.145 203.285 120.9 203.885C119.655 204.485 118.15 204.785 116.38 204.785ZM116.38 201.075C116.92 201.075 117.395 200.99 117.81 200.815C118.225 200.64 118.565 200.4 118.845 200.085C119.12 199.77 119.33 199.39 119.465 198.95C119.6 198.51 119.67 198.025 119.67 197.5V196.06C119.67 195.535 119.605 195.05 119.465 194.61C119.33 194.17 119.125 193.79 118.845 193.475C118.565 193.16 118.22 192.915 117.81 192.745C117.395 192.575 116.92 192.485 116.38 192.485C115.84 192.485 115.365 192.57 114.95 192.745C114.535 192.92 114.195 193.16 113.925 193.475C113.655 193.79 113.45 194.17 113.315 194.61C113.18 195.05 113.115 195.535 113.115 196.06V197.5C113.115 198.025 113.18 198.51 113.315 198.95C113.45 199.395 113.655 199.77 113.925 200.085C114.195 200.4 114.535 200.645 114.95 200.815C115.365 200.985 115.84 201.075 116.38 201.075Z" fill="white"/>
<path d="M127.205 204.515V189.035H132.18V200.555H140.12V204.515H127.205Z" fill="white"/>
<path d="M140.545 204.515L146.19 189.035H151.97L157.62 204.515H152.355L151.7 202.33H146.28L145.63 204.515H140.545ZM147.32 198.87H150.695L149.95 196.395C149.89 196.215 149.825 196 149.75 195.745C149.675 195.49 149.6 195.22 149.525 194.935C149.45 194.65 149.375 194.37 149.3 194.09C149.225 193.815 149.155 193.57 149.095 193.36H148.915C148.855 193.63 148.775 193.94 148.68 194.285C148.58 194.63 148.48 194.985 148.375 195.355C148.27 195.725 148.165 196.07 148.06 196.4L147.315 198.875L147.32 198.87Z" fill="white"/>
<path d="M159.265 204.515V189.035H164.24V204.515H159.265Z" fill="white"/>
<path d="M174.295 204.785C173.23 204.785 172.235 204.705 171.315 204.55C170.395 204.395 169.585 204.125 168.885 203.74C168.19 203.36 167.64 202.825 167.245 202.145C166.845 201.46 166.65 200.605 166.65 199.57V199.445C166.65 199.395 166.66 199.335 166.675 199.275H171.375C171.36 199.335 171.355 199.39 171.355 199.445V199.59C171.355 200.04 171.46 200.385 171.67 200.625C171.88 200.865 172.175 201.025 172.56 201.11C172.945 201.195 173.375 201.235 173.855 201.235C174.035 201.235 174.225 201.235 174.43 201.225C174.635 201.22 174.825 201.195 175.015 201.16C175.205 201.125 175.375 201.065 175.535 200.99C175.695 200.915 175.815 200.815 175.905 200.685C175.995 200.56 176.04 200.395 176.04 200.2C176.04 199.915 175.91 199.69 175.655 199.525C175.4 199.36 175.055 199.22 174.62 199.1C174.185 198.98 173.695 198.87 173.16 198.765C172.62 198.66 172.055 198.535 171.47 198.395C170.885 198.255 170.32 198.07 169.78 197.845C169.24 197.62 168.75 197.33 168.315 196.98C167.88 196.63 167.535 196.185 167.28 195.65C167.025 195.12 166.895 194.475 166.895 193.725C166.895 192.825 167.085 192.06 167.455 191.43C167.83 190.8 168.345 190.29 168.995 189.9C169.645 189.51 170.39 189.225 171.225 189.045C172.06 188.865 172.93 188.775 173.845 188.775C174.76 188.775 175.65 188.87 176.465 189.055C177.28 189.24 178.005 189.53 178.635 189.92C179.265 190.31 179.76 190.805 180.12 191.405C180.48 192.005 180.665 192.72 180.68 193.545V193.815H176.025V193.725C176.025 193.455 175.96 193.2 175.82 192.96C175.685 192.72 175.47 192.525 175.18 192.375C174.89 192.225 174.5 192.15 174.02 192.15C173.57 192.15 173.19 192.195 172.885 192.285C172.575 192.375 172.35 192.5 172.2 192.655C172.05 192.81 171.975 192.98 171.975 193.16C171.975 193.445 172.1 193.675 172.36 193.855C172.615 194.035 172.96 194.185 173.395 194.305C173.83 194.425 174.32 194.535 174.86 194.64C175.4 194.745 175.965 194.86 176.55 194.99C177.135 195.12 177.695 195.285 178.24 195.495C178.785 195.705 179.265 195.98 179.7 196.315C180.135 196.65 180.48 197.07 180.735 197.565C180.99 198.06 181.115 198.67 181.115 199.39C181.115 200.665 180.82 201.7 180.225 202.495C179.63 203.29 178.82 203.87 177.795 204.24C176.77 204.61 175.6 204.79 174.295 204.79V204.785Z" fill="white"/>
<path d="M107.955 184.765C107.315 184.765 106.72 184.72 106.165 184.625C105.61 184.53 105.125 184.37 104.705 184.14C104.285 183.91 103.96 183.59 103.72 183.18C103.48 182.77 103.36 182.255 103.36 181.635V181.56C103.36 181.53 103.36 181.495 103.375 181.46H106.195C106.185 181.495 106.18 181.53 106.18 181.56V181.65C106.18 181.92 106.245 182.125 106.37 182.27C106.495 182.415 106.675 182.51 106.905 182.56C107.135 182.61 107.395 182.635 107.68 182.635C107.79 182.635 107.905 182.635 108.025 182.63C108.145 182.63 108.265 182.61 108.375 182.59C108.485 182.57 108.59 182.535 108.685 182.49C108.78 182.445 108.855 182.385 108.91 182.31C108.965 182.235 108.99 182.135 108.99 182.02C108.99 181.85 108.915 181.715 108.76 181.615C108.605 181.515 108.4 181.43 108.14 181.36C107.88 181.29 107.585 181.22 107.26 181.155C106.935 181.09 106.6 181.02 106.25 180.93C105.9 180.84 105.56 180.735 105.24 180.6C104.915 180.465 104.625 180.29 104.365 180.08C104.105 179.87 103.895 179.605 103.745 179.285C103.59 178.965 103.515 178.58 103.515 178.13C103.515 177.59 103.625 177.13 103.85 176.755C104.075 176.375 104.385 176.07 104.775 175.835C105.165 175.6 105.61 175.43 106.11 175.32C106.61 175.21 107.135 175.16 107.685 175.16C108.235 175.16 108.765 175.215 109.26 175.33C109.75 175.445 110.185 175.615 110.565 175.85C110.945 176.085 111.24 176.38 111.455 176.74C111.67 177.1 111.785 177.53 111.79 178.025V178.185H108.995V178.13C108.995 177.97 108.955 177.815 108.875 177.67C108.795 177.525 108.665 177.41 108.49 177.32C108.315 177.23 108.085 177.185 107.795 177.185C107.525 177.185 107.3 177.21 107.115 177.265C106.93 177.32 106.795 177.395 106.705 177.49C106.615 177.585 106.57 177.685 106.57 177.795C106.57 177.965 106.645 178.105 106.8 178.215C106.955 178.325 107.16 178.415 107.42 178.485C107.68 178.555 107.975 178.625 108.295 178.69C108.615 178.755 108.955 178.825 109.305 178.9C109.655 178.975 109.995 179.08 110.315 179.205C110.635 179.33 110.93 179.495 111.19 179.7C111.45 179.905 111.66 180.155 111.81 180.45C111.965 180.745 112.04 181.11 112.04 181.545C112.04 182.31 111.86 182.93 111.505 183.41C111.15 183.885 110.665 184.235 110.045 184.455C109.43 184.675 108.73 184.785 107.945 184.785L107.955 184.765Z" fill="white"/>
<path d="M115.76 184.605V177.695H112.71V175.32H121.78V177.695H118.74V184.605H115.755H115.76Z" fill="white"/>
<path d="M121.065 184.605L124.455 175.315H127.925L131.315 184.605H128.155L127.765 183.295H124.51L124.12 184.605H121.07H121.065ZM125.13 181.215H127.155L126.71 179.73C126.675 179.62 126.635 179.49 126.59 179.34C126.545 179.185 126.5 179.025 126.455 178.855C126.41 178.685 126.365 178.515 126.32 178.35C126.275 178.185 126.235 178.04 126.2 177.91H126.09C126.055 178.07 126.005 178.255 125.95 178.465C125.895 178.675 125.83 178.885 125.77 179.105C125.705 179.325 125.645 179.535 125.58 179.735L125.135 181.22L125.13 181.215Z" fill="white"/>
<path d="M132.3 184.605V175.315H136.325C137.385 175.315 138.28 175.48 139 175.815C139.72 176.15 140.265 176.655 140.64 177.34C141.015 178.025 141.2 178.895 141.2 179.96C141.2 181.025 141.015 181.885 140.64 182.57C140.265 183.26 139.72 183.77 139 184.1C138.28 184.435 137.39 184.6 136.325 184.6H132.3V184.605ZM135.28 182.375H136.265C136.59 182.375 136.87 182.33 137.11 182.24C137.35 182.15 137.545 182.02 137.695 181.85C137.85 181.68 137.96 181.47 138.035 181.215C138.105 180.965 138.145 180.68 138.145 180.365V179.555C138.145 179.24 138.11 178.955 138.035 178.705C137.965 178.455 137.85 178.24 137.695 178.07C137.54 177.9 137.345 177.77 137.11 177.68C136.87 177.59 136.59 177.545 136.265 177.545H135.28V182.38V182.375Z" fill="white"/>
<path d="M142.705 184.605V175.315H150.74V177.545H145.69V178.83H150.01V180.965H145.69V182.38H150.835V184.61H142.71L142.705 184.605Z" fill="white"/>
<path d="M102.77 103.085L110.89 87.47L103.565 73.57H112.375L115.805 81.12H115.935L119.4 73.57H127.55L120.19 87.51L128.31 103.085H119.465L115.275 93.905H115.145L110.955 103.085H102.77Z" fill="white"/>
<path d="M136.265 103.085L128.215 73.57H136.005L139.14 87.21C139.23 87.58 139.35 88.125 139.505 88.84C139.66 89.555 139.83 90.315 140.015 91.115C140.2 91.915 140.36 92.645 140.495 93.305H140.76C140.89 92.705 141.045 92.02 141.22 91.245C141.395 90.47 141.565 89.72 141.73 88.995C141.895 88.265 142.02 87.67 142.11 87.215L145.28 73.575H152.74L144.72 103.09H136.27L136.265 103.085Z" fill="white"/>
</svg>
