<svg width="256" height="256" viewBox="0 0 256 256" fill="none" xmlns="http://www.w3.org/2000/svg">
<path d="M133.869 46.4767C139.043 46.6325 144.2 47.0193 149.335 47.6747C158.064 48.7867 166.643 50.6131 175.072 53.1486C187.47 56.8821 199.219 62.0928 210.381 68.6465C212.987 70.1775 214.614 72.2941 215.044 75.2969C215.211 76.468 215.028 77.6283 214.915 78.7833C213.964 88.6622 212.213 98.3907 209.559 107.953C203.484 129.832 193.406 149.671 179.214 167.403C168.765 180.457 156.566 191.62 142.658 200.913C138.135 203.938 132.86 206.86 128.062 209.428C117.845 203.981 107.923 197.389 99.0865 189.906C81.6977 175.176 67.994 157.567 57.8841 137.16C51.5077 124.283 46.9308 110.784 44.0676 96.7093C42.9073 90.999 42.0478 85.2403 41.5159 79.4333C41.3602 77.768 41.0432 76.1081 41.4461 74.4374C42.0048 72.1329 43.2618 70.3172 45.2924 69.087C50.3634 66.0089 55.6064 63.2639 60.9944 60.7982C69.7076 56.8123 78.7055 53.6321 87.9989 51.2792C93.9778 49.7643 100.027 48.6094 106.14 47.7982C111.56 47.0784 117.007 46.654 122.47 46.4821C123.572 46.4338 128.175 46.3693 133.864 46.4821L133.869 46.4767Z" fill="#FFD207"/>
<path d="M128.444 52.7887C133.074 52.7242 138.146 52.9445 143.206 53.4279C150.431 54.1155 157.57 55.3189 164.629 57.0432C176.872 60.0354 188.539 64.5155 199.654 70.4515C201.383 71.3754 203.076 72.3746 204.795 73.3201C208.098 75.1465 209.463 77.9721 209.097 81.6787C208.652 86.2448 208.061 90.7841 207.255 95.3018C205.59 104.622 203.086 113.711 199.724 122.564C194.078 137.434 186.305 151.094 176.372 163.519C166.697 175.622 155.416 185.979 142.561 194.628C138.011 197.69 132.913 200.618 128.068 203.18C111.539 194.435 96.4543 182.917 84.1205 168.859C69.7614 152.496 59.4098 133.888 52.9957 113.088C50.6589 105.503 48.9561 97.7729 47.8494 89.9192C47.4304 86.9432 47.0651 83.951 46.8449 80.9535C46.6139 77.8378 47.9085 75.3506 50.573 73.7122C54.2474 71.4506 58.0722 69.4523 61.9614 67.5829C71.8779 62.8073 82.1973 59.1597 92.9142 56.6672C98.7481 55.3135 104.646 54.3089 110.609 53.6643C116.389 53.0358 122.186 52.7565 128.449 52.7941L128.444 52.7887Z" fill="#010101"/>
<path d="M199.165 81.5391C198.859 84.0209 198.515 86.9486 198.15 89.4196C197.038 96.9081 195.362 104.268 193.062 111.482C187.438 129.156 178.714 145.148 166.848 159.405C155.975 172.474 142.803 183.46 128.063 191.931C119.72 187.14 111.426 181.354 104.238 174.962C82.8259 155.908 68.4346 132.513 60.9838 104.853C59.2271 98.337 57.9916 91.7188 57.261 85.0093C57.1536 84.0424 56.9387 82.5866 56.9387 81.523C56.9387 81.523 56.9763 81.4639 57.3577 81.249C62.88 78.1064 68.5904 75.3453 74.4887 72.9763C81.644 70.097 88.9982 67.8408 96.5296 66.1755C101.359 65.1065 106.237 64.3061 111.152 63.7259C119.065 62.7966 126.994 62.5226 134.944 62.8986C139.725 63.1242 144.479 63.6077 149.217 64.3007C159.902 65.8532 170.275 68.6036 180.331 72.5197C186.638 74.9746 192.713 77.8486 198.59 81.2114C198.886 81.3779 199.165 81.5337 199.165 81.5337V81.5391Z" fill="#FFD207"/>
<path d="M124.087 85.8312H144.457L152.317 114.716L160.117 85.8312H180.476V133.308H167.788V97.1014L158.016 133.308H146.531L136.77 97.1014V133.308H124.087V85.8312Z" fill="black"/>
<path d="M70.9216 117.601L85.6621 116.725C85.979 118.992 86.629 120.722 87.6121 121.909C89.2075 123.832 91.4852 124.793 94.4505 124.793C96.6637 124.793 98.3666 124.305 99.5645 123.322C100.762 122.339 101.359 121.2 101.359 119.905C101.359 118.61 100.789 117.574 99.6505 116.601C98.5117 115.629 95.8633 114.71 91.7162 113.851C84.9208 112.406 80.0753 110.483 77.1799 108.087C74.2629 105.691 72.8018 102.634 72.8018 98.9225C72.8018 96.4836 73.5485 94.1791 75.0419 92.0088C76.5353 89.8386 78.7807 88.1357 81.7782 86.8894C84.7757 85.6485 88.8852 85.0254 94.1067 85.0254C100.515 85.0254 105.398 86.1535 108.761 88.4097C112.124 90.6659 114.122 94.2543 114.762 99.1749L100.161 99.9861C99.774 97.8481 98.9575 96.2956 97.7166 95.3233C96.4757 94.351 94.7567 93.8675 92.5703 93.8675C90.7708 93.8675 89.4117 94.2274 88.4985 94.9526C87.5852 95.6778 87.1286 96.5535 87.1286 97.5902C87.1286 98.3477 87.5047 99.0245 88.2567 99.6316C88.9873 100.26 90.717 100.84 93.4567 101.383C100.225 102.763 105.076 104.165 108.009 105.578C110.937 106.991 113.069 108.748 114.402 110.843C115.734 112.938 116.4 115.28 116.4 117.869C116.4 120.915 115.508 123.719 113.73 126.287C111.952 128.855 109.465 130.805 106.274 132.131C103.083 133.458 99.0596 134.124 94.2034 134.124C85.6782 134.124 79.7745 132.572 76.4869 129.462C73.1993 126.351 71.346 122.403 70.9109 117.611L70.9216 117.601Z" fill="black"/>
<path d="M10.1979 59.8151L13.5392 56.9841C15.8491 59.5787 18.1322 60.1266 20.3991 58.6279C21.5219 57.8866 22.2095 57.0056 22.4619 55.9957C22.7144 54.9804 22.5533 54.0457 21.9785 53.1754C21.64 52.6651 21.2425 52.3052 20.7805 52.101C20.3186 51.8915 19.7814 51.8271 19.1743 51.9023C18.562 51.9775 17.1975 52.332 15.0756 52.9605C13.1739 53.53 11.6752 53.7771 10.5686 53.7072C9.46197 53.632 8.38759 53.2829 7.35082 52.6597C6.31404 52.0366 5.4438 51.1986 4.75082 50.1457C3.93967 48.9209 3.48843 47.637 3.39711 46.2887C3.30578 44.9403 3.57975 43.694 4.22975 42.5444C4.87975 41.3949 5.9219 40.342 7.36156 39.3911C9.52643 37.9569 11.6 37.425 13.593 37.7957C15.5859 38.1664 17.3425 39.418 18.8574 41.5506L15.269 44.2151C14.3074 43.1192 13.3996 42.5122 12.5401 42.3887C11.6806 42.2705 10.7512 42.5391 9.75205 43.1998C8.75288 43.8606 8.119 44.5804 7.85578 45.3593C7.59255 46.1329 7.66776 46.8312 8.07602 47.4544C8.47891 48.0667 9.06445 48.4159 9.83263 48.5072C10.6008 48.5986 12.0297 48.3085 14.1301 47.6424C16.3541 46.944 18.0839 46.6217 19.3086 46.6647C20.5334 46.713 21.6777 47.0622 22.7467 47.7122C23.8103 48.3622 24.788 49.3667 25.6797 50.7097C26.969 52.6597 27.4578 54.6903 27.1355 56.8122C26.8132 58.9341 25.3789 60.8411 22.8272 62.5279C18.3148 65.5146 14.1087 64.6122 10.1925 59.8204L10.1979 59.8151Z" fill="#FFD207"/>
<path d="M37.1325 53.5836L26.6734 33.8151L20.8771 36.8824L18.7499 32.8589L34.2478 24.656L36.375 28.6796L30.5949 31.7362L41.054 51.5047L37.1271 53.5836H37.1325Z" fill="#FFD207"/>
<path d="M64.5775 41.1584L60.135 43.0547L55.9664 38.2039L47.8387 41.6688L48.5478 47.9915L44.1912 49.8501L41.5428 21.7176L45.8833 19.8696L64.5775 41.1638V41.1584ZM52.856 34.5779L46.1358 26.5845L47.3015 36.9469L52.856 34.5779Z" fill="#FFD207"/>
<path d="M58.6901 15.019L66.3934 12.8487C68.338 12.3008 69.869 12.1074 70.9809 12.2686C72.0929 12.4297 73.2103 12.9186 74.3276 13.7351C75.4504 14.5516 76.4764 15.7281 77.4057 17.2698C78.3351 18.8115 79.1408 20.826 79.8231 23.3132C80.4355 25.5532 80.7148 27.5731 80.6718 29.3727C80.6235 31.1722 80.3495 32.6603 79.8499 33.8421C79.3504 35.0239 78.6251 36.0123 77.6743 36.8074C76.7235 37.6024 75.3966 38.2417 73.6937 38.7197L65.7648 40.9545L58.6901 15.0136V15.019ZM64.0996 18.2206L68.7785 35.3838L71.9479 34.4921C73.307 34.1107 74.2524 33.7024 74.7896 33.2727C75.3268 32.8429 75.719 32.3111 75.9661 31.6772C76.2132 31.0433 76.3099 30.1247 76.2561 28.9214C76.2024 27.7181 75.9231 26.1925 75.4181 24.3446C74.8917 22.4214 74.3491 20.9442 73.7851 19.9128C73.221 18.8814 72.5764 18.1239 71.8512 17.6405C71.126 17.157 70.3417 16.9314 69.4983 16.9529C68.8644 16.969 67.6987 17.2107 66.0066 17.6888L64.0942 18.2314L64.0996 18.2206Z" fill="#FFD207"/>
<path d="M86.9247 35.1795L82.1598 8.68537L98.2808 5.78455L99.0866 10.2647L87.3383 12.3759L88.3966 18.2473L99.3122 16.2812L100.113 20.7453L89.197 22.7114L90.4916 29.9043L102.637 27.718L103.443 32.1981L86.9247 35.1688V35.1795Z" fill="#FFD207"/>
<path d="M121.375 30.8874L121.348 3.96888L127.73 3.95277L131.592 22.3193L135.39 3.93128L141.804 3.90979L141.831 30.8283L137.856 30.8391L137.834 9.63085L133.639 30.8498L129.535 30.8606L125.334 9.66846L125.355 30.8767L121.38 30.8874H121.375Z" fill="#FFD207"/>
<path d="M144.882 17.9466C145.274 14.7664 146.058 12.2041 147.224 10.2648C148.395 8.32555 149.776 6.95035 151.377 6.13382C152.977 5.31729 154.825 5.0487 156.931 5.32266C159.977 5.72018 162.308 7.24043 163.931 9.8834C165.553 12.5264 166.09 16.0611 165.542 20.4768C164.989 24.9462 163.544 28.3036 161.202 30.5491C159.144 32.5367 156.587 33.3317 153.531 32.9342C150.453 32.5313 148.153 31.1131 146.644 28.6796C144.925 25.897 144.334 22.3193 144.877 17.9359L144.882 17.9466ZM149.33 18.3441C148.949 21.4168 149.233 23.7966 150.179 25.478C151.124 27.1648 152.435 28.1156 154.116 28.3358C155.808 28.5561 157.302 27.9813 158.602 26.6007C159.902 25.2201 160.745 22.9532 161.137 19.7945C161.519 16.7003 161.261 14.3367 160.364 12.7144C159.467 11.0921 158.14 10.1627 156.394 9.93712C154.643 9.70612 153.128 10.2702 151.844 11.6185C150.56 12.9669 149.722 15.2069 149.335 18.3441H149.33Z" fill="#FFD207"/>
<path d="M165.139 34.3308L171.945 8.35767L175.974 9.49651L179.826 29.2113L184.371 11.8655L188.228 12.956L181.421 38.9291L177.258 37.7526L173.439 18.4837L169.002 35.4212L165.145 34.3308H165.139Z" fill="#FFD207"/>
<path d="M188.615 40.8254L195.99 19.7138L189.802 17.5543L191.306 13.2568L207.862 19.037L206.358 23.3345L200.186 21.1804L192.81 42.2919L188.615 40.8254Z" fill="#FFD207"/>
<path d="M204.22 31.6664C205.643 28.8032 207.228 26.6598 208.979 25.2363C210.731 23.8127 212.503 22.9908 214.298 22.7759C216.092 22.5611 217.94 22.9425 219.852 23.9255C222.624 25.3491 224.343 27.5892 225.02 30.635C225.697 33.6862 225.047 37.1995 223.07 41.1747C221.072 45.1928 218.59 47.8627 215.619 49.1734C213.003 50.3391 210.306 50.2048 207.529 48.7759C204.73 47.3362 203.006 45.209 202.367 42.3995C201.641 39.1871 202.265 35.6094 204.22 31.6664ZM208.324 33.5734C206.949 36.34 206.438 38.6767 206.782 40.5891C207.126 42.5015 208.061 43.8499 209.592 44.6342C211.128 45.4238 212.745 45.397 214.437 44.5428C216.129 43.6941 217.682 41.8461 219.089 39.0044C220.475 36.2164 221.007 33.9065 220.685 32.0693C220.362 30.2321 219.406 28.8999 217.816 28.0834C216.226 27.2668 214.598 27.2722 212.928 28.0995C211.262 28.9268 209.726 30.7532 208.324 33.5681V33.5734Z" fill="#FFD207"/>
<path d="M220.191 54.6741L233.266 31.1453L237.15 33.3048L224.074 56.8336L220.191 54.6741Z" fill="#FFD207"/>
<path d="M231.133 50.4519L235.001 52.5147C233.438 55.6196 233.771 57.9457 236.005 59.4981C237.112 60.2663 238.181 60.5833 239.218 60.4436C240.254 60.3093 241.066 59.8097 241.662 58.9556C242.011 58.456 242.199 57.951 242.221 57.4461C242.242 56.9411 242.108 56.42 241.812 55.8775C241.517 55.3349 240.684 54.1961 239.32 52.4556C238.09 50.8977 237.305 49.5977 236.967 48.5395C236.628 47.4866 236.559 46.3585 236.757 45.1606C236.956 43.9626 237.413 42.8507 238.133 41.8139C238.971 40.6106 239.997 39.7135 241.216 39.1333C242.435 38.5478 243.698 38.349 245.003 38.5263C246.309 38.7036 247.673 39.2891 249.091 40.2721C251.224 41.7548 252.481 43.4899 252.873 45.4775C253.265 47.4651 252.749 49.5601 251.321 51.7572L247.523 49.4044C248.189 48.1044 248.414 47.0354 248.216 46.192C248.011 45.3486 247.415 44.5858 246.432 43.8982C245.449 43.2106 244.547 42.8883 243.73 42.9312C242.914 42.9688 242.29 43.2965 241.866 43.9089C241.447 44.5106 241.34 45.1821 241.533 45.9287C241.726 46.6754 242.527 47.9002 243.923 49.6031C245.39 51.4134 246.33 52.9015 246.738 54.0564C247.147 55.2114 247.243 56.4093 247.028 57.6341C246.814 58.8643 246.244 60.1428 245.32 61.4696C243.988 63.3874 242.274 64.5907 240.185 65.0742C238.095 65.5576 235.796 64.9291 233.282 63.1779C228.839 60.089 228.125 55.8399 231.138 50.4358L231.133 50.4519Z" fill="#FFD207"/>
<path d="M76.1271 244.017L81.7837 218.103L89.6159 220.376C91.6196 220.956 93.0002 221.606 93.7576 222.32C94.5151 223.035 95.0415 224.045 95.3423 225.355C95.6432 226.666 95.6163 228.122 95.2671 229.723C94.8266 231.748 94.0477 233.257 92.9357 234.251C91.8237 235.245 90.4539 235.675 88.8316 235.54C89.487 236.432 89.9866 237.345 90.3357 238.28C90.6849 239.215 91.0878 240.826 91.5444 243.115L92.6779 248.82L88.2407 247.53L86.7795 241.111C86.2531 238.79 85.8771 237.324 85.6407 236.711C85.4043 236.099 85.1143 235.637 84.7705 235.331C84.4267 235.025 83.825 234.745 82.9655 234.498L82.1973 234.278L79.8337 245.097L76.1271 244.017ZM83.0998 230.136L85.8609 230.937C87.5477 231.426 88.6382 231.651 89.1378 231.614C89.6374 231.576 90.0832 231.34 90.4808 230.904C90.8783 230.469 91.1737 229.819 91.3618 228.96C91.5444 228.133 91.5444 227.429 91.3618 226.849C91.1845 226.263 90.8729 225.807 90.4217 225.479C90.1047 225.248 89.1109 224.893 87.4457 224.41L84.5341 223.566L83.0998 230.142V230.136Z" fill="#FFD207"/>
<path d="M99.8387 222.53L103.884 222.965L102.584 237.539C102.38 239.8 102.299 241.283 102.342 241.976C102.417 243.185 102.761 244.146 103.379 244.866C103.997 245.586 104.856 246.01 105.963 246.128C106.903 246.23 107.687 246.08 108.316 245.688C108.949 245.29 109.411 244.699 109.701 243.91C109.992 243.12 110.255 241.385 110.496 238.704L111.823 223.819L115.868 224.254L114.606 238.387C114.284 241.997 113.875 244.587 113.381 246.161C112.887 247.735 111.979 248.949 110.658 249.813C109.336 250.678 107.671 251.001 105.656 250.786C103.561 250.56 101.966 249.969 100.865 249.018C99.7635 248.068 99.0168 246.811 98.6192 245.258C98.2217 243.7 98.2056 240.912 98.5655 236.889L99.844 222.535L99.8387 222.53Z" fill="#FFD207"/>
<path d="M128.396 241.739L128.272 237.157L136.685 236.862L136.975 247.659C136.158 248.836 134.982 249.862 133.451 250.743C131.92 251.624 130.367 252.091 128.804 252.145C126.897 252.209 125.199 251.731 123.711 250.705C122.223 249.679 121.025 248.105 120.118 245.983C119.21 243.861 118.716 241.347 118.635 238.441C118.554 235.46 118.92 232.892 119.725 230.743C120.531 228.594 121.611 226.972 122.959 225.876C124.308 224.78 125.946 224.2 127.864 224.13C130.168 224.05 132.032 224.657 133.461 225.957C134.885 227.257 135.83 229.207 136.298 231.807L132.462 232.962C132.135 231.581 131.576 230.534 130.786 229.819C129.996 229.105 129.062 228.772 127.987 228.809C126.327 228.868 125.001 229.658 124.012 231.178C123.024 232.699 122.567 234.982 122.648 238.027C122.734 241.294 123.357 243.754 124.517 245.419C125.511 246.853 126.822 247.541 128.455 247.482C129.218 247.455 130.002 247.224 130.813 246.784C131.624 246.343 132.339 245.758 132.962 245.022L132.87 241.594L128.401 241.75L128.396 241.739Z" fill="#FFD207"/>
<path d="M139.677 224.372L147.546 223.217C149.695 222.9 151.226 222.906 152.15 223.228C153.069 223.55 153.891 224.227 154.61 225.275C155.33 226.322 155.765 227.558 155.916 228.987C156.055 230.303 155.926 231.533 155.524 232.672C155.121 233.811 154.535 234.697 153.772 235.325C154.986 235.626 155.986 236.303 156.765 237.351C157.543 238.398 158.022 239.741 158.193 241.385C158.403 243.373 158.161 245.118 157.468 246.617C156.775 248.116 155.873 249.11 154.761 249.599C153.987 249.937 152.155 250.324 149.255 250.743L142.572 251.72L139.682 224.372H139.677ZM144.108 228.342L144.774 234.665L147.391 234.283C148.959 234.052 149.926 233.88 150.291 233.762C150.952 233.537 151.446 233.134 151.774 232.554C152.102 231.968 152.215 231.221 152.118 230.313C152.032 229.502 151.806 228.874 151.446 228.412C151.086 227.95 150.673 227.692 150.222 227.633C149.765 227.574 148.497 227.697 146.402 228.004L144.114 228.337L144.108 228.342ZM145.258 239.22L146.031 246.515L149.717 245.978C151.334 245.742 152.36 245.494 152.795 245.231C153.235 244.973 153.579 244.538 153.831 243.926C154.084 243.313 154.165 242.577 154.073 241.707C153.976 240.815 153.735 240.101 153.343 239.575C152.95 239.048 152.467 238.715 151.892 238.575C151.317 238.441 150.179 238.495 148.476 238.747L145.269 239.22H145.258Z" fill="#FFD207"/>
<path d="M170.162 246.381L167.417 235.358L156.517 222.358L161.116 220.966L168.266 229.932L170.194 218.211L174.712 216.841L171.344 234.208L174.084 245.194L170.167 246.381H170.162Z" fill="#FFD207"/>
</svg>
