<svg width="256" height="256" viewBox="0 0 256 256" fill="none" xmlns="http://www.w3.org/2000/svg">
<path d="M228.702 2.02106V128.175C228.594 128.431 228.433 128.68 228.386 128.95C228.022 131.247 227.746 133.558 227.321 135.842C225.772 144.168 223.468 152.286 220.308 160.148C215.808 171.358 209.826 181.74 202.449 191.279C199.033 195.699 195.382 199.956 191.616 204.093C184.812 211.564 177.368 218.375 169.418 224.613C164.224 228.689 159.043 232.812 153.613 236.551C145.415 242.189 127.825 253.581 127.825 253.581C121.883 249.789 114.755 245.544 108.874 241.657C99.2876 235.331 90.1591 228.372 81.7111 220.591C76.517 215.808 71.5385 210.782 66.7149 205.629C63.0366 201.701 59.5469 197.558 56.3469 193.233C52.7158 188.322 49.3541 183.188 46.1339 177.994C40.3132 168.589 35.8063 158.538 32.3772 148.035C30.72 142.963 29.3659 137.782 28.032 132.608C27.4593 130.378 26.9743 128.047 26.9743 125.757C26.9271 85.1941 26.9541 2.11537 26.9541 2.11537C93.0829 2.11537 228.702 2.02106 228.702 2.02106Z" fill="#EF7A3E"/>
<path d="M223.576 6.91874V124.625C223.475 124.867 223.32 125.096 223.279 125.346C222.936 127.488 222.673 129.644 222.269 131.773C220.793 139.547 218.597 147.112 215.592 154.456C211.308 164.911 205.615 174.599 198.595 183.505C195.341 187.628 191.872 191.603 188.288 195.456C181.814 202.429 174.727 208.781 167.161 214.602C162.216 218.408 157.292 222.248 152.118 225.738C144.317 231 127.576 241.63 127.576 241.63C121.917 238.087 115.139 234.132 109.541 230.508C100.419 224.606 91.7356 218.112 83.6918 210.856C78.7537 206.397 74.011 201.701 69.4232 196.898C65.9267 193.233 62.5987 189.366 59.5604 185.331C56.1044 180.749 52.9044 175.96 49.8392 171.109C44.3015 162.338 40.0168 152.96 36.7495 143.158C35.1731 138.422 33.8863 133.592 32.6131 128.768C32.0674 126.686 31.6093 124.51 31.6025 122.375C31.5486 84.5204 31.5756 6.99958 31.5756 6.99958C94.5112 6.99958 223.576 6.912 223.576 6.912V6.91874Z" fill="#000100"/>
<path d="M32.7815 21.5377H33.435C33.7988 23.2354 34.3849 24.475 35.1866 25.243C35.9883 26.011 36.9179 26.4017 37.9621 26.4017C39.0064 26.4017 39.6935 26.1389 40.1247 25.6067C40.5558 25.0745 40.7647 24.5221 40.7647 23.936C40.7647 23.2556 40.5424 22.6964 40.0977 22.2653C39.8013 21.9823 39.2017 21.6185 38.3057 21.1672L36.8573 20.4328C35.4224 19.7053 34.4051 18.9912 33.8123 18.2771C33.2194 17.5629 32.923 16.6872 32.923 15.643C32.923 14.5314 33.3137 13.4939 34.0952 12.5305C34.8767 11.5672 36.0758 11.0888 37.6927 11.0888C38.5146 11.0888 39.3095 11.2168 40.0775 11.4661C40.8455 11.7154 41.2834 11.8434 41.3912 11.8434C41.6405 11.8434 41.8089 11.7693 41.9032 11.6278C41.9975 11.4863 42.0716 11.291 42.1323 11.0552H42.8127V16.0067H42.1794C41.883 14.8615 41.3575 13.8712 40.6097 13.0425C39.8619 12.2139 38.9525 11.7962 37.8813 11.7962C37.1268 11.7962 36.5339 12.0051 36.096 12.4227C35.6581 12.8404 35.4426 13.3524 35.4426 13.952C35.4426 14.6728 35.6447 15.2051 36.0556 15.5621C36.4598 15.9259 37.3626 16.4581 38.7638 17.1655L40.4413 18.0076C41.1891 18.3848 41.7887 18.8025 42.2333 19.2606C43.0619 20.1162 43.4796 21.1604 43.4796 22.3933C43.4796 23.5385 43.035 24.6232 42.139 25.6404C41.2497 26.6577 39.8148 27.1697 37.8544 27.1697C37.403 27.1697 36.9449 27.1293 36.48 27.0417C36.0152 26.9541 35.5638 26.8261 35.1125 26.651L34.6746 26.4825C34.5735 26.4556 34.4725 26.4286 34.3781 26.4084C34.2838 26.3882 34.203 26.3815 34.1356 26.3815C33.8998 26.3815 33.7449 26.4488 33.6573 26.5903C33.5697 26.7251 33.4956 26.9204 33.4283 27.1764H32.7748V21.5444L32.7815 21.5377Z" fill="white"/>
<path d="M45.2312 11.4728H58.9272L58.9474 16.0606H58.2939C58.0783 14.4168 57.4653 13.312 56.448 12.7326C55.8754 12.416 55.0265 12.2408 53.8947 12.2072V24.192C53.8947 25.0274 54.043 25.5865 54.3326 25.856C54.6223 26.1255 55.2354 26.2669 56.1583 26.2669V26.8463H48.0472V26.2669C48.9364 26.2669 49.5293 26.1255 49.819 25.8493C50.1086 25.573 50.2569 25.0206 50.2569 24.1853V12.2072C49.1453 12.2341 48.2964 12.4093 47.7036 12.7326C46.6122 13.3255 45.9992 14.437 45.8577 16.0606H45.2042L45.2244 11.4728H45.2312Z" fill="white"/>
<path d="M59.2708 26.2669C59.8165 26.2333 60.2611 25.984 60.5912 25.5259C60.8068 25.2362 61.1099 24.6029 61.5141 23.6126L66.5668 11.1629H67.2L72.2729 23.1141C72.8455 24.4547 73.2699 25.3171 73.5529 25.7078C73.8358 26.0985 74.2333 26.2872 74.752 26.2669V26.8463H67.3887V26.2669C68.1297 26.24 68.6148 26.1726 68.8506 26.0783C69.0864 25.984 69.2009 25.7347 69.2009 25.344C69.2009 25.1688 69.1402 24.8994 69.0257 24.5356C68.9516 24.32 68.8506 24.064 68.7226 23.7608L68.1432 22.3865H63.0367C62.6998 23.2893 62.491 23.8821 62.3899 24.1516C62.1878 24.7377 62.0868 25.1621 62.0868 25.4316C62.0868 25.7549 62.3024 25.9975 62.7402 26.1457C63.003 26.2265 63.387 26.2737 63.9057 26.2804V26.8598H59.264V26.2804L59.2708 26.2669ZM67.8064 21.4771L65.6169 16.2156H65.4282L63.3735 21.4771H67.8064Z" fill="white"/>
<path d="M77.0628 26.267C77.6354 26.2333 78.0463 26.1457 78.2956 26.0244C78.7402 25.7954 78.9626 25.3777 78.9626 24.7714V13.5545C78.9626 12.9684 78.7537 12.5642 78.3293 12.3352C78.0868 12.2004 77.6623 12.1061 77.0628 12.059V11.4796H84.0152C86.8245 11.4796 88.96 12.2274 90.4354 13.723C91.776 15.0838 92.443 16.9162 92.443 19.2067C92.443 21.2682 91.7693 23.0063 90.4219 24.4413C88.9061 26.0514 86.8447 26.8531 84.2442 26.8531H77.056V26.2737L77.0628 26.267ZM82.9036 25.7684C83.0586 25.9773 83.3819 26.0783 83.8737 26.0783C85.2211 26.0783 86.3259 25.6 87.195 24.6501C88.064 23.7002 88.4952 21.8745 88.4952 19.1663C88.4952 17.563 88.2594 16.1819 87.7946 15.0232C87.04 13.1638 85.7668 12.2341 83.9748 12.2341C83.3819 12.2341 82.9979 12.3621 82.8228 12.6114C82.7015 12.7731 82.6476 13.0897 82.6476 13.5545V24.7512C82.6678 25.216 82.7554 25.5528 82.9103 25.7617L82.9036 25.7684Z" fill="white"/>
<path d="M93.5479 26.8463V26.2669C94.2013 26.2467 94.6594 26.1592 94.9356 25.9975C95.3601 25.7617 95.5689 25.3171 95.5689 24.6636V13.6488C95.5689 12.9886 95.3533 12.544 94.9154 12.3149C94.6662 12.1735 94.2081 12.0859 93.5479 12.0522V11.4728H106.651V16.0606H106.092C105.802 14.592 105.31 13.5882 104.623 13.0493C103.929 12.5103 102.67 12.2408 100.844 12.2408C100.15 12.2408 99.7053 12.3149 99.5167 12.4564C99.3281 12.5979 99.2337 12.8876 99.2337 13.3187V18.5802C100.527 18.5937 101.403 18.3579 101.868 17.8728C102.326 17.3878 102.676 16.4985 102.926 15.2118H103.505V22.8985H102.926C102.764 21.605 102.434 20.6888 101.928 20.1634C101.43 19.6312 100.534 19.3684 99.2337 19.3684V24.8792C99.2337 25.3575 99.355 25.6876 99.6043 25.8627C99.8535 26.0379 100.359 26.1255 101.134 26.1255C102.582 26.1255 103.768 25.8425 104.691 25.2834C105.607 24.7242 106.422 23.6665 107.136 22.117H107.769L106.846 26.8463H93.5546H93.5479Z" fill="white"/>
<path d="M115.82 26.267C116.392 26.2333 116.803 26.1457 117.053 26.0244C117.497 25.7954 117.72 25.3777 117.72 24.7714V13.5545C117.72 12.9684 117.511 12.5642 117.086 12.3352C116.844 12.2004 116.419 12.1061 115.82 12.059V11.4796H122.772C125.582 11.4796 127.717 12.2274 129.192 13.723C130.533 15.0838 131.2 16.9162 131.2 19.2067C131.2 21.2682 130.526 23.0063 129.179 24.4413C127.663 26.0514 125.602 26.8531 123.001 26.8531H115.813V26.2737L115.82 26.267ZM121.654 25.7684C121.809 25.9773 122.132 26.0783 122.624 26.0783C123.971 26.0783 125.076 25.6 125.945 24.6501C126.814 23.7002 127.246 21.8745 127.246 19.1663C127.246 17.563 127.01 16.1819 126.545 15.0232C125.79 13.1638 124.517 12.2341 122.725 12.2341C122.132 12.2341 121.748 12.3621 121.573 12.6114C121.452 12.7731 121.398 13.0897 121.398 13.5545V24.7512C121.418 25.216 121.506 25.5528 121.661 25.7617L121.654 25.7684Z" fill="white"/>
<path d="M132.298 26.8463V26.2669C132.952 26.2467 133.41 26.1592 133.686 25.9975C134.11 25.7617 134.319 25.3171 134.319 24.6636V13.6488C134.319 12.9886 134.104 12.544 133.666 12.3149C133.416 12.1735 132.958 12.0859 132.298 12.0522V11.4728H145.401V16.0606H144.842C144.552 14.592 144.061 13.5882 143.373 13.0493C142.68 12.5103 141.42 12.2408 139.594 12.2408C138.9 12.2408 138.456 12.3149 138.267 12.4564C138.078 12.5979 137.984 12.8876 137.984 13.3187V18.5802C139.277 18.5937 140.153 18.3579 140.618 17.8728C141.076 17.3878 141.427 16.4985 141.676 15.2118H142.255V22.8985H141.676C141.514 21.605 141.184 20.6888 140.679 20.1634C140.18 19.6312 139.284 19.3684 137.984 19.3684V24.8792C137.984 25.3575 138.105 25.6876 138.355 25.8627C138.604 26.0379 139.109 26.1255 139.884 26.1255C141.332 26.1255 142.518 25.8425 143.441 25.2834C144.357 24.7242 145.172 23.6665 145.886 22.117H146.52L145.597 26.8463H132.305H132.298Z" fill="white"/>
<path d="M151.687 26.2669C152.455 26.2333 152.98 26.0851 153.263 25.8358C153.546 25.5865 153.688 25.0341 153.688 24.192V14.1272C153.688 13.2514 153.519 12.6787 153.189 12.416C152.967 12.2408 152.468 12.1196 151.687 12.0522V11.4728H159.003C160.519 11.4728 161.752 11.6345 162.688 11.9512C164.507 12.5979 165.423 13.7566 165.423 15.4274C165.423 16.6669 164.945 17.6371 163.995 18.3512C163.267 18.8834 162.493 19.2269 161.678 19.3752L166.515 25.8493C166.643 26.0244 166.777 26.1457 166.912 26.1996C167.054 26.2535 167.229 26.2939 167.438 26.3074V26.8531H162.688L157.379 19.7457H157.373V24.1987C157.373 25.0004 157.507 25.5394 157.77 25.8156C158.04 26.0918 158.572 26.2467 159.367 26.2737V26.8531H151.68V26.2737L151.687 26.2669ZM160.573 18.3781C161.213 17.9806 161.536 17.0644 161.536 15.6295C161.536 14.7469 161.415 14.0531 161.172 13.5411C160.748 12.672 159.98 12.2408 158.862 12.2408C158.255 12.2408 157.858 12.3149 157.669 12.4699C157.48 12.6248 157.386 12.8741 157.386 13.2177V19.0046C158.875 18.9844 159.939 18.7756 160.579 18.3781H160.573Z" fill="white"/>
<path d="M168.118 26.8463V26.2669C168.771 26.2467 169.229 26.1592 169.506 25.9975C169.93 25.7617 170.139 25.3171 170.139 24.6636V13.6488C170.139 12.9886 169.923 12.544 169.485 12.3149C169.236 12.1735 168.778 12.0859 168.118 12.0522V11.4728H181.221V16.0606H180.662C180.372 14.592 179.88 13.5882 179.193 13.0493C178.499 12.5103 177.24 12.2408 175.414 12.2408C174.72 12.2408 174.275 12.3149 174.087 12.4564C173.898 12.5979 173.804 12.8876 173.804 13.3187V18.5802C175.097 18.5937 175.973 18.3579 176.438 17.8728C176.896 17.3878 177.246 16.4985 177.496 15.2118H178.075V22.8985H177.496C177.334 21.605 177.004 20.6888 176.499 20.1634C176 19.6312 175.104 19.3684 173.804 19.3684V24.8792C173.804 25.3575 173.925 25.6876 174.174 25.8627C174.424 26.0379 174.929 26.1255 175.704 26.1255C177.152 26.1255 178.338 25.8425 179.261 25.2834C180.177 24.7242 180.992 23.6665 181.706 22.117H182.339L181.416 26.8463H168.125H168.118Z" fill="white"/>
<path d="M182.555 26.267C183.155 26.2535 183.586 26.1726 183.848 26.0312C184.28 25.7954 184.488 25.3373 184.488 24.6636V13.6488C184.488 12.9819 184.286 12.5305 183.875 12.3015C183.626 12.16 183.181 12.0792 182.548 12.0455V11.4661H189.972V12.0455C189.312 12.0724 188.854 12.1533 188.605 12.288C188.187 12.5171 187.985 12.9684 187.985 13.6421V24.6568C187.985 25.2968 188.153 25.7213 188.483 25.9368C188.813 26.1524 189.312 26.2602 189.979 26.2602V26.8396H182.555V26.2602V26.267Z" fill="white"/>
<path d="M190.619 26.267C191.488 26.2602 192.047 26.1053 192.31 25.8088C192.573 25.5057 192.701 25.0611 192.701 24.4615V13.6556C192.701 13.0358 192.552 12.6316 192.256 12.4362C191.96 12.2408 191.434 12.1128 190.68 12.059V11.4796H196.413L200.886 22.0093H201.075L205.528 11.4796H211.261V12.059C210.493 12.1196 209.967 12.2611 209.684 12.4834C209.401 12.7057 209.26 13.2581 209.26 14.1339V24.1987C209.26 25.0341 209.401 25.5865 209.684 25.8425C209.967 26.1053 210.493 26.2467 211.261 26.2737V26.8531H203.709V26.2737C204.382 26.2535 204.888 26.139 205.231 25.9368C205.575 25.7347 205.743 25.2901 205.743 24.5962V13.4804H205.575L199.997 26.8531H199.384L193.752 13.7499H193.651V24.0371C193.651 24.7983 193.792 25.3507 194.075 25.7011C194.358 26.0514 194.978 26.2467 195.941 26.2804V26.8598H190.619V26.2804V26.267Z" fill="white"/>
<path d="M211.84 21.5377H212.493C212.857 23.2354 213.443 24.475 214.245 25.243C215.047 26.011 215.976 26.4017 217.021 26.4017C218.065 26.4017 218.752 26.1389 219.183 25.6067C219.614 25.0745 219.823 24.5221 219.823 23.936C219.823 23.2556 219.601 22.6964 219.156 22.2653C218.86 21.9823 218.26 21.6185 217.364 21.1672L215.916 20.4328C214.481 19.7053 213.464 18.9912 212.871 18.2771C212.278 17.5629 211.981 16.6872 211.981 15.643C211.981 14.5314 212.372 13.4939 213.154 12.5305C213.935 11.5672 215.134 11.0888 216.751 11.0888C217.573 11.0888 218.368 11.2168 219.136 11.4661C219.904 11.7154 220.342 11.8434 220.45 11.8434C220.699 11.8434 220.867 11.7693 220.962 11.6278C221.056 11.4863 221.13 11.291 221.191 11.0552H221.871V16.0067H221.238C220.941 14.8615 220.416 13.8712 219.668 13.0425C218.92 12.2139 218.011 11.7962 216.94 11.7962C216.185 11.7962 215.592 12.0051 215.155 12.4227C214.717 12.8404 214.501 13.3524 214.501 13.952C214.501 14.6728 214.703 15.2051 215.114 15.5621C215.518 15.9259 216.421 16.4581 217.822 17.1655L219.5 18.0076C220.248 18.3848 220.847 18.8025 221.292 19.2606C222.12 20.1162 222.538 21.1604 222.538 22.3933C222.538 23.5385 222.093 24.6232 221.197 25.6404C220.308 26.6577 218.873 27.1697 216.913 27.1697C216.461 27.1697 216.003 27.1293 215.539 27.0417C215.074 26.9541 214.622 26.8261 214.171 26.651L213.733 26.4825C213.632 26.4556 213.531 26.4286 213.437 26.4084C213.342 26.3882 213.261 26.3815 213.194 26.3815C212.958 26.3815 212.803 26.4488 212.716 26.5903C212.628 26.7251 212.554 26.9204 212.487 27.1764H211.833V21.5444L211.84 21.5377Z" fill="white"/>
<path d="M85.3491 52.6821C86.1171 52.6484 86.6426 52.5002 86.9256 52.2509C87.2085 52.0017 87.35 51.4493 87.35 50.6072V40.5423C87.35 39.6665 87.1816 39.0939 86.8515 38.8312C86.6291 38.656 86.1306 38.5347 85.3491 38.4674V37.888H92.6654C94.1811 37.888 95.414 38.0497 96.3504 38.3663C98.1694 39.0131 99.0856 40.1718 99.0856 41.8425C99.0856 43.0821 98.6072 44.0522 97.6574 44.7663C96.9298 45.2985 96.155 45.6421 95.3399 45.7903L100.177 52.2644C100.305 52.4396 100.44 52.5608 100.574 52.6147C100.716 52.6686 100.891 52.7091 101.1 52.7225V53.2682H96.3504L91.0418 46.1608H91.035V50.6139C91.035 51.4156 91.1698 51.9545 91.4325 52.2307C91.702 52.5069 92.2342 52.6619 93.0291 52.6888V53.2682H85.3424V52.6888L85.3491 52.6821ZM94.2283 44.7933C94.8683 44.3958 95.1917 43.4796 95.1917 42.0446C95.1917 41.1621 95.0704 40.4682 94.8279 39.9562C94.4035 39.0872 93.6355 38.656 92.5171 38.656C91.9108 38.656 91.5134 38.7301 91.3247 38.8851C91.1361 39.04 91.0418 39.2893 91.0418 39.6328V45.4198C92.5306 45.3996 93.595 45.1907 94.235 44.7933H94.2283Z" fill="white"/>
<path d="M109.992 37.888V38.4674C109.009 38.4943 108.349 38.6358 108.019 38.8783C107.688 39.1208 107.52 39.68 107.52 40.5491V48.1684C107.52 49.3272 107.675 50.2164 107.978 50.8497C108.531 52.0219 109.595 52.608 111.171 52.608C113.125 52.608 114.445 51.9613 115.133 50.661C115.517 49.9469 115.705 48.9499 115.705 47.6699V40.7107C115.705 39.8956 115.537 39.3364 115.2 39.0265C114.863 38.7166 114.21 38.5347 113.233 38.4674V37.888H118.824V38.4674C118.009 38.6088 117.477 38.7773 117.214 38.9861C116.952 39.1882 116.824 39.6598 116.824 40.3941V47.6699C116.824 49.6034 116.305 51.0922 115.261 52.1432C114.216 53.1941 112.579 53.7196 110.343 53.7196C107.419 53.7196 105.418 52.9381 104.34 51.3752C103.768 50.5465 103.485 49.4754 103.485 48.1617V40.5491C103.485 39.6935 103.357 39.1545 103.107 38.9389C102.851 38.7166 102.286 38.5617 101.396 38.4741V37.8947H109.992V37.888Z" fill="white"/>
<path d="M123.055 39.9899C124.564 38.4 126.498 37.6051 128.842 37.6051C129.785 37.6051 130.722 37.7802 131.651 38.1305C132.581 38.4808 133.167 38.656 133.396 38.656C133.639 38.656 133.834 38.5684 133.982 38.4C134.131 38.2316 134.252 37.9688 134.346 37.6253H134.979V42.9474H134.4C133.854 41.7954 133.295 40.8792 132.723 40.2122C131.658 38.9861 130.452 38.3663 129.105 38.3663C127.636 38.3663 126.565 39.0063 125.891 40.2796C125.218 41.5528 124.881 43.3448 124.881 45.6556C124.881 47.5486 125.191 49.2396 125.817 50.7284C126.444 52.2105 127.65 52.9583 129.442 52.9583C130.412 52.9583 131.065 52.7562 131.395 52.3453C131.591 52.1162 131.685 51.7659 131.685 51.3011V48.9027C131.685 48.2156 131.476 47.7642 131.052 47.5486C130.776 47.4139 130.223 47.3398 129.388 47.3263V46.747H137.182V47.3263C136.394 47.3533 135.875 47.5149 135.619 47.7979C135.363 48.0808 135.235 48.6198 135.235 49.4013V52.2981C134.73 52.608 133.915 52.9179 132.79 53.2278C131.665 53.5377 130.405 53.6926 129.011 53.6926C126.484 53.6926 124.47 52.8977 122.961 51.3078C121.553 49.819 120.852 47.9528 120.852 45.7095C120.852 43.4661 121.58 41.5394 123.042 39.9899H123.055Z" fill="white"/>
<path d="M138.092 52.6821C138.705 52.6619 139.149 52.5811 139.412 52.4396C139.864 52.2038 140.093 51.7524 140.093 51.0855V40.0707C140.093 39.4105 139.884 38.9659 139.459 38.7369C139.21 38.5954 138.752 38.5078 138.092 38.4741V37.8947H145.125C146.479 37.8947 147.604 38.0497 148.5 38.3596C150.191 38.9457 151.033 40.0101 151.033 41.5596C151.033 42.5027 150.69 43.2438 150.003 43.7962C149.315 44.3486 148.574 44.699 147.779 44.8472V45.056C148.621 45.2177 149.356 45.4939 149.976 45.8779C151.188 46.6324 151.795 47.6834 151.795 49.0307C151.795 50.2905 151.215 51.3078 150.05 52.0893C148.884 52.8707 147.341 53.2615 145.408 53.2615H138.092V52.6821ZM146.553 44.0994C147.032 43.6413 147.274 42.8261 147.274 41.6539C147.274 40.7849 147.119 40.0573 146.803 39.4644C146.486 38.8716 145.88 38.5752 144.984 38.5752C144.512 38.5752 144.182 38.656 143.993 38.811C143.805 38.9726 143.717 39.2556 143.717 39.6733V44.7798C145.125 44.7798 146.068 44.5507 146.547 44.0926L146.553 44.0994ZM143.906 52.0354C144.088 52.3587 144.445 52.5272 144.97 52.5272C146.041 52.5272 146.796 52.2375 147.227 51.6514C147.658 51.0653 147.874 50.2366 147.874 49.152C147.874 47.5352 147.395 46.464 146.439 45.9318C145.859 45.6084 144.957 45.4535 143.717 45.4737V51.1596C143.724 51.5571 143.784 51.8535 143.892 52.0354H143.906Z" fill="white"/>
<path d="M160.842 37.888V38.4674C160.061 38.5145 159.555 38.5684 159.333 38.6425C159.111 38.7166 159.003 38.8716 159.003 39.1074C159.003 39.2084 159.023 39.3229 159.064 39.4442C159.104 39.5655 159.198 39.7878 159.347 40.1044L162.351 45.568H162.378L164.817 41.5663C164.972 41.3238 165.134 41.0206 165.309 40.6636C165.565 40.1246 165.699 39.7204 165.699 39.4644C165.699 39.0669 165.538 38.7975 165.221 38.6627C165.006 38.5752 164.534 38.5011 163.8 38.4539V37.8745H168.798V38.4539C168.435 38.5213 168.145 38.5954 167.936 38.6897C167.66 38.8312 167.431 39.0467 167.249 39.3364L162.904 46.4101V50.6004C162.904 51.4695 163.052 52.0219 163.348 52.2712C163.645 52.5204 164.197 52.6552 165.006 52.6754V53.2547H157.117V52.6754C157.959 52.6552 158.525 52.5069 158.801 52.2442C159.077 51.9747 159.219 51.4291 159.219 50.6004V47.2589L155.062 39.7069C154.786 39.2084 154.449 38.8648 154.051 38.6627C153.782 38.5347 153.513 38.4674 153.243 38.4606V37.8813H160.849L160.842 37.888Z" fill="white"/>
<path d="M111.097 200.084V192.552L108.362 193.603C108.254 193.516 108.167 193.408 108.099 193.293C108.032 193.179 107.965 193.058 107.904 192.93L112.175 191.212H112.296V200.077H115.227C115.24 200.152 115.247 200.219 115.254 200.286C115.254 200.354 115.261 200.428 115.261 200.495C115.261 200.563 115.261 200.637 115.254 200.697C115.254 200.758 115.24 200.832 115.227 200.899H107.917C107.891 200.825 107.884 200.758 107.884 200.697V200.28C107.884 200.212 107.897 200.138 107.917 200.071H111.091L111.097 200.084Z" fill="white"/>
<path d="M125.642 196.52C125.642 197.585 125.507 198.609 125.245 199.592C124.982 200.569 124.564 201.445 123.998 202.22C123.432 202.995 122.712 203.635 121.829 204.153C120.946 204.672 119.896 204.995 118.663 205.13C118.589 204.901 118.548 204.632 118.548 204.322V204.153C118.548 204.106 118.548 204.052 118.568 204.005C119.37 203.917 120.091 203.722 120.717 203.419C121.344 203.116 121.896 202.732 122.368 202.26C122.84 201.789 123.224 201.243 123.527 200.63C123.83 200.017 124.052 199.35 124.207 198.636C124.234 198.501 124.254 198.366 124.281 198.238C124.308 198.11 124.328 197.982 124.335 197.841C124.018 198.44 123.554 198.939 122.941 199.33C122.328 199.72 121.593 199.916 120.758 199.916C120.28 199.916 119.801 199.835 119.323 199.673C118.845 199.512 118.42 199.256 118.043 198.912C117.666 198.568 117.362 198.124 117.127 197.571C116.891 197.019 116.776 196.372 116.776 195.604C116.776 194.836 116.904 194.23 117.154 193.671C117.403 193.112 117.74 192.647 118.151 192.269C118.568 191.892 119.033 191.609 119.552 191.414C120.071 191.219 120.61 191.124 121.162 191.124C121.829 191.124 122.435 191.219 122.988 191.407C123.54 191.596 124.012 191.906 124.402 192.33C124.793 192.755 125.096 193.314 125.305 194.008C125.521 194.701 125.629 195.537 125.629 196.534L125.642 196.52ZM121.068 198.703C121.479 198.703 121.876 198.622 122.253 198.467C122.631 198.312 122.961 198.09 123.25 197.807C123.54 197.524 123.769 197.181 123.938 196.77C124.106 196.359 124.194 195.907 124.194 195.402C124.194 194.344 123.938 193.57 123.419 193.064C122.907 192.559 122.179 192.31 121.25 192.31C120.812 192.31 120.401 192.384 120.017 192.525C119.633 192.667 119.303 192.876 119.02 193.145C118.737 193.415 118.514 193.752 118.36 194.156C118.205 194.56 118.124 195.018 118.124 195.53C118.124 196.096 118.205 196.581 118.36 196.979C118.514 197.383 118.73 197.706 118.993 197.955C119.256 198.205 119.565 198.393 119.922 198.508C120.28 198.629 120.657 198.69 121.061 198.69L121.068 198.703Z" fill="white"/>
<path d="M136.805 196.19C136.805 196.925 136.724 197.605 136.563 198.232C136.401 198.858 136.152 199.397 135.815 199.855C135.478 200.313 135.054 200.67 134.535 200.926C134.016 201.182 133.396 201.31 132.682 201.31C131.968 201.31 131.348 201.182 130.83 200.926C130.311 200.67 129.88 200.313 129.55 199.855C129.213 199.397 128.963 198.858 128.802 198.232C128.64 197.605 128.559 196.925 128.559 196.19C128.559 195.456 128.64 194.776 128.802 194.156C128.963 193.536 129.213 192.997 129.55 192.539C129.886 192.081 130.311 191.724 130.83 191.468C131.348 191.212 131.968 191.084 132.682 191.084C133.396 191.084 134.016 191.212 134.535 191.468C135.054 191.724 135.485 192.081 135.815 192.539C136.152 192.997 136.401 193.536 136.563 194.156C136.724 194.776 136.805 195.456 136.805 196.19ZM129.758 196.19C129.758 197.598 129.994 198.649 130.459 199.35C130.924 200.051 131.665 200.401 132.682 200.401C133.699 200.401 134.44 200.051 134.905 199.35C135.37 198.649 135.606 197.598 135.606 196.19C135.606 194.782 135.37 193.731 134.905 193.037C134.44 192.344 133.699 191.993 132.682 191.993C131.665 191.993 130.924 192.344 130.459 193.037C129.994 193.731 129.758 194.782 129.758 196.19Z" fill="white"/>
<path d="M138.577 202.119L138.449 201.93L143.845 191.111C143.987 191.138 144.148 191.185 144.33 191.259C144.512 191.333 144.694 191.427 144.889 191.542L140.335 200.933H144.761V196.925C144.977 196.884 145.179 196.871 145.374 196.871C145.57 196.871 145.765 196.891 145.967 196.925V200.933H147.894C147.928 201.149 147.948 201.344 147.948 201.533C147.948 201.735 147.928 201.93 147.894 202.119H145.967V204.679C145.859 204.706 145.752 204.719 145.651 204.719H145.058C144.957 204.719 144.856 204.706 144.761 204.679V202.119H138.57H138.577Z" fill="white"/>
<path d="M151.801 55.7272V156.052H103.997V55.7272H99.5773V201.304H103.997V160.472H151.801V201.304H156.214V160.472V156.052V55.7272H151.801Z" fill="white"/>
<path d="M140.126 73.4855C139.965 73.6202 139.877 73.6539 139.85 73.7145C139.682 74.0851 139.547 74.469 139.372 74.8396C136.583 80.6265 133.625 86.3124 129.219 91.0754C127.69 92.7259 125.999 94.2147 124.382 95.7777C124.052 96.1011 123.702 96.5187 123.891 96.9432C124.106 97.4215 124.685 97.2867 125.096 97.1992C125.73 97.0577 126.356 96.8488 126.949 96.5928C128.222 96.0472 129.428 95.3533 130.594 94.6055C137.398 90.213 141.528 81.125 140.126 73.4922V73.4855Z" fill="white"/>
<path d="M120.212 95.8922C128.35 91.7625 133.679 85.0728 137.492 76.9886C138.085 75.7288 138.523 74.4152 138.725 73.0341C139.096 70.528 138.361 68.965 136.253 68.0354C137.742 69.7937 137.809 71.7339 137.506 73.701C137.331 74.8194 137.027 75.9444 136.63 77.0021C133.949 84.1229 128.755 88.8926 122.139 92.2745C119.296 93.7297 118.454 93.2783 117.888 90.0716C117.039 85.2951 117.74 80.7208 119.902 76.3688C121.29 74.1255 122.86 72.0236 124.84 70.2585C127.576 68.1836 130.641 67.0922 134.387 67.2471C131.577 65.8257 126.808 67.7053 124.719 70.117C122.563 71.7069 120.98 73.7886 119.66 76.0859C116.494 82.0951 115.18 88.2728 117.747 94.8884C118.164 95.9596 118.515 96.8286 119.788 96.9364C119.586 96.2358 119.579 96.2156 120.212 95.8922Z" fill="white"/>
<path d="M115.146 88.9667C115.88 82.3916 117.854 76.5979 122.024 71.68C117.733 74.9474 113.987 84.3116 115.146 88.9667Z" fill="white"/>
<path d="M76.5642 194.796C71.1276 191.279 68.2509 186.476 68.736 179.874C69.2817 172.416 72.2661 165.908 77.0021 160.317C81.7718 154.685 86.4269 149.026 90.1793 142.639C94.4572 135.363 96.4985 127.704 94.8547 119.256C93.7364 113.509 91.4526 108.443 86.8513 104.596C85.221 103.235 83.6379 101.794 82.1356 100.298C78.7132 96.8893 76.3688 92.9684 76.6585 87.9023C76.8943 83.7996 80.0067 78.9558 85.9284 81.2935C88.5827 83.0114 90.3208 85.4164 91.1966 88.4345C91.7019 90.1659 91.749 91.8973 90.9676 93.5882C90.3073 95.0299 89.0543 95.589 87.5789 95.8383C89.8829 96.2021 91.5604 94.8884 91.8838 92.4295C92.5103 87.7271 90.597 84.0825 87.0265 81.1722C83.9949 78.3764 79.9528 78.9086 77.669 82.3848C76.8471 83.6379 76.416 85.0459 75.9377 86.7773C75.1562 83.9747 73.5596 81.9469 72.2728 79.6834C72.8455 79.8383 73.2429 80.8421 73.6337 80.2695C74.0716 79.6227 74.2737 80.0337 74.5431 80.1886C75.0888 80.512 75.9916 80.9364 76.2273 80.6265C76.9212 79.7305 78.0193 79.9394 78.8008 79.3802C79.2859 79.0299 79.9259 78.9221 79.0703 78.2484C78.6189 77.8914 79.1916 77.7095 79.3937 77.5478C80.2695 76.8337 81.1655 76.1533 82.1221 75.4122C81.6303 75.0013 81.0172 75.1899 80.6804 74.725C82.1423 72.7714 82.0076 70.6493 81.3676 68.3587C80.1145 69.2749 79.4206 70.7638 77.6421 70.9457C78.72 69.2278 79.6227 67.5907 79.7305 65.6505C79.7507 65.2463 79.9259 64.6265 79.589 64.5053C78.9221 64.2695 79.1983 63.9192 79.2657 63.5284C79.3802 62.8413 79.589 61.7566 79.1242 61.5478C78.1002 61.0829 78.4909 60.1802 78.1339 59.5402C77.9655 59.2303 77.8644 58.5903 77.5478 58.7453C76.6989 59.1495 76.8067 58.4286 76.6046 58.0918C76.2476 57.5057 76.16 56.3671 75.6278 56.3671C74.6577 56.3671 74.6913 55.653 74.3276 55.2219C74.0446 54.885 73.9772 54.3865 73.5461 54.1238C72.9398 54.8311 72.7781 55.7204 71.8012 56.3671C70.4606 57.2564 70.117 59.2573 69.1873 60.7057C68.4732 61.8173 68.6214 63.3937 69.0391 64.7747C69.1604 65.1789 69.4501 65.637 68.8505 65.9335C68.7831 65.8728 68.7023 65.8257 68.6686 65.7583C68.6012 65.6168 68.5069 65.4552 68.5137 65.3069C68.6821 62.5583 66.6206 60.9886 65.2126 59.0754C65.0711 58.8867 64.8488 58.752 64.6467 58.6105C64.485 58.496 64.229 58.3545 64.1347 58.6173C63.8585 59.4392 63.5553 58.8463 63.2926 58.6442C62.5718 58.0985 61.7229 57.1688 61.029 57.317C59.8433 57.5865 59.2707 56.8185 58.4623 56.4615C58.0513 56.2796 57.6943 55.9899 57.2968 55.781C57.1419 55.7002 56.8252 55.4644 56.7781 55.6733C56.4749 56.96 55.8484 55.9562 55.4779 55.8147C54.9996 55.6328 54.5886 55.5385 54.1911 55.8552C53.7532 56.2122 54.1911 56.576 54.2518 56.933C54.3124 57.3238 54.7503 57.8358 54.4269 58.0783C53.7196 58.6105 54.2922 59.0619 54.3191 59.5671C54.373 60.4834 55.8282 61.2918 54.5482 62.3293C54.4876 62.3764 54.6897 62.7672 54.7907 62.9962C55.168 63.8922 55.5587 64.7815 55.9697 65.7381C55.552 65.8055 55.2219 65.8594 54.8716 65.9133C55.808 68.2173 57.4854 69.8274 59.1495 71.4105C59.6547 71.8888 60.517 71.8888 61.2513 71.9899C61.5276 72.0303 61.8442 72.192 61.7297 72.5558C61.6421 72.8387 61.3591 72.8253 61.1031 72.7444C60.5642 72.5625 59.9713 72.4615 59.4998 72.1718C58.3815 71.4846 57.2295 71.0265 55.9023 71.2893C54.7166 71.5183 54.0429 72.8724 52.6956 72.7781C52.6012 72.7714 52.5339 72.8589 52.5676 72.9533C53.0459 74.0648 52.0017 73.6269 51.6581 73.7684C50.9642 74.0581 50.1288 73.8358 49.3473 74.3276C49.9065 75.0282 50.4791 75.6615 50.944 76.3688C51.1596 76.6922 52.1499 77.1031 50.9911 77.5882C50.6947 77.7095 51.0652 77.9924 51.2 78.1474C51.8265 78.848 52.48 79.5284 53.1267 80.2156C53.3423 80.4514 53.76 80.6871 53.6252 80.9903C53.3221 81.6707 53.8678 81.7448 54.2046 81.9671C54.5751 82.2164 54.9928 82.405 55.3633 82.661C55.7137 82.9103 56.5692 82.9911 55.7541 83.7187C55.4509 83.9882 55.8349 84.1229 56.0236 84.2173C56.9263 84.6821 57.8762 84.8168 58.88 84.5878C59.9309 84.3453 60.8741 83.8669 61.8307 83.3954C62.1406 83.2472 62.565 82.8429 62.7941 83.2202C63.0636 83.6648 62.5246 83.9208 62.2012 84.1297C61.5815 84.5271 60.4766 84.7899 60.3823 85.2615C60.1465 86.501 59.2033 86.8042 58.4084 87.3634C58.1861 87.5183 57.856 87.68 58.2265 88.0034C59.1562 88.805 60.288 89.4855 61.3187 89.9031C62.7537 90.4893 64.5187 90.3141 65.8796 89.1082C66.2568 88.7714 66.6745 88.4817 67.1528 88.1111C67.2404 88.6568 67.3078 89.0678 67.3819 89.5461C68.736 88.8724 69.7465 88.0236 70.4539 86.8244C70.5953 86.5819 70.8177 86.117 70.8918 86.1373C72.6568 86.656 71.68 85.1806 71.6665 84.8573C71.5991 83.3751 71.3229 81.9065 71.0737 80.0808C72.4682 81.7246 73.6135 83.1057 74.4758 84.6821C75.2236 86.0497 75.8299 87.4914 75.8501 89.088C75.8905 92.4766 77.0088 95.4947 78.949 98.2366C79.3061 98.7419 79.6766 99.2337 80.0404 99.7322C78.2821 98.8834 76.6046 98.0345 74.8665 97.3271C70.4202 95.5015 65.8391 94.4977 61.0964 95.8518C55.9023 97.3339 52.1701 100.662 49.8055 105.526C49.7044 105.728 49.7516 106.166 49.3406 106.065C49.1452 106.018 48.7882 106.058 48.8017 105.694C48.8556 104.327 47.5553 104.185 46.8345 103.525C46.693 103.397 46.309 103.283 46.3023 103.296C45.6488 104.596 44.9347 103.222 44.2678 103.336C44.0252 103.377 43.493 103.087 43.5402 103.303C43.8299 104.576 42.7655 104.051 42.3343 104.219C41.5865 104.509 40.9735 104.953 40.3873 105.465C39.8956 105.896 39.9023 106.2 40.6097 106.314C41.2429 106.415 41.9099 106.435 42.4219 107.123C41.6 107.264 40.832 107.318 40.1111 107.527C38.0901 108.099 36.9516 109.878 36.1431 112.128C35.7322 113.273 35.6581 114.526 34.9777 115.584C35.4492 115.793 35.8669 115.436 36.2307 115.571C38.0362 116.204 39.7676 115.981 41.4585 115.18C41.5932 115.193 41.728 115.2 41.8627 115.213C41.5865 116.729 40.3402 117.888 40.9735 119.815C41.3844 121.068 41.9166 122.523 41.7819 124.025C41.728 124.584 42.5633 125.022 42.597 125.736C42.597 125.851 42.981 126.1 43.2101 125.851C43.6008 125.42 44.389 125.204 44.544 124.901C45.1975 123.641 46.693 123.291 47.36 121.829C47.4678 122.395 47.5486 122.772 47.6025 123.123C48.0404 126.019 48.8286 128.862 49.893 131.591C52.0421 137.088 53.6589 138.57 59.4257 138.786C61.3322 138.833 64.6939 138.132 67.7457 135.518C69.0324 134.582 70.3393 133.066 71.04 131.759C72.5558 128.903 71.296 125.891 68.224 124.881C66.4589 124.301 64.7747 124.672 63.0905 125.231C61.925 125.73 60.901 126.417 60.1263 127.434C61.1166 126.619 62.2821 126.141 63.4139 125.602C63.7372 125.575 64.0673 125.548 64.3907 125.514C66.5398 125.285 68.2711 125.972 69.3962 127.872C70.4876 129.711 70.2383 131.544 69.2076 133.336C69.0122 133.679 68.6753 134.124 68.3318 134.555C67.9208 135.067 67.429 135.505 66.8699 135.848C64.2425 137.459 60.8673 138.597 59.8636 138.361C55.7473 138.186 53.0324 136.172 51.5166 132.298C49.4215 126.963 48.6804 121.465 49.4551 115.86C49.792 116.217 49.8122 116.824 49.8459 117.423C49.8998 118.373 50.1827 119.323 51.0518 119.7C52.3385 120.266 53.5848 120.845 54.7368 122.105C54.7638 120.165 56.6568 119.276 56.549 117.497C56.5423 117.376 56.7579 117.255 56.8118 117.12C57.1621 116.217 57.2092 115.24 57.472 114.311C57.7482 113.347 56.6501 112.647 55.8417 112.067C55.4442 111.778 54.8648 111.69 54.6762 111.091C55.5385 110.895 56.0707 111.946 56.7242 111.724C57.5865 111.434 58.0918 112.128 58.7991 112.148C59.0888 109.689 58.752 108.436 57.2901 107.459C56.8926 107.197 55.5116 107.473 56.3065 106.206C56.3132 106.193 56.1381 106.031 56.0303 105.991C54.6829 105.479 53.3423 104.893 51.7928 105.688C51.9478 105.405 52.0556 105.189 52.1836 104.987C56.3941 98.0278 65.2261 95.3802 72.3941 97.4888C81.9267 100.298 88.8522 106.253 92.389 115.833C95.6901 124.793 95.2724 133.174 89.6808 141.265C85.0257 148.002 80.0673 154.503 75.0686 160.977C74.4286 161.805 73.7886 162.627 72.9802 163.665C72.8185 162.27 72.4615 161.28 71.9292 160.303C71.5655 159.751 71.4442 159.461 71.1949 159.185C69.5983 157.144 65.9671 154.536 65.0846 154.058C64.8623 153.937 64.4648 153.944 64.5255 153.58C64.5659 153.317 64.7141 153.061 65.0711 153.007C66.1962 152.845 66.8766 151.532 66.7284 151.08C66.3983 150.056 66.8968 149.315 66.9979 148.46C66.9979 148.426 66.9642 148.359 66.944 148.359C65.8391 148.318 66.2501 147.281 65.9132 146.749C65.5427 146.169 65.1857 145.644 64.5928 145.233C64.2021 145.981 64.512 146.87 63.6699 147.335C63.4678 142.767 60.133 141.824 56.5962 141.123C56.2796 143.023 56.0572 144.936 56.9196 146.856C55.7406 146.856 54.784 145.772 53.8071 146.102C52.0286 146.701 50.0951 146.742 48.4244 147.692C47.9259 147.975 47.845 148.056 48.1549 148.662C48.6535 149.632 49.5158 150.285 50.1962 150.993C51.2404 152.077 52.0084 153.735 54.0092 153.715C54.7975 153.715 55.6059 153.64 56.5086 153.6C56.0842 154.139 55.6126 154.024 55.1747 154.072C54.3191 154.159 53.477 154.503 53.1604 155.277C52.709 156.382 52.3048 157.474 51.2269 158.437C52.7697 158.572 53.5646 159.832 54.9659 160.081C55.6328 160.202 56.5153 160.168 57.0004 160.532C58.0446 161.327 58.5633 160.579 59.1158 160.034C59.6008 159.555 59.9309 158.922 60.4295 158.208C60.4295 158.525 60.4766 158.68 60.4227 158.76C59.8299 159.555 60.16 160.573 59.749 161.415C59.5873 161.752 59.6951 161.913 60.0859 161.981C61.8172 162.277 63.0029 161.624 63.7642 159.939C63.8518 159.744 63.8383 159.272 64.0539 159.38C65.2463 159.966 64.9297 158.787 65.0307 158.451C65.408 157.197 65.5562 155.931 64.2358 155.015C63.9932 154.846 63.7103 154.631 63.6833 154.213C64.9027 154.355 67.9747 156.261 70.1036 158.161C70.5617 158.572 70.9389 159.064 71.2286 159.603C71.3229 159.784 71.4172 159.96 71.5183 160.141C71.5991 160.35 71.7271 160.694 71.8012 160.903C72.1987 162.728 72.2661 164.568 71.2556 166.225C68.6956 170.408 67.6311 174.936 67.7322 179.8C67.8939 187.648 71.3903 193.442 78.2349 197.295C82.9642 199.956 88.2189 200.044 93.3861 200.637C92.2543 200.286 91.1023 200.051 89.9503 199.788C85.2817 198.717 80.6737 197.491 76.5777 194.843L76.5642 194.796Z" fill="#EF7A3E"/>
<path d="M75.2438 122.085C76.6383 123.257 78.4303 122.685 78.8615 120.913C79.1781 119.606 78.8884 118.4 78.1137 117.309C77.3188 116.19 76.3015 115.746 75.2977 116.089C74.0312 116.527 73.8291 117.605 73.7078 118.501C73.7011 119.983 74.3007 121.29 75.2438 122.085Z" fill="#EF7A3E"/>
<path d="M71.0939 109.46C70.6291 110.76 71.2017 112.552 72.3537 113.395C73.0678 113.913 73.8358 114.061 74.6105 113.529C75.4931 112.93 75.8164 111.603 75.4122 110.316C74.9878 108.968 73.9369 108.032 72.859 108.032C71.9023 108.045 71.3903 108.632 71.0939 109.453V109.46Z" fill="#EF7A3E"/>
<path d="M48.9768 97.1385C46.4707 99.0046 41.5528 99.1461 40.0774 97.6842C38.6357 96.2492 38.2787 94.5246 38.7637 92.6046C39.3431 90.3343 40.9263 88.9196 42.9136 87.8821C45.7094 86.7301 48.5456 85.9149 51.5839 86.9187C54.3056 88.0505 55.6193 90.3006 56.3671 93.3457C56.7915 89.6471 55.2353 87.3431 52.1094 86.6088C48.9094 85.6589 45.8778 86.2316 42.9338 87.5991C41.2429 88.1852 39.7608 89.1284 38.5616 90.4421C37.1671 91.9646 36.4193 93.7297 37.0189 95.8383C38.0362 99.429 44.0656 101.389 48.9768 97.1452V97.1385Z" fill="#EF7A3E"/>
<path d="M71.1074 119.303C71.9023 119.08 72.2459 118.42 72.3941 117.652C72.576 116.716 72.3335 115.86 71.8282 115.079C71.2758 114.223 70.5213 113.637 69.4636 113.96C68.4598 114.277 68.224 115.166 68.2173 116.372C68.1769 117.039 68.4733 117.834 69.0459 118.515C69.5781 119.148 70.2585 119.539 71.1006 119.296L71.1074 119.303Z" fill="#EF7A3E"/>
<path d="M81.8728 179.584C81.6033 179.517 81.3406 179.227 81.0105 179.469C83.3077 180.79 86.2652 180.453 87.9225 178.701C89.7212 176.795 89.8896 173.999 88.293 171.715C87.5317 170.624 86.501 169.829 85.3153 169.229C82.3646 167.599 79.2993 166.993 76.0454 168.205C76.0117 168.219 75.978 168.232 75.9376 168.246C73.1216 169.357 71.8753 171.567 72.3873 174.888C73.0138 172.12 73.9772 169.829 76.4159 168.522C77.3658 168.131 78.3427 167.99 79.3734 167.963C81.4282 167.909 83.2606 168.569 85.0324 169.512C86.5818 170.651 87.5452 172.133 87.8416 174.073C88.3738 177.644 85.3625 180.44 81.8795 179.591L81.8728 179.584Z" fill="#EF7A3E"/>
<path d="M78.3898 109.932C77.6757 109.716 77.1031 109.952 76.6787 110.545C75.9983 111.488 76.0993 113.037 76.9145 114.109C77.4467 114.803 78.1136 115.288 79.0231 115.005C79.9865 114.701 80.229 113.873 80.2829 113.179C80.2896 111.596 79.4543 110.248 78.3898 109.932Z" fill="#EF7A3E"/>
<path d="M71.9562 99.1663C70.9929 99.1461 70.2922 100.002 70.2922 101.201C70.2922 102.676 71.3499 103.936 72.576 103.916C73.5259 103.896 74.1861 103.094 74.1727 101.976C74.1524 100.453 73.1621 99.2 71.963 99.173L71.9562 99.1663Z" fill="#EF7A3E"/>
<path d="M76.0253 103.572C75.0417 103.552 74.3276 104.374 74.3141 105.553C74.2939 106.974 75.3987 108.342 76.5575 108.322C77.568 108.308 78.1811 107.533 78.1743 106.274C78.1609 104.839 77.1705 103.586 76.0253 103.565V103.572Z" fill="#EF7A3E"/>
<path d="M68.1634 105.425C68.1769 106.786 69.1739 108.045 70.2316 108.032C71.1141 108.019 71.7137 107.257 71.7204 106.152C71.7204 104.832 70.6964 103.552 69.6388 103.559C68.7428 103.559 68.1567 104.307 68.1634 105.432V105.425Z" fill="#EF7A3E"/>
<path d="M67.6783 112.835C68.2442 113.058 68.763 112.896 69.0931 112.431C69.787 111.448 69.6118 110.41 69.0392 109.447C68.6282 108.76 68.0488 108.167 67.1596 108.429C66.2771 108.692 66.1356 109.501 66.075 110.336C66.2299 111.394 66.5398 112.384 67.6851 112.835H67.6783Z" fill="#EF7A3E"/>
<path d="M67.1528 98.2299C66.1288 98.3444 65.8661 99.1394 65.8728 100.022C65.8863 101.221 66.8766 102.42 67.8063 102.36C68.8572 102.285 69.093 101.511 69.12 100.79C69.093 99.2606 68.1903 98.1221 67.1528 98.2366V98.2299Z" fill="#EF7A3E"/>
<path d="M64.4513 104.542C64.4109 105.748 65.3541 106.947 66.2837 106.887C67.2606 106.826 67.3953 106.105 67.4155 105.479C67.4088 104.091 66.4993 102.851 65.6235 102.952C64.7141 103.06 64.4783 103.768 64.4513 104.542Z" fill="#EF7A3E"/>
<path d="M75.1629 95.6699C74.1996 92.8 73.3777 89.9031 73.7347 86.5819C72.3806 88.7781 73.0947 93.056 75.1629 95.6699Z" fill="#EF7A3E"/>
<path d="M78.8817 147.564C77.2513 146.964 73.5663 148.116 72.32 152.293C72.32 152.286 72.32 152.28 72.32 152.273C72.2998 152.327 72.293 152.381 72.2796 152.435C72.2257 152.616 72.1516 152.933 72.165 152.913C71.7878 154.765 72.3402 156.268 73.8762 156.733C72.8993 155.756 71.8686 153.876 72.5288 152.293C75.5267 145.051 80.6063 148.285 80.1212 151.35C80.9701 149.74 80.3301 148.096 78.8884 147.564H78.8817Z" fill="#EF7A3E"/>
<path d="M67.8602 91.5604C66.7284 91.9175 65.9672 92.6787 65.7112 94.1339C67.739 92.2543 69.888 91.8164 72.576 92.8135C71.0266 91.4257 69.5377 91.0349 67.8602 91.5604Z" fill="#EF7A3E"/>
<path d="M80.7208 160.128C79.8046 162.068 78.4909 163.705 77.0088 165.235C78.9692 164.069 80.4446 162.533 80.7208 160.128Z" fill="#EF7A3E"/>
<path d="M83.4425 167.08C83.5839 165.039 82.277 163.955 79.7709 164.163C81.5225 164.729 82.7755 165.544 83.4425 167.08Z" fill="#EF7A3E"/>
<path d="M88.6096 186.947C88.1313 187.001 87.2892 187.251 86.7301 188.335C86.4808 188.82 86.3056 189.346 86.272 189.891C86.2315 190.531 86.3393 191.178 86.7435 191.953V190.538C86.7435 189.885 86.9995 189.258 87.4711 188.807C87.909 188.389 88.4951 187.958 89.0745 187.904C90.0648 187.816 92.7326 188.692 93.541 193.273C93.6488 193.866 93.6016 194.486 93.3726 195.038C92.8875 196.251 92.1128 197.376 90.7048 197.72C93.8374 198.225 93.696 193.684 93.6892 193.704C93.6623 191.07 92.1532 186.536 88.6096 186.947Z" fill="#EF7A3E"/>
<path d="M68.1027 165.524C69.0189 166.003 69.9486 165.645 70.2518 164.824C70.5886 163.894 69.9351 161.812 67.5638 161.098C67.5638 161.098 67.5705 161.098 67.5772 161.098C67.5436 161.091 67.5166 161.085 67.4829 161.078C67.3819 161.051 67.2 161.004 67.2135 161.011C66.1625 160.795 65.3137 161.112 65.0442 161.981C65.5966 161.421 66.6678 160.842 67.5638 161.213C71.6732 162.91 69.8408 165.794 68.1027 165.517V165.524Z" fill="#EF7A3E"/>
<path d="M178.621 194.796C184.057 191.279 186.934 186.476 186.449 179.874C185.903 172.416 182.919 165.908 178.183 160.317C173.413 154.685 168.758 149.026 165.005 142.639C160.728 135.363 158.686 127.704 160.33 119.256C161.448 113.509 163.732 108.443 168.333 104.596C169.964 103.235 171.547 101.794 173.049 100.298C176.472 96.8893 178.816 92.9684 178.526 87.9023C178.291 83.7996 175.178 78.9558 169.256 81.2935C166.602 83.0114 164.864 85.4164 163.988 88.4345C163.483 90.1659 163.436 91.8973 164.217 93.5882C164.877 95.0299 166.131 95.589 167.606 95.8383C165.302 96.2021 163.624 94.8884 163.301 92.4295C162.675 87.7271 164.588 84.0825 168.158 81.1722C171.19 78.3764 175.232 78.9086 177.516 82.3848C178.338 83.6379 178.769 85.0459 179.247 86.7773C180.029 83.9747 181.625 81.9469 182.912 79.6834C182.339 79.8383 181.942 80.8421 181.551 80.2695C181.113 79.6227 180.911 80.0337 180.642 80.1886C180.096 80.512 179.193 80.9364 178.957 80.6265C178.264 79.7305 177.165 79.9394 176.384 79.3802C175.899 79.0299 175.259 78.9221 176.115 78.2484C176.566 77.8914 175.993 77.7095 175.791 77.5478C174.915 76.8337 174.019 76.1533 173.063 75.4122C173.555 75.0013 174.168 75.1899 174.504 74.725C173.043 72.7714 173.177 70.6493 173.817 68.3587C175.07 69.2749 175.764 70.7638 177.543 70.9457C176.465 69.2278 175.562 67.5907 175.454 65.6505C175.434 65.2463 175.259 64.6265 175.596 64.5053C176.263 64.2695 175.987 63.9192 175.919 63.5284C175.805 62.8413 175.596 61.7566 176.061 61.5478C177.085 61.0829 176.694 60.1802 177.051 59.5402C177.219 59.2303 177.32 58.5903 177.637 58.7453C178.486 59.1495 178.378 58.4286 178.58 58.0918C178.937 57.5057 179.025 56.3671 179.557 56.3671C180.527 56.3671 180.493 55.653 180.857 55.2219C181.14 54.885 181.208 54.3865 181.639 54.1238C182.245 54.8311 182.407 55.7204 183.384 56.3671C184.724 57.2564 185.068 59.2573 185.997 60.7057C186.712 61.8173 186.563 63.3937 186.146 64.7747C186.024 65.1789 185.735 65.637 186.334 65.9335C186.402 65.8728 186.483 65.8257 186.516 65.7583C186.584 65.6168 186.678 65.4552 186.671 65.3069C186.503 62.5583 188.564 60.9886 189.972 59.0754C190.114 58.8867 190.336 58.752 190.538 58.6105C190.7 58.496 190.956 58.3545 191.05 58.6173C191.326 59.4392 191.629 58.8463 191.892 58.6442C192.613 58.0985 193.462 57.1688 194.156 57.317C195.341 57.5865 195.914 56.8185 196.723 56.4615C197.133 56.2796 197.491 55.9899 197.888 55.781C198.043 55.7002 198.36 55.4644 198.407 55.6733C198.71 56.96 199.336 55.9562 199.707 55.8147C200.185 55.6328 200.596 55.5385 200.994 55.8552C201.432 56.2122 200.994 56.576 200.933 56.933C200.872 57.3238 200.435 57.8358 200.758 58.0783C201.465 58.6105 200.893 59.0619 200.866 59.5671C200.812 60.4834 199.357 61.2918 200.637 62.3293C200.697 62.3764 200.495 62.7672 200.394 62.9962C200.017 63.8922 199.626 64.7815 199.215 65.7381C199.633 65.8055 199.963 65.8594 200.313 65.9133C199.377 68.2173 197.699 69.8274 196.035 71.4105C195.53 71.8888 194.668 71.8888 193.933 71.9899C193.657 72.0303 193.341 72.192 193.455 72.5558C193.543 72.8387 193.826 72.8253 194.082 72.7444C194.621 72.5625 195.213 72.4615 195.685 72.1718C196.803 71.4846 197.955 71.0265 199.283 71.2893C200.468 71.5183 201.142 72.8724 202.489 72.7781C202.584 72.7714 202.651 72.8589 202.617 72.9533C202.139 74.0648 203.183 73.6269 203.527 73.7684C204.221 74.0581 205.056 73.8358 205.837 74.3276C205.278 75.0282 204.706 75.6615 204.241 76.3688C204.025 76.6922 203.035 77.1031 204.194 77.5882C204.49 77.7095 204.12 77.9924 203.985 78.1474C203.358 78.848 202.705 79.5284 202.058 80.2156C201.843 80.4514 201.425 80.6871 201.56 80.9903C201.863 81.6707 201.317 81.7448 200.98 81.9671C200.61 82.2164 200.192 82.405 199.821 82.661C199.471 82.9103 198.616 82.9911 199.431 83.7187C199.734 83.9882 199.35 84.1229 199.161 84.2173C198.259 84.6821 197.309 84.8168 196.305 84.5878C195.254 84.3453 194.311 83.8669 193.354 83.3954C193.044 83.2472 192.62 82.8429 192.391 83.2202C192.121 83.6648 192.66 83.9208 192.984 84.1297C193.603 84.5271 194.708 84.7899 194.803 85.2615C195.038 86.501 195.981 86.8042 196.776 87.3634C196.999 87.5183 197.329 87.68 196.958 88.0034C196.029 88.805 194.897 89.4855 193.866 89.9031C192.431 90.4893 190.666 90.3141 189.305 89.1082C188.928 88.7714 188.51 88.4817 188.032 88.1111C187.944 88.6568 187.877 89.0678 187.803 89.5461C186.449 88.8724 185.438 88.0236 184.731 86.8244C184.589 86.5819 184.367 86.117 184.293 86.1373C182.528 86.656 183.505 85.1806 183.518 84.8573C183.586 83.3751 183.862 81.9065 184.111 80.0808C182.717 81.7246 181.571 83.1057 180.709 84.6821C179.961 86.0497 179.355 87.4914 179.335 89.088C179.294 92.4766 178.176 95.4947 176.236 98.2366C175.879 98.7419 175.508 99.2337 175.144 99.7322C176.903 98.8834 178.58 98.0345 180.318 97.3271C184.765 95.5015 189.346 94.4977 194.088 95.8518C199.283 97.3339 203.015 100.662 205.379 105.526C205.48 105.728 205.433 106.166 205.844 106.065C206.04 106.018 206.397 106.058 206.383 105.694C206.329 104.327 207.629 104.185 208.35 103.525C208.492 103.397 208.876 103.283 208.883 103.296C209.536 104.596 210.25 103.222 210.917 103.336C211.16 103.377 211.692 103.087 211.645 103.303C211.355 104.576 212.419 104.051 212.851 104.219C213.598 104.509 214.211 104.953 214.797 105.465C215.289 105.896 215.283 106.2 214.575 106.314C213.942 106.415 213.275 106.435 212.763 107.123C213.585 107.264 214.353 107.318 215.074 107.527C217.095 108.099 218.233 109.878 219.042 112.128C219.453 113.273 219.527 114.526 220.207 115.584C219.736 115.793 219.318 115.436 218.954 115.571C217.149 116.204 215.417 115.981 213.726 115.18C213.592 115.193 213.457 115.2 213.322 115.213C213.598 116.729 214.845 117.888 214.211 119.815C213.8 121.068 213.268 122.523 213.403 124.025C213.457 124.584 212.621 125.022 212.588 125.736C212.588 125.851 212.204 126.1 211.975 125.851C211.584 125.42 210.796 125.204 210.641 124.901C209.987 123.641 208.492 123.291 207.825 121.829C207.717 122.395 207.636 122.772 207.582 123.123C207.144 126.019 206.356 128.862 205.292 131.591C203.143 137.088 201.526 138.57 195.759 138.786C193.853 138.833 190.491 138.132 187.439 135.518C186.152 134.582 184.845 133.066 184.145 131.759C182.629 128.903 183.889 125.891 186.961 124.881C188.726 124.301 190.41 124.672 192.094 125.231C193.26 125.73 194.284 126.417 195.059 127.434C194.068 126.619 192.903 126.141 191.771 125.602C191.448 125.575 191.117 125.548 190.794 125.514C188.645 125.285 186.914 125.972 185.789 127.872C184.697 129.711 184.947 131.544 185.977 133.336C186.173 133.679 186.509 134.124 186.853 134.555C187.264 135.067 187.756 135.505 188.315 135.848C190.942 137.459 194.317 138.597 195.321 138.361C199.437 138.186 202.152 136.172 203.668 132.298C205.763 126.963 206.504 121.465 205.73 115.86C205.393 116.217 205.373 116.824 205.339 117.423C205.285 118.373 205.002 119.323 204.133 119.7C202.846 120.266 201.6 120.845 200.448 122.105C200.421 120.165 198.528 119.276 198.636 117.497C198.643 117.376 198.427 117.255 198.373 117.12C198.023 116.217 197.976 115.24 197.713 114.311C197.437 113.347 198.535 112.647 199.343 112.067C199.741 111.778 200.32 111.69 200.509 111.091C199.646 110.895 199.114 111.946 198.461 111.724C197.598 111.434 197.093 112.128 196.386 112.148C196.096 109.689 196.433 108.436 197.895 107.459C198.292 107.197 199.673 107.473 198.878 106.206C198.872 106.193 199.047 106.031 199.155 105.991C200.502 105.479 201.843 104.893 203.392 105.688C203.237 105.405 203.129 105.189 203.001 104.987C198.791 98.0278 189.959 95.3802 182.791 97.4888C173.258 100.298 166.333 106.253 162.796 115.833C159.495 124.793 159.912 133.174 165.504 141.265C170.159 148.002 175.117 154.503 180.116 160.977C180.756 161.805 181.396 162.627 182.205 163.665C182.366 162.27 182.723 161.28 183.256 160.303C183.619 159.751 183.741 159.461 183.99 159.185C185.587 157.144 189.218 154.536 190.1 154.058C190.323 153.937 190.72 153.944 190.659 153.58C190.619 153.317 190.471 153.061 190.114 153.007C188.989 152.845 188.308 151.532 188.456 151.08C188.787 150.056 188.288 149.315 188.187 148.46C188.187 148.426 188.221 148.359 188.241 148.359C189.346 148.318 188.935 147.281 189.272 146.749C189.642 146.169 189.999 145.644 190.592 145.233C190.983 145.981 190.673 146.87 191.515 147.335C191.717 142.767 195.052 141.824 198.589 141.123C198.905 143.023 199.128 144.936 198.265 146.856C199.444 146.856 200.401 145.772 201.378 146.102C203.156 146.701 205.09 146.742 206.76 147.692C207.259 147.975 207.34 148.056 207.03 148.662C206.531 149.632 205.669 150.285 204.989 150.993C203.944 152.077 203.176 153.735 201.176 153.715C200.387 153.715 199.579 153.64 198.676 153.6C199.101 154.139 199.572 154.024 200.01 154.072C200.866 154.159 201.708 154.503 202.024 155.277C202.476 156.382 202.88 157.474 203.958 158.437C202.415 158.572 201.62 159.832 200.219 160.081C199.552 160.202 198.669 160.168 198.184 160.532C197.14 161.327 196.621 160.579 196.069 160.034C195.584 159.555 195.254 158.922 194.755 158.208C194.755 158.525 194.708 158.68 194.762 158.76C195.355 159.555 195.025 160.573 195.436 161.415C195.597 161.752 195.49 161.913 195.099 161.981C193.368 162.277 192.182 161.624 191.421 159.939C191.333 159.744 191.347 159.272 191.131 159.38C189.939 159.966 190.255 158.787 190.154 158.451C189.777 157.197 189.629 155.931 190.949 155.015C191.192 154.846 191.475 154.631 191.501 154.213C190.282 154.355 187.21 156.261 185.081 158.161C184.623 158.572 184.246 159.064 183.956 159.603C183.862 159.784 183.768 159.96 183.667 160.141C183.586 160.35 183.458 160.694 183.384 160.903C182.986 162.728 182.919 164.568 183.929 166.225C186.489 170.408 187.554 174.936 187.453 179.8C187.291 187.648 183.795 193.442 176.95 197.295C172.221 199.956 166.966 200.044 161.799 200.637C162.931 200.286 164.083 200.051 165.235 199.788C169.903 198.717 174.511 197.491 178.607 194.843L178.621 194.796Z" fill="#EF7A3E"/>
<path d="M179.948 122.085C178.553 123.257 176.761 122.685 176.33 120.913C176.013 119.606 176.303 118.4 177.078 117.309C177.873 116.19 178.89 115.746 179.894 116.089C181.16 116.527 181.363 117.605 181.484 118.501C181.491 119.983 180.891 121.29 179.948 122.085Z" fill="#EF7A3E"/>
<path d="M184.091 109.46C184.556 110.76 183.983 112.552 182.831 113.395C182.117 113.913 181.349 114.061 180.574 113.529C179.692 112.93 179.368 111.603 179.773 110.316C180.197 108.968 181.248 108.032 182.326 108.032C183.283 108.045 183.795 108.632 184.091 109.453V109.46Z" fill="#EF7A3E"/>
<path d="M206.208 97.1385C208.714 99.0046 213.632 99.1461 215.107 97.6842C216.549 96.2492 216.906 94.5246 216.421 92.6046C215.842 90.3343 214.258 88.9196 212.271 87.8821C209.475 86.7301 206.639 85.9149 203.601 86.9187C200.879 88.0505 199.565 90.3006 198.818 93.3457C198.393 89.6471 199.949 87.3431 203.075 86.6088C206.275 85.6589 209.307 86.2316 212.251 87.5991C213.942 88.1852 215.424 89.1284 216.623 90.4421C218.018 91.9646 218.765 93.7297 218.166 95.8383C217.149 99.429 211.119 101.389 206.208 97.1452V97.1385Z" fill="#EF7A3E"/>
<path d="M184.077 119.303C183.283 119.08 182.939 118.42 182.791 117.652C182.609 116.716 182.851 115.86 183.357 115.079C183.909 114.223 184.664 113.637 185.721 113.96C186.725 114.277 186.961 115.166 186.968 116.372C187.008 117.039 186.712 117.834 186.139 118.515C185.607 119.148 184.926 119.539 184.084 119.296L184.077 119.303Z" fill="#EF7A3E"/>
<path d="M173.319 179.584C173.588 179.517 173.851 179.227 174.181 179.469C171.884 180.79 168.926 180.453 167.269 178.701C165.47 176.795 165.302 173.999 166.899 171.715C167.66 170.624 168.691 169.829 169.876 169.229C172.827 167.599 175.892 166.993 179.146 168.205C179.18 168.219 179.213 168.232 179.254 168.246C182.07 169.357 183.316 171.567 182.804 174.888C182.178 172.12 181.214 169.829 178.776 168.522C177.826 168.131 176.849 167.99 175.818 167.963C173.763 167.909 171.931 168.569 170.159 169.512C168.61 170.651 167.646 172.133 167.35 174.073C166.818 177.644 169.829 180.44 173.312 179.591L173.319 179.584Z" fill="#EF7A3E"/>
<path d="M176.795 109.932C177.509 109.716 178.082 109.952 178.506 110.545C179.187 111.488 179.085 113.037 178.27 114.109C177.738 114.803 177.071 115.288 176.162 115.005C175.198 114.701 174.956 113.873 174.902 113.179C174.895 111.596 175.731 110.248 176.795 109.932Z" fill="#EF7A3E"/>
<path d="M183.229 99.1663C184.192 99.1461 184.893 100.002 184.893 101.201C184.893 102.676 183.835 103.936 182.609 103.916C181.659 103.896 180.999 103.094 181.012 101.976C181.032 100.453 182.023 99.2 183.222 99.173L183.229 99.1663Z" fill="#EF7A3E"/>
<path d="M179.166 103.572C180.15 103.552 180.864 104.374 180.877 105.553C180.898 106.974 179.793 108.342 178.634 108.322C177.624 108.308 177.011 107.533 177.017 106.274C177.031 104.839 178.021 103.586 179.166 103.565V103.572Z" fill="#EF7A3E"/>
<path d="M187.022 105.425C187.008 106.786 186.011 108.045 184.953 108.032C184.071 108.019 183.471 107.257 183.464 106.152C183.464 104.832 184.488 103.552 185.546 103.559C186.442 103.559 187.028 104.307 187.022 105.432V105.425Z" fill="#EF7A3E"/>
<path d="M187.506 112.835C186.941 113.058 186.422 112.896 186.092 112.431C185.398 111.448 185.573 110.41 186.146 109.447C186.557 108.76 187.136 108.167 188.025 108.429C188.908 108.692 189.049 109.501 189.11 110.336C188.955 111.394 188.645 112.384 187.5 112.835H187.506Z" fill="#EF7A3E"/>
<path d="M188.032 98.2299C189.056 98.3444 189.319 99.1394 189.312 100.022C189.298 101.221 188.308 102.42 187.379 102.36C186.328 102.285 186.092 101.511 186.065 100.79C186.092 99.2606 186.995 98.1221 188.032 98.2366V98.2299Z" fill="#EF7A3E"/>
<path d="M190.74 104.542C190.781 105.748 189.837 106.947 188.908 106.887C187.931 106.826 187.796 106.105 187.776 105.479C187.783 104.091 188.692 102.851 189.568 102.952C190.477 103.06 190.713 103.768 190.74 104.542Z" fill="#EF7A3E"/>
<path d="M180.022 95.6699C180.985 92.8 181.807 89.9031 181.45 86.5819C182.804 88.7781 182.09 93.056 180.022 95.6699Z" fill="#EF7A3E"/>
<path d="M176.303 147.564C177.933 146.964 181.619 148.116 182.865 152.293C182.865 152.286 182.865 152.28 182.865 152.273C182.885 152.327 182.892 152.381 182.905 152.435C182.959 152.616 183.033 152.933 183.02 152.913C183.397 154.765 182.845 156.268 181.309 156.733C182.285 155.756 183.316 153.876 182.656 152.293C179.658 145.051 174.579 148.285 175.064 151.35C174.215 149.74 174.855 148.096 176.296 147.564H176.303Z" fill="#EF7A3E"/>
<path d="M187.331 91.5604C188.463 91.9175 189.224 92.6787 189.48 94.1339C187.453 92.2543 185.304 91.8164 182.616 92.8135C184.165 91.4257 185.654 91.0349 187.331 91.5604Z" fill="#EF7A3E"/>
<path d="M174.464 160.128C175.38 162.068 176.694 163.705 178.176 165.235C176.216 164.069 174.74 162.533 174.464 160.128Z" fill="#EF7A3E"/>
<path d="M171.742 167.08C171.601 165.039 172.908 163.955 175.414 164.163C173.662 164.729 172.409 165.544 171.742 167.08Z" fill="#EF7A3E"/>
<path d="M166.575 186.947C167.053 187.001 167.896 187.251 168.455 188.335C168.704 188.82 168.879 189.346 168.913 189.891C168.953 190.531 168.845 191.178 168.441 191.953V190.538C168.441 189.885 168.185 189.258 167.714 188.807C167.276 188.389 166.69 187.958 166.11 187.904C165.12 187.816 162.452 188.692 161.644 193.273C161.536 193.866 161.583 194.486 161.812 195.038C162.297 196.251 163.072 197.376 164.48 197.72C161.347 198.225 161.489 193.684 161.496 193.704C161.523 191.07 163.032 186.536 166.575 186.947Z" fill="#EF7A3E"/>
<path d="M187.082 165.524C186.166 166.003 185.236 165.645 184.933 164.824C184.596 163.894 185.25 161.812 187.621 161.098C187.621 161.098 187.614 161.098 187.608 161.098C187.641 161.091 187.668 161.085 187.702 161.078C187.803 161.051 187.985 161.004 187.971 161.011C189.022 160.795 189.871 161.112 190.141 161.981C189.588 161.421 188.517 160.842 187.621 161.213C183.512 162.91 185.344 165.794 187.082 165.517V165.524Z" fill="#EF7A3E"/>
</svg>
