<?xml version="1.0" encoding="UTF-8"?>
<svg id="Calque_1" data-name="Calque 1" xmlns="http://www.w3.org/2000/svg" version="1.1" viewBox="0 0 612 792">
  <defs>
    <style>
      .cls-1 {
        fill: #831817;
        stroke-width: 0px;
      }
    </style>
  </defs>
  <path class="cls-1" d="M291.2,295.1c.2-5.7,8.6-18,8.6-18l-25,15.3c16-.3,16.4,2.7,16.4,2.7"/>
  <path class="cls-1" d="M450,227.6c-.9-24.7-5.3-49.6-12.7-74,3.8,22,4.9,44.8,3.3,67.8-40-25.2-85.9-39.4-134.6-39.4s-93.7,14-133.5,38.8c-1.5-22.8-.4-45.3,3.4-67.1-7.4,24.1-11.7,48.7-12.7,73.2-18.1,12.3-34.9,26.8-50.1,43.3,15.2-12.7,31.9-23.9,49.9-33.3-.2,44.5,10.6,88.3,33.6,128,24.3,41.8,59.3,74.1,100.8,96.1-17.3,10.8-35.4,19.7-54,26.5,22.1-5,43.3-12.3,63.2-21.9,19.9,9.6,41.1,16.9,63.2,21.9-18.6-6.8-36.8-15.7-54-26.5,41.5-22,76.5-54.3,100.8-96.1,23-39.5,33.7-83.1,33.6-127.4,17.6,9.3,33.9,20.3,48.8,32.7-14.9-16.1-31.4-30.4-49-42.5M428.6,287c-6.9,23-16.6,45.8-29.4,67.7-24.2,41.6-56.3,75.4-92.7,100.2-36.4-24.8-68.5-58.5-92.7-100.2-22.9-39.4-36.2-81.6-40.5-123.2,39.6-18.9,84.7-29.5,132.6-29.5s53.9,3.5,79,10c-.9-.2-1.8-.3-2.7-.5,0,0-72.8-14.3-100.1,47.8l-71.9,32.3.9,5.8c.2,1.3,5.2,31.6,30.6,46.6l5.4,3.2,4.2-4.7c9.2-10.5,19.4-15.5,27.3-11.8,4.4,2.1,6.9,6.2,6.2,10.3-.9,5.7-8.3,13.5-26.5,15.9l-7.2.9.5,7.2c2,27.1,34.2,34.1,35.5,34.4l3.7.8,2.9-2.4c5-4.3,20.1-16,30.1-18.8,0,0,7.8-2.8,14.8-3.6-1.3,9.5-19.3,26.5-19.3,26.5,89.5-40.7,53.7-115.8,53.7-115.8-8.5,16.4-41.6,21.9-41.6,21.9,19.3,4.4,27.8,5.5,27.8,5.5,2.9,16.5.6,27.8-9.8,45.6-.2,0-17.3,1.6-29.7,5.3-12.5,3.7-26.3,14.1-32.7,19.3-5-1.6-14.1-5.5-18.1-12.9,25-5.7,30.1-19.9,31-26.1,1.7-10.9-4.3-21.6-14.9-26.5-14.6-6.9-29.7-.2-40.5,9.7-10.1-8.1-15-20-17.1-26.8l72.3-32.5c15.3-57.4,84.9-37.4,84.9-37.4-15.1,1.4-25,23.7-33.4,35-8.7,11.7-18.4,14.9-18.4,14.9,18.2,1.8,46.8-32,66.6-32,28.9,0,31.6,21,28.9,38.4"/>
  <g>
    <g>
      <path class="cls-1" d="M224.7,508.2v2c0,.4-.1.7-.7.7h-3.7v12c0,.6-.3.7-.7.7h-2.4c-.4,0-.7-.1-.7-.7v-12h-3.8c-.6,0-.7-.3-.7-.7v-2c0-.4.1-.7.7-.7h11.4c.6,0,.7.3.7.7"/>
      <path class="cls-1" d="M239.1,523.6h-2.6c-.5,0-.7-.1-.9-.7l-.7-1.9h-6l-.7,1.9c-.2.6-.4.7-.9.7h-2.6c-.5,0-.5-.4-.4-.7l5.4-14.7c.2-.5.5-.8,1-.8h2.4c.5,0,.8.2,1,.8l5.4,14.7c.1.3.1.7-.4.7M233.7,517.5l-1.8-5.4-1.8,5.4h3.7Z"/>
      <path class="cls-1" d="M254.5,513v5.1c0,3.8-3.7,5.5-6.6,5.5h-5.5c-.6,0-.7-.3-.7-.7v-14.7c0-.4.1-.7.7-.7h5.5c2.9,0,6.6,1.7,6.6,5.5M250.6,513.4c0-1.5-1.1-2.4-2.7-2.4h-2.4v9.3h2.4c1.6,0,2.7-.9,2.7-2.4v-4.4Z"/>
      <path class="cls-1" d="M270,520.9v2c0,.4-.1.7-.7.7h-11c-.6,0-.7-.3-.7-.7v-14.7c0-.4.1-.7.7-.7h10.6c.6,0,.7.3.7.7v2c0,.4-.1.7-.7.7h-7.4v2.7h6.6c.6,0,.7.3.7.7v1.9c0,.4-.1.7-.7.7h-6.6v3.2h7.8c.6,0,.7.3.7.7"/>
      <path class="cls-1" d="M315.2,518.5c0,3.9-3.7,5.5-6.6,5.5s-6.5-1.7-6.5-5.5v-5.8c0-3.9,3.6-5.5,6.5-5.5s6.6,1.7,6.6,5.5v5.8ZM311.4,513c0-1.6-1.1-2.5-2.7-2.5s-2.7.9-2.7,2.5v5.1c0,1.6,1.1,2.5,2.7,2.5s2.7-.9,2.7-2.5v-5.1Z"/>
      <path class="cls-1" d="M331.2,523.6h-2.9c-.6,0-.9-.2-1.2-.7l-2.6-3.9c-.2-.3-.3-.6-.3-1.2v-2c0-.4.1-.7.7-.7h.5c1.2,0,2.3-.8,2.3-2s-1-2.1-2.3-2.1h-3.3v12c0,.6-.3.7-.7.7h-2.4c-.4,0-.7-.1-.7-.7v-14.7c0-.4.1-.7.7-.7h6.2c2.7,0,3.8.5,4.9,1.6.9.9,1.4,2.3,1.4,3.8,0,2.6-1.9,4.4-3.4,4.9l3.5,5c.2.3,0,.8-.4.8"/>
      <path class="cls-1" d="M347.4,513v5.1c0,3.8-3.7,5.5-6.6,5.5h-5.5c-.6,0-.7-.3-.7-.7v-14.7c0-.4.1-.7.7-.7h5.5c2.9,0,6.6,1.7,6.6,5.5M343.6,513.4c0-1.5-1.1-2.4-2.7-2.4h-2.4v9.3h2.4c1.6,0,2.7-.9,2.7-2.4v-4.4h0Z"/>
      <path class="cls-1" d="M363,520.9v2c0,.4-.1.7-.7.7h-11c-.6,0-.7-.3-.7-.7v-14.7c0-.4.1-.7.7-.7h10.6c.6,0,.7.3.7.7v2c0,.4-.1.7-.7.7h-7.4v2.7h6.6c.6,0,.7.3.7.7v1.9c0,.4-.1.7-.7.7h-6.6v3.2h7.8c.6,0,.7.3.7.7"/>
      <path class="cls-1" d="M377.5,520.9v2c0,.4-.1.7-.7.7h-10.2c-.6,0-.7-.3-.7-.7v-14.7c0-.6.3-.7.7-.7h2.4c.4,0,.7.1.7.7v12h7.1c.6,0,.7.3.7.7"/>
      <path class="cls-1" d="M393.6,523.6h-2.6c-.5,0-.7-.1-.9-.7l-.7-1.9h-6l-.7,1.9c-.2.6-.4.7-.9.7h-2.6c-.5,0-.5-.4-.4-.7l5.4-14.7c.2-.5.5-.8,1-.8h2.4c.5,0,.8.2,1,.8l5.4,14.7c.1.3.1.7-.4.7M388.3,517.5l-1.8-5.4-1.8,5.4h3.7Z"/>
      <path class="cls-1" d="M403.9,521v1.9c0,.4-.1.7-.7.7h-6.9c-.6,0-.7-.3-.7-.7v-1.9c0-.4.1-.7.7-.7h1.5v-9.4h-1.5c-.6,0-.7-.3-.7-.7v-2c0-.4.1-.7.7-.7h6.8c.6,0,.7.3.7.7v2c0,.4-.1.7-.7.7h-1.5v9.4h1.5c.6,0,.7.3.7.7"/>
      <path class="cls-1" d="M419.1,518.8c0,3.5-2.7,5.1-6.5,5.1s-6.6-1.8-6.6-5.2.1-.7.7-.7h2.4c.6,0,.8,0,.9.7,0,.3.1.6.5,1,.5.6,1.5.8,2.4.8,1.3,0,2.4-.3,2.4-1.7s-2.2-1.4-4.3-2.1c-2.5-.8-4.8-1.8-4.8-4.9s2.9-4.8,6-4.9c3.1,0,6.5,1.4,6.5,4.7s-.1.7-.7.7h-2.4c-.5,0-.5-.3-.7-.7,0-.2-.2-.4-.5-.7-.5-.4-1.3-.7-2.1-.7s-2.2.3-2.2,1.4,3.6,2,4.6,2.4c1.8.5,4.4,1.3,4.4,4.6"/>
    </g>
    <g>
      <path class="cls-1" d="M210.6,517.8c0,4.7-3.7,6.9-8.8,6.9s-8.9-2.4-8.9-7,.2-.9,1-.9h3.2c.8,0,1.1,0,1.2.9,0,.4.2.9.6,1.4.7.8,2,1.1,3.2,1.1,1.8,0,3.2-.4,3.2-2.2s-2.9-1.9-5.7-2.8c-3.3-1.1-6.4-2.4-6.4-6.6s3.9-6.4,8-6.6c4.2,0,8.8,1.9,8.8,6.3s-.2.9-1,.9h-3.2c-.6,0-.7-.5-.9-.9-.1-.3-.3-.6-.7-1-.6-.6-1.8-.9-2.8-.9s-2.9.4-2.9,1.9,4.8,2.7,6.2,3.3c2.4.7,5.9,1.7,5.9,6.2"/>
      <path class="cls-1" d="M299.2,517.9c0,4.2-3.3,6.3-7.8,6.3h-9.7c-.8,0-1-.4-1-1v-19.8c0-.6.2-1,1-1h9.2c5.4,0,7.7,2.9,7.7,6s-2.1,4.4-2.4,4.5c.3,0,3,1.4,3,4.9M294,517.4c0-1.5-1.2-2-2.7-2h-.8c-.8,0-1-.4-1-1v-2.5c0-.6.2-1,1-1h.4c1.9,0,2.7-.7,2.7-2s-1-1.8-2.7-1.8h-5v12.4h5.5c1.6,0,2.5-.7,2.5-2.1"/>
    </g>
    <g>
      <path class="cls-1" d="M259.7,569.3h-5.5c-1.1,0-1.7-.4-2.3-1.4l-5-7.5c-.4-.6-.5-1.1-.5-2.4v-3.7c0-.8.3-1.3,1.3-1.3h.9c2.3,0,4.4-1.6,4.4-3.8s-1.9-3.9-4.3-3.9h-6.2v22.6c0,1.1-.5,1.3-1.3,1.3h-4.6c-.8,0-1.3-.3-1.3-1.3v-27.8c0-.8.2-1.3,1.3-1.3h11.7c5.1,0,7.3,1,9.2,3,1.7,1.7,2.7,4.3,2.7,7.3,0,4.9-3.6,8.3-6.4,9.2l6.5,9.5c.4.6.2,1.5-.7,1.5"/>
      <path class="cls-1" d="M349.1,560.4c0,5.9-4.6,8.9-11,8.9h-13.6c-1.1,0-1.3-.5-1.3-1.3v-27.8c0-.8.3-1.3,1.3-1.3h13c7.5,0,10.8,4,10.8,8.4s-3,6.2-3.4,6.3c.4.1,4.2,1.9,4.2,6.9M341.7,559.7c0-2.2-1.6-2.8-3.8-2.8h-1.1c-1.1,0-1.3-.5-1.3-1.3v-3.5c0-.8.3-1.3,1.3-1.3h.6c2.7,0,3.8-1,3.8-2.8s-1.4-2.6-3.8-2.6h-7v17.4h7.8c2.3,0,3.6-.9,3.6-3"/>
      <g>
        <path class="cls-1" d="M370.9,539.3l-5.7,10.4-5.8-10.4c-.1-.2-.3-.4-.6-.4h-6.7c-.5,0-.9.6-.6,1.1l10,16.8v12.1c0,.4.3.7.7.7h5.7c.4,0,.7-.3.7-.7v-12.1l10-16.9c.3-.5,0-1.1-.6-1.1h-6.6c-.2,0-.5.1-.6.4Z"/>
        <path class="cls-1" d="M281.1,555.6c0,2.2,0,3.8-.2,4.7-.1.8-.5,1.5-1.2,2-.7.5-1.7.8-3.2.8s-2.5-.3-3.3-.9c-.8-.6-1.3-1.4-1.5-2.4,0-.5-.2-1.7-.2-4.7v-15.6c0-.4-.3-.7-.7-.7h-5.9c-.4,0-.7.3-.7.7v15.4c0,3.3.2,5.7.6,7.4.3,1.2.9,2.4,1.7,3.5.9,1.1,2.1,2,3.6,2.7,1.5.7,3.6,1,6.5,1s4.3-.3,5.8-.9c1.5-.6,2.7-1.5,3.6-2.6.9-1.1,1.5-2.4,1.9-3.9.3-1.5.5-3.9.5-7.5v-15.1c0-.4-.3-.7-.7-.7h-5.9c-.4,0-.7.3-.7.7v15.9Z"/>
        <path class="cls-1" d="M306.1,558.6h5c.4,0,.7.3.7.7v1.5c0,.2-.1.4-.3.6-.7.4-1.4.8-2.2,1.2-1.1.4-2.1.7-3.2.7-2.1,0-3.8-.7-5.1-2.3-1.3-1.6-2-4-2-7.2s.7-5.2,1.9-6.6c1.3-1.4,3-2.1,5.2-2.1s2.6.3,3.5,1.1c.7.5,1.5,2.3,1.9,3.1.1.3.4.5.8.4l5.7-1.1c.4,0,.6-.5.5-.8-.4-1.5-1.7-5.1-3.9-6.7-2.1-1.5-4.9-2.4-8.4-2.4s-5.1.5-6.9,1.5c-2.4,1.3-4.3,3.2-5.6,5.7-1.2,2.4-1.9,5.2-1.9,8.3s.6,5.5,1.7,8c1.1,2.5,2.9,4.4,5.1,5.7,2.2,1.3,4.9,2,7.9,2s4.7-.5,7-1.4c2-.8,4.6-2.8,5.3-3.3s.2-.2.2-.4v-11.6c0-.4-.3-.7-.7-.7h-12.1c-.4,0-.7.3-.7.7v5c0,.4.3.7.7.7Z"/>
      </g>
    </g>
  </g>
</svg>