<svg width="256" height="256" viewBox="0 0 256 256" fill="none" xmlns="http://www.w3.org/2000/svg">
<g clip-path="url(#clip0_623_20379)">
<path d="M128 2.46338C111.051 2.46338 94.6127 5.78301 79.1354 12.3268C64.1878 18.6489 50.7614 27.7025 39.232 39.2319C27.7026 50.7613 18.6521 64.1877 12.3269 79.1353C5.78006 94.6125 2.4635 111.051 2.4635 128C2.4635 144.949 5.78314 161.387 12.3269 176.864C18.649 191.812 27.7026 205.238 39.232 216.768C50.7614 228.297 64.1878 237.348 79.1354 243.673C94.6127 250.22 111.051 253.536 128 253.536C144.949 253.536 161.387 250.217 176.865 243.673C191.812 237.351 205.238 228.297 216.768 216.768C228.297 205.238 237.348 191.812 243.673 176.864C250.22 161.387 253.536 144.949 253.536 128C253.536 111.051 250.217 94.6125 243.673 79.1353C237.351 64.1877 228.297 50.7613 216.768 39.2319C205.238 27.7025 191.812 18.652 176.865 12.3268C161.387 5.77994 144.949 2.46338 128 2.46338Z" fill="white"/>
<path d="M128 256C110.721 256 93.9568 252.616 78.1747 245.939C62.9314 239.491 49.2433 230.262 37.4891 218.508C25.7349 206.754 16.5058 193.065 10.0575 177.822C3.3843 162.043 0 145.279 0 128C0 110.721 3.3843 93.9568 10.0605 78.1747C16.5089 62.9314 25.738 49.2433 37.4922 37.4891C49.2464 25.7349 62.9345 16.5058 78.1777 10.0605C93.9568 3.3843 110.721 0 128 0C145.279 0 162.043 3.3843 177.825 10.0605C193.069 16.5089 206.757 25.738 218.511 37.4922C230.265 49.2464 239.494 62.9345 245.943 78.1777C252.619 93.9599 256.003 110.721 256.003 128.003C256.003 145.285 252.619 162.046 245.943 177.828C239.494 193.072 230.265 206.76 218.511 218.514C206.757 230.268 193.069 239.497 177.825 245.946C162.043 252.622 145.282 256.006 128 256.006V256ZM128 2.46355C111.051 2.46355 94.6127 5.78319 79.1355 12.327C64.1879 18.6491 50.7615 27.7026 39.2321 39.2321C27.7026 50.7615 18.6522 64.1879 12.327 79.1355C5.78011 94.6127 2.46355 111.051 2.46355 128C2.46355 144.949 5.78319 161.387 12.327 176.865C18.6491 191.812 27.7026 205.239 39.2321 216.768C50.7615 228.297 64.1879 237.348 79.1355 243.673C94.6127 250.22 111.051 253.536 128 253.536C144.949 253.536 161.387 250.217 176.865 243.673C191.812 237.351 205.239 228.297 216.768 216.768C228.297 205.239 237.348 191.812 243.673 176.865C250.22 161.387 253.536 144.949 253.536 128C253.536 111.051 250.217 94.6127 243.673 79.1355C237.351 64.1879 228.297 50.7615 216.768 39.2321C205.239 27.7026 191.812 18.6522 176.865 12.327C161.387 5.78011 144.949 2.46355 128 2.46355Z" fill="#F19E28"/>
<path d="M128 244.757H127.446L127.458 242.293H128C129.829 242.293 131.683 242.25 133.503 242.164L133.62 244.625C131.76 244.714 129.869 244.757 128 244.757ZM122.512 244.631C120.462 244.535 118.389 244.384 116.357 244.184L116.6 241.733C118.589 241.93 120.619 242.078 122.626 242.17L122.512 244.631ZM138.547 244.286L138.328 241.831C140.324 241.653 142.344 241.419 144.33 241.136L144.678 243.574C142.649 243.864 140.586 244.104 138.547 244.286ZM111.454 243.593C109.425 243.307 107.377 242.959 105.369 242.564L105.843 240.147C107.811 240.532 109.816 240.874 111.802 241.154L111.457 243.593H111.454ZM149.55 242.771L149.097 240.35C151.068 239.984 153.057 239.556 155.004 239.085L155.583 241.48C153.593 241.964 151.561 242.398 149.547 242.774L149.55 242.771ZM100.544 241.511C98.5544 241.031 96.5466 240.492 94.5819 239.907L95.2871 237.545C97.2117 238.118 99.1733 238.647 101.123 239.115L100.547 241.511H100.544ZM160.359 240.215L159.678 237.847C161.606 237.292 163.543 236.676 165.437 236.021L166.244 238.349C164.307 239.02 162.326 239.648 160.359 240.215ZM89.8796 238.392C87.9395 237.72 85.9903 236.991 84.0872 236.218L85.0141 233.936C86.8771 234.693 88.7833 235.408 90.6833 236.064L89.8796 238.392ZM170.875 236.633L169.97 234.342C171.83 233.606 173.696 232.812 175.519 231.98L176.544 234.219C174.684 235.072 172.775 235.882 170.875 236.633ZM79.545 234.259C77.6788 233.406 75.8127 232.492 73.9928 231.543L75.1352 229.36C76.9182 230.29 78.7443 231.186 80.5704 232.02L79.5481 234.262L79.545 234.259ZM180.979 232.073L179.861 229.877C181.644 228.969 183.427 227.999 185.161 226.995L186.395 229.126C184.625 230.151 182.802 231.143 180.979 232.073ZM69.6569 229.157C67.8832 228.131 66.1094 227.044 64.3911 225.923L65.7337 223.857C67.4182 224.953 69.1519 226.015 70.8887 227.022L69.6569 229.157ZM190.611 226.567L189.287 224.488C190.981 223.41 192.665 222.274 194.294 221.113L195.723 223.118C194.057 224.306 192.339 225.464 190.608 226.567H190.611ZM60.3077 223.139C58.6387 221.951 56.9789 220.7 55.3745 219.422L56.908 217.495C58.4785 218.745 60.1045 219.967 61.7366 221.131L60.3077 223.136V223.139ZM199.68 220.171L198.165 218.228C199.748 216.996 201.318 215.706 202.833 214.391L204.447 216.251C202.898 217.593 201.297 218.911 199.68 220.168V220.171ZM51.5714 216.269C50.0255 214.929 48.4919 213.528 47.0138 212.106L48.7229 210.332C50.1702 211.724 51.6699 213.097 53.185 214.409L51.5714 216.272V216.269ZM208.109 212.94L206.418 211.148C207.878 209.771 209.319 208.336 210.704 206.886L212.488 208.586C211.074 210.067 209.599 211.533 208.112 212.937L208.109 212.94ZM43.5309 208.604C42.1175 207.123 40.7225 205.583 39.3891 204.028L41.2583 202.424C42.564 203.945 43.9282 205.451 45.3139 206.901L43.5309 208.601V208.604ZM215.819 204.943L213.966 203.32C215.29 201.811 216.589 200.247 217.83 198.67L219.764 200.194C218.499 201.802 217.168 203.4 215.816 204.943H215.819ZM36.2511 200.219C34.9824 198.608 33.7414 196.946 32.562 195.277L34.5759 193.857C35.7307 195.492 36.9471 197.121 38.1881 198.698L36.2542 200.222L36.2511 200.219ZM222.742 196.25L220.743 194.808C221.917 193.182 223.065 191.501 224.152 189.814L226.222 191.147C225.11 192.871 223.94 194.587 222.739 196.25H222.742ZM29.8028 191.184C28.6942 189.463 27.6164 187.689 26.6002 185.915L28.7373 184.692C29.732 186.429 30.7882 188.166 31.8722 189.851L29.8028 191.184ZM228.815 186.934L226.69 185.69C227.706 183.953 228.688 182.17 229.609 180.39L231.799 181.521C230.859 183.341 229.856 185.161 228.818 186.934H228.815ZM24.2413 181.585C23.3021 179.768 22.3967 177.902 21.5561 176.039L23.801 175.026C24.6263 176.849 25.5101 178.675 26.4308 180.455L24.2413 181.588V181.585ZM233.973 177.077L231.737 176.039C232.584 174.216 233.391 172.347 234.136 170.484L236.424 171.399C235.66 173.302 234.835 175.214 233.973 177.077ZM19.6222 171.509C18.8585 169.609 18.1348 167.66 17.4727 165.723L19.8039 164.929C20.4505 166.826 21.1588 168.732 21.9071 170.592L19.6222 171.509ZM238.167 166.764L235.842 165.948C236.507 164.054 237.132 162.117 237.696 160.196L240.061 160.888C239.485 162.853 238.847 164.827 238.167 166.764ZM15.9761 161.015C15.3972 159.05 14.8644 157.042 14.3933 155.047L16.7891 154.477C17.251 156.426 17.7745 158.391 18.338 160.316L15.9761 161.012V161.015ZM241.348 156.121L238.955 155.53C239.436 153.584 239.873 151.598 240.249 149.627L242.669 150.089C242.284 152.103 241.838 154.129 241.348 156.118V156.121ZM13.3555 150.218C12.9675 148.207 12.6288 146.159 12.3485 144.127L14.7874 143.788C15.0615 145.778 15.3941 147.782 15.7729 149.75L13.3524 150.215L13.3555 150.218ZM243.494 145.22L241.059 144.86C241.351 142.88 241.594 140.863 241.785 138.861L244.237 139.092C244.046 141.134 243.796 143.197 243.494 145.22ZM11.7758 139.225C11.5818 137.189 11.4401 135.117 11.3508 133.069L13.8113 132.964C13.8975 134.972 14.0361 137.001 14.227 138.994L11.7758 139.228V139.225ZM244.597 134.171L242.136 134.042C242.241 132.046 242.293 130.014 242.293 128V127.747L244.757 127.738V128C244.757 130.054 244.705 132.13 244.597 134.168V134.171ZM13.7096 128.129H11.2461V128.006C11.2461 125.995 11.2984 123.963 11.4001 121.961L13.8605 122.087C13.762 124.046 13.7096 126.035 13.7096 128V128.129ZM242.183 122.913C242.093 120.908 241.952 118.879 241.761 116.886L244.212 116.649C244.409 118.685 244.554 120.757 244.643 122.805L242.183 122.913ZM14.2054 117.265L11.7511 117.037C11.942 114.996 12.1884 112.935 12.484 110.909L14.9229 111.266C14.6335 113.249 14.3902 115.266 14.2054 117.265ZM241.194 112.085C240.917 110.099 240.584 108.094 240.202 106.127L242.62 105.659C243.011 107.67 243.35 109.72 243.633 111.747L241.194 112.085ZM15.7267 106.499L13.3062 106.037C13.6881 104.023 14.1315 101.997 14.6212 100.008L17.0139 100.596C16.5335 102.542 16.1024 104.528 15.7267 106.499ZM239.183 101.4C238.718 99.4505 238.195 97.4858 237.625 95.5612L239.987 94.8621C240.569 96.8268 241.102 98.8346 241.579 100.827L239.183 101.397V101.4ZM18.2703 95.9276L15.9053 95.2378C16.4781 93.2701 17.1155 91.2931 17.793 89.3592L20.118 90.1752C19.4559 92.066 18.8338 94.003 18.2703 95.9276ZM236.156 90.9574C235.506 89.0605 234.798 87.1574 234.047 85.2943L236.332 84.3736C237.098 86.2766 237.822 88.2229 238.487 90.1598L236.156 90.9574ZM21.8178 85.6361L19.5298 84.7215C20.2904 82.8154 21.1126 80.9061 21.9749 79.04L24.2105 80.0747C23.3668 81.8977 22.563 83.77 21.8178 85.633V85.6361ZM232.15 80.8599C231.324 79.0369 230.438 77.2139 229.514 75.4339L231.7 74.3007C232.642 76.1176 233.548 77.9837 234.392 79.8437L232.147 80.8599H232.15ZM26.3353 75.7265L24.1459 74.5994C25.0851 72.7764 26.0859 70.9534 27.1206 69.1827L29.2485 70.4268C28.2354 72.1605 27.2561 73.9435 26.3353 75.7296V75.7265ZM227.204 71.1997C226.206 69.4598 225.147 67.7261 224.063 66.0447L226.132 64.7083C227.241 66.4235 228.322 68.1973 229.341 69.9741L227.204 71.1997ZM31.7798 66.2972L29.7073 64.9638C30.8159 63.2394 31.983 61.521 33.184 59.8581L35.1826 61.2962C34.0093 62.9283 32.8638 64.6097 31.7798 66.2972ZM221.353 62.0445C220.195 60.4094 218.979 58.7803 217.735 57.2098L219.669 55.6824C220.937 57.2899 222.182 58.9528 223.364 60.6218L221.353 62.0445ZM38.0896 57.4315L36.1526 55.9103C37.4183 54.2997 38.7455 52.7015 40.0943 51.1587L41.9481 52.7816C40.627 54.2936 39.3275 55.8579 38.0896 57.4346V57.4315ZM214.662 53.4806C213.353 51.9624 211.989 50.4566 210.6 49.0062L212.38 47.3033C213.796 48.7845 215.191 50.3211 216.528 51.8731L214.662 53.4806ZM45.2092 49.2063L43.4262 47.5065C44.8397 46.0222 46.3117 44.5564 47.799 43.1491L49.4927 44.9382C48.0362 46.3148 46.5981 47.7498 45.2123 49.2033L45.2092 49.2063ZM207.188 45.5849C205.74 44.193 204.238 42.8257 202.719 41.5139L204.33 39.6508C205.879 40.9904 207.416 42.3885 208.894 43.8112L207.188 45.588V45.5849ZM53.071 41.6956L51.4543 39.8356C53.0002 38.4899 54.6046 37.1719 56.2152 35.9124L57.7302 37.8555C56.1505 39.0873 54.5831 40.3807 53.068 41.6956H53.071ZM198.996 38.4252C197.423 37.175 195.797 35.9524 194.162 34.7915L195.591 32.7837C197.26 33.9693 198.919 35.2195 200.527 36.4944L198.996 38.4252ZM61.6042 34.9609L60.1722 32.9561C61.8382 31.7644 63.5565 30.6035 65.281 29.501L66.6052 31.5766C64.9146 32.6544 63.2332 33.7938 61.6011 34.9578L61.6042 34.9609ZM190.162 32.0723C188.474 30.9761 186.74 29.9137 185.003 28.9128L186.235 26.7788C188.009 27.8012 189.783 28.8882 191.504 30.006L190.162 32.0723ZM70.7286 29.0699L69.4937 26.9389C71.2644 25.9135 73.0843 24.9188 74.9074 23.9888L76.0283 26.1814C74.2453 27.0929 72.4623 28.066 70.7316 29.0699H70.7286ZM180.757 26.5848C178.974 25.6548 177.145 24.7618 175.319 23.9303L176.341 21.6885C178.207 22.5384 180.076 23.4499 181.896 24.3984L180.757 26.5817V26.5848ZM80.3672 24.075L79.3387 21.8363C81.1987 20.9833 83.1048 20.1672 85.0048 19.4158L85.9133 21.707C84.0533 22.4429 82.1872 23.2405 80.3672 24.0781V24.075ZM170.869 22.018C169.006 21.2635 167.097 20.5491 165.2 19.8962L166 17.5682C167.94 18.2364 169.89 18.9662 171.793 19.7361L170.869 22.0211V22.018ZM90.4431 20.0225L89.6332 17.6944C91.5671 17.0231 93.5472 16.3918 95.515 15.8221L96.1986 18.1902C94.2709 18.7476 92.3339 19.3635 90.4401 20.0225H90.4431ZM160.593 18.4212C158.668 17.8515 156.707 17.3249 154.757 16.8568L155.333 14.461C157.326 14.9383 159.33 15.4772 161.295 16.0593L160.593 18.4212ZM100.873 16.9461L100.291 14.5534C102.281 14.0699 104.31 13.6327 106.327 13.2539L106.783 15.6743C104.812 16.0439 102.826 16.4719 100.876 16.9461H100.873ZM150.033 15.8283C148.066 15.4434 146.061 15.1077 144.075 14.8275L144.42 12.3886C146.449 12.675 148.497 13.0168 150.508 13.4109L150.036 15.8283H150.033ZM111.55 14.8829L111.199 12.444C113.225 12.1514 115.285 11.9113 117.33 11.7265L117.551 14.1808C115.553 14.3625 113.533 14.5996 111.55 14.886V14.8829ZM139.277 14.2578C137.285 14.0638 135.255 13.919 133.25 13.8267L133.361 11.3662C135.409 11.4586 137.482 11.6064 139.517 11.8066L139.277 14.2578ZM122.371 13.8451L122.251 11.3847C124.151 11.2923 126.085 11.2461 128 11.2461H128.422L128.413 13.7096H127.997C126.125 13.7096 124.228 13.7558 122.368 13.8451H122.371Z" fill="#F19E28"/>
<path d="M67.0425 81.9193L117.505 25.9197L147.185 68.4252L162.305 54.0842L190.716 91.0714L161.356 61.8814L147.185 74.5286L117.351 35.3366L67.0425 81.9193Z" fill="#F19E28"/>
<path d="M133.879 146.154C136.379 152.506 142.399 157.763 149.47 158.142C163.161 158.878 171.802 143.856 174.379 132.265C175.648 126.103 176.239 119.495 174.124 113.434C171.728 106.419 166.053 101.603 158.474 101.616C151.752 101.548 144.974 104.701 140.789 109.967C133.531 118.95 129.444 135.225 133.882 146.157L133.879 146.154ZM142.208 121.102C143.628 118.131 145.411 115.479 147.653 113.182C150.36 109.952 154.132 107.316 158.474 107.309C165.969 107.103 169.006 114.327 169.101 120.887C169.086 131.656 164.488 151.161 151.61 152.392C144.724 152.928 139.613 146.739 138.747 140.29C137.925 133.796 139.471 126.99 142.208 121.102Z" fill="#F19E28"/>
<path d="M77.7189 135.114C75.939 132.102 73.149 130.159 70.2943 128.557C65.4627 125.826 59.8704 124.034 55.8025 120.369C52.4459 117.456 52.4274 113.425 56.1043 110.835C59.0328 108.787 62.9961 108.285 66.5467 108.427C75.6926 108.868 77.8482 114.66 72.6778 121.823C71.3475 123.68 73.6725 125.952 75.5048 124.52C78.4025 122.161 80.6998 118.586 80.8229 114.712C80.9246 111.346 78.8152 108.319 76.2561 106.352C72.259 103.377 67.0886 102.73 62.2508 103.001C57.1944 103.325 51.7592 105.089 48.8183 109.628C46.6319 112.923 46.4749 117.521 48.5935 120.89C50.4905 123.944 53.3821 125.626 56.3014 127.162C59.6395 128.878 62.7466 130.233 65.823 132.04C68.3974 133.608 71.018 135.4 72.4038 138.073C73.8141 140.866 73.0936 143.887 70.9102 146.101C66.7745 150.458 59.5687 151.718 53.8501 150.077C50.7861 149.184 47.9191 147.182 47.1185 144.041C46.9645 143.456 46.8875 142.828 46.8629 142.209C46.9553 140.989 47.5773 139.723 47.9253 138.455C48.6644 136.622 46.8506 134.809 45.0245 135.699C42.7026 136.93 40.9257 139.243 40.6578 141.959C40.4546 145.029 41.4985 148.226 43.5001 150.557C45.8036 153.298 49.114 154.856 52.4521 155.592C60.28 157.199 69.235 156.078 75.2522 150.434C79.5327 146.449 80.7706 140.253 77.725 135.107L77.7189 135.114Z" fill="#F19E28"/>
<path d="M209.91 128.561C205.078 125.829 199.486 124.037 195.418 120.372C192.062 117.459 192.043 113.428 195.72 110.838C198.648 108.791 202.612 108.289 206.162 108.43C215.308 108.871 217.464 114.66 212.293 121.826C210.963 123.683 213.288 125.955 215.12 124.523C218.018 122.165 220.315 118.589 220.439 114.715C220.54 111.35 218.431 108.323 215.872 106.355C211.875 103.38 206.704 102.733 201.866 103.004C196.81 103.328 191.375 105.092 188.434 109.631C186.248 112.926 186.091 117.524 188.209 120.893C190.106 123.948 192.998 125.629 195.917 127.166C199.255 128.881 202.362 130.236 205.439 132.043C208.013 133.611 210.634 135.403 212.019 138.076C213.43 140.869 212.709 143.89 210.526 146.104C206.39 150.462 199.184 151.721 193.466 150.08C190.402 149.187 187.535 147.185 186.734 144.044C186.58 143.459 186.503 142.831 186.479 142.212C186.571 140.992 187.193 139.727 187.541 138.458C188.28 136.626 186.466 134.812 184.64 135.702C182.318 136.934 180.541 139.246 180.273 141.962C180.07 145.033 181.114 148.229 183.116 150.56C185.419 153.301 188.73 154.859 192.068 155.595C199.896 157.202 208.851 156.082 214.868 150.437C219.148 146.452 220.386 140.256 217.341 135.111C215.561 132.099 212.771 130.156 209.916 128.554L209.91 128.561Z" fill="#F19E28"/>
<path d="M102.989 158.142C116.68 158.878 125.321 143.856 127.898 132.265C129.167 126.103 129.758 119.495 127.643 113.434C125.247 106.419 119.572 101.603 111.993 101.616C105.271 101.548 98.4928 104.701 94.3078 109.967C87.0496 118.95 82.9632 135.225 87.4006 146.157C89.9011 152.509 95.9214 157.766 102.992 158.145L102.989 158.142ZM95.7244 121.102C97.144 118.131 98.927 115.479 101.169 113.182C103.876 109.952 107.648 107.316 111.99 107.309C119.485 107.103 122.522 114.327 122.617 120.887C122.602 131.656 118.004 151.161 105.126 152.392C98.2403 152.928 93.1284 146.739 92.2631 140.29C91.4408 133.796 92.9867 126.99 95.7244 121.102Z" fill="#F19E28"/>
<path d="M92.4386 108.098C97.5166 108.098 98.1602 100.596 110.974 100.596C120.806 100.596 125.145 106.666 125.958 107.953C128.841 108.098 133.891 104.8 133.891 101.748C133.891 96.8916 118.426 94.853 114.629 94.8315C114.617 94.8315 114.595 94.8315 114.567 94.8315C114.192 94.8315 113.81 94.8376 113.425 94.8499C110.198 94.8345 110.595 94.1263 108.073 93.7783C107.149 93.652 106.666 93.9815 106.666 94.2525C106.666 94.9054 108.061 94.5574 108.667 95.278C98.9239 96.676 88.9003 101.114 88.9003 105.12C88.9003 106.213 90.2214 108.095 92.4355 108.095L92.4386 108.098Z" fill="#F19E28"/>
<path d="M83.8192 163.217C89.8703 163.217 93.6858 159.657 94.2955 159.657C94.7389 159.657 94.973 159.906 94.973 160.233C94.973 160.833 92.9713 162.601 92.9713 164.572C92.9713 167.482 93.8859 169.893 94.3602 170.912C95.1393 170.37 98.9701 167.432 98.9701 164.368C98.9701 163.137 98.4959 162.995 98.4959 162.641C98.4959 161.816 104.31 161.572 108.329 161.572C112.347 161.572 136.755 162.487 138.636 162.487C140.518 162.487 143.773 162.434 143.924 161.926C135.28 160.571 125.158 151.755 121.804 148.756C116.923 156.282 108.667 158.976 103.802 158.976C98.9362 158.976 95.9184 156.941 95.1393 156.941C83.0709 156.941 80.9338 161.72 80.9338 162.499C80.9338 163.066 81.3249 163.211 83.8162 163.211L83.8192 163.217Z" fill="#F19E28"/>
<path d="M50.161 175.654C49.9054 175.43 49.6467 175.208 49.3911 174.992C49.9577 174.9 50.4104 174.663 50.7553 174.284C51.1002 173.902 51.2727 173.456 51.2727 172.941C51.2727 172.159 51.0448 171.574 50.5921 171.183C50.1394 170.792 49.5266 170.598 48.7568 170.598C47.9869 170.598 47.3002 170.853 46.7058 171.368C46.1084 171.882 45.8097 172.615 45.8097 173.566C45.8097 174.518 46.3302 175.436 47.3679 176.32C47.9961 176.855 48.4365 177.342 48.6952 177.785C48.8491 178.062 48.9261 178.364 48.9261 178.688C48.9261 179.011 48.8738 179.276 48.7722 179.482C48.4827 180.058 47.9222 180.347 47.0908 180.347C46.3302 180.347 45.9483 179.901 45.9483 179.005C45.9483 178.614 46.0007 178.256 46.1023 177.933C46.2039 177.61 46.2562 177.283 46.2562 176.954C46.2562 176.729 46.0715 176.615 45.7019 176.615C45.2277 176.615 44.7812 176.92 44.3593 177.527C43.9374 178.133 43.728 178.761 43.728 179.408C43.728 180.397 44.0514 181.151 44.7011 181.678C45.2554 182.14 46.0376 182.371 47.0477 182.371C47.5219 182.371 48.03 182.284 48.5751 182.109C49.1201 181.933 49.6098 181.684 50.047 181.361C50.4843 181.037 50.8385 180.637 51.1125 180.166C51.3835 179.691 51.5221 179.162 51.5221 178.577C51.5221 177.733 51.2973 177.009 50.8446 176.403C50.6383 176.135 50.4135 175.888 50.1641 175.661L50.161 175.654ZM48.147 173.77C47.9037 173.462 47.7221 173.086 47.5989 172.643C47.8452 172.282 48.2456 172.104 48.8029 172.104C49.0493 172.104 49.2864 172.165 49.5112 172.289C49.7175 172.421 49.8192 172.587 49.8192 172.781C49.8192 173.419 49.5266 174.031 48.9384 174.617C48.649 174.361 48.3841 174.078 48.1439 173.767L48.147 173.77Z" fill="#F19E28"/>
<path d="M70.2974 178.617C70.2143 178.617 70.0819 178.718 69.8971 178.925C68.8686 179.993 68.2188 180.529 67.954 180.529C67.7169 180.529 67.5998 180.175 67.5998 179.464C67.5998 179.226 67.6214 178.912 67.6614 178.521C67.8062 177.142 68.0279 175.898 68.3235 174.789C68.4559 174.595 68.5914 174.401 68.7238 174.21C68.8563 174.019 68.9794 173.825 69.0872 173.625C69.195 173.425 69.2843 173.206 69.3582 172.969C69.429 172.732 69.466 172.492 69.466 172.245C69.466 171.999 69.352 171.706 69.1272 171.365C68.8717 170.955 68.5914 170.749 68.2927 170.749C68.108 170.749 67.9232 170.863 67.7384 171.088C67.1841 171.756 66.6945 173.083 66.2726 175.069L65.9185 174.977C65.6906 174.915 65.3827 174.884 64.9916 174.884C64.1262 174.884 63.2948 175.229 62.4911 175.919C61.5395 176.744 60.9852 177.819 60.8128 179.137C60.6711 179.282 60.5233 179.436 60.3632 179.599C60.1384 179.83 59.9105 180.046 59.6857 180.24C59.4578 180.434 59.27 180.532 59.116 180.532C59.0021 180.532 58.9466 180.446 58.9466 180.27C58.9374 179.901 59.0452 179.186 59.27 178.127C59.4948 177.068 59.6087 176.286 59.6087 175.781C59.6087 175.42 59.5748 175.152 59.5071 174.977C59.4393 174.801 59.273 174.715 59.0051 174.715C57.9366 174.715 57.4007 175.06 57.4007 175.75V176.027C57.4007 176.15 57.4007 176.273 57.41 176.396C57.4161 176.52 57.4192 176.646 57.4254 176.775C57.4315 176.905 57.4377 177.009 57.45 177.092C57.3484 177.927 57.1513 178.681 56.8649 179.362C56.4954 180.246 56.0581 180.689 55.5531 180.689C55.0912 180.689 54.8602 180.504 54.8602 180.135C54.8602 179.673 54.9433 179.14 55.1066 178.537C55.2698 177.933 55.4022 177.437 55.5007 177.04C55.5993 176.643 55.6208 176.193 55.5685 175.691C55.5069 175.075 55.239 174.764 54.7647 174.764C54.1673 174.764 53.7116 174.888 53.3913 175.134L52.9448 178.931C52.7693 179.26 52.643 179.538 52.566 179.765C52.489 179.993 52.449 180.24 52.449 180.508C52.449 181.114 52.6676 181.573 53.1049 181.881C53.5422 182.189 54.1673 182.343 54.9803 182.343C55.4422 182.343 55.8549 182.207 56.2152 181.933C56.5755 181.662 56.8588 181.333 57.0651 180.954C57.1051 181.345 57.2067 181.668 57.3669 181.927C57.527 182.186 57.8011 182.312 58.1922 182.312C58.2137 182.321 58.2384 182.327 58.2691 182.327C58.5894 182.327 59.3439 181.979 60.5387 181.277C60.6711 181.154 60.785 181.031 60.8897 180.905C60.9975 181.2 61.1669 181.468 61.4009 181.709C61.8444 182.161 62.4356 182.386 63.1747 182.386C64.388 182.386 65.3057 181.896 65.9216 180.92C66.0971 181.847 66.4666 182.309 67.0332 182.309C67.4336 182.309 67.8462 182.21 68.2681 182.016C68.69 181.822 69.0718 181.573 69.4167 181.268C69.7616 180.963 70.0418 180.631 70.2574 180.264C70.473 179.898 70.5807 179.587 70.5807 179.331C70.5807 178.857 70.4884 178.623 70.3036 178.623L70.2974 178.617ZM65.7768 178.986C65.5828 179.614 65.3057 180.061 64.9515 180.329C64.5974 180.597 64.2433 180.729 63.8953 180.729C63.3102 180.729 63.0146 180.332 63.0146 179.541C63.0146 178.574 63.3225 177.77 63.9415 177.132C64.5574 176.495 65.2779 176.095 66.1002 175.928C65.9062 177.04 65.7953 178.056 65.7768 178.983V178.986Z" fill="#F19E28"/>
<path d="M88.3799 175.716C88.2567 175.716 88.1335 175.762 88.0104 175.855C87.8872 175.947 87.7332 176.033 87.5485 176.116C87.57 175.891 87.5792 175.648 87.5792 175.393C87.5792 174.65 87.4068 174.038 87.0619 173.548C86.717 173.058 86.2243 172.815 85.5807 172.815C84.9371 172.815 84.4259 173.015 84.0441 173.416C83.6622 173.816 83.4744 174.361 83.4744 175.045C83.4744 175.728 83.6745 176.304 84.0748 176.772C84.4752 177.24 85.051 177.52 85.8024 177.613C85.6484 178.013 85.4483 178.38 85.2019 178.709C84.3889 179.79 83.2218 180.329 81.7006 180.329C80.8568 180.329 80.1978 180.043 79.7267 179.464C79.2524 178.888 79.0184 178.084 79.0184 177.056C79.0184 176.489 79.1046 175.913 79.274 175.328C79.4434 174.743 79.6836 174.213 79.9977 173.739C80.3118 173.265 80.6998 172.877 81.1617 172.575C81.6236 172.273 82.141 172.119 82.7137 172.119C83.2865 172.119 83.8223 172.15 84.3274 172.212C84.8324 172.273 85.1773 172.319 85.3621 172.35C85.5468 172.381 85.6946 172.396 85.8086 172.396C86.1165 172.396 86.2705 172.341 86.2705 172.227C86.2705 171.845 85.941 171.485 85.282 171.146C84.623 170.807 83.8131 170.638 82.8523 170.638C81.8915 170.638 81.0231 170.832 80.2533 171.223C79.4803 171.614 78.8275 172.135 78.2855 172.781C77.7435 173.428 77.3278 174.176 77.0352 175.017C76.7427 175.861 76.5949 176.735 76.5949 177.641C76.5949 178.977 76.986 180.073 77.7682 180.926C78.6643 181.893 79.9084 182.377 81.5035 182.377C83.0987 182.377 84.3951 181.939 85.399 181.065C86.4029 180.19 87.0588 179.002 87.3668 177.502C87.7671 177.37 88.0904 177.169 88.3306 176.908C88.5708 176.646 88.694 176.335 88.694 175.975C88.694 175.799 88.5924 175.713 88.3861 175.713L88.3799 175.716ZM86.1904 176.039C85.6977 175.762 85.4514 175.313 85.4514 174.697C85.4514 174.346 85.5591 174.173 85.7747 174.173C86.0826 174.173 86.2366 174.509 86.2366 175.177C86.2366 175.476 86.2212 175.762 86.1904 176.042V176.039Z" fill="#F19E28"/>
<path d="M108.88 177.542C109.172 177.197 109.32 176.781 109.32 176.292C109.32 175.802 109.151 175.427 108.812 175.165C108.473 174.903 107.959 174.774 107.269 174.78C106.579 174.786 105.973 174.992 105.449 175.405C104.895 175.867 104.615 176.47 104.615 177.21C104.615 177.622 104.716 177.979 104.923 178.281C105.129 178.586 105.366 178.869 105.631 179.137C105.899 179.405 106.17 179.679 106.441 179.963C106.712 180.246 106.912 180.582 107.035 180.973C106.213 180.973 105.609 180.763 105.231 180.341C105.064 180.157 104.947 179.959 104.876 179.756C104.682 179.19 104.547 178.848 104.476 178.731C104.405 178.614 104.285 178.552 104.122 178.552C103.845 178.552 103.583 178.752 103.343 179.153C103.235 179.334 103.155 179.522 103.093 179.722C102.382 180.289 101.652 180.572 100.898 180.572C100.516 180.563 100.177 180.48 99.8785 180.326C99.5798 180.172 99.4259 179.91 99.4166 179.541V179.156C99.8293 178.971 100.248 178.805 100.673 178.654C101.101 178.506 101.489 178.337 101.837 178.146C102.185 177.955 102.471 177.718 102.693 177.437C102.915 177.154 103.026 176.791 103.026 176.35C103.026 175.91 102.875 175.547 102.57 175.269C102.265 174.992 101.834 174.854 101.274 174.854C100.713 174.854 100.186 174.98 99.6907 175.233C99.198 175.485 98.7638 175.836 98.3881 176.289C98.0124 176.741 97.7106 177.277 97.4858 177.902C97.3164 178.367 97.2117 178.823 97.1686 179.264C97.0639 179.371 96.9531 179.485 96.8391 179.602C96.6143 179.833 96.3864 180.049 96.1616 180.243C95.9338 180.437 95.7459 180.535 95.592 180.535C95.478 180.535 95.4226 180.449 95.4226 180.274C95.4133 179.904 95.5211 179.19 95.7459 178.13C95.9707 177.071 96.0847 176.289 96.0847 175.784C96.0847 175.423 96.0508 175.156 95.983 174.98C95.9153 174.804 95.749 174.718 95.4811 174.718C94.4125 174.718 93.8767 175.063 93.8767 175.753V176.03C93.8767 176.153 93.8767 176.276 93.8859 176.4C93.8921 176.523 93.8952 176.649 93.9013 176.778C93.9075 176.908 93.9137 177.012 93.926 177.096C93.8244 177.93 93.6273 178.685 93.3409 179.365C92.9713 180.249 92.5341 180.692 92.029 180.692C91.5671 180.692 91.3362 180.508 91.3362 180.138C91.3362 179.676 91.4193 179.143 91.5825 178.54C91.7457 177.936 91.8781 177.44 91.9767 177.043C92.0752 176.646 92.0968 176.196 92.0444 175.694C91.9829 175.079 91.7149 174.768 91.2407 174.768C90.6433 174.768 90.1875 174.891 89.8673 175.137L89.4208 178.934C89.2452 179.264 89.119 179.541 89.042 179.769C88.965 179.996 88.925 180.243 88.925 180.511C88.925 181.117 89.1436 181.576 89.5809 181.884C90.0182 182.192 90.6433 182.346 91.4563 182.346C91.9182 182.346 92.3308 182.211 92.6911 181.936C93.0514 181.665 93.3347 181.336 93.5411 180.957C93.5811 181.348 93.6827 181.672 93.8428 181.93C94.003 182.189 94.277 182.315 94.6681 182.315C94.6897 182.324 94.7143 182.331 94.7451 182.331C95.0654 182.331 95.8198 181.983 97.0147 181.281C97.1378 181.167 97.2425 181.05 97.3442 180.933C97.3565 180.966 97.3688 181.003 97.3842 181.034C97.8276 181.918 98.6591 182.361 99.8847 182.361C101.28 182.361 102.401 182.02 103.257 181.339C103.371 181.505 103.522 181.662 103.709 181.813C104.193 182.198 104.92 182.392 105.893 182.392C106.866 182.392 107.623 182.204 108.168 181.829C108.713 181.453 108.988 180.92 108.988 180.23C108.988 179.882 108.867 179.547 108.624 179.227C108.381 178.906 108.113 178.595 107.814 178.284C108.236 178.14 108.593 177.896 108.886 177.551L108.88 177.542ZM100.633 176.224C100.953 176.224 101.11 176.353 101.11 176.609C101.101 176.899 100.941 177.154 100.633 177.382C100.488 177.484 100.322 177.591 100.131 177.705C99.9401 177.819 99.7369 177.949 99.5213 178.09C99.7276 176.846 100.097 176.224 100.633 176.224ZM107.205 177.644C106.721 177.108 106.481 176.646 106.481 176.255C106.573 176.233 106.693 176.203 106.844 176.163C106.992 176.122 107.149 176.101 107.315 176.101C107.482 176.101 107.605 176.15 107.694 176.249C107.78 176.347 107.827 176.458 107.827 176.581C107.827 176.849 107.62 177.203 107.211 177.647L107.205 177.644Z" fill="#F19E28"/>
<path d="M115.384 178.663C115.239 178.663 115.054 178.811 114.829 179.11C114.601 179.408 114.232 179.719 113.718 180.043C113.203 180.366 112.849 180.529 112.652 180.529C112.415 180.529 112.298 180.12 112.298 179.294C112.298 178.469 112.406 177.431 112.621 176.178L114.164 176.255C114.278 176.264 114.377 176.132 114.466 175.855C114.552 175.577 114.598 175.347 114.598 175.162C114.598 175.091 114.592 175.035 114.574 174.999C114.558 174.962 114.457 174.946 114.266 174.946C114.075 174.946 113.619 174.937 112.901 174.915L113.533 173.804C113.48 173.641 113.434 173.483 113.394 173.342C113.231 172.828 112.942 172.566 112.529 172.553C112.015 172.553 111.51 173.345 111.017 174.931C110.851 174.94 110.697 174.946 110.555 174.946H110.185C110.01 175.153 109.899 175.334 109.853 175.494C109.807 175.654 109.782 175.858 109.782 176.104C109.782 176.206 109.844 176.258 109.967 176.258H110.66C110.413 177.379 110.29 178.269 110.29 178.928C110.29 179.587 110.315 180.098 110.367 180.465C110.419 180.831 110.503 181.148 110.623 181.422C110.743 181.696 110.891 181.912 111.069 182.069C111.248 182.226 111.51 182.309 111.848 182.309C112.187 182.309 112.587 182.211 113.043 182.017C113.502 181.823 113.918 181.573 114.293 181.268C114.669 180.963 114.98 180.631 115.226 180.264C115.473 179.898 115.596 179.541 115.596 179.193C115.596 178.845 115.525 178.669 115.38 178.669L115.384 178.663Z" fill="#F19E28"/>
<path d="M133.404 175.716C133.281 175.716 133.158 175.762 133.035 175.855C132.912 175.947 132.758 176.033 132.573 176.116C132.595 175.891 132.604 175.648 132.604 175.393C132.604 174.65 132.431 174.038 132.086 173.548C131.742 173.058 131.249 172.815 130.605 172.815C129.962 172.815 129.45 173.015 129.069 173.416C128.687 173.816 128.499 174.361 128.499 175.045C128.499 175.728 128.699 176.304 129.099 176.772C129.5 177.24 130.076 177.52 130.827 177.613C130.673 178.013 130.473 178.38 130.226 178.709C129.413 179.79 128.246 180.329 126.725 180.329C125.881 180.329 125.222 180.043 124.751 179.464C124.277 178.888 124.043 178.084 124.043 177.056C124.043 176.489 124.129 175.913 124.299 175.328C124.468 174.743 124.708 174.213 125.022 173.739C125.336 173.265 125.724 172.877 126.186 172.575C126.648 172.273 127.165 172.119 127.738 172.119C128.311 172.119 128.847 172.15 129.352 172.212C129.857 172.273 130.202 172.319 130.387 172.35C130.571 172.381 130.719 172.396 130.833 172.396C131.141 172.396 131.295 172.341 131.295 172.227C131.295 171.845 130.965 171.485 130.306 171.146C129.647 170.807 128.838 170.638 127.877 170.638C126.916 170.638 126.048 170.832 125.278 171.223C124.505 171.614 123.852 172.135 123.31 172.781C122.768 173.428 122.352 174.176 122.06 175.017C121.767 175.861 121.619 176.735 121.619 177.641C121.619 178.977 122.01 180.073 122.793 180.926C123.689 181.893 124.933 182.377 126.528 182.377C128.123 182.377 129.42 181.939 130.424 181.065C131.427 180.19 132.083 179.002 132.391 177.502C132.792 177.37 133.115 177.169 133.355 176.908C133.595 176.646 133.719 176.335 133.719 175.975C133.719 175.799 133.617 175.713 133.411 175.713L133.404 175.716ZM131.212 176.039C130.719 175.762 130.473 175.313 130.473 174.697C130.473 174.346 130.581 174.173 130.796 174.173C131.104 174.173 131.258 174.509 131.258 175.177C131.258 175.476 131.243 175.762 131.212 176.042V176.039Z" fill="#F19E28"/>
<path d="M159.897 169.914C159.721 169.914 159.567 169.988 159.435 170.139C159.302 170.29 159.161 170.521 159.01 170.832C158.859 171.146 158.785 171.54 158.785 172.011C158.785 172.483 158.924 172.926 159.201 173.339C159.675 173.339 160.097 173.188 160.473 172.883C160.848 172.581 161.036 172.159 161.036 171.626C161.036 171.337 160.919 170.98 160.682 170.555C160.445 170.127 160.183 169.914 159.894 169.914H159.897Z" fill="#F19E28"/>
<path d="M168.214 178.663C168.122 178.663 167.987 178.765 167.814 178.965C167.639 179.165 167.414 179.384 167.137 179.621C166.385 180.258 165.609 180.578 164.805 180.578C164.424 180.569 164.085 180.486 163.786 180.332C163.487 180.178 163.333 179.916 163.324 179.547V179.162C163.737 178.977 164.156 178.811 164.581 178.66C165.009 178.512 165.397 178.343 165.745 178.152C166.093 177.961 166.379 177.724 166.601 177.444C166.822 177.16 166.933 176.797 166.933 176.357C166.933 175.916 166.782 175.553 166.478 175.276C166.173 174.999 165.742 174.86 165.181 174.86C164.621 174.86 164.094 174.986 163.598 175.239C163.106 175.491 162.671 175.842 162.296 176.295C161.92 176.748 161.618 177.283 161.393 177.909C161.224 178.374 161.119 178.829 161.076 179.27C160.972 179.377 160.861 179.491 160.747 179.608C160.519 179.839 160.294 180.055 160.066 180.249C159.838 180.443 159.654 180.542 159.503 180.542C159.352 180.542 159.226 180.501 159.118 180.418C159.01 180.335 158.955 180.187 158.955 179.972C158.955 179.756 159.072 179.196 159.309 178.29C159.555 177.253 159.678 176.526 159.678 176.116C159.687 175.818 159.623 175.516 159.478 175.205C159.302 174.805 159.065 174.604 158.77 174.604C158.265 174.604 157.812 175.263 157.412 176.578C157.199 177.29 157.079 178.069 157.042 178.916C156.962 178.999 156.876 179.094 156.78 179.217C156.1 180.092 155.321 180.529 154.434 180.529C154.104 180.529 153.818 180.397 153.569 180.129C153.322 179.861 153.199 179.439 153.199 178.863V178.247C153.683 177.619 154.175 177.04 154.68 176.504C155.185 175.969 155.644 175.457 156.06 174.968C156.476 174.478 156.817 174.007 157.085 173.548C157.353 173.089 157.486 172.637 157.486 172.184C157.486 171.731 157.359 171.383 157.107 171.143C156.854 170.903 156.506 170.78 156.066 170.78C155.068 170.77 154.163 171.217 153.35 172.122C152.98 172.535 152.645 173.028 152.346 173.604C151.761 174.734 151.364 175.969 151.157 177.308C151.074 177.856 151.025 178.377 151.01 178.872C150.988 178.897 150.966 178.916 150.942 178.943C149.913 180.012 149.264 180.548 148.999 180.548C148.783 180.548 148.675 180.12 148.675 179.267C148.675 178.414 148.715 177.748 148.799 177.277C149.076 176.803 149.288 176.397 149.43 176.058C149.43 175.781 149.267 175.485 148.943 175.171C148.62 174.857 148.278 174.7 147.918 174.7C147.733 174.7 147.567 174.848 147.425 175.146C147.126 174.983 146.741 174.9 146.267 174.9C145.793 174.9 145.343 174.968 144.918 175.1C144.49 175.233 144.032 175.513 143.539 175.935C142.621 176.729 142.073 177.758 141.879 179.014C141.842 179.051 141.805 179.088 141.765 179.131C141.436 179.439 141.044 179.599 140.592 179.608C140.222 179.608 139.945 179.337 139.757 178.789C140.17 178.161 140.469 177.656 140.653 177.268C140.838 176.883 140.931 176.504 140.931 176.135C140.931 175.928 140.894 175.744 140.823 175.581C140.638 175.149 140.262 174.934 139.696 174.934C139.129 174.934 138.707 175.149 138.43 175.581C138.202 175.919 138.091 176.461 138.091 177.2C138.091 177.622 138.153 178.069 138.276 178.543C138.017 179.036 137.768 179.461 137.519 179.815C137.269 180.169 137.044 180.348 136.838 180.348C136.601 180.255 136.407 180.003 136.253 179.59C136.213 179.365 136.191 179.097 136.191 178.786C136.191 178.475 136.182 178.158 136.16 177.829C136.407 176.954 136.53 176.172 136.53 175.482C136.53 175.306 136.462 175.146 136.33 174.995C136.197 174.848 136.007 174.771 135.76 174.771C135.101 174.771 134.658 174.937 134.433 175.263C134.165 175.685 134.094 176.384 134.217 177.36C134.381 178.903 134.618 180.129 134.926 181.031C135.234 181.936 135.548 182.389 135.868 182.389C136.681 182.389 137.688 181.607 138.892 180.043C139.323 180.68 139.905 181 140.635 181C141.115 181 141.519 180.883 141.857 180.665C141.95 181.056 142.144 181.407 142.439 181.709C142.883 182.161 143.465 182.386 144.192 182.386C144.918 182.386 145.494 182.244 145.928 181.961C146.36 181.678 146.711 181.314 146.979 180.874C147.163 181.832 147.53 182.309 148.075 182.309C148.475 182.309 148.888 182.211 149.31 182.017C149.732 181.823 150.113 181.573 150.458 181.268C150.751 181.01 150.994 180.729 151.194 180.428C151.222 180.508 151.25 180.585 151.284 180.659C151.819 181.77 152.82 182.318 154.292 182.309C154.714 182.309 155.127 182.211 155.527 182.017C155.927 181.823 156.285 181.573 156.593 181.268C156.793 181.071 156.965 180.862 157.113 180.64C157.301 181.752 157.784 182.309 158.566 182.309C159.389 182.318 160.165 181.983 160.888 181.299C161.021 181.176 161.135 181.053 161.243 180.926C161.255 180.96 161.267 180.997 161.283 181.028C161.726 181.912 162.557 182.355 163.783 182.355C165.326 182.355 166.539 181.94 167.426 181.105C167.786 180.766 168.042 180.418 168.196 180.064C168.35 179.71 168.427 179.387 168.427 179.1C168.427 178.814 168.356 178.669 168.211 178.669L168.214 178.663ZM164.541 176.224C164.861 176.224 165.018 176.353 165.018 176.609C165.009 176.899 164.849 177.154 164.541 177.382C164.396 177.484 164.23 177.591 164.039 177.705C163.848 177.819 163.645 177.949 163.429 178.09C163.635 176.846 164.005 176.224 164.541 176.224ZM154.382 173.385C154.819 172.643 155.216 172.273 155.576 172.273C155.74 172.273 155.823 172.39 155.823 172.621C155.823 172.852 155.761 173.077 155.638 173.292C155.515 173.508 155.345 173.751 155.13 174.016C154.914 174.284 154.659 174.598 154.366 174.958C154.074 175.319 153.75 175.765 153.402 176.301C153.618 175.097 153.944 174.124 154.382 173.385ZM146.858 178.894C146.766 179.223 146.646 179.501 146.504 179.729C146.092 180.388 145.574 180.72 144.946 180.732C144.361 180.732 144.065 180.335 144.065 179.544C144.065 178.577 144.373 177.773 144.992 177.136C145.608 176.498 146.335 176.098 147.166 175.932C146.96 176.754 146.858 177.742 146.858 178.894Z" fill="#F19E28"/>
<path d="M180.187 175.654C179.932 175.43 179.673 175.208 179.417 174.992C179.984 174.9 180.437 174.663 180.782 174.284C181.126 173.902 181.299 173.456 181.299 172.941C181.299 172.159 181.071 171.574 180.618 171.183C180.166 170.792 179.553 170.598 178.783 170.598C178.013 170.598 177.326 170.853 176.732 171.368C176.135 171.882 175.836 172.615 175.836 173.566C175.836 174.518 176.356 175.436 177.394 176.32C178.022 176.855 178.463 177.342 178.721 177.785C178.875 178.062 178.952 178.364 178.952 178.688C178.952 179.011 178.9 179.276 178.798 179.482C178.509 180.058 177.948 180.347 177.117 180.347C176.356 180.347 175.975 179.901 175.975 179.005C175.975 178.614 176.027 178.256 176.129 177.933C176.23 177.61 176.283 177.283 176.283 176.954C176.283 176.729 176.098 176.615 175.728 176.615C175.254 176.615 174.807 176.92 174.386 177.527C173.964 178.133 173.754 178.761 173.754 179.408C173.754 180.397 174.078 181.151 174.727 181.678C175.282 182.14 176.064 182.371 177.074 182.371C177.548 182.371 178.056 182.284 178.601 182.109C179.146 181.933 179.636 181.684 180.073 181.361C180.511 181.037 180.865 180.637 181.139 180.166C181.41 179.691 181.548 179.162 181.548 178.577C181.548 177.733 181.324 177.009 180.871 176.403C180.665 176.135 180.44 175.888 180.19 175.661L180.187 175.654ZM178.173 173.77C177.93 173.462 177.748 173.086 177.625 172.643C177.872 172.282 178.272 172.104 178.829 172.104C179.076 172.104 179.313 172.165 179.537 172.289C179.744 172.421 179.845 172.587 179.845 172.781C179.845 173.419 179.553 174.031 178.965 174.617C178.675 174.361 178.41 174.078 178.17 173.767L178.173 173.77Z" fill="#F19E28"/>
<path d="M216.716 177.542C217.008 177.197 217.156 176.781 217.156 176.292C217.156 175.802 216.987 175.426 216.648 175.165C216.309 174.903 215.795 174.774 215.105 174.78C214.415 174.786 213.809 174.992 213.285 175.405C212.731 175.867 212.451 176.47 212.451 177.209C212.451 177.622 212.552 177.979 212.758 178.281C212.965 178.586 213.202 178.869 213.467 179.137C213.735 179.405 214.006 179.679 214.277 179.962C214.548 180.246 214.748 180.581 214.871 180.972C214.049 180.972 213.445 180.763 213.066 180.341C212.9 180.156 212.783 179.959 212.712 179.756C212.518 179.189 212.383 178.848 212.312 178.731C212.241 178.614 212.121 178.552 211.958 178.552C211.681 178.552 211.419 178.752 211.179 179.153C211.052 179.359 210.963 179.581 210.902 179.812C210.751 179.959 210.597 180.101 210.446 180.233C210.218 180.427 210.03 180.526 209.876 180.526C209.762 180.526 209.707 180.443 209.707 180.28C209.707 180.116 209.741 179.907 209.808 179.654C209.876 179.402 209.984 178.983 210.132 178.398C210.28 177.813 210.357 177.234 210.357 176.661C210.357 176.088 210.178 175.648 209.818 175.334C209.457 175.02 208.921 174.863 208.204 174.863C207.486 174.863 206.889 175.115 206.406 175.62C206.076 174.912 205.728 174.555 205.356 174.555C205.14 174.555 204.94 174.7 204.755 174.986C204.21 175.821 203.859 176.72 203.705 177.687C203.653 177.979 203.616 178.361 203.588 178.823C203.548 178.863 203.505 178.906 203.459 178.959C203.283 179.159 203.058 179.377 202.781 179.614C202.03 180.252 201.254 180.572 200.45 180.572C200.068 180.563 199.729 180.48 199.431 180.326C199.132 180.172 198.978 179.91 198.969 179.541V179.156C199.381 178.971 199.8 178.805 200.225 178.654C200.653 178.506 201.041 178.336 201.389 178.146C201.737 177.955 202.024 177.718 202.245 177.437C202.467 177.154 202.578 176.791 202.578 176.35C202.578 175.91 202.427 175.546 202.122 175.269C201.817 174.992 201.386 174.854 200.826 174.854C200.265 174.854 199.739 174.98 199.243 175.232C198.75 175.485 198.316 175.836 197.94 176.289C197.565 176.741 197.263 177.277 197.038 177.902C196.887 178.318 196.792 178.721 196.739 179.116C196.41 179.42 196.022 179.581 195.572 179.59C195.203 179.59 194.925 179.319 194.738 178.771C195.15 178.142 195.449 177.637 195.634 177.249C195.818 176.865 195.911 176.486 195.911 176.116C195.911 175.91 195.874 175.725 195.803 175.562C195.618 175.131 195.243 174.915 194.676 174.915C194.109 174.915 193.688 175.131 193.41 175.562C193.182 175.901 193.072 176.443 193.072 177.182C193.072 177.604 193.133 178.05 193.256 178.524C192.998 179.017 192.748 179.442 192.499 179.796C192.249 180.15 192.025 180.329 191.818 180.329C191.581 180.236 191.387 179.984 191.233 179.571C191.193 179.347 191.172 179.079 191.172 178.768C191.172 178.457 191.162 178.139 191.141 177.81C191.387 176.935 191.51 176.153 191.51 175.463C191.51 175.288 191.443 175.128 191.31 174.977C191.178 174.829 190.987 174.752 190.74 174.752C190.081 174.752 189.638 174.918 189.413 175.245C189.145 175.667 189.075 176.366 189.198 177.342C189.253 177.862 189.318 178.343 189.389 178.789C189.339 178.835 189.287 178.885 189.228 178.952C189.053 179.153 188.828 179.371 188.551 179.608C187.8 180.246 187.024 180.566 186.22 180.566C185.838 180.557 185.499 180.474 185.201 180.32C184.902 180.166 184.748 179.904 184.739 179.534V179.149C185.151 178.965 185.57 178.798 185.995 178.648C186.423 178.5 186.811 178.33 187.159 178.139C187.507 177.948 187.793 177.711 188.015 177.431C188.237 177.148 188.348 176.784 188.348 176.344C188.348 175.904 188.197 175.54 187.892 175.263C187.587 174.986 187.156 174.847 186.596 174.847C186.035 174.847 185.509 174.974 185.013 175.226C184.52 175.479 184.086 175.83 183.71 176.282C183.334 176.735 183.033 177.271 182.808 177.896C182.58 178.518 182.469 179.119 182.469 179.695C182.469 180.27 182.546 180.714 182.7 181.022C183.143 181.906 183.975 182.349 185.201 182.349C186.743 182.349 187.957 181.933 188.844 181.099C189.204 180.76 189.459 180.412 189.613 180.058C189.62 180.046 189.623 180.036 189.626 180.024C189.712 180.39 189.804 180.726 189.906 181.022C190.214 181.927 190.528 182.38 190.848 182.38C191.661 182.38 192.668 181.598 193.872 180.033C194.303 180.671 194.885 180.991 195.615 180.991C196.08 180.991 196.474 180.883 196.804 180.677C196.838 180.803 196.878 180.923 196.927 181.022C197.371 181.906 198.202 182.349 199.428 182.349C200.97 182.349 202.184 181.933 203.071 181.099C203.252 180.929 203.406 180.757 203.536 180.581C203.536 180.671 203.536 180.757 203.536 180.852C203.536 181.419 203.585 181.835 203.683 182.103C203.782 182.371 203.957 182.503 204.216 182.503C204.318 182.503 204.438 182.478 204.57 182.426C205.445 182.087 205.882 181.742 205.882 181.391C205.882 181.247 205.827 180.991 205.719 180.618C205.611 180.249 205.556 179.889 205.556 179.537V179.43C205.688 178.749 205.95 178.096 206.335 177.462C206.72 176.831 207.126 176.513 207.554 176.513C207.982 176.513 208.195 176.698 208.195 177.068C208.195 177.296 208.17 177.514 208.118 177.733C208.065 177.948 207.985 178.293 207.878 178.768C207.77 179.242 207.714 179.759 207.714 180.326C207.714 181.644 208.127 182.3 208.949 182.3C208.958 182.309 208.98 182.315 209.011 182.315C209.322 182.315 210.03 181.998 211.12 181.367C211.231 181.518 211.37 181.659 211.542 181.798C212.026 182.183 212.752 182.377 213.725 182.377C214.699 182.377 215.456 182.189 216.001 181.813C216.546 181.437 216.82 180.905 216.82 180.215C216.82 179.867 216.7 179.531 216.457 179.211C216.214 178.891 215.946 178.58 215.647 178.269C216.069 178.124 216.426 177.881 216.719 177.536L216.716 177.542ZM200.182 176.224C200.502 176.224 200.659 176.353 200.659 176.609C200.65 176.898 200.49 177.154 200.182 177.382C200.037 177.483 199.871 177.591 199.68 177.705C199.489 177.819 199.286 177.948 199.07 178.09C199.277 176.846 199.646 176.224 200.182 176.224ZM185.958 176.224C186.278 176.224 186.435 176.353 186.435 176.609C186.426 176.898 186.266 177.154 185.958 177.382C185.813 177.483 185.647 177.591 185.456 177.705C185.265 177.819 185.062 177.948 184.846 178.09C185.053 176.846 185.422 176.224 185.958 176.224ZM215.04 177.644C214.557 177.108 214.317 176.646 214.317 176.255C214.409 176.233 214.529 176.202 214.68 176.162C214.828 176.122 214.985 176.101 215.151 176.101C215.317 176.101 215.441 176.15 215.53 176.249C215.616 176.347 215.662 176.458 215.662 176.581C215.662 176.849 215.456 177.203 215.047 177.647L215.04 177.644Z" fill="#F19E28"/>
<path d="M89.7441 215.678C89.236 214.535 88.3091 213.636 86.9665 212.977C85.9903 212.497 84.8478 212.281 83.539 212.327C83.0032 212.349 82.5413 212.42 82.1502 212.537C81.7591 212.654 81.5189 212.805 81.4296 212.986C81.365 213.122 81.445 213.245 81.676 213.356C81.9069 213.47 82.1995 213.547 82.5598 213.593C84.4105 213.824 85.6485 214.086 86.2736 214.384C88.0258 215.247 88.3645 216.786 87.2867 219.004C86.6986 220.202 85.8979 221.082 84.8848 221.643C84.3982 221.904 83.8932 222.062 83.3666 222.12C82.84 222.175 82.335 222.086 81.8515 221.849C81.368 221.612 80.8445 221.264 80.2841 220.811C80.8507 219.9 81.6021 218.871 82.5413 217.726C83.4805 216.58 84.0164 215.866 84.158 215.576C84.275 215.336 84.3397 215.117 84.3459 214.92C84.3551 214.723 84.3212 214.603 84.2442 214.566C83.8316 214.363 83.3112 214.526 82.686 215.05C80.94 216.475 79.5881 217.929 78.6335 219.41C77.9406 218.81 77.5187 218.471 77.3648 218.394C77.2108 218.317 77.1061 218.338 77.0507 218.452C76.946 218.662 76.9768 218.982 77.143 219.407C77.3093 219.832 77.5588 220.288 77.8914 220.774C77.7312 221.172 77.7004 221.498 77.7928 221.754C77.8883 222.009 78.1839 222.259 78.6828 222.502C78.9507 222.634 79.1632 222.625 79.3202 222.477C79.8376 222.945 80.2933 223.278 80.6875 223.469C81.6637 223.949 82.5967 224.192 83.4867 224.202C84.3767 224.211 85.1927 224.048 85.9349 223.718C86.6801 223.389 87.3422 222.921 87.9272 222.314C88.5123 221.707 88.9835 221.036 89.3469 220.3C90.2091 218.569 90.3415 217.03 89.7441 215.678Z" fill="#F39B2D"/>
<path d="M117.388 224.113C117.816 223.851 118.066 223.444 118.137 222.893C118.174 222.597 118.103 222.213 117.915 221.741C117.73 221.27 117.487 221.015 117.191 220.978C117.013 220.953 116.843 221.012 116.686 221.147C116.529 221.283 116.35 221.501 116.156 221.806C115.962 222.111 115.83 222.505 115.768 222.992C115.704 223.478 115.787 223.952 116.018 224.414C116.504 224.479 116.96 224.377 117.388 224.116V224.113Z" fill="#F39B2D"/>
<path d="M121.45 226.425C120.736 226.376 120.092 226.545 119.516 226.93C118.906 227.367 118.571 227.968 118.515 228.735C118.485 229.16 118.562 229.538 118.752 229.868C118.94 230.198 119.165 230.512 119.421 230.81C119.676 231.109 119.935 231.414 120.194 231.728C120.452 232.042 120.634 232.405 120.729 232.821C119.876 232.757 119.27 232.492 118.909 232.027C118.752 231.823 118.645 231.611 118.589 231.392C118.432 230.792 118.318 230.428 118.254 230.299C118.189 230.17 118.072 230.102 117.899 230.087C117.613 230.065 117.327 230.253 117.046 230.65C116.969 230.761 116.902 230.878 116.843 230.995C116.815 231.017 116.794 231.035 116.766 231.057C116.501 231.263 116.24 231.454 115.981 231.623C115.722 231.793 115.516 231.87 115.362 231.848C115.208 231.827 115.082 231.768 114.98 231.669C114.878 231.571 114.845 231.411 114.872 231.186C114.9 230.964 115.097 230.404 115.464 229.502C115.858 228.467 116.083 227.737 116.138 227.312C116.187 227.007 116.16 226.684 116.055 226.348C115.929 225.911 115.713 225.674 115.405 225.634C114.888 225.566 114.333 226.182 113.742 227.484C113.44 228.159 113.216 228.91 113.065 229.736C112.978 229.754 112.849 229.825 112.667 229.948C112.433 230.108 112.178 230.284 111.901 230.475C111.624 230.666 111.349 230.835 111.082 230.989C110.811 231.143 110.598 231.204 110.441 231.171C110.327 231.149 110.287 231.047 110.321 230.869C110.386 230.49 110.638 229.785 111.085 228.75C111.528 227.719 111.802 226.946 111.904 226.431C111.978 226.065 111.996 225.785 111.962 225.594C111.928 225.403 111.777 225.28 111.503 225.224C110.413 225.009 109.8 225.252 109.662 225.954L109.606 226.237C109.582 226.364 109.56 226.49 109.539 226.616C109.52 226.742 109.499 226.872 109.477 227.004C109.456 227.137 109.443 227.244 109.437 227.331C109.163 228.159 108.812 228.889 108.381 229.52C107.827 230.345 107.291 230.709 106.776 230.607C106.305 230.515 106.108 230.278 106.182 229.902C106.275 229.431 106.465 228.904 106.755 228.325C107.044 227.746 107.278 227.266 107.457 226.881C107.636 226.499 107.75 226.043 107.799 225.52C107.86 224.879 107.651 224.51 107.171 224.414C106.564 224.294 106.071 224.328 105.699 224.513L104.532 228.119C104.532 228.119 104.522 228.11 104.513 228.107C104.368 228.063 104.104 228.19 103.712 228.482C103.321 228.775 102.829 229.024 102.237 229.227C101.307 229.557 100.47 229.612 99.7215 229.397L99.5367 229.344C100.331 229.286 101.092 228.953 101.822 228.341C102.551 227.728 103.026 227.035 103.254 226.256C103.355 225.908 103.401 225.575 103.392 225.261C103.355 224.205 102.742 223.503 101.551 223.158C100.719 222.918 99.9494 223.019 99.2411 223.469C99.2473 223.336 99.2288 223.189 99.1888 223.019C99.0625 222.382 98.8439 222.018 98.5297 221.929C98.2156 221.837 97.957 221.917 97.7507 222.169C96.7437 223.404 95.8784 224.639 95.1485 225.871C94.9484 225.966 94.7174 226.062 94.4557 226.154C93.4918 226.499 92.6203 226.524 91.8443 226.228C91.4778 226.077 91.1791 225.874 90.9451 225.615C90.711 225.357 90.6587 225.046 90.785 224.682L90.9266 224.307C91.3947 224.279 91.8628 224.27 92.3308 224.282C92.7989 224.294 93.2393 224.273 93.6488 224.214C94.0584 224.156 94.4218 224.032 94.739 223.838C95.0561 223.644 95.2963 223.333 95.4595 222.902C95.6228 222.474 95.6074 222.068 95.4134 221.686C95.2194 221.304 94.8529 221.012 94.3078 220.805C93.7628 220.599 93.2054 220.528 92.6326 220.593C92.0598 220.657 91.5086 220.839 90.979 221.141C90.4493 221.443 89.9597 221.855 89.5101 222.376C89.0605 222.896 88.7341 223.438 88.5216 223.996C88.3091 224.553 88.2229 225.012 88.2598 225.369C88.3645 226.391 89.0112 227.124 90.1999 227.574C91.6811 228.134 92.996 228.177 94.1508 227.709C93.3963 229.237 92.879 230.468 92.6111 231.392C92.5341 231.66 92.5002 231.885 92.5125 232.073C92.5248 232.261 92.6696 232.566 92.9467 232.991C93.0453 233.154 93.1962 233.262 93.3994 233.323C93.5133 233.357 93.6334 233.342 93.7628 233.28C93.8921 233.218 93.9968 233.138 94.08 233.046C94.1631 232.954 94.5172 232.218 95.1485 230.838C95.7767 229.458 96.3126 228.322 96.7498 227.426C96.9931 226.93 97.2425 226.533 97.4981 226.234C97.7506 225.936 98.0247 225.637 98.3173 225.338C98.6098 225.039 98.9486 224.818 99.3366 224.676C99.7215 224.534 100.051 224.501 100.322 224.581C100.593 224.661 100.784 224.812 100.898 225.039C101.012 225.267 101.033 225.492 100.969 225.717C100.701 226.641 100.267 227.346 99.6661 227.839C99.0656 228.331 98.3635 228.461 97.5536 228.224C97.4088 228.381 97.3011 228.572 97.2364 228.799C97.1163 229.209 97.2271 229.575 97.569 229.896C97.726 230.04 97.9693 230.194 98.3019 230.358C98.6314 230.521 99.2257 230.678 100.085 230.826C101.274 231.017 102.361 230.798 103.343 230.173C103.445 230.105 103.54 230.034 103.629 229.963C103.565 230.499 103.703 230.946 104.048 231.306C104.43 231.709 105.037 231.993 105.862 232.156C106.333 232.248 106.78 232.193 107.201 231.99C107.623 231.786 107.977 231.509 108.264 231.164C108.227 231.571 108.264 231.922 108.375 232.215C108.486 232.51 108.738 232.695 109.138 232.775C109.157 232.79 109.182 232.8 109.215 232.806C109.539 232.87 110.379 232.667 111.737 232.196C112.252 231.873 112.637 231.516 112.895 231.121C112.831 232.606 113.253 233.409 114.164 233.529C115.011 233.65 115.852 233.409 116.689 232.803C116.705 232.79 116.717 232.781 116.732 232.769C116.84 232.984 117 233.194 117.219 233.397C117.69 233.834 118.426 234.09 119.433 234.164C120.44 234.238 121.238 234.102 121.832 233.757C122.426 233.412 122.75 232.883 122.802 232.168C122.83 231.808 122.731 231.451 122.503 231.103C122.275 230.755 122.023 230.41 121.736 230.065C122.183 229.948 122.574 229.723 122.904 229.391C123.233 229.058 123.418 228.636 123.455 228.131C123.492 227.626 123.347 227.223 123.014 226.927C122.682 226.628 122.161 226.456 121.447 226.41L121.45 226.425ZM93.19 221.92C93.4979 222.037 93.6088 222.222 93.5133 222.471C93.3963 222.748 93.15 222.939 92.765 223.044C92.5864 223.09 92.3863 223.133 92.1584 223.173C91.9305 223.213 91.6872 223.263 91.4255 223.324C92.0814 222.191 92.6696 221.723 93.1869 221.92H93.19ZM121.164 229.385C120.705 228.793 120.489 228.294 120.52 227.891C120.619 227.879 120.745 227.854 120.902 227.823C121.059 227.792 121.222 227.783 121.395 227.796C121.564 227.808 121.69 227.869 121.773 227.977C121.857 228.085 121.893 228.202 121.884 228.331C121.863 228.608 121.622 228.96 121.164 229.385Z" fill="#F39B2D"/>
<path d="M140.533 230.616C140.379 230.628 140.188 230.804 139.964 231.149C139.736 231.494 139.456 231.765 139.117 231.965C138.778 232.165 138.365 232.285 137.876 232.322C137.386 232.359 136.786 232.227 136.08 231.925C136.924 230.899 137.632 229.726 138.205 228.405C138.778 227.084 139.021 225.843 138.935 224.682C138.867 223.746 138.498 223.056 137.826 222.613C137.158 222.169 136.265 221.988 135.154 222.061C134.039 222.138 133.158 222.533 132.502 223.244C132.225 223.543 132.019 223.863 131.883 224.205C131.748 224.547 131.689 224.83 131.705 225.052C131.72 225.276 131.797 225.381 131.936 225.372C132.234 225.35 132.551 225.07 132.884 224.531C133.127 224.214 133.463 223.974 133.891 223.814C134.14 223.721 134.47 223.66 134.879 223.629C135.289 223.598 135.643 223.706 135.939 223.952C136.234 224.199 136.401 224.565 136.438 225.055C136.549 226.567 135.939 228.507 134.602 230.875L134.313 231.297C133.789 231.164 133.18 231.124 132.481 231.173C131.785 231.226 131.246 231.401 130.867 231.703C130.488 232.005 130.319 232.427 130.359 232.969C130.399 233.511 130.587 233.936 130.919 234.244C131.252 234.552 131.748 234.681 132.41 234.632C133.454 234.555 134.273 234.142 134.87 233.391C135.258 233.575 135.662 233.739 136.077 233.88C136.493 234.022 136.927 234.074 137.374 234.04C138.405 233.954 139.249 233.631 139.902 233.067C140.555 232.504 140.857 231.863 140.804 231.14C140.777 230.779 140.687 230.601 140.533 230.613V230.616ZM132.508 233.375C132.379 233.385 132.253 233.36 132.126 233.298C131.997 233.237 131.929 233.129 131.917 232.969C131.905 232.809 131.954 232.685 132.065 232.596C132.176 232.507 132.305 232.458 132.456 232.448C132.712 232.43 133.026 232.498 133.401 232.652C133.038 233.117 132.742 233.36 132.508 233.375Z" fill="#F39B2D"/>
<path d="M150.15 222.724C149.584 222.376 149.008 222.255 148.42 222.366C148.189 222.409 148.084 222.489 148.106 222.603C148.143 222.804 148.257 222.948 148.451 223.044C148.641 223.139 148.851 223.262 149.076 223.416C149.692 223.801 150.073 224.417 150.224 225.27C150.489 226.622 150.311 227.823 149.682 228.876C149.402 229.341 149.063 229.723 148.666 230.013C148.269 230.305 147.862 230.49 147.444 230.57C146.741 230.702 146.107 230.533 145.537 230.059C144.971 229.585 144.577 228.802 144.361 227.715C144.109 226.437 144.164 225.258 144.524 224.18C144.706 223.647 144.965 223.189 145.3 222.804C145.636 222.419 146.03 222.185 146.486 222.098C146.942 222.012 147.36 221.966 147.739 221.96C148.118 221.954 148.392 221.951 148.561 221.951C148.731 221.951 148.946 221.926 149.208 221.877C149.47 221.827 149.59 221.744 149.568 221.63C149.504 221.23 149.183 220.907 148.611 220.663C148.038 220.42 147.271 220.38 146.317 220.549C145.771 220.651 145.257 220.857 144.771 221.168C143.391 222.037 142.495 223.435 142.076 225.36C141.817 226.517 141.793 227.657 142.005 228.778C142.298 230.32 142.957 231.451 143.982 232.168C144.906 232.809 145.978 233.015 147.194 232.784C148.811 232.479 150.049 231.651 150.914 230.296C151.776 228.944 152.01 227.216 151.616 225.119C151.404 223.998 150.917 223.198 150.153 222.724H150.15Z" fill="#F39B2D"/>
<path d="M161.055 219.496C160.451 219.216 159.866 219.164 159.296 219.346C159.072 219.416 158.979 219.509 159.013 219.62C159.075 219.814 159.204 219.946 159.407 220.017C159.607 220.088 159.829 220.186 160.072 220.312C160.728 220.62 161.181 221.19 161.43 222.018C161.852 223.33 161.815 224.544 161.316 225.661C161.092 226.157 160.799 226.573 160.442 226.909C160.085 227.244 159.7 227.478 159.293 227.605C158.61 227.82 157.96 227.725 157.341 227.321C156.722 226.918 156.242 226.188 155.897 225.132C155.496 223.894 155.41 222.717 155.644 221.603C155.761 221.052 155.964 220.565 156.251 220.143C156.537 219.721 156.904 219.444 157.347 219.302C157.79 219.161 158.2 219.068 158.576 219.016C158.951 218.964 159.222 218.93 159.392 218.911C159.558 218.893 159.771 218.844 160.026 218.764C160.282 218.683 160.39 218.588 160.356 218.474C160.245 218.083 159.891 217.8 159.29 217.624C158.693 217.449 157.929 217.501 156.999 217.781C156.469 217.947 155.983 218.212 155.536 218.576C154.271 219.601 153.541 221.095 153.353 223.056C153.23 224.236 153.341 225.372 153.686 226.459C154.157 227.956 154.942 229 156.048 229.594C157.042 230.12 158.129 230.197 159.309 229.828C160.876 229.335 162.009 228.365 162.708 226.921C163.407 225.477 163.435 223.737 162.795 221.698C162.453 220.608 161.874 219.872 161.061 219.49L161.055 219.496Z" fill="#F39B2D"/>
<path d="M171.759 218.499C171.728 218.326 171.706 218.154 171.691 217.984C171.676 217.818 171.648 217.689 171.611 217.6C171.543 217.442 171.346 217.424 171.026 217.541C170.586 217.732 170.151 217.923 169.72 218.111L169.308 214.483C169.385 214.366 169.418 214.191 169.406 213.95C169.394 213.71 169.348 213.498 169.268 213.313C169.132 212.999 168.944 212.894 168.71 212.996L165.726 214.246C164.568 214.742 163.672 215.358 163.041 216.1C162.767 216.429 162.573 216.737 162.465 217.024C162.357 217.31 162.342 217.541 162.419 217.717C162.462 217.815 162.548 217.837 162.675 217.781C162.958 217.658 163.568 217.316 164.498 216.756C165.431 216.198 166.142 215.81 166.632 215.598C166.955 215.456 167.269 215.336 167.574 215.238C167.574 216.891 167.592 218.172 167.626 219.078C166.752 219.61 166.056 220.171 165.538 220.759C165.021 221.347 164.836 221.825 164.984 222.191C165.027 222.29 165.11 222.311 165.24 222.256C165.523 222.132 165.886 221.935 166.327 221.667C166.767 221.4 167.229 221.132 167.706 220.864C167.836 222.813 168.03 224.085 168.294 224.688C168.556 225.289 168.855 225.661 169.184 225.803C169.514 225.945 169.988 225.88 170.604 225.612C170.995 225.443 171.131 225.218 171.011 224.944C170.595 223.995 170.235 222.277 169.93 219.789C170.684 219.518 171.195 219.324 171.457 219.21C171.722 219.096 171.82 218.859 171.759 218.502V218.499Z" fill="#F39B2D"/>
</g>
<defs>
<clipPath id="clip0_623_20379">
<rect width="256" height="256" fill="white"/>
</clipPath>
</defs>
</svg>
