<svg width="256" height="256" viewBox="0 0 256 256" fill="none" xmlns="http://www.w3.org/2000/svg">
<path d="M256 29.6667H0V226.333H256V29.6667Z" fill="white"/>
<path d="M118.067 144.703C134.61 145.477 142.243 143.69 147.753 142.93C159.323 141.337 165.227 138.92 167.373 134.37C167.603 133.883 169.087 130.737 167.73 128.483C166.193 125.933 161.887 125.973 160.06 125.987C156.717 126.01 149.523 126.17 141.347 126.267L116.003 144.6C116.677 144.637 117.363 144.673 118.067 144.707V144.703Z" fill="#205EA6"/>
<path d="M206.92 78.8267L227.897 87.3267C228.183 87.4434 228.403 87.6867 228.493 87.9834L232.45 103.453L231.197 103.507C231.173 103.507 231.157 103.493 231.15 103.473L228.94 95.1534C228.85 94.7634 228.54 94.4634 228.15 94.3834L224.867 93.7067C224.367 93.6034 223.92 94.03 224 94.5334C224.347 96.78 224.677 99.5334 224.853 102.68C225.27 110.047 224.633 115.653 224.417 117.41C223.94 121.23 223.06 125.997 221.37 131.337C221.22 131.807 221.577 132.283 222.07 132.283H223.9C224.423 132.283 224.777 132.817 224.57 133.297L220.17 143.653C220.09 143.843 219.933 143.99 219.74 144.057L204.8 149.3C204.233 149.5 203.68 148.963 203.863 148.39L208.103 135.057C208.183 134.807 208.39 134.62 208.647 134.563L216.093 132.963C216.37 132.903 216.587 132.693 216.65 132.417C216.917 131.267 217.253 129.693 217.567 127.823C219.2 118.03 218.5 110.127 217.86 103.407C217.567 100.33 217.073 96.26 216.197 91.4767C216.143 91.1934 215.93 90.9667 215.65 90.8967L202.137 87.5834C201.677 87.47 201.233 87.82 201.233 88.2934V102.07C201.233 102.48 200.893 102.81 200.483 102.8L191.85 102.55C191.467 102.54 191.16 102.233 191.143 101.853L190.66 90.5934L178.683 99.2567L178.64 100.387C178.627 100.733 178.337 101.007 177.99 101L176.32 100.967L162.97 110.623C163.94 110.787 164.933 110.97 165.95 111.18C175.85 113.21 178.93 115.653 180.753 117.78C184.987 122.717 184.937 128.88 184.857 130.623C184.47 138.783 178.873 144.273 175.227 147.747C164.443 158.013 151.493 160.993 144.013 162.017C124.573 164.677 108.773 161.923 96.3268 158.837L3.01343 226.333H256V43.3234L206.92 78.8267Z" fill="#205EA6"/>
<path d="M72.1267 78.7334C70.3467 74.96 66.8933 73.3167 66.38 73.08C65.4 72.63 62.68 71.5534 55.54 73.08C53.4033 73.5367 48.38 74.7567 40.7133 78.7334C37.6667 80.3134 33.5233 82.68 28.8733 86.0634C28.8 86.1167 28.7367 86.19 28.6933 86.27L23.83 95.1667C23.65 95.4934 23.8 95.9034 24.1467 96.04L25.1567 96.4367C25.4233 96.54 25.5833 96.8134 25.5433 97.0967C25.2467 99.2267 24.0767 107.833 23.9633 110.903C23.7233 117.427 24.1433 123.303 24.4533 126.533C24.6133 128.183 24.99 129.8 25.5733 131.35C26.8433 134.723 28.6333 139.44 29.32 141.067C29.3767 141.203 29.4833 141.313 29.6133 141.377L37.8933 145.477C38.3733 145.713 38.9067 145.273 38.7633 144.757L36.0667 135.087C36.0133 134.9 35.8767 134.747 35.6967 134.677L29.97 132.437C29.74 132.347 29.5833 132.127 29.5767 131.88L29.3367 124.08C29.3233 123.687 29.6767 123.38 30.0667 123.453C31.33 123.69 32.9667 123.913 34.8733 123.95C41.4267 124.083 46.2767 121.963 48.31 121.077C63.0333 114.647 69.1967 97.52 71.29 91.7034C73.3367 86.02 73.7467 82.1734 72.1233 78.73L72.1267 78.7334ZM46.84 110.737C42.98 114.187 38.51 114.847 36.5333 115.11C33.48 115.52 30.89 115.187 29.1233 114.803C28.83 114.74 28.63 114.477 28.6367 114.18L28.8467 107.147C28.9367 104.113 29.35 101.097 30.0833 98.1534L31.3133 93.2C31.37 92.9734 31.5467 92.7967 31.7767 92.7467C33.8133 92.2834 43.6933 90.14 47.61 91.2967C50.0667 92.0234 52.1733 93.76 52.1733 96.3534C52.1733 101.45 50.28 107.66 46.84 110.733V110.737Z" fill="black"/>
<path d="M206.92 78.8367L190.903 72.3434C190.41 72.1434 189.877 72.52 189.9 73.05L190.653 90.6034L206.92 78.8367Z" fill="black"/>
<path d="M75.09 135.047C74.6867 134.85 74.2133 135.127 74.18 135.573L73.0367 150.657C73.0167 150.93 73.17 151.187 73.4233 151.29C78.4633 153.397 85.75 156.127 94.7633 158.427C95.27 158.557 95.7867 158.687 96.3067 158.813L115.987 144.577C96.6133 143.493 88.92 140.467 83.7033 138.63C80.1333 137.37 77.2 136.063 75.09 135.047Z" fill="black"/>
<path d="M179.483 69.3C179.4 69.25 179.303 69.2133 179.197 69.2067L168.793 68.51C168.437 68.4867 168.133 68.7567 168.113 69.1133L167.92 72.9667C167.913 73.12 167.747 73.2133 167.61 73.1433L163.61 71.0333C156.997 67.4933 146.73 63.2 133.647 62.1167C126.98 61.5633 114.967 60.71 101.54 66.5767C96.39 68.8267 86.1533 73.46 79.2433 84.4133C76.4333 88.8667 70.9066 97.6233 73.8933 106.53C76.1966 113.407 82.4366 116.97 87.27 119.73C93.9333 123.537 99.84 124.457 106.533 125.437C113.043 126.39 128.41 126.4 141.327 126.25L162.947 110.61C154.9 109.25 148.577 109.33 145.773 109.383C128.51 109.703 110.693 110.077 96.7233 105.637C93.04 104.467 88.4733 102.593 87.9833 99.3933C87.6933 97.5 88.92 95.7533 90.1233 94.4C97.1433 86.5 110.353 84.16 112.063 83.8767C116.737 83.0967 129.07 81.4733 145.953 85.28C154.737 87.26 161.2 89.7833 165.9 91.9333C166.22 92.08 166.42 92.4 166.417 92.7533L166.317 100.11C166.317 100.35 166.443 100.557 166.64 100.67C166.74 100.74 166.863 100.783 166.993 100.787L178.02 101.017C178.367 101.023 178.657 100.75 178.67 100.403L179.843 69.9C179.853 69.64 179.703 69.4067 179.483 69.3Z" fill="black"/>
<path d="M59.7801 67.47L61.0634 64.6233L61.2934 64.6C61.4134 64.5767 61.6868 64.4833 62.1134 64.32C63.1468 63.93 63.7734 63.2733 63.9934 62.35C64.2134 61.4267 64.1334 59.8133 63.7501 57.51L61.7334 45.4767L58.2034 46.8133C54.6201 48.17 53.3634 50.26 54.4334 53.09C54.5601 53.4233 54.7601 53.8233 55.0301 54.2833L52.6401 56.7367C51.9968 53.8533 52.3634 51.2367 53.7401 48.8867C55.1168 46.5367 57.3068 44.7933 60.3134 43.6567L66.2334 41.4167C68.9034 40.4067 70.6068 39.56 71.3368 38.88C72.0668 38.2 72.3568 37.19 72.2034 35.8567L73.9768 34.2133C73.9768 36.19 73.2534 38.0667 71.7968 39.84C70.3401 41.6133 68.4301 42.95 66.0668 43.8433L64.6701 44.37L66.4101 54.8333C66.7268 56.7133 66.7401 58.2867 66.4468 59.55C66.1534 60.8167 65.4601 62.18 64.3668 63.6467L69.7968 61.72L68.6368 64.52L59.7801 67.47Z" fill="black"/>
<path d="M74.7769 59.6567L76.3935 57.2967C77.5835 58.5567 78.9335 59.0467 80.4402 58.77C81.8802 58.5067 83.1235 57.66 84.1702 56.23C85.2202 54.8 86.3435 52.3967 87.5469 49.02L91.8735 36.9267C90.7835 36.9933 89.8569 37.0967 89.0935 37.2367C87.0469 37.61 85.5635 38.41 84.6402 39.64C83.7169 40.8667 83.4269 42.43 83.7769 44.33L81.1602 46.2833C81.0102 44.4067 81.2435 42.79 81.8669 41.43C82.5502 39.9167 83.4735 38.7633 84.6302 37.9633C85.7902 37.1633 87.5502 36.4633 89.9202 35.8567C90.3935 35.74 91.1102 35.5533 92.0635 35.2967L94.9602 34.2067L96.0469 39.0633L98.7535 49.06C99.3802 51.3833 99.9402 52.89 100.437 53.5733C100.93 54.2567 101.644 54.5133 102.574 54.3433C102.74 54.3133 103.307 54.18 104.274 53.94L104.26 54.9433L97.7269 57.29L95.8002 50.1633L87.8002 51.6267C86.7435 54.59 85.6235 56.7367 84.4402 58.06C83.2569 59.3833 81.7102 60.22 79.8002 60.57C77.9902 60.9 76.3169 60.5967 74.7769 59.6533V59.6567ZM88.2302 50.43L95.4969 49.1L92.5402 38.2367L88.2302 50.43Z" fill="black"/>
<path d="M106.757 55.3933L108.84 53.0667L109.033 53.0567C109.083 53.0567 109.187 53.0633 109.35 53.0833C109.52 53.1033 109.71 53.11 109.92 53.0967C110.933 53.04 111.7 52.6267 112.22 51.8567C112.74 51.0867 113.13 49.7967 113.39 47.99L115.387 33.9667C113.34 34.08 111.717 34.72 110.513 35.8867C109.313 37.0567 108.76 38.5233 108.857 40.2967L108.873 40.6267L106.06 42.1867C106.16 39.1067 107.227 36.8033 109.26 35.27C111.293 33.7367 114.457 32.8533 118.747 32.6167C122.093 32.4333 124.457 32.6267 125.833 33.1933C127.21 33.76 127.94 34.8467 128.03 36.4467C128.177 39.0933 126.367 41.4533 122.603 43.5367L126.507 49.34C127.897 51.4033 128.897 52.42 129.513 52.3867C130.19 52.35 131.353 51.4033 133.007 49.55L132.8 50.98C130.747 53.3333 129.203 54.54 128.17 54.5967C126.83 54.67 125.267 53.2567 123.483 50.3533L119.793 44.3533L116.977 44.5067L116.783 45.8633C116.36 48.8467 114.837 51.27 112.22 53.1367L118.053 52.9367L116.117 55.2533L106.753 55.3933H106.757ZM117.11 43.5867L121.06 43.37C123.7 41.89 124.943 39.77 124.793 37.0133C124.653 34.4767 122.767 33.3067 119.13 33.5067L118.55 33.54L117.113 43.5867H117.11Z" fill="black"/>
<path d="M134.543 54.9367L136.973 52.9733L137.19 53.0567C137.307 53.09 137.593 53.13 138.047 53.1767C139.143 53.2933 140 52.99 140.613 52.2633C141.227 51.5367 141.88 50.0633 142.58 47.8367L146.207 36.1867L142.453 35.7867C138.643 35.38 136.58 36.68 136.26 39.69C136.223 40.0467 136.22 40.49 136.253 41.0233L133.013 42.1333C133.74 39.27 135.247 37.1 137.533 35.62C139.823 34.1433 142.563 33.5733 145.76 33.9167L152.053 34.5867C154.893 34.89 156.793 34.9033 157.753 34.6233C158.713 34.3467 159.427 33.5767 159.89 32.3133L162.213 31.6467C161.323 33.4133 159.83 34.76 157.73 35.6867C155.63 36.6133 153.323 36.9433 150.81 36.6767L149.327 36.52L146.16 46.6433C145.597 48.4633 144.897 49.8733 144.067 50.87C143.233 51.8667 142 52.7733 140.363 53.59L146.08 54.32L143.783 56.2967L134.547 54.9367H134.543Z" fill="#205EA6"/>
<path d="M151.34 55.8867L153.84 54.4967C154.347 56.1534 155.333 57.1967 156.807 57.62C158.213 58.0267 159.703 57.82 161.28 57.0067C162.857 56.1934 164.933 54.5434 167.517 52.0567L176.78 43.16C175.773 42.7334 174.897 42.4134 174.153 42.2C172.157 41.6234 170.47 41.68 169.097 42.3667C167.723 43.0534 166.77 44.3267 166.233 46.18L163.02 46.76C163.72 45.0134 164.653 43.67 165.813 42.73C167.1 41.68 168.44 41.0567 169.833 40.8567C171.227 40.6567 173.117 40.8134 175.507 41.3267C175.983 41.4334 176.707 41.5834 177.673 41.78L180.75 42.0934L179.557 46.9267L177.527 57.0834C177.053 59.4434 176.883 61.04 177.023 61.8734C177.16 62.7067 177.683 63.2534 178.593 63.5167C178.757 63.5634 179.323 63.6967 180.297 63.9134L179.837 64.8067L172.94 63.9967L174.393 56.7567L166.577 54.5C164.31 56.6834 162.353 58.1034 160.703 58.7634C159.053 59.42 157.297 59.48 155.433 58.9434C153.663 58.4334 152.303 57.4134 151.347 55.8834L151.34 55.8867ZM167.497 53.62L174.593 55.6667L176.787 44.6234L167.497 53.62Z" fill="#205EA6"/>
<path d="M179.32 65.5133L182.097 64.4767C183.123 66.5967 184.527 68.0733 186.3 68.9033C187.533 69.4833 188.707 69.6067 189.817 69.2767C190.927 68.9467 191.74 68.23 192.257 67.1333C192.763 66.0533 192.583 64.5133 191.72 62.5133L190.607 59.93C189.777 58.0233 189.31 56.74 189.207 56.0767C189.107 55.4133 189.253 54.66 189.65 53.8133C190.44 52.13 191.833 51.01 193.83 50.4567C195.827 49.9033 197.81 50.09 199.783 51.0167C201.037 51.6033 202.327 52.6667 203.663 54.2033L201.397 57.2767L200.547 56.8767C200.697 56.6067 200.797 56.4167 200.847 56.3067C201.247 55.45 201.23 54.6 200.79 53.7567C200.35 52.9133 199.567 52.2267 198.443 51.7C197.28 51.1533 196.143 51.04 195.027 51.3567C193.91 51.6733 193.113 52.3433 192.637 53.36C192.317 54.0433 192.223 54.7633 192.357 55.52C192.49 56.2767 192.94 57.49 193.703 59.17L194.65 61.2967C195.71 63.65 195.93 65.49 195.31 66.8133C194.493 68.5533 192.963 69.6533 190.713 70.1133C188.463 70.5733 186.187 70.2633 183.88 69.1833C182.113 68.3567 180.593 67.13 179.32 65.5133Z" fill="#205EA6"/>
<path d="M248.79 164.52C248.433 163.957 247.777 163.647 247.117 163.727C245.983 163.863 245.123 164.363 244.377 164.907C245.223 162.897 245.967 160.793 245.86 158.37C245.86 158.34 245.647 155.46 243.82 155.193C242.67 155.027 241.287 155.453 240.45 156.23C239.15 157.44 237.853 158.84 236.493 160.507C235.803 161.353 235.16 162.233 234.537 163.087C233.783 164.12 233.073 165.093 232.287 166.01C230.4 168.213 228.783 169.887 227.213 171.263C226.98 171.313 226.507 171.267 226.3 171.18C226.177 171.017 226.033 170.61 226.033 170.417C226.35 169.467 227.003 168.537 227.693 167.557L227.917 167.237C228.15 166.903 228.463 166.577 228.797 166.23C229.19 165.817 229.6 165.393 229.963 164.873C230.453 164.177 230.977 163.117 230.7 162.017C230.527 161.323 230.053 160.757 229.373 160.417C228.18 159.82 226.343 160.37 225.44 161.24C224.503 162.143 223.637 163.107 222.8 164.043C221.993 164.943 221.23 165.793 220.407 166.597C219.233 167.737 218.8 167.867 216.853 166.67C215.307 165.72 213.44 165.353 211.94 165.06C211.52 164.977 211.133 164.947 210.78 164.967C211.873 163.537 213.147 161.69 213.93 159.637C215.17 156.38 216.06 152.977 216.92 149.687L216.93 149.647C217.25 148.42 216.557 146.747 215.007 146.213C213.38 145.653 211.84 146.397 211.16 147.42C209.19 150.39 206.893 153.933 204.793 157.69C203.847 159.387 203.147 161.193 202.47 162.943C202.273 163.45 202.077 163.957 201.877 164.46C201.627 165.087 201.427 165.717 201.237 166.323C201.013 167.033 200.8 167.707 200.523 168.323C200.113 169.233 199.66 170.117 199.183 171.05C198.6 172.19 197.993 173.367 197.483 174.59C196.537 176.85 195.65 179.33 194.85 181.96C194.777 182.197 194.71 182.377 194.647 182.513C194.647 182.493 194.647 182.473 194.647 182.457C194.66 182.27 194.67 182.08 194.673 181.9C194.677 181.64 194.693 181.37 194.707 181.097C194.773 179.817 194.847 178.363 194.153 177.147C193.553 176.09 193.613 175.283 193.97 173.87C194.42 172.09 194.127 170.833 193.093 170.127L192.93 170.03C191.793 169.45 190.077 168.903 188.317 170.873C187.933 171.303 187.603 171.753 187.287 172.19C186.443 173.347 185.873 174.07 184.85 174.327C179.543 175.667 174.52 179.497 172.547 181.863C170.277 183.8 168.967 186.92 168.073 189.437L168.04 189.53C167.84 190.1 167.63 190.687 167.5 190.907C167.23 190.96 166.547 190.957 165.933 190.953C165.893 190.953 165.857 190.953 165.817 190.953C165.71 190.903 165.603 190.853 165.497 190.807C165.413 190.77 165.31 190.723 165.213 190.677C165.26 190.52 165.34 190.333 165.44 190.203C165.967 189.493 166.543 188.817 167.157 188.103C167.91 187.223 168.69 186.313 169.377 185.317C171.143 182.75 170.08 181.13 168.877 180.22C168.253 179.75 167.453 179.553 166.68 179.683C165.913 179.813 165.227 180.257 164.793 180.903L163.943 182.173C162.64 184.12 161.293 186.13 159.943 188.1L159.777 188.343C159.117 189.31 158.49 190.223 157.747 190.957C156.777 191.917 155.727 192.783 154.61 193.7C154.287 193.967 153.96 194.237 153.637 194.507C153.427 194.683 153.217 194.87 153.007 195.057C152.483 195.523 151.993 195.963 151.51 196.18C151.25 196.297 150.873 196.403 150.567 196.243C150.307 196.107 150.107 195.783 150.023 195.353C149.787 194.153 150.253 193.283 152.017 191.633C154.123 189.77 154.82 189.08 155.413 187.063C155.707 186.067 155.413 184.663 154.077 183.93C151.797 182.68 149.64 184.663 148.933 185.313C147.603 186.537 145.677 189.72 144.143 192.357C144.027 192.557 143.94 192.707 143.89 192.79C143.87 192.823 143.853 192.857 143.833 192.887C143.823 192.143 143.683 191.343 143.103 190.703C142.517 190.057 141.62 189.79 140.763 190.007C139.863 190.233 139.167 190.937 138.943 191.837C138.853 192.207 138.803 192.603 138.8 192.99C138.547 196 138.01 198.45 136.25 200.597C134.54 202.68 132.957 203.747 131.107 204.053C129.163 204.377 127.067 204.287 125.083 204.167C122.31 204 119.707 202.977 117.34 201.13C115.917 200.017 114.49 198.707 112.713 196.877C112.15 196.297 112.047 195.87 112.073 195.727C112.093 195.61 112.28 195.507 112.36 195.467C113.327 194.987 114.273 194.46 115.187 193.953C116.787 193.063 118.297 192.223 119.893 191.617C122.733 190.537 127.337 187.073 127.57 186.83C127.867 186.52 128.163 186.207 128.46 185.897C129.117 185.203 129.797 184.487 130.48 183.81C132.643 181.67 134.743 179.19 136.893 176.223C139.077 173.213 139.993 169.97 139.697 166.307C139.517 164.07 138.457 162.26 136.793 161.34C135.297 160.513 133.48 160.54 131.803 161.413C129.61 162.553 127.583 163.99 125.623 165.377C124.98 165.833 124.333 166.29 123.683 166.733C122.873 167.29 122.137 167.913 121.423 168.517C121.217 168.69 121.01 168.867 120.803 169.037L120.187 169.55C118.823 170.683 117.41 171.853 116.043 173.04C114.713 174.193 113.46 175.38 112.513 176.283C112.21 176.573 111.957 176.883 111.73 177.157C111.547 177.38 111.373 177.59 111.207 177.753C110.697 178.247 110.153 178.74 109.63 179.217C108.713 180.053 107.767 180.917 106.883 181.853C105.433 183.393 104.01 184.993 102.63 186.54C101.687 187.6 100.71 188.693 99.74 189.757C98.6933 190.9 97.61 192.053 96.5633 193.167C95.6033 194.187 94.6133 195.24 93.6467 196.293C93.2033 196.777 92.79 197.277 92.39 197.76C91.9333 198.313 91.5 198.833 91.04 199.32C88.19 202.303 85.8133 204.743 83.5633 206.993C83.32 207.237 83.07 207.48 82.82 207.723C83.1867 207.133 83.5567 206.547 83.92 205.97L84.5367 204.987C84.8167 204.54 85.0933 204.087 85.37 203.633C86.18 202.31 86.9433 201.063 87.8233 199.893C88.6267 198.823 89.5267 197.763 90.3933 196.743C91.21 195.783 92.05 194.79 92.84 193.76L93.0367 193.503C95.63 190.123 98.31 186.63 99.65 182.27C99.7333 182 99.8067 181.72 99.88 181.443C100.037 180.837 100.187 180.267 100.433 179.903C101.437 178.42 102.407 176.687 102.023 175.087C101.833 174.29 101.333 173.647 100.577 173.23L100.41 173.137L100.227 173.09C97.3967 172.357 96.1 174.34 95.4033 175.403C95.2267 175.677 95.0567 175.933 94.9033 176.107C93.4233 177.793 92.0233 179.573 90.67 181.29C89.6867 182.537 88.6733 183.823 87.6467 185.053C86.0833 186.927 83.86 187.943 80.6467 188.257C79.2733 188.39 78.3567 188.897 77.9267 189.763C77.6467 190.327 77.4733 191.267 78.25 192.53C79.1033 193.92 80.2667 195.023 81.39 196.093L81.46 196.16C81.8367 196.52 82.2567 196.797 82.6633 197.037C82.4067 197.523 82.1533 198.003 81.9033 198.477C80.88 200.42 79.91 202.257 78.9267 204.083C78.1233 205.58 77.31 207.07 76.5 208.56C75.5933 210.227 74.6833 211.893 73.7867 213.567C73.3867 214.313 72.9833 215.117 72.8433 216.02C72.7167 216.813 73.0867 217.84 73.5133 218.377C73.9433 218.913 74.46 219.023 74.73 219.04C75.03 219.06 75.3333 219.08 75.6333 219.1C76.6267 219.17 77.6567 219.243 78.6867 219.243C81.75 219.243 84.8567 218.603 87.2567 215.373L87.48 215.073C87.73 214.737 87.9633 214.417 88.21 214.11C88.57 213.66 88.9433 213.217 89.3133 212.773C90.1267 211.803 90.9667 210.803 91.7133 209.72C92.2133 208.997 92.5967 208.237 92.9667 207.503C93.2833 206.877 93.58 206.287 93.93 205.76C94.3467 205.127 94.88 204.533 95.44 203.903C95.7333 203.573 96.0267 203.247 96.3067 202.91C96.8167 202.3 97.7 200.917 98.5567 199.577C99.0767 198.763 99.7233 197.75 99.92 197.51C101.35 195.747 102.847 193.977 104.293 192.263C105.4 190.953 106.543 189.6 107.657 188.253C108.093 187.723 108.47 187.173 108.833 186.64C109.23 186.057 109.607 185.503 110.03 185.03C110.223 184.813 111.19 183.9 112.12 183.02C114.293 180.97 117.267 178.16 118.57 176.617C119.01 176.097 119.473 175.693 119.9 175.453C120.763 174.97 121.68 174.513 122.567 174.07C123.36 173.673 124.183 173.263 124.987 172.827C126.053 172.247 126.823 172.207 127.733 172.693C128.24 172.963 128.477 173.237 128.447 174.543C128.373 177.687 126.683 180.013 124.173 182.543C122.273 184.457 120.497 186.107 117.98 186.917C115.57 187.693 113.34 188.923 111.183 190.117C110.487 190.5 109.763 190.9 109.057 191.27C106.597 192.56 103.81 194.02 101.97 196.853C100.99 198.36 100.543 201.337 102.04 202.757C102.523 203.217 103.003 203.68 103.48 204.147C105.187 205.803 106.947 207.52 108.937 208.95C113.817 212.46 119.053 213.88 124.497 213.167C131.307 212.277 136.66 209.133 140.413 203.83C141.017 202.977 141.537 202.103 141.977 201.21C142.02 201.62 142.083 202.033 142.163 202.45C142.487 204.123 143.537 205.467 144.967 206.043C146.247 206.56 147.66 206.38 148.843 205.55C151.943 203.373 154.82 201.067 157.4 198.687C159.18 201.377 161.507 201.01 162.757 200.537C163.023 200.437 163.3 200.343 163.577 200.25C164.603 199.903 165.77 199.507 166.697 198.703C168.487 197.15 169.483 196.523 171.507 197.067C173.187 197.52 175.313 196.797 178.2 194.8C179.63 193.81 180.777 192.52 181.887 191.273C182.3 190.81 182.687 190.37 183.093 189.947C183.307 189.723 183.527 189.503 183.75 189.28C184.537 188.493 185.353 187.68 185.947 186.643L186.1 186.37C186.287 186.04 186.593 185.487 186.747 185.413C186.747 185.413 186.8 185.4 186.933 185.427C187.157 185.47 187.547 185.78 187.83 186.263C188.107 186.733 188.12 187.093 188.097 187.173C188.017 187.403 187.94 187.633 187.86 187.863C187.417 189.187 187.03 190.327 186.053 191.057C184.853 191.947 183.897 192.84 183.127 193.78C181.557 195.697 179.913 197.82 177.963 200.47C177.073 201.677 173.037 207.567 172.503 209.11C172.47 209.207 172.43 209.307 172.387 209.407C172.047 210.237 171.343 211.96 173.42 213.707C174.09 214.27 174.86 214.563 175.667 214.563C175.77 214.563 175.873 214.56 175.973 214.55C177.45 214.413 178.597 213.367 179.3 212.513C181.37 209.993 189.563 197.917 190.66 196.153C192.493 193.203 196.07 186.627 196.103 186.56C196.553 185.727 196.883 185.833 197.177 185.93C200.177 186.907 203.11 187.08 205.89 186.45C209.113 185.72 212.29 184.563 215.723 178.537C215.733 178.52 215.743 178.503 215.75 178.487C215.84 178.867 215.98 179.23 216.17 179.567C216.677 180.46 217.487 181.063 218.453 181.27C220.207 181.643 221.713 181.63 222.93 181.233C227.423 179.77 229.827 176.277 232.15 172.893C232.427 172.49 232.707 172.087 232.987 171.683C233.23 171.34 233.623 171.003 234.007 170.96C234.12 171.06 234.25 171.217 234.31 171.323C234.39 172.207 234.247 173.123 233.93 173.733C233.143 175.257 232.17 176.993 230.897 178.31C228.987 180.287 226.967 182.237 225.01 184.123C223.087 185.98 221.1 187.9 219.2 189.857C217.02 192.107 215.943 194.58 216.003 197.21C216.04 198.79 216.637 200.02 217.687 200.677C218.277 201.047 219.543 201.54 221.387 200.697C222.323 200.267 224.067 199.317 225.19 197.78C227.347 194.823 229.437 191.67 231.407 188.407C234.33 183.557 237.637 178.477 242 174.167C242.767 173.41 244.3 171.683 245.653 170.163C246.52 169.187 247.34 168.263 247.61 167.997C248.07 167.533 248.4 167.01 248.69 166.547L248.793 166.383C249.15 165.817 249.15 165.087 248.793 164.52H248.79ZM208.027 178.297C206.103 178.643 204.787 178.243 203.62 176.963C202.357 175.573 202.41 175.497 202.933 174.75C203.697 173.653 204.407 172.513 205.09 171.41C205.407 170.9 205.727 170.387 206.05 169.88C206.19 169.66 206.323 169.43 206.453 169.2C206.683 168.797 206.9 168.417 207.127 168.2C207.473 167.87 207.897 167.563 208.347 167.237C208.373 167.217 208.403 167.197 208.43 167.177C208.403 167.507 208.43 167.887 208.533 168.323C208.497 168.423 208.407 168.623 208.18 168.993C207.54 170.04 207.407 171.147 207.8 172.113C208.177 173.037 208.99 173.7 210.087 173.977C210.717 174.137 211.333 174.16 211.877 174.183C212.02 174.19 212.167 174.193 212.31 174.203C212.253 174.303 212.19 174.417 212.123 174.547C211.493 175.713 210.323 177.883 208.03 178.297H208.027ZM179.277 185.77C178.823 185.023 178.713 184.093 178.97 183.213C179.453 182.343 182.443 179.82 184.253 179.337C184.167 179.643 184.057 179.977 183.983 180.207C183.85 180.613 183.72 181 183.64 181.36C183.517 181.9 183.247 182.47 182.963 183.073C182.737 183.553 182.503 184.05 182.313 184.587C182.067 185.203 180.167 186.187 179.497 186.063C179.45 186.017 179.377 185.93 179.277 185.767V185.77Z" fill="white"/>
<path d="M241.297 168.04C243.983 168.08 244.983 165.497 247.297 165.217C247.493 165.193 247.627 165.413 247.52 165.58C247.22 166.057 246.93 166.547 246.543 166.937C245.827 167.66 242.193 171.867 240.947 173.1C236.59 177.4 233.26 182.43 230.123 187.633C228.21 190.807 226.163 193.907 223.98 196.897C223.217 197.943 221.967 198.783 220.767 199.333C218.833 200.22 217.557 199.263 217.51 197.177C217.453 194.65 218.653 192.583 220.283 190.903C224.097 186.97 228.173 183.29 231.98 179.353C233.337 177.95 234.367 176.173 235.267 174.423C235.767 173.453 235.913 172.163 235.793 171.067C235.727 170.447 234.74 169.417 234.263 169.467C233.183 169.38 232.263 170.107 231.76 170.823C229.227 174.43 226.987 178.337 222.47 179.807C221.347 180.173 219.96 180.053 218.77 179.803C217.453 179.523 216.817 177.95 217.313 176.503C217.77 175.167 218.41 173.893 219.11 172.273C218.483 172.143 217.74 171.74 217.27 171.95C216.56 172.263 215.76 172.897 215.493 173.587C214.973 174.927 215.14 176.547 214.427 177.797C211.16 183.537 208.217 184.387 205.567 184.99C202.96 185.58 200.257 185.357 197.65 184.507C196.36 184.087 195.413 184.7 194.793 185.85C194.64 186.137 191.147 192.54 189.393 195.363C188.247 197.21 180.133 209.15 178.15 211.56C177.813 211.97 176.093 213.99 174.393 212.56C172.943 211.34 173.627 210.467 173.927 209.603C174.347 208.39 178.03 202.917 179.177 201.363C180.833 199.117 182.523 196.89 184.293 194.733C185.057 193.803 185.99 192.983 186.957 192.263C188.52 191.1 188.933 189.333 189.517 187.677C189.973 186.38 188.683 184.253 187.237 183.963C185.78 183.67 185.287 184.797 184.653 185.907C184.003 187.043 182.94 187.95 182.017 188.917C180.5 190.51 179.133 192.34 177.357 193.57C175.763 194.673 173.453 196.037 171.903 195.623C169.07 194.863 167.553 195.983 165.72 197.573C164.797 198.373 163.43 198.687 162.233 199.14C160.58 199.767 159.43 199.14 158.53 197.663C158.093 196.943 157.66 196.41 156.55 197.443C153.87 199.93 150.983 202.227 147.99 204.33C146.177 205.603 144.07 204.363 143.643 202.173C143.047 199.1 143.567 196.267 145.183 193.583C145.593 192.9 148.433 187.84 149.957 186.437C150.777 185.683 152.117 184.58 153.367 185.263C154.017 185.62 154.1 186.267 153.983 186.657C153.503 188.293 153.047 188.747 151.017 190.54C149.17 192.267 148.163 193.63 148.56 195.66C148.91 197.437 150.427 198.333 152.133 197.563C153.053 197.15 153.807 196.34 154.603 195.673C156.023 194.483 157.49 193.34 158.803 192.04C159.717 191.137 160.447 190.033 161.18 188.967C162.83 186.563 164.443 184.137 166.04 181.757C166.47 181.113 167.357 180.97 167.973 181.437C169.063 182.257 169.07 183.13 168.14 184.483C166.967 186.187 165.467 187.663 164.233 189.33C163.833 189.87 163.53 190.807 163.727 191.37C163.903 191.873 164.827 192.127 165.437 192.46C165.563 192.53 165.763 192.47 165.93 192.47C168.623 192.48 168.593 192.47 169.487 189.953C170.34 187.547 171.57 184.623 173.617 182.94C175.177 181.007 179.92 177.137 185.217 175.797C187.4 175.243 188.177 173.297 189.437 171.887C190.383 170.83 191.113 170.797 192.25 171.38C192.863 171.8 192.69 172.833 192.517 173.517C192.127 175.053 191.967 176.35 192.85 177.903C193.45 178.96 193.2 180.543 193.173 181.89C193.153 182.897 192.84 184.143 194.093 184.377C195.32 184.607 195.913 183.623 196.28 182.413C197.023 179.967 197.873 177.543 198.86 175.187C199.75 173.06 200.94 171.063 201.887 168.957C202.453 167.697 202.75 166.32 203.267 165.037C204.16 162.813 204.94 160.517 206.103 158.437C208.05 154.957 210.207 151.59 212.41 148.263C212.737 147.773 213.557 147.313 214.517 147.647C215.31 147.92 215.597 148.82 215.477 149.283C214.61 152.593 213.743 155.927 212.527 159.117C211.803 161.017 210.587 162.787 209.327 164.407C208.483 165.493 207.113 166.157 206.093 167.127C205.537 167.653 205.21 168.423 204.783 169.09C203.757 170.697 202.79 172.343 201.7 173.907C200.523 175.597 201.16 176.503 202.51 177.987C204.25 179.9 206.233 180.16 208.29 179.79C211.757 179.167 213.173 175.643 213.697 174.813C214.393 173.707 213.903 172.84 212.577 172.737C211.867 172.68 211.13 172.713 210.45 172.54C209.073 172.19 208.713 171.007 209.457 169.79C209.763 169.29 210.15 168.59 210.02 168.113C209.563 166.437 210.683 166.353 211.65 166.543C213.163 166.84 214.783 167.17 216.067 167.96C218.307 169.337 219.57 169.517 221.45 167.683C223.203 165.98 224.717 164.03 226.48 162.333C226.98 161.853 228.167 161.503 228.7 161.77C229.663 162.253 229.23 163.32 228.733 164.023C228.137 164.873 227.28 165.54 226.687 166.39C225.883 167.54 225 168.72 224.587 170.027C224.37 170.707 224.847 172.037 225.437 172.427C226.09 172.86 227.577 172.95 228.1 172.497C230.02 170.827 231.767 168.937 233.427 167C234.933 165.24 236.19 163.267 237.657 161.467C238.84 160.017 240.103 158.613 241.47 157.34C241.98 156.867 242.923 156.59 243.603 156.69C243.943 156.74 244.333 157.82 244.36 158.45C244.497 161.433 243.09 164.007 242.003 166.657C241.86 167.003 241.663 167.33 241.297 168.05V168.04ZM177.553 182.717C177.157 183.997 177.3 185.403 177.993 186.547C178.18 186.857 178.393 187.127 178.663 187.32C179.887 188.2 183.21 186.55 183.727 185.09C184.133 183.94 184.83 182.87 185.1 181.697C185.39 180.44 186.583 178.06 185.317 177.807C182.71 177.283 177.907 181.577 177.553 182.717Z" fill="black"/>
<path d="M84.67 196.45C83.9367 196 83.1067 195.653 82.4934 195.07C81.4167 194.047 80.2934 192.99 79.5267 191.743C78.7667 190.503 79.3267 189.89 80.79 189.747C83.8867 189.447 86.7367 188.48 88.7967 186.013C91.2501 183.073 93.51 179.97 96.03 177.093C96.9967 175.99 97.5234 173.937 99.85 174.54C101.443 175.423 100.187 177.59 99.1901 179.063C98.6601 179.847 98.5067 180.893 98.2167 181.83C96.9234 186.037 94.2667 189.437 91.6501 192.85C90.0401 194.95 88.21 196.88 86.6234 198.997C85.3867 200.643 84.3601 202.447 83.2667 204.193C82.0367 206.153 80.7834 208.103 79.6434 210.117C79.2434 210.823 79.15 211.707 78.8634 212.693C79.4234 212.62 79.7067 212.67 79.8367 212.55C81.45 211.067 83.0767 209.6 84.6267 208.053C87.1601 205.52 89.6534 202.947 92.1267 200.357C93.0534 199.387 93.8467 198.297 94.7567 197.31C96.7734 195.117 98.8434 192.97 100.853 190.77C103.243 188.153 105.557 185.467 107.983 182.883C109.323 181.457 110.84 180.197 112.253 178.837C112.723 178.387 113.083 177.82 113.553 177.37C114.693 176.283 115.843 175.207 117.033 174.177C118.59 172.823 120.183 171.513 121.77 170.197C122.68 169.44 123.567 168.643 124.54 167.977C127.16 166.18 129.7 164.207 132.503 162.747C135.307 161.287 137.94 163.11 138.207 166.433C138.47 169.693 137.713 172.553 135.683 175.35C133.763 177.997 131.737 180.47 129.43 182.75C128.427 183.74 127.47 184.78 126.493 185.797C126.457 185.833 122.027 189.207 119.367 190.22C116.703 191.233 114.27 192.853 111.7 194.13C110.283 194.833 110.147 196.383 111.647 197.927C113.153 199.477 114.727 200.99 116.427 202.317C118.927 204.27 121.813 205.477 125.003 205.67C127.12 205.797 129.293 205.883 131.367 205.537C133.87 205.12 135.76 203.577 137.423 201.55C139.507 199.01 140.06 196.133 140.317 193.053C140.317 192.773 140.347 192.47 140.417 192.2C140.597 191.477 141.51 191.163 142.01 191.717C142.51 192.27 142.32 193.363 142.283 194.233C142.143 197.487 141.027 200.383 139.203 202.96C135.58 208.08 130.47 210.87 124.317 211.677C118.977 212.377 114.11 210.81 109.827 207.73C107.387 205.977 105.28 203.75 103.087 201.667C102.27 200.89 102.523 198.773 103.243 197.667C104.84 195.21 107.3 193.89 109.77 192.593C112.63 191.093 115.42 189.32 118.457 188.34C121.33 187.413 123.28 185.583 125.253 183.597C127.753 181.08 129.873 178.367 129.963 174.577C129.997 173.233 129.81 172.087 128.457 171.367C127.003 170.59 125.677 170.75 124.287 171.507C122.607 172.423 120.853 173.207 119.187 174.143C118.53 174.513 117.933 175.067 117.443 175.647C115.54 177.893 109.617 183.253 108.927 184.03C108.03 185.037 107.377 186.253 106.517 187.297C103.953 190.4 101.31 193.437 98.7734 196.563C98.2101 197.257 95.98 200.983 95.1734 201.95C94.3467 202.943 93.4067 203.863 92.6967 204.933C91.87 206.183 91.3467 207.64 90.4967 208.87C89.4567 210.377 88.2067 211.74 87.0567 213.173C86.7134 213.6 86.3967 214.043 86.07 214.483C83.1367 218.437 78.9234 217.807 74.8434 217.547C74.6334 217.533 74.2767 216.67 74.3434 216.26C74.45 215.573 74.7934 214.907 75.1267 214.28C76.8234 211.11 78.5634 207.963 80.2634 204.797C81.6967 202.13 83.1 199.447 84.6834 196.453L84.67 196.45Z" fill="black"/>
</svg>
