<?xml version="1.0" encoding="UTF-8"?>
<svg id="Calque_1" data-name="Calque 1" xmlns="http://www.w3.org/2000/svg" version="1.1" viewBox="0 0 238.3 285.9">
  <defs>
    <style>
      .cls-1 {
        fill: none;
      }

      .cls-1, .cls-2, .cls-3, .cls-4 {
        stroke-width: 0px;
      }

      .cls-2 {
        fill: #1d1d1b;
      }

      .cls-3 {
        fill: #fff;
      }

      .cls-4 {
        fill: #000;
        fill-rule: evenodd;
      }
    </style>
  </defs>
  <g>
    <polygon class="cls-3" points="178.8 23.5 118.9 23.5 58.9 23.5 21.1 85.8 118.9 262.7 216.6 85.8 178.8 23.5"/>
    <path class="cls-2" d="M118.9,263.9L20.4,85.8,58.6,23h120.6l.2.3,38,62.6-.2.3-98.3,177.8ZM21.8,85.8l97.1,175.7,97.1-175.7-37.5-61.7H59.2l-37.5,61.7Z"/>
  </g>
  <polygon class="cls-1" points="191.9 62.2 45.8 62.2 31.4 86 46.2 112.9 191.5 112.9 206.3 86 191.9 62.2"/>
  <polygon class="cls-1" points="118.9 244.3 189 117.3 48.7 117.3 118.9 244.3"/>
  <path class="cls-2" d="M197.1,62.2l-2.7-4.5-18.1-29.8H61.4l-18.1,29.8-2.7,4.5-14.4,23.7,14.9,26.9,2.5,4.5,75.3,136.2,75.3-136.2,2.5-4.5,14.9-26.9-14.4-23.7ZM158.1,32.5v25.3h-1.5v-25.3h1.5ZM155.2,32.5v25.3h-20.8v-25.3h20.8ZM131.4,32.5h1.5v25.3h-1.5v-25.3ZM106.3,32.5v25.3h-1.5v-25.3h1.5ZM103.3,32.5v25.3h-20.8v-25.3h20.8ZM79.6,32.5h1.5v25.3h-1.5v-25.3ZM45.8,62.2h146l.9,1.5H44.9l.9-1.5ZM81,175.9l-1.5-2.7v-55.9h1.5v58.6ZM103.3,216.2l-20.8-37.6v-61.2h20.8v98.9ZM106.3,221.5l-1.5-2.7v-101.5h1.5v104.2ZM132.9,218.9l-1.5,2.6v-104.2h1.5v101.6ZM155.2,178.5l-20.8,37.7v-98.9h20.8v61.2ZM158.1,173.2l-1.5,2.7v-58.6h1.5v55.9ZM191.5,112.9H46.2l-.8-1.5h146.9l-.8,1.5ZM193.1,109.9H44.6l-13.2-23.9,12.7-20.9h149.6l12.7,20.9-13.2,23.9Z"/>
  <path class="cls-4" d="M94.1,99.6c0,2.8-2.3,5.1-5.1,5.1s-5.1-2.3-5.1-5.1,2.3-5.1,5.1-5.1,5.1,2.3,5.1,5.1Z"/>
  <path class="cls-4" d="M146.8,99.6c0,2.8-2.3,5.1-5.1,5.1s-5.1-2.3-5.1-5.1,2.3-5.1,5.1-5.1,5.1,2.3,5.1,5.1Z"/>
  <path class="cls-4" d="M124,70.2h-17.7l-8.2,34.4h11.1l1.7-5.5h8.5l1.7,5.5h11.1l-8.2-34.4ZM116.5,91.1h-4.9l3.6-11.6,3.6,11.6h-2.2Z"/>
  <polygon class="cls-4" points="177.2 70.2 171.6 87.9 166 70.2 152.8 70.2 152.8 104.6 162.8 104.6 162.8 86.8 168.8 104.6 168.8 104.6 174.4 104.6 180.4 86.8 180.4 104.6 190.4 104.6 190.4 70.2 177.2 70.2"/>
  <path class="cls-4" d="M67.5,70.2v23.7c0,2.2-3.4,2.1-3.4,2.1,0,0-3.4.2-3.4-2.1v-23.7h-11.4v23.7c0,3.7,2.6,10.7,14.9,10.7s14.9-6.9,14.9-10.7v-23.7h-11.4Z"/>
</svg>