<svg width="256" height="256" viewBox="0 0 256 256" fill="none" xmlns="http://www.w3.org/2000/svg">
<path d="M128.119 0.616882C98.7091 21.7281 63.4757 35.2417 25.2916 38.2787C25.2977 38.4967 25.3039 38.7126 25.3121 38.9305C28.1477 120.651 66.9959 217.629 128.123 255.683C189.251 217.631 228.099 120.651 230.935 38.9305C230.943 38.7126 230.949 38.4967 230.955 38.2787C192.769 35.2437 157.531 21.7302 128.119 0.616882ZM220.002 101.388C214.952 122.798 207.975 143.434 199.265 162.723C190.215 182.766 179.609 200.63 167.741 215.819C155.523 231.457 142.2 243.934 128.125 252.928C114.049 243.934 100.726 231.457 88.5102 215.819C76.6417 200.63 66.0357 182.766 56.9862 162.723C48.276 143.434 41.2993 122.798 36.2492 101.388C31.3698 80.7151 28.4972 60.2104 27.7015 40.4151C63.8232 37.1478 98.4603 24.4115 128.119 3.47915C157.782 24.4115 192.422 37.1498 228.545 40.4151C227.75 60.2104 224.877 80.7151 220 101.388H220.002Z" fill="#1D1D1D"/>
<path d="M128.123 252.928C114.046 243.934 100.724 231.457 88.5082 215.819C76.6396 200.63 66.0336 182.765 56.9842 162.723C48.274 143.434 41.2972 122.798 36.2471 101.388C31.3698 80.715 28.4972 60.2104 27.7015 40.4151C63.8232 37.1478 98.4603 24.4115 128.119 3.47913C157.782 24.4115 192.422 37.1498 228.545 40.4151C227.75 60.2104 224.877 80.715 220 101.388C214.95 122.798 207.973 143.434 199.263 162.723C190.213 182.765 179.607 200.63 167.739 215.819C155.521 231.457 142.198 243.934 128.123 252.928Z" fill="#FE7C00"/>
<path d="M114.746 233.125C119.113 237.075 123.577 240.644 128.123 243.815C132.67 240.644 137.134 237.075 141.501 233.125H114.746Z" fill="#1D1D1D"/>
<path d="M147.974 226.915C149.152 225.718 150.326 224.497 151.488 223.244H104.756C105.92 224.499 107.092 225.72 108.27 226.915H147.972H147.974Z" fill="#1D1D1D"/>
<path d="M96.2313 213.362C97.2327 214.606 98.2402 215.832 99.256 217.033H156.989C158.004 215.832 159.012 214.606 160.013 213.362H96.2292H96.2313Z" fill="#1D1D1D"/>
<path d="M128.119 12.6725C100.418 31.2074 68.6841 43.043 35.6447 47.1781C36.7591 64.29 39.4363 81.9056 43.6208 99.6488C48.5598 120.585 55.3782 140.757 63.889 159.604C71.9041 177.356 81.1571 193.324 91.428 207.15H164.817C175.09 193.326 184.341 177.358 192.356 159.604C200.866 140.757 207.685 120.585 212.624 99.6488C216.81 81.9056 219.486 64.292 220.6 47.1801C187.559 43.0471 155.821 31.2094 128.117 12.6725H128.119Z" fill="#1D1D1D"/>
<path d="M77.602 160.591H75.9138V159.518H81.0729V160.591H79.3847V168.343C79.3847 170.257 79.6603 171.592 80.2113 172.349C80.7624 173.105 81.7124 173.484 83.0613 173.484C84.4101 173.484 85.3601 173.105 85.9112 172.349C86.4623 171.592 86.7378 170.257 86.7378 168.343V160.591H85.0496V159.518H89.5034V160.591H87.8255V168.543C87.8255 170.825 87.439 172.439 86.6679 173.383C85.8968 174.327 84.5849 174.798 82.7364 174.798C80.8878 174.798 79.5698 174.323 78.7823 173.373C77.9968 172.423 77.602 170.813 77.602 168.543V160.591Z" fill="white"/>
<path d="M88.5678 174.508V173.443H89.7255L94.426 159.518H95.9106L100.619 173.443H101.919V174.508H97.1217V173.443H98.5878L97.4836 170.148H91.9359L90.8317 173.443H92.2814V174.508H88.5699H88.5678ZM92.2957 169.075H97.1382L94.718 161.946L92.2978 169.075H92.2957Z" fill="white"/>
<path d="M102.916 160.591L106.813 172.098L110.701 160.591H109.216V159.518H113.086V160.591H111.805L107.096 174.508H105.577L100.895 160.591H99.5789V159.518H104.386V160.591H102.92H102.916Z" fill="white"/>
<path d="M125.068 167.068C125.479 167.196 125.835 167.412 126.133 167.716C126.431 168.02 126.696 168.448 126.933 168.997L128.849 173.445H130.457V174.51H127.348L125.29 169.741C124.895 168.818 124.533 168.22 124.202 167.948C123.873 167.677 123.419 167.541 122.841 167.541H120.871V173.445H122.736V174.51H117.4V173.445H119.078V160.593H117.4V159.52H124.089C125.372 159.52 126.363 159.867 127.062 160.564C127.759 161.262 128.109 162.249 128.109 163.525C128.109 164.556 127.854 165.368 127.344 165.96C126.834 166.552 126.075 166.922 125.07 167.07L125.068 167.068ZM120.871 166.466H123.478C124.369 166.466 125.025 166.227 125.448 165.748C125.872 165.269 126.084 164.529 126.084 163.523C126.084 162.518 125.872 161.78 125.448 161.305C125.025 160.83 124.367 160.591 123.478 160.591H120.871V166.464V166.466Z" fill="white"/>
<path d="M131.475 160.591H129.787V159.518H134.946V160.591H133.258V168.343C133.258 170.257 133.533 171.592 134.084 172.349C134.636 173.105 135.585 173.484 136.934 173.484C138.283 173.484 139.233 173.105 139.784 172.349C140.335 171.592 140.611 170.257 140.611 168.343V160.591H138.923V159.518H143.377V160.591H141.699V168.543C141.699 170.825 141.312 172.439 140.541 173.383C139.77 174.327 138.458 174.798 136.609 174.798C134.761 174.798 133.443 174.323 132.655 173.373C131.87 172.423 131.475 170.813 131.475 168.543V160.591Z" fill="white"/>
<path d="M154.688 163.996C154.482 162.744 154.052 161.819 153.399 161.22C152.745 160.622 151.834 160.322 150.668 160.322C149.148 160.322 148.013 160.877 147.267 161.989C146.518 163.1 146.144 164.78 146.144 167.029C146.144 169.279 146.531 170.899 147.302 172.03C148.073 173.161 149.208 173.726 150.703 173.726C151.369 173.726 152.004 173.632 152.611 173.445C153.218 173.258 153.795 172.976 154.342 172.602V168.736H151.86V167.663H156.137V173.255C155.354 173.772 154.511 174.158 153.606 174.415C152.701 174.672 151.735 174.802 150.703 174.802C148.712 174.802 147.117 174.094 145.918 172.678C144.719 171.263 144.121 169.379 144.121 167.029C144.121 164.679 144.721 162.771 145.924 161.362C147.125 159.954 148.743 159.248 150.775 159.248C151.529 159.248 152.309 159.347 153.113 159.545C153.917 159.742 154.772 160.042 155.679 160.443V163.998H154.69L154.688 163.996Z" fill="white"/>
<path d="M157.472 174.508V173.443H159.15V160.591H157.472V159.518H163.984C165.314 159.518 166.318 159.828 166.992 160.447C167.667 161.066 168.004 161.991 168.004 163.223C168.004 164.113 167.769 164.823 167.301 165.351C166.832 165.88 166.147 166.205 165.246 166.326C166.365 166.486 167.214 166.893 167.796 167.545C168.376 168.197 168.666 169.073 168.666 170.171C168.666 171.658 168.253 172.752 167.428 173.455C166.604 174.158 165.316 174.51 163.567 174.51H157.47L157.472 174.508ZM160.943 165.853H163.186C164.153 165.853 164.858 165.641 165.302 165.22C165.746 164.798 165.968 164.132 165.968 163.221C165.968 162.31 165.746 161.636 165.302 161.218C164.858 160.801 164.153 160.591 163.186 160.591H160.943V165.853ZM160.943 173.443H163.585C164.646 173.443 165.419 173.181 165.909 172.659C166.398 172.137 166.643 171.306 166.643 170.169C166.643 169.032 166.4 168.214 165.915 167.693C165.429 167.175 164.652 166.916 163.587 166.916H160.945V173.443H160.943Z" fill="white"/>
<path d="M171.785 174.508V173.443H173.473V168.051L169.4 160.591H168.162V159.518H173.066V160.591H171.528L174.824 166.655L178.121 160.591H176.636V159.518H180.471V160.591H179.225L175.258 167.86V173.443H176.946V174.508H171.787H171.785Z" fill="white"/>
<path d="M101.997 191.655V191.122H102.854V184.696H101.997V184.16H104.68C105.842 184.16 106.749 184.489 107.399 185.149C108.048 185.809 108.373 186.726 108.373 187.9C108.373 189.074 108.048 189.999 107.397 190.661C106.745 191.323 105.84 191.655 104.68 191.655H101.997ZM103.774 191.122H104.615C105.491 191.122 106.163 190.844 106.632 190.289C107.101 189.734 107.335 188.936 107.335 187.9C107.335 186.864 107.101 186.07 106.634 185.521C106.167 184.972 105.495 184.698 104.615 184.698H103.774V191.124V191.122Z" fill="white"/>
<path d="M113.273 189.084H109.691V189.125C109.691 189.845 109.813 190.388 110.057 190.754C110.302 191.12 110.662 191.303 111.137 191.303C111.501 191.303 111.801 191.196 112.033 190.984C112.266 190.772 112.43 190.456 112.523 190.038H113.191C113.06 190.624 112.815 191.064 112.457 191.358C112.099 191.653 111.63 191.801 111.051 191.801C110.349 191.801 109.784 191.544 109.358 191.029C108.933 190.515 108.719 189.835 108.719 188.984C108.719 188.132 108.929 187.46 109.346 186.946C109.765 186.43 110.314 186.173 110.995 186.173C111.721 186.173 112.278 186.421 112.667 186.917C113.055 187.415 113.257 188.136 113.271 189.084H113.273ZM112.293 188.552C112.274 187.929 112.157 187.46 111.937 187.143C111.719 186.827 111.404 186.668 110.995 186.668C110.613 186.668 110.31 186.827 110.092 187.145C109.872 187.464 109.739 187.933 109.689 188.552H112.293Z" fill="white"/>
<path d="M114.153 186.855H113.354V186.319H114.984V187.151C115.147 186.816 115.354 186.57 115.605 186.411C115.856 186.253 116.169 186.173 116.539 186.173C117.129 186.173 117.61 186.432 117.984 186.95C118.358 187.468 118.543 188.147 118.543 188.984C118.543 189.82 118.356 190.499 117.984 191.019C117.61 191.539 117.129 191.801 116.539 191.801C116.169 191.801 115.858 191.72 115.605 191.562C115.354 191.404 115.147 191.157 114.984 190.822V193.256H115.77V193.793H113.352V193.256H114.151V186.855H114.153ZM114.984 188.722V189.249C114.984 189.89 115.095 190.38 115.317 190.717C115.539 191.052 115.86 191.221 116.282 191.221C116.703 191.221 117.028 191.032 117.246 190.653C117.464 190.275 117.573 189.718 117.573 188.981C117.573 188.245 117.464 187.684 117.246 187.31C117.028 186.936 116.705 186.748 116.282 186.748C115.858 186.748 115.539 186.917 115.317 187.256C115.095 187.594 114.984 188.083 114.984 188.722Z" fill="white"/>
<path d="M121.638 186.319H123.193V191.122H123.978V191.655H122.36V190.711C122.206 191.066 122.008 191.336 121.764 191.521C121.519 191.706 121.237 191.799 120.914 191.799C120.382 191.799 119.989 191.63 119.738 191.295C119.487 190.96 119.362 190.431 119.362 189.711V186.855H118.611V186.319H120.197V189.426C120.197 190.075 120.269 190.52 120.411 190.76C120.554 191.001 120.809 191.122 121.175 191.122C121.562 191.122 121.854 190.966 122.056 190.651C122.257 190.337 122.358 189.88 122.358 189.28V186.855H121.634V186.319H121.638Z" fill="white"/>
<path d="M125.635 191.122H126.421V191.655H124.009V191.122H124.805V186.855H124.009V186.319H125.635V191.122ZM124.572 184.661C124.572 184.507 124.624 184.373 124.724 184.26C124.825 184.147 124.947 184.09 125.088 184.09C125.23 184.09 125.348 184.147 125.448 184.26C125.549 184.373 125.6 184.509 125.6 184.661C125.6 184.814 125.551 184.953 125.45 185.062C125.35 185.171 125.23 185.229 125.088 185.229C124.947 185.229 124.825 185.173 124.724 185.062C124.624 184.951 124.572 184.818 124.572 184.661Z" fill="white"/>
<path d="M126.505 191.358V190.114H126.984C126.997 190.513 127.108 190.812 127.321 191.009C127.533 191.206 127.848 191.305 128.263 191.305C128.637 191.305 128.921 191.227 129.117 191.073C129.312 190.916 129.411 190.69 129.411 190.392C129.411 190.158 129.339 189.968 129.197 189.825C129.053 189.681 128.753 189.526 128.29 189.362L127.69 189.136C127.276 188.988 126.978 188.805 126.793 188.583C126.608 188.363 126.515 188.081 126.515 187.74C126.515 187.25 126.676 186.868 126.999 186.59C127.321 186.312 127.768 186.173 128.335 186.173C128.588 186.173 128.855 186.21 129.135 186.284C129.415 186.358 129.705 186.465 130.003 186.604V187.768H129.524C129.511 187.423 129.402 187.153 129.199 186.96C128.993 186.767 128.716 186.668 128.364 186.668C128.012 186.668 127.751 186.736 127.57 186.874C127.391 187.012 127.301 187.217 127.301 187.491C127.301 187.715 127.369 187.896 127.504 188.029C127.64 188.165 127.912 188.303 128.319 188.443L128.979 188.669C129.433 188.827 129.76 189.023 129.962 189.259C130.161 189.496 130.262 189.798 130.262 190.17C130.262 190.676 130.087 191.073 129.74 191.363C129.392 191.653 128.913 191.796 128.3 191.796C127.99 191.796 127.687 191.759 127.391 191.685C127.095 191.611 126.801 191.502 126.505 191.354V191.358Z" fill="white"/>
<path d="M133.694 191.655V191.122H134.868V184.888L133.509 185.866V185.208L135.154 184.024H135.777V191.122H136.951V191.655H133.694Z" fill="white"/>
<path d="M141.947 188.297C141.746 188.548 141.514 188.735 141.252 188.858C140.991 188.981 140.695 189.043 140.366 189.043C139.698 189.043 139.169 188.819 138.783 188.371C138.396 187.923 138.203 187.31 138.203 186.532C138.203 185.755 138.413 185.165 138.832 184.707C139.252 184.25 139.813 184.022 140.514 184.022C141.277 184.022 141.861 184.336 142.27 184.968C142.677 185.599 142.883 186.5 142.883 187.672C142.883 188.984 142.64 189.999 142.155 190.719C141.67 191.439 140.987 191.798 140.109 191.798C139.871 191.798 139.622 191.774 139.359 191.722C139.095 191.671 138.828 191.597 138.555 191.496V190.252H139.06C139.1 190.589 139.217 190.851 139.412 191.029C139.607 191.208 139.871 191.301 140.198 191.301C140.782 191.301 141.217 191.056 141.503 190.565C141.789 190.075 141.937 189.317 141.945 188.293L141.947 188.297ZM140.479 184.522C140.052 184.522 139.725 184.694 139.496 185.042C139.268 185.389 139.155 185.887 139.155 186.535C139.155 187.182 139.268 187.682 139.496 188.031C139.725 188.379 140.052 188.554 140.479 188.554C140.907 188.554 141.234 188.385 141.462 188.05C141.69 187.713 141.803 187.23 141.803 186.596C141.803 185.93 141.688 185.418 141.46 185.06C141.232 184.702 140.905 184.524 140.479 184.524V184.522Z" fill="white"/>
<path d="M145.799 191.801C145.067 191.801 144.495 191.459 144.084 190.777C143.673 190.094 143.467 189.14 143.467 187.914C143.467 186.689 143.673 185.731 144.084 185.048C144.495 184.365 145.067 184.024 145.799 184.024C146.531 184.024 147.106 184.365 147.516 185.048C147.925 185.731 148.13 186.687 148.13 187.914C148.13 189.142 147.925 190.094 147.516 190.777C147.106 191.459 146.533 191.801 145.799 191.801ZM145.799 191.303C146.259 191.303 146.605 191.021 146.833 190.46C147.061 189.899 147.176 189.049 147.176 187.914C147.176 186.779 147.061 185.926 146.833 185.365C146.605 184.803 146.259 184.522 145.799 184.522C145.338 184.522 144.993 184.803 144.764 185.365C144.536 185.926 144.421 186.777 144.421 187.914C144.421 189.051 144.536 189.897 144.764 190.46C144.993 191.023 145.338 191.303 145.799 191.303Z" fill="white"/>
<path d="M152.751 184.16V184.982H149.66V187.131C149.817 187.01 150 186.919 150.209 186.859C150.419 186.8 150.653 186.769 150.913 186.769C151.64 186.769 152.216 186.993 152.638 187.441C153.059 187.89 153.271 188.502 153.271 189.28C153.271 190.057 153.057 190.69 152.632 191.134C152.206 191.578 151.608 191.801 150.836 191.801C150.526 191.801 150.209 191.759 149.882 191.675C149.555 191.591 149.224 191.463 148.883 191.293V189.837H149.393C149.42 190.312 149.555 190.676 149.802 190.927C150.047 191.178 150.392 191.303 150.834 191.303C151.309 191.303 151.675 191.128 151.932 190.781C152.189 190.433 152.317 189.931 152.317 189.28C152.317 188.628 152.189 188.132 151.934 187.787C151.68 187.439 151.314 187.267 150.834 187.267C150.563 187.267 150.324 187.32 150.119 187.427C149.913 187.534 149.73 187.7 149.57 187.925H149.181V184.16H152.751Z" fill="white"/>
<path d="M176.447 179.951H79.1544V181.112H176.447V179.951Z" fill="white"/>
<path d="M160.046 84.1387C159.623 83.7665 158.998 82.5801 158.541 82.0455C147.359 68.9473 134.426 55.9684 118.177 49.2075C106.683 44.4248 97.7673 46.7976 87.7042 53.3529C83.6925 55.9664 79.4772 60.1631 75.5375 62.3653C75.1653 62.573 74.8014 62.8403 74.3469 62.8198C74.1516 62.8033 74.2277 62.5113 74.277 62.3386C74.4004 61.8883 76.179 59.6059 76.6047 59.1124C81.3299 53.6305 88.1031 47.7271 94.7324 44.7517C107.802 38.8812 118.352 42.6544 129.826 49.6969C139.521 55.6476 148.86 64.1481 155.428 73.4443C157.155 75.8891 160.316 80.6102 161.128 83.3717C161.264 83.8364 161.373 84.2806 160.916 84.6096C160.684 84.369 160.277 84.3402 160.05 84.1407L160.046 84.1387Z" fill="white"/>
<path d="M154.844 136.838C154.118 137.22 153.588 136.844 152.901 136.829C150.551 136.778 146.891 137.348 144.989 136.108C142.665 134.594 139.918 131.687 137.673 129.853C132.324 125.483 126.742 121.28 120.616 118.122C104.954 119.59 90.694 111.164 77.8775 103.286C75.4594 101.8 71.9905 99.8585 69.8562 98.1478C69.6752 98.0018 68.6327 97.1957 68.8959 96.949C69.6259 96.9983 70.3579 97.315 71.0241 97.5946C83.0489 102.626 93.7043 110.808 106.478 114.575C110.218 115.677 114.347 116.559 118.243 116.38C115.648 114.723 113.456 112.753 111.353 110.522C109.57 108.632 107.09 106.169 105.501 104.242C105.022 103.66 104.146 102.663 104.364 101.884C105.6 102.883 106.543 104.234 107.754 105.279C115.737 112.169 130.087 112.323 133.794 124.066C133.879 124.334 133.94 124.685 133.566 124.5C133.12 124.278 131.101 120.914 130.482 120.18C125.936 114.783 119.748 113.362 113.744 110.393C113.226 110.136 112.369 109.449 111.97 109.286C111.723 109.186 111.561 109.346 111.665 109.591C111.739 109.761 113.228 111.197 113.51 111.447C114.702 112.508 119.72 116.339 121.013 116.487C121.79 116.576 122.685 116.409 123.485 116.483C124.003 116.53 125.109 116.639 125.027 117.304H122.765C122.874 117.577 123.145 117.853 123.378 118.027C126.394 120.295 130.838 122.389 133.762 124.916L146.004 135.916L147.44 135.705C148.075 135.61 148.965 135.736 149.498 135.298C149.745 135.094 149.749 135.09 149.498 134.884C143.784 133.102 138.766 129.139 136.301 123.612C135.382 121.554 135.073 119.251 134.037 117.24C130.476 110.333 124.334 103.698 120.591 96.7577C118.151 93.7186 116.142 89.6 113.51 86.7727C112.84 86.051 111.569 84.8645 110.658 85.9687C109.619 87.2292 111.061 88.7755 111.873 89.8488C114.406 93.1922 117.556 96.217 119.975 99.6365C120.158 99.8955 121.307 101.417 122.031 102.678C120.918 102.059 119.329 100.064 118.65 99.3157C116.771 97.2389 115.099 95.2896 113.304 93.147C112.264 91.9071 109.465 89.3533 109.206 87.7885C108.828 85.4876 110.259 83.746 112.636 84.5643C114.39 85.1689 117.437 89.855 118.617 91.537C123.008 97.792 127.447 104.66 131.489 111.153C132.542 112.846 133.731 114.676 134.635 116.438C136.7 120.458 137.076 123.855 140.249 127.48C144.318 132.125 148.881 132.83 153.748 135.777C153.989 135.923 155.097 136.494 154.842 136.838H154.844Z" fill="white"/>
<path d="M121.944 66.5168C121.453 66.9733 118.694 64.4894 118.103 64.0884C115.718 62.464 112.299 60.7327 109.457 60.1919C88.1956 56.1494 80.3347 78.2085 62.5648 83.1168C61.0226 83.5424 54.9362 84.8625 54.0911 83.2751C53.8711 82.8618 54.4345 83.0016 54.6092 82.9769C61.257 82.0722 64.4257 81.297 69.9877 77.3799C81.3792 69.3565 90.7762 55.1336 106.776 57.7327C112.023 58.586 118.046 61.2611 121.434 65.4867C121.673 65.7848 121.981 66.1015 121.942 66.5189L121.944 66.5168Z" fill="white"/>
<path d="M140.041 68.3695C142.661 71.1001 144.647 73.9439 145.365 77.7459C145.846 80.2935 145.782 83.2031 146.261 85.6911C146.457 86.7069 146.997 87.5643 147.199 88.4567C147.464 89.6391 146.235 88.2635 146.037 87.9715C144.304 85.4094 144.744 82.1051 144.308 79.214C143.658 74.9206 141.164 70.5594 137.88 67.7526C137.247 67.2118 136.352 66.7944 135.721 66.2104C135.559 66.0603 134.899 65.4743 135.108 65.2831L141.067 67.4442C149.819 71.2132 152.592 78.6958 150.067 87.7473C149.981 88.0537 149.862 88.3149 149.605 88.5143C149.224 88.2635 149.317 87.9715 149.288 87.6013C148.904 82.4834 150.828 78.0235 147.03 73.4093C145.35 71.3695 142.593 69.1303 140.043 68.3695H140.041Z" fill="white"/>
<path d="M153.612 102.499C155.264 99.0833 155.786 96.4699 151.145 95.9208C150.98 96.071 152.401 97.9401 152.56 98.3081C153.203 99.7907 153.304 101.839 151.351 102.087C151.182 100.872 152.15 100.833 151.708 99.5748C151.034 97.6542 148.908 96.5295 149.658 94.1258C149.864 93.4657 151.515 91.3457 151.76 92.5301C151.813 92.7892 151.268 93.4267 151.186 93.805C150.781 95.67 152.107 94.9071 153.257 95.1415C155.144 95.5261 156.668 97.8352 156.086 99.7331C155.893 100.366 154.449 103.206 153.61 102.497L153.612 102.499Z" fill="white"/>
<path d="M146.827 108.051C147.583 108.172 147.863 107.403 148.373 107.029C149.523 106.186 150.76 105.486 152.173 105.176C152.245 105.575 152.111 105.731 151.879 106.011C151.087 106.963 148.729 108.221 147.647 109.181C146.687 110.035 146.265 110.896 145.494 111.758C145.061 112.243 144.259 112.796 144.45 111.746C144.54 111.244 144.871 110.608 145.005 110.033C145.431 108.199 145.745 106.132 146.315 104.351C146.531 103.675 146.621 103.227 147.345 102.916L147.446 105.071L146.829 108.051H146.827Z" fill="white"/>
<path d="M161.009 94.5946C161.083 95.1149 160.967 95.5261 160.758 96.4185C159.503 101.789 155.506 105.168 152.858 108.108C150.715 110.485 148.235 113.078 146.152 115.513C145.379 115.901 144.485 114.168 143.849 113.6C143.084 112.918 142.132 112.33 141.069 112.373C141.069 112.646 140.983 112.786 141.207 112.996C141.789 113.545 142.739 113.878 143.331 114.53C145.35 116.755 144.125 118.574 141.995 119.975C141.995 119.975 141.666 120.001 141.643 119.901C141.583 119.648 142.449 118.611 141.742 118.375C141.532 118.305 140.841 119.781 140.44 119.818C139.161 119.936 138.526 116.925 137.831 115.718C137.699 115.49 137.839 115.365 137.37 115.455C137.097 117.931 137.72 119.236 139.533 120.795C140.541 121.661 141.88 122.672 142.92 122.672C143.96 122.672 145.441 121.722 144.982 120.04C144.845 119.539 142.772 122.45 142.449 122.15C142.336 122.045 142.038 121.587 142.038 121.587C142.021 121.558 142.019 121.523 142.038 121.494C142.523 120.694 143.946 120.532 144.458 119.968C144.935 119.442 145.182 118.219 145.595 117.61C146.714 115.957 149.917 113.413 151.462 111.756C152.523 110.619 153.493 109.214 154.538 108.049C157.881 104.323 161.854 101.452 161.854 95.8057C161.854 94.6234 160.902 93.8092 161.013 94.5946H161.009Z" fill="white"/>
<path d="M200.969 112.731C200.42 112.5 198.249 112.223 197.607 112.07C187.99 109.788 178.057 103.445 172.567 95.1642C170.681 92.3204 169.275 89.0037 166.349 86.9886L164.716 86.051H168.726C172.797 86.051 180.043 93.1121 183.123 95.7112C183.829 96.3054 187.77 99.1636 187.949 99.5213C188.122 99.8668 187.824 99.8627 187.524 99.7414C183.835 98.2403 181.129 94.9915 177.366 93.4493C175.507 92.6885 173.515 92.2382 171.502 92.2217C171.3 92.3945 171.921 93.0237 172.131 93.1326C173.033 93.6035 175.094 93.8564 176.284 94.3253C179.334 95.522 181.147 97.5309 183.775 99.1718C185.138 100.023 186.894 100.883 188.356 101.582C192.132 103.383 197.365 105.499 200.365 105.499C201.019 105.499 200.963 104.859 200.572 104.75C198.825 104.261 197.056 103.671 195.417 102.951C186.212 98.9106 176.496 84.2498 166.453 84.8111C164.987 84.8934 163.933 85.6891 162.952 85.8454C162.343 85.942 160.793 85.5986 159.874 85.6315C159.397 85.648 156.6 85.9235 156.491 86.0551C156.341 86.4129 156.783 86.637 157.005 86.6699C158.475 86.8879 160.953 86.6699 162.557 86.6699C166.939 86.6699 169.641 93.2581 171.742 96.1964C172.429 97.1567 173.478 98.0409 174.078 99.0011C174.249 99.2746 174.66 99.8894 174.794 100.473C174.251 100.05 173.231 99.1533 173.05 99.0032C169.474 96.0401 165.865 92.2217 160.708 92.2217H158.062C157.877 92.2217 157.727 92.3718 157.727 92.5569C157.727 92.7173 157.84 92.8571 157.998 92.8859C158.917 93.0566 159.471 93.0607 160.571 93.2087C160.982 93.2642 161.8 93.4082 162.205 93.4966C168.452 94.866 174.423 102.248 179.539 106.083C185.833 110.8 191.11 113.428 199.11 113.641C199.762 113.658 200.817 113.611 201.019 113.407C201.346 113.08 201.158 112.809 200.971 112.731H200.969Z" fill="white"/>
<path d="M136.542 134.685C134.428 133.916 132.182 133.821 130.114 133.297C128.516 132.894 128.886 132.049 128.29 131.008C126.705 128.243 123.299 127.11 122.611 123.939C122.38 122.878 122.417 121.864 122.559 120.803L122.152 121.212C122.191 120.888 122.169 120.573 121.846 121.011C121.397 121.617 121.445 123.997 121.552 124.796C121.864 127.134 123.933 127.957 125.446 129.332C125.744 129.604 128.705 132.575 128.526 132.727C126.875 132.664 126.499 131.218 125.644 130.163C123.538 127.57 119.652 126.145 117.118 123.883C116.475 123.308 115.087 121.346 114.643 121.217C113.903 121.003 114.801 122.802 114.912 123.003C115.71 124.447 117.009 125.438 117.92 126.04C118.541 126.452 120.536 127.706 120.902 127.912C123.811 129.546 124.328 130.531 126.156 132.45C127.984 134.368 130.402 134.668 132.844 134.786C131.724 135.949 129.781 135.618 128.461 134.952C127.212 134.323 126.357 133.161 125.335 132.32C123.324 130.665 121.513 129.03 119.528 127.377C119.401 127.27 119.051 127.099 118.93 127.145C118.788 127.196 118.792 127.486 118.92 127.741C119.658 129.207 126.515 135.322 128.107 136.13C129.404 136.79 130.426 136.992 131.899 136.821C133.003 136.694 134.757 135.832 135.622 135.797C136.406 135.766 137.496 136.243 138.396 136.017C138.781 135.694 136.786 134.775 136.542 134.685Z" fill="white"/>
</svg>
