<svg width="256" height="256" viewBox="0 0 256 256" fill="none" xmlns="http://www.w3.org/2000/svg">
<path d="M114.224 174.152C115.976 170.034 119.68 166.877 120.124 162.124C122.797 162.449 123.765 159.99 125.565 158.887C131.696 155.134 138.041 151.77 144.925 149.557C147.003 148.89 148.613 147.042 151.032 147.192C152.118 147.264 153.3 147.256 153.728 148.414C154.244 149.818 152.816 149.882 152.087 150.548C146.947 155.277 140.135 157.411 134.821 161.87C130.966 165.099 127.58 168.701 125.184 173.129C122.313 178.436 125.105 183.554 131.069 184.101C138.596 184.784 145.774 183.054 152.618 180.285C158.257 178.008 164.094 176.151 168.718 171.597C173.382 167.003 175.594 161.823 175.126 155.444C174.889 152.175 172.311 150.31 169.821 148.993C163.055 145.415 155.87 142.726 148.486 140.702C141.919 138.909 135.138 137.814 128.698 135.672C122.305 133.554 115.857 130.769 112.606 124.279C110.345 119.765 110.52 114.536 112.289 109.982C115.842 100.866 122.932 94.9709 131.26 89.9804C139.643 84.9503 148.534 85.1724 157.48 85.9579C162.595 86.4022 166.18 90.4009 169.384 94.2648C170.027 95.0423 169.876 95.9626 169.115 96.764C168.226 97.7002 167.291 97.8985 165.958 97.7875C161.66 97.4304 157.615 95.7484 153.213 95.8436C141.078 96.0975 131.117 100.771 123.321 110.014C119.633 114.385 120.37 117.234 125.343 120.264C133.552 125.263 142.308 129.293 151.262 132.467C158.225 134.934 164.895 137.727 171.232 141.401C176.062 144.201 180.036 147.922 182.78 152.921C186.293 159.323 183.034 169.122 177.165 174.787C164.761 186.751 150.128 193.305 132.6 193.178C123.574 193.106 114.144 188.425 114.779 176.858C114.826 175.969 114.422 175.064 114.232 174.168L114.224 174.152Z" fill="#EDC317"/>
<path d="M95.3716 232.633C135.709 232.633 194.907 202.302 239.701 137.053C191.631 191.035 137.414 218.13 97.4654 218.13C57.5165 218.13 43.5499 194.042 43.5499 169.257C42.7726 173.446 42.2809 176.723 42.2809 181.269C42.2809 213.259 59.1344 232.625 95.3716 232.625V232.633Z" fill="#EDC317"/>
<path d="M114.224 174.152C102.549 185.87 88.527 192.321 71.9352 193.082C69.2783 193.201 66.669 193.082 64.0517 192.59C57.1279 191.281 53.1623 187.41 52.0123 180.396C51.592 177.809 50.6323 175.731 48.8399 173.787C44.9695 169.582 42.6695 164.322 39.6953 159.506C39.1481 158.617 38.8467 157.395 37.554 157.546C36.2136 157.697 36.9195 159.053 36.5229 159.791C32.6684 166.987 28.9408 174.255 23.8808 180.745C20.9859 184.458 17.1076 186.164 12.7059 186.767C8.56585 187.338 4.67962 184.315 3.06168 179.563C1.85615 176.04 1.41201 172.343 1.30098 168.654C0.682352 148.462 -0.309033 128.27 0.349246 108.054C0.436488 105.396 0.88856 102.81 1.52305 100.255C1.6896 99.5724 1.86408 98.6045 2.79202 98.3982C4.00548 98.1285 4.36237 99.2313 4.79065 99.9533C5.96445 101.905 6.32928 104.142 6.73377 106.348C9.66827 122.406 8.93861 138.719 10.0172 154.904C10.4059 160.696 10.8659 166.48 12.2538 172.129C13.0786 175.485 14.4983 176.024 17.29 173.93C21.438 170.828 23.5477 166.234 25.9349 161.807C32.605 149.438 33.3425 135.831 34.437 122.295C35.1112 113.996 35.5157 105.682 35.1984 97.3589C35.0557 93.6934 37.0067 92.0034 40.1553 91.3052C43.2723 90.615 45.0885 92.5112 46.4447 94.9707C47.3726 96.6527 47.3647 98.5014 47.3092 100.374C46.9681 112.775 45.374 125.128 45.5723 137.552C45.7388 148.049 49.4823 157.506 54.2568 166.734C56.5806 165.385 57.3975 163.139 59.0948 161.735C65.9789 156.039 73.9497 152.294 82.1425 148.954C83.8477 148.255 85.5925 147.621 87.377 147.176C88.5429 146.883 89.9388 147.026 90.4463 148.343C90.9143 149.541 89.8753 150.271 88.9712 150.842C85.4022 153.095 81.9125 155.491 78.2245 157.522C72.1017 160.886 66.7959 165.131 63.0365 171.066C61.1648 174.009 59.7372 177.254 61.6565 180.737C63.5917 184.244 67.0496 184.775 70.571 184.522C83.1973 183.609 94.9115 180.094 104.889 171.93C106.84 170.336 108.704 168.59 109.83 166.329C113.161 159.617 114.081 151.913 104.603 147.533C93.135 142.241 81.0242 139.195 68.8579 136.259C63.2269 134.902 58.2541 132.3 53.5113 129.222C49.062 126.334 46.8571 118.717 48.3402 112.767C50.6323 103.627 56.1523 97.105 64.361 92.2573C71.5386 88.0206 77.598 85.5293 87.9163 85.5293C99.8685 85.5293 106.554 92.9158 106.554 95.296C106.554 96.4941 105.682 97.8825 104.12 97.8825C102.557 97.8825 97.5843 95.7641 87.3056 95.7641C74.5366 95.7641 65.3127 103.04 57.6355 112.481C55.7399 114.822 57.4689 116.67 59.3248 118.138C66.8752 124.12 75.7897 127.508 84.5298 131.197C94.1026 135.236 104.246 138.116 112.455 144.891C117.142 148.763 121.029 153.198 120.688 159.871C120.648 160.632 120.307 161.378 120.101 162.124C119.657 166.876 115.953 170.042 114.2 174.152H114.224Z" fill="#4B4B47"/>
<path d="M203.036 10.6722C162.889 10.6722 103.985 40.4247 59.4041 104.436C107.236 51.4846 161.192 24.8979 200.95 24.8979C240.709 24.8979 254.604 48.5253 254.604 72.8429C255.373 68.7331 255.865 65.5198 255.865 61.0609C255.865 29.6741 239.099 10.6722 203.036 10.6722Z" fill="#4B4B47"/>
<path d="M112.154 243.455C112.852 243.677 113.851 243.789 114.834 243.582C116.064 243.32 116.627 242.598 116.436 241.742C116.27 240.948 115.635 240.591 114.2 240.401C112.336 240.147 111.035 239.464 110.718 237.957C110.353 236.243 111.503 234.633 113.772 234.141C114.906 233.895 115.802 233.966 116.405 234.133L116.27 235.775C115.85 235.656 115.056 235.513 114.081 235.728C112.867 235.989 112.479 236.759 112.606 237.362C112.78 238.171 113.47 238.417 114.985 238.655C116.952 238.949 118.039 239.679 118.356 241.186C118.721 242.868 117.753 244.606 115.049 245.185C113.946 245.423 112.725 245.359 112.074 245.137L112.154 243.463V243.455Z" fill="#434140"/>
<path d="M127.032 242.067L126.683 241.274L126.636 241.289C126.334 241.996 125.66 242.63 124.693 242.892C123.186 243.305 122.044 242.44 121.734 241.305C121.219 239.417 122.631 238.005 125.407 237.267L125.375 237.148C125.24 236.656 124.82 235.894 123.495 236.259C122.758 236.458 122.052 236.902 121.631 237.362L120.925 236.235C121.385 235.744 122.266 235.164 123.448 234.839C125.843 234.188 126.945 235.521 127.389 237.148L128.127 239.853C128.309 240.528 128.523 241.178 128.722 241.623L127.017 242.091L127.032 242.067ZM125.795 238.481C124.455 238.814 123.257 239.457 123.567 240.591C123.765 241.329 124.336 241.535 124.939 241.377C125.692 241.17 126.112 240.528 126.136 239.949C126.144 239.798 126.12 239.639 126.081 239.52L125.803 238.489L125.795 238.481Z" fill="#434140"/>
<path d="M138.54 236.005C138.834 236.878 139.104 237.592 139.341 238.187L137.716 238.735L137.248 237.648H137.216C137.073 238.29 136.605 239.29 135.289 239.726C133.948 240.179 132.457 239.782 131.656 237.386L130.213 233.07L132.069 232.451L133.409 236.45C133.821 237.671 134.472 238.322 135.455 237.997C136.193 237.751 136.502 237.06 136.542 236.529C136.542 236.338 136.526 236.132 136.455 235.918L134.971 231.483L136.827 230.864L138.548 236.013L138.54 236.005Z" fill="#434140"/>
<path d="M139.167 226.183L141.007 225.469L145.076 236.013L143.236 236.727L139.167 226.183Z" fill="#434140"/>
<path d="M147.074 224.414L147.947 226.445L149.66 225.707L150.239 227.056L148.526 227.794L149.874 230.935C150.247 231.8 150.675 232.149 151.357 231.856C151.666 231.721 151.88 231.578 152.023 231.467L152.642 232.832C152.42 233.046 151.984 233.324 151.413 233.57C150.754 233.855 150.104 233.871 149.612 233.649C149.057 233.403 148.605 232.832 148.2 231.895L146.765 228.547L145.742 228.984L145.163 227.635L146.186 227.199L145.496 225.588L147.066 224.414H147.074Z" fill="#434140"/>
<path d="M161.842 215.71L166.093 223.779C166.466 224.485 166.894 225.231 167.164 225.683L165.617 226.5L164.975 225.453L164.943 225.469C164.943 226.445 164.356 227.365 163.357 227.889C161.723 228.754 159.693 228.04 158.582 225.921C157.361 223.628 158.075 221.51 159.724 220.637C160.668 220.137 161.548 220.177 162.127 220.526L162.159 220.51L160.113 216.623L161.842 215.71ZM163.27 222.621C163.198 222.478 163.095 222.319 162.992 222.192C162.484 221.597 161.644 221.335 160.851 221.756C159.74 222.343 159.637 223.652 160.311 224.937C160.97 226.191 162.072 226.778 163.174 226.199C163.88 225.826 164.245 225.025 164.023 224.184C163.983 224.009 163.912 223.827 163.809 223.644L163.27 222.613V222.621Z" fill="#434140"/>
<path d="M170.296 220.026C171.058 221.2 172.311 221.153 173.374 220.51C174.151 220.042 174.643 219.598 175.031 219.098L175.975 220.106C175.539 220.685 174.857 221.335 173.905 221.915C171.756 223.216 169.686 222.66 168.464 220.629C167.354 218.789 167.425 216.385 169.551 215.099C171.7 213.798 173.477 215.147 174.357 216.599C174.548 216.908 174.666 217.17 174.73 217.337L170.289 220.018L170.296 220.026ZM172.501 217.099C172.144 216.48 171.264 215.631 170.146 216.305C169.115 216.932 169.242 218.13 169.583 218.86L172.493 217.099H172.501Z" fill="#434140"/>
<path d="M184.144 215.099L177.799 206.451L179.6 205.134L184.549 207.205C185.833 207.744 187.063 208.379 188.149 209.022L188.173 209.006C187.221 207.927 186.365 206.84 185.397 205.515L183.184 202.5L184.644 201.429L190.989 210.085L189.355 211.283L184.311 209.141C183.065 208.593 181.701 207.951 180.567 207.292L180.535 207.332C181.416 208.403 182.264 209.537 183.311 210.958L185.58 214.052L184.128 215.115L184.144 215.099Z" fill="#434140"/>
<path d="M197.793 204.563L197.143 203.984L197.103 204.015C197.119 204.785 196.77 205.634 196.001 206.277C194.803 207.276 193.408 206.959 192.654 206.055C191.401 204.547 192.107 202.683 194.328 200.858L194.248 200.763C193.923 200.374 193.225 199.85 192.17 200.731C191.583 201.223 191.123 201.913 190.933 202.5L189.823 201.762C190.037 201.128 190.6 200.231 191.544 199.446C193.455 197.859 195.01 198.612 196.088 199.914L197.881 202.072C198.325 202.611 198.793 203.119 199.158 203.436L197.801 204.563H197.793ZM195.184 201.81C194.098 202.667 193.273 203.746 194.026 204.65C194.518 205.237 195.121 205.19 195.597 204.801C196.199 204.301 196.31 203.547 196.096 203C196.041 202.857 195.953 202.73 195.874 202.627L195.192 201.802L195.184 201.81Z" fill="#434140"/>
<path d="M197.793 194.288L201.378 196.335C202.005 196.684 202.544 197.034 203.076 197.406L203.107 197.375C202.782 196.811 202.505 196.248 202.179 195.59L200.419 191.869L201.941 190.464L205.003 198.176L203.583 199.477L196.215 195.717L197.778 194.28L197.793 194.288Z" fill="#434140"/>
<path d="M212.561 190.798L211.855 190.282L211.824 190.314C211.919 191.075 211.657 191.956 210.951 192.67C209.857 193.781 208.437 193.614 207.596 192.789C206.2 191.416 206.716 189.488 208.738 187.457L208.651 187.37C208.286 187.013 207.541 186.569 206.581 187.545C206.042 188.092 205.653 188.822 205.526 189.433L204.353 188.814C204.503 188.163 204.971 187.211 205.828 186.339C207.573 184.569 209.198 185.164 210.396 186.347L212.395 188.314C212.894 188.806 213.402 189.266 213.798 189.544L212.561 190.805V190.798ZM209.69 188.322C208.699 189.29 207.985 190.44 208.826 191.266C209.373 191.805 209.968 191.694 210.404 191.258C210.951 190.702 210.991 189.933 210.713 189.417C210.642 189.282 210.547 189.163 210.452 189.068L209.69 188.322Z" fill="#434140"/>
<path d="M210.618 178.373C211.054 178.77 211.102 179.396 210.642 179.904C210.206 180.388 209.571 180.396 209.135 179.999C208.691 179.595 208.643 178.952 209.087 178.468C209.539 177.976 210.158 177.976 210.618 178.373ZM216.543 186.585L210.816 181.364L212.141 179.904L217.867 185.117L216.543 186.577V186.585Z" fill="#434140"/>
<path d="M212.022 174.692L213.307 173.192L221.872 180.555L220.587 182.054L212.022 174.692Z" fill="#434140"/>
<path d="M215.734 170.272L216.979 168.741L225.751 175.858L224.505 177.389L215.734 170.272Z" fill="#434140"/>
<path d="M226.504 169.495C227.654 170.296 228.796 169.78 229.542 168.789C230.089 168.059 230.374 167.464 230.549 166.861L231.802 167.44C231.62 168.138 231.231 169.003 230.565 169.891C229.058 171.907 226.932 172.161 225.037 170.74C223.316 169.455 222.483 167.194 223.974 165.21C225.481 163.195 227.63 163.774 228.994 164.798C229.288 165.02 229.494 165.218 229.621 165.345L226.512 169.495H226.504ZM227.456 165.948C226.893 165.504 225.758 165.052 224.973 166.099C224.252 167.067 224.823 168.13 225.41 168.678L227.448 165.948H227.456Z" fill="#434140"/>
<path d="M232.889 163.346C233.364 163.132 234.078 162.592 234.467 162.021C234.951 161.315 234.879 160.799 234.459 160.513C234.023 160.22 233.626 160.331 232.809 160.926C231.524 161.878 230.478 161.934 229.74 161.41C228.614 160.64 228.368 159.101 229.383 157.618C229.867 156.911 230.47 156.42 230.922 156.182L231.85 157.276C231.501 157.443 230.945 157.816 230.557 158.379C230.16 158.958 230.224 159.458 230.62 159.728C231.025 160.006 231.429 159.839 232.278 159.22C233.491 158.347 234.443 158.221 235.403 158.847C236.561 159.641 236.783 161.116 235.625 162.814C235.093 163.592 234.435 164.163 233.848 164.457L232.897 163.346H232.889Z" fill="#434140"/>
</svg>
