<svg width="256" height="256" viewBox="0 0 256 256" fill="none" xmlns="http://www.w3.org/2000/svg">
<g clip-path="url(#clip0_3005_21863)">
<path d="M219.436 -3.57245e-05H36.3164L36.3098 150.905C37.5574 192.111 67.0227 225.484 101.367 244.676C108.826 248.844 119.651 254.131 127.966 255.898C130.076 256.347 132.585 255.189 134.634 254.475C157.693 246.448 178.788 230.845 194.554 212.554C208.574 196.289 218.164 175.489 219.69 153.853L219.692 0.564095L219.438 -0.000854492L219.436 -3.57245e-05Z" fill="white"/>
<path d="M83.1401 88.8362L83.4127 89.0548L85.2676 89.2448C84.9926 87.5311 84.9811 85.7094 85.4518 84.026C86.137 83.5904 90.0507 86.5363 89.8485 84.2626C89.6905 82.4834 85.3331 82.3991 85.7874 80.1958C85.875 79.7708 86.5168 79.0651 86.9728 79.0896C87.3526 79.1101 88.7639 80.2768 89.4793 80.5298C91.9613 81.41 91.1182 80.0992 91.1509 78.5181C91.1836 76.9837 91.5291 75.4412 93.357 75.6672C94.0577 75.754 99.1871 78.2266 99.9533 78.7326C101.841 79.9804 101.338 82.8502 101.147 84.8234L96.9736 82.9247C95.1637 84.2675 93.9472 86.7042 93.303 88.8485C92.3289 92.0876 91.5913 96.0406 90.9102 99.3918C90.6941 100.454 90.7367 102.808 89.7503 103.308C89.2902 103.541 88.5191 103.387 88.3947 103.761C88.2056 104.326 88.98 107.287 89.0332 108.163C89.0717 108.8 89.0676 109.337 88.2866 109.381C87.3567 109.433 82.3886 106.271 81.0707 105.644C80.4265 105.337 77.7799 104.05 77.279 104.345C77.211 104.384 76.4039 105.371 76.268 105.542C75.9815 105.903 75.036 107.212 75.1915 107.581C75.266 107.758 77.7161 109.843 78.0779 110.111C79.8011 111.386 82.1079 112.567 84.1543 113.204C85.532 113.632 87.3984 113.771 88.6902 114.398C89.8182 114.945 91.8754 117.309 93.0484 118.227C94.6422 119.475 99.801 122.905 101.599 123.266C101.779 123.302 102.184 123.401 102.294 123.226C101.048 120.559 98.3292 118.958 96.236 117.003C95.5549 116.368 92.9739 113.992 92.6285 113.407C92.5327 113.246 92.4271 113.116 92.4607 112.91L92.7431 112.522C94.6856 112.61 96.8696 112.32 98.7827 112.491C100.966 112.686 101.901 115.053 103.283 116.506C104.414 117.694 106.268 119.003 107.957 118.404L107.997 117.86C107.209 115.96 105.139 113.569 104.763 111.587C104.726 111.395 104.645 110.884 104.995 111.026C107.051 113.237 109.846 118.327 113.543 116.789C114.365 116.447 114.618 115.878 115.179 115.322C115.876 114.632 116.044 116.023 116.058 116.511C116.227 122.336 111.16 125.55 105.809 125.279C99.4425 124.957 93.709 122.345 89.3631 117.74C88.4585 123.411 87.2511 129.629 84.7577 134.832C84.0864 136.234 83.1 137.483 82.4001 138.86C80.2873 143.012 82.116 148.81 81.5119 153.365C81.4824 153.589 81.4587 153.662 81.3482 153.856C81.146 154.211 76.6814 156.895 76.4358 156.71L74.2182 150.164C70.0647 154.616 65.1678 158.501 59.8379 161.49C58.037 162.5 56.0757 163.283 54.3509 164.354C54.2035 164.776 54.7438 167.546 54.8928 168.181C55.0131 168.696 56.0634 172.264 56.2058 172.435C56.6773 173.002 62.3117 171.935 62.3445 173.493C62.3641 174.402 61.1158 174.599 60.4453 174.706C58.3014 175.048 50.4715 175.199 48.5241 174.715C45.6729 174.007 44.1643 170.833 44.0055 168.1C43.9514 167.172 44.1192 164.31 45.032 163.875C46.7666 163.049 47.0302 166.474 47.3019 167.503L50.7237 167.028C51.0568 166.627 49.6791 165.881 49.4123 165.639C48.7042 164.997 48.0788 164.353 48.583 163.332C53.5478 157.699 58.705 152.24 63.3735 146.353C63.5331 146.271 63.6452 146.188 63.8237 146.302C64.4434 146.699 64.4982 148.701 66.4309 149.107C67.0539 149.238 68.4422 149.323 69.1347 149.351C70.758 149.416 72.3567 149.227 73.971 149.179L71.5799 142.642L71.7608 142.303H76.8361C76.9671 142.303 77.4795 142.055 77.667 141.987C78.4438 140.948 74.9017 140.311 75.7285 138.575C76.3286 137.316 80.1596 137.804 81.0871 136.402C82.1447 134.803 80.8341 131.196 82.3215 129.121C82.942 128.256 86.0093 126.462 83.0386 126.11C82.4189 126.036 78.5732 125.933 78.3931 125.762C78.6648 122.522 78.6485 118.458 77.1111 115.499C74.0815 109.67 69.3746 112.814 66.8083 117.004L71.4325 121.178C73.1909 123.136 74.8911 125.071 75.5599 127.694C75.9455 129.209 76.7567 134.531 75.1187 135.342C73.1622 136.312 72.7865 132.73 72.3109 131.598C70.1252 126.391 65.0639 125.014 62.4836 120.303C60.2178 116.166 60.0508 111.614 61.322 107.132C61.557 106.304 62.9339 101.968 63.8728 102.042C65.1989 102.547 63.9064 104.524 63.8237 105.704C63.6501 108.176 65.5984 106.352 65.7744 105.199C66.2435 102.132 61.268 100.181 62.554 96.4098C62.6703 96.0684 63.2474 94.9238 63.6706 95.4036C64.1347 95.93 64.5359 97.3113 64.9386 98.0318C65.4159 98.8866 67.5303 102.361 68.4913 102.34C69.6447 102.315 69.1315 99.8077 69.2338 99.1592C69.4433 97.8402 70.5681 98.3454 71.1861 98.0015C71.4072 97.8787 72.8888 95.2767 73.5699 96.2764C74.0872 97.0354 72.8446 98.6009 73.0165 99.4393C73.2195 100.428 75.1981 100.998 74.932 101.9C74.5661 103.14 72.8536 101.715 72.1701 101.605C71.8484 101.847 72.2118 101.929 72.3854 102.046C72.9535 102.429 73.9587 102.567 73.5625 103.326C72.9519 104.495 71.2811 102.899 71.1894 102.998C71.1256 103.58 72.0841 103.845 72.2274 104.186C72.5311 104.907 71.7125 105.823 73.1483 106.376L73.4749 106.364C74.1192 105.262 77.4869 103.238 77.7054 102.224C77.8552 101.527 77.4345 99.6693 77.4017 98.8293C77.2896 95.9693 78.2261 92.7286 74.8256 91.5799C73.2105 91.0346 71.6912 91.3752 70.1121 91.0543C68.2777 88.5243 73.3096 89.6026 74.6234 88.9983C73.5854 87.0259 71.1681 86.5715 69.4638 85.1526C68.9931 84.7604 66.5398 82.2632 67.094 81.7105C69.3304 81.2356 71.3769 85.3556 73.4766 84.4092C74.2698 84.0514 74.183 83.1139 73.7123 82.5407C72.5859 81.1701 69.9893 79.7233 68.8098 78.2749C68.3824 77.7501 67.8888 76.9346 68.7369 76.5506C69.955 75.9988 72.1423 78.7482 72.9854 79.5023C73.8769 80.2981 74.8706 81.0121 75.7662 81.8087L78.7172 81.5467V83.9212C78.7172 84.4746 79.7503 85.4285 80.2619 85.6504C81.3539 86.1236 82.0375 85.7601 83.1377 85.6406V88.8338L83.1401 88.8362ZM83.7532 91.2491C81.7395 91.5791 79.824 93.6489 79.1773 95.5157C78.0124 98.8776 80.6696 97.6953 82.405 96.6186C82.9379 96.6497 82.6154 101.25 84.6815 101.035C86.4456 100.852 87.1602 96.7685 87.071 95.3896C86.9638 93.7382 85.7735 90.9183 83.7541 91.2491H83.7532ZM55.307 172.595C54.323 169.376 51.0143 168.229 48.1107 169.729C49.6079 172.138 52.7071 172.521 55.307 172.595Z" fill="#134197"/>
<path d="M87.7259 69.2685C87.7611 69.8089 87.924 70.251 87.6809 70.7783C87.4377 71.3056 86.4448 71.5291 86.8148 72.0613C87.0309 72.3716 89.0831 72.7188 89.5276 72.4625C90.1088 71.8476 89.702 70.9707 89.9246 70.2396L90.8906 70.0791C91.2966 70.1773 91.2016 72.5894 91.0854 73.0381C90.5893 74.9548 88.3562 74.141 86.9973 74.353C84.7544 74.7027 86.1926 79.7356 83.7999 80.5012C82.3747 80.9572 83.1049 78.1259 82.5401 77.7689C82.0358 77.4504 80.5132 77.6846 79.8019 77.6003C78.3145 77.4242 76.1902 75.9971 75.5787 74.6191C75.2136 73.7963 74.5915 70.3231 76.1051 70.8053C77.1954 71.1525 76.7485 74.3023 78.4004 74.9098C79.5301 75.3249 79.7536 73.9731 80.5615 73.6473C81.1755 73.4 82.4738 73.7455 82.2928 72.6598C82.0293 71.0763 79.0471 71.2327 78.3906 70.4966C78.1368 70.2117 78.1819 69.5551 78.4315 69.3062C79.2166 68.521 82.2658 70.7709 83.4684 70.2486C83.4201 68.408 80.8046 68.2532 79.4769 67.6089C78.1491 66.9645 75.284 63.7647 74.2158 62.5546C72.7267 60.8671 73.5363 60.0385 73.4913 58.2119C73.4512 56.5997 72.9715 56.4597 73.6927 54.6592C76.223 48.3441 83.5257 45.9189 88.2187 51.6593C90.3528 54.2695 89.3377 58.3044 89.1985 61.3264C89.1764 61.8103 89.1109 62.8526 89.2296 63.2571C89.4916 64.1496 91.1967 63.1785 91.7362 64.36C92.3722 65.7527 89.7814 65.8796 89.6782 66.5715C89.5489 67.4377 91.3285 68.783 90.9258 69.4322C90.4518 70.197 88.4602 69.334 87.7251 69.2677L87.7259 69.2685ZM83.4831 59.9501C82.9928 63.0901 80.3446 62.4301 80.9209 59.1068C81.4767 55.9029 86.0338 56.9493 85.3577 54.3636C84.7797 52.153 81.1509 52.8145 79.5882 53.517C78.8015 53.8707 77.0055 55.2438 77.1471 56.1748C77.3886 57.7591 80.5099 57.0656 80.4977 58.871C80.4813 61.2986 77.1619 59.928 76.015 59.1354C74.9648 59.2239 76.7051 62.7626 77.1103 63.2636C78.6812 65.2074 79.3164 63.1548 80.5124 62.7945C82.5376 62.1837 82.8822 64.0939 84.0397 65.1722C84.476 64.5581 84.6332 63.9072 85.0663 63.2546C85.7064 62.2901 87.0735 61.4214 86.6691 60.0877L83.4823 59.9509L83.4831 59.9501Z" fill="#134197"/>
<path d="M114.7 87.6474C113.819 86.7287 111.829 89.2178 111.395 89.9137C109.943 92.244 109.334 94.9835 108.809 97.6437C108.771 97.9229 108.333 98.0187 108.192 97.9246C107.908 97.7354 107.917 93.3182 107.842 92.6239C107.701 91.3048 106.819 89.768 105.897 88.8379C104.907 87.8406 101.925 86.4405 101.396 85.3139C100.753 83.9457 104.11 83.9179 105.029 84.3019C106.424 84.8849 106.71 86.6559 107.61 87.2929C108.207 87.7162 108.369 86.7443 108.681 86.3816C109.724 85.169 110.644 85.3786 111.681 84.6335C113.012 83.678 111.842 82.4687 111.46 81.3093C111.224 80.5896 110.737 79.3377 110.676 78.6393C110.65 78.3388 110.692 78.1284 111.056 78.1055C114.325 80.9777 118.498 84.8374 118.012 89.6542C117.724 92.501 115.453 95.3127 114.271 97.8664C113.935 98.5919 113.133 101.292 112.61 101.609C111.341 102.377 111.691 100.432 111.61 99.8257C111.504 99.0291 111.13 98.4519 111.335 97.5496C111.484 96.8946 113.466 94.7224 113.988 93.8184C114.456 93.0079 114.968 92.0687 115.064 91.128C115.13 90.4746 115.12 88.0862 114.7 87.6482V87.6474Z" fill="#134197"/>
<path d="M99.7928 67.166C101.326 67.0071 101.887 68.6569 102.703 69.5969C104.312 71.4506 109.362 74.3302 107.506 77.3457C105.937 79.8962 104.688 76.0291 104.124 75.0531C103.392 73.7865 102.38 72.3021 101.472 71.1558C100.651 70.1193 98.3193 68.5882 99.7928 67.166Z" fill="#134197"/>
<path d="M112.061 105.678C113.418 107.106 114.681 109.773 114.101 111.747C112.578 112.183 112.163 109.49 111.432 108.354C110.672 107.174 109.373 105.986 108.024 105.54C107.165 105.256 105.048 105.286 104.668 104.472C104.37 103.834 104.951 103.527 105.48 103.32C107.599 102.489 110.598 104.139 112.06 105.678H112.061Z" fill="#134197"/>
<path d="M100.452 105.252C100.064 105.64 98.1417 106.301 97.3984 106.864C96.4873 107.553 95.0818 109.675 94.264 109.96C92.378 110.619 93.4225 107.209 93.7999 106.376C94.5604 104.697 96.8541 103.246 98.7368 103.533C99.3917 103.633 101.251 104.453 100.452 105.252Z" fill="#134197"/>
<path d="M82.6055 156.914C84.2943 156.628 84.589 158.198 83.3873 159.006C82.7136 159.459 81.5741 159.52 80.7874 159.845C79.4965 160.378 78.1262 162.231 76.7108 161.92C75.1751 161.582 76.5561 159.967 77.2601 159.428C78.0451 158.827 81.6846 157.071 82.6055 156.914Z" fill="#134197"/>
<path d="M71.4726 67.997C72.4828 67.8307 74.0283 68.3228 73.3251 69.5223C73.1565 69.8105 68.9391 72.6688 68.47 72.8522C67.649 73.174 66.963 73.0078 67.1013 71.9827C67.2577 70.8266 70.2971 68.1885 71.4726 67.9961V67.997Z" fill="#134197"/>
<path d="M103.196 41.2659C103.156 41.2659 103.097 41.3928 103.03 41.3871L102.87 41.2765C102.487 39.2673 101.017 38.6753 99.1044 38.8137C96.8524 38.9758 95.5238 40.8393 97.8683 42.0093C100.66 43.4029 105.593 43.0508 106.834 46.7975C108.278 51.1631 105.076 54.1123 100.911 54.3743C96.4857 54.6527 92.739 53.0029 92.4705 48.1443L95.8038 47.8324L95.9945 47.979C96.3694 50.8987 99.7854 52.1367 102.189 50.7407C103.281 50.1061 104.001 48.2803 102.742 47.4517C99.7912 45.5095 93.7712 46.7393 93.145 41.4943C92.3419 34.7673 102.781 34.082 105.477 37.8377C105.764 38.2373 107.134 41.2659 106.306 41.2659C105.269 41.2659 104.233 41.2618 103.196 41.2659Z" fill="#134197"/>
<path d="M121.86 54.3662L121.685 54.0321L128.417 36.6882L128.904 36.3566C129.586 36.5252 132.199 36.0594 132.542 36.3959L139.788 54.3654H135.777L134.06 50.351L126.999 50.369L125.462 54.3654H121.861L121.86 54.3662ZM128.408 47.161H132.338C132.504 47.161 132.95 47.5827 132.881 46.7885L130.537 40.773L128.233 46.827L128.408 47.161Z" fill="#134197"/>
<path d="M51.8697 36.4351C52.0416 35.8776 53.7967 36.3295 54.251 36.3606C55.0966 36.4188 55.501 35.6892 55.6426 37.2457C55.9725 40.877 55.0982 45.7273 55.6737 49.1686C55.9136 50.6047 57.0964 51.4612 58.493 51.5889C61.1583 51.8312 62.3273 50.8643 62.5172 48.2319C62.7955 44.3723 62.2331 40.2309 62.5876 36.3443C63.47 36.1101 64.3377 36.3533 65.2104 36.3664C65.9496 36.3778 66.1943 35.7924 66.2844 36.919C66.5226 39.9002 66.435 44.3837 66.2835 47.414C66.1902 49.2808 66.0494 51.7592 64.5538 53.0529C61.4645 55.7237 53.5503 55.4371 52.2757 50.9314C52.1226 50.391 51.8697 48.9025 51.8697 48.39V36.436V36.4351Z" fill="#134197"/>
<path d="M167.783 54.0387L173.679 44.7768L168.275 35.8629C169.414 36.0839 171.582 35.5051 172.523 36.1159C173.209 36.5613 175.725 41.2741 176.051 41.2626L179.399 36.1429C179.491 36.0553 179.897 35.8612 179.979 35.8612H183.663C183.626 36.5596 183.107 37.2122 182.749 37.8124C181.361 40.1319 179.667 42.2746 178.322 44.622L184.318 54.0379H180.143C178.704 52.4986 177.803 50.2887 176.53 48.6455C176.377 48.449 176.159 48.1395 175.889 48.1403L171.957 54.0379H167.782L167.783 54.0387Z" fill="#134197"/>
<path d="M188.166 35.862C188.989 35.9283 189.237 35.9144 189.59 36.7307L193.733 48.9639L198.02 36.2337C198.053 36.0814 198.381 35.862 198.48 35.862H201.755L201.935 36.1977L195.765 53.7782C195.355 54.344 192.718 53.8847 191.925 54.0501L185.365 36.359C185.22 36.1895 185.44 35.8611 185.547 35.8611C186.389 35.8611 187.345 35.7948 188.166 35.8611V35.862Z" fill="#134197"/>
<path d="M69.675 51.1263C72.1643 50.7235 72.2339 54.2811 70.5812 54.6585C67.9085 55.2701 67.5491 51.4702 69.675 51.1263Z" fill="#134197"/>
<path d="M142.618 51.6282C142.678 51.5553 143.277 51.1967 143.381 51.1664C146.23 50.3345 146.493 55.6352 143.216 54.6191C142.201 54.3047 141.986 52.3855 142.618 51.6282Z" fill="#134197"/>
<path d="M110.28 51.123C112.973 50.7562 112.712 55.7752 109.705 54.5692C108.458 54.0681 108.347 51.3866 110.28 51.123Z" fill="#134197"/>
<path d="M97.8536 66.9547C97.3411 67.2838 93.8187 65.6144 93.5404 65.0076C92.7152 63.2121 96.0379 64.464 96.7534 64.9045C97.2273 65.196 98.6026 66.4732 97.8544 66.9547H97.8536Z" fill="#134197"/>
<path d="M162.545 104.801L164.025 103.581C164.576 103.02 166.971 100.021 167.406 99.9068C167.545 99.8708 167.663 99.8798 167.78 99.9658C168.24 100.782 170.181 101.553 169.79 102.464L159.687 113.654C158.968 114.137 158.056 112.421 157.096 112.685C156.917 112.734 154.665 115.122 154.506 115.363C154.191 115.841 155.634 117.262 155.809 117.792L153.133 120.686L144.395 106.482C144.346 106.346 144.393 106.241 144.448 106.119C144.517 105.965 146.47 103.759 146.675 103.585C146.829 103.455 146.998 103.346 147.211 103.366L162.053 110.697C162.316 110.448 160.344 109.103 160.163 108.905C159.943 108.664 159.798 108.376 159.684 108.074L157.469 97.435C157.185 97.3613 157.141 97.552 156.978 97.679C156.284 98.212 153.706 101.44 153.273 101.517L150.768 99.2952L157.879 91.3785C158.746 92.2505 160.028 92.9751 160.495 94.1632C161.124 97.715 162.21 101.218 162.546 104.803L162.545 104.801ZM148.955 107.915L152.148 112.495C152.435 112.164 153.868 110.981 153.634 110.533L148.955 107.915Z" fill="#134197"/>
<path d="M82.4852 187.169C85.1588 186.635 87.73 188.356 90.1858 189.225C90.2291 189.705 87.9068 192.353 87.4697 192.415C87.256 192.446 87.098 192.388 86.9016 192.335C85.3241 191.915 83.0861 190.54 81.5438 190.318C81.0576 190.247 80.6475 190.255 80.2676 190.604L80.3495 191.191C80.9733 192.044 84.5628 194.556 84.7609 195.309C84.8207 195.537 84.7355 195.609 84.6242 195.775C84.4801 195.989 82.5425 198.103 82.3821 198.13L70.3831 187.23L75.6082 181.519C78.7238 178.576 84.4752 183.677 82.486 187.169H82.4852ZM77.5335 184.744C76.6314 184.915 76.1468 186.027 75.4854 186.595C75.4469 187.087 77.3281 188.356 77.7971 188.633C78.4364 188.067 79.359 187.274 79.2853 186.326C79.2198 185.482 78.4266 184.575 77.5335 184.744Z" fill="#134197"/>
<path d="M88.5199 175.192C87.3804 175.274 87.1463 174.545 86.033 175.244C82.5965 177.402 88.4888 183.036 91.2467 182.754C93.104 182.564 94.4179 179.574 92.5499 178.495L90.7555 180.253C90.5271 180.271 88.4569 178.278 88.3963 178.049C88.321 177.763 89.0356 176.973 89.2771 176.688C89.5816 176.328 91.841 173.941 92.0341 173.86C92.3559 173.726 92.7103 174.104 92.9657 174.315C93.5101 174.762 97.2642 178.155 97.3501 178.443C97.6579 179.48 96.9768 182.041 96.4292 183.022C93.6844 187.943 88.8506 187.336 85.0278 184.055C81.0568 180.646 79.2558 175.78 83.957 172.021C85.4338 170.841 86.7182 170.684 88.5355 171.213C91.421 172.053 89.0373 173.383 88.5199 175.193V175.192Z" fill="#134197"/>
<path d="M175.257 97.0485C171.827 100.439 167.692 98.5387 164.67 95.7164C162.201 93.4116 160.168 89.9899 162.025 86.6805C167.139 77.5701 181.864 90.5172 175.256 97.0485H175.257ZM166.589 87.478C166.01 87.6491 165.18 89.041 165.191 89.6583C165.227 91.8035 170.827 97.0166 172.728 93.9462C173.385 92.8851 173.074 91.9222 172.367 90.9651C171.35 89.5871 168.416 86.9384 166.589 87.478Z" fill="#134197"/>
<path d="M143.53 113.342L141.919 116.687C141.641 116.866 140.195 115.696 139.063 117.097C138.221 118.138 138.408 119.133 138.998 120.248C139.726 121.627 142.838 124.289 144.453 124.293C146.334 124.298 148.152 121.131 146.171 120.103C145.614 119.814 144.794 121.735 144.156 121.641C143.681 121.571 142.429 119.814 141.933 119.434C141.86 119.017 145.236 115.658 145.763 115.121C146.735 115.998 147.664 116.936 148.625 117.822C150.045 119.129 151.136 119.126 150.902 121.406C150.643 123.922 148.955 126.716 146.557 127.703C141.211 129.904 132.394 121.737 135.281 116.098C136.956 112.827 140.186 111.213 143.53 113.341L143.53 113.342Z" fill="#134197"/>
<path d="M120.489 150.84C120.688 150.726 120.884 150.861 121.05 150.973C121.446 151.238 122.881 152.559 123.175 152.941C123.269 153.064 123.442 153.134 123.404 153.332L116.486 160.782L104.582 149.753L111.36 142.477L113.761 144.84C113.761 144.976 112.729 146.171 112.53 146.398C112.059 146.937 110.096 148.764 109.903 149.183C109.591 149.859 111.005 150.541 111.406 150.967L111.626 150.909L115.475 146.881L117.835 149.237L114.086 153.354L116.293 155.406L120.489 150.838V150.84Z" fill="#134197"/>
<path d="M95.3609 160.013C95.6687 159.953 97.8822 161.744 97.8413 162.336C96.6805 163.893 95.3413 165.3 93.9636 166.652C93.8523 167.053 95.4559 168.524 95.6425 168.49L99.4637 164.426C99.6062 164.366 99.7101 164.427 99.8362 164.485C99.9623 164.543 101.915 166.337 101.942 166.479C102.036 166.965 98.6558 170.048 98.2146 170.735C98.1736 170.967 99.9885 172.809 100.404 172.768C101.107 172.699 104.009 168.537 104.702 168.356C104.866 168.312 104.935 168.351 105.075 168.415C105.543 168.629 106.953 170.326 107.528 170.713L100.705 178.141C100.075 178.318 99.0225 176.889 98.5322 176.443C95.2512 173.453 91.8483 170.575 88.7319 167.415L95.3609 160.013V160.013Z" fill="#134197"/>
<path d="M118.069 139.247C117.49 139.853 117.429 141.228 118.436 141.31C119.445 141.394 120.317 140.467 121.229 140.032C123.842 138.787 125.593 138.447 127.912 140.505C129.744 142.129 130.591 144.68 129.444 146.939C128.656 148.493 126.442 150.413 124.635 150.494C123.839 150.53 120.488 149.358 120.466 148.612C120.458 148.357 122.171 146.097 122.437 145.978C122.859 145.791 123.78 146.636 124.519 146.681C126.749 146.814 127.297 143.419 124.807 143.368C123.413 143.339 122.641 144.454 121.498 144.886C119.11 145.79 116.992 145.436 115.308 143.446C111.538 138.992 118.818 131.952 122.915 136.65L120.791 139.279L120.579 139.326C119.677 138.845 118.912 138.361 118.068 139.245L118.069 139.247Z" fill="#134197"/>
<path d="M178.442 84.5092C178.719 84.3168 180.403 86.2073 181.942 84.822C183.167 83.7199 182.21 82.0308 180.8 82.0267C179.482 82.0226 177.799 83.6667 176.141 83.932C171.621 84.6557 168.567 79.8127 171.552 76.0669C173.573 73.5303 176.417 72.8286 178.876 75.2432L176.95 77.8747C176.447 78.1474 175.578 77.0535 174.434 77.6414C173.033 78.3611 173.729 80.3564 174.989 80.0043C176.319 79.6326 177.821 78.1465 179.4 77.8575C183.56 77.0969 187.439 81.7508 185.386 85.6465C183.458 89.3047 179.721 90.252 176.532 87.4453C176.226 86.9655 178.298 85.129 178.442 84.51V84.5092Z" fill="#134197"/>
<path d="M66.3932 191.613L81.5037 199.046L79.043 201.828C78.3546 202.253 77.0113 200.693 76.534 200.786L73.8122 203.786L75.2701 206.06L72.721 208.772L72.0366 208.182L63.8891 194.865C63.8327 194.744 63.8269 194.624 63.8466 194.493C63.8834 194.251 66.1829 191.666 66.3932 191.612V191.613ZM68.4053 196.178L71.5979 200.596L73.1499 198.879L68.4053 196.178Z" fill="#134197"/>
<path d="M184.071 62.594L187.09 65.2787L184.645 68.1985L193.469 76.251C193.516 76.5311 191.402 79.0046 191.089 79.0676L182.086 71.0813L179.354 73.6662L176.5 70.9896L184.071 62.594H184.071Z" fill="#134197"/>
<path d="M99.2992 155.583C99.8804 155.428 107.156 162.784 108.293 163.578L112.386 159.344L115.165 162.124C114.898 162.508 114.627 162.902 114.33 163.264C113.063 164.81 110.837 167.308 109.4 168.647C109.245 168.791 108.887 169.13 108.67 169.088L96.9662 158.345L96.9539 158.018C97.0178 157.866 97.1266 157.745 97.2216 157.613C97.3935 157.375 99.1584 155.62 99.2992 155.583Z" fill="#134197"/>
<path d="M131.894 129.727C134.838 129.5 135.15 133.747 132.958 134.244C129.268 135.08 128.748 129.97 131.894 129.727Z" fill="#134197"/>
<path d="M172.533 9.16939C172.297 8.36291 171.637 6.79251 173.083 7.06025L173.327 7.30997C173.611 7.68497 172.958 9.49035 172.533 9.16939Z" fill="#134197"/>
<path d="M194.469 140.499L195.287 140.501L194.96 141.482C195.214 141.441 195.867 141.499 195.778 141.889L194.978 143.016L196.269 144.351C196.436 144.79 195.587 144.408 195.781 144.838C195.962 145.241 197.416 145.418 197.579 146.152L197.09 146.476C197.415 146.907 198.726 148.11 198.831 148.522C198.923 148.89 198.556 149.006 198.586 149.233C198.629 149.551 199.592 150.724 199.679 151.433C199.775 152.222 199.275 152.004 199.214 152.242C199.05 152.877 199.373 153.765 199.378 154.417L198.886 154.503C198.762 155.224 199.527 155.973 199.549 156.483C199.566 156.879 199.15 157.085 199.233 157.416C199.341 157.844 200.318 158.296 200.445 158.513C200.623 158.821 200.435 159.231 200.561 159.463C200.594 159.523 201.48 160.026 201.678 160.227C202.559 161.127 201.79 161.21 201.849 161.522C201.901 161.802 202.97 162.371 201.674 162.688C201.914 163.268 202.775 164.445 202.825 164.996C202.853 165.303 202.502 165.195 202.482 165.332C202.445 165.595 202.648 165.868 202.609 166.103C202.583 166.255 202.335 166.409 202.329 166.62C202.319 166.944 203.361 168.054 203.453 168.462C203.525 168.784 203.224 168.921 203.208 169.079C203.18 169.349 203.873 170.1 203.936 170.593C203.999 171.086 203.656 171.594 203.832 172.156C203.963 172.578 204.624 172.615 204.752 173.037C205.321 174.902 203.123 177.499 201.509 178.246C200.569 178.68 199.512 178.753 198.566 179.069C198.184 179.196 196.476 180.119 196.27 179.963C196.43 179.585 196.622 179.181 197.088 179.143C197.057 177.966 195.279 179.594 194.961 179.309L196.106 177.673L194.55 178.163C194.059 177.382 196.086 176.867 196.103 176.608C196.135 176.134 194.65 176.688 194.471 176.854C193.959 176.138 196.299 175.714 196.761 175.87L196.435 174.89C197.027 174.732 197.187 175.497 197.666 175.546C198.259 175.608 199.616 174.836 199.553 174.162C199.479 173.376 198.736 173.764 198.473 173.597C198.078 173.345 197.508 172.17 197.104 171.845C196.765 171.574 196.42 171.69 196.122 171.353C195.748 170.931 195.641 169.91 195.363 169.492C195.183 169.22 194.836 169.183 194.663 168.882C194.007 167.741 194.196 165.548 193.239 163.914C193.114 163.701 193.268 163.5 192.832 163.592C192.999 164.271 193.812 165.44 193.623 166.093C193.515 166.466 192.545 166.941 192.203 167.466C192.061 167.684 191.133 169.22 191.099 169.324C190.989 169.659 191.219 170.118 190.953 170.471L190.047 170.632L189.72 173.254C188.724 173.399 189.137 171.984 188.097 172.285L187.51 175.06L186.62 175.308C186.674 175.721 186.917 176.439 186.894 176.81C186.878 177.066 186.626 177.21 186.615 177.427C186.591 177.886 187.324 178.23 186.704 178.997C186.554 179.183 186.029 179.5 185.797 179.561C184.98 179.778 181.945 179.187 181.045 178.901C180.458 178.714 179.524 177.937 179.123 177.863C178.449 177.739 177.633 178.678 177.443 177.511L178.329 177.361L178.426 176.856L176.95 176.855V176.365C177.392 176.332 177.936 176.525 178.259 176.116L177.278 175.872L177.382 175.369L178.424 175.133L177.686 174.398L177.854 174.071L179.57 174.234C179.617 173.846 179.237 173.62 178.917 173.576C179.459 172.07 180.321 174.453 180.499 174.575C180.622 174.659 182.288 175.206 182.454 175.215C183.738 175.283 182.523 173.645 182.506 173.168C182.489 172.688 182.776 172.247 182.677 171.708C182.625 171.422 182.354 171.248 182.343 170.884C182.317 170.117 183.294 168.833 183.179 168.28C183.155 168.164 182.85 168.181 182.835 168.078C182.751 167.486 183.945 166.141 183.939 165.967C183.935 165.859 183.717 165.72 183.694 165.598C183.597 165.075 185.083 163.996 185.466 163.511C185.654 163.274 185.662 162.936 185.816 162.714C186.471 161.766 188.003 161.115 188.987 160.527C189.279 160.55 190.872 162.866 191.274 163.266C191.449 163.44 191.558 163.652 191.85 163.59C190.765 162.16 189.513 160.904 188.757 159.249C188.765 159.133 190.638 158.251 190.827 158.216C191.34 158.122 191.745 158.47 192.172 158.273C192.314 158.209 193.651 156.99 193.809 156.791C194.051 156.487 194.348 156.154 194.304 155.731C193.618 156.339 192.912 157.633 191.967 157.901C191.61 158.002 191.258 157.807 190.826 157.892C190.393 157.977 189.635 158.623 189.282 158.655C188.992 158.68 188.87 158.291 188.622 158.215C187.803 157.962 186.767 159.107 186.036 159.172C185.613 159.209 185.845 158.88 185.789 158.684C185.271 158.463 183.627 159.335 183.411 159.299C183.227 159.267 183.165 158.857 183.007 158.752C182.668 158.526 181.413 159.21 180.922 159.294C179.732 159.5 180.486 158.908 180.07 158.584L179.244 158.679C179.598 157.672 177.319 156.557 176.542 156.535C176.062 156.521 175.627 156.736 175.15 156.714C174.966 156.142 176.288 155.546 176.292 155.323C176.303 154.779 174.932 155.571 174.987 154.833C175.112 154.683 175.282 154.555 175.469 154.496C175.804 154.39 176.532 154.584 176.461 154.176C176.486 153.944 176.273 153.798 176.087 153.723C175.827 153.618 174.97 153.974 175.151 153.523C175.461 152.749 176.585 153.099 176.785 152.699C176.986 152.3 175.84 152.26 175.639 152.292V151.802L178.259 151.8C178.396 151.366 177.81 151.367 177.771 151.307C177.682 151.169 177.916 150.828 178.014 150.823C178.783 150.78 179.652 154.132 181.463 154.411C182.802 154.616 185.221 154.254 186.276 153.35C186.653 153.027 186.702 152.617 187.015 152.288C187.727 151.54 188.562 150.947 189.229 150.165L187.263 151.554C186.56 152.083 186.354 153.044 185.579 153.472C184.805 153.9 183.724 153.972 182.956 153.451C182.735 153.302 182.777 152.924 182.51 152.71C182.108 152.388 181.029 152.343 180.718 152.045C180.539 151.872 180.524 151.513 180.32 151.298C179.954 150.912 179.415 150.641 178.996 150.165C177.745 148.743 176.678 146.179 174.333 146.888C174.174 146.233 174.713 146.36 175.109 146.115C175.895 145.628 174.635 145.296 174.166 145.414V144.923C174.763 145.029 176.314 144.598 175.272 144.064C174.924 143.886 174.374 144.124 174.496 143.615L175.969 143.447C175.791 143.065 175.428 142.764 174.987 142.792C175.344 141.368 177.338 143.473 177.854 143.444C178.454 143.41 177.442 142.451 177.608 142.303C178.668 142.253 178.614 143.501 179.154 144.112C179.532 144.54 180.188 144.698 180.542 145.016C181.066 145.488 181.463 146.279 182.293 146.704C182.755 146.942 183.181 146.83 183.624 147.01C183.992 147.16 184.627 147.932 184.931 148.009C185.22 148.083 185.466 147.89 185.694 147.913C186.028 147.946 186.192 148.386 186.652 148.335C186.853 148.313 188.293 147.887 188.414 147.788C188.84 147.439 187.824 147.375 187.923 146.971C188.06 146.691 188.994 146.55 188.904 146.152C188.754 145.493 187.086 146.463 186.652 146.524C185.348 146.708 184.399 145.908 185.384 144.761L186.12 145.412L186.122 144.595C186.679 144.407 186.463 145.353 186.706 145.422L187.266 145.411L187.104 144.595C187.662 144.397 187.397 145.421 187.837 145.248C188.647 144.928 188.044 143.102 187.516 143.114C187.275 143.12 187.064 143.491 186.704 143.457C186.62 143.45 186.579 142.992 186.202 143.016L185.36 143.595C184.739 143.221 184.518 143.09 183.775 143.269L182.85 140.998C182.963 140.843 185.982 139.968 186.448 139.764C187.067 139.492 187.504 138.978 188.212 138.744C189.428 138.344 190.541 138.493 191.726 138.329C192.744 138.188 194.879 136.826 195.26 138.655C195.425 139.448 194.818 139.881 194.47 140.498L194.469 140.499ZM193.161 140.337C193.922 140.209 195.16 139.437 194.716 138.535C194.216 137.519 192.5 138.447 192.749 139.353C193.159 138.021 195.104 138.266 194.317 139.448C193.964 139.977 193.135 139.744 193.161 140.337ZM190.539 141.811C190.742 141.079 190.641 140.293 189.843 139.97C189.419 139.798 187.189 139.689 187.104 140.094C187.907 141.641 188.988 141.653 190.54 141.811H190.539Z" fill="#134197"/>
<path d="M190.867 138.043C190.861 137.278 192.549 136.909 192.668 137.474C192.786 138.039 191.209 137.893 190.867 138.043Z" fill="#134197"/>
<path d="M123.034 221.084C123.917 220.799 124.076 221.909 124.606 222.251C125.059 222.543 125.52 222.465 125.966 222.695C126.158 222.946 125.856 223.542 125.638 223.699C124.677 224.392 124.3 222.95 123.652 222.864C123.356 222.824 121.63 223.41 122.021 222.54C122.093 222.381 122.949 221.111 123.034 221.084Z" fill="#134197"/>
<path d="M107.37 212.389C107.897 214.307 107.359 216.285 106.833 218.155C106.607 218.957 106.293 219.799 105.979 220.573C105.241 220.587 106.428 217.804 106.505 217.5C106.902 215.942 107.493 214.195 106.903 212.65L107.37 212.388V212.389Z" fill="#134197"/>
<path d="M100.002 211.57L98.7802 213.212L97.0571 214.025C96.9662 213.725 97.3051 213.636 97.3419 213.432C97.4148 213.027 96.8942 212.519 97.6194 212.051C98.1998 211.677 98.5428 212.132 99.0643 212.036C99.4367 211.968 99.6111 211.537 100.002 211.57ZM98.3652 212.389C97.9526 212.348 97.8126 212.65 97.8765 213.043L98.3431 212.858L98.3652 212.389Z" fill="#134197"/>
<path d="M127.42 221.257C128.705 221.433 129.623 222.666 128.898 223.85C128.338 224.025 128.016 222.833 127.809 222.486C127.56 222.069 126.783 221.73 127.42 221.258V221.257Z" fill="#134197"/>
<path d="M98.4478 208.458C98.8825 208.545 99.5505 209.063 99.3467 209.604C98.8178 209.377 98.5297 208.938 97.919 208.825C97.1717 208.687 96.1017 209.227 96.0739 208.458C96.7828 208.554 97.7872 208.327 98.4478 208.458Z" fill="#134197"/>
<path d="M95.0916 216.32L94.4368 217.299L95.582 216.974C95.7039 217.893 94.1453 218.089 93.962 217.351C93.8081 216.96 94.8092 216.096 95.0916 216.32Z" fill="#134197"/>
<path d="M132.746 223.523C132.38 223.566 131.397 223.62 131.603 222.952C131.776 222.387 132.969 222.808 132.746 223.523Z" fill="#134197"/>
<path d="M139.321 169.539C138.989 168.791 138.438 168.538 137.659 168.34C138.023 169.84 138.232 171.375 138.149 172.924C137.383 172.549 136.662 172.252 135.777 172.256C134.873 172.259 134.375 172.68 133.566 172.924C133.463 171.536 133.68 170.192 133.894 168.831C132.244 168.282 131.089 170.151 132.186 171.438C132.398 171.687 132.826 171.79 132.985 172.113C133.179 172.505 133.096 173.404 133.403 173.661C133.464 173.712 134.697 174.222 134.769 174.208L135.375 173.497L134.875 173.007C135.956 172.387 137.355 172.786 138.089 173.726L138.476 173.58C138.588 173.084 138.548 172.346 138.682 171.902C138.991 170.868 140.027 171.13 139.32 169.54L139.321 169.539ZM132.339 169.813C132.41 170.458 132.772 170.903 133.074 171.448C132.837 171.679 131.644 170.137 132.339 169.813ZM133.073 170.304C132.366 169.841 132.81 169.394 133.4 169.158L133.073 170.304Z" fill="#134197"/>
<path d="M219.436 -3.57245e-05H36.3164L36.3098 150.905C37.5574 192.111 67.0227 225.484 101.367 244.676C108.826 248.844 119.651 254.131 127.966 255.898C130.076 256.347 132.585 255.189 134.634 254.475C157.693 246.448 178.788 230.845 194.554 212.554C208.574 196.289 218.164 175.489 219.69 153.853L219.692 0.564095L219.438 -0.000854492L219.436 -3.57245e-05ZM39.9247 6.13417C39.8961 4.94123 39.1094 3.75565 40.9734 3.59599C41.9745 3.51002 43.3137 3.77203 44.4278 3.77448C50.4863 3.78758 56.6675 3.47809 62.7497 3.77366C65.695 3.91695 68.1393 3.93578 71.0887 3.74992C73.2375 3.61482 75.4125 3.80969 77.6629 3.7753C95.7964 3.49856 113.979 3.62629 132.181 3.59599C140.764 3.58207 182.401 3.72863 185.218 3.73436C195.375 3.75647 205.617 3.47645 215.825 3.61319C217.407 4.02503 216.704 4.87163 216.734 5.81485C216.873 10.124 216.832 14.4307 216.89 18.7579C216.896 19.173 217.302 20.2645 216.63 20.461C216.336 20.5469 215.439 19.6864 215.041 19.4613C213.394 18.5295 212.274 17.7967 210.785 16.6774C209.147 15.446 207.279 13.6955 205.028 13.7438C203.631 13.7741 203.567 14.782 202.538 15.1971C201.401 15.6564 200.077 15.5148 198.85 16.0928C197.763 16.6038 193.849 19.8608 192.947 19.6307C192.652 19.5554 192.422 18.9512 192.112 19.0036L191.424 20.1547C190.689 20.3152 190.154 19.0404 189.546 18.5983C188.805 18.0595 187.275 17.2891 186.383 17.3775C185.181 17.497 183.225 18.4239 182.02 18.1005C181.149 17.8671 180.964 16.8281 179.741 17.6133C178.258 18.5655 180.467 18.8578 180.375 19.3843C180.334 19.6217 178.743 20.7991 178.588 20.6337C178.927 19.3827 178.75 17.7173 179.161 16.5423C179.402 15.8554 181.413 14.1008 180.225 13.5113C178.755 12.7817 177.972 15.4026 177.345 16.363C176.827 17.1572 176.078 17.759 175.722 18.6695L175.233 18.8324C174.586 18.6408 175.615 16.8887 175.836 16.4908C176.356 15.5492 177.728 13.9567 178.052 13.1404C178.361 12.3642 178.13 11.7689 178.331 11.127C178.449 10.7512 179.241 10.1519 179.241 9.90787V7.28782L178.857 7.06265C178.072 7.12406 177.754 9.6254 176.79 9.92589C175.413 10.3549 176.045 7.41554 174.173 8.60603C173.156 9.25204 172.366 10.395 172.988 11.579C173.094 11.7812 174.087 13.4286 174.159 13.517C174.446 13.8674 175.089 13.8298 175.149 14.3218C175.152 14.4971 174.158 16.3033 173.975 16.5947C173.543 17.2817 172.586 17.7975 172.691 18.8324C171.821 18.6408 171.832 17.4209 171.873 16.7045C171.42 16.6381 171.133 17.0467 170.735 17.1319C169.482 17.4021 167.174 15.6761 168.871 14.7689C169.324 14.7828 169.622 15.5721 170.026 15.6925C171.146 16.0265 172.301 13.716 172.171 12.7326C171.381 11.6699 170.867 9.60411 169.733 8.93681C169.166 8.60358 168.55 8.6396 167.939 8.11068C166.996 7.29273 167.617 6.42402 165.736 6.54601C165.492 6.56157 165.241 6.63444 165.021 6.7376C164.613 8.59293 166.153 8.55445 167.208 9.33474C167.629 9.64669 168.868 10.901 168.927 11.3866C168.968 11.7403 168.882 11.5732 168.699 11.6437C167.628 12.0563 167.161 11.4537 166.144 11.4627C165.8 12.7678 167.483 13.6619 166.553 14.8991C166.001 14.4791 165.976 13.7798 165.624 13.2116C165.236 12.5861 164.465 11.4635 164.016 10.8904C163.661 10.4376 162.023 8.56591 161.649 8.34239C160.778 7.82083 160.475 9.20864 160.609 9.87185C160.983 10.4188 164.361 13.1633 163.52 13.7512C162.537 13.5481 161.856 13.359 160.817 13.422C159.058 13.5293 157.42 13.8216 155.582 13.9018C154.717 13.9395 154.7 14.4807 154.084 14.8753C151.098 16.788 148.128 19.0175 145.759 21.7775C144.997 22.6643 142.967 26.4707 141.584 25.629C141.113 24.5835 140.136 23.7762 139.207 23.0941C138.546 22.6078 136.919 21.5565 136.185 21.3493C135.904 21.2699 135.538 21.6637 134.959 21.6261C134.12 21.5712 133.93 20.8065 133.247 20.7017C131.757 20.4724 129.75 20.822 128.258 20.619C127.316 20.4904 126.657 19.7667 125.778 19.4965C125.109 19.2909 123.007 18.934 122.35 18.988C122.167 19.0027 120.197 19.7904 119.987 19.9091C119.498 20.1842 119.185 20.9481 118.548 21.0922C117.938 21.2298 117.397 20.9678 116.789 20.9514C116.331 20.9391 115.861 21.0873 115.497 21.0677C114.13 20.9956 113.972 20.443 112.082 20.8466C110.863 21.107 110.676 21.5966 109.857 21.8955C109.105 22.1697 108.203 22.1362 107.369 22.5185C106.65 22.8477 106.183 23.5715 105.447 23.7074C104.375 23.9047 103.414 23.5264 102.369 23.5764C101.01 23.6419 100.011 23.7156 98.6034 23.736C95.2611 23.7835 93.9284 24.4574 90.9601 25.4293C88.9595 26.0843 86.8762 26.7581 84.8739 27.2019C83.2416 27.5638 82.5589 28.3097 81.2098 28.7772C80.2365 29.1145 79.1863 29.0842 78.2301 29.3995C77.2405 29.7261 75.7752 30.7946 74.959 31.0403C74.3418 31.2253 73.6861 31.0296 73.0787 31.1246C72.6154 31.1975 72.2028 31.6552 71.7649 31.6109C71.4808 31.5823 70.5558 30.6366 70.3913 30.3533C69.4965 28.8181 70.2341 28.317 70.3651 26.9374C70.4535 26.0057 70.1694 25.1894 70.2185 24.3427C70.3176 22.6266 71.6175 20.8867 71.6847 19.0822C71.7551 17.199 70.4609 14.493 70.5231 12.6966C70.5353 12.3412 70.8169 11.5143 71.02 11.2171C71.4325 10.6136 72.0031 10.6906 72.4181 10.3238C73.8916 9.02115 71.0535 8.70428 70.1301 8.85494C69.4425 8.96793 68.6215 9.98156 68.4119 8.58802C68.3055 7.87815 68.5781 4.92731 67.2069 5.26382C66.6331 5.40465 66.6888 7.25015 66.5561 7.89944C66.4776 8.28671 66.1297 8.68791 66.1149 9.1063C66.092 9.78096 66.9933 10.7127 67.0948 11.5421C67.1906 12.3257 67.0285 15.1079 66.1591 15.3633C65.785 15.473 65.3094 15.3658 64.8264 15.5041C64.3287 15.6458 63.9571 16.11 63.4872 16.2934C61.2435 17.1662 59.9574 16.6668 58.001 18.83C56.0789 20.9555 58.2695 21.1807 58.5429 22.3892C58.6166 22.7142 58.6379 23.5076 58.5748 23.8261C58.5028 24.1905 58.1606 24.2854 58.0894 24.649C57.933 25.4424 58.0951 28.9631 59.5105 28.3768C59.8527 28.2352 60.0868 27.8045 60.3847 27.6006C61.8189 26.6189 61.2001 26.9857 62.1799 25.7936C62.8585 24.9683 63.7467 23.9088 64.8698 24.0848C66.2852 24.3067 65.2922 25.7166 65.2922 26.6116C65.2922 27.8667 65.7981 29.1825 65.6205 30.7087C65.4191 32.4346 63.4815 31.6453 62.5205 31.0198C61.2189 30.1716 62.4869 28.462 59.9607 28.8157C58.3432 29.0417 59.5334 31.0878 59.1609 31.6183C58.8081 32.121 56.7952 31.4529 56.2025 31.4447C51.4768 31.3801 46.6888 31.5651 41.9508 31.6003C40.9725 31.6077 40.0754 32.3167 39.91 30.8732C39.7586 22.6356 40.1196 14.3718 39.9198 6.13663L39.9247 6.13417ZM174.824 10.6448L175.477 10.6431L175.479 11.38C174.943 11.6928 174.736 11.1532 174.824 10.6448ZM169.585 12.1177C170.5 11.71 171.1 13.0634 170.55 13.4106C169.904 13.8183 169.405 12.6597 169.585 12.1177ZM111.355 29.6451C111.484 29.6123 111.974 28.3817 112.148 28.1124C112.681 27.2919 114.111 24.8659 114.597 24.3395C114.927 23.9833 115.329 23.9244 115.647 23.5887C116.007 23.2088 116.338 21.9749 117.032 22.3433C117.646 22.67 117.668 24.5311 118.836 24.17C119.482 23.971 119.384 23.0483 119.81 22.5112C120.042 22.2172 120.557 21.92 120.884 21.6203C121.237 21.2961 121.374 20.7344 121.865 20.6354C122.324 20.5428 124.541 21.1299 125.099 21.3248C125.985 21.6334 126.89 22.8747 127.601 22.9222C128.109 22.9566 128.941 22.4399 129.564 22.4277C129.99 22.4195 130.389 22.6127 130.859 22.6053C131.884 22.5889 132.878 22.5063 133.896 22.435C133.905 22.7584 133.896 23.1023 133.682 23.3692C133.429 23.6845 131.997 24.789 131.522 25.218C130.899 25.7797 130.363 26.4503 129.886 26.8572C129.276 27.3779 128.332 27.2862 128.175 28.2573C127.932 29.7581 129.268 30.3615 130.105 29.2046C130.791 28.2565 130.481 27.4524 132.083 27.2535L134.55 24.3182C134.902 24.1069 135.389 24.3321 135.753 24.2109C136.089 24.0988 135.954 23.5469 136.554 23.605C137.713 23.718 138.596 24.8537 139.383 25.5414C140.523 26.537 141.683 26.6795 140.513 28.6446C140.217 29.1424 139.069 30.9125 138.727 31.2793C137.322 32.7851 137.09 31.3015 136.272 31.2924C135.787 31.2867 135.135 31.7804 134.468 31.7813C132.914 31.7821 131.297 31.6183 129.713 31.6109C115.128 31.5422 100.634 31.7485 85.9995 31.6109C85.3708 31.6052 84.7732 31.4038 84.0332 31.4341C82.4852 31.498 80.6458 32.4166 79.2149 31.5225C79.2149 31.3227 80.889 30.9158 81.2336 30.7611C82.9641 29.989 82.2192 29.9161 84.3442 29.6287C86.1304 29.3872 86.7509 28.5013 88.05 27.9175C89.0217 27.4811 90.6024 27.4631 91.7419 27.025C92.4107 26.7679 92.96 26.2611 93.5797 26.0794C95.0916 25.6364 98.294 25.4243 99.914 25.3752C101.899 25.3154 102.946 26.1473 105.286 25.6708C106.292 25.4661 106.48 24.5777 107.046 24.3198C107.662 24.0398 108.817 24.3354 109.828 23.8269C111.036 23.2194 111.521 21.7153 113.353 23.0868C113.779 23.9014 112.257 25.0657 111.795 25.6307C111.469 26.0286 111.265 26.6222 110.975 26.9391C110.653 27.2919 110.022 27.3853 109.898 27.8217C109.577 28.95 110.069 29.966 111.354 29.6443L111.355 29.6451ZM66.9253 27.7496C67.5033 26.2472 66.1599 23.3398 68.5683 23.2521C68.9333 24.6817 68.5494 26.0024 68.5617 27.4369C68.5707 28.4955 69.0324 30.6268 68.6166 31.5676C68.529 31.7665 68.5961 31.778 68.3259 31.7796C66.6323 31.7911 66.9564 28.8738 66.9245 27.7488L66.9253 27.7496ZM60.2177 25.3818L59.7299 24.9699V24.7276H59.9714C60.2284 24.8995 60.2579 25.0788 60.2177 25.3809V25.3818ZM53.2801 195.841C52.8446 195.766 49.4958 189.043 49.0586 188.099C43.5462 176.204 40.5927 163.034 39.9108 149.924L39.919 59.9329H69.2248C69.1159 59.1567 69.4892 58.0924 68.9792 57.4766H40L40.0131 33.7225L216.408 33.978V57.4766H92.4721V59.9329H175.969C174.803 61.7776 173.081 63.2219 171.628 64.8431C151.361 87.4656 130.921 109.942 110.561 132.473C102.502 141.391 94.521 151.096 86.1714 159.661C84.5866 161.287 83.1663 160.812 81.4481 161.978C80.2856 162.768 78.5208 165.101 78.0337 166.424C77.7038 167.32 77.7627 168.256 77.5319 169.033C77.3076 169.788 74.2935 172.593 73.5601 173.412C67.0776 180.65 60.7556 188.134 54.0815 195.195C53.8605 195.428 53.6068 195.776 53.2793 195.84L53.2801 195.841ZM61.5365 208.206C60.1801 206.485 58.8089 204.648 57.5639 202.846C56.8697 201.839 55.1588 199.573 54.7757 198.581C54.7176 198.432 54.6022 198.318 54.7299 198.15C56.9376 195.56 59.3369 193.137 61.6143 190.612C100.909 147.023 140.245 103.403 179.653 59.9346H214.116L70.266 217.781C69.594 217.899 62.4615 209.38 61.5365 208.206ZM196.106 123.961L190.131 120.017C189.822 119.997 189.599 120.077 189.332 120.216C188.341 120.732 186.734 122.224 185.68 122.948C185.47 123.092 184.098 124.074 183.992 123.96L186.052 117.077C185.726 115.882 180.988 113.849 180.389 112.336L187.493 112.152C188.427 111.57 189.361 106.636 189.969 105.455C190.246 105.42 190.294 105.664 190.386 105.856C190.893 106.909 192.113 111.883 192.546 112.291C193.135 112.846 198.778 112.495 199.917 112.503C199.248 113.144 194.286 116.493 194.173 116.873C193.868 117.902 196.495 123.542 196.106 123.961ZM141.422 165.148C141.512 166.233 141.416 167.287 141.18 168.34C140.895 169.619 139.331 172.63 138.477 173.579C138.431 173.63 138.477 173.847 138.219 174.05C136.852 175.121 134.017 174.937 132.912 173.496C132.238 172.617 131.761 172.113 131.107 171.325C130.155 170.178 129.938 167.919 130.02 166.478C130.109 164.932 131.608 163 130.53 161.467C130.245 161.061 129.727 160.934 129.492 160.541C128.918 159.587 129.381 157.617 129.796 156.624C130.892 153.999 131.524 158.453 132.524 158.473C133.014 158.483 133.577 157.77 134.052 157.606C135.588 157.075 137.081 157.675 138.525 158.164C139.566 157.46 139.994 156.48 140.526 155.401C141.68 156.104 142.354 157.686 142.002 159.009C141.813 159.722 140.656 160.749 140.611 161.384C140.552 162.208 141.333 164.088 141.421 165.146L141.422 165.148ZM137.004 180.866C136.981 181.049 136.391 183.04 136.022 182.584C136.05 181.887 135.869 181.193 135.697 180.528C135.627 180.257 135.864 180.048 135.367 180.13C135.339 180.746 135.417 181.376 135.347 181.992C135.326 182.18 135.292 182.84 134.96 182.747C134.353 182.502 133.883 180.197 133.878 179.555C133.873 178.819 134.176 178.156 133.893 177.345L137.167 177.51C137.249 177.569 137.004 177.718 137.004 177.754C137.004 178.703 137.114 179.971 137.004 180.865V180.866ZM94.7642 202.237C96.2237 202.481 96.0633 203.713 96.4849 204.69C96.6207 205.005 97.7013 206.682 97.5466 206.82L96.2597 206.799C95.7645 205.293 95.8701 203.481 94.7642 202.237ZM95.7399 207.394L95.23 208.099H94.7904C94.2886 207.224 93.5486 206.654 93.7827 205.511C94.192 205.092 95.3118 207.228 95.7399 207.394ZM136.378 214.406C137.418 216.914 136.634 218.983 137.248 221.396C137.524 222.482 137.848 222.543 138.289 223.302C139.121 224.735 138.276 227.724 138.476 229.501C138.566 230.291 139.411 231.43 139.274 231.922C139.225 232.099 136.861 233.838 136.515 233.933C135.868 234.111 135.29 233.752 135.713 233.125C136.019 232.672 136.878 232.334 137.202 231.664C137.403 231.248 137.662 229.843 137.625 229.383C137.592 228.968 136.274 225.701 136.026 225.402C135.867 225.209 133.661 224.008 133.505 224.037C133.085 224.214 133.117 224.723 132.836 225.004C132.524 225.317 131.903 225.387 131.51 225.806C130.742 226.625 130.006 228.18 129.234 228.933C127.777 230.35 125.899 231.376 124.556 232.934C124.255 233.283 124.072 234.411 123.64 234.484C123.427 234.521 123.016 234.083 122.956 233.886C122.645 232.854 123.339 232.915 123.748 232.454C124.436 231.68 125.503 230.548 126.276 229.906C126.67 229.579 127.224 229.507 127.597 229.099C128.095 228.554 128.124 227.576 128.557 227.111C128.873 226.774 129.277 226.834 129.648 226.564C129.96 226.337 131.604 224.436 130.561 224.526C129.714 224.728 129.758 225.825 128.99 226.069C128.038 226.371 126.567 225.561 125.861 226.216C125.76 226.311 124.571 228.372 124.481 228.602C124.245 229.208 124.225 230.365 123.981 230.722C123.612 231.263 122.734 230.786 122.236 231.925C121.414 233.81 122.258 235.912 121.202 237.605C120.787 235.357 120.879 233.602 119.788 231.489C119.616 231.155 119.007 227.566 118.878 227.394C118.492 226.88 118.729 230.359 118.467 230.666C118.223 230.951 117.946 231.385 117.477 231.587C117.14 231.732 116.736 231.654 116.442 231.863C115.634 232.436 115.589 235.889 113.271 233.738C113.188 233.261 115.762 232.207 114.65 231.059C114.185 230.579 111.9 230.675 111.172 230.681L109.332 233.266V236.05L108.756 236.134C108.4 234.204 107.975 232.624 108.016 230.639C108.054 228.734 107.912 226.267 108.228 224.465C108.301 224.049 108.617 223.628 108.81 223.206C109.754 223.229 111.149 222.991 111.459 223.031C111.477 222.878 110.084 221.821 109.775 221.742C109.512 221.676 110.363 222.578 110.002 222.561C109.653 222.544 109.287 222.551 108.961 222.577L107.644 222.565C106.671 222.785 107.748 225.598 106.703 226.379C106.237 226.727 105.082 226.588 104.43 227.052C103.961 227.387 103.643 228.305 102.955 228.526C102.347 228.721 102.014 228.405 101.468 228.502C100.589 230.634 101.464 232.665 99.2681 234.175C98.8383 234.47 98.1753 233.585 98.068 233.229C97.7259 232.094 99.3082 231.228 99.6807 230.163C99.8951 229.549 99.7535 229.09 99.8706 228.552C100.047 227.734 100.844 227.863 101.297 227.522C101.699 227.22 102.128 226.249 102.794 225.744C103.53 225.185 106.184 224.037 106.214 223.116C106.261 221.688 101.674 218.073 100.831 216.705C100.757 216.28 102.337 215.505 102.127 214.845C101.392 215.1 101.272 215.754 100.604 216.186C99.7453 216.74 98.7082 216.737 97.7872 217.135C97.4868 216.859 98.0377 215.697 97.4647 215.665C96.8172 216.498 98.0042 218.23 96.4447 218.576C94.5309 219 93.1376 218.175 92.6972 216.313C93.1172 215.663 93.6722 215.258 94.0733 214.566C94.5816 213.69 94.4703 212.789 95.4125 212.47C93.673 211.743 94.9091 211.095 95.1808 209.943C95.4109 208.967 95.0916 208.161 96.1525 207.476C97.1373 206.84 100.165 206.986 101.123 207.826L101.116 208.174C99.9606 209.927 101.477 209.453 102.524 209.618C104.258 209.89 104.985 209.661 106.464 209.768C107.267 209.826 108.242 210.265 109.087 210.273C110.32 210.286 111.909 209.957 113.171 209.925C117.103 209.821 121.142 210.572 125.137 210.266C127.691 210.07 129.737 208.729 132.479 209.789C133.464 210.169 134.231 211.09 135.16 211.528C139.586 213.614 140.541 208.582 136.561 206.524C133.363 204.871 128.736 204.924 125.341 205.887C122.285 206.754 119.497 208.89 116.208 207.803C116.407 207.156 118.183 207.639 118.337 207.477V206.988L117.026 206.986L117.125 206.481C118.417 205.528 119.802 207.027 120.861 206.978C121.597 206.943 123.498 206.023 124.395 205.76C125.466 205.444 126.867 205.019 127.96 204.903C131.285 204.554 138.12 205.157 139.374 208.954C140.249 211.606 137.743 213.471 135.365 212.392C135.228 212.54 136.224 214.043 136.376 214.408L136.378 214.406ZM104.017 208.621C105.079 208.66 106.042 208.684 107.043 208.296C106.491 209.243 105.506 209.473 104.496 209.609L100.99 208.868C101.735 207.981 103.129 208.588 104.018 208.621H104.017ZM101.314 207.314C101.751 207.179 102.368 206.942 102.737 206.69C104.409 205.55 103.502 202.578 105.733 201.909C105.516 202.651 104.835 202.805 104.578 203.618C104.066 205.235 104.884 206.155 103.198 207.642C102.517 208.242 101.608 208.227 101.313 207.314H101.314ZM163.76 235.084C162.866 235.614 159.872 237.714 157.96 238.509C157.865 238.548 157.96 232.204 157.96 232.204C157.96 232.204 165.936 231.827 167.87 231.985C168.286 232.018 164.315 234.754 163.76 235.083V235.084ZM172.695 228.341C172.424 228.394 157.96 228.417 157.96 228.417V223.686L178.613 223.523C177.118 225.348 173.03 228.276 172.695 228.34V228.341ZM182.6 219.757H157.96V214.845H187.429C185.881 216.545 184.377 218.283 182.6 219.757ZM181.772 197.17C182.767 197.33 183.591 198.384 184.481 198.797C184.645 198.616 183.595 197.616 183.417 197.488C180.552 195.408 177.884 197.772 177.034 200.597C176.853 200.519 176.539 199.317 176.359 198.979C174.658 195.771 171.571 196.121 169.258 198.469C169.627 195.819 171.161 194.066 174.012 194.614C175.767 194.951 176.083 196.244 177.033 197.483C178.223 195.664 179.134 194.218 181.603 194.554C182.904 194.731 184.183 196.105 184.566 197.32C184.655 197.603 185.017 199.561 184.485 199.372C180.983 196.557 179.773 199.174 179.203 202.524C178.829 202.851 175.25 202.817 174.819 202.484C174.517 201.187 174.249 198.612 172.697 198.215C171.687 197.956 170.177 198.881 169.337 199.449C169.179 199.383 169.229 198.942 169.291 198.828C169.36 198.701 171.433 197.344 171.716 197.244C174.899 196.109 176.546 199.621 176.788 202.235H177.278C177.183 199.885 179.113 196.743 181.771 197.168L181.772 197.17ZM173.961 209.643C174.217 209.059 174.863 206.407 175.146 206.235C176.447 206.756 177.721 206.55 179.064 206.343C179.173 206.421 179.718 208.522 179.869 208.896C180.263 209.877 180.952 210.615 181.206 211.565C180.122 212.242 173.583 212.285 173.091 211.575C172.78 211.127 173.764 210.09 173.961 209.642V209.643ZM173.203 203.397C174.928 203.778 176.549 204.031 178.34 203.871C178.872 203.823 180.305 203.337 180.603 203.408C181.424 203.603 181.049 205.109 180.109 205.313C178.778 205.603 175.255 205.653 173.959 205.311C173.197 205.109 172.818 204.083 173.203 203.397V203.397ZM204.865 191.1H155.504C155.504 191.1 155.938 236.002 155.83 240.012C155.83 240.012 154.796 241.026 153.631 241.637C152.724 242.113 151.36 242.935 151.36 242.935C151.36 241.008 151.084 191.1 151.084 191.1H98.2023C98.1311 190.815 98.3202 190.773 98.447 190.608C99.318 189.471 100.766 188.285 101.722 187.17H150.838L151.084 186.925V133.05L155.339 128.383V187.007H206.911L204.865 191.1ZM215.562 160.206C214.508 167.28 211.944 177.138 208.741 183.514C208.558 183.88 208.397 184.416 208.017 184.596L157.96 184.55V145.331C160.968 141.915 165.529 136.068 170.728 137.964C171.604 138.283 173.439 139.615 174.207 139.491C174.978 139.367 175.479 138.481 175.909 137.902C177.201 136.159 179.873 131.055 181.38 130.109C183.37 128.859 186.907 132.648 188.525 133.755C189.91 134.704 191.481 135.621 193.246 135.427C193.958 135.35 194.747 134.78 195.542 134.763C196.986 134.731 197.555 135.931 198.272 136.941C198.917 137.848 199.698 139.493 200.385 140.233C200.491 140.347 200.527 140.532 200.745 140.482L211.714 128.914C212.76 128.969 215.812 132.189 216.373 133.246C216.315 142.28 216.896 151.252 215.562 160.203V160.206ZM216.998 30.4606C216.938 30.9281 216.746 31.6724 216.172 31.6134C211.801 31.5954 207.43 31.6036 203.059 31.6109C195.066 31.624 186.992 31.6077 179.006 31.6109C166.578 31.6159 154.103 31.484 141.694 31.7452L141.449 31.4996C141.4 31.2916 141.409 31.082 141.422 30.8708C141.519 29.2463 146.837 22.8444 148.213 21.4435C149.251 20.3873 150.68 19.5448 151.661 18.6695C151.951 18.4108 152.066 17.9293 152.281 17.7345C152.695 17.3595 153.647 17.3161 154.095 17.0099C154.49 16.7397 155.04 15.4223 155.813 15.9045C156.518 16.3442 155.283 20.7664 154.857 21.5376C154.566 22.0658 151.233 25.0674 152.664 25.5308C152.96 25.6037 153.19 25.4923 153.44 25.358C153.593 25.2761 155.656 23.6861 155.746 23.5723C156.139 23.0778 157.448 19.2426 157.562 18.5107C157.727 17.4536 157.135 16.083 158.034 15.7072C159.046 15.2831 162.598 15.4943 163.7 15.7948C163.913 15.8529 166.785 17.226 167.023 17.384C167.534 17.7246 167.988 18.4796 168.485 18.7047C169.119 18.9921 169.969 18.8775 170.578 19.0682C171.023 19.2074 171.55 19.8665 172.002 19.9542C172.492 20.0491 172.803 19.5497 173.586 19.6569C174.114 19.729 174.436 20.176 174.784 20.2653C175.196 20.3701 175.636 20.2268 176.021 20.3373C176.616 20.5085 177.095 21.4443 178.264 20.7958C178.487 21.0276 176.895 22.9467 176.636 23.1776C175.826 23.9031 174.824 23.5469 174.982 24.9765C175.028 25.3916 175.132 25.6208 175.57 25.7044C176.811 25.9426 176.802 25.0109 177.436 24.468C177.774 24.1782 178.294 24.0816 178.674 23.741C179.317 23.1637 180.556 21.5205 181.284 21.1119C181.743 20.8548 182.118 21.0497 182.519 20.8736C182.937 20.691 183.207 19.8977 183.746 19.8117C184.241 19.9124 183.907 22.3286 183.755 22.765C183.479 23.5649 182.349 23.5289 182.198 24.3182C181.803 26.3888 183.526 26.3004 184.248 25.06C184.504 24.6211 185.641 22.0477 185.721 21.6203C185.853 20.9129 185.574 19.2656 186.403 19.0191C187.298 18.753 188.191 19.9902 188.852 20.4389C190.046 21.2494 191.424 22.2311 192.919 21.9421C193.313 21.866 193.334 21.4623 193.697 21.247C194.183 20.9596 194.901 20.9596 195.511 20.6043C196.558 19.9918 198.752 17.8786 199.707 17.5961C200.082 17.4847 201.575 17.2833 201.923 17.3529C202.379 17.4438 202.646 18.4656 203.461 18.1586C203.886 17.3054 203.588 15.9037 204.85 15.8906C205.444 16.065 204.7 17.7648 204.491 18.125C204.366 18.3412 203.173 19.8805 203.047 19.9558C202.49 20.2898 201.648 20.1818 201.12 20.4839C200.765 20.6869 200.661 21.1201 200.373 21.3747C199.42 22.2172 197.791 21.753 196.688 21.7735C195.714 21.7915 194.487 22.1747 193.496 22.2754C193.547 24.3256 195.376 23.7745 196.683 23.7434C197.758 23.718 199.32 23.9186 200.262 23.3922C200.618 23.1932 200.825 22.7584 201.231 22.5603C201.804 22.2811 202.631 22.3883 203.078 22.1157C203.332 21.961 203.488 21.4861 203.714 21.2781C204.725 20.3537 205.975 19.4351 206.35 18.0194C206.45 17.642 206.385 16.1739 206.97 16.2247C207.256 16.2492 207.641 16.7569 207.945 16.8969C209.704 17.7083 209.306 17.5396 210.762 18.6646C212.523 20.0262 214.433 20.818 216.304 21.9642C217.464 22.6749 216.909 23.664 216.894 24.6359C216.869 26.3029 217.184 28.9999 216.999 30.4589L216.998 30.4606Z" fill="#134197"/>
<path d="M115.709 222.706C114.988 223.546 112.124 223.304 111.707 222.706H115.709Z" fill="#134197"/>
<path d="M108.994 219.77L109.171 220.411L108.696 220.397L108.517 219.758L108.994 219.77Z" fill="#134197"/>
<path d="M116.276 221.771L116.805 221.626L116.374 219.922H116.049L115.888 221.879C115.862 222.199 116.16 223.124 116.618 223.031C117.117 222.931 116.658 222.081 116.276 221.771Z" fill="#134197"/>
<path d="M139.132 161.294L138.318 161.875C138.208 162.177 138.628 162.138 138.788 162.371C139.17 162.927 138.829 163.361 138.62 163.895C136.657 164.07 137.558 161.39 138.559 160.645L139.132 161.293V161.294Z" fill="#134197"/>
<path d="M131.438 161.298C132.287 160.955 133.824 162.816 133.695 163.486C132.815 164.825 131.749 163.659 132.345 162.437C131.87 162.004 131.263 162.154 131.438 161.299V161.298Z" fill="#134197"/>
<path d="M136.293 173.113C138.227 172.488 137.378 175.52 136.014 173.498C135.988 173.307 136.123 173.168 136.293 173.113Z" fill="#134197"/>
<path d="M188.53 140.222C188.727 140.462 188.642 141.101 189.307 140.995C189.45 140.97 189.698 138.991 190.213 141.155C189.427 141.151 189.024 141.51 188.292 141.028C187.246 140.338 188.072 139.665 188.53 140.223L188.53 140.222Z" fill="#134197"/>
</g>
<defs>
<clipPath id="clip0_3005_21863">
<rect width="256" height="256" fill="white"/>
</clipPath>
</defs>
</svg>
