<svg width="256" height="256" viewBox="0 0 256 256" fill="none" xmlns="http://www.w3.org/2000/svg">
<path d="M229.176 179.28C229.213 179.652 229.199 180.254 229.124 180.618C229.042 181.012 228.953 181.413 228.857 181.807C228.24 184.289 226.909 186.296 224.694 187.805C223.921 186.987 223.156 186.185 222.353 185.33C223.869 184.141 224.865 182.699 225.259 180.893C225.319 180.603 225.371 180.306 225.348 180.016C225.282 179.176 224.516 178.797 223.906 179.362C223.349 179.875 222.925 180.544 222.472 181.161C221.877 181.971 221.365 182.848 220.725 183.621C219.581 184.995 218.183 185.85 216.288 185.374C214.266 184.869 212.973 183.621 212.468 181.584C211.717 178.567 213.605 174.071 216.34 172.473C217.076 173.335 217.819 174.204 218.815 175.371C218.533 175.512 218.221 175.594 218.012 175.787C217.054 176.679 216.422 177.757 216.132 179.05C216.006 179.63 215.931 180.239 216.533 180.551C217.173 180.878 217.589 180.358 217.931 179.905C218.377 179.31 218.711 178.634 219.187 178.069C220.027 177.08 220.807 175.981 221.84 175.245C224.709 173.216 228.597 175.089 229.094 178.574C229.132 178.857 229.147 178.983 229.176 179.288V179.28Z" fill="#E30613"/>
<path d="M175.186 235.035C176.769 237.576 178.226 239.902 179.749 242.348C178.486 243.121 177.259 243.871 175.921 244.696C173.09 240.073 170.28 235.488 167.418 230.813C168.139 230.367 168.883 229.921 169.552 229.528C169.998 229.312 169.73 229.342 170.51 229.49C174.197 230.241 177.861 231.044 181.54 231.809C181.682 231.839 181.823 231.846 182.172 231.898C180.597 229.386 179.11 227.016 177.586 224.585C178.857 223.805 180.091 223.047 181.414 222.237C184.246 226.867 187.056 231.46 189.91 236.12C189.166 236.58 188.497 237.019 187.799 237.391C187.598 237.495 187.293 237.472 187.048 237.42C183.391 236.677 179.742 235.912 176.085 235.161C175.862 235.116 175.632 235.094 175.171 235.035H175.186Z" fill="#E30613"/>
<path d="M80.9545 226.592C82.6789 227.491 84.3363 228.338 85.979 229.201C86.8188 229.639 87.681 230.048 88.4838 230.546C90.5946 231.854 91.3082 234.016 90.3939 236.134C89.8216 237.465 88.7142 238.067 87.3243 238.349C87.4209 238.557 87.4803 238.721 87.577 238.862C88.5655 240.371 88.6844 241.917 87.6885 243.448C86.6256 245.083 85.0424 245.714 83.162 245.469C82.2403 245.35 81.2964 245.068 80.4565 244.659C78.1152 243.522 75.826 242.273 73.4326 241.025C75.9449 236.201 78.4274 231.438 80.9471 226.584L80.9545 226.592ZM79.1335 239.821C80.1666 240.356 81.066 240.861 82.0025 241.292C82.8201 241.664 83.5485 241.404 83.8978 240.72C84.2546 240.029 84.039 239.3 83.2586 238.84C82.3741 238.319 81.445 237.874 80.4342 237.338C80.0031 238.171 79.5943 238.944 79.1335 239.828V239.821ZM82.1437 234.054C82.9836 234.477 83.7046 234.879 84.4553 235.206C85.0945 235.48 85.6445 235.25 85.9567 234.648C86.2614 234.061 86.0533 233.518 85.5181 233.184C84.8046 232.738 84.0316 232.374 83.2437 231.95C82.8572 232.686 82.5302 233.31 82.1363 234.054H82.1437Z" fill="#E30613"/>
<path d="M187.39 217.243C189.181 215.37 190.854 213.564 192.593 211.817C195.164 209.231 198.413 208.57 201.378 209.952C204.864 211.579 206.997 214.931 206.536 218.484C206.373 219.747 205.838 221.129 205.05 222.118C203.259 224.355 201.2 226.376 199.208 228.532C195.239 224.734 191.337 221.011 187.397 217.243H187.39ZM193.158 216.529C195.358 218.632 197.446 220.632 199.594 222.675C200.865 221.152 202.969 220.119 202.315 217.696C201.727 215.548 200.226 214.091 198.056 213.579C195.603 212.992 194.696 215.206 193.158 216.529Z" fill="#E30613"/>
<path d="M26.3394 180.306C31.453 178.433 36.4775 176.59 41.606 174.71C42.0297 175.854 42.4533 176.947 42.8324 178.047C43.4419 179.808 44.1554 181.547 44.5716 183.353C45.0696 185.538 44.3264 187.426 42.4087 188.674C40.4465 189.952 38.41 190.034 36.3957 188.726C36.2991 188.659 36.195 188.607 36.091 188.555C36.0687 188.54 36.0315 188.548 35.8977 188.526C34.4855 190.391 33.0362 192.294 31.4827 194.33C30.8733 192.68 30.301 191.171 29.7807 189.648C29.7212 189.469 29.8847 189.157 30.0334 188.971C30.8733 187.901 31.6686 186.772 32.6274 185.805C33.6011 184.824 33.6308 183.91 32.7835 182.744C31.2152 183.301 29.5949 183.881 27.8779 184.497C27.3576 183.085 26.8671 181.733 26.3394 180.298V180.306ZM36.3214 181.443C36.7599 182.454 37.087 183.405 37.5701 184.267C37.9863 185.01 38.7444 185.248 39.5769 184.966C40.3648 184.698 40.8925 183.947 40.6918 183.167C40.4465 182.179 40.0452 181.235 39.6884 180.202C38.514 180.633 37.4735 181.019 36.314 181.443H36.3214Z" fill="#E30613"/>
<path d="M72.4515 222.735C71.0393 222.802 69.7758 222.868 68.4751 222.935C68.2224 221.613 67.4568 220.691 66.4683 219.933C65.2419 218.989 63.8743 218.774 62.4472 219.42C60.812 220.163 59.7194 221.434 59.266 223.158C58.8498 224.734 59.3701 226.087 60.5965 227.149C61.6742 228.078 62.8857 228.509 64.2905 227.974C64.4466 227.915 64.5878 227.803 64.8777 227.64C64.0898 226.926 63.354 226.257 62.5364 225.514C63.3317 224.6 64.0972 223.716 64.952 222.735C66.9291 224.481 68.8764 226.191 70.8089 227.892C68.2001 232.144 62.6776 234.091 57.9356 229.736C56.0477 228.004 54.8659 225.923 54.8064 223.285C54.7024 218.476 60.5296 212.256 67.1372 215.912C69.4339 217.183 71.1657 219.019 72.1245 221.508C72.2583 221.858 72.3252 222.237 72.459 222.735H72.4515Z" fill="#E30613"/>
<path d="M49.5589 194.018C50.436 195.311 51.2387 196.508 52.0711 197.741C49.4103 199.547 46.8014 201.294 44.2074 203.07C42.483 204.252 42.1337 205.953 43.2412 207.514C44.2743 208.971 45.9318 209.246 47.5447 208.176C49.9677 206.57 52.3685 204.928 54.7766 203.3C54.9922 203.152 55.2152 203.01 55.505 202.825C56.3375 204.043 57.1476 205.24 58.0024 206.503C57.7051 206.719 57.4524 206.912 57.1922 207.091C54.8064 208.703 52.4279 210.316 50.0346 211.921C47.173 213.839 44.0662 213.638 41.5911 211.238C39.3242 209.045 38.0234 206.437 38.7444 203.167C39.0417 201.806 39.8667 200.759 40.9147 199.889C41.1675 199.681 41.435 199.495 41.7026 199.317C44.2817 197.57 46.8609 195.831 49.544 194.018H49.5589Z" fill="#E30613"/>
<path d="M216.147 208.488C211.435 205.731 206.811 203.025 202.092 200.268C204.128 196.775 206.128 193.356 208.172 189.856C209.242 190.48 210.26 191.067 211.368 191.714C210.097 193.899 208.855 196.039 207.562 198.247C208.313 198.685 208.997 199.086 209.725 199.51C210.877 197.555 211.985 195.668 213.129 193.721C214.199 194.345 215.21 194.939 216.31 195.579C215.173 197.541 214.073 199.421 212.929 201.39C213.687 201.836 214.393 202.252 215.203 202.728C216.511 200.498 217.797 198.313 219.112 196.069C220.183 196.693 221.201 197.288 222.301 197.934C220.25 201.45 218.221 204.92 216.132 208.488H216.147Z" fill="#E30613"/>
<path d="M166.623 248.917C165.151 249.363 163.806 249.809 162.431 250.151C162.186 250.211 161.755 249.898 161.547 249.646C160.536 248.412 160.551 248.405 159.034 248.858C157.786 249.237 156.552 249.661 155.288 249.973C154.575 250.151 154.359 250.5 154.352 251.199C154.337 252.871 154.5 252.507 152.925 253.02C151.914 253.347 150.888 253.622 149.721 253.964C149.892 252.195 150.048 250.53 150.219 248.858C150.606 245.053 151.022 241.255 151.379 237.45C151.446 236.729 151.639 236.32 152.39 236.164C153.252 235.986 154.084 235.637 154.954 235.443C155.221 235.384 155.675 235.488 155.838 235.681C159.413 240.036 162.959 244.406 166.616 248.91L166.623 248.917ZM154.761 246.279C155.994 245.907 157.028 245.595 158.187 245.246C157.161 243.901 156.225 242.667 155.281 241.433C155.221 241.471 155.154 241.5 155.095 241.538C154.991 243.054 154.879 244.57 154.761 246.279Z" fill="#E30613"/>
<path d="M103.453 243.321C104.888 241.53 106.248 239.888 107.534 238.201C108.106 237.428 108.098 237.353 109.05 237.673C110.239 238.015 111.399 238.349 112.714 238.699C111.332 240.237 110.053 241.671 108.767 243.106C107.519 244.495 106.248 245.87 105.021 247.282C104.724 247.624 104.494 248.063 104.36 248.501C103.936 249.95 103.579 251.415 103.163 253.005C101.714 252.626 100.302 252.262 98.83 251.883C99.2165 250.396 99.6104 249.007 99.9151 247.602C100.049 246.993 100.094 246.309 99.9672 245.699C99.2165 242.169 98.4063 238.646 97.611 235.124C97.5961 235.042 97.5813 234.96 97.5367 234.73C98.9786 235.109 100.45 235.451 101.818 235.874C102.041 235.941 102.219 236.409 102.271 236.722C102.606 238.617 102.903 240.519 103.215 242.422C103.26 242.675 103.342 242.912 103.446 243.329L103.453 243.321Z" fill="#E30613"/>
<path d="M128.902 239.798C130.448 239.672 131.831 239.561 133.355 239.442C133.689 243.604 134.016 247.721 134.351 251.957C136.588 251.801 138.728 251.645 141.01 251.481C141.114 252.715 141.218 253.874 141.33 255.13C137.613 255.42 133.964 255.703 130.173 255.993C129.742 250.552 129.326 245.216 128.902 239.791V239.798Z" fill="#E30613"/>
<path d="M56.6199 0.252671H60.6336C60.6336 0.601972 60.6113 7.43934 60.6336 10.5607C60.6633 13.4741 63.1086 15.228 65.7993 14.3064C67.3453 13.7788 68.2 12.4782 68.2074 10.5459C68.2223 7.49136 68.2074 4.42941 68.2074 1.37489C68.2074 1.02559 68.2074 0.676291 68.2074 0.274967C69.6122 0.274967 71.0021 0.289831 72.3177 0.289831C72.3549 0.453333 72.3772 7.78864 72.2062 11.3114C72.0278 14.9902 69.5676 17.4055 65.8736 17.7846C63.9411 17.9852 62.0309 17.8663 60.2322 16.9522C57.9653 15.8003 56.7017 13.92 56.6125 11.4303C56.4936 7.81094 56.5902 0.423605 56.5976 0.245239L56.6199 0.252671Z" fill="#E30613"/>
<path d="M81.9058 15.6441C82.3741 14.8043 82.8869 13.8828 83.3329 13.1024C84.5147 13.5483 85.6073 14.1206 86.7668 14.3436C87.7553 14.5368 88.8405 14.4476 89.8365 14.2544C90.2898 14.1652 90.8027 13.5781 90.9811 13.1024C91.2338 12.441 90.7581 11.8687 90.1412 11.6235C89.0709 11.1998 87.956 10.8877 86.8708 10.5161C86.0309 10.2263 85.1613 9.99588 84.3735 9.60198C81.2146 8.04871 80.7166 3.93143 83.3998 1.62753C85.3694 -0.0595152 87.7182 -0.178426 90.1263 0.148579C91.7021 0.356672 93.1291 0.96609 94.4521 1.9917C93.8501 2.94298 93.2926 3.84224 92.6906 4.79353C91.3007 3.84968 89.8439 3.28485 88.1715 3.3666C86.8931 3.43349 86.0161 3.91656 85.912 4.69692C85.8005 5.47727 86.358 6.04953 87.681 6.49544C89.1378 6.98595 90.6615 7.33525 92.044 7.97439C95.3886 9.5351 96.3623 13.1247 94.1102 15.6516C93.3967 16.4468 92.3338 17.1008 91.3081 17.4129C88.3053 18.3196 85.3917 17.9629 82.7011 16.2387C82.5004 16.1124 81.9876 15.7482 81.9058 15.6441Z" fill="#E30613"/>
<path d="M99.707 17.8514C98.3319 17.8366 97.2244 16.7218 97.2319 15.3543C97.2393 13.9571 98.3988 12.8572 99.8259 12.8795C101.201 12.9092 102.294 14.0463 102.249 15.4138C102.204 16.7887 101.089 17.8589 99.7144 17.844L99.707 17.8514Z" fill="#E30613"/>
<path d="M79.5199 15.3766C79.5199 16.7886 78.4719 17.844 77.0671 17.8514C75.6326 17.8514 74.5623 16.7738 74.5772 15.3171C74.5921 13.9199 75.6698 12.8794 77.082 12.8869C78.4793 12.8943 79.5199 13.9645 79.5199 15.3766Z" fill="#E30613"/>
<path d="M103.126 77.448C103.557 76.415 103.966 75.4043 104.39 74.4009C110.633 59.5966 116.876 44.7922 123.098 29.9803C123.38 29.3115 123.722 29.0662 124.458 29.0811C127.431 29.1257 130.396 29.1182 133.369 29.0811C133.979 29.0811 134.232 29.2892 134.462 29.8317C140.668 44.6807 146.889 59.5297 153.118 74.3712C153.267 74.7205 153.423 75.0773 153.646 75.5901C153.906 75.2556 154.107 75.0252 154.278 74.78C159.257 67.571 164.222 60.362 169.217 53.1679C169.648 52.5511 169.626 52.1423 169.202 51.5404C164.208 44.4206 159.243 37.2785 154.27 30.1364C154.069 29.8466 153.869 29.4527 153.609 29.0662C153.988 29.0662 162.074 29.0959 165.932 29.0662C166.512 29.0662 166.839 29.252 167.151 29.7351C169.901 33.9639 172.673 38.1852 175.438 42.3991C175.617 42.6666 175.81 42.9268 176.085 43.3132C176.873 42.1167 177.601 41.0093 178.322 39.8945C180.507 36.5353 182.707 33.1835 184.87 29.8168C185.212 29.2817 185.569 29.0588 186.216 29.0662C190.252 29.0959 194.295 29.0811 198.472 29.0811C198.264 29.4081 198.13 29.6533 197.974 29.8837C192.972 37.0704 187.985 44.2645 182.953 51.4363C182.507 52.0755 182.507 52.4916 182.953 53.1382C188.393 60.964 193.797 68.8047 199.215 76.6528C199.379 76.8906 199.527 77.1433 199.758 77.5075C198.695 77.5075 197.758 77.5075 196.822 77.5075C193.671 77.5075 190.527 77.4926 187.375 77.5224C186.84 77.5224 186.528 77.3514 186.23 76.8981C183.064 72.0153 179.876 67.1548 176.687 62.2869C176.509 62.0194 176.315 61.7592 176.055 61.3951C174.888 63.1936 173.773 64.9029 172.666 66.6123C170.458 70.0235 168.243 73.4348 166.058 76.8683C165.746 77.3589 165.412 77.5224 164.839 77.5224C157.592 77.5001 150.346 77.5001 143.099 77.5224C142.408 77.5224 142.133 77.292 141.902 76.6677C141.107 74.4976 140.23 72.3572 139.412 70.1945C139.204 69.6445 138.929 69.429 138.312 69.429C131.987 69.4513 125.654 69.4513 119.329 69.429C118.705 69.429 118.437 69.6594 118.229 70.2019C117.367 72.4389 116.46 74.6611 115.583 76.8981C115.427 77.2845 115.271 77.5224 114.773 77.5224C110.997 77.5001 107.229 77.5075 103.453 77.5075C103.371 77.5075 103.29 77.4778 103.119 77.4406L103.126 77.448ZM135.354 59.9459C133.176 54.3645 131.058 48.9392 128.947 43.5213C128.873 43.5362 124.458 54.4314 122.287 59.9459H135.354Z" fill="#E30613"/>
<path d="M56.6423 29.1406C56.9693 29.1258 57.2592 29.096 57.5491 29.096C64.2607 29.096 70.9724 29.0217 77.6841 29.1183C84.485 29.2149 90.5054 31.3553 95.1954 36.5131C98.5475 40.1993 100.242 44.6436 100.829 49.5264C101.431 54.5652 100.956 59.5 98.8894 64.1673C95.6934 71.3688 90.0446 75.5307 82.3815 76.9576C80.2707 77.3515 78.078 77.463 75.9226 77.4927C69.865 77.5596 63.8073 77.515 57.7497 77.515C57.4004 77.515 57.0511 77.515 56.6497 77.515V29.1406H56.6423ZM68.1108 38.5866V67.965C68.4825 67.9798 68.7946 68.0096 69.1143 68.0096C71.7826 68.0096 74.4583 68.0096 77.1266 68.0096C81.7646 68.0096 85.1985 65.9063 87.2276 61.8113C89.9257 56.3712 89.9257 50.7526 87.5249 45.2159C86.0384 41.7823 83.3775 39.5676 79.6463 38.765C79.2672 38.6832 78.8882 38.594 78.5091 38.594C75.0752 38.5792 71.6414 38.5866 68.1034 38.5866H68.1108Z" fill="#E30613"/>
<path d="M199.379 8.47974H114.78V15.4732H199.379V8.47974Z" fill="#E30613"/>
<path d="M210.238 96.4663V89.4729H45.523C45.523 91.8437 45.4933 93.4936 45.4933 95.8644H45.523V96.4738H56.2781C56.4193 96.4738 56.5308 96.5852 56.5308 96.7265C56.5456 99.937 56.5605 132.823 56.5308 149.396C56.5308 154.212 56.9767 159.021 58.0396 163.718C63.1087 186.155 76.034 202.609 96.4366 213.066C108.782 219.39 122.035 221.456 135.83 219.948C144.504 219.004 152.709 216.514 160.454 212.516C183.681 200.521 199.148 176.582 199.223 149.047C199.267 132.742 199.238 100.309 199.267 96.7933C199.267 96.615 199.409 96.4812 199.587 96.4812H210.245L210.238 96.4663ZM81.1105 139.155C80.8355 139.155 80.7686 139.23 80.7686 139.319V146.275H84.8566V196.515C84.4404 196.151 84.0836 195.868 83.7565 195.556C73.6184 185.828 67.152 174.041 64.6175 160.054C63.9708 156.487 63.6884 152.86 63.681 149.233C63.6438 138.293 63.6735 127.361 63.6661 116.421C74.4806 116.258 85.5552 126.536 84.8714 139.155H81.118H81.1105ZM155.578 206.905C148.651 210.257 141.345 212.293 133.689 212.977C124.406 213.809 115.345 212.687 106.538 209.595C105.794 209.335 105.809 209.015 105.779 207.774C105.727 205.641 105.72 200.469 105.779 199.525C106.842 200.067 107.823 200.476 108.715 201.026C110.73 202.275 112.595 203.82 114.714 204.846C122.191 208.465 129.549 208.116 136.632 203.679C137.866 202.906 138.996 201.985 140.237 201.234C145.321 198.157 150.494 198.083 155.645 201.034C157.273 201.962 158.767 203.129 160.506 204.311V204.326C158.752 205.247 157.191 206.132 155.586 206.905H155.578ZM105.72 139.192C105.72 139.192 105.705 139.192 105.705 139.178C105.49 127.881 113.561 118.257 124.592 116.503C136.684 114.578 148.123 122.835 150.108 134.956C150.286 136.064 150.316 137.201 150.39 138.323C150.435 139.103 150.242 139.192 149.55 139.207C148.376 139.23 147.417 139.192 146.191 139.192V142.693V146.268H150.294V157.542C149.09 157.542 147.885 157.512 146.689 157.542C142.296 157.653 138.446 159.274 134.923 161.808C132.953 163.227 130.991 164.714 128.553 165.264C124.264 166.237 120.191 165.836 116.475 163.272C115.107 162.328 113.762 161.332 112.328 160.515C110.098 159.244 108.619 158.605 106.53 158.099C105.594 157.876 105.698 157.683 105.698 157.014C105.713 153.744 105.735 150.482 105.698 147.212C105.69 146.453 105.936 146.26 106.664 146.275C107.816 146.297 108.923 146.29 110.128 146.29C110.276 146.29 110.403 146.171 110.403 146.022C110.403 144.729 110.403 139.192 110.403 139.178C108.782 139.178 107.281 139.215 105.713 139.178L105.72 139.192ZM167.954 199.109C167.515 199.465 167.121 199.54 166.668 199.28C165.07 198.38 163.412 197.563 161.911 196.53C159.101 194.59 156.21 192.858 152.813 192.242C146.666 191.119 140.891 191.981 135.666 195.623C134.209 196.641 132.79 197.771 131.199 198.536C126.569 200.773 121.908 200.692 117.397 198.15C115.873 197.295 114.491 196.203 113.026 195.237C110.982 193.884 108.381 192.784 105.988 192.204C105.735 192.145 105.757 191.915 105.757 191.692C105.72 188.54 105.735 182.03 105.735 181.755C106.701 182.246 107.846 182.751 108.73 183.301C110.068 184.133 111.302 185.114 112.647 185.932C120.675 190.822 128.717 190.807 136.729 185.887C137.844 185.203 138.877 184.401 139.962 183.68C144.994 180.343 151.23 180.365 156.292 183.68C158.299 184.995 160.253 186.437 162.394 187.493C167.166 189.848 177.839 188.667 178.225 188.578C178.069 188.845 171.618 196.143 167.961 199.109H167.954ZM188.505 169.938C187.806 171.841 187.026 173.714 186.245 175.587C186.201 175.698 186.119 175.795 186.022 175.862C184.105 177.118 182.113 178.255 180.225 179.563C175.624 182.751 170.726 183.212 165.627 181.094C164.089 180.455 162.714 179.392 161.331 178.426C158.299 176.293 155.065 174.732 151.334 174.279C146.139 173.654 141.218 174.383 136.736 177.222C135.161 178.225 133.689 179.407 132.069 180.328C127.126 183.13 122.124 183.115 117.189 180.306C115.851 179.548 114.632 178.582 113.346 177.72C111.235 176.307 108.99 175.156 106.486 174.658C105.638 174.494 105.735 174.561 105.735 173.922V165.241C106.53 165.613 107.444 165.955 108.165 166.393C109.407 167.151 110.633 167.939 111.8 168.809C119.21 174.353 130.322 174.331 137.822 168.601C139.724 167.144 141.694 165.717 144.095 165.152C148.376 164.141 152.449 164.528 156.195 167.047C157.964 168.236 159.666 169.589 161.576 170.511C169.329 174.249 176.88 173.781 184.105 169.024C185.539 168.08 189.865 165.501 189.954 165.487C189.508 166.884 189.01 168.571 188.505 169.946V169.938ZM192.006 150.355C191.991 152.808 191.641 155.253 191.426 157.698C187.39 158.293 183.978 160.195 180.79 162.566C178.411 164.335 175.825 165.576 172.8 165.71C172.621 165.717 171.93 165.739 171.752 165.762C170.927 165.881 171.135 165.576 171.142 164.691C171.179 159.288 171.164 153.878 171.164 148.475C171.164 147.97 171.187 147.464 171.164 146.959C171.135 146.416 171.358 146.23 171.893 146.238C173.045 146.268 174.197 146.245 175.394 146.245V139.096H171.187C171.127 133.336 172.881 128.334 176.561 124.061C180.596 119.379 185.732 116.815 192.035 116.28V117.469C192.035 128.431 192.065 139.393 192.013 150.348L192.006 150.355ZM191.991 108.134C191.991 109.286 192.184 109.049 191.091 109.153C177.846 110.334 166.779 120.226 164.475 133.358C164.148 135.216 164.051 137.134 164.037 139.029C163.992 146.78 164.014 154.532 164.014 162.283V163.629C163.494 163.316 163.145 163.123 162.818 162.908C161.22 161.875 159.614 160.871 158.061 159.786C157.778 159.593 157.592 159.073 157.592 158.701C157.563 151.723 157.578 144.744 157.57 137.766C157.57 125.763 150.13 114.838 138.78 110.921C120.704 104.679 102.97 114.957 99.2016 132.69C98.8002 134.562 98.6441 136.48 98.6441 138.39C98.5995 160.5 98.6144 182.602 98.6144 204.712V206.147C97.8265 205.716 97.2245 205.411 96.6522 205.069C95.4035 204.326 94.1771 203.538 92.9136 202.825C92.3115 202.483 92.148 202.059 92.148 201.39C92.1703 187.106 92.1703 172.814 92.1629 158.53C92.1629 151.463 92.3264 144.387 92.0811 137.327C91.598 123.288 81.1626 111.657 67.3304 109.457C66.3419 109.301 63.6587 109.101 63.6512 109.101C63.6141 107.859 63.6661 100.784 63.6512 96.7562C63.6512 96.6075 63.7702 96.4886 63.9188 96.4886C70.1845 96.4886 184.907 96.4886 191.716 96.4886C191.894 96.4886 192.028 96.6298 192.028 96.8082C192.028 98.3392 191.991 104.924 191.991 108.149V108.134Z" fill="#E30613"/>
</svg>
