<svg width="256" height="256" viewBox="0 0 256 256" fill="none" xmlns="http://www.w3.org/2000/svg">
<path d="M128.067 253.009C127.892 252.834 127.744 252.645 127.528 252.51C118.784 246.703 110.026 240.869 101.282 235.062C80.101 220.982 58.9204 206.929 37.7398 192.849C32.5254 189.386 27.3246 185.937 22.1103 182.488C21.6926 182.205 21.5579 181.908 21.5579 181.423C21.5848 177.745 21.5983 174.053 21.6118 170.375C21.6118 168.758 21.6387 167.168 21.6387 165.551C21.6657 160.202 21.6791 154.84 21.6926 149.49C21.6926 144.64 21.7195 139.789 21.7195 134.952C21.7195 125.844 21.7195 116.722 21.7465 107.614C21.7465 100.675 21.7465 93.7364 21.7465 86.7974C21.7465 83.2673 21.7465 79.7237 21.7734 76.1936C21.7734 69.1873 21.8139 62.181 21.8273 55.1747C21.8273 44.7865 21.8543 34.3983 21.8678 24.0101C21.8678 17.5831 21.8678 11.1696 21.8678 4.75617V4.05554H234.577C234.712 4.55407 234.765 180.049 234.631 181.733C233.741 182.326 232.852 182.932 231.949 183.538C217.519 193.172 203.116 202.819 188.699 212.453C168.785 225.765 148.898 239.064 128.984 252.389C128.701 252.564 128.445 252.807 128.189 253.009H128.054H128.067Z" fill="#19365F"/>
<path d="M128.067 253.009C127.892 252.834 127.744 252.645 127.528 252.51C118.784 246.703 110.026 240.869 101.282 235.062C80.101 220.982 58.9204 206.929 37.7398 192.849C32.5254 189.386 27.3246 185.937 22.1103 182.488C21.6926 182.205 21.5579 181.908 21.5579 181.423C21.5848 177.745 21.5983 174.053 21.6118 170.375C21.6118 168.758 21.6387 167.168 21.6387 165.551C21.6657 160.202 21.6791 154.84 21.6926 149.49C21.6926 144.64 21.7195 139.789 21.7195 134.952C21.7195 125.844 21.7195 116.722 21.7465 107.614C21.7465 100.675 21.7465 93.7364 21.7465 86.7974C21.7465 83.2673 21.7465 79.7237 21.7734 76.1936C21.7734 69.1873 21.8139 62.181 21.8273 55.1747C21.8273 44.7865 21.8543 34.3983 21.8678 24.0101C21.8678 17.5831 21.8678 11.1696 21.8678 4.75617V4.05554H234.577C234.712 4.55407 234.765 180.049 234.631 181.733C233.741 182.326 232.852 182.932 231.949 183.538C217.519 193.172 203.116 202.819 188.699 212.453C168.785 225.765 148.898 239.064 128.984 252.389C128.701 252.564 128.445 252.807 128.189 253.009H128.054H128.067ZM229.255 9.17554C229.08 9.13512 228.999 9.12165 228.918 9.12165H27.0551C26.9743 9.12165 26.88 9.12165 26.8126 9.12165C26.8126 9.12165 26.7857 9.14859 26.7722 9.17554C26.7452 9.17554 26.7318 9.20249 26.7318 9.21596V161.401C50.0143 145.96 73.1755 130.573 96.4042 115.146C97.4147 116.601 98.4252 118.029 99.4358 119.485C99.2202 119.633 99.0315 119.754 98.8564 119.875C85.0593 129.037 71.2488 138.2 57.4383 147.362C47.3869 154.031 37.349 160.714 27.2842 167.357C26.8261 167.653 26.6644 167.963 26.6779 168.515C26.7048 171.87 26.7048 175.212 26.6779 178.553C26.6779 179.038 26.8261 179.308 27.2168 179.577C35.84 185.29 44.4362 191.043 53.0459 196.783C53.4141 197.026 53.7779 197.026 54.1372 196.783C75.6682 182.488 97.2126 168.192 118.77 153.91C141.824 138.604 164.891 123.311 187.971 107.978C201.553 98.9776 215.121 89.9503 228.716 80.9633C229.133 80.6939 229.295 80.4109 229.295 79.9124C229.295 64.6736 229.295 49.4214 229.295 34.1827C229.295 33.9671 229.295 33.7515 229.255 33.3878C205.393 49.2193 181.625 64.997 157.844 80.7747C156.766 79.333 155.729 77.9587 154.691 76.544C154.92 76.3823 155.096 76.2745 155.257 76.1532C161.576 71.9629 167.909 67.7726 174.215 63.5688C192.337 51.5368 210.459 39.5183 228.608 27.4998C229.12 27.1629 229.322 26.8261 229.322 26.1928C229.282 20.8033 229.295 15.4004 229.295 10.0244V9.16207L229.255 9.17554ZM229.241 87.0669C228.621 87.3364 58.7452 199.99 58.4623 200.421C81.7044 215.916 104.946 231.397 128.202 246.892C128.404 246.77 128.579 246.676 128.754 246.555C130.883 245.127 133.012 243.712 135.168 242.297C148.588 233.351 162.034 224.418 175.454 215.471C193.132 203.722 210.809 191.96 228.473 180.184C229.376 179.604 229.255 179.887 229.255 178.755V87.8214C229.255 87.5789 229.255 87.3364 229.228 87.0669" fill="white"/>
<path d="M69.1335 15.4273H83.4022C83.4022 15.6968 83.4291 15.9798 83.4291 16.2358V52.1027C83.4291 55.0669 82.8632 57.9234 81.6236 60.6316C79.9125 64.3234 77.2582 67.1663 73.7415 69.2412C70.912 70.8985 67.84 71.8686 64.6198 72.3671C62.2215 72.7309 59.7828 72.8387 57.371 72.7309C52.7226 72.5288 48.2763 71.4644 44.2611 68.9987C39.2624 65.8863 36.1904 61.4535 35.2203 55.6193C35.0182 54.4337 34.9238 53.221 34.9238 52.0084C34.8969 40.0572 34.9238 28.0926 34.9238 16.1415V15.5351C35.4089 15.36 48.3975 15.3465 49.2059 15.4947V16.2762C49.2059 27.5132 49.2059 38.7638 49.2059 50.0143C49.2059 51.5368 49.3137 53.0728 49.7853 54.5415C50.9306 58.085 53.3154 60.16 56.9937 60.7394C58.6375 60.9954 60.2813 60.9819 61.9251 60.645C65.4956 59.8905 67.6514 57.6539 68.6619 54.2181C69.0392 52.8842 69.147 51.4964 69.147 50.1086V15.4273H69.1335Z" fill="white"/>
<path d="M150.393 86.5819H137.176C137.135 86.3663 137.081 86.1373 137.041 85.9352C136.798 84.3992 136.044 83.2 134.845 82.2569C133.659 81.3272 132.325 80.7747 130.883 80.4783C128.633 80.0202 126.383 80.0337 124.16 80.6535C122.92 81.0173 121.789 81.5832 120.913 82.5802C119.795 83.8063 119.417 85.248 119.768 86.8649C119.983 87.9562 120.67 88.7377 121.56 89.344C122.705 90.139 123.998 90.624 125.346 90.9474C127.34 91.4324 129.334 91.8232 131.355 92.2274C134.104 92.7663 136.852 93.2379 139.52 94.1137C141.501 94.7604 143.387 95.5689 145.179 96.6602C149.181 99.1259 151.229 102.764 151.566 107.426C151.741 110.067 151.498 112.653 150.622 115.146C149.302 118.865 146.85 121.654 143.508 123.688C140.989 125.211 138.254 126.141 135.37 126.707C131.544 127.434 127.69 127.515 123.823 127.178C120.374 126.882 117.046 126.114 113.947 124.578C111.508 123.392 109.366 121.816 107.709 119.646C105.459 116.776 104.475 113.462 104.354 109.864C104.354 109.824 104.381 109.784 104.408 109.716H117.585C117.612 109.837 117.679 109.959 117.706 110.093C118.056 111.643 118.905 112.842 120.145 113.772C121.438 114.769 122.907 115.402 124.51 115.739C127.151 116.305 129.792 116.305 132.392 115.577C133.497 115.267 134.535 114.769 135.438 114.028C136.96 112.775 137.647 111.185 137.27 109.191C137.081 108.18 136.556 107.372 135.734 106.765C135.006 106.2 134.171 105.822 133.309 105.499C131.557 104.852 129.738 104.475 127.919 104.111C125.09 103.545 122.22 103.006 119.404 102.333C116.655 101.686 114.041 100.595 111.697 98.9508C109.177 97.2126 107.251 94.976 106.254 92.0387C105.499 89.8695 105.31 87.6329 105.472 85.3558C105.661 82.8632 106.334 80.5053 107.641 78.363C109.42 75.4796 111.899 73.3507 114.89 71.8147C117.895 70.2653 121.075 69.4299 124.43 69.1335C128.243 68.7832 132.029 68.9449 135.761 69.7802C139.008 70.4943 142.013 71.7878 144.6 73.9032C147.672 76.4227 149.518 79.6564 150.151 83.5773C150.326 84.5609 150.42 85.5714 150.393 86.6089" fill="white"/>
<path d="M208.128 162.91H197.928C197.794 162.371 197.753 153.586 197.875 152.818H221.858C221.858 152.967 221.912 153.115 221.912 153.277C221.912 156.039 221.952 158.801 221.871 161.549C221.763 164.716 221.197 167.815 219.971 170.779C217.452 176.923 212.952 180.965 206.686 183.107C204.396 183.889 202.051 184.32 199.626 184.509C197.336 184.697 195.045 184.697 192.755 184.482C188.672 184.118 184.792 183.094 181.208 181.032C176.249 178.189 172.854 173.986 170.765 168.704C169.661 165.928 169.054 163.005 168.744 160.013C168.461 157.251 168.421 154.462 168.65 151.687C168.987 147.429 169.93 143.306 171.924 139.493C175.252 133.187 180.426 129.186 187.271 127.326C189.939 126.612 192.647 126.316 195.395 126.275C199.033 126.221 202.604 126.626 206.053 127.838C210.459 129.388 214.232 131.826 217.155 135.505C219.392 138.334 220.739 141.554 221.251 145.125C221.278 145.3 221.278 145.502 221.292 145.718H207.185C207.117 145.529 207.023 145.354 206.969 145.165C205.568 141.325 202.752 139.129 198.804 138.375C196.365 137.903 193.94 138.024 191.582 138.873C189.292 139.682 187.513 141.123 186.152 143.117C184.886 144.977 184.118 147.052 183.7 149.248C182.892 153.506 182.892 157.763 183.916 161.981C184.563 164.689 185.721 167.154 187.688 169.176C189.831 171.385 192.485 172.53 195.544 172.733C197.767 172.894 199.936 172.692 202.011 171.83C205.056 170.563 207.104 168.408 207.832 165.12C207.993 164.433 208.034 163.732 208.155 162.897" fill="white"/>
<path d="M119.512 180.305C118.286 181.127 117.127 181.881 115.995 182.636C115.901 182.636 115.847 182.636 115.82 182.595C114.755 181.868 113.731 182.056 112.734 182.757C111.683 183.498 111.36 184.536 111.656 185.735C112.061 187.284 112.91 188.564 114.203 189.507C115.806 190.653 117.504 190.087 118.515 188.78C119.08 188.066 119.121 187.203 118.636 186.462C118.03 186.853 117.41 187.244 116.763 187.675C116.211 186.826 115.672 186.018 115.106 185.155C116.925 183.929 118.703 182.77 120.536 181.544C121.425 182.824 122.355 184.024 122.759 185.533C123.217 187.311 122.961 189.009 121.856 190.477C120.428 192.404 118.501 193.603 116.17 194.075C114.486 194.412 112.896 194.075 111.522 193.078C109.231 191.434 107.776 189.224 107.331 186.435C107.062 184.792 107.48 183.256 108.463 181.922C110.04 179.874 112.074 178.567 114.675 178.338C116.399 178.176 117.949 178.647 119.188 179.927C119.296 180.049 119.363 180.143 119.512 180.332" fill="white"/>
<path d="M103.249 185.034C103.936 186.058 104.569 187.028 105.216 187.985C106.334 189.669 107.453 191.353 108.584 193.037C109.352 194.196 109.716 195.449 109.514 196.837C109.366 197.848 108.975 198.75 108.342 199.518C106.887 201.324 105.054 202.523 102.723 202.86C100.837 203.116 99.2607 202.523 98.0211 201.095C97.846 200.906 97.6978 200.69 97.5495 200.502C95.8519 197.942 94.1542 195.382 92.47 192.822C92.3756 192.701 92.3083 192.579 92.187 192.377C93.3996 191.582 94.5719 190.801 95.8384 189.965C95.9866 190.168 96.1213 190.356 96.2426 190.531C97.7921 192.849 99.3281 195.166 100.851 197.47C101.093 197.834 101.376 198.184 101.699 198.467C102.333 199.02 103.06 199.101 103.801 198.71C104.138 198.521 104.475 198.292 104.744 198.009C105.216 197.538 105.378 196.931 105.162 196.285C105.014 195.853 104.812 195.422 104.583 195.045C103.033 192.701 101.484 190.383 99.9479 188.052C99.8401 187.864 99.7323 187.688 99.5841 187.473C100.81 186.664 101.996 185.869 103.249 185.048" fill="white"/>
<path d="M129.28 167.747C130.614 166.858 131.867 166.036 133.147 165.174C134.979 166.373 136.812 167.545 138.779 168.825C138.685 167.586 138.402 166.535 138.227 165.457C138.051 164.379 137.849 163.328 137.647 162.183C138.914 161.347 140.167 160.525 141.474 159.65C141.528 159.825 141.595 159.946 141.608 160.067C141.986 163.261 142.376 166.454 142.767 169.647C142.808 169.997 142.835 170.361 142.915 170.698C142.969 170.941 143.091 171.224 143.225 171.439C143.872 172.45 144.546 173.46 145.233 174.471C145.341 174.646 145.448 174.821 145.57 175.023C144.357 175.845 143.185 176.613 141.959 177.421C141.838 177.287 141.743 177.179 141.649 177.044C140.948 176.007 140.248 174.969 139.574 173.918C139.385 173.608 139.116 173.379 138.806 173.204C135.896 171.533 132.985 169.849 130.062 168.192C129.846 168.057 129.63 167.949 129.307 167.747" fill="white"/>
<path d="M134.413 176.047C133.255 175.01 131.867 174.996 130.479 175.535C130.358 175.589 130.237 175.629 129.994 175.71C130.183 175.495 130.264 175.373 130.358 175.266C131.301 174.08 131.463 172.665 130.735 171.466C129.94 170.146 128.633 169.526 127.124 169.795C126.181 169.957 125.346 170.348 124.551 170.873C122.61 172.153 120.684 173.433 118.757 174.713C118.622 174.794 118.501 174.902 118.353 175.01C121.115 179.186 123.864 183.323 126.653 187.54C126.868 187.378 127.03 187.311 127.192 187.19C129.105 185.923 131.032 184.657 132.918 183.377C133.295 183.148 133.645 182.865 133.969 182.595C134.75 181.895 135.357 181.073 135.613 180.049C136.003 178.472 135.613 177.085 134.4 176.02M125.346 177.583C124.753 176.694 124.241 175.926 123.702 175.09C124.402 174.619 125.009 174.107 125.75 173.81C126.437 173.528 127.057 173.703 127.448 174.296C127.852 174.861 127.865 175.562 127.326 176.061C126.733 176.613 126.046 177.044 125.332 177.583M131.005 180.898C130.87 181.059 130.735 181.208 130.546 181.342C129.967 181.746 129.347 182.164 128.674 182.622C128.027 181.639 127.434 180.736 126.774 179.752C127.623 179.227 128.35 178.567 129.28 178.257C130.021 178.041 130.654 178.297 131.085 178.93C131.517 179.564 131.49 180.278 130.991 180.898" fill="white"/>
<path d="M93.8982 202.604C94.4236 201.31 94.4775 200.798 94.3293 199.693C93.8443 196.392 90.6645 194.479 87.5655 195.692C86.8649 195.948 86.2047 196.325 85.5714 196.729C83.8872 197.821 82.2165 198.939 80.5592 200.057C80.3841 200.165 80.2224 200.286 80.0203 200.434C82.7958 204.625 85.558 208.775 88.3335 212.978C89.5731 212.157 90.7588 211.362 92.0118 210.54C91.0956 209.152 90.1929 207.791 89.2632 206.403C89.7078 206.134 90.0851 205.864 90.4758 205.595C90.678 205.73 90.8666 205.81 91.0417 205.918C92.2544 206.646 93.4805 207.346 94.6931 208.101C95.0973 208.344 95.3668 208.33 95.7441 208.061C96.7681 207.346 97.8325 206.673 98.8565 205.972C98.9912 205.891 99.1125 205.784 99.2876 205.649C97.4552 204.625 95.6767 203.628 93.8712 202.604M89.371 202.577C88.8186 203.021 88.2123 203.385 87.579 203.816C86.8784 202.765 86.2047 201.768 85.4906 200.69C86.1508 200.273 86.7302 199.842 87.3365 199.505C88.2392 199.02 89.1958 199.303 89.7483 200.125C90.3007 200.987 90.1929 201.944 89.371 202.577Z" fill="white"/>
</svg>
