<svg width="256" height="256" viewBox="0 0 256 256" fill="none" xmlns="http://www.w3.org/2000/svg">
<g clip-path="url(#clip0_3006_21994)">
<path d="M219.93 36.2353V36L127.607 36.1176L35.277 36V36.2353H35.2711V176.941C35.2888 177.012 35.3006 177.082 35.3182 177.147C37.332 191.594 45.5287 203.718 57.3584 210.8C57.3702 210.806 57.382 210.812 57.3878 210.818C57.7235 211.018 58.0591 211.218 58.3948 211.406C62.0514 213.494 66.0084 215.088 70.1656 216.071C70.1892 216.076 70.2127 216.082 70.2422 216.088C71.5023 216.4 72.7859 216.659 74.0873 216.871C79.7342 217.788 83.279 218.194 88.7375 220.353C88.7375 220.353 88.7493 220.353 88.7552 220.359C90.1331 220.929 91.4933 221.535 92.8182 222.147C94.6141 222.976 96.363 223.876 98.0706 224.841C98.3768 225.018 98.6771 225.194 98.9833 225.371C99.2424 225.524 99.5015 225.682 99.7606 225.835C111.579 233.018 121.277 243.494 127.365 255.988H127.825C133.913 243.494 143.617 233.018 155.429 225.835C155.688 225.682 155.947 225.524 156.207 225.371C156.507 225.194 156.813 225.012 157.119 224.841C158.827 223.876 160.576 222.971 162.372 222.147C163.702 221.535 165.063 220.929 166.435 220.359C166.435 220.359 166.446 220.359 166.452 220.353C171.917 218.194 175.456 217.788 181.103 216.871C182.404 216.659 183.688 216.4 184.948 216.088C184.971 216.088 184.995 216.076 185.024 216.071C189.181 215.088 193.138 213.494 196.795 211.406C197.137 211.212 197.472 211.018 197.802 210.818C197.814 210.812 197.826 210.806 197.831 210.8C209.667 203.718 217.864 191.594 219.872 177.147C219.889 177.076 219.901 177.006 219.919 176.941V36.2353H219.913H219.93Z" fill="black"/>
<path d="M219.106 37.0706V56.9353H36.1072V36.8353L127.607 36.9529L219.094 36.8353V37.0706H219.106Z" fill="#006699"/>
<path d="M116.731 77.4117C109.518 82.0706 103.058 87.2 97.9881 91.9176C95.6151 94.1235 93.3716 96.347 91.2577 98.5882H36.1072V77.4117H116.731Z" fill="#006699"/>
<path d="M219.106 77.4117V98.5882H183.758C185.236 93.9706 186.037 89.5353 186.131 85.4117C186.184 82.947 186.037 80.347 185.089 77.4117H219.106Z" fill="#006699"/>
<path d="M75.7477 118.823C71.6259 125.8 68.6817 132.871 66.9505 140H36.1072V118.823H75.7477Z" fill="#006699"/>
<path d="M219.106 118.823V140H155.759C161.971 134.076 167.606 127.612 172.323 120.882C172.806 120.194 173.271 119.512 173.73 118.823H219.106Z" fill="#006699"/>
<path d="M219.106 160V176.847L219.071 176.988V177.035C218.871 178.435 218.611 179.818 218.299 181.176H36.9139C36.6018 179.818 36.3428 178.435 36.1484 177.035V176.988L36.1072 176.847V160H68.6346C69.4236 161.7 70.407 163.282 71.6141 164.441C76.0363 168.688 81.2652 171.647 91.5757 171.647C97.7232 171.647 104.56 170.371 111.896 167.853C117.567 165.912 123.343 163.247 129.055 160H219.106Z" fill="#006699"/>
<path d="M207.9 201.406C204.903 204.782 201.382 207.718 197.419 210.088C197.06 210.3 196.73 210.494 196.401 210.682C192.738 212.776 188.852 214.318 184.848 215.265L184.765 215.282C183.517 215.588 182.245 215.847 180.985 216.053L179.236 216.335C174.525 217.082 171.122 217.623 166.164 219.582C164.904 220.1 163.602 220.671 162.036 221.394C160.281 222.2 158.491 223.118 156.719 224.123C156.407 224.3 156.1 224.482 155.794 224.659C155.606 224.771 155.412 224.888 155.217 225.006L155.011 225.129C143.211 232.306 133.754 242.476 127.607 254.588C121.453 242.476 112.002 232.306 100.202 225.135L99.9902 225.006C99.8018 224.888 99.6074 224.771 99.4131 224.659C99.1069 224.482 98.8007 224.3 98.4945 224.123C96.7162 223.118 94.9321 222.2 93.1773 221.394C91.6051 220.671 90.3038 220.1 89.079 219.594C84.0916 217.623 80.6881 217.082 75.9774 216.335L74.2227 216.053C72.9684 215.847 71.6965 215.588 70.4423 215.282L70.3658 215.265C66.3617 214.318 62.4754 212.776 58.8187 210.688C58.4772 210.494 58.1474 210.3 57.8235 210.106C53.8489 207.723 50.3159 204.788 47.3128 201.406H207.9Z" fill="#006699"/>
<path d="M219.106 56.9353V77.4118H185.089C184.394 75.2706 183.275 72.953 181.497 70.3882C176.356 62.9706 165.434 62.1 163.149 61.7706C161.577 61.5471 158.114 61.7647 155.482 62.0353C142.422 63.3529 128.561 69.7588 116.731 77.4118H36.1072V56.9353H219.106Z" fill="white"/>
<path d="M91.2577 98.5883C84.963 105.224 79.7872 111.982 75.7477 118.824H36.1072V98.5883H91.2577Z" fill="white"/>
<path d="M219.106 98.5883V118.824H173.73C178.294 111.965 181.685 105.094 183.758 98.5883H219.106Z" fill="white"/>
<path d="M218.299 181.176C216.545 188.8 212.959 195.729 207.901 201.406H47.3128C42.2488 195.724 38.6687 188.8 36.9139 181.176H218.299Z" fill="white"/>
<path d="M68.6346 160H36.1072V140H66.9505C66.7856 140.665 66.6325 141.329 66.4912 141.994C66.4912 141.994 65.7199 146.688 66.1674 151.112C66.3735 153.147 67.1507 156.788 68.6346 160Z" fill="white"/>
<path d="M219.106 140V160H129.055C138.412 154.688 147.58 147.812 155.759 140H219.106Z" fill="white"/>
<path d="M162.884 76.3999C162.66 75.8176 162.06 74.0529 161.989 73.5294C161.753 71.7823 162.166 69.5705 161.989 67.7646C151.555 70.7176 141.927 75.8058 132.8 81.547C117.125 91.4176 101.662 104.823 89.556 118.818C84.015 125.229 78.9746 132.129 74.841 139.529H79.4339C81.6361 139.529 85.2339 141.047 87.1594 142.165C94.7319 146.559 98.4769 155.576 95.568 164C107.728 159.535 118.904 152.729 129.326 145.135C143.482 134.812 157.166 121.982 167.865 108.106C172.576 102 177.034 95.4117 179.89 88.2352C172.352 88.9529 165.469 83.0941 162.884 76.3999ZM129.803 139.729C123.885 144.047 117.973 148.382 111.702 152.176L92.3118 129.729L94.9792 125.418L112.644 145.859L123.025 138.588L102.051 113.882C101.986 113.665 103.918 110.123 104.165 109.882C104.418 109.641 104.618 109.547 104.96 109.682L130.168 139.218L129.803 139.729ZM134.502 136.212C133.719 136.418 131.64 133.359 131.146 132.612L141.91 122.947L134.078 113.653L122.819 123.035L107.822 105.765L122.584 93.4352C123.367 93.2235 125.446 96.1647 125.958 96.8235C125.958 97.7235 116.401 105.2 115.123 106.488L123.12 116.129H123.832L134.549 106.865L148.781 123.212L134.502 136.212ZM167.406 104.353C167.23 104.594 165.316 106.747 165.18 106.841C164.968 106.988 164.851 107.165 164.586 106.953L154.917 95.5294L145.013 103.665L155.847 116.618L152.479 119.982L127.13 90.3588L131.852 88.5823L141.821 99.9823L151.384 91.647L144.583 83.6176C144.483 83.2999 144.748 83.2352 144.966 83.1117C145.337 82.8882 148.658 81.6176 148.905 81.6411L167.848 103.223C167.96 103.676 167.642 104.023 167.406 104.353Z" fill="white"/>
<path d="M91.3284 171.059C92.9418 168.976 94.4021 166.871 95.4915 164.459C116.372 156.618 135.574 142.482 151.513 127.071C163.049 115.912 174.031 102.765 180.631 88.0411C182.28 88.0882 183.782 87.3646 185.301 86.8293C184.777 99.0176 178.712 110.735 171.834 120.553C157.891 140.459 134.849 159.371 111.702 167.306C105.237 169.523 98.1825 171.1 91.3225 171.065L91.3284 171.059Z" fill="white"/>
<path d="M162.177 67.247C145.943 71.9529 131.075 81.2411 117.832 91.5411C100.921 104.694 84.7864 120.918 74.311 139.712C71.7319 140.018 69.406 141.1 67.0624 142.118C71.1902 122.653 84.0857 105.659 98.3827 92.3529C112.88 78.8588 135.479 64.647 155.535 62.6235C157.355 62.4411 161.394 62.0764 163.043 62.3588C163.314 62.4058 163.467 62.4764 163.62 62.7117L162.171 67.2529L162.177 67.247Z" fill="white"/>
<path d="M212.393 -1.50802e-05C217.157 0.976455 220.549 4.34116 220.166 9.41175L216.851 9.54704C216.044 5.63528 214.342 3.73528 210.144 3.9941C207.011 4.18822 204.373 6.2294 205.427 9.65881C206.14 11.9706 213.065 13.0588 215.279 13.9353C218.476 15.2059 220.425 17.2941 221.108 20.7V23.7588C219.536 29.3765 215.131 31.6412 209.449 31.0529C203.767 30.4647 200.781 26.1294 200.611 20.8529L204.156 20.2235C204.32 21.7882 204.78 23.6 205.81 24.8059C209.267 28.8588 218.629 27.6176 217.292 21.1C216.48 17.1176 206.393 17.1823 203.443 13.7588C200.493 10.3353 201.182 3.88234 205.257 1.44116C206.534 0.676456 207.771 0.523514 209.102 -0.0117798H212.399L212.393 -1.50802e-05Z" fill="black"/>
<path d="M83.5557 0C84.4154 0.452941 85.3811 0.523529 86.3056 0.9C89.9446 2.38235 91.4697 5.60588 91.5639 9.41176L88.0132 9.54706C87.342 5.51765 85.5166 3.74118 81.3064 3.99412C78.0795 4.18824 75.3179 6.50588 76.8371 9.88235C77.8263 12.0882 83.9561 12.9941 86.2644 13.8765C95.8565 17.5588 93.4482 30.3471 83.6794 31.0647C76.9784 31.5588 71.7142 27.7353 72.044 20.7353L75.3002 20.2353C75.8066 25.2824 79.1512 27.6176 84.1387 27.0588C87.289 26.7059 89.6502 23.6294 88.3077 20.5412C86.9651 17.4529 80.1287 16.9824 77.267 15.5706C71.0253 12.5 71.4963 3.4 77.8499 0.776471C78.5977 0.464706 79.6046 0.564706 80.2524 0H83.5498L83.5557 0Z" fill="black"/>
<path d="M166.582 0.705896C172.988 1.38237 174.861 9.24119 170.939 13.7647C170.609 14.1471 169.903 14.2059 169.997 14.8235C176.05 17.1294 175.338 27.3235 169.756 29.7647C169.002 30.0941 167.094 30.5941 166.346 30.5941H155.041L154.687 30.2412V0.705896C158.485 1.00001 162.854 0.311779 166.582 0.705896ZM158.691 12.9412H166.111C166.676 12.9412 168.331 11.8235 168.69 11.2824C169.72 9.73531 169.338 6.42943 167.865 5.3059C167.589 5.09413 165.457 4.4706 165.169 4.4706H158.691V12.9412ZM158.691 26.5883H166.817C166.9 26.5883 168.178 26.0765 168.331 25.9824C170.651 24.5824 170.969 20.2883 169.149 18.3765C168.619 17.8177 166.835 16.9412 166.111 16.9412H158.691V26.5883Z" fill="black"/>
<path d="M110.171 12.7059H122.655V0.705861H126.423V30.2353L126.07 30.5882H122.655V16.7059H110.171V30.2353L109.783 30.5529C108.658 30.4882 107.068 30.9412 106.167 30.2353V0.705861C107.339 0.464684 109.141 0.123508 110.171 0.823508V12.7059Z" fill="black"/>
<path d="M175.65 30.5882L185.095 0.729409L188.969 0.688232L199.439 30.5882H195.553L192.385 21.7529L182.392 21.6294L179.66 30.5824H175.656L175.65 30.5882ZM183.423 18.1176H191.195L187.309 5.64706L183.423 18.1176Z" fill="black"/>
<path d="M128.778 30.5882L138.777 0.688232L142.463 0.841174L152.562 30.5824H148.557L145.501 21.7529L135.515 21.6235L132.783 30.5824H128.778V30.5882ZM144.324 18.1176L140.555 5.64706L136.551 18.1176H144.324Z" fill="black"/>
<path d="M41.6305 0.705872V19.8823C41.6305 20.4588 42.0663 22.6059 42.2665 23.247C43.2734 26.4823 45.8878 27.3294 49.044 27.0529C51.2698 26.8588 52.7949 25.9176 53.5839 23.8235C53.8371 23.1529 54.3494 21.447 54.3494 20.8235V0.705872H58.118V21.7647C58.118 23.4588 56.7931 26.7 55.6507 28.0059C50.1804 34.2235 38.0975 30.9588 38.0975 22V0.705872H41.6305Z" fill="black"/>
<path d="M63.7708 26.1176H67.4216C68.1164 27.1941 67.7337 29.0706 67.6748 30.3706C67.4451 30.7 64.2183 30.8176 63.7708 30.2353V26.1176Z" fill="black"/>
<path d="M100.75 26.1176H96.9812V30.5882H100.75V26.1176Z" fill="black"/>
</g>
<defs>
<clipPath id="clip0_3006_21994">
<rect width="256" height="256" fill="white"/>
</clipPath>
</defs>
</svg>
