<svg width="256" height="256" viewBox="0 0 256 256" fill="none" xmlns="http://www.w3.org/2000/svg">
<g clip-path="url(#clip0_3438_1485)">
<path d="M28.5021 9.7368C41.0606 7.04427 53.7819 4.98108 66.5545 3.49478C120.384 -2.76845 175.993 -0.561314 229.135 9.6944C229.135 9.6944 229.09 11.9841 229.074 12.9404C229.051 14.3631 229.101 15.7858 229.105 17.1672C229.215 66.0143 228.904 115.443 229.318 164.473C229.604 198.476 199.477 213.241 174.397 228.737C159.356 238.029 144.172 247.103 128.894 256L128.07 255.925L48.8058 206.865C32.464 195.209 26.4649 181.482 26.6858 161.573C26.8375 147.926 27.4668 134.191 27.5962 120.528C27.6196 118.036 28.501 9.7368 28.501 9.7368H28.5021Z" fill="#241F23"/>
<path d="M223.942 15.528C223.961 64.7334 223.96 113.945 223.942 163.154C223.934 184.724 210.904 199.114 193.945 210.572C181.106 219.246 167.328 227.544 154.091 235.655C145.857 240.701 137.598 245.72 129.212 250.511L126.682 249.268C103.586 233.759 78.7358 220.175 55.7232 204.634C45.2166 197.539 37.0284 187.188 34.1677 174.641C32.5901 167.717 33.0341 161.045 33.1569 153.985C33.7493 120.133 34.2681 86.1319 34.5158 52.2404C34.595 41.3386 33.9479 29.7651 34.4957 18.9682C34.5493 17.9104 34.8193 16.8068 34.8304 15.7322C44.5471 13.1781 54.5751 11.5489 64.5496 10.1943C110.469 3.9534 158.643 4.69208 204.39 11.9852C210.933 13.0285 217.426 14.3564 223.941 15.5291L223.942 15.528ZM219.033 19.5451C210.176 17.888 201.288 16.3035 192.349 15.1007C155.348 10.1229 116.408 9.44334 79.2457 13.2874C65.8907 14.6688 52.5356 16.6919 39.4428 19.564C39.464 35.6779 39.3323 51.7628 39.1996 67.8599C38.9798 94.5621 38.7421 121.288 38.307 147.977C38.1631 156.831 36.9458 166.722 39.2988 175.309C41.827 184.532 48.3896 193.141 55.9486 198.828L129.039 244.888C129.376 244.921 130.17 244.413 130.523 244.221C138.503 239.897 146.745 234.421 154.535 229.628C166.583 222.216 179.122 214.684 190.819 206.777C206.646 196.077 219.129 183.228 219.031 162.93C218.802 115.137 219.233 67.3333 219.031 19.5428L219.033 19.5451Z" fill="white"/>
<path d="M141.168 119.068C149.6 117.718 158.628 118.546 166.164 122.746L171.068 126.432L171.292 73.0955H175.643L175.989 73.8654L175.97 133.47C177.871 139.93 177.587 146.164 175.97 152.646L175.979 211.46H171.404L171.07 211.125V174.414H162.033C161.787 174.414 159.986 175.649 160.36 175.975C162.826 175.869 165.85 175.47 168.292 175.742C168.73 175.791 169.222 175.857 168.969 176.436L143.732 206.771C143.227 206.865 143.424 206.551 143.4 206.219C143.033 201.176 143.242 194.601 143.39 189.469C143.402 189.052 143.675 188.418 143.612 188.161C143.41 187.324 141.49 188.625 141.169 189.032V211.46H136.26V190.93C134.762 191.309 134.374 191.461 134.242 193.04C133.869 197.543 133.921 205.256 134.242 209.795C134.376 211.692 134.545 213.195 136.83 213.253C137.115 213.26 138.525 212.732 138.266 213.354L119.069 236.127L118.571 236.204L59.2734 196.394L87.1349 179.068C87.319 178.774 86.4086 175.474 86.3037 174.72C82.8729 149.881 111.428 127.558 132.466 120.965C133.216 120.73 136.138 120.21 136.381 119.737L136.594 73.0955H140.834L141.169 73.4302V119.068H141.168ZM165.395 169.187C184.396 146.098 179.175 117.567 145.063 119.506C122.368 120.794 94.3614 140.179 88.1714 162.587C84.1805 177.034 90.395 189.689 105.241 193.274C126.186 198.331 152.246 185.167 165.396 169.188L165.395 169.187ZM171.069 170.397V162.809L169.161 165.699L168.964 167.511C167.021 167.633 166.713 169.166 165.49 170.397H171.069Z" fill="#FDD502"/>
<path d="M215.474 100.099V120.965L178.317 165.485C177.635 165.542 178.209 165.243 178.209 165.153V122.974L213.708 100.899L215.474 100.099Z" fill="#FDD502"/>
<path d="M68.758 80.6833C68.237 80.7737 68.1645 81.4019 67.7561 81.576L67.9782 78.8968C66.0089 78.8009 62.5725 79.785 62.1865 76.9832C61.9355 75.1621 63.1047 75.2369 63.6146 74.4223C63.9516 73.8845 64.1736 72.2832 65.4198 73.5319C67.0019 75.1164 64.0397 75.6765 64.1814 76.9921C64.3912 78.9303 68.661 77.1561 69.7633 77.1104C70.5421 76.4855 67.8465 76.7031 67.6423 76.6651C66.6929 76.4922 66.7498 74.6276 66.8513 73.8633C67.0175 72.6035 68.0842 72.705 68.9388 72.1583C69.722 71.6572 70.6559 70.7389 71.4212 70.4008C72.9185 69.7402 75.3117 69.3285 76.9027 69.7436L76.2333 68.6322C76.6004 68.63 77.0109 68.5675 77.3524 68.7371C77.9426 69.0317 77.5376 70.2111 78.4703 69.6275L78.5741 68.6355L79.9419 70.1799L81.3644 69.5238C81.6099 70.6128 79.8448 71.5345 81.6913 71.7677C82.4723 71.8659 83.3169 71.3236 83.8157 71.8659C83.8034 72.2732 81.9468 72.8423 82.5962 73.543L84.0422 73.3176C84.3534 74.0853 82.2314 74.41 82.7044 74.8765L85.1579 74.9892L83.1518 76.221C83.2366 76.943 84.1013 77.0613 84.3679 77.791C84.7082 78.725 84.4092 79.3778 83.7186 80.0205C82.8617 80.9366 81.688 80.2392 82.5136 81.9888L84.7116 81.5737C84.88 83.0098 83.4564 83.3122 82.4869 83.917C83.6171 84.996 82.3786 86.4332 81.9212 87.5971C81.0866 87.625 82.1309 86.0103 81.1447 86.2614C81.3823 87.7455 80.4395 88.935 80.0144 90.274C79.9252 90.342 78.3141 89.6703 77.8935 90.2717C78.535 92.1173 76.6651 92.5592 75.8752 93.8436L76.2054 95.8286C75.7669 96.2761 74.1268 95.7572 74.2228 96.4145C74.3678 97.4053 76.192 100.312 76.7197 101.508C77.4717 103.214 77.9459 105.188 78.8184 106.774C79.5369 108.082 82.7278 112.46 84.3713 112.147L84.6714 111.647C84.4773 111.094 84.2608 110.365 84.8287 109.918C85.5227 109.956 85.1601 111.298 85.5919 111.604C86.895 112.529 88.2104 110.393 88.0431 108.932C87.7798 106.634 86.4844 106.59 84.4918 107.014C84.9715 105.829 84.0901 105.605 83.7509 104.519C83.4754 103.635 83.5412 102.507 83.2678 101.654C82.9599 100.694 81.939 99.7028 81.5039 98.7321C79.885 95.1268 81.2852 89.0856 85.5696 88.011L85.5763 87.182L84.716 86.4835L86.0705 86.5816L86.4119 87.3895C87.1237 87.4431 89.3619 87.3616 89.7401 86.7111C90.0369 86.2011 89.5727 85.2359 90.2879 84.8086C89.7836 84.0944 89.0004 84.8019 88.2852 84.6959C87.9192 84.3578 89.7468 82.7643 91.1726 83.7072C92.2928 84.4482 91.6401 85.2895 91.62 86.1587C91.6078 86.6776 91.8889 87.0358 91.7606 87.5971C91.4661 88.8892 90.308 88.733 89.6229 89.6056C90.8826 89.9481 91.1113 89.0343 92.0764 88.7163C92.246 90.3398 92.0764 90.8218 90.5099 91.2883C90.8826 92.0861 90.8112 93.0424 91.9358 92.9397L92.9667 90.9479C93.8403 93.7476 92.5773 94.8924 89.8438 94.2966L90.0703 94.7396C89.4455 95.1681 86.9642 92.8873 86.7232 93.1807C86.9374 94.7329 86.1096 95.8219 84.4918 95.6334C84.4226 94.8791 85.5874 94.9192 85.603 94.1906C85.6298 92.9565 83.8235 92.1954 82.9543 93.54C82.247 94.6347 82.4188 96.5762 82.9666 97.7178C83.173 98.1474 84.465 99.714 84.8298 99.8724C85.6934 100.25 84.4237 98.0458 84.3735 97.8729C84.2664 97.4979 84.2363 97.1353 84.2709 96.7503C85.1378 97.701 86.48 98.6327 86.2769 100.099C86.4454 100.273 88.6076 99.8546 88.9022 99.6024C89.6497 98.9642 88.4726 98.3694 87.8411 99.2052C87.8646 98.7287 87.2944 97.8929 87.9851 97.6698C91.8767 97.9856 89.8684 101.811 86.9441 101.997C87.7709 103.494 89.2291 102.762 90.5166 102.555C90.1105 103.521 89.3574 104.234 88.2852 104.34C89.8606 106.958 91.4438 110.523 88.852 113.051C87.3101 114.555 85.4435 114.766 83.375 114.603L83.7476 116.4L85.6064 116.166C85.6521 117.11 84.33 116.803 84.0455 117.502C84.9102 117.941 85.275 117.282 86.056 117.158C86.866 117.706 86.1508 118.481 86.278 119.289C87.7519 117.698 87.7686 115.84 90.5133 117.396C90.4017 118.157 89.2391 117.364 88.7103 118.041C88.3142 118.547 88.5641 119.496 88.3387 119.902C88.0174 120.48 87.4707 120.241 87.6135 120.85C88.4347 120.879 89.5683 121.487 89.8974 122.251C90.0971 122.713 90.0357 123.236 90.2377 123.696C90.5278 124.359 91.7093 124.735 90.9774 125.674C90.8022 125.898 89.7914 126.111 90.5545 126.616C90.7665 126.756 91.8175 126.697 92.0797 126.546C92.786 126.136 92.0953 124.787 92.9678 124.871L92.7146 127.516L91.407 127.55L92.5238 127.995C92.8429 128.742 91.8432 129.224 91.8432 129.664C91.8432 130.056 92.4066 130.226 92.2973 130.67L91.407 130.781L91.7796 131.349L93.8615 131.341L93.8693 132.092L91.6602 132.81C91.9403 133.478 91.7729 134.148 91.2005 134.595C91.0053 134.748 87.6626 136.602 87.454 136.65C85.709 137.051 84.1504 135.643 82.4802 136.472L82.9242 135.358C82.2983 134.976 80.9762 136.028 80.8044 136.021C79.866 135.986 81.3499 134.649 81.1391 134.466C80.9059 134.375 79.3238 134.735 79.5804 134.133C80.7642 133.108 81.1915 131.211 83.0547 131.133C83.8815 131.098 84.7662 131.794 85.6677 131.523C85.8128 131.48 87.9951 129.813 88.0732 129.683C89.0673 128.042 86.5592 127.55 86.7154 129.183C85.0976 129.975 85.786 125.942 85.6053 125.76C83.3102 125.906 81.2172 125.515 79.47 123.972C79.0036 123.926 79.1765 123.998 79.1341 124.308C78.9835 125.396 78.5283 127.03 80.1037 126.666C80.5165 126.57 80.1561 125.561 80.917 125.762C81.0978 127.351 79.8872 127.968 78.4513 127.671C76.7242 127.315 74.2239 124.543 73.1093 126.65L75.1165 127.326C75.4043 127.693 73.5266 128.185 72.6586 127.216C71.4592 125.878 72.9698 125.522 73.0825 124.703C73.1606 124.131 72.2915 123.644 72.7713 122.857C73.4172 121.795 74.0052 122.756 74.3466 123.08C75.064 123.76 76.0749 122.199 76.0325 121.412C75.9867 120.572 74.7349 119.453 74.2674 118.688C73.1339 116.835 71.7905 114.594 72.4388 112.372C70.8054 112.51 69.4989 113.827 68.4244 114.94L69.76 115.272C69.8726 116.356 68.2113 115.768 67.977 115.942C67.7327 116.824 69.3092 116.183 69.5368 116.388L69.3192 116.954L67.5308 116.834L68.6454 117.282L67.5308 118.616C68.5974 119.175 68.6632 118.403 69.5368 118.173L69.7544 119.864C70.8199 119.633 72.6418 120.163 72.5515 121.296L70.6536 120.629L70.792 121.304L69.76 121.86C69.6383 122.382 71.2706 122.902 69.7488 124.078C69.4933 124.276 68.507 124.442 68.8707 124.864C69.0448 125.066 70.3323 125.571 70.2074 126.43L68.8707 125.983L68.5394 126.65L67.0856 125.985L67.3054 127.993C66.4697 127.491 65.9933 126.335 64.8542 126.432L65.2982 127.545L63.9616 127.101C64.2294 128.578 63.2509 129.35 62.2568 130.209C61.1366 129.633 60.5018 128.325 59.0503 128.661C58.8996 128.808 59.3727 130.488 58.72 130.222C58.0483 129.844 57.746 128.733 57.2562 128.338C56.8032 127.972 55.9809 127.953 55.5614 127.34L54.1434 128.215C53.9972 127.088 54.9433 124.795 55.9843 124.37C58.1097 123.502 62.2256 126.858 63.7452 122.749C62.4721 120.889 59.8647 120.227 59.6985 117.527L58.1599 117.506L58.6095 118.75C58.6843 120.006 56.5499 120.442 56.5979 118.845L57.486 118.737C56.5343 117.391 56.2108 116.764 57.2729 115.392C57.9981 114.455 59.5345 113.606 57.0442 114.156C56.6626 113.148 57.64 112.807 57.8163 112.386C58.0283 111.881 57.1 110.54 59.0503 110.588L58.3808 111.813C59.3861 112.285 59.5758 111.072 60.1816 110.712C60.6959 110.406 61.3654 110.438 61.8886 110.188C62.7912 109.758 64.2205 108.355 65.4109 108.355H71.882L72.1208 107.9C72.055 107.604 71.2717 106.441 71.0241 106.2C67.7706 103.017 63.0278 100.202 58.6631 99.0356C58.2224 98.9184 56.3402 98.9128 56.1494 98.7577C55.9051 97.7713 57.5139 98.8169 57.4883 97.9811C56.5745 97.2458 55.2903 96.4981 55.2557 95.1904C54.8373 95.3555 54.8987 95.9313 54.4837 96.3118C53.995 96.7604 53.1169 96.6711 53.2463 97.6441L52.8034 97.5069C52.2087 94.3513 52.2221 96.0998 51.0216 96.4423C50.5865 96.5662 50.1212 96.2437 49.8936 96.3955C49.3436 96.7626 49.8211 98.2489 49.01 98.0916C49.1539 97.45 48.644 96.9356 48.5749 96.4044C48.3986 95.0442 49.2376 92.9018 47.0329 93.8837L46.7808 95.6345C46.3479 93.9049 45.4788 92.0627 47.67 91.2805L46.5554 89.388C47.7927 89.504 48.914 88.9082 50.1458 89.2597C50.8833 89.4706 51.1722 91.0417 52.0324 91.1767C53.0555 91.3374 54.5618 90.4592 55.702 90.7237C55.2557 89.6513 54.8686 88.5277 55.2546 87.3772L51.9108 88.492L52.3549 86.2625C51.3117 86.9945 50.4582 85.8921 50.0152 85.8887C49.4797 85.8842 49.1494 86.778 48.5648 86.7077C48.4421 85.4758 49.28 84.822 49.7229 83.9639C50.8286 81.8203 48.8047 82.1997 47.8965 83.5845C47.988 81.4956 48.5815 80.4233 50.7661 80.2068L50.7962 78.2296L53.9236 79.6735C54.7391 80.5929 54.0831 80.95 54.14 81.6842C54.2047 82.5367 55.7422 82.665 56.3536 83.0467C56.7909 83.3189 57.0721 83.8266 57.5083 84.1234C58.1086 84.5296 60.7818 86.45 61.1935 86.4879C61.8485 86.5493 63.0199 85.9099 63.0657 85.1467C61.6354 85.6533 59.4709 83.7809 60.9481 82.4731C61.4847 83.6113 62.4007 83.4975 63.5254 83.2598L63.715 82.9953C63.1962 82.2633 64.3677 79.9346 65.0751 80.4624L64.7024 81.47C64.7973 82.3571 68.3642 81.9922 69.2121 82.0134C70.6492 82.0491 72.9063 83.1036 72.4388 80.6833C71.3164 80.8183 69.8213 80.4981 68.7569 80.6833H68.758Z" fill="#FDD502"/>
<path d="M88.8408 29.8008L93.3059 45.6469L97.7665 29.8008H103.791C103.829 29.8008 104.143 30.1009 104.126 30.2449C102.579 30.2192 101.851 30.5406 101.671 32.1441C102.068 38.4329 101.144 45.3556 101.664 51.5675C101.713 52.1567 101.812 53.0237 102.21 53.4756C102.853 54.2065 103.696 53.5649 104.126 54.3493H95.6466C95.9624 53.7769 96.9141 53.9989 97.4262 53.5627C97.6906 53.3373 97.8167 52.9992 97.8647 52.6622C97.704 47.3139 98.0265 41.9356 98.1124 36.6197C98.1324 35.3543 97.9673 34.1738 97.8769 32.9274L92.1868 54.3527C91.7115 54.3549 91.5966 53.8572 91.4672 53.5102C89.2257 47.4936 88.4068 39.8333 86.3059 33.6772C86.2055 33.3838 86.2423 32.9943 85.8295 32.9263V51.5608C85.8295 51.755 86.2367 53.0103 86.3907 53.2312L88.0609 54.3504H82.7055C82.9476 53.8026 83.578 53.9722 84.0633 53.5883C84.4126 53.3127 84.8533 52.4423 84.9224 51.9927C84.4851 45.5531 85.5517 38.2444 84.9503 31.9086C84.822 30.5573 84.3032 30.6399 83.2277 30.2728C82.8818 30.1545 82.5917 30.4692 82.7044 29.8019H88.8408V29.8008Z" fill="#FDD502"/>
<path d="M136.928 54.3493C137.243 53.7769 138.196 53.9989 138.707 53.5627C138.876 53.4187 138.984 53.229 139.061 53.0237L139.154 31.4801C139.11 31.1186 138.866 30.9021 138.605 30.6901C137.982 30.1846 137.122 30.5172 137.151 29.8008H145.296C145.868 29.8008 147.837 30.5908 148.383 30.9534C153.954 34.6625 154.005 49.0312 148.643 53.0092C148.191 53.3451 146.197 54.3482 145.742 54.3482H136.928V54.3493ZM142.953 31.1398V51.7829C142.953 51.9335 143.419 52.6588 143.429 52.9791C145.116 53.2558 146.246 52.6488 147.055 51.1993C149.096 47.5449 149.07 36.5204 146.79 32.9932C145.855 31.5471 144.675 31.0595 142.953 31.1398Z" fill="#FDD502"/>
<path d="M206.771 29.8008V36.1611C206.771 36.3631 207.193 36.9667 206.993 37.3885H206.326C206.141 33.174 204.273 30.9746 199.854 31.5861V41.4055C202.714 41.6421 202.926 37.9018 202.979 35.8252H203.646C203.528 40.0163 203.528 44.1349 203.646 48.3249H202.979C202.959 46.1512 202.619 42.8037 199.854 42.7446V51.5597C199.854 54.0001 203.821 53.0393 205.15 51.9703C206.678 50.7429 206.793 48.6998 207.384 47.0283C207.511 46.669 207.267 46.4313 207.886 46.5395L207.218 54.3493H193.829C194.051 53.6542 194.936 54.0603 195.394 53.7947C195.627 53.6597 195.999 52.747 196.047 52.439C195.599 45.8555 196.69 38.385 196.075 31.9075C195.947 30.5562 195.428 30.6388 194.352 30.2717C194.007 30.1534 193.716 30.4681 193.829 29.8008H206.771Z" fill="#FDD502"/>
<path d="M117.515 29.8009V36.1612C117.515 36.3632 117.936 36.9669 117.737 37.3887H117.069C116.934 33.2489 114.918 30.9659 110.597 31.5863V41.4057C113.448 41.6445 113.67 37.9209 113.722 35.8254H114.389C114.299 40.0176 114.243 44.135 114.389 48.325H113.722C113.741 46.1201 113.313 42.9355 110.597 42.7447V51.783C110.597 53.2626 112.776 53.1354 113.813 52.9904C115.731 52.7226 116.892 51.0153 117.523 49.336C117.867 48.4232 117.782 47.0998 118.628 46.5374L117.961 54.3483H104.572C104.847 53.6532 105.855 54.0303 106.302 53.6219C106.605 53.3452 106.776 52.4492 106.815 52.0162C107.398 45.5767 106.366 38.2445 106.789 31.7101C106.61 30.5497 105.971 30.5675 105.093 30.2707C104.745 30.1535 104.459 30.466 104.571 29.7998H117.513L117.515 29.8009Z" fill="#FDD502"/>
<path d="M125.771 29.8008L133.134 44.5299V32.1441C133.134 32.0425 132.532 30.8865 132.397 30.7626C131.916 30.3185 130.822 30.516 130.903 29.8008H135.924C135.966 29.8008 136.322 30.1634 136.258 30.2449C134.308 30.4446 134.159 32.0726 134.03 33.7096C133.57 39.5834 133.826 47.5862 134.016 53.5805C134.029 54.009 134.19 54.3828 134.25 54.7945L133.388 54.4319L123.316 34.9348V51.5608C123.316 51.8297 124.033 53.4276 124.269 53.6173C124.711 53.9711 125.534 53.7256 125.771 54.3504H120.192C120.515 53.7401 121.272 53.8885 121.762 53.354C122.074 53.0148 122.341 52.2248 122.404 51.7639C123.153 46.2271 121.875 39.1727 122.435 33.4719C122.404 32.8894 122.148 32.0905 121.845 31.6073C121.37 30.853 120.38 30.6031 120.192 29.8008H125.771Z" fill="#FDD502"/>
<path d="M55.7042 29.8009C55.7768 30.5921 54.5484 30.1301 53.9314 30.5943C53.4483 30.958 53.282 33.5814 53.2408 34.3669C53.0087 38.7578 52.9964 44.9708 53.5007 49.3014C54.1936 55.2589 59.655 53.6409 60.1637 48.209C60.4996 44.6316 60.3478 39.8446 60.388 36.159C60.3991 35.1391 60.4003 31.8306 59.9562 31.0719C59.5903 30.4492 58.1041 30.6032 58.1588 29.8009H63.7374C63.85 30.4671 63.5633 30.1546 63.2152 30.2718C61.7726 30.7583 61.5048 30.948 61.3084 32.6151C60.6825 37.9198 62.606 47.9713 59.9875 52.2718C57.9959 55.5434 53.2787 55.7833 51.0194 52.6746C48.5113 49.2222 50.1547 37.1744 49.6515 32.3953C49.6114 32.0136 49.4552 31.0473 49.2532 30.7851C48.8047 30.1993 47.583 30.5999 47.6722 29.7998H55.7054L55.7042 29.8009Z" fill="#FDD502"/>
<path d="M176.87 29.8008V36.1611C176.87 36.5282 177.649 37.0917 176.43 36.9411C176.066 34.9705 175.736 31.7156 173.196 31.5739C172.801 31.5515 171.871 31.4824 171.764 31.9387L171.975 52.6622C172.221 54.2355 173.404 53.4712 174.192 54.3504H165.935C166.318 53.6285 167.234 54.144 167.733 53.3585C168.043 52.8697 168.016 52.1176 168.162 51.5564L168.135 31.9521L167.802 31.6185C165.352 31.1721 164.257 33.0211 163.756 35.0977C163.593 35.775 164.037 36.95 163.034 36.9422V29.8008H176.869H176.87Z" fill="#FDD502"/>
<path d="M192.49 29.8009V36.1612C192.49 36.3587 193.058 36.9066 192.045 36.9412C191.821 34.5633 191.047 31.0228 187.916 31.5874C187.669 31.632 187.476 31.6744 187.384 31.9378L187.595 52.6612C187.841 54.2345 189.024 53.4702 189.811 54.3495H181.555C181.802 53.6565 182.911 54.0192 183.291 53.6309C183.344 53.5773 183.787 52.303 183.787 52.2294V31.5863C181.623 31.4334 180.377 31.9802 179.703 34.0858C179.45 34.8791 179.462 35.9414 179.156 36.6622C179.02 36.9825 179.11 36.9992 178.654 36.9412V29.7998H192.489L192.49 29.8009Z" fill="#FDD502"/>
<path d="M64.8531 46.0921C65.0795 45.8087 65.2469 46.0999 65.3574 46.3688C65.8003 47.4445 65.7568 48.9609 66.3749 50.2609C67.4794 52.5863 70.7239 55.2599 72.4867 52.0518C75.2693 46.9881 67.996 44.5333 66.0123 41.0273C64.0285 37.5213 64.6745 28.8233 70.0333 29.4069C71.6343 29.581 72.2312 30.814 73.6437 31.1543L74.0019 29.3556C74.2105 29.2596 74.6702 29.5531 74.6702 29.6892V37.3885C73.9907 37.4957 74.3143 37.2167 74.2194 36.8451C73.6917 34.7853 73.4329 33.0077 71.6522 31.5917C69.3962 29.7975 67.2875 31.238 67.2875 33.9294C67.2875 38.2678 74.7394 39.9472 75.5047 45.5922C76.3047 51.495 72.4979 57.9903 66.4864 53.0427C65.4656 52.9512 65.4064 55.6404 64.7303 54.5736C64.5317 54.2601 64.8519 54.0961 64.8519 54.0146V46.0921H64.8531Z" fill="#FDD502"/>
<path d="M161.92 29.8009C162.031 30.4671 161.746 30.1546 161.398 30.2718C159.84 30.7951 159.813 30.8342 159.679 32.5805C159.197 38.8917 160.042 45.83 159.71 52.2082C159.773 52.6601 159.978 53.295 160.337 53.5896C160.901 54.0527 161.614 53.7045 161.921 54.3483H153.665C154.453 53.4702 155.635 54.2334 155.882 52.6601C155.463 46.0454 156.486 38.654 155.906 32.1319C155.772 30.6266 155.414 30.6847 154.187 30.2707C153.839 30.1535 153.552 30.466 153.665 29.7998H161.921L161.92 29.8009Z" fill="#FDD502"/>
<path d="M193.827 65.9498C193.25 66.1049 191.328 67.9114 191.197 68.3421C190.87 69.4223 191.539 70.7434 191.666 71.8068C191.699 72.088 191.939 72.1215 191.481 72.4272L187.915 70.6553L184.235 72.425C184.332 71.308 185.173 69.3843 184.859 68.3444C184.655 67.6704 182.845 66.501 182.376 65.9643C182.158 65.7132 182.21 65.5949 182.224 65.2858C182.356 65.1564 185.199 65.1988 185.882 64.8138C186.918 64.228 187.105 61.878 188.247 61.2688C188.759 62.4304 189.239 64.6877 190.639 65.0158C190.933 65.085 194.426 65.1285 193.827 65.9509V65.9498Z" fill="#FDD502"/>
<path d="M165.395 169.187C152.245 185.166 126.185 198.33 105.24 193.273C90.3939 189.689 84.1794 177.034 88.1703 162.586C94.3602 140.179 122.367 120.794 145.061 119.505C179.175 117.566 184.396 146.097 165.394 169.186L165.395 169.187Z" fill="#241F23"/>
<path d="M134.026 145.404L126.212 149.08C117.21 154.624 108.745 163.55 106.46 174.183C104.425 183.652 107.284 188.73 116.988 190.005C118.556 190.21 120.406 190.072 121.811 190.314C122.166 190.375 122.758 190.52 122.87 190.926C121.025 190.684 119.193 191.299 117.412 191.384C112.675 191.611 107.877 191.106 103.385 189.605C102.045 187.513 101.202 184.959 100.839 182.5C98.4025 165.974 115.948 145.055 129.632 137.548C130.072 137.307 130.675 136.918 131.181 136.963C131.826 137.02 134.971 138.267 135.808 138.599C136.313 138.8 138.648 140.08 138.819 140.046C139.656 139.883 138.495 137.582 138.142 137.157C137.178 135.999 135.578 135.772 134.699 135.02C134.354 134.726 134.529 134.698 134.838 134.497C135.575 134.017 138.059 132.647 138.816 132.668C140.67 132.721 143.97 134.831 145.852 135.357C146.285 132.741 143.969 131.801 142.284 130.451C143.378 130.213 144.596 129.268 145.625 128.989C147.205 128.562 150.925 130.548 152.439 131.335C153.279 130.206 151.981 128.768 151.099 127.992C150.675 127.619 149.814 127.572 149.872 126.878C166.097 122.714 171.243 139.545 166.041 152.087C160.852 164.601 144.953 177.28 131.628 179.711C116.835 182.41 111.337 173.959 118.985 161.264C122.797 154.936 128.495 150.142 134.028 145.402L134.026 145.404Z" fill="white"/>
<path d="M151.877 122.418C151.847 122.741 151.034 122.925 150.774 122.985C148.219 123.579 143.928 125.006 141.706 125.297C139.726 125.557 137.026 124.739 134.92 125.096C134.968 125.378 135.773 125.563 136.042 125.644C136.846 125.886 138.007 125.835 138.488 126.654L132.779 128.868L126.439 128.667L130.455 130.006C130.536 130.116 130.116 130.458 129.995 130.547C129.564 130.865 125.649 133.245 125.387 133.303C124.249 133.558 120.341 133.041 119.964 133.234C119.871 133.282 119.689 133.498 119.744 133.57L123.313 134.468L123.209 134.919C120.433 136.974 117.579 138.947 114.854 141.068C106.952 147.218 99.0306 154.098 94.7831 163.397C92.7648 167.816 91.4214 172.679 91.1793 177.536C90.8257 178.021 90.1295 174.519 90.0926 174.274C88.0632 160.548 99.3062 145.729 109.373 137.596C121.148 128.083 136.511 121.643 151.874 122.417L151.877 122.418Z" fill="white"/>
<path d="M157.458 149.641C158.473 149.571 158.95 148.134 159.97 148.336C160.59 148.458 162.412 150.532 162.338 151.041C162.205 151.478 161.902 151.789 161.595 152.106C160.742 152.984 158.406 155.16 157.446 155.767C155.815 156.798 154.678 154.032 154.267 152.722C153.72 150.981 153.666 145.846 152.107 145.063C150.73 144.37 152.325 146.7 152.305 146.822C151.973 147.782 149.794 148.294 149.957 149.201C150.077 149.863 151.236 152.2 151.621 152.916C152.138 153.881 154.802 157.459 154.805 158.012C154.808 158.667 153.226 160.136 152.7 160.092C151.316 159.978 148.358 154.114 147.761 152.759C147.333 151.786 146.906 150.699 146.748 149.641C144.321 150.272 144.499 152.607 142.173 149.868C141.486 149.058 140.765 148.489 141.616 147.518C142.027 147.049 145.771 144.04 146.319 143.742C146.667 143.552 147.123 143.664 147.547 143.408C148.347 142.926 148.276 141.461 150.082 141.035C154.62 139.966 157.595 145.817 157.463 149.64L157.458 149.641Z" fill="#241F23"/>
<path d="M133.583 162.811C133.001 166.566 129.903 162.991 129.796 161.348C129.746 160.58 130.379 159.523 130.458 158.683C130.565 157.539 129.954 156.22 130.399 155.274C130.707 154.618 132.383 153.686 133.039 154.314L142.698 169.449C142.832 170.396 140.496 171.887 139.484 171.304C138.067 170.488 135.351 164.575 134.13 163.043L133.584 162.811H133.583Z" fill="#241F23"/>
<path d="M147.509 157.248C145.852 154.323 141.151 147.785 137.218 149.821C132.213 152.412 137.841 162.055 142.73 161.473C139.112 163.968 144.322 167.234 147.059 166.135C150.749 164.653 148.912 159.723 147.509 157.248ZM139.868 155.517C139.721 155.273 138.879 153.973 139.499 153.883C140.167 153.785 141.926 156.098 142.018 156.721C142.287 158.553 140.23 156.119 139.868 155.519V155.517Z" fill="#241F23"/>
<path d="M156.788 151.427C157.286 151.957 158.945 149.467 159.615 149.451C159.868 149.428 161.257 150.755 161.374 150.983C161.609 151.436 160.459 152.354 160.137 152.657C159.454 153.298 158.366 154.325 157.658 154.863C157.381 155.074 156.94 155.531 156.569 155.347C153.867 154.009 155.152 145.512 152.336 144.609C151.501 144.341 150.55 144.478 150.555 145.515C150.56 146.296 152.131 147.029 150.252 147.912C149.297 148.36 148.363 145.889 148.303 145.062C148.04 141.493 152.165 141.322 154.229 143.384C156.173 145.326 156.654 148.793 156.788 151.426V151.427Z" fill="#FDD502"/>
<path d="M142.091 148.332C143.618 147.762 145.199 145.425 146.532 144.842C147.435 144.447 147.898 145.845 148.192 146.522C149.543 149.626 150.085 152.21 151.922 155.29C152.362 156.027 154.263 158.02 153.778 158.791C153.69 158.932 152.862 159.466 152.691 159.437C151.963 159.315 149.196 154.427 148.781 153.52C148.434 152.763 147.182 148.789 146.976 148.63C146.641 148.373 146.627 148.61 146.41 148.749C145.736 149.179 144.475 150.608 143.745 150.545C143.237 150.502 141.839 148.773 142.091 148.332Z" fill="#FDD502"/>
<path d="M143.775 160.51C142.668 161.746 139.824 160.366 138.826 159.462C138.272 158.961 136.901 157.033 136.594 156.338C134.597 151.828 137.596 148.938 141.777 151.824C143.907 153.294 147.949 159.033 148.289 161.602C148.943 166.536 144.364 167.249 142.051 163.592C142.029 163.299 143.406 162.154 143.511 162.153C143.615 162.152 144.296 163.201 145.29 163.045C146.673 162.827 145.297 159.808 144.739 159.125C144.356 158.855 143.981 160.28 143.775 160.511V160.51ZM142.451 158.293C143.814 156.873 140.264 152.432 138.697 153.533C137.453 154.966 141.241 159.551 142.451 158.293Z" fill="#FDD502"/>
<path d="M133.576 161.025C133.198 160.655 133.198 161.092 133.138 161.359C132.94 162.235 132.761 163.081 132.461 163.925C132.014 164.267 130.491 162.019 130.47 161.59C130.447 161.11 131.045 160.079 131.125 159.353C131.317 157.616 130.002 155.376 132.462 155.318L141.624 169.829C141.55 170.655 139.95 171.261 139.368 170.521L133.575 161.026L133.576 161.025Z" fill="#FDD502"/>
</g>
<defs>
<clipPath id="clip0_3438_1485">
<rect width="256" height="256" fill="white"/>
</clipPath>
</defs>
</svg>
