<svg width="256" height="256" viewBox="0 0 256 256" fill="none" xmlns="http://www.w3.org/2000/svg">
<path d="M12.8 3.25819C18.7346 6.63273 24.5528 9.19273 30.6037 11.4036C35.84 13.2655 41.0764 14.8946 46.4291 16.0582C52.8291 17.4546 59.2291 18.5018 65.8619 18.9673C69.9346 19.2 73.891 19.5491 77.9637 19.2C82.6182 18.8509 87.2728 18.3855 91.9273 17.5709C104.378 15.2436 115.666 10.3564 126.022 3.25819C127.535 2.21092 128.582 1.86182 130.444 3.14182C135.913 7.21455 142.08 10.3564 148.364 12.9164C152.436 14.5455 156.626 15.8255 161.047 16.7564C165.935 17.8036 170.822 18.5018 175.709 18.9673C180.015 19.3164 184.32 19.5491 188.509 19.2C193.862 18.8509 199.331 18.3855 204.684 17.3382C215.273 15.1273 225.513 12.1018 235.287 7.56364C237.964 6.28364 240.64 5.12001 243.2 3.49092C243.782 3.84001 243.549 4.42182 243.549 5.00364C243.549 11.8691 243.782 18.7346 243.2 25.4836C242.735 30.8364 242.851 36.3055 242.036 41.6582C241.571 45.1491 241.571 48.7564 241.105 52.2473C240.64 56.7855 239.942 61.2073 239.244 65.7455C238.662 69.7018 238.196 73.6582 237.498 77.6145C236.8 81.6873 235.986 85.76 235.171 89.8327C233.658 96.5818 232.378 103.447 230.516 110.196C228.538 117.527 226.327 124.742 223.884 131.956C220.276 142.778 216.204 153.367 211.316 163.607C206.08 174.778 200.378 185.6 193.629 195.956C188.858 203.287 183.855 210.269 178.385 217.018C169.542 227.724 159.767 237.498 148.015 245.178C143.127 248.32 137.775 250.764 132.189 252.509C128 253.905 124.276 252.742 120.553 251.345C107.869 246.575 97.8619 238.196 88.4364 228.771C78.4291 218.764 69.9346 207.593 62.371 195.724C56.32 186.415 51.0837 176.64 46.3128 166.633C42.9382 159.651 39.7964 152.436 37.12 145.222C33.5128 135.68 30.2546 126.022 27.4619 116.247C25.8328 110.08 24.2037 103.913 22.8073 97.7455C21.2946 91.4618 20.131 85.0618 19.0837 78.6618C17.8037 71.3309 16.5237 64 15.7091 56.5527C15.011 49.8036 14.4291 43.1709 13.9637 36.4218C13.6146 30.8364 13.6146 25.1346 13.1491 19.6655C12.6837 14.3127 13.0328 8.96001 12.8 3.25819Z" fill="#E5262A"/>
<path d="M240.524 20.0145C239.825 33.5127 238.895 46.8945 237.149 60.2764C234.356 81.6873 230.051 102.865 223.535 123.462C216.902 144.64 208.407 165.004 197.353 184.204C186.298 203.287 173.265 220.858 156.393 235.171C151.156 239.593 145.338 243.316 139.171 246.575C131.607 250.531 124.393 250.182 116.829 246.342C107.287 241.338 99.0255 234.822 91.5782 227.258C75.2873 210.967 62.8364 192 52.3637 171.636C40.8437 148.945 32.5819 125.091 26.6473 100.422C22.2255 81.5709 19.2 62.4873 17.571 43.0545C16.7564 32.2327 16.1746 21.4109 16.0582 10.4727C16.0582 8.84363 16.1746 8.49454 17.8037 9.30908C34.56 17.1054 52.0146 21.76 70.6328 22.2254C90.7637 22.8073 109.265 18.0364 126.022 6.98181C127.651 5.93454 129.164 6.16726 130.793 7.21454C146.851 17.6873 164.538 22.5745 183.622 22.4582C201.309 22.3418 218.065 18.2691 234.356 11.4036C235.869 10.7054 237.382 10.1236 238.895 9.30908C240.058 8.72726 240.64 8.72726 240.64 10.3564C240.524 13.6145 240.524 16.7564 240.524 20.0145Z" fill="#FEFEFE"/>
<path d="M23.3892 15.9418C23.3892 14.1963 23.971 14.4291 25.1346 15.0109C36.5383 21.2945 48.6401 25.3673 61.4401 27.4618C82.7346 31.0691 102.982 28.6254 121.833 17.3382C123.811 16.0582 125.789 14.6618 128 13.7309C128.698 13.3818 129.28 13.2654 129.978 13.7309C137.193 19.3163 145.338 23.04 154.066 25.6C168.96 29.9054 183.971 29.7891 199.098 26.7636C210.618 24.4363 221.556 20.7127 231.796 14.8945C233.193 14.08 233.309 14.6618 233.309 15.9418C233.426 26.9963 233.076 37.9345 232.146 48.8727C231.331 60.16 229.818 71.3309 227.956 82.3854C223.186 110.08 215.389 136.96 203.287 162.444C194.327 181.295 183.506 198.865 169.542 214.342C161.746 222.953 153.367 230.749 143.127 236.335C138.473 238.895 133.586 241.454 128 241.338C122.88 241.105 118.342 238.778 113.92 236.335C102.516 229.935 93.3237 221.091 84.8292 211.316C67.9564 191.535 55.7383 169.076 46.1964 144.989C38.1673 125.207 32.6982 104.727 28.9746 83.6654C26.0655 67.2582 24.3201 50.6182 23.7383 33.8618C23.7383 33.3963 23.3892 21.5272 23.3892 15.9418Z" fill="#E5262A"/>
<path d="M128.116 150.924C152.436 150.924 204.567 150.924 204.567 150.924C204.567 150.924 204.335 151.505 203.636 152.902C200.727 159.535 197.586 166.051 194.211 172.451C187.578 184.785 180.015 196.538 170.938 207.36C162.56 217.367 153.367 226.444 142.08 233.076C138.473 235.171 134.633 237.033 130.444 237.731C125.789 238.545 121.716 236.567 117.76 234.589C106.822 229.12 98.0947 220.975 90.0656 212.131C80.4074 201.542 72.3783 189.905 65.3965 177.455C60.9747 169.658 57.0183 161.629 53.411 153.367C52.4801 151.156 52.4801 151.156 52.4801 151.156C76.6837 151.04 103.564 150.924 128.116 150.924Z" fill="#1D4093"/>
<path d="M27.2291 31.8836C27.1127 28.0436 27.2291 24.2036 27.2291 20.2473C31.6509 22.2255 36.1891 24.32 40.8436 25.8327C44.9164 27.1127 48.9891 28.3927 53.0618 29.3236C59.9273 30.9527 66.7927 32.2327 73.7745 32.3491C93.5564 32.5818 101.004 29.6727 104.727 28.6255C111.36 26.7636 117.644 23.8545 123.462 20.2473C124.276 19.7818 125.091 19.2 125.905 18.7346C127.418 17.6873 129.047 17.6873 130.56 18.7346C139.985 25.1346 150.458 29.0909 161.745 31.1855C164.655 31.7673 176.989 34.3273 201.775 29.9055C208.407 28.3927 214.924 26.5309 221.207 23.8546C223.884 22.6909 226.56 21.5273 229.585 20.2473C229.702 36.0727 226.211 69.8182 226.211 69.8182C162.56 69.8182 94.1382 69.8182 30.6036 69.8182C30.4873 69.8182 27.6945 44.4509 27.2291 31.8836Z" fill="#1D4093"/>
<path d="M56.9019 85.2946H66.9091V114.036C66.9091 120.436 67.4909 129.28 75.9855 129.28C84.48 129.28 85.0619 120.32 85.0619 114.036V85.2946H95.0691V116.015C95.0691 128.582 89.7164 138.007 75.9855 138.007C62.2546 138.007 56.9019 128.582 56.9019 116.015V85.2946Z" fill="white"/>
<path d="M131.956 96.5818C130.095 94.0218 127.535 92.3927 124.276 92.3927C121.018 92.3927 117.993 94.8364 117.993 98.2109C117.993 106.822 138.356 103.215 138.356 120.553C138.356 130.909 131.956 138.124 121.484 138.124C114.385 138.124 109.149 134.051 105.658 128.116L112.175 121.716C113.571 125.673 117.178 129.164 121.484 129.164C125.556 129.164 128.116 125.673 128.116 121.716C128.116 116.364 123.229 114.851 119.156 113.338C112.524 110.662 107.636 107.287 107.636 99.2582C107.636 90.7637 114.036 83.7818 122.647 83.7818C127.185 83.7818 133.585 85.9927 136.727 89.4837L131.956 96.5818Z" fill="white"/>
<path d="M187.695 104.844H187.578L175.942 137.425H172.451L161.164 104.844H161.047L156.509 136.727H146.385L154.996 83.8982H162.095L174.778 117.76L186.88 83.8982H194.095L201.775 136.727H191.651L187.695 104.844Z" fill="white"/>
</svg>
