<svg width="256" height="256" viewBox="0 0 256 256" fill="none" xmlns="http://www.w3.org/2000/svg">
<path d="M225.052 59.5058L184.434 3.98224H73.2728L31.6301 59.5058L129.365 250.652L225.052 59.5058Z" fill="white" stroke="white" stroke-width="3" stroke-miterlimit="10"/>
<path d="M73.2728 3.98224H184.434L225.052 59.5058L129.365 250.652L31.6301 59.5058L73.2728 3.98224Z" fill="#1C3D70"/>
<path d="M225.052 59.5058L184.434 3.98224H73.2728L31.6301 59.5058H225.052Z" fill="#E52524"/>
<path d="M129.365 239.616L37.6604 59.5058L75.5484 8.53333L182.158 8.6471L219.022 59.5058L218.34 60.8711L129.365 239.616ZM43.5768 59.5058L129.252 228.124L212.992 59.5058L178.176 12.6293H79.1893L43.5768 59.5058Z" fill="white"/>
<path d="M109.568 139.947C107.065 133.348 103.538 126.862 100.124 120.718L100.238 121.515C100.693 123.449 100.238 123.563 98.304 123.676C95.1182 123.904 92.0462 123.449 89.6569 121.173C88.6329 120.149 87.9502 118.898 87.1538 117.646C86.8124 117.077 86.4711 116.622 86.3573 116.395C86.3573 116.281 86.3573 116.167 86.4711 116.167C90.3395 116.281 96.0284 116.281 99.328 119.353C95.9147 113.664 92.2738 108.43 88.1778 103.424C84.1955 98.6454 79.7582 94.208 74.9795 90.112C74.752 89.8845 74.6382 89.7707 74.4107 89.5431L74.2969 89.3156C80.4409 93.7529 87.04 99.2142 92.16 104.676C91.9324 103.31 90.9084 100.693 91.3635 98.5316C91.3635 98.4178 91.4773 98.304 91.7049 98.304C91.9324 98.4178 92.3875 98.5316 93.184 98.9867C93.4115 99.1005 93.5253 99.2143 93.7529 99.328C94.5493 99.8969 95.232 100.693 95.8009 101.49C96.7111 102.855 96.5973 103.993 97.9627 106.268C98.0764 106.382 97.9627 106.61 97.8489 106.724C96.4835 107.406 95.8009 107.292 94.5493 106.951C97.3938 110.592 100.238 114.119 102.969 117.76C102.969 117.646 102.969 117.419 102.855 117.191C102.059 115.143 102.514 113.209 103.31 111.275C103.424 110.933 103.538 110.592 103.652 110.478C103.765 110.251 103.993 110.137 104.22 110.251C107.179 111.616 108.43 114.233 108.658 116.736C108.772 117.532 108.544 119.922 108.544 121.06C108.544 121.287 108.316 121.515 108.089 121.401C107.748 121.401 107.292 121.401 106.496 121.287C106.041 121.287 105.7 121.173 105.131 121.06C106.837 123.904 108.43 126.521 110.251 129.593C110.023 126.066 110.478 122.88 112.412 120.036C112.526 119.922 112.754 119.808 112.868 119.922C113.095 120.036 113.323 120.149 113.436 120.263C115.94 122.539 117.191 125.383 116.964 128.796C116.85 130.617 116.964 131.641 114.233 132.551C113.55 132.779 112.64 132.551 112.185 132.437C115.029 139.036 118.101 146.204 120.946 153.031C120.832 153.031 120.718 151.097 121.173 150.3C121.515 149.732 121.856 148.935 122.766 148.935C123.335 148.935 124.018 149.845 124.245 150.528C124.928 152.462 124.814 153.6 123.904 155.42C123.676 155.989 122.539 156.9 121.97 155.762C124.587 164.523 126.635 175.104 128 184.661C128.341 184.32 136.761 172.942 136.761 172.942L145.18 173.17C144.043 174.649 142.677 176.583 141.312 178.29C143.246 177.38 144.27 175.445 146.66 175.218C146.318 175.9 145.977 176.356 145.749 176.697C140.629 185.572 128.91 205.028 127.659 207.076C127.545 207.303 127.317 207.303 127.204 207.303C126.748 207.303 125.952 206.962 124.245 205.71C125.724 202.866 127.317 199.68 128.683 196.722C128.455 196.608 125.042 201.842 124.359 202.866C123.335 204.459 122.88 204.8 121.856 204.231C120.604 203.548 120.036 202.183 120.377 200.704C120.718 199.452 122.539 195.356 123.221 194.219C123.221 194.219 123.221 190.009 122.994 186.482C122.88 183.979 122.311 181.362 121.742 178.859C120.832 174.876 120.036 170.78 118.784 166.912C116.281 158.834 110.023 141.084 109.909 140.971C109.909 140.971 110.251 142.108 110.251 142.336C110.706 144.953 110.364 145.067 107.748 144.839C105.358 144.725 102.969 144.27 100.921 142.905C98.8729 141.54 97.8489 139.719 97.5075 137.216C97.5075 136.988 97.6213 136.875 97.8489 136.875C100.58 136.875 107.52 137.899 109.568 139.947Z" fill="white"/>
<path d="M152.69 126.407C154.055 124.7 155.762 123.449 157.923 123.108C159.061 122.994 161.564 123.221 162.93 123.449C163.157 123.449 163.271 123.676 163.157 123.904C163.043 124.245 162.816 124.587 162.702 125.156C161.451 128.455 158.834 130.048 155.534 130.731C154.851 130.844 152.69 130.958 152.007 130.958C151.893 130.958 151.779 130.844 151.779 130.731C151.779 130.617 151.779 129.138 152.69 126.635C151.893 128.455 149.39 134.03 148.707 135.851C150.3 134.372 152.576 132.437 154.738 132.21C155.193 132.21 155.534 132.096 155.989 132.21C156.899 132.21 157.81 132.437 158.265 132.437C158.492 132.437 158.606 132.665 158.72 132.892C158.834 133.348 158.834 133.916 158.834 134.258C158.72 136.078 157.696 137.671 156.331 138.809C155.875 139.15 155.42 139.378 154.965 139.719C152.803 140.857 150.3 141.54 148.252 142.677C147.683 142.905 147.57 142.791 147.57 142.222C147.57 141.54 147.683 140.743 147.456 139.947C146.546 142.222 145.522 144.839 144.725 147.115C144.839 147.115 145.18 146.773 145.408 146.546C147.342 143.588 150.187 142.222 153.6 142.108C155.534 141.995 156.786 142.45 157.241 142.677C157.355 142.677 157.355 142.791 157.355 142.905C157.013 146.887 153.941 148.252 152.576 148.821C150.073 149.845 147.228 148.025 144.611 147.684C144.611 147.684 143.815 149.732 143.587 150.528C141.767 156.331 139.947 162.02 138.012 167.822C137.785 168.619 137.33 169.415 136.875 170.098C136.306 171.008 134.599 170.894 134.371 170.894C134.03 170.78 133.803 169.529 133.916 168.96C134.94 164.523 135.964 160.085 137.33 155.762C139.378 149.049 141.767 142.336 144.043 135.623C144.384 134.485 144.953 133.348 145.522 132.324C145.863 131.527 145.863 131.072 145.18 130.503C143.701 129.138 142.791 127.431 142.905 125.156C143.019 123.79 143.929 123.108 144.725 122.311C144.839 122.197 145.522 122.197 145.749 122.425C146.659 123.221 147.342 124.132 148.252 125.042C156.899 106.61 169.301 90.7947 185.571 78.2791C185.799 78.1653 185.913 78.1653 186.027 78.2791C185.685 78.2791 157.81 107.52 152.69 126.407Z" fill="white"/>
<path d="M147.001 107.634C146.432 108.658 145.863 109.796 145.294 110.82C143.36 114.005 141.994 114.802 137.443 115.484C137.443 115.712 137.33 115.94 137.33 116.167C136.874 121.742 136.533 127.317 135.85 132.892C134.826 141.312 132.323 149.276 128.91 156.9C128.341 158.265 126.521 159.63 124.814 160.085C124.473 160.199 124.245 159.972 124.245 159.63C124.245 159.516 124.245 159.289 124.359 159.061C124.586 157.696 124.586 156.217 125.269 155.079C127.772 150.073 129.251 144.725 130.503 139.264C131.186 136.42 131.641 133.461 131.982 130.617C132.551 126.293 133.12 121.856 133.347 117.532C133.575 111.502 133.575 105.472 133.461 99.328C133.461 96.4836 133.347 93.5253 133.006 90.6809C132.551 86.2436 131.186 76.9138 131.186 76.8C131.072 75.4347 132.21 77.4827 132.551 78.0516C134.144 81.0098 135.054 84.0818 135.623 87.3814C137.443 94.7769 137.33 108.772 137.557 112.868C137.898 112.299 138.126 111.957 138.354 111.502C140.174 108.316 142.791 106.155 146.432 105.358C150.3 104.562 152.462 107.065 152.69 110.137C152.917 112.64 152.576 115.029 151.666 117.305C151.552 117.532 151.438 117.646 151.324 117.874C151.21 118.101 150.983 118.101 150.755 117.988C149.504 117.419 148.821 116.395 148.366 115.257C147.456 113.095 147.57 110.933 147.911 108.772C148.025 107.861 148.48 106.155 148.594 105.244C148.252 105.244 147.228 107.065 147.001 107.634Z" fill="white"/>
<path d="M111.844 99.328C110.82 96.7111 111.616 94.0943 112.185 91.4774C112.412 90.3396 113.095 89.9983 114.005 90.6809C114.915 91.3636 115.939 92.2738 116.281 93.2978C117.191 95.5734 117.077 97.9627 116.167 100.238C115.484 102.059 115.143 102.172 113.209 101.148C114.005 102.514 114.574 103.652 115.257 104.789C118.329 110.364 120.491 116.395 121.742 122.766C122.197 124.928 122.425 127.09 122.766 129.252C122.88 129.934 122.88 130.617 122.766 131.3C122.652 132.551 121.856 133.348 120.832 133.348C119.694 133.348 119.125 132.551 118.898 131.527C118.556 130.162 118.329 128.91 118.329 127.545C117.987 123.108 117.191 119.353 115.94 115.484C112.071 104.22 105.017 95.3458 96.1422 87.7227C89.0879 81.6925 81.2373 76.8 73.0453 72.4765C72.4764 72.1351 71.9075 71.7938 71.4524 71.4525C71.4524 71.3387 71.7937 70.5423 74.5244 71.2249C80.0995 72.4765 84.8782 75.4347 89.6568 78.3929C98.4177 83.8543 106.041 90.4534 111.844 98.9867C111.616 99.1005 111.73 99.2143 111.844 99.328Z" fill="white"/>
<path d="M139.264 102.628C139.378 96.0284 143.246 91.2498 150.755 90.9084C151.097 90.9084 151.324 91.136 151.324 91.3636C152.462 96.0284 145.522 103.31 139.833 103.196C139.491 103.196 139.264 102.969 139.264 102.628Z" fill="white"/>
<path d="M163.271 109.682C163.043 109.682 162.93 109.454 162.93 109.227C163.043 108.999 165.319 105.472 166.684 104.448C168.846 102.741 171.349 101.376 174.307 101.376C175.331 101.376 176.128 101.831 176.811 102.514C177.152 102.855 177.266 103.31 177.379 103.765C177.948 106.724 174.876 108.43 173.056 108.999C167.708 110.82 164.181 109.796 163.271 109.682Z" fill="white"/>
<path d="M130.617 90.9085C130.617 93.0702 130.275 93.2978 128.569 93.0702C123.563 92.2738 119.922 88.6329 119.011 83.5129C119.011 83.2853 118.898 82.1476 118.898 81.4649C118.898 81.2373 119.125 81.1236 119.353 81.1236C122.197 81.3511 126.521 83.8542 128.569 86.2436C129.82 87.7227 130.617 89.4293 130.617 90.9085Z" fill="white"/>
<path d="M193.422 81.3511C193.536 81.3511 193.536 81.4649 193.536 81.5787C193.422 81.8062 193.195 82.3751 192.626 83.6267C190.919 87.2676 187.733 89.088 183.865 89.7707C183.182 89.8845 181.362 89.9982 180.565 89.9982C180.338 89.9982 180.224 89.8845 180.11 89.6569C180.11 89.4294 179.996 89.2018 179.996 88.8605C179.769 84.6507 181.817 82.1476 186.14 81.4649C187.392 81.3511 192.398 81.3511 193.422 81.3511Z" fill="white"/>
<path d="M139.491 89.9982C139.491 85.7885 141.426 82.6027 145.18 81.3511C146.432 80.896 147.797 81.1236 149.163 81.1236C150.073 81.1236 150.3 81.8062 150.187 82.7165C149.731 86.5849 147.57 89.2018 144.156 90.9085C143.132 91.3636 142.108 91.8187 141.084 92.0462C139.719 92.5013 139.605 92.2738 139.605 90.9085C139.491 90.6809 139.491 90.3396 139.491 89.9982Z" fill="white"/>
<path d="M132.21 103.424C133.12 106.496 132.323 107.52 129.138 107.065C125.952 106.61 123.107 103.652 122.539 100.124C122.311 98.7591 122.197 97.3938 122.083 96.0285C122.083 95.9147 122.197 95.8009 122.311 95.8009C123.79 96.256 130.844 99.1005 132.21 103.424Z" fill="white"/>
<path d="M195.925 68.7218C196.494 68.7218 197.859 68.7218 198.656 68.7218C198.883 68.7218 198.997 68.8356 198.883 69.0631L198.656 69.8596C197.746 73.6142 195.584 76.1174 191.829 77.1414C190.578 77.4827 189.212 77.5965 187.961 77.824C187.506 77.9378 187.164 77.9378 186.937 77.9378C186.709 77.9378 186.595 77.824 186.595 77.5965C186.595 72.8178 189.895 69.0631 193.877 68.8356C194.674 68.7218 195.356 68.7218 195.925 68.7218Z" fill="white"/>
<path d="M123.676 109.909C123.676 107.406 124.018 107.065 126.407 107.975C128 108.658 129.707 109.454 131.072 110.592C133.006 112.185 133.348 114.574 133.006 116.964C132.892 117.874 132.437 118.215 131.527 118.101C126.862 117.988 123.335 114.005 123.676 109.909Z" fill="white"/>
<path d="M123.563 139.605C123.221 141.995 121.628 145.636 120.149 147.456C120.036 147.57 119.922 147.57 119.808 147.456C119.58 147.115 119.125 146.432 118.67 145.408C117.874 143.588 117.077 141.767 116.508 139.833C115.826 137.557 116.964 135.396 118.898 134.144C119.808 133.575 120.149 133.348 120.946 133.916C122.652 135.054 123.335 136.988 123.676 138.695C123.676 139.15 123.676 139.378 123.563 139.605Z" fill="white"/>
<path d="M83.399 66.2187C83.399 66.1049 83.5128 65.9911 83.6266 66.1049C86.9261 67.3565 89.9981 68.7218 91.9324 71.9076C92.8426 73.3867 92.7288 75.0933 92.615 76.6862C92.615 76.9138 92.0461 77.3689 91.7048 77.3689C90.2257 77.5965 88.8604 77.0276 87.495 76.2311C84.6506 74.5245 82.9439 68.9493 83.399 66.2187Z" fill="white"/>
<path d="M102.4 84.7645C102.4 84.8782 102.172 84.992 102.059 84.8782C100.921 84.1956 99.6693 83.5129 98.6453 82.6027C96.0284 80.2133 94.8906 77.0276 94.7769 73.5005C94.7769 72.5902 95.1182 72.2489 96.0284 72.2489C97.8489 72.3627 99.4417 73.1591 100.58 74.5245C101.945 76.2311 102.741 78.0516 102.741 80.2133C102.855 81.5787 102.628 83.968 102.4 84.7645Z" fill="white"/>
<path d="M101.262 127.204C103.651 128.114 105.131 130.048 105.813 132.665C106.041 133.689 105.699 134.03 104.789 134.144C101.831 134.599 99.1003 133.916 97.0523 131.641C95.9145 130.389 94.8905 128.796 93.9803 127.317C93.6389 126.748 93.4114 126.407 93.2976 126.293C93.1838 126.18 93.2976 126.066 93.4114 126.066C95.5732 126.18 99.5554 126.635 101.262 127.204Z" fill="white"/>
<path d="M137.785 80.5547C137.785 76.0036 141.426 72.2489 145.749 70.7698C145.977 70.656 146.204 70.8836 146.204 71.1111C146.204 71.2249 146.204 71.4525 146.204 71.7938C146.204 75.6622 144.839 78.9618 141.881 81.4649C141.539 81.6925 141.084 82.0338 140.743 82.2614C138.467 83.5129 137.785 83.0578 137.785 80.5547Z" fill="white"/>
<path d="M162.588 118.443C161.678 118.556 160.768 118.556 159.858 118.443C159.289 118.329 158.72 118.329 158.151 118.215C157.241 118.101 157.241 117.646 157.468 116.964C158.72 114.46 160.768 112.981 163.271 112.185C164.75 111.73 166.343 111.73 167.936 112.071C169.756 112.412 170.553 112.754 169.984 114.005C169.074 116.395 167.14 117.646 164.75 118.101C164.068 118.329 163.271 118.443 162.588 118.443Z" fill="white"/>
<path d="M88.519 106.61C91.0221 107.406 91.3634 108.772 91.591 110.706C91.591 110.933 91.2497 111.388 91.0221 111.502C88.2914 112.185 85.6745 111.957 83.0577 111.047C81.351 110.478 80.0994 109.454 79.4168 107.861C79.0754 106.951 78.7341 106.382 78.6203 106.041C78.5065 105.927 78.6203 105.7 78.8479 105.7C80.2132 105.7 85.6745 105.358 88.519 106.61Z" fill="white"/>
<path d="M62.6914 80.6685C62.6914 80.4409 62.919 80.3271 63.1465 80.3271C65.3083 80.5547 67.1288 81.0098 68.8354 82.1476C71.111 83.6267 72.4763 86.8124 72.7039 89.5431C72.7039 89.8844 72.4763 90.112 72.135 90.112C72.0212 90.112 71.7937 89.9982 71.5661 89.9982C68.8354 89.3156 66.2185 88.4053 64.2843 86.2436C63.0328 84.5369 62.4639 82.7165 62.6914 80.6685Z" fill="white"/>
<path d="M123.904 63.9431C123.904 63.8294 124.018 63.7156 124.131 63.7156C128.455 63.9431 132.665 68.0391 132.551 71.9076C132.437 73.6142 131.413 74.4107 129.82 74.1831C127.09 73.8418 125.838 72.1351 125.042 69.8596C124.473 68.2667 123.904 64.2845 123.904 63.9431Z" fill="white"/>
<path d="M157.013 105.927C156.899 106.382 156.786 106.61 156.672 106.837C156.672 106.951 156.558 106.951 156.444 106.837C153.372 104.22 152.234 100.807 152.348 97.6214C152.462 95.8009 153.6 94.4356 155.42 93.8667C156.103 93.6391 156.786 93.6391 157.127 94.4356C157.81 95.9147 159.63 100.238 157.013 105.927Z" fill="white"/>
<path d="M178.176 78.3929C178.403 75.776 179.314 73.1591 181.362 71.2249C182.841 69.8596 185.116 69.632 186.709 70.656C187.506 71.2249 187.733 71.7938 187.392 72.704C186.254 76.0036 183.865 77.9378 180.906 79.3031C180.679 79.4169 179.427 79.9858 178.745 80.2134C178.517 80.3271 178.29 80.0996 178.29 79.872C178.062 79.5307 178.062 79.0756 178.176 78.3929Z" fill="white"/>
<path d="M93.639 91.7049C94.663 91.4774 95.687 91.4774 96.711 91.7049C98.5314 92.0462 100.238 92.8427 101.603 94.3218C102.059 94.7769 102.514 95.4596 102.741 96.1422C103.196 97.7351 102.741 98.304 101.148 98.0765C98.8728 97.7351 96.4834 97.5076 94.3217 96.9387C92.7288 96.5974 91.591 95.3458 91.1359 93.6391C90.9083 92.8427 91.1359 92.2738 91.9323 92.0462C92.3874 91.9325 93.0701 91.8187 93.639 91.7049Z" fill="white"/>
<path d="M103.083 150.414C103.083 150.3 103.196 150.3 103.196 150.3C106.496 151.666 109.227 152.576 112.412 154.169C114.233 155.079 115.029 156.444 115.484 157.468C115.939 158.265 115.484 158.834 114.46 158.948C109.227 159.972 105.131 156.331 103.651 152.348C103.538 151.893 103.083 150.756 103.083 150.414Z" fill="white"/>
<path d="M58.0266 65.7636C57.9128 65.536 58.1404 65.3085 58.3679 65.3085C61.6675 65.0809 64.5119 65.1947 67.2426 66.6738C68.6079 67.4702 69.5182 68.608 69.5182 70.3147C69.5182 71.1111 69.1768 71.5662 68.4942 71.68C65.3084 72.704 60.871 71.1111 59.1644 68.2667C58.5955 67.584 58.3679 66.7876 58.0266 65.7636Z" fill="white"/>
<path d="M82.1474 100.352C82.2612 100.466 82.2612 100.58 82.1474 100.693C80.6683 102.172 76.3447 102.172 73.3865 100.807C70.2007 99.328 68.1527 96.7111 68.4941 93.9805C68.4941 93.8667 68.7216 93.7529 68.8354 93.8667C73.6141 96.1422 78.6203 96.5973 82.1474 100.352Z" fill="white"/>
<path d="M166.912 84.1956C166.912 81.3511 167.481 79.1894 169.074 77.2551C170.439 75.6622 171.577 75.8898 172.26 77.824C173.056 79.9858 172.373 82.0338 171.691 84.0818C171.122 85.9022 170.439 87.6089 169.756 89.3156C169.415 90.6809 168.619 89.5431 168.505 89.3156C167.367 87.7227 166.798 85.7885 166.912 84.1956Z" fill="white"/>
<path d="M162.247 97.9627C162.133 98.0764 161.906 98.0764 161.792 97.9627C161.337 97.1662 160.882 96.3698 160.654 95.5733C159.744 93.0702 159.403 90.4533 160.085 87.8364C160.427 86.4711 160.995 85.3333 162.475 84.7644C163.612 84.3093 164.864 84.992 164.978 86.2436C165.433 89.088 164.978 91.9324 163.954 94.6631C163.499 95.4596 162.702 97.1662 162.247 97.9627Z" fill="white"/>
<path d="M85.7883 88.6329C84.4229 88.064 83.3989 86.8125 83.2852 85.2196C83.2852 84.992 83.2852 84.7645 83.1714 84.5369C83.1714 84.4231 83.2852 84.3094 83.3989 84.1956C85.9021 83.6267 88.9741 83.7405 91.3634 84.7645C92.6149 85.3334 93.5252 86.1298 93.9803 87.4951C94.4354 89.088 94.6629 90.4534 92.0461 90.2258C91.8185 90.3396 87.8363 89.4294 85.7883 88.6329Z" fill="white"/>
<path d="M105.358 88.6329C105.131 87.3814 105.244 86.1298 105.472 84.992C105.7 83.7405 105.927 82.4889 106.268 81.1236C106.496 80.2134 107.065 80.3271 107.748 80.6685C109.795 81.5787 110.478 83.6267 110.706 86.016C110.82 87.4951 110.706 88.9742 110.364 90.4534C110.137 91.3636 109.796 92.2738 108.544 92.3876C107.52 92.5014 106.268 91.3636 105.813 90.112C105.7 89.9982 105.7 89.6569 105.7 89.5431C105.472 89.2018 105.358 88.9742 105.358 88.6329Z" fill="white"/>
<path d="M133.802 71.2249C133.689 70.4284 133.802 69.632 134.03 68.8356C134.258 68.1529 134.485 67.3564 134.94 66.56C135.623 65.1947 136.988 64.8533 138.24 65.3084C139.605 65.8773 140.629 67.2427 140.515 68.608C140.288 71.3387 138.695 73.5005 136.988 75.4347C136.874 75.6622 136.078 75.5484 135.737 75.3209C134.371 74.2969 133.916 73.0453 133.802 71.2249Z" fill="white"/>
<path d="M170.78 99.6693C170.553 99.6693 170.211 99.6693 169.984 99.5556C169.643 99.5556 169.529 99.2142 169.643 98.9867C171.235 95.9147 176.355 92.6151 179.655 93.184C179.769 93.184 179.883 93.184 179.996 93.2978C182.044 93.8667 182.386 94.6631 181.134 96.3698C179.996 97.9627 178.29 98.6453 176.583 98.9867C174.763 99.328 172.828 99.4418 170.78 99.6693Z" fill="white"/>
<path d="M107.861 108.544C107.065 108.658 106.155 108.658 105.358 108.544C102.969 108.089 100.807 107.065 100.124 104.107C99.7831 102.628 99.4418 102.172 100.921 102.286C102.628 102.514 105.017 102.628 106.61 103.083C108.43 103.652 109.568 105.017 110.023 106.951C110.251 107.861 109.909 108.43 108.999 108.43C108.658 108.43 108.203 108.544 107.861 108.544Z" fill="white"/>
<path d="M71.566 63.6018C71.566 63.3742 71.7936 63.2605 72.0212 63.2605C74.7518 63.9431 77.1412 64.8534 79.1892 66.6738C80.3269 67.6978 80.6683 68.9494 80.5545 70.4285C80.4407 71.1111 79.8718 71.68 79.1892 71.7938C75.4345 71.9076 71.3385 67.8116 71.4523 64.0569C71.4523 63.9431 71.566 63.8294 71.566 63.6018Z" fill="white"/>
<path d="M121.173 72.3627C121.173 72.2489 121.401 72.1351 121.515 72.1351C125.952 72.704 129.365 75.3209 129.593 79.6445C129.593 80.6685 127.772 81.6925 126.521 81.1236C125.383 80.6685 124.245 79.872 123.449 78.9618C122.197 77.4827 120.832 73.5005 121.173 72.3627Z" fill="white"/>
<path d="M80.7821 77.7102C82.1474 78.9618 82.0337 79.872 80.5545 80.896C79.4168 81.5787 78.1652 81.8062 76.7999 81.4649C74.8657 81.0098 73.0452 80.3271 71.7936 78.7342C70.5421 77.2551 70.6559 76.6862 72.5901 76.1173C73.3865 75.6622 77.1412 75.2071 80.7821 77.7102Z" fill="white"/>
<path d="M144.384 117.305C144.725 117.305 144.953 117.532 144.953 117.874C144.953 119.808 144.498 121.628 143.246 123.221C141.995 124.814 140.288 125.497 138.354 125.724C138.012 125.724 137.33 125.383 137.33 125.042C136.761 120.491 140.288 117.305 144.384 117.305Z" fill="white"/>
<path d="M80.0994 87.9502C80.0994 87.7227 80.3269 87.6089 80.5545 87.7227C82.9438 88.1778 85.902 90.7947 86.8123 93.4116C87.0398 94.3218 87.2674 95.9147 86.8123 96.0285C85.902 96.256 84.7643 96.3698 83.9678 96.0285C81.6923 94.8907 79.3029 91.136 80.0994 87.9502Z" fill="white"/>
<path d="M141.767 137.785C141.198 138.468 140.402 139.036 139.378 138.695C138.24 138.24 137.443 137.216 137.671 136.078C138.012 134.485 138.695 132.779 139.264 131.3C139.378 130.958 139.491 130.731 139.605 130.503C139.719 130.276 139.947 130.276 140.06 130.389C142.108 131.641 142.791 133.575 142.677 135.168C142.677 135.168 142.336 136.988 141.767 137.785Z" fill="white"/>
<path d="M132.665 154.51C132.779 154.396 133.006 154.283 133.234 154.396C135.282 155.989 135.964 159.403 134.827 161.564C134.371 162.475 132.665 163.271 131.868 163.044C130.958 162.816 130.389 161.564 130.617 160.313C130.844 158.265 131.755 155.762 132.665 154.51Z" fill="white"/>
<path d="M133.234 150.414C133.006 149.618 133.006 148.708 133.234 147.797C133.575 146.773 133.916 145.522 134.371 144.384C134.599 143.701 134.827 143.36 135.623 144.156C136.875 145.294 137.33 146.773 137.557 148.366C137.557 148.48 137.671 149.276 137.557 149.959C137.557 150.528 137.216 151.097 136.647 151.324C136.078 151.552 135.509 151.78 134.94 151.893C134.258 152.121 133.575 151.552 133.234 150.414Z" fill="white"/>
<path d="M92.0462 41.6427C92.0462 43.9182 91.9324 45.5111 91.8187 46.5351C91.7049 47.4453 91.136 48.2418 90.3396 48.9244C89.5431 49.6071 88.2915 49.8347 86.5849 49.8347C84.992 49.8347 83.6267 49.4933 82.7164 48.8107C81.8062 48.128 81.2373 47.2178 81.0098 46.08C80.896 45.3973 80.7822 43.8044 80.7822 41.3013V25.3724H74.1831V41.0738C74.1831 44.3733 74.4107 46.8764 74.752 48.4693C74.9795 49.6071 75.6622 50.7449 76.4587 51.7689C77.3689 52.7929 78.5067 53.7031 80.0996 54.3858C81.5787 55.0684 83.8542 55.4098 86.6987 55.4098C89.088 55.4098 91.0222 55.0684 92.5013 54.4996C93.9804 53.9307 95.232 53.1342 96.1422 52.1102C97.0524 51.0862 97.6213 49.8347 97.9627 48.3555C98.304 46.8764 98.4178 44.3733 98.4178 40.96V25.3724H91.8187V41.6427H92.0462Z" fill="white"/>
<path d="M134.258 38.6845C132.892 38.0018 130.617 37.2054 127.658 36.5227C124.814 35.84 122.994 35.2711 122.197 34.5885C121.628 34.1334 121.401 33.6782 121.401 32.9956C121.401 32.3129 121.628 31.8578 122.197 31.4027C123.107 30.72 124.473 30.3787 126.179 30.3787C127.772 30.3787 129.024 30.72 129.82 31.2889C130.617 31.8578 131.186 32.8818 131.413 34.3609V34.5885L137.898 34.3609V34.1334C137.785 31.4027 136.761 29.2409 134.826 27.5342C132.892 25.9414 129.934 25.0311 126.179 25.0311C123.904 25.0311 121.856 25.3725 120.149 26.0551C118.442 26.7378 117.191 27.7618 116.281 29.1271C115.37 30.4925 114.915 31.8578 114.915 33.4507C114.915 35.84 115.826 37.888 117.76 39.4809C119.125 40.6187 121.401 41.6427 124.7 42.4391C127.203 43.008 128.796 43.4631 129.479 43.6907C130.503 44.032 131.186 44.3734 131.527 44.8285C131.868 45.2836 132.096 45.7387 132.096 46.4214C132.096 47.4454 131.641 48.2418 130.73 49.0382C129.82 49.8347 128.341 50.176 126.521 50.176C124.7 50.176 123.335 49.7209 122.311 48.9245C121.287 48.128 120.604 46.6489 120.263 44.8285V44.6009L113.891 45.1698V45.3974C114.346 48.6969 115.598 51.2 117.646 53.0205C119.694 54.7271 122.652 55.6374 126.521 55.6374C129.138 55.6374 131.413 55.296 133.12 54.6133C134.94 53.9307 136.306 52.7929 137.33 51.3138C138.354 49.8347 138.809 48.2418 138.809 46.5351C138.809 44.7147 138.354 43.008 137.557 41.7565C136.874 40.3911 135.737 39.3671 134.258 38.6845Z" fill="white"/>
<path d="M178.062 25.6H153.714V31.0614H162.588V55.1823H169.187V31.0614H178.062V25.6Z" fill="white"/>
<path d="M110.137 48.3556H103.538V54.8409H110.137V48.3556Z" fill="white"/>
<path d="M150.073 48.3556H143.474V54.8409H150.073V48.3556Z" fill="white"/>
<path d="M184.775 48.3556H178.176V54.8409H184.775V48.3556Z" fill="white"/>
<path d="M57.4576 135.282L61.326 133.12L62.4638 135.054L58.5954 137.102C57.3438 137.785 57.23 138.581 57.6852 139.378C58.1403 140.174 58.9367 140.402 60.0745 139.833L63.9429 137.785L64.9669 139.719L61.0985 141.881C59.0505 143.019 57.1163 142.45 55.9785 140.402C54.8407 138.24 55.4096 136.42 57.4576 135.282Z" fill="#1C3D70"/>
<path d="M59.0506 144.043L60.8711 143.929C60.7573 144.725 60.9848 145.863 61.4399 146.66C61.8951 147.456 62.3502 147.684 62.6915 147.456C63.8293 146.887 60.7573 143.246 63.3742 141.881C64.6257 141.198 66.2186 141.653 67.3564 143.701C67.8115 144.612 68.1528 145.636 68.1528 146.546L66.3324 146.773C66.3324 145.863 66.1048 145.18 65.7635 144.498C65.3084 143.701 64.8533 143.474 64.5119 143.701C63.4879 144.27 66.4462 147.797 63.8293 149.276C62.5777 149.959 60.9848 149.504 59.8471 147.456C59.2782 146.318 58.9368 144.953 59.0506 144.043Z" fill="#1C3D70"/>
<path d="M70.0868 152.804L68.949 150.642L70.5419 149.732L73.9553 155.989L72.3624 156.9L71.2246 154.738L65.7633 157.696L64.6255 155.762L70.0868 152.804Z" fill="#1C3D70"/>
<path d="M71.7937 162.93L69.2906 164.295L68.1528 162.361L70.6559 160.996L73.6142 155.876L74.7519 157.924L72.9315 161.109L76.6862 161.223L77.7102 163.157L71.7937 162.93Z" fill="#1C3D70"/>
<path d="M74.6379 169.529L74.0691 168.391L72.2486 169.415L71.1108 167.481L78.1651 163.612L79.8717 166.798C80.8957 168.732 80.5544 170.439 78.9615 171.349C77.9375 171.918 76.9135 171.804 76.0033 171.236L74.6379 173.966L73.5002 171.804L74.6379 169.529ZM78.1651 167.481L77.5962 166.343L75.5482 167.481L76.1171 168.619C76.5722 169.415 77.1411 169.643 77.8237 169.301C78.5064 168.96 78.6202 168.391 78.1651 167.481Z" fill="#1C3D70"/>
<path d="M78.3927 172.601C80.5545 171.463 82.9438 172.26 84.1953 174.535C85.4469 176.811 84.7642 179.314 82.7162 180.452C80.5545 181.589 78.1651 180.793 76.9136 178.517C75.662 176.242 76.3447 173.739 78.3927 172.601ZM81.5785 178.404C82.83 177.721 83.1713 176.469 82.4887 175.445C81.9198 174.421 80.6682 173.966 79.4167 174.649C78.1651 175.332 77.8238 176.583 78.5064 177.607C79.1891 178.631 80.4407 178.972 81.5785 178.404Z" fill="#1C3D70"/>
<path d="M80.0994 182.5L81.9198 182.386C81.806 183.182 82.0336 184.32 82.4887 185.116C82.9438 185.913 83.3989 186.14 83.7403 185.913C84.878 185.344 81.806 181.703 84.4229 180.338C85.6745 179.655 87.2674 180.11 88.4051 182.158C88.8603 183.068 89.2016 184.092 89.2016 185.003L87.3811 185.23C87.3811 184.32 87.1536 183.637 86.8123 182.955C86.3571 182.158 85.902 181.931 85.5607 182.158C84.5367 182.727 87.4949 186.254 84.878 187.733C83.6265 188.416 82.0336 187.961 80.8958 185.913C80.3269 184.775 80.0994 183.41 80.0994 182.5Z" fill="#1C3D70"/>
<path d="M83.7403 188.985L85.5608 188.871C85.447 189.668 85.6745 190.805 86.1296 191.602C86.5848 192.398 87.0399 192.626 87.3812 192.398C88.519 191.829 85.447 188.188 88.0639 186.823C89.3154 186.14 90.9083 186.596 92.0461 188.644C92.5012 189.554 92.8425 190.578 92.8425 191.488L91.0221 191.716C91.0221 190.805 90.7945 190.123 90.4532 189.44C89.9981 188.644 89.543 188.416 89.2016 188.644C88.1776 189.212 91.1359 192.74 88.519 194.219C87.2674 194.901 85.6745 194.446 84.5368 192.398C83.9679 191.26 83.6265 189.895 83.7403 188.985Z" fill="#1C3D70"/>
<path d="M91.4771 201.045L89.998 201.842L86.926 196.153L93.9802 192.284L97.0522 197.746L95.5731 198.542L93.6389 195.015L92.5011 195.698L94.2078 198.77L92.7287 199.566L91.022 196.494L89.7705 197.177L91.4771 201.045Z" fill="#1C3D70"/>
<path d="M95.687 207.986L95.1181 206.848L93.2977 207.872L92.1599 205.938L99.2141 202.069L100.921 205.255C101.945 207.189 101.603 208.896 100.011 209.806C98.9866 210.375 97.9626 210.261 97.0524 209.692L95.687 212.423L94.5492 210.261L95.687 207.986ZM99.3279 206.052L98.759 204.914L96.711 206.052L97.2799 207.189C97.735 207.986 98.3039 208.213 98.9866 207.872C99.6692 207.531 99.783 206.848 99.3279 206.052Z" fill="#1C3D70"/>
<path d="M99.3277 211.627L103.196 209.465L104.334 211.399L100.465 213.447C99.2139 214.13 99.1002 214.926 99.5553 215.723C100.01 216.519 100.807 216.747 101.945 216.178L105.813 214.13L106.837 216.064L102.969 218.226C100.921 219.364 98.9864 218.795 97.8486 216.747C96.7108 214.585 97.2797 212.764 99.3277 211.627Z" fill="#1C3D70"/>
<path d="M106.837 223.915L107.747 225.621L104.789 227.214C103.765 226.759 102.855 225.735 102.286 224.711C101.035 222.436 101.717 220.046 103.765 218.795C105.927 217.657 108.316 218.453 109.568 220.729C110.251 222.094 110.364 223.346 110.023 224.484L108.203 223.801C108.43 223.004 108.43 222.322 108.089 221.639C107.406 220.388 106.155 220.046 105.017 220.729C103.879 221.412 103.424 222.663 104.107 223.801C104.334 224.142 104.562 224.484 104.903 224.711L106.837 223.915Z" fill="#1C3D70"/>
<path d="M110.364 234.61C109.113 235.292 107.861 234.61 106.837 232.789L104.789 229.035L111.843 225.166L113.778 228.693C114.802 230.514 114.574 231.879 113.436 232.448C112.754 232.789 112.071 232.789 111.388 232.334C111.616 233.358 111.274 234.155 110.364 234.61ZM109.568 232.448C110.023 232.22 110.137 231.652 109.682 230.969L108.771 229.262L107.292 230.059L108.202 231.765C108.658 232.562 108.999 232.789 109.568 232.448ZM111.502 227.897L110.137 228.693L110.933 230.059C111.274 230.741 111.73 230.969 112.185 230.741C112.64 230.514 112.64 230.059 112.298 229.376L111.502 227.897Z" fill="#1C3D70"/>
<path d="M113.55 238.933L111.047 240.299L109.909 238.364L112.412 236.999L115.371 231.879L116.508 233.927L114.688 237.113L118.443 237.227L119.467 239.161L113.55 238.933Z" fill="#1C3D70"/>
<path d="M144.043 241.892C141.767 240.754 140.971 238.137 142.222 235.748C142.905 234.382 144.043 233.472 145.294 233.244L145.863 235.179C145.067 235.406 144.498 235.748 144.043 236.544C143.474 237.796 143.815 239.047 145.18 239.73C146.432 240.412 147.797 239.957 148.366 238.706C148.707 238.023 148.707 237.227 148.366 236.43L150.3 235.634C150.869 236.885 150.755 238.251 150.073 239.616C148.821 242.119 146.318 243.029 144.043 241.892Z" fill="#1C3D70"/>
<path d="M145.18 228.466L144.498 229.831L143.587 227.556L144.498 225.735L146.887 225.166L146.204 226.532L144.953 227.1L145.18 228.466ZM152.235 225.621C154.51 226.759 155.307 229.376 154.055 231.765C152.803 234.155 150.3 235.179 148.025 234.041C145.749 232.903 144.953 230.286 146.204 227.897C147.342 225.394 149.845 224.484 152.235 225.621ZM151.097 227.783C149.731 227.1 148.48 227.556 147.911 228.693C147.342 229.831 147.683 231.196 149.049 231.879C150.414 232.562 151.666 232.107 152.235 230.969C152.803 229.717 152.348 228.352 151.097 227.783Z" fill="#1C3D70"/>
<path d="M151.438 221.867L150.3 224.142L148.594 223.232L152.007 216.405L153.714 217.316L152.576 219.591L158.492 222.549L157.468 224.711L151.438 221.867Z" fill="#1C3D70"/>
<path d="M161.337 212.651L163.044 213.447L159.971 219.591L152.348 215.836L155.307 209.92L157.013 210.716L155.079 214.585L156.331 215.268L158.037 211.854L159.63 212.651L157.924 216.064L159.289 216.747L161.337 212.651Z" fill="#1C3D70"/>
<path d="M164.181 209.351L162.93 207.872C163.726 207.417 164.523 206.62 164.978 205.71C165.433 204.8 165.319 204.345 164.978 204.117C163.726 203.548 162.475 208.327 159.63 206.848C158.265 206.165 157.696 204.459 158.834 202.297C159.289 201.273 160.085 200.363 160.882 199.908L162.133 201.387C161.337 201.956 160.768 202.524 160.54 203.207C160.085 204.117 160.199 204.572 160.654 204.8C161.792 205.369 163.157 200.59 165.888 202.069C167.253 202.752 167.822 204.459 166.684 206.62C166.002 207.758 165.091 208.896 164.181 209.351Z" fill="#1C3D70"/>
<path d="M165.319 200.476L161.109 198.315L162.133 196.153L166.229 198.201C167.481 198.884 168.277 198.542 168.732 197.632C169.187 196.722 168.96 195.925 167.594 195.243L163.498 193.195L164.522 191.033L168.732 193.195C171.008 194.332 171.577 196.267 170.439 198.542C169.415 200.932 167.481 201.614 165.319 200.476Z" fill="#1C3D70"/>
<path d="M165.319 189.781L167.14 186.14C168.391 183.637 170.78 182.613 173.056 183.751C175.332 184.889 176.014 187.392 174.763 189.895L172.942 193.536L165.319 189.781ZM172.942 189.212C173.625 187.961 173.284 186.709 171.918 186.027C170.553 185.344 169.415 185.799 168.732 187.164L168.05 188.53L172.26 190.578L172.942 189.212Z" fill="#1C3D70"/>
<path d="M171.463 177.607L172.487 175.445L178.403 178.404L180.224 174.763L181.93 175.673L179.086 181.476L171.463 177.607Z" fill="#1C3D70"/>
<path d="M183.41 168.96L181.817 172.146L182.955 173.511L181.817 175.673L175.9 168.505L176.924 166.343L186.254 166.798L185.116 169.074L183.41 168.96ZM181.589 168.732L178.631 168.505L180.565 170.667L181.589 168.732Z" fill="#1C3D70"/>
<path d="M182.727 155.193L190.35 158.948L189.44 160.768L183.751 162.133L187.847 164.181L186.823 166.229L179.2 162.475L180.11 160.654L185.799 159.289L181.703 157.241L182.727 155.193Z" fill="#1C3D70"/>
<path d="M183.41 153.714L185.23 150.073C186.482 147.57 188.871 146.546 191.147 147.684C193.422 148.821 194.105 151.324 192.853 153.828L191.033 157.468L183.41 153.714ZM191.033 153.145C191.715 151.893 191.374 150.642 190.009 149.959C188.643 149.276 187.506 149.732 186.823 151.097L186.14 152.462L190.35 154.51L191.033 153.145Z" fill="#1C3D70"/>
<path d="M196.949 141.653L198.656 142.45L195.584 148.594L187.961 144.839L190.919 138.923L192.626 139.719L190.691 143.588L191.943 144.27L193.65 140.857L195.242 141.653L193.536 145.067L194.901 145.749L196.949 141.653Z" fill="#1C3D70"/>
<path d="M198.201 141.426L196.949 139.947C197.746 139.492 198.542 138.695 198.997 137.785C199.452 136.875 199.339 136.42 198.997 136.192C197.746 135.623 196.494 140.402 193.65 138.923C192.284 138.24 191.715 136.533 192.853 134.372C193.308 133.348 194.105 132.437 194.901 131.982L196.153 133.461C195.356 134.03 194.787 134.599 194.56 135.282C194.105 136.192 194.219 136.647 194.674 136.875C195.811 137.444 197.177 132.665 199.907 134.144C201.273 134.827 201.842 136.533 200.704 138.695C200.021 139.947 199.111 140.971 198.201 141.426Z" fill="#1C3D70"/>
</svg>
