<svg width="256" height="256" viewBox="0 0 256 256" fill="none" xmlns="http://www.w3.org/2000/svg">
<g clip-path="url(#clip0_3005_21752)">
<path d="M75.3582 153.889C75.6871 153.499 83.2497 153.594 84.4496 153.613C85.81 153.634 89.0229 154.55 89.2518 152.91C89.486 151.254 86.4521 145.038 85.46 143.388C83.2786 139.761 78.9764 136.376 75.0083 134.892C65.83 131.454 56.215 137.005 54.8599 146.677C54.6941 147.867 55.3335 151.012 53.66 151.007C50.5786 150.357 46.9474 150.681 44.1081 149.225C34.5036 144.303 32.5459 134.531 35.0115 124.456C37.8928 112.681 46.9763 100.069 59.7253 98.1157C73.1663 96.0576 85.8284 108.659 92.2516 119.221C93.0621 120.556 96.5776 128.475 97.3459 128.63C98.5985 128.883 98.2748 126.935 98.1801 126.185C97.4459 120.371 94.5935 112.439 93.1647 106.462C88.9124 88.6461 83.7049 68.4249 84.5549 50.0435C85.3443 32.9412 93.4094 19.0236 104.693 6.75617C106.095 5.23228 109.379 1.51073 110.821 0.442165C112.658 -0.918543 114.918 1.15279 116.41 2.41348C131.496 15.1652 138.724 35.8285 137.456 55.3153C137.424 55.8022 137.072 59.0026 136.93 59.1369C136.874 59.1895 136.356 59.1026 136.143 59.1369C135.959 56.2496 135.206 53.4335 134.83 50.5778C134.719 49.7382 134.935 48.7881 134.822 47.9538C132.93 34.0809 127.159 20.8291 116.005 12.0306C114.868 11.1331 112.618 9.36967 111.147 10.0566C102.795 17.0391 98.0722 26.9799 94.5804 37.176C92.6542 42.7978 91.8648 59.3079 92.1858 68.2275C93.4541 90.3042 98.5616 111.894 101.14 133.755C101.459 136.458 102.061 139.837 102.196 142.44C102.214 142.79 102.346 146.517 101.675 145.991C101.125 143.79 100.646 141.585 99.951 139.421C94.2014 121.495 72.9505 95.1522 51.4944 105.675C37.7086 112.433 30.2092 135.547 45.0107 144.893C46.2843 145.696 49.0209 147.52 50.0576 145.825C51.3917 141.411 53.0574 136.979 56.1387 133.484C59.5069 129.662 63.1855 128.086 68.3351 128.196C69.8455 128.228 74.9951 129.975 76.4871 130.781C84.3417 135.015 91.7753 144.693 92.4542 153.763C92.5226 154.673 92.8095 157.837 91.5385 157.837H80.7499C80.721 157.837 80.3552 158.203 80.3552 158.232V167.18C80.3552 167.299 81.3893 167.838 81.5393 167.838H90.7491C90.7965 167.838 91.2122 168.244 91.2701 168.367C91.5806 169.028 91.0122 172.97 90.8491 173.992C89.6965 181.156 86.2152 188.465 78.7237 190.552C74.8241 191.639 73.5821 190.26 74.9583 195.476C75.8635 198.903 78.4027 202.24 82.1287 202.78C93.3094 204.401 100.572 189.77 101.214 180.411L101.93 178.105C102.109 180.437 102.448 182.759 102.719 185.08C103.227 189.428 103.609 193.884 104.956 198.108C106.303 202.332 108.869 206.085 110.663 210.033C111.329 211.502 111.145 214.073 113.118 212.057C115.952 209.162 119.652 200.766 120.755 196.797C121.668 193.507 121.573 190.162 122.836 187.036C133.377 179.369 144.545 171.778 156.533 166.522C174.587 158.608 191.202 155.073 210.271 161.724C217.628 164.29 224.236 173.639 224.312 181.393C224.351 185.291 220.625 178.682 220.189 178.121C198.225 149.978 157.944 167.988 133.419 182.619C131.469 183.782 130.146 183.954 128.507 185.864C126.591 188.099 124.799 196.484 123.515 199.821C121.562 204.901 117.463 211.873 113.881 215.979C112.268 217.826 111.076 216.805 109.682 215.221C107.087 212.276 102.193 205.741 100.796 202.256C100.39 201.245 100.611 199.392 98.5143 200.345C97.9959 200.579 96.4776 202.993 95.6171 203.764C91.4175 207.528 85.6995 208.373 80.6157 205.867C77.4633 204.314 74.1031 201.243 72.619 198.074C71.127 194.884 70.3534 191.136 70.6533 187.612C72.4874 186.891 74.3451 187.046 76.3081 186.557C80.7788 185.441 85.3048 181.682 87.2467 177.495C87.7783 176.35 89.4255 171.783 88.5177 170.857C88.323 170.66 86.281 170.207 86.0126 170.207H75.8819C75.8056 170.207 75.3556 168.836 75.3556 168.759V153.889H75.3582Z" fill="#134691"/>
<path d="M207.9 188.028C207.69 188.278 206.59 188.781 206.234 188.807C203.564 189.015 201.309 187.165 199.077 186.343C185.897 181.487 173.545 182.406 159.951 184.414C155.202 185.117 147.231 187.401 142.719 189.286C142.1 189.544 141.437 190.281 140.945 190.407C139.753 190.715 137.874 190.531 136.572 191.018C135.435 189.97 137.251 188.562 138.116 187.844C144.605 182.451 165.396 176.289 173.9 175.471C183.663 174.531 198.619 173.289 205.611 181.648C206.577 182.801 208.992 186.722 207.895 188.028H207.9Z" fill="#F9F726"/>
<path d="M164.996 124.843C163.551 126.309 161.643 127.638 160.083 129.273C157.054 132.441 154.247 135.634 151.278 138.89C149.434 140.914 144.166 144.585 143.382 146.52C142.598 148.454 142.813 149.62 141.024 151.268C138.664 153.444 134.724 151.51 133.835 155.658C133.196 158.632 132.772 162.495 131.338 165.267C130.541 166.809 127.365 170.849 125.691 171.197C121.199 172.126 121.155 168.688 121.399 165.325C121.818 159.571 124.991 157.621 127.083 153.113C127.378 152.478 127.567 151.981 127.462 151.254C126.891 151.199 126.515 151.212 126.001 151.504C125.538 151.768 122.318 155.108 121.802 155.726C118.92 159.182 116.497 165.498 114.087 169.591C113.75 170.162 112.742 171.676 112.195 171.91C110.779 172.513 101.646 170.181 101.017 168.891C99.4905 165.767 107 165.183 108.7 164.204C112.318 162.116 116.339 148.083 118.247 143.748C118.778 142.54 119.836 140.074 120.394 139.053C120.912 138.105 122.557 137.066 123.254 136.123C123.807 135.373 124.078 134.197 124.696 133.618C125.354 133.005 126.449 132.913 127.191 132.428C131.672 129.504 129.575 125.864 129.67 121.693C129.738 118.661 130.498 115.687 130.638 112.476C130.72 110.583 132.89 107.796 133.193 106.325C133.44 105.119 133.104 103.69 133.277 102.461C133.404 101.564 134.169 100.65 134.053 99.8212C133.919 98.8659 129.635 95.6181 128.625 95.2259C127.101 94.6363 124.973 94.7469 123.186 94.0863C121.191 93.352 117.405 91.2569 116.018 89.6752C114.421 87.8512 113.713 86.3405 114.166 83.8691C114.479 82.161 116.823 76.4234 118.278 75.6128C119.531 74.9153 121.005 75.4311 122.265 74.8626C123.046 74.5126 124.291 73.0966 125.294 72.6281C128.562 71.0911 132.672 70.4226 135.888 69.0119C139.229 67.5459 143.232 63.14 147.276 63.6664C148.155 63.7822 149.234 65.1745 150.378 64.5534C150.831 64.2323 150.528 62.0636 150.747 61.2371C151.042 60.1159 152.468 58.8868 152.931 57.8946C153.315 57.0682 153.315 56.0128 153.657 55.1995C154.27 53.7388 155.086 52.3438 155.61 50.8358C158.42 49.7935 162.491 47.5222 165.493 47.5406C166.004 47.5432 169.451 48.3012 170.106 48.4723C171.698 48.8934 171.603 49.983 172.35 50.9647C174.484 53.7651 180.029 54.5284 178.531 59.0237C178.055 60.4502 177.35 60.1844 176.542 60.9818C174.642 62.861 175.603 66.2694 174.763 68.1512C174.056 69.733 170.458 70.5937 172.466 73.4861C174.208 75.997 177.918 78.7684 179.945 81.5346C184.22 87.3722 183.607 96.2076 184.313 103.222C184.476 104.851 185.612 108.491 184.849 109.82C183.665 111.883 178.397 114.213 176.108 114.763C174.187 115.223 170.23 115.139 168.914 115.989C166.698 117.418 167.472 120 166.688 122.185C166.359 123.103 165.69 124.153 165.006 124.846L164.996 124.843ZM173.506 62.8242C173.319 60.3818 171.024 55.9838 168.769 59.5317C168.38 60.1423 168.409 60.8187 167.967 61.3608C167.472 61.9688 166.275 62.2294 165.751 62.8295C164.869 63.8401 165.333 67.6064 163.241 66.93C160.617 66.0799 162.443 63.5401 160.354 62.1609C159.509 61.8083 158.628 64.1191 158.773 64.7745C160.607 67.938 162.178 71.7017 165.609 73.4861C166.182 73.7836 169.469 75.0206 169.824 74.6679C170.358 73.1677 168.709 72.7282 168.548 71.8412C168.209 69.9752 169.73 70.0515 170.743 69.1382C171.166 68.7566 173.071 66.4905 173.187 66.0509C173.437 65.0956 173.006 64.5402 172.014 64.4586C171.595 64.4244 171.098 64.914 170.477 64.9482C168.251 65.0692 167.143 61.7872 168.638 61.5056C170.219 61.2082 172.316 61.7398 173.503 62.8216L173.506 62.8242ZM182.452 106.251C183.128 105.035 182.321 104.227 182.213 103.203C181.886 100.061 181.747 96.605 181.373 93.5151C181.271 92.6545 180.655 91.6702 180.613 91.0964C180.552 90.2094 181.855 89.033 180.613 87.9565C177.453 87.5301 174.166 88.0855 171.011 87.8223C168.993 87.6538 165.743 87.1011 163.712 86.7011C162.496 86.4642 161.828 85.443 160.596 86.3642C158.801 87.7038 159.328 90.67 155.539 88.2987C153.505 87.0248 156.652 84.7429 156.007 83.3559C155.702 82.7032 152.778 81.1872 151.952 80.566C147.45 77.184 144.821 72.3176 141.237 68.1196C137.124 70.9727 132.101 71.8386 127.622 73.9099C126.096 74.6152 123.602 76.9945 122.999 77.1814C121.533 77.6314 120.023 76.7708 118.663 78.1078C118.352 78.4131 117.521 79.758 117.328 80.1949C116.815 81.3583 115.96 85.1298 116.268 86.2563C116.576 87.3827 119.765 90.7358 120.973 90.4805C122.27 88.9909 121.497 86.1273 123.144 84.964C125.025 83.6349 128.475 84.5166 130.604 83.8691C130.867 82.2742 129.062 81.8978 128.007 81.0951C127.507 80.7161 127.146 80.2002 126.651 79.8186C125.83 79.1816 124.528 79.3159 124.825 77.8288C128.454 77.2024 130.509 79.4975 132.727 81.9004C133.693 82.9479 134.169 85.0693 135.898 83.7665C136.858 83.0427 137.611 80.8608 137.756 80.7555C138.116 80.4976 139.927 81.0608 140.619 80.3292C141.174 79.7396 141.24 77.4709 141.811 76.5208C142.153 75.9523 144.461 73.7757 145.089 74.4047C145.492 76.0891 144.263 76.8287 143.824 78.2736L145.074 80.3028C144.958 80.7845 143.058 81.1214 143.047 82.1136C143.021 84.385 146.973 84.5903 146.387 86.6142C146.079 87.6802 144.824 86.2668 144.313 86.1089C143.171 85.7562 142.34 86.051 142 87.238C141.269 89.8041 144.026 88.3329 145.689 88.6803C146.41 88.8303 147.239 89.5673 147.987 89.8015C149.173 90.1752 150.649 90.0884 152.049 90.4779C155.081 91.3201 160.036 94.4284 161.817 97.0261C162.477 97.9894 163.809 101.561 165.233 101.514C166.248 101.479 165.888 99.8634 165.675 99.2185C165.209 97.8052 163.759 97.4446 162.58 96.7893C161.73 95.1864 163.717 93.4941 165.009 94.4916C165.138 94.5916 166.027 96.6261 166.538 95.7312C167.048 94.8364 166.075 94.2758 165.927 93.6862C165.69 92.7387 167.085 88.4961 167.977 89.1488C168.93 90.9464 168.143 92.5676 168.248 94.5416C168.316 95.8049 168.751 97.1367 169.035 98.3605C170.669 97.4973 169.801 96.3076 169.811 95.0811C169.814 94.6548 169.872 91.9307 169.943 91.7833C170.206 91.228 171.332 90.8911 171.927 90.9911C171.556 93.173 172.679 95.8944 171.856 97.8947C171.464 98.8448 169.958 99.8081 170.851 101.15C172.524 102.516 173.556 100.263 174.863 99.8528C180.034 98.2237 178.339 105.435 182.45 106.259L182.452 106.251ZM154.904 70.7937C154.031 71.9175 154.615 72.7413 154.678 73.8388C154.725 74.6837 154.286 75.2338 154.812 76.1286C155.583 77.4446 156.938 76.0865 158.054 76.2865C159.096 76.4734 160.341 78.9053 161.409 78.2236C161.828 77.9578 161.58 77.692 161.491 77.3551C161.37 76.8919 157.917 71.0779 157.57 70.7384C156.681 69.862 155.699 69.7725 154.907 70.7937H154.904ZM169.548 79.916C170.561 78.65 168.138 75.9181 167.132 76.0233C166.851 76.0523 164.501 76.8998 164.417 77.0208C163.262 78.7026 168.527 79.7528 169.548 79.916ZM157.457 85.9826C159.849 85.8983 158.78 84.8245 159.707 83.3638C160.172 82.6268 162.641 80.4871 162.696 80.2792C162.888 79.5396 162.112 79.0185 161.401 79.2474C159.13 79.9844 158.128 83.9691 157.459 85.9826H157.457ZM140.716 92.9967C139.137 90.5963 143.287 91.6544 144.295 90.5911C142.916 89.1198 141.745 90.2094 140.221 90.2173C137.237 90.2358 134.932 89.3356 132.338 88.3434C130.801 87.7538 127.591 87.8117 126.08 88.4224C125.77 88.5487 124.546 89.6857 124.42 89.941C123.717 91.3622 128.772 92.7466 129.746 93.3046C131.188 94.1336 132.246 95.9339 134.038 95.7207C132.456 94.1179 132.859 92.2071 135.085 91.6307C137.311 91.0543 138.132 93.4915 140.35 93.3625C139.64 95.0522 141.248 95.8681 142.621 96.4787C144.534 97.3288 144.982 96.605 146.929 96.5155C146.637 97.4236 146.505 98.4895 147.205 99.2633C147.905 100.037 151.173 101.979 152.278 102.611C154.312 103.78 156.536 104.577 158.494 105.885C159.201 106.08 161.357 102.095 161.38 101.09C161.438 98.6737 156.646 94.7232 154.573 93.7362C152.365 92.6861 148.421 91.9623 145.997 92.2887C144.55 92.4834 144.953 93.5967 144.142 94.1179C142.784 94.9917 141.466 94.1415 140.716 92.9967ZM138.435 96.3287C138.527 96.4076 140.098 98.55 140.353 97.163C140.524 96.2339 137.048 92.2597 135.616 93.0914C135.68 94.1415 135.735 94.9153 136.669 95.5917L135.616 95.7233C135.467 95.8655 136.106 97.7526 136.295 98.071C136.543 98.4869 139.143 101.453 139.592 101.879C140.177 102.437 141.927 103.316 142.216 103.73C142.537 104.19 142.382 104.732 142.608 105.18C144.021 107.98 150.621 110.82 153.657 110.736C154.078 110.725 157.259 109.015 157.47 108.691C158.48 107.125 154.133 105.846 153.073 105.24C150.621 103.843 148.008 102.153 145.758 100.45C143.755 98.9343 144.511 98.6 141.406 98.479C141.045 98.4658 140.953 98.2368 140.624 98.7474C141.563 101.111 142.905 100.055 144.816 100.474C144.95 102.782 142.921 102.861 141.424 101.629C140.927 101.221 139.495 99.7765 139.043 99.2738C138.227 98.3737 138.119 97.1656 137.201 96.376C136.895 95.6654 138.161 96.0892 138.437 96.3287H138.435ZM164.498 119.998C163.925 119.426 161.52 119.998 161.175 118.711C160.628 116.671 166.848 119.219 164.822 116.384C162.775 113.52 162.125 116.097 160.22 116.263C159.594 116.318 157.77 116.073 157.131 115.918C154.507 115.284 153.907 112.77 150.728 112.057C148.589 111.578 147.597 111.312 145.634 110.046C141.987 107.693 141.784 105.233 137.893 103.051C137.458 102.808 137.161 102.208 136.748 102.082C135.59 101.732 135.143 102.39 135.348 103.48C135.577 104.688 140.419 105.343 140.616 107.296C138.703 108.125 136.916 106.064 134.985 106.743C135.077 108.546 133.546 108.657 133.514 110.191C137.99 108.87 141.445 110.236 144.516 113.531C144.037 114.573 146.089 119.919 145.881 120.187C145.847 120.229 145.2 120.269 144.903 120.535C143.926 121.403 143.474 122.843 142.95 123.972C142.803 124.288 142.319 124.525 142.234 124.856C142.029 125.683 142.511 126.301 143.392 125.735C144.966 124.725 145.481 122.135 146.202 120.642C146.495 120.037 147.51 119.721 147.673 118.418C147.876 116.805 146.189 113.636 144.563 113.086C144.587 111.825 145.816 112.528 146.487 112.876C148.652 113.994 150.063 117.574 149.384 119.89C148.923 121.456 146.289 123.64 146.773 125.209C147.344 127.056 151.499 129.509 152.855 130.986H153.231C153.631 129.183 156.065 130.36 157.191 129.807L157.673 129.223C158.346 126.259 153.881 126.098 153.007 124.777C152.581 124.132 152.47 122.577 152.131 121.706C151.792 120.835 151.028 119.932 150.828 119.053C150.755 118.732 150.444 118.758 151.01 118.355C151.218 118.316 153.731 120.09 153.897 120.463C154.168 121.082 153.944 121.748 154.086 122.38C154.349 123.556 157.002 125.211 157.717 126.385C158.983 125.93 157.349 124.356 156.965 123.714C156.396 122.759 156.189 121.843 155.089 121.114L155.625 120.348C155.257 118.145 154.215 118.44 152.844 117.571C151.21 116.537 149.039 114.855 148.776 112.826C149.165 112.412 152.831 115.808 153.426 116.2C154.547 116.939 156.562 117.55 157.454 118.224C158.033 118.661 158.428 119.637 159.17 120.192C159.833 120.687 161.043 120.942 161.417 121.366C162.446 122.54 159.428 122.274 159.038 122.961C158.999 123.138 160.151 124.322 160.304 124.403C162.333 125.48 165.985 121.479 164.498 119.992V119.998ZM176.845 102.651C175.358 100.932 174.021 104.53 172.806 104.635C172.374 104.672 171.111 103.082 170.09 103.622C169.798 104.985 172.253 105.862 171.422 107.117C171.074 107.641 170.137 107.454 170.393 108.693C170.435 108.899 171.558 110.962 171.766 111.289C172.085 111.791 172.916 113.184 173.44 113.32C176.561 113.097 179.079 110.986 182.013 110.152C184.052 107.517 181.834 108.196 180.247 107.546C179.952 107.425 177.795 105.701 177.705 105.546C177.266 104.788 177.616 103.54 176.847 102.653L176.845 102.651ZM164.322 104.385C165.051 105.188 166.651 103.751 165.359 102.951C164.325 102.311 164.03 104.064 164.322 104.385ZM165.843 106.285C165.59 105.885 163.804 105.572 164.033 107.159C164.312 109.091 166.635 107.538 165.843 106.285ZM167.682 113.844C168.59 113.27 166.977 109.128 166.011 109.133C165.801 109.133 164.212 110.475 163.054 110.66C161.546 110.896 159.767 110.373 158.701 110.512C157.47 110.675 156.267 112.468 154.828 112.304C154.72 112.902 154.862 112.723 155.165 112.891C155.391 113.015 158.709 114.155 158.907 114.168C160.165 114.257 159.912 113.468 160.283 113.355C160.63 113.247 161.204 113.394 161.693 113.247C162.183 113.099 162.812 112.568 163.125 112.565C163.533 112.562 164.454 113.655 165.283 113.823C166.038 113.976 166.917 113.899 167.682 113.847V113.844ZM131.143 132.57C132.251 132.734 133.161 134.213 134.232 134.368C135.303 134.523 136.416 133.005 136.793 133.097L138.114 134.413C138.579 133.228 141.134 130.038 141.127 129.017C141.124 128.541 140.619 128.117 140.608 127.449C140.592 126.356 141.079 124.814 141.071 123.501C141.05 120.445 140.779 118.071 140.892 114.815C141.048 110.37 136.082 111.694 133.317 112.633C132.819 113.034 131.909 116.663 131.743 117.508C130.854 122.087 132.322 127.159 131.333 130.783C130.764 132.86 130.985 131.918 129.562 132.431C125.812 133.784 126.904 138.89 130.598 139.132C130.591 138.669 131.146 137.718 131.146 137.442V132.573L131.143 132.57ZM135.093 149.938C136.798 149.857 138.235 149.696 139.574 148.501C140.913 147.307 141.258 145.164 142.319 143.877C143.147 142.869 145.089 141.832 146.147 140.864C148.252 138.942 150.068 136.7 152.328 134.931C152.552 134.571 152.502 134.257 152.328 133.889C151.876 132.923 149.294 131.349 148.779 130.054L147.837 130.181C145.087 133.389 142.361 136.624 139.303 139.545C137.964 140.824 136.461 141.206 135.911 143.259C135.698 144.053 134.846 149.688 135.093 149.938ZM116.142 163.364C117.005 159.985 119.113 156.629 121.399 154.013C122.494 152.763 128.391 147.638 128.483 146.612C128.575 145.585 125.423 145.817 124.638 145.525C122.907 144.883 121.794 141.427 120.236 143.638C117.952 146.88 116.755 153.049 115.013 156.837C114.545 157.855 113.568 158.663 113.295 159.861C113.337 160.835 114.873 161.029 115.213 161.529C115.6 162.101 115.242 163.53 116.142 163.364ZM132.454 144.688C130.767 143.801 129.204 145.92 130.08 147.454C131.051 148.154 132.804 145.18 132.454 144.688ZM133.43 150.541C133.367 150.465 131.975 149.396 131.867 149.349C130.467 148.733 128.193 149.928 128.496 151.344C128.549 151.589 132.148 153.168 132.575 153.11C133.609 152.968 134.117 151.386 133.43 150.544V150.541ZM128.97 153.665C126.909 154.068 126.728 157.829 129.68 157.3C130.538 157.147 131.69 156.063 131.38 155.118C131.243 154.705 129.583 153.544 128.97 153.665ZM131.117 160.969C131.648 159.763 131.559 158.877 130.02 159.203C127.991 159.635 129.751 161.258 131.117 160.969ZM113.708 163.556C114.331 162.956 113.526 162.127 112.863 162.311C111.968 162.559 112.542 164.677 113.708 163.556ZM105.127 166.556C103.772 169.238 107.303 169.767 109.04 168.754C109.132 168.33 105.898 165.962 105.127 166.556Z" fill="black"/>
<path d="M24.2544 233.726L17.8022 230.955L18.1996 230.028C18.6759 230.21 19.0942 230.307 19.4547 230.318C19.8152 230.328 20.2099 230.249 20.6362 230.078C21.0625 229.907 21.5967 229.649 22.2308 229.302L29.9802 225.022L30.3881 226.859L29.9381 226.667L24.7333 229.815C24.4491 229.96 24.1438 230.144 23.8149 230.368C23.486 230.591 23.2571 230.855 23.1281 231.152C23.015 231.415 23.0492 231.673 23.2281 231.926C23.4071 232.181 23.8807 232.471 24.6464 232.8L24.2491 233.726H24.2544ZM36.6507 239.05L28.2093 235.424L28.6066 234.497L28.8593 234.605C29.4382 234.855 29.8644 234.971 30.1381 234.955C30.4118 234.939 30.6117 234.781 30.7407 234.481C30.8696 234.181 30.938 233.842 30.9486 233.458C30.9591 233.073 30.9012 232.513 30.7749 231.77L30.2407 228.452L29.9934 226.32L29.7066 225.599L28.0777 217.324C27.8962 216.561 27.7409 215.955 27.6094 215.51C27.4778 215.066 27.2673 214.705 26.9778 214.426C26.6884 214.147 26.2253 213.871 25.5885 213.597L25.999 212.644L34.3299 216.221L33.9194 217.174L33.6115 217.042C33.0879 216.818 32.6879 216.718 32.4116 216.742C32.1353 216.768 31.9274 216.94 31.7932 217.258C31.688 217.5 31.6538 217.824 31.6932 218.229C31.7301 218.632 31.7959 219.071 31.8932 219.545C31.9879 220.019 32.0511 220.482 32.0774 220.937L32.559 224.533L32.83 225.214L34.8719 235.163C35.0588 236.018 35.3035 236.645 35.6113 237.042C35.9166 237.44 36.3981 237.8 37.056 238.127L36.6586 239.053L36.6507 239.05ZM38.8216 222.306L32.5537 225.762L32.1379 224.022L32.559 224.204L37.1138 221.409C37.4901 221.151 37.8085 220.914 38.0638 220.703C38.3216 220.493 38.5058 220.256 38.6164 219.993C38.7137 219.769 38.669 219.55 38.4822 219.337C38.2953 219.124 37.8664 218.874 37.1928 218.584L37.6033 217.632L44.1949 220.464L43.7844 221.416C43.187 221.206 42.6687 221.087 42.2266 221.064C41.7819 221.04 41.3082 221.124 40.8057 221.316C40.3004 221.511 39.64 221.84 38.819 222.306H38.8216Z" fill="black"/>
<path d="M48.5445 243.222L47.0367 242.722L45.4868 224.901C45.4079 224.167 45.3026 223.569 45.1658 223.106C45.029 222.643 44.8211 222.269 44.5422 221.982C44.2606 221.695 43.8422 221.461 43.2817 221.274L43.608 220.29L51.981 223.067L51.6547 224.051C51.3653 223.954 51.0627 223.877 50.7522 223.817C50.4391 223.756 50.1522 223.767 49.8891 223.851C49.626 223.935 49.4339 224.162 49.3102 224.527C49.176 224.933 49.1418 225.554 49.2076 226.391L49.9075 235.726L50.047 239.087L50.2207 239.145L52.1968 236.584L58.5858 228.957C58.72 228.81 58.8594 228.631 59.0042 228.42C59.1489 228.209 59.2647 227.97 59.3541 227.702C59.4831 227.315 59.4146 227.004 59.1489 226.765C58.8857 226.528 58.4253 226.299 57.7674 226.08L58.0937 225.096L64.3221 227.162L63.9959 228.146C63.5906 228.012 63.2328 227.941 62.9249 227.936C62.617 227.93 62.3013 228.023 61.9802 228.217C61.6592 228.412 61.2724 228.733 60.8224 229.183C60.3725 229.633 59.8199 230.233 59.1647 230.981L48.5445 243.219V243.222Z" fill="black"/>
<path d="M76.1975 250.794C74.1056 250.352 72.4557 249.552 71.2453 248.391C70.0349 247.23 69.2402 245.814 68.8665 244.143C68.4903 242.472 68.5087 240.672 68.9165 238.74C69.3823 236.529 70.2006 234.752 71.369 233.408C72.5373 232.063 73.9503 231.155 75.6107 230.683C77.2711 230.212 79.0657 230.181 80.9971 230.589C82.0523 230.812 82.8759 231.073 83.468 231.376C84.0601 231.678 84.5205 231.957 84.8521 232.213C85.1836 232.471 85.4784 232.626 85.7362 232.681C86.0152 232.739 86.2362 232.678 86.3993 232.494C86.5625 232.31 86.7441 232.094 86.9414 231.844L87.9571 232.057L86.4809 239.048L85.3468 238.808C85.4126 236.824 85.0389 235.268 84.2258 234.142C83.4127 233.013 82.2418 232.286 80.7077 231.963C78.6579 231.528 76.9369 231.942 75.5502 233.197C74.1609 234.452 73.1872 236.405 72.6294 239.056C72.2163 241.009 72.161 242.653 72.461 243.996C72.761 245.338 73.3609 246.407 74.2635 247.201C75.166 247.996 76.3159 248.538 77.7106 248.833C79.1236 249.131 80.384 249.128 81.4892 248.82C82.5944 248.512 83.6706 247.991 84.7205 247.257L85.3521 248.107C84.5969 248.82 83.7811 249.433 82.9049 249.947C82.026 250.457 81.0392 250.802 79.942 250.976C78.8447 251.149 77.6 251.089 76.2054 250.794H76.1975Z" fill="black"/>
<path d="M96.9538 253.894L87.8677 252.765L87.9966 251.736C88.765 251.831 89.3518 251.844 89.7623 251.77C90.1728 251.697 90.4701 251.47 90.6622 251.084C90.8543 250.697 91.0016 250.081 91.1069 249.231L92.6883 236.505C92.7594 235.939 92.7541 235.484 92.6752 235.134C92.5962 234.787 92.3673 234.516 91.991 234.326C91.6147 234.137 91.0227 233.989 90.2149 233.889L90.3438 232.86L98.5826 233.884C100.056 234.068 101.369 234.384 102.524 234.837C103.677 235.287 104.553 235.916 105.15 236.716C105.748 237.519 105.966 238.566 105.806 239.858C105.666 240.99 105.303 241.872 104.722 242.509C104.14 243.143 103.445 243.612 102.64 243.912C101.835 244.212 100.993 244.409 100.122 244.506L100.106 244.627C100.425 244.872 100.761 245.262 101.114 245.799C101.467 246.336 101.919 247.115 102.469 248.136C103.019 249.157 103.751 250.526 104.666 252.239C105.048 252.963 105.464 253.444 105.916 253.687C106.369 253.929 106.937 254.089 107.624 254.176L107.495 255.205L101.89 254.508C101.256 253.179 100.732 252.068 100.319 251.176C99.9062 250.283 99.5536 249.539 99.2589 248.936C98.9642 248.336 98.7036 247.802 98.4747 247.33C98.2458 246.862 98.009 246.375 97.7643 245.872C97.5195 245.37 97.2774 245.049 97.038 244.906C96.7985 244.764 96.4065 244.659 95.8618 244.591L95.075 244.493L94.4303 249.673C94.3303 250.481 94.3251 251.102 94.4145 251.531C94.504 251.963 94.754 252.265 95.1618 252.439C95.5697 252.613 96.2091 252.755 97.0775 252.863L96.9485 253.892L96.9538 253.894ZM95.2355 243.219L96.3828 243.393C97.4801 243.469 98.4352 243.414 99.2483 243.227C100.061 243.04 100.725 242.656 101.238 242.074C101.751 241.493 102.074 240.656 102.211 239.564C102.359 238.371 102.124 237.384 101.503 236.6C100.882 235.816 99.7957 235.326 98.2405 235.134C97.9169 235.095 97.5879 235.058 97.2538 235.026C96.9196 234.995 96.588 234.979 96.2591 234.979L95.2355 243.219Z" fill="black"/>
<path d="M126.083 255.99L109.432 255.284L109.476 254.247C110.25 254.279 110.845 254.247 111.268 254.155C111.689 254.06 111.989 253.829 112.168 253.46C112.347 253.092 112.453 252.51 112.487 251.718L113.016 239.211C113.047 238.437 113.002 237.845 112.876 237.432C112.75 237.019 112.489 236.734 112.087 236.574C111.687 236.416 111.068 236.316 110.234 236.282L110.279 235.245L126.625 235.937L126.591 241.101L125.433 241.051C125.333 240.069 125.154 239.311 124.904 238.782C124.652 238.253 124.209 237.877 123.578 237.655C122.946 237.434 122.02 237.3 120.799 237.248L116.468 237.063L116.15 244.567L119.444 244.706C120.42 244.749 121.149 244.706 121.633 244.585C122.118 244.464 122.449 244.198 122.631 243.788C122.81 243.377 122.917 242.767 122.952 241.953L124.081 242.001L123.781 249.078L122.652 249.031C122.689 248.175 122.633 247.549 122.486 247.144C122.339 246.741 122.031 246.467 121.557 246.325C121.083 246.183 120.36 246.091 119.384 246.049L116.089 245.909L115.744 254.052L119.586 254.216C120.704 254.263 121.618 254.239 122.323 254.147C123.031 254.055 123.591 253.866 124.012 253.576C124.43 253.289 124.791 252.871 125.088 252.323C125.386 251.776 125.696 251.07 126.017 250.207L127.146 250.255L126.078 255.984L126.083 255.99Z" fill="black"/>
<path d="M139.169 255.7L129.864 256L129.83 254.963C130.643 254.937 131.246 254.847 131.638 254.692C132.03 254.537 132.275 254.25 132.372 253.829C132.469 253.408 132.506 252.771 132.477 251.915L132.064 239.129C132.033 238.195 131.822 237.595 131.425 237.332C131.03 237.069 130.333 236.955 129.338 236.987L129.304 235.95L137.603 235.682C138.6 235.65 139.563 235.695 140.492 235.818C141.424 235.942 142.255 236.174 142.99 236.516C143.724 236.858 144.31 237.363 144.747 238.032C145.187 238.7 145.424 239.553 145.455 240.59C145.495 241.79 145.302 242.798 144.881 243.617C144.46 244.435 143.876 245.101 143.129 245.612C142.382 246.125 141.529 246.499 140.569 246.733C139.608 246.967 138.621 247.101 137.603 247.133C137.277 247.144 136.932 247.13 136.564 247.091C136.195 247.051 135.898 246.996 135.672 246.922L135.832 251.926C135.859 252.76 135.961 253.379 136.137 253.779C136.314 254.181 136.632 254.434 137.093 254.542C137.553 254.65 138.232 254.689 139.127 254.66L139.161 255.697L139.169 255.7ZM137.29 245.741C138.348 245.707 139.224 245.551 139.916 245.275C140.611 244.999 141.129 244.522 141.474 243.851C141.819 243.177 141.971 242.251 141.934 241.072C141.89 239.687 141.479 238.648 140.703 237.95C139.927 237.253 138.727 236.929 137.098 236.982C136.814 236.992 136.535 237.011 136.261 237.04C135.987 237.069 135.687 237.108 135.364 237.161L135.637 245.675C135.822 245.691 136.056 245.707 136.343 245.728C136.629 245.749 136.945 245.754 137.29 245.743V245.741Z" fill="black"/>
<path d="M162.567 253.794L153.07 254.837L152.957 253.805C153.847 253.708 154.502 253.573 154.925 253.405C155.346 253.236 155.599 252.926 155.683 252.476C155.767 252.026 155.76 251.357 155.662 250.468L155.212 246.37L150.563 240.369C149.844 239.424 149.242 238.687 148.755 238.156C148.265 237.627 147.834 237.237 147.46 236.992C147.084 236.747 146.747 236.6 146.444 236.55C146.142 236.503 145.81 236.497 145.445 236.537L145.331 235.505L153.918 234.563L154.031 235.595C153.181 235.687 152.641 235.808 152.412 235.955C152.184 236.103 152.081 236.289 152.105 236.511C152.147 236.895 152.368 237.332 152.77 237.819L155.931 241.988L157.467 244.246L157.649 244.225L160.793 236.784C160.88 236.632 160.946 236.45 160.996 236.239C161.043 236.029 161.059 235.824 161.035 235.621C161.006 235.358 160.864 235.174 160.607 235.068C160.349 234.963 159.836 234.952 159.067 235.037L158.954 234.005L165.659 233.271L165.772 234.302C165.19 234.408 164.704 234.558 164.317 234.752C163.927 234.95 163.575 235.258 163.251 235.684C162.93 236.108 162.57 236.753 162.172 237.613L158.536 245.907L158.996 250.094C159.093 250.984 159.251 251.631 159.47 252.039C159.688 252.444 160.028 252.689 160.485 252.773C160.946 252.857 161.599 252.85 162.448 252.757L162.562 253.789L162.567 253.794Z" fill="black"/>
<path d="M188.089 249.523L186.323 249.876L171.066 236.455L170.137 236.64L169.227 235.513C168.764 235.066 168.364 234.747 168.024 234.555C167.685 234.363 167.351 234.252 167.024 234.226C166.695 234.197 166.303 234.229 165.846 234.321L165.643 233.302L171.419 232.147L185.178 244.309L185.328 244.28L183.439 234.818C183.263 233.939 183.06 233.229 182.826 232.684C182.592 232.139 182.252 231.765 181.807 231.565C181.363 231.363 180.7 231.349 179.823 231.526L179.621 230.507L186.833 229.065L187.036 230.083C186.239 230.244 185.673 230.507 185.341 230.873C185.01 231.241 184.841 231.726 184.839 232.328C184.833 232.931 184.926 233.692 185.107 234.61L188.086 249.52L188.089 249.523ZM176.755 251.539L169.572 252.976L169.369 251.957C170.166 251.797 170.737 251.534 171.079 251.165C171.421 250.797 171.598 250.283 171.614 249.625C171.627 248.97 171.535 248.141 171.335 247.144L168.848 234.689L170.495 234.36L173.121 247.504C173.321 248.502 173.54 249.241 173.782 249.723C174.024 250.205 174.361 250.494 174.797 250.594C175.232 250.694 175.818 250.67 176.558 250.523L176.76 251.542L176.755 251.539Z" fill="black"/>
<path d="M203.616 245.422C201.648 246.012 199.838 246.12 198.185 245.743C196.533 245.367 195.106 244.546 193.909 243.28C192.712 242.014 191.801 240.337 191.178 238.25C190.578 236.242 190.433 234.379 190.746 232.657C191.059 230.939 191.796 229.46 192.954 228.22C194.112 226.98 195.675 226.067 197.646 225.478C199.614 224.888 201.422 224.783 203.064 225.162C204.706 225.541 206.113 226.341 207.287 227.562C208.461 228.783 209.339 230.378 209.929 232.347C210.547 234.413 210.713 236.329 210.424 238.095C210.134 239.861 209.416 241.377 208.266 242.646C207.116 243.914 205.566 244.841 203.616 245.425V245.422ZM203.243 244.067C205.192 243.483 206.429 242.314 206.958 240.564C207.484 238.814 207.305 236.455 206.419 233.492C205.887 231.718 205.185 230.276 204.311 229.167C203.437 228.059 202.456 227.301 201.369 226.894C200.28 226.486 199.143 226.462 197.954 226.817C196.159 227.354 194.97 228.52 194.38 230.31C193.791 232.102 193.896 234.331 194.696 237.003C195.52 239.753 196.654 241.767 198.098 243.043C199.543 244.32 201.259 244.662 203.248 244.067H203.243Z" fill="black"/>
<path d="M224.667 237.721L216.042 240.974L215.676 240.003C216.534 239.679 217.128 239.374 217.465 239.085C217.802 238.795 217.944 238.427 217.897 237.977C217.847 237.529 217.668 236.895 217.36 236.074L213.205 225.046C212.926 224.304 212.658 223.735 212.4 223.343C212.142 222.951 211.792 222.74 211.347 222.711C210.903 222.682 210.231 222.838 209.337 223.175L208.971 222.203L217.626 218.94L217.991 219.911C217.115 220.24 216.515 220.566 216.189 220.885C215.863 221.203 215.739 221.593 215.815 222.053C215.892 222.514 216.068 223.117 216.349 223.859L220.504 234.887C220.812 235.705 221.096 236.3 221.357 236.671C221.615 237.042 221.967 237.224 222.412 237.219C222.857 237.213 223.488 237.058 224.307 236.75L224.672 237.721H224.667Z" fill="black"/>
<path d="M228.727 236.55L227.751 236.982L224.836 231.06L225.87 230.605C226.746 231.731 227.543 232.534 228.27 233.015C228.993 233.497 229.717 233.723 230.438 233.694C231.159 233.665 231.956 233.458 232.832 233.071C233.503 232.776 234.053 232.421 234.482 232.007C234.911 231.597 235.185 231.118 235.303 230.578C235.419 230.039 235.329 229.431 235.035 228.762C234.674 227.944 234.161 227.362 233.498 227.02C232.835 226.678 232.072 226.459 231.206 226.364C230.34 226.27 229.446 226.18 228.52 226.099C227.549 226.017 226.604 225.893 225.688 225.73C224.77 225.567 223.941 225.238 223.202 224.743C222.459 224.248 221.862 223.488 221.412 222.464C220.967 221.459 220.844 220.511 221.044 219.624C221.241 218.737 221.681 217.929 222.362 217.205C223.044 216.482 223.915 215.887 224.975 215.418C225.775 215.066 226.438 214.85 226.959 214.776C227.483 214.7 227.914 214.671 228.254 214.687C228.593 214.702 228.877 214.663 229.101 214.563C229.306 214.473 229.459 214.339 229.556 214.16C229.656 213.984 229.68 213.739 229.633 213.426L230.469 213.055L233.14 218.65L232.164 219.082C231.067 217.653 230.027 216.726 229.051 216.303C228.075 215.879 226.938 215.963 225.643 216.555C224.675 216.982 224.025 217.516 223.694 218.15C223.362 218.787 223.378 219.514 223.738 220.332C224.044 221.022 224.496 221.522 225.101 221.832C225.707 222.143 226.412 222.343 227.217 222.432C228.025 222.522 228.867 222.606 229.748 222.682C230.511 222.746 231.282 222.817 232.061 222.896C232.84 222.975 233.588 223.127 234.301 223.359C235.014 223.59 235.661 223.948 236.245 224.435C236.827 224.925 237.303 225.585 237.674 226.425C238.158 227.525 238.308 228.57 238.124 229.562C237.94 230.557 237.474 231.452 236.724 232.249C235.974 233.047 235.014 233.705 233.843 234.223C232.893 234.642 232.103 234.908 231.475 235.018C230.846 235.129 230.34 235.184 229.964 235.184C229.585 235.184 229.293 235.229 229.091 235.321C228.885 235.41 228.751 235.571 228.685 235.8C228.62 236.029 228.635 236.279 228.73 236.547L228.727 236.55Z" fill="black"/>
</g>
<defs>
<clipPath id="clip0_3005_21752">
<rect width="256" height="256" fill="white"/>
</clipPath>
</defs>
</svg>
